G04 #@! TF.GenerationSoftware,KiCad,Pcbnew,(6.0.2)*
G04 #@! TF.CreationDate,2022-04-26T10:19:42-06:00*
G04 #@! TF.ProjectId,CONEPROJ,434f4e45-5052-44f4-9a2e-6b696361645f,rev?*
G04 #@! TF.SameCoordinates,Original*
G04 #@! TF.FileFunction,Soldermask,Bot*
G04 #@! TF.FilePolarity,Negative*
%FSLAX46Y46*%
G04 Gerber Fmt 4.6, Leading zero omitted, Abs format (unit mm)*
G04 Created by KiCad (PCBNEW (6.0.2)) date 2022-04-26 10:19:42*
%MOMM*%
%LPD*%
G01*
G04 APERTURE LIST*
G04 Aperture macros list*
%AMRoundRect*
0 Rectangle with rounded corners*
0 $1 Rounding radius*
0 $2 $3 $4 $5 $6 $7 $8 $9 X,Y pos of 4 corners*
0 Add a 4 corners polygon primitive as box body*
4,1,4,$2,$3,$4,$5,$6,$7,$8,$9,$2,$3,0*
0 Add four circle primitives for the rounded corners*
1,1,$1+$1,$2,$3*
1,1,$1+$1,$4,$5*
1,1,$1+$1,$6,$7*
1,1,$1+$1,$8,$9*
0 Add four rect primitives between the rounded corners*
20,1,$1+$1,$2,$3,$4,$5,0*
20,1,$1+$1,$4,$5,$6,$7,0*
20,1,$1+$1,$6,$7,$8,$9,0*
20,1,$1+$1,$8,$9,$2,$3,0*%
G04 Aperture macros list end*
%ADD10C,0.010000*%
%ADD11C,5.600000*%
%ADD12C,2.374900*%
%ADD13C,0.990600*%
%ADD14R,2.056000X2.056000*%
%ADD15C,2.056000*%
%ADD16RoundRect,0.150000X0.150000X-0.725000X0.150000X0.725000X-0.150000X0.725000X-0.150000X-0.725000X0*%
%ADD17RoundRect,0.237500X-0.237500X0.250000X-0.237500X-0.250000X0.237500X-0.250000X0.237500X0.250000X0*%
%ADD18R,3.000000X1.200000*%
%ADD19RoundRect,0.250000X0.475000X-0.337500X0.475000X0.337500X-0.475000X0.337500X-0.475000X-0.337500X0*%
%ADD20C,1.000000*%
%ADD21R,2.200000X1.050000*%
%ADD22R,1.050000X1.000000*%
G04 APERTURE END LIST*
D10*
G04 #@! TO.C,U4*
X86480000Y-74652500D02*
X86480000Y-76392500D01*
X86480000Y-76392500D02*
X86920000Y-76392500D01*
X86920000Y-76392500D02*
X86920000Y-74652500D01*
X86920000Y-74652500D02*
X86480000Y-74652500D01*
G36*
X86920000Y-76392500D02*
G01*
X86480000Y-76392500D01*
X86480000Y-74652500D01*
X86920000Y-74652500D01*
X86920000Y-76392500D01*
G37*
X86920000Y-76392500D02*
X86480000Y-76392500D01*
X86480000Y-74652500D01*
X86920000Y-74652500D01*
X86920000Y-76392500D01*
X87780000Y-80252500D02*
X87780000Y-81992500D01*
X87780000Y-81992500D02*
X88220000Y-81992500D01*
X88220000Y-81992500D02*
X88220000Y-80252500D01*
X88220000Y-80252500D02*
X87780000Y-80252500D01*
G36*
X88220000Y-81992500D02*
G01*
X87780000Y-81992500D01*
X87780000Y-80252500D01*
X88220000Y-80252500D01*
X88220000Y-81992500D01*
G37*
X88220000Y-81992500D02*
X87780000Y-81992500D01*
X87780000Y-80252500D01*
X88220000Y-80252500D01*
X88220000Y-81992500D01*
X94280000Y-80252500D02*
X94280000Y-81992500D01*
X94280000Y-81992500D02*
X94720000Y-81992500D01*
X94720000Y-81992500D02*
X94720000Y-80252500D01*
X94720000Y-80252500D02*
X94280000Y-80252500D01*
G36*
X94720000Y-81992500D02*
G01*
X94280000Y-81992500D01*
X94280000Y-80252500D01*
X94720000Y-80252500D01*
X94720000Y-81992500D01*
G37*
X94720000Y-81992500D02*
X94280000Y-81992500D01*
X94280000Y-80252500D01*
X94720000Y-80252500D01*
X94720000Y-81992500D01*
X89730000Y-74652500D02*
X89730000Y-76392500D01*
X89730000Y-76392500D02*
X90170000Y-76392500D01*
X90170000Y-76392500D02*
X90170000Y-74652500D01*
X90170000Y-74652500D02*
X89730000Y-74652500D01*
G36*
X90170000Y-76392500D02*
G01*
X89730000Y-76392500D01*
X89730000Y-74652500D01*
X90170000Y-74652500D01*
X90170000Y-76392500D01*
G37*
X90170000Y-76392500D02*
X89730000Y-76392500D01*
X89730000Y-74652500D01*
X90170000Y-74652500D01*
X90170000Y-76392500D01*
X89730000Y-80252500D02*
X89730000Y-81992500D01*
X89730000Y-81992500D02*
X90170000Y-81992500D01*
X90170000Y-81992500D02*
X90170000Y-80252500D01*
X90170000Y-80252500D02*
X89730000Y-80252500D01*
G36*
X90170000Y-81992500D02*
G01*
X89730000Y-81992500D01*
X89730000Y-80252500D01*
X90170000Y-80252500D01*
X90170000Y-81992500D01*
G37*
X90170000Y-81992500D02*
X89730000Y-81992500D01*
X89730000Y-80252500D01*
X90170000Y-80252500D01*
X90170000Y-81992500D01*
X94930000Y-80252500D02*
X94930000Y-81992500D01*
X94930000Y-81992500D02*
X95370000Y-81992500D01*
X95370000Y-81992500D02*
X95370000Y-80252500D01*
X95370000Y-80252500D02*
X94930000Y-80252500D01*
G36*
X95370000Y-81992500D02*
G01*
X94930000Y-81992500D01*
X94930000Y-80252500D01*
X95370000Y-80252500D01*
X95370000Y-81992500D01*
G37*
X95370000Y-81992500D02*
X94930000Y-81992500D01*
X94930000Y-80252500D01*
X95370000Y-80252500D01*
X95370000Y-81992500D01*
X87695000Y-77122500D02*
X87695000Y-79522500D01*
X87695000Y-79522500D02*
X94155000Y-79522500D01*
X94155000Y-79522500D02*
X94155000Y-77122500D01*
X94155000Y-77122500D02*
X87695000Y-77122500D01*
G36*
X94155000Y-79522500D02*
G01*
X87695000Y-79522500D01*
X87695000Y-77122500D01*
X94155000Y-77122500D01*
X94155000Y-79522500D01*
G37*
X94155000Y-79522500D02*
X87695000Y-79522500D01*
X87695000Y-77122500D01*
X94155000Y-77122500D01*
X94155000Y-79522500D01*
X93630000Y-80252500D02*
X93630000Y-81992500D01*
X93630000Y-81992500D02*
X94070000Y-81992500D01*
X94070000Y-81992500D02*
X94070000Y-80252500D01*
X94070000Y-80252500D02*
X93630000Y-80252500D01*
G36*
X94070000Y-81992500D02*
G01*
X93630000Y-81992500D01*
X93630000Y-80252500D01*
X94070000Y-80252500D01*
X94070000Y-81992500D01*
G37*
X94070000Y-81992500D02*
X93630000Y-81992500D01*
X93630000Y-80252500D01*
X94070000Y-80252500D01*
X94070000Y-81992500D01*
X92980000Y-80252500D02*
X92980000Y-81992500D01*
X92980000Y-81992500D02*
X93420000Y-81992500D01*
X93420000Y-81992500D02*
X93420000Y-80252500D01*
X93420000Y-80252500D02*
X92980000Y-80252500D01*
G36*
X93420000Y-81992500D02*
G01*
X92980000Y-81992500D01*
X92980000Y-80252500D01*
X93420000Y-80252500D01*
X93420000Y-81992500D01*
G37*
X93420000Y-81992500D02*
X92980000Y-81992500D01*
X92980000Y-80252500D01*
X93420000Y-80252500D01*
X93420000Y-81992500D01*
X86480000Y-80252500D02*
X86480000Y-81992500D01*
X86480000Y-81992500D02*
X86920000Y-81992500D01*
X86920000Y-81992500D02*
X86920000Y-80252500D01*
X86920000Y-80252500D02*
X86480000Y-80252500D01*
G36*
X86920000Y-81992500D02*
G01*
X86480000Y-81992500D01*
X86480000Y-80252500D01*
X86920000Y-80252500D01*
X86920000Y-81992500D01*
G37*
X86920000Y-81992500D02*
X86480000Y-81992500D01*
X86480000Y-80252500D01*
X86920000Y-80252500D01*
X86920000Y-81992500D01*
X94930000Y-74652500D02*
X94930000Y-76392500D01*
X94930000Y-76392500D02*
X95370000Y-76392500D01*
X95370000Y-76392500D02*
X95370000Y-74652500D01*
X95370000Y-74652500D02*
X94930000Y-74652500D01*
G36*
X95370000Y-76392500D02*
G01*
X94930000Y-76392500D01*
X94930000Y-74652500D01*
X95370000Y-74652500D01*
X95370000Y-76392500D01*
G37*
X95370000Y-76392500D02*
X94930000Y-76392500D01*
X94930000Y-74652500D01*
X95370000Y-74652500D01*
X95370000Y-76392500D01*
X92330000Y-74652500D02*
X92330000Y-76392500D01*
X92330000Y-76392500D02*
X92770000Y-76392500D01*
X92770000Y-76392500D02*
X92770000Y-74652500D01*
X92770000Y-74652500D02*
X92330000Y-74652500D01*
G36*
X92770000Y-76392500D02*
G01*
X92330000Y-76392500D01*
X92330000Y-74652500D01*
X92770000Y-74652500D01*
X92770000Y-76392500D01*
G37*
X92770000Y-76392500D02*
X92330000Y-76392500D01*
X92330000Y-74652500D01*
X92770000Y-74652500D01*
X92770000Y-76392500D01*
X87130000Y-80252500D02*
X87130000Y-81992500D01*
X87130000Y-81992500D02*
X87570000Y-81992500D01*
X87570000Y-81992500D02*
X87570000Y-80252500D01*
X87570000Y-80252500D02*
X87130000Y-80252500D01*
G36*
X87570000Y-81992500D02*
G01*
X87130000Y-81992500D01*
X87130000Y-80252500D01*
X87570000Y-80252500D01*
X87570000Y-81992500D01*
G37*
X87570000Y-81992500D02*
X87130000Y-81992500D01*
X87130000Y-80252500D01*
X87570000Y-80252500D01*
X87570000Y-81992500D01*
X93630000Y-74652500D02*
X93630000Y-76392500D01*
X93630000Y-76392500D02*
X94070000Y-76392500D01*
X94070000Y-76392500D02*
X94070000Y-74652500D01*
X94070000Y-74652500D02*
X93630000Y-74652500D01*
G36*
X94070000Y-76392500D02*
G01*
X93630000Y-76392500D01*
X93630000Y-74652500D01*
X94070000Y-74652500D01*
X94070000Y-76392500D01*
G37*
X94070000Y-76392500D02*
X93630000Y-76392500D01*
X93630000Y-74652500D01*
X94070000Y-74652500D01*
X94070000Y-76392500D01*
X87130000Y-74652500D02*
X87130000Y-76392500D01*
X87130000Y-76392500D02*
X87570000Y-76392500D01*
X87570000Y-76392500D02*
X87570000Y-74652500D01*
X87570000Y-74652500D02*
X87130000Y-74652500D01*
G36*
X87570000Y-76392500D02*
G01*
X87130000Y-76392500D01*
X87130000Y-74652500D01*
X87570000Y-74652500D01*
X87570000Y-76392500D01*
G37*
X87570000Y-76392500D02*
X87130000Y-76392500D01*
X87130000Y-74652500D01*
X87570000Y-74652500D01*
X87570000Y-76392500D01*
X94280000Y-74652500D02*
X94280000Y-76392500D01*
X94280000Y-76392500D02*
X94720000Y-76392500D01*
X94720000Y-76392500D02*
X94720000Y-74652500D01*
X94720000Y-74652500D02*
X94280000Y-74652500D01*
G36*
X94720000Y-76392500D02*
G01*
X94280000Y-76392500D01*
X94280000Y-74652500D01*
X94720000Y-74652500D01*
X94720000Y-76392500D01*
G37*
X94720000Y-76392500D02*
X94280000Y-76392500D01*
X94280000Y-74652500D01*
X94720000Y-74652500D01*
X94720000Y-76392500D01*
X91030000Y-74652500D02*
X91030000Y-76392500D01*
X91030000Y-76392500D02*
X91470000Y-76392500D01*
X91470000Y-76392500D02*
X91470000Y-74652500D01*
X91470000Y-74652500D02*
X91030000Y-74652500D01*
G36*
X91470000Y-76392500D02*
G01*
X91030000Y-76392500D01*
X91030000Y-74652500D01*
X91470000Y-74652500D01*
X91470000Y-76392500D01*
G37*
X91470000Y-76392500D02*
X91030000Y-76392500D01*
X91030000Y-74652500D01*
X91470000Y-74652500D01*
X91470000Y-76392500D01*
X90380000Y-74652500D02*
X90380000Y-76392500D01*
X90380000Y-76392500D02*
X90820000Y-76392500D01*
X90820000Y-76392500D02*
X90820000Y-74652500D01*
X90820000Y-74652500D02*
X90380000Y-74652500D01*
G36*
X90820000Y-76392500D02*
G01*
X90380000Y-76392500D01*
X90380000Y-74652500D01*
X90820000Y-74652500D01*
X90820000Y-76392500D01*
G37*
X90820000Y-76392500D02*
X90380000Y-76392500D01*
X90380000Y-74652500D01*
X90820000Y-74652500D01*
X90820000Y-76392500D01*
X92330000Y-80252500D02*
X92330000Y-81992500D01*
X92330000Y-81992500D02*
X92770000Y-81992500D01*
X92770000Y-81992500D02*
X92770000Y-80252500D01*
X92770000Y-80252500D02*
X92330000Y-80252500D01*
G36*
X92770000Y-81992500D02*
G01*
X92330000Y-81992500D01*
X92330000Y-80252500D01*
X92770000Y-80252500D01*
X92770000Y-81992500D01*
G37*
X92770000Y-81992500D02*
X92330000Y-81992500D01*
X92330000Y-80252500D01*
X92770000Y-80252500D01*
X92770000Y-81992500D01*
X87780000Y-74652500D02*
X87780000Y-76392500D01*
X87780000Y-76392500D02*
X88220000Y-76392500D01*
X88220000Y-76392500D02*
X88220000Y-74652500D01*
X88220000Y-74652500D02*
X87780000Y-74652500D01*
G36*
X88220000Y-76392500D02*
G01*
X87780000Y-76392500D01*
X87780000Y-74652500D01*
X88220000Y-74652500D01*
X88220000Y-76392500D01*
G37*
X88220000Y-76392500D02*
X87780000Y-76392500D01*
X87780000Y-74652500D01*
X88220000Y-74652500D01*
X88220000Y-76392500D01*
X92980000Y-74652500D02*
X92980000Y-76392500D01*
X92980000Y-76392500D02*
X93420000Y-76392500D01*
X93420000Y-76392500D02*
X93420000Y-74652500D01*
X93420000Y-74652500D02*
X92980000Y-74652500D01*
G36*
X93420000Y-76392500D02*
G01*
X92980000Y-76392500D01*
X92980000Y-74652500D01*
X93420000Y-74652500D01*
X93420000Y-76392500D01*
G37*
X93420000Y-76392500D02*
X92980000Y-76392500D01*
X92980000Y-74652500D01*
X93420000Y-74652500D01*
X93420000Y-76392500D01*
X88430000Y-80252500D02*
X88430000Y-81992500D01*
X88430000Y-81992500D02*
X88870000Y-81992500D01*
X88870000Y-81992500D02*
X88870000Y-80252500D01*
X88870000Y-80252500D02*
X88430000Y-80252500D01*
G36*
X88870000Y-81992500D02*
G01*
X88430000Y-81992500D01*
X88430000Y-80252500D01*
X88870000Y-80252500D01*
X88870000Y-81992500D01*
G37*
X88870000Y-81992500D02*
X88430000Y-81992500D01*
X88430000Y-80252500D01*
X88870000Y-80252500D01*
X88870000Y-81992500D01*
X89080000Y-80252500D02*
X89080000Y-81992500D01*
X89080000Y-81992500D02*
X89520000Y-81992500D01*
X89520000Y-81992500D02*
X89520000Y-80252500D01*
X89520000Y-80252500D02*
X89080000Y-80252500D01*
G36*
X89520000Y-81992500D02*
G01*
X89080000Y-81992500D01*
X89080000Y-80252500D01*
X89520000Y-80252500D01*
X89520000Y-81992500D01*
G37*
X89520000Y-81992500D02*
X89080000Y-81992500D01*
X89080000Y-80252500D01*
X89520000Y-80252500D01*
X89520000Y-81992500D01*
X91680000Y-74652500D02*
X91680000Y-76392500D01*
X91680000Y-76392500D02*
X92120000Y-76392500D01*
X92120000Y-76392500D02*
X92120000Y-74652500D01*
X92120000Y-74652500D02*
X91680000Y-74652500D01*
G36*
X92120000Y-76392500D02*
G01*
X91680000Y-76392500D01*
X91680000Y-74652500D01*
X92120000Y-74652500D01*
X92120000Y-76392500D01*
G37*
X92120000Y-76392500D02*
X91680000Y-76392500D01*
X91680000Y-74652500D01*
X92120000Y-74652500D01*
X92120000Y-76392500D01*
X91030000Y-80252500D02*
X91030000Y-81992500D01*
X91030000Y-81992500D02*
X91470000Y-81992500D01*
X91470000Y-81992500D02*
X91470000Y-80252500D01*
X91470000Y-80252500D02*
X91030000Y-80252500D01*
G36*
X91470000Y-81992500D02*
G01*
X91030000Y-81992500D01*
X91030000Y-80252500D01*
X91470000Y-80252500D01*
X91470000Y-81992500D01*
G37*
X91470000Y-81992500D02*
X91030000Y-81992500D01*
X91030000Y-80252500D01*
X91470000Y-80252500D01*
X91470000Y-81992500D01*
X88430000Y-74652500D02*
X88430000Y-76392500D01*
X88430000Y-76392500D02*
X88870000Y-76392500D01*
X88870000Y-76392500D02*
X88870000Y-74652500D01*
X88870000Y-74652500D02*
X88430000Y-74652500D01*
G36*
X88870000Y-76392500D02*
G01*
X88430000Y-76392500D01*
X88430000Y-74652500D01*
X88870000Y-74652500D01*
X88870000Y-76392500D01*
G37*
X88870000Y-76392500D02*
X88430000Y-76392500D01*
X88430000Y-74652500D01*
X88870000Y-74652500D01*
X88870000Y-76392500D01*
X91680000Y-80252500D02*
X91680000Y-81992500D01*
X91680000Y-81992500D02*
X92120000Y-81992500D01*
X92120000Y-81992500D02*
X92120000Y-80252500D01*
X92120000Y-80252500D02*
X91680000Y-80252500D01*
G36*
X92120000Y-81992500D02*
G01*
X91680000Y-81992500D01*
X91680000Y-80252500D01*
X92120000Y-80252500D01*
X92120000Y-81992500D01*
G37*
X92120000Y-81992500D02*
X91680000Y-81992500D01*
X91680000Y-80252500D01*
X92120000Y-80252500D01*
X92120000Y-81992500D01*
X90380000Y-80252500D02*
X90380000Y-81992500D01*
X90380000Y-81992500D02*
X90820000Y-81992500D01*
X90820000Y-81992500D02*
X90820000Y-80252500D01*
X90820000Y-80252500D02*
X90380000Y-80252500D01*
G36*
X90820000Y-81992500D02*
G01*
X90380000Y-81992500D01*
X90380000Y-80252500D01*
X90820000Y-80252500D01*
X90820000Y-81992500D01*
G37*
X90820000Y-81992500D02*
X90380000Y-81992500D01*
X90380000Y-80252500D01*
X90820000Y-80252500D01*
X90820000Y-81992500D01*
X89080000Y-74652500D02*
X89080000Y-76392500D01*
X89080000Y-76392500D02*
X89520000Y-76392500D01*
X89520000Y-76392500D02*
X89520000Y-74652500D01*
X89520000Y-74652500D02*
X89080000Y-74652500D01*
G36*
X89520000Y-76392500D02*
G01*
X89080000Y-76392500D01*
X89080000Y-74652500D01*
X89520000Y-74652500D01*
X89520000Y-76392500D01*
G37*
X89520000Y-76392500D02*
X89080000Y-76392500D01*
X89080000Y-74652500D01*
X89520000Y-74652500D01*
X89520000Y-76392500D01*
G04 #@! TD*
D11*
G04 #@! TO.C,H304*
X67000000Y-47000000D03*
G04 #@! TD*
D12*
G04 #@! TO.C,J5*
X97780000Y-82095000D03*
D13*
X101336000Y-80190000D03*
X100320000Y-85270000D03*
D12*
X97780000Y-85270000D03*
X102860000Y-82095000D03*
X102860000Y-85270000D03*
D13*
X99304000Y-80190000D03*
G04 #@! TD*
D14*
G04 #@! TO.C,J4*
X84025000Y-45040000D03*
D15*
X88215000Y-45040000D03*
X92405000Y-45040000D03*
X96595000Y-45040000D03*
X100785000Y-45040000D03*
X104975000Y-45040000D03*
X104975000Y-51390000D03*
X100785000Y-51390000D03*
X96595000Y-51390000D03*
X92405000Y-51390000D03*
X88215000Y-51390000D03*
X84025000Y-51390000D03*
D14*
X49975000Y-51390000D03*
D15*
X45785000Y-51390000D03*
X41595000Y-51390000D03*
X37405000Y-51390000D03*
X33215000Y-51390000D03*
X29025000Y-51390000D03*
X29025000Y-45040000D03*
X33215000Y-45040000D03*
X37405000Y-45040000D03*
X41595000Y-45040000D03*
X45785000Y-45040000D03*
X49975000Y-45040000D03*
G04 #@! TD*
D11*
G04 #@! TO.C,H302*
X67000000Y-74000000D03*
G04 #@! TD*
D16*
G04 #@! TO.C,Q7*
X94205000Y-59800000D03*
X92935000Y-59800000D03*
X91665000Y-59800000D03*
X90395000Y-59800000D03*
X90395000Y-54650000D03*
X91665000Y-54650000D03*
X92935000Y-54650000D03*
X94205000Y-54650000D03*
G04 #@! TD*
D17*
G04 #@! TO.C,R8*
X40895000Y-64537500D03*
X40895000Y-66362500D03*
G04 #@! TD*
D16*
G04 #@! TO.C,Q5*
X105255000Y-59800000D03*
X103985000Y-59800000D03*
X102715000Y-59800000D03*
X101445000Y-59800000D03*
X101445000Y-54650000D03*
X102715000Y-54650000D03*
X103985000Y-54650000D03*
X105255000Y-54650000D03*
G04 #@! TD*
D17*
G04 #@! TO.C,R2*
X40895000Y-60425000D03*
X40895000Y-62250000D03*
G04 #@! TD*
D18*
G04 #@! TO.C,U310*
X50480000Y-75500000D03*
X50480000Y-77500000D03*
X50480000Y-79500000D03*
X50480000Y-81500000D03*
X50480000Y-83500000D03*
X50480000Y-85500000D03*
X50480000Y-87500000D03*
X50480000Y-89500000D03*
X35480000Y-89500000D03*
X35480000Y-87500000D03*
X35480000Y-85500000D03*
X35480000Y-83500000D03*
X35480000Y-81500000D03*
X35480000Y-79500000D03*
X35480000Y-77500000D03*
X35480000Y-75500000D03*
G04 #@! TD*
D19*
G04 #@! TO.C,C302*
X32950000Y-83587500D03*
X32950000Y-81512500D03*
G04 #@! TD*
D17*
G04 #@! TO.C,R12*
X73376667Y-62292500D03*
X73376667Y-64117500D03*
G04 #@! TD*
D20*
G04 #@! TO.C,TP2*
X42020000Y-63400000D03*
G04 #@! TD*
D17*
G04 #@! TO.C,R11*
X74546667Y-62292500D03*
X74546667Y-64117500D03*
G04 #@! TD*
D16*
G04 #@! TO.C,Q2*
X99705000Y-59800000D03*
X98435000Y-59800000D03*
X97165000Y-59800000D03*
X95895000Y-59800000D03*
X95895000Y-54650000D03*
X97165000Y-54650000D03*
X98435000Y-54650000D03*
X99705000Y-54650000D03*
G04 #@! TD*
D21*
G04 #@! TO.C,J304*
X30175000Y-87025000D03*
D22*
X31700000Y-88500000D03*
D21*
X30175000Y-89975000D03*
G04 #@! TD*
G36*
X84442121Y-52100002D02*
G01*
X84488614Y-52153658D01*
X84500000Y-52206000D01*
X84500000Y-52321885D01*
X84507530Y-52347530D01*
X84907188Y-52747188D01*
X84930615Y-52759981D01*
X90386920Y-52750096D01*
X90455077Y-52769975D01*
X90477148Y-52787914D01*
X91397322Y-53727061D01*
X91420455Y-53740000D01*
X91864676Y-53740000D01*
X91932797Y-53760002D01*
X91979290Y-53813658D01*
X91990674Y-53865323D01*
X91999319Y-55473323D01*
X91979684Y-55541550D01*
X91926279Y-55588331D01*
X91873321Y-55600000D01*
X90126000Y-55600000D01*
X90057879Y-55579998D01*
X90011386Y-55526342D01*
X90000000Y-55474000D01*
X90000000Y-53718115D01*
X89995525Y-53702876D01*
X89994135Y-53701671D01*
X89986452Y-53700000D01*
X84611454Y-53700000D01*
X84543333Y-53679998D01*
X84523254Y-53663982D01*
X83587800Y-52747051D01*
X83553153Y-52685082D01*
X83550000Y-52657069D01*
X83550000Y-52206000D01*
X83570002Y-52137879D01*
X83623658Y-52091386D01*
X83676000Y-52080000D01*
X84374000Y-52080000D01*
X84442121Y-52100002D01*
G37*
G36*
X107119388Y-68020063D02*
G01*
X107165934Y-68073672D01*
X107177346Y-68128726D01*
X107162547Y-68846468D01*
X107141145Y-68914162D01*
X107086542Y-68959539D01*
X107036442Y-68969871D01*
X97608116Y-68960019D01*
X97582621Y-68967476D01*
X96867250Y-69692259D01*
X96805161Y-69726691D01*
X96776974Y-69729747D01*
X94748113Y-69720086D01*
X94722880Y-69727365D01*
X94452589Y-70006977D01*
X94440068Y-70030862D01*
X94459590Y-73164253D01*
X94440012Y-73232497D01*
X94406302Y-73267942D01*
X92804795Y-74399546D01*
X92790908Y-74417073D01*
X92789938Y-74421987D01*
X92780663Y-76211958D01*
X92760309Y-76279974D01*
X92706413Y-76326188D01*
X92651985Y-76337276D01*
X92432778Y-76332612D01*
X92365098Y-76311166D01*
X92319757Y-76256533D01*
X92309459Y-76207196D01*
X92300280Y-74123453D01*
X92319982Y-74055245D01*
X92350815Y-74021996D01*
X93475491Y-73180851D01*
X93489168Y-73162598D01*
X93489901Y-73158435D01*
X93460447Y-69702397D01*
X93479867Y-69634108D01*
X93496839Y-69612738D01*
X94293010Y-68807415D01*
X94355127Y-68773035D01*
X94382613Y-68770000D01*
X96411885Y-68770000D01*
X96437671Y-68762428D01*
X97163250Y-68046272D01*
X97225783Y-68012655D01*
X97251635Y-68009948D01*
X107051247Y-68000129D01*
X107119388Y-68020063D01*
G37*
G36*
X93420759Y-44030002D02*
G01*
X93467252Y-44083658D01*
X93478631Y-44137355D01*
X93461536Y-45727156D01*
X93440802Y-45795058D01*
X93397361Y-45835594D01*
X92925787Y-46101111D01*
X92912698Y-46114545D01*
X92910000Y-46125411D01*
X92910000Y-46571885D01*
X92917761Y-46598315D01*
X93037639Y-46726756D01*
X93060023Y-46740000D01*
X106788087Y-46740000D01*
X106856208Y-46760002D01*
X106876846Y-46776569D01*
X109462827Y-49343106D01*
X109497087Y-49405289D01*
X109500068Y-49432374D01*
X109519932Y-64777584D01*
X109500018Y-64845730D01*
X109482870Y-64866999D01*
X106716878Y-67623252D01*
X106654506Y-67657168D01*
X106627940Y-67660000D01*
X95048115Y-67660000D01*
X95022410Y-67667548D01*
X93252844Y-69427228D01*
X93239971Y-69450646D01*
X93230168Y-73097427D01*
X93209982Y-73165493D01*
X93180044Y-73197681D01*
X91494461Y-74469092D01*
X91480710Y-74487602D01*
X91480056Y-74491318D01*
X91489370Y-76363373D01*
X91469708Y-76431593D01*
X91416284Y-76478352D01*
X91363372Y-76490000D01*
X91086580Y-76490000D01*
X91018459Y-76469998D01*
X90971966Y-76416342D01*
X90960581Y-76363422D01*
X90969718Y-74371551D01*
X90990033Y-74303523D01*
X91018724Y-74272389D01*
X92095660Y-73441070D01*
X92109474Y-73422035D01*
X92109974Y-73419122D01*
X92100124Y-69282220D01*
X92119964Y-69214052D01*
X92136852Y-69193001D01*
X94583110Y-66737036D01*
X94645355Y-66702888D01*
X94672274Y-66699955D01*
X106271884Y-66690016D01*
X106297590Y-66682444D01*
X108507162Y-64482781D01*
X108519993Y-64459408D01*
X108510012Y-49798115D01*
X108502492Y-49772566D01*
X106492875Y-47782748D01*
X106469281Y-47770016D01*
X92699769Y-47789928D01*
X92631620Y-47770024D01*
X92613615Y-47756041D01*
X91940028Y-47127359D01*
X91903876Y-47066256D01*
X91900000Y-47035246D01*
X91900000Y-46128115D01*
X91894845Y-46110559D01*
X91886093Y-46102414D01*
X91415250Y-45845591D01*
X91365025Y-45795411D01*
X91349587Y-45735676D01*
X91340704Y-44136700D01*
X91360327Y-44068469D01*
X91413724Y-44021679D01*
X91466702Y-44010000D01*
X93352638Y-44010000D01*
X93420759Y-44030002D01*
G37*
G36*
X85231191Y-43850237D02*
G01*
X85277897Y-43903706D01*
X85289492Y-43957009D01*
X85280495Y-46206235D01*
X85260221Y-46274275D01*
X85206379Y-46320553D01*
X85156246Y-46331719D01*
X84578112Y-46339748D01*
X84562938Y-46344434D01*
X84561452Y-46346198D01*
X84560000Y-46353103D01*
X84560000Y-47551885D01*
X84567488Y-47577387D01*
X86027102Y-49017277D01*
X86050785Y-49030000D01*
X105728371Y-49030000D01*
X105796492Y-49050002D01*
X105816784Y-49066227D01*
X107062329Y-50292900D01*
X107096828Y-50354951D01*
X107099916Y-50382873D01*
X107080083Y-62847927D01*
X107059972Y-62916016D01*
X107043178Y-62936822D01*
X104986662Y-64993338D01*
X104924350Y-65027364D01*
X104898155Y-65030242D01*
X94258114Y-65079915D01*
X94232162Y-65087667D01*
X90112950Y-69117331D01*
X90100045Y-69140360D01*
X90119698Y-73680198D01*
X90099991Y-73748404D01*
X90060982Y-73787275D01*
X89565318Y-74100326D01*
X89551613Y-74115893D01*
X89549886Y-74123529D01*
X89531050Y-76365059D01*
X89510476Y-76433009D01*
X89456431Y-76479049D01*
X89405054Y-76490000D01*
X89217142Y-76490000D01*
X89149021Y-76469998D01*
X89102528Y-76416342D01*
X89091147Y-76362863D01*
X89159537Y-68781365D01*
X89180153Y-68713428D01*
X89196245Y-68693599D01*
X93753111Y-64117048D01*
X93815349Y-64082889D01*
X93842281Y-64079951D01*
X104541885Y-64070017D01*
X104567475Y-64062477D01*
X106117230Y-62502851D01*
X106130000Y-62479287D01*
X106130000Y-50748115D01*
X106122470Y-50722470D01*
X105442812Y-50042812D01*
X105419408Y-50030032D01*
X85651325Y-50089845D01*
X85583144Y-50070050D01*
X85563175Y-50054248D01*
X83577925Y-48126821D01*
X83542983Y-48065019D01*
X83539696Y-48037143D01*
X83530104Y-46368114D01*
X83525542Y-46352901D01*
X83523998Y-46351579D01*
X83516638Y-46350000D01*
X82896503Y-46350000D01*
X82828382Y-46329998D01*
X82781889Y-46276342D01*
X82770504Y-46223498D01*
X82779502Y-43964999D01*
X82799775Y-43896958D01*
X82853616Y-43850680D01*
X82904999Y-43839502D01*
X85162991Y-43830506D01*
X85231191Y-43850237D01*
G37*
G36*
X89202891Y-44040002D02*
G01*
X89249384Y-44093658D01*
X89260768Y-44145227D01*
X89269664Y-45595309D01*
X89250080Y-45663551D01*
X89230277Y-45687595D01*
X88723156Y-46167549D01*
X88710000Y-46190143D01*
X88710000Y-47541885D01*
X88717713Y-47568154D01*
X89047550Y-47916839D01*
X89070118Y-47929988D01*
X106269831Y-47910058D01*
X106337975Y-47929981D01*
X106356478Y-47944441D01*
X108250501Y-49732707D01*
X108286301Y-49794017D01*
X108290000Y-49824324D01*
X108290000Y-63828105D01*
X108269998Y-63896226D01*
X108253453Y-63916842D01*
X105846965Y-66342737D01*
X105784789Y-66377012D01*
X105757512Y-66380000D01*
X94668115Y-66380000D01*
X94642470Y-66387530D01*
X91642812Y-69387188D01*
X91630051Y-69410556D01*
X91649692Y-73446773D01*
X91630021Y-73514990D01*
X91599492Y-73548037D01*
X90854469Y-74109103D01*
X90840705Y-74127601D01*
X90840048Y-74131319D01*
X90849466Y-76363468D01*
X90829751Y-76431673D01*
X90776292Y-76478392D01*
X90723467Y-76490000D01*
X90495650Y-76490000D01*
X90427529Y-76469998D01*
X90381036Y-76416342D01*
X90369650Y-76364351D01*
X90350146Y-69372395D01*
X90369958Y-69304219D01*
X90387051Y-69282949D01*
X94213095Y-65456905D01*
X94275407Y-65422879D01*
X94302190Y-65420000D01*
X105401885Y-65420000D01*
X105427475Y-65412486D01*
X107317225Y-63512842D01*
X107329984Y-63489329D01*
X107310027Y-50188116D01*
X107302449Y-50162449D01*
X106022812Y-48882812D01*
X105999406Y-48870031D01*
X88722022Y-48919850D01*
X88653844Y-48900045D01*
X88633026Y-48883407D01*
X87737367Y-47996982D01*
X87703020Y-47934847D01*
X87700000Y-47907426D01*
X87700000Y-46198115D01*
X87692211Y-46171588D01*
X87233546Y-45676230D01*
X87201941Y-45612657D01*
X87200000Y-45590625D01*
X87200000Y-44146000D01*
X87220002Y-44077879D01*
X87273658Y-44031386D01*
X87326000Y-44020000D01*
X89134770Y-44020000D01*
X89202891Y-44040002D01*
G37*
G36*
X90205720Y-50930002D02*
G01*
X90226948Y-50947159D01*
X91927226Y-52657153D01*
X91950595Y-52670000D01*
X93058340Y-52670000D01*
X93126461Y-52690002D01*
X93146792Y-52706266D01*
X93797097Y-53347282D01*
X93821060Y-53360144D01*
X94455636Y-53368385D01*
X94523491Y-53389270D01*
X94569284Y-53443525D01*
X94580000Y-53494374D01*
X94580000Y-55504000D01*
X94559998Y-55572121D01*
X94506342Y-55618614D01*
X94454000Y-55630000D01*
X92694124Y-55630000D01*
X92626003Y-55609998D01*
X92579510Y-55556342D01*
X92568138Y-55505890D01*
X92540272Y-53648114D01*
X92535569Y-53632942D01*
X92533776Y-53631435D01*
X92526931Y-53630000D01*
X91602190Y-53630000D01*
X91534069Y-53609998D01*
X91513095Y-53593095D01*
X89802812Y-51882812D01*
X89779350Y-51870000D01*
X89046000Y-51870000D01*
X88977879Y-51849998D01*
X88931386Y-51796342D01*
X88920000Y-51744000D01*
X88920000Y-51036000D01*
X88940002Y-50967879D01*
X88993658Y-50921386D01*
X89046000Y-50910000D01*
X90137599Y-50910000D01*
X90205720Y-50930002D01*
G37*
G36*
X97535931Y-51020002D02*
G01*
X97556905Y-51036905D01*
X99267188Y-52747188D01*
X99290650Y-52760000D01*
X100002638Y-52760000D01*
X100070759Y-52780002D01*
X100117252Y-52833658D01*
X100128631Y-52887355D01*
X100120003Y-53689756D01*
X100120000Y-53690264D01*
X100120000Y-55494601D01*
X100099998Y-55562722D01*
X100046342Y-55609215D01*
X99994603Y-55620600D01*
X98154391Y-55629405D01*
X98086175Y-55609729D01*
X98039426Y-55556296D01*
X98027808Y-55505626D01*
X97990000Y-53360000D01*
X97980323Y-52818112D01*
X97972214Y-52792214D01*
X97322810Y-52142810D01*
X97297606Y-52129047D01*
X97247405Y-52078844D01*
X97232014Y-52016231D01*
X97247809Y-51123770D01*
X97269013Y-51056014D01*
X97323483Y-51010478D01*
X97373789Y-51000000D01*
X97467810Y-51000000D01*
X97535931Y-51020002D01*
G37*
G36*
X94285931Y-50930002D02*
G01*
X94306905Y-50946905D01*
X96607188Y-53247188D01*
X96630453Y-53259892D01*
X97463235Y-53251307D01*
X97531558Y-53270605D01*
X97578602Y-53323779D01*
X97590533Y-53376771D01*
X97599466Y-55502867D01*
X97579750Y-55571071D01*
X97526290Y-55617789D01*
X97472867Y-55629395D01*
X95625400Y-55620597D01*
X95557375Y-55600270D01*
X95511138Y-55546394D01*
X95500000Y-55494598D01*
X95500000Y-53508115D01*
X95492489Y-53482535D01*
X93882849Y-51882770D01*
X93859581Y-51870158D01*
X93337909Y-51878062D01*
X93269493Y-51859094D01*
X93222192Y-51806149D01*
X93210000Y-51752076D01*
X93210000Y-51036000D01*
X93230002Y-50967879D01*
X93283658Y-50921386D01*
X93336000Y-50910000D01*
X94217810Y-50910000D01*
X94285931Y-50930002D01*
G37*
G36*
X104142688Y-51770808D02*
G01*
X104167218Y-51782089D01*
X104738605Y-52123334D01*
X104786834Y-52175434D01*
X104800000Y-52231510D01*
X104800000Y-52366671D01*
X104779998Y-52434792D01*
X104761714Y-52457126D01*
X104483006Y-52727388D01*
X104470000Y-52750359D01*
X104470000Y-53651885D01*
X104474475Y-53667124D01*
X104475865Y-53668329D01*
X104483548Y-53670000D01*
X105584000Y-53670000D01*
X105652121Y-53690002D01*
X105698614Y-53743658D01*
X105710000Y-53796000D01*
X105710000Y-55504000D01*
X105689998Y-55572121D01*
X105636342Y-55618614D01*
X105584000Y-55630000D01*
X103635616Y-55630000D01*
X103567495Y-55609998D01*
X103521002Y-55556342D01*
X103509617Y-55504384D01*
X103500152Y-52399970D01*
X103519946Y-52331789D01*
X103534137Y-52313508D01*
X104010599Y-51804187D01*
X104071743Y-51768105D01*
X104142688Y-51770808D01*
G37*
G36*
X101744768Y-51689296D02*
G01*
X101788435Y-51717407D01*
X102522573Y-52443008D01*
X102556962Y-52505120D01*
X102560000Y-52532623D01*
X102560000Y-53651885D01*
X102564475Y-53667124D01*
X102565865Y-53668329D01*
X102573548Y-53670000D01*
X103004000Y-53670000D01*
X103072121Y-53690002D01*
X103118614Y-53743658D01*
X103130000Y-53796000D01*
X103130000Y-55494595D01*
X103109998Y-55562716D01*
X103056342Y-55609209D01*
X103004597Y-55620594D01*
X101147889Y-55629394D01*
X101079674Y-55609715D01*
X101032928Y-55556280D01*
X101021298Y-55502116D01*
X101038734Y-53784721D01*
X101059427Y-53716807D01*
X101113552Y-53670861D01*
X101164728Y-53660000D01*
X101571885Y-53660000D01*
X101587124Y-53655525D01*
X101588329Y-53654135D01*
X101590000Y-53646452D01*
X101590000Y-52888115D01*
X101582470Y-52862470D01*
X101109758Y-52389758D01*
X101075732Y-52327446D01*
X101080797Y-52256631D01*
X101110420Y-52210910D01*
X101611429Y-51717269D01*
X101673992Y-51683706D01*
X101744768Y-51689296D01*
G37*
M02*
