G04 #@! TF.GenerationSoftware,KiCad,Pcbnew,(6.0.2)*
G04 #@! TF.CreationDate,2022-04-26T10:19:42-06:00*
G04 #@! TF.ProjectId,CONEPROJ,434f4e45-5052-44f4-9a2e-6b696361645f,rev?*
G04 #@! TF.SameCoordinates,Original*
G04 #@! TF.FileFunction,Soldermask,Top*
G04 #@! TF.FilePolarity,Negative*
%FSLAX46Y46*%
G04 Gerber Fmt 4.6, Leading zero omitted, Abs format (unit mm)*
G04 Created by KiCad (PCBNEW (6.0.2)) date 2022-04-26 10:19:42*
%MOMM*%
%LPD*%
G01*
G04 APERTURE LIST*
G04 Aperture macros list*
%AMRoundRect*
0 Rectangle with rounded corners*
0 $1 Rounding radius*
0 $2 $3 $4 $5 $6 $7 $8 $9 X,Y pos of 4 corners*
0 Add a 4 corners polygon primitive as box body*
4,1,4,$2,$3,$4,$5,$6,$7,$8,$9,$2,$3,0*
0 Add four circle primitives for the rounded corners*
1,1,$1+$1,$2,$3*
1,1,$1+$1,$4,$5*
1,1,$1+$1,$6,$7*
1,1,$1+$1,$8,$9*
0 Add four rect primitives between the rounded corners*
20,1,$1+$1,$2,$3,$4,$5,0*
20,1,$1+$1,$4,$5,$6,$7,0*
20,1,$1+$1,$6,$7,$8,$9,0*
20,1,$1+$1,$8,$9,$2,$3,0*%
%AMFreePoly0*
4,1,22,0.550000,-0.750000,0.000000,-0.750000,0.000000,-0.745033,-0.079941,-0.743568,-0.215256,-0.701293,-0.333266,-0.622738,-0.424486,-0.514219,-0.481581,-0.384460,-0.499164,-0.250000,-0.500000,-0.250000,-0.500000,0.250000,-0.499164,0.250000,-0.499963,0.256109,-0.478152,0.396186,-0.417904,0.524511,-0.324060,0.630769,-0.204165,0.706417,-0.067858,0.745374,0.000000,0.744959,0.000000,0.750000,
0.550000,0.750000,0.550000,-0.750000,0.550000,-0.750000,$1*%
%AMFreePoly1*
4,1,20,0.000000,0.744959,0.073905,0.744508,0.209726,0.703889,0.328688,0.626782,0.421226,0.519385,0.479903,0.390333,0.500000,0.250000,0.500000,-0.250000,0.499851,-0.262216,0.476331,-0.402017,0.414519,-0.529596,0.319384,-0.634700,0.198574,-0.708877,0.061801,-0.746166,0.000000,-0.745033,0.000000,-0.750000,-0.550000,-0.750000,-0.550000,0.750000,0.000000,0.750000,0.000000,0.744959,
0.000000,0.744959,$1*%
G04 Aperture macros list end*
%ADD10R,1.150000X1.000000*%
%ADD11RoundRect,0.237500X-0.250000X-0.237500X0.250000X-0.237500X0.250000X0.237500X-0.250000X0.237500X0*%
%ADD12RoundRect,0.150000X-0.150000X0.875000X-0.150000X-0.875000X0.150000X-0.875000X0.150000X0.875000X0*%
%ADD13RoundRect,0.100000X-0.100000X0.637500X-0.100000X-0.637500X0.100000X-0.637500X0.100000X0.637500X0*%
%ADD14C,1.000000*%
%ADD15RoundRect,0.250000X-0.337500X-0.475000X0.337500X-0.475000X0.337500X0.475000X-0.337500X0.475000X0*%
%ADD16R,5.700000X1.600000*%
%ADD17RoundRect,0.250000X-0.325000X-0.650000X0.325000X-0.650000X0.325000X0.650000X-0.325000X0.650000X0*%
%ADD18RoundRect,0.150000X-0.825000X-0.150000X0.825000X-0.150000X0.825000X0.150000X-0.825000X0.150000X0*%
%ADD19R,2.290000X3.000000*%
%ADD20RoundRect,0.237500X-0.237500X0.300000X-0.237500X-0.300000X0.237500X-0.300000X0.237500X0.300000X0*%
%ADD21RoundRect,0.237500X0.237500X-0.300000X0.237500X0.300000X-0.237500X0.300000X-0.237500X-0.300000X0*%
%ADD22R,2.000000X2.000000*%
%ADD23RoundRect,0.150000X-0.150000X0.650000X-0.150000X-0.650000X0.150000X-0.650000X0.150000X0.650000X0*%
%ADD24RoundRect,0.250000X-0.475000X0.337500X-0.475000X-0.337500X0.475000X-0.337500X0.475000X0.337500X0*%
%ADD25FreePoly0,270.000000*%
%ADD26R,1.500000X1.000000*%
%ADD27FreePoly1,270.000000*%
%ADD28C,5.600000*%
%ADD29RoundRect,0.237500X0.250000X0.237500X-0.250000X0.237500X-0.250000X-0.237500X0.250000X-0.237500X0*%
%ADD30RoundRect,0.250000X0.337500X0.475000X-0.337500X0.475000X-0.337500X-0.475000X0.337500X-0.475000X0*%
%ADD31RoundRect,0.237500X-0.237500X0.250000X-0.237500X-0.250000X0.237500X-0.250000X0.237500X0.250000X0*%
%ADD32R,0.750000X3.000000*%
%ADD33RoundRect,0.418770X-0.418770X1.006311X-0.418770X-1.006311X0.418770X-1.006311X0.418770X1.006311X0*%
%ADD34RoundRect,0.412540X-0.412540X0.887541X-0.412540X-0.887541X0.412540X-0.887541X0.412540X0.887541X0*%
%ADD35RoundRect,0.443770X-0.443770X0.893770X-0.443770X-0.893770X0.443770X-0.893770X0.443770X0.893770X0*%
%ADD36RoundRect,0.396885X-0.396885X1.015655X-0.396885X-1.015655X0.396885X-1.015655X0.396885X1.015655X0*%
%ADD37RoundRect,0.237500X0.237500X-0.250000X0.237500X0.250000X-0.237500X0.250000X-0.237500X-0.250000X0*%
%ADD38RoundRect,0.150000X0.150000X-0.825000X0.150000X0.825000X-0.150000X0.825000X-0.150000X-0.825000X0*%
%ADD39C,2.374900*%
%ADD40C,0.990600*%
%ADD41C,0.787400*%
%ADD42RoundRect,0.237500X-0.300000X-0.237500X0.300000X-0.237500X0.300000X0.237500X-0.300000X0.237500X0*%
%ADD43R,2.056000X2.056000*%
%ADD44C,2.056000*%
%ADD45RoundRect,0.237500X0.287500X0.237500X-0.287500X0.237500X-0.287500X-0.237500X0.287500X-0.237500X0*%
%ADD46R,1.000000X1.500000*%
%ADD47RoundRect,0.050000X-0.050000X0.387500X-0.050000X-0.387500X0.050000X-0.387500X0.050000X0.387500X0*%
%ADD48RoundRect,0.050000X-0.387500X0.050000X-0.387500X-0.050000X0.387500X-0.050000X0.387500X0.050000X0*%
%ADD49RoundRect,0.144000X-1.456000X1.456000X-1.456000X-1.456000X1.456000X-1.456000X1.456000X1.456000X0*%
%ADD50RoundRect,0.250000X-1.250000X-0.550000X1.250000X-0.550000X1.250000X0.550000X-1.250000X0.550000X0*%
%ADD51R,0.900000X1.200000*%
%ADD52R,1.800000X2.100000*%
G04 APERTURE END LIST*
D10*
G04 #@! TO.C,Y2*
X56000000Y-52750000D03*
X57750000Y-52750000D03*
X57750000Y-51350000D03*
X56000000Y-51350000D03*
G04 #@! TD*
D11*
G04 #@! TO.C,R10*
X28827500Y-71400000D03*
X30652500Y-71400000D03*
G04 #@! TD*
D12*
G04 #@! TO.C,U8*
X72080000Y-52100000D03*
X70810000Y-52100000D03*
X69540000Y-52100000D03*
X68270000Y-52100000D03*
X67000000Y-52100000D03*
X65730000Y-52100000D03*
X64460000Y-52100000D03*
X63190000Y-52100000D03*
X61920000Y-52100000D03*
X61920000Y-61400000D03*
X63190000Y-61400000D03*
X64460000Y-61400000D03*
X65730000Y-61400000D03*
X67000000Y-61400000D03*
X68270000Y-61400000D03*
X69540000Y-61400000D03*
X70810000Y-61400000D03*
X72080000Y-61400000D03*
G04 #@! TD*
D13*
G04 #@! TO.C,U5*
X60175000Y-55887500D03*
X59525000Y-55887500D03*
X58875000Y-55887500D03*
X58225000Y-55887500D03*
X57575000Y-55887500D03*
X56925000Y-55887500D03*
X56275000Y-55887500D03*
X55625000Y-55887500D03*
X54975000Y-55887500D03*
X54325000Y-55887500D03*
X54325000Y-61612500D03*
X54975000Y-61612500D03*
X55625000Y-61612500D03*
X56275000Y-61612500D03*
X56925000Y-61612500D03*
X57575000Y-61612500D03*
X58225000Y-61612500D03*
X58875000Y-61612500D03*
X59525000Y-61612500D03*
X60175000Y-61612500D03*
G04 #@! TD*
D14*
G04 #@! TO.C,TP4*
X41000000Y-73900000D03*
G04 #@! TD*
D15*
G04 #@! TO.C,C36*
X39072500Y-67140000D03*
X41147500Y-67140000D03*
G04 #@! TD*
D16*
G04 #@! TO.C,L2*
X34200000Y-63745000D03*
X34200000Y-59045000D03*
G04 #@! TD*
D17*
G04 #@! TO.C,C33*
X38780000Y-84802500D03*
X41730000Y-84802500D03*
G04 #@! TD*
D18*
G04 #@! TO.C,U6*
X28695000Y-81265000D03*
X28695000Y-82535000D03*
X28695000Y-83805000D03*
X28695000Y-85075000D03*
X33645000Y-85075000D03*
X33645000Y-83805000D03*
X33645000Y-82535000D03*
X33645000Y-81265000D03*
D19*
X31170000Y-83170000D03*
G04 #@! TD*
D20*
G04 #@! TO.C,C15*
X83125000Y-69587500D03*
X83125000Y-71312500D03*
G04 #@! TD*
D15*
G04 #@! TO.C,C42*
X38572500Y-62680000D03*
X40647500Y-62680000D03*
G04 #@! TD*
D21*
G04 #@! TO.C,R7*
X96800000Y-78162500D03*
X96800000Y-76437500D03*
G04 #@! TD*
G04 #@! TO.C,C21*
X59150000Y-52937500D03*
X59150000Y-51212500D03*
G04 #@! TD*
D22*
G04 #@! TO.C,PAU301*
X43500000Y-78595000D03*
X51500000Y-78595000D03*
G04 #@! TD*
D23*
G04 #@! TO.C,U7*
X103893687Y-60987273D03*
X102623687Y-60987273D03*
X101353687Y-60987273D03*
X100083687Y-60987273D03*
X100083687Y-68187273D03*
X101353687Y-68187273D03*
X102623687Y-68187273D03*
X103893687Y-68187273D03*
G04 #@! TD*
D24*
G04 #@! TO.C,C11*
X46150000Y-63712500D03*
X46150000Y-65787500D03*
G04 #@! TD*
D15*
G04 #@! TO.C,C16*
X60862500Y-63750000D03*
X62937500Y-63750000D03*
G04 #@! TD*
G04 #@! TO.C,C38*
X39072500Y-71140000D03*
X41147500Y-71140000D03*
G04 #@! TD*
D25*
G04 #@! TO.C,JP2*
X79300000Y-47575000D03*
D26*
X79300000Y-48875000D03*
D27*
X79300000Y-50175000D03*
G04 #@! TD*
D20*
G04 #@! TO.C,C24*
X86300000Y-69587500D03*
X86300000Y-71312500D03*
G04 #@! TD*
D28*
G04 #@! TO.C,H304*
X67000000Y-47000000D03*
G04 #@! TD*
D29*
G04 #@! TO.C,R19*
X33822500Y-71370000D03*
X31997500Y-71370000D03*
G04 #@! TD*
D30*
G04 #@! TO.C,C27*
X95332500Y-86845000D03*
X93257500Y-86845000D03*
G04 #@! TD*
D31*
G04 #@! TO.C,R5*
X81550000Y-67712500D03*
X81550000Y-69537500D03*
G04 #@! TD*
D32*
G04 #@! TO.C,J2*
X76499838Y-86127500D03*
X76499838Y-82527500D03*
X75229838Y-86127500D03*
X75229838Y-82527500D03*
X73959838Y-86127500D03*
X73959838Y-82527500D03*
X72689838Y-86127500D03*
X72689838Y-82527500D03*
X71419838Y-86127500D03*
X71419838Y-82527500D03*
X70149838Y-86127500D03*
X70149838Y-82527500D03*
X68879838Y-86127500D03*
X68879838Y-82527500D03*
X67609838Y-86127500D03*
X67609838Y-82527500D03*
X66339838Y-86127500D03*
X66339838Y-82527500D03*
X65069838Y-86127500D03*
X65069838Y-82527500D03*
X63799838Y-86127500D03*
X63799838Y-82527500D03*
X62529838Y-86127500D03*
X62529838Y-82527500D03*
X61259838Y-86127500D03*
X61259838Y-82527500D03*
X59989838Y-86127500D03*
X59989838Y-82527500D03*
X58719838Y-86127500D03*
X58719838Y-82527500D03*
X57449838Y-86127500D03*
X57449838Y-82527500D03*
D33*
X79062378Y-84252581D03*
D34*
X79074838Y-89277419D03*
D35*
X54924838Y-89239959D03*
D36*
X55018608Y-84240040D03*
G04 #@! TD*
D20*
G04 #@! TO.C,C18*
X95050000Y-65487500D03*
X95050000Y-67212500D03*
G04 #@! TD*
D30*
G04 #@! TO.C,C25*
X29807500Y-61840000D03*
X27732500Y-61840000D03*
G04 #@! TD*
D37*
G04 #@! TO.C,R9*
X92580000Y-85342500D03*
X92580000Y-83517500D03*
G04 #@! TD*
D14*
G04 #@! TO.C,TP5*
X82800000Y-59500000D03*
G04 #@! TD*
D38*
G04 #@! TO.C,U2*
X48280000Y-67275000D03*
X49550000Y-67275000D03*
X50820000Y-67275000D03*
X52090000Y-67275000D03*
X52090000Y-62325000D03*
X50820000Y-62325000D03*
X49550000Y-62325000D03*
X48280000Y-62325000D03*
G04 #@! TD*
D20*
G04 #@! TO.C,C9*
X84750000Y-69587500D03*
X84750000Y-71312500D03*
G04 #@! TD*
D15*
G04 #@! TO.C,C34*
X27732500Y-63810000D03*
X29807500Y-63810000D03*
G04 #@! TD*
D39*
G04 #@! TO.C,J5*
X97780000Y-82095000D03*
D40*
X101336000Y-80190000D03*
X100320000Y-85270000D03*
D39*
X97780000Y-85270000D03*
X102860000Y-82095000D03*
X102860000Y-85270000D03*
D40*
X99304000Y-80190000D03*
D41*
X100955000Y-84000000D03*
X99685000Y-84000000D03*
X100955000Y-82730000D03*
X99685000Y-82730000D03*
X100955000Y-81460000D03*
X99685000Y-81460000D03*
G04 #@! TD*
D15*
G04 #@! TO.C,C30*
X95767500Y-74985000D03*
X97842500Y-74985000D03*
G04 #@! TD*
D42*
G04 #@! TO.C,C7*
X78137500Y-62100000D03*
X79862500Y-62100000D03*
G04 #@! TD*
D17*
G04 #@! TO.C,C32*
X39045000Y-69060000D03*
X41995000Y-69060000D03*
G04 #@! TD*
D30*
G04 #@! TO.C,C5*
X30872499Y-73818041D03*
X28797499Y-73818041D03*
G04 #@! TD*
D11*
G04 #@! TO.C,R22*
X80597500Y-78940000D03*
X82422500Y-78940000D03*
G04 #@! TD*
D42*
G04 #@! TO.C,C8*
X78137500Y-69524999D03*
X79862500Y-69524999D03*
G04 #@! TD*
D43*
G04 #@! TO.C,J4*
X84025000Y-45040000D03*
D44*
X88215000Y-45040000D03*
X92405000Y-45040000D03*
X96595000Y-45040000D03*
X100785000Y-45040000D03*
X104975000Y-45040000D03*
X104975000Y-51390000D03*
X100785000Y-51390000D03*
X96595000Y-51390000D03*
X92405000Y-51390000D03*
X88215000Y-51390000D03*
X84025000Y-51390000D03*
D43*
X49975000Y-51390000D03*
D44*
X45785000Y-51390000D03*
X41595000Y-51390000D03*
X37405000Y-51390000D03*
X33215000Y-51390000D03*
X29025000Y-51390000D03*
X29025000Y-45040000D03*
X33215000Y-45040000D03*
X37405000Y-45040000D03*
X41595000Y-45040000D03*
X45785000Y-45040000D03*
X49975000Y-45040000D03*
G04 #@! TD*
D30*
G04 #@! TO.C,C26*
X30872499Y-76539020D03*
X28797499Y-76539020D03*
G04 #@! TD*
D15*
G04 #@! TO.C,C35*
X28797499Y-79260000D03*
X30872499Y-79260000D03*
G04 #@! TD*
D20*
G04 #@! TO.C,C14*
X91225000Y-69587500D03*
X91225000Y-71312500D03*
G04 #@! TD*
D29*
G04 #@! TO.C,R18*
X37352500Y-71380001D03*
X35527500Y-71380001D03*
G04 #@! TD*
D20*
G04 #@! TO.C,C10*
X96600000Y-65487500D03*
X96600000Y-67212500D03*
G04 #@! TD*
D11*
G04 #@! TO.C,R17*
X35687500Y-85130000D03*
X37512500Y-85130000D03*
G04 #@! TD*
D37*
G04 #@! TO.C,R15*
X48235000Y-59712500D03*
X48235000Y-57887500D03*
G04 #@! TD*
D20*
G04 #@! TO.C,C12*
X92750000Y-67312500D03*
X92750000Y-69037500D03*
G04 #@! TD*
D22*
G04 #@! TO.C,MOD301*
X43500000Y-84075000D03*
X51500000Y-84075000D03*
G04 #@! TD*
D11*
G04 #@! TO.C,R3*
X94687500Y-58150000D03*
X96512500Y-58150000D03*
G04 #@! TD*
D20*
G04 #@! TO.C,R6*
X103850000Y-76412500D03*
X103850000Y-78137500D03*
G04 #@! TD*
D15*
G04 #@! TO.C,C29*
X89717500Y-72885000D03*
X91792500Y-72885000D03*
G04 #@! TD*
D14*
G04 #@! TO.C,TP6*
X38700000Y-56900000D03*
G04 #@! TD*
D45*
G04 #@! TO.C,D302*
X79000000Y-75610000D03*
X77250000Y-75610000D03*
G04 #@! TD*
D20*
G04 #@! TO.C,C13*
X89625000Y-69587500D03*
X89625000Y-71312500D03*
G04 #@! TD*
D46*
G04 #@! TO.C,U9*
X77775000Y-54225000D03*
X76175000Y-54225000D03*
X74575000Y-54225000D03*
X74575000Y-59125000D03*
X76175000Y-59125000D03*
X77775000Y-59125000D03*
G04 #@! TD*
D47*
G04 #@! TO.C,U10*
X90350000Y-61112500D03*
X89950000Y-61112500D03*
X89550000Y-61112500D03*
X89150000Y-61112500D03*
X88750000Y-61112500D03*
X88350000Y-61112500D03*
X87950000Y-61112500D03*
X87550000Y-61112500D03*
X87150000Y-61112500D03*
X86750000Y-61112500D03*
X86350000Y-61112500D03*
X85950000Y-61112500D03*
X85550000Y-61112500D03*
X85150000Y-61112500D03*
D48*
X84312500Y-61950000D03*
X84312500Y-62350000D03*
X84312500Y-62750000D03*
X84312500Y-63150000D03*
X84312500Y-63550000D03*
X84312500Y-63950000D03*
X84312500Y-64350000D03*
X84312500Y-64750000D03*
X84312500Y-65150000D03*
X84312500Y-65550000D03*
X84312500Y-65950000D03*
X84312500Y-66350000D03*
X84312500Y-66750000D03*
X84312500Y-67150000D03*
D47*
X85150000Y-67987500D03*
X85550000Y-67987500D03*
X85950000Y-67987500D03*
X86350000Y-67987500D03*
X86750000Y-67987500D03*
X87150000Y-67987500D03*
X87550000Y-67987500D03*
X87950000Y-67987500D03*
X88350000Y-67987500D03*
X88750000Y-67987500D03*
X89150000Y-67987500D03*
X89550000Y-67987500D03*
X89950000Y-67987500D03*
X90350000Y-67987500D03*
D48*
X91187500Y-67150000D03*
X91187500Y-66750000D03*
X91187500Y-66350000D03*
X91187500Y-65950000D03*
X91187500Y-65550000D03*
X91187500Y-65150000D03*
X91187500Y-64750000D03*
X91187500Y-64350000D03*
X91187500Y-63950000D03*
X91187500Y-63550000D03*
X91187500Y-63150000D03*
X91187500Y-62750000D03*
X91187500Y-62350000D03*
X91187500Y-61950000D03*
D49*
X87750000Y-64550000D03*
G04 #@! TD*
D16*
G04 #@! TO.C,L3*
X35155000Y-78905000D03*
X35155000Y-74205000D03*
G04 #@! TD*
D29*
G04 #@! TO.C,R23*
X33572500Y-86669999D03*
X31747500Y-86669999D03*
G04 #@! TD*
G04 #@! TO.C,R104*
X51797500Y-57600000D03*
X49972500Y-57600000D03*
G04 #@! TD*
D50*
G04 #@! TO.C,C31*
X86175000Y-82075000D03*
X90575000Y-82075000D03*
G04 #@! TD*
D15*
G04 #@! TO.C,C41*
X39292500Y-80627500D03*
X41367500Y-80627500D03*
G04 #@! TD*
D24*
G04 #@! TO.C,C28*
X83995000Y-74497500D03*
X83995000Y-76572500D03*
G04 #@! TD*
D15*
G04 #@! TO.C,C40*
X38572500Y-60640000D03*
X40647500Y-60640000D03*
G04 #@! TD*
D51*
G04 #@! TO.C,D2*
X27850001Y-56300000D03*
X31150001Y-56300000D03*
G04 #@! TD*
D20*
G04 #@! TO.C,C23*
X95025000Y-69587500D03*
X95025000Y-71312500D03*
G04 #@! TD*
D14*
G04 #@! TO.C,TP7*
X42900000Y-75800000D03*
G04 #@! TD*
D15*
G04 #@! TO.C,C37*
X39292500Y-82665000D03*
X41367500Y-82665000D03*
G04 #@! TD*
D45*
G04 #@! TO.C,D301*
X79027500Y-78930000D03*
X77277500Y-78930000D03*
G04 #@! TD*
D28*
G04 #@! TO.C,H302*
X67000000Y-74000000D03*
G04 #@! TD*
D18*
G04 #@! TO.C,U3*
X28790000Y-65904999D03*
X28790000Y-67174999D03*
X28790000Y-68444999D03*
X28790000Y-69714999D03*
X33740000Y-69714999D03*
X33740000Y-68444999D03*
X33740000Y-67174999D03*
X33740000Y-65904999D03*
D19*
X31265000Y-67809999D03*
G04 #@! TD*
D14*
G04 #@! TO.C,TP3*
X35800000Y-56900000D03*
G04 #@! TD*
D20*
G04 #@! TO.C,C4*
X79575000Y-54162500D03*
X79575000Y-55887500D03*
G04 #@! TD*
G04 #@! TO.C,C6*
X103950000Y-70887500D03*
X103950000Y-72612500D03*
G04 #@! TD*
D30*
G04 #@! TO.C,C3*
X29807500Y-59575000D03*
X27732500Y-59575000D03*
G04 #@! TD*
D45*
G04 #@! TO.C,D308*
X79010000Y-77280000D03*
X77260000Y-77280000D03*
G04 #@! TD*
D15*
G04 #@! TO.C,C43*
X39292500Y-78590000D03*
X41367500Y-78590000D03*
G04 #@! TD*
D11*
G04 #@! TO.C,R14*
X35517500Y-69780000D03*
X37342500Y-69780000D03*
G04 #@! TD*
D29*
G04 #@! TO.C,R20*
X37512500Y-86680000D03*
X35687500Y-86680000D03*
G04 #@! TD*
D11*
G04 #@! TO.C,R21*
X80622500Y-75620000D03*
X82447500Y-75620000D03*
G04 #@! TD*
D21*
G04 #@! TO.C,C17*
X85600000Y-57151414D03*
X85600000Y-55426414D03*
G04 #@! TD*
D11*
G04 #@! TO.C,R16*
X61187500Y-65600000D03*
X63012500Y-65600000D03*
G04 #@! TD*
D21*
G04 #@! TO.C,C19*
X91490240Y-59426324D03*
X91490240Y-57701324D03*
G04 #@! TD*
D15*
G04 #@! TO.C,C39*
X39292500Y-86740000D03*
X41367500Y-86740000D03*
G04 #@! TD*
D11*
G04 #@! TO.C,R13*
X28287500Y-86690000D03*
X30112500Y-86690000D03*
G04 #@! TD*
D14*
G04 #@! TO.C,TP8*
X79600000Y-60300000D03*
G04 #@! TD*
D21*
G04 #@! TO.C,C22*
X54425000Y-52937500D03*
X54425000Y-51212500D03*
G04 #@! TD*
D11*
G04 #@! TO.C,R91*
X80592500Y-77270000D03*
X82417500Y-77270000D03*
G04 #@! TD*
D29*
G04 #@! TO.C,R4*
X96512500Y-59750000D03*
X94687500Y-59750000D03*
G04 #@! TD*
D52*
G04 #@! TO.C,Y3*
X79500000Y-67175000D03*
X79500000Y-64275000D03*
X77200000Y-64275000D03*
X77200000Y-67175000D03*
G04 #@! TD*
G36*
X97700083Y-43910002D02*
G01*
X97746576Y-43963658D01*
X97757946Y-44018021D01*
X97731076Y-45692932D01*
X97709984Y-45760723D01*
X97673761Y-45796555D01*
X97145189Y-46140127D01*
X97131499Y-46156093D01*
X97129945Y-46163252D01*
X97120075Y-48561884D01*
X97127350Y-48587044D01*
X97346920Y-48797465D01*
X97371061Y-48809988D01*
X106248583Y-48800058D01*
X106316726Y-48819984D01*
X106336777Y-48835933D01*
X107132026Y-49612899D01*
X107166774Y-49674811D01*
X107169973Y-49703089D01*
X107160065Y-68844065D01*
X107140028Y-68912176D01*
X107086348Y-68958641D01*
X107034065Y-68970000D01*
X106256201Y-68970000D01*
X106188080Y-68949998D01*
X106141587Y-68896342D01*
X106130201Y-68843800D01*
X106159971Y-50118115D01*
X106152624Y-50092944D01*
X105943091Y-49892522D01*
X105918943Y-49880025D01*
X97002354Y-49899883D01*
X96934188Y-49880032D01*
X96912978Y-49862978D01*
X96096722Y-49046722D01*
X96062696Y-48984410D01*
X96059818Y-48958069D01*
X96050064Y-46178117D01*
X96043138Y-46154834D01*
X96042078Y-46153663D01*
X95597288Y-45797830D01*
X95556590Y-45739657D01*
X95550000Y-45699441D01*
X95550000Y-44016000D01*
X95570002Y-43947879D01*
X95623658Y-43901386D01*
X95676000Y-43890000D01*
X97631962Y-43890000D01*
X97700083Y-43910002D01*
G37*
M02*
