G04 #@! TF.GenerationSoftware,KiCad,Pcbnew,(6.0.2)*
G04 #@! TF.CreationDate,2022-04-20T12:25:19-06:00*
G04 #@! TF.ProjectId,nano,6e616e6f-2e6b-4696-9361-645f70636258,rev?*
G04 #@! TF.SameCoordinates,Original*
G04 #@! TF.FileFunction,Legend,Bot*
G04 #@! TF.FilePolarity,Positive*
%FSLAX46Y46*%
G04 Gerber Fmt 4.6, Leading zero omitted, Abs format (unit mm)*
G04 Created by KiCad (PCBNEW (6.0.2)) date 2022-04-20 12:25:19*
%MOMM*%
%LPD*%
G01*
G04 APERTURE LIST*
%ADD10C,0.150000*%
%ADD11C,0.100000*%
%ADD12C,0.187500*%
%ADD13C,0.250000*%
%ADD14C,0.070000*%
%ADD15C,0.125000*%
%ADD16C,0.120000*%
%ADD17C,0.200000*%
%ADD18C,0.254000*%
G04 APERTURE END LIST*
D10*
X91000000Y-70000000D02*
X91000000Y-69850000D01*
X98300000Y-70100000D02*
X98300000Y-69850000D01*
X82450000Y-70200000D02*
X82450000Y-70050000D01*
X84450000Y-70200000D02*
X84450000Y-70050000D01*
X92000000Y-70000000D02*
X92000000Y-69850000D01*
X96290476Y-47670001D02*
G75*
G03*
X96219202Y-50009046I-20000J-1169999D01*
G01*
X96500001Y-74000000D02*
X96500000Y-72000000D01*
X93640000Y-48840000D02*
X95040475Y-48840000D01*
X97500000Y-75500000D02*
X97499999Y-74000000D01*
X51000000Y-66600000D02*
X66550000Y-66600000D01*
X66550000Y-66600000D02*
X66550000Y-71650000D01*
X66550000Y-71650000D02*
X51000000Y-71650000D01*
X51000000Y-71650000D02*
X51000000Y-66600000D01*
X99350000Y-70100000D02*
X99350000Y-69850000D01*
X83450000Y-70200000D02*
X83450000Y-70050000D01*
X101250000Y-70000000D02*
X101250000Y-69850000D01*
X102260476Y-53020000D02*
X100180476Y-53020000D01*
X98930476Y-54189999D02*
G75*
G03*
X99001750Y-51850954I20001J1169999D01*
G01*
X100300000Y-70100000D02*
X100300000Y-69850000D01*
X93650000Y-51590000D02*
X95050476Y-51590000D01*
X96300476Y-50420001D02*
G75*
G03*
X96229203Y-52759046I-20000J-1169999D01*
G01*
X97400000Y-70150000D02*
X97400000Y-69850000D01*
X98970000Y-45860000D02*
G75*
G03*
X99041274Y-43520953I20001J1170000D01*
G01*
X102300000Y-44690000D02*
X100220000Y-44690000D01*
X97499999Y-74000000D02*
X96500001Y-74000000D01*
X90000000Y-70000000D02*
X90000000Y-69850000D01*
X85450000Y-70200000D02*
X85450000Y-70050000D01*
X93000000Y-70000000D02*
X93000000Y-69850000D01*
D11*
X98461759Y-71068358D02*
X98697461Y-71304061D01*
X98630118Y-71236717D02*
X98680625Y-71253553D01*
X98714297Y-71253553D01*
X98764805Y-71236717D01*
X98798477Y-71203045D01*
X98646954Y-70883164D02*
X99067851Y-70933671D01*
X98882656Y-71118866D02*
X98832148Y-70697969D01*
X99118358Y-70411759D02*
X99471912Y-70765312D01*
X99135194Y-70428595D02*
X99084687Y-70445431D01*
X99017343Y-70512774D01*
X99000507Y-70563282D01*
X99000507Y-70596954D01*
X99017343Y-70647461D01*
X99118358Y-70748477D01*
X99168866Y-70765312D01*
X99202538Y-70765312D01*
X99253045Y-70748477D01*
X99320389Y-70681133D01*
X99337225Y-70630625D01*
X93975714Y-48600000D02*
X93937618Y-48619047D01*
X93880476Y-48619047D01*
X93823333Y-48600000D01*
X93785237Y-48561904D01*
X93766190Y-48523809D01*
X93747142Y-48447619D01*
X93747142Y-48390476D01*
X93766190Y-48314285D01*
X93785237Y-48276190D01*
X93823333Y-48238095D01*
X93880476Y-48219047D01*
X93918571Y-48219047D01*
X93975714Y-48238095D01*
X93994761Y-48257142D01*
X93994761Y-48390476D01*
X93918571Y-48390476D01*
X94166190Y-48219047D02*
X94166190Y-48619047D01*
X94394761Y-48219047D01*
X94394761Y-48619047D01*
X94585237Y-48219047D02*
X94585237Y-48619047D01*
X94680476Y-48619047D01*
X94737618Y-48600000D01*
X94775714Y-48561904D01*
X94794761Y-48523809D01*
X94813809Y-48447619D01*
X94813809Y-48390476D01*
X94794761Y-48314285D01*
X94775714Y-48276190D01*
X94737618Y-48238095D01*
X94680476Y-48219047D01*
X94585237Y-48219047D01*
X89261251Y-70962538D02*
X89278087Y-70912030D01*
X89345431Y-70844687D01*
X89395938Y-70827851D01*
X89446446Y-70844687D01*
X89463282Y-70861522D01*
X89480118Y-70912030D01*
X89463282Y-70962538D01*
X89412774Y-71013045D01*
X89395938Y-71063553D01*
X89412774Y-71114061D01*
X89429610Y-71130896D01*
X89480118Y-71147732D01*
X89530625Y-71130896D01*
X89581133Y-71080389D01*
X89597969Y-71029881D01*
X89698984Y-70491133D02*
X90052538Y-70844687D01*
X89715820Y-70507969D02*
X89665312Y-70524805D01*
X89597969Y-70592148D01*
X89581133Y-70642656D01*
X89581133Y-70676328D01*
X89597969Y-70726835D01*
X89698984Y-70827851D01*
X89749492Y-70844687D01*
X89783164Y-70844687D01*
X89833671Y-70827851D01*
X89901015Y-70760507D01*
X89917851Y-70709999D01*
X90018866Y-70171251D02*
X90204061Y-70356446D01*
X90220896Y-70406954D01*
X90204061Y-70457461D01*
X90136717Y-70524805D01*
X90086209Y-70541641D01*
X90035702Y-70188087D02*
X89985194Y-70204923D01*
X89901015Y-70289103D01*
X89884179Y-70339610D01*
X89901015Y-70390118D01*
X89934687Y-70423790D01*
X89985194Y-70440625D01*
X90035702Y-70423790D01*
X90119881Y-70339610D01*
X90170389Y-70322774D01*
X99655372Y-71346150D02*
X99790059Y-71211463D01*
X99823730Y-71413494D02*
X99520685Y-71110448D01*
X99503849Y-71059940D01*
X99520685Y-71009433D01*
X99554356Y-70975761D01*
X99638536Y-70891582D02*
X100059433Y-70942089D01*
X99874238Y-71127284D02*
X99823730Y-70706387D01*
X100109940Y-70420177D02*
X100463494Y-70773730D01*
X100126776Y-70437013D02*
X100076269Y-70453849D01*
X100008925Y-70521192D01*
X99992089Y-70571700D01*
X99992089Y-70605372D01*
X100008925Y-70655879D01*
X100109940Y-70756895D01*
X100160448Y-70773730D01*
X100194120Y-70773730D01*
X100244627Y-70756895D01*
X100311971Y-70689551D01*
X100328807Y-70639043D01*
D12*
X100653571Y-64589285D02*
X100653571Y-65196428D01*
X100617857Y-65267857D01*
X100582142Y-65303571D01*
X100510714Y-65339285D01*
X100367857Y-65339285D01*
X100296428Y-65303571D01*
X100260714Y-65267857D01*
X100225000Y-65196428D01*
X100225000Y-64589285D01*
X99903571Y-65125000D02*
X99546428Y-65125000D01*
X99975000Y-65339285D02*
X99725000Y-64589285D01*
X99475000Y-65339285D01*
X98796428Y-65339285D02*
X99046428Y-64982142D01*
X99225000Y-65339285D02*
X99225000Y-64589285D01*
X98939285Y-64589285D01*
X98867857Y-64625000D01*
X98832142Y-64660714D01*
X98796428Y-64732142D01*
X98796428Y-64839285D01*
X98832142Y-64910714D01*
X98867857Y-64946428D01*
X98939285Y-64982142D01*
X99225000Y-64982142D01*
X98582142Y-64589285D02*
X98153571Y-64589285D01*
X98367857Y-65339285D02*
X98367857Y-64589285D01*
X97546428Y-64589285D02*
X97903571Y-64589285D01*
X97939285Y-64946428D01*
X97903571Y-64910714D01*
X97832142Y-64875000D01*
X97653571Y-64875000D01*
X97582142Y-64910714D01*
X97546428Y-64946428D01*
X97510714Y-65017857D01*
X97510714Y-65196428D01*
X97546428Y-65267857D01*
X97582142Y-65303571D01*
X97653571Y-65339285D01*
X97832142Y-65339285D01*
X97903571Y-65303571D01*
X97939285Y-65267857D01*
D11*
X102198563Y-73265949D02*
X101793801Y-73265949D01*
X101746182Y-73289758D01*
X101722373Y-73313568D01*
X101698563Y-73361187D01*
X101698563Y-73432615D01*
X101722373Y-73480234D01*
X101889040Y-73265949D02*
X101865230Y-73313568D01*
X101865230Y-73408806D01*
X101889040Y-73456425D01*
X101912849Y-73480234D01*
X101960468Y-73504044D01*
X102103325Y-73504044D01*
X102150944Y-73480234D01*
X102174754Y-73456425D01*
X102198563Y-73408806D01*
X102198563Y-73313568D01*
X102174754Y-73265949D01*
X102198563Y-73027853D02*
X101865230Y-73027853D01*
X102150944Y-73027853D02*
X102174754Y-73004044D01*
X102198563Y-72956425D01*
X102198563Y-72884996D01*
X102174754Y-72837377D01*
X102127135Y-72813568D01*
X101865230Y-72813568D01*
X101865230Y-72361187D02*
X102365230Y-72361187D01*
X101889040Y-72361187D02*
X101865230Y-72408806D01*
X101865230Y-72504044D01*
X101889040Y-72551663D01*
X101912849Y-72575472D01*
X101960468Y-72599282D01*
X102103325Y-72599282D01*
X102150944Y-72575472D01*
X102174754Y-72551663D01*
X102198563Y-72504044D01*
X102198563Y-72408806D01*
X102174754Y-72361187D01*
X85081641Y-71419881D02*
X84795431Y-71133671D01*
X84744923Y-71116835D01*
X84711251Y-71116835D01*
X84660744Y-71133671D01*
X84610236Y-71184179D01*
X84593400Y-71234687D01*
X84862774Y-71201015D02*
X84812267Y-71217851D01*
X84744923Y-71285194D01*
X84728087Y-71335702D01*
X84728087Y-71369374D01*
X84744923Y-71419881D01*
X84845938Y-71520896D01*
X84896446Y-71537732D01*
X84930118Y-71537732D01*
X84980625Y-71520896D01*
X85047969Y-71453553D01*
X85064805Y-71403045D01*
X85250000Y-71251522D02*
X85014297Y-71015820D01*
X85216328Y-71217851D02*
X85250000Y-71217851D01*
X85300507Y-71201015D01*
X85351015Y-71150507D01*
X85367851Y-71099999D01*
X85351015Y-71049492D01*
X85165820Y-70864297D01*
X85485702Y-70544416D02*
X85839255Y-70897969D01*
X85502538Y-70561251D02*
X85452030Y-70578087D01*
X85384687Y-70645431D01*
X85367851Y-70695938D01*
X85367851Y-70729610D01*
X85384687Y-70780118D01*
X85485702Y-70881133D01*
X85536209Y-70897969D01*
X85569881Y-70897969D01*
X85620389Y-70881133D01*
X85687732Y-70813790D01*
X85704568Y-70763282D01*
X91572715Y-71264509D02*
X91791582Y-71045643D01*
X91539043Y-71028807D01*
X91589551Y-70978299D01*
X91606387Y-70927791D01*
X91606387Y-70894120D01*
X91589551Y-70843612D01*
X91505372Y-70759433D01*
X91454864Y-70742597D01*
X91421192Y-70742597D01*
X91370685Y-70759433D01*
X91269669Y-70860448D01*
X91252834Y-70910956D01*
X91252834Y-70944627D01*
X91791582Y-70809940D02*
X91640059Y-70490059D01*
X91959940Y-70641582D01*
X92178807Y-70658417D02*
X92397673Y-70439551D01*
X92145135Y-70422715D01*
X92195643Y-70372208D01*
X92212478Y-70321700D01*
X92212478Y-70288028D01*
X92195643Y-70237521D01*
X92111463Y-70153341D01*
X92060956Y-70136505D01*
X92027284Y-70136505D01*
X91976776Y-70153341D01*
X91875761Y-70254356D01*
X91858925Y-70304864D01*
X91858925Y-70338536D01*
X98665230Y-73282615D02*
X98998563Y-73282615D01*
X98950944Y-73282615D02*
X98974754Y-73258806D01*
X98998563Y-73211187D01*
X98998563Y-73139758D01*
X98974754Y-73092139D01*
X98927135Y-73068330D01*
X98665230Y-73068330D01*
X98927135Y-73068330D02*
X98974754Y-73044520D01*
X98998563Y-72996901D01*
X98998563Y-72925472D01*
X98974754Y-72877853D01*
X98927135Y-72854044D01*
X98665230Y-72854044D01*
X98665230Y-72615949D02*
X98998563Y-72615949D01*
X99165230Y-72615949D02*
X99141421Y-72639758D01*
X99117611Y-72615949D01*
X99141421Y-72592139D01*
X99165230Y-72615949D01*
X99117611Y-72615949D01*
X98689040Y-72401663D02*
X98665230Y-72354044D01*
X98665230Y-72258806D01*
X98689040Y-72211187D01*
X98736659Y-72187377D01*
X98760468Y-72187377D01*
X98808087Y-72211187D01*
X98831897Y-72258806D01*
X98831897Y-72330234D01*
X98855706Y-72377853D01*
X98903325Y-72401663D01*
X98927135Y-72401663D01*
X98974754Y-72377853D01*
X98998563Y-72330234D01*
X98998563Y-72258806D01*
X98974754Y-72211187D01*
X98665230Y-71901663D02*
X98689040Y-71949282D01*
X98712849Y-71973091D01*
X98760468Y-71996901D01*
X98903325Y-71996901D01*
X98950944Y-71973091D01*
X98974754Y-71949282D01*
X98998563Y-71901663D01*
X98998563Y-71830234D01*
X98974754Y-71782615D01*
X98950944Y-71758806D01*
X98903325Y-71734996D01*
X98760468Y-71734996D01*
X98712849Y-71758806D01*
X98689040Y-71782615D01*
X98665230Y-71830234D01*
X98665230Y-71901663D01*
D13*
X101090000Y-75094761D02*
X100947142Y-75142380D01*
X100709047Y-75142380D01*
X100613809Y-75094761D01*
X100566190Y-75047142D01*
X100518571Y-74951904D01*
X100518571Y-74856666D01*
X100566190Y-74761428D01*
X100613809Y-74713809D01*
X100709047Y-74666190D01*
X100899523Y-74618571D01*
X100994761Y-74570952D01*
X101042380Y-74523333D01*
X101090000Y-74428095D01*
X101090000Y-74332857D01*
X101042380Y-74237619D01*
X100994761Y-74190000D01*
X100899523Y-74142380D01*
X100661428Y-74142380D01*
X100518571Y-74190000D01*
X100090000Y-75142380D02*
X100090000Y-74142380D01*
X99709047Y-74142380D01*
X99613809Y-74190000D01*
X99566190Y-74237619D01*
X99518571Y-74332857D01*
X99518571Y-74475714D01*
X99566190Y-74570952D01*
X99613809Y-74618571D01*
X99709047Y-74666190D01*
X100090000Y-74666190D01*
X99090000Y-75142380D02*
X99090000Y-74142380D01*
X98185238Y-74475714D02*
X98185238Y-75142380D01*
X98423333Y-74094761D02*
X98661428Y-74809047D01*
X98042380Y-74809047D01*
D11*
X97939040Y-73375472D02*
X97915230Y-73327853D01*
X97915230Y-73232615D01*
X97939040Y-73184996D01*
X97986659Y-73161187D01*
X98010468Y-73161187D01*
X98058087Y-73184996D01*
X98081897Y-73232615D01*
X98081897Y-73304044D01*
X98105706Y-73351663D01*
X98153325Y-73375472D01*
X98177135Y-73375472D01*
X98224754Y-73351663D01*
X98248563Y-73304044D01*
X98248563Y-73232615D01*
X98224754Y-73184996D01*
X97939040Y-72732615D02*
X97915230Y-72780234D01*
X97915230Y-72875472D01*
X97939040Y-72923091D01*
X97962849Y-72946901D01*
X98010468Y-72970711D01*
X98153325Y-72970711D01*
X98200944Y-72946901D01*
X98224754Y-72923091D01*
X98248563Y-72875472D01*
X98248563Y-72780234D01*
X98224754Y-72732615D01*
X97915230Y-72446901D02*
X97939040Y-72494520D01*
X97986659Y-72518330D01*
X98415230Y-72518330D01*
X97915230Y-72256425D02*
X98415230Y-72256425D01*
X98105706Y-72208806D02*
X97915230Y-72065949D01*
X98248563Y-72065949D02*
X98058087Y-72256425D01*
X96570685Y-70959433D02*
X96806387Y-71195135D01*
X96739043Y-71127791D02*
X96789551Y-71144627D01*
X96823223Y-71144627D01*
X96873730Y-71127791D01*
X96907402Y-71094120D01*
X96974746Y-71026776D02*
X97109433Y-70892089D01*
X97143104Y-71094120D02*
X96840059Y-70791074D01*
X96823223Y-70740566D01*
X96840059Y-70690059D01*
X96873730Y-70656387D01*
X96991582Y-70572208D02*
X97008417Y-70521700D01*
X97075761Y-70454356D01*
X97126269Y-70437521D01*
X97176776Y-70454356D01*
X97193612Y-70471192D01*
X97210448Y-70521700D01*
X97193612Y-70572208D01*
X97143104Y-70622715D01*
X97126269Y-70673223D01*
X97143104Y-70723730D01*
X97159940Y-70740566D01*
X97210448Y-70757402D01*
X97260956Y-70740566D01*
X97311463Y-70690059D01*
X97328299Y-70639551D01*
X90337013Y-70856776D02*
X90353849Y-70806269D01*
X90421192Y-70738925D01*
X90471700Y-70722089D01*
X90522208Y-70738925D01*
X90539043Y-70755761D01*
X90555879Y-70806269D01*
X90539043Y-70856776D01*
X90488536Y-70907284D01*
X90471700Y-70957791D01*
X90488536Y-71008299D01*
X90505372Y-71025135D01*
X90555879Y-71041971D01*
X90606387Y-71025135D01*
X90656895Y-70974627D01*
X90673730Y-70924120D01*
X90791582Y-70402208D02*
X90741074Y-70419043D01*
X90673730Y-70486387D01*
X90656895Y-70536895D01*
X90656895Y-70570566D01*
X90673730Y-70621074D01*
X90774746Y-70722089D01*
X90825253Y-70738925D01*
X90858925Y-70738925D01*
X90909433Y-70722089D01*
X90976776Y-70654746D01*
X90993612Y-70604238D01*
X90976776Y-70183341D02*
X90959940Y-70233849D01*
X90976776Y-70284356D01*
X91279822Y-70587402D01*
X63339047Y-70003690D02*
X63339047Y-69503690D01*
X63220000Y-69503690D01*
X63148571Y-69527500D01*
X63100952Y-69575119D01*
X63077142Y-69622738D01*
X63053333Y-69717976D01*
X63053333Y-69789404D01*
X63077142Y-69884642D01*
X63100952Y-69932261D01*
X63148571Y-69979880D01*
X63220000Y-70003690D01*
X63339047Y-70003690D01*
X62648571Y-69979880D02*
X62696190Y-70003690D01*
X62791428Y-70003690D01*
X62839047Y-69979880D01*
X62862857Y-69932261D01*
X62862857Y-69741785D01*
X62839047Y-69694166D01*
X62791428Y-69670357D01*
X62696190Y-69670357D01*
X62648571Y-69694166D01*
X62624761Y-69741785D01*
X62624761Y-69789404D01*
X62862857Y-69837023D01*
X62434285Y-69979880D02*
X62386666Y-70003690D01*
X62291428Y-70003690D01*
X62243809Y-69979880D01*
X62220000Y-69932261D01*
X62220000Y-69908452D01*
X62243809Y-69860833D01*
X62291428Y-69837023D01*
X62362857Y-69837023D01*
X62410476Y-69813214D01*
X62434285Y-69765595D01*
X62434285Y-69741785D01*
X62410476Y-69694166D01*
X62362857Y-69670357D01*
X62291428Y-69670357D01*
X62243809Y-69694166D01*
X62005714Y-70003690D02*
X62005714Y-69670357D01*
X62005714Y-69503690D02*
X62029523Y-69527500D01*
X62005714Y-69551309D01*
X61981904Y-69527500D01*
X62005714Y-69503690D01*
X62005714Y-69551309D01*
X61553333Y-69670357D02*
X61553333Y-70075119D01*
X61577142Y-70122738D01*
X61600952Y-70146547D01*
X61648571Y-70170357D01*
X61720000Y-70170357D01*
X61767619Y-70146547D01*
X61553333Y-69979880D02*
X61600952Y-70003690D01*
X61696190Y-70003690D01*
X61743809Y-69979880D01*
X61767619Y-69956071D01*
X61791428Y-69908452D01*
X61791428Y-69765595D01*
X61767619Y-69717976D01*
X61743809Y-69694166D01*
X61696190Y-69670357D01*
X61600952Y-69670357D01*
X61553333Y-69694166D01*
X61315238Y-69670357D02*
X61315238Y-70003690D01*
X61315238Y-69717976D02*
X61291428Y-69694166D01*
X61243809Y-69670357D01*
X61172380Y-69670357D01*
X61124761Y-69694166D01*
X61100952Y-69741785D01*
X61100952Y-70003690D01*
X60672380Y-69979880D02*
X60720000Y-70003690D01*
X60815238Y-70003690D01*
X60862857Y-69979880D01*
X60886666Y-69932261D01*
X60886666Y-69741785D01*
X60862857Y-69694166D01*
X60815238Y-69670357D01*
X60720000Y-69670357D01*
X60672380Y-69694166D01*
X60648571Y-69741785D01*
X60648571Y-69789404D01*
X60886666Y-69837023D01*
X60220000Y-70003690D02*
X60220000Y-69503690D01*
X60220000Y-69979880D02*
X60267619Y-70003690D01*
X60362857Y-70003690D01*
X60410476Y-69979880D01*
X60434285Y-69956071D01*
X60458095Y-69908452D01*
X60458095Y-69765595D01*
X60434285Y-69717976D01*
X60410476Y-69694166D01*
X60362857Y-69670357D01*
X60267619Y-69670357D01*
X60220000Y-69694166D01*
X59600952Y-70003690D02*
X59600952Y-69503690D01*
X59600952Y-69694166D02*
X59553333Y-69670357D01*
X59458095Y-69670357D01*
X59410476Y-69694166D01*
X59386666Y-69717976D01*
X59362857Y-69765595D01*
X59362857Y-69908452D01*
X59386666Y-69956071D01*
X59410476Y-69979880D01*
X59458095Y-70003690D01*
X59553333Y-70003690D01*
X59600952Y-69979880D01*
X59196190Y-69670357D02*
X59077142Y-70003690D01*
X58958095Y-69670357D02*
X59077142Y-70003690D01*
X59124761Y-70122738D01*
X59148571Y-70146547D01*
X59196190Y-70170357D01*
X58100952Y-69956071D02*
X58124761Y-69979880D01*
X58196190Y-70003690D01*
X58243809Y-70003690D01*
X58315238Y-69979880D01*
X58362857Y-69932261D01*
X58386666Y-69884642D01*
X58410476Y-69789404D01*
X58410476Y-69717976D01*
X58386666Y-69622738D01*
X58362857Y-69575119D01*
X58315238Y-69527500D01*
X58243809Y-69503690D01*
X58196190Y-69503690D01*
X58124761Y-69527500D01*
X58100952Y-69551309D01*
X57815238Y-70003690D02*
X57862857Y-69979880D01*
X57886666Y-69956071D01*
X57910476Y-69908452D01*
X57910476Y-69765595D01*
X57886666Y-69717976D01*
X57862857Y-69694166D01*
X57815238Y-69670357D01*
X57743809Y-69670357D01*
X57696190Y-69694166D01*
X57672380Y-69717976D01*
X57648571Y-69765595D01*
X57648571Y-69908452D01*
X57672380Y-69956071D01*
X57696190Y-69979880D01*
X57743809Y-70003690D01*
X57815238Y-70003690D01*
X57434285Y-69670357D02*
X57434285Y-70003690D01*
X57434285Y-69717976D02*
X57410476Y-69694166D01*
X57362857Y-69670357D01*
X57291428Y-69670357D01*
X57243809Y-69694166D01*
X57220000Y-69741785D01*
X57220000Y-70003690D01*
X56981904Y-69670357D02*
X56981904Y-70003690D01*
X56981904Y-69717976D02*
X56958095Y-69694166D01*
X56910476Y-69670357D01*
X56839047Y-69670357D01*
X56791428Y-69694166D01*
X56767619Y-69741785D01*
X56767619Y-70003690D01*
X56458095Y-70003690D02*
X56505714Y-69979880D01*
X56529523Y-69956071D01*
X56553333Y-69908452D01*
X56553333Y-69765595D01*
X56529523Y-69717976D01*
X56505714Y-69694166D01*
X56458095Y-69670357D01*
X56386666Y-69670357D01*
X56339047Y-69694166D01*
X56315238Y-69717976D01*
X56291428Y-69765595D01*
X56291428Y-69908452D01*
X56315238Y-69956071D01*
X56339047Y-69979880D01*
X56386666Y-70003690D01*
X56458095Y-70003690D01*
X56077142Y-70003690D02*
X56077142Y-69670357D01*
X56077142Y-69765595D02*
X56053333Y-69717976D01*
X56029523Y-69694166D01*
X55981904Y-69670357D01*
X55934285Y-69670357D01*
X55100952Y-70003690D02*
X55267619Y-69765595D01*
X55386666Y-70003690D02*
X55386666Y-69503690D01*
X55196190Y-69503690D01*
X55148571Y-69527500D01*
X55124761Y-69551309D01*
X55100952Y-69598928D01*
X55100952Y-69670357D01*
X55124761Y-69717976D01*
X55148571Y-69741785D01*
X55196190Y-69765595D01*
X55386666Y-69765595D01*
X54886666Y-70003690D02*
X54886666Y-69670357D01*
X54886666Y-69503690D02*
X54910476Y-69527500D01*
X54886666Y-69551309D01*
X54862857Y-69527500D01*
X54886666Y-69503690D01*
X54886666Y-69551309D01*
X54434285Y-69670357D02*
X54434285Y-70075119D01*
X54458095Y-70122738D01*
X54481904Y-70146547D01*
X54529523Y-70170357D01*
X54600952Y-70170357D01*
X54648571Y-70146547D01*
X54434285Y-69979880D02*
X54481904Y-70003690D01*
X54577142Y-70003690D01*
X54624761Y-69979880D01*
X54648571Y-69956071D01*
X54672380Y-69908452D01*
X54672380Y-69765595D01*
X54648571Y-69717976D01*
X54624761Y-69694166D01*
X54577142Y-69670357D01*
X54481904Y-69670357D01*
X54434285Y-69694166D01*
X54196190Y-70003690D02*
X54196190Y-69503690D01*
X54196190Y-69694166D02*
X54148571Y-69670357D01*
X54053333Y-69670357D01*
X54005714Y-69694166D01*
X53981904Y-69717976D01*
X53958095Y-69765595D01*
X53958095Y-69908452D01*
X53981904Y-69956071D01*
X54005714Y-69979880D01*
X54053333Y-70003690D01*
X54148571Y-70003690D01*
X54196190Y-69979880D01*
X53791428Y-69670357D02*
X53672380Y-70003690D01*
X53553333Y-69670357D02*
X53672380Y-70003690D01*
X53720000Y-70122738D01*
X53743809Y-70146547D01*
X53791428Y-70170357D01*
X64577142Y-70808690D02*
X64577142Y-70308690D01*
X64362857Y-70808690D02*
X64362857Y-70546785D01*
X64386666Y-70499166D01*
X64434285Y-70475357D01*
X64505714Y-70475357D01*
X64553333Y-70499166D01*
X64577142Y-70522976D01*
X64196190Y-70475357D02*
X64005714Y-70475357D01*
X64124761Y-70308690D02*
X64124761Y-70737261D01*
X64100952Y-70784880D01*
X64053333Y-70808690D01*
X64005714Y-70808690D01*
X63910476Y-70475357D02*
X63720000Y-70475357D01*
X63839047Y-70308690D02*
X63839047Y-70737261D01*
X63815238Y-70784880D01*
X63767619Y-70808690D01*
X63720000Y-70808690D01*
X63553333Y-70475357D02*
X63553333Y-70975357D01*
X63553333Y-70499166D02*
X63505714Y-70475357D01*
X63410476Y-70475357D01*
X63362857Y-70499166D01*
X63339047Y-70522976D01*
X63315238Y-70570595D01*
X63315238Y-70713452D01*
X63339047Y-70761071D01*
X63362857Y-70784880D01*
X63410476Y-70808690D01*
X63505714Y-70808690D01*
X63553333Y-70784880D01*
X63124761Y-70784880D02*
X63077142Y-70808690D01*
X62981904Y-70808690D01*
X62934285Y-70784880D01*
X62910476Y-70737261D01*
X62910476Y-70713452D01*
X62934285Y-70665833D01*
X62981904Y-70642023D01*
X63053333Y-70642023D01*
X63100952Y-70618214D01*
X63124761Y-70570595D01*
X63124761Y-70546785D01*
X63100952Y-70499166D01*
X63053333Y-70475357D01*
X62981904Y-70475357D01*
X62934285Y-70499166D01*
X62696190Y-70761071D02*
X62672380Y-70784880D01*
X62696190Y-70808690D01*
X62720000Y-70784880D01*
X62696190Y-70761071D01*
X62696190Y-70808690D01*
X62696190Y-70499166D02*
X62672380Y-70522976D01*
X62696190Y-70546785D01*
X62720000Y-70522976D01*
X62696190Y-70499166D01*
X62696190Y-70546785D01*
X62100952Y-70284880D02*
X62529523Y-70927738D01*
X61577142Y-70284880D02*
X62005714Y-70927738D01*
X61196190Y-70475357D02*
X61196190Y-70880119D01*
X61220000Y-70927738D01*
X61243809Y-70951547D01*
X61291428Y-70975357D01*
X61362857Y-70975357D01*
X61410476Y-70951547D01*
X61196190Y-70784880D02*
X61243809Y-70808690D01*
X61339047Y-70808690D01*
X61386666Y-70784880D01*
X61410476Y-70761071D01*
X61434285Y-70713452D01*
X61434285Y-70570595D01*
X61410476Y-70522976D01*
X61386666Y-70499166D01*
X61339047Y-70475357D01*
X61243809Y-70475357D01*
X61196190Y-70499166D01*
X60958095Y-70808690D02*
X60958095Y-70475357D01*
X60958095Y-70308690D02*
X60981904Y-70332500D01*
X60958095Y-70356309D01*
X60934285Y-70332500D01*
X60958095Y-70308690D01*
X60958095Y-70356309D01*
X60791428Y-70475357D02*
X60600952Y-70475357D01*
X60720000Y-70308690D02*
X60720000Y-70737261D01*
X60696190Y-70784880D01*
X60648571Y-70808690D01*
X60600952Y-70808690D01*
X60434285Y-70808690D02*
X60434285Y-70308690D01*
X60220000Y-70808690D02*
X60220000Y-70546785D01*
X60243809Y-70499166D01*
X60291428Y-70475357D01*
X60362857Y-70475357D01*
X60410476Y-70499166D01*
X60434285Y-70522976D01*
X59767619Y-70475357D02*
X59767619Y-70808690D01*
X59981904Y-70475357D02*
X59981904Y-70737261D01*
X59958095Y-70784880D01*
X59910476Y-70808690D01*
X59839047Y-70808690D01*
X59791428Y-70784880D01*
X59767619Y-70761071D01*
X59529523Y-70808690D02*
X59529523Y-70308690D01*
X59529523Y-70499166D02*
X59481904Y-70475357D01*
X59386666Y-70475357D01*
X59339047Y-70499166D01*
X59315238Y-70522976D01*
X59291428Y-70570595D01*
X59291428Y-70713452D01*
X59315238Y-70761071D01*
X59339047Y-70784880D01*
X59386666Y-70808690D01*
X59481904Y-70808690D01*
X59529523Y-70784880D01*
X59077142Y-70761071D02*
X59053333Y-70784880D01*
X59077142Y-70808690D01*
X59100952Y-70784880D01*
X59077142Y-70761071D01*
X59077142Y-70808690D01*
X58624761Y-70784880D02*
X58672380Y-70808690D01*
X58767619Y-70808690D01*
X58815238Y-70784880D01*
X58839047Y-70761071D01*
X58862857Y-70713452D01*
X58862857Y-70570595D01*
X58839047Y-70522976D01*
X58815238Y-70499166D01*
X58767619Y-70475357D01*
X58672380Y-70475357D01*
X58624761Y-70499166D01*
X58339047Y-70808690D02*
X58386666Y-70784880D01*
X58410476Y-70761071D01*
X58434285Y-70713452D01*
X58434285Y-70570595D01*
X58410476Y-70522976D01*
X58386666Y-70499166D01*
X58339047Y-70475357D01*
X58267619Y-70475357D01*
X58220000Y-70499166D01*
X58196190Y-70522976D01*
X58172380Y-70570595D01*
X58172380Y-70713452D01*
X58196190Y-70761071D01*
X58220000Y-70784880D01*
X58267619Y-70808690D01*
X58339047Y-70808690D01*
X57958095Y-70808690D02*
X57958095Y-70475357D01*
X57958095Y-70522976D02*
X57934285Y-70499166D01*
X57886666Y-70475357D01*
X57815238Y-70475357D01*
X57767619Y-70499166D01*
X57743809Y-70546785D01*
X57743809Y-70808690D01*
X57743809Y-70546785D02*
X57720000Y-70499166D01*
X57672380Y-70475357D01*
X57600952Y-70475357D01*
X57553333Y-70499166D01*
X57529523Y-70546785D01*
X57529523Y-70808690D01*
X56934285Y-70284880D02*
X57362857Y-70927738D01*
X56481904Y-70761071D02*
X56505714Y-70784880D01*
X56577142Y-70808690D01*
X56624761Y-70808690D01*
X56696190Y-70784880D01*
X56743809Y-70737261D01*
X56767619Y-70689642D01*
X56791428Y-70594404D01*
X56791428Y-70522976D01*
X56767619Y-70427738D01*
X56743809Y-70380119D01*
X56696190Y-70332500D01*
X56624761Y-70308690D01*
X56577142Y-70308690D01*
X56505714Y-70332500D01*
X56481904Y-70356309D01*
X56196190Y-70808690D02*
X56243809Y-70784880D01*
X56267619Y-70761071D01*
X56291428Y-70713452D01*
X56291428Y-70570595D01*
X56267619Y-70522976D01*
X56243809Y-70499166D01*
X56196190Y-70475357D01*
X56124761Y-70475357D01*
X56077142Y-70499166D01*
X56053333Y-70522976D01*
X56029523Y-70570595D01*
X56029523Y-70713452D01*
X56053333Y-70761071D01*
X56077142Y-70784880D01*
X56124761Y-70808690D01*
X56196190Y-70808690D01*
X55815238Y-70475357D02*
X55815238Y-70808690D01*
X55815238Y-70522976D02*
X55791428Y-70499166D01*
X55743809Y-70475357D01*
X55672380Y-70475357D01*
X55624761Y-70499166D01*
X55600952Y-70546785D01*
X55600952Y-70808690D01*
X55362857Y-70475357D02*
X55362857Y-70808690D01*
X55362857Y-70522976D02*
X55339047Y-70499166D01*
X55291428Y-70475357D01*
X55220000Y-70475357D01*
X55172380Y-70499166D01*
X55148571Y-70546785D01*
X55148571Y-70808690D01*
X54839047Y-70808690D02*
X54886666Y-70784880D01*
X54910476Y-70761071D01*
X54934285Y-70713452D01*
X54934285Y-70570595D01*
X54910476Y-70522976D01*
X54886666Y-70499166D01*
X54839047Y-70475357D01*
X54767619Y-70475357D01*
X54720000Y-70499166D01*
X54696190Y-70522976D01*
X54672380Y-70570595D01*
X54672380Y-70713452D01*
X54696190Y-70761071D01*
X54720000Y-70784880D01*
X54767619Y-70808690D01*
X54839047Y-70808690D01*
X54458095Y-70808690D02*
X54458095Y-70475357D01*
X54458095Y-70570595D02*
X54434285Y-70522976D01*
X54410476Y-70499166D01*
X54362857Y-70475357D01*
X54315238Y-70475357D01*
X53862857Y-70808690D02*
X54029523Y-70570595D01*
X54148571Y-70808690D02*
X54148571Y-70308690D01*
X53958095Y-70308690D01*
X53910476Y-70332500D01*
X53886666Y-70356309D01*
X53862857Y-70403928D01*
X53862857Y-70475357D01*
X53886666Y-70522976D01*
X53910476Y-70546785D01*
X53958095Y-70570595D01*
X54148571Y-70570595D01*
X53648571Y-70808690D02*
X53648571Y-70475357D01*
X53648571Y-70308690D02*
X53672380Y-70332500D01*
X53648571Y-70356309D01*
X53624761Y-70332500D01*
X53648571Y-70308690D01*
X53648571Y-70356309D01*
X53196190Y-70475357D02*
X53196190Y-70880119D01*
X53220000Y-70927738D01*
X53243809Y-70951547D01*
X53291428Y-70975357D01*
X53362857Y-70975357D01*
X53410476Y-70951547D01*
X53196190Y-70784880D02*
X53243809Y-70808690D01*
X53339047Y-70808690D01*
X53386666Y-70784880D01*
X53410476Y-70761071D01*
X53434285Y-70713452D01*
X53434285Y-70570595D01*
X53410476Y-70522976D01*
X53386666Y-70499166D01*
X53339047Y-70475357D01*
X53243809Y-70475357D01*
X53196190Y-70499166D01*
X52958095Y-70808690D02*
X52958095Y-70308690D01*
X52958095Y-70499166D02*
X52910476Y-70475357D01*
X52815238Y-70475357D01*
X52767619Y-70499166D01*
X52743809Y-70522976D01*
X52720000Y-70570595D01*
X52720000Y-70713452D01*
X52743809Y-70761071D01*
X52767619Y-70784880D01*
X52815238Y-70808690D01*
X52910476Y-70808690D01*
X52958095Y-70784880D01*
X52553333Y-70475357D02*
X52434285Y-70808690D01*
X52315238Y-70475357D02*
X52434285Y-70808690D01*
X52481904Y-70927738D01*
X52505714Y-70951547D01*
X52553333Y-70975357D01*
X102096666Y-43976190D02*
X101930000Y-44476190D01*
X101763333Y-43976190D01*
X101310952Y-44428571D02*
X101334761Y-44452380D01*
X101406190Y-44476190D01*
X101453809Y-44476190D01*
X101525238Y-44452380D01*
X101572857Y-44404761D01*
X101596666Y-44357142D01*
X101620476Y-44261904D01*
X101620476Y-44190476D01*
X101596666Y-44095238D01*
X101572857Y-44047619D01*
X101525238Y-44000000D01*
X101453809Y-43976190D01*
X101406190Y-43976190D01*
X101334761Y-44000000D01*
X101310952Y-44023809D01*
X100810952Y-44428571D02*
X100834761Y-44452380D01*
X100906190Y-44476190D01*
X100953809Y-44476190D01*
X101025238Y-44452380D01*
X101072857Y-44404761D01*
X101096666Y-44357142D01*
X101120476Y-44261904D01*
X101120476Y-44190476D01*
X101096666Y-44095238D01*
X101072857Y-44047619D01*
X101025238Y-44000000D01*
X100953809Y-43976190D01*
X100906190Y-43976190D01*
X100834761Y-44000000D01*
X100810952Y-44023809D01*
X101415230Y-73515949D02*
X101415230Y-73206425D01*
X101224754Y-73373091D01*
X101224754Y-73301663D01*
X101200944Y-73254044D01*
X101177135Y-73230234D01*
X101129516Y-73206425D01*
X101010468Y-73206425D01*
X100962849Y-73230234D01*
X100939040Y-73254044D01*
X100915230Y-73301663D01*
X100915230Y-73444520D01*
X100939040Y-73492139D01*
X100962849Y-73515949D01*
X101248563Y-73039758D02*
X100915230Y-72920711D01*
X101248563Y-72801663D01*
X101415230Y-72658806D02*
X101415230Y-72349282D01*
X101224754Y-72515949D01*
X101224754Y-72444520D01*
X101200944Y-72396901D01*
X101177135Y-72373091D01*
X101129516Y-72349282D01*
X101010468Y-72349282D01*
X100962849Y-72373091D01*
X100939040Y-72396901D01*
X100915230Y-72444520D01*
X100915230Y-72587377D01*
X100939040Y-72634996D01*
X100962849Y-72658806D01*
X63914285Y-67826190D02*
X63914285Y-67326190D01*
X63676190Y-67778571D02*
X63652380Y-67802380D01*
X63676190Y-67826190D01*
X63700000Y-67802380D01*
X63676190Y-67778571D01*
X63676190Y-67826190D01*
X63438095Y-67826190D02*
X63438095Y-67326190D01*
X63271428Y-67683333D01*
X63104761Y-67326190D01*
X63104761Y-67826190D01*
X62914285Y-67326190D02*
X62580952Y-67826190D01*
X62580952Y-67326190D02*
X62914285Y-67826190D01*
X62176190Y-67326190D02*
X62271428Y-67326190D01*
X62319047Y-67350000D01*
X62342857Y-67373809D01*
X62390476Y-67445238D01*
X62414285Y-67540476D01*
X62414285Y-67730952D01*
X62390476Y-67778571D01*
X62366666Y-67802380D01*
X62319047Y-67826190D01*
X62223809Y-67826190D01*
X62176190Y-67802380D01*
X62152380Y-67778571D01*
X62128571Y-67730952D01*
X62128571Y-67611904D01*
X62152380Y-67564285D01*
X62176190Y-67540476D01*
X62223809Y-67516666D01*
X62319047Y-67516666D01*
X62366666Y-67540476D01*
X62390476Y-67564285D01*
X62414285Y-67611904D01*
X61533333Y-67826190D02*
X61533333Y-67326190D01*
X61414285Y-67326190D01*
X61342857Y-67350000D01*
X61295238Y-67397619D01*
X61271428Y-67445238D01*
X61247619Y-67540476D01*
X61247619Y-67611904D01*
X61271428Y-67707142D01*
X61295238Y-67754761D01*
X61342857Y-67802380D01*
X61414285Y-67826190D01*
X61533333Y-67826190D01*
X60842857Y-67802380D02*
X60890476Y-67826190D01*
X60985714Y-67826190D01*
X61033333Y-67802380D01*
X61057142Y-67754761D01*
X61057142Y-67564285D01*
X61033333Y-67516666D01*
X60985714Y-67492857D01*
X60890476Y-67492857D01*
X60842857Y-67516666D01*
X60819047Y-67564285D01*
X60819047Y-67611904D01*
X61057142Y-67659523D01*
X60652380Y-67492857D02*
X60533333Y-67826190D01*
X60414285Y-67492857D01*
X60033333Y-67802380D02*
X60080952Y-67826190D01*
X60176190Y-67826190D01*
X60223809Y-67802380D01*
X60247619Y-67754761D01*
X60247619Y-67564285D01*
X60223809Y-67516666D01*
X60176190Y-67492857D01*
X60080952Y-67492857D01*
X60033333Y-67516666D01*
X60009523Y-67564285D01*
X60009523Y-67611904D01*
X60247619Y-67659523D01*
X59723809Y-67826190D02*
X59771428Y-67802380D01*
X59795238Y-67754761D01*
X59795238Y-67326190D01*
X59461904Y-67826190D02*
X59509523Y-67802380D01*
X59533333Y-67778571D01*
X59557142Y-67730952D01*
X59557142Y-67588095D01*
X59533333Y-67540476D01*
X59509523Y-67516666D01*
X59461904Y-67492857D01*
X59390476Y-67492857D01*
X59342857Y-67516666D01*
X59319047Y-67540476D01*
X59295238Y-67588095D01*
X59295238Y-67730952D01*
X59319047Y-67778571D01*
X59342857Y-67802380D01*
X59390476Y-67826190D01*
X59461904Y-67826190D01*
X59080952Y-67492857D02*
X59080952Y-67992857D01*
X59080952Y-67516666D02*
X59033333Y-67492857D01*
X58938095Y-67492857D01*
X58890476Y-67516666D01*
X58866666Y-67540476D01*
X58842857Y-67588095D01*
X58842857Y-67730952D01*
X58866666Y-67778571D01*
X58890476Y-67802380D01*
X58938095Y-67826190D01*
X59033333Y-67826190D01*
X59080952Y-67802380D01*
X58628571Y-67826190D02*
X58628571Y-67492857D01*
X58628571Y-67540476D02*
X58604761Y-67516666D01*
X58557142Y-67492857D01*
X58485714Y-67492857D01*
X58438095Y-67516666D01*
X58414285Y-67564285D01*
X58414285Y-67826190D01*
X58414285Y-67564285D02*
X58390476Y-67516666D01*
X58342857Y-67492857D01*
X58271428Y-67492857D01*
X58223809Y-67516666D01*
X58200000Y-67564285D01*
X58200000Y-67826190D01*
X57771428Y-67802380D02*
X57819047Y-67826190D01*
X57914285Y-67826190D01*
X57961904Y-67802380D01*
X57985714Y-67754761D01*
X57985714Y-67564285D01*
X57961904Y-67516666D01*
X57914285Y-67492857D01*
X57819047Y-67492857D01*
X57771428Y-67516666D01*
X57747619Y-67564285D01*
X57747619Y-67611904D01*
X57985714Y-67659523D01*
X57533333Y-67492857D02*
X57533333Y-67826190D01*
X57533333Y-67540476D02*
X57509523Y-67516666D01*
X57461904Y-67492857D01*
X57390476Y-67492857D01*
X57342857Y-67516666D01*
X57319047Y-67564285D01*
X57319047Y-67826190D01*
X57152380Y-67492857D02*
X56961904Y-67492857D01*
X57080952Y-67326190D02*
X57080952Y-67754761D01*
X57057142Y-67802380D01*
X57009523Y-67826190D01*
X56961904Y-67826190D01*
X56247619Y-67564285D02*
X56176190Y-67588095D01*
X56152380Y-67611904D01*
X56128571Y-67659523D01*
X56128571Y-67730952D01*
X56152380Y-67778571D01*
X56176190Y-67802380D01*
X56223809Y-67826190D01*
X56414285Y-67826190D01*
X56414285Y-67326190D01*
X56247619Y-67326190D01*
X56200000Y-67350000D01*
X56176190Y-67373809D01*
X56152380Y-67421428D01*
X56152380Y-67469047D01*
X56176190Y-67516666D01*
X56200000Y-67540476D01*
X56247619Y-67564285D01*
X56414285Y-67564285D01*
X55842857Y-67826190D02*
X55890476Y-67802380D01*
X55914285Y-67778571D01*
X55938095Y-67730952D01*
X55938095Y-67588095D01*
X55914285Y-67540476D01*
X55890476Y-67516666D01*
X55842857Y-67492857D01*
X55771428Y-67492857D01*
X55723809Y-67516666D01*
X55700000Y-67540476D01*
X55676190Y-67588095D01*
X55676190Y-67730952D01*
X55700000Y-67778571D01*
X55723809Y-67802380D01*
X55771428Y-67826190D01*
X55842857Y-67826190D01*
X55247619Y-67826190D02*
X55247619Y-67564285D01*
X55271428Y-67516666D01*
X55319047Y-67492857D01*
X55414285Y-67492857D01*
X55461904Y-67516666D01*
X55247619Y-67802380D02*
X55295238Y-67826190D01*
X55414285Y-67826190D01*
X55461904Y-67802380D01*
X55485714Y-67754761D01*
X55485714Y-67707142D01*
X55461904Y-67659523D01*
X55414285Y-67635714D01*
X55295238Y-67635714D01*
X55247619Y-67611904D01*
X55009523Y-67826190D02*
X55009523Y-67492857D01*
X55009523Y-67588095D02*
X54985714Y-67540476D01*
X54961904Y-67516666D01*
X54914285Y-67492857D01*
X54866666Y-67492857D01*
X54485714Y-67826190D02*
X54485714Y-67326190D01*
X54485714Y-67802380D02*
X54533333Y-67826190D01*
X54628571Y-67826190D01*
X54676190Y-67802380D01*
X54700000Y-67778571D01*
X54723809Y-67730952D01*
X54723809Y-67588095D01*
X54700000Y-67540476D01*
X54676190Y-67516666D01*
X54628571Y-67492857D01*
X54533333Y-67492857D01*
X54485714Y-67516666D01*
X97165230Y-73282615D02*
X97498563Y-73282615D01*
X97450944Y-73282615D02*
X97474754Y-73258806D01*
X97498563Y-73211187D01*
X97498563Y-73139758D01*
X97474754Y-73092139D01*
X97427135Y-73068330D01*
X97165230Y-73068330D01*
X97427135Y-73068330D02*
X97474754Y-73044520D01*
X97498563Y-72996901D01*
X97498563Y-72925472D01*
X97474754Y-72877853D01*
X97427135Y-72854044D01*
X97165230Y-72854044D01*
X97165230Y-72544520D02*
X97189040Y-72592139D01*
X97212849Y-72615949D01*
X97260468Y-72639758D01*
X97403325Y-72639758D01*
X97450944Y-72615949D01*
X97474754Y-72592139D01*
X97498563Y-72544520D01*
X97498563Y-72473091D01*
X97474754Y-72425472D01*
X97450944Y-72401663D01*
X97403325Y-72377853D01*
X97260468Y-72377853D01*
X97212849Y-72401663D01*
X97189040Y-72425472D01*
X97165230Y-72473091D01*
X97165230Y-72544520D01*
X97189040Y-72187377D02*
X97165230Y-72139758D01*
X97165230Y-72044520D01*
X97189040Y-71996901D01*
X97236659Y-71973091D01*
X97260468Y-71973091D01*
X97308087Y-71996901D01*
X97331897Y-72044520D01*
X97331897Y-72115949D01*
X97355706Y-72163568D01*
X97403325Y-72187377D01*
X97427135Y-72187377D01*
X97474754Y-72163568D01*
X97498563Y-72115949D01*
X97498563Y-72044520D01*
X97474754Y-71996901D01*
X97165230Y-71758806D02*
X97498563Y-71758806D01*
X97665230Y-71758806D02*
X97641421Y-71782615D01*
X97617611Y-71758806D01*
X97641421Y-71734996D01*
X97665230Y-71758806D01*
X97617611Y-71758806D01*
X82660744Y-71840778D02*
X82307190Y-71487225D01*
X82643908Y-71823942D02*
X82694416Y-71807106D01*
X82761759Y-71739763D01*
X82778595Y-71689255D01*
X82778595Y-71655583D01*
X82761759Y-71605076D01*
X82660744Y-71504061D01*
X82610236Y-71487225D01*
X82576564Y-71487225D01*
X82526057Y-71504061D01*
X82458713Y-71571404D01*
X82441877Y-71621912D01*
X82946954Y-71554568D02*
X82778595Y-71251522D01*
X83014297Y-71352538D01*
X82913282Y-71116835D01*
X83216328Y-71285194D01*
X83115312Y-70914805D02*
X83351015Y-71150507D01*
X83317343Y-71116835D02*
X83351015Y-71116835D01*
X83401522Y-71100000D01*
X83452030Y-71049492D01*
X83468866Y-70998984D01*
X83452030Y-70948477D01*
X83266835Y-70763282D01*
X83452030Y-70948477D02*
X83502538Y-70965312D01*
X83553045Y-70948477D01*
X83603553Y-70897969D01*
X83620389Y-70847461D01*
X83603553Y-70796954D01*
X83418358Y-70611759D01*
X83889763Y-70780118D02*
X83923435Y-70780118D01*
X83973942Y-70763282D01*
X84058122Y-70679103D01*
X84074957Y-70628595D01*
X84074957Y-70594923D01*
X84058122Y-70544416D01*
X84024450Y-70510744D01*
X83957106Y-70477072D01*
X83553045Y-70477072D01*
X83771912Y-70258206D01*
X99439040Y-73318330D02*
X99415230Y-73270711D01*
X99415230Y-73175472D01*
X99439040Y-73127853D01*
X99486659Y-73104044D01*
X99510468Y-73104044D01*
X99558087Y-73127853D01*
X99581897Y-73175472D01*
X99581897Y-73246901D01*
X99605706Y-73294520D01*
X99653325Y-73318330D01*
X99677135Y-73318330D01*
X99724754Y-73294520D01*
X99748563Y-73246901D01*
X99748563Y-73175472D01*
X99724754Y-73127853D01*
X99439040Y-72913568D02*
X99415230Y-72865949D01*
X99415230Y-72770711D01*
X99439040Y-72723091D01*
X99486659Y-72699282D01*
X99510468Y-72699282D01*
X99558087Y-72723091D01*
X99581897Y-72770711D01*
X99581897Y-72842139D01*
X99605706Y-72889758D01*
X99653325Y-72913568D01*
X99677135Y-72913568D01*
X99724754Y-72889758D01*
X99748563Y-72842139D01*
X99748563Y-72770711D01*
X99724754Y-72723091D01*
X99915230Y-72389758D02*
X99915230Y-72342139D01*
X99891421Y-72294520D01*
X99867611Y-72270711D01*
X99819992Y-72246901D01*
X99724754Y-72223091D01*
X99605706Y-72223091D01*
X99510468Y-72246901D01*
X99462849Y-72270711D01*
X99439040Y-72294520D01*
X99415230Y-72342139D01*
X99415230Y-72389758D01*
X99439040Y-72437377D01*
X99462849Y-72461187D01*
X99510468Y-72484996D01*
X99605706Y-72508806D01*
X99724754Y-72508806D01*
X99819992Y-72484996D01*
X99867611Y-72461187D01*
X99891421Y-72437377D01*
X99915230Y-72389758D01*
X83660744Y-71840778D02*
X83307190Y-71487225D01*
X83643908Y-71823942D02*
X83694416Y-71807106D01*
X83761759Y-71739763D01*
X83778595Y-71689255D01*
X83778595Y-71655583D01*
X83761759Y-71605076D01*
X83660744Y-71504061D01*
X83610236Y-71487225D01*
X83576564Y-71487225D01*
X83526057Y-71504061D01*
X83458713Y-71571404D01*
X83441877Y-71621912D01*
X83946954Y-71554568D02*
X83778595Y-71251522D01*
X84014297Y-71352538D01*
X83913282Y-71116835D01*
X84216328Y-71285194D01*
X84115312Y-70914805D02*
X84351015Y-71150507D01*
X84317343Y-71116835D02*
X84351015Y-71116835D01*
X84401522Y-71100000D01*
X84452030Y-71049492D01*
X84468866Y-70998984D01*
X84452030Y-70948477D01*
X84266835Y-70763282D01*
X84452030Y-70948477D02*
X84502538Y-70965312D01*
X84553045Y-70948477D01*
X84603553Y-70897969D01*
X84620389Y-70847461D01*
X84603553Y-70796954D01*
X84418358Y-70611759D01*
X84973942Y-70527580D02*
X84738240Y-70291877D01*
X85024450Y-70746446D02*
X84687732Y-70578087D01*
X84906599Y-70359221D01*
X97696954Y-70866835D02*
X97646446Y-70883671D01*
X97579103Y-70951015D01*
X97562267Y-71001522D01*
X97562267Y-71035194D01*
X97579103Y-71085702D01*
X97680118Y-71186717D01*
X97730625Y-71203553D01*
X97764297Y-71203553D01*
X97814805Y-71186717D01*
X97882148Y-71119374D01*
X97898984Y-71068866D01*
X98016835Y-70984687D02*
X98151522Y-70850000D01*
X98185194Y-71052030D02*
X97882148Y-70748984D01*
X97865312Y-70698477D01*
X97882148Y-70647969D01*
X97915820Y-70614297D01*
X98033671Y-70530118D02*
X98050507Y-70479610D01*
X98117851Y-70412267D01*
X98168358Y-70395431D01*
X98218866Y-70412267D01*
X98235702Y-70429103D01*
X98252538Y-70479610D01*
X98235702Y-70530118D01*
X98185194Y-70580625D01*
X98168358Y-70631133D01*
X98185194Y-70681641D01*
X98202030Y-70698477D01*
X98252538Y-70715312D01*
X98303045Y-70698477D01*
X98353553Y-70647969D01*
X98370389Y-70597461D01*
X100165230Y-73351663D02*
X100498563Y-73351663D01*
X100403325Y-73351663D02*
X100450944Y-73327853D01*
X100474754Y-73304044D01*
X100498563Y-73256425D01*
X100498563Y-73208806D01*
X100189040Y-73065949D02*
X100165230Y-73018330D01*
X100165230Y-72923091D01*
X100189040Y-72875472D01*
X100236659Y-72851663D01*
X100260468Y-72851663D01*
X100308087Y-72875472D01*
X100331897Y-72923091D01*
X100331897Y-72994520D01*
X100355706Y-73042139D01*
X100403325Y-73065949D01*
X100427135Y-73065949D01*
X100474754Y-73042139D01*
X100498563Y-72994520D01*
X100498563Y-72923091D01*
X100474754Y-72875472D01*
X100498563Y-72708806D02*
X100498563Y-72518330D01*
X100665230Y-72637377D02*
X100236659Y-72637377D01*
X100189040Y-72613568D01*
X100165230Y-72565949D01*
X100165230Y-72518330D01*
D13*
X83854761Y-65152380D02*
X83854761Y-64152380D01*
X83473809Y-64152380D01*
X83378571Y-64200000D01*
X83330952Y-64247619D01*
X83283333Y-64342857D01*
X83283333Y-64485714D01*
X83330952Y-64580952D01*
X83378571Y-64628571D01*
X83473809Y-64676190D01*
X83854761Y-64676190D01*
X82950000Y-64152380D02*
X82711904Y-65152380D01*
X82521428Y-64438095D01*
X82330952Y-65152380D01*
X82092857Y-64152380D01*
X81711904Y-65152380D02*
X81711904Y-64152380D01*
X81378571Y-64866666D01*
X81045238Y-64152380D01*
X81045238Y-65152380D01*
D11*
X81660744Y-71840778D02*
X81307190Y-71487225D01*
X81643908Y-71823942D02*
X81694416Y-71807106D01*
X81761759Y-71739763D01*
X81778595Y-71689255D01*
X81778595Y-71655583D01*
X81761759Y-71605076D01*
X81660744Y-71504061D01*
X81610236Y-71487225D01*
X81576564Y-71487225D01*
X81526057Y-71504061D01*
X81458713Y-71571404D01*
X81441877Y-71621912D01*
X81946954Y-71554568D02*
X81778595Y-71251522D01*
X82014297Y-71352538D01*
X81913282Y-71116835D01*
X82216328Y-71285194D01*
X82115312Y-70914805D02*
X82351015Y-71150507D01*
X82317343Y-71116835D02*
X82351015Y-71116835D01*
X82401522Y-71100000D01*
X82452030Y-71049492D01*
X82468866Y-70998984D01*
X82452030Y-70948477D01*
X82266835Y-70763282D01*
X82452030Y-70948477D02*
X82502538Y-70965312D01*
X82553045Y-70948477D01*
X82603553Y-70897969D01*
X82620389Y-70847461D01*
X82603553Y-70796954D01*
X82418358Y-70611759D01*
X82771912Y-70258206D02*
X82569881Y-70460236D01*
X82670896Y-70359221D02*
X83024450Y-70712774D01*
X82940270Y-70695938D01*
X82872927Y-70695938D01*
X82822419Y-70712774D01*
X101892857Y-52658571D02*
X101916666Y-52682380D01*
X101988095Y-52706190D01*
X102035714Y-52706190D01*
X102107143Y-52682380D01*
X102154762Y-52634761D01*
X102178571Y-52587142D01*
X102202381Y-52491904D01*
X102202381Y-52420476D01*
X102178571Y-52325238D01*
X102154762Y-52277619D01*
X102107143Y-52230000D01*
X102035714Y-52206190D01*
X101988095Y-52206190D01*
X101916666Y-52230000D01*
X101892857Y-52253809D01*
X101702381Y-52563333D02*
X101464285Y-52563333D01*
X101750000Y-52706190D02*
X101583333Y-52206190D01*
X101416666Y-52706190D01*
X101250000Y-52706190D02*
X101250000Y-52206190D01*
X100964285Y-52706190D01*
X100964285Y-52206190D01*
X100726190Y-52706190D02*
X100726190Y-52206190D01*
X100726190Y-52444285D02*
X100440476Y-52444285D01*
X100440476Y-52706190D02*
X100440476Y-52206190D01*
D13*
X87326667Y-46882380D02*
X87326667Y-47596666D01*
X87374286Y-47739523D01*
X87469524Y-47834761D01*
X87612381Y-47882380D01*
X87707620Y-47882380D01*
X86993334Y-46882380D02*
X86421905Y-46882380D01*
X86707620Y-47882380D02*
X86707620Y-46882380D01*
X86136191Y-47596666D02*
X85660001Y-47596666D01*
X86231429Y-47882380D02*
X85898096Y-46882380D01*
X85564762Y-47882380D01*
X84707620Y-46930000D02*
X84802858Y-46882380D01*
X84945715Y-46882380D01*
X85088572Y-46930000D01*
X85183810Y-47025238D01*
X85231429Y-47120476D01*
X85279048Y-47310952D01*
X85279048Y-47453809D01*
X85231429Y-47644285D01*
X85183810Y-47739523D01*
X85088572Y-47834761D01*
X84945715Y-47882380D01*
X84850477Y-47882380D01*
X84707620Y-47834761D01*
X84660001Y-47787142D01*
X84660001Y-47453809D01*
X84850477Y-47453809D01*
D11*
X100881641Y-71219881D02*
X100595431Y-70933671D01*
X100544923Y-70916835D01*
X100511251Y-70916835D01*
X100460744Y-70933671D01*
X100410236Y-70984179D01*
X100393400Y-71034687D01*
X100662774Y-71001015D02*
X100612267Y-71017851D01*
X100544923Y-71085194D01*
X100528087Y-71135702D01*
X100528087Y-71169374D01*
X100544923Y-71219881D01*
X100645938Y-71320896D01*
X100696446Y-71337732D01*
X100730118Y-71337732D01*
X100780625Y-71320896D01*
X100847969Y-71253553D01*
X100864805Y-71203045D01*
X101050000Y-71051522D02*
X100814297Y-70815820D01*
X101016328Y-71017851D02*
X101050000Y-71017851D01*
X101100507Y-71001015D01*
X101151015Y-70950507D01*
X101167851Y-70899999D01*
X101151015Y-70849492D01*
X100965820Y-70664297D01*
X101285702Y-70344416D02*
X101639255Y-70697969D01*
X101302538Y-70361251D02*
X101252030Y-70378087D01*
X101184687Y-70445431D01*
X101167851Y-70495938D01*
X101167851Y-70529610D01*
X101184687Y-70580118D01*
X101285702Y-70681133D01*
X101336209Y-70697969D01*
X101369881Y-70697969D01*
X101420389Y-70681133D01*
X101487732Y-70613790D01*
X101504568Y-70563282D01*
D13*
X88618095Y-56792380D02*
X88618095Y-55792380D01*
X88380000Y-55792380D01*
X88237142Y-55840000D01*
X88141904Y-55935238D01*
X88094285Y-56030476D01*
X88046666Y-56220952D01*
X88046666Y-56363809D01*
X88094285Y-56554285D01*
X88141904Y-56649523D01*
X88237142Y-56744761D01*
X88380000Y-56792380D01*
X88618095Y-56792380D01*
X87618095Y-56268571D02*
X87284761Y-56268571D01*
X87141904Y-56792380D02*
X87618095Y-56792380D01*
X87618095Y-55792380D01*
X87141904Y-55792380D01*
X86380000Y-56268571D02*
X86237142Y-56316190D01*
X86189523Y-56363809D01*
X86141904Y-56459047D01*
X86141904Y-56601904D01*
X86189523Y-56697142D01*
X86237142Y-56744761D01*
X86332380Y-56792380D01*
X86713333Y-56792380D01*
X86713333Y-55792380D01*
X86380000Y-55792380D01*
X86284761Y-55840000D01*
X86237142Y-55887619D01*
X86189523Y-55982857D01*
X86189523Y-56078095D01*
X86237142Y-56173333D01*
X86284761Y-56220952D01*
X86380000Y-56268571D01*
X86713333Y-56268571D01*
X85713333Y-55792380D02*
X85713333Y-56601904D01*
X85665714Y-56697142D01*
X85618095Y-56744761D01*
X85522857Y-56792380D01*
X85332380Y-56792380D01*
X85237142Y-56744761D01*
X85189523Y-56697142D01*
X85141904Y-56601904D01*
X85141904Y-55792380D01*
X84141904Y-55840000D02*
X84237142Y-55792380D01*
X84380000Y-55792380D01*
X84522857Y-55840000D01*
X84618095Y-55935238D01*
X84665714Y-56030476D01*
X84713333Y-56220952D01*
X84713333Y-56363809D01*
X84665714Y-56554285D01*
X84618095Y-56649523D01*
X84522857Y-56744761D01*
X84380000Y-56792380D01*
X84284761Y-56792380D01*
X84141904Y-56744761D01*
X84094285Y-56697142D01*
X84094285Y-56363809D01*
X84284761Y-56363809D01*
X92876190Y-65252380D02*
X92876190Y-64252380D01*
X92447619Y-64347619D02*
X92400000Y-64300000D01*
X92304761Y-64252380D01*
X92066666Y-64252380D01*
X91971428Y-64300000D01*
X91923809Y-64347619D01*
X91876190Y-64442857D01*
X91876190Y-64538095D01*
X91923809Y-64680952D01*
X92495238Y-65252380D01*
X91876190Y-65252380D01*
X90876190Y-65157142D02*
X90923809Y-65204761D01*
X91066666Y-65252380D01*
X91161904Y-65252380D01*
X91304761Y-65204761D01*
X91400000Y-65109523D01*
X91447619Y-65014285D01*
X91495238Y-64823809D01*
X91495238Y-64680952D01*
X91447619Y-64490476D01*
X91400000Y-64395238D01*
X91304761Y-64300000D01*
X91161904Y-64252380D01*
X91066666Y-64252380D01*
X90923809Y-64300000D01*
X90876190Y-64347619D01*
D11*
X92631641Y-71059881D02*
X92345431Y-70773671D01*
X92294923Y-70756835D01*
X92261251Y-70756835D01*
X92210744Y-70773671D01*
X92160236Y-70824179D01*
X92143400Y-70874687D01*
X92412774Y-70841015D02*
X92362267Y-70857851D01*
X92294923Y-70925194D01*
X92278087Y-70975702D01*
X92278087Y-71009374D01*
X92294923Y-71059881D01*
X92395938Y-71160896D01*
X92446446Y-71177732D01*
X92480118Y-71177732D01*
X92530625Y-71160896D01*
X92597969Y-71093553D01*
X92614805Y-71043045D01*
X92800000Y-70891522D02*
X92564297Y-70655820D01*
X92766328Y-70857851D02*
X92800000Y-70857851D01*
X92850507Y-70841015D01*
X92901015Y-70790507D01*
X92917851Y-70739999D01*
X92901015Y-70689492D01*
X92715820Y-70504297D01*
X93035702Y-70184416D02*
X93389255Y-70537969D01*
X93052538Y-70201251D02*
X93002030Y-70218087D01*
X92934687Y-70285431D01*
X92917851Y-70335938D01*
X92917851Y-70369610D01*
X92934687Y-70420118D01*
X93035702Y-70521133D01*
X93086209Y-70537969D01*
X93119881Y-70537969D01*
X93170389Y-70521133D01*
X93237732Y-70453790D01*
X93254568Y-70403282D01*
X94758571Y-51332857D02*
X94777619Y-51351904D01*
X94834762Y-51370952D01*
X94872857Y-51370952D01*
X94930000Y-51351904D01*
X94968095Y-51313809D01*
X94987143Y-51275714D01*
X95006190Y-51199523D01*
X95006190Y-51142380D01*
X94987143Y-51066190D01*
X94968095Y-51028095D01*
X94930000Y-50990000D01*
X94872857Y-50970952D01*
X94834762Y-50970952D01*
X94777619Y-50990000D01*
X94758571Y-51009047D01*
X94606190Y-51256666D02*
X94415714Y-51256666D01*
X94644285Y-51370952D02*
X94510952Y-50970952D01*
X94377619Y-51370952D01*
X94244285Y-51370952D02*
X94244285Y-50970952D01*
X94015714Y-51370952D01*
X94015714Y-50970952D01*
X93634762Y-51370952D02*
X93825238Y-51370952D01*
X93825238Y-50970952D01*
D10*
G04 #@! TO.C,D1*
X89104761Y-39082380D02*
X89104761Y-38082380D01*
X88866666Y-38082380D01*
X88723808Y-38130000D01*
X88628570Y-38225238D01*
X88580951Y-38320476D01*
X88533332Y-38510952D01*
X88533332Y-38653809D01*
X88580951Y-38844285D01*
X88628570Y-38939523D01*
X88723808Y-39034761D01*
X88866666Y-39082380D01*
X89104761Y-39082380D01*
X87580951Y-39082380D02*
X88152380Y-39082380D01*
X87866666Y-39082380D02*
X87866666Y-38082380D01*
X87961904Y-38225238D01*
X88057142Y-38320476D01*
X88152380Y-38368095D01*
G04 #@! TO.C,D2*
X76512380Y-31425238D02*
X75512380Y-31425238D01*
X75512380Y-31663334D01*
X75560000Y-31806191D01*
X75655238Y-31901429D01*
X75750476Y-31949048D01*
X75940952Y-31996667D01*
X76083809Y-31996667D01*
X76274285Y-31949048D01*
X76369523Y-31901429D01*
X76464761Y-31806191D01*
X76512380Y-31663334D01*
X76512380Y-31425238D01*
X75607619Y-32377619D02*
X75560000Y-32425238D01*
X75512380Y-32520476D01*
X75512380Y-32758572D01*
X75560000Y-32853810D01*
X75607619Y-32901429D01*
X75702857Y-32949048D01*
X75798095Y-32949048D01*
X75940952Y-32901429D01*
X76512380Y-32330000D01*
X76512380Y-32949048D01*
G04 #@! TO.C,U1*
X57224904Y-61034880D02*
X57224904Y-61844404D01*
X57177285Y-61939642D01*
X57129666Y-61987261D01*
X57034428Y-62034880D01*
X56843952Y-62034880D01*
X56748714Y-61987261D01*
X56701095Y-61939642D01*
X56653476Y-61844404D01*
X56653476Y-61034880D01*
X55653476Y-62034880D02*
X56224904Y-62034880D01*
X55939190Y-62034880D02*
X55939190Y-61034880D01*
X56034428Y-61177738D01*
X56129666Y-61272976D01*
X56224904Y-61320595D01*
G04 #@! TO.C,U2*
X61747904Y-41832234D02*
X61747904Y-42641758D01*
X61700285Y-42736996D01*
X61652666Y-42784615D01*
X61557428Y-42832234D01*
X61366952Y-42832234D01*
X61271714Y-42784615D01*
X61224095Y-42736996D01*
X61176476Y-42641758D01*
X61176476Y-41832234D01*
X60747904Y-41927473D02*
X60700285Y-41879854D01*
X60605047Y-41832234D01*
X60366952Y-41832234D01*
X60271714Y-41879854D01*
X60224095Y-41927473D01*
X60176476Y-42022711D01*
X60176476Y-42117949D01*
X60224095Y-42260806D01*
X60795523Y-42832234D01*
X60176476Y-42832234D01*
G04 #@! TO.C,U6*
X32121404Y-29276880D02*
X32121404Y-30086404D01*
X32073785Y-30181642D01*
X32026166Y-30229261D01*
X31930928Y-30276880D01*
X31740452Y-30276880D01*
X31645214Y-30229261D01*
X31597595Y-30181642D01*
X31549976Y-30086404D01*
X31549976Y-29276880D01*
X30645214Y-29276880D02*
X30835690Y-29276880D01*
X30930928Y-29324500D01*
X30978547Y-29372119D01*
X31073785Y-29514976D01*
X31121404Y-29705452D01*
X31121404Y-30086404D01*
X31073785Y-30181642D01*
X31026166Y-30229261D01*
X30930928Y-30276880D01*
X30740452Y-30276880D01*
X30645214Y-30229261D01*
X30597595Y-30181642D01*
X30549976Y-30086404D01*
X30549976Y-29848309D01*
X30597595Y-29753071D01*
X30645214Y-29705452D01*
X30740452Y-29657833D01*
X30930928Y-29657833D01*
X31026166Y-29705452D01*
X31073785Y-29753071D01*
X31121404Y-29848309D01*
D14*
G04 #@! TO.C,C23*
X54784428Y-46811071D02*
X54808238Y-46834880D01*
X54879666Y-46858690D01*
X54927285Y-46858690D01*
X54998714Y-46834880D01*
X55046333Y-46787261D01*
X55070142Y-46739642D01*
X55093952Y-46644404D01*
X55093952Y-46572976D01*
X55070142Y-46477738D01*
X55046333Y-46430119D01*
X54998714Y-46382500D01*
X54927285Y-46358690D01*
X54879666Y-46358690D01*
X54808238Y-46382500D01*
X54784428Y-46406309D01*
X54593952Y-46406309D02*
X54570142Y-46382500D01*
X54522523Y-46358690D01*
X54403476Y-46358690D01*
X54355857Y-46382500D01*
X54332047Y-46406309D01*
X54308238Y-46453928D01*
X54308238Y-46501547D01*
X54332047Y-46572976D01*
X54617761Y-46858690D01*
X54308238Y-46858690D01*
X54141571Y-46358690D02*
X53832047Y-46358690D01*
X53998714Y-46549166D01*
X53927285Y-46549166D01*
X53879666Y-46572976D01*
X53855857Y-46596785D01*
X53832047Y-46644404D01*
X53832047Y-46763452D01*
X53855857Y-46811071D01*
X53879666Y-46834880D01*
X53927285Y-46858690D01*
X54070142Y-46858690D01*
X54117761Y-46834880D01*
X54141571Y-46811071D01*
G04 #@! TO.C,C96*
X67091571Y-39861071D02*
X67115380Y-39837261D01*
X67139190Y-39765833D01*
X67139190Y-39718214D01*
X67115380Y-39646785D01*
X67067761Y-39599166D01*
X67020142Y-39575357D01*
X66924904Y-39551547D01*
X66853476Y-39551547D01*
X66758238Y-39575357D01*
X66710619Y-39599166D01*
X66663000Y-39646785D01*
X66639190Y-39718214D01*
X66639190Y-39765833D01*
X66663000Y-39837261D01*
X66686809Y-39861071D01*
X67139190Y-40099166D02*
X67139190Y-40194404D01*
X67115380Y-40242023D01*
X67091571Y-40265833D01*
X67020142Y-40313452D01*
X66924904Y-40337261D01*
X66734428Y-40337261D01*
X66686809Y-40313452D01*
X66663000Y-40289642D01*
X66639190Y-40242023D01*
X66639190Y-40146785D01*
X66663000Y-40099166D01*
X66686809Y-40075357D01*
X66734428Y-40051547D01*
X66853476Y-40051547D01*
X66901095Y-40075357D01*
X66924904Y-40099166D01*
X66948714Y-40146785D01*
X66948714Y-40242023D01*
X66924904Y-40289642D01*
X66901095Y-40313452D01*
X66853476Y-40337261D01*
X66639190Y-40765833D02*
X66639190Y-40670595D01*
X66663000Y-40622976D01*
X66686809Y-40599166D01*
X66758238Y-40551547D01*
X66853476Y-40527738D01*
X67043952Y-40527738D01*
X67091571Y-40551547D01*
X67115380Y-40575357D01*
X67139190Y-40622976D01*
X67139190Y-40718214D01*
X67115380Y-40765833D01*
X67091571Y-40789642D01*
X67043952Y-40813452D01*
X66924904Y-40813452D01*
X66877285Y-40789642D01*
X66853476Y-40765833D01*
X66829666Y-40718214D01*
X66829666Y-40622976D01*
X66853476Y-40575357D01*
X66877285Y-40551547D01*
X66924904Y-40527738D01*
G04 #@! TO.C,C97*
X66991571Y-34741071D02*
X67015380Y-34717261D01*
X67039190Y-34645833D01*
X67039190Y-34598214D01*
X67015380Y-34526785D01*
X66967761Y-34479166D01*
X66920142Y-34455357D01*
X66824904Y-34431547D01*
X66753476Y-34431547D01*
X66658238Y-34455357D01*
X66610619Y-34479166D01*
X66563000Y-34526785D01*
X66539190Y-34598214D01*
X66539190Y-34645833D01*
X66563000Y-34717261D01*
X66586809Y-34741071D01*
X67039190Y-34979166D02*
X67039190Y-35074404D01*
X67015380Y-35122023D01*
X66991571Y-35145833D01*
X66920142Y-35193452D01*
X66824904Y-35217261D01*
X66634428Y-35217261D01*
X66586809Y-35193452D01*
X66563000Y-35169642D01*
X66539190Y-35122023D01*
X66539190Y-35026785D01*
X66563000Y-34979166D01*
X66586809Y-34955357D01*
X66634428Y-34931547D01*
X66753476Y-34931547D01*
X66801095Y-34955357D01*
X66824904Y-34979166D01*
X66848714Y-35026785D01*
X66848714Y-35122023D01*
X66824904Y-35169642D01*
X66801095Y-35193452D01*
X66753476Y-35217261D01*
X66539190Y-35383928D02*
X66539190Y-35717261D01*
X67039190Y-35502976D01*
G04 #@! TO.C,C98*
X77302571Y-46548425D02*
X77326380Y-46524615D01*
X77350190Y-46453187D01*
X77350190Y-46405568D01*
X77326380Y-46334139D01*
X77278761Y-46286520D01*
X77231142Y-46262711D01*
X77135904Y-46238901D01*
X77064476Y-46238901D01*
X76969238Y-46262711D01*
X76921619Y-46286520D01*
X76874000Y-46334139D01*
X76850190Y-46405568D01*
X76850190Y-46453187D01*
X76874000Y-46524615D01*
X76897809Y-46548425D01*
X77350190Y-46786520D02*
X77350190Y-46881758D01*
X77326380Y-46929377D01*
X77302571Y-46953187D01*
X77231142Y-47000806D01*
X77135904Y-47024615D01*
X76945428Y-47024615D01*
X76897809Y-47000806D01*
X76874000Y-46976996D01*
X76850190Y-46929377D01*
X76850190Y-46834139D01*
X76874000Y-46786520D01*
X76897809Y-46762711D01*
X76945428Y-46738901D01*
X77064476Y-46738901D01*
X77112095Y-46762711D01*
X77135904Y-46786520D01*
X77159714Y-46834139D01*
X77159714Y-46929377D01*
X77135904Y-46976996D01*
X77112095Y-47000806D01*
X77064476Y-47024615D01*
X77064476Y-47310330D02*
X77040666Y-47262711D01*
X77016857Y-47238901D01*
X76969238Y-47215092D01*
X76945428Y-47215092D01*
X76897809Y-47238901D01*
X76874000Y-47262711D01*
X76850190Y-47310330D01*
X76850190Y-47405568D01*
X76874000Y-47453187D01*
X76897809Y-47476996D01*
X76945428Y-47500806D01*
X76969238Y-47500806D01*
X77016857Y-47476996D01*
X77040666Y-47453187D01*
X77064476Y-47405568D01*
X77064476Y-47310330D01*
X77088285Y-47262711D01*
X77112095Y-47238901D01*
X77159714Y-47215092D01*
X77254952Y-47215092D01*
X77302571Y-47238901D01*
X77326380Y-47262711D01*
X77350190Y-47310330D01*
X77350190Y-47405568D01*
X77326380Y-47453187D01*
X77302571Y-47476996D01*
X77254952Y-47500806D01*
X77159714Y-47500806D01*
X77112095Y-47476996D01*
X77088285Y-47453187D01*
X77064476Y-47405568D01*
G04 #@! TO.C,C99*
X77431617Y-44660071D02*
X77455426Y-44636261D01*
X77479236Y-44564833D01*
X77479236Y-44517214D01*
X77455426Y-44445785D01*
X77407807Y-44398166D01*
X77360188Y-44374357D01*
X77264950Y-44350547D01*
X77193522Y-44350547D01*
X77098284Y-44374357D01*
X77050665Y-44398166D01*
X77003046Y-44445785D01*
X76979236Y-44517214D01*
X76979236Y-44564833D01*
X77003046Y-44636261D01*
X77026855Y-44660071D01*
X77479236Y-44898166D02*
X77479236Y-44993404D01*
X77455426Y-45041023D01*
X77431617Y-45064833D01*
X77360188Y-45112452D01*
X77264950Y-45136261D01*
X77074474Y-45136261D01*
X77026855Y-45112452D01*
X77003046Y-45088642D01*
X76979236Y-45041023D01*
X76979236Y-44945785D01*
X77003046Y-44898166D01*
X77026855Y-44874357D01*
X77074474Y-44850547D01*
X77193522Y-44850547D01*
X77241141Y-44874357D01*
X77264950Y-44898166D01*
X77288760Y-44945785D01*
X77288760Y-45041023D01*
X77264950Y-45088642D01*
X77241141Y-45112452D01*
X77193522Y-45136261D01*
X77479236Y-45374357D02*
X77479236Y-45469595D01*
X77455426Y-45517214D01*
X77431617Y-45541023D01*
X77360188Y-45588642D01*
X77264950Y-45612452D01*
X77074474Y-45612452D01*
X77026855Y-45588642D01*
X77003046Y-45564833D01*
X76979236Y-45517214D01*
X76979236Y-45421976D01*
X77003046Y-45374357D01*
X77026855Y-45350547D01*
X77074474Y-45326738D01*
X77193522Y-45326738D01*
X77241141Y-45350547D01*
X77264950Y-45374357D01*
X77288760Y-45421976D01*
X77288760Y-45517214D01*
X77264950Y-45564833D01*
X77241141Y-45588642D01*
X77193522Y-45612452D01*
G04 #@! TO.C,R20*
X33199190Y-27541071D02*
X32961095Y-27374404D01*
X33199190Y-27255357D02*
X32699190Y-27255357D01*
X32699190Y-27445833D01*
X32723000Y-27493452D01*
X32746809Y-27517261D01*
X32794428Y-27541071D01*
X32865857Y-27541071D01*
X32913476Y-27517261D01*
X32937285Y-27493452D01*
X32961095Y-27445833D01*
X32961095Y-27255357D01*
X32746809Y-27731547D02*
X32723000Y-27755357D01*
X32699190Y-27802976D01*
X32699190Y-27922023D01*
X32723000Y-27969642D01*
X32746809Y-27993452D01*
X32794428Y-28017261D01*
X32842047Y-28017261D01*
X32913476Y-27993452D01*
X33199190Y-27707738D01*
X33199190Y-28017261D01*
X32699190Y-28326785D02*
X32699190Y-28374404D01*
X32723000Y-28422023D01*
X32746809Y-28445833D01*
X32794428Y-28469642D01*
X32889666Y-28493452D01*
X33008714Y-28493452D01*
X33103952Y-28469642D01*
X33151571Y-28445833D01*
X33175380Y-28422023D01*
X33199190Y-28374404D01*
X33199190Y-28326785D01*
X33175380Y-28279166D01*
X33151571Y-28255357D01*
X33103952Y-28231547D01*
X33008714Y-28207738D01*
X32889666Y-28207738D01*
X32794428Y-28231547D01*
X32746809Y-28255357D01*
X32723000Y-28279166D01*
X32699190Y-28326785D01*
G04 #@! TO.C,R13*
X29934428Y-35708690D02*
X30101095Y-35470595D01*
X30220142Y-35708690D02*
X30220142Y-35208690D01*
X30029666Y-35208690D01*
X29982047Y-35232500D01*
X29958238Y-35256309D01*
X29934428Y-35303928D01*
X29934428Y-35375357D01*
X29958238Y-35422976D01*
X29982047Y-35446785D01*
X30029666Y-35470595D01*
X30220142Y-35470595D01*
X29458238Y-35708690D02*
X29743952Y-35708690D01*
X29601095Y-35708690D02*
X29601095Y-35208690D01*
X29648714Y-35280119D01*
X29696333Y-35327738D01*
X29743952Y-35351547D01*
X29291571Y-35208690D02*
X28982047Y-35208690D01*
X29148714Y-35399166D01*
X29077285Y-35399166D01*
X29029666Y-35422976D01*
X29005857Y-35446785D01*
X28982047Y-35494404D01*
X28982047Y-35613452D01*
X29005857Y-35661071D01*
X29029666Y-35684880D01*
X29077285Y-35708690D01*
X29220142Y-35708690D01*
X29267761Y-35684880D01*
X29291571Y-35661071D01*
G04 #@! TO.C,R8*
X33646333Y-41918690D02*
X33813000Y-41680595D01*
X33932047Y-41918690D02*
X33932047Y-41418690D01*
X33741571Y-41418690D01*
X33693952Y-41442500D01*
X33670142Y-41466309D01*
X33646333Y-41513928D01*
X33646333Y-41585357D01*
X33670142Y-41632976D01*
X33693952Y-41656785D01*
X33741571Y-41680595D01*
X33932047Y-41680595D01*
X33360619Y-41632976D02*
X33408238Y-41609166D01*
X33432047Y-41585357D01*
X33455857Y-41537738D01*
X33455857Y-41513928D01*
X33432047Y-41466309D01*
X33408238Y-41442500D01*
X33360619Y-41418690D01*
X33265380Y-41418690D01*
X33217761Y-41442500D01*
X33193952Y-41466309D01*
X33170142Y-41513928D01*
X33170142Y-41537738D01*
X33193952Y-41585357D01*
X33217761Y-41609166D01*
X33265380Y-41632976D01*
X33360619Y-41632976D01*
X33408238Y-41656785D01*
X33432047Y-41680595D01*
X33455857Y-41728214D01*
X33455857Y-41823452D01*
X33432047Y-41871071D01*
X33408238Y-41894880D01*
X33360619Y-41918690D01*
X33265380Y-41918690D01*
X33217761Y-41894880D01*
X33193952Y-41871071D01*
X33170142Y-41823452D01*
X33170142Y-41728214D01*
X33193952Y-41680595D01*
X33217761Y-41656785D01*
X33265380Y-41632976D01*
G04 #@! TO.C,R9*
X40546333Y-39918690D02*
X40713000Y-39680595D01*
X40832047Y-39918690D02*
X40832047Y-39418690D01*
X40641571Y-39418690D01*
X40593952Y-39442500D01*
X40570142Y-39466309D01*
X40546333Y-39513928D01*
X40546333Y-39585357D01*
X40570142Y-39632976D01*
X40593952Y-39656785D01*
X40641571Y-39680595D01*
X40832047Y-39680595D01*
X40308238Y-39918690D02*
X40213000Y-39918690D01*
X40165380Y-39894880D01*
X40141571Y-39871071D01*
X40093952Y-39799642D01*
X40070142Y-39704404D01*
X40070142Y-39513928D01*
X40093952Y-39466309D01*
X40117761Y-39442500D01*
X40165380Y-39418690D01*
X40260619Y-39418690D01*
X40308238Y-39442500D01*
X40332047Y-39466309D01*
X40355857Y-39513928D01*
X40355857Y-39632976D01*
X40332047Y-39680595D01*
X40308238Y-39704404D01*
X40260619Y-39728214D01*
X40165380Y-39728214D01*
X40117761Y-39704404D01*
X40093952Y-39680595D01*
X40070142Y-39632976D01*
G04 #@! TO.C,R10*
X40244428Y-29398690D02*
X40411095Y-29160595D01*
X40530142Y-29398690D02*
X40530142Y-28898690D01*
X40339666Y-28898690D01*
X40292047Y-28922500D01*
X40268238Y-28946309D01*
X40244428Y-28993928D01*
X40244428Y-29065357D01*
X40268238Y-29112976D01*
X40292047Y-29136785D01*
X40339666Y-29160595D01*
X40530142Y-29160595D01*
X39768238Y-29398690D02*
X40053952Y-29398690D01*
X39911095Y-29398690D02*
X39911095Y-28898690D01*
X39958714Y-28970119D01*
X40006333Y-29017738D01*
X40053952Y-29041547D01*
X39458714Y-28898690D02*
X39411095Y-28898690D01*
X39363476Y-28922500D01*
X39339666Y-28946309D01*
X39315857Y-28993928D01*
X39292047Y-29089166D01*
X39292047Y-29208214D01*
X39315857Y-29303452D01*
X39339666Y-29351071D01*
X39363476Y-29374880D01*
X39411095Y-29398690D01*
X39458714Y-29398690D01*
X39506333Y-29374880D01*
X39530142Y-29351071D01*
X39553952Y-29303452D01*
X39577761Y-29208214D01*
X39577761Y-29089166D01*
X39553952Y-28993928D01*
X39530142Y-28946309D01*
X39506333Y-28922500D01*
X39458714Y-28898690D01*
G04 #@! TO.C,R7*
X52756333Y-31258690D02*
X52923000Y-31020595D01*
X53042047Y-31258690D02*
X53042047Y-30758690D01*
X52851571Y-30758690D01*
X52803952Y-30782500D01*
X52780142Y-30806309D01*
X52756333Y-30853928D01*
X52756333Y-30925357D01*
X52780142Y-30972976D01*
X52803952Y-30996785D01*
X52851571Y-31020595D01*
X53042047Y-31020595D01*
X52589666Y-30758690D02*
X52256333Y-30758690D01*
X52470619Y-31258690D01*
G04 #@! TO.C,R15*
X30149190Y-29381071D02*
X29911095Y-29214404D01*
X30149190Y-29095357D02*
X29649190Y-29095357D01*
X29649190Y-29285833D01*
X29673000Y-29333452D01*
X29696809Y-29357261D01*
X29744428Y-29381071D01*
X29815857Y-29381071D01*
X29863476Y-29357261D01*
X29887285Y-29333452D01*
X29911095Y-29285833D01*
X29911095Y-29095357D01*
X30149190Y-29857261D02*
X30149190Y-29571547D01*
X30149190Y-29714404D02*
X29649190Y-29714404D01*
X29720619Y-29666785D01*
X29768238Y-29619166D01*
X29792047Y-29571547D01*
X29649190Y-30309642D02*
X29649190Y-30071547D01*
X29887285Y-30047738D01*
X29863476Y-30071547D01*
X29839666Y-30119166D01*
X29839666Y-30238214D01*
X29863476Y-30285833D01*
X29887285Y-30309642D01*
X29934904Y-30333452D01*
X30053952Y-30333452D01*
X30101571Y-30309642D01*
X30125380Y-30285833D01*
X30149190Y-30238214D01*
X30149190Y-30119166D01*
X30125380Y-30071547D01*
X30101571Y-30047738D01*
G04 #@! TO.C,R19*
X35089190Y-27521071D02*
X34851095Y-27354404D01*
X35089190Y-27235357D02*
X34589190Y-27235357D01*
X34589190Y-27425833D01*
X34613000Y-27473452D01*
X34636809Y-27497261D01*
X34684428Y-27521071D01*
X34755857Y-27521071D01*
X34803476Y-27497261D01*
X34827285Y-27473452D01*
X34851095Y-27425833D01*
X34851095Y-27235357D01*
X35089190Y-27997261D02*
X35089190Y-27711547D01*
X35089190Y-27854404D02*
X34589190Y-27854404D01*
X34660619Y-27806785D01*
X34708238Y-27759166D01*
X34732047Y-27711547D01*
X35089190Y-28235357D02*
X35089190Y-28330595D01*
X35065380Y-28378214D01*
X35041571Y-28402023D01*
X34970142Y-28449642D01*
X34874904Y-28473452D01*
X34684428Y-28473452D01*
X34636809Y-28449642D01*
X34613000Y-28425833D01*
X34589190Y-28378214D01*
X34589190Y-28282976D01*
X34613000Y-28235357D01*
X34636809Y-28211547D01*
X34684428Y-28187738D01*
X34803476Y-28187738D01*
X34851095Y-28211547D01*
X34874904Y-28235357D01*
X34898714Y-28282976D01*
X34898714Y-28378214D01*
X34874904Y-28425833D01*
X34851095Y-28449642D01*
X34803476Y-28473452D01*
G04 #@! TO.C,R21*
X36149190Y-27581071D02*
X35911095Y-27414404D01*
X36149190Y-27295357D02*
X35649190Y-27295357D01*
X35649190Y-27485833D01*
X35673000Y-27533452D01*
X35696809Y-27557261D01*
X35744428Y-27581071D01*
X35815857Y-27581071D01*
X35863476Y-27557261D01*
X35887285Y-27533452D01*
X35911095Y-27485833D01*
X35911095Y-27295357D01*
X35696809Y-27771547D02*
X35673000Y-27795357D01*
X35649190Y-27842976D01*
X35649190Y-27962023D01*
X35673000Y-28009642D01*
X35696809Y-28033452D01*
X35744428Y-28057261D01*
X35792047Y-28057261D01*
X35863476Y-28033452D01*
X36149190Y-27747738D01*
X36149190Y-28057261D01*
X36149190Y-28533452D02*
X36149190Y-28247738D01*
X36149190Y-28390595D02*
X35649190Y-28390595D01*
X35720619Y-28342976D01*
X35768238Y-28295357D01*
X35792047Y-28247738D01*
G04 #@! TO.C,R14*
X29934428Y-38308690D02*
X30101095Y-38070595D01*
X30220142Y-38308690D02*
X30220142Y-37808690D01*
X30029666Y-37808690D01*
X29982047Y-37832500D01*
X29958238Y-37856309D01*
X29934428Y-37903928D01*
X29934428Y-37975357D01*
X29958238Y-38022976D01*
X29982047Y-38046785D01*
X30029666Y-38070595D01*
X30220142Y-38070595D01*
X29458238Y-38308690D02*
X29743952Y-38308690D01*
X29601095Y-38308690D02*
X29601095Y-37808690D01*
X29648714Y-37880119D01*
X29696333Y-37927738D01*
X29743952Y-37951547D01*
X29029666Y-37975357D02*
X29029666Y-38308690D01*
X29148714Y-37784880D02*
X29267761Y-38142023D01*
X28958238Y-38142023D01*
G04 #@! TO.C,R54*
X76619190Y-46631071D02*
X76381095Y-46464404D01*
X76619190Y-46345357D02*
X76119190Y-46345357D01*
X76119190Y-46535833D01*
X76143000Y-46583452D01*
X76166809Y-46607261D01*
X76214428Y-46631071D01*
X76285857Y-46631071D01*
X76333476Y-46607261D01*
X76357285Y-46583452D01*
X76381095Y-46535833D01*
X76381095Y-46345357D01*
X76119190Y-47083452D02*
X76119190Y-46845357D01*
X76357285Y-46821547D01*
X76333476Y-46845357D01*
X76309666Y-46892976D01*
X76309666Y-47012023D01*
X76333476Y-47059642D01*
X76357285Y-47083452D01*
X76404904Y-47107261D01*
X76523952Y-47107261D01*
X76571571Y-47083452D01*
X76595380Y-47059642D01*
X76619190Y-47012023D01*
X76619190Y-46892976D01*
X76595380Y-46845357D01*
X76571571Y-46821547D01*
X76285857Y-47535833D02*
X76619190Y-47535833D01*
X76095380Y-47416785D02*
X76452523Y-47297738D01*
X76452523Y-47607261D01*
G04 #@! TO.C,R53*
X75920190Y-46624425D02*
X75682095Y-46457758D01*
X75920190Y-46338711D02*
X75420190Y-46338711D01*
X75420190Y-46529187D01*
X75444000Y-46576806D01*
X75467809Y-46600615D01*
X75515428Y-46624425D01*
X75586857Y-46624425D01*
X75634476Y-46600615D01*
X75658285Y-46576806D01*
X75682095Y-46529187D01*
X75682095Y-46338711D01*
X75420190Y-47076806D02*
X75420190Y-46838711D01*
X75658285Y-46814901D01*
X75634476Y-46838711D01*
X75610666Y-46886330D01*
X75610666Y-47005377D01*
X75634476Y-47052996D01*
X75658285Y-47076806D01*
X75705904Y-47100615D01*
X75824952Y-47100615D01*
X75872571Y-47076806D01*
X75896380Y-47052996D01*
X75920190Y-47005377D01*
X75920190Y-46886330D01*
X75896380Y-46838711D01*
X75872571Y-46814901D01*
X75420190Y-47267282D02*
X75420190Y-47576806D01*
X75610666Y-47410139D01*
X75610666Y-47481568D01*
X75634476Y-47529187D01*
X75658285Y-47552996D01*
X75705904Y-47576806D01*
X75824952Y-47576806D01*
X75872571Y-47552996D01*
X75896380Y-47529187D01*
X75920190Y-47481568D01*
X75920190Y-47338711D01*
X75896380Y-47291092D01*
X75872571Y-47267282D01*
G04 #@! TO.C,R52*
X75331428Y-49676190D02*
X75498095Y-49438095D01*
X75617142Y-49676190D02*
X75617142Y-49176190D01*
X75426666Y-49176190D01*
X75379047Y-49200000D01*
X75355238Y-49223809D01*
X75331428Y-49271428D01*
X75331428Y-49342857D01*
X75355238Y-49390476D01*
X75379047Y-49414285D01*
X75426666Y-49438095D01*
X75617142Y-49438095D01*
X74879047Y-49176190D02*
X75117142Y-49176190D01*
X75140952Y-49414285D01*
X75117142Y-49390476D01*
X75069523Y-49366666D01*
X74950476Y-49366666D01*
X74902857Y-49390476D01*
X74879047Y-49414285D01*
X74855238Y-49461904D01*
X74855238Y-49580952D01*
X74879047Y-49628571D01*
X74902857Y-49652380D01*
X74950476Y-49676190D01*
X75069523Y-49676190D01*
X75117142Y-49652380D01*
X75140952Y-49628571D01*
X74664761Y-49223809D02*
X74640952Y-49200000D01*
X74593333Y-49176190D01*
X74474285Y-49176190D01*
X74426666Y-49200000D01*
X74402857Y-49223809D01*
X74379047Y-49271428D01*
X74379047Y-49319047D01*
X74402857Y-49390476D01*
X74688571Y-49676190D01*
X74379047Y-49676190D01*
G04 #@! TO.C,R12*
X28819190Y-29451071D02*
X28581095Y-29284404D01*
X28819190Y-29165357D02*
X28319190Y-29165357D01*
X28319190Y-29355833D01*
X28343000Y-29403452D01*
X28366809Y-29427261D01*
X28414428Y-29451071D01*
X28485857Y-29451071D01*
X28533476Y-29427261D01*
X28557285Y-29403452D01*
X28581095Y-29355833D01*
X28581095Y-29165357D01*
X28819190Y-29927261D02*
X28819190Y-29641547D01*
X28819190Y-29784404D02*
X28319190Y-29784404D01*
X28390619Y-29736785D01*
X28438238Y-29689166D01*
X28462047Y-29641547D01*
X28366809Y-30117738D02*
X28343000Y-30141547D01*
X28319190Y-30189166D01*
X28319190Y-30308214D01*
X28343000Y-30355833D01*
X28366809Y-30379642D01*
X28414428Y-30403452D01*
X28462047Y-30403452D01*
X28533476Y-30379642D01*
X28819190Y-30093928D01*
X28819190Y-30403452D01*
G04 #@! TO.C,R2*
X45539610Y-43093770D02*
X45301515Y-42927104D01*
X45539610Y-42808056D02*
X45039610Y-42808056D01*
X45039610Y-42998532D01*
X45063420Y-43046151D01*
X45087229Y-43069961D01*
X45134848Y-43093770D01*
X45206277Y-43093770D01*
X45253896Y-43069961D01*
X45277705Y-43046151D01*
X45301515Y-42998532D01*
X45301515Y-42808056D01*
X45087229Y-43284246D02*
X45063420Y-43308056D01*
X45039610Y-43355675D01*
X45039610Y-43474723D01*
X45063420Y-43522342D01*
X45087229Y-43546151D01*
X45134848Y-43569961D01*
X45182467Y-43569961D01*
X45253896Y-43546151D01*
X45539610Y-43260437D01*
X45539610Y-43569961D01*
G04 #@! TO.C,R41*
X34149190Y-27541071D02*
X33911095Y-27374404D01*
X34149190Y-27255357D02*
X33649190Y-27255357D01*
X33649190Y-27445833D01*
X33673000Y-27493452D01*
X33696809Y-27517261D01*
X33744428Y-27541071D01*
X33815857Y-27541071D01*
X33863476Y-27517261D01*
X33887285Y-27493452D01*
X33911095Y-27445833D01*
X33911095Y-27255357D01*
X33815857Y-27969642D02*
X34149190Y-27969642D01*
X33625380Y-27850595D02*
X33982523Y-27731547D01*
X33982523Y-28041071D01*
X34149190Y-28493452D02*
X34149190Y-28207738D01*
X34149190Y-28350595D02*
X33649190Y-28350595D01*
X33720619Y-28302976D01*
X33768238Y-28255357D01*
X33792047Y-28207738D01*
D10*
G04 #@! TO.C,D6*
X27668094Y-38799380D02*
X27668094Y-37799380D01*
X27429999Y-37799380D01*
X27287141Y-37847000D01*
X27191903Y-37942238D01*
X27144284Y-38037476D01*
X27096665Y-38227952D01*
X27096665Y-38370809D01*
X27144284Y-38561285D01*
X27191903Y-38656523D01*
X27287141Y-38751761D01*
X27429999Y-38799380D01*
X27668094Y-38799380D01*
X26239522Y-37799380D02*
X26429999Y-37799380D01*
X26525237Y-37847000D01*
X26572856Y-37894619D01*
X26668094Y-38037476D01*
X26715713Y-38227952D01*
X26715713Y-38608904D01*
X26668094Y-38704142D01*
X26620475Y-38751761D01*
X26525237Y-38799380D01*
X26334760Y-38799380D01*
X26239522Y-38751761D01*
X26191903Y-38704142D01*
X26144284Y-38608904D01*
X26144284Y-38370809D01*
X26191903Y-38275571D01*
X26239522Y-38227952D01*
X26334760Y-38180333D01*
X26525237Y-38180333D01*
X26620475Y-38227952D01*
X26668094Y-38275571D01*
X26715713Y-38370809D01*
G04 #@! TO.C,F2*
X24586333Y-38311071D02*
X24919666Y-38311071D01*
X24919666Y-38834880D02*
X24919666Y-37834880D01*
X24443476Y-37834880D01*
X24110142Y-37930119D02*
X24062523Y-37882500D01*
X23967285Y-37834880D01*
X23729190Y-37834880D01*
X23633952Y-37882500D01*
X23586333Y-37930119D01*
X23538714Y-38025357D01*
X23538714Y-38120595D01*
X23586333Y-38263452D01*
X24157761Y-38834880D01*
X23538714Y-38834880D01*
G04 #@! TO.C,J4*
X21952380Y-28316666D02*
X22666666Y-28316666D01*
X22809523Y-28269047D01*
X22904761Y-28173809D01*
X22952380Y-28030952D01*
X22952380Y-27935714D01*
X22285714Y-29221428D02*
X22952380Y-29221428D01*
X21904761Y-28983333D02*
X22619047Y-28745238D01*
X22619047Y-29364285D01*
D14*
G04 #@! TO.C,C53*
X41314428Y-31911071D02*
X41338238Y-31934880D01*
X41409666Y-31958690D01*
X41457285Y-31958690D01*
X41528714Y-31934880D01*
X41576333Y-31887261D01*
X41600142Y-31839642D01*
X41623952Y-31744404D01*
X41623952Y-31672976D01*
X41600142Y-31577738D01*
X41576333Y-31530119D01*
X41528714Y-31482500D01*
X41457285Y-31458690D01*
X41409666Y-31458690D01*
X41338238Y-31482500D01*
X41314428Y-31506309D01*
X40862047Y-31458690D02*
X41100142Y-31458690D01*
X41123952Y-31696785D01*
X41100142Y-31672976D01*
X41052523Y-31649166D01*
X40933476Y-31649166D01*
X40885857Y-31672976D01*
X40862047Y-31696785D01*
X40838238Y-31744404D01*
X40838238Y-31863452D01*
X40862047Y-31911071D01*
X40885857Y-31934880D01*
X40933476Y-31958690D01*
X41052523Y-31958690D01*
X41100142Y-31934880D01*
X41123952Y-31911071D01*
X40671571Y-31458690D02*
X40362047Y-31458690D01*
X40528714Y-31649166D01*
X40457285Y-31649166D01*
X40409666Y-31672976D01*
X40385857Y-31696785D01*
X40362047Y-31744404D01*
X40362047Y-31863452D01*
X40385857Y-31911071D01*
X40409666Y-31934880D01*
X40457285Y-31958690D01*
X40600142Y-31958690D01*
X40647761Y-31934880D01*
X40671571Y-31911071D01*
G04 #@! TO.C,C54*
X38734428Y-28301071D02*
X38758238Y-28324880D01*
X38829666Y-28348690D01*
X38877285Y-28348690D01*
X38948714Y-28324880D01*
X38996333Y-28277261D01*
X39020142Y-28229642D01*
X39043952Y-28134404D01*
X39043952Y-28062976D01*
X39020142Y-27967738D01*
X38996333Y-27920119D01*
X38948714Y-27872500D01*
X38877285Y-27848690D01*
X38829666Y-27848690D01*
X38758238Y-27872500D01*
X38734428Y-27896309D01*
X38282047Y-27848690D02*
X38520142Y-27848690D01*
X38543952Y-28086785D01*
X38520142Y-28062976D01*
X38472523Y-28039166D01*
X38353476Y-28039166D01*
X38305857Y-28062976D01*
X38282047Y-28086785D01*
X38258238Y-28134404D01*
X38258238Y-28253452D01*
X38282047Y-28301071D01*
X38305857Y-28324880D01*
X38353476Y-28348690D01*
X38472523Y-28348690D01*
X38520142Y-28324880D01*
X38543952Y-28301071D01*
X37829666Y-28015357D02*
X37829666Y-28348690D01*
X37948714Y-27824880D02*
X38067761Y-28182023D01*
X37758238Y-28182023D01*
G04 #@! TO.C,C55*
X38883928Y-40965571D02*
X38907738Y-40989380D01*
X38979166Y-41013190D01*
X39026785Y-41013190D01*
X39098214Y-40989380D01*
X39145833Y-40941761D01*
X39169642Y-40894142D01*
X39193452Y-40798904D01*
X39193452Y-40727476D01*
X39169642Y-40632238D01*
X39145833Y-40584619D01*
X39098214Y-40537000D01*
X39026785Y-40513190D01*
X38979166Y-40513190D01*
X38907738Y-40537000D01*
X38883928Y-40560809D01*
X38431547Y-40513190D02*
X38669642Y-40513190D01*
X38693452Y-40751285D01*
X38669642Y-40727476D01*
X38622023Y-40703666D01*
X38502976Y-40703666D01*
X38455357Y-40727476D01*
X38431547Y-40751285D01*
X38407738Y-40798904D01*
X38407738Y-40917952D01*
X38431547Y-40965571D01*
X38455357Y-40989380D01*
X38502976Y-41013190D01*
X38622023Y-41013190D01*
X38669642Y-40989380D01*
X38693452Y-40965571D01*
X37955357Y-40513190D02*
X38193452Y-40513190D01*
X38217261Y-40751285D01*
X38193452Y-40727476D01*
X38145833Y-40703666D01*
X38026785Y-40703666D01*
X37979166Y-40727476D01*
X37955357Y-40751285D01*
X37931547Y-40798904D01*
X37931547Y-40917952D01*
X37955357Y-40965571D01*
X37979166Y-40989380D01*
X38026785Y-41013190D01*
X38145833Y-41013190D01*
X38193452Y-40989380D01*
X38217261Y-40965571D01*
G04 #@! TO.C,C56*
X41364428Y-35521071D02*
X41388238Y-35544880D01*
X41459666Y-35568690D01*
X41507285Y-35568690D01*
X41578714Y-35544880D01*
X41626333Y-35497261D01*
X41650142Y-35449642D01*
X41673952Y-35354404D01*
X41673952Y-35282976D01*
X41650142Y-35187738D01*
X41626333Y-35140119D01*
X41578714Y-35092500D01*
X41507285Y-35068690D01*
X41459666Y-35068690D01*
X41388238Y-35092500D01*
X41364428Y-35116309D01*
X40912047Y-35068690D02*
X41150142Y-35068690D01*
X41173952Y-35306785D01*
X41150142Y-35282976D01*
X41102523Y-35259166D01*
X40983476Y-35259166D01*
X40935857Y-35282976D01*
X40912047Y-35306785D01*
X40888238Y-35354404D01*
X40888238Y-35473452D01*
X40912047Y-35521071D01*
X40935857Y-35544880D01*
X40983476Y-35568690D01*
X41102523Y-35568690D01*
X41150142Y-35544880D01*
X41173952Y-35521071D01*
X40459666Y-35068690D02*
X40554904Y-35068690D01*
X40602523Y-35092500D01*
X40626333Y-35116309D01*
X40673952Y-35187738D01*
X40697761Y-35282976D01*
X40697761Y-35473452D01*
X40673952Y-35521071D01*
X40650142Y-35544880D01*
X40602523Y-35568690D01*
X40507285Y-35568690D01*
X40459666Y-35544880D01*
X40435857Y-35521071D01*
X40412047Y-35473452D01*
X40412047Y-35354404D01*
X40435857Y-35306785D01*
X40459666Y-35282976D01*
X40507285Y-35259166D01*
X40602523Y-35259166D01*
X40650142Y-35282976D01*
X40673952Y-35306785D01*
X40697761Y-35354404D01*
G04 #@! TO.C,C57*
X36674428Y-44931071D02*
X36698238Y-44954880D01*
X36769666Y-44978690D01*
X36817285Y-44978690D01*
X36888714Y-44954880D01*
X36936333Y-44907261D01*
X36960142Y-44859642D01*
X36983952Y-44764404D01*
X36983952Y-44692976D01*
X36960142Y-44597738D01*
X36936333Y-44550119D01*
X36888714Y-44502500D01*
X36817285Y-44478690D01*
X36769666Y-44478690D01*
X36698238Y-44502500D01*
X36674428Y-44526309D01*
X36222047Y-44478690D02*
X36460142Y-44478690D01*
X36483952Y-44716785D01*
X36460142Y-44692976D01*
X36412523Y-44669166D01*
X36293476Y-44669166D01*
X36245857Y-44692976D01*
X36222047Y-44716785D01*
X36198238Y-44764404D01*
X36198238Y-44883452D01*
X36222047Y-44931071D01*
X36245857Y-44954880D01*
X36293476Y-44978690D01*
X36412523Y-44978690D01*
X36460142Y-44954880D01*
X36483952Y-44931071D01*
X36031571Y-44478690D02*
X35698238Y-44478690D01*
X35912523Y-44978690D01*
G04 #@! TO.C,C58*
X37244428Y-41651071D02*
X37268238Y-41674880D01*
X37339666Y-41698690D01*
X37387285Y-41698690D01*
X37458714Y-41674880D01*
X37506333Y-41627261D01*
X37530142Y-41579642D01*
X37553952Y-41484404D01*
X37553952Y-41412976D01*
X37530142Y-41317738D01*
X37506333Y-41270119D01*
X37458714Y-41222500D01*
X37387285Y-41198690D01*
X37339666Y-41198690D01*
X37268238Y-41222500D01*
X37244428Y-41246309D01*
X36792047Y-41198690D02*
X37030142Y-41198690D01*
X37053952Y-41436785D01*
X37030142Y-41412976D01*
X36982523Y-41389166D01*
X36863476Y-41389166D01*
X36815857Y-41412976D01*
X36792047Y-41436785D01*
X36768238Y-41484404D01*
X36768238Y-41603452D01*
X36792047Y-41651071D01*
X36815857Y-41674880D01*
X36863476Y-41698690D01*
X36982523Y-41698690D01*
X37030142Y-41674880D01*
X37053952Y-41651071D01*
X36482523Y-41412976D02*
X36530142Y-41389166D01*
X36553952Y-41365357D01*
X36577761Y-41317738D01*
X36577761Y-41293928D01*
X36553952Y-41246309D01*
X36530142Y-41222500D01*
X36482523Y-41198690D01*
X36387285Y-41198690D01*
X36339666Y-41222500D01*
X36315857Y-41246309D01*
X36292047Y-41293928D01*
X36292047Y-41317738D01*
X36315857Y-41365357D01*
X36339666Y-41389166D01*
X36387285Y-41412976D01*
X36482523Y-41412976D01*
X36530142Y-41436785D01*
X36553952Y-41460595D01*
X36577761Y-41508214D01*
X36577761Y-41603452D01*
X36553952Y-41651071D01*
X36530142Y-41674880D01*
X36482523Y-41698690D01*
X36387285Y-41698690D01*
X36339666Y-41674880D01*
X36315857Y-41651071D01*
X36292047Y-41603452D01*
X36292047Y-41508214D01*
X36315857Y-41460595D01*
X36339666Y-41436785D01*
X36387285Y-41412976D01*
G04 #@! TO.C,C63*
X41504428Y-42531071D02*
X41528238Y-42554880D01*
X41599666Y-42578690D01*
X41647285Y-42578690D01*
X41718714Y-42554880D01*
X41766333Y-42507261D01*
X41790142Y-42459642D01*
X41813952Y-42364404D01*
X41813952Y-42292976D01*
X41790142Y-42197738D01*
X41766333Y-42150119D01*
X41718714Y-42102500D01*
X41647285Y-42078690D01*
X41599666Y-42078690D01*
X41528238Y-42102500D01*
X41504428Y-42126309D01*
X41075857Y-42078690D02*
X41171095Y-42078690D01*
X41218714Y-42102500D01*
X41242523Y-42126309D01*
X41290142Y-42197738D01*
X41313952Y-42292976D01*
X41313952Y-42483452D01*
X41290142Y-42531071D01*
X41266333Y-42554880D01*
X41218714Y-42578690D01*
X41123476Y-42578690D01*
X41075857Y-42554880D01*
X41052047Y-42531071D01*
X41028238Y-42483452D01*
X41028238Y-42364404D01*
X41052047Y-42316785D01*
X41075857Y-42292976D01*
X41123476Y-42269166D01*
X41218714Y-42269166D01*
X41266333Y-42292976D01*
X41290142Y-42316785D01*
X41313952Y-42364404D01*
X40861571Y-42078690D02*
X40552047Y-42078690D01*
X40718714Y-42269166D01*
X40647285Y-42269166D01*
X40599666Y-42292976D01*
X40575857Y-42316785D01*
X40552047Y-42364404D01*
X40552047Y-42483452D01*
X40575857Y-42531071D01*
X40599666Y-42554880D01*
X40647285Y-42578690D01*
X40790142Y-42578690D01*
X40837761Y-42554880D01*
X40861571Y-42531071D01*
D10*
G04 #@! TO.C,J1*
X24218833Y-51307880D02*
X24218833Y-52022166D01*
X24266452Y-52165023D01*
X24361690Y-52260261D01*
X24504547Y-52307880D01*
X24599785Y-52307880D01*
X23218833Y-52307880D02*
X23790261Y-52307880D01*
X23504547Y-52307880D02*
X23504547Y-51307880D01*
X23599785Y-51450738D01*
X23695023Y-51545976D01*
X23790261Y-51593595D01*
D14*
G04 #@! TO.C,C71*
X35444428Y-41171071D02*
X35468238Y-41194880D01*
X35539666Y-41218690D01*
X35587285Y-41218690D01*
X35658714Y-41194880D01*
X35706333Y-41147261D01*
X35730142Y-41099642D01*
X35753952Y-41004404D01*
X35753952Y-40932976D01*
X35730142Y-40837738D01*
X35706333Y-40790119D01*
X35658714Y-40742500D01*
X35587285Y-40718690D01*
X35539666Y-40718690D01*
X35468238Y-40742500D01*
X35444428Y-40766309D01*
X35277761Y-40718690D02*
X34944428Y-40718690D01*
X35158714Y-41218690D01*
X34492047Y-41218690D02*
X34777761Y-41218690D01*
X34634904Y-41218690D02*
X34634904Y-40718690D01*
X34682523Y-40790119D01*
X34730142Y-40837738D01*
X34777761Y-40861547D01*
G04 #@! TO.C,C52*
X35991571Y-46736071D02*
X36015380Y-46712261D01*
X36039190Y-46640833D01*
X36039190Y-46593214D01*
X36015380Y-46521785D01*
X35967761Y-46474166D01*
X35920142Y-46450357D01*
X35824904Y-46426547D01*
X35753476Y-46426547D01*
X35658238Y-46450357D01*
X35610619Y-46474166D01*
X35563000Y-46521785D01*
X35539190Y-46593214D01*
X35539190Y-46640833D01*
X35563000Y-46712261D01*
X35586809Y-46736071D01*
X35539190Y-47188452D02*
X35539190Y-46950357D01*
X35777285Y-46926547D01*
X35753476Y-46950357D01*
X35729666Y-46997976D01*
X35729666Y-47117023D01*
X35753476Y-47164642D01*
X35777285Y-47188452D01*
X35824904Y-47212261D01*
X35943952Y-47212261D01*
X35991571Y-47188452D01*
X36015380Y-47164642D01*
X36039190Y-47117023D01*
X36039190Y-46997976D01*
X36015380Y-46950357D01*
X35991571Y-46926547D01*
X35586809Y-47402738D02*
X35563000Y-47426547D01*
X35539190Y-47474166D01*
X35539190Y-47593214D01*
X35563000Y-47640833D01*
X35586809Y-47664642D01*
X35634428Y-47688452D01*
X35682047Y-47688452D01*
X35753476Y-47664642D01*
X36039190Y-47378928D01*
X36039190Y-47688452D01*
G04 #@! TO.C,C109*
X53341463Y-44923338D02*
X53365272Y-44899528D01*
X53389082Y-44828100D01*
X53389082Y-44780481D01*
X53365272Y-44709052D01*
X53317653Y-44661433D01*
X53270034Y-44637623D01*
X53174796Y-44613814D01*
X53103368Y-44613814D01*
X53008130Y-44637623D01*
X52960511Y-44661433D01*
X52912892Y-44709052D01*
X52889082Y-44780481D01*
X52889082Y-44828100D01*
X52912892Y-44899528D01*
X52936701Y-44923338D01*
X53389082Y-45399528D02*
X53389082Y-45113814D01*
X53389082Y-45256671D02*
X52889082Y-45256671D01*
X52960511Y-45209052D01*
X53008130Y-45161433D01*
X53031939Y-45113814D01*
X52889082Y-45709052D02*
X52889082Y-45756671D01*
X52912892Y-45804290D01*
X52936701Y-45828100D01*
X52984320Y-45851909D01*
X53079558Y-45875719D01*
X53198606Y-45875719D01*
X53293844Y-45851909D01*
X53341463Y-45828100D01*
X53365272Y-45804290D01*
X53389082Y-45756671D01*
X53389082Y-45709052D01*
X53365272Y-45661433D01*
X53341463Y-45637623D01*
X53293844Y-45613814D01*
X53198606Y-45590004D01*
X53079558Y-45590004D01*
X52984320Y-45613814D01*
X52936701Y-45637623D01*
X52912892Y-45661433D01*
X52889082Y-45709052D01*
X53389082Y-46113814D02*
X53389082Y-46209052D01*
X53365272Y-46256671D01*
X53341463Y-46280481D01*
X53270034Y-46328100D01*
X53174796Y-46351909D01*
X52984320Y-46351909D01*
X52936701Y-46328100D01*
X52912892Y-46304290D01*
X52889082Y-46256671D01*
X52889082Y-46161433D01*
X52912892Y-46113814D01*
X52936701Y-46090004D01*
X52984320Y-46066195D01*
X53103368Y-46066195D01*
X53150987Y-46090004D01*
X53174796Y-46113814D01*
X53198606Y-46161433D01*
X53198606Y-46256671D01*
X53174796Y-46304290D01*
X53150987Y-46328100D01*
X53103368Y-46351909D01*
G04 #@! TO.C,C111*
X57591571Y-43472976D02*
X57615380Y-43449166D01*
X57639190Y-43377738D01*
X57639190Y-43330119D01*
X57615380Y-43258690D01*
X57567761Y-43211071D01*
X57520142Y-43187261D01*
X57424904Y-43163452D01*
X57353476Y-43163452D01*
X57258238Y-43187261D01*
X57210619Y-43211071D01*
X57163000Y-43258690D01*
X57139190Y-43330119D01*
X57139190Y-43377738D01*
X57163000Y-43449166D01*
X57186809Y-43472976D01*
X57639190Y-43949166D02*
X57639190Y-43663452D01*
X57639190Y-43806309D02*
X57139190Y-43806309D01*
X57210619Y-43758690D01*
X57258238Y-43711071D01*
X57282047Y-43663452D01*
X57639190Y-44425357D02*
X57639190Y-44139642D01*
X57639190Y-44282500D02*
X57139190Y-44282500D01*
X57210619Y-44234880D01*
X57258238Y-44187261D01*
X57282047Y-44139642D01*
X57639190Y-44901547D02*
X57639190Y-44615833D01*
X57639190Y-44758690D02*
X57139190Y-44758690D01*
X57210619Y-44711071D01*
X57258238Y-44663452D01*
X57282047Y-44615833D01*
D10*
G04 #@! TO.C,L1*
X31914666Y-40176167D02*
X32248000Y-40176167D01*
X32248000Y-39476167D01*
X31314666Y-40176167D02*
X31714666Y-40176167D01*
X31514666Y-40176167D02*
X31514666Y-39476167D01*
X31581333Y-39576167D01*
X31648000Y-39642834D01*
X31714666Y-39676167D01*
G04 #@! TO.C,L2*
X38469666Y-34649166D02*
X38803000Y-34649166D01*
X38803000Y-33949166D01*
X38269666Y-34015833D02*
X38236333Y-33982500D01*
X38169666Y-33949166D01*
X38003000Y-33949166D01*
X37936333Y-33982500D01*
X37903000Y-34015833D01*
X37869666Y-34082500D01*
X37869666Y-34149166D01*
X37903000Y-34249166D01*
X38303000Y-34649166D01*
X37869666Y-34649166D01*
G04 #@! TO.C,L3*
X37209666Y-30169166D02*
X37543000Y-30169166D01*
X37543000Y-29469166D01*
X37043000Y-29469166D02*
X36609666Y-29469166D01*
X36843000Y-29735833D01*
X36743000Y-29735833D01*
X36676333Y-29769166D01*
X36643000Y-29802500D01*
X36609666Y-29869166D01*
X36609666Y-30035833D01*
X36643000Y-30102500D01*
X36676333Y-30135833D01*
X36743000Y-30169166D01*
X36943000Y-30169166D01*
X37009666Y-30135833D01*
X37043000Y-30102500D01*
D14*
G04 #@! TO.C,R42*
X54489082Y-44961433D02*
X54250987Y-44794766D01*
X54489082Y-44675719D02*
X53989082Y-44675719D01*
X53989082Y-44866195D01*
X54012892Y-44913814D01*
X54036701Y-44937623D01*
X54084320Y-44961433D01*
X54155749Y-44961433D01*
X54203368Y-44937623D01*
X54227177Y-44913814D01*
X54250987Y-44866195D01*
X54250987Y-44675719D01*
X54155749Y-45390004D02*
X54489082Y-45390004D01*
X53965272Y-45270957D02*
X54322415Y-45151909D01*
X54322415Y-45461433D01*
X54036701Y-45628100D02*
X54012892Y-45651909D01*
X53989082Y-45699528D01*
X53989082Y-45818576D01*
X54012892Y-45866195D01*
X54036701Y-45890004D01*
X54084320Y-45913814D01*
X54131939Y-45913814D01*
X54203368Y-45890004D01*
X54489082Y-45604290D01*
X54489082Y-45913814D01*
G04 #@! TO.C,R51*
X55589082Y-44961433D02*
X55350987Y-44794766D01*
X55589082Y-44675719D02*
X55089082Y-44675719D01*
X55089082Y-44866195D01*
X55112892Y-44913814D01*
X55136701Y-44937623D01*
X55184320Y-44961433D01*
X55255749Y-44961433D01*
X55303368Y-44937623D01*
X55327177Y-44913814D01*
X55350987Y-44866195D01*
X55350987Y-44675719D01*
X55089082Y-45413814D02*
X55089082Y-45175719D01*
X55327177Y-45151909D01*
X55303368Y-45175719D01*
X55279558Y-45223338D01*
X55279558Y-45342385D01*
X55303368Y-45390004D01*
X55327177Y-45413814D01*
X55374796Y-45437623D01*
X55493844Y-45437623D01*
X55541463Y-45413814D01*
X55565272Y-45390004D01*
X55589082Y-45342385D01*
X55589082Y-45223338D01*
X55565272Y-45175719D01*
X55541463Y-45151909D01*
X55589082Y-45913814D02*
X55589082Y-45628100D01*
X55589082Y-45770957D02*
X55089082Y-45770957D01*
X55160511Y-45723338D01*
X55208130Y-45675719D01*
X55231939Y-45628100D01*
G04 #@! TO.C,C110*
X52241463Y-44923338D02*
X52265272Y-44899528D01*
X52289082Y-44828100D01*
X52289082Y-44780481D01*
X52265272Y-44709052D01*
X52217653Y-44661433D01*
X52170034Y-44637623D01*
X52074796Y-44613814D01*
X52003368Y-44613814D01*
X51908130Y-44637623D01*
X51860511Y-44661433D01*
X51812892Y-44709052D01*
X51789082Y-44780481D01*
X51789082Y-44828100D01*
X51812892Y-44899528D01*
X51836701Y-44923338D01*
X52289082Y-45399528D02*
X52289082Y-45113814D01*
X52289082Y-45256671D02*
X51789082Y-45256671D01*
X51860511Y-45209052D01*
X51908130Y-45161433D01*
X51931939Y-45113814D01*
X52289082Y-45875719D02*
X52289082Y-45590004D01*
X52289082Y-45732862D02*
X51789082Y-45732862D01*
X51860511Y-45685242D01*
X51908130Y-45637623D01*
X51931939Y-45590004D01*
X51789082Y-46185242D02*
X51789082Y-46232862D01*
X51812892Y-46280481D01*
X51836701Y-46304290D01*
X51884320Y-46328100D01*
X51979558Y-46351909D01*
X52098606Y-46351909D01*
X52193844Y-46328100D01*
X52241463Y-46304290D01*
X52265272Y-46280481D01*
X52289082Y-46232862D01*
X52289082Y-46185242D01*
X52265272Y-46137623D01*
X52241463Y-46113814D01*
X52193844Y-46090004D01*
X52098606Y-46066195D01*
X51979558Y-46066195D01*
X51884320Y-46090004D01*
X51836701Y-46113814D01*
X51812892Y-46137623D01*
X51789082Y-46185242D01*
G04 #@! TO.C,C101*
X75984523Y-48591071D02*
X76008333Y-48614880D01*
X76079761Y-48638690D01*
X76127380Y-48638690D01*
X76198809Y-48614880D01*
X76246428Y-48567261D01*
X76270238Y-48519642D01*
X76294047Y-48424404D01*
X76294047Y-48352976D01*
X76270238Y-48257738D01*
X76246428Y-48210119D01*
X76198809Y-48162500D01*
X76127380Y-48138690D01*
X76079761Y-48138690D01*
X76008333Y-48162500D01*
X75984523Y-48186309D01*
X75508333Y-48638690D02*
X75794047Y-48638690D01*
X75651190Y-48638690D02*
X75651190Y-48138690D01*
X75698809Y-48210119D01*
X75746428Y-48257738D01*
X75794047Y-48281547D01*
X75198809Y-48138690D02*
X75151190Y-48138690D01*
X75103571Y-48162500D01*
X75079761Y-48186309D01*
X75055952Y-48233928D01*
X75032142Y-48329166D01*
X75032142Y-48448214D01*
X75055952Y-48543452D01*
X75079761Y-48591071D01*
X75103571Y-48614880D01*
X75151190Y-48638690D01*
X75198809Y-48638690D01*
X75246428Y-48614880D01*
X75270238Y-48591071D01*
X75294047Y-48543452D01*
X75317857Y-48448214D01*
X75317857Y-48329166D01*
X75294047Y-48233928D01*
X75270238Y-48186309D01*
X75246428Y-48162500D01*
X75198809Y-48138690D01*
X74555952Y-48638690D02*
X74841666Y-48638690D01*
X74698809Y-48638690D02*
X74698809Y-48138690D01*
X74746428Y-48210119D01*
X74794047Y-48257738D01*
X74841666Y-48281547D01*
G04 #@! TO.C,C64*
X36460857Y-39829642D02*
X36475142Y-39843928D01*
X36518000Y-39858214D01*
X36546571Y-39858214D01*
X36589428Y-39843928D01*
X36618000Y-39815357D01*
X36632285Y-39786785D01*
X36646571Y-39729642D01*
X36646571Y-39686785D01*
X36632285Y-39629642D01*
X36618000Y-39601071D01*
X36589428Y-39572500D01*
X36546571Y-39558214D01*
X36518000Y-39558214D01*
X36475142Y-39572500D01*
X36460857Y-39586785D01*
X36203714Y-39558214D02*
X36260857Y-39558214D01*
X36289428Y-39572500D01*
X36303714Y-39586785D01*
X36332285Y-39629642D01*
X36346571Y-39686785D01*
X36346571Y-39801071D01*
X36332285Y-39829642D01*
X36318000Y-39843928D01*
X36289428Y-39858214D01*
X36232285Y-39858214D01*
X36203714Y-39843928D01*
X36189428Y-39829642D01*
X36175142Y-39801071D01*
X36175142Y-39729642D01*
X36189428Y-39701071D01*
X36203714Y-39686785D01*
X36232285Y-39672500D01*
X36289428Y-39672500D01*
X36318000Y-39686785D01*
X36332285Y-39701071D01*
X36346571Y-39729642D01*
X35918000Y-39658214D02*
X35918000Y-39858214D01*
X35989428Y-39543928D02*
X36060857Y-39758214D01*
X35875142Y-39758214D01*
G04 #@! TO.C,C60*
X36345857Y-38034642D02*
X36360142Y-38048928D01*
X36403000Y-38063214D01*
X36431571Y-38063214D01*
X36474428Y-38048928D01*
X36503000Y-38020357D01*
X36517285Y-37991785D01*
X36531571Y-37934642D01*
X36531571Y-37891785D01*
X36517285Y-37834642D01*
X36503000Y-37806071D01*
X36474428Y-37777500D01*
X36431571Y-37763214D01*
X36403000Y-37763214D01*
X36360142Y-37777500D01*
X36345857Y-37791785D01*
X36088714Y-37763214D02*
X36145857Y-37763214D01*
X36174428Y-37777500D01*
X36188714Y-37791785D01*
X36217285Y-37834642D01*
X36231571Y-37891785D01*
X36231571Y-38006071D01*
X36217285Y-38034642D01*
X36203000Y-38048928D01*
X36174428Y-38063214D01*
X36117285Y-38063214D01*
X36088714Y-38048928D01*
X36074428Y-38034642D01*
X36060142Y-38006071D01*
X36060142Y-37934642D01*
X36074428Y-37906071D01*
X36088714Y-37891785D01*
X36117285Y-37877500D01*
X36174428Y-37877500D01*
X36203000Y-37891785D01*
X36217285Y-37906071D01*
X36231571Y-37934642D01*
X35874428Y-37763214D02*
X35845857Y-37763214D01*
X35817285Y-37777500D01*
X35803000Y-37791785D01*
X35788714Y-37820357D01*
X35774428Y-37877500D01*
X35774428Y-37948928D01*
X35788714Y-38006071D01*
X35803000Y-38034642D01*
X35817285Y-38048928D01*
X35845857Y-38063214D01*
X35874428Y-38063214D01*
X35903000Y-38048928D01*
X35917285Y-38034642D01*
X35931571Y-38006071D01*
X35945857Y-37948928D01*
X35945857Y-37877500D01*
X35931571Y-37820357D01*
X35917285Y-37791785D01*
X35903000Y-37777500D01*
X35874428Y-37763214D01*
G04 #@! TO.C,R6*
X48276333Y-31288690D02*
X48443000Y-31050595D01*
X48562047Y-31288690D02*
X48562047Y-30788690D01*
X48371571Y-30788690D01*
X48323952Y-30812500D01*
X48300142Y-30836309D01*
X48276333Y-30883928D01*
X48276333Y-30955357D01*
X48300142Y-31002976D01*
X48323952Y-31026785D01*
X48371571Y-31050595D01*
X48562047Y-31050595D01*
X47847761Y-30788690D02*
X47943000Y-30788690D01*
X47990619Y-30812500D01*
X48014428Y-30836309D01*
X48062047Y-30907738D01*
X48085857Y-31002976D01*
X48085857Y-31193452D01*
X48062047Y-31241071D01*
X48038238Y-31264880D01*
X47990619Y-31288690D01*
X47895380Y-31288690D01*
X47847761Y-31264880D01*
X47823952Y-31241071D01*
X47800142Y-31193452D01*
X47800142Y-31074404D01*
X47823952Y-31026785D01*
X47847761Y-31002976D01*
X47895380Y-30979166D01*
X47990619Y-30979166D01*
X48038238Y-31002976D01*
X48062047Y-31026785D01*
X48085857Y-31074404D01*
G04 #@! TO.C,R55*
X77567236Y-42702779D02*
X77329141Y-42536112D01*
X77567236Y-42417065D02*
X77067236Y-42417065D01*
X77067236Y-42607541D01*
X77091046Y-42655160D01*
X77114855Y-42678969D01*
X77162474Y-42702779D01*
X77233903Y-42702779D01*
X77281522Y-42678969D01*
X77305331Y-42655160D01*
X77329141Y-42607541D01*
X77329141Y-42417065D01*
X77067236Y-43155160D02*
X77067236Y-42917065D01*
X77305331Y-42893255D01*
X77281522Y-42917065D01*
X77257712Y-42964684D01*
X77257712Y-43083731D01*
X77281522Y-43131350D01*
X77305331Y-43155160D01*
X77352950Y-43178969D01*
X77471998Y-43178969D01*
X77519617Y-43155160D01*
X77543426Y-43131350D01*
X77567236Y-43083731D01*
X77567236Y-42964684D01*
X77543426Y-42917065D01*
X77519617Y-42893255D01*
X77067236Y-43631350D02*
X77067236Y-43393255D01*
X77305331Y-43369446D01*
X77281522Y-43393255D01*
X77257712Y-43440874D01*
X77257712Y-43559922D01*
X77281522Y-43607541D01*
X77305331Y-43631350D01*
X77352950Y-43655160D01*
X77471998Y-43655160D01*
X77519617Y-43631350D01*
X77543426Y-43607541D01*
X77567236Y-43559922D01*
X77567236Y-43440874D01*
X77543426Y-43393255D01*
X77519617Y-43369446D01*
G04 #@! TO.C,SB1*
X64643952Y-36284880D02*
X64572523Y-36308690D01*
X64453476Y-36308690D01*
X64405857Y-36284880D01*
X64382047Y-36261071D01*
X64358238Y-36213452D01*
X64358238Y-36165833D01*
X64382047Y-36118214D01*
X64405857Y-36094404D01*
X64453476Y-36070595D01*
X64548714Y-36046785D01*
X64596333Y-36022976D01*
X64620142Y-35999166D01*
X64643952Y-35951547D01*
X64643952Y-35903928D01*
X64620142Y-35856309D01*
X64596333Y-35832500D01*
X64548714Y-35808690D01*
X64429666Y-35808690D01*
X64358238Y-35832500D01*
X63977285Y-36046785D02*
X63905857Y-36070595D01*
X63882047Y-36094404D01*
X63858238Y-36142023D01*
X63858238Y-36213452D01*
X63882047Y-36261071D01*
X63905857Y-36284880D01*
X63953476Y-36308690D01*
X64143952Y-36308690D01*
X64143952Y-35808690D01*
X63977285Y-35808690D01*
X63929666Y-35832500D01*
X63905857Y-35856309D01*
X63882047Y-35903928D01*
X63882047Y-35951547D01*
X63905857Y-35999166D01*
X63929666Y-36022976D01*
X63977285Y-36046785D01*
X64143952Y-36046785D01*
X63382047Y-36308690D02*
X63667761Y-36308690D01*
X63524904Y-36308690D02*
X63524904Y-35808690D01*
X63572523Y-35880119D01*
X63620142Y-35927738D01*
X63667761Y-35951547D01*
G04 #@! TO.C,SB2*
X64643952Y-37234880D02*
X64572523Y-37258690D01*
X64453476Y-37258690D01*
X64405857Y-37234880D01*
X64382047Y-37211071D01*
X64358238Y-37163452D01*
X64358238Y-37115833D01*
X64382047Y-37068214D01*
X64405857Y-37044404D01*
X64453476Y-37020595D01*
X64548714Y-36996785D01*
X64596333Y-36972976D01*
X64620142Y-36949166D01*
X64643952Y-36901547D01*
X64643952Y-36853928D01*
X64620142Y-36806309D01*
X64596333Y-36782500D01*
X64548714Y-36758690D01*
X64429666Y-36758690D01*
X64358238Y-36782500D01*
X63977285Y-36996785D02*
X63905857Y-37020595D01*
X63882047Y-37044404D01*
X63858238Y-37092023D01*
X63858238Y-37163452D01*
X63882047Y-37211071D01*
X63905857Y-37234880D01*
X63953476Y-37258690D01*
X64143952Y-37258690D01*
X64143952Y-36758690D01*
X63977285Y-36758690D01*
X63929666Y-36782500D01*
X63905857Y-36806309D01*
X63882047Y-36853928D01*
X63882047Y-36901547D01*
X63905857Y-36949166D01*
X63929666Y-36972976D01*
X63977285Y-36996785D01*
X64143952Y-36996785D01*
X63667761Y-36806309D02*
X63643952Y-36782500D01*
X63596333Y-36758690D01*
X63477285Y-36758690D01*
X63429666Y-36782500D01*
X63405857Y-36806309D01*
X63382047Y-36853928D01*
X63382047Y-36901547D01*
X63405857Y-36972976D01*
X63691571Y-37258690D01*
X63382047Y-37258690D01*
G04 #@! TO.C,SB3*
X64543952Y-39234880D02*
X64472523Y-39258690D01*
X64353476Y-39258690D01*
X64305857Y-39234880D01*
X64282047Y-39211071D01*
X64258238Y-39163452D01*
X64258238Y-39115833D01*
X64282047Y-39068214D01*
X64305857Y-39044404D01*
X64353476Y-39020595D01*
X64448714Y-38996785D01*
X64496333Y-38972976D01*
X64520142Y-38949166D01*
X64543952Y-38901547D01*
X64543952Y-38853928D01*
X64520142Y-38806309D01*
X64496333Y-38782500D01*
X64448714Y-38758690D01*
X64329666Y-38758690D01*
X64258238Y-38782500D01*
X63877285Y-38996785D02*
X63805857Y-39020595D01*
X63782047Y-39044404D01*
X63758238Y-39092023D01*
X63758238Y-39163452D01*
X63782047Y-39211071D01*
X63805857Y-39234880D01*
X63853476Y-39258690D01*
X64043952Y-39258690D01*
X64043952Y-38758690D01*
X63877285Y-38758690D01*
X63829666Y-38782500D01*
X63805857Y-38806309D01*
X63782047Y-38853928D01*
X63782047Y-38901547D01*
X63805857Y-38949166D01*
X63829666Y-38972976D01*
X63877285Y-38996785D01*
X64043952Y-38996785D01*
X63591571Y-38758690D02*
X63282047Y-38758690D01*
X63448714Y-38949166D01*
X63377285Y-38949166D01*
X63329666Y-38972976D01*
X63305857Y-38996785D01*
X63282047Y-39044404D01*
X63282047Y-39163452D01*
X63305857Y-39211071D01*
X63329666Y-39234880D01*
X63377285Y-39258690D01*
X63520142Y-39258690D01*
X63567761Y-39234880D01*
X63591571Y-39211071D01*
G04 #@! TO.C,SB4*
X64593952Y-38284880D02*
X64522523Y-38308690D01*
X64403476Y-38308690D01*
X64355857Y-38284880D01*
X64332047Y-38261071D01*
X64308238Y-38213452D01*
X64308238Y-38165833D01*
X64332047Y-38118214D01*
X64355857Y-38094404D01*
X64403476Y-38070595D01*
X64498714Y-38046785D01*
X64546333Y-38022976D01*
X64570142Y-37999166D01*
X64593952Y-37951547D01*
X64593952Y-37903928D01*
X64570142Y-37856309D01*
X64546333Y-37832500D01*
X64498714Y-37808690D01*
X64379666Y-37808690D01*
X64308238Y-37832500D01*
X63927285Y-38046785D02*
X63855857Y-38070595D01*
X63832047Y-38094404D01*
X63808238Y-38142023D01*
X63808238Y-38213452D01*
X63832047Y-38261071D01*
X63855857Y-38284880D01*
X63903476Y-38308690D01*
X64093952Y-38308690D01*
X64093952Y-37808690D01*
X63927285Y-37808690D01*
X63879666Y-37832500D01*
X63855857Y-37856309D01*
X63832047Y-37903928D01*
X63832047Y-37951547D01*
X63855857Y-37999166D01*
X63879666Y-38022976D01*
X63927285Y-38046785D01*
X64093952Y-38046785D01*
X63379666Y-37975357D02*
X63379666Y-38308690D01*
X63498714Y-37784880D02*
X63617761Y-38142023D01*
X63308238Y-38142023D01*
D10*
G04 #@! TO.C,U4*
X92365238Y-28872380D02*
X92365238Y-29681904D01*
X92317619Y-29777142D01*
X92270000Y-29824761D01*
X92174762Y-29872380D01*
X91984286Y-29872380D01*
X91889048Y-29824761D01*
X91841429Y-29777142D01*
X91793810Y-29681904D01*
X91793810Y-28872380D01*
X90889048Y-29205714D02*
X90889048Y-29872380D01*
X91127143Y-28824761D02*
X91365238Y-29539047D01*
X90746191Y-29539047D01*
D15*
G04 #@! TO.C,L4*
X39583333Y-58606190D02*
X39821428Y-58606190D01*
X39821428Y-58106190D01*
X39202380Y-58272857D02*
X39202380Y-58606190D01*
X39321428Y-58082380D02*
X39440476Y-58439523D01*
X39130952Y-58439523D01*
D10*
G04 #@! TO.C,L5*
X85983332Y-29832380D02*
X86459523Y-29832380D01*
X86459523Y-28832380D01*
X85173808Y-28832380D02*
X85649999Y-28832380D01*
X85697618Y-29308571D01*
X85649999Y-29260952D01*
X85554761Y-29213333D01*
X85316666Y-29213333D01*
X85221427Y-29260952D01*
X85173808Y-29308571D01*
X85126189Y-29403809D01*
X85126189Y-29641904D01*
X85173808Y-29737142D01*
X85221427Y-29784761D01*
X85316666Y-29832380D01*
X85554761Y-29832380D01*
X85649999Y-29784761D01*
X85697618Y-29737142D01*
G04 #@! TO.C,R31*
X81052380Y-42984206D02*
X80576190Y-42650873D01*
X81052380Y-42412778D02*
X80052380Y-42412778D01*
X80052380Y-42793730D01*
X80100000Y-42888968D01*
X80147619Y-42936587D01*
X80242857Y-42984206D01*
X80385714Y-42984206D01*
X80480952Y-42936587D01*
X80528571Y-42888968D01*
X80576190Y-42793730D01*
X80576190Y-42412778D01*
X80052380Y-43317540D02*
X80052380Y-43936587D01*
X80433333Y-43603254D01*
X80433333Y-43746111D01*
X80480952Y-43841349D01*
X80528571Y-43888968D01*
X80623809Y-43936587D01*
X80861904Y-43936587D01*
X80957142Y-43888968D01*
X81004761Y-43841349D01*
X81052380Y-43746111D01*
X81052380Y-43460397D01*
X81004761Y-43365159D01*
X80957142Y-43317540D01*
X81052380Y-44888968D02*
X81052380Y-44317540D01*
X81052380Y-44603254D02*
X80052380Y-44603254D01*
X80195238Y-44508016D01*
X80290476Y-44412778D01*
X80338095Y-44317540D01*
D14*
G04 #@! TO.C,R28*
X39568690Y-72525571D02*
X39330595Y-72358904D01*
X39568690Y-72239857D02*
X39068690Y-72239857D01*
X39068690Y-72430333D01*
X39092500Y-72477952D01*
X39116309Y-72501761D01*
X39163928Y-72525571D01*
X39235357Y-72525571D01*
X39282976Y-72501761D01*
X39306785Y-72477952D01*
X39330595Y-72430333D01*
X39330595Y-72239857D01*
X39116309Y-72716047D02*
X39092500Y-72739857D01*
X39068690Y-72787476D01*
X39068690Y-72906523D01*
X39092500Y-72954142D01*
X39116309Y-72977952D01*
X39163928Y-73001761D01*
X39211547Y-73001761D01*
X39282976Y-72977952D01*
X39568690Y-72692238D01*
X39568690Y-73001761D01*
X39282976Y-73287476D02*
X39259166Y-73239857D01*
X39235357Y-73216047D01*
X39187738Y-73192238D01*
X39163928Y-73192238D01*
X39116309Y-73216047D01*
X39092500Y-73239857D01*
X39068690Y-73287476D01*
X39068690Y-73382714D01*
X39092500Y-73430333D01*
X39116309Y-73454142D01*
X39163928Y-73477952D01*
X39187738Y-73477952D01*
X39235357Y-73454142D01*
X39259166Y-73430333D01*
X39282976Y-73382714D01*
X39282976Y-73287476D01*
X39306785Y-73239857D01*
X39330595Y-73216047D01*
X39378214Y-73192238D01*
X39473452Y-73192238D01*
X39521071Y-73216047D01*
X39544880Y-73239857D01*
X39568690Y-73287476D01*
X39568690Y-73382714D01*
X39544880Y-73430333D01*
X39521071Y-73454142D01*
X39473452Y-73477952D01*
X39378214Y-73477952D01*
X39330595Y-73454142D01*
X39306785Y-73430333D01*
X39282976Y-73382714D01*
G04 #@! TO.C,R29*
X30784428Y-57233690D02*
X30951095Y-56995595D01*
X31070142Y-57233690D02*
X31070142Y-56733690D01*
X30879666Y-56733690D01*
X30832047Y-56757500D01*
X30808238Y-56781309D01*
X30784428Y-56828928D01*
X30784428Y-56900357D01*
X30808238Y-56947976D01*
X30832047Y-56971785D01*
X30879666Y-56995595D01*
X31070142Y-56995595D01*
X30593952Y-56781309D02*
X30570142Y-56757500D01*
X30522523Y-56733690D01*
X30403476Y-56733690D01*
X30355857Y-56757500D01*
X30332047Y-56781309D01*
X30308238Y-56828928D01*
X30308238Y-56876547D01*
X30332047Y-56947976D01*
X30617761Y-57233690D01*
X30308238Y-57233690D01*
X30070142Y-57233690D02*
X29974904Y-57233690D01*
X29927285Y-57209880D01*
X29903476Y-57186071D01*
X29855857Y-57114642D01*
X29832047Y-57019404D01*
X29832047Y-56828928D01*
X29855857Y-56781309D01*
X29879666Y-56757500D01*
X29927285Y-56733690D01*
X30022523Y-56733690D01*
X30070142Y-56757500D01*
X30093952Y-56781309D01*
X30117761Y-56828928D01*
X30117761Y-56947976D01*
X30093952Y-56995595D01*
X30070142Y-57019404D01*
X30022523Y-57043214D01*
X29927285Y-57043214D01*
X29879666Y-57019404D01*
X29855857Y-56995595D01*
X29832047Y-56947976D01*
G04 #@! TO.C,C74*
X42007928Y-60222071D02*
X42031738Y-60245880D01*
X42103166Y-60269690D01*
X42150785Y-60269690D01*
X42222214Y-60245880D01*
X42269833Y-60198261D01*
X42293642Y-60150642D01*
X42317452Y-60055404D01*
X42317452Y-59983976D01*
X42293642Y-59888738D01*
X42269833Y-59841119D01*
X42222214Y-59793500D01*
X42150785Y-59769690D01*
X42103166Y-59769690D01*
X42031738Y-59793500D01*
X42007928Y-59817309D01*
X41841261Y-59769690D02*
X41507928Y-59769690D01*
X41722214Y-60269690D01*
X41103166Y-59936357D02*
X41103166Y-60269690D01*
X41222214Y-59745880D02*
X41341261Y-60103023D01*
X41031738Y-60103023D01*
G04 #@! TO.C,R27*
X31321428Y-27976190D02*
X31488095Y-27738095D01*
X31607142Y-27976190D02*
X31607142Y-27476190D01*
X31416666Y-27476190D01*
X31369047Y-27500000D01*
X31345238Y-27523809D01*
X31321428Y-27571428D01*
X31321428Y-27642857D01*
X31345238Y-27690476D01*
X31369047Y-27714285D01*
X31416666Y-27738095D01*
X31607142Y-27738095D01*
X31130952Y-27523809D02*
X31107142Y-27500000D01*
X31059523Y-27476190D01*
X30940476Y-27476190D01*
X30892857Y-27500000D01*
X30869047Y-27523809D01*
X30845238Y-27571428D01*
X30845238Y-27619047D01*
X30869047Y-27690476D01*
X31154761Y-27976190D01*
X30845238Y-27976190D01*
X30678571Y-27476190D02*
X30345238Y-27476190D01*
X30559523Y-27976190D01*
D10*
G04 #@! TO.C,U3*
X89152904Y-38771880D02*
X89152904Y-39581404D01*
X89105285Y-39676642D01*
X89057666Y-39724261D01*
X88962428Y-39771880D01*
X88771952Y-39771880D01*
X88676714Y-39724261D01*
X88629095Y-39676642D01*
X88581476Y-39581404D01*
X88581476Y-38771880D01*
X88200523Y-38771880D02*
X87581476Y-38771880D01*
X87914809Y-39152833D01*
X87771952Y-39152833D01*
X87676714Y-39200452D01*
X87629095Y-39248071D01*
X87581476Y-39343309D01*
X87581476Y-39581404D01*
X87629095Y-39676642D01*
X87676714Y-39724261D01*
X87771952Y-39771880D01*
X88057666Y-39771880D01*
X88152904Y-39724261D01*
X88200523Y-39676642D01*
D14*
G04 #@! TO.C,C73*
X83639071Y-43951071D02*
X83662880Y-43927261D01*
X83686690Y-43855833D01*
X83686690Y-43808214D01*
X83662880Y-43736785D01*
X83615261Y-43689166D01*
X83567642Y-43665357D01*
X83472404Y-43641547D01*
X83400976Y-43641547D01*
X83305738Y-43665357D01*
X83258119Y-43689166D01*
X83210500Y-43736785D01*
X83186690Y-43808214D01*
X83186690Y-43855833D01*
X83210500Y-43927261D01*
X83234309Y-43951071D01*
X83186690Y-44117738D02*
X83186690Y-44451071D01*
X83686690Y-44236785D01*
X83186690Y-44593928D02*
X83186690Y-44903452D01*
X83377166Y-44736785D01*
X83377166Y-44808214D01*
X83400976Y-44855833D01*
X83424785Y-44879642D01*
X83472404Y-44903452D01*
X83591452Y-44903452D01*
X83639071Y-44879642D01*
X83662880Y-44855833D01*
X83686690Y-44808214D01*
X83686690Y-44665357D01*
X83662880Y-44617738D01*
X83639071Y-44593928D01*
G04 #@! TO.C,R30*
X41918428Y-65763690D02*
X42085095Y-65525595D01*
X42204142Y-65763690D02*
X42204142Y-65263690D01*
X42013666Y-65263690D01*
X41966047Y-65287500D01*
X41942238Y-65311309D01*
X41918428Y-65358928D01*
X41918428Y-65430357D01*
X41942238Y-65477976D01*
X41966047Y-65501785D01*
X42013666Y-65525595D01*
X42204142Y-65525595D01*
X41751761Y-65263690D02*
X41442238Y-65263690D01*
X41608904Y-65454166D01*
X41537476Y-65454166D01*
X41489857Y-65477976D01*
X41466047Y-65501785D01*
X41442238Y-65549404D01*
X41442238Y-65668452D01*
X41466047Y-65716071D01*
X41489857Y-65739880D01*
X41537476Y-65763690D01*
X41680333Y-65763690D01*
X41727952Y-65739880D01*
X41751761Y-65716071D01*
X41132714Y-65263690D02*
X41085095Y-65263690D01*
X41037476Y-65287500D01*
X41013666Y-65311309D01*
X40989857Y-65358928D01*
X40966047Y-65454166D01*
X40966047Y-65573214D01*
X40989857Y-65668452D01*
X41013666Y-65716071D01*
X41037476Y-65739880D01*
X41085095Y-65763690D01*
X41132714Y-65763690D01*
X41180333Y-65739880D01*
X41204142Y-65716071D01*
X41227952Y-65668452D01*
X41251761Y-65573214D01*
X41251761Y-65454166D01*
X41227952Y-65358928D01*
X41204142Y-65311309D01*
X41180333Y-65287500D01*
X41132714Y-65263690D01*
D10*
G04 #@! TO.C,C76*
X79907142Y-36523808D02*
X79954761Y-36476189D01*
X80002380Y-36333332D01*
X80002380Y-36238094D01*
X79954761Y-36095237D01*
X79859523Y-35999999D01*
X79764285Y-35952380D01*
X79573809Y-35904761D01*
X79430952Y-35904761D01*
X79240476Y-35952380D01*
X79145238Y-35999999D01*
X79050000Y-36095237D01*
X79002380Y-36238094D01*
X79002380Y-36333332D01*
X79050000Y-36476189D01*
X79097619Y-36523808D01*
X79002380Y-36857142D02*
X79002380Y-37523808D01*
X80002380Y-37095237D01*
X79002380Y-38333332D02*
X79002380Y-38142856D01*
X79050000Y-38047618D01*
X79097619Y-37999999D01*
X79240476Y-37904761D01*
X79430952Y-37857142D01*
X79811904Y-37857142D01*
X79907142Y-37904761D01*
X79954761Y-37952380D01*
X80002380Y-38047618D01*
X80002380Y-38238094D01*
X79954761Y-38333332D01*
X79907142Y-38380951D01*
X79811904Y-38428570D01*
X79573809Y-38428570D01*
X79478571Y-38380951D01*
X79430952Y-38333332D01*
X79383333Y-38238094D01*
X79383333Y-38047618D01*
X79430952Y-37952380D01*
X79478571Y-37904761D01*
X79573809Y-37857142D01*
G04 #@! TO.C,C75*
X83097142Y-36483808D02*
X83144761Y-36436189D01*
X83192380Y-36293332D01*
X83192380Y-36198094D01*
X83144761Y-36055237D01*
X83049523Y-35959999D01*
X82954285Y-35912380D01*
X82763809Y-35864761D01*
X82620952Y-35864761D01*
X82430476Y-35912380D01*
X82335238Y-35959999D01*
X82240000Y-36055237D01*
X82192380Y-36198094D01*
X82192380Y-36293332D01*
X82240000Y-36436189D01*
X82287619Y-36483808D01*
X82192380Y-36817142D02*
X82192380Y-37483808D01*
X83192380Y-37055237D01*
X82192380Y-38340951D02*
X82192380Y-37864761D01*
X82668571Y-37817142D01*
X82620952Y-37864761D01*
X82573333Y-37959999D01*
X82573333Y-38198094D01*
X82620952Y-38293332D01*
X82668571Y-38340951D01*
X82763809Y-38388570D01*
X83001904Y-38388570D01*
X83097142Y-38340951D01*
X83144761Y-38293332D01*
X83192380Y-38198094D01*
X83192380Y-37959999D01*
X83144761Y-37864761D01*
X83097142Y-37817142D01*
D14*
G04 #@! TO.C,R26*
X31321428Y-26726190D02*
X31488095Y-26488095D01*
X31607142Y-26726190D02*
X31607142Y-26226190D01*
X31416666Y-26226190D01*
X31369047Y-26250000D01*
X31345238Y-26273809D01*
X31321428Y-26321428D01*
X31321428Y-26392857D01*
X31345238Y-26440476D01*
X31369047Y-26464285D01*
X31416666Y-26488095D01*
X31607142Y-26488095D01*
X31130952Y-26273809D02*
X31107142Y-26250000D01*
X31059523Y-26226190D01*
X30940476Y-26226190D01*
X30892857Y-26250000D01*
X30869047Y-26273809D01*
X30845238Y-26321428D01*
X30845238Y-26369047D01*
X30869047Y-26440476D01*
X31154761Y-26726190D01*
X30845238Y-26726190D01*
X30416666Y-26226190D02*
X30511904Y-26226190D01*
X30559523Y-26250000D01*
X30583333Y-26273809D01*
X30630952Y-26345238D01*
X30654761Y-26440476D01*
X30654761Y-26630952D01*
X30630952Y-26678571D01*
X30607142Y-26702380D01*
X30559523Y-26726190D01*
X30464285Y-26726190D01*
X30416666Y-26702380D01*
X30392857Y-26678571D01*
X30369047Y-26630952D01*
X30369047Y-26511904D01*
X30392857Y-26464285D01*
X30416666Y-26440476D01*
X30464285Y-26416666D01*
X30559523Y-26416666D01*
X30607142Y-26440476D01*
X30630952Y-26464285D01*
X30654761Y-26511904D01*
D16*
G04 #@! TO.C,D1*
X86866666Y-35930000D02*
X89416666Y-35930000D01*
X86866666Y-37630000D02*
X89416666Y-37630000D01*
X86866666Y-37630000D02*
X86866666Y-35930000D01*
G04 #@! TO.C,D2*
X75200000Y-31053334D02*
X75200000Y-28503334D01*
X76900000Y-31053334D02*
X76900000Y-28503334D01*
X76900000Y-31053334D02*
X75200000Y-31053334D01*
D10*
G04 #@! TO.C,U1*
X58463000Y-60382500D02*
X58163000Y-60382500D01*
X58163000Y-60382500D02*
X57663000Y-59882500D01*
X72063000Y-60382500D02*
X72063000Y-45982500D01*
X58463000Y-60382500D02*
X72063000Y-60382500D01*
X57663000Y-45982500D02*
X72063000Y-45982500D01*
X57663000Y-59582500D02*
X57663000Y-45982500D01*
X57663000Y-59882500D02*
X57663000Y-59582500D01*
G04 #@! TO.C,U2*
X59988000Y-31732500D02*
X59988000Y-41232500D01*
X44988000Y-41932500D02*
X44988000Y-31732500D01*
X59288000Y-41932500D02*
X44988000Y-41932500D01*
X44988000Y-31732500D02*
X59988000Y-31732500D01*
X59988000Y-41232500D02*
X59288000Y-41932500D01*
D16*
G04 #@! TO.C,XTAL2*
X72848000Y-45877500D02*
X72848000Y-46077500D01*
X75633000Y-42407500D02*
X73033000Y-42407500D01*
X72848000Y-46077500D02*
X75633000Y-46077500D01*
G04 #@! TO.C,U6*
X36505500Y-36554500D02*
X36505500Y-36979500D01*
X36505500Y-36979500D02*
X36080500Y-36979500D01*
X36505500Y-32184500D02*
X36505500Y-31759500D01*
X31285500Y-36979500D02*
X31710500Y-36979500D01*
X31285500Y-32184500D02*
X31285500Y-31759500D01*
X31285500Y-36554500D02*
X31285500Y-36979500D01*
X36505500Y-31759500D02*
X36080500Y-31759500D01*
G04 #@! TO.C,Y1*
X69588000Y-36907500D02*
X69588000Y-38257500D01*
X67838000Y-36907500D02*
X67838000Y-38257500D01*
G04 #@! TO.C,D6*
X26003000Y-36482500D02*
X26003000Y-33797500D01*
X26003000Y-33797500D02*
X27923000Y-33797500D01*
X27923000Y-33797500D02*
X27923000Y-36482500D01*
G04 #@! TO.C,F2*
X23163000Y-34912500D02*
X25848000Y-34912500D01*
X25848000Y-34912500D02*
X25848000Y-36832500D01*
X25848000Y-36832500D02*
X23163000Y-36832500D01*
G04 #@! TO.C,J4*
X24340000Y-23950000D02*
X22340000Y-23950000D01*
X24340000Y-33350000D02*
X22340000Y-33350000D01*
X18540000Y-33350000D02*
X18540000Y-23950000D01*
X20440000Y-23950000D02*
X18540000Y-23950000D01*
X20440000Y-33350000D02*
X18540000Y-33350000D01*
G04 #@! TO.C,C53*
X39553000Y-33019721D02*
X39553000Y-33345279D01*
X40573000Y-33019721D02*
X40573000Y-33345279D01*
G04 #@! TO.C,C54*
X38873000Y-29695279D02*
X38873000Y-29369721D01*
X37853000Y-29695279D02*
X37853000Y-29369721D01*
G04 #@! TO.C,C55*
X39073000Y-39169721D02*
X39073000Y-39495279D01*
X38053000Y-39169721D02*
X38053000Y-39495279D01*
G04 #@! TO.C,C56*
X39553000Y-36945279D02*
X39553000Y-36619721D01*
X40573000Y-36945279D02*
X40573000Y-36619721D01*
G04 #@! TO.C,C57*
X36300221Y-43322500D02*
X36625779Y-43322500D01*
X36300221Y-44342500D02*
X36625779Y-44342500D01*
G04 #@! TO.C,C58*
X35900221Y-42842500D02*
X36225779Y-42842500D01*
X35900221Y-41822500D02*
X36225779Y-41822500D01*
G04 #@! TO.C,C63*
X39375779Y-42842500D02*
X39050221Y-42842500D01*
X39375779Y-41822500D02*
X39050221Y-41822500D01*
D17*
G04 #@! TO.C,J1*
X22505000Y-44000000D02*
X22505000Y-52800000D01*
X30605000Y-42000000D02*
X28505000Y-42000000D01*
X32605000Y-50600000D02*
X32605000Y-47000000D01*
X32605000Y-44500000D02*
X32605000Y-42000000D01*
X32605000Y-42000000D02*
X32205000Y-42000000D01*
X21405000Y-44000000D02*
X22505000Y-44000000D01*
X23205000Y-54000000D02*
X32605000Y-54000000D01*
X26805000Y-42000000D02*
X22705000Y-42000000D01*
X32605000Y-54000000D02*
X32605000Y-53000000D01*
X21405000Y-43400000D02*
X21405000Y-44000000D01*
D16*
G04 #@! TO.C,L1*
X32803000Y-40041078D02*
X32803000Y-39523922D01*
X34223000Y-40041078D02*
X34223000Y-39523922D01*
G04 #@! TO.C,L2*
X37653000Y-36541078D02*
X37653000Y-36023922D01*
X39073000Y-36541078D02*
X39073000Y-36023922D01*
G04 #@! TO.C,L3*
X37653000Y-32173922D02*
X37653000Y-32691078D01*
X39073000Y-32173922D02*
X39073000Y-32691078D01*
G04 #@! TO.C,U4*
X88586666Y-35340000D02*
X85136666Y-35340000D01*
X88586666Y-30220000D02*
X86636666Y-30220000D01*
X88586666Y-35340000D02*
X90536666Y-35340000D01*
X88586666Y-30220000D02*
X90536666Y-30220000D01*
G04 #@! TO.C,L5*
X84040000Y-28806666D02*
X83590000Y-28806666D01*
X84040000Y-35006666D02*
X83590000Y-35006666D01*
X84040000Y-35006666D02*
X84040000Y-28806666D01*
X77840000Y-28806666D02*
X78290000Y-28806666D01*
X77840000Y-28806666D02*
X77840000Y-35006666D01*
X77840000Y-35006666D02*
X78290000Y-35006666D01*
G04 #@! TO.C,R31*
X82735000Y-42827064D02*
X82735000Y-42372936D01*
X81265000Y-42827064D02*
X81265000Y-42372936D01*
G04 #@! TO.C,J2*
X88241000Y-53058000D02*
X88876000Y-53058000D01*
X88876000Y-53058000D02*
X88876000Y-52423000D01*
G04 #@! TO.C,J8*
X87450000Y-72380000D02*
X87450000Y-71390000D01*
X87570000Y-75500000D02*
X94450000Y-75500000D01*
X95620000Y-72380000D02*
X94570000Y-72380000D01*
X95620000Y-73530000D02*
X95620000Y-72380000D01*
X86400000Y-73530000D02*
X86400000Y-72380000D01*
X86400000Y-72380000D02*
X87450000Y-72380000D01*
G04 #@! TO.C,J3*
X87836000Y-62348000D02*
X87836000Y-61713000D01*
X87201000Y-62348000D02*
X87836000Y-62348000D01*
G04 #@! TO.C,J7*
X94580000Y-67720000D02*
X94580000Y-66570000D01*
X94580000Y-66570000D02*
X93530000Y-66570000D01*
X89530000Y-69690000D02*
X93410000Y-69690000D01*
X88360000Y-66570000D02*
X89410000Y-66570000D01*
X88360000Y-67720000D02*
X88360000Y-66570000D01*
X89410000Y-66570000D02*
X89410000Y-65580000D01*
G04 #@! TO.C,U3*
X88609000Y-40020500D02*
X90559000Y-40020500D01*
X88609000Y-40020500D02*
X86659000Y-40020500D01*
X88609000Y-45140500D02*
X85159000Y-45140500D01*
X88609000Y-45140500D02*
X90559000Y-45140500D01*
G04 #@! TO.C,J9*
X80720000Y-67680000D02*
X80720000Y-66530000D01*
X81770000Y-66530000D02*
X81770000Y-65540000D01*
X80720000Y-66530000D02*
X81770000Y-66530000D01*
X81890000Y-69650000D02*
X85770000Y-69650000D01*
X86940000Y-66530000D02*
X85890000Y-66530000D01*
X86940000Y-67680000D02*
X86940000Y-66530000D01*
G04 #@! TO.C,C76*
X81785000Y-36835414D02*
X81785000Y-37357918D01*
X80315000Y-36835414D02*
X80315000Y-37357918D01*
G04 #@! TO.C,C75*
X83465000Y-36835414D02*
X83465000Y-37357918D01*
X84935000Y-36835414D02*
X84935000Y-37357918D01*
G04 #@! TO.C,J5*
X92545662Y-54150000D02*
X92545662Y-54650000D01*
X92978675Y-54400000D02*
X92545662Y-54150000D01*
X93440000Y-33375000D02*
X93440000Y-64345000D01*
X93440000Y-64345000D02*
X103920000Y-64345000D01*
X103920000Y-33375000D02*
X93440000Y-33375000D01*
X92545662Y-54650000D02*
X92978675Y-54400000D01*
D18*
G04 #@! TO.C,MOD1*
X28488512Y-59362500D02*
X28988512Y-59362500D01*
X27898512Y-71352500D02*
X27898512Y-70252500D01*
X27898512Y-71352500D02*
X29008512Y-71352500D01*
X39898512Y-59362500D02*
X39898512Y-60472500D01*
X27898512Y-60462500D02*
X27898512Y-59972500D01*
X38818512Y-71362500D02*
X39308512Y-71362500D01*
X39898512Y-59362500D02*
X38788512Y-59362500D01*
X39898512Y-70362500D02*
X39898512Y-70782500D01*
X27511000Y-71862500D02*
G75*
G03*
X27511000Y-71862500I-262488J0D01*
G01*
D16*
G04 #@! TO.C,J6*
X95640000Y-67640000D02*
X95640000Y-66490000D01*
X96810000Y-69610000D02*
X101690000Y-69610000D01*
X102860000Y-67640000D02*
X102860000Y-66490000D01*
X95640000Y-66490000D02*
X96690000Y-66490000D01*
X96690000Y-66490000D02*
X96690000Y-65500000D01*
X102860000Y-66490000D02*
X101810000Y-66490000D01*
G04 #@! TD*
M02*
