G04 #@! TF.GenerationSoftware,KiCad,Pcbnew,(6.0.2)*
G04 #@! TF.CreationDate,2022-04-20T12:25:18-06:00*
G04 #@! TF.ProjectId,nano,6e616e6f-2e6b-4696-9361-645f70636258,rev?*
G04 #@! TF.SameCoordinates,Original*
G04 #@! TF.FileFunction,Legend,Top*
G04 #@! TF.FilePolarity,Positive*
%FSLAX46Y46*%
G04 Gerber Fmt 4.6, Leading zero omitted, Abs format (unit mm)*
G04 Created by KiCad (PCBNEW (6.0.2)) date 2022-04-20 12:25:18*
%MOMM*%
%LPD*%
G01*
G04 APERTURE LIST*
%ADD10C,0.150000*%
%ADD11C,0.100000*%
%ADD12C,0.070000*%
%ADD13C,0.075000*%
%ADD14C,0.050000*%
%ADD15C,0.125000*%
%ADD16C,0.300000*%
%ADD17C,0.120000*%
%ADD18C,0.127000*%
%ADD19C,0.203200*%
%ADD20C,0.200000*%
G04 APERTURE END LIST*
D10*
X96168726Y-47680954D02*
G75*
G03*
X96240000Y-50019999I51274J-1169046D01*
G01*
X100260000Y-44680000D02*
X102340000Y-44680000D01*
X94990000Y-48850000D02*
X93210000Y-48840000D01*
X100240000Y-53020000D02*
X102320000Y-53020000D01*
X99081274Y-45849046D02*
G75*
G03*
X99010000Y-43510001I-51273J1169046D01*
G01*
X99061274Y-54189046D02*
G75*
G03*
X98990000Y-51850001I-51273J1169046D01*
G01*
X96158726Y-50430954D02*
G75*
G03*
X96230000Y-52769999I51274J-1169046D01*
G01*
X85040000Y-72380000D02*
X85040000Y-72050000D01*
X94980000Y-51600000D02*
X93200000Y-51590000D01*
D11*
X93609047Y-48190000D02*
X93561428Y-48166190D01*
X93490000Y-48166190D01*
X93418571Y-48190000D01*
X93370952Y-48237619D01*
X93347142Y-48285238D01*
X93323333Y-48380476D01*
X93323333Y-48451904D01*
X93347142Y-48547142D01*
X93370952Y-48594761D01*
X93418571Y-48642380D01*
X93490000Y-48666190D01*
X93537619Y-48666190D01*
X93609047Y-48642380D01*
X93632857Y-48618571D01*
X93632857Y-48451904D01*
X93537619Y-48451904D01*
X93847142Y-48666190D02*
X93847142Y-48166190D01*
X94132857Y-48666190D01*
X94132857Y-48166190D01*
X94370952Y-48666190D02*
X94370952Y-48166190D01*
X94490000Y-48166190D01*
X94561428Y-48190000D01*
X94609047Y-48237619D01*
X94632857Y-48285238D01*
X94656666Y-48380476D01*
X94656666Y-48451904D01*
X94632857Y-48547142D01*
X94609047Y-48594761D01*
X94561428Y-48642380D01*
X94490000Y-48666190D01*
X94370952Y-48666190D01*
X84444761Y-72586190D02*
X84754285Y-72586190D01*
X84587619Y-72776666D01*
X84659047Y-72776666D01*
X84706666Y-72800476D01*
X84730476Y-72824285D01*
X84754285Y-72871904D01*
X84754285Y-72990952D01*
X84730476Y-73038571D01*
X84706666Y-73062380D01*
X84659047Y-73086190D01*
X84516190Y-73086190D01*
X84468571Y-73062380D01*
X84444761Y-73038571D01*
X84920952Y-72752857D02*
X85040000Y-73086190D01*
X85159047Y-72752857D01*
X85301904Y-72586190D02*
X85611428Y-72586190D01*
X85444761Y-72776666D01*
X85516190Y-72776666D01*
X85563809Y-72800476D01*
X85587619Y-72824285D01*
X85611428Y-72871904D01*
X85611428Y-72990952D01*
X85587619Y-73038571D01*
X85563809Y-73062380D01*
X85516190Y-73086190D01*
X85373333Y-73086190D01*
X85325714Y-73062380D01*
X85301904Y-73038571D01*
X100846666Y-52748571D02*
X100822857Y-52772380D01*
X100751428Y-52796190D01*
X100703809Y-52796190D01*
X100632380Y-52772380D01*
X100584761Y-52724761D01*
X100560952Y-52677142D01*
X100537142Y-52581904D01*
X100537142Y-52510476D01*
X100560952Y-52415238D01*
X100584761Y-52367619D01*
X100632380Y-52320000D01*
X100703809Y-52296190D01*
X100751428Y-52296190D01*
X100822857Y-52320000D01*
X100846666Y-52343809D01*
X101037142Y-52653333D02*
X101275238Y-52653333D01*
X100989523Y-52796190D02*
X101156190Y-52296190D01*
X101322857Y-52796190D01*
X101489523Y-52796190D02*
X101489523Y-52296190D01*
X101775238Y-52796190D01*
X101775238Y-52296190D01*
X102013333Y-52796190D02*
X102013333Y-52296190D01*
X102013333Y-52534285D02*
X102299047Y-52534285D01*
X102299047Y-52796190D02*
X102299047Y-52296190D01*
X82119047Y-72520000D02*
X82071428Y-72496190D01*
X82000000Y-72496190D01*
X81928571Y-72520000D01*
X81880952Y-72567619D01*
X81857142Y-72615238D01*
X81833333Y-72710476D01*
X81833333Y-72781904D01*
X81857142Y-72877142D01*
X81880952Y-72924761D01*
X81928571Y-72972380D01*
X82000000Y-72996190D01*
X82047619Y-72996190D01*
X82119047Y-72972380D01*
X82142857Y-72948571D01*
X82142857Y-72781904D01*
X82047619Y-72781904D01*
X82357142Y-72996190D02*
X82357142Y-72496190D01*
X82642857Y-72996190D01*
X82642857Y-72496190D01*
X82880952Y-72996190D02*
X82880952Y-72496190D01*
X83000000Y-72496190D01*
X83071428Y-72520000D01*
X83119047Y-72567619D01*
X83142857Y-72615238D01*
X83166666Y-72710476D01*
X83166666Y-72781904D01*
X83142857Y-72877142D01*
X83119047Y-72924761D01*
X83071428Y-72972380D01*
X83000000Y-72996190D01*
X82880952Y-72996190D01*
X32233333Y-65086190D02*
X32233333Y-65443333D01*
X32209523Y-65514761D01*
X32161904Y-65562380D01*
X32090476Y-65586190D01*
X32042857Y-65586190D01*
X32709523Y-65586190D02*
X32471428Y-65586190D01*
X32471428Y-65086190D01*
X33161904Y-65538571D02*
X33138095Y-65562380D01*
X33066666Y-65586190D01*
X33019047Y-65586190D01*
X32947619Y-65562380D01*
X32900000Y-65514761D01*
X32876190Y-65467142D01*
X32852380Y-65371904D01*
X32852380Y-65300476D01*
X32876190Y-65205238D01*
X32900000Y-65157619D01*
X32947619Y-65110000D01*
X33019047Y-65086190D01*
X33066666Y-65086190D01*
X33138095Y-65110000D01*
X33161904Y-65133809D01*
X33519047Y-65086190D02*
X33519047Y-65443333D01*
X33495238Y-65514761D01*
X33447619Y-65562380D01*
X33376190Y-65586190D01*
X33328571Y-65586190D01*
X33995238Y-65586190D02*
X33757142Y-65586190D01*
X33757142Y-65086190D01*
X34447619Y-65538571D02*
X34423809Y-65562380D01*
X34352380Y-65586190D01*
X34304761Y-65586190D01*
X34233333Y-65562380D01*
X34185714Y-65514761D01*
X34161904Y-65467142D01*
X34138095Y-65371904D01*
X34138095Y-65300476D01*
X34161904Y-65205238D01*
X34185714Y-65157619D01*
X34233333Y-65110000D01*
X34304761Y-65086190D01*
X34352380Y-65086190D01*
X34423809Y-65110000D01*
X34447619Y-65133809D01*
X34804761Y-65086190D02*
X34804761Y-65443333D01*
X34780952Y-65514761D01*
X34733333Y-65562380D01*
X34661904Y-65586190D01*
X34614285Y-65586190D01*
X35280952Y-65586190D02*
X35042857Y-65586190D01*
X35042857Y-65086190D01*
X35733333Y-65538571D02*
X35709523Y-65562380D01*
X35638095Y-65586190D01*
X35590476Y-65586190D01*
X35519047Y-65562380D01*
X35471428Y-65514761D01*
X35447619Y-65467142D01*
X35423809Y-65371904D01*
X35423809Y-65300476D01*
X35447619Y-65205238D01*
X35471428Y-65157619D01*
X35519047Y-65110000D01*
X35590476Y-65086190D01*
X35638095Y-65086190D01*
X35709523Y-65110000D01*
X35733333Y-65133809D01*
X93426190Y-51278571D02*
X93402380Y-51302380D01*
X93330952Y-51326190D01*
X93283333Y-51326190D01*
X93211904Y-51302380D01*
X93164285Y-51254761D01*
X93140476Y-51207142D01*
X93116666Y-51111904D01*
X93116666Y-51040476D01*
X93140476Y-50945238D01*
X93164285Y-50897619D01*
X93211904Y-50850000D01*
X93283333Y-50826190D01*
X93330952Y-50826190D01*
X93402380Y-50850000D01*
X93426190Y-50873809D01*
X93616666Y-51183333D02*
X93854761Y-51183333D01*
X93569047Y-51326190D02*
X93735714Y-50826190D01*
X93902380Y-51326190D01*
X94069047Y-51326190D02*
X94069047Y-50826190D01*
X94354761Y-51326190D01*
X94354761Y-50826190D01*
X94830952Y-51326190D02*
X94592857Y-51326190D01*
X94592857Y-50826190D01*
X100783333Y-43846190D02*
X100950000Y-44346190D01*
X101116666Y-43846190D01*
X101569047Y-44298571D02*
X101545238Y-44322380D01*
X101473809Y-44346190D01*
X101426190Y-44346190D01*
X101354761Y-44322380D01*
X101307142Y-44274761D01*
X101283333Y-44227142D01*
X101259523Y-44131904D01*
X101259523Y-44060476D01*
X101283333Y-43965238D01*
X101307142Y-43917619D01*
X101354761Y-43870000D01*
X101426190Y-43846190D01*
X101473809Y-43846190D01*
X101545238Y-43870000D01*
X101569047Y-43893809D01*
X102069047Y-44298571D02*
X102045238Y-44322380D01*
X101973809Y-44346190D01*
X101926190Y-44346190D01*
X101854761Y-44322380D01*
X101807142Y-44274761D01*
X101783333Y-44227142D01*
X101759523Y-44131904D01*
X101759523Y-44060476D01*
X101783333Y-43965238D01*
X101807142Y-43917619D01*
X101854761Y-43870000D01*
X101926190Y-43846190D01*
X101973809Y-43846190D01*
X102045238Y-43870000D01*
X102069047Y-43893809D01*
D12*
G04 #@! TO.C,C29*
X65166571Y-53061071D02*
X65142761Y-53084880D01*
X65071333Y-53108690D01*
X65023714Y-53108690D01*
X64952285Y-53084880D01*
X64904666Y-53037261D01*
X64880857Y-52989642D01*
X64857047Y-52894404D01*
X64857047Y-52822976D01*
X64880857Y-52727738D01*
X64904666Y-52680119D01*
X64952285Y-52632500D01*
X65023714Y-52608690D01*
X65071333Y-52608690D01*
X65142761Y-52632500D01*
X65166571Y-52656309D01*
X65357047Y-52656309D02*
X65380857Y-52632500D01*
X65428476Y-52608690D01*
X65547523Y-52608690D01*
X65595142Y-52632500D01*
X65618952Y-52656309D01*
X65642761Y-52703928D01*
X65642761Y-52751547D01*
X65618952Y-52822976D01*
X65333238Y-53108690D01*
X65642761Y-53108690D01*
X65880857Y-53108690D02*
X65976095Y-53108690D01*
X66023714Y-53084880D01*
X66047523Y-53061071D01*
X66095142Y-52989642D01*
X66118952Y-52894404D01*
X66118952Y-52703928D01*
X66095142Y-52656309D01*
X66071333Y-52632500D01*
X66023714Y-52608690D01*
X65928476Y-52608690D01*
X65880857Y-52632500D01*
X65857047Y-52656309D01*
X65833238Y-52703928D01*
X65833238Y-52822976D01*
X65857047Y-52870595D01*
X65880857Y-52894404D01*
X65928476Y-52918214D01*
X66023714Y-52918214D01*
X66071333Y-52894404D01*
X66095142Y-52870595D01*
X66118952Y-52822976D01*
G04 #@! TO.C,C39*
X68641571Y-50578928D02*
X68665380Y-50602738D01*
X68689190Y-50674166D01*
X68689190Y-50721785D01*
X68665380Y-50793214D01*
X68617761Y-50840833D01*
X68570142Y-50864642D01*
X68474904Y-50888452D01*
X68403476Y-50888452D01*
X68308238Y-50864642D01*
X68260619Y-50840833D01*
X68213000Y-50793214D01*
X68189190Y-50721785D01*
X68189190Y-50674166D01*
X68213000Y-50602738D01*
X68236809Y-50578928D01*
X68189190Y-50412261D02*
X68189190Y-50102738D01*
X68379666Y-50269404D01*
X68379666Y-50197976D01*
X68403476Y-50150357D01*
X68427285Y-50126547D01*
X68474904Y-50102738D01*
X68593952Y-50102738D01*
X68641571Y-50126547D01*
X68665380Y-50150357D01*
X68689190Y-50197976D01*
X68689190Y-50340833D01*
X68665380Y-50388452D01*
X68641571Y-50412261D01*
X68689190Y-49864642D02*
X68689190Y-49769404D01*
X68665380Y-49721785D01*
X68641571Y-49697976D01*
X68570142Y-49650357D01*
X68474904Y-49626547D01*
X68284428Y-49626547D01*
X68236809Y-49650357D01*
X68213000Y-49674166D01*
X68189190Y-49721785D01*
X68189190Y-49817023D01*
X68213000Y-49864642D01*
X68236809Y-49888452D01*
X68284428Y-49912261D01*
X68403476Y-49912261D01*
X68451095Y-49888452D01*
X68474904Y-49864642D01*
X68498714Y-49817023D01*
X68498714Y-49721785D01*
X68474904Y-49674166D01*
X68451095Y-49650357D01*
X68403476Y-49626547D01*
G04 #@! TO.C,C7*
X61229666Y-51561071D02*
X61205857Y-51584880D01*
X61134428Y-51608690D01*
X61086809Y-51608690D01*
X61015380Y-51584880D01*
X60967761Y-51537261D01*
X60943952Y-51489642D01*
X60920142Y-51394404D01*
X60920142Y-51322976D01*
X60943952Y-51227738D01*
X60967761Y-51180119D01*
X61015380Y-51132500D01*
X61086809Y-51108690D01*
X61134428Y-51108690D01*
X61205857Y-51132500D01*
X61229666Y-51156309D01*
X61396333Y-51108690D02*
X61729666Y-51108690D01*
X61515380Y-51608690D01*
G04 #@! TO.C,C17*
X55941571Y-33728928D02*
X55965380Y-33752738D01*
X55989190Y-33824166D01*
X55989190Y-33871785D01*
X55965380Y-33943214D01*
X55917761Y-33990833D01*
X55870142Y-34014642D01*
X55774904Y-34038452D01*
X55703476Y-34038452D01*
X55608238Y-34014642D01*
X55560619Y-33990833D01*
X55513000Y-33943214D01*
X55489190Y-33871785D01*
X55489190Y-33824166D01*
X55513000Y-33752738D01*
X55536809Y-33728928D01*
X55989190Y-33252738D02*
X55989190Y-33538452D01*
X55989190Y-33395595D02*
X55489190Y-33395595D01*
X55560619Y-33443214D01*
X55608238Y-33490833D01*
X55632047Y-33538452D01*
X55489190Y-33086071D02*
X55489190Y-32752738D01*
X55989190Y-32967023D01*
G04 #@! TO.C,C8*
X47191571Y-39890833D02*
X47215380Y-39914642D01*
X47239190Y-39986071D01*
X47239190Y-40033690D01*
X47215380Y-40105119D01*
X47167761Y-40152738D01*
X47120142Y-40176547D01*
X47024904Y-40200357D01*
X46953476Y-40200357D01*
X46858238Y-40176547D01*
X46810619Y-40152738D01*
X46763000Y-40105119D01*
X46739190Y-40033690D01*
X46739190Y-39986071D01*
X46763000Y-39914642D01*
X46786809Y-39890833D01*
X46953476Y-39605119D02*
X46929666Y-39652738D01*
X46905857Y-39676547D01*
X46858238Y-39700357D01*
X46834428Y-39700357D01*
X46786809Y-39676547D01*
X46763000Y-39652738D01*
X46739190Y-39605119D01*
X46739190Y-39509880D01*
X46763000Y-39462261D01*
X46786809Y-39438452D01*
X46834428Y-39414642D01*
X46858238Y-39414642D01*
X46905857Y-39438452D01*
X46929666Y-39462261D01*
X46953476Y-39509880D01*
X46953476Y-39605119D01*
X46977285Y-39652738D01*
X47001095Y-39676547D01*
X47048714Y-39700357D01*
X47143952Y-39700357D01*
X47191571Y-39676547D01*
X47215380Y-39652738D01*
X47239190Y-39605119D01*
X47239190Y-39509880D01*
X47215380Y-39462261D01*
X47191571Y-39438452D01*
X47143952Y-39414642D01*
X47048714Y-39414642D01*
X47001095Y-39438452D01*
X46977285Y-39462261D01*
X46953476Y-39509880D01*
G04 #@! TO.C,C9*
X57916571Y-41090833D02*
X57940380Y-41114642D01*
X57964190Y-41186071D01*
X57964190Y-41233690D01*
X57940380Y-41305119D01*
X57892761Y-41352738D01*
X57845142Y-41376547D01*
X57749904Y-41400357D01*
X57678476Y-41400357D01*
X57583238Y-41376547D01*
X57535619Y-41352738D01*
X57488000Y-41305119D01*
X57464190Y-41233690D01*
X57464190Y-41186071D01*
X57488000Y-41114642D01*
X57511809Y-41090833D01*
X57964190Y-40852738D02*
X57964190Y-40757500D01*
X57940380Y-40709880D01*
X57916571Y-40686071D01*
X57845142Y-40638452D01*
X57749904Y-40614642D01*
X57559428Y-40614642D01*
X57511809Y-40638452D01*
X57488000Y-40662261D01*
X57464190Y-40709880D01*
X57464190Y-40805119D01*
X57488000Y-40852738D01*
X57511809Y-40876547D01*
X57559428Y-40900357D01*
X57678476Y-40900357D01*
X57726095Y-40876547D01*
X57749904Y-40852738D01*
X57773714Y-40805119D01*
X57773714Y-40709880D01*
X57749904Y-40662261D01*
X57726095Y-40638452D01*
X57678476Y-40614642D01*
G04 #@! TO.C,C19*
X53441571Y-41061071D02*
X53417761Y-41084880D01*
X53346333Y-41108690D01*
X53298714Y-41108690D01*
X53227285Y-41084880D01*
X53179666Y-41037261D01*
X53155857Y-40989642D01*
X53132047Y-40894404D01*
X53132047Y-40822976D01*
X53155857Y-40727738D01*
X53179666Y-40680119D01*
X53227285Y-40632500D01*
X53298714Y-40608690D01*
X53346333Y-40608690D01*
X53417761Y-40632500D01*
X53441571Y-40656309D01*
X53917761Y-41108690D02*
X53632047Y-41108690D01*
X53774904Y-41108690D02*
X53774904Y-40608690D01*
X53727285Y-40680119D01*
X53679666Y-40727738D01*
X53632047Y-40751547D01*
X54155857Y-41108690D02*
X54251095Y-41108690D01*
X54298714Y-41084880D01*
X54322523Y-41061071D01*
X54370142Y-40989642D01*
X54393952Y-40894404D01*
X54393952Y-40703928D01*
X54370142Y-40656309D01*
X54346333Y-40632500D01*
X54298714Y-40608690D01*
X54203476Y-40608690D01*
X54155857Y-40632500D01*
X54132047Y-40656309D01*
X54108238Y-40703928D01*
X54108238Y-40822976D01*
X54132047Y-40870595D01*
X54155857Y-40894404D01*
X54203476Y-40918214D01*
X54298714Y-40918214D01*
X54346333Y-40894404D01*
X54370142Y-40870595D01*
X54393952Y-40822976D01*
G04 #@! TO.C,C10*
X60291571Y-54161071D02*
X60267761Y-54184880D01*
X60196333Y-54208690D01*
X60148714Y-54208690D01*
X60077285Y-54184880D01*
X60029666Y-54137261D01*
X60005857Y-54089642D01*
X59982047Y-53994404D01*
X59982047Y-53922976D01*
X60005857Y-53827738D01*
X60029666Y-53780119D01*
X60077285Y-53732500D01*
X60148714Y-53708690D01*
X60196333Y-53708690D01*
X60267761Y-53732500D01*
X60291571Y-53756309D01*
X60767761Y-54208690D02*
X60482047Y-54208690D01*
X60624904Y-54208690D02*
X60624904Y-53708690D01*
X60577285Y-53780119D01*
X60529666Y-53827738D01*
X60482047Y-53851547D01*
X61077285Y-53708690D02*
X61124904Y-53708690D01*
X61172523Y-53732500D01*
X61196333Y-53756309D01*
X61220142Y-53803928D01*
X61243952Y-53899166D01*
X61243952Y-54018214D01*
X61220142Y-54113452D01*
X61196333Y-54161071D01*
X61172523Y-54184880D01*
X61124904Y-54208690D01*
X61077285Y-54208690D01*
X61029666Y-54184880D01*
X61005857Y-54161071D01*
X60982047Y-54113452D01*
X60958238Y-54018214D01*
X60958238Y-53899166D01*
X60982047Y-53803928D01*
X61005857Y-53756309D01*
X61029666Y-53732500D01*
X61077285Y-53708690D01*
G04 #@! TO.C,C20*
X61266571Y-43161071D02*
X61242761Y-43184880D01*
X61171333Y-43208690D01*
X61123714Y-43208690D01*
X61052285Y-43184880D01*
X61004666Y-43137261D01*
X60980857Y-43089642D01*
X60957047Y-42994404D01*
X60957047Y-42922976D01*
X60980857Y-42827738D01*
X61004666Y-42780119D01*
X61052285Y-42732500D01*
X61123714Y-42708690D01*
X61171333Y-42708690D01*
X61242761Y-42732500D01*
X61266571Y-42756309D01*
X61457047Y-42756309D02*
X61480857Y-42732500D01*
X61528476Y-42708690D01*
X61647523Y-42708690D01*
X61695142Y-42732500D01*
X61718952Y-42756309D01*
X61742761Y-42803928D01*
X61742761Y-42851547D01*
X61718952Y-42922976D01*
X61433238Y-43208690D01*
X61742761Y-43208690D01*
X62052285Y-42708690D02*
X62099904Y-42708690D01*
X62147523Y-42732500D01*
X62171333Y-42756309D01*
X62195142Y-42803928D01*
X62218952Y-42899166D01*
X62218952Y-43018214D01*
X62195142Y-43113452D01*
X62171333Y-43161071D01*
X62147523Y-43184880D01*
X62099904Y-43208690D01*
X62052285Y-43208690D01*
X62004666Y-43184880D01*
X61980857Y-43161071D01*
X61957047Y-43113452D01*
X61933238Y-43018214D01*
X61933238Y-42899166D01*
X61957047Y-42803928D01*
X61980857Y-42756309D01*
X62004666Y-42732500D01*
X62052285Y-42708690D01*
G04 #@! TO.C,C11*
X48316571Y-31861071D02*
X48292761Y-31884880D01*
X48221333Y-31908690D01*
X48173714Y-31908690D01*
X48102285Y-31884880D01*
X48054666Y-31837261D01*
X48030857Y-31789642D01*
X48007047Y-31694404D01*
X48007047Y-31622976D01*
X48030857Y-31527738D01*
X48054666Y-31480119D01*
X48102285Y-31432500D01*
X48173714Y-31408690D01*
X48221333Y-31408690D01*
X48292761Y-31432500D01*
X48316571Y-31456309D01*
X48792761Y-31908690D02*
X48507047Y-31908690D01*
X48649904Y-31908690D02*
X48649904Y-31408690D01*
X48602285Y-31480119D01*
X48554666Y-31527738D01*
X48507047Y-31551547D01*
X49268952Y-31908690D02*
X48983238Y-31908690D01*
X49126095Y-31908690D02*
X49126095Y-31408690D01*
X49078476Y-31480119D01*
X49030857Y-31527738D01*
X48983238Y-31551547D01*
G04 #@! TO.C,C21*
X52616571Y-32461071D02*
X52592761Y-32484880D01*
X52521333Y-32508690D01*
X52473714Y-32508690D01*
X52402285Y-32484880D01*
X52354666Y-32437261D01*
X52330857Y-32389642D01*
X52307047Y-32294404D01*
X52307047Y-32222976D01*
X52330857Y-32127738D01*
X52354666Y-32080119D01*
X52402285Y-32032500D01*
X52473714Y-32008690D01*
X52521333Y-32008690D01*
X52592761Y-32032500D01*
X52616571Y-32056309D01*
X52807047Y-32056309D02*
X52830857Y-32032500D01*
X52878476Y-32008690D01*
X52997523Y-32008690D01*
X53045142Y-32032500D01*
X53068952Y-32056309D01*
X53092761Y-32103928D01*
X53092761Y-32151547D01*
X53068952Y-32222976D01*
X52783238Y-32508690D01*
X53092761Y-32508690D01*
X53568952Y-32508690D02*
X53283238Y-32508690D01*
X53426095Y-32508690D02*
X53426095Y-32008690D01*
X53378476Y-32080119D01*
X53330857Y-32127738D01*
X53283238Y-32151547D01*
G04 #@! TO.C,C12*
X60641571Y-55761071D02*
X60617761Y-55784880D01*
X60546333Y-55808690D01*
X60498714Y-55808690D01*
X60427285Y-55784880D01*
X60379666Y-55737261D01*
X60355857Y-55689642D01*
X60332047Y-55594404D01*
X60332047Y-55522976D01*
X60355857Y-55427738D01*
X60379666Y-55380119D01*
X60427285Y-55332500D01*
X60498714Y-55308690D01*
X60546333Y-55308690D01*
X60617761Y-55332500D01*
X60641571Y-55356309D01*
X61117761Y-55808690D02*
X60832047Y-55808690D01*
X60974904Y-55808690D02*
X60974904Y-55308690D01*
X60927285Y-55380119D01*
X60879666Y-55427738D01*
X60832047Y-55451547D01*
X61308238Y-55356309D02*
X61332047Y-55332500D01*
X61379666Y-55308690D01*
X61498714Y-55308690D01*
X61546333Y-55332500D01*
X61570142Y-55356309D01*
X61593952Y-55403928D01*
X61593952Y-55451547D01*
X61570142Y-55522976D01*
X61284428Y-55808690D01*
X61593952Y-55808690D01*
G04 #@! TO.C,C22*
X46516571Y-31861071D02*
X46492761Y-31884880D01*
X46421333Y-31908690D01*
X46373714Y-31908690D01*
X46302285Y-31884880D01*
X46254666Y-31837261D01*
X46230857Y-31789642D01*
X46207047Y-31694404D01*
X46207047Y-31622976D01*
X46230857Y-31527738D01*
X46254666Y-31480119D01*
X46302285Y-31432500D01*
X46373714Y-31408690D01*
X46421333Y-31408690D01*
X46492761Y-31432500D01*
X46516571Y-31456309D01*
X46707047Y-31456309D02*
X46730857Y-31432500D01*
X46778476Y-31408690D01*
X46897523Y-31408690D01*
X46945142Y-31432500D01*
X46968952Y-31456309D01*
X46992761Y-31503928D01*
X46992761Y-31551547D01*
X46968952Y-31622976D01*
X46683238Y-31908690D01*
X46992761Y-31908690D01*
X47183238Y-31456309D02*
X47207047Y-31432500D01*
X47254666Y-31408690D01*
X47373714Y-31408690D01*
X47421333Y-31432500D01*
X47445142Y-31456309D01*
X47468952Y-31503928D01*
X47468952Y-31551547D01*
X47445142Y-31622976D01*
X47159428Y-31908690D01*
X47468952Y-31908690D01*
G04 #@! TO.C,C24*
X58841571Y-33778928D02*
X58865380Y-33802738D01*
X58889190Y-33874166D01*
X58889190Y-33921785D01*
X58865380Y-33993214D01*
X58817761Y-34040833D01*
X58770142Y-34064642D01*
X58674904Y-34088452D01*
X58603476Y-34088452D01*
X58508238Y-34064642D01*
X58460619Y-34040833D01*
X58413000Y-33993214D01*
X58389190Y-33921785D01*
X58389190Y-33874166D01*
X58413000Y-33802738D01*
X58436809Y-33778928D01*
X58436809Y-33588452D02*
X58413000Y-33564642D01*
X58389190Y-33517023D01*
X58389190Y-33397976D01*
X58413000Y-33350357D01*
X58436809Y-33326547D01*
X58484428Y-33302738D01*
X58532047Y-33302738D01*
X58603476Y-33326547D01*
X58889190Y-33612261D01*
X58889190Y-33302738D01*
X58555857Y-32874166D02*
X58889190Y-32874166D01*
X58365380Y-32993214D02*
X58722523Y-33112261D01*
X58722523Y-32802738D01*
G04 #@! TO.C,C25*
X53516571Y-39928928D02*
X53540380Y-39952738D01*
X53564190Y-40024166D01*
X53564190Y-40071785D01*
X53540380Y-40143214D01*
X53492761Y-40190833D01*
X53445142Y-40214642D01*
X53349904Y-40238452D01*
X53278476Y-40238452D01*
X53183238Y-40214642D01*
X53135619Y-40190833D01*
X53088000Y-40143214D01*
X53064190Y-40071785D01*
X53064190Y-40024166D01*
X53088000Y-39952738D01*
X53111809Y-39928928D01*
X53111809Y-39738452D02*
X53088000Y-39714642D01*
X53064190Y-39667023D01*
X53064190Y-39547976D01*
X53088000Y-39500357D01*
X53111809Y-39476547D01*
X53159428Y-39452738D01*
X53207047Y-39452738D01*
X53278476Y-39476547D01*
X53564190Y-39762261D01*
X53564190Y-39452738D01*
X53064190Y-39000357D02*
X53064190Y-39238452D01*
X53302285Y-39262261D01*
X53278476Y-39238452D01*
X53254666Y-39190833D01*
X53254666Y-39071785D01*
X53278476Y-39024166D01*
X53302285Y-39000357D01*
X53349904Y-38976547D01*
X53468952Y-38976547D01*
X53516571Y-39000357D01*
X53540380Y-39024166D01*
X53564190Y-39071785D01*
X53564190Y-39190833D01*
X53540380Y-39238452D01*
X53516571Y-39262261D01*
G04 #@! TO.C,C26*
X52741571Y-34928928D02*
X52765380Y-34952738D01*
X52789190Y-35024166D01*
X52789190Y-35071785D01*
X52765380Y-35143214D01*
X52717761Y-35190833D01*
X52670142Y-35214642D01*
X52574904Y-35238452D01*
X52503476Y-35238452D01*
X52408238Y-35214642D01*
X52360619Y-35190833D01*
X52313000Y-35143214D01*
X52289190Y-35071785D01*
X52289190Y-35024166D01*
X52313000Y-34952738D01*
X52336809Y-34928928D01*
X52336809Y-34738452D02*
X52313000Y-34714642D01*
X52289190Y-34667023D01*
X52289190Y-34547976D01*
X52313000Y-34500357D01*
X52336809Y-34476547D01*
X52384428Y-34452738D01*
X52432047Y-34452738D01*
X52503476Y-34476547D01*
X52789190Y-34762261D01*
X52789190Y-34452738D01*
X52289190Y-34024166D02*
X52289190Y-34119404D01*
X52313000Y-34167023D01*
X52336809Y-34190833D01*
X52408238Y-34238452D01*
X52503476Y-34262261D01*
X52693952Y-34262261D01*
X52741571Y-34238452D01*
X52765380Y-34214642D01*
X52789190Y-34167023D01*
X52789190Y-34071785D01*
X52765380Y-34024166D01*
X52741571Y-34000357D01*
X52693952Y-33976547D01*
X52574904Y-33976547D01*
X52527285Y-34000357D01*
X52503476Y-34024166D01*
X52479666Y-34071785D01*
X52479666Y-34167023D01*
X52503476Y-34214642D01*
X52527285Y-34238452D01*
X52574904Y-34262261D01*
G04 #@! TO.C,C27*
X52516571Y-40628928D02*
X52540380Y-40652738D01*
X52564190Y-40724166D01*
X52564190Y-40771785D01*
X52540380Y-40843214D01*
X52492761Y-40890833D01*
X52445142Y-40914642D01*
X52349904Y-40938452D01*
X52278476Y-40938452D01*
X52183238Y-40914642D01*
X52135619Y-40890833D01*
X52088000Y-40843214D01*
X52064190Y-40771785D01*
X52064190Y-40724166D01*
X52088000Y-40652738D01*
X52111809Y-40628928D01*
X52111809Y-40438452D02*
X52088000Y-40414642D01*
X52064190Y-40367023D01*
X52064190Y-40247976D01*
X52088000Y-40200357D01*
X52111809Y-40176547D01*
X52159428Y-40152738D01*
X52207047Y-40152738D01*
X52278476Y-40176547D01*
X52564190Y-40462261D01*
X52564190Y-40152738D01*
X52064190Y-39986071D02*
X52064190Y-39652738D01*
X52564190Y-39867023D01*
G04 #@! TO.C,C1*
X53904666Y-37861071D02*
X53880857Y-37884880D01*
X53809428Y-37908690D01*
X53761809Y-37908690D01*
X53690380Y-37884880D01*
X53642761Y-37837261D01*
X53618952Y-37789642D01*
X53595142Y-37694404D01*
X53595142Y-37622976D01*
X53618952Y-37527738D01*
X53642761Y-37480119D01*
X53690380Y-37432500D01*
X53761809Y-37408690D01*
X53809428Y-37408690D01*
X53880857Y-37432500D01*
X53904666Y-37456309D01*
X54380857Y-37908690D02*
X54095142Y-37908690D01*
X54238000Y-37908690D02*
X54238000Y-37408690D01*
X54190380Y-37480119D01*
X54142761Y-37527738D01*
X54095142Y-37551547D01*
G04 #@! TO.C,C3*
X56629666Y-34711071D02*
X56605857Y-34734880D01*
X56534428Y-34758690D01*
X56486809Y-34758690D01*
X56415380Y-34734880D01*
X56367761Y-34687261D01*
X56343952Y-34639642D01*
X56320142Y-34544404D01*
X56320142Y-34472976D01*
X56343952Y-34377738D01*
X56367761Y-34330119D01*
X56415380Y-34282500D01*
X56486809Y-34258690D01*
X56534428Y-34258690D01*
X56605857Y-34282500D01*
X56629666Y-34306309D01*
X56796333Y-34258690D02*
X57105857Y-34258690D01*
X56939190Y-34449166D01*
X57010619Y-34449166D01*
X57058238Y-34472976D01*
X57082047Y-34496785D01*
X57105857Y-34544404D01*
X57105857Y-34663452D01*
X57082047Y-34711071D01*
X57058238Y-34734880D01*
X57010619Y-34758690D01*
X56867761Y-34758690D01*
X56820142Y-34734880D01*
X56796333Y-34711071D01*
G04 #@! TO.C,C4*
X57654666Y-46261071D02*
X57630857Y-46284880D01*
X57559428Y-46308690D01*
X57511809Y-46308690D01*
X57440380Y-46284880D01*
X57392761Y-46237261D01*
X57368952Y-46189642D01*
X57345142Y-46094404D01*
X57345142Y-46022976D01*
X57368952Y-45927738D01*
X57392761Y-45880119D01*
X57440380Y-45832500D01*
X57511809Y-45808690D01*
X57559428Y-45808690D01*
X57630857Y-45832500D01*
X57654666Y-45856309D01*
X58083238Y-45975357D02*
X58083238Y-46308690D01*
X57964190Y-45784880D02*
X57845142Y-46142023D01*
X58154666Y-46142023D01*
G04 #@! TO.C,C13*
X56266571Y-51211071D02*
X56242761Y-51234880D01*
X56171333Y-51258690D01*
X56123714Y-51258690D01*
X56052285Y-51234880D01*
X56004666Y-51187261D01*
X55980857Y-51139642D01*
X55957047Y-51044404D01*
X55957047Y-50972976D01*
X55980857Y-50877738D01*
X56004666Y-50830119D01*
X56052285Y-50782500D01*
X56123714Y-50758690D01*
X56171333Y-50758690D01*
X56242761Y-50782500D01*
X56266571Y-50806309D01*
X56742761Y-51258690D02*
X56457047Y-51258690D01*
X56599904Y-51258690D02*
X56599904Y-50758690D01*
X56552285Y-50830119D01*
X56504666Y-50877738D01*
X56457047Y-50901547D01*
X56909428Y-50758690D02*
X57218952Y-50758690D01*
X57052285Y-50949166D01*
X57123714Y-50949166D01*
X57171333Y-50972976D01*
X57195142Y-50996785D01*
X57218952Y-51044404D01*
X57218952Y-51163452D01*
X57195142Y-51211071D01*
X57171333Y-51234880D01*
X57123714Y-51258690D01*
X56980857Y-51258690D01*
X56933238Y-51234880D01*
X56909428Y-51211071D01*
G04 #@! TO.C,C5*
X70304666Y-46711071D02*
X70280857Y-46734880D01*
X70209428Y-46758690D01*
X70161809Y-46758690D01*
X70090380Y-46734880D01*
X70042761Y-46687261D01*
X70018952Y-46639642D01*
X69995142Y-46544404D01*
X69995142Y-46472976D01*
X70018952Y-46377738D01*
X70042761Y-46330119D01*
X70090380Y-46282500D01*
X70161809Y-46258690D01*
X70209428Y-46258690D01*
X70280857Y-46282500D01*
X70304666Y-46306309D01*
X70757047Y-46258690D02*
X70518952Y-46258690D01*
X70495142Y-46496785D01*
X70518952Y-46472976D01*
X70566571Y-46449166D01*
X70685619Y-46449166D01*
X70733238Y-46472976D01*
X70757047Y-46496785D01*
X70780857Y-46544404D01*
X70780857Y-46663452D01*
X70757047Y-46711071D01*
X70733238Y-46734880D01*
X70685619Y-46758690D01*
X70566571Y-46758690D01*
X70518952Y-46734880D01*
X70495142Y-46711071D01*
D13*
G04 #@! TO.C,C30*
X67480142Y-53840357D02*
X67494428Y-53854642D01*
X67508714Y-53897500D01*
X67508714Y-53926071D01*
X67494428Y-53968928D01*
X67465857Y-53997500D01*
X67437285Y-54011785D01*
X67380142Y-54026071D01*
X67337285Y-54026071D01*
X67280142Y-54011785D01*
X67251571Y-53997500D01*
X67223000Y-53968928D01*
X67208714Y-53926071D01*
X67208714Y-53897500D01*
X67223000Y-53854642D01*
X67237285Y-53840357D01*
X67208714Y-53740357D02*
X67208714Y-53554642D01*
X67323000Y-53654642D01*
X67323000Y-53611785D01*
X67337285Y-53583214D01*
X67351571Y-53568928D01*
X67380142Y-53554642D01*
X67451571Y-53554642D01*
X67480142Y-53568928D01*
X67494428Y-53583214D01*
X67508714Y-53611785D01*
X67508714Y-53697500D01*
X67494428Y-53726071D01*
X67480142Y-53740357D01*
X67208714Y-53368928D02*
X67208714Y-53340357D01*
X67223000Y-53311785D01*
X67237285Y-53297500D01*
X67265857Y-53283214D01*
X67323000Y-53268928D01*
X67394428Y-53268928D01*
X67451571Y-53283214D01*
X67480142Y-53297500D01*
X67494428Y-53311785D01*
X67508714Y-53340357D01*
X67508714Y-53368928D01*
X67494428Y-53397500D01*
X67480142Y-53411785D01*
X67451571Y-53426071D01*
X67394428Y-53440357D01*
X67323000Y-53440357D01*
X67265857Y-53426071D01*
X67237285Y-53411785D01*
X67223000Y-53397500D01*
X67208714Y-53368928D01*
D12*
G04 #@! TO.C,C40*
X68741571Y-36703928D02*
X68765380Y-36727738D01*
X68789190Y-36799166D01*
X68789190Y-36846785D01*
X68765380Y-36918214D01*
X68717761Y-36965833D01*
X68670142Y-36989642D01*
X68574904Y-37013452D01*
X68503476Y-37013452D01*
X68408238Y-36989642D01*
X68360619Y-36965833D01*
X68313000Y-36918214D01*
X68289190Y-36846785D01*
X68289190Y-36799166D01*
X68313000Y-36727738D01*
X68336809Y-36703928D01*
X68455857Y-36275357D02*
X68789190Y-36275357D01*
X68265380Y-36394404D02*
X68622523Y-36513452D01*
X68622523Y-36203928D01*
X68289190Y-35918214D02*
X68289190Y-35870595D01*
X68313000Y-35822976D01*
X68336809Y-35799166D01*
X68384428Y-35775357D01*
X68479666Y-35751547D01*
X68598714Y-35751547D01*
X68693952Y-35775357D01*
X68741571Y-35799166D01*
X68765380Y-35822976D01*
X68789190Y-35870595D01*
X68789190Y-35918214D01*
X68765380Y-35965833D01*
X68741571Y-35989642D01*
X68693952Y-36013452D01*
X68598714Y-36037261D01*
X68479666Y-36037261D01*
X68384428Y-36013452D01*
X68336809Y-35989642D01*
X68313000Y-35965833D01*
X68289190Y-35918214D01*
G04 #@! TO.C,C45*
X66691571Y-49861071D02*
X66667761Y-49884880D01*
X66596333Y-49908690D01*
X66548714Y-49908690D01*
X66477285Y-49884880D01*
X66429666Y-49837261D01*
X66405857Y-49789642D01*
X66382047Y-49694404D01*
X66382047Y-49622976D01*
X66405857Y-49527738D01*
X66429666Y-49480119D01*
X66477285Y-49432500D01*
X66548714Y-49408690D01*
X66596333Y-49408690D01*
X66667761Y-49432500D01*
X66691571Y-49456309D01*
X67120142Y-49575357D02*
X67120142Y-49908690D01*
X67001095Y-49384880D02*
X66882047Y-49742023D01*
X67191571Y-49742023D01*
X67620142Y-49408690D02*
X67382047Y-49408690D01*
X67358238Y-49646785D01*
X67382047Y-49622976D01*
X67429666Y-49599166D01*
X67548714Y-49599166D01*
X67596333Y-49622976D01*
X67620142Y-49646785D01*
X67643952Y-49694404D01*
X67643952Y-49813452D01*
X67620142Y-49861071D01*
X67596333Y-49884880D01*
X67548714Y-49908690D01*
X67429666Y-49908690D01*
X67382047Y-49884880D01*
X67358238Y-49861071D01*
G04 #@! TO.C,C32*
X62941571Y-52961071D02*
X62917761Y-52984880D01*
X62846333Y-53008690D01*
X62798714Y-53008690D01*
X62727285Y-52984880D01*
X62679666Y-52937261D01*
X62655857Y-52889642D01*
X62632047Y-52794404D01*
X62632047Y-52722976D01*
X62655857Y-52627738D01*
X62679666Y-52580119D01*
X62727285Y-52532500D01*
X62798714Y-52508690D01*
X62846333Y-52508690D01*
X62917761Y-52532500D01*
X62941571Y-52556309D01*
X63108238Y-52508690D02*
X63417761Y-52508690D01*
X63251095Y-52699166D01*
X63322523Y-52699166D01*
X63370142Y-52722976D01*
X63393952Y-52746785D01*
X63417761Y-52794404D01*
X63417761Y-52913452D01*
X63393952Y-52961071D01*
X63370142Y-52984880D01*
X63322523Y-53008690D01*
X63179666Y-53008690D01*
X63132047Y-52984880D01*
X63108238Y-52961071D01*
X63608238Y-52556309D02*
X63632047Y-52532500D01*
X63679666Y-52508690D01*
X63798714Y-52508690D01*
X63846333Y-52532500D01*
X63870142Y-52556309D01*
X63893952Y-52603928D01*
X63893952Y-52651547D01*
X63870142Y-52722976D01*
X63584428Y-53008690D01*
X63893952Y-53008690D01*
D14*
G04 #@! TO.C,C36*
X67943928Y-54890571D02*
X67953452Y-54900095D01*
X67962976Y-54928666D01*
X67962976Y-54947714D01*
X67953452Y-54976285D01*
X67934404Y-54995333D01*
X67915357Y-55004857D01*
X67877261Y-55014380D01*
X67848690Y-55014380D01*
X67810595Y-55004857D01*
X67791547Y-54995333D01*
X67772500Y-54976285D01*
X67762976Y-54947714D01*
X67762976Y-54928666D01*
X67772500Y-54900095D01*
X67782023Y-54890571D01*
X67762976Y-54823904D02*
X67762976Y-54700095D01*
X67839166Y-54766761D01*
X67839166Y-54738190D01*
X67848690Y-54719142D01*
X67858214Y-54709619D01*
X67877261Y-54700095D01*
X67924880Y-54700095D01*
X67943928Y-54709619D01*
X67953452Y-54719142D01*
X67962976Y-54738190D01*
X67962976Y-54795333D01*
X67953452Y-54814380D01*
X67943928Y-54823904D01*
X67762976Y-54528666D02*
X67762976Y-54566761D01*
X67772500Y-54585809D01*
X67782023Y-54595333D01*
X67810595Y-54614380D01*
X67848690Y-54623904D01*
X67924880Y-54623904D01*
X67943928Y-54614380D01*
X67953452Y-54604857D01*
X67962976Y-54585809D01*
X67962976Y-54547714D01*
X67953452Y-54528666D01*
X67943928Y-54519142D01*
X67924880Y-54509619D01*
X67877261Y-54509619D01*
X67858214Y-54519142D01*
X67848690Y-54528666D01*
X67839166Y-54547714D01*
X67839166Y-54585809D01*
X67848690Y-54604857D01*
X67858214Y-54614380D01*
X67877261Y-54623904D01*
D12*
G04 #@! TO.C,C33*
X62941571Y-54511071D02*
X62917761Y-54534880D01*
X62846333Y-54558690D01*
X62798714Y-54558690D01*
X62727285Y-54534880D01*
X62679666Y-54487261D01*
X62655857Y-54439642D01*
X62632047Y-54344404D01*
X62632047Y-54272976D01*
X62655857Y-54177738D01*
X62679666Y-54130119D01*
X62727285Y-54082500D01*
X62798714Y-54058690D01*
X62846333Y-54058690D01*
X62917761Y-54082500D01*
X62941571Y-54106309D01*
X63108238Y-54058690D02*
X63417761Y-54058690D01*
X63251095Y-54249166D01*
X63322523Y-54249166D01*
X63370142Y-54272976D01*
X63393952Y-54296785D01*
X63417761Y-54344404D01*
X63417761Y-54463452D01*
X63393952Y-54511071D01*
X63370142Y-54534880D01*
X63322523Y-54558690D01*
X63179666Y-54558690D01*
X63132047Y-54534880D01*
X63108238Y-54511071D01*
X63584428Y-54058690D02*
X63893952Y-54058690D01*
X63727285Y-54249166D01*
X63798714Y-54249166D01*
X63846333Y-54272976D01*
X63870142Y-54296785D01*
X63893952Y-54344404D01*
X63893952Y-54463452D01*
X63870142Y-54511071D01*
X63846333Y-54534880D01*
X63798714Y-54558690D01*
X63655857Y-54558690D01*
X63608238Y-54534880D01*
X63584428Y-54511071D01*
G04 #@! TO.C,C41*
X61591617Y-50329282D02*
X61615426Y-50353092D01*
X61639236Y-50424520D01*
X61639236Y-50472139D01*
X61615426Y-50543568D01*
X61567807Y-50591187D01*
X61520188Y-50614996D01*
X61424950Y-50638806D01*
X61353522Y-50638806D01*
X61258284Y-50614996D01*
X61210665Y-50591187D01*
X61163046Y-50543568D01*
X61139236Y-50472139D01*
X61139236Y-50424520D01*
X61163046Y-50353092D01*
X61186855Y-50329282D01*
X61305903Y-49900711D02*
X61639236Y-49900711D01*
X61115426Y-50019758D02*
X61472569Y-50138806D01*
X61472569Y-49829282D01*
X61639236Y-49376901D02*
X61639236Y-49662615D01*
X61639236Y-49519758D02*
X61139236Y-49519758D01*
X61210665Y-49567377D01*
X61258284Y-49614996D01*
X61282093Y-49662615D01*
D15*
G04 #@! TO.C,D3*
X28976190Y-30369047D02*
X28476190Y-30369047D01*
X28476190Y-30250000D01*
X28500000Y-30178571D01*
X28547619Y-30130952D01*
X28595238Y-30107142D01*
X28690476Y-30083333D01*
X28761904Y-30083333D01*
X28857142Y-30107142D01*
X28904761Y-30130952D01*
X28952380Y-30178571D01*
X28976190Y-30250000D01*
X28976190Y-30369047D01*
X28476190Y-29916666D02*
X28476190Y-29607142D01*
X28666666Y-29773809D01*
X28666666Y-29702380D01*
X28690476Y-29654761D01*
X28714285Y-29630952D01*
X28761904Y-29607142D01*
X28880952Y-29607142D01*
X28928571Y-29630952D01*
X28952380Y-29654761D01*
X28976190Y-29702380D01*
X28976190Y-29845238D01*
X28952380Y-29892857D01*
X28928571Y-29916666D01*
D12*
G04 #@! TO.C,R4*
X58568808Y-54607108D02*
X58402142Y-54369013D01*
X58283094Y-54607108D02*
X58283094Y-54107108D01*
X58473570Y-54107108D01*
X58521189Y-54130918D01*
X58544999Y-54154727D01*
X58568808Y-54202346D01*
X58568808Y-54273775D01*
X58544999Y-54321394D01*
X58521189Y-54345203D01*
X58473570Y-54369013D01*
X58283094Y-54369013D01*
X58997380Y-54273775D02*
X58997380Y-54607108D01*
X58878332Y-54083298D02*
X58759284Y-54440441D01*
X59068808Y-54440441D01*
G04 #@! TO.C,R3*
X58659678Y-50656900D02*
X58493012Y-50418805D01*
X58373964Y-50656900D02*
X58373964Y-50156900D01*
X58564440Y-50156900D01*
X58612059Y-50180710D01*
X58635869Y-50204519D01*
X58659678Y-50252138D01*
X58659678Y-50323567D01*
X58635869Y-50371186D01*
X58612059Y-50394995D01*
X58564440Y-50418805D01*
X58373964Y-50418805D01*
X58826345Y-50156900D02*
X59135869Y-50156900D01*
X58969202Y-50347376D01*
X59040631Y-50347376D01*
X59088250Y-50371186D01*
X59112059Y-50394995D01*
X59135869Y-50442614D01*
X59135869Y-50561662D01*
X59112059Y-50609281D01*
X59088250Y-50633090D01*
X59040631Y-50656900D01*
X58897773Y-50656900D01*
X58850154Y-50633090D01*
X58826345Y-50609281D01*
G04 #@! TO.C,R1*
X51454666Y-34458690D02*
X51288000Y-34220595D01*
X51168952Y-34458690D02*
X51168952Y-33958690D01*
X51359428Y-33958690D01*
X51407047Y-33982500D01*
X51430857Y-34006309D01*
X51454666Y-34053928D01*
X51454666Y-34125357D01*
X51430857Y-34172976D01*
X51407047Y-34196785D01*
X51359428Y-34220595D01*
X51168952Y-34220595D01*
X51930857Y-34458690D02*
X51645142Y-34458690D01*
X51788000Y-34458690D02*
X51788000Y-33958690D01*
X51740380Y-34030119D01*
X51692761Y-34077738D01*
X51645142Y-34101547D01*
G04 #@! TO.C,R11*
X29741571Y-30708690D02*
X29574904Y-30470595D01*
X29455857Y-30708690D02*
X29455857Y-30208690D01*
X29646333Y-30208690D01*
X29693952Y-30232500D01*
X29717761Y-30256309D01*
X29741571Y-30303928D01*
X29741571Y-30375357D01*
X29717761Y-30422976D01*
X29693952Y-30446785D01*
X29646333Y-30470595D01*
X29455857Y-30470595D01*
X30217761Y-30708690D02*
X29932047Y-30708690D01*
X30074904Y-30708690D02*
X30074904Y-30208690D01*
X30027285Y-30280119D01*
X29979666Y-30327738D01*
X29932047Y-30351547D01*
X30693952Y-30708690D02*
X30408238Y-30708690D01*
X30551095Y-30708690D02*
X30551095Y-30208690D01*
X30503476Y-30280119D01*
X30455857Y-30327738D01*
X30408238Y-30351547D01*
G04 #@! TO.C,R18*
X28589190Y-36903928D02*
X28351095Y-37070595D01*
X28589190Y-37189642D02*
X28089190Y-37189642D01*
X28089190Y-36999166D01*
X28113000Y-36951547D01*
X28136809Y-36927738D01*
X28184428Y-36903928D01*
X28255857Y-36903928D01*
X28303476Y-36927738D01*
X28327285Y-36951547D01*
X28351095Y-36999166D01*
X28351095Y-37189642D01*
X28589190Y-36427738D02*
X28589190Y-36713452D01*
X28589190Y-36570595D02*
X28089190Y-36570595D01*
X28160619Y-36618214D01*
X28208238Y-36665833D01*
X28232047Y-36713452D01*
X28303476Y-36142023D02*
X28279666Y-36189642D01*
X28255857Y-36213452D01*
X28208238Y-36237261D01*
X28184428Y-36237261D01*
X28136809Y-36213452D01*
X28113000Y-36189642D01*
X28089190Y-36142023D01*
X28089190Y-36046785D01*
X28113000Y-35999166D01*
X28136809Y-35975357D01*
X28184428Y-35951547D01*
X28208238Y-35951547D01*
X28255857Y-35975357D01*
X28279666Y-35999166D01*
X28303476Y-36046785D01*
X28303476Y-36142023D01*
X28327285Y-36189642D01*
X28351095Y-36213452D01*
X28398714Y-36237261D01*
X28493952Y-36237261D01*
X28541571Y-36213452D01*
X28565380Y-36189642D01*
X28589190Y-36142023D01*
X28589190Y-36046785D01*
X28565380Y-35999166D01*
X28541571Y-35975357D01*
X28493952Y-35951547D01*
X28398714Y-35951547D01*
X28351095Y-35975357D01*
X28327285Y-35999166D01*
X28303476Y-36046785D01*
G04 #@! TO.C,R5*
X53689190Y-50465833D02*
X53451095Y-50632500D01*
X53689190Y-50751547D02*
X53189190Y-50751547D01*
X53189190Y-50561071D01*
X53213000Y-50513452D01*
X53236809Y-50489642D01*
X53284428Y-50465833D01*
X53355857Y-50465833D01*
X53403476Y-50489642D01*
X53427285Y-50513452D01*
X53451095Y-50561071D01*
X53451095Y-50751547D01*
X53189190Y-50013452D02*
X53189190Y-50251547D01*
X53427285Y-50275357D01*
X53403476Y-50251547D01*
X53379666Y-50203928D01*
X53379666Y-50084880D01*
X53403476Y-50037261D01*
X53427285Y-50013452D01*
X53474904Y-49989642D01*
X53593952Y-49989642D01*
X53641571Y-50013452D01*
X53665380Y-50037261D01*
X53689190Y-50084880D01*
X53689190Y-50203928D01*
X53665380Y-50251547D01*
X53641571Y-50275357D01*
G04 #@! TO.C,R22*
X25591571Y-41458690D02*
X25424904Y-41220595D01*
X25305857Y-41458690D02*
X25305857Y-40958690D01*
X25496333Y-40958690D01*
X25543952Y-40982500D01*
X25567761Y-41006309D01*
X25591571Y-41053928D01*
X25591571Y-41125357D01*
X25567761Y-41172976D01*
X25543952Y-41196785D01*
X25496333Y-41220595D01*
X25305857Y-41220595D01*
X25782047Y-41006309D02*
X25805857Y-40982500D01*
X25853476Y-40958690D01*
X25972523Y-40958690D01*
X26020142Y-40982500D01*
X26043952Y-41006309D01*
X26067761Y-41053928D01*
X26067761Y-41101547D01*
X26043952Y-41172976D01*
X25758238Y-41458690D01*
X26067761Y-41458690D01*
X26258238Y-41006309D02*
X26282047Y-40982500D01*
X26329666Y-40958690D01*
X26448714Y-40958690D01*
X26496333Y-40982500D01*
X26520142Y-41006309D01*
X26543952Y-41053928D01*
X26543952Y-41101547D01*
X26520142Y-41172976D01*
X26234428Y-41458690D01*
X26543952Y-41458690D01*
G04 #@! TO.C,R23*
X25591571Y-43858690D02*
X25424904Y-43620595D01*
X25305857Y-43858690D02*
X25305857Y-43358690D01*
X25496333Y-43358690D01*
X25543952Y-43382500D01*
X25567761Y-43406309D01*
X25591571Y-43453928D01*
X25591571Y-43525357D01*
X25567761Y-43572976D01*
X25543952Y-43596785D01*
X25496333Y-43620595D01*
X25305857Y-43620595D01*
X25782047Y-43406309D02*
X25805857Y-43382500D01*
X25853476Y-43358690D01*
X25972523Y-43358690D01*
X26020142Y-43382500D01*
X26043952Y-43406309D01*
X26067761Y-43453928D01*
X26067761Y-43501547D01*
X26043952Y-43572976D01*
X25758238Y-43858690D01*
X26067761Y-43858690D01*
X26234428Y-43358690D02*
X26543952Y-43358690D01*
X26377285Y-43549166D01*
X26448714Y-43549166D01*
X26496333Y-43572976D01*
X26520142Y-43596785D01*
X26543952Y-43644404D01*
X26543952Y-43763452D01*
X26520142Y-43811071D01*
X26496333Y-43834880D01*
X26448714Y-43858690D01*
X26305857Y-43858690D01*
X26258238Y-43834880D01*
X26234428Y-43811071D01*
G04 #@! TO.C,R24*
X25591571Y-45408690D02*
X25424904Y-45170595D01*
X25305857Y-45408690D02*
X25305857Y-44908690D01*
X25496333Y-44908690D01*
X25543952Y-44932500D01*
X25567761Y-44956309D01*
X25591571Y-45003928D01*
X25591571Y-45075357D01*
X25567761Y-45122976D01*
X25543952Y-45146785D01*
X25496333Y-45170595D01*
X25305857Y-45170595D01*
X25782047Y-44956309D02*
X25805857Y-44932500D01*
X25853476Y-44908690D01*
X25972523Y-44908690D01*
X26020142Y-44932500D01*
X26043952Y-44956309D01*
X26067761Y-45003928D01*
X26067761Y-45051547D01*
X26043952Y-45122976D01*
X25758238Y-45408690D01*
X26067761Y-45408690D01*
X26496333Y-45075357D02*
X26496333Y-45408690D01*
X26377285Y-44884880D02*
X26258238Y-45242023D01*
X26567761Y-45242023D01*
G04 #@! TO.C,R25*
X28941571Y-43108690D02*
X28774904Y-42870595D01*
X28655857Y-43108690D02*
X28655857Y-42608690D01*
X28846333Y-42608690D01*
X28893952Y-42632500D01*
X28917761Y-42656309D01*
X28941571Y-42703928D01*
X28941571Y-42775357D01*
X28917761Y-42822976D01*
X28893952Y-42846785D01*
X28846333Y-42870595D01*
X28655857Y-42870595D01*
X29132047Y-42656309D02*
X29155857Y-42632500D01*
X29203476Y-42608690D01*
X29322523Y-42608690D01*
X29370142Y-42632500D01*
X29393952Y-42656309D01*
X29417761Y-42703928D01*
X29417761Y-42751547D01*
X29393952Y-42822976D01*
X29108238Y-43108690D01*
X29417761Y-43108690D01*
X29870142Y-42608690D02*
X29632047Y-42608690D01*
X29608238Y-42846785D01*
X29632047Y-42822976D01*
X29679666Y-42799166D01*
X29798714Y-42799166D01*
X29846333Y-42822976D01*
X29870142Y-42846785D01*
X29893952Y-42894404D01*
X29893952Y-43013452D01*
X29870142Y-43061071D01*
X29846333Y-43084880D01*
X29798714Y-43108690D01*
X29679666Y-43108690D01*
X29632047Y-43084880D01*
X29608238Y-43061071D01*
D10*
G04 #@! TO.C,Q1*
X21664761Y-41937619D02*
X21569523Y-41890000D01*
X21474285Y-41794761D01*
X21331428Y-41651904D01*
X21236190Y-41604285D01*
X21140952Y-41604285D01*
X21188571Y-41842380D02*
X21093333Y-41794761D01*
X20998095Y-41699523D01*
X20950476Y-41509047D01*
X20950476Y-41175714D01*
X20998095Y-40985238D01*
X21093333Y-40890000D01*
X21188571Y-40842380D01*
X21379047Y-40842380D01*
X21474285Y-40890000D01*
X21569523Y-40985238D01*
X21617142Y-41175714D01*
X21617142Y-41509047D01*
X21569523Y-41699523D01*
X21474285Y-41794761D01*
X21379047Y-41842380D01*
X21188571Y-41842380D01*
X22569523Y-41842380D02*
X21998095Y-41842380D01*
X22283809Y-41842380D02*
X22283809Y-40842380D01*
X22188571Y-40985238D01*
X22093333Y-41080476D01*
X21998095Y-41128095D01*
D12*
G04 #@! TO.C,C67*
X30491571Y-31231071D02*
X30467761Y-31254880D01*
X30396333Y-31278690D01*
X30348714Y-31278690D01*
X30277285Y-31254880D01*
X30229666Y-31207261D01*
X30205857Y-31159642D01*
X30182047Y-31064404D01*
X30182047Y-30992976D01*
X30205857Y-30897738D01*
X30229666Y-30850119D01*
X30277285Y-30802500D01*
X30348714Y-30778690D01*
X30396333Y-30778690D01*
X30467761Y-30802500D01*
X30491571Y-30826309D01*
X30920142Y-30778690D02*
X30824904Y-30778690D01*
X30777285Y-30802500D01*
X30753476Y-30826309D01*
X30705857Y-30897738D01*
X30682047Y-30992976D01*
X30682047Y-31183452D01*
X30705857Y-31231071D01*
X30729666Y-31254880D01*
X30777285Y-31278690D01*
X30872523Y-31278690D01*
X30920142Y-31254880D01*
X30943952Y-31231071D01*
X30967761Y-31183452D01*
X30967761Y-31064404D01*
X30943952Y-31016785D01*
X30920142Y-30992976D01*
X30872523Y-30969166D01*
X30777285Y-30969166D01*
X30729666Y-30992976D01*
X30705857Y-31016785D01*
X30682047Y-31064404D01*
X31134428Y-30778690D02*
X31467761Y-30778690D01*
X31253476Y-31278690D01*
G04 #@! TO.C,C68*
X30061571Y-37203928D02*
X30085380Y-37227738D01*
X30109190Y-37299166D01*
X30109190Y-37346785D01*
X30085380Y-37418214D01*
X30037761Y-37465833D01*
X29990142Y-37489642D01*
X29894904Y-37513452D01*
X29823476Y-37513452D01*
X29728238Y-37489642D01*
X29680619Y-37465833D01*
X29633000Y-37418214D01*
X29609190Y-37346785D01*
X29609190Y-37299166D01*
X29633000Y-37227738D01*
X29656809Y-37203928D01*
X29609190Y-36775357D02*
X29609190Y-36870595D01*
X29633000Y-36918214D01*
X29656809Y-36942023D01*
X29728238Y-36989642D01*
X29823476Y-37013452D01*
X30013952Y-37013452D01*
X30061571Y-36989642D01*
X30085380Y-36965833D01*
X30109190Y-36918214D01*
X30109190Y-36822976D01*
X30085380Y-36775357D01*
X30061571Y-36751547D01*
X30013952Y-36727738D01*
X29894904Y-36727738D01*
X29847285Y-36751547D01*
X29823476Y-36775357D01*
X29799666Y-36822976D01*
X29799666Y-36918214D01*
X29823476Y-36965833D01*
X29847285Y-36989642D01*
X29894904Y-37013452D01*
X29823476Y-36442023D02*
X29799666Y-36489642D01*
X29775857Y-36513452D01*
X29728238Y-36537261D01*
X29704428Y-36537261D01*
X29656809Y-36513452D01*
X29633000Y-36489642D01*
X29609190Y-36442023D01*
X29609190Y-36346785D01*
X29633000Y-36299166D01*
X29656809Y-36275357D01*
X29704428Y-36251547D01*
X29728238Y-36251547D01*
X29775857Y-36275357D01*
X29799666Y-36299166D01*
X29823476Y-36346785D01*
X29823476Y-36442023D01*
X29847285Y-36489642D01*
X29871095Y-36513452D01*
X29918714Y-36537261D01*
X30013952Y-36537261D01*
X30061571Y-36513452D01*
X30085380Y-36489642D01*
X30109190Y-36442023D01*
X30109190Y-36346785D01*
X30085380Y-36299166D01*
X30061571Y-36275357D01*
X30013952Y-36251547D01*
X29918714Y-36251547D01*
X29871095Y-36275357D01*
X29847285Y-36299166D01*
X29823476Y-36346785D01*
G04 #@! TO.C,C14*
X50866571Y-32861071D02*
X50842761Y-32884880D01*
X50771333Y-32908690D01*
X50723714Y-32908690D01*
X50652285Y-32884880D01*
X50604666Y-32837261D01*
X50580857Y-32789642D01*
X50557047Y-32694404D01*
X50557047Y-32622976D01*
X50580857Y-32527738D01*
X50604666Y-32480119D01*
X50652285Y-32432500D01*
X50723714Y-32408690D01*
X50771333Y-32408690D01*
X50842761Y-32432500D01*
X50866571Y-32456309D01*
X51342761Y-32908690D02*
X51057047Y-32908690D01*
X51199904Y-32908690D02*
X51199904Y-32408690D01*
X51152285Y-32480119D01*
X51104666Y-32527738D01*
X51057047Y-32551547D01*
X51771333Y-32575357D02*
X51771333Y-32908690D01*
X51652285Y-32384880D02*
X51533238Y-32742023D01*
X51842761Y-32742023D01*
G04 #@! TO.C,C18*
X55821583Y-39552138D02*
X55845392Y-39575948D01*
X55869202Y-39647376D01*
X55869202Y-39694995D01*
X55845392Y-39766424D01*
X55797773Y-39814043D01*
X55750154Y-39837852D01*
X55654916Y-39861662D01*
X55583488Y-39861662D01*
X55488250Y-39837852D01*
X55440631Y-39814043D01*
X55393012Y-39766424D01*
X55369202Y-39694995D01*
X55369202Y-39647376D01*
X55393012Y-39575948D01*
X55416821Y-39552138D01*
X55869202Y-39075948D02*
X55869202Y-39361662D01*
X55869202Y-39218805D02*
X55369202Y-39218805D01*
X55440631Y-39266424D01*
X55488250Y-39314043D01*
X55512059Y-39361662D01*
X55583488Y-38790233D02*
X55559678Y-38837852D01*
X55535869Y-38861662D01*
X55488250Y-38885471D01*
X55464440Y-38885471D01*
X55416821Y-38861662D01*
X55393012Y-38837852D01*
X55369202Y-38790233D01*
X55369202Y-38694995D01*
X55393012Y-38647376D01*
X55416821Y-38623567D01*
X55464440Y-38599757D01*
X55488250Y-38599757D01*
X55535869Y-38623567D01*
X55559678Y-38647376D01*
X55583488Y-38694995D01*
X55583488Y-38790233D01*
X55607297Y-38837852D01*
X55631107Y-38861662D01*
X55678726Y-38885471D01*
X55773964Y-38885471D01*
X55821583Y-38861662D01*
X55845392Y-38837852D01*
X55869202Y-38790233D01*
X55869202Y-38694995D01*
X55845392Y-38647376D01*
X55821583Y-38623567D01*
X55773964Y-38599757D01*
X55678726Y-38599757D01*
X55631107Y-38623567D01*
X55607297Y-38647376D01*
X55583488Y-38694995D01*
G04 #@! TO.C,C31*
X66141571Y-53978928D02*
X66165380Y-54002738D01*
X66189190Y-54074166D01*
X66189190Y-54121785D01*
X66165380Y-54193214D01*
X66117761Y-54240833D01*
X66070142Y-54264642D01*
X65974904Y-54288452D01*
X65903476Y-54288452D01*
X65808238Y-54264642D01*
X65760619Y-54240833D01*
X65713000Y-54193214D01*
X65689190Y-54121785D01*
X65689190Y-54074166D01*
X65713000Y-54002738D01*
X65736809Y-53978928D01*
X65689190Y-53812261D02*
X65689190Y-53502738D01*
X65879666Y-53669404D01*
X65879666Y-53597976D01*
X65903476Y-53550357D01*
X65927285Y-53526547D01*
X65974904Y-53502738D01*
X66093952Y-53502738D01*
X66141571Y-53526547D01*
X66165380Y-53550357D01*
X66189190Y-53597976D01*
X66189190Y-53740833D01*
X66165380Y-53788452D01*
X66141571Y-53812261D01*
X66189190Y-53026547D02*
X66189190Y-53312261D01*
X66189190Y-53169404D02*
X65689190Y-53169404D01*
X65760619Y-53217023D01*
X65808238Y-53264642D01*
X65832047Y-53312261D01*
G04 #@! TO.C,C34*
X65341571Y-51411071D02*
X65317761Y-51434880D01*
X65246333Y-51458690D01*
X65198714Y-51458690D01*
X65127285Y-51434880D01*
X65079666Y-51387261D01*
X65055857Y-51339642D01*
X65032047Y-51244404D01*
X65032047Y-51172976D01*
X65055857Y-51077738D01*
X65079666Y-51030119D01*
X65127285Y-50982500D01*
X65198714Y-50958690D01*
X65246333Y-50958690D01*
X65317761Y-50982500D01*
X65341571Y-51006309D01*
X65508238Y-50958690D02*
X65817761Y-50958690D01*
X65651095Y-51149166D01*
X65722523Y-51149166D01*
X65770142Y-51172976D01*
X65793952Y-51196785D01*
X65817761Y-51244404D01*
X65817761Y-51363452D01*
X65793952Y-51411071D01*
X65770142Y-51434880D01*
X65722523Y-51458690D01*
X65579666Y-51458690D01*
X65532047Y-51434880D01*
X65508238Y-51411071D01*
X66246333Y-51125357D02*
X66246333Y-51458690D01*
X66127285Y-50934880D02*
X66008238Y-51292023D01*
X66317761Y-51292023D01*
G04 #@! TO.C,C37*
X65891571Y-57603928D02*
X65915380Y-57627738D01*
X65939190Y-57699166D01*
X65939190Y-57746785D01*
X65915380Y-57818214D01*
X65867761Y-57865833D01*
X65820142Y-57889642D01*
X65724904Y-57913452D01*
X65653476Y-57913452D01*
X65558238Y-57889642D01*
X65510619Y-57865833D01*
X65463000Y-57818214D01*
X65439190Y-57746785D01*
X65439190Y-57699166D01*
X65463000Y-57627738D01*
X65486809Y-57603928D01*
X65439190Y-57437261D02*
X65439190Y-57127738D01*
X65629666Y-57294404D01*
X65629666Y-57222976D01*
X65653476Y-57175357D01*
X65677285Y-57151547D01*
X65724904Y-57127738D01*
X65843952Y-57127738D01*
X65891571Y-57151547D01*
X65915380Y-57175357D01*
X65939190Y-57222976D01*
X65939190Y-57365833D01*
X65915380Y-57413452D01*
X65891571Y-57437261D01*
X65439190Y-56961071D02*
X65439190Y-56627738D01*
X65939190Y-56842023D01*
G04 #@! TO.C,C65*
X29681571Y-38801071D02*
X29657761Y-38824880D01*
X29586333Y-38848690D01*
X29538714Y-38848690D01*
X29467285Y-38824880D01*
X29419666Y-38777261D01*
X29395857Y-38729642D01*
X29372047Y-38634404D01*
X29372047Y-38562976D01*
X29395857Y-38467738D01*
X29419666Y-38420119D01*
X29467285Y-38372500D01*
X29538714Y-38348690D01*
X29586333Y-38348690D01*
X29657761Y-38372500D01*
X29681571Y-38396309D01*
X30110142Y-38348690D02*
X30014904Y-38348690D01*
X29967285Y-38372500D01*
X29943476Y-38396309D01*
X29895857Y-38467738D01*
X29872047Y-38562976D01*
X29872047Y-38753452D01*
X29895857Y-38801071D01*
X29919666Y-38824880D01*
X29967285Y-38848690D01*
X30062523Y-38848690D01*
X30110142Y-38824880D01*
X30133952Y-38801071D01*
X30157761Y-38753452D01*
X30157761Y-38634404D01*
X30133952Y-38586785D01*
X30110142Y-38562976D01*
X30062523Y-38539166D01*
X29967285Y-38539166D01*
X29919666Y-38562976D01*
X29895857Y-38586785D01*
X29872047Y-38634404D01*
X30610142Y-38348690D02*
X30372047Y-38348690D01*
X30348238Y-38586785D01*
X30372047Y-38562976D01*
X30419666Y-38539166D01*
X30538714Y-38539166D01*
X30586333Y-38562976D01*
X30610142Y-38586785D01*
X30633952Y-38634404D01*
X30633952Y-38753452D01*
X30610142Y-38801071D01*
X30586333Y-38824880D01*
X30538714Y-38848690D01*
X30419666Y-38848690D01*
X30372047Y-38824880D01*
X30348238Y-38801071D01*
G04 #@! TO.C,C104*
X66111571Y-45342023D02*
X66135380Y-45365833D01*
X66159190Y-45437261D01*
X66159190Y-45484880D01*
X66135380Y-45556309D01*
X66087761Y-45603928D01*
X66040142Y-45627738D01*
X65944904Y-45651547D01*
X65873476Y-45651547D01*
X65778238Y-45627738D01*
X65730619Y-45603928D01*
X65683000Y-45556309D01*
X65659190Y-45484880D01*
X65659190Y-45437261D01*
X65683000Y-45365833D01*
X65706809Y-45342023D01*
X66159190Y-44865833D02*
X66159190Y-45151547D01*
X66159190Y-45008690D02*
X65659190Y-45008690D01*
X65730619Y-45056309D01*
X65778238Y-45103928D01*
X65802047Y-45151547D01*
X65659190Y-44556309D02*
X65659190Y-44508690D01*
X65683000Y-44461071D01*
X65706809Y-44437261D01*
X65754428Y-44413452D01*
X65849666Y-44389642D01*
X65968714Y-44389642D01*
X66063952Y-44413452D01*
X66111571Y-44437261D01*
X66135380Y-44461071D01*
X66159190Y-44508690D01*
X66159190Y-44556309D01*
X66135380Y-44603928D01*
X66111571Y-44627738D01*
X66063952Y-44651547D01*
X65968714Y-44675357D01*
X65849666Y-44675357D01*
X65754428Y-44651547D01*
X65706809Y-44627738D01*
X65683000Y-44603928D01*
X65659190Y-44556309D01*
X65825857Y-43961071D02*
X66159190Y-43961071D01*
X65635380Y-44080119D02*
X65992523Y-44199166D01*
X65992523Y-43889642D01*
G04 #@! TO.C,C6*
X55229666Y-51881071D02*
X55205857Y-51904880D01*
X55134428Y-51928690D01*
X55086809Y-51928690D01*
X55015380Y-51904880D01*
X54967761Y-51857261D01*
X54943952Y-51809642D01*
X54920142Y-51714404D01*
X54920142Y-51642976D01*
X54943952Y-51547738D01*
X54967761Y-51500119D01*
X55015380Y-51452500D01*
X55086809Y-51428690D01*
X55134428Y-51428690D01*
X55205857Y-51452500D01*
X55229666Y-51476309D01*
X55658238Y-51428690D02*
X55563000Y-51428690D01*
X55515380Y-51452500D01*
X55491571Y-51476309D01*
X55443952Y-51547738D01*
X55420142Y-51642976D01*
X55420142Y-51833452D01*
X55443952Y-51881071D01*
X55467761Y-51904880D01*
X55515380Y-51928690D01*
X55610619Y-51928690D01*
X55658238Y-51904880D01*
X55682047Y-51881071D01*
X55705857Y-51833452D01*
X55705857Y-51714404D01*
X55682047Y-51666785D01*
X55658238Y-51642976D01*
X55610619Y-51619166D01*
X55515380Y-51619166D01*
X55467761Y-51642976D01*
X55443952Y-51666785D01*
X55420142Y-51714404D01*
G04 #@! TO.C,C28*
X66391571Y-38403928D02*
X66415380Y-38427738D01*
X66439190Y-38499166D01*
X66439190Y-38546785D01*
X66415380Y-38618214D01*
X66367761Y-38665833D01*
X66320142Y-38689642D01*
X66224904Y-38713452D01*
X66153476Y-38713452D01*
X66058238Y-38689642D01*
X66010619Y-38665833D01*
X65963000Y-38618214D01*
X65939190Y-38546785D01*
X65939190Y-38499166D01*
X65963000Y-38427738D01*
X65986809Y-38403928D01*
X65986809Y-38213452D02*
X65963000Y-38189642D01*
X65939190Y-38142023D01*
X65939190Y-38022976D01*
X65963000Y-37975357D01*
X65986809Y-37951547D01*
X66034428Y-37927738D01*
X66082047Y-37927738D01*
X66153476Y-37951547D01*
X66439190Y-38237261D01*
X66439190Y-37927738D01*
X66153476Y-37642023D02*
X66129666Y-37689642D01*
X66105857Y-37713452D01*
X66058238Y-37737261D01*
X66034428Y-37737261D01*
X65986809Y-37713452D01*
X65963000Y-37689642D01*
X65939190Y-37642023D01*
X65939190Y-37546785D01*
X65963000Y-37499166D01*
X65986809Y-37475357D01*
X66034428Y-37451547D01*
X66058238Y-37451547D01*
X66105857Y-37475357D01*
X66129666Y-37499166D01*
X66153476Y-37546785D01*
X66153476Y-37642023D01*
X66177285Y-37689642D01*
X66201095Y-37713452D01*
X66248714Y-37737261D01*
X66343952Y-37737261D01*
X66391571Y-37713452D01*
X66415380Y-37689642D01*
X66439190Y-37642023D01*
X66439190Y-37546785D01*
X66415380Y-37499166D01*
X66391571Y-37475357D01*
X66343952Y-37451547D01*
X66248714Y-37451547D01*
X66201095Y-37475357D01*
X66177285Y-37499166D01*
X66153476Y-37546785D01*
G04 #@! TO.C,C38*
X65041571Y-58153928D02*
X65065380Y-58177738D01*
X65089190Y-58249166D01*
X65089190Y-58296785D01*
X65065380Y-58368214D01*
X65017761Y-58415833D01*
X64970142Y-58439642D01*
X64874904Y-58463452D01*
X64803476Y-58463452D01*
X64708238Y-58439642D01*
X64660619Y-58415833D01*
X64613000Y-58368214D01*
X64589190Y-58296785D01*
X64589190Y-58249166D01*
X64613000Y-58177738D01*
X64636809Y-58153928D01*
X64589190Y-57987261D02*
X64589190Y-57677738D01*
X64779666Y-57844404D01*
X64779666Y-57772976D01*
X64803476Y-57725357D01*
X64827285Y-57701547D01*
X64874904Y-57677738D01*
X64993952Y-57677738D01*
X65041571Y-57701547D01*
X65065380Y-57725357D01*
X65089190Y-57772976D01*
X65089190Y-57915833D01*
X65065380Y-57963452D01*
X65041571Y-57987261D01*
X64803476Y-57392023D02*
X64779666Y-57439642D01*
X64755857Y-57463452D01*
X64708238Y-57487261D01*
X64684428Y-57487261D01*
X64636809Y-57463452D01*
X64613000Y-57439642D01*
X64589190Y-57392023D01*
X64589190Y-57296785D01*
X64613000Y-57249166D01*
X64636809Y-57225357D01*
X64684428Y-57201547D01*
X64708238Y-57201547D01*
X64755857Y-57225357D01*
X64779666Y-57249166D01*
X64803476Y-57296785D01*
X64803476Y-57392023D01*
X64827285Y-57439642D01*
X64851095Y-57463452D01*
X64898714Y-57487261D01*
X64993952Y-57487261D01*
X65041571Y-57463452D01*
X65065380Y-57439642D01*
X65089190Y-57392023D01*
X65089190Y-57296785D01*
X65065380Y-57249166D01*
X65041571Y-57225357D01*
X64993952Y-57201547D01*
X64898714Y-57201547D01*
X64851095Y-57225357D01*
X64827285Y-57249166D01*
X64803476Y-57296785D01*
G04 #@! TO.C,C35*
X64291571Y-48903928D02*
X64315380Y-48927738D01*
X64339190Y-48999166D01*
X64339190Y-49046785D01*
X64315380Y-49118214D01*
X64267761Y-49165833D01*
X64220142Y-49189642D01*
X64124904Y-49213452D01*
X64053476Y-49213452D01*
X63958238Y-49189642D01*
X63910619Y-49165833D01*
X63863000Y-49118214D01*
X63839190Y-49046785D01*
X63839190Y-48999166D01*
X63863000Y-48927738D01*
X63886809Y-48903928D01*
X63839190Y-48737261D02*
X63839190Y-48427738D01*
X64029666Y-48594404D01*
X64029666Y-48522976D01*
X64053476Y-48475357D01*
X64077285Y-48451547D01*
X64124904Y-48427738D01*
X64243952Y-48427738D01*
X64291571Y-48451547D01*
X64315380Y-48475357D01*
X64339190Y-48522976D01*
X64339190Y-48665833D01*
X64315380Y-48713452D01*
X64291571Y-48737261D01*
X63839190Y-47975357D02*
X63839190Y-48213452D01*
X64077285Y-48237261D01*
X64053476Y-48213452D01*
X64029666Y-48165833D01*
X64029666Y-48046785D01*
X64053476Y-47999166D01*
X64077285Y-47975357D01*
X64124904Y-47951547D01*
X64243952Y-47951547D01*
X64291571Y-47975357D01*
X64315380Y-47999166D01*
X64339190Y-48046785D01*
X64339190Y-48165833D01*
X64315380Y-48213452D01*
X64291571Y-48237261D01*
G04 #@! TO.C,C42*
X70391571Y-44731071D02*
X70367761Y-44754880D01*
X70296333Y-44778690D01*
X70248714Y-44778690D01*
X70177285Y-44754880D01*
X70129666Y-44707261D01*
X70105857Y-44659642D01*
X70082047Y-44564404D01*
X70082047Y-44492976D01*
X70105857Y-44397738D01*
X70129666Y-44350119D01*
X70177285Y-44302500D01*
X70248714Y-44278690D01*
X70296333Y-44278690D01*
X70367761Y-44302500D01*
X70391571Y-44326309D01*
X70820142Y-44445357D02*
X70820142Y-44778690D01*
X70701095Y-44254880D02*
X70582047Y-44612023D01*
X70891571Y-44612023D01*
X71058238Y-44326309D02*
X71082047Y-44302500D01*
X71129666Y-44278690D01*
X71248714Y-44278690D01*
X71296333Y-44302500D01*
X71320142Y-44326309D01*
X71343952Y-44373928D01*
X71343952Y-44421547D01*
X71320142Y-44492976D01*
X71034428Y-44778690D01*
X71343952Y-44778690D01*
G04 #@! TO.C,C2*
X61354558Y-45961433D02*
X61330749Y-45985242D01*
X61259320Y-46009052D01*
X61211701Y-46009052D01*
X61140272Y-45985242D01*
X61092653Y-45937623D01*
X61068844Y-45890004D01*
X61045034Y-45794766D01*
X61045034Y-45723338D01*
X61068844Y-45628100D01*
X61092653Y-45580481D01*
X61140272Y-45532862D01*
X61211701Y-45509052D01*
X61259320Y-45509052D01*
X61330749Y-45532862D01*
X61354558Y-45556671D01*
X61545034Y-45556671D02*
X61568844Y-45532862D01*
X61616463Y-45509052D01*
X61735511Y-45509052D01*
X61783130Y-45532862D01*
X61806939Y-45556671D01*
X61830749Y-45604290D01*
X61830749Y-45651909D01*
X61806939Y-45723338D01*
X61521225Y-46009052D01*
X61830749Y-46009052D01*
D14*
G04 #@! TO.C,C102*
X67534429Y-55856309D02*
X67543953Y-55865833D01*
X67553477Y-55894404D01*
X67553477Y-55913452D01*
X67543953Y-55942023D01*
X67524905Y-55961071D01*
X67505858Y-55970595D01*
X67467762Y-55980119D01*
X67439191Y-55980119D01*
X67401096Y-55970595D01*
X67382048Y-55961071D01*
X67363001Y-55942023D01*
X67353477Y-55913452D01*
X67353477Y-55894404D01*
X67363001Y-55865833D01*
X67372524Y-55856309D01*
X67553477Y-55665833D02*
X67553477Y-55780119D01*
X67553477Y-55722976D02*
X67353477Y-55722976D01*
X67382048Y-55742023D01*
X67401096Y-55761071D01*
X67410620Y-55780119D01*
X67353477Y-55542023D02*
X67353477Y-55522976D01*
X67363001Y-55503928D01*
X67372524Y-55494404D01*
X67391572Y-55484880D01*
X67429667Y-55475357D01*
X67477286Y-55475357D01*
X67515381Y-55484880D01*
X67534429Y-55494404D01*
X67543953Y-55503928D01*
X67553477Y-55522976D01*
X67553477Y-55542023D01*
X67543953Y-55561071D01*
X67534429Y-55570595D01*
X67515381Y-55580119D01*
X67477286Y-55589642D01*
X67429667Y-55589642D01*
X67391572Y-55580119D01*
X67372524Y-55570595D01*
X67363001Y-55561071D01*
X67353477Y-55542023D01*
X67372524Y-55399166D02*
X67363001Y-55389642D01*
X67353477Y-55370595D01*
X67353477Y-55322976D01*
X67363001Y-55303928D01*
X67372524Y-55294404D01*
X67391572Y-55284880D01*
X67410620Y-55284880D01*
X67439191Y-55294404D01*
X67553477Y-55408690D01*
X67553477Y-55284880D01*
D12*
G04 #@! TO.C,C95*
X69841571Y-55453928D02*
X69865380Y-55477738D01*
X69889190Y-55549166D01*
X69889190Y-55596785D01*
X69865380Y-55668214D01*
X69817761Y-55715833D01*
X69770142Y-55739642D01*
X69674904Y-55763452D01*
X69603476Y-55763452D01*
X69508238Y-55739642D01*
X69460619Y-55715833D01*
X69413000Y-55668214D01*
X69389190Y-55596785D01*
X69389190Y-55549166D01*
X69413000Y-55477738D01*
X69436809Y-55453928D01*
X69889190Y-55215833D02*
X69889190Y-55120595D01*
X69865380Y-55072976D01*
X69841571Y-55049166D01*
X69770142Y-55001547D01*
X69674904Y-54977738D01*
X69484428Y-54977738D01*
X69436809Y-55001547D01*
X69413000Y-55025357D01*
X69389190Y-55072976D01*
X69389190Y-55168214D01*
X69413000Y-55215833D01*
X69436809Y-55239642D01*
X69484428Y-55263452D01*
X69603476Y-55263452D01*
X69651095Y-55239642D01*
X69674904Y-55215833D01*
X69698714Y-55168214D01*
X69698714Y-55072976D01*
X69674904Y-55025357D01*
X69651095Y-55001547D01*
X69603476Y-54977738D01*
X69389190Y-54525357D02*
X69389190Y-54763452D01*
X69627285Y-54787261D01*
X69603476Y-54763452D01*
X69579666Y-54715833D01*
X69579666Y-54596785D01*
X69603476Y-54549166D01*
X69627285Y-54525357D01*
X69674904Y-54501547D01*
X69793952Y-54501547D01*
X69841571Y-54525357D01*
X69865380Y-54549166D01*
X69889190Y-54596785D01*
X69889190Y-54715833D01*
X69865380Y-54763452D01*
X69841571Y-54787261D01*
G04 #@! TO.C,C94*
X69541571Y-54053928D02*
X69565380Y-54077738D01*
X69589190Y-54149166D01*
X69589190Y-54196785D01*
X69565380Y-54268214D01*
X69517761Y-54315833D01*
X69470142Y-54339642D01*
X69374904Y-54363452D01*
X69303476Y-54363452D01*
X69208238Y-54339642D01*
X69160619Y-54315833D01*
X69113000Y-54268214D01*
X69089190Y-54196785D01*
X69089190Y-54149166D01*
X69113000Y-54077738D01*
X69136809Y-54053928D01*
X69589190Y-53815833D02*
X69589190Y-53720595D01*
X69565380Y-53672976D01*
X69541571Y-53649166D01*
X69470142Y-53601547D01*
X69374904Y-53577738D01*
X69184428Y-53577738D01*
X69136809Y-53601547D01*
X69113000Y-53625357D01*
X69089190Y-53672976D01*
X69089190Y-53768214D01*
X69113000Y-53815833D01*
X69136809Y-53839642D01*
X69184428Y-53863452D01*
X69303476Y-53863452D01*
X69351095Y-53839642D01*
X69374904Y-53815833D01*
X69398714Y-53768214D01*
X69398714Y-53672976D01*
X69374904Y-53625357D01*
X69351095Y-53601547D01*
X69303476Y-53577738D01*
X69255857Y-53149166D02*
X69589190Y-53149166D01*
X69065380Y-53268214D02*
X69422523Y-53387261D01*
X69422523Y-53077738D01*
G04 #@! TO.C,C93*
X25941571Y-48028928D02*
X25965380Y-48052738D01*
X25989190Y-48124166D01*
X25989190Y-48171785D01*
X25965380Y-48243214D01*
X25917761Y-48290833D01*
X25870142Y-48314642D01*
X25774904Y-48338452D01*
X25703476Y-48338452D01*
X25608238Y-48314642D01*
X25560619Y-48290833D01*
X25513000Y-48243214D01*
X25489190Y-48171785D01*
X25489190Y-48124166D01*
X25513000Y-48052738D01*
X25536809Y-48028928D01*
X25989190Y-47790833D02*
X25989190Y-47695595D01*
X25965380Y-47647976D01*
X25941571Y-47624166D01*
X25870142Y-47576547D01*
X25774904Y-47552738D01*
X25584428Y-47552738D01*
X25536809Y-47576547D01*
X25513000Y-47600357D01*
X25489190Y-47647976D01*
X25489190Y-47743214D01*
X25513000Y-47790833D01*
X25536809Y-47814642D01*
X25584428Y-47838452D01*
X25703476Y-47838452D01*
X25751095Y-47814642D01*
X25774904Y-47790833D01*
X25798714Y-47743214D01*
X25798714Y-47647976D01*
X25774904Y-47600357D01*
X25751095Y-47576547D01*
X25703476Y-47552738D01*
X25489190Y-47386071D02*
X25489190Y-47076547D01*
X25679666Y-47243214D01*
X25679666Y-47171785D01*
X25703476Y-47124166D01*
X25727285Y-47100357D01*
X25774904Y-47076547D01*
X25893952Y-47076547D01*
X25941571Y-47100357D01*
X25965380Y-47124166D01*
X25989190Y-47171785D01*
X25989190Y-47314642D01*
X25965380Y-47362261D01*
X25941571Y-47386071D01*
G04 #@! TO.C,C92*
X29541571Y-47903928D02*
X29565380Y-47927738D01*
X29589190Y-47999166D01*
X29589190Y-48046785D01*
X29565380Y-48118214D01*
X29517761Y-48165833D01*
X29470142Y-48189642D01*
X29374904Y-48213452D01*
X29303476Y-48213452D01*
X29208238Y-48189642D01*
X29160619Y-48165833D01*
X29113000Y-48118214D01*
X29089190Y-48046785D01*
X29089190Y-47999166D01*
X29113000Y-47927738D01*
X29136809Y-47903928D01*
X29589190Y-47665833D02*
X29589190Y-47570595D01*
X29565380Y-47522976D01*
X29541571Y-47499166D01*
X29470142Y-47451547D01*
X29374904Y-47427738D01*
X29184428Y-47427738D01*
X29136809Y-47451547D01*
X29113000Y-47475357D01*
X29089190Y-47522976D01*
X29089190Y-47618214D01*
X29113000Y-47665833D01*
X29136809Y-47689642D01*
X29184428Y-47713452D01*
X29303476Y-47713452D01*
X29351095Y-47689642D01*
X29374904Y-47665833D01*
X29398714Y-47618214D01*
X29398714Y-47522976D01*
X29374904Y-47475357D01*
X29351095Y-47451547D01*
X29303476Y-47427738D01*
X29136809Y-47237261D02*
X29113000Y-47213452D01*
X29089190Y-47165833D01*
X29089190Y-47046785D01*
X29113000Y-46999166D01*
X29136809Y-46975357D01*
X29184428Y-46951547D01*
X29232047Y-46951547D01*
X29303476Y-46975357D01*
X29589190Y-47261071D01*
X29589190Y-46951547D01*
G04 #@! TO.C,C46*
X60691571Y-56561071D02*
X60667761Y-56584880D01*
X60596333Y-56608690D01*
X60548714Y-56608690D01*
X60477285Y-56584880D01*
X60429666Y-56537261D01*
X60405857Y-56489642D01*
X60382047Y-56394404D01*
X60382047Y-56322976D01*
X60405857Y-56227738D01*
X60429666Y-56180119D01*
X60477285Y-56132500D01*
X60548714Y-56108690D01*
X60596333Y-56108690D01*
X60667761Y-56132500D01*
X60691571Y-56156309D01*
X61120142Y-56275357D02*
X61120142Y-56608690D01*
X61001095Y-56084880D02*
X60882047Y-56442023D01*
X61191571Y-56442023D01*
X61596333Y-56108690D02*
X61501095Y-56108690D01*
X61453476Y-56132500D01*
X61429666Y-56156309D01*
X61382047Y-56227738D01*
X61358238Y-56322976D01*
X61358238Y-56513452D01*
X61382047Y-56561071D01*
X61405857Y-56584880D01*
X61453476Y-56608690D01*
X61548714Y-56608690D01*
X61596333Y-56584880D01*
X61620142Y-56561071D01*
X61643952Y-56513452D01*
X61643952Y-56394404D01*
X61620142Y-56346785D01*
X61596333Y-56322976D01*
X61548714Y-56299166D01*
X61453476Y-56299166D01*
X61405857Y-56322976D01*
X61382047Y-56346785D01*
X61358238Y-56394404D01*
G04 #@! TO.C,C48*
X34811571Y-37278928D02*
X34835380Y-37302738D01*
X34859190Y-37374166D01*
X34859190Y-37421785D01*
X34835380Y-37493214D01*
X34787761Y-37540833D01*
X34740142Y-37564642D01*
X34644904Y-37588452D01*
X34573476Y-37588452D01*
X34478238Y-37564642D01*
X34430619Y-37540833D01*
X34383000Y-37493214D01*
X34359190Y-37421785D01*
X34359190Y-37374166D01*
X34383000Y-37302738D01*
X34406809Y-37278928D01*
X34525857Y-36850357D02*
X34859190Y-36850357D01*
X34335380Y-36969404D02*
X34692523Y-37088452D01*
X34692523Y-36778928D01*
X34573476Y-36517023D02*
X34549666Y-36564642D01*
X34525857Y-36588452D01*
X34478238Y-36612261D01*
X34454428Y-36612261D01*
X34406809Y-36588452D01*
X34383000Y-36564642D01*
X34359190Y-36517023D01*
X34359190Y-36421785D01*
X34383000Y-36374166D01*
X34406809Y-36350357D01*
X34454428Y-36326547D01*
X34478238Y-36326547D01*
X34525857Y-36350357D01*
X34549666Y-36374166D01*
X34573476Y-36421785D01*
X34573476Y-36517023D01*
X34597285Y-36564642D01*
X34621095Y-36588452D01*
X34668714Y-36612261D01*
X34763952Y-36612261D01*
X34811571Y-36588452D01*
X34835380Y-36564642D01*
X34859190Y-36517023D01*
X34859190Y-36421785D01*
X34835380Y-36374166D01*
X34811571Y-36350357D01*
X34763952Y-36326547D01*
X34668714Y-36326547D01*
X34621095Y-36350357D01*
X34597285Y-36374166D01*
X34573476Y-36421785D01*
G04 #@! TO.C,C49*
X36066571Y-36311071D02*
X36042761Y-36334880D01*
X35971333Y-36358690D01*
X35923714Y-36358690D01*
X35852285Y-36334880D01*
X35804666Y-36287261D01*
X35780857Y-36239642D01*
X35757047Y-36144404D01*
X35757047Y-36072976D01*
X35780857Y-35977738D01*
X35804666Y-35930119D01*
X35852285Y-35882500D01*
X35923714Y-35858690D01*
X35971333Y-35858690D01*
X36042761Y-35882500D01*
X36066571Y-35906309D01*
X36495142Y-36025357D02*
X36495142Y-36358690D01*
X36376095Y-35834880D02*
X36257047Y-36192023D01*
X36566571Y-36192023D01*
X36780857Y-36358690D02*
X36876095Y-36358690D01*
X36923714Y-36334880D01*
X36947523Y-36311071D01*
X36995142Y-36239642D01*
X37018952Y-36144404D01*
X37018952Y-35953928D01*
X36995142Y-35906309D01*
X36971333Y-35882500D01*
X36923714Y-35858690D01*
X36828476Y-35858690D01*
X36780857Y-35882500D01*
X36757047Y-35906309D01*
X36733238Y-35953928D01*
X36733238Y-36072976D01*
X36757047Y-36120595D01*
X36780857Y-36144404D01*
X36828476Y-36168214D01*
X36923714Y-36168214D01*
X36971333Y-36144404D01*
X36995142Y-36120595D01*
X37018952Y-36072976D01*
G04 #@! TO.C,C50*
X36216571Y-35261071D02*
X36192761Y-35284880D01*
X36121333Y-35308690D01*
X36073714Y-35308690D01*
X36002285Y-35284880D01*
X35954666Y-35237261D01*
X35930857Y-35189642D01*
X35907047Y-35094404D01*
X35907047Y-35022976D01*
X35930857Y-34927738D01*
X35954666Y-34880119D01*
X36002285Y-34832500D01*
X36073714Y-34808690D01*
X36121333Y-34808690D01*
X36192761Y-34832500D01*
X36216571Y-34856309D01*
X36668952Y-34808690D02*
X36430857Y-34808690D01*
X36407047Y-35046785D01*
X36430857Y-35022976D01*
X36478476Y-34999166D01*
X36597523Y-34999166D01*
X36645142Y-35022976D01*
X36668952Y-35046785D01*
X36692761Y-35094404D01*
X36692761Y-35213452D01*
X36668952Y-35261071D01*
X36645142Y-35284880D01*
X36597523Y-35308690D01*
X36478476Y-35308690D01*
X36430857Y-35284880D01*
X36407047Y-35261071D01*
X37002285Y-34808690D02*
X37049904Y-34808690D01*
X37097523Y-34832500D01*
X37121333Y-34856309D01*
X37145142Y-34903928D01*
X37168952Y-34999166D01*
X37168952Y-35118214D01*
X37145142Y-35213452D01*
X37121333Y-35261071D01*
X37097523Y-35284880D01*
X37049904Y-35308690D01*
X37002285Y-35308690D01*
X36954666Y-35284880D01*
X36930857Y-35261071D01*
X36907047Y-35213452D01*
X36883238Y-35118214D01*
X36883238Y-34999166D01*
X36907047Y-34903928D01*
X36930857Y-34856309D01*
X36954666Y-34832500D01*
X37002285Y-34808690D01*
G04 #@! TO.C,C51*
X32341571Y-37278928D02*
X32365380Y-37302738D01*
X32389190Y-37374166D01*
X32389190Y-37421785D01*
X32365380Y-37493214D01*
X32317761Y-37540833D01*
X32270142Y-37564642D01*
X32174904Y-37588452D01*
X32103476Y-37588452D01*
X32008238Y-37564642D01*
X31960619Y-37540833D01*
X31913000Y-37493214D01*
X31889190Y-37421785D01*
X31889190Y-37374166D01*
X31913000Y-37302738D01*
X31936809Y-37278928D01*
X31889190Y-36826547D02*
X31889190Y-37064642D01*
X32127285Y-37088452D01*
X32103476Y-37064642D01*
X32079666Y-37017023D01*
X32079666Y-36897976D01*
X32103476Y-36850357D01*
X32127285Y-36826547D01*
X32174904Y-36802738D01*
X32293952Y-36802738D01*
X32341571Y-36826547D01*
X32365380Y-36850357D01*
X32389190Y-36897976D01*
X32389190Y-37017023D01*
X32365380Y-37064642D01*
X32341571Y-37088452D01*
X32389190Y-36326547D02*
X32389190Y-36612261D01*
X32389190Y-36469404D02*
X31889190Y-36469404D01*
X31960619Y-36517023D01*
X32008238Y-36564642D01*
X32032047Y-36612261D01*
G04 #@! TO.C,C59*
X35562617Y-37411425D02*
X35538807Y-37435234D01*
X35467379Y-37459044D01*
X35419760Y-37459044D01*
X35348331Y-37435234D01*
X35300712Y-37387615D01*
X35276903Y-37339996D01*
X35253093Y-37244758D01*
X35253093Y-37173330D01*
X35276903Y-37078092D01*
X35300712Y-37030473D01*
X35348331Y-36982854D01*
X35419760Y-36959044D01*
X35467379Y-36959044D01*
X35538807Y-36982854D01*
X35562617Y-37006663D01*
X36014998Y-36959044D02*
X35776903Y-36959044D01*
X35753093Y-37197139D01*
X35776903Y-37173330D01*
X35824522Y-37149520D01*
X35943569Y-37149520D01*
X35991188Y-37173330D01*
X36014998Y-37197139D01*
X36038807Y-37244758D01*
X36038807Y-37363806D01*
X36014998Y-37411425D01*
X35991188Y-37435234D01*
X35943569Y-37459044D01*
X35824522Y-37459044D01*
X35776903Y-37435234D01*
X35753093Y-37411425D01*
X36276903Y-37459044D02*
X36372141Y-37459044D01*
X36419760Y-37435234D01*
X36443569Y-37411425D01*
X36491188Y-37339996D01*
X36514998Y-37244758D01*
X36514998Y-37054282D01*
X36491188Y-37006663D01*
X36467379Y-36982854D01*
X36419760Y-36959044D01*
X36324522Y-36959044D01*
X36276903Y-36982854D01*
X36253093Y-37006663D01*
X36229284Y-37054282D01*
X36229284Y-37173330D01*
X36253093Y-37220949D01*
X36276903Y-37244758D01*
X36324522Y-37268568D01*
X36419760Y-37268568D01*
X36467379Y-37244758D01*
X36491188Y-37220949D01*
X36514998Y-37173330D01*
G04 #@! TO.C,C61*
X35741571Y-32178928D02*
X35765380Y-32202738D01*
X35789190Y-32274166D01*
X35789190Y-32321785D01*
X35765380Y-32393214D01*
X35717761Y-32440833D01*
X35670142Y-32464642D01*
X35574904Y-32488452D01*
X35503476Y-32488452D01*
X35408238Y-32464642D01*
X35360619Y-32440833D01*
X35313000Y-32393214D01*
X35289190Y-32321785D01*
X35289190Y-32274166D01*
X35313000Y-32202738D01*
X35336809Y-32178928D01*
X35289190Y-31750357D02*
X35289190Y-31845595D01*
X35313000Y-31893214D01*
X35336809Y-31917023D01*
X35408238Y-31964642D01*
X35503476Y-31988452D01*
X35693952Y-31988452D01*
X35741571Y-31964642D01*
X35765380Y-31940833D01*
X35789190Y-31893214D01*
X35789190Y-31797976D01*
X35765380Y-31750357D01*
X35741571Y-31726547D01*
X35693952Y-31702738D01*
X35574904Y-31702738D01*
X35527285Y-31726547D01*
X35503476Y-31750357D01*
X35479666Y-31797976D01*
X35479666Y-31893214D01*
X35503476Y-31940833D01*
X35527285Y-31964642D01*
X35574904Y-31988452D01*
X35789190Y-31226547D02*
X35789190Y-31512261D01*
X35789190Y-31369404D02*
X35289190Y-31369404D01*
X35360619Y-31417023D01*
X35408238Y-31464642D01*
X35432047Y-31512261D01*
G04 #@! TO.C,C62*
X36216571Y-34111071D02*
X36192761Y-34134880D01*
X36121333Y-34158690D01*
X36073714Y-34158690D01*
X36002285Y-34134880D01*
X35954666Y-34087261D01*
X35930857Y-34039642D01*
X35907047Y-33944404D01*
X35907047Y-33872976D01*
X35930857Y-33777738D01*
X35954666Y-33730119D01*
X36002285Y-33682500D01*
X36073714Y-33658690D01*
X36121333Y-33658690D01*
X36192761Y-33682500D01*
X36216571Y-33706309D01*
X36645142Y-33658690D02*
X36549904Y-33658690D01*
X36502285Y-33682500D01*
X36478476Y-33706309D01*
X36430857Y-33777738D01*
X36407047Y-33872976D01*
X36407047Y-34063452D01*
X36430857Y-34111071D01*
X36454666Y-34134880D01*
X36502285Y-34158690D01*
X36597523Y-34158690D01*
X36645142Y-34134880D01*
X36668952Y-34111071D01*
X36692761Y-34063452D01*
X36692761Y-33944404D01*
X36668952Y-33896785D01*
X36645142Y-33872976D01*
X36597523Y-33849166D01*
X36502285Y-33849166D01*
X36454666Y-33872976D01*
X36430857Y-33896785D01*
X36407047Y-33944404D01*
X36883238Y-33706309D02*
X36907047Y-33682500D01*
X36954666Y-33658690D01*
X37073714Y-33658690D01*
X37121333Y-33682500D01*
X37145142Y-33706309D01*
X37168952Y-33753928D01*
X37168952Y-33801547D01*
X37145142Y-33872976D01*
X36859428Y-34158690D01*
X37168952Y-34158690D01*
G04 #@! TO.C,C66*
X28941571Y-42161071D02*
X28917761Y-42184880D01*
X28846333Y-42208690D01*
X28798714Y-42208690D01*
X28727285Y-42184880D01*
X28679666Y-42137261D01*
X28655857Y-42089642D01*
X28632047Y-41994404D01*
X28632047Y-41922976D01*
X28655857Y-41827738D01*
X28679666Y-41780119D01*
X28727285Y-41732500D01*
X28798714Y-41708690D01*
X28846333Y-41708690D01*
X28917761Y-41732500D01*
X28941571Y-41756309D01*
X29370142Y-41708690D02*
X29274904Y-41708690D01*
X29227285Y-41732500D01*
X29203476Y-41756309D01*
X29155857Y-41827738D01*
X29132047Y-41922976D01*
X29132047Y-42113452D01*
X29155857Y-42161071D01*
X29179666Y-42184880D01*
X29227285Y-42208690D01*
X29322523Y-42208690D01*
X29370142Y-42184880D01*
X29393952Y-42161071D01*
X29417761Y-42113452D01*
X29417761Y-41994404D01*
X29393952Y-41946785D01*
X29370142Y-41922976D01*
X29322523Y-41899166D01*
X29227285Y-41899166D01*
X29179666Y-41922976D01*
X29155857Y-41946785D01*
X29132047Y-41994404D01*
X29846333Y-41708690D02*
X29751095Y-41708690D01*
X29703476Y-41732500D01*
X29679666Y-41756309D01*
X29632047Y-41827738D01*
X29608238Y-41922976D01*
X29608238Y-42113452D01*
X29632047Y-42161071D01*
X29655857Y-42184880D01*
X29703476Y-42208690D01*
X29798714Y-42208690D01*
X29846333Y-42184880D01*
X29870142Y-42161071D01*
X29893952Y-42113452D01*
X29893952Y-41994404D01*
X29870142Y-41946785D01*
X29846333Y-41922976D01*
X29798714Y-41899166D01*
X29703476Y-41899166D01*
X29655857Y-41922976D01*
X29632047Y-41946785D01*
X29608238Y-41994404D01*
G04 #@! TO.C,C112*
X69841571Y-57892023D02*
X69865380Y-57915833D01*
X69889190Y-57987261D01*
X69889190Y-58034880D01*
X69865380Y-58106309D01*
X69817761Y-58153928D01*
X69770142Y-58177738D01*
X69674904Y-58201547D01*
X69603476Y-58201547D01*
X69508238Y-58177738D01*
X69460619Y-58153928D01*
X69413000Y-58106309D01*
X69389190Y-58034880D01*
X69389190Y-57987261D01*
X69413000Y-57915833D01*
X69436809Y-57892023D01*
X69889190Y-57415833D02*
X69889190Y-57701547D01*
X69889190Y-57558690D02*
X69389190Y-57558690D01*
X69460619Y-57606309D01*
X69508238Y-57653928D01*
X69532047Y-57701547D01*
X69889190Y-56939642D02*
X69889190Y-57225357D01*
X69889190Y-57082500D02*
X69389190Y-57082500D01*
X69460619Y-57130119D01*
X69508238Y-57177738D01*
X69532047Y-57225357D01*
X69436809Y-56749166D02*
X69413000Y-56725357D01*
X69389190Y-56677738D01*
X69389190Y-56558690D01*
X69413000Y-56511071D01*
X69436809Y-56487261D01*
X69484428Y-56463452D01*
X69532047Y-56463452D01*
X69603476Y-56487261D01*
X69889190Y-56772976D01*
X69889190Y-56463452D01*
G04 #@! TO.C,C113*
X63756571Y-57515123D02*
X63780380Y-57538933D01*
X63804190Y-57610361D01*
X63804190Y-57657980D01*
X63780380Y-57729409D01*
X63732761Y-57777028D01*
X63685142Y-57800838D01*
X63589904Y-57824647D01*
X63518476Y-57824647D01*
X63423238Y-57800838D01*
X63375619Y-57777028D01*
X63328000Y-57729409D01*
X63304190Y-57657980D01*
X63304190Y-57610361D01*
X63328000Y-57538933D01*
X63351809Y-57515123D01*
X63804190Y-57038933D02*
X63804190Y-57324647D01*
X63804190Y-57181790D02*
X63304190Y-57181790D01*
X63375619Y-57229409D01*
X63423238Y-57277028D01*
X63447047Y-57324647D01*
X63804190Y-56562742D02*
X63804190Y-56848457D01*
X63804190Y-56705600D02*
X63304190Y-56705600D01*
X63375619Y-56753219D01*
X63423238Y-56800838D01*
X63447047Y-56848457D01*
X63304190Y-56396076D02*
X63304190Y-56086552D01*
X63494666Y-56253219D01*
X63494666Y-56181790D01*
X63518476Y-56134171D01*
X63542285Y-56110361D01*
X63589904Y-56086552D01*
X63708952Y-56086552D01*
X63756571Y-56110361D01*
X63780380Y-56134171D01*
X63804190Y-56181790D01*
X63804190Y-56324647D01*
X63780380Y-56372266D01*
X63756571Y-56396076D01*
G04 #@! TO.C,C100*
X69753476Y-51861071D02*
X69729666Y-51884880D01*
X69658238Y-51908690D01*
X69610619Y-51908690D01*
X69539190Y-51884880D01*
X69491571Y-51837261D01*
X69467761Y-51789642D01*
X69443952Y-51694404D01*
X69443952Y-51622976D01*
X69467761Y-51527738D01*
X69491571Y-51480119D01*
X69539190Y-51432500D01*
X69610619Y-51408690D01*
X69658238Y-51408690D01*
X69729666Y-51432500D01*
X69753476Y-51456309D01*
X70229666Y-51908690D02*
X69943952Y-51908690D01*
X70086809Y-51908690D02*
X70086809Y-51408690D01*
X70039190Y-51480119D01*
X69991571Y-51527738D01*
X69943952Y-51551547D01*
X70539190Y-51408690D02*
X70586809Y-51408690D01*
X70634428Y-51432500D01*
X70658238Y-51456309D01*
X70682047Y-51503928D01*
X70705857Y-51599166D01*
X70705857Y-51718214D01*
X70682047Y-51813452D01*
X70658238Y-51861071D01*
X70634428Y-51884880D01*
X70586809Y-51908690D01*
X70539190Y-51908690D01*
X70491571Y-51884880D01*
X70467761Y-51861071D01*
X70443952Y-51813452D01*
X70420142Y-51718214D01*
X70420142Y-51599166D01*
X70443952Y-51503928D01*
X70467761Y-51456309D01*
X70491571Y-51432500D01*
X70539190Y-51408690D01*
X71015380Y-51408690D02*
X71063000Y-51408690D01*
X71110619Y-51432500D01*
X71134428Y-51456309D01*
X71158238Y-51503928D01*
X71182047Y-51599166D01*
X71182047Y-51718214D01*
X71158238Y-51813452D01*
X71134428Y-51861071D01*
X71110619Y-51884880D01*
X71063000Y-51908690D01*
X71015380Y-51908690D01*
X70967761Y-51884880D01*
X70943952Y-51861071D01*
X70920142Y-51813452D01*
X70896333Y-51718214D01*
X70896333Y-51599166D01*
X70920142Y-51503928D01*
X70943952Y-51456309D01*
X70967761Y-51432500D01*
X71015380Y-51408690D01*
G04 #@! TO.C,FB1*
X69377285Y-50799166D02*
X69377285Y-50965833D01*
X69639190Y-50965833D02*
X69139190Y-50965833D01*
X69139190Y-50727738D01*
X69377285Y-50370595D02*
X69401095Y-50299166D01*
X69424904Y-50275357D01*
X69472523Y-50251547D01*
X69543952Y-50251547D01*
X69591571Y-50275357D01*
X69615380Y-50299166D01*
X69639190Y-50346785D01*
X69639190Y-50537261D01*
X69139190Y-50537261D01*
X69139190Y-50370595D01*
X69163000Y-50322976D01*
X69186809Y-50299166D01*
X69234428Y-50275357D01*
X69282047Y-50275357D01*
X69329666Y-50299166D01*
X69353476Y-50322976D01*
X69377285Y-50370595D01*
X69377285Y-50537261D01*
X69639190Y-49775357D02*
X69639190Y-50061071D01*
X69639190Y-49918214D02*
X69139190Y-49918214D01*
X69210619Y-49965833D01*
X69258238Y-50013452D01*
X69282047Y-50061071D01*
G04 #@! TO.C,C69*
X23928571Y-35428571D02*
X23904761Y-35452380D01*
X23833333Y-35476190D01*
X23785714Y-35476190D01*
X23714285Y-35452380D01*
X23666666Y-35404761D01*
X23642857Y-35357142D01*
X23619047Y-35261904D01*
X23619047Y-35190476D01*
X23642857Y-35095238D01*
X23666666Y-35047619D01*
X23714285Y-35000000D01*
X23785714Y-34976190D01*
X23833333Y-34976190D01*
X23904761Y-35000000D01*
X23928571Y-35023809D01*
X24357142Y-34976190D02*
X24261904Y-34976190D01*
X24214285Y-35000000D01*
X24190476Y-35023809D01*
X24142857Y-35095238D01*
X24119047Y-35190476D01*
X24119047Y-35380952D01*
X24142857Y-35428571D01*
X24166666Y-35452380D01*
X24214285Y-35476190D01*
X24309523Y-35476190D01*
X24357142Y-35452380D01*
X24380952Y-35428571D01*
X24404761Y-35380952D01*
X24404761Y-35261904D01*
X24380952Y-35214285D01*
X24357142Y-35190476D01*
X24309523Y-35166666D01*
X24214285Y-35166666D01*
X24166666Y-35190476D01*
X24142857Y-35214285D01*
X24119047Y-35261904D01*
X24642857Y-35476190D02*
X24738095Y-35476190D01*
X24785714Y-35452380D01*
X24809523Y-35428571D01*
X24857142Y-35357142D01*
X24880952Y-35261904D01*
X24880952Y-35071428D01*
X24857142Y-35023809D01*
X24833333Y-35000000D01*
X24785714Y-34976190D01*
X24690476Y-34976190D01*
X24642857Y-35000000D01*
X24619047Y-35023809D01*
X24595238Y-35071428D01*
X24595238Y-35190476D01*
X24619047Y-35238095D01*
X24642857Y-35261904D01*
X24690476Y-35285714D01*
X24785714Y-35285714D01*
X24833333Y-35261904D01*
X24857142Y-35238095D01*
X24880952Y-35190476D01*
G04 #@! TO.C,C72*
X35741571Y-41203928D02*
X35765380Y-41227738D01*
X35789190Y-41299166D01*
X35789190Y-41346785D01*
X35765380Y-41418214D01*
X35717761Y-41465833D01*
X35670142Y-41489642D01*
X35574904Y-41513452D01*
X35503476Y-41513452D01*
X35408238Y-41489642D01*
X35360619Y-41465833D01*
X35313000Y-41418214D01*
X35289190Y-41346785D01*
X35289190Y-41299166D01*
X35313000Y-41227738D01*
X35336809Y-41203928D01*
X35289190Y-41037261D02*
X35289190Y-40703928D01*
X35789190Y-40918214D01*
X35336809Y-40537261D02*
X35313000Y-40513452D01*
X35289190Y-40465833D01*
X35289190Y-40346785D01*
X35313000Y-40299166D01*
X35336809Y-40275357D01*
X35384428Y-40251547D01*
X35432047Y-40251547D01*
X35503476Y-40275357D01*
X35789190Y-40561071D01*
X35789190Y-40251547D01*
G04 #@! TO.C,C70*
X28891571Y-35791071D02*
X28867761Y-35814880D01*
X28796333Y-35838690D01*
X28748714Y-35838690D01*
X28677285Y-35814880D01*
X28629666Y-35767261D01*
X28605857Y-35719642D01*
X28582047Y-35624404D01*
X28582047Y-35552976D01*
X28605857Y-35457738D01*
X28629666Y-35410119D01*
X28677285Y-35362500D01*
X28748714Y-35338690D01*
X28796333Y-35338690D01*
X28867761Y-35362500D01*
X28891571Y-35386309D01*
X29058238Y-35338690D02*
X29391571Y-35338690D01*
X29177285Y-35838690D01*
X29677285Y-35338690D02*
X29724904Y-35338690D01*
X29772523Y-35362500D01*
X29796333Y-35386309D01*
X29820142Y-35433928D01*
X29843952Y-35529166D01*
X29843952Y-35648214D01*
X29820142Y-35743452D01*
X29796333Y-35791071D01*
X29772523Y-35814880D01*
X29724904Y-35838690D01*
X29677285Y-35838690D01*
X29629666Y-35814880D01*
X29605857Y-35791071D01*
X29582047Y-35743452D01*
X29558238Y-35648214D01*
X29558238Y-35529166D01*
X29582047Y-35433928D01*
X29605857Y-35386309D01*
X29629666Y-35362500D01*
X29677285Y-35338690D01*
G04 #@! TO.C,C15*
X53966571Y-31461071D02*
X53942761Y-31484880D01*
X53871333Y-31508690D01*
X53823714Y-31508690D01*
X53752285Y-31484880D01*
X53704666Y-31437261D01*
X53680857Y-31389642D01*
X53657047Y-31294404D01*
X53657047Y-31222976D01*
X53680857Y-31127738D01*
X53704666Y-31080119D01*
X53752285Y-31032500D01*
X53823714Y-31008690D01*
X53871333Y-31008690D01*
X53942761Y-31032500D01*
X53966571Y-31056309D01*
X54442761Y-31508690D02*
X54157047Y-31508690D01*
X54299904Y-31508690D02*
X54299904Y-31008690D01*
X54252285Y-31080119D01*
X54204666Y-31127738D01*
X54157047Y-31151547D01*
X54895142Y-31008690D02*
X54657047Y-31008690D01*
X54633238Y-31246785D01*
X54657047Y-31222976D01*
X54704666Y-31199166D01*
X54823714Y-31199166D01*
X54871333Y-31222976D01*
X54895142Y-31246785D01*
X54918952Y-31294404D01*
X54918952Y-31413452D01*
X54895142Y-31461071D01*
X54871333Y-31484880D01*
X54823714Y-31508690D01*
X54704666Y-31508690D01*
X54657047Y-31484880D01*
X54633238Y-31461071D01*
G04 #@! TO.C,C43*
X67716571Y-48811071D02*
X67692761Y-48834880D01*
X67621333Y-48858690D01*
X67573714Y-48858690D01*
X67502285Y-48834880D01*
X67454666Y-48787261D01*
X67430857Y-48739642D01*
X67407047Y-48644404D01*
X67407047Y-48572976D01*
X67430857Y-48477738D01*
X67454666Y-48430119D01*
X67502285Y-48382500D01*
X67573714Y-48358690D01*
X67621333Y-48358690D01*
X67692761Y-48382500D01*
X67716571Y-48406309D01*
X68145142Y-48525357D02*
X68145142Y-48858690D01*
X68026095Y-48334880D02*
X67907047Y-48692023D01*
X68216571Y-48692023D01*
X68359428Y-48358690D02*
X68668952Y-48358690D01*
X68502285Y-48549166D01*
X68573714Y-48549166D01*
X68621333Y-48572976D01*
X68645142Y-48596785D01*
X68668952Y-48644404D01*
X68668952Y-48763452D01*
X68645142Y-48811071D01*
X68621333Y-48834880D01*
X68573714Y-48858690D01*
X68430857Y-48858690D01*
X68383238Y-48834880D01*
X68359428Y-48811071D01*
G04 #@! TO.C,C114*
X69665476Y-48128571D02*
X69641666Y-48152380D01*
X69570238Y-48176190D01*
X69522619Y-48176190D01*
X69451190Y-48152380D01*
X69403571Y-48104761D01*
X69379761Y-48057142D01*
X69355952Y-47961904D01*
X69355952Y-47890476D01*
X69379761Y-47795238D01*
X69403571Y-47747619D01*
X69451190Y-47700000D01*
X69522619Y-47676190D01*
X69570238Y-47676190D01*
X69641666Y-47700000D01*
X69665476Y-47723809D01*
X70141666Y-48176190D02*
X69855952Y-48176190D01*
X69998809Y-48176190D02*
X69998809Y-47676190D01*
X69951190Y-47747619D01*
X69903571Y-47795238D01*
X69855952Y-47819047D01*
X70617857Y-48176190D02*
X70332142Y-48176190D01*
X70475000Y-48176190D02*
X70475000Y-47676190D01*
X70427380Y-47747619D01*
X70379761Y-47795238D01*
X70332142Y-47819047D01*
X71046428Y-47842857D02*
X71046428Y-48176190D01*
X70927380Y-47652380D02*
X70808333Y-48009523D01*
X71117857Y-48009523D01*
G04 #@! TO.C,C44*
X67491571Y-46503928D02*
X67515380Y-46527738D01*
X67539190Y-46599166D01*
X67539190Y-46646785D01*
X67515380Y-46718214D01*
X67467761Y-46765833D01*
X67420142Y-46789642D01*
X67324904Y-46813452D01*
X67253476Y-46813452D01*
X67158238Y-46789642D01*
X67110619Y-46765833D01*
X67063000Y-46718214D01*
X67039190Y-46646785D01*
X67039190Y-46599166D01*
X67063000Y-46527738D01*
X67086809Y-46503928D01*
X67205857Y-46075357D02*
X67539190Y-46075357D01*
X67015380Y-46194404D02*
X67372523Y-46313452D01*
X67372523Y-46003928D01*
X67205857Y-45599166D02*
X67539190Y-45599166D01*
X67015380Y-45718214D02*
X67372523Y-45837261D01*
X67372523Y-45527738D01*
G04 #@! TO.C,C103*
X66728476Y-47411071D02*
X66704666Y-47434880D01*
X66633238Y-47458690D01*
X66585619Y-47458690D01*
X66514190Y-47434880D01*
X66466571Y-47387261D01*
X66442761Y-47339642D01*
X66418952Y-47244404D01*
X66418952Y-47172976D01*
X66442761Y-47077738D01*
X66466571Y-47030119D01*
X66514190Y-46982500D01*
X66585619Y-46958690D01*
X66633238Y-46958690D01*
X66704666Y-46982500D01*
X66728476Y-47006309D01*
X67204666Y-47458690D02*
X66918952Y-47458690D01*
X67061809Y-47458690D02*
X67061809Y-46958690D01*
X67014190Y-47030119D01*
X66966571Y-47077738D01*
X66918952Y-47101547D01*
X67514190Y-46958690D02*
X67561809Y-46958690D01*
X67609428Y-46982500D01*
X67633238Y-47006309D01*
X67657047Y-47053928D01*
X67680857Y-47149166D01*
X67680857Y-47268214D01*
X67657047Y-47363452D01*
X67633238Y-47411071D01*
X67609428Y-47434880D01*
X67561809Y-47458690D01*
X67514190Y-47458690D01*
X67466571Y-47434880D01*
X67442761Y-47411071D01*
X67418952Y-47363452D01*
X67395142Y-47268214D01*
X67395142Y-47149166D01*
X67418952Y-47053928D01*
X67442761Y-47006309D01*
X67466571Y-46982500D01*
X67514190Y-46958690D01*
X67847523Y-46958690D02*
X68157047Y-46958690D01*
X67990380Y-47149166D01*
X68061809Y-47149166D01*
X68109428Y-47172976D01*
X68133238Y-47196785D01*
X68157047Y-47244404D01*
X68157047Y-47363452D01*
X68133238Y-47411071D01*
X68109428Y-47434880D01*
X68061809Y-47458690D01*
X67918952Y-47458690D01*
X67871333Y-47434880D01*
X67847523Y-47411071D01*
G04 #@! TO.C,C47*
X58362617Y-59661425D02*
X58338807Y-59685234D01*
X58267379Y-59709044D01*
X58219760Y-59709044D01*
X58148331Y-59685234D01*
X58100712Y-59637615D01*
X58076903Y-59589996D01*
X58053093Y-59494758D01*
X58053093Y-59423330D01*
X58076903Y-59328092D01*
X58100712Y-59280473D01*
X58148331Y-59232854D01*
X58219760Y-59209044D01*
X58267379Y-59209044D01*
X58338807Y-59232854D01*
X58362617Y-59256663D01*
X58791188Y-59375711D02*
X58791188Y-59709044D01*
X58672141Y-59185234D02*
X58553093Y-59542377D01*
X58862617Y-59542377D01*
X59005474Y-59209044D02*
X59338807Y-59209044D01*
X59124522Y-59709044D01*
G04 #@! TO.C,R16*
X71089190Y-62053928D02*
X70851095Y-62220595D01*
X71089190Y-62339642D02*
X70589190Y-62339642D01*
X70589190Y-62149166D01*
X70613000Y-62101547D01*
X70636809Y-62077738D01*
X70684428Y-62053928D01*
X70755857Y-62053928D01*
X70803476Y-62077738D01*
X70827285Y-62101547D01*
X70851095Y-62149166D01*
X70851095Y-62339642D01*
X71089190Y-61577738D02*
X71089190Y-61863452D01*
X71089190Y-61720595D02*
X70589190Y-61720595D01*
X70660619Y-61768214D01*
X70708238Y-61815833D01*
X70732047Y-61863452D01*
X70589190Y-61149166D02*
X70589190Y-61244404D01*
X70613000Y-61292023D01*
X70636809Y-61315833D01*
X70708238Y-61363452D01*
X70803476Y-61387261D01*
X70993952Y-61387261D01*
X71041571Y-61363452D01*
X71065380Y-61339642D01*
X71089190Y-61292023D01*
X71089190Y-61196785D01*
X71065380Y-61149166D01*
X71041571Y-61125357D01*
X70993952Y-61101547D01*
X70874904Y-61101547D01*
X70827285Y-61125357D01*
X70803476Y-61149166D01*
X70779666Y-61196785D01*
X70779666Y-61292023D01*
X70803476Y-61339642D01*
X70827285Y-61363452D01*
X70874904Y-61387261D01*
G04 #@! TO.C,R17*
X73839190Y-62053928D02*
X73601095Y-62220595D01*
X73839190Y-62339642D02*
X73339190Y-62339642D01*
X73339190Y-62149166D01*
X73363000Y-62101547D01*
X73386809Y-62077738D01*
X73434428Y-62053928D01*
X73505857Y-62053928D01*
X73553476Y-62077738D01*
X73577285Y-62101547D01*
X73601095Y-62149166D01*
X73601095Y-62339642D01*
X73839190Y-61577738D02*
X73839190Y-61863452D01*
X73839190Y-61720595D02*
X73339190Y-61720595D01*
X73410619Y-61768214D01*
X73458238Y-61815833D01*
X73482047Y-61863452D01*
X73339190Y-61411071D02*
X73339190Y-61077738D01*
X73839190Y-61292023D01*
G04 #@! TO.C,C16*
X57041571Y-31031071D02*
X57017761Y-31054880D01*
X56946333Y-31078690D01*
X56898714Y-31078690D01*
X56827285Y-31054880D01*
X56779666Y-31007261D01*
X56755857Y-30959642D01*
X56732047Y-30864404D01*
X56732047Y-30792976D01*
X56755857Y-30697738D01*
X56779666Y-30650119D01*
X56827285Y-30602500D01*
X56898714Y-30578690D01*
X56946333Y-30578690D01*
X57017761Y-30602500D01*
X57041571Y-30626309D01*
X57517761Y-31078690D02*
X57232047Y-31078690D01*
X57374904Y-31078690D02*
X57374904Y-30578690D01*
X57327285Y-30650119D01*
X57279666Y-30697738D01*
X57232047Y-30721547D01*
X57946333Y-30578690D02*
X57851095Y-30578690D01*
X57803476Y-30602500D01*
X57779666Y-30626309D01*
X57732047Y-30697738D01*
X57708238Y-30792976D01*
X57708238Y-30983452D01*
X57732047Y-31031071D01*
X57755857Y-31054880D01*
X57803476Y-31078690D01*
X57898714Y-31078690D01*
X57946333Y-31054880D01*
X57970142Y-31031071D01*
X57993952Y-30983452D01*
X57993952Y-30864404D01*
X57970142Y-30816785D01*
X57946333Y-30792976D01*
X57898714Y-30769166D01*
X57803476Y-30769166D01*
X57755857Y-30792976D01*
X57732047Y-30816785D01*
X57708238Y-30864404D01*
G04 #@! TO.C,C83*
X60288571Y-64476428D02*
X60312380Y-64500238D01*
X60336190Y-64571666D01*
X60336190Y-64619285D01*
X60312380Y-64690714D01*
X60264761Y-64738333D01*
X60217142Y-64762142D01*
X60121904Y-64785952D01*
X60050476Y-64785952D01*
X59955238Y-64762142D01*
X59907619Y-64738333D01*
X59860000Y-64690714D01*
X59836190Y-64619285D01*
X59836190Y-64571666D01*
X59860000Y-64500238D01*
X59883809Y-64476428D01*
X60050476Y-64190714D02*
X60026666Y-64238333D01*
X60002857Y-64262142D01*
X59955238Y-64285952D01*
X59931428Y-64285952D01*
X59883809Y-64262142D01*
X59860000Y-64238333D01*
X59836190Y-64190714D01*
X59836190Y-64095476D01*
X59860000Y-64047857D01*
X59883809Y-64024047D01*
X59931428Y-64000238D01*
X59955238Y-64000238D01*
X60002857Y-64024047D01*
X60026666Y-64047857D01*
X60050476Y-64095476D01*
X60050476Y-64190714D01*
X60074285Y-64238333D01*
X60098095Y-64262142D01*
X60145714Y-64285952D01*
X60240952Y-64285952D01*
X60288571Y-64262142D01*
X60312380Y-64238333D01*
X60336190Y-64190714D01*
X60336190Y-64095476D01*
X60312380Y-64047857D01*
X60288571Y-64024047D01*
X60240952Y-64000238D01*
X60145714Y-64000238D01*
X60098095Y-64024047D01*
X60074285Y-64047857D01*
X60050476Y-64095476D01*
X59836190Y-63833571D02*
X59836190Y-63524047D01*
X60026666Y-63690714D01*
X60026666Y-63619285D01*
X60050476Y-63571666D01*
X60074285Y-63547857D01*
X60121904Y-63524047D01*
X60240952Y-63524047D01*
X60288571Y-63547857D01*
X60312380Y-63571666D01*
X60336190Y-63619285D01*
X60336190Y-63762142D01*
X60312380Y-63809761D01*
X60288571Y-63833571D01*
G04 #@! TO.C,C79*
X58778571Y-75528571D02*
X58754761Y-75552380D01*
X58683333Y-75576190D01*
X58635714Y-75576190D01*
X58564285Y-75552380D01*
X58516666Y-75504761D01*
X58492857Y-75457142D01*
X58469047Y-75361904D01*
X58469047Y-75290476D01*
X58492857Y-75195238D01*
X58516666Y-75147619D01*
X58564285Y-75100000D01*
X58635714Y-75076190D01*
X58683333Y-75076190D01*
X58754761Y-75100000D01*
X58778571Y-75123809D01*
X58945238Y-75076190D02*
X59278571Y-75076190D01*
X59064285Y-75576190D01*
X59492857Y-75576190D02*
X59588095Y-75576190D01*
X59635714Y-75552380D01*
X59659523Y-75528571D01*
X59707142Y-75457142D01*
X59730952Y-75361904D01*
X59730952Y-75171428D01*
X59707142Y-75123809D01*
X59683333Y-75100000D01*
X59635714Y-75076190D01*
X59540476Y-75076190D01*
X59492857Y-75100000D01*
X59469047Y-75123809D01*
X59445238Y-75171428D01*
X59445238Y-75290476D01*
X59469047Y-75338095D01*
X59492857Y-75361904D01*
X59540476Y-75385714D01*
X59635714Y-75385714D01*
X59683333Y-75361904D01*
X59707142Y-75338095D01*
X59730952Y-75290476D01*
G04 #@! TO.C,C85*
X49828571Y-66778571D02*
X49804761Y-66802380D01*
X49733333Y-66826190D01*
X49685714Y-66826190D01*
X49614285Y-66802380D01*
X49566666Y-66754761D01*
X49542857Y-66707142D01*
X49519047Y-66611904D01*
X49519047Y-66540476D01*
X49542857Y-66445238D01*
X49566666Y-66397619D01*
X49614285Y-66350000D01*
X49685714Y-66326190D01*
X49733333Y-66326190D01*
X49804761Y-66350000D01*
X49828571Y-66373809D01*
X50114285Y-66540476D02*
X50066666Y-66516666D01*
X50042857Y-66492857D01*
X50019047Y-66445238D01*
X50019047Y-66421428D01*
X50042857Y-66373809D01*
X50066666Y-66350000D01*
X50114285Y-66326190D01*
X50209523Y-66326190D01*
X50257142Y-66350000D01*
X50280952Y-66373809D01*
X50304761Y-66421428D01*
X50304761Y-66445238D01*
X50280952Y-66492857D01*
X50257142Y-66516666D01*
X50209523Y-66540476D01*
X50114285Y-66540476D01*
X50066666Y-66564285D01*
X50042857Y-66588095D01*
X50019047Y-66635714D01*
X50019047Y-66730952D01*
X50042857Y-66778571D01*
X50066666Y-66802380D01*
X50114285Y-66826190D01*
X50209523Y-66826190D01*
X50257142Y-66802380D01*
X50280952Y-66778571D01*
X50304761Y-66730952D01*
X50304761Y-66635714D01*
X50280952Y-66588095D01*
X50257142Y-66564285D01*
X50209523Y-66540476D01*
X50757142Y-66326190D02*
X50519047Y-66326190D01*
X50495238Y-66564285D01*
X50519047Y-66540476D01*
X50566666Y-66516666D01*
X50685714Y-66516666D01*
X50733333Y-66540476D01*
X50757142Y-66564285D01*
X50780952Y-66611904D01*
X50780952Y-66730952D01*
X50757142Y-66778571D01*
X50733333Y-66802380D01*
X50685714Y-66826190D01*
X50566666Y-66826190D01*
X50519047Y-66802380D01*
X50495238Y-66778571D01*
G04 #@! TO.C,R37*
X49878571Y-64826190D02*
X49711904Y-64588095D01*
X49592857Y-64826190D02*
X49592857Y-64326190D01*
X49783333Y-64326190D01*
X49830952Y-64350000D01*
X49854761Y-64373809D01*
X49878571Y-64421428D01*
X49878571Y-64492857D01*
X49854761Y-64540476D01*
X49830952Y-64564285D01*
X49783333Y-64588095D01*
X49592857Y-64588095D01*
X50045238Y-64326190D02*
X50354761Y-64326190D01*
X50188095Y-64516666D01*
X50259523Y-64516666D01*
X50307142Y-64540476D01*
X50330952Y-64564285D01*
X50354761Y-64611904D01*
X50354761Y-64730952D01*
X50330952Y-64778571D01*
X50307142Y-64802380D01*
X50259523Y-64826190D01*
X50116666Y-64826190D01*
X50069047Y-64802380D01*
X50045238Y-64778571D01*
X50521428Y-64326190D02*
X50854761Y-64326190D01*
X50640476Y-64826190D01*
G04 #@! TO.C,C82*
X56778571Y-75528571D02*
X56754761Y-75552380D01*
X56683333Y-75576190D01*
X56635714Y-75576190D01*
X56564285Y-75552380D01*
X56516666Y-75504761D01*
X56492857Y-75457142D01*
X56469047Y-75361904D01*
X56469047Y-75290476D01*
X56492857Y-75195238D01*
X56516666Y-75147619D01*
X56564285Y-75100000D01*
X56635714Y-75076190D01*
X56683333Y-75076190D01*
X56754761Y-75100000D01*
X56778571Y-75123809D01*
X57064285Y-75290476D02*
X57016666Y-75266666D01*
X56992857Y-75242857D01*
X56969047Y-75195238D01*
X56969047Y-75171428D01*
X56992857Y-75123809D01*
X57016666Y-75100000D01*
X57064285Y-75076190D01*
X57159523Y-75076190D01*
X57207142Y-75100000D01*
X57230952Y-75123809D01*
X57254761Y-75171428D01*
X57254761Y-75195238D01*
X57230952Y-75242857D01*
X57207142Y-75266666D01*
X57159523Y-75290476D01*
X57064285Y-75290476D01*
X57016666Y-75314285D01*
X56992857Y-75338095D01*
X56969047Y-75385714D01*
X56969047Y-75480952D01*
X56992857Y-75528571D01*
X57016666Y-75552380D01*
X57064285Y-75576190D01*
X57159523Y-75576190D01*
X57207142Y-75552380D01*
X57230952Y-75528571D01*
X57254761Y-75480952D01*
X57254761Y-75385714D01*
X57230952Y-75338095D01*
X57207142Y-75314285D01*
X57159523Y-75290476D01*
X57445238Y-75123809D02*
X57469047Y-75100000D01*
X57516666Y-75076190D01*
X57635714Y-75076190D01*
X57683333Y-75100000D01*
X57707142Y-75123809D01*
X57730952Y-75171428D01*
X57730952Y-75219047D01*
X57707142Y-75290476D01*
X57421428Y-75576190D01*
X57730952Y-75576190D01*
D10*
G04 #@! TO.C,Y2*
X46723809Y-75126190D02*
X46723809Y-75602380D01*
X46390476Y-74602380D02*
X46723809Y-75126190D01*
X47057142Y-74602380D01*
X47342857Y-74697619D02*
X47390476Y-74650000D01*
X47485714Y-74602380D01*
X47723809Y-74602380D01*
X47819047Y-74650000D01*
X47866666Y-74697619D01*
X47914285Y-74792857D01*
X47914285Y-74888095D01*
X47866666Y-75030952D01*
X47295238Y-75602380D01*
X47914285Y-75602380D01*
D12*
G04 #@! TO.C,R32*
X54378571Y-75676190D02*
X54211904Y-75438095D01*
X54092857Y-75676190D02*
X54092857Y-75176190D01*
X54283333Y-75176190D01*
X54330952Y-75200000D01*
X54354761Y-75223809D01*
X54378571Y-75271428D01*
X54378571Y-75342857D01*
X54354761Y-75390476D01*
X54330952Y-75414285D01*
X54283333Y-75438095D01*
X54092857Y-75438095D01*
X54545238Y-75176190D02*
X54854761Y-75176190D01*
X54688095Y-75366666D01*
X54759523Y-75366666D01*
X54807142Y-75390476D01*
X54830952Y-75414285D01*
X54854761Y-75461904D01*
X54854761Y-75580952D01*
X54830952Y-75628571D01*
X54807142Y-75652380D01*
X54759523Y-75676190D01*
X54616666Y-75676190D01*
X54569047Y-75652380D01*
X54545238Y-75628571D01*
X55045238Y-75223809D02*
X55069047Y-75200000D01*
X55116666Y-75176190D01*
X55235714Y-75176190D01*
X55283333Y-75200000D01*
X55307142Y-75223809D01*
X55330952Y-75271428D01*
X55330952Y-75319047D01*
X55307142Y-75390476D01*
X55021428Y-75676190D01*
X55330952Y-75676190D01*
G04 #@! TO.C,C78*
X52328571Y-75478571D02*
X52304761Y-75502380D01*
X52233333Y-75526190D01*
X52185714Y-75526190D01*
X52114285Y-75502380D01*
X52066666Y-75454761D01*
X52042857Y-75407142D01*
X52019047Y-75311904D01*
X52019047Y-75240476D01*
X52042857Y-75145238D01*
X52066666Y-75097619D01*
X52114285Y-75050000D01*
X52185714Y-75026190D01*
X52233333Y-75026190D01*
X52304761Y-75050000D01*
X52328571Y-75073809D01*
X52495238Y-75026190D02*
X52828571Y-75026190D01*
X52614285Y-75526190D01*
X53090476Y-75240476D02*
X53042857Y-75216666D01*
X53019047Y-75192857D01*
X52995238Y-75145238D01*
X52995238Y-75121428D01*
X53019047Y-75073809D01*
X53042857Y-75050000D01*
X53090476Y-75026190D01*
X53185714Y-75026190D01*
X53233333Y-75050000D01*
X53257142Y-75073809D01*
X53280952Y-75121428D01*
X53280952Y-75145238D01*
X53257142Y-75192857D01*
X53233333Y-75216666D01*
X53185714Y-75240476D01*
X53090476Y-75240476D01*
X53042857Y-75264285D01*
X53019047Y-75288095D01*
X52995238Y-75335714D01*
X52995238Y-75430952D01*
X53019047Y-75478571D01*
X53042857Y-75502380D01*
X53090476Y-75526190D01*
X53185714Y-75526190D01*
X53233333Y-75502380D01*
X53257142Y-75478571D01*
X53280952Y-75430952D01*
X53280952Y-75335714D01*
X53257142Y-75288095D01*
X53233333Y-75264285D01*
X53185714Y-75240476D01*
G04 #@! TO.C,R34*
X60126190Y-61821428D02*
X59888095Y-61988095D01*
X60126190Y-62107142D02*
X59626190Y-62107142D01*
X59626190Y-61916666D01*
X59650000Y-61869047D01*
X59673809Y-61845238D01*
X59721428Y-61821428D01*
X59792857Y-61821428D01*
X59840476Y-61845238D01*
X59864285Y-61869047D01*
X59888095Y-61916666D01*
X59888095Y-62107142D01*
X59626190Y-61654761D02*
X59626190Y-61345238D01*
X59816666Y-61511904D01*
X59816666Y-61440476D01*
X59840476Y-61392857D01*
X59864285Y-61369047D01*
X59911904Y-61345238D01*
X60030952Y-61345238D01*
X60078571Y-61369047D01*
X60102380Y-61392857D01*
X60126190Y-61440476D01*
X60126190Y-61583333D01*
X60102380Y-61630952D01*
X60078571Y-61654761D01*
X59792857Y-60916666D02*
X60126190Y-60916666D01*
X59602380Y-61035714D02*
X59959523Y-61154761D01*
X59959523Y-60845238D01*
G04 #@! TO.C,R33*
X57476190Y-61821428D02*
X57238095Y-61988095D01*
X57476190Y-62107142D02*
X56976190Y-62107142D01*
X56976190Y-61916666D01*
X57000000Y-61869047D01*
X57023809Y-61845238D01*
X57071428Y-61821428D01*
X57142857Y-61821428D01*
X57190476Y-61845238D01*
X57214285Y-61869047D01*
X57238095Y-61916666D01*
X57238095Y-62107142D01*
X56976190Y-61654761D02*
X56976190Y-61345238D01*
X57166666Y-61511904D01*
X57166666Y-61440476D01*
X57190476Y-61392857D01*
X57214285Y-61369047D01*
X57261904Y-61345238D01*
X57380952Y-61345238D01*
X57428571Y-61369047D01*
X57452380Y-61392857D01*
X57476190Y-61440476D01*
X57476190Y-61583333D01*
X57452380Y-61630952D01*
X57428571Y-61654761D01*
X56976190Y-61178571D02*
X56976190Y-60869047D01*
X57166666Y-61035714D01*
X57166666Y-60964285D01*
X57190476Y-60916666D01*
X57214285Y-60892857D01*
X57261904Y-60869047D01*
X57380952Y-60869047D01*
X57428571Y-60892857D01*
X57452380Y-60916666D01*
X57476190Y-60964285D01*
X57476190Y-61107142D01*
X57452380Y-61154761D01*
X57428571Y-61178571D01*
G04 #@! TO.C,C81*
X56628571Y-64571428D02*
X56652380Y-64595238D01*
X56676190Y-64666666D01*
X56676190Y-64714285D01*
X56652380Y-64785714D01*
X56604761Y-64833333D01*
X56557142Y-64857142D01*
X56461904Y-64880952D01*
X56390476Y-64880952D01*
X56295238Y-64857142D01*
X56247619Y-64833333D01*
X56200000Y-64785714D01*
X56176190Y-64714285D01*
X56176190Y-64666666D01*
X56200000Y-64595238D01*
X56223809Y-64571428D01*
X56390476Y-64285714D02*
X56366666Y-64333333D01*
X56342857Y-64357142D01*
X56295238Y-64380952D01*
X56271428Y-64380952D01*
X56223809Y-64357142D01*
X56200000Y-64333333D01*
X56176190Y-64285714D01*
X56176190Y-64190476D01*
X56200000Y-64142857D01*
X56223809Y-64119047D01*
X56271428Y-64095238D01*
X56295238Y-64095238D01*
X56342857Y-64119047D01*
X56366666Y-64142857D01*
X56390476Y-64190476D01*
X56390476Y-64285714D01*
X56414285Y-64333333D01*
X56438095Y-64357142D01*
X56485714Y-64380952D01*
X56580952Y-64380952D01*
X56628571Y-64357142D01*
X56652380Y-64333333D01*
X56676190Y-64285714D01*
X56676190Y-64190476D01*
X56652380Y-64142857D01*
X56628571Y-64119047D01*
X56580952Y-64095238D01*
X56485714Y-64095238D01*
X56438095Y-64119047D01*
X56414285Y-64142857D01*
X56390476Y-64190476D01*
X56676190Y-63619047D02*
X56676190Y-63904761D01*
X56676190Y-63761904D02*
X56176190Y-63761904D01*
X56247619Y-63809523D01*
X56295238Y-63857142D01*
X56319047Y-63904761D01*
G04 #@! TO.C,C88*
X62353571Y-66138571D02*
X62329761Y-66162380D01*
X62258333Y-66186190D01*
X62210714Y-66186190D01*
X62139285Y-66162380D01*
X62091666Y-66114761D01*
X62067857Y-66067142D01*
X62044047Y-65971904D01*
X62044047Y-65900476D01*
X62067857Y-65805238D01*
X62091666Y-65757619D01*
X62139285Y-65710000D01*
X62210714Y-65686190D01*
X62258333Y-65686190D01*
X62329761Y-65710000D01*
X62353571Y-65733809D01*
X62639285Y-65900476D02*
X62591666Y-65876666D01*
X62567857Y-65852857D01*
X62544047Y-65805238D01*
X62544047Y-65781428D01*
X62567857Y-65733809D01*
X62591666Y-65710000D01*
X62639285Y-65686190D01*
X62734523Y-65686190D01*
X62782142Y-65710000D01*
X62805952Y-65733809D01*
X62829761Y-65781428D01*
X62829761Y-65805238D01*
X62805952Y-65852857D01*
X62782142Y-65876666D01*
X62734523Y-65900476D01*
X62639285Y-65900476D01*
X62591666Y-65924285D01*
X62567857Y-65948095D01*
X62544047Y-65995714D01*
X62544047Y-66090952D01*
X62567857Y-66138571D01*
X62591666Y-66162380D01*
X62639285Y-66186190D01*
X62734523Y-66186190D01*
X62782142Y-66162380D01*
X62805952Y-66138571D01*
X62829761Y-66090952D01*
X62829761Y-65995714D01*
X62805952Y-65948095D01*
X62782142Y-65924285D01*
X62734523Y-65900476D01*
X63115476Y-65900476D02*
X63067857Y-65876666D01*
X63044047Y-65852857D01*
X63020238Y-65805238D01*
X63020238Y-65781428D01*
X63044047Y-65733809D01*
X63067857Y-65710000D01*
X63115476Y-65686190D01*
X63210714Y-65686190D01*
X63258333Y-65710000D01*
X63282142Y-65733809D01*
X63305952Y-65781428D01*
X63305952Y-65805238D01*
X63282142Y-65852857D01*
X63258333Y-65876666D01*
X63210714Y-65900476D01*
X63115476Y-65900476D01*
X63067857Y-65924285D01*
X63044047Y-65948095D01*
X63020238Y-65995714D01*
X63020238Y-66090952D01*
X63044047Y-66138571D01*
X63067857Y-66162380D01*
X63115476Y-66186190D01*
X63210714Y-66186190D01*
X63258333Y-66162380D01*
X63282142Y-66138571D01*
X63305952Y-66090952D01*
X63305952Y-65995714D01*
X63282142Y-65948095D01*
X63258333Y-65924285D01*
X63210714Y-65900476D01*
G04 #@! TO.C,C84*
X54228571Y-63171428D02*
X54252380Y-63195238D01*
X54276190Y-63266666D01*
X54276190Y-63314285D01*
X54252380Y-63385714D01*
X54204761Y-63433333D01*
X54157142Y-63457142D01*
X54061904Y-63480952D01*
X53990476Y-63480952D01*
X53895238Y-63457142D01*
X53847619Y-63433333D01*
X53800000Y-63385714D01*
X53776190Y-63314285D01*
X53776190Y-63266666D01*
X53800000Y-63195238D01*
X53823809Y-63171428D01*
X53990476Y-62885714D02*
X53966666Y-62933333D01*
X53942857Y-62957142D01*
X53895238Y-62980952D01*
X53871428Y-62980952D01*
X53823809Y-62957142D01*
X53800000Y-62933333D01*
X53776190Y-62885714D01*
X53776190Y-62790476D01*
X53800000Y-62742857D01*
X53823809Y-62719047D01*
X53871428Y-62695238D01*
X53895238Y-62695238D01*
X53942857Y-62719047D01*
X53966666Y-62742857D01*
X53990476Y-62790476D01*
X53990476Y-62885714D01*
X54014285Y-62933333D01*
X54038095Y-62957142D01*
X54085714Y-62980952D01*
X54180952Y-62980952D01*
X54228571Y-62957142D01*
X54252380Y-62933333D01*
X54276190Y-62885714D01*
X54276190Y-62790476D01*
X54252380Y-62742857D01*
X54228571Y-62719047D01*
X54180952Y-62695238D01*
X54085714Y-62695238D01*
X54038095Y-62719047D01*
X54014285Y-62742857D01*
X53990476Y-62790476D01*
X53942857Y-62266666D02*
X54276190Y-62266666D01*
X53752380Y-62385714D02*
X54109523Y-62504761D01*
X54109523Y-62195238D01*
G04 #@! TO.C,C86*
X51128571Y-68128571D02*
X51104761Y-68152380D01*
X51033333Y-68176190D01*
X50985714Y-68176190D01*
X50914285Y-68152380D01*
X50866666Y-68104761D01*
X50842857Y-68057142D01*
X50819047Y-67961904D01*
X50819047Y-67890476D01*
X50842857Y-67795238D01*
X50866666Y-67747619D01*
X50914285Y-67700000D01*
X50985714Y-67676190D01*
X51033333Y-67676190D01*
X51104761Y-67700000D01*
X51128571Y-67723809D01*
X51414285Y-67890476D02*
X51366666Y-67866666D01*
X51342857Y-67842857D01*
X51319047Y-67795238D01*
X51319047Y-67771428D01*
X51342857Y-67723809D01*
X51366666Y-67700000D01*
X51414285Y-67676190D01*
X51509523Y-67676190D01*
X51557142Y-67700000D01*
X51580952Y-67723809D01*
X51604761Y-67771428D01*
X51604761Y-67795238D01*
X51580952Y-67842857D01*
X51557142Y-67866666D01*
X51509523Y-67890476D01*
X51414285Y-67890476D01*
X51366666Y-67914285D01*
X51342857Y-67938095D01*
X51319047Y-67985714D01*
X51319047Y-68080952D01*
X51342857Y-68128571D01*
X51366666Y-68152380D01*
X51414285Y-68176190D01*
X51509523Y-68176190D01*
X51557142Y-68152380D01*
X51580952Y-68128571D01*
X51604761Y-68080952D01*
X51604761Y-67985714D01*
X51580952Y-67938095D01*
X51557142Y-67914285D01*
X51509523Y-67890476D01*
X52033333Y-67676190D02*
X51938095Y-67676190D01*
X51890476Y-67700000D01*
X51866666Y-67723809D01*
X51819047Y-67795238D01*
X51795238Y-67890476D01*
X51795238Y-68080952D01*
X51819047Y-68128571D01*
X51842857Y-68152380D01*
X51890476Y-68176190D01*
X51985714Y-68176190D01*
X52033333Y-68152380D01*
X52057142Y-68128571D01*
X52080952Y-68080952D01*
X52080952Y-67961904D01*
X52057142Y-67914285D01*
X52033333Y-67890476D01*
X51985714Y-67866666D01*
X51890476Y-67866666D01*
X51842857Y-67890476D01*
X51819047Y-67914285D01*
X51795238Y-67961904D01*
G04 #@! TO.C,R36*
X49828571Y-65926190D02*
X49661904Y-65688095D01*
X49542857Y-65926190D02*
X49542857Y-65426190D01*
X49733333Y-65426190D01*
X49780952Y-65450000D01*
X49804761Y-65473809D01*
X49828571Y-65521428D01*
X49828571Y-65592857D01*
X49804761Y-65640476D01*
X49780952Y-65664285D01*
X49733333Y-65688095D01*
X49542857Y-65688095D01*
X49995238Y-65426190D02*
X50304761Y-65426190D01*
X50138095Y-65616666D01*
X50209523Y-65616666D01*
X50257142Y-65640476D01*
X50280952Y-65664285D01*
X50304761Y-65711904D01*
X50304761Y-65830952D01*
X50280952Y-65878571D01*
X50257142Y-65902380D01*
X50209523Y-65926190D01*
X50066666Y-65926190D01*
X50019047Y-65902380D01*
X49995238Y-65878571D01*
X50733333Y-65426190D02*
X50638095Y-65426190D01*
X50590476Y-65450000D01*
X50566666Y-65473809D01*
X50519047Y-65545238D01*
X50495238Y-65640476D01*
X50495238Y-65830952D01*
X50519047Y-65878571D01*
X50542857Y-65902380D01*
X50590476Y-65926190D01*
X50685714Y-65926190D01*
X50733333Y-65902380D01*
X50757142Y-65878571D01*
X50780952Y-65830952D01*
X50780952Y-65711904D01*
X50757142Y-65664285D01*
X50733333Y-65640476D01*
X50685714Y-65616666D01*
X50590476Y-65616666D01*
X50542857Y-65640476D01*
X50519047Y-65664285D01*
X50495238Y-65711904D01*
G04 #@! TO.C,C90*
X60848571Y-64726427D02*
X60872380Y-64750237D01*
X60896190Y-64821665D01*
X60896190Y-64869284D01*
X60872380Y-64940713D01*
X60824761Y-64988332D01*
X60777142Y-65012141D01*
X60681904Y-65035951D01*
X60610476Y-65035951D01*
X60515238Y-65012141D01*
X60467619Y-64988332D01*
X60420000Y-64940713D01*
X60396190Y-64869284D01*
X60396190Y-64821665D01*
X60420000Y-64750237D01*
X60443809Y-64726427D01*
X60896190Y-64488332D02*
X60896190Y-64393094D01*
X60872380Y-64345475D01*
X60848571Y-64321665D01*
X60777142Y-64274046D01*
X60681904Y-64250237D01*
X60491428Y-64250237D01*
X60443809Y-64274046D01*
X60420000Y-64297856D01*
X60396190Y-64345475D01*
X60396190Y-64440713D01*
X60420000Y-64488332D01*
X60443809Y-64512141D01*
X60491428Y-64535951D01*
X60610476Y-64535951D01*
X60658095Y-64512141D01*
X60681904Y-64488332D01*
X60705714Y-64440713D01*
X60705714Y-64345475D01*
X60681904Y-64297856D01*
X60658095Y-64274046D01*
X60610476Y-64250237D01*
X60396190Y-63940713D02*
X60396190Y-63893094D01*
X60420000Y-63845475D01*
X60443809Y-63821665D01*
X60491428Y-63797856D01*
X60586666Y-63774046D01*
X60705714Y-63774046D01*
X60800952Y-63797856D01*
X60848571Y-63821665D01*
X60872380Y-63845475D01*
X60896190Y-63893094D01*
X60896190Y-63940713D01*
X60872380Y-63988332D01*
X60848571Y-64012141D01*
X60800952Y-64035951D01*
X60705714Y-64059760D01*
X60586666Y-64059760D01*
X60491428Y-64035951D01*
X60443809Y-64012141D01*
X60420000Y-63988332D01*
X60396190Y-63940713D01*
G04 #@! TO.C,C77*
X49173571Y-68118571D02*
X49149761Y-68142380D01*
X49078333Y-68166190D01*
X49030714Y-68166190D01*
X48959285Y-68142380D01*
X48911666Y-68094761D01*
X48887857Y-68047142D01*
X48864047Y-67951904D01*
X48864047Y-67880476D01*
X48887857Y-67785238D01*
X48911666Y-67737619D01*
X48959285Y-67690000D01*
X49030714Y-67666190D01*
X49078333Y-67666190D01*
X49149761Y-67690000D01*
X49173571Y-67713809D01*
X49340238Y-67666190D02*
X49673571Y-67666190D01*
X49459285Y-68166190D01*
X49816428Y-67666190D02*
X50149761Y-67666190D01*
X49935476Y-68166190D01*
D16*
G04 #@! TO.C,G\u002A\u002A\u002A*
X95687129Y-31281257D02*
X95738445Y-31435204D01*
X95892392Y-31589152D01*
X96097655Y-31691783D01*
X96302918Y-31691783D01*
X96456866Y-31640467D01*
X96713444Y-31486520D01*
X96867392Y-31332573D01*
X97021339Y-31075994D01*
X97072655Y-30922047D01*
X97072655Y-30716784D01*
X96970023Y-30511521D01*
X96867392Y-30408889D01*
X96662129Y-30306258D01*
X96559497Y-30306258D01*
X96200287Y-30665468D01*
X96405550Y-30870731D01*
X94968709Y-30665468D02*
X95225288Y-30408889D01*
X95379235Y-30768100D02*
X95225288Y-30408889D01*
X94866078Y-30254942D01*
X95584498Y-30357574D02*
X95225288Y-30408889D01*
X95276604Y-30049679D01*
X94147657Y-29844416D02*
X94404236Y-29587838D01*
X94558183Y-29947048D02*
X94404236Y-29587838D01*
X94045026Y-29433890D01*
X94763446Y-29536522D02*
X94404236Y-29587838D01*
X94455552Y-29228627D01*
X93326605Y-29023364D02*
X93583184Y-28766786D01*
X93737131Y-29125996D02*
X93583184Y-28766786D01*
X93223974Y-28612838D01*
X93942394Y-28715470D02*
X93583184Y-28766786D01*
X93634500Y-28407575D01*
D10*
G04 #@! TO.C,J10*
X67970476Y-70867380D02*
X67970476Y-71581666D01*
X67922857Y-71724523D01*
X67827619Y-71819761D01*
X67684761Y-71867380D01*
X67589523Y-71867380D01*
X68970476Y-71867380D02*
X68399047Y-71867380D01*
X68684761Y-71867380D02*
X68684761Y-70867380D01*
X68589523Y-71010238D01*
X68494285Y-71105476D01*
X68399047Y-71153095D01*
X69589523Y-70867380D02*
X69684761Y-70867380D01*
X69780000Y-70915000D01*
X69827619Y-70962619D01*
X69875238Y-71057857D01*
X69922857Y-71248333D01*
X69922857Y-71486428D01*
X69875238Y-71676904D01*
X69827619Y-71772142D01*
X69780000Y-71819761D01*
X69684761Y-71867380D01*
X69589523Y-71867380D01*
X69494285Y-71819761D01*
X69446666Y-71772142D01*
X69399047Y-71676904D01*
X69351428Y-71486428D01*
X69351428Y-71248333D01*
X69399047Y-71057857D01*
X69446666Y-70962619D01*
X69494285Y-70915000D01*
X69589523Y-70867380D01*
D12*
G04 #@! TO.C,R35*
X50578571Y-55226190D02*
X50411904Y-54988095D01*
X50292857Y-55226190D02*
X50292857Y-54726190D01*
X50483333Y-54726190D01*
X50530952Y-54750000D01*
X50554761Y-54773809D01*
X50578571Y-54821428D01*
X50578571Y-54892857D01*
X50554761Y-54940476D01*
X50530952Y-54964285D01*
X50483333Y-54988095D01*
X50292857Y-54988095D01*
X50745238Y-54726190D02*
X51054761Y-54726190D01*
X50888095Y-54916666D01*
X50959523Y-54916666D01*
X51007142Y-54940476D01*
X51030952Y-54964285D01*
X51054761Y-55011904D01*
X51054761Y-55130952D01*
X51030952Y-55178571D01*
X51007142Y-55202380D01*
X50959523Y-55226190D01*
X50816666Y-55226190D01*
X50769047Y-55202380D01*
X50745238Y-55178571D01*
X51507142Y-54726190D02*
X51269047Y-54726190D01*
X51245238Y-54964285D01*
X51269047Y-54940476D01*
X51316666Y-54916666D01*
X51435714Y-54916666D01*
X51483333Y-54940476D01*
X51507142Y-54964285D01*
X51530952Y-55011904D01*
X51530952Y-55130952D01*
X51507142Y-55178571D01*
X51483333Y-55202380D01*
X51435714Y-55226190D01*
X51316666Y-55226190D01*
X51269047Y-55202380D01*
X51245238Y-55178571D01*
D10*
G04 #@! TO.C,U7*
X62188095Y-67452380D02*
X62188095Y-68261904D01*
X62235714Y-68357142D01*
X62283333Y-68404761D01*
X62378571Y-68452380D01*
X62569047Y-68452380D01*
X62664285Y-68404761D01*
X62711904Y-68357142D01*
X62759523Y-68261904D01*
X62759523Y-67452380D01*
X63140476Y-67452380D02*
X63807142Y-67452380D01*
X63378571Y-68452380D01*
D12*
G04 #@! TO.C,C80*
X58028571Y-64171428D02*
X58052380Y-64195238D01*
X58076190Y-64266666D01*
X58076190Y-64314285D01*
X58052380Y-64385714D01*
X58004761Y-64433333D01*
X57957142Y-64457142D01*
X57861904Y-64480952D01*
X57790476Y-64480952D01*
X57695238Y-64457142D01*
X57647619Y-64433333D01*
X57600000Y-64385714D01*
X57576190Y-64314285D01*
X57576190Y-64266666D01*
X57600000Y-64195238D01*
X57623809Y-64171428D01*
X57790476Y-63885714D02*
X57766666Y-63933333D01*
X57742857Y-63957142D01*
X57695238Y-63980952D01*
X57671428Y-63980952D01*
X57623809Y-63957142D01*
X57600000Y-63933333D01*
X57576190Y-63885714D01*
X57576190Y-63790476D01*
X57600000Y-63742857D01*
X57623809Y-63719047D01*
X57671428Y-63695238D01*
X57695238Y-63695238D01*
X57742857Y-63719047D01*
X57766666Y-63742857D01*
X57790476Y-63790476D01*
X57790476Y-63885714D01*
X57814285Y-63933333D01*
X57838095Y-63957142D01*
X57885714Y-63980952D01*
X57980952Y-63980952D01*
X58028571Y-63957142D01*
X58052380Y-63933333D01*
X58076190Y-63885714D01*
X58076190Y-63790476D01*
X58052380Y-63742857D01*
X58028571Y-63719047D01*
X57980952Y-63695238D01*
X57885714Y-63695238D01*
X57838095Y-63719047D01*
X57814285Y-63742857D01*
X57790476Y-63790476D01*
X57576190Y-63385714D02*
X57576190Y-63338095D01*
X57600000Y-63290476D01*
X57623809Y-63266666D01*
X57671428Y-63242857D01*
X57766666Y-63219047D01*
X57885714Y-63219047D01*
X57980952Y-63242857D01*
X58028571Y-63266666D01*
X58052380Y-63290476D01*
X58076190Y-63338095D01*
X58076190Y-63385714D01*
X58052380Y-63433333D01*
X58028571Y-63457142D01*
X57980952Y-63480952D01*
X57885714Y-63504761D01*
X57766666Y-63504761D01*
X57671428Y-63480952D01*
X57623809Y-63457142D01*
X57600000Y-63433333D01*
X57576190Y-63385714D01*
G04 #@! TO.C,C87*
X62353571Y-69728571D02*
X62329761Y-69752380D01*
X62258333Y-69776190D01*
X62210714Y-69776190D01*
X62139285Y-69752380D01*
X62091666Y-69704761D01*
X62067857Y-69657142D01*
X62044047Y-69561904D01*
X62044047Y-69490476D01*
X62067857Y-69395238D01*
X62091666Y-69347619D01*
X62139285Y-69300000D01*
X62210714Y-69276190D01*
X62258333Y-69276190D01*
X62329761Y-69300000D01*
X62353571Y-69323809D01*
X62639285Y-69490476D02*
X62591666Y-69466666D01*
X62567857Y-69442857D01*
X62544047Y-69395238D01*
X62544047Y-69371428D01*
X62567857Y-69323809D01*
X62591666Y-69300000D01*
X62639285Y-69276190D01*
X62734523Y-69276190D01*
X62782142Y-69300000D01*
X62805952Y-69323809D01*
X62829761Y-69371428D01*
X62829761Y-69395238D01*
X62805952Y-69442857D01*
X62782142Y-69466666D01*
X62734523Y-69490476D01*
X62639285Y-69490476D01*
X62591666Y-69514285D01*
X62567857Y-69538095D01*
X62544047Y-69585714D01*
X62544047Y-69680952D01*
X62567857Y-69728571D01*
X62591666Y-69752380D01*
X62639285Y-69776190D01*
X62734523Y-69776190D01*
X62782142Y-69752380D01*
X62805952Y-69728571D01*
X62829761Y-69680952D01*
X62829761Y-69585714D01*
X62805952Y-69538095D01*
X62782142Y-69514285D01*
X62734523Y-69490476D01*
X62996428Y-69276190D02*
X63329761Y-69276190D01*
X63115476Y-69776190D01*
G04 #@! TO.C,C89*
X52328571Y-55178571D02*
X52304761Y-55202380D01*
X52233333Y-55226190D01*
X52185714Y-55226190D01*
X52114285Y-55202380D01*
X52066666Y-55154761D01*
X52042857Y-55107142D01*
X52019047Y-55011904D01*
X52019047Y-54940476D01*
X52042857Y-54845238D01*
X52066666Y-54797619D01*
X52114285Y-54750000D01*
X52185714Y-54726190D01*
X52233333Y-54726190D01*
X52304761Y-54750000D01*
X52328571Y-54773809D01*
X52614285Y-54940476D02*
X52566666Y-54916666D01*
X52542857Y-54892857D01*
X52519047Y-54845238D01*
X52519047Y-54821428D01*
X52542857Y-54773809D01*
X52566666Y-54750000D01*
X52614285Y-54726190D01*
X52709523Y-54726190D01*
X52757142Y-54750000D01*
X52780952Y-54773809D01*
X52804761Y-54821428D01*
X52804761Y-54845238D01*
X52780952Y-54892857D01*
X52757142Y-54916666D01*
X52709523Y-54940476D01*
X52614285Y-54940476D01*
X52566666Y-54964285D01*
X52542857Y-54988095D01*
X52519047Y-55035714D01*
X52519047Y-55130952D01*
X52542857Y-55178571D01*
X52566666Y-55202380D01*
X52614285Y-55226190D01*
X52709523Y-55226190D01*
X52757142Y-55202380D01*
X52780952Y-55178571D01*
X52804761Y-55130952D01*
X52804761Y-55035714D01*
X52780952Y-54988095D01*
X52757142Y-54964285D01*
X52709523Y-54940476D01*
X53042857Y-55226190D02*
X53138095Y-55226190D01*
X53185714Y-55202380D01*
X53209523Y-55178571D01*
X53257142Y-55107142D01*
X53280952Y-55011904D01*
X53280952Y-54821428D01*
X53257142Y-54773809D01*
X53233333Y-54750000D01*
X53185714Y-54726190D01*
X53090476Y-54726190D01*
X53042857Y-54750000D01*
X53019047Y-54773809D01*
X52995238Y-54821428D01*
X52995238Y-54940476D01*
X53019047Y-54988095D01*
X53042857Y-55011904D01*
X53090476Y-55035714D01*
X53185714Y-55035714D01*
X53233333Y-55011904D01*
X53257142Y-54988095D01*
X53280952Y-54940476D01*
D10*
G04 #@! TO.C,U8*
X55138095Y-55102380D02*
X55138095Y-55911904D01*
X55185714Y-56007142D01*
X55233333Y-56054761D01*
X55328571Y-56102380D01*
X55519047Y-56102380D01*
X55614285Y-56054761D01*
X55661904Y-56007142D01*
X55709523Y-55911904D01*
X55709523Y-55102380D01*
X56328571Y-55530952D02*
X56233333Y-55483333D01*
X56185714Y-55435714D01*
X56138095Y-55340476D01*
X56138095Y-55292857D01*
X56185714Y-55197619D01*
X56233333Y-55150000D01*
X56328571Y-55102380D01*
X56519047Y-55102380D01*
X56614285Y-55150000D01*
X56661904Y-55197619D01*
X56709523Y-55292857D01*
X56709523Y-55340476D01*
X56661904Y-55435714D01*
X56614285Y-55483333D01*
X56519047Y-55530952D01*
X56328571Y-55530952D01*
X56233333Y-55578571D01*
X56185714Y-55626190D01*
X56138095Y-55721428D01*
X56138095Y-55911904D01*
X56185714Y-56007142D01*
X56233333Y-56054761D01*
X56328571Y-56102380D01*
X56519047Y-56102380D01*
X56614285Y-56054761D01*
X56661904Y-56007142D01*
X56709523Y-55911904D01*
X56709523Y-55721428D01*
X56661904Y-55626190D01*
X56614285Y-55578571D01*
X56519047Y-55530952D01*
D11*
G04 #@! TO.C,D3*
X28663000Y-32737500D02*
G75*
G03*
X28663000Y-32737500I-50000J0D01*
G01*
D17*
G04 #@! TO.C,Q1*
X21553000Y-43082500D02*
X21553000Y-44757500D01*
X24673000Y-43082500D02*
X24673000Y-43732500D01*
X24673000Y-43082500D02*
X24673000Y-42432500D01*
X21553000Y-43082500D02*
X21553000Y-42432500D01*
G04 #@! TO.C,C67*
X30650221Y-31972500D02*
X30975779Y-31972500D01*
X30650221Y-32992500D02*
X30975779Y-32992500D01*
G04 #@! TO.C,C68*
X31823000Y-37045279D02*
X31823000Y-36719721D01*
X30803000Y-37045279D02*
X30803000Y-36719721D01*
G04 #@! TO.C,C65*
X32550221Y-38122500D02*
X32875779Y-38122500D01*
X32550221Y-39142500D02*
X32875779Y-39142500D01*
G04 #@! TO.C,C104*
X67873000Y-44945279D02*
X67873000Y-44619721D01*
X66853000Y-44945279D02*
X66853000Y-44619721D01*
G04 #@! TO.C,C6*
X55150221Y-52622500D02*
X55475779Y-52622500D01*
X55150221Y-53642500D02*
X55475779Y-53642500D01*
G04 #@! TO.C,C28*
X66673000Y-36019721D02*
X66673000Y-36345279D01*
X65653000Y-36019721D02*
X65653000Y-36345279D01*
G04 #@! TO.C,C38*
X64973000Y-55819721D02*
X64973000Y-56145279D01*
X63953000Y-55819721D02*
X63953000Y-56145279D01*
G04 #@! TO.C,C35*
X64973000Y-50545279D02*
X64973000Y-50219721D01*
X63953000Y-50545279D02*
X63953000Y-50219721D01*
G04 #@! TO.C,C42*
X70550221Y-46492500D02*
X70875779Y-46492500D01*
X70550221Y-45472500D02*
X70875779Y-45472500D01*
G04 #@! TO.C,C92*
X27753000Y-47695279D02*
X27753000Y-47369721D01*
X28773000Y-47695279D02*
X28773000Y-47369721D01*
G04 #@! TO.C,C69*
X26819046Y-36195633D02*
X26819046Y-35870075D01*
X25799046Y-36195633D02*
X25799046Y-35870075D01*
G04 #@! TO.C,C70*
X29375779Y-34692500D02*
X29050221Y-34692500D01*
X29375779Y-33672500D02*
X29050221Y-33672500D01*
G04 #@! TO.C,C44*
X68003000Y-46345279D02*
X68003000Y-46019721D01*
X69023000Y-46345279D02*
X69023000Y-46019721D01*
G04 #@! TO.C,C16*
X57200221Y-31772500D02*
X57525779Y-31772500D01*
X57200221Y-32792500D02*
X57525779Y-32792500D01*
D18*
G04 #@! TO.C,AE1*
X23000000Y-74900000D02*
X23000000Y-72300000D01*
X25600000Y-74900000D02*
X25600000Y-74270000D01*
X25600000Y-72300000D02*
X25600000Y-72930000D01*
D17*
G04 #@! TO.C,J11*
X67290000Y-75360000D02*
X63410000Y-75360000D01*
X68460000Y-73390000D02*
X68460000Y-72240000D01*
X67410000Y-72240000D02*
X67410000Y-71250000D01*
X62240000Y-72240000D02*
X63290000Y-72240000D01*
X62240000Y-73390000D02*
X62240000Y-72240000D01*
X68460000Y-72240000D02*
X67410000Y-72240000D01*
G04 #@! TO.C,JP1*
X82230000Y-72310000D02*
X82830000Y-72310000D01*
X82530000Y-72010000D02*
X82230000Y-72310000D01*
X85130000Y-71810000D02*
X82330000Y-71810000D01*
X82530000Y-72010000D02*
X82830000Y-72310000D01*
X85780000Y-70510000D02*
X85780000Y-71110000D01*
X82330000Y-69810000D02*
X85130000Y-69810000D01*
X81680000Y-71110000D02*
X81680000Y-70510000D01*
X81680000Y-71110000D02*
G75*
G03*
X82380000Y-71810000I699999J-1D01*
G01*
X85780000Y-70510000D02*
G75*
G03*
X85080000Y-69810000I-699999J1D01*
G01*
X82380000Y-69810000D02*
G75*
G03*
X81680000Y-70510000I-1J-699999D01*
G01*
X85080000Y-71810000D02*
G75*
G03*
X85780000Y-71110000I1J699999D01*
G01*
G04 #@! TO.C,Y2*
X52660000Y-74660000D02*
X52660000Y-69260000D01*
X48160000Y-74660000D02*
X52660000Y-74660000D01*
D19*
G04 #@! TO.C,U5*
X46600000Y-57500000D02*
X46600000Y-73500000D01*
X30600000Y-73500000D02*
X30600000Y-57500000D01*
D20*
X45685000Y-55975000D02*
G75*
G03*
X45685000Y-55975000I-100000J0D01*
G01*
G04 #@! TO.C,G\u002A\u002A\u002A*
G36*
X90755903Y-32005645D02*
G01*
X90866941Y-32038513D01*
X90993099Y-32092848D01*
X91132843Y-32167978D01*
X91284638Y-32263227D01*
X91446949Y-32377921D01*
X91472066Y-32396729D01*
X91518250Y-32433143D01*
X91579283Y-32483549D01*
X91650701Y-32544032D01*
X91728041Y-32610674D01*
X91806842Y-32679557D01*
X91882640Y-32746764D01*
X91950973Y-32808379D01*
X92007379Y-32860483D01*
X92047394Y-32899161D01*
X92061656Y-32914265D01*
X92078855Y-32933637D01*
X92112304Y-32971010D01*
X92157710Y-33021600D01*
X92210784Y-33080621D01*
X92230882Y-33102947D01*
X92376172Y-33271133D01*
X92505657Y-33434955D01*
X92618385Y-33592612D01*
X92713403Y-33742303D01*
X92789756Y-33882224D01*
X92846492Y-34010575D01*
X92882658Y-34125552D01*
X92897300Y-34225354D01*
X92889466Y-34308179D01*
X92881339Y-34332575D01*
X92877566Y-34340808D01*
X92872174Y-34349113D01*
X92863643Y-34358251D01*
X92850452Y-34368983D01*
X92831080Y-34382072D01*
X92804005Y-34398276D01*
X92767710Y-34418360D01*
X92720671Y-34443084D01*
X92661368Y-34473211D01*
X92588282Y-34509499D01*
X92499891Y-34552713D01*
X92394675Y-34603612D01*
X92271112Y-34662960D01*
X92127682Y-34731516D01*
X91962865Y-34810043D01*
X91775139Y-34899302D01*
X91562985Y-35000054D01*
X91324881Y-35113062D01*
X91283325Y-35132781D01*
X91076654Y-35230834D01*
X90877781Y-35325147D01*
X90688453Y-35414893D01*
X90510420Y-35499247D01*
X90345430Y-35577378D01*
X90195232Y-35648463D01*
X90061574Y-35711674D01*
X89946204Y-35766182D01*
X89850871Y-35811160D01*
X89777324Y-35845783D01*
X89727310Y-35869223D01*
X89702579Y-35880653D01*
X89700165Y-35881675D01*
X89695529Y-35868915D01*
X89693655Y-35838101D01*
X89686638Y-35802929D01*
X89668156Y-35751712D01*
X89642063Y-35694984D01*
X89639426Y-35689877D01*
X89613196Y-35642642D01*
X89585264Y-35600526D01*
X89550526Y-35557222D01*
X89503881Y-35506421D01*
X89440225Y-35441812D01*
X89432922Y-35434541D01*
X89323975Y-35332806D01*
X89229087Y-35258219D01*
X89148290Y-35210800D01*
X89081615Y-35190573D01*
X89074245Y-35189956D01*
X89046586Y-35184410D01*
X89041708Y-35168470D01*
X89042385Y-35165192D01*
X89049554Y-35148594D01*
X89069062Y-35106078D01*
X89100069Y-35039428D01*
X89141734Y-34950425D01*
X89193216Y-34840854D01*
X89253674Y-34712495D01*
X89322268Y-34567132D01*
X89398158Y-34406550D01*
X89480500Y-34232528D01*
X89568456Y-34046851D01*
X89661186Y-33851301D01*
X89757847Y-33647662D01*
X89787572Y-33585076D01*
X90527401Y-32027659D01*
X90585333Y-32007015D01*
X90661523Y-31994921D01*
X90755903Y-32005645D01*
G37*
G36*
X92685594Y-21937913D02*
G01*
X92798730Y-21951355D01*
X92880798Y-21968208D01*
X92907632Y-21976771D01*
X92961245Y-21995594D01*
X93039767Y-22023970D01*
X93141328Y-22061189D01*
X93264059Y-22106542D01*
X93406089Y-22159321D01*
X93565549Y-22218816D01*
X93740571Y-22284321D01*
X93929282Y-22355125D01*
X94129816Y-22430520D01*
X94340301Y-22509798D01*
X94558868Y-22592249D01*
X94783647Y-22677166D01*
X95012769Y-22763838D01*
X95244364Y-22851559D01*
X95476561Y-22939619D01*
X95707493Y-23027309D01*
X95935289Y-23113921D01*
X96158080Y-23198746D01*
X96373994Y-23281075D01*
X96581164Y-23360200D01*
X96777720Y-23435412D01*
X96961791Y-23506003D01*
X97131509Y-23571264D01*
X97285002Y-23630485D01*
X97420403Y-23682960D01*
X97535841Y-23727977D01*
X97629446Y-23764830D01*
X97699349Y-23792809D01*
X97743681Y-23811206D01*
X97747416Y-23812834D01*
X97993912Y-23931929D01*
X98252822Y-24077718D01*
X98522909Y-24249427D01*
X98802937Y-24446275D01*
X99038311Y-24625277D01*
X99095043Y-24672438D01*
X99169506Y-24738280D01*
X99258173Y-24819370D01*
X99357517Y-24912274D01*
X99464008Y-25013561D01*
X99574120Y-25119795D01*
X99684323Y-25227545D01*
X99791091Y-25333375D01*
X99890895Y-25433854D01*
X99980208Y-25525546D01*
X100055502Y-25605021D01*
X100113249Y-25668843D01*
X100126620Y-25684421D01*
X100347307Y-25957539D01*
X100549415Y-26231246D01*
X100731067Y-26502617D01*
X100890387Y-26768726D01*
X101025498Y-27026648D01*
X101114329Y-27223764D01*
X101127368Y-27256347D01*
X101150409Y-27315325D01*
X101182725Y-27398781D01*
X101223582Y-27504794D01*
X101272251Y-27631443D01*
X101328000Y-27776809D01*
X101390100Y-27938973D01*
X101457817Y-28116012D01*
X101530424Y-28306009D01*
X101607186Y-28507042D01*
X101687374Y-28717193D01*
X101770259Y-28934540D01*
X101855107Y-29157165D01*
X101941190Y-29383146D01*
X102027775Y-29610564D01*
X102114131Y-29837498D01*
X102199529Y-30062031D01*
X102283236Y-30282240D01*
X102364523Y-30496205D01*
X102442658Y-30702007D01*
X102516911Y-30897727D01*
X102586550Y-31081444D01*
X102650845Y-31251237D01*
X102709064Y-31405187D01*
X102760478Y-31541375D01*
X102804355Y-31657878D01*
X102839963Y-31752781D01*
X102866574Y-31824158D01*
X102883455Y-31870094D01*
X102888970Y-31885718D01*
X102931032Y-32037776D01*
X102955703Y-32185981D01*
X102962543Y-32324636D01*
X102951119Y-32448048D01*
X102936575Y-32508400D01*
X102920141Y-32551594D01*
X102896485Y-32590844D01*
X102859571Y-32634863D01*
X102822161Y-32673632D01*
X102771488Y-32722469D01*
X102730729Y-32754863D01*
X102689744Y-32777582D01*
X102638395Y-32797397D01*
X102635079Y-32798534D01*
X102536933Y-32821127D01*
X102418656Y-32830432D01*
X102287810Y-32826359D01*
X102151954Y-32808819D01*
X102128991Y-32804508D01*
X102023252Y-32779374D01*
X101899943Y-32743041D01*
X101768537Y-32698789D01*
X101638505Y-32649900D01*
X101519323Y-32599655D01*
X101467521Y-32575420D01*
X101420154Y-32551750D01*
X101351521Y-32516630D01*
X101264016Y-32471333D01*
X101160040Y-32417133D01*
X101041987Y-32355304D01*
X100912255Y-32287119D01*
X100773241Y-32213852D01*
X100627340Y-32136778D01*
X100476950Y-32057168D01*
X100324468Y-31976299D01*
X100172289Y-31895440D01*
X100022812Y-31815870D01*
X99878432Y-31738859D01*
X99741547Y-31665683D01*
X99614552Y-31597614D01*
X99499845Y-31535927D01*
X99399822Y-31481894D01*
X99316882Y-31436790D01*
X99253418Y-31401888D01*
X99211829Y-31378463D01*
X99194512Y-31367787D01*
X99194173Y-31367293D01*
X99209065Y-31359471D01*
X99249041Y-31339787D01*
X99311466Y-31309509D01*
X99393697Y-31269903D01*
X99493098Y-31222238D01*
X99607029Y-31167780D01*
X99732850Y-31107796D01*
X99867923Y-31043554D01*
X99906449Y-31025258D01*
X100069524Y-30947822D01*
X100207218Y-30882184D01*
X100321826Y-30826908D01*
X100415641Y-30780562D01*
X100490960Y-30741711D01*
X100550079Y-30708923D01*
X100595291Y-30680766D01*
X100628893Y-30655802D01*
X100653178Y-30632602D01*
X100670442Y-30609730D01*
X100682981Y-30585753D01*
X100693090Y-30559237D01*
X100703063Y-30528750D01*
X100703486Y-30527444D01*
X100721419Y-30440857D01*
X100727353Y-30334047D01*
X100721317Y-30215014D01*
X100703337Y-30091756D01*
X100701978Y-30084897D01*
X100651986Y-29890439D01*
X100577650Y-29680541D01*
X100480174Y-29456741D01*
X100360760Y-29220580D01*
X100220614Y-28973595D01*
X100060938Y-28717326D01*
X99882938Y-28453312D01*
X99687817Y-28183093D01*
X99476779Y-27908208D01*
X99251029Y-27630194D01*
X99011768Y-27350593D01*
X98760203Y-27070942D01*
X98497538Y-26792781D01*
X98224974Y-26517649D01*
X97943718Y-26247085D01*
X97654972Y-25982629D01*
X97359941Y-25725818D01*
X97165306Y-25563668D01*
X96870433Y-25329343D01*
X96582387Y-25114365D01*
X96302404Y-24919447D01*
X96031720Y-24745293D01*
X95771569Y-24592614D01*
X95523190Y-24462117D01*
X95287815Y-24354510D01*
X95066683Y-24270503D01*
X94861027Y-24210802D01*
X94771470Y-24191605D01*
X94654684Y-24177664D01*
X94538968Y-24178488D01*
X94430813Y-24193075D01*
X94336711Y-24220428D01*
X94263150Y-24259547D01*
X94247304Y-24272307D01*
X94230169Y-24295416D01*
X94201695Y-24344427D01*
X94161703Y-24419697D01*
X94110013Y-24521577D01*
X94046447Y-24650421D01*
X93970826Y-24806582D01*
X93882970Y-24990414D01*
X93876903Y-25003177D01*
X93812043Y-25139129D01*
X93750861Y-25266288D01*
X93694661Y-25382029D01*
X93644740Y-25483726D01*
X93602397Y-25568755D01*
X93568933Y-25634490D01*
X93545646Y-25678307D01*
X93533836Y-25697579D01*
X93532897Y-25698264D01*
X93523950Y-25685087D01*
X93502012Y-25647158D01*
X93468365Y-25586879D01*
X93424286Y-25506653D01*
X93371057Y-25408884D01*
X93309955Y-25295976D01*
X93242262Y-25170329D01*
X93169256Y-25034349D01*
X93092218Y-24890437D01*
X93012427Y-24740997D01*
X92931162Y-24588432D01*
X92849704Y-24435145D01*
X92769332Y-24283538D01*
X92691324Y-24136016D01*
X92616961Y-23994980D01*
X92547523Y-23862834D01*
X92484289Y-23741981D01*
X92428539Y-23634824D01*
X92381551Y-23543766D01*
X92344607Y-23471210D01*
X92318987Y-23419560D01*
X92314444Y-23410077D01*
X92263666Y-23294455D01*
X92214194Y-23166442D01*
X92168618Y-23034010D01*
X92129527Y-22905137D01*
X92099509Y-22787792D01*
X92081553Y-22692832D01*
X92067375Y-22554395D01*
X92067540Y-22436068D01*
X92082459Y-22330632D01*
X92107132Y-22245524D01*
X92128672Y-22190238D01*
X92150863Y-22149684D01*
X92181336Y-22112763D01*
X92227717Y-22068376D01*
X92230831Y-22065543D01*
X92301981Y-22007719D01*
X92367382Y-21970426D01*
X92396242Y-21959135D01*
X92475594Y-21941638D01*
X92574963Y-21934619D01*
X92685594Y-21937913D01*
G37*
G36*
X93541559Y-26660309D02*
G01*
X93703103Y-26703871D01*
X93879464Y-26768761D01*
X94069499Y-26854367D01*
X94272067Y-26960077D01*
X94486026Y-27085277D01*
X94710234Y-27229356D01*
X94943550Y-27391702D01*
X95184832Y-27571702D01*
X95432939Y-27768744D01*
X95686728Y-27982216D01*
X95799589Y-28080913D01*
X95853354Y-28129950D01*
X95924469Y-28197016D01*
X96009211Y-28278417D01*
X96103856Y-28370454D01*
X96204678Y-28469434D01*
X96307953Y-28571660D01*
X96409955Y-28673436D01*
X96506961Y-28771067D01*
X96595245Y-28860856D01*
X96671083Y-28939108D01*
X96730752Y-29002127D01*
X96757722Y-29031627D01*
X96982935Y-29290655D01*
X97193224Y-29547049D01*
X97387630Y-29799238D01*
X97565192Y-30045653D01*
X97724949Y-30284724D01*
X97865944Y-30514880D01*
X97987213Y-30734552D01*
X98087796Y-30942170D01*
X98166736Y-31136163D01*
X98223070Y-31314963D01*
X98255838Y-31476999D01*
X98256494Y-31481942D01*
X98262155Y-31610931D01*
X98244266Y-31725528D01*
X98211625Y-31807724D01*
X98206215Y-31817180D01*
X98199479Y-31826484D01*
X98189811Y-31836443D01*
X98175603Y-31847867D01*
X98155249Y-31861564D01*
X98127140Y-31878342D01*
X98089671Y-31899010D01*
X98041235Y-31924378D01*
X97980223Y-31955253D01*
X97905030Y-31992445D01*
X97814048Y-32036760D01*
X97705670Y-32089009D01*
X97578290Y-32150001D01*
X97430299Y-32220543D01*
X97260093Y-32301444D01*
X97066062Y-32393513D01*
X96846600Y-32497558D01*
X96744731Y-32545840D01*
X96513996Y-32655185D01*
X96309419Y-32752077D01*
X96129439Y-32837211D01*
X95972498Y-32911279D01*
X95837037Y-32974974D01*
X95721497Y-33028992D01*
X95624316Y-33074025D01*
X95543938Y-33110766D01*
X95478802Y-33139909D01*
X95427350Y-33162148D01*
X95388020Y-33178176D01*
X95359255Y-33188688D01*
X95339495Y-33194375D01*
X95327181Y-33195933D01*
X95320753Y-33194053D01*
X95318652Y-33189431D01*
X95319319Y-33182758D01*
X95320054Y-33179494D01*
X95329873Y-33086992D01*
X95321172Y-32975251D01*
X95294978Y-32848676D01*
X95252319Y-32711670D01*
X95194220Y-32568638D01*
X95161693Y-32500222D01*
X95042688Y-32282580D01*
X94898601Y-32055217D01*
X94732264Y-31821131D01*
X94546511Y-31583320D01*
X94344175Y-31344782D01*
X94128089Y-31108515D01*
X93901086Y-30877516D01*
X93666000Y-30654785D01*
X93425663Y-30443316D01*
X93182908Y-30246109D01*
X92940570Y-30066162D01*
X92723624Y-29920466D01*
X92539101Y-29809904D01*
X92365457Y-29719449D01*
X92204311Y-29649673D01*
X92057284Y-29601145D01*
X91925994Y-29574436D01*
X91812062Y-29570116D01*
X91752613Y-29578530D01*
X91671985Y-29596705D01*
X91695432Y-29547637D01*
X91705189Y-29527105D01*
X91727162Y-29480796D01*
X91760429Y-29410655D01*
X91804069Y-29318626D01*
X91857159Y-29206652D01*
X91918778Y-29076679D01*
X91988003Y-28930650D01*
X92063915Y-28770510D01*
X92145589Y-28598203D01*
X92232107Y-28415672D01*
X92322543Y-28224862D01*
X92375806Y-28112481D01*
X92467751Y-27918636D01*
X92556153Y-27732565D01*
X92640109Y-27556150D01*
X92718716Y-27391273D01*
X92791073Y-27239818D01*
X92856278Y-27103666D01*
X92913427Y-26984700D01*
X92961618Y-26884803D01*
X92999950Y-26805855D01*
X93027520Y-26749741D01*
X93043426Y-26718343D01*
X93047002Y-26712144D01*
X93068043Y-26699941D01*
X93109019Y-26682039D01*
X93157236Y-26663715D01*
X93267483Y-26639619D01*
X93395971Y-26638687D01*
X93541559Y-26660309D01*
G37*
D17*
G04 #@! TO.C,J10*
X66875000Y-69985000D02*
X66875000Y-69350000D01*
X67510000Y-69985000D02*
X66875000Y-69985000D01*
G04 #@! TO.C,U7*
X60167500Y-72862500D02*
X60817500Y-72862500D01*
X54247500Y-65642500D02*
X53597500Y-65642500D01*
X60167500Y-65642500D02*
X60817500Y-65642500D01*
X53597500Y-72862500D02*
X53597500Y-72212500D01*
X54247500Y-72862500D02*
X53597500Y-72862500D01*
X60817500Y-65642500D02*
X60817500Y-66292500D01*
X60817500Y-72862500D02*
X60817500Y-72212500D01*
G04 #@! TO.C,U8*
X52090000Y-56405000D02*
X49365000Y-56405000D01*
X54815000Y-61855000D02*
X54815000Y-61595000D01*
X49365000Y-61855000D02*
X49365000Y-61595000D01*
X52090000Y-61855000D02*
X54815000Y-61855000D01*
X52090000Y-61855000D02*
X49365000Y-61855000D01*
X49365000Y-56405000D02*
X49365000Y-56665000D01*
X49365000Y-56665000D02*
X47690000Y-56665000D01*
X52090000Y-56405000D02*
X54815000Y-56405000D01*
X54815000Y-56405000D02*
X54815000Y-56665000D01*
G04 #@! TD*
M02*
