%TF.GenerationSoftware,KiCad,Pcbnew,(6.0.2-0)*%
%TF.CreationDate,2022-05-22T12:16:40-06:00*%
%TF.ProjectId,epas-controller,65706173-2d63-46f6-9e74-726f6c6c6572,rev?*%
%TF.SameCoordinates,Original*%
%TF.FileFunction,Copper,L1,Top*%
%TF.FilePolarity,Positive*%
%FSLAX46Y46*%
G04 Gerber Fmt 4.6, Leading zero omitted, Abs format (unit mm)*
G04 Created by KiCad (PCBNEW (6.0.2-0)) date 2022-05-22 12:16:40*
%MOMM*%
%LPD*%
G01*
G04 APERTURE LIST*
G04 Aperture macros list*
%AMRoundRect*
0 Rectangle with rounded corners*
0 $1 Rounding radius*
0 $2 $3 $4 $5 $6 $7 $8 $9 X,Y pos of 4 corners*
0 Add a 4 corners polygon primitive as box body*
4,1,4,$2,$3,$4,$5,$6,$7,$8,$9,$2,$3,0*
0 Add four circle primitives for the rounded corners*
1,1,$1+$1,$2,$3*
1,1,$1+$1,$4,$5*
1,1,$1+$1,$6,$7*
1,1,$1+$1,$8,$9*
0 Add four rect primitives between the rounded corners*
20,1,$1+$1,$2,$3,$4,$5,0*
20,1,$1+$1,$4,$5,$6,$7,0*
20,1,$1+$1,$6,$7,$8,$9,0*
20,1,$1+$1,$8,$9,$2,$3,0*%
G04 Aperture macros list end*
%TA.AperFunction,SMDPad,CuDef*%
%ADD10RoundRect,0.140000X-0.170000X0.140000X-0.170000X-0.140000X0.170000X-0.140000X0.170000X0.140000X0*%
%TD*%
%TA.AperFunction,SMDPad,CuDef*%
%ADD11RoundRect,0.075000X-0.662500X-0.075000X0.662500X-0.075000X0.662500X0.075000X-0.662500X0.075000X0*%
%TD*%
%TA.AperFunction,SMDPad,CuDef*%
%ADD12RoundRect,0.075000X-0.075000X-0.662500X0.075000X-0.662500X0.075000X0.662500X-0.075000X0.662500X0*%
%TD*%
%TA.AperFunction,SMDPad,CuDef*%
%ADD13R,1.200000X1.400000*%
%TD*%
%TA.AperFunction,SMDPad,CuDef*%
%ADD14RoundRect,0.140000X0.170000X-0.140000X0.170000X0.140000X-0.170000X0.140000X-0.170000X-0.140000X0*%
%TD*%
%TA.AperFunction,SMDPad,CuDef*%
%ADD15R,2.400000X0.740000*%
%TD*%
%TA.AperFunction,SMDPad,CuDef*%
%ADD16RoundRect,0.250000X0.250000X0.475000X-0.250000X0.475000X-0.250000X-0.475000X0.250000X-0.475000X0*%
%TD*%
%TA.AperFunction,SMDPad,CuDef*%
%ADD17RoundRect,0.140000X0.140000X0.170000X-0.140000X0.170000X-0.140000X-0.170000X0.140000X-0.170000X0*%
%TD*%
%TA.AperFunction,SMDPad,CuDef*%
%ADD18RoundRect,0.250000X-0.250000X-0.475000X0.250000X-0.475000X0.250000X0.475000X-0.250000X0.475000X0*%
%TD*%
%TA.AperFunction,SMDPad,CuDef*%
%ADD19RoundRect,0.135000X0.135000X0.185000X-0.135000X0.185000X-0.135000X-0.185000X0.135000X-0.185000X0*%
%TD*%
%TA.AperFunction,SMDPad,CuDef*%
%ADD20RoundRect,0.218750X0.256250X-0.218750X0.256250X0.218750X-0.256250X0.218750X-0.256250X-0.218750X0*%
%TD*%
%TA.AperFunction,SMDPad,CuDef*%
%ADD21R,1.600000X5.700000*%
%TD*%
%TA.AperFunction,SMDPad,CuDef*%
%ADD22RoundRect,0.250000X0.450000X-0.262500X0.450000X0.262500X-0.450000X0.262500X-0.450000X-0.262500X0*%
%TD*%
%TA.AperFunction,SMDPad,CuDef*%
%ADD23RoundRect,0.140000X-0.140000X-0.170000X0.140000X-0.170000X0.140000X0.170000X-0.140000X0.170000X0*%
%TD*%
%TA.AperFunction,SMDPad,CuDef*%
%ADD24RoundRect,0.200000X-0.200000X-0.275000X0.200000X-0.275000X0.200000X0.275000X-0.200000X0.275000X0*%
%TD*%
%TA.AperFunction,ComponentPad*%
%ADD25C,0.800000*%
%TD*%
%TA.AperFunction,ComponentPad*%
%ADD26C,6.400000*%
%TD*%
%TA.AperFunction,SMDPad,CuDef*%
%ADD27R,1.000000X1.500000*%
%TD*%
%TA.AperFunction,SMDPad,CuDef*%
%ADD28RoundRect,0.200000X-0.275000X0.200000X-0.275000X-0.200000X0.275000X-0.200000X0.275000X0.200000X0*%
%TD*%
%TA.AperFunction,SMDPad,CuDef*%
%ADD29R,1.100000X1.100000*%
%TD*%
%TA.AperFunction,ComponentPad*%
%ADD30C,1.400000*%
%TD*%
%TA.AperFunction,ComponentPad*%
%ADD31C,1.800000*%
%TD*%
%TA.AperFunction,ComponentPad*%
%ADD32C,4.000000*%
%TD*%
%TA.AperFunction,SMDPad,CuDef*%
%ADD33R,2.000000X2.000000*%
%TD*%
%TA.AperFunction,SMDPad,CuDef*%
%ADD34RoundRect,0.250000X-0.475000X0.250000X-0.475000X-0.250000X0.475000X-0.250000X0.475000X0.250000X0*%
%TD*%
%TA.AperFunction,SMDPad,CuDef*%
%ADD35R,2.500000X1.800000*%
%TD*%
%TA.AperFunction,SMDPad,CuDef*%
%ADD36R,0.600000X1.550000*%
%TD*%
%TA.AperFunction,ComponentPad*%
%ADD37C,0.600000*%
%TD*%
%TA.AperFunction,SMDPad,CuDef*%
%ADD38R,3.100000X2.600000*%
%TD*%
%TA.AperFunction,SMDPad,CuDef*%
%ADD39R,4.500000X2.950000*%
%TD*%
%TA.AperFunction,SMDPad,CuDef*%
%ADD40RoundRect,0.150000X0.825000X0.150000X-0.825000X0.150000X-0.825000X-0.150000X0.825000X-0.150000X0*%
%TD*%
%TA.AperFunction,ViaPad*%
%ADD41C,0.800000*%
%TD*%
%TA.AperFunction,ViaPad*%
%ADD42C,0.450000*%
%TD*%
%TA.AperFunction,Conductor*%
%ADD43C,0.250000*%
%TD*%
%TA.AperFunction,Conductor*%
%ADD44C,0.500000*%
%TD*%
%TA.AperFunction,Conductor*%
%ADD45C,1.000000*%
%TD*%
%TA.AperFunction,Conductor*%
%ADD46C,2.000000*%
%TD*%
%TA.AperFunction,Conductor*%
%ADD47C,0.200000*%
%TD*%
G04 APERTURE END LIST*
D10*
%TO.P,C11,1*%
%TO.N,GND*%
X21562500Y-49345000D03*
%TO.P,C11,2*%
%TO.N,+3V3*%
X21562500Y-50305000D03*
%TD*%
D11*
%TO.P,U3,1,VBAT*%
%TO.N,+3V3*%
X24900000Y-44075000D03*
%TO.P,U3,2,PC13*%
%TO.N,unconnected-(U3-Pad2)*%
X24900000Y-44575000D03*
%TO.P,U3,3,PC14*%
%TO.N,/OSC32_IN*%
X24900000Y-45075000D03*
%TO.P,U3,4,PC15*%
%TO.N,/OSC32_OUT*%
X24900000Y-45575000D03*
%TO.P,U3,5,PD0*%
%TO.N,/OSC_IN*%
X24900000Y-46075000D03*
%TO.P,U3,6,PD1*%
%TO.N,/OSC_OUT*%
X24900000Y-46575000D03*
%TO.P,U3,7,NRST*%
%TO.N,/NRST*%
X24900000Y-47075000D03*
%TO.P,U3,8,VSSA*%
%TO.N,GND*%
X24900000Y-47575000D03*
%TO.P,U3,9,VDDA*%
%TO.N,+3V3*%
X24900000Y-48075000D03*
%TO.P,U3,10,PA0*%
%TO.N,/VBATT_SENSE*%
X24900000Y-48575000D03*
%TO.P,U3,11,PA1*%
%TO.N,unconnected-(U3-Pad11)*%
X24900000Y-49075000D03*
%TO.P,U3,12,PA2*%
%TO.N,unconnected-(U3-Pad12)*%
X24900000Y-49575000D03*
D12*
%TO.P,U3,13,PA3*%
%TO.N,unconnected-(U3-Pad13)*%
X26312500Y-50987500D03*
%TO.P,U3,14,PA4*%
%TO.N,unconnected-(U3-Pad14)*%
X26812500Y-50987500D03*
%TO.P,U3,15,PA5*%
%TO.N,unconnected-(U3-Pad15)*%
X27312500Y-50987500D03*
%TO.P,U3,16,PA6*%
%TO.N,unconnected-(U3-Pad16)*%
X27812500Y-50987500D03*
%TO.P,U3,17,PA7*%
%TO.N,unconnected-(U3-Pad17)*%
X28312500Y-50987500D03*
%TO.P,U3,18,PB0*%
%TO.N,/PB0*%
X28812500Y-50987500D03*
%TO.P,U3,19,PB1*%
%TO.N,/BOOT1*%
X29312500Y-50987500D03*
%TO.P,U3,20,PB2*%
%TO.N,unconnected-(U3-Pad20)*%
X29812500Y-50987500D03*
%TO.P,U3,21,PB10*%
%TO.N,unconnected-(U3-Pad21)*%
X30312500Y-50987500D03*
%TO.P,U3,22,PB11*%
%TO.N,unconnected-(U3-Pad22)*%
X30812500Y-50987500D03*
%TO.P,U3,23,VSS*%
%TO.N,GND*%
X31312500Y-50987500D03*
%TO.P,U3,24,VDD*%
%TO.N,+3V3*%
X31812500Y-50987500D03*
D11*
%TO.P,U3,25,PB12*%
%TO.N,unconnected-(U3-Pad25)*%
X33225000Y-49575000D03*
%TO.P,U3,26,PB13*%
%TO.N,unconnected-(U3-Pad26)*%
X33225000Y-49075000D03*
%TO.P,U3,27,PB14*%
%TO.N,unconnected-(U3-Pad27)*%
X33225000Y-48575000D03*
%TO.P,U3,28,PB15*%
%TO.N,unconnected-(U3-Pad28)*%
X33225000Y-48075000D03*
%TO.P,U3,29,PA8*%
%TO.N,unconnected-(U3-Pad29)*%
X33225000Y-47575000D03*
%TO.P,U3,30,PA9*%
%TO.N,unconnected-(U3-Pad30)*%
X33225000Y-47075000D03*
%TO.P,U3,31,PA10*%
%TO.N,unconnected-(U3-Pad31)*%
X33225000Y-46575000D03*
%TO.P,U3,32,PA11*%
%TO.N,unconnected-(U3-Pad32)*%
X33225000Y-46075000D03*
%TO.P,U3,33,PA12*%
%TO.N,unconnected-(U3-Pad33)*%
X33225000Y-45575000D03*
%TO.P,U3,34,PA13*%
%TO.N,/JTMS*%
X33225000Y-45075000D03*
%TO.P,U3,35,VSS*%
%TO.N,GND*%
X33225000Y-44575000D03*
%TO.P,U3,36,VDD*%
%TO.N,+3V3*%
X33225000Y-44075000D03*
D12*
%TO.P,U3,37,PA14*%
%TO.N,/JTCK*%
X31812500Y-42662500D03*
%TO.P,U3,38,PA15*%
%TO.N,/JTDI*%
X31312500Y-42662500D03*
%TO.P,U3,39,PB3*%
%TO.N,/JTDO*%
X30812500Y-42662500D03*
%TO.P,U3,40,PB4*%
%TO.N,unconnected-(U3-Pad40)*%
X30312500Y-42662500D03*
%TO.P,U3,41,PB5*%
%TO.N,unconnected-(U3-Pad41)*%
X29812500Y-42662500D03*
%TO.P,U3,42,PB6*%
%TO.N,unconnected-(U3-Pad42)*%
X29312500Y-42662500D03*
%TO.P,U3,43,PB7*%
%TO.N,unconnected-(U3-Pad43)*%
X28812500Y-42662500D03*
%TO.P,U3,44,BOOT0*%
%TO.N,/BOOT0*%
X28312500Y-42662500D03*
%TO.P,U3,45,PB8*%
%TO.N,/CANRX*%
X27812500Y-42662500D03*
%TO.P,U3,46,PB9*%
%TO.N,/CANTX*%
X27312500Y-42662500D03*
%TO.P,U3,47,VSS*%
%TO.N,GND*%
X26812500Y-42662500D03*
%TO.P,U3,48,VDD*%
%TO.N,+3V3*%
X26312500Y-42662500D03*
%TD*%
D13*
%TO.P,Y1,1,1*%
%TO.N,/OSC_IN*%
X18212500Y-45725000D03*
%TO.P,Y1,2,2*%
%TO.N,GND*%
X18212500Y-47925000D03*
%TO.P,Y1,3,3*%
%TO.N,/OSC_OUT*%
X19912500Y-47925000D03*
%TO.P,Y1,4,4*%
%TO.N,GND*%
X19912500Y-45725000D03*
%TD*%
D14*
%TO.P,C12,1*%
%TO.N,/OSC_IN*%
X21562500Y-46305000D03*
%TO.P,C12,2*%
%TO.N,GND*%
X21562500Y-45345000D03*
%TD*%
D15*
%TO.P,J2,1,TCK*%
%TO.N,/JTCK*%
X42112500Y-41650000D03*
%TO.P,J2,2,GND*%
%TO.N,GND*%
X46012500Y-41650000D03*
%TO.P,J2,3,TDO*%
%TO.N,/JTDO*%
X42112500Y-42920000D03*
%TO.P,J2,4,VREF*%
%TO.N,unconnected-(J2-Pad4)*%
X46012500Y-42920000D03*
%TO.P,J2,5,TMS*%
%TO.N,/JTMS*%
X42112500Y-44190000D03*
%TO.P,J2,6,~{SRST}*%
%TO.N,unconnected-(J2-Pad6)*%
X46012500Y-44190000D03*
%TO.P,J2,7,VCC*%
%TO.N,unconnected-(J2-Pad7)*%
X42112500Y-45460000D03*
%TO.P,J2,8,~{TRST}*%
%TO.N,unconnected-(J2-Pad8)*%
X46012500Y-45460000D03*
%TO.P,J2,9,TDI*%
%TO.N,/JTDI*%
X42112500Y-46730000D03*
%TO.P,J2,10,GND*%
%TO.N,GND*%
X46012500Y-46730000D03*
%TO.P,J2,11*%
%TO.N,N/C*%
X42112500Y-48000000D03*
%TO.P,J2,12*%
X46012500Y-48000000D03*
%TD*%
D10*
%TO.P,C5,1*%
%TO.N,+3V3*%
X42550000Y-23165000D03*
%TO.P,C5,2*%
%TO.N,GND*%
X42550000Y-24125000D03*
%TD*%
D14*
%TO.P,C7,1*%
%TO.N,GND*%
X35062500Y-44805000D03*
%TO.P,C7,2*%
%TO.N,+3V3*%
X35062500Y-43845000D03*
%TD*%
D16*
%TO.P,C4,1*%
%TO.N,+3V3*%
X56625000Y-32600000D03*
%TO.P,C4,2*%
%TO.N,GND*%
X54725000Y-32600000D03*
%TD*%
D17*
%TO.P,C9,1*%
%TO.N,GND*%
X26542500Y-40825000D03*
%TO.P,C9,2*%
%TO.N,+3V3*%
X25582500Y-40825000D03*
%TD*%
D18*
%TO.P,C3,1*%
%TO.N,/BOOT*%
X50100000Y-21625000D03*
%TO.P,C3,2*%
%TO.N,/PH*%
X52000000Y-21625000D03*
%TD*%
D19*
%TO.P,R7,1*%
%TO.N,Net-(C14-Pad1)*%
X27785000Y-59450000D03*
%TO.P,R7,2*%
%TO.N,+3V3*%
X26765000Y-59450000D03*
%TD*%
D20*
%TO.P,D4,1,K*%
%TO.N,Net-(D4-Pad1)*%
X52374999Y-35925001D03*
%TO.P,D4,2,A*%
%TO.N,+3V3*%
X52374999Y-34350001D03*
%TD*%
D21*
%TO.P,L1,1*%
%TO.N,/PH*%
X52700000Y-26625000D03*
%TO.P,L1,2*%
%TO.N,+3V3*%
X57400000Y-26625000D03*
%TD*%
D22*
%TO.P,R3,1*%
%TO.N,/CANH*%
X32500000Y-24537500D03*
%TO.P,R3,2*%
%TO.N,/CANL*%
X32500000Y-22712500D03*
%TD*%
D23*
%TO.P,C10,1*%
%TO.N,GND*%
X21582500Y-43825000D03*
%TO.P,C10,2*%
%TO.N,+3V3*%
X22542500Y-43825000D03*
%TD*%
%TO.P,C8,1*%
%TO.N,GND*%
X31082500Y-52825000D03*
%TO.P,C8,2*%
%TO.N,+3V3*%
X32042500Y-52825000D03*
%TD*%
D24*
%TO.P,R2,1*%
%TO.N,/VBATT_SENSE*%
X52350000Y-30850000D03*
%TO.P,R2,2*%
%TO.N,GND*%
X54000000Y-30850000D03*
%TD*%
D25*
%TO.P,H1,1,1*%
%TO.N,GND*%
X56197056Y-59472056D03*
X52802944Y-59472056D03*
X56197056Y-56077944D03*
X52100000Y-57775000D03*
X54500000Y-55375000D03*
D26*
X54500000Y-57775000D03*
D25*
X54500000Y-60175000D03*
X52802944Y-56077944D03*
X56900000Y-57775000D03*
%TD*%
D27*
%TO.P,JP1,1,A*%
%TO.N,+3V3*%
X47350000Y-34345000D03*
%TO.P,JP1,2,C*%
%TO.N,Net-(JP1-Pad2)*%
X46050000Y-34345000D03*
%TO.P,JP1,3,B*%
%TO.N,GND*%
X44750000Y-34345000D03*
%TD*%
D28*
%TO.P,R6,1*%
%TO.N,Net-(D3-Pad1)*%
X50725000Y-37800000D03*
%TO.P,R6,2*%
%TO.N,/PB0*%
X50725000Y-39450000D03*
%TD*%
D29*
%TO.P,D2,1,K*%
%TO.N,/PH*%
X50050000Y-27525000D03*
%TO.P,D2,2,A*%
%TO.N,GND*%
X50050000Y-24725000D03*
%TD*%
D30*
%TO.P,TP1,1,1*%
%TO.N,GND*%
X54275000Y-22000000D03*
%TO.P,TP1,2,2*%
%TO.N,+3V3*%
X56815000Y-22000000D03*
%TD*%
D28*
%TO.P,R8,1*%
%TO.N,Net-(D4-Pad1)*%
X52374999Y-37812500D03*
%TO.P,R8,2*%
%TO.N,GND*%
X52374999Y-39462500D03*
%TD*%
D24*
%TO.P,R1,1*%
%TO.N,/VIN*%
X49350000Y-30850000D03*
%TO.P,R1,2*%
%TO.N,/VBATT_SENSE*%
X51000000Y-30850000D03*
%TD*%
D31*
%TO.P,J1,1,Pin_1*%
%TO.N,+12V*%
X27287500Y-30754166D03*
%TO.P,J1,2,Pin_2*%
%TO.N,GND*%
X27287500Y-28570833D03*
%TO.P,J1,3,Pin_3*%
%TO.N,/CANH*%
X27287500Y-26387500D03*
%TO.P,J1,4,Pin_4*%
%TO.N,/CANL*%
X27287500Y-24204166D03*
D32*
%TO.P,J1,MH1*%
%TO.N,N/C*%
X21162500Y-31462500D03*
%TO.P,J1,MH2*%
X21162500Y-23462500D03*
%TD*%
D33*
%TO.P,SW1,1,1*%
%TO.N,/NRST*%
X30000000Y-58923500D03*
%TO.P,SW1,2,2*%
%TO.N,Net-(C14-Pad1)*%
X38000000Y-58923500D03*
%TD*%
D27*
%TO.P,JP2,1,A*%
%TO.N,+3V3*%
X47350000Y-37625000D03*
%TO.P,JP2,2,C*%
%TO.N,Net-(JP2-Pad2)*%
X46050000Y-37625000D03*
%TO.P,JP2,3,B*%
%TO.N,GND*%
X44750000Y-37625000D03*
%TD*%
D20*
%TO.P,D3,1,K*%
%TO.N,Net-(D3-Pad1)*%
X50724999Y-35912500D03*
%TO.P,D3,2,A*%
%TO.N,+3V3*%
X50724999Y-34337500D03*
%TD*%
D34*
%TO.P,C1,1*%
%TO.N,/VIN*%
X47080000Y-29675000D03*
%TO.P,C1,2*%
%TO.N,GND*%
X47080000Y-31575000D03*
%TD*%
D10*
%TO.P,C13,1*%
%TO.N,/OSC_OUT*%
X21562500Y-47345000D03*
%TO.P,C13,2*%
%TO.N,GND*%
X21562500Y-48305000D03*
%TD*%
D35*
%TO.P,D1,1,K*%
%TO.N,/VIN*%
X39550000Y-28625000D03*
%TO.P,D1,2,A*%
%TO.N,+12V*%
X35550000Y-28625000D03*
%TD*%
D36*
%TO.P,U1,1,BOOT*%
%TO.N,/BOOT*%
X47955000Y-21925000D03*
%TO.P,U1,2,NC*%
%TO.N,unconnected-(U1-Pad2)*%
X46685000Y-21925000D03*
%TO.P,U1,3,NC*%
%TO.N,unconnected-(U1-Pad3)*%
X45415000Y-21925000D03*
%TO.P,U1,4,VSENSE*%
%TO.N,/VSENSE*%
X44145000Y-21925000D03*
%TO.P,U1,5,EN*%
%TO.N,unconnected-(U1-Pad5)*%
X44145000Y-27325000D03*
%TO.P,U1,6,GND*%
%TO.N,GND*%
X45415000Y-27325000D03*
%TO.P,U1,7,VIN*%
%TO.N,/VIN*%
X46685000Y-27325000D03*
%TO.P,U1,8,PH*%
%TO.N,/PH*%
X47955000Y-27325000D03*
D37*
%TO.P,U1,9,GNDPAD*%
%TO.N,GND*%
X46650000Y-25225000D03*
X45350000Y-25225000D03*
X45350000Y-24025000D03*
D38*
X46050000Y-24625000D03*
D37*
X47850000Y-24025000D03*
X47850000Y-25225000D03*
X46650000Y-24025000D03*
X44250000Y-24025000D03*
D39*
X46050000Y-24625000D03*
D37*
X44250000Y-25225000D03*
%TD*%
D18*
%TO.P,C6,1*%
%TO.N,GND*%
X21112500Y-42250000D03*
%TO.P,C6,2*%
%TO.N,+3V3*%
X23012500Y-42250000D03*
%TD*%
D25*
%TO.P,H2,1,1*%
%TO.N,GND*%
X18727944Y-56077944D03*
X18727944Y-59472056D03*
X22122056Y-59472056D03*
X20425000Y-55375000D03*
X22122056Y-56077944D03*
X18025000Y-57775000D03*
X22825000Y-57775000D03*
D26*
X20425000Y-57775000D03*
D25*
X20425000Y-60175000D03*
%TD*%
D19*
%TO.P,R10,1*%
%TO.N,Net-(JP2-Pad2)*%
X43260000Y-36845000D03*
%TO.P,R10,2*%
%TO.N,/BOOT1*%
X42240000Y-36845000D03*
%TD*%
D24*
%TO.P,R4,1*%
%TO.N,+3V3*%
X42500000Y-19750000D03*
%TO.P,R4,2*%
%TO.N,/VSENSE*%
X44150000Y-19750000D03*
%TD*%
D19*
%TO.P,R9,1*%
%TO.N,Net-(JP1-Pad2)*%
X43260001Y-35125000D03*
%TO.P,R9,2*%
%TO.N,/BOOT0*%
X42240001Y-35125000D03*
%TD*%
D34*
%TO.P,C2,1*%
%TO.N,/VIN*%
X45050000Y-29675000D03*
%TO.P,C2,2*%
%TO.N,GND*%
X45050000Y-31575000D03*
%TD*%
D24*
%TO.P,R5,1*%
%TO.N,/VSENSE*%
X45500000Y-19750000D03*
%TO.P,R5,2*%
%TO.N,GND*%
X47150000Y-19750000D03*
%TD*%
D40*
%TO.P,U2,1,D*%
%TO.N,/CANTX*%
X40525000Y-25530000D03*
%TO.P,U2,2,GND*%
%TO.N,GND*%
X40525000Y-24260000D03*
%TO.P,U2,3,VCC*%
%TO.N,+3V3*%
X40525000Y-22990000D03*
%TO.P,U2,4,R*%
%TO.N,/CANRX*%
X40525000Y-21720000D03*
%TO.P,U2,5,Vref*%
%TO.N,unconnected-(U2-Pad5)*%
X35575000Y-21720000D03*
%TO.P,U2,6,CANL*%
%TO.N,/CANL*%
X35575000Y-22990000D03*
%TO.P,U2,7,CANH*%
%TO.N,/CANH*%
X35575000Y-24260000D03*
%TO.P,U2,8,Rs*%
%TO.N,GND*%
X35575000Y-25530000D03*
%TD*%
D23*
%TO.P,C14,1*%
%TO.N,Net-(C14-Pad1)*%
X26795000Y-58350000D03*
%TO.P,C14,2*%
%TO.N,/NRST*%
X27755000Y-58350000D03*
%TD*%
D41*
%TO.N,GND*%
X55887500Y-43600000D03*
X57350000Y-43600000D03*
X54425000Y-43600000D03*
X35975000Y-46725000D03*
X48250000Y-19750000D03*
X43300000Y-33875000D03*
X48350000Y-41650000D03*
X37550000Y-31775000D03*
X57325000Y-35650000D03*
X44700000Y-57825000D03*
X35975000Y-51250000D03*
X31050000Y-53650500D03*
X35974852Y-44801523D03*
X40650000Y-31775000D03*
D42*
X17299520Y-47925000D03*
X20725000Y-43825000D03*
D41*
X53825000Y-32600000D03*
X47575000Y-60025000D03*
X42950000Y-53425000D03*
X39600000Y-51225000D03*
X41350000Y-60025000D03*
X18125000Y-41225000D03*
X55862500Y-35650000D03*
D42*
X22425000Y-45350000D03*
D41*
X24450000Y-37475000D03*
X43250000Y-38075000D03*
X35975000Y-48800000D03*
X55887500Y-39675000D03*
X34450000Y-33875000D03*
X37550000Y-33875000D03*
X48350000Y-46725000D03*
X26575000Y-38725000D03*
X54400000Y-35650000D03*
X18125000Y-37450000D03*
X57350000Y-39675000D03*
X39600000Y-53425000D03*
X21250000Y-37450000D03*
X40650000Y-33875000D03*
X42950000Y-51225000D03*
D42*
X20864444Y-49350000D03*
D41*
X35975000Y-53450000D03*
X54425000Y-39675000D03*
X34450000Y-31800000D03*
X47575000Y-57825000D03*
X41350000Y-57825000D03*
X50750000Y-41450000D03*
%TO.N,+3V3*%
X57400000Y-30650000D03*
X24350000Y-42250000D03*
X24050000Y-53925000D03*
X25250000Y-42250000D03*
X23450000Y-40700000D03*
X33150000Y-52800000D03*
X34150000Y-42374500D03*
X24350000Y-40700000D03*
X49250001Y-34350001D03*
X57400000Y-31625000D03*
X57400000Y-29675000D03*
D42*
%TO.N,/NRST*%
X22725000Y-50750000D03*
X22725000Y-47450000D03*
%TO.N,/CANTX*%
X32850000Y-38075000D03*
X42350000Y-25525000D03*
%TO.N,/CANRX*%
X42325000Y-21700000D03*
X32250000Y-38675000D03*
%TO.N,/JTDI*%
X38812500Y-40825000D03*
X38812500Y-46725000D03*
%TD*%
D43*
%TO.N,GND*%
X33225000Y-44575000D02*
X34575000Y-44575000D01*
X34575000Y-44575000D02*
X34805000Y-44805000D01*
X34805000Y-44805000D02*
X35062500Y-44805000D01*
D44*
%TO.N,+3V3*%
X34799500Y-42374500D02*
X35062500Y-42637500D01*
X35062500Y-42637500D02*
X35062500Y-43845000D01*
X34150000Y-42374500D02*
X34799500Y-42374500D01*
X24050000Y-53925000D02*
X24100000Y-53925000D01*
X24100000Y-53925000D02*
X25925000Y-55750000D01*
X26025000Y-59450000D02*
X26765000Y-59450000D01*
X25925000Y-55750000D02*
X25925000Y-59350000D01*
X25925000Y-59350000D02*
X26025000Y-59450000D01*
X24050000Y-53925000D02*
X24050000Y-53824598D01*
X24050000Y-53824598D02*
X21562500Y-51337098D01*
X21562500Y-51337098D02*
X21562500Y-50305000D01*
%TO.N,GND*%
X20869444Y-49345000D02*
X21562500Y-49345000D01*
X21562500Y-49345000D02*
X21562500Y-48305000D01*
X21030000Y-45345000D02*
X21562500Y-45345000D01*
X44750000Y-34345000D02*
X44750000Y-31875000D01*
X42415000Y-24260000D02*
X42550000Y-24125000D01*
D45*
X48250000Y-19750000D02*
X47150000Y-19750000D01*
D44*
X21562500Y-45345000D02*
X21562500Y-43845000D01*
D45*
X54725000Y-32600000D02*
X54725000Y-31125000D01*
D44*
X40525000Y-24260000D02*
X42415000Y-24260000D01*
X20650000Y-45725000D02*
X21030000Y-45345000D01*
X35974852Y-44801523D02*
X35971375Y-44805000D01*
D43*
X26542500Y-41305000D02*
X26542500Y-40825000D01*
D44*
X35971375Y-44805000D02*
X35062500Y-44805000D01*
X44750000Y-31875000D02*
X45050000Y-31575000D01*
X42550000Y-24125000D02*
X45550000Y-24125000D01*
D43*
X21792500Y-49345000D02*
X21562500Y-49345000D01*
D44*
X31082500Y-52825000D02*
X31082500Y-53618000D01*
D43*
X31312500Y-50987500D02*
X31312500Y-52075000D01*
X31062500Y-52325000D02*
X31062500Y-52805000D01*
D44*
X26575000Y-38725000D02*
X26542500Y-38757500D01*
X21582500Y-43825000D02*
X21582500Y-42720000D01*
D43*
X24900000Y-47575000D02*
X23562500Y-47575000D01*
X31312500Y-52075000D02*
X31062500Y-52325000D01*
D44*
X47080000Y-31575000D02*
X45050000Y-31575000D01*
X31082500Y-53618000D02*
X31050000Y-53650500D01*
X43770000Y-34345000D02*
X43300000Y-33875000D01*
X45415000Y-27325000D02*
X45415000Y-25260000D01*
X43700000Y-37625000D02*
X44750000Y-37625000D01*
D45*
X54450000Y-30850000D02*
X54000000Y-30850000D01*
D44*
X26542500Y-38757500D02*
X26542500Y-40825000D01*
D45*
X54725000Y-31125000D02*
X54450000Y-30850000D01*
D43*
X26812500Y-41575000D02*
X26542500Y-41305000D01*
D45*
X52374999Y-39825001D02*
X52374999Y-39462500D01*
D44*
X22420000Y-45345000D02*
X22425000Y-45350000D01*
X21582500Y-42720000D02*
X21112500Y-42250000D01*
D43*
X26812500Y-42662500D02*
X26812500Y-41575000D01*
D44*
X43250000Y-38075000D02*
X43700000Y-37625000D01*
D45*
X46012500Y-41650000D02*
X48350000Y-41650000D01*
D44*
X19912500Y-45725000D02*
X20650000Y-45725000D01*
D45*
X50750000Y-41450000D02*
X52374999Y-39825001D01*
D44*
X21582500Y-43825000D02*
X20725000Y-43825000D01*
X21562500Y-45345000D02*
X22420000Y-45345000D01*
X18212500Y-47925000D02*
X17299520Y-47925000D01*
D45*
X48345000Y-46730000D02*
X48350000Y-46725000D01*
D44*
X20864444Y-49350000D02*
X20869444Y-49345000D01*
D43*
X23562500Y-47575000D02*
X21792500Y-49345000D01*
D45*
X46012500Y-46730000D02*
X48345000Y-46730000D01*
X54725000Y-32600000D02*
X53825000Y-32600000D01*
D44*
X44750000Y-34345000D02*
X43770000Y-34345000D01*
%TO.N,+3V3*%
X40525000Y-22990000D02*
X42375000Y-22990000D01*
D43*
X22725000Y-49162500D02*
X22725000Y-49775000D01*
D45*
X49250001Y-34350001D02*
X47355001Y-34350001D01*
D43*
X31812500Y-52075000D02*
X32062500Y-52325000D01*
D45*
X47350000Y-37625000D02*
X47350000Y-34345000D01*
D43*
X23812500Y-48075000D02*
X22725000Y-49162500D01*
X31812500Y-50987500D02*
X31812500Y-52075000D01*
D44*
X42999511Y-22125489D02*
X42550000Y-22575000D01*
D43*
X22975000Y-43825000D02*
X22542500Y-43825000D01*
D44*
X23012500Y-42462500D02*
X22542500Y-42932500D01*
D43*
X22195000Y-50305000D02*
X21582500Y-50305000D01*
X22725000Y-49775000D02*
X22195000Y-50305000D01*
D45*
X47355001Y-34350001D02*
X47350000Y-34345000D01*
D44*
X42500000Y-19750000D02*
X42999511Y-20249511D01*
X33150000Y-52800000D02*
X32067500Y-52800000D01*
D43*
X24900000Y-44075000D02*
X23225000Y-44075000D01*
D45*
X57400000Y-30525000D02*
X57400000Y-32450000D01*
D44*
X22542500Y-42932500D02*
X22542500Y-43825000D01*
D43*
X34312500Y-44075000D02*
X34562500Y-43825000D01*
D44*
X42375000Y-22990000D02*
X42550000Y-23165000D01*
X42999511Y-20249511D02*
X42999511Y-22125489D01*
D43*
X34562500Y-43825000D02*
X35042500Y-43825000D01*
X24900000Y-48075000D02*
X23812500Y-48075000D01*
X32062500Y-52325000D02*
X32062500Y-52805000D01*
D44*
X42550000Y-22575000D02*
X42550000Y-23165000D01*
D45*
X57400000Y-30525000D02*
X57400000Y-26625000D01*
X57250000Y-32600000D02*
X56625000Y-32600000D01*
D43*
X23225000Y-44075000D02*
X22975000Y-43825000D01*
D45*
X52374999Y-34350001D02*
X49250001Y-34350001D01*
D43*
X33225000Y-44075000D02*
X34312500Y-44075000D01*
D45*
X57400000Y-32450000D02*
X57250000Y-32600000D01*
D43*
%TO.N,/OSC_IN*%
X18212500Y-45974022D02*
X18987989Y-46749511D01*
X22437500Y-46075000D02*
X22187500Y-46325000D01*
X24900000Y-46075000D02*
X22437500Y-46075000D01*
X22187500Y-46325000D02*
X21582500Y-46325000D01*
X21117989Y-46749511D02*
X21562500Y-46305000D01*
X18987989Y-46749511D02*
X21117989Y-46749511D01*
%TO.N,/OSC_OUT*%
X19912500Y-47925000D02*
X20462500Y-47925000D01*
X24900000Y-46575000D02*
X22755359Y-46575000D01*
X21985359Y-47345000D02*
X21562500Y-47345000D01*
X20462500Y-47925000D02*
X21062500Y-47325000D01*
X22755359Y-46575000D02*
X21985359Y-47345000D01*
X21062500Y-47325000D02*
X21542500Y-47325000D01*
%TO.N,Net-(C14-Pad1)*%
X34876500Y-58923500D02*
X38000000Y-58923500D01*
X27785000Y-59410000D02*
X26795000Y-58420000D01*
X27785000Y-59450000D02*
X28835000Y-60500000D01*
X33300000Y-60500000D02*
X34876500Y-58923500D01*
X28835000Y-60500000D02*
X33300000Y-60500000D01*
D44*
%TO.N,/NRST*%
X27755000Y-58350000D02*
X29426500Y-58350000D01*
D43*
X22725000Y-50750000D02*
X22725000Y-51475000D01*
X27750000Y-56500000D02*
X27750000Y-58345000D01*
X22725000Y-47450000D02*
X23100000Y-47075000D01*
X23100000Y-47075000D02*
X24900000Y-47075000D01*
X22725000Y-51475000D02*
X27750000Y-56500000D01*
D46*
%TO.N,+12V*%
X29520834Y-30754166D02*
X27287500Y-30754166D01*
X31650000Y-28625000D02*
X29520834Y-30754166D01*
X35550000Y-28625000D02*
X31650000Y-28625000D01*
D45*
%TO.N,Net-(D3-Pad1)*%
X50724999Y-35912500D02*
X50725000Y-37800000D01*
%TO.N,Net-(D4-Pad1)*%
X52374999Y-35925001D02*
X52374999Y-37812500D01*
D44*
%TO.N,/CANH*%
X33712500Y-24537500D02*
X32500000Y-24537500D01*
X29187500Y-26387500D02*
X31037500Y-24537500D01*
X27287500Y-26387500D02*
X29187500Y-26387500D01*
X35575000Y-24260000D02*
X33990000Y-24260000D01*
X31037500Y-24537500D02*
X32500000Y-24537500D01*
X33990000Y-24260000D02*
X33712500Y-24537500D01*
%TO.N,/CANL*%
X29270834Y-24204166D02*
X30762500Y-22712500D01*
X27287500Y-24204166D02*
X29270834Y-24204166D01*
X35575000Y-22990000D02*
X32777500Y-22990000D01*
X30762500Y-22712500D02*
X32500000Y-22712500D01*
X32777500Y-22990000D02*
X32500000Y-22712500D01*
D43*
%TO.N,/JTCK*%
X31812500Y-41987500D02*
X32150000Y-41650000D01*
X32150000Y-41650000D02*
X42112500Y-41650000D01*
X31812500Y-42662500D02*
X31812500Y-41987500D01*
%TO.N,/JTDO*%
X44400000Y-42237500D02*
X43717500Y-42920000D01*
X31950000Y-40050000D02*
X43600000Y-40050000D01*
X30812500Y-41187500D02*
X31950000Y-40050000D01*
X43600000Y-40050000D02*
X44400000Y-40850000D01*
X30812500Y-42662500D02*
X30812500Y-41187500D01*
X44400000Y-40850000D02*
X44400000Y-42237500D01*
X43717500Y-42920000D02*
X42112500Y-42920000D01*
%TO.N,/JTMS*%
X34812499Y-45575000D02*
X36812500Y-45575000D01*
X34312499Y-45075000D02*
X34812499Y-45575000D01*
X38197500Y-44190000D02*
X42112500Y-44190000D01*
X36812500Y-45575000D02*
X38197500Y-44190000D01*
X33225000Y-45075000D02*
X34312499Y-45075000D01*
D47*
%TO.N,Net-(JP1-Pad2)*%
X45600000Y-35650000D02*
X46050000Y-35200000D01*
X46050000Y-35200000D02*
X46050000Y-34345000D01*
X43785001Y-35650000D02*
X45600000Y-35650000D01*
X43260001Y-35125000D02*
X43785001Y-35650000D01*
%TO.N,Net-(JP2-Pad2)*%
X43750000Y-36150000D02*
X45550000Y-36150000D01*
X46050000Y-36650000D02*
X46050000Y-37625000D01*
X43260000Y-36640000D02*
X43750000Y-36150000D01*
X45550000Y-36150000D02*
X46050000Y-36650000D01*
D43*
%TO.N,/VBATT_SENSE*%
X50149040Y-43400960D02*
X50149040Y-54047395D01*
X53575000Y-39975000D02*
X50149040Y-43400960D01*
X51675000Y-30875000D02*
X51675000Y-31775000D01*
X53575000Y-33675000D02*
X53575000Y-39975000D01*
D45*
X51425000Y-30850000D02*
X52350000Y-30850000D01*
D43*
X28375000Y-55975000D02*
X23400000Y-51000000D01*
X51675000Y-31775000D02*
X53575000Y-33675000D01*
X23400000Y-51000000D02*
X23400000Y-49123218D01*
X23400000Y-49123218D02*
X23948218Y-48575000D01*
X23948218Y-48575000D02*
X24900000Y-48575000D01*
D45*
X51400000Y-30875000D02*
X51425000Y-30850000D01*
D43*
X50149040Y-54047395D02*
X48221435Y-55975000D01*
X48221435Y-55975000D02*
X28375000Y-55975000D01*
%TO.N,/PB0*%
X50725000Y-40050000D02*
X50725000Y-39450000D01*
X49699520Y-53861198D02*
X49699520Y-41075480D01*
X49699520Y-41075480D02*
X50725000Y-40050000D01*
X48035238Y-55525480D02*
X49699520Y-53861198D01*
X28812500Y-50987500D02*
X28812500Y-53737500D01*
X30600481Y-55525480D02*
X48035238Y-55525480D01*
X28812500Y-53737500D02*
X30600481Y-55525480D01*
%TO.N,/BOOT0*%
X28312500Y-41012500D02*
X29925000Y-39400000D01*
X28312500Y-42662500D02*
X28312500Y-41012500D01*
X29925000Y-39400000D02*
X37350000Y-39400000D01*
X41625000Y-35125000D02*
X42240001Y-35125000D01*
X37350000Y-39400000D02*
X41625000Y-35125000D01*
%TO.N,/BOOT1*%
X47600000Y-39425000D02*
X41400000Y-39425000D01*
X47849040Y-55075960D02*
X49250000Y-53675000D01*
X29312500Y-50987500D02*
X29312500Y-53601782D01*
X30786678Y-55075960D02*
X47849040Y-55075960D01*
X49250000Y-41075000D02*
X47600000Y-39425000D01*
X40850000Y-37325000D02*
X41330000Y-36845000D01*
X41400000Y-39425000D02*
X40850000Y-38875000D01*
X41330000Y-36845000D02*
X42240000Y-36845000D01*
X40850000Y-38875000D02*
X40850000Y-37325000D01*
X49250000Y-53675000D02*
X49250000Y-41075000D01*
X29312500Y-53601782D02*
X30786678Y-55075960D01*
%TO.N,/CANTX*%
X27312500Y-40641064D02*
X27312500Y-42662500D01*
X29878564Y-38075000D02*
X27312500Y-40641064D01*
X32850000Y-38075000D02*
X29878564Y-38075000D01*
X42345000Y-25530000D02*
X42350000Y-25525000D01*
X40525000Y-25530000D02*
X42345000Y-25530000D01*
%TO.N,/CANRX*%
X40525000Y-21720000D02*
X42305000Y-21720000D01*
X32250000Y-38675000D02*
X29914282Y-38675000D01*
X29914282Y-38675000D02*
X27812500Y-40776782D01*
X27812500Y-40776782D02*
X27812500Y-42662500D01*
X42305000Y-21720000D02*
X42325000Y-21700000D01*
%TO.N,/JTDI*%
X31312500Y-41637500D02*
X31312500Y-42662500D01*
X38817500Y-46730000D02*
X42112500Y-46730000D01*
X32125000Y-40825000D02*
X31312500Y-41637500D01*
X38812500Y-46725000D02*
X38817500Y-46730000D01*
X38812500Y-40825000D02*
X32125000Y-40825000D01*
D44*
%TO.N,/VSENSE*%
X44150000Y-20825000D02*
X44150000Y-19750000D01*
X45500000Y-19750000D02*
X44150000Y-19750000D01*
X44145000Y-21925000D02*
X44145000Y-20430000D01*
%TD*%
%TA.AperFunction,Conductor*%
%TO.N,+12V*%
G36*
X36693212Y-27495002D02*
G01*
X36739705Y-27548658D01*
X36751086Y-27599904D01*
X36769125Y-29674306D01*
X36773895Y-30222904D01*
X36754486Y-30291196D01*
X36701237Y-30338154D01*
X36647900Y-30350000D01*
X32650000Y-30350000D01*
X32642626Y-30357484D01*
X31012015Y-32012433D01*
X30949956Y-32046919D01*
X30922262Y-32050000D01*
X26327254Y-32050000D01*
X26259133Y-32029998D01*
X26212640Y-31976342D01*
X26201260Y-31922753D01*
X26223765Y-29649753D01*
X26244441Y-29581833D01*
X26298554Y-29535874D01*
X26349759Y-29525000D01*
X26697722Y-29525000D01*
X26757086Y-29540077D01*
X26760137Y-29542115D01*
X26765439Y-29544393D01*
X26765441Y-29544394D01*
X26852583Y-29581833D01*
X26945970Y-29621955D01*
X27143240Y-29666593D01*
X27149009Y-29666820D01*
X27149012Y-29666820D01*
X27225183Y-29669812D01*
X27345342Y-29674533D01*
X27431632Y-29662022D01*
X27539786Y-29646341D01*
X27539791Y-29646340D01*
X27545507Y-29645511D01*
X27550979Y-29643653D01*
X27550981Y-29643653D01*
X27731567Y-29582352D01*
X27731569Y-29582351D01*
X27737031Y-29580497D01*
X27807442Y-29541065D01*
X27869009Y-29525000D01*
X28950000Y-29525000D01*
X31063493Y-27509809D01*
X31126597Y-27477277D01*
X31150442Y-27475000D01*
X36625091Y-27475000D01*
X36693212Y-27495002D01*
G37*
%TD.AperFunction*%
%TD*%
%TA.AperFunction,Conductor*%
%TO.N,GND*%
G36*
X50700000Y-25325000D02*
G01*
X48350000Y-26125000D01*
X45725000Y-26125000D01*
X45725000Y-28125000D01*
X45125000Y-28125000D01*
X45125000Y-26125000D01*
X43775000Y-26125000D01*
X43775000Y-23150000D01*
X50675000Y-23150000D01*
X50700000Y-25325000D01*
G37*
%TD.AperFunction*%
%TD*%
%TA.AperFunction,Conductor*%
%TO.N,/VIN*%
G36*
X47117121Y-26570002D02*
G01*
X47163614Y-26623658D01*
X47175000Y-26676000D01*
X47175000Y-28425000D01*
X50324000Y-28425000D01*
X50392121Y-28445002D01*
X50438614Y-28498658D01*
X50450000Y-28551000D01*
X50450000Y-30349486D01*
X50436267Y-30406688D01*
X50418856Y-30440860D01*
X50414354Y-30449696D01*
X50399500Y-30543481D01*
X50399501Y-31156518D01*
X50403108Y-31179292D01*
X50394009Y-31249700D01*
X50348287Y-31304014D01*
X50278659Y-31325000D01*
X48937266Y-31325000D01*
X48869145Y-31304998D01*
X48837177Y-31275539D01*
X48244118Y-30500000D01*
X48225000Y-30475000D01*
X41675000Y-30475000D01*
X41674856Y-30475001D01*
X41674854Y-30475001D01*
X38176869Y-30499125D01*
X38108612Y-30479593D01*
X38061750Y-30426259D01*
X38050000Y-30373128D01*
X38050000Y-27676000D01*
X38070002Y-27607879D01*
X38123658Y-27561386D01*
X38176000Y-27550000D01*
X41083982Y-27550000D01*
X41152103Y-27570002D01*
X41187578Y-27604280D01*
X41743228Y-28406885D01*
X42050000Y-28850000D01*
X46150000Y-28850000D01*
X46173645Y-26674630D01*
X46194387Y-26606731D01*
X46248545Y-26560824D01*
X46299638Y-26550000D01*
X47049000Y-26550000D01*
X47117121Y-26570002D01*
G37*
%TD.AperFunction*%
%TD*%
%TA.AperFunction,Conductor*%
%TO.N,+3V3*%
G36*
X56720681Y-18001500D02*
G01*
X56734956Y-18003723D01*
X56734959Y-18003723D01*
X56743829Y-18005104D01*
X56758619Y-18003170D01*
X56783940Y-18002427D01*
X56926275Y-18012607D01*
X56954482Y-18014625D01*
X56972277Y-18017183D01*
X57163798Y-18058846D01*
X57181043Y-18063910D01*
X57364682Y-18132405D01*
X57381034Y-18139872D01*
X57553054Y-18233801D01*
X57568178Y-18243521D01*
X57725080Y-18360977D01*
X57738666Y-18372750D01*
X57877250Y-18511334D01*
X57889023Y-18524920D01*
X58006479Y-18681822D01*
X58016199Y-18696946D01*
X58110128Y-18868966D01*
X58117595Y-18885318D01*
X58186090Y-19068957D01*
X58191154Y-19086202D01*
X58220529Y-19221237D01*
X58232817Y-19277724D01*
X58235375Y-19295518D01*
X58240200Y-19362971D01*
X58247072Y-19459055D01*
X58246368Y-19475982D01*
X58246387Y-19475982D01*
X58246277Y-19484958D01*
X58244896Y-19493829D01*
X58246060Y-19502731D01*
X58246060Y-19502734D01*
X58248936Y-19524725D01*
X58250000Y-19541062D01*
X58250000Y-33233361D01*
X58229998Y-33301482D01*
X58176342Y-33347975D01*
X58124740Y-33359358D01*
X55576737Y-33374259D01*
X55508500Y-33354655D01*
X55461694Y-33301273D01*
X55450000Y-33248261D01*
X55450000Y-19275000D01*
X50812184Y-19265277D01*
X48808304Y-19261076D01*
X48740225Y-19240931D01*
X48726132Y-19230147D01*
X48722169Y-19225604D01*
X48620231Y-19153961D01*
X48589670Y-19132482D01*
X48589668Y-19132481D01*
X48583453Y-19128113D01*
X48425487Y-19066524D01*
X48417954Y-19065532D01*
X48417953Y-19065532D01*
X48300261Y-19050038D01*
X48300260Y-19050038D01*
X48296174Y-19049500D01*
X47107484Y-19049500D01*
X46981680Y-19064724D01*
X46974576Y-19067408D01*
X46967195Y-19069221D01*
X46966959Y-19068261D01*
X46932794Y-19074501D01*
X46918482Y-19074501D01*
X46913589Y-19075276D01*
X46913588Y-19075276D01*
X46834494Y-19087802D01*
X46834492Y-19087803D01*
X46824696Y-19089354D01*
X46711658Y-19146950D01*
X46639172Y-19219436D01*
X46576860Y-19253462D01*
X46549813Y-19256341D01*
X46098713Y-19255395D01*
X46030634Y-19235250D01*
X46009882Y-19218490D01*
X45938342Y-19146950D01*
X45825304Y-19089354D01*
X45815515Y-19087804D01*
X45815513Y-19087803D01*
X45788151Y-19083470D01*
X45731519Y-19074500D01*
X45500047Y-19074500D01*
X45268482Y-19074501D01*
X45263589Y-19075276D01*
X45263588Y-19075276D01*
X45184494Y-19087802D01*
X45184492Y-19087803D01*
X45174696Y-19089354D01*
X45061658Y-19146950D01*
X44992624Y-19215984D01*
X44930312Y-19250010D01*
X44903265Y-19252889D01*
X44745877Y-19252559D01*
X44677798Y-19232414D01*
X44657046Y-19215654D01*
X44588342Y-19146950D01*
X44475304Y-19089354D01*
X44465515Y-19087804D01*
X44465513Y-19087803D01*
X44438151Y-19083470D01*
X44381519Y-19074500D01*
X44150047Y-19074500D01*
X43918482Y-19074501D01*
X43913589Y-19075276D01*
X43913588Y-19075276D01*
X43834494Y-19087802D01*
X43834492Y-19087803D01*
X43824696Y-19089354D01*
X43711658Y-19146950D01*
X43645448Y-19213160D01*
X43583136Y-19247186D01*
X43556090Y-19250065D01*
X43544602Y-19250041D01*
X43525000Y-19250000D01*
X43525000Y-20149000D01*
X43504998Y-20217121D01*
X43451342Y-20263614D01*
X43399000Y-20275000D01*
X41976000Y-20275000D01*
X41907879Y-20254998D01*
X41861386Y-20201342D01*
X41850000Y-20149000D01*
X41850000Y-18126000D01*
X41870002Y-18057879D01*
X41923658Y-18011386D01*
X41976000Y-18000000D01*
X56701297Y-18000000D01*
X56720681Y-18001500D01*
G37*
%TD.AperFunction*%
%TD*%
%TA.AperFunction,Conductor*%
%TO.N,/PH*%
G36*
X52442121Y-20870002D02*
G01*
X52488614Y-20923658D01*
X52500000Y-20976000D01*
X52500000Y-23525000D01*
X53601571Y-23547481D01*
X53669269Y-23568869D01*
X53714658Y-23623462D01*
X53725000Y-23673455D01*
X53725000Y-29824000D01*
X53704998Y-29892121D01*
X53651342Y-29938614D01*
X53599000Y-29950000D01*
X50951000Y-29950000D01*
X50882879Y-29929998D01*
X50836386Y-29876342D01*
X50825000Y-29824000D01*
X50825000Y-28125000D01*
X47501000Y-28125000D01*
X47432879Y-28104998D01*
X47386386Y-28051342D01*
X47375000Y-27999000D01*
X47375000Y-26676000D01*
X47370759Y-26636547D01*
X47370048Y-26621400D01*
X47372342Y-26449320D01*
X47393251Y-26381472D01*
X47447521Y-26335699D01*
X47498331Y-26325000D01*
X48350000Y-26325000D01*
X48355098Y-26324156D01*
X48355099Y-26324156D01*
X48382226Y-26319665D01*
X48414453Y-26314330D01*
X48419341Y-26312666D01*
X48419345Y-26312665D01*
X48531090Y-26274624D01*
X48583677Y-26256722D01*
X48624281Y-26250000D01*
X48775000Y-26250000D01*
X51550000Y-25425000D01*
X51550000Y-20976000D01*
X51570002Y-20907879D01*
X51623658Y-20861386D01*
X51676000Y-20850000D01*
X52374000Y-20850000D01*
X52442121Y-20870002D01*
G37*
%TD.AperFunction*%
%TD*%
%TA.AperFunction,Conductor*%
%TO.N,/BOOT*%
G36*
X50667121Y-20820002D02*
G01*
X50713614Y-20873658D01*
X50725000Y-20926000D01*
X50725000Y-22674000D01*
X50704998Y-22742121D01*
X50651342Y-22788614D01*
X50599000Y-22800000D01*
X47701000Y-22800000D01*
X47632879Y-22779998D01*
X47586386Y-22726342D01*
X47575000Y-22674000D01*
X47575000Y-20926000D01*
X47595002Y-20857879D01*
X47648658Y-20811386D01*
X47701000Y-20800000D01*
X50599000Y-20800000D01*
X50667121Y-20820002D01*
G37*
%TD.AperFunction*%
%TD*%
%TA.AperFunction,Conductor*%
%TO.N,+3V3*%
G36*
X25992121Y-39495002D02*
G01*
X26038614Y-39548658D01*
X26050000Y-39601000D01*
X26050000Y-41050000D01*
X26058357Y-41060347D01*
X26061201Y-41070032D01*
X26068313Y-41084587D01*
X26068528Y-41084487D01*
X26119276Y-41193316D01*
X26178452Y-41252492D01*
X26212478Y-41314804D01*
X26214014Y-41324918D01*
X26213236Y-41333807D01*
X26220937Y-41362545D01*
X26222991Y-41370210D01*
X26225370Y-41380942D01*
X26231912Y-41418045D01*
X26237423Y-41427590D01*
X26238615Y-41430866D01*
X26240092Y-41434034D01*
X26242946Y-41444684D01*
X26249270Y-41453715D01*
X26264555Y-41475544D01*
X26270461Y-41484815D01*
X26281812Y-41504475D01*
X26289306Y-41517455D01*
X26297751Y-41524541D01*
X26318182Y-41541685D01*
X26326285Y-41549111D01*
X26450095Y-41672921D01*
X26484121Y-41735233D01*
X26487000Y-41762016D01*
X26487000Y-41852005D01*
X26479350Y-41890462D01*
X26477985Y-41892505D01*
X26475564Y-41904674D01*
X26475564Y-41904675D01*
X26463207Y-41966799D01*
X26462000Y-41972867D01*
X26462001Y-43352132D01*
X26463208Y-43358198D01*
X26463208Y-43358203D01*
X26475564Y-43420324D01*
X26477985Y-43432495D01*
X26484878Y-43442812D01*
X26484879Y-43442813D01*
X26531983Y-43513308D01*
X26538876Y-43523624D01*
X26541261Y-43525217D01*
X26572121Y-43581732D01*
X26575000Y-43608515D01*
X26575000Y-44174000D01*
X26554998Y-44242121D01*
X26501342Y-44288614D01*
X26449000Y-44300000D01*
X25797287Y-44300000D01*
X25727285Y-44278765D01*
X25680314Y-44247380D01*
X25669995Y-44240485D01*
X25589633Y-44224500D01*
X24900056Y-44224500D01*
X24210368Y-44224501D01*
X24204302Y-44225708D01*
X24204297Y-44225708D01*
X24142176Y-44238064D01*
X24142175Y-44238064D01*
X24130005Y-44240485D01*
X24119688Y-44247378D01*
X24119687Y-44247379D01*
X24072715Y-44278765D01*
X24002713Y-44300000D01*
X22251000Y-44300000D01*
X22182879Y-44279998D01*
X22136386Y-44226342D01*
X22125000Y-44174000D01*
X22125000Y-39601000D01*
X22145002Y-39532879D01*
X22198658Y-39486386D01*
X22251000Y-39475000D01*
X25924000Y-39475000D01*
X25992121Y-39495002D01*
G37*
%TD.AperFunction*%
%TD*%
%TA.AperFunction,NonConductor*%
G36*
X50145184Y-39997582D02*
G01*
X50176991Y-40061055D01*
X50169433Y-40131648D01*
X50142102Y-40172572D01*
X49911393Y-40403281D01*
X49849083Y-40437305D01*
X49778267Y-40432240D01*
X49721432Y-40389693D01*
X49696621Y-40323172D01*
X49703638Y-40271815D01*
X49706879Y-40262739D01*
X49730948Y-40221877D01*
X49912527Y-40015538D01*
X49967273Y-39979243D01*
X50013159Y-39963948D01*
X50084109Y-39961382D01*
X50145184Y-39997582D01*
G37*
%TD.AperFunction*%
%TA.AperFunction,NonConductor*%
G36*
X48857334Y-43069402D02*
G01*
X48908233Y-43118898D01*
X48924500Y-43180823D01*
X48924500Y-46030459D01*
X48904498Y-46098580D01*
X48850842Y-46145073D01*
X48780568Y-46155177D01*
X48732669Y-46137893D01*
X48643746Y-46083402D01*
X48557479Y-46055871D01*
X48489464Y-46034164D01*
X48489462Y-46034164D01*
X48482225Y-46031854D01*
X48474645Y-46031337D01*
X48474644Y-46031337D01*
X48320646Y-46020838D01*
X48320642Y-46020838D01*
X48313070Y-46020322D01*
X48305593Y-46021627D01*
X48305592Y-46021627D01*
X48271233Y-46027624D01*
X48249569Y-46029500D01*
X47826115Y-46029500D01*
X47757994Y-46009498D01*
X47711501Y-45955842D01*
X47701397Y-45885568D01*
X47707456Y-45861122D01*
X47711625Y-45849451D01*
X47746393Y-45752100D01*
X48176871Y-45752100D01*
X48236453Y-45752100D01*
X48265375Y-45747052D01*
X48272903Y-45745971D01*
X48275941Y-45745628D01*
X48283485Y-45745006D01*
X48291008Y-45744612D01*
X48214827Y-45668431D01*
X48202268Y-45680990D01*
X48176871Y-45752100D01*
X47746393Y-45752100D01*
X47840167Y-45489533D01*
X48393725Y-45489533D01*
X48574745Y-45670553D01*
X48647100Y-45598197D01*
X48647100Y-45380868D01*
X48574745Y-45308513D01*
X48393725Y-45489533D01*
X47840167Y-45489533D01*
X48061987Y-44868438D01*
X48492464Y-44868438D01*
X48574745Y-44950719D01*
X48647100Y-44878364D01*
X48647100Y-44661035D01*
X48587738Y-44601672D01*
X48492464Y-44868438D01*
X48061987Y-44868438D01*
X48679841Y-43138445D01*
X48721589Y-43081020D01*
X48787756Y-43055282D01*
X48857334Y-43069402D01*
G37*
%TD.AperFunction*%
%TA.AperFunction,NonConductor*%
G36*
X48857567Y-47312543D02*
G01*
X48908362Y-47362145D01*
X48924500Y-47423841D01*
X48924500Y-53487984D01*
X48904498Y-53556105D01*
X48887595Y-53577079D01*
X47751119Y-54713555D01*
X47688807Y-54747581D01*
X47662024Y-54750460D01*
X47537440Y-54750460D01*
X47483941Y-54738538D01*
X47430669Y-54713555D01*
X46057312Y-54069498D01*
X47012107Y-54069498D01*
X47258567Y-54185079D01*
X47316095Y-54127551D01*
X47316094Y-54127550D01*
X47673890Y-54127550D01*
X47809356Y-54263016D01*
X47990376Y-54081996D01*
X47854910Y-53946530D01*
X47673890Y-54127550D01*
X47316094Y-54127550D01*
X47135075Y-53946530D01*
X47012107Y-54069498D01*
X46057312Y-54069498D01*
X45413627Y-53767632D01*
X46594138Y-53767632D01*
X46775158Y-53948652D01*
X46956178Y-53767632D01*
X47313973Y-53767632D01*
X47494993Y-53948652D01*
X47676012Y-53767633D01*
X48033808Y-53767633D01*
X48169273Y-53903098D01*
X48350294Y-53722078D01*
X48214828Y-53586612D01*
X48033808Y-53767633D01*
X47676012Y-53767633D01*
X47676013Y-53767632D01*
X47494993Y-53586612D01*
X47313973Y-53767632D01*
X46956178Y-53767632D01*
X46775158Y-53586612D01*
X46594138Y-53767632D01*
X45413627Y-53767632D01*
X45077255Y-53609885D01*
X46032050Y-53609885D01*
X46119700Y-53650989D01*
X46055323Y-53586612D01*
X46032050Y-53609885D01*
X45077255Y-53609885D01*
X44587227Y-53380079D01*
X45542022Y-53380079D01*
X45788481Y-53495660D01*
X45876426Y-53407715D01*
X46234221Y-53407715D01*
X46415241Y-53588735D01*
X46596261Y-53407715D01*
X46954055Y-53407715D01*
X47135075Y-53588735D01*
X47316095Y-53407715D01*
X47673890Y-53407715D01*
X47854910Y-53588735D01*
X48035930Y-53407715D01*
X48393725Y-53407715D01*
X48529191Y-53543181D01*
X48647100Y-53425272D01*
X48647100Y-53299050D01*
X48574745Y-53226695D01*
X48393725Y-53407715D01*
X48035930Y-53407715D01*
X47854910Y-53226695D01*
X47673890Y-53407715D01*
X47316095Y-53407715D01*
X47135075Y-53226695D01*
X46954055Y-53407715D01*
X46596261Y-53407715D01*
X46415241Y-53226695D01*
X46234221Y-53407715D01*
X45876426Y-53407715D01*
X45695406Y-53226695D01*
X45542022Y-53380079D01*
X44587227Y-53380079D01*
X43878684Y-53047797D01*
X45154469Y-53047797D01*
X45335489Y-53228818D01*
X45516509Y-53047798D01*
X45874303Y-53047798D01*
X46055323Y-53228818D01*
X46236342Y-53047798D01*
X46594138Y-53047798D01*
X46775158Y-53228818D01*
X46956178Y-53047798D01*
X47313973Y-53047798D01*
X47494993Y-53228818D01*
X47676013Y-53047798D01*
X47676012Y-53047797D01*
X48033808Y-53047797D01*
X48214828Y-53228818D01*
X48395848Y-53047798D01*
X48214827Y-52866778D01*
X48033808Y-53047797D01*
X47676012Y-53047797D01*
X47494993Y-52866778D01*
X47313973Y-53047798D01*
X46956178Y-53047798D01*
X46775158Y-52866778D01*
X46594138Y-53047798D01*
X46236342Y-53047798D01*
X46236343Y-53047797D01*
X46055324Y-52866778D01*
X45874303Y-53047798D01*
X45516509Y-53047798D01*
X45335488Y-52866778D01*
X45154469Y-53047797D01*
X43878684Y-53047797D01*
X43607169Y-52920466D01*
X44561965Y-52920466D01*
X44764166Y-53015291D01*
X44615653Y-52866778D01*
X44561965Y-52920466D01*
X43607169Y-52920466D01*
X43268916Y-52761837D01*
X43261227Y-52757904D01*
X43256193Y-52755107D01*
X43135186Y-52687881D01*
X44074717Y-52687881D01*
X44082405Y-52695569D01*
X44318396Y-52806240D01*
X44436757Y-52687880D01*
X44794551Y-52687880D01*
X44975572Y-52868900D01*
X45156591Y-52687881D01*
X45156590Y-52687880D01*
X45514386Y-52687880D01*
X45695406Y-52868900D01*
X45876426Y-52687880D01*
X46234221Y-52687880D01*
X46415241Y-52868900D01*
X46596261Y-52687880D01*
X46954055Y-52687880D01*
X47135076Y-52868900D01*
X47316095Y-52687881D01*
X47316094Y-52687880D01*
X47673890Y-52687880D01*
X47854910Y-52868900D01*
X48035930Y-52687880D01*
X48393725Y-52687880D01*
X48574745Y-52868900D01*
X48647100Y-52796544D01*
X48647100Y-52579215D01*
X48574745Y-52506860D01*
X48393725Y-52687880D01*
X48035930Y-52687880D01*
X47854910Y-52506860D01*
X47673890Y-52687880D01*
X47316094Y-52687880D01*
X47135075Y-52506860D01*
X46954055Y-52687880D01*
X46596261Y-52687880D01*
X46415241Y-52506860D01*
X46234221Y-52687880D01*
X45876426Y-52687880D01*
X45695406Y-52506860D01*
X45514386Y-52687880D01*
X45156590Y-52687880D01*
X44975571Y-52506860D01*
X44794551Y-52687880D01*
X44436757Y-52687880D01*
X44255737Y-52506860D01*
X44074717Y-52687881D01*
X43135186Y-52687881D01*
X42843073Y-52525596D01*
X42797817Y-52482869D01*
X42634527Y-52225043D01*
X42628243Y-52211127D01*
X43111801Y-52211127D01*
X43344541Y-52340427D01*
X43357005Y-52327963D01*
X43714799Y-52327963D01*
X43895819Y-52508983D01*
X44076839Y-52327963D01*
X44434634Y-52327963D01*
X44615654Y-52508983D01*
X44796674Y-52327963D01*
X45154469Y-52327963D01*
X45335489Y-52508983D01*
X45516509Y-52327963D01*
X45874303Y-52327963D01*
X46055323Y-52508983D01*
X46236343Y-52327963D01*
X46594138Y-52327963D01*
X46775158Y-52508983D01*
X46956178Y-52327963D01*
X47313973Y-52327963D01*
X47494993Y-52508983D01*
X47676013Y-52327963D01*
X48033808Y-52327963D01*
X48214828Y-52508983D01*
X48395848Y-52327963D01*
X48214828Y-52146943D01*
X48033808Y-52327963D01*
X47676013Y-52327963D01*
X47494993Y-52146943D01*
X47313973Y-52327963D01*
X46956178Y-52327963D01*
X46775158Y-52146943D01*
X46594138Y-52327963D01*
X46236343Y-52327963D01*
X46055323Y-52146943D01*
X45874303Y-52327963D01*
X45516509Y-52327963D01*
X45335489Y-52146943D01*
X45154469Y-52327963D01*
X44796674Y-52327963D01*
X44615654Y-52146943D01*
X44434634Y-52327963D01*
X44076839Y-52327963D01*
X43895819Y-52146943D01*
X43714799Y-52327963D01*
X43357005Y-52327963D01*
X43175985Y-52146943D01*
X43111801Y-52211127D01*
X42628243Y-52211127D01*
X42620014Y-52192906D01*
X42607228Y-52149066D01*
X42562131Y-51994449D01*
X43381285Y-51994449D01*
X43535902Y-52149066D01*
X43716922Y-51968046D01*
X43716921Y-51968045D01*
X44074717Y-51968045D01*
X44255737Y-52149066D01*
X44436757Y-51968046D01*
X44794551Y-51968046D01*
X44975571Y-52149066D01*
X45156590Y-51968046D01*
X45514386Y-51968046D01*
X45695406Y-52149066D01*
X45876426Y-51968046D01*
X46234221Y-51968046D01*
X46415241Y-52149066D01*
X46596261Y-51968046D01*
X46954055Y-51968046D01*
X47135075Y-52149066D01*
X47316094Y-51968046D01*
X47673890Y-51968046D01*
X47854910Y-52149066D01*
X48035930Y-51968046D01*
X48393725Y-51968046D01*
X48574745Y-52149066D01*
X48647100Y-52076711D01*
X48647100Y-51859382D01*
X48574745Y-51787026D01*
X48393725Y-51968046D01*
X48035930Y-51968046D01*
X47854910Y-51787026D01*
X47673890Y-51968046D01*
X47316094Y-51968046D01*
X47316095Y-51968045D01*
X47135076Y-51787026D01*
X46954055Y-51968046D01*
X46596261Y-51968046D01*
X46415241Y-51787026D01*
X46234221Y-51968046D01*
X45876426Y-51968046D01*
X45695406Y-51787026D01*
X45514386Y-51968046D01*
X45156590Y-51968046D01*
X45156591Y-51968045D01*
X44975572Y-51787026D01*
X44794551Y-51968046D01*
X44436757Y-51968046D01*
X44255736Y-51787026D01*
X44074717Y-51968045D01*
X43716921Y-51968045D01*
X43585599Y-51836724D01*
X43585301Y-51837042D01*
X43562042Y-51860301D01*
X43556010Y-51865951D01*
X43553512Y-51868141D01*
X43547153Y-51873359D01*
X43421712Y-51969613D01*
X43415005Y-51974418D01*
X43412242Y-51976264D01*
X43405244Y-51980616D01*
X43381285Y-51994449D01*
X42562131Y-51994449D01*
X42560040Y-51987280D01*
X42555000Y-51952000D01*
X42555000Y-51899935D01*
X42575002Y-51831814D01*
X42628658Y-51785321D01*
X42698932Y-51775217D01*
X42729218Y-51783526D01*
X42780378Y-51804717D01*
X42793238Y-51810044D01*
X42950000Y-51830682D01*
X42958188Y-51829604D01*
X43098574Y-51811122D01*
X43106762Y-51810044D01*
X43119623Y-51804717D01*
X43162332Y-51787026D01*
X43252841Y-51749536D01*
X43378282Y-51653282D01*
X43398423Y-51627034D01*
X43733705Y-51627034D01*
X43895820Y-51789148D01*
X44076839Y-51608129D01*
X44076838Y-51608128D01*
X44434634Y-51608128D01*
X44615654Y-51789148D01*
X44796673Y-51608129D01*
X45154469Y-51608129D01*
X45335488Y-51789148D01*
X45516509Y-51608128D01*
X45874303Y-51608128D01*
X46055324Y-51789148D01*
X46236343Y-51608129D01*
X46236342Y-51608128D01*
X46594138Y-51608128D01*
X46775158Y-51789148D01*
X46956178Y-51608128D01*
X47313973Y-51608128D01*
X47494993Y-51789148D01*
X47676012Y-51608129D01*
X48033808Y-51608129D01*
X48214827Y-51789148D01*
X48395848Y-51608128D01*
X48214828Y-51427108D01*
X48033808Y-51608129D01*
X47676012Y-51608129D01*
X47676013Y-51608128D01*
X47494993Y-51427108D01*
X47313973Y-51608128D01*
X46956178Y-51608128D01*
X46775158Y-51427108D01*
X46594138Y-51608128D01*
X46236342Y-51608128D01*
X46055323Y-51427108D01*
X45874303Y-51608128D01*
X45516509Y-51608128D01*
X45335489Y-51427108D01*
X45154469Y-51608129D01*
X44796673Y-51608129D01*
X44796674Y-51608128D01*
X44615654Y-51427108D01*
X44434634Y-51608128D01*
X44076838Y-51608128D01*
X43895819Y-51427108D01*
X43760442Y-51562485D01*
X43733705Y-51627034D01*
X43398423Y-51627034D01*
X43474536Y-51527841D01*
X43535044Y-51381762D01*
X43552626Y-51248211D01*
X44074717Y-51248211D01*
X44255737Y-51429231D01*
X44436757Y-51248211D01*
X44794551Y-51248211D01*
X44975571Y-51429231D01*
X45156591Y-51248211D01*
X45514386Y-51248211D01*
X45695406Y-51429231D01*
X45876426Y-51248211D01*
X46234221Y-51248211D01*
X46415241Y-51429231D01*
X46596261Y-51248211D01*
X46954055Y-51248211D01*
X47135075Y-51429231D01*
X47316095Y-51248211D01*
X47673890Y-51248211D01*
X47854910Y-51429231D01*
X48035930Y-51248211D01*
X48393725Y-51248211D01*
X48574745Y-51429231D01*
X48647100Y-51356876D01*
X48647100Y-51139546D01*
X48574745Y-51067191D01*
X48393725Y-51248211D01*
X48035930Y-51248211D01*
X47854910Y-51067191D01*
X47673890Y-51248211D01*
X47316095Y-51248211D01*
X47135075Y-51067191D01*
X46954055Y-51248211D01*
X46596261Y-51248211D01*
X46415241Y-51067191D01*
X46234221Y-51248211D01*
X45876426Y-51248211D01*
X45695406Y-51067191D01*
X45514386Y-51248211D01*
X45156591Y-51248211D01*
X44975571Y-51067191D01*
X44794551Y-51248211D01*
X44436757Y-51248211D01*
X44255737Y-51067191D01*
X44074717Y-51248211D01*
X43552626Y-51248211D01*
X43555682Y-51225000D01*
X43535044Y-51068238D01*
X43492807Y-50966268D01*
X43485695Y-50900118D01*
X44446458Y-50900118D01*
X44615654Y-51069314D01*
X44796674Y-50888294D01*
X44796673Y-50888293D01*
X45154469Y-50888293D01*
X45335489Y-51069314D01*
X45516509Y-50888294D01*
X45874303Y-50888294D01*
X46055323Y-51069314D01*
X46236342Y-50888294D01*
X46594138Y-50888294D01*
X46775158Y-51069314D01*
X46956178Y-50888294D01*
X47313973Y-50888294D01*
X47494993Y-51069314D01*
X47676013Y-50888294D01*
X47676012Y-50888293D01*
X48033808Y-50888293D01*
X48214828Y-51069314D01*
X48395848Y-50888294D01*
X48214827Y-50707274D01*
X48033808Y-50888293D01*
X47676012Y-50888293D01*
X47494993Y-50707274D01*
X47313973Y-50888294D01*
X46956178Y-50888294D01*
X46775158Y-50707274D01*
X46594138Y-50888294D01*
X46236342Y-50888294D01*
X46236343Y-50888293D01*
X46055324Y-50707274D01*
X45874303Y-50888294D01*
X45516509Y-50888294D01*
X45335488Y-50707274D01*
X45154469Y-50888293D01*
X44796673Y-50888293D01*
X44709147Y-50800767D01*
X44446458Y-50900118D01*
X43485695Y-50900118D01*
X43485218Y-50895681D01*
X43516997Y-50832194D01*
X43564643Y-50800199D01*
X43804733Y-50709396D01*
X43822750Y-50702582D01*
X44968757Y-50702582D01*
X44975572Y-50709396D01*
X44990676Y-50694292D01*
X44968757Y-50702582D01*
X43822750Y-50702582D01*
X44283362Y-50528376D01*
X45514386Y-50528376D01*
X45695406Y-50709396D01*
X45876426Y-50528376D01*
X46234221Y-50528376D01*
X46415241Y-50709396D01*
X46596261Y-50528376D01*
X46954055Y-50528376D01*
X47135076Y-50709396D01*
X47316095Y-50528377D01*
X47316094Y-50528376D01*
X47673890Y-50528376D01*
X47854910Y-50709396D01*
X48035930Y-50528376D01*
X48393725Y-50528376D01*
X48574745Y-50709396D01*
X48647100Y-50637040D01*
X48647100Y-50419711D01*
X48574745Y-50347356D01*
X48393725Y-50528376D01*
X48035930Y-50528376D01*
X47854910Y-50347356D01*
X47673890Y-50528376D01*
X47316094Y-50528376D01*
X47135075Y-50347356D01*
X46954055Y-50528376D01*
X46596261Y-50528376D01*
X46415241Y-50347356D01*
X46234221Y-50528376D01*
X45876426Y-50528376D01*
X45753745Y-50405695D01*
X45566097Y-50476665D01*
X45514386Y-50528376D01*
X44283362Y-50528376D01*
X44761991Y-50347356D01*
X44867347Y-50307510D01*
X46013354Y-50307510D01*
X46055323Y-50349479D01*
X46148347Y-50256455D01*
X46013354Y-50307510D01*
X44867347Y-50307510D01*
X45235007Y-50168459D01*
X46594138Y-50168459D01*
X46775158Y-50349479D01*
X46956178Y-50168459D01*
X47313973Y-50168459D01*
X47494993Y-50349479D01*
X47676013Y-50168459D01*
X48033808Y-50168459D01*
X48214828Y-50349479D01*
X48395848Y-50168459D01*
X48214828Y-49987439D01*
X48033808Y-50168459D01*
X47676013Y-50168459D01*
X47494993Y-49987439D01*
X47313973Y-50168459D01*
X46956178Y-50168459D01*
X46775158Y-49987439D01*
X46594138Y-50168459D01*
X45235007Y-50168459D01*
X46186652Y-49808542D01*
X46954055Y-49808542D01*
X47135075Y-49989562D01*
X47316094Y-49808542D01*
X47673890Y-49808542D01*
X47854910Y-49989562D01*
X48035930Y-49808542D01*
X48393725Y-49808542D01*
X48574745Y-49989562D01*
X48647100Y-49917207D01*
X48647100Y-49699878D01*
X48574745Y-49627522D01*
X48393725Y-49808542D01*
X48035930Y-49808542D01*
X47854910Y-49627522D01*
X47673890Y-49808542D01*
X47316094Y-49808542D01*
X47316095Y-49808541D01*
X47135076Y-49627522D01*
X46954055Y-49808542D01*
X46186652Y-49808542D01*
X46298055Y-49766409D01*
X46298056Y-49766408D01*
X46315000Y-49760000D01*
X46370931Y-49603392D01*
X46801410Y-49603392D01*
X46956178Y-49448624D01*
X47313973Y-49448624D01*
X47494993Y-49629644D01*
X47676013Y-49448624D01*
X48033808Y-49448624D01*
X48214828Y-49629644D01*
X48395848Y-49448624D01*
X48214828Y-49267604D01*
X48033808Y-49448624D01*
X47676013Y-49448624D01*
X47494993Y-49267604D01*
X47313973Y-49448624D01*
X46956178Y-49448624D01*
X46882867Y-49375313D01*
X46801410Y-49603392D01*
X46370931Y-49603392D01*
X46546545Y-49111675D01*
X46977023Y-49111675D01*
X47135075Y-49269727D01*
X47316095Y-49088707D01*
X47673890Y-49088707D01*
X47854910Y-49269727D01*
X48035930Y-49088707D01*
X48393725Y-49088707D01*
X48574745Y-49269727D01*
X48647100Y-49197372D01*
X48647100Y-48980042D01*
X48574745Y-48907687D01*
X48393725Y-49088707D01*
X48035930Y-49088707D01*
X47854910Y-48907687D01*
X47673890Y-49088707D01*
X47316095Y-49088707D01*
X47135075Y-48907687D01*
X47002544Y-49040218D01*
X46977023Y-49111675D01*
X46546545Y-49111675D01*
X46653468Y-48812289D01*
X47397472Y-48812289D01*
X47494993Y-48909810D01*
X47676013Y-48728790D01*
X47676012Y-48728789D01*
X48033808Y-48728789D01*
X48214828Y-48909810D01*
X48395848Y-48728790D01*
X48214827Y-48547770D01*
X48033808Y-48728789D01*
X47676012Y-48728789D01*
X47598993Y-48651771D01*
X47587701Y-48668670D01*
X47580345Y-48678589D01*
X47577187Y-48682438D01*
X47568873Y-48691611D01*
X47534111Y-48726373D01*
X47524938Y-48734687D01*
X47521089Y-48737845D01*
X47511170Y-48745201D01*
X47444849Y-48789516D01*
X47434250Y-48795869D01*
X47429858Y-48798217D01*
X47418671Y-48803508D01*
X47397472Y-48812289D01*
X46653468Y-48812289D01*
X46709957Y-48654121D01*
X46751704Y-48596697D01*
X46817871Y-48570959D01*
X46828615Y-48570500D01*
X47232248Y-48570500D01*
X47238316Y-48569293D01*
X47278561Y-48561288D01*
X47278562Y-48561288D01*
X47290731Y-48558867D01*
X47357052Y-48514552D01*
X47401367Y-48448231D01*
X47413000Y-48389748D01*
X47413000Y-48385382D01*
X47690400Y-48385382D01*
X47854910Y-48549892D01*
X48035930Y-48368872D01*
X48393725Y-48368872D01*
X48574745Y-48549892D01*
X48647100Y-48477537D01*
X48647100Y-48260207D01*
X48574745Y-48187852D01*
X48393725Y-48368872D01*
X48035930Y-48368872D01*
X47854910Y-48187852D01*
X47690400Y-48352362D01*
X47690400Y-48385382D01*
X47413000Y-48385382D01*
X47413000Y-48008955D01*
X48033808Y-48008955D01*
X48214828Y-48189975D01*
X48395848Y-48008955D01*
X48214828Y-47827935D01*
X48033808Y-48008955D01*
X47413000Y-48008955D01*
X47413000Y-47707900D01*
X47732754Y-47707900D01*
X47854910Y-47830057D01*
X47977066Y-47707900D01*
X47732754Y-47707900D01*
X47413000Y-47707900D01*
X47413000Y-47704528D01*
X48449217Y-47704528D01*
X48574745Y-47830057D01*
X48647100Y-47757701D01*
X48647100Y-47664586D01*
X48643357Y-47665840D01*
X48614378Y-47674589D01*
X48607063Y-47676559D01*
X48604147Y-47677251D01*
X48601289Y-47678139D01*
X48593965Y-47680174D01*
X48564567Y-47687394D01*
X48557153Y-47688980D01*
X48554147Y-47689529D01*
X48546647Y-47690666D01*
X48487933Y-47697771D01*
X48449217Y-47704528D01*
X47413000Y-47704528D01*
X47413000Y-47610252D01*
X47411794Y-47604189D01*
X47411793Y-47604179D01*
X47407198Y-47581079D01*
X47413527Y-47510366D01*
X47457082Y-47454299D01*
X47530777Y-47430500D01*
X48316359Y-47430500D01*
X48324929Y-47430792D01*
X48374354Y-47434162D01*
X48374358Y-47434162D01*
X48381930Y-47434678D01*
X48389406Y-47433373D01*
X48389409Y-47433373D01*
X48444132Y-47423822D01*
X48450658Y-47422859D01*
X48491096Y-47417965D01*
X48513320Y-47415276D01*
X48520427Y-47412591D01*
X48523720Y-47411782D01*
X48538191Y-47407823D01*
X48541467Y-47406834D01*
X48548954Y-47405527D01*
X48555914Y-47402472D01*
X48606760Y-47380153D01*
X48612866Y-47377661D01*
X48664818Y-47358030D01*
X48664820Y-47358029D01*
X48671923Y-47355345D01*
X48678178Y-47351046D01*
X48681203Y-47349465D01*
X48694299Y-47342175D01*
X48697242Y-47340434D01*
X48704202Y-47337379D01*
X48721796Y-47323878D01*
X48788018Y-47298278D01*
X48857567Y-47312543D01*
G37*
%TD.AperFunction*%
%TA.AperFunction,NonConductor*%
G36*
X51780478Y-42334014D02*
G01*
X51837314Y-42376561D01*
X51855188Y-42409924D01*
X53779002Y-47830057D01*
X54535000Y-49960000D01*
X57431754Y-50885767D01*
X57457004Y-50897021D01*
X57962771Y-51192847D01*
X57985333Y-51209687D01*
X58123028Y-51338776D01*
X58143698Y-51363917D01*
X58193242Y-51443187D01*
X58218013Y-51482821D01*
X58236935Y-51541993D01*
X58249770Y-51754176D01*
X58250000Y-51761784D01*
X58250000Y-51863397D01*
X58248528Y-51882602D01*
X58231279Y-51994449D01*
X58220516Y-52064236D01*
X58191348Y-52127386D01*
X58034692Y-52308778D01*
X58012967Y-52328664D01*
X57782858Y-52494342D01*
X57766362Y-52504393D01*
X54868411Y-53978265D01*
X54861506Y-53981518D01*
X53790736Y-54446793D01*
X53767364Y-54454339D01*
X53723528Y-54463897D01*
X53595650Y-54491779D01*
X53246354Y-54608652D01*
X53243261Y-54610075D01*
X53243260Y-54610075D01*
X53120879Y-54666364D01*
X52911723Y-54762565D01*
X52908789Y-54764321D01*
X52908787Y-54764322D01*
X52873751Y-54785291D01*
X52595672Y-54951718D01*
X52586861Y-54958382D01*
X52518741Y-55009900D01*
X52480941Y-55029473D01*
X52374622Y-55063302D01*
X52177166Y-55126129D01*
X52152301Y-55131351D01*
X51318455Y-55220058D01*
X51232069Y-55229248D01*
X51217890Y-55229952D01*
X49753526Y-55220058D01*
X49736559Y-55218794D01*
X49733606Y-55218372D01*
X49724752Y-55217107D01*
X49660146Y-55187669D01*
X49621711Y-55127976D01*
X49621651Y-55056979D01*
X49653482Y-55003279D01*
X49836525Y-54820236D01*
X50580377Y-54820236D01*
X50890214Y-54822329D01*
X50881492Y-54813607D01*
X51306842Y-54813607D01*
X51573011Y-54785291D01*
X51505962Y-54718242D01*
X52122040Y-54718242D01*
X52200752Y-54693198D01*
X52173918Y-54666364D01*
X52122040Y-54718242D01*
X51505962Y-54718242D01*
X51454084Y-54666364D01*
X51306842Y-54813607D01*
X50881492Y-54813607D01*
X50734249Y-54666364D01*
X50580377Y-54820236D01*
X49836525Y-54820236D01*
X50169294Y-54487467D01*
X50913146Y-54487467D01*
X51094166Y-54668487D01*
X51275186Y-54487467D01*
X51632981Y-54487467D01*
X51814001Y-54668487D01*
X51995021Y-54487467D01*
X52352816Y-54487467D01*
X52470238Y-54604889D01*
X52714404Y-54487015D01*
X52533836Y-54306447D01*
X52352816Y-54487467D01*
X51995021Y-54487467D01*
X51814001Y-54306447D01*
X51632981Y-54487467D01*
X51275186Y-54487467D01*
X51094166Y-54306447D01*
X50913146Y-54487467D01*
X50169294Y-54487467D01*
X50365255Y-54291506D01*
X50373359Y-54284079D01*
X50375391Y-54282374D01*
X50708053Y-54282374D01*
X50734249Y-54308570D01*
X50915269Y-54127550D01*
X51273064Y-54127550D01*
X51454084Y-54308570D01*
X51635104Y-54127550D01*
X51992898Y-54127550D01*
X52173918Y-54308570D01*
X52354938Y-54127550D01*
X52712733Y-54127550D01*
X52893753Y-54308570D01*
X53074773Y-54127550D01*
X53432568Y-54127550D01*
X53455473Y-54150455D01*
X53707849Y-54040791D01*
X53613588Y-53946530D01*
X53432568Y-54127550D01*
X53074773Y-54127550D01*
X52893753Y-53946530D01*
X52712733Y-54127550D01*
X52354938Y-54127550D01*
X52173918Y-53946530D01*
X51992898Y-54127550D01*
X51635104Y-54127550D01*
X51454084Y-53946530D01*
X51273064Y-54127550D01*
X50915269Y-54127550D01*
X50751940Y-53964221D01*
X50751940Y-54021072D01*
X50754648Y-54052026D01*
X50755127Y-54063007D01*
X50755127Y-54067435D01*
X50754647Y-54078418D01*
X50750833Y-54122008D01*
X50749403Y-54132883D01*
X50748635Y-54137243D01*
X50746252Y-54147997D01*
X50738209Y-54178014D01*
X50732814Y-54208611D01*
X50730433Y-54219350D01*
X50729287Y-54223626D01*
X50725984Y-54234101D01*
X50713788Y-54267611D01*
X50713229Y-54269381D01*
X50711718Y-54273531D01*
X50708999Y-54280090D01*
X50708053Y-54282374D01*
X50375391Y-54282374D01*
X50379845Y-54278636D01*
X50402234Y-54259850D01*
X50417100Y-54234101D01*
X50421079Y-54227210D01*
X50426985Y-54217939D01*
X50448594Y-54187079D01*
X50451448Y-54176428D01*
X50452928Y-54173255D01*
X50454119Y-54169983D01*
X50459628Y-54160440D01*
X50466174Y-54123319D01*
X50468548Y-54112612D01*
X50478303Y-54076202D01*
X50475019Y-54038664D01*
X50474540Y-54027683D01*
X50474540Y-53767632D01*
X50913146Y-53767632D01*
X51094167Y-53948652D01*
X51275186Y-53767633D01*
X51275185Y-53767632D01*
X51632981Y-53767632D01*
X51814001Y-53948652D01*
X51995021Y-53767632D01*
X52352816Y-53767632D01*
X52533836Y-53948652D01*
X52714856Y-53767632D01*
X53072650Y-53767632D01*
X53253671Y-53948652D01*
X53434690Y-53767633D01*
X53434689Y-53767632D01*
X53792485Y-53767632D01*
X53957267Y-53932413D01*
X54014699Y-53907458D01*
X54154525Y-53767632D01*
X54019414Y-53632521D01*
X54647431Y-53632521D01*
X54692180Y-53613076D01*
X54710491Y-53603763D01*
X54693340Y-53586612D01*
X54647431Y-53632521D01*
X54019414Y-53632521D01*
X53973505Y-53586612D01*
X53792485Y-53767632D01*
X53434689Y-53767632D01*
X53253670Y-53586612D01*
X53072650Y-53767632D01*
X52714856Y-53767632D01*
X52533836Y-53586612D01*
X52352816Y-53767632D01*
X51995021Y-53767632D01*
X51814001Y-53586612D01*
X51632981Y-53767632D01*
X51275185Y-53767632D01*
X51094166Y-53586612D01*
X50913146Y-53767632D01*
X50474540Y-53767632D01*
X50474540Y-53244386D01*
X50751940Y-53244386D01*
X50751940Y-53571044D01*
X50915269Y-53407715D01*
X51273064Y-53407715D01*
X51454084Y-53588735D01*
X51635104Y-53407715D01*
X51992898Y-53407715D01*
X52173918Y-53588735D01*
X52354938Y-53407715D01*
X52712733Y-53407715D01*
X52893753Y-53588735D01*
X53074773Y-53407715D01*
X53432568Y-53407715D01*
X53613588Y-53588735D01*
X53794608Y-53407715D01*
X54152403Y-53407715D01*
X54333423Y-53588735D01*
X54514443Y-53407715D01*
X54872237Y-53407715D01*
X54947663Y-53483141D01*
X55187648Y-53361086D01*
X55053257Y-53226695D01*
X54872237Y-53407715D01*
X54514443Y-53407715D01*
X54333423Y-53226695D01*
X54152403Y-53407715D01*
X53794608Y-53407715D01*
X53613588Y-53226695D01*
X53432568Y-53407715D01*
X53074773Y-53407715D01*
X52893753Y-53226695D01*
X52712733Y-53407715D01*
X52354938Y-53407715D01*
X52173918Y-53226695D01*
X51992898Y-53407715D01*
X51635104Y-53407715D01*
X51454084Y-53226695D01*
X51273064Y-53407715D01*
X50915269Y-53407715D01*
X50751940Y-53244386D01*
X50474540Y-53244386D01*
X50474540Y-53047798D01*
X50913146Y-53047798D01*
X51094166Y-53228818D01*
X51275185Y-53047798D01*
X51632981Y-53047798D01*
X51814001Y-53228818D01*
X51995021Y-53047798D01*
X52352816Y-53047798D01*
X52533836Y-53228818D01*
X52714856Y-53047798D01*
X53072650Y-53047798D01*
X53253670Y-53228818D01*
X53434689Y-53047798D01*
X53792485Y-53047798D01*
X53973505Y-53228818D01*
X54154525Y-53047798D01*
X54512320Y-53047798D01*
X54693340Y-53228818D01*
X54874360Y-53047798D01*
X54874359Y-53047797D01*
X55232155Y-53047797D01*
X55413175Y-53228818D01*
X55594195Y-53047798D01*
X55440658Y-52894262D01*
X56105526Y-52894262D01*
X56141962Y-52875730D01*
X56133010Y-52866778D01*
X56105526Y-52894262D01*
X55440658Y-52894262D01*
X55413174Y-52866778D01*
X55232155Y-53047797D01*
X54874359Y-53047797D01*
X54693340Y-52866778D01*
X54512320Y-53047798D01*
X54154525Y-53047798D01*
X53973505Y-52866778D01*
X53792485Y-53047798D01*
X53434689Y-53047798D01*
X53434690Y-53047797D01*
X53253671Y-52866778D01*
X53072650Y-53047798D01*
X52714856Y-53047798D01*
X52533836Y-52866778D01*
X52352816Y-53047798D01*
X51995021Y-53047798D01*
X51814001Y-52866778D01*
X51632981Y-53047798D01*
X51275185Y-53047798D01*
X51275186Y-53047797D01*
X51094167Y-52866778D01*
X50913146Y-53047798D01*
X50474540Y-53047798D01*
X50474540Y-52524551D01*
X50751940Y-52524551D01*
X50751940Y-52851209D01*
X50915268Y-52687881D01*
X51273064Y-52687881D01*
X51454083Y-52868900D01*
X51635104Y-52687880D01*
X51992898Y-52687880D01*
X52173919Y-52868900D01*
X52354938Y-52687881D01*
X52354937Y-52687880D01*
X52712733Y-52687880D01*
X52893753Y-52868900D01*
X53074773Y-52687880D01*
X53432568Y-52687880D01*
X53613588Y-52868900D01*
X53794607Y-52687881D01*
X54152403Y-52687881D01*
X54333422Y-52868900D01*
X54514443Y-52687880D01*
X54872237Y-52687880D01*
X55053257Y-52868900D01*
X55234277Y-52687880D01*
X55592072Y-52687880D01*
X55773092Y-52868900D01*
X55954111Y-52687881D01*
X56311907Y-52687881D01*
X56379133Y-52755107D01*
X56619119Y-52633052D01*
X56492927Y-52506860D01*
X56311907Y-52687881D01*
X55954111Y-52687881D01*
X55954112Y-52687880D01*
X55773092Y-52506860D01*
X55592072Y-52687880D01*
X55234277Y-52687880D01*
X55053257Y-52506860D01*
X54872237Y-52687880D01*
X54514443Y-52687880D01*
X54333423Y-52506860D01*
X54152403Y-52687881D01*
X53794607Y-52687881D01*
X53794608Y-52687880D01*
X53613588Y-52506860D01*
X53432568Y-52687880D01*
X53074773Y-52687880D01*
X52893753Y-52506860D01*
X52712733Y-52687880D01*
X52354937Y-52687880D01*
X52173918Y-52506860D01*
X51992898Y-52687880D01*
X51635104Y-52687880D01*
X51454084Y-52506860D01*
X51273064Y-52687881D01*
X50915268Y-52687881D01*
X50915269Y-52687880D01*
X50751940Y-52524551D01*
X50474540Y-52524551D01*
X50474540Y-52327963D01*
X50913146Y-52327963D01*
X51094166Y-52508983D01*
X51275186Y-52327963D01*
X51632981Y-52327963D01*
X51814001Y-52508983D01*
X51995021Y-52327963D01*
X52352816Y-52327963D01*
X52533836Y-52508983D01*
X52714856Y-52327963D01*
X53072650Y-52327963D01*
X53253670Y-52508983D01*
X53434690Y-52327963D01*
X53792485Y-52327963D01*
X53973505Y-52508983D01*
X54154525Y-52327963D01*
X54512320Y-52327963D01*
X54693340Y-52508983D01*
X54874360Y-52327963D01*
X55232155Y-52327963D01*
X55413175Y-52508983D01*
X55594195Y-52327963D01*
X55951989Y-52327963D01*
X56133009Y-52508983D01*
X56314029Y-52327963D01*
X56671824Y-52327963D01*
X56852844Y-52508983D01*
X57033864Y-52327963D01*
X56852844Y-52146943D01*
X56671824Y-52327963D01*
X56314029Y-52327963D01*
X56133009Y-52146943D01*
X55951989Y-52327963D01*
X55594195Y-52327963D01*
X55413175Y-52146943D01*
X55232155Y-52327963D01*
X54874360Y-52327963D01*
X54693340Y-52146943D01*
X54512320Y-52327963D01*
X54154525Y-52327963D01*
X53973505Y-52146943D01*
X53792485Y-52327963D01*
X53434690Y-52327963D01*
X53253670Y-52146943D01*
X53072650Y-52327963D01*
X52714856Y-52327963D01*
X52533836Y-52146943D01*
X52352816Y-52327963D01*
X51995021Y-52327963D01*
X51814001Y-52146943D01*
X51632981Y-52327963D01*
X51275186Y-52327963D01*
X51094166Y-52146943D01*
X50913146Y-52327963D01*
X50474540Y-52327963D01*
X50474540Y-51804717D01*
X50751940Y-51804717D01*
X50751940Y-52131375D01*
X50915269Y-51968046D01*
X50915268Y-51968045D01*
X51273064Y-51968045D01*
X51454084Y-52149066D01*
X51635104Y-51968046D01*
X51992898Y-51968046D01*
X52173918Y-52149066D01*
X52354937Y-51968046D01*
X52712733Y-51968046D01*
X52893753Y-52149066D01*
X53074773Y-51968046D01*
X53432568Y-51968046D01*
X53613588Y-52149066D01*
X53794608Y-51968046D01*
X53794607Y-51968045D01*
X54152403Y-51968045D01*
X54333423Y-52149066D01*
X54514443Y-51968046D01*
X54872237Y-51968046D01*
X55053257Y-52149066D01*
X55234277Y-51968046D01*
X55592072Y-51968046D01*
X55773092Y-52149066D01*
X55954112Y-51968046D01*
X55954111Y-51968045D01*
X56311907Y-51968045D01*
X56492927Y-52149066D01*
X56673947Y-51968046D01*
X57031741Y-51968046D01*
X57212761Y-52149066D01*
X57393780Y-51968046D01*
X57751576Y-51968046D01*
X57773965Y-51990435D01*
X57832084Y-51923140D01*
X57838575Y-51881047D01*
X57751576Y-51968046D01*
X57393780Y-51968046D01*
X57393781Y-51968045D01*
X57212762Y-51787026D01*
X57031741Y-51968046D01*
X56673947Y-51968046D01*
X56492926Y-51787026D01*
X56311907Y-51968045D01*
X55954111Y-51968045D01*
X55773092Y-51787026D01*
X55592072Y-51968046D01*
X55234277Y-51968046D01*
X55053257Y-51787026D01*
X54872237Y-51968046D01*
X54514443Y-51968046D01*
X54333422Y-51787026D01*
X54152403Y-51968045D01*
X53794607Y-51968045D01*
X53613588Y-51787026D01*
X53432568Y-51968046D01*
X53074773Y-51968046D01*
X52893753Y-51787026D01*
X52712733Y-51968046D01*
X52354937Y-51968046D01*
X52354938Y-51968045D01*
X52173919Y-51787026D01*
X51992898Y-51968046D01*
X51635104Y-51968046D01*
X51454083Y-51787026D01*
X51273064Y-51968045D01*
X50915268Y-51968045D01*
X50751940Y-51804717D01*
X50474540Y-51804717D01*
X50474540Y-51608128D01*
X50913146Y-51608128D01*
X51094167Y-51789148D01*
X51275186Y-51608129D01*
X51275185Y-51608128D01*
X51632981Y-51608128D01*
X51814001Y-51789148D01*
X51995021Y-51608128D01*
X52352816Y-51608128D01*
X52533836Y-51789148D01*
X52714856Y-51608128D01*
X53072650Y-51608128D01*
X53253671Y-51789148D01*
X53434690Y-51608129D01*
X53434689Y-51608128D01*
X53792485Y-51608128D01*
X53973505Y-51789148D01*
X54154525Y-51608128D01*
X54512320Y-51608128D01*
X54693340Y-51789148D01*
X54874359Y-51608129D01*
X55232155Y-51608129D01*
X55413174Y-51789148D01*
X55594195Y-51608128D01*
X55951989Y-51608128D01*
X56133010Y-51789148D01*
X56314029Y-51608129D01*
X56314028Y-51608128D01*
X56671824Y-51608128D01*
X56852844Y-51789148D01*
X57033863Y-51608129D01*
X57391659Y-51608129D01*
X57572678Y-51789148D01*
X57753699Y-51608128D01*
X57590090Y-51444519D01*
X57568119Y-51431668D01*
X57391659Y-51608129D01*
X57033863Y-51608129D01*
X57033864Y-51608128D01*
X56852844Y-51427108D01*
X56671824Y-51608128D01*
X56314028Y-51608128D01*
X56133009Y-51427108D01*
X55951989Y-51608128D01*
X55594195Y-51608128D01*
X55413175Y-51427108D01*
X55232155Y-51608129D01*
X54874359Y-51608129D01*
X54874360Y-51608128D01*
X54693340Y-51427108D01*
X54512320Y-51608128D01*
X54154525Y-51608128D01*
X53973505Y-51427108D01*
X53792485Y-51608128D01*
X53434689Y-51608128D01*
X53253670Y-51427108D01*
X53072650Y-51608128D01*
X52714856Y-51608128D01*
X52533836Y-51427108D01*
X52352816Y-51608128D01*
X51995021Y-51608128D01*
X51814001Y-51427108D01*
X51632981Y-51608128D01*
X51275185Y-51608128D01*
X51094166Y-51427108D01*
X50913146Y-51608128D01*
X50474540Y-51608128D01*
X50474540Y-51084882D01*
X50751940Y-51084882D01*
X50751940Y-51411540D01*
X50915269Y-51248211D01*
X51273064Y-51248211D01*
X51454084Y-51429231D01*
X51635104Y-51248211D01*
X51992898Y-51248211D01*
X52173918Y-51429231D01*
X52354938Y-51248211D01*
X52712733Y-51248211D01*
X52893753Y-51429231D01*
X53074773Y-51248211D01*
X53432568Y-51248211D01*
X53613588Y-51429231D01*
X53794608Y-51248211D01*
X54152403Y-51248211D01*
X54333423Y-51429231D01*
X54514443Y-51248211D01*
X54872237Y-51248211D01*
X55053257Y-51429231D01*
X55234277Y-51248211D01*
X55592072Y-51248211D01*
X55773092Y-51429231D01*
X55954112Y-51248211D01*
X56311907Y-51248211D01*
X56492927Y-51429231D01*
X56673947Y-51248211D01*
X57031741Y-51248211D01*
X57212761Y-51429231D01*
X57342367Y-51299624D01*
X57278954Y-51262533D01*
X57080759Y-51199193D01*
X57031741Y-51248211D01*
X56673947Y-51248211D01*
X56492927Y-51067191D01*
X56311907Y-51248211D01*
X55954112Y-51248211D01*
X55773092Y-51067191D01*
X55592072Y-51248211D01*
X55234277Y-51248211D01*
X55053257Y-51067191D01*
X54872237Y-51248211D01*
X54514443Y-51248211D01*
X54333423Y-51067191D01*
X54152403Y-51248211D01*
X53794608Y-51248211D01*
X53613588Y-51067191D01*
X53432568Y-51248211D01*
X53074773Y-51248211D01*
X52893753Y-51067191D01*
X52712733Y-51248211D01*
X52354938Y-51248211D01*
X52173918Y-51067191D01*
X51992898Y-51248211D01*
X51635104Y-51248211D01*
X51454084Y-51067191D01*
X51273064Y-51248211D01*
X50915269Y-51248211D01*
X50751940Y-51084882D01*
X50474540Y-51084882D01*
X50474540Y-50888294D01*
X50913146Y-50888294D01*
X51094166Y-51069314D01*
X51275185Y-50888294D01*
X51632981Y-50888294D01*
X51814001Y-51069314D01*
X51995021Y-50888294D01*
X52352816Y-50888294D01*
X52533836Y-51069314D01*
X52714856Y-50888294D01*
X53072650Y-50888294D01*
X53253670Y-51069314D01*
X53434689Y-50888294D01*
X53792485Y-50888294D01*
X53973505Y-51069314D01*
X54154525Y-50888294D01*
X54512320Y-50888294D01*
X54693340Y-51069314D01*
X54874360Y-50888294D01*
X54874359Y-50888293D01*
X55232155Y-50888293D01*
X55413175Y-51069314D01*
X55594195Y-50888294D01*
X55951989Y-50888294D01*
X56133009Y-51069314D01*
X56264118Y-50938204D01*
X55989760Y-50850523D01*
X55951989Y-50888294D01*
X55594195Y-50888294D01*
X55413174Y-50707274D01*
X55232155Y-50888293D01*
X54874359Y-50888293D01*
X54693340Y-50707274D01*
X54512320Y-50888294D01*
X54154525Y-50888294D01*
X53973505Y-50707274D01*
X53792485Y-50888294D01*
X53434689Y-50888294D01*
X53434690Y-50888293D01*
X53253671Y-50707274D01*
X53072650Y-50888294D01*
X52714856Y-50888294D01*
X52533836Y-50707274D01*
X52352816Y-50888294D01*
X51995021Y-50888294D01*
X51814001Y-50707274D01*
X51632981Y-50888294D01*
X51275185Y-50888294D01*
X51275186Y-50888293D01*
X51094167Y-50707274D01*
X50913146Y-50888294D01*
X50474540Y-50888294D01*
X50474540Y-50365047D01*
X50751940Y-50365047D01*
X50751940Y-50691705D01*
X50915268Y-50528377D01*
X51273064Y-50528377D01*
X51454083Y-50709396D01*
X51635104Y-50528376D01*
X51992898Y-50528376D01*
X52173919Y-50709396D01*
X52354938Y-50528377D01*
X52354937Y-50528376D01*
X52712733Y-50528376D01*
X52893753Y-50709396D01*
X53074773Y-50528376D01*
X53432568Y-50528376D01*
X53613588Y-50709396D01*
X53794607Y-50528377D01*
X54152403Y-50528377D01*
X54333422Y-50709396D01*
X54514443Y-50528376D01*
X54872237Y-50528376D01*
X55053257Y-50709396D01*
X55173118Y-50589534D01*
X54898760Y-50501853D01*
X54872237Y-50528376D01*
X54514443Y-50528376D01*
X54333423Y-50347356D01*
X54152403Y-50528377D01*
X53794607Y-50528377D01*
X53794608Y-50528376D01*
X53613588Y-50347356D01*
X53432568Y-50528376D01*
X53074773Y-50528376D01*
X52893753Y-50347356D01*
X52712733Y-50528376D01*
X52354937Y-50528376D01*
X52173918Y-50347356D01*
X51992898Y-50528376D01*
X51635104Y-50528376D01*
X51454084Y-50347356D01*
X51273064Y-50528377D01*
X50915268Y-50528377D01*
X50915269Y-50528376D01*
X50751940Y-50365047D01*
X50474540Y-50365047D01*
X50474540Y-50168459D01*
X50913146Y-50168459D01*
X51094166Y-50349479D01*
X51275186Y-50168459D01*
X51632981Y-50168459D01*
X51814001Y-50349479D01*
X51995021Y-50168459D01*
X52352816Y-50168459D01*
X52533836Y-50349479D01*
X52714856Y-50168459D01*
X53072650Y-50168459D01*
X53253670Y-50349479D01*
X53434690Y-50168459D01*
X53792485Y-50168459D01*
X53973505Y-50349479D01*
X54154525Y-50168459D01*
X53973505Y-49987439D01*
X53792485Y-50168459D01*
X53434690Y-50168459D01*
X53253670Y-49987439D01*
X53072650Y-50168459D01*
X52714856Y-50168459D01*
X52533836Y-49987439D01*
X52352816Y-50168459D01*
X51995021Y-50168459D01*
X51814001Y-49987439D01*
X51632981Y-50168459D01*
X51275186Y-50168459D01*
X51094166Y-49987439D01*
X50913146Y-50168459D01*
X50474540Y-50168459D01*
X50474540Y-49645213D01*
X50751940Y-49645213D01*
X50751940Y-49971871D01*
X50915269Y-49808542D01*
X50915268Y-49808541D01*
X51273064Y-49808541D01*
X51454084Y-49989562D01*
X51635104Y-49808542D01*
X51992898Y-49808542D01*
X52173918Y-49989562D01*
X52354937Y-49808542D01*
X52712733Y-49808542D01*
X52893753Y-49989562D01*
X53074773Y-49808542D01*
X53432568Y-49808542D01*
X53613588Y-49989562D01*
X53794608Y-49808542D01*
X53613588Y-49627522D01*
X53432568Y-49808542D01*
X53074773Y-49808542D01*
X52893753Y-49627522D01*
X52712733Y-49808542D01*
X52354937Y-49808542D01*
X52354938Y-49808541D01*
X52173919Y-49627522D01*
X51992898Y-49808542D01*
X51635104Y-49808542D01*
X51454083Y-49627522D01*
X51273064Y-49808541D01*
X50915268Y-49808541D01*
X50751940Y-49645213D01*
X50474540Y-49645213D01*
X50474540Y-49448624D01*
X50913146Y-49448624D01*
X51094166Y-49629644D01*
X51275186Y-49448624D01*
X51632981Y-49448624D01*
X51814001Y-49629644D01*
X51995021Y-49448624D01*
X52352816Y-49448624D01*
X52533836Y-49629644D01*
X52714856Y-49448624D01*
X53072650Y-49448624D01*
X53253670Y-49629644D01*
X53434690Y-49448624D01*
X53792485Y-49448624D01*
X53973505Y-49629644D01*
X53983882Y-49619267D01*
X53889043Y-49352066D01*
X53792485Y-49448624D01*
X53434690Y-49448624D01*
X53253670Y-49267604D01*
X53072650Y-49448624D01*
X52714856Y-49448624D01*
X52533836Y-49267604D01*
X52352816Y-49448624D01*
X51995021Y-49448624D01*
X51814001Y-49267604D01*
X51632981Y-49448624D01*
X51275186Y-49448624D01*
X51094166Y-49267604D01*
X50913146Y-49448624D01*
X50474540Y-49448624D01*
X50474540Y-48925378D01*
X50751940Y-48925378D01*
X50751940Y-49252036D01*
X50915269Y-49088707D01*
X51273064Y-49088707D01*
X51454084Y-49269727D01*
X51635104Y-49088707D01*
X51992898Y-49088707D01*
X52173918Y-49269727D01*
X52354938Y-49088707D01*
X52712733Y-49088707D01*
X52893753Y-49269727D01*
X53074773Y-49088707D01*
X53432568Y-49088707D01*
X53613588Y-49269727D01*
X53794608Y-49088707D01*
X53613588Y-48907687D01*
X53432568Y-49088707D01*
X53074773Y-49088707D01*
X52893753Y-48907687D01*
X52712733Y-49088707D01*
X52354938Y-49088707D01*
X52173918Y-48907687D01*
X51992898Y-49088707D01*
X51635104Y-49088707D01*
X51454084Y-48907687D01*
X51273064Y-49088707D01*
X50915269Y-49088707D01*
X50751940Y-48925378D01*
X50474540Y-48925378D01*
X50474540Y-48728790D01*
X50913146Y-48728790D01*
X51094166Y-48909810D01*
X51275185Y-48728790D01*
X51632981Y-48728790D01*
X51814001Y-48909810D01*
X51995021Y-48728790D01*
X52352816Y-48728790D01*
X52533836Y-48909810D01*
X52714856Y-48728790D01*
X53072650Y-48728790D01*
X53253670Y-48909810D01*
X53434690Y-48728789D01*
X53253671Y-48547770D01*
X53072650Y-48728790D01*
X52714856Y-48728790D01*
X52533836Y-48547770D01*
X52352816Y-48728790D01*
X51995021Y-48728790D01*
X51814001Y-48547770D01*
X51632981Y-48728790D01*
X51275185Y-48728790D01*
X51275186Y-48728789D01*
X51094167Y-48547770D01*
X50913146Y-48728790D01*
X50474540Y-48728790D01*
X50474540Y-48205543D01*
X50751940Y-48205543D01*
X50751940Y-48532201D01*
X50915269Y-48368872D01*
X51273064Y-48368872D01*
X51454084Y-48549892D01*
X51635104Y-48368872D01*
X51992898Y-48368872D01*
X52173918Y-48549892D01*
X52354938Y-48368872D01*
X52712733Y-48368872D01*
X52893753Y-48549892D01*
X53074773Y-48368872D01*
X53432568Y-48368872D01*
X53599220Y-48535524D01*
X53511908Y-48289532D01*
X53432568Y-48368872D01*
X53074773Y-48368872D01*
X52893753Y-48187852D01*
X52712733Y-48368872D01*
X52354938Y-48368872D01*
X52173918Y-48187852D01*
X51992898Y-48368872D01*
X51635104Y-48368872D01*
X51454084Y-48187852D01*
X51273064Y-48368872D01*
X50915269Y-48368872D01*
X50751940Y-48205543D01*
X50474540Y-48205543D01*
X50474540Y-48008955D01*
X50913146Y-48008955D01*
X51094166Y-48189975D01*
X51275186Y-48008955D01*
X51632981Y-48008955D01*
X51814001Y-48189975D01*
X51995021Y-48008955D01*
X52352816Y-48008955D01*
X52533836Y-48189975D01*
X52714856Y-48008955D01*
X53072650Y-48008955D01*
X53253670Y-48189975D01*
X53418180Y-48025464D01*
X53400013Y-47974278D01*
X53253670Y-47827935D01*
X53072650Y-48008955D01*
X52714856Y-48008955D01*
X52533836Y-47827935D01*
X52352816Y-48008955D01*
X51995021Y-48008955D01*
X51814001Y-47827935D01*
X51632981Y-48008955D01*
X51275186Y-48008955D01*
X51094166Y-47827935D01*
X50913146Y-48008955D01*
X50474540Y-48008955D01*
X50474540Y-47485708D01*
X50751940Y-47485708D01*
X50751940Y-47812366D01*
X50915268Y-47649038D01*
X51273064Y-47649038D01*
X51454083Y-47830057D01*
X51635104Y-47649037D01*
X51992898Y-47649037D01*
X52173919Y-47830057D01*
X52354938Y-47649038D01*
X52354937Y-47649037D01*
X52712733Y-47649037D01*
X52893753Y-47830057D01*
X53074773Y-47649037D01*
X52893753Y-47468017D01*
X52712733Y-47649037D01*
X52354937Y-47649037D01*
X52173918Y-47468017D01*
X51992898Y-47649037D01*
X51635104Y-47649037D01*
X51454084Y-47468017D01*
X51273064Y-47649038D01*
X50915268Y-47649038D01*
X50915269Y-47649037D01*
X50751940Y-47485708D01*
X50474540Y-47485708D01*
X50474540Y-47289120D01*
X50913146Y-47289120D01*
X51094166Y-47470140D01*
X51275186Y-47289120D01*
X51632981Y-47289120D01*
X51814001Y-47470140D01*
X51995021Y-47289120D01*
X52352816Y-47289120D01*
X52533836Y-47470140D01*
X52714856Y-47289120D01*
X53072650Y-47289120D01*
X53203140Y-47419610D01*
X53134774Y-47226996D01*
X53072650Y-47289120D01*
X52714856Y-47289120D01*
X52533836Y-47108100D01*
X52352816Y-47289120D01*
X51995021Y-47289120D01*
X51814001Y-47108100D01*
X51632981Y-47289120D01*
X51275186Y-47289120D01*
X51094166Y-47108100D01*
X50913146Y-47289120D01*
X50474540Y-47289120D01*
X50474540Y-46765874D01*
X50751940Y-46765874D01*
X50751940Y-47092532D01*
X50915269Y-46929203D01*
X51273064Y-46929203D01*
X51454084Y-47110223D01*
X51635104Y-46929203D01*
X51992898Y-46929203D01*
X52173918Y-47110223D01*
X52354938Y-46929203D01*
X52712733Y-46929203D01*
X52893753Y-47110223D01*
X53041046Y-46962930D01*
X53003930Y-46858360D01*
X52893753Y-46748183D01*
X52712733Y-46929203D01*
X52354938Y-46929203D01*
X52173918Y-46748183D01*
X51992898Y-46929203D01*
X51635104Y-46929203D01*
X51454084Y-46748183D01*
X51273064Y-46929203D01*
X50915269Y-46929203D01*
X50751940Y-46765874D01*
X50474540Y-46765874D01*
X50474540Y-46569285D01*
X50913146Y-46569285D01*
X51094167Y-46750305D01*
X51275186Y-46569286D01*
X51275185Y-46569285D01*
X51632981Y-46569285D01*
X51814001Y-46750305D01*
X51995021Y-46569285D01*
X52352816Y-46569285D01*
X52533836Y-46750305D01*
X52714856Y-46569285D01*
X52533836Y-46388265D01*
X52352816Y-46569285D01*
X51995021Y-46569285D01*
X51814001Y-46388265D01*
X51632981Y-46569285D01*
X51275185Y-46569285D01*
X51094166Y-46388265D01*
X50913146Y-46569285D01*
X50474540Y-46569285D01*
X50474540Y-46046039D01*
X50751940Y-46046039D01*
X50751940Y-46372697D01*
X50915269Y-46209368D01*
X51273064Y-46209368D01*
X51454084Y-46390388D01*
X51635104Y-46209368D01*
X51992898Y-46209368D01*
X52173918Y-46390388D01*
X52354938Y-46209368D01*
X52712733Y-46209368D01*
X52807057Y-46303692D01*
X52757639Y-46164462D01*
X52712733Y-46209368D01*
X52354938Y-46209368D01*
X52173918Y-46028348D01*
X51992898Y-46209368D01*
X51635104Y-46209368D01*
X51454084Y-46028348D01*
X51273064Y-46209368D01*
X50915269Y-46209368D01*
X50751940Y-46046039D01*
X50474540Y-46046039D01*
X50474540Y-45849451D01*
X50913146Y-45849451D01*
X51094166Y-46030471D01*
X51275185Y-45849451D01*
X51632981Y-45849451D01*
X51814001Y-46030471D01*
X51995021Y-45849451D01*
X52352816Y-45849451D01*
X52533836Y-46030471D01*
X52663912Y-45900395D01*
X52607849Y-45742443D01*
X52533837Y-45668431D01*
X52352816Y-45849451D01*
X51995021Y-45849451D01*
X51814001Y-45668431D01*
X51632981Y-45849451D01*
X51275185Y-45849451D01*
X51275186Y-45849450D01*
X51094167Y-45668431D01*
X50913146Y-45849451D01*
X50474540Y-45849451D01*
X50474540Y-45326204D01*
X50751940Y-45326204D01*
X50751940Y-45652862D01*
X50915268Y-45489534D01*
X51273064Y-45489534D01*
X51454083Y-45670553D01*
X51635104Y-45489533D01*
X51992898Y-45489533D01*
X52173919Y-45670553D01*
X52354938Y-45489534D01*
X52173918Y-45308513D01*
X51992898Y-45489533D01*
X51635104Y-45489533D01*
X51454084Y-45308513D01*
X51273064Y-45489534D01*
X50915268Y-45489534D01*
X50915269Y-45489533D01*
X50751940Y-45326204D01*
X50474540Y-45326204D01*
X50474540Y-45129616D01*
X50913146Y-45129616D01*
X51094166Y-45310636D01*
X51275186Y-45129616D01*
X51632981Y-45129616D01*
X51814001Y-45310636D01*
X51995021Y-45129616D01*
X52352816Y-45129616D01*
X52410977Y-45187777D01*
X52380505Y-45101927D01*
X52352816Y-45129616D01*
X51995021Y-45129616D01*
X51814001Y-44948596D01*
X51632981Y-45129616D01*
X51275186Y-45129616D01*
X51094166Y-44948596D01*
X50913146Y-45129616D01*
X50474540Y-45129616D01*
X50474540Y-44606370D01*
X50751940Y-44606370D01*
X50751940Y-44933028D01*
X50915269Y-44769699D01*
X50915268Y-44769698D01*
X51273064Y-44769698D01*
X51454084Y-44950719D01*
X51635104Y-44769699D01*
X51992898Y-44769699D01*
X52173918Y-44950719D01*
X52286777Y-44837860D01*
X52211767Y-44626527D01*
X52173919Y-44588679D01*
X51992898Y-44769699D01*
X51635104Y-44769699D01*
X51454083Y-44588679D01*
X51273064Y-44769698D01*
X50915268Y-44769698D01*
X50751940Y-44606370D01*
X50474540Y-44606370D01*
X50474540Y-44409781D01*
X50913146Y-44409781D01*
X51094167Y-44590801D01*
X51275186Y-44409782D01*
X51275185Y-44409781D01*
X51632981Y-44409781D01*
X51814001Y-44590801D01*
X51995021Y-44409781D01*
X51814001Y-44228761D01*
X51632981Y-44409781D01*
X51275185Y-44409781D01*
X51094166Y-44228761D01*
X50913146Y-44409781D01*
X50474540Y-44409781D01*
X50474540Y-43886535D01*
X50751940Y-43886535D01*
X50751940Y-44213193D01*
X50915269Y-44049864D01*
X51273064Y-44049864D01*
X51454084Y-44230884D01*
X51635104Y-44049864D01*
X51992898Y-44049864D01*
X52014895Y-44071861D01*
X52003371Y-44039391D01*
X51992898Y-44049864D01*
X51635104Y-44049864D01*
X51454084Y-43868844D01*
X51273064Y-44049864D01*
X50915269Y-44049864D01*
X50751940Y-43886535D01*
X50474540Y-43886535D01*
X50474540Y-43689947D01*
X50913146Y-43689947D01*
X51094166Y-43870967D01*
X51275185Y-43689947D01*
X51632981Y-43689947D01*
X51814001Y-43870967D01*
X51909643Y-43775325D01*
X51815686Y-43510611D01*
X51814002Y-43508927D01*
X51632981Y-43689947D01*
X51275185Y-43689947D01*
X51275186Y-43689946D01*
X51094167Y-43508927D01*
X50913146Y-43689947D01*
X50474540Y-43689947D01*
X50474540Y-43587976D01*
X50494542Y-43519855D01*
X50511445Y-43498881D01*
X50680297Y-43330029D01*
X51273064Y-43330029D01*
X51454084Y-43511049D01*
X51635104Y-43330029D01*
X51454084Y-43149009D01*
X51273064Y-43330029D01*
X50680297Y-43330029D01*
X51647351Y-42362975D01*
X51709663Y-42328949D01*
X51780478Y-42334014D01*
G37*
%TD.AperFunction*%
%TA.AperFunction,Conductor*%
%TO.N,GND*%
G36*
X41592121Y-18020002D02*
G01*
X41638614Y-18073658D01*
X41650000Y-18126000D01*
X41650000Y-20149000D01*
X41654570Y-20191512D01*
X41665956Y-20243854D01*
X41668378Y-20253762D01*
X41710236Y-20332314D01*
X41756729Y-20385970D01*
X41773851Y-20403445D01*
X41851533Y-20446897D01*
X41884654Y-20456622D01*
X41915331Y-20465630D01*
X41915335Y-20465631D01*
X41919654Y-20466899D01*
X41924102Y-20467539D01*
X41924109Y-20467540D01*
X41971552Y-20474361D01*
X41971559Y-20474361D01*
X41976000Y-20475000D01*
X42423011Y-20475000D01*
X42491132Y-20495002D01*
X42537625Y-20548658D01*
X42549011Y-20601000D01*
X42549011Y-21157148D01*
X42529009Y-21225269D01*
X42475353Y-21271762D01*
X42403301Y-21281597D01*
X42334794Y-21270747D01*
X42334793Y-21270747D01*
X42325000Y-21269196D01*
X42315207Y-21270747D01*
X42201665Y-21288730D01*
X42201663Y-21288731D01*
X42191874Y-21290281D01*
X42071780Y-21351472D01*
X42064768Y-21358484D01*
X42056748Y-21364311D01*
X42055785Y-21362986D01*
X42003345Y-21391621D01*
X41976562Y-21394500D01*
X41722468Y-21394500D01*
X41654347Y-21374498D01*
X41633450Y-21357673D01*
X41627239Y-21351472D01*
X41556350Y-21280707D01*
X41538051Y-21271762D01*
X41508419Y-21257278D01*
X41451518Y-21229464D01*
X41421027Y-21225016D01*
X41387744Y-21220160D01*
X41387740Y-21220160D01*
X41383218Y-21219500D01*
X39666782Y-21219500D01*
X39662232Y-21220170D01*
X39662229Y-21220170D01*
X39607574Y-21228216D01*
X39607573Y-21228216D01*
X39597888Y-21229642D01*
X39547992Y-21254140D01*
X39502493Y-21276478D01*
X39502491Y-21276479D01*
X39493145Y-21281068D01*
X39483948Y-21290281D01*
X39441884Y-21332419D01*
X39410707Y-21363650D01*
X39359464Y-21468482D01*
X39349500Y-21536782D01*
X39349500Y-21903218D01*
X39350170Y-21907768D01*
X39350170Y-21907771D01*
X39358216Y-21962426D01*
X39359642Y-21972112D01*
X39375802Y-22005026D01*
X39402417Y-22059234D01*
X39411068Y-22076855D01*
X39493650Y-22159293D01*
X39503006Y-22163866D01*
X39503007Y-22163867D01*
X39531352Y-22177722D01*
X39598482Y-22210536D01*
X39628973Y-22214984D01*
X39662256Y-22219840D01*
X39662260Y-22219840D01*
X39666782Y-22220500D01*
X41383218Y-22220500D01*
X41387768Y-22219830D01*
X41387771Y-22219830D01*
X41442426Y-22211784D01*
X41442427Y-22211784D01*
X41452112Y-22210358D01*
X41518584Y-22177722D01*
X41547507Y-22163522D01*
X41547509Y-22163521D01*
X41556855Y-22158932D01*
X41633171Y-22082482D01*
X41695455Y-22048403D01*
X41722345Y-22045500D01*
X42035587Y-22045500D01*
X42092791Y-22059234D01*
X42161175Y-22094078D01*
X42212790Y-22142826D01*
X42229855Y-22211741D01*
X42207624Y-22277982D01*
X42206106Y-22280179D01*
X42184545Y-22311375D01*
X42182250Y-22314587D01*
X42170876Y-22329986D01*
X42157405Y-22348225D01*
X42147366Y-22361816D01*
X42144973Y-22368632D01*
X42140869Y-22374569D01*
X42138029Y-22383549D01*
X42138028Y-22383551D01*
X42131650Y-22403717D01*
X42123462Y-22429610D01*
X42123182Y-22430495D01*
X42121928Y-22434253D01*
X42114553Y-22455252D01*
X42073109Y-22512896D01*
X42007078Y-22538983D01*
X41995672Y-22539500D01*
X41562570Y-22539500D01*
X41507237Y-22526700D01*
X41478997Y-22512896D01*
X41451518Y-22499464D01*
X41421027Y-22495016D01*
X41387744Y-22490160D01*
X41387740Y-22490160D01*
X41383218Y-22489500D01*
X39666782Y-22489500D01*
X39662232Y-22490170D01*
X39662229Y-22490170D01*
X39607574Y-22498216D01*
X39607573Y-22498216D01*
X39597888Y-22499642D01*
X39576105Y-22510337D01*
X39502493Y-22546478D01*
X39502491Y-22546479D01*
X39493145Y-22551068D01*
X39485787Y-22558438D01*
X39485788Y-22558438D01*
X39421840Y-22622498D01*
X39410707Y-22633650D01*
X39359464Y-22738482D01*
X39349500Y-22806782D01*
X39349500Y-23173218D01*
X39350170Y-23177768D01*
X39350170Y-23177771D01*
X39358216Y-23232426D01*
X39359642Y-23242112D01*
X39382663Y-23289000D01*
X39401487Y-23327340D01*
X39411068Y-23346855D01*
X39493650Y-23429293D01*
X39503006Y-23433866D01*
X39503007Y-23433867D01*
X39525472Y-23444848D01*
X39598482Y-23480536D01*
X39628973Y-23484984D01*
X39662256Y-23489840D01*
X39662260Y-23489840D01*
X39666782Y-23490500D01*
X41383218Y-23490500D01*
X41387768Y-23489830D01*
X41387771Y-23489830D01*
X41411425Y-23486348D01*
X41452112Y-23480358D01*
X41460903Y-23476042D01*
X41460906Y-23476041D01*
X41507026Y-23453397D01*
X41562556Y-23440500D01*
X41989537Y-23440500D01*
X42057658Y-23460502D01*
X42092367Y-23493861D01*
X42096776Y-23503316D01*
X42181684Y-23588224D01*
X42191676Y-23592883D01*
X42191677Y-23592884D01*
X42277575Y-23632939D01*
X42290513Y-23638972D01*
X42340099Y-23645500D01*
X42549923Y-23645500D01*
X42759900Y-23645499D01*
X42809487Y-23638972D01*
X42824718Y-23631870D01*
X42908323Y-23592884D01*
X42908324Y-23592883D01*
X42918316Y-23588224D01*
X43003224Y-23503316D01*
X43040589Y-23423188D01*
X43049898Y-23403224D01*
X43049898Y-23403223D01*
X43053972Y-23394487D01*
X43060500Y-23344901D01*
X43060499Y-22985100D01*
X43053972Y-22935513D01*
X43049900Y-22926781D01*
X43049899Y-22926777D01*
X43018947Y-22860401D01*
X43008286Y-22790209D01*
X43037266Y-22725396D01*
X43044047Y-22718056D01*
X43293861Y-22468242D01*
X43304950Y-22458388D01*
X43324222Y-22443195D01*
X43324226Y-22443191D01*
X43331621Y-22437361D01*
X43336975Y-22429614D01*
X43336979Y-22429610D01*
X43364988Y-22389085D01*
X43367269Y-22385891D01*
X43402146Y-22338672D01*
X43404540Y-22331855D01*
X43408642Y-22325920D01*
X43409214Y-22324112D01*
X43456705Y-22275390D01*
X43525881Y-22259412D01*
X43592713Y-22283370D01*
X43635983Y-22339657D01*
X43644500Y-22385196D01*
X43644500Y-22719748D01*
X43645707Y-22725816D01*
X43647582Y-22735240D01*
X43656133Y-22778231D01*
X43700448Y-22844552D01*
X43766769Y-22888867D01*
X43778938Y-22891288D01*
X43778939Y-22891288D01*
X43801608Y-22895797D01*
X43825252Y-22900500D01*
X44464748Y-22900500D01*
X44488392Y-22895797D01*
X44511061Y-22891288D01*
X44511062Y-22891288D01*
X44523231Y-22888867D01*
X44589552Y-22844552D01*
X44633867Y-22778231D01*
X44642419Y-22735240D01*
X44644293Y-22725816D01*
X44645500Y-22719748D01*
X44914500Y-22719748D01*
X44915707Y-22725816D01*
X44917582Y-22735240D01*
X44926133Y-22778231D01*
X44970448Y-22844552D01*
X45036769Y-22888867D01*
X45048938Y-22891288D01*
X45048939Y-22891288D01*
X45071608Y-22895797D01*
X45095252Y-22900500D01*
X45734748Y-22900500D01*
X45758392Y-22895797D01*
X45781061Y-22891288D01*
X45781062Y-22891288D01*
X45793231Y-22888867D01*
X45859552Y-22844552D01*
X45903867Y-22778231D01*
X45912419Y-22735240D01*
X45914293Y-22725816D01*
X45915500Y-22719748D01*
X46184500Y-22719748D01*
X46185707Y-22725816D01*
X46187582Y-22735240D01*
X46196133Y-22778231D01*
X46240448Y-22844552D01*
X46306769Y-22888867D01*
X46318938Y-22891288D01*
X46318939Y-22891288D01*
X46341608Y-22895797D01*
X46365252Y-22900500D01*
X47004748Y-22900500D01*
X47028392Y-22895797D01*
X47051061Y-22891288D01*
X47051062Y-22891288D01*
X47063231Y-22888867D01*
X47129552Y-22844552D01*
X47173867Y-22778231D01*
X47175292Y-22779183D01*
X47210705Y-22735240D01*
X47278068Y-22712819D01*
X47346859Y-22730377D01*
X47393763Y-22779485D01*
X47428436Y-22844552D01*
X47435236Y-22857314D01*
X47481729Y-22910970D01*
X47498851Y-22928445D01*
X47576533Y-22971897D01*
X47607559Y-22981007D01*
X47640331Y-22990630D01*
X47640335Y-22990631D01*
X47644654Y-22991899D01*
X47649102Y-22992539D01*
X47649109Y-22992540D01*
X47696552Y-22999361D01*
X47696559Y-22999361D01*
X47701000Y-23000000D01*
X50599000Y-23000000D01*
X50602346Y-22999640D01*
X50602352Y-22999640D01*
X50616436Y-22998126D01*
X50641512Y-22995430D01*
X50693854Y-22984044D01*
X50703762Y-22981622D01*
X50782314Y-22939764D01*
X50835970Y-22893271D01*
X50853445Y-22876149D01*
X50896897Y-22798467D01*
X50911668Y-22748162D01*
X50915630Y-22734669D01*
X50915631Y-22734665D01*
X50916899Y-22730346D01*
X50917540Y-22725891D01*
X50924361Y-22678448D01*
X50924361Y-22678441D01*
X50925000Y-22674000D01*
X50925000Y-20926000D01*
X50920430Y-20883488D01*
X50909044Y-20831146D01*
X50906622Y-20821238D01*
X50864764Y-20742686D01*
X50818271Y-20689030D01*
X50801149Y-20671555D01*
X50723467Y-20628103D01*
X50682098Y-20615956D01*
X50659669Y-20609370D01*
X50659665Y-20609369D01*
X50655346Y-20608101D01*
X50650898Y-20607461D01*
X50650891Y-20607460D01*
X50603448Y-20600639D01*
X50603441Y-20600639D01*
X50599000Y-20600000D01*
X47701000Y-20600000D01*
X47697654Y-20600360D01*
X47697648Y-20600360D01*
X47683564Y-20601874D01*
X47658488Y-20604570D01*
X47606146Y-20615956D01*
X47596238Y-20618378D01*
X47517686Y-20660236D01*
X47464030Y-20706729D01*
X47446555Y-20723851D01*
X47403103Y-20801533D01*
X47383101Y-20869654D01*
X47382461Y-20874102D01*
X47382460Y-20874109D01*
X47377238Y-20910435D01*
X47375000Y-20926000D01*
X47375000Y-20957419D01*
X47354998Y-21025540D01*
X47301342Y-21072033D01*
X47231068Y-21082137D01*
X47166488Y-21052643D01*
X47144236Y-21027422D01*
X47136446Y-21015764D01*
X47136443Y-21015761D01*
X47129552Y-21005448D01*
X47063231Y-20961133D01*
X47051062Y-20958712D01*
X47051061Y-20958712D01*
X47010816Y-20950707D01*
X47004748Y-20949500D01*
X46365252Y-20949500D01*
X46359184Y-20950707D01*
X46318939Y-20958712D01*
X46318938Y-20958712D01*
X46306769Y-20961133D01*
X46240448Y-21005448D01*
X46196133Y-21071769D01*
X46193712Y-21083938D01*
X46193712Y-21083939D01*
X46191280Y-21096166D01*
X46184500Y-21130252D01*
X46184500Y-22719748D01*
X45915500Y-22719748D01*
X45915500Y-21130252D01*
X45908720Y-21096166D01*
X45906288Y-21083939D01*
X45906288Y-21083938D01*
X45903867Y-21071769D01*
X45859552Y-21005448D01*
X45793231Y-20961133D01*
X45781062Y-20958712D01*
X45781061Y-20958712D01*
X45740816Y-20950707D01*
X45734748Y-20949500D01*
X45095252Y-20949500D01*
X45089184Y-20950707D01*
X45048939Y-20958712D01*
X45048938Y-20958712D01*
X45036769Y-20961133D01*
X44970448Y-21005448D01*
X44926133Y-21071769D01*
X44923712Y-21083938D01*
X44923712Y-21083939D01*
X44921280Y-21096166D01*
X44914500Y-21130252D01*
X44914500Y-22719748D01*
X44645500Y-22719748D01*
X44645500Y-21130252D01*
X44638720Y-21096166D01*
X44636288Y-21083940D01*
X44636288Y-21083939D01*
X44633867Y-21071769D01*
X44616734Y-21046129D01*
X44595500Y-20976128D01*
X44595500Y-20927157D01*
X44597823Y-20903090D01*
X44599980Y-20896270D01*
X44600500Y-20889663D01*
X44600500Y-20393082D01*
X44620502Y-20324961D01*
X44637405Y-20303987D01*
X44678050Y-20263342D01*
X44682553Y-20254504D01*
X44684055Y-20252437D01*
X44740278Y-20209084D01*
X44785990Y-20200500D01*
X44864010Y-20200500D01*
X44932131Y-20220502D01*
X44965945Y-20252437D01*
X44967447Y-20254504D01*
X44971950Y-20263342D01*
X45061658Y-20353050D01*
X45174696Y-20410646D01*
X45184485Y-20412196D01*
X45184487Y-20412197D01*
X45211849Y-20416530D01*
X45268481Y-20425500D01*
X45499953Y-20425500D01*
X45731518Y-20425499D01*
X45736412Y-20424724D01*
X45815506Y-20412198D01*
X45815508Y-20412197D01*
X45825304Y-20410646D01*
X45938342Y-20353050D01*
X46028050Y-20263342D01*
X46085646Y-20150304D01*
X46100500Y-20056519D01*
X46100499Y-19581664D01*
X46120501Y-19513544D01*
X46174156Y-19467051D01*
X46226763Y-19455665D01*
X46362053Y-19455948D01*
X46549394Y-19456341D01*
X46551080Y-19456253D01*
X46551089Y-19456253D01*
X46561238Y-19455724D01*
X46570982Y-19455217D01*
X46598029Y-19452338D01*
X46603956Y-19450486D01*
X46603959Y-19450485D01*
X46666784Y-19430850D01*
X46666787Y-19430849D01*
X46672712Y-19428997D01*
X46684648Y-19422479D01*
X46731073Y-19397129D01*
X46731078Y-19397126D01*
X46735024Y-19394971D01*
X46780593Y-19360857D01*
X46816567Y-19324883D01*
X46848460Y-19301711D01*
X46869486Y-19290998D01*
X46906977Y-19278816D01*
X46931979Y-19274856D01*
X46940323Y-19273819D01*
X46965902Y-19271502D01*
X46965903Y-19271502D01*
X46968728Y-19271246D01*
X47002893Y-19265006D01*
X47003004Y-19265615D01*
X47009800Y-19263532D01*
X47014903Y-19263448D01*
X47021767Y-19261762D01*
X47026413Y-19261161D01*
X47032770Y-19260000D01*
X47111992Y-19250413D01*
X47127129Y-19249500D01*
X48274808Y-19249500D01*
X48291254Y-19250578D01*
X48360269Y-19259664D01*
X48389592Y-19267193D01*
X48474047Y-19300120D01*
X48500736Y-19314432D01*
X48505230Y-19317591D01*
X48590703Y-19377662D01*
X48599705Y-19384992D01*
X48599884Y-19384781D01*
X48602288Y-19386819D01*
X48604592Y-19388980D01*
X48618685Y-19399764D01*
X48683476Y-19432711D01*
X48751555Y-19452856D01*
X48755999Y-19453505D01*
X48756006Y-19453506D01*
X48803437Y-19460427D01*
X48803438Y-19460427D01*
X48807885Y-19461076D01*
X50811765Y-19465277D01*
X55124265Y-19474318D01*
X55192343Y-19494463D01*
X55238723Y-19548216D01*
X55250000Y-19600318D01*
X55250000Y-33248261D01*
X55254695Y-33291344D01*
X55266389Y-33344356D01*
X55268996Y-33354823D01*
X55311314Y-33433128D01*
X55358120Y-33486510D01*
X55375341Y-33503882D01*
X55383228Y-33508234D01*
X55383229Y-33508234D01*
X55446752Y-33543280D01*
X55453275Y-33546879D01*
X55460079Y-33548834D01*
X55460082Y-33548835D01*
X55496701Y-33559355D01*
X55521512Y-33566483D01*
X55525965Y-33567097D01*
X55525966Y-33567097D01*
X55539970Y-33569027D01*
X55577907Y-33574256D01*
X55582398Y-33574230D01*
X55582402Y-33574230D01*
X56533743Y-33568666D01*
X58123265Y-33559370D01*
X58191500Y-33578973D01*
X58238306Y-33632356D01*
X58250000Y-33685368D01*
X58250000Y-50909480D01*
X58229998Y-50977601D01*
X58176342Y-51024094D01*
X58106068Y-51034198D01*
X58060385Y-51018242D01*
X57559477Y-50725258D01*
X57559476Y-50725258D01*
X57557981Y-50724383D01*
X57556441Y-50723593D01*
X57556431Y-50723587D01*
X57539974Y-50715139D01*
X57539955Y-50715130D01*
X57538424Y-50714344D01*
X57536829Y-50713633D01*
X57514757Y-50703795D01*
X57514740Y-50703788D01*
X57513174Y-50703090D01*
X57492638Y-50695259D01*
X57491005Y-50694737D01*
X54749812Y-49818685D01*
X54691014Y-49778895D01*
X54669427Y-49740811D01*
X53967482Y-47763158D01*
X53897187Y-47565111D01*
X52043668Y-42343025D01*
X52040246Y-42335288D01*
X52032439Y-42317639D01*
X52032437Y-42317634D01*
X52031482Y-42315476D01*
X52013608Y-42282113D01*
X51957850Y-42217244D01*
X51928615Y-42152548D01*
X51938999Y-42082315D01*
X51964308Y-42046018D01*
X53791215Y-40219111D01*
X53799319Y-40211684D01*
X53819749Y-40194541D01*
X53828194Y-40187455D01*
X53843333Y-40161233D01*
X53847039Y-40154815D01*
X53852945Y-40145544D01*
X53862672Y-40131653D01*
X53874554Y-40114684D01*
X53877408Y-40104033D01*
X53878888Y-40100860D01*
X53880079Y-40097588D01*
X53885588Y-40088045D01*
X53892134Y-40050924D01*
X53894508Y-40040217D01*
X53904263Y-40003807D01*
X53902404Y-39982550D01*
X53900979Y-39966269D01*
X53900500Y-39955288D01*
X53900500Y-33694710D01*
X53900980Y-33683728D01*
X53903303Y-33657180D01*
X53903303Y-33657178D01*
X53904264Y-33646193D01*
X53894508Y-33609785D01*
X53892130Y-33599058D01*
X53890754Y-33591254D01*
X53885588Y-33561955D01*
X53880077Y-33552409D01*
X53878884Y-33549132D01*
X53877408Y-33545967D01*
X53874554Y-33535316D01*
X53852945Y-33504456D01*
X53847039Y-33495185D01*
X53833707Y-33472094D01*
X53828194Y-33462545D01*
X53799317Y-33438315D01*
X53791215Y-33430889D01*
X52125921Y-31765595D01*
X52091895Y-31703283D01*
X52096960Y-31632468D01*
X52139507Y-31575632D01*
X52206027Y-31550821D01*
X52215016Y-31550500D01*
X52392516Y-31550500D01*
X52518320Y-31535276D01*
X52525424Y-31532592D01*
X52532805Y-31530779D01*
X52533041Y-31531739D01*
X52567206Y-31525499D01*
X52581518Y-31525499D01*
X52588704Y-31524361D01*
X52665506Y-31512198D01*
X52665508Y-31512197D01*
X52675304Y-31510646D01*
X52788342Y-31453050D01*
X52878050Y-31363342D01*
X52935646Y-31250304D01*
X52936958Y-31242023D01*
X52944355Y-31224554D01*
X53005223Y-31109593D01*
X53005225Y-31109588D01*
X53008776Y-31102881D01*
X53050081Y-30938441D01*
X53050969Y-30768895D01*
X53033229Y-30695002D01*
X53013161Y-30611417D01*
X53011388Y-30604032D01*
X52990515Y-30563590D01*
X52942599Y-30470756D01*
X52936768Y-30456782D01*
X52935646Y-30449696D01*
X52878050Y-30336658D01*
X52880621Y-30335348D01*
X52862012Y-30283188D01*
X52878095Y-30214037D01*
X52929011Y-30164559D01*
X52987807Y-30150000D01*
X53599000Y-30150000D01*
X53602346Y-30149640D01*
X53602352Y-30149640D01*
X53616436Y-30148126D01*
X53641512Y-30145430D01*
X53693854Y-30134044D01*
X53703762Y-30131622D01*
X53782314Y-30089764D01*
X53835970Y-30043271D01*
X53853445Y-30026149D01*
X53896897Y-29948467D01*
X53906723Y-29915002D01*
X53915630Y-29884669D01*
X53915631Y-29884665D01*
X53916899Y-29880346D01*
X53925000Y-29824000D01*
X53925000Y-23673455D01*
X53920853Y-23632939D01*
X53910511Y-23582946D01*
X53876813Y-23512969D01*
X53871798Y-23502556D01*
X53871797Y-23502555D01*
X53868448Y-23495600D01*
X53857098Y-23481948D01*
X53824289Y-23442486D01*
X53824283Y-23442479D01*
X53823059Y-23441007D01*
X53816344Y-23433867D01*
X53812475Y-23429754D01*
X53812474Y-23429753D01*
X53806299Y-23423188D01*
X53741061Y-23384928D01*
X53735623Y-23381739D01*
X53735622Y-23381738D01*
X53729520Y-23378160D01*
X53661822Y-23356772D01*
X53657387Y-23356042D01*
X53657384Y-23356041D01*
X53639528Y-23353101D01*
X53605652Y-23347523D01*
X53601167Y-23347431D01*
X53601162Y-23347431D01*
X52823429Y-23331559D01*
X52755731Y-23310171D01*
X52710342Y-23255578D01*
X52700000Y-23205585D01*
X52700000Y-22164441D01*
X52700140Y-22158508D01*
X52700221Y-22156781D01*
X52700500Y-22153834D01*
X52700500Y-21096166D01*
X52700221Y-21093218D01*
X52700140Y-21091492D01*
X52700000Y-21085559D01*
X52700000Y-20976000D01*
X52695430Y-20933488D01*
X52684044Y-20881146D01*
X52681622Y-20871238D01*
X52639764Y-20792686D01*
X52593271Y-20739030D01*
X52576149Y-20721555D01*
X52518002Y-20689030D01*
X52504644Y-20681558D01*
X52504643Y-20681558D01*
X52498467Y-20678103D01*
X52457098Y-20665956D01*
X52434669Y-20659370D01*
X52434665Y-20659369D01*
X52430346Y-20658101D01*
X52425898Y-20657461D01*
X52425891Y-20657460D01*
X52378448Y-20650639D01*
X52378441Y-20650639D01*
X52374000Y-20650000D01*
X51676000Y-20650000D01*
X51672654Y-20650360D01*
X51672648Y-20650360D01*
X51658564Y-20651874D01*
X51633488Y-20654570D01*
X51581146Y-20665956D01*
X51571238Y-20668378D01*
X51492686Y-20710236D01*
X51439030Y-20756729D01*
X51421555Y-20773851D01*
X51378103Y-20851533D01*
X51369408Y-20881146D01*
X51361766Y-20907172D01*
X51352580Y-20929756D01*
X51347366Y-20936816D01*
X51344247Y-20945699D01*
X51344246Y-20945700D01*
X51325684Y-20998557D01*
X51302481Y-21064631D01*
X51299500Y-21096166D01*
X51299500Y-22153834D01*
X51302481Y-22185369D01*
X51327684Y-22257136D01*
X51342883Y-22300418D01*
X51350000Y-22342166D01*
X51350000Y-25181817D01*
X51329998Y-25249938D01*
X51276342Y-25296431D01*
X51259910Y-25302592D01*
X48840258Y-26021948D01*
X48763473Y-26044776D01*
X48727567Y-26050000D01*
X48624281Y-26050000D01*
X48621706Y-26050212D01*
X48621700Y-26050212D01*
X48611750Y-26051030D01*
X48591616Y-26052686D01*
X48589076Y-26053107D01*
X48589072Y-26053107D01*
X48553564Y-26058985D01*
X48553552Y-26058988D01*
X48551012Y-26059408D01*
X48548503Y-26060038D01*
X48548499Y-26060039D01*
X48521747Y-26066758D01*
X48521740Y-26066760D01*
X48519222Y-26067392D01*
X50700000Y-25325000D01*
X50675000Y-23150000D01*
X43775000Y-23150000D01*
X43775000Y-26125000D01*
X45125000Y-26125000D01*
X45125000Y-28125000D01*
X45725000Y-28125000D01*
X45725000Y-26125000D01*
X47498331Y-26125000D01*
X47495087Y-26125338D01*
X47495084Y-26125338D01*
X47460384Y-26128952D01*
X47460381Y-26128952D01*
X47457121Y-26129292D01*
X47453913Y-26129968D01*
X47453910Y-26129968D01*
X47413922Y-26138388D01*
X47413919Y-26138389D01*
X47406311Y-26139991D01*
X47399328Y-26143400D01*
X47399324Y-26143401D01*
X47325560Y-26179407D01*
X47325557Y-26179409D01*
X47318575Y-26182817D01*
X47312635Y-26187827D01*
X47312632Y-26187829D01*
X47265764Y-26227359D01*
X47265756Y-26227366D01*
X47264305Y-26228590D01*
X47246605Y-26245476D01*
X47242102Y-26253279D01*
X47242098Y-26253285D01*
X47218408Y-26294342D01*
X47167038Y-26343348D01*
X47091341Y-26356087D01*
X47053459Y-26350640D01*
X47053444Y-26350639D01*
X47049000Y-26350000D01*
X47009826Y-26350000D01*
X47006422Y-26349833D01*
X47004748Y-26349500D01*
X46365252Y-26349500D01*
X46363578Y-26349833D01*
X46360174Y-26350000D01*
X46299638Y-26350000D01*
X46275445Y-26352534D01*
X46261469Y-26353998D01*
X46261463Y-26353999D01*
X46258188Y-26354342D01*
X46207095Y-26365166D01*
X46198226Y-26367258D01*
X46191314Y-26370845D01*
X46191312Y-26370846D01*
X46125503Y-26405000D01*
X46125501Y-26405001D01*
X46119224Y-26408259D01*
X46065066Y-26454166D01*
X46058756Y-26460215D01*
X46053911Y-26464860D01*
X46053909Y-26464862D01*
X46047407Y-26471096D01*
X46042924Y-26478909D01*
X46042923Y-26478911D01*
X46025009Y-26510136D01*
X46003113Y-26548300D01*
X45982371Y-26616199D01*
X45973657Y-26672456D01*
X45973608Y-26676958D01*
X45973608Y-26676959D01*
X45972080Y-26817556D01*
X45956088Y-28288867D01*
X45953517Y-28525369D01*
X45932775Y-28593269D01*
X45878617Y-28639176D01*
X45827524Y-28650000D01*
X42220808Y-28650000D01*
X42152687Y-28629998D01*
X42117212Y-28595721D01*
X41907666Y-28293043D01*
X41787692Y-28119748D01*
X43644500Y-28119748D01*
X43656133Y-28178231D01*
X43700448Y-28244552D01*
X43766769Y-28288867D01*
X43778938Y-28291288D01*
X43778939Y-28291288D01*
X43819184Y-28299293D01*
X43825252Y-28300500D01*
X44464748Y-28300500D01*
X44470816Y-28299293D01*
X44511061Y-28291288D01*
X44511062Y-28291288D01*
X44523231Y-28288867D01*
X44589552Y-28244552D01*
X44633867Y-28178231D01*
X44645500Y-28119748D01*
X44645500Y-26530252D01*
X44633867Y-26471769D01*
X44589552Y-26405448D01*
X44523231Y-26361133D01*
X44511062Y-26358712D01*
X44511061Y-26358712D01*
X44470816Y-26350707D01*
X44464748Y-26349500D01*
X43825252Y-26349500D01*
X43819184Y-26350707D01*
X43778939Y-26358712D01*
X43778938Y-26358712D01*
X43766769Y-26361133D01*
X43700448Y-26405448D01*
X43656133Y-26471769D01*
X43644500Y-26530252D01*
X43644500Y-28119748D01*
X41787692Y-28119748D01*
X41352016Y-27490438D01*
X41326552Y-27460453D01*
X41322698Y-27456729D01*
X41296550Y-27431463D01*
X41296548Y-27431462D01*
X41291077Y-27426175D01*
X41208449Y-27378103D01*
X41187957Y-27372086D01*
X41144651Y-27359370D01*
X41144647Y-27359369D01*
X41140328Y-27358101D01*
X41135880Y-27357461D01*
X41135873Y-27357460D01*
X41088430Y-27350639D01*
X41088423Y-27350639D01*
X41083982Y-27350000D01*
X38176000Y-27350000D01*
X38172654Y-27350360D01*
X38172648Y-27350360D01*
X38158564Y-27351874D01*
X38133488Y-27354570D01*
X38081146Y-27365956D01*
X38071238Y-27368378D01*
X37992686Y-27410236D01*
X37939030Y-27456729D01*
X37921555Y-27473851D01*
X37878103Y-27551533D01*
X37876109Y-27558325D01*
X37859772Y-27613964D01*
X37858101Y-27619654D01*
X37857461Y-27624102D01*
X37857460Y-27624109D01*
X37852453Y-27658940D01*
X37850000Y-27676000D01*
X37850000Y-30373128D01*
X37854718Y-30416315D01*
X37866468Y-30469446D01*
X37869108Y-30480009D01*
X37872888Y-30486986D01*
X37872889Y-30486989D01*
X37908133Y-30552043D01*
X37911507Y-30558270D01*
X37958369Y-30611604D01*
X37959724Y-30612968D01*
X37969191Y-30622498D01*
X37975610Y-30628960D01*
X38053590Y-30671875D01*
X38081545Y-30679875D01*
X38117526Y-30690171D01*
X38117532Y-30690172D01*
X38121847Y-30691407D01*
X38178248Y-30699120D01*
X38182749Y-30699089D01*
X38182750Y-30699089D01*
X41675218Y-30675003D01*
X41676087Y-30675000D01*
X48063899Y-30675000D01*
X48132020Y-30695002D01*
X48163988Y-30724461D01*
X48678305Y-31397029D01*
X48680133Y-31399033D01*
X48680139Y-31399040D01*
X48689975Y-31409822D01*
X48701645Y-31422614D01*
X48733613Y-31452073D01*
X48812799Y-31496897D01*
X48844288Y-31506143D01*
X48876597Y-31515630D01*
X48876601Y-31515631D01*
X48880920Y-31516899D01*
X48885368Y-31517539D01*
X48885375Y-31517540D01*
X48932818Y-31524361D01*
X48932825Y-31524361D01*
X48937266Y-31525000D01*
X49112127Y-31525000D01*
X49116378Y-31525167D01*
X49118481Y-31525500D01*
X49349953Y-31525500D01*
X49581518Y-31525499D01*
X49583618Y-31525166D01*
X49587859Y-31525000D01*
X50278659Y-31525000D01*
X50307517Y-31520745D01*
X50331813Y-31517164D01*
X50331819Y-31517163D01*
X50336375Y-31516491D01*
X50340792Y-31515160D01*
X50340795Y-31515159D01*
X50394616Y-31498937D01*
X50406003Y-31495505D01*
X50430255Y-31486446D01*
X50446714Y-31474020D01*
X50513129Y-31448938D01*
X50579835Y-31462312D01*
X50674696Y-31510646D01*
X50684485Y-31512196D01*
X50684487Y-31512197D01*
X50703190Y-31515159D01*
X50768481Y-31525500D01*
X50842194Y-31525500D01*
X51114528Y-31525499D01*
X51152834Y-31531464D01*
X51213489Y-31550821D01*
X51261809Y-31566242D01*
X51320623Y-31606008D01*
X51348602Y-31671259D01*
X51349500Y-31686277D01*
X51349500Y-31755290D01*
X51349020Y-31766272D01*
X51345736Y-31803807D01*
X51348590Y-31814456D01*
X51355491Y-31840210D01*
X51357870Y-31850942D01*
X51364412Y-31888045D01*
X51369923Y-31897590D01*
X51371115Y-31900866D01*
X51372592Y-31904034D01*
X51375446Y-31914684D01*
X51381770Y-31923715D01*
X51397055Y-31945544D01*
X51402961Y-31954815D01*
X51410385Y-31967673D01*
X51421806Y-31987455D01*
X51430251Y-31994541D01*
X51450682Y-32011685D01*
X51458785Y-32019111D01*
X53025227Y-33585553D01*
X53059253Y-33647865D01*
X53055040Y-33706767D01*
X53118140Y-33704063D01*
X53176947Y-33737273D01*
X53212595Y-33772921D01*
X53246621Y-33835233D01*
X53249500Y-33862016D01*
X53249500Y-33896331D01*
X53229498Y-33964452D01*
X53175842Y-34010945D01*
X53105568Y-34021049D01*
X53040988Y-33991555D01*
X53011233Y-33953534D01*
X52975585Y-33883571D01*
X52962481Y-33813794D01*
X52972019Y-33790295D01*
X52945121Y-33800327D01*
X52878929Y-33786915D01*
X52781501Y-33737273D01*
X52762419Y-33727550D01*
X52752628Y-33725999D01*
X52752627Y-33725999D01*
X52730581Y-33722507D01*
X52682502Y-33714892D01*
X52656448Y-33707838D01*
X52550486Y-33666525D01*
X52542953Y-33665533D01*
X52542952Y-33665533D01*
X52425260Y-33650039D01*
X52425259Y-33650039D01*
X52421173Y-33649501D01*
X48168675Y-33649501D01*
X48100554Y-33629499D01*
X48054061Y-33575843D01*
X48045096Y-33548084D01*
X48041432Y-33529666D01*
X48038867Y-33516769D01*
X48026351Y-33498037D01*
X48001443Y-33460761D01*
X47994552Y-33450448D01*
X47928231Y-33406133D01*
X47916062Y-33403712D01*
X47916061Y-33403712D01*
X47875816Y-33395707D01*
X47869748Y-33394500D01*
X46830252Y-33394500D01*
X46824184Y-33395707D01*
X46783939Y-33403712D01*
X46783938Y-33403712D01*
X46771769Y-33406133D01*
X46761453Y-33413026D01*
X46749983Y-33417777D01*
X46748445Y-33414063D01*
X46702249Y-33428528D01*
X46651711Y-33413688D01*
X46650017Y-33417777D01*
X46638547Y-33413026D01*
X46628231Y-33406133D01*
X46616062Y-33403712D01*
X46616061Y-33403712D01*
X46575816Y-33395707D01*
X46569748Y-33394500D01*
X45530252Y-33394500D01*
X45524184Y-33395707D01*
X45483939Y-33403712D01*
X45483938Y-33403712D01*
X45471769Y-33406133D01*
X45405448Y-33450448D01*
X45398557Y-33460761D01*
X45373650Y-33498037D01*
X45361133Y-33516769D01*
X45358712Y-33528938D01*
X45358712Y-33528939D01*
X45354650Y-33549363D01*
X45349500Y-33575252D01*
X45349500Y-35114748D01*
X45361133Y-35173231D01*
X45365005Y-35179026D01*
X45372192Y-35245873D01*
X45340412Y-35309360D01*
X45279353Y-35345586D01*
X45248194Y-35349500D01*
X43961662Y-35349500D01*
X43893541Y-35329498D01*
X43872567Y-35312595D01*
X43767406Y-35207434D01*
X43733380Y-35145122D01*
X43730501Y-35118339D01*
X43730501Y-34900684D01*
X43724069Y-34851827D01*
X43703572Y-34807870D01*
X43678726Y-34754589D01*
X43678726Y-34754588D01*
X43674066Y-34744596D01*
X43590405Y-34660935D01*
X43483174Y-34610932D01*
X43434317Y-34604500D01*
X43085685Y-34604500D01*
X43036828Y-34610932D01*
X42929597Y-34660935D01*
X42845936Y-34744596D01*
X42845248Y-34743908D01*
X42797754Y-34781869D01*
X42727134Y-34789177D01*
X42663775Y-34757144D01*
X42655422Y-34747504D01*
X42654066Y-34744596D01*
X42570405Y-34660935D01*
X42463174Y-34610932D01*
X42414317Y-34604500D01*
X42065685Y-34604500D01*
X42016828Y-34610932D01*
X41909597Y-34660935D01*
X41825936Y-34744596D01*
X41824162Y-34748400D01*
X41771989Y-34790101D01*
X41724237Y-34799500D01*
X41644710Y-34799500D01*
X41633728Y-34799020D01*
X41607180Y-34796697D01*
X41607178Y-34796697D01*
X41596193Y-34795736D01*
X41559785Y-34805492D01*
X41549058Y-34807870D01*
X41545699Y-34808462D01*
X41511955Y-34814412D01*
X41502410Y-34819923D01*
X41499134Y-34821115D01*
X41495966Y-34822592D01*
X41485316Y-34825446D01*
X41454456Y-34847055D01*
X41445185Y-34852961D01*
X41430593Y-34861386D01*
X41412545Y-34871806D01*
X41405459Y-34880251D01*
X41388315Y-34900682D01*
X41380889Y-34908785D01*
X37252079Y-39037595D01*
X37189767Y-39071621D01*
X37162984Y-39074500D01*
X32729608Y-39074500D01*
X32661487Y-39054498D01*
X32614994Y-39000842D01*
X32604890Y-38930568D01*
X32617341Y-38891297D01*
X32659719Y-38808126D01*
X32664637Y-38777079D01*
X32679253Y-38684793D01*
X32680804Y-38675000D01*
X32679253Y-38665207D01*
X32679253Y-38665203D01*
X32676093Y-38645253D01*
X32685191Y-38574842D01*
X32730912Y-38520527D01*
X32798740Y-38499554D01*
X32820253Y-38501093D01*
X32840203Y-38504253D01*
X32840207Y-38504253D01*
X32850000Y-38505804D01*
X32859793Y-38504253D01*
X32973335Y-38486270D01*
X32973337Y-38486269D01*
X32983126Y-38484719D01*
X33103220Y-38423528D01*
X33198528Y-38328220D01*
X33259719Y-38208126D01*
X33280804Y-38075000D01*
X33273132Y-38026563D01*
X33261270Y-37951665D01*
X33261269Y-37951663D01*
X33259719Y-37941874D01*
X33198528Y-37821780D01*
X33103220Y-37726472D01*
X32983126Y-37665281D01*
X32973337Y-37663731D01*
X32973335Y-37663730D01*
X32859793Y-37645747D01*
X32850000Y-37644196D01*
X32840207Y-37645747D01*
X32726665Y-37663730D01*
X32726663Y-37663731D01*
X32716874Y-37665281D01*
X32653950Y-37697342D01*
X32605617Y-37721969D01*
X32605616Y-37721970D01*
X32596780Y-37726472D01*
X32596136Y-37727116D01*
X32533979Y-37749294D01*
X32526784Y-37749500D01*
X29898275Y-37749500D01*
X29887293Y-37749020D01*
X29860743Y-37746697D01*
X29860742Y-37746697D01*
X29849758Y-37745736D01*
X29839107Y-37748590D01*
X29839106Y-37748590D01*
X29813356Y-37755489D01*
X29802629Y-37757867D01*
X29776379Y-37762496D01*
X29776374Y-37762498D01*
X29765519Y-37764412D01*
X29755971Y-37769925D01*
X29752695Y-37771117D01*
X29749533Y-37772591D01*
X29738880Y-37775446D01*
X29719735Y-37788852D01*
X29708020Y-37797055D01*
X29698749Y-37802961D01*
X29678298Y-37814769D01*
X29666109Y-37821806D01*
X29648731Y-37842516D01*
X29641879Y-37850682D01*
X29634453Y-37858785D01*
X27096285Y-40396953D01*
X27088181Y-40404380D01*
X27059306Y-40428609D01*
X27053793Y-40438158D01*
X27040461Y-40461249D01*
X27034555Y-40470520D01*
X27012946Y-40501380D01*
X27010092Y-40512030D01*
X27008615Y-40515198D01*
X27007423Y-40518474D01*
X27001912Y-40528019D01*
X26998107Y-40549602D01*
X26995370Y-40565122D01*
X26992992Y-40575849D01*
X26983236Y-40612257D01*
X26984197Y-40623242D01*
X26984197Y-40623244D01*
X26986520Y-40649792D01*
X26987000Y-40660774D01*
X26987000Y-41852005D01*
X26979350Y-41890462D01*
X26977985Y-41892505D01*
X26962000Y-41972867D01*
X26962001Y-42656910D01*
X26962001Y-43249000D01*
X26941999Y-43317121D01*
X26888343Y-43363614D01*
X26836001Y-43375000D01*
X26789000Y-43375000D01*
X26720879Y-43354998D01*
X26674386Y-43301342D01*
X26663000Y-43249000D01*
X26662999Y-41999953D01*
X26665420Y-41975372D01*
X26671718Y-41943709D01*
X26671719Y-41943702D01*
X26671720Y-41943699D01*
X26672725Y-41938650D01*
X26674279Y-41932448D01*
X26675507Y-41929482D01*
X26683157Y-41891025D01*
X26687000Y-41852005D01*
X26687000Y-41762016D01*
X26685854Y-41740640D01*
X26682975Y-41713857D01*
X26659656Y-41639381D01*
X26656690Y-41633949D01*
X26627788Y-41581020D01*
X26627785Y-41581015D01*
X26625630Y-41577069D01*
X26591516Y-41531500D01*
X26467706Y-41407690D01*
X26467275Y-41407277D01*
X26467240Y-41407243D01*
X26464240Y-41404371D01*
X26461413Y-41401664D01*
X26457328Y-41397921D01*
X26435153Y-41371069D01*
X26435145Y-41371056D01*
X26419441Y-41332293D01*
X26418403Y-41327610D01*
X26418396Y-41327578D01*
X26418251Y-41326926D01*
X26417657Y-41324500D01*
X26416339Y-41319110D01*
X26416327Y-41319064D01*
X26416175Y-41318442D01*
X26415998Y-41317781D01*
X26415169Y-41314686D01*
X26411770Y-41295629D01*
X26411747Y-41294889D01*
X26411188Y-41291207D01*
X26411187Y-41291198D01*
X26411037Y-41290213D01*
X26411037Y-41290211D01*
X26410211Y-41284775D01*
X26388013Y-41218952D01*
X26363209Y-41173528D01*
X26356145Y-41160591D01*
X26356142Y-41160586D01*
X26353987Y-41156640D01*
X26351289Y-41153036D01*
X26322572Y-41114676D01*
X26322570Y-41114674D01*
X26319873Y-41111071D01*
X26301346Y-41092544D01*
X26276247Y-41056700D01*
X26261806Y-41025732D01*
X26250000Y-40972481D01*
X26250000Y-39601000D01*
X26245430Y-39558488D01*
X26234044Y-39506146D01*
X26231622Y-39496238D01*
X26189764Y-39417686D01*
X26143271Y-39364030D01*
X26126149Y-39346555D01*
X26048467Y-39303103D01*
X26007098Y-39290956D01*
X25984669Y-39284370D01*
X25984665Y-39284369D01*
X25980346Y-39283101D01*
X25975898Y-39282461D01*
X25975891Y-39282460D01*
X25928448Y-39275639D01*
X25928441Y-39275639D01*
X25924000Y-39275000D01*
X22251000Y-39275000D01*
X22247654Y-39275360D01*
X22247648Y-39275360D01*
X22233564Y-39276874D01*
X22208488Y-39279570D01*
X22156146Y-39290956D01*
X22146238Y-39293378D01*
X22067686Y-39335236D01*
X22014030Y-39381729D01*
X21996555Y-39398851D01*
X21953103Y-39476533D01*
X21933101Y-39544654D01*
X21932461Y-39549102D01*
X21932460Y-39549109D01*
X21927938Y-39580568D01*
X21925000Y-39601000D01*
X21925000Y-44174000D01*
X21929570Y-44216512D01*
X21940956Y-44268854D01*
X21943378Y-44278762D01*
X21985236Y-44357314D01*
X22001557Y-44376149D01*
X22025086Y-44403303D01*
X22031729Y-44410970D01*
X22048851Y-44428445D01*
X22126533Y-44471897D01*
X22159654Y-44481622D01*
X22190331Y-44490630D01*
X22190335Y-44490631D01*
X22194654Y-44491899D01*
X22199102Y-44492539D01*
X22199109Y-44492540D01*
X22246552Y-44499361D01*
X22246559Y-44499361D01*
X22251000Y-44500000D01*
X23836001Y-44500000D01*
X23904122Y-44520002D01*
X23950615Y-44573658D01*
X23962001Y-44625999D01*
X23962001Y-44677132D01*
X23963208Y-44683199D01*
X23963208Y-44683202D01*
X23967444Y-44704499D01*
X23977985Y-44757495D01*
X23984881Y-44767815D01*
X23988595Y-44776782D01*
X23996184Y-44847372D01*
X23988595Y-44873219D01*
X23984882Y-44882184D01*
X23977985Y-44892505D01*
X23975564Y-44904678D01*
X23975563Y-44904680D01*
X23969243Y-44936453D01*
X23962000Y-44972867D01*
X23962001Y-45177132D01*
X23963208Y-45183199D01*
X23963208Y-45183202D01*
X23971016Y-45222458D01*
X23977985Y-45257495D01*
X23984881Y-45267815D01*
X23988595Y-45276782D01*
X23996184Y-45347372D01*
X23988595Y-45373219D01*
X23984882Y-45382184D01*
X23977985Y-45392505D01*
X23975564Y-45404678D01*
X23975563Y-45404680D01*
X23963895Y-45463339D01*
X23962000Y-45472867D01*
X23962001Y-45569669D01*
X23962001Y-45623499D01*
X23941999Y-45691620D01*
X23888344Y-45738113D01*
X23836001Y-45749500D01*
X22457210Y-45749500D01*
X22446228Y-45749020D01*
X22419677Y-45746697D01*
X22419671Y-45746698D01*
X22408693Y-45745737D01*
X22398046Y-45748590D01*
X22372304Y-45755488D01*
X22361569Y-45757868D01*
X22354008Y-45759201D01*
X22324455Y-45764412D01*
X22314907Y-45769924D01*
X22311630Y-45771117D01*
X22308462Y-45772594D01*
X22297816Y-45775447D01*
X22288787Y-45781769D01*
X22266953Y-45797057D01*
X22257685Y-45802961D01*
X22225045Y-45821806D01*
X22217962Y-45830247D01*
X22217961Y-45830248D01*
X22200825Y-45850670D01*
X22193399Y-45858773D01*
X22139701Y-45912471D01*
X22077389Y-45946497D01*
X22006574Y-45941432D01*
X21961511Y-45912471D01*
X21930816Y-45881776D01*
X21915329Y-45874554D01*
X21830724Y-45835102D01*
X21830723Y-45835102D01*
X21821987Y-45831028D01*
X21772401Y-45824500D01*
X21562577Y-45824500D01*
X21352600Y-45824501D01*
X21303013Y-45831028D01*
X21294279Y-45835101D01*
X21294278Y-45835101D01*
X21204177Y-45877116D01*
X21194184Y-45881776D01*
X21109276Y-45966684D01*
X21104617Y-45976676D01*
X21104616Y-45976677D01*
X21081289Y-46026702D01*
X21058528Y-46075513D01*
X21052000Y-46125099D01*
X21052001Y-46234381D01*
X21052001Y-46298010D01*
X21031999Y-46366131D01*
X20978344Y-46412624D01*
X20926001Y-46424011D01*
X19175005Y-46424011D01*
X19106884Y-46404009D01*
X19085910Y-46387106D01*
X19049905Y-46351101D01*
X19015879Y-46288789D01*
X19013000Y-46262006D01*
X19013000Y-45005252D01*
X19007789Y-44979054D01*
X19003788Y-44958939D01*
X19003788Y-44958938D01*
X19001367Y-44946769D01*
X18957052Y-44880448D01*
X18890731Y-44836133D01*
X18878562Y-44833712D01*
X18878561Y-44833712D01*
X18838316Y-44825707D01*
X18832248Y-44824500D01*
X17592752Y-44824500D01*
X17586684Y-44825707D01*
X17546439Y-44833712D01*
X17546438Y-44833712D01*
X17534269Y-44836133D01*
X17467948Y-44880448D01*
X17423633Y-44946769D01*
X17421212Y-44958938D01*
X17421212Y-44958939D01*
X17417211Y-44979054D01*
X17412000Y-45005252D01*
X17412000Y-46444748D01*
X17423633Y-46503231D01*
X17467948Y-46569552D01*
X17534269Y-46613867D01*
X17546438Y-46616288D01*
X17546439Y-46616288D01*
X17586684Y-46624293D01*
X17592752Y-46625500D01*
X18351462Y-46625500D01*
X18419583Y-46645502D01*
X18440557Y-46662405D01*
X18743878Y-46965726D01*
X18751305Y-46973830D01*
X18775534Y-47002705D01*
X18785083Y-47008218D01*
X18808174Y-47021550D01*
X18817445Y-47027456D01*
X18848305Y-47049065D01*
X18858955Y-47051919D01*
X18862123Y-47053396D01*
X18865399Y-47054588D01*
X18874944Y-47060099D01*
X18908688Y-47066049D01*
X18912047Y-47066641D01*
X18922774Y-47069019D01*
X18959182Y-47078775D01*
X18970167Y-47077814D01*
X18970168Y-47077814D01*
X18972798Y-47077584D01*
X18975251Y-47077369D01*
X19044855Y-47091357D01*
X19095848Y-47140756D01*
X19109507Y-47205252D01*
X19112000Y-47205252D01*
X19112000Y-48644748D01*
X19113207Y-48650816D01*
X19118442Y-48677132D01*
X19123633Y-48703231D01*
X19167948Y-48769552D01*
X19234269Y-48813867D01*
X19246438Y-48816288D01*
X19246439Y-48816288D01*
X19286684Y-48824293D01*
X19292752Y-48825500D01*
X20532248Y-48825500D01*
X20538316Y-48824293D01*
X20578561Y-48816288D01*
X20578562Y-48816288D01*
X20590731Y-48813867D01*
X20657052Y-48769552D01*
X20701367Y-48703231D01*
X20706559Y-48677132D01*
X20711793Y-48650816D01*
X20713000Y-48644748D01*
X20713000Y-48187016D01*
X20733002Y-48118895D01*
X20749905Y-48097921D01*
X21053655Y-47794171D01*
X21115967Y-47760145D01*
X21186782Y-47765210D01*
X21196000Y-47769071D01*
X21294275Y-47814898D01*
X21294279Y-47814899D01*
X21303013Y-47818972D01*
X21352599Y-47825500D01*
X21562423Y-47825500D01*
X21772400Y-47825499D01*
X21821987Y-47818972D01*
X21856317Y-47802964D01*
X21920823Y-47772884D01*
X21920824Y-47772883D01*
X21930816Y-47768224D01*
X22003596Y-47695444D01*
X22070811Y-47660453D01*
X22098404Y-47655588D01*
X22107949Y-47650077D01*
X22111225Y-47648885D01*
X22114393Y-47647408D01*
X22125043Y-47644554D01*
X22155903Y-47622945D01*
X22165174Y-47617039D01*
X22179524Y-47608754D01*
X22248519Y-47592016D01*
X22315611Y-47615236D01*
X22354790Y-47660669D01*
X22366272Y-47683202D01*
X22376472Y-47703220D01*
X22471780Y-47798528D01*
X22591874Y-47859719D01*
X22601663Y-47861269D01*
X22601665Y-47861270D01*
X22715207Y-47879253D01*
X22725000Y-47880804D01*
X22734793Y-47879253D01*
X22848335Y-47861270D01*
X22848337Y-47861269D01*
X22858126Y-47859719D01*
X22978220Y-47798528D01*
X23073528Y-47703220D01*
X23116039Y-47619787D01*
X23130218Y-47591960D01*
X23130218Y-47591959D01*
X23134719Y-47583126D01*
X23143844Y-47525512D01*
X23174256Y-47461359D01*
X23179198Y-47456128D01*
X23197921Y-47437405D01*
X23260233Y-47403379D01*
X23287016Y-47400500D01*
X24089505Y-47400500D01*
X24127962Y-47408150D01*
X24130005Y-47409515D01*
X24142174Y-47411936D01*
X24142175Y-47411936D01*
X24194395Y-47422323D01*
X24210367Y-47425500D01*
X24286227Y-47425500D01*
X25483328Y-47425499D01*
X25551449Y-47445501D01*
X25597942Y-47499157D01*
X25609219Y-47546252D01*
X25611178Y-47593253D01*
X25594030Y-47662147D01*
X25542357Y-47710834D01*
X25485287Y-47724500D01*
X24287583Y-47724501D01*
X24210368Y-47724501D01*
X24204302Y-47725708D01*
X24204297Y-47725708D01*
X24142176Y-47738064D01*
X24142175Y-47738064D01*
X24130005Y-47740485D01*
X24127962Y-47741850D01*
X24089506Y-47749500D01*
X23832213Y-47749500D01*
X23821232Y-47749021D01*
X23794670Y-47746697D01*
X23794668Y-47746697D01*
X23783693Y-47745737D01*
X23747283Y-47755492D01*
X23736576Y-47757866D01*
X23699455Y-47764412D01*
X23689911Y-47769922D01*
X23686635Y-47771114D01*
X23683464Y-47772593D01*
X23672816Y-47775446D01*
X23646074Y-47794171D01*
X23641949Y-47797059D01*
X23632679Y-47802964D01*
X23609592Y-47816293D01*
X23609588Y-47816296D01*
X23600045Y-47821806D01*
X23592960Y-47830250D01*
X23575820Y-47850676D01*
X23568394Y-47858779D01*
X22508784Y-48918390D01*
X22500681Y-48925816D01*
X22471806Y-48950045D01*
X22466293Y-48959594D01*
X22452961Y-48982685D01*
X22447055Y-48991956D01*
X22425446Y-49022816D01*
X22422592Y-49033466D01*
X22421115Y-49036634D01*
X22419923Y-49039910D01*
X22414412Y-49049455D01*
X22408462Y-49083199D01*
X22407870Y-49086558D01*
X22405492Y-49097285D01*
X22395736Y-49133693D01*
X22396697Y-49144678D01*
X22396697Y-49144680D01*
X22399020Y-49171228D01*
X22399500Y-49182210D01*
X22399500Y-49587982D01*
X22379498Y-49656103D01*
X22362595Y-49677077D01*
X22133451Y-49906221D01*
X22071139Y-49940247D01*
X22000324Y-49935182D01*
X21955261Y-49906221D01*
X21930816Y-49881776D01*
X21821987Y-49831028D01*
X21772401Y-49824500D01*
X21562577Y-49824500D01*
X21352600Y-49824501D01*
X21303013Y-49831028D01*
X21194184Y-49881776D01*
X21109276Y-49966684D01*
X21104617Y-49976676D01*
X21104616Y-49976677D01*
X21064333Y-50063064D01*
X21058528Y-50075513D01*
X21052000Y-50125099D01*
X21052001Y-50484900D01*
X21058528Y-50534487D01*
X21062601Y-50543221D01*
X21062601Y-50543222D01*
X21100195Y-50623842D01*
X21112000Y-50677092D01*
X21112000Y-51302878D01*
X21111127Y-51317687D01*
X21107136Y-51351408D01*
X21108828Y-51360672D01*
X21108828Y-51360673D01*
X21117672Y-51409099D01*
X21118322Y-51413002D01*
X21120424Y-51426979D01*
X21127051Y-51471060D01*
X21130179Y-51477573D01*
X21131475Y-51484671D01*
X21158525Y-51536745D01*
X21160268Y-51540235D01*
X21185691Y-51593177D01*
X21190577Y-51598463D01*
X21190610Y-51598511D01*
X21193921Y-51604886D01*
X21198225Y-51609926D01*
X21235452Y-51647153D01*
X21238881Y-51650718D01*
X21277646Y-51692654D01*
X21284005Y-51696347D01*
X21290163Y-51701864D01*
X23408491Y-53820192D01*
X23442517Y-53882504D01*
X23445396Y-53909287D01*
X23445396Y-53916812D01*
X23444318Y-53925000D01*
X23464956Y-54081762D01*
X23525464Y-54227841D01*
X23621718Y-54353282D01*
X23747159Y-54449536D01*
X23893238Y-54510044D01*
X24028991Y-54527916D01*
X24093918Y-54556638D01*
X24101640Y-54563743D01*
X25437595Y-55899698D01*
X25471621Y-55962010D01*
X25474500Y-55988793D01*
X25474500Y-59315780D01*
X25473627Y-59330589D01*
X25469636Y-59364310D01*
X25471328Y-59373574D01*
X25471328Y-59373575D01*
X25480172Y-59422001D01*
X25480822Y-59425904D01*
X25485975Y-59460174D01*
X25489551Y-59483962D01*
X25492679Y-59490475D01*
X25493975Y-59497573D01*
X25521025Y-59549647D01*
X25522768Y-59553137D01*
X25548191Y-59606079D01*
X25553077Y-59611365D01*
X25553110Y-59611413D01*
X25556421Y-59617788D01*
X25560725Y-59622828D01*
X25597952Y-59660055D01*
X25601381Y-59663620D01*
X25640146Y-59705556D01*
X25646505Y-59709249D01*
X25652663Y-59714766D01*
X25682247Y-59744350D01*
X25692101Y-59755439D01*
X25707293Y-59774709D01*
X25713128Y-59782110D01*
X25720875Y-59787465D01*
X25720877Y-59787466D01*
X25761375Y-59815455D01*
X25764597Y-59817757D01*
X25797361Y-59841957D01*
X25811816Y-59852634D01*
X25818632Y-59855027D01*
X25824569Y-59859131D01*
X25833549Y-59861971D01*
X25833551Y-59861972D01*
X25853717Y-59868350D01*
X25880519Y-59876826D01*
X25884250Y-59878071D01*
X25930737Y-59894396D01*
X25930739Y-59894396D01*
X25939631Y-59897519D01*
X25946819Y-59897801D01*
X25946878Y-59897812D01*
X25953730Y-59899980D01*
X25960337Y-59900500D01*
X26013016Y-59900500D01*
X26017962Y-59900597D01*
X26074994Y-59902838D01*
X26082100Y-59900954D01*
X26090344Y-59900500D01*
X26378833Y-59900500D01*
X26432962Y-59917570D01*
X26434596Y-59914065D01*
X26497179Y-59943248D01*
X26541827Y-59964068D01*
X26590684Y-59970500D01*
X26939316Y-59970500D01*
X26988173Y-59964068D01*
X27032822Y-59943248D01*
X27085411Y-59918725D01*
X27085412Y-59918725D01*
X27095404Y-59914065D01*
X27179065Y-59830404D01*
X27179753Y-59831092D01*
X27227247Y-59793131D01*
X27297867Y-59785823D01*
X27361226Y-59817856D01*
X27369579Y-59827496D01*
X27370935Y-59830404D01*
X27454596Y-59914065D01*
X27464588Y-59918725D01*
X27464589Y-59918725D01*
X27517179Y-59943248D01*
X27561827Y-59964068D01*
X27610684Y-59970500D01*
X27792983Y-59970500D01*
X27861104Y-59990502D01*
X27882079Y-60007405D01*
X28590901Y-60716228D01*
X28598327Y-60724331D01*
X28622545Y-60753194D01*
X28632088Y-60758704D01*
X28632092Y-60758707D01*
X28655179Y-60772036D01*
X28664448Y-60777940D01*
X28695316Y-60799554D01*
X28705964Y-60802407D01*
X28709135Y-60803886D01*
X28712411Y-60805078D01*
X28721955Y-60810588D01*
X28759076Y-60817134D01*
X28769783Y-60819508D01*
X28806193Y-60829263D01*
X28817168Y-60828303D01*
X28817170Y-60828303D01*
X28843731Y-60825979D01*
X28854712Y-60825500D01*
X33280290Y-60825500D01*
X33291272Y-60825980D01*
X33317820Y-60828303D01*
X33317822Y-60828303D01*
X33328807Y-60829264D01*
X33365215Y-60819508D01*
X33375942Y-60817130D01*
X33379301Y-60816538D01*
X33413045Y-60810588D01*
X33422590Y-60805077D01*
X33425866Y-60803885D01*
X33429034Y-60802408D01*
X33439684Y-60799554D01*
X33470550Y-60777941D01*
X33479815Y-60772039D01*
X33502906Y-60758707D01*
X33512455Y-60753194D01*
X33536685Y-60724317D01*
X33544111Y-60716215D01*
X34974421Y-59285905D01*
X35036733Y-59251879D01*
X35063516Y-59249000D01*
X36673500Y-59249000D01*
X36741621Y-59269002D01*
X36788114Y-59322658D01*
X36799500Y-59375000D01*
X36799500Y-59943248D01*
X36800707Y-59949316D01*
X36803892Y-59965326D01*
X36811133Y-60001731D01*
X36855448Y-60068052D01*
X36921769Y-60112367D01*
X36933938Y-60114788D01*
X36933939Y-60114788D01*
X36974184Y-60122793D01*
X36980252Y-60124000D01*
X39019748Y-60124000D01*
X39025816Y-60122793D01*
X39066061Y-60114788D01*
X39066062Y-60114788D01*
X39078231Y-60112367D01*
X39144552Y-60068052D01*
X39188867Y-60001731D01*
X39196109Y-59965326D01*
X39199293Y-59949316D01*
X39200500Y-59943248D01*
X39200500Y-57903752D01*
X39188867Y-57845269D01*
X39144552Y-57778948D01*
X39078231Y-57734633D01*
X39066062Y-57732212D01*
X39066061Y-57732212D01*
X39025816Y-57724207D01*
X39019748Y-57723000D01*
X36980252Y-57723000D01*
X36974184Y-57724207D01*
X36933939Y-57732212D01*
X36933938Y-57732212D01*
X36921769Y-57734633D01*
X36855448Y-57778948D01*
X36811133Y-57845269D01*
X36799500Y-57903752D01*
X36799500Y-58472000D01*
X36779498Y-58540121D01*
X36725842Y-58586614D01*
X36673500Y-58598000D01*
X34896210Y-58598000D01*
X34885228Y-58597520D01*
X34858680Y-58595197D01*
X34858678Y-58595197D01*
X34847693Y-58594236D01*
X34811285Y-58603992D01*
X34800558Y-58606370D01*
X34797199Y-58606962D01*
X34763455Y-58612912D01*
X34753910Y-58618423D01*
X34750634Y-58619615D01*
X34747466Y-58621092D01*
X34736816Y-58623946D01*
X34727785Y-58630270D01*
X34705956Y-58645555D01*
X34696685Y-58651461D01*
X34673594Y-58664793D01*
X34664045Y-58670306D01*
X34656959Y-58678751D01*
X34639815Y-58699182D01*
X34632389Y-58707285D01*
X33202079Y-60137595D01*
X33139767Y-60171621D01*
X33112984Y-60174500D01*
X31303256Y-60174500D01*
X31235135Y-60154498D01*
X31188642Y-60100842D01*
X31178538Y-60030568D01*
X31184765Y-60007870D01*
X31188867Y-60001731D01*
X31200500Y-59943248D01*
X31200500Y-57903752D01*
X31188867Y-57845269D01*
X31144552Y-57778948D01*
X31078231Y-57734633D01*
X31066062Y-57732212D01*
X31066061Y-57732212D01*
X31025816Y-57724207D01*
X31019748Y-57723000D01*
X28980252Y-57723000D01*
X28974184Y-57724207D01*
X28933939Y-57732212D01*
X28933938Y-57732212D01*
X28921769Y-57734633D01*
X28855448Y-57778948D01*
X28848557Y-57789261D01*
X28812313Y-57843503D01*
X28757835Y-57889030D01*
X28707548Y-57899500D01*
X28201500Y-57899500D01*
X28133379Y-57879498D01*
X28086886Y-57825842D01*
X28075500Y-57773500D01*
X28075500Y-56519713D01*
X28075979Y-56508732D01*
X28078303Y-56482170D01*
X28078303Y-56482168D01*
X28079263Y-56471193D01*
X28069508Y-56434783D01*
X28067132Y-56424065D01*
X28064964Y-56411766D01*
X28072837Y-56341208D01*
X28117607Y-56286106D01*
X28185060Y-56263956D01*
X28234737Y-56274147D01*
X28235316Y-56274553D01*
X28245963Y-56277406D01*
X28249134Y-56278885D01*
X28252409Y-56280077D01*
X28261955Y-56285588D01*
X28291508Y-56290799D01*
X28299069Y-56292132D01*
X28309803Y-56294512D01*
X28346193Y-56304263D01*
X28357169Y-56303303D01*
X28357172Y-56303303D01*
X28383731Y-56300979D01*
X28394712Y-56300500D01*
X48201725Y-56300500D01*
X48212707Y-56300980D01*
X48239255Y-56303303D01*
X48239257Y-56303303D01*
X48250242Y-56304264D01*
X48286650Y-56294508D01*
X48297377Y-56292130D01*
X48300736Y-56291538D01*
X48334480Y-56285588D01*
X48344025Y-56280077D01*
X48347301Y-56278885D01*
X48350469Y-56277408D01*
X48361119Y-56274554D01*
X48391979Y-56252945D01*
X48401250Y-56247039D01*
X48424341Y-56233707D01*
X48433890Y-56228194D01*
X48458120Y-56199317D01*
X48465546Y-56191215D01*
X49335530Y-55321231D01*
X49397842Y-55287205D01*
X49468657Y-55292270D01*
X49505875Y-55316435D01*
X49506465Y-55315662D01*
X49577218Y-55369666D01*
X49641824Y-55399104D01*
X49669145Y-55407100D01*
X49692145Y-55413832D01*
X49692150Y-55413833D01*
X49696465Y-55415096D01*
X49700919Y-55415732D01*
X49700922Y-55415733D01*
X49705298Y-55416358D01*
X49705312Y-55416361D01*
X49708265Y-55416783D01*
X49709297Y-55416895D01*
X49709305Y-55416896D01*
X49711830Y-55417170D01*
X49721701Y-55418241D01*
X49722699Y-55418315D01*
X49722717Y-55418317D01*
X49737617Y-55419427D01*
X49737634Y-55419428D01*
X49738668Y-55419505D01*
X49748758Y-55419914D01*
X49751063Y-55420008D01*
X49751070Y-55420008D01*
X49752175Y-55420053D01*
X50704616Y-55426488D01*
X51215615Y-55429941D01*
X51215632Y-55429941D01*
X51216539Y-55429947D01*
X51227808Y-55429706D01*
X51241987Y-55429002D01*
X51253226Y-55428126D01*
X51254053Y-55428038D01*
X51254075Y-55428036D01*
X51339612Y-55418936D01*
X51375708Y-55415096D01*
X52173458Y-55330229D01*
X52175028Y-55329981D01*
X52175045Y-55329979D01*
X52184580Y-55328474D01*
X52193407Y-55327081D01*
X52218272Y-55321859D01*
X52237807Y-55316714D01*
X52435263Y-55253887D01*
X52541582Y-55220058D01*
X52544042Y-55219038D01*
X52544054Y-55219034D01*
X52570420Y-55208106D01*
X52570429Y-55208102D01*
X52572904Y-55207076D01*
X52575277Y-55205847D01*
X52575284Y-55205844D01*
X52593544Y-55196388D01*
X52610704Y-55187503D01*
X52639381Y-55169418D01*
X52641501Y-55167815D01*
X52641515Y-55167805D01*
X52702236Y-55121883D01*
X52713533Y-55114263D01*
X52976446Y-54956912D01*
X52976463Y-54956902D01*
X52999286Y-54943243D01*
X53011340Y-54936888D01*
X53204452Y-54848066D01*
X53313889Y-54797731D01*
X53326543Y-54792720D01*
X53642373Y-54687044D01*
X53655510Y-54683426D01*
X53766136Y-54659306D01*
X53808455Y-54650079D01*
X53808473Y-54650075D01*
X53809971Y-54649748D01*
X53811458Y-54649347D01*
X53827340Y-54645063D01*
X53827354Y-54645059D01*
X53828814Y-54644665D01*
X53852186Y-54637119D01*
X53860131Y-54634118D01*
X53868978Y-54630777D01*
X53868993Y-54630771D01*
X53870441Y-54630224D01*
X53880774Y-54625734D01*
X54940820Y-54165119D01*
X54940831Y-54165114D01*
X54941211Y-54164949D01*
X54946742Y-54162446D01*
X54947222Y-54162220D01*
X54953168Y-54159419D01*
X54953203Y-54159402D01*
X54953647Y-54159193D01*
X54959077Y-54156534D01*
X57033417Y-53101543D01*
X57855941Y-52683215D01*
X57855948Y-52683211D01*
X57857028Y-52682662D01*
X57870427Y-52675187D01*
X57886923Y-52665136D01*
X57899719Y-52656649D01*
X57900706Y-52655938D01*
X57900721Y-52655928D01*
X58050378Y-52548175D01*
X58117347Y-52524604D01*
X58186429Y-52540981D01*
X58235690Y-52592107D01*
X58250000Y-52650428D01*
X58250000Y-59787083D01*
X58248500Y-59806467D01*
X58246727Y-59817856D01*
X58244896Y-59829615D01*
X58246830Y-59844405D01*
X58247573Y-59869726D01*
X58242757Y-59937061D01*
X58235375Y-60040268D01*
X58232817Y-60058062D01*
X58191156Y-60249579D01*
X58186090Y-60266829D01*
X58117595Y-60450468D01*
X58110128Y-60466820D01*
X58016199Y-60638840D01*
X58006479Y-60653964D01*
X57889023Y-60810866D01*
X57877250Y-60824452D01*
X57738666Y-60963036D01*
X57725080Y-60974809D01*
X57568178Y-61092265D01*
X57553054Y-61101985D01*
X57381034Y-61195914D01*
X57364682Y-61203381D01*
X57181043Y-61271876D01*
X57163798Y-61276940D01*
X56993292Y-61314031D01*
X56972276Y-61318603D01*
X56954482Y-61321161D01*
X56937935Y-61322344D01*
X56790941Y-61332858D01*
X56774018Y-61332154D01*
X56774018Y-61332173D01*
X56765042Y-61332063D01*
X56756171Y-61330682D01*
X56747269Y-61331846D01*
X56747266Y-61331846D01*
X56725275Y-61334722D01*
X56708938Y-61335786D01*
X18462917Y-61335786D01*
X18443533Y-61334286D01*
X18429258Y-61332063D01*
X18429255Y-61332063D01*
X18420385Y-61330682D01*
X18405595Y-61332616D01*
X18380274Y-61333359D01*
X18237939Y-61323179D01*
X18209732Y-61321161D01*
X18191938Y-61318603D01*
X18170922Y-61314031D01*
X18000416Y-61276940D01*
X17983171Y-61271876D01*
X17799532Y-61203381D01*
X17783180Y-61195914D01*
X17611160Y-61101985D01*
X17596036Y-61092265D01*
X17439134Y-60974809D01*
X17425548Y-60963036D01*
X17286964Y-60824452D01*
X17275191Y-60810866D01*
X17157735Y-60653964D01*
X17148015Y-60638840D01*
X17054086Y-60466820D01*
X17046619Y-60450468D01*
X16978124Y-60266829D01*
X16973058Y-60249579D01*
X16931397Y-60058062D01*
X16928839Y-60040268D01*
X16927656Y-60023721D01*
X16917142Y-59876727D01*
X16917846Y-59859804D01*
X16917827Y-59859804D01*
X16917936Y-59850831D01*
X16919318Y-59841957D01*
X16915364Y-59811721D01*
X16914302Y-59795127D01*
X16974560Y-31462500D01*
X18957278Y-31462500D01*
X18957548Y-31466619D01*
X18960886Y-31517540D01*
X18976144Y-31750339D01*
X18976948Y-31754379D01*
X18976948Y-31754382D01*
X19031526Y-32028762D01*
X19032419Y-32033253D01*
X19033745Y-32037159D01*
X19033746Y-32037163D01*
X19085436Y-32189436D01*
X19125141Y-32306402D01*
X19252722Y-32565111D01*
X19412980Y-32804954D01*
X19415694Y-32808048D01*
X19415698Y-32808054D01*
X19600464Y-33018738D01*
X19603173Y-33021827D01*
X19606262Y-33024536D01*
X19816946Y-33209302D01*
X19816952Y-33209306D01*
X19820046Y-33212020D01*
X19823472Y-33214309D01*
X19823477Y-33214313D01*
X19943758Y-33294682D01*
X20059889Y-33372278D01*
X20063588Y-33374102D01*
X20063593Y-33374105D01*
X20309120Y-33495185D01*
X20318598Y-33499859D01*
X20322496Y-33501182D01*
X20322498Y-33501183D01*
X20587837Y-33591254D01*
X20587841Y-33591255D01*
X20591747Y-33592581D01*
X20595791Y-33593385D01*
X20595797Y-33593387D01*
X20870618Y-33648052D01*
X20870621Y-33648052D01*
X20874661Y-33648856D01*
X20878772Y-33649125D01*
X20878776Y-33649126D01*
X21158381Y-33667452D01*
X21162500Y-33667722D01*
X21166619Y-33667452D01*
X21446224Y-33649126D01*
X21446228Y-33649125D01*
X21450339Y-33648856D01*
X21454379Y-33648052D01*
X21454382Y-33648052D01*
X21729203Y-33593387D01*
X21729209Y-33593385D01*
X21733253Y-33592581D01*
X21737159Y-33591255D01*
X21737163Y-33591254D01*
X22002502Y-33501183D01*
X22002504Y-33501182D01*
X22006402Y-33499859D01*
X22015880Y-33495185D01*
X22261407Y-33374105D01*
X22261412Y-33374102D01*
X22265111Y-33372278D01*
X22381242Y-33294682D01*
X22501523Y-33214313D01*
X22501528Y-33214309D01*
X22504954Y-33212020D01*
X22508048Y-33209306D01*
X22508054Y-33209302D01*
X22718738Y-33024536D01*
X22721827Y-33021827D01*
X22724536Y-33018738D01*
X22909302Y-32808054D01*
X22909306Y-32808048D01*
X22912020Y-32804954D01*
X23072278Y-32565111D01*
X23199859Y-32306402D01*
X23239564Y-32189436D01*
X23291254Y-32037163D01*
X23291255Y-32037159D01*
X23292581Y-32033253D01*
X23293475Y-32028762D01*
X23314955Y-31920773D01*
X26001270Y-31920773D01*
X26005623Y-31964298D01*
X26017003Y-32017887D01*
X26019632Y-32028762D01*
X26061490Y-32107314D01*
X26107983Y-32160970D01*
X26125105Y-32178445D01*
X26202787Y-32221897D01*
X26236252Y-32231723D01*
X26266585Y-32240630D01*
X26266589Y-32240631D01*
X26270908Y-32241899D01*
X26275356Y-32242539D01*
X26275363Y-32242540D01*
X26322806Y-32249361D01*
X26322813Y-32249361D01*
X26327254Y-32250000D01*
X30922262Y-32250000D01*
X30933788Y-32249361D01*
X30942650Y-32248870D01*
X30942661Y-32248869D01*
X30944376Y-32248774D01*
X30946092Y-32248583D01*
X30946105Y-32248582D01*
X30965853Y-32246385D01*
X30965856Y-32246384D01*
X30972070Y-32245693D01*
X30987930Y-32240630D01*
X31041149Y-32223641D01*
X31041152Y-32223640D01*
X31047103Y-32221740D01*
X31073911Y-32206843D01*
X31105236Y-32189436D01*
X31105239Y-32189434D01*
X31109162Y-32187254D01*
X31112730Y-32184541D01*
X31112737Y-32184537D01*
X31150898Y-32155527D01*
X31150904Y-32155522D01*
X31154479Y-32152804D01*
X31336888Y-31967673D01*
X31762027Y-31536188D01*
X32696698Y-30587566D01*
X32758755Y-30553081D01*
X32786450Y-30550000D01*
X36647900Y-30550000D01*
X36651306Y-30549626D01*
X36651313Y-30549626D01*
X36687848Y-30545618D01*
X36687855Y-30545617D01*
X36691263Y-30545243D01*
X36694616Y-30544498D01*
X36694618Y-30544498D01*
X36708656Y-30541380D01*
X36744600Y-30533397D01*
X36745402Y-30533195D01*
X36745425Y-30533190D01*
X36746728Y-30532862D01*
X36755335Y-30530699D01*
X36833519Y-30488158D01*
X36886768Y-30441200D01*
X36890386Y-30437593D01*
X36897712Y-30430290D01*
X36897714Y-30430288D01*
X36904093Y-30423928D01*
X36946867Y-30345872D01*
X36966276Y-30277580D01*
X36973887Y-30221165D01*
X36973611Y-30189354D01*
X36969117Y-29672567D01*
X36969117Y-29672537D01*
X36969102Y-29670764D01*
X36978687Y-29621482D01*
X36981973Y-29613549D01*
X36988867Y-29603231D01*
X37000500Y-29544748D01*
X37000500Y-27705252D01*
X36988867Y-27646769D01*
X36966945Y-27613961D01*
X36948241Y-27562926D01*
X36947251Y-27563092D01*
X36946703Y-27559825D01*
X36946329Y-27556543D01*
X36945217Y-27551533D01*
X36935109Y-27506023D01*
X36934948Y-27505297D01*
X36932713Y-27496238D01*
X36890855Y-27417686D01*
X36881520Y-27406912D01*
X36851343Y-27372086D01*
X36844362Y-27364030D01*
X36827240Y-27346555D01*
X36749558Y-27303103D01*
X36716093Y-27293277D01*
X36685760Y-27284370D01*
X36685756Y-27284369D01*
X36681437Y-27283101D01*
X36676989Y-27282461D01*
X36676982Y-27282460D01*
X36629539Y-27275639D01*
X36629532Y-27275639D01*
X36625091Y-27275000D01*
X31150442Y-27275000D01*
X31148957Y-27275071D01*
X31148947Y-27275071D01*
X31135760Y-27275700D01*
X31131430Y-27275906D01*
X31117204Y-27277264D01*
X31113563Y-27277612D01*
X31113561Y-27277612D01*
X31107585Y-27278183D01*
X31034953Y-27299509D01*
X31029625Y-27302256D01*
X30975844Y-27329981D01*
X30975839Y-27329984D01*
X30971849Y-27332041D01*
X30968188Y-27334648D01*
X30968183Y-27334651D01*
X30929148Y-27362447D01*
X30929142Y-27362452D01*
X30925478Y-27365061D01*
X30922220Y-27368168D01*
X30922217Y-27368170D01*
X28906439Y-29290191D01*
X28843335Y-29322723D01*
X28819490Y-29325000D01*
X27869009Y-29325000D01*
X27865028Y-29325511D01*
X27865026Y-29325511D01*
X27851843Y-29327203D01*
X27818513Y-29331480D01*
X27814629Y-29332493D01*
X27814621Y-29332495D01*
X27760831Y-29346531D01*
X27760827Y-29346532D01*
X27756946Y-29347545D01*
X27709718Y-29366566D01*
X27706210Y-29368531D01*
X27706207Y-29368532D01*
X27665443Y-29391361D01*
X27644380Y-29400739D01*
X27509576Y-29446499D01*
X27487163Y-29451880D01*
X27402934Y-29464092D01*
X27346287Y-29472305D01*
X27323272Y-29473512D01*
X27257019Y-29470908D01*
X27233040Y-29469966D01*
X27233033Y-29469966D01*
X27213025Y-29469180D01*
X27181021Y-29467923D01*
X27158159Y-29464913D01*
X27048496Y-29440099D01*
X27019326Y-29433498D01*
X26997398Y-29426373D01*
X26931532Y-29398075D01*
X26845158Y-29360966D01*
X26845153Y-29360965D01*
X26844402Y-29360642D01*
X26844390Y-29360636D01*
X26839088Y-29358358D01*
X26838730Y-29359191D01*
X26830035Y-29356789D01*
X26806318Y-29346231D01*
X26801122Y-29344911D01*
X26801118Y-29344910D01*
X26750744Y-29332116D01*
X26750735Y-29332114D01*
X26746954Y-29331154D01*
X26722338Y-29328077D01*
X26701603Y-29325485D01*
X26701601Y-29325485D01*
X26697722Y-29325000D01*
X26349759Y-29325000D01*
X26308213Y-29329363D01*
X26257008Y-29340237D01*
X26256287Y-29340408D01*
X26256258Y-29340414D01*
X26255650Y-29340558D01*
X26255649Y-29340558D01*
X26248047Y-29342356D01*
X26169085Y-29383435D01*
X26163690Y-29388017D01*
X26119980Y-29425141D01*
X26114972Y-29429394D01*
X26113600Y-29430712D01*
X26113591Y-29430720D01*
X26113359Y-29430943D01*
X26097329Y-29446341D01*
X26053110Y-29523589D01*
X26032434Y-29591509D01*
X26023775Y-29647773D01*
X26023731Y-29652267D01*
X26023730Y-29652273D01*
X26001594Y-31888045D01*
X26001270Y-31920773D01*
X23314955Y-31920773D01*
X23348052Y-31754382D01*
X23348052Y-31754379D01*
X23348856Y-31750339D01*
X23364115Y-31517540D01*
X23367452Y-31466619D01*
X23367722Y-31462500D01*
X23348856Y-31174661D01*
X23301869Y-30938441D01*
X23293387Y-30895797D01*
X23293385Y-30895791D01*
X23292581Y-30891747D01*
X23224575Y-30691407D01*
X23201183Y-30622498D01*
X23201182Y-30622496D01*
X23199859Y-30618598D01*
X23165846Y-30549626D01*
X23074105Y-30363593D01*
X23074102Y-30363588D01*
X23072278Y-30359889D01*
X22996815Y-30246950D01*
X22914313Y-30123477D01*
X22914309Y-30123472D01*
X22912020Y-30120046D01*
X22909306Y-30116952D01*
X22909302Y-30116946D01*
X22724536Y-29906262D01*
X22721827Y-29903173D01*
X22626421Y-29819504D01*
X22508054Y-29715698D01*
X22508048Y-29715694D01*
X22504954Y-29712980D01*
X22501528Y-29710691D01*
X22501523Y-29710687D01*
X22268544Y-29555016D01*
X22265111Y-29552722D01*
X22261412Y-29550898D01*
X22261407Y-29550895D01*
X22010097Y-29426963D01*
X22010095Y-29426962D01*
X22006402Y-29425141D01*
X22002502Y-29423817D01*
X21737163Y-29333746D01*
X21737159Y-29333745D01*
X21733253Y-29332419D01*
X21729209Y-29331615D01*
X21729203Y-29331613D01*
X21454382Y-29276948D01*
X21454379Y-29276948D01*
X21450339Y-29276144D01*
X21446228Y-29275875D01*
X21446224Y-29275874D01*
X21166619Y-29257548D01*
X21162500Y-29257278D01*
X21158381Y-29257548D01*
X20878776Y-29275874D01*
X20878772Y-29275875D01*
X20874661Y-29276144D01*
X20870621Y-29276948D01*
X20870618Y-29276948D01*
X20595797Y-29331613D01*
X20595791Y-29331615D01*
X20591747Y-29332419D01*
X20587841Y-29333745D01*
X20587837Y-29333746D01*
X20322498Y-29423817D01*
X20318598Y-29425141D01*
X20314905Y-29426962D01*
X20314903Y-29426963D01*
X20063593Y-29550895D01*
X20063588Y-29550898D01*
X20059889Y-29552722D01*
X20056456Y-29555016D01*
X19823477Y-29710687D01*
X19823472Y-29710691D01*
X19820046Y-29712980D01*
X19816952Y-29715694D01*
X19816946Y-29715698D01*
X19698579Y-29819504D01*
X19603173Y-29903173D01*
X19600464Y-29906262D01*
X19415698Y-30116946D01*
X19415694Y-30116952D01*
X19412980Y-30120046D01*
X19410691Y-30123472D01*
X19410687Y-30123477D01*
X19328185Y-30246950D01*
X19252722Y-30359889D01*
X19250898Y-30363588D01*
X19250895Y-30363593D01*
X19159154Y-30549626D01*
X19125141Y-30618598D01*
X19123818Y-30622496D01*
X19123817Y-30622498D01*
X19100426Y-30691407D01*
X19032419Y-30891747D01*
X19031615Y-30895791D01*
X19031613Y-30895797D01*
X19023131Y-30938441D01*
X18976144Y-31174661D01*
X18957278Y-31462500D01*
X16974560Y-31462500D01*
X16985415Y-26358569D01*
X26182664Y-26358569D01*
X26195892Y-26560394D01*
X26245678Y-26756428D01*
X26330356Y-26940107D01*
X26447088Y-27105280D01*
X26591966Y-27246413D01*
X26596770Y-27249623D01*
X26635999Y-27275835D01*
X26760137Y-27358782D01*
X26765440Y-27361060D01*
X26765443Y-27361062D01*
X26916999Y-27426175D01*
X26945970Y-27438622D01*
X27050072Y-27462178D01*
X27136408Y-27481714D01*
X27143240Y-27483260D01*
X27149009Y-27483487D01*
X27149012Y-27483487D01*
X27225183Y-27486479D01*
X27345342Y-27491200D01*
X27431632Y-27478689D01*
X27539786Y-27463008D01*
X27539791Y-27463007D01*
X27545507Y-27462178D01*
X27550979Y-27460320D01*
X27550981Y-27460320D01*
X27731567Y-27399019D01*
X27731569Y-27399018D01*
X27737031Y-27397164D01*
X27913501Y-27298337D01*
X27975933Y-27246413D01*
X28064573Y-27172691D01*
X28069005Y-27169005D01*
X28198337Y-27013501D01*
X28239439Y-26940107D01*
X28260537Y-26902434D01*
X28311274Y-26852772D01*
X28370472Y-26838000D01*
X29153280Y-26838000D01*
X29168089Y-26838873D01*
X29201810Y-26842864D01*
X29211074Y-26841172D01*
X29211075Y-26841172D01*
X29259501Y-26832328D01*
X29263404Y-26831678D01*
X29312145Y-26824350D01*
X29312146Y-26824350D01*
X29321462Y-26822949D01*
X29327975Y-26819821D01*
X29335073Y-26818525D01*
X29387147Y-26791475D01*
X29390637Y-26789732D01*
X29443579Y-26764309D01*
X29448865Y-26759423D01*
X29448913Y-26759390D01*
X29455288Y-26756079D01*
X29460328Y-26751775D01*
X29497555Y-26714548D01*
X29501121Y-26711118D01*
X29536141Y-26678746D01*
X29543056Y-26672354D01*
X29546749Y-26665995D01*
X29552266Y-26659837D01*
X30498885Y-25713218D01*
X39349500Y-25713218D01*
X39359642Y-25782112D01*
X39363958Y-25790902D01*
X39405109Y-25874717D01*
X39411068Y-25886855D01*
X39493650Y-25969293D01*
X39598482Y-26020536D01*
X39628973Y-26024984D01*
X39662256Y-26029840D01*
X39662260Y-26029840D01*
X39666782Y-26030500D01*
X41383218Y-26030500D01*
X41387768Y-26029830D01*
X41387771Y-26029830D01*
X41442426Y-26021784D01*
X41442427Y-26021784D01*
X41452112Y-26020358D01*
X41546804Y-25973867D01*
X41547507Y-25973522D01*
X41547509Y-25973521D01*
X41556855Y-25968932D01*
X41591605Y-25934121D01*
X41633172Y-25892482D01*
X41695455Y-25858403D01*
X41722345Y-25855500D01*
X42033666Y-25855500D01*
X42096557Y-25873966D01*
X42096780Y-25873528D01*
X42216874Y-25934719D01*
X42226663Y-25936269D01*
X42226665Y-25936270D01*
X42340207Y-25954253D01*
X42350000Y-25955804D01*
X42359793Y-25954253D01*
X42473335Y-25936270D01*
X42473337Y-25936269D01*
X42483126Y-25934719D01*
X42603220Y-25873528D01*
X42698528Y-25778220D01*
X42759719Y-25658126D01*
X42761949Y-25644051D01*
X42779253Y-25534793D01*
X42780804Y-25525000D01*
X42776822Y-25499859D01*
X42761270Y-25401665D01*
X42761269Y-25401663D01*
X42759719Y-25391874D01*
X42698528Y-25271780D01*
X42603220Y-25176472D01*
X42483126Y-25115281D01*
X42473337Y-25113731D01*
X42473335Y-25113730D01*
X42359793Y-25095747D01*
X42350000Y-25094196D01*
X42340207Y-25095747D01*
X42226665Y-25113730D01*
X42226663Y-25113731D01*
X42216874Y-25115281D01*
X42096780Y-25176472D01*
X42092181Y-25181071D01*
X42027100Y-25204294D01*
X42019903Y-25204500D01*
X41722468Y-25204500D01*
X41654347Y-25184498D01*
X41633450Y-25167673D01*
X41563721Y-25098065D01*
X41563720Y-25098065D01*
X41556350Y-25090707D01*
X41451518Y-25039464D01*
X41421027Y-25035016D01*
X41387744Y-25030160D01*
X41387740Y-25030160D01*
X41383218Y-25029500D01*
X39666782Y-25029500D01*
X39662232Y-25030170D01*
X39662229Y-25030170D01*
X39607574Y-25038216D01*
X39607573Y-25038216D01*
X39597888Y-25039642D01*
X39550152Y-25063079D01*
X39502493Y-25086478D01*
X39502491Y-25086479D01*
X39493145Y-25091068D01*
X39410707Y-25173650D01*
X39406134Y-25183006D01*
X39406133Y-25183007D01*
X39405676Y-25183942D01*
X39359464Y-25278482D01*
X39349500Y-25346782D01*
X39349500Y-25713218D01*
X30498885Y-25713218D01*
X31187198Y-25024905D01*
X31249510Y-24990879D01*
X31276293Y-24988000D01*
X31565187Y-24988000D01*
X31633308Y-25008002D01*
X31666538Y-25039141D01*
X31722255Y-25114576D01*
X31722258Y-25114579D01*
X31727850Y-25122150D01*
X31735421Y-25127742D01*
X31829243Y-25197041D01*
X31829246Y-25197042D01*
X31836816Y-25202634D01*
X31964631Y-25247519D01*
X31972277Y-25248242D01*
X31972278Y-25248242D01*
X31978248Y-25248806D01*
X31996166Y-25250500D01*
X33003834Y-25250500D01*
X33021752Y-25248806D01*
X33027722Y-25248242D01*
X33027723Y-25248242D01*
X33035369Y-25247519D01*
X33163184Y-25202634D01*
X33170754Y-25197042D01*
X33170757Y-25197041D01*
X33264579Y-25127742D01*
X33272150Y-25122150D01*
X33277742Y-25114579D01*
X33277745Y-25114576D01*
X33333462Y-25039141D01*
X33390023Y-24996230D01*
X33434813Y-24988000D01*
X33678280Y-24988000D01*
X33693089Y-24988873D01*
X33702122Y-24989942D01*
X33726810Y-24992864D01*
X33736074Y-24991172D01*
X33736075Y-24991172D01*
X33784501Y-24982328D01*
X33788404Y-24981678D01*
X33837145Y-24974350D01*
X33837146Y-24974350D01*
X33846462Y-24972949D01*
X33852975Y-24969821D01*
X33860073Y-24968525D01*
X33912147Y-24941475D01*
X33915637Y-24939732D01*
X33968579Y-24914309D01*
X33973865Y-24909423D01*
X33973913Y-24909390D01*
X33980288Y-24906079D01*
X33985328Y-24901775D01*
X34022555Y-24864548D01*
X34026121Y-24861118D01*
X34061141Y-24828746D01*
X34068056Y-24822354D01*
X34071749Y-24815995D01*
X34077266Y-24809837D01*
X34139698Y-24747405D01*
X34202010Y-24713379D01*
X34228793Y-24710500D01*
X34537430Y-24710500D01*
X34592763Y-24723300D01*
X34648482Y-24750536D01*
X34678973Y-24754984D01*
X34712256Y-24759840D01*
X34712260Y-24759840D01*
X34716782Y-24760500D01*
X36433218Y-24760500D01*
X36437768Y-24759830D01*
X36437771Y-24759830D01*
X36492426Y-24751784D01*
X36492427Y-24751784D01*
X36502112Y-24750358D01*
X36557223Y-24723300D01*
X36597507Y-24703522D01*
X36597509Y-24703521D01*
X36606855Y-24698932D01*
X36689293Y-24616350D01*
X36740536Y-24511518D01*
X36750500Y-24443218D01*
X36750500Y-24076782D01*
X36746558Y-24050000D01*
X36741784Y-24017574D01*
X36741784Y-24017573D01*
X36740358Y-24007888D01*
X36688932Y-23903145D01*
X36611982Y-23826329D01*
X36577903Y-23764047D01*
X36575000Y-23737156D01*
X36575000Y-23512969D01*
X36595002Y-23444848D01*
X36611827Y-23423951D01*
X36613840Y-23421935D01*
X36689293Y-23346350D01*
X36740536Y-23241518D01*
X36750500Y-23173218D01*
X36750500Y-22806782D01*
X36744506Y-22766061D01*
X36741784Y-22747574D01*
X36741784Y-22747573D01*
X36740358Y-22737888D01*
X36688932Y-22633145D01*
X36606350Y-22550707D01*
X36501518Y-22499464D01*
X36471027Y-22495016D01*
X36437744Y-22490160D01*
X36437740Y-22490160D01*
X36433218Y-22489500D01*
X34716782Y-22489500D01*
X34712232Y-22490170D01*
X34712229Y-22490170D01*
X34688575Y-22493652D01*
X34647888Y-22499642D01*
X34639097Y-22503958D01*
X34639094Y-22503959D01*
X34592974Y-22526603D01*
X34537444Y-22539500D01*
X33526500Y-22539500D01*
X33458379Y-22519498D01*
X33411886Y-22465842D01*
X33400500Y-22413500D01*
X33400500Y-22396166D01*
X33398467Y-22374664D01*
X33398242Y-22372278D01*
X33398242Y-22372277D01*
X33397519Y-22364631D01*
X33352634Y-22236816D01*
X33347042Y-22229246D01*
X33347041Y-22229243D01*
X33284665Y-22144794D01*
X33272150Y-22127850D01*
X33226427Y-22094078D01*
X33170757Y-22052959D01*
X33170754Y-22052958D01*
X33163184Y-22047366D01*
X33035369Y-22002481D01*
X33027723Y-22001758D01*
X33027722Y-22001758D01*
X33021752Y-22001194D01*
X33003834Y-21999500D01*
X31996166Y-21999500D01*
X31978248Y-22001194D01*
X31972278Y-22001758D01*
X31972277Y-22001758D01*
X31964631Y-22002481D01*
X31836816Y-22047366D01*
X31829246Y-22052958D01*
X31829243Y-22052959D01*
X31773573Y-22094078D01*
X31727850Y-22127850D01*
X31722258Y-22135421D01*
X31722255Y-22135424D01*
X31666538Y-22210859D01*
X31609977Y-22253770D01*
X31565187Y-22262000D01*
X30796719Y-22262000D01*
X30781910Y-22261127D01*
X30767419Y-22259412D01*
X30748189Y-22257136D01*
X30738926Y-22258828D01*
X30738919Y-22258828D01*
X30690482Y-22267675D01*
X30686583Y-22268325D01*
X30663853Y-22271742D01*
X30637856Y-22275650D01*
X30637855Y-22275650D01*
X30628538Y-22277051D01*
X30622025Y-22280179D01*
X30614927Y-22281475D01*
X30562847Y-22308528D01*
X30559345Y-22310277D01*
X30514913Y-22331613D01*
X30506421Y-22335691D01*
X30501136Y-22340577D01*
X30501089Y-22340608D01*
X30494711Y-22343921D01*
X30489672Y-22348225D01*
X30452445Y-22385452D01*
X30448880Y-22388881D01*
X30406944Y-22427646D01*
X30403251Y-22434005D01*
X30397734Y-22440163D01*
X29121136Y-23716761D01*
X29058824Y-23750787D01*
X29032041Y-23753666D01*
X28370819Y-23753666D01*
X28302698Y-23733664D01*
X28257813Y-23683395D01*
X28251335Y-23670259D01*
X28229851Y-23626693D01*
X28211579Y-23602223D01*
X28112288Y-23469257D01*
X28112287Y-23469256D01*
X28108835Y-23464633D01*
X28085850Y-23443386D01*
X27964553Y-23331260D01*
X27964551Y-23331258D01*
X27960312Y-23327340D01*
X27932874Y-23310028D01*
X27794137Y-23222491D01*
X27789257Y-23219412D01*
X27601398Y-23144464D01*
X27403026Y-23105005D01*
X27397252Y-23104929D01*
X27397248Y-23104929D01*
X27294757Y-23103588D01*
X27200786Y-23102358D01*
X27195089Y-23103337D01*
X27195088Y-23103337D01*
X27007146Y-23135631D01*
X27007145Y-23135631D01*
X27001449Y-23136610D01*
X26811693Y-23206615D01*
X26806732Y-23209567D01*
X26806731Y-23209567D01*
X26768309Y-23232426D01*
X26637871Y-23310028D01*
X26485805Y-23443386D01*
X26360589Y-23602223D01*
X26266414Y-23781219D01*
X26206437Y-23974379D01*
X26182664Y-24175235D01*
X26195892Y-24377060D01*
X26197315Y-24382662D01*
X26243651Y-24565111D01*
X26245678Y-24573094D01*
X26330356Y-24756773D01*
X26333689Y-24761489D01*
X26442084Y-24914865D01*
X26447088Y-24921946D01*
X26451230Y-24925981D01*
X26498128Y-24971667D01*
X26591966Y-25063079D01*
X26596770Y-25066289D01*
X26626985Y-25086478D01*
X26760137Y-25175448D01*
X26765440Y-25177726D01*
X26765443Y-25177728D01*
X26772224Y-25180641D01*
X26826917Y-25225909D01*
X26848454Y-25293561D01*
X26829997Y-25362116D01*
X26786909Y-25404694D01*
X26637871Y-25493362D01*
X26485805Y-25626720D01*
X26360589Y-25785557D01*
X26266414Y-25964553D01*
X26206437Y-26157713D01*
X26182664Y-26358569D01*
X16985415Y-26358569D01*
X16991574Y-23462500D01*
X18957278Y-23462500D01*
X18957548Y-23466619D01*
X18968845Y-23638972D01*
X18976144Y-23750339D01*
X18976948Y-23754379D01*
X18976948Y-23754382D01*
X19027374Y-24007888D01*
X19032419Y-24033253D01*
X19033745Y-24037159D01*
X19033746Y-24037163D01*
X19111142Y-24265163D01*
X19125141Y-24306402D01*
X19126962Y-24310095D01*
X19126963Y-24310097D01*
X19230627Y-24520306D01*
X19252722Y-24565111D01*
X19280304Y-24606391D01*
X19383938Y-24761489D01*
X19412980Y-24804954D01*
X19415694Y-24808048D01*
X19415698Y-24808054D01*
X19576032Y-24990879D01*
X19603173Y-25021827D01*
X19606262Y-25024536D01*
X19816946Y-25209302D01*
X19816952Y-25209306D01*
X19820046Y-25212020D01*
X19823472Y-25214309D01*
X19823477Y-25214313D01*
X19943929Y-25294796D01*
X20059889Y-25372278D01*
X20063588Y-25374102D01*
X20063593Y-25374105D01*
X20125622Y-25404694D01*
X20318598Y-25499859D01*
X20322496Y-25501182D01*
X20322498Y-25501183D01*
X20587837Y-25591254D01*
X20587841Y-25591255D01*
X20591747Y-25592581D01*
X20595791Y-25593385D01*
X20595797Y-25593387D01*
X20870618Y-25648052D01*
X20870621Y-25648052D01*
X20874661Y-25648856D01*
X20878772Y-25649125D01*
X20878776Y-25649126D01*
X21158381Y-25667452D01*
X21162500Y-25667722D01*
X21166619Y-25667452D01*
X21446224Y-25649126D01*
X21446228Y-25649125D01*
X21450339Y-25648856D01*
X21454379Y-25648052D01*
X21454382Y-25648052D01*
X21729203Y-25593387D01*
X21729209Y-25593385D01*
X21733253Y-25592581D01*
X21737159Y-25591255D01*
X21737163Y-25591254D01*
X22002502Y-25501183D01*
X22002504Y-25501182D01*
X22006402Y-25499859D01*
X22199378Y-25404694D01*
X22261407Y-25374105D01*
X22261412Y-25374102D01*
X22265111Y-25372278D01*
X22381071Y-25294796D01*
X22501523Y-25214313D01*
X22501528Y-25214309D01*
X22504954Y-25212020D01*
X22508048Y-25209306D01*
X22508054Y-25209302D01*
X22718738Y-25024536D01*
X22721827Y-25021827D01*
X22748968Y-24990879D01*
X22909302Y-24808054D01*
X22909306Y-24808048D01*
X22912020Y-24804954D01*
X22941063Y-24761489D01*
X23044696Y-24606391D01*
X23072278Y-24565111D01*
X23094374Y-24520306D01*
X23198037Y-24310097D01*
X23198038Y-24310095D01*
X23199859Y-24306402D01*
X23213858Y-24265163D01*
X23291254Y-24037163D01*
X23291255Y-24037159D01*
X23292581Y-24033253D01*
X23297627Y-24007888D01*
X23348052Y-23754382D01*
X23348052Y-23754379D01*
X23348856Y-23750339D01*
X23356156Y-23638972D01*
X23367452Y-23466619D01*
X23367722Y-23462500D01*
X23365576Y-23429754D01*
X23349126Y-23178776D01*
X23349125Y-23178772D01*
X23348856Y-23174661D01*
X23348052Y-23170618D01*
X23293387Y-22895797D01*
X23293385Y-22895791D01*
X23292581Y-22891747D01*
X23289264Y-22881974D01*
X23201183Y-22622498D01*
X23201182Y-22622496D01*
X23199859Y-22618598D01*
X23198037Y-22614903D01*
X23074105Y-22363593D01*
X23074102Y-22363588D01*
X23072278Y-22359889D01*
X23019603Y-22281055D01*
X22914313Y-22123477D01*
X22914309Y-22123472D01*
X22912020Y-22120046D01*
X22909306Y-22116952D01*
X22909302Y-22116946D01*
X22724536Y-21906262D01*
X22721866Y-21903218D01*
X34399500Y-21903218D01*
X34400170Y-21907768D01*
X34400170Y-21907771D01*
X34408216Y-21962426D01*
X34409642Y-21972112D01*
X34425802Y-22005026D01*
X34452417Y-22059234D01*
X34461068Y-22076855D01*
X34543650Y-22159293D01*
X34553006Y-22163866D01*
X34553007Y-22163867D01*
X34581352Y-22177722D01*
X34648482Y-22210536D01*
X34678973Y-22214984D01*
X34712256Y-22219840D01*
X34712260Y-22219840D01*
X34716782Y-22220500D01*
X36433218Y-22220500D01*
X36437768Y-22219830D01*
X36437771Y-22219830D01*
X36492426Y-22211784D01*
X36492427Y-22211784D01*
X36502112Y-22210358D01*
X36568584Y-22177722D01*
X36597507Y-22163522D01*
X36597509Y-22163521D01*
X36606855Y-22158932D01*
X36689293Y-22076350D01*
X36697660Y-22059234D01*
X36736240Y-21980306D01*
X36740536Y-21971518D01*
X36750500Y-21903218D01*
X36750500Y-21536782D01*
X36741871Y-21478162D01*
X36741784Y-21477574D01*
X36741784Y-21477573D01*
X36740358Y-21467888D01*
X36715860Y-21417992D01*
X36693522Y-21372493D01*
X36693521Y-21372491D01*
X36688932Y-21363145D01*
X36606350Y-21280707D01*
X36588051Y-21271762D01*
X36558419Y-21257278D01*
X36501518Y-21229464D01*
X36471027Y-21225016D01*
X36437744Y-21220160D01*
X36437740Y-21220160D01*
X36433218Y-21219500D01*
X34716782Y-21219500D01*
X34712232Y-21220170D01*
X34712229Y-21220170D01*
X34657574Y-21228216D01*
X34657573Y-21228216D01*
X34647888Y-21229642D01*
X34597992Y-21254140D01*
X34552493Y-21276478D01*
X34552491Y-21276479D01*
X34543145Y-21281068D01*
X34533948Y-21290281D01*
X34491884Y-21332419D01*
X34460707Y-21363650D01*
X34409464Y-21468482D01*
X34399500Y-21536782D01*
X34399500Y-21903218D01*
X22721866Y-21903218D01*
X22721827Y-21903173D01*
X22716626Y-21898612D01*
X22508054Y-21715698D01*
X22508048Y-21715694D01*
X22504954Y-21712980D01*
X22501528Y-21710691D01*
X22501523Y-21710687D01*
X22268544Y-21555016D01*
X22265111Y-21552722D01*
X22261412Y-21550898D01*
X22261407Y-21550895D01*
X22010097Y-21426963D01*
X22010095Y-21426962D01*
X22006402Y-21425141D01*
X21907656Y-21391621D01*
X21737163Y-21333746D01*
X21737159Y-21333745D01*
X21733253Y-21332419D01*
X21729209Y-21331615D01*
X21729203Y-21331613D01*
X21454382Y-21276948D01*
X21454379Y-21276948D01*
X21450339Y-21276144D01*
X21446228Y-21275875D01*
X21446224Y-21275874D01*
X21166619Y-21257548D01*
X21162500Y-21257278D01*
X21158381Y-21257548D01*
X20878776Y-21275874D01*
X20878772Y-21275875D01*
X20874661Y-21276144D01*
X20870621Y-21276948D01*
X20870618Y-21276948D01*
X20595797Y-21331613D01*
X20595791Y-21331615D01*
X20591747Y-21332419D01*
X20587841Y-21333745D01*
X20587837Y-21333746D01*
X20417344Y-21391621D01*
X20318598Y-21425141D01*
X20314905Y-21426962D01*
X20314903Y-21426963D01*
X20063593Y-21550895D01*
X20063588Y-21550898D01*
X20059889Y-21552722D01*
X20056456Y-21555016D01*
X19823477Y-21710687D01*
X19823472Y-21710691D01*
X19820046Y-21712980D01*
X19816952Y-21715694D01*
X19816946Y-21715698D01*
X19608374Y-21898612D01*
X19603173Y-21903173D01*
X19600464Y-21906262D01*
X19415698Y-22116946D01*
X19415694Y-22116952D01*
X19412980Y-22120046D01*
X19410691Y-22123472D01*
X19410687Y-22123477D01*
X19305397Y-22281055D01*
X19252722Y-22359889D01*
X19250898Y-22363588D01*
X19250895Y-22363593D01*
X19126963Y-22614903D01*
X19125141Y-22618598D01*
X19123818Y-22622496D01*
X19123817Y-22622498D01*
X19035737Y-22881974D01*
X19032419Y-22891747D01*
X19031615Y-22895791D01*
X19031613Y-22895797D01*
X18976948Y-23170618D01*
X18976144Y-23174661D01*
X18975875Y-23178772D01*
X18975874Y-23178776D01*
X18959424Y-23429754D01*
X18957278Y-23462500D01*
X16991574Y-23462500D01*
X16999897Y-19549099D01*
X17001397Y-19529985D01*
X17003722Y-19515047D01*
X17005104Y-19506171D01*
X17003170Y-19491381D01*
X17002427Y-19466057D01*
X17002784Y-19461076D01*
X17014625Y-19295518D01*
X17017183Y-19277724D01*
X17058844Y-19086207D01*
X17063910Y-19068957D01*
X17132405Y-18885318D01*
X17139872Y-18868966D01*
X17233801Y-18696946D01*
X17243521Y-18681822D01*
X17360977Y-18524920D01*
X17372750Y-18511334D01*
X17511334Y-18372750D01*
X17524920Y-18360977D01*
X17681822Y-18243521D01*
X17696946Y-18233801D01*
X17868966Y-18139872D01*
X17885318Y-18132405D01*
X18068957Y-18063910D01*
X18086202Y-18058846D01*
X18277723Y-18017183D01*
X18295518Y-18014625D01*
X18312065Y-18013442D01*
X18459059Y-18002928D01*
X18475982Y-18003632D01*
X18475982Y-18003613D01*
X18484958Y-18003723D01*
X18493829Y-18005104D01*
X18502731Y-18003940D01*
X18502734Y-18003940D01*
X18524725Y-18001064D01*
X18541062Y-18000000D01*
X41524000Y-18000000D01*
X41592121Y-18020002D01*
G37*
%TD.AperFunction*%
%TA.AperFunction,Conductor*%
G36*
X44530032Y-42671960D02*
G01*
X44586868Y-42714507D01*
X44611679Y-42781027D01*
X44612000Y-42790016D01*
X44612000Y-43309748D01*
X44613207Y-43315816D01*
X44620894Y-43354459D01*
X44623633Y-43368231D01*
X44667948Y-43434552D01*
X44678261Y-43441443D01*
X44678263Y-43441445D01*
X44691418Y-43450235D01*
X44736946Y-43504712D01*
X44745793Y-43575156D01*
X44715152Y-43639199D01*
X44691418Y-43659765D01*
X44678263Y-43668555D01*
X44678261Y-43668557D01*
X44667948Y-43675448D01*
X44623633Y-43741769D01*
X44612000Y-43800252D01*
X44612000Y-44579748D01*
X44623633Y-44638231D01*
X44667948Y-44704552D01*
X44678261Y-44711443D01*
X44678263Y-44711445D01*
X44691418Y-44720235D01*
X44736946Y-44774712D01*
X44745793Y-44845156D01*
X44715152Y-44909199D01*
X44691418Y-44929765D01*
X44678263Y-44938555D01*
X44678261Y-44938557D01*
X44667948Y-44945448D01*
X44623633Y-45011769D01*
X44612000Y-45070252D01*
X44612000Y-45849748D01*
X44613207Y-45855816D01*
X44620904Y-45894509D01*
X44623633Y-45908231D01*
X44667948Y-45974552D01*
X44734269Y-46018867D01*
X44746438Y-46021288D01*
X44746439Y-46021288D01*
X44773658Y-46026702D01*
X44792752Y-46030500D01*
X47232248Y-46030500D01*
X47251342Y-46026702D01*
X47278561Y-46021288D01*
X47278562Y-46021288D01*
X47290731Y-46018867D01*
X47301046Y-46011975D01*
X47301050Y-46011973D01*
X47347119Y-45981190D01*
X47414871Y-45959975D01*
X47483338Y-45978758D01*
X47528319Y-46026702D01*
X47557024Y-46080572D01*
X47557028Y-46080577D01*
X47560351Y-46086814D01*
X47606844Y-46140470D01*
X47623966Y-46157945D01*
X47701648Y-46201397D01*
X47726026Y-46208555D01*
X47765446Y-46220130D01*
X47765450Y-46220131D01*
X47769769Y-46221399D01*
X47774217Y-46222039D01*
X47774224Y-46222040D01*
X47821667Y-46228861D01*
X47821674Y-46228861D01*
X47826115Y-46229500D01*
X48249569Y-46229500D01*
X48260652Y-46229021D01*
X48265440Y-46228814D01*
X48265449Y-46228813D01*
X48266823Y-46228754D01*
X48268192Y-46228635D01*
X48268199Y-46228635D01*
X48276590Y-46227908D01*
X48288487Y-46226878D01*
X48305621Y-46224645D01*
X48308590Y-46224127D01*
X48338825Y-46222542D01*
X48402423Y-46226878D01*
X48429264Y-46228708D01*
X48459001Y-46234381D01*
X48496671Y-46246403D01*
X48495130Y-46251233D01*
X48495133Y-46251234D01*
X48496674Y-46246404D01*
X48545358Y-46261941D01*
X48572884Y-46274543D01*
X48596132Y-46288789D01*
X48628171Y-46308422D01*
X48642442Y-46315281D01*
X48661907Y-46324637D01*
X48661911Y-46324639D01*
X48664785Y-46326020D01*
X48712684Y-46343304D01*
X48720360Y-46344088D01*
X48720361Y-46344088D01*
X48809031Y-46353141D01*
X48808744Y-46355956D01*
X48864409Y-46371055D01*
X48912004Y-46423735D01*
X48924500Y-46478442D01*
X48924500Y-46974208D01*
X48904498Y-47042329D01*
X48850842Y-47088822D01*
X48804372Y-47098971D01*
X48803984Y-47098916D01*
X48715903Y-47111732D01*
X48649681Y-47137332D01*
X48600040Y-47165210D01*
X48598454Y-47166427D01*
X48594451Y-47168857D01*
X48591572Y-47170459D01*
X48574834Y-47178230D01*
X48542171Y-47190572D01*
X48537293Y-47192489D01*
X48531187Y-47194981D01*
X48526373Y-47197019D01*
X48526034Y-47197168D01*
X48526001Y-47197182D01*
X48495542Y-47210552D01*
X48460040Y-47220264D01*
X48448929Y-47221609D01*
X48426628Y-47224308D01*
X48426364Y-47224343D01*
X48426304Y-47224351D01*
X48421801Y-47224956D01*
X48421753Y-47224963D01*
X48421461Y-47225002D01*
X48421139Y-47225049D01*
X48421086Y-47225057D01*
X48415380Y-47225899D01*
X48415335Y-47225906D01*
X48414935Y-47225965D01*
X48409745Y-47226800D01*
X48409408Y-47226859D01*
X48409341Y-47226870D01*
X48386409Y-47230873D01*
X48356173Y-47232458D01*
X48342893Y-47231552D01*
X48339050Y-47231290D01*
X48339030Y-47231289D01*
X48338534Y-47231255D01*
X48334515Y-47231050D01*
X48332291Y-47230936D01*
X48332274Y-47230935D01*
X48331740Y-47230908D01*
X48331235Y-47230891D01*
X48331193Y-47230889D01*
X48323739Y-47230635D01*
X48323697Y-47230634D01*
X48323170Y-47230616D01*
X48316359Y-47230500D01*
X47530777Y-47230500D01*
X47469315Y-47240178D01*
X47395620Y-47263977D01*
X47393460Y-47264857D01*
X47393455Y-47264859D01*
X47389301Y-47266552D01*
X47368017Y-47275225D01*
X47360716Y-47281201D01*
X47307207Y-47325000D01*
X47299140Y-47331603D01*
X47294803Y-47337186D01*
X47294799Y-47337190D01*
X47260922Y-47380799D01*
X47203336Y-47422323D01*
X47161419Y-47429500D01*
X44792752Y-47429500D01*
X44786684Y-47430707D01*
X44746439Y-47438712D01*
X44746438Y-47438712D01*
X44734269Y-47441133D01*
X44667948Y-47485448D01*
X44623633Y-47551769D01*
X44621212Y-47563938D01*
X44621212Y-47563939D01*
X44615627Y-47592016D01*
X44612000Y-47610252D01*
X44612000Y-48389748D01*
X44623633Y-48448231D01*
X44667948Y-48514552D01*
X44734269Y-48558867D01*
X44746438Y-48561288D01*
X44746439Y-48561288D01*
X44786684Y-48569293D01*
X44792752Y-48570500D01*
X46348655Y-48570500D01*
X46416776Y-48590502D01*
X46463269Y-48644158D01*
X46471678Y-48702642D01*
X46472461Y-48702642D01*
X46472461Y-48702644D01*
X46471935Y-48704434D01*
X46473373Y-48714432D01*
X46467314Y-48738878D01*
X46465120Y-48745021D01*
X46465120Y-48745022D01*
X46358198Y-49044406D01*
X46358197Y-49044407D01*
X46182583Y-49536122D01*
X46182582Y-49536126D01*
X46177348Y-49550781D01*
X46135600Y-49608205D01*
X46103265Y-49626253D01*
X45164257Y-49981391D01*
X44796597Y-50120442D01*
X44691241Y-50160288D01*
X44212612Y-50341308D01*
X43752000Y-50515514D01*
X43733983Y-50522328D01*
X43493893Y-50613131D01*
X43453146Y-50634161D01*
X43405500Y-50666156D01*
X43394705Y-50673939D01*
X43389542Y-50680214D01*
X43361460Y-50714344D01*
X43338152Y-50742671D01*
X43306373Y-50806158D01*
X43296781Y-50828662D01*
X43286364Y-50917059D01*
X43286841Y-50921496D01*
X43286841Y-50921497D01*
X43293953Y-50987647D01*
X43295066Y-50992007D01*
X43295066Y-50992008D01*
X43303256Y-51024094D01*
X43308031Y-51042804D01*
X43320628Y-51073216D01*
X43333844Y-51105122D01*
X43342357Y-51136894D01*
X43351791Y-51208553D01*
X43351791Y-51241445D01*
X43342357Y-51313104D01*
X43333844Y-51344877D01*
X43306184Y-51411653D01*
X43289738Y-51440137D01*
X43245740Y-51497477D01*
X43222482Y-51520736D01*
X43165140Y-51564737D01*
X43136653Y-51581184D01*
X43085795Y-51602250D01*
X43085793Y-51602251D01*
X43069878Y-51608843D01*
X43038108Y-51617356D01*
X43012344Y-51620748D01*
X42966444Y-51626791D01*
X42933554Y-51626791D01*
X42905815Y-51623139D01*
X42861896Y-51617357D01*
X42830126Y-51608844D01*
X42807583Y-51599507D01*
X42807566Y-51599501D01*
X42805754Y-51598750D01*
X42803910Y-51598118D01*
X42803905Y-51598116D01*
X42783984Y-51591287D01*
X42783970Y-51591283D01*
X42782133Y-51590653D01*
X42751847Y-51582344D01*
X42733305Y-51581184D01*
X42676928Y-51577657D01*
X42676927Y-51577657D01*
X42670469Y-51577253D01*
X42664064Y-51578174D01*
X42664062Y-51578174D01*
X42635061Y-51582344D01*
X42600195Y-51587357D01*
X42598319Y-51587745D01*
X42598308Y-51587747D01*
X42592457Y-51588958D01*
X42576238Y-51592313D01*
X42497686Y-51634171D01*
X42444030Y-51680664D01*
X42426555Y-51697786D01*
X42383103Y-51775468D01*
X42381109Y-51782260D01*
X42364652Y-51838308D01*
X42363101Y-51843589D01*
X42362461Y-51848037D01*
X42362460Y-51848044D01*
X42360108Y-51864409D01*
X42355000Y-51899935D01*
X42355000Y-51952000D01*
X42357010Y-51980284D01*
X42362050Y-52015564D01*
X42368040Y-52043281D01*
X42370131Y-52050449D01*
X42415227Y-52205063D01*
X42428013Y-52248903D01*
X42437740Y-52275225D01*
X42442556Y-52285888D01*
X42445968Y-52293445D01*
X42445969Y-52293446D01*
X42445973Y-52293453D01*
X42452250Y-52307353D01*
X42465563Y-52332054D01*
X42466743Y-52333917D01*
X42466747Y-52333924D01*
X42626751Y-52586562D01*
X42626756Y-52586569D01*
X42628853Y-52589880D01*
X42660517Y-52628295D01*
X42705773Y-52671022D01*
X42708942Y-52673342D01*
X42708946Y-52673345D01*
X42720866Y-52682070D01*
X42745944Y-52700427D01*
X42939914Y-52808188D01*
X43038057Y-52862712D01*
X43038058Y-52862713D01*
X43159050Y-52929931D01*
X43159056Y-52929934D01*
X43164090Y-52932731D01*
X43170148Y-52935962D01*
X43177837Y-52939895D01*
X43183997Y-52942914D01*
X43522250Y-53101543D01*
X43793765Y-53228874D01*
X44502308Y-53561156D01*
X44992336Y-53790962D01*
X45328708Y-53948709D01*
X45972393Y-54250575D01*
X45972394Y-54250575D01*
X45972397Y-54250576D01*
X46526395Y-54510382D01*
X46579578Y-54557415D01*
X46598890Y-54625734D01*
X46578200Y-54693649D01*
X46524076Y-54739597D01*
X46472896Y-54750460D01*
X30973694Y-54750460D01*
X30905573Y-54730458D01*
X30884599Y-54713555D01*
X29674905Y-53503861D01*
X29640879Y-53441549D01*
X29638000Y-53414766D01*
X29638000Y-52051500D01*
X29658002Y-51983379D01*
X29711658Y-51936886D01*
X29763999Y-51925500D01*
X29893502Y-51925499D01*
X29914632Y-51925499D01*
X29920699Y-51924292D01*
X29920702Y-51924292D01*
X29968589Y-51914767D01*
X29994995Y-51909515D01*
X30005315Y-51902619D01*
X30014282Y-51898905D01*
X30084872Y-51891316D01*
X30110719Y-51898905D01*
X30119684Y-51902618D01*
X30130005Y-51909515D01*
X30142179Y-51911937D01*
X30142180Y-51911937D01*
X30204294Y-51924292D01*
X30210367Y-51925500D01*
X30312491Y-51925500D01*
X30414632Y-51925499D01*
X30420699Y-51924292D01*
X30420702Y-51924292D01*
X30468589Y-51914767D01*
X30494995Y-51909515D01*
X30505315Y-51902619D01*
X30514282Y-51898905D01*
X30584872Y-51891316D01*
X30610719Y-51898905D01*
X30619684Y-51902618D01*
X30630005Y-51909515D01*
X30642179Y-51911937D01*
X30642180Y-51911937D01*
X30704294Y-51924292D01*
X30710367Y-51925500D01*
X30812491Y-51925500D01*
X30914632Y-51925499D01*
X30920699Y-51924292D01*
X30920702Y-51924292D01*
X30982824Y-51911936D01*
X30982825Y-51911936D01*
X30994995Y-51909515D01*
X31009333Y-51899935D01*
X31075808Y-51855517D01*
X31086124Y-51848624D01*
X31147015Y-51757495D01*
X31163000Y-51677133D01*
X31162999Y-50386857D01*
X31183001Y-50318736D01*
X31236657Y-50272243D01*
X31295292Y-50261014D01*
X31327384Y-50262619D01*
X31342295Y-50263365D01*
X31409331Y-50286746D01*
X31453085Y-50342657D01*
X31462000Y-50389208D01*
X31462001Y-51032570D01*
X31462001Y-51677132D01*
X31463208Y-51683198D01*
X31463208Y-51683203D01*
X31466109Y-51697786D01*
X31477985Y-51757495D01*
X31479350Y-51759538D01*
X31487000Y-51797994D01*
X31487000Y-52055290D01*
X31486520Y-52066272D01*
X31484591Y-52088325D01*
X31483236Y-52103807D01*
X31486090Y-52114456D01*
X31492991Y-52140210D01*
X31495370Y-52150942D01*
X31501912Y-52188045D01*
X31507423Y-52197590D01*
X31508615Y-52200866D01*
X31510092Y-52204034D01*
X31512946Y-52214684D01*
X31519270Y-52223715D01*
X31534555Y-52245544D01*
X31540461Y-52254815D01*
X31550559Y-52272304D01*
X31559306Y-52287455D01*
X31583020Y-52307353D01*
X31585066Y-52309070D01*
X31624393Y-52368179D01*
X31625519Y-52439167D01*
X31618270Y-52458842D01*
X31579968Y-52540981D01*
X31568528Y-52565513D01*
X31562000Y-52615099D01*
X31562001Y-53034900D01*
X31568528Y-53084487D01*
X31572601Y-53093221D01*
X31572601Y-53093222D01*
X31580141Y-53109392D01*
X31619276Y-53193316D01*
X31704184Y-53278224D01*
X31714176Y-53282883D01*
X31714177Y-53282884D01*
X31803500Y-53324536D01*
X31813013Y-53328972D01*
X31862599Y-53335500D01*
X32042434Y-53335500D01*
X32222400Y-53335499D01*
X32271987Y-53328972D01*
X32292281Y-53319509D01*
X32310538Y-53310995D01*
X32380816Y-53278224D01*
X32386316Y-53272724D01*
X32456800Y-53250500D01*
X32707901Y-53250500D01*
X32776022Y-53270502D01*
X32784605Y-53276537D01*
X32847159Y-53324536D01*
X32993238Y-53385044D01*
X33150000Y-53405682D01*
X33158188Y-53404604D01*
X33298574Y-53386122D01*
X33306762Y-53385044D01*
X33452841Y-53324536D01*
X33578282Y-53228282D01*
X33674536Y-53102841D01*
X33735044Y-52956762D01*
X33736833Y-52943177D01*
X33754604Y-52808188D01*
X33755682Y-52800000D01*
X33735044Y-52643238D01*
X33727599Y-52625263D01*
X33723388Y-52615099D01*
X33674536Y-52497159D01*
X33578282Y-52371718D01*
X33452841Y-52275464D01*
X33306762Y-52214956D01*
X33150000Y-52194318D01*
X32993238Y-52214956D01*
X32847159Y-52275464D01*
X32840608Y-52280491D01*
X32784605Y-52323463D01*
X32718384Y-52349063D01*
X32707901Y-52349500D01*
X32503067Y-52349500D01*
X32434946Y-52329498D01*
X32388453Y-52275842D01*
X32378981Y-52245378D01*
X32373088Y-52211955D01*
X32367576Y-52202407D01*
X32366383Y-52199130D01*
X32364906Y-52195962D01*
X32362053Y-52185316D01*
X32340442Y-52154452D01*
X32334538Y-52145184D01*
X32321204Y-52122089D01*
X32315694Y-52112545D01*
X32286830Y-52088325D01*
X32278727Y-52080900D01*
X32174905Y-51977078D01*
X32140880Y-51914767D01*
X32138000Y-51887983D01*
X32138000Y-51797995D01*
X32145650Y-51759538D01*
X32147015Y-51757495D01*
X32149437Y-51745322D01*
X32161793Y-51683201D01*
X32163000Y-51677133D01*
X32162999Y-50654357D01*
X32183001Y-50586237D01*
X32236657Y-50539744D01*
X32295291Y-50528515D01*
X32559900Y-50541745D01*
X32725000Y-50550000D01*
X32725000Y-50051500D01*
X32745002Y-49983379D01*
X32798658Y-49936886D01*
X32851000Y-49925500D01*
X33858943Y-49925499D01*
X33914632Y-49925499D01*
X33920698Y-49924292D01*
X33920703Y-49924292D01*
X33982824Y-49911936D01*
X33982825Y-49911936D01*
X33994995Y-49909515D01*
X34008281Y-49900638D01*
X34075808Y-49855517D01*
X34086124Y-49848624D01*
X34147015Y-49757495D01*
X34163000Y-49677133D01*
X34162999Y-49472868D01*
X34147015Y-49392505D01*
X34140119Y-49382185D01*
X34136405Y-49373218D01*
X34128816Y-49302628D01*
X34136405Y-49276781D01*
X34140118Y-49267816D01*
X34147015Y-49257495D01*
X34163000Y-49177133D01*
X34162999Y-48972868D01*
X34147015Y-48892505D01*
X34140119Y-48882185D01*
X34136405Y-48873218D01*
X34128816Y-48802628D01*
X34136405Y-48776781D01*
X34140118Y-48767816D01*
X34147015Y-48757495D01*
X34157570Y-48704434D01*
X34161793Y-48683201D01*
X34163000Y-48677133D01*
X34162999Y-48472868D01*
X34147015Y-48392505D01*
X34140119Y-48382185D01*
X34136405Y-48373218D01*
X34128816Y-48302628D01*
X34136405Y-48276781D01*
X34140118Y-48267816D01*
X34147015Y-48257495D01*
X34163000Y-48177133D01*
X34162999Y-47972868D01*
X34147015Y-47892505D01*
X34140119Y-47882185D01*
X34136405Y-47873218D01*
X34128816Y-47802628D01*
X34136405Y-47776781D01*
X34140118Y-47767816D01*
X34147015Y-47757495D01*
X34152501Y-47729918D01*
X34161793Y-47683201D01*
X34163000Y-47677133D01*
X34162999Y-47472868D01*
X34159670Y-47456128D01*
X34150071Y-47407871D01*
X34147015Y-47392505D01*
X34140119Y-47382185D01*
X34136405Y-47373218D01*
X34128816Y-47302628D01*
X34136405Y-47276781D01*
X34140118Y-47267816D01*
X34147015Y-47257495D01*
X34152235Y-47231255D01*
X34161793Y-47183201D01*
X34163000Y-47177133D01*
X34162999Y-46972868D01*
X34161579Y-46965726D01*
X34152837Y-46921776D01*
X34147015Y-46892505D01*
X34140119Y-46882185D01*
X34136405Y-46873218D01*
X34128816Y-46802628D01*
X34136405Y-46776781D01*
X34140118Y-46767816D01*
X34147015Y-46757495D01*
X34152838Y-46728224D01*
X34161793Y-46683201D01*
X34163000Y-46677133D01*
X34162999Y-46472868D01*
X34156176Y-46438561D01*
X34151017Y-46412624D01*
X34147015Y-46392505D01*
X34140119Y-46382185D01*
X34136405Y-46373218D01*
X34128816Y-46302628D01*
X34136405Y-46276781D01*
X34140118Y-46267816D01*
X34147015Y-46257495D01*
X34153515Y-46224820D01*
X34161793Y-46183201D01*
X34163000Y-46177133D01*
X34162999Y-45972868D01*
X34156747Y-45941432D01*
X34150143Y-45908231D01*
X34147015Y-45892505D01*
X34140119Y-45882185D01*
X34136405Y-45873218D01*
X34128816Y-45802628D01*
X34136405Y-45776781D01*
X34140118Y-45767816D01*
X34147015Y-45757495D01*
X34150871Y-45738113D01*
X34161793Y-45683202D01*
X34161793Y-45683200D01*
X34163000Y-45677133D01*
X34163000Y-45675153D01*
X34189036Y-45610678D01*
X34246991Y-45569669D01*
X34317917Y-45566503D01*
X34376940Y-45599767D01*
X34568388Y-45791215D01*
X34575814Y-45799318D01*
X34600044Y-45828194D01*
X34609593Y-45833707D01*
X34632684Y-45847039D01*
X34641955Y-45852945D01*
X34672815Y-45874554D01*
X34683465Y-45877408D01*
X34686633Y-45878885D01*
X34689909Y-45880077D01*
X34699454Y-45885588D01*
X34733198Y-45891538D01*
X34736557Y-45892130D01*
X34747284Y-45894508D01*
X34783692Y-45904264D01*
X34794668Y-45903304D01*
X34794671Y-45903304D01*
X34821242Y-45900979D01*
X34832223Y-45900500D01*
X36792790Y-45900500D01*
X36803772Y-45900980D01*
X36830320Y-45903303D01*
X36830322Y-45903303D01*
X36841307Y-45904264D01*
X36877715Y-45894508D01*
X36888442Y-45892130D01*
X36891801Y-45891538D01*
X36925545Y-45885588D01*
X36935090Y-45880077D01*
X36938366Y-45878885D01*
X36941534Y-45877408D01*
X36952184Y-45874554D01*
X36983044Y-45852945D01*
X36992315Y-45847039D01*
X37015406Y-45833707D01*
X37024955Y-45828194D01*
X37049185Y-45799317D01*
X37056611Y-45791215D01*
X38295421Y-44552405D01*
X38357733Y-44518379D01*
X38384516Y-44515500D01*
X40595815Y-44515500D01*
X40663936Y-44535502D01*
X40710429Y-44589158D01*
X40719394Y-44616920D01*
X40723633Y-44638231D01*
X40767948Y-44704552D01*
X40778261Y-44711443D01*
X40778263Y-44711445D01*
X40791418Y-44720235D01*
X40836946Y-44774712D01*
X40845793Y-44845156D01*
X40815152Y-44909199D01*
X40791418Y-44929765D01*
X40778263Y-44938555D01*
X40778261Y-44938557D01*
X40767948Y-44945448D01*
X40723633Y-45011769D01*
X40712000Y-45070252D01*
X40712000Y-45849748D01*
X40713207Y-45855816D01*
X40720904Y-45894509D01*
X40723633Y-45908231D01*
X40767948Y-45974552D01*
X40778261Y-45981443D01*
X40778263Y-45981445D01*
X40791418Y-45990235D01*
X40836946Y-46044712D01*
X40845793Y-46115156D01*
X40815152Y-46179199D01*
X40791418Y-46199765D01*
X40778263Y-46208555D01*
X40778261Y-46208557D01*
X40767948Y-46215448D01*
X40723633Y-46281769D01*
X40721212Y-46293938D01*
X40721212Y-46293939D01*
X40719394Y-46303080D01*
X40686487Y-46365990D01*
X40624793Y-46401123D01*
X40595815Y-46404500D01*
X39142597Y-46404500D01*
X39074476Y-46384498D01*
X39072167Y-46382919D01*
X39065720Y-46376472D01*
X38945626Y-46315281D01*
X38935837Y-46313731D01*
X38935835Y-46313730D01*
X38822293Y-46295747D01*
X38812500Y-46294196D01*
X38802707Y-46295747D01*
X38689165Y-46313730D01*
X38689163Y-46313731D01*
X38679374Y-46315281D01*
X38559280Y-46376472D01*
X38463972Y-46471780D01*
X38402781Y-46591874D01*
X38401231Y-46601663D01*
X38401230Y-46601665D01*
X38389277Y-46677133D01*
X38381696Y-46725000D01*
X38383247Y-46734793D01*
X38401078Y-46847372D01*
X38402781Y-46858126D01*
X38463972Y-46978220D01*
X38559280Y-47073528D01*
X38679374Y-47134719D01*
X38689163Y-47136269D01*
X38689165Y-47136270D01*
X38802707Y-47154253D01*
X38812500Y-47155804D01*
X38822293Y-47154253D01*
X38935835Y-47136270D01*
X38935837Y-47136269D01*
X38945626Y-47134719D01*
X39065720Y-47073528D01*
X39066639Y-47075331D01*
X39121635Y-47055706D01*
X39128834Y-47055500D01*
X40595815Y-47055500D01*
X40663936Y-47075502D01*
X40710429Y-47129158D01*
X40719394Y-47156920D01*
X40723633Y-47178231D01*
X40767948Y-47244552D01*
X40778261Y-47251443D01*
X40778263Y-47251445D01*
X40791418Y-47260235D01*
X40836946Y-47314712D01*
X40845793Y-47385156D01*
X40815152Y-47449199D01*
X40791418Y-47469765D01*
X40778263Y-47478555D01*
X40778261Y-47478557D01*
X40767948Y-47485448D01*
X40723633Y-47551769D01*
X40721212Y-47563938D01*
X40721212Y-47563939D01*
X40715627Y-47592016D01*
X40712000Y-47610252D01*
X40712000Y-48389748D01*
X40723633Y-48448231D01*
X40767948Y-48514552D01*
X40834269Y-48558867D01*
X40846438Y-48561288D01*
X40846439Y-48561288D01*
X40886684Y-48569293D01*
X40892752Y-48570500D01*
X43332248Y-48570500D01*
X43338316Y-48569293D01*
X43378561Y-48561288D01*
X43378562Y-48561288D01*
X43390731Y-48558867D01*
X43457052Y-48514552D01*
X43501367Y-48448231D01*
X43513000Y-48389748D01*
X43513000Y-47610252D01*
X43509373Y-47592016D01*
X43503788Y-47563939D01*
X43503788Y-47563938D01*
X43501367Y-47551769D01*
X43457052Y-47485448D01*
X43446739Y-47478557D01*
X43446737Y-47478555D01*
X43433582Y-47469765D01*
X43388054Y-47415288D01*
X43379207Y-47344844D01*
X43409848Y-47280801D01*
X43433582Y-47260235D01*
X43446737Y-47251445D01*
X43446739Y-47251443D01*
X43457052Y-47244552D01*
X43501367Y-47178231D01*
X43513000Y-47119748D01*
X43513000Y-46340252D01*
X43507817Y-46314196D01*
X43503788Y-46293939D01*
X43503788Y-46293938D01*
X43501367Y-46281769D01*
X43457052Y-46215448D01*
X43446739Y-46208557D01*
X43446737Y-46208555D01*
X43433582Y-46199765D01*
X43388054Y-46145288D01*
X43379207Y-46074844D01*
X43409848Y-46010801D01*
X43433582Y-45990235D01*
X43446737Y-45981445D01*
X43446739Y-45981443D01*
X43457052Y-45974552D01*
X43501367Y-45908231D01*
X43504097Y-45894509D01*
X43511793Y-45855816D01*
X43513000Y-45849748D01*
X43513000Y-45070252D01*
X43501367Y-45011769D01*
X43457052Y-44945448D01*
X43446739Y-44938557D01*
X43446737Y-44938555D01*
X43433582Y-44929765D01*
X43388054Y-44875288D01*
X43379207Y-44804844D01*
X43409848Y-44740801D01*
X43433582Y-44720235D01*
X43446737Y-44711445D01*
X43446739Y-44711443D01*
X43457052Y-44704552D01*
X43501367Y-44638231D01*
X43513000Y-44579748D01*
X43513000Y-43800252D01*
X43501367Y-43741769D01*
X43457052Y-43675448D01*
X43446739Y-43668557D01*
X43446737Y-43668555D01*
X43433582Y-43659765D01*
X43388054Y-43605288D01*
X43379207Y-43534844D01*
X43409848Y-43470801D01*
X43433582Y-43450235D01*
X43446737Y-43441445D01*
X43446739Y-43441443D01*
X43457052Y-43434552D01*
X43501367Y-43368231D01*
X43504107Y-43354459D01*
X43505606Y-43346920D01*
X43538513Y-43284010D01*
X43600207Y-43248877D01*
X43629185Y-43245500D01*
X43697790Y-43245500D01*
X43708772Y-43245980D01*
X43735320Y-43248303D01*
X43735322Y-43248303D01*
X43746307Y-43249264D01*
X43782715Y-43239508D01*
X43793442Y-43237130D01*
X43796801Y-43236538D01*
X43830545Y-43230588D01*
X43840090Y-43225077D01*
X43843366Y-43223885D01*
X43846534Y-43222408D01*
X43857184Y-43219554D01*
X43888044Y-43197945D01*
X43897315Y-43192039D01*
X43920406Y-43178707D01*
X43929955Y-43173194D01*
X43954185Y-43144317D01*
X43961611Y-43136215D01*
X44396905Y-42700921D01*
X44459217Y-42666895D01*
X44530032Y-42671960D01*
G37*
%TD.AperFunction*%
%TA.AperFunction,Conductor*%
G36*
X47481105Y-39770502D02*
G01*
X47502079Y-39787405D01*
X48887595Y-41172922D01*
X48921621Y-41235234D01*
X48924500Y-41262017D01*
X48924500Y-42731187D01*
X48904498Y-42799308D01*
X48850842Y-42845801D01*
X48804274Y-42856023D01*
X48803305Y-42855887D01*
X48794391Y-42857203D01*
X48794390Y-42857203D01*
X48722252Y-42867853D01*
X48722249Y-42867854D01*
X48715251Y-42868887D01*
X48708659Y-42871451D01*
X48708656Y-42871452D01*
X48650862Y-42893933D01*
X48650851Y-42893938D01*
X48649084Y-42894625D01*
X48647366Y-42895417D01*
X48647353Y-42895423D01*
X48635051Y-42901098D01*
X48635050Y-42901099D01*
X48626868Y-42904873D01*
X48620078Y-42910802D01*
X48565154Y-42958757D01*
X48565151Y-42958760D01*
X48559821Y-42963414D01*
X48555659Y-42969139D01*
X48555658Y-42969140D01*
X48520720Y-43017197D01*
X48520716Y-43017204D01*
X48518073Y-43020839D01*
X48491493Y-43071178D01*
X48489979Y-43075416D01*
X48489979Y-43075417D01*
X47873639Y-44801171D01*
X47657659Y-45405914D01*
X47615911Y-45463339D01*
X47549744Y-45489077D01*
X47480166Y-45474957D01*
X47429267Y-45425461D01*
X47413000Y-45363536D01*
X47413000Y-45070252D01*
X47401367Y-45011769D01*
X47357052Y-44945448D01*
X47346739Y-44938557D01*
X47346737Y-44938555D01*
X47333582Y-44929765D01*
X47288054Y-44875288D01*
X47279207Y-44804844D01*
X47309848Y-44740801D01*
X47333582Y-44720235D01*
X47346737Y-44711445D01*
X47346739Y-44711443D01*
X47357052Y-44704552D01*
X47401367Y-44638231D01*
X47413000Y-44579748D01*
X47413000Y-43800252D01*
X47401367Y-43741769D01*
X47357052Y-43675448D01*
X47346739Y-43668557D01*
X47346737Y-43668555D01*
X47333582Y-43659765D01*
X47288054Y-43605288D01*
X47279207Y-43534844D01*
X47309848Y-43470801D01*
X47333582Y-43450235D01*
X47346737Y-43441445D01*
X47346739Y-43441443D01*
X47357052Y-43434552D01*
X47401367Y-43368231D01*
X47404107Y-43354459D01*
X47411793Y-43315816D01*
X47413000Y-43309748D01*
X47413000Y-42530252D01*
X47409540Y-42512856D01*
X47403788Y-42483939D01*
X47403788Y-42483938D01*
X47401367Y-42471769D01*
X47357052Y-42405448D01*
X47290731Y-42361133D01*
X47278562Y-42358712D01*
X47278561Y-42358712D01*
X47238316Y-42350707D01*
X47232248Y-42349500D01*
X44852001Y-42349500D01*
X44783880Y-42329498D01*
X44737387Y-42275842D01*
X44726481Y-42234486D01*
X44725980Y-42228762D01*
X44725500Y-42217776D01*
X44725500Y-40869710D01*
X44725980Y-40858728D01*
X44728303Y-40832180D01*
X44728303Y-40832178D01*
X44729264Y-40821193D01*
X44719508Y-40784785D01*
X44717130Y-40774058D01*
X44716538Y-40770699D01*
X44710588Y-40736955D01*
X44705077Y-40727410D01*
X44703885Y-40724134D01*
X44702408Y-40720966D01*
X44699554Y-40710316D01*
X44677945Y-40679456D01*
X44672039Y-40670185D01*
X44658707Y-40647094D01*
X44653194Y-40637545D01*
X44624317Y-40613315D01*
X44616215Y-40605889D01*
X43975921Y-39965595D01*
X43941895Y-39903283D01*
X43946960Y-39832468D01*
X43989507Y-39775632D01*
X44056027Y-39750821D01*
X44065016Y-39750500D01*
X47412984Y-39750500D01*
X47481105Y-39770502D01*
G37*
%TD.AperFunction*%
%TA.AperFunction,Conductor*%
G36*
X40663936Y-41995502D02*
G01*
X40710429Y-42049158D01*
X40719394Y-42076920D01*
X40723633Y-42098231D01*
X40767948Y-42164552D01*
X40778261Y-42171443D01*
X40778263Y-42171445D01*
X40791418Y-42180235D01*
X40836946Y-42234712D01*
X40845793Y-42305156D01*
X40815152Y-42369199D01*
X40791418Y-42389765D01*
X40778263Y-42398555D01*
X40778261Y-42398557D01*
X40767948Y-42405448D01*
X40723633Y-42471769D01*
X40721212Y-42483938D01*
X40721212Y-42483939D01*
X40715460Y-42512856D01*
X40712000Y-42530252D01*
X40712000Y-43309748D01*
X40713207Y-43315816D01*
X40720894Y-43354459D01*
X40723633Y-43368231D01*
X40767948Y-43434552D01*
X40778261Y-43441443D01*
X40778263Y-43441445D01*
X40791418Y-43450235D01*
X40836946Y-43504712D01*
X40845793Y-43575156D01*
X40815152Y-43639199D01*
X40791418Y-43659765D01*
X40778263Y-43668555D01*
X40778261Y-43668557D01*
X40767948Y-43675448D01*
X40723633Y-43741769D01*
X40721212Y-43753938D01*
X40721212Y-43753939D01*
X40719394Y-43763080D01*
X40686487Y-43825990D01*
X40624793Y-43861123D01*
X40595815Y-43864500D01*
X38217210Y-43864500D01*
X38206228Y-43864020D01*
X38179680Y-43861697D01*
X38179678Y-43861697D01*
X38168693Y-43860736D01*
X38132285Y-43870492D01*
X38121558Y-43872870D01*
X38118199Y-43873462D01*
X38084455Y-43879412D01*
X38074910Y-43884923D01*
X38071634Y-43886115D01*
X38068466Y-43887592D01*
X38057816Y-43890446D01*
X38048785Y-43896770D01*
X38026956Y-43912055D01*
X38017685Y-43917961D01*
X37994594Y-43931293D01*
X37985045Y-43936806D01*
X37977959Y-43945251D01*
X37960815Y-43965682D01*
X37953389Y-43973785D01*
X36714579Y-45212595D01*
X36652267Y-45246621D01*
X36625484Y-45249500D01*
X34999515Y-45249500D01*
X34931394Y-45229498D01*
X34910420Y-45212595D01*
X34556610Y-44858785D01*
X34549183Y-44850681D01*
X34532040Y-44830251D01*
X34532041Y-44830251D01*
X34524954Y-44821806D01*
X34515405Y-44816293D01*
X34492314Y-44802961D01*
X34483043Y-44797055D01*
X34461214Y-44781770D01*
X34452183Y-44775446D01*
X34441533Y-44772592D01*
X34438365Y-44771115D01*
X34435089Y-44769923D01*
X34425544Y-44764412D01*
X34391800Y-44758462D01*
X34388441Y-44757870D01*
X34377714Y-44755492D01*
X34341306Y-44745736D01*
X34330321Y-44746697D01*
X34330319Y-44746697D01*
X34303771Y-44749020D01*
X34292789Y-44749500D01*
X34035495Y-44749500D01*
X33997038Y-44741850D01*
X33994995Y-44740485D01*
X33982826Y-44738064D01*
X33982825Y-44738064D01*
X33920701Y-44725707D01*
X33914633Y-44724500D01*
X33826494Y-44724500D01*
X32626000Y-44724501D01*
X32557879Y-44704499D01*
X32511386Y-44650843D01*
X32500000Y-44598501D01*
X32500000Y-44551500D01*
X32520002Y-44483379D01*
X32573658Y-44436886D01*
X32626000Y-44425500D01*
X33826481Y-44425499D01*
X33914632Y-44425499D01*
X33920698Y-44424292D01*
X33920703Y-44424292D01*
X33982824Y-44411936D01*
X33982825Y-44411936D01*
X33994995Y-44409515D01*
X33997038Y-44408150D01*
X34035494Y-44400500D01*
X34292790Y-44400500D01*
X34303772Y-44400980D01*
X34330320Y-44403303D01*
X34330322Y-44403303D01*
X34341307Y-44404264D01*
X34377715Y-44394508D01*
X34388442Y-44392130D01*
X34391801Y-44391538D01*
X34425545Y-44385588D01*
X34435090Y-44380077D01*
X34438366Y-44378885D01*
X34441534Y-44377408D01*
X34452184Y-44374554D01*
X34483044Y-44352945D01*
X34492315Y-44347039D01*
X34515406Y-44333707D01*
X34524955Y-44328194D01*
X34546571Y-44302434D01*
X34605679Y-44263107D01*
X34676667Y-44261981D01*
X34696339Y-44269229D01*
X34803013Y-44318972D01*
X34852599Y-44325500D01*
X35062423Y-44325500D01*
X35272400Y-44325499D01*
X35321987Y-44318972D01*
X35352714Y-44304644D01*
X35420823Y-44272884D01*
X35420824Y-44272883D01*
X35430816Y-44268224D01*
X35515724Y-44183316D01*
X35531727Y-44148999D01*
X35562398Y-44083224D01*
X35562398Y-44083223D01*
X35566472Y-44074487D01*
X35573000Y-44024901D01*
X35572999Y-43665100D01*
X35566472Y-43615513D01*
X35558909Y-43599293D01*
X35524805Y-43526158D01*
X35513000Y-43472908D01*
X35513000Y-42671719D01*
X35513873Y-42656910D01*
X35516757Y-42632541D01*
X35517864Y-42623189D01*
X35516172Y-42613926D01*
X35516172Y-42613919D01*
X35507325Y-42565482D01*
X35506674Y-42561575D01*
X35499350Y-42512856D01*
X35499350Y-42512855D01*
X35497949Y-42503538D01*
X35494821Y-42497025D01*
X35493525Y-42489927D01*
X35466472Y-42437847D01*
X35464723Y-42434345D01*
X35443387Y-42389913D01*
X35443386Y-42389912D01*
X35439309Y-42381421D01*
X35434423Y-42376136D01*
X35434392Y-42376089D01*
X35431079Y-42369711D01*
X35426775Y-42364672D01*
X35389548Y-42327445D01*
X35386118Y-42323879D01*
X35353746Y-42288859D01*
X35347354Y-42281944D01*
X35340995Y-42278251D01*
X35334837Y-42272734D01*
X35252698Y-42190595D01*
X35218672Y-42128283D01*
X35223737Y-42057468D01*
X35266284Y-42000632D01*
X35332804Y-41975821D01*
X35341793Y-41975500D01*
X40595815Y-41975500D01*
X40663936Y-41995502D01*
G37*
%TD.AperFunction*%
%TA.AperFunction,Conductor*%
G36*
X53191621Y-39045002D02*
G01*
X53238114Y-39098658D01*
X53249500Y-39151000D01*
X53249500Y-39787984D01*
X53229498Y-39856105D01*
X53212595Y-39877079D01*
X51023999Y-42065675D01*
X50961687Y-42099701D01*
X50890872Y-42094636D01*
X50878563Y-42089281D01*
X50094670Y-41697335D01*
X50042687Y-41648981D01*
X50025020Y-41584638D01*
X50025020Y-41262496D01*
X50045022Y-41194375D01*
X50061925Y-41173401D01*
X50941215Y-40294111D01*
X50949319Y-40286684D01*
X50969749Y-40269541D01*
X50978194Y-40262455D01*
X50988422Y-40244740D01*
X50997039Y-40229815D01*
X51002945Y-40220544D01*
X51018230Y-40198715D01*
X51024554Y-40189684D01*
X51027408Y-40179034D01*
X51028885Y-40175866D01*
X51030077Y-40172590D01*
X51035588Y-40163045D01*
X51041123Y-40131653D01*
X51072651Y-40068041D01*
X51122556Y-40036081D01*
X51125304Y-40035646D01*
X51238342Y-39978050D01*
X51328050Y-39888342D01*
X51385646Y-39775304D01*
X51387747Y-39762042D01*
X51393534Y-39725500D01*
X51400500Y-39681519D01*
X51400499Y-39218482D01*
X51392933Y-39170709D01*
X51402033Y-39100298D01*
X51447756Y-39045985D01*
X51517382Y-39025000D01*
X53123500Y-39025000D01*
X53191621Y-39045002D01*
G37*
%TD.AperFunction*%
%TA.AperFunction,Conductor*%
G36*
X45441460Y-36470502D02*
G01*
X45462434Y-36487405D01*
X45476739Y-36501710D01*
X45510765Y-36564022D01*
X45505700Y-36634837D01*
X45457645Y-36695570D01*
X45415765Y-36723553D01*
X45415761Y-36723557D01*
X45405448Y-36730448D01*
X45361133Y-36796769D01*
X45349500Y-36855252D01*
X45349500Y-38394748D01*
X45361133Y-38453231D01*
X45366089Y-38460648D01*
X45375000Y-38505444D01*
X45375000Y-38973500D01*
X45354998Y-39041621D01*
X45301342Y-39088114D01*
X45249000Y-39099500D01*
X41587018Y-39099500D01*
X41518897Y-39079498D01*
X41497923Y-39062596D01*
X41212405Y-38777079D01*
X41178380Y-38714766D01*
X41175500Y-38687983D01*
X41175500Y-37512016D01*
X41195502Y-37443895D01*
X41212405Y-37422921D01*
X41427921Y-37207405D01*
X41490233Y-37173379D01*
X41517016Y-37170500D01*
X41724236Y-37170500D01*
X41792357Y-37190502D01*
X41823712Y-37220636D01*
X41825935Y-37225404D01*
X41909596Y-37309065D01*
X41919588Y-37313725D01*
X41919589Y-37313725D01*
X41962486Y-37333728D01*
X42016827Y-37359068D01*
X42065684Y-37365500D01*
X42414316Y-37365500D01*
X42463173Y-37359068D01*
X42517515Y-37333728D01*
X42560411Y-37313725D01*
X42560412Y-37313725D01*
X42570404Y-37309065D01*
X42654065Y-37225404D01*
X42654753Y-37226092D01*
X42702247Y-37188131D01*
X42772867Y-37180823D01*
X42836226Y-37212856D01*
X42844579Y-37222496D01*
X42845935Y-37225404D01*
X42929596Y-37309065D01*
X42939588Y-37313725D01*
X42939589Y-37313725D01*
X42982486Y-37333728D01*
X43036827Y-37359068D01*
X43085684Y-37365500D01*
X43434316Y-37365500D01*
X43483173Y-37359068D01*
X43537515Y-37333728D01*
X43580411Y-37313725D01*
X43580412Y-37313725D01*
X43590404Y-37309065D01*
X43674065Y-37225404D01*
X43679916Y-37212856D01*
X43719994Y-37126910D01*
X43719994Y-37126909D01*
X43724068Y-37118173D01*
X43730500Y-37069316D01*
X43730500Y-36646661D01*
X43750502Y-36578540D01*
X43767405Y-36557566D01*
X43837566Y-36487405D01*
X43899878Y-36453379D01*
X43926661Y-36450500D01*
X45373339Y-36450500D01*
X45441460Y-36470502D01*
G37*
%TD.AperFunction*%
%TA.AperFunction,Conductor*%
G36*
X48466637Y-26085294D02*
G01*
X48375375Y-26116362D01*
X48375372Y-26116363D01*
X48466637Y-26085294D01*
X48516768Y-26068228D01*
X48516769Y-26068228D01*
X48466637Y-26085294D01*
G37*
%TD.AperFunction*%
%TD*%
M02*
