M48
; DRILL file {KiCad (6.0.2-0)} date Sunday, May 22, 2022 at 12:16:40 PM
; FORMAT={-:-/ absolute / inch / decimal}
; #@! TF.CreationDate,2022-05-22T12:16:40-06:00
; #@! TF.GenerationSoftware,Kicad,Pcbnew,(6.0.2-0)
; #@! TF.FileFunction,Plated,1,2,PTH
FMAT,2
INCH
; #@! TA.AperFunction,Plated,PTH,ViaDrill
T1C0.0079
; #@! TA.AperFunction,Plated,PTH,ComponentDrill
T2C0.0118
; #@! TA.AperFunction,Plated,PTH,ViaDrill
T3C0.0157
; #@! TA.AperFunction,Plated,PTH,ComponentDrill
T4C0.0197
; #@! TA.AperFunction,Plated,PTH,ComponentDrill
T5C0.0315
; #@! TA.AperFunction,Plated,PTH,ComponentDrill
T6C0.0472
; #@! TA.AperFunction,Plated,PTH,ComponentDrill
T7C0.0984
; #@! TA.AperFunction,Plated,PTH,ComponentDrill
T8C0.1260
%
G90
G05
T1
X0.6811Y-1.8868
X0.8159Y-1.7254
X0.8214Y-1.9429
X0.8829Y-1.7854
X0.8947Y-1.8681
X0.8947Y-1.998
X1.2697Y-1.5226
X1.2933Y-1.499
X1.5281Y-1.6073
X1.5281Y-1.8396
X1.6663Y-0.8543
X1.6673Y-1.0049
T2
X1.7421Y-0.9459
X1.7421Y-0.9931
X1.7854Y-0.9459
X1.7854Y-0.9931
X1.8366Y-0.9459
X1.8366Y-0.9931
X1.8839Y-0.9459
X1.8839Y-0.9931
T3
X0.7136Y-1.4744
X0.7136Y-1.623
X0.8366Y-1.4744
X0.9232Y-1.6024
X0.9469Y-2.123
X0.9587Y-1.6024
X0.9587Y-1.6634
X0.9626Y-1.4754
X0.9941Y-1.6634
X1.0463Y-1.5246
X1.2224Y-2.1122
X1.3051Y-2.0787
X1.3445Y-1.6683
X1.3563Y-1.252
X1.3563Y-1.3337
X1.4163Y-1.7638
X1.4163Y-1.8396
X1.4163Y-1.9213
X1.4163Y-2.0177
X1.4163Y-2.1043
X1.4783Y-1.251
X1.4783Y-1.3337
X1.5591Y-2.0167
X1.5591Y-2.1033
X1.6004Y-1.251
X1.6004Y-1.3337
X1.628Y-2.2766
X1.628Y-2.3632
X1.6909Y-2.0167
X1.6909Y-2.1033
X1.7028Y-1.499
X1.7047Y-1.3337
X1.7598Y-2.2766
X1.873Y-2.2766
X1.873Y-2.3632
X1.8996Y-0.7776
X1.9035Y-1.6398
X1.9035Y-1.8396
X1.939Y-1.3524
X1.998Y-1.6319
X2.1191Y-1.2835
X2.1417Y-1.4035
X2.1427Y-1.562
X2.1427Y-1.7165
X2.1993Y-1.4035
X2.2003Y-1.562
X2.2003Y-1.7165
X2.2569Y-1.4035
X2.2579Y-1.562
X2.2579Y-1.7165
X2.2598Y-1.1683
X2.2598Y-1.2067
X2.2598Y-1.2451
T4
X0.7096Y-2.2746
X0.7373Y-2.2078
X0.7373Y-2.3414
X0.8041Y-2.1801
X0.8041Y-2.3691
X0.8709Y-2.2078
X0.8709Y-2.3414
X0.8986Y-2.2746
X2.0512Y-2.2746
X2.0789Y-2.2078
X2.0789Y-2.3414
X2.1457Y-2.1801
X2.1457Y-2.3691
X2.2125Y-2.2078
X2.2125Y-2.3414
X2.2402Y-2.2746
T5
X2.1368Y-0.8661
X2.2368Y-0.8661
T6
X1.0743Y-0.9529
X1.0743Y-1.0389
X1.0743Y-1.1248
X1.0743Y-1.2108
T7
X0.8332Y-0.9237
X0.8332Y-1.2387
T8
X0.8041Y-2.2746
X2.1457Y-2.2746
T0
M30
