%TF.GenerationSoftware,KiCad,Pcbnew,(6.0.2-0)*%
%TF.CreationDate,2022-05-22T12:16:40-06:00*%
%TF.ProjectId,epas-controller,65706173-2d63-46f6-9e74-726f6c6c6572,rev?*%
%TF.SameCoordinates,Original*%
%TF.FileFunction,Legend,Top*%
%TF.FilePolarity,Positive*%
%FSLAX46Y46*%
G04 Gerber Fmt 4.6, Leading zero omitted, Abs format (unit mm)*
G04 Created by KiCad (PCBNEW (6.0.2-0)) date 2022-05-22 12:16:40*
%MOMM*%
%LPD*%
G01*
G04 APERTURE LIST*
G04 Aperture macros list*
%AMRoundRect*
0 Rectangle with rounded corners*
0 $1 Rounding radius*
0 $2 $3 $4 $5 $6 $7 $8 $9 X,Y pos of 4 corners*
0 Add a 4 corners polygon primitive as box body*
4,1,4,$2,$3,$4,$5,$6,$7,$8,$9,$2,$3,0*
0 Add four circle primitives for the rounded corners*
1,1,$1+$1,$2,$3*
1,1,$1+$1,$4,$5*
1,1,$1+$1,$6,$7*
1,1,$1+$1,$8,$9*
0 Add four rect primitives between the rounded corners*
20,1,$1+$1,$2,$3,$4,$5,0*
20,1,$1+$1,$4,$5,$6,$7,0*
20,1,$1+$1,$6,$7,$8,$9,0*
20,1,$1+$1,$8,$9,$2,$3,0*%
G04 Aperture macros list end*
%ADD10C,0.125000*%
%ADD11C,0.120000*%
%ADD12C,0.150000*%
%ADD13C,0.254000*%
%ADD14C,0.127000*%
%ADD15RoundRect,0.140000X-0.170000X0.140000X-0.170000X-0.140000X0.170000X-0.140000X0.170000X0.140000X0*%
%ADD16RoundRect,0.075000X-0.662500X-0.075000X0.662500X-0.075000X0.662500X0.075000X-0.662500X0.075000X0*%
%ADD17RoundRect,0.075000X-0.075000X-0.662500X0.075000X-0.662500X0.075000X0.662500X-0.075000X0.662500X0*%
%ADD18R,1.200000X1.400000*%
%ADD19RoundRect,0.140000X0.170000X-0.140000X0.170000X0.140000X-0.170000X0.140000X-0.170000X-0.140000X0*%
%ADD20R,2.400000X0.740000*%
%ADD21RoundRect,0.250000X0.250000X0.475000X-0.250000X0.475000X-0.250000X-0.475000X0.250000X-0.475000X0*%
%ADD22RoundRect,0.140000X0.140000X0.170000X-0.140000X0.170000X-0.140000X-0.170000X0.140000X-0.170000X0*%
%ADD23RoundRect,0.250000X-0.250000X-0.475000X0.250000X-0.475000X0.250000X0.475000X-0.250000X0.475000X0*%
%ADD24RoundRect,0.135000X0.135000X0.185000X-0.135000X0.185000X-0.135000X-0.185000X0.135000X-0.185000X0*%
%ADD25RoundRect,0.218750X0.256250X-0.218750X0.256250X0.218750X-0.256250X0.218750X-0.256250X-0.218750X0*%
%ADD26R,1.600000X5.700000*%
%ADD27RoundRect,0.250000X0.450000X-0.262500X0.450000X0.262500X-0.450000X0.262500X-0.450000X-0.262500X0*%
%ADD28RoundRect,0.140000X-0.140000X-0.170000X0.140000X-0.170000X0.140000X0.170000X-0.140000X0.170000X0*%
%ADD29RoundRect,0.200000X-0.200000X-0.275000X0.200000X-0.275000X0.200000X0.275000X-0.200000X0.275000X0*%
%ADD30C,0.800000*%
%ADD31C,6.400000*%
%ADD32R,1.000000X1.500000*%
%ADD33RoundRect,0.200000X-0.275000X0.200000X-0.275000X-0.200000X0.275000X-0.200000X0.275000X0.200000X0*%
%ADD34R,1.100000X1.100000*%
%ADD35C,1.400000*%
%ADD36C,1.800000*%
%ADD37C,4.000000*%
%ADD38R,2.000000X2.000000*%
%ADD39RoundRect,0.250000X-0.475000X0.250000X-0.475000X-0.250000X0.475000X-0.250000X0.475000X0.250000X0*%
%ADD40R,2.500000X1.800000*%
%ADD41R,0.600000X1.550000*%
%ADD42R,3.100000X2.600000*%
%ADD43RoundRect,0.150000X0.825000X0.150000X-0.825000X0.150000X-0.825000X-0.150000X0.825000X-0.150000X0*%
G04 APERTURE END LIST*
D10*
X51896321Y-41416797D02*
X52507121Y-41194484D01*
X51991598Y-41678568D02*
X52311541Y-41562119D01*
X52359126Y-41511860D01*
X52367039Y-41443102D01*
X52335280Y-41355845D01*
X52285022Y-41308260D01*
X52245349Y-41289761D01*
X52472902Y-41733960D02*
X52557593Y-41966645D01*
X52708261Y-41747112D02*
X52184718Y-41937667D01*
X52137133Y-41987925D01*
X52129220Y-42056683D01*
X52150393Y-42114854D01*
X52599938Y-42082988D02*
X52684629Y-42315674D01*
X52835297Y-42096141D02*
X52311754Y-42286695D01*
X52264169Y-42336954D01*
X52256256Y-42405711D01*
X52277429Y-42463883D01*
X52758733Y-42519274D02*
X52147933Y-42741587D01*
X52729648Y-42529861D02*
X52779906Y-42577446D01*
X52822251Y-42693789D01*
X52814338Y-42762546D01*
X52795839Y-42802218D01*
X52748254Y-42852477D01*
X52573740Y-42915995D01*
X52504982Y-42908082D01*
X52465310Y-42889582D01*
X52415051Y-42841997D01*
X52372706Y-42725654D01*
X52380619Y-42656897D01*
X52571173Y-43180440D02*
X52563260Y-43249197D01*
X52605605Y-43365540D01*
X52655864Y-43413125D01*
X52724622Y-43421039D01*
X52753707Y-43410452D01*
X52801292Y-43360194D01*
X52809205Y-43291436D01*
X52777446Y-43204179D01*
X52785360Y-43135421D01*
X52832945Y-43085163D01*
X52862030Y-43074576D01*
X52930788Y-43082489D01*
X52981047Y-43130074D01*
X53012806Y-43217332D01*
X53004893Y-43286089D01*
X52790813Y-43693396D02*
X52772314Y-43733068D01*
X52732641Y-43714569D01*
X52751141Y-43674897D01*
X52790813Y-43693396D01*
X52732641Y-43714569D01*
X53110756Y-43576947D02*
X53092257Y-43616619D01*
X53052584Y-43598119D01*
X53071084Y-43558447D01*
X53110756Y-43576947D01*
X53052584Y-43598119D01*
X53637186Y-44208813D02*
X52661317Y-43971101D01*
X53870085Y-44848699D02*
X52894217Y-44610987D01*
X53428666Y-45536383D02*
X53378408Y-45488798D01*
X53336063Y-45372455D01*
X53343976Y-45303698D01*
X53362475Y-45264025D01*
X53410060Y-45213767D01*
X53584575Y-45150249D01*
X53653332Y-45158162D01*
X53693004Y-45176661D01*
X53743263Y-45224247D01*
X53785608Y-45340589D01*
X53777695Y-45409347D01*
X53526617Y-45895998D02*
X53534530Y-45827241D01*
X53553029Y-45787568D01*
X53600614Y-45737310D01*
X53775129Y-45673792D01*
X53843886Y-45681705D01*
X53883559Y-45700204D01*
X53933817Y-45747790D01*
X53965576Y-45835047D01*
X53957663Y-45903805D01*
X53939164Y-45943477D01*
X53891578Y-45993735D01*
X53717064Y-46057253D01*
X53648306Y-46049340D01*
X53608634Y-46030841D01*
X53558376Y-45983256D01*
X53526617Y-45895998D01*
X54103198Y-46213161D02*
X53695998Y-46361370D01*
X54045027Y-46234334D02*
X54084699Y-46252833D01*
X54134957Y-46300418D01*
X54166716Y-46387676D01*
X54158803Y-46456433D01*
X54111218Y-46506692D01*
X53791275Y-46623141D01*
X54010915Y-47136098D02*
X53960657Y-47088513D01*
X53918311Y-46972170D01*
X53926224Y-46903412D01*
X53973809Y-46853154D01*
X54206495Y-46768463D01*
X54275253Y-46776376D01*
X54325511Y-46823961D01*
X54367857Y-46940304D01*
X54359944Y-47009062D01*
X54312359Y-47059320D01*
X54254187Y-47080493D01*
X54090152Y-46810809D01*
X54145864Y-47416369D02*
X54127365Y-47456041D01*
X54087693Y-47437542D01*
X54106192Y-47397870D01*
X54145864Y-47416369D01*
X54087693Y-47437542D01*
X54317919Y-47979584D02*
X54267660Y-47931999D01*
X54225315Y-47815656D01*
X54233228Y-47746898D01*
X54251728Y-47707226D01*
X54299313Y-47656968D01*
X54473827Y-47593450D01*
X54542585Y-47601363D01*
X54582257Y-47619862D01*
X54632515Y-47667447D01*
X54674861Y-47783790D01*
X54666948Y-47852548D01*
X54415869Y-48339199D02*
X54423782Y-48270441D01*
X54442282Y-48230769D01*
X54489867Y-48180511D01*
X54664381Y-48116993D01*
X54733139Y-48124906D01*
X54772811Y-48143405D01*
X54823069Y-48190990D01*
X54854828Y-48278248D01*
X54846915Y-48347005D01*
X54828416Y-48386677D01*
X54780831Y-48436936D01*
X54606316Y-48500454D01*
X54537559Y-48492541D01*
X54497887Y-48474041D01*
X54447628Y-48426456D01*
X54415869Y-48339199D01*
X54680528Y-49066342D02*
X55291328Y-48844029D01*
X54709613Y-49055756D02*
X54659355Y-49008171D01*
X54617010Y-48891828D01*
X54624923Y-48823070D01*
X54643422Y-48783398D01*
X54691007Y-48733140D01*
X54865521Y-48669622D01*
X54934279Y-48677535D01*
X54973951Y-48696034D01*
X55024210Y-48743619D01*
X55066555Y-48859962D01*
X55058642Y-48928720D01*
X54900167Y-49579299D02*
X54849909Y-49531714D01*
X54807564Y-49415371D01*
X54815477Y-49346613D01*
X54863062Y-49296355D01*
X55095748Y-49211664D01*
X55164505Y-49219577D01*
X55214764Y-49267162D01*
X55257109Y-49383505D01*
X55249196Y-49452263D01*
X55201611Y-49502521D01*
X55143440Y-49523694D01*
X54979405Y-49254009D01*
X54995444Y-49841070D02*
X54987531Y-49909828D01*
X55029877Y-50026171D01*
X55080135Y-50073756D01*
X55148893Y-50081669D01*
X55177979Y-50071083D01*
X55225564Y-50020825D01*
X55233477Y-49952067D01*
X55201718Y-49864810D01*
X55209631Y-49796052D01*
X55257216Y-49745793D01*
X55286302Y-49735207D01*
X55355059Y-49743120D01*
X55405318Y-49790705D01*
X55437077Y-49877962D01*
X55429164Y-49946720D01*
D11*
X23775000Y-44075000D02*
G75*
G03*
X23775000Y-44075000I-50000J0D01*
G01*
X41975000Y-25525000D02*
G75*
G03*
X41975000Y-25525000I-50000J0D01*
G01*
X40375000Y-41650000D02*
G75*
G03*
X40375000Y-41650000I-50000J0D01*
G01*
X48025000Y-20700000D02*
G75*
G03*
X48025000Y-20700000I-50000J0D01*
G01*
D12*
X29054761Y-30871428D02*
X29550000Y-30871428D01*
X29302380Y-31119047D02*
X29302380Y-30623809D01*
X30200000Y-31119047D02*
X29828571Y-31119047D01*
X30014285Y-31119047D02*
X30014285Y-30469047D01*
X29952380Y-30561904D01*
X29890476Y-30623809D01*
X29828571Y-30654761D01*
X30447619Y-30530952D02*
X30478571Y-30500000D01*
X30540476Y-30469047D01*
X30695238Y-30469047D01*
X30757142Y-30500000D01*
X30788095Y-30530952D01*
X30819047Y-30592857D01*
X30819047Y-30654761D01*
X30788095Y-30747619D01*
X30416666Y-31119047D01*
X30819047Y-31119047D01*
X31004761Y-30469047D02*
X31221428Y-31119047D01*
X31438095Y-30469047D01*
X45761904Y-39178571D02*
X45854761Y-39209523D01*
X45885714Y-39240476D01*
X45916666Y-39302380D01*
X45916666Y-39395238D01*
X45885714Y-39457142D01*
X45854761Y-39488095D01*
X45792857Y-39519047D01*
X45545238Y-39519047D01*
X45545238Y-38869047D01*
X45761904Y-38869047D01*
X45823809Y-38900000D01*
X45854761Y-38930952D01*
X45885714Y-38992857D01*
X45885714Y-39054761D01*
X45854761Y-39116666D01*
X45823809Y-39147619D01*
X45761904Y-39178571D01*
X45545238Y-39178571D01*
X46535714Y-39519047D02*
X46164285Y-39519047D01*
X46350000Y-39519047D02*
X46350000Y-38869047D01*
X46288095Y-38961904D01*
X46226190Y-39023809D01*
X46164285Y-39054761D01*
X50141666Y-33363095D02*
X50234523Y-33394047D01*
X50389285Y-33394047D01*
X50451190Y-33363095D01*
X50482142Y-33332142D01*
X50513095Y-33270238D01*
X50513095Y-33208333D01*
X50482142Y-33146428D01*
X50451190Y-33115476D01*
X50389285Y-33084523D01*
X50265476Y-33053571D01*
X50203571Y-33022619D01*
X50172619Y-32991666D01*
X50141666Y-32929761D01*
X50141666Y-32867857D01*
X50172619Y-32805952D01*
X50203571Y-32775000D01*
X50265476Y-32744047D01*
X50420238Y-32744047D01*
X50513095Y-32775000D01*
X50698809Y-32960714D02*
X50946428Y-32960714D01*
X50791666Y-32744047D02*
X50791666Y-33301190D01*
X50822619Y-33363095D01*
X50884523Y-33394047D01*
X50946428Y-33394047D01*
X51441666Y-33394047D02*
X51441666Y-33053571D01*
X51410714Y-32991666D01*
X51348809Y-32960714D01*
X51225000Y-32960714D01*
X51163095Y-32991666D01*
X51441666Y-33363095D02*
X51379761Y-33394047D01*
X51225000Y-33394047D01*
X51163095Y-33363095D01*
X51132142Y-33301190D01*
X51132142Y-33239285D01*
X51163095Y-33177380D01*
X51225000Y-33146428D01*
X51379761Y-33146428D01*
X51441666Y-33115476D01*
X51658333Y-32960714D02*
X51905952Y-32960714D01*
X51751190Y-32744047D02*
X51751190Y-33301190D01*
X51782142Y-33363095D01*
X51844047Y-33394047D01*
X51905952Y-33394047D01*
X52401190Y-32960714D02*
X52401190Y-33394047D01*
X52122619Y-32960714D02*
X52122619Y-33301190D01*
X52153571Y-33363095D01*
X52215476Y-33394047D01*
X52308333Y-33394047D01*
X52370238Y-33363095D01*
X52401190Y-33332142D01*
X52679761Y-33363095D02*
X52741666Y-33394047D01*
X52865476Y-33394047D01*
X52927380Y-33363095D01*
X52958333Y-33301190D01*
X52958333Y-33270238D01*
X52927380Y-33208333D01*
X52865476Y-33177380D01*
X52772619Y-33177380D01*
X52710714Y-33146428D01*
X52679761Y-33084523D01*
X52679761Y-33053571D01*
X52710714Y-32991666D01*
X52772619Y-32960714D01*
X52865476Y-32960714D01*
X52927380Y-32991666D01*
X44054761Y-35675000D02*
X43992857Y-35644047D01*
X43900000Y-35644047D01*
X43807142Y-35675000D01*
X43745238Y-35736904D01*
X43714285Y-35798809D01*
X43683333Y-35922619D01*
X43683333Y-36015476D01*
X43714285Y-36139285D01*
X43745238Y-36201190D01*
X43807142Y-36263095D01*
X43900000Y-36294047D01*
X43961904Y-36294047D01*
X44054761Y-36263095D01*
X44085714Y-36232142D01*
X44085714Y-36015476D01*
X43961904Y-36015476D01*
X44364285Y-36294047D02*
X44364285Y-35644047D01*
X44735714Y-36294047D01*
X44735714Y-35644047D01*
X45045238Y-36294047D02*
X45045238Y-35644047D01*
X45200000Y-35644047D01*
X45292857Y-35675000D01*
X45354761Y-35736904D01*
X45385714Y-35798809D01*
X45416666Y-35922619D01*
X45416666Y-36015476D01*
X45385714Y-36139285D01*
X45354761Y-36201190D01*
X45292857Y-36263095D01*
X45200000Y-36294047D01*
X45045238Y-36294047D01*
X45761904Y-32778571D02*
X45854761Y-32809523D01*
X45885714Y-32840476D01*
X45916666Y-32902380D01*
X45916666Y-32995238D01*
X45885714Y-33057142D01*
X45854761Y-33088095D01*
X45792857Y-33119047D01*
X45545238Y-33119047D01*
X45545238Y-32469047D01*
X45761904Y-32469047D01*
X45823809Y-32500000D01*
X45854761Y-32530952D01*
X45885714Y-32592857D01*
X45885714Y-32654761D01*
X45854761Y-32716666D01*
X45823809Y-32747619D01*
X45761904Y-32778571D01*
X45545238Y-32778571D01*
X46319047Y-32469047D02*
X46380952Y-32469047D01*
X46442857Y-32500000D01*
X46473809Y-32530952D01*
X46504761Y-32592857D01*
X46535714Y-32716666D01*
X46535714Y-32871428D01*
X46504761Y-32995238D01*
X46473809Y-33057142D01*
X46442857Y-33088095D01*
X46380952Y-33119047D01*
X46319047Y-33119047D01*
X46257142Y-33088095D01*
X46226190Y-33057142D01*
X46195238Y-32995238D01*
X46164285Y-32871428D01*
X46164285Y-32716666D01*
X46195238Y-32592857D01*
X46226190Y-32530952D01*
X46257142Y-32500000D01*
X46319047Y-32469047D01*
X40088095Y-59320797D02*
X39871428Y-59011273D01*
X39716666Y-59320797D02*
X39716666Y-58670797D01*
X39964285Y-58670797D01*
X40026190Y-58701750D01*
X40057142Y-58732702D01*
X40088095Y-58794607D01*
X40088095Y-58887464D01*
X40057142Y-58949369D01*
X40026190Y-58980321D01*
X39964285Y-59011273D01*
X39716666Y-59011273D01*
X40304761Y-58670797D02*
X40738095Y-59320797D01*
X40738095Y-58670797D02*
X40304761Y-59320797D01*
X40985714Y-59073178D02*
X41480952Y-59073178D01*
X41883333Y-58949369D02*
X41821428Y-58918416D01*
X41790476Y-58887464D01*
X41759523Y-58825559D01*
X41759523Y-58794607D01*
X41790476Y-58732702D01*
X41821428Y-58701750D01*
X41883333Y-58670797D01*
X42007142Y-58670797D01*
X42069047Y-58701750D01*
X42100000Y-58732702D01*
X42130952Y-58794607D01*
X42130952Y-58825559D01*
X42100000Y-58887464D01*
X42069047Y-58918416D01*
X42007142Y-58949369D01*
X41883333Y-58949369D01*
X41821428Y-58980321D01*
X41790476Y-59011273D01*
X41759523Y-59073178D01*
X41759523Y-59196988D01*
X41790476Y-59258892D01*
X41821428Y-59289845D01*
X41883333Y-59320797D01*
X42007142Y-59320797D01*
X42069047Y-59289845D01*
X42100000Y-59258892D01*
X42130952Y-59196988D01*
X42130952Y-59073178D01*
X42100000Y-59011273D01*
X42069047Y-58980321D01*
X42007142Y-58949369D01*
X42904761Y-58980321D02*
X43121428Y-58980321D01*
X43214285Y-59320797D02*
X42904761Y-59320797D01*
X42904761Y-58670797D01*
X43214285Y-58670797D01*
X43492857Y-59320797D02*
X43492857Y-58670797D01*
X43740476Y-58670797D01*
X43802380Y-58701750D01*
X43833333Y-58732702D01*
X43864285Y-58794607D01*
X43864285Y-58887464D01*
X43833333Y-58949369D01*
X43802380Y-58980321D01*
X43740476Y-59011273D01*
X43492857Y-59011273D01*
X44111904Y-59135083D02*
X44421428Y-59135083D01*
X44050000Y-59320797D02*
X44266666Y-58670797D01*
X44483333Y-59320797D01*
X44669047Y-59289845D02*
X44761904Y-59320797D01*
X44916666Y-59320797D01*
X44978571Y-59289845D01*
X45009523Y-59258892D01*
X45040476Y-59196988D01*
X45040476Y-59135083D01*
X45009523Y-59073178D01*
X44978571Y-59042226D01*
X44916666Y-59011273D01*
X44792857Y-58980321D01*
X44730952Y-58949369D01*
X44700000Y-58918416D01*
X44669047Y-58856511D01*
X44669047Y-58794607D01*
X44700000Y-58732702D01*
X44730952Y-58701750D01*
X44792857Y-58670797D01*
X44947619Y-58670797D01*
X45040476Y-58701750D01*
X46185714Y-59258892D02*
X46154761Y-59289845D01*
X46061904Y-59320797D01*
X46000000Y-59320797D01*
X45907142Y-59289845D01*
X45845238Y-59227940D01*
X45814285Y-59166035D01*
X45783333Y-59042226D01*
X45783333Y-58949369D01*
X45814285Y-58825559D01*
X45845238Y-58763654D01*
X45907142Y-58701750D01*
X46000000Y-58670797D01*
X46061904Y-58670797D01*
X46154761Y-58701750D01*
X46185714Y-58732702D01*
X46557142Y-59320797D02*
X46495238Y-59289845D01*
X46464285Y-59258892D01*
X46433333Y-59196988D01*
X46433333Y-59011273D01*
X46464285Y-58949369D01*
X46495238Y-58918416D01*
X46557142Y-58887464D01*
X46650000Y-58887464D01*
X46711904Y-58918416D01*
X46742857Y-58949369D01*
X46773809Y-59011273D01*
X46773809Y-59196988D01*
X46742857Y-59258892D01*
X46711904Y-59289845D01*
X46650000Y-59320797D01*
X46557142Y-59320797D01*
X47052380Y-58887464D02*
X47052380Y-59320797D01*
X47052380Y-58949369D02*
X47083333Y-58918416D01*
X47145238Y-58887464D01*
X47238095Y-58887464D01*
X47300000Y-58918416D01*
X47330952Y-58980321D01*
X47330952Y-59320797D01*
X47547619Y-58887464D02*
X47795238Y-58887464D01*
X47640476Y-58670797D02*
X47640476Y-59227940D01*
X47671428Y-59289845D01*
X47733333Y-59320797D01*
X47795238Y-59320797D01*
X48011904Y-59320797D02*
X48011904Y-58887464D01*
X48011904Y-59011273D02*
X48042857Y-58949369D01*
X48073809Y-58918416D01*
X48135714Y-58887464D01*
X48197619Y-58887464D01*
X48507142Y-59320797D02*
X48445238Y-59289845D01*
X48414285Y-59258892D01*
X48383333Y-59196988D01*
X48383333Y-59011273D01*
X48414285Y-58949369D01*
X48445238Y-58918416D01*
X48507142Y-58887464D01*
X48600000Y-58887464D01*
X48661904Y-58918416D01*
X48692857Y-58949369D01*
X48723809Y-59011273D01*
X48723809Y-59196988D01*
X48692857Y-59258892D01*
X48661904Y-59289845D01*
X48600000Y-59320797D01*
X48507142Y-59320797D01*
X49095238Y-59320797D02*
X49033333Y-59289845D01*
X49002380Y-59227940D01*
X49002380Y-58670797D01*
X49435714Y-59320797D02*
X49373809Y-59289845D01*
X49342857Y-59227940D01*
X49342857Y-58670797D01*
X49930952Y-59289845D02*
X49869047Y-59320797D01*
X49745238Y-59320797D01*
X49683333Y-59289845D01*
X49652380Y-59227940D01*
X49652380Y-58980321D01*
X49683333Y-58918416D01*
X49745238Y-58887464D01*
X49869047Y-58887464D01*
X49930952Y-58918416D01*
X49961904Y-58980321D01*
X49961904Y-59042226D01*
X49652380Y-59104130D01*
X50240476Y-59320797D02*
X50240476Y-58887464D01*
X50240476Y-59011273D02*
X50271428Y-58949369D01*
X50302380Y-58918416D01*
X50364285Y-58887464D01*
X50426190Y-58887464D01*
X44127380Y-60367297D02*
X43910714Y-60057773D01*
X43755952Y-60367297D02*
X43755952Y-59717297D01*
X44003571Y-59717297D01*
X44065476Y-59748250D01*
X44096428Y-59779202D01*
X44127380Y-59841107D01*
X44127380Y-59933964D01*
X44096428Y-59995869D01*
X44065476Y-60026821D01*
X44003571Y-60057773D01*
X43755952Y-60057773D01*
X44405952Y-60026821D02*
X44622619Y-60026821D01*
X44715476Y-60367297D02*
X44405952Y-60367297D01*
X44405952Y-59717297D01*
X44715476Y-59717297D01*
X44901190Y-59717297D02*
X45117857Y-60367297D01*
X45334523Y-59717297D01*
X46015476Y-60181583D02*
X46325000Y-60181583D01*
X45953571Y-60367297D02*
X46170238Y-59717297D01*
X46386904Y-60367297D01*
X29344047Y-26582142D02*
X29313095Y-26613095D01*
X29220238Y-26644047D01*
X29158333Y-26644047D01*
X29065476Y-26613095D01*
X29003571Y-26551190D01*
X28972619Y-26489285D01*
X28941666Y-26365476D01*
X28941666Y-26272619D01*
X28972619Y-26148809D01*
X29003571Y-26086904D01*
X29065476Y-26025000D01*
X29158333Y-25994047D01*
X29220238Y-25994047D01*
X29313095Y-26025000D01*
X29344047Y-26055952D01*
X29591666Y-26458333D02*
X29901190Y-26458333D01*
X29529761Y-26644047D02*
X29746428Y-25994047D01*
X29963095Y-26644047D01*
X30179761Y-26644047D02*
X30179761Y-25994047D01*
X30551190Y-26644047D01*
X30551190Y-25994047D01*
X30860714Y-26644047D02*
X30860714Y-25994047D01*
X30860714Y-26303571D02*
X31232142Y-26303571D01*
X31232142Y-26644047D02*
X31232142Y-25994047D01*
X29344047Y-24457142D02*
X29313095Y-24488095D01*
X29220238Y-24519047D01*
X29158333Y-24519047D01*
X29065476Y-24488095D01*
X29003571Y-24426190D01*
X28972619Y-24364285D01*
X28941666Y-24240476D01*
X28941666Y-24147619D01*
X28972619Y-24023809D01*
X29003571Y-23961904D01*
X29065476Y-23900000D01*
X29158333Y-23869047D01*
X29220238Y-23869047D01*
X29313095Y-23900000D01*
X29344047Y-23930952D01*
X29591666Y-24333333D02*
X29901190Y-24333333D01*
X29529761Y-24519047D02*
X29746428Y-23869047D01*
X29963095Y-24519047D01*
X30179761Y-24519047D02*
X30179761Y-23869047D01*
X30551190Y-24519047D01*
X30551190Y-23869047D01*
X31170238Y-24519047D02*
X30860714Y-24519047D01*
X30860714Y-23869047D01*
X27945238Y-61119047D02*
X27728571Y-60809523D01*
X27573809Y-61119047D02*
X27573809Y-60469047D01*
X27821428Y-60469047D01*
X27883333Y-60500000D01*
X27914285Y-60530952D01*
X27945238Y-60592857D01*
X27945238Y-60685714D01*
X27914285Y-60747619D01*
X27883333Y-60778571D01*
X27821428Y-60809523D01*
X27573809Y-60809523D01*
X28471428Y-61088095D02*
X28409523Y-61119047D01*
X28285714Y-61119047D01*
X28223809Y-61088095D01*
X28192857Y-61026190D01*
X28192857Y-60778571D01*
X28223809Y-60716666D01*
X28285714Y-60685714D01*
X28409523Y-60685714D01*
X28471428Y-60716666D01*
X28502380Y-60778571D01*
X28502380Y-60840476D01*
X28192857Y-60902380D01*
X28750000Y-61088095D02*
X28811904Y-61119047D01*
X28935714Y-61119047D01*
X28997619Y-61088095D01*
X29028571Y-61026190D01*
X29028571Y-60995238D01*
X28997619Y-60933333D01*
X28935714Y-60902380D01*
X28842857Y-60902380D01*
X28780952Y-60871428D01*
X28750000Y-60809523D01*
X28750000Y-60778571D01*
X28780952Y-60716666D01*
X28842857Y-60685714D01*
X28935714Y-60685714D01*
X28997619Y-60716666D01*
X29554761Y-61088095D02*
X29492857Y-61119047D01*
X29369047Y-61119047D01*
X29307142Y-61088095D01*
X29276190Y-61026190D01*
X29276190Y-60778571D01*
X29307142Y-60716666D01*
X29369047Y-60685714D01*
X29492857Y-60685714D01*
X29554761Y-60716666D01*
X29585714Y-60778571D01*
X29585714Y-60840476D01*
X29276190Y-60902380D01*
X29771428Y-60685714D02*
X30019047Y-60685714D01*
X29864285Y-60469047D02*
X29864285Y-61026190D01*
X29895238Y-61088095D01*
X29957142Y-61119047D01*
X30019047Y-61119047D01*
X55679761Y-19844047D02*
X55896428Y-20494047D01*
X56113095Y-19844047D01*
X56453571Y-19844047D02*
X56577380Y-19844047D01*
X56639285Y-19875000D01*
X56701190Y-19936904D01*
X56732142Y-20060714D01*
X56732142Y-20277380D01*
X56701190Y-20401190D01*
X56639285Y-20463095D01*
X56577380Y-20494047D01*
X56453571Y-20494047D01*
X56391666Y-20463095D01*
X56329761Y-20401190D01*
X56298809Y-20277380D01*
X56298809Y-20060714D01*
X56329761Y-19936904D01*
X56391666Y-19875000D01*
X56453571Y-19844047D01*
X57010714Y-19844047D02*
X57010714Y-20370238D01*
X57041666Y-20432142D01*
X57072619Y-20463095D01*
X57134523Y-20494047D01*
X57258333Y-20494047D01*
X57320238Y-20463095D01*
X57351190Y-20432142D01*
X57382142Y-20370238D01*
X57382142Y-19844047D01*
X57598809Y-19844047D02*
X57970238Y-19844047D01*
X57784523Y-20494047D02*
X57784523Y-19844047D01*
X53604761Y-19900000D02*
X53542857Y-19869047D01*
X53450000Y-19869047D01*
X53357142Y-19900000D01*
X53295238Y-19961904D01*
X53264285Y-20023809D01*
X53233333Y-20147619D01*
X53233333Y-20240476D01*
X53264285Y-20364285D01*
X53295238Y-20426190D01*
X53357142Y-20488095D01*
X53450000Y-20519047D01*
X53511904Y-20519047D01*
X53604761Y-20488095D01*
X53635714Y-20457142D01*
X53635714Y-20240476D01*
X53511904Y-20240476D01*
X53914285Y-20519047D02*
X53914285Y-19869047D01*
X54285714Y-20519047D01*
X54285714Y-19869047D01*
X54595238Y-20519047D02*
X54595238Y-19869047D01*
X54750000Y-19869047D01*
X54842857Y-19900000D01*
X54904761Y-19961904D01*
X54935714Y-20023809D01*
X54966666Y-20147619D01*
X54966666Y-20240476D01*
X54935714Y-20364285D01*
X54904761Y-20426190D01*
X54842857Y-20488095D01*
X54750000Y-20519047D01*
X54595238Y-20519047D01*
X29479761Y-28200000D02*
X29417857Y-28169047D01*
X29325000Y-28169047D01*
X29232142Y-28200000D01*
X29170238Y-28261904D01*
X29139285Y-28323809D01*
X29108333Y-28447619D01*
X29108333Y-28540476D01*
X29139285Y-28664285D01*
X29170238Y-28726190D01*
X29232142Y-28788095D01*
X29325000Y-28819047D01*
X29386904Y-28819047D01*
X29479761Y-28788095D01*
X29510714Y-28757142D01*
X29510714Y-28540476D01*
X29386904Y-28540476D01*
X29789285Y-28819047D02*
X29789285Y-28169047D01*
X30160714Y-28819047D01*
X30160714Y-28169047D01*
X30470238Y-28819047D02*
X30470238Y-28169047D01*
X30625000Y-28169047D01*
X30717857Y-28200000D01*
X30779761Y-28261904D01*
X30810714Y-28323809D01*
X30841666Y-28447619D01*
X30841666Y-28540476D01*
X30810714Y-28664285D01*
X30779761Y-28726190D01*
X30717857Y-28788095D01*
X30625000Y-28819047D01*
X30470238Y-28819047D01*
X46651190Y-35644047D02*
X47053571Y-35644047D01*
X46836904Y-35891666D01*
X46929761Y-35891666D01*
X46991666Y-35922619D01*
X47022619Y-35953571D01*
X47053571Y-36015476D01*
X47053571Y-36170238D01*
X47022619Y-36232142D01*
X46991666Y-36263095D01*
X46929761Y-36294047D01*
X46744047Y-36294047D01*
X46682142Y-36263095D01*
X46651190Y-36232142D01*
X47270238Y-35860714D02*
X47425000Y-36294047D01*
X47579761Y-35860714D01*
X47765476Y-35644047D02*
X48167857Y-35644047D01*
X47951190Y-35891666D01*
X48044047Y-35891666D01*
X48105952Y-35922619D01*
X48136904Y-35953571D01*
X48167857Y-36015476D01*
X48167857Y-36170238D01*
X48136904Y-36232142D01*
X48105952Y-36263095D01*
X48044047Y-36294047D01*
X47858333Y-36294047D01*
X47796428Y-36263095D01*
X47765476Y-36232142D01*
%TO.C,G\u002A\u002A\u002A*%
G36*
X46411739Y-50177018D02*
G01*
X46406740Y-50193079D01*
X46392391Y-50235265D01*
X46369660Y-50300816D01*
X46339519Y-50386968D01*
X46302936Y-50490959D01*
X46260883Y-50610028D01*
X46214329Y-50741412D01*
X46164244Y-50882349D01*
X46149939Y-50922528D01*
X46089383Y-51092595D01*
X46038432Y-51236373D01*
X45996478Y-51356499D01*
X45962912Y-51455608D01*
X45937125Y-51536338D01*
X45918506Y-51601326D01*
X45906447Y-51653206D01*
X45900339Y-51694618D01*
X45899572Y-51728195D01*
X45903537Y-51756576D01*
X45911625Y-51782397D01*
X45923227Y-51808294D01*
X45937732Y-51836904D01*
X45938356Y-51838126D01*
X45986902Y-51912033D01*
X46058232Y-51991755D01*
X46146669Y-52071656D01*
X46246540Y-52146099D01*
X46252351Y-52149988D01*
X46425203Y-52252141D01*
X46626187Y-52347998D01*
X46853363Y-52437322D01*
X47104793Y-52519875D01*
X47378536Y-52595421D01*
X47672653Y-52663723D01*
X47985204Y-52724544D01*
X48314249Y-52777646D01*
X48657849Y-52822793D01*
X49014064Y-52859749D01*
X49380955Y-52888274D01*
X49756581Y-52908134D01*
X50139003Y-52919091D01*
X50526282Y-52920907D01*
X50916478Y-52913346D01*
X51307651Y-52896171D01*
X51697862Y-52869145D01*
X51950147Y-52846175D01*
X52324347Y-52803361D01*
X52680038Y-52751694D01*
X53015844Y-52691544D01*
X53330392Y-52623287D01*
X53622307Y-52547293D01*
X53890213Y-52463938D01*
X54132737Y-52373592D01*
X54348504Y-52276630D01*
X54536139Y-52173424D01*
X54613040Y-52123672D01*
X54705478Y-52050950D01*
X54786719Y-51968544D01*
X54852881Y-51881752D01*
X54900080Y-51795870D01*
X54924434Y-51716193D01*
X54926616Y-51695966D01*
X54922392Y-51667509D01*
X54907870Y-51612719D01*
X54882925Y-51531216D01*
X54847435Y-51422626D01*
X54801277Y-51286572D01*
X54744326Y-51122677D01*
X54676461Y-50930564D01*
X54671726Y-50917250D01*
X54621457Y-50775254D01*
X54574804Y-50642077D01*
X54532702Y-50520497D01*
X54496091Y-50413286D01*
X54465907Y-50323221D01*
X54443088Y-50253076D01*
X54428571Y-50205627D01*
X54423295Y-50183648D01*
X54423474Y-50182500D01*
X54439118Y-50185491D01*
X54481451Y-50196799D01*
X54547867Y-50215630D01*
X54635763Y-50241190D01*
X54742535Y-50272684D01*
X54865579Y-50309317D01*
X55002291Y-50350296D01*
X55150066Y-50394826D01*
X55306301Y-50442113D01*
X55468392Y-50491362D01*
X55633735Y-50541779D01*
X55799725Y-50592570D01*
X55963759Y-50642940D01*
X56123233Y-50692094D01*
X56275543Y-50739239D01*
X56418084Y-50783580D01*
X56548253Y-50824323D01*
X56663446Y-50860673D01*
X56761059Y-50891836D01*
X56838487Y-50917017D01*
X56893126Y-50935423D01*
X56903043Y-50938916D01*
X57020706Y-50984768D01*
X57146207Y-51040305D01*
X57272077Y-51101721D01*
X57390846Y-51165207D01*
X57495047Y-51226956D01*
X57574891Y-51281406D01*
X57682806Y-51369271D01*
X57766359Y-51453057D01*
X57830364Y-51538161D01*
X57873098Y-51615788D01*
X57896961Y-51670112D01*
X57909945Y-51714480D01*
X57914505Y-51762134D01*
X57913095Y-51826317D01*
X57912896Y-51830522D01*
X57903473Y-51921721D01*
X57883597Y-51994336D01*
X57871174Y-52022727D01*
X57827436Y-52091210D01*
X57762135Y-52166437D01*
X57681578Y-52242336D01*
X57592074Y-52312830D01*
X57522126Y-52358945D01*
X57497096Y-52371864D01*
X57445876Y-52396464D01*
X57370288Y-52431923D01*
X57272156Y-52477419D01*
X57153303Y-52532134D01*
X57015552Y-52595244D01*
X56860727Y-52665930D01*
X56690649Y-52743370D01*
X56507144Y-52826743D01*
X56312033Y-52915229D01*
X56107140Y-53008007D01*
X55894288Y-53104255D01*
X55675300Y-53203153D01*
X55452000Y-53303880D01*
X55226209Y-53405614D01*
X54999753Y-53507535D01*
X54774453Y-53608822D01*
X54552133Y-53708654D01*
X54334616Y-53806211D01*
X54123726Y-53900670D01*
X53921285Y-53991211D01*
X53729116Y-54077014D01*
X53549043Y-54157257D01*
X53382888Y-54231119D01*
X53232476Y-54297779D01*
X53099628Y-54356417D01*
X52986169Y-54406212D01*
X52893921Y-54446342D01*
X52824708Y-54475987D01*
X52780352Y-54494325D01*
X52776560Y-54495815D01*
X52518048Y-54585902D01*
X52231882Y-54665890D01*
X51919486Y-54735454D01*
X51582283Y-54794271D01*
X51289275Y-54834132D01*
X51215812Y-54840900D01*
X51116601Y-54846996D01*
X50996565Y-54852354D01*
X50860625Y-54856907D01*
X50713704Y-54860587D01*
X50560724Y-54863329D01*
X50406608Y-54865064D01*
X50256278Y-54865727D01*
X50114657Y-54865250D01*
X49986667Y-54863567D01*
X49877229Y-54860611D01*
X49791267Y-54856315D01*
X49770797Y-54854755D01*
X49421624Y-54817680D01*
X49085172Y-54767052D01*
X48764836Y-54703611D01*
X48464012Y-54628100D01*
X48186096Y-54541260D01*
X47983901Y-54464691D01*
X47951642Y-54450871D01*
X47893645Y-54425460D01*
X47811782Y-54389298D01*
X47707930Y-54343226D01*
X47583961Y-54288086D01*
X47441751Y-54224717D01*
X47283173Y-54153961D01*
X47110104Y-54076659D01*
X46924415Y-53993651D01*
X46727984Y-53905778D01*
X46522683Y-53813881D01*
X46310387Y-53718802D01*
X46092971Y-53621379D01*
X45872309Y-53522456D01*
X45650275Y-53422872D01*
X45428745Y-53323468D01*
X45209591Y-53225085D01*
X44994690Y-53128564D01*
X44785915Y-53034746D01*
X44585141Y-52944472D01*
X44394242Y-52858582D01*
X44215092Y-52777917D01*
X44049567Y-52703318D01*
X43899540Y-52635626D01*
X43766886Y-52575682D01*
X43653480Y-52524327D01*
X43561195Y-52482400D01*
X43491907Y-52450745D01*
X43447489Y-52430200D01*
X43432541Y-52423052D01*
X43295277Y-52345273D01*
X43173036Y-52257921D01*
X43070155Y-52164714D01*
X42990968Y-52069371D01*
X42958577Y-52016411D01*
X42939654Y-51974248D01*
X42928628Y-51929766D01*
X42923604Y-51872538D01*
X42922643Y-51818671D01*
X42923941Y-51748307D01*
X42929856Y-51696580D01*
X42942772Y-51651535D01*
X42965070Y-51601215D01*
X42966611Y-51598066D01*
X43020035Y-51512690D01*
X43097090Y-51422476D01*
X43192492Y-51332834D01*
X43300959Y-51249172D01*
X43320245Y-51235983D01*
X43412786Y-51178987D01*
X43525670Y-51117486D01*
X43649879Y-51055858D01*
X43776395Y-50998481D01*
X43896198Y-50949736D01*
X43949964Y-50930243D01*
X44000195Y-50913486D01*
X44073560Y-50889789D01*
X44167465Y-50859944D01*
X44279312Y-50824747D01*
X44406508Y-50784991D01*
X44546456Y-50741470D01*
X44696562Y-50694980D01*
X44854229Y-50646312D01*
X45016863Y-50596263D01*
X45181868Y-50545625D01*
X45346650Y-50495194D01*
X45508611Y-50445762D01*
X45665158Y-50398125D01*
X45813694Y-50353076D01*
X45951625Y-50311409D01*
X46076354Y-50273919D01*
X46185288Y-50241399D01*
X46275829Y-50214644D01*
X46345384Y-50194448D01*
X46391356Y-50181604D01*
X46411150Y-50176908D01*
X46411739Y-50177018D01*
G37*
G36*
X53000841Y-46161298D02*
G01*
X53008460Y-46182716D01*
X53025668Y-46230998D01*
X53051742Y-46304119D01*
X53085958Y-46400051D01*
X53127595Y-46516769D01*
X53175929Y-46652245D01*
X53230237Y-46804453D01*
X53289796Y-46971367D01*
X53353883Y-47150959D01*
X53421775Y-47341205D01*
X53492749Y-47540076D01*
X53534552Y-47657204D01*
X53606606Y-47859288D01*
X53675669Y-48053370D01*
X53741047Y-48237480D01*
X53802049Y-48409649D01*
X53857980Y-48567908D01*
X53908147Y-48710289D01*
X53951859Y-48834821D01*
X53988420Y-48939535D01*
X54017140Y-49022464D01*
X54037323Y-49081638D01*
X54048278Y-49115087D01*
X54050133Y-49121999D01*
X54043883Y-49145506D01*
X54027567Y-49187139D01*
X54006430Y-49234191D01*
X53945512Y-49329186D01*
X53855316Y-49420699D01*
X53737081Y-49508356D01*
X53592049Y-49591782D01*
X53421459Y-49670604D01*
X53226551Y-49744447D01*
X53008566Y-49812936D01*
X52768744Y-49875698D01*
X52508326Y-49932357D01*
X52228551Y-49982541D01*
X51930659Y-50025874D01*
X51615891Y-50061982D01*
X51285488Y-50090491D01*
X51135894Y-50100506D01*
X51063202Y-50103849D01*
X50965493Y-50106712D01*
X50848012Y-50109075D01*
X50716008Y-50110919D01*
X50574727Y-50112221D01*
X50429416Y-50112963D01*
X50285323Y-50113123D01*
X50147694Y-50112681D01*
X50021777Y-50111617D01*
X49912819Y-50109910D01*
X49826066Y-50107541D01*
X49786135Y-50105752D01*
X49443725Y-50081841D01*
X49113730Y-50049240D01*
X48797940Y-50008381D01*
X48498143Y-49959695D01*
X48216129Y-49903612D01*
X47953686Y-49840565D01*
X47712604Y-49770984D01*
X47494673Y-49695299D01*
X47301680Y-49613944D01*
X47135415Y-49527347D01*
X46997668Y-49435941D01*
X46993709Y-49432909D01*
X46898497Y-49345704D01*
X46830114Y-49252022D01*
X46795074Y-49170820D01*
X46792213Y-49160308D01*
X46790397Y-49148966D01*
X46790191Y-49135087D01*
X46792160Y-49116963D01*
X46796867Y-49092885D01*
X46804879Y-49061146D01*
X46816759Y-49020036D01*
X46833071Y-48967849D01*
X46854381Y-48902875D01*
X46881252Y-48823407D01*
X46914250Y-48727737D01*
X46953939Y-48614157D01*
X47000883Y-48480958D01*
X47055647Y-48326432D01*
X47118796Y-48148872D01*
X47190894Y-47946569D01*
X47272506Y-47717815D01*
X47310397Y-47611642D01*
X47396233Y-47371169D01*
X47472378Y-47157998D01*
X47539444Y-46970535D01*
X47598044Y-46807187D01*
X47648790Y-46666362D01*
X47692293Y-46546466D01*
X47729167Y-46445906D01*
X47760023Y-46363090D01*
X47785474Y-46296425D01*
X47806131Y-46244317D01*
X47822608Y-46205173D01*
X47835515Y-46177401D01*
X47845466Y-46159407D01*
X47853072Y-46149598D01*
X47858946Y-46146382D01*
X47863700Y-46148165D01*
X47867947Y-46153355D01*
X47869735Y-46156182D01*
X47928201Y-46228534D01*
X48013366Y-46301395D01*
X48121390Y-46372375D01*
X48248433Y-46439088D01*
X48390654Y-46499145D01*
X48462031Y-46524522D01*
X48700077Y-46594269D01*
X48962732Y-46653154D01*
X49245873Y-46701060D01*
X49545378Y-46737870D01*
X49857123Y-46763469D01*
X50176985Y-46777739D01*
X50500841Y-46780565D01*
X50824567Y-46771829D01*
X51144042Y-46751416D01*
X51455142Y-46719209D01*
X51753743Y-46675091D01*
X52010169Y-46624710D01*
X52218826Y-46572412D01*
X52405572Y-46513588D01*
X52568859Y-46448980D01*
X52707137Y-46379331D01*
X52818859Y-46305381D01*
X52902476Y-46227873D01*
X52938563Y-46179887D01*
X52982724Y-46110023D01*
X53000841Y-46161298D01*
G37*
G36*
X49945167Y-40277335D02*
G01*
X49968281Y-40297798D01*
X49998113Y-40317707D01*
X50047398Y-40340854D01*
X50105961Y-40362517D01*
X50111437Y-40364263D01*
X50163385Y-40379116D01*
X50212916Y-40389145D01*
X50268100Y-40395202D01*
X50337005Y-40398141D01*
X50427702Y-40398815D01*
X50438007Y-40398792D01*
X50586982Y-40393693D01*
X50706819Y-40379338D01*
X50797481Y-40355736D01*
X50858930Y-40322892D01*
X50864578Y-40318117D01*
X50888057Y-40302481D01*
X50902778Y-40310303D01*
X50904617Y-40313100D01*
X50911284Y-40329905D01*
X50927553Y-40373763D01*
X50952757Y-40442817D01*
X50986230Y-40535213D01*
X51027305Y-40649095D01*
X51075318Y-40782609D01*
X51129602Y-40933899D01*
X51189489Y-41101110D01*
X51254316Y-41282387D01*
X51323415Y-41475875D01*
X51396120Y-41679719D01*
X51471765Y-41892063D01*
X51495001Y-41957337D01*
X52073123Y-43581735D01*
X52046757Y-43637297D01*
X52001434Y-43699723D01*
X51927114Y-43758877D01*
X51825357Y-43814152D01*
X51697729Y-43864938D01*
X51545790Y-43910627D01*
X51371104Y-43950611D01*
X51175232Y-43984281D01*
X51144172Y-43988742D01*
X51085766Y-43995651D01*
X51006967Y-44003165D01*
X50913699Y-44010897D01*
X50811888Y-44018462D01*
X50707460Y-44025475D01*
X50606340Y-44031550D01*
X50514453Y-44036300D01*
X50437725Y-44039342D01*
X50382081Y-44040288D01*
X50361316Y-44039692D01*
X50335456Y-44038156D01*
X50285378Y-44035381D01*
X50217498Y-44031716D01*
X50138235Y-44027510D01*
X50108237Y-44025935D01*
X49886576Y-44009745D01*
X49679176Y-43985465D01*
X49487985Y-43953695D01*
X49314950Y-43915036D01*
X49162021Y-43870086D01*
X49031145Y-43819447D01*
X48924270Y-43763719D01*
X48843346Y-43703502D01*
X48790320Y-43639396D01*
X48778816Y-43616399D01*
X48775662Y-43607909D01*
X48773602Y-43598224D01*
X48773173Y-43585730D01*
X48774912Y-43568814D01*
X48779355Y-43545861D01*
X48787041Y-43515258D01*
X48798504Y-43475392D01*
X48814283Y-43424648D01*
X48834914Y-43361412D01*
X48860934Y-43284072D01*
X48892879Y-43191014D01*
X48931287Y-43080623D01*
X48976694Y-42951286D01*
X49029638Y-42801389D01*
X49090654Y-42629319D01*
X49160281Y-42433461D01*
X49239054Y-42212203D01*
X49327510Y-41963930D01*
X49342951Y-41920601D01*
X49419756Y-41705129D01*
X49493691Y-41497815D01*
X49564106Y-41300480D01*
X49630347Y-41114945D01*
X49691765Y-40943032D01*
X49747707Y-40786561D01*
X49797521Y-40647354D01*
X49840557Y-40527232D01*
X49876163Y-40428017D01*
X49903686Y-40351529D01*
X49922477Y-40299590D01*
X49931882Y-40274020D01*
X49932866Y-40271590D01*
X49945167Y-40277335D01*
G37*
D11*
%TO.C,C11*%
X21922500Y-49717164D02*
X21922500Y-49932836D01*
X21202500Y-49717164D02*
X21202500Y-49932836D01*
%TO.C,U3*%
X32222500Y-43215000D02*
X32672500Y-43215000D01*
X25902500Y-43215000D02*
X25452500Y-43215000D01*
X25452500Y-43665000D02*
X24162500Y-43665000D01*
X25452500Y-50435000D02*
X25452500Y-49985000D01*
X25452500Y-43215000D02*
X25452500Y-43665000D01*
X25902500Y-50435000D02*
X25452500Y-50435000D01*
X32672500Y-50435000D02*
X32672500Y-49985000D01*
X32222500Y-50435000D02*
X32672500Y-50435000D01*
X32672500Y-43215000D02*
X32672500Y-43665000D01*
%TO.C,Y1*%
X20712500Y-44825000D02*
X17412500Y-44825000D01*
X17412500Y-44825000D02*
X17412500Y-48825000D01*
%TO.C,C12*%
X21202500Y-45932836D02*
X21202500Y-45717164D01*
X21922500Y-45932836D02*
X21922500Y-45717164D01*
%TO.C,J2*%
X42297500Y-40955000D02*
X42297500Y-41020000D01*
X42297500Y-48695000D02*
X45827500Y-48695000D01*
X45827500Y-48630000D02*
X45827500Y-48695000D01*
X42297500Y-48630000D02*
X42297500Y-48695000D01*
X42297500Y-40955000D02*
X45827500Y-40955000D01*
X45827500Y-40955000D02*
X45827500Y-41020000D01*
X40972500Y-41020000D02*
X42297500Y-41020000D01*
%TO.C,C5*%
X42190000Y-23537164D02*
X42190000Y-23752836D01*
X42910000Y-23537164D02*
X42910000Y-23752836D01*
%TO.C,C7*%
X34702500Y-44432836D02*
X34702500Y-44217164D01*
X35422500Y-44432836D02*
X35422500Y-44217164D01*
%TO.C,C4*%
X55936252Y-31865000D02*
X55413748Y-31865000D01*
X55936252Y-33335000D02*
X55413748Y-33335000D01*
%TO.C,C9*%
X26170336Y-41185000D02*
X25954664Y-41185000D01*
X26170336Y-40465000D02*
X25954664Y-40465000D01*
%TO.C,C3*%
X50788748Y-20890000D02*
X51311252Y-20890000D01*
X50788748Y-22360000D02*
X51311252Y-22360000D01*
%TO.C,R7*%
X27428641Y-59830000D02*
X27121359Y-59830000D01*
X27428641Y-59070000D02*
X27121359Y-59070000D01*
%TO.C,D4*%
X53109999Y-36622501D02*
X53109999Y-34337501D01*
X51639999Y-36622501D02*
X53109999Y-36622501D01*
X51639999Y-34337501D02*
X51639999Y-36622501D01*
%TO.C,L1*%
X58450000Y-29825000D02*
X57050000Y-29825000D01*
X51650000Y-23425000D02*
X51650000Y-24625000D01*
X58450000Y-23425000D02*
X58450000Y-24625000D01*
X51650000Y-29825000D02*
X51650000Y-28625000D01*
X51650000Y-23425000D02*
X53050000Y-23425000D01*
X51650000Y-29825000D02*
X53050000Y-29825000D01*
X58450000Y-23425000D02*
X57050000Y-23425000D01*
X58450000Y-29825000D02*
X58450000Y-28625000D01*
%TO.C,R3*%
X31765000Y-23852064D02*
X31765000Y-23397936D01*
X33235000Y-23852064D02*
X33235000Y-23397936D01*
%TO.C,C10*%
X21954664Y-43465000D02*
X22170336Y-43465000D01*
X21954664Y-44185000D02*
X22170336Y-44185000D01*
%TO.C,C8*%
X31454664Y-52465000D02*
X31670336Y-52465000D01*
X31454664Y-53185000D02*
X31670336Y-53185000D01*
%TO.C,R2*%
X52937742Y-30327500D02*
X53412258Y-30327500D01*
X52937742Y-31372500D02*
X53412258Y-31372500D01*
%TO.C,JP1*%
X48100000Y-33345000D02*
X48100000Y-35345000D01*
X44000000Y-35345000D02*
X44000000Y-33345000D01*
X44000000Y-33345000D02*
X48100000Y-33345000D01*
X48100000Y-35345000D02*
X44000000Y-35345000D01*
%TO.C,R6*%
X50202500Y-38387742D02*
X50202500Y-38862258D01*
X51247500Y-38387742D02*
X51247500Y-38862258D01*
%TO.C,D2*%
X51050000Y-28325000D02*
X51050000Y-24475000D01*
X49050000Y-28325000D02*
X51050000Y-28325000D01*
X49050000Y-28325000D02*
X49050000Y-24475000D01*
D12*
%TO.C,TP1*%
X57845000Y-21600000D02*
X57845000Y-22400000D01*
X57345000Y-22900000D02*
X53745000Y-22900000D01*
X53245000Y-21600000D02*
X53745000Y-21100000D01*
X53745000Y-21100000D02*
X57345000Y-21100000D01*
X53245000Y-22400000D02*
X53245000Y-21600000D01*
X53745000Y-22900000D02*
X53245000Y-22400000D01*
X57345000Y-21100000D02*
X57845000Y-21600000D01*
X57845000Y-22400000D02*
X57345000Y-22900000D01*
D11*
%TO.C,R8*%
X51852499Y-38400242D02*
X51852499Y-38874758D01*
X52897499Y-38400242D02*
X52897499Y-38874758D01*
%TO.C,R1*%
X49937742Y-30327500D02*
X50412258Y-30327500D01*
X49937742Y-31372500D02*
X50412258Y-31372500D01*
%TO.C,J1*%
X24537500Y-31737500D02*
X28537500Y-31737500D01*
X28537500Y-23137500D02*
X24462500Y-23137500D01*
X28537500Y-31737500D02*
X28537500Y-23137500D01*
X24537500Y-31737500D02*
X24537500Y-34954048D01*
X17745952Y-31654048D02*
X17837500Y-23512500D01*
X24462500Y-20212500D02*
X21112500Y-20212500D01*
X24462500Y-23137500D02*
X24462500Y-20212500D01*
X21137500Y-34954048D02*
X24537500Y-34954048D01*
X21137500Y-20212500D02*
G75*
G03*
X17837500Y-23512500I1J-3300001D01*
G01*
X17745952Y-31654048D02*
G75*
G03*
X21045952Y-34954048I3300001J1D01*
G01*
D13*
%TO.C,SW1*%
X31000000Y-60673500D02*
X37000000Y-60673500D01*
D14*
X35500000Y-58173500D02*
X32500000Y-58173500D01*
D13*
X37000000Y-57173500D02*
X31000000Y-57173500D01*
D14*
X32500000Y-59673500D02*
X35500000Y-59673500D01*
X35500000Y-59673500D02*
X35500000Y-58173500D01*
X32500000Y-58173500D02*
X32500000Y-59673500D01*
D11*
%TO.C,JP2*%
X48100000Y-36625000D02*
X48100000Y-38625000D01*
X44000000Y-36625000D02*
X48100000Y-36625000D01*
X44000000Y-38625000D02*
X44000000Y-36625000D01*
X48100000Y-38625000D02*
X44000000Y-38625000D01*
%TO.C,D3*%
X51459999Y-36610000D02*
X51459999Y-34325000D01*
X49989999Y-34325000D02*
X49989999Y-36610000D01*
X49989999Y-36610000D02*
X51459999Y-36610000D01*
%TO.C,C1*%
X47815000Y-30363748D02*
X47815000Y-30886252D01*
X46345000Y-30363748D02*
X46345000Y-30886252D01*
%TO.C,C13*%
X21922500Y-47717164D02*
X21922500Y-47932836D01*
X21202500Y-47717164D02*
X21202500Y-47932836D01*
%TO.C,D1*%
X40950000Y-30275000D02*
X40950000Y-26975000D01*
X40950000Y-26975000D02*
X35550000Y-26975000D01*
X40950000Y-30275000D02*
X35550000Y-30275000D01*
D12*
%TO.C,U1*%
X48625000Y-26700000D02*
X48480000Y-26700000D01*
X43475000Y-22550000D02*
X43620000Y-22550000D01*
X43475000Y-22550000D02*
X43475000Y-26700000D01*
X43475000Y-26700000D02*
X43620000Y-26700000D01*
X48575000Y-22550000D02*
X48575000Y-21150000D01*
X48625000Y-22550000D02*
X48625000Y-26700000D01*
X48625000Y-22550000D02*
X48575000Y-22550000D01*
D11*
%TO.C,C6*%
X21801248Y-41515000D02*
X22323752Y-41515000D01*
X21801248Y-42985000D02*
X22323752Y-42985000D01*
%TO.C,R10*%
X42903641Y-37225000D02*
X42596359Y-37225000D01*
X42903641Y-36465000D02*
X42596359Y-36465000D01*
%TO.C,R4*%
X43087742Y-20272500D02*
X43562258Y-20272500D01*
X43087742Y-19227500D02*
X43562258Y-19227500D01*
%TO.C,R9*%
X42903642Y-35505000D02*
X42596360Y-35505000D01*
X42903642Y-34745000D02*
X42596360Y-34745000D01*
%TO.C,C2*%
X44315000Y-30363748D02*
X44315000Y-30886252D01*
X45785000Y-30363748D02*
X45785000Y-30886252D01*
%TO.C,R5*%
X46087742Y-19227500D02*
X46562258Y-19227500D01*
X46087742Y-20272500D02*
X46562258Y-20272500D01*
%TO.C,U2*%
X38050000Y-21065000D02*
X36100000Y-21065000D01*
X38050000Y-26185000D02*
X41500000Y-26185000D01*
X38050000Y-21065000D02*
X40000000Y-21065000D01*
X38050000Y-26185000D02*
X36100000Y-26185000D01*
%TO.C,C14*%
X27167164Y-57990000D02*
X27382836Y-57990000D01*
X27167164Y-58710000D02*
X27382836Y-58710000D01*
%TD*%
%LPC*%
D15*
%TO.C,C11*%
X21562500Y-49345000D03*
X21562500Y-50305000D03*
%TD*%
D16*
%TO.C,U3*%
X24900000Y-44075000D03*
X24900000Y-44575000D03*
X24900000Y-45075000D03*
X24900000Y-45575000D03*
X24900000Y-46075000D03*
X24900000Y-46575000D03*
X24900000Y-47075000D03*
X24900000Y-47575000D03*
X24900000Y-48075000D03*
X24900000Y-48575000D03*
X24900000Y-49075000D03*
X24900000Y-49575000D03*
D17*
X26312500Y-50987500D03*
X26812500Y-50987500D03*
X27312500Y-50987500D03*
X27812500Y-50987500D03*
X28312500Y-50987500D03*
X28812500Y-50987500D03*
X29312500Y-50987500D03*
X29812500Y-50987500D03*
X30312500Y-50987500D03*
X30812500Y-50987500D03*
X31312500Y-50987500D03*
X31812500Y-50987500D03*
D16*
X33225000Y-49575000D03*
X33225000Y-49075000D03*
X33225000Y-48575000D03*
X33225000Y-48075000D03*
X33225000Y-47575000D03*
X33225000Y-47075000D03*
X33225000Y-46575000D03*
X33225000Y-46075000D03*
X33225000Y-45575000D03*
X33225000Y-45075000D03*
X33225000Y-44575000D03*
X33225000Y-44075000D03*
D17*
X31812500Y-42662500D03*
X31312500Y-42662500D03*
X30812500Y-42662500D03*
X30312500Y-42662500D03*
X29812500Y-42662500D03*
X29312500Y-42662500D03*
X28812500Y-42662500D03*
X28312500Y-42662500D03*
X27812500Y-42662500D03*
X27312500Y-42662500D03*
X26812500Y-42662500D03*
X26312500Y-42662500D03*
%TD*%
D18*
%TO.C,Y1*%
X18212500Y-45725000D03*
X18212500Y-47925000D03*
X19912500Y-47925000D03*
X19912500Y-45725000D03*
%TD*%
D19*
%TO.C,C12*%
X21562500Y-46305000D03*
X21562500Y-45345000D03*
%TD*%
D20*
%TO.C,J2*%
X42112500Y-41650000D03*
X46012500Y-41650000D03*
X42112500Y-42920000D03*
X46012500Y-42920000D03*
X42112500Y-44190000D03*
X46012500Y-44190000D03*
X42112500Y-45460000D03*
X46012500Y-45460000D03*
X42112500Y-46730000D03*
X46012500Y-46730000D03*
X42112500Y-48000000D03*
X46012500Y-48000000D03*
%TD*%
D15*
%TO.C,C5*%
X42550000Y-23165000D03*
X42550000Y-24125000D03*
%TD*%
D19*
%TO.C,C7*%
X35062500Y-44805000D03*
X35062500Y-43845000D03*
%TD*%
D21*
%TO.C,C4*%
X56625000Y-32600000D03*
X54725000Y-32600000D03*
%TD*%
D22*
%TO.C,C9*%
X26542500Y-40825000D03*
X25582500Y-40825000D03*
%TD*%
D23*
%TO.C,C3*%
X50100000Y-21625000D03*
X52000000Y-21625000D03*
%TD*%
D24*
%TO.C,R7*%
X27785000Y-59450000D03*
X26765000Y-59450000D03*
%TD*%
D25*
%TO.C,D4*%
X52374999Y-35925001D03*
X52374999Y-34350001D03*
%TD*%
D26*
%TO.C,L1*%
X52700000Y-26625000D03*
X57400000Y-26625000D03*
%TD*%
D27*
%TO.C,R3*%
X32500000Y-24537500D03*
X32500000Y-22712500D03*
%TD*%
D28*
%TO.C,C10*%
X21582500Y-43825000D03*
X22542500Y-43825000D03*
%TD*%
%TO.C,C8*%
X31082500Y-52825000D03*
X32042500Y-52825000D03*
%TD*%
D29*
%TO.C,R2*%
X52350000Y-30850000D03*
X54000000Y-30850000D03*
%TD*%
D30*
%TO.C,H1*%
X56197056Y-59472056D03*
X52802944Y-59472056D03*
X56197056Y-56077944D03*
X52100000Y-57775000D03*
X54500000Y-55375000D03*
D31*
X54500000Y-57775000D03*
D30*
X54500000Y-60175000D03*
X52802944Y-56077944D03*
X56900000Y-57775000D03*
%TD*%
D32*
%TO.C,JP1*%
X47350000Y-34345000D03*
X46050000Y-34345000D03*
X44750000Y-34345000D03*
%TD*%
D33*
%TO.C,R6*%
X50725000Y-37800000D03*
X50725000Y-39450000D03*
%TD*%
D34*
%TO.C,D2*%
X50050000Y-27525000D03*
X50050000Y-24725000D03*
%TD*%
D35*
%TO.C,TP1*%
X54275000Y-22000000D03*
X56815000Y-22000000D03*
%TD*%
D33*
%TO.C,R8*%
X52374999Y-37812500D03*
X52374999Y-39462500D03*
%TD*%
D29*
%TO.C,R1*%
X49350000Y-30850000D03*
X51000000Y-30850000D03*
%TD*%
D36*
%TO.C,J1*%
X27287500Y-30754166D03*
X27287500Y-28570833D03*
X27287500Y-26387500D03*
X27287500Y-24204166D03*
D37*
X21162500Y-31462500D03*
X21162500Y-23462500D03*
%TD*%
D38*
%TO.C,SW1*%
X30000000Y-58923500D03*
X38000000Y-58923500D03*
%TD*%
D32*
%TO.C,JP2*%
X47350000Y-37625000D03*
X46050000Y-37625000D03*
X44750000Y-37625000D03*
%TD*%
D25*
%TO.C,D3*%
X50724999Y-35912500D03*
X50724999Y-34337500D03*
%TD*%
D39*
%TO.C,C1*%
X47080000Y-29675000D03*
X47080000Y-31575000D03*
%TD*%
D15*
%TO.C,C13*%
X21562500Y-47345000D03*
X21562500Y-48305000D03*
%TD*%
D40*
%TO.C,D1*%
X39550000Y-28625000D03*
X35550000Y-28625000D03*
%TD*%
D41*
%TO.C,U1*%
X47955000Y-21925000D03*
X46685000Y-21925000D03*
X45415000Y-21925000D03*
X44145000Y-21925000D03*
X44145000Y-27325000D03*
X45415000Y-27325000D03*
X46685000Y-27325000D03*
X47955000Y-27325000D03*
D42*
X46050000Y-24625000D03*
%TD*%
D23*
%TO.C,C6*%
X21112500Y-42250000D03*
X23012500Y-42250000D03*
%TD*%
D30*
%TO.C,H2*%
X18727944Y-56077944D03*
X18727944Y-59472056D03*
X22122056Y-59472056D03*
X20425000Y-55375000D03*
X22122056Y-56077944D03*
X18025000Y-57775000D03*
X22825000Y-57775000D03*
D31*
X20425000Y-57775000D03*
D30*
X20425000Y-60175000D03*
%TD*%
D24*
%TO.C,R10*%
X43260000Y-36845000D03*
X42240000Y-36845000D03*
%TD*%
D29*
%TO.C,R4*%
X42500000Y-19750000D03*
X44150000Y-19750000D03*
%TD*%
D24*
%TO.C,R9*%
X43260001Y-35125000D03*
X42240001Y-35125000D03*
%TD*%
D39*
%TO.C,C2*%
X45050000Y-29675000D03*
X45050000Y-31575000D03*
%TD*%
D29*
%TO.C,R5*%
X45500000Y-19750000D03*
X47150000Y-19750000D03*
%TD*%
D43*
%TO.C,U2*%
X40525000Y-25530000D03*
X40525000Y-24260000D03*
X40525000Y-22990000D03*
X40525000Y-21720000D03*
X35575000Y-21720000D03*
X35575000Y-22990000D03*
X35575000Y-24260000D03*
X35575000Y-25530000D03*
%TD*%
D28*
%TO.C,C14*%
X26795000Y-58350000D03*
X27755000Y-58350000D03*
%TD*%
M02*
