%TF.GenerationSoftware,KiCad,Pcbnew,(6.0.2-0)*%
%TF.CreationDate,2022-04-27T17:33:59-06:00*%
%TF.ProjectId,haltech-adapter,68616c74-6563-4682-9d61-646170746572,rev?*%
%TF.SameCoordinates,Original*%
%TF.FileFunction,Copper,L1,Top*%
%TF.FilePolarity,Positive*%
%FSLAX46Y46*%
G04 Gerber Fmt 4.6, Leading zero omitted, Abs format (unit mm)*
G04 Created by KiCad (PCBNEW (6.0.2-0)) date 2022-04-27 17:33:59*
%MOMM*%
%LPD*%
G01*
G04 APERTURE LIST*
%TA.AperFunction,ComponentPad*%
%ADD10C,1.800000*%
%TD*%
%TA.AperFunction,ComponentPad*%
%ADD11C,5.400000*%
%TD*%
%TA.AperFunction,ComponentPad*%
%ADD12R,1.950000X1.950000*%
%TD*%
%TA.AperFunction,ComponentPad*%
%ADD13C,1.950000*%
%TD*%
%TA.AperFunction,ViaPad*%
%ADD14C,0.800000*%
%TD*%
%TA.AperFunction,Conductor*%
%ADD15C,1.000000*%
%TD*%
%TA.AperFunction,Conductor*%
%ADD16C,0.500000*%
%TD*%
G04 APERTURE END LIST*
D10*
%TO.P,J2,1A,NC*%
%TO.N,unconnected-(J2-Pad1A)*%
X34450000Y-123100000D03*
%TO.P,J2,1B,+12V*%
%TO.N,/12V*%
X38950000Y-123100000D03*
%TO.P,J2,1C,NC*%
%TO.N,unconnected-(J2-Pad1C)*%
X34450000Y-119600000D03*
%TO.P,J2,1D,NC*%
%TO.N,unconnected-(J2-Pad1D)*%
X38950000Y-119600000D03*
%TO.P,J2,1E,CEL*%
%TO.N,/CEL*%
X34450000Y-116500000D03*
%TO.P,J2,1F,NC*%
%TO.N,unconnected-(J2-Pad1F)*%
X38950000Y-116500000D03*
%TO.P,J2,1G,IGNA*%
%TO.N,/IGN1*%
X34450000Y-113500000D03*
%TO.P,J2,1H,IGNB*%
%TO.N,/IGN2*%
X38950000Y-113500000D03*
%TO.P,J2,1I,NC*%
%TO.N,unconnected-(J2-Pad1I)*%
X34450000Y-110500000D03*
%TO.P,J2,1J,AC_OUT*%
%TO.N,/AC_OUT*%
X38950000Y-110500000D03*
%TO.P,J2,1K,NC*%
%TO.N,unconnected-(J2-Pad1K)*%
X34450000Y-107500000D03*
%TO.P,J2,1L,NC*%
%TO.N,unconnected-(J2-Pad1L)*%
X38950000Y-107500000D03*
%TO.P,J2,1M,NC*%
%TO.N,unconnected-(J2-Pad1M)*%
X34450000Y-104500000D03*
%TO.P,J2,1N,5VREF*%
%TO.N,/5VREF*%
X38950000Y-104500000D03*
%TO.P,J2,1O,NC*%
%TO.N,unconnected-(J2-Pad1O)*%
X34450000Y-101500000D03*
%TO.P,J2,1P,NC*%
%TO.N,unconnected-(J2-Pad1P)*%
X38950000Y-101500000D03*
%TO.P,J2,1Q,AC_IN*%
%TO.N,/AC_IN*%
X34450000Y-98500000D03*
%TO.P,J2,1R,FAN*%
%TO.N,/DPO4*%
X38950000Y-98500000D03*
%TO.P,J2,1S,NC*%
%TO.N,unconnected-(J2-Pad1S)*%
X34450000Y-95500000D03*
%TO.P,J2,1T,NC*%
%TO.N,unconnected-(J2-Pad1T)*%
X38950000Y-95500000D03*
%TO.P,J2,1U,NC*%
%TO.N,unconnected-(J2-Pad1U)*%
X34450000Y-92000000D03*
%TO.P,J2,1V,NC*%
%TO.N,unconnected-(J2-Pad1V)*%
X38950000Y-92000000D03*
%TO.P,J2,2A,GND*%
%TO.N,/GND*%
X34450000Y-59500000D03*
%TO.P,J2,2B,GND*%
X38950000Y-59500000D03*
%TO.P,J2,2C,SGND*%
%TO.N,/SGND*%
X34450000Y-56000000D03*
%TO.P,J2,2D,SGND*%
X38950000Y-56000000D03*
%TO.P,J2,2E,CRANK_IN*%
%TO.N,/TRIGGER+*%
X34450000Y-52900000D03*
%TO.P,J2,2F,NC*%
%TO.N,unconnected-(J2-Pad2F)*%
X38950000Y-52900000D03*
%TO.P,J2,2G,CAM_IN*%
%TO.N,/HOME+*%
X34450000Y-49900000D03*
%TO.P,J2,2H,NC*%
%TO.N,unconnected-(J2-Pad2H)*%
X38950000Y-49900000D03*
%TO.P,J2,2I,TACH*%
%TO.N,/TACH*%
X34450000Y-46900000D03*
%TO.P,J2,2J,NC*%
%TO.N,unconnected-(J2-Pad2J)*%
X38950000Y-46900000D03*
%TO.P,J2,2K,AFM*%
%TO.N,unconnected-(J2-Pad2K)*%
X34450000Y-43900000D03*
%TO.P,J2,2L,TPS*%
%TO.N,/TPS*%
X38950000Y-43900000D03*
%TO.P,J2,2M,NC*%
%TO.N,unconnected-(J2-Pad2M)*%
X34450000Y-40900000D03*
%TO.P,J2,2N,NBO2*%
%TO.N,/AVI1*%
X38950000Y-40900000D03*
%TO.P,J2,2O,FUELP*%
%TO.N,/DPO5*%
X34450000Y-37900000D03*
%TO.P,J2,2P,AIT*%
%TO.N,/IAT*%
X38950000Y-37900000D03*
%TO.P,J2,2Q,CLT*%
%TO.N,/CLT*%
X34450000Y-34900000D03*
%TO.P,J2,2R,NC*%
%TO.N,unconnected-(J2-Pad2R)*%
X38950000Y-34900000D03*
%TO.P,J2,2S,NC*%
%TO.N,unconnected-(J2-Pad2S)*%
X34450000Y-31900000D03*
%TO.P,J2,2T,NC*%
%TO.N,unconnected-(J2-Pad2T)*%
X38950000Y-31900000D03*
%TO.P,J2,2U,INJ1*%
%TO.N,/INJ1*%
X34450000Y-28800000D03*
%TO.P,J2,2V,INJ2*%
%TO.N,/INJ2*%
X38950000Y-28800000D03*
%TO.P,J2,2W,IDLE*%
%TO.N,/DPO3*%
X34450000Y-25300000D03*
%TO.P,J2,2X,NC*%
%TO.N,unconnected-(J2-Pad2X)*%
X38950000Y-25300000D03*
%TO.P,J2,2Y,INJ3*%
%TO.N,Net-(J2-Pad2Y)*%
X38950000Y-21800000D03*
%TO.P,J2,2Z,INJ4*%
%TO.N,Net-(J2-Pad2Z)*%
X34450000Y-21800000D03*
%TO.P,J2,3A,NC*%
%TO.N,unconnected-(J2-Pad3A)*%
X34450000Y-86450000D03*
%TO.P,J2,3B,NC*%
%TO.N,unconnected-(J2-Pad3B)*%
X38950000Y-86450000D03*
%TO.P,J2,3C,NC*%
%TO.N,unconnected-(J2-Pad3C)*%
X34450000Y-83450000D03*
%TO.P,J2,3D,NC*%
%TO.N,unconnected-(J2-Pad3D)*%
X38950000Y-83450000D03*
%TO.P,J2,3E,NC*%
%TO.N,unconnected-(J2-Pad3E)*%
X34450000Y-80450000D03*
%TO.P,J2,3F,NC*%
%TO.N,unconnected-(J2-Pad3F)*%
X38950000Y-80450000D03*
%TO.P,J2,3G,NC*%
%TO.N,unconnected-(J2-Pad3G)*%
X34450000Y-77450000D03*
%TO.P,J2,3H,NC*%
%TO.N,unconnected-(J2-Pad3H)*%
X38950000Y-77450000D03*
%TO.P,J2,3I,NC*%
%TO.N,unconnected-(J2-Pad3I)*%
X34450000Y-74450000D03*
%TO.P,J2,3J,NC*%
%TO.N,unconnected-(J2-Pad3J)*%
X38950000Y-74450000D03*
%TO.P,J2,3K,NC*%
%TO.N,unconnected-(J2-Pad3K)*%
X34450000Y-71450000D03*
%TO.P,J2,3L,NC*%
%TO.N,unconnected-(J2-Pad3L)*%
X38950000Y-71450000D03*
%TO.P,J2,3M,NC*%
%TO.N,unconnected-(J2-Pad3M)*%
X34450000Y-68450000D03*
%TO.P,J2,3N,NC*%
%TO.N,unconnected-(J2-Pad3N)*%
X38950000Y-68450000D03*
%TO.P,J2,3O,NC*%
%TO.N,unconnected-(J2-Pad3O)*%
X34450000Y-65450000D03*
%TO.P,J2,3P,NC*%
%TO.N,unconnected-(J2-Pad3P)*%
X38950000Y-65450000D03*
D11*
%TO.P,J2,MH1*%
%TO.N,N/C*%
X28750000Y-128150000D03*
%TO.P,J2,MH2*%
X28750000Y-89300000D03*
%TO.P,J2,MH3*%
X28750000Y-62600000D03*
%TO.P,J2,MH4*%
X28750000Y-16750000D03*
%TD*%
D12*
%TO.P,J1,1,1*%
%TO.N,/AC_OUT*%
X51928509Y-87807040D03*
D13*
%TO.P,J1,2,2*%
%TO.N,/AVI1*%
X51928509Y-84807040D03*
%TO.P,J1,3,3*%
%TO.N,/IGN1*%
X51928509Y-81807040D03*
%TO.P,J1,4,4*%
%TO.N,/IGN2*%
X51928509Y-78807040D03*
%TO.P,J1,5,5*%
%TO.N,/IGN3*%
X51928509Y-75807040D03*
%TO.P,J1,6,6*%
%TO.N,/IGN4*%
X51928509Y-72807040D03*
%TO.P,J1,7,7*%
%TO.N,unconnected-(J1-Pad7)*%
X51928509Y-69807040D03*
%TO.P,J1,8,8*%
%TO.N,unconnected-(J1-Pad8)*%
X51928509Y-66807040D03*
%TO.P,J1,9,9*%
%TO.N,/5VREF*%
X51928509Y-63807040D03*
%TO.P,J1,10,10*%
%TO.N,/GND*%
X54428509Y-86307040D03*
%TO.P,J1,11,11*%
%TO.N,/SGND*%
X54428509Y-83307040D03*
%TO.P,J1,12,12*%
%TO.N,/AC_IN*%
X54428509Y-80307040D03*
%TO.P,J1,13,13*%
%TO.N,unconnected-(J1-Pad13)*%
X54428509Y-77307040D03*
%TO.P,J1,14,14*%
%TO.N,/TPS*%
X54428509Y-74307040D03*
%TO.P,J1,15,15*%
%TO.N,/AVI3*%
X54428509Y-71307040D03*
%TO.P,J1,16,16*%
%TO.N,/CANH*%
X54428509Y-68307040D03*
%TO.P,J1,17,17*%
%TO.N,/CANL*%
X54428509Y-65307040D03*
%TO.P,J1,18,18*%
%TO.N,/CEL*%
X57428509Y-86307040D03*
%TO.P,J1,19,19*%
%TO.N,/INJ1*%
X57428509Y-83307040D03*
%TO.P,J1,20,20*%
%TO.N,/INJ2*%
X57428509Y-80307040D03*
%TO.P,J1,21,21*%
%TO.N,/INJ3*%
X57428509Y-77307040D03*
%TO.P,J1,22,22*%
%TO.N,/INJ4*%
X57428509Y-74307040D03*
%TO.P,J1,23,23*%
%TO.N,/DPO3*%
X57428509Y-71307040D03*
%TO.P,J1,24,24*%
%TO.N,/DPO5*%
X57428509Y-68307040D03*
%TO.P,J1,25,25*%
%TO.N,/DPO4*%
X57428509Y-65307040D03*
%TO.P,J1,26,26*%
%TO.N,/12V*%
X59928509Y-87807040D03*
%TO.P,J1,27,27*%
%TO.N,unconnected-(J1-Pad27)*%
X59928509Y-84807040D03*
%TO.P,J1,28,28*%
%TO.N,unconnected-(J1-Pad28)*%
X59928509Y-81807040D03*
%TO.P,J1,29,29*%
%TO.N,/IAT*%
X59928509Y-78807040D03*
%TO.P,J1,30,30*%
%TO.N,/CLT*%
X59928509Y-75807040D03*
%TO.P,J1,31,31*%
%TO.N,/TRIGGER+*%
X59928509Y-72807040D03*
%TO.P,J1,32,32*%
%TO.N,/HOME+*%
X59928509Y-69807040D03*
%TO.P,J1,33,33*%
%TO.N,/TRIGGER-*%
X59928509Y-66807040D03*
%TO.P,J1,34,34*%
%TO.N,/HOME-*%
X59928509Y-63807040D03*
%TD*%
D14*
%TO.N,/AC_OUT*%
X44082040Y-110557040D03*
X44082040Y-87807040D03*
%TO.N,/AVI1*%
X42932040Y-84807040D03*
X42932040Y-40907040D03*
%TO.N,/IGN1*%
X45457040Y-81857040D03*
X45457040Y-114957040D03*
%TO.N,/IGN2*%
X47982040Y-113507040D03*
X47957040Y-78832040D03*
%TO.N,/5VREF*%
X49232040Y-104507040D03*
X49232040Y-63807040D03*
%TO.N,/GND*%
X41657040Y-59507040D03*
X50407040Y-86307040D03*
X41682040Y-86307040D03*
%TO.N,/SGND*%
X44182040Y-56007040D03*
X51057040Y-83307040D03*
X44182040Y-83307040D03*
%TO.N,/AC_IN*%
X51057040Y-80307040D03*
X46707040Y-80307040D03*
X46707040Y-97007040D03*
%TO.N,/TPS*%
X47925000Y-43900000D03*
X47932040Y-74307040D03*
X51057040Y-74307040D03*
%TO.N,/CEL*%
X63332040Y-86307040D03*
X60857040Y-86307040D03*
X52257040Y-118007040D03*
%TO.N,/INJ2*%
X60807040Y-80307040D03*
X70857040Y-80307040D03*
X55350000Y-28800000D03*
%TO.N,/INJ3*%
X67100000Y-77307040D03*
X60807040Y-77307040D03*
%TO.N,/INJ4*%
X67107040Y-74307040D03*
X60807040Y-74307040D03*
%TO.N,/DPO3*%
X51575000Y-23550000D03*
X60807040Y-71307040D03*
X65832040Y-71332040D03*
%TO.N,/INJ1*%
X72182040Y-83307040D03*
X56650000Y-27075000D03*
X60882040Y-83307040D03*
%TO.N,/12V*%
X64607040Y-87832040D03*
X53607040Y-123082040D03*
%TO.N,/IAT*%
X54125000Y-37900000D03*
X69632040Y-78807040D03*
%TO.N,/CLT*%
X52850000Y-36300000D03*
X68382040Y-75882040D03*
%TO.N,/TRIGGER+*%
X67107040Y-72807040D03*
X57982040Y-51432040D03*
%TO.N,/HOME+*%
X51411552Y-48407040D03*
X64557040Y-69782040D03*
%TO.N,/DPO5*%
X60807040Y-68307040D03*
X50150000Y-39400000D03*
X63307040Y-68332040D03*
%TO.N,/DPO4*%
X53732040Y-98532040D03*
X60807040Y-65307040D03*
%TD*%
D15*
%TO.N,/AC_OUT*%
X44075000Y-110550000D02*
X39000000Y-110550000D01*
X44082040Y-110557040D02*
X44075000Y-110550000D01*
X51928509Y-87807040D02*
X44082040Y-87807040D01*
X39000000Y-110550000D02*
X38950000Y-110500000D01*
%TO.N,/AVI1*%
X42932040Y-84807040D02*
X51928509Y-84807040D01*
X38950000Y-40900000D02*
X42925000Y-40900000D01*
X42925000Y-40900000D02*
X42932040Y-40907040D01*
%TO.N,/IGN1*%
X45507040Y-81807040D02*
X45457040Y-81857040D01*
X45450000Y-114950000D02*
X40050000Y-114950000D01*
X45457040Y-114957040D02*
X45450000Y-114950000D01*
D16*
X35900000Y-114950000D02*
X40050000Y-114950000D01*
X34450000Y-113500000D02*
X35900000Y-114950000D01*
D15*
X51928509Y-81807040D02*
X45507040Y-81807040D01*
%TO.N,/IGN2*%
X47957040Y-78832040D02*
X47982040Y-78807040D01*
X47982040Y-78807040D02*
X51928509Y-78807040D01*
X47982040Y-113507040D02*
X47975000Y-113500000D01*
X47975000Y-113500000D02*
X38950000Y-113500000D01*
%TO.N,/5VREF*%
X49232040Y-63807040D02*
X51928509Y-63807040D01*
X49232040Y-104507040D02*
X49225000Y-104500000D01*
X49225000Y-104500000D02*
X38950000Y-104500000D01*
%TO.N,/GND*%
X34450000Y-59500000D02*
X38950000Y-59500000D01*
X41650000Y-59500000D02*
X38950000Y-59500000D01*
X50407040Y-86307040D02*
X41682040Y-86307040D01*
X41657040Y-59507040D02*
X41650000Y-59500000D01*
%TO.N,/SGND*%
X51057040Y-83307040D02*
X44182040Y-83307040D01*
X34450000Y-56000000D02*
X38950000Y-56000000D01*
X44175000Y-56000000D02*
X38950000Y-56000000D01*
X44182040Y-56007040D02*
X44175000Y-56000000D01*
%TO.N,/AC_IN*%
X51057040Y-80307040D02*
X46707040Y-80307040D01*
D16*
X34450000Y-98500000D02*
X35950000Y-97000000D01*
D15*
X46700000Y-97000000D02*
X40050000Y-97000000D01*
X46707040Y-97007040D02*
X46700000Y-97000000D01*
D16*
X35950000Y-97000000D02*
X40050000Y-97000000D01*
D15*
%TO.N,/TPS*%
X47932040Y-74307040D02*
X51057040Y-74307040D01*
X47925000Y-43900000D02*
X38950000Y-43900000D01*
%TO.N,/CEL*%
X52257040Y-118007040D02*
X52250000Y-118000000D01*
X52250000Y-118000000D02*
X39750000Y-118000000D01*
D16*
X35950000Y-118000000D02*
X39750000Y-118000000D01*
X34450000Y-116500000D02*
X35950000Y-118000000D01*
D15*
X63332040Y-86307040D02*
X60857040Y-86307040D01*
%TO.N,/INJ2*%
X60807040Y-80307040D02*
X70857040Y-80307040D01*
X55350000Y-28800000D02*
X38950000Y-28800000D01*
%TO.N,/INJ3*%
X67100000Y-77307040D02*
X60807040Y-77307040D01*
%TO.N,/INJ4*%
X67107040Y-74307040D02*
X60807040Y-74307040D01*
%TO.N,/DPO3*%
X65832040Y-71332040D02*
X65807040Y-71307040D01*
X51575000Y-23550000D02*
X36200000Y-23550000D01*
X65807040Y-71307040D02*
X60807040Y-71307040D01*
X36200000Y-23550000D02*
X34450000Y-25300000D01*
%TO.N,/INJ1*%
X72182040Y-83307040D02*
X60882040Y-83307040D01*
X36175000Y-27075000D02*
X34450000Y-28800000D01*
X56650000Y-27075000D02*
X36175000Y-27075000D01*
%TO.N,/12V*%
X64582040Y-87807040D02*
X59928509Y-87807040D01*
X64607040Y-87832040D02*
X64582040Y-87807040D01*
X53607040Y-123082040D02*
X53589080Y-123100000D01*
X53589080Y-123100000D02*
X38950000Y-123100000D01*
%TO.N,/IAT*%
X59928509Y-78807040D02*
X69632040Y-78807040D01*
X54125000Y-37900000D02*
X38950000Y-37900000D01*
%TO.N,/CLT*%
X68307040Y-75807040D02*
X59928509Y-75807040D01*
X68382040Y-75882040D02*
X68307040Y-75807040D01*
D16*
X35900000Y-36350000D02*
X34450000Y-34900000D01*
D15*
X52850000Y-36300000D02*
X40100000Y-36300000D01*
D16*
X40100000Y-36300000D02*
X40050000Y-36350000D01*
X40050000Y-36350000D02*
X35900000Y-36350000D01*
D15*
%TO.N,/TRIGGER+*%
X57950000Y-51400000D02*
X57982040Y-51432040D01*
X39650000Y-51400000D02*
X57950000Y-51400000D01*
D16*
X35950000Y-51400000D02*
X34450000Y-52900000D01*
X39650000Y-51400000D02*
X35950000Y-51400000D01*
D15*
X67107040Y-72807040D02*
X59928509Y-72807040D01*
%TO.N,/HOME+*%
X64532040Y-69807040D02*
X59928509Y-69807040D01*
D16*
X39950000Y-48400000D02*
X35950000Y-48400000D01*
D15*
X39950000Y-48400000D02*
X51404512Y-48400000D01*
D16*
X35950000Y-48400000D02*
X34450000Y-49900000D01*
D15*
X51404512Y-48400000D02*
X51411552Y-48407040D01*
X64557040Y-69782040D02*
X64532040Y-69807040D01*
%TO.N,/DPO5*%
X63307040Y-68332040D02*
X63282040Y-68307040D01*
D16*
X35950000Y-39400000D02*
X34450000Y-37900000D01*
D15*
X50150000Y-39400000D02*
X39750000Y-39400000D01*
D16*
X39850000Y-39400000D02*
X35950000Y-39400000D01*
D15*
X63282040Y-68307040D02*
X60807040Y-68307040D01*
%TO.N,/DPO4*%
X53732040Y-98532040D02*
X53700000Y-98500000D01*
D16*
X57428509Y-65307040D02*
X60807040Y-65307040D01*
D15*
X53700000Y-98500000D02*
X38950000Y-98500000D01*
%TD*%
%TA.AperFunction,NonConductor*%
G36*
X59203583Y-36935600D02*
G01*
X59214032Y-36940043D01*
X68797183Y-41535433D01*
X69322971Y-41787563D01*
X69324537Y-41786791D01*
X70740038Y-41786791D01*
X70850720Y-41897473D01*
X71031740Y-41716453D01*
X71736017Y-41716453D01*
X71917037Y-41897473D01*
X72098057Y-41716453D01*
X71917037Y-41535433D01*
X71736017Y-41716453D01*
X71031740Y-41716453D01*
X70982515Y-41667228D01*
X70740038Y-41786791D01*
X69324537Y-41786791D01*
X69397581Y-41750774D01*
X70915565Y-41002274D01*
X72352656Y-40293662D01*
X72422598Y-40281476D01*
X72434524Y-40283414D01*
X72593897Y-40317221D01*
X72656384Y-40350923D01*
X72690731Y-40413058D01*
X72693750Y-40440371D01*
X72694814Y-41787563D01*
X72695740Y-42960622D01*
X72688091Y-43003954D01*
X71138567Y-47245776D01*
X71124286Y-47273574D01*
X70530680Y-48143278D01*
X70518189Y-48158785D01*
X69557895Y-49174748D01*
X69538953Y-49191159D01*
X69297152Y-49361692D01*
X68891292Y-49647929D01*
X68861623Y-49663415D01*
X65282475Y-50961167D01*
X62780905Y-51868203D01*
X62725419Y-51875124D01*
X62494748Y-51852056D01*
X62449947Y-51838878D01*
X62303462Y-51764008D01*
X62178021Y-51699893D01*
X62135663Y-51664740D01*
X61933488Y-51403102D01*
X61908185Y-51341865D01*
X61839499Y-50798628D01*
X61842642Y-50780147D01*
X62672322Y-50780147D01*
X62853342Y-50961167D01*
X63034362Y-50780147D01*
X63738639Y-50780147D01*
X63793619Y-50835127D01*
X64059320Y-50738788D01*
X63919659Y-50599127D01*
X63738639Y-50780147D01*
X63034362Y-50780147D01*
X62853342Y-50599127D01*
X62672322Y-50780147D01*
X61842642Y-50780147D01*
X61851752Y-50726582D01*
X61915328Y-50599127D01*
X62090977Y-50246989D01*
X63205481Y-50246989D01*
X63386501Y-50428009D01*
X63567521Y-50246989D01*
X64271798Y-50246989D01*
X64452818Y-50428009D01*
X64633838Y-50246989D01*
X65338115Y-50246989D01*
X65358755Y-50267629D01*
X65624455Y-50171289D01*
X65519135Y-50065969D01*
X65338115Y-50246989D01*
X64633838Y-50246989D01*
X64452818Y-50065969D01*
X64271798Y-50246989D01*
X63567521Y-50246989D01*
X63386501Y-50065969D01*
X63205481Y-50246989D01*
X62090977Y-50246989D01*
X62356920Y-49713830D01*
X63738639Y-49713830D01*
X63919659Y-49894850D01*
X64100679Y-49713830D01*
X64804956Y-49713830D01*
X64985977Y-49894850D01*
X65166996Y-49713831D01*
X65166995Y-49713830D01*
X65871273Y-49713830D01*
X66052294Y-49894850D01*
X66233313Y-49713831D01*
X66204030Y-49684548D01*
X66966872Y-49684548D01*
X67189592Y-49603792D01*
X67118610Y-49532810D01*
X66966872Y-49684548D01*
X66204030Y-49684548D01*
X66052293Y-49532810D01*
X65871273Y-49713830D01*
X65166995Y-49713830D01*
X64985976Y-49532810D01*
X64804956Y-49713830D01*
X64100679Y-49713830D01*
X63919659Y-49532810D01*
X63738639Y-49713830D01*
X62356920Y-49713830D01*
X62583946Y-49258691D01*
X63283501Y-49258691D01*
X63386501Y-49361692D01*
X63567521Y-49180672D01*
X64271798Y-49180672D01*
X64452818Y-49361692D01*
X64633838Y-49180672D01*
X65338115Y-49180672D01*
X65519135Y-49361692D01*
X65700155Y-49180672D01*
X66404432Y-49180672D01*
X66585452Y-49361692D01*
X66766472Y-49180672D01*
X67470749Y-49180672D01*
X67651769Y-49361692D01*
X67832789Y-49180672D01*
X67666727Y-49014610D01*
X68703128Y-49014610D01*
X68720671Y-49002237D01*
X68718086Y-48999652D01*
X68703128Y-49014610D01*
X67666727Y-49014610D01*
X67651769Y-48999652D01*
X67470749Y-49180672D01*
X66766472Y-49180672D01*
X66585452Y-48999652D01*
X66404432Y-49180672D01*
X65700155Y-49180672D01*
X65519135Y-48999652D01*
X65338115Y-49180672D01*
X64633838Y-49180672D01*
X64452818Y-48999652D01*
X64271798Y-49180672D01*
X63567521Y-49180672D01*
X63403988Y-49017139D01*
X63283501Y-49258691D01*
X62583946Y-49258691D01*
X62888805Y-48647513D01*
X63738639Y-48647513D01*
X63919659Y-48828533D01*
X64100679Y-48647513D01*
X64804956Y-48647513D01*
X64985976Y-48828533D01*
X65166996Y-48647513D01*
X65871273Y-48647513D01*
X66052293Y-48828533D01*
X66233313Y-48647513D01*
X66937590Y-48647513D01*
X67118610Y-48828533D01*
X67299630Y-48647513D01*
X68003907Y-48647513D01*
X68184927Y-48828533D01*
X68365947Y-48647513D01*
X69070224Y-48647513D01*
X69133673Y-48710962D01*
X69137300Y-48708404D01*
X69310216Y-48525465D01*
X69251244Y-48466493D01*
X69070224Y-48647513D01*
X68365947Y-48647513D01*
X68184927Y-48466493D01*
X68003907Y-48647513D01*
X67299630Y-48647513D01*
X67118610Y-48466493D01*
X66937590Y-48647513D01*
X66233313Y-48647513D01*
X66052293Y-48466493D01*
X65871273Y-48647513D01*
X65166996Y-48647513D01*
X64985976Y-48466493D01*
X64804956Y-48647513D01*
X64100679Y-48647513D01*
X63919659Y-48466493D01*
X63738639Y-48647513D01*
X62888805Y-48647513D01*
X63154748Y-48114355D01*
X64271798Y-48114355D01*
X64452818Y-48295375D01*
X64633838Y-48114355D01*
X65338115Y-48114355D01*
X65519135Y-48295375D01*
X65700155Y-48114355D01*
X66404432Y-48114355D01*
X66585452Y-48295375D01*
X66766472Y-48114355D01*
X67470749Y-48114355D01*
X67651769Y-48295375D01*
X67832789Y-48114355D01*
X68537066Y-48114355D01*
X68718086Y-48295375D01*
X68899106Y-48114355D01*
X69603383Y-48114355D01*
X69652436Y-48163408D01*
X69828356Y-47977288D01*
X69784403Y-47933335D01*
X69603383Y-48114355D01*
X68899106Y-48114355D01*
X68718086Y-47933335D01*
X68537066Y-48114355D01*
X67832789Y-48114355D01*
X67651769Y-47933335D01*
X67470749Y-48114355D01*
X66766472Y-48114355D01*
X66585452Y-47933335D01*
X66404432Y-48114355D01*
X65700155Y-48114355D01*
X65519135Y-47933335D01*
X65338115Y-48114355D01*
X64633838Y-48114355D01*
X64452818Y-47933335D01*
X64271798Y-48114355D01*
X63154748Y-48114355D01*
X63312562Y-47797971D01*
X63154749Y-47470276D01*
X63849559Y-47470276D01*
X63876567Y-47526356D01*
X63879786Y-47533618D01*
X63903493Y-47591996D01*
X63911747Y-47623525D01*
X63928272Y-47753603D01*
X64100679Y-47581196D01*
X64804956Y-47581196D01*
X64985976Y-47762216D01*
X65166996Y-47581196D01*
X65871273Y-47581196D01*
X66052293Y-47762216D01*
X66233313Y-47581196D01*
X66937590Y-47581196D01*
X67118610Y-47762216D01*
X67299630Y-47581196D01*
X68003907Y-47581196D01*
X68184927Y-47762216D01*
X68365947Y-47581196D01*
X69070224Y-47581196D01*
X69251244Y-47762216D01*
X69432264Y-47581196D01*
X70136541Y-47581196D01*
X70148349Y-47593004D01*
X70199123Y-47518614D01*
X70136541Y-47581196D01*
X69432264Y-47581196D01*
X69251244Y-47400176D01*
X69070224Y-47581196D01*
X68365947Y-47581196D01*
X68184927Y-47400176D01*
X68003907Y-47581196D01*
X67299630Y-47581196D01*
X67118610Y-47400176D01*
X66937590Y-47581196D01*
X66233313Y-47581196D01*
X66052293Y-47400176D01*
X65871273Y-47581196D01*
X65166996Y-47581196D01*
X64985976Y-47400176D01*
X64804956Y-47581196D01*
X64100679Y-47581196D01*
X63919659Y-47400176D01*
X63849559Y-47470276D01*
X63154749Y-47470276D01*
X62951406Y-47048038D01*
X64271798Y-47048038D01*
X64452818Y-47229058D01*
X64633838Y-47048038D01*
X65338115Y-47048038D01*
X65519135Y-47229058D01*
X65700155Y-47048038D01*
X66404432Y-47048038D01*
X66585452Y-47229058D01*
X66766472Y-47048038D01*
X67470749Y-47048038D01*
X67651769Y-47229058D01*
X67832789Y-47048038D01*
X68537066Y-47048038D01*
X68718086Y-47229058D01*
X68899106Y-47048038D01*
X69603383Y-47048038D01*
X69784403Y-47229058D01*
X69965423Y-47048038D01*
X69784403Y-46867018D01*
X69603383Y-47048038D01*
X68899106Y-47048038D01*
X68718086Y-46867018D01*
X68537066Y-47048038D01*
X67832789Y-47048038D01*
X67651769Y-46867018D01*
X67470749Y-47048038D01*
X66766472Y-47048038D01*
X66585452Y-46867018D01*
X66404432Y-47048038D01*
X65700155Y-47048038D01*
X65519135Y-46867018D01*
X65338115Y-47048038D01*
X64633838Y-47048038D01*
X64452818Y-46867018D01*
X64271798Y-47048038D01*
X62951406Y-47048038D01*
X62694645Y-46514879D01*
X63738639Y-46514879D01*
X63919659Y-46695899D01*
X64100679Y-46514879D01*
X64804956Y-46514879D01*
X64985976Y-46695899D01*
X65166996Y-46514879D01*
X65871273Y-46514879D01*
X66052293Y-46695899D01*
X66233313Y-46514879D01*
X66937590Y-46514879D01*
X67118610Y-46695899D01*
X67299630Y-46514879D01*
X68003907Y-46514879D01*
X68184927Y-46695899D01*
X68365947Y-46514879D01*
X69070224Y-46514879D01*
X69251244Y-46695899D01*
X69432264Y-46514879D01*
X70136541Y-46514879D01*
X70317561Y-46695899D01*
X70498581Y-46514879D01*
X70317561Y-46333859D01*
X70136541Y-46514879D01*
X69432264Y-46514879D01*
X69251244Y-46333859D01*
X69070224Y-46514879D01*
X68365947Y-46514879D01*
X68184927Y-46333859D01*
X68003907Y-46514879D01*
X67299630Y-46514879D01*
X67118610Y-46333859D01*
X66937590Y-46514879D01*
X66233313Y-46514879D01*
X66052293Y-46333859D01*
X65871273Y-46514879D01*
X65166996Y-46514879D01*
X64985976Y-46333859D01*
X64804956Y-46514879D01*
X64100679Y-46514879D01*
X63919659Y-46333859D01*
X63738639Y-46514879D01*
X62694645Y-46514879D01*
X62437884Y-45981720D01*
X63205481Y-45981720D01*
X63386501Y-46162741D01*
X63567521Y-45981721D01*
X64271798Y-45981721D01*
X64452818Y-46162741D01*
X64633838Y-45981721D01*
X65338115Y-45981721D01*
X65519135Y-46162741D01*
X65700155Y-45981721D01*
X66404432Y-45981721D01*
X66585452Y-46162741D01*
X66766472Y-45981721D01*
X67470749Y-45981721D01*
X67651769Y-46162741D01*
X67832789Y-45981721D01*
X68537066Y-45981721D01*
X68718086Y-46162741D01*
X68899106Y-45981721D01*
X69603383Y-45981721D01*
X69784403Y-46162741D01*
X69965423Y-45981721D01*
X70669700Y-45981721D01*
X70850720Y-46162741D01*
X70877529Y-46135932D01*
X70960050Y-45910032D01*
X70850720Y-45800701D01*
X70669700Y-45981721D01*
X69965423Y-45981721D01*
X69784403Y-45800701D01*
X69603383Y-45981721D01*
X68899106Y-45981721D01*
X68718086Y-45800701D01*
X68537066Y-45981721D01*
X67832789Y-45981721D01*
X67651769Y-45800701D01*
X67470749Y-45981721D01*
X66766472Y-45981721D01*
X66585452Y-45800701D01*
X66404432Y-45981721D01*
X65700155Y-45981721D01*
X65519135Y-45800701D01*
X65338115Y-45981721D01*
X64633838Y-45981721D01*
X64452818Y-45800701D01*
X64271798Y-45981721D01*
X63567521Y-45981721D01*
X63386500Y-45800701D01*
X63205481Y-45981720D01*
X62437884Y-45981720D01*
X62114940Y-45311134D01*
X62809750Y-45311134D01*
X62927430Y-45555494D01*
X63034362Y-45448562D01*
X63738639Y-45448562D01*
X63919659Y-45629582D01*
X64100679Y-45448562D01*
X64804956Y-45448562D01*
X64985976Y-45629582D01*
X65166996Y-45448562D01*
X65871273Y-45448562D01*
X66052293Y-45629582D01*
X66233313Y-45448562D01*
X66937590Y-45448562D01*
X67118610Y-45629582D01*
X67299630Y-45448562D01*
X68003907Y-45448562D01*
X68184927Y-45629582D01*
X68365947Y-45448562D01*
X69070224Y-45448562D01*
X69251244Y-45629582D01*
X69432264Y-45448562D01*
X70136541Y-45448562D01*
X70317561Y-45629582D01*
X70498581Y-45448562D01*
X70317561Y-45267542D01*
X70136541Y-45448562D01*
X69432264Y-45448562D01*
X69251244Y-45267542D01*
X69070224Y-45448562D01*
X68365947Y-45448562D01*
X68184927Y-45267542D01*
X68003907Y-45448562D01*
X67299630Y-45448562D01*
X67118610Y-45267542D01*
X66937590Y-45448562D01*
X66233313Y-45448562D01*
X66052293Y-45267542D01*
X65871273Y-45448562D01*
X65166996Y-45448562D01*
X64985976Y-45267542D01*
X64804956Y-45448562D01*
X64100679Y-45448562D01*
X63919659Y-45267542D01*
X63738639Y-45448562D01*
X63034362Y-45448562D01*
X62853342Y-45267542D01*
X62809750Y-45311134D01*
X62114940Y-45311134D01*
X61924362Y-44915403D01*
X63205481Y-44915403D01*
X63386501Y-45096424D01*
X63567521Y-44915404D01*
X64271798Y-44915404D01*
X64452818Y-45096424D01*
X64633838Y-44915404D01*
X65338115Y-44915404D01*
X65519135Y-45096424D01*
X65700155Y-44915404D01*
X66404432Y-44915404D01*
X66585452Y-45096424D01*
X66766472Y-44915404D01*
X67470749Y-44915404D01*
X67651769Y-45096424D01*
X67832789Y-44915404D01*
X68537066Y-44915404D01*
X68718086Y-45096424D01*
X68899106Y-44915404D01*
X69603383Y-44915404D01*
X69784403Y-45096424D01*
X69965423Y-44915404D01*
X70669700Y-44915404D01*
X70850720Y-45096424D01*
X71031740Y-44915404D01*
X70850720Y-44734384D01*
X70669700Y-44915404D01*
X69965423Y-44915404D01*
X69784403Y-44734384D01*
X69603383Y-44915404D01*
X68899106Y-44915404D01*
X68718086Y-44734384D01*
X68537066Y-44915404D01*
X67832789Y-44915404D01*
X67651769Y-44734384D01*
X67470749Y-44915404D01*
X66766472Y-44915404D01*
X66585452Y-44734384D01*
X66404432Y-44915404D01*
X65700155Y-44915404D01*
X65519135Y-44734384D01*
X65338115Y-44915404D01*
X64633838Y-44915404D01*
X64452818Y-44734384D01*
X64271798Y-44915404D01*
X63567521Y-44915404D01*
X63386500Y-44734384D01*
X63205481Y-44915403D01*
X61924362Y-44915403D01*
X61667602Y-44382245D01*
X62672322Y-44382245D01*
X62853342Y-44563265D01*
X63034362Y-44382245D01*
X63738639Y-44382245D01*
X63919659Y-44563265D01*
X64100679Y-44382245D01*
X64804956Y-44382245D01*
X64985976Y-44563265D01*
X65166996Y-44382245D01*
X65871273Y-44382245D01*
X66052293Y-44563265D01*
X66233313Y-44382245D01*
X66937590Y-44382245D01*
X67118610Y-44563265D01*
X67299630Y-44382245D01*
X68003907Y-44382245D01*
X68184927Y-44563265D01*
X68365947Y-44382245D01*
X69070224Y-44382245D01*
X69251244Y-44563265D01*
X69432264Y-44382245D01*
X70136541Y-44382245D01*
X70317561Y-44563265D01*
X70498581Y-44382245D01*
X71202858Y-44382245D01*
X71383878Y-44563265D01*
X71491238Y-44455905D01*
X71530655Y-44348002D01*
X71383878Y-44201225D01*
X71202858Y-44382245D01*
X70498581Y-44382245D01*
X70317561Y-44201225D01*
X70136541Y-44382245D01*
X69432264Y-44382245D01*
X69251244Y-44201225D01*
X69070224Y-44382245D01*
X68365947Y-44382245D01*
X68184927Y-44201225D01*
X68003907Y-44382245D01*
X67299630Y-44382245D01*
X67118610Y-44201225D01*
X66937590Y-44382245D01*
X66233313Y-44382245D01*
X66052293Y-44201225D01*
X65871273Y-44382245D01*
X65166996Y-44382245D01*
X64985976Y-44201225D01*
X64804956Y-44382245D01*
X64100679Y-44382245D01*
X63919659Y-44201225D01*
X63738639Y-44382245D01*
X63034362Y-44382245D01*
X62853342Y-44201225D01*
X62672322Y-44382245D01*
X61667602Y-44382245D01*
X61410841Y-43849086D01*
X62139164Y-43849086D01*
X62320184Y-44030107D01*
X62501204Y-43849087D01*
X62501203Y-43849086D01*
X63205481Y-43849086D01*
X63386501Y-44030107D01*
X63567521Y-43849087D01*
X64271798Y-43849087D01*
X64452818Y-44030107D01*
X64633838Y-43849087D01*
X65338115Y-43849087D01*
X65519135Y-44030107D01*
X65700155Y-43849087D01*
X66404432Y-43849087D01*
X66585452Y-44030107D01*
X66766472Y-43849087D01*
X67470749Y-43849087D01*
X67651769Y-44030107D01*
X67832789Y-43849087D01*
X68537066Y-43849087D01*
X68718086Y-44030107D01*
X68899106Y-43849087D01*
X69603383Y-43849087D01*
X69784403Y-44030107D01*
X69965423Y-43849087D01*
X70669700Y-43849087D01*
X70850720Y-44030107D01*
X71031740Y-43849087D01*
X70850720Y-43668067D01*
X70669700Y-43849087D01*
X69965423Y-43849087D01*
X69784403Y-43668067D01*
X69603383Y-43849087D01*
X68899106Y-43849087D01*
X68718086Y-43668067D01*
X68537066Y-43849087D01*
X67832789Y-43849087D01*
X67651769Y-43668067D01*
X67470749Y-43849087D01*
X66766472Y-43849087D01*
X66585452Y-43668067D01*
X66404432Y-43849087D01*
X65700155Y-43849087D01*
X65519135Y-43668067D01*
X65338115Y-43849087D01*
X64633838Y-43849087D01*
X64452818Y-43668067D01*
X64271798Y-43849087D01*
X63567521Y-43849087D01*
X63386500Y-43668067D01*
X63205481Y-43849086D01*
X62501203Y-43849086D01*
X62320183Y-43668067D01*
X62139164Y-43849086D01*
X61410841Y-43849086D01*
X61075132Y-43151992D01*
X61769941Y-43151992D01*
X61887621Y-43396352D01*
X61968045Y-43315928D01*
X62672322Y-43315928D01*
X62853342Y-43496948D01*
X63034362Y-43315928D01*
X63738639Y-43315928D01*
X63919659Y-43496948D01*
X64100679Y-43315928D01*
X64804956Y-43315928D01*
X64985976Y-43496948D01*
X65166996Y-43315928D01*
X65871273Y-43315928D01*
X66052293Y-43496948D01*
X66233313Y-43315928D01*
X66937590Y-43315928D01*
X67118610Y-43496948D01*
X67299630Y-43315928D01*
X68003907Y-43315928D01*
X68184927Y-43496948D01*
X68365947Y-43315928D01*
X69070224Y-43315928D01*
X69251244Y-43496948D01*
X69432264Y-43315928D01*
X70136541Y-43315928D01*
X70317561Y-43496948D01*
X70498581Y-43315928D01*
X71202858Y-43315928D01*
X71383878Y-43496948D01*
X71564898Y-43315928D01*
X71383878Y-43134908D01*
X71202858Y-43315928D01*
X70498581Y-43315928D01*
X70317561Y-43134908D01*
X70136541Y-43315928D01*
X69432264Y-43315928D01*
X69251244Y-43134908D01*
X69070224Y-43315928D01*
X68365947Y-43315928D01*
X68184927Y-43134908D01*
X68003907Y-43315928D01*
X67299630Y-43315928D01*
X67118610Y-43134908D01*
X66937590Y-43315928D01*
X66233313Y-43315928D01*
X66052293Y-43134908D01*
X65871273Y-43315928D01*
X65166996Y-43315928D01*
X64985976Y-43134908D01*
X64804956Y-43315928D01*
X64100679Y-43315928D01*
X63919659Y-43134908D01*
X63738639Y-43315928D01*
X63034362Y-43315928D01*
X62853342Y-43134908D01*
X62672322Y-43315928D01*
X61968045Y-43315928D01*
X61787025Y-43134908D01*
X61769941Y-43151992D01*
X61075132Y-43151992D01*
X60897320Y-42782769D01*
X62139164Y-42782769D01*
X62320184Y-42963790D01*
X62501204Y-42782770D01*
X62501203Y-42782769D01*
X63205481Y-42782769D01*
X63386501Y-42963790D01*
X63567521Y-42782770D01*
X64271798Y-42782770D01*
X64452818Y-42963790D01*
X64633838Y-42782770D01*
X65338115Y-42782770D01*
X65519135Y-42963790D01*
X65700155Y-42782770D01*
X66404432Y-42782770D01*
X66585452Y-42963790D01*
X66766472Y-42782770D01*
X67470749Y-42782770D01*
X67651769Y-42963790D01*
X67832789Y-42782770D01*
X68537066Y-42782770D01*
X68718086Y-42963790D01*
X68899106Y-42782770D01*
X69603383Y-42782770D01*
X69784403Y-42963790D01*
X69965423Y-42782770D01*
X70669700Y-42782770D01*
X70850720Y-42963790D01*
X71031740Y-42782770D01*
X71736017Y-42782770D01*
X71917037Y-42963790D01*
X72098057Y-42782770D01*
X71917037Y-42601750D01*
X71736017Y-42782770D01*
X71031740Y-42782770D01*
X70850720Y-42601750D01*
X70669700Y-42782770D01*
X69965423Y-42782770D01*
X69784403Y-42601750D01*
X69603383Y-42782770D01*
X68899106Y-42782770D01*
X68718086Y-42601750D01*
X68537066Y-42782770D01*
X67832789Y-42782770D01*
X67651769Y-42601750D01*
X67470749Y-42782770D01*
X66766472Y-42782770D01*
X66585452Y-42601750D01*
X66404432Y-42782770D01*
X65700155Y-42782770D01*
X65519135Y-42601750D01*
X65338115Y-42782770D01*
X64633838Y-42782770D01*
X64452818Y-42601750D01*
X64271798Y-42782770D01*
X63567521Y-42782770D01*
X63386500Y-42601750D01*
X63205481Y-42782769D01*
X62501203Y-42782769D01*
X62320183Y-42601750D01*
X62139164Y-42782769D01*
X60897320Y-42782769D01*
X60640559Y-42249611D01*
X61606005Y-42249611D01*
X61787025Y-42430631D01*
X61968045Y-42249611D01*
X62672322Y-42249611D01*
X62853342Y-42430631D01*
X63034362Y-42249611D01*
X63738639Y-42249611D01*
X63919659Y-42430631D01*
X64100679Y-42249611D01*
X64804956Y-42249611D01*
X64985976Y-42430631D01*
X65166996Y-42249611D01*
X65871273Y-42249611D01*
X66052293Y-42430631D01*
X66233313Y-42249611D01*
X66937590Y-42249611D01*
X67118610Y-42430631D01*
X67299630Y-42249611D01*
X68003907Y-42249611D01*
X68184927Y-42430631D01*
X68218734Y-42396824D01*
X69217437Y-42396824D01*
X69251244Y-42430631D01*
X69272555Y-42409319D01*
X69264497Y-42408880D01*
X69217437Y-42396824D01*
X68218734Y-42396824D01*
X68365947Y-42249611D01*
X70136541Y-42249611D01*
X70317561Y-42430631D01*
X70498581Y-42249611D01*
X71202858Y-42249611D01*
X71383878Y-42430631D01*
X71564898Y-42249611D01*
X71383878Y-42068591D01*
X71202858Y-42249611D01*
X70498581Y-42249611D01*
X70317561Y-42068591D01*
X70136541Y-42249611D01*
X68365947Y-42249611D01*
X68184927Y-42068591D01*
X68003907Y-42249611D01*
X67299630Y-42249611D01*
X67118610Y-42068591D01*
X66937590Y-42249611D01*
X66233313Y-42249611D01*
X66052293Y-42068591D01*
X65871273Y-42249611D01*
X65166996Y-42249611D01*
X64985976Y-42068591D01*
X64804956Y-42249611D01*
X64100679Y-42249611D01*
X63919659Y-42068591D01*
X63738639Y-42249611D01*
X63034362Y-42249611D01*
X62853342Y-42068591D01*
X62672322Y-42249611D01*
X61968045Y-42249611D01*
X61787025Y-42068591D01*
X61606005Y-42249611D01*
X60640559Y-42249611D01*
X60381925Y-41712563D01*
X61076736Y-41712563D01*
X61083962Y-41727568D01*
X61253867Y-41897473D01*
X61434887Y-41716453D01*
X61434886Y-41716452D01*
X62139164Y-41716452D01*
X62320184Y-41897473D01*
X62501204Y-41716453D01*
X62501203Y-41716452D01*
X63205481Y-41716452D01*
X63386501Y-41897473D01*
X63567521Y-41716453D01*
X64271798Y-41716453D01*
X64452818Y-41897473D01*
X64633838Y-41716453D01*
X65338115Y-41716453D01*
X65519135Y-41897473D01*
X65700155Y-41716453D01*
X66404432Y-41716453D01*
X66585452Y-41897473D01*
X66766472Y-41716453D01*
X67470749Y-41716453D01*
X67651769Y-41897473D01*
X67798468Y-41750774D01*
X67553768Y-41633434D01*
X67470749Y-41716453D01*
X66766472Y-41716453D01*
X66585452Y-41535433D01*
X66404432Y-41716453D01*
X65700155Y-41716453D01*
X65519135Y-41535433D01*
X65338115Y-41716453D01*
X64633838Y-41716453D01*
X64452818Y-41535433D01*
X64271798Y-41716453D01*
X63567521Y-41716453D01*
X63386500Y-41535433D01*
X63205481Y-41716452D01*
X62501203Y-41716452D01*
X62320183Y-41535433D01*
X62139164Y-41716452D01*
X61434886Y-41716452D01*
X61253866Y-41535433D01*
X61076736Y-41712563D01*
X60381925Y-41712563D01*
X60052832Y-41029209D01*
X60747643Y-41029209D01*
X60847813Y-41237209D01*
X60901728Y-41183294D01*
X61606005Y-41183294D01*
X61787025Y-41364314D01*
X61968045Y-41183294D01*
X62672322Y-41183294D01*
X62853342Y-41364314D01*
X63034362Y-41183294D01*
X63738639Y-41183294D01*
X63919659Y-41364314D01*
X64100679Y-41183294D01*
X64804956Y-41183294D01*
X64985976Y-41364314D01*
X65166996Y-41183294D01*
X65871273Y-41183294D01*
X66052293Y-41364314D01*
X66233313Y-41183294D01*
X66052293Y-41002274D01*
X65871273Y-41183294D01*
X65166996Y-41183294D01*
X64985976Y-41002274D01*
X64804956Y-41183294D01*
X64100679Y-41183294D01*
X63919659Y-41002274D01*
X63738639Y-41183294D01*
X63034362Y-41183294D01*
X62853342Y-41002274D01*
X62672322Y-41183294D01*
X61968045Y-41183294D01*
X61787025Y-41002274D01*
X61606005Y-41183294D01*
X60901728Y-41183294D01*
X60747643Y-41029209D01*
X60052832Y-41029209D01*
X59870276Y-40650135D01*
X61072847Y-40650135D01*
X61253867Y-40831156D01*
X61434887Y-40650136D01*
X61434886Y-40650135D01*
X62139164Y-40650135D01*
X62320184Y-40831156D01*
X62501204Y-40650136D01*
X62501203Y-40650135D01*
X63205481Y-40650135D01*
X63386501Y-40831156D01*
X63567521Y-40650136D01*
X64271798Y-40650136D01*
X64452818Y-40831156D01*
X64633838Y-40650136D01*
X65338115Y-40650136D01*
X65519135Y-40831156D01*
X65636325Y-40713966D01*
X65391626Y-40596625D01*
X65338115Y-40650136D01*
X64633838Y-40650136D01*
X64452818Y-40469116D01*
X64271798Y-40650136D01*
X63567521Y-40650136D01*
X63386500Y-40469116D01*
X63205481Y-40650135D01*
X62501203Y-40650135D01*
X62320183Y-40469116D01*
X62139164Y-40650135D01*
X61434886Y-40650135D01*
X61253866Y-40469116D01*
X61072847Y-40650135D01*
X59870276Y-40650135D01*
X59613515Y-40116977D01*
X60539688Y-40116977D01*
X60720708Y-40297997D01*
X60901728Y-40116977D01*
X61606005Y-40116977D01*
X61787025Y-40297997D01*
X61968045Y-40116977D01*
X62672322Y-40116977D01*
X62853342Y-40297997D01*
X63034362Y-40116977D01*
X63738639Y-40116977D01*
X63919659Y-40297997D01*
X64100679Y-40116977D01*
X63919659Y-39935957D01*
X63738639Y-40116977D01*
X63034362Y-40116977D01*
X62853342Y-39935957D01*
X62672322Y-40116977D01*
X61968045Y-40116977D01*
X61787025Y-39935957D01*
X61606005Y-40116977D01*
X60901728Y-40116977D01*
X60720708Y-39935957D01*
X60539688Y-40116977D01*
X59613515Y-40116977D01*
X59342116Y-39553422D01*
X60036926Y-39553422D01*
X60093402Y-39670691D01*
X60187550Y-39764839D01*
X60368570Y-39583819D01*
X60368569Y-39583818D01*
X61072847Y-39583818D01*
X61253867Y-39764839D01*
X61434887Y-39583819D01*
X61434886Y-39583818D01*
X62139164Y-39583818D01*
X62320184Y-39764839D01*
X62501204Y-39583819D01*
X62501203Y-39583818D01*
X63205481Y-39583818D01*
X63386501Y-39764839D01*
X63474182Y-39677158D01*
X63229482Y-39559817D01*
X63205481Y-39583818D01*
X62501203Y-39583818D01*
X62320183Y-39402799D01*
X62139164Y-39583818D01*
X61434886Y-39583818D01*
X61253866Y-39402799D01*
X61072847Y-39583818D01*
X60368569Y-39583818D01*
X60187549Y-39402799D01*
X60036926Y-39553422D01*
X59342116Y-39553422D01*
X59062273Y-38972333D01*
X59757084Y-38972333D01*
X59808004Y-39078067D01*
X59835411Y-39050660D01*
X60539688Y-39050660D01*
X60720708Y-39231680D01*
X60901728Y-39050660D01*
X61606005Y-39050660D01*
X61787025Y-39231680D01*
X61968045Y-39050660D01*
X61787025Y-38869640D01*
X61606005Y-39050660D01*
X60901728Y-39050660D01*
X60720708Y-38869640D01*
X60539688Y-39050660D01*
X59835411Y-39050660D01*
X59757084Y-38972333D01*
X59062273Y-38972333D01*
X58843234Y-38517502D01*
X60006530Y-38517502D01*
X60187549Y-38698521D01*
X60352915Y-38533156D01*
X61088501Y-38533156D01*
X61253866Y-38698521D01*
X61312039Y-38640348D01*
X61088501Y-38533156D01*
X60352915Y-38533156D01*
X60368570Y-38517501D01*
X60187550Y-38336481D01*
X60006530Y-38517502D01*
X58843234Y-38517502D01*
X58586473Y-37984343D01*
X59473371Y-37984343D01*
X59654391Y-38165363D01*
X59835411Y-37984343D01*
X59735350Y-37884282D01*
X59625911Y-37831803D01*
X59473371Y-37984343D01*
X58586473Y-37984343D01*
X58451103Y-37703250D01*
X58439568Y-37633199D01*
X58467737Y-37568030D01*
X58475530Y-37559487D01*
X59070456Y-36964561D01*
X59132768Y-36930535D01*
X59203583Y-36935600D01*
G37*
%TD.AperFunction*%
%TA.AperFunction,NonConductor*%
G36*
X63564212Y-13907649D02*
G01*
X64002294Y-14067679D01*
X66035287Y-14810325D01*
X68636877Y-15760678D01*
X68664675Y-15774959D01*
X69534378Y-16368564D01*
X69549885Y-16381056D01*
X70565848Y-17341350D01*
X70582259Y-17360292D01*
X70625770Y-17421987D01*
X71039029Y-18007953D01*
X71054515Y-18037622D01*
X72672067Y-22498768D01*
X72679613Y-22541618D01*
X72680666Y-23874019D01*
X72681366Y-24759317D01*
X72681466Y-24886400D01*
X72661518Y-24954537D01*
X72607899Y-25001072D01*
X72571275Y-25011504D01*
X72189727Y-25059746D01*
X72117682Y-25047493D01*
X71995912Y-24986753D01*
X70471083Y-24226158D01*
X72170483Y-24226158D01*
X72182954Y-24238629D01*
X72182934Y-24213707D01*
X72170483Y-24226158D01*
X70471083Y-24226158D01*
X69765120Y-23874019D01*
X69246314Y-23615235D01*
X70648773Y-23615235D01*
X70890324Y-23735722D01*
X70933047Y-23693000D01*
X71637325Y-23693000D01*
X71818344Y-23874019D01*
X71999365Y-23692999D01*
X71818345Y-23511979D01*
X71637325Y-23693000D01*
X70933047Y-23693000D01*
X70933048Y-23692999D01*
X70752028Y-23511979D01*
X70648773Y-23615235D01*
X69246314Y-23615235D01*
X69205280Y-23594767D01*
X69189071Y-23586682D01*
X59094350Y-28448142D01*
X59024299Y-28459677D01*
X58959130Y-28431508D01*
X58950587Y-28423715D01*
X58355661Y-27828789D01*
X58321635Y-27766477D01*
X58326700Y-27695662D01*
X58331143Y-27685213D01*
X58455870Y-27425109D01*
X59374679Y-27425109D01*
X59505094Y-27555524D01*
X59700324Y-27461504D01*
X59736719Y-27425109D01*
X59555699Y-27244089D01*
X59374679Y-27425109D01*
X58455870Y-27425109D01*
X58711534Y-26891950D01*
X59907837Y-26891950D01*
X60088858Y-27072970D01*
X60269877Y-26891951D01*
X60185189Y-26807263D01*
X61058841Y-26807263D01*
X61188882Y-26744638D01*
X61155174Y-26710930D01*
X61058841Y-26807263D01*
X60185189Y-26807263D01*
X60088857Y-26710930D01*
X59907837Y-26891950D01*
X58711534Y-26891950D01*
X58897852Y-26503406D01*
X59592105Y-26503406D01*
X59736719Y-26358792D01*
X60440996Y-26358792D01*
X60622016Y-26539812D01*
X60803036Y-26358792D01*
X61507313Y-26358792D01*
X61664236Y-26515715D01*
X61757201Y-26470944D01*
X61869353Y-26358792D01*
X61688333Y-26177772D01*
X61507313Y-26358792D01*
X60803036Y-26358792D01*
X60622016Y-26177772D01*
X60440996Y-26358792D01*
X59736719Y-26358792D01*
X59685847Y-26307920D01*
X59592105Y-26503406D01*
X58897852Y-26503406D01*
X59219856Y-25831904D01*
X59914109Y-25831904D01*
X60088858Y-26006653D01*
X60269877Y-25825634D01*
X60269876Y-25825633D01*
X60974154Y-25825633D01*
X61155175Y-26006653D01*
X61336194Y-25825634D01*
X61336193Y-25825633D01*
X62040471Y-25825633D01*
X62221492Y-26006653D01*
X62402511Y-25825634D01*
X62393581Y-25816704D01*
X63115717Y-25816704D01*
X63348024Y-25704829D01*
X63287808Y-25644613D01*
X63115717Y-25816704D01*
X62393581Y-25816704D01*
X62221491Y-25644613D01*
X62040471Y-25825633D01*
X61336193Y-25825633D01*
X61155174Y-25644613D01*
X60974154Y-25825633D01*
X60269876Y-25825633D01*
X60088857Y-25644613D01*
X59925666Y-25807804D01*
X59914109Y-25831904D01*
X59219856Y-25831904D01*
X59478527Y-25292475D01*
X60440996Y-25292475D01*
X60622016Y-25473495D01*
X60803036Y-25292475D01*
X61507313Y-25292475D01*
X61688333Y-25473495D01*
X61869353Y-25292475D01*
X62573630Y-25292475D01*
X62754650Y-25473495D01*
X62935670Y-25292475D01*
X63639947Y-25292475D01*
X63820967Y-25473495D01*
X64001987Y-25292475D01*
X63820967Y-25111455D01*
X63639947Y-25292475D01*
X62935670Y-25292475D01*
X62754650Y-25111455D01*
X62573630Y-25292475D01*
X61869353Y-25292475D01*
X61688333Y-25111455D01*
X61507313Y-25292475D01*
X60803036Y-25292475D01*
X60622016Y-25111455D01*
X60440996Y-25292475D01*
X59478527Y-25292475D01*
X59734192Y-24759316D01*
X60974154Y-24759316D01*
X61155175Y-24940336D01*
X61336194Y-24759317D01*
X61336193Y-24759316D01*
X62040471Y-24759316D01*
X62221492Y-24940336D01*
X62402511Y-24759317D01*
X62402510Y-24759316D01*
X63106788Y-24759316D01*
X63287809Y-24940336D01*
X63468828Y-24759317D01*
X63468827Y-24759316D01*
X64173105Y-24759316D01*
X64354126Y-24940336D01*
X64535145Y-24759317D01*
X64535144Y-24759316D01*
X65239422Y-24759316D01*
X65262806Y-24782700D01*
X65507166Y-24665020D01*
X65420442Y-24578296D01*
X65239422Y-24759316D01*
X64535144Y-24759316D01*
X64354125Y-24578296D01*
X64173105Y-24759316D01*
X63468827Y-24759316D01*
X63287808Y-24578296D01*
X63106788Y-24759316D01*
X62402510Y-24759316D01*
X62221491Y-24578296D01*
X62040471Y-24759316D01*
X61336193Y-24759316D01*
X61155174Y-24578296D01*
X60974154Y-24759316D01*
X59734192Y-24759316D01*
X59911061Y-24390476D01*
X60605314Y-24390476D01*
X60622016Y-24407178D01*
X60803036Y-24226158D01*
X61507313Y-24226158D01*
X61688333Y-24407178D01*
X61869353Y-24226158D01*
X62573630Y-24226158D01*
X62754650Y-24407178D01*
X62935670Y-24226158D01*
X63639947Y-24226158D01*
X63820967Y-24407178D01*
X64001987Y-24226158D01*
X64706264Y-24226158D01*
X64887284Y-24407178D01*
X65068304Y-24226158D01*
X65772581Y-24226158D01*
X65953601Y-24407178D01*
X66134621Y-24226158D01*
X65953601Y-24045138D01*
X65772581Y-24226158D01*
X65068304Y-24226158D01*
X64887284Y-24045138D01*
X64706264Y-24226158D01*
X64001987Y-24226158D01*
X63820967Y-24045138D01*
X63639947Y-24226158D01*
X62935670Y-24226158D01*
X62754650Y-24045138D01*
X62573630Y-24226158D01*
X61869353Y-24226158D01*
X61688333Y-24045138D01*
X61507313Y-24226158D01*
X60803036Y-24226158D01*
X60722655Y-24145777D01*
X60605314Y-24390476D01*
X59911061Y-24390476D01*
X60245521Y-23692999D01*
X60974154Y-23692999D01*
X61155175Y-23874019D01*
X61336194Y-23693000D01*
X61336193Y-23692999D01*
X62040471Y-23692999D01*
X62221492Y-23874019D01*
X62402511Y-23693000D01*
X62402510Y-23692999D01*
X63106788Y-23692999D01*
X63287809Y-23874019D01*
X63468828Y-23693000D01*
X63468827Y-23692999D01*
X64173105Y-23692999D01*
X64354126Y-23874019D01*
X64535145Y-23693000D01*
X64535144Y-23692999D01*
X65239422Y-23692999D01*
X65420443Y-23874019D01*
X65601462Y-23693000D01*
X65601461Y-23692999D01*
X66305739Y-23692999D01*
X66486760Y-23874019D01*
X66667779Y-23693000D01*
X67372057Y-23693000D01*
X67421947Y-23742890D01*
X67666308Y-23625210D01*
X67553077Y-23511979D01*
X67372057Y-23693000D01*
X66667779Y-23693000D01*
X66486759Y-23511979D01*
X66305739Y-23692999D01*
X65601461Y-23692999D01*
X65420442Y-23511979D01*
X65239422Y-23692999D01*
X64535144Y-23692999D01*
X64354125Y-23511979D01*
X64173105Y-23692999D01*
X63468827Y-23692999D01*
X63287808Y-23511979D01*
X63106788Y-23692999D01*
X62402510Y-23692999D01*
X62221491Y-23511979D01*
X62040471Y-23692999D01*
X61336193Y-23692999D01*
X61155174Y-23511979D01*
X60974154Y-23692999D01*
X60245521Y-23692999D01*
X60501185Y-23159841D01*
X61507313Y-23159841D01*
X61688333Y-23340861D01*
X61869353Y-23159841D01*
X62573630Y-23159841D01*
X62754650Y-23340861D01*
X62935670Y-23159841D01*
X63639947Y-23159841D01*
X63820967Y-23340861D01*
X64001987Y-23159841D01*
X64706264Y-23159841D01*
X64887284Y-23340861D01*
X65068304Y-23159841D01*
X65772581Y-23159841D01*
X65953601Y-23340861D01*
X66134621Y-23159841D01*
X66838898Y-23159841D01*
X67019918Y-23340861D01*
X67200938Y-23159841D01*
X67905215Y-23159841D01*
X68086235Y-23340861D01*
X68267255Y-23159841D01*
X70037849Y-23159841D01*
X70218869Y-23340861D01*
X70399889Y-23159841D01*
X71104166Y-23159841D01*
X71285186Y-23340861D01*
X71466206Y-23159841D01*
X72170483Y-23159841D01*
X72182110Y-23171468D01*
X72182092Y-23148232D01*
X72170483Y-23159841D01*
X71466206Y-23159841D01*
X71285186Y-22978821D01*
X71104166Y-23159841D01*
X70399889Y-23159841D01*
X70218869Y-22978821D01*
X70037849Y-23159841D01*
X68267255Y-23159841D01*
X68086235Y-22978821D01*
X67905215Y-23159841D01*
X67200938Y-23159841D01*
X67019918Y-22978821D01*
X66838898Y-23159841D01*
X66134621Y-23159841D01*
X65953601Y-22978821D01*
X65772581Y-23159841D01*
X65068304Y-23159841D01*
X64887284Y-22978821D01*
X64706264Y-23159841D01*
X64001987Y-23159841D01*
X63820967Y-22978821D01*
X63639947Y-23159841D01*
X62935670Y-23159841D01*
X62754650Y-22978821D01*
X62573630Y-23159841D01*
X61869353Y-23159841D01*
X61688333Y-22978821D01*
X61507313Y-23159841D01*
X60501185Y-23159841D01*
X60756850Y-22626682D01*
X62040471Y-22626682D01*
X62221492Y-22807702D01*
X62402511Y-22626683D01*
X62402510Y-22626682D01*
X63106788Y-22626682D01*
X63287809Y-22807702D01*
X63468828Y-22626683D01*
X63468827Y-22626682D01*
X64173105Y-22626682D01*
X64354126Y-22807702D01*
X64535145Y-22626683D01*
X64535144Y-22626682D01*
X65239422Y-22626682D01*
X65420443Y-22807702D01*
X65601462Y-22626683D01*
X65601461Y-22626682D01*
X66305739Y-22626682D01*
X66486760Y-22807702D01*
X66667779Y-22626683D01*
X67372057Y-22626683D01*
X67553076Y-22807702D01*
X67734096Y-22626683D01*
X68438374Y-22626683D01*
X68619393Y-22807702D01*
X68800413Y-22626683D01*
X69504691Y-22626683D01*
X69685710Y-22807702D01*
X69866730Y-22626683D01*
X70571008Y-22626683D01*
X70752027Y-22807702D01*
X70933047Y-22626683D01*
X71637325Y-22626683D01*
X71818344Y-22807702D01*
X71999365Y-22626682D01*
X71818345Y-22445662D01*
X71637325Y-22626683D01*
X70933047Y-22626683D01*
X70933048Y-22626682D01*
X70752028Y-22445662D01*
X70571008Y-22626683D01*
X69866730Y-22626683D01*
X69866731Y-22626682D01*
X69685711Y-22445662D01*
X69504691Y-22626683D01*
X68800413Y-22626683D01*
X68800414Y-22626682D01*
X68619394Y-22445662D01*
X68438374Y-22626683D01*
X67734096Y-22626683D01*
X67734097Y-22626682D01*
X67553077Y-22445662D01*
X67372057Y-22626683D01*
X66667779Y-22626683D01*
X66486759Y-22445662D01*
X66305739Y-22626682D01*
X65601461Y-22626682D01*
X65420442Y-22445662D01*
X65239422Y-22626682D01*
X64535144Y-22626682D01*
X64354125Y-22445662D01*
X64173105Y-22626682D01*
X63468827Y-22626682D01*
X63287808Y-22445662D01*
X63106788Y-22626682D01*
X62402510Y-22626682D01*
X62221491Y-22445662D01*
X62040471Y-22626682D01*
X60756850Y-22626682D01*
X60947869Y-22228333D01*
X61642122Y-22228333D01*
X61688333Y-22274544D01*
X61869353Y-22093524D01*
X62573630Y-22093524D01*
X62754650Y-22274544D01*
X62935670Y-22093524D01*
X63639947Y-22093524D01*
X63820967Y-22274544D01*
X64001987Y-22093524D01*
X64706264Y-22093524D01*
X64887284Y-22274544D01*
X65068304Y-22093524D01*
X65772581Y-22093524D01*
X65953601Y-22274544D01*
X66134621Y-22093524D01*
X66838898Y-22093524D01*
X67019918Y-22274544D01*
X67200938Y-22093524D01*
X67905215Y-22093524D01*
X68086235Y-22274544D01*
X68267255Y-22093524D01*
X68971532Y-22093524D01*
X69152552Y-22274544D01*
X69333572Y-22093524D01*
X70037849Y-22093524D01*
X70218869Y-22274544D01*
X70399889Y-22093524D01*
X71104166Y-22093524D01*
X71285186Y-22274544D01*
X71466206Y-22093524D01*
X71285186Y-21912504D01*
X71104166Y-22093524D01*
X70399889Y-22093524D01*
X70218869Y-21912504D01*
X70037849Y-22093524D01*
X69333572Y-22093524D01*
X69152552Y-21912504D01*
X68971532Y-22093524D01*
X68267255Y-22093524D01*
X68086235Y-21912504D01*
X67905215Y-22093524D01*
X67200938Y-22093524D01*
X67019918Y-21912504D01*
X66838898Y-22093524D01*
X66134621Y-22093524D01*
X65953601Y-21912504D01*
X65772581Y-22093524D01*
X65068304Y-22093524D01*
X64887284Y-21912504D01*
X64706264Y-22093524D01*
X64001987Y-22093524D01*
X63820967Y-21912504D01*
X63639947Y-22093524D01*
X62935670Y-22093524D01*
X62754650Y-21912504D01*
X62573630Y-22093524D01*
X61869353Y-22093524D01*
X61759463Y-21983634D01*
X61642122Y-22228333D01*
X60947869Y-22228333D01*
X61268179Y-21560365D01*
X62040471Y-21560365D01*
X62221492Y-21741385D01*
X62402511Y-21560366D01*
X62402510Y-21560365D01*
X63106788Y-21560365D01*
X63287809Y-21741385D01*
X63468828Y-21560366D01*
X63468827Y-21560365D01*
X64173105Y-21560365D01*
X64354126Y-21741385D01*
X64535145Y-21560366D01*
X64535144Y-21560365D01*
X65239422Y-21560365D01*
X65420443Y-21741385D01*
X65601462Y-21560366D01*
X65601461Y-21560365D01*
X66305739Y-21560365D01*
X66486760Y-21741385D01*
X66667779Y-21560366D01*
X67372057Y-21560366D01*
X67553076Y-21741385D01*
X67734096Y-21560366D01*
X68438374Y-21560366D01*
X68619393Y-21741385D01*
X68800413Y-21560366D01*
X69504691Y-21560366D01*
X69685710Y-21741385D01*
X69866730Y-21560366D01*
X70571008Y-21560366D01*
X70752027Y-21741385D01*
X70933047Y-21560366D01*
X71637325Y-21560366D01*
X71682211Y-21605252D01*
X71658323Y-21539368D01*
X71637325Y-21560366D01*
X70933047Y-21560366D01*
X70933048Y-21560365D01*
X70752028Y-21379345D01*
X70571008Y-21560366D01*
X69866730Y-21560366D01*
X69866731Y-21560365D01*
X69685711Y-21379345D01*
X69504691Y-21560366D01*
X68800413Y-21560366D01*
X68800414Y-21560365D01*
X68619394Y-21379345D01*
X68438374Y-21560366D01*
X67734096Y-21560366D01*
X67734097Y-21560365D01*
X67553077Y-21379345D01*
X67372057Y-21560366D01*
X66667779Y-21560366D01*
X66486759Y-21379345D01*
X66305739Y-21560365D01*
X65601461Y-21560365D01*
X65420442Y-21379345D01*
X65239422Y-21560365D01*
X64535144Y-21560365D01*
X64354125Y-21379345D01*
X64173105Y-21560365D01*
X63468827Y-21560365D01*
X63287808Y-21379345D01*
X63106788Y-21560365D01*
X62402510Y-21560365D01*
X62221491Y-21379345D01*
X62040471Y-21560365D01*
X61268179Y-21560365D01*
X61523843Y-21027207D01*
X62573630Y-21027207D01*
X62754650Y-21208227D01*
X62935670Y-21027207D01*
X63639947Y-21027207D01*
X63820967Y-21208227D01*
X64001987Y-21027207D01*
X64706264Y-21027207D01*
X64887284Y-21208227D01*
X65068304Y-21027207D01*
X65772581Y-21027207D01*
X65953601Y-21208227D01*
X66134621Y-21027207D01*
X66838898Y-21027207D01*
X67019918Y-21208227D01*
X67200938Y-21027207D01*
X67905215Y-21027207D01*
X68086235Y-21208227D01*
X68267255Y-21027207D01*
X68971532Y-21027207D01*
X69152552Y-21208227D01*
X69333572Y-21027207D01*
X70037849Y-21027207D01*
X70218869Y-21208227D01*
X70399889Y-21027207D01*
X71104166Y-21027207D01*
X71285186Y-21208227D01*
X71466206Y-21027207D01*
X71285186Y-20846187D01*
X71104166Y-21027207D01*
X70399889Y-21027207D01*
X70218869Y-20846187D01*
X70037849Y-21027207D01*
X69333572Y-21027207D01*
X69152552Y-20846187D01*
X68971532Y-21027207D01*
X68267255Y-21027207D01*
X68086235Y-20846187D01*
X67905215Y-21027207D01*
X67200938Y-21027207D01*
X67019918Y-20846187D01*
X66838898Y-21027207D01*
X66134621Y-21027207D01*
X65953601Y-20846187D01*
X65772581Y-21027207D01*
X65068304Y-21027207D01*
X64887284Y-20846187D01*
X64706264Y-21027207D01*
X64001987Y-21027207D01*
X63820967Y-20846187D01*
X63639947Y-21027207D01*
X62935670Y-21027207D01*
X62754650Y-20846187D01*
X62573630Y-21027207D01*
X61523843Y-21027207D01*
X61779508Y-20494048D01*
X63106788Y-20494048D01*
X63287809Y-20675068D01*
X63468828Y-20494049D01*
X63468827Y-20494048D01*
X64173105Y-20494048D01*
X64354126Y-20675068D01*
X64535145Y-20494049D01*
X64535144Y-20494048D01*
X65239422Y-20494048D01*
X65420443Y-20675068D01*
X65601462Y-20494049D01*
X65601461Y-20494048D01*
X66305739Y-20494048D01*
X66486760Y-20675068D01*
X66667779Y-20494049D01*
X67372057Y-20494049D01*
X67553076Y-20675068D01*
X67734096Y-20494049D01*
X68438374Y-20494049D01*
X68619393Y-20675068D01*
X68800413Y-20494049D01*
X69504691Y-20494049D01*
X69685710Y-20675068D01*
X69866730Y-20494049D01*
X70571008Y-20494049D01*
X70752027Y-20675068D01*
X70933048Y-20494048D01*
X70752028Y-20313028D01*
X70571008Y-20494049D01*
X69866730Y-20494049D01*
X69866731Y-20494048D01*
X69685711Y-20313028D01*
X69504691Y-20494049D01*
X68800413Y-20494049D01*
X68800414Y-20494048D01*
X68619394Y-20313028D01*
X68438374Y-20494049D01*
X67734096Y-20494049D01*
X67734097Y-20494048D01*
X67553077Y-20313028D01*
X67372057Y-20494049D01*
X66667779Y-20494049D01*
X66486759Y-20313028D01*
X66305739Y-20494048D01*
X65601461Y-20494048D01*
X65420442Y-20313028D01*
X65239422Y-20494048D01*
X64535144Y-20494048D01*
X64354125Y-20313028D01*
X64173105Y-20494048D01*
X63468827Y-20494048D01*
X63287808Y-20313028D01*
X63106788Y-20494048D01*
X61779508Y-20494048D01*
X61984678Y-20066190D01*
X62678930Y-20066190D01*
X62754650Y-20141910D01*
X62935670Y-19960890D01*
X63639947Y-19960890D01*
X63820967Y-20141910D01*
X64001987Y-19960890D01*
X64706264Y-19960890D01*
X64887284Y-20141910D01*
X65068304Y-19960890D01*
X65772581Y-19960890D01*
X65953601Y-20141910D01*
X66134621Y-19960890D01*
X66838898Y-19960890D01*
X67019918Y-20141910D01*
X67200938Y-19960890D01*
X67905215Y-19960890D01*
X68086235Y-20141910D01*
X68267255Y-19960890D01*
X68971532Y-19960890D01*
X69152552Y-20141910D01*
X69333572Y-19960890D01*
X70037849Y-19960890D01*
X70218869Y-20141910D01*
X70399889Y-19960890D01*
X70218869Y-19779870D01*
X70037849Y-19960890D01*
X69333572Y-19960890D01*
X69152552Y-19779870D01*
X68971532Y-19960890D01*
X68267255Y-19960890D01*
X68086235Y-19779870D01*
X67905215Y-19960890D01*
X67200938Y-19960890D01*
X67019918Y-19779870D01*
X66838898Y-19960890D01*
X66134621Y-19960890D01*
X65953601Y-19779870D01*
X65772581Y-19960890D01*
X65068304Y-19960890D01*
X64887284Y-19779870D01*
X64706264Y-19960890D01*
X64001987Y-19960890D01*
X63820967Y-19779870D01*
X63639947Y-19960890D01*
X62935670Y-19960890D01*
X62796271Y-19821491D01*
X62678930Y-20066190D01*
X61984678Y-20066190D01*
X62290837Y-19427731D01*
X63106788Y-19427731D01*
X63287808Y-19608751D01*
X63468828Y-19427731D01*
X64173105Y-19427731D01*
X64354125Y-19608751D01*
X64535145Y-19427731D01*
X65239422Y-19427731D01*
X65420442Y-19608751D01*
X65601462Y-19427731D01*
X66305739Y-19427731D01*
X66486759Y-19608751D01*
X66667779Y-19427731D01*
X67372057Y-19427731D01*
X67553077Y-19608751D01*
X67734097Y-19427731D01*
X68438374Y-19427731D01*
X68619394Y-19608751D01*
X68800414Y-19427731D01*
X69504691Y-19427731D01*
X69685711Y-19608751D01*
X69866731Y-19427731D01*
X70571008Y-19427731D01*
X70752028Y-19608751D01*
X70903415Y-19457364D01*
X70869703Y-19364386D01*
X70752028Y-19246711D01*
X70571008Y-19427731D01*
X69866731Y-19427731D01*
X69685711Y-19246711D01*
X69504691Y-19427731D01*
X68800414Y-19427731D01*
X68619394Y-19246711D01*
X68438374Y-19427731D01*
X67734097Y-19427731D01*
X67553077Y-19246711D01*
X67372057Y-19427731D01*
X66667779Y-19427731D01*
X66486759Y-19246711D01*
X66305739Y-19427731D01*
X65601462Y-19427731D01*
X65420442Y-19246711D01*
X65239422Y-19427731D01*
X64535145Y-19427731D01*
X64354125Y-19246711D01*
X64173105Y-19427731D01*
X63468828Y-19427731D01*
X63287808Y-19246711D01*
X63106788Y-19427731D01*
X62290837Y-19427731D01*
X62546501Y-18894573D01*
X63639947Y-18894573D01*
X63820967Y-19075593D01*
X64001987Y-18894573D01*
X64706264Y-18894573D01*
X64887284Y-19075593D01*
X65068304Y-18894573D01*
X65772581Y-18894573D01*
X65953601Y-19075593D01*
X66134621Y-18894573D01*
X66838898Y-18894573D01*
X67019918Y-19075593D01*
X67200938Y-18894573D01*
X67905215Y-18894573D01*
X68086235Y-19075593D01*
X68267255Y-18894573D01*
X68971532Y-18894573D01*
X69152552Y-19075593D01*
X69333572Y-18894573D01*
X70037849Y-18894573D01*
X70218869Y-19075593D01*
X70399889Y-18894573D01*
X70218869Y-18713553D01*
X70037849Y-18894573D01*
X69333572Y-18894573D01*
X69152552Y-18713553D01*
X68971532Y-18894573D01*
X68267255Y-18894573D01*
X68086235Y-18713553D01*
X67905215Y-18894573D01*
X67200938Y-18894573D01*
X67019918Y-18713553D01*
X66838898Y-18894573D01*
X66134621Y-18894573D01*
X65953601Y-18713553D01*
X65772581Y-18894573D01*
X65068304Y-18894573D01*
X64887284Y-18713553D01*
X64706264Y-18894573D01*
X64001987Y-18894573D01*
X63820967Y-18713553D01*
X63639947Y-18894573D01*
X62546501Y-18894573D01*
X62802166Y-18361414D01*
X64173105Y-18361414D01*
X64354125Y-18542434D01*
X64535145Y-18361414D01*
X65239422Y-18361414D01*
X65420442Y-18542434D01*
X65601462Y-18361414D01*
X66305739Y-18361414D01*
X66486759Y-18542434D01*
X66667779Y-18361414D01*
X67372057Y-18361414D01*
X67553077Y-18542434D01*
X67734097Y-18361414D01*
X68438374Y-18361414D01*
X68619394Y-18542434D01*
X68800414Y-18361414D01*
X69504691Y-18361414D01*
X69685711Y-18542434D01*
X69866731Y-18361414D01*
X69685711Y-18180394D01*
X69504691Y-18361414D01*
X68800414Y-18361414D01*
X68619394Y-18180394D01*
X68438374Y-18361414D01*
X67734097Y-18361414D01*
X67553077Y-18180394D01*
X67372057Y-18361414D01*
X66667779Y-18361414D01*
X66486759Y-18180394D01*
X66305739Y-18361414D01*
X65601462Y-18361414D01*
X65420442Y-18180394D01*
X65239422Y-18361414D01*
X64535145Y-18361414D01*
X64354125Y-18180394D01*
X64173105Y-18361414D01*
X62802166Y-18361414D01*
X63021486Y-17904048D01*
X63715739Y-17904048D01*
X63820967Y-18009276D01*
X64001987Y-17828256D01*
X64706264Y-17828256D01*
X64887284Y-18009276D01*
X65068304Y-17828256D01*
X65772581Y-17828256D01*
X65953601Y-18009276D01*
X66134621Y-17828256D01*
X66838898Y-17828256D01*
X67019918Y-18009276D01*
X67200938Y-17828256D01*
X67905215Y-17828256D01*
X68086235Y-18009276D01*
X68267255Y-17828256D01*
X68971532Y-17828256D01*
X69152552Y-18009276D01*
X69333572Y-17828256D01*
X70037849Y-17828256D01*
X70218869Y-18009276D01*
X70251162Y-17976983D01*
X70101430Y-17764675D01*
X70037849Y-17828256D01*
X69333572Y-17828256D01*
X69152552Y-17647236D01*
X68971532Y-17828256D01*
X68267255Y-17828256D01*
X68086235Y-17647236D01*
X67905215Y-17828256D01*
X67200938Y-17828256D01*
X67019918Y-17647236D01*
X66838898Y-17828256D01*
X66134621Y-17828256D01*
X65953601Y-17647236D01*
X65772581Y-17828256D01*
X65068304Y-17828256D01*
X64887284Y-17647236D01*
X64706264Y-17828256D01*
X64001987Y-17828256D01*
X63820966Y-17647236D01*
X63788451Y-17679751D01*
X63751565Y-17823736D01*
X63743120Y-17846948D01*
X63715739Y-17904048D01*
X63021486Y-17904048D01*
X63170830Y-17592609D01*
X63178663Y-17576274D01*
X63040018Y-17295097D01*
X64173105Y-17295097D01*
X64354125Y-17476117D01*
X64535145Y-17295097D01*
X65239422Y-17295097D01*
X65420442Y-17476117D01*
X65601462Y-17295097D01*
X66305739Y-17295097D01*
X66486759Y-17476117D01*
X66667779Y-17295097D01*
X67372057Y-17295097D01*
X67553077Y-17476117D01*
X67734097Y-17295097D01*
X68438374Y-17295097D01*
X68619394Y-17476117D01*
X68800414Y-17295097D01*
X69504691Y-17295097D01*
X69685711Y-17476117D01*
X69739841Y-17421987D01*
X69553721Y-17246067D01*
X69504691Y-17295097D01*
X68800414Y-17295097D01*
X68619394Y-17114077D01*
X68438374Y-17295097D01*
X67734097Y-17295097D01*
X67553077Y-17114077D01*
X67372057Y-17295097D01*
X66667779Y-17295097D01*
X66486759Y-17114077D01*
X66305739Y-17295097D01*
X65601462Y-17295097D01*
X65420442Y-17114077D01*
X65239422Y-17295097D01*
X64535145Y-17295097D01*
X64354125Y-17114077D01*
X64173105Y-17295097D01*
X63040018Y-17295097D01*
X63015842Y-17246067D01*
X62777125Y-16761939D01*
X63639947Y-16761939D01*
X63820967Y-16942959D01*
X64001987Y-16761939D01*
X64706264Y-16761939D01*
X64887284Y-16942959D01*
X65068304Y-16761939D01*
X65772581Y-16761939D01*
X65953601Y-16942959D01*
X66134621Y-16761939D01*
X66838898Y-16761939D01*
X67019918Y-16942959D01*
X67200938Y-16761939D01*
X67905215Y-16761939D01*
X68086235Y-16942959D01*
X68267255Y-16761939D01*
X68971532Y-16761939D01*
X69152552Y-16942959D01*
X69191662Y-16903849D01*
X69148702Y-16863242D01*
X68983195Y-16750276D01*
X68971532Y-16761939D01*
X68267255Y-16761939D01*
X68086235Y-16580919D01*
X67905215Y-16761939D01*
X67200938Y-16761939D01*
X67019918Y-16580919D01*
X66838898Y-16761939D01*
X66134621Y-16761939D01*
X65953601Y-16580919D01*
X65772581Y-16761939D01*
X65068304Y-16761939D01*
X64887284Y-16580919D01*
X64706264Y-16761939D01*
X64001987Y-16761939D01*
X63820967Y-16580919D01*
X63639947Y-16761939D01*
X62777125Y-16761939D01*
X62479420Y-16158183D01*
X63177385Y-16158183D01*
X63296948Y-16400660D01*
X63468828Y-16228780D01*
X64173105Y-16228780D01*
X64354125Y-16409800D01*
X64535145Y-16228780D01*
X65239422Y-16228780D01*
X65420442Y-16409800D01*
X65601462Y-16228780D01*
X66305739Y-16228780D01*
X66486759Y-16409800D01*
X66667779Y-16228780D01*
X67372057Y-16228780D01*
X67553077Y-16409800D01*
X67734097Y-16228780D01*
X67553077Y-16047760D01*
X67372057Y-16228780D01*
X66667779Y-16228780D01*
X66486759Y-16047760D01*
X66305739Y-16228780D01*
X65601462Y-16228780D01*
X65420442Y-16047760D01*
X65239422Y-16228780D01*
X64535145Y-16228780D01*
X64354125Y-16047760D01*
X64173105Y-16228780D01*
X63468828Y-16228780D01*
X63287808Y-16047760D01*
X63177385Y-16158183D01*
X62479420Y-16158183D01*
X62251337Y-15695622D01*
X63639947Y-15695622D01*
X63820967Y-15876642D01*
X64001987Y-15695622D01*
X64706264Y-15695622D01*
X64887284Y-15876642D01*
X65068304Y-15695622D01*
X65772581Y-15695622D01*
X65953601Y-15876642D01*
X66016896Y-15813347D01*
X66956623Y-15813347D01*
X67019918Y-15876642D01*
X67049343Y-15847217D01*
X66956623Y-15813347D01*
X66016896Y-15813347D01*
X66134621Y-15695622D01*
X65953601Y-15514602D01*
X65772581Y-15695622D01*
X65068304Y-15695622D01*
X64887284Y-15514602D01*
X64706264Y-15695622D01*
X64001987Y-15695622D01*
X63820967Y-15514602D01*
X63639947Y-15695622D01*
X62251337Y-15695622D01*
X61988443Y-15162463D01*
X63106788Y-15162463D01*
X63287808Y-15343483D01*
X63468828Y-15162463D01*
X64173105Y-15162463D01*
X64354125Y-15343483D01*
X64497969Y-15199639D01*
X65276598Y-15199639D01*
X65420442Y-15343483D01*
X65487312Y-15276612D01*
X65276598Y-15199639D01*
X64497969Y-15199639D01*
X64535145Y-15162463D01*
X64354125Y-14981443D01*
X64173105Y-15162463D01*
X63468828Y-15162463D01*
X63287808Y-14981443D01*
X63106788Y-15162463D01*
X61988443Y-15162463D01*
X61725550Y-14629305D01*
X62573630Y-14629305D01*
X62754650Y-14810325D01*
X62935670Y-14629305D01*
X63639947Y-14629305D01*
X63820967Y-14810325D01*
X63925284Y-14706008D01*
X63660111Y-14609141D01*
X63639947Y-14629305D01*
X62935670Y-14629305D01*
X62754650Y-14448285D01*
X62573630Y-14629305D01*
X61725550Y-14629305D01*
X61684764Y-14546590D01*
X61672578Y-14476647D01*
X61674515Y-14464721D01*
X61758736Y-14067679D01*
X61780883Y-14018641D01*
X61831316Y-13950816D01*
X61888014Y-13908087D01*
X61932427Y-13900000D01*
X63520979Y-13900000D01*
X63564212Y-13907649D01*
G37*
%TD.AperFunction*%
%TA.AperFunction,NonConductor*%
G36*
X62615975Y-99322235D02*
G01*
X67545112Y-101122834D01*
X68745776Y-101561433D01*
X68773574Y-101575714D01*
X69643278Y-102169320D01*
X69658785Y-102181811D01*
X70674748Y-103142105D01*
X70691159Y-103161047D01*
X70836812Y-103367570D01*
X71147929Y-103808708D01*
X71163415Y-103838377D01*
X72739742Y-108185826D01*
X72747288Y-108228676D01*
X72749234Y-110692355D01*
X72729286Y-110760492D01*
X72675667Y-110807027D01*
X72639039Y-110817460D01*
X72298627Y-110860501D01*
X72226582Y-110848248D01*
X72104812Y-110787508D01*
X69568204Y-109522232D01*
X69326652Y-109401744D01*
X70729109Y-109401744D01*
X70970661Y-109522232D01*
X71020543Y-109472350D01*
X71724820Y-109472350D01*
X71905840Y-109653370D01*
X72086860Y-109472350D01*
X71905840Y-109291330D01*
X71724820Y-109472350D01*
X71020543Y-109472350D01*
X70839523Y-109291330D01*
X70729109Y-109401744D01*
X69326652Y-109401744D01*
X69314180Y-109395523D01*
X69297971Y-109387438D01*
X59203250Y-114248897D01*
X59133199Y-114260432D01*
X59068030Y-114232263D01*
X59059487Y-114224470D01*
X58464561Y-113629544D01*
X58430535Y-113567232D01*
X58435600Y-113496417D01*
X58440043Y-113485968D01*
X58575034Y-113204460D01*
X59462174Y-113204460D01*
X59613993Y-113356279D01*
X59726648Y-113302026D01*
X59824214Y-113204460D01*
X59643194Y-113023440D01*
X59462174Y-113204460D01*
X58575034Y-113204460D01*
X58830699Y-112671301D01*
X59995333Y-112671301D01*
X60176353Y-112852321D01*
X60357373Y-112671301D01*
X60333857Y-112647785D01*
X61085167Y-112647785D01*
X61297782Y-112545393D01*
X61242670Y-112490281D01*
X61085167Y-112647785D01*
X60333857Y-112647785D01*
X60176353Y-112490281D01*
X59995333Y-112671301D01*
X58830699Y-112671301D01*
X59046194Y-112221910D01*
X59740447Y-112221910D01*
X59824214Y-112138143D01*
X60528491Y-112138143D01*
X60709511Y-112319163D01*
X60890531Y-112138143D01*
X61594808Y-112138143D01*
X61773136Y-112316471D01*
X61783523Y-112311468D01*
X61956848Y-112138143D01*
X61775828Y-111957123D01*
X61594808Y-112138143D01*
X60890531Y-112138143D01*
X60709511Y-111957123D01*
X60528491Y-112138143D01*
X59824214Y-112138143D01*
X59794746Y-112108676D01*
X59740447Y-112221910D01*
X59046194Y-112221910D01*
X59328756Y-111632660D01*
X60023009Y-111632660D01*
X60176353Y-111786004D01*
X60357373Y-111604984D01*
X61061650Y-111604984D01*
X61242670Y-111786004D01*
X61423690Y-111604984D01*
X62127967Y-111604984D01*
X62308987Y-111786004D01*
X62490007Y-111604984D01*
X63194284Y-111604984D01*
X63212564Y-111623263D01*
X63456924Y-111505584D01*
X63375304Y-111423964D01*
X63194284Y-111604984D01*
X62490007Y-111604984D01*
X62308987Y-111423964D01*
X62127967Y-111604984D01*
X61423690Y-111604984D01*
X61242670Y-111423964D01*
X61061650Y-111604984D01*
X60357373Y-111604984D01*
X60176353Y-111423964D01*
X60074007Y-111526310D01*
X60023009Y-111632660D01*
X59328756Y-111632660D01*
X59597692Y-111071825D01*
X60528491Y-111071825D01*
X60709511Y-111252845D01*
X60890531Y-111071825D01*
X61594808Y-111071825D01*
X61775828Y-111252845D01*
X61956848Y-111071825D01*
X62661125Y-111071825D01*
X62842145Y-111252845D01*
X63023165Y-111071825D01*
X63727442Y-111071825D01*
X63908462Y-111252845D01*
X64089482Y-111071825D01*
X63908462Y-110890805D01*
X63727442Y-111071825D01*
X63023165Y-111071825D01*
X62842145Y-110890805D01*
X62661125Y-111071825D01*
X61956848Y-111071825D01*
X61775828Y-110890805D01*
X61594808Y-111071825D01*
X60890531Y-111071825D01*
X60709511Y-110890805D01*
X60528491Y-111071825D01*
X59597692Y-111071825D01*
X59853357Y-110538667D01*
X61061650Y-110538667D01*
X61242670Y-110719687D01*
X61423690Y-110538667D01*
X62127967Y-110538667D01*
X62308987Y-110719687D01*
X62490007Y-110538667D01*
X63194284Y-110538667D01*
X63375304Y-110719687D01*
X63556324Y-110538667D01*
X64260601Y-110538667D01*
X64441621Y-110719687D01*
X64622640Y-110538668D01*
X65326918Y-110538668D01*
X65371705Y-110583455D01*
X65616066Y-110465775D01*
X65507938Y-110357647D01*
X65326918Y-110538668D01*
X64622640Y-110538668D01*
X64622641Y-110538667D01*
X64441621Y-110357647D01*
X64260601Y-110538667D01*
X63556324Y-110538667D01*
X63375304Y-110357647D01*
X63194284Y-110538667D01*
X62490007Y-110538667D01*
X62308987Y-110357647D01*
X62127967Y-110538667D01*
X61423690Y-110538667D01*
X61242670Y-110357647D01*
X61061650Y-110538667D01*
X59853357Y-110538667D01*
X60028629Y-110173157D01*
X60722881Y-110173157D01*
X60890531Y-110005508D01*
X61594808Y-110005508D01*
X61775828Y-110186528D01*
X61956848Y-110005508D01*
X62661125Y-110005508D01*
X62842145Y-110186528D01*
X63023165Y-110005508D01*
X63727442Y-110005508D01*
X63908462Y-110186528D01*
X64089482Y-110005508D01*
X64793759Y-110005508D01*
X64974779Y-110186528D01*
X65155799Y-110005508D01*
X65860076Y-110005508D01*
X66041097Y-110186528D01*
X66222116Y-110005509D01*
X66041096Y-109824488D01*
X65860076Y-110005508D01*
X65155799Y-110005508D01*
X64974779Y-109824488D01*
X64793759Y-110005508D01*
X64089482Y-110005508D01*
X63908462Y-109824488D01*
X63727442Y-110005508D01*
X63023165Y-110005508D01*
X62842145Y-109824488D01*
X62661125Y-110005508D01*
X61956848Y-110005508D01*
X61775828Y-109824488D01*
X61594808Y-110005508D01*
X60890531Y-110005508D01*
X60831555Y-109946532D01*
X60722881Y-110173157D01*
X60028629Y-110173157D01*
X60364686Y-109472350D01*
X61061650Y-109472350D01*
X61242670Y-109653370D01*
X61423690Y-109472350D01*
X62127967Y-109472350D01*
X62308987Y-109653370D01*
X62490007Y-109472350D01*
X63194284Y-109472350D01*
X63375304Y-109653370D01*
X63556324Y-109472350D01*
X64260601Y-109472350D01*
X64441621Y-109653370D01*
X64622641Y-109472350D01*
X65326918Y-109472350D01*
X65507938Y-109653370D01*
X65688958Y-109472350D01*
X66393235Y-109472350D01*
X66574255Y-109653370D01*
X66755275Y-109472350D01*
X67459552Y-109472350D01*
X67530848Y-109543646D01*
X67775208Y-109425966D01*
X67640572Y-109291330D01*
X67459552Y-109472350D01*
X66755275Y-109472350D01*
X66574255Y-109291330D01*
X66393235Y-109472350D01*
X65688958Y-109472350D01*
X65507938Y-109291330D01*
X65326918Y-109472350D01*
X64622641Y-109472350D01*
X64441621Y-109291330D01*
X64260601Y-109472350D01*
X63556324Y-109472350D01*
X63375304Y-109291330D01*
X63194284Y-109472350D01*
X62490007Y-109472350D01*
X62308987Y-109291330D01*
X62127967Y-109472350D01*
X61423690Y-109472350D01*
X61242670Y-109291330D01*
X61061650Y-109472350D01*
X60364686Y-109472350D01*
X60620351Y-108939191D01*
X61594808Y-108939191D01*
X61775828Y-109120211D01*
X61956848Y-108939191D01*
X62661125Y-108939191D01*
X62842145Y-109120211D01*
X63023165Y-108939191D01*
X63727442Y-108939191D01*
X63908462Y-109120211D01*
X64089482Y-108939191D01*
X64793759Y-108939191D01*
X64974779Y-109120211D01*
X65155799Y-108939191D01*
X65860076Y-108939191D01*
X66041097Y-109120211D01*
X66222116Y-108939192D01*
X66222115Y-108939191D01*
X66926393Y-108939191D01*
X67107414Y-109120211D01*
X67288433Y-108939192D01*
X67288432Y-108939191D01*
X67992710Y-108939191D01*
X68173731Y-109120211D01*
X68354750Y-108939192D01*
X68354749Y-108939191D01*
X70125344Y-108939191D01*
X70306365Y-109120211D01*
X70487384Y-108939192D01*
X70487383Y-108939191D01*
X71191661Y-108939191D01*
X71372682Y-109120211D01*
X71553701Y-108939192D01*
X71372681Y-108758171D01*
X71191661Y-108939191D01*
X70487383Y-108939191D01*
X70306364Y-108758171D01*
X70125344Y-108939191D01*
X68354749Y-108939191D01*
X68191233Y-108775674D01*
X69222544Y-108775674D01*
X69253604Y-108771728D01*
X69240047Y-108758171D01*
X69222544Y-108775674D01*
X68191233Y-108775674D01*
X68173730Y-108758171D01*
X67992710Y-108939191D01*
X67288432Y-108939191D01*
X67107413Y-108758171D01*
X66926393Y-108939191D01*
X66222115Y-108939191D01*
X66041096Y-108758171D01*
X65860076Y-108939191D01*
X65155799Y-108939191D01*
X64974779Y-108758171D01*
X64793759Y-108939191D01*
X64089482Y-108939191D01*
X63908462Y-108758171D01*
X63727442Y-108939191D01*
X63023165Y-108939191D01*
X62842145Y-108758171D01*
X62661125Y-108939191D01*
X61956848Y-108939191D01*
X61775828Y-108758171D01*
X61594808Y-108939191D01*
X60620351Y-108939191D01*
X60876015Y-108406033D01*
X62127967Y-108406033D01*
X62308987Y-108587053D01*
X62490007Y-108406033D01*
X63194284Y-108406033D01*
X63375304Y-108587053D01*
X63556324Y-108406033D01*
X64260601Y-108406033D01*
X64441621Y-108587053D01*
X64622641Y-108406033D01*
X65326918Y-108406033D01*
X65507938Y-108587053D01*
X65688958Y-108406033D01*
X66393235Y-108406033D01*
X66574255Y-108587053D01*
X66755275Y-108406033D01*
X67459552Y-108406033D01*
X67640572Y-108587053D01*
X67821592Y-108406033D01*
X68525869Y-108406033D01*
X68706889Y-108587053D01*
X68887909Y-108406033D01*
X69592186Y-108406033D01*
X69773206Y-108587053D01*
X69954226Y-108406033D01*
X70658503Y-108406033D01*
X70839523Y-108587053D01*
X71020543Y-108406033D01*
X71724820Y-108406033D01*
X71905840Y-108587053D01*
X72086860Y-108406033D01*
X71905840Y-108225013D01*
X71724820Y-108406033D01*
X71020543Y-108406033D01*
X70839523Y-108225013D01*
X70658503Y-108406033D01*
X69954226Y-108406033D01*
X69773206Y-108225013D01*
X69592186Y-108406033D01*
X68887909Y-108406033D01*
X68706889Y-108225013D01*
X68525869Y-108406033D01*
X67821592Y-108406033D01*
X67640572Y-108225013D01*
X67459552Y-108406033D01*
X66755275Y-108406033D01*
X66574255Y-108225013D01*
X66393235Y-108406033D01*
X65688958Y-108406033D01*
X65507938Y-108225013D01*
X65326918Y-108406033D01*
X64622641Y-108406033D01*
X64441621Y-108225013D01*
X64260601Y-108406033D01*
X63556324Y-108406033D01*
X63375304Y-108225013D01*
X63194284Y-108406033D01*
X62490007Y-108406033D01*
X62308987Y-108225013D01*
X62127967Y-108406033D01*
X60876015Y-108406033D01*
X61056771Y-108029088D01*
X61751023Y-108029088D01*
X61775828Y-108053894D01*
X61956848Y-107872874D01*
X62661125Y-107872874D01*
X62842145Y-108053894D01*
X63023165Y-107872874D01*
X63727442Y-107872874D01*
X63908462Y-108053894D01*
X64089482Y-107872874D01*
X64793759Y-107872874D01*
X64974779Y-108053894D01*
X65155799Y-107872874D01*
X65860076Y-107872874D01*
X66041097Y-108053894D01*
X66222116Y-107872875D01*
X66222115Y-107872874D01*
X66926393Y-107872874D01*
X67107414Y-108053894D01*
X67288433Y-107872875D01*
X67288432Y-107872874D01*
X67992710Y-107872874D01*
X68173731Y-108053894D01*
X68354750Y-107872875D01*
X68354749Y-107872874D01*
X69059027Y-107872874D01*
X69240048Y-108053894D01*
X69421067Y-107872875D01*
X69421066Y-107872874D01*
X70125344Y-107872874D01*
X70306365Y-108053894D01*
X70487384Y-107872875D01*
X70487383Y-107872874D01*
X71191661Y-107872874D01*
X71372682Y-108053894D01*
X71553701Y-107872875D01*
X71372681Y-107691854D01*
X71191661Y-107872874D01*
X70487383Y-107872874D01*
X70306364Y-107691854D01*
X70125344Y-107872874D01*
X69421066Y-107872874D01*
X69240047Y-107691854D01*
X69059027Y-107872874D01*
X68354749Y-107872874D01*
X68173730Y-107691854D01*
X67992710Y-107872874D01*
X67288432Y-107872874D01*
X67107413Y-107691854D01*
X66926393Y-107872874D01*
X66222115Y-107872874D01*
X66041096Y-107691854D01*
X65860076Y-107872874D01*
X65155799Y-107872874D01*
X64974779Y-107691854D01*
X64793759Y-107872874D01*
X64089482Y-107872874D01*
X63908462Y-107691854D01*
X63727442Y-107872874D01*
X63023165Y-107872874D01*
X62842145Y-107691854D01*
X62661125Y-107872874D01*
X61956848Y-107872874D01*
X61868363Y-107784389D01*
X61751023Y-108029088D01*
X61056771Y-108029088D01*
X61387344Y-107339716D01*
X62127967Y-107339716D01*
X62308987Y-107520736D01*
X62490007Y-107339716D01*
X63194284Y-107339716D01*
X63375304Y-107520736D01*
X63556324Y-107339716D01*
X64260601Y-107339716D01*
X64441621Y-107520736D01*
X64622641Y-107339716D01*
X65326918Y-107339716D01*
X65507938Y-107520736D01*
X65688958Y-107339716D01*
X66393235Y-107339716D01*
X66574255Y-107520736D01*
X66755275Y-107339716D01*
X67459552Y-107339716D01*
X67640572Y-107520736D01*
X67821592Y-107339716D01*
X68525869Y-107339716D01*
X68706889Y-107520736D01*
X68887909Y-107339716D01*
X69592186Y-107339716D01*
X69773206Y-107520736D01*
X69954226Y-107339716D01*
X70658503Y-107339716D01*
X70839523Y-107520736D01*
X71020543Y-107339716D01*
X71724820Y-107339716D01*
X71791111Y-107406007D01*
X71755830Y-107308706D01*
X71724820Y-107339716D01*
X71020543Y-107339716D01*
X70839523Y-107158696D01*
X70658503Y-107339716D01*
X69954226Y-107339716D01*
X69773206Y-107158696D01*
X69592186Y-107339716D01*
X68887909Y-107339716D01*
X68706889Y-107158696D01*
X68525869Y-107339716D01*
X67821592Y-107339716D01*
X67640572Y-107158696D01*
X67459552Y-107339716D01*
X66755275Y-107339716D01*
X66574255Y-107158696D01*
X66393235Y-107339716D01*
X65688958Y-107339716D01*
X65507938Y-107158696D01*
X65326918Y-107339716D01*
X64622641Y-107339716D01*
X64441621Y-107158696D01*
X64260601Y-107339716D01*
X63556324Y-107339716D01*
X63375304Y-107158696D01*
X63194284Y-107339716D01*
X62490007Y-107339716D01*
X62308987Y-107158696D01*
X62127967Y-107339716D01*
X61387344Y-107339716D01*
X61643009Y-106806557D01*
X62661125Y-106806557D01*
X62842145Y-106987577D01*
X63023165Y-106806557D01*
X63727442Y-106806557D01*
X63908462Y-106987577D01*
X64089482Y-106806557D01*
X64793759Y-106806557D01*
X64974779Y-106987577D01*
X65155799Y-106806557D01*
X65860076Y-106806557D01*
X66041097Y-106987577D01*
X66222116Y-106806558D01*
X66222115Y-106806557D01*
X66926393Y-106806557D01*
X67107414Y-106987577D01*
X67288433Y-106806558D01*
X67288432Y-106806557D01*
X67992710Y-106806557D01*
X68173731Y-106987577D01*
X68354750Y-106806558D01*
X68354749Y-106806557D01*
X69059027Y-106806557D01*
X69240048Y-106987577D01*
X69421067Y-106806558D01*
X69421066Y-106806557D01*
X70125344Y-106806557D01*
X70306365Y-106987577D01*
X70487384Y-106806558D01*
X70487383Y-106806557D01*
X71191661Y-106806557D01*
X71372682Y-106987577D01*
X71553701Y-106806558D01*
X71372681Y-106625537D01*
X71191661Y-106806557D01*
X70487383Y-106806557D01*
X70306364Y-106625537D01*
X70125344Y-106806557D01*
X69421066Y-106806557D01*
X69240047Y-106625537D01*
X69059027Y-106806557D01*
X68354749Y-106806557D01*
X68173730Y-106625537D01*
X67992710Y-106806557D01*
X67288432Y-106806557D01*
X67107413Y-106625537D01*
X66926393Y-106806557D01*
X66222115Y-106806557D01*
X66041096Y-106625537D01*
X65860076Y-106806557D01*
X65155799Y-106806557D01*
X64974779Y-106625537D01*
X64793759Y-106806557D01*
X64089482Y-106806557D01*
X63908462Y-106625537D01*
X63727442Y-106806557D01*
X63023165Y-106806557D01*
X62842145Y-106625537D01*
X62661125Y-106806557D01*
X61643009Y-106806557D01*
X61898673Y-106273399D01*
X63194284Y-106273399D01*
X63375304Y-106454419D01*
X63556324Y-106273399D01*
X64260601Y-106273399D01*
X64441621Y-106454419D01*
X64622641Y-106273399D01*
X65326918Y-106273399D01*
X65507938Y-106454419D01*
X65688958Y-106273399D01*
X66393235Y-106273399D01*
X66574255Y-106454419D01*
X66755275Y-106273399D01*
X67459552Y-106273399D01*
X67640572Y-106454419D01*
X67821592Y-106273399D01*
X68525869Y-106273399D01*
X68706889Y-106454419D01*
X68887909Y-106273399D01*
X69592186Y-106273399D01*
X69773206Y-106454419D01*
X69954226Y-106273399D01*
X70658503Y-106273399D01*
X70839523Y-106454419D01*
X71020543Y-106273399D01*
X70839523Y-106092379D01*
X70658503Y-106273399D01*
X69954226Y-106273399D01*
X69773206Y-106092379D01*
X69592186Y-106273399D01*
X68887909Y-106273399D01*
X68706889Y-106092379D01*
X68525869Y-106273399D01*
X67821592Y-106273399D01*
X67640572Y-106092379D01*
X67459552Y-106273399D01*
X66755275Y-106273399D01*
X66574255Y-106092379D01*
X66393235Y-106273399D01*
X65688958Y-106273399D01*
X65507938Y-106092379D01*
X65326918Y-106273399D01*
X64622641Y-106273399D01*
X64441621Y-106092379D01*
X64260601Y-106273399D01*
X63556324Y-106273399D01*
X63375304Y-106092379D01*
X63194284Y-106273399D01*
X61898673Y-106273399D01*
X62093579Y-105866946D01*
X62787830Y-105866946D01*
X62842144Y-105921260D01*
X63023165Y-105740240D01*
X63727442Y-105740240D01*
X63908462Y-105921260D01*
X64089482Y-105740240D01*
X64793759Y-105740240D01*
X64974779Y-105921260D01*
X65155799Y-105740240D01*
X65860076Y-105740240D01*
X66041097Y-105921260D01*
X66222116Y-105740241D01*
X66222115Y-105740240D01*
X66926393Y-105740240D01*
X67107414Y-105921260D01*
X67288433Y-105740241D01*
X67288432Y-105740240D01*
X67992710Y-105740240D01*
X68173731Y-105921260D01*
X68354750Y-105740241D01*
X68354749Y-105740240D01*
X69059027Y-105740240D01*
X69240048Y-105921260D01*
X69421067Y-105740241D01*
X69421066Y-105740240D01*
X70125344Y-105740240D01*
X70306365Y-105921260D01*
X70487384Y-105740241D01*
X70306364Y-105559220D01*
X70125344Y-105740240D01*
X69421066Y-105740240D01*
X69240047Y-105559220D01*
X69059027Y-105740240D01*
X68354749Y-105740240D01*
X68173730Y-105559220D01*
X67992710Y-105740240D01*
X67288432Y-105740240D01*
X67107413Y-105559220D01*
X66926393Y-105740240D01*
X66222115Y-105740240D01*
X66041096Y-105559220D01*
X65860076Y-105740240D01*
X65155799Y-105740240D01*
X64974779Y-105559220D01*
X64793759Y-105740240D01*
X64089482Y-105740240D01*
X63908462Y-105559220D01*
X63727442Y-105740240D01*
X63023165Y-105740240D01*
X62905171Y-105622246D01*
X62787830Y-105866946D01*
X62093579Y-105866946D01*
X62410002Y-105207082D01*
X63194284Y-105207082D01*
X63375304Y-105388102D01*
X63556324Y-105207082D01*
X64260601Y-105207082D01*
X64441621Y-105388102D01*
X64622641Y-105207082D01*
X65326918Y-105207082D01*
X65507938Y-105388102D01*
X65688958Y-105207082D01*
X66393235Y-105207082D01*
X66574255Y-105388102D01*
X66755275Y-105207082D01*
X67459552Y-105207082D01*
X67640572Y-105388102D01*
X67821592Y-105207082D01*
X68525869Y-105207082D01*
X68706889Y-105388102D01*
X68887909Y-105207082D01*
X69592186Y-105207082D01*
X69773206Y-105388102D01*
X69954226Y-105207082D01*
X70658503Y-105207082D01*
X70839523Y-105388102D01*
X71000924Y-105226701D01*
X70978604Y-105165143D01*
X70839523Y-105026062D01*
X70658503Y-105207082D01*
X69954226Y-105207082D01*
X69773206Y-105026062D01*
X69592186Y-105207082D01*
X68887909Y-105207082D01*
X68706889Y-105026062D01*
X68525869Y-105207082D01*
X67821592Y-105207082D01*
X67640572Y-105026062D01*
X67459552Y-105207082D01*
X66755275Y-105207082D01*
X66574255Y-105026062D01*
X66393235Y-105207082D01*
X65688958Y-105207082D01*
X65507938Y-105026062D01*
X65326918Y-105207082D01*
X64622641Y-105207082D01*
X64441621Y-105026062D01*
X64260601Y-105207082D01*
X63556324Y-105207082D01*
X63375304Y-105026062D01*
X63194284Y-105207082D01*
X62410002Y-105207082D01*
X62665667Y-104673923D01*
X63727442Y-104673923D01*
X63908462Y-104854943D01*
X64089482Y-104673923D01*
X64793759Y-104673923D01*
X64974779Y-104854943D01*
X65155799Y-104673923D01*
X65860076Y-104673923D01*
X66041097Y-104854943D01*
X66222116Y-104673924D01*
X66222115Y-104673923D01*
X66926393Y-104673923D01*
X67107414Y-104854943D01*
X67288433Y-104673924D01*
X67288432Y-104673923D01*
X67992710Y-104673923D01*
X68173731Y-104854943D01*
X68354750Y-104673924D01*
X68354749Y-104673923D01*
X69059027Y-104673923D01*
X69240048Y-104854943D01*
X69421067Y-104673924D01*
X69421066Y-104673923D01*
X70125344Y-104673923D01*
X70306365Y-104854943D01*
X70487384Y-104673924D01*
X70306364Y-104492903D01*
X70125344Y-104673923D01*
X69421066Y-104673923D01*
X69240047Y-104492903D01*
X69059027Y-104673923D01*
X68354749Y-104673923D01*
X68173730Y-104492903D01*
X67992710Y-104673923D01*
X67288432Y-104673923D01*
X67107413Y-104492903D01*
X66926393Y-104673923D01*
X66222115Y-104673923D01*
X66041096Y-104492903D01*
X65860076Y-104673923D01*
X65155799Y-104673923D01*
X64974779Y-104492903D01*
X64793759Y-104673923D01*
X64089482Y-104673923D01*
X63908462Y-104492903D01*
X63727442Y-104673923D01*
X62665667Y-104673923D01*
X62921331Y-104140765D01*
X64260601Y-104140765D01*
X64441621Y-104321785D01*
X64622641Y-104140765D01*
X65326918Y-104140765D01*
X65507938Y-104321785D01*
X65688958Y-104140765D01*
X66393235Y-104140765D01*
X66574255Y-104321785D01*
X66755275Y-104140765D01*
X67459552Y-104140765D01*
X67640572Y-104321785D01*
X67821592Y-104140765D01*
X68525869Y-104140765D01*
X68706889Y-104321785D01*
X68887909Y-104140765D01*
X69592186Y-104140765D01*
X69773206Y-104321785D01*
X69954226Y-104140765D01*
X69773206Y-103959745D01*
X69592186Y-104140765D01*
X68887909Y-104140765D01*
X68706889Y-103959745D01*
X68525869Y-104140765D01*
X67821592Y-104140765D01*
X67640572Y-103959745D01*
X67459552Y-104140765D01*
X66755275Y-104140765D01*
X66574255Y-103959745D01*
X66393235Y-104140765D01*
X65688958Y-104140765D01*
X65507938Y-103959745D01*
X65326918Y-104140765D01*
X64622641Y-104140765D01*
X64441621Y-103959745D01*
X64260601Y-104140765D01*
X62921331Y-104140765D01*
X63130387Y-103704802D01*
X63824639Y-103704802D01*
X63908462Y-103788626D01*
X64089482Y-103607606D01*
X64793759Y-103607606D01*
X64974779Y-103788626D01*
X65155799Y-103607606D01*
X65860076Y-103607606D01*
X66041097Y-103788626D01*
X66222116Y-103607607D01*
X66222115Y-103607606D01*
X66926393Y-103607606D01*
X67107414Y-103788626D01*
X67288433Y-103607607D01*
X67288432Y-103607606D01*
X67992710Y-103607606D01*
X68173731Y-103788626D01*
X68354750Y-103607607D01*
X68354749Y-103607606D01*
X69059027Y-103607606D01*
X69240048Y-103788626D01*
X69421067Y-103607607D01*
X69421066Y-103607606D01*
X70125344Y-103607606D01*
X70306365Y-103788626D01*
X70342357Y-103752634D01*
X70208402Y-103562697D01*
X70188790Y-103544160D01*
X70125344Y-103607606D01*
X69421066Y-103607606D01*
X69240047Y-103426586D01*
X69059027Y-103607606D01*
X68354749Y-103607606D01*
X68173730Y-103426586D01*
X67992710Y-103607606D01*
X67288432Y-103607606D01*
X67107413Y-103426586D01*
X66926393Y-103607606D01*
X66222115Y-103607606D01*
X66041096Y-103426586D01*
X65860076Y-103607606D01*
X65155799Y-103607606D01*
X64974779Y-103426586D01*
X64793759Y-103607606D01*
X64089482Y-103607606D01*
X63909319Y-103427443D01*
X63908880Y-103435503D01*
X63860465Y-103624491D01*
X63852020Y-103647703D01*
X63824639Y-103704802D01*
X63130387Y-103704802D01*
X63279730Y-103393364D01*
X63287563Y-103377029D01*
X63138364Y-103074448D01*
X64260601Y-103074448D01*
X64441621Y-103255468D01*
X64622641Y-103074448D01*
X65326918Y-103074448D01*
X65507938Y-103255468D01*
X65688958Y-103074448D01*
X66393235Y-103074448D01*
X66574255Y-103255468D01*
X66755275Y-103074448D01*
X67459552Y-103074448D01*
X67640572Y-103255468D01*
X67821592Y-103074448D01*
X68525869Y-103074448D01*
X68706889Y-103255468D01*
X68887909Y-103074448D01*
X69592186Y-103074448D01*
X69773206Y-103255468D01*
X69826732Y-103201942D01*
X69640613Y-103026021D01*
X69592186Y-103074448D01*
X68887909Y-103074448D01*
X68706889Y-102893428D01*
X68525869Y-103074448D01*
X67821592Y-103074448D01*
X67640572Y-102893428D01*
X67459552Y-103074448D01*
X66755275Y-103074448D01*
X66574255Y-102893428D01*
X66393235Y-103074448D01*
X65688958Y-103074448D01*
X65507938Y-102893428D01*
X65326918Y-103074448D01*
X64622641Y-103074448D01*
X64441621Y-102893428D01*
X64260601Y-103074448D01*
X63138364Y-103074448D01*
X63049105Y-102893428D01*
X62875470Y-102541289D01*
X63727442Y-102541289D01*
X63908462Y-102722309D01*
X64089482Y-102541289D01*
X64793759Y-102541289D01*
X64974779Y-102722309D01*
X65155799Y-102541289D01*
X65860076Y-102541289D01*
X66041097Y-102722309D01*
X66222116Y-102541290D01*
X66222115Y-102541289D01*
X66926393Y-102541289D01*
X67107414Y-102722309D01*
X67288433Y-102541290D01*
X67288432Y-102541289D01*
X67992710Y-102541289D01*
X68173731Y-102722309D01*
X68354750Y-102541290D01*
X68354749Y-102541289D01*
X69059027Y-102541289D01*
X69240048Y-102722309D01*
X69278556Y-102683801D01*
X69257604Y-102663996D01*
X69066652Y-102533664D01*
X69059027Y-102541289D01*
X68354749Y-102541289D01*
X68173730Y-102360269D01*
X67992710Y-102541289D01*
X67288432Y-102541289D01*
X67107413Y-102360269D01*
X66926393Y-102541289D01*
X66222115Y-102541289D01*
X66041096Y-102360269D01*
X65860076Y-102541289D01*
X65155799Y-102541289D01*
X64974779Y-102360269D01*
X64793759Y-102541289D01*
X64089482Y-102541289D01*
X63908462Y-102360269D01*
X63727442Y-102541289D01*
X62875470Y-102541289D01*
X62574182Y-101930267D01*
X63272148Y-101930267D01*
X63391710Y-102172745D01*
X63556324Y-102008131D01*
X64260601Y-102008131D01*
X64441621Y-102189151D01*
X64622641Y-102008131D01*
X65326918Y-102008131D01*
X65507938Y-102189151D01*
X65688958Y-102008131D01*
X66393235Y-102008131D01*
X66574255Y-102189151D01*
X66755275Y-102008131D01*
X67459552Y-102008131D01*
X67640572Y-102189151D01*
X67821592Y-102008131D01*
X67640572Y-101827111D01*
X67459552Y-102008131D01*
X66755275Y-102008131D01*
X66574255Y-101827111D01*
X66393235Y-102008131D01*
X65688958Y-102008131D01*
X65507938Y-101827111D01*
X65326918Y-102008131D01*
X64622641Y-102008131D01*
X64441621Y-101827111D01*
X64260601Y-102008131D01*
X63556324Y-102008131D01*
X63375304Y-101827111D01*
X63272148Y-101930267D01*
X62574182Y-101930267D01*
X62349682Y-101474972D01*
X63727442Y-101474972D01*
X63908462Y-101655992D01*
X64089482Y-101474972D01*
X64793759Y-101474972D01*
X64974779Y-101655992D01*
X65155799Y-101474972D01*
X65860076Y-101474972D01*
X66041096Y-101655992D01*
X66082986Y-101614102D01*
X67065523Y-101614102D01*
X67107413Y-101655992D01*
X67126887Y-101636518D01*
X67065523Y-101614102D01*
X66082986Y-101614102D01*
X66222116Y-101474972D01*
X66041096Y-101293952D01*
X65860076Y-101474972D01*
X65155799Y-101474972D01*
X64974779Y-101293952D01*
X64793759Y-101474972D01*
X64089482Y-101474972D01*
X63908462Y-101293952D01*
X63727442Y-101474972D01*
X62349682Y-101474972D01*
X62086788Y-100941813D01*
X63194284Y-100941813D01*
X63375304Y-101122834D01*
X63556324Y-100941814D01*
X63556323Y-100941813D01*
X64260601Y-100941813D01*
X64441621Y-101122834D01*
X64564060Y-101000395D01*
X65385499Y-101000395D01*
X65507938Y-101122834D01*
X65564858Y-101065914D01*
X65385499Y-101000395D01*
X64564060Y-101000395D01*
X64622641Y-100941814D01*
X64441620Y-100760794D01*
X64260601Y-100941813D01*
X63556323Y-100941813D01*
X63375303Y-100760794D01*
X63194284Y-100941813D01*
X62086788Y-100941813D01*
X61823894Y-100408655D01*
X62661125Y-100408655D01*
X62842145Y-100589675D01*
X63023165Y-100408655D01*
X63727442Y-100408655D01*
X63908462Y-100589675D01*
X64002828Y-100495309D01*
X63737655Y-100398442D01*
X63727442Y-100408655D01*
X63023165Y-100408655D01*
X62842145Y-100227635D01*
X62661125Y-100408655D01*
X61823894Y-100408655D01*
X61793662Y-100347344D01*
X61781476Y-100277401D01*
X61783414Y-100265475D01*
X61867636Y-99868434D01*
X61889783Y-99819396D01*
X62064360Y-99584619D01*
X62098336Y-99553178D01*
X62263055Y-99449466D01*
X62276017Y-99442331D01*
X62518575Y-99326827D01*
X62588677Y-99315598D01*
X62615975Y-99322235D01*
G37*
%TD.AperFunction*%
%TA.AperFunction,NonConductor*%
G36*
X58928583Y-116360600D02*
G01*
X58939032Y-116365043D01*
X68468086Y-120934492D01*
X69047971Y-121212563D01*
X69084287Y-121194656D01*
X70499785Y-121194656D01*
X70601661Y-121296532D01*
X70782680Y-121115512D01*
X71486958Y-121115512D01*
X71667978Y-121296532D01*
X71848998Y-121115511D01*
X71667979Y-120934492D01*
X71486958Y-121115512D01*
X70782680Y-121115512D01*
X70782681Y-121115511D01*
X70742263Y-121075093D01*
X70499785Y-121194656D01*
X69084287Y-121194656D01*
X70326060Y-120582353D01*
X72020117Y-120582353D01*
X72201137Y-120763373D01*
X72259143Y-120705367D01*
X72258948Y-120459144D01*
X72201137Y-120401333D01*
X72020117Y-120582353D01*
X70326060Y-120582353D01*
X72077656Y-119718662D01*
X72147599Y-119706476D01*
X72159521Y-119708413D01*
X72556567Y-119792636D01*
X72605602Y-119814781D01*
X72662362Y-119856987D01*
X72705763Y-119889260D01*
X72748492Y-119945959D01*
X72756578Y-119990270D01*
X72756695Y-120138966D01*
X72757741Y-121463084D01*
X72750092Y-121506416D01*
X72113844Y-123248145D01*
X70945277Y-126447096D01*
X70863567Y-126670776D01*
X70849286Y-126698574D01*
X70255680Y-127568278D01*
X70243189Y-127583785D01*
X69282895Y-128599748D01*
X69263953Y-128616159D01*
X69058934Y-128760751D01*
X68616292Y-129072929D01*
X68586623Y-129088415D01*
X63580928Y-130903414D01*
X63537938Y-130910960D01*
X63269260Y-130910875D01*
X61783913Y-130910405D01*
X61715802Y-130890382D01*
X61684257Y-130861451D01*
X61658486Y-130828099D01*
X61633185Y-130766865D01*
X61611087Y-130592096D01*
X61564499Y-130223627D01*
X61572054Y-130179206D01*
X62423264Y-130179206D01*
X62604284Y-130360226D01*
X62785303Y-130179207D01*
X63489581Y-130179207D01*
X63556695Y-130246321D01*
X63822396Y-130149981D01*
X63670601Y-129998186D01*
X63489581Y-130179207D01*
X62785303Y-130179207D01*
X62785304Y-130179206D01*
X62604284Y-129998186D01*
X62423264Y-130179206D01*
X61572054Y-130179206D01*
X61576752Y-130151582D01*
X61828916Y-129646048D01*
X62956422Y-129646048D01*
X63137442Y-129827068D01*
X63318462Y-129646048D01*
X64022739Y-129646048D01*
X64203759Y-129827068D01*
X64384779Y-129646048D01*
X65089056Y-129646048D01*
X65121831Y-129678823D01*
X65387532Y-129582483D01*
X65270077Y-129465028D01*
X65089056Y-129646048D01*
X64384779Y-129646048D01*
X64203759Y-129465028D01*
X64022739Y-129646048D01*
X63318462Y-129646048D01*
X63137442Y-129465028D01*
X62956422Y-129646048D01*
X61828916Y-129646048D01*
X62094859Y-129112889D01*
X63489581Y-129112889D01*
X63670601Y-129293909D01*
X63851621Y-129112889D01*
X64555898Y-129112889D01*
X64736918Y-129293909D01*
X64917938Y-129112889D01*
X65622215Y-129112889D01*
X65803235Y-129293909D01*
X65984255Y-129112889D01*
X65980912Y-129109546D01*
X66691875Y-129109546D01*
X66952669Y-129014986D01*
X66869552Y-128931869D01*
X66691875Y-129109546D01*
X65980912Y-129109546D01*
X65803235Y-128931869D01*
X65622215Y-129112889D01*
X64917938Y-129112889D01*
X64736918Y-128931869D01*
X64555898Y-129112889D01*
X63851621Y-129112889D01*
X63670601Y-128931869D01*
X63489581Y-129112889D01*
X62094859Y-129112889D01*
X62143694Y-129014986D01*
X62326212Y-128649076D01*
X63025767Y-128649076D01*
X63137442Y-128760751D01*
X63318462Y-128579731D01*
X64022739Y-128579731D01*
X64203759Y-128760751D01*
X64384779Y-128579731D01*
X65089056Y-128579731D01*
X65270076Y-128760751D01*
X65451096Y-128579731D01*
X66155373Y-128579731D01*
X66336393Y-128760751D01*
X66517413Y-128579731D01*
X67221690Y-128579731D01*
X67402710Y-128760751D01*
X67583730Y-128579730D01*
X67443609Y-128439609D01*
X68428129Y-128439609D01*
X68476096Y-128405779D01*
X68469028Y-128398711D01*
X68428129Y-128439609D01*
X67443609Y-128439609D01*
X67402711Y-128398711D01*
X67221690Y-128579731D01*
X66517413Y-128579731D01*
X66336393Y-128398711D01*
X66155373Y-128579731D01*
X65451096Y-128579731D01*
X65270076Y-128398711D01*
X65089056Y-128579731D01*
X64384779Y-128579731D01*
X64203759Y-128398711D01*
X64022739Y-128579731D01*
X63318462Y-128579731D01*
X63146255Y-128407524D01*
X63025767Y-128649076D01*
X62326212Y-128649076D01*
X62626745Y-128046572D01*
X63489581Y-128046572D01*
X63670601Y-128227592D01*
X63851621Y-128046572D01*
X64555898Y-128046572D01*
X64736918Y-128227592D01*
X64917938Y-128046572D01*
X65622215Y-128046572D01*
X65803235Y-128227592D01*
X65984255Y-128046572D01*
X66688532Y-128046572D01*
X66869552Y-128227592D01*
X67050572Y-128046572D01*
X67754849Y-128046572D01*
X67935869Y-128227592D01*
X68116889Y-128046572D01*
X68821166Y-128046572D01*
X68884506Y-128109912D01*
X69060427Y-127923793D01*
X69002186Y-127865552D01*
X68821166Y-128046572D01*
X68116889Y-128046572D01*
X67935869Y-127865552D01*
X67754849Y-128046572D01*
X67050572Y-128046572D01*
X66869552Y-127865552D01*
X66688532Y-128046572D01*
X65984255Y-128046572D01*
X65803235Y-127865552D01*
X65622215Y-128046572D01*
X64917938Y-128046572D01*
X64736918Y-127865552D01*
X64555898Y-128046572D01*
X63851621Y-128046572D01*
X63670601Y-127865552D01*
X63489581Y-128046572D01*
X62626745Y-128046572D01*
X62892687Y-127513414D01*
X64022739Y-127513414D01*
X64203759Y-127694434D01*
X64384779Y-127513414D01*
X65089056Y-127513414D01*
X65270076Y-127694434D01*
X65451096Y-127513414D01*
X66155373Y-127513414D01*
X66336393Y-127694434D01*
X66517413Y-127513414D01*
X67221690Y-127513414D01*
X67402710Y-127694434D01*
X67583729Y-127513414D01*
X68288007Y-127513414D01*
X68469027Y-127694434D01*
X68650046Y-127513414D01*
X69354324Y-127513414D01*
X69402646Y-127561736D01*
X69578567Y-127375616D01*
X69535345Y-127332394D01*
X69354324Y-127513414D01*
X68650046Y-127513414D01*
X68650047Y-127513413D01*
X68469028Y-127332394D01*
X68288007Y-127513414D01*
X67583729Y-127513414D01*
X67583730Y-127513413D01*
X67402711Y-127332394D01*
X67221690Y-127513414D01*
X66517413Y-127513414D01*
X66336393Y-127332394D01*
X66155373Y-127513414D01*
X65451096Y-127513414D01*
X65270076Y-127332394D01*
X65089056Y-127513414D01*
X64384779Y-127513414D01*
X64203759Y-127332394D01*
X64022739Y-127513414D01*
X62892687Y-127513414D01*
X63037562Y-127222971D01*
X62879749Y-126895276D01*
X63574560Y-126895276D01*
X63601567Y-126951356D01*
X63604786Y-126958618D01*
X63628493Y-127016996D01*
X63636747Y-127048525D01*
X63648229Y-127138903D01*
X63670601Y-127161275D01*
X63851621Y-126980255D01*
X64555898Y-126980255D01*
X64736918Y-127161275D01*
X64917938Y-126980255D01*
X65622215Y-126980255D01*
X65803235Y-127161275D01*
X65984255Y-126980255D01*
X66688532Y-126980255D01*
X66869552Y-127161275D01*
X67050572Y-126980255D01*
X67754849Y-126980255D01*
X67935869Y-127161275D01*
X68116889Y-126980255D01*
X68821166Y-126980255D01*
X69002186Y-127161275D01*
X69183206Y-126980255D01*
X69887483Y-126980255D01*
X69894396Y-126987168D01*
X69924120Y-126943618D01*
X69887483Y-126980255D01*
X69183206Y-126980255D01*
X69002186Y-126799235D01*
X68821166Y-126980255D01*
X68116889Y-126980255D01*
X67935869Y-126799235D01*
X67754849Y-126980255D01*
X67050572Y-126980255D01*
X66869552Y-126799235D01*
X66688532Y-126980255D01*
X65984255Y-126980255D01*
X65803235Y-126799235D01*
X65622215Y-126980255D01*
X64917938Y-126980255D01*
X64736918Y-126799235D01*
X64555898Y-126980255D01*
X63851621Y-126980255D01*
X63670601Y-126799235D01*
X63574560Y-126895276D01*
X62879749Y-126895276D01*
X62663913Y-126447097D01*
X64022739Y-126447097D01*
X64203759Y-126628117D01*
X64384779Y-126447097D01*
X65089056Y-126447097D01*
X65270076Y-126628117D01*
X65451096Y-126447097D01*
X66155373Y-126447097D01*
X66336393Y-126628117D01*
X66517413Y-126447097D01*
X67221690Y-126447097D01*
X67402710Y-126628117D01*
X67583729Y-126447097D01*
X68288007Y-126447097D01*
X68469027Y-126628117D01*
X68650046Y-126447097D01*
X69354324Y-126447097D01*
X69535344Y-126628117D01*
X69716364Y-126447096D01*
X69535345Y-126266077D01*
X69354324Y-126447097D01*
X68650046Y-126447097D01*
X68650047Y-126447096D01*
X68469028Y-126266077D01*
X68288007Y-126447097D01*
X67583729Y-126447097D01*
X67583730Y-126447096D01*
X67402711Y-126266077D01*
X67221690Y-126447097D01*
X66517413Y-126447097D01*
X66336393Y-126266077D01*
X66155373Y-126447097D01*
X65451096Y-126447097D01*
X65270076Y-126266077D01*
X65089056Y-126447097D01*
X64384779Y-126447097D01*
X64203759Y-126266077D01*
X64022739Y-126447097D01*
X62663913Y-126447097D01*
X62407152Y-125913938D01*
X63489581Y-125913938D01*
X63670601Y-126094958D01*
X63851621Y-125913938D01*
X64555898Y-125913938D01*
X64736918Y-126094958D01*
X64917938Y-125913938D01*
X65622215Y-125913938D01*
X65803235Y-126094958D01*
X65984255Y-125913938D01*
X66688532Y-125913938D01*
X66869552Y-126094958D01*
X67050572Y-125913938D01*
X67754849Y-125913938D01*
X67935869Y-126094958D01*
X68116889Y-125913938D01*
X68821166Y-125913938D01*
X69002186Y-126094958D01*
X69183206Y-125913938D01*
X69887483Y-125913938D01*
X70068503Y-126094958D01*
X70249523Y-125913938D01*
X70068503Y-125732918D01*
X69887483Y-125913938D01*
X69183206Y-125913938D01*
X69002186Y-125732918D01*
X68821166Y-125913938D01*
X68116889Y-125913938D01*
X67935869Y-125732918D01*
X67754849Y-125913938D01*
X67050572Y-125913938D01*
X66869552Y-125732918D01*
X66688532Y-125913938D01*
X65984255Y-125913938D01*
X65803235Y-125732918D01*
X65622215Y-125913938D01*
X64917938Y-125913938D01*
X64736918Y-125732918D01*
X64555898Y-125913938D01*
X63851621Y-125913938D01*
X63670601Y-125732918D01*
X63489581Y-125913938D01*
X62407152Y-125913938D01*
X62150391Y-125380780D01*
X62956422Y-125380780D01*
X63137442Y-125561800D01*
X63318462Y-125380780D01*
X64022739Y-125380780D01*
X64203759Y-125561800D01*
X64384779Y-125380780D01*
X65089056Y-125380780D01*
X65270076Y-125561800D01*
X65451096Y-125380780D01*
X66155373Y-125380780D01*
X66336393Y-125561800D01*
X66517413Y-125380780D01*
X67221690Y-125380780D01*
X67402710Y-125561800D01*
X67583729Y-125380780D01*
X68288007Y-125380780D01*
X68469027Y-125561800D01*
X68650046Y-125380780D01*
X69354324Y-125380780D01*
X69535344Y-125561800D01*
X69716363Y-125380780D01*
X70420641Y-125380780D01*
X70601661Y-125561800D01*
X70602530Y-125560931D01*
X70698932Y-125297030D01*
X70601662Y-125199760D01*
X70420641Y-125380780D01*
X69716363Y-125380780D01*
X69716364Y-125380779D01*
X69535345Y-125199760D01*
X69354324Y-125380780D01*
X68650046Y-125380780D01*
X68650047Y-125380779D01*
X68469028Y-125199760D01*
X68288007Y-125380780D01*
X67583729Y-125380780D01*
X67583730Y-125380779D01*
X67402711Y-125199760D01*
X67221690Y-125380780D01*
X66517413Y-125380780D01*
X66336393Y-125199760D01*
X66155373Y-125380780D01*
X65451096Y-125380780D01*
X65270076Y-125199760D01*
X65089056Y-125380780D01*
X64384779Y-125380780D01*
X64203759Y-125199760D01*
X64022739Y-125380780D01*
X63318462Y-125380780D01*
X63137442Y-125199760D01*
X62956422Y-125380780D01*
X62150391Y-125380780D01*
X61839940Y-124736134D01*
X62534751Y-124736134D01*
X62652431Y-124980494D01*
X62785304Y-124847621D01*
X63489581Y-124847621D01*
X63670601Y-125028641D01*
X63851621Y-124847621D01*
X64555898Y-124847621D01*
X64736918Y-125028641D01*
X64917938Y-124847621D01*
X65622215Y-124847621D01*
X65803235Y-125028641D01*
X65984255Y-124847621D01*
X66688532Y-124847621D01*
X66869552Y-125028641D01*
X67050572Y-124847621D01*
X67754849Y-124847621D01*
X67935869Y-125028641D01*
X68116889Y-124847621D01*
X68821166Y-124847621D01*
X69002186Y-125028641D01*
X69183206Y-124847621D01*
X69887483Y-124847621D01*
X70068503Y-125028641D01*
X70249523Y-124847621D01*
X70068503Y-124666601D01*
X69887483Y-124847621D01*
X69183206Y-124847621D01*
X69002186Y-124666601D01*
X68821166Y-124847621D01*
X68116889Y-124847621D01*
X67935869Y-124666601D01*
X67754849Y-124847621D01*
X67050572Y-124847621D01*
X66869552Y-124666601D01*
X66688532Y-124847621D01*
X65984255Y-124847621D01*
X65803235Y-124666601D01*
X65622215Y-124847621D01*
X64917938Y-124847621D01*
X64736918Y-124666601D01*
X64555898Y-124847621D01*
X63851621Y-124847621D01*
X63670601Y-124666601D01*
X63489581Y-124847621D01*
X62785304Y-124847621D01*
X62604284Y-124666601D01*
X62534751Y-124736134D01*
X61839940Y-124736134D01*
X61636870Y-124314463D01*
X62956422Y-124314463D01*
X63137442Y-124495483D01*
X63318462Y-124314463D01*
X64022739Y-124314463D01*
X64203759Y-124495483D01*
X64384779Y-124314463D01*
X65089056Y-124314463D01*
X65270076Y-124495483D01*
X65451096Y-124314463D01*
X66155373Y-124314463D01*
X66336393Y-124495483D01*
X66517413Y-124314463D01*
X67221690Y-124314463D01*
X67402710Y-124495483D01*
X67583729Y-124314463D01*
X68288007Y-124314463D01*
X68469027Y-124495483D01*
X68650046Y-124314463D01*
X69354324Y-124314463D01*
X69535344Y-124495483D01*
X69716363Y-124314463D01*
X70420641Y-124314463D01*
X70601661Y-124495483D01*
X70782681Y-124314462D01*
X70601662Y-124133443D01*
X70420641Y-124314463D01*
X69716363Y-124314463D01*
X69716364Y-124314462D01*
X69535345Y-124133443D01*
X69354324Y-124314463D01*
X68650046Y-124314463D01*
X68650047Y-124314462D01*
X68469028Y-124133443D01*
X68288007Y-124314463D01*
X67583729Y-124314463D01*
X67583730Y-124314462D01*
X67402711Y-124133443D01*
X67221690Y-124314463D01*
X66517413Y-124314463D01*
X66336393Y-124133443D01*
X66155373Y-124314463D01*
X65451096Y-124314463D01*
X65270076Y-124133443D01*
X65089056Y-124314463D01*
X64384779Y-124314463D01*
X64203759Y-124133443D01*
X64022739Y-124314463D01*
X63318462Y-124314463D01*
X63137442Y-124133443D01*
X62956422Y-124314463D01*
X61636870Y-124314463D01*
X61380109Y-123781304D01*
X62423264Y-123781304D01*
X62604284Y-123962324D01*
X62785304Y-123781304D01*
X63489581Y-123781304D01*
X63670601Y-123962324D01*
X63851621Y-123781304D01*
X64555898Y-123781304D01*
X64736918Y-123962324D01*
X64917938Y-123781304D01*
X65622215Y-123781304D01*
X65803235Y-123962324D01*
X65984255Y-123781304D01*
X66688532Y-123781304D01*
X66869552Y-123962324D01*
X67050572Y-123781304D01*
X67754849Y-123781304D01*
X67935869Y-123962324D01*
X68116889Y-123781304D01*
X68821166Y-123781304D01*
X69002186Y-123962324D01*
X69183206Y-123781304D01*
X69887483Y-123781304D01*
X70068503Y-123962324D01*
X70249523Y-123781304D01*
X70953800Y-123781304D01*
X71134820Y-123962324D01*
X71216237Y-123880907D01*
X71269536Y-123735000D01*
X71134820Y-123600284D01*
X70953800Y-123781304D01*
X70249523Y-123781304D01*
X70068503Y-123600284D01*
X69887483Y-123781304D01*
X69183206Y-123781304D01*
X69002186Y-123600284D01*
X68821166Y-123781304D01*
X68116889Y-123781304D01*
X67935869Y-123600284D01*
X67754849Y-123781304D01*
X67050572Y-123781304D01*
X66869552Y-123600284D01*
X66688532Y-123781304D01*
X65984255Y-123781304D01*
X65803235Y-123600284D01*
X65622215Y-123781304D01*
X64917938Y-123781304D01*
X64736918Y-123600284D01*
X64555898Y-123781304D01*
X63851621Y-123781304D01*
X63670601Y-123600284D01*
X63489581Y-123781304D01*
X62785304Y-123781304D01*
X62604284Y-123600284D01*
X62423264Y-123781304D01*
X61380109Y-123781304D01*
X61123348Y-123248146D01*
X61890105Y-123248146D01*
X62071125Y-123429166D01*
X62252145Y-123248146D01*
X62956422Y-123248146D01*
X63137442Y-123429166D01*
X63318462Y-123248146D01*
X64022739Y-123248146D01*
X64203759Y-123429166D01*
X64384779Y-123248146D01*
X65089056Y-123248146D01*
X65270076Y-123429166D01*
X65451096Y-123248146D01*
X66155373Y-123248146D01*
X66336393Y-123429166D01*
X66517413Y-123248146D01*
X67221690Y-123248146D01*
X67402710Y-123429166D01*
X67583729Y-123248146D01*
X68288007Y-123248146D01*
X68469027Y-123429166D01*
X68650046Y-123248146D01*
X69354324Y-123248146D01*
X69535344Y-123429166D01*
X69716363Y-123248146D01*
X70420641Y-123248146D01*
X70601661Y-123429166D01*
X70782681Y-123248145D01*
X70601662Y-123067126D01*
X70420641Y-123248146D01*
X69716363Y-123248146D01*
X69716364Y-123248145D01*
X69535345Y-123067126D01*
X69354324Y-123248146D01*
X68650046Y-123248146D01*
X68650047Y-123248145D01*
X68469028Y-123067126D01*
X68288007Y-123248146D01*
X67583729Y-123248146D01*
X67583730Y-123248145D01*
X67402711Y-123067126D01*
X67221690Y-123248146D01*
X66517413Y-123248146D01*
X66336393Y-123067126D01*
X66155373Y-123248146D01*
X65451096Y-123248146D01*
X65270076Y-123067126D01*
X65089056Y-123248146D01*
X64384779Y-123248146D01*
X64203759Y-123067126D01*
X64022739Y-123248146D01*
X63318462Y-123248146D01*
X63137442Y-123067126D01*
X62956422Y-123248146D01*
X62252145Y-123248146D01*
X62071125Y-123067126D01*
X61890105Y-123248146D01*
X61123348Y-123248146D01*
X60800131Y-122576992D01*
X61494942Y-122576992D01*
X61612622Y-122821352D01*
X61718987Y-122714987D01*
X62423264Y-122714987D01*
X62604284Y-122896007D01*
X62785304Y-122714987D01*
X63489581Y-122714987D01*
X63670601Y-122896007D01*
X63851621Y-122714987D01*
X64555898Y-122714987D01*
X64736918Y-122896007D01*
X64917938Y-122714987D01*
X65622215Y-122714987D01*
X65803235Y-122896007D01*
X65984255Y-122714987D01*
X66688532Y-122714987D01*
X66869552Y-122896007D01*
X67050572Y-122714987D01*
X67754849Y-122714987D01*
X67935869Y-122896007D01*
X68116889Y-122714987D01*
X68821166Y-122714987D01*
X69002186Y-122896007D01*
X69183206Y-122714987D01*
X69887483Y-122714987D01*
X70068503Y-122896007D01*
X70249523Y-122714987D01*
X70953800Y-122714987D01*
X71134820Y-122896007D01*
X71315840Y-122714987D01*
X71134820Y-122533967D01*
X70953800Y-122714987D01*
X70249523Y-122714987D01*
X70068503Y-122533967D01*
X69887483Y-122714987D01*
X69183206Y-122714987D01*
X69002186Y-122533967D01*
X68821166Y-122714987D01*
X68116889Y-122714987D01*
X67935869Y-122533967D01*
X67754849Y-122714987D01*
X67050572Y-122714987D01*
X66869552Y-122533967D01*
X66688532Y-122714987D01*
X65984255Y-122714987D01*
X65803235Y-122533967D01*
X65622215Y-122714987D01*
X64917938Y-122714987D01*
X64736918Y-122533967D01*
X64555898Y-122714987D01*
X63851621Y-122714987D01*
X63670601Y-122533967D01*
X63489581Y-122714987D01*
X62785304Y-122714987D01*
X62604284Y-122533967D01*
X62423264Y-122714987D01*
X61718987Y-122714987D01*
X61537967Y-122533967D01*
X61494942Y-122576992D01*
X60800131Y-122576992D01*
X60609827Y-122181829D01*
X61890105Y-122181829D01*
X62071125Y-122362849D01*
X62252145Y-122181829D01*
X62956422Y-122181829D01*
X63137442Y-122362849D01*
X63318462Y-122181829D01*
X64022739Y-122181829D01*
X64203759Y-122362849D01*
X64384779Y-122181829D01*
X65089056Y-122181829D01*
X65270076Y-122362849D01*
X65451096Y-122181829D01*
X66155373Y-122181829D01*
X66336393Y-122362849D01*
X66517413Y-122181829D01*
X67221690Y-122181829D01*
X67402710Y-122362849D01*
X67583729Y-122181829D01*
X68288007Y-122181829D01*
X68469027Y-122362849D01*
X68650046Y-122181829D01*
X69354324Y-122181829D01*
X69535344Y-122362849D01*
X69716363Y-122181829D01*
X70420641Y-122181829D01*
X70601661Y-122362849D01*
X70782680Y-122181829D01*
X71486958Y-122181829D01*
X71667978Y-122362849D01*
X71829946Y-122200881D01*
X71840141Y-122172971D01*
X71667979Y-122000809D01*
X71486958Y-122181829D01*
X70782680Y-122181829D01*
X70782681Y-122181828D01*
X70601662Y-122000809D01*
X70420641Y-122181829D01*
X69716363Y-122181829D01*
X69716364Y-122181828D01*
X69535345Y-122000809D01*
X69354324Y-122181829D01*
X68650046Y-122181829D01*
X68650047Y-122181828D01*
X68469028Y-122000809D01*
X68288007Y-122181829D01*
X67583729Y-122181829D01*
X67583730Y-122181828D01*
X67402711Y-122000809D01*
X67221690Y-122181829D01*
X66517413Y-122181829D01*
X66336393Y-122000809D01*
X66155373Y-122181829D01*
X65451096Y-122181829D01*
X65270076Y-122000809D01*
X65089056Y-122181829D01*
X64384779Y-122181829D01*
X64203759Y-122000809D01*
X64022739Y-122181829D01*
X63318462Y-122181829D01*
X63137442Y-122000809D01*
X62956422Y-122181829D01*
X62252145Y-122181829D01*
X62071125Y-122000809D01*
X61890105Y-122181829D01*
X60609827Y-122181829D01*
X60353066Y-121648670D01*
X61356947Y-121648670D01*
X61537967Y-121829690D01*
X61718987Y-121648670D01*
X62423264Y-121648670D01*
X62604284Y-121829690D01*
X62785304Y-121648670D01*
X63489581Y-121648670D01*
X63670601Y-121829690D01*
X63851621Y-121648670D01*
X64555898Y-121648670D01*
X64736918Y-121829690D01*
X64917938Y-121648670D01*
X65622215Y-121648670D01*
X65803235Y-121829690D01*
X65984255Y-121648670D01*
X66688532Y-121648670D01*
X66869552Y-121829690D01*
X67050572Y-121648670D01*
X67754849Y-121648670D01*
X67935869Y-121829690D01*
X68116889Y-121648670D01*
X69887483Y-121648670D01*
X70068503Y-121829690D01*
X70249523Y-121648670D01*
X70953800Y-121648670D01*
X71134820Y-121829690D01*
X71315840Y-121648670D01*
X72020117Y-121648670D01*
X72028577Y-121657130D01*
X72038314Y-121630473D01*
X72020117Y-121648670D01*
X71315840Y-121648670D01*
X71134820Y-121467650D01*
X70953800Y-121648670D01*
X70249523Y-121648670D01*
X70068503Y-121467650D01*
X69887483Y-121648670D01*
X68116889Y-121648670D01*
X67935869Y-121467650D01*
X67754849Y-121648670D01*
X67050572Y-121648670D01*
X66869552Y-121467650D01*
X66688532Y-121648670D01*
X65984255Y-121648670D01*
X65803235Y-121467650D01*
X65622215Y-121648670D01*
X64917938Y-121648670D01*
X64736918Y-121467650D01*
X64555898Y-121648670D01*
X63851621Y-121648670D01*
X63670601Y-121467650D01*
X63489581Y-121648670D01*
X62785304Y-121648670D01*
X62604284Y-121467650D01*
X62423264Y-121648670D01*
X61718987Y-121648670D01*
X61537967Y-121467650D01*
X61356947Y-121648670D01*
X60353066Y-121648670D01*
X60096305Y-121115512D01*
X60823788Y-121115512D01*
X61004808Y-121296532D01*
X61185828Y-121115512D01*
X61890105Y-121115512D01*
X62071125Y-121296532D01*
X62252145Y-121115512D01*
X62956422Y-121115512D01*
X63137442Y-121296532D01*
X63318462Y-121115512D01*
X64022739Y-121115512D01*
X64203759Y-121296532D01*
X64384779Y-121115512D01*
X65089056Y-121115512D01*
X65270076Y-121296532D01*
X65451096Y-121115512D01*
X66155373Y-121115512D01*
X66336393Y-121296532D01*
X66517413Y-121115512D01*
X67221690Y-121115512D01*
X67402710Y-121296532D01*
X67523468Y-121175773D01*
X67278769Y-121058433D01*
X67221690Y-121115512D01*
X66517413Y-121115512D01*
X66336393Y-120934492D01*
X66155373Y-121115512D01*
X65451096Y-121115512D01*
X65270076Y-120934492D01*
X65089056Y-121115512D01*
X64384779Y-121115512D01*
X64203759Y-120934492D01*
X64022739Y-121115512D01*
X63318462Y-121115512D01*
X63137442Y-120934492D01*
X62956422Y-121115512D01*
X62252145Y-121115512D01*
X62071125Y-120934492D01*
X61890105Y-121115512D01*
X61185828Y-121115512D01*
X61004808Y-120934492D01*
X60823788Y-121115512D01*
X60096305Y-121115512D01*
X59760322Y-120417850D01*
X60455133Y-120417850D01*
X60572813Y-120662210D01*
X60652670Y-120582353D01*
X61356947Y-120582353D01*
X61537967Y-120763373D01*
X61718987Y-120582353D01*
X62423264Y-120582353D01*
X62604284Y-120763373D01*
X62785304Y-120582353D01*
X63489581Y-120582353D01*
X63670601Y-120763373D01*
X63851621Y-120582353D01*
X64555898Y-120582353D01*
X64736918Y-120763373D01*
X64917938Y-120582353D01*
X65622215Y-120582353D01*
X65803235Y-120763373D01*
X65984255Y-120582353D01*
X65803235Y-120401333D01*
X65622215Y-120582353D01*
X64917938Y-120582353D01*
X64736918Y-120401333D01*
X64555898Y-120582353D01*
X63851621Y-120582353D01*
X63670601Y-120401333D01*
X63489581Y-120582353D01*
X62785304Y-120582353D01*
X62604284Y-120401333D01*
X62423264Y-120582353D01*
X61718987Y-120582353D01*
X61537967Y-120401333D01*
X61356947Y-120582353D01*
X60652670Y-120582353D01*
X60471650Y-120401333D01*
X60455133Y-120417850D01*
X59760322Y-120417850D01*
X59582783Y-120049194D01*
X60823788Y-120049194D01*
X61004808Y-120230214D01*
X61185828Y-120049194D01*
X61890105Y-120049194D01*
X62071125Y-120230214D01*
X62252145Y-120049194D01*
X62956422Y-120049194D01*
X63137442Y-120230214D01*
X63318462Y-120049194D01*
X64022739Y-120049194D01*
X64203759Y-120230214D01*
X64384779Y-120049194D01*
X65089056Y-120049194D01*
X65270077Y-120230214D01*
X65361325Y-120138966D01*
X65116625Y-120021625D01*
X65089056Y-120049194D01*
X64384779Y-120049194D01*
X64203759Y-119868174D01*
X64022739Y-120049194D01*
X63318462Y-120049194D01*
X63137442Y-119868174D01*
X62956422Y-120049194D01*
X62252145Y-120049194D01*
X62071125Y-119868174D01*
X61890105Y-120049194D01*
X61185828Y-120049194D01*
X61004808Y-119868174D01*
X60823788Y-120049194D01*
X59582783Y-120049194D01*
X59326023Y-119516036D01*
X60290630Y-119516036D01*
X60471650Y-119697056D01*
X60652670Y-119516036D01*
X61356947Y-119516036D01*
X61537967Y-119697056D01*
X61718987Y-119516036D01*
X62423264Y-119516036D01*
X62604284Y-119697056D01*
X62785304Y-119516036D01*
X63489581Y-119516036D01*
X63670601Y-119697056D01*
X63851621Y-119516036D01*
X63670601Y-119335016D01*
X63489581Y-119516036D01*
X62785304Y-119516036D01*
X62604284Y-119335016D01*
X62423264Y-119516036D01*
X61718987Y-119516036D01*
X61537967Y-119335016D01*
X61356947Y-119516036D01*
X60652670Y-119516036D01*
X60471650Y-119335016D01*
X60290630Y-119516036D01*
X59326023Y-119516036D01*
X59067117Y-118978422D01*
X59761926Y-118978422D01*
X59770205Y-118995612D01*
X59938490Y-119163897D01*
X60119511Y-118982877D01*
X60823788Y-118982877D01*
X61004808Y-119163897D01*
X61185828Y-118982877D01*
X61890105Y-118982877D01*
X62071125Y-119163897D01*
X62246631Y-118988391D01*
X62961936Y-118988391D01*
X63137442Y-119163897D01*
X63199182Y-119102156D01*
X62961936Y-118988391D01*
X62246631Y-118988391D01*
X62252145Y-118982877D01*
X62071125Y-118801857D01*
X61890105Y-118982877D01*
X61185828Y-118982877D01*
X61004808Y-118801857D01*
X60823788Y-118982877D01*
X60119511Y-118982877D01*
X59938491Y-118801857D01*
X59761926Y-118978422D01*
X59067117Y-118978422D01*
X58739077Y-118297254D01*
X59433888Y-118297254D01*
X59533004Y-118503068D01*
X59586353Y-118449719D01*
X60290630Y-118449719D01*
X60471650Y-118630739D01*
X60652670Y-118449719D01*
X61356947Y-118449719D01*
X61537967Y-118630739D01*
X61718987Y-118449719D01*
X61608784Y-118339516D01*
X61513055Y-118293612D01*
X61356947Y-118449719D01*
X60652670Y-118449719D01*
X60471650Y-118268699D01*
X60290630Y-118449719D01*
X59586353Y-118449719D01*
X59433888Y-118297254D01*
X58739077Y-118297254D01*
X58555741Y-117916560D01*
X59757471Y-117916560D01*
X59938491Y-118097580D01*
X60030113Y-118005958D01*
X60913186Y-118005958D01*
X61004808Y-118097580D01*
X61037039Y-118065348D01*
X60913186Y-118005958D01*
X60030113Y-118005958D01*
X60119511Y-117916560D01*
X59938491Y-117735540D01*
X59757471Y-117916560D01*
X58555741Y-117916560D01*
X58298980Y-117383402D01*
X59224313Y-117383402D01*
X59405333Y-117564422D01*
X59586353Y-117383402D01*
X59560034Y-117357083D01*
X59350912Y-117256804D01*
X59224313Y-117383402D01*
X58298980Y-117383402D01*
X58176103Y-117128250D01*
X58164568Y-117058199D01*
X58192737Y-116993030D01*
X58200530Y-116984487D01*
X58795456Y-116389561D01*
X58857768Y-116355535D01*
X58928583Y-116360600D01*
G37*
%TD.AperFunction*%
M02*
