G04 #@! TF.GenerationSoftware,KiCad,Pcbnew,(6.0.2)*
G04 #@! TF.CreationDate,2022-04-26T10:19:42-06:00*
G04 #@! TF.ProjectId,CONEPROJ,434f4e45-5052-44f4-9a2e-6b696361645f,rev?*
G04 #@! TF.SameCoordinates,Original*
G04 #@! TF.FileFunction,Legend,Top*
G04 #@! TF.FilePolarity,Positive*
%FSLAX46Y46*%
G04 Gerber Fmt 4.6, Leading zero omitted, Abs format (unit mm)*
G04 Created by KiCad (PCBNEW (6.0.2)) date 2022-04-26 10:19:42*
%MOMM*%
%LPD*%
G01*
G04 APERTURE LIST*
%ADD10C,0.120000*%
%ADD11C,0.075000*%
%ADD12C,0.125000*%
%ADD13C,0.150000*%
%ADD14C,0.050000*%
%ADD15C,0.127000*%
%ADD16C,0.254000*%
%ADD17C,0.250000*%
G04 APERTURE END LIST*
D10*
X69600000Y-81800000D02*
X69600000Y-80700000D01*
X96250000Y-79250000D02*
X104750000Y-79250000D01*
X104750000Y-79250000D02*
X104750000Y-88500000D01*
X104750000Y-88500000D02*
X96250000Y-88500000D01*
X96250000Y-88500000D02*
X96250000Y-79250000D01*
X55500000Y-75125000D02*
X62500000Y-75125000D01*
X60500000Y-72500000D02*
X60500000Y-77750000D01*
X76400000Y-72200000D02*
X76400000Y-79900000D01*
X70150000Y-75125000D02*
X76150000Y-75125000D01*
X69600000Y-80700000D02*
X69300000Y-80700000D01*
X75150000Y-72500000D02*
X75150000Y-75100000D01*
X62900000Y-72500000D02*
X62900000Y-77900000D01*
X71150000Y-72500000D02*
X71150000Y-77750000D01*
X49250000Y-55250000D02*
X52500000Y-55250000D01*
X52500000Y-55250000D02*
X52500000Y-58500000D01*
X52500000Y-58500000D02*
X49250000Y-58500000D01*
X49250000Y-58500000D02*
X49250000Y-55250000D01*
X55500000Y-72500000D02*
X62500000Y-72500000D01*
X62500000Y-72500000D02*
X62500000Y-77750000D01*
X62500000Y-77750000D02*
X55500000Y-77750000D01*
X55500000Y-77750000D02*
X55500000Y-72500000D01*
X70150000Y-72500000D02*
X76150000Y-72500000D01*
X76150000Y-72500000D02*
X76150000Y-77750000D01*
X76150000Y-77750000D02*
X70150000Y-77750000D01*
X70150000Y-77750000D02*
X70150000Y-72500000D01*
X73150000Y-72500000D02*
X73150000Y-77750000D01*
X62300000Y-72200000D02*
X62900000Y-72200000D01*
X69300000Y-80700000D02*
X69300000Y-77500000D01*
X68900000Y-77300000D02*
X69300000Y-77300000D01*
X58500000Y-72500000D02*
X58500000Y-77750000D01*
X69300000Y-77300000D02*
X69300000Y-77500000D01*
X65700000Y-81800000D02*
X65700000Y-80300000D01*
X62900000Y-72200000D02*
X62900000Y-72500000D01*
X68450000Y-78600000D02*
X68450000Y-79150000D01*
X62900000Y-77900000D02*
X65700000Y-80300000D01*
X67550000Y-78600000D02*
X67550000Y-79150000D01*
X61500000Y-72500000D02*
X61500000Y-77750000D01*
X76400000Y-79900000D02*
X77300000Y-80700000D01*
X56500000Y-72500000D02*
X56500000Y-77750000D01*
X57500000Y-72500000D02*
X57500000Y-77700000D01*
X66650000Y-78600000D02*
X66650000Y-79150000D01*
X66100000Y-77500000D02*
X69000000Y-77500000D01*
X69000000Y-77500000D02*
X69000000Y-80200000D01*
X69000000Y-80200000D02*
X66100000Y-80200000D01*
X66100000Y-80200000D02*
X66100000Y-77500000D01*
X66100000Y-78850000D02*
X69000000Y-78850000D01*
X74150000Y-72500000D02*
X74150000Y-77750000D01*
X59500000Y-72500000D02*
X59500000Y-75100000D01*
X72150000Y-72500000D02*
X72150000Y-77750000D01*
X77300000Y-80700000D02*
X77300000Y-81800000D01*
X76100000Y-72200000D02*
X76400000Y-72200000D01*
D11*
X71792857Y-77202380D02*
X71811904Y-77221428D01*
X71830952Y-77278571D01*
X71830952Y-77316666D01*
X71811904Y-77373809D01*
X71773809Y-77411904D01*
X71735714Y-77430952D01*
X71659523Y-77450000D01*
X71602380Y-77450000D01*
X71526190Y-77430952D01*
X71488095Y-77411904D01*
X71450000Y-77373809D01*
X71430952Y-77316666D01*
X71430952Y-77278571D01*
X71450000Y-77221428D01*
X71469047Y-77202380D01*
X71716666Y-77050000D02*
X71716666Y-76859523D01*
X71830952Y-77088095D02*
X71430952Y-76954761D01*
X71830952Y-76821428D01*
X71830952Y-76688095D02*
X71430952Y-76688095D01*
X71830952Y-76459523D01*
X71430952Y-76459523D01*
X71430952Y-76021428D02*
X71430952Y-75792857D01*
X71830952Y-75907142D02*
X71430952Y-75907142D01*
X71430952Y-75697619D02*
X71830952Y-75430952D01*
X71430952Y-75430952D02*
X71830952Y-75697619D01*
X56135714Y-74785714D02*
X55992857Y-74885714D01*
X56135714Y-74957142D02*
X55835714Y-74957142D01*
X55835714Y-74842857D01*
X55850000Y-74814285D01*
X55864285Y-74800000D01*
X55892857Y-74785714D01*
X55935714Y-74785714D01*
X55964285Y-74800000D01*
X55978571Y-74814285D01*
X55992857Y-74842857D01*
X55992857Y-74957142D01*
X56050000Y-74671428D02*
X56050000Y-74528571D01*
X56135714Y-74700000D02*
X55835714Y-74600000D01*
X56135714Y-74500000D01*
X56135714Y-74400000D02*
X55835714Y-74400000D01*
X55835714Y-74328571D01*
X55850000Y-74285714D01*
X55878571Y-74257142D01*
X55907142Y-74242857D01*
X55964285Y-74228571D01*
X56007142Y-74228571D01*
X56064285Y-74242857D01*
X56092857Y-74257142D01*
X56121428Y-74285714D01*
X56135714Y-74328571D01*
X56135714Y-74400000D01*
X56135714Y-74100000D02*
X55835714Y-74100000D01*
X55835714Y-73900000D02*
X55835714Y-73842857D01*
X55850000Y-73814285D01*
X55878571Y-73785714D01*
X55935714Y-73771428D01*
X56035714Y-73771428D01*
X56092857Y-73785714D01*
X56121428Y-73814285D01*
X56135714Y-73842857D01*
X56135714Y-73900000D01*
X56121428Y-73928571D01*
X56092857Y-73957142D01*
X56035714Y-73971428D01*
X55935714Y-73971428D01*
X55878571Y-73957142D01*
X55850000Y-73928571D01*
X55835714Y-73900000D01*
X56135714Y-73242857D02*
X55992857Y-73342857D01*
X56135714Y-73414285D02*
X55835714Y-73414285D01*
X55835714Y-73300000D01*
X55850000Y-73271428D01*
X55864285Y-73257142D01*
X55892857Y-73242857D01*
X55935714Y-73242857D01*
X55964285Y-73257142D01*
X55978571Y-73271428D01*
X55992857Y-73300000D01*
X55992857Y-73414285D01*
X56121428Y-73128571D02*
X56135714Y-73085714D01*
X56135714Y-73014285D01*
X56121428Y-72985714D01*
X56107142Y-72971428D01*
X56078571Y-72957142D01*
X56050000Y-72957142D01*
X56021428Y-72971428D01*
X56007142Y-72985714D01*
X55992857Y-73014285D01*
X55978571Y-73071428D01*
X55964285Y-73100000D01*
X55950000Y-73114285D01*
X55921428Y-73128571D01*
X55892857Y-73128571D01*
X55864285Y-73114285D01*
X55850000Y-73100000D01*
X55835714Y-73071428D01*
X55835714Y-73000000D01*
X55850000Y-72957142D01*
X55835714Y-72871428D02*
X55835714Y-72700000D01*
X56135714Y-72785714D02*
X55835714Y-72785714D01*
D12*
X66954760Y-79476190D02*
X67264284Y-79476190D01*
X67097618Y-79666666D01*
X67169046Y-79666666D01*
X67216665Y-79690476D01*
X67240475Y-79714285D01*
X67264284Y-79761904D01*
X67264284Y-79880952D01*
X67240475Y-79928571D01*
X67216665Y-79952380D01*
X67169046Y-79976190D01*
X67026189Y-79976190D01*
X66978570Y-79952380D01*
X66954760Y-79928571D01*
X67430951Y-79642857D02*
X67549999Y-79976190D01*
X67669046Y-79642857D01*
X67811903Y-79476190D02*
X68121427Y-79476190D01*
X67954760Y-79666666D01*
X68026189Y-79666666D01*
X68073808Y-79690476D01*
X68097618Y-79714285D01*
X68121427Y-79761904D01*
X68121427Y-79880952D01*
X68097618Y-79928571D01*
X68073808Y-79952380D01*
X68026189Y-79976190D01*
X67883332Y-79976190D01*
X67835713Y-79952380D01*
X67811903Y-79928571D01*
D13*
X42562142Y-74110000D02*
X42504999Y-74081428D01*
X42419285Y-74081428D01*
X42333570Y-74110000D01*
X42276427Y-74167142D01*
X42247856Y-74224285D01*
X42219285Y-74338571D01*
X42219285Y-74424285D01*
X42247856Y-74538571D01*
X42276427Y-74595714D01*
X42333570Y-74652857D01*
X42419285Y-74681428D01*
X42476427Y-74681428D01*
X42562142Y-74652857D01*
X42590713Y-74624285D01*
X42590713Y-74424285D01*
X42476427Y-74424285D01*
X42847856Y-74681428D02*
X42847856Y-74081428D01*
X43190713Y-74681428D01*
X43190713Y-74081428D01*
X43476427Y-74681428D02*
X43476427Y-74081428D01*
X43619285Y-74081428D01*
X43704999Y-74110000D01*
X43762142Y-74167142D01*
X43790713Y-74224285D01*
X43819285Y-74338571D01*
X43819285Y-74424285D01*
X43790713Y-74538571D01*
X43762142Y-74595714D01*
X43704999Y-74652857D01*
X43619285Y-74681428D01*
X43476427Y-74681428D01*
D12*
X60226190Y-74535714D02*
X59726190Y-74535714D01*
X60083333Y-74369047D01*
X59726190Y-74202380D01*
X60226190Y-74202380D01*
X60226190Y-73964285D02*
X59726190Y-73964285D01*
X60202380Y-73750000D02*
X60226190Y-73678571D01*
X60226190Y-73559523D01*
X60202380Y-73511904D01*
X60178571Y-73488095D01*
X60130952Y-73464285D01*
X60083333Y-73464285D01*
X60035714Y-73488095D01*
X60011904Y-73511904D01*
X59988095Y-73559523D01*
X59964285Y-73654761D01*
X59940476Y-73702380D01*
X59916666Y-73726190D01*
X59869047Y-73750000D01*
X59821428Y-73750000D01*
X59773809Y-73726190D01*
X59750000Y-73702380D01*
X59726190Y-73654761D01*
X59726190Y-73535714D01*
X59750000Y-73464285D01*
X59726190Y-73154761D02*
X59726190Y-73059523D01*
X59750000Y-73011904D01*
X59797619Y-72964285D01*
X59892857Y-72940476D01*
X60059523Y-72940476D01*
X60154761Y-72964285D01*
X60202380Y-73011904D01*
X60226190Y-73059523D01*
X60226190Y-73154761D01*
X60202380Y-73202380D01*
X60154761Y-73250000D01*
X60059523Y-73273809D01*
X59892857Y-73273809D01*
X59797619Y-73250000D01*
X59750000Y-73202380D01*
X59726190Y-73154761D01*
D13*
X41676428Y-73272857D02*
X42133571Y-73272857D01*
X41904999Y-73501428D02*
X41904999Y-73044285D01*
X42362142Y-72901428D02*
X42733571Y-72901428D01*
X42533571Y-73130000D01*
X42619285Y-73130000D01*
X42676428Y-73158571D01*
X42704999Y-73187142D01*
X42733571Y-73244285D01*
X42733571Y-73387142D01*
X42704999Y-73444285D01*
X42676428Y-73472857D01*
X42619285Y-73501428D01*
X42447856Y-73501428D01*
X42390713Y-73472857D01*
X42362142Y-73444285D01*
X42904999Y-72901428D02*
X43104999Y-73501428D01*
X43304999Y-72901428D01*
X43447856Y-72901428D02*
X43819285Y-72901428D01*
X43619285Y-73130000D01*
X43704999Y-73130000D01*
X43762142Y-73158571D01*
X43790713Y-73187142D01*
X43819285Y-73244285D01*
X43819285Y-73387142D01*
X43790713Y-73444285D01*
X43762142Y-73472857D01*
X43704999Y-73501428D01*
X43533571Y-73501428D01*
X43476428Y-73472857D01*
X43447856Y-73444285D01*
D12*
X58202380Y-74595238D02*
X58226190Y-74523809D01*
X58226190Y-74404761D01*
X58202380Y-74357142D01*
X58178571Y-74333333D01*
X58130952Y-74309523D01*
X58083333Y-74309523D01*
X58035714Y-74333333D01*
X58011904Y-74357142D01*
X57988095Y-74404761D01*
X57964285Y-74500000D01*
X57940476Y-74547619D01*
X57916666Y-74571428D01*
X57869047Y-74595238D01*
X57821428Y-74595238D01*
X57773809Y-74571428D01*
X57750000Y-74547619D01*
X57726190Y-74500000D01*
X57726190Y-74380952D01*
X57750000Y-74309523D01*
X58178571Y-73809523D02*
X58202380Y-73833333D01*
X58226190Y-73904761D01*
X58226190Y-73952380D01*
X58202380Y-74023809D01*
X58154761Y-74071428D01*
X58107142Y-74095238D01*
X58011904Y-74119047D01*
X57940476Y-74119047D01*
X57845238Y-74095238D01*
X57797619Y-74071428D01*
X57750000Y-74023809D01*
X57726190Y-73952380D01*
X57726190Y-73904761D01*
X57750000Y-73833333D01*
X57773809Y-73809523D01*
X58226190Y-73357142D02*
X58226190Y-73595238D01*
X57726190Y-73595238D01*
X58226190Y-73190476D02*
X57726190Y-73190476D01*
X58226190Y-72904761D02*
X57940476Y-73119047D01*
X57726190Y-72904761D02*
X58011904Y-73190476D01*
D14*
X83076190Y-42452380D02*
X83076190Y-43166666D01*
X83066666Y-43309523D01*
X83047619Y-43404761D01*
X83019047Y-43452380D01*
X83000000Y-43452380D01*
X83266666Y-43452380D02*
X83171428Y-43452380D01*
X83171428Y-42452380D01*
X83447619Y-43357142D02*
X83438095Y-43404761D01*
X83409523Y-43452380D01*
X83390476Y-43452380D01*
X83361904Y-43404761D01*
X83342857Y-43309523D01*
X83333333Y-43214285D01*
X83323809Y-43023809D01*
X83323809Y-42880952D01*
X83333333Y-42690476D01*
X83342857Y-42595238D01*
X83361904Y-42500000D01*
X83390476Y-42452380D01*
X83409523Y-42452380D01*
X83438095Y-42500000D01*
X83447619Y-42547619D01*
X83590476Y-42452380D02*
X83590476Y-43166666D01*
X83580952Y-43309523D01*
X83561904Y-43404761D01*
X83533333Y-43452380D01*
X83514285Y-43452380D01*
X83780952Y-43452380D02*
X83685714Y-43452380D01*
X83685714Y-42452380D01*
X83961904Y-43357142D02*
X83952380Y-43404761D01*
X83923809Y-43452380D01*
X83904761Y-43452380D01*
X83876190Y-43404761D01*
X83857142Y-43309523D01*
X83847619Y-43214285D01*
X83838095Y-43023809D01*
X83838095Y-42880952D01*
X83847619Y-42690476D01*
X83857142Y-42595238D01*
X83876190Y-42500000D01*
X83904761Y-42452380D01*
X83923809Y-42452380D01*
X83952380Y-42500000D01*
X83961904Y-42547619D01*
X84104761Y-42452380D02*
X84104761Y-43166666D01*
X84095238Y-43309523D01*
X84076190Y-43404761D01*
X84047619Y-43452380D01*
X84028571Y-43452380D01*
X84295238Y-43452380D02*
X84200000Y-43452380D01*
X84200000Y-42452380D01*
X84476190Y-43357142D02*
X84466666Y-43404761D01*
X84438095Y-43452380D01*
X84419047Y-43452380D01*
X84390476Y-43404761D01*
X84371428Y-43309523D01*
X84361904Y-43214285D01*
X84352380Y-43023809D01*
X84352380Y-42880952D01*
X84361904Y-42690476D01*
X84371428Y-42595238D01*
X84390476Y-42500000D01*
X84419047Y-42452380D01*
X84438095Y-42452380D01*
X84466666Y-42500000D01*
X84476190Y-42547619D01*
X84619047Y-42452380D02*
X84619047Y-43166666D01*
X84609523Y-43309523D01*
X84590476Y-43404761D01*
X84561904Y-43452380D01*
X84542857Y-43452380D01*
X84809523Y-43452380D02*
X84714285Y-43452380D01*
X84714285Y-42452380D01*
X84990476Y-43357142D02*
X84980952Y-43404761D01*
X84952380Y-43452380D01*
X84933333Y-43452380D01*
X84904761Y-43404761D01*
X84885714Y-43309523D01*
X84876190Y-43214285D01*
X84866666Y-43023809D01*
X84866666Y-42880952D01*
X84876190Y-42690476D01*
X84885714Y-42595238D01*
X84904761Y-42500000D01*
X84933333Y-42452380D01*
X84952380Y-42452380D01*
X84980952Y-42500000D01*
X84990476Y-42547619D01*
D12*
X73876190Y-76333333D02*
X73638095Y-76500000D01*
X73876190Y-76619047D02*
X73376190Y-76619047D01*
X73376190Y-76428571D01*
X73400000Y-76380952D01*
X73423809Y-76357142D01*
X73471428Y-76333333D01*
X73542857Y-76333333D01*
X73590476Y-76357142D01*
X73614285Y-76380952D01*
X73638095Y-76428571D01*
X73638095Y-76619047D01*
X73376190Y-76166666D02*
X73876190Y-75833333D01*
X73376190Y-75833333D02*
X73876190Y-76166666D01*
D11*
X62135714Y-74607142D02*
X61835714Y-74607142D01*
X62050000Y-74507142D01*
X61835714Y-74407142D01*
X62135714Y-74407142D01*
X62107142Y-74092857D02*
X62121428Y-74107142D01*
X62135714Y-74150000D01*
X62135714Y-74178571D01*
X62121428Y-74221428D01*
X62092857Y-74250000D01*
X62064285Y-74264285D01*
X62007142Y-74278571D01*
X61964285Y-74278571D01*
X61907142Y-74264285D01*
X61878571Y-74250000D01*
X61850000Y-74221428D01*
X61835714Y-74178571D01*
X61835714Y-74150000D01*
X61850000Y-74107142D01*
X61864285Y-74092857D01*
X62135714Y-73964285D02*
X61835714Y-73964285D01*
X61835714Y-73850000D01*
X61850000Y-73821428D01*
X61864285Y-73807142D01*
X61892857Y-73792857D01*
X61935714Y-73792857D01*
X61964285Y-73807142D01*
X61978571Y-73821428D01*
X61992857Y-73850000D01*
X61992857Y-73964285D01*
X62135714Y-73435714D02*
X61835714Y-73435714D01*
X62135714Y-73292857D02*
X61835714Y-73292857D01*
X62135714Y-73121428D01*
X61835714Y-73121428D01*
X61835714Y-73021428D02*
X61835714Y-72850000D01*
X62135714Y-72935714D02*
X61835714Y-72935714D01*
X61078571Y-76957142D02*
X61092857Y-76914285D01*
X61107142Y-76900000D01*
X61135714Y-76885714D01*
X61178571Y-76885714D01*
X61207142Y-76900000D01*
X61221428Y-76914285D01*
X61235714Y-76942857D01*
X61235714Y-77057142D01*
X60935714Y-77057142D01*
X60935714Y-76957142D01*
X60950000Y-76928571D01*
X60964285Y-76914285D01*
X60992857Y-76900000D01*
X61021428Y-76900000D01*
X61050000Y-76914285D01*
X61064285Y-76928571D01*
X61078571Y-76957142D01*
X61078571Y-77057142D01*
X60935714Y-76800000D02*
X60935714Y-76628571D01*
X61235714Y-76714285D02*
X60935714Y-76714285D01*
X61235714Y-76528571D02*
X60935714Y-76528571D01*
X61235714Y-76357142D01*
X60935714Y-76357142D01*
X61235714Y-75828571D02*
X61235714Y-76000000D01*
X61235714Y-75914285D02*
X60935714Y-75914285D01*
X60978571Y-75942857D01*
X61007142Y-75971428D01*
X61021428Y-76000000D01*
D13*
X48185714Y-75928571D02*
X48328571Y-75976190D01*
X48376190Y-76023809D01*
X48423809Y-76119047D01*
X48423809Y-76261904D01*
X48376190Y-76357142D01*
X48328571Y-76404761D01*
X48233333Y-76452380D01*
X47852380Y-76452380D01*
X47852380Y-75452380D01*
X48185714Y-75452380D01*
X48280952Y-75500000D01*
X48328571Y-75547619D01*
X48376190Y-75642857D01*
X48376190Y-75738095D01*
X48328571Y-75833333D01*
X48280952Y-75880952D01*
X48185714Y-75928571D01*
X47852380Y-75928571D01*
X49280952Y-75785714D02*
X49280952Y-76452380D01*
X48852380Y-75785714D02*
X48852380Y-76309523D01*
X48900000Y-76404761D01*
X48995238Y-76452380D01*
X49138095Y-76452380D01*
X49233333Y-76404761D01*
X49280952Y-76357142D01*
X49614285Y-75785714D02*
X49995238Y-75785714D01*
X49757142Y-75452380D02*
X49757142Y-76309523D01*
X49804761Y-76404761D01*
X49900000Y-76452380D01*
X49995238Y-76452380D01*
X50185714Y-75785714D02*
X50566666Y-75785714D01*
X50328571Y-75452380D02*
X50328571Y-76309523D01*
X50376190Y-76404761D01*
X50471428Y-76452380D01*
X50566666Y-76452380D01*
X51042857Y-76452380D02*
X50947619Y-76404761D01*
X50900000Y-76357142D01*
X50852380Y-76261904D01*
X50852380Y-75976190D01*
X50900000Y-75880952D01*
X50947619Y-75833333D01*
X51042857Y-75785714D01*
X51185714Y-75785714D01*
X51280952Y-75833333D01*
X51328571Y-75880952D01*
X51376190Y-75976190D01*
X51376190Y-76261904D01*
X51328571Y-76357142D01*
X51280952Y-76404761D01*
X51185714Y-76452380D01*
X51042857Y-76452380D01*
X51804761Y-75785714D02*
X51804761Y-76452380D01*
X51804761Y-75880952D02*
X51852380Y-75833333D01*
X51947619Y-75785714D01*
X52090476Y-75785714D01*
X52185714Y-75833333D01*
X52233333Y-75928571D01*
X52233333Y-76452380D01*
X53995238Y-76452380D02*
X53423809Y-76452380D01*
X53709523Y-76452380D02*
X53709523Y-75452380D01*
X53614285Y-75595238D01*
X53519047Y-75690476D01*
X53423809Y-75738095D01*
D11*
X61978571Y-76957142D02*
X61992857Y-76914285D01*
X62007142Y-76900000D01*
X62035714Y-76885714D01*
X62078571Y-76885714D01*
X62107142Y-76900000D01*
X62121428Y-76914285D01*
X62135714Y-76942857D01*
X62135714Y-77057142D01*
X61835714Y-77057142D01*
X61835714Y-76957142D01*
X61850000Y-76928571D01*
X61864285Y-76914285D01*
X61892857Y-76900000D01*
X61921428Y-76900000D01*
X61950000Y-76914285D01*
X61964285Y-76928571D01*
X61978571Y-76957142D01*
X61978571Y-77057142D01*
X61835714Y-76800000D02*
X61835714Y-76628571D01*
X62135714Y-76714285D02*
X61835714Y-76714285D01*
X62135714Y-76528571D02*
X61835714Y-76528571D01*
X62135714Y-76357142D01*
X61835714Y-76357142D01*
X61864285Y-76000000D02*
X61850000Y-75985714D01*
X61835714Y-75957142D01*
X61835714Y-75885714D01*
X61850000Y-75857142D01*
X61864285Y-75842857D01*
X61892857Y-75828571D01*
X61921428Y-75828571D01*
X61964285Y-75842857D01*
X62135714Y-76014285D01*
X62135714Y-75828571D01*
D12*
X59226190Y-74535714D02*
X58726190Y-74535714D01*
X59083333Y-74369047D01*
X58726190Y-74202380D01*
X59226190Y-74202380D01*
X58726190Y-73869047D02*
X58726190Y-73773809D01*
X58750000Y-73726190D01*
X58797619Y-73678571D01*
X58892857Y-73654761D01*
X59059523Y-73654761D01*
X59154761Y-73678571D01*
X59202380Y-73726190D01*
X59226190Y-73773809D01*
X59226190Y-73869047D01*
X59202380Y-73916666D01*
X59154761Y-73964285D01*
X59059523Y-73988095D01*
X58892857Y-73988095D01*
X58797619Y-73964285D01*
X58750000Y-73916666D01*
X58726190Y-73869047D01*
X59202380Y-73464285D02*
X59226190Y-73392857D01*
X59226190Y-73273809D01*
X59202380Y-73226190D01*
X59178571Y-73202380D01*
X59130952Y-73178571D01*
X59083333Y-73178571D01*
X59035714Y-73202380D01*
X59011904Y-73226190D01*
X58988095Y-73273809D01*
X58964285Y-73369047D01*
X58940476Y-73416666D01*
X58916666Y-73440476D01*
X58869047Y-73464285D01*
X58821428Y-73464285D01*
X58773809Y-73440476D01*
X58750000Y-73416666D01*
X58726190Y-73369047D01*
X58726190Y-73250000D01*
X58750000Y-73178571D01*
X59226190Y-72964285D02*
X58726190Y-72964285D01*
D13*
X48385714Y-81528571D02*
X48528571Y-81576190D01*
X48576190Y-81623809D01*
X48623809Y-81719047D01*
X48623809Y-81861904D01*
X48576190Y-81957142D01*
X48528571Y-82004761D01*
X48433333Y-82052380D01*
X48052380Y-82052380D01*
X48052380Y-81052380D01*
X48385714Y-81052380D01*
X48480952Y-81100000D01*
X48528571Y-81147619D01*
X48576190Y-81242857D01*
X48576190Y-81338095D01*
X48528571Y-81433333D01*
X48480952Y-81480952D01*
X48385714Y-81528571D01*
X48052380Y-81528571D01*
X49480952Y-81385714D02*
X49480952Y-82052380D01*
X49052380Y-81385714D02*
X49052380Y-81909523D01*
X49100000Y-82004761D01*
X49195238Y-82052380D01*
X49338095Y-82052380D01*
X49433333Y-82004761D01*
X49480952Y-81957142D01*
X49814285Y-81385714D02*
X50195238Y-81385714D01*
X49957142Y-81052380D02*
X49957142Y-81909523D01*
X50004761Y-82004761D01*
X50100000Y-82052380D01*
X50195238Y-82052380D01*
X50385714Y-81385714D02*
X50766666Y-81385714D01*
X50528571Y-81052380D02*
X50528571Y-81909523D01*
X50576190Y-82004761D01*
X50671428Y-82052380D01*
X50766666Y-82052380D01*
X51242857Y-82052380D02*
X51147619Y-82004761D01*
X51100000Y-81957142D01*
X51052380Y-81861904D01*
X51052380Y-81576190D01*
X51100000Y-81480952D01*
X51147619Y-81433333D01*
X51242857Y-81385714D01*
X51385714Y-81385714D01*
X51480952Y-81433333D01*
X51528571Y-81480952D01*
X51576190Y-81576190D01*
X51576190Y-81861904D01*
X51528571Y-81957142D01*
X51480952Y-82004761D01*
X51385714Y-82052380D01*
X51242857Y-82052380D01*
X52004761Y-81385714D02*
X52004761Y-82052380D01*
X52004761Y-81480952D02*
X52052380Y-81433333D01*
X52147619Y-81385714D01*
X52290476Y-81385714D01*
X52385714Y-81433333D01*
X52433333Y-81528571D01*
X52433333Y-82052380D01*
X53623809Y-81147619D02*
X53671428Y-81100000D01*
X53766666Y-81052380D01*
X54004761Y-81052380D01*
X54100000Y-81100000D01*
X54147619Y-81147619D01*
X54195238Y-81242857D01*
X54195238Y-81338095D01*
X54147619Y-81480952D01*
X53576190Y-82052380D01*
X54195238Y-82052380D01*
D12*
X87226190Y-91678571D02*
X87202380Y-91702380D01*
X87130952Y-91726190D01*
X87083333Y-91726190D01*
X87011904Y-91702380D01*
X86964285Y-91654761D01*
X86940476Y-91607142D01*
X86916666Y-91511904D01*
X86916666Y-91440476D01*
X86940476Y-91345238D01*
X86964285Y-91297619D01*
X87011904Y-91250000D01*
X87083333Y-91226190D01*
X87130952Y-91226190D01*
X87202380Y-91250000D01*
X87226190Y-91273809D01*
X87416666Y-91583333D02*
X87654761Y-91583333D01*
X87369047Y-91726190D02*
X87535714Y-91226190D01*
X87702380Y-91726190D01*
X87869047Y-91726190D02*
X87869047Y-91226190D01*
X88154761Y-91726190D01*
X88154761Y-91226190D01*
X89059523Y-91726190D02*
X88892857Y-91488095D01*
X88773809Y-91726190D02*
X88773809Y-91226190D01*
X88964285Y-91226190D01*
X89011904Y-91250000D01*
X89035714Y-91273809D01*
X89059523Y-91321428D01*
X89059523Y-91392857D01*
X89035714Y-91440476D01*
X89011904Y-91464285D01*
X88964285Y-91488095D01*
X88773809Y-91488095D01*
X89535714Y-91250000D02*
X89488095Y-91226190D01*
X89416666Y-91226190D01*
X89345238Y-91250000D01*
X89297619Y-91297619D01*
X89273809Y-91345238D01*
X89250000Y-91440476D01*
X89250000Y-91511904D01*
X89273809Y-91607142D01*
X89297619Y-91654761D01*
X89345238Y-91702380D01*
X89416666Y-91726190D01*
X89464285Y-91726190D01*
X89535714Y-91702380D01*
X89559523Y-91678571D01*
X89559523Y-91511904D01*
X89464285Y-91511904D01*
X89940476Y-91464285D02*
X90011904Y-91488095D01*
X90035714Y-91511904D01*
X90059523Y-91559523D01*
X90059523Y-91630952D01*
X90035714Y-91678571D01*
X90011904Y-91702380D01*
X89964285Y-91726190D01*
X89773809Y-91726190D01*
X89773809Y-91226190D01*
X89940476Y-91226190D01*
X89988095Y-91250000D01*
X90011904Y-91273809D01*
X90035714Y-91321428D01*
X90035714Y-91369047D01*
X90011904Y-91416666D01*
X89988095Y-91440476D01*
X89940476Y-91464285D01*
X89773809Y-91464285D01*
X90940476Y-91678571D02*
X90916666Y-91702380D01*
X90845238Y-91726190D01*
X90797619Y-91726190D01*
X90726190Y-91702380D01*
X90678571Y-91654761D01*
X90654761Y-91607142D01*
X90630952Y-91511904D01*
X90630952Y-91440476D01*
X90654761Y-91345238D01*
X90678571Y-91297619D01*
X90726190Y-91250000D01*
X90797619Y-91226190D01*
X90845238Y-91226190D01*
X90916666Y-91250000D01*
X90940476Y-91273809D01*
X91250000Y-91226190D02*
X91345238Y-91226190D01*
X91392857Y-91250000D01*
X91440476Y-91297619D01*
X91464285Y-91392857D01*
X91464285Y-91559523D01*
X91440476Y-91654761D01*
X91392857Y-91702380D01*
X91345238Y-91726190D01*
X91250000Y-91726190D01*
X91202380Y-91702380D01*
X91154761Y-91654761D01*
X91130952Y-91559523D01*
X91130952Y-91392857D01*
X91154761Y-91297619D01*
X91202380Y-91250000D01*
X91250000Y-91226190D01*
X91678571Y-91726190D02*
X91678571Y-91226190D01*
X91964285Y-91726190D01*
X91964285Y-91226190D01*
X92130952Y-91226190D02*
X92416666Y-91226190D01*
X92273809Y-91726190D02*
X92273809Y-91226190D01*
X92869047Y-91726190D02*
X92702380Y-91488095D01*
X92583333Y-91726190D02*
X92583333Y-91226190D01*
X92773809Y-91226190D01*
X92821428Y-91250000D01*
X92845238Y-91273809D01*
X92869047Y-91321428D01*
X92869047Y-91392857D01*
X92845238Y-91440476D01*
X92821428Y-91464285D01*
X92773809Y-91488095D01*
X92583333Y-91488095D01*
X93178571Y-91226190D02*
X93273809Y-91226190D01*
X93321428Y-91250000D01*
X93369047Y-91297619D01*
X93392857Y-91392857D01*
X93392857Y-91559523D01*
X93369047Y-91654761D01*
X93321428Y-91702380D01*
X93273809Y-91726190D01*
X93178571Y-91726190D01*
X93130952Y-91702380D01*
X93083333Y-91654761D01*
X93059523Y-91559523D01*
X93059523Y-91392857D01*
X93083333Y-91297619D01*
X93130952Y-91250000D01*
X93178571Y-91226190D01*
X93845238Y-91726190D02*
X93607142Y-91726190D01*
X93607142Y-91226190D01*
X94250000Y-91726190D02*
X94011904Y-91726190D01*
X94011904Y-91226190D01*
X94416666Y-91464285D02*
X94583333Y-91464285D01*
X94654761Y-91726190D02*
X94416666Y-91726190D01*
X94416666Y-91226190D01*
X94654761Y-91226190D01*
X95154761Y-91726190D02*
X94988095Y-91488095D01*
X94869047Y-91726190D02*
X94869047Y-91226190D01*
X95059523Y-91226190D01*
X95107142Y-91250000D01*
X95130952Y-91273809D01*
X95154761Y-91321428D01*
X95154761Y-91392857D01*
X95130952Y-91440476D01*
X95107142Y-91464285D01*
X95059523Y-91488095D01*
X94869047Y-91488095D01*
X95678571Y-91226190D02*
X95845238Y-91726190D01*
X96011904Y-91226190D01*
X96130952Y-91226190D02*
X96440476Y-91226190D01*
X96273809Y-91416666D01*
X96345238Y-91416666D01*
X96392857Y-91440476D01*
X96416666Y-91464285D01*
X96440476Y-91511904D01*
X96440476Y-91630952D01*
X96416666Y-91678571D01*
X96392857Y-91702380D01*
X96345238Y-91726190D01*
X96202380Y-91726190D01*
X96154761Y-91702380D01*
X96130952Y-91678571D01*
X97035714Y-91726190D02*
X97035714Y-91226190D01*
X97154761Y-91226190D01*
X97226190Y-91250000D01*
X97273809Y-91297619D01*
X97297619Y-91345238D01*
X97321428Y-91440476D01*
X97321428Y-91511904D01*
X97297619Y-91607142D01*
X97273809Y-91654761D01*
X97226190Y-91702380D01*
X97154761Y-91726190D01*
X97035714Y-91726190D01*
X97726190Y-91702380D02*
X97678571Y-91726190D01*
X97583333Y-91726190D01*
X97535714Y-91702380D01*
X97511904Y-91654761D01*
X97511904Y-91464285D01*
X97535714Y-91416666D01*
X97583333Y-91392857D01*
X97678571Y-91392857D01*
X97726190Y-91416666D01*
X97750000Y-91464285D01*
X97750000Y-91511904D01*
X97511904Y-91559523D01*
X97940476Y-91702380D02*
X97988095Y-91726190D01*
X98083333Y-91726190D01*
X98130952Y-91702380D01*
X98154761Y-91654761D01*
X98154761Y-91630952D01*
X98130952Y-91583333D01*
X98083333Y-91559523D01*
X98011904Y-91559523D01*
X97964285Y-91535714D01*
X97940476Y-91488095D01*
X97940476Y-91464285D01*
X97964285Y-91416666D01*
X98011904Y-91392857D01*
X98083333Y-91392857D01*
X98130952Y-91416666D01*
X98369047Y-91726190D02*
X98369047Y-91392857D01*
X98369047Y-91226190D02*
X98345238Y-91250000D01*
X98369047Y-91273809D01*
X98392857Y-91250000D01*
X98369047Y-91226190D01*
X98369047Y-91273809D01*
X98821428Y-91392857D02*
X98821428Y-91797619D01*
X98797619Y-91845238D01*
X98773809Y-91869047D01*
X98726190Y-91892857D01*
X98654761Y-91892857D01*
X98607142Y-91869047D01*
X98821428Y-91702380D02*
X98773809Y-91726190D01*
X98678571Y-91726190D01*
X98630952Y-91702380D01*
X98607142Y-91678571D01*
X98583333Y-91630952D01*
X98583333Y-91488095D01*
X98607142Y-91440476D01*
X98630952Y-91416666D01*
X98678571Y-91392857D01*
X98773809Y-91392857D01*
X98821428Y-91416666D01*
X99059523Y-91392857D02*
X99059523Y-91726190D01*
X99059523Y-91440476D02*
X99083333Y-91416666D01*
X99130952Y-91392857D01*
X99202380Y-91392857D01*
X99250000Y-91416666D01*
X99273809Y-91464285D01*
X99273809Y-91726190D01*
X99702380Y-91702380D02*
X99654761Y-91726190D01*
X99559523Y-91726190D01*
X99511904Y-91702380D01*
X99488095Y-91654761D01*
X99488095Y-91464285D01*
X99511904Y-91416666D01*
X99559523Y-91392857D01*
X99654761Y-91392857D01*
X99702380Y-91416666D01*
X99726190Y-91464285D01*
X99726190Y-91511904D01*
X99488095Y-91559523D01*
X100154761Y-91726190D02*
X100154761Y-91226190D01*
X100154761Y-91702380D02*
X100107142Y-91726190D01*
X100011904Y-91726190D01*
X99964285Y-91702380D01*
X99940476Y-91678571D01*
X99916666Y-91630952D01*
X99916666Y-91488095D01*
X99940476Y-91440476D01*
X99964285Y-91416666D01*
X100011904Y-91392857D01*
X100107142Y-91392857D01*
X100154761Y-91416666D01*
X100773809Y-91726190D02*
X100773809Y-91226190D01*
X100773809Y-91416666D02*
X100821428Y-91392857D01*
X100916666Y-91392857D01*
X100964285Y-91416666D01*
X100988095Y-91440476D01*
X101011904Y-91488095D01*
X101011904Y-91630952D01*
X100988095Y-91678571D01*
X100964285Y-91702380D01*
X100916666Y-91726190D01*
X100821428Y-91726190D01*
X100773809Y-91702380D01*
X101178571Y-91392857D02*
X101297619Y-91726190D01*
X101416666Y-91392857D02*
X101297619Y-91726190D01*
X101250000Y-91845238D01*
X101226190Y-91869047D01*
X101178571Y-91892857D01*
X102273809Y-91678571D02*
X102249999Y-91702380D01*
X102178571Y-91726190D01*
X102130952Y-91726190D01*
X102059523Y-91702380D01*
X102011904Y-91654761D01*
X101988095Y-91607142D01*
X101964285Y-91511904D01*
X101964285Y-91440476D01*
X101988095Y-91345238D01*
X102011904Y-91297619D01*
X102059523Y-91250000D01*
X102130952Y-91226190D01*
X102178571Y-91226190D01*
X102249999Y-91250000D01*
X102273809Y-91273809D01*
X102559523Y-91726190D02*
X102511904Y-91702380D01*
X102488095Y-91678571D01*
X102464285Y-91630952D01*
X102464285Y-91488095D01*
X102488095Y-91440476D01*
X102511904Y-91416666D01*
X102559523Y-91392857D01*
X102630952Y-91392857D01*
X102678571Y-91416666D01*
X102702380Y-91440476D01*
X102726190Y-91488095D01*
X102726190Y-91630952D01*
X102702380Y-91678571D01*
X102678571Y-91702380D01*
X102630952Y-91726190D01*
X102559523Y-91726190D01*
X102940476Y-91392857D02*
X102940476Y-91726190D01*
X102940476Y-91440476D02*
X102964285Y-91416666D01*
X103011904Y-91392857D01*
X103083333Y-91392857D01*
X103130952Y-91416666D01*
X103154761Y-91464285D01*
X103154761Y-91726190D01*
X103392857Y-91392857D02*
X103392857Y-91726190D01*
X103392857Y-91440476D02*
X103416666Y-91416666D01*
X103464285Y-91392857D01*
X103535714Y-91392857D01*
X103583333Y-91416666D01*
X103607142Y-91464285D01*
X103607142Y-91726190D01*
X103916666Y-91726190D02*
X103869047Y-91702380D01*
X103845238Y-91678571D01*
X103821428Y-91630952D01*
X103821428Y-91488095D01*
X103845238Y-91440476D01*
X103869047Y-91416666D01*
X103916666Y-91392857D01*
X103988095Y-91392857D01*
X104035714Y-91416666D01*
X104059523Y-91440476D01*
X104083333Y-91488095D01*
X104083333Y-91630952D01*
X104059523Y-91678571D01*
X104035714Y-91702380D01*
X103988095Y-91726190D01*
X103916666Y-91726190D01*
X104297619Y-91726190D02*
X104297619Y-91392857D01*
X104297619Y-91488095D02*
X104321428Y-91440476D01*
X104345238Y-91416666D01*
X104392857Y-91392857D01*
X104440476Y-91392857D01*
X105273809Y-91726190D02*
X105107142Y-91488095D01*
X104988095Y-91726190D02*
X104988095Y-91226190D01*
X105178571Y-91226190D01*
X105226190Y-91250000D01*
X105249999Y-91273809D01*
X105273809Y-91321428D01*
X105273809Y-91392857D01*
X105249999Y-91440476D01*
X105226190Y-91464285D01*
X105178571Y-91488095D01*
X104988095Y-91488095D01*
X105488095Y-91726190D02*
X105488095Y-91392857D01*
X105488095Y-91226190D02*
X105464285Y-91250000D01*
X105488095Y-91273809D01*
X105511904Y-91250000D01*
X105488095Y-91226190D01*
X105488095Y-91273809D01*
X105940476Y-91392857D02*
X105940476Y-91797619D01*
X105916666Y-91845238D01*
X105892857Y-91869047D01*
X105845238Y-91892857D01*
X105773809Y-91892857D01*
X105726190Y-91869047D01*
X105940476Y-91702380D02*
X105892857Y-91726190D01*
X105797619Y-91726190D01*
X105749999Y-91702380D01*
X105726190Y-91678571D01*
X105702380Y-91630952D01*
X105702380Y-91488095D01*
X105726190Y-91440476D01*
X105749999Y-91416666D01*
X105797619Y-91392857D01*
X105892857Y-91392857D01*
X105940476Y-91416666D01*
X106178571Y-91726190D02*
X106178571Y-91226190D01*
X106178571Y-91416666D02*
X106226190Y-91392857D01*
X106321428Y-91392857D01*
X106369047Y-91416666D01*
X106392857Y-91440476D01*
X106416666Y-91488095D01*
X106416666Y-91630952D01*
X106392857Y-91678571D01*
X106369047Y-91702380D01*
X106321428Y-91726190D01*
X106226190Y-91726190D01*
X106178571Y-91702380D01*
X106583333Y-91392857D02*
X106702380Y-91726190D01*
X106821428Y-91392857D02*
X106702380Y-91726190D01*
X106654761Y-91845238D01*
X106630952Y-91869047D01*
X106583333Y-91892857D01*
X107369047Y-91273809D02*
X107392857Y-91250000D01*
X107440476Y-91226190D01*
X107559523Y-91226190D01*
X107607142Y-91250000D01*
X107630952Y-91273809D01*
X107654761Y-91321428D01*
X107654761Y-91369047D01*
X107630952Y-91440476D01*
X107345238Y-91726190D01*
X107654761Y-91726190D01*
X107964285Y-91226190D02*
X108011904Y-91226190D01*
X108059523Y-91250000D01*
X108083333Y-91273809D01*
X108107142Y-91321428D01*
X108130952Y-91416666D01*
X108130952Y-91535714D01*
X108107142Y-91630952D01*
X108083333Y-91678571D01*
X108059523Y-91702380D01*
X108011904Y-91726190D01*
X107964285Y-91726190D01*
X107916666Y-91702380D01*
X107892857Y-91678571D01*
X107869047Y-91630952D01*
X107845238Y-91535714D01*
X107845238Y-91416666D01*
X107869047Y-91321428D01*
X107892857Y-91273809D01*
X107916666Y-91250000D01*
X107964285Y-91226190D01*
X108321428Y-91273809D02*
X108345238Y-91250000D01*
X108392857Y-91226190D01*
X108511904Y-91226190D01*
X108559523Y-91250000D01*
X108583333Y-91273809D01*
X108607142Y-91321428D01*
X108607142Y-91369047D01*
X108583333Y-91440476D01*
X108297619Y-91726190D01*
X108607142Y-91726190D01*
X108797619Y-91273809D02*
X108821428Y-91250000D01*
X108869047Y-91226190D01*
X108988095Y-91226190D01*
X109035714Y-91250000D01*
X109059523Y-91273809D01*
X109083333Y-91321428D01*
X109083333Y-91369047D01*
X109059523Y-91440476D01*
X108773809Y-91726190D01*
X109083333Y-91726190D01*
D13*
X81042857Y-60300000D02*
X80985714Y-60271428D01*
X80900000Y-60271428D01*
X80814285Y-60300000D01*
X80757142Y-60357142D01*
X80728571Y-60414285D01*
X80700000Y-60528571D01*
X80700000Y-60614285D01*
X80728571Y-60728571D01*
X80757142Y-60785714D01*
X80814285Y-60842857D01*
X80900000Y-60871428D01*
X80957142Y-60871428D01*
X81042857Y-60842857D01*
X81071428Y-60814285D01*
X81071428Y-60614285D01*
X80957142Y-60614285D01*
X81328571Y-60871428D02*
X81328571Y-60271428D01*
X81671428Y-60871428D01*
X81671428Y-60271428D01*
X81957142Y-60871428D02*
X81957142Y-60271428D01*
X82100000Y-60271428D01*
X82185714Y-60300000D01*
X82242857Y-60357142D01*
X82271428Y-60414285D01*
X82300000Y-60528571D01*
X82300000Y-60614285D01*
X82271428Y-60728571D01*
X82242857Y-60785714D01*
X82185714Y-60842857D01*
X82100000Y-60871428D01*
X81957142Y-60871428D01*
D12*
X59626190Y-76735714D02*
X59626190Y-77021428D01*
X59626190Y-76878571D02*
X59126190Y-76878571D01*
X59197619Y-76926190D01*
X59245238Y-76973809D01*
X59269047Y-77021428D01*
X59173809Y-76545238D02*
X59150000Y-76521428D01*
X59126190Y-76473809D01*
X59126190Y-76354761D01*
X59150000Y-76307142D01*
X59173809Y-76283333D01*
X59221428Y-76259523D01*
X59269047Y-76259523D01*
X59340476Y-76283333D01*
X59626190Y-76569047D01*
X59626190Y-76259523D01*
X59292857Y-76092857D02*
X59626190Y-75973809D01*
X59292857Y-75854761D01*
D11*
X58135714Y-77321428D02*
X57992857Y-77421428D01*
X58135714Y-77492857D02*
X57835714Y-77492857D01*
X57835714Y-77378571D01*
X57850000Y-77350000D01*
X57864285Y-77335714D01*
X57892857Y-77321428D01*
X57935714Y-77321428D01*
X57964285Y-77335714D01*
X57978571Y-77350000D01*
X57992857Y-77378571D01*
X57992857Y-77492857D01*
X58050000Y-77207142D02*
X58050000Y-77064285D01*
X58135714Y-77235714D02*
X57835714Y-77135714D01*
X58135714Y-77035714D01*
X58135714Y-76935714D02*
X57835714Y-76935714D01*
X57835714Y-76864285D01*
X57850000Y-76821428D01*
X57878571Y-76792857D01*
X57907142Y-76778571D01*
X57964285Y-76764285D01*
X58007142Y-76764285D01*
X58064285Y-76778571D01*
X58092857Y-76792857D01*
X58121428Y-76821428D01*
X58135714Y-76864285D01*
X58135714Y-76935714D01*
X58135714Y-76635714D02*
X57835714Y-76635714D01*
X57835714Y-76435714D02*
X57835714Y-76378571D01*
X57850000Y-76350000D01*
X57878571Y-76321428D01*
X57935714Y-76307142D01*
X58035714Y-76307142D01*
X58092857Y-76321428D01*
X58121428Y-76350000D01*
X58135714Y-76378571D01*
X58135714Y-76435714D01*
X58121428Y-76464285D01*
X58092857Y-76492857D01*
X58035714Y-76507142D01*
X57935714Y-76507142D01*
X57878571Y-76492857D01*
X57850000Y-76464285D01*
X57835714Y-76435714D01*
X58135714Y-75950000D02*
X57835714Y-75950000D01*
X58135714Y-75807142D02*
X57835714Y-75807142D01*
X58135714Y-75635714D01*
X57835714Y-75635714D01*
X57835714Y-75535714D02*
X57835714Y-75364285D01*
X58135714Y-75450000D02*
X57835714Y-75450000D01*
D12*
X67169046Y-77800000D02*
X67121427Y-77776190D01*
X67049999Y-77776190D01*
X66978570Y-77800000D01*
X66930951Y-77847619D01*
X66907141Y-77895238D01*
X66883332Y-77990476D01*
X66883332Y-78061904D01*
X66907141Y-78157142D01*
X66930951Y-78204761D01*
X66978570Y-78252380D01*
X67049999Y-78276190D01*
X67097618Y-78276190D01*
X67169046Y-78252380D01*
X67192856Y-78228571D01*
X67192856Y-78061904D01*
X67097618Y-78061904D01*
X67407141Y-78276190D02*
X67407141Y-77776190D01*
X67692856Y-78276190D01*
X67692856Y-77776190D01*
X67930951Y-78276190D02*
X67930951Y-77776190D01*
X68049999Y-77776190D01*
X68121427Y-77800000D01*
X68169046Y-77847619D01*
X68192856Y-77895238D01*
X68216665Y-77990476D01*
X68216665Y-78061904D01*
X68192856Y-78157142D01*
X68169046Y-78204761D01*
X68121427Y-78252380D01*
X68049999Y-78276190D01*
X67930951Y-78276190D01*
D11*
X57135714Y-74671428D02*
X56992857Y-74771428D01*
X57135714Y-74842857D02*
X56835714Y-74842857D01*
X56835714Y-74728571D01*
X56850000Y-74700000D01*
X56864285Y-74685714D01*
X56892857Y-74671428D01*
X56935714Y-74671428D01*
X56964285Y-74685714D01*
X56978571Y-74700000D01*
X56992857Y-74728571D01*
X56992857Y-74842857D01*
X57050000Y-74557142D02*
X57050000Y-74414285D01*
X57135714Y-74585714D02*
X56835714Y-74485714D01*
X57135714Y-74385714D01*
X57135714Y-74285714D02*
X56835714Y-74285714D01*
X56835714Y-74214285D01*
X56850000Y-74171428D01*
X56878571Y-74142857D01*
X56907142Y-74128571D01*
X56964285Y-74114285D01*
X57007142Y-74114285D01*
X57064285Y-74128571D01*
X57092857Y-74142857D01*
X57121428Y-74171428D01*
X57135714Y-74214285D01*
X57135714Y-74285714D01*
X57135714Y-73985714D02*
X56835714Y-73985714D01*
X56835714Y-73785714D02*
X56835714Y-73728571D01*
X56850000Y-73700000D01*
X56878571Y-73671428D01*
X56935714Y-73657142D01*
X57035714Y-73657142D01*
X57092857Y-73671428D01*
X57121428Y-73700000D01*
X57135714Y-73728571D01*
X57135714Y-73785714D01*
X57121428Y-73814285D01*
X57092857Y-73842857D01*
X57035714Y-73857142D01*
X56935714Y-73857142D01*
X56878571Y-73842857D01*
X56850000Y-73814285D01*
X56835714Y-73785714D01*
X57107142Y-73128571D02*
X57121428Y-73142857D01*
X57135714Y-73185714D01*
X57135714Y-73214285D01*
X57121428Y-73257142D01*
X57092857Y-73285714D01*
X57064285Y-73300000D01*
X57007142Y-73314285D01*
X56964285Y-73314285D01*
X56907142Y-73300000D01*
X56878571Y-73285714D01*
X56850000Y-73257142D01*
X56835714Y-73214285D01*
X56835714Y-73185714D01*
X56850000Y-73142857D01*
X56864285Y-73128571D01*
X57121428Y-73014285D02*
X57135714Y-72971428D01*
X57135714Y-72900000D01*
X57121428Y-72871428D01*
X57107142Y-72857142D01*
X57078571Y-72842857D01*
X57050000Y-72842857D01*
X57021428Y-72857142D01*
X57007142Y-72871428D01*
X56992857Y-72900000D01*
X56978571Y-72957142D01*
X56964285Y-72985714D01*
X56950000Y-73000000D01*
X56921428Y-73014285D01*
X56892857Y-73014285D01*
X56864285Y-73000000D01*
X56850000Y-72985714D01*
X56835714Y-72957142D01*
X56835714Y-72885714D01*
X56850000Y-72842857D01*
D12*
X82080000Y-81546190D02*
X81841904Y-81546190D01*
X81841904Y-81046190D01*
X82246666Y-81284285D02*
X82413333Y-81284285D01*
X82484761Y-81546190D02*
X82246666Y-81546190D01*
X82246666Y-81046190D01*
X82484761Y-81046190D01*
X82699047Y-81546190D02*
X82699047Y-81046190D01*
X82818095Y-81046190D01*
X82889523Y-81070000D01*
X82937142Y-81117619D01*
X82960952Y-81165238D01*
X82984761Y-81260476D01*
X82984761Y-81331904D01*
X82960952Y-81427142D01*
X82937142Y-81474761D01*
X82889523Y-81522380D01*
X82818095Y-81546190D01*
X82699047Y-81546190D01*
X83841904Y-81546190D02*
X83556190Y-81546190D01*
X83699047Y-81546190D02*
X83699047Y-81046190D01*
X83651428Y-81117619D01*
X83603809Y-81165238D01*
X83556190Y-81189047D01*
D13*
X34314285Y-55471428D02*
X35076190Y-55471428D01*
X34695238Y-55852380D02*
X34695238Y-55090476D01*
X36028571Y-54852380D02*
X35552380Y-54852380D01*
X35504761Y-55328571D01*
X35552380Y-55280952D01*
X35647619Y-55233333D01*
X35885714Y-55233333D01*
X35980952Y-55280952D01*
X36028571Y-55328571D01*
X36076190Y-55423809D01*
X36076190Y-55661904D01*
X36028571Y-55757142D01*
X35980952Y-55804761D01*
X35885714Y-55852380D01*
X35647619Y-55852380D01*
X35552380Y-55804761D01*
X35504761Y-55757142D01*
X36361904Y-54852380D02*
X36695238Y-55852380D01*
X37028571Y-54852380D01*
D12*
X72376190Y-76630952D02*
X72376190Y-76345238D01*
X72876190Y-76488095D02*
X72376190Y-76488095D01*
X72376190Y-76226190D02*
X72876190Y-75892857D01*
X72376190Y-75892857D02*
X72876190Y-76226190D01*
D13*
X74441666Y-46717380D02*
X74775000Y-47717380D01*
X75108333Y-46717380D01*
X75441666Y-47717380D02*
X75441666Y-46717380D01*
X75679761Y-46717380D01*
X75822619Y-46765000D01*
X75917857Y-46860238D01*
X75965476Y-46955476D01*
X76013095Y-47145952D01*
X76013095Y-47288809D01*
X75965476Y-47479285D01*
X75917857Y-47574523D01*
X75822619Y-47669761D01*
X75679761Y-47717380D01*
X75441666Y-47717380D01*
X76441666Y-47717380D02*
X76441666Y-46717380D01*
X76679761Y-46717380D01*
X76822619Y-46765000D01*
X76917857Y-46860238D01*
X76965476Y-46955476D01*
X77013095Y-47145952D01*
X77013095Y-47288809D01*
X76965476Y-47479285D01*
X76917857Y-47574523D01*
X76822619Y-47669761D01*
X76679761Y-47717380D01*
X76441666Y-47717380D01*
X74132142Y-48327380D02*
X74465476Y-49327380D01*
X74798809Y-48327380D01*
X75465476Y-48803571D02*
X75608333Y-48851190D01*
X75655952Y-48898809D01*
X75703571Y-48994047D01*
X75703571Y-49136904D01*
X75655952Y-49232142D01*
X75608333Y-49279761D01*
X75513095Y-49327380D01*
X75132142Y-49327380D01*
X75132142Y-48327380D01*
X75465476Y-48327380D01*
X75560714Y-48375000D01*
X75608333Y-48422619D01*
X75655952Y-48517857D01*
X75655952Y-48613095D01*
X75608333Y-48708333D01*
X75560714Y-48755952D01*
X75465476Y-48803571D01*
X75132142Y-48803571D01*
X76084523Y-49041666D02*
X76560714Y-49041666D01*
X75989285Y-49327380D02*
X76322619Y-48327380D01*
X76655952Y-49327380D01*
X76846428Y-48327380D02*
X77417857Y-48327380D01*
X77132142Y-49327380D02*
X77132142Y-48327380D01*
X74441666Y-49937380D02*
X74775000Y-50937380D01*
X75108333Y-49937380D01*
X76013095Y-50842142D02*
X75965476Y-50889761D01*
X75822619Y-50937380D01*
X75727380Y-50937380D01*
X75584523Y-50889761D01*
X75489285Y-50794523D01*
X75441666Y-50699285D01*
X75394047Y-50508809D01*
X75394047Y-50365952D01*
X75441666Y-50175476D01*
X75489285Y-50080238D01*
X75584523Y-49985000D01*
X75727380Y-49937380D01*
X75822619Y-49937380D01*
X75965476Y-49985000D01*
X76013095Y-50032619D01*
X77013095Y-50842142D02*
X76965476Y-50889761D01*
X76822619Y-50937380D01*
X76727380Y-50937380D01*
X76584523Y-50889761D01*
X76489285Y-50794523D01*
X76441666Y-50699285D01*
X76394047Y-50508809D01*
X76394047Y-50365952D01*
X76441666Y-50175476D01*
X76489285Y-50080238D01*
X76584523Y-49985000D01*
X76727380Y-49937380D01*
X76822619Y-49937380D01*
X76965476Y-49985000D01*
X77013095Y-50032619D01*
D12*
X71852380Y-74357142D02*
X71876190Y-74285714D01*
X71876190Y-74166666D01*
X71852380Y-74119047D01*
X71828571Y-74095238D01*
X71780952Y-74071428D01*
X71733333Y-74071428D01*
X71685714Y-74095238D01*
X71661904Y-74119047D01*
X71638095Y-74166666D01*
X71614285Y-74261904D01*
X71590476Y-74309523D01*
X71566666Y-74333333D01*
X71519047Y-74357142D01*
X71471428Y-74357142D01*
X71423809Y-74333333D01*
X71400000Y-74309523D01*
X71376190Y-74261904D01*
X71376190Y-74142857D01*
X71400000Y-74071428D01*
X71876190Y-73857142D02*
X71376190Y-73857142D01*
X71376190Y-73738095D01*
X71400000Y-73666666D01*
X71447619Y-73619047D01*
X71495238Y-73595238D01*
X71590476Y-73571428D01*
X71661904Y-73571428D01*
X71757142Y-73595238D01*
X71804761Y-73619047D01*
X71852380Y-73666666D01*
X71876190Y-73738095D01*
X71876190Y-73857142D01*
X71733333Y-73380952D02*
X71733333Y-73142857D01*
X71876190Y-73428571D02*
X71376190Y-73261904D01*
X71876190Y-73095238D01*
D11*
X56978571Y-77257142D02*
X56978571Y-77157142D01*
X57135714Y-77114285D02*
X57135714Y-77257142D01*
X56835714Y-77257142D01*
X56835714Y-77114285D01*
X56835714Y-77014285D02*
X57135714Y-76814285D01*
X56835714Y-76814285D02*
X57135714Y-77014285D01*
X56835714Y-76742857D02*
X56835714Y-76571428D01*
X57135714Y-76657142D02*
X56835714Y-76657142D01*
X57135714Y-76242857D02*
X56835714Y-76242857D01*
X56835714Y-76042857D02*
X56835714Y-75985714D01*
X56850000Y-75957142D01*
X56878571Y-75928571D01*
X56935714Y-75914285D01*
X57035714Y-75914285D01*
X57092857Y-75928571D01*
X57121428Y-75957142D01*
X57135714Y-75985714D01*
X57135714Y-76042857D01*
X57121428Y-76071428D01*
X57092857Y-76100000D01*
X57035714Y-76114285D01*
X56935714Y-76114285D01*
X56878571Y-76100000D01*
X56850000Y-76071428D01*
X56835714Y-76042857D01*
X56935714Y-75657142D02*
X57135714Y-75657142D01*
X56821428Y-75728571D02*
X57035714Y-75800000D01*
X57035714Y-75614285D01*
X70792857Y-77250000D02*
X70811904Y-77269047D01*
X70830952Y-77326190D01*
X70830952Y-77364285D01*
X70811904Y-77421428D01*
X70773809Y-77459523D01*
X70735714Y-77478571D01*
X70659523Y-77497619D01*
X70602380Y-77497619D01*
X70526190Y-77478571D01*
X70488095Y-77459523D01*
X70450000Y-77421428D01*
X70430952Y-77364285D01*
X70430952Y-77326190D01*
X70450000Y-77269047D01*
X70469047Y-77250000D01*
X70716666Y-77097619D02*
X70716666Y-76907142D01*
X70830952Y-77135714D02*
X70430952Y-77002380D01*
X70830952Y-76869047D01*
X70830952Y-76735714D02*
X70430952Y-76735714D01*
X70830952Y-76507142D01*
X70430952Y-76507142D01*
X70830952Y-75783333D02*
X70640476Y-75916666D01*
X70830952Y-76011904D02*
X70430952Y-76011904D01*
X70430952Y-75859523D01*
X70450000Y-75821428D01*
X70469047Y-75802380D01*
X70507142Y-75783333D01*
X70564285Y-75783333D01*
X70602380Y-75802380D01*
X70621428Y-75821428D01*
X70640476Y-75859523D01*
X70640476Y-76011904D01*
X70430952Y-75650000D02*
X70830952Y-75383333D01*
X70430952Y-75383333D02*
X70830952Y-75650000D01*
D12*
X82090000Y-80156190D02*
X81851904Y-80156190D01*
X81851904Y-79656190D01*
X82256666Y-79894285D02*
X82423333Y-79894285D01*
X82494761Y-80156190D02*
X82256666Y-80156190D01*
X82256666Y-79656190D01*
X82494761Y-79656190D01*
X82709047Y-80156190D02*
X82709047Y-79656190D01*
X82828095Y-79656190D01*
X82899523Y-79680000D01*
X82947142Y-79727619D01*
X82970952Y-79775238D01*
X82994761Y-79870476D01*
X82994761Y-79941904D01*
X82970952Y-80037142D01*
X82947142Y-80084761D01*
X82899523Y-80132380D01*
X82828095Y-80156190D01*
X82709047Y-80156190D01*
X83542380Y-79656190D02*
X83851904Y-79656190D01*
X83685238Y-79846666D01*
X83756666Y-79846666D01*
X83804285Y-79870476D01*
X83828095Y-79894285D01*
X83851904Y-79941904D01*
X83851904Y-80060952D01*
X83828095Y-80108571D01*
X83804285Y-80132380D01*
X83756666Y-80156190D01*
X83613809Y-80156190D01*
X83566190Y-80132380D01*
X83542380Y-80108571D01*
X72876190Y-74500000D02*
X72876190Y-74738095D01*
X72376190Y-74738095D01*
X72614285Y-74333333D02*
X72614285Y-74166666D01*
X72876190Y-74095238D02*
X72876190Y-74333333D01*
X72376190Y-74333333D01*
X72376190Y-74095238D01*
X72876190Y-73880952D02*
X72376190Y-73880952D01*
X72376190Y-73761904D01*
X72400000Y-73690476D01*
X72447619Y-73642857D01*
X72495238Y-73619047D01*
X72590476Y-73595238D01*
X72661904Y-73595238D01*
X72757142Y-73619047D01*
X72804761Y-73642857D01*
X72852380Y-73690476D01*
X72876190Y-73761904D01*
X72876190Y-73880952D01*
X72376190Y-73047619D02*
X72376190Y-72738095D01*
X72566666Y-72904761D01*
X72566666Y-72833333D01*
X72590476Y-72785714D01*
X72614285Y-72761904D01*
X72661904Y-72738095D01*
X72780952Y-72738095D01*
X72828571Y-72761904D01*
X72852380Y-72785714D01*
X72876190Y-72833333D01*
X72876190Y-72976190D01*
X72852380Y-73023809D01*
X72828571Y-73047619D01*
X74876190Y-76621428D02*
X74876190Y-76859523D01*
X75114285Y-76883333D01*
X75090476Y-76859523D01*
X75066666Y-76811904D01*
X75066666Y-76692857D01*
X75090476Y-76645238D01*
X75114285Y-76621428D01*
X75161904Y-76597619D01*
X75280952Y-76597619D01*
X75328571Y-76621428D01*
X75352380Y-76645238D01*
X75376190Y-76692857D01*
X75376190Y-76811904D01*
X75352380Y-76859523D01*
X75328571Y-76883333D01*
X75042857Y-76430952D02*
X75376190Y-76311904D01*
X75042857Y-76192857D01*
D13*
X83854761Y-59546428D02*
X84350000Y-59546428D01*
X84102380Y-59794047D02*
X84102380Y-59298809D01*
X85000000Y-59794047D02*
X84628571Y-59794047D01*
X84814285Y-59794047D02*
X84814285Y-59144047D01*
X84752380Y-59236904D01*
X84690476Y-59298809D01*
X84628571Y-59329761D01*
X85185714Y-59144047D02*
X85402380Y-59794047D01*
X85619047Y-59144047D01*
X85928571Y-59422619D02*
X85866666Y-59391666D01*
X85835714Y-59360714D01*
X85804761Y-59298809D01*
X85804761Y-59267857D01*
X85835714Y-59205952D01*
X85866666Y-59175000D01*
X85928571Y-59144047D01*
X86052380Y-59144047D01*
X86114285Y-59175000D01*
X86145238Y-59205952D01*
X86176190Y-59267857D01*
X86176190Y-59298809D01*
X86145238Y-59360714D01*
X86114285Y-59391666D01*
X86052380Y-59422619D01*
X85928571Y-59422619D01*
X85866666Y-59453571D01*
X85835714Y-59484523D01*
X85804761Y-59546428D01*
X85804761Y-59670238D01*
X85835714Y-59732142D01*
X85866666Y-59763095D01*
X85928571Y-59794047D01*
X86052380Y-59794047D01*
X86114285Y-59763095D01*
X86145238Y-59732142D01*
X86176190Y-59670238D01*
X86176190Y-59546428D01*
X86145238Y-59484523D01*
X86114285Y-59453571D01*
X86052380Y-59422619D01*
D12*
X73876190Y-74500000D02*
X73876190Y-74738095D01*
X73376190Y-74738095D01*
X73614285Y-74333333D02*
X73614285Y-74166666D01*
X73876190Y-74095238D02*
X73876190Y-74333333D01*
X73376190Y-74333333D01*
X73376190Y-74095238D01*
X73876190Y-73880952D02*
X73376190Y-73880952D01*
X73376190Y-73761904D01*
X73400000Y-73690476D01*
X73447619Y-73642857D01*
X73495238Y-73619047D01*
X73590476Y-73595238D01*
X73661904Y-73595238D01*
X73757142Y-73619047D01*
X73804761Y-73642857D01*
X73852380Y-73690476D01*
X73876190Y-73761904D01*
X73876190Y-73880952D01*
X73423809Y-73023809D02*
X73400000Y-73000000D01*
X73376190Y-72952380D01*
X73376190Y-72833333D01*
X73400000Y-72785714D01*
X73423809Y-72761904D01*
X73471428Y-72738095D01*
X73519047Y-72738095D01*
X73590476Y-72761904D01*
X73876190Y-73047619D01*
X73876190Y-72738095D01*
X82090000Y-80866190D02*
X81851904Y-80866190D01*
X81851904Y-80366190D01*
X82256666Y-80604285D02*
X82423333Y-80604285D01*
X82494761Y-80866190D02*
X82256666Y-80866190D01*
X82256666Y-80366190D01*
X82494761Y-80366190D01*
X82709047Y-80866190D02*
X82709047Y-80366190D01*
X82828095Y-80366190D01*
X82899523Y-80390000D01*
X82947142Y-80437619D01*
X82970952Y-80485238D01*
X82994761Y-80580476D01*
X82994761Y-80651904D01*
X82970952Y-80747142D01*
X82947142Y-80794761D01*
X82899523Y-80842380D01*
X82828095Y-80866190D01*
X82709047Y-80866190D01*
X83566190Y-80413809D02*
X83590000Y-80390000D01*
X83637619Y-80366190D01*
X83756666Y-80366190D01*
X83804285Y-80390000D01*
X83828095Y-80413809D01*
X83851904Y-80461428D01*
X83851904Y-80509047D01*
X83828095Y-80580476D01*
X83542380Y-80866190D01*
X83851904Y-80866190D01*
X70852380Y-74345238D02*
X70876190Y-74273809D01*
X70876190Y-74154761D01*
X70852380Y-74107142D01*
X70828571Y-74083333D01*
X70780952Y-74059523D01*
X70733333Y-74059523D01*
X70685714Y-74083333D01*
X70661904Y-74107142D01*
X70638095Y-74154761D01*
X70614285Y-74250000D01*
X70590476Y-74297619D01*
X70566666Y-74321428D01*
X70519047Y-74345238D01*
X70471428Y-74345238D01*
X70423809Y-74321428D01*
X70400000Y-74297619D01*
X70376190Y-74250000D01*
X70376190Y-74130952D01*
X70400000Y-74059523D01*
X70828571Y-73559523D02*
X70852380Y-73583333D01*
X70876190Y-73654761D01*
X70876190Y-73702380D01*
X70852380Y-73773809D01*
X70804761Y-73821428D01*
X70757142Y-73845238D01*
X70661904Y-73869047D01*
X70590476Y-73869047D01*
X70495238Y-73845238D01*
X70447619Y-73821428D01*
X70400000Y-73773809D01*
X70376190Y-73702380D01*
X70376190Y-73654761D01*
X70400000Y-73583333D01*
X70423809Y-73559523D01*
X70876190Y-73107142D02*
X70876190Y-73345238D01*
X70376190Y-73345238D01*
D11*
X55978571Y-77257142D02*
X55978571Y-77157142D01*
X56135714Y-77114285D02*
X56135714Y-77257142D01*
X55835714Y-77257142D01*
X55835714Y-77114285D01*
X55835714Y-77014285D02*
X56135714Y-76814285D01*
X55835714Y-76814285D02*
X56135714Y-77014285D01*
X55835714Y-76742857D02*
X55835714Y-76571428D01*
X56135714Y-76657142D02*
X55835714Y-76657142D01*
X56135714Y-76242857D02*
X55835714Y-76242857D01*
X55835714Y-76042857D02*
X55835714Y-75985714D01*
X55850000Y-75957142D01*
X55878571Y-75928571D01*
X55935714Y-75914285D01*
X56035714Y-75914285D01*
X56092857Y-75928571D01*
X56121428Y-75957142D01*
X56135714Y-75985714D01*
X56135714Y-76042857D01*
X56121428Y-76071428D01*
X56092857Y-76100000D01*
X56035714Y-76114285D01*
X55935714Y-76114285D01*
X55878571Y-76100000D01*
X55850000Y-76071428D01*
X55835714Y-76042857D01*
X55835714Y-75814285D02*
X55835714Y-75628571D01*
X55950000Y-75728571D01*
X55950000Y-75685714D01*
X55964285Y-75657142D01*
X55978571Y-75642857D01*
X56007142Y-75628571D01*
X56078571Y-75628571D01*
X56107142Y-75642857D01*
X56121428Y-75657142D01*
X56135714Y-75685714D01*
X56135714Y-75771428D01*
X56121428Y-75800000D01*
X56107142Y-75814285D01*
D13*
X38238095Y-54900000D02*
X38142857Y-54852380D01*
X38000000Y-54852380D01*
X37857142Y-54900000D01*
X37761904Y-54995238D01*
X37714285Y-55090476D01*
X37666666Y-55280952D01*
X37666666Y-55423809D01*
X37714285Y-55614285D01*
X37761904Y-55709523D01*
X37857142Y-55804761D01*
X38000000Y-55852380D01*
X38095238Y-55852380D01*
X38238095Y-55804761D01*
X38285714Y-55757142D01*
X38285714Y-55423809D01*
X38095238Y-55423809D01*
X38714285Y-55852380D02*
X38714285Y-54852380D01*
X39285714Y-55852380D01*
X39285714Y-54852380D01*
X39761904Y-55852380D02*
X39761904Y-54852380D01*
X40000000Y-54852380D01*
X40142857Y-54900000D01*
X40238095Y-54995238D01*
X40285714Y-55090476D01*
X40333333Y-55280952D01*
X40333333Y-55423809D01*
X40285714Y-55614285D01*
X40238095Y-55709523D01*
X40142857Y-55804761D01*
X40000000Y-55852380D01*
X39761904Y-55852380D01*
D12*
X75376190Y-74345238D02*
X75376190Y-74035714D01*
X75566666Y-74202380D01*
X75566666Y-74130952D01*
X75590476Y-74083333D01*
X75614285Y-74059523D01*
X75661904Y-74035714D01*
X75780952Y-74035714D01*
X75828571Y-74059523D01*
X75852380Y-74083333D01*
X75876190Y-74130952D01*
X75876190Y-74273809D01*
X75852380Y-74321428D01*
X75828571Y-74345238D01*
X75542857Y-73869047D02*
X75876190Y-73750000D01*
X75542857Y-73630952D01*
X75376190Y-73488095D02*
X75376190Y-73178571D01*
X75566666Y-73345238D01*
X75566666Y-73273809D01*
X75590476Y-73226190D01*
X75614285Y-73202380D01*
X75661904Y-73178571D01*
X75780952Y-73178571D01*
X75828571Y-73202380D01*
X75852380Y-73226190D01*
X75876190Y-73273809D01*
X75876190Y-73416666D01*
X75852380Y-73464285D01*
X75828571Y-73488095D01*
X74876190Y-74500000D02*
X74876190Y-74738095D01*
X74376190Y-74738095D01*
X74614285Y-74333333D02*
X74614285Y-74166666D01*
X74876190Y-74095238D02*
X74876190Y-74333333D01*
X74376190Y-74333333D01*
X74376190Y-74095238D01*
X74876190Y-73880952D02*
X74376190Y-73880952D01*
X74376190Y-73761904D01*
X74400000Y-73690476D01*
X74447619Y-73642857D01*
X74495238Y-73619047D01*
X74590476Y-73595238D01*
X74661904Y-73595238D01*
X74757142Y-73619047D01*
X74804761Y-73642857D01*
X74852380Y-73690476D01*
X74876190Y-73761904D01*
X74876190Y-73880952D01*
X74876190Y-72738095D02*
X74876190Y-73023809D01*
X74876190Y-72880952D02*
X74376190Y-72880952D01*
X74447619Y-72928571D01*
X74495238Y-72976190D01*
X74519047Y-73023809D01*
D13*
X50107142Y-56357142D02*
X50059523Y-56404761D01*
X49916666Y-56452380D01*
X49821428Y-56452380D01*
X49678571Y-56404761D01*
X49583333Y-56309523D01*
X49535714Y-56214285D01*
X49488095Y-56023809D01*
X49488095Y-55880952D01*
X49535714Y-55690476D01*
X49583333Y-55595238D01*
X49678571Y-55500000D01*
X49821428Y-55452380D01*
X49916666Y-55452380D01*
X50059523Y-55500000D01*
X50107142Y-55547619D01*
X50488095Y-56166666D02*
X50964285Y-56166666D01*
X50392857Y-56452380D02*
X50726190Y-55452380D01*
X51059523Y-56452380D01*
X51392857Y-56452380D02*
X51392857Y-55452380D01*
X51964285Y-56452380D01*
X51964285Y-55452380D01*
D12*
X98023809Y-87976190D02*
X97857142Y-87738095D01*
X97738095Y-87976190D02*
X97738095Y-87476190D01*
X97928571Y-87476190D01*
X97976190Y-87500000D01*
X98000000Y-87523809D01*
X98023809Y-87571428D01*
X98023809Y-87642857D01*
X98000000Y-87690476D01*
X97976190Y-87714285D01*
X97928571Y-87738095D01*
X97738095Y-87738095D01*
X98238095Y-87976190D02*
X98238095Y-87476190D01*
X98428571Y-87476190D01*
X98476190Y-87500000D01*
X98500000Y-87523809D01*
X98523809Y-87571428D01*
X98523809Y-87642857D01*
X98500000Y-87690476D01*
X98476190Y-87714285D01*
X98428571Y-87738095D01*
X98238095Y-87738095D01*
X98714285Y-87523809D02*
X98738095Y-87500000D01*
X98785714Y-87476190D01*
X98904761Y-87476190D01*
X98952380Y-87500000D01*
X98976190Y-87523809D01*
X99000000Y-87571428D01*
X99000000Y-87619047D01*
X98976190Y-87690476D01*
X98690476Y-87976190D01*
X99000000Y-87976190D01*
X99309523Y-87476190D02*
X99357142Y-87476190D01*
X99404761Y-87500000D01*
X99428571Y-87523809D01*
X99452380Y-87571428D01*
X99476190Y-87666666D01*
X99476190Y-87785714D01*
X99452380Y-87880952D01*
X99428571Y-87928571D01*
X99404761Y-87952380D01*
X99357142Y-87976190D01*
X99309523Y-87976190D01*
X99261904Y-87952380D01*
X99238095Y-87928571D01*
X99214285Y-87880952D01*
X99190476Y-87785714D01*
X99190476Y-87666666D01*
X99214285Y-87571428D01*
X99238095Y-87523809D01*
X99261904Y-87500000D01*
X99309523Y-87476190D01*
X99904761Y-87642857D02*
X99904761Y-87976190D01*
X99785714Y-87452380D02*
X99666666Y-87809523D01*
X99976190Y-87809523D01*
X100261904Y-87476190D02*
X100309523Y-87476190D01*
X100357142Y-87500000D01*
X100380952Y-87523809D01*
X100404761Y-87571428D01*
X100428571Y-87666666D01*
X100428571Y-87785714D01*
X100404761Y-87880952D01*
X100380952Y-87928571D01*
X100357142Y-87952380D01*
X100309523Y-87976190D01*
X100261904Y-87976190D01*
X100214285Y-87952380D01*
X100190476Y-87928571D01*
X100166666Y-87880952D01*
X100142857Y-87785714D01*
X100142857Y-87666666D01*
X100166666Y-87571428D01*
X100190476Y-87523809D01*
X100214285Y-87500000D01*
X100261904Y-87476190D01*
X101023809Y-87976190D02*
X101023809Y-87476190D01*
X101142857Y-87476190D01*
X101214285Y-87500000D01*
X101261904Y-87547619D01*
X101285714Y-87595238D01*
X101309523Y-87690476D01*
X101309523Y-87761904D01*
X101285714Y-87857142D01*
X101261904Y-87904761D01*
X101214285Y-87952380D01*
X101142857Y-87976190D01*
X101023809Y-87976190D01*
X101523809Y-87714285D02*
X101690476Y-87714285D01*
X101761904Y-87976190D02*
X101523809Y-87976190D01*
X101523809Y-87476190D01*
X101761904Y-87476190D01*
X102142857Y-87714285D02*
X102214285Y-87738095D01*
X102238095Y-87761904D01*
X102261904Y-87809523D01*
X102261904Y-87880952D01*
X102238095Y-87928571D01*
X102214285Y-87952380D01*
X102166666Y-87976190D01*
X101976190Y-87976190D01*
X101976190Y-87476190D01*
X102142857Y-87476190D01*
X102190476Y-87500000D01*
X102214285Y-87523809D01*
X102238095Y-87571428D01*
X102238095Y-87619047D01*
X102214285Y-87666666D01*
X102190476Y-87690476D01*
X102142857Y-87714285D01*
X101976190Y-87714285D01*
X102476190Y-87476190D02*
X102476190Y-87880952D01*
X102500000Y-87928571D01*
X102523809Y-87952380D01*
X102571428Y-87976190D01*
X102666666Y-87976190D01*
X102714285Y-87952380D01*
X102738095Y-87928571D01*
X102761904Y-87880952D01*
X102761904Y-87476190D01*
X103261904Y-87500000D02*
X103214285Y-87476190D01*
X103142857Y-87476190D01*
X103071428Y-87500000D01*
X103023809Y-87547619D01*
X103000000Y-87595238D01*
X102976190Y-87690476D01*
X102976190Y-87761904D01*
X103000000Y-87857142D01*
X103023809Y-87904761D01*
X103071428Y-87952380D01*
X103142857Y-87976190D01*
X103190476Y-87976190D01*
X103261904Y-87952380D01*
X103285714Y-87928571D01*
X103285714Y-87761904D01*
X103190476Y-87761904D01*
D11*
X61135714Y-74557142D02*
X60835714Y-74557142D01*
X61050000Y-74457142D01*
X60835714Y-74357142D01*
X61135714Y-74357142D01*
X61107142Y-74042857D02*
X61121428Y-74057142D01*
X61135714Y-74100000D01*
X61135714Y-74128571D01*
X61121428Y-74171428D01*
X61092857Y-74200000D01*
X61064285Y-74214285D01*
X61007142Y-74228571D01*
X60964285Y-74228571D01*
X60907142Y-74214285D01*
X60878571Y-74200000D01*
X60850000Y-74171428D01*
X60835714Y-74128571D01*
X60835714Y-74100000D01*
X60850000Y-74057142D01*
X60864285Y-74042857D01*
X61135714Y-73914285D02*
X60835714Y-73914285D01*
X60835714Y-73800000D01*
X60850000Y-73771428D01*
X60864285Y-73757142D01*
X60892857Y-73742857D01*
X60935714Y-73742857D01*
X60964285Y-73757142D01*
X60978571Y-73771428D01*
X60992857Y-73800000D01*
X60992857Y-73914285D01*
X61107142Y-73214285D02*
X61121428Y-73228571D01*
X61135714Y-73271428D01*
X61135714Y-73300000D01*
X61121428Y-73342857D01*
X61092857Y-73371428D01*
X61064285Y-73385714D01*
X61007142Y-73400000D01*
X60964285Y-73400000D01*
X60907142Y-73385714D01*
X60878571Y-73371428D01*
X60850000Y-73342857D01*
X60835714Y-73300000D01*
X60835714Y-73271428D01*
X60850000Y-73228571D01*
X60864285Y-73214285D01*
X61121428Y-73100000D02*
X61135714Y-73057142D01*
X61135714Y-72985714D01*
X61121428Y-72957142D01*
X61107142Y-72942857D01*
X61078571Y-72928571D01*
X61050000Y-72928571D01*
X61021428Y-72942857D01*
X61007142Y-72957142D01*
X60992857Y-72985714D01*
X60978571Y-73042857D01*
X60964285Y-73071428D01*
X60950000Y-73085714D01*
X60921428Y-73100000D01*
X60892857Y-73100000D01*
X60864285Y-73085714D01*
X60850000Y-73071428D01*
X60835714Y-73042857D01*
X60835714Y-72971428D01*
X60850000Y-72928571D01*
D10*
G04 #@! TO.C,Y2*
X55225000Y-50650000D02*
X55225000Y-53450000D01*
X55225000Y-53450000D02*
X58525000Y-53450000D01*
G04 #@! TO.C,R10*
X29485276Y-70877500D02*
X29994724Y-70877500D01*
X29485276Y-71922500D02*
X29994724Y-71922500D01*
G04 #@! TO.C,U8*
X72885000Y-60610000D02*
X72640000Y-60610000D01*
X61115000Y-56750000D02*
X61115000Y-52890000D01*
X61115000Y-56750000D02*
X61115000Y-60610000D01*
X61115000Y-60610000D02*
X61360000Y-60610000D01*
X72640000Y-52890000D02*
X72640000Y-51075000D01*
X72885000Y-52890000D02*
X72640000Y-52890000D01*
X72885000Y-56750000D02*
X72885000Y-52890000D01*
X61115000Y-52890000D02*
X61360000Y-52890000D01*
X72885000Y-56750000D02*
X72885000Y-60610000D01*
G04 #@! TO.C,U5*
X53865000Y-58750000D02*
X53865000Y-60950000D01*
X53865000Y-58750000D02*
X53865000Y-56550000D01*
X60635000Y-58750000D02*
X60635000Y-60950000D01*
X60635000Y-58750000D02*
X60635000Y-55150000D01*
G04 #@! TO.C,TP4*
X41700000Y-73900000D02*
G75*
G03*
X41700000Y-73900000I-700000J0D01*
G01*
G04 #@! TO.C,C36*
X39848748Y-66405000D02*
X40371252Y-66405000D01*
X39848748Y-67875000D02*
X40371252Y-67875000D01*
G04 #@! TO.C,L2*
X31000000Y-64795000D02*
X32200000Y-64795000D01*
X31000000Y-57995000D02*
X31000000Y-59395000D01*
X31000000Y-57995000D02*
X32200000Y-57995000D01*
X37400000Y-64795000D02*
X37400000Y-63395000D01*
X37400000Y-57995000D02*
X37400000Y-59395000D01*
X37400000Y-64795000D02*
X36200000Y-64795000D01*
X31000000Y-64795000D02*
X31000000Y-63395000D01*
X37400000Y-57995000D02*
X36200000Y-57995000D01*
G04 #@! TO.C,C33*
X39543748Y-85712500D02*
X40966252Y-85712500D01*
X39543748Y-83892500D02*
X40966252Y-83892500D01*
G04 #@! TO.C,U6*
X31170000Y-80610000D02*
X27720000Y-80610000D01*
X31170000Y-85730000D02*
X33120000Y-85730000D01*
X31170000Y-80610000D02*
X33120000Y-80610000D01*
X31170000Y-85730000D02*
X29220000Y-85730000D01*
G04 #@! TO.C,C15*
X82615000Y-70303733D02*
X82615000Y-70596267D01*
X83635000Y-70303733D02*
X83635000Y-70596267D01*
G04 #@! TO.C,C42*
X39348748Y-61945000D02*
X39871252Y-61945000D01*
X39348748Y-63415000D02*
X39871252Y-63415000D01*
G04 #@! TO.C,R7*
X96290000Y-77446267D02*
X96290000Y-77153733D01*
X97310000Y-77446267D02*
X97310000Y-77153733D01*
G04 #@! TO.C,C21*
X58640000Y-52221267D02*
X58640000Y-51928733D01*
X59660000Y-52221267D02*
X59660000Y-51928733D01*
D15*
G04 #@! TO.C,PAU301*
X46000000Y-79345000D02*
X49000000Y-79345000D01*
X49000000Y-79345000D02*
X49000000Y-77845000D01*
D16*
X50500000Y-76845000D02*
X44500000Y-76845000D01*
D15*
X49000000Y-77845000D02*
X46000000Y-77845000D01*
X46000000Y-77845000D02*
X46000000Y-79345000D01*
D16*
X44500000Y-80345000D02*
X50500000Y-80345000D01*
D10*
G04 #@! TO.C,U7*
X99263687Y-64587273D02*
X99263687Y-61862273D01*
X99263687Y-61862273D02*
X99523687Y-61862273D01*
X104713687Y-64587273D02*
X104713687Y-67312273D01*
X104713687Y-67312273D02*
X104453687Y-67312273D01*
X99263687Y-64587273D02*
X99263687Y-67312273D01*
X104713687Y-64587273D02*
X104713687Y-61862273D01*
X104713687Y-61862273D02*
X104453687Y-61862273D01*
X99263687Y-67312273D02*
X99523687Y-67312273D01*
X104453687Y-61862273D02*
X104453687Y-60187273D01*
G04 #@! TO.C,C11*
X46885000Y-64488748D02*
X46885000Y-65011252D01*
X45415000Y-64488748D02*
X45415000Y-65011252D01*
G04 #@! TO.C,C16*
X61638748Y-63015000D02*
X62161252Y-63015000D01*
X61638748Y-64485000D02*
X62161252Y-64485000D01*
G04 #@! TO.C,C38*
X39848748Y-70405000D02*
X40371252Y-70405000D01*
X39848748Y-71875000D02*
X40371252Y-71875000D01*
G04 #@! TO.C,JP2*
X80300000Y-47475000D02*
X80300000Y-50275000D01*
X79000000Y-46825000D02*
X79600000Y-46825000D01*
X79600000Y-50925000D02*
X79000000Y-50925000D01*
X78300000Y-50275000D02*
X78300000Y-47475000D01*
X79600000Y-50925000D02*
G75*
G03*
X80300000Y-50225000I1J699999D01*
G01*
X78300000Y-50225000D02*
G75*
G03*
X79000000Y-50925000I699999J-1D01*
G01*
X79000000Y-46825000D02*
G75*
G03*
X78300000Y-47525000I-1J-699999D01*
G01*
X80300000Y-47525000D02*
G75*
G03*
X79600000Y-46825000I-699999J1D01*
G01*
G04 #@! TO.C,C24*
X86810000Y-70303733D02*
X86810000Y-70596267D01*
X85790000Y-70303733D02*
X85790000Y-70596267D01*
G04 #@! TO.C,R19*
X33164724Y-71892500D02*
X32655276Y-71892500D01*
X33164724Y-70847500D02*
X32655276Y-70847500D01*
G04 #@! TO.C,C27*
X94556252Y-86110000D02*
X94033748Y-86110000D01*
X94556252Y-87580000D02*
X94033748Y-87580000D01*
G04 #@! TO.C,R5*
X82072500Y-68370276D02*
X82072500Y-68879724D01*
X81027500Y-68370276D02*
X81027500Y-68879724D01*
G04 #@! TO.C,J2*
X77194838Y-85657500D02*
X77134838Y-85657500D01*
X77134838Y-85657500D02*
X77134838Y-87117500D01*
X56814838Y-85657500D02*
X56754838Y-85657500D01*
X56754838Y-82997500D02*
X56754838Y-85657500D01*
X77194838Y-82997500D02*
X77134838Y-82997500D01*
X56814838Y-82997500D02*
X56754838Y-82997500D01*
X77194838Y-82997500D02*
X77194838Y-85657500D01*
G04 #@! TO.C,C18*
X95560000Y-66203733D02*
X95560000Y-66496267D01*
X94540000Y-66203733D02*
X94540000Y-66496267D01*
G04 #@! TO.C,C25*
X29031252Y-62575000D02*
X28508748Y-62575000D01*
X29031252Y-61105000D02*
X28508748Y-61105000D01*
G04 #@! TO.C,R9*
X92057500Y-84684724D02*
X92057500Y-84175276D01*
X93102500Y-84684724D02*
X93102500Y-84175276D01*
G04 #@! TO.C,TP5*
X83500000Y-59500000D02*
G75*
G03*
X83500000Y-59500000I-700000J0D01*
G01*
G04 #@! TO.C,U2*
X52745000Y-64800000D02*
X52745000Y-62850000D01*
X47625000Y-64800000D02*
X47625000Y-68250000D01*
X47625000Y-64800000D02*
X47625000Y-62850000D01*
X52745000Y-64800000D02*
X52745000Y-66750000D01*
G04 #@! TO.C,C9*
X84240000Y-70303733D02*
X84240000Y-70596267D01*
X85260000Y-70303733D02*
X85260000Y-70596267D01*
G04 #@! TO.C,C34*
X28508748Y-64545000D02*
X29031252Y-64545000D01*
X28508748Y-63075000D02*
X29031252Y-63075000D01*
G04 #@! TO.C,J5*
X101590000Y-84000000D02*
X101590000Y-84635000D01*
X101590000Y-84635000D02*
X100955000Y-84635000D01*
G04 #@! TO.C,C30*
X96543748Y-75720000D02*
X97066252Y-75720000D01*
X96543748Y-74250000D02*
X97066252Y-74250000D01*
G04 #@! TO.C,C7*
X78853733Y-62610000D02*
X79146267Y-62610000D01*
X78853733Y-61590000D02*
X79146267Y-61590000D01*
G04 #@! TO.C,C32*
X39808748Y-69970000D02*
X41231252Y-69970000D01*
X39808748Y-68150000D02*
X41231252Y-68150000D01*
G04 #@! TO.C,C5*
X30096251Y-73083041D02*
X29573747Y-73083041D01*
X30096251Y-74553041D02*
X29573747Y-74553041D01*
G04 #@! TO.C,R22*
X81255276Y-79462500D02*
X81764724Y-79462500D01*
X81255276Y-78417500D02*
X81764724Y-78417500D01*
G04 #@! TO.C,C8*
X78853733Y-70034999D02*
X79146267Y-70034999D01*
X78853733Y-69014999D02*
X79146267Y-69014999D01*
D15*
G04 #@! TO.C,J4*
X52500000Y-42090000D02*
X26500000Y-42090000D01*
X63320000Y-48520000D02*
X62250000Y-48520000D01*
X117500000Y-30230000D02*
X117500000Y-14480000D01*
X52500000Y-42090000D02*
X52500000Y-53390000D01*
X81500000Y-42090000D02*
X71750000Y-42090000D01*
X62250000Y-48520000D02*
X62250000Y-42090000D01*
X70680000Y-42090000D02*
X70680000Y-48520000D01*
X16500000Y-42090000D02*
X16500000Y-30230000D01*
X62250000Y-42090000D02*
X52500000Y-42090000D01*
X117500000Y-30230000D02*
X117500000Y-42090000D01*
X107500000Y-42090000D02*
X107500000Y-53390000D01*
X71750000Y-48520000D02*
X70680000Y-48520000D01*
X63320000Y-42090000D02*
X62250000Y-42090000D01*
X117500000Y-14480000D02*
X16500000Y-14480000D01*
X71750000Y-42090000D02*
X70680000Y-42090000D01*
X63320000Y-42090000D02*
X63320000Y-48520000D01*
X52500000Y-53390000D02*
X26500000Y-53390000D01*
X70680000Y-48520000D02*
X68625000Y-48520000D01*
X117500000Y-42090000D02*
X107500000Y-42090000D01*
X16500000Y-14480000D02*
X16500000Y-30230000D01*
X26500000Y-53390000D02*
X26500000Y-42090000D01*
X16500000Y-30230000D02*
X117500000Y-30230000D01*
X81500000Y-53390000D02*
X81500000Y-42090000D01*
X107500000Y-42090000D02*
X81500000Y-42090000D01*
X65375000Y-45145000D02*
X65375000Y-48520000D01*
X68625000Y-48520000D02*
X68625000Y-45145000D01*
X71750000Y-42090000D02*
X71750000Y-48520000D01*
X65375000Y-48520000D02*
X63320000Y-48520000D01*
X107500000Y-53390000D02*
X81500000Y-53390000D01*
X70680000Y-42090000D02*
X63320000Y-42090000D01*
X26500000Y-42090000D02*
X16500000Y-42090000D01*
X68625000Y-45145000D02*
G75*
G03*
X67000000Y-43520000I-1624998J2D01*
G01*
X67000000Y-43520000D02*
G75*
G03*
X65375000Y-45145000I-2J-1624998D01*
G01*
D10*
G04 #@! TO.C,C26*
X30096251Y-75804020D02*
X29573747Y-75804020D01*
X30096251Y-77274020D02*
X29573747Y-77274020D01*
G04 #@! TO.C,C35*
X29573747Y-79995000D02*
X30096251Y-79995000D01*
X29573747Y-78525000D02*
X30096251Y-78525000D01*
G04 #@! TO.C,C14*
X90715000Y-70303733D02*
X90715000Y-70596267D01*
X91735000Y-70303733D02*
X91735000Y-70596267D01*
G04 #@! TO.C,R18*
X36694724Y-71902501D02*
X36185276Y-71902501D01*
X36694724Y-70857501D02*
X36185276Y-70857501D01*
G04 #@! TO.C,C10*
X97110000Y-66203733D02*
X97110000Y-66496267D01*
X96090000Y-66203733D02*
X96090000Y-66496267D01*
G04 #@! TO.C,R17*
X36345276Y-84607500D02*
X36854724Y-84607500D01*
X36345276Y-85652500D02*
X36854724Y-85652500D01*
G04 #@! TO.C,R15*
X48757500Y-59054724D02*
X48757500Y-58545276D01*
X47712500Y-59054724D02*
X47712500Y-58545276D01*
G04 #@! TO.C,C12*
X93260000Y-68028733D02*
X93260000Y-68321267D01*
X92240000Y-68028733D02*
X92240000Y-68321267D01*
D15*
G04 #@! TO.C,MOD301*
X49000000Y-83325000D02*
X46000000Y-83325000D01*
X49000000Y-84825000D02*
X49000000Y-83325000D01*
D16*
X44500000Y-85825000D02*
X50500000Y-85825000D01*
D15*
X46000000Y-84825000D02*
X49000000Y-84825000D01*
X46000000Y-83325000D02*
X46000000Y-84825000D01*
D16*
X50500000Y-82325000D02*
X44500000Y-82325000D01*
D10*
G04 #@! TO.C,R3*
X95345276Y-57627500D02*
X95854724Y-57627500D01*
X95345276Y-58672500D02*
X95854724Y-58672500D01*
G04 #@! TO.C,R6*
X103340000Y-77128733D02*
X103340000Y-77421267D01*
X104360000Y-77128733D02*
X104360000Y-77421267D01*
G04 #@! TO.C,C29*
X90493748Y-72150000D02*
X91016252Y-72150000D01*
X90493748Y-73620000D02*
X91016252Y-73620000D01*
G04 #@! TO.C,TP6*
X39400000Y-56900000D02*
G75*
G03*
X39400000Y-56900000I-700000J0D01*
G01*
G04 #@! TO.C,D302*
X79785000Y-76345000D02*
X79785000Y-74875000D01*
X79785000Y-74875000D02*
X77325000Y-74875000D01*
X77325000Y-76345000D02*
X79785000Y-76345000D01*
G04 #@! TO.C,C13*
X90135000Y-70303733D02*
X90135000Y-70596267D01*
X89115000Y-70303733D02*
X89115000Y-70596267D01*
D13*
G04 #@! TO.C,U9*
X78700000Y-54150000D02*
X78700000Y-59200000D01*
X73650000Y-59200000D02*
X73700000Y-59200000D01*
X78650000Y-54150000D02*
X78700000Y-54150000D01*
X78650000Y-59200000D02*
X78700000Y-59200000D01*
X73650000Y-54150000D02*
X73650000Y-59200000D01*
X73650000Y-54150000D02*
X73700000Y-54150000D01*
D17*
X77950000Y-52825000D02*
G75*
G03*
X77950000Y-52825000I-125000J0D01*
G01*
D10*
G04 #@! TO.C,U10*
X84140000Y-68160000D02*
X84790000Y-68160000D01*
X91360000Y-68160000D02*
X90710000Y-68160000D01*
X84140000Y-60940000D02*
X84790000Y-60940000D01*
X91360000Y-67510000D02*
X91360000Y-68160000D01*
X84140000Y-67510000D02*
X84140000Y-68160000D01*
X91360000Y-61590000D02*
X91360000Y-60940000D01*
X84140000Y-61590000D02*
X84140000Y-60940000D01*
G04 #@! TO.C,L3*
X31955000Y-79955000D02*
X31955000Y-78555000D01*
X31955000Y-79955000D02*
X33155000Y-79955000D01*
X38355000Y-73155000D02*
X37155000Y-73155000D01*
X38355000Y-73155000D02*
X38355000Y-74555000D01*
X38355000Y-79955000D02*
X38355000Y-78555000D01*
X38355000Y-79955000D02*
X37155000Y-79955000D01*
X31955000Y-73155000D02*
X31955000Y-74555000D01*
X31955000Y-73155000D02*
X33155000Y-73155000D01*
G04 #@! TO.C,R23*
X32914724Y-86147499D02*
X32405276Y-86147499D01*
X32914724Y-87192499D02*
X32405276Y-87192499D01*
G04 #@! TO.C,R104*
X51139724Y-58122500D02*
X50630276Y-58122500D01*
X51139724Y-57077500D02*
X50630276Y-57077500D01*
G04 #@! TO.C,C31*
X85615000Y-83770563D02*
X85615000Y-83135000D01*
X84750000Y-80390000D02*
X85375000Y-80390000D01*
X91135000Y-79315000D02*
X91135000Y-81015000D01*
X85615000Y-80379437D02*
X86679437Y-79315000D01*
X85615000Y-80379437D02*
X85615000Y-81015000D01*
X86679437Y-79315000D02*
X91135000Y-79315000D01*
X85615000Y-83770563D02*
X86679437Y-84835000D01*
X85062500Y-80077500D02*
X85062500Y-80702500D01*
X86679437Y-84835000D02*
X91135000Y-84835000D01*
X91135000Y-84835000D02*
X91135000Y-83135000D01*
G04 #@! TO.C,C41*
X40068748Y-79892500D02*
X40591252Y-79892500D01*
X40068748Y-81362500D02*
X40591252Y-81362500D01*
G04 #@! TO.C,C28*
X83260000Y-75273748D02*
X83260000Y-75796252D01*
X84730000Y-75273748D02*
X84730000Y-75796252D01*
G04 #@! TO.C,C40*
X39348748Y-59905000D02*
X39871252Y-59905000D01*
X39348748Y-61375000D02*
X39871252Y-61375000D01*
G04 #@! TO.C,D2*
X27250001Y-55300000D02*
X31150001Y-55300000D01*
X27250001Y-55300000D02*
X27250001Y-57300000D01*
X27250001Y-57300000D02*
X31150001Y-57300000D01*
G04 #@! TO.C,C23*
X95535000Y-70303733D02*
X95535000Y-70596267D01*
X94515000Y-70303733D02*
X94515000Y-70596267D01*
G04 #@! TO.C,TP7*
X43600000Y-75800000D02*
G75*
G03*
X43600000Y-75800000I-700000J0D01*
G01*
G04 #@! TO.C,C37*
X40068748Y-83400000D02*
X40591252Y-83400000D01*
X40068748Y-81930000D02*
X40591252Y-81930000D01*
G04 #@! TO.C,D301*
X79812500Y-79665000D02*
X79812500Y-78195000D01*
X77352500Y-79665000D02*
X79812500Y-79665000D01*
X79812500Y-78195000D02*
X77352500Y-78195000D01*
G04 #@! TO.C,U3*
X31265000Y-65249999D02*
X33215000Y-65249999D01*
X31265000Y-70369999D02*
X29315000Y-70369999D01*
X31265000Y-65249999D02*
X27815000Y-65249999D01*
X31265000Y-70369999D02*
X33215000Y-70369999D01*
G04 #@! TO.C,TP3*
X36500000Y-56900000D02*
G75*
G03*
X36500000Y-56900000I-700000J0D01*
G01*
G04 #@! TO.C,C4*
X80085000Y-54878733D02*
X80085000Y-55171267D01*
X79065000Y-54878733D02*
X79065000Y-55171267D01*
G04 #@! TO.C,C6*
X103440000Y-71603733D02*
X103440000Y-71896267D01*
X104460000Y-71603733D02*
X104460000Y-71896267D01*
G04 #@! TO.C,C3*
X29031252Y-60310000D02*
X28508748Y-60310000D01*
X29031252Y-58840000D02*
X28508748Y-58840000D01*
G04 #@! TO.C,D308*
X77335000Y-78015000D02*
X79795000Y-78015000D01*
X79795000Y-76545000D02*
X77335000Y-76545000D01*
X79795000Y-78015000D02*
X79795000Y-76545000D01*
G04 #@! TO.C,C43*
X40068748Y-79325000D02*
X40591252Y-79325000D01*
X40068748Y-77855000D02*
X40591252Y-77855000D01*
G04 #@! TO.C,R14*
X36175276Y-70302500D02*
X36684724Y-70302500D01*
X36175276Y-69257500D02*
X36684724Y-69257500D01*
G04 #@! TO.C,R20*
X36854724Y-86157500D02*
X36345276Y-86157500D01*
X36854724Y-87202500D02*
X36345276Y-87202500D01*
G04 #@! TO.C,R21*
X81280276Y-76142500D02*
X81789724Y-76142500D01*
X81280276Y-75097500D02*
X81789724Y-75097500D01*
G04 #@! TO.C,C17*
X85090000Y-56435181D02*
X85090000Y-56142647D01*
X86110000Y-56435181D02*
X86110000Y-56142647D01*
G04 #@! TO.C,R16*
X61845276Y-65077500D02*
X62354724Y-65077500D01*
X61845276Y-66122500D02*
X62354724Y-66122500D01*
G04 #@! TO.C,C19*
X92000240Y-58710091D02*
X92000240Y-58417557D01*
X90980240Y-58710091D02*
X90980240Y-58417557D01*
G04 #@! TO.C,C39*
X40068748Y-87475000D02*
X40591252Y-87475000D01*
X40068748Y-86005000D02*
X40591252Y-86005000D01*
G04 #@! TO.C,R13*
X28945276Y-86167500D02*
X29454724Y-86167500D01*
X28945276Y-87212500D02*
X29454724Y-87212500D01*
G04 #@! TO.C,TP8*
X80300000Y-60300000D02*
G75*
G03*
X80300000Y-60300000I-700000J0D01*
G01*
G04 #@! TO.C,C22*
X54935000Y-52221267D02*
X54935000Y-51928733D01*
X53915000Y-52221267D02*
X53915000Y-51928733D01*
G04 #@! TO.C,R91*
X81250276Y-76747500D02*
X81759724Y-76747500D01*
X81250276Y-77792500D02*
X81759724Y-77792500D01*
G04 #@! TO.C,R4*
X95854724Y-59227500D02*
X95345276Y-59227500D01*
X95854724Y-60272500D02*
X95345276Y-60272500D01*
G04 #@! TO.C,Y3*
X76100000Y-68425000D02*
X80600000Y-68425000D01*
X80600000Y-68425000D02*
X80600000Y-63025000D01*
G04 #@! TD*
M02*
