M48
INCH,TZ
T1C0.0390
T2C0.0394
T3C0.0935
T4C0.1063
%
G90
G05
T1
X38999Y-37424
X39096Y-33795
X39399Y-39424
X39496Y-31795
X39799Y-37424
X39896Y-33795
T2
X36043Y-53445
X39193Y-53445
T3
X38399Y-38174
X38399Y-39424
X38496Y-31795
X38496Y-33045
X40399Y-38174
X40399Y-39424
X40496Y-31795
X40496Y-33045
T4
X16929Y-31890
X16929Y-44882
X35827Y-31890
X35827Y-44882
T0
M30
