G04 #@! TF.GenerationSoftware,KiCad,Pcbnew,(6.0.2)*
G04 #@! TF.CreationDate,2022-04-08T14:26:24-06:00*
G04 #@! TF.ProjectId,CONEPROJ,434f4e45-5052-44f4-9a2e-6b696361645f,rev?*
G04 #@! TF.SameCoordinates,Original*
G04 #@! TF.FileFunction,Soldermask,Bot*
G04 #@! TF.FilePolarity,Negative*
%FSLAX46Y46*%
G04 Gerber Fmt 4.6, Leading zero omitted, Abs format (unit mm)*
G04 Created by KiCad (PCBNEW (6.0.2)) date 2022-04-08 14:26:24*
%MOMM*%
%LPD*%
G01*
G04 APERTURE LIST*
G04 Aperture macros list*
%AMRoundRect*
0 Rectangle with rounded corners*
0 $1 Rounding radius*
0 $2 $3 $4 $5 $6 $7 $8 $9 X,Y pos of 4 corners*
0 Add a 4 corners polygon primitive as box body*
4,1,4,$2,$3,$4,$5,$6,$7,$8,$9,$2,$3,0*
0 Add four circle primitives for the rounded corners*
1,1,$1+$1,$2,$3*
1,1,$1+$1,$4,$5*
1,1,$1+$1,$6,$7*
1,1,$1+$1,$8,$9*
0 Add four rect primitives between the rounded corners*
20,1,$1+$1,$2,$3,$4,$5,0*
20,1,$1+$1,$4,$5,$6,$7,0*
20,1,$1+$1,$6,$7,$8,$9,0*
20,1,$1+$1,$8,$9,$2,$3,0*%
%AMFreePoly0*
4,1,22,0.500000,-0.750000,0.000000,-0.750000,0.000000,-0.745033,-0.079941,-0.743568,-0.215256,-0.701293,-0.333266,-0.622738,-0.424486,-0.514219,-0.481581,-0.384460,-0.499164,-0.250000,-0.500000,-0.250000,-0.500000,0.250000,-0.499164,0.250000,-0.499963,0.256109,-0.478152,0.396186,-0.417904,0.524511,-0.324060,0.630769,-0.204165,0.706417,-0.067858,0.745374,0.000000,0.744959,0.000000,0.750000,
0.500000,0.750000,0.500000,-0.750000,0.500000,-0.750000,$1*%
%AMFreePoly1*
4,1,20,0.000000,0.744959,0.073905,0.744508,0.209726,0.703889,0.328688,0.626782,0.421226,0.519385,0.479903,0.390333,0.500000,0.250000,0.500000,-0.250000,0.499851,-0.262216,0.476331,-0.402017,0.414519,-0.529596,0.319384,-0.634700,0.198574,-0.708877,0.061801,-0.746166,0.000000,-0.745033,0.000000,-0.750000,-0.500000,-0.750000,-0.500000,0.750000,0.000000,0.750000,0.000000,0.744959,
0.000000,0.744959,$1*%
G04 Aperture macros list end*
%ADD10RoundRect,0.250000X0.725000X-0.600000X0.725000X0.600000X-0.725000X0.600000X-0.725000X-0.600000X0*%
%ADD11O,1.950000X1.700000*%
%ADD12O,1.000000X1.000000*%
%ADD13C,1.000000*%
%ADD14C,5.600000*%
%ADD15C,0.400000*%
%ADD16R,1.700000X1.700000*%
%ADD17C,1.700000*%
%ADD18C,3.500000*%
%ADD19C,2.374900*%
%ADD20C,0.990600*%
%ADD21O,1.500000X1.500000*%
%ADD22O,1.800000X1.800000*%
%ADD23O,1.700000X1.700000*%
%ADD24C,6.100000*%
%ADD25FreePoly0,180.000000*%
%ADD26FreePoly1,180.000000*%
G04 APERTURE END LIST*
D10*
G04 #@! TO.C,J3*
X163910000Y-57480000D03*
D11*
X163910000Y-54980000D03*
X163910000Y-52480000D03*
X163910000Y-49980000D03*
G04 #@! TD*
D12*
G04 #@! TO.C,J301*
X162212500Y-86499088D03*
X158012500Y-86499088D03*
D13*
X158012500Y-79499088D03*
D12*
X162212500Y-79499088D03*
G04 #@! TD*
D14*
G04 #@! TO.C,H304*
X166362500Y-94999088D03*
G04 #@! TD*
D15*
G04 #@! TO.C,U307*
X38914270Y-40372514D03*
X38914270Y-41372514D03*
G04 #@! TD*
D13*
G04 #@! TO.C,J2*
X82200000Y-21947500D03*
X90200000Y-21947500D03*
G04 #@! TD*
D16*
G04 #@! TO.C,J309*
X161362500Y-36999088D03*
D17*
X161362500Y-39499088D03*
X163362500Y-39499088D03*
X163362500Y-36999088D03*
D18*
X166072500Y-44269088D03*
X166072500Y-32229088D03*
G04 #@! TD*
D19*
G04 #@! TO.C,J311*
X84635000Y-61540000D03*
D20*
X86540000Y-57984000D03*
X86540000Y-60016000D03*
D19*
X81460000Y-61540000D03*
D20*
X81460000Y-59000000D03*
D19*
X81460000Y-56460000D03*
X84635000Y-56460000D03*
G04 #@! TD*
D21*
G04 #@! TO.C,U7*
X26030000Y-76075000D03*
X26030000Y-80925000D03*
D22*
X23000000Y-75775000D03*
X23000000Y-81225000D03*
D23*
X22870000Y-87390000D03*
X25410000Y-87390000D03*
D16*
X27950000Y-87390000D03*
D23*
X30490000Y-87390000D03*
X33030000Y-87390000D03*
X35570000Y-87390000D03*
X38110000Y-87390000D03*
D16*
X40650000Y-87390000D03*
D23*
X43190000Y-87390000D03*
X45730000Y-87390000D03*
X48270000Y-87390000D03*
X50810000Y-87390000D03*
D16*
X53350000Y-87390000D03*
D23*
X55890000Y-87390000D03*
X58430000Y-87390000D03*
X60970000Y-87390000D03*
X63510000Y-87390000D03*
D16*
X66050000Y-87390000D03*
D23*
X68590000Y-87390000D03*
X71130000Y-87390000D03*
X71130000Y-69610000D03*
X68590000Y-69610000D03*
D16*
X66050000Y-69610000D03*
D23*
X63510000Y-69610000D03*
X60970000Y-69610000D03*
X58430000Y-69610000D03*
X55890000Y-69610000D03*
D16*
X53350000Y-69610000D03*
D23*
X50810000Y-69610000D03*
X48270000Y-69610000D03*
X45730000Y-69610000D03*
X43190000Y-69610000D03*
D16*
X40650000Y-69610000D03*
D23*
X38110000Y-69610000D03*
X35570000Y-69610000D03*
X33030000Y-69610000D03*
X30490000Y-69610000D03*
D16*
X27950000Y-69610000D03*
D23*
X25410000Y-69610000D03*
X22870000Y-69610000D03*
X70900000Y-81040000D03*
D16*
X70900000Y-78500000D03*
D23*
X70900000Y-75960000D03*
G04 #@! TD*
D24*
G04 #@! TO.C,Module2*
X24970000Y-24910000D03*
X72970000Y-24910000D03*
X72970000Y-57910000D03*
X24970000Y-57910000D03*
G04 #@! TD*
D14*
G04 #@! TO.C,H302*
X166362500Y-24999088D03*
G04 #@! TD*
D10*
G04 #@! TO.C,J306*
X163912500Y-71249088D03*
D11*
X163912500Y-68749088D03*
X163912500Y-66249088D03*
X163912500Y-63749088D03*
G04 #@! TD*
D14*
G04 #@! TO.C,H303*
X25000000Y-95000000D03*
G04 #@! TD*
D25*
G04 #@! TO.C,JP5*
X115600000Y-80099088D03*
D26*
X114300000Y-80099088D03*
G04 #@! TD*
D25*
G04 #@! TO.C,JP3*
X115600000Y-84099088D03*
D26*
X114300000Y-84099088D03*
G04 #@! TD*
D25*
G04 #@! TO.C,JP7*
X115600000Y-76099088D03*
D26*
X114300000Y-76099088D03*
G04 #@! TD*
D25*
G04 #@! TO.C,JP4*
X115600000Y-82099088D03*
D26*
X114300000Y-82099088D03*
G04 #@! TD*
D25*
G04 #@! TO.C,JP6*
X115600000Y-78099088D03*
D26*
X114300000Y-78099088D03*
G04 #@! TD*
D25*
G04 #@! TO.C,JP2*
X115600000Y-86099088D03*
D26*
X114300000Y-86099088D03*
G04 #@! TD*
D13*
G04 #@! TO.C,TP3*
X38300000Y-27500000D03*
G04 #@! TD*
G04 #@! TO.C,TP2*
X40300000Y-27500000D03*
G04 #@! TD*
M02*
