G04 #@! TF.GenerationSoftware,KiCad,Pcbnew,(6.0.2-0)*
G04 #@! TF.CreationDate,2022-04-07T20:49:23-06:00*
G04 #@! TF.ProjectId,CONEPROJ,434f4e45-5052-44f4-9a2e-6b696361645f,rev?*
G04 #@! TF.SameCoordinates,Original*
G04 #@! TF.FileFunction,Legend,Bot*
G04 #@! TF.FilePolarity,Positive*
%FSLAX46Y46*%
G04 Gerber Fmt 4.6, Leading zero omitted, Abs format (unit mm)*
G04 Created by KiCad (PCBNEW (6.0.2-0)) date 2022-04-07 20:49:23*
%MOMM*%
%LPD*%
G01*
G04 APERTURE LIST*
%ADD10C,0.150000*%
%ADD11C,0.120000*%
G04 APERTURE END LIST*
D10*
X178220580Y-63780357D02*
X178015223Y-63851785D01*
X177952723Y-63923214D01*
X177899151Y-64066071D01*
X177925937Y-64280357D01*
X178015223Y-64423214D01*
X178095580Y-64494642D01*
X178247366Y-64566071D01*
X178818794Y-64566071D01*
X178631294Y-63066071D01*
X178131294Y-63066071D01*
X177997366Y-63137500D01*
X177934866Y-63208928D01*
X177881294Y-63351785D01*
X177899151Y-63494642D01*
X177988437Y-63637500D01*
X178068794Y-63708928D01*
X178220580Y-63780357D01*
X178720580Y-63780357D01*
X176604508Y-64566071D02*
X177318794Y-64566071D01*
X177131294Y-63066071D01*
X175917008Y-63066071D02*
X176068794Y-64280357D01*
X176015223Y-64423214D01*
X175952723Y-64494642D01*
X175818794Y-64566071D01*
X175533080Y-64566071D01*
X175381294Y-64494642D01*
X175300937Y-64423214D01*
X175211651Y-64280357D01*
X175059866Y-63066071D01*
X174434866Y-63780357D02*
X173934866Y-63780357D01*
X173818794Y-64566071D02*
X174533080Y-64566071D01*
X174345580Y-63066071D01*
X173631294Y-63066071D01*
X177318794Y-66981071D02*
X177729508Y-66266785D01*
X178175937Y-66981071D02*
X177988437Y-65481071D01*
X177417008Y-65481071D01*
X177283080Y-65552500D01*
X177220580Y-65623928D01*
X177167008Y-65766785D01*
X177193794Y-65981071D01*
X177283080Y-66123928D01*
X177363437Y-66195357D01*
X177515223Y-66266785D01*
X178086651Y-66266785D01*
X176577723Y-66195357D02*
X176077723Y-66195357D01*
X175961651Y-66981071D02*
X176675937Y-66981071D01*
X176488437Y-65481071D01*
X175774151Y-65481071D01*
X175318794Y-66981071D02*
X175131294Y-65481071D01*
X174774151Y-65481071D01*
X174568794Y-65552500D01*
X174443794Y-65695357D01*
X174390223Y-65838214D01*
X174354508Y-66123928D01*
X174381294Y-66338214D01*
X174488437Y-66623928D01*
X174577723Y-66766785D01*
X174738437Y-66909642D01*
X174961651Y-66981071D01*
X175318794Y-66981071D01*
X178675937Y-67967500D02*
X178809866Y-67896071D01*
X179024151Y-67896071D01*
X179247366Y-67967500D01*
X179408080Y-68110357D01*
X179497366Y-68253214D01*
X179604508Y-68538928D01*
X179631294Y-68753214D01*
X179595580Y-69038928D01*
X179542008Y-69181785D01*
X179417008Y-69324642D01*
X179211651Y-69396071D01*
X179068794Y-69396071D01*
X178845580Y-69324642D01*
X178765223Y-69253214D01*
X178702723Y-68753214D01*
X178988437Y-68753214D01*
X177283080Y-69396071D02*
X177693794Y-68681785D01*
X178140223Y-69396071D02*
X177952723Y-67896071D01*
X177381294Y-67896071D01*
X177247366Y-67967500D01*
X177184866Y-68038928D01*
X177131294Y-68181785D01*
X177158080Y-68396071D01*
X177247366Y-68538928D01*
X177327723Y-68610357D01*
X177479508Y-68681785D01*
X178050937Y-68681785D01*
X176542008Y-68610357D02*
X176042008Y-68610357D01*
X175925937Y-69396071D02*
X176640223Y-69396071D01*
X176452723Y-67896071D01*
X175738437Y-67896071D01*
X175184866Y-68610357D02*
X174684866Y-68610357D01*
X174568794Y-69396071D02*
X175283080Y-69396071D01*
X175095580Y-67896071D01*
X174381294Y-67896071D01*
X173925937Y-69396071D02*
X173738437Y-67896071D01*
X173068794Y-69396071D01*
X172881294Y-67896071D01*
X178925937Y-71239642D02*
X177783080Y-71239642D01*
X178425937Y-71811071D02*
X178283080Y-70668214D01*
X176354508Y-71811071D02*
X177211651Y-71811071D01*
X176783080Y-71811071D02*
X176595580Y-70311071D01*
X176765223Y-70525357D01*
X176925937Y-70668214D01*
X177077723Y-70739642D01*
X175613437Y-70453928D02*
X175533080Y-70382500D01*
X175381294Y-70311071D01*
X175024151Y-70311071D01*
X174890223Y-70382500D01*
X174827723Y-70453928D01*
X174774151Y-70596785D01*
X174792008Y-70739642D01*
X174890223Y-70953928D01*
X175854508Y-71811071D01*
X174925937Y-71811071D01*
X174309866Y-70311071D02*
X173997366Y-71811071D01*
X173309866Y-70311071D01*
X178558794Y-49925000D02*
X178692723Y-49853571D01*
X178907008Y-49853571D01*
X179130223Y-49925000D01*
X179290937Y-50067857D01*
X179380223Y-50210714D01*
X179487366Y-50496428D01*
X179514151Y-50710714D01*
X179478437Y-50996428D01*
X179424866Y-51139285D01*
X179299866Y-51282142D01*
X179094508Y-51353571D01*
X178951651Y-51353571D01*
X178728437Y-51282142D01*
X178648080Y-51210714D01*
X178585580Y-50710714D01*
X178871294Y-50710714D01*
X178023080Y-51353571D02*
X177835580Y-49853571D01*
X177165937Y-51353571D01*
X176978437Y-49853571D01*
X176451651Y-51353571D02*
X176264151Y-49853571D01*
X175907008Y-49853571D01*
X175701651Y-49925000D01*
X175576651Y-50067857D01*
X175523080Y-50210714D01*
X175487366Y-50496428D01*
X175514151Y-50710714D01*
X175621294Y-50996428D01*
X175710580Y-51139285D01*
X175871294Y-51282142D01*
X176094508Y-51353571D01*
X176451651Y-51353571D01*
X179201651Y-53768571D02*
X179014151Y-52268571D01*
X178648080Y-53340000D01*
X178014151Y-52268571D01*
X178201651Y-53768571D01*
X177487366Y-53768571D02*
X177299866Y-52268571D01*
X176773080Y-53768571D02*
X176585580Y-52268571D01*
X176228437Y-52268571D01*
X176023080Y-52340000D01*
X175898080Y-52482857D01*
X175844508Y-52625714D01*
X175808794Y-52911428D01*
X175835580Y-53125714D01*
X175942723Y-53411428D01*
X176032008Y-53554285D01*
X176192723Y-53697142D01*
X176415937Y-53768571D01*
X176773080Y-53768571D01*
X179871294Y-54683571D02*
X179558794Y-56183571D01*
X178871294Y-54683571D01*
X177960580Y-55397857D02*
X177755223Y-55469285D01*
X177692723Y-55540714D01*
X177639151Y-55683571D01*
X177665937Y-55897857D01*
X177755223Y-56040714D01*
X177835580Y-56112142D01*
X177987366Y-56183571D01*
X178558794Y-56183571D01*
X178371294Y-54683571D01*
X177871294Y-54683571D01*
X177737366Y-54755000D01*
X177674866Y-54826428D01*
X177621294Y-54969285D01*
X177639151Y-55112142D01*
X177728437Y-55255000D01*
X177808794Y-55326428D01*
X177960580Y-55397857D01*
X178460580Y-55397857D01*
X177076651Y-55755000D02*
X176362366Y-55755000D01*
X177273080Y-56183571D02*
X176585580Y-54683571D01*
X176273080Y-56183571D01*
X175799866Y-54683571D02*
X174942723Y-54683571D01*
X175558794Y-56183571D02*
X175371294Y-54683571D01*
G04 #@! TO.C,JP5*
X131783333Y-79552380D02*
X131783333Y-80266666D01*
X131830952Y-80409523D01*
X131926190Y-80504761D01*
X132069047Y-80552380D01*
X132164285Y-80552380D01*
X131307142Y-80552380D02*
X131307142Y-79552380D01*
X130926190Y-79552380D01*
X130830952Y-79600000D01*
X130783333Y-79647619D01*
X130735714Y-79742857D01*
X130735714Y-79885714D01*
X130783333Y-79980952D01*
X130830952Y-80028571D01*
X130926190Y-80076190D01*
X131307142Y-80076190D01*
X129830952Y-79552380D02*
X130307142Y-79552380D01*
X130354761Y-80028571D01*
X130307142Y-79980952D01*
X130211904Y-79933333D01*
X129973809Y-79933333D01*
X129878571Y-79980952D01*
X129830952Y-80028571D01*
X129783333Y-80123809D01*
X129783333Y-80361904D01*
X129830952Y-80457142D01*
X129878571Y-80504761D01*
X129973809Y-80552380D01*
X130211904Y-80552380D01*
X130307142Y-80504761D01*
X130354761Y-80457142D01*
G04 #@! TO.C,JP3*
X131633333Y-83552380D02*
X131633333Y-84266666D01*
X131680952Y-84409523D01*
X131776190Y-84504761D01*
X131919047Y-84552380D01*
X132014285Y-84552380D01*
X131157142Y-84552380D02*
X131157142Y-83552380D01*
X130776190Y-83552380D01*
X130680952Y-83600000D01*
X130633333Y-83647619D01*
X130585714Y-83742857D01*
X130585714Y-83885714D01*
X130633333Y-83980952D01*
X130680952Y-84028571D01*
X130776190Y-84076190D01*
X131157142Y-84076190D01*
X130252380Y-83552380D02*
X129633333Y-83552380D01*
X129966666Y-83933333D01*
X129823809Y-83933333D01*
X129728571Y-83980952D01*
X129680952Y-84028571D01*
X129633333Y-84123809D01*
X129633333Y-84361904D01*
X129680952Y-84457142D01*
X129728571Y-84504761D01*
X129823809Y-84552380D01*
X130109523Y-84552380D01*
X130204761Y-84504761D01*
X130252380Y-84457142D01*
G04 #@! TO.C,JP7*
X134783333Y-73752380D02*
X134783333Y-74466666D01*
X134830952Y-74609523D01*
X134926190Y-74704761D01*
X135069047Y-74752380D01*
X135164285Y-74752380D01*
X134307142Y-74752380D02*
X134307142Y-73752380D01*
X133926190Y-73752380D01*
X133830952Y-73800000D01*
X133783333Y-73847619D01*
X133735714Y-73942857D01*
X133735714Y-74085714D01*
X133783333Y-74180952D01*
X133830952Y-74228571D01*
X133926190Y-74276190D01*
X134307142Y-74276190D01*
X133402380Y-73752380D02*
X132735714Y-73752380D01*
X133164285Y-74752380D01*
G04 #@! TO.C,JP4*
X131683333Y-81552380D02*
X131683333Y-82266666D01*
X131730952Y-82409523D01*
X131826190Y-82504761D01*
X131969047Y-82552380D01*
X132064285Y-82552380D01*
X131207142Y-82552380D02*
X131207142Y-81552380D01*
X130826190Y-81552380D01*
X130730952Y-81600000D01*
X130683333Y-81647619D01*
X130635714Y-81742857D01*
X130635714Y-81885714D01*
X130683333Y-81980952D01*
X130730952Y-82028571D01*
X130826190Y-82076190D01*
X131207142Y-82076190D01*
X129778571Y-81885714D02*
X129778571Y-82552380D01*
X130016666Y-81504761D02*
X130254761Y-82219047D01*
X129635714Y-82219047D01*
G04 #@! TO.C,JP6*
X131633333Y-77552380D02*
X131633333Y-78266666D01*
X131680952Y-78409523D01*
X131776190Y-78504761D01*
X131919047Y-78552380D01*
X132014285Y-78552380D01*
X131157142Y-78552380D02*
X131157142Y-77552380D01*
X130776190Y-77552380D01*
X130680952Y-77600000D01*
X130633333Y-77647619D01*
X130585714Y-77742857D01*
X130585714Y-77885714D01*
X130633333Y-77980952D01*
X130680952Y-78028571D01*
X130776190Y-78076190D01*
X131157142Y-78076190D01*
X129728571Y-77552380D02*
X129919047Y-77552380D01*
X130014285Y-77600000D01*
X130061904Y-77647619D01*
X130157142Y-77790476D01*
X130204761Y-77980952D01*
X130204761Y-78361904D01*
X130157142Y-78457142D01*
X130109523Y-78504761D01*
X130014285Y-78552380D01*
X129823809Y-78552380D01*
X129728571Y-78504761D01*
X129680952Y-78457142D01*
X129633333Y-78361904D01*
X129633333Y-78123809D01*
X129680952Y-78028571D01*
X129728571Y-77980952D01*
X129823809Y-77933333D01*
X130014285Y-77933333D01*
X130109523Y-77980952D01*
X130157142Y-78028571D01*
X130204761Y-78123809D01*
G04 #@! TO.C,JP2*
X131633333Y-85552380D02*
X131633333Y-86266666D01*
X131680952Y-86409523D01*
X131776190Y-86504761D01*
X131919047Y-86552380D01*
X132014285Y-86552380D01*
X131157142Y-86552380D02*
X131157142Y-85552380D01*
X130776190Y-85552380D01*
X130680952Y-85600000D01*
X130633333Y-85647619D01*
X130585714Y-85742857D01*
X130585714Y-85885714D01*
X130633333Y-85980952D01*
X130680952Y-86028571D01*
X130776190Y-86076190D01*
X131157142Y-86076190D01*
X130204761Y-85647619D02*
X130157142Y-85600000D01*
X130061904Y-85552380D01*
X129823809Y-85552380D01*
X129728571Y-85600000D01*
X129680952Y-85647619D01*
X129633333Y-85742857D01*
X129633333Y-85838095D01*
X129680952Y-85980952D01*
X130252380Y-86552380D01*
X129633333Y-86552380D01*
G04 #@! TO.C,TP3*
X39561904Y-28400380D02*
X38990476Y-28400380D01*
X39276190Y-29400380D02*
X39276190Y-28400380D01*
X38657142Y-29400380D02*
X38657142Y-28400380D01*
X38276190Y-28400380D01*
X38180952Y-28448000D01*
X38133333Y-28495619D01*
X38085714Y-28590857D01*
X38085714Y-28733714D01*
X38133333Y-28828952D01*
X38180952Y-28876571D01*
X38276190Y-28924190D01*
X38657142Y-28924190D01*
X37752380Y-28400380D02*
X37133333Y-28400380D01*
X37466666Y-28781333D01*
X37323809Y-28781333D01*
X37228571Y-28828952D01*
X37180952Y-28876571D01*
X37133333Y-28971809D01*
X37133333Y-29209904D01*
X37180952Y-29305142D01*
X37228571Y-29352761D01*
X37323809Y-29400380D01*
X37609523Y-29400380D01*
X37704761Y-29352761D01*
X37752380Y-29305142D01*
G04 #@! TO.C,TP2*
X41561904Y-28400380D02*
X40990476Y-28400380D01*
X41276190Y-29400380D02*
X41276190Y-28400380D01*
X40657142Y-29400380D02*
X40657142Y-28400380D01*
X40276190Y-28400380D01*
X40180952Y-28448000D01*
X40133333Y-28495619D01*
X40085714Y-28590857D01*
X40085714Y-28733714D01*
X40133333Y-28828952D01*
X40180952Y-28876571D01*
X40276190Y-28924190D01*
X40657142Y-28924190D01*
X39704761Y-28495619D02*
X39657142Y-28448000D01*
X39561904Y-28400380D01*
X39323809Y-28400380D01*
X39228571Y-28448000D01*
X39180952Y-28495619D01*
X39133333Y-28590857D01*
X39133333Y-28686095D01*
X39180952Y-28828952D01*
X39752380Y-29400380D01*
X39133333Y-29400380D01*
D11*
G04 #@! TO.C,JP5*
X133250000Y-81100000D02*
X134650000Y-81100000D01*
X134650000Y-79100000D02*
X133250000Y-79100000D01*
X135350000Y-80400000D02*
X135350000Y-79800000D01*
X132550000Y-79800000D02*
X132550000Y-80400000D01*
X134650000Y-81100000D02*
G75*
G03*
X135350000Y-80400000I1J699999D01*
G01*
X133250000Y-79100000D02*
G75*
G03*
X132550000Y-79800000I-1J-699999D01*
G01*
X135350000Y-79800000D02*
G75*
G03*
X134650000Y-79100000I-699999J1D01*
G01*
X132550000Y-80400000D02*
G75*
G03*
X133250000Y-81100000I699999J-1D01*
G01*
G04 #@! TO.C,JP3*
X132550000Y-83800000D02*
X132550000Y-84400000D01*
X134650000Y-83100000D02*
X133250000Y-83100000D01*
X133250000Y-85100000D02*
X134650000Y-85100000D01*
X135350000Y-84400000D02*
X135350000Y-83800000D01*
X133250000Y-83100000D02*
G75*
G03*
X132550000Y-83800000I-1J-699999D01*
G01*
X134650000Y-85100000D02*
G75*
G03*
X135350000Y-84400000I1J699999D01*
G01*
X132550000Y-84400000D02*
G75*
G03*
X133250000Y-85100000I699999J-1D01*
G01*
X135350000Y-83800000D02*
G75*
G03*
X134650000Y-83100000I-699999J1D01*
G01*
G04 #@! TO.C,JP7*
X135350000Y-76400000D02*
X135350000Y-75800000D01*
X132550000Y-75800000D02*
X132550000Y-76400000D01*
X133250000Y-77100000D02*
X134650000Y-77100000D01*
X134650000Y-75100000D02*
X133250000Y-75100000D01*
X132550000Y-76400000D02*
G75*
G03*
X133250000Y-77100000I699999J-1D01*
G01*
X133250000Y-75100000D02*
G75*
G03*
X132550000Y-75800000I-1J-699999D01*
G01*
X135350000Y-75800000D02*
G75*
G03*
X134650000Y-75100000I-699999J1D01*
G01*
X134650000Y-77100000D02*
G75*
G03*
X135350000Y-76400000I1J699999D01*
G01*
G04 #@! TO.C,JP4*
X134650000Y-81100000D02*
X133250000Y-81100000D01*
X135350000Y-82400000D02*
X135350000Y-81800000D01*
X133250000Y-83100000D02*
X134650000Y-83100000D01*
X132550000Y-81800000D02*
X132550000Y-82400000D01*
X135350000Y-81800000D02*
G75*
G03*
X134650000Y-81100000I-699999J1D01*
G01*
X134650000Y-83100000D02*
G75*
G03*
X135350000Y-82400000I1J699999D01*
G01*
X133250000Y-81100000D02*
G75*
G03*
X132550000Y-81800000I-1J-699999D01*
G01*
X132550000Y-82400000D02*
G75*
G03*
X133250000Y-83100000I699999J-1D01*
G01*
G04 #@! TO.C,JP6*
X133250000Y-79100000D02*
X134650000Y-79100000D01*
X132550000Y-77800000D02*
X132550000Y-78400000D01*
X135350000Y-78400000D02*
X135350000Y-77800000D01*
X134650000Y-77100000D02*
X133250000Y-77100000D01*
X135350000Y-77800000D02*
G75*
G03*
X134650000Y-77100000I-699999J1D01*
G01*
X133250000Y-77100000D02*
G75*
G03*
X132550000Y-77800000I-1J-699999D01*
G01*
X134650000Y-79100000D02*
G75*
G03*
X135350000Y-78400000I1J699999D01*
G01*
X132550000Y-78400000D02*
G75*
G03*
X133250000Y-79100000I699999J-1D01*
G01*
G04 #@! TO.C,JP2*
X135350000Y-86400000D02*
X135350000Y-85800000D01*
X133250000Y-87100000D02*
X134650000Y-87100000D01*
X134650000Y-85100000D02*
X133250000Y-85100000D01*
X132550000Y-85800000D02*
X132550000Y-86400000D01*
X132550000Y-86400000D02*
G75*
G03*
X133250000Y-87100000I699999J-1D01*
G01*
X133250000Y-85100000D02*
G75*
G03*
X132550000Y-85800000I-1J-699999D01*
G01*
X134650000Y-87100000D02*
G75*
G03*
X135350000Y-86400000I1J699999D01*
G01*
X135350000Y-85800000D02*
G75*
G03*
X134650000Y-85100000I-699999J1D01*
G01*
G04 #@! TO.C,TP3*
X39000000Y-27500000D02*
G75*
G03*
X39000000Y-27500000I-700000J0D01*
G01*
G04 #@! TO.C,TP2*
X41000000Y-27500000D02*
G75*
G03*
X41000000Y-27500000I-700000J0D01*
G01*
G04 #@! TD*
M02*
