G04 #@! TF.GenerationSoftware,KiCad,Pcbnew,(6.0.2)*
G04 #@! TF.CreationDate,2022-04-08T14:26:24-06:00*
G04 #@! TF.ProjectId,CONEPROJ,434f4e45-5052-44f4-9a2e-6b696361645f,rev?*
G04 #@! TF.SameCoordinates,Original*
G04 #@! TF.FileFunction,Soldermask,Top*
G04 #@! TF.FilePolarity,Negative*
%FSLAX46Y46*%
G04 Gerber Fmt 4.6, Leading zero omitted, Abs format (unit mm)*
G04 Created by KiCad (PCBNEW (6.0.2)) date 2022-04-08 14:26:24*
%MOMM*%
%LPD*%
G01*
G04 APERTURE LIST*
G04 Aperture macros list*
%AMRoundRect*
0 Rectangle with rounded corners*
0 $1 Rounding radius*
0 $2 $3 $4 $5 $6 $7 $8 $9 X,Y pos of 4 corners*
0 Add a 4 corners polygon primitive as box body*
4,1,4,$2,$3,$4,$5,$6,$7,$8,$9,$2,$3,0*
0 Add four circle primitives for the rounded corners*
1,1,$1+$1,$2,$3*
1,1,$1+$1,$4,$5*
1,1,$1+$1,$6,$7*
1,1,$1+$1,$8,$9*
0 Add four rect primitives between the rounded corners*
20,1,$1+$1,$2,$3,$4,$5,0*
20,1,$1+$1,$4,$5,$6,$7,0*
20,1,$1+$1,$6,$7,$8,$9,0*
20,1,$1+$1,$8,$9,$2,$3,0*%
%AMRotRect*
0 Rectangle, with rotation*
0 The origin of the aperture is its center*
0 $1 length*
0 $2 width*
0 $3 Rotation angle, in degrees counterclockwise*
0 Add horizontal line*
21,1,$1,$2,0,0,$3*%
%AMFreePoly0*
4,1,22,0.500000,-0.750000,0.000000,-0.750000,0.000000,-0.745033,-0.079941,-0.743568,-0.215256,-0.701293,-0.333266,-0.622738,-0.424486,-0.514219,-0.481581,-0.384460,-0.499164,-0.250000,-0.500000,-0.250000,-0.500000,0.250000,-0.499164,0.250000,-0.499963,0.256109,-0.478152,0.396186,-0.417904,0.524511,-0.324060,0.630769,-0.204165,0.706417,-0.067858,0.745374,0.000000,0.744959,0.000000,0.750000,
0.500000,0.750000,0.500000,-0.750000,0.500000,-0.750000,$1*%
%AMFreePoly1*
4,1,20,0.000000,0.744959,0.073905,0.744508,0.209726,0.703889,0.328688,0.626782,0.421226,0.519385,0.479903,0.390333,0.500000,0.250000,0.500000,-0.250000,0.499851,-0.262216,0.476331,-0.402017,0.414519,-0.529596,0.319384,-0.634700,0.198574,-0.708877,0.061801,-0.746166,0.000000,-0.745033,0.000000,-0.750000,-0.500000,-0.750000,-0.500000,0.750000,0.000000,0.750000,0.000000,0.744959,
0.000000,0.744959,$1*%
G04 Aperture macros list end*
%ADD10FreePoly0,0.000000*%
%ADD11FreePoly1,0.000000*%
%ADD12RoundRect,0.250000X0.725000X-0.600000X0.725000X0.600000X-0.725000X0.600000X-0.725000X-0.600000X0*%
%ADD13O,1.950000X1.700000*%
%ADD14RoundRect,0.237500X0.300000X0.237500X-0.300000X0.237500X-0.300000X-0.237500X0.300000X-0.237500X0*%
%ADD15R,1.000000X1.500000*%
%ADD16RoundRect,0.150000X-0.725000X-0.150000X0.725000X-0.150000X0.725000X0.150000X-0.725000X0.150000X0*%
%ADD17R,1.000000X1.150000*%
%ADD18RoundRect,0.150000X0.875000X0.150000X-0.875000X0.150000X-0.875000X-0.150000X0.875000X-0.150000X0*%
%ADD19R,1.200000X0.900000*%
%ADD20RoundRect,0.237500X0.287500X0.237500X-0.287500X0.237500X-0.287500X-0.237500X0.287500X-0.237500X0*%
%ADD21RoundRect,0.237500X-0.237500X0.250000X-0.237500X-0.250000X0.237500X-0.250000X0.237500X0.250000X0*%
%ADD22RoundRect,0.100000X0.637500X0.100000X-0.637500X0.100000X-0.637500X-0.100000X0.637500X-0.100000X0*%
%ADD23RoundRect,0.237500X0.250000X0.237500X-0.250000X0.237500X-0.250000X-0.237500X0.250000X-0.237500X0*%
%ADD24RoundRect,0.250000X-0.475000X0.337500X-0.475000X-0.337500X0.475000X-0.337500X0.475000X0.337500X0*%
%ADD25RoundRect,0.237500X-0.250000X-0.237500X0.250000X-0.237500X0.250000X0.237500X-0.250000X0.237500X0*%
%ADD26FreePoly0,90.000000*%
%ADD27FreePoly1,90.000000*%
%ADD28R,2.000000X2.000000*%
%ADD29RoundRect,0.250000X0.475000X-0.337500X0.475000X0.337500X-0.475000X0.337500X-0.475000X-0.337500X0*%
%ADD30O,1.000000X1.000000*%
%ADD31C,1.000000*%
%ADD32RoundRect,0.250000X0.337500X0.475000X-0.337500X0.475000X-0.337500X-0.475000X0.337500X-0.475000X0*%
%ADD33RoundRect,0.237500X0.237500X-0.300000X0.237500X0.300000X-0.237500X0.300000X-0.237500X-0.300000X0*%
%ADD34R,3.000000X1.200000*%
%ADD35C,5.600000*%
%ADD36RoundRect,0.250001X0.799999X1.249999X-0.799999X1.249999X-0.799999X-1.249999X0.799999X-1.249999X0*%
%ADD37RoundRect,0.200000X0.200000X0.600000X-0.200000X0.600000X-0.200000X-0.600000X0.200000X-0.600000X0*%
%ADD38RoundRect,0.007800X-0.397200X-0.122200X0.397200X-0.122200X0.397200X0.122200X-0.397200X0.122200X0*%
%ADD39R,1.300000X1.500000*%
%ADD40C,0.400000*%
%ADD41RoundRect,0.150000X-0.825000X-0.150000X0.825000X-0.150000X0.825000X0.150000X-0.825000X0.150000X0*%
%ADD42RoundRect,0.250000X-0.337500X-0.475000X0.337500X-0.475000X0.337500X0.475000X-0.337500X0.475000X0*%
%ADD43R,0.700000X1.900000*%
%ADD44R,1.700000X1.800000*%
%ADD45R,1.400000X2.600000*%
%ADD46RotRect,1.050000X2.200000X225.000000*%
%ADD47RotRect,1.000000X1.050000X225.000000*%
%ADD48RoundRect,0.237500X-0.237500X0.300000X-0.237500X-0.300000X0.237500X-0.300000X0.237500X0.300000X0*%
%ADD49R,1.700000X1.700000*%
%ADD50C,1.700000*%
%ADD51C,3.500000*%
%ADD52RoundRect,0.012000X0.138000X-0.198000X0.138000X0.198000X-0.138000X0.198000X-0.138000X-0.198000X0*%
%ADD53RoundRect,0.012000X0.138000X-0.193000X0.138000X0.193000X-0.138000X0.193000X-0.138000X-0.193000X0*%
%ADD54RoundRect,0.250000X-0.350000X-0.450000X0.350000X-0.450000X0.350000X0.450000X-0.350000X0.450000X0*%
%ADD55C,2.374900*%
%ADD56C,0.990600*%
%ADD57C,0.787400*%
%ADD58R,2.350000X5.100000*%
%ADD59R,0.900000X1.200000*%
%ADD60O,1.500000X1.500000*%
%ADD61O,1.800000X1.800000*%
%ADD62R,1.700000X3.500000*%
%ADD63O,1.700000X1.700000*%
%ADD64R,3.500000X1.700000*%
%ADD65R,1.066800X0.254000*%
%ADD66RoundRect,0.237500X0.237500X-0.250000X0.237500X0.250000X-0.237500X0.250000X-0.237500X-0.250000X0*%
%ADD67R,0.200000X0.700000*%
%ADD68C,6.100000*%
%ADD69R,2.200000X0.600000*%
%ADD70RoundRect,0.150000X-0.512500X-0.150000X0.512500X-0.150000X0.512500X0.150000X-0.512500X0.150000X0*%
G04 APERTURE END LIST*
D10*
G04 #@! TO.C,JP9*
X157200000Y-50480000D03*
D11*
X158500000Y-50480000D03*
G04 #@! TD*
D12*
G04 #@! TO.C,J3*
X163910000Y-57480000D03*
D13*
X163910000Y-54980000D03*
X163910000Y-52480000D03*
X163910000Y-49980000D03*
G04 #@! TD*
D14*
G04 #@! TO.C,C4*
X146837500Y-55160000D03*
X148562500Y-55160000D03*
G04 #@! TD*
D15*
G04 #@! TO.C,U9*
X150520000Y-55160000D03*
X152120000Y-55160000D03*
X153720000Y-55160000D03*
X153720000Y-50260000D03*
X152120000Y-50260000D03*
X150520000Y-50260000D03*
G04 #@! TD*
D16*
G04 #@! TO.C,Q4*
X138325000Y-76794088D03*
X138325000Y-78064088D03*
X138325000Y-79334088D03*
X138325000Y-80604088D03*
X143475000Y-80604088D03*
X143475000Y-79334088D03*
X143475000Y-78064088D03*
X143475000Y-76794088D03*
G04 #@! TD*
G04 #@! TO.C,Q3*
X138325000Y-83194088D03*
X138325000Y-84464088D03*
X138325000Y-85734088D03*
X138325000Y-87004088D03*
X143475000Y-87004088D03*
X143475000Y-85734088D03*
X143475000Y-84464088D03*
X143475000Y-83194088D03*
G04 #@! TD*
D17*
G04 #@! TO.C,Y2*
X112300000Y-88374088D03*
X112300000Y-90124088D03*
X113700000Y-90124088D03*
X113700000Y-88374088D03*
G04 #@! TD*
D18*
G04 #@! TO.C,U8*
X82400000Y-93629088D03*
X82400000Y-92359088D03*
X82400000Y-91089088D03*
X82400000Y-89819088D03*
X82400000Y-88549088D03*
X82400000Y-87279088D03*
X82400000Y-86009088D03*
X82400000Y-84739088D03*
X82400000Y-83469088D03*
X91700000Y-83469088D03*
X91700000Y-84739088D03*
X91700000Y-86009088D03*
X91700000Y-87279088D03*
X91700000Y-88549088D03*
X91700000Y-89819088D03*
X91700000Y-91089088D03*
X91700000Y-92359088D03*
X91700000Y-93629088D03*
G04 #@! TD*
D19*
G04 #@! TO.C,D1*
X151675000Y-66824088D03*
X151675000Y-70124088D03*
G04 #@! TD*
D20*
G04 #@! TO.C,D316*
X129650000Y-79999088D03*
X127900000Y-79999088D03*
G04 #@! TD*
D21*
G04 #@! TO.C,R2*
X109800000Y-83886588D03*
X109800000Y-85711588D03*
G04 #@! TD*
G04 #@! TO.C,R307*
X97100000Y-58087500D03*
X97100000Y-59912500D03*
G04 #@! TD*
D22*
G04 #@! TO.C,U5*
X109332500Y-93774088D03*
X109332500Y-93124088D03*
X109332500Y-92474088D03*
X109332500Y-91824088D03*
X109332500Y-91174088D03*
X109332500Y-90524088D03*
X109332500Y-89874088D03*
X109332500Y-89224088D03*
X109332500Y-88574088D03*
X109332500Y-87924088D03*
X103607500Y-87924088D03*
X103607500Y-88574088D03*
X103607500Y-89224088D03*
X103607500Y-89874088D03*
X103607500Y-90524088D03*
X103607500Y-91174088D03*
X103607500Y-91824088D03*
X103607500Y-92474088D03*
X103607500Y-93124088D03*
X103607500Y-93774088D03*
G04 #@! TD*
D23*
G04 #@! TO.C,R35*
X73912500Y-38800000D03*
X72087500Y-38800000D03*
G04 #@! TD*
D24*
G04 #@! TO.C,C34*
X95550000Y-31062500D03*
X95550000Y-33137500D03*
G04 #@! TD*
D25*
G04 #@! TO.C,R309*
X131362500Y-83499088D03*
X133187500Y-83499088D03*
G04 #@! TD*
D26*
G04 #@! TO.C,JP8*
X99550000Y-32850000D03*
D27*
X99550000Y-31550000D03*
G04 #@! TD*
D22*
G04 #@! TO.C,U3*
X109362500Y-81424088D03*
X109362500Y-80774088D03*
X109362500Y-80124088D03*
X109362500Y-79474088D03*
X109362500Y-78824088D03*
X109362500Y-78174088D03*
X109362500Y-77524088D03*
X109362500Y-76874088D03*
X109362500Y-76224088D03*
X109362500Y-75574088D03*
X109362500Y-74924088D03*
X109362500Y-74274088D03*
X109362500Y-73624088D03*
X109362500Y-72974088D03*
X103637500Y-72974088D03*
X103637500Y-73624088D03*
X103637500Y-74274088D03*
X103637500Y-74924088D03*
X103637500Y-75574088D03*
X103637500Y-76224088D03*
X103637500Y-76874088D03*
X103637500Y-77524088D03*
X103637500Y-78174088D03*
X103637500Y-78824088D03*
X103637500Y-79474088D03*
X103637500Y-80124088D03*
X103637500Y-80774088D03*
X103637500Y-81424088D03*
G04 #@! TD*
D25*
G04 #@! TO.C,R310*
X131362500Y-79999088D03*
X133187500Y-79999088D03*
G04 #@! TD*
D28*
G04 #@! TO.C,PAU301*
X138000000Y-23789088D03*
X138000000Y-31789088D03*
G04 #@! TD*
D21*
G04 #@! TO.C,R11*
X106600000Y-83886588D03*
X106600000Y-85711588D03*
G04 #@! TD*
D20*
G04 #@! TO.C,D308*
X120875000Y-48600000D03*
X119125000Y-48600000D03*
G04 #@! TD*
D29*
G04 #@! TO.C,C302*
X96525000Y-47675000D03*
X96525000Y-45600000D03*
G04 #@! TD*
D14*
G04 #@! TO.C,C54*
X158065000Y-33729088D03*
X156340000Y-33729088D03*
G04 #@! TD*
G04 #@! TO.C,C21*
X113612500Y-91999088D03*
X111887500Y-91999088D03*
G04 #@! TD*
D30*
G04 #@! TO.C,J301*
X162212500Y-86499088D03*
X158012500Y-86499088D03*
D31*
X158012500Y-79499088D03*
D30*
X162212500Y-79499088D03*
G04 #@! TD*
D29*
G04 #@! TO.C,C11*
X118000000Y-93036588D03*
X118000000Y-90961588D03*
G04 #@! TD*
D32*
G04 #@! TO.C,C16*
X98975000Y-93299088D03*
X96900000Y-93299088D03*
G04 #@! TD*
D33*
G04 #@! TO.C,C305*
X95500000Y-59862500D03*
X95500000Y-58137500D03*
G04 #@! TD*
D19*
G04 #@! TO.C,D6*
X25500000Y-65650000D03*
X25500000Y-62350000D03*
G04 #@! TD*
D25*
G04 #@! TO.C,R21*
X124380000Y-46980000D03*
X122555000Y-46980000D03*
G04 #@! TD*
D34*
G04 #@! TO.C,U310*
X78275000Y-37387500D03*
X78275000Y-39387500D03*
X78275000Y-41387500D03*
X78275000Y-43387500D03*
X78275000Y-45387500D03*
X78275000Y-47387500D03*
X78275000Y-49387500D03*
X78275000Y-51387500D03*
X93275000Y-51387500D03*
X93275000Y-49387500D03*
X93275000Y-47387500D03*
X93275000Y-45387500D03*
X93275000Y-43387500D03*
X93275000Y-41387500D03*
X93275000Y-39387500D03*
X93275000Y-37387500D03*
G04 #@! TD*
D25*
G04 #@! TO.C,R91*
X124412500Y-48600000D03*
X122587500Y-48600000D03*
G04 #@! TD*
D28*
G04 #@! TO.C,MOD301*
X132970000Y-23789088D03*
X132970000Y-31789088D03*
G04 #@! TD*
D32*
G04 #@! TO.C,C20*
X39914270Y-38172514D03*
X37839270Y-38172514D03*
G04 #@! TD*
D35*
G04 #@! TO.C,H304*
X166362500Y-94999088D03*
G04 #@! TD*
D23*
G04 #@! TO.C,R26*
X73912500Y-37100000D03*
X72087500Y-37100000D03*
G04 #@! TD*
D36*
G04 #@! TO.C,J312*
X113075000Y-22000000D03*
X121925000Y-22000000D03*
D37*
X115625000Y-24900000D03*
X116875000Y-24900000D03*
X118125000Y-24900000D03*
X119375000Y-24900000D03*
G04 #@! TD*
D23*
G04 #@! TO.C,R303*
X125687500Y-83499088D03*
X123862500Y-83499088D03*
G04 #@! TD*
D20*
G04 #@! TO.C,D302*
X120842500Y-46980000D03*
X119092500Y-46980000D03*
G04 #@! TD*
D38*
G04 #@! TO.C,U307*
X37464270Y-40122514D03*
X37464270Y-40622514D03*
X37464270Y-41122514D03*
X37464270Y-41622514D03*
X40364270Y-41622514D03*
X40364270Y-41122514D03*
X40364270Y-40622514D03*
X40364270Y-40122514D03*
D39*
X38914270Y-40872514D03*
D40*
X38914270Y-40372514D03*
X38914270Y-41372514D03*
G04 #@! TD*
D41*
G04 #@! TO.C,U2*
X121525000Y-89844088D03*
X121525000Y-91114088D03*
X121525000Y-92384088D03*
X121525000Y-93654088D03*
X126475000Y-93654088D03*
X126475000Y-92384088D03*
X126475000Y-91114088D03*
X126475000Y-89844088D03*
G04 #@! TD*
D42*
G04 #@! TO.C,C5*
X149112500Y-66191047D03*
X147037500Y-66191047D03*
G04 #@! TD*
D31*
G04 #@! TO.C,J2*
X82200000Y-21947500D03*
X90200000Y-21947500D03*
D43*
X83000000Y-32997500D03*
X84100000Y-32997500D03*
X85200000Y-32997500D03*
X86300000Y-32997500D03*
X87400000Y-32997500D03*
X88500000Y-32997500D03*
X89600000Y-32997500D03*
X90700000Y-32997500D03*
X91800000Y-32997500D03*
D44*
X93350000Y-31947500D03*
X77850000Y-31947500D03*
D45*
X93100000Y-22347500D03*
X77400000Y-22347500D03*
G04 #@! TD*
D46*
G04 #@! TO.C,J304*
X106042983Y-48957017D03*
D47*
X103921662Y-48921662D03*
D46*
X103957017Y-51042983D03*
G04 #@! TD*
D23*
G04 #@! TO.C,R55*
X73912500Y-31750000D03*
X72087500Y-31750000D03*
G04 #@! TD*
D48*
G04 #@! TO.C,C35*
X97450000Y-31337500D03*
X97450000Y-33062500D03*
G04 #@! TD*
D49*
G04 #@! TO.C,J309*
X161362500Y-36999088D03*
D50*
X161362500Y-39499088D03*
X163362500Y-39499088D03*
X163362500Y-36999088D03*
D51*
X166072500Y-44269088D03*
X166072500Y-32229088D03*
G04 #@! TD*
D20*
G04 #@! TO.C,D315*
X129650000Y-83499088D03*
X127900000Y-83499088D03*
G04 #@! TD*
D25*
G04 #@! TO.C,R15*
X129087500Y-89799088D03*
X130912500Y-89799088D03*
G04 #@! TD*
D21*
G04 #@! TO.C,R12*
X105000000Y-83886588D03*
X105000000Y-85711588D03*
G04 #@! TD*
D52*
G04 #@! TO.C,U4*
X156762500Y-35684088D03*
D53*
X157262500Y-35689088D03*
X157762500Y-35689088D03*
X157762500Y-35099088D03*
X157262500Y-35099088D03*
X156762500Y-35099088D03*
G04 #@! TD*
D32*
G04 #@! TO.C,C304*
X137900000Y-89499088D03*
X135825000Y-89499088D03*
G04 #@! TD*
G04 #@! TO.C,C2*
X97537500Y-81799088D03*
X95462500Y-81799088D03*
G04 #@! TD*
D54*
G04 #@! TO.C,R19*
X155860000Y-44270000D03*
X157860000Y-44270000D03*
G04 #@! TD*
D23*
G04 #@! TO.C,R14*
X100312500Y-78799088D03*
X98487500Y-78799088D03*
G04 #@! TD*
D37*
G04 #@! TO.C,J305*
X107225000Y-24900000D03*
X105975000Y-24900000D03*
X104725000Y-24900000D03*
X103475000Y-24900000D03*
X102225000Y-24900000D03*
X100975000Y-24900000D03*
D36*
X109775000Y-22000000D03*
X98425000Y-22000000D03*
G04 #@! TD*
D55*
G04 #@! TO.C,J311*
X84635000Y-61540000D03*
D56*
X86540000Y-57984000D03*
X86540000Y-60016000D03*
D55*
X81460000Y-61540000D03*
D56*
X81460000Y-59000000D03*
D55*
X81460000Y-56460000D03*
X84635000Y-56460000D03*
D57*
X82730000Y-59635000D03*
X82730000Y-58365000D03*
X84000000Y-59635000D03*
X84000000Y-58365000D03*
X85270000Y-59635000D03*
X85270000Y-58365000D03*
G04 #@! TD*
D58*
G04 #@! TO.C,L1*
X143825000Y-61199088D03*
X147975000Y-61199088D03*
G04 #@! TD*
D59*
G04 #@! TO.C,D4*
X33650000Y-26000000D03*
X30350000Y-26000000D03*
G04 #@! TD*
D60*
G04 #@! TO.C,U7*
X26030000Y-76075000D03*
X26030000Y-80925000D03*
D61*
X23000000Y-75775000D03*
X23000000Y-81225000D03*
D62*
X22870000Y-88290000D03*
D63*
X22870000Y-87390000D03*
X25410000Y-87390000D03*
D62*
X25410000Y-88290000D03*
X27950000Y-88290000D03*
D49*
X27950000Y-87390000D03*
D63*
X30490000Y-87390000D03*
D62*
X30490000Y-88290000D03*
D63*
X33030000Y-87390000D03*
D62*
X33030000Y-88290000D03*
D63*
X35570000Y-87390000D03*
D62*
X35570000Y-88290000D03*
D63*
X38110000Y-87390000D03*
D62*
X38110000Y-88290000D03*
X40650000Y-88290000D03*
D49*
X40650000Y-87390000D03*
D62*
X43190000Y-88290000D03*
D63*
X43190000Y-87390000D03*
D62*
X45730000Y-88290000D03*
D63*
X45730000Y-87390000D03*
X48270000Y-87390000D03*
D62*
X48270000Y-88290000D03*
D63*
X50810000Y-87390000D03*
D62*
X50810000Y-88290000D03*
D49*
X53350000Y-87390000D03*
D62*
X53350000Y-88290000D03*
D63*
X55890000Y-87390000D03*
D62*
X55890000Y-88290000D03*
D63*
X58430000Y-87390000D03*
D62*
X58430000Y-88290000D03*
X60970000Y-88290000D03*
D63*
X60970000Y-87390000D03*
D62*
X63510000Y-88290000D03*
D63*
X63510000Y-87390000D03*
D62*
X66050000Y-88290000D03*
D49*
X66050000Y-87390000D03*
D62*
X68590000Y-88290000D03*
D63*
X68590000Y-87390000D03*
X71130000Y-87390000D03*
D62*
X71130000Y-88290000D03*
X71130000Y-68710000D03*
D63*
X71130000Y-69610000D03*
D62*
X68590000Y-68710000D03*
D63*
X68590000Y-69610000D03*
D49*
X66050000Y-69610000D03*
D62*
X66050000Y-68710000D03*
D63*
X63510000Y-69610000D03*
D62*
X63510000Y-68710000D03*
D63*
X60970000Y-69610000D03*
D62*
X60970000Y-68710000D03*
D63*
X58430000Y-69610000D03*
D62*
X58430000Y-68710000D03*
D63*
X55890000Y-69610000D03*
D62*
X55890000Y-68710000D03*
D49*
X53350000Y-69610000D03*
D62*
X53350000Y-68710000D03*
X50810000Y-68710000D03*
D63*
X50810000Y-69610000D03*
D62*
X48270000Y-68710000D03*
D63*
X48270000Y-69610000D03*
X45730000Y-69610000D03*
D62*
X45730000Y-68710000D03*
X43190000Y-68710000D03*
D63*
X43190000Y-69610000D03*
D49*
X40650000Y-69610000D03*
D62*
X40650000Y-68710000D03*
D63*
X38110000Y-69610000D03*
D62*
X38110000Y-68710000D03*
D63*
X35570000Y-69610000D03*
D62*
X35570000Y-68710000D03*
X33030000Y-68710000D03*
D63*
X33030000Y-69610000D03*
D62*
X30490000Y-68710000D03*
D63*
X30490000Y-69610000D03*
D62*
X27950000Y-68710000D03*
D49*
X27950000Y-69610000D03*
D62*
X25410000Y-68710000D03*
D63*
X25410000Y-69610000D03*
D62*
X22870000Y-68710000D03*
D63*
X22870000Y-69610000D03*
X70900000Y-81040000D03*
D64*
X71800000Y-81040000D03*
D49*
X70900000Y-78500000D03*
D64*
X71800000Y-78500000D03*
D63*
X70900000Y-75960000D03*
D64*
X71800000Y-75960000D03*
G04 #@! TD*
D20*
G04 #@! TO.C,D314*
X129437500Y-86999088D03*
X127687500Y-86999088D03*
G04 #@! TD*
D65*
G04 #@! TO.C,U311*
X90577600Y-58238000D03*
X90577600Y-58746000D03*
X90577600Y-59254000D03*
X90577600Y-59762000D03*
X93422400Y-59762000D03*
X93422400Y-59254000D03*
X93422400Y-58746000D03*
X93422400Y-58238000D03*
G04 #@! TD*
D23*
G04 #@! TO.C,R54*
X73912500Y-33500000D03*
X72087500Y-33500000D03*
G04 #@! TD*
G04 #@! TO.C,R57*
X73912500Y-30000000D03*
X72087500Y-30000000D03*
G04 #@! TD*
D66*
G04 #@! TO.C,R104*
X149800000Y-93211588D03*
X149800000Y-91386588D03*
G04 #@! TD*
D23*
G04 #@! TO.C,R56*
X72087500Y-35300000D03*
X73912500Y-35300000D03*
G04 #@! TD*
D67*
G04 #@! TO.C,Module2*
X36670000Y-59910000D03*
X36670000Y-56830000D03*
X37070000Y-59910000D03*
X37070000Y-56830000D03*
X37470000Y-59910000D03*
X37470000Y-56830000D03*
X37870000Y-59910000D03*
X37870000Y-56830000D03*
X38270000Y-59910000D03*
X38270000Y-56830000D03*
X38670000Y-59910000D03*
X38670000Y-56830000D03*
X39070000Y-59910000D03*
X39070000Y-56830000D03*
X39470000Y-59910000D03*
X39470000Y-56830000D03*
X39870000Y-59910000D03*
X39870000Y-56830000D03*
X40270000Y-59910000D03*
X40270000Y-56830000D03*
X40670000Y-59910000D03*
X40670000Y-56830000D03*
X41070000Y-59910000D03*
X41070000Y-56830000D03*
X41470000Y-59910000D03*
X41470000Y-56830000D03*
X41870000Y-59910000D03*
X41870000Y-56830000D03*
X42270000Y-59910000D03*
X42270000Y-56830000D03*
X42670000Y-59910000D03*
X42670000Y-56830000D03*
X43070000Y-59910000D03*
X43070000Y-56830000D03*
X43470000Y-59910000D03*
X43470000Y-56830000D03*
X43870000Y-59910000D03*
X43870000Y-56830000D03*
X44270000Y-59910000D03*
X44270000Y-56830000D03*
X44670000Y-59910000D03*
X44670000Y-56830000D03*
X45070000Y-59910000D03*
X45070000Y-56830000D03*
X45470000Y-59910000D03*
X45470000Y-56830000D03*
X45870000Y-59910000D03*
X45870000Y-56830000D03*
X46270000Y-59910000D03*
X46270000Y-56830000D03*
X46670000Y-59910000D03*
X46670000Y-56830000D03*
X47070000Y-59910000D03*
X47070000Y-56830000D03*
X47470000Y-59910000D03*
X47470000Y-56830000D03*
X47870000Y-59910000D03*
X47870000Y-56830000D03*
X48270000Y-59910000D03*
X48270000Y-56830000D03*
X48670000Y-59910000D03*
X48670000Y-56830000D03*
X49070000Y-59910000D03*
X49070000Y-56830000D03*
X49470000Y-59910000D03*
X49470000Y-56830000D03*
X49870000Y-59910000D03*
X49870000Y-56830000D03*
X50270000Y-59910000D03*
X50270000Y-56830000D03*
X50670000Y-59910000D03*
X50670000Y-56830000D03*
X51070000Y-59910000D03*
X51070000Y-56830000D03*
X51470000Y-59910000D03*
X51470000Y-56830000D03*
X51870000Y-59910000D03*
X51870000Y-56830000D03*
X52270000Y-59910000D03*
X52270000Y-56830000D03*
X52670000Y-59910000D03*
X52670000Y-56830000D03*
X53070000Y-59910000D03*
X53070000Y-56830000D03*
X53470000Y-59910000D03*
X53470000Y-56830000D03*
X53870000Y-59910000D03*
X53870000Y-56830000D03*
X54270000Y-59910000D03*
X54270000Y-56830000D03*
X54670000Y-59910000D03*
X54670000Y-56830000D03*
X55070000Y-59910000D03*
X55070000Y-56830000D03*
X55470000Y-59910000D03*
X55470000Y-56830000D03*
X55870000Y-59910000D03*
X55870000Y-56830000D03*
X56270000Y-59910000D03*
X56270000Y-56830000D03*
X36670000Y-25990000D03*
X36670000Y-22910000D03*
X37070000Y-25990000D03*
X37070000Y-22910000D03*
X37470000Y-25990000D03*
X37470000Y-22910000D03*
X37870000Y-25990000D03*
X37870000Y-22910000D03*
X38270000Y-25990000D03*
X38270000Y-22910000D03*
X38670000Y-25990000D03*
X38670000Y-22910000D03*
X39070000Y-25990000D03*
X39070000Y-22910000D03*
X39470000Y-25990000D03*
X39470000Y-22910000D03*
X39870000Y-25990000D03*
X39870000Y-22910000D03*
X40270000Y-25990000D03*
X40270000Y-22910000D03*
X40670000Y-25990000D03*
X40670000Y-22910000D03*
X41070000Y-25990000D03*
X41070000Y-22910000D03*
X41470000Y-25990000D03*
X41470000Y-22910000D03*
X41870000Y-25990000D03*
X41870000Y-22910000D03*
X42270000Y-25990000D03*
X42270000Y-22910000D03*
X42670000Y-25990000D03*
X42670000Y-22910000D03*
X43070000Y-25990000D03*
X43070000Y-22910000D03*
X43470000Y-25990000D03*
X43470000Y-22910000D03*
X43870000Y-25990000D03*
X43870000Y-22910000D03*
X44270000Y-25990000D03*
X44270000Y-22910000D03*
X44670000Y-25990000D03*
X44670000Y-22910000D03*
X45070000Y-25990000D03*
X45070000Y-22910000D03*
X45470000Y-25990000D03*
X45470000Y-22910000D03*
X45870000Y-25990000D03*
X45870000Y-22910000D03*
X46270000Y-25990000D03*
X46270000Y-22910000D03*
X46670000Y-25990000D03*
X46670000Y-22910000D03*
X47070000Y-25990000D03*
X47070000Y-22910000D03*
X47470000Y-25990000D03*
X47470000Y-22910000D03*
X47870000Y-25990000D03*
X47870000Y-22910000D03*
X48270000Y-25990000D03*
X48270000Y-22910000D03*
X48670000Y-25990000D03*
X48670000Y-22910000D03*
X49070000Y-25990000D03*
X49070000Y-22910000D03*
X49470000Y-25990000D03*
X49470000Y-22910000D03*
X49870000Y-25990000D03*
X49870000Y-22910000D03*
X50270000Y-25990000D03*
X50270000Y-22910000D03*
X50670000Y-25990000D03*
X50670000Y-22910000D03*
X51070000Y-25990000D03*
X51070000Y-22910000D03*
X51470000Y-25990000D03*
X51470000Y-22910000D03*
X51870000Y-25990000D03*
X51870000Y-22910000D03*
X52270000Y-25990000D03*
X52270000Y-22910000D03*
X52670000Y-25990000D03*
X52670000Y-22910000D03*
X53070000Y-25990000D03*
X53070000Y-22910000D03*
X53470000Y-25990000D03*
X53470000Y-22910000D03*
X53870000Y-25990000D03*
X53870000Y-22910000D03*
X54270000Y-25990000D03*
X54270000Y-22910000D03*
X54670000Y-25990000D03*
X54670000Y-22910000D03*
X55070000Y-25990000D03*
X55070000Y-22910000D03*
X55470000Y-25990000D03*
X55470000Y-22910000D03*
X55870000Y-25990000D03*
X55870000Y-22910000D03*
X56270000Y-25990000D03*
X56270000Y-22910000D03*
D68*
X24970000Y-24910000D03*
X72970000Y-24910000D03*
X72970000Y-57910000D03*
X24970000Y-57910000D03*
G04 #@! TD*
D59*
G04 #@! TO.C,D2*
X145950000Y-74999088D03*
X149250000Y-74999088D03*
G04 #@! TD*
D23*
G04 #@! TO.C,R9*
X100312500Y-77199088D03*
X98487500Y-77199088D03*
G04 #@! TD*
D69*
G04 #@! TO.C,U304*
X143400000Y-72699088D03*
X143400000Y-71429088D03*
X143400000Y-70159088D03*
X143400000Y-68889088D03*
X148600000Y-68889088D03*
X148600000Y-70159088D03*
X148600000Y-71429088D03*
X148600000Y-72699088D03*
G04 #@! TD*
D20*
G04 #@! TO.C,D301*
X120825000Y-45250000D03*
X119075000Y-45250000D03*
G04 #@! TD*
D23*
G04 #@! TO.C,R304*
X123862500Y-79999088D03*
X125687500Y-79999088D03*
G04 #@! TD*
D35*
G04 #@! TO.C,H302*
X166362500Y-24999088D03*
G04 #@! TD*
D25*
G04 #@! TO.C,R308*
X131275000Y-86999088D03*
X133100000Y-86999088D03*
G04 #@! TD*
D66*
G04 #@! TO.C,R18*
X106900000Y-33112500D03*
X106900000Y-31287500D03*
G04 #@! TD*
D32*
G04 #@! TO.C,C3*
X144837500Y-66191047D03*
X142762500Y-66191047D03*
G04 #@! TD*
D59*
G04 #@! TO.C,D5*
X33650000Y-23500000D03*
X30350000Y-23500000D03*
G04 #@! TD*
D25*
G04 #@! TO.C,R22*
X124362500Y-45250000D03*
X122537500Y-45250000D03*
G04 #@! TD*
D21*
G04 #@! TO.C,R13*
X103400000Y-83886588D03*
X103400000Y-85711588D03*
G04 #@! TD*
D70*
G04 #@! TO.C,U6*
X102662500Y-31250000D03*
X102662500Y-32200000D03*
X102662500Y-33150000D03*
X104937500Y-33150000D03*
X104937500Y-31250000D03*
G04 #@! TD*
D23*
G04 #@! TO.C,R16*
X98650000Y-91449088D03*
X96825000Y-91449088D03*
G04 #@! TD*
D21*
G04 #@! TO.C,R10*
X108200000Y-83886588D03*
X108200000Y-85711588D03*
G04 #@! TD*
D12*
G04 #@! TO.C,J306*
X163912500Y-71249088D03*
D13*
X163912500Y-68749088D03*
X163912500Y-66249088D03*
X163912500Y-63749088D03*
G04 #@! TD*
D14*
G04 #@! TO.C,C22*
X113612500Y-86499088D03*
X111887500Y-86499088D03*
G04 #@! TD*
D23*
G04 #@! TO.C,R302*
X125687500Y-86999088D03*
X123862500Y-86999088D03*
G04 #@! TD*
D35*
G04 #@! TO.C,H303*
X25000000Y-95000000D03*
G04 #@! TD*
D14*
G04 #@! TO.C,C303*
X137725000Y-91499088D03*
X136000000Y-91499088D03*
G04 #@! TD*
M02*
