G04 #@! TF.GenerationSoftware,KiCad,Pcbnew,(6.0.2-0)*
G04 #@! TF.CreationDate,2022-04-11T21:35:17-06:00*
G04 #@! TF.ProjectId,CONEPROJ,434f4e45-5052-44f4-9a2e-6b696361645f,rev?*
G04 #@! TF.SameCoordinates,Original*
G04 #@! TF.FileFunction,Legend,Bot*
G04 #@! TF.FilePolarity,Positive*
%FSLAX46Y46*%
G04 Gerber Fmt 4.6, Leading zero omitted, Abs format (unit mm)*
G04 Created by KiCad (PCBNEW (6.0.2-0)) date 2022-04-11 21:35:17*
%MOMM*%
%LPD*%
G01*
G04 APERTURE LIST*
%ADD10C,0.150000*%
%ADD11C,0.120000*%
G04 APERTURE END LIST*
D10*
G04 #@! TO.C,Q7*
X92847619Y-57129761D02*
X92800000Y-57034523D01*
X92704761Y-56939285D01*
X92561904Y-56796428D01*
X92514285Y-56701190D01*
X92514285Y-56605952D01*
X92752380Y-56653571D02*
X92704761Y-56558333D01*
X92609523Y-56463095D01*
X92419047Y-56415476D01*
X92085714Y-56415476D01*
X91895238Y-56463095D01*
X91800000Y-56558333D01*
X91752380Y-56653571D01*
X91752380Y-56844047D01*
X91800000Y-56939285D01*
X91895238Y-57034523D01*
X92085714Y-57082142D01*
X92419047Y-57082142D01*
X92609523Y-57034523D01*
X92704761Y-56939285D01*
X92752380Y-56844047D01*
X92752380Y-56653571D01*
X91752380Y-57415476D02*
X91752380Y-58082142D01*
X92752380Y-57653571D01*
G04 #@! TO.C,Q5*
X103897619Y-57129761D02*
X103850000Y-57034523D01*
X103754761Y-56939285D01*
X103611904Y-56796428D01*
X103564285Y-56701190D01*
X103564285Y-56605952D01*
X103802380Y-56653571D02*
X103754761Y-56558333D01*
X103659523Y-56463095D01*
X103469047Y-56415476D01*
X103135714Y-56415476D01*
X102945238Y-56463095D01*
X102850000Y-56558333D01*
X102802380Y-56653571D01*
X102802380Y-56844047D01*
X102850000Y-56939285D01*
X102945238Y-57034523D01*
X103135714Y-57082142D01*
X103469047Y-57082142D01*
X103659523Y-57034523D01*
X103754761Y-56939285D01*
X103802380Y-56844047D01*
X103802380Y-56653571D01*
X102802380Y-57986904D02*
X102802380Y-57510714D01*
X103278571Y-57463095D01*
X103230952Y-57510714D01*
X103183333Y-57605952D01*
X103183333Y-57844047D01*
X103230952Y-57939285D01*
X103278571Y-57986904D01*
X103373809Y-58034523D01*
X103611904Y-58034523D01*
X103707142Y-57986904D01*
X103754761Y-57939285D01*
X103802380Y-57844047D01*
X103802380Y-57605952D01*
X103754761Y-57510714D01*
X103707142Y-57463095D01*
G04 #@! TO.C,Q6*
X101947619Y-74054761D02*
X101900000Y-73959523D01*
X101804761Y-73864285D01*
X101661904Y-73721428D01*
X101614285Y-73626190D01*
X101614285Y-73530952D01*
X101852380Y-73578571D02*
X101804761Y-73483333D01*
X101709523Y-73388095D01*
X101519047Y-73340476D01*
X101185714Y-73340476D01*
X100995238Y-73388095D01*
X100900000Y-73483333D01*
X100852380Y-73578571D01*
X100852380Y-73769047D01*
X100900000Y-73864285D01*
X100995238Y-73959523D01*
X101185714Y-74007142D01*
X101519047Y-74007142D01*
X101709523Y-73959523D01*
X101804761Y-73864285D01*
X101852380Y-73769047D01*
X101852380Y-73578571D01*
X100852380Y-74864285D02*
X100852380Y-74673809D01*
X100900000Y-74578571D01*
X100947619Y-74530952D01*
X101090476Y-74435714D01*
X101280952Y-74388095D01*
X101661904Y-74388095D01*
X101757142Y-74435714D01*
X101804761Y-74483333D01*
X101852380Y-74578571D01*
X101852380Y-74769047D01*
X101804761Y-74864285D01*
X101757142Y-74911904D01*
X101661904Y-74959523D01*
X101423809Y-74959523D01*
X101328571Y-74911904D01*
X101280952Y-74864285D01*
X101233333Y-74769047D01*
X101233333Y-74578571D01*
X101280952Y-74483333D01*
X101328571Y-74435714D01*
X101423809Y-74388095D01*
G04 #@! TO.C,R303*
X82406547Y-81127380D02*
X82739880Y-80651190D01*
X82977976Y-81127380D02*
X82977976Y-80127380D01*
X82597023Y-80127380D01*
X82501785Y-80175000D01*
X82454166Y-80222619D01*
X82406547Y-80317857D01*
X82406547Y-80460714D01*
X82454166Y-80555952D01*
X82501785Y-80603571D01*
X82597023Y-80651190D01*
X82977976Y-80651190D01*
X82073214Y-80127380D02*
X81454166Y-80127380D01*
X81787500Y-80508333D01*
X81644642Y-80508333D01*
X81549404Y-80555952D01*
X81501785Y-80603571D01*
X81454166Y-80698809D01*
X81454166Y-80936904D01*
X81501785Y-81032142D01*
X81549404Y-81079761D01*
X81644642Y-81127380D01*
X81930357Y-81127380D01*
X82025595Y-81079761D01*
X82073214Y-81032142D01*
X80835119Y-80127380D02*
X80739880Y-80127380D01*
X80644642Y-80175000D01*
X80597023Y-80222619D01*
X80549404Y-80317857D01*
X80501785Y-80508333D01*
X80501785Y-80746428D01*
X80549404Y-80936904D01*
X80597023Y-81032142D01*
X80644642Y-81079761D01*
X80739880Y-81127380D01*
X80835119Y-81127380D01*
X80930357Y-81079761D01*
X80977976Y-81032142D01*
X81025595Y-80936904D01*
X81073214Y-80746428D01*
X81073214Y-80508333D01*
X81025595Y-80317857D01*
X80977976Y-80222619D01*
X80930357Y-80175000D01*
X80835119Y-80127380D01*
X80168452Y-80127380D02*
X79549404Y-80127380D01*
X79882738Y-80508333D01*
X79739880Y-80508333D01*
X79644642Y-80555952D01*
X79597023Y-80603571D01*
X79549404Y-80698809D01*
X79549404Y-80936904D01*
X79597023Y-81032142D01*
X79644642Y-81079761D01*
X79739880Y-81127380D01*
X80025595Y-81127380D01*
X80120833Y-81079761D01*
X80168452Y-81032142D01*
G04 #@! TO.C,Q3*
X91022619Y-74054761D02*
X90975000Y-73959523D01*
X90879761Y-73864285D01*
X90736904Y-73721428D01*
X90689285Y-73626190D01*
X90689285Y-73530952D01*
X90927380Y-73578571D02*
X90879761Y-73483333D01*
X90784523Y-73388095D01*
X90594047Y-73340476D01*
X90260714Y-73340476D01*
X90070238Y-73388095D01*
X89975000Y-73483333D01*
X89927380Y-73578571D01*
X89927380Y-73769047D01*
X89975000Y-73864285D01*
X90070238Y-73959523D01*
X90260714Y-74007142D01*
X90594047Y-74007142D01*
X90784523Y-73959523D01*
X90879761Y-73864285D01*
X90927380Y-73769047D01*
X90927380Y-73578571D01*
X89927380Y-74340476D02*
X89927380Y-74959523D01*
X90308333Y-74626190D01*
X90308333Y-74769047D01*
X90355952Y-74864285D01*
X90403571Y-74911904D01*
X90498809Y-74959523D01*
X90736904Y-74959523D01*
X90832142Y-74911904D01*
X90879761Y-74864285D01*
X90927380Y-74769047D01*
X90927380Y-74483333D01*
X90879761Y-74388095D01*
X90832142Y-74340476D01*
G04 #@! TO.C,R27*
X90777380Y-65507142D02*
X90301190Y-65173809D01*
X90777380Y-64935714D02*
X89777380Y-64935714D01*
X89777380Y-65316666D01*
X89825000Y-65411904D01*
X89872619Y-65459523D01*
X89967857Y-65507142D01*
X90110714Y-65507142D01*
X90205952Y-65459523D01*
X90253571Y-65411904D01*
X90301190Y-65316666D01*
X90301190Y-64935714D01*
X89872619Y-65888095D02*
X89825000Y-65935714D01*
X89777380Y-66030952D01*
X89777380Y-66269047D01*
X89825000Y-66364285D01*
X89872619Y-66411904D01*
X89967857Y-66459523D01*
X90063095Y-66459523D01*
X90205952Y-66411904D01*
X90777380Y-65840476D01*
X90777380Y-66459523D01*
X89777380Y-66792857D02*
X89777380Y-67459523D01*
X90777380Y-67030952D01*
G04 #@! TO.C,R31*
X82455357Y-82752380D02*
X82788690Y-82276190D01*
X83026785Y-82752380D02*
X83026785Y-81752380D01*
X82645833Y-81752380D01*
X82550595Y-81800000D01*
X82502976Y-81847619D01*
X82455357Y-81942857D01*
X82455357Y-82085714D01*
X82502976Y-82180952D01*
X82550595Y-82228571D01*
X82645833Y-82276190D01*
X83026785Y-82276190D01*
X82122023Y-81752380D02*
X81502976Y-81752380D01*
X81836309Y-82133333D01*
X81693452Y-82133333D01*
X81598214Y-82180952D01*
X81550595Y-82228571D01*
X81502976Y-82323809D01*
X81502976Y-82561904D01*
X81550595Y-82657142D01*
X81598214Y-82704761D01*
X81693452Y-82752380D01*
X81979166Y-82752380D01*
X82074404Y-82704761D01*
X82122023Y-82657142D01*
X80550595Y-82752380D02*
X81122023Y-82752380D01*
X80836309Y-82752380D02*
X80836309Y-81752380D01*
X80931547Y-81895238D01*
X81026785Y-81990476D01*
X81122023Y-82038095D01*
G04 #@! TO.C,R9*
X96352380Y-59508333D02*
X95876190Y-59175000D01*
X96352380Y-58936904D02*
X95352380Y-58936904D01*
X95352380Y-59317857D01*
X95400000Y-59413095D01*
X95447619Y-59460714D01*
X95542857Y-59508333D01*
X95685714Y-59508333D01*
X95780952Y-59460714D01*
X95828571Y-59413095D01*
X95876190Y-59317857D01*
X95876190Y-58936904D01*
X96352380Y-59984523D02*
X96352380Y-60175000D01*
X96304761Y-60270238D01*
X96257142Y-60317857D01*
X96114285Y-60413095D01*
X95923809Y-60460714D01*
X95542857Y-60460714D01*
X95447619Y-60413095D01*
X95400000Y-60365476D01*
X95352380Y-60270238D01*
X95352380Y-60079761D01*
X95400000Y-59984523D01*
X95447619Y-59936904D01*
X95542857Y-59889285D01*
X95780952Y-59889285D01*
X95876190Y-59936904D01*
X95923809Y-59984523D01*
X95971428Y-60079761D01*
X95971428Y-60270238D01*
X95923809Y-60365476D01*
X95876190Y-60413095D01*
X95780952Y-60460714D01*
G04 #@! TO.C,Q4*
X96547619Y-74254761D02*
X96500000Y-74159523D01*
X96404761Y-74064285D01*
X96261904Y-73921428D01*
X96214285Y-73826190D01*
X96214285Y-73730952D01*
X96452380Y-73778571D02*
X96404761Y-73683333D01*
X96309523Y-73588095D01*
X96119047Y-73540476D01*
X95785714Y-73540476D01*
X95595238Y-73588095D01*
X95500000Y-73683333D01*
X95452380Y-73778571D01*
X95452380Y-73969047D01*
X95500000Y-74064285D01*
X95595238Y-74159523D01*
X95785714Y-74207142D01*
X96119047Y-74207142D01*
X96309523Y-74159523D01*
X96404761Y-74064285D01*
X96452380Y-73969047D01*
X96452380Y-73778571D01*
X95785714Y-75064285D02*
X96452380Y-75064285D01*
X95404761Y-74826190D02*
X96119047Y-74588095D01*
X96119047Y-75207142D01*
G04 #@! TO.C,R10*
X101927380Y-65182142D02*
X101451190Y-64848809D01*
X101927380Y-64610714D02*
X100927380Y-64610714D01*
X100927380Y-64991666D01*
X100975000Y-65086904D01*
X101022619Y-65134523D01*
X101117857Y-65182142D01*
X101260714Y-65182142D01*
X101355952Y-65134523D01*
X101403571Y-65086904D01*
X101451190Y-64991666D01*
X101451190Y-64610714D01*
X101927380Y-66134523D02*
X101927380Y-65563095D01*
X101927380Y-65848809D02*
X100927380Y-65848809D01*
X101070238Y-65753571D01*
X101165476Y-65658333D01*
X101213095Y-65563095D01*
X100927380Y-66753571D02*
X100927380Y-66848809D01*
X100975000Y-66944047D01*
X101022619Y-66991666D01*
X101117857Y-67039285D01*
X101308333Y-67086904D01*
X101546428Y-67086904D01*
X101736904Y-67039285D01*
X101832142Y-66991666D01*
X101879761Y-66944047D01*
X101927380Y-66848809D01*
X101927380Y-66753571D01*
X101879761Y-66658333D01*
X101832142Y-66610714D01*
X101736904Y-66563095D01*
X101546428Y-66515476D01*
X101308333Y-66515476D01*
X101117857Y-66563095D01*
X101022619Y-66610714D01*
X100975000Y-66658333D01*
X100927380Y-66753571D01*
G04 #@! TO.C,R29*
X81892857Y-88877380D02*
X82226190Y-88401190D01*
X82464285Y-88877380D02*
X82464285Y-87877380D01*
X82083333Y-87877380D01*
X81988095Y-87925000D01*
X81940476Y-87972619D01*
X81892857Y-88067857D01*
X81892857Y-88210714D01*
X81940476Y-88305952D01*
X81988095Y-88353571D01*
X82083333Y-88401190D01*
X82464285Y-88401190D01*
X81511904Y-87972619D02*
X81464285Y-87925000D01*
X81369047Y-87877380D01*
X81130952Y-87877380D01*
X81035714Y-87925000D01*
X80988095Y-87972619D01*
X80940476Y-88067857D01*
X80940476Y-88163095D01*
X80988095Y-88305952D01*
X81559523Y-88877380D01*
X80940476Y-88877380D01*
X80464285Y-88877380D02*
X80273809Y-88877380D01*
X80178571Y-88829761D01*
X80130952Y-88782142D01*
X80035714Y-88639285D01*
X79988095Y-88448809D01*
X79988095Y-88067857D01*
X80035714Y-87972619D01*
X80083333Y-87925000D01*
X80178571Y-87877380D01*
X80369047Y-87877380D01*
X80464285Y-87925000D01*
X80511904Y-87972619D01*
X80559523Y-88067857D01*
X80559523Y-88305952D01*
X80511904Y-88401190D01*
X80464285Y-88448809D01*
X80369047Y-88496428D01*
X80178571Y-88496428D01*
X80083333Y-88448809D01*
X80035714Y-88401190D01*
X79988095Y-88305952D01*
G04 #@! TO.C,R304*
X82019047Y-84277380D02*
X82352380Y-83801190D01*
X82590476Y-84277380D02*
X82590476Y-83277380D01*
X82209523Y-83277380D01*
X82114285Y-83325000D01*
X82066666Y-83372619D01*
X82019047Y-83467857D01*
X82019047Y-83610714D01*
X82066666Y-83705952D01*
X82114285Y-83753571D01*
X82209523Y-83801190D01*
X82590476Y-83801190D01*
X81685714Y-83277380D02*
X81066666Y-83277380D01*
X81400000Y-83658333D01*
X81257142Y-83658333D01*
X81161904Y-83705952D01*
X81114285Y-83753571D01*
X81066666Y-83848809D01*
X81066666Y-84086904D01*
X81114285Y-84182142D01*
X81161904Y-84229761D01*
X81257142Y-84277380D01*
X81542857Y-84277380D01*
X81638095Y-84229761D01*
X81685714Y-84182142D01*
X80447619Y-83277380D02*
X80352380Y-83277380D01*
X80257142Y-83325000D01*
X80209523Y-83372619D01*
X80161904Y-83467857D01*
X80114285Y-83658333D01*
X80114285Y-83896428D01*
X80161904Y-84086904D01*
X80209523Y-84182142D01*
X80257142Y-84229761D01*
X80352380Y-84277380D01*
X80447619Y-84277380D01*
X80542857Y-84229761D01*
X80590476Y-84182142D01*
X80638095Y-84086904D01*
X80685714Y-83896428D01*
X80685714Y-83658333D01*
X80638095Y-83467857D01*
X80590476Y-83372619D01*
X80542857Y-83325000D01*
X80447619Y-83277380D01*
X79257142Y-83610714D02*
X79257142Y-84277380D01*
X79495238Y-83229761D02*
X79733333Y-83944047D01*
X79114285Y-83944047D01*
G04 #@! TO.C,TP3*
X80161904Y-107702380D02*
X79590476Y-107702380D01*
X79876190Y-108702380D02*
X79876190Y-107702380D01*
X79257142Y-108702380D02*
X79257142Y-107702380D01*
X78876190Y-107702380D01*
X78780952Y-107750000D01*
X78733333Y-107797619D01*
X78685714Y-107892857D01*
X78685714Y-108035714D01*
X78733333Y-108130952D01*
X78780952Y-108178571D01*
X78876190Y-108226190D01*
X79257142Y-108226190D01*
X78352380Y-107702380D02*
X77733333Y-107702380D01*
X78066666Y-108083333D01*
X77923809Y-108083333D01*
X77828571Y-108130952D01*
X77780952Y-108178571D01*
X77733333Y-108273809D01*
X77733333Y-108511904D01*
X77780952Y-108607142D01*
X77828571Y-108654761D01*
X77923809Y-108702380D01*
X78209523Y-108702380D01*
X78304761Y-108654761D01*
X78352380Y-108607142D01*
G04 #@! TO.C,R13*
X98927380Y-65532142D02*
X98451190Y-65198809D01*
X98927380Y-64960714D02*
X97927380Y-64960714D01*
X97927380Y-65341666D01*
X97975000Y-65436904D01*
X98022619Y-65484523D01*
X98117857Y-65532142D01*
X98260714Y-65532142D01*
X98355952Y-65484523D01*
X98403571Y-65436904D01*
X98451190Y-65341666D01*
X98451190Y-64960714D01*
X98927380Y-66484523D02*
X98927380Y-65913095D01*
X98927380Y-66198809D02*
X97927380Y-66198809D01*
X98070238Y-66103571D01*
X98165476Y-66008333D01*
X98213095Y-65913095D01*
X97927380Y-66817857D02*
X97927380Y-67436904D01*
X98308333Y-67103571D01*
X98308333Y-67246428D01*
X98355952Y-67341666D01*
X98403571Y-67389285D01*
X98498809Y-67436904D01*
X98736904Y-67436904D01*
X98832142Y-67389285D01*
X98879761Y-67341666D01*
X98927380Y-67246428D01*
X98927380Y-66960714D01*
X98879761Y-66865476D01*
X98832142Y-66817857D01*
G04 #@! TO.C,R24*
X93327380Y-65507142D02*
X92851190Y-65173809D01*
X93327380Y-64935714D02*
X92327380Y-64935714D01*
X92327380Y-65316666D01*
X92375000Y-65411904D01*
X92422619Y-65459523D01*
X92517857Y-65507142D01*
X92660714Y-65507142D01*
X92755952Y-65459523D01*
X92803571Y-65411904D01*
X92851190Y-65316666D01*
X92851190Y-64935714D01*
X92422619Y-65888095D02*
X92375000Y-65935714D01*
X92327380Y-66030952D01*
X92327380Y-66269047D01*
X92375000Y-66364285D01*
X92422619Y-66411904D01*
X92517857Y-66459523D01*
X92613095Y-66459523D01*
X92755952Y-66411904D01*
X93327380Y-65840476D01*
X93327380Y-66459523D01*
X92660714Y-67316666D02*
X93327380Y-67316666D01*
X92279761Y-67078571D02*
X92994047Y-66840476D01*
X92994047Y-67459523D01*
G04 #@! TO.C,R302*
X82019047Y-85802380D02*
X82352380Y-85326190D01*
X82590476Y-85802380D02*
X82590476Y-84802380D01*
X82209523Y-84802380D01*
X82114285Y-84850000D01*
X82066666Y-84897619D01*
X82019047Y-84992857D01*
X82019047Y-85135714D01*
X82066666Y-85230952D01*
X82114285Y-85278571D01*
X82209523Y-85326190D01*
X82590476Y-85326190D01*
X81685714Y-84802380D02*
X81066666Y-84802380D01*
X81400000Y-85183333D01*
X81257142Y-85183333D01*
X81161904Y-85230952D01*
X81114285Y-85278571D01*
X81066666Y-85373809D01*
X81066666Y-85611904D01*
X81114285Y-85707142D01*
X81161904Y-85754761D01*
X81257142Y-85802380D01*
X81542857Y-85802380D01*
X81638095Y-85754761D01*
X81685714Y-85707142D01*
X80447619Y-84802380D02*
X80352380Y-84802380D01*
X80257142Y-84850000D01*
X80209523Y-84897619D01*
X80161904Y-84992857D01*
X80114285Y-85183333D01*
X80114285Y-85421428D01*
X80161904Y-85611904D01*
X80209523Y-85707142D01*
X80257142Y-85754761D01*
X80352380Y-85802380D01*
X80447619Y-85802380D01*
X80542857Y-85754761D01*
X80590476Y-85707142D01*
X80638095Y-85611904D01*
X80685714Y-85421428D01*
X80685714Y-85183333D01*
X80638095Y-84992857D01*
X80590476Y-84897619D01*
X80542857Y-84850000D01*
X80447619Y-84802380D01*
X79733333Y-84897619D02*
X79685714Y-84850000D01*
X79590476Y-84802380D01*
X79352380Y-84802380D01*
X79257142Y-84850000D01*
X79209523Y-84897619D01*
X79161904Y-84992857D01*
X79161904Y-85088095D01*
X79209523Y-85230952D01*
X79780952Y-85802380D01*
X79161904Y-85802380D01*
G04 #@! TO.C,Q2*
X98347619Y-57129761D02*
X98300000Y-57034523D01*
X98204761Y-56939285D01*
X98061904Y-56796428D01*
X98014285Y-56701190D01*
X98014285Y-56605952D01*
X98252380Y-56653571D02*
X98204761Y-56558333D01*
X98109523Y-56463095D01*
X97919047Y-56415476D01*
X97585714Y-56415476D01*
X97395238Y-56463095D01*
X97300000Y-56558333D01*
X97252380Y-56653571D01*
X97252380Y-56844047D01*
X97300000Y-56939285D01*
X97395238Y-57034523D01*
X97585714Y-57082142D01*
X97919047Y-57082142D01*
X98109523Y-57034523D01*
X98204761Y-56939285D01*
X98252380Y-56844047D01*
X98252380Y-56653571D01*
X97347619Y-57463095D02*
X97300000Y-57510714D01*
X97252380Y-57605952D01*
X97252380Y-57844047D01*
X97300000Y-57939285D01*
X97347619Y-57986904D01*
X97442857Y-58034523D01*
X97538095Y-58034523D01*
X97680952Y-57986904D01*
X98252380Y-57415476D01*
X98252380Y-58034523D01*
G04 #@! TO.C,TP2*
X75761904Y-107702380D02*
X75190476Y-107702380D01*
X75476190Y-108702380D02*
X75476190Y-107702380D01*
X74857142Y-108702380D02*
X74857142Y-107702380D01*
X74476190Y-107702380D01*
X74380952Y-107750000D01*
X74333333Y-107797619D01*
X74285714Y-107892857D01*
X74285714Y-108035714D01*
X74333333Y-108130952D01*
X74380952Y-108178571D01*
X74476190Y-108226190D01*
X74857142Y-108226190D01*
X73904761Y-107797619D02*
X73857142Y-107750000D01*
X73761904Y-107702380D01*
X73523809Y-107702380D01*
X73428571Y-107750000D01*
X73380952Y-107797619D01*
X73333333Y-107892857D01*
X73333333Y-107988095D01*
X73380952Y-108130952D01*
X73952380Y-108702380D01*
X73333333Y-108702380D01*
G04 #@! TO.C,R14*
X104552380Y-65132142D02*
X104076190Y-64798809D01*
X104552380Y-64560714D02*
X103552380Y-64560714D01*
X103552380Y-64941666D01*
X103600000Y-65036904D01*
X103647619Y-65084523D01*
X103742857Y-65132142D01*
X103885714Y-65132142D01*
X103980952Y-65084523D01*
X104028571Y-65036904D01*
X104076190Y-64941666D01*
X104076190Y-64560714D01*
X104552380Y-66084523D02*
X104552380Y-65513095D01*
X104552380Y-65798809D02*
X103552380Y-65798809D01*
X103695238Y-65703571D01*
X103790476Y-65608333D01*
X103838095Y-65513095D01*
X103885714Y-66941666D02*
X104552380Y-66941666D01*
X103504761Y-66703571D02*
X104219047Y-66465476D01*
X104219047Y-67084523D01*
G04 #@! TO.C,R23*
X81992857Y-87302380D02*
X82326190Y-86826190D01*
X82564285Y-87302380D02*
X82564285Y-86302380D01*
X82183333Y-86302380D01*
X82088095Y-86350000D01*
X82040476Y-86397619D01*
X81992857Y-86492857D01*
X81992857Y-86635714D01*
X82040476Y-86730952D01*
X82088095Y-86778571D01*
X82183333Y-86826190D01*
X82564285Y-86826190D01*
X81611904Y-86397619D02*
X81564285Y-86350000D01*
X81469047Y-86302380D01*
X81230952Y-86302380D01*
X81135714Y-86350000D01*
X81088095Y-86397619D01*
X81040476Y-86492857D01*
X81040476Y-86588095D01*
X81088095Y-86730952D01*
X81659523Y-87302380D01*
X81040476Y-87302380D01*
X80707142Y-86302380D02*
X80088095Y-86302380D01*
X80421428Y-86683333D01*
X80278571Y-86683333D01*
X80183333Y-86730952D01*
X80135714Y-86778571D01*
X80088095Y-86873809D01*
X80088095Y-87111904D01*
X80135714Y-87207142D01*
X80183333Y-87254761D01*
X80278571Y-87302380D01*
X80564285Y-87302380D01*
X80659523Y-87254761D01*
X80707142Y-87207142D01*
D11*
G04 #@! TO.C,Q7*
X94860000Y-57225000D02*
X94860000Y-60675000D01*
X94860000Y-57225000D02*
X94860000Y-55275000D01*
X89740000Y-57225000D02*
X89740000Y-55275000D01*
X89740000Y-57225000D02*
X89740000Y-59175000D01*
G04 #@! TO.C,Q5*
X105910000Y-57225000D02*
X105910000Y-60675000D01*
X100790000Y-57225000D02*
X100790000Y-59175000D01*
X105910000Y-57225000D02*
X105910000Y-55275000D01*
X100790000Y-57225000D02*
X100790000Y-55275000D01*
G04 #@! TO.C,Q6*
X103960000Y-74150000D02*
X103960000Y-77600000D01*
X98840000Y-74150000D02*
X98840000Y-72200000D01*
X103960000Y-74150000D02*
X103960000Y-72200000D01*
X98840000Y-74150000D02*
X98840000Y-76100000D01*
G04 #@! TO.C,R303*
X85129724Y-80152500D02*
X84620276Y-80152500D01*
X85129724Y-81197500D02*
X84620276Y-81197500D01*
G04 #@! TO.C,Q3*
X87815000Y-74150000D02*
X87815000Y-76100000D01*
X92935000Y-74150000D02*
X92935000Y-77600000D01*
X87815000Y-74150000D02*
X87815000Y-72200000D01*
X92935000Y-74150000D02*
X92935000Y-72200000D01*
G04 #@! TO.C,R27*
X89802500Y-62395276D02*
X89802500Y-62904724D01*
X90847500Y-62395276D02*
X90847500Y-62904724D01*
G04 #@! TO.C,R31*
X85154724Y-81777500D02*
X84645276Y-81777500D01*
X85154724Y-82822500D02*
X84645276Y-82822500D01*
G04 #@! TO.C,R9*
X96422500Y-62420276D02*
X96422500Y-62929724D01*
X95377500Y-62420276D02*
X95377500Y-62929724D01*
G04 #@! TO.C,Q4*
X93340000Y-74150000D02*
X93340000Y-76100000D01*
X98460000Y-74150000D02*
X98460000Y-72200000D01*
X93340000Y-74150000D02*
X93340000Y-72200000D01*
X98460000Y-74150000D02*
X98460000Y-77600000D01*
G04 #@! TO.C,R10*
X101997500Y-62420276D02*
X101997500Y-62929724D01*
X100952500Y-62420276D02*
X100952500Y-62929724D01*
G04 #@! TO.C,R29*
X85154724Y-87952500D02*
X84645276Y-87952500D01*
X85154724Y-88997500D02*
X84645276Y-88997500D01*
G04 #@! TO.C,R304*
X85154724Y-84347500D02*
X84645276Y-84347500D01*
X85154724Y-83302500D02*
X84645276Y-83302500D01*
G04 #@! TO.C,TP3*
X78350000Y-110250000D02*
G75*
G03*
X78350000Y-110250000I-700000J0D01*
G01*
G04 #@! TO.C,R13*
X98997500Y-62420276D02*
X98997500Y-62929724D01*
X97952500Y-62420276D02*
X97952500Y-62929724D01*
G04 #@! TO.C,R24*
X93397500Y-62395276D02*
X93397500Y-62904724D01*
X92352500Y-62395276D02*
X92352500Y-62904724D01*
G04 #@! TO.C,R302*
X85154724Y-84827500D02*
X84645276Y-84827500D01*
X85154724Y-85872500D02*
X84645276Y-85872500D01*
G04 #@! TO.C,Q2*
X95240000Y-57225000D02*
X95240000Y-55275000D01*
X100360000Y-57225000D02*
X100360000Y-55275000D01*
X100360000Y-57225000D02*
X100360000Y-60675000D01*
X95240000Y-57225000D02*
X95240000Y-59175000D01*
G04 #@! TO.C,TP2*
X76200000Y-110250000D02*
G75*
G03*
X76200000Y-110250000I-700000J0D01*
G01*
G04 #@! TO.C,R14*
X104597500Y-62420276D02*
X104597500Y-62929724D01*
X103552500Y-62420276D02*
X103552500Y-62929724D01*
G04 #@! TO.C,R23*
X85154724Y-86377500D02*
X84645276Y-86377500D01*
X85154724Y-87422500D02*
X84645276Y-87422500D01*
G04 #@! TD*
M02*
