M48
INCH,TZ
T1C0.0079
T2C0.0138
T3C0.0157
T4C0.0283
T5C0.0509
T6C0.1260
%
G90
G05
T1
X14862Y-45866
X16585Y-30187
X16594Y-29941
X16604Y-29409
X16604Y-29685
X19193Y-34488
X19469Y-34488
X19823Y-28465
X20098Y-46535
X20177Y-28868
X20177Y-29419
X20541Y-29419
X20551Y-29833
X20561Y-30108
X20630Y-46535
X20902Y-45772
X20984Y-31043
X20994Y-30738
X21004Y-30423
X21260Y-43848
X21260Y-44252
X21260Y-45772
X21555Y-46638
X21575Y-47717
X21791Y-46870
X21900Y-28465
X22008Y-44016
X22008Y-46004
X22146Y-29409
X22254Y-43868
X22254Y-45217
X22323Y-47461
X22539Y-43701
X22539Y-45482
X22638Y-30118
X22933Y-29833
X23179Y-28868
X23268Y-52717
X23268Y-52992
X23435Y-26299
X23504Y-44055
X23504Y-46102
X23583Y-34173
X23583Y-34449
X23760Y-28465
X23976Y-44055
X23976Y-46102
X24154Y-29390
X24390Y-30108
X24449Y-44055
X24449Y-46102
X24636Y-29823
X24734Y-26299
X24823Y-46319
X24921Y-28858
X25079Y-44055
X25157Y-46319
X25394Y-46516
X25472Y-50650
X25650Y-46850
X25738Y-43701
X25886Y-47185
X25965Y-44055
X26024Y-46102
X26043Y-26309
X26693Y-44055
X26693Y-46102
X26969Y-47461
X27126Y-43701
X27283Y-47717
X27402Y-44055
X27441Y-44980
X27598Y-46102
X27736Y-44980
X28031Y-46102
X28228Y-44980
X28248Y-44055
X28701Y-25709
X28740Y-44980
X28819Y-47717
X29016Y-25709
X29075Y-30098
X29075Y-30472
X29110Y-47453
X29173Y-44055
X29315Y-47213
X29331Y-46378
X29488Y-44085
X29516Y-46201
X29528Y-47031
X29724Y-43829
X29961Y-44085
X30567Y-44083
X31220Y-44055
X31732Y-21634
X31998Y-21634
X32244Y-21634
X32480Y-21644
X32589Y-24911
X32756Y-21654
X33002Y-21644
X33268Y-22343
X33701Y-21358
X33937Y-21358
X33976Y-44646
X34055Y-47874
X34173Y-35965
X34173Y-44134
X34183Y-21358
X34350Y-22894
X34429Y-21358
X34429Y-27274
X34429Y-27608
X34429Y-35669
X34429Y-44134
X34665Y-21358
X34715Y-22904
X34803Y-27274
X34803Y-27608
X34902Y-21358
X35148Y-21358
X35630Y-23031
X35846Y-46894
X36283Y-46929
X36319Y-23031
X36724Y-46933
X36728Y-46657
X37146Y-47638
X37411Y-26959
X37559Y-47874
X37687Y-26959
X38661Y-35669
X38661Y-35965
X39254Y-24894
X39390Y-37146
X39488Y-34114
X39882Y-36230
X40404Y-28583
X41299Y-28583
T2
X34045Y-24911
X34045Y-25413
X34045Y-25915
X34547Y-24911
X34547Y-25413
X34547Y-25915
X35049Y-24911
X35049Y-25413
X35049Y-25915
T3
X10020Y-22165
X11024Y-25000
X11437Y-47657
X11437Y-48809
X12126Y-21417
X12185Y-44195
X12402Y-51378
X12402Y-52175
X13189Y-22165
X13386Y-29528
X13976Y-29528
X14252Y-23071
X14370Y-26772
X14370Y-27362
X14370Y-27953
X14370Y-28543
X14370Y-29134
X14409Y-22165
X15256Y-22165
X18169Y-23642
X18169Y-24449
X18169Y-26693
X19380Y-48228
X20846Y-21417
X21742Y-21270
X22047Y-53730
X22057Y-19774
X24114Y-49921
X24380Y-19783
X25374Y-25098
X28376Y-24882
X29370Y-18445
X29980Y-19783
X29990Y-23858
X30030Y-27372
X31339Y-23868
X33061Y-31289
X33228Y-51555
X35335Y-29656
X36339Y-29656
X36713Y-48307
X36811Y-41132
X36811Y-43110
X37510Y-29656
X37579Y-48307
X38514Y-29646
X38799Y-45787
X38799Y-46358
X39449Y-48307
X39665Y-29636
X40246Y-36377
X40354Y-41142
X40354Y-43110
X40679Y-29636
X41447Y-22943
X41545Y-49498
X42018Y-28228
X42451Y-28219
X42913Y-28228
T4
X25959Y-51047
X25959Y-51547
X26459Y-51047
X26459Y-51547
X26959Y-51047
X26959Y-51547
X27459Y-51047
X27459Y-51547
X27959Y-51047
X27959Y-51547
X28459Y-51047
X28459Y-51547
X28959Y-51047
X28959Y-51547
X29459Y-51047
X29459Y-51547
X29959Y-51047
X29959Y-51547
X30459Y-51047
X30459Y-51547
X30959Y-51047
X30959Y-51547
X31459Y-51047
X31459Y-51547
T5
X11427Y-17732
X11427Y-20232
X13077Y-17732
X13077Y-20232
X14726Y-17732
X14726Y-20232
X16376Y-17732
X16376Y-20232
X18026Y-17732
X18026Y-20232
X19675Y-17732
X19675Y-20232
X33081Y-17732
X33081Y-20232
X34730Y-17732
X34730Y-20232
X36380Y-17732
X36380Y-20232
X38030Y-17732
X38030Y-20232
X39679Y-17732
X39679Y-20232
X41329Y-17732
X41329Y-20232
T6
X26378Y-18504
X26378Y-29134
T0
M30
