M48
; DRILL file {KiCad (6.0.2)} date Fri 08 Apr 2022 02:26:35 PM MDT
; FORMAT={2:4/ absolute / inch / suppress leading zeros}
; #@! TF.CreationDate,2022-04-08T14:26:35-06:00
; #@! TF.GenerationSoftware,Kicad,Pcbnew,(6.0.2)
; #@! TF.FileFunction,Plated,1,4,PTH
FMAT,2
INCH,TZ
; #@! TA.AperFunction,Plated,PTH,ViaDrill
T1C0.0079
; #@! TA.AperFunction,Plated,PTH,ComponentDrill
T2C0.0118
; #@! TA.AperFunction,Plated,PTH,ViaDrill
T3C0.0157
; #@! TA.AperFunction,Plated,PTH,ComponentDrill
T4C0.0276
; #@! TA.AperFunction,Plated,PTH,ComponentDrill
T5C0.0362
; #@! TA.AperFunction,Plated,PTH,ComponentDrill
T6C0.0374
; #@! TA.AperFunction,Plated,PTH,ComponentDrill
T7C0.0402
; #@! TA.AperFunction,Plated,PTH,ComponentDrill
T8C0.0917
; #@! TA.AperFunction,Plated,PTH,ComponentDrill
T9C0.1260
%
G90
G05
T1
X11744Y-15842
X11772Y-12362
X12000Y-15836
X12068Y-12362
X12295Y-15840
X12323Y-12362
X12551Y-15835
X12579Y-12362
X12590Y-13693
X12835Y-12362
X12835Y-15827
X13150Y-12362
X14336Y-16387
X14528Y-11024
X14803Y-10551
X14843Y-11142
X15315Y-11142
X15591Y-10512
X15591Y-11142
X15827Y-9882
X16142Y-10512
X16142Y-11142
X16417Y-9803
X16496Y-11024
X16654Y-8622
X16729Y-9777
X16817Y-15968
X16929Y-16378
X16963Y-9404
X17008Y-13671
X17126Y-8622
X17126Y-11024
X17314Y-9637
X17559Y-16378
X17598Y-8622
X17598Y-9843
X17756Y-9409
X17795Y-15969
X18071Y-8465
X18071Y-9409
X18228Y-9843
X18386Y-8465
X18445Y-14469
X18480Y-18858
X18480Y-19402
X18504Y-19764
X18701Y-8465
X18780Y-9449
X19094Y-8465
X19094Y-9843
X19094Y-19764
X19094Y-20118
X19488Y-9843
X19646Y-20551
X19646Y-21024
X19657Y-19358
X19764Y-8465
X19949Y-9602
X19961Y-21220
X20315Y-15630
X20354Y-8465
X20433Y-9488
X20669Y-8465
X20681Y-20894
X20689Y-9488
X20984Y-14429
X21063Y-20984
X21191Y-14642
X22931Y-10812
X23110Y-10630
X23307Y-10394
X23637Y-10014
X23709Y-17634
X23801Y-9817
X24120Y-9418
X24304Y-9240
X24331Y-24016
X24343Y-18579
X24370Y-23386
X24370Y-23740
X24386Y-17921
X24488Y-9010
X24646Y-23386
X24672Y-8833
X24853Y-8651
X25087Y-15386
X25276Y-17844
X26220Y-16772
X26339Y-15167
X26732Y-15374
X28327Y-17844
X28332Y-18386
X28346Y-17087
X29488Y-11378
X29567Y-13465
X29567Y-13780
X29697Y-11575
X29764Y-14045
X29921Y-11850
X30118Y-26791
X30126Y-34330
X30374Y-26906
X30390Y-34330
X30630Y-26787
X30630Y-34330
X30890Y-34138
X30902Y-25327
X31098Y-25177
X31232Y-33898
X31386Y-31374
X31516Y-36870
X31622Y-25689
X31630Y-32181
X31654Y-25173
X31921Y-32161
X32311Y-25791
X32441Y-17362
X32677Y-13957
X33110Y-13780
X33287Y-34252
X33543Y-13622
X34409Y-11378
X34724Y-23228
X35079Y-23622
X35276Y-11969
X35709Y-12165
X36024Y-24921
X36339Y-24921
X36339Y-31378
X36831Y-32854
X37067Y-34338
X37356Y-35132
X37516Y-34932
X37613Y-36732
X37677Y-34734
X37874Y-34567
X39503Y-36850
X39850Y-25350
X40079Y-30945
X40079Y-31259
X40472Y-26437
X40476Y-26020
X40866Y-12795
X40878Y-25567
X41039Y-25787
X41408Y-31289
X41416Y-31573
X41417Y-30984
X42087Y-15315
X42835Y-18898
X43465Y-19094
X43583Y-36220
X43661Y-34567
X44055Y-12441
X44055Y-12717
X44606Y-11220
X44921Y-11260
X45118Y-14488
X45394Y-34803
X45535Y-21618
X45866Y-35728
X45866Y-36614
X61496Y-14842
T2
X15321Y-15895
X15321Y-16288
T3
X11339Y-9252
X11339Y-11811
X11575Y-24567
X13543Y-22874
X14322Y-15029
X16329Y-15029
X23465Y-22874
X27835Y-15276
X36929Y-32204
X37598Y-22283
X37638Y-17323
X37874Y-16772
X38110Y-17323
X38346Y-16772
X38386Y-32874
X38583Y-17323
X38780Y-19055
X38780Y-29803
X38819Y-16772
X38898Y-23583
X39055Y-17323
X39843Y-16772
X40079Y-33740
X43780Y-28740
X45551Y-12047
X45748Y-34527
X46181Y-17835
X46181Y-18504
X46410Y-31514
X46417Y-32301
X46417Y-32716
X46418Y-31907
X46441Y-31121
X48189Y-31338
X48194Y-32480
X48223Y-34242
X49610Y-17815
X49638Y-18496
X49657Y-19134
X52362Y-13779
X52874Y-36023
X54331Y-13779
X54449Y-29488
X54449Y-32244
X55157Y-35157
X55433Y-28622
X55433Y-29488
X55433Y-32244
X56520Y-29500
X57283Y-21720
X57748Y-21087
X59465Y-26059
X60240Y-17429
X60984Y-13385
X61024Y-23228
X61024Y-25590
X61024Y-26771
X61028Y-24409
X62205Y-23228
X62205Y-24409
X62205Y-25590
X62283Y-14567
X63079Y-19870
T4
X62210Y-31299
X62210Y-34055
X63863Y-31299
X63863Y-34055
T5
X63529Y-14567
X63529Y-15551
X64316Y-14567
X64316Y-15551
T6
X64531Y-19677
X64531Y-20661
X64531Y-21646
X64531Y-22630
X64532Y-25098
X64532Y-26082
X64532Y-27067
X64532Y-28051
T7
X9004Y-27406
X9004Y-34406
X10004Y-27406
X10004Y-34406
X11004Y-27406
X11004Y-34406
X12004Y-27406
X12004Y-34406
X13004Y-27406
X13004Y-34406
X14004Y-27406
X14004Y-34406
X15004Y-27406
X15004Y-34406
X16004Y-27406
X16004Y-34406
X17004Y-27406
X17004Y-34406
X18004Y-27406
X18004Y-34406
X19004Y-27406
X19004Y-34406
X20004Y-27406
X20004Y-34406
X21004Y-27406
X21004Y-34406
X22004Y-27406
X22004Y-34406
X23004Y-27406
X23004Y-34406
X24004Y-27406
X24004Y-34406
X25004Y-27406
X25004Y-34406
X26004Y-27406
X26004Y-34406
X27004Y-27406
X27004Y-34406
X27913Y-29906
X27913Y-30906
X27913Y-31906
X28004Y-27406
X28004Y-34406
T8
X65383Y-12689
X65383Y-17429
T9
X9843Y-37402
X65497Y-9842
X65497Y-37401
T0
M30
