G04 #@! TF.GenerationSoftware,KiCad,Pcbnew,(6.0.2-0)*
G04 #@! TF.CreationDate,2022-04-07T20:49:23-06:00*
G04 #@! TF.ProjectId,CONEPROJ,434f4e45-5052-44f4-9a2e-6b696361645f,rev?*
G04 #@! TF.SameCoordinates,Original*
G04 #@! TF.FileFunction,Soldermask,Bot*
G04 #@! TF.FilePolarity,Negative*
%FSLAX46Y46*%
G04 Gerber Fmt 4.6, Leading zero omitted, Abs format (unit mm)*
G04 Created by KiCad (PCBNEW (6.0.2-0)) date 2022-04-07 20:49:23*
%MOMM*%
%LPD*%
G01*
G04 APERTURE LIST*
G04 Aperture macros list*
%AMRoundRect*
0 Rectangle with rounded corners*
0 $1 Rounding radius*
0 $2 $3 $4 $5 $6 $7 $8 $9 X,Y pos of 4 corners*
0 Add a 4 corners polygon primitive as box body*
4,1,4,$2,$3,$4,$5,$6,$7,$8,$9,$2,$3,0*
0 Add four circle primitives for the rounded corners*
1,1,$1+$1,$2,$3*
1,1,$1+$1,$4,$5*
1,1,$1+$1,$6,$7*
1,1,$1+$1,$8,$9*
0 Add four rect primitives between the rounded corners*
20,1,$1+$1,$2,$3,$4,$5,0*
20,1,$1+$1,$4,$5,$6,$7,0*
20,1,$1+$1,$6,$7,$8,$9,0*
20,1,$1+$1,$8,$9,$2,$3,0*%
%AMFreePoly0*
4,1,22,0.500000,-0.750000,0.000000,-0.750000,0.000000,-0.745033,-0.079941,-0.743568,-0.215256,-0.701293,-0.333266,-0.622738,-0.424486,-0.514219,-0.481581,-0.384460,-0.499164,-0.250000,-0.500000,-0.250000,-0.500000,0.250000,-0.499164,0.250000,-0.499963,0.256109,-0.478152,0.396186,-0.417904,0.524511,-0.324060,0.630769,-0.204165,0.706417,-0.067858,0.745374,0.000000,0.744959,0.000000,0.750000,
0.500000,0.750000,0.500000,-0.750000,0.500000,-0.750000,$1*%
%AMFreePoly1*
4,1,20,0.000000,0.744959,0.073905,0.744508,0.209726,0.703889,0.328688,0.626782,0.421226,0.519385,0.479903,0.390333,0.500000,0.250000,0.500000,-0.250000,0.499851,-0.262216,0.476331,-0.402017,0.414519,-0.529596,0.319384,-0.634700,0.198574,-0.708877,0.061801,-0.746166,0.000000,-0.745033,0.000000,-0.750000,-0.500000,-0.750000,-0.500000,0.750000,0.000000,0.750000,0.000000,0.744959,
0.000000,0.744959,$1*%
G04 Aperture macros list end*
%ADD10C,1.000000*%
%ADD11O,1.000000X1.000000*%
%ADD12C,5.600000*%
%ADD13C,0.400000*%
%ADD14R,1.700000X1.700000*%
%ADD15C,1.700000*%
%ADD16C,3.500000*%
%ADD17C,2.374900*%
%ADD18C,0.990600*%
%ADD19O,1.500000X1.500000*%
%ADD20O,1.800000X1.800000*%
%ADD21O,1.700000X1.700000*%
%ADD22C,6.100000*%
%ADD23RoundRect,0.250000X0.725000X-0.600000X0.725000X0.600000X-0.725000X0.600000X-0.725000X-0.600000X0*%
%ADD24O,1.950000X1.700000*%
%ADD25FreePoly0,180.000000*%
%ADD26FreePoly1,180.000000*%
G04 APERTURE END LIST*
D10*
G04 #@! TO.C,J2*
X90200000Y-21947500D03*
X82200000Y-21947500D03*
G04 #@! TD*
D11*
G04 #@! TO.C,J301*
X181212500Y-86500000D03*
X177012500Y-86500000D03*
D10*
X177012500Y-79500000D03*
D11*
X181212500Y-79500000D03*
G04 #@! TD*
D12*
G04 #@! TO.C,H304*
X185362500Y-95000000D03*
G04 #@! TD*
D13*
G04 #@! TO.C,U307*
X110200000Y-55000000D03*
X110200000Y-56000000D03*
G04 #@! TD*
D14*
G04 #@! TO.C,J309*
X180362500Y-37000000D03*
D15*
X180362500Y-39500000D03*
X182362500Y-39500000D03*
X182362500Y-37000000D03*
D16*
X185072500Y-44270000D03*
X185072500Y-32230000D03*
G04 #@! TD*
D17*
G04 #@! TO.C,J311*
X84635000Y-61540000D03*
D18*
X86540000Y-57984000D03*
X86540000Y-60016000D03*
D17*
X81460000Y-61540000D03*
D18*
X81460000Y-59000000D03*
D17*
X81460000Y-56460000D03*
X84635000Y-56460000D03*
G04 #@! TD*
D19*
G04 #@! TO.C,U7*
X26030000Y-76075000D03*
X26030000Y-80925000D03*
D20*
X23000000Y-75775000D03*
X23000000Y-81225000D03*
D21*
X22870000Y-87390000D03*
X25410000Y-87390000D03*
D14*
X27950000Y-87390000D03*
D21*
X30490000Y-87390000D03*
X33030000Y-87390000D03*
X35570000Y-87390000D03*
X38110000Y-87390000D03*
D14*
X40650000Y-87390000D03*
D21*
X43190000Y-87390000D03*
X45730000Y-87390000D03*
X48270000Y-87390000D03*
X50810000Y-87390000D03*
D14*
X53350000Y-87390000D03*
D21*
X55890000Y-87390000D03*
X58430000Y-87390000D03*
X60970000Y-87390000D03*
X63510000Y-87390000D03*
D14*
X66050000Y-87390000D03*
D21*
X68590000Y-87390000D03*
X71130000Y-87390000D03*
X71130000Y-69610000D03*
X68590000Y-69610000D03*
D14*
X66050000Y-69610000D03*
D21*
X63510000Y-69610000D03*
X60970000Y-69610000D03*
X58430000Y-69610000D03*
X55890000Y-69610000D03*
D14*
X53350000Y-69610000D03*
D21*
X50810000Y-69610000D03*
X48270000Y-69610000D03*
X45730000Y-69610000D03*
X43190000Y-69610000D03*
D14*
X40650000Y-69610000D03*
D21*
X38110000Y-69610000D03*
X35570000Y-69610000D03*
X33030000Y-69610000D03*
X30490000Y-69610000D03*
D14*
X27950000Y-69610000D03*
D21*
X25410000Y-69610000D03*
X22870000Y-69610000D03*
X70900000Y-81040000D03*
D14*
X70900000Y-78500000D03*
D21*
X70900000Y-75960000D03*
G04 #@! TD*
D22*
G04 #@! TO.C,Module2*
X24970000Y-57910000D03*
X72970000Y-57910000D03*
X72970000Y-24910000D03*
X24970000Y-24910000D03*
G04 #@! TD*
D12*
G04 #@! TO.C,H302*
X185362500Y-25000000D03*
G04 #@! TD*
D23*
G04 #@! TO.C,J306*
X182912500Y-71250000D03*
D24*
X182912500Y-68750000D03*
X182912500Y-66250000D03*
X182912500Y-63750000D03*
G04 #@! TD*
D12*
G04 #@! TO.C,H303*
X25000000Y-95000000D03*
G04 #@! TD*
D25*
G04 #@! TO.C,JP5*
X134600000Y-80100000D03*
D26*
X133300000Y-80100000D03*
G04 #@! TD*
D25*
G04 #@! TO.C,JP3*
X134600000Y-84100000D03*
D26*
X133300000Y-84100000D03*
G04 #@! TD*
D25*
G04 #@! TO.C,JP7*
X134600000Y-76100000D03*
D26*
X133300000Y-76100000D03*
G04 #@! TD*
D25*
G04 #@! TO.C,JP4*
X134600000Y-82100000D03*
D26*
X133300000Y-82100000D03*
G04 #@! TD*
D25*
G04 #@! TO.C,JP6*
X134600000Y-78100000D03*
D26*
X133300000Y-78100000D03*
G04 #@! TD*
D25*
G04 #@! TO.C,JP2*
X134600000Y-86100000D03*
D26*
X133300000Y-86100000D03*
G04 #@! TD*
D10*
G04 #@! TO.C,TP3*
X38300000Y-27500000D03*
G04 #@! TD*
G04 #@! TO.C,TP2*
X40300000Y-27500000D03*
G04 #@! TD*
M02*
