G04 #@! TF.GenerationSoftware,KiCad,Pcbnew,(6.0.2-0)*
G04 #@! TF.CreationDate,2022-04-11T21:35:17-06:00*
G04 #@! TF.ProjectId,CONEPROJ,434f4e45-5052-44f4-9a2e-6b696361645f,rev?*
G04 #@! TF.SameCoordinates,Original*
G04 #@! TF.FileFunction,Copper,L1,Top*
G04 #@! TF.FilePolarity,Positive*
%FSLAX46Y46*%
G04 Gerber Fmt 4.6, Leading zero omitted, Abs format (unit mm)*
G04 Created by KiCad (PCBNEW (6.0.2-0)) date 2022-04-11 21:35:17*
%MOMM*%
%LPD*%
G01*
G04 APERTURE LIST*
G04 Aperture macros list*
%AMRoundRect*
0 Rectangle with rounded corners*
0 $1 Rounding radius*
0 $2 $3 $4 $5 $6 $7 $8 $9 X,Y pos of 4 corners*
0 Add a 4 corners polygon primitive as box body*
4,1,4,$2,$3,$4,$5,$6,$7,$8,$9,$2,$3,0*
0 Add four circle primitives for the rounded corners*
1,1,$1+$1,$2,$3*
1,1,$1+$1,$4,$5*
1,1,$1+$1,$6,$7*
1,1,$1+$1,$8,$9*
0 Add four rect primitives between the rounded corners*
20,1,$1+$1,$2,$3,$4,$5,0*
20,1,$1+$1,$4,$5,$6,$7,0*
20,1,$1+$1,$6,$7,$8,$9,0*
20,1,$1+$1,$8,$9,$2,$3,0*%
%AMFreePoly0*
4,1,22,0.500000,-0.750000,0.000000,-0.750000,0.000000,-0.745033,-0.079941,-0.743568,-0.215256,-0.701293,-0.333266,-0.622738,-0.424486,-0.514219,-0.481581,-0.384460,-0.499164,-0.250000,-0.500000,-0.250000,-0.500000,0.250000,-0.499164,0.250000,-0.499963,0.256109,-0.478152,0.396186,-0.417904,0.524511,-0.324060,0.630769,-0.204165,0.706417,-0.067858,0.745374,0.000000,0.744959,0.000000,0.750000,
0.500000,0.750000,0.500000,-0.750000,0.500000,-0.750000,$1*%
%AMFreePoly1*
4,1,20,0.000000,0.744959,0.073905,0.744508,0.209726,0.703889,0.328688,0.626782,0.421226,0.519385,0.479903,0.390333,0.500000,0.250000,0.500000,-0.250000,0.499851,-0.262216,0.476331,-0.402017,0.414519,-0.529596,0.319384,-0.634700,0.198574,-0.708877,0.061801,-0.746166,0.000000,-0.745033,0.000000,-0.750000,-0.500000,-0.750000,-0.500000,0.750000,0.000000,0.750000,0.000000,0.744959,
0.000000,0.744959,$1*%
G04 Aperture macros list end*
G04 #@! TA.AperFunction,SMDPad,CuDef*
%ADD10RoundRect,0.237500X0.237500X-0.300000X0.237500X0.300000X-0.237500X0.300000X-0.237500X-0.300000X0*%
G04 #@! TD*
G04 #@! TA.AperFunction,SMDPad,CuDef*
%ADD11RoundRect,0.250000X0.475000X-0.337500X0.475000X0.337500X-0.475000X0.337500X-0.475000X-0.337500X0*%
G04 #@! TD*
G04 #@! TA.AperFunction,SMDPad,CuDef*
%ADD12R,1.150000X1.000000*%
G04 #@! TD*
G04 #@! TA.AperFunction,SMDPad,CuDef*
%ADD13RoundRect,0.150000X-0.150000X0.875000X-0.150000X-0.875000X0.150000X-0.875000X0.150000X0.875000X0*%
G04 #@! TD*
G04 #@! TA.AperFunction,SMDPad,CuDef*
%ADD14R,1.200000X0.900000*%
G04 #@! TD*
G04 #@! TA.AperFunction,ComponentPad*
%ADD15C,1.020000*%
G04 #@! TD*
G04 #@! TA.AperFunction,SMDPad,CuDef*
%ADD16RoundRect,0.237500X-0.250000X-0.237500X0.250000X-0.237500X0.250000X0.237500X-0.250000X0.237500X0*%
G04 #@! TD*
G04 #@! TA.AperFunction,SMDPad,CuDef*
%ADD17RoundRect,0.100000X-0.100000X0.637500X-0.100000X-0.637500X0.100000X-0.637500X0.100000X0.637500X0*%
G04 #@! TD*
G04 #@! TA.AperFunction,ConnectorPad*
%ADD18C,0.787400*%
G04 #@! TD*
G04 #@! TA.AperFunction,SMDPad,CuDef*
%ADD19RoundRect,0.237500X-0.237500X0.250000X-0.237500X-0.250000X0.237500X-0.250000X0.237500X0.250000X0*%
G04 #@! TD*
G04 #@! TA.AperFunction,SMDPad,CuDef*
%ADD20FreePoly0,270.000000*%
G04 #@! TD*
G04 #@! TA.AperFunction,SMDPad,CuDef*
%ADD21FreePoly1,270.000000*%
G04 #@! TD*
G04 #@! TA.AperFunction,SMDPad,CuDef*
%ADD22R,2.000000X2.000000*%
G04 #@! TD*
G04 #@! TA.AperFunction,SMDPad,CuDef*
%ADD23RoundRect,0.237500X-0.237500X0.300000X-0.237500X-0.300000X0.237500X-0.300000X0.237500X0.300000X0*%
G04 #@! TD*
G04 #@! TA.AperFunction,SMDPad,CuDef*
%ADD24RoundRect,0.237500X-0.287500X-0.237500X0.287500X-0.237500X0.287500X0.237500X-0.287500X0.237500X0*%
G04 #@! TD*
G04 #@! TA.AperFunction,SMDPad,CuDef*
%ADD25RoundRect,0.150000X-0.150000X0.650000X-0.150000X-0.650000X0.150000X-0.650000X0.150000X0.650000X0*%
G04 #@! TD*
G04 #@! TA.AperFunction,SMDPad,CuDef*
%ADD26RoundRect,0.250000X-0.475000X0.337500X-0.475000X-0.337500X0.475000X-0.337500X0.475000X0.337500X0*%
G04 #@! TD*
G04 #@! TA.AperFunction,SMDPad,CuDef*
%ADD27RoundRect,0.250000X-0.337500X-0.475000X0.337500X-0.475000X0.337500X0.475000X-0.337500X0.475000X0*%
G04 #@! TD*
G04 #@! TA.AperFunction,SMDPad,CuDef*
%ADD28RoundRect,0.237500X0.300000X0.237500X-0.300000X0.237500X-0.300000X-0.237500X0.300000X-0.237500X0*%
G04 #@! TD*
G04 #@! TA.AperFunction,SMDPad,CuDef*
%ADD29RoundRect,0.237500X0.250000X0.237500X-0.250000X0.237500X-0.250000X-0.237500X0.250000X-0.237500X0*%
G04 #@! TD*
G04 #@! TA.AperFunction,SMDPad,CuDef*
%ADD30R,3.000000X1.200000*%
G04 #@! TD*
G04 #@! TA.AperFunction,ComponentPad*
%ADD31C,5.600000*%
G04 #@! TD*
G04 #@! TA.AperFunction,SMDPad,CuDef*
%ADD32RoundRect,0.150000X0.150000X-0.825000X0.150000X0.825000X-0.150000X0.825000X-0.150000X-0.825000X0*%
G04 #@! TD*
G04 #@! TA.AperFunction,SMDPad,CuDef*
%ADD33RoundRect,0.237500X-0.300000X-0.237500X0.300000X-0.237500X0.300000X0.237500X-0.300000X0.237500X0*%
G04 #@! TD*
G04 #@! TA.AperFunction,SMDPad,CuDef*
%ADD34RoundRect,0.250000X0.337500X0.475000X-0.337500X0.475000X-0.337500X-0.475000X0.337500X-0.475000X0*%
G04 #@! TD*
G04 #@! TA.AperFunction,SMDPad,CuDef*
%ADD35R,0.700000X1.900000*%
G04 #@! TD*
G04 #@! TA.AperFunction,SMDPad,CuDef*
%ADD36R,1.700000X1.800000*%
G04 #@! TD*
G04 #@! TA.AperFunction,SMDPad,CuDef*
%ADD37R,1.400000X2.600000*%
G04 #@! TD*
G04 #@! TA.AperFunction,ComponentPad*
%ADD38R,2.056000X2.056000*%
G04 #@! TD*
G04 #@! TA.AperFunction,ComponentPad*
%ADD39C,2.056000*%
G04 #@! TD*
G04 #@! TA.AperFunction,SMDPad,CuDef*
%ADD40R,2.200000X1.050000*%
G04 #@! TD*
G04 #@! TA.AperFunction,SMDPad,CuDef*
%ADD41R,1.050000X1.000000*%
G04 #@! TD*
G04 #@! TA.AperFunction,SMDPad,CuDef*
%ADD42RoundRect,0.237500X0.237500X-0.250000X0.237500X0.250000X-0.237500X0.250000X-0.237500X-0.250000X0*%
G04 #@! TD*
G04 #@! TA.AperFunction,SMDPad,CuDef*
%ADD43R,1.000000X1.500000*%
G04 #@! TD*
G04 #@! TA.AperFunction,SMDPad,CuDef*
%ADD44RoundRect,0.050000X-0.050000X0.387500X-0.050000X-0.387500X0.050000X-0.387500X0.050000X0.387500X0*%
G04 #@! TD*
G04 #@! TA.AperFunction,SMDPad,CuDef*
%ADD45RoundRect,0.050000X-0.387500X0.050000X-0.387500X-0.050000X0.387500X-0.050000X0.387500X0.050000X0*%
G04 #@! TD*
G04 #@! TA.AperFunction,SMDPad,CuDef*
%ADD46RoundRect,0.144000X-1.456000X1.456000X-1.456000X-1.456000X1.456000X-1.456000X1.456000X1.456000X0*%
G04 #@! TD*
G04 #@! TA.AperFunction,ComponentPad*
%ADD47C,0.600000*%
G04 #@! TD*
G04 #@! TA.AperFunction,SMDPad,CuDef*
%ADD48R,2.350000X5.100000*%
G04 #@! TD*
G04 #@! TA.AperFunction,SMDPad,CuDef*
%ADD49R,0.254000X1.066800*%
G04 #@! TD*
G04 #@! TA.AperFunction,SMDPad,CuDef*
%ADD50R,0.200000X0.700000*%
G04 #@! TD*
G04 #@! TA.AperFunction,SMDPad,CuDef*
%ADD51R,0.900000X1.200000*%
G04 #@! TD*
G04 #@! TA.AperFunction,SMDPad,CuDef*
%ADD52R,2.200000X0.600000*%
G04 #@! TD*
G04 #@! TA.AperFunction,SMDPad,CuDef*
%ADD53RoundRect,0.150000X-0.512500X-0.150000X0.512500X-0.150000X0.512500X0.150000X-0.512500X0.150000X0*%
G04 #@! TD*
G04 #@! TA.AperFunction,SMDPad,CuDef*
%ADD54R,1.800000X2.100000*%
G04 #@! TD*
G04 #@! TA.AperFunction,ViaPad*
%ADD55C,0.450000*%
G04 #@! TD*
G04 #@! TA.AperFunction,ViaPad*
%ADD56C,0.800000*%
G04 #@! TD*
G04 #@! TA.AperFunction,Conductor*
%ADD57C,2.000000*%
G04 #@! TD*
G04 #@! TA.AperFunction,Conductor*
%ADD58C,0.200000*%
G04 #@! TD*
G04 #@! TA.AperFunction,Conductor*
%ADD59C,0.500000*%
G04 #@! TD*
G04 #@! TA.AperFunction,Conductor*
%ADD60C,1.000000*%
G04 #@! TD*
G04 APERTURE END LIST*
D10*
G04 #@! TO.P,C20,1*
G04 #@! TO.N,VCC*
X35350000Y-56112500D03*
G04 #@! TO.P,C20,2*
G04 #@! TO.N,GND*
X35350000Y-54387500D03*
G04 #@! TD*
D11*
G04 #@! TO.P,C2,1*
G04 #@! TO.N,VCC*
X33500000Y-56387500D03*
G04 #@! TO.P,C2,2*
G04 #@! TO.N,GND*
X33500000Y-54312500D03*
G04 #@! TD*
D12*
G04 #@! TO.P,Y2,1,1*
G04 #@! TO.N,/MCP_OSC1*
X56000000Y-52750000D03*
G04 #@! TO.P,Y2,2,2*
G04 #@! TO.N,GND*
X57750000Y-52750000D03*
G04 #@! TO.P,Y2,3,3*
G04 #@! TO.N,/MCP_OSC2*
X57750000Y-51350000D03*
G04 #@! TO.P,Y2,4,4*
G04 #@! TO.N,GND*
X56000000Y-51350000D03*
G04 #@! TD*
D13*
G04 #@! TO.P,U8,1,TXCAN*
G04 #@! TO.N,/CAN_TX*
X72080000Y-52100000D03*
G04 #@! TO.P,U8,2,RXCAN*
G04 #@! TO.N,/CAN_RX*
X70810000Y-52100000D03*
G04 #@! TO.P,U8,3,CLKOUT/SOF*
G04 #@! TO.N,unconnected-(U8-Pad3)*
X69540000Y-52100000D03*
G04 #@! TO.P,U8,4,~{TX0RTS}*
G04 #@! TO.N,unconnected-(U8-Pad4)*
X68270000Y-52100000D03*
G04 #@! TO.P,U8,5,~{TX1RTS}*
G04 #@! TO.N,unconnected-(U8-Pad5)*
X67000000Y-52100000D03*
G04 #@! TO.P,U8,6,~{TX2RTS}*
G04 #@! TO.N,unconnected-(U8-Pad6)*
X65730000Y-52100000D03*
G04 #@! TO.P,U8,7,OSC2*
G04 #@! TO.N,/MCP_OSC2*
X64460000Y-52100000D03*
G04 #@! TO.P,U8,8,OSC1*
G04 #@! TO.N,/MCP_OSC1*
X63190000Y-52100000D03*
G04 #@! TO.P,U8,9,VSS*
G04 #@! TO.N,GND*
X61920000Y-52100000D03*
G04 #@! TO.P,U8,10,~{RX1BF}*
G04 #@! TO.N,unconnected-(U8-Pad10)*
X61920000Y-61400000D03*
G04 #@! TO.P,U8,11,~{RX0BF}*
G04 #@! TO.N,unconnected-(U8-Pad11)*
X63190000Y-61400000D03*
G04 #@! TO.P,U8,12,~{INT}*
G04 #@! TO.N,/MCP_INT*
X64460000Y-61400000D03*
G04 #@! TO.P,U8,13,SCK*
G04 #@! TO.N,/SPI0_SCLK*
X65730000Y-61400000D03*
G04 #@! TO.P,U8,14,SI*
G04 #@! TO.N,/SPI0_MOSI*
X67000000Y-61400000D03*
G04 #@! TO.P,U8,15,SO*
G04 #@! TO.N,/SPI0_MISO*
X68270000Y-61400000D03*
G04 #@! TO.P,U8,16,~{CS}*
G04 #@! TO.N,/SPI0_CE0_N*
X69540000Y-61400000D03*
G04 #@! TO.P,U8,17,~{RESET}*
G04 #@! TO.N,/MCP_RESET*
X70810000Y-61400000D03*
G04 #@! TO.P,U8,18,VDD*
G04 #@! TO.N,+3V3*
X72080000Y-61400000D03*
G04 #@! TD*
D14*
G04 #@! TO.P,D1,1,K*
G04 #@! TO.N,Net-(D1-Pad1)*
X25425000Y-61150000D03*
G04 #@! TO.P,D1,2,A*
G04 #@! TO.N,GND*
X25425000Y-57850000D03*
G04 #@! TD*
D15*
G04 #@! TO.P,J6,A1,GND_A*
G04 #@! TO.N,GND*
X79905000Y-129659213D03*
G04 #@! TO.P,J6,A2,TX1+*
G04 #@! TO.N,unconnected-(J6-PadA2)*
X78635000Y-129659213D03*
G04 #@! TO.P,J6,A3,TX1-*
G04 #@! TO.N,unconnected-(J6-PadA3)*
X77365000Y-129659213D03*
G04 #@! TO.P,J6,A4,VBUS_A*
G04 #@! TO.N,/USB2_VBUS*
X76095000Y-129659213D03*
G04 #@! TO.P,J6,A5,CC1*
G04 #@! TO.N,Net-(J6-PadA5)*
X74825000Y-129659213D03*
G04 #@! TO.P,J6,A6,D1+*
G04 #@! TO.N,/USB2_D_N*
X73555000Y-129659213D03*
G04 #@! TO.P,J6,A7,D1-*
G04 #@! TO.N,/USB2_D_P*
X72285000Y-129659213D03*
G04 #@! TO.P,J6,A8,SBU1*
G04 #@! TO.N,unconnected-(J6-PadA8)*
X71015000Y-129659213D03*
G04 #@! TO.P,J6,A9,VBUS_A*
G04 #@! TO.N,/USB2_VBUS*
X69745000Y-129659213D03*
G04 #@! TO.P,J6,A10,RX2-*
G04 #@! TO.N,unconnected-(J6-PadA10)*
X68475000Y-129659213D03*
G04 #@! TO.P,J6,A11,RX2+*
G04 #@! TO.N,unconnected-(J6-PadA11)*
X67205000Y-129659213D03*
G04 #@! TO.P,J6,A12,GND_A*
G04 #@! TO.N,GND*
X65935000Y-129659213D03*
G04 #@! TO.P,J6,B1,GND_B*
X65935000Y-130929213D03*
G04 #@! TO.P,J6,B2,TX2+*
G04 #@! TO.N,unconnected-(J6-PadB2)*
X67205000Y-130929213D03*
G04 #@! TO.P,J6,B3,TX2-*
G04 #@! TO.N,unconnected-(J6-PadB3)*
X68475000Y-130929213D03*
G04 #@! TO.P,J6,B4,VBUS_B*
G04 #@! TO.N,/USB2_VBUS*
X69745000Y-130929213D03*
G04 #@! TO.P,J6,B5,CC2*
G04 #@! TO.N,Net-(J6-PadB5)*
X71015000Y-130929213D03*
G04 #@! TO.P,J6,B6,D2+*
G04 #@! TO.N,/USB2_D_P*
X72285000Y-130929213D03*
G04 #@! TO.P,J6,B7,D2-*
G04 #@! TO.N,/USB2_D_N*
X73555000Y-130929213D03*
G04 #@! TO.P,J6,B8,SBU2*
G04 #@! TO.N,unconnected-(J6-PadB8)*
X74825000Y-130929213D03*
G04 #@! TO.P,J6,B9,VBUS_B*
G04 #@! TO.N,/USB2_VBUS*
X76095000Y-130929213D03*
G04 #@! TO.P,J6,B10,RX1-*
G04 #@! TO.N,unconnected-(J6-PadB10)*
X77365000Y-130929213D03*
G04 #@! TO.P,J6,B11,RX1+*
G04 #@! TO.N,unconnected-(J6-PadB11)*
X78635000Y-130929213D03*
G04 #@! TO.P,J6,B12,GND_B*
G04 #@! TO.N,GND*
X79905000Y-130929213D03*
G04 #@! TD*
D16*
G04 #@! TO.P,R307,1*
G04 #@! TO.N,+3V3*
X102177500Y-89840000D03*
G04 #@! TO.P,R307,2*
G04 #@! TO.N,GND*
X104002500Y-89840000D03*
G04 #@! TD*
D17*
G04 #@! TO.P,U5,1,TXCAN*
G04 #@! TO.N,/CAN_TX*
X60175000Y-55887500D03*
G04 #@! TO.P,U5,2,RXCAN*
G04 #@! TO.N,/CAN_RX*
X59525000Y-55887500D03*
G04 #@! TO.P,U5,3,CLKOUT/SOF*
G04 #@! TO.N,unconnected-(U5-Pad3)*
X58875000Y-55887500D03*
G04 #@! TO.P,U5,4,~{TX0RTS}*
G04 #@! TO.N,unconnected-(U5-Pad4)*
X58225000Y-55887500D03*
G04 #@! TO.P,U5,5,~{TX1RTS}*
G04 #@! TO.N,unconnected-(U5-Pad5)*
X57575000Y-55887500D03*
G04 #@! TO.P,U5,6,NC*
G04 #@! TO.N,unconnected-(U5-Pad6)*
X56925000Y-55887500D03*
G04 #@! TO.P,U5,7,~{TX2RTS}*
G04 #@! TO.N,unconnected-(U5-Pad7)*
X56275000Y-55887500D03*
G04 #@! TO.P,U5,8,OSC2*
G04 #@! TO.N,/MCP_OSC2*
X55625000Y-55887500D03*
G04 #@! TO.P,U5,9,OSC1*
G04 #@! TO.N,/MCP_OSC1*
X54975000Y-55887500D03*
G04 #@! TO.P,U5,10,VSS*
G04 #@! TO.N,GND*
X54325000Y-55887500D03*
G04 #@! TO.P,U5,11,~{RX1BF}*
G04 #@! TO.N,unconnected-(U5-Pad11)*
X54325000Y-61612500D03*
G04 #@! TO.P,U5,12,~{RX0BF}*
G04 #@! TO.N,unconnected-(U5-Pad12)*
X54975000Y-61612500D03*
G04 #@! TO.P,U5,13,~{INT}*
G04 #@! TO.N,/MCP_INT*
X55625000Y-61612500D03*
G04 #@! TO.P,U5,14,SCK*
G04 #@! TO.N,/SPI0_SCLK*
X56275000Y-61612500D03*
G04 #@! TO.P,U5,15,NC*
G04 #@! TO.N,unconnected-(U5-Pad15)*
X56925000Y-61612500D03*
G04 #@! TO.P,U5,16,SI*
G04 #@! TO.N,/SPI0_MOSI*
X57575000Y-61612500D03*
G04 #@! TO.P,U5,17,SO*
G04 #@! TO.N,/SPI0_MISO*
X58225000Y-61612500D03*
G04 #@! TO.P,U5,18,~{CS}*
G04 #@! TO.N,/SPI0_CE0_N*
X58875000Y-61612500D03*
G04 #@! TO.P,U5,19,~{RESET}*
G04 #@! TO.N,/MCP_RESET*
X59525000Y-61612500D03*
G04 #@! TO.P,U5,20,VDD*
G04 #@! TO.N,+3V3*
X60175000Y-61612500D03*
G04 #@! TD*
D18*
G04 #@! TO.P,J5,1,VCC*
G04 #@! TO.N,unconnected-(J5-Pad1)*
X99685000Y-82030000D03*
G04 #@! TO.P,J5,2,CTS*
G04 #@! TO.N,unconnected-(J5-Pad2)*
X100955000Y-82030000D03*
G04 #@! TO.P,J5,3,RXD*
G04 #@! TO.N,/PICO_USB_DM*
X99685000Y-83300000D03*
G04 #@! TO.P,J5,4,TXD*
G04 #@! TO.N,/PICO_USB_DP*
X100955000Y-83300000D03*
G04 #@! TO.P,J5,5,GND*
G04 #@! TO.N,GND*
X99685000Y-84570000D03*
G04 #@! TO.P,J5,6,RTS*
G04 #@! TO.N,unconnected-(J5-Pad6)*
X100955000Y-84570000D03*
G04 #@! TD*
D19*
G04 #@! TO.P,R35,1*
G04 #@! TO.N,/SD_DAT2*
X78300000Y-124037500D03*
G04 #@! TO.P,R35,2*
G04 #@! TO.N,/SD_PWR*
X78300000Y-125862500D03*
G04 #@! TD*
D11*
G04 #@! TO.P,C34,1*
G04 #@! TO.N,/SD_PWR*
X104250000Y-119537500D03*
G04 #@! TO.P,C34,2*
G04 #@! TO.N,GND*
X104250000Y-117462500D03*
G04 #@! TD*
D20*
G04 #@! TO.P,JP8,1,A*
G04 #@! TO.N,+3V3*
X100250000Y-117750000D03*
D21*
G04 #@! TO.P,JP8,2,B*
G04 #@! TO.N,/SD_PWR*
X100250000Y-119050000D03*
G04 #@! TD*
D16*
G04 #@! TO.P,R8,1*
G04 #@! TO.N,GND*
X61237500Y-130250000D03*
G04 #@! TO.P,R8,2*
G04 #@! TO.N,Net-(J6-PadB5)*
X63062500Y-130250000D03*
G04 #@! TD*
D22*
G04 #@! TO.P,PAU301,1,A*
G04 #@! TO.N,GND*
X104500000Y-109500000D03*
G04 #@! TO.P,PAU301,2,B*
G04 #@! TO.N,/PAUSE_BTN*
X96500000Y-109500000D03*
G04 #@! TD*
D23*
G04 #@! TO.P,C15,1*
G04 #@! TO.N,+3V3*
X83125000Y-69587500D03*
G04 #@! TO.P,C15,2*
G04 #@! TO.N,GND*
X83125000Y-71312500D03*
G04 #@! TD*
D24*
G04 #@! TO.P,D308,1,K*
G04 #@! TO.N,Net-(D308-Pad1)*
X34480000Y-113380000D03*
G04 #@! TO.P,D308,2,A*
G04 #@! TO.N,/WIFI_LED*
X36230000Y-113380000D03*
G04 #@! TD*
D10*
G04 #@! TO.P,R7,1*
G04 #@! TO.N,/PICO_USB_DM*
X96800000Y-78162500D03*
G04 #@! TO.P,R7,2*
G04 #@! TO.N,Net-(R7-Pad2)*
X96800000Y-76437500D03*
G04 #@! TD*
D11*
G04 #@! TO.P,C302,1*
G04 #@! TO.N,GND*
X32750000Y-132537500D03*
G04 #@! TO.P,C302,2*
G04 #@! TO.N,+3V3*
X32750000Y-130462500D03*
G04 #@! TD*
D23*
G04 #@! TO.P,C21,1*
G04 #@! TO.N,/MCP_OSC2*
X59625000Y-51437500D03*
G04 #@! TO.P,C21,2*
G04 #@! TO.N,GND*
X59625000Y-53162500D03*
G04 #@! TD*
D25*
G04 #@! TO.P,U7,1,~{CS}*
G04 #@! TO.N,/QSPI_SS*
X103893687Y-60987273D03*
G04 #@! TO.P,U7,2,DO(IO1)*
G04 #@! TO.N,/QSPI_SD1*
X102623687Y-60987273D03*
G04 #@! TO.P,U7,3,IO2*
G04 #@! TO.N,/QSPI_SD2*
X101353687Y-60987273D03*
G04 #@! TO.P,U7,4,GND*
G04 #@! TO.N,GND*
X100083687Y-60987273D03*
G04 #@! TO.P,U7,5,DI(IO0)*
G04 #@! TO.N,/QSPI_SD0*
X100083687Y-68187273D03*
G04 #@! TO.P,U7,6,CLK*
G04 #@! TO.N,/QSPI_SCLK*
X101353687Y-68187273D03*
G04 #@! TO.P,U7,7,IO3*
G04 #@! TO.N,/QSPI_SD3*
X102623687Y-68187273D03*
G04 #@! TO.P,U7,8,VCC*
G04 #@! TO.N,+3V3*
X103893687Y-68187273D03*
G04 #@! TD*
D26*
G04 #@! TO.P,C11,1*
G04 #@! TO.N,+3V3*
X46150000Y-63712500D03*
G04 #@! TO.P,C11,2*
G04 #@! TO.N,GND*
X46150000Y-65787500D03*
G04 #@! TD*
D27*
G04 #@! TO.P,C16,1*
G04 #@! TO.N,+3V3*
X60862500Y-63750000D03*
G04 #@! TO.P,C16,2*
G04 #@! TO.N,GND*
X62937500Y-63750000D03*
G04 #@! TD*
D28*
G04 #@! TO.P,C305,1*
G04 #@! TO.N,GND*
X103952500Y-91440000D03*
G04 #@! TO.P,C305,2*
G04 #@! TO.N,+3V3*
X102227500Y-91440000D03*
G04 #@! TD*
D29*
G04 #@! TO.P,R21,1*
G04 #@! TO.N,Net-(D302-Pad1)*
X32800000Y-115000000D03*
G04 #@! TO.P,R21,2*
G04 #@! TO.N,GND*
X30975000Y-115000000D03*
G04 #@! TD*
D30*
G04 #@! TO.P,U310,1,GND*
G04 #@! TO.N,GND*
X51750000Y-136500000D03*
G04 #@! TO.P,U310,2,MISO*
G04 #@! TO.N,/RF69_MISO*
X51750000Y-134500000D03*
G04 #@! TO.P,U310,3,MOSI*
G04 #@! TO.N,/RF69_MOSI*
X51750000Y-132500000D03*
G04 #@! TO.P,U310,4,SCK*
G04 #@! TO.N,/RF69_SCK*
X51750000Y-130500000D03*
G04 #@! TO.P,U310,5,NSS*
G04 #@! TO.N,/RF69_NSS*
X51750000Y-128500000D03*
G04 #@! TO.P,U310,6,RESET*
G04 #@! TO.N,/RF69_RESET*
X51750000Y-126500000D03*
G04 #@! TO.P,U310,7,DIO5*
G04 #@! TO.N,unconnected-(U310-Pad7)*
X51750000Y-124500000D03*
G04 #@! TO.P,U310,8,GND*
G04 #@! TO.N,GND*
X51750000Y-122500000D03*
G04 #@! TO.P,U310,9,ANT*
G04 #@! TO.N,Net-(J304-Pad2)*
X36750000Y-122500000D03*
G04 #@! TO.P,U310,10,GND*
G04 #@! TO.N,GND*
X36750000Y-124500000D03*
G04 #@! TO.P,U310,11,DIO3*
G04 #@! TO.N,unconnected-(U310-Pad11)*
X36750000Y-126500000D03*
G04 #@! TO.P,U310,12,DIO4*
G04 #@! TO.N,unconnected-(U310-Pad12)*
X36750000Y-128500000D03*
G04 #@! TO.P,U310,13,3.3V*
G04 #@! TO.N,+3V3*
X36750000Y-130500000D03*
G04 #@! TO.P,U310,14,DIO0*
G04 #@! TO.N,/RF69_INT*
X36750000Y-132500000D03*
G04 #@! TO.P,U310,15,DIO1*
G04 #@! TO.N,unconnected-(U310-Pad15)*
X36750000Y-134500000D03*
G04 #@! TO.P,U310,16,DIO2*
G04 #@! TO.N,unconnected-(U310-Pad16)*
X36750000Y-136500000D03*
G04 #@! TD*
D29*
G04 #@! TO.P,R91,1*
G04 #@! TO.N,Net-(D308-Pad1)*
X32767500Y-113380000D03*
G04 #@! TO.P,R91,2*
G04 #@! TO.N,GND*
X30942500Y-113380000D03*
G04 #@! TD*
D22*
G04 #@! TO.P,MOD301,1,A*
G04 #@! TO.N,GND*
X104500000Y-104470000D03*
G04 #@! TO.P,MOD301,2,B*
G04 #@! TO.N,/MODE_BTN*
X96500000Y-104470000D03*
G04 #@! TD*
D23*
G04 #@! TO.P,C24,1*
G04 #@! TO.N,+3V3*
X86300000Y-69587500D03*
G04 #@! TO.P,C24,2*
G04 #@! TO.N,GND*
X86300000Y-71312500D03*
G04 #@! TD*
D31*
G04 #@! TO.P,H304,1,1*
G04 #@! TO.N,GND*
X67000000Y-47000000D03*
G04 #@! TD*
D19*
G04 #@! TO.P,R5,1*
G04 #@! TO.N,Net-(R5-Pad1)*
X81550000Y-67712500D03*
G04 #@! TO.P,R5,2*
G04 #@! TO.N,Net-(C8-Pad2)*
X81550000Y-69537500D03*
G04 #@! TD*
G04 #@! TO.P,R26,1*
G04 #@! TO.N,/SD_DAT3*
X73650000Y-124037500D03*
G04 #@! TO.P,R26,2*
G04 #@! TO.N,/SD_PWR*
X73650000Y-125862500D03*
G04 #@! TD*
D23*
G04 #@! TO.P,C18,1*
G04 #@! TO.N,+3V3*
X95050000Y-65487500D03*
G04 #@! TO.P,C18,2*
G04 #@! TO.N,GND*
X95050000Y-67212500D03*
G04 #@! TD*
D24*
G04 #@! TO.P,D302,1,K*
G04 #@! TO.N,Net-(D302-Pad1)*
X34512500Y-115000000D03*
G04 #@! TO.P,D302,2,A*
G04 #@! TO.N,/LED_RED*
X36262500Y-115000000D03*
G04 #@! TD*
D32*
G04 #@! TO.P,U2,1,D*
G04 #@! TO.N,/CAN_TX*
X48280000Y-67275000D03*
G04 #@! TO.P,U2,2,GND*
G04 #@! TO.N,GND*
X49550000Y-67275000D03*
G04 #@! TO.P,U2,3,VCC*
G04 #@! TO.N,+3V3*
X50820000Y-67275000D03*
G04 #@! TO.P,U2,4,R*
G04 #@! TO.N,/CAN_RX*
X52090000Y-67275000D03*
G04 #@! TO.P,U2,5,Vref*
G04 #@! TO.N,unconnected-(U2-Pad5)*
X52090000Y-62325000D03*
G04 #@! TO.P,U2,6,CANL*
G04 #@! TO.N,/CANL*
X50820000Y-62325000D03*
G04 #@! TO.P,U2,7,CANH*
G04 #@! TO.N,/CANH*
X49550000Y-62325000D03*
G04 #@! TO.P,U2,8,Rs*
G04 #@! TO.N,Net-(R15-Pad1)*
X48280000Y-62325000D03*
G04 #@! TD*
D23*
G04 #@! TO.P,C9,1*
G04 #@! TO.N,+1V1*
X84750000Y-69587500D03*
G04 #@! TO.P,C9,2*
G04 #@! TO.N,GND*
X84750000Y-71312500D03*
G04 #@! TD*
D33*
G04 #@! TO.P,C7,1*
G04 #@! TO.N,Net-(C7-Pad1)*
X78137500Y-62100000D03*
G04 #@! TO.P,C7,2*
G04 #@! TO.N,GND*
X79862500Y-62100000D03*
G04 #@! TD*
D34*
G04 #@! TO.P,C5,1*
G04 #@! TO.N,+5V*
X30062499Y-65108041D03*
G04 #@! TO.P,C5,2*
G04 #@! TO.N,GND*
X27987499Y-65108041D03*
G04 #@! TD*
D35*
G04 #@! TO.P,J2,1,DAT2*
G04 #@! TO.N,/SD_DAT2*
X98750000Y-124700000D03*
G04 #@! TO.P,J2,2,CD/DAT3*
G04 #@! TO.N,/SD_DAT3*
X97650000Y-124700000D03*
G04 #@! TO.P,J2,3,CMD*
G04 #@! TO.N,/SD_CMD*
X96550000Y-124700000D03*
G04 #@! TO.P,J2,4,VDD*
G04 #@! TO.N,/SD_PWR*
X95450000Y-124700000D03*
G04 #@! TO.P,J2,5,CLK*
G04 #@! TO.N,/SD_CLK*
X94350000Y-124700000D03*
G04 #@! TO.P,J2,6,VSS*
G04 #@! TO.N,GND*
X93250000Y-124700000D03*
G04 #@! TO.P,J2,7,DAT0*
G04 #@! TO.N,/SD_DAT0*
X92150000Y-124700000D03*
G04 #@! TO.P,J2,8,DAT1*
G04 #@! TO.N,/SD_DAT1*
X91050000Y-124700000D03*
G04 #@! TO.P,J2,9,CD_SW1*
G04 #@! TO.N,/SD_DET*
X89950000Y-124700000D03*
D36*
G04 #@! TO.P,J2,10,GND*
G04 #@! TO.N,GND*
X88400000Y-125750000D03*
G04 #@! TO.P,J2,11,GND*
X103900000Y-125750000D03*
D37*
G04 #@! TO.P,J2,12,GND*
X88650000Y-135350000D03*
G04 #@! TO.P,J2,13,GND*
X104350000Y-135350000D03*
G04 #@! TD*
D33*
G04 #@! TO.P,C8,1*
G04 #@! TO.N,GND*
X78137500Y-69524999D03*
G04 #@! TO.P,C8,2*
G04 #@! TO.N,Net-(C8-Pad2)*
X79862500Y-69524999D03*
G04 #@! TD*
D38*
G04 #@! TO.P,J4,A1,A1*
G04 #@! TO.N,/GPO_1_OUT*
X84025000Y-45040000D03*
D39*
G04 #@! TO.P,J4,A2,A2*
G04 #@! TO.N,/GPO_2_OUT*
X88215000Y-45040000D03*
G04 #@! TO.P,J4,A3,A3*
G04 #@! TO.N,/GPO_3_OUT*
X92405000Y-45040000D03*
G04 #@! TO.P,J4,A4,A4*
G04 #@! TO.N,/GPO_4_OUT*
X96595000Y-45040000D03*
G04 #@! TO.P,J4,A5,A5*
G04 #@! TO.N,/GPO_5_OUT*
X100785000Y-45040000D03*
G04 #@! TO.P,J4,A6,A6*
G04 #@! TO.N,/GPO_6_OUT*
X104975000Y-45040000D03*
G04 #@! TO.P,J4,A7,A7*
G04 #@! TO.N,/GPO_7_OUT*
X104975000Y-51390000D03*
G04 #@! TO.P,J4,A8,A8*
G04 #@! TO.N,/GPO_8_OUT*
X100785000Y-51390000D03*
G04 #@! TO.P,J4,A9,A9*
G04 #@! TO.N,/GPO_9_OUT*
X96595000Y-51390000D03*
G04 #@! TO.P,J4,A10,A10*
G04 #@! TO.N,/R_OUT*
X92405000Y-51390000D03*
G04 #@! TO.P,J4,A11,A11*
G04 #@! TO.N,/G_OUT*
X88215000Y-51390000D03*
G04 #@! TO.P,J4,A12,A12*
G04 #@! TO.N,/B_OUT*
X84025000Y-51390000D03*
D38*
G04 #@! TO.P,J4,B1,B1*
G04 #@! TO.N,/CANL*
X49975000Y-51390000D03*
D39*
G04 #@! TO.P,J4,B2,B2*
G04 #@! TO.N,/CANH*
X45785000Y-51390000D03*
G04 #@! TO.P,J4,B3,B3*
G04 #@! TO.N,/LEDA_OUT*
X41595000Y-51390000D03*
G04 #@! TO.P,J4,B4,B4*
G04 #@! TO.N,unconnected-(J4-PadB4)*
X37405000Y-51390000D03*
G04 #@! TO.P,J4,B5,B5*
G04 #@! TO.N,unconnected-(J4-PadB5)*
X33215000Y-51390000D03*
G04 #@! TO.P,J4,B6,B6*
G04 #@! TO.N,/VIN*
X29025000Y-51390000D03*
G04 #@! TO.P,J4,B7,B7*
G04 #@! TO.N,GND*
X29025000Y-45040000D03*
G04 #@! TO.P,J4,B8,B8*
G04 #@! TO.N,unconnected-(J4-PadB8)*
X33215000Y-45040000D03*
G04 #@! TO.P,J4,B9,B9*
G04 #@! TO.N,/I2C1_SDA*
X37405000Y-45040000D03*
G04 #@! TO.P,J4,B10,B10*
G04 #@! TO.N,/I2C1_SCL*
X41595000Y-45040000D03*
G04 #@! TO.P,J4,B11,B11*
G04 #@! TO.N,/TXD3*
X45785000Y-45040000D03*
G04 #@! TO.P,J4,B12,B12*
G04 #@! TO.N,/RXD3*
X49975000Y-45040000D03*
G04 #@! TD*
D40*
G04 #@! TO.P,J304,1*
G04 #@! TO.N,GND*
X30875000Y-123975000D03*
D41*
G04 #@! TO.P,J304,2*
G04 #@! TO.N,Net-(J304-Pad2)*
X32400000Y-122500000D03*
D40*
G04 #@! TO.P,J304,3*
G04 #@! TO.N,GND*
X30875000Y-121025000D03*
G04 #@! TD*
D19*
G04 #@! TO.P,R55,1*
G04 #@! TO.N,/SD_DAT0*
X75200000Y-124037500D03*
G04 #@! TO.P,R55,2*
G04 #@! TO.N,/SD_PWR*
X75200000Y-125862500D03*
G04 #@! TD*
D23*
G04 #@! TO.P,C14,1*
G04 #@! TO.N,+3V3*
X91225000Y-69587500D03*
G04 #@! TO.P,C14,2*
G04 #@! TO.N,GND*
X91225000Y-71312500D03*
G04 #@! TD*
D10*
G04 #@! TO.P,C35,1*
G04 #@! TO.N,/SD_PWR*
X102350000Y-119262500D03*
G04 #@! TO.P,C35,2*
G04 #@! TO.N,GND*
X102350000Y-117537500D03*
G04 #@! TD*
D23*
G04 #@! TO.P,C10,1*
G04 #@! TO.N,+1V1*
X96600000Y-65487500D03*
G04 #@! TO.P,C10,2*
G04 #@! TO.N,GND*
X96600000Y-67212500D03*
G04 #@! TD*
D42*
G04 #@! TO.P,R15,1*
G04 #@! TO.N,Net-(R15-Pad1)*
X48235000Y-59712500D03*
G04 #@! TO.P,R15,2*
G04 #@! TO.N,GND*
X48235000Y-57887500D03*
G04 #@! TD*
D23*
G04 #@! TO.P,C12,1*
G04 #@! TO.N,+1V1*
X92750000Y-67312500D03*
G04 #@! TO.P,C12,2*
G04 #@! TO.N,GND*
X92750000Y-69037500D03*
G04 #@! TD*
D16*
G04 #@! TO.P,R3,1*
G04 #@! TO.N,/USB_BOOT*
X94687500Y-58150000D03*
G04 #@! TO.P,R3,2*
G04 #@! TO.N,/QSPI_SS*
X96512500Y-58150000D03*
G04 #@! TD*
D23*
G04 #@! TO.P,R6,1*
G04 #@! TO.N,Net-(R6-Pad1)*
X103850000Y-76412500D03*
G04 #@! TO.P,R6,2*
G04 #@! TO.N,/PICO_USB_DP*
X103850000Y-78137500D03*
G04 #@! TD*
G04 #@! TO.P,C13,1*
G04 #@! TO.N,+3V3*
X89625000Y-69587500D03*
G04 #@! TO.P,C13,2*
G04 #@! TO.N,GND*
X89625000Y-71312500D03*
G04 #@! TD*
D43*
G04 #@! TO.P,U9,1,VCC*
G04 #@! TO.N,Net-(C4-Pad1)*
X77775000Y-54225000D03*
G04 #@! TO.P,U9,2,VDD*
G04 #@! TO.N,VCC*
X76175000Y-54225000D03*
G04 #@! TO.P,U9,3,DO*
G04 #@! TO.N,/LEDA_OUT*
X74575000Y-54225000D03*
G04 #@! TO.P,U9,4,DIN*
G04 #@! TO.N,/LEDA*
X74575000Y-59125000D03*
G04 #@! TO.P,U9,5,GND*
G04 #@! TO.N,GND*
X76175000Y-59125000D03*
G04 #@! TO.P,U9,6,BIN*
G04 #@! TO.N,/LEDA*
X77775000Y-59125000D03*
G04 #@! TD*
D18*
G04 #@! TO.P,J311,1,VCC*
G04 #@! TO.N,unconnected-(J311-Pad1)*
X100708365Y-98868029D03*
G04 #@! TO.P,J311,2,CTS*
G04 #@! TO.N,unconnected-(J311-Pad2)*
X99438365Y-98868029D03*
G04 #@! TO.P,J311,3,RXD*
G04 #@! TO.N,Net-(J311-Pad3)*
X100708365Y-97598029D03*
G04 #@! TO.P,J311,4,TXD*
G04 #@! TO.N,Net-(J311-Pad4)*
X99438365Y-97598029D03*
G04 #@! TO.P,J311,5,GND*
G04 #@! TO.N,GND*
X100708365Y-96328029D03*
G04 #@! TO.P,J311,6,RTS*
G04 #@! TO.N,unconnected-(J311-Pad6)*
X99438365Y-96328029D03*
G04 #@! TD*
D44*
G04 #@! TO.P,U10,1,IOVDD*
G04 #@! TO.N,+3V3*
X90350000Y-61112500D03*
G04 #@! TO.P,U10,2,GPIO0*
G04 #@! TO.N,/GPO_7*
X89950000Y-61112500D03*
G04 #@! TO.P,U10,3,GPIO1*
G04 #@! TO.N,/GPO_8*
X89550000Y-61112500D03*
G04 #@! TO.P,U10,4,GPIO2*
G04 #@! TO.N,/GPO_9*
X89150000Y-61112500D03*
G04 #@! TO.P,U10,5,GPIO3*
G04 #@! TO.N,/LEDR*
X88750000Y-61112500D03*
G04 #@! TO.P,U10,6,GPIO4*
G04 #@! TO.N,/I2C1_SDA*
X88350000Y-61112500D03*
G04 #@! TO.P,U10,7,GPIO5*
G04 #@! TO.N,/I2C1_SCL*
X87950000Y-61112500D03*
G04 #@! TO.P,U10,8,GPIO6*
G04 #@! TO.N,/LEDG*
X87550000Y-61112500D03*
G04 #@! TO.P,U10,9,GPIO7*
G04 #@! TO.N,/LEDB*
X87150000Y-61112500D03*
G04 #@! TO.P,U10,10,IOVDD*
G04 #@! TO.N,+3V3*
X86750000Y-61112500D03*
G04 #@! TO.P,U10,11,GPIO8*
G04 #@! TO.N,/GPO_4*
X86350000Y-61112500D03*
G04 #@! TO.P,U10,12,GPIO9*
G04 #@! TO.N,/GPO_5*
X85950000Y-61112500D03*
G04 #@! TO.P,U10,13,GPIO10*
G04 #@! TO.N,/GPO_6*
X85550000Y-61112500D03*
G04 #@! TO.P,U10,14,GPIO11*
G04 #@! TO.N,/GPO_3*
X85150000Y-61112500D03*
D45*
G04 #@! TO.P,U10,15,GPIO12*
G04 #@! TO.N,/GPO_2*
X84312500Y-61950000D03*
G04 #@! TO.P,U10,16,GPIO13*
G04 #@! TO.N,/GPO_1*
X84312500Y-62350000D03*
G04 #@! TO.P,U10,17,GPIO14*
G04 #@! TO.N,/LEDA*
X84312500Y-62750000D03*
G04 #@! TO.P,U10,18,GPIO15*
G04 #@! TO.N,unconnected-(U10-Pad18)*
X84312500Y-63150000D03*
G04 #@! TO.P,U10,19,TESTEN*
G04 #@! TO.N,GND*
X84312500Y-63550000D03*
G04 #@! TO.P,U10,20,XIN*
G04 #@! TO.N,Net-(C7-Pad1)*
X84312500Y-63950000D03*
G04 #@! TO.P,U10,21,XOUT*
G04 #@! TO.N,Net-(R5-Pad1)*
X84312500Y-64350000D03*
G04 #@! TO.P,U10,22,IOVDD*
G04 #@! TO.N,+3V3*
X84312500Y-64750000D03*
G04 #@! TO.P,U10,23,DVDD*
G04 #@! TO.N,+1V1*
X84312500Y-65150000D03*
G04 #@! TO.P,U10,24,SWCLK*
G04 #@! TO.N,unconnected-(U10-Pad24)*
X84312500Y-65550000D03*
G04 #@! TO.P,U10,25,SWD*
G04 #@! TO.N,unconnected-(U10-Pad25)*
X84312500Y-65950000D03*
G04 #@! TO.P,U10,26,RUN*
G04 #@! TO.N,unconnected-(U10-Pad26)*
X84312500Y-66350000D03*
G04 #@! TO.P,U10,27,GPIO16*
G04 #@! TO.N,unconnected-(U10-Pad27)*
X84312500Y-66750000D03*
G04 #@! TO.P,U10,28,GPIO17*
G04 #@! TO.N,unconnected-(U10-Pad28)*
X84312500Y-67150000D03*
D44*
G04 #@! TO.P,U10,29,GPIO18*
G04 #@! TO.N,unconnected-(U10-Pad29)*
X85150000Y-67987500D03*
G04 #@! TO.P,U10,30,GPIO19*
G04 #@! TO.N,unconnected-(U10-Pad30)*
X85550000Y-67987500D03*
G04 #@! TO.P,U10,31,GPIO20*
G04 #@! TO.N,unconnected-(U10-Pad31)*
X85950000Y-67987500D03*
G04 #@! TO.P,U10,32,GPIO21*
G04 #@! TO.N,unconnected-(U10-Pad32)*
X86350000Y-67987500D03*
G04 #@! TO.P,U10,33,IOVDD*
G04 #@! TO.N,+3V3*
X86750000Y-67987500D03*
G04 #@! TO.P,U10,34,GPIO22*
G04 #@! TO.N,unconnected-(U10-Pad34)*
X87150000Y-67987500D03*
G04 #@! TO.P,U10,35,GPIO23*
G04 #@! TO.N,unconnected-(U10-Pad35)*
X87550000Y-67987500D03*
G04 #@! TO.P,U10,36,GPIO24*
G04 #@! TO.N,unconnected-(U10-Pad36)*
X87950000Y-67987500D03*
G04 #@! TO.P,U10,37,GPIO25*
G04 #@! TO.N,unconnected-(U10-Pad37)*
X88350000Y-67987500D03*
G04 #@! TO.P,U10,38,GPIO26_ADC0*
G04 #@! TO.N,unconnected-(U10-Pad38)*
X88750000Y-67987500D03*
G04 #@! TO.P,U10,39,GPIO27_ADC1*
G04 #@! TO.N,unconnected-(U10-Pad39)*
X89150000Y-67987500D03*
G04 #@! TO.P,U10,40,GPIO28_ADC2*
G04 #@! TO.N,unconnected-(U10-Pad40)*
X89550000Y-67987500D03*
G04 #@! TO.P,U10,41,GPIO29_ADC3*
G04 #@! TO.N,unconnected-(U10-Pad41)*
X89950000Y-67987500D03*
G04 #@! TO.P,U10,42,IOVDD*
G04 #@! TO.N,+3V3*
X90350000Y-67987500D03*
D45*
G04 #@! TO.P,U10,43,ADC_AVDD*
X91187500Y-67150000D03*
G04 #@! TO.P,U10,44,VREG_IN*
X91187500Y-66750000D03*
G04 #@! TO.P,U10,45,VREG_VOUT*
G04 #@! TO.N,+1V1*
X91187500Y-66350000D03*
G04 #@! TO.P,U10,46,USB_DM*
G04 #@! TO.N,Net-(R7-Pad2)*
X91187500Y-65950000D03*
G04 #@! TO.P,U10,47,USB_DP*
G04 #@! TO.N,Net-(R6-Pad1)*
X91187500Y-65550000D03*
G04 #@! TO.P,U10,48,USB_VDD*
G04 #@! TO.N,+3V3*
X91187500Y-65150000D03*
G04 #@! TO.P,U10,49,IOVDD*
X91187500Y-64750000D03*
G04 #@! TO.P,U10,50,DVDD*
G04 #@! TO.N,+1V1*
X91187500Y-64350000D03*
G04 #@! TO.P,U10,51,QSPI_SD3*
G04 #@! TO.N,/QSPI_SD3*
X91187500Y-63950000D03*
G04 #@! TO.P,U10,52,QSPI_SCLK*
G04 #@! TO.N,/QSPI_SCLK*
X91187500Y-63550000D03*
G04 #@! TO.P,U10,53,QSPI_SD0*
G04 #@! TO.N,/QSPI_SD0*
X91187500Y-63150000D03*
G04 #@! TO.P,U10,54,QSPI_SD2*
G04 #@! TO.N,/QSPI_SD2*
X91187500Y-62750000D03*
G04 #@! TO.P,U10,55,QSPI_SD1*
G04 #@! TO.N,/QSPI_SD1*
X91187500Y-62350000D03*
G04 #@! TO.P,U10,56,QSPI_SS*
G04 #@! TO.N,/QSPI_SS*
X91187500Y-61950000D03*
D46*
G04 #@! TO.P,U10,57,GND*
G04 #@! TO.N,GND*
X87750000Y-64550000D03*
D47*
X87750000Y-64550000D03*
X89025000Y-65825000D03*
X86475000Y-64550000D03*
X86475000Y-63275000D03*
X89025000Y-64550000D03*
X87750000Y-65825000D03*
X89025000Y-63275000D03*
X87750000Y-63275000D03*
X86475000Y-65825000D03*
G04 #@! TD*
D48*
G04 #@! TO.P,L1,1*
G04 #@! TO.N,Net-(D1-Pad1)*
X29600000Y-70825000D03*
G04 #@! TO.P,L1,2*
G04 #@! TO.N,+5V*
X33750000Y-70825000D03*
G04 #@! TD*
D14*
G04 #@! TO.P,D4,1,K*
G04 #@! TO.N,Net-(D4-Pad1)*
X84350000Y-124050000D03*
G04 #@! TO.P,D4,2,A*
G04 #@! TO.N,+5V*
X84350000Y-127350000D03*
G04 #@! TD*
D49*
G04 #@! TO.P,U311,1,OE1*
G04 #@! TO.N,+3V3*
X99311365Y-92032400D03*
G04 #@! TO.P,U311,2,A1*
G04 #@! TO.N,Net-(J311-Pad4)*
X99819365Y-92032400D03*
G04 #@! TO.P,U311,3,Y2*
G04 #@! TO.N,Net-(J311-Pad3)*
X100327365Y-92032400D03*
G04 #@! TO.P,U311,4,GND*
G04 #@! TO.N,GND*
X100835365Y-92032400D03*
G04 #@! TO.P,U311,5,A2*
G04 #@! TO.N,/TXD0*
X100835365Y-89187600D03*
G04 #@! TO.P,U311,6,Y1*
G04 #@! TO.N,/RXD0*
X100327365Y-89187600D03*
G04 #@! TO.P,U311,7,OE2*
G04 #@! TO.N,+3V3*
X99819365Y-89187600D03*
G04 #@! TO.P,U311,8,VCC*
X99311365Y-89187600D03*
G04 #@! TD*
D19*
G04 #@! TO.P,R54,1*
G04 #@! TO.N,/SD_DAT1*
X76750000Y-124037500D03*
G04 #@! TO.P,R54,2*
G04 #@! TO.N,/SD_PWR*
X76750000Y-125862500D03*
G04 #@! TD*
G04 #@! TO.P,R57,1*
G04 #@! TO.N,/SD_CLK*
X72100000Y-124037500D03*
G04 #@! TO.P,R57,2*
G04 #@! TO.N,/SD_PWR*
X72100000Y-125862500D03*
G04 #@! TD*
D29*
G04 #@! TO.P,R104,1*
G04 #@! TO.N,/CANL*
X51797500Y-57600000D03*
G04 #@! TO.P,R104,2*
G04 #@! TO.N,/CANH*
X49972500Y-57600000D03*
G04 #@! TD*
D19*
G04 #@! TO.P,R56,1*
G04 #@! TO.N,/SD_CMD*
X86500000Y-124037500D03*
G04 #@! TO.P,R56,2*
G04 #@! TO.N,/SD_PWR*
X86500000Y-125862500D03*
G04 #@! TD*
D50*
G04 #@! TO.P,Module2,1,GND*
G04 #@! TO.N,GND*
X59700000Y-116000000D03*
G04 #@! TO.P,Module2,2,GND*
X59700000Y-112920000D03*
G04 #@! TO.P,Module2,3,Ethernet_Pair3_P*
G04 #@! TO.N,unconnected-(Module2-Pad3)*
X60100000Y-116000000D03*
G04 #@! TO.P,Module2,4,Ethernet_Pair1_P*
G04 #@! TO.N,unconnected-(Module2-Pad4)*
X60100000Y-112920000D03*
G04 #@! TO.P,Module2,5,Ethernet_Pair3_N*
G04 #@! TO.N,unconnected-(Module2-Pad5)*
X60500000Y-116000000D03*
G04 #@! TO.P,Module2,6,Ethernet_Pair1_N*
G04 #@! TO.N,unconnected-(Module2-Pad6)*
X60500000Y-112920000D03*
G04 #@! TO.P,Module2,7,GND*
G04 #@! TO.N,GND*
X60900000Y-116000000D03*
G04 #@! TO.P,Module2,8,GND*
X60900000Y-112920000D03*
G04 #@! TO.P,Module2,9,Ethernet_Pair2_N*
G04 #@! TO.N,unconnected-(Module2-Pad9)*
X61300000Y-116000000D03*
G04 #@! TO.P,Module2,10,Ethernet_Pair0_N*
G04 #@! TO.N,unconnected-(Module2-Pad10)*
X61300000Y-112920000D03*
G04 #@! TO.P,Module2,11,Ethernet_Pair2_P*
G04 #@! TO.N,unconnected-(Module2-Pad11)*
X61700000Y-116000000D03*
G04 #@! TO.P,Module2,12,Ethernet_Pair0_P*
G04 #@! TO.N,unconnected-(Module2-Pad12)*
X61700000Y-112920000D03*
G04 #@! TO.P,Module2,13,GND*
G04 #@! TO.N,GND*
X62100000Y-116000000D03*
G04 #@! TO.P,Module2,14,GND*
X62100000Y-112920000D03*
G04 #@! TO.P,Module2,15,Ethernet_nLED3(3.3v)*
G04 #@! TO.N,unconnected-(Module2-Pad15)*
X62500000Y-116000000D03*
G04 #@! TO.P,Module2,16,Ethernet_SYNC_IN(1.8v)*
G04 #@! TO.N,unconnected-(Module2-Pad16)*
X62500000Y-112920000D03*
G04 #@! TO.P,Module2,17,Ethernet_nLED2(3.3v)*
G04 #@! TO.N,unconnected-(Module2-Pad17)*
X62900000Y-116000000D03*
G04 #@! TO.P,Module2,18,Ethernet_SYNC_OUT(1.8v)*
G04 #@! TO.N,unconnected-(Module2-Pad18)*
X62900000Y-112920000D03*
G04 #@! TO.P,Module2,19,Ethernet_nLED1(3.3v)*
G04 #@! TO.N,unconnected-(Module2-Pad19)*
X63300000Y-116000000D03*
G04 #@! TO.P,Module2,20,EEPROM_nWP*
G04 #@! TO.N,unconnected-(Module2-Pad20)*
X63300000Y-112920000D03*
G04 #@! TO.P,Module2,21,PI_nLED_Activity*
G04 #@! TO.N,/LED_GRN*
X63700000Y-116000000D03*
G04 #@! TO.P,Module2,22,GND*
G04 #@! TO.N,GND*
X63700000Y-112920000D03*
G04 #@! TO.P,Module2,23,GND*
X64100000Y-116000000D03*
G04 #@! TO.P,Module2,24,GPIO26*
G04 #@! TO.N,unconnected-(Module2-Pad24)*
X64100000Y-112920000D03*
G04 #@! TO.P,Module2,25,GPIO21*
G04 #@! TO.N,/RF69_SCK*
X64500000Y-116000000D03*
G04 #@! TO.P,Module2,26,GPIO19*
G04 #@! TO.N,/RF69_MISO*
X64500000Y-112920000D03*
G04 #@! TO.P,Module2,27,GPIO20*
G04 #@! TO.N,/RF69_MOSI*
X64900000Y-116000000D03*
G04 #@! TO.P,Module2,28,GPIO13*
G04 #@! TO.N,unconnected-(Module2-Pad28)*
X64900000Y-112920000D03*
G04 #@! TO.P,Module2,29,GPIO16*
G04 #@! TO.N,/LED_RED*
X65300000Y-116000000D03*
G04 #@! TO.P,Module2,30,GPIO6*
G04 #@! TO.N,/MODE_BTN*
X65300000Y-112920000D03*
G04 #@! TO.P,Module2,31,GPIO12*
G04 #@! TO.N,unconnected-(Module2-Pad31)*
X65700000Y-116000000D03*
G04 #@! TO.P,Module2,32,GND*
G04 #@! TO.N,GND*
X65700000Y-112920000D03*
G04 #@! TO.P,Module2,33,GND*
X66100000Y-116000000D03*
G04 #@! TO.P,Module2,34,GPIO5*
G04 #@! TO.N,/RXD3*
X66100000Y-112920000D03*
G04 #@! TO.P,Module2,35,ID_SC*
G04 #@! TO.N,unconnected-(Module2-Pad35)*
X66500000Y-116000000D03*
G04 #@! TO.P,Module2,36,ID_SD*
G04 #@! TO.N,unconnected-(Module2-Pad36)*
X66500000Y-112920000D03*
G04 #@! TO.P,Module2,37,GPIO7*
G04 #@! TO.N,unconnected-(Module2-Pad37)*
X66900000Y-116000000D03*
G04 #@! TO.P,Module2,38,GPIO11*
G04 #@! TO.N,/SPI0_SCLK*
X66900000Y-112920000D03*
G04 #@! TO.P,Module2,39,GPIO8*
G04 #@! TO.N,/SPI0_CE0_N*
X67300000Y-116000000D03*
G04 #@! TO.P,Module2,40,GPIO9*
G04 #@! TO.N,/SPI0_MISO*
X67300000Y-112920000D03*
G04 #@! TO.P,Module2,41,GPIO25*
G04 #@! TO.N,/MCP_INT*
X67700000Y-116000000D03*
G04 #@! TO.P,Module2,42,GND*
G04 #@! TO.N,GND*
X67700000Y-112920000D03*
G04 #@! TO.P,Module2,43,GND*
X68100000Y-116000000D03*
G04 #@! TO.P,Module2,44,GPIO10*
G04 #@! TO.N,/SPI0_MOSI*
X68100000Y-112920000D03*
G04 #@! TO.P,Module2,45,GPIO24*
G04 #@! TO.N,/RF69_INT*
X68500000Y-116000000D03*
G04 #@! TO.P,Module2,46,GPIO22*
G04 #@! TO.N,/WIFI_LED*
X68500000Y-112920000D03*
G04 #@! TO.P,Module2,47,GPIO23*
G04 #@! TO.N,unconnected-(Module2-Pad47)*
X68900000Y-116000000D03*
G04 #@! TO.P,Module2,48,GPIO27*
G04 #@! TO.N,/PAUSE_BTN*
X68900000Y-112920000D03*
G04 #@! TO.P,Module2,49,GPIO18*
G04 #@! TO.N,/RF69_NSS*
X69300000Y-116000000D03*
G04 #@! TO.P,Module2,50,GPIO17*
G04 #@! TO.N,/RF69_RESET*
X69300000Y-112920000D03*
G04 #@! TO.P,Module2,51,GPIO15*
G04 #@! TO.N,/RXD0*
X69700000Y-116000000D03*
G04 #@! TO.P,Module2,52,GND*
G04 #@! TO.N,GND*
X69700000Y-112920000D03*
G04 #@! TO.P,Module2,53,GND*
X70100000Y-116000000D03*
G04 #@! TO.P,Module2,54,GPIO4*
G04 #@! TO.N,/TXD3*
X70100000Y-112920000D03*
G04 #@! TO.P,Module2,55,GPIO14*
G04 #@! TO.N,/TXD0*
X70500000Y-116000000D03*
G04 #@! TO.P,Module2,56,GPIO3*
G04 #@! TO.N,/I2C1_SCL*
X70500000Y-112920000D03*
G04 #@! TO.P,Module2,57,SD_CLK*
G04 #@! TO.N,/SD_CLK*
X70900000Y-116000000D03*
G04 #@! TO.P,Module2,58,GPIO2*
G04 #@! TO.N,/I2C1_SDA*
X70900000Y-112920000D03*
G04 #@! TO.P,Module2,59,GND*
G04 #@! TO.N,GND*
X71300000Y-116000000D03*
G04 #@! TO.P,Module2,60,GND*
X71300000Y-112920000D03*
G04 #@! TO.P,Module2,61,SD_DAT3*
G04 #@! TO.N,/SD_DAT3*
X71700000Y-116000000D03*
G04 #@! TO.P,Module2,62,SD_CMD*
G04 #@! TO.N,/SD_CMD*
X71700000Y-112920000D03*
G04 #@! TO.P,Module2,63,SD_DAT0*
G04 #@! TO.N,/SD_DAT0*
X72100000Y-116000000D03*
G04 #@! TO.P,Module2,64,SD_DAT5*
G04 #@! TO.N,unconnected-(Module2-Pad64)*
X72100000Y-112920000D03*
G04 #@! TO.P,Module2,65,GND*
G04 #@! TO.N,GND*
X72500000Y-116000000D03*
G04 #@! TO.P,Module2,66,GND*
X72500000Y-112920000D03*
G04 #@! TO.P,Module2,67,SD_DAT1*
G04 #@! TO.N,/SD_DAT1*
X72900000Y-116000000D03*
G04 #@! TO.P,Module2,68,SD_DAT4*
G04 #@! TO.N,unconnected-(Module2-Pad68)*
X72900000Y-112920000D03*
G04 #@! TO.P,Module2,69,SD_DAT2*
G04 #@! TO.N,/SD_DAT2*
X73300000Y-116000000D03*
G04 #@! TO.P,Module2,70,SD_DAT7*
G04 #@! TO.N,unconnected-(Module2-Pad70)*
X73300000Y-112920000D03*
G04 #@! TO.P,Module2,71,GND*
G04 #@! TO.N,GND*
X73700000Y-116000000D03*
G04 #@! TO.P,Module2,72,SD_DAT6*
G04 #@! TO.N,unconnected-(Module2-Pad72)*
X73700000Y-112920000D03*
G04 #@! TO.P,Module2,73,SD_VDD_Override*
G04 #@! TO.N,unconnected-(Module2-Pad73)*
X74100000Y-116000000D03*
G04 #@! TO.P,Module2,74,GND*
G04 #@! TO.N,GND*
X74100000Y-112920000D03*
G04 #@! TO.P,Module2,75,SD_PWR_ON*
G04 #@! TO.N,/SD_PWR_ON*
X74500000Y-116000000D03*
G04 #@! TO.P,Module2,76,Reserved*
G04 #@! TO.N,unconnected-(Module2-Pad76)*
X74500000Y-112920000D03*
G04 #@! TO.P,Module2,77,+5v_(Input)*
G04 #@! TO.N,Net-(D4-Pad1)*
X74900000Y-116000000D03*
G04 #@! TO.P,Module2,78,GPIO_VREF(1.8v/3.3v_Input)*
G04 #@! TO.N,+3V3*
X74900000Y-112920000D03*
G04 #@! TO.P,Module2,79,+5v_(Input)*
G04 #@! TO.N,Net-(D4-Pad1)*
X75300000Y-116000000D03*
G04 #@! TO.P,Module2,80,SCL0*
G04 #@! TO.N,unconnected-(Module2-Pad80)*
X75300000Y-112920000D03*
G04 #@! TO.P,Module2,81,+5v_(Input)*
G04 #@! TO.N,Net-(D4-Pad1)*
X75700000Y-116000000D03*
G04 #@! TO.P,Module2,82,SDA0*
G04 #@! TO.N,unconnected-(Module2-Pad82)*
X75700000Y-112920000D03*
G04 #@! TO.P,Module2,83,+5v_(Input)*
G04 #@! TO.N,Net-(D4-Pad1)*
X76100000Y-116000000D03*
G04 #@! TO.P,Module2,84,+3.3v_(Output)*
G04 #@! TO.N,+3V3*
X76100000Y-112920000D03*
G04 #@! TO.P,Module2,85,+5v_(Input)*
G04 #@! TO.N,Net-(D4-Pad1)*
X76500000Y-116000000D03*
G04 #@! TO.P,Module2,86,+3.3v_(Output)*
G04 #@! TO.N,+3V3*
X76500000Y-112920000D03*
G04 #@! TO.P,Module2,87,+5v_(Input)*
G04 #@! TO.N,Net-(D4-Pad1)*
X76900000Y-116000000D03*
G04 #@! TO.P,Module2,88,+1.8v_(Output)*
G04 #@! TO.N,+1V8*
X76900000Y-112920000D03*
G04 #@! TO.P,Module2,89,WiFi_nDisable*
G04 #@! TO.N,unconnected-(Module2-Pad89)*
X77300000Y-116000000D03*
G04 #@! TO.P,Module2,90,+1.8v_(Output)*
G04 #@! TO.N,+1V8*
X77300000Y-112920000D03*
G04 #@! TO.P,Module2,91,BT_nDisable*
G04 #@! TO.N,unconnected-(Module2-Pad91)*
X77700000Y-116000000D03*
G04 #@! TO.P,Module2,92,RUN_PG*
G04 #@! TO.N,unconnected-(Module2-Pad92)*
X77700000Y-112920000D03*
G04 #@! TO.P,Module2,93,nRPIBOOT*
G04 #@! TO.N,unconnected-(Module2-Pad93)*
X78100000Y-116000000D03*
G04 #@! TO.P,Module2,94,AnalogIP1*
G04 #@! TO.N,unconnected-(Module2-Pad94)*
X78100000Y-112920000D03*
G04 #@! TO.P,Module2,95,nPI_LED_PWR*
G04 #@! TO.N,unconnected-(Module2-Pad95)*
X78500000Y-116000000D03*
G04 #@! TO.P,Module2,96,AnalogIP0*
G04 #@! TO.N,unconnected-(Module2-Pad96)*
X78500000Y-112920000D03*
G04 #@! TO.P,Module2,97,Camera_GPIO*
G04 #@! TO.N,unconnected-(Module2-Pad97)*
X78900000Y-116000000D03*
G04 #@! TO.P,Module2,98,GND*
G04 #@! TO.N,GND*
X78900000Y-112920000D03*
G04 #@! TO.P,Module2,99,Global_EN*
G04 #@! TO.N,unconnected-(Module2-Pad99)*
X79300000Y-116000000D03*
G04 #@! TO.P,Module2,100,nEXTRST*
G04 #@! TO.N,unconnected-(Module2-Pad100)*
X79300000Y-112920000D03*
G04 #@! TO.P,Module2,101,USB_OTG_ID*
G04 #@! TO.N,unconnected-(Module2-Pad101)*
X59700000Y-82080000D03*
G04 #@! TO.P,Module2,102,PCIe_CLK_nREQ*
G04 #@! TO.N,unconnected-(Module2-Pad102)*
X59700000Y-79000000D03*
G04 #@! TO.P,Module2,103,USB2_N*
G04 #@! TO.N,/USB2_D_N*
X60100000Y-82080000D03*
G04 #@! TO.P,Module2,104,Reserved*
G04 #@! TO.N,unconnected-(Module2-Pad104)*
X60100000Y-79000000D03*
G04 #@! TO.P,Module2,105,USB2_P*
G04 #@! TO.N,/USB2_D_P*
X60500000Y-82080000D03*
G04 #@! TO.P,Module2,106,Reserved*
G04 #@! TO.N,unconnected-(Module2-Pad106)*
X60500000Y-79000000D03*
G04 #@! TO.P,Module2,107,GND*
G04 #@! TO.N,GND*
X60900000Y-82080000D03*
G04 #@! TO.P,Module2,108,GND*
X60900000Y-79000000D03*
G04 #@! TO.P,Module2,109,PCIe_nRST*
G04 #@! TO.N,unconnected-(Module2-Pad109)*
X61300000Y-82080000D03*
G04 #@! TO.P,Module2,110,PCIe_CLK_P*
G04 #@! TO.N,unconnected-(Module2-Pad110)*
X61300000Y-79000000D03*
G04 #@! TO.P,Module2,111,VDAC_COMP*
G04 #@! TO.N,unconnected-(Module2-Pad111)*
X61700000Y-82080000D03*
G04 #@! TO.P,Module2,112,PCIe_CLK_N*
G04 #@! TO.N,unconnected-(Module2-Pad112)*
X61700000Y-79000000D03*
G04 #@! TO.P,Module2,113,GND*
G04 #@! TO.N,GND*
X62100000Y-82080000D03*
G04 #@! TO.P,Module2,114,GND*
X62100000Y-79000000D03*
G04 #@! TO.P,Module2,115,CAM1_D0_N*
G04 #@! TO.N,unconnected-(Module2-Pad115)*
X62500000Y-82080000D03*
G04 #@! TO.P,Module2,116,PCIe_RX_P*
G04 #@! TO.N,unconnected-(Module2-Pad116)*
X62500000Y-79000000D03*
G04 #@! TO.P,Module2,117,CAM1_D0_P*
G04 #@! TO.N,unconnected-(Module2-Pad117)*
X62900000Y-82080000D03*
G04 #@! TO.P,Module2,118,PCIe_RX_N*
G04 #@! TO.N,unconnected-(Module2-Pad118)*
X62900000Y-79000000D03*
G04 #@! TO.P,Module2,119,GND*
G04 #@! TO.N,GND*
X63300000Y-82080000D03*
G04 #@! TO.P,Module2,120,GND*
X63300000Y-79000000D03*
G04 #@! TO.P,Module2,121,CAM1_D1_N*
G04 #@! TO.N,unconnected-(Module2-Pad121)*
X63700000Y-82080000D03*
G04 #@! TO.P,Module2,122,PCIe_TX_P*
G04 #@! TO.N,unconnected-(Module2-Pad122)*
X63700000Y-79000000D03*
G04 #@! TO.P,Module2,123,CAM1_D1_P*
G04 #@! TO.N,unconnected-(Module2-Pad123)*
X64100000Y-82080000D03*
G04 #@! TO.P,Module2,124,PCIe_TX_N*
G04 #@! TO.N,unconnected-(Module2-Pad124)*
X64100000Y-79000000D03*
G04 #@! TO.P,Module2,125,GND*
G04 #@! TO.N,GND*
X64500000Y-82080000D03*
G04 #@! TO.P,Module2,126,GND*
X64500000Y-79000000D03*
G04 #@! TO.P,Module2,127,CAM1_C_N*
G04 #@! TO.N,unconnected-(Module2-Pad127)*
X64900000Y-82080000D03*
G04 #@! TO.P,Module2,128,CAM0_D0_N*
G04 #@! TO.N,unconnected-(Module2-Pad128)*
X64900000Y-79000000D03*
G04 #@! TO.P,Module2,129,CAM1_C_P*
G04 #@! TO.N,unconnected-(Module2-Pad129)*
X65300000Y-82080000D03*
G04 #@! TO.P,Module2,130,CAM0_D0_P*
G04 #@! TO.N,unconnected-(Module2-Pad130)*
X65300000Y-79000000D03*
G04 #@! TO.P,Module2,131,GND*
G04 #@! TO.N,GND*
X65700000Y-82080000D03*
G04 #@! TO.P,Module2,132,GND*
X65700000Y-79000000D03*
G04 #@! TO.P,Module2,133,CAM1_D2_N*
G04 #@! TO.N,unconnected-(Module2-Pad133)*
X66100000Y-82080000D03*
G04 #@! TO.P,Module2,134,CAM0_D1_N*
G04 #@! TO.N,unconnected-(Module2-Pad134)*
X66100000Y-79000000D03*
G04 #@! TO.P,Module2,135,CAM1_D2_P*
G04 #@! TO.N,unconnected-(Module2-Pad135)*
X66500000Y-82080000D03*
G04 #@! TO.P,Module2,136,CAM0_D1_P*
G04 #@! TO.N,unconnected-(Module2-Pad136)*
X66500000Y-79000000D03*
G04 #@! TO.P,Module2,137,GND*
G04 #@! TO.N,GND*
X66900000Y-82080000D03*
G04 #@! TO.P,Module2,138,GND*
X66900000Y-79000000D03*
G04 #@! TO.P,Module2,139,CAM1_D3_N*
G04 #@! TO.N,unconnected-(Module2-Pad139)*
X67300000Y-82080000D03*
G04 #@! TO.P,Module2,140,CAM0_C_N*
G04 #@! TO.N,unconnected-(Module2-Pad140)*
X67300000Y-79000000D03*
G04 #@! TO.P,Module2,141,CAM1_D3_P*
G04 #@! TO.N,unconnected-(Module2-Pad141)*
X67700000Y-82080000D03*
G04 #@! TO.P,Module2,142,CAM0_C_P*
G04 #@! TO.N,unconnected-(Module2-Pad142)*
X67700000Y-79000000D03*
G04 #@! TO.P,Module2,143,HDMI1_HOTPLUG*
G04 #@! TO.N,unconnected-(Module2-Pad143)*
X68100000Y-82080000D03*
G04 #@! TO.P,Module2,144,GND*
G04 #@! TO.N,GND*
X68100000Y-79000000D03*
G04 #@! TO.P,Module2,145,HDMI1_SDA*
G04 #@! TO.N,unconnected-(Module2-Pad145)*
X68500000Y-82080000D03*
G04 #@! TO.P,Module2,146,HDMI1_TX2_P*
G04 #@! TO.N,unconnected-(Module2-Pad146)*
X68500000Y-79000000D03*
G04 #@! TO.P,Module2,147,HDMI1_SCL*
G04 #@! TO.N,unconnected-(Module2-Pad147)*
X68900000Y-82080000D03*
G04 #@! TO.P,Module2,148,HDMI1_TX2_N*
G04 #@! TO.N,unconnected-(Module2-Pad148)*
X68900000Y-79000000D03*
G04 #@! TO.P,Module2,149,HDMI1_CEC*
G04 #@! TO.N,unconnected-(Module2-Pad149)*
X69300000Y-82080000D03*
G04 #@! TO.P,Module2,150,GND*
G04 #@! TO.N,GND*
X69300000Y-79000000D03*
G04 #@! TO.P,Module2,151,HDMI0_CEC*
G04 #@! TO.N,unconnected-(Module2-Pad151)*
X69700000Y-82080000D03*
G04 #@! TO.P,Module2,152,HDMI1_TX1_P*
G04 #@! TO.N,unconnected-(Module2-Pad152)*
X69700000Y-79000000D03*
G04 #@! TO.P,Module2,153,HDMI0_HOTPLUG*
G04 #@! TO.N,unconnected-(Module2-Pad153)*
X70100000Y-82080000D03*
G04 #@! TO.P,Module2,154,HDMI1_TX1_N*
G04 #@! TO.N,unconnected-(Module2-Pad154)*
X70100000Y-79000000D03*
G04 #@! TO.P,Module2,155,GND*
G04 #@! TO.N,GND*
X70500000Y-82080000D03*
G04 #@! TO.P,Module2,156,GND*
X70500000Y-79000000D03*
G04 #@! TO.P,Module2,157,DSI0_D0_N*
G04 #@! TO.N,unconnected-(Module2-Pad157)*
X70900000Y-82080000D03*
G04 #@! TO.P,Module2,158,HDMI1_TX0_P*
G04 #@! TO.N,unconnected-(Module2-Pad158)*
X70900000Y-79000000D03*
G04 #@! TO.P,Module2,159,DSI0_D0_P*
G04 #@! TO.N,unconnected-(Module2-Pad159)*
X71300000Y-82080000D03*
G04 #@! TO.P,Module2,160,HDMI1_TX0_N*
G04 #@! TO.N,unconnected-(Module2-Pad160)*
X71300000Y-79000000D03*
G04 #@! TO.P,Module2,161,GND*
G04 #@! TO.N,GND*
X71700000Y-82080000D03*
G04 #@! TO.P,Module2,162,GND*
X71700000Y-79000000D03*
G04 #@! TO.P,Module2,163,DSI0_D1_N*
G04 #@! TO.N,unconnected-(Module2-Pad163)*
X72100000Y-82080000D03*
G04 #@! TO.P,Module2,164,HDMI1_CLK_P*
G04 #@! TO.N,unconnected-(Module2-Pad164)*
X72100000Y-79000000D03*
G04 #@! TO.P,Module2,165,DSI0_D1_P*
G04 #@! TO.N,unconnected-(Module2-Pad165)*
X72500000Y-82080000D03*
G04 #@! TO.P,Module2,166,HDMI1_CLK_N*
G04 #@! TO.N,unconnected-(Module2-Pad166)*
X72500000Y-79000000D03*
G04 #@! TO.P,Module2,167,GND*
G04 #@! TO.N,GND*
X72900000Y-82080000D03*
G04 #@! TO.P,Module2,168,GND*
X72900000Y-79000000D03*
G04 #@! TO.P,Module2,169,DSI0_C_N*
G04 #@! TO.N,unconnected-(Module2-Pad169)*
X73300000Y-82080000D03*
G04 #@! TO.P,Module2,170,HDMI0_TX2_P*
G04 #@! TO.N,unconnected-(Module2-Pad170)*
X73300000Y-79000000D03*
G04 #@! TO.P,Module2,171,DSI0_C_P*
G04 #@! TO.N,unconnected-(Module2-Pad171)*
X73700000Y-82080000D03*
G04 #@! TO.P,Module2,172,HDMI0_TX2_N*
G04 #@! TO.N,unconnected-(Module2-Pad172)*
X73700000Y-79000000D03*
G04 #@! TO.P,Module2,173,GND*
G04 #@! TO.N,GND*
X74100000Y-82080000D03*
G04 #@! TO.P,Module2,174,GND*
X74100000Y-79000000D03*
G04 #@! TO.P,Module2,175,DSI1_D0_N*
G04 #@! TO.N,unconnected-(Module2-Pad175)*
X74500000Y-82080000D03*
G04 #@! TO.P,Module2,176,HDMI0_TX1_P*
G04 #@! TO.N,unconnected-(Module2-Pad176)*
X74500000Y-79000000D03*
G04 #@! TO.P,Module2,177,DSI1_D0_P*
G04 #@! TO.N,unconnected-(Module2-Pad177)*
X74900000Y-82080000D03*
G04 #@! TO.P,Module2,178,HDMI0_TX1_N*
G04 #@! TO.N,unconnected-(Module2-Pad178)*
X74900000Y-79000000D03*
G04 #@! TO.P,Module2,179,GND*
G04 #@! TO.N,GND*
X75300000Y-82080000D03*
G04 #@! TO.P,Module2,180,GND*
X75300000Y-79000000D03*
G04 #@! TO.P,Module2,181,DSI1_D1_N*
G04 #@! TO.N,unconnected-(Module2-Pad181)*
X75700000Y-82080000D03*
G04 #@! TO.P,Module2,182,HDMI0_TX0_P*
G04 #@! TO.N,unconnected-(Module2-Pad182)*
X75700000Y-79000000D03*
G04 #@! TO.P,Module2,183,DSI1_D1_P*
G04 #@! TO.N,unconnected-(Module2-Pad183)*
X76100000Y-82080000D03*
G04 #@! TO.P,Module2,184,HDMI0_TX0_N*
G04 #@! TO.N,unconnected-(Module2-Pad184)*
X76100000Y-79000000D03*
G04 #@! TO.P,Module2,185,GND*
G04 #@! TO.N,GND*
X76500000Y-82080000D03*
G04 #@! TO.P,Module2,186,GND*
X76500000Y-79000000D03*
G04 #@! TO.P,Module2,187,DSI1_C_N*
G04 #@! TO.N,unconnected-(Module2-Pad187)*
X76900000Y-82080000D03*
G04 #@! TO.P,Module2,188,HDMI0_CLK_P*
G04 #@! TO.N,unconnected-(Module2-Pad188)*
X76900000Y-79000000D03*
G04 #@! TO.P,Module2,189,DSI1_C_P*
G04 #@! TO.N,unconnected-(Module2-Pad189)*
X77300000Y-82080000D03*
G04 #@! TO.P,Module2,190,HDMI0_CLK_N*
G04 #@! TO.N,unconnected-(Module2-Pad190)*
X77300000Y-79000000D03*
G04 #@! TO.P,Module2,191,GND*
G04 #@! TO.N,GND*
X77700000Y-82080000D03*
G04 #@! TO.P,Module2,192,GND*
X77700000Y-79000000D03*
G04 #@! TO.P,Module2,193,DSI1_D2_N*
G04 #@! TO.N,unconnected-(Module2-Pad193)*
X78100000Y-82080000D03*
G04 #@! TO.P,Module2,194,DSI1_D3_N*
G04 #@! TO.N,unconnected-(Module2-Pad194)*
X78100000Y-79000000D03*
G04 #@! TO.P,Module2,195,DSI1_D2_P*
G04 #@! TO.N,unconnected-(Module2-Pad195)*
X78500000Y-82080000D03*
G04 #@! TO.P,Module2,196,DSI1_D3_P*
G04 #@! TO.N,unconnected-(Module2-Pad196)*
X78500000Y-79000000D03*
G04 #@! TO.P,Module2,197,GND*
G04 #@! TO.N,GND*
X78900000Y-82080000D03*
G04 #@! TO.P,Module2,198,GND*
X78900000Y-79000000D03*
G04 #@! TO.P,Module2,199,HDMI0_SDA*
G04 #@! TO.N,unconnected-(Module2-Pad199)*
X79300000Y-82080000D03*
G04 #@! TO.P,Module2,200,HDMI0_SCL*
G04 #@! TO.N,unconnected-(Module2-Pad200)*
X79300000Y-79000000D03*
G04 #@! TD*
D51*
G04 #@! TO.P,D2,1,K*
G04 #@! TO.N,/VIN*
X27850001Y-56300000D03*
G04 #@! TO.P,D2,2,A*
G04 #@! TO.N,VCC*
X31150001Y-56300000D03*
G04 #@! TD*
D23*
G04 #@! TO.P,C23,1*
G04 #@! TO.N,+3V3*
X95025000Y-69587500D03*
G04 #@! TO.P,C23,2*
G04 #@! TO.N,GND*
X95025000Y-71312500D03*
G04 #@! TD*
D52*
G04 #@! TO.P,U304,1,VIN*
G04 #@! TO.N,/VIN*
X28499999Y-58600000D03*
G04 #@! TO.P,U304,2,VOUT*
G04 #@! TO.N,+5V*
X28499999Y-59870000D03*
G04 #@! TO.P,U304,3,FB*
G04 #@! TO.N,Net-(D1-Pad1)*
X28499999Y-61140000D03*
G04 #@! TO.P,U304,4,SD*
G04 #@! TO.N,GND*
X28499999Y-62410000D03*
G04 #@! TO.P,U304,5,GND5*
X33699999Y-62410000D03*
G04 #@! TO.P,U304,6,GND6*
X33699999Y-61140000D03*
G04 #@! TO.P,U304,7,GND7*
X33699999Y-59870000D03*
G04 #@! TO.P,U304,8,GND8*
X33699999Y-58600000D03*
G04 #@! TD*
D24*
G04 #@! TO.P,D301,1,K*
G04 #@! TO.N,Net-(D301-Pad1)*
X34530000Y-116500000D03*
G04 #@! TO.P,D301,2,A*
G04 #@! TO.N,+3V3*
X36280000Y-116500000D03*
G04 #@! TD*
D31*
G04 #@! TO.P,H302,1,1*
G04 #@! TO.N,GND*
X67000000Y-74000000D03*
G04 #@! TD*
D23*
G04 #@! TO.P,C4,1*
G04 #@! TO.N,Net-(C4-Pad1)*
X79575000Y-54162500D03*
G04 #@! TO.P,C4,2*
G04 #@! TO.N,GND*
X79575000Y-55887500D03*
G04 #@! TD*
G04 #@! TO.P,C6,1*
G04 #@! TO.N,+3V3*
X103950000Y-70887500D03*
G04 #@! TO.P,C6,2*
G04 #@! TO.N,GND*
X103950000Y-72612500D03*
G04 #@! TD*
D29*
G04 #@! TO.P,R2,1*
G04 #@! TO.N,Net-(J6-PadA5)*
X63062500Y-128650000D03*
G04 #@! TO.P,R2,2*
G04 #@! TO.N,GND*
X61237500Y-128650000D03*
G04 #@! TD*
D42*
G04 #@! TO.P,R18,1*
G04 #@! TO.N,/SD_PWR_ON*
X104250000Y-115212500D03*
G04 #@! TO.P,R18,2*
G04 #@! TO.N,Net-(R18-Pad2)*
X104250000Y-113387500D03*
G04 #@! TD*
D27*
G04 #@! TO.P,C3,1*
G04 #@! TO.N,/VIN*
X32262500Y-65108041D03*
G04 #@! TO.P,C3,2*
G04 #@! TO.N,GND*
X34337500Y-65108041D03*
G04 #@! TD*
D14*
G04 #@! TO.P,D5,1,K*
G04 #@! TO.N,Net-(D4-Pad1)*
X81950000Y-124050000D03*
G04 #@! TO.P,D5,2,A*
G04 #@! TO.N,/USB2_VBUS*
X81950000Y-127350000D03*
G04 #@! TD*
D29*
G04 #@! TO.P,R22,1*
G04 #@! TO.N,Net-(D301-Pad1)*
X32817500Y-116500000D03*
G04 #@! TO.P,R22,2*
G04 #@! TO.N,/LED_GRN*
X30992500Y-116500000D03*
G04 #@! TD*
D10*
G04 #@! TO.P,C17,1*
G04 #@! TO.N,+3V3*
X85600000Y-57151414D03*
G04 #@! TO.P,C17,2*
G04 #@! TO.N,GND*
X85600000Y-55426414D03*
G04 #@! TD*
D53*
G04 #@! TO.P,U6,1,OUT*
G04 #@! TO.N,/SD_PWR*
X100012500Y-113350000D03*
G04 #@! TO.P,U6,2,GND*
G04 #@! TO.N,GND*
X100012500Y-114300000D03*
G04 #@! TO.P,U6,3,nFLG*
G04 #@! TO.N,unconnected-(U6-Pad3)*
X100012500Y-115250000D03*
G04 #@! TO.P,U6,4,EN*
G04 #@! TO.N,/SD_PWR_ON*
X102287500Y-115250000D03*
G04 #@! TO.P,U6,5,IN*
G04 #@! TO.N,Net-(R18-Pad2)*
X102287500Y-113350000D03*
G04 #@! TD*
D16*
G04 #@! TO.P,R16,1*
G04 #@! TO.N,+3V3*
X61187500Y-65600000D03*
G04 #@! TO.P,R16,2*
G04 #@! TO.N,/MCP_RESET*
X63012500Y-65600000D03*
G04 #@! TD*
D10*
G04 #@! TO.P,C19,1*
G04 #@! TO.N,+3V3*
X91490240Y-59426324D03*
G04 #@! TO.P,C19,2*
G04 #@! TO.N,GND*
X91490240Y-57701324D03*
G04 #@! TD*
D23*
G04 #@! TO.P,C22,1*
G04 #@! TO.N,GND*
X54125000Y-51437500D03*
G04 #@! TO.P,C22,2*
G04 #@! TO.N,/MCP_OSC1*
X54125000Y-53162500D03*
G04 #@! TD*
D29*
G04 #@! TO.P,R4,1*
G04 #@! TO.N,/QSPI_SS*
X96512500Y-59750000D03*
G04 #@! TO.P,R4,2*
G04 #@! TO.N,+3V3*
X94687500Y-59750000D03*
G04 #@! TD*
D54*
G04 #@! TO.P,Y3,1,1*
G04 #@! TO.N,Net-(C8-Pad2)*
X79500000Y-67175000D03*
G04 #@! TO.P,Y3,2,2*
G04 #@! TO.N,GND*
X79500000Y-64275000D03*
G04 #@! TO.P,Y3,3,3*
G04 #@! TO.N,Net-(C7-Pad1)*
X77200000Y-64275000D03*
G04 #@! TO.P,Y3,4,4*
G04 #@! TO.N,GND*
X77200000Y-67175000D03*
G04 #@! TD*
D55*
G04 #@! TO.N,/SD_DAT0*
X92160000Y-119200000D03*
D56*
G04 #@! TO.N,+5V*
X34000000Y-75000000D03*
X35500000Y-75000000D03*
X36500000Y-74000000D03*
X36500000Y-72500000D03*
X36500000Y-71000000D03*
X36500000Y-69500000D03*
X36500000Y-68000000D03*
D55*
G04 #@! TO.N,GND*
X100300000Y-86650000D03*
G04 #@! TO.N,/I2C1_SDA*
X73850000Y-77400000D03*
G04 #@! TO.N,/I2C1_SCL*
X73700000Y-65300000D03*
X73850000Y-76450000D03*
G04 #@! TO.N,/I2C1_SDA*
X72900000Y-65300000D03*
D56*
G04 #@! TO.N,GND*
X64450000Y-63750000D03*
X52950000Y-54400000D03*
X46150000Y-60050000D03*
G04 #@! TO.N,VCC*
X33500000Y-56300000D03*
X38750000Y-56300000D03*
X36600000Y-56300000D03*
X76150000Y-50250000D03*
G04 #@! TO.N,/LEDA_OUT*
X74600000Y-46850000D03*
G04 #@! TO.N,GND*
X30800000Y-54400000D03*
X36200000Y-58600000D03*
X25450000Y-56300000D03*
X28000000Y-63500000D03*
G04 #@! TO.N,+5V*
X84400000Y-130950000D03*
G04 #@! TO.N,/SD_PWR*
X95450000Y-122700000D03*
X100200000Y-122700000D03*
D55*
G04 #@! TO.N,/WIFI_LED*
X53090000Y-116260000D03*
X54000000Y-111375000D03*
G04 #@! TO.N,/LEDG*
X86825000Y-54250000D03*
G04 #@! TO.N,/LEDR*
X87450000Y-54250000D03*
G04 #@! TO.N,/SD_DAT2*
X74500000Y-117800000D03*
X93290000Y-118510000D03*
G04 #@! TO.N,/SD_DAT3*
X93280000Y-119210000D03*
X73940000Y-120530000D03*
G04 #@! TO.N,/SD_CMD*
X95400000Y-121600000D03*
X86500000Y-121600000D03*
X71700000Y-114250000D03*
X86300000Y-113400000D03*
G04 #@! TO.N,/SD_CLK*
X94350000Y-121000000D03*
X73200000Y-121200000D03*
G04 #@! TO.N,/SD_DAT0*
X74460000Y-119920000D03*
G04 #@! TO.N,/SD_DAT1*
X91050000Y-119110000D03*
X75000000Y-119460000D03*
G04 #@! TO.N,/RXD3*
X51250000Y-74725000D03*
X42175000Y-74700000D03*
G04 #@! TO.N,/TXD3*
X53350000Y-77275000D03*
X42175000Y-75400000D03*
G04 #@! TO.N,/USB2_D_N*
X59100000Y-134600000D03*
X48750000Y-87600000D03*
X59900000Y-86800000D03*
G04 #@! TO.N,/USB2_D_P*
X49450000Y-87600000D03*
X59100000Y-133900000D03*
X59900000Y-87500000D03*
G04 #@! TO.N,/LEDB*
X86200000Y-54250000D03*
D56*
G04 #@! TO.N,/SD_PWR_ON*
X98550000Y-116300000D03*
D55*
X74970000Y-117350000D03*
G04 #@! TO.N,/LED_GRN*
X63050000Y-117650000D03*
X52400000Y-118200000D03*
G04 #@! TO.N,+1V8*
X77640000Y-111970000D03*
G04 #@! TO.N,/GPO_1*
X80600000Y-54950000D03*
G04 #@! TO.N,/GPO_2*
X81275000Y-54950000D03*
G04 #@! TO.N,/GPO_3*
X81900000Y-54950000D03*
G04 #@! TO.N,/GPO_4*
X83825000Y-54975000D03*
G04 #@! TO.N,/GPO_5*
X83200000Y-55000000D03*
G04 #@! TO.N,/LED_RED*
X65750000Y-119850000D03*
X51050000Y-118200000D03*
G04 #@! TO.N,/MCP_INT*
X56525000Y-111425000D03*
X60350000Y-72300000D03*
X50350000Y-72300000D03*
X55625000Y-72300000D03*
X56525000Y-114850000D03*
G04 #@! TO.N,/SPI0_SCLK*
X56250000Y-74700000D03*
X52175000Y-74725000D03*
X61350000Y-74650000D03*
G04 #@! TO.N,/SPI0_MOSI*
X57500000Y-76500000D03*
X52225000Y-76475000D03*
X61950000Y-76475000D03*
G04 #@! TO.N,/SPI0_MISO*
X62575000Y-75750000D03*
X52200000Y-75775000D03*
X58250000Y-75775000D03*
G04 #@! TO.N,/PAUSE_BTN*
X68900000Y-111000000D03*
D56*
X93500000Y-109500000D03*
D55*
G04 #@! TO.N,/RF69_RESET*
X54000000Y-112400000D03*
X54000000Y-116260000D03*
G04 #@! TO.N,/RF69_INT*
X56700000Y-120550000D03*
X68500000Y-120550000D03*
G04 #@! TO.N,/TXD0*
X70450000Y-114250000D03*
X98200000Y-91350000D03*
X86800000Y-91350000D03*
X86800000Y-112100000D03*
G04 #@! TO.N,/RXD0*
X69700000Y-114250000D03*
X87450000Y-90600000D03*
X98200000Y-90600000D03*
X87450000Y-112100000D03*
G04 #@! TO.N,+3V3*
X88400000Y-69275000D03*
D56*
X46150000Y-62100000D03*
X72075000Y-63200000D03*
D55*
X104900000Y-72600000D03*
X95025000Y-68475000D03*
X88400000Y-70125000D03*
X87450000Y-69275000D03*
X87450000Y-70125000D03*
X74900000Y-111975000D03*
X75500000Y-111325000D03*
D56*
X102225000Y-92398509D03*
D55*
X90500000Y-58500000D03*
D56*
X31500000Y-130500000D03*
D55*
X76100000Y-111975000D03*
D56*
X98550000Y-117750000D03*
D55*
X37750000Y-116500000D03*
X84500000Y-56750000D03*
G04 #@! TO.N,/MODE_BTN*
X65375000Y-111000000D03*
D56*
X93500000Y-104475000D03*
D55*
G04 #@! TO.N,/SPI0_CE0_N*
X51250000Y-73325000D03*
X63300000Y-73300000D03*
X57250000Y-111000000D03*
X58875000Y-73325000D03*
X57250000Y-115525000D03*
G04 #@! TO.N,/RF69_MOSI*
X55350000Y-119050000D03*
X65150000Y-119000000D03*
G04 #@! TO.N,/RF69_NSS*
X54800000Y-121200000D03*
X69300000Y-121200000D03*
G04 #@! TO.N,/I2C1_SDA*
X88175000Y-58175000D03*
X42125000Y-76675000D03*
X53300000Y-78850000D03*
G04 #@! TO.N,/I2C1_SCL*
X42150000Y-76050000D03*
X53325000Y-78075000D03*
X87250000Y-58150000D03*
G04 #@! TO.N,/RF69_MISO*
X55900000Y-116850000D03*
X55900000Y-111800000D03*
G04 #@! TO.N,/RF69_SCK*
X54750000Y-118460000D03*
X64500000Y-118150000D03*
G04 #@! TO.N,GND*
X74100000Y-111900000D03*
X95725000Y-68475000D03*
X92250000Y-58500000D03*
X60900000Y-111900000D03*
X66100000Y-117100000D03*
X62100000Y-111900000D03*
X85600000Y-54250000D03*
D56*
X31500000Y-132525000D03*
X29050000Y-123975000D03*
D55*
X63900000Y-117650000D03*
D56*
X29050000Y-121050000D03*
X55225000Y-54025000D03*
D55*
X100050000Y-94350000D03*
X73000000Y-114250000D03*
X70100000Y-117100000D03*
X59700000Y-111900000D03*
D56*
X49225000Y-122500000D03*
X89750000Y-75325000D03*
X30950000Y-112255000D03*
X102500000Y-104500000D03*
X76275000Y-69525000D03*
X97825000Y-75300000D03*
X93250000Y-122700000D03*
X100750000Y-75275000D03*
D55*
X67800000Y-111900000D03*
D56*
X79600000Y-60625000D03*
D55*
X101300000Y-92025000D03*
X79300000Y-111900000D03*
X60900000Y-117100000D03*
D56*
X103325000Y-75275000D03*
D55*
X67800000Y-117100000D03*
X65950000Y-111900000D03*
D56*
X95275000Y-75325000D03*
D55*
X62100000Y-117100000D03*
X71200000Y-117100000D03*
D56*
X76175000Y-60600000D03*
X56000000Y-136475000D03*
D55*
X82775000Y-63275000D03*
D56*
X105275000Y-58275000D03*
X56025000Y-50225000D03*
X46150000Y-67800000D03*
X105525000Y-125725000D03*
D55*
X59700000Y-117100000D03*
X102625000Y-72600000D03*
X71750000Y-111900000D03*
X63700000Y-111900000D03*
D56*
X92300000Y-75325000D03*
X61250000Y-126800000D03*
D55*
X99705000Y-63230000D03*
D56*
X102500000Y-109500000D03*
D55*
X69600000Y-111900000D03*
D56*
X61925000Y-50250000D03*
X83975000Y-79475000D03*
D55*
G04 #@! TO.N,/GPO_6*
X82500000Y-54975000D03*
G04 #@! TO.N,/MCP_RESET*
X66150000Y-66825000D03*
X59525000Y-66800000D03*
X62825000Y-66800000D03*
G04 #@! TO.N,/GPO_7*
X89275000Y-54250000D03*
G04 #@! TO.N,/GPO_8*
X88650000Y-54250000D03*
G04 #@! TO.N,/GPO_9*
X88050000Y-54250000D03*
D56*
G04 #@! TO.N,/GPO_6_OUT*
X109000000Y-71700000D03*
G04 #@! TO.N,/GPO_4_OUT*
X106725000Y-71700000D03*
G04 #@! TO.N,/GPO_5_OUT*
X107824520Y-71675000D03*
D55*
G04 #@! TO.N,Net-(J6-PadA5)*
X64700000Y-128650000D03*
G04 #@! TD*
D57*
G04 #@! TO.N,/VIN*
X29025000Y-51390000D02*
X28950480Y-51464520D01*
X28950480Y-51464520D02*
X28950480Y-56424520D01*
D58*
G04 #@! TO.N,+3V3*
X74900000Y-112920000D02*
X74900000Y-111975000D01*
G04 #@! TO.N,+1V8*
X77640000Y-111970000D02*
X77300000Y-112310000D01*
X77300000Y-112310000D02*
X77300000Y-112920000D01*
G04 #@! TO.N,/RF69_SCK*
X54750000Y-118460000D02*
X54749520Y-118460480D01*
X54749520Y-120347652D02*
X55951440Y-121549572D01*
X54749520Y-118460480D02*
X54749520Y-120347652D01*
X55951440Y-121549572D02*
X55951440Y-128798560D01*
X55951440Y-128798560D02*
X54250000Y-130500000D01*
X54250000Y-130500000D02*
X51750000Y-130500000D01*
G04 #@! TO.N,/RF69_RESET*
X53625000Y-126500000D02*
X51750000Y-126500000D01*
X54000000Y-116260000D02*
X54000000Y-126125000D01*
X54000000Y-126125000D02*
X53625000Y-126500000D01*
G04 #@! TO.N,/WIFI_LED*
X53090000Y-116260000D02*
X51949040Y-117400960D01*
X51949040Y-117400960D02*
X41000960Y-117400960D01*
X41000960Y-117400960D02*
X36980000Y-113380000D01*
X36980000Y-113380000D02*
X36230000Y-113380000D01*
G04 #@! TO.N,/LED_RED*
X51050000Y-118200000D02*
X50550480Y-117700480D01*
X50550480Y-117700480D02*
X40400480Y-117700480D01*
X40400480Y-117700480D02*
X37700000Y-115000000D01*
X37700000Y-115000000D02*
X36262500Y-115000000D01*
G04 #@! TO.N,/LED_GRN*
X52400000Y-118200000D02*
X51800000Y-118800000D01*
X51800000Y-118800000D02*
X50400000Y-118800000D01*
X50400000Y-118800000D02*
X49600000Y-118000000D01*
X49600000Y-118000000D02*
X32550000Y-118000000D01*
X32550000Y-118000000D02*
X31050000Y-116500000D01*
X31050000Y-116500000D02*
X30992500Y-116500000D01*
D59*
G04 #@! TO.N,/SD_DAT2*
X93290000Y-118510000D02*
X95690000Y-118510000D01*
X95690000Y-118510000D02*
X98750000Y-121570000D01*
X98750000Y-121570000D02*
X98750000Y-124700000D01*
G04 #@! TO.N,/SD_DAT3*
X93280000Y-119210000D02*
X95262150Y-119210000D01*
X97650000Y-121597850D02*
X97650000Y-124700000D01*
X95262150Y-119210000D02*
X97650000Y-121597850D01*
D58*
G04 #@! TO.N,/SD_PWR_ON*
X74970000Y-117350000D02*
X74500000Y-116880000D01*
X74500000Y-116880000D02*
X74500000Y-116000000D01*
D59*
G04 #@! TO.N,/SD_DAT0*
X92150000Y-119200000D02*
X92160000Y-119200000D01*
G04 #@! TO.N,/SD_DAT1*
X91050000Y-119110000D02*
X91050000Y-124700000D01*
D58*
X76750000Y-124037500D02*
X76740000Y-124027500D01*
X76740000Y-124027500D02*
X76740000Y-121200000D01*
X76740000Y-121200000D02*
X75000000Y-119460000D01*
X75000000Y-119460000D02*
X72900000Y-117360000D01*
X72900000Y-117360000D02*
X72900000Y-116000000D01*
G04 #@! TO.N,/SD_DAT0*
X75200000Y-120660000D02*
X75200000Y-124037500D01*
X74460000Y-119920000D02*
X74420000Y-119920000D01*
X72100000Y-117600000D02*
X72100000Y-116000000D01*
X74460000Y-119920000D02*
X75200000Y-120660000D01*
X74420000Y-119920000D02*
X72100000Y-117600000D01*
G04 #@! TO.N,/SD_DAT3*
X73940000Y-120530000D02*
X73940000Y-120240000D01*
X73940000Y-120530000D02*
X73950000Y-120540000D01*
X71700000Y-118000000D02*
X71700000Y-116000000D01*
X73940000Y-120240000D02*
X71700000Y-118000000D01*
X73950000Y-120540000D02*
X73950000Y-122750000D01*
X73950000Y-122750000D02*
X73650000Y-123050000D01*
X73650000Y-123050000D02*
X73650000Y-124037500D01*
G04 #@! TO.N,/SD_CLK*
X94350000Y-124700000D02*
X94350000Y-121000000D01*
G04 #@! TO.N,/SD_CMD*
X86500000Y-121600000D02*
X86500000Y-113600000D01*
X86500000Y-113600000D02*
X86300000Y-113400000D01*
X86500000Y-121600000D02*
X86500000Y-124037500D01*
D59*
X95400000Y-121600000D02*
X95800000Y-121600000D01*
X95800000Y-121600000D02*
X96550000Y-122350000D01*
X96550000Y-122350000D02*
X96550000Y-124700000D01*
D58*
G04 #@! TO.N,/SD_CLK*
X73200000Y-121200000D02*
X73200000Y-120550000D01*
X73200000Y-120550000D02*
X70650000Y-118000000D01*
X70650000Y-118000000D02*
X70650000Y-116699022D01*
X70650000Y-116699022D02*
X70900000Y-116449022D01*
X70900000Y-116449022D02*
X70900000Y-116000000D01*
X73200000Y-121200000D02*
X73200000Y-122200000D01*
X73200000Y-122200000D02*
X72100000Y-123300000D01*
X72100000Y-123300000D02*
X72100000Y-124037500D01*
G04 #@! TO.N,/GPO_6*
X85550000Y-59601414D02*
X85550000Y-61112500D01*
X82500000Y-54975000D02*
X82500000Y-56551414D01*
X82500000Y-56551414D02*
X85550000Y-59601414D01*
G04 #@! TO.N,/RF69_RESET*
X54000000Y-112400000D02*
X55900000Y-114300000D01*
X68375000Y-114300000D02*
X69300000Y-113375000D01*
X69300000Y-113375000D02*
X69300000Y-112920000D01*
X55900000Y-114300000D02*
X68375000Y-114300000D01*
D57*
G04 #@! TO.N,+5V*
X31500000Y-75125000D02*
X30375000Y-75125000D01*
X25825000Y-135900000D02*
X28450000Y-138525000D01*
X57575000Y-138525000D02*
X61350000Y-134750000D01*
X30375000Y-75125000D02*
X25825000Y-79675000D01*
X81350000Y-134750000D02*
X84400000Y-131700000D01*
X25825000Y-79675000D02*
X25825000Y-135900000D01*
X28450000Y-138525000D02*
X57575000Y-138525000D01*
X61350000Y-134750000D02*
X81350000Y-134750000D01*
X84400000Y-131700000D02*
X84400000Y-130950000D01*
X84400000Y-130950000D02*
X84350000Y-131000000D01*
X84350000Y-131000000D02*
X84350000Y-127850000D01*
D60*
G04 #@! TO.N,/SD_PWR*
X94400000Y-127600000D02*
X94550000Y-127450000D01*
X86850000Y-127600000D02*
X94400000Y-127600000D01*
X86500000Y-127250000D02*
X86850000Y-127600000D01*
X86500000Y-125862500D02*
X86500000Y-127250000D01*
X72100000Y-125862500D02*
X86500000Y-125862500D01*
D59*
X100250000Y-119050000D02*
X100462500Y-119262500D01*
X100462500Y-119262500D02*
X102350000Y-119262500D01*
X100012500Y-113350000D02*
X98750000Y-113350000D01*
X99900000Y-119400000D02*
X100250000Y-119050000D01*
X98750000Y-113350000D02*
X97575000Y-114525000D01*
X97575000Y-114525000D02*
X97575000Y-118875000D01*
X97575000Y-118875000D02*
X98100000Y-119400000D01*
X98100000Y-119400000D02*
X99900000Y-119400000D01*
D58*
G04 #@! TO.N,/USB2_D_P*
X59100000Y-133900000D02*
X59036397Y-133900000D01*
X59036397Y-133900000D02*
X57599500Y-132463103D01*
X57599500Y-132463103D02*
X57599500Y-116731300D01*
X57599500Y-116731300D02*
X53500000Y-112631800D01*
X53500000Y-112631800D02*
X53500000Y-98075000D01*
X53500000Y-98075000D02*
X49250000Y-93825000D01*
X49250000Y-93825000D02*
X49250000Y-87800000D01*
X49250000Y-87800000D02*
X49450000Y-87600000D01*
D59*
G04 #@! TO.N,GND*
X100300000Y-85185000D02*
X100300000Y-86650000D01*
X99685000Y-84570000D02*
X100300000Y-85185000D01*
D58*
G04 #@! TO.N,/I2C1_SDA*
X72900000Y-76450000D02*
X73850000Y-77400000D01*
X72900000Y-65300000D02*
X72900000Y-76450000D01*
G04 #@! TO.N,/I2C1_SCL*
X73850000Y-76450000D02*
X73700000Y-76300000D01*
X73700000Y-76300000D02*
X73700000Y-65300000D01*
D59*
G04 #@! TO.N,GND*
X62937500Y-63750000D02*
X64450000Y-63750000D01*
D58*
G04 #@! TO.N,/MCP_INT*
X64460000Y-61400000D02*
X65200000Y-62140000D01*
X65200000Y-62140000D02*
X65200000Y-65225000D01*
X65200000Y-65225000D02*
X60350000Y-70075000D01*
X60350000Y-70075000D02*
X60350000Y-72300000D01*
G04 #@! TO.N,/I2C1_SDA*
X42125000Y-76675000D02*
X41400000Y-76675000D01*
X41400000Y-76675000D02*
X40550000Y-75825000D01*
X40550000Y-75825000D02*
X40550000Y-55775000D01*
X40550000Y-55775000D02*
X43400000Y-52925000D01*
X43400000Y-52925000D02*
X43400000Y-48950000D01*
X43400000Y-48950000D02*
X39490000Y-45040000D01*
X39490000Y-45040000D02*
X37405000Y-45040000D01*
G04 #@! TO.N,/RXD3*
X42175000Y-74700000D02*
X41825000Y-74700000D01*
X44300000Y-53295758D02*
X44300000Y-48850000D01*
X41448560Y-74323560D02*
X41448560Y-56147198D01*
X41448560Y-56147198D02*
X44300000Y-53295758D01*
X41825000Y-74700000D02*
X41448560Y-74323560D01*
X44300000Y-48850000D02*
X48110000Y-45040000D01*
X48110000Y-45040000D02*
X49975000Y-45040000D01*
G04 #@! TO.N,/TXD3*
X42175000Y-75400000D02*
X41675000Y-75400000D01*
X41675000Y-75400000D02*
X41149040Y-74874040D01*
X44000000Y-47100000D02*
X45785000Y-45315000D01*
X41149040Y-74874040D02*
X41149040Y-56023132D01*
X44000000Y-53172172D02*
X44000000Y-47100000D01*
X41149040Y-56023132D02*
X44000000Y-53172172D01*
X45785000Y-45315000D02*
X45785000Y-45040000D01*
G04 #@! TO.N,/I2C1_SCL*
X42150000Y-76050000D02*
X41650000Y-76050000D01*
X40849520Y-55899066D02*
X43700480Y-53048106D01*
X41650000Y-76050000D02*
X40849520Y-75249520D01*
X43700480Y-53048106D02*
X43700480Y-47145480D01*
X40849520Y-75249520D02*
X40849520Y-55899066D01*
X43700480Y-47145480D02*
X41595000Y-45040000D01*
D59*
G04 #@! TO.N,GND*
X54325000Y-55887500D02*
X54325000Y-54975000D01*
X54325000Y-54975000D02*
X53750000Y-54400000D01*
X53750000Y-54400000D02*
X52950000Y-54400000D01*
D60*
X48235000Y-57887500D02*
X47212500Y-57887500D01*
X47212500Y-57887500D02*
X46150000Y-58950000D01*
X46150000Y-58950000D02*
X46150000Y-60050000D01*
G04 #@! TO.N,/CANL*
X49975000Y-51390000D02*
X49975000Y-53675000D01*
X49975000Y-53675000D02*
X51797500Y-55497500D01*
X51797500Y-55497500D02*
X51797500Y-57600000D01*
G04 #@! TO.N,/CANH*
X49972500Y-57600000D02*
X49972500Y-56422500D01*
X49972500Y-56422500D02*
X48900000Y-55350000D01*
X48900000Y-55350000D02*
X46200000Y-55350000D01*
X46200000Y-55350000D02*
X45785000Y-54935000D01*
X45785000Y-54935000D02*
X45785000Y-51390000D01*
G04 #@! TO.N,/LEDA_OUT*
X74600000Y-46850000D02*
X74575000Y-46875000D01*
X74575000Y-46875000D02*
X74575000Y-54225000D01*
G04 #@! TO.N,VCC*
X76175000Y-50275000D02*
X76150000Y-50250000D01*
X76175000Y-54225000D02*
X76175000Y-50275000D01*
G04 #@! TO.N,GND*
X30812500Y-54387500D02*
X30800000Y-54400000D01*
X35350000Y-54387500D02*
X30812500Y-54387500D01*
X25425000Y-56325000D02*
X25450000Y-56300000D01*
X25425000Y-57850000D02*
X25425000Y-56325000D01*
X28499999Y-62410000D02*
X28499999Y-63000001D01*
X28499999Y-63000001D02*
X28000000Y-63500000D01*
X27987499Y-63512501D02*
X28000000Y-63500000D01*
X27987499Y-65108041D02*
X27987499Y-63512501D01*
G04 #@! TO.N,/CANH*
X49972500Y-58712500D02*
X49972500Y-57600000D01*
X49550000Y-59135000D02*
X49972500Y-58712500D01*
X49550000Y-62325000D02*
X49550000Y-59135000D01*
G04 #@! TO.N,/CANL*
X51797500Y-59287500D02*
X51797500Y-57600000D01*
X50820000Y-62325000D02*
X50820000Y-60265000D01*
X50820000Y-60265000D02*
X51797500Y-59287500D01*
G04 #@! TO.N,+5V*
X84350000Y-127350000D02*
X84350000Y-127850000D01*
G04 #@! TO.N,/SD_PWR*
X100250000Y-122650000D02*
X100200000Y-122700000D01*
D59*
X102362500Y-119250000D02*
X102350000Y-119262500D01*
D60*
X95450000Y-126550000D02*
X95450000Y-124700000D01*
D59*
X103687500Y-119537500D02*
X103400000Y-119250000D01*
D60*
X95450000Y-124700000D02*
X95450000Y-122700000D01*
X100250000Y-119050000D02*
X100250000Y-122650000D01*
X94500000Y-127500000D02*
X95450000Y-126550000D01*
D59*
X104250000Y-119537500D02*
X103687500Y-119537500D01*
X103400000Y-119250000D02*
X102362500Y-119250000D01*
D60*
G04 #@! TO.N,/USB2_VBUS*
X69745000Y-129331828D02*
X71726828Y-127350000D01*
X71726828Y-127350000D02*
X78076828Y-127350000D01*
X69745000Y-130929213D02*
X69745000Y-129331828D01*
X78076828Y-127350000D02*
X81950000Y-127350000D01*
X76095000Y-129331828D02*
X78076828Y-127350000D01*
X76095000Y-130929213D02*
X76095000Y-129331828D01*
D58*
G04 #@! TO.N,/WIFI_LED*
X68200000Y-113900000D02*
X68500000Y-113600000D01*
X54000000Y-111650000D02*
X56250000Y-113900000D01*
X54000000Y-111375000D02*
X54000000Y-111650000D01*
X56250000Y-113900000D02*
X68200000Y-113900000D01*
X68500000Y-113600000D02*
X68500000Y-112920000D01*
G04 #@! TO.N,/LEDG*
X86749520Y-58575934D02*
X87550000Y-59376414D01*
X86825000Y-54250000D02*
X86749520Y-54325480D01*
X86749520Y-54325480D02*
X86749520Y-58575934D01*
X87550000Y-59376414D02*
X87550000Y-61112500D01*
G04 #@! TO.N,/LEDR*
X89051440Y-56701440D02*
X89051440Y-60397100D01*
X88750000Y-60698540D02*
X88750000Y-61112500D01*
X89051440Y-60397100D02*
X88750000Y-60698540D01*
X87575000Y-54800000D02*
X87575000Y-55225000D01*
X87575000Y-54800000D02*
X87575000Y-54375000D01*
X87575000Y-55225000D02*
X89051440Y-56701440D01*
X87575000Y-54375000D02*
X87450000Y-54250000D01*
G04 #@! TO.N,/SD_DAT2*
X74500000Y-117800000D02*
X76300000Y-117800000D01*
X74500000Y-117800000D02*
X73300000Y-116600000D01*
X73300000Y-116600000D02*
X73300000Y-116000000D01*
X78300000Y-119800000D02*
X78300000Y-124037500D01*
X76300000Y-117800000D02*
X78300000Y-119800000D01*
G04 #@! TO.N,/SD_CMD*
X71700000Y-114250000D02*
X71700000Y-112920000D01*
D59*
G04 #@! TO.N,Net-(D301-Pad1)*
X34530000Y-116500000D02*
X32817500Y-116500000D01*
G04 #@! TO.N,Net-(D302-Pad1)*
X34512500Y-115000000D02*
X32800000Y-115000000D01*
G04 #@! TO.N,/SD_DAT0*
X92150000Y-119200000D02*
X92150000Y-124700000D01*
G04 #@! TO.N,Net-(D308-Pad1)*
X32767500Y-113380000D02*
X34480000Y-113380000D01*
D58*
G04 #@! TO.N,/RXD3*
X66100000Y-112920000D02*
X66100000Y-112470978D01*
X66100000Y-112470978D02*
X66600480Y-111970498D01*
X50348560Y-88223611D02*
X50949040Y-87623130D01*
X66600480Y-109569824D02*
X50348560Y-93317902D01*
X50949040Y-87623130D02*
X50949040Y-75025960D01*
X50348560Y-93317902D02*
X50348560Y-88223611D01*
X50949040Y-75025960D02*
X51250000Y-74725000D01*
X66600480Y-111970498D02*
X66600480Y-109569824D01*
G04 #@! TO.N,/TXD3*
X52499520Y-78125480D02*
X52499520Y-87766994D01*
X51861793Y-88404721D02*
X51861793Y-93136793D01*
X52499520Y-87766994D02*
X51861793Y-88404721D01*
X53350000Y-77275000D02*
X52499520Y-78125480D01*
X51861793Y-93136793D02*
X70100000Y-111375000D01*
X70100000Y-111375000D02*
X70100000Y-112920000D01*
G04 #@! TO.N,/USB2_D_N*
X53000480Y-112074520D02*
X53000480Y-98325480D01*
X59900000Y-86800000D02*
X59963603Y-86800000D01*
X60074999Y-86688604D02*
X60074999Y-82105001D01*
X53000480Y-112768680D02*
X53265900Y-113034100D01*
X57149500Y-132649500D02*
X57149500Y-116917700D01*
X59100000Y-134600000D02*
X57149500Y-132649500D01*
X53000480Y-112074520D02*
X53000480Y-112768680D01*
X73555000Y-129659213D02*
X73555000Y-130929213D01*
X53000480Y-98325480D02*
X48750000Y-94075000D01*
X60074999Y-82105001D02*
X60100000Y-82080000D01*
X59963603Y-86800000D02*
X60074999Y-86688604D01*
X57149500Y-116917700D02*
X53265900Y-113034100D01*
X48750000Y-94075000D02*
X48750000Y-87600000D01*
G04 #@! TO.N,/USB2_D_P*
X59900000Y-87500000D02*
X60525001Y-86874999D01*
X60525001Y-86874999D02*
X60525001Y-82105001D01*
X72285000Y-129659213D02*
X72285000Y-130929213D01*
X60525001Y-82105001D02*
X60500000Y-82080000D01*
G04 #@! TO.N,/LEDB*
X86450000Y-54500000D02*
X86450000Y-58752828D01*
X86200000Y-54250000D02*
X86450000Y-54500000D01*
X87150000Y-59452828D02*
X87150000Y-61112500D01*
X86450000Y-58752828D02*
X87150000Y-59452828D01*
D59*
G04 #@! TO.N,Net-(J304-Pad2)*
X32400000Y-122500000D02*
X36750000Y-122500000D01*
G04 #@! TO.N,/SD_PWR_ON*
X103162500Y-116300000D02*
X104250000Y-115212500D01*
X102400000Y-116300000D02*
X103162500Y-116300000D01*
X101237500Y-116300000D02*
X98550000Y-116300000D01*
X98550000Y-116300000D02*
X102400000Y-116300000D01*
X102287500Y-115250000D02*
X101237500Y-116300000D01*
G04 #@! TO.N,Net-(R18-Pad2)*
X102287500Y-113350000D02*
X104212500Y-113350000D01*
D58*
G04 #@! TO.N,/LED_GRN*
X63700000Y-117000000D02*
X63050000Y-117650000D01*
X63700000Y-116000000D02*
X63700000Y-117000000D01*
G04 #@! TO.N,/CAN_TX*
X48280000Y-67275000D02*
X48280000Y-67474295D01*
X53449520Y-60899066D02*
X56574066Y-57774520D01*
X56574066Y-57774520D02*
X59124066Y-57774520D01*
X60425960Y-54849040D02*
X69580255Y-54849040D01*
X69581215Y-54850000D02*
X71500000Y-54850000D01*
X72080000Y-54270000D02*
X72080000Y-52100000D01*
X71500000Y-54850000D02*
X72080000Y-54270000D01*
X60175000Y-55100000D02*
X60425960Y-54849040D01*
X59124066Y-57774520D02*
X60175000Y-56723586D01*
X49255225Y-68449520D02*
X52425480Y-68449520D01*
X52425480Y-68449520D02*
X53449520Y-67425480D01*
X48280000Y-67474295D02*
X49255225Y-68449520D01*
X69580255Y-54849040D02*
X69581215Y-54850000D01*
X60175000Y-56723586D02*
X60175000Y-55887500D01*
X53449520Y-67425480D02*
X53449520Y-60899066D01*
X60175000Y-55887500D02*
X60175000Y-55100000D01*
G04 #@! TO.N,/CAN_RX*
X70125480Y-54549520D02*
X70810000Y-53865000D01*
X70810000Y-53865000D02*
X70810000Y-52100000D01*
X59525000Y-55887500D02*
X59525000Y-55075000D01*
X53150000Y-60775000D02*
X56450000Y-57475000D01*
X52090000Y-67275000D02*
X53150000Y-66215000D01*
X59525000Y-56950000D02*
X59525000Y-55887500D01*
X53150000Y-66215000D02*
X53150000Y-60775000D01*
X59000000Y-57475000D02*
X59525000Y-56950000D01*
X60050480Y-54549520D02*
X70125480Y-54549520D01*
X59525000Y-55075000D02*
X60050480Y-54549520D01*
X56450000Y-57475000D02*
X59000000Y-57475000D01*
G04 #@! TO.N,/GPO_1*
X80600000Y-59376414D02*
X83573586Y-62350000D01*
X83573586Y-62350000D02*
X84312500Y-62350000D01*
X80600000Y-54950000D02*
X80600000Y-59376414D01*
G04 #@! TO.N,/GPO_2*
X83597172Y-61950000D02*
X84312500Y-61950000D01*
X81275000Y-54950000D02*
X81275000Y-59627828D01*
X81275000Y-59627828D02*
X83597172Y-61950000D01*
G04 #@! TO.N,/GPO_3*
X81900000Y-54950000D02*
X81900000Y-56375000D01*
X85150000Y-59625000D02*
X85150000Y-60050000D01*
X85150000Y-61112500D02*
X85150000Y-60050000D01*
X81900000Y-56375000D02*
X85150000Y-59625000D01*
X85150000Y-60050000D02*
X85150000Y-59800000D01*
G04 #@! TO.N,/GPO_4*
X86350000Y-59554242D02*
X83825000Y-57029242D01*
X83825000Y-57029242D02*
X83825000Y-54975000D01*
X86350000Y-61112500D02*
X86350000Y-59554242D01*
G04 #@! TO.N,/GPO_5*
X85950000Y-59577828D02*
X83200000Y-56827828D01*
X85950000Y-61112500D02*
X85950000Y-59577828D01*
X83200000Y-56827828D02*
X83200000Y-55000000D01*
G04 #@! TO.N,/LED_RED*
X65750000Y-119850000D02*
X65750000Y-118050000D01*
X65300000Y-117600000D02*
X65300000Y-116000000D01*
X65750000Y-118050000D02*
X65300000Y-117600000D01*
G04 #@! TO.N,/MCP_INT*
X67700000Y-115450000D02*
X67100000Y-114850000D01*
X49749520Y-93566032D02*
X49749520Y-87975480D01*
X56525000Y-100341515D02*
X49749520Y-93566032D01*
X67100000Y-114850000D02*
X56525000Y-114850000D01*
X50350000Y-87375000D02*
X50350000Y-72300000D01*
X49749520Y-87975480D02*
X50350000Y-87375000D01*
X67700000Y-116000000D02*
X67700000Y-115450000D01*
X56525000Y-111425000D02*
X56525000Y-100341515D01*
X55625000Y-72300000D02*
X55625000Y-61612500D01*
G04 #@! TO.N,/SPI0_SCLK*
X61350000Y-69498586D02*
X65730000Y-65118586D01*
X50648080Y-88347676D02*
X51275000Y-87720756D01*
X51275000Y-87720756D02*
X51275000Y-75625000D01*
X51275000Y-75625000D02*
X52175000Y-74725000D01*
X50648080Y-93193837D02*
X50648080Y-88347676D01*
X56250000Y-61637500D02*
X56275000Y-61612500D01*
X65730000Y-65118586D02*
X65730000Y-61400000D01*
X66900000Y-109445758D02*
X50648080Y-93193837D01*
X66900000Y-112920000D02*
X66900000Y-109445758D01*
X56250000Y-74700000D02*
X56250000Y-61637500D01*
X61350000Y-74650000D02*
X61350000Y-69498586D01*
G04 #@! TO.N,/SPI0_MOSI*
X51400000Y-88442928D02*
X51400000Y-93098586D01*
X52225000Y-76475000D02*
X52200000Y-76500000D01*
X52200000Y-87642928D02*
X51400000Y-88442928D01*
X68400000Y-110098586D02*
X68400000Y-112170978D01*
X57500000Y-76500000D02*
X57500000Y-61687500D01*
X57500000Y-61687500D02*
X57575000Y-61612500D01*
X67000000Y-64300000D02*
X63600000Y-67700000D01*
X51400000Y-93098586D02*
X68400000Y-110098586D01*
X68400000Y-112170978D02*
X68100000Y-112470978D01*
X61950000Y-69350000D02*
X61950000Y-76475000D01*
X52200000Y-76500000D02*
X52200000Y-87642928D01*
X63600000Y-67700000D02*
X61950000Y-69350000D01*
X67000000Y-61400000D02*
X67000000Y-64300000D01*
X68100000Y-112470978D02*
X68100000Y-112920000D01*
G04 #@! TO.N,/SPI0_MISO*
X67300000Y-112920000D02*
X67300000Y-109422172D01*
X67300000Y-109422172D02*
X50947600Y-93069772D01*
X50950000Y-88469342D02*
X51575000Y-87844342D01*
X62575000Y-69148586D02*
X62575000Y-75750000D01*
X50950000Y-88475000D02*
X50950000Y-88469342D01*
X50947600Y-93069772D02*
X50947600Y-88477400D01*
X66874293Y-64849293D02*
X62575000Y-69148586D01*
X51575000Y-76400000D02*
X52200000Y-75775000D01*
X68270000Y-61400000D02*
X68270000Y-63453585D01*
X58250000Y-75775000D02*
X58250000Y-61637500D01*
X68270000Y-63453585D02*
X66874293Y-64849293D01*
X58250000Y-61637500D02*
X58225000Y-61612500D01*
X51575000Y-87844342D02*
X51575000Y-76400000D01*
G04 #@! TO.N,/PAUSE_BTN*
X68900000Y-112920000D02*
X68900000Y-111000000D01*
D60*
X96500000Y-109500000D02*
X93500000Y-109500000D01*
D58*
G04 #@! TO.N,/RF69_INT*
X54900000Y-135450000D02*
X48425000Y-135450000D01*
X56850000Y-120700000D02*
X56850000Y-133500000D01*
X56850000Y-133500000D02*
X54900000Y-135450000D01*
X56700000Y-120550000D02*
X56850000Y-120700000D01*
X48425000Y-135450000D02*
X45475000Y-132500000D01*
X45475000Y-132500000D02*
X36750000Y-132500000D01*
X68500000Y-116000000D02*
X68500000Y-120550000D01*
G04 #@! TO.N,/TXD0*
X70500000Y-116000000D02*
X70500000Y-114300000D01*
X100300000Y-90950000D02*
X100835365Y-90414635D01*
X98600000Y-90950000D02*
X100300000Y-90950000D01*
X100835365Y-90414635D02*
X100835365Y-89187600D01*
X98200000Y-91350000D02*
X98600000Y-90950000D01*
X86800000Y-112100000D02*
X86800000Y-91350000D01*
X70500000Y-114300000D02*
X70450000Y-114250000D01*
G04 #@! TO.N,/RXD0*
X87450000Y-112100000D02*
X87450000Y-90600000D01*
X100327365Y-89921000D02*
X100327365Y-89187600D01*
X99648365Y-90600000D02*
X100327365Y-89921000D01*
X98200000Y-90600000D02*
X99648365Y-90600000D01*
X69700000Y-116000000D02*
X69700000Y-114250000D01*
G04 #@! TO.N,+3V3*
X90350000Y-61112500D02*
X90350000Y-60325000D01*
X83125000Y-65075000D02*
X83450000Y-64750000D01*
D60*
X46150000Y-63712500D02*
X46150000Y-62100000D01*
X102227500Y-92396009D02*
X102225000Y-92398509D01*
X72080000Y-59730000D02*
X71725000Y-59375000D01*
D58*
X83450000Y-64750000D02*
X84312500Y-64750000D01*
D60*
X47037500Y-63712500D02*
X47650000Y-64325000D01*
X36750000Y-130500000D02*
X32787500Y-130500000D01*
X101400000Y-87550000D02*
X100105543Y-87550000D01*
X61187500Y-64075000D02*
X60862500Y-63750000D01*
D58*
X83125000Y-69587500D02*
X83962500Y-70425000D01*
D60*
X99575000Y-88925000D02*
X99600000Y-88950000D01*
D59*
X91426324Y-59426324D02*
X90500000Y-58500000D01*
D60*
X46150000Y-63712500D02*
X47037500Y-63712500D01*
X72080000Y-63195000D02*
X72075000Y-63200000D01*
D58*
X85900000Y-70425000D02*
X86300000Y-70025000D01*
D60*
X102227500Y-91440000D02*
X102227500Y-89890000D01*
D58*
X95050000Y-65750000D02*
X94374040Y-66425960D01*
D60*
X50820000Y-64645000D02*
X50820000Y-67275000D01*
X60862500Y-59962500D02*
X60862500Y-63750000D01*
D58*
X86750000Y-61112500D02*
X86750000Y-59476414D01*
D60*
X32787500Y-130500000D02*
X32750000Y-130462500D01*
D59*
X92750000Y-59750000D02*
X92426324Y-59426324D01*
D58*
X86300000Y-69587500D02*
X86387500Y-69587500D01*
X99311365Y-92032400D02*
X99311365Y-91480978D01*
D60*
X99575000Y-88080543D02*
X99575000Y-88925000D01*
D58*
X99311365Y-91480978D02*
X99542823Y-91249520D01*
X101687500Y-90900000D02*
X102227500Y-91440000D01*
X100424066Y-91249520D02*
X100773586Y-90900000D01*
D60*
X100105543Y-87550000D02*
X99575000Y-88080543D01*
X100250000Y-117750000D02*
X98550000Y-117750000D01*
X47650000Y-64325000D02*
X50500000Y-64325000D01*
D58*
X90350000Y-60325000D02*
X91248676Y-59426324D01*
X95050000Y-65487500D02*
X95050000Y-65750000D01*
D59*
X85600000Y-57151414D02*
X84901414Y-57151414D01*
D58*
X94374040Y-66425960D02*
X94374040Y-68936540D01*
X86387500Y-69587500D02*
X86750000Y-69225000D01*
D60*
X102227500Y-91440000D02*
X102227500Y-92396009D01*
D58*
X86750000Y-59476414D02*
X85600000Y-58326414D01*
X100773586Y-90900000D02*
X101687500Y-90900000D01*
X86750000Y-69225000D02*
X86750000Y-67987500D01*
D60*
X72080000Y-61400000D02*
X72080000Y-59730000D01*
X71725000Y-59375000D02*
X61450000Y-59375000D01*
D58*
X85600000Y-58326414D02*
X85600000Y-57151414D01*
D60*
X31500000Y-130500000D02*
X31537500Y-130462500D01*
D58*
X86300000Y-70025000D02*
X86300000Y-69587500D01*
D59*
X94687500Y-59750000D02*
X92750000Y-59750000D01*
D60*
X102177500Y-89840000D02*
X102177500Y-88327500D01*
X102227500Y-89890000D02*
X102177500Y-89840000D01*
D59*
X36280000Y-116500000D02*
X37750000Y-116500000D01*
X84901414Y-57151414D02*
X84500000Y-56750000D01*
D58*
X91248676Y-59426324D02*
X91490240Y-59426324D01*
X89987500Y-69587500D02*
X89625000Y-69587500D01*
D60*
X61450000Y-59375000D02*
X60862500Y-59962500D01*
X72080000Y-61400000D02*
X72080000Y-63195000D01*
D59*
X104900000Y-72600000D02*
X104900000Y-71837500D01*
D58*
X83962500Y-70425000D02*
X85900000Y-70425000D01*
D60*
X31537500Y-130462500D02*
X32750000Y-130462500D01*
D59*
X92426324Y-59426324D02*
X91490240Y-59426324D01*
X103893687Y-68187273D02*
X103893687Y-70831187D01*
D58*
X83125000Y-69587500D02*
X83125000Y-65075000D01*
D60*
X50500000Y-64325000D02*
X50820000Y-64645000D01*
D59*
X95025000Y-69587500D02*
X95025000Y-68475000D01*
D58*
X99542823Y-91249520D02*
X100424066Y-91249520D01*
D59*
X104900000Y-71837500D02*
X103950000Y-70887500D01*
X91490240Y-59426324D02*
X91426324Y-59426324D01*
D60*
X102177500Y-88327500D02*
X101400000Y-87550000D01*
D58*
X76100000Y-112920000D02*
X76100000Y-111975000D01*
X94374040Y-68936540D02*
X95025000Y-69587500D01*
D60*
X61187500Y-65600000D02*
X61187500Y-64075000D01*
G04 #@! TO.N,/MODE_BTN*
X93505000Y-104470000D02*
X93500000Y-104475000D01*
X96500000Y-104470000D02*
X93505000Y-104470000D01*
D58*
X65300000Y-111075000D02*
X65375000Y-111000000D01*
X65300000Y-112920000D02*
X65300000Y-111075000D01*
G04 #@! TO.N,/SPI0_CE0_N*
X67300000Y-115550978D02*
X66999022Y-115250000D01*
X57525000Y-115250000D02*
X57250000Y-115525000D01*
X50649520Y-73925480D02*
X51250000Y-73325000D01*
X62874520Y-69272652D02*
X62874520Y-70850000D01*
X67300000Y-116000000D02*
X67300000Y-115550978D01*
X66999022Y-115250000D02*
X57800000Y-115250000D01*
X57250000Y-100642929D02*
X50049040Y-93441967D01*
X50049040Y-93441967D02*
X50049040Y-88099546D01*
X58875000Y-73325000D02*
X58875000Y-61612500D01*
X57250000Y-111000000D02*
X57250000Y-100642929D01*
X50649520Y-87499065D02*
X50649520Y-73925480D01*
X69540000Y-61400000D02*
X69540000Y-62607170D01*
X67361086Y-64786086D02*
X62874520Y-69272652D01*
X69540000Y-62607170D02*
X67361086Y-64786086D01*
X50049040Y-88099546D02*
X50649520Y-87499065D01*
X62874520Y-70850000D02*
X62874520Y-72874520D01*
X57800000Y-115250000D02*
X57525000Y-115250000D01*
X62874520Y-72874520D02*
X63300000Y-73300000D01*
G04 #@! TO.N,/RF69_MOSI*
X55350000Y-119050000D02*
X55350000Y-120400000D01*
X54250000Y-132500000D02*
X51750000Y-132500000D01*
X56250960Y-130499040D02*
X54250000Y-132500000D01*
X56250960Y-121300960D02*
X56250960Y-130499040D01*
X64900000Y-117900000D02*
X64900000Y-116000000D01*
X55350000Y-120400000D02*
X56250960Y-121300960D01*
X65150000Y-119000000D02*
X65150000Y-118150000D01*
X65150000Y-118150000D02*
X64900000Y-117900000D01*
G04 #@! TO.N,/RF69_NSS*
X55651920Y-126948080D02*
X55651920Y-121673638D01*
X55178282Y-121200000D02*
X54800000Y-121200000D01*
X51750000Y-128500000D02*
X54100000Y-128500000D01*
X54100000Y-128500000D02*
X55651920Y-126948080D01*
X55651920Y-121673638D02*
X55178282Y-121200000D01*
X69300000Y-116000000D02*
X69300000Y-121200000D01*
G04 #@! TO.N,/I2C1_SDA*
X70900000Y-111327828D02*
X70900000Y-112920000D01*
X88350000Y-58350000D02*
X88350000Y-61112500D01*
X53325000Y-87788686D02*
X52523106Y-88590580D01*
X52523106Y-92950934D02*
X70900000Y-111327828D01*
X53325000Y-78875000D02*
X53325000Y-87788686D01*
X88175000Y-58175000D02*
X88350000Y-58350000D01*
X53300000Y-78850000D02*
X53325000Y-78875000D01*
X52523106Y-88590580D02*
X52523106Y-92950934D01*
G04 #@! TO.N,/I2C1_SCL*
X87250000Y-58150000D02*
X87950000Y-58850000D01*
X52223586Y-88466514D02*
X52223586Y-93075000D01*
X53325000Y-78075000D02*
X52800000Y-78600000D01*
X87950000Y-58850000D02*
X87950000Y-61112500D01*
X52223586Y-93075000D02*
X70500000Y-111351414D01*
X52800000Y-87890100D02*
X52223586Y-88466514D01*
X52800000Y-78600000D02*
X52800000Y-87890100D01*
X70500000Y-111351414D02*
X70500000Y-112920000D01*
G04 #@! TO.N,/RF69_MISO*
X55900000Y-120450000D02*
X55900000Y-116850000D01*
X64399511Y-113469511D02*
X64500000Y-113369022D01*
X56550480Y-121100480D02*
X55900000Y-120450000D01*
X56819511Y-113469511D02*
X64399511Y-113469511D01*
X55900000Y-112550000D02*
X56819511Y-113469511D01*
X51750000Y-134500000D02*
X53750000Y-134500000D01*
X56550480Y-131699520D02*
X56550480Y-121900480D01*
X53750000Y-134500000D02*
X56550480Y-131699520D01*
X56550480Y-121900480D02*
X56550480Y-121100480D01*
X64500000Y-113369022D02*
X64500000Y-112920000D01*
X55900000Y-111800000D02*
X55900000Y-112550000D01*
G04 #@! TO.N,Net-(J311-Pad3)*
X100327365Y-92852029D02*
X100573365Y-93098029D01*
X100327365Y-92032400D02*
X100327365Y-92852029D01*
X102473365Y-93098029D02*
X104150336Y-94775000D01*
X104150336Y-94775000D02*
X104150336Y-97599664D01*
X100573365Y-93098029D02*
X102473365Y-93098029D01*
X101610336Y-98500000D02*
X100708365Y-97598029D01*
X104150336Y-97599664D02*
X103250000Y-98500000D01*
X103250000Y-98500000D02*
X101610336Y-98500000D01*
G04 #@! TO.N,Net-(J311-Pad4)*
X98536394Y-98500000D02*
X96896730Y-98500000D01*
X96896730Y-98500000D02*
X95996394Y-97599664D01*
X97873365Y-93098029D02*
X99573365Y-93098029D01*
X95996394Y-94975000D02*
X97873365Y-93098029D01*
X95996394Y-97599664D02*
X95996394Y-94975000D01*
X99573365Y-93098029D02*
X99819365Y-92852029D01*
X99819365Y-92032400D02*
X99819365Y-92852029D01*
X99438365Y-97598029D02*
X98536394Y-98500000D01*
G04 #@! TO.N,/RF69_SCK*
X64500000Y-116000000D02*
X64500000Y-118150000D01*
G04 #@! TO.N,GND*
X62100000Y-112920000D02*
X62100000Y-111900000D01*
D59*
X33350000Y-121025000D02*
X34025000Y-120350000D01*
X100012500Y-114300000D02*
X106700000Y-114300000D01*
X33950000Y-124500000D02*
X36750000Y-124500000D01*
D58*
X68100000Y-116000000D02*
X68100000Y-116800000D01*
X59700000Y-112920000D02*
X59700000Y-111900000D01*
D59*
X56900000Y-53600000D02*
X57750000Y-52750000D01*
X30942500Y-113380000D02*
X30942500Y-112262500D01*
D60*
X95937500Y-71312500D02*
X95025000Y-71312500D01*
X92750000Y-69037500D02*
X92750000Y-70675000D01*
X61237500Y-128650000D02*
X61237500Y-126812500D01*
X92075000Y-71350000D02*
X91262500Y-71350000D01*
D58*
X78900000Y-112300000D02*
X79300000Y-111900000D01*
D59*
X30975000Y-113412500D02*
X30942500Y-113380000D01*
X57750000Y-52750000D02*
X59212500Y-52750000D01*
X100708365Y-96328029D02*
X100052186Y-95671850D01*
X102350000Y-117537500D02*
X104175000Y-117537500D01*
D58*
X72500000Y-116000000D02*
X72500000Y-114750000D01*
D60*
X92750000Y-70675000D02*
X92075000Y-71350000D01*
D59*
X39875000Y-123550000D02*
X38925000Y-124500000D01*
D58*
X72500000Y-114750000D02*
X73000000Y-114250000D01*
D57*
X102530000Y-104470000D02*
X102500000Y-104500000D01*
D59*
X100052186Y-95671850D02*
X100052186Y-94902186D01*
X30875000Y-123975000D02*
X33425000Y-123975000D01*
D60*
X93025000Y-126350000D02*
X89000000Y-126350000D01*
X96600000Y-67212500D02*
X96600000Y-68750000D01*
X89625000Y-71312500D02*
X91225000Y-71312500D01*
D59*
X34025000Y-120350000D02*
X38825000Y-120350000D01*
D58*
X66100000Y-116000000D02*
X66100000Y-117100000D01*
D59*
X61920000Y-52100000D02*
X61920000Y-50255000D01*
D60*
X31500000Y-132525000D02*
X31512500Y-132537500D01*
X96600000Y-68750000D02*
X96600000Y-70650000D01*
D58*
X64100000Y-116000000D02*
X64100000Y-117450000D01*
X70100000Y-116000000D02*
X70100000Y-117100000D01*
D60*
X79575000Y-60600000D02*
X79600000Y-60625000D01*
X55975000Y-136500000D02*
X56000000Y-136475000D01*
D58*
X73700000Y-114825000D02*
X73125000Y-114250000D01*
D59*
X55650000Y-53600000D02*
X56900000Y-53600000D01*
X61920000Y-50255000D02*
X61925000Y-50250000D01*
D57*
X104500000Y-109500000D02*
X102500000Y-109500000D01*
D59*
X55225000Y-54025000D02*
X55650000Y-53600000D01*
D60*
X100083687Y-62851313D02*
X99705000Y-63230000D01*
X103900000Y-125750000D02*
X105500000Y-125750000D01*
D59*
X102637500Y-72612500D02*
X102625000Y-72600000D01*
D60*
X76175000Y-59125000D02*
X76175000Y-60600000D01*
X93250000Y-124700000D02*
X93250000Y-126125000D01*
X61237500Y-126812500D02*
X61250000Y-126800000D01*
D58*
X72500000Y-112920000D02*
X72500000Y-113750000D01*
X62100000Y-116000000D02*
X62100000Y-117100000D01*
X71300000Y-116000000D02*
X71300000Y-117000000D01*
D60*
X46150000Y-65787500D02*
X46150000Y-67800000D01*
D58*
X67700000Y-112000000D02*
X67800000Y-111900000D01*
D59*
X77200000Y-67175000D02*
X77200000Y-69225000D01*
D58*
X65700000Y-112150000D02*
X65950000Y-111900000D01*
D59*
X56000000Y-51350000D02*
X54212500Y-51350000D01*
D60*
X96600000Y-70650000D02*
X95937500Y-71312500D01*
D59*
X100052186Y-94902186D02*
X100052186Y-94352186D01*
D60*
X49550000Y-66325000D02*
X49550000Y-67275000D01*
D58*
X73125000Y-114250000D02*
X73000000Y-114250000D01*
X69600000Y-111900000D02*
X69700000Y-112000000D01*
D60*
X49225000Y-122500000D02*
X40225000Y-122500000D01*
X78050000Y-69612499D02*
X78137500Y-69524999D01*
D59*
X33425000Y-123975000D02*
X33950000Y-124500000D01*
D58*
X68100000Y-116800000D02*
X67800000Y-117100000D01*
D60*
X93250000Y-124700000D02*
X93250000Y-122700000D01*
D58*
X71300000Y-117000000D02*
X71200000Y-117100000D01*
X92250000Y-58461084D02*
X91490240Y-57701324D01*
D60*
X91262500Y-71350000D02*
X91225000Y-71312500D01*
D59*
X100052186Y-94352186D02*
X100050000Y-94350000D01*
X39875000Y-121400000D02*
X39875000Y-123550000D01*
X30875000Y-121025000D02*
X29075000Y-121025000D01*
D58*
X82775000Y-63275000D02*
X81600000Y-62100000D01*
X83050000Y-63550000D02*
X84312500Y-63550000D01*
D59*
X96600000Y-67212500D02*
X95050000Y-67212500D01*
D60*
X89000000Y-126350000D02*
X88400000Y-125750000D01*
D58*
X81600000Y-62100000D02*
X79862500Y-62100000D01*
D59*
X79862500Y-63912500D02*
X79500000Y-64275000D01*
X79862500Y-62100000D02*
X79862500Y-63912500D01*
X59212500Y-52750000D02*
X59625000Y-53162500D01*
X30942500Y-112262500D02*
X30950000Y-112255000D01*
X30975000Y-115000000D02*
X30975000Y-113412500D01*
D58*
X60900000Y-117100000D02*
X60900000Y-116000000D01*
D60*
X86300000Y-71312500D02*
X89625000Y-71312500D01*
D59*
X29075000Y-121025000D02*
X29050000Y-121050000D01*
D58*
X71750000Y-111900000D02*
X71300000Y-112350000D01*
D59*
X104250000Y-117462500D02*
X106462500Y-117462500D01*
X77200000Y-69225000D02*
X77550000Y-69575000D01*
X56000000Y-51350000D02*
X56000000Y-50250000D01*
D60*
X79187500Y-71312500D02*
X78050000Y-70175000D01*
X100083687Y-60987273D02*
X100083687Y-62851313D01*
D58*
X74100000Y-112920000D02*
X74100000Y-111900000D01*
D59*
X77550000Y-69575000D02*
X78087499Y-69575000D01*
D60*
X83125000Y-71312500D02*
X79187500Y-71312500D01*
D58*
X85600000Y-55426414D02*
X85600000Y-54250000D01*
X78900000Y-112920000D02*
X78900000Y-112300000D01*
X73700000Y-116000000D02*
X73700000Y-114825000D01*
D59*
X104175000Y-117537500D02*
X104250000Y-117462500D01*
D60*
X78050000Y-70175000D02*
X78050000Y-69612499D01*
X48925480Y-65700480D02*
X49550000Y-66325000D01*
X51750000Y-136500000D02*
X55975000Y-136500000D01*
X79575000Y-55887500D02*
X79575000Y-60600000D01*
X61237500Y-130250000D02*
X61237500Y-128650000D01*
D59*
X30875000Y-121025000D02*
X33350000Y-121025000D01*
D58*
X92250000Y-58500000D02*
X92250000Y-58461084D01*
X67700000Y-112920000D02*
X67700000Y-112000000D01*
D59*
X96000000Y-68750000D02*
X95725000Y-68475000D01*
D60*
X78137500Y-69524999D02*
X76275000Y-69525000D01*
X93250000Y-126125000D02*
X93025000Y-126350000D01*
D58*
X82775000Y-63275000D02*
X83050000Y-63550000D01*
D60*
X105500000Y-125750000D02*
X105525000Y-125725000D01*
D59*
X104000000Y-109500000D02*
X102500000Y-109500000D01*
D58*
X69700000Y-112000000D02*
X69700000Y-112920000D01*
X72500000Y-113750000D02*
X73000000Y-114250000D01*
D57*
X104500000Y-104470000D02*
X102530000Y-104470000D01*
D58*
X59700000Y-116000000D02*
X59700000Y-117100000D01*
D60*
X46237020Y-65700480D02*
X48925480Y-65700480D01*
D58*
X65700000Y-112920000D02*
X65700000Y-112150000D01*
X71300000Y-112350000D02*
X71300000Y-112920000D01*
X60900000Y-112920000D02*
X60900000Y-111900000D01*
D59*
X30875000Y-123975000D02*
X29050000Y-123975000D01*
D57*
X51750000Y-122500000D02*
X49225000Y-122500000D01*
D60*
X46150000Y-65787500D02*
X46237020Y-65700480D01*
D59*
X103950000Y-72612500D02*
X102637500Y-72612500D01*
X56000000Y-50250000D02*
X56025000Y-50225000D01*
D60*
X83125000Y-71312500D02*
X86300000Y-71312500D01*
X31512500Y-132537500D02*
X32750000Y-132537500D01*
D58*
X64100000Y-117450000D02*
X63900000Y-117650000D01*
D59*
X96600000Y-68750000D02*
X96000000Y-68750000D01*
X38825000Y-120350000D02*
X39875000Y-121400000D01*
D58*
X63700000Y-112920000D02*
X63700000Y-111900000D01*
D59*
X38925000Y-124500000D02*
X36750000Y-124500000D01*
X54212500Y-51350000D02*
X54125000Y-51437500D01*
D58*
G04 #@! TO.N,/MCP_OSC2*
X60300000Y-54250000D02*
X55975000Y-54250000D01*
X60300000Y-54250000D02*
X63650000Y-54250000D01*
X63650000Y-54250000D02*
X64460000Y-53440000D01*
X60625000Y-52225000D02*
X60625000Y-53925000D01*
X59837500Y-51437500D02*
X60625000Y-52225000D01*
X59625000Y-51437500D02*
X59837500Y-51437500D01*
X60625000Y-53925000D02*
X60300000Y-54250000D01*
X55975000Y-54250000D02*
X55625000Y-54600000D01*
X64460000Y-53440000D02*
X64460000Y-52100000D01*
X57750000Y-51350000D02*
X59537500Y-51350000D01*
X55625000Y-54600000D02*
X55625000Y-55887500D01*
G04 #@! TO.N,/MCP_OSC1*
X56875000Y-50600000D02*
X56875000Y-51875000D01*
X63190000Y-52100000D02*
X63190000Y-50390000D01*
X54125000Y-53850000D02*
X54125000Y-53162500D01*
X54975000Y-54700000D02*
X54125000Y-53850000D01*
X63190000Y-50390000D02*
X62350000Y-49550000D01*
X54975000Y-55887500D02*
X54975000Y-54700000D01*
X56875000Y-51875000D02*
X56000000Y-52750000D01*
X54537500Y-52750000D02*
X54125000Y-53162500D01*
X62350000Y-49550000D02*
X57925000Y-49550000D01*
X57925000Y-49550000D02*
X56875000Y-50600000D01*
X56000000Y-52750000D02*
X54537500Y-52750000D01*
G04 #@! TO.N,/MCP_RESET*
X70810000Y-61760756D02*
X66150000Y-66420758D01*
X66150000Y-66420758D02*
X66150000Y-66825000D01*
X59525000Y-61612500D02*
X59525000Y-66800000D01*
X63012500Y-66612500D02*
X62825000Y-66800000D01*
X63012500Y-65600000D02*
X63012500Y-66612500D01*
X70810000Y-61400000D02*
X70810000Y-61760756D01*
D59*
G04 #@! TO.N,Net-(R15-Pad1)*
X48280000Y-62325000D02*
X48280000Y-59757500D01*
D58*
G04 #@! TO.N,/GPO_7*
X89275000Y-55200000D02*
X89950000Y-55875000D01*
X89950000Y-55875000D02*
X89950000Y-61112500D01*
X89275000Y-54250000D02*
X89275000Y-55200000D01*
G04 #@! TO.N,/GPO_8*
X89475025Y-56045026D02*
X89650480Y-56220481D01*
X89650480Y-56220481D02*
X89650480Y-61012020D01*
X88650000Y-55250000D02*
X89445026Y-56045026D01*
X89650480Y-61012020D02*
X89550000Y-61112500D01*
X88650000Y-54250000D02*
X88650000Y-55250000D01*
X89445026Y-56045026D02*
X89475025Y-56045026D01*
G04 #@! TO.N,/GPO_9*
X89350960Y-60521166D02*
X89350960Y-56575960D01*
X89150000Y-61112500D02*
X89150000Y-60722126D01*
X88050000Y-54250000D02*
X88050000Y-55250000D01*
X89350960Y-56550960D02*
X89350960Y-56575960D01*
X89150000Y-60722126D02*
X89350960Y-60521166D01*
X88050000Y-55250000D02*
X89350960Y-56550960D01*
G04 #@! TO.N,Net-(C4-Pad1)*
X78100000Y-52975000D02*
X79100000Y-52975000D01*
X77775000Y-53300000D02*
X78100000Y-52975000D01*
X79100000Y-52975000D02*
X79575000Y-53450000D01*
X77775000Y-54225000D02*
X77775000Y-53300000D01*
X79575000Y-53450000D02*
X79575000Y-54162500D01*
D57*
G04 #@! TO.N,VCC*
X36600000Y-56300000D02*
X31150001Y-56300000D01*
D60*
G04 #@! TO.N,/GPO_6_OUT*
X109000000Y-71700000D02*
X109025000Y-71675000D01*
X109025000Y-71675000D02*
X109025000Y-49650000D01*
X104975000Y-45600000D02*
X104975000Y-45040000D01*
X109025000Y-49650000D02*
X104975000Y-45600000D01*
G04 #@! TO.N,/GPO_4_OUT*
X104390088Y-48125000D02*
X106725000Y-50459912D01*
X96595000Y-45040000D02*
X99680000Y-48125000D01*
X99680000Y-48125000D02*
X104390088Y-48125000D01*
X106725000Y-50459912D02*
X106725000Y-71700000D01*
G04 #@! TO.N,/GPO_5_OUT*
X100785000Y-45040000D02*
X100785000Y-45785000D01*
X104845524Y-47025480D02*
X107824520Y-50004476D01*
X100785000Y-45785000D02*
X102025480Y-47025480D01*
X102025480Y-47025480D02*
X104845524Y-47025480D01*
X107824520Y-50004476D02*
X107824520Y-71675000D01*
G04 #@! TO.N,/LEDA*
X74575000Y-57985000D02*
X74575000Y-59125000D01*
D58*
X81400000Y-61325000D02*
X82825000Y-62750000D01*
X78625000Y-61325000D02*
X81400000Y-61325000D01*
D60*
X77775000Y-57345000D02*
X77775000Y-59125000D01*
D58*
X77775000Y-60475000D02*
X78625000Y-61325000D01*
X82825000Y-62750000D02*
X84312500Y-62750000D01*
D60*
X77775000Y-57345000D02*
X75215000Y-57345000D01*
X75215000Y-57345000D02*
X74575000Y-57985000D01*
D58*
X77775000Y-59125000D02*
X77775000Y-60475000D01*
G04 #@! TO.N,Net-(C7-Pad1)*
X80375000Y-65725000D02*
X78650000Y-65725000D01*
D59*
X77375000Y-62100000D02*
X78137500Y-62100000D01*
X77200000Y-64275000D02*
X77200000Y-62275000D01*
D58*
X78650000Y-65725000D02*
X77200000Y-64275000D01*
X82150000Y-63950000D02*
X80375000Y-65725000D01*
D59*
X77200000Y-62275000D02*
X77375000Y-62100000D01*
D58*
X84312500Y-63950000D02*
X82150000Y-63950000D01*
D59*
G04 #@! TO.N,Net-(C8-Pad2)*
X79862500Y-69524999D02*
X81537499Y-69524999D01*
X79862500Y-69524999D02*
X79862500Y-67537500D01*
D58*
G04 #@! TO.N,+1V1*
X84750000Y-69587500D02*
X84750000Y-69200000D01*
X83424520Y-65425480D02*
X83700000Y-65150000D01*
X86252190Y-62650000D02*
X89300000Y-62650000D01*
X89850000Y-64600000D02*
X90100000Y-64350000D01*
X90100000Y-64350000D02*
X91187500Y-64350000D01*
X90550000Y-66350000D02*
X89850000Y-65650000D01*
X89300000Y-62650000D02*
X89850000Y-63200000D01*
X85850000Y-63052190D02*
X86252190Y-62650000D01*
X85050000Y-65150000D02*
X85850000Y-64350000D01*
X84750000Y-69200000D02*
X83424520Y-67874520D01*
X92750000Y-66580547D02*
X92750000Y-67312500D01*
X89850000Y-65650000D02*
X89850000Y-64600000D01*
X83700000Y-65150000D02*
X84312500Y-65150000D01*
X85850000Y-64350000D02*
X85850000Y-63052190D01*
X83424520Y-67874520D02*
X83424520Y-65425480D01*
X91187500Y-64350000D02*
X96100000Y-64350000D01*
X91187500Y-66350000D02*
X92519453Y-66350000D01*
X92519453Y-66350000D02*
X92750000Y-66580547D01*
X91187500Y-66350000D02*
X90550000Y-66350000D01*
X84312500Y-65150000D02*
X85050000Y-65150000D01*
X96100000Y-64350000D02*
X96600000Y-64850000D01*
X96600000Y-64850000D02*
X96600000Y-65487500D01*
X89850000Y-63200000D02*
X89850000Y-64600000D01*
G04 #@! TO.N,/PICO_USB_DM*
X99685000Y-83300000D02*
X98681971Y-82296971D01*
X95500000Y-78900000D02*
X96237500Y-78162500D01*
X98681971Y-82296971D02*
X97143365Y-82296971D01*
X97143365Y-82296971D02*
X95500000Y-80653606D01*
X95500000Y-80653606D02*
X95500000Y-78900000D01*
X96237500Y-78162500D02*
X96800000Y-78162500D01*
G04 #@! TO.N,/PICO_USB_DP*
X103493606Y-82300000D02*
X105200000Y-80593606D01*
X100955000Y-83300000D02*
X101955000Y-82300000D01*
X105200000Y-78575000D02*
X104762500Y-78137500D01*
X101955000Y-82300000D02*
X103493606Y-82300000D01*
X105200000Y-80593606D02*
X105200000Y-78575000D01*
X104762500Y-78137500D02*
X103850000Y-78137500D01*
D59*
G04 #@! TO.N,/QSPI_SS*
X96512500Y-58150000D02*
X96512500Y-59750000D01*
D58*
X102238687Y-58387273D02*
X103893687Y-60042273D01*
X91187500Y-61950000D02*
X96750000Y-61950000D01*
X96750000Y-61950000D02*
X97639647Y-61060353D01*
X97629294Y-59750000D02*
X97639647Y-59760353D01*
X97639647Y-59760353D02*
X97639647Y-59062248D01*
X97639647Y-59062248D02*
X98314622Y-58387273D01*
X96512500Y-59750000D02*
X97629294Y-59750000D01*
X103893687Y-60042273D02*
X103893687Y-60987273D01*
X98314622Y-58387273D02*
X102238687Y-58387273D01*
X97639647Y-61060353D02*
X97639647Y-59760353D01*
G04 #@! TO.N,Net-(R5-Pad1)*
X84312500Y-64350000D02*
X82550000Y-64350000D01*
X82550000Y-64350000D02*
X81575000Y-65325000D01*
X81575000Y-67487500D02*
X81450000Y-67612500D01*
X81575000Y-65325000D02*
X81575000Y-67487500D01*
G04 #@! TO.N,/QSPI_SD1*
X97939167Y-61210833D02*
X96800000Y-62350000D01*
X102623687Y-59672273D02*
X101638207Y-58686793D01*
X102623687Y-60987273D02*
X102623687Y-59672273D01*
X97939167Y-59186313D02*
X97939167Y-61210833D01*
X98438687Y-58686793D02*
X97939167Y-59186313D01*
X96800000Y-62350000D02*
X91187500Y-62350000D01*
X101638207Y-58686793D02*
X98438687Y-58686793D01*
G04 #@! TO.N,/QSPI_SD2*
X100687727Y-58986313D02*
X101353687Y-59652273D01*
X96850000Y-62750000D02*
X98238687Y-61361313D01*
X98238687Y-61361313D02*
X98238687Y-59310379D01*
X98562753Y-58986313D02*
X100687727Y-58986313D01*
X98238687Y-59310379D02*
X98562753Y-58986313D01*
X101353687Y-59652273D02*
X101353687Y-60987273D01*
X91187500Y-62750000D02*
X96850000Y-62750000D01*
G04 #@! TO.N,/QSPI_SD0*
X99888687Y-70688233D02*
X100083687Y-70493233D01*
X98350000Y-64652828D02*
X98350000Y-69801414D01*
X98350000Y-69801414D02*
X99236819Y-70688233D01*
X96847172Y-63150000D02*
X98350000Y-64652828D01*
X91187500Y-63150000D02*
X96847172Y-63150000D01*
X99236819Y-70688233D02*
X99888687Y-70688233D01*
X100083687Y-70493233D02*
X100083687Y-68187273D01*
G04 #@! TO.N,/QSPI_SCLK*
X96823586Y-63550000D02*
X91187500Y-63550000D01*
X99112753Y-70987753D02*
X98050480Y-69925480D01*
X101353687Y-70422273D02*
X100788207Y-70987753D01*
X98050480Y-69925480D02*
X98050480Y-64776894D01*
X100788207Y-70987753D02*
X99112753Y-70987753D01*
X101353687Y-68187273D02*
X101353687Y-70422273D01*
X98050480Y-64776894D02*
X96823586Y-63550000D01*
G04 #@! TO.N,/QSPI_SD3*
X97750960Y-70049546D02*
X98988687Y-71287273D01*
X96800000Y-63950000D02*
X97750960Y-64900960D01*
X97750960Y-64900960D02*
X97750960Y-70049546D01*
X98988687Y-71287273D02*
X100912273Y-71287273D01*
X102623687Y-69575859D02*
X102623687Y-68187273D01*
X100912273Y-71287273D02*
X102623687Y-69575859D01*
X91187500Y-63950000D02*
X96800000Y-63950000D01*
G04 #@! TO.N,Net-(R6-Pad1)*
X103162500Y-76412500D02*
X103850000Y-76412500D01*
X94074520Y-67057896D02*
X94074520Y-71549520D01*
X92566625Y-65550000D02*
X94074520Y-67057896D01*
X94074520Y-71549520D02*
X96425000Y-73900000D01*
X100650000Y-73900000D02*
X103162500Y-76412500D01*
X91187500Y-65550000D02*
X92566625Y-65550000D01*
X96425000Y-73900000D02*
X100650000Y-73900000D01*
G04 #@! TO.N,Net-(R7-Pad2)*
X91187500Y-65950000D02*
X92543039Y-65950000D01*
X93775000Y-67181961D02*
X93775000Y-71673586D01*
X96800000Y-74475000D02*
X96800000Y-76437500D01*
X93775000Y-71673586D02*
X96300934Y-74199520D01*
X92543039Y-65950000D02*
X93775000Y-67181961D01*
X96300934Y-74199520D02*
X96524520Y-74199520D01*
X96524520Y-74199520D02*
X96800000Y-74475000D01*
G04 #@! TO.N,Net-(J6-PadA5)*
X64700000Y-128650000D02*
X63062500Y-128650000D01*
G04 #@! TO.N,Net-(J6-PadB5)*
X64300000Y-133100000D02*
X63050000Y-131850000D01*
X63050000Y-131850000D02*
X63050000Y-130262500D01*
X71015000Y-130929213D02*
X68844213Y-133100000D01*
X63050000Y-130262500D02*
X63062500Y-130250000D01*
X68844213Y-133100000D02*
X64300000Y-133100000D01*
G04 #@! TD*
G04 #@! TA.AperFunction,Conductor*
G04 #@! TO.N,+3V3*
G36*
X100017121Y-88570002D02*
G01*
X100063614Y-88623658D01*
X100075000Y-88676000D01*
X100075000Y-89699000D01*
X100054998Y-89767121D01*
X100001342Y-89813614D01*
X99949000Y-89825000D01*
X99201000Y-89825000D01*
X99132879Y-89804998D01*
X99086386Y-89751342D01*
X99075000Y-89699000D01*
X99075000Y-88676000D01*
X99095002Y-88607879D01*
X99148658Y-88561386D01*
X99201000Y-88550000D01*
X99949000Y-88550000D01*
X100017121Y-88570002D01*
G37*
G04 #@! TD.AperFunction*
G04 #@! TD*
G04 #@! TA.AperFunction,Conductor*
G04 #@! TO.N,/VIN*
G36*
X29912247Y-55510219D02*
G01*
X29958941Y-55563700D01*
X29970523Y-55615946D01*
X29980000Y-57900000D01*
X30222467Y-57900000D01*
X32374000Y-57900002D01*
X32442121Y-57920004D01*
X32488614Y-57973660D01*
X32500000Y-58026002D01*
X32500000Y-58285013D01*
X32499833Y-58288424D01*
X32499499Y-58290101D01*
X32499500Y-58909898D01*
X32499833Y-58911572D01*
X32500000Y-58914976D01*
X32500000Y-59555013D01*
X32499833Y-59558424D01*
X32499499Y-59560101D01*
X32499500Y-60179898D01*
X32499833Y-60181572D01*
X32500000Y-60184976D01*
X32500000Y-60825013D01*
X32499833Y-60828424D01*
X32499499Y-60830101D01*
X32499500Y-61449898D01*
X32499833Y-61451572D01*
X32500000Y-61454976D01*
X32500000Y-62095013D01*
X32499833Y-62098424D01*
X32499499Y-62100101D01*
X32499500Y-62719898D01*
X32499833Y-62721572D01*
X32500000Y-62724976D01*
X32500000Y-64000000D01*
X32873999Y-64000000D01*
X32942120Y-64020002D01*
X32988613Y-64073658D01*
X32999999Y-64126000D01*
X33000000Y-66174000D01*
X32979998Y-66242121D01*
X32926342Y-66288614D01*
X32874000Y-66300000D01*
X31226000Y-66300000D01*
X31157879Y-66279998D01*
X31111386Y-66226342D01*
X31100000Y-66174000D01*
X31100000Y-59800000D01*
X30806015Y-59555013D01*
X30513915Y-59311597D01*
X30513913Y-59311596D01*
X30499999Y-59300001D01*
X30204312Y-59300001D01*
X27426000Y-59300000D01*
X27357879Y-59279998D01*
X27311386Y-59226342D01*
X27300000Y-59174000D01*
X27300000Y-55625529D01*
X27320002Y-55557408D01*
X27373658Y-55510915D01*
X27425528Y-55499530D01*
X29844052Y-55490472D01*
X29912247Y-55510219D01*
G37*
G04 #@! TD.AperFunction*
G04 #@! TD*
G04 #@! TA.AperFunction,Conductor*
G04 #@! TO.N,GND*
G36*
X101467121Y-91420002D02*
G01*
X101513614Y-91473658D01*
X101525000Y-91526000D01*
X101525000Y-92599000D01*
X101504998Y-92667121D01*
X101451342Y-92713614D01*
X101399000Y-92725000D01*
X100701000Y-92725000D01*
X100632879Y-92704998D01*
X100586386Y-92651342D01*
X100575000Y-92599000D01*
X100575000Y-91526000D01*
X100595002Y-91457879D01*
X100648658Y-91411386D01*
X100701000Y-91400000D01*
X101399000Y-91400000D01*
X101467121Y-91420002D01*
G37*
G04 #@! TD.AperFunction*
G04 #@! TD*
G04 #@! TA.AperFunction,Conductor*
G04 #@! TO.N,GND*
G36*
X67056349Y-71028175D02*
G01*
X68957376Y-71978688D01*
X69009360Y-72027043D01*
X69017852Y-72044184D01*
X69990825Y-74452292D01*
X70000000Y-74499494D01*
X70000000Y-78435979D01*
X69979998Y-78504100D01*
X69926342Y-78550593D01*
X69856068Y-78560697D01*
X69841097Y-78556590D01*
X69839213Y-78555331D01*
X69809899Y-78549500D01*
X69700063Y-78549500D01*
X69590102Y-78549501D01*
X69584028Y-78550709D01*
X69572961Y-78552910D01*
X69560787Y-78555331D01*
X69527543Y-78577543D01*
X69505331Y-78610787D01*
X69499500Y-78640101D01*
X69499501Y-79359898D01*
X69500709Y-79365971D01*
X69502911Y-79377042D01*
X69505331Y-79389213D01*
X69527543Y-79422457D01*
X69560787Y-79444669D01*
X69590101Y-79450500D01*
X69699937Y-79450500D01*
X69809898Y-79450499D01*
X69818923Y-79448704D01*
X69827040Y-79447090D01*
X69839213Y-79444669D01*
X69849531Y-79437775D01*
X69851786Y-79436841D01*
X69922377Y-79429255D01*
X69948216Y-79436842D01*
X69950470Y-79437775D01*
X69960787Y-79444669D01*
X69990101Y-79450500D01*
X70099937Y-79450500D01*
X70209898Y-79450499D01*
X70219048Y-79448679D01*
X70227045Y-79447089D01*
X70239213Y-79444669D01*
X70272457Y-79422457D01*
X70294669Y-79389213D01*
X70300500Y-79359899D01*
X70300499Y-78640102D01*
X70299929Y-78637235D01*
X70312945Y-78568597D01*
X70361785Y-78517069D01*
X70425110Y-78500000D01*
X70574889Y-78500000D01*
X70643010Y-78520002D01*
X70689503Y-78573658D01*
X70700084Y-78637164D01*
X70699500Y-78640101D01*
X70699501Y-79359898D01*
X70700709Y-79365971D01*
X70702911Y-79377042D01*
X70705331Y-79389213D01*
X70727543Y-79422457D01*
X70760787Y-79444669D01*
X70790101Y-79450500D01*
X70899937Y-79450500D01*
X71009898Y-79450499D01*
X71018923Y-79448704D01*
X71027040Y-79447090D01*
X71039213Y-79444669D01*
X71049531Y-79437775D01*
X71051786Y-79436841D01*
X71122377Y-79429255D01*
X71148216Y-79436842D01*
X71150470Y-79437775D01*
X71160787Y-79444669D01*
X71190101Y-79450500D01*
X71299937Y-79450500D01*
X71409898Y-79450499D01*
X71419048Y-79448679D01*
X71427045Y-79447089D01*
X71439213Y-79444669D01*
X71472457Y-79422457D01*
X71494669Y-79389213D01*
X71500500Y-79359899D01*
X71500499Y-78640102D01*
X71499929Y-78637235D01*
X71512945Y-78568597D01*
X71561785Y-78517069D01*
X71625110Y-78500000D01*
X71774889Y-78500000D01*
X71843010Y-78520002D01*
X71889503Y-78573658D01*
X71900084Y-78637164D01*
X71899500Y-78640101D01*
X71899501Y-79359898D01*
X71900709Y-79365971D01*
X71902911Y-79377042D01*
X71905331Y-79389213D01*
X71927543Y-79422457D01*
X71960787Y-79444669D01*
X71990101Y-79450500D01*
X72099937Y-79450500D01*
X72209898Y-79450499D01*
X72218923Y-79448704D01*
X72227040Y-79447090D01*
X72239213Y-79444669D01*
X72249531Y-79437775D01*
X72251786Y-79436841D01*
X72322377Y-79429255D01*
X72348216Y-79436842D01*
X72350470Y-79437775D01*
X72360787Y-79444669D01*
X72390101Y-79450500D01*
X72499937Y-79450500D01*
X72609898Y-79450499D01*
X72619048Y-79448679D01*
X72627045Y-79447089D01*
X72639213Y-79444669D01*
X72672457Y-79422457D01*
X72694669Y-79389213D01*
X72700500Y-79359899D01*
X72700499Y-78640102D01*
X72699929Y-78637235D01*
X72712945Y-78568597D01*
X72761785Y-78517069D01*
X72825110Y-78500000D01*
X72974889Y-78500000D01*
X73043010Y-78520002D01*
X73089503Y-78573658D01*
X73100084Y-78637164D01*
X73099500Y-78640101D01*
X73099501Y-79359898D01*
X73100709Y-79365971D01*
X73102911Y-79377042D01*
X73105331Y-79389213D01*
X73127543Y-79422457D01*
X73160787Y-79444669D01*
X73190101Y-79450500D01*
X73299937Y-79450500D01*
X73409898Y-79450499D01*
X73418923Y-79448704D01*
X73427040Y-79447090D01*
X73439213Y-79444669D01*
X73449531Y-79437775D01*
X73451786Y-79436841D01*
X73522377Y-79429255D01*
X73548216Y-79436842D01*
X73550470Y-79437775D01*
X73560787Y-79444669D01*
X73590101Y-79450500D01*
X73699937Y-79450500D01*
X73809898Y-79450499D01*
X73819048Y-79448679D01*
X73827045Y-79447089D01*
X73839213Y-79444669D01*
X73872457Y-79422457D01*
X73894669Y-79389213D01*
X73900500Y-79359899D01*
X73900499Y-78640102D01*
X73899929Y-78637235D01*
X73912945Y-78568597D01*
X73961785Y-78517069D01*
X74025110Y-78500000D01*
X74174889Y-78500000D01*
X74243010Y-78520002D01*
X74289503Y-78573658D01*
X74300084Y-78637164D01*
X74299500Y-78640101D01*
X74299501Y-79359898D01*
X74300709Y-79365971D01*
X74302911Y-79377042D01*
X74305331Y-79389213D01*
X74327543Y-79422457D01*
X74360787Y-79444669D01*
X74390101Y-79450500D01*
X74499937Y-79450500D01*
X74609898Y-79450499D01*
X74618923Y-79448704D01*
X74627040Y-79447090D01*
X74639213Y-79444669D01*
X74649531Y-79437775D01*
X74651786Y-79436841D01*
X74722377Y-79429255D01*
X74748216Y-79436842D01*
X74750470Y-79437775D01*
X74760787Y-79444669D01*
X74790101Y-79450500D01*
X74899937Y-79450500D01*
X75009898Y-79450499D01*
X75019048Y-79448679D01*
X75027045Y-79447089D01*
X75039213Y-79444669D01*
X75072457Y-79422457D01*
X75094669Y-79389213D01*
X75100500Y-79359899D01*
X75100499Y-78640102D01*
X75099929Y-78637235D01*
X75112945Y-78568597D01*
X75161785Y-78517069D01*
X75225110Y-78500000D01*
X75374889Y-78500000D01*
X75443010Y-78520002D01*
X75489503Y-78573658D01*
X75500084Y-78637164D01*
X75499500Y-78640101D01*
X75499501Y-79359898D01*
X75500709Y-79365971D01*
X75502911Y-79377042D01*
X75505331Y-79389213D01*
X75527543Y-79422457D01*
X75560787Y-79444669D01*
X75590101Y-79450500D01*
X75699937Y-79450500D01*
X75809898Y-79450499D01*
X75818923Y-79448704D01*
X75827040Y-79447090D01*
X75839213Y-79444669D01*
X75849531Y-79437775D01*
X75851786Y-79436841D01*
X75922377Y-79429255D01*
X75948216Y-79436842D01*
X75950470Y-79437775D01*
X75960787Y-79444669D01*
X75990101Y-79450500D01*
X76099937Y-79450500D01*
X76209898Y-79450499D01*
X76219048Y-79448679D01*
X76227045Y-79447089D01*
X76239213Y-79444669D01*
X76272457Y-79422457D01*
X76294669Y-79389213D01*
X76300500Y-79359899D01*
X76300499Y-78640102D01*
X76299929Y-78637235D01*
X76312945Y-78568597D01*
X76361785Y-78517069D01*
X76425110Y-78500000D01*
X76574889Y-78500000D01*
X76643010Y-78520002D01*
X76689503Y-78573658D01*
X76700084Y-78637164D01*
X76699500Y-78640101D01*
X76699501Y-79359898D01*
X76700709Y-79365971D01*
X76702911Y-79377042D01*
X76705331Y-79389213D01*
X76727543Y-79422457D01*
X76760787Y-79444669D01*
X76790101Y-79450500D01*
X76899937Y-79450500D01*
X77009898Y-79450499D01*
X77018923Y-79448704D01*
X77027040Y-79447090D01*
X77039213Y-79444669D01*
X77049531Y-79437775D01*
X77051786Y-79436841D01*
X77122377Y-79429255D01*
X77148216Y-79436842D01*
X77150470Y-79437775D01*
X77160787Y-79444669D01*
X77190101Y-79450500D01*
X77299937Y-79450500D01*
X77409898Y-79450499D01*
X77419048Y-79448679D01*
X77427045Y-79447089D01*
X77439213Y-79444669D01*
X77472457Y-79422457D01*
X77494669Y-79389213D01*
X77500500Y-79359899D01*
X77500499Y-78640102D01*
X77499929Y-78637235D01*
X77512945Y-78568597D01*
X77561785Y-78517069D01*
X77625110Y-78500000D01*
X77774889Y-78500000D01*
X77843010Y-78520002D01*
X77889503Y-78573658D01*
X77900084Y-78637164D01*
X77899500Y-78640101D01*
X77899501Y-79359898D01*
X77900709Y-79365971D01*
X77902911Y-79377042D01*
X77905331Y-79389213D01*
X77927543Y-79422457D01*
X77960787Y-79444669D01*
X77990101Y-79450500D01*
X78099937Y-79450500D01*
X78209898Y-79450499D01*
X78218923Y-79448704D01*
X78227040Y-79447090D01*
X78239213Y-79444669D01*
X78249531Y-79437775D01*
X78251786Y-79436841D01*
X78322377Y-79429255D01*
X78348216Y-79436842D01*
X78350470Y-79437775D01*
X78360787Y-79444669D01*
X78390101Y-79450500D01*
X78499937Y-79450500D01*
X78609898Y-79450499D01*
X78619048Y-79448679D01*
X78627045Y-79447089D01*
X78639213Y-79444669D01*
X78672457Y-79422457D01*
X78694669Y-79389213D01*
X78700500Y-79359899D01*
X78700499Y-78640102D01*
X78699929Y-78637235D01*
X78712945Y-78568597D01*
X78761785Y-78517069D01*
X78825110Y-78500000D01*
X78974889Y-78500000D01*
X79043010Y-78520002D01*
X79089503Y-78573658D01*
X79100084Y-78637164D01*
X79099500Y-78640101D01*
X79099501Y-79359898D01*
X79100709Y-79365971D01*
X79102911Y-79377042D01*
X79105331Y-79389213D01*
X79127543Y-79422457D01*
X79160787Y-79444669D01*
X79190101Y-79450500D01*
X79226551Y-79450500D01*
X79378782Y-79450499D01*
X79446903Y-79470501D01*
X79493396Y-79524156D01*
X79504782Y-79575939D01*
X79513346Y-81502940D01*
X79493647Y-81571149D01*
X79440198Y-81617880D01*
X79387348Y-81629500D01*
X79237458Y-81629501D01*
X79190102Y-81629501D01*
X79184028Y-81630709D01*
X79172961Y-81632910D01*
X79160787Y-81635331D01*
X79127543Y-81657543D01*
X79105331Y-81690787D01*
X79099500Y-81720101D01*
X79099501Y-82439898D01*
X79100709Y-82445971D01*
X79102911Y-82457042D01*
X79105331Y-82469213D01*
X79127543Y-82502457D01*
X79160787Y-82524669D01*
X79190101Y-82530500D01*
X79247682Y-82530500D01*
X79392471Y-82530499D01*
X79460592Y-82550501D01*
X79507085Y-82604156D01*
X79518471Y-82655939D01*
X79519438Y-82873440D01*
X79499739Y-82941649D01*
X79446290Y-82988380D01*
X79393439Y-83000000D01*
X60851501Y-83000000D01*
X60783380Y-82979998D01*
X60736887Y-82926342D01*
X60725501Y-82874000D01*
X60725501Y-82141213D01*
X60725637Y-82138812D01*
X60729335Y-82128282D01*
X60726274Y-82100774D01*
X60725789Y-82092032D01*
X60725501Y-82089474D01*
X60725501Y-82082398D01*
X60723928Y-82075504D01*
X60723577Y-82072385D01*
X60722225Y-82064392D01*
X60720787Y-82051471D01*
X60719218Y-82037368D01*
X60712943Y-82027345D01*
X60710313Y-82015816D01*
X60707284Y-82012016D01*
X60700499Y-81971897D01*
X60700499Y-81720102D01*
X60700499Y-81720101D01*
X61099500Y-81720101D01*
X61099501Y-82439898D01*
X61100709Y-82445971D01*
X61102911Y-82457042D01*
X61105331Y-82469213D01*
X61127543Y-82502457D01*
X61160787Y-82524669D01*
X61190101Y-82530500D01*
X61299937Y-82530500D01*
X61409898Y-82530499D01*
X61418923Y-82528704D01*
X61427040Y-82527090D01*
X61439213Y-82524669D01*
X61449531Y-82517775D01*
X61451786Y-82516841D01*
X61522377Y-82509255D01*
X61548216Y-82516842D01*
X61550470Y-82517775D01*
X61560787Y-82524669D01*
X61590101Y-82530500D01*
X61699937Y-82530500D01*
X61809898Y-82530499D01*
X61819048Y-82528679D01*
X61827045Y-82527089D01*
X61839213Y-82524669D01*
X61872457Y-82502457D01*
X61894669Y-82469213D01*
X61900500Y-82439899D01*
X61900499Y-81720102D01*
X61900499Y-81720101D01*
X62299500Y-81720101D01*
X62299501Y-82439898D01*
X62300709Y-82445971D01*
X62302911Y-82457042D01*
X62305331Y-82469213D01*
X62327543Y-82502457D01*
X62360787Y-82524669D01*
X62390101Y-82530500D01*
X62499937Y-82530500D01*
X62609898Y-82530499D01*
X62618923Y-82528704D01*
X62627040Y-82527090D01*
X62639213Y-82524669D01*
X62649531Y-82517775D01*
X62651786Y-82516841D01*
X62722377Y-82509255D01*
X62748216Y-82516842D01*
X62750470Y-82517775D01*
X62760787Y-82524669D01*
X62790101Y-82530500D01*
X62899937Y-82530500D01*
X63009898Y-82530499D01*
X63019048Y-82528679D01*
X63027045Y-82527089D01*
X63039213Y-82524669D01*
X63072457Y-82502457D01*
X63094669Y-82469213D01*
X63100500Y-82439899D01*
X63100499Y-81720102D01*
X63100499Y-81720101D01*
X63499500Y-81720101D01*
X63499501Y-82439898D01*
X63500709Y-82445971D01*
X63502911Y-82457042D01*
X63505331Y-82469213D01*
X63527543Y-82502457D01*
X63560787Y-82524669D01*
X63590101Y-82530500D01*
X63699937Y-82530500D01*
X63809898Y-82530499D01*
X63818923Y-82528704D01*
X63827040Y-82527090D01*
X63839213Y-82524669D01*
X63849531Y-82517775D01*
X63851786Y-82516841D01*
X63922377Y-82509255D01*
X63948216Y-82516842D01*
X63950470Y-82517775D01*
X63960787Y-82524669D01*
X63990101Y-82530500D01*
X64099937Y-82530500D01*
X64209898Y-82530499D01*
X64219048Y-82528679D01*
X64227045Y-82527089D01*
X64239213Y-82524669D01*
X64272457Y-82502457D01*
X64294669Y-82469213D01*
X64300500Y-82439899D01*
X64300499Y-81720102D01*
X64300499Y-81720101D01*
X64699500Y-81720101D01*
X64699501Y-82439898D01*
X64700709Y-82445971D01*
X64702911Y-82457042D01*
X64705331Y-82469213D01*
X64727543Y-82502457D01*
X64760787Y-82524669D01*
X64790101Y-82530500D01*
X64899937Y-82530500D01*
X65009898Y-82530499D01*
X65018923Y-82528704D01*
X65027040Y-82527090D01*
X65039213Y-82524669D01*
X65049531Y-82517775D01*
X65051786Y-82516841D01*
X65122377Y-82509255D01*
X65148216Y-82516842D01*
X65150470Y-82517775D01*
X65160787Y-82524669D01*
X65190101Y-82530500D01*
X65299937Y-82530500D01*
X65409898Y-82530499D01*
X65419048Y-82528679D01*
X65427045Y-82527089D01*
X65439213Y-82524669D01*
X65472457Y-82502457D01*
X65494669Y-82469213D01*
X65500500Y-82439899D01*
X65500499Y-81720102D01*
X65500499Y-81720101D01*
X65899500Y-81720101D01*
X65899501Y-82439898D01*
X65900709Y-82445971D01*
X65902911Y-82457042D01*
X65905331Y-82469213D01*
X65927543Y-82502457D01*
X65960787Y-82524669D01*
X65990101Y-82530500D01*
X66099937Y-82530500D01*
X66209898Y-82530499D01*
X66218923Y-82528704D01*
X66227040Y-82527090D01*
X66239213Y-82524669D01*
X66249531Y-82517775D01*
X66251786Y-82516841D01*
X66322377Y-82509255D01*
X66348216Y-82516842D01*
X66350470Y-82517775D01*
X66360787Y-82524669D01*
X66390101Y-82530500D01*
X66499937Y-82530500D01*
X66609898Y-82530499D01*
X66619048Y-82528679D01*
X66627045Y-82527089D01*
X66639213Y-82524669D01*
X66672457Y-82502457D01*
X66694669Y-82469213D01*
X66700500Y-82439899D01*
X66700499Y-81720102D01*
X66700499Y-81720101D01*
X67099500Y-81720101D01*
X67099501Y-82439898D01*
X67100709Y-82445971D01*
X67102911Y-82457042D01*
X67105331Y-82469213D01*
X67127543Y-82502457D01*
X67160787Y-82524669D01*
X67190101Y-82530500D01*
X67299937Y-82530500D01*
X67409898Y-82530499D01*
X67418923Y-82528704D01*
X67427040Y-82527090D01*
X67439213Y-82524669D01*
X67449531Y-82517775D01*
X67451786Y-82516841D01*
X67522377Y-82509255D01*
X67548216Y-82516842D01*
X67550470Y-82517775D01*
X67560787Y-82524669D01*
X67590101Y-82530500D01*
X67699937Y-82530500D01*
X67809898Y-82530499D01*
X67818923Y-82528704D01*
X67827040Y-82527090D01*
X67839213Y-82524669D01*
X67849531Y-82517775D01*
X67851786Y-82516841D01*
X67922377Y-82509255D01*
X67948216Y-82516842D01*
X67950470Y-82517775D01*
X67960787Y-82524669D01*
X67990101Y-82530500D01*
X68099937Y-82530500D01*
X68209898Y-82530499D01*
X68218923Y-82528704D01*
X68227040Y-82527090D01*
X68239213Y-82524669D01*
X68249531Y-82517775D01*
X68251786Y-82516841D01*
X68322377Y-82509255D01*
X68348216Y-82516842D01*
X68350470Y-82517775D01*
X68360787Y-82524669D01*
X68390101Y-82530500D01*
X68499937Y-82530500D01*
X68609898Y-82530499D01*
X68618923Y-82528704D01*
X68627040Y-82527090D01*
X68639213Y-82524669D01*
X68649531Y-82517775D01*
X68651786Y-82516841D01*
X68722377Y-82509255D01*
X68748216Y-82516842D01*
X68750470Y-82517775D01*
X68760787Y-82524669D01*
X68790101Y-82530500D01*
X68899937Y-82530500D01*
X69009898Y-82530499D01*
X69018923Y-82528704D01*
X69027040Y-82527090D01*
X69039213Y-82524669D01*
X69049531Y-82517775D01*
X69051786Y-82516841D01*
X69122377Y-82509255D01*
X69148216Y-82516842D01*
X69150470Y-82517775D01*
X69160787Y-82524669D01*
X69190101Y-82530500D01*
X69299937Y-82530500D01*
X69409898Y-82530499D01*
X69418923Y-82528704D01*
X69427040Y-82527090D01*
X69439213Y-82524669D01*
X69449531Y-82517775D01*
X69451786Y-82516841D01*
X69522377Y-82509255D01*
X69548216Y-82516842D01*
X69550470Y-82517775D01*
X69560787Y-82524669D01*
X69590101Y-82530500D01*
X69699937Y-82530500D01*
X69809898Y-82530499D01*
X69818923Y-82528704D01*
X69827040Y-82527090D01*
X69839213Y-82524669D01*
X69849531Y-82517775D01*
X69851786Y-82516841D01*
X69922377Y-82509255D01*
X69948216Y-82516842D01*
X69950470Y-82517775D01*
X69960787Y-82524669D01*
X69990101Y-82530500D01*
X70099937Y-82530500D01*
X70209898Y-82530499D01*
X70219048Y-82528679D01*
X70227045Y-82527089D01*
X70239213Y-82524669D01*
X70272457Y-82502457D01*
X70294669Y-82469213D01*
X70300500Y-82439899D01*
X70300499Y-81720102D01*
X70300499Y-81720101D01*
X70699500Y-81720101D01*
X70699501Y-82439898D01*
X70700709Y-82445971D01*
X70702911Y-82457042D01*
X70705331Y-82469213D01*
X70727543Y-82502457D01*
X70760787Y-82524669D01*
X70790101Y-82530500D01*
X70899937Y-82530500D01*
X71009898Y-82530499D01*
X71018923Y-82528704D01*
X71027040Y-82527090D01*
X71039213Y-82524669D01*
X71049531Y-82517775D01*
X71051786Y-82516841D01*
X71122377Y-82509255D01*
X71148216Y-82516842D01*
X71150470Y-82517775D01*
X71160787Y-82524669D01*
X71190101Y-82530500D01*
X71299937Y-82530500D01*
X71409898Y-82530499D01*
X71419048Y-82528679D01*
X71427045Y-82527089D01*
X71439213Y-82524669D01*
X71472457Y-82502457D01*
X71494669Y-82469213D01*
X71500500Y-82439899D01*
X71500499Y-81720102D01*
X71500499Y-81720101D01*
X71899500Y-81720101D01*
X71899501Y-82439898D01*
X71900709Y-82445971D01*
X71902911Y-82457042D01*
X71905331Y-82469213D01*
X71927543Y-82502457D01*
X71960787Y-82524669D01*
X71990101Y-82530500D01*
X72099937Y-82530500D01*
X72209898Y-82530499D01*
X72218923Y-82528704D01*
X72227040Y-82527090D01*
X72239213Y-82524669D01*
X72249531Y-82517775D01*
X72251786Y-82516841D01*
X72322377Y-82509255D01*
X72348216Y-82516842D01*
X72350470Y-82517775D01*
X72360787Y-82524669D01*
X72390101Y-82530500D01*
X72499937Y-82530500D01*
X72609898Y-82530499D01*
X72619048Y-82528679D01*
X72627045Y-82527089D01*
X72639213Y-82524669D01*
X72672457Y-82502457D01*
X72694669Y-82469213D01*
X72700500Y-82439899D01*
X72700499Y-81720102D01*
X72700499Y-81720101D01*
X73099500Y-81720101D01*
X73099501Y-82439898D01*
X73100709Y-82445971D01*
X73102911Y-82457042D01*
X73105331Y-82469213D01*
X73127543Y-82502457D01*
X73160787Y-82524669D01*
X73190101Y-82530500D01*
X73299937Y-82530500D01*
X73409898Y-82530499D01*
X73418923Y-82528704D01*
X73427040Y-82527090D01*
X73439213Y-82524669D01*
X73449531Y-82517775D01*
X73451786Y-82516841D01*
X73522377Y-82509255D01*
X73548216Y-82516842D01*
X73550470Y-82517775D01*
X73560787Y-82524669D01*
X73590101Y-82530500D01*
X73699937Y-82530500D01*
X73809898Y-82530499D01*
X73819048Y-82528679D01*
X73827045Y-82527089D01*
X73839213Y-82524669D01*
X73872457Y-82502457D01*
X73894669Y-82469213D01*
X73900500Y-82439899D01*
X73900499Y-81720102D01*
X73900499Y-81720101D01*
X74299500Y-81720101D01*
X74299501Y-82439898D01*
X74300709Y-82445971D01*
X74302911Y-82457042D01*
X74305331Y-82469213D01*
X74327543Y-82502457D01*
X74360787Y-82524669D01*
X74390101Y-82530500D01*
X74499937Y-82530500D01*
X74609898Y-82530499D01*
X74618923Y-82528704D01*
X74627040Y-82527090D01*
X74639213Y-82524669D01*
X74649531Y-82517775D01*
X74651786Y-82516841D01*
X74722377Y-82509255D01*
X74748216Y-82516842D01*
X74750470Y-82517775D01*
X74760787Y-82524669D01*
X74790101Y-82530500D01*
X74899937Y-82530500D01*
X75009898Y-82530499D01*
X75019048Y-82528679D01*
X75027045Y-82527089D01*
X75039213Y-82524669D01*
X75072457Y-82502457D01*
X75094669Y-82469213D01*
X75100500Y-82439899D01*
X75100499Y-81720102D01*
X75100499Y-81720101D01*
X75499500Y-81720101D01*
X75499501Y-82439898D01*
X75500709Y-82445971D01*
X75502911Y-82457042D01*
X75505331Y-82469213D01*
X75527543Y-82502457D01*
X75560787Y-82524669D01*
X75590101Y-82530500D01*
X75699937Y-82530500D01*
X75809898Y-82530499D01*
X75818923Y-82528704D01*
X75827040Y-82527090D01*
X75839213Y-82524669D01*
X75849531Y-82517775D01*
X75851786Y-82516841D01*
X75922377Y-82509255D01*
X75948216Y-82516842D01*
X75950470Y-82517775D01*
X75960787Y-82524669D01*
X75990101Y-82530500D01*
X76099937Y-82530500D01*
X76209898Y-82530499D01*
X76219048Y-82528679D01*
X76227045Y-82527089D01*
X76239213Y-82524669D01*
X76272457Y-82502457D01*
X76294669Y-82469213D01*
X76300500Y-82439899D01*
X76300499Y-81720102D01*
X76300499Y-81720101D01*
X76699500Y-81720101D01*
X76699501Y-82439898D01*
X76700709Y-82445971D01*
X76702911Y-82457042D01*
X76705331Y-82469213D01*
X76727543Y-82502457D01*
X76760787Y-82524669D01*
X76790101Y-82530500D01*
X76899937Y-82530500D01*
X77009898Y-82530499D01*
X77018923Y-82528704D01*
X77027040Y-82527090D01*
X77039213Y-82524669D01*
X77049531Y-82517775D01*
X77051786Y-82516841D01*
X77122377Y-82509255D01*
X77148216Y-82516842D01*
X77150470Y-82517775D01*
X77160787Y-82524669D01*
X77190101Y-82530500D01*
X77299937Y-82530500D01*
X77409898Y-82530499D01*
X77419048Y-82528679D01*
X77427045Y-82527089D01*
X77439213Y-82524669D01*
X77472457Y-82502457D01*
X77494669Y-82469213D01*
X77500500Y-82439899D01*
X77500499Y-81720102D01*
X77500499Y-81720101D01*
X77899500Y-81720101D01*
X77899501Y-82439898D01*
X77900709Y-82445971D01*
X77902911Y-82457042D01*
X77905331Y-82469213D01*
X77927543Y-82502457D01*
X77960787Y-82524669D01*
X77990101Y-82530500D01*
X78099937Y-82530500D01*
X78209898Y-82530499D01*
X78218923Y-82528704D01*
X78227040Y-82527090D01*
X78239213Y-82524669D01*
X78249531Y-82517775D01*
X78251786Y-82516841D01*
X78322377Y-82509255D01*
X78348216Y-82516842D01*
X78350470Y-82517775D01*
X78360787Y-82524669D01*
X78390101Y-82530500D01*
X78499937Y-82530500D01*
X78609898Y-82530499D01*
X78619048Y-82528679D01*
X78627045Y-82527089D01*
X78639213Y-82524669D01*
X78672457Y-82502457D01*
X78694669Y-82469213D01*
X78700500Y-82439899D01*
X78700499Y-81720102D01*
X78697732Y-81706190D01*
X78697089Y-81702955D01*
X78694669Y-81690787D01*
X78672457Y-81657543D01*
X78639213Y-81635331D01*
X78609899Y-81629500D01*
X78500063Y-81629500D01*
X78390102Y-81629501D01*
X78384028Y-81630709D01*
X78372960Y-81632910D01*
X78360787Y-81635331D01*
X78350469Y-81642225D01*
X78348214Y-81643159D01*
X78277623Y-81650745D01*
X78251784Y-81643158D01*
X78249530Y-81642225D01*
X78239213Y-81635331D01*
X78209899Y-81629500D01*
X78100063Y-81629500D01*
X77990102Y-81629501D01*
X77984028Y-81630709D01*
X77972961Y-81632910D01*
X77960787Y-81635331D01*
X77927543Y-81657543D01*
X77905331Y-81690787D01*
X77899500Y-81720101D01*
X77500499Y-81720101D01*
X77497732Y-81706190D01*
X77497089Y-81702955D01*
X77494669Y-81690787D01*
X77472457Y-81657543D01*
X77439213Y-81635331D01*
X77409899Y-81629500D01*
X77300063Y-81629500D01*
X77190102Y-81629501D01*
X77184028Y-81630709D01*
X77172960Y-81632910D01*
X77160787Y-81635331D01*
X77150469Y-81642225D01*
X77148214Y-81643159D01*
X77077623Y-81650745D01*
X77051784Y-81643158D01*
X77049530Y-81642225D01*
X77039213Y-81635331D01*
X77009899Y-81629500D01*
X76900063Y-81629500D01*
X76790102Y-81629501D01*
X76784028Y-81630709D01*
X76772961Y-81632910D01*
X76760787Y-81635331D01*
X76727543Y-81657543D01*
X76705331Y-81690787D01*
X76699500Y-81720101D01*
X76300499Y-81720101D01*
X76297732Y-81706190D01*
X76297089Y-81702955D01*
X76294669Y-81690787D01*
X76272457Y-81657543D01*
X76239213Y-81635331D01*
X76209899Y-81629500D01*
X76100063Y-81629500D01*
X75990102Y-81629501D01*
X75984028Y-81630709D01*
X75972960Y-81632910D01*
X75960787Y-81635331D01*
X75950469Y-81642225D01*
X75948214Y-81643159D01*
X75877623Y-81650745D01*
X75851784Y-81643158D01*
X75849530Y-81642225D01*
X75839213Y-81635331D01*
X75809899Y-81629500D01*
X75700063Y-81629500D01*
X75590102Y-81629501D01*
X75584028Y-81630709D01*
X75572961Y-81632910D01*
X75560787Y-81635331D01*
X75527543Y-81657543D01*
X75505331Y-81690787D01*
X75499500Y-81720101D01*
X75100499Y-81720101D01*
X75097732Y-81706190D01*
X75097089Y-81702955D01*
X75094669Y-81690787D01*
X75072457Y-81657543D01*
X75039213Y-81635331D01*
X75009899Y-81629500D01*
X74900063Y-81629500D01*
X74790102Y-81629501D01*
X74784028Y-81630709D01*
X74772960Y-81632910D01*
X74760787Y-81635331D01*
X74750469Y-81642225D01*
X74748214Y-81643159D01*
X74677623Y-81650745D01*
X74651784Y-81643158D01*
X74649530Y-81642225D01*
X74639213Y-81635331D01*
X74609899Y-81629500D01*
X74500063Y-81629500D01*
X74390102Y-81629501D01*
X74384028Y-81630709D01*
X74372961Y-81632910D01*
X74360787Y-81635331D01*
X74327543Y-81657543D01*
X74305331Y-81690787D01*
X74299500Y-81720101D01*
X73900499Y-81720101D01*
X73897732Y-81706190D01*
X73897089Y-81702955D01*
X73894669Y-81690787D01*
X73872457Y-81657543D01*
X73839213Y-81635331D01*
X73809899Y-81629500D01*
X73700063Y-81629500D01*
X73590102Y-81629501D01*
X73584028Y-81630709D01*
X73572960Y-81632910D01*
X73560787Y-81635331D01*
X73550469Y-81642225D01*
X73548214Y-81643159D01*
X73477623Y-81650745D01*
X73451784Y-81643158D01*
X73449530Y-81642225D01*
X73439213Y-81635331D01*
X73409899Y-81629500D01*
X73300063Y-81629500D01*
X73190102Y-81629501D01*
X73184028Y-81630709D01*
X73172961Y-81632910D01*
X73160787Y-81635331D01*
X73127543Y-81657543D01*
X73105331Y-81690787D01*
X73099500Y-81720101D01*
X72700499Y-81720101D01*
X72697732Y-81706190D01*
X72697089Y-81702955D01*
X72694669Y-81690787D01*
X72672457Y-81657543D01*
X72639213Y-81635331D01*
X72609899Y-81629500D01*
X72500063Y-81629500D01*
X72390102Y-81629501D01*
X72384028Y-81630709D01*
X72372960Y-81632910D01*
X72360787Y-81635331D01*
X72350469Y-81642225D01*
X72348214Y-81643159D01*
X72277623Y-81650745D01*
X72251784Y-81643158D01*
X72249530Y-81642225D01*
X72239213Y-81635331D01*
X72209899Y-81629500D01*
X72100063Y-81629500D01*
X71990102Y-81629501D01*
X71984028Y-81630709D01*
X71972961Y-81632910D01*
X71960787Y-81635331D01*
X71927543Y-81657543D01*
X71905331Y-81690787D01*
X71899500Y-81720101D01*
X71500499Y-81720101D01*
X71497732Y-81706190D01*
X71497089Y-81702955D01*
X71494669Y-81690787D01*
X71472457Y-81657543D01*
X71439213Y-81635331D01*
X71409899Y-81629500D01*
X71300063Y-81629500D01*
X71190102Y-81629501D01*
X71184028Y-81630709D01*
X71172960Y-81632910D01*
X71160787Y-81635331D01*
X71150469Y-81642225D01*
X71148214Y-81643159D01*
X71077623Y-81650745D01*
X71051784Y-81643158D01*
X71049530Y-81642225D01*
X71039213Y-81635331D01*
X71009899Y-81629500D01*
X70900063Y-81629500D01*
X70790102Y-81629501D01*
X70784028Y-81630709D01*
X70772961Y-81632910D01*
X70760787Y-81635331D01*
X70727543Y-81657543D01*
X70705331Y-81690787D01*
X70699500Y-81720101D01*
X70300499Y-81720101D01*
X70297732Y-81706190D01*
X70297089Y-81702955D01*
X70294669Y-81690787D01*
X70272457Y-81657543D01*
X70239213Y-81635331D01*
X70209899Y-81629500D01*
X70100063Y-81629500D01*
X69990102Y-81629501D01*
X69984028Y-81630709D01*
X69972960Y-81632910D01*
X69960787Y-81635331D01*
X69950469Y-81642225D01*
X69948214Y-81643159D01*
X69877623Y-81650745D01*
X69851784Y-81643158D01*
X69849530Y-81642225D01*
X69839213Y-81635331D01*
X69809899Y-81629500D01*
X69700063Y-81629500D01*
X69590102Y-81629501D01*
X69584028Y-81630709D01*
X69572960Y-81632910D01*
X69560787Y-81635331D01*
X69550469Y-81642225D01*
X69548214Y-81643159D01*
X69477623Y-81650745D01*
X69451784Y-81643158D01*
X69449530Y-81642225D01*
X69439213Y-81635331D01*
X69409899Y-81629500D01*
X69300063Y-81629500D01*
X69190102Y-81629501D01*
X69184028Y-81630709D01*
X69172960Y-81632910D01*
X69160787Y-81635331D01*
X69150469Y-81642225D01*
X69148214Y-81643159D01*
X69077623Y-81650745D01*
X69051784Y-81643158D01*
X69049530Y-81642225D01*
X69039213Y-81635331D01*
X69009899Y-81629500D01*
X68900063Y-81629500D01*
X68790102Y-81629501D01*
X68784028Y-81630709D01*
X68772960Y-81632910D01*
X68760787Y-81635331D01*
X68750469Y-81642225D01*
X68748214Y-81643159D01*
X68677623Y-81650745D01*
X68651784Y-81643158D01*
X68649530Y-81642225D01*
X68639213Y-81635331D01*
X68609899Y-81629500D01*
X68500063Y-81629500D01*
X68390102Y-81629501D01*
X68384028Y-81630709D01*
X68372960Y-81632910D01*
X68360787Y-81635331D01*
X68350469Y-81642225D01*
X68348214Y-81643159D01*
X68277623Y-81650745D01*
X68251784Y-81643158D01*
X68249530Y-81642225D01*
X68239213Y-81635331D01*
X68209899Y-81629500D01*
X68100063Y-81629500D01*
X67990102Y-81629501D01*
X67984028Y-81630709D01*
X67972960Y-81632910D01*
X67960787Y-81635331D01*
X67950469Y-81642225D01*
X67948214Y-81643159D01*
X67877623Y-81650745D01*
X67851784Y-81643158D01*
X67849530Y-81642225D01*
X67839213Y-81635331D01*
X67809899Y-81629500D01*
X67700063Y-81629500D01*
X67590102Y-81629501D01*
X67584028Y-81630709D01*
X67572960Y-81632910D01*
X67560787Y-81635331D01*
X67550469Y-81642225D01*
X67548214Y-81643159D01*
X67477623Y-81650745D01*
X67451784Y-81643158D01*
X67449530Y-81642225D01*
X67439213Y-81635331D01*
X67409899Y-81629500D01*
X67300063Y-81629500D01*
X67190102Y-81629501D01*
X67184028Y-81630709D01*
X67172961Y-81632910D01*
X67160787Y-81635331D01*
X67127543Y-81657543D01*
X67105331Y-81690787D01*
X67099500Y-81720101D01*
X66700499Y-81720101D01*
X66697732Y-81706190D01*
X66697089Y-81702955D01*
X66694669Y-81690787D01*
X66672457Y-81657543D01*
X66639213Y-81635331D01*
X66609899Y-81629500D01*
X66500063Y-81629500D01*
X66390102Y-81629501D01*
X66384028Y-81630709D01*
X66372960Y-81632910D01*
X66360787Y-81635331D01*
X66350469Y-81642225D01*
X66348214Y-81643159D01*
X66277623Y-81650745D01*
X66251784Y-81643158D01*
X66249530Y-81642225D01*
X66239213Y-81635331D01*
X66209899Y-81629500D01*
X66100063Y-81629500D01*
X65990102Y-81629501D01*
X65984028Y-81630709D01*
X65972961Y-81632910D01*
X65960787Y-81635331D01*
X65927543Y-81657543D01*
X65905331Y-81690787D01*
X65899500Y-81720101D01*
X65500499Y-81720101D01*
X65497732Y-81706190D01*
X65497089Y-81702955D01*
X65494669Y-81690787D01*
X65472457Y-81657543D01*
X65439213Y-81635331D01*
X65409899Y-81629500D01*
X65300063Y-81629500D01*
X65190102Y-81629501D01*
X65184028Y-81630709D01*
X65172960Y-81632910D01*
X65160787Y-81635331D01*
X65150469Y-81642225D01*
X65148214Y-81643159D01*
X65077623Y-81650745D01*
X65051784Y-81643158D01*
X65049530Y-81642225D01*
X65039213Y-81635331D01*
X65009899Y-81629500D01*
X64900063Y-81629500D01*
X64790102Y-81629501D01*
X64784028Y-81630709D01*
X64772961Y-81632910D01*
X64760787Y-81635331D01*
X64727543Y-81657543D01*
X64705331Y-81690787D01*
X64699500Y-81720101D01*
X64300499Y-81720101D01*
X64297732Y-81706190D01*
X64297089Y-81702955D01*
X64294669Y-81690787D01*
X64272457Y-81657543D01*
X64239213Y-81635331D01*
X64209899Y-81629500D01*
X64100063Y-81629500D01*
X63990102Y-81629501D01*
X63984028Y-81630709D01*
X63972960Y-81632910D01*
X63960787Y-81635331D01*
X63950469Y-81642225D01*
X63948214Y-81643159D01*
X63877623Y-81650745D01*
X63851784Y-81643158D01*
X63849530Y-81642225D01*
X63839213Y-81635331D01*
X63809899Y-81629500D01*
X63700063Y-81629500D01*
X63590102Y-81629501D01*
X63584028Y-81630709D01*
X63572961Y-81632910D01*
X63560787Y-81635331D01*
X63527543Y-81657543D01*
X63505331Y-81690787D01*
X63499500Y-81720101D01*
X63100499Y-81720101D01*
X63097732Y-81706190D01*
X63097089Y-81702955D01*
X63094669Y-81690787D01*
X63072457Y-81657543D01*
X63039213Y-81635331D01*
X63009899Y-81629500D01*
X62900063Y-81629500D01*
X62790102Y-81629501D01*
X62784028Y-81630709D01*
X62772960Y-81632910D01*
X62760787Y-81635331D01*
X62750469Y-81642225D01*
X62748214Y-81643159D01*
X62677623Y-81650745D01*
X62651784Y-81643158D01*
X62649530Y-81642225D01*
X62639213Y-81635331D01*
X62609899Y-81629500D01*
X62500063Y-81629500D01*
X62390102Y-81629501D01*
X62384028Y-81630709D01*
X62372961Y-81632910D01*
X62360787Y-81635331D01*
X62327543Y-81657543D01*
X62305331Y-81690787D01*
X62299500Y-81720101D01*
X61900499Y-81720101D01*
X61897732Y-81706190D01*
X61897089Y-81702955D01*
X61894669Y-81690787D01*
X61872457Y-81657543D01*
X61839213Y-81635331D01*
X61809899Y-81629500D01*
X61700063Y-81629500D01*
X61590102Y-81629501D01*
X61584028Y-81630709D01*
X61572960Y-81632910D01*
X61560787Y-81635331D01*
X61550469Y-81642225D01*
X61548214Y-81643159D01*
X61477623Y-81650745D01*
X61451784Y-81643158D01*
X61449530Y-81642225D01*
X61439213Y-81635331D01*
X61409899Y-81629500D01*
X61300063Y-81629500D01*
X61190102Y-81629501D01*
X61184028Y-81630709D01*
X61172961Y-81632910D01*
X61160787Y-81635331D01*
X61127543Y-81657543D01*
X61105331Y-81690787D01*
X61099500Y-81720101D01*
X60700499Y-81720101D01*
X60697732Y-81706190D01*
X60697089Y-81702955D01*
X60694669Y-81690787D01*
X60672457Y-81657543D01*
X60639213Y-81635331D01*
X60609899Y-81629500D01*
X60500063Y-81629500D01*
X60390102Y-81629501D01*
X60384028Y-81630709D01*
X60372960Y-81632910D01*
X60360787Y-81635331D01*
X60350469Y-81642225D01*
X60348214Y-81643159D01*
X60277623Y-81650745D01*
X60251784Y-81643158D01*
X60249530Y-81642225D01*
X60239213Y-81635331D01*
X60209899Y-81629500D01*
X60100063Y-81629500D01*
X59990102Y-81629501D01*
X59984028Y-81630709D01*
X59972960Y-81632910D01*
X59960787Y-81635331D01*
X59950469Y-81642225D01*
X59948214Y-81643159D01*
X59877623Y-81650745D01*
X59851784Y-81643158D01*
X59849530Y-81642225D01*
X59839213Y-81635331D01*
X59809899Y-81629500D01*
X59777591Y-81629500D01*
X59626000Y-81629501D01*
X59557880Y-81609499D01*
X59511387Y-81555844D01*
X59500000Y-81503501D01*
X59500000Y-79576500D01*
X59520002Y-79508379D01*
X59573658Y-79461886D01*
X59625999Y-79450500D01*
X59777558Y-79450499D01*
X59809898Y-79450499D01*
X59818923Y-79448704D01*
X59827040Y-79447090D01*
X59839213Y-79444669D01*
X59849531Y-79437775D01*
X59851786Y-79436841D01*
X59922377Y-79429255D01*
X59948216Y-79436842D01*
X59950470Y-79437775D01*
X59960787Y-79444669D01*
X59990101Y-79450500D01*
X60099937Y-79450500D01*
X60209898Y-79450499D01*
X60218923Y-79448704D01*
X60227040Y-79447090D01*
X60239213Y-79444669D01*
X60249531Y-79437775D01*
X60251786Y-79436841D01*
X60322377Y-79429255D01*
X60348216Y-79436842D01*
X60350470Y-79437775D01*
X60360787Y-79444669D01*
X60390101Y-79450500D01*
X60499937Y-79450500D01*
X60609898Y-79450499D01*
X60619048Y-79448679D01*
X60627045Y-79447089D01*
X60639213Y-79444669D01*
X60672457Y-79422457D01*
X60694669Y-79389213D01*
X60700500Y-79359899D01*
X60700499Y-78640102D01*
X60699291Y-78634029D01*
X60698685Y-78627872D01*
X60700383Y-78627705D01*
X60705982Y-78565140D01*
X60749536Y-78509073D01*
X60821829Y-78485280D01*
X60907682Y-78484324D01*
X60975704Y-78483567D01*
X61044044Y-78502809D01*
X61091131Y-78555944D01*
X61102016Y-78626101D01*
X61100712Y-78633980D01*
X61100707Y-78634034D01*
X61099500Y-78640101D01*
X61099501Y-79359898D01*
X61100709Y-79365971D01*
X61102911Y-79377042D01*
X61105331Y-79389213D01*
X61127543Y-79422457D01*
X61160787Y-79444669D01*
X61190101Y-79450500D01*
X61299937Y-79450500D01*
X61409898Y-79450499D01*
X61418923Y-79448704D01*
X61427040Y-79447090D01*
X61439213Y-79444669D01*
X61449531Y-79437775D01*
X61451786Y-79436841D01*
X61522377Y-79429255D01*
X61548216Y-79436842D01*
X61550470Y-79437775D01*
X61560787Y-79444669D01*
X61590101Y-79450500D01*
X61699937Y-79450500D01*
X61809898Y-79450499D01*
X61819048Y-79448679D01*
X61827045Y-79447089D01*
X61839213Y-79444669D01*
X61872457Y-79422457D01*
X61894669Y-79389213D01*
X61900500Y-79359899D01*
X61900499Y-78640102D01*
X61899292Y-78634034D01*
X61899291Y-78634022D01*
X61897002Y-78622513D01*
X61903334Y-78551799D01*
X61946891Y-78495735D01*
X62019179Y-78471947D01*
X62137365Y-78470631D01*
X62178368Y-78470174D01*
X62246707Y-78489416D01*
X62293795Y-78542551D01*
X62304680Y-78612708D01*
X62303349Y-78620750D01*
X62300707Y-78634029D01*
X62300707Y-78634034D01*
X62299500Y-78640101D01*
X62299501Y-79359898D01*
X62300709Y-79365971D01*
X62302911Y-79377042D01*
X62305331Y-79389213D01*
X62327543Y-79422457D01*
X62360787Y-79444669D01*
X62390101Y-79450500D01*
X62499937Y-79450500D01*
X62609898Y-79450499D01*
X62618923Y-79448704D01*
X62627040Y-79447090D01*
X62639213Y-79444669D01*
X62649531Y-79437775D01*
X62651786Y-79436841D01*
X62722377Y-79429255D01*
X62748216Y-79436842D01*
X62750470Y-79437775D01*
X62760787Y-79444669D01*
X62790101Y-79450500D01*
X62899937Y-79450500D01*
X63009898Y-79450499D01*
X63019048Y-79448679D01*
X63027045Y-79447089D01*
X63039213Y-79444669D01*
X63072457Y-79422457D01*
X63094669Y-79389213D01*
X63100500Y-79359899D01*
X63100499Y-78640102D01*
X63094669Y-78610787D01*
X63098720Y-78609981D01*
X63093590Y-78562227D01*
X63125374Y-78498743D01*
X63186436Y-78462520D01*
X63216182Y-78458617D01*
X63381774Y-78456773D01*
X63450113Y-78476015D01*
X63497201Y-78529150D01*
X63508086Y-78599307D01*
X63505022Y-78610726D01*
X63505331Y-78610787D01*
X63499500Y-78640101D01*
X63499501Y-79359898D01*
X63500709Y-79365971D01*
X63502911Y-79377042D01*
X63505331Y-79389213D01*
X63527543Y-79422457D01*
X63560787Y-79444669D01*
X63590101Y-79450500D01*
X63699937Y-79450500D01*
X63809898Y-79450499D01*
X63818923Y-79448704D01*
X63827040Y-79447090D01*
X63839213Y-79444669D01*
X63849531Y-79437775D01*
X63851786Y-79436841D01*
X63922377Y-79429255D01*
X63948216Y-79436842D01*
X63950470Y-79437775D01*
X63960787Y-79444669D01*
X63990101Y-79450500D01*
X64099937Y-79450500D01*
X64209898Y-79450499D01*
X64219048Y-79448679D01*
X64227045Y-79447089D01*
X64239213Y-79444669D01*
X64272457Y-79422457D01*
X64294669Y-79389213D01*
X64300500Y-79359899D01*
X64300499Y-78640102D01*
X64300499Y-78640101D01*
X64699500Y-78640101D01*
X64699501Y-79359898D01*
X64700709Y-79365971D01*
X64702911Y-79377042D01*
X64705331Y-79389213D01*
X64727543Y-79422457D01*
X64760787Y-79444669D01*
X64790101Y-79450500D01*
X64899937Y-79450500D01*
X65009898Y-79450499D01*
X65018923Y-79448704D01*
X65027040Y-79447090D01*
X65039213Y-79444669D01*
X65049531Y-79437775D01*
X65051786Y-79436841D01*
X65122377Y-79429255D01*
X65148216Y-79436842D01*
X65150470Y-79437775D01*
X65160787Y-79444669D01*
X65190101Y-79450500D01*
X65299937Y-79450500D01*
X65409898Y-79450499D01*
X65419048Y-79448679D01*
X65427045Y-79447089D01*
X65439213Y-79444669D01*
X65472457Y-79422457D01*
X65494669Y-79389213D01*
X65500500Y-79359899D01*
X65500499Y-78640102D01*
X65500499Y-78640101D01*
X65899500Y-78640101D01*
X65899501Y-79359898D01*
X65900709Y-79365971D01*
X65902911Y-79377042D01*
X65905331Y-79389213D01*
X65927543Y-79422457D01*
X65960787Y-79444669D01*
X65990101Y-79450500D01*
X66099937Y-79450500D01*
X66209898Y-79450499D01*
X66218923Y-79448704D01*
X66227040Y-79447090D01*
X66239213Y-79444669D01*
X66249531Y-79437775D01*
X66251786Y-79436841D01*
X66322377Y-79429255D01*
X66348216Y-79436842D01*
X66350470Y-79437775D01*
X66360787Y-79444669D01*
X66390101Y-79450500D01*
X66499937Y-79450500D01*
X66609898Y-79450499D01*
X66619048Y-79448679D01*
X66627045Y-79447089D01*
X66639213Y-79444669D01*
X66672457Y-79422457D01*
X66694669Y-79389213D01*
X66700500Y-79359899D01*
X66700499Y-78640102D01*
X66700499Y-78640101D01*
X67099500Y-78640101D01*
X67099501Y-79359898D01*
X67100709Y-79365971D01*
X67102911Y-79377042D01*
X67105331Y-79389213D01*
X67127543Y-79422457D01*
X67160787Y-79444669D01*
X67190101Y-79450500D01*
X67299937Y-79450500D01*
X67409898Y-79450499D01*
X67418923Y-79448704D01*
X67427040Y-79447090D01*
X67439213Y-79444669D01*
X67449531Y-79437775D01*
X67451786Y-79436841D01*
X67522377Y-79429255D01*
X67548216Y-79436842D01*
X67550470Y-79437775D01*
X67560787Y-79444669D01*
X67590101Y-79450500D01*
X67699937Y-79450500D01*
X67809898Y-79450499D01*
X67819048Y-79448679D01*
X67827045Y-79447089D01*
X67839213Y-79444669D01*
X67872457Y-79422457D01*
X67894669Y-79389213D01*
X67900500Y-79359899D01*
X67900499Y-78640102D01*
X67900499Y-78640101D01*
X68299500Y-78640101D01*
X68299501Y-79359898D01*
X68300709Y-79365971D01*
X68302911Y-79377042D01*
X68305331Y-79389213D01*
X68327543Y-79422457D01*
X68360787Y-79444669D01*
X68390101Y-79450500D01*
X68499937Y-79450500D01*
X68609898Y-79450499D01*
X68618923Y-79448704D01*
X68627040Y-79447090D01*
X68639213Y-79444669D01*
X68649531Y-79437775D01*
X68651786Y-79436841D01*
X68722377Y-79429255D01*
X68748216Y-79436842D01*
X68750470Y-79437775D01*
X68760787Y-79444669D01*
X68790101Y-79450500D01*
X68899937Y-79450500D01*
X69009898Y-79450499D01*
X69019048Y-79448679D01*
X69027045Y-79447089D01*
X69039213Y-79444669D01*
X69072457Y-79422457D01*
X69094669Y-79389213D01*
X69100500Y-79359899D01*
X69100499Y-78640102D01*
X69097715Y-78626101D01*
X69097089Y-78622955D01*
X69094669Y-78610787D01*
X69072457Y-78577543D01*
X69039213Y-78555331D01*
X69009899Y-78549500D01*
X68900063Y-78549500D01*
X68790102Y-78549501D01*
X68784028Y-78550709D01*
X68772960Y-78552910D01*
X68760787Y-78555331D01*
X68750469Y-78562225D01*
X68748214Y-78563159D01*
X68677623Y-78570745D01*
X68651784Y-78563158D01*
X68649530Y-78562225D01*
X68639213Y-78555331D01*
X68609899Y-78549500D01*
X68500063Y-78549500D01*
X68390102Y-78549501D01*
X68384028Y-78550709D01*
X68372961Y-78552910D01*
X68360787Y-78555331D01*
X68327543Y-78577543D01*
X68305331Y-78610787D01*
X68299500Y-78640101D01*
X67900499Y-78640101D01*
X67897715Y-78626101D01*
X67897089Y-78622955D01*
X67894669Y-78610787D01*
X67872457Y-78577543D01*
X67839213Y-78555331D01*
X67809899Y-78549500D01*
X67700063Y-78549500D01*
X67590102Y-78549501D01*
X67584028Y-78550709D01*
X67572960Y-78552910D01*
X67560787Y-78555331D01*
X67550469Y-78562225D01*
X67548214Y-78563159D01*
X67477623Y-78570745D01*
X67451784Y-78563158D01*
X67449530Y-78562225D01*
X67439213Y-78555331D01*
X67409899Y-78549500D01*
X67300063Y-78549500D01*
X67190102Y-78549501D01*
X67184028Y-78550709D01*
X67172961Y-78552910D01*
X67160787Y-78555331D01*
X67127543Y-78577543D01*
X67105331Y-78610787D01*
X67099500Y-78640101D01*
X66700499Y-78640101D01*
X66697715Y-78626101D01*
X66697089Y-78622955D01*
X66694669Y-78610787D01*
X66672457Y-78577543D01*
X66639213Y-78555331D01*
X66609899Y-78549500D01*
X66500063Y-78549500D01*
X66390102Y-78549501D01*
X66384028Y-78550709D01*
X66372960Y-78552910D01*
X66360787Y-78555331D01*
X66350469Y-78562225D01*
X66348214Y-78563159D01*
X66277623Y-78570745D01*
X66251784Y-78563158D01*
X66249530Y-78562225D01*
X66239213Y-78555331D01*
X66209899Y-78549500D01*
X66100063Y-78549500D01*
X65990102Y-78549501D01*
X65984028Y-78550709D01*
X65972961Y-78552910D01*
X65960787Y-78555331D01*
X65927543Y-78577543D01*
X65905331Y-78610787D01*
X65899500Y-78640101D01*
X65500499Y-78640101D01*
X65497715Y-78626101D01*
X65497089Y-78622955D01*
X65494669Y-78610787D01*
X65472457Y-78577543D01*
X65439213Y-78555331D01*
X65409899Y-78549500D01*
X65300063Y-78549500D01*
X65190102Y-78549501D01*
X65184028Y-78550709D01*
X65172960Y-78552910D01*
X65160787Y-78555331D01*
X65150469Y-78562225D01*
X65148214Y-78563159D01*
X65077623Y-78570745D01*
X65051784Y-78563158D01*
X65049530Y-78562225D01*
X65039213Y-78555331D01*
X65009899Y-78549500D01*
X64900063Y-78549500D01*
X64790102Y-78549501D01*
X64784028Y-78550709D01*
X64772961Y-78552910D01*
X64760787Y-78555331D01*
X64727543Y-78577543D01*
X64705331Y-78610787D01*
X64699500Y-78640101D01*
X64300499Y-78640101D01*
X64297715Y-78626101D01*
X64297089Y-78622955D01*
X64294669Y-78610787D01*
X64272457Y-78577543D01*
X64239213Y-78555331D01*
X64209899Y-78549500D01*
X64116067Y-78549500D01*
X64047946Y-78529498D01*
X64001453Y-78475842D01*
X63990067Y-78423184D01*
X63999939Y-74486943D01*
X64009198Y-74439851D01*
X64982118Y-72044035D01*
X65026280Y-71988446D01*
X65042510Y-71978745D01*
X66943651Y-71028175D01*
X67013525Y-71015601D01*
X67056349Y-71028175D01*
G37*
G04 #@! TD.AperFunction*
G04 #@! TD*
G04 #@! TA.AperFunction,Conductor*
G04 #@! TO.N,Net-(D4-Pad1)*
G36*
X77041621Y-115570002D02*
G01*
X77088114Y-115623658D01*
X77099500Y-115676000D01*
X77099501Y-116359898D01*
X77099833Y-116361569D01*
X77100000Y-116364966D01*
X77100000Y-116750000D01*
X85672971Y-116750000D01*
X85741092Y-116770002D01*
X85787585Y-116823658D01*
X85798967Y-116877024D01*
X85750006Y-122899222D01*
X85749981Y-122900878D01*
X85702624Y-125126680D01*
X85681178Y-125194360D01*
X85626545Y-125239701D01*
X85576653Y-125250000D01*
X80969373Y-125250000D01*
X80901252Y-125229998D01*
X80854759Y-125176342D01*
X80843557Y-125130801D01*
X80750154Y-123402855D01*
X80749975Y-123397140D01*
X80745690Y-122900000D01*
X80700000Y-117600000D01*
X76327188Y-117600000D01*
X76324228Y-117599833D01*
X76322781Y-117599500D01*
X76318344Y-117599500D01*
X76312984Y-117599197D01*
X76312901Y-117599188D01*
X76304296Y-117598703D01*
X76277076Y-117595626D01*
X76266398Y-117599355D01*
X76263798Y-117599500D01*
X75453128Y-117599500D01*
X75385007Y-117579498D01*
X75338514Y-117525842D01*
X75328679Y-117453789D01*
X75343567Y-117359792D01*
X75345118Y-117350000D01*
X75326758Y-117234082D01*
X75322257Y-117225248D01*
X75322256Y-117225245D01*
X75286783Y-117155626D01*
X75273477Y-117129511D01*
X75190489Y-117046523D01*
X75126172Y-117013752D01*
X75094755Y-116997744D01*
X75094752Y-116997743D01*
X75085918Y-116993242D01*
X74970000Y-116974882D01*
X74954361Y-116977359D01*
X74883950Y-116968259D01*
X74845555Y-116942005D01*
X74737405Y-116833855D01*
X74703379Y-116771543D01*
X74700500Y-116744760D01*
X74700500Y-115977397D01*
X74700499Y-115977395D01*
X74700499Y-115676000D01*
X74720501Y-115607879D01*
X74774157Y-115561386D01*
X74826499Y-115550000D01*
X76973500Y-115550000D01*
X77041621Y-115570002D01*
G37*
G04 #@! TD.AperFunction*
G04 #@! TD*
G04 #@! TA.AperFunction,Conductor*
G04 #@! TO.N,+3V3*
G36*
X90525772Y-66550167D02*
G01*
X90527219Y-66550500D01*
X90531656Y-66550500D01*
X90537016Y-66550803D01*
X90537096Y-66550812D01*
X90545715Y-66551298D01*
X90558822Y-66552780D01*
X90558823Y-66552780D01*
X90572923Y-66554374D01*
X90583601Y-66550645D01*
X90586193Y-66550500D01*
X91624000Y-66550500D01*
X91692121Y-66570502D01*
X91738614Y-66624158D01*
X91750000Y-66676500D01*
X91750000Y-70399517D01*
X91729998Y-70467638D01*
X91676342Y-70514131D01*
X91624519Y-70525516D01*
X85801519Y-70549479D01*
X85733316Y-70529757D01*
X85686603Y-70476294D01*
X85675000Y-70423480D01*
X85675000Y-68801000D01*
X85695002Y-68732879D01*
X85748658Y-68686386D01*
X85801000Y-68675000D01*
X86550000Y-68675000D01*
X86550000Y-68394898D01*
X86550167Y-68391494D01*
X86550500Y-68389820D01*
X86550500Y-67585180D01*
X86550167Y-67583506D01*
X86550000Y-67580102D01*
X86550000Y-67526000D01*
X86570002Y-67457879D01*
X86623658Y-67411386D01*
X86676000Y-67400000D01*
X86824000Y-67400000D01*
X86892121Y-67420002D01*
X86938614Y-67473658D01*
X86950000Y-67526000D01*
X86950000Y-67580102D01*
X86949833Y-67583506D01*
X86949500Y-67585180D01*
X86949500Y-68389820D01*
X86949833Y-68391494D01*
X86950000Y-68394898D01*
X86950000Y-68675000D01*
X90150000Y-68675000D01*
X90150000Y-68394898D01*
X90150167Y-68391494D01*
X90150500Y-68389820D01*
X90150500Y-67585180D01*
X90150167Y-67583506D01*
X90150000Y-67580102D01*
X90150000Y-66676000D01*
X90170002Y-66607879D01*
X90223658Y-66561386D01*
X90276000Y-66550000D01*
X90522812Y-66550000D01*
X90525772Y-66550167D01*
G37*
G04 #@! TD.AperFunction*
G04 #@! TD*
G04 #@! TA.AperFunction,Conductor*
G04 #@! TO.N,Net-(D1-Pad1)*
G36*
X26913624Y-60567996D02*
G01*
X26913928Y-60567331D01*
X26918551Y-60569442D01*
X26920453Y-60570001D01*
X26929706Y-60575947D01*
X26938355Y-60578487D01*
X26938356Y-60578487D01*
X26993501Y-60594679D01*
X26993504Y-60594680D01*
X26997827Y-60595949D01*
X27002289Y-60596591D01*
X27002291Y-60596591D01*
X27005745Y-60597088D01*
X27026000Y-60600000D01*
X29324000Y-60600000D01*
X29392121Y-60620002D01*
X29438614Y-60673658D01*
X29450000Y-60726000D01*
X29450000Y-61674000D01*
X29429998Y-61742121D01*
X29376342Y-61788614D01*
X29324000Y-61800000D01*
X26550000Y-61800000D01*
X26550000Y-66500000D01*
X28997810Y-66500000D01*
X29065931Y-66520002D01*
X29086905Y-66536905D01*
X30212874Y-67662874D01*
X30246900Y-67725186D01*
X30249778Y-67752501D01*
X30225220Y-73572951D01*
X30204931Y-73640986D01*
X30188112Y-73661717D01*
X25402860Y-78424815D01*
X25039069Y-78786922D01*
X24976678Y-78820802D01*
X24905875Y-78815573D01*
X24849138Y-78772895D01*
X24824482Y-78706317D01*
X24824181Y-78697961D01*
X24810477Y-73640986D01*
X24775342Y-60676340D01*
X24795160Y-60608167D01*
X24848689Y-60561529D01*
X24901342Y-60550000D01*
X26852335Y-60550000D01*
X26913624Y-60567996D01*
G37*
G04 #@! TD.AperFunction*
G04 #@! TD*
G04 #@! TA.AperFunction,Conductor*
G04 #@! TO.N,+3V3*
G36*
X95592121Y-64570502D02*
G01*
X95638614Y-64624158D01*
X95650000Y-64676500D01*
X95650000Y-66224000D01*
X95629998Y-66292121D01*
X95576342Y-66338614D01*
X95524000Y-66350000D01*
X93702365Y-66350000D01*
X93634244Y-66329998D01*
X93613269Y-66313095D01*
X92734006Y-65433831D01*
X92732404Y-65432036D01*
X92727573Y-65421976D01*
X92705953Y-65404686D01*
X92699435Y-65398853D01*
X92697424Y-65397249D01*
X92692417Y-65392242D01*
X92686426Y-65388477D01*
X92683977Y-65386523D01*
X92677378Y-65381833D01*
X92667215Y-65373705D01*
X92667210Y-65373703D01*
X92656133Y-65364844D01*
X92644610Y-65362194D01*
X92634597Y-65355901D01*
X92620500Y-65354307D01*
X92620499Y-65354307D01*
X92615714Y-65353766D01*
X92609237Y-65351719D01*
X92600813Y-65350813D01*
X92600000Y-65350000D01*
X92593248Y-65350000D01*
X92592625Y-65349933D01*
X92590854Y-65349833D01*
X92589406Y-65349500D01*
X92584967Y-65349500D01*
X92579609Y-65349197D01*
X92579526Y-65349188D01*
X92570921Y-65348703D01*
X92543701Y-65345626D01*
X92533023Y-65349355D01*
X92530423Y-65349500D01*
X90785180Y-65349500D01*
X90783506Y-65349833D01*
X90780102Y-65350000D01*
X90226000Y-65350000D01*
X90157879Y-65329998D01*
X90111386Y-65276342D01*
X90100000Y-65224000D01*
X90100000Y-64685741D01*
X90120002Y-64617620D01*
X90136900Y-64596650D01*
X90146140Y-64587409D01*
X90208450Y-64553381D01*
X90235240Y-64550500D01*
X95524000Y-64550500D01*
X95592121Y-64570502D01*
G37*
G04 #@! TD.AperFunction*
G04 #@! TD*
G04 #@! TA.AperFunction,Conductor*
G04 #@! TO.N,+3V3*
G36*
X48162731Y-123420502D02*
G01*
X48189776Y-123443920D01*
X48238439Y-123499999D01*
X48245090Y-123507664D01*
X48249216Y-123511047D01*
X48249220Y-123511051D01*
X48331388Y-123578424D01*
X48428880Y-123658362D01*
X48433516Y-123661001D01*
X48433519Y-123661003D01*
X48470508Y-123682058D01*
X48635433Y-123775939D01*
X48858844Y-123857034D01*
X48864092Y-123857983D01*
X49088641Y-123898588D01*
X49088648Y-123898589D01*
X49092725Y-123899326D01*
X49110991Y-123900187D01*
X49116131Y-123900430D01*
X49116138Y-123900430D01*
X49117619Y-123900500D01*
X49723500Y-123900500D01*
X49791621Y-123920502D01*
X49838114Y-123974158D01*
X49849500Y-124026500D01*
X49849501Y-125131518D01*
X49864354Y-125225304D01*
X49921950Y-125338342D01*
X49963095Y-125379487D01*
X49997121Y-125441799D01*
X50000000Y-125468582D01*
X50000000Y-125531418D01*
X49979998Y-125599539D01*
X49963095Y-125620513D01*
X49921950Y-125661658D01*
X49864354Y-125774696D01*
X49849500Y-125868481D01*
X49849501Y-127131518D01*
X49864354Y-127225304D01*
X49921950Y-127338342D01*
X49963095Y-127379487D01*
X49997121Y-127441799D01*
X50000000Y-127468582D01*
X50000000Y-127531418D01*
X49979998Y-127599539D01*
X49963095Y-127620513D01*
X49921950Y-127661658D01*
X49864354Y-127774696D01*
X49849500Y-127868481D01*
X49849501Y-129131518D01*
X49864354Y-129225304D01*
X49921950Y-129338342D01*
X49963095Y-129379487D01*
X49997121Y-129441799D01*
X50000000Y-129468582D01*
X50000000Y-129531418D01*
X49979998Y-129599539D01*
X49963095Y-129620513D01*
X49921950Y-129661658D01*
X49864354Y-129774696D01*
X49849500Y-129868481D01*
X49849501Y-131131518D01*
X49864354Y-131225304D01*
X49921950Y-131338342D01*
X49963095Y-131379487D01*
X49997121Y-131441799D01*
X50000000Y-131468582D01*
X50000000Y-131531418D01*
X49979998Y-131599539D01*
X49963095Y-131620513D01*
X49921950Y-131661658D01*
X49864354Y-131774696D01*
X49862804Y-131784485D01*
X49862803Y-131784487D01*
X49860642Y-131798135D01*
X49849500Y-131868481D01*
X49849501Y-133131518D01*
X49850276Y-133136409D01*
X49850276Y-133136412D01*
X49859280Y-133193263D01*
X49864354Y-133225304D01*
X49921950Y-133338342D01*
X49963095Y-133379487D01*
X49997121Y-133441799D01*
X50000000Y-133468582D01*
X50000000Y-133531418D01*
X49979998Y-133599539D01*
X49963095Y-133620513D01*
X49921950Y-133661658D01*
X49864354Y-133774696D01*
X49849500Y-133868481D01*
X49849500Y-133873434D01*
X49849501Y-134823500D01*
X49829499Y-134891621D01*
X49775843Y-134938114D01*
X49723501Y-134949500D01*
X48684504Y-134949500D01*
X48616383Y-134929498D01*
X48595409Y-134912595D01*
X45878534Y-132195720D01*
X45871068Y-132186376D01*
X45870678Y-132186708D01*
X45864860Y-132179872D01*
X45860070Y-132172280D01*
X45820399Y-132137244D01*
X45814712Y-132131898D01*
X45803494Y-132120680D01*
X45799905Y-132117990D01*
X45795316Y-132114550D01*
X45787477Y-132108168D01*
X45759339Y-132083318D01*
X45752612Y-132077377D01*
X45744489Y-132073563D01*
X45741336Y-132071492D01*
X45728324Y-132063673D01*
X45725005Y-132061856D01*
X45717824Y-132056474D01*
X45674261Y-132040143D01*
X45664947Y-132036217D01*
X45630966Y-132020263D01*
X45630963Y-132020262D01*
X45622837Y-132016447D01*
X45613963Y-132015065D01*
X45610350Y-132013961D01*
X45595693Y-132010115D01*
X45591990Y-132009301D01*
X45583580Y-132006148D01*
X45537157Y-132002698D01*
X45527144Y-132001548D01*
X45513991Y-131999500D01*
X45498796Y-131999500D01*
X45489459Y-131999154D01*
X45474036Y-131998008D01*
X45440608Y-131995524D01*
X45431832Y-131997397D01*
X45422875Y-131998008D01*
X45422875Y-131998002D01*
X45408682Y-131999500D01*
X38776499Y-131999500D01*
X38708378Y-131979498D01*
X38661885Y-131925842D01*
X38651546Y-131878315D01*
X38650887Y-131878367D01*
X38650507Y-131873536D01*
X38650499Y-131873500D01*
X38650499Y-131868482D01*
X38642461Y-131817729D01*
X38637198Y-131784494D01*
X38637197Y-131784492D01*
X38635646Y-131774696D01*
X38578050Y-131661658D01*
X38488342Y-131571950D01*
X38375304Y-131514354D01*
X38365515Y-131512804D01*
X38365513Y-131512803D01*
X38338151Y-131508470D01*
X38281519Y-131499500D01*
X36750310Y-131499500D01*
X35218482Y-131499501D01*
X35213589Y-131500276D01*
X35213588Y-131500276D01*
X35134494Y-131512802D01*
X35134492Y-131512803D01*
X35124696Y-131514354D01*
X35011658Y-131571950D01*
X34921950Y-131661658D01*
X34864354Y-131774696D01*
X34862804Y-131784485D01*
X34862803Y-131784487D01*
X34860642Y-131798135D01*
X34849500Y-131868481D01*
X34849501Y-133131518D01*
X34850276Y-133136409D01*
X34850276Y-133136412D01*
X34859280Y-133193263D01*
X34864354Y-133225304D01*
X34921950Y-133338342D01*
X34994513Y-133410905D01*
X35028539Y-133473217D01*
X35023474Y-133544032D01*
X34994513Y-133589095D01*
X34921950Y-133661658D01*
X34864354Y-133774696D01*
X34849500Y-133868481D01*
X34849501Y-135131518D01*
X34864354Y-135225304D01*
X34921950Y-135338342D01*
X34994513Y-135410905D01*
X35028539Y-135473217D01*
X35023474Y-135544032D01*
X34994513Y-135589095D01*
X34921950Y-135661658D01*
X34864354Y-135774696D01*
X34849500Y-135868481D01*
X34849501Y-136484117D01*
X34849501Y-136998500D01*
X34829499Y-137066621D01*
X34775843Y-137113114D01*
X34723501Y-137124500D01*
X29227829Y-137124500D01*
X29159708Y-137104498D01*
X29135877Y-137084644D01*
X27334121Y-135161421D01*
X27302145Y-135098033D01*
X27300073Y-135075093D01*
X27303871Y-132477612D01*
X30595781Y-132477612D01*
X30605687Y-132666646D01*
X30654680Y-132849488D01*
X30657673Y-132855361D01*
X30657674Y-132855365D01*
X30737426Y-133011886D01*
X30740617Y-133018149D01*
X30744774Y-133023282D01*
X30816513Y-133111873D01*
X30820519Y-133117093D01*
X30839612Y-133143371D01*
X30844514Y-133147784D01*
X30844515Y-133147786D01*
X30889979Y-133188722D01*
X30894763Y-133193263D01*
X30909120Y-133207620D01*
X30911680Y-133209693D01*
X30911681Y-133209694D01*
X30924911Y-133220408D01*
X30929921Y-133224688D01*
X30975374Y-133265613D01*
X30975379Y-133265617D01*
X30980284Y-133270033D01*
X30986000Y-133273333D01*
X30992286Y-133276962D01*
X31008583Y-133288163D01*
X31019351Y-133296883D01*
X31025239Y-133299883D01*
X31079734Y-133327651D01*
X31085529Y-133330797D01*
X31138500Y-133361379D01*
X31144216Y-133364679D01*
X31156047Y-133368523D01*
X31157403Y-133368964D01*
X31175660Y-133376527D01*
X31182129Y-133379823D01*
X31182133Y-133379824D01*
X31188012Y-133382820D01*
X31194382Y-133384527D01*
X31194385Y-133384528D01*
X31253472Y-133400360D01*
X31259798Y-133402234D01*
X31286462Y-133410897D01*
X31324244Y-133423174D01*
X31330811Y-133423864D01*
X31330815Y-133423865D01*
X31336819Y-133424496D01*
X31338023Y-133424622D01*
X31357464Y-133428225D01*
X31370855Y-133431813D01*
X31414575Y-133434104D01*
X31438520Y-133435359D01*
X31445095Y-133435876D01*
X31462034Y-133437656D01*
X31462037Y-133437656D01*
X31465308Y-133438000D01*
X31485627Y-133438000D01*
X31492221Y-133438173D01*
X31553296Y-133441374D01*
X31553300Y-133441374D01*
X31559888Y-133441719D01*
X31573577Y-133439551D01*
X31593287Y-133438000D01*
X31914619Y-133438000D01*
X31978758Y-133455546D01*
X32014602Y-133476744D01*
X32022214Y-133478955D01*
X32022215Y-133478956D01*
X32094645Y-133499999D01*
X32172431Y-133522598D01*
X32185584Y-133523633D01*
X32206847Y-133525307D01*
X32206860Y-133525308D01*
X32209306Y-133525500D01*
X33290694Y-133525500D01*
X33293140Y-133525308D01*
X33293153Y-133525307D01*
X33314416Y-133523633D01*
X33327569Y-133522598D01*
X33405355Y-133499999D01*
X33477785Y-133478956D01*
X33477786Y-133478955D01*
X33485398Y-133476744D01*
X33520529Y-133455968D01*
X33620044Y-133397115D01*
X33626865Y-133393081D01*
X33743081Y-133276865D01*
X33747115Y-133270044D01*
X33822709Y-133142221D01*
X33822709Y-133142220D01*
X33826744Y-133135398D01*
X33830720Y-133121715D01*
X33870801Y-132983754D01*
X33872598Y-132977569D01*
X33873633Y-132964416D01*
X33875307Y-132943153D01*
X33875308Y-132943140D01*
X33875500Y-132940694D01*
X33875500Y-132134306D01*
X33875308Y-132131860D01*
X33875307Y-132131847D01*
X33873103Y-132103850D01*
X33872598Y-132097431D01*
X33849070Y-132016447D01*
X33828956Y-131947215D01*
X33828955Y-131947214D01*
X33826744Y-131939602D01*
X33743081Y-131798135D01*
X33626865Y-131681919D01*
X33607541Y-131670491D01*
X33492221Y-131602291D01*
X33492220Y-131602291D01*
X33485398Y-131598256D01*
X33477786Y-131596045D01*
X33477785Y-131596044D01*
X33333754Y-131554199D01*
X33333755Y-131554199D01*
X33327569Y-131552402D01*
X33314416Y-131551367D01*
X33293153Y-131549693D01*
X33293140Y-131549692D01*
X33290694Y-131549500D01*
X32209306Y-131549500D01*
X32206860Y-131549692D01*
X32206847Y-131549693D01*
X32185584Y-131551367D01*
X32172431Y-131552402D01*
X32166245Y-131554199D01*
X32166246Y-131554199D01*
X32022215Y-131596044D01*
X32022214Y-131596045D01*
X32014602Y-131598256D01*
X32007780Y-131602291D01*
X32007779Y-131602291D01*
X31978758Y-131619454D01*
X31914619Y-131637000D01*
X31681797Y-131637000D01*
X31654553Y-131633413D01*
X31654551Y-131633429D01*
X31653958Y-131633335D01*
X31649187Y-131632707D01*
X31648024Y-131632396D01*
X31641646Y-131630687D01*
X31542212Y-131625476D01*
X31459204Y-131621126D01*
X31459200Y-131621126D01*
X31452612Y-131620781D01*
X31446097Y-131621813D01*
X31446095Y-131621813D01*
X31272171Y-131649360D01*
X31272169Y-131649360D01*
X31265650Y-131650393D01*
X31259485Y-131652759D01*
X31259483Y-131652760D01*
X31194030Y-131677885D01*
X31088930Y-131718229D01*
X30930175Y-131821326D01*
X30796326Y-131955175D01*
X30693229Y-132113930D01*
X30625393Y-132290650D01*
X30595781Y-132477612D01*
X27303871Y-132477612D01*
X27313888Y-125625816D01*
X27333990Y-125557724D01*
X27387713Y-125511310D01*
X27439888Y-125500000D01*
X34798705Y-125500000D01*
X34866826Y-125520002D01*
X34913319Y-125573658D01*
X34923423Y-125643932D01*
X34910972Y-125683203D01*
X34864354Y-125774696D01*
X34849500Y-125868481D01*
X34849501Y-127131518D01*
X34864354Y-127225304D01*
X34921950Y-127338342D01*
X34994513Y-127410905D01*
X35028539Y-127473217D01*
X35023474Y-127544032D01*
X34994513Y-127589095D01*
X34921950Y-127661658D01*
X34864354Y-127774696D01*
X34849500Y-127868481D01*
X34849501Y-129131518D01*
X34864354Y-129225304D01*
X34921950Y-129338342D01*
X35011658Y-129428050D01*
X35124696Y-129485646D01*
X35134485Y-129487196D01*
X35134487Y-129487197D01*
X35161849Y-129491530D01*
X35218481Y-129500500D01*
X36749690Y-129500500D01*
X38281518Y-129500499D01*
X38286412Y-129499724D01*
X38365506Y-129487198D01*
X38365508Y-129487197D01*
X38375304Y-129485646D01*
X38488342Y-129428050D01*
X38578050Y-129338342D01*
X38635646Y-129225304D01*
X38650500Y-129131519D01*
X38650499Y-127868482D01*
X38635646Y-127774696D01*
X38578050Y-127661658D01*
X38505487Y-127589095D01*
X38471461Y-127526783D01*
X38476526Y-127455968D01*
X38505487Y-127410905D01*
X38578050Y-127338342D01*
X38635646Y-127225304D01*
X38650500Y-127131519D01*
X38650499Y-125868482D01*
X38635646Y-125774696D01*
X38589028Y-125683203D01*
X38575924Y-125613426D01*
X38602624Y-125547641D01*
X38660652Y-125506735D01*
X38701295Y-125500000D01*
X39000000Y-125500000D01*
X40500000Y-124000000D01*
X40500000Y-123763255D01*
X40504161Y-123734024D01*
X40504636Y-123732926D01*
X40505876Y-123725100D01*
X40505877Y-123725095D01*
X40511765Y-123687924D01*
X40514171Y-123676304D01*
X40523528Y-123639858D01*
X40523528Y-123639857D01*
X40525500Y-123632177D01*
X40525500Y-123611116D01*
X40527051Y-123591405D01*
X40529107Y-123578424D01*
X40530347Y-123570595D01*
X40529601Y-123562702D01*
X40527300Y-123538357D01*
X40540803Y-123468656D01*
X40589846Y-123417320D01*
X40652741Y-123400500D01*
X48094610Y-123400500D01*
X48162731Y-123420502D01*
G37*
G04 #@! TD.AperFunction*
G04 #@! TD*
G04 #@! TA.AperFunction,Conductor*
G04 #@! TO.N,+1V8*
G36*
X78542121Y-110270002D02*
G01*
X78588614Y-110323658D01*
X78600000Y-110376000D01*
X78600000Y-112324000D01*
X78579998Y-112392121D01*
X78526342Y-112438614D01*
X78474000Y-112450000D01*
X77500000Y-112450000D01*
X77500000Y-112555023D01*
X77499833Y-112558427D01*
X77499500Y-112560101D01*
X77499500Y-112565210D01*
X77499501Y-113224000D01*
X77479499Y-113292121D01*
X77425843Y-113338614D01*
X77373501Y-113350000D01*
X76901000Y-113350000D01*
X76832879Y-113329998D01*
X76786386Y-113276342D01*
X76775000Y-113224000D01*
X76775000Y-110376000D01*
X76795002Y-110307879D01*
X76848658Y-110261386D01*
X76901000Y-110250000D01*
X78474000Y-110250000D01*
X78542121Y-110270002D01*
G37*
G04 #@! TD.AperFunction*
G04 #@! TD*
G04 #@! TA.AperFunction,Conductor*
G04 #@! TO.N,GND*
G36*
X109442121Y-73520002D02*
G01*
X109488614Y-73573658D01*
X109500000Y-73626000D01*
X109500000Y-141374000D01*
X109479998Y-141442121D01*
X109426342Y-141488614D01*
X109374000Y-141500000D01*
X105548645Y-141500000D01*
X105529283Y-141498503D01*
X105514957Y-141496275D01*
X105506083Y-141494895D01*
X105497180Y-141496061D01*
X105488204Y-141495953D01*
X105488212Y-141495326D01*
X105467124Y-141495149D01*
X105427850Y-141489339D01*
X105392517Y-141478645D01*
X105343506Y-141455515D01*
X105312792Y-141435039D01*
X105272592Y-141398697D01*
X105249129Y-141370193D01*
X105229459Y-141337503D01*
X105220729Y-141319972D01*
X105218656Y-141311507D01*
X105214162Y-141303742D01*
X105214160Y-141303737D01*
X105192024Y-141265491D01*
X105188378Y-141258724D01*
X104729926Y-140341818D01*
X104722444Y-140323322D01*
X104722024Y-140321988D01*
X104720924Y-140317247D01*
X104716319Y-140305795D01*
X104713835Y-140301622D01*
X104713830Y-140301611D01*
X104706403Y-140289133D01*
X104702235Y-140281548D01*
X104629682Y-140138058D01*
X104629681Y-140138056D01*
X104627587Y-140133915D01*
X104516029Y-139976048D01*
X104382544Y-139836230D01*
X104230015Y-139717478D01*
X104225988Y-139715202D01*
X104225984Y-139715199D01*
X104137325Y-139665084D01*
X104061732Y-139622355D01*
X104057404Y-139620689D01*
X103885655Y-139554580D01*
X103885653Y-139554579D01*
X103881329Y-139552915D01*
X103818844Y-139538916D01*
X103697218Y-139511668D01*
X103697213Y-139511667D01*
X103692699Y-139510656D01*
X103543376Y-139499684D01*
X103531743Y-139498283D01*
X103512254Y-139495007D01*
X103507389Y-139494948D01*
X103507386Y-139494948D01*
X103506205Y-139494934D01*
X103499912Y-139494858D01*
X103472950Y-139498724D01*
X103455067Y-139500000D01*
X89552535Y-139500000D01*
X89531631Y-139498254D01*
X89517140Y-139495816D01*
X89517139Y-139495816D01*
X89512343Y-139495009D01*
X89506119Y-139494933D01*
X89504860Y-139494917D01*
X89504854Y-139494917D01*
X89500001Y-139494858D01*
X89480817Y-139497605D01*
X89472249Y-139498533D01*
X89307242Y-139510683D01*
X89302713Y-139511698D01*
X89302714Y-139511698D01*
X89123164Y-139551943D01*
X89123162Y-139551944D01*
X89118641Y-139552957D01*
X89010035Y-139594770D01*
X88942591Y-139620735D01*
X88942588Y-139620737D01*
X88938267Y-139622400D01*
X88821656Y-139688318D01*
X88774103Y-139715199D01*
X88770009Y-139717513D01*
X88766355Y-139720358D01*
X88621147Y-139833404D01*
X88621144Y-139833407D01*
X88617497Y-139836246D01*
X88484021Y-139976037D01*
X88481351Y-139979815D01*
X88481349Y-139979817D01*
X88375134Y-140130089D01*
X88372461Y-140133871D01*
X88370373Y-140138000D01*
X88370367Y-140138009D01*
X88304885Y-140267464D01*
X88299111Y-140277671D01*
X88288601Y-140294380D01*
X88283715Y-140305715D01*
X88282500Y-140310425D01*
X88282496Y-140310435D01*
X88282342Y-140311030D01*
X88281755Y-140312597D01*
X88280921Y-140315035D01*
X88280852Y-140315011D01*
X88273040Y-140335885D01*
X87893792Y-141094381D01*
X87845437Y-141146365D01*
X87776654Y-141163954D01*
X87709280Y-141141563D01*
X87664707Y-141086303D01*
X87655096Y-141037347D01*
X87683565Y-135799126D01*
X90545541Y-135799126D01*
X90575935Y-136000097D01*
X90646119Y-136190852D01*
X90649479Y-136196272D01*
X90649480Y-136196273D01*
X90749863Y-136358176D01*
X90749866Y-136358180D01*
X90753226Y-136363599D01*
X90892881Y-136511280D01*
X91059379Y-136627863D01*
X91245919Y-136708586D01*
X91291947Y-136718202D01*
X91440144Y-136749162D01*
X91440149Y-136749163D01*
X91444880Y-136750151D01*
X91449762Y-136750407D01*
X91449871Y-136750413D01*
X91449887Y-136750413D01*
X91451539Y-136750500D01*
X91600800Y-136750500D01*
X91648793Y-136745625D01*
X91745868Y-136735765D01*
X91745870Y-136735765D01*
X91752216Y-136735120D01*
X91946172Y-136674338D01*
X92123944Y-136575797D01*
X92278271Y-136443523D01*
X92402848Y-136282919D01*
X92492587Y-136100545D01*
X92494467Y-136093327D01*
X92542212Y-135910034D01*
X92542212Y-135910031D01*
X92543822Y-135903852D01*
X92550821Y-135770303D01*
X92551885Y-135750001D01*
X98194858Y-135750001D01*
X98197768Y-135770321D01*
X98198558Y-135777182D01*
X98211431Y-135924312D01*
X98256718Y-136093327D01*
X98259040Y-136098307D01*
X98259041Y-136098309D01*
X98328341Y-136246923D01*
X98328344Y-136246928D01*
X98330667Y-136251910D01*
X98333823Y-136256417D01*
X98333824Y-136256419D01*
X98408873Y-136363599D01*
X98431030Y-136395243D01*
X98554757Y-136518970D01*
X98559265Y-136522127D01*
X98559268Y-136522129D01*
X98635914Y-136575797D01*
X98698090Y-136619333D01*
X98703072Y-136621656D01*
X98703077Y-136621659D01*
X98851691Y-136690959D01*
X98856673Y-136693282D01*
X98861981Y-136694704D01*
X98861983Y-136694705D01*
X99020373Y-136737145D01*
X99020374Y-136737145D01*
X99025688Y-136738569D01*
X99031174Y-136739049D01*
X99031180Y-136739050D01*
X99154795Y-136749866D01*
X99164717Y-136751132D01*
X99182859Y-136754184D01*
X99182862Y-136754184D01*
X99187657Y-136754991D01*
X99193846Y-136755067D01*
X99195140Y-136755083D01*
X99195146Y-136755083D01*
X99199999Y-136755142D01*
X99227015Y-136751273D01*
X99244877Y-136750000D01*
X99438705Y-136750000D01*
X99445300Y-136750173D01*
X99449871Y-136750413D01*
X99449887Y-136750413D01*
X99451539Y-136750500D01*
X99600800Y-136750500D01*
X99603978Y-136750177D01*
X99604297Y-136750161D01*
X99610671Y-136750000D01*
X99847467Y-136750000D01*
X99868371Y-136751746D01*
X99887659Y-136754991D01*
X99900001Y-136755142D01*
X99920321Y-136752232D01*
X99927182Y-136751442D01*
X100005851Y-136744559D01*
X100074312Y-136738569D01*
X100195676Y-136706050D01*
X100238017Y-136694705D01*
X100238019Y-136694704D01*
X100243327Y-136693282D01*
X100248309Y-136690959D01*
X100396923Y-136621659D01*
X100396928Y-136621656D01*
X100401910Y-136619333D01*
X100464086Y-136575797D01*
X100540732Y-136522129D01*
X100540735Y-136522127D01*
X100545243Y-136518970D01*
X100668970Y-136395243D01*
X100691128Y-136363599D01*
X100766176Y-136256419D01*
X100766177Y-136256417D01*
X100769333Y-136251910D01*
X100771656Y-136246928D01*
X100771659Y-136246923D01*
X100840959Y-136098309D01*
X100840960Y-136098307D01*
X100843282Y-136093327D01*
X100888569Y-135924312D01*
X100889049Y-135918824D01*
X100889050Y-135918820D01*
X100899866Y-135795205D01*
X100901132Y-135785283D01*
X100904184Y-135767141D01*
X100904184Y-135767138D01*
X100904991Y-135762343D01*
X100905142Y-135750001D01*
X100904072Y-135742523D01*
X100903375Y-135737659D01*
X100903371Y-135737628D01*
X100902235Y-135729700D01*
X100901445Y-135722858D01*
X100888569Y-135575688D01*
X100843282Y-135406673D01*
X100797805Y-135309148D01*
X100771659Y-135253077D01*
X100771656Y-135253072D01*
X100769333Y-135248090D01*
X100694925Y-135141824D01*
X100672129Y-135109268D01*
X100672127Y-135109265D01*
X100668970Y-135104757D01*
X100545243Y-134981030D01*
X100540735Y-134977873D01*
X100540732Y-134977871D01*
X100406419Y-134883824D01*
X100406417Y-134883823D01*
X100401910Y-134880667D01*
X100396928Y-134878344D01*
X100396923Y-134878341D01*
X100248309Y-134809041D01*
X100248307Y-134809040D01*
X100243327Y-134806718D01*
X100238019Y-134805296D01*
X100238017Y-134805295D01*
X100079627Y-134762855D01*
X100079626Y-134762855D01*
X100074312Y-134761431D01*
X100068826Y-134760951D01*
X100068820Y-134760950D01*
X99945205Y-134750134D01*
X99935283Y-134748868D01*
X99917141Y-134745816D01*
X99917138Y-134745816D01*
X99912343Y-134745009D01*
X99906154Y-134744933D01*
X99904860Y-134744917D01*
X99904854Y-134744917D01*
X99900001Y-134744858D01*
X99876288Y-134748254D01*
X99872985Y-134748727D01*
X99855123Y-134750000D01*
X99661295Y-134750000D01*
X99654700Y-134749827D01*
X99650129Y-134749587D01*
X99650113Y-134749587D01*
X99648461Y-134749500D01*
X99499200Y-134749500D01*
X99496022Y-134749823D01*
X99495703Y-134749839D01*
X99489329Y-134750000D01*
X99252533Y-134750000D01*
X99231629Y-134748254D01*
X99217138Y-134745816D01*
X99217137Y-134745816D01*
X99212341Y-134745009D01*
X99199999Y-134744858D01*
X99179679Y-134747768D01*
X99172818Y-134748558D01*
X99094149Y-134755441D01*
X99025688Y-134761431D01*
X98922633Y-134789044D01*
X98861983Y-134805295D01*
X98861981Y-134805296D01*
X98856673Y-134806718D01*
X98851693Y-134809040D01*
X98851691Y-134809041D01*
X98703077Y-134878341D01*
X98703072Y-134878344D01*
X98698090Y-134880667D01*
X98693583Y-134883823D01*
X98693581Y-134883824D01*
X98559268Y-134977871D01*
X98559265Y-134977873D01*
X98554757Y-134981030D01*
X98431030Y-135104757D01*
X98427873Y-135109265D01*
X98427871Y-135109268D01*
X98405075Y-135141824D01*
X98330667Y-135248090D01*
X98328344Y-135253072D01*
X98328341Y-135253077D01*
X98302195Y-135309148D01*
X98256718Y-135406673D01*
X98211431Y-135575688D01*
X98210951Y-135581174D01*
X98210950Y-135581180D01*
X98200133Y-135704805D01*
X98198867Y-135714724D01*
X98196348Y-135729700D01*
X98195484Y-135734838D01*
X98195009Y-135737659D01*
X98194858Y-135750001D01*
X92551885Y-135750001D01*
X92554125Y-135707256D01*
X92554125Y-135707252D01*
X92554459Y-135700874D01*
X92524065Y-135499903D01*
X92453881Y-135309148D01*
X92400345Y-135222802D01*
X92350137Y-135141824D01*
X92350134Y-135141820D01*
X92346774Y-135136401D01*
X92207119Y-134988720D01*
X92040621Y-134872137D01*
X91854081Y-134791414D01*
X91808053Y-134781798D01*
X91659856Y-134750838D01*
X91659851Y-134750837D01*
X91655120Y-134749849D01*
X91650238Y-134749593D01*
X91650129Y-134749587D01*
X91650113Y-134749587D01*
X91648461Y-134749500D01*
X91499200Y-134749500D01*
X91451207Y-134754375D01*
X91354132Y-134764235D01*
X91354130Y-134764235D01*
X91347784Y-134764880D01*
X91153828Y-134825662D01*
X90976056Y-134924203D01*
X90821729Y-135056477D01*
X90697152Y-135217081D01*
X90607413Y-135399455D01*
X90605804Y-135405633D01*
X90605803Y-135405635D01*
X90579603Y-135506220D01*
X90556178Y-135596148D01*
X90555844Y-135602527D01*
X90546008Y-135790218D01*
X90545541Y-135799126D01*
X87683565Y-135799126D01*
X87722007Y-128725815D01*
X87742379Y-128657804D01*
X87796286Y-128611604D01*
X87848005Y-128600500D01*
X94383830Y-128600500D01*
X94387349Y-128600549D01*
X94467271Y-128602782D01*
X94467274Y-128602782D01*
X94473653Y-128602960D01*
X94479938Y-128601852D01*
X94479948Y-128601851D01*
X94533066Y-128592484D01*
X94542208Y-128591215D01*
X94602216Y-128585120D01*
X94629693Y-128576509D01*
X94645479Y-128572662D01*
X94650002Y-128571864D01*
X94667535Y-128568773D01*
X94667541Y-128568771D01*
X94673821Y-128567664D01*
X94729898Y-128545462D01*
X94738601Y-128542380D01*
X94790085Y-128526246D01*
X94790089Y-128526244D01*
X94796172Y-128524338D01*
X94821342Y-128510385D01*
X94836049Y-128503433D01*
X94837303Y-128502937D01*
X94862805Y-128492840D01*
X94913277Y-128459812D01*
X94921181Y-128455044D01*
X94968363Y-128428891D01*
X94968366Y-128428889D01*
X94973944Y-128425797D01*
X94995797Y-128407067D01*
X95008800Y-128397304D01*
X95028835Y-128384193D01*
X95032882Y-128381545D01*
X95036475Y-128378310D01*
X95036479Y-128378307D01*
X95036604Y-128378194D01*
X95037838Y-128377083D01*
X95076743Y-128338178D01*
X95083840Y-128331605D01*
X95123424Y-128297677D01*
X95128271Y-128293523D01*
X95147184Y-128269141D01*
X95157648Y-128257273D01*
X95160462Y-128254459D01*
X96146014Y-127268906D01*
X96148536Y-127266453D01*
X96206639Y-127211508D01*
X96206640Y-127211507D01*
X96211280Y-127207119D01*
X96245880Y-127157705D01*
X96251450Y-127150340D01*
X96285541Y-127108541D01*
X96285542Y-127108539D01*
X96289573Y-127103597D01*
X96292528Y-127097945D01*
X96292531Y-127097940D01*
X96302908Y-127078090D01*
X96311358Y-127064192D01*
X96324202Y-127045849D01*
X96327863Y-127040621D01*
X96330395Y-127034770D01*
X96330401Y-127034759D01*
X96351819Y-126985264D01*
X96355795Y-126976928D01*
X96380785Y-126929128D01*
X96380788Y-126929120D01*
X96383742Y-126923470D01*
X96391677Y-126895796D01*
X96397158Y-126880489D01*
X96406052Y-126859936D01*
X96408586Y-126854081D01*
X96409890Y-126847837D01*
X96409892Y-126847832D01*
X96420920Y-126795040D01*
X96423138Y-126786076D01*
X96438007Y-126734220D01*
X96439766Y-126728087D01*
X96441974Y-126699388D01*
X96444265Y-126683295D01*
X96450151Y-126655120D01*
X96450500Y-126648461D01*
X96450500Y-126593435D01*
X96450871Y-126583768D01*
X96454871Y-126531789D01*
X96454871Y-126531785D01*
X96455360Y-126525429D01*
X96451494Y-126494827D01*
X96450500Y-126479035D01*
X96450500Y-126276500D01*
X96470502Y-126208379D01*
X96524158Y-126161886D01*
X96576500Y-126150500D01*
X96934253Y-126150499D01*
X96947376Y-126150499D01*
X96950770Y-126150130D01*
X96950776Y-126150130D01*
X97000722Y-126144705D01*
X97000726Y-126144704D01*
X97008580Y-126143851D01*
X97055772Y-126126160D01*
X97126578Y-126120977D01*
X97144225Y-126126159D01*
X97168709Y-126135337D01*
X97184025Y-126141079D01*
X97184026Y-126141079D01*
X97191420Y-126143851D01*
X97199270Y-126144704D01*
X97199271Y-126144704D01*
X97249217Y-126150130D01*
X97252623Y-126150500D01*
X97649941Y-126150500D01*
X98047376Y-126150499D01*
X98050770Y-126150130D01*
X98050776Y-126150130D01*
X98100722Y-126144705D01*
X98100726Y-126144704D01*
X98108580Y-126143851D01*
X98155772Y-126126160D01*
X98226578Y-126120977D01*
X98244225Y-126126159D01*
X98268709Y-126135337D01*
X98284025Y-126141079D01*
X98284026Y-126141079D01*
X98291420Y-126143851D01*
X98299270Y-126144704D01*
X98299271Y-126144704D01*
X98349217Y-126150130D01*
X98352623Y-126150500D01*
X98749941Y-126150500D01*
X99147376Y-126150499D01*
X99150770Y-126150130D01*
X99150776Y-126150130D01*
X99200722Y-126144705D01*
X99200726Y-126144704D01*
X99208580Y-126143851D01*
X99342824Y-126093526D01*
X99350003Y-126088146D01*
X99350006Y-126088144D01*
X99450365Y-126012928D01*
X99457546Y-126007546D01*
X99529435Y-125911626D01*
X99538144Y-125900006D01*
X99538146Y-125900003D01*
X99543526Y-125892824D01*
X99593851Y-125758580D01*
X99600500Y-125697377D01*
X99600499Y-124625998D01*
X99620501Y-124557879D01*
X99674157Y-124511386D01*
X99726499Y-124500000D01*
X106000000Y-124500000D01*
X106000000Y-111500000D01*
X105981748Y-111492699D01*
X103579205Y-110531682D01*
X103523385Y-110487811D01*
X103500000Y-110414694D01*
X103500000Y-103585306D01*
X103520002Y-103517185D01*
X103579205Y-103468318D01*
X106000000Y-102500000D01*
X106000000Y-95000000D01*
X103263351Y-92648927D01*
X103224717Y-92589367D01*
X103222124Y-92527590D01*
X103226661Y-92505870D01*
X103226662Y-92505865D01*
X103227651Y-92501129D01*
X103228000Y-92494470D01*
X103228000Y-92439457D01*
X103228371Y-92429790D01*
X103232372Y-92377798D01*
X103232372Y-92377794D01*
X103232861Y-92371438D01*
X103228994Y-92340828D01*
X103228000Y-92325036D01*
X103228000Y-91930189D01*
X103234407Y-91890522D01*
X103252921Y-91834703D01*
X103255086Y-91828176D01*
X103265500Y-91726535D01*
X103265499Y-91153466D01*
X103254822Y-91050555D01*
X103234476Y-90989571D01*
X103228000Y-90949695D01*
X103228000Y-89906185D01*
X103228049Y-89902667D01*
X103230282Y-89822730D01*
X103230282Y-89822727D01*
X103230460Y-89816347D01*
X103219984Y-89756933D01*
X103218715Y-89747787D01*
X103213265Y-89694133D01*
X103213265Y-89694132D01*
X103212620Y-89687784D01*
X103204013Y-89660320D01*
X103200164Y-89644529D01*
X103196273Y-89622460D01*
X103196272Y-89622455D01*
X103195165Y-89616179D01*
X103186848Y-89595172D01*
X103178000Y-89548789D01*
X103178000Y-88910682D01*
X103198002Y-88842561D01*
X103223337Y-88813886D01*
X105986083Y-86511598D01*
X105986084Y-86511597D01*
X106000000Y-86500000D01*
X106000000Y-73626000D01*
X106020002Y-73557879D01*
X106073658Y-73511386D01*
X106126000Y-73500000D01*
X109374000Y-73500000D01*
X109442121Y-73520002D01*
G37*
G04 #@! TD.AperFunction*
G04 #@! TD*
G04 #@! TA.AperFunction,Conductor*
G04 #@! TO.N,+3V3*
G36*
X76542121Y-110270002D02*
G01*
X76588614Y-110323658D01*
X76600000Y-110376000D01*
X76600000Y-113224000D01*
X76579998Y-113292121D01*
X76526342Y-113338614D01*
X76474000Y-113350000D01*
X76026500Y-113350000D01*
X75958379Y-113329998D01*
X75911886Y-113276342D01*
X75900500Y-113224000D01*
X75900499Y-112566295D01*
X75900499Y-112560102D01*
X75897732Y-112546190D01*
X75897089Y-112542955D01*
X75894669Y-112530787D01*
X75872457Y-112497543D01*
X75839213Y-112475331D01*
X75809899Y-112469500D01*
X75700063Y-112469500D01*
X75590102Y-112469501D01*
X75584028Y-112470709D01*
X75572960Y-112472910D01*
X75560787Y-112475331D01*
X75550469Y-112482225D01*
X75548214Y-112483159D01*
X75477623Y-112490745D01*
X75451784Y-112483158D01*
X75449530Y-112482225D01*
X75439213Y-112475331D01*
X75409899Y-112469500D01*
X75300063Y-112469500D01*
X75190102Y-112469501D01*
X75184028Y-112470709D01*
X75172961Y-112472910D01*
X75160787Y-112475331D01*
X75127543Y-112497543D01*
X75105331Y-112530787D01*
X75099500Y-112560101D01*
X75099500Y-112566288D01*
X75099501Y-113224000D01*
X75079499Y-113292121D01*
X75025843Y-113338614D01*
X74973501Y-113350000D01*
X74826500Y-113350000D01*
X74758379Y-113329998D01*
X74711886Y-113276342D01*
X74700500Y-113224000D01*
X74700499Y-112566295D01*
X74700499Y-112560102D01*
X74697732Y-112546190D01*
X74697089Y-112542955D01*
X74694669Y-112530787D01*
X74672457Y-112497543D01*
X74639213Y-112475331D01*
X74627042Y-112472910D01*
X74615974Y-112470708D01*
X74615970Y-112470708D01*
X74609899Y-112469500D01*
X74609998Y-112469004D01*
X74547821Y-112443899D01*
X74506809Y-112385946D01*
X74500000Y-112345086D01*
X74500000Y-110376000D01*
X74520002Y-110307879D01*
X74573658Y-110261386D01*
X74626000Y-110250000D01*
X76474000Y-110250000D01*
X76542121Y-110270002D01*
G37*
G04 #@! TD.AperFunction*
G04 #@! TD*
G04 #@! TA.AperFunction,Conductor*
G04 #@! TO.N,+5V*
G36*
X29396241Y-59450001D02*
G01*
X30254381Y-59450001D01*
X30322502Y-59470003D01*
X30335044Y-59479205D01*
X30854663Y-59912219D01*
X30894190Y-59971195D01*
X30900000Y-60009015D01*
X30900000Y-66450000D01*
X32299999Y-66450001D01*
X37324000Y-66450000D01*
X37392121Y-66470002D01*
X37438614Y-66523658D01*
X37450000Y-66576000D01*
X37450000Y-74595857D01*
X37429998Y-74663978D01*
X37410722Y-74687264D01*
X35651712Y-76356068D01*
X35536462Y-76465408D01*
X35473276Y-76497782D01*
X35449741Y-76500000D01*
X30494036Y-76500000D01*
X30425915Y-76479998D01*
X30379422Y-76426342D01*
X30369318Y-76356068D01*
X30373286Y-76338007D01*
X30872276Y-74663978D01*
X31100000Y-73900000D01*
X31100000Y-68150000D01*
X29200000Y-66249999D01*
X29168825Y-66249999D01*
X28925999Y-66250000D01*
X28857880Y-66229998D01*
X28811387Y-66176343D01*
X28800000Y-66124000D01*
X28800000Y-64176000D01*
X28820002Y-64107879D01*
X28873658Y-64061386D01*
X28926000Y-64050000D01*
X29700000Y-64050000D01*
X29700000Y-62724967D01*
X29700167Y-62721569D01*
X29700499Y-62719899D01*
X29700498Y-62100102D01*
X29700166Y-62098435D01*
X29700000Y-62095044D01*
X29700000Y-61454967D01*
X29700167Y-61451569D01*
X29700499Y-61449899D01*
X29700498Y-60830102D01*
X29700166Y-60828435D01*
X29700000Y-60825044D01*
X29700000Y-60500000D01*
X27026000Y-60500000D01*
X26957879Y-60479998D01*
X26911386Y-60426342D01*
X26900000Y-60374000D01*
X26899999Y-59576000D01*
X26920001Y-59507879D01*
X26973657Y-59461386D01*
X27025999Y-59450000D01*
X29396241Y-59450001D01*
G37*
G04 #@! TD.AperFunction*
G04 #@! TD*
G04 #@! TA.AperFunction,Conductor*
G04 #@! TO.N,GND*
G36*
X36665931Y-57920002D02*
G01*
X36686905Y-57936905D01*
X37413095Y-58663095D01*
X37447121Y-58725407D01*
X37450000Y-58752190D01*
X37450000Y-66224000D01*
X37429998Y-66292121D01*
X37376342Y-66338614D01*
X37324000Y-66350000D01*
X33219819Y-66350001D01*
X33151698Y-66329999D01*
X33105205Y-66276343D01*
X33095101Y-66206069D01*
X33095572Y-66203456D01*
X33095949Y-66202173D01*
X33100000Y-66174000D01*
X33099999Y-64126000D01*
X33097714Y-64104744D01*
X33097744Y-64104741D01*
X33096312Y-64084405D01*
X33099638Y-63918113D01*
X33099638Y-63918112D01*
X33100000Y-63900000D01*
X32726000Y-63900000D01*
X32657879Y-63879998D01*
X32611386Y-63826342D01*
X32600000Y-63774000D01*
X32600000Y-62724976D01*
X32599880Y-62720076D01*
X32599713Y-62716672D01*
X32599796Y-62716668D01*
X32599500Y-62709778D01*
X32599499Y-62110207D01*
X32599795Y-62103318D01*
X32599713Y-62103314D01*
X32599840Y-62100712D01*
X32599880Y-62099903D01*
X32600000Y-62095013D01*
X32600000Y-61454976D01*
X32599880Y-61450076D01*
X32599713Y-61446672D01*
X32599796Y-61446668D01*
X32599500Y-61439778D01*
X32599499Y-60840207D01*
X32599795Y-60833318D01*
X32599713Y-60833314D01*
X32599840Y-60830712D01*
X32599880Y-60829903D01*
X32600000Y-60825013D01*
X32600000Y-60184976D01*
X32599880Y-60180076D01*
X32599713Y-60176672D01*
X32599796Y-60176668D01*
X32599500Y-60169778D01*
X32599499Y-59570207D01*
X32599795Y-59563318D01*
X32599713Y-59563314D01*
X32599840Y-59560712D01*
X32599880Y-59559903D01*
X32600000Y-59555013D01*
X32600000Y-58914976D01*
X32599880Y-58910076D01*
X32599713Y-58906672D01*
X32599796Y-58906668D01*
X32599500Y-58899778D01*
X32599499Y-58300207D01*
X32599795Y-58293318D01*
X32599713Y-58293314D01*
X32599840Y-58290712D01*
X32599880Y-58289903D01*
X32600000Y-58285013D01*
X32600000Y-58026000D01*
X32620002Y-57957879D01*
X32673658Y-57911386D01*
X32726000Y-57900000D01*
X36597810Y-57900000D01*
X36665931Y-57920002D01*
G37*
G04 #@! TD.AperFunction*
G04 #@! TD*
M02*
