M48
INCH,TZ
T1C0.0079
T2C0.0079
T3C0.0118
T4C0.0157
T5C0.0276
T6C0.0362
T7C0.0374
T8C0.0402
T9C0.0917
T10C0.1260
%
G90
G05
T1
X11744Y-15842
X11772Y-12362
X12000Y-15836
X12068Y-12362
X12295Y-15840
X12323Y-12362
X12551Y-15835
X12579Y-12362
X12590Y-13693
X12835Y-12362
X12835Y-15827
X13150Y-12362
X14528Y-11024
X14803Y-10551
X14843Y-11142
X15315Y-11142
X15591Y-10512
X15591Y-11142
X15827Y-9882
X16142Y-10512
X16142Y-11142
X16417Y-9803
X16496Y-11024
X16654Y-8622
X16729Y-9777
X16963Y-9404
X17008Y-13671
X17126Y-8622
X17126Y-11024
X17314Y-9637
X17598Y-8622
X17598Y-9843
X17756Y-9409
X18071Y-8465
X18071Y-9409
X18228Y-9843
X18386Y-8465
X18445Y-14469
X18480Y-18858
X18480Y-19402
X18504Y-19764
X18535Y-9630
X18701Y-8465
X18780Y-9449
X19094Y-8465
X19094Y-9843
X19094Y-19764
X19094Y-20118
X19488Y-9843
X19646Y-20551
X19646Y-21024
X19657Y-19358
X19764Y-8465
X19949Y-9602
X19961Y-21220
X20315Y-15630
X20354Y-8465
X20433Y-9488
X20669Y-8465
X20681Y-20894
X20689Y-9488
X20984Y-14429
X21063Y-20984
X21191Y-14642
X22749Y-10991
X22931Y-10812
X23110Y-10630
X23307Y-10394
X23488Y-21488
X23637Y-10014
X23709Y-17634
X23801Y-9817
X24120Y-9418
X24304Y-9240
X24331Y-24016
X24343Y-18579
X24370Y-23386
X24370Y-23740
X24386Y-17921
X24488Y-9010
X24646Y-23386
X24672Y-8833
X24853Y-8651
X25087Y-15386
X25276Y-17844
X26220Y-16772
X26339Y-15167
X26732Y-15374
X28327Y-17844
X28332Y-18386
X28346Y-17087
X29488Y-11378
X29567Y-13465
X29567Y-13780
X29697Y-11575
X29764Y-14045
X29921Y-11850
X32441Y-17362
X32677Y-13957
X33110Y-13780
X33543Y-13622
X34409Y-11378
X34724Y-23228
X35079Y-23622
X35276Y-11969
X35709Y-12165
X36024Y-24921
X36339Y-24921
X37480Y-25936
X37480Y-26664
X37480Y-26929
X37480Y-27185
X37606Y-34331
X37756Y-25936
X37870Y-34331
X38012Y-25936
X38110Y-34331
X38370Y-34138
X38661Y-34134
X38701Y-32638
X38996Y-36870
X40551Y-25512
X40553Y-26379
X40768Y-34252
X40866Y-12795
X41024Y-32756
X41024Y-33048
X41173Y-26212
X41772Y-24724
X41772Y-25906
X42087Y-15315
X42087Y-24419
X42402Y-22146
X42480Y-23622
X42800Y-25818
X42835Y-18898
X43307Y-19134
X43819Y-31378
X43850Y-32398
X44055Y-12441
X44055Y-12717
X44055Y-23622
X44311Y-32854
X44409Y-21575
X44488Y-24213
X44488Y-24902
X44488Y-25413
X44547Y-34339
X44606Y-11220
X44646Y-20472
X44836Y-35132
X44882Y-21727
X44921Y-11260
X44994Y-22137
X44996Y-34932
X45094Y-36732
X45157Y-34734
X45354Y-34567
X45827Y-23622
X46496Y-24272
X46983Y-36850
X47283Y-22913
X47559Y-30945
X47559Y-31260
X47756Y-22126
X47776Y-23740
X48155Y-23738
X48543Y-23720
X48888Y-31290
X48896Y-31573
X48898Y-30984
X51063Y-36220
X51142Y-34567
X52520Y-20276
X52835Y-24606
X52835Y-24961
X52874Y-34803
X53150Y-14331
X53346Y-35728
X53346Y-36614
X61457Y-23110
X61929Y-24567
X66654Y-27559
X66877Y-27559
X67100Y-27559
X67323Y-27559
X67559Y-27559
X68583Y-25984
X68976Y-14843
T2
X64857Y-24606
X65103Y-24409
X65103Y-24803
X65349Y-24606
T3
X43386Y-21654
X43386Y-22047
T4
X11339Y-9252
X11339Y-11811
X11575Y-24567
X13543Y-22874
X23465Y-22874
X27835Y-15276
X37598Y-22283
X37638Y-17323
X37874Y-14016
X37874Y-16772
X38110Y-17323
X38346Y-16772
X38583Y-14016
X38583Y-17323
X38780Y-19055
X38819Y-16772
X38898Y-23583
X39055Y-17323
X39134Y-14016
X39843Y-16772
X42402Y-22874
X44409Y-22874
X44409Y-32205
X45551Y-12047
X45866Y-32874
X46181Y-17835
X46181Y-18504
X46181Y-19134
X46260Y-29803
X47559Y-33740
X49610Y-17815
X49638Y-18496
X49657Y-19134
X51260Y-28740
X53228Y-34528
X53890Y-31514
X53898Y-32301
X53898Y-32717
X53898Y-31908
X53921Y-31122
X55669Y-31339
X55674Y-32480
X55704Y-34242
X56334Y-28760
X59352Y-25384
X59843Y-13780
X60281Y-34252
X60354Y-36024
X60630Y-29685
X61059Y-19799
X61811Y-13780
X62063Y-19803
X62505Y-24331
X62638Y-35157
X62849Y-26181
X63529Y-26969
X63588Y-28750
X64090Y-25659
X64203Y-24582
X64213Y-21772
X65852Y-26575
X65891Y-25669
X66284Y-25000
X66284Y-25295
X66284Y-25591
X66284Y-26772
X66811Y-27228
X67165Y-27228
X67402Y-24646
X67653Y-28686
X67795Y-24646
X68465Y-13386
X69764Y-14567
X70025Y-21654
X70079Y-20079
X70438Y-27323
X70512Y-26654
T5
X69690Y-31299
X69690Y-34055
X71344Y-31299
X71344Y-34055
T6
X71009Y-14567
X71009Y-15551
X71796Y-14567
X71796Y-15551
T7
X72013Y-25098
X72013Y-26083
X72013Y-27067
X72013Y-28051
T8
X9004Y-27406
X9004Y-34406
X10004Y-27406
X10004Y-34406
X11004Y-27406
X11004Y-34406
X12004Y-27406
X12004Y-34406
X13004Y-27406
X13004Y-34406
X14004Y-27406
X14004Y-34406
X15004Y-27406
X15004Y-34406
X16004Y-27406
X16004Y-34406
X17004Y-27406
X17004Y-34406
X18004Y-27406
X18004Y-34406
X19004Y-27406
X19004Y-34406
X20004Y-27406
X20004Y-34406
X21004Y-27406
X21004Y-34406
X22004Y-27406
X22004Y-34406
X23004Y-27406
X23004Y-34406
X24004Y-27406
X24004Y-34406
X25004Y-27406
X25004Y-34406
X26004Y-27406
X26004Y-34406
X27004Y-27406
X27004Y-34406
X27913Y-29906
X27913Y-30906
X27913Y-31906
X28004Y-27406
X28004Y-34406
T9
X72863Y-12689
X72863Y-17429
T10
X9843Y-37402
X72977Y-9843
X72977Y-37402
T0
M30
