G04 #@! TF.GenerationSoftware,KiCad,Pcbnew,(6.0.2)*
G04 #@! TF.CreationDate,2022-04-08T14:26:24-06:00*
G04 #@! TF.ProjectId,CONEPROJ,434f4e45-5052-44f4-9a2e-6b696361645f,rev?*
G04 #@! TF.SameCoordinates,Original*
G04 #@! TF.FileFunction,Legend,Top*
G04 #@! TF.FilePolarity,Positive*
%FSLAX46Y46*%
G04 Gerber Fmt 4.6, Leading zero omitted, Abs format (unit mm)*
G04 Created by KiCad (PCBNEW (6.0.2)) date 2022-04-08 14:26:24*
%MOMM*%
%LPD*%
G01*
G04 APERTURE LIST*
%ADD10C,0.150000*%
%ADD11C,0.250000*%
%ADD12C,0.125000*%
%ADD13C,0.300000*%
%ADD14C,0.120000*%
%ADD15C,0.127000*%
%ADD16C,0.254000*%
%ADD17C,0.203200*%
%ADD18C,0.200000*%
%ADD19C,0.152400*%
%ADD20C,0.304800*%
G04 APERTURE END LIST*
D10*
X157155714Y-57511428D02*
X157917619Y-57511428D01*
X157536666Y-57892380D02*
X157536666Y-57130476D01*
X158917619Y-57892380D02*
X158346190Y-57892380D01*
X158631904Y-57892380D02*
X158631904Y-56892380D01*
X158536666Y-57035238D01*
X158441428Y-57130476D01*
X158346190Y-57178095D01*
X159298571Y-56987619D02*
X159346190Y-56940000D01*
X159441428Y-56892380D01*
X159679523Y-56892380D01*
X159774761Y-56940000D01*
X159822380Y-56987619D01*
X159870000Y-57082857D01*
X159870000Y-57178095D01*
X159822380Y-57320952D01*
X159250952Y-57892380D01*
X159870000Y-57892380D01*
X160203333Y-57225714D02*
X160441428Y-57892380D01*
X160679523Y-57225714D01*
X158248095Y-47710000D02*
X158152857Y-47662380D01*
X158010000Y-47662380D01*
X157867142Y-47710000D01*
X157771904Y-47805238D01*
X157724285Y-47900476D01*
X157676666Y-48090952D01*
X157676666Y-48233809D01*
X157724285Y-48424285D01*
X157771904Y-48519523D01*
X157867142Y-48614761D01*
X158010000Y-48662380D01*
X158105238Y-48662380D01*
X158248095Y-48614761D01*
X158295714Y-48567142D01*
X158295714Y-48233809D01*
X158105238Y-48233809D01*
X158724285Y-48662380D02*
X158724285Y-47662380D01*
X159295714Y-48662380D01*
X159295714Y-47662380D01*
X159771904Y-48662380D02*
X159771904Y-47662380D01*
X160010000Y-47662380D01*
X160152857Y-47710000D01*
X160248095Y-47805238D01*
X160295714Y-47900476D01*
X160343333Y-48090952D01*
X160343333Y-48233809D01*
X160295714Y-48424285D01*
X160248095Y-48519523D01*
X160152857Y-48614761D01*
X160010000Y-48662380D01*
X159771904Y-48662380D01*
X157369523Y-53012380D02*
X157369523Y-52012380D01*
X157607619Y-52012380D01*
X157750476Y-52060000D01*
X157845714Y-52155238D01*
X157893333Y-52250476D01*
X157940952Y-52440952D01*
X157940952Y-52583809D01*
X157893333Y-52774285D01*
X157845714Y-52869523D01*
X157750476Y-52964761D01*
X157607619Y-53012380D01*
X157369523Y-53012380D01*
X158560000Y-52012380D02*
X158750476Y-52012380D01*
X158845714Y-52060000D01*
X158940952Y-52155238D01*
X158988571Y-52345714D01*
X158988571Y-52679047D01*
X158940952Y-52869523D01*
X158845714Y-52964761D01*
X158750476Y-53012380D01*
X158560000Y-53012380D01*
X158464761Y-52964761D01*
X158369523Y-52869523D01*
X158321904Y-52679047D01*
X158321904Y-52345714D01*
X158369523Y-52155238D01*
X158464761Y-52060000D01*
X158560000Y-52012380D01*
X159417142Y-52012380D02*
X159417142Y-52821904D01*
X159464761Y-52917142D01*
X159512380Y-52964761D01*
X159607619Y-53012380D01*
X159798095Y-53012380D01*
X159893333Y-52964761D01*
X159940952Y-52917142D01*
X159988571Y-52821904D01*
X159988571Y-52012380D01*
X160321904Y-52012380D02*
X160893333Y-52012380D01*
X160607619Y-53012380D02*
X160607619Y-52012380D01*
X157702857Y-54968571D02*
X157845714Y-55016190D01*
X157893333Y-55063809D01*
X157940952Y-55159047D01*
X157940952Y-55301904D01*
X157893333Y-55397142D01*
X157845714Y-55444761D01*
X157750476Y-55492380D01*
X157369523Y-55492380D01*
X157369523Y-54492380D01*
X157702857Y-54492380D01*
X157798095Y-54540000D01*
X157845714Y-54587619D01*
X157893333Y-54682857D01*
X157893333Y-54778095D01*
X157845714Y-54873333D01*
X157798095Y-54920952D01*
X157702857Y-54968571D01*
X157369523Y-54968571D01*
X158560000Y-54492380D02*
X158750476Y-54492380D01*
X158845714Y-54540000D01*
X158940952Y-54635238D01*
X158988571Y-54825714D01*
X158988571Y-55159047D01*
X158940952Y-55349523D01*
X158845714Y-55444761D01*
X158750476Y-55492380D01*
X158560000Y-55492380D01*
X158464761Y-55444761D01*
X158369523Y-55349523D01*
X158321904Y-55159047D01*
X158321904Y-54825714D01*
X158369523Y-54635238D01*
X158464761Y-54540000D01*
X158560000Y-54492380D01*
X159417142Y-54492380D02*
X159417142Y-55301904D01*
X159464761Y-55397142D01*
X159512380Y-55444761D01*
X159607619Y-55492380D01*
X159798095Y-55492380D01*
X159893333Y-55444761D01*
X159940952Y-55397142D01*
X159988571Y-55301904D01*
X159988571Y-54492380D01*
X160321904Y-54492380D02*
X160893333Y-54492380D01*
X160607619Y-55492380D02*
X160607619Y-54492380D01*
X157445714Y-71481428D02*
X158207619Y-71481428D01*
X157826666Y-71862380D02*
X157826666Y-71100476D01*
X159207619Y-71862380D02*
X158636190Y-71862380D01*
X158921904Y-71862380D02*
X158921904Y-70862380D01*
X158826666Y-71005238D01*
X158731428Y-71100476D01*
X158636190Y-71148095D01*
X159588571Y-70957619D02*
X159636190Y-70910000D01*
X159731428Y-70862380D01*
X159969523Y-70862380D01*
X160064761Y-70910000D01*
X160112380Y-70957619D01*
X160160000Y-71052857D01*
X160160000Y-71148095D01*
X160112380Y-71290952D01*
X159540952Y-71862380D01*
X160160000Y-71862380D01*
X160493333Y-71195714D02*
X160731428Y-71862380D01*
X160969523Y-71195714D01*
X158693333Y-68340000D02*
X158598095Y-68292380D01*
X158455238Y-68292380D01*
X158312380Y-68340000D01*
X158217142Y-68435238D01*
X158169523Y-68530476D01*
X158121904Y-68720952D01*
X158121904Y-68863809D01*
X158169523Y-69054285D01*
X158217142Y-69149523D01*
X158312380Y-69244761D01*
X158455238Y-69292380D01*
X158550476Y-69292380D01*
X158693333Y-69244761D01*
X158740952Y-69197142D01*
X158740952Y-68863809D01*
X158550476Y-68863809D01*
X159740952Y-69292380D02*
X159407619Y-68816190D01*
X159169523Y-69292380D02*
X159169523Y-68292380D01*
X159550476Y-68292380D01*
X159645714Y-68340000D01*
X159693333Y-68387619D01*
X159740952Y-68482857D01*
X159740952Y-68625714D01*
X159693333Y-68720952D01*
X159645714Y-68768571D01*
X159550476Y-68816190D01*
X159169523Y-68816190D01*
X160169523Y-68768571D02*
X160502857Y-68768571D01*
X160645714Y-69292380D02*
X160169523Y-69292380D01*
X160169523Y-68292380D01*
X160645714Y-68292380D01*
X161074285Y-68768571D02*
X161407619Y-68768571D01*
X161550476Y-69292380D02*
X161074285Y-69292380D01*
X161074285Y-68292380D01*
X161550476Y-68292380D01*
X161979047Y-69292380D02*
X161979047Y-68292380D01*
X162550476Y-69292380D01*
X162550476Y-68292380D01*
X159130476Y-63718571D02*
X159273333Y-63766190D01*
X159320952Y-63813809D01*
X159368571Y-63909047D01*
X159368571Y-64051904D01*
X159320952Y-64147142D01*
X159273333Y-64194761D01*
X159178095Y-64242380D01*
X158797142Y-64242380D01*
X158797142Y-63242380D01*
X159130476Y-63242380D01*
X159225714Y-63290000D01*
X159273333Y-63337619D01*
X159320952Y-63432857D01*
X159320952Y-63528095D01*
X159273333Y-63623333D01*
X159225714Y-63670952D01*
X159130476Y-63718571D01*
X158797142Y-63718571D01*
X160273333Y-64242380D02*
X159797142Y-64242380D01*
X159797142Y-63242380D01*
X160606666Y-63242380D02*
X160606666Y-64051904D01*
X160654285Y-64147142D01*
X160701904Y-64194761D01*
X160797142Y-64242380D01*
X160987619Y-64242380D01*
X161082857Y-64194761D01*
X161130476Y-64147142D01*
X161178095Y-64051904D01*
X161178095Y-63242380D01*
X161654285Y-63718571D02*
X161987619Y-63718571D01*
X162130476Y-64242380D02*
X161654285Y-64242380D01*
X161654285Y-63242380D01*
X162130476Y-63242380D01*
X159867142Y-66852380D02*
X159533809Y-66376190D01*
X159295714Y-66852380D02*
X159295714Y-65852380D01*
X159676666Y-65852380D01*
X159771904Y-65900000D01*
X159819523Y-65947619D01*
X159867142Y-66042857D01*
X159867142Y-66185714D01*
X159819523Y-66280952D01*
X159771904Y-66328571D01*
X159676666Y-66376190D01*
X159295714Y-66376190D01*
X160295714Y-66328571D02*
X160629047Y-66328571D01*
X160771904Y-66852380D02*
X160295714Y-66852380D01*
X160295714Y-65852380D01*
X160771904Y-65852380D01*
X161200476Y-66852380D02*
X161200476Y-65852380D01*
X161438571Y-65852380D01*
X161581428Y-65900000D01*
X161676666Y-65995238D01*
X161724285Y-66090476D01*
X161771904Y-66280952D01*
X161771904Y-66423809D01*
X161724285Y-66614285D01*
X161676666Y-66709523D01*
X161581428Y-66804761D01*
X161438571Y-66852380D01*
X161200476Y-66852380D01*
X155091904Y-61444761D02*
X154425238Y-60492380D01*
X153949047Y-61444761D02*
X153949047Y-59444761D01*
X154710952Y-59444761D01*
X154901428Y-59540000D01*
X154996666Y-59635238D01*
X155091904Y-59825714D01*
X155091904Y-60111428D01*
X154996666Y-60301904D01*
X154901428Y-60397142D01*
X154710952Y-60492380D01*
X153949047Y-60492380D01*
X156996666Y-59540000D02*
X156806190Y-59444761D01*
X156520476Y-59444761D01*
X156234761Y-59540000D01*
X156044285Y-59730476D01*
X155949047Y-59920952D01*
X155853809Y-60301904D01*
X155853809Y-60587619D01*
X155949047Y-60968571D01*
X156044285Y-61159047D01*
X156234761Y-61349523D01*
X156520476Y-61444761D01*
X156710952Y-61444761D01*
X156996666Y-61349523D01*
X157091904Y-61254285D01*
X157091904Y-60587619D01*
X156710952Y-60587619D01*
X158615714Y-60397142D02*
X158901428Y-60492380D01*
X158996666Y-60587619D01*
X159091904Y-60778095D01*
X159091904Y-61063809D01*
X158996666Y-61254285D01*
X158901428Y-61349523D01*
X158710952Y-61444761D01*
X157949047Y-61444761D01*
X157949047Y-59444761D01*
X158615714Y-59444761D01*
X158806190Y-59540000D01*
X158901428Y-59635238D01*
X158996666Y-59825714D01*
X158996666Y-60016190D01*
X158901428Y-60206666D01*
X158806190Y-60301904D01*
X158615714Y-60397142D01*
X157949047Y-60397142D01*
X159853809Y-60873333D02*
X160806190Y-60873333D01*
X159663333Y-61444761D02*
X160330000Y-59444761D01*
X160996666Y-61444761D01*
X88467232Y-55852380D02*
X88592232Y-54852380D01*
X88830327Y-54852380D01*
X88967232Y-54900000D01*
X89050565Y-54995238D01*
X89086279Y-55090476D01*
X89110089Y-55280952D01*
X89092232Y-55423809D01*
X89020803Y-55614285D01*
X88961279Y-55709523D01*
X88854136Y-55804761D01*
X88705327Y-55852380D01*
X88467232Y-55852380D01*
X89532708Y-55328571D02*
X89866041Y-55328571D01*
X89943422Y-55852380D02*
X89467232Y-55852380D01*
X89592232Y-54852380D01*
X90068422Y-54852380D01*
X90770803Y-55328571D02*
X90907708Y-55376190D01*
X90949375Y-55423809D01*
X90985089Y-55519047D01*
X90967232Y-55661904D01*
X90907708Y-55757142D01*
X90854136Y-55804761D01*
X90752946Y-55852380D01*
X90371994Y-55852380D01*
X90496994Y-54852380D01*
X90830327Y-54852380D01*
X90919613Y-54900000D01*
X90961279Y-54947619D01*
X90996994Y-55042857D01*
X90985089Y-55138095D01*
X90925565Y-55233333D01*
X90871994Y-55280952D01*
X90770803Y-55328571D01*
X90437470Y-55328571D01*
X91496994Y-54852380D02*
X91395803Y-55661904D01*
X91431517Y-55757142D01*
X91473184Y-55804761D01*
X91562470Y-55852380D01*
X91752946Y-55852380D01*
X91854136Y-55804761D01*
X91907708Y-55757142D01*
X91967232Y-55661904D01*
X92068422Y-54852380D01*
X93062470Y-54900000D02*
X92973184Y-54852380D01*
X92830327Y-54852380D01*
X92681517Y-54900000D01*
X92574375Y-54995238D01*
X92514851Y-55090476D01*
X92443422Y-55280952D01*
X92425565Y-55423809D01*
X92449375Y-55614285D01*
X92485089Y-55709523D01*
X92568422Y-55804761D01*
X92705327Y-55852380D01*
X92800565Y-55852380D01*
X92949375Y-55804761D01*
X93002946Y-55757142D01*
X93044613Y-55423809D01*
X92854136Y-55423809D01*
X111862708Y-47038571D02*
X112196041Y-47038571D01*
X112273422Y-47562380D02*
X111797232Y-47562380D01*
X111922232Y-46562380D01*
X112398422Y-46562380D01*
X113273422Y-47562380D02*
X112999613Y-47086190D01*
X112701994Y-47562380D02*
X112826994Y-46562380D01*
X113207946Y-46562380D01*
X113297232Y-46610000D01*
X113338898Y-46657619D01*
X113374613Y-46752857D01*
X113356755Y-46895714D01*
X113297232Y-46990952D01*
X113243660Y-47038571D01*
X113142470Y-47086190D01*
X112761517Y-47086190D01*
X114273422Y-47562380D02*
X113999613Y-47086190D01*
X113701994Y-47562380D02*
X113826994Y-46562380D01*
X114207946Y-46562380D01*
X114297232Y-46610000D01*
X114338898Y-46657619D01*
X114374613Y-46752857D01*
X114356755Y-46895714D01*
X114297232Y-46990952D01*
X114243660Y-47038571D01*
X114142470Y-47086190D01*
X113761517Y-47086190D01*
X115017470Y-46562380D02*
X115207946Y-46562380D01*
X115297232Y-46610000D01*
X115380565Y-46705238D01*
X115404375Y-46895714D01*
X115362708Y-47229047D01*
X115291279Y-47419523D01*
X115184136Y-47514761D01*
X115082946Y-47562380D01*
X114892470Y-47562380D01*
X114803184Y-47514761D01*
X114719851Y-47419523D01*
X114696041Y-47229047D01*
X114737708Y-46895714D01*
X114809136Y-46705238D01*
X114916279Y-46610000D01*
X115017470Y-46562380D01*
X116321041Y-47562380D02*
X116047232Y-47086190D01*
X115749613Y-47562380D02*
X115874613Y-46562380D01*
X116255565Y-46562380D01*
X116344851Y-46610000D01*
X116386517Y-46657619D01*
X116422232Y-46752857D01*
X116404375Y-46895714D01*
X116344851Y-46990952D01*
X116291279Y-47038571D01*
X116190089Y-47086190D01*
X115809136Y-47086190D01*
X113766994Y-48202380D02*
X113880089Y-49202380D01*
X114159851Y-48488095D01*
X114261041Y-49202380D01*
X114624136Y-48202380D01*
X114880089Y-49202380D02*
X115005089Y-48202380D01*
X115755089Y-48678571D02*
X115421755Y-48678571D01*
X115356279Y-49202380D02*
X115481279Y-48202380D01*
X115957470Y-48202380D01*
X116213422Y-49202380D02*
X116338422Y-48202380D01*
X102495323Y-49144439D02*
X101964993Y-49001334D01*
X102091262Y-49548500D02*
X101472544Y-48753005D01*
X101741918Y-48483631D01*
X101838724Y-48454168D01*
X101901858Y-48458377D01*
X101994456Y-48500467D01*
X102082844Y-48614109D01*
X102108098Y-48723542D01*
X102103889Y-48795095D01*
X102066008Y-48900319D01*
X101796634Y-49169693D01*
X102709980Y-48189003D02*
X102474278Y-48424706D01*
X102798369Y-48841393D02*
X102179650Y-48045898D01*
X102516368Y-47709181D01*
X103088788Y-47136761D02*
X102954101Y-47271448D01*
X102916220Y-47376672D01*
X102912011Y-47448225D01*
X102933056Y-47629210D01*
X103017235Y-47814405D01*
X103252937Y-48117451D01*
X103345535Y-48159540D01*
X103408669Y-48163749D01*
X103505476Y-48134287D01*
X103640163Y-47999600D01*
X103678043Y-47894375D01*
X103682252Y-47822823D01*
X103656999Y-47713390D01*
X103509685Y-47523986D01*
X103417087Y-47481896D01*
X103353953Y-47477687D01*
X103257146Y-47507150D01*
X103122459Y-47641837D01*
X103084579Y-47747062D01*
X103080370Y-47818614D01*
X103105624Y-47928047D01*
X104111567Y-47528195D02*
X104246254Y-47393508D01*
X104284135Y-47288284D01*
X104288344Y-47216731D01*
X104267299Y-47035746D01*
X104183120Y-46850551D01*
X103947417Y-46547505D01*
X103854820Y-46505416D01*
X103791686Y-46501207D01*
X103694879Y-46530669D01*
X103560192Y-46665356D01*
X103522312Y-46770581D01*
X103518103Y-46842133D01*
X103543356Y-46951566D01*
X103690670Y-47140970D01*
X103783268Y-47183060D01*
X103846402Y-47187269D01*
X103943208Y-47157806D01*
X104077895Y-47023119D01*
X104115776Y-46917895D01*
X104119985Y-46846342D01*
X104094731Y-46736909D01*
X108541370Y-25851522D02*
X108440355Y-25885194D01*
X108339339Y-25986209D01*
X108271996Y-26120896D01*
X108271996Y-26255583D01*
X108305668Y-26356599D01*
X108406683Y-26524957D01*
X108507698Y-26625973D01*
X108676057Y-26726988D01*
X108777072Y-26760660D01*
X108911759Y-26760660D01*
X109046446Y-26693316D01*
X109113790Y-26625973D01*
X109181133Y-26491286D01*
X109181133Y-26423942D01*
X108945431Y-26188240D01*
X108810744Y-26322927D01*
X109551522Y-26188240D02*
X108844416Y-25481133D01*
X109113790Y-25211759D01*
X109214805Y-25178087D01*
X109282148Y-25178087D01*
X109383164Y-25211759D01*
X109484179Y-25312774D01*
X109517851Y-25413790D01*
X109517851Y-25481133D01*
X109484179Y-25582148D01*
X109214805Y-25851522D01*
X110191286Y-25481133D02*
X110325973Y-25413790D01*
X110494331Y-25245431D01*
X110528003Y-25144416D01*
X110528003Y-25077072D01*
X110494331Y-24976057D01*
X110426988Y-24908713D01*
X110325973Y-24875042D01*
X110258629Y-24875042D01*
X110157614Y-24908713D01*
X109989255Y-25009729D01*
X109888240Y-25043400D01*
X109820896Y-25043400D01*
X109719881Y-25009729D01*
X109652538Y-24942385D01*
X109618866Y-24841370D01*
X109618866Y-24774026D01*
X109652538Y-24673011D01*
X109820896Y-24504652D01*
X109955583Y-24437309D01*
X141280327Y-26927659D02*
X141417232Y-26975278D01*
X141458898Y-27022897D01*
X141494613Y-27118135D01*
X141476755Y-27260992D01*
X141417232Y-27356230D01*
X141363660Y-27403849D01*
X141262470Y-27451468D01*
X140881517Y-27451468D01*
X141006517Y-26451468D01*
X141339851Y-26451468D01*
X141429136Y-26499088D01*
X141470803Y-26546707D01*
X141506517Y-26641945D01*
X141494613Y-26737183D01*
X141435089Y-26832421D01*
X141381517Y-26880040D01*
X141280327Y-26927659D01*
X140946994Y-26927659D01*
X141863660Y-26451468D02*
X142435089Y-26451468D01*
X142024375Y-27451468D02*
X142149375Y-26451468D01*
X142643422Y-27451468D02*
X142768422Y-26451468D01*
X143214851Y-27451468D01*
X143339851Y-26451468D01*
X144976755Y-27451468D02*
X144405327Y-27451468D01*
X144691041Y-27451468D02*
X144816041Y-26451468D01*
X144702946Y-26594326D01*
X144595803Y-26689564D01*
X144494613Y-26737183D01*
X120656575Y-27883187D02*
X120037857Y-27087692D01*
X120399828Y-26860408D02*
X120404037Y-26788855D01*
X120441918Y-26683631D01*
X120610276Y-26515272D01*
X120707083Y-26485810D01*
X120770217Y-26490019D01*
X120862815Y-26532108D01*
X120921740Y-26607870D01*
X120976457Y-26755184D01*
X120925949Y-27613813D01*
X121363682Y-27176080D01*
X122011863Y-26393212D02*
X122007654Y-26464765D01*
X121936102Y-26603661D01*
X121868758Y-26671004D01*
X121738280Y-26734139D01*
X121612011Y-26725721D01*
X121519414Y-26683631D01*
X121367891Y-26565780D01*
X121279502Y-26452138D01*
X121195323Y-26266943D01*
X121170069Y-26157510D01*
X121178487Y-26014405D01*
X121250040Y-25875509D01*
X121317383Y-25808166D01*
X121447861Y-25745031D01*
X121510996Y-25749240D01*
X122319118Y-24941118D02*
X122323327Y-24869565D01*
X122361207Y-24764341D01*
X122529566Y-24595982D01*
X122626373Y-24566520D01*
X122689507Y-24570729D01*
X122782104Y-24612818D01*
X122841030Y-24688580D01*
X122895747Y-24835894D01*
X122845239Y-25694523D01*
X123282972Y-25256791D01*
X116095238Y-26696994D02*
X116047619Y-26833898D01*
X116047619Y-27071994D01*
X116095238Y-27173184D01*
X116142857Y-27226755D01*
X116238095Y-27286279D01*
X116333333Y-27298184D01*
X116428571Y-27262470D01*
X116476190Y-27220803D01*
X116523809Y-27131517D01*
X116571428Y-26946994D01*
X116619047Y-26857708D01*
X116666666Y-26816041D01*
X116761904Y-26780327D01*
X116857142Y-26792232D01*
X116952380Y-26851755D01*
X117000000Y-26905327D01*
X117047619Y-27006517D01*
X117047619Y-27244613D01*
X117000000Y-27381517D01*
X116047619Y-27691041D02*
X117047619Y-27816041D01*
X117047619Y-28054136D01*
X117000000Y-28191041D01*
X116904761Y-28274375D01*
X116809523Y-28310089D01*
X116619047Y-28333898D01*
X116476190Y-28316041D01*
X116285714Y-28244613D01*
X116190476Y-28185089D01*
X116095238Y-28077946D01*
X116047619Y-27929136D01*
X116047619Y-27691041D01*
X116333333Y-28679136D02*
X116333333Y-29155327D01*
X116047619Y-28548184D02*
X117047619Y-29006517D01*
X116047619Y-29214851D01*
X156689047Y-74404761D02*
X156022380Y-73452380D01*
X155546190Y-74404761D02*
X155546190Y-72404761D01*
X156308095Y-72404761D01*
X156498571Y-72500000D01*
X156593809Y-72595238D01*
X156689047Y-72785714D01*
X156689047Y-73071428D01*
X156593809Y-73261904D01*
X156498571Y-73357142D01*
X156308095Y-73452380D01*
X155546190Y-73452380D01*
X158593809Y-72500000D02*
X158403333Y-72404761D01*
X158117619Y-72404761D01*
X157831904Y-72500000D01*
X157641428Y-72690476D01*
X157546190Y-72880952D01*
X157450952Y-73261904D01*
X157450952Y-73547619D01*
X157546190Y-73928571D01*
X157641428Y-74119047D01*
X157831904Y-74309523D01*
X158117619Y-74404761D01*
X158308095Y-74404761D01*
X158593809Y-74309523D01*
X158689047Y-74214285D01*
X158689047Y-73547619D01*
X158308095Y-73547619D01*
X160212857Y-73357142D02*
X160498571Y-73452380D01*
X160593809Y-73547619D01*
X160689047Y-73738095D01*
X160689047Y-74023809D01*
X160593809Y-74214285D01*
X160498571Y-74309523D01*
X160308095Y-74404761D01*
X159546190Y-74404761D01*
X159546190Y-72404761D01*
X160212857Y-72404761D01*
X160403333Y-72500000D01*
X160498571Y-72595238D01*
X160593809Y-72785714D01*
X160593809Y-72976190D01*
X160498571Y-73166666D01*
X160403333Y-73261904D01*
X160212857Y-73357142D01*
X159546190Y-73357142D01*
X120957142Y-88656230D02*
X120909523Y-88703849D01*
X120766666Y-88751468D01*
X120671428Y-88751468D01*
X120528571Y-88703849D01*
X120433333Y-88608611D01*
X120385714Y-88513373D01*
X120338095Y-88322897D01*
X120338095Y-88180040D01*
X120385714Y-87989564D01*
X120433333Y-87894326D01*
X120528571Y-87799088D01*
X120671428Y-87751468D01*
X120766666Y-87751468D01*
X120909523Y-87799088D01*
X120957142Y-87846707D01*
X121338095Y-88465754D02*
X121814285Y-88465754D01*
X121242857Y-88751468D02*
X121576190Y-87751468D01*
X121909523Y-88751468D01*
X122242857Y-88751468D02*
X122242857Y-87751468D01*
X122814285Y-88751468D01*
X122814285Y-87751468D01*
X100500000Y-28137529D02*
X100452380Y-28226815D01*
X100452380Y-28369672D01*
X100500000Y-28518482D01*
X100595238Y-28625625D01*
X100690476Y-28685148D01*
X100880952Y-28756577D01*
X101023809Y-28774434D01*
X101214285Y-28750625D01*
X101309523Y-28714910D01*
X101404761Y-28631577D01*
X101452380Y-28494672D01*
X101452380Y-28399434D01*
X101404761Y-28250625D01*
X101357142Y-28197053D01*
X101023809Y-28155386D01*
X101023809Y-28345863D01*
X101452380Y-27780386D02*
X100452380Y-27655386D01*
X101452380Y-27208958D01*
X100452380Y-27083958D01*
X101452380Y-26732767D02*
X100452380Y-26607767D01*
X100452380Y-26369672D01*
X100500000Y-26232767D01*
X100595238Y-26149434D01*
X100690476Y-26113720D01*
X100880952Y-26089910D01*
X101023809Y-26107767D01*
X101214285Y-26179196D01*
X101309523Y-26238720D01*
X101404761Y-26345863D01*
X101452380Y-26494672D01*
X101452380Y-26732767D01*
X106452380Y-27561339D02*
X105976190Y-27835148D01*
X106452380Y-28132767D02*
X105452380Y-28007767D01*
X105452380Y-27626815D01*
X105500000Y-27537529D01*
X105547619Y-27495863D01*
X105642857Y-27460148D01*
X105785714Y-27478005D01*
X105880952Y-27537529D01*
X105928571Y-27591101D01*
X105976190Y-27692291D01*
X105976190Y-28073244D01*
X105452380Y-27103005D02*
X106452380Y-26561339D01*
X105452380Y-26436339D02*
X106452380Y-27228005D01*
X152068422Y-41551468D02*
X151967232Y-42360992D01*
X152002946Y-42456230D01*
X152044613Y-42503849D01*
X152133898Y-42551468D01*
X152324375Y-42551468D01*
X152425565Y-42503849D01*
X152479136Y-42456230D01*
X152538660Y-42360992D01*
X152639851Y-41551468D01*
X152949375Y-42503849D02*
X153086279Y-42551468D01*
X153324375Y-42551468D01*
X153425565Y-42503849D01*
X153479136Y-42456230D01*
X153538660Y-42360992D01*
X153550565Y-42265754D01*
X153514851Y-42170516D01*
X153473184Y-42122897D01*
X153383898Y-42075278D01*
X153199375Y-42027659D01*
X153110089Y-41980040D01*
X153068422Y-41932421D01*
X153032708Y-41837183D01*
X153044613Y-41741945D01*
X153104136Y-41646707D01*
X153157708Y-41599088D01*
X153258898Y-41551468D01*
X153496994Y-41551468D01*
X153633898Y-41599088D01*
X154342232Y-42027659D02*
X154479136Y-42075278D01*
X154520803Y-42122897D01*
X154556517Y-42218135D01*
X154538660Y-42360992D01*
X154479136Y-42456230D01*
X154425565Y-42503849D01*
X154324375Y-42551468D01*
X153943422Y-42551468D01*
X154068422Y-41551468D01*
X154401755Y-41551468D01*
X154491041Y-41599088D01*
X154532708Y-41646707D01*
X154568422Y-41741945D01*
X154556517Y-41837183D01*
X154496994Y-41932421D01*
X154443422Y-41980040D01*
X154342232Y-42027659D01*
X154008898Y-42027659D01*
D11*
X103964880Y-96466230D02*
X103917261Y-96513849D01*
X103774404Y-96561468D01*
X103679166Y-96561468D01*
X103536309Y-96513849D01*
X103441071Y-96418611D01*
X103393452Y-96323373D01*
X103345833Y-96132897D01*
X103345833Y-95990040D01*
X103393452Y-95799564D01*
X103441071Y-95704326D01*
X103536309Y-95609088D01*
X103679166Y-95561468D01*
X103774404Y-95561468D01*
X103917261Y-95609088D01*
X103964880Y-95656707D01*
X104345833Y-96275754D02*
X104822023Y-96275754D01*
X104250595Y-96561468D02*
X104583928Y-95561468D01*
X104917261Y-96561468D01*
X105250595Y-96561468D02*
X105250595Y-95561468D01*
X105822023Y-96561468D01*
X105822023Y-95561468D01*
X107631547Y-96561468D02*
X107298214Y-96085278D01*
X107060119Y-96561468D02*
X107060119Y-95561468D01*
X107441071Y-95561468D01*
X107536309Y-95609088D01*
X107583928Y-95656707D01*
X107631547Y-95751945D01*
X107631547Y-95894802D01*
X107583928Y-95990040D01*
X107536309Y-96037659D01*
X107441071Y-96085278D01*
X107060119Y-96085278D01*
X108583928Y-95609088D02*
X108488690Y-95561468D01*
X108345833Y-95561468D01*
X108202976Y-95609088D01*
X108107738Y-95704326D01*
X108060119Y-95799564D01*
X108012500Y-95990040D01*
X108012500Y-96132897D01*
X108060119Y-96323373D01*
X108107738Y-96418611D01*
X108202976Y-96513849D01*
X108345833Y-96561468D01*
X108441071Y-96561468D01*
X108583928Y-96513849D01*
X108631547Y-96466230D01*
X108631547Y-96132897D01*
X108441071Y-96132897D01*
X109393452Y-96037659D02*
X109536309Y-96085278D01*
X109583928Y-96132897D01*
X109631547Y-96228135D01*
X109631547Y-96370992D01*
X109583928Y-96466230D01*
X109536309Y-96513849D01*
X109441071Y-96561468D01*
X109060119Y-96561468D01*
X109060119Y-95561468D01*
X109393452Y-95561468D01*
X109488690Y-95609088D01*
X109536309Y-95656707D01*
X109583928Y-95751945D01*
X109583928Y-95847183D01*
X109536309Y-95942421D01*
X109488690Y-95990040D01*
X109393452Y-96037659D01*
X109060119Y-96037659D01*
X111393452Y-96466230D02*
X111345833Y-96513849D01*
X111202976Y-96561468D01*
X111107738Y-96561468D01*
X110964880Y-96513849D01*
X110869642Y-96418611D01*
X110822023Y-96323373D01*
X110774404Y-96132897D01*
X110774404Y-95990040D01*
X110822023Y-95799564D01*
X110869642Y-95704326D01*
X110964880Y-95609088D01*
X111107738Y-95561468D01*
X111202976Y-95561468D01*
X111345833Y-95609088D01*
X111393452Y-95656707D01*
X112012500Y-95561468D02*
X112202976Y-95561468D01*
X112298214Y-95609088D01*
X112393452Y-95704326D01*
X112441071Y-95894802D01*
X112441071Y-96228135D01*
X112393452Y-96418611D01*
X112298214Y-96513849D01*
X112202976Y-96561468D01*
X112012500Y-96561468D01*
X111917261Y-96513849D01*
X111822023Y-96418611D01*
X111774404Y-96228135D01*
X111774404Y-95894802D01*
X111822023Y-95704326D01*
X111917261Y-95609088D01*
X112012500Y-95561468D01*
X112869642Y-96561468D02*
X112869642Y-95561468D01*
X113441071Y-96561468D01*
X113441071Y-95561468D01*
X113774404Y-95561468D02*
X114345833Y-95561468D01*
X114060119Y-96561468D02*
X114060119Y-95561468D01*
X115250595Y-96561468D02*
X114917261Y-96085278D01*
X114679166Y-96561468D02*
X114679166Y-95561468D01*
X115060119Y-95561468D01*
X115155357Y-95609088D01*
X115202976Y-95656707D01*
X115250595Y-95751945D01*
X115250595Y-95894802D01*
X115202976Y-95990040D01*
X115155357Y-96037659D01*
X115060119Y-96085278D01*
X114679166Y-96085278D01*
X115869642Y-95561468D02*
X116060119Y-95561468D01*
X116155357Y-95609088D01*
X116250595Y-95704326D01*
X116298214Y-95894802D01*
X116298214Y-96228135D01*
X116250595Y-96418611D01*
X116155357Y-96513849D01*
X116060119Y-96561468D01*
X115869642Y-96561468D01*
X115774404Y-96513849D01*
X115679166Y-96418611D01*
X115631547Y-96228135D01*
X115631547Y-95894802D01*
X115679166Y-95704326D01*
X115774404Y-95609088D01*
X115869642Y-95561468D01*
X117202976Y-96561468D02*
X116726785Y-96561468D01*
X116726785Y-95561468D01*
X118012500Y-96561468D02*
X117536309Y-96561468D01*
X117536309Y-95561468D01*
X118345833Y-96037659D02*
X118679166Y-96037659D01*
X118822023Y-96561468D02*
X118345833Y-96561468D01*
X118345833Y-95561468D01*
X118822023Y-95561468D01*
X119822023Y-96561468D02*
X119488690Y-96085278D01*
X119250595Y-96561468D02*
X119250595Y-95561468D01*
X119631547Y-95561468D01*
X119726785Y-95609088D01*
X119774404Y-95656707D01*
X119822023Y-95751945D01*
X119822023Y-95894802D01*
X119774404Y-95990040D01*
X119726785Y-96037659D01*
X119631547Y-96085278D01*
X119250595Y-96085278D01*
X120869642Y-95561468D02*
X121202976Y-96561468D01*
X121536309Y-95561468D01*
X121822023Y-95656707D02*
X121869642Y-95609088D01*
X121964880Y-95561468D01*
X122202976Y-95561468D01*
X122298214Y-95609088D01*
X122345833Y-95656707D01*
X122393452Y-95751945D01*
X122393452Y-95847183D01*
X122345833Y-95990040D01*
X121774404Y-96561468D01*
X122393452Y-96561468D01*
X124155357Y-96561468D02*
X123822023Y-96085278D01*
X123583928Y-96561468D02*
X123583928Y-95561468D01*
X123964880Y-95561468D01*
X124060119Y-95609088D01*
X124107738Y-95656707D01*
X124155357Y-95751945D01*
X124155357Y-95894802D01*
X124107738Y-95990040D01*
X124060119Y-96037659D01*
X123964880Y-96085278D01*
X123583928Y-96085278D01*
X124964880Y-96513849D02*
X124869642Y-96561468D01*
X124679166Y-96561468D01*
X124583928Y-96513849D01*
X124536309Y-96418611D01*
X124536309Y-96037659D01*
X124583928Y-95942421D01*
X124679166Y-95894802D01*
X124869642Y-95894802D01*
X124964880Y-95942421D01*
X125012500Y-96037659D01*
X125012500Y-96132897D01*
X124536309Y-96228135D01*
X125345833Y-95894802D02*
X125583928Y-96561468D01*
X125822023Y-95894802D01*
X126917261Y-96275754D02*
X127393452Y-96275754D01*
X126822023Y-96561468D02*
X127155357Y-95561468D01*
X127488690Y-96561468D01*
X128583928Y-96561468D02*
X128583928Y-95561468D01*
X128822023Y-95561468D01*
X128964880Y-95609088D01*
X129060119Y-95704326D01*
X129107738Y-95799564D01*
X129155357Y-95990040D01*
X129155357Y-96132897D01*
X129107738Y-96323373D01*
X129060119Y-96418611D01*
X128964880Y-96513849D01*
X128822023Y-96561468D01*
X128583928Y-96561468D01*
X129964880Y-96513849D02*
X129869642Y-96561468D01*
X129679166Y-96561468D01*
X129583928Y-96513849D01*
X129536309Y-96418611D01*
X129536309Y-96037659D01*
X129583928Y-95942421D01*
X129679166Y-95894802D01*
X129869642Y-95894802D01*
X129964880Y-95942421D01*
X130012500Y-96037659D01*
X130012500Y-96132897D01*
X129536309Y-96228135D01*
X130393452Y-96513849D02*
X130488690Y-96561468D01*
X130679166Y-96561468D01*
X130774404Y-96513849D01*
X130822023Y-96418611D01*
X130822023Y-96370992D01*
X130774404Y-96275754D01*
X130679166Y-96228135D01*
X130536309Y-96228135D01*
X130441071Y-96180516D01*
X130393452Y-96085278D01*
X130393452Y-96037659D01*
X130441071Y-95942421D01*
X130536309Y-95894802D01*
X130679166Y-95894802D01*
X130774404Y-95942421D01*
X131250595Y-96561468D02*
X131250595Y-95894802D01*
X131250595Y-95561468D02*
X131202976Y-95609088D01*
X131250595Y-95656707D01*
X131298214Y-95609088D01*
X131250595Y-95561468D01*
X131250595Y-95656707D01*
X132155357Y-95894802D02*
X132155357Y-96704326D01*
X132107738Y-96799564D01*
X132060119Y-96847183D01*
X131964880Y-96894802D01*
X131822023Y-96894802D01*
X131726785Y-96847183D01*
X132155357Y-96513849D02*
X132060119Y-96561468D01*
X131869642Y-96561468D01*
X131774404Y-96513849D01*
X131726785Y-96466230D01*
X131679166Y-96370992D01*
X131679166Y-96085278D01*
X131726785Y-95990040D01*
X131774404Y-95942421D01*
X131869642Y-95894802D01*
X132060119Y-95894802D01*
X132155357Y-95942421D01*
X132631547Y-95894802D02*
X132631547Y-96561468D01*
X132631547Y-95990040D02*
X132679166Y-95942421D01*
X132774404Y-95894802D01*
X132917261Y-95894802D01*
X133012500Y-95942421D01*
X133060119Y-96037659D01*
X133060119Y-96561468D01*
X133917261Y-96513849D02*
X133822023Y-96561468D01*
X133631547Y-96561468D01*
X133536309Y-96513849D01*
X133488690Y-96418611D01*
X133488690Y-96037659D01*
X133536309Y-95942421D01*
X133631547Y-95894802D01*
X133822023Y-95894802D01*
X133917261Y-95942421D01*
X133964880Y-96037659D01*
X133964880Y-96132897D01*
X133488690Y-96228135D01*
X134822023Y-96561468D02*
X134822023Y-95561468D01*
X134822023Y-96513849D02*
X134726785Y-96561468D01*
X134536309Y-96561468D01*
X134441071Y-96513849D01*
X134393452Y-96466230D01*
X134345833Y-96370992D01*
X134345833Y-96085278D01*
X134393452Y-95990040D01*
X134441071Y-95942421D01*
X134536309Y-95894802D01*
X134726785Y-95894802D01*
X134822023Y-95942421D01*
X136060119Y-96561468D02*
X136060119Y-95561468D01*
X136060119Y-95942421D02*
X136155357Y-95894802D01*
X136345833Y-95894802D01*
X136441071Y-95942421D01*
X136488690Y-95990040D01*
X136536309Y-96085278D01*
X136536309Y-96370992D01*
X136488690Y-96466230D01*
X136441071Y-96513849D01*
X136345833Y-96561468D01*
X136155357Y-96561468D01*
X136060119Y-96513849D01*
X136869642Y-95894802D02*
X137107738Y-96561468D01*
X137345833Y-95894802D02*
X137107738Y-96561468D01*
X137012500Y-96799564D01*
X136964880Y-96847183D01*
X136869642Y-96894802D01*
X139060119Y-96466230D02*
X139012500Y-96513849D01*
X138869642Y-96561468D01*
X138774404Y-96561468D01*
X138631547Y-96513849D01*
X138536309Y-96418611D01*
X138488690Y-96323373D01*
X138441071Y-96132897D01*
X138441071Y-95990040D01*
X138488690Y-95799564D01*
X138536309Y-95704326D01*
X138631547Y-95609088D01*
X138774404Y-95561468D01*
X138869642Y-95561468D01*
X139012500Y-95609088D01*
X139060119Y-95656707D01*
X139631547Y-96561468D02*
X139536309Y-96513849D01*
X139488690Y-96466230D01*
X139441071Y-96370992D01*
X139441071Y-96085278D01*
X139488690Y-95990040D01*
X139536309Y-95942421D01*
X139631547Y-95894802D01*
X139774404Y-95894802D01*
X139869642Y-95942421D01*
X139917261Y-95990040D01*
X139964880Y-96085278D01*
X139964880Y-96370992D01*
X139917261Y-96466230D01*
X139869642Y-96513849D01*
X139774404Y-96561468D01*
X139631547Y-96561468D01*
X140393452Y-95894802D02*
X140393452Y-96561468D01*
X140393452Y-95990040D02*
X140441071Y-95942421D01*
X140536309Y-95894802D01*
X140679166Y-95894802D01*
X140774404Y-95942421D01*
X140822023Y-96037659D01*
X140822023Y-96561468D01*
X141298214Y-95894802D02*
X141298214Y-96561468D01*
X141298214Y-95990040D02*
X141345833Y-95942421D01*
X141441071Y-95894802D01*
X141583928Y-95894802D01*
X141679166Y-95942421D01*
X141726785Y-96037659D01*
X141726785Y-96561468D01*
X142345833Y-96561468D02*
X142250595Y-96513849D01*
X142202976Y-96466230D01*
X142155357Y-96370992D01*
X142155357Y-96085278D01*
X142202976Y-95990040D01*
X142250595Y-95942421D01*
X142345833Y-95894802D01*
X142488690Y-95894802D01*
X142583928Y-95942421D01*
X142631547Y-95990040D01*
X142679166Y-96085278D01*
X142679166Y-96370992D01*
X142631547Y-96466230D01*
X142583928Y-96513849D01*
X142488690Y-96561468D01*
X142345833Y-96561468D01*
X143107738Y-96561468D02*
X143107738Y-95894802D01*
X143107738Y-96085278D02*
X143155357Y-95990040D01*
X143202976Y-95942421D01*
X143298214Y-95894802D01*
X143393452Y-95894802D01*
X145060119Y-96561468D02*
X144726785Y-96085278D01*
X144488690Y-96561468D02*
X144488690Y-95561468D01*
X144869642Y-95561468D01*
X144964880Y-95609088D01*
X145012500Y-95656707D01*
X145060119Y-95751945D01*
X145060119Y-95894802D01*
X145012500Y-95990040D01*
X144964880Y-96037659D01*
X144869642Y-96085278D01*
X144488690Y-96085278D01*
X145488690Y-96561468D02*
X145488690Y-95894802D01*
X145488690Y-95561468D02*
X145441071Y-95609088D01*
X145488690Y-95656707D01*
X145536309Y-95609088D01*
X145488690Y-95561468D01*
X145488690Y-95656707D01*
X146393452Y-95894802D02*
X146393452Y-96704326D01*
X146345833Y-96799564D01*
X146298214Y-96847183D01*
X146202976Y-96894802D01*
X146060119Y-96894802D01*
X145964880Y-96847183D01*
X146393452Y-96513849D02*
X146298214Y-96561468D01*
X146107738Y-96561468D01*
X146012500Y-96513849D01*
X145964880Y-96466230D01*
X145917261Y-96370992D01*
X145917261Y-96085278D01*
X145964880Y-95990040D01*
X146012500Y-95942421D01*
X146107738Y-95894802D01*
X146298214Y-95894802D01*
X146393452Y-95942421D01*
X146869642Y-96561468D02*
X146869642Y-95561468D01*
X146869642Y-95942421D02*
X146964880Y-95894802D01*
X147155357Y-95894802D01*
X147250595Y-95942421D01*
X147298214Y-95990040D01*
X147345833Y-96085278D01*
X147345833Y-96370992D01*
X147298214Y-96466230D01*
X147250595Y-96513849D01*
X147155357Y-96561468D01*
X146964880Y-96561468D01*
X146869642Y-96513849D01*
X147679166Y-95894802D02*
X147917261Y-96561468D01*
X148155357Y-95894802D02*
X147917261Y-96561468D01*
X147822023Y-96799564D01*
X147774404Y-96847183D01*
X147679166Y-96894802D01*
X149250595Y-95656707D02*
X149298214Y-95609088D01*
X149393452Y-95561468D01*
X149631547Y-95561468D01*
X149726785Y-95609088D01*
X149774404Y-95656707D01*
X149822023Y-95751945D01*
X149822023Y-95847183D01*
X149774404Y-95990040D01*
X149202976Y-96561468D01*
X149822023Y-96561468D01*
X150441071Y-95561468D02*
X150536309Y-95561468D01*
X150631547Y-95609088D01*
X150679166Y-95656707D01*
X150726785Y-95751945D01*
X150774404Y-95942421D01*
X150774404Y-96180516D01*
X150726785Y-96370992D01*
X150679166Y-96466230D01*
X150631547Y-96513849D01*
X150536309Y-96561468D01*
X150441071Y-96561468D01*
X150345833Y-96513849D01*
X150298214Y-96466230D01*
X150250595Y-96370992D01*
X150202976Y-96180516D01*
X150202976Y-95942421D01*
X150250595Y-95751945D01*
X150298214Y-95656707D01*
X150345833Y-95609088D01*
X150441071Y-95561468D01*
X151155357Y-95656707D02*
X151202976Y-95609088D01*
X151298214Y-95561468D01*
X151536309Y-95561468D01*
X151631547Y-95609088D01*
X151679166Y-95656707D01*
X151726785Y-95751945D01*
X151726785Y-95847183D01*
X151679166Y-95990040D01*
X151107738Y-96561468D01*
X151726785Y-96561468D01*
X152107738Y-95656707D02*
X152155357Y-95609088D01*
X152250595Y-95561468D01*
X152488690Y-95561468D01*
X152583928Y-95609088D01*
X152631547Y-95656707D01*
X152679166Y-95751945D01*
X152679166Y-95847183D01*
X152631547Y-95990040D01*
X152060119Y-96561468D01*
X152679166Y-96561468D01*
D10*
X111575089Y-45764761D02*
X111711994Y-45812380D01*
X111950089Y-45812380D01*
X112051279Y-45764761D01*
X112104851Y-45717142D01*
X112164375Y-45621904D01*
X112176279Y-45526666D01*
X112140565Y-45431428D01*
X112098898Y-45383809D01*
X112009613Y-45336190D01*
X111825089Y-45288571D01*
X111735803Y-45240952D01*
X111694136Y-45193333D01*
X111658422Y-45098095D01*
X111670327Y-45002857D01*
X111729851Y-44907619D01*
X111783422Y-44860000D01*
X111884613Y-44812380D01*
X112122708Y-44812380D01*
X112259613Y-44860000D01*
X112551279Y-44812380D02*
X113122708Y-44812380D01*
X112711994Y-45812380D02*
X112836994Y-44812380D01*
X113319136Y-45526666D02*
X113795327Y-45526666D01*
X113188184Y-45812380D02*
X113646517Y-44812380D01*
X113854851Y-45812380D01*
X114170327Y-44812380D02*
X114741755Y-44812380D01*
X114331041Y-45812380D02*
X114456041Y-44812380D01*
X115075089Y-44812380D02*
X114973898Y-45621904D01*
X115009613Y-45717142D01*
X115051279Y-45764761D01*
X115140565Y-45812380D01*
X115331041Y-45812380D01*
X115432232Y-45764761D01*
X115485803Y-45717142D01*
X115545327Y-45621904D01*
X115646517Y-44812380D01*
X115956041Y-45764761D02*
X116092946Y-45812380D01*
X116331041Y-45812380D01*
X116432232Y-45764761D01*
X116485803Y-45717142D01*
X116545327Y-45621904D01*
X116557232Y-45526666D01*
X116521517Y-45431428D01*
X116479851Y-45383809D01*
X116390565Y-45336190D01*
X116206041Y-45288571D01*
X116116755Y-45240952D01*
X116075089Y-45193333D01*
X116039375Y-45098095D01*
X116051279Y-45002857D01*
X116110803Y-44907619D01*
X116164375Y-44860000D01*
X116265565Y-44812380D01*
X116503660Y-44812380D01*
X116640565Y-44860000D01*
X98757142Y-88056230D02*
X98709523Y-88103849D01*
X98566666Y-88151468D01*
X98471428Y-88151468D01*
X98328571Y-88103849D01*
X98233333Y-88008611D01*
X98185714Y-87913373D01*
X98138095Y-87722897D01*
X98138095Y-87580040D01*
X98185714Y-87389564D01*
X98233333Y-87294326D01*
X98328571Y-87199088D01*
X98471428Y-87151468D01*
X98566666Y-87151468D01*
X98709523Y-87199088D01*
X98757142Y-87246707D01*
X99138095Y-87865754D02*
X99614285Y-87865754D01*
X99042857Y-88151468D02*
X99376190Y-87151468D01*
X99709523Y-88151468D01*
X100042857Y-88151468D02*
X100042857Y-87151468D01*
X100614285Y-88151468D01*
X100614285Y-87151468D01*
X106752380Y-29003005D02*
X107752380Y-28794672D01*
X106752380Y-28336339D01*
X107657142Y-27544672D02*
X107704761Y-27598244D01*
X107752380Y-27747053D01*
X107752380Y-27842291D01*
X107704761Y-27979196D01*
X107609523Y-28062529D01*
X107514285Y-28098244D01*
X107323809Y-28122053D01*
X107180952Y-28104196D01*
X106990476Y-28032767D01*
X106895238Y-27973244D01*
X106800000Y-27866101D01*
X106752380Y-27717291D01*
X106752380Y-27622053D01*
X106800000Y-27485148D01*
X106847619Y-27443482D01*
X107657142Y-26544672D02*
X107704761Y-26598244D01*
X107752380Y-26747053D01*
X107752380Y-26842291D01*
X107704761Y-26979196D01*
X107609523Y-27062529D01*
X107514285Y-27098244D01*
X107323809Y-27122053D01*
X107180952Y-27104196D01*
X106990476Y-27032767D01*
X106895238Y-26973244D01*
X106800000Y-26866101D01*
X106752380Y-26717291D01*
X106752380Y-26622053D01*
X106800000Y-26485148D01*
X106847619Y-26443482D01*
X126280327Y-26927659D02*
X126417232Y-26975278D01*
X126458898Y-27022897D01*
X126494613Y-27118135D01*
X126476755Y-27260992D01*
X126417232Y-27356230D01*
X126363660Y-27403849D01*
X126262470Y-27451468D01*
X125881517Y-27451468D01*
X126006517Y-26451468D01*
X126339851Y-26451468D01*
X126429136Y-26499088D01*
X126470803Y-26546707D01*
X126506517Y-26641945D01*
X126494613Y-26737183D01*
X126435089Y-26832421D01*
X126381517Y-26880040D01*
X126280327Y-26927659D01*
X125946994Y-26927659D01*
X126863660Y-26451468D02*
X127435089Y-26451468D01*
X127024375Y-27451468D02*
X127149375Y-26451468D01*
X127643422Y-27451468D02*
X127768422Y-26451468D01*
X128214851Y-27451468D01*
X128339851Y-26451468D01*
X129518422Y-26546707D02*
X129571994Y-26499088D01*
X129673184Y-26451468D01*
X129911279Y-26451468D01*
X130000565Y-26499088D01*
X130042232Y-26546707D01*
X130077946Y-26641945D01*
X130066041Y-26737183D01*
X130000565Y-26880040D01*
X129357708Y-27451468D01*
X129976755Y-27451468D01*
X104152380Y-28031577D02*
X104152380Y-27460148D01*
X105152380Y-27870863D02*
X104152380Y-27745863D01*
X104152380Y-27222053D02*
X105152380Y-26680386D01*
X104152380Y-26555386D02*
X105152380Y-27347053D01*
D12*
X137355357Y-98075278D02*
X137355357Y-97575278D01*
X137569642Y-98075278D02*
X137569642Y-97813373D01*
X137545833Y-97765754D01*
X137498214Y-97741945D01*
X137426785Y-97741945D01*
X137379166Y-97765754D01*
X137355357Y-97789564D01*
X137736309Y-97741945D02*
X137926785Y-97741945D01*
X137807738Y-97575278D02*
X137807738Y-98003849D01*
X137831547Y-98051468D01*
X137879166Y-98075278D01*
X137926785Y-98075278D01*
X138022023Y-97741945D02*
X138212500Y-97741945D01*
X138093452Y-97575278D02*
X138093452Y-98003849D01*
X138117261Y-98051468D01*
X138164880Y-98075278D01*
X138212500Y-98075278D01*
X138379166Y-97741945D02*
X138379166Y-98241945D01*
X138379166Y-97765754D02*
X138426785Y-97741945D01*
X138522023Y-97741945D01*
X138569642Y-97765754D01*
X138593452Y-97789564D01*
X138617261Y-97837183D01*
X138617261Y-97980040D01*
X138593452Y-98027659D01*
X138569642Y-98051468D01*
X138522023Y-98075278D01*
X138426785Y-98075278D01*
X138379166Y-98051468D01*
X138807738Y-98051468D02*
X138855357Y-98075278D01*
X138950595Y-98075278D01*
X138998214Y-98051468D01*
X139022023Y-98003849D01*
X139022023Y-97980040D01*
X138998214Y-97932421D01*
X138950595Y-97908611D01*
X138879166Y-97908611D01*
X138831547Y-97884802D01*
X138807738Y-97837183D01*
X138807738Y-97813373D01*
X138831547Y-97765754D01*
X138879166Y-97741945D01*
X138950595Y-97741945D01*
X138998214Y-97765754D01*
X139236309Y-98027659D02*
X139260119Y-98051468D01*
X139236309Y-98075278D01*
X139212500Y-98051468D01*
X139236309Y-98027659D01*
X139236309Y-98075278D01*
X139236309Y-97765754D02*
X139260119Y-97789564D01*
X139236309Y-97813373D01*
X139212500Y-97789564D01*
X139236309Y-97765754D01*
X139236309Y-97813373D01*
X139831547Y-97551468D02*
X139402976Y-98194326D01*
X140355357Y-97551468D02*
X139926785Y-98194326D01*
X140736309Y-97741945D02*
X140736309Y-98146707D01*
X140712500Y-98194326D01*
X140688690Y-98218135D01*
X140641071Y-98241945D01*
X140569642Y-98241945D01*
X140522023Y-98218135D01*
X140736309Y-98051468D02*
X140688690Y-98075278D01*
X140593452Y-98075278D01*
X140545833Y-98051468D01*
X140522023Y-98027659D01*
X140498214Y-97980040D01*
X140498214Y-97837183D01*
X140522023Y-97789564D01*
X140545833Y-97765754D01*
X140593452Y-97741945D01*
X140688690Y-97741945D01*
X140736309Y-97765754D01*
X140974404Y-98075278D02*
X140974404Y-97741945D01*
X140974404Y-97575278D02*
X140950595Y-97599088D01*
X140974404Y-97622897D01*
X140998214Y-97599088D01*
X140974404Y-97575278D01*
X140974404Y-97622897D01*
X141141071Y-97741945D02*
X141331547Y-97741945D01*
X141212500Y-97575278D02*
X141212500Y-98003849D01*
X141236309Y-98051468D01*
X141283928Y-98075278D01*
X141331547Y-98075278D01*
X141498214Y-98075278D02*
X141498214Y-97575278D01*
X141712500Y-98075278D02*
X141712500Y-97813373D01*
X141688690Y-97765754D01*
X141641071Y-97741945D01*
X141569642Y-97741945D01*
X141522023Y-97765754D01*
X141498214Y-97789564D01*
X142164880Y-97741945D02*
X142164880Y-98075278D01*
X141950595Y-97741945D02*
X141950595Y-98003849D01*
X141974404Y-98051468D01*
X142022023Y-98075278D01*
X142093452Y-98075278D01*
X142141071Y-98051468D01*
X142164880Y-98027659D01*
X142402976Y-98075278D02*
X142402976Y-97575278D01*
X142402976Y-97765754D02*
X142450595Y-97741945D01*
X142545833Y-97741945D01*
X142593452Y-97765754D01*
X142617261Y-97789564D01*
X142641071Y-97837183D01*
X142641071Y-97980040D01*
X142617261Y-98027659D01*
X142593452Y-98051468D01*
X142545833Y-98075278D01*
X142450595Y-98075278D01*
X142402976Y-98051468D01*
X142855357Y-98027659D02*
X142879166Y-98051468D01*
X142855357Y-98075278D01*
X142831547Y-98051468D01*
X142855357Y-98027659D01*
X142855357Y-98075278D01*
X143307738Y-98051468D02*
X143260119Y-98075278D01*
X143164880Y-98075278D01*
X143117261Y-98051468D01*
X143093452Y-98027659D01*
X143069642Y-97980040D01*
X143069642Y-97837183D01*
X143093452Y-97789564D01*
X143117261Y-97765754D01*
X143164880Y-97741945D01*
X143260119Y-97741945D01*
X143307738Y-97765754D01*
X143593452Y-98075278D02*
X143545833Y-98051468D01*
X143522023Y-98027659D01*
X143498214Y-97980040D01*
X143498214Y-97837183D01*
X143522023Y-97789564D01*
X143545833Y-97765754D01*
X143593452Y-97741945D01*
X143664880Y-97741945D01*
X143712500Y-97765754D01*
X143736309Y-97789564D01*
X143760119Y-97837183D01*
X143760119Y-97980040D01*
X143736309Y-98027659D01*
X143712500Y-98051468D01*
X143664880Y-98075278D01*
X143593452Y-98075278D01*
X143974404Y-98075278D02*
X143974404Y-97741945D01*
X143974404Y-97789564D02*
X143998214Y-97765754D01*
X144045833Y-97741945D01*
X144117261Y-97741945D01*
X144164880Y-97765754D01*
X144188690Y-97813373D01*
X144188690Y-98075278D01*
X144188690Y-97813373D02*
X144212500Y-97765754D01*
X144260119Y-97741945D01*
X144331547Y-97741945D01*
X144379166Y-97765754D01*
X144402976Y-97813373D01*
X144402976Y-98075278D01*
X144998214Y-97551468D02*
X144569642Y-98194326D01*
X145450595Y-98027659D02*
X145426785Y-98051468D01*
X145355357Y-98075278D01*
X145307738Y-98075278D01*
X145236309Y-98051468D01*
X145188690Y-98003849D01*
X145164880Y-97956230D01*
X145141071Y-97860992D01*
X145141071Y-97789564D01*
X145164880Y-97694326D01*
X145188690Y-97646707D01*
X145236309Y-97599088D01*
X145307738Y-97575278D01*
X145355357Y-97575278D01*
X145426785Y-97599088D01*
X145450595Y-97622897D01*
X145736309Y-98075278D02*
X145688690Y-98051468D01*
X145664880Y-98027659D01*
X145641071Y-97980040D01*
X145641071Y-97837183D01*
X145664880Y-97789564D01*
X145688690Y-97765754D01*
X145736309Y-97741945D01*
X145807738Y-97741945D01*
X145855357Y-97765754D01*
X145879166Y-97789564D01*
X145902976Y-97837183D01*
X145902976Y-97980040D01*
X145879166Y-98027659D01*
X145855357Y-98051468D01*
X145807738Y-98075278D01*
X145736309Y-98075278D01*
X146117261Y-97741945D02*
X146117261Y-98075278D01*
X146117261Y-97789564D02*
X146141071Y-97765754D01*
X146188690Y-97741945D01*
X146260119Y-97741945D01*
X146307738Y-97765754D01*
X146331547Y-97813373D01*
X146331547Y-98075278D01*
X146569642Y-97741945D02*
X146569642Y-98075278D01*
X146569642Y-97789564D02*
X146593452Y-97765754D01*
X146641071Y-97741945D01*
X146712500Y-97741945D01*
X146760119Y-97765754D01*
X146783928Y-97813373D01*
X146783928Y-98075278D01*
X147093452Y-98075278D02*
X147045833Y-98051468D01*
X147022023Y-98027659D01*
X146998214Y-97980040D01*
X146998214Y-97837183D01*
X147022023Y-97789564D01*
X147045833Y-97765754D01*
X147093452Y-97741945D01*
X147164880Y-97741945D01*
X147212500Y-97765754D01*
X147236309Y-97789564D01*
X147260119Y-97837183D01*
X147260119Y-97980040D01*
X147236309Y-98027659D01*
X147212500Y-98051468D01*
X147164880Y-98075278D01*
X147093452Y-98075278D01*
X147474404Y-98075278D02*
X147474404Y-97741945D01*
X147474404Y-97837183D02*
X147498214Y-97789564D01*
X147522023Y-97765754D01*
X147569642Y-97741945D01*
X147617261Y-97741945D01*
X148069642Y-98075278D02*
X147902976Y-97837183D01*
X147783928Y-98075278D02*
X147783928Y-97575278D01*
X147974404Y-97575278D01*
X148022023Y-97599088D01*
X148045833Y-97622897D01*
X148069642Y-97670516D01*
X148069642Y-97741945D01*
X148045833Y-97789564D01*
X148022023Y-97813373D01*
X147974404Y-97837183D01*
X147783928Y-97837183D01*
X148283928Y-98075278D02*
X148283928Y-97741945D01*
X148283928Y-97575278D02*
X148260119Y-97599088D01*
X148283928Y-97622897D01*
X148307738Y-97599088D01*
X148283928Y-97575278D01*
X148283928Y-97622897D01*
X148736309Y-97741945D02*
X148736309Y-98146707D01*
X148712500Y-98194326D01*
X148688690Y-98218135D01*
X148641071Y-98241945D01*
X148569642Y-98241945D01*
X148522023Y-98218135D01*
X148736309Y-98051468D02*
X148688690Y-98075278D01*
X148593452Y-98075278D01*
X148545833Y-98051468D01*
X148522023Y-98027659D01*
X148498214Y-97980040D01*
X148498214Y-97837183D01*
X148522023Y-97789564D01*
X148545833Y-97765754D01*
X148593452Y-97741945D01*
X148688690Y-97741945D01*
X148736309Y-97765754D01*
X148974404Y-98075278D02*
X148974404Y-97575278D01*
X148974404Y-97765754D02*
X149022023Y-97741945D01*
X149117261Y-97741945D01*
X149164880Y-97765754D01*
X149188690Y-97789564D01*
X149212500Y-97837183D01*
X149212500Y-97980040D01*
X149188690Y-98027659D01*
X149164880Y-98051468D01*
X149117261Y-98075278D01*
X149022023Y-98075278D01*
X148974404Y-98051468D01*
X149379166Y-97741945D02*
X149498214Y-98075278D01*
X149617261Y-97741945D02*
X149498214Y-98075278D01*
X149450595Y-98194326D01*
X149426785Y-98218135D01*
X149379166Y-98241945D01*
D10*
X117795238Y-26620803D02*
X117747619Y-26757708D01*
X117747619Y-26995803D01*
X117795238Y-27096994D01*
X117842857Y-27150565D01*
X117938095Y-27210089D01*
X118033333Y-27221994D01*
X118128571Y-27186279D01*
X118176190Y-27144613D01*
X118223809Y-27055327D01*
X118271428Y-26870803D01*
X118319047Y-26781517D01*
X118366666Y-26739851D01*
X118461904Y-26704136D01*
X118557142Y-26716041D01*
X118652380Y-26775565D01*
X118700000Y-26829136D01*
X118747619Y-26930327D01*
X118747619Y-27168422D01*
X118700000Y-27305327D01*
X117842857Y-28198184D02*
X117795238Y-28144613D01*
X117747619Y-27995803D01*
X117747619Y-27900565D01*
X117795238Y-27763660D01*
X117890476Y-27680327D01*
X117985714Y-27644613D01*
X118176190Y-27620803D01*
X118319047Y-27638660D01*
X118509523Y-27710089D01*
X118604761Y-27769613D01*
X118700000Y-27876755D01*
X118747619Y-28025565D01*
X118747619Y-28120803D01*
X118700000Y-28257708D01*
X118652380Y-28299375D01*
X117747619Y-29091041D02*
X117747619Y-28614851D01*
X118747619Y-28739851D01*
G04 #@! TO.C,C4*
X147533333Y-57047142D02*
X147485714Y-57094761D01*
X147342857Y-57142380D01*
X147247619Y-57142380D01*
X147104761Y-57094761D01*
X147009523Y-56999523D01*
X146961904Y-56904285D01*
X146914285Y-56713809D01*
X146914285Y-56570952D01*
X146961904Y-56380476D01*
X147009523Y-56285238D01*
X147104761Y-56190000D01*
X147247619Y-56142380D01*
X147342857Y-56142380D01*
X147485714Y-56190000D01*
X147533333Y-56237619D01*
X148390476Y-56475714D02*
X148390476Y-57142380D01*
X148152380Y-56094761D02*
X147914285Y-56809047D01*
X148533333Y-56809047D01*
G04 #@! TO.C,U9*
X151542380Y-53414404D02*
X152351904Y-53414404D01*
X152447142Y-53366785D01*
X152494761Y-53319166D01*
X152542380Y-53223928D01*
X152542380Y-53033452D01*
X152494761Y-52938214D01*
X152447142Y-52890595D01*
X152351904Y-52842976D01*
X151542380Y-52842976D01*
X152542380Y-52319166D02*
X152542380Y-52128690D01*
X152494761Y-52033452D01*
X152447142Y-51985833D01*
X152304285Y-51890595D01*
X152113809Y-51842976D01*
X151732857Y-51842976D01*
X151637619Y-51890595D01*
X151590000Y-51938214D01*
X151542380Y-52033452D01*
X151542380Y-52223928D01*
X151590000Y-52319166D01*
X151637619Y-52366785D01*
X151732857Y-52414404D01*
X151970952Y-52414404D01*
X152066190Y-52366785D01*
X152113809Y-52319166D01*
X152161428Y-52223928D01*
X152161428Y-52033452D01*
X152113809Y-51938214D01*
X152066190Y-51890595D01*
X151970952Y-51842976D01*
G04 #@! TO.C,Q4*
X140604761Y-79146707D02*
X140509523Y-79099088D01*
X140414285Y-79003849D01*
X140271428Y-78860992D01*
X140176190Y-78813373D01*
X140080952Y-78813373D01*
X140128571Y-79051468D02*
X140033333Y-79003849D01*
X139938095Y-78908611D01*
X139890476Y-78718135D01*
X139890476Y-78384802D01*
X139938095Y-78194326D01*
X140033333Y-78099088D01*
X140128571Y-78051468D01*
X140319047Y-78051468D01*
X140414285Y-78099088D01*
X140509523Y-78194326D01*
X140557142Y-78384802D01*
X140557142Y-78718135D01*
X140509523Y-78908611D01*
X140414285Y-79003849D01*
X140319047Y-79051468D01*
X140128571Y-79051468D01*
X141414285Y-78384802D02*
X141414285Y-79051468D01*
X141176190Y-78003849D02*
X140938095Y-78718135D01*
X141557142Y-78718135D01*
G04 #@! TO.C,Q3*
X140804761Y-85546707D02*
X140709523Y-85499088D01*
X140614285Y-85403849D01*
X140471428Y-85260992D01*
X140376190Y-85213373D01*
X140280952Y-85213373D01*
X140328571Y-85451468D02*
X140233333Y-85403849D01*
X140138095Y-85308611D01*
X140090476Y-85118135D01*
X140090476Y-84784802D01*
X140138095Y-84594326D01*
X140233333Y-84499088D01*
X140328571Y-84451468D01*
X140519047Y-84451468D01*
X140614285Y-84499088D01*
X140709523Y-84594326D01*
X140757142Y-84784802D01*
X140757142Y-85118135D01*
X140709523Y-85308611D01*
X140614285Y-85403849D01*
X140519047Y-85451468D01*
X140328571Y-85451468D01*
X141090476Y-84451468D02*
X141709523Y-84451468D01*
X141376190Y-84832421D01*
X141519047Y-84832421D01*
X141614285Y-84880040D01*
X141661904Y-84927659D01*
X141709523Y-85022897D01*
X141709523Y-85260992D01*
X141661904Y-85356230D01*
X141614285Y-85403849D01*
X141519047Y-85451468D01*
X141233333Y-85451468D01*
X141138095Y-85403849D01*
X141090476Y-85356230D01*
G04 #@! TO.C,U8*
X86438095Y-89651468D02*
X86438095Y-90460992D01*
X86485714Y-90556230D01*
X86533333Y-90603849D01*
X86628571Y-90651468D01*
X86819047Y-90651468D01*
X86914285Y-90603849D01*
X86961904Y-90556230D01*
X87009523Y-90460992D01*
X87009523Y-89651468D01*
X87628571Y-90080040D02*
X87533333Y-90032421D01*
X87485714Y-89984802D01*
X87438095Y-89889564D01*
X87438095Y-89841945D01*
X87485714Y-89746707D01*
X87533333Y-89699088D01*
X87628571Y-89651468D01*
X87819047Y-89651468D01*
X87914285Y-89699088D01*
X87961904Y-89746707D01*
X88009523Y-89841945D01*
X88009523Y-89889564D01*
X87961904Y-89984802D01*
X87914285Y-90032421D01*
X87819047Y-90080040D01*
X87628571Y-90080040D01*
X87533333Y-90127659D01*
X87485714Y-90175278D01*
X87438095Y-90270516D01*
X87438095Y-90460992D01*
X87485714Y-90556230D01*
X87533333Y-90603849D01*
X87628571Y-90651468D01*
X87819047Y-90651468D01*
X87914285Y-90603849D01*
X87961904Y-90556230D01*
X88009523Y-90460992D01*
X88009523Y-90270516D01*
X87961904Y-90175278D01*
X87914285Y-90127659D01*
X87819047Y-90080040D01*
G04 #@! TO.C,D1*
X153061904Y-68951468D02*
X153061904Y-67951468D01*
X153300000Y-67951468D01*
X153442857Y-67999088D01*
X153538095Y-68094326D01*
X153585714Y-68189564D01*
X153633333Y-68380040D01*
X153633333Y-68522897D01*
X153585714Y-68713373D01*
X153538095Y-68808611D01*
X153442857Y-68903849D01*
X153300000Y-68951468D01*
X153061904Y-68951468D01*
X154585714Y-68951468D02*
X154014285Y-68951468D01*
X154300000Y-68951468D02*
X154300000Y-67951468D01*
X154204761Y-68094326D01*
X154109523Y-68189564D01*
X154014285Y-68237183D01*
G04 #@! TO.C,D316*
X126322023Y-78951468D02*
X126322023Y-77951468D01*
X126560119Y-77951468D01*
X126702976Y-77999088D01*
X126798214Y-78094326D01*
X126845833Y-78189564D01*
X126893452Y-78380040D01*
X126893452Y-78522897D01*
X126845833Y-78713373D01*
X126798214Y-78808611D01*
X126702976Y-78903849D01*
X126560119Y-78951468D01*
X126322023Y-78951468D01*
X127226785Y-77951468D02*
X127845833Y-77951468D01*
X127512500Y-78332421D01*
X127655357Y-78332421D01*
X127750595Y-78380040D01*
X127798214Y-78427659D01*
X127845833Y-78522897D01*
X127845833Y-78760992D01*
X127798214Y-78856230D01*
X127750595Y-78903849D01*
X127655357Y-78951468D01*
X127369642Y-78951468D01*
X127274404Y-78903849D01*
X127226785Y-78856230D01*
X128798214Y-78951468D02*
X128226785Y-78951468D01*
X128512500Y-78951468D02*
X128512500Y-77951468D01*
X128417261Y-78094326D01*
X128322023Y-78189564D01*
X128226785Y-78237183D01*
X129655357Y-77951468D02*
X129464880Y-77951468D01*
X129369642Y-77999088D01*
X129322023Y-78046707D01*
X129226785Y-78189564D01*
X129179166Y-78380040D01*
X129179166Y-78760992D01*
X129226785Y-78856230D01*
X129274404Y-78903849D01*
X129369642Y-78951468D01*
X129560119Y-78951468D01*
X129655357Y-78903849D01*
X129702976Y-78856230D01*
X129750595Y-78760992D01*
X129750595Y-78522897D01*
X129702976Y-78427659D01*
X129655357Y-78380040D01*
X129560119Y-78332421D01*
X129369642Y-78332421D01*
X129274404Y-78380040D01*
X129226785Y-78427659D01*
X129179166Y-78522897D01*
G04 #@! TO.C,R2*
X102352380Y-84465754D02*
X101876190Y-84799088D01*
X102352380Y-85037183D02*
X101352380Y-85037183D01*
X101352380Y-84656230D01*
X101400000Y-84560992D01*
X101447619Y-84513373D01*
X101542857Y-84465754D01*
X101685714Y-84465754D01*
X101780952Y-84513373D01*
X101828571Y-84560992D01*
X101876190Y-84656230D01*
X101876190Y-85037183D01*
X101447619Y-84084802D02*
X101400000Y-84037183D01*
X101352380Y-83941945D01*
X101352380Y-83703849D01*
X101400000Y-83608611D01*
X101447619Y-83560992D01*
X101542857Y-83513373D01*
X101638095Y-83513373D01*
X101780952Y-83560992D01*
X102352380Y-84132421D01*
X102352380Y-83513373D01*
G04 #@! TO.C,R307*
X97552380Y-63919047D02*
X97076190Y-64252380D01*
X97552380Y-64490476D02*
X96552380Y-64490476D01*
X96552380Y-64109523D01*
X96600000Y-64014285D01*
X96647619Y-63966666D01*
X96742857Y-63919047D01*
X96885714Y-63919047D01*
X96980952Y-63966666D01*
X97028571Y-64014285D01*
X97076190Y-64109523D01*
X97076190Y-64490476D01*
X96552380Y-63585714D02*
X96552380Y-62966666D01*
X96933333Y-63300000D01*
X96933333Y-63157142D01*
X96980952Y-63061904D01*
X97028571Y-63014285D01*
X97123809Y-62966666D01*
X97361904Y-62966666D01*
X97457142Y-63014285D01*
X97504761Y-63061904D01*
X97552380Y-63157142D01*
X97552380Y-63442857D01*
X97504761Y-63538095D01*
X97457142Y-63585714D01*
X96552380Y-62347619D02*
X96552380Y-62252380D01*
X96600000Y-62157142D01*
X96647619Y-62109523D01*
X96742857Y-62061904D01*
X96933333Y-62014285D01*
X97171428Y-62014285D01*
X97361904Y-62061904D01*
X97457142Y-62109523D01*
X97504761Y-62157142D01*
X97552380Y-62252380D01*
X97552380Y-62347619D01*
X97504761Y-62442857D01*
X97457142Y-62490476D01*
X97361904Y-62538095D01*
X97171428Y-62585714D01*
X96933333Y-62585714D01*
X96742857Y-62538095D01*
X96647619Y-62490476D01*
X96600000Y-62442857D01*
X96552380Y-62347619D01*
X96552380Y-61680952D02*
X96552380Y-61014285D01*
X97552380Y-61442857D01*
G04 #@! TO.C,U5*
X105738095Y-90051468D02*
X105738095Y-90860992D01*
X105785714Y-90956230D01*
X105833333Y-91003849D01*
X105928571Y-91051468D01*
X106119047Y-91051468D01*
X106214285Y-91003849D01*
X106261904Y-90956230D01*
X106309523Y-90860992D01*
X106309523Y-90051468D01*
X107261904Y-90051468D02*
X106785714Y-90051468D01*
X106738095Y-90527659D01*
X106785714Y-90480040D01*
X106880952Y-90432421D01*
X107119047Y-90432421D01*
X107214285Y-90480040D01*
X107261904Y-90527659D01*
X107309523Y-90622897D01*
X107309523Y-90860992D01*
X107261904Y-90956230D01*
X107214285Y-91003849D01*
X107119047Y-91051468D01*
X106880952Y-91051468D01*
X106785714Y-91003849D01*
X106738095Y-90956230D01*
G04 #@! TO.C,R35*
X68357142Y-39252380D02*
X68023809Y-38776190D01*
X67785714Y-39252380D02*
X67785714Y-38252380D01*
X68166666Y-38252380D01*
X68261904Y-38300000D01*
X68309523Y-38347619D01*
X68357142Y-38442857D01*
X68357142Y-38585714D01*
X68309523Y-38680952D01*
X68261904Y-38728571D01*
X68166666Y-38776190D01*
X67785714Y-38776190D01*
X68690476Y-38252380D02*
X69309523Y-38252380D01*
X68976190Y-38633333D01*
X69119047Y-38633333D01*
X69214285Y-38680952D01*
X69261904Y-38728571D01*
X69309523Y-38823809D01*
X69309523Y-39061904D01*
X69261904Y-39157142D01*
X69214285Y-39204761D01*
X69119047Y-39252380D01*
X68833333Y-39252380D01*
X68738095Y-39204761D01*
X68690476Y-39157142D01*
X70214285Y-38252380D02*
X69738095Y-38252380D01*
X69690476Y-38728571D01*
X69738095Y-38680952D01*
X69833333Y-38633333D01*
X70071428Y-38633333D01*
X70166666Y-38680952D01*
X70214285Y-38728571D01*
X70261904Y-38823809D01*
X70261904Y-39061904D01*
X70214285Y-39157142D01*
X70166666Y-39204761D01*
X70071428Y-39252380D01*
X69833333Y-39252380D01*
X69738095Y-39204761D01*
X69690476Y-39157142D01*
G04 #@! TO.C,C34*
X95847969Y-29707106D02*
X95847969Y-29774450D01*
X95780625Y-29909137D01*
X95713282Y-29976480D01*
X95578595Y-30043824D01*
X95443908Y-30043824D01*
X95342893Y-30010152D01*
X95174534Y-29909137D01*
X95073519Y-29808122D01*
X94972503Y-29639763D01*
X94938832Y-29538748D01*
X94938832Y-29404061D01*
X95006175Y-29269374D01*
X95073519Y-29202030D01*
X95208206Y-29134687D01*
X95275549Y-29134687D01*
X95443908Y-28831641D02*
X95881641Y-28393908D01*
X95915312Y-28898984D01*
X96016328Y-28797969D01*
X96117343Y-28764297D01*
X96184687Y-28764297D01*
X96285702Y-28797969D01*
X96454061Y-28966328D01*
X96487732Y-29067343D01*
X96487732Y-29134687D01*
X96454061Y-29235702D01*
X96252030Y-29437732D01*
X96151015Y-29471404D01*
X96083671Y-29471404D01*
X96723435Y-28023519D02*
X97194839Y-28494923D01*
X96285702Y-27922503D02*
X96622419Y-28595938D01*
X97060152Y-28158206D01*
G04 #@! TO.C,R309*
X131530952Y-82451468D02*
X131197619Y-81975278D01*
X130959523Y-82451468D02*
X130959523Y-81451468D01*
X131340476Y-81451468D01*
X131435714Y-81499088D01*
X131483333Y-81546707D01*
X131530952Y-81641945D01*
X131530952Y-81784802D01*
X131483333Y-81880040D01*
X131435714Y-81927659D01*
X131340476Y-81975278D01*
X130959523Y-81975278D01*
X131864285Y-81451468D02*
X132483333Y-81451468D01*
X132150000Y-81832421D01*
X132292857Y-81832421D01*
X132388095Y-81880040D01*
X132435714Y-81927659D01*
X132483333Y-82022897D01*
X132483333Y-82260992D01*
X132435714Y-82356230D01*
X132388095Y-82403849D01*
X132292857Y-82451468D01*
X132007142Y-82451468D01*
X131911904Y-82403849D01*
X131864285Y-82356230D01*
X133102380Y-81451468D02*
X133197619Y-81451468D01*
X133292857Y-81499088D01*
X133340476Y-81546707D01*
X133388095Y-81641945D01*
X133435714Y-81832421D01*
X133435714Y-82070516D01*
X133388095Y-82260992D01*
X133340476Y-82356230D01*
X133292857Y-82403849D01*
X133197619Y-82451468D01*
X133102380Y-82451468D01*
X133007142Y-82403849D01*
X132959523Y-82356230D01*
X132911904Y-82260992D01*
X132864285Y-82070516D01*
X132864285Y-81832421D01*
X132911904Y-81641945D01*
X132959523Y-81546707D01*
X133007142Y-81499088D01*
X133102380Y-81451468D01*
X133911904Y-82451468D02*
X134102380Y-82451468D01*
X134197619Y-82403849D01*
X134245238Y-82356230D01*
X134340476Y-82213373D01*
X134388095Y-82022897D01*
X134388095Y-81641945D01*
X134340476Y-81546707D01*
X134292857Y-81499088D01*
X134197619Y-81451468D01*
X134007142Y-81451468D01*
X133911904Y-81499088D01*
X133864285Y-81546707D01*
X133816666Y-81641945D01*
X133816666Y-81880040D01*
X133864285Y-81975278D01*
X133911904Y-82022897D01*
X134007142Y-82070516D01*
X134197619Y-82070516D01*
X134292857Y-82022897D01*
X134340476Y-81975278D01*
X134388095Y-81880040D01*
G04 #@! TO.C,JP8*
X99116666Y-29252380D02*
X99116666Y-29966666D01*
X99069047Y-30109523D01*
X98973809Y-30204761D01*
X98830952Y-30252380D01*
X98735714Y-30252380D01*
X99592857Y-30252380D02*
X99592857Y-29252380D01*
X99973809Y-29252380D01*
X100069047Y-29300000D01*
X100116666Y-29347619D01*
X100164285Y-29442857D01*
X100164285Y-29585714D01*
X100116666Y-29680952D01*
X100069047Y-29728571D01*
X99973809Y-29776190D01*
X99592857Y-29776190D01*
X100735714Y-29680952D02*
X100640476Y-29633333D01*
X100592857Y-29585714D01*
X100545238Y-29490476D01*
X100545238Y-29442857D01*
X100592857Y-29347619D01*
X100640476Y-29300000D01*
X100735714Y-29252380D01*
X100926190Y-29252380D01*
X101021428Y-29300000D01*
X101069047Y-29347619D01*
X101116666Y-29442857D01*
X101116666Y-29490476D01*
X101069047Y-29585714D01*
X101021428Y-29633333D01*
X100926190Y-29680952D01*
X100735714Y-29680952D01*
X100640476Y-29728571D01*
X100592857Y-29776190D01*
X100545238Y-29871428D01*
X100545238Y-30061904D01*
X100592857Y-30157142D01*
X100640476Y-30204761D01*
X100735714Y-30252380D01*
X100926190Y-30252380D01*
X101021428Y-30204761D01*
X101069047Y-30157142D01*
X101116666Y-30061904D01*
X101116666Y-29871428D01*
X101069047Y-29776190D01*
X101021428Y-29728571D01*
X100926190Y-29680952D01*
G04 #@! TO.C,U3*
X105568095Y-72961468D02*
X105568095Y-73770992D01*
X105615714Y-73866230D01*
X105663333Y-73913849D01*
X105758571Y-73961468D01*
X105949047Y-73961468D01*
X106044285Y-73913849D01*
X106091904Y-73866230D01*
X106139523Y-73770992D01*
X106139523Y-72961468D01*
X106520476Y-72961468D02*
X107139523Y-72961468D01*
X106806190Y-73342421D01*
X106949047Y-73342421D01*
X107044285Y-73390040D01*
X107091904Y-73437659D01*
X107139523Y-73532897D01*
X107139523Y-73770992D01*
X107091904Y-73866230D01*
X107044285Y-73913849D01*
X106949047Y-73961468D01*
X106663333Y-73961468D01*
X106568095Y-73913849D01*
X106520476Y-73866230D01*
G04 #@! TO.C,R310*
X131033452Y-78901468D02*
X130700119Y-78425278D01*
X130462023Y-78901468D02*
X130462023Y-77901468D01*
X130842976Y-77901468D01*
X130938214Y-77949088D01*
X130985833Y-77996707D01*
X131033452Y-78091945D01*
X131033452Y-78234802D01*
X130985833Y-78330040D01*
X130938214Y-78377659D01*
X130842976Y-78425278D01*
X130462023Y-78425278D01*
X131366785Y-77901468D02*
X131985833Y-77901468D01*
X131652500Y-78282421D01*
X131795357Y-78282421D01*
X131890595Y-78330040D01*
X131938214Y-78377659D01*
X131985833Y-78472897D01*
X131985833Y-78710992D01*
X131938214Y-78806230D01*
X131890595Y-78853849D01*
X131795357Y-78901468D01*
X131509642Y-78901468D01*
X131414404Y-78853849D01*
X131366785Y-78806230D01*
X132938214Y-78901468D02*
X132366785Y-78901468D01*
X132652500Y-78901468D02*
X132652500Y-77901468D01*
X132557261Y-78044326D01*
X132462023Y-78139564D01*
X132366785Y-78187183D01*
X133557261Y-77901468D02*
X133652500Y-77901468D01*
X133747738Y-77949088D01*
X133795357Y-77996707D01*
X133842976Y-78091945D01*
X133890595Y-78282421D01*
X133890595Y-78520516D01*
X133842976Y-78710992D01*
X133795357Y-78806230D01*
X133747738Y-78853849D01*
X133652500Y-78901468D01*
X133557261Y-78901468D01*
X133462023Y-78853849D01*
X133414404Y-78806230D01*
X133366785Y-78710992D01*
X133319166Y-78520516D01*
X133319166Y-78282421D01*
X133366785Y-78091945D01*
X133414404Y-77996707D01*
X133462023Y-77949088D01*
X133557261Y-77901468D01*
G04 #@! TO.C,R11*
X99102380Y-85479445D02*
X98626190Y-85812778D01*
X99102380Y-86050873D02*
X98102380Y-86050873D01*
X98102380Y-85669921D01*
X98150000Y-85574683D01*
X98197619Y-85527064D01*
X98292857Y-85479445D01*
X98435714Y-85479445D01*
X98530952Y-85527064D01*
X98578571Y-85574683D01*
X98626190Y-85669921D01*
X98626190Y-86050873D01*
X99102380Y-84527064D02*
X99102380Y-85098492D01*
X99102380Y-84812778D02*
X98102380Y-84812778D01*
X98245238Y-84908016D01*
X98340476Y-85003254D01*
X98388095Y-85098492D01*
X99102380Y-83574683D02*
X99102380Y-84146111D01*
X99102380Y-83860397D02*
X98102380Y-83860397D01*
X98245238Y-83955635D01*
X98340476Y-84050873D01*
X98388095Y-84146111D01*
G04 #@! TO.C,C302*
X98380952Y-47057142D02*
X98333333Y-47104761D01*
X98190476Y-47152380D01*
X98095238Y-47152380D01*
X97952380Y-47104761D01*
X97857142Y-47009523D01*
X97809523Y-46914285D01*
X97761904Y-46723809D01*
X97761904Y-46580952D01*
X97809523Y-46390476D01*
X97857142Y-46295238D01*
X97952380Y-46200000D01*
X98095238Y-46152380D01*
X98190476Y-46152380D01*
X98333333Y-46200000D01*
X98380952Y-46247619D01*
X98714285Y-46152380D02*
X99333333Y-46152380D01*
X99000000Y-46533333D01*
X99142857Y-46533333D01*
X99238095Y-46580952D01*
X99285714Y-46628571D01*
X99333333Y-46723809D01*
X99333333Y-46961904D01*
X99285714Y-47057142D01*
X99238095Y-47104761D01*
X99142857Y-47152380D01*
X98857142Y-47152380D01*
X98761904Y-47104761D01*
X98714285Y-47057142D01*
X99952380Y-46152380D02*
X100047619Y-46152380D01*
X100142857Y-46200000D01*
X100190476Y-46247619D01*
X100238095Y-46342857D01*
X100285714Y-46533333D01*
X100285714Y-46771428D01*
X100238095Y-46961904D01*
X100190476Y-47057142D01*
X100142857Y-47104761D01*
X100047619Y-47152380D01*
X99952380Y-47152380D01*
X99857142Y-47104761D01*
X99809523Y-47057142D01*
X99761904Y-46961904D01*
X99714285Y-46771428D01*
X99714285Y-46533333D01*
X99761904Y-46342857D01*
X99809523Y-46247619D01*
X99857142Y-46200000D01*
X99952380Y-46152380D01*
X100666666Y-46247619D02*
X100714285Y-46200000D01*
X100809523Y-46152380D01*
X101047619Y-46152380D01*
X101142857Y-46200000D01*
X101190476Y-46247619D01*
X101238095Y-46342857D01*
X101238095Y-46438095D01*
X101190476Y-46580952D01*
X100619047Y-47152380D01*
X101238095Y-47152380D01*
G04 #@! TO.C,C54*
X152357142Y-34156230D02*
X152309523Y-34203849D01*
X152166666Y-34251468D01*
X152071428Y-34251468D01*
X151928571Y-34203849D01*
X151833333Y-34108611D01*
X151785714Y-34013373D01*
X151738095Y-33822897D01*
X151738095Y-33680040D01*
X151785714Y-33489564D01*
X151833333Y-33394326D01*
X151928571Y-33299088D01*
X152071428Y-33251468D01*
X152166666Y-33251468D01*
X152309523Y-33299088D01*
X152357142Y-33346707D01*
X153261904Y-33251468D02*
X152785714Y-33251468D01*
X152738095Y-33727659D01*
X152785714Y-33680040D01*
X152880952Y-33632421D01*
X153119047Y-33632421D01*
X153214285Y-33680040D01*
X153261904Y-33727659D01*
X153309523Y-33822897D01*
X153309523Y-34060992D01*
X153261904Y-34156230D01*
X153214285Y-34203849D01*
X153119047Y-34251468D01*
X152880952Y-34251468D01*
X152785714Y-34203849D01*
X152738095Y-34156230D01*
X154166666Y-33584802D02*
X154166666Y-34251468D01*
X153928571Y-33203849D02*
X153690476Y-33918135D01*
X154309523Y-33918135D01*
G04 #@! TO.C,C21*
X112107142Y-93856230D02*
X112059523Y-93903849D01*
X111916666Y-93951468D01*
X111821428Y-93951468D01*
X111678571Y-93903849D01*
X111583333Y-93808611D01*
X111535714Y-93713373D01*
X111488095Y-93522897D01*
X111488095Y-93380040D01*
X111535714Y-93189564D01*
X111583333Y-93094326D01*
X111678571Y-92999088D01*
X111821428Y-92951468D01*
X111916666Y-92951468D01*
X112059523Y-92999088D01*
X112107142Y-93046707D01*
X112488095Y-93046707D02*
X112535714Y-92999088D01*
X112630952Y-92951468D01*
X112869047Y-92951468D01*
X112964285Y-92999088D01*
X113011904Y-93046707D01*
X113059523Y-93141945D01*
X113059523Y-93237183D01*
X113011904Y-93380040D01*
X112440476Y-93951468D01*
X113059523Y-93951468D01*
X114011904Y-93951468D02*
X113440476Y-93951468D01*
X113726190Y-93951468D02*
X113726190Y-92951468D01*
X113630952Y-93094326D01*
X113535714Y-93189564D01*
X113440476Y-93237183D01*
G04 #@! TO.C,J301*
X159552380Y-84484802D02*
X160266666Y-84484802D01*
X160409523Y-84532421D01*
X160504761Y-84627659D01*
X160552380Y-84770516D01*
X160552380Y-84865754D01*
X159552380Y-84103849D02*
X159552380Y-83484802D01*
X159933333Y-83818135D01*
X159933333Y-83675278D01*
X159980952Y-83580040D01*
X160028571Y-83532421D01*
X160123809Y-83484802D01*
X160361904Y-83484802D01*
X160457142Y-83532421D01*
X160504761Y-83580040D01*
X160552380Y-83675278D01*
X160552380Y-83960992D01*
X160504761Y-84056230D01*
X160457142Y-84103849D01*
X159552380Y-82865754D02*
X159552380Y-82770516D01*
X159600000Y-82675278D01*
X159647619Y-82627659D01*
X159742857Y-82580040D01*
X159933333Y-82532421D01*
X160171428Y-82532421D01*
X160361904Y-82580040D01*
X160457142Y-82627659D01*
X160504761Y-82675278D01*
X160552380Y-82770516D01*
X160552380Y-82865754D01*
X160504761Y-82960992D01*
X160457142Y-83008611D01*
X160361904Y-83056230D01*
X160171428Y-83103849D01*
X159933333Y-83103849D01*
X159742857Y-83056230D01*
X159647619Y-83008611D01*
X159600000Y-82960992D01*
X159552380Y-82865754D01*
X160552380Y-81580040D02*
X160552380Y-82151468D01*
X160552380Y-81865754D02*
X159552380Y-81865754D01*
X159695238Y-81960992D01*
X159790476Y-82056230D01*
X159838095Y-82151468D01*
G04 #@! TO.C,C11*
X117357142Y-89356230D02*
X117309523Y-89403849D01*
X117166666Y-89451468D01*
X117071428Y-89451468D01*
X116928571Y-89403849D01*
X116833333Y-89308611D01*
X116785714Y-89213373D01*
X116738095Y-89022897D01*
X116738095Y-88880040D01*
X116785714Y-88689564D01*
X116833333Y-88594326D01*
X116928571Y-88499088D01*
X117071428Y-88451468D01*
X117166666Y-88451468D01*
X117309523Y-88499088D01*
X117357142Y-88546707D01*
X118309523Y-89451468D02*
X117738095Y-89451468D01*
X118023809Y-89451468D02*
X118023809Y-88451468D01*
X117928571Y-88594326D01*
X117833333Y-88689564D01*
X117738095Y-88737183D01*
X119261904Y-89451468D02*
X118690476Y-89451468D01*
X118976190Y-89451468D02*
X118976190Y-88451468D01*
X118880952Y-88594326D01*
X118785714Y-88689564D01*
X118690476Y-88737183D01*
G04 #@! TO.C,C16*
X93894642Y-93556230D02*
X93847023Y-93603849D01*
X93704166Y-93651468D01*
X93608928Y-93651468D01*
X93466071Y-93603849D01*
X93370833Y-93508611D01*
X93323214Y-93413373D01*
X93275595Y-93222897D01*
X93275595Y-93080040D01*
X93323214Y-92889564D01*
X93370833Y-92794326D01*
X93466071Y-92699088D01*
X93608928Y-92651468D01*
X93704166Y-92651468D01*
X93847023Y-92699088D01*
X93894642Y-92746707D01*
X94847023Y-93651468D02*
X94275595Y-93651468D01*
X94561309Y-93651468D02*
X94561309Y-92651468D01*
X94466071Y-92794326D01*
X94370833Y-92889564D01*
X94275595Y-92937183D01*
X95704166Y-92651468D02*
X95513690Y-92651468D01*
X95418452Y-92699088D01*
X95370833Y-92746707D01*
X95275595Y-92889564D01*
X95227976Y-93080040D01*
X95227976Y-93460992D01*
X95275595Y-93556230D01*
X95323214Y-93603849D01*
X95418452Y-93651468D01*
X95608928Y-93651468D01*
X95704166Y-93603849D01*
X95751785Y-93556230D01*
X95799404Y-93460992D01*
X95799404Y-93222897D01*
X95751785Y-93127659D01*
X95704166Y-93080040D01*
X95608928Y-93032421D01*
X95418452Y-93032421D01*
X95323214Y-93080040D01*
X95275595Y-93127659D01*
X95227976Y-93222897D01*
G04 #@! TO.C,C305*
X95857142Y-63919047D02*
X95904761Y-63966666D01*
X95952380Y-64109523D01*
X95952380Y-64204761D01*
X95904761Y-64347619D01*
X95809523Y-64442857D01*
X95714285Y-64490476D01*
X95523809Y-64538095D01*
X95380952Y-64538095D01*
X95190476Y-64490476D01*
X95095238Y-64442857D01*
X95000000Y-64347619D01*
X94952380Y-64204761D01*
X94952380Y-64109523D01*
X95000000Y-63966666D01*
X95047619Y-63919047D01*
X94952380Y-63585714D02*
X94952380Y-62966666D01*
X95333333Y-63300000D01*
X95333333Y-63157142D01*
X95380952Y-63061904D01*
X95428571Y-63014285D01*
X95523809Y-62966666D01*
X95761904Y-62966666D01*
X95857142Y-63014285D01*
X95904761Y-63061904D01*
X95952380Y-63157142D01*
X95952380Y-63442857D01*
X95904761Y-63538095D01*
X95857142Y-63585714D01*
X94952380Y-62347619D02*
X94952380Y-62252380D01*
X95000000Y-62157142D01*
X95047619Y-62109523D01*
X95142857Y-62061904D01*
X95333333Y-62014285D01*
X95571428Y-62014285D01*
X95761904Y-62061904D01*
X95857142Y-62109523D01*
X95904761Y-62157142D01*
X95952380Y-62252380D01*
X95952380Y-62347619D01*
X95904761Y-62442857D01*
X95857142Y-62490476D01*
X95761904Y-62538095D01*
X95571428Y-62585714D01*
X95333333Y-62585714D01*
X95142857Y-62538095D01*
X95047619Y-62490476D01*
X95000000Y-62442857D01*
X94952380Y-62347619D01*
X94952380Y-61109523D02*
X94952380Y-61585714D01*
X95428571Y-61633333D01*
X95380952Y-61585714D01*
X95333333Y-61490476D01*
X95333333Y-61252380D01*
X95380952Y-61157142D01*
X95428571Y-61109523D01*
X95523809Y-61061904D01*
X95761904Y-61061904D01*
X95857142Y-61109523D01*
X95904761Y-61157142D01*
X95952380Y-61252380D01*
X95952380Y-61490476D01*
X95904761Y-61585714D01*
X95857142Y-61633333D01*
G04 #@! TO.C,D6*
X27952380Y-63238095D02*
X26952380Y-63238095D01*
X26952380Y-63000000D01*
X27000000Y-62857142D01*
X27095238Y-62761904D01*
X27190476Y-62714285D01*
X27380952Y-62666666D01*
X27523809Y-62666666D01*
X27714285Y-62714285D01*
X27809523Y-62761904D01*
X27904761Y-62857142D01*
X27952380Y-63000000D01*
X27952380Y-63238095D01*
X26952380Y-61809523D02*
X26952380Y-62000000D01*
X27000000Y-62095238D01*
X27047619Y-62142857D01*
X27190476Y-62238095D01*
X27380952Y-62285714D01*
X27761904Y-62285714D01*
X27857142Y-62238095D01*
X27904761Y-62190476D01*
X27952380Y-62095238D01*
X27952380Y-61904761D01*
X27904761Y-61809523D01*
X27857142Y-61761904D01*
X27761904Y-61714285D01*
X27523809Y-61714285D01*
X27428571Y-61761904D01*
X27380952Y-61809523D01*
X27333333Y-61904761D01*
X27333333Y-62095238D01*
X27380952Y-62190476D01*
X27428571Y-62238095D01*
X27523809Y-62285714D01*
G04 #@! TO.C,R21*
X127557142Y-47552380D02*
X127223809Y-47076190D01*
X126985714Y-47552380D02*
X126985714Y-46552380D01*
X127366666Y-46552380D01*
X127461904Y-46600000D01*
X127509523Y-46647619D01*
X127557142Y-46742857D01*
X127557142Y-46885714D01*
X127509523Y-46980952D01*
X127461904Y-47028571D01*
X127366666Y-47076190D01*
X126985714Y-47076190D01*
X127938095Y-46647619D02*
X127985714Y-46600000D01*
X128080952Y-46552380D01*
X128319047Y-46552380D01*
X128414285Y-46600000D01*
X128461904Y-46647619D01*
X128509523Y-46742857D01*
X128509523Y-46838095D01*
X128461904Y-46980952D01*
X127890476Y-47552380D01*
X128509523Y-47552380D01*
X129461904Y-47552380D02*
X128890476Y-47552380D01*
X129176190Y-47552380D02*
X129176190Y-46552380D01*
X129080952Y-46695238D01*
X128985714Y-46790476D01*
X128890476Y-46838095D01*
G04 #@! TO.C,U310*
X84076205Y-43818440D02*
X84076205Y-44630093D01*
X84123950Y-44725582D01*
X84171694Y-44773326D01*
X84267182Y-44821070D01*
X84458160Y-44821070D01*
X84553648Y-44773326D01*
X84601392Y-44725582D01*
X84649137Y-44630093D01*
X84649137Y-43818440D01*
X85031091Y-43818440D02*
X85651767Y-43818440D01*
X85317557Y-44200395D01*
X85460790Y-44200395D01*
X85556278Y-44248139D01*
X85604022Y-44295883D01*
X85651767Y-44391372D01*
X85651767Y-44630093D01*
X85604022Y-44725582D01*
X85556278Y-44773326D01*
X85460790Y-44821070D01*
X85174324Y-44821070D01*
X85078835Y-44773326D01*
X85031091Y-44725582D01*
X86606652Y-44821070D02*
X86033721Y-44821070D01*
X86320187Y-44821070D02*
X86320187Y-43818440D01*
X86224698Y-43961673D01*
X86129210Y-44057162D01*
X86033721Y-44104906D01*
X87227328Y-43818440D02*
X87322817Y-43818440D01*
X87418305Y-43866185D01*
X87466050Y-43913929D01*
X87513794Y-44009417D01*
X87561538Y-44200395D01*
X87561538Y-44439116D01*
X87513794Y-44630093D01*
X87466050Y-44725582D01*
X87418305Y-44773326D01*
X87322817Y-44821070D01*
X87227328Y-44821070D01*
X87131840Y-44773326D01*
X87084095Y-44725582D01*
X87036351Y-44630093D01*
X86988607Y-44439116D01*
X86988607Y-44200395D01*
X87036351Y-44009417D01*
X87084095Y-43913929D01*
X87131840Y-43866185D01*
X87227328Y-43818440D01*
G04 #@! TO.C,R91*
X127557142Y-49052380D02*
X127223809Y-48576190D01*
X126985714Y-49052380D02*
X126985714Y-48052380D01*
X127366666Y-48052380D01*
X127461904Y-48100000D01*
X127509523Y-48147619D01*
X127557142Y-48242857D01*
X127557142Y-48385714D01*
X127509523Y-48480952D01*
X127461904Y-48528571D01*
X127366666Y-48576190D01*
X126985714Y-48576190D01*
X128033333Y-49052380D02*
X128223809Y-49052380D01*
X128319047Y-49004761D01*
X128366666Y-48957142D01*
X128461904Y-48814285D01*
X128509523Y-48623809D01*
X128509523Y-48242857D01*
X128461904Y-48147619D01*
X128414285Y-48100000D01*
X128319047Y-48052380D01*
X128128571Y-48052380D01*
X128033333Y-48100000D01*
X127985714Y-48147619D01*
X127938095Y-48242857D01*
X127938095Y-48480952D01*
X127985714Y-48576190D01*
X128033333Y-48623809D01*
X128128571Y-48671428D01*
X128319047Y-48671428D01*
X128414285Y-48623809D01*
X128461904Y-48576190D01*
X128509523Y-48480952D01*
X129461904Y-49052380D02*
X128890476Y-49052380D01*
X129176190Y-49052380D02*
X129176190Y-48052380D01*
X129080952Y-48195238D01*
X128985714Y-48290476D01*
X128890476Y-48338095D01*
G04 #@! TO.C,C20*
X42833912Y-38529656D02*
X42786293Y-38577275D01*
X42643436Y-38624894D01*
X42548198Y-38624894D01*
X42405341Y-38577275D01*
X42310103Y-38482037D01*
X42262484Y-38386799D01*
X42214865Y-38196323D01*
X42214865Y-38053466D01*
X42262484Y-37862990D01*
X42310103Y-37767752D01*
X42405341Y-37672514D01*
X42548198Y-37624894D01*
X42643436Y-37624894D01*
X42786293Y-37672514D01*
X42833912Y-37720133D01*
X43214865Y-37720133D02*
X43262484Y-37672514D01*
X43357722Y-37624894D01*
X43595817Y-37624894D01*
X43691055Y-37672514D01*
X43738674Y-37720133D01*
X43786293Y-37815371D01*
X43786293Y-37910609D01*
X43738674Y-38053466D01*
X43167246Y-38624894D01*
X43786293Y-38624894D01*
X44405341Y-37624894D02*
X44500579Y-37624894D01*
X44595817Y-37672514D01*
X44643436Y-37720133D01*
X44691055Y-37815371D01*
X44738674Y-38005847D01*
X44738674Y-38243942D01*
X44691055Y-38434418D01*
X44643436Y-38529656D01*
X44595817Y-38577275D01*
X44500579Y-38624894D01*
X44405341Y-38624894D01*
X44310103Y-38577275D01*
X44262484Y-38529656D01*
X44214865Y-38434418D01*
X44167246Y-38243942D01*
X44167246Y-38005847D01*
X44214865Y-37815371D01*
X44262484Y-37720133D01*
X44310103Y-37672514D01*
X44405341Y-37624894D01*
G04 #@! TO.C,R26*
X68357142Y-37552380D02*
X68023809Y-37076190D01*
X67785714Y-37552380D02*
X67785714Y-36552380D01*
X68166666Y-36552380D01*
X68261904Y-36600000D01*
X68309523Y-36647619D01*
X68357142Y-36742857D01*
X68357142Y-36885714D01*
X68309523Y-36980952D01*
X68261904Y-37028571D01*
X68166666Y-37076190D01*
X67785714Y-37076190D01*
X68738095Y-36647619D02*
X68785714Y-36600000D01*
X68880952Y-36552380D01*
X69119047Y-36552380D01*
X69214285Y-36600000D01*
X69261904Y-36647619D01*
X69309523Y-36742857D01*
X69309523Y-36838095D01*
X69261904Y-36980952D01*
X68690476Y-37552380D01*
X69309523Y-37552380D01*
X70166666Y-36552380D02*
X69976190Y-36552380D01*
X69880952Y-36600000D01*
X69833333Y-36647619D01*
X69738095Y-36790476D01*
X69690476Y-36980952D01*
X69690476Y-37361904D01*
X69738095Y-37457142D01*
X69785714Y-37504761D01*
X69880952Y-37552380D01*
X70071428Y-37552380D01*
X70166666Y-37504761D01*
X70214285Y-37457142D01*
X70261904Y-37361904D01*
X70261904Y-37123809D01*
X70214285Y-37028571D01*
X70166666Y-36980952D01*
X70071428Y-36933333D01*
X69880952Y-36933333D01*
X69785714Y-36980952D01*
X69738095Y-37028571D01*
X69690476Y-37123809D01*
G04 #@! TO.C,J312*
X116034285Y-21952380D02*
X116034285Y-22666666D01*
X115986666Y-22809523D01*
X115891428Y-22904761D01*
X115748571Y-22952380D01*
X115653333Y-22952380D01*
X116415238Y-21952380D02*
X117034285Y-21952380D01*
X116700952Y-22333333D01*
X116843809Y-22333333D01*
X116939047Y-22380952D01*
X116986666Y-22428571D01*
X117034285Y-22523809D01*
X117034285Y-22761904D01*
X116986666Y-22857142D01*
X116939047Y-22904761D01*
X116843809Y-22952380D01*
X116558095Y-22952380D01*
X116462857Y-22904761D01*
X116415238Y-22857142D01*
X117986666Y-22952380D02*
X117415238Y-22952380D01*
X117700952Y-22952380D02*
X117700952Y-21952380D01*
X117605714Y-22095238D01*
X117510476Y-22190476D01*
X117415238Y-22238095D01*
X118367619Y-22047619D02*
X118415238Y-22000000D01*
X118510476Y-21952380D01*
X118748571Y-21952380D01*
X118843809Y-22000000D01*
X118891428Y-22047619D01*
X118939047Y-22142857D01*
X118939047Y-22238095D01*
X118891428Y-22380952D01*
X118320000Y-22952380D01*
X118939047Y-22952380D01*
G04 #@! TO.C,R303*
X122155952Y-82451468D02*
X121822619Y-81975278D01*
X121584523Y-82451468D02*
X121584523Y-81451468D01*
X121965476Y-81451468D01*
X122060714Y-81499088D01*
X122108333Y-81546707D01*
X122155952Y-81641945D01*
X122155952Y-81784802D01*
X122108333Y-81880040D01*
X122060714Y-81927659D01*
X121965476Y-81975278D01*
X121584523Y-81975278D01*
X122489285Y-81451468D02*
X123108333Y-81451468D01*
X122775000Y-81832421D01*
X122917857Y-81832421D01*
X123013095Y-81880040D01*
X123060714Y-81927659D01*
X123108333Y-82022897D01*
X123108333Y-82260992D01*
X123060714Y-82356230D01*
X123013095Y-82403849D01*
X122917857Y-82451468D01*
X122632142Y-82451468D01*
X122536904Y-82403849D01*
X122489285Y-82356230D01*
X123727380Y-81451468D02*
X123822619Y-81451468D01*
X123917857Y-81499088D01*
X123965476Y-81546707D01*
X124013095Y-81641945D01*
X124060714Y-81832421D01*
X124060714Y-82070516D01*
X124013095Y-82260992D01*
X123965476Y-82356230D01*
X123917857Y-82403849D01*
X123822619Y-82451468D01*
X123727380Y-82451468D01*
X123632142Y-82403849D01*
X123584523Y-82356230D01*
X123536904Y-82260992D01*
X123489285Y-82070516D01*
X123489285Y-81832421D01*
X123536904Y-81641945D01*
X123584523Y-81546707D01*
X123632142Y-81499088D01*
X123727380Y-81451468D01*
X124394047Y-81451468D02*
X125013095Y-81451468D01*
X124679761Y-81832421D01*
X124822619Y-81832421D01*
X124917857Y-81880040D01*
X124965476Y-81927659D01*
X125013095Y-82022897D01*
X125013095Y-82260992D01*
X124965476Y-82356230D01*
X124917857Y-82403849D01*
X124822619Y-82451468D01*
X124536904Y-82451468D01*
X124441666Y-82403849D01*
X124394047Y-82356230D01*
G04 #@! TO.C,U2*
X123338095Y-91151468D02*
X123338095Y-91960992D01*
X123385714Y-92056230D01*
X123433333Y-92103849D01*
X123528571Y-92151468D01*
X123719047Y-92151468D01*
X123814285Y-92103849D01*
X123861904Y-92056230D01*
X123909523Y-91960992D01*
X123909523Y-91151468D01*
X124338095Y-91246707D02*
X124385714Y-91199088D01*
X124480952Y-91151468D01*
X124719047Y-91151468D01*
X124814285Y-91199088D01*
X124861904Y-91246707D01*
X124909523Y-91341945D01*
X124909523Y-91437183D01*
X124861904Y-91580040D01*
X124290476Y-92151468D01*
X124909523Y-92151468D01*
G04 #@! TO.C,C5*
X151133333Y-65456230D02*
X151085714Y-65503849D01*
X150942857Y-65551468D01*
X150847619Y-65551468D01*
X150704761Y-65503849D01*
X150609523Y-65408611D01*
X150561904Y-65313373D01*
X150514285Y-65122897D01*
X150514285Y-64980040D01*
X150561904Y-64789564D01*
X150609523Y-64694326D01*
X150704761Y-64599088D01*
X150847619Y-64551468D01*
X150942857Y-64551468D01*
X151085714Y-64599088D01*
X151133333Y-64646707D01*
X152038095Y-64551468D02*
X151561904Y-64551468D01*
X151514285Y-65027659D01*
X151561904Y-64980040D01*
X151657142Y-64932421D01*
X151895238Y-64932421D01*
X151990476Y-64980040D01*
X152038095Y-65027659D01*
X152085714Y-65122897D01*
X152085714Y-65360992D01*
X152038095Y-65456230D01*
X151990476Y-65503849D01*
X151895238Y-65551468D01*
X151657142Y-65551468D01*
X151561904Y-65503849D01*
X151514285Y-65456230D01*
G04 #@! TO.C,J2*
X84566666Y-23602380D02*
X84566666Y-24316666D01*
X84519047Y-24459523D01*
X84423809Y-24554761D01*
X84280952Y-24602380D01*
X84185714Y-24602380D01*
X84995238Y-23697619D02*
X85042857Y-23650000D01*
X85138095Y-23602380D01*
X85376190Y-23602380D01*
X85471428Y-23650000D01*
X85519047Y-23697619D01*
X85566666Y-23792857D01*
X85566666Y-23888095D01*
X85519047Y-24030952D01*
X84947619Y-24602380D01*
X85566666Y-24602380D01*
G04 #@! TO.C,R55*
X67809642Y-32202380D02*
X67476309Y-31726190D01*
X67238214Y-32202380D02*
X67238214Y-31202380D01*
X67619166Y-31202380D01*
X67714404Y-31250000D01*
X67762023Y-31297619D01*
X67809642Y-31392857D01*
X67809642Y-31535714D01*
X67762023Y-31630952D01*
X67714404Y-31678571D01*
X67619166Y-31726190D01*
X67238214Y-31726190D01*
X68714404Y-31202380D02*
X68238214Y-31202380D01*
X68190595Y-31678571D01*
X68238214Y-31630952D01*
X68333452Y-31583333D01*
X68571547Y-31583333D01*
X68666785Y-31630952D01*
X68714404Y-31678571D01*
X68762023Y-31773809D01*
X68762023Y-32011904D01*
X68714404Y-32107142D01*
X68666785Y-32154761D01*
X68571547Y-32202380D01*
X68333452Y-32202380D01*
X68238214Y-32154761D01*
X68190595Y-32107142D01*
X69666785Y-31202380D02*
X69190595Y-31202380D01*
X69142976Y-31678571D01*
X69190595Y-31630952D01*
X69285833Y-31583333D01*
X69523928Y-31583333D01*
X69619166Y-31630952D01*
X69666785Y-31678571D01*
X69714404Y-31773809D01*
X69714404Y-32011904D01*
X69666785Y-32107142D01*
X69619166Y-32154761D01*
X69523928Y-32202380D01*
X69285833Y-32202380D01*
X69190595Y-32154761D01*
X69142976Y-32107142D01*
G04 #@! TO.C,C35*
X97847969Y-29907106D02*
X97847969Y-29974450D01*
X97780625Y-30109137D01*
X97713282Y-30176480D01*
X97578595Y-30243824D01*
X97443908Y-30243824D01*
X97342893Y-30210152D01*
X97174534Y-30109137D01*
X97073519Y-30008122D01*
X96972503Y-29839763D01*
X96938832Y-29738748D01*
X96938832Y-29604061D01*
X97006175Y-29469374D01*
X97073519Y-29402030D01*
X97208206Y-29334687D01*
X97275549Y-29334687D01*
X97443908Y-29031641D02*
X97881641Y-28593908D01*
X97915312Y-29098984D01*
X98016328Y-28997969D01*
X98117343Y-28964297D01*
X98184687Y-28964297D01*
X98285702Y-28997969D01*
X98454061Y-29166328D01*
X98487732Y-29267343D01*
X98487732Y-29334687D01*
X98454061Y-29435702D01*
X98252030Y-29637732D01*
X98151015Y-29671404D01*
X98083671Y-29671404D01*
X98521404Y-27954145D02*
X98184687Y-28290862D01*
X98487732Y-28661251D01*
X98487732Y-28593908D01*
X98521404Y-28492893D01*
X98689763Y-28324534D01*
X98790778Y-28290862D01*
X98858122Y-28290862D01*
X98959137Y-28324534D01*
X99127496Y-28492893D01*
X99161167Y-28593908D01*
X99161167Y-28661251D01*
X99127496Y-28762267D01*
X98959137Y-28930625D01*
X98858122Y-28964297D01*
X98790778Y-28964297D01*
G04 #@! TO.C,J309*
X165166785Y-36621468D02*
X165166785Y-37335754D01*
X165119166Y-37478611D01*
X165023928Y-37573849D01*
X164881071Y-37621468D01*
X164785833Y-37621468D01*
X165547738Y-36621468D02*
X166166785Y-36621468D01*
X165833452Y-37002421D01*
X165976309Y-37002421D01*
X166071547Y-37050040D01*
X166119166Y-37097659D01*
X166166785Y-37192897D01*
X166166785Y-37430992D01*
X166119166Y-37526230D01*
X166071547Y-37573849D01*
X165976309Y-37621468D01*
X165690595Y-37621468D01*
X165595357Y-37573849D01*
X165547738Y-37526230D01*
X166785833Y-36621468D02*
X166881071Y-36621468D01*
X166976309Y-36669088D01*
X167023928Y-36716707D01*
X167071547Y-36811945D01*
X167119166Y-37002421D01*
X167119166Y-37240516D01*
X167071547Y-37430992D01*
X167023928Y-37526230D01*
X166976309Y-37573849D01*
X166881071Y-37621468D01*
X166785833Y-37621468D01*
X166690595Y-37573849D01*
X166642976Y-37526230D01*
X166595357Y-37430992D01*
X166547738Y-37240516D01*
X166547738Y-37002421D01*
X166595357Y-36811945D01*
X166642976Y-36716707D01*
X166690595Y-36669088D01*
X166785833Y-36621468D01*
X167595357Y-37621468D02*
X167785833Y-37621468D01*
X167881071Y-37573849D01*
X167928690Y-37526230D01*
X168023928Y-37383373D01*
X168071547Y-37192897D01*
X168071547Y-36811945D01*
X168023928Y-36716707D01*
X167976309Y-36669088D01*
X167881071Y-36621468D01*
X167690595Y-36621468D01*
X167595357Y-36669088D01*
X167547738Y-36716707D01*
X167500119Y-36811945D01*
X167500119Y-37050040D01*
X167547738Y-37145278D01*
X167595357Y-37192897D01*
X167690595Y-37240516D01*
X167881071Y-37240516D01*
X167976309Y-37192897D01*
X168023928Y-37145278D01*
X168071547Y-37050040D01*
G04 #@! TO.C,D315*
X126584523Y-82451468D02*
X126584523Y-81451468D01*
X126822619Y-81451468D01*
X126965476Y-81499088D01*
X127060714Y-81594326D01*
X127108333Y-81689564D01*
X127155952Y-81880040D01*
X127155952Y-82022897D01*
X127108333Y-82213373D01*
X127060714Y-82308611D01*
X126965476Y-82403849D01*
X126822619Y-82451468D01*
X126584523Y-82451468D01*
X127489285Y-81451468D02*
X128108333Y-81451468D01*
X127775000Y-81832421D01*
X127917857Y-81832421D01*
X128013095Y-81880040D01*
X128060714Y-81927659D01*
X128108333Y-82022897D01*
X128108333Y-82260992D01*
X128060714Y-82356230D01*
X128013095Y-82403849D01*
X127917857Y-82451468D01*
X127632142Y-82451468D01*
X127536904Y-82403849D01*
X127489285Y-82356230D01*
X129060714Y-82451468D02*
X128489285Y-82451468D01*
X128775000Y-82451468D02*
X128775000Y-81451468D01*
X128679761Y-81594326D01*
X128584523Y-81689564D01*
X128489285Y-81737183D01*
X129965476Y-81451468D02*
X129489285Y-81451468D01*
X129441666Y-81927659D01*
X129489285Y-81880040D01*
X129584523Y-81832421D01*
X129822619Y-81832421D01*
X129917857Y-81880040D01*
X129965476Y-81927659D01*
X130013095Y-82022897D01*
X130013095Y-82260992D01*
X129965476Y-82356230D01*
X129917857Y-82403849D01*
X129822619Y-82451468D01*
X129584523Y-82451468D01*
X129489285Y-82403849D01*
X129441666Y-82356230D01*
G04 #@! TO.C,R15*
X132657142Y-90351468D02*
X132323809Y-89875278D01*
X132085714Y-90351468D02*
X132085714Y-89351468D01*
X132466666Y-89351468D01*
X132561904Y-89399088D01*
X132609523Y-89446707D01*
X132657142Y-89541945D01*
X132657142Y-89684802D01*
X132609523Y-89780040D01*
X132561904Y-89827659D01*
X132466666Y-89875278D01*
X132085714Y-89875278D01*
X133609523Y-90351468D02*
X133038095Y-90351468D01*
X133323809Y-90351468D02*
X133323809Y-89351468D01*
X133228571Y-89494326D01*
X133133333Y-89589564D01*
X133038095Y-89637183D01*
X134514285Y-89351468D02*
X134038095Y-89351468D01*
X133990476Y-89827659D01*
X134038095Y-89780040D01*
X134133333Y-89732421D01*
X134371428Y-89732421D01*
X134466666Y-89780040D01*
X134514285Y-89827659D01*
X134561904Y-89922897D01*
X134561904Y-90160992D01*
X134514285Y-90256230D01*
X134466666Y-90303849D01*
X134371428Y-90351468D01*
X134133333Y-90351468D01*
X134038095Y-90303849D01*
X133990476Y-90256230D01*
G04 #@! TO.C,R12*
X97502380Y-85479445D02*
X97026190Y-85812778D01*
X97502380Y-86050873D02*
X96502380Y-86050873D01*
X96502380Y-85669921D01*
X96550000Y-85574683D01*
X96597619Y-85527064D01*
X96692857Y-85479445D01*
X96835714Y-85479445D01*
X96930952Y-85527064D01*
X96978571Y-85574683D01*
X97026190Y-85669921D01*
X97026190Y-86050873D01*
X97502380Y-84527064D02*
X97502380Y-85098492D01*
X97502380Y-84812778D02*
X96502380Y-84812778D01*
X96645238Y-84908016D01*
X96740476Y-85003254D01*
X96788095Y-85098492D01*
X96597619Y-84146111D02*
X96550000Y-84098492D01*
X96502380Y-84003254D01*
X96502380Y-83765159D01*
X96550000Y-83669921D01*
X96597619Y-83622302D01*
X96692857Y-83574683D01*
X96788095Y-83574683D01*
X96930952Y-83622302D01*
X97502380Y-84193730D01*
X97502380Y-83574683D01*
G04 #@! TO.C,U4*
X154999523Y-35881707D02*
X155517619Y-35881707D01*
X155578571Y-35851230D01*
X155609047Y-35820754D01*
X155639523Y-35759802D01*
X155639523Y-35637897D01*
X155609047Y-35576945D01*
X155578571Y-35546468D01*
X155517619Y-35515992D01*
X154999523Y-35515992D01*
X155212857Y-34936945D02*
X155639523Y-34936945D01*
X154969047Y-35089326D02*
X155426190Y-35241707D01*
X155426190Y-34845516D01*
G04 #@! TO.C,C304*
X141880952Y-89846230D02*
X141833333Y-89893849D01*
X141690476Y-89941468D01*
X141595238Y-89941468D01*
X141452380Y-89893849D01*
X141357142Y-89798611D01*
X141309523Y-89703373D01*
X141261904Y-89512897D01*
X141261904Y-89370040D01*
X141309523Y-89179564D01*
X141357142Y-89084326D01*
X141452380Y-88989088D01*
X141595238Y-88941468D01*
X141690476Y-88941468D01*
X141833333Y-88989088D01*
X141880952Y-89036707D01*
X142214285Y-88941468D02*
X142833333Y-88941468D01*
X142500000Y-89322421D01*
X142642857Y-89322421D01*
X142738095Y-89370040D01*
X142785714Y-89417659D01*
X142833333Y-89512897D01*
X142833333Y-89750992D01*
X142785714Y-89846230D01*
X142738095Y-89893849D01*
X142642857Y-89941468D01*
X142357142Y-89941468D01*
X142261904Y-89893849D01*
X142214285Y-89846230D01*
X143452380Y-88941468D02*
X143547619Y-88941468D01*
X143642857Y-88989088D01*
X143690476Y-89036707D01*
X143738095Y-89131945D01*
X143785714Y-89322421D01*
X143785714Y-89560516D01*
X143738095Y-89750992D01*
X143690476Y-89846230D01*
X143642857Y-89893849D01*
X143547619Y-89941468D01*
X143452380Y-89941468D01*
X143357142Y-89893849D01*
X143309523Y-89846230D01*
X143261904Y-89750992D01*
X143214285Y-89560516D01*
X143214285Y-89322421D01*
X143261904Y-89131945D01*
X143309523Y-89036707D01*
X143357142Y-88989088D01*
X143452380Y-88941468D01*
X144642857Y-89274802D02*
X144642857Y-89941468D01*
X144404761Y-88893849D02*
X144166666Y-89608135D01*
X144785714Y-89608135D01*
D13*
G04 #@! TO.C,G\u002A\u002A\u002A*
X124767428Y-63328000D02*
X124622285Y-63255428D01*
X124404571Y-63255428D01*
X124186857Y-63328000D01*
X124041714Y-63473142D01*
X123969142Y-63618285D01*
X123896571Y-63908571D01*
X123896571Y-64126285D01*
X123969142Y-64416571D01*
X124041714Y-64561714D01*
X124186857Y-64706857D01*
X124404571Y-64779428D01*
X124549714Y-64779428D01*
X124767428Y-64706857D01*
X124840000Y-64634285D01*
X124840000Y-64126285D01*
X124549714Y-64126285D01*
X125710857Y-63255428D02*
X125710857Y-63618285D01*
X125348000Y-63473142D02*
X125710857Y-63618285D01*
X126073714Y-63473142D01*
X125493142Y-63908571D02*
X125710857Y-63618285D01*
X125928571Y-63908571D01*
X126872000Y-63255428D02*
X126872000Y-63618285D01*
X126509142Y-63473142D02*
X126872000Y-63618285D01*
X127234857Y-63473142D01*
X126654285Y-63908571D02*
X126872000Y-63618285D01*
X127089714Y-63908571D01*
X128033142Y-63255428D02*
X128033142Y-63618285D01*
X127670285Y-63473142D02*
X128033142Y-63618285D01*
X128396000Y-63473142D01*
X127815428Y-63908571D02*
X128033142Y-63618285D01*
X128250857Y-63908571D01*
D10*
G04 #@! TO.C,C2*
X93533333Y-81056230D02*
X93485714Y-81103849D01*
X93342857Y-81151468D01*
X93247619Y-81151468D01*
X93104761Y-81103849D01*
X93009523Y-81008611D01*
X92961904Y-80913373D01*
X92914285Y-80722897D01*
X92914285Y-80580040D01*
X92961904Y-80389564D01*
X93009523Y-80294326D01*
X93104761Y-80199088D01*
X93247619Y-80151468D01*
X93342857Y-80151468D01*
X93485714Y-80199088D01*
X93533333Y-80246707D01*
X93914285Y-80246707D02*
X93961904Y-80199088D01*
X94057142Y-80151468D01*
X94295238Y-80151468D01*
X94390476Y-80199088D01*
X94438095Y-80246707D01*
X94485714Y-80341945D01*
X94485714Y-80437183D01*
X94438095Y-80580040D01*
X93866666Y-81151468D01*
X94485714Y-81151468D01*
G04 #@! TO.C,R19*
X159617142Y-44722380D02*
X159283809Y-44246190D01*
X159045714Y-44722380D02*
X159045714Y-43722380D01*
X159426666Y-43722380D01*
X159521904Y-43770000D01*
X159569523Y-43817619D01*
X159617142Y-43912857D01*
X159617142Y-44055714D01*
X159569523Y-44150952D01*
X159521904Y-44198571D01*
X159426666Y-44246190D01*
X159045714Y-44246190D01*
X160569523Y-44722380D02*
X159998095Y-44722380D01*
X160283809Y-44722380D02*
X160283809Y-43722380D01*
X160188571Y-43865238D01*
X160093333Y-43960476D01*
X159998095Y-44008095D01*
X161045714Y-44722380D02*
X161236190Y-44722380D01*
X161331428Y-44674761D01*
X161379047Y-44627142D01*
X161474285Y-44484285D01*
X161521904Y-44293809D01*
X161521904Y-43912857D01*
X161474285Y-43817619D01*
X161426666Y-43770000D01*
X161331428Y-43722380D01*
X161140952Y-43722380D01*
X161045714Y-43770000D01*
X160998095Y-43817619D01*
X160950476Y-43912857D01*
X160950476Y-44150952D01*
X160998095Y-44246190D01*
X161045714Y-44293809D01*
X161140952Y-44341428D01*
X161331428Y-44341428D01*
X161426666Y-44293809D01*
X161474285Y-44246190D01*
X161521904Y-44150952D01*
G04 #@! TO.C,R14*
X95457142Y-79251468D02*
X95123809Y-78775278D01*
X94885714Y-79251468D02*
X94885714Y-78251468D01*
X95266666Y-78251468D01*
X95361904Y-78299088D01*
X95409523Y-78346707D01*
X95457142Y-78441945D01*
X95457142Y-78584802D01*
X95409523Y-78680040D01*
X95361904Y-78727659D01*
X95266666Y-78775278D01*
X94885714Y-78775278D01*
X96409523Y-79251468D02*
X95838095Y-79251468D01*
X96123809Y-79251468D02*
X96123809Y-78251468D01*
X96028571Y-78394326D01*
X95933333Y-78489564D01*
X95838095Y-78537183D01*
X97266666Y-78584802D02*
X97266666Y-79251468D01*
X97028571Y-78203849D02*
X96790476Y-78918135D01*
X97409523Y-78918135D01*
G04 #@! TO.C,J305*
X102674285Y-22012380D02*
X102674285Y-22726666D01*
X102626666Y-22869523D01*
X102531428Y-22964761D01*
X102388571Y-23012380D01*
X102293333Y-23012380D01*
X103055238Y-22012380D02*
X103674285Y-22012380D01*
X103340952Y-22393333D01*
X103483809Y-22393333D01*
X103579047Y-22440952D01*
X103626666Y-22488571D01*
X103674285Y-22583809D01*
X103674285Y-22821904D01*
X103626666Y-22917142D01*
X103579047Y-22964761D01*
X103483809Y-23012380D01*
X103198095Y-23012380D01*
X103102857Y-22964761D01*
X103055238Y-22917142D01*
X104293333Y-22012380D02*
X104388571Y-22012380D01*
X104483809Y-22060000D01*
X104531428Y-22107619D01*
X104579047Y-22202857D01*
X104626666Y-22393333D01*
X104626666Y-22631428D01*
X104579047Y-22821904D01*
X104531428Y-22917142D01*
X104483809Y-22964761D01*
X104388571Y-23012380D01*
X104293333Y-23012380D01*
X104198095Y-22964761D01*
X104150476Y-22917142D01*
X104102857Y-22821904D01*
X104055238Y-22631428D01*
X104055238Y-22393333D01*
X104102857Y-22202857D01*
X104150476Y-22107619D01*
X104198095Y-22060000D01*
X104293333Y-22012380D01*
X105531428Y-22012380D02*
X105055238Y-22012380D01*
X105007619Y-22488571D01*
X105055238Y-22440952D01*
X105150476Y-22393333D01*
X105388571Y-22393333D01*
X105483809Y-22440952D01*
X105531428Y-22488571D01*
X105579047Y-22583809D01*
X105579047Y-22821904D01*
X105531428Y-22917142D01*
X105483809Y-22964761D01*
X105388571Y-23012380D01*
X105150476Y-23012380D01*
X105055238Y-22964761D01*
X105007619Y-22917142D01*
G04 #@! TO.C,L1*
X140633333Y-61651468D02*
X140157142Y-61651468D01*
X140157142Y-60651468D01*
X141490476Y-61651468D02*
X140919047Y-61651468D01*
X141204761Y-61651468D02*
X141204761Y-60651468D01*
X141109523Y-60794326D01*
X141014285Y-60889564D01*
X140919047Y-60937183D01*
G04 #@! TO.C,D4*
X29452380Y-26738095D02*
X28452380Y-26738095D01*
X28452380Y-26500000D01*
X28500000Y-26357142D01*
X28595238Y-26261904D01*
X28690476Y-26214285D01*
X28880952Y-26166666D01*
X29023809Y-26166666D01*
X29214285Y-26214285D01*
X29309523Y-26261904D01*
X29404761Y-26357142D01*
X29452380Y-26500000D01*
X29452380Y-26738095D01*
X28785714Y-25309523D02*
X29452380Y-25309523D01*
X28404761Y-25547619D02*
X29119047Y-25785714D01*
X29119047Y-25166666D01*
G04 #@! TO.C,U7*
X46452380Y-79261904D02*
X47261904Y-79261904D01*
X47357142Y-79214285D01*
X47404761Y-79166666D01*
X47452380Y-79071428D01*
X47452380Y-78880952D01*
X47404761Y-78785714D01*
X47357142Y-78738095D01*
X47261904Y-78690476D01*
X46452380Y-78690476D01*
X46452380Y-78309523D02*
X46452380Y-77642857D01*
X47452380Y-78071428D01*
X28100000Y-92109523D02*
X28061904Y-92185714D01*
X28061904Y-92300000D01*
X28100000Y-92414285D01*
X28176190Y-92490476D01*
X28252380Y-92528571D01*
X28404761Y-92566666D01*
X28519047Y-92566666D01*
X28671428Y-92528571D01*
X28747619Y-92490476D01*
X28823809Y-92414285D01*
X28861904Y-92300000D01*
X28861904Y-92223809D01*
X28823809Y-92109523D01*
X28785714Y-92071428D01*
X28519047Y-92071428D01*
X28519047Y-92223809D01*
X28861904Y-91728571D02*
X28061904Y-91728571D01*
X28861904Y-91271428D01*
X28061904Y-91271428D01*
X28861904Y-90890476D02*
X28061904Y-90890476D01*
X28061904Y-90700000D01*
X28100000Y-90585714D01*
X28176190Y-90509523D01*
X28252380Y-90471428D01*
X28404761Y-90433333D01*
X28519047Y-90433333D01*
X28671428Y-90471428D01*
X28747619Y-90509523D01*
X28823809Y-90585714D01*
X28861904Y-90700000D01*
X28861904Y-90890476D01*
X45300000Y-91771428D02*
X45261904Y-91847619D01*
X45261904Y-91961904D01*
X45300000Y-92076190D01*
X45376190Y-92152380D01*
X45452380Y-92190476D01*
X45604761Y-92228571D01*
X45719047Y-92228571D01*
X45871428Y-92190476D01*
X45947619Y-92152380D01*
X46023809Y-92076190D01*
X46061904Y-91961904D01*
X46061904Y-91885714D01*
X46023809Y-91771428D01*
X45985714Y-91733333D01*
X45719047Y-91733333D01*
X45719047Y-91885714D01*
X46061904Y-91390476D02*
X45261904Y-91390476D01*
X45261904Y-91085714D01*
X45300000Y-91009523D01*
X45338095Y-90971428D01*
X45414285Y-90933333D01*
X45528571Y-90933333D01*
X45604761Y-90971428D01*
X45642857Y-91009523D01*
X45680952Y-91085714D01*
X45680952Y-91390476D01*
X45261904Y-90666666D02*
X45261904Y-90133333D01*
X46061904Y-90476190D01*
X42800000Y-65952380D02*
X42761904Y-66028571D01*
X42761904Y-66142857D01*
X42800000Y-66257142D01*
X42876190Y-66333333D01*
X42952380Y-66371428D01*
X43104761Y-66409523D01*
X43219047Y-66409523D01*
X43371428Y-66371428D01*
X43447619Y-66333333D01*
X43523809Y-66257142D01*
X43561904Y-66142857D01*
X43561904Y-66066666D01*
X43523809Y-65952380D01*
X43485714Y-65914285D01*
X43219047Y-65914285D01*
X43219047Y-66066666D01*
X43561904Y-65571428D02*
X42761904Y-65571428D01*
X42761904Y-65266666D01*
X42800000Y-65190476D01*
X42838095Y-65152380D01*
X42914285Y-65114285D01*
X43028571Y-65114285D01*
X43104761Y-65152380D01*
X43142857Y-65190476D01*
X43180952Y-65266666D01*
X43180952Y-65571428D01*
X42838095Y-64809523D02*
X42800000Y-64771428D01*
X42761904Y-64695238D01*
X42761904Y-64504761D01*
X42800000Y-64428571D01*
X42838095Y-64390476D01*
X42914285Y-64352380D01*
X42990476Y-64352380D01*
X43104761Y-64390476D01*
X43561904Y-64847619D01*
X43561904Y-64352380D01*
X42761904Y-64085714D02*
X42761904Y-63552380D01*
X43561904Y-63895238D01*
X42790000Y-91871428D02*
X42751904Y-91947619D01*
X42751904Y-92061904D01*
X42790000Y-92176190D01*
X42866190Y-92252380D01*
X42942380Y-92290476D01*
X43094761Y-92328571D01*
X43209047Y-92328571D01*
X43361428Y-92290476D01*
X43437619Y-92252380D01*
X43513809Y-92176190D01*
X43551904Y-92061904D01*
X43551904Y-91985714D01*
X43513809Y-91871428D01*
X43475714Y-91833333D01*
X43209047Y-91833333D01*
X43209047Y-91985714D01*
X43551904Y-91490476D02*
X42751904Y-91490476D01*
X42751904Y-91185714D01*
X42790000Y-91109523D01*
X42828095Y-91071428D01*
X42904285Y-91033333D01*
X43018571Y-91033333D01*
X43094761Y-91071428D01*
X43132857Y-91109523D01*
X43170952Y-91185714D01*
X43170952Y-91490476D01*
X42751904Y-90347619D02*
X42751904Y-90500000D01*
X42790000Y-90576190D01*
X42828095Y-90614285D01*
X42942380Y-90690476D01*
X43094761Y-90728571D01*
X43399523Y-90728571D01*
X43475714Y-90690476D01*
X43513809Y-90652380D01*
X43551904Y-90576190D01*
X43551904Y-90423809D01*
X43513809Y-90347619D01*
X43475714Y-90309523D01*
X43399523Y-90271428D01*
X43209047Y-90271428D01*
X43132857Y-90309523D01*
X43094761Y-90347619D01*
X43056666Y-90423809D01*
X43056666Y-90576190D01*
X43094761Y-90652380D01*
X43132857Y-90690476D01*
X43209047Y-90728571D01*
X55500000Y-65952380D02*
X55461904Y-66028571D01*
X55461904Y-66142857D01*
X55500000Y-66257142D01*
X55576190Y-66333333D01*
X55652380Y-66371428D01*
X55804761Y-66409523D01*
X55919047Y-66409523D01*
X56071428Y-66371428D01*
X56147619Y-66333333D01*
X56223809Y-66257142D01*
X56261904Y-66142857D01*
X56261904Y-66066666D01*
X56223809Y-65952380D01*
X56185714Y-65914285D01*
X55919047Y-65914285D01*
X55919047Y-66066666D01*
X56261904Y-65571428D02*
X55461904Y-65571428D01*
X55461904Y-65266666D01*
X55500000Y-65190476D01*
X55538095Y-65152380D01*
X55614285Y-65114285D01*
X55728571Y-65114285D01*
X55804761Y-65152380D01*
X55842857Y-65190476D01*
X55880952Y-65266666D01*
X55880952Y-65571428D01*
X55538095Y-64809523D02*
X55500000Y-64771428D01*
X55461904Y-64695238D01*
X55461904Y-64504761D01*
X55500000Y-64428571D01*
X55538095Y-64390476D01*
X55614285Y-64352380D01*
X55690476Y-64352380D01*
X55804761Y-64390476D01*
X56261904Y-64847619D01*
X56261904Y-64352380D01*
X56261904Y-63590476D02*
X56261904Y-64047619D01*
X56261904Y-63819047D02*
X55461904Y-63819047D01*
X55576190Y-63895238D01*
X55652380Y-63971428D01*
X55690476Y-64047619D01*
X30100000Y-92071428D02*
X30061904Y-92147619D01*
X30061904Y-92261904D01*
X30100000Y-92376190D01*
X30176190Y-92452380D01*
X30252380Y-92490476D01*
X30404761Y-92528571D01*
X30519047Y-92528571D01*
X30671428Y-92490476D01*
X30747619Y-92452380D01*
X30823809Y-92376190D01*
X30861904Y-92261904D01*
X30861904Y-92185714D01*
X30823809Y-92071428D01*
X30785714Y-92033333D01*
X30519047Y-92033333D01*
X30519047Y-92185714D01*
X30861904Y-91690476D02*
X30061904Y-91690476D01*
X30061904Y-91385714D01*
X30100000Y-91309523D01*
X30138095Y-91271428D01*
X30214285Y-91233333D01*
X30328571Y-91233333D01*
X30404761Y-91271428D01*
X30442857Y-91309523D01*
X30480952Y-91385714D01*
X30480952Y-91690476D01*
X30138095Y-90928571D02*
X30100000Y-90890476D01*
X30061904Y-90814285D01*
X30061904Y-90623809D01*
X30100000Y-90547619D01*
X30138095Y-90509523D01*
X30214285Y-90471428D01*
X30290476Y-90471428D01*
X30404761Y-90509523D01*
X30861904Y-90966666D01*
X30861904Y-90471428D01*
X45330000Y-65952380D02*
X45291904Y-66028571D01*
X45291904Y-66142857D01*
X45330000Y-66257142D01*
X45406190Y-66333333D01*
X45482380Y-66371428D01*
X45634761Y-66409523D01*
X45749047Y-66409523D01*
X45901428Y-66371428D01*
X45977619Y-66333333D01*
X46053809Y-66257142D01*
X46091904Y-66142857D01*
X46091904Y-66066666D01*
X46053809Y-65952380D01*
X46015714Y-65914285D01*
X45749047Y-65914285D01*
X45749047Y-66066666D01*
X46091904Y-65571428D02*
X45291904Y-65571428D01*
X45291904Y-65266666D01*
X45330000Y-65190476D01*
X45368095Y-65152380D01*
X45444285Y-65114285D01*
X45558571Y-65114285D01*
X45634761Y-65152380D01*
X45672857Y-65190476D01*
X45710952Y-65266666D01*
X45710952Y-65571428D01*
X45368095Y-64809523D02*
X45330000Y-64771428D01*
X45291904Y-64695238D01*
X45291904Y-64504761D01*
X45330000Y-64428571D01*
X45368095Y-64390476D01*
X45444285Y-64352380D01*
X45520476Y-64352380D01*
X45634761Y-64390476D01*
X46091904Y-64847619D01*
X46091904Y-64352380D01*
X45291904Y-63666666D02*
X45291904Y-63819047D01*
X45330000Y-63895238D01*
X45368095Y-63933333D01*
X45482380Y-64009523D01*
X45634761Y-64047619D01*
X45939523Y-64047619D01*
X46015714Y-64009523D01*
X46053809Y-63971428D01*
X46091904Y-63895238D01*
X46091904Y-63742857D01*
X46053809Y-63666666D01*
X46015714Y-63628571D01*
X45939523Y-63590476D01*
X45749047Y-63590476D01*
X45672857Y-63628571D01*
X45634761Y-63666666D01*
X45596666Y-63742857D01*
X45596666Y-63895238D01*
X45634761Y-63971428D01*
X45672857Y-64009523D01*
X45749047Y-64047619D01*
X47870000Y-91871428D02*
X47831904Y-91947619D01*
X47831904Y-92061904D01*
X47870000Y-92176190D01*
X47946190Y-92252380D01*
X48022380Y-92290476D01*
X48174761Y-92328571D01*
X48289047Y-92328571D01*
X48441428Y-92290476D01*
X48517619Y-92252380D01*
X48593809Y-92176190D01*
X48631904Y-92061904D01*
X48631904Y-91985714D01*
X48593809Y-91871428D01*
X48555714Y-91833333D01*
X48289047Y-91833333D01*
X48289047Y-91985714D01*
X48631904Y-91490476D02*
X47831904Y-91490476D01*
X47831904Y-91185714D01*
X47870000Y-91109523D01*
X47908095Y-91071428D01*
X47984285Y-91033333D01*
X48098571Y-91033333D01*
X48174761Y-91071428D01*
X48212857Y-91109523D01*
X48250952Y-91185714D01*
X48250952Y-91490476D01*
X48174761Y-90576190D02*
X48136666Y-90652380D01*
X48098571Y-90690476D01*
X48022380Y-90728571D01*
X47984285Y-90728571D01*
X47908095Y-90690476D01*
X47870000Y-90652380D01*
X47831904Y-90576190D01*
X47831904Y-90423809D01*
X47870000Y-90347619D01*
X47908095Y-90309523D01*
X47984285Y-90271428D01*
X48022380Y-90271428D01*
X48098571Y-90309523D01*
X48136666Y-90347619D01*
X48174761Y-90423809D01*
X48174761Y-90576190D01*
X48212857Y-90652380D01*
X48250952Y-90690476D01*
X48327142Y-90728571D01*
X48479523Y-90728571D01*
X48555714Y-90690476D01*
X48593809Y-90652380D01*
X48631904Y-90576190D01*
X48631904Y-90423809D01*
X48593809Y-90347619D01*
X48555714Y-90309523D01*
X48479523Y-90271428D01*
X48327142Y-90271428D01*
X48250952Y-90309523D01*
X48212857Y-90347619D01*
X48174761Y-90423809D01*
X68190000Y-92552380D02*
X68151904Y-92628571D01*
X68151904Y-92742857D01*
X68190000Y-92857142D01*
X68266190Y-92933333D01*
X68342380Y-92971428D01*
X68494761Y-93009523D01*
X68609047Y-93009523D01*
X68761428Y-92971428D01*
X68837619Y-92933333D01*
X68913809Y-92857142D01*
X68951904Y-92742857D01*
X68951904Y-92666666D01*
X68913809Y-92552380D01*
X68875714Y-92514285D01*
X68609047Y-92514285D01*
X68609047Y-92666666D01*
X68951904Y-92171428D02*
X68151904Y-92171428D01*
X68151904Y-91866666D01*
X68190000Y-91790476D01*
X68228095Y-91752380D01*
X68304285Y-91714285D01*
X68418571Y-91714285D01*
X68494761Y-91752380D01*
X68532857Y-91790476D01*
X68570952Y-91866666D01*
X68570952Y-92171428D01*
X68951904Y-90952380D02*
X68951904Y-91409523D01*
X68951904Y-91180952D02*
X68151904Y-91180952D01*
X68266190Y-91257142D01*
X68342380Y-91333333D01*
X68380476Y-91409523D01*
X68418571Y-90266666D02*
X68951904Y-90266666D01*
X68113809Y-90457142D02*
X68685238Y-90647619D01*
X68685238Y-90152380D01*
X70600000Y-65952380D02*
X70561904Y-66028571D01*
X70561904Y-66142857D01*
X70600000Y-66257142D01*
X70676190Y-66333333D01*
X70752380Y-66371428D01*
X70904761Y-66409523D01*
X71019047Y-66409523D01*
X71171428Y-66371428D01*
X71247619Y-66333333D01*
X71323809Y-66257142D01*
X71361904Y-66142857D01*
X71361904Y-66066666D01*
X71323809Y-65952380D01*
X71285714Y-65914285D01*
X71019047Y-65914285D01*
X71019047Y-66066666D01*
X71361904Y-65571428D02*
X70561904Y-65571428D01*
X70561904Y-65266666D01*
X70600000Y-65190476D01*
X70638095Y-65152380D01*
X70714285Y-65114285D01*
X70828571Y-65114285D01*
X70904761Y-65152380D01*
X70942857Y-65190476D01*
X70980952Y-65266666D01*
X70980952Y-65571428D01*
X71361904Y-64352380D02*
X71361904Y-64809523D01*
X71361904Y-64580952D02*
X70561904Y-64580952D01*
X70676190Y-64657142D01*
X70752380Y-64733333D01*
X70790476Y-64809523D01*
X70561904Y-63666666D02*
X70561904Y-63819047D01*
X70600000Y-63895238D01*
X70638095Y-63933333D01*
X70752380Y-64009523D01*
X70904761Y-64047619D01*
X71209523Y-64047619D01*
X71285714Y-64009523D01*
X71323809Y-63971428D01*
X71361904Y-63895238D01*
X71361904Y-63742857D01*
X71323809Y-63666666D01*
X71285714Y-63628571D01*
X71209523Y-63590476D01*
X71019047Y-63590476D01*
X70942857Y-63628571D01*
X70904761Y-63666666D01*
X70866666Y-63742857D01*
X70866666Y-63895238D01*
X70904761Y-63971428D01*
X70942857Y-64009523D01*
X71019047Y-64047619D01*
X58030000Y-92652380D02*
X57991904Y-92728571D01*
X57991904Y-92842857D01*
X58030000Y-92957142D01*
X58106190Y-93033333D01*
X58182380Y-93071428D01*
X58334761Y-93109523D01*
X58449047Y-93109523D01*
X58601428Y-93071428D01*
X58677619Y-93033333D01*
X58753809Y-92957142D01*
X58791904Y-92842857D01*
X58791904Y-92766666D01*
X58753809Y-92652380D01*
X58715714Y-92614285D01*
X58449047Y-92614285D01*
X58449047Y-92766666D01*
X58791904Y-92271428D02*
X57991904Y-92271428D01*
X57991904Y-91966666D01*
X58030000Y-91890476D01*
X58068095Y-91852380D01*
X58144285Y-91814285D01*
X58258571Y-91814285D01*
X58334761Y-91852380D01*
X58372857Y-91890476D01*
X58410952Y-91966666D01*
X58410952Y-92271428D01*
X58791904Y-91052380D02*
X58791904Y-91509523D01*
X58791904Y-91280952D02*
X57991904Y-91280952D01*
X58106190Y-91357142D01*
X58182380Y-91433333D01*
X58220476Y-91509523D01*
X58791904Y-90290476D02*
X58791904Y-90747619D01*
X58791904Y-90519047D02*
X57991904Y-90519047D01*
X58106190Y-90595238D01*
X58182380Y-90671428D01*
X58220476Y-90747619D01*
X63110000Y-92506380D02*
X63071904Y-92582571D01*
X63071904Y-92696857D01*
X63110000Y-92811142D01*
X63186190Y-92887333D01*
X63262380Y-92925428D01*
X63414761Y-92963523D01*
X63529047Y-92963523D01*
X63681428Y-92925428D01*
X63757619Y-92887333D01*
X63833809Y-92811142D01*
X63871904Y-92696857D01*
X63871904Y-92620666D01*
X63833809Y-92506380D01*
X63795714Y-92468285D01*
X63529047Y-92468285D01*
X63529047Y-92620666D01*
X63871904Y-92125428D02*
X63071904Y-92125428D01*
X63071904Y-91820666D01*
X63110000Y-91744476D01*
X63148095Y-91706380D01*
X63224285Y-91668285D01*
X63338571Y-91668285D01*
X63414761Y-91706380D01*
X63452857Y-91744476D01*
X63490952Y-91820666D01*
X63490952Y-92125428D01*
X63871904Y-90906380D02*
X63871904Y-91363523D01*
X63871904Y-91134952D02*
X63071904Y-91134952D01*
X63186190Y-91211142D01*
X63262380Y-91287333D01*
X63300476Y-91363523D01*
X63071904Y-90639714D02*
X63071904Y-90144476D01*
X63376666Y-90411142D01*
X63376666Y-90296857D01*
X63414761Y-90220666D01*
X63452857Y-90182571D01*
X63529047Y-90144476D01*
X63719523Y-90144476D01*
X63795714Y-90182571D01*
X63833809Y-90220666D01*
X63871904Y-90296857D01*
X63871904Y-90525428D01*
X63833809Y-90601619D01*
X63795714Y-90639714D01*
X22361904Y-66666666D02*
X23161904Y-66400000D01*
X22361904Y-66133333D01*
X22742857Y-65600000D02*
X22780952Y-65485714D01*
X22819047Y-65447619D01*
X22895238Y-65409523D01*
X23009523Y-65409523D01*
X23085714Y-65447619D01*
X23123809Y-65485714D01*
X23161904Y-65561904D01*
X23161904Y-65866666D01*
X22361904Y-65866666D01*
X22361904Y-65600000D01*
X22400000Y-65523809D01*
X22438095Y-65485714D01*
X22514285Y-65447619D01*
X22590476Y-65447619D01*
X22666666Y-65485714D01*
X22704761Y-65523809D01*
X22742857Y-65600000D01*
X22742857Y-65866666D01*
X22361904Y-65066666D02*
X23009523Y-65066666D01*
X23085714Y-65028571D01*
X23123809Y-64990476D01*
X23161904Y-64914285D01*
X23161904Y-64761904D01*
X23123809Y-64685714D01*
X23085714Y-64647619D01*
X23009523Y-64609523D01*
X22361904Y-64609523D01*
X23123809Y-64266666D02*
X23161904Y-64152380D01*
X23161904Y-63961904D01*
X23123809Y-63885714D01*
X23085714Y-63847619D01*
X23009523Y-63809523D01*
X22933333Y-63809523D01*
X22857142Y-63847619D01*
X22819047Y-63885714D01*
X22780952Y-63961904D01*
X22742857Y-64114285D01*
X22704761Y-64190476D01*
X22666666Y-64228571D01*
X22590476Y-64266666D01*
X22514285Y-64266666D01*
X22438095Y-64228571D01*
X22400000Y-64190476D01*
X22361904Y-64114285D01*
X22361904Y-63923809D01*
X22400000Y-63809523D01*
X27550000Y-66109523D02*
X27511904Y-66185714D01*
X27511904Y-66300000D01*
X27550000Y-66414285D01*
X27626190Y-66490476D01*
X27702380Y-66528571D01*
X27854761Y-66566666D01*
X27969047Y-66566666D01*
X28121428Y-66528571D01*
X28197619Y-66490476D01*
X28273809Y-66414285D01*
X28311904Y-66300000D01*
X28311904Y-66223809D01*
X28273809Y-66109523D01*
X28235714Y-66071428D01*
X27969047Y-66071428D01*
X27969047Y-66223809D01*
X28311904Y-65728571D02*
X27511904Y-65728571D01*
X28311904Y-65271428D01*
X27511904Y-65271428D01*
X28311904Y-64890476D02*
X27511904Y-64890476D01*
X27511904Y-64700000D01*
X27550000Y-64585714D01*
X27626190Y-64509523D01*
X27702380Y-64471428D01*
X27854761Y-64433333D01*
X27969047Y-64433333D01*
X28121428Y-64471428D01*
X28197619Y-64509523D01*
X28273809Y-64585714D01*
X28311904Y-64700000D01*
X28311904Y-64890476D01*
X52950000Y-91909523D02*
X52911904Y-91985714D01*
X52911904Y-92100000D01*
X52950000Y-92214285D01*
X53026190Y-92290476D01*
X53102380Y-92328571D01*
X53254761Y-92366666D01*
X53369047Y-92366666D01*
X53521428Y-92328571D01*
X53597619Y-92290476D01*
X53673809Y-92214285D01*
X53711904Y-92100000D01*
X53711904Y-92023809D01*
X53673809Y-91909523D01*
X53635714Y-91871428D01*
X53369047Y-91871428D01*
X53369047Y-92023809D01*
X53711904Y-91528571D02*
X52911904Y-91528571D01*
X53711904Y-91071428D01*
X52911904Y-91071428D01*
X53711904Y-90690476D02*
X52911904Y-90690476D01*
X52911904Y-90500000D01*
X52950000Y-90385714D01*
X53026190Y-90309523D01*
X53102380Y-90271428D01*
X53254761Y-90233333D01*
X53369047Y-90233333D01*
X53521428Y-90271428D01*
X53597619Y-90309523D01*
X53673809Y-90385714D01*
X53711904Y-90500000D01*
X53711904Y-90690476D01*
X60570000Y-65952380D02*
X60531904Y-66028571D01*
X60531904Y-66142857D01*
X60570000Y-66257142D01*
X60646190Y-66333333D01*
X60722380Y-66371428D01*
X60874761Y-66409523D01*
X60989047Y-66409523D01*
X61141428Y-66371428D01*
X61217619Y-66333333D01*
X61293809Y-66257142D01*
X61331904Y-66142857D01*
X61331904Y-66066666D01*
X61293809Y-65952380D01*
X61255714Y-65914285D01*
X60989047Y-65914285D01*
X60989047Y-66066666D01*
X61331904Y-65571428D02*
X60531904Y-65571428D01*
X60531904Y-65266666D01*
X60570000Y-65190476D01*
X60608095Y-65152380D01*
X60684285Y-65114285D01*
X60798571Y-65114285D01*
X60874761Y-65152380D01*
X60912857Y-65190476D01*
X60950952Y-65266666D01*
X60950952Y-65571428D01*
X61331904Y-64352380D02*
X61331904Y-64809523D01*
X61331904Y-64580952D02*
X60531904Y-64580952D01*
X60646190Y-64657142D01*
X60722380Y-64733333D01*
X60760476Y-64809523D01*
X61331904Y-63971428D02*
X61331904Y-63819047D01*
X61293809Y-63742857D01*
X61255714Y-63704761D01*
X61141428Y-63628571D01*
X60989047Y-63590476D01*
X60684285Y-63590476D01*
X60608095Y-63628571D01*
X60570000Y-63666666D01*
X60531904Y-63742857D01*
X60531904Y-63895238D01*
X60570000Y-63971428D01*
X60608095Y-64009523D01*
X60684285Y-64047619D01*
X60874761Y-64047619D01*
X60950952Y-64009523D01*
X60989047Y-63971428D01*
X61027142Y-63895238D01*
X61027142Y-63742857D01*
X60989047Y-63666666D01*
X60950952Y-63628571D01*
X60874761Y-63590476D01*
X40250000Y-91909523D02*
X40211904Y-91985714D01*
X40211904Y-92100000D01*
X40250000Y-92214285D01*
X40326190Y-92290476D01*
X40402380Y-92328571D01*
X40554761Y-92366666D01*
X40669047Y-92366666D01*
X40821428Y-92328571D01*
X40897619Y-92290476D01*
X40973809Y-92214285D01*
X41011904Y-92100000D01*
X41011904Y-92023809D01*
X40973809Y-91909523D01*
X40935714Y-91871428D01*
X40669047Y-91871428D01*
X40669047Y-92023809D01*
X41011904Y-91528571D02*
X40211904Y-91528571D01*
X41011904Y-91071428D01*
X40211904Y-91071428D01*
X41011904Y-90690476D02*
X40211904Y-90690476D01*
X40211904Y-90500000D01*
X40250000Y-90385714D01*
X40326190Y-90309523D01*
X40402380Y-90271428D01*
X40554761Y-90233333D01*
X40669047Y-90233333D01*
X40821428Y-90271428D01*
X40897619Y-90309523D01*
X40973809Y-90385714D01*
X41011904Y-90500000D01*
X41011904Y-90690476D01*
X32661904Y-66590476D02*
X32661904Y-66095238D01*
X32966666Y-66361904D01*
X32966666Y-66247619D01*
X33004761Y-66171428D01*
X33042857Y-66133333D01*
X33119047Y-66095238D01*
X33309523Y-66095238D01*
X33385714Y-66133333D01*
X33423809Y-66171428D01*
X33461904Y-66247619D01*
X33461904Y-66476190D01*
X33423809Y-66552380D01*
X33385714Y-66590476D01*
X32661904Y-65866666D02*
X33461904Y-65600000D01*
X32661904Y-65333333D01*
X32661904Y-65142857D02*
X32661904Y-64647619D01*
X32966666Y-64914285D01*
X32966666Y-64800000D01*
X33004761Y-64723809D01*
X33042857Y-64685714D01*
X33119047Y-64647619D01*
X33309523Y-64647619D01*
X33385714Y-64685714D01*
X33423809Y-64723809D01*
X33461904Y-64800000D01*
X33461904Y-65028571D01*
X33423809Y-65104761D01*
X33385714Y-65142857D01*
X50410000Y-65952380D02*
X50371904Y-66028571D01*
X50371904Y-66142857D01*
X50410000Y-66257142D01*
X50486190Y-66333333D01*
X50562380Y-66371428D01*
X50714761Y-66409523D01*
X50829047Y-66409523D01*
X50981428Y-66371428D01*
X51057619Y-66333333D01*
X51133809Y-66257142D01*
X51171904Y-66142857D01*
X51171904Y-66066666D01*
X51133809Y-65952380D01*
X51095714Y-65914285D01*
X50829047Y-65914285D01*
X50829047Y-66066666D01*
X51171904Y-65571428D02*
X50371904Y-65571428D01*
X50371904Y-65266666D01*
X50410000Y-65190476D01*
X50448095Y-65152380D01*
X50524285Y-65114285D01*
X50638571Y-65114285D01*
X50714761Y-65152380D01*
X50752857Y-65190476D01*
X50790952Y-65266666D01*
X50790952Y-65571428D01*
X50448095Y-64809523D02*
X50410000Y-64771428D01*
X50371904Y-64695238D01*
X50371904Y-64504761D01*
X50410000Y-64428571D01*
X50448095Y-64390476D01*
X50524285Y-64352380D01*
X50600476Y-64352380D01*
X50714761Y-64390476D01*
X51171904Y-64847619D01*
X51171904Y-64352380D01*
X50448095Y-64047619D02*
X50410000Y-64009523D01*
X50371904Y-63933333D01*
X50371904Y-63742857D01*
X50410000Y-63666666D01*
X50448095Y-63628571D01*
X50524285Y-63590476D01*
X50600476Y-63590476D01*
X50714761Y-63628571D01*
X51171904Y-64085714D01*
X51171904Y-63590476D01*
X32630000Y-92071428D02*
X32591904Y-92147619D01*
X32591904Y-92261904D01*
X32630000Y-92376190D01*
X32706190Y-92452380D01*
X32782380Y-92490476D01*
X32934761Y-92528571D01*
X33049047Y-92528571D01*
X33201428Y-92490476D01*
X33277619Y-92452380D01*
X33353809Y-92376190D01*
X33391904Y-92261904D01*
X33391904Y-92185714D01*
X33353809Y-92071428D01*
X33315714Y-92033333D01*
X33049047Y-92033333D01*
X33049047Y-92185714D01*
X33391904Y-91690476D02*
X32591904Y-91690476D01*
X32591904Y-91385714D01*
X32630000Y-91309523D01*
X32668095Y-91271428D01*
X32744285Y-91233333D01*
X32858571Y-91233333D01*
X32934761Y-91271428D01*
X32972857Y-91309523D01*
X33010952Y-91385714D01*
X33010952Y-91690476D01*
X32591904Y-90966666D02*
X32591904Y-90471428D01*
X32896666Y-90738095D01*
X32896666Y-90623809D01*
X32934761Y-90547619D01*
X32972857Y-90509523D01*
X33049047Y-90471428D01*
X33239523Y-90471428D01*
X33315714Y-90509523D01*
X33353809Y-90547619D01*
X33391904Y-90623809D01*
X33391904Y-90852380D01*
X33353809Y-90928571D01*
X33315714Y-90966666D01*
X74190476Y-81323809D02*
X74304761Y-81361904D01*
X74495238Y-81361904D01*
X74571428Y-81323809D01*
X74609523Y-81285714D01*
X74647619Y-81209523D01*
X74647619Y-81133333D01*
X74609523Y-81057142D01*
X74571428Y-81019047D01*
X74495238Y-80980952D01*
X74342857Y-80942857D01*
X74266666Y-80904761D01*
X74228571Y-80866666D01*
X74190476Y-80790476D01*
X74190476Y-80714285D01*
X74228571Y-80638095D01*
X74266666Y-80600000D01*
X74342857Y-80561904D01*
X74533333Y-80561904D01*
X74647619Y-80600000D01*
X74914285Y-80561904D02*
X75104761Y-81361904D01*
X75257142Y-80790476D01*
X75409523Y-81361904D01*
X75600000Y-80561904D01*
X76361904Y-81285714D02*
X76323809Y-81323809D01*
X76209523Y-81361904D01*
X76133333Y-81361904D01*
X76019047Y-81323809D01*
X75942857Y-81247619D01*
X75904761Y-81171428D01*
X75866666Y-81019047D01*
X75866666Y-80904761D01*
X75904761Y-80752380D01*
X75942857Y-80676190D01*
X76019047Y-80600000D01*
X76133333Y-80561904D01*
X76209523Y-80561904D01*
X76323809Y-80600000D01*
X76361904Y-80638095D01*
X77085714Y-81361904D02*
X76704761Y-81361904D01*
X76704761Y-80561904D01*
X77352380Y-81361904D02*
X77352380Y-80561904D01*
X77809523Y-81361904D02*
X77466666Y-80904761D01*
X77809523Y-80561904D02*
X77352380Y-81019047D01*
X60570000Y-92652380D02*
X60531904Y-92728571D01*
X60531904Y-92842857D01*
X60570000Y-92957142D01*
X60646190Y-93033333D01*
X60722380Y-93071428D01*
X60874761Y-93109523D01*
X60989047Y-93109523D01*
X61141428Y-93071428D01*
X61217619Y-93033333D01*
X61293809Y-92957142D01*
X61331904Y-92842857D01*
X61331904Y-92766666D01*
X61293809Y-92652380D01*
X61255714Y-92614285D01*
X60989047Y-92614285D01*
X60989047Y-92766666D01*
X61331904Y-92271428D02*
X60531904Y-92271428D01*
X60531904Y-91966666D01*
X60570000Y-91890476D01*
X60608095Y-91852380D01*
X60684285Y-91814285D01*
X60798571Y-91814285D01*
X60874761Y-91852380D01*
X60912857Y-91890476D01*
X60950952Y-91966666D01*
X60950952Y-92271428D01*
X61331904Y-91052380D02*
X61331904Y-91509523D01*
X61331904Y-91280952D02*
X60531904Y-91280952D01*
X60646190Y-91357142D01*
X60722380Y-91433333D01*
X60760476Y-91509523D01*
X60608095Y-90747619D02*
X60570000Y-90709523D01*
X60531904Y-90633333D01*
X60531904Y-90442857D01*
X60570000Y-90366666D01*
X60608095Y-90328571D01*
X60684285Y-90290476D01*
X60760476Y-90290476D01*
X60874761Y-90328571D01*
X61331904Y-90785714D01*
X61331904Y-90290476D01*
X74054761Y-76323809D02*
X74169047Y-76361904D01*
X74359523Y-76361904D01*
X74435714Y-76323809D01*
X74473809Y-76285714D01*
X74511904Y-76209523D01*
X74511904Y-76133333D01*
X74473809Y-76057142D01*
X74435714Y-76019047D01*
X74359523Y-75980952D01*
X74207142Y-75942857D01*
X74130952Y-75904761D01*
X74092857Y-75866666D01*
X74054761Y-75790476D01*
X74054761Y-75714285D01*
X74092857Y-75638095D01*
X74130952Y-75600000D01*
X74207142Y-75561904D01*
X74397619Y-75561904D01*
X74511904Y-75600000D01*
X74778571Y-75561904D02*
X74969047Y-76361904D01*
X75121428Y-75790476D01*
X75273809Y-76361904D01*
X75464285Y-75561904D01*
X75769047Y-76361904D02*
X75769047Y-75561904D01*
X75959523Y-75561904D01*
X76073809Y-75600000D01*
X76150000Y-75676190D01*
X76188095Y-75752380D01*
X76226190Y-75904761D01*
X76226190Y-76019047D01*
X76188095Y-76171428D01*
X76150000Y-76247619D01*
X76073809Y-76323809D01*
X75959523Y-76361904D01*
X75769047Y-76361904D01*
X76569047Y-76361904D02*
X76569047Y-75561904D01*
X77102380Y-75561904D02*
X77254761Y-75561904D01*
X77330952Y-75600000D01*
X77407142Y-75676190D01*
X77445238Y-75828571D01*
X77445238Y-76095238D01*
X77407142Y-76247619D01*
X77330952Y-76323809D01*
X77254761Y-76361904D01*
X77102380Y-76361904D01*
X77026190Y-76323809D01*
X76950000Y-76247619D01*
X76911904Y-76095238D01*
X76911904Y-75828571D01*
X76950000Y-75676190D01*
X77026190Y-75600000D01*
X77102380Y-75561904D01*
X22100000Y-92071428D02*
X22061904Y-92147619D01*
X22061904Y-92261904D01*
X22100000Y-92376190D01*
X22176190Y-92452380D01*
X22252380Y-92490476D01*
X22404761Y-92528571D01*
X22519047Y-92528571D01*
X22671428Y-92490476D01*
X22747619Y-92452380D01*
X22823809Y-92376190D01*
X22861904Y-92261904D01*
X22861904Y-92185714D01*
X22823809Y-92071428D01*
X22785714Y-92033333D01*
X22519047Y-92033333D01*
X22519047Y-92185714D01*
X22861904Y-91690476D02*
X22061904Y-91690476D01*
X22061904Y-91385714D01*
X22100000Y-91309523D01*
X22138095Y-91271428D01*
X22214285Y-91233333D01*
X22328571Y-91233333D01*
X22404761Y-91271428D01*
X22442857Y-91309523D01*
X22480952Y-91385714D01*
X22480952Y-91690476D01*
X22061904Y-90738095D02*
X22061904Y-90661904D01*
X22100000Y-90585714D01*
X22138095Y-90547619D01*
X22214285Y-90509523D01*
X22366666Y-90471428D01*
X22557142Y-90471428D01*
X22709523Y-90509523D01*
X22785714Y-90547619D01*
X22823809Y-90585714D01*
X22861904Y-90661904D01*
X22861904Y-90738095D01*
X22823809Y-90814285D01*
X22785714Y-90852380D01*
X22709523Y-90890476D01*
X22557142Y-90928571D01*
X22366666Y-90928571D01*
X22214285Y-90890476D01*
X22138095Y-90852380D01*
X22100000Y-90814285D01*
X22061904Y-90738095D01*
X63100000Y-65952380D02*
X63061904Y-66028571D01*
X63061904Y-66142857D01*
X63100000Y-66257142D01*
X63176190Y-66333333D01*
X63252380Y-66371428D01*
X63404761Y-66409523D01*
X63519047Y-66409523D01*
X63671428Y-66371428D01*
X63747619Y-66333333D01*
X63823809Y-66257142D01*
X63861904Y-66142857D01*
X63861904Y-66066666D01*
X63823809Y-65952380D01*
X63785714Y-65914285D01*
X63519047Y-65914285D01*
X63519047Y-66066666D01*
X63861904Y-65571428D02*
X63061904Y-65571428D01*
X63061904Y-65266666D01*
X63100000Y-65190476D01*
X63138095Y-65152380D01*
X63214285Y-65114285D01*
X63328571Y-65114285D01*
X63404761Y-65152380D01*
X63442857Y-65190476D01*
X63480952Y-65266666D01*
X63480952Y-65571428D01*
X63861904Y-64352380D02*
X63861904Y-64809523D01*
X63861904Y-64580952D02*
X63061904Y-64580952D01*
X63176190Y-64657142D01*
X63252380Y-64733333D01*
X63290476Y-64809523D01*
X63404761Y-63895238D02*
X63366666Y-63971428D01*
X63328571Y-64009523D01*
X63252380Y-64047619D01*
X63214285Y-64047619D01*
X63138095Y-64009523D01*
X63100000Y-63971428D01*
X63061904Y-63895238D01*
X63061904Y-63742857D01*
X63100000Y-63666666D01*
X63138095Y-63628571D01*
X63214285Y-63590476D01*
X63252380Y-63590476D01*
X63328571Y-63628571D01*
X63366666Y-63666666D01*
X63404761Y-63742857D01*
X63404761Y-63895238D01*
X63442857Y-63971428D01*
X63480952Y-64009523D01*
X63557142Y-64047619D01*
X63709523Y-64047619D01*
X63785714Y-64009523D01*
X63823809Y-63971428D01*
X63861904Y-63895238D01*
X63861904Y-63742857D01*
X63823809Y-63666666D01*
X63785714Y-63628571D01*
X63709523Y-63590476D01*
X63557142Y-63590476D01*
X63480952Y-63628571D01*
X63442857Y-63666666D01*
X63404761Y-63742857D01*
X37710000Y-91871428D02*
X37671904Y-91947619D01*
X37671904Y-92061904D01*
X37710000Y-92176190D01*
X37786190Y-92252380D01*
X37862380Y-92290476D01*
X38014761Y-92328571D01*
X38129047Y-92328571D01*
X38281428Y-92290476D01*
X38357619Y-92252380D01*
X38433809Y-92176190D01*
X38471904Y-92061904D01*
X38471904Y-91985714D01*
X38433809Y-91871428D01*
X38395714Y-91833333D01*
X38129047Y-91833333D01*
X38129047Y-91985714D01*
X38471904Y-91490476D02*
X37671904Y-91490476D01*
X37671904Y-91185714D01*
X37710000Y-91109523D01*
X37748095Y-91071428D01*
X37824285Y-91033333D01*
X37938571Y-91033333D01*
X38014761Y-91071428D01*
X38052857Y-91109523D01*
X38090952Y-91185714D01*
X38090952Y-91490476D01*
X37671904Y-90309523D02*
X37671904Y-90690476D01*
X38052857Y-90728571D01*
X38014761Y-90690476D01*
X37976666Y-90614285D01*
X37976666Y-90423809D01*
X38014761Y-90347619D01*
X38052857Y-90309523D01*
X38129047Y-90271428D01*
X38319523Y-90271428D01*
X38395714Y-90309523D01*
X38433809Y-90347619D01*
X38471904Y-90423809D01*
X38471904Y-90614285D01*
X38433809Y-90690476D01*
X38395714Y-90728571D01*
X26600000Y-91971428D02*
X26561904Y-92047619D01*
X26561904Y-92161904D01*
X26600000Y-92276190D01*
X26676190Y-92352380D01*
X26752380Y-92390476D01*
X26904761Y-92428571D01*
X27019047Y-92428571D01*
X27171428Y-92390476D01*
X27247619Y-92352380D01*
X27323809Y-92276190D01*
X27361904Y-92161904D01*
X27361904Y-92085714D01*
X27323809Y-91971428D01*
X27285714Y-91933333D01*
X27019047Y-91933333D01*
X27019047Y-92085714D01*
X27361904Y-91590476D02*
X26561904Y-91590476D01*
X26561904Y-91285714D01*
X26600000Y-91209523D01*
X26638095Y-91171428D01*
X26714285Y-91133333D01*
X26828571Y-91133333D01*
X26904761Y-91171428D01*
X26942857Y-91209523D01*
X26980952Y-91285714D01*
X26980952Y-91590476D01*
X27361904Y-90371428D02*
X27361904Y-90828571D01*
X27361904Y-90600000D02*
X26561904Y-90600000D01*
X26676190Y-90676190D01*
X26752380Y-90752380D01*
X26790476Y-90828571D01*
X58030000Y-65952380D02*
X57991904Y-66028571D01*
X57991904Y-66142857D01*
X58030000Y-66257142D01*
X58106190Y-66333333D01*
X58182380Y-66371428D01*
X58334761Y-66409523D01*
X58449047Y-66409523D01*
X58601428Y-66371428D01*
X58677619Y-66333333D01*
X58753809Y-66257142D01*
X58791904Y-66142857D01*
X58791904Y-66066666D01*
X58753809Y-65952380D01*
X58715714Y-65914285D01*
X58449047Y-65914285D01*
X58449047Y-66066666D01*
X58791904Y-65571428D02*
X57991904Y-65571428D01*
X57991904Y-65266666D01*
X58030000Y-65190476D01*
X58068095Y-65152380D01*
X58144285Y-65114285D01*
X58258571Y-65114285D01*
X58334761Y-65152380D01*
X58372857Y-65190476D01*
X58410952Y-65266666D01*
X58410952Y-65571428D01*
X58068095Y-64809523D02*
X58030000Y-64771428D01*
X57991904Y-64695238D01*
X57991904Y-64504761D01*
X58030000Y-64428571D01*
X58068095Y-64390476D01*
X58144285Y-64352380D01*
X58220476Y-64352380D01*
X58334761Y-64390476D01*
X58791904Y-64847619D01*
X58791904Y-64352380D01*
X57991904Y-63857142D02*
X57991904Y-63780952D01*
X58030000Y-63704761D01*
X58068095Y-63666666D01*
X58144285Y-63628571D01*
X58296666Y-63590476D01*
X58487142Y-63590476D01*
X58639523Y-63628571D01*
X58715714Y-63666666D01*
X58753809Y-63704761D01*
X58791904Y-63780952D01*
X58791904Y-63857142D01*
X58753809Y-63933333D01*
X58715714Y-63971428D01*
X58639523Y-64009523D01*
X58487142Y-64047619D01*
X58296666Y-64047619D01*
X58144285Y-64009523D01*
X58068095Y-63971428D01*
X58030000Y-63933333D01*
X57991904Y-63857142D01*
X40783333Y-66409523D02*
X40783333Y-66028571D01*
X41011904Y-66485714D02*
X40211904Y-66219047D01*
X41011904Y-65952380D01*
X40250000Y-65266666D02*
X40211904Y-65342857D01*
X40211904Y-65457142D01*
X40250000Y-65571428D01*
X40326190Y-65647619D01*
X40402380Y-65685714D01*
X40554761Y-65723809D01*
X40669047Y-65723809D01*
X40821428Y-65685714D01*
X40897619Y-65647619D01*
X40973809Y-65571428D01*
X41011904Y-65457142D01*
X41011904Y-65380952D01*
X40973809Y-65266666D01*
X40935714Y-65228571D01*
X40669047Y-65228571D01*
X40669047Y-65380952D01*
X41011904Y-64885714D02*
X40211904Y-64885714D01*
X41011904Y-64428571D01*
X40211904Y-64428571D01*
X41011904Y-64047619D02*
X40211904Y-64047619D01*
X40211904Y-63857142D01*
X40250000Y-63742857D01*
X40326190Y-63666666D01*
X40402380Y-63628571D01*
X40554761Y-63590476D01*
X40669047Y-63590476D01*
X40821428Y-63628571D01*
X40897619Y-63666666D01*
X40973809Y-63742857D01*
X41011904Y-63857142D01*
X41011904Y-64047619D01*
X65650000Y-66109523D02*
X65611904Y-66185714D01*
X65611904Y-66300000D01*
X65650000Y-66414285D01*
X65726190Y-66490476D01*
X65802380Y-66528571D01*
X65954761Y-66566666D01*
X66069047Y-66566666D01*
X66221428Y-66528571D01*
X66297619Y-66490476D01*
X66373809Y-66414285D01*
X66411904Y-66300000D01*
X66411904Y-66223809D01*
X66373809Y-66109523D01*
X66335714Y-66071428D01*
X66069047Y-66071428D01*
X66069047Y-66223809D01*
X66411904Y-65728571D02*
X65611904Y-65728571D01*
X66411904Y-65271428D01*
X65611904Y-65271428D01*
X66411904Y-64890476D02*
X65611904Y-64890476D01*
X65611904Y-64700000D01*
X65650000Y-64585714D01*
X65726190Y-64509523D01*
X65802380Y-64471428D01*
X65954761Y-64433333D01*
X66069047Y-64433333D01*
X66221428Y-64471428D01*
X66297619Y-64509523D01*
X66373809Y-64585714D01*
X66411904Y-64700000D01*
X66411904Y-64890476D01*
X55490000Y-92506380D02*
X55451904Y-92582571D01*
X55451904Y-92696857D01*
X55490000Y-92811142D01*
X55566190Y-92887333D01*
X55642380Y-92925428D01*
X55794761Y-92963523D01*
X55909047Y-92963523D01*
X56061428Y-92925428D01*
X56137619Y-92887333D01*
X56213809Y-92811142D01*
X56251904Y-92696857D01*
X56251904Y-92620666D01*
X56213809Y-92506380D01*
X56175714Y-92468285D01*
X55909047Y-92468285D01*
X55909047Y-92620666D01*
X56251904Y-92125428D02*
X55451904Y-92125428D01*
X55451904Y-91820666D01*
X55490000Y-91744476D01*
X55528095Y-91706380D01*
X55604285Y-91668285D01*
X55718571Y-91668285D01*
X55794761Y-91706380D01*
X55832857Y-91744476D01*
X55870952Y-91820666D01*
X55870952Y-92125428D01*
X56251904Y-90906380D02*
X56251904Y-91363523D01*
X56251904Y-91134952D02*
X55451904Y-91134952D01*
X55566190Y-91211142D01*
X55642380Y-91287333D01*
X55680476Y-91363523D01*
X55451904Y-90411142D02*
X55451904Y-90334952D01*
X55490000Y-90258761D01*
X55528095Y-90220666D01*
X55604285Y-90182571D01*
X55756666Y-90144476D01*
X55947142Y-90144476D01*
X56099523Y-90182571D01*
X56175714Y-90220666D01*
X56213809Y-90258761D01*
X56251904Y-90334952D01*
X56251904Y-90411142D01*
X56213809Y-90487333D01*
X56175714Y-90525428D01*
X56099523Y-90563523D01*
X55947142Y-90601619D01*
X55756666Y-90601619D01*
X55604285Y-90563523D01*
X55528095Y-90525428D01*
X55490000Y-90487333D01*
X55451904Y-90411142D01*
X50410000Y-91871428D02*
X50371904Y-91947619D01*
X50371904Y-92061904D01*
X50410000Y-92176190D01*
X50486190Y-92252380D01*
X50562380Y-92290476D01*
X50714761Y-92328571D01*
X50829047Y-92328571D01*
X50981428Y-92290476D01*
X51057619Y-92252380D01*
X51133809Y-92176190D01*
X51171904Y-92061904D01*
X51171904Y-91985714D01*
X51133809Y-91871428D01*
X51095714Y-91833333D01*
X50829047Y-91833333D01*
X50829047Y-91985714D01*
X51171904Y-91490476D02*
X50371904Y-91490476D01*
X50371904Y-91185714D01*
X50410000Y-91109523D01*
X50448095Y-91071428D01*
X50524285Y-91033333D01*
X50638571Y-91033333D01*
X50714761Y-91071428D01*
X50752857Y-91109523D01*
X50790952Y-91185714D01*
X50790952Y-91490476D01*
X51171904Y-90652380D02*
X51171904Y-90500000D01*
X51133809Y-90423809D01*
X51095714Y-90385714D01*
X50981428Y-90309523D01*
X50829047Y-90271428D01*
X50524285Y-90271428D01*
X50448095Y-90309523D01*
X50410000Y-90347619D01*
X50371904Y-90423809D01*
X50371904Y-90576190D01*
X50410000Y-90652380D01*
X50448095Y-90690476D01*
X50524285Y-90728571D01*
X50714761Y-90728571D01*
X50790952Y-90690476D01*
X50829047Y-90652380D01*
X50867142Y-90576190D01*
X50867142Y-90423809D01*
X50829047Y-90347619D01*
X50790952Y-90309523D01*
X50714761Y-90271428D01*
X70730000Y-92506380D02*
X70691904Y-92582571D01*
X70691904Y-92696857D01*
X70730000Y-92811142D01*
X70806190Y-92887333D01*
X70882380Y-92925428D01*
X71034761Y-92963523D01*
X71149047Y-92963523D01*
X71301428Y-92925428D01*
X71377619Y-92887333D01*
X71453809Y-92811142D01*
X71491904Y-92696857D01*
X71491904Y-92620666D01*
X71453809Y-92506380D01*
X71415714Y-92468285D01*
X71149047Y-92468285D01*
X71149047Y-92620666D01*
X71491904Y-92125428D02*
X70691904Y-92125428D01*
X70691904Y-91820666D01*
X70730000Y-91744476D01*
X70768095Y-91706380D01*
X70844285Y-91668285D01*
X70958571Y-91668285D01*
X71034761Y-91706380D01*
X71072857Y-91744476D01*
X71110952Y-91820666D01*
X71110952Y-92125428D01*
X71491904Y-90906380D02*
X71491904Y-91363523D01*
X71491904Y-91134952D02*
X70691904Y-91134952D01*
X70806190Y-91211142D01*
X70882380Y-91287333D01*
X70920476Y-91363523D01*
X70691904Y-90182571D02*
X70691904Y-90563523D01*
X71072857Y-90601619D01*
X71034761Y-90563523D01*
X70996666Y-90487333D01*
X70996666Y-90296857D01*
X71034761Y-90220666D01*
X71072857Y-90182571D01*
X71149047Y-90144476D01*
X71339523Y-90144476D01*
X71415714Y-90182571D01*
X71453809Y-90220666D01*
X71491904Y-90296857D01*
X71491904Y-90487333D01*
X71453809Y-90563523D01*
X71415714Y-90601619D01*
X48631904Y-65590476D02*
X48250952Y-65857142D01*
X48631904Y-66047619D02*
X47831904Y-66047619D01*
X47831904Y-65742857D01*
X47870000Y-65666666D01*
X47908095Y-65628571D01*
X47984285Y-65590476D01*
X48098571Y-65590476D01*
X48174761Y-65628571D01*
X48212857Y-65666666D01*
X48250952Y-65742857D01*
X48250952Y-66047619D01*
X47831904Y-65247619D02*
X48479523Y-65247619D01*
X48555714Y-65209523D01*
X48593809Y-65171428D01*
X48631904Y-65095238D01*
X48631904Y-64942857D01*
X48593809Y-64866666D01*
X48555714Y-64828571D01*
X48479523Y-64790476D01*
X47831904Y-64790476D01*
X48631904Y-64409523D02*
X47831904Y-64409523D01*
X48631904Y-63952380D01*
X47831904Y-63952380D01*
X35170000Y-92071428D02*
X35131904Y-92147619D01*
X35131904Y-92261904D01*
X35170000Y-92376190D01*
X35246190Y-92452380D01*
X35322380Y-92490476D01*
X35474761Y-92528571D01*
X35589047Y-92528571D01*
X35741428Y-92490476D01*
X35817619Y-92452380D01*
X35893809Y-92376190D01*
X35931904Y-92261904D01*
X35931904Y-92185714D01*
X35893809Y-92071428D01*
X35855714Y-92033333D01*
X35589047Y-92033333D01*
X35589047Y-92185714D01*
X35931904Y-91690476D02*
X35131904Y-91690476D01*
X35131904Y-91385714D01*
X35170000Y-91309523D01*
X35208095Y-91271428D01*
X35284285Y-91233333D01*
X35398571Y-91233333D01*
X35474761Y-91271428D01*
X35512857Y-91309523D01*
X35550952Y-91385714D01*
X35550952Y-91690476D01*
X35398571Y-90547619D02*
X35931904Y-90547619D01*
X35093809Y-90738095D02*
X35665238Y-90928571D01*
X35665238Y-90433333D01*
X30061904Y-66576190D02*
X30061904Y-66080952D01*
X30366666Y-66347619D01*
X30366666Y-66233333D01*
X30404761Y-66157142D01*
X30442857Y-66119047D01*
X30519047Y-66080952D01*
X30709523Y-66080952D01*
X30785714Y-66119047D01*
X30823809Y-66157142D01*
X30861904Y-66233333D01*
X30861904Y-66461904D01*
X30823809Y-66538095D01*
X30785714Y-66576190D01*
X30061904Y-65852380D02*
X30861904Y-65585714D01*
X30061904Y-65319047D01*
X30061904Y-65128571D02*
X30061904Y-64633333D01*
X30366666Y-64900000D01*
X30366666Y-64785714D01*
X30404761Y-64709523D01*
X30442857Y-64671428D01*
X30519047Y-64633333D01*
X30709523Y-64633333D01*
X30785714Y-64671428D01*
X30823809Y-64709523D01*
X30861904Y-64785714D01*
X30861904Y-65014285D01*
X30823809Y-65090476D01*
X30785714Y-65128571D01*
X30938095Y-64480952D02*
X30938095Y-63871428D01*
X30442857Y-63680952D02*
X30442857Y-63414285D01*
X30861904Y-63300000D02*
X30861904Y-63680952D01*
X30061904Y-63680952D01*
X30061904Y-63300000D01*
X30861904Y-62957142D02*
X30061904Y-62957142D01*
X30861904Y-62500000D01*
X30061904Y-62500000D01*
X37600000Y-65952380D02*
X37561904Y-66028571D01*
X37561904Y-66142857D01*
X37600000Y-66257142D01*
X37676190Y-66333333D01*
X37752380Y-66371428D01*
X37904761Y-66409523D01*
X38019047Y-66409523D01*
X38171428Y-66371428D01*
X38247619Y-66333333D01*
X38323809Y-66257142D01*
X38361904Y-66142857D01*
X38361904Y-66066666D01*
X38323809Y-65952380D01*
X38285714Y-65914285D01*
X38019047Y-65914285D01*
X38019047Y-66066666D01*
X38361904Y-65571428D02*
X37561904Y-65571428D01*
X37561904Y-65266666D01*
X37600000Y-65190476D01*
X37638095Y-65152380D01*
X37714285Y-65114285D01*
X37828571Y-65114285D01*
X37904761Y-65152380D01*
X37942857Y-65190476D01*
X37980952Y-65266666D01*
X37980952Y-65571428D01*
X37638095Y-64809523D02*
X37600000Y-64771428D01*
X37561904Y-64695238D01*
X37561904Y-64504761D01*
X37600000Y-64428571D01*
X37638095Y-64390476D01*
X37714285Y-64352380D01*
X37790476Y-64352380D01*
X37904761Y-64390476D01*
X38361904Y-64847619D01*
X38361904Y-64352380D01*
X37904761Y-63895238D02*
X37866666Y-63971428D01*
X37828571Y-64009523D01*
X37752380Y-64047619D01*
X37714285Y-64047619D01*
X37638095Y-64009523D01*
X37600000Y-63971428D01*
X37561904Y-63895238D01*
X37561904Y-63742857D01*
X37600000Y-63666666D01*
X37638095Y-63628571D01*
X37714285Y-63590476D01*
X37752380Y-63590476D01*
X37828571Y-63628571D01*
X37866666Y-63666666D01*
X37904761Y-63742857D01*
X37904761Y-63895238D01*
X37942857Y-63971428D01*
X37980952Y-64009523D01*
X38057142Y-64047619D01*
X38209523Y-64047619D01*
X38285714Y-64009523D01*
X38323809Y-63971428D01*
X38361904Y-63895238D01*
X38361904Y-63742857D01*
X38323809Y-63666666D01*
X38285714Y-63628571D01*
X38209523Y-63590476D01*
X38057142Y-63590476D01*
X37980952Y-63628571D01*
X37942857Y-63666666D01*
X37904761Y-63742857D01*
X35633333Y-66242857D02*
X35633333Y-65861904D01*
X35861904Y-66319047D02*
X35061904Y-66052380D01*
X35861904Y-65785714D01*
X35861904Y-65519047D02*
X35061904Y-65519047D01*
X35061904Y-65328571D01*
X35100000Y-65214285D01*
X35176190Y-65138095D01*
X35252380Y-65100000D01*
X35404761Y-65061904D01*
X35519047Y-65061904D01*
X35671428Y-65100000D01*
X35747619Y-65138095D01*
X35823809Y-65214285D01*
X35861904Y-65328571D01*
X35861904Y-65519047D01*
X35785714Y-64261904D02*
X35823809Y-64300000D01*
X35861904Y-64414285D01*
X35861904Y-64490476D01*
X35823809Y-64604761D01*
X35747619Y-64680952D01*
X35671428Y-64719047D01*
X35519047Y-64757142D01*
X35404761Y-64757142D01*
X35252380Y-64719047D01*
X35176190Y-64680952D01*
X35100000Y-64604761D01*
X35061904Y-64490476D01*
X35061904Y-64414285D01*
X35100000Y-64300000D01*
X35138095Y-64261904D01*
X35938095Y-64109523D02*
X35938095Y-63500000D01*
X35061904Y-63423809D02*
X35861904Y-63157142D01*
X35061904Y-62890476D01*
X35861904Y-62166666D02*
X35480952Y-62433333D01*
X35861904Y-62623809D02*
X35061904Y-62623809D01*
X35061904Y-62319047D01*
X35100000Y-62242857D01*
X35138095Y-62204761D01*
X35214285Y-62166666D01*
X35328571Y-62166666D01*
X35404761Y-62204761D01*
X35442857Y-62242857D01*
X35480952Y-62319047D01*
X35480952Y-62623809D01*
X35442857Y-61823809D02*
X35442857Y-61557142D01*
X35861904Y-61442857D02*
X35861904Y-61823809D01*
X35061904Y-61823809D01*
X35061904Y-61442857D01*
X35442857Y-60833333D02*
X35442857Y-61100000D01*
X35861904Y-61100000D02*
X35061904Y-61100000D01*
X35061904Y-60719047D01*
X52950000Y-66109523D02*
X52911904Y-66185714D01*
X52911904Y-66300000D01*
X52950000Y-66414285D01*
X53026190Y-66490476D01*
X53102380Y-66528571D01*
X53254761Y-66566666D01*
X53369047Y-66566666D01*
X53521428Y-66528571D01*
X53597619Y-66490476D01*
X53673809Y-66414285D01*
X53711904Y-66300000D01*
X53711904Y-66223809D01*
X53673809Y-66109523D01*
X53635714Y-66071428D01*
X53369047Y-66071428D01*
X53369047Y-66223809D01*
X53711904Y-65728571D02*
X52911904Y-65728571D01*
X53711904Y-65271428D01*
X52911904Y-65271428D01*
X53711904Y-64890476D02*
X52911904Y-64890476D01*
X52911904Y-64700000D01*
X52950000Y-64585714D01*
X53026190Y-64509523D01*
X53102380Y-64471428D01*
X53254761Y-64433333D01*
X53369047Y-64433333D01*
X53521428Y-64471428D01*
X53597619Y-64509523D01*
X53673809Y-64585714D01*
X53711904Y-64700000D01*
X53711904Y-64890476D01*
X68190000Y-65952380D02*
X68151904Y-66028571D01*
X68151904Y-66142857D01*
X68190000Y-66257142D01*
X68266190Y-66333333D01*
X68342380Y-66371428D01*
X68494761Y-66409523D01*
X68609047Y-66409523D01*
X68761428Y-66371428D01*
X68837619Y-66333333D01*
X68913809Y-66257142D01*
X68951904Y-66142857D01*
X68951904Y-66066666D01*
X68913809Y-65952380D01*
X68875714Y-65914285D01*
X68609047Y-65914285D01*
X68609047Y-66066666D01*
X68951904Y-65571428D02*
X68151904Y-65571428D01*
X68151904Y-65266666D01*
X68190000Y-65190476D01*
X68228095Y-65152380D01*
X68304285Y-65114285D01*
X68418571Y-65114285D01*
X68494761Y-65152380D01*
X68532857Y-65190476D01*
X68570952Y-65266666D01*
X68570952Y-65571428D01*
X68951904Y-64352380D02*
X68951904Y-64809523D01*
X68951904Y-64580952D02*
X68151904Y-64580952D01*
X68266190Y-64657142D01*
X68342380Y-64733333D01*
X68380476Y-64809523D01*
X68151904Y-64085714D02*
X68151904Y-63552380D01*
X68951904Y-63895238D01*
X65650000Y-91909523D02*
X65611904Y-91985714D01*
X65611904Y-92100000D01*
X65650000Y-92214285D01*
X65726190Y-92290476D01*
X65802380Y-92328571D01*
X65954761Y-92366666D01*
X66069047Y-92366666D01*
X66221428Y-92328571D01*
X66297619Y-92290476D01*
X66373809Y-92214285D01*
X66411904Y-92100000D01*
X66411904Y-92023809D01*
X66373809Y-91909523D01*
X66335714Y-91871428D01*
X66069047Y-91871428D01*
X66069047Y-92023809D01*
X66411904Y-91528571D02*
X65611904Y-91528571D01*
X66411904Y-91071428D01*
X65611904Y-91071428D01*
X66411904Y-90690476D02*
X65611904Y-90690476D01*
X65611904Y-90500000D01*
X65650000Y-90385714D01*
X65726190Y-90309523D01*
X65802380Y-90271428D01*
X65954761Y-90233333D01*
X66069047Y-90233333D01*
X66221428Y-90271428D01*
X66297619Y-90309523D01*
X66373809Y-90385714D01*
X66411904Y-90500000D01*
X66411904Y-90690476D01*
G04 #@! TO.C,D314*
X126372023Y-85951468D02*
X126372023Y-84951468D01*
X126610119Y-84951468D01*
X126752976Y-84999088D01*
X126848214Y-85094326D01*
X126895833Y-85189564D01*
X126943452Y-85380040D01*
X126943452Y-85522897D01*
X126895833Y-85713373D01*
X126848214Y-85808611D01*
X126752976Y-85903849D01*
X126610119Y-85951468D01*
X126372023Y-85951468D01*
X127276785Y-84951468D02*
X127895833Y-84951468D01*
X127562500Y-85332421D01*
X127705357Y-85332421D01*
X127800595Y-85380040D01*
X127848214Y-85427659D01*
X127895833Y-85522897D01*
X127895833Y-85760992D01*
X127848214Y-85856230D01*
X127800595Y-85903849D01*
X127705357Y-85951468D01*
X127419642Y-85951468D01*
X127324404Y-85903849D01*
X127276785Y-85856230D01*
X128848214Y-85951468D02*
X128276785Y-85951468D01*
X128562500Y-85951468D02*
X128562500Y-84951468D01*
X128467261Y-85094326D01*
X128372023Y-85189564D01*
X128276785Y-85237183D01*
X129705357Y-85284802D02*
X129705357Y-85951468D01*
X129467261Y-84903849D02*
X129229166Y-85618135D01*
X129848214Y-85618135D01*
G04 #@! TO.C,R54*
X67809642Y-33942380D02*
X67476309Y-33466190D01*
X67238214Y-33942380D02*
X67238214Y-32942380D01*
X67619166Y-32942380D01*
X67714404Y-32990000D01*
X67762023Y-33037619D01*
X67809642Y-33132857D01*
X67809642Y-33275714D01*
X67762023Y-33370952D01*
X67714404Y-33418571D01*
X67619166Y-33466190D01*
X67238214Y-33466190D01*
X68714404Y-32942380D02*
X68238214Y-32942380D01*
X68190595Y-33418571D01*
X68238214Y-33370952D01*
X68333452Y-33323333D01*
X68571547Y-33323333D01*
X68666785Y-33370952D01*
X68714404Y-33418571D01*
X68762023Y-33513809D01*
X68762023Y-33751904D01*
X68714404Y-33847142D01*
X68666785Y-33894761D01*
X68571547Y-33942380D01*
X68333452Y-33942380D01*
X68238214Y-33894761D01*
X68190595Y-33847142D01*
X69619166Y-33275714D02*
X69619166Y-33942380D01*
X69381071Y-32894761D02*
X69142976Y-33609047D01*
X69762023Y-33609047D01*
G04 #@! TO.C,R57*
X67809642Y-30452380D02*
X67476309Y-29976190D01*
X67238214Y-30452380D02*
X67238214Y-29452380D01*
X67619166Y-29452380D01*
X67714404Y-29500000D01*
X67762023Y-29547619D01*
X67809642Y-29642857D01*
X67809642Y-29785714D01*
X67762023Y-29880952D01*
X67714404Y-29928571D01*
X67619166Y-29976190D01*
X67238214Y-29976190D01*
X68714404Y-29452380D02*
X68238214Y-29452380D01*
X68190595Y-29928571D01*
X68238214Y-29880952D01*
X68333452Y-29833333D01*
X68571547Y-29833333D01*
X68666785Y-29880952D01*
X68714404Y-29928571D01*
X68762023Y-30023809D01*
X68762023Y-30261904D01*
X68714404Y-30357142D01*
X68666785Y-30404761D01*
X68571547Y-30452380D01*
X68333452Y-30452380D01*
X68238214Y-30404761D01*
X68190595Y-30357142D01*
X69095357Y-29452380D02*
X69762023Y-29452380D01*
X69333452Y-30452380D01*
G04 #@! TO.C,R104*
X148989880Y-93418135D02*
X148513690Y-93751468D01*
X148989880Y-93989564D02*
X147989880Y-93989564D01*
X147989880Y-93608611D01*
X148037500Y-93513373D01*
X148085119Y-93465754D01*
X148180357Y-93418135D01*
X148323214Y-93418135D01*
X148418452Y-93465754D01*
X148466071Y-93513373D01*
X148513690Y-93608611D01*
X148513690Y-93989564D01*
X148989880Y-92465754D02*
X148989880Y-93037183D01*
X148989880Y-92751468D02*
X147989880Y-92751468D01*
X148132738Y-92846707D01*
X148227976Y-92941945D01*
X148275595Y-93037183D01*
X147989880Y-91846707D02*
X147989880Y-91751468D01*
X148037500Y-91656230D01*
X148085119Y-91608611D01*
X148180357Y-91560992D01*
X148370833Y-91513373D01*
X148608928Y-91513373D01*
X148799404Y-91560992D01*
X148894642Y-91608611D01*
X148942261Y-91656230D01*
X148989880Y-91751468D01*
X148989880Y-91846707D01*
X148942261Y-91941945D01*
X148894642Y-91989564D01*
X148799404Y-92037183D01*
X148608928Y-92084802D01*
X148370833Y-92084802D01*
X148180357Y-92037183D01*
X148085119Y-91989564D01*
X148037500Y-91941945D01*
X147989880Y-91846707D01*
X148323214Y-90656230D02*
X148989880Y-90656230D01*
X147942261Y-90894326D02*
X148656547Y-91132421D01*
X148656547Y-90513373D01*
G04 #@! TO.C,R56*
X68357142Y-35752380D02*
X68023809Y-35276190D01*
X67785714Y-35752380D02*
X67785714Y-34752380D01*
X68166666Y-34752380D01*
X68261904Y-34800000D01*
X68309523Y-34847619D01*
X68357142Y-34942857D01*
X68357142Y-35085714D01*
X68309523Y-35180952D01*
X68261904Y-35228571D01*
X68166666Y-35276190D01*
X67785714Y-35276190D01*
X69261904Y-34752380D02*
X68785714Y-34752380D01*
X68738095Y-35228571D01*
X68785714Y-35180952D01*
X68880952Y-35133333D01*
X69119047Y-35133333D01*
X69214285Y-35180952D01*
X69261904Y-35228571D01*
X69309523Y-35323809D01*
X69309523Y-35561904D01*
X69261904Y-35657142D01*
X69214285Y-35704761D01*
X69119047Y-35752380D01*
X68880952Y-35752380D01*
X68785714Y-35704761D01*
X68738095Y-35657142D01*
X70166666Y-34752380D02*
X69976190Y-34752380D01*
X69880952Y-34800000D01*
X69833333Y-34847619D01*
X69738095Y-34990476D01*
X69690476Y-35180952D01*
X69690476Y-35561904D01*
X69738095Y-35657142D01*
X69785714Y-35704761D01*
X69880952Y-35752380D01*
X70071428Y-35752380D01*
X70166666Y-35704761D01*
X70214285Y-35657142D01*
X70261904Y-35561904D01*
X70261904Y-35323809D01*
X70214285Y-35228571D01*
X70166666Y-35180952D01*
X70071428Y-35133333D01*
X69880952Y-35133333D01*
X69785714Y-35180952D01*
X69738095Y-35228571D01*
X69690476Y-35323809D01*
G04 #@! TO.C,D2*
X150161904Y-75551468D02*
X150161904Y-74551468D01*
X150400000Y-74551468D01*
X150542857Y-74599088D01*
X150638095Y-74694326D01*
X150685714Y-74789564D01*
X150733333Y-74980040D01*
X150733333Y-75122897D01*
X150685714Y-75313373D01*
X150638095Y-75408611D01*
X150542857Y-75503849D01*
X150400000Y-75551468D01*
X150161904Y-75551468D01*
X151114285Y-74646707D02*
X151161904Y-74599088D01*
X151257142Y-74551468D01*
X151495238Y-74551468D01*
X151590476Y-74599088D01*
X151638095Y-74646707D01*
X151685714Y-74741945D01*
X151685714Y-74837183D01*
X151638095Y-74980040D01*
X151066666Y-75551468D01*
X151685714Y-75551468D01*
G04 #@! TO.C,R9*
X96233333Y-77651468D02*
X95900000Y-77175278D01*
X95661904Y-77651468D02*
X95661904Y-76651468D01*
X96042857Y-76651468D01*
X96138095Y-76699088D01*
X96185714Y-76746707D01*
X96233333Y-76841945D01*
X96233333Y-76984802D01*
X96185714Y-77080040D01*
X96138095Y-77127659D01*
X96042857Y-77175278D01*
X95661904Y-77175278D01*
X96709523Y-77651468D02*
X96900000Y-77651468D01*
X96995238Y-77603849D01*
X97042857Y-77556230D01*
X97138095Y-77413373D01*
X97185714Y-77222897D01*
X97185714Y-76841945D01*
X97138095Y-76746707D01*
X97090476Y-76699088D01*
X96995238Y-76651468D01*
X96804761Y-76651468D01*
X96709523Y-76699088D01*
X96661904Y-76746707D01*
X96614285Y-76841945D01*
X96614285Y-77080040D01*
X96661904Y-77175278D01*
X96709523Y-77222897D01*
X96804761Y-77270516D01*
X96995238Y-77270516D01*
X97090476Y-77222897D01*
X97138095Y-77175278D01*
X97185714Y-77080040D01*
G04 #@! TO.C,R304*
X122155952Y-78951468D02*
X121822619Y-78475278D01*
X121584523Y-78951468D02*
X121584523Y-77951468D01*
X121965476Y-77951468D01*
X122060714Y-77999088D01*
X122108333Y-78046707D01*
X122155952Y-78141945D01*
X122155952Y-78284802D01*
X122108333Y-78380040D01*
X122060714Y-78427659D01*
X121965476Y-78475278D01*
X121584523Y-78475278D01*
X122489285Y-77951468D02*
X123108333Y-77951468D01*
X122775000Y-78332421D01*
X122917857Y-78332421D01*
X123013095Y-78380040D01*
X123060714Y-78427659D01*
X123108333Y-78522897D01*
X123108333Y-78760992D01*
X123060714Y-78856230D01*
X123013095Y-78903849D01*
X122917857Y-78951468D01*
X122632142Y-78951468D01*
X122536904Y-78903849D01*
X122489285Y-78856230D01*
X123727380Y-77951468D02*
X123822619Y-77951468D01*
X123917857Y-77999088D01*
X123965476Y-78046707D01*
X124013095Y-78141945D01*
X124060714Y-78332421D01*
X124060714Y-78570516D01*
X124013095Y-78760992D01*
X123965476Y-78856230D01*
X123917857Y-78903849D01*
X123822619Y-78951468D01*
X123727380Y-78951468D01*
X123632142Y-78903849D01*
X123584523Y-78856230D01*
X123536904Y-78760992D01*
X123489285Y-78570516D01*
X123489285Y-78332421D01*
X123536904Y-78141945D01*
X123584523Y-78046707D01*
X123632142Y-77999088D01*
X123727380Y-77951468D01*
X124917857Y-78284802D02*
X124917857Y-78951468D01*
X124679761Y-77903849D02*
X124441666Y-78618135D01*
X125060714Y-78618135D01*
G04 #@! TO.C,R308*
X131155952Y-85951468D02*
X130822619Y-85475278D01*
X130584523Y-85951468D02*
X130584523Y-84951468D01*
X130965476Y-84951468D01*
X131060714Y-84999088D01*
X131108333Y-85046707D01*
X131155952Y-85141945D01*
X131155952Y-85284802D01*
X131108333Y-85380040D01*
X131060714Y-85427659D01*
X130965476Y-85475278D01*
X130584523Y-85475278D01*
X131489285Y-84951468D02*
X132108333Y-84951468D01*
X131775000Y-85332421D01*
X131917857Y-85332421D01*
X132013095Y-85380040D01*
X132060714Y-85427659D01*
X132108333Y-85522897D01*
X132108333Y-85760992D01*
X132060714Y-85856230D01*
X132013095Y-85903849D01*
X131917857Y-85951468D01*
X131632142Y-85951468D01*
X131536904Y-85903849D01*
X131489285Y-85856230D01*
X132727380Y-84951468D02*
X132822619Y-84951468D01*
X132917857Y-84999088D01*
X132965476Y-85046707D01*
X133013095Y-85141945D01*
X133060714Y-85332421D01*
X133060714Y-85570516D01*
X133013095Y-85760992D01*
X132965476Y-85856230D01*
X132917857Y-85903849D01*
X132822619Y-85951468D01*
X132727380Y-85951468D01*
X132632142Y-85903849D01*
X132584523Y-85856230D01*
X132536904Y-85760992D01*
X132489285Y-85570516D01*
X132489285Y-85332421D01*
X132536904Y-85141945D01*
X132584523Y-85046707D01*
X132632142Y-84999088D01*
X132727380Y-84951468D01*
X133632142Y-85380040D02*
X133536904Y-85332421D01*
X133489285Y-85284802D01*
X133441666Y-85189564D01*
X133441666Y-85141945D01*
X133489285Y-85046707D01*
X133536904Y-84999088D01*
X133632142Y-84951468D01*
X133822619Y-84951468D01*
X133917857Y-84999088D01*
X133965476Y-85046707D01*
X134013095Y-85141945D01*
X134013095Y-85189564D01*
X133965476Y-85284802D01*
X133917857Y-85332421D01*
X133822619Y-85380040D01*
X133632142Y-85380040D01*
X133536904Y-85427659D01*
X133489285Y-85475278D01*
X133441666Y-85570516D01*
X133441666Y-85760992D01*
X133489285Y-85856230D01*
X133536904Y-85903849D01*
X133632142Y-85951468D01*
X133822619Y-85951468D01*
X133917857Y-85903849D01*
X133965476Y-85856230D01*
X134013095Y-85760992D01*
X134013095Y-85570516D01*
X133965476Y-85475278D01*
X133917857Y-85427659D01*
X133822619Y-85380040D01*
G04 #@! TO.C,R18*
X106857142Y-35252380D02*
X106523809Y-34776190D01*
X106285714Y-35252380D02*
X106285714Y-34252380D01*
X106666666Y-34252380D01*
X106761904Y-34300000D01*
X106809523Y-34347619D01*
X106857142Y-34442857D01*
X106857142Y-34585714D01*
X106809523Y-34680952D01*
X106761904Y-34728571D01*
X106666666Y-34776190D01*
X106285714Y-34776190D01*
X107809523Y-35252380D02*
X107238095Y-35252380D01*
X107523809Y-35252380D02*
X107523809Y-34252380D01*
X107428571Y-34395238D01*
X107333333Y-34490476D01*
X107238095Y-34538095D01*
X108380952Y-34680952D02*
X108285714Y-34633333D01*
X108238095Y-34585714D01*
X108190476Y-34490476D01*
X108190476Y-34442857D01*
X108238095Y-34347619D01*
X108285714Y-34300000D01*
X108380952Y-34252380D01*
X108571428Y-34252380D01*
X108666666Y-34300000D01*
X108714285Y-34347619D01*
X108761904Y-34442857D01*
X108761904Y-34490476D01*
X108714285Y-34585714D01*
X108666666Y-34633333D01*
X108571428Y-34680952D01*
X108380952Y-34680952D01*
X108285714Y-34728571D01*
X108238095Y-34776190D01*
X108190476Y-34871428D01*
X108190476Y-35061904D01*
X108238095Y-35157142D01*
X108285714Y-35204761D01*
X108380952Y-35252380D01*
X108571428Y-35252380D01*
X108666666Y-35204761D01*
X108714285Y-35157142D01*
X108761904Y-35061904D01*
X108761904Y-34871428D01*
X108714285Y-34776190D01*
X108666666Y-34728571D01*
X108571428Y-34680952D01*
G04 #@! TO.C,C3*
X140533333Y-65556230D02*
X140485714Y-65603849D01*
X140342857Y-65651468D01*
X140247619Y-65651468D01*
X140104761Y-65603849D01*
X140009523Y-65508611D01*
X139961904Y-65413373D01*
X139914285Y-65222897D01*
X139914285Y-65080040D01*
X139961904Y-64889564D01*
X140009523Y-64794326D01*
X140104761Y-64699088D01*
X140247619Y-64651468D01*
X140342857Y-64651468D01*
X140485714Y-64699088D01*
X140533333Y-64746707D01*
X140866666Y-64651468D02*
X141485714Y-64651468D01*
X141152380Y-65032421D01*
X141295238Y-65032421D01*
X141390476Y-65080040D01*
X141438095Y-65127659D01*
X141485714Y-65222897D01*
X141485714Y-65460992D01*
X141438095Y-65556230D01*
X141390476Y-65603849D01*
X141295238Y-65651468D01*
X141009523Y-65651468D01*
X140914285Y-65603849D01*
X140866666Y-65556230D01*
G04 #@! TO.C,D5*
X29452380Y-24238095D02*
X28452380Y-24238095D01*
X28452380Y-24000000D01*
X28500000Y-23857142D01*
X28595238Y-23761904D01*
X28690476Y-23714285D01*
X28880952Y-23666666D01*
X29023809Y-23666666D01*
X29214285Y-23714285D01*
X29309523Y-23761904D01*
X29404761Y-23857142D01*
X29452380Y-24000000D01*
X29452380Y-24238095D01*
X28452380Y-22761904D02*
X28452380Y-23238095D01*
X28928571Y-23285714D01*
X28880952Y-23238095D01*
X28833333Y-23142857D01*
X28833333Y-22904761D01*
X28880952Y-22809523D01*
X28928571Y-22761904D01*
X29023809Y-22714285D01*
X29261904Y-22714285D01*
X29357142Y-22761904D01*
X29404761Y-22809523D01*
X29452380Y-22904761D01*
X29452380Y-23142857D01*
X29404761Y-23238095D01*
X29357142Y-23285714D01*
G04 #@! TO.C,R22*
X127457142Y-45722380D02*
X127123809Y-45246190D01*
X126885714Y-45722380D02*
X126885714Y-44722380D01*
X127266666Y-44722380D01*
X127361904Y-44770000D01*
X127409523Y-44817619D01*
X127457142Y-44912857D01*
X127457142Y-45055714D01*
X127409523Y-45150952D01*
X127361904Y-45198571D01*
X127266666Y-45246190D01*
X126885714Y-45246190D01*
X127838095Y-44817619D02*
X127885714Y-44770000D01*
X127980952Y-44722380D01*
X128219047Y-44722380D01*
X128314285Y-44770000D01*
X128361904Y-44817619D01*
X128409523Y-44912857D01*
X128409523Y-45008095D01*
X128361904Y-45150952D01*
X127790476Y-45722380D01*
X128409523Y-45722380D01*
X128790476Y-44817619D02*
X128838095Y-44770000D01*
X128933333Y-44722380D01*
X129171428Y-44722380D01*
X129266666Y-44770000D01*
X129314285Y-44817619D01*
X129361904Y-44912857D01*
X129361904Y-45008095D01*
X129314285Y-45150952D01*
X128742857Y-45722380D01*
X129361904Y-45722380D01*
G04 #@! TO.C,R13*
X95902380Y-85379445D02*
X95426190Y-85712778D01*
X95902380Y-85950873D02*
X94902380Y-85950873D01*
X94902380Y-85569921D01*
X94950000Y-85474683D01*
X94997619Y-85427064D01*
X95092857Y-85379445D01*
X95235714Y-85379445D01*
X95330952Y-85427064D01*
X95378571Y-85474683D01*
X95426190Y-85569921D01*
X95426190Y-85950873D01*
X95902380Y-84427064D02*
X95902380Y-84998492D01*
X95902380Y-84712778D02*
X94902380Y-84712778D01*
X95045238Y-84808016D01*
X95140476Y-84903254D01*
X95188095Y-84998492D01*
X94902380Y-84093730D02*
X94902380Y-83474683D01*
X95283333Y-83808016D01*
X95283333Y-83665159D01*
X95330952Y-83569921D01*
X95378571Y-83522302D01*
X95473809Y-83474683D01*
X95711904Y-83474683D01*
X95807142Y-83522302D01*
X95854761Y-83569921D01*
X95902380Y-83665159D01*
X95902380Y-83950873D01*
X95854761Y-84046111D01*
X95807142Y-84093730D01*
G04 #@! TO.C,R16*
X100194642Y-91901468D02*
X99861309Y-91425278D01*
X99623214Y-91901468D02*
X99623214Y-90901468D01*
X100004166Y-90901468D01*
X100099404Y-90949088D01*
X100147023Y-90996707D01*
X100194642Y-91091945D01*
X100194642Y-91234802D01*
X100147023Y-91330040D01*
X100099404Y-91377659D01*
X100004166Y-91425278D01*
X99623214Y-91425278D01*
X101147023Y-91901468D02*
X100575595Y-91901468D01*
X100861309Y-91901468D02*
X100861309Y-90901468D01*
X100766071Y-91044326D01*
X100670833Y-91139564D01*
X100575595Y-91187183D01*
X102004166Y-90901468D02*
X101813690Y-90901468D01*
X101718452Y-90949088D01*
X101670833Y-90996707D01*
X101575595Y-91139564D01*
X101527976Y-91330040D01*
X101527976Y-91710992D01*
X101575595Y-91806230D01*
X101623214Y-91853849D01*
X101718452Y-91901468D01*
X101908928Y-91901468D01*
X102004166Y-91853849D01*
X102051785Y-91806230D01*
X102099404Y-91710992D01*
X102099404Y-91472897D01*
X102051785Y-91377659D01*
X102004166Y-91330040D01*
X101908928Y-91282421D01*
X101718452Y-91282421D01*
X101623214Y-91330040D01*
X101575595Y-91377659D01*
X101527976Y-91472897D01*
G04 #@! TO.C,R10*
X100602380Y-85379445D02*
X100126190Y-85712778D01*
X100602380Y-85950873D02*
X99602380Y-85950873D01*
X99602380Y-85569921D01*
X99650000Y-85474683D01*
X99697619Y-85427064D01*
X99792857Y-85379445D01*
X99935714Y-85379445D01*
X100030952Y-85427064D01*
X100078571Y-85474683D01*
X100126190Y-85569921D01*
X100126190Y-85950873D01*
X100602380Y-84427064D02*
X100602380Y-84998492D01*
X100602380Y-84712778D02*
X99602380Y-84712778D01*
X99745238Y-84808016D01*
X99840476Y-84903254D01*
X99888095Y-84998492D01*
X99602380Y-83808016D02*
X99602380Y-83712778D01*
X99650000Y-83617540D01*
X99697619Y-83569921D01*
X99792857Y-83522302D01*
X99983333Y-83474683D01*
X100221428Y-83474683D01*
X100411904Y-83522302D01*
X100507142Y-83569921D01*
X100554761Y-83617540D01*
X100602380Y-83712778D01*
X100602380Y-83808016D01*
X100554761Y-83903254D01*
X100507142Y-83950873D01*
X100411904Y-83998492D01*
X100221428Y-84046111D01*
X99983333Y-84046111D01*
X99792857Y-83998492D01*
X99697619Y-83950873D01*
X99650000Y-83903254D01*
X99602380Y-83808016D01*
G04 #@! TO.C,C22*
X112107142Y-85356230D02*
X112059523Y-85403849D01*
X111916666Y-85451468D01*
X111821428Y-85451468D01*
X111678571Y-85403849D01*
X111583333Y-85308611D01*
X111535714Y-85213373D01*
X111488095Y-85022897D01*
X111488095Y-84880040D01*
X111535714Y-84689564D01*
X111583333Y-84594326D01*
X111678571Y-84499088D01*
X111821428Y-84451468D01*
X111916666Y-84451468D01*
X112059523Y-84499088D01*
X112107142Y-84546707D01*
X112488095Y-84546707D02*
X112535714Y-84499088D01*
X112630952Y-84451468D01*
X112869047Y-84451468D01*
X112964285Y-84499088D01*
X113011904Y-84546707D01*
X113059523Y-84641945D01*
X113059523Y-84737183D01*
X113011904Y-84880040D01*
X112440476Y-85451468D01*
X113059523Y-85451468D01*
X113440476Y-84546707D02*
X113488095Y-84499088D01*
X113583333Y-84451468D01*
X113821428Y-84451468D01*
X113916666Y-84499088D01*
X113964285Y-84546707D01*
X114011904Y-84641945D01*
X114011904Y-84737183D01*
X113964285Y-84880040D01*
X113392857Y-85451468D01*
X114011904Y-85451468D01*
G04 #@! TO.C,R302*
X122368452Y-85951468D02*
X122035119Y-85475278D01*
X121797023Y-85951468D02*
X121797023Y-84951468D01*
X122177976Y-84951468D01*
X122273214Y-84999088D01*
X122320833Y-85046707D01*
X122368452Y-85141945D01*
X122368452Y-85284802D01*
X122320833Y-85380040D01*
X122273214Y-85427659D01*
X122177976Y-85475278D01*
X121797023Y-85475278D01*
X122701785Y-84951468D02*
X123320833Y-84951468D01*
X122987500Y-85332421D01*
X123130357Y-85332421D01*
X123225595Y-85380040D01*
X123273214Y-85427659D01*
X123320833Y-85522897D01*
X123320833Y-85760992D01*
X123273214Y-85856230D01*
X123225595Y-85903849D01*
X123130357Y-85951468D01*
X122844642Y-85951468D01*
X122749404Y-85903849D01*
X122701785Y-85856230D01*
X123939880Y-84951468D02*
X124035119Y-84951468D01*
X124130357Y-84999088D01*
X124177976Y-85046707D01*
X124225595Y-85141945D01*
X124273214Y-85332421D01*
X124273214Y-85570516D01*
X124225595Y-85760992D01*
X124177976Y-85856230D01*
X124130357Y-85903849D01*
X124035119Y-85951468D01*
X123939880Y-85951468D01*
X123844642Y-85903849D01*
X123797023Y-85856230D01*
X123749404Y-85760992D01*
X123701785Y-85570516D01*
X123701785Y-85332421D01*
X123749404Y-85141945D01*
X123797023Y-85046707D01*
X123844642Y-84999088D01*
X123939880Y-84951468D01*
X124654166Y-85046707D02*
X124701785Y-84999088D01*
X124797023Y-84951468D01*
X125035119Y-84951468D01*
X125130357Y-84999088D01*
X125177976Y-85046707D01*
X125225595Y-85141945D01*
X125225595Y-85237183D01*
X125177976Y-85380040D01*
X124606547Y-85951468D01*
X125225595Y-85951468D01*
G04 #@! TO.C,C303*
X141880952Y-91846230D02*
X141833333Y-91893849D01*
X141690476Y-91941468D01*
X141595238Y-91941468D01*
X141452380Y-91893849D01*
X141357142Y-91798611D01*
X141309523Y-91703373D01*
X141261904Y-91512897D01*
X141261904Y-91370040D01*
X141309523Y-91179564D01*
X141357142Y-91084326D01*
X141452380Y-90989088D01*
X141595238Y-90941468D01*
X141690476Y-90941468D01*
X141833333Y-90989088D01*
X141880952Y-91036707D01*
X142214285Y-90941468D02*
X142833333Y-90941468D01*
X142500000Y-91322421D01*
X142642857Y-91322421D01*
X142738095Y-91370040D01*
X142785714Y-91417659D01*
X142833333Y-91512897D01*
X142833333Y-91750992D01*
X142785714Y-91846230D01*
X142738095Y-91893849D01*
X142642857Y-91941468D01*
X142357142Y-91941468D01*
X142261904Y-91893849D01*
X142214285Y-91846230D01*
X143452380Y-90941468D02*
X143547619Y-90941468D01*
X143642857Y-90989088D01*
X143690476Y-91036707D01*
X143738095Y-91131945D01*
X143785714Y-91322421D01*
X143785714Y-91560516D01*
X143738095Y-91750992D01*
X143690476Y-91846230D01*
X143642857Y-91893849D01*
X143547619Y-91941468D01*
X143452380Y-91941468D01*
X143357142Y-91893849D01*
X143309523Y-91846230D01*
X143261904Y-91750992D01*
X143214285Y-91560516D01*
X143214285Y-91322421D01*
X143261904Y-91131945D01*
X143309523Y-91036707D01*
X143357142Y-90989088D01*
X143452380Y-90941468D01*
X144119047Y-90941468D02*
X144738095Y-90941468D01*
X144404761Y-91322421D01*
X144547619Y-91322421D01*
X144642857Y-91370040D01*
X144690476Y-91417659D01*
X144738095Y-91512897D01*
X144738095Y-91750992D01*
X144690476Y-91846230D01*
X144642857Y-91893849D01*
X144547619Y-91941468D01*
X144261904Y-91941468D01*
X144166666Y-91893849D01*
X144119047Y-91846230D01*
D14*
G04 #@! TO.C,JP9*
X157150000Y-49480000D02*
X158550000Y-49480000D01*
X158550000Y-51480000D02*
X157150000Y-51480000D01*
X159250000Y-50180000D02*
X159250000Y-50780000D01*
X156450000Y-50780000D02*
X156450000Y-50180000D01*
X159250000Y-50180000D02*
G75*
G03*
X158550000Y-49480000I-699999J1D01*
G01*
X157150000Y-49480000D02*
G75*
G03*
X156450000Y-50180000I-1J-699999D01*
G01*
X156450000Y-50780000D02*
G75*
G03*
X157150000Y-51480000I699999J-1D01*
G01*
X158550000Y-51480000D02*
G75*
G03*
X159250000Y-50780000I1J699999D01*
G01*
G04 #@! TO.C,J3*
X167110000Y-52230000D02*
X167110000Y-52730000D01*
X167110000Y-57230000D02*
X167110000Y-57730000D01*
X167110000Y-52730000D02*
X172610000Y-52730000D01*
X161810000Y-57780000D02*
X161810000Y-57180000D01*
X173220000Y-53730000D02*
X173220000Y-60040000D01*
X167110000Y-49730000D02*
X167110000Y-50230000D01*
X161810000Y-57180000D02*
X162410000Y-57480000D01*
X161500000Y-58620000D02*
X166000000Y-58620000D01*
X167110000Y-54730000D02*
X167110000Y-55230000D01*
X166000000Y-48840000D02*
X166000000Y-53730000D01*
X161500000Y-47420000D02*
X161500000Y-48840000D01*
X172610000Y-57730000D02*
X172610000Y-57230000D01*
X161500000Y-48840000D02*
X166000000Y-48840000D01*
X172610000Y-54730000D02*
X167110000Y-54730000D01*
X162410000Y-57480000D02*
X161810000Y-57780000D01*
X172610000Y-50230000D02*
X172610000Y-49730000D01*
X172610000Y-55230000D02*
X172610000Y-54730000D01*
X173220000Y-53730000D02*
X173220000Y-47420000D01*
X167110000Y-57730000D02*
X172610000Y-57730000D01*
X172610000Y-57230000D02*
X167110000Y-57230000D01*
X161500000Y-60040000D02*
X161500000Y-58620000D01*
X173220000Y-47420000D02*
X161500000Y-47420000D01*
X167110000Y-55230000D02*
X172610000Y-55230000D01*
X172610000Y-49730000D02*
X167110000Y-49730000D01*
X173220000Y-60040000D02*
X161500000Y-60040000D01*
X166000000Y-58620000D02*
X166000000Y-53730000D01*
X167110000Y-50230000D02*
X172610000Y-50230000D01*
X172610000Y-52730000D02*
X172610000Y-52230000D01*
X172610000Y-52230000D02*
X167110000Y-52230000D01*
G04 #@! TO.C,C4*
X147846267Y-54650000D02*
X147553733Y-54650000D01*
X147846267Y-55670000D02*
X147553733Y-55670000D01*
D11*
G04 #@! TO.C,U9*
X150595000Y-56560000D02*
G75*
G03*
X150595000Y-56560000I-125000J0D01*
G01*
D10*
X149595000Y-55235000D02*
X149595000Y-50185000D01*
X154645000Y-50185000D02*
X154595000Y-50185000D01*
X149645000Y-50185000D02*
X149595000Y-50185000D01*
X154645000Y-55235000D02*
X154645000Y-50185000D01*
X154645000Y-55235000D02*
X154595000Y-55235000D01*
X149645000Y-55235000D02*
X149595000Y-55235000D01*
D14*
G04 #@! TO.C,Q4*
X140900000Y-76139088D02*
X142850000Y-76139088D01*
X140900000Y-81259088D02*
X138950000Y-81259088D01*
X140900000Y-81259088D02*
X142850000Y-81259088D01*
X140900000Y-76139088D02*
X137450000Y-76139088D01*
G04 #@! TO.C,Q3*
X140900000Y-82539088D02*
X142850000Y-82539088D01*
X140900000Y-87659088D02*
X138950000Y-87659088D01*
X140900000Y-87659088D02*
X142850000Y-87659088D01*
X140900000Y-82539088D02*
X137450000Y-82539088D01*
G04 #@! TO.C,Y2*
X114400000Y-87599088D02*
X111600000Y-87599088D01*
X111600000Y-87599088D02*
X111600000Y-90899088D01*
G04 #@! TO.C,U8*
X87050000Y-94434088D02*
X83190000Y-94434088D01*
X90910000Y-82664088D02*
X90910000Y-82909088D01*
X87050000Y-94434088D02*
X90910000Y-94434088D01*
X90910000Y-94434088D02*
X90910000Y-94189088D01*
X90910000Y-94189088D02*
X92725000Y-94189088D01*
X83190000Y-82664088D02*
X83190000Y-82909088D01*
X87050000Y-82664088D02*
X83190000Y-82664088D01*
X87050000Y-82664088D02*
X90910000Y-82664088D01*
X83190000Y-94434088D02*
X83190000Y-94189088D01*
G04 #@! TO.C,D1*
X150675000Y-70724088D02*
X152675000Y-70724088D01*
X152675000Y-70724088D02*
X152675000Y-66824088D01*
X150675000Y-70724088D02*
X150675000Y-66824088D01*
G04 #@! TO.C,D316*
X130435000Y-80734088D02*
X130435000Y-79264088D01*
X127975000Y-80734088D02*
X130435000Y-80734088D01*
X130435000Y-79264088D02*
X127975000Y-79264088D01*
G04 #@! TO.C,R2*
X109277500Y-84544364D02*
X109277500Y-85053812D01*
X110322500Y-84544364D02*
X110322500Y-85053812D01*
G04 #@! TO.C,R307*
X97622500Y-58745276D02*
X97622500Y-59254724D01*
X96577500Y-58745276D02*
X96577500Y-59254724D01*
G04 #@! TO.C,U5*
X106470000Y-87464088D02*
X104270000Y-87464088D01*
X106470000Y-87464088D02*
X108670000Y-87464088D01*
X106470000Y-94234088D02*
X104270000Y-94234088D01*
X106470000Y-94234088D02*
X110070000Y-94234088D01*
G04 #@! TO.C,R35*
X73254724Y-39322500D02*
X72745276Y-39322500D01*
X73254724Y-38277500D02*
X72745276Y-38277500D01*
G04 #@! TO.C,C34*
X96285000Y-31838748D02*
X96285000Y-32361252D01*
X94815000Y-31838748D02*
X94815000Y-32361252D01*
G04 #@! TO.C,R309*
X132020276Y-84021588D02*
X132529724Y-84021588D01*
X132020276Y-82976588D02*
X132529724Y-82976588D01*
G04 #@! TO.C,JP8*
X99850000Y-33600000D02*
X99250000Y-33600000D01*
X100550000Y-31500000D02*
X100550000Y-32900000D01*
X98550000Y-32900000D02*
X98550000Y-31500000D01*
X99250000Y-30800000D02*
X99850000Y-30800000D01*
X100550000Y-31500000D02*
G75*
G03*
X99850000Y-30800000I-699999J1D01*
G01*
X98550000Y-32900000D02*
G75*
G03*
X99250000Y-33600000I699999J-1D01*
G01*
X99850000Y-33600000D02*
G75*
G03*
X100550000Y-32900000I1J699999D01*
G01*
X99250000Y-30800000D02*
G75*
G03*
X98550000Y-31500000I-1J-699999D01*
G01*
G04 #@! TO.C,U3*
X106500000Y-82159088D02*
X104190000Y-82159088D01*
X104190000Y-82159088D02*
X104190000Y-81884088D01*
X104190000Y-72239088D02*
X104190000Y-72514088D01*
X108810000Y-81884088D02*
X110100000Y-81884088D01*
X108810000Y-72239088D02*
X108810000Y-72514088D01*
X108810000Y-82159088D02*
X108810000Y-81884088D01*
X106500000Y-72239088D02*
X104190000Y-72239088D01*
X106500000Y-82159088D02*
X108810000Y-82159088D01*
X106500000Y-72239088D02*
X108810000Y-72239088D01*
G04 #@! TO.C,R310*
X132020276Y-79476588D02*
X132529724Y-79476588D01*
X132020276Y-80521588D02*
X132529724Y-80521588D01*
D15*
G04 #@! TO.C,PAU301*
X137250000Y-29289088D02*
X138750000Y-29289088D01*
X138750000Y-29289088D02*
X138750000Y-26289088D01*
D16*
X136250000Y-24789088D02*
X136250000Y-30789088D01*
X139750000Y-30789088D02*
X139750000Y-24789088D01*
D15*
X138750000Y-26289088D02*
X137250000Y-26289088D01*
X137250000Y-26289088D02*
X137250000Y-29289088D01*
D16*
X140127000Y-23239088D02*
G75*
G03*
X140127000Y-23239088I-127000J0D01*
G01*
D14*
G04 #@! TO.C,R11*
X107122500Y-84544364D02*
X107122500Y-85053812D01*
X106077500Y-84544364D02*
X106077500Y-85053812D01*
G04 #@! TO.C,D308*
X119200000Y-49335000D02*
X121660000Y-49335000D01*
X121660000Y-47865000D02*
X119200000Y-47865000D01*
X121660000Y-49335000D02*
X121660000Y-47865000D01*
G04 #@! TO.C,C302*
X95790000Y-46898752D02*
X95790000Y-46376248D01*
X97260000Y-46898752D02*
X97260000Y-46376248D01*
G04 #@! TO.C,C54*
X157348767Y-33219088D02*
X157056233Y-33219088D01*
X157348767Y-34239088D02*
X157056233Y-34239088D01*
G04 #@! TO.C,C21*
X112896267Y-92509088D02*
X112603733Y-92509088D01*
X112896267Y-91489088D02*
X112603733Y-91489088D01*
G04 #@! TO.C,J301*
X168862500Y-90749088D02*
X168862500Y-85249088D01*
X152862500Y-91249088D02*
X166862500Y-91249088D01*
X166862500Y-77499088D02*
X168862500Y-75249088D01*
X168862500Y-80749088D02*
X168862500Y-75249088D01*
X166862500Y-91249088D02*
X166862500Y-74749088D01*
X168862500Y-80749088D02*
X166862500Y-80749088D01*
X152862500Y-74749088D02*
X166862500Y-74749088D01*
X152862500Y-91249088D02*
X152862500Y-74774088D01*
X168862500Y-90749088D02*
X166862500Y-88249088D01*
X168862500Y-85249088D02*
X166862500Y-85249088D01*
G04 #@! TO.C,C11*
X117265000Y-92260340D02*
X117265000Y-91737836D01*
X118735000Y-92260340D02*
X118735000Y-91737836D01*
G04 #@! TO.C,C16*
X98198752Y-94034088D02*
X97676248Y-94034088D01*
X98198752Y-92564088D02*
X97676248Y-92564088D01*
G04 #@! TO.C,C305*
X94990000Y-59146267D02*
X94990000Y-58853733D01*
X96010000Y-59146267D02*
X96010000Y-58853733D01*
G04 #@! TO.C,D6*
X24500000Y-66250000D02*
X26500000Y-66250000D01*
X26500000Y-66250000D02*
X26500000Y-62350000D01*
X24500000Y-66250000D02*
X24500000Y-62350000D01*
G04 #@! TO.C,R21*
X123212776Y-46457500D02*
X123722224Y-46457500D01*
X123212776Y-47502500D02*
X123722224Y-47502500D01*
D17*
G04 #@! TO.C,U310*
X93775000Y-52387500D02*
X77775000Y-52387500D01*
X77775000Y-36387500D02*
X93775000Y-36387500D01*
D18*
X76350000Y-37402500D02*
G75*
G03*
X76350000Y-37402500I-100000J0D01*
G01*
D14*
G04 #@! TO.C,R91*
X123245276Y-48077500D02*
X123754724Y-48077500D01*
X123245276Y-49122500D02*
X123754724Y-49122500D01*
D15*
G04 #@! TO.C,MOD301*
X132220000Y-29289088D02*
X133720000Y-29289088D01*
X133720000Y-29289088D02*
X133720000Y-26289088D01*
X133720000Y-26289088D02*
X132220000Y-26289088D01*
X132220000Y-26289088D02*
X132220000Y-29289088D01*
D16*
X134720000Y-30789088D02*
X134720000Y-24789088D01*
X131220000Y-24789088D02*
X131220000Y-30789088D01*
X135097000Y-23239088D02*
G75*
G03*
X135097000Y-23239088I-127000J0D01*
G01*
D14*
G04 #@! TO.C,C20*
X39138022Y-38907514D02*
X38615518Y-38907514D01*
X39138022Y-37437514D02*
X38615518Y-37437514D01*
G04 #@! TO.C,R26*
X73254724Y-37622500D02*
X72745276Y-37622500D01*
X73254724Y-36577500D02*
X72745276Y-36577500D01*
G04 #@! TO.C,J312*
X120985000Y-20240000D02*
X120985000Y-19790000D01*
X120035000Y-24210000D02*
X120035000Y-25700000D01*
X114015000Y-23760000D02*
X114015000Y-24210000D01*
X120985000Y-19790000D02*
X114015000Y-19790000D01*
X120985000Y-23760000D02*
X120985000Y-24210000D01*
X120985000Y-24210000D02*
X120035000Y-24210000D01*
X114015000Y-24210000D02*
X114965000Y-24210000D01*
X114015000Y-19790000D02*
X114015000Y-20240000D01*
G04 #@! TO.C,R303*
X125029724Y-84021588D02*
X124520276Y-84021588D01*
X125029724Y-82976588D02*
X124520276Y-82976588D01*
G04 #@! TO.C,D302*
X121627500Y-46245000D02*
X119167500Y-46245000D01*
X121627500Y-47715000D02*
X121627500Y-46245000D01*
X119167500Y-47715000D02*
X121627500Y-47715000D01*
D15*
G04 #@! TO.C,U307*
X37414270Y-39672514D02*
X40414270Y-39672514D01*
X37414270Y-42072514D02*
X40414270Y-42072514D01*
D18*
X36554270Y-40122514D02*
G75*
G03*
X36554270Y-40122514I-100000J0D01*
G01*
D14*
G04 #@! TO.C,U2*
X124000000Y-94309088D02*
X125950000Y-94309088D01*
X124000000Y-89189088D02*
X120550000Y-89189088D01*
X124000000Y-89189088D02*
X125950000Y-89189088D01*
X124000000Y-94309088D02*
X122050000Y-94309088D01*
G04 #@! TO.C,C5*
X147813748Y-65456047D02*
X148336252Y-65456047D01*
X147813748Y-66926047D02*
X148336252Y-66926047D01*
D15*
G04 #@! TO.C,J2*
X92600000Y-18077500D02*
X77900000Y-18077500D01*
X77900000Y-23997500D02*
X77900000Y-30697500D01*
X79050000Y-32577500D02*
X82300000Y-32577500D01*
X92600000Y-20697500D02*
X92600000Y-18077500D01*
X77900000Y-18077500D02*
X77900000Y-20697500D01*
X92600000Y-23997500D02*
X92600000Y-30697500D01*
D18*
X83100000Y-34597500D02*
G75*
G03*
X83100000Y-34597500I-100000J0D01*
G01*
D15*
G04 #@! TO.C,J304*
X106838478Y-50000000D02*
X105000000Y-51838478D01*
X105000000Y-48161522D02*
X104554523Y-48607000D01*
X103161522Y-50000000D02*
X103607000Y-49554523D01*
D14*
G04 #@! TO.C,R55*
X73254724Y-32272500D02*
X72745276Y-32272500D01*
X73254724Y-31227500D02*
X72745276Y-31227500D01*
G04 #@! TO.C,C35*
X96940000Y-32053733D02*
X96940000Y-32346267D01*
X97960000Y-32053733D02*
X97960000Y-32346267D01*
G04 #@! TO.C,J309*
X176482500Y-32089088D02*
X176482500Y-44409088D01*
X159542500Y-36999088D02*
X159042500Y-36499088D01*
X159042500Y-36499088D02*
X159042500Y-37499088D01*
X159762500Y-44409088D02*
X164022500Y-44409088D01*
X159762500Y-32089088D02*
X159762500Y-44409088D01*
X176482500Y-44409088D02*
X168122500Y-44409088D01*
X164022500Y-32089088D02*
X159762500Y-32089088D01*
X168122500Y-32089088D02*
X176482500Y-32089088D01*
X159042500Y-37499088D02*
X159542500Y-36999088D01*
G04 #@! TO.C,D315*
X130435000Y-82764088D02*
X127975000Y-82764088D01*
X130435000Y-84234088D02*
X130435000Y-82764088D01*
X127975000Y-84234088D02*
X130435000Y-84234088D01*
G04 #@! TO.C,R15*
X129745276Y-90321588D02*
X130254724Y-90321588D01*
X129745276Y-89276588D02*
X130254724Y-89276588D01*
G04 #@! TO.C,R12*
X105522500Y-84544364D02*
X105522500Y-85053812D01*
X104477500Y-84544364D02*
X104477500Y-85053812D01*
D15*
G04 #@! TO.C,U4*
X156292500Y-35894088D02*
X156292500Y-34894088D01*
X158232500Y-35894088D02*
X158232500Y-34894088D01*
D18*
X156862500Y-36394088D02*
G75*
G03*
X156862500Y-36394088I-100000J0D01*
G01*
D14*
G04 #@! TO.C,C304*
X137123752Y-88764088D02*
X136601248Y-88764088D01*
X137123752Y-90234088D02*
X136601248Y-90234088D01*
G04 #@! TO.C,G\u002A\u002A\u002A*
G36*
X125760167Y-55847335D02*
G01*
X125783281Y-55867798D01*
X125813113Y-55887707D01*
X125862398Y-55910854D01*
X125920961Y-55932517D01*
X125926437Y-55934263D01*
X125978385Y-55949116D01*
X126027916Y-55959145D01*
X126083100Y-55965202D01*
X126152005Y-55968141D01*
X126242702Y-55968815D01*
X126253007Y-55968792D01*
X126401982Y-55963693D01*
X126521819Y-55949338D01*
X126612481Y-55925736D01*
X126673930Y-55892892D01*
X126679578Y-55888117D01*
X126703057Y-55872481D01*
X126717778Y-55880303D01*
X126719617Y-55883100D01*
X126726284Y-55899905D01*
X126742553Y-55943763D01*
X126767757Y-56012817D01*
X126801230Y-56105213D01*
X126842305Y-56219095D01*
X126890318Y-56352609D01*
X126944602Y-56503899D01*
X127004489Y-56671110D01*
X127069316Y-56852387D01*
X127138415Y-57045875D01*
X127211120Y-57249719D01*
X127286765Y-57462063D01*
X127310001Y-57527337D01*
X127888123Y-59151735D01*
X127861757Y-59207297D01*
X127816434Y-59269723D01*
X127742114Y-59328877D01*
X127640357Y-59384152D01*
X127512729Y-59434938D01*
X127360790Y-59480627D01*
X127186104Y-59520611D01*
X126990232Y-59554281D01*
X126959172Y-59558742D01*
X126900766Y-59565651D01*
X126821967Y-59573165D01*
X126728699Y-59580897D01*
X126626888Y-59588462D01*
X126522460Y-59595475D01*
X126421340Y-59601550D01*
X126329453Y-59606300D01*
X126252725Y-59609342D01*
X126197081Y-59610288D01*
X126176316Y-59609692D01*
X126150456Y-59608156D01*
X126100378Y-59605381D01*
X126032498Y-59601716D01*
X125953235Y-59597510D01*
X125923237Y-59595935D01*
X125701576Y-59579745D01*
X125494176Y-59555465D01*
X125302985Y-59523695D01*
X125129950Y-59485036D01*
X124977021Y-59440086D01*
X124846145Y-59389447D01*
X124739270Y-59333719D01*
X124658346Y-59273502D01*
X124605320Y-59209396D01*
X124593816Y-59186399D01*
X124590662Y-59177909D01*
X124588602Y-59168224D01*
X124588173Y-59155730D01*
X124589912Y-59138814D01*
X124594355Y-59115861D01*
X124602041Y-59085258D01*
X124613504Y-59045392D01*
X124629283Y-58994648D01*
X124649914Y-58931412D01*
X124675934Y-58854072D01*
X124707879Y-58761014D01*
X124746287Y-58650623D01*
X124791694Y-58521286D01*
X124844638Y-58371389D01*
X124905654Y-58199319D01*
X124975281Y-58003461D01*
X125054054Y-57782203D01*
X125142510Y-57533930D01*
X125157951Y-57490601D01*
X125234756Y-57275129D01*
X125308691Y-57067815D01*
X125379106Y-56870480D01*
X125445347Y-56684945D01*
X125506765Y-56513032D01*
X125562707Y-56356561D01*
X125612521Y-56217354D01*
X125655557Y-56097232D01*
X125691163Y-55998017D01*
X125718686Y-55921529D01*
X125737477Y-55869590D01*
X125746882Y-55844020D01*
X125747866Y-55841590D01*
X125760167Y-55847335D01*
G37*
G36*
X122226739Y-65747018D02*
G01*
X122221740Y-65763079D01*
X122207391Y-65805265D01*
X122184660Y-65870816D01*
X122154519Y-65956968D01*
X122117936Y-66060959D01*
X122075883Y-66180028D01*
X122029329Y-66311412D01*
X121979244Y-66452349D01*
X121964939Y-66492528D01*
X121904383Y-66662595D01*
X121853432Y-66806373D01*
X121811478Y-66926499D01*
X121777912Y-67025608D01*
X121752125Y-67106338D01*
X121733506Y-67171326D01*
X121721447Y-67223206D01*
X121715339Y-67264618D01*
X121714572Y-67298195D01*
X121718537Y-67326576D01*
X121726625Y-67352397D01*
X121738227Y-67378294D01*
X121752732Y-67406904D01*
X121753356Y-67408126D01*
X121801902Y-67482033D01*
X121873232Y-67561755D01*
X121961669Y-67641656D01*
X122061540Y-67716099D01*
X122067351Y-67719988D01*
X122240203Y-67822141D01*
X122441187Y-67917998D01*
X122668363Y-68007322D01*
X122919793Y-68089875D01*
X123193536Y-68165421D01*
X123487653Y-68233723D01*
X123800204Y-68294544D01*
X124129249Y-68347646D01*
X124472849Y-68392793D01*
X124829064Y-68429749D01*
X125195955Y-68458274D01*
X125571581Y-68478134D01*
X125954003Y-68489091D01*
X126341282Y-68490907D01*
X126731478Y-68483346D01*
X127122651Y-68466171D01*
X127512862Y-68439145D01*
X127765147Y-68416175D01*
X128139347Y-68373361D01*
X128495038Y-68321694D01*
X128830844Y-68261544D01*
X129145392Y-68193287D01*
X129437307Y-68117293D01*
X129705213Y-68033938D01*
X129947737Y-67943592D01*
X130163504Y-67846630D01*
X130351139Y-67743424D01*
X130428040Y-67693672D01*
X130520478Y-67620950D01*
X130601719Y-67538544D01*
X130667881Y-67451752D01*
X130715080Y-67365870D01*
X130739434Y-67286193D01*
X130741616Y-67265966D01*
X130737392Y-67237509D01*
X130722870Y-67182719D01*
X130697925Y-67101216D01*
X130662435Y-66992626D01*
X130616277Y-66856572D01*
X130559326Y-66692677D01*
X130491461Y-66500564D01*
X130486726Y-66487250D01*
X130436457Y-66345254D01*
X130389804Y-66212077D01*
X130347702Y-66090497D01*
X130311091Y-65983286D01*
X130280907Y-65893221D01*
X130258088Y-65823076D01*
X130243571Y-65775627D01*
X130238295Y-65753648D01*
X130238474Y-65752500D01*
X130254118Y-65755491D01*
X130296451Y-65766799D01*
X130362867Y-65785630D01*
X130450763Y-65811190D01*
X130557535Y-65842684D01*
X130680579Y-65879317D01*
X130817291Y-65920296D01*
X130965066Y-65964826D01*
X131121301Y-66012113D01*
X131283392Y-66061362D01*
X131448735Y-66111779D01*
X131614725Y-66162570D01*
X131778759Y-66212940D01*
X131938233Y-66262094D01*
X132090543Y-66309239D01*
X132233084Y-66353580D01*
X132363253Y-66394323D01*
X132478446Y-66430673D01*
X132576059Y-66461836D01*
X132653487Y-66487017D01*
X132708126Y-66505423D01*
X132718043Y-66508916D01*
X132835706Y-66554768D01*
X132961207Y-66610305D01*
X133087077Y-66671721D01*
X133205846Y-66735207D01*
X133310047Y-66796956D01*
X133389891Y-66851406D01*
X133497806Y-66939271D01*
X133581359Y-67023057D01*
X133645364Y-67108161D01*
X133688098Y-67185788D01*
X133711961Y-67240112D01*
X133724945Y-67284480D01*
X133729505Y-67332134D01*
X133728095Y-67396317D01*
X133727896Y-67400522D01*
X133718473Y-67491721D01*
X133698597Y-67564336D01*
X133686174Y-67592727D01*
X133642436Y-67661210D01*
X133577135Y-67736437D01*
X133496578Y-67812336D01*
X133407074Y-67882830D01*
X133337126Y-67928945D01*
X133312096Y-67941864D01*
X133260876Y-67966464D01*
X133185288Y-68001923D01*
X133087156Y-68047419D01*
X132968303Y-68102134D01*
X132830552Y-68165244D01*
X132675727Y-68235930D01*
X132505649Y-68313370D01*
X132322144Y-68396743D01*
X132127033Y-68485229D01*
X131922140Y-68578007D01*
X131709288Y-68674255D01*
X131490300Y-68773153D01*
X131267000Y-68873880D01*
X131041209Y-68975614D01*
X130814753Y-69077535D01*
X130589453Y-69178822D01*
X130367133Y-69278654D01*
X130149616Y-69376211D01*
X129938726Y-69470670D01*
X129736285Y-69561211D01*
X129544116Y-69647014D01*
X129364043Y-69727257D01*
X129197888Y-69801119D01*
X129047476Y-69867779D01*
X128914628Y-69926417D01*
X128801169Y-69976212D01*
X128708921Y-70016342D01*
X128639708Y-70045987D01*
X128595352Y-70064325D01*
X128591560Y-70065815D01*
X128333048Y-70155902D01*
X128046882Y-70235890D01*
X127734486Y-70305454D01*
X127397283Y-70364271D01*
X127104275Y-70404132D01*
X127030812Y-70410900D01*
X126931601Y-70416996D01*
X126811565Y-70422354D01*
X126675625Y-70426907D01*
X126528704Y-70430587D01*
X126375724Y-70433329D01*
X126221608Y-70435064D01*
X126071278Y-70435727D01*
X125929657Y-70435250D01*
X125801667Y-70433567D01*
X125692229Y-70430611D01*
X125606267Y-70426315D01*
X125585797Y-70424755D01*
X125236624Y-70387680D01*
X124900172Y-70337052D01*
X124579836Y-70273611D01*
X124279012Y-70198100D01*
X124001096Y-70111260D01*
X123798901Y-70034691D01*
X123766642Y-70020871D01*
X123708645Y-69995460D01*
X123626782Y-69959298D01*
X123522930Y-69913226D01*
X123398961Y-69858086D01*
X123256751Y-69794717D01*
X123098173Y-69723961D01*
X122925104Y-69646659D01*
X122739415Y-69563651D01*
X122542984Y-69475778D01*
X122337683Y-69383881D01*
X122125387Y-69288802D01*
X121907971Y-69191379D01*
X121687309Y-69092456D01*
X121465275Y-68992872D01*
X121243745Y-68893468D01*
X121024591Y-68795085D01*
X120809690Y-68698564D01*
X120600915Y-68604746D01*
X120400141Y-68514472D01*
X120209242Y-68428582D01*
X120030092Y-68347917D01*
X119864567Y-68273318D01*
X119714540Y-68205626D01*
X119581886Y-68145682D01*
X119468480Y-68094327D01*
X119376195Y-68052400D01*
X119306907Y-68020745D01*
X119262489Y-68000200D01*
X119247541Y-67993052D01*
X119110277Y-67915273D01*
X118988036Y-67827921D01*
X118885155Y-67734714D01*
X118805968Y-67639371D01*
X118773577Y-67586411D01*
X118754654Y-67544248D01*
X118743628Y-67499766D01*
X118738604Y-67442538D01*
X118737643Y-67388671D01*
X118738941Y-67318307D01*
X118744856Y-67266580D01*
X118757772Y-67221535D01*
X118780070Y-67171215D01*
X118781611Y-67168066D01*
X118835035Y-67082690D01*
X118912090Y-66992476D01*
X119007492Y-66902834D01*
X119115959Y-66819172D01*
X119135245Y-66805983D01*
X119227786Y-66748987D01*
X119340670Y-66687486D01*
X119464879Y-66625858D01*
X119591395Y-66568481D01*
X119711198Y-66519736D01*
X119764964Y-66500243D01*
X119815195Y-66483486D01*
X119888560Y-66459789D01*
X119982465Y-66429944D01*
X120094312Y-66394747D01*
X120221508Y-66354991D01*
X120361456Y-66311470D01*
X120511562Y-66264980D01*
X120669229Y-66216312D01*
X120831863Y-66166263D01*
X120996868Y-66115625D01*
X121161650Y-66065194D01*
X121323611Y-66015762D01*
X121480158Y-65968125D01*
X121628694Y-65923076D01*
X121766625Y-65881409D01*
X121891354Y-65843919D01*
X122000288Y-65811399D01*
X122090829Y-65784644D01*
X122160384Y-65764448D01*
X122206356Y-65751604D01*
X122226150Y-65746908D01*
X122226739Y-65747018D01*
G37*
G36*
X128815841Y-61731298D02*
G01*
X128823460Y-61752716D01*
X128840668Y-61800998D01*
X128866742Y-61874119D01*
X128900958Y-61970051D01*
X128942595Y-62086769D01*
X128990929Y-62222245D01*
X129045237Y-62374453D01*
X129104796Y-62541367D01*
X129168883Y-62720959D01*
X129236775Y-62911205D01*
X129307749Y-63110076D01*
X129349552Y-63227204D01*
X129421606Y-63429288D01*
X129490669Y-63623370D01*
X129556047Y-63807480D01*
X129617049Y-63979649D01*
X129672980Y-64137908D01*
X129723147Y-64280289D01*
X129766859Y-64404821D01*
X129803420Y-64509535D01*
X129832140Y-64592464D01*
X129852323Y-64651638D01*
X129863278Y-64685087D01*
X129865133Y-64691999D01*
X129858883Y-64715506D01*
X129842567Y-64757139D01*
X129821430Y-64804191D01*
X129760512Y-64899186D01*
X129670316Y-64990699D01*
X129552081Y-65078356D01*
X129407049Y-65161782D01*
X129236459Y-65240604D01*
X129041551Y-65314447D01*
X128823566Y-65382936D01*
X128583744Y-65445698D01*
X128323326Y-65502357D01*
X128043551Y-65552541D01*
X127745659Y-65595874D01*
X127430891Y-65631982D01*
X127100488Y-65660491D01*
X126950894Y-65670506D01*
X126878202Y-65673849D01*
X126780493Y-65676712D01*
X126663012Y-65679075D01*
X126531008Y-65680919D01*
X126389727Y-65682221D01*
X126244416Y-65682963D01*
X126100323Y-65683123D01*
X125962694Y-65682681D01*
X125836777Y-65681617D01*
X125727819Y-65679910D01*
X125641066Y-65677541D01*
X125601135Y-65675752D01*
X125258725Y-65651841D01*
X124928730Y-65619240D01*
X124612940Y-65578381D01*
X124313143Y-65529695D01*
X124031129Y-65473612D01*
X123768686Y-65410565D01*
X123527604Y-65340984D01*
X123309673Y-65265299D01*
X123116680Y-65183944D01*
X122950415Y-65097347D01*
X122812668Y-65005941D01*
X122808709Y-65002909D01*
X122713497Y-64915704D01*
X122645114Y-64822022D01*
X122610074Y-64740820D01*
X122607213Y-64730308D01*
X122605397Y-64718966D01*
X122605191Y-64705087D01*
X122607160Y-64686963D01*
X122611867Y-64662885D01*
X122619879Y-64631146D01*
X122631759Y-64590036D01*
X122648071Y-64537849D01*
X122669381Y-64472875D01*
X122696252Y-64393407D01*
X122729250Y-64297737D01*
X122768939Y-64184157D01*
X122815883Y-64050958D01*
X122870647Y-63896432D01*
X122933796Y-63718872D01*
X123005894Y-63516569D01*
X123087506Y-63287815D01*
X123125397Y-63181642D01*
X123211233Y-62941169D01*
X123287378Y-62727998D01*
X123354444Y-62540535D01*
X123413044Y-62377187D01*
X123463790Y-62236362D01*
X123507293Y-62116466D01*
X123544167Y-62015906D01*
X123575023Y-61933090D01*
X123600474Y-61866425D01*
X123621131Y-61814317D01*
X123637608Y-61775173D01*
X123650515Y-61747401D01*
X123660466Y-61729407D01*
X123668072Y-61719598D01*
X123673946Y-61716382D01*
X123678700Y-61718165D01*
X123682947Y-61723355D01*
X123684735Y-61726182D01*
X123743201Y-61798534D01*
X123828366Y-61871395D01*
X123936390Y-61942375D01*
X124063433Y-62009088D01*
X124205654Y-62069145D01*
X124277031Y-62094522D01*
X124515077Y-62164269D01*
X124777732Y-62223154D01*
X125060873Y-62271060D01*
X125360378Y-62307870D01*
X125672123Y-62333469D01*
X125991985Y-62347739D01*
X126315841Y-62350565D01*
X126639567Y-62341829D01*
X126959042Y-62321416D01*
X127270142Y-62289209D01*
X127568743Y-62245091D01*
X127825169Y-62194710D01*
X128033826Y-62142412D01*
X128220572Y-62083588D01*
X128383859Y-62018980D01*
X128522137Y-61949331D01*
X128633859Y-61875381D01*
X128717476Y-61797873D01*
X128753563Y-61749887D01*
X128797724Y-61680023D01*
X128815841Y-61731298D01*
G37*
G04 #@! TO.C,C2*
X96761252Y-81064088D02*
X96238748Y-81064088D01*
X96761252Y-82534088D02*
X96238748Y-82534088D01*
G04 #@! TO.C,R19*
X156632936Y-45005000D02*
X157087064Y-45005000D01*
X156632936Y-43535000D02*
X157087064Y-43535000D01*
G04 #@! TO.C,R14*
X99654724Y-79321588D02*
X99145276Y-79321588D01*
X99654724Y-78276588D02*
X99145276Y-78276588D01*
G04 #@! TO.C,J305*
X107885000Y-24210000D02*
X107885000Y-25700000D01*
X108835000Y-20240000D02*
X108835000Y-19790000D01*
X108835000Y-19790000D02*
X99365000Y-19790000D01*
X108835000Y-23760000D02*
X108835000Y-24210000D01*
X108835000Y-24210000D02*
X107885000Y-24210000D01*
X99365000Y-19790000D02*
X99365000Y-20240000D01*
X99365000Y-24210000D02*
X100315000Y-24210000D01*
X99365000Y-23760000D02*
X99365000Y-24210000D01*
G04 #@! TO.C,J311*
X82095000Y-60270000D02*
X82095000Y-59635000D01*
X82730000Y-60270000D02*
X82095000Y-60270000D01*
G04 #@! TO.C,L1*
X142800000Y-64299088D02*
X142800000Y-63849088D01*
X142800000Y-58099088D02*
X149000000Y-58099088D01*
X149000000Y-64299088D02*
X142800000Y-64299088D01*
X142800000Y-58099088D02*
X142800000Y-58549088D01*
X149000000Y-64299088D02*
X149000000Y-63849088D01*
X149000000Y-58099088D02*
X149000000Y-58549088D01*
G04 #@! TO.C,D4*
X34250000Y-25000000D02*
X30350000Y-25000000D01*
X34250000Y-27000000D02*
X30350000Y-27000000D01*
X34250000Y-27000000D02*
X34250000Y-25000000D01*
G04 #@! TO.C,U7*
X46800000Y-68000000D02*
X47200000Y-68000000D01*
X24167000Y-89000000D02*
X24167000Y-85993000D01*
X64600000Y-68000000D02*
X65000000Y-68000000D01*
X44300000Y-89000000D02*
X44700000Y-89000000D01*
X24167000Y-85993000D02*
X21500000Y-85993000D01*
X41700000Y-89000000D02*
X42100000Y-89000000D01*
X72500000Y-82200000D02*
X72500000Y-89000000D01*
X54400000Y-68000000D02*
X54800000Y-68000000D01*
X67100000Y-68000000D02*
X67500000Y-68000000D01*
X29000000Y-89000000D02*
X29400000Y-89000000D01*
X51900000Y-89000000D02*
X52300000Y-89000000D01*
X34100000Y-89000000D02*
X34500000Y-89000000D01*
X59500000Y-89000000D02*
X59900000Y-89000000D01*
X49300000Y-68000000D02*
X49700000Y-68000000D01*
X21500000Y-68000000D02*
X21800000Y-68000000D01*
X39200000Y-68000000D02*
X39600000Y-68000000D01*
X46800000Y-89000000D02*
X47200000Y-89000000D01*
X62100000Y-89000000D02*
X62500000Y-89000000D01*
X36600000Y-68000000D02*
X37000000Y-68000000D01*
X59500000Y-68000000D02*
X59900000Y-68000000D01*
X21500000Y-89000000D02*
X21500000Y-68000000D01*
X29000000Y-68000000D02*
X29400000Y-68000000D01*
X34100000Y-68000000D02*
X34500000Y-68000000D01*
X51900000Y-68000000D02*
X52300000Y-68000000D01*
X26500000Y-89000000D02*
X26900000Y-89000000D01*
X72500000Y-68000000D02*
X72500000Y-74800000D01*
X62100000Y-68000000D02*
X62500000Y-68000000D01*
X64600000Y-89000000D02*
X65000000Y-89000000D01*
X36600000Y-89000000D02*
X37000000Y-89000000D01*
X31600000Y-68000000D02*
X32000000Y-68000000D01*
X44300000Y-68000000D02*
X44700000Y-68000000D01*
X26500000Y-68000000D02*
X26900000Y-68000000D01*
X72500000Y-77400000D02*
X72500000Y-77000000D01*
X49300000Y-89000000D02*
X49700000Y-89000000D01*
X21500000Y-89000000D02*
X21800000Y-89000000D01*
X23900000Y-89000000D02*
X24300000Y-89000000D01*
X57000000Y-68000000D02*
X57400000Y-68000000D01*
X57000000Y-89000000D02*
X57400000Y-89000000D01*
X54400000Y-89000000D02*
X54800000Y-89000000D01*
X23900000Y-68000000D02*
X24300000Y-68000000D01*
X72500000Y-80000000D02*
X72500000Y-79600000D01*
X41700000Y-68000000D02*
X42100000Y-68000000D01*
X69700000Y-89000000D02*
X70100000Y-89000000D01*
X31600000Y-89000000D02*
X32000000Y-89000000D01*
X39200000Y-89000000D02*
X39600000Y-89000000D01*
X67100000Y-89000000D02*
X67500000Y-89000000D01*
X69700000Y-68000000D02*
X70100000Y-68000000D01*
G04 #@! TO.C,D314*
X130222500Y-86264088D02*
X127762500Y-86264088D01*
X127762500Y-87734088D02*
X130222500Y-87734088D01*
X130222500Y-87734088D02*
X130222500Y-86264088D01*
D19*
G04 #@! TO.C,U311*
X92609600Y-57958600D02*
X92304800Y-57958600D01*
X92304800Y-57958600D02*
X91695200Y-57958600D01*
X91695200Y-57958600D02*
X91390400Y-57958600D01*
X91695200Y-57958600D02*
G75*
G03*
X92304800Y-57958600I304800J0D01*
G01*
D14*
G04 #@! TO.C,R54*
X73254724Y-32977500D02*
X72745276Y-32977500D01*
X73254724Y-34022500D02*
X72745276Y-34022500D01*
G04 #@! TO.C,R57*
X73254724Y-30522500D02*
X72745276Y-30522500D01*
X73254724Y-29477500D02*
X72745276Y-29477500D01*
G04 #@! TO.C,R104*
X149277500Y-92553812D02*
X149277500Y-92044364D01*
X150322500Y-92553812D02*
X150322500Y-92044364D01*
G04 #@! TO.C,R56*
X73254724Y-35822500D02*
X72745276Y-35822500D01*
X73254724Y-34777500D02*
X72745276Y-34777500D01*
G04 #@! TO.C,Module2*
X24970000Y-21410000D02*
G75*
G03*
X21470000Y-24910000I-1J-3499999D01*
G01*
X76470000Y-24910000D02*
G75*
G03*
X72970000Y-21410000I-3499999J1D01*
G01*
X72970000Y-61410000D02*
G75*
G03*
X76470000Y-57910000I1J3499999D01*
G01*
X21470000Y-57910000D02*
G75*
G03*
X24970000Y-61410000I3499999J-1D01*
G01*
X35070000Y-22560000D02*
X36070000Y-22560000D01*
X57870000Y-60260000D02*
X56870000Y-60260000D01*
X57870000Y-56480000D02*
X57870000Y-60260000D01*
X21470000Y-24910000D02*
X21470000Y-57910000D01*
X35070000Y-56480000D02*
X36070000Y-56480000D01*
X35070000Y-56480000D02*
X35070000Y-60260000D01*
X76470000Y-57910000D02*
X76470000Y-24910000D01*
X24970000Y-61410000D02*
X72970000Y-61410000D01*
X57870000Y-22560000D02*
X57870000Y-26340000D01*
X72970000Y-21410000D02*
X24970000Y-21410000D01*
X35070000Y-60260000D02*
X36070000Y-60260000D01*
X35070000Y-26340000D02*
X36070000Y-26340000D01*
X35070000Y-22560000D02*
X35070000Y-26340000D01*
X57870000Y-56480000D02*
X56870000Y-56480000D01*
G04 #@! TO.C,D2*
X149850000Y-73999088D02*
X145950000Y-73999088D01*
X149850000Y-75999088D02*
X149850000Y-73999088D01*
X149850000Y-75999088D02*
X145950000Y-75999088D01*
G04 #@! TO.C,R9*
X99654724Y-76676588D02*
X99145276Y-76676588D01*
X99654724Y-77721588D02*
X99145276Y-77721588D01*
D20*
G04 #@! TO.C,U304*
X148941419Y-73694088D02*
G75*
G03*
X148941419Y-73694088I-141419J0D01*
G01*
D14*
G04 #@! TO.C,D301*
X121610000Y-45985000D02*
X121610000Y-44515000D01*
X121610000Y-44515000D02*
X119150000Y-44515000D01*
X119150000Y-45985000D02*
X121610000Y-45985000D01*
G04 #@! TO.C,R304*
X125029724Y-80521588D02*
X124520276Y-80521588D01*
X125029724Y-79476588D02*
X124520276Y-79476588D01*
G04 #@! TO.C,R308*
X131932776Y-86476588D02*
X132442224Y-86476588D01*
X131932776Y-87521588D02*
X132442224Y-87521588D01*
G04 #@! TO.C,R18*
X106377500Y-32454724D02*
X106377500Y-31945276D01*
X107422500Y-32454724D02*
X107422500Y-31945276D01*
G04 #@! TO.C,C3*
X144061252Y-66926047D02*
X143538748Y-66926047D01*
X144061252Y-65456047D02*
X143538748Y-65456047D01*
G04 #@! TO.C,D5*
X34250000Y-24500000D02*
X30350000Y-24500000D01*
X34250000Y-24500000D02*
X34250000Y-22500000D01*
X34250000Y-22500000D02*
X30350000Y-22500000D01*
G04 #@! TO.C,R22*
X123195276Y-44727500D02*
X123704724Y-44727500D01*
X123195276Y-45772500D02*
X123704724Y-45772500D01*
G04 #@! TO.C,R13*
X103922500Y-84544364D02*
X103922500Y-85053812D01*
X102877500Y-84544364D02*
X102877500Y-85053812D01*
G04 #@! TO.C,U6*
X103800000Y-33760000D02*
X103000000Y-33760000D01*
X103800000Y-30640000D02*
X104600000Y-30640000D01*
X103800000Y-30640000D02*
X102000000Y-30640000D01*
X103800000Y-33760000D02*
X104600000Y-33760000D01*
G04 #@! TO.C,R16*
X97992224Y-91971588D02*
X97482776Y-91971588D01*
X97992224Y-90926588D02*
X97482776Y-90926588D01*
G04 #@! TO.C,R10*
X107677500Y-84544364D02*
X107677500Y-85053812D01*
X108722500Y-84544364D02*
X108722500Y-85053812D01*
G04 #@! TO.C,J306*
X167112500Y-68499088D02*
X167112500Y-68999088D01*
X161502500Y-73809088D02*
X161502500Y-72389088D01*
X172612500Y-68999088D02*
X172612500Y-68499088D01*
X173222500Y-73809088D02*
X161502500Y-73809088D01*
X161812500Y-71549088D02*
X161812500Y-70949088D01*
X166002500Y-62609088D02*
X166002500Y-67499088D01*
X166002500Y-72389088D02*
X166002500Y-67499088D01*
X173222500Y-67499088D02*
X173222500Y-73809088D01*
X172612500Y-68499088D02*
X167112500Y-68499088D01*
X172612500Y-65999088D02*
X167112500Y-65999088D01*
X167112500Y-71499088D02*
X172612500Y-71499088D01*
X173222500Y-67499088D02*
X173222500Y-61189088D01*
X162412500Y-71249088D02*
X161812500Y-71549088D01*
X172612500Y-63999088D02*
X172612500Y-63499088D01*
X167112500Y-63499088D02*
X167112500Y-63999088D01*
X161502500Y-62609088D02*
X166002500Y-62609088D01*
X172612500Y-63499088D02*
X167112500Y-63499088D01*
X167112500Y-65999088D02*
X167112500Y-66499088D01*
X172612500Y-71499088D02*
X172612500Y-70999088D01*
X172612500Y-66499088D02*
X172612500Y-65999088D01*
X167112500Y-70999088D02*
X167112500Y-71499088D01*
X173222500Y-61189088D02*
X161502500Y-61189088D01*
X167112500Y-63999088D02*
X172612500Y-63999088D01*
X172612500Y-70999088D02*
X167112500Y-70999088D01*
X161502500Y-72389088D02*
X166002500Y-72389088D01*
X161812500Y-70949088D02*
X162412500Y-71249088D01*
X161502500Y-61189088D02*
X161502500Y-62609088D01*
X167112500Y-66499088D02*
X172612500Y-66499088D01*
X167112500Y-68999088D02*
X172612500Y-68999088D01*
G04 #@! TO.C,C22*
X112896267Y-85989088D02*
X112603733Y-85989088D01*
X112896267Y-87009088D02*
X112603733Y-87009088D01*
G04 #@! TO.C,R302*
X125029724Y-87521588D02*
X124520276Y-87521588D01*
X125029724Y-86476588D02*
X124520276Y-86476588D01*
G04 #@! TO.C,C303*
X137008767Y-92009088D02*
X136716233Y-92009088D01*
X137008767Y-90989088D02*
X136716233Y-90989088D01*
G04 #@! TD*
M02*
