%TF.GenerationSoftware,KiCad,Pcbnew,(6.0.2)*%
%TF.CreationDate,2022-04-25T10:39:50-06:00*%
%TF.ProjectId,CONEPROJ,434f4e45-5052-44f4-9a2e-6b696361645f,rev?*%
%TF.SameCoordinates,Original*%
%TF.FileFunction,Copper,L1,Top*%
%TF.FilePolarity,Positive*%
%FSLAX46Y46*%
G04 Gerber Fmt 4.6, Leading zero omitted, Abs format (unit mm)*
G04 Created by KiCad (PCBNEW (6.0.2)) date 2022-04-25 10:39:50*
%MOMM*%
%LPD*%
G01*
G04 APERTURE LIST*
G04 Aperture macros list*
%AMRoundRect*
0 Rectangle with rounded corners*
0 $1 Rounding radius*
0 $2 $3 $4 $5 $6 $7 $8 $9 X,Y pos of 4 corners*
0 Add a 4 corners polygon primitive as box body*
4,1,4,$2,$3,$4,$5,$6,$7,$8,$9,$2,$3,0*
0 Add four circle primitives for the rounded corners*
1,1,$1+$1,$2,$3*
1,1,$1+$1,$4,$5*
1,1,$1+$1,$6,$7*
1,1,$1+$1,$8,$9*
0 Add four rect primitives between the rounded corners*
20,1,$1+$1,$2,$3,$4,$5,0*
20,1,$1+$1,$4,$5,$6,$7,0*
20,1,$1+$1,$6,$7,$8,$9,0*
20,1,$1+$1,$8,$9,$2,$3,0*%
G04 Aperture macros list end*
%TA.AperFunction,ComponentPad*%
%ADD10C,0.500000*%
%TD*%
%TA.AperFunction,SMDPad,CuDef*%
%ADD11R,1.150000X1.000000*%
%TD*%
%TA.AperFunction,SMDPad,CuDef*%
%ADD12RoundRect,0.150000X-0.150000X0.875000X-0.150000X-0.875000X0.150000X-0.875000X0.150000X0.875000X0*%
%TD*%
%TA.AperFunction,SMDPad,CuDef*%
%ADD13R,1.200000X0.900000*%
%TD*%
%TA.AperFunction,SMDPad,CuDef*%
%ADD14RoundRect,0.100000X-0.100000X0.637500X-0.100000X-0.637500X0.100000X-0.637500X0.100000X0.637500X0*%
%TD*%
%TA.AperFunction,SMDPad,CuDef*%
%ADD15R,2.350000X5.100000*%
%TD*%
%TA.AperFunction,SMDPad,CuDef*%
%ADD16RoundRect,0.237500X0.237500X-0.250000X0.237500X0.250000X-0.237500X0.250000X-0.237500X-0.250000X0*%
%TD*%
%TA.AperFunction,SMDPad,CuDef*%
%ADD17RoundRect,0.237500X-0.237500X0.300000X-0.237500X-0.300000X0.237500X-0.300000X0.237500X0.300000X0*%
%TD*%
%TA.AperFunction,SMDPad,CuDef*%
%ADD18RoundRect,0.237500X0.237500X-0.300000X0.237500X0.300000X-0.237500X0.300000X-0.237500X-0.300000X0*%
%TD*%
%TA.AperFunction,SMDPad,CuDef*%
%ADD19R,2.000000X2.000000*%
%TD*%
%TA.AperFunction,SMDPad,CuDef*%
%ADD20RoundRect,0.150000X-0.150000X0.650000X-0.150000X-0.650000X0.150000X-0.650000X0.150000X0.650000X0*%
%TD*%
%TA.AperFunction,SMDPad,CuDef*%
%ADD21RoundRect,0.250000X-0.475000X0.337500X-0.475000X-0.337500X0.475000X-0.337500X0.475000X0.337500X0*%
%TD*%
%TA.AperFunction,SMDPad,CuDef*%
%ADD22RoundRect,0.250000X-0.337500X-0.475000X0.337500X-0.475000X0.337500X0.475000X-0.337500X0.475000X0*%
%TD*%
%TA.AperFunction,ComponentPad*%
%ADD23C,5.600000*%
%TD*%
%TA.AperFunction,SMDPad,CuDef*%
%ADD24RoundRect,0.250000X0.337500X0.475000X-0.337500X0.475000X-0.337500X-0.475000X0.337500X-0.475000X0*%
%TD*%
%TA.AperFunction,SMDPad,CuDef*%
%ADD25RoundRect,0.237500X-0.237500X0.250000X-0.237500X-0.250000X0.237500X-0.250000X0.237500X0.250000X0*%
%TD*%
%TA.AperFunction,SMDPad,CuDef*%
%ADD26R,0.750000X3.000000*%
%TD*%
%TA.AperFunction,SMDPad,CuDef*%
%ADD27RoundRect,0.418770X-0.418770X1.006311X-0.418770X-1.006311X0.418770X-1.006311X0.418770X1.006311X0*%
%TD*%
%TA.AperFunction,SMDPad,CuDef*%
%ADD28RoundRect,0.412540X-0.412540X0.887541X-0.412540X-0.887541X0.412540X-0.887541X0.412540X0.887541X0*%
%TD*%
%TA.AperFunction,SMDPad,CuDef*%
%ADD29RoundRect,0.443770X-0.443770X0.893770X-0.443770X-0.893770X0.443770X-0.893770X0.443770X0.893770X0*%
%TD*%
%TA.AperFunction,SMDPad,CuDef*%
%ADD30RoundRect,0.396885X-0.396885X1.015655X-0.396885X-1.015655X0.396885X-1.015655X0.396885X1.015655X0*%
%TD*%
%TA.AperFunction,SMDPad,CuDef*%
%ADD31RoundRect,0.150000X0.150000X-0.825000X0.150000X0.825000X-0.150000X0.825000X-0.150000X-0.825000X0*%
%TD*%
%TA.AperFunction,ConnectorPad*%
%ADD32C,0.787400*%
%TD*%
%TA.AperFunction,SMDPad,CuDef*%
%ADD33RoundRect,0.237500X-0.300000X-0.237500X0.300000X-0.237500X0.300000X0.237500X-0.300000X0.237500X0*%
%TD*%
%TA.AperFunction,SMDPad,CuDef*%
%ADD34RoundRect,0.237500X-0.250000X-0.237500X0.250000X-0.237500X0.250000X0.237500X-0.250000X0.237500X0*%
%TD*%
%TA.AperFunction,ComponentPad*%
%ADD35R,2.056000X2.056000*%
%TD*%
%TA.AperFunction,ComponentPad*%
%ADD36C,2.056000*%
%TD*%
%TA.AperFunction,SMDPad,CuDef*%
%ADD37RoundRect,0.250000X0.475000X-0.337500X0.475000X0.337500X-0.475000X0.337500X-0.475000X-0.337500X0*%
%TD*%
%TA.AperFunction,SMDPad,CuDef*%
%ADD38RoundRect,0.237500X0.287500X0.237500X-0.287500X0.237500X-0.287500X-0.237500X0.287500X-0.237500X0*%
%TD*%
%TA.AperFunction,SMDPad,CuDef*%
%ADD39R,1.000000X1.500000*%
%TD*%
%TA.AperFunction,SMDPad,CuDef*%
%ADD40RoundRect,0.050000X-0.050000X0.387500X-0.050000X-0.387500X0.050000X-0.387500X0.050000X0.387500X0*%
%TD*%
%TA.AperFunction,SMDPad,CuDef*%
%ADD41RoundRect,0.050000X-0.387500X0.050000X-0.387500X-0.050000X0.387500X-0.050000X0.387500X0.050000X0*%
%TD*%
%TA.AperFunction,SMDPad,CuDef*%
%ADD42RoundRect,0.144000X-1.456000X1.456000X-1.456000X-1.456000X1.456000X-1.456000X1.456000X1.456000X0*%
%TD*%
%TA.AperFunction,ComponentPad*%
%ADD43C,0.600000*%
%TD*%
%TA.AperFunction,SMDPad,CuDef*%
%ADD44RoundRect,0.237500X0.250000X0.237500X-0.250000X0.237500X-0.250000X-0.237500X0.250000X-0.237500X0*%
%TD*%
%TA.AperFunction,SMDPad,CuDef*%
%ADD45RoundRect,0.250000X-1.250000X-0.550000X1.250000X-0.550000X1.250000X0.550000X-1.250000X0.550000X0*%
%TD*%
%TA.AperFunction,SMDPad,CuDef*%
%ADD46R,0.900000X1.200000*%
%TD*%
%TA.AperFunction,SMDPad,CuDef*%
%ADD47R,2.200000X0.600000*%
%TD*%
%TA.AperFunction,SMDPad,CuDef*%
%ADD48C,1.000000*%
%TD*%
%TA.AperFunction,SMDPad,CuDef*%
%ADD49R,1.800000X2.100000*%
%TD*%
%TA.AperFunction,ViaPad*%
%ADD50C,0.800000*%
%TD*%
%TA.AperFunction,ViaPad*%
%ADD51C,0.450000*%
%TD*%
%TA.AperFunction,Conductor*%
%ADD52C,0.250000*%
%TD*%
%TA.AperFunction,Conductor*%
%ADD53C,0.200000*%
%TD*%
%TA.AperFunction,Conductor*%
%ADD54C,0.500000*%
%TD*%
%TA.AperFunction,Conductor*%
%ADD55C,1.000000*%
%TD*%
%TA.AperFunction,Conductor*%
%ADD56C,2.000000*%
%TD*%
%TA.AperFunction,Conductor*%
%ADD57C,0.190000*%
%TD*%
G04 APERTURE END LIST*
D10*
%TO.P,U4,30,GND*%
%TO.N,GND*%
X90925000Y-78322500D03*
%TO.P,U4,31,GND*%
X89625000Y-78322500D03*
%TO.P,U4,32,GND*%
X88325000Y-78322500D03*
%TO.P,U4,33,GND*%
X87025000Y-78322500D03*
%TO.P,U4,34,GND*%
X92225000Y-78322500D03*
%TO.P,U4,35,GND*%
X93525000Y-78322500D03*
%TO.P,U4,36,GND*%
X94825000Y-78322500D03*
%TO.P,U4,37,GND*%
X87025000Y-77022500D03*
%TO.P,U4,38,GND*%
X87025000Y-79622500D03*
%TO.P,U4,39,GND*%
X88325000Y-77022500D03*
%TO.P,U4,40,GND*%
X88325000Y-79622500D03*
%TO.P,U4,41,GND*%
X89625000Y-79622500D03*
%TO.P,U4,42,GND*%
X89625000Y-77022500D03*
%TO.P,U4,43,GND*%
X90925000Y-77022500D03*
%TO.P,U4,44,GND*%
X90925000Y-79622500D03*
%TO.P,U4,45,GND*%
X92225000Y-77022500D03*
%TO.P,U4,46,GND*%
X92225000Y-79622500D03*
%TO.P,U4,47,GND*%
X93525000Y-77022500D03*
%TO.P,U4,48,GND*%
X93525000Y-79622500D03*
%TO.P,U4,49,GND*%
X94825000Y-77022500D03*
%TO.P,U4,50,GND*%
X94825000Y-79622500D03*
%TD*%
D11*
%TO.P,Y2,1,1*%
%TO.N,/MCP_OSC1*%
X56000000Y-52750000D03*
%TO.P,Y2,2,2*%
%TO.N,GND*%
X57750000Y-52750000D03*
%TO.P,Y2,3,3*%
%TO.N,/MCP_OSC2*%
X57750000Y-51350000D03*
%TO.P,Y2,4,4*%
%TO.N,GND*%
X56000000Y-51350000D03*
%TD*%
D12*
%TO.P,U8,1,TXCAN*%
%TO.N,/CAN_TX*%
X72080000Y-52100000D03*
%TO.P,U8,2,RXCAN*%
%TO.N,/CAN_RX*%
X70810000Y-52100000D03*
%TO.P,U8,3,CLKOUT/SOF*%
%TO.N,unconnected-(U8-Pad3)*%
X69540000Y-52100000D03*
%TO.P,U8,4,~{TX0RTS}*%
%TO.N,unconnected-(U8-Pad4)*%
X68270000Y-52100000D03*
%TO.P,U8,5,~{TX1RTS}*%
%TO.N,unconnected-(U8-Pad5)*%
X67000000Y-52100000D03*
%TO.P,U8,6,~{TX2RTS}*%
%TO.N,unconnected-(U8-Pad6)*%
X65730000Y-52100000D03*
%TO.P,U8,7,OSC2*%
%TO.N,/MCP_OSC2*%
X64460000Y-52100000D03*
%TO.P,U8,8,OSC1*%
%TO.N,/MCP_OSC1*%
X63190000Y-52100000D03*
%TO.P,U8,9,VSS*%
%TO.N,GND*%
X61920000Y-52100000D03*
%TO.P,U8,10,~{RX1BF}*%
%TO.N,unconnected-(U8-Pad10)*%
X61920000Y-61400000D03*
%TO.P,U8,11,~{RX0BF}*%
%TO.N,unconnected-(U8-Pad11)*%
X63190000Y-61400000D03*
%TO.P,U8,12,~{INT}*%
%TO.N,/EXT_IO3*%
X64460000Y-61400000D03*
%TO.P,U8,13,SCK*%
%TO.N,/EXT_SPI_SCK*%
X65730000Y-61400000D03*
%TO.P,U8,14,SI*%
%TO.N,/EXT_SPI_MOSI*%
X67000000Y-61400000D03*
%TO.P,U8,15,SO*%
%TO.N,/EXT_SPI_MISO*%
X68270000Y-61400000D03*
%TO.P,U8,16,~{CS}*%
%TO.N,/EXT_SPI_SS1*%
X69540000Y-61400000D03*
%TO.P,U8,17,~{RESET}*%
%TO.N,/MCP_RESET*%
X70810000Y-61400000D03*
%TO.P,U8,18,VDD*%
%TO.N,+3V3*%
X72080000Y-61400000D03*
%TD*%
D13*
%TO.P,D1,1,K*%
%TO.N,Net-(D1-Pad1)*%
X25425000Y-61150000D03*
%TO.P,D1,2,A*%
%TO.N,GND*%
X25425000Y-57850000D03*
%TD*%
D14*
%TO.P,U5,1,TXCAN*%
%TO.N,/CAN_TX*%
X60175000Y-55887500D03*
%TO.P,U5,2,RXCAN*%
%TO.N,/CAN_RX*%
X59525000Y-55887500D03*
%TO.P,U5,3,CLKOUT/SOF*%
%TO.N,unconnected-(U5-Pad3)*%
X58875000Y-55887500D03*
%TO.P,U5,4,~{TX0RTS}*%
%TO.N,unconnected-(U5-Pad4)*%
X58225000Y-55887500D03*
%TO.P,U5,5,~{TX1RTS}*%
%TO.N,unconnected-(U5-Pad5)*%
X57575000Y-55887500D03*
%TO.P,U5,6,NC*%
%TO.N,unconnected-(U5-Pad6)*%
X56925000Y-55887500D03*
%TO.P,U5,7,~{TX2RTS}*%
%TO.N,unconnected-(U5-Pad7)*%
X56275000Y-55887500D03*
%TO.P,U5,8,OSC2*%
%TO.N,/MCP_OSC2*%
X55625000Y-55887500D03*
%TO.P,U5,9,OSC1*%
%TO.N,/MCP_OSC1*%
X54975000Y-55887500D03*
%TO.P,U5,10,VSS*%
%TO.N,GND*%
X54325000Y-55887500D03*
%TO.P,U5,11,~{RX1BF}*%
%TO.N,unconnected-(U5-Pad11)*%
X54325000Y-61612500D03*
%TO.P,U5,12,~{RX0BF}*%
%TO.N,unconnected-(U5-Pad12)*%
X54975000Y-61612500D03*
%TO.P,U5,13,~{INT}*%
%TO.N,/EXT_IO3*%
X55625000Y-61612500D03*
%TO.P,U5,14,SCK*%
%TO.N,/EXT_SPI_SCK*%
X56275000Y-61612500D03*
%TO.P,U5,15,NC*%
%TO.N,unconnected-(U5-Pad15)*%
X56925000Y-61612500D03*
%TO.P,U5,16,SI*%
%TO.N,/EXT_SPI_MOSI*%
X57575000Y-61612500D03*
%TO.P,U5,17,SO*%
%TO.N,/EXT_SPI_MISO*%
X58225000Y-61612500D03*
%TO.P,U5,18,~{CS}*%
%TO.N,/EXT_SPI_SS1*%
X58875000Y-61612500D03*
%TO.P,U5,19,~{RESET}*%
%TO.N,/MCP_RESET*%
X59525000Y-61612500D03*
%TO.P,U5,20,VDD*%
%TO.N,+3V3*%
X60175000Y-61612500D03*
%TD*%
D15*
%TO.P,L2,1*%
%TO.N,Net-(D4-Pad1)*%
X29400000Y-87900000D03*
%TO.P,L2,2*%
%TO.N,+3V3*%
X33550000Y-87900000D03*
%TD*%
D16*
%TO.P,R8,1*%
%TO.N,/VBAT_SENSE*%
X38225000Y-63062500D03*
%TO.P,R8,2*%
%TO.N,GND*%
X38225000Y-61237500D03*
%TD*%
D17*
%TO.P,C15,1*%
%TO.N,+3V3*%
X83125000Y-69587500D03*
%TO.P,C15,2*%
%TO.N,GND*%
X83125000Y-71312500D03*
%TD*%
D18*
%TO.P,R7,1*%
%TO.N,/PICO_USB_N*%
X96800000Y-78162500D03*
%TO.P,R7,2*%
%TO.N,/PICO_USB__N*%
X96800000Y-76437500D03*
%TD*%
%TO.P,C21,1*%
%TO.N,GND*%
X59150000Y-52937500D03*
%TO.P,C21,2*%
%TO.N,/MCP_OSC2*%
X59150000Y-51212500D03*
%TD*%
D19*
%TO.P,PAU301,1,A*%
%TO.N,GND*%
X39000000Y-79595000D03*
%TO.P,PAU301,2,B*%
%TO.N,/PAUSE_BTN*%
X47000000Y-79595000D03*
%TD*%
D20*
%TO.P,U7,1,~{CS}*%
%TO.N,/QSPI_SS*%
X103893687Y-60987273D03*
%TO.P,U7,2,DO(IO1)*%
%TO.N,/QSPI_SD1*%
X102623687Y-60987273D03*
%TO.P,U7,3,IO2*%
%TO.N,/QSPI_SD2*%
X101353687Y-60987273D03*
%TO.P,U7,4,GND*%
%TO.N,GND*%
X100083687Y-60987273D03*
%TO.P,U7,5,DI(IO0)*%
%TO.N,/QSPI_SD0*%
X100083687Y-68187273D03*
%TO.P,U7,6,CLK*%
%TO.N,/QSPI_SCLK*%
X101353687Y-68187273D03*
%TO.P,U7,7,IO3*%
%TO.N,/QSPI_SD3*%
X102623687Y-68187273D03*
%TO.P,U7,8,VCC*%
%TO.N,+3V3*%
X103893687Y-68187273D03*
%TD*%
D21*
%TO.P,C11,1*%
%TO.N,+3V3*%
X46150000Y-63712500D03*
%TO.P,C11,2*%
%TO.N,GND*%
X46150000Y-65787500D03*
%TD*%
D22*
%TO.P,C16,1*%
%TO.N,+3V3*%
X60862500Y-63750000D03*
%TO.P,C16,2*%
%TO.N,GND*%
X62937500Y-63750000D03*
%TD*%
D17*
%TO.P,C24,1*%
%TO.N,+3V3*%
X86300000Y-69587500D03*
%TO.P,C24,2*%
%TO.N,GND*%
X86300000Y-71312500D03*
%TD*%
D23*
%TO.P,H304,1,1*%
%TO.N,GND*%
X67000000Y-47000000D03*
%TD*%
D24*
%TO.P,C27,1*%
%TO.N,Net-(C27-Pad1)*%
X95262500Y-86845000D03*
%TO.P,C27,2*%
%TO.N,GND*%
X93187500Y-86845000D03*
%TD*%
D25*
%TO.P,R5,1*%
%TO.N,Net-(R5-Pad1)*%
X81550000Y-67712500D03*
%TO.P,R5,2*%
%TO.N,Net-(C8-Pad2)*%
X81550000Y-69537500D03*
%TD*%
D16*
%TO.P,R2,1*%
%TO.N,/EXT_12V*%
X38225000Y-67175000D03*
%TO.P,R2,2*%
%TO.N,/VBAT_SENSE*%
X38225000Y-65350000D03*
%TD*%
D26*
%TO.P,J2,1,Pin_1*%
%TO.N,+5V*%
X76499838Y-86127500D03*
%TO.P,J2,2,Pin_2*%
%TO.N,+3V3*%
X76499838Y-82527500D03*
%TO.P,J2,3,Pin_3*%
%TO.N,+5V*%
X75229838Y-86127500D03*
%TO.P,J2,4,Pin_4*%
%TO.N,/LED_GRN*%
X75229838Y-82527500D03*
%TO.P,J2,5,Pin_5*%
%TO.N,/EXT_UART_RX*%
X73959838Y-86127500D03*
%TO.P,J2,6,Pin_6*%
%TO.N,/WIFI_LED*%
X73959838Y-82527500D03*
%TO.P,J2,7,Pin_7*%
%TO.N,/EXT_UART_TX*%
X72689838Y-86127500D03*
%TO.P,J2,8,Pin_8*%
%TO.N,/LED_RED*%
X72689838Y-82527500D03*
%TO.P,J2,9,Pin_9*%
%TO.N,/CAN_TX*%
X71419838Y-86127500D03*
%TO.P,J2,10,Pin_10*%
%TO.N,/EXT_I2C_SDA*%
X71419838Y-82527500D03*
%TO.P,J2,11,Pin_11*%
%TO.N,/CAN_RX*%
X70149838Y-86127500D03*
%TO.P,J2,12,Pin_12*%
%TO.N,/EXT_I2C_SCL*%
X70149838Y-82527500D03*
%TO.P,J2,13,Pin_13*%
%TO.N,+3V3*%
X68879838Y-86127500D03*
%TO.P,J2,14,Pin_14*%
%TO.N,GND*%
X68879838Y-82527500D03*
%TO.P,J2,15,Pin_15*%
%TO.N,+3V3*%
X67609838Y-86127500D03*
%TO.P,J2,16,Pin_16*%
%TO.N,GND*%
X67609838Y-82527500D03*
%TO.P,J2,17,Pin_17*%
%TO.N,+3V3*%
X66339838Y-86127500D03*
%TO.P,J2,18,Pin_18*%
%TO.N,GND*%
X66339838Y-82527500D03*
%TO.P,J2,19,Pin_19*%
%TO.N,/MODE_BTN*%
X65069838Y-86127500D03*
%TO.P,J2,20,Pin_20*%
%TO.N,/EXT_IO3*%
X65069838Y-82527500D03*
%TO.P,J2,21,Pin_21*%
%TO.N,/PAUSE_BTN*%
X63799838Y-86127500D03*
%TO.P,J2,22,Pin_22*%
%TO.N,/EXT_SPI_SS1*%
X63799838Y-82527500D03*
%TO.P,J2,23,Pin_23*%
%TO.N,/EXT_12V*%
X62529838Y-86127500D03*
%TO.P,J2,24,Pin_24*%
%TO.N,/EXT_SPI_MISO*%
X62529838Y-82527500D03*
%TO.P,J2,25,Pin_25*%
%TO.N,/EXT_12V*%
X61259838Y-86127500D03*
%TO.P,J2,26,Pin_26*%
%TO.N,/EXT_SPI_MOSI*%
X61259838Y-82527500D03*
%TO.P,J2,27,Pin_27*%
%TO.N,/EXT_IO1*%
X59989838Y-86127500D03*
%TO.P,J2,28,Pin_28*%
%TO.N,/EXT_SPI_SCK*%
X59989838Y-82527500D03*
%TO.P,J2,29,Pin_29*%
%TO.N,/EXT_IO4*%
X58719838Y-86127500D03*
%TO.P,J2,30,Pin_30*%
%TO.N,/EXT_SPI_SS0*%
X58719838Y-82527500D03*
%TO.P,J2,31,Pin_31*%
%TO.N,/EXT_IO5*%
X57449838Y-86127500D03*
%TO.P,J2,32,Pin_32*%
%TO.N,/EXT_IO2*%
X57449838Y-82527500D03*
D27*
%TO.P,J2,MP1,Shield*%
%TO.N,unconnected-(J2-PadMP1)*%
X79062378Y-84252581D03*
D28*
X79074838Y-89277419D03*
D29*
%TO.P,J2,MP2,Shield*%
%TO.N,unconnected-(J2-PadMP2)*%
X54924838Y-89239959D03*
D30*
X55018608Y-84240040D03*
%TD*%
D13*
%TO.P,D4,1,K*%
%TO.N,Net-(D4-Pad1)*%
X36125000Y-74725000D03*
%TO.P,D4,2,A*%
%TO.N,GND*%
X36125000Y-78025000D03*
%TD*%
D17*
%TO.P,C18,1*%
%TO.N,+3V3*%
X95050000Y-65487500D03*
%TO.P,C18,2*%
%TO.N,GND*%
X95050000Y-67212500D03*
%TD*%
D22*
%TO.P,C25,1*%
%TO.N,/EXT_12V*%
X32187500Y-81100000D03*
%TO.P,C25,2*%
%TO.N,GND*%
X34262500Y-81100000D03*
%TD*%
D31*
%TO.P,U2,1,D*%
%TO.N,/CAN_TX*%
X48280000Y-67275000D03*
%TO.P,U2,2,GND*%
%TO.N,GND*%
X49550000Y-67275000D03*
%TO.P,U2,3,VCC*%
%TO.N,+3V3*%
X50820000Y-67275000D03*
%TO.P,U2,4,R*%
%TO.N,/CAN_RX*%
X52090000Y-67275000D03*
%TO.P,U2,5,Vref*%
%TO.N,unconnected-(U2-Pad5)*%
X52090000Y-62325000D03*
%TO.P,U2,6,CANL*%
%TO.N,/CANL*%
X50820000Y-62325000D03*
%TO.P,U2,7,CANH*%
%TO.N,/CANH*%
X49550000Y-62325000D03*
%TO.P,U2,8,Rs*%
%TO.N,Net-(R15-Pad1)*%
X48280000Y-62325000D03*
%TD*%
D17*
%TO.P,C9,1*%
%TO.N,+1V1*%
X84750000Y-69587500D03*
%TO.P,C9,2*%
%TO.N,GND*%
X84750000Y-71312500D03*
%TD*%
D32*
%TO.P,J5,1,VCC*%
%TO.N,unconnected-(J5-Pad1)*%
X100955000Y-84000000D03*
%TO.P,J5,2,SWDIO*%
%TO.N,unconnected-(J5-Pad2)*%
X99685000Y-84000000D03*
%TO.P,J5,3,NRESET*%
%TO.N,/PICO_USB_N*%
X100955000Y-82730000D03*
%TO.P,J5,4,SWCLK*%
%TO.N,/PICO_USB_P*%
X99685000Y-82730000D03*
%TO.P,J5,5,GND*%
%TO.N,GND*%
X100955000Y-81460000D03*
%TO.P,J5,6,SWO*%
%TO.N,unconnected-(J5-Pad6)*%
X99685000Y-81460000D03*
%TD*%
D22*
%TO.P,C30,1*%
%TO.N,Net-(C29-Pad2)*%
X95767500Y-74985000D03*
%TO.P,C30,2*%
%TO.N,GND*%
X97842500Y-74985000D03*
%TD*%
D33*
%TO.P,C7,1*%
%TO.N,Net-(C7-Pad1)*%
X78137500Y-62100000D03*
%TO.P,C7,2*%
%TO.N,GND*%
X79862500Y-62100000D03*
%TD*%
D24*
%TO.P,C5,1*%
%TO.N,+5V*%
X30062499Y-65108041D03*
%TO.P,C5,2*%
%TO.N,GND*%
X27987499Y-65108041D03*
%TD*%
D34*
%TO.P,R22,1*%
%TO.N,Net-(D301-Pad1)*%
X80597500Y-78940000D03*
%TO.P,R22,2*%
%TO.N,/LED_GRN*%
X82422500Y-78940000D03*
%TD*%
D33*
%TO.P,C8,1*%
%TO.N,GND*%
X78137500Y-69524999D03*
%TO.P,C8,2*%
%TO.N,Net-(C8-Pad2)*%
X79862500Y-69524999D03*
%TD*%
D35*
%TO.P,J4,A1,A1*%
%TO.N,/MOTOR1_OUT1*%
X84025000Y-45040000D03*
D36*
%TO.P,J4,A2,A2*%
%TO.N,/MOTOR1_OUT2*%
X88215000Y-45040000D03*
%TO.P,J4,A3,A3*%
%TO.N,/MOTOR2_OUT1*%
X92405000Y-45040000D03*
%TO.P,J4,A4,A4*%
%TO.N,/MOTOR2_OUT2*%
X96595000Y-45040000D03*
%TO.P,J4,A5,A5*%
%TO.N,/GPO_5_OUT*%
X100785000Y-45040000D03*
%TO.P,J4,A6,A6*%
%TO.N,/GPO_6_OUT*%
X104975000Y-45040000D03*
%TO.P,J4,A7,A7*%
%TO.N,/GPO_7_OUT*%
X104975000Y-51390000D03*
%TO.P,J4,A8,A8*%
%TO.N,/GPO_8_OUT*%
X100785000Y-51390000D03*
%TO.P,J4,A9,A9*%
%TO.N,/GPO_9_OUT*%
X96595000Y-51390000D03*
%TO.P,J4,A10,A10*%
%TO.N,/R_OUT*%
X92405000Y-51390000D03*
%TO.P,J4,A11,A11*%
%TO.N,/G_OUT*%
X88215000Y-51390000D03*
%TO.P,J4,A12,A12*%
%TO.N,/B_OUT*%
X84025000Y-51390000D03*
D35*
%TO.P,J4,B1,B1*%
%TO.N,/CANL*%
X49975000Y-51390000D03*
D36*
%TO.P,J4,B2,B2*%
%TO.N,/CANH*%
X45785000Y-51390000D03*
%TO.P,J4,B3,B3*%
%TO.N,/LEDA_OUT*%
X41595000Y-51390000D03*
%TO.P,J4,B4,B4*%
%TO.N,/EXT_IO4*%
X37405000Y-51390000D03*
%TO.P,J4,B5,B5*%
%TO.N,+5V*%
X33215000Y-51390000D03*
%TO.P,J4,B6,B6*%
%TO.N,/EXT_12V*%
X29025000Y-51390000D03*
%TO.P,J4,B7,B7*%
%TO.N,GND*%
X29025000Y-45040000D03*
%TO.P,J4,B8,B8*%
%TO.N,/EXT_IO5*%
X33215000Y-45040000D03*
%TO.P,J4,B9,B9*%
%TO.N,/EXT_I2C_SDA*%
X37405000Y-45040000D03*
%TO.P,J4,B10,B10*%
%TO.N,/EXT_I2C_SCL*%
X41595000Y-45040000D03*
%TO.P,J4,B11,B11*%
%TO.N,/EXT_UART_TX*%
X45785000Y-45040000D03*
%TO.P,J4,B12,B12*%
%TO.N,/EXT_UART_RX*%
X49975000Y-45040000D03*
%TD*%
D24*
%TO.P,C26,1*%
%TO.N,+3V3*%
X30387500Y-81175000D03*
%TO.P,C26,2*%
%TO.N,GND*%
X28312500Y-81175000D03*
%TD*%
D17*
%TO.P,C14,1*%
%TO.N,+3V3*%
X91225000Y-69587500D03*
%TO.P,C14,2*%
%TO.N,GND*%
X91225000Y-71312500D03*
%TD*%
%TO.P,C10,1*%
%TO.N,+1V1*%
X96600000Y-65487500D03*
%TO.P,C10,2*%
%TO.N,GND*%
X96600000Y-67212500D03*
%TD*%
D37*
%TO.P,C2,1*%
%TO.N,VCC*%
X33500000Y-56387500D03*
%TO.P,C2,2*%
%TO.N,GND*%
X33500000Y-54312500D03*
%TD*%
D16*
%TO.P,R15,1*%
%TO.N,Net-(R15-Pad1)*%
X48235000Y-59712500D03*
%TO.P,R15,2*%
%TO.N,GND*%
X48235000Y-57887500D03*
%TD*%
D17*
%TO.P,C12,1*%
%TO.N,+1V1*%
X92750000Y-67312500D03*
%TO.P,C12,2*%
%TO.N,GND*%
X92750000Y-69037500D03*
%TD*%
D19*
%TO.P,MOD301,1,A*%
%TO.N,GND*%
X39000000Y-85075000D03*
%TO.P,MOD301,2,B*%
%TO.N,/MODE_BTN*%
X47000000Y-85075000D03*
%TD*%
D34*
%TO.P,R3,1*%
%TO.N,/USB_BOOT*%
X94687500Y-58150000D03*
%TO.P,R3,2*%
%TO.N,/QSPI_SS*%
X96512500Y-58150000D03*
%TD*%
D17*
%TO.P,R6,1*%
%TO.N,/PICO_USB__P*%
X103850000Y-76412500D03*
%TO.P,R6,2*%
%TO.N,/PICO_USB_P*%
X103850000Y-78137500D03*
%TD*%
D22*
%TO.P,C29,1*%
%TO.N,Net-(C29-Pad1)*%
X89717500Y-72885000D03*
%TO.P,C29,2*%
%TO.N,Net-(C29-Pad2)*%
X91792500Y-72885000D03*
%TD*%
D38*
%TO.P,D302,1,K*%
%TO.N,Net-(D302-Pad1)*%
X79000000Y-75610000D03*
%TO.P,D302,2,A*%
%TO.N,/LED_RED*%
X77250000Y-75610000D03*
%TD*%
D17*
%TO.P,C13,1*%
%TO.N,+3V3*%
X89625000Y-69587500D03*
%TO.P,C13,2*%
%TO.N,GND*%
X89625000Y-71312500D03*
%TD*%
D39*
%TO.P,U9,1,VCC*%
%TO.N,Net-(C4-Pad1)*%
X77775000Y-54225000D03*
%TO.P,U9,2,VDD*%
%TO.N,VCC*%
X76175000Y-54225000D03*
%TO.P,U9,3,DO*%
%TO.N,/LEDA_OUT*%
X74575000Y-54225000D03*
%TO.P,U9,4,DIN*%
%TO.N,/LEDA*%
X74575000Y-59125000D03*
%TO.P,U9,5,GND*%
%TO.N,GND*%
X76175000Y-59125000D03*
%TO.P,U9,6,BIN*%
%TO.N,/LEDA*%
X77775000Y-59125000D03*
%TD*%
D18*
%TO.P,C20,1*%
%TO.N,VCC*%
X35350000Y-56112500D03*
%TO.P,C20,2*%
%TO.N,GND*%
X35350000Y-54387500D03*
%TD*%
D40*
%TO.P,U10,1,IOVDD*%
%TO.N,+3V3*%
X90350000Y-61112500D03*
%TO.P,U10,2,GPIO0*%
%TO.N,/GPO_7*%
X89950000Y-61112500D03*
%TO.P,U10,3,GPIO1*%
%TO.N,/GPO_8*%
X89550000Y-61112500D03*
%TO.P,U10,4,GPIO2*%
%TO.N,/GPO_9*%
X89150000Y-61112500D03*
%TO.P,U10,5,GPIO3*%
%TO.N,/LEDR*%
X88750000Y-61112500D03*
%TO.P,U10,6,GPIO4*%
%TO.N,/EXT_I2C_SCL*%
X88350000Y-61112500D03*
%TO.P,U10,7,GPIO5*%
%TO.N,/EXT_I2C_SDA*%
X87950000Y-61112500D03*
%TO.P,U10,8,GPIO6*%
%TO.N,/LEDG*%
X87550000Y-61112500D03*
%TO.P,U10,9,GPIO7*%
%TO.N,/LEDB*%
X87150000Y-61112500D03*
%TO.P,U10,10,IOVDD*%
%TO.N,+3V3*%
X86750000Y-61112500D03*
%TO.P,U10,11,GPIO8*%
%TO.N,/EN4*%
X86350000Y-61112500D03*
%TO.P,U10,12,GPIO9*%
%TO.N,/GPO_5*%
X85950000Y-61112500D03*
%TO.P,U10,13,GPIO10*%
%TO.N,/GPO_6*%
X85550000Y-61112500D03*
%TO.P,U10,14,GPIO11*%
%TO.N,/EN3*%
X85150000Y-61112500D03*
D41*
%TO.P,U10,15,GPIO12*%
%TO.N,/EN2*%
X84312500Y-61950000D03*
%TO.P,U10,16,GPIO13*%
%TO.N,/EN1*%
X84312500Y-62350000D03*
%TO.P,U10,17,GPIO14*%
%TO.N,/LEDA*%
X84312500Y-62750000D03*
%TO.P,U10,18,GPIO15*%
%TO.N,/EXT_IO3*%
X84312500Y-63150000D03*
%TO.P,U10,19,TESTEN*%
%TO.N,GND*%
X84312500Y-63550000D03*
%TO.P,U10,20,XIN*%
%TO.N,Net-(C7-Pad1)*%
X84312500Y-63950000D03*
%TO.P,U10,21,XOUT*%
%TO.N,Net-(R5-Pad1)*%
X84312500Y-64350000D03*
%TO.P,U10,22,IOVDD*%
%TO.N,+3V3*%
X84312500Y-64750000D03*
%TO.P,U10,23,DVDD*%
%TO.N,+1V1*%
X84312500Y-65150000D03*
%TO.P,U10,24,SWCLK*%
%TO.N,unconnected-(U10-Pad24)*%
X84312500Y-65550000D03*
%TO.P,U10,25,SWD*%
%TO.N,unconnected-(U10-Pad25)*%
X84312500Y-65950000D03*
%TO.P,U10,26,RUN*%
%TO.N,unconnected-(U10-Pad26)*%
X84312500Y-66350000D03*
%TO.P,U10,27,GPIO16*%
%TO.N,/EXT_SPI_MISO*%
X84312500Y-66750000D03*
%TO.P,U10,28,GPIO17*%
%TO.N,/EXT_SPI_SS1*%
X84312500Y-67150000D03*
D40*
%TO.P,U10,29,GPIO18*%
%TO.N,/EXT_SPI_SCK*%
X85150000Y-67987500D03*
%TO.P,U10,30,GPIO19*%
%TO.N,/EXT_SPI_MOSI*%
X85550000Y-67987500D03*
%TO.P,U10,31,GPIO20*%
%TO.N,/5V_EN*%
X85950000Y-67987500D03*
%TO.P,U10,32,GPIO21*%
%TO.N,/VBAT_SENSE*%
X86350000Y-67987500D03*
%TO.P,U10,33,IOVDD*%
%TO.N,+3V3*%
X86750000Y-67987500D03*
%TO.P,U10,34,GPIO22*%
%TO.N,/GPO_11*%
X87150000Y-67987500D03*
%TO.P,U10,35,GPIO23*%
%TO.N,/GPO_10*%
X87550000Y-67987500D03*
%TO.P,U10,36,GPIO24*%
%TO.N,/DRV_SLEEP*%
X87950000Y-67987500D03*
%TO.P,U10,37,GPIO25*%
%TO.N,/MCP_RESET*%
X88350000Y-67987500D03*
%TO.P,U10,38,GPIO26_ADC0*%
%TO.N,/VBAT_SENSE*%
X88750000Y-67987500D03*
%TO.P,U10,39,GPIO27_ADC1*%
%TO.N,unconnected-(U10-Pad39)*%
X89150000Y-67987500D03*
%TO.P,U10,40,GPIO28_ADC2*%
%TO.N,unconnected-(U10-Pad40)*%
X89550000Y-67987500D03*
%TO.P,U10,41,GPIO29_ADC3*%
%TO.N,unconnected-(U10-Pad41)*%
X89950000Y-67987500D03*
%TO.P,U10,42,IOVDD*%
%TO.N,+3V3*%
X90350000Y-67987500D03*
D41*
%TO.P,U10,43,ADC_AVDD*%
X91187500Y-67150000D03*
%TO.P,U10,44,VREG_IN*%
X91187500Y-66750000D03*
%TO.P,U10,45,VREG_VOUT*%
%TO.N,+1V1*%
X91187500Y-66350000D03*
%TO.P,U10,46,USB_DM*%
%TO.N,/PICO_USB__N*%
X91187500Y-65950000D03*
%TO.P,U10,47,USB_DP*%
%TO.N,/PICO_USB__P*%
X91187500Y-65550000D03*
%TO.P,U10,48,USB_VDD*%
%TO.N,+3V3*%
X91187500Y-65150000D03*
%TO.P,U10,49,IOVDD*%
X91187500Y-64750000D03*
%TO.P,U10,50,DVDD*%
%TO.N,+1V1*%
X91187500Y-64350000D03*
%TO.P,U10,51,QSPI_SD3*%
%TO.N,/QSPI_SD3*%
X91187500Y-63950000D03*
%TO.P,U10,52,QSPI_SCLK*%
%TO.N,/QSPI_SCLK*%
X91187500Y-63550000D03*
%TO.P,U10,53,QSPI_SD0*%
%TO.N,/QSPI_SD0*%
X91187500Y-63150000D03*
%TO.P,U10,54,QSPI_SD2*%
%TO.N,/QSPI_SD2*%
X91187500Y-62750000D03*
%TO.P,U10,55,QSPI_SD1*%
%TO.N,/QSPI_SD1*%
X91187500Y-62350000D03*
%TO.P,U10,56,QSPI_SS*%
%TO.N,/QSPI_SS*%
X91187500Y-61950000D03*
D42*
%TO.P,U10,57,GND*%
%TO.N,GND*%
X87750000Y-64550000D03*
D43*
X87750000Y-64550000D03*
X89025000Y-65825000D03*
X86475000Y-64550000D03*
X86475000Y-63275000D03*
X89025000Y-64550000D03*
X87750000Y-65825000D03*
X89025000Y-63275000D03*
X87750000Y-63275000D03*
X86475000Y-65825000D03*
%TD*%
D15*
%TO.P,L1,1*%
%TO.N,Net-(D1-Pad1)*%
X29600000Y-70825000D03*
%TO.P,L1,2*%
%TO.N,+5V*%
X33750000Y-70825000D03*
%TD*%
D44*
%TO.P,R104,1*%
%TO.N,/CANL*%
X51797500Y-57600000D03*
%TO.P,R104,2*%
%TO.N,/CANH*%
X49972500Y-57600000D03*
%TD*%
D45*
%TO.P,C31,1*%
%TO.N,Net-(C29-Pad2)*%
X86175000Y-82075000D03*
%TO.P,C31,2*%
%TO.N,GND*%
X90575000Y-82075000D03*
%TD*%
D21*
%TO.P,C28,1*%
%TO.N,/CP1*%
X83995000Y-74497500D03*
%TO.P,C28,2*%
%TO.N,/CP2*%
X83995000Y-76572500D03*
%TD*%
D46*
%TO.P,D2,1,K*%
%TO.N,/EXT_12V*%
X27850001Y-56300000D03*
%TO.P,D2,2,A*%
%TO.N,VCC*%
X31150001Y-56300000D03*
%TD*%
D17*
%TO.P,C23,1*%
%TO.N,+3V3*%
X95025000Y-69587500D03*
%TO.P,C23,2*%
%TO.N,GND*%
X95025000Y-71312500D03*
%TD*%
D47*
%TO.P,U304,1,VIN*%
%TO.N,/EXT_12V*%
X28499999Y-58600000D03*
%TO.P,U304,2,VOUT*%
%TO.N,+5V*%
X28499999Y-59870000D03*
%TO.P,U304,3,FB*%
%TO.N,Net-(D1-Pad1)*%
X28499999Y-61140000D03*
%TO.P,U304,4,SD*%
%TO.N,/5V_EN*%
X28499999Y-62410000D03*
%TO.P,U304,5,GND5*%
%TO.N,GND*%
X33699999Y-62410000D03*
%TO.P,U304,6,GND6*%
X33699999Y-61140000D03*
%TO.P,U304,7,GND7*%
X33699999Y-59870000D03*
%TO.P,U304,8,GND8*%
X33699999Y-58600000D03*
%TD*%
D38*
%TO.P,D301,1,K*%
%TO.N,Net-(D301-Pad1)*%
X79027500Y-78930000D03*
%TO.P,D301,2,A*%
%TO.N,+3V3*%
X77277500Y-78930000D03*
%TD*%
D23*
%TO.P,H302,1,1*%
%TO.N,GND*%
X67000000Y-74000000D03*
%TD*%
D47*
%TO.P,U3,1,VIN*%
%TO.N,/EXT_12V*%
X28500000Y-75670000D03*
%TO.P,U3,2,VOUT*%
%TO.N,+3V3*%
X28500000Y-76940000D03*
%TO.P,U3,3,FB*%
%TO.N,Net-(D4-Pad1)*%
X28500000Y-78210000D03*
%TO.P,U3,4,SD*%
%TO.N,GND*%
X28500000Y-79480000D03*
%TO.P,U3,5,GND5*%
X33700000Y-79480000D03*
%TO.P,U3,6,GND6*%
X33700000Y-78210000D03*
%TO.P,U3,7,GND7*%
X33700000Y-76940000D03*
%TO.P,U3,8,GND8*%
X33700000Y-75670000D03*
%TD*%
D17*
%TO.P,C4,1*%
%TO.N,Net-(C4-Pad1)*%
X79575000Y-54162500D03*
%TO.P,C4,2*%
%TO.N,GND*%
X79575000Y-55887500D03*
%TD*%
%TO.P,C6,1*%
%TO.N,+3V3*%
X103950000Y-70887500D03*
%TO.P,C6,2*%
%TO.N,GND*%
X103950000Y-72612500D03*
%TD*%
D22*
%TO.P,C3,1*%
%TO.N,/EXT_12V*%
X32262500Y-65108041D03*
%TO.P,C3,2*%
%TO.N,GND*%
X34337500Y-65108041D03*
%TD*%
D38*
%TO.P,D308,1,K*%
%TO.N,Net-(D308-Pad1)*%
X79010000Y-77280000D03*
%TO.P,D308,2,A*%
%TO.N,/WIFI_LED*%
X77260000Y-77280000D03*
%TD*%
D34*
%TO.P,R21,1*%
%TO.N,Net-(D302-Pad1)*%
X80622500Y-75620000D03*
%TO.P,R21,2*%
%TO.N,GND*%
X82447500Y-75620000D03*
%TD*%
D18*
%TO.P,C17,1*%
%TO.N,+3V3*%
X85600000Y-57151414D03*
%TO.P,C17,2*%
%TO.N,GND*%
X85600000Y-55426414D03*
%TD*%
D34*
%TO.P,R16,1*%
%TO.N,+3V3*%
X61187500Y-65600000D03*
%TO.P,R16,2*%
%TO.N,/MCP_RESET*%
X63012500Y-65600000D03*
%TD*%
D18*
%TO.P,C19,1*%
%TO.N,+3V3*%
X91490240Y-59426324D03*
%TO.P,C19,2*%
%TO.N,GND*%
X91490240Y-57701324D03*
%TD*%
D48*
%TO.P,TP2,1,1*%
%TO.N,/VBAT_SENSE*%
X39350000Y-64200000D03*
%TD*%
D18*
%TO.P,C22,1*%
%TO.N,/MCP_OSC1*%
X54425000Y-52937500D03*
%TO.P,C22,2*%
%TO.N,GND*%
X54425000Y-51212500D03*
%TD*%
D34*
%TO.P,R91,1*%
%TO.N,Net-(D308-Pad1)*%
X80592500Y-77270000D03*
%TO.P,R91,2*%
%TO.N,GND*%
X82417500Y-77270000D03*
%TD*%
D44*
%TO.P,R4,1*%
%TO.N,/QSPI_SS*%
X96512500Y-59750000D03*
%TO.P,R4,2*%
%TO.N,+3V3*%
X94687500Y-59750000D03*
%TD*%
D49*
%TO.P,Y3,1,1*%
%TO.N,Net-(C8-Pad2)*%
X79500000Y-67175000D03*
%TO.P,Y3,2,2*%
%TO.N,GND*%
X79500000Y-64275000D03*
%TO.P,Y3,3,3*%
%TO.N,Net-(C7-Pad1)*%
X77200000Y-64275000D03*
%TO.P,Y3,4,4*%
%TO.N,GND*%
X77200000Y-67175000D03*
%TD*%
D50*
%TO.N,+5V*%
X36500000Y-69500000D03*
X36500000Y-71050000D03*
X76525000Y-90550000D03*
X30300000Y-63350000D03*
X75175000Y-90550000D03*
X76475000Y-89350000D03*
X36500000Y-68000000D03*
X75349992Y-89324992D03*
X36500000Y-72660000D03*
D51*
%TO.N,/LEDG*%
X86825000Y-54250000D03*
%TO.N,/LEDR*%
X87450000Y-54250000D03*
D50*
%TO.N,/EXT_UART_RX*%
X73975000Y-88200000D03*
X43000000Y-69500000D03*
%TO.N,/EXT_UART_TX*%
X43000000Y-70450000D03*
X72675000Y-88200000D03*
D51*
%TO.N,/LEDB*%
X86200000Y-54250000D03*
D50*
%TO.N,/CAN_TX*%
X71425000Y-90600000D03*
X53775000Y-64950000D03*
%TO.N,/CAN_RX*%
X70150000Y-90600000D03*
X53150000Y-63850000D03*
D51*
%TO.N,/EN1*%
X88000000Y-83870000D03*
X81840000Y-83860000D03*
X80530000Y-54950000D03*
%TO.N,/EN2*%
X81130000Y-54950000D03*
X82350000Y-86410000D03*
X89300000Y-86410000D03*
%TO.N,/EN3*%
X82860000Y-85130000D03*
X81730000Y-54950000D03*
X90600000Y-85090000D03*
%TO.N,/EN4*%
X85150000Y-87030000D03*
X83575000Y-54925000D03*
X91860000Y-87030000D03*
%TO.N,/GPO_5*%
X87380000Y-84560000D03*
X83930000Y-84570000D03*
X82975000Y-54925000D03*
D50*
%TO.N,+3V3*%
X67675000Y-90600000D03*
D51*
X87760000Y-67020000D03*
X90340000Y-66950000D03*
D50*
X46150000Y-62100000D03*
X68875000Y-88200000D03*
D51*
X104900000Y-70890000D03*
X95025000Y-68250000D03*
D50*
X30375000Y-79475000D03*
X77600000Y-82500000D03*
D51*
X90500000Y-58500000D03*
D50*
X68875000Y-90600000D03*
X66350000Y-88200000D03*
D51*
X82830000Y-65110000D03*
D50*
X67650000Y-88200000D03*
X66350000Y-90625000D03*
X75320000Y-63270000D03*
X30400000Y-82550000D03*
D51*
X85800000Y-57925000D03*
%TO.N,GND*%
X95750000Y-68250000D03*
X92250000Y-58500000D03*
X98780000Y-74970000D03*
X92550000Y-82400000D03*
D50*
X25450000Y-56300000D03*
D51*
X85600000Y-54250000D03*
D50*
X39000000Y-76975000D03*
X53050000Y-88300000D03*
X98875000Y-62975000D03*
X46150000Y-60575000D03*
X55225000Y-54025000D03*
X80710000Y-74090000D03*
X53050000Y-87150000D03*
X28875000Y-63375000D03*
X98300000Y-62200000D03*
X76275000Y-69525000D03*
X52950000Y-54400000D03*
D51*
X34000000Y-63625000D03*
D50*
X79580000Y-59250000D03*
X36675000Y-58600000D03*
X52950000Y-75350000D03*
X28900000Y-82550000D03*
D51*
X36925000Y-62425000D03*
D50*
X27450000Y-82550000D03*
D51*
X92560000Y-81800000D03*
X36925000Y-59825000D03*
X95830000Y-73110000D03*
X36925000Y-61175000D03*
D50*
X30800000Y-54400000D03*
X28175000Y-83200000D03*
X76175000Y-60600000D03*
D51*
X81910000Y-63340000D03*
D50*
X105275000Y-58275000D03*
X56025000Y-50225000D03*
X44850000Y-65800000D03*
D51*
X36925000Y-63625000D03*
D50*
X38650000Y-87500000D03*
D51*
X102625000Y-72600000D03*
X93180000Y-85660000D03*
X36925000Y-64825000D03*
D50*
X63980000Y-63780000D03*
X105100000Y-79300000D03*
D51*
X92560000Y-83020000D03*
D50*
X60700000Y-51300000D03*
X97775000Y-62975000D03*
D51*
%TO.N,/GPO_6*%
X88650000Y-83200000D03*
X83360000Y-83190000D03*
X82350000Y-54940000D03*
%TO.N,/MCP_RESET*%
X59550000Y-66600000D03*
X62500000Y-66600000D03*
D50*
X59525000Y-63200000D03*
X70799506Y-63160510D03*
D51*
%TO.N,/GPO_7*%
X89275000Y-54250000D03*
%TO.N,/GPO_8*%
X88650000Y-54250000D03*
%TO.N,/GPO_9*%
X88050000Y-54250000D03*
D50*
%TO.N,VCC*%
X36600000Y-56300000D03*
X33500000Y-56300000D03*
X76150000Y-50250000D03*
%TO.N,/LEDA_OUT*%
X74600000Y-46100000D03*
D51*
%TO.N,+1V1*%
X84700000Y-60375000D03*
X84700000Y-68700000D03*
%TO.N,/GPO_11*%
X87400000Y-69640000D03*
X91280000Y-87660000D03*
X85860000Y-87670000D03*
D50*
%TO.N,/EXT_IO4*%
X58700000Y-88300000D03*
X44300000Y-74200000D03*
%TO.N,/EXT_IO5*%
X57500000Y-88300000D03*
X44300000Y-73300000D03*
%TO.N,/MODE_BTN*%
X58750000Y-78500000D03*
X65075000Y-90625000D03*
%TO.N,/PAUSE_BTN*%
X63825000Y-90625000D03*
X54750000Y-74250000D03*
%TO.N,/EXT_I2C_SDA*%
X43000000Y-72350000D03*
X73110000Y-71740000D03*
X71990000Y-64625500D03*
D51*
X87250000Y-58150000D03*
%TO.N,/EXT_I2C_SCL*%
X88110000Y-58150000D03*
D50*
X43000000Y-71400000D03*
X70870000Y-64625500D03*
X72180000Y-70810000D03*
%TO.N,/EXT_12V*%
X31800000Y-62200000D03*
X60000000Y-90600000D03*
X31800000Y-61050000D03*
X31800000Y-75675000D03*
X31800000Y-63350000D03*
X31800000Y-59850000D03*
X61300000Y-90600000D03*
X62575989Y-90600000D03*
X31800000Y-76925000D03*
X31800000Y-79475000D03*
X31800000Y-78225000D03*
%TO.N,/EXT_IO1*%
X60000000Y-88300000D03*
%TO.N,/EXT_IO2*%
X57420000Y-80330000D03*
D51*
%TO.N,/EXT_IO3*%
X82830000Y-62910000D03*
D50*
X64225000Y-66925000D03*
X55950000Y-67025500D03*
%TO.N,/EXT_SPI_MISO*%
X62530000Y-78500000D03*
X68150000Y-64500000D03*
D51*
X82820000Y-66150000D03*
D50*
X58200000Y-64775000D03*
%TO.N,/EXT_SPI_MOSI*%
X61250000Y-78500000D03*
X67030000Y-65540000D03*
X57075000Y-64775000D03*
D51*
X82830000Y-67670000D03*
D50*
%TO.N,/EXT_SPI_SCK*%
X65600000Y-66290000D03*
X56600000Y-66025000D03*
X59975000Y-78500000D03*
D51*
X82830000Y-68400000D03*
D50*
%TO.N,/EXT_SPI_SS0*%
X58770000Y-79520000D03*
%TO.N,/EXT_SPI_SS1*%
X69525000Y-63800000D03*
X58875000Y-64000000D03*
D51*
X82820000Y-66970000D03*
X69575000Y-65750000D03*
%TO.N,/5V_EN*%
X86360000Y-66500000D03*
X81500000Y-72200000D03*
D50*
X27225000Y-63350000D03*
D51*
X86470000Y-72280000D03*
X54925000Y-67875000D03*
X54925000Y-69425000D03*
%TO.N,/VBAT_SENSE*%
X87175000Y-66525000D03*
X54400000Y-65900000D03*
X87070000Y-72280000D03*
X38225000Y-64200000D03*
X82010000Y-72760000D03*
X53150000Y-69025000D03*
%TO.N,/GPO_10*%
X87900000Y-69300000D03*
X86290000Y-85750000D03*
X89950000Y-85740000D03*
%TO.N,/DRV_SLEEP*%
X93890000Y-88240000D03*
X87030000Y-88320000D03*
X88400000Y-70210000D03*
D50*
%TO.N,/MOTOR2_OUT2*%
X106650000Y-68490000D03*
D51*
%TO.N,Net-(C27-Pad1)*%
X94385295Y-82968243D03*
%TO.N,Net-(C29-Pad1)*%
X88720000Y-73230000D03*
%TO.N,Net-(C29-Pad2)*%
X94500000Y-74340000D03*
X88720000Y-74030000D03*
%TO.N,/CP1*%
X86720000Y-74230000D03*
%TO.N,/CP2*%
X87520000Y-74230000D03*
%TD*%
D52*
%TO.N,+3V3*%
X82830000Y-65110000D02*
X83190000Y-64750000D01*
X83190000Y-64750000D02*
X84312500Y-64750000D01*
D53*
%TO.N,+1V1*%
X89850000Y-64600000D02*
X89850000Y-64350000D01*
X89850000Y-64350000D02*
X91187500Y-64350000D01*
X84312500Y-65150000D02*
X85050000Y-65150000D01*
X85050000Y-65150000D02*
X85590000Y-64610000D01*
X85590000Y-64610000D02*
X85590000Y-62950000D01*
X85590000Y-62950000D02*
X85890000Y-62650000D01*
X85890000Y-62650000D02*
X86270000Y-62650000D01*
%TO.N,Net-(C7-Pad1)*%
X84312500Y-63950000D02*
X82150000Y-63950000D01*
X82150000Y-63950000D02*
X80350000Y-65750000D01*
X80350000Y-65750000D02*
X77840000Y-65750000D01*
X77200000Y-65110000D02*
X77200000Y-64275000D01*
X77840000Y-65750000D02*
X77200000Y-65110000D01*
D54*
%TO.N,+3V3*%
X104900000Y-70890000D02*
X103952500Y-70890000D01*
X103952500Y-70890000D02*
X103950000Y-70887500D01*
D55*
%TO.N,/MOTOR2_OUT2*%
X106650000Y-68490000D02*
X106650000Y-49880000D01*
X106650000Y-49880000D02*
X106110000Y-49340000D01*
X96595000Y-48805000D02*
X96595000Y-45040000D01*
X106110000Y-49340000D02*
X97130000Y-49340000D01*
X97130000Y-49340000D02*
X96595000Y-48805000D01*
D54*
%TO.N,Net-(C29-Pad2)*%
X88660000Y-74940000D02*
X87565960Y-76034040D01*
X87565960Y-76034040D02*
X85785960Y-76034040D01*
X85785960Y-76034040D02*
X85210000Y-76610000D01*
X85210000Y-76610000D02*
X85210000Y-77900000D01*
X85210000Y-77900000D02*
X84840000Y-78270000D01*
D55*
%TO.N,/CANH*%
X49972500Y-56972500D02*
X47550000Y-54550000D01*
X46490000Y-51390000D02*
X45785000Y-51390000D01*
X49972500Y-57600000D02*
X49972500Y-56972500D01*
X49972500Y-58712500D02*
X49972500Y-57600000D01*
X49550000Y-59135000D02*
X49972500Y-58712500D01*
X47550000Y-54550000D02*
X47550000Y-52450000D01*
X49550000Y-62325000D02*
X49550000Y-59135000D01*
X47550000Y-52450000D02*
X46490000Y-51390000D01*
%TO.N,/CANL*%
X50820000Y-62325000D02*
X50820000Y-59580000D01*
X50820000Y-59580000D02*
X51797500Y-58602500D01*
X49975000Y-51390000D02*
X49975000Y-53675000D01*
X51797500Y-55497500D02*
X51797500Y-57600000D01*
X51797500Y-58602500D02*
X51797500Y-57600000D01*
X49975000Y-53675000D02*
X51797500Y-55497500D01*
%TO.N,+5V*%
X30300000Y-64870540D02*
X30300000Y-63350000D01*
X30062499Y-65108041D02*
X30300000Y-64870540D01*
D53*
%TO.N,/LEDG*%
X86700000Y-58526414D02*
X87550000Y-59376414D01*
X87550000Y-59376414D02*
X87550000Y-61112500D01*
X86825000Y-54250000D02*
X86700000Y-54375000D01*
X86700000Y-54375000D02*
X86700000Y-58526414D01*
%TO.N,/LEDR*%
X89051440Y-56701440D02*
X87450000Y-55100000D01*
X88750000Y-61112500D02*
X88750000Y-60698540D01*
X89051440Y-60397100D02*
X89051440Y-56701440D01*
X87450000Y-55100000D02*
X87450000Y-54250000D01*
X88750000Y-60698540D02*
X89051440Y-60397100D01*
D52*
%TO.N,/EXT_UART_RX*%
X44400000Y-48825000D02*
X44400000Y-53350000D01*
D53*
X73959838Y-88184838D02*
X73959838Y-86127500D01*
D52*
X42149520Y-69249520D02*
X42149520Y-55650480D01*
D53*
X73975000Y-88200000D02*
X73959838Y-88184838D01*
D52*
X42149520Y-55650480D02*
X44400000Y-53400000D01*
X42400000Y-69500000D02*
X42149520Y-69249520D01*
X49975000Y-45040000D02*
X48185000Y-45040000D01*
X48185000Y-45040000D02*
X44400000Y-48825000D01*
X43000000Y-69500000D02*
X42400000Y-69500000D01*
%TO.N,/EXT_UART_TX*%
X41800000Y-55394296D02*
X44000000Y-53194296D01*
D53*
X72689838Y-88185162D02*
X72689838Y-86127500D01*
X72675000Y-88200000D02*
X72689838Y-88185162D01*
D52*
X45785000Y-45215000D02*
X45785000Y-45040000D01*
X42200000Y-70450000D02*
X41800000Y-70050000D01*
X44000000Y-47000000D02*
X45785000Y-45215000D01*
X43000000Y-70450000D02*
X42200000Y-70450000D01*
X41800000Y-70050000D02*
X41800000Y-55394296D01*
X44000000Y-53194296D02*
X44000000Y-47000000D01*
D53*
%TO.N,/LEDB*%
X86274520Y-58577348D02*
X87150000Y-59452828D01*
X86274520Y-54324520D02*
X86274520Y-58577348D01*
X87150000Y-59452828D02*
X87150000Y-61112500D01*
X86200000Y-54250000D02*
X86274520Y-54324520D01*
D52*
%TO.N,/CAN_TX*%
X71419838Y-90594838D02*
X71425000Y-90600000D01*
D53*
X48280000Y-67275000D02*
X48280000Y-68355000D01*
X60175000Y-55887500D02*
X60175000Y-55450000D01*
X72080000Y-53770000D02*
X72080000Y-52100000D01*
X70700000Y-55150000D02*
X72080000Y-53770000D01*
X59525000Y-58050000D02*
X60175000Y-57400000D01*
D52*
X71419838Y-86127500D02*
X71419838Y-90594838D01*
D53*
X53775000Y-67687500D02*
X53775000Y-64950000D01*
X48800000Y-68875000D02*
X52587500Y-68875000D01*
X53775000Y-63950000D02*
X53775000Y-60850000D01*
X48280000Y-68355000D02*
X48800000Y-68875000D01*
X60175000Y-57400000D02*
X60175000Y-55887500D01*
X60175000Y-55450000D02*
X60475000Y-55150000D01*
X53775000Y-60850000D02*
X56575000Y-58050000D01*
X56575000Y-58050000D02*
X59525000Y-58050000D01*
X52587500Y-68875000D02*
X53775000Y-67687500D01*
X60475000Y-55150000D02*
X70700000Y-55150000D01*
D52*
X53775000Y-63950000D02*
X53775000Y-64950000D01*
D53*
%TO.N,/CAN_RX*%
X53150000Y-65550000D02*
X53150000Y-65600000D01*
X69975000Y-54700000D02*
X70810000Y-53865000D01*
X55059194Y-58465806D02*
X55059192Y-58465805D01*
D52*
X70149838Y-86127500D02*
X70149838Y-90599838D01*
D53*
X53150000Y-60375000D02*
X53150000Y-64350000D01*
X52850000Y-64650000D02*
X52450000Y-64650000D01*
X59525000Y-56950000D02*
X59000000Y-57475000D01*
X55165259Y-58784004D02*
X54953127Y-58996137D01*
X53150000Y-65600000D02*
X53150000Y-66625000D01*
X54210663Y-59314337D02*
X54210661Y-59314336D01*
X54740995Y-58996137D02*
X54139955Y-58395098D01*
X59900000Y-54700000D02*
X69975000Y-54700000D01*
X52450000Y-65250000D02*
X52850000Y-65250000D01*
X53892464Y-59844668D02*
X53291424Y-59243629D01*
X59525000Y-55887500D02*
X59525000Y-56950000D01*
X53150000Y-66625000D02*
X52500000Y-67275000D01*
X59525000Y-55075000D02*
X59900000Y-54700000D01*
X55271329Y-57829410D02*
X54988486Y-57546567D01*
X56050000Y-57475000D02*
X55695593Y-57829410D01*
X54139955Y-58395098D02*
X54139955Y-58395099D01*
D52*
X70149838Y-90599838D02*
X70150000Y-90600000D01*
D53*
X54988486Y-57546567D02*
X54988486Y-57546568D01*
X53715689Y-58819363D02*
X54210663Y-59314337D01*
D52*
X53150000Y-64350000D02*
X53150000Y-63850000D01*
D53*
X54210661Y-59314336D02*
X54316728Y-59420403D01*
X55059192Y-58465805D02*
X55165259Y-58571872D01*
X53291424Y-59243629D02*
X53291424Y-59243630D01*
X54564220Y-57970832D02*
X55059194Y-58465806D01*
X52867158Y-59667894D02*
X53150000Y-59950736D01*
X70810000Y-53865000D02*
X70810000Y-52100000D01*
X52500000Y-67275000D02*
X52090000Y-67275000D01*
X59525000Y-55887500D02*
X59525000Y-55075000D01*
X59000000Y-57475000D02*
X56050000Y-57475000D01*
X54316728Y-59632535D02*
X54104596Y-59844668D01*
X53150000Y-65550000D02*
G75*
G03*
X52850000Y-65250000I-300000J0D01*
G01*
X53715690Y-58395100D02*
G75*
G02*
X54139954Y-58395100I212132J-212130D01*
G01*
X52867159Y-59667893D02*
G75*
G02*
X52867159Y-59243631I212131J212131D01*
G01*
X55271330Y-57829409D02*
G75*
G03*
X55695592Y-57829409I212131J212131D01*
G01*
X54316727Y-59632534D02*
G75*
G03*
X54316727Y-59420404I-106065J106065D01*
G01*
X55165258Y-58784003D02*
G75*
G03*
X55165258Y-58571873I-106065J106065D01*
G01*
X53892465Y-59844667D02*
G75*
G03*
X54104595Y-59844667I106065J106065D01*
G01*
X53149999Y-60374999D02*
G75*
G03*
X53149999Y-59950737I-212131J212131D01*
G01*
X54564221Y-57546569D02*
G75*
G02*
X54988485Y-57546569I212132J-212130D01*
G01*
X52867159Y-59243631D02*
G75*
G02*
X53291423Y-59243631I212132J-212130D01*
G01*
X52850000Y-64650000D02*
G75*
G03*
X53150000Y-64350000I0J300000D01*
G01*
X52150000Y-64950000D02*
G75*
G02*
X52450000Y-64650000I300000J0D01*
G01*
X54564221Y-57970831D02*
G75*
G02*
X54564221Y-57546569I212131J212131D01*
G01*
X53715690Y-58819362D02*
G75*
G02*
X53715690Y-58395100I212131J212131D01*
G01*
X54740996Y-58996136D02*
G75*
G03*
X54953126Y-58996136I106065J106065D01*
G01*
X52450000Y-65250000D02*
G75*
G02*
X52150000Y-64950000I0J300000D01*
G01*
%TO.N,/EN1*%
X81840000Y-83860000D02*
X87990000Y-83860000D01*
X83573586Y-62350000D02*
X84312500Y-62350000D01*
X80550000Y-59326414D02*
X83573586Y-62350000D01*
X87990000Y-83860000D02*
X88000000Y-83870000D01*
X80530000Y-54950000D02*
X80550000Y-54970000D01*
X80550000Y-54970000D02*
X80550000Y-59326414D01*
%TO.N,/EN2*%
X83597172Y-61950000D02*
X84312500Y-61950000D01*
X81150000Y-54970000D02*
X81150000Y-59502828D01*
X81150000Y-59502828D02*
X83597172Y-61950000D01*
X81130000Y-54950000D02*
X81150000Y-54970000D01*
X82350000Y-86410000D02*
X89300000Y-86410000D01*
D52*
%TO.N,/EN3*%
X82860000Y-85130000D02*
X82900000Y-85090000D01*
D53*
X81730000Y-54950000D02*
X81730000Y-56480000D01*
X85150000Y-59900000D02*
X85150000Y-61112500D01*
X81730000Y-56480000D02*
X85150000Y-59900000D01*
D52*
X82900000Y-85090000D02*
X90600000Y-85090000D01*
D53*
%TO.N,/EN4*%
X83575000Y-54925000D02*
X83575000Y-56925000D01*
X83575000Y-56925000D02*
X86350000Y-59700000D01*
D52*
X91860000Y-87030000D02*
X85150000Y-87030000D01*
D53*
X86350000Y-59700000D02*
X86350000Y-61112500D01*
D52*
%TO.N,/GPO_5*%
X83940000Y-84560000D02*
X87380000Y-84560000D01*
D53*
X82975000Y-54925000D02*
X82975000Y-56800000D01*
X85950000Y-59775000D02*
X85950000Y-61112500D01*
X82975000Y-56800000D02*
X85950000Y-59775000D01*
D52*
X83930000Y-84570000D02*
X83940000Y-84560000D01*
D54*
%TO.N,+3V3*%
X90500000Y-58500000D02*
X91426324Y-59426324D01*
D53*
X90350000Y-61112500D02*
X90350000Y-60325000D01*
D55*
X46150000Y-63712500D02*
X46150000Y-62100000D01*
X72080000Y-62480000D02*
X72080000Y-61400000D01*
X72080000Y-59730000D02*
X71725000Y-59375000D01*
D53*
X86750000Y-67987500D02*
X86750000Y-67440000D01*
D55*
X61187500Y-64075000D02*
X60862500Y-63750000D01*
X50820000Y-65620000D02*
X50820000Y-67275000D01*
D53*
X86750000Y-59476414D02*
X85800000Y-58526414D01*
D54*
X85800000Y-57351414D02*
X85600000Y-57151414D01*
D53*
X83575000Y-70425000D02*
X85900000Y-70425000D01*
X90350000Y-66960000D02*
X90340000Y-66950000D01*
X86750000Y-61112500D02*
X86750000Y-59476414D01*
D54*
X30387500Y-81175000D02*
X30387500Y-79487500D01*
D53*
X95050000Y-65750000D02*
X94374040Y-66425960D01*
X87150000Y-67040000D02*
X87170000Y-67020000D01*
X86300000Y-70025000D02*
X86300000Y-69587500D01*
D55*
X46150000Y-64375000D02*
X46175000Y-64400000D01*
X60862500Y-59962500D02*
X60862500Y-63750000D01*
D54*
X92750000Y-59750000D02*
X92426324Y-59426324D01*
X76527338Y-82500000D02*
X76499838Y-82527500D01*
X77600000Y-79352500D02*
X77177500Y-78930000D01*
D55*
X46175000Y-64400000D02*
X49600000Y-64400000D01*
D54*
X30387500Y-82537500D02*
X30400000Y-82550000D01*
D53*
X86750000Y-67440000D02*
X87150000Y-67040000D01*
X83125000Y-69975000D02*
X83575000Y-70425000D01*
X87170000Y-67020000D02*
X87760000Y-67020000D01*
X90350000Y-60325000D02*
X91248676Y-59426324D01*
X95050000Y-65487500D02*
X95050000Y-65750000D01*
X94374040Y-66425960D02*
X94374040Y-68936540D01*
D55*
X75320000Y-63270000D02*
X72870000Y-63270000D01*
D53*
X85900000Y-70425000D02*
X86300000Y-70025000D01*
D55*
X46150000Y-63712500D02*
X46150000Y-64375000D01*
D53*
X85800000Y-58526414D02*
X85800000Y-57351414D01*
D55*
X49600000Y-64400000D02*
X50820000Y-65620000D01*
X72080000Y-61400000D02*
X72080000Y-59730000D01*
X71725000Y-59375000D02*
X61450000Y-59375000D01*
X72870000Y-63270000D02*
X72080000Y-62480000D01*
D54*
X94687500Y-59750000D02*
X92750000Y-59750000D01*
X30387500Y-79487500D02*
X30375000Y-79475000D01*
X77600000Y-82500000D02*
X76527338Y-82500000D01*
X95025000Y-69587500D02*
X95025000Y-68250000D01*
D53*
X83125000Y-69587500D02*
X83125000Y-69975000D01*
X90350000Y-67987500D02*
X90350000Y-66960000D01*
X91248676Y-59426324D02*
X91490240Y-59426324D01*
X89987500Y-69587500D02*
X89625000Y-69587500D01*
D55*
X61450000Y-59375000D02*
X60862500Y-59962500D01*
D54*
X92426324Y-59426324D02*
X91490240Y-59426324D01*
X77600000Y-82500000D02*
X77600000Y-79352500D01*
X103893687Y-68187273D02*
X103893687Y-70831187D01*
X30387500Y-81175000D02*
X30387500Y-82537500D01*
X91426324Y-59426324D02*
X91490240Y-59426324D01*
X85800000Y-57925000D02*
X85800000Y-57351414D01*
D53*
X94374040Y-68936540D02*
X95025000Y-69587500D01*
D55*
X61187500Y-65600000D02*
X61187500Y-64075000D01*
%TO.N,GND*%
X95830000Y-73110000D02*
X94210000Y-73110000D01*
D54*
X56900000Y-53600000D02*
X57750000Y-52750000D01*
D55*
X44862500Y-65787500D02*
X44850000Y-65800000D01*
D54*
X53750000Y-54400000D02*
X52950000Y-54400000D01*
D55*
X95937500Y-71312500D02*
X95025000Y-71312500D01*
X92750000Y-69037500D02*
X92750000Y-70675000D01*
X92075000Y-71350000D02*
X91262500Y-71350000D01*
D54*
X57750000Y-52750000D02*
X59212500Y-52750000D01*
X54325000Y-54975000D02*
X53750000Y-54400000D01*
D55*
X92750000Y-70675000D02*
X92075000Y-71350000D01*
D54*
X63950000Y-63750000D02*
X63980000Y-63780000D01*
X82447500Y-75725000D02*
X82447500Y-75620000D01*
D55*
X28875479Y-65108041D02*
X27987499Y-65108041D01*
X25425000Y-57850000D02*
X25425000Y-56325000D01*
X35350000Y-54387500D02*
X30812500Y-54387500D01*
X96600000Y-67212500D02*
X96600000Y-68750000D01*
X89625000Y-71312500D02*
X91225000Y-71312500D01*
X46150000Y-65787500D02*
X44862500Y-65787500D01*
X79580000Y-59250000D02*
X79575000Y-59245000D01*
X96600000Y-68750000D02*
X96600000Y-70650000D01*
D54*
X95750000Y-68250000D02*
X96525000Y-68250000D01*
D55*
X28875479Y-63375479D02*
X28875479Y-65108041D01*
X94210000Y-73110000D02*
X92650000Y-71550000D01*
D54*
X55650000Y-53600000D02*
X56900000Y-53600000D01*
D53*
X82120000Y-63550000D02*
X84312500Y-63550000D01*
D54*
X55225000Y-54025000D02*
X55650000Y-53600000D01*
X102637500Y-72612500D02*
X102625000Y-72600000D01*
D55*
X76175000Y-59125000D02*
X76175000Y-60600000D01*
D54*
X38162500Y-61175000D02*
X38225000Y-61237500D01*
X62937500Y-63750000D02*
X63950000Y-63750000D01*
X77200000Y-67175000D02*
X77200000Y-69225000D01*
X96600000Y-68325000D02*
X96600000Y-68750000D01*
D52*
X93187500Y-86845000D02*
X93187500Y-85667500D01*
D54*
X56000000Y-51350000D02*
X54212500Y-51350000D01*
D55*
X96600000Y-70650000D02*
X95937500Y-71312500D01*
X49550000Y-66325000D02*
X49550000Y-67275000D01*
D54*
X82400000Y-75772500D02*
X82447500Y-75725000D01*
D55*
X78050000Y-69612499D02*
X78137500Y-69524999D01*
D53*
X92250000Y-58461084D02*
X91490240Y-57701324D01*
D55*
X91262500Y-71350000D02*
X91225000Y-71312500D01*
D52*
X98300000Y-62200000D02*
X99800000Y-62200000D01*
D54*
X96600000Y-67212500D02*
X95050000Y-67212500D01*
X79862500Y-63912500D02*
X79500000Y-64275000D01*
X79862500Y-62100000D02*
X79862500Y-63912500D01*
X60700000Y-51300000D02*
X61120000Y-51300000D01*
D55*
X46150000Y-58950000D02*
X47212500Y-57887500D01*
X92650000Y-70775000D02*
X92750000Y-70675000D01*
D52*
X98765000Y-74985000D02*
X98780000Y-74970000D01*
X100466179Y-80971179D02*
X100955000Y-81460000D01*
D54*
X77200000Y-69225000D02*
X77550000Y-69575000D01*
X56000000Y-51350000D02*
X56000000Y-50250000D01*
D55*
X79187500Y-71312500D02*
X78050000Y-70175000D01*
D53*
X81910000Y-63340000D02*
X82120000Y-63550000D01*
D55*
X92650000Y-71550000D02*
X92650000Y-70775000D01*
D52*
X100083687Y-61916313D02*
X100083687Y-60987273D01*
D55*
X79575000Y-59245000D02*
X79575000Y-55887500D01*
D54*
X77550000Y-69575000D02*
X78087499Y-69575000D01*
D55*
X83125000Y-71312500D02*
X79187500Y-71312500D01*
D53*
X85600000Y-55426414D02*
X85600000Y-54250000D01*
D52*
X100466179Y-79829707D02*
X100466179Y-80971179D01*
D55*
X78050000Y-70175000D02*
X78050000Y-69612499D01*
D54*
X82447500Y-75147500D02*
X81390000Y-74090000D01*
D53*
X80670000Y-62100000D02*
X79862500Y-62100000D01*
D55*
X48925480Y-65700480D02*
X49550000Y-66325000D01*
X28875000Y-63375000D02*
X28875479Y-63375479D01*
D52*
X93187500Y-85667500D02*
X93180000Y-85660000D01*
X100995886Y-79300000D02*
X100466179Y-79829707D01*
D54*
X61120000Y-51300000D02*
X61920000Y-52100000D01*
D53*
X92250000Y-58500000D02*
X92250000Y-58461084D01*
D55*
X78137500Y-69524999D02*
X76275000Y-69525000D01*
D56*
X39000000Y-79595000D02*
X39000000Y-76975000D01*
D55*
X46237020Y-65700480D02*
X48925480Y-65700480D01*
X46150000Y-65787500D02*
X46237020Y-65700480D01*
D54*
X81390000Y-74090000D02*
X80710000Y-74090000D01*
D55*
X25425000Y-56325000D02*
X25450000Y-56300000D01*
D54*
X82447500Y-75620000D02*
X82447500Y-75147500D01*
X54325000Y-55887500D02*
X54325000Y-54975000D01*
X96525000Y-68250000D02*
X96600000Y-68325000D01*
X103950000Y-72612500D02*
X102637500Y-72612500D01*
D55*
X30812500Y-54387500D02*
X30800000Y-54400000D01*
D54*
X56000000Y-50250000D02*
X56025000Y-50225000D01*
D55*
X83125000Y-71312500D02*
X86300000Y-71312500D01*
X46150000Y-60575000D02*
X46150000Y-58950000D01*
D52*
X99800000Y-62200000D02*
X100083687Y-61916313D01*
X105100000Y-79300000D02*
X100995886Y-79300000D01*
D54*
X82400000Y-77087500D02*
X82400000Y-75772500D01*
D52*
X97842500Y-74985000D02*
X98765000Y-74985000D01*
D53*
X81910000Y-63340000D02*
X80670000Y-62100000D01*
D55*
X47212500Y-57887500D02*
X48235000Y-57887500D01*
D54*
X36925000Y-61175000D02*
X38162500Y-61175000D01*
D53*
%TO.N,/MCP_OSC2*%
X60300000Y-54250000D02*
X55975000Y-54250000D01*
X60300000Y-54250000D02*
X63650000Y-54250000D01*
X63650000Y-54250000D02*
X64460000Y-53440000D01*
X60625000Y-52225000D02*
X60625000Y-53925000D01*
X59837500Y-51437500D02*
X60625000Y-52225000D01*
X59625000Y-51437500D02*
X59837500Y-51437500D01*
X60625000Y-53925000D02*
X60300000Y-54250000D01*
X55975000Y-54250000D02*
X55625000Y-54600000D01*
X64460000Y-53440000D02*
X64460000Y-52100000D01*
X57750000Y-51350000D02*
X59537500Y-51350000D01*
X55625000Y-54600000D02*
X55625000Y-55887500D01*
D52*
%TO.N,/GPO_6*%
X88650000Y-83200000D02*
X83370000Y-83200000D01*
D57*
X82350000Y-56645986D02*
X82350000Y-54940000D01*
X85550000Y-59845986D02*
X82350000Y-56645986D01*
X85550000Y-61112500D02*
X85550000Y-59845986D01*
D52*
X83370000Y-83200000D02*
X83360000Y-83190000D01*
D53*
%TO.N,/MCP_OSC1*%
X56875000Y-50600000D02*
X56875000Y-51875000D01*
X54125000Y-53850000D02*
X54125000Y-53162500D01*
X54975000Y-54700000D02*
X54125000Y-53850000D01*
X57475000Y-50000000D02*
X56875000Y-50600000D01*
X63190000Y-50990000D02*
X62200000Y-50000000D01*
X54975000Y-55887500D02*
X54975000Y-54700000D01*
X63190000Y-52100000D02*
X63190000Y-50990000D01*
X54537500Y-52750000D02*
X54125000Y-53162500D01*
X62200000Y-50000000D02*
X57475000Y-50000000D01*
X56875000Y-51875000D02*
X56000000Y-52750000D01*
X56000000Y-52750000D02*
X54537500Y-52750000D01*
%TO.N,/MCP_RESET*%
X62500000Y-66600000D02*
X63012500Y-66087500D01*
D52*
X77820000Y-72630000D02*
X80220000Y-72630000D01*
X75410000Y-70220000D02*
X77820000Y-72630000D01*
D53*
X59525000Y-66575000D02*
X59525000Y-61612500D01*
D52*
X70799506Y-63619506D02*
X71174520Y-63994520D01*
D53*
X88350000Y-67987500D02*
X88350000Y-68620000D01*
D52*
X70810000Y-63150016D02*
X70810000Y-61400000D01*
X70799506Y-63160510D02*
X70810000Y-63150016D01*
D53*
X63012500Y-66087500D02*
X63012500Y-65600000D01*
D52*
X80220000Y-72630000D02*
X80880000Y-73290000D01*
X80880000Y-73290000D02*
X87730000Y-73290000D01*
X59525000Y-63200000D02*
X59525000Y-61612500D01*
X74274520Y-63994520D02*
X75410000Y-65130000D01*
X87730000Y-73290000D02*
X88870000Y-72150000D01*
D53*
X88870000Y-69140000D02*
X88870000Y-70370000D01*
D52*
X75410000Y-65130000D02*
X75410000Y-70220000D01*
D53*
X88350000Y-68620000D02*
X88870000Y-69140000D01*
D52*
X88870000Y-72150000D02*
X88870000Y-70370000D01*
X71174520Y-63994520D02*
X74274520Y-63994520D01*
X70799506Y-63160510D02*
X70799506Y-63619506D01*
D53*
X59550000Y-66600000D02*
X59525000Y-66575000D01*
D54*
%TO.N,Net-(R15-Pad1)*%
X48280000Y-62325000D02*
X48280000Y-59757500D01*
D53*
%TO.N,/GPO_7*%
X89275000Y-55200000D02*
X89950000Y-55875000D01*
X89950000Y-55875000D02*
X89950000Y-61112500D01*
X89275000Y-54250000D02*
X89275000Y-55200000D01*
%TO.N,/GPO_8*%
X88650000Y-55220001D02*
X89650480Y-56220481D01*
X89650480Y-61012020D02*
X89550000Y-61112500D01*
X88650000Y-54250000D02*
X88650000Y-55220001D01*
X89650480Y-56220481D02*
X89650480Y-61012020D01*
%TO.N,/GPO_9*%
X89350960Y-60521166D02*
X89350960Y-56575960D01*
X89150000Y-61112500D02*
X89150000Y-60722126D01*
X88050000Y-54250000D02*
X88050000Y-55250000D01*
X89350960Y-56550960D02*
X89350960Y-56575960D01*
X89150000Y-60722126D02*
X89350960Y-60521166D01*
X88050000Y-55250000D02*
X89350960Y-56550960D01*
%TO.N,Net-(C4-Pad1)*%
X78100000Y-52975000D02*
X79100000Y-52975000D01*
X77775000Y-53300000D02*
X78100000Y-52975000D01*
X79100000Y-52975000D02*
X79575000Y-53450000D01*
X77775000Y-54225000D02*
X77775000Y-53300000D01*
X79575000Y-53450000D02*
X79575000Y-54162500D01*
D55*
%TO.N,VCC*%
X76175000Y-50275000D02*
X76150000Y-50250000D01*
X76175000Y-54225000D02*
X76175000Y-50275000D01*
D56*
X36600000Y-56300000D02*
X31150001Y-56300000D01*
D55*
%TO.N,/LEDA_OUT*%
X74575000Y-46125000D02*
X74575000Y-54225000D01*
X74600000Y-46100000D02*
X74575000Y-46125000D01*
%TO.N,/LEDA*%
X74575000Y-57985000D02*
X74575000Y-59125000D01*
X77775000Y-57345000D02*
X77775000Y-59125000D01*
D53*
X83550000Y-62750000D02*
X84312500Y-62750000D01*
D55*
X77775000Y-57345000D02*
X75215000Y-57345000D01*
D53*
X77775000Y-59125000D02*
X77775000Y-60475000D01*
D55*
X75215000Y-57345000D02*
X74575000Y-57985000D01*
D53*
X82125000Y-61325000D02*
X83550000Y-62750000D01*
X77775000Y-60475000D02*
X78625000Y-61325000D01*
X78625000Y-61325000D02*
X82125000Y-61325000D01*
D54*
%TO.N,Net-(C7-Pad1)*%
X77375000Y-62100000D02*
X78137500Y-62100000D01*
X77200000Y-64275000D02*
X77200000Y-62275000D01*
X77200000Y-62275000D02*
X77375000Y-62100000D01*
%TO.N,Net-(C8-Pad2)*%
X79862500Y-69524999D02*
X81537499Y-69524999D01*
X79862500Y-69524999D02*
X79862500Y-67537500D01*
D53*
%TO.N,+1V1*%
X84700000Y-61490000D02*
X85860000Y-62650000D01*
X90550000Y-66350000D02*
X89850000Y-65650000D01*
X86270000Y-62650000D02*
X89490000Y-62650000D01*
D54*
X84750000Y-68750000D02*
X84750000Y-69587500D01*
D53*
X92750000Y-66580547D02*
X92750000Y-67312500D01*
D54*
X84700000Y-68700000D02*
X84750000Y-68750000D01*
D53*
X89850000Y-65650000D02*
X89850000Y-64600000D01*
X89490000Y-62650000D02*
X89850000Y-63010000D01*
X85860000Y-62650000D02*
X86270000Y-62650000D01*
X91187500Y-64350000D02*
X96100000Y-64350000D01*
X91187500Y-66350000D02*
X92519453Y-66350000D01*
X92519453Y-66350000D02*
X92750000Y-66580547D01*
X89850000Y-63010000D02*
X89850000Y-64600000D01*
X91187500Y-66350000D02*
X90550000Y-66350000D01*
X96100000Y-64350000D02*
X96600000Y-64850000D01*
X96600000Y-64850000D02*
X96600000Y-65487500D01*
X84700000Y-60375000D02*
X84700000Y-61490000D01*
D52*
%TO.N,/PICO_USB_N*%
X100955000Y-82730000D02*
X101915000Y-83690000D01*
X95630000Y-80350188D02*
X95630000Y-79720000D01*
X101915000Y-83690000D02*
X103660000Y-83690000D01*
X94620000Y-81840000D02*
X94319995Y-81840000D01*
X96800000Y-78550000D02*
X96800000Y-78162500D01*
X94871884Y-81108304D02*
X95630000Y-80350188D01*
X103660000Y-83690000D02*
X104670000Y-84700000D01*
X104670000Y-84700000D02*
X104670000Y-86280000D01*
X104670000Y-86280000D02*
X103750000Y-87200000D01*
X97300000Y-87200000D02*
X94920000Y-84820000D01*
X103750000Y-87200000D02*
X97300000Y-87200000D01*
X95630000Y-79720000D02*
X96800000Y-78550000D01*
X94319995Y-81240000D02*
X94620000Y-81240000D01*
X94920000Y-84820000D02*
X94920000Y-82140000D01*
X94871883Y-81108304D02*
G75*
G02*
X94620000Y-81239999I-255119J181220D01*
G01*
X94620000Y-81840000D02*
G75*
G02*
X94920000Y-82140000I0J-300000D01*
G01*
X94019995Y-81540000D02*
G75*
G03*
X94319995Y-81840000I300000J0D01*
G01*
X94319995Y-81240000D02*
G75*
G03*
X94019995Y-81540000I0J-300000D01*
G01*
%TO.N,/PICO_USB_P*%
X101542500Y-78633929D02*
X101542500Y-78137500D01*
X98992500Y-78137500D02*
X98637058Y-78492939D01*
X99742500Y-77441071D02*
X99742500Y-77837500D01*
X95880000Y-81690000D02*
X95580000Y-81690000D01*
X96180000Y-83040000D02*
X96796971Y-83656971D01*
X98637058Y-78917203D02*
X98775955Y-79056100D01*
X96180000Y-82590000D02*
X96180000Y-82640000D01*
X99442500Y-78137500D02*
X98992500Y-78137500D01*
X96180000Y-80950000D02*
X96180000Y-81390000D01*
X101542500Y-78137500D02*
X101542500Y-77441071D01*
X97609226Y-80434962D02*
X97364264Y-80190000D01*
X103850000Y-78137500D02*
X102442500Y-78137500D01*
X98351691Y-79480365D02*
X97755701Y-78884376D01*
X98758029Y-83656971D02*
X99685000Y-82730000D01*
X100942500Y-77441071D02*
X100942500Y-78137500D01*
X102142500Y-78437500D02*
X102142500Y-78633929D01*
X95580000Y-82290000D02*
X95880000Y-82290000D01*
X96796971Y-83656971D02*
X98758029Y-83656971D01*
X100942500Y-78137500D02*
X100942500Y-78733929D01*
X98775955Y-79056100D02*
X98775955Y-79056099D01*
X96180000Y-82640000D02*
X96180000Y-83040000D01*
X96940000Y-80190000D02*
X96180000Y-80950000D01*
X100342500Y-77837500D02*
X100342500Y-77441071D01*
X97755701Y-78884376D02*
X97755701Y-78884377D01*
X98033490Y-80010697D02*
X98033490Y-80010696D01*
X97331435Y-79308641D02*
X98033490Y-80010697D01*
X100342500Y-78733929D02*
X100342500Y-77837500D01*
X98637059Y-78917202D02*
G75*
G02*
X98637059Y-78492940I212131J212131D01*
G01*
X100042500Y-77141071D02*
G75*
G02*
X100342500Y-77441071I0J-300000D01*
G01*
X99442500Y-78137500D02*
G75*
G03*
X99742500Y-77837500I0J300000D01*
G01*
X100942500Y-77441071D02*
G75*
G02*
X101242500Y-77141071I300000J0D01*
G01*
X100642500Y-79033929D02*
G75*
G03*
X100942500Y-78733929I0J300000D01*
G01*
X96180000Y-82590000D02*
G75*
G03*
X95880000Y-82290000I-300000J0D01*
G01*
X97331436Y-79308640D02*
G75*
G02*
X97331436Y-78884378I212131J212131D01*
G01*
X96940001Y-80190001D02*
G75*
G02*
X97364263Y-80190001I212131J-212131D01*
G01*
X101242500Y-77141071D02*
G75*
G02*
X101542500Y-77441071I0J-300000D01*
G01*
X100342500Y-78733929D02*
G75*
G03*
X100642500Y-79033929I300000J0D01*
G01*
X102142500Y-78437500D02*
G75*
G02*
X102442500Y-78137500I300000J0D01*
G01*
X98033490Y-80434962D02*
G75*
G03*
X98033490Y-80010696I-212134J212133D01*
G01*
X98351692Y-79480364D02*
G75*
G03*
X98775954Y-79480364I212131J212131D01*
G01*
X95580000Y-82290000D02*
G75*
G02*
X95280000Y-81990000I0J300000D01*
G01*
X101842500Y-78933929D02*
G75*
G03*
X102142500Y-78633929I0J300000D01*
G01*
X98775955Y-79480365D02*
G75*
G03*
X98775955Y-79056099I-212134J212133D01*
G01*
X101542500Y-78633929D02*
G75*
G03*
X101842500Y-78933929I300000J0D01*
G01*
X97331436Y-78884378D02*
G75*
G02*
X97755700Y-78884378I212132J-212130D01*
G01*
X99742500Y-77441071D02*
G75*
G02*
X100042500Y-77141071I300000J0D01*
G01*
X95280000Y-81990000D02*
G75*
G02*
X95580000Y-81690000I300000J0D01*
G01*
X95880000Y-81690000D02*
G75*
G03*
X96180000Y-81390000I0J300000D01*
G01*
X97609227Y-80434961D02*
G75*
G03*
X98033489Y-80434961I212131J212131D01*
G01*
D54*
%TO.N,/QSPI_SS*%
X96512500Y-58150000D02*
X96512500Y-59750000D01*
D53*
X102238687Y-58387273D02*
X103893687Y-60042273D01*
X91187500Y-61950000D02*
X96750000Y-61950000D01*
X96750000Y-61950000D02*
X97639647Y-61060353D01*
X97629294Y-59750000D02*
X97639647Y-59760353D01*
X97639647Y-59760353D02*
X97639647Y-59062248D01*
X97639647Y-59062248D02*
X98314622Y-58387273D01*
X96512500Y-59750000D02*
X97629294Y-59750000D01*
X103893687Y-60042273D02*
X103893687Y-60987273D01*
X98314622Y-58387273D02*
X102238687Y-58387273D01*
X97639647Y-61060353D02*
X97639647Y-59760353D01*
%TO.N,Net-(R5-Pad1)*%
X84312500Y-64350000D02*
X82550000Y-64350000D01*
X82550000Y-64350000D02*
X81575000Y-65325000D01*
X81575000Y-67487500D02*
X81450000Y-67612500D01*
X81575000Y-65325000D02*
X81575000Y-67487500D01*
%TO.N,/QSPI_SD1*%
X97939167Y-61210833D02*
X96800000Y-62350000D01*
X102623687Y-59672273D02*
X101638207Y-58686793D01*
X102623687Y-60987273D02*
X102623687Y-59672273D01*
X97939167Y-59186313D02*
X97939167Y-61210833D01*
X98438687Y-58686793D02*
X97939167Y-59186313D01*
X96800000Y-62350000D02*
X91187500Y-62350000D01*
X101638207Y-58686793D02*
X98438687Y-58686793D01*
%TO.N,/QSPI_SD2*%
X100687727Y-58986313D02*
X101353687Y-59652273D01*
X96850000Y-62750000D02*
X98238687Y-61361313D01*
X98238687Y-61361313D02*
X98238687Y-59310379D01*
X98562753Y-58986313D02*
X100687727Y-58986313D01*
X98238687Y-59310379D02*
X98562753Y-58986313D01*
X101353687Y-59652273D02*
X101353687Y-60987273D01*
X91187500Y-62750000D02*
X96850000Y-62750000D01*
%TO.N,/QSPI_SD0*%
X99888687Y-70688233D02*
X100083687Y-70493233D01*
X98350000Y-64652828D02*
X98350000Y-69801414D01*
X98350000Y-69801414D02*
X99236819Y-70688233D01*
X96847172Y-63150000D02*
X98350000Y-64652828D01*
X91187500Y-63150000D02*
X96847172Y-63150000D01*
X99236819Y-70688233D02*
X99888687Y-70688233D01*
X100083687Y-70493233D02*
X100083687Y-68187273D01*
%TO.N,/QSPI_SCLK*%
X96823586Y-63550000D02*
X91187500Y-63550000D01*
X99112753Y-70987753D02*
X98050480Y-69925480D01*
X101353687Y-70422273D02*
X100788207Y-70987753D01*
X98050480Y-69925480D02*
X98050480Y-64776894D01*
X100788207Y-70987753D02*
X99112753Y-70987753D01*
X101353687Y-68187273D02*
X101353687Y-70422273D01*
X98050480Y-64776894D02*
X96823586Y-63550000D01*
%TO.N,/QSPI_SD3*%
X96800000Y-63950000D02*
X97750960Y-64900960D01*
X97750960Y-70049546D02*
X98988687Y-71287273D01*
X91187500Y-63950000D02*
X96800000Y-63950000D01*
X97750960Y-64900960D02*
X97750960Y-70049546D01*
X98988687Y-71287273D02*
X101812500Y-71287273D01*
X101812500Y-71287273D02*
X102623687Y-70476086D01*
X102623687Y-70476086D02*
X102623687Y-68187273D01*
%TO.N,/PICO_USB__P*%
X94597500Y-72072500D02*
X98822500Y-72072500D01*
X91187500Y-65550000D02*
X92566625Y-65550000D01*
X103930000Y-76332500D02*
X103850000Y-76412500D01*
X94074520Y-67057896D02*
X94074520Y-71549520D01*
X98822500Y-72072500D02*
X100145000Y-73395000D01*
X92566625Y-65550000D02*
X94074520Y-67057896D01*
X100145000Y-73395000D02*
X103055000Y-73395000D01*
X94074520Y-71549520D02*
X94597500Y-72072500D01*
X103930000Y-74270000D02*
X103930000Y-76332500D01*
X103055000Y-73395000D02*
X103930000Y-74270000D01*
%TO.N,/PICO_USB__N*%
X93775000Y-70585000D02*
X93775000Y-70255000D01*
X93775000Y-71675000D02*
X93775000Y-71535000D01*
X93775000Y-67181961D02*
X92543039Y-65950000D01*
X96340000Y-72395000D02*
X94495000Y-72395000D01*
X96800000Y-72855000D02*
X96340000Y-72395000D01*
X93425000Y-71185000D02*
X93425000Y-70935000D01*
X94495000Y-72395000D02*
X93775000Y-71675000D01*
X92543039Y-65950000D02*
X91187500Y-65950000D01*
X93475000Y-69955000D02*
X93475000Y-69655000D01*
X96800000Y-76437500D02*
X96800000Y-72855000D01*
X93775000Y-69355000D02*
X93775000Y-67181961D01*
X93425000Y-71185000D02*
G75*
G03*
X93600000Y-71360000I174999J-1D01*
G01*
X93600000Y-71360000D02*
G75*
G02*
X93775000Y-71535000I1J-174999D01*
G01*
X93475000Y-69955000D02*
G75*
G03*
X93625000Y-70105000I150000J0D01*
G01*
X93775000Y-70585000D02*
G75*
G02*
X93600000Y-70760000I-174999J-1D01*
G01*
X93600000Y-70760000D02*
G75*
G03*
X93425000Y-70935000I-1J-174999D01*
G01*
X93775000Y-69355000D02*
G75*
G02*
X93625000Y-69505000I-150000J0D01*
G01*
X93625000Y-69505000D02*
G75*
G03*
X93475000Y-69655000I0J-150000D01*
G01*
X93625000Y-70105000D02*
G75*
G02*
X93775000Y-70255000I0J-150000D01*
G01*
%TO.N,/GPO_11*%
X85870000Y-87660000D02*
X91280000Y-87660000D01*
X87400000Y-69640000D02*
X87150000Y-69390000D01*
X87150000Y-69390000D02*
X87150000Y-67987500D01*
X85860000Y-87670000D02*
X85870000Y-87660000D01*
D52*
%TO.N,/EXT_IO4*%
X40350480Y-72950480D02*
X41600000Y-74200000D01*
X58700000Y-86147338D02*
X58719838Y-86127500D01*
X41600000Y-74200000D02*
X44300000Y-74200000D01*
X37405000Y-51905000D02*
X40350480Y-54850480D01*
X37405000Y-51390000D02*
X37405000Y-51905000D01*
X58700000Y-88300000D02*
X58700000Y-86147338D01*
X40350480Y-54850480D02*
X40350480Y-72950480D01*
%TO.N,/EXT_IO5*%
X57500000Y-86177662D02*
X57449838Y-86127500D01*
X35950000Y-49250000D02*
X37850000Y-49250000D01*
X33215000Y-46515000D02*
X35950000Y-49250000D01*
X57500000Y-88300000D02*
X57500000Y-86177662D01*
X37850000Y-49250000D02*
X39800000Y-51200000D01*
X39800000Y-52400000D02*
X40700000Y-53300000D01*
X40700000Y-53300000D02*
X40700000Y-72400000D01*
X33215000Y-45040000D02*
X33215000Y-46515000D01*
X41600000Y-73300000D02*
X44300000Y-73300000D01*
X40700000Y-72400000D02*
X41600000Y-73300000D01*
X39800000Y-51200000D02*
X39800000Y-52400000D01*
D54*
%TO.N,Net-(D301-Pad1)*%
X78927500Y-78930000D02*
X80687500Y-78930000D01*
%TO.N,Net-(D302-Pad1)*%
X79000000Y-75610000D02*
X80612500Y-75610000D01*
X80612500Y-75610000D02*
X80622500Y-75620000D01*
D52*
%TO.N,/LED_RED*%
X76850000Y-75610000D02*
X74965000Y-75610000D01*
X74965000Y-75610000D02*
X72689838Y-77885162D01*
X72689838Y-77885162D02*
X72689838Y-82527500D01*
D54*
%TO.N,Net-(D308-Pad1)*%
X80582500Y-77280000D02*
X80592500Y-77270000D01*
X79010000Y-77280000D02*
X80582500Y-77280000D01*
D52*
%TO.N,/WIFI_LED*%
X76860000Y-77280000D02*
X74740000Y-77280000D01*
X73959838Y-78060162D02*
X73959838Y-82527500D01*
X74740000Y-77280000D02*
X73959838Y-78060162D01*
%TO.N,/MODE_BTN*%
X65075000Y-90625000D02*
X65069838Y-90619838D01*
X65069838Y-90619838D02*
X65069838Y-86127500D01*
D55*
X58750000Y-78500000D02*
X56950000Y-78500000D01*
X56950000Y-78500000D02*
X50375000Y-85075000D01*
X50375000Y-85075000D02*
X47000000Y-85075000D01*
%TO.N,/PAUSE_BTN*%
X51880000Y-79595000D02*
X47000000Y-79595000D01*
D52*
X63825000Y-90625000D02*
X63799838Y-90599838D01*
X63799838Y-90599838D02*
X63799838Y-86127500D01*
D55*
X54750000Y-74250000D02*
X54750000Y-76725000D01*
X54750000Y-76725000D02*
X51880000Y-79595000D01*
D52*
%TO.N,/LED_GRN*%
X82222500Y-78940000D02*
X82020000Y-78940000D01*
X75229838Y-78660162D02*
X75229838Y-82527500D01*
X75780000Y-78110000D02*
X75229838Y-78660162D01*
X81190000Y-78110000D02*
X75780000Y-78110000D01*
X82020000Y-78940000D02*
X81190000Y-78110000D01*
%TO.N,/EXT_I2C_SDA*%
X71990000Y-66590000D02*
X73125000Y-67725000D01*
X73110000Y-71740000D02*
X73100000Y-71750000D01*
D53*
X87250000Y-58150000D02*
X87950000Y-58850000D01*
X87950000Y-58850000D02*
X87950000Y-61112500D01*
D52*
X41100960Y-54899040D02*
X43100000Y-52900000D01*
X73100000Y-71750000D02*
X73100000Y-76280000D01*
X73125000Y-67725000D02*
X73125000Y-71725000D01*
X73100000Y-76280000D02*
X71419838Y-77960162D01*
X71990000Y-64625500D02*
X71990000Y-66590000D01*
X73125000Y-71725000D02*
X73110000Y-71740000D01*
X71419838Y-77960162D02*
X71419838Y-82527500D01*
X39190000Y-45040000D02*
X37405000Y-45040000D01*
X41650000Y-72350000D02*
X41100960Y-71800960D01*
X43000000Y-72350000D02*
X41650000Y-72350000D01*
X43100000Y-52900000D02*
X43100000Y-48950000D01*
X41100960Y-71800960D02*
X41100960Y-54899040D01*
X43100000Y-48950000D02*
X39190000Y-45040000D01*
%TO.N,/EXT_I2C_SCL*%
X43000000Y-71400000D02*
X42025000Y-71400000D01*
X41450480Y-55149520D02*
X43500000Y-53100000D01*
X41450480Y-70825480D02*
X41450480Y-55149520D01*
D53*
X88110000Y-58150000D02*
X88350000Y-58390000D01*
D52*
X43500000Y-46945000D02*
X41595000Y-45040000D01*
X70149838Y-77930162D02*
X70149838Y-82527500D01*
X72175000Y-75905000D02*
X70149838Y-77930162D01*
D53*
X70870000Y-64625500D02*
X70870000Y-66895000D01*
D52*
X42025000Y-71400000D02*
X41450480Y-70825480D01*
X72175000Y-70815000D02*
X72175000Y-75905000D01*
D53*
X88350000Y-58390000D02*
X88350000Y-61112500D01*
X70870000Y-66895000D02*
X72180000Y-68205000D01*
X72180000Y-68205000D02*
X72180000Y-70810000D01*
D52*
X72180000Y-70810000D02*
X72175000Y-70815000D01*
X43500000Y-53100000D02*
X43500000Y-46945000D01*
D55*
%TO.N,/EXT_12V*%
X31800000Y-79475000D02*
X31800000Y-80712500D01*
D54*
X32450000Y-67100000D02*
X38150000Y-67100000D01*
D55*
X31800000Y-64650000D02*
X31800000Y-63350000D01*
D54*
X32262500Y-66912500D02*
X32450000Y-67100000D01*
D55*
X32258041Y-65108041D02*
X31800000Y-64650000D01*
D54*
X32262500Y-65108041D02*
X32262500Y-66912500D01*
D55*
X32262500Y-65108041D02*
X32258041Y-65108041D01*
X31800000Y-80712500D02*
X32187500Y-81100000D01*
D56*
X29025000Y-51390000D02*
X28950480Y-51464520D01*
X28950480Y-51464520D02*
X28950480Y-56300000D01*
D54*
X38150000Y-67100000D02*
X38225000Y-67175000D01*
D52*
%TO.N,/EXT_IO1*%
X60000000Y-88300000D02*
X60000000Y-86137662D01*
X60000000Y-86137662D02*
X59989838Y-86127500D01*
%TO.N,/EXT_IO2*%
X57420000Y-82497662D02*
X57449838Y-82527500D01*
X57420000Y-80330000D02*
X57420000Y-82497662D01*
D53*
%TO.N,/EXT_IO3*%
X83070000Y-63150000D02*
X82830000Y-62910000D01*
D52*
X65069838Y-78169838D02*
X65069838Y-82527500D01*
X55950000Y-67025500D02*
X55625000Y-66700500D01*
X64225000Y-66925000D02*
X64604511Y-66545489D01*
X63550000Y-67600000D02*
X63550000Y-76650000D01*
X64604511Y-66545489D02*
X64604511Y-61544511D01*
X63550000Y-76650000D02*
X65069838Y-78169838D01*
X64604511Y-61544511D02*
X64460000Y-61400000D01*
D53*
X84312500Y-63150000D02*
X83070000Y-63150000D01*
D52*
X55625000Y-66700500D02*
X55625000Y-61612500D01*
X64225000Y-66925000D02*
X63550000Y-67600000D01*
%TO.N,/EXT_SPI_MISO*%
X62529838Y-78500162D02*
X62529838Y-82527500D01*
X68300000Y-64350000D02*
X68300000Y-61430000D01*
X68300000Y-61430000D02*
X68270000Y-61400000D01*
D53*
X84312500Y-66750000D02*
X83420000Y-66750000D01*
D52*
X58200000Y-64775000D02*
X58225000Y-64750000D01*
X62530000Y-78500000D02*
X62529838Y-78500162D01*
X58200000Y-64775000D02*
X58025000Y-64950000D01*
X62150000Y-72150000D02*
X62150000Y-78120000D01*
X58025000Y-64950000D02*
X58025000Y-68025000D01*
X68150000Y-64500000D02*
X68300000Y-64350000D01*
D53*
X83420000Y-66750000D02*
X82820000Y-66150000D01*
D52*
X58025000Y-68025000D02*
X62150000Y-72150000D01*
X58225000Y-64750000D02*
X58225000Y-61612500D01*
X62150000Y-78120000D02*
X62530000Y-78500000D01*
%TO.N,/EXT_SPI_MOSI*%
X57075000Y-64775000D02*
X57075000Y-64075000D01*
D53*
X82950000Y-67550000D02*
X82830000Y-67670000D01*
X85282874Y-67330000D02*
X84922874Y-67330000D01*
X84702874Y-67550000D02*
X83330000Y-67550000D01*
X83330000Y-67550000D02*
X82950000Y-67550000D01*
X85550000Y-67987500D02*
X85550000Y-67597126D01*
D52*
X57350000Y-68350000D02*
X61250000Y-72250000D01*
D53*
X85550000Y-67597126D02*
X85282874Y-67330000D01*
D52*
X61250000Y-72250000D02*
X61250000Y-78500000D01*
D53*
X84922874Y-67330000D02*
X84702874Y-67550000D01*
D52*
X61250000Y-78500000D02*
X61259838Y-78509838D01*
X57075000Y-64075000D02*
X57575000Y-63575000D01*
X57075000Y-64775000D02*
X57075000Y-65500000D01*
X57075000Y-65500000D02*
X57350000Y-65775000D01*
X67030000Y-61430000D02*
X67000000Y-61400000D01*
X57350000Y-65775000D02*
X57350000Y-68350000D01*
X67030000Y-65540000D02*
X67030000Y-61430000D01*
X57575000Y-63575000D02*
X57575000Y-61612500D01*
X61259838Y-78509838D02*
X61259838Y-82527500D01*
D53*
%TO.N,/EXT_SPI_SCK*%
X82830000Y-68400000D02*
X83242500Y-67987500D01*
D52*
X56600000Y-66025000D02*
X56275000Y-65700000D01*
X56600000Y-66025000D02*
X56600000Y-68650000D01*
X65600000Y-61530000D02*
X65730000Y-61400000D01*
X59989838Y-78514838D02*
X59989838Y-82527500D01*
X60010000Y-72060000D02*
X60010000Y-78465000D01*
X56275000Y-65700000D02*
X56275000Y-61612500D01*
X65600000Y-66290000D02*
X65600000Y-61530000D01*
X60010000Y-78465000D02*
X59975000Y-78500000D01*
X56600000Y-68650000D02*
X60010000Y-72060000D01*
D53*
X83242500Y-67987500D02*
X85150000Y-67987500D01*
D52*
X59975000Y-78500000D02*
X59989838Y-78514838D01*
%TO.N,/EXT_SPI_SS0*%
X58719838Y-79570162D02*
X58719838Y-82527500D01*
X58770000Y-79520000D02*
X58719838Y-79570162D01*
%TO.N,/EXT_SPI_SS1*%
X69540000Y-63785000D02*
X69540000Y-62607170D01*
X69525000Y-63800000D02*
X69540000Y-63785000D01*
D53*
X69525000Y-65700000D02*
X69575000Y-65750000D01*
X83000000Y-67150000D02*
X82820000Y-66970000D01*
X84312500Y-67150000D02*
X83000000Y-67150000D01*
D52*
X63799838Y-78269838D02*
X63799838Y-82527500D01*
X62879520Y-77349520D02*
X63799838Y-78269838D01*
X58875000Y-64000000D02*
X58875000Y-61612500D01*
X58875000Y-68025000D02*
X62879520Y-72029520D01*
D53*
X69540000Y-61400000D02*
X69540000Y-62607170D01*
D52*
X58875000Y-64000000D02*
X58875000Y-68025000D01*
D53*
X69525000Y-63800000D02*
X69525000Y-65700000D01*
D52*
X62879520Y-72029520D02*
X62879520Y-77349520D01*
D54*
%TO.N,Net-(D4-Pad1)*%
X35825000Y-74425000D02*
X26900000Y-74425000D01*
X36125000Y-74725000D02*
X35825000Y-74425000D01*
X25950000Y-75375000D02*
X25950000Y-78225000D01*
X26900000Y-74425000D02*
X25950000Y-75375000D01*
D52*
%TO.N,/5V_EN*%
X85950000Y-66910000D02*
X85950000Y-67987500D01*
D53*
X27225000Y-62500000D02*
X27225000Y-63350000D01*
X28499999Y-62410000D02*
X27315000Y-62410000D01*
X54925000Y-67875000D02*
X54925000Y-69425000D01*
D52*
X81500000Y-72200000D02*
X81580000Y-72280000D01*
D53*
X27315000Y-62410000D02*
X27225000Y-62500000D01*
D52*
X81580000Y-72280000D02*
X86470000Y-72280000D01*
X86360000Y-66500000D02*
X85950000Y-66910000D01*
%TO.N,/VBAT_SENSE*%
X87070000Y-72510000D02*
X87070000Y-72280000D01*
D53*
X88750000Y-67987500D02*
X88750000Y-67000000D01*
X88750000Y-67000000D02*
X88275000Y-66525000D01*
D52*
X82025000Y-72775000D02*
X86805000Y-72775000D01*
X86350000Y-67215000D02*
X87040000Y-66525000D01*
D53*
X88275000Y-66525000D02*
X87175000Y-66525000D01*
D52*
X86350000Y-67987500D02*
X86350000Y-67215000D01*
D53*
X54400000Y-67775000D02*
X53150000Y-69025000D01*
X38225000Y-64200000D02*
X39350000Y-64200000D01*
D54*
X38225000Y-63062500D02*
X38225000Y-64200000D01*
X38225000Y-65350000D02*
X38225000Y-64200000D01*
D53*
X54400000Y-65900000D02*
X54400000Y-67775000D01*
D52*
X82010000Y-72760000D02*
X82025000Y-72775000D01*
X87040000Y-66525000D02*
X87175000Y-66525000D01*
X86805000Y-72775000D02*
X87070000Y-72510000D01*
D53*
%TO.N,/GPO_10*%
X87900000Y-69300000D02*
X87550000Y-68950000D01*
X86300000Y-85740000D02*
X89950000Y-85740000D01*
X86290000Y-85750000D02*
X86300000Y-85740000D01*
X87550000Y-68950000D02*
X87550000Y-68127500D01*
%TO.N,/DRV_SLEEP*%
X93810000Y-88320000D02*
X93890000Y-88240000D01*
X88390000Y-69150000D02*
X88390000Y-70200000D01*
X87030000Y-88320000D02*
X93810000Y-88320000D01*
X87950000Y-67987500D02*
X87950000Y-68710000D01*
X87950000Y-68710000D02*
X88230000Y-68990000D01*
X88230000Y-68990000D02*
X88390000Y-69150000D01*
X88390000Y-70200000D02*
X88400000Y-70210000D01*
D52*
%TO.N,Net-(C27-Pad1)*%
X94385295Y-82968243D02*
X94385295Y-85967795D01*
X94385295Y-85967795D02*
X95262500Y-86845000D01*
D54*
%TO.N,Net-(C29-Pad1)*%
X88720000Y-73230000D02*
X88720000Y-72971072D01*
X88916072Y-72775000D02*
X89707500Y-72775000D01*
X88720000Y-72971072D02*
X88916072Y-72775000D01*
%TO.N,Net-(C29-Pad2)*%
X91782500Y-73827500D02*
X91782500Y-72775000D01*
D55*
X86175000Y-82075000D02*
X84835000Y-82075000D01*
X84835000Y-82075000D02*
X84830000Y-82070000D01*
D54*
X88720000Y-74030000D02*
X88650000Y-74100000D01*
X94500000Y-74340000D02*
X92295000Y-74340000D01*
X95767500Y-74467500D02*
X95767500Y-74985000D01*
D55*
X84830000Y-82070000D02*
X84830000Y-78280000D01*
D54*
X94500000Y-74340000D02*
X95640000Y-74340000D01*
X95640000Y-74340000D02*
X95767500Y-74467500D01*
X88650000Y-74100000D02*
X88650000Y-74930000D01*
X92295000Y-74340000D02*
X91782500Y-73827500D01*
%TO.N,/CP1*%
X86510000Y-74670000D02*
X84687500Y-74670000D01*
X86720000Y-74230000D02*
X86720000Y-74460000D01*
X86720000Y-74460000D02*
X86510000Y-74670000D01*
X84687500Y-74670000D02*
X84505000Y-74487500D01*
%TO.N,/CP2*%
X86845480Y-75434520D02*
X84275480Y-75434520D01*
X84275480Y-75434520D02*
X83995000Y-75715000D01*
X87520000Y-74760000D02*
X86845480Y-75434520D01*
X87520000Y-74230000D02*
X87520000Y-74760000D01*
X83995000Y-75715000D02*
X83995000Y-76572500D01*
%TD*%
%TA.AperFunction,Conductor*%
%TO.N,+5V*%
G36*
X29502565Y-59450001D02*
G01*
X30254381Y-59450001D01*
X30322502Y-59470003D01*
X30335044Y-59479205D01*
X30854663Y-59912219D01*
X30894190Y-59971195D01*
X30900000Y-60009015D01*
X30900000Y-66450000D01*
X30907766Y-66458334D01*
X30907766Y-66458335D01*
X31109659Y-66675000D01*
X31925000Y-67550000D01*
X32374028Y-67550000D01*
X32380390Y-67550250D01*
X32380392Y-67550209D01*
X32382881Y-67550307D01*
X32385337Y-67550500D01*
X32438016Y-67550500D01*
X32442962Y-67550597D01*
X32499994Y-67552838D01*
X32507100Y-67550954D01*
X32515347Y-67550500D01*
X37347963Y-67550500D01*
X37416084Y-67570502D01*
X37462577Y-67624158D01*
X37473959Y-67677529D01*
X37426020Y-73550029D01*
X37405462Y-73617984D01*
X37351429Y-73664037D01*
X37300024Y-73675000D01*
X31250431Y-73675000D01*
X31182310Y-73654998D01*
X31135817Y-73601342D01*
X31124432Y-73549570D01*
X31100082Y-68168114D01*
X31100000Y-68150000D01*
X29710949Y-66712210D01*
X29678003Y-66649321D01*
X29675575Y-66623264D01*
X29699996Y-64425392D01*
X29699996Y-64425331D01*
X29700000Y-64425000D01*
X29700000Y-62947870D01*
X29720002Y-62879749D01*
X29735357Y-62860696D01*
X29744551Y-62854552D01*
X29764636Y-62824494D01*
X29781973Y-62798547D01*
X29788866Y-62788231D01*
X29793214Y-62766375D01*
X29799292Y-62735816D01*
X29800499Y-62729748D01*
X29800499Y-62090252D01*
X29788866Y-62031769D01*
X29744551Y-61965448D01*
X29736143Y-61959830D01*
X29702880Y-61898916D01*
X29700000Y-61872130D01*
X29700000Y-61677870D01*
X29720002Y-61609749D01*
X29735357Y-61590696D01*
X29744551Y-61584552D01*
X29753941Y-61570500D01*
X29781973Y-61528547D01*
X29788866Y-61518231D01*
X29800499Y-61459748D01*
X29800499Y-60820252D01*
X29788866Y-60761769D01*
X29744551Y-60695448D01*
X29736143Y-60689830D01*
X29702880Y-60628916D01*
X29700000Y-60602130D01*
X29700000Y-60200000D01*
X27426000Y-60200000D01*
X27357879Y-60179998D01*
X27311386Y-60126342D01*
X27300000Y-60074000D01*
X27300000Y-59576000D01*
X27320002Y-59507879D01*
X27373658Y-59461386D01*
X27426000Y-59450000D01*
X29502565Y-59450001D01*
G37*
%TD.AperFunction*%
%TD*%
%TA.AperFunction,Conductor*%
%TO.N,+3V3*%
G36*
X29527565Y-76575001D02*
G01*
X30279381Y-76575001D01*
X30347502Y-76595003D01*
X30360044Y-76604205D01*
X30879663Y-77037219D01*
X30919190Y-77096195D01*
X30925000Y-77134015D01*
X30925000Y-82150000D01*
X32849000Y-82150000D01*
X32917121Y-82170002D01*
X32963614Y-82223658D01*
X32975000Y-82276000D01*
X32975000Y-83575001D01*
X33411882Y-83575001D01*
X37349000Y-83575000D01*
X37417121Y-83595002D01*
X37463614Y-83648658D01*
X37475000Y-83701000D01*
X37475000Y-91838696D01*
X37454998Y-91906817D01*
X37401342Y-91953310D01*
X37348749Y-91964696D01*
X31245706Y-91952489D01*
X31177627Y-91932351D01*
X31131242Y-91878603D01*
X31119961Y-91826858D01*
X31100053Y-85018118D01*
X31100000Y-85000000D01*
X29768151Y-83837659D01*
X29729979Y-83777797D01*
X29725000Y-83742727D01*
X29725000Y-77325000D01*
X27451000Y-77325000D01*
X27382879Y-77304998D01*
X27336386Y-77251342D01*
X27325000Y-77199000D01*
X27325000Y-76701000D01*
X27345002Y-76632879D01*
X27398658Y-76586386D01*
X27451000Y-76575000D01*
X29527565Y-76575001D01*
G37*
%TD.AperFunction*%
%TD*%
%TA.AperFunction,Conductor*%
%TO.N,Net-(D4-Pad1)*%
G36*
X29467121Y-77595002D02*
G01*
X29513614Y-77648658D01*
X29525000Y-77701000D01*
X29525000Y-78853500D01*
X29504998Y-78921621D01*
X29451342Y-78968114D01*
X29399000Y-78979500D01*
X27380252Y-78979500D01*
X27321769Y-78991133D01*
X27311450Y-78998028D01*
X27302864Y-79003765D01*
X27232862Y-79025000D01*
X26775000Y-79025000D01*
X26775000Y-83825000D01*
X29227541Y-83849525D01*
X29295457Y-83870208D01*
X29310353Y-83881670D01*
X30433233Y-84887584D01*
X30470626Y-84947935D01*
X30475159Y-84981076D01*
X30494545Y-91824378D01*
X30474736Y-91892555D01*
X30421213Y-91939200D01*
X30368295Y-91950735D01*
X27812664Y-91945623D01*
X25049075Y-91940096D01*
X25029943Y-91938596D01*
X25015045Y-91936276D01*
X25015040Y-91936276D01*
X25006171Y-91934895D01*
X24997267Y-91936059D01*
X24995611Y-91936039D01*
X24967113Y-91936293D01*
X24902845Y-91929052D01*
X24875337Y-91922773D01*
X24796460Y-91895173D01*
X24771039Y-91882931D01*
X24700275Y-91838467D01*
X24678216Y-91820875D01*
X24619125Y-91761784D01*
X24601533Y-91739725D01*
X24557069Y-91668961D01*
X24544827Y-91643540D01*
X24517227Y-91564663D01*
X24510948Y-91537157D01*
X24504404Y-91479082D01*
X24503621Y-91463435D01*
X24503723Y-91455045D01*
X24505105Y-91446171D01*
X24501065Y-91415275D01*
X24500001Y-91398938D01*
X24500001Y-77701000D01*
X24520003Y-77632879D01*
X24573659Y-77586386D01*
X24626001Y-77575000D01*
X29399000Y-77575000D01*
X29467121Y-77595002D01*
G37*
%TD.AperFunction*%
%TD*%
%TA.AperFunction,Conductor*%
%TO.N,GND*%
G36*
X67156013Y-70851766D02*
G01*
X67491754Y-70886499D01*
X67505629Y-70888722D01*
X67835420Y-70960627D01*
X67848960Y-70964381D01*
X67881186Y-70975285D01*
X68168692Y-71072566D01*
X68181732Y-71077806D01*
X68487417Y-71220917D01*
X68499793Y-71227576D01*
X68787653Y-71403847D01*
X68799201Y-71411837D01*
X69065647Y-71619071D01*
X69076232Y-71628297D01*
X69317933Y-71863905D01*
X69327433Y-71874260D01*
X69541388Y-72135312D01*
X69549677Y-72146661D01*
X69733237Y-72429927D01*
X69740210Y-72442129D01*
X69891083Y-72744072D01*
X69896653Y-72756974D01*
X70012960Y-73073832D01*
X70017053Y-73087251D01*
X70097360Y-73415124D01*
X70099934Y-73428928D01*
X70143225Y-73763670D01*
X70144248Y-73777681D01*
X70147459Y-73966332D01*
X70149992Y-74115179D01*
X70149447Y-74129222D01*
X70118229Y-74458333D01*
X70117573Y-74465245D01*
X70115469Y-74479133D01*
X70046371Y-74809531D01*
X70042733Y-74823099D01*
X70020906Y-74889462D01*
X69937276Y-75143734D01*
X69932150Y-75156813D01*
X69902378Y-75221841D01*
X69791637Y-75463720D01*
X69785083Y-75476152D01*
X69611273Y-75765494D01*
X69603378Y-75777116D01*
X69397896Y-76045998D01*
X69389959Y-76055395D01*
X69274263Y-76179502D01*
X69277141Y-77070778D01*
X69299592Y-84023593D01*
X69279810Y-84091778D01*
X69226305Y-84138444D01*
X69173593Y-84150000D01*
X66026221Y-84150000D01*
X65958100Y-84129998D01*
X65911607Y-84076342D01*
X65900221Y-84023779D01*
X65912400Y-77070778D01*
X65912432Y-77052662D01*
X65752435Y-76988826D01*
X65741275Y-76983730D01*
X65436029Y-76825950D01*
X65423992Y-76818858D01*
X65138795Y-76628693D01*
X65127616Y-76620307D01*
X64865254Y-76399729D01*
X64855069Y-76390152D01*
X64618766Y-76141874D01*
X64609704Y-76131229D01*
X64548675Y-76050896D01*
X64402349Y-75858286D01*
X64394531Y-75846714D01*
X64349597Y-75771525D01*
X64218686Y-75552471D01*
X64212206Y-75540119D01*
X64070040Y-75228206D01*
X64064961Y-75215193D01*
X63958228Y-74889462D01*
X63954624Y-74875978D01*
X63884631Y-74540407D01*
X63882543Y-74526599D01*
X63876064Y-74458333D01*
X63875500Y-74446428D01*
X63875500Y-73625305D01*
X63876284Y-73611273D01*
X63890796Y-73481769D01*
X63893137Y-73467913D01*
X63903569Y-73421951D01*
X63967847Y-73138742D01*
X63971712Y-73125247D01*
X64082614Y-72806445D01*
X64087964Y-72793451D01*
X64233679Y-72488978D01*
X64240437Y-72476671D01*
X64419150Y-72190323D01*
X64427237Y-72178844D01*
X64452711Y-72146661D01*
X64636732Y-71914171D01*
X64646044Y-71903667D01*
X64883709Y-71663971D01*
X64894142Y-71654562D01*
X64938216Y-71619063D01*
X65157013Y-71442831D01*
X65168431Y-71434641D01*
X65453249Y-71253497D01*
X65465495Y-71246636D01*
X65768726Y-71098331D01*
X65781644Y-71092883D01*
X66099512Y-70979265D01*
X66112975Y-70975285D01*
X66441494Y-70897778D01*
X66455330Y-70895319D01*
X66714233Y-70864073D01*
X66790434Y-70854877D01*
X66804455Y-70853974D01*
X66980722Y-70852474D01*
X67141975Y-70851102D01*
X67156013Y-70851766D01*
G37*
%TD.AperFunction*%
%TD*%
%TA.AperFunction,Conductor*%
%TO.N,+5V*%
G36*
X76917121Y-84545002D02*
G01*
X76963614Y-84598658D01*
X76975000Y-84651000D01*
X76975000Y-91374000D01*
X76954998Y-91442121D01*
X76901342Y-91488614D01*
X76849000Y-91500000D01*
X74858350Y-91500000D01*
X74790229Y-91479998D01*
X74743736Y-91426342D01*
X74732350Y-91373675D01*
X74749676Y-84650675D01*
X74769854Y-84582606D01*
X74823629Y-84536252D01*
X74875676Y-84525000D01*
X76849000Y-84525000D01*
X76917121Y-84545002D01*
G37*
%TD.AperFunction*%
%TD*%
%TA.AperFunction,Conductor*%
%TO.N,Net-(D1-Pad1)*%
G36*
X29392121Y-60570002D02*
G01*
X29438614Y-60623658D01*
X29450000Y-60676000D01*
X29450000Y-61674000D01*
X29429998Y-61742121D01*
X29376342Y-61788614D01*
X29324000Y-61800000D01*
X26550000Y-61800000D01*
X26550000Y-66500000D01*
X28997810Y-66500000D01*
X29065931Y-66520002D01*
X29086905Y-66536905D01*
X30212874Y-67662874D01*
X30246900Y-67725186D01*
X30249778Y-67752501D01*
X30225529Y-73499532D01*
X30205240Y-73567567D01*
X30151388Y-73613833D01*
X30099530Y-73625000D01*
X24626001Y-73625000D01*
X24557880Y-73604998D01*
X24511387Y-73551342D01*
X24500001Y-73499000D01*
X24500000Y-60676000D01*
X24520002Y-60607879D01*
X24573658Y-60561386D01*
X24626000Y-60550000D01*
X29324000Y-60550000D01*
X29392121Y-60570002D01*
G37*
%TD.AperFunction*%
%TD*%
%TA.AperFunction,Conductor*%
%TO.N,/EXT_12V*%
G36*
X32274000Y-74975001D02*
G01*
X32342121Y-74995003D01*
X32388614Y-75048659D01*
X32400000Y-75101001D01*
X32400000Y-75345174D01*
X32399833Y-75348578D01*
X32399500Y-75350252D01*
X32399500Y-75989748D01*
X32399833Y-75991422D01*
X32400000Y-75994826D01*
X32400000Y-76615174D01*
X32399833Y-76618578D01*
X32399500Y-76620252D01*
X32399500Y-77259748D01*
X32399833Y-77261422D01*
X32400000Y-77264826D01*
X32400000Y-77885174D01*
X32399833Y-77888578D01*
X32399500Y-77890252D01*
X32399500Y-78529748D01*
X32399833Y-78531422D01*
X32400000Y-78534826D01*
X32400000Y-79155174D01*
X32399833Y-79158578D01*
X32399500Y-79160252D01*
X32399500Y-79799748D01*
X32399833Y-79801422D01*
X32400000Y-79804826D01*
X32400000Y-81074999D01*
X32770640Y-81074999D01*
X32838761Y-81095001D01*
X32885254Y-81148657D01*
X32896596Y-81204313D01*
X32880202Y-81827314D01*
X32858415Y-81894885D01*
X32803555Y-81939951D01*
X32754246Y-81950000D01*
X31274938Y-81950000D01*
X31206817Y-81929998D01*
X31160324Y-81876342D01*
X31150220Y-81806068D01*
X31156055Y-81782252D01*
X31169974Y-81742616D01*
X31172519Y-81735369D01*
X31175500Y-81703834D01*
X31175500Y-80646166D01*
X31172519Y-80614631D01*
X31132117Y-80499582D01*
X31125000Y-80457834D01*
X31125000Y-77134015D01*
X31122681Y-77103647D01*
X31116871Y-77065827D01*
X31085327Y-76984846D01*
X31045800Y-76925870D01*
X31007700Y-76883574D01*
X31004248Y-76880698D01*
X31001002Y-76877574D01*
X31001222Y-76877345D01*
X31000006Y-76876166D01*
X31000000Y-76874999D01*
X30992732Y-76868942D01*
X30413915Y-76386596D01*
X30413913Y-76386595D01*
X30399999Y-76375000D01*
X30104312Y-76375000D01*
X27326000Y-76374999D01*
X27257879Y-76354997D01*
X27211386Y-76301341D01*
X27200000Y-76248999D01*
X27200000Y-75101000D01*
X27220002Y-75032879D01*
X27273658Y-74986386D01*
X27326000Y-74975000D01*
X29750000Y-74974999D01*
X32274000Y-74975001D01*
G37*
%TD.AperFunction*%
%TD*%
%TA.AperFunction,Conductor*%
%TO.N,GND*%
G36*
X95822121Y-76430002D02*
G01*
X95868614Y-76483658D01*
X95880000Y-76536000D01*
X95880000Y-78957484D01*
X95859998Y-79025605D01*
X95843095Y-79046579D01*
X95413785Y-79475889D01*
X95405681Y-79483316D01*
X95376806Y-79507545D01*
X95371293Y-79517094D01*
X95357961Y-79540185D01*
X95352055Y-79549456D01*
X95330446Y-79580316D01*
X95327592Y-79590966D01*
X95326115Y-79594134D01*
X95324923Y-79597410D01*
X95319412Y-79606955D01*
X95313462Y-79640699D01*
X95312870Y-79644058D01*
X95310492Y-79654785D01*
X95300736Y-79691193D01*
X95301697Y-79702178D01*
X95301697Y-79702180D01*
X95304020Y-79728728D01*
X95304500Y-79739710D01*
X95304500Y-79994000D01*
X95284498Y-80062121D01*
X95230842Y-80108614D01*
X95178500Y-80120000D01*
X92990000Y-80120000D01*
X92990000Y-83434000D01*
X92969998Y-83502121D01*
X92916342Y-83548614D01*
X92864000Y-83560000D01*
X89186366Y-83560000D01*
X89118245Y-83539998D01*
X89071752Y-83486342D01*
X89060367Y-83433633D01*
X89060649Y-83336813D01*
X89062199Y-83317470D01*
X89079253Y-83209794D01*
X89079253Y-83209793D01*
X89080804Y-83200000D01*
X89062982Y-83087475D01*
X89061432Y-83067400D01*
X89069947Y-80138116D01*
X89070000Y-80120000D01*
X86076000Y-80120000D01*
X86007879Y-80099998D01*
X85961386Y-80046342D01*
X85950000Y-79994000D01*
X85950000Y-76610540D01*
X85970002Y-76542419D01*
X86023658Y-76495926D01*
X86076000Y-76484540D01*
X87531740Y-76484540D01*
X87546549Y-76485413D01*
X87580270Y-76489404D01*
X87589534Y-76487712D01*
X87589535Y-76487712D01*
X87637961Y-76478868D01*
X87641864Y-76478218D01*
X87690605Y-76470890D01*
X87690606Y-76470890D01*
X87699922Y-76469489D01*
X87706435Y-76466361D01*
X87713533Y-76465065D01*
X87765607Y-76438015D01*
X87769071Y-76436284D01*
X87797952Y-76422416D01*
X87852491Y-76410000D01*
X95754000Y-76410000D01*
X95822121Y-76430002D01*
G37*
%TD.AperFunction*%
%TD*%
%TA.AperFunction,Conductor*%
%TO.N,/EXT_12V*%
G36*
X29792121Y-55520002D02*
G01*
X29838614Y-55573658D01*
X29850000Y-55626000D01*
X29850000Y-57900000D01*
X30107275Y-57900000D01*
X32374000Y-57900002D01*
X32442121Y-57920004D01*
X32488614Y-57973660D01*
X32500000Y-58026002D01*
X32500000Y-58062128D01*
X32479998Y-58130249D01*
X32464642Y-58149304D01*
X32455447Y-58155448D01*
X32411132Y-58221769D01*
X32399499Y-58280252D01*
X32399499Y-58919748D01*
X32411132Y-58978231D01*
X32455447Y-59044552D01*
X32463856Y-59050171D01*
X32497120Y-59111086D01*
X32500000Y-59137872D01*
X32500000Y-59332128D01*
X32479998Y-59400249D01*
X32464642Y-59419304D01*
X32455447Y-59425448D01*
X32411132Y-59491769D01*
X32399499Y-59550252D01*
X32399499Y-60189748D01*
X32411132Y-60248231D01*
X32455447Y-60314552D01*
X32463856Y-60320171D01*
X32497120Y-60381086D01*
X32500000Y-60407872D01*
X32500000Y-60602128D01*
X32479998Y-60670249D01*
X32464642Y-60689304D01*
X32455447Y-60695448D01*
X32411132Y-60761769D01*
X32399499Y-60820252D01*
X32399499Y-61459748D01*
X32411132Y-61518231D01*
X32455447Y-61584552D01*
X32463856Y-61590171D01*
X32497120Y-61651086D01*
X32500000Y-61677872D01*
X32500000Y-61872128D01*
X32479998Y-61940249D01*
X32464642Y-61959304D01*
X32455447Y-61965448D01*
X32411132Y-62031769D01*
X32399499Y-62090252D01*
X32399499Y-62729748D01*
X32411132Y-62788231D01*
X32418025Y-62798547D01*
X32435363Y-62824494D01*
X32455447Y-62854552D01*
X32463856Y-62860171D01*
X32497120Y-62921086D01*
X32500000Y-62947872D01*
X32500000Y-64000000D01*
X32873999Y-64000000D01*
X32942120Y-64020002D01*
X32988613Y-64073658D01*
X32999999Y-64126000D01*
X33000000Y-67224000D01*
X32979998Y-67292121D01*
X32926342Y-67338614D01*
X32874000Y-67350000D01*
X32131920Y-67350000D01*
X32063799Y-67329998D01*
X32037375Y-67307290D01*
X31181089Y-66335290D01*
X31151068Y-66270953D01*
X31149638Y-66252969D01*
X31132874Y-64073658D01*
X31100000Y-59800000D01*
X30793020Y-59544184D01*
X30513915Y-59311597D01*
X30513913Y-59311596D01*
X30499999Y-59300001D01*
X30452578Y-59300001D01*
X30396720Y-59286943D01*
X30383758Y-59280532D01*
X30383755Y-59280531D01*
X30378848Y-59278104D01*
X30373595Y-59276562D01*
X30373591Y-59276560D01*
X30315050Y-59259371D01*
X30315046Y-59259370D01*
X30310727Y-59258102D01*
X30306279Y-59257462D01*
X30306272Y-59257461D01*
X30258829Y-59250640D01*
X30258822Y-59250640D01*
X30254381Y-59250001D01*
X29502565Y-59250001D01*
X27426000Y-59250000D01*
X27357879Y-59229998D01*
X27311386Y-59176342D01*
X27300000Y-59124000D01*
X27300000Y-55626000D01*
X27320002Y-55557879D01*
X27373658Y-55511386D01*
X27426000Y-55500000D01*
X29724000Y-55500000D01*
X29792121Y-55520002D01*
G37*
%TD.AperFunction*%
%TD*%
%TA.AperFunction,Conductor*%
%TO.N,/EXT_12V*%
G36*
X62917121Y-84545002D02*
G01*
X62963614Y-84598658D01*
X62975000Y-84651000D01*
X62975000Y-89900000D01*
X63174000Y-89900000D01*
X63242121Y-89920002D01*
X63288614Y-89973658D01*
X63300000Y-90026000D01*
X63300000Y-90298216D01*
X63290409Y-90346434D01*
X63239956Y-90468238D01*
X63219318Y-90625000D01*
X63239956Y-90781762D01*
X63243116Y-90789391D01*
X63290409Y-90903566D01*
X63300000Y-90951784D01*
X63300000Y-91374000D01*
X63279998Y-91442121D01*
X63226342Y-91488614D01*
X63174000Y-91500000D01*
X59676000Y-91500000D01*
X59607879Y-91479998D01*
X59561386Y-91426342D01*
X59550000Y-91374000D01*
X59550000Y-90026003D01*
X59570002Y-89957882D01*
X59623658Y-89911389D01*
X59676003Y-89900003D01*
X60689202Y-89900024D01*
X60707319Y-89900024D01*
X60724587Y-84650586D01*
X60744813Y-84582531D01*
X60798621Y-84536215D01*
X60850586Y-84525000D01*
X62849000Y-84525000D01*
X62917121Y-84545002D01*
G37*
%TD.AperFunction*%
%TD*%
%TA.AperFunction,Conductor*%
%TO.N,+3V3*%
G36*
X69242441Y-84520002D02*
G01*
X69288934Y-84573658D01*
X69300320Y-84625678D01*
X69317490Y-91373681D01*
X69297662Y-91441851D01*
X69244125Y-91488480D01*
X69191491Y-91500000D01*
X66008509Y-91500000D01*
X65940388Y-91479998D01*
X65893895Y-91426342D01*
X65882510Y-91373682D01*
X65899680Y-84625678D01*
X65919856Y-84557610D01*
X65973630Y-84511254D01*
X66025680Y-84500000D01*
X69174320Y-84500000D01*
X69242441Y-84520002D01*
G37*
%TD.AperFunction*%
%TD*%
%TA.AperFunction,NonConductor*%
G36*
X109442121Y-72520002D02*
G01*
X109488614Y-72573658D01*
X109500000Y-72626000D01*
X109500000Y-91874000D01*
X109479998Y-91942121D01*
X109426342Y-91988614D01*
X109374000Y-92000000D01*
X96637986Y-92000000D01*
X96569865Y-91979998D01*
X96523372Y-91926342D01*
X96511993Y-91872660D01*
X96515937Y-91502000D01*
X97808479Y-91502000D01*
X97872534Y-91502000D01*
X98874796Y-91502000D01*
X98938851Y-91502000D01*
X99941113Y-91502000D01*
X100005168Y-91502000D01*
X101007430Y-91502000D01*
X101071485Y-91502000D01*
X102073747Y-91502000D01*
X102137802Y-91502000D01*
X103140063Y-91502000D01*
X103204119Y-91502000D01*
X104206380Y-91502000D01*
X104270436Y-91502000D01*
X105272697Y-91502000D01*
X105336753Y-91502000D01*
X106339014Y-91502000D01*
X106403070Y-91502000D01*
X107405331Y-91502000D01*
X107469387Y-91502000D01*
X108471648Y-91502000D01*
X108535704Y-91502000D01*
X108503676Y-91469972D01*
X108471648Y-91502000D01*
X107469387Y-91502000D01*
X107437359Y-91469972D01*
X107405331Y-91502000D01*
X106403070Y-91502000D01*
X106371042Y-91469972D01*
X106339014Y-91502000D01*
X105336753Y-91502000D01*
X105304725Y-91469972D01*
X105272697Y-91502000D01*
X104270436Y-91502000D01*
X104238408Y-91469972D01*
X104206380Y-91502000D01*
X103204119Y-91502000D01*
X103172091Y-91469972D01*
X103140063Y-91502000D01*
X102137802Y-91502000D01*
X102105774Y-91469972D01*
X102073747Y-91502000D01*
X101071485Y-91502000D01*
X101039457Y-91469972D01*
X101007430Y-91502000D01*
X100005168Y-91502000D01*
X99973140Y-91469972D01*
X99941113Y-91502000D01*
X98938851Y-91502000D01*
X98906823Y-91469972D01*
X98874796Y-91502000D01*
X97872534Y-91502000D01*
X97840506Y-91469972D01*
X97808479Y-91502000D01*
X96515937Y-91502000D01*
X96518098Y-91298854D01*
X96519816Y-91137358D01*
X97145851Y-91137358D01*
X97307347Y-91298854D01*
X97488367Y-91117834D01*
X98192644Y-91117834D01*
X98373664Y-91298854D01*
X98554684Y-91117834D01*
X99258961Y-91117834D01*
X99439981Y-91298854D01*
X99621001Y-91117834D01*
X100325278Y-91117834D01*
X100506298Y-91298854D01*
X100687318Y-91117834D01*
X101391595Y-91117834D01*
X101572615Y-91298854D01*
X101753635Y-91117834D01*
X102457912Y-91117834D01*
X102638932Y-91298854D01*
X102819952Y-91117834D01*
X103524229Y-91117834D01*
X103705249Y-91298854D01*
X103886268Y-91117834D01*
X104590546Y-91117834D01*
X104771566Y-91298854D01*
X104952585Y-91117834D01*
X105656863Y-91117834D01*
X105837883Y-91298854D01*
X106018902Y-91117834D01*
X106723180Y-91117834D01*
X106904200Y-91298854D01*
X107085219Y-91117834D01*
X107789497Y-91117834D01*
X107970517Y-91298854D01*
X108151536Y-91117834D01*
X108855814Y-91117834D01*
X109002000Y-91264020D01*
X109002000Y-90971648D01*
X108855814Y-91117834D01*
X108151536Y-91117834D01*
X108151537Y-91117833D01*
X107970518Y-90936814D01*
X107789497Y-91117834D01*
X107085219Y-91117834D01*
X107085220Y-91117833D01*
X106904201Y-90936814D01*
X106723180Y-91117834D01*
X106018902Y-91117834D01*
X106018903Y-91117833D01*
X105837884Y-90936814D01*
X105656863Y-91117834D01*
X104952585Y-91117834D01*
X104952586Y-91117833D01*
X104771567Y-90936814D01*
X104590546Y-91117834D01*
X103886268Y-91117834D01*
X103886269Y-91117833D01*
X103705250Y-90936814D01*
X103524229Y-91117834D01*
X102819952Y-91117834D01*
X102638932Y-90936814D01*
X102457912Y-91117834D01*
X101753635Y-91117834D01*
X101572615Y-90936814D01*
X101391595Y-91117834D01*
X100687318Y-91117834D01*
X100506298Y-90936814D01*
X100325278Y-91117834D01*
X99621001Y-91117834D01*
X99439981Y-90936814D01*
X99258961Y-91117834D01*
X98554684Y-91117834D01*
X98373664Y-90936814D01*
X98192644Y-91117834D01*
X97488367Y-91117834D01*
X97307347Y-90936814D01*
X97146271Y-91097891D01*
X97145851Y-91137358D01*
X96519816Y-91137358D01*
X96525695Y-90584675D01*
X97659486Y-90584675D01*
X97840506Y-90765695D01*
X98021526Y-90584675D01*
X98725803Y-90584675D01*
X98906823Y-90765695D01*
X99087843Y-90584675D01*
X99792120Y-90584675D01*
X99973140Y-90765695D01*
X100154160Y-90584675D01*
X100858437Y-90584675D01*
X101039457Y-90765695D01*
X101220477Y-90584675D01*
X101924754Y-90584675D01*
X102105774Y-90765695D01*
X102286794Y-90584675D01*
X102991071Y-90584675D01*
X103172091Y-90765695D01*
X103353111Y-90584675D01*
X104057388Y-90584675D01*
X104238408Y-90765695D01*
X104419428Y-90584675D01*
X105123705Y-90584675D01*
X105304725Y-90765695D01*
X105485745Y-90584675D01*
X106190022Y-90584675D01*
X106371042Y-90765695D01*
X106552062Y-90584675D01*
X107256339Y-90584675D01*
X107437359Y-90765695D01*
X107618379Y-90584675D01*
X108322656Y-90584675D01*
X108503676Y-90765695D01*
X108684696Y-90584675D01*
X108503676Y-90403655D01*
X108322656Y-90584675D01*
X107618379Y-90584675D01*
X107437359Y-90403655D01*
X107256339Y-90584675D01*
X106552062Y-90584675D01*
X106371042Y-90403655D01*
X106190022Y-90584675D01*
X105485745Y-90584675D01*
X105304725Y-90403655D01*
X105123705Y-90584675D01*
X104419428Y-90584675D01*
X104238408Y-90403655D01*
X104057388Y-90584675D01*
X103353111Y-90584675D01*
X103172091Y-90403655D01*
X102991071Y-90584675D01*
X102286794Y-90584675D01*
X102105774Y-90403655D01*
X101924754Y-90584675D01*
X101220477Y-90584675D01*
X101039457Y-90403655D01*
X100858437Y-90584675D01*
X100154160Y-90584675D01*
X99973140Y-90403655D01*
X99792120Y-90584675D01*
X99087843Y-90584675D01*
X98906823Y-90403655D01*
X98725803Y-90584675D01*
X98021526Y-90584675D01*
X97840506Y-90403655D01*
X97659486Y-90584675D01*
X96525695Y-90584675D01*
X96531040Y-90082265D01*
X97157075Y-90082265D01*
X97307347Y-90232537D01*
X97488367Y-90051517D01*
X98192644Y-90051517D01*
X98373664Y-90232537D01*
X98554684Y-90051517D01*
X99258961Y-90051517D01*
X99439981Y-90232537D01*
X99621001Y-90051517D01*
X100325278Y-90051517D01*
X100506298Y-90232537D01*
X100687318Y-90051517D01*
X101391595Y-90051517D01*
X101572615Y-90232537D01*
X101753635Y-90051517D01*
X102457912Y-90051517D01*
X102638932Y-90232537D01*
X102819952Y-90051517D01*
X103524229Y-90051517D01*
X103705249Y-90232537D01*
X103886268Y-90051517D01*
X104590546Y-90051517D01*
X104771566Y-90232537D01*
X104952585Y-90051517D01*
X105656863Y-90051517D01*
X105837883Y-90232537D01*
X106018902Y-90051517D01*
X106723180Y-90051517D01*
X106904200Y-90232537D01*
X107085219Y-90051517D01*
X107789497Y-90051517D01*
X107970517Y-90232537D01*
X108151536Y-90051517D01*
X108855814Y-90051517D01*
X109002000Y-90197703D01*
X109002000Y-89905331D01*
X108855814Y-90051517D01*
X108151536Y-90051517D01*
X108151537Y-90051516D01*
X107970518Y-89870497D01*
X107789497Y-90051517D01*
X107085219Y-90051517D01*
X107085220Y-90051516D01*
X106904201Y-89870497D01*
X106723180Y-90051517D01*
X106018902Y-90051517D01*
X106018903Y-90051516D01*
X105837884Y-89870497D01*
X105656863Y-90051517D01*
X104952585Y-90051517D01*
X104952586Y-90051516D01*
X104771567Y-89870497D01*
X104590546Y-90051517D01*
X103886268Y-90051517D01*
X103886269Y-90051516D01*
X103705250Y-89870497D01*
X103524229Y-90051517D01*
X102819952Y-90051517D01*
X102638932Y-89870497D01*
X102457912Y-90051517D01*
X101753635Y-90051517D01*
X101572615Y-89870497D01*
X101391595Y-90051517D01*
X100687318Y-90051517D01*
X100506298Y-89870497D01*
X100325278Y-90051517D01*
X99621001Y-90051517D01*
X99439981Y-89870497D01*
X99258961Y-90051517D01*
X98554684Y-90051517D01*
X98373664Y-89870497D01*
X98192644Y-90051517D01*
X97488367Y-90051517D01*
X97307346Y-89870497D01*
X97157736Y-90020107D01*
X97157075Y-90082265D01*
X96531040Y-90082265D01*
X96537039Y-89518358D01*
X97659486Y-89518358D01*
X97840506Y-89699378D01*
X98021526Y-89518358D01*
X98725803Y-89518358D01*
X98906823Y-89699378D01*
X99087843Y-89518358D01*
X99792120Y-89518358D01*
X99973140Y-89699378D01*
X100154160Y-89518358D01*
X100858437Y-89518358D01*
X101039457Y-89699378D01*
X101220477Y-89518358D01*
X101924754Y-89518358D01*
X102105774Y-89699378D01*
X102286794Y-89518358D01*
X102991071Y-89518358D01*
X103172091Y-89699378D01*
X103353111Y-89518358D01*
X104057388Y-89518358D01*
X104238408Y-89699378D01*
X104419428Y-89518358D01*
X105123705Y-89518358D01*
X105304725Y-89699378D01*
X105485745Y-89518358D01*
X106190022Y-89518358D01*
X106371042Y-89699378D01*
X106552062Y-89518358D01*
X107256339Y-89518358D01*
X107437359Y-89699378D01*
X107618379Y-89518358D01*
X108322656Y-89518358D01*
X108503676Y-89699378D01*
X108684696Y-89518358D01*
X108503676Y-89337338D01*
X108322656Y-89518358D01*
X107618379Y-89518358D01*
X107437359Y-89337338D01*
X107256339Y-89518358D01*
X106552062Y-89518358D01*
X106371042Y-89337338D01*
X106190022Y-89518358D01*
X105485745Y-89518358D01*
X105304725Y-89337338D01*
X105123705Y-89518358D01*
X104419428Y-89518358D01*
X104238408Y-89337338D01*
X104057388Y-89518358D01*
X103353111Y-89518358D01*
X103172091Y-89337338D01*
X102991071Y-89518358D01*
X102286794Y-89518358D01*
X102105774Y-89337338D01*
X101924754Y-89518358D01*
X101220477Y-89518358D01*
X101039457Y-89337338D01*
X100858437Y-89518358D01*
X100154160Y-89518358D01*
X99973140Y-89337338D01*
X99792120Y-89518358D01*
X99087843Y-89518358D01*
X98906823Y-89337338D01*
X98725803Y-89518358D01*
X98021526Y-89518358D01*
X97840506Y-89337338D01*
X97659486Y-89518358D01*
X96537039Y-89518358D01*
X96542042Y-89048000D01*
X97189127Y-89048000D01*
X97307347Y-89166220D01*
X97425567Y-89048000D01*
X98255444Y-89048000D01*
X98373664Y-89166220D01*
X98491884Y-89048000D01*
X99321761Y-89048000D01*
X99439981Y-89166220D01*
X99558201Y-89048000D01*
X100388078Y-89048000D01*
X100506298Y-89166220D01*
X100624518Y-89048000D01*
X101454395Y-89048000D01*
X101572615Y-89166220D01*
X101690835Y-89048000D01*
X102520712Y-89048000D01*
X102638932Y-89166220D01*
X102757152Y-89048000D01*
X103587029Y-89048000D01*
X103705249Y-89166220D01*
X103823469Y-89048000D01*
X104653346Y-89048000D01*
X104771566Y-89166220D01*
X104926165Y-89011621D01*
X104922925Y-89012929D01*
X104854804Y-89032931D01*
X104837238Y-89036752D01*
X104767932Y-89046717D01*
X104750000Y-89048000D01*
X104653346Y-89048000D01*
X103823469Y-89048000D01*
X103587029Y-89048000D01*
X102757152Y-89048000D01*
X102520712Y-89048000D01*
X101690835Y-89048000D01*
X101454395Y-89048000D01*
X100624518Y-89048000D01*
X100388078Y-89048000D01*
X99558201Y-89048000D01*
X99321761Y-89048000D01*
X98491884Y-89048000D01*
X98255444Y-89048000D01*
X97425567Y-89048000D01*
X97189127Y-89048000D01*
X96542042Y-89048000D01*
X96542710Y-88985200D01*
X105656863Y-88985200D01*
X105837883Y-89166220D01*
X106018902Y-88985200D01*
X106723180Y-88985200D01*
X106904200Y-89166220D01*
X107085219Y-88985200D01*
X107789497Y-88985200D01*
X107970517Y-89166220D01*
X108151536Y-88985200D01*
X108855814Y-88985200D01*
X109002000Y-89131386D01*
X109002000Y-88839014D01*
X108855814Y-88985200D01*
X108151536Y-88985200D01*
X108151537Y-88985199D01*
X107970518Y-88804180D01*
X107789497Y-88985200D01*
X107085219Y-88985200D01*
X107085220Y-88985199D01*
X106904201Y-88804180D01*
X106723180Y-88985200D01*
X106018902Y-88985200D01*
X106018903Y-88985199D01*
X105837884Y-88804180D01*
X105656863Y-88985200D01*
X96542710Y-88985200D01*
X96546014Y-88674659D01*
X96565287Y-88611517D01*
X105283181Y-88611517D01*
X105304725Y-88633061D01*
X105485745Y-88452041D01*
X106190022Y-88452041D01*
X106371042Y-88633061D01*
X106552062Y-88452041D01*
X107256339Y-88452041D01*
X107437359Y-88633061D01*
X107618379Y-88452041D01*
X108322656Y-88452041D01*
X108503676Y-88633061D01*
X108684696Y-88452041D01*
X108503676Y-88271021D01*
X108322656Y-88452041D01*
X107618379Y-88452041D01*
X107437359Y-88271021D01*
X107256339Y-88452041D01*
X106552062Y-88452041D01*
X106371042Y-88271021D01*
X106190022Y-88452041D01*
X105485745Y-88452041D01*
X105370551Y-88336847D01*
X105335596Y-88515532D01*
X105316705Y-88561345D01*
X105283181Y-88611517D01*
X96565287Y-88611517D01*
X96566740Y-88606756D01*
X96620887Y-88560836D01*
X96672007Y-88550000D01*
X104750000Y-88550000D01*
X104753034Y-87918882D01*
X105656863Y-87918882D01*
X105837884Y-88099902D01*
X106018903Y-87918883D01*
X106018902Y-87918882D01*
X106723180Y-87918882D01*
X106904201Y-88099902D01*
X107085220Y-87918883D01*
X107085219Y-87918882D01*
X107789497Y-87918882D01*
X107970518Y-88099902D01*
X108151537Y-87918883D01*
X108151536Y-87918882D01*
X108855814Y-87918882D01*
X109002000Y-88065068D01*
X109002000Y-87772696D01*
X108855814Y-87918882D01*
X108151536Y-87918882D01*
X107970517Y-87737862D01*
X107789497Y-87918882D01*
X107085219Y-87918882D01*
X106904200Y-87737862D01*
X106723180Y-87918882D01*
X106018902Y-87918882D01*
X105837883Y-87737862D01*
X105656863Y-87918882D01*
X104753034Y-87918882D01*
X104755836Y-87336035D01*
X104756156Y-87269469D01*
X105369490Y-87269469D01*
X105370952Y-87500517D01*
X105485745Y-87385724D01*
X106190022Y-87385724D01*
X106371042Y-87566744D01*
X106552062Y-87385724D01*
X107256339Y-87385724D01*
X107437359Y-87566744D01*
X107618379Y-87385724D01*
X108322656Y-87385724D01*
X108503676Y-87566744D01*
X108684696Y-87385724D01*
X108503676Y-87204704D01*
X108322656Y-87385724D01*
X107618379Y-87385724D01*
X107437359Y-87204704D01*
X107256339Y-87385724D01*
X106552062Y-87385724D01*
X106371042Y-87204704D01*
X106190022Y-87385724D01*
X105485745Y-87385724D01*
X105369490Y-87269469D01*
X104756156Y-87269469D01*
X104758161Y-86852565D01*
X105656863Y-86852565D01*
X105837884Y-87033585D01*
X106018903Y-86852566D01*
X106018902Y-86852565D01*
X106723180Y-86852565D01*
X106904201Y-87033585D01*
X107085220Y-86852566D01*
X107085219Y-86852565D01*
X107789497Y-86852565D01*
X107970518Y-87033585D01*
X108151537Y-86852566D01*
X108151536Y-86852565D01*
X108855814Y-86852565D01*
X109002000Y-86998751D01*
X109002000Y-86706379D01*
X108855814Y-86852565D01*
X108151536Y-86852565D01*
X107970517Y-86671545D01*
X107789497Y-86852565D01*
X107085219Y-86852565D01*
X106904200Y-86671545D01*
X106723180Y-86852565D01*
X106018902Y-86852565D01*
X105837883Y-86671545D01*
X105656863Y-86852565D01*
X104758161Y-86852565D01*
X104758880Y-86703032D01*
X104779210Y-86635008D01*
X104795784Y-86614543D01*
X104886222Y-86524105D01*
X104894326Y-86516678D01*
X104914749Y-86499541D01*
X104923194Y-86492455D01*
X104942039Y-86459815D01*
X104947943Y-86450547D01*
X104963231Y-86428713D01*
X104969553Y-86419684D01*
X104972406Y-86409038D01*
X104973883Y-86405870D01*
X104975076Y-86402593D01*
X104980588Y-86393045D01*
X104987132Y-86355931D01*
X104989512Y-86345196D01*
X104996410Y-86319454D01*
X104996423Y-86319407D01*
X106190022Y-86319407D01*
X106371042Y-86500427D01*
X106552062Y-86319407D01*
X107256339Y-86319407D01*
X107437359Y-86500427D01*
X107618379Y-86319407D01*
X108322656Y-86319407D01*
X108503676Y-86500427D01*
X108684696Y-86319407D01*
X108503676Y-86138387D01*
X108322656Y-86319407D01*
X107618379Y-86319407D01*
X107437359Y-86138387D01*
X107256339Y-86319407D01*
X106552062Y-86319407D01*
X106371042Y-86138387D01*
X106190022Y-86319407D01*
X104996423Y-86319407D01*
X104999263Y-86308807D01*
X104995979Y-86271269D01*
X104995500Y-86260288D01*
X104995500Y-85786248D01*
X105656863Y-85786248D01*
X105837884Y-85967268D01*
X106018903Y-85786249D01*
X106018902Y-85786248D01*
X106723180Y-85786248D01*
X106904201Y-85967268D01*
X107085220Y-85786249D01*
X107085219Y-85786248D01*
X107789497Y-85786248D01*
X107970518Y-85967268D01*
X108151537Y-85786249D01*
X108151536Y-85786248D01*
X108855814Y-85786248D01*
X109002000Y-85932434D01*
X109002000Y-85640062D01*
X108855814Y-85786248D01*
X108151536Y-85786248D01*
X107970517Y-85605228D01*
X107789497Y-85786248D01*
X107085219Y-85786248D01*
X106904200Y-85605228D01*
X106723180Y-85786248D01*
X106018902Y-85786248D01*
X105837883Y-85605228D01*
X105656863Y-85786248D01*
X104995500Y-85786248D01*
X104995500Y-85253090D01*
X106190022Y-85253090D01*
X106371042Y-85434110D01*
X106552062Y-85253090D01*
X107256339Y-85253090D01*
X107437359Y-85434110D01*
X107618379Y-85253090D01*
X108322656Y-85253090D01*
X108503676Y-85434110D01*
X108684696Y-85253090D01*
X108503676Y-85072070D01*
X108322656Y-85253090D01*
X107618379Y-85253090D01*
X107437359Y-85072070D01*
X107256339Y-85253090D01*
X106552062Y-85253090D01*
X106371042Y-85072070D01*
X106190022Y-85253090D01*
X104995500Y-85253090D01*
X104995500Y-84719931D01*
X105656863Y-84719931D01*
X105837884Y-84900951D01*
X106018903Y-84719932D01*
X106018902Y-84719931D01*
X106723180Y-84719931D01*
X106904201Y-84900951D01*
X107085220Y-84719932D01*
X107085219Y-84719931D01*
X107789497Y-84719931D01*
X107970518Y-84900951D01*
X108151537Y-84719932D01*
X108151536Y-84719931D01*
X108855814Y-84719931D01*
X109002000Y-84866117D01*
X109002000Y-84573745D01*
X108855814Y-84719931D01*
X108151536Y-84719931D01*
X107970517Y-84538911D01*
X107789497Y-84719931D01*
X107085219Y-84719931D01*
X106904200Y-84538911D01*
X106723180Y-84719931D01*
X106018902Y-84719931D01*
X105837883Y-84538911D01*
X105656863Y-84719931D01*
X104995500Y-84719931D01*
X104995500Y-84719710D01*
X104995980Y-84708728D01*
X104998303Y-84682180D01*
X104998303Y-84682178D01*
X104999264Y-84671193D01*
X104989508Y-84634785D01*
X104987130Y-84624058D01*
X104986538Y-84620699D01*
X104980588Y-84586955D01*
X104975077Y-84577410D01*
X104973885Y-84574134D01*
X104972408Y-84570966D01*
X104969554Y-84560316D01*
X104947945Y-84529456D01*
X104942039Y-84520185D01*
X104928707Y-84497094D01*
X104923194Y-84487545D01*
X104894317Y-84463315D01*
X104886215Y-84455889D01*
X104807398Y-84377072D01*
X104773372Y-84314760D01*
X104770494Y-84287371D01*
X104771634Y-84050142D01*
X105349114Y-84050142D01*
X105350265Y-84231936D01*
X105354477Y-84238549D01*
X105365197Y-84257118D01*
X105377488Y-84274670D01*
X105383395Y-84283942D01*
X105385291Y-84287227D01*
X105485745Y-84186773D01*
X106190022Y-84186773D01*
X106371042Y-84367793D01*
X106552062Y-84186773D01*
X107256339Y-84186773D01*
X107437359Y-84367793D01*
X107618379Y-84186773D01*
X108322656Y-84186773D01*
X108503676Y-84367793D01*
X108684696Y-84186773D01*
X108503676Y-84005753D01*
X108322656Y-84186773D01*
X107618379Y-84186773D01*
X107437359Y-84005753D01*
X107256339Y-84186773D01*
X106552062Y-84186773D01*
X106371042Y-84005753D01*
X106190022Y-84186773D01*
X105485745Y-84186773D01*
X105349114Y-84050142D01*
X104771634Y-84050142D01*
X104773540Y-83653614D01*
X105656863Y-83653614D01*
X105837884Y-83834634D01*
X106018903Y-83653615D01*
X106018902Y-83653614D01*
X106723180Y-83653614D01*
X106904201Y-83834634D01*
X107085220Y-83653615D01*
X107085219Y-83653614D01*
X107789497Y-83653614D01*
X107970518Y-83834634D01*
X108151537Y-83653615D01*
X108151536Y-83653614D01*
X108855814Y-83653614D01*
X109002000Y-83799800D01*
X109002000Y-83507428D01*
X108855814Y-83653614D01*
X108151536Y-83653614D01*
X107970517Y-83472594D01*
X107789497Y-83653614D01*
X107085219Y-83653614D01*
X106904200Y-83472594D01*
X106723180Y-83653614D01*
X106018902Y-83653614D01*
X105837883Y-83472594D01*
X105656863Y-83653614D01*
X104773540Y-83653614D01*
X104776793Y-82977033D01*
X105342322Y-82977033D01*
X105344127Y-83262074D01*
X105485745Y-83120456D01*
X106190022Y-83120456D01*
X106371042Y-83301476D01*
X106552062Y-83120456D01*
X107256339Y-83120456D01*
X107437359Y-83301476D01*
X107618379Y-83120456D01*
X108322656Y-83120456D01*
X108503676Y-83301476D01*
X108684696Y-83120456D01*
X108503676Y-82939436D01*
X108322656Y-83120456D01*
X107618379Y-83120456D01*
X107437359Y-82939436D01*
X107256339Y-83120456D01*
X106552062Y-83120456D01*
X106371042Y-82939436D01*
X106190022Y-83120456D01*
X105485745Y-83120456D01*
X105342322Y-82977033D01*
X104776793Y-82977033D01*
X104778667Y-82587297D01*
X105656863Y-82587297D01*
X105837884Y-82768317D01*
X106018903Y-82587298D01*
X106018902Y-82587297D01*
X106723180Y-82587297D01*
X106904201Y-82768317D01*
X107085220Y-82587298D01*
X107085219Y-82587297D01*
X107789497Y-82587297D01*
X107970518Y-82768317D01*
X108151537Y-82587298D01*
X108151536Y-82587297D01*
X108855814Y-82587297D01*
X109002000Y-82733483D01*
X109002000Y-82441111D01*
X108855814Y-82587297D01*
X108151536Y-82587297D01*
X107970517Y-82406277D01*
X107789497Y-82587297D01*
X107085219Y-82587297D01*
X106904200Y-82406277D01*
X106723180Y-82587297D01*
X106018902Y-82587297D01*
X105837883Y-82406277D01*
X105656863Y-82587297D01*
X104778667Y-82587297D01*
X104781952Y-81903925D01*
X105335531Y-81903925D01*
X105337420Y-82202464D01*
X105485745Y-82054139D01*
X106190022Y-82054139D01*
X106371042Y-82235159D01*
X106552062Y-82054139D01*
X107256339Y-82054139D01*
X107437359Y-82235159D01*
X107618379Y-82054139D01*
X108322656Y-82054139D01*
X108503676Y-82235159D01*
X108684696Y-82054139D01*
X108503676Y-81873119D01*
X108322656Y-82054139D01*
X107618379Y-82054139D01*
X107437359Y-81873119D01*
X107256339Y-82054139D01*
X106552062Y-82054139D01*
X106371042Y-81873119D01*
X106190022Y-82054139D01*
X105485745Y-82054139D01*
X105335531Y-81903925D01*
X104781952Y-81903925D01*
X104783793Y-81520980D01*
X105656863Y-81520980D01*
X105837884Y-81702000D01*
X106018903Y-81520981D01*
X106018902Y-81520980D01*
X106723180Y-81520980D01*
X106904201Y-81702000D01*
X107085220Y-81520981D01*
X107085219Y-81520980D01*
X107789497Y-81520980D01*
X107970518Y-81702000D01*
X108151537Y-81520981D01*
X108151536Y-81520980D01*
X108855814Y-81520980D01*
X109002000Y-81667166D01*
X109002000Y-81374794D01*
X108855814Y-81520980D01*
X108151536Y-81520980D01*
X107970517Y-81339960D01*
X107789497Y-81520980D01*
X107085219Y-81520980D01*
X106904200Y-81339960D01*
X106723180Y-81520980D01*
X106018902Y-81520980D01*
X105837883Y-81339960D01*
X105656863Y-81520980D01*
X104783793Y-81520980D01*
X104787111Y-80830816D01*
X105328739Y-80830816D01*
X105330714Y-81142853D01*
X105485745Y-80987822D01*
X106190022Y-80987822D01*
X106371042Y-81168842D01*
X106552062Y-80987822D01*
X107256339Y-80987822D01*
X107437359Y-81168842D01*
X107618379Y-80987822D01*
X108322656Y-80987822D01*
X108503676Y-81168842D01*
X108684696Y-80987822D01*
X108503676Y-80806802D01*
X108322656Y-80987822D01*
X107618379Y-80987822D01*
X107437359Y-80806802D01*
X107256339Y-80987822D01*
X106552062Y-80987822D01*
X106371042Y-80806802D01*
X106190022Y-80987822D01*
X105485745Y-80987822D01*
X105328739Y-80830816D01*
X104787111Y-80830816D01*
X104788920Y-80454663D01*
X105656863Y-80454663D01*
X105837884Y-80635683D01*
X106018903Y-80454664D01*
X106018902Y-80454663D01*
X106723180Y-80454663D01*
X106904201Y-80635683D01*
X107085220Y-80454664D01*
X107085219Y-80454663D01*
X107789497Y-80454663D01*
X107970518Y-80635683D01*
X108151537Y-80454664D01*
X108151536Y-80454663D01*
X108855814Y-80454663D01*
X109002000Y-80600849D01*
X109002000Y-80308477D01*
X108855814Y-80454663D01*
X108151536Y-80454663D01*
X107970517Y-80273643D01*
X107789497Y-80454663D01*
X107085219Y-80454663D01*
X106904200Y-80273643D01*
X106723180Y-80454663D01*
X106018902Y-80454663D01*
X105837883Y-80273643D01*
X105656863Y-80454663D01*
X104788920Y-80454663D01*
X104791073Y-80006756D01*
X104811403Y-79938732D01*
X104831478Y-79921505D01*
X106190022Y-79921505D01*
X106371042Y-80102525D01*
X106552062Y-79921505D01*
X107256339Y-79921505D01*
X107437359Y-80102525D01*
X107618379Y-79921505D01*
X108322656Y-79921505D01*
X108503676Y-80102525D01*
X108684696Y-79921505D01*
X108503676Y-79740485D01*
X108322656Y-79921505D01*
X107618379Y-79921505D01*
X107437359Y-79740485D01*
X107256339Y-79921505D01*
X106552062Y-79921505D01*
X106371042Y-79740485D01*
X106190022Y-79921505D01*
X104831478Y-79921505D01*
X104865281Y-79892498D01*
X104935603Y-79882732D01*
X104939720Y-79883587D01*
X104943238Y-79885044D01*
X104951422Y-79886121D01*
X104951424Y-79886122D01*
X105091812Y-79904604D01*
X105100000Y-79905682D01*
X105108188Y-79904604D01*
X105248574Y-79886122D01*
X105256762Y-79885044D01*
X105402841Y-79824536D01*
X105528282Y-79728282D01*
X105624536Y-79602841D01*
X105685044Y-79456762D01*
X105694051Y-79388346D01*
X106723180Y-79388346D01*
X106904201Y-79569366D01*
X107085220Y-79388347D01*
X107085219Y-79388346D01*
X107789497Y-79388346D01*
X107970518Y-79569366D01*
X108151537Y-79388347D01*
X108151536Y-79388346D01*
X108855814Y-79388346D01*
X109002000Y-79534532D01*
X109002000Y-79242160D01*
X108855814Y-79388346D01*
X108151536Y-79388346D01*
X107970517Y-79207326D01*
X107789497Y-79388346D01*
X107085219Y-79388346D01*
X106904200Y-79207326D01*
X106723180Y-79388346D01*
X105694051Y-79388346D01*
X105705682Y-79300000D01*
X105685044Y-79143238D01*
X105624536Y-78997159D01*
X105528282Y-78871718D01*
X105506740Y-78855188D01*
X106190022Y-78855188D01*
X106371042Y-79036208D01*
X106552062Y-78855188D01*
X107256339Y-78855188D01*
X107437359Y-79036208D01*
X107618379Y-78855188D01*
X108322656Y-78855188D01*
X108503676Y-79036208D01*
X108684696Y-78855188D01*
X108503676Y-78674168D01*
X108322656Y-78855188D01*
X107618379Y-78855188D01*
X107437359Y-78674168D01*
X107256339Y-78855188D01*
X106552062Y-78855188D01*
X106371042Y-78674168D01*
X106190022Y-78855188D01*
X105506740Y-78855188D01*
X105402841Y-78775464D01*
X105256762Y-78714956D01*
X105100000Y-78694318D01*
X104943238Y-78714956D01*
X104942874Y-78712195D01*
X104885527Y-78710834D01*
X104826728Y-78671045D01*
X104798774Y-78605783D01*
X104797883Y-78590208D01*
X104798357Y-78491789D01*
X104799173Y-78322029D01*
X105656863Y-78322029D01*
X105745557Y-78410723D01*
X105831445Y-78476627D01*
X105837819Y-78481859D01*
X105849142Y-78491789D01*
X106018903Y-78322029D01*
X106723180Y-78322029D01*
X106904200Y-78503049D01*
X107085220Y-78322029D01*
X107789497Y-78322029D01*
X107970517Y-78503049D01*
X108151537Y-78322029D01*
X108855814Y-78322029D01*
X109002000Y-78468215D01*
X109002000Y-78175843D01*
X108855814Y-78322029D01*
X108151537Y-78322029D01*
X107970517Y-78141009D01*
X107789497Y-78322029D01*
X107085220Y-78322029D01*
X106904200Y-78141009D01*
X106723180Y-78322029D01*
X106018903Y-78322029D01*
X105837883Y-78141009D01*
X105656863Y-78322029D01*
X104799173Y-78322029D01*
X104800000Y-78150000D01*
X104786112Y-78150081D01*
X104784263Y-78149680D01*
X104721932Y-78115688D01*
X104687874Y-78053394D01*
X104684983Y-78027342D01*
X104684620Y-77969891D01*
X104682352Y-77611490D01*
X105308364Y-77611490D01*
X105310595Y-77964021D01*
X105485745Y-77788871D01*
X106190022Y-77788871D01*
X106371042Y-77969891D01*
X106552062Y-77788871D01*
X107256339Y-77788871D01*
X107437359Y-77969891D01*
X107618379Y-77788871D01*
X108322656Y-77788871D01*
X108503676Y-77969891D01*
X108684696Y-77788871D01*
X108503676Y-77607851D01*
X108322656Y-77788871D01*
X107618379Y-77788871D01*
X107437359Y-77607851D01*
X107256339Y-77788871D01*
X106552062Y-77788871D01*
X106371042Y-77607851D01*
X106190022Y-77788871D01*
X105485745Y-77788871D01*
X105308364Y-77611490D01*
X104682352Y-77611490D01*
X104680100Y-77255712D01*
X105656863Y-77255712D01*
X105837883Y-77436732D01*
X106018903Y-77255712D01*
X106723180Y-77255712D01*
X106904200Y-77436732D01*
X107085220Y-77255712D01*
X107789497Y-77255712D01*
X107970517Y-77436732D01*
X108151537Y-77255712D01*
X108855814Y-77255712D01*
X109002000Y-77401898D01*
X109002000Y-77109526D01*
X108855814Y-77255712D01*
X108151537Y-77255712D01*
X107970517Y-77074692D01*
X107789497Y-77255712D01*
X107085220Y-77255712D01*
X106904200Y-77074692D01*
X106723180Y-77255712D01*
X106018903Y-77255712D01*
X105837883Y-77074692D01*
X105656863Y-77255712D01*
X104680100Y-77255712D01*
X104675599Y-76544647D01*
X105301611Y-76544647D01*
X105303878Y-76902727D01*
X105304725Y-76903574D01*
X105485745Y-76722554D01*
X106190022Y-76722554D01*
X106371042Y-76903574D01*
X106552062Y-76722554D01*
X107256339Y-76722554D01*
X107437359Y-76903574D01*
X107618379Y-76722554D01*
X108322656Y-76722554D01*
X108503676Y-76903574D01*
X108684696Y-76722554D01*
X108503676Y-76541534D01*
X108322656Y-76722554D01*
X107618379Y-76722554D01*
X107437359Y-76541534D01*
X107256339Y-76722554D01*
X106552062Y-76722554D01*
X106371042Y-76541534D01*
X106190022Y-76722554D01*
X105485745Y-76722554D01*
X105304724Y-76541534D01*
X105301611Y-76544647D01*
X104675599Y-76544647D01*
X104673351Y-76189395D01*
X105656863Y-76189395D01*
X105837883Y-76370415D01*
X106018903Y-76189395D01*
X106723180Y-76189395D01*
X106904200Y-76370415D01*
X107085220Y-76189395D01*
X107789497Y-76189395D01*
X107970517Y-76370415D01*
X108151537Y-76189395D01*
X108855814Y-76189395D01*
X109002000Y-76335581D01*
X109002000Y-76043209D01*
X108855814Y-76189395D01*
X108151537Y-76189395D01*
X107970517Y-76008375D01*
X107789497Y-76189395D01*
X107085220Y-76189395D01*
X106904200Y-76008375D01*
X106723180Y-76189395D01*
X106018903Y-76189395D01*
X105837883Y-76008375D01*
X105656863Y-76189395D01*
X104673351Y-76189395D01*
X104668893Y-75485038D01*
X105294905Y-75485038D01*
X105297086Y-75829618D01*
X105304725Y-75837257D01*
X105485745Y-75656237D01*
X106190022Y-75656237D01*
X106371042Y-75837257D01*
X106552062Y-75656237D01*
X107256339Y-75656237D01*
X107437359Y-75837257D01*
X107618379Y-75656237D01*
X108322656Y-75656237D01*
X108503676Y-75837257D01*
X108684696Y-75656237D01*
X108503676Y-75475217D01*
X108322656Y-75656237D01*
X107618379Y-75656237D01*
X107437359Y-75475217D01*
X107256339Y-75656237D01*
X106552062Y-75656237D01*
X106371042Y-75475217D01*
X106190022Y-75656237D01*
X105485745Y-75656237D01*
X105304725Y-75475217D01*
X105294905Y-75485038D01*
X104668893Y-75485038D01*
X104666602Y-75123078D01*
X105656863Y-75123078D01*
X105837883Y-75304098D01*
X106018903Y-75123078D01*
X106723180Y-75123078D01*
X106904200Y-75304098D01*
X107085220Y-75123078D01*
X107789497Y-75123078D01*
X107970517Y-75304098D01*
X108151537Y-75123078D01*
X108855814Y-75123078D01*
X109002000Y-75269264D01*
X109002000Y-74976892D01*
X108855814Y-75123078D01*
X108151537Y-75123078D01*
X107970517Y-74942058D01*
X107789497Y-75123078D01*
X107085220Y-75123078D01*
X106904200Y-74942058D01*
X106723180Y-75123078D01*
X106018903Y-75123078D01*
X105837883Y-74942058D01*
X105656863Y-75123078D01*
X104666602Y-75123078D01*
X104662186Y-74425426D01*
X105288198Y-74425426D01*
X105290295Y-74756510D01*
X105304725Y-74770940D01*
X105485745Y-74589920D01*
X106190022Y-74589920D01*
X106371042Y-74770940D01*
X106552062Y-74589920D01*
X107256339Y-74589920D01*
X107437359Y-74770940D01*
X107618379Y-74589920D01*
X108322656Y-74589920D01*
X108503676Y-74770940D01*
X108684696Y-74589920D01*
X108503676Y-74408900D01*
X108322656Y-74589920D01*
X107618379Y-74589920D01*
X107437359Y-74408900D01*
X107256339Y-74589920D01*
X106552062Y-74589920D01*
X106371042Y-74408900D01*
X106190022Y-74589920D01*
X105485745Y-74589920D01*
X105304724Y-74408900D01*
X105288198Y-74425426D01*
X104662186Y-74425426D01*
X104659853Y-74056761D01*
X105656863Y-74056761D01*
X105837883Y-74237781D01*
X106018903Y-74056761D01*
X106723180Y-74056761D01*
X106904200Y-74237781D01*
X107085220Y-74056761D01*
X107789497Y-74056761D01*
X107970517Y-74237781D01*
X108151537Y-74056761D01*
X108855814Y-74056761D01*
X109002000Y-74202947D01*
X109002000Y-73910575D01*
X108855814Y-74056761D01*
X108151537Y-74056761D01*
X107970517Y-73875741D01*
X107789497Y-74056761D01*
X107085220Y-74056761D01*
X106904200Y-73875741D01*
X106723180Y-74056761D01*
X106018903Y-74056761D01*
X105837883Y-73875741D01*
X105656863Y-74056761D01*
X104659853Y-74056761D01*
X104655480Y-73365815D01*
X105281492Y-73365815D01*
X105283503Y-73683401D01*
X105304725Y-73704623D01*
X105485745Y-73523603D01*
X106190022Y-73523603D01*
X106371042Y-73704623D01*
X106552062Y-73523603D01*
X107256339Y-73523603D01*
X107437359Y-73704623D01*
X107618379Y-73523603D01*
X108322656Y-73523603D01*
X108503676Y-73704623D01*
X108684696Y-73523603D01*
X108503676Y-73342583D01*
X108322656Y-73523603D01*
X107618379Y-73523603D01*
X107437359Y-73342583D01*
X107256339Y-73523603D01*
X106552062Y-73523603D01*
X106371042Y-73342583D01*
X106190022Y-73523603D01*
X105485745Y-73523603D01*
X105304724Y-73342583D01*
X105281492Y-73365815D01*
X104655480Y-73365815D01*
X104653962Y-73126000D01*
X105792419Y-73126000D01*
X105837883Y-73171464D01*
X105883346Y-73126000D01*
X106858736Y-73126000D01*
X106904200Y-73171464D01*
X106949663Y-73126000D01*
X107925053Y-73126000D01*
X107970517Y-73171464D01*
X108015980Y-73126000D01*
X108991370Y-73126000D01*
X109002000Y-73136630D01*
X109002000Y-73126000D01*
X108991370Y-73126000D01*
X108015980Y-73126000D01*
X107925053Y-73126000D01*
X106949663Y-73126000D01*
X106858736Y-73126000D01*
X105883346Y-73126000D01*
X105792419Y-73126000D01*
X104653962Y-73126000D01*
X104650803Y-72626797D01*
X104670373Y-72558551D01*
X104723733Y-72511720D01*
X104776800Y-72500000D01*
X109374000Y-72500000D01*
X109442121Y-72520002D01*
G37*
%TD.AperFunction*%
%TA.AperFunction,Conductor*%
%TO.N,Net-(C29-Pad2)*%
G36*
X89226345Y-73791027D02*
G01*
X89267934Y-73798144D01*
X89287388Y-73804976D01*
X89287392Y-73804977D01*
X89294631Y-73807519D01*
X89326166Y-73810500D01*
X90108834Y-73810500D01*
X90124182Y-73809049D01*
X90132723Y-73808242D01*
X90132725Y-73808242D01*
X90140369Y-73807519D01*
X90163559Y-73799375D01*
X90205461Y-73792258D01*
X91697645Y-73794135D01*
X94053941Y-73797100D01*
X94070226Y-73798178D01*
X94097103Y-73801716D01*
X94103620Y-73802748D01*
X94158224Y-73812868D01*
X94158225Y-73812868D01*
X94165692Y-73814252D01*
X94173272Y-73813815D01*
X94173273Y-73813815D01*
X94227144Y-73810709D01*
X94234396Y-73810500D01*
X95872516Y-73810500D01*
X95900579Y-73807104D01*
X95955782Y-73800424D01*
X95971078Y-73799511D01*
X96234159Y-73799842D01*
X96302254Y-73819930D01*
X96348679Y-73873644D01*
X96360000Y-73925842D01*
X96360000Y-75634158D01*
X96339998Y-75702279D01*
X96286342Y-75748772D01*
X96234158Y-75760158D01*
X94370286Y-75762500D01*
X88526795Y-75769841D01*
X88458650Y-75749924D01*
X88412090Y-75696327D01*
X88400640Y-75643205D01*
X88409366Y-73915522D01*
X88429711Y-73847503D01*
X88483601Y-73801281D01*
X88535522Y-73790158D01*
X89226345Y-73791027D01*
G37*
%TD.AperFunction*%
%TD*%
%TA.AperFunction,Conductor*%
%TO.N,GND*%
G36*
X29467121Y-79245002D02*
G01*
X29513614Y-79298658D01*
X29525000Y-79351000D01*
X29525000Y-83547098D01*
X29504998Y-83615219D01*
X29451342Y-83661712D01*
X29397812Y-83673092D01*
X29350848Y-83672649D01*
X29315331Y-83667190D01*
X29290120Y-83659513D01*
X29290114Y-83659512D01*
X29285807Y-83658200D01*
X29269718Y-83655722D01*
X29233992Y-83650220D01*
X29233986Y-83650219D01*
X29229541Y-83649535D01*
X29122224Y-83648462D01*
X27099740Y-83628237D01*
X27031823Y-83607554D01*
X26985869Y-83553437D01*
X26975000Y-83502243D01*
X26975000Y-79351000D01*
X26995002Y-79282879D01*
X27048658Y-79236386D01*
X27101000Y-79225000D01*
X29399000Y-79225000D01*
X29467121Y-79245002D01*
G37*
%TD.AperFunction*%
%TD*%
%TA.AperFunction,Conductor*%
%TO.N,+3V3*%
G36*
X95592121Y-64570502D02*
G01*
X95638614Y-64624158D01*
X95650000Y-64676500D01*
X95650000Y-66224000D01*
X95629998Y-66292121D01*
X95576342Y-66338614D01*
X95524000Y-66350000D01*
X93702365Y-66350000D01*
X93634244Y-66329998D01*
X93613269Y-66313095D01*
X92734006Y-65433831D01*
X92732404Y-65432036D01*
X92727573Y-65421976D01*
X92705953Y-65404686D01*
X92699435Y-65398853D01*
X92697424Y-65397249D01*
X92692417Y-65392242D01*
X92686426Y-65388477D01*
X92683977Y-65386523D01*
X92677378Y-65381833D01*
X92667215Y-65373705D01*
X92667210Y-65373703D01*
X92656133Y-65364844D01*
X92644610Y-65362194D01*
X92634597Y-65355901D01*
X92620500Y-65354307D01*
X92620499Y-65354307D01*
X92615714Y-65353766D01*
X92609237Y-65351719D01*
X92600813Y-65350813D01*
X92600000Y-65350000D01*
X92593248Y-65350000D01*
X92592625Y-65349933D01*
X92590854Y-65349833D01*
X92589406Y-65349500D01*
X92584967Y-65349500D01*
X92579609Y-65349197D01*
X92579526Y-65349188D01*
X92570921Y-65348703D01*
X92543701Y-65345626D01*
X92533023Y-65349355D01*
X92530423Y-65349500D01*
X90785180Y-65349500D01*
X90783506Y-65349833D01*
X90780102Y-65350000D01*
X90226000Y-65350000D01*
X90157879Y-65329998D01*
X90111386Y-65276342D01*
X90100000Y-65224000D01*
X90100000Y-64676500D01*
X90120002Y-64608379D01*
X90173658Y-64561886D01*
X90226000Y-64550500D01*
X95524000Y-64550500D01*
X95592121Y-64570502D01*
G37*
%TD.AperFunction*%
%TD*%
%TA.AperFunction,Conductor*%
%TO.N,+3V3*%
G36*
X86892121Y-67420002D02*
G01*
X86938614Y-67473658D01*
X86950000Y-67526000D01*
X86950000Y-67580102D01*
X86949833Y-67583506D01*
X86949500Y-67585180D01*
X86949500Y-69353788D01*
X86949364Y-69356189D01*
X86945666Y-69366719D01*
X86947235Y-69380820D01*
X86947235Y-69380821D01*
X86948727Y-69394227D01*
X86949212Y-69402969D01*
X86949500Y-69405527D01*
X86949500Y-69412603D01*
X86951073Y-69419497D01*
X86951424Y-69422616D01*
X86952776Y-69430609D01*
X86955783Y-69457633D01*
X86962058Y-69467656D01*
X86964688Y-69479185D01*
X86973530Y-69490281D01*
X86973531Y-69490283D01*
X86981635Y-69500452D01*
X86986491Y-69507310D01*
X86988333Y-69509623D01*
X86992116Y-69515666D01*
X86997160Y-69520710D01*
X87001485Y-69526142D01*
X87028269Y-69591893D01*
X87027362Y-69624338D01*
X87026433Y-69630203D01*
X87026433Y-69630207D01*
X87024882Y-69640000D01*
X87043242Y-69755918D01*
X87047743Y-69764751D01*
X87047744Y-69764755D01*
X87051513Y-69772151D01*
X87096523Y-69860489D01*
X87179511Y-69943477D01*
X87233079Y-69970771D01*
X87275245Y-69992256D01*
X87275248Y-69992257D01*
X87284082Y-69996758D01*
X87400000Y-70015118D01*
X87515918Y-69996758D01*
X87524752Y-69992257D01*
X87524755Y-69992256D01*
X87566921Y-69970771D01*
X87620489Y-69943477D01*
X87703477Y-69860489D01*
X87748487Y-69772151D01*
X87752258Y-69764751D01*
X87752259Y-69764748D01*
X87756758Y-69755918D01*
X87756852Y-69755325D01*
X87794010Y-69700989D01*
X87859408Y-69673355D01*
X87880289Y-69673802D01*
X87880289Y-69673567D01*
X87890208Y-69673567D01*
X87900000Y-69675118D01*
X88015918Y-69656758D01*
X88024636Y-69652316D01*
X88095531Y-69650290D01*
X88156329Y-69686952D01*
X88187654Y-69750665D01*
X88189500Y-69772151D01*
X88189500Y-69844344D01*
X88169498Y-69912465D01*
X88152595Y-69933439D01*
X88096523Y-69989511D01*
X88084266Y-70013567D01*
X88047744Y-70085245D01*
X88047743Y-70085248D01*
X88043242Y-70094082D01*
X88024882Y-70210000D01*
X88043242Y-70325918D01*
X88047745Y-70334755D01*
X88047745Y-70334756D01*
X88059307Y-70357449D01*
X88072410Y-70427226D01*
X88045708Y-70493010D01*
X87987680Y-70533915D01*
X87947558Y-70540648D01*
X87522398Y-70542398D01*
X85801518Y-70549479D01*
X85733316Y-70529757D01*
X85686603Y-70476293D01*
X85675000Y-70423480D01*
X85675000Y-68801000D01*
X85695002Y-68732879D01*
X85748658Y-68686386D01*
X85801000Y-68675000D01*
X86550000Y-68675000D01*
X86550000Y-68394898D01*
X86550167Y-68391494D01*
X86550500Y-68389820D01*
X86550500Y-68118366D01*
X86561393Y-68067117D01*
X86570114Y-68047530D01*
X86570114Y-68047528D01*
X86575500Y-68035432D01*
X86575500Y-67526000D01*
X86595502Y-67457879D01*
X86649158Y-67411386D01*
X86701500Y-67400000D01*
X86824000Y-67400000D01*
X86892121Y-67420002D01*
G37*
%TD.AperFunction*%
%TA.AperFunction,Conductor*%
G36*
X90525772Y-66550167D02*
G01*
X90527219Y-66550500D01*
X90531656Y-66550500D01*
X90537016Y-66550803D01*
X90537096Y-66550812D01*
X90545715Y-66551298D01*
X90558822Y-66552780D01*
X90558823Y-66552780D01*
X90572923Y-66554374D01*
X90583601Y-66550645D01*
X90586193Y-66550500D01*
X91624000Y-66550500D01*
X91692121Y-66570502D01*
X91738614Y-66624158D01*
X91750000Y-66676500D01*
X91750000Y-70399517D01*
X91729998Y-70467638D01*
X91676342Y-70514131D01*
X91624519Y-70525516D01*
X89222019Y-70535403D01*
X89153816Y-70515681D01*
X89107103Y-70462218D01*
X89095500Y-70409404D01*
X89095500Y-70346298D01*
X89089087Y-70316124D01*
X89083360Y-70289183D01*
X89083360Y-70289182D01*
X89080607Y-70276232D01*
X89079155Y-70274233D01*
X89070500Y-70233518D01*
X89070500Y-69176212D01*
X89070636Y-69173811D01*
X89074334Y-69163281D01*
X89071273Y-69135773D01*
X89070788Y-69127031D01*
X89070500Y-69124473D01*
X89070500Y-69117397D01*
X89068927Y-69110503D01*
X89068576Y-69107384D01*
X89067224Y-69099391D01*
X89065786Y-69086470D01*
X89064217Y-69072367D01*
X89057942Y-69062344D01*
X89055312Y-69050815D01*
X89046470Y-69039719D01*
X89046469Y-69039717D01*
X89038358Y-69029539D01*
X89033514Y-69022698D01*
X89031668Y-69020379D01*
X89027883Y-69014334D01*
X89022838Y-69009289D01*
X89021104Y-69007111D01*
X89015381Y-69000705D01*
X89007148Y-68990373D01*
X89007147Y-68990373D01*
X88998305Y-68979276D01*
X88988118Y-68974362D01*
X88986177Y-68972627D01*
X88903645Y-68890095D01*
X88869619Y-68827783D01*
X88874684Y-68756968D01*
X88917231Y-68700132D01*
X88983751Y-68675321D01*
X88992740Y-68675000D01*
X90150000Y-68675000D01*
X90150000Y-68394898D01*
X90150167Y-68391494D01*
X90150500Y-68389820D01*
X90150500Y-67585180D01*
X90150167Y-67583506D01*
X90150000Y-67580102D01*
X90150000Y-66676000D01*
X90170002Y-66607879D01*
X90223658Y-66561386D01*
X90276000Y-66550000D01*
X90522812Y-66550000D01*
X90525772Y-66550167D01*
G37*
%TD.AperFunction*%
%TD*%
%TA.AperFunction,Conductor*%
%TO.N,GND*%
G36*
X36665931Y-57920002D02*
G01*
X36686905Y-57936905D01*
X37413095Y-58663095D01*
X37447121Y-58725407D01*
X37450000Y-58752190D01*
X37450000Y-62899830D01*
X37450001Y-62900196D01*
X37474151Y-66522660D01*
X37454604Y-66590913D01*
X37401259Y-66637762D01*
X37348154Y-66649500D01*
X33775639Y-66649500D01*
X33707518Y-66629498D01*
X33661025Y-66575842D01*
X33649640Y-66523860D01*
X33648128Y-65994721D01*
X34491366Y-65994721D01*
X34520645Y-66024000D01*
X34824126Y-66024000D01*
X34853405Y-65994721D01*
X35557683Y-65994721D01*
X35586962Y-66024000D01*
X35890443Y-66024000D01*
X35919722Y-65994721D01*
X36624000Y-65994721D01*
X36653279Y-66024000D01*
X36844812Y-66024000D01*
X36843668Y-65852348D01*
X36805021Y-65813701D01*
X36624000Y-65994721D01*
X35919722Y-65994721D01*
X35919723Y-65994720D01*
X35738704Y-65813701D01*
X35557683Y-65994721D01*
X34853405Y-65994721D01*
X34853406Y-65994720D01*
X34799725Y-65941039D01*
X34797127Y-65942115D01*
X34724206Y-65956620D01*
X34699624Y-65959041D01*
X34527046Y-65959041D01*
X34491366Y-65994721D01*
X33648128Y-65994721D01*
X33646680Y-65488037D01*
X35051000Y-65488037D01*
X35205545Y-65642582D01*
X35386565Y-65461562D01*
X36090842Y-65461562D01*
X36271862Y-65642582D01*
X36452882Y-65461562D01*
X36271862Y-65280542D01*
X36090842Y-65461562D01*
X35386565Y-65461562D01*
X35205545Y-65280542D01*
X35051000Y-65435087D01*
X35051000Y-65488037D01*
X33646680Y-65488037D01*
X33645081Y-64928404D01*
X35557683Y-64928404D01*
X35738703Y-65109424D01*
X35919723Y-64928403D01*
X35738704Y-64747384D01*
X35557683Y-64928404D01*
X33645081Y-64928404D01*
X33643558Y-64395245D01*
X35024525Y-64395245D01*
X35205545Y-64576265D01*
X35386565Y-64395245D01*
X36090842Y-64395245D01*
X36250897Y-64555300D01*
X36284492Y-64474194D01*
X36300938Y-64445708D01*
X36388818Y-64331181D01*
X36271862Y-64214225D01*
X36090842Y-64395245D01*
X35386565Y-64395245D01*
X35205545Y-64214225D01*
X35024525Y-64395245D01*
X33643558Y-64395245D01*
X33642424Y-63998263D01*
X34627542Y-63998263D01*
X34672386Y-64043107D01*
X34853405Y-63862087D01*
X35557683Y-63862087D01*
X35738703Y-64043107D01*
X35919723Y-63862086D01*
X35738704Y-63681067D01*
X35557683Y-63862087D01*
X34853405Y-63862087D01*
X34853406Y-63862086D01*
X34718776Y-63727456D01*
X34709478Y-63798077D01*
X34700965Y-63829849D01*
X34640508Y-63975806D01*
X34627542Y-63998263D01*
X33642424Y-63998263D01*
X33640511Y-63328928D01*
X35024525Y-63328928D01*
X35205545Y-63509948D01*
X35386565Y-63328928D01*
X36090842Y-63328928D01*
X36215326Y-63453412D01*
X36215522Y-63451923D01*
X36224035Y-63420151D01*
X36284492Y-63274194D01*
X36300938Y-63245708D01*
X36330776Y-63206822D01*
X36271862Y-63147908D01*
X36090842Y-63328928D01*
X35386565Y-63328928D01*
X35205545Y-63147908D01*
X35024525Y-63328928D01*
X33640511Y-63328928D01*
X33639323Y-62913000D01*
X34608596Y-62913000D01*
X34672386Y-62976790D01*
X34736175Y-62913000D01*
X34608596Y-62913000D01*
X33639323Y-62913000D01*
X33638988Y-62795770D01*
X35557683Y-62795770D01*
X35738703Y-62976790D01*
X35919723Y-62795769D01*
X35738704Y-62614750D01*
X35557683Y-62795770D01*
X33638988Y-62795770D01*
X33637465Y-62262611D01*
X35024525Y-62262611D01*
X35205545Y-62443631D01*
X35386565Y-62262611D01*
X36090842Y-62262611D01*
X36199774Y-62371543D01*
X36215522Y-62251923D01*
X36224035Y-62220151D01*
X36278626Y-62088355D01*
X36271862Y-62081591D01*
X36090842Y-62262611D01*
X35386565Y-62262611D01*
X35205545Y-62081591D01*
X35024525Y-62262611D01*
X33637465Y-62262611D01*
X33635941Y-61729453D01*
X34491366Y-61729453D01*
X34668913Y-61907000D01*
X34675858Y-61907000D01*
X34853405Y-61729453D01*
X35557683Y-61729453D01*
X35738703Y-61910473D01*
X35919723Y-61729452D01*
X35738704Y-61548433D01*
X35557683Y-61729453D01*
X34853405Y-61729453D01*
X34853406Y-61729452D01*
X34766954Y-61643000D01*
X34577819Y-61643000D01*
X34491366Y-61729453D01*
X33635941Y-61729453D01*
X33634418Y-61196294D01*
X35024525Y-61196294D01*
X35205545Y-61377314D01*
X35386565Y-61196294D01*
X36090842Y-61196294D01*
X36211413Y-61316865D01*
X36194901Y-61191446D01*
X36194901Y-61158554D01*
X36204956Y-61082180D01*
X36090842Y-61196294D01*
X35386565Y-61196294D01*
X35205545Y-61015274D01*
X35024525Y-61196294D01*
X33634418Y-61196294D01*
X33632895Y-60663136D01*
X35557683Y-60663136D01*
X35738703Y-60844156D01*
X35919723Y-60663135D01*
X35738704Y-60482116D01*
X35557683Y-60663136D01*
X33632895Y-60663136D01*
X33632820Y-60637000D01*
X34517503Y-60637000D01*
X34807585Y-60637000D01*
X34829422Y-60639151D01*
X34672387Y-60482116D01*
X34517503Y-60637000D01*
X33632820Y-60637000D01*
X33631371Y-60129977D01*
X35024525Y-60129977D01*
X35205545Y-60310997D01*
X35386565Y-60129977D01*
X36090842Y-60129977D01*
X36271862Y-60310997D01*
X36334642Y-60248217D01*
X36300938Y-60204292D01*
X36284492Y-60175806D01*
X36224035Y-60029849D01*
X36217048Y-60003771D01*
X36090842Y-60129977D01*
X35386565Y-60129977D01*
X35205545Y-59948957D01*
X35024525Y-60129977D01*
X33631371Y-60129977D01*
X33629848Y-59596819D01*
X35557683Y-59596819D01*
X35738703Y-59777839D01*
X35919723Y-59596818D01*
X35738704Y-59415799D01*
X35557683Y-59596819D01*
X33629848Y-59596819D01*
X33628437Y-59103000D01*
X34254440Y-59103000D01*
X34254515Y-59129393D01*
X34280908Y-59103000D01*
X34254440Y-59103000D01*
X33628437Y-59103000D01*
X33628325Y-59063660D01*
X35024525Y-59063660D01*
X35205545Y-59244680D01*
X35386565Y-59063660D01*
X35205545Y-58882640D01*
X35024525Y-59063660D01*
X33628325Y-59063660D01*
X33626802Y-58530501D01*
X35557683Y-58530501D01*
X35738704Y-58711521D01*
X35844668Y-58605557D01*
X35844976Y-58576170D01*
X35851581Y-58526000D01*
X35562184Y-58526000D01*
X35557683Y-58530501D01*
X33626802Y-58530501D01*
X33625361Y-58026360D01*
X33645168Y-57958182D01*
X33698690Y-57911536D01*
X33751360Y-57900000D01*
X36597810Y-57900000D01*
X36665931Y-57920002D01*
G37*
%TD.AperFunction*%
%TD*%
%TA.AperFunction,Conductor*%
%TO.N,GND*%
G36*
X35266621Y-74995002D02*
G01*
X35313114Y-75048658D01*
X35324500Y-75101000D01*
X35324500Y-75194748D01*
X35336133Y-75253231D01*
X35380448Y-75319552D01*
X35446769Y-75363867D01*
X35458938Y-75366288D01*
X35458939Y-75366288D01*
X35499184Y-75374293D01*
X35505252Y-75375500D01*
X36744748Y-75375500D01*
X36750816Y-75374293D01*
X36791061Y-75366288D01*
X36791062Y-75366288D01*
X36803231Y-75363867D01*
X36869552Y-75319552D01*
X36913867Y-75253231D01*
X36925500Y-75194748D01*
X36925500Y-75101000D01*
X36945502Y-75032879D01*
X36999158Y-74986386D01*
X37051500Y-74975000D01*
X48224175Y-74975000D01*
X48292296Y-74995002D01*
X48338789Y-75048658D01*
X48350175Y-75100824D01*
X48354057Y-77895751D01*
X48354701Y-78359654D01*
X48334793Y-78427802D01*
X48281202Y-78474370D01*
X48210943Y-78484571D01*
X48148311Y-78456073D01*
X48144552Y-78450448D01*
X48078231Y-78406133D01*
X48066062Y-78403712D01*
X48066061Y-78403712D01*
X48025816Y-78395707D01*
X48019748Y-78394500D01*
X45980252Y-78394500D01*
X45974184Y-78395707D01*
X45933939Y-78403712D01*
X45933938Y-78403712D01*
X45921769Y-78406133D01*
X45855448Y-78450448D01*
X45811133Y-78516769D01*
X45799500Y-78575252D01*
X45799500Y-80614748D01*
X45811133Y-80673231D01*
X45855448Y-80739552D01*
X45921769Y-80783867D01*
X45933938Y-80786288D01*
X45933939Y-80786288D01*
X45974184Y-80794293D01*
X45980252Y-80795500D01*
X48019748Y-80795500D01*
X48025816Y-80794293D01*
X48066061Y-80786288D01*
X48066062Y-80786288D01*
X48078231Y-80783867D01*
X48144552Y-80739552D01*
X48147427Y-80735250D01*
X48205345Y-80703623D01*
X48276160Y-80708688D01*
X48332996Y-80751235D01*
X48357807Y-80817755D01*
X48358127Y-80826547D01*
X48362052Y-83652258D01*
X48362323Y-83847276D01*
X48342415Y-83915424D01*
X48288824Y-83961992D01*
X48218565Y-83972193D01*
X48153943Y-83942790D01*
X48150921Y-83939980D01*
X48144552Y-83930448D01*
X48078231Y-83886133D01*
X48066062Y-83883712D01*
X48066061Y-83883712D01*
X48025816Y-83875707D01*
X48019748Y-83874500D01*
X45980252Y-83874500D01*
X45974184Y-83875707D01*
X45933939Y-83883712D01*
X45933938Y-83883712D01*
X45921769Y-83886133D01*
X45855448Y-83930448D01*
X45811133Y-83996769D01*
X45799500Y-84055252D01*
X45799500Y-86094748D01*
X45811133Y-86153231D01*
X45855448Y-86219552D01*
X45921769Y-86263867D01*
X45933938Y-86266288D01*
X45933939Y-86266288D01*
X45974184Y-86274293D01*
X45980252Y-86275500D01*
X48019748Y-86275500D01*
X48025816Y-86274293D01*
X48066061Y-86266288D01*
X48066062Y-86266288D01*
X48078231Y-86263867D01*
X48144552Y-86219552D01*
X48151056Y-86209818D01*
X48212945Y-86176023D01*
X48283760Y-86181088D01*
X48340596Y-86223635D01*
X48365407Y-86290155D01*
X48365728Y-86298964D01*
X48372922Y-91478626D01*
X48373452Y-91860318D01*
X48353544Y-91928466D01*
X48299953Y-91975034D01*
X48247200Y-91986493D01*
X37803713Y-91965606D01*
X37735632Y-91945467D01*
X37689247Y-91891719D01*
X37677966Y-91839280D01*
X37678883Y-91486880D01*
X47441505Y-91486880D01*
X47588617Y-91487174D01*
X47514914Y-91413471D01*
X47441505Y-91486880D01*
X37678883Y-91486880D01*
X37678889Y-91484751D01*
X46377317Y-91484751D01*
X46520162Y-91485036D01*
X46448597Y-91413471D01*
X46377317Y-91484751D01*
X37678889Y-91484751D01*
X37678895Y-91482623D01*
X45313128Y-91482623D01*
X45451709Y-91482900D01*
X45382280Y-91413471D01*
X45313128Y-91482623D01*
X37678895Y-91482623D01*
X37678901Y-91480494D01*
X44248940Y-91480494D01*
X44383254Y-91480762D01*
X44315963Y-91413471D01*
X44248940Y-91480494D01*
X37678901Y-91480494D01*
X37678907Y-91478366D01*
X43184751Y-91478366D01*
X43314801Y-91478626D01*
X43249646Y-91413471D01*
X43184751Y-91478366D01*
X37678907Y-91478366D01*
X37678913Y-91476237D01*
X42120562Y-91476237D01*
X42246347Y-91476489D01*
X42183329Y-91413471D01*
X42120562Y-91476237D01*
X37678913Y-91476237D01*
X37678919Y-91474109D01*
X41056374Y-91474109D01*
X41177893Y-91474352D01*
X41117012Y-91413471D01*
X41056374Y-91474109D01*
X37678919Y-91474109D01*
X37678925Y-91471981D01*
X39992184Y-91471981D01*
X40109439Y-91472215D01*
X40050695Y-91413471D01*
X39992184Y-91471981D01*
X37678925Y-91471981D01*
X37678931Y-91469853D01*
X38927996Y-91469853D01*
X39040984Y-91470079D01*
X38984377Y-91413471D01*
X38927996Y-91469853D01*
X37678931Y-91469853D01*
X37679904Y-91097038D01*
X38305906Y-91097038D01*
X38451219Y-91242352D01*
X38632239Y-91061332D01*
X39336516Y-91061332D01*
X39517536Y-91242352D01*
X39698556Y-91061332D01*
X40402833Y-91061332D01*
X40583853Y-91242352D01*
X40764873Y-91061332D01*
X41469150Y-91061332D01*
X41650170Y-91242352D01*
X41831190Y-91061332D01*
X42535467Y-91061332D01*
X42716487Y-91242352D01*
X42897507Y-91061332D01*
X43601784Y-91061332D01*
X43782804Y-91242352D01*
X43963824Y-91061332D01*
X44668101Y-91061332D01*
X44849121Y-91242352D01*
X45030141Y-91061332D01*
X45734418Y-91061332D01*
X45915438Y-91242352D01*
X46096458Y-91061332D01*
X46800735Y-91061332D01*
X46981755Y-91242352D01*
X47162775Y-91061332D01*
X46981755Y-90880312D01*
X46800735Y-91061332D01*
X46096458Y-91061332D01*
X45915438Y-90880312D01*
X45734418Y-91061332D01*
X45030141Y-91061332D01*
X44849121Y-90880312D01*
X44668101Y-91061332D01*
X43963824Y-91061332D01*
X43782804Y-90880312D01*
X43601784Y-91061332D01*
X42897507Y-91061332D01*
X42716487Y-90880312D01*
X42535467Y-91061332D01*
X41831190Y-91061332D01*
X41650170Y-90880312D01*
X41469150Y-91061332D01*
X40764873Y-91061332D01*
X40583853Y-90880312D01*
X40402833Y-91061332D01*
X39698556Y-91061332D01*
X39517536Y-90880312D01*
X39336516Y-91061332D01*
X38632239Y-91061332D01*
X38451219Y-90880312D01*
X38306092Y-91025439D01*
X38305906Y-91097038D01*
X37679904Y-91097038D01*
X37681389Y-90528174D01*
X38803357Y-90528174D01*
X38984377Y-90709194D01*
X39165397Y-90528174D01*
X39869674Y-90528174D01*
X40050694Y-90709194D01*
X40231713Y-90528174D01*
X40935991Y-90528174D01*
X41117011Y-90709194D01*
X41298030Y-90528174D01*
X42002308Y-90528174D01*
X42183328Y-90709194D01*
X42364347Y-90528174D01*
X43068625Y-90528174D01*
X43249645Y-90709194D01*
X43430664Y-90528174D01*
X44134942Y-90528174D01*
X44315962Y-90709194D01*
X44496981Y-90528174D01*
X45201259Y-90528174D01*
X45382279Y-90709194D01*
X45563298Y-90528174D01*
X46267576Y-90528174D01*
X46448596Y-90709194D01*
X46629615Y-90528174D01*
X47333893Y-90528174D01*
X47514913Y-90709194D01*
X47695933Y-90528173D01*
X47514914Y-90347154D01*
X47333893Y-90528174D01*
X46629615Y-90528174D01*
X46629616Y-90528173D01*
X46448597Y-90347154D01*
X46267576Y-90528174D01*
X45563298Y-90528174D01*
X45563299Y-90528173D01*
X45382280Y-90347154D01*
X45201259Y-90528174D01*
X44496981Y-90528174D01*
X44496982Y-90528173D01*
X44315963Y-90347154D01*
X44134942Y-90528174D01*
X43430664Y-90528174D01*
X43430665Y-90528173D01*
X43249646Y-90347154D01*
X43068625Y-90528174D01*
X42364347Y-90528174D01*
X42364348Y-90528173D01*
X42183329Y-90347154D01*
X42002308Y-90528174D01*
X41298030Y-90528174D01*
X41298031Y-90528173D01*
X41117012Y-90347154D01*
X40935991Y-90528174D01*
X40231713Y-90528174D01*
X40231714Y-90528173D01*
X40050695Y-90347154D01*
X39869674Y-90528174D01*
X39165397Y-90528174D01*
X38984377Y-90347154D01*
X38803357Y-90528174D01*
X37681389Y-90528174D01*
X37682681Y-90033499D01*
X38308683Y-90033499D01*
X38451219Y-90176035D01*
X38632239Y-89995015D01*
X39336516Y-89995015D01*
X39517536Y-90176035D01*
X39698556Y-89995015D01*
X40402833Y-89995015D01*
X40583853Y-90176035D01*
X40764873Y-89995015D01*
X41469150Y-89995015D01*
X41650170Y-90176035D01*
X41831190Y-89995015D01*
X42535467Y-89995015D01*
X42716487Y-90176035D01*
X42897507Y-89995015D01*
X43601784Y-89995015D01*
X43782804Y-90176035D01*
X43963824Y-89995015D01*
X44668101Y-89995015D01*
X44849121Y-90176035D01*
X45030141Y-89995015D01*
X45734418Y-89995015D01*
X45915438Y-90176035D01*
X46096458Y-89995015D01*
X46800735Y-89995015D01*
X46981755Y-90176035D01*
X47162775Y-89995015D01*
X46981755Y-89813995D01*
X46800735Y-89995015D01*
X46096458Y-89995015D01*
X45915438Y-89813995D01*
X45734418Y-89995015D01*
X45030141Y-89995015D01*
X44849121Y-89813995D01*
X44668101Y-89995015D01*
X43963824Y-89995015D01*
X43782804Y-89813995D01*
X43601784Y-89995015D01*
X42897507Y-89995015D01*
X42716487Y-89813995D01*
X42535467Y-89995015D01*
X41831190Y-89995015D01*
X41650170Y-89813995D01*
X41469150Y-89995015D01*
X40764873Y-89995015D01*
X40583853Y-89813995D01*
X40402833Y-89995015D01*
X39698556Y-89995015D01*
X39517536Y-89813995D01*
X39336516Y-89995015D01*
X38632239Y-89995015D01*
X38451219Y-89813995D01*
X38308884Y-89956330D01*
X38308683Y-90033499D01*
X37682681Y-90033499D01*
X37684174Y-89461857D01*
X38803357Y-89461857D01*
X38984377Y-89642877D01*
X39165397Y-89461857D01*
X39869674Y-89461857D01*
X40050694Y-89642877D01*
X40231713Y-89461857D01*
X40935991Y-89461857D01*
X41117011Y-89642877D01*
X41298030Y-89461857D01*
X42002308Y-89461857D01*
X42183328Y-89642877D01*
X42364347Y-89461857D01*
X43068625Y-89461857D01*
X43249645Y-89642877D01*
X43430664Y-89461857D01*
X44134942Y-89461857D01*
X44315962Y-89642877D01*
X44496981Y-89461857D01*
X45201259Y-89461857D01*
X45382279Y-89642877D01*
X45563298Y-89461857D01*
X46267576Y-89461857D01*
X46448596Y-89642877D01*
X46629615Y-89461857D01*
X47333893Y-89461857D01*
X47514913Y-89642877D01*
X47695933Y-89461856D01*
X47514914Y-89280837D01*
X47333893Y-89461857D01*
X46629615Y-89461857D01*
X46629616Y-89461856D01*
X46448597Y-89280837D01*
X46267576Y-89461857D01*
X45563298Y-89461857D01*
X45563299Y-89461856D01*
X45382280Y-89280837D01*
X45201259Y-89461857D01*
X44496981Y-89461857D01*
X44496982Y-89461856D01*
X44315963Y-89280837D01*
X44134942Y-89461857D01*
X43430664Y-89461857D01*
X43430665Y-89461856D01*
X43249646Y-89280837D01*
X43068625Y-89461857D01*
X42364347Y-89461857D01*
X42364348Y-89461856D01*
X42183329Y-89280837D01*
X42002308Y-89461857D01*
X41298030Y-89461857D01*
X41298031Y-89461856D01*
X41117012Y-89280837D01*
X40935991Y-89461857D01*
X40231713Y-89461857D01*
X40231714Y-89461856D01*
X40050695Y-89280837D01*
X39869674Y-89461857D01*
X39165397Y-89461857D01*
X38984377Y-89280837D01*
X38803357Y-89461857D01*
X37684174Y-89461857D01*
X37685458Y-88969959D01*
X38311460Y-88969959D01*
X38451219Y-89109718D01*
X38632239Y-88928698D01*
X39336516Y-88928698D01*
X39517536Y-89109718D01*
X39698556Y-88928698D01*
X40402833Y-88928698D01*
X40583853Y-89109718D01*
X40764873Y-88928698D01*
X41469150Y-88928698D01*
X41650170Y-89109718D01*
X41831190Y-88928698D01*
X42535467Y-88928698D01*
X42716487Y-89109718D01*
X42897507Y-88928698D01*
X43601784Y-88928698D01*
X43782804Y-89109718D01*
X43963824Y-88928698D01*
X44668101Y-88928698D01*
X44849121Y-89109718D01*
X45030141Y-88928698D01*
X45734418Y-88928698D01*
X45915438Y-89109718D01*
X46096458Y-88928698D01*
X46800735Y-88928698D01*
X46981755Y-89109718D01*
X47162775Y-88928698D01*
X46981755Y-88747678D01*
X46800735Y-88928698D01*
X46096458Y-88928698D01*
X45915438Y-88747678D01*
X45734418Y-88928698D01*
X45030141Y-88928698D01*
X44849121Y-88747678D01*
X44668101Y-88928698D01*
X43963824Y-88928698D01*
X43782804Y-88747678D01*
X43601784Y-88928698D01*
X42897507Y-88928698D01*
X42716487Y-88747678D01*
X42535467Y-88928698D01*
X41831190Y-88928698D01*
X41650170Y-88747678D01*
X41469150Y-88928698D01*
X40764873Y-88928698D01*
X40583853Y-88747678D01*
X40402833Y-88928698D01*
X39698556Y-88928698D01*
X39517536Y-88747678D01*
X39336516Y-88928698D01*
X38632239Y-88928698D01*
X38451219Y-88747678D01*
X38311675Y-88887222D01*
X38311460Y-88969959D01*
X37685458Y-88969959D01*
X37686958Y-88395540D01*
X38803357Y-88395540D01*
X38984377Y-88576560D01*
X39165397Y-88395540D01*
X39869674Y-88395540D01*
X40050694Y-88576560D01*
X40231713Y-88395540D01*
X40935991Y-88395540D01*
X41117011Y-88576560D01*
X41298030Y-88395540D01*
X42002308Y-88395540D01*
X42183328Y-88576560D01*
X42364347Y-88395540D01*
X43068625Y-88395540D01*
X43249645Y-88576560D01*
X43430664Y-88395540D01*
X44134942Y-88395540D01*
X44315962Y-88576560D01*
X44496981Y-88395540D01*
X45201259Y-88395540D01*
X45382279Y-88576560D01*
X45563298Y-88395540D01*
X46267576Y-88395540D01*
X46448596Y-88576560D01*
X46629615Y-88395540D01*
X47333893Y-88395540D01*
X47514913Y-88576560D01*
X47695933Y-88395539D01*
X47514914Y-88214520D01*
X47333893Y-88395540D01*
X46629615Y-88395540D01*
X46629616Y-88395539D01*
X46448597Y-88214520D01*
X46267576Y-88395540D01*
X45563298Y-88395540D01*
X45563299Y-88395539D01*
X45382280Y-88214520D01*
X45201259Y-88395540D01*
X44496981Y-88395540D01*
X44496982Y-88395539D01*
X44315963Y-88214520D01*
X44134942Y-88395540D01*
X43430664Y-88395540D01*
X43430665Y-88395539D01*
X43249646Y-88214520D01*
X43068625Y-88395540D01*
X42364347Y-88395540D01*
X42364348Y-88395539D01*
X42183329Y-88214520D01*
X42002308Y-88395540D01*
X41298030Y-88395540D01*
X41298031Y-88395539D01*
X41117012Y-88214520D01*
X40935991Y-88395540D01*
X40231713Y-88395540D01*
X40231714Y-88395539D01*
X40050695Y-88214520D01*
X39869674Y-88395540D01*
X39165397Y-88395540D01*
X39012276Y-88242420D01*
X38945472Y-88276019D01*
X38916988Y-88286274D01*
X38911326Y-88287571D01*
X38803357Y-88395540D01*
X37686958Y-88395540D01*
X37688246Y-87902181D01*
X39376316Y-87902181D01*
X39517536Y-88043401D01*
X39698556Y-87862381D01*
X40402833Y-87862381D01*
X40583853Y-88043401D01*
X40764873Y-87862381D01*
X41469150Y-87862381D01*
X41650170Y-88043401D01*
X41831190Y-87862381D01*
X42535467Y-87862381D01*
X42716487Y-88043401D01*
X42897507Y-87862381D01*
X43601784Y-87862381D01*
X43782804Y-88043401D01*
X43963824Y-87862381D01*
X44668101Y-87862381D01*
X44849121Y-88043401D01*
X45030141Y-87862381D01*
X45734418Y-87862381D01*
X45915438Y-88043401D01*
X46096458Y-87862381D01*
X46800735Y-87862381D01*
X46981755Y-88043401D01*
X47162775Y-87862381D01*
X46981755Y-87681361D01*
X46800735Y-87862381D01*
X46096458Y-87862381D01*
X45915438Y-87681361D01*
X45734418Y-87862381D01*
X45030141Y-87862381D01*
X44849121Y-87681361D01*
X44668101Y-87862381D01*
X43963824Y-87862381D01*
X43782804Y-87681361D01*
X43601784Y-87862381D01*
X42897507Y-87862381D01*
X42716487Y-87681361D01*
X42535467Y-87862381D01*
X41831190Y-87862381D01*
X41650170Y-87681361D01*
X41469150Y-87862381D01*
X40764873Y-87862381D01*
X40583853Y-87681361D01*
X40402833Y-87862381D01*
X39698556Y-87862381D01*
X39517536Y-87681361D01*
X39433652Y-87765245D01*
X39384827Y-87886701D01*
X39376316Y-87902181D01*
X37688246Y-87902181D01*
X37689741Y-87329223D01*
X39869674Y-87329223D01*
X40050694Y-87510243D01*
X40231713Y-87329223D01*
X40935991Y-87329223D01*
X41117011Y-87510243D01*
X41298030Y-87329223D01*
X42002308Y-87329223D01*
X42183328Y-87510243D01*
X42364347Y-87329223D01*
X43068625Y-87329223D01*
X43249645Y-87510243D01*
X43430664Y-87329223D01*
X44134942Y-87329223D01*
X44315962Y-87510243D01*
X44496981Y-87329223D01*
X45201259Y-87329223D01*
X45382279Y-87510243D01*
X45563298Y-87329223D01*
X46267576Y-87329223D01*
X46448596Y-87510243D01*
X46629615Y-87329223D01*
X47333893Y-87329223D01*
X47514913Y-87510243D01*
X47695933Y-87329222D01*
X47514914Y-87148203D01*
X47333893Y-87329223D01*
X46629615Y-87329223D01*
X46629616Y-87329222D01*
X46448597Y-87148203D01*
X46267576Y-87329223D01*
X45563298Y-87329223D01*
X45563299Y-87329222D01*
X45382280Y-87148203D01*
X45201259Y-87329223D01*
X44496981Y-87329223D01*
X44496982Y-87329222D01*
X44315963Y-87148203D01*
X44134942Y-87329223D01*
X43430664Y-87329223D01*
X43430665Y-87329222D01*
X43249646Y-87148203D01*
X43068625Y-87329223D01*
X42364347Y-87329223D01*
X42364348Y-87329222D01*
X42183329Y-87148203D01*
X42002308Y-87329223D01*
X41298030Y-87329223D01*
X41298031Y-87329222D01*
X41117012Y-87148203D01*
X40935991Y-87329223D01*
X40231713Y-87329223D01*
X40231714Y-87329222D01*
X40050695Y-87148203D01*
X39869674Y-87329223D01*
X37689741Y-87329223D01*
X37691133Y-86796064D01*
X39336516Y-86796064D01*
X39517536Y-86977084D01*
X39698556Y-86796064D01*
X40402833Y-86796064D01*
X40583853Y-86977084D01*
X40764873Y-86796064D01*
X41469150Y-86796064D01*
X41650170Y-86977084D01*
X41831190Y-86796064D01*
X42535467Y-86796064D01*
X42716487Y-86977084D01*
X42897507Y-86796064D01*
X43601784Y-86796064D01*
X43782804Y-86977084D01*
X43963824Y-86796064D01*
X44668101Y-86796064D01*
X44849121Y-86977084D01*
X45030141Y-86796064D01*
X45734418Y-86796064D01*
X45915438Y-86977084D01*
X46096458Y-86796064D01*
X46800735Y-86796064D01*
X46981755Y-86977084D01*
X47162775Y-86796064D01*
X47140211Y-86773500D01*
X46823299Y-86773500D01*
X46800735Y-86796064D01*
X46096458Y-86796064D01*
X46073894Y-86773500D01*
X45980252Y-86773500D01*
X45974067Y-86773348D01*
X45949955Y-86772163D01*
X45943790Y-86771708D01*
X45919209Y-86769287D01*
X45913072Y-86768530D01*
X45889192Y-86764988D01*
X45883098Y-86763931D01*
X45824615Y-86752298D01*
X45812621Y-86749294D01*
X45788504Y-86741978D01*
X45734418Y-86796064D01*
X45030141Y-86796064D01*
X44849121Y-86615044D01*
X44668101Y-86796064D01*
X43963824Y-86796064D01*
X43782804Y-86615044D01*
X43601784Y-86796064D01*
X42897507Y-86796064D01*
X42716487Y-86615044D01*
X42535467Y-86796064D01*
X41831190Y-86796064D01*
X41650170Y-86615044D01*
X41469150Y-86796064D01*
X40764873Y-86796064D01*
X40583853Y-86615044D01*
X40402833Y-86796064D01*
X39698556Y-86796064D01*
X39517536Y-86615044D01*
X39336516Y-86796064D01*
X37691133Y-86796064D01*
X37691293Y-86734876D01*
X38331387Y-86734876D01*
X38346418Y-86727118D01*
X38374794Y-86716565D01*
X38518290Y-86682115D01*
X38451219Y-86615044D01*
X38331387Y-86734876D01*
X37691293Y-86734876D01*
X37692525Y-86262906D01*
X38803357Y-86262906D01*
X38984377Y-86443926D01*
X39165397Y-86262906D01*
X39869674Y-86262906D01*
X40050694Y-86443926D01*
X40231713Y-86262906D01*
X40935991Y-86262906D01*
X41117011Y-86443926D01*
X41298030Y-86262906D01*
X42002308Y-86262906D01*
X42183328Y-86443926D01*
X42364347Y-86262906D01*
X43068625Y-86262906D01*
X43249645Y-86443926D01*
X43430664Y-86262906D01*
X44134942Y-86262906D01*
X44315962Y-86443926D01*
X44496981Y-86262906D01*
X45201259Y-86262906D01*
X45382279Y-86443926D01*
X45396775Y-86429429D01*
X45390706Y-86419302D01*
X45367971Y-86376768D01*
X45362684Y-86365589D01*
X45343870Y-86320167D01*
X45339704Y-86308525D01*
X45325706Y-86262379D01*
X45322702Y-86250385D01*
X45311069Y-86191902D01*
X45310012Y-86185808D01*
X45306470Y-86161928D01*
X45306005Y-86158160D01*
X45201259Y-86262906D01*
X44496981Y-86262906D01*
X44496982Y-86262905D01*
X44315963Y-86081886D01*
X44134942Y-86262906D01*
X43430664Y-86262906D01*
X43430665Y-86262905D01*
X43249646Y-86081886D01*
X43068625Y-86262906D01*
X42364347Y-86262906D01*
X42364348Y-86262905D01*
X42183329Y-86081886D01*
X42002308Y-86262906D01*
X41298030Y-86262906D01*
X41298031Y-86262905D01*
X41117012Y-86081886D01*
X40935991Y-86262906D01*
X40231713Y-86262906D01*
X40231714Y-86262905D01*
X40107344Y-86138535D01*
X40105998Y-86143121D01*
X40052342Y-86189614D01*
X40000000Y-86201000D01*
X39931580Y-86201000D01*
X39869674Y-86262906D01*
X39165397Y-86262906D01*
X39103491Y-86201000D01*
X38865263Y-86201000D01*
X38803357Y-86262906D01*
X37692525Y-86262906D01*
X37693917Y-85729747D01*
X40402833Y-85729747D01*
X40583853Y-85910767D01*
X40764873Y-85729747D01*
X41469150Y-85729747D01*
X41650170Y-85910767D01*
X41831190Y-85729747D01*
X42535467Y-85729747D01*
X42716487Y-85910767D01*
X42897507Y-85729747D01*
X43601784Y-85729747D01*
X43782804Y-85910767D01*
X43963824Y-85729747D01*
X44668101Y-85729747D01*
X44849121Y-85910767D01*
X45030141Y-85729747D01*
X44849121Y-85548727D01*
X44668101Y-85729747D01*
X43963824Y-85729747D01*
X43782804Y-85548727D01*
X43601784Y-85729747D01*
X42897507Y-85729747D01*
X42716487Y-85548727D01*
X42535467Y-85729747D01*
X41831190Y-85729747D01*
X41650170Y-85548727D01*
X41469150Y-85729747D01*
X40764873Y-85729747D01*
X40583853Y-85548727D01*
X40402833Y-85729747D01*
X37693917Y-85729747D01*
X37695585Y-85090874D01*
X40126000Y-85090874D01*
X40126000Y-85302302D01*
X40231713Y-85196589D01*
X40935991Y-85196589D01*
X41117011Y-85377609D01*
X41298030Y-85196589D01*
X42002308Y-85196589D01*
X42183328Y-85377609D01*
X42364347Y-85196589D01*
X43068625Y-85196589D01*
X43249645Y-85377609D01*
X43430664Y-85196589D01*
X44134942Y-85196589D01*
X44315962Y-85377609D01*
X44496981Y-85196589D01*
X45201259Y-85196589D01*
X45301500Y-85296830D01*
X45301500Y-85096348D01*
X45201259Y-85196589D01*
X44496981Y-85196589D01*
X44496982Y-85196588D01*
X44315963Y-85015569D01*
X44134942Y-85196589D01*
X43430664Y-85196589D01*
X43430665Y-85196588D01*
X43249646Y-85015569D01*
X43068625Y-85196589D01*
X42364347Y-85196589D01*
X42364348Y-85196588D01*
X42183329Y-85015569D01*
X42002308Y-85196589D01*
X41298030Y-85196589D01*
X41298031Y-85196588D01*
X41117012Y-85015569D01*
X40935991Y-85196589D01*
X40231713Y-85196589D01*
X40231714Y-85196588D01*
X40126000Y-85090874D01*
X37695585Y-85090874D01*
X37696701Y-84663430D01*
X40402833Y-84663430D01*
X40583853Y-84844450D01*
X40764873Y-84663430D01*
X41469150Y-84663430D01*
X41650170Y-84844450D01*
X41831190Y-84663430D01*
X42535467Y-84663430D01*
X42716487Y-84844450D01*
X42897507Y-84663430D01*
X43601784Y-84663430D01*
X43782804Y-84844450D01*
X43963824Y-84663430D01*
X44668101Y-84663430D01*
X44849121Y-84844450D01*
X45030141Y-84663430D01*
X44849121Y-84482410D01*
X44668101Y-84663430D01*
X43963824Y-84663430D01*
X43782804Y-84482410D01*
X43601784Y-84663430D01*
X42897507Y-84663430D01*
X42716487Y-84482410D01*
X42535467Y-84663430D01*
X41831190Y-84663430D01*
X41650170Y-84482410D01*
X41469150Y-84663430D01*
X40764873Y-84663430D01*
X40583853Y-84482410D01*
X40402833Y-84663430D01*
X37696701Y-84663430D01*
X37697621Y-84311292D01*
X37698537Y-83960564D01*
X40039383Y-83960564D01*
X40068121Y-83969002D01*
X40114614Y-84022658D01*
X40126000Y-84075000D01*
X40126000Y-84235985D01*
X40231713Y-84130272D01*
X40935991Y-84130272D01*
X41117011Y-84311292D01*
X41298030Y-84130272D01*
X42002308Y-84130272D01*
X42183328Y-84311292D01*
X42364347Y-84130272D01*
X43068625Y-84130272D01*
X43249645Y-84311292D01*
X43430664Y-84130272D01*
X44134942Y-84130272D01*
X44315962Y-84311292D01*
X44496981Y-84130272D01*
X45201259Y-84130272D01*
X45301500Y-84230513D01*
X45301500Y-84055252D01*
X45301652Y-84049067D01*
X45302644Y-84028888D01*
X45201259Y-84130272D01*
X44496981Y-84130272D01*
X44496982Y-84130271D01*
X44315963Y-83949252D01*
X44134942Y-84130272D01*
X43430664Y-84130272D01*
X43430665Y-84130271D01*
X43249646Y-83949252D01*
X43068625Y-84130272D01*
X42364347Y-84130272D01*
X42364348Y-84130271D01*
X42183329Y-83949252D01*
X42002308Y-84130272D01*
X41298030Y-84130272D01*
X41298031Y-84130271D01*
X41117012Y-83949252D01*
X40935991Y-84130272D01*
X40231713Y-84130272D01*
X40231714Y-84130271D01*
X40050695Y-83949252D01*
X40039383Y-83960564D01*
X37698537Y-83960564D01*
X37699342Y-83652258D01*
X38325344Y-83652258D01*
X38451219Y-83778133D01*
X38632239Y-83597113D01*
X39336516Y-83597113D01*
X39517536Y-83778133D01*
X39698556Y-83597113D01*
X40402833Y-83597113D01*
X40583853Y-83778133D01*
X40764873Y-83597113D01*
X41469150Y-83597113D01*
X41650170Y-83778133D01*
X41831190Y-83597113D01*
X42535467Y-83597113D01*
X42716487Y-83778133D01*
X42897507Y-83597113D01*
X43601784Y-83597113D01*
X43782804Y-83778133D01*
X43963824Y-83597113D01*
X44668101Y-83597113D01*
X44849121Y-83778133D01*
X45030141Y-83597113D01*
X44849121Y-83416093D01*
X44668101Y-83597113D01*
X43963824Y-83597113D01*
X43782804Y-83416093D01*
X43601784Y-83597113D01*
X42897507Y-83597113D01*
X42716487Y-83416093D01*
X42535467Y-83597113D01*
X41831190Y-83597113D01*
X41650170Y-83416093D01*
X41469150Y-83597113D01*
X40764873Y-83597113D01*
X40583853Y-83416093D01*
X40402833Y-83597113D01*
X39698556Y-83597113D01*
X39517536Y-83416093D01*
X39336516Y-83597113D01*
X38632239Y-83597113D01*
X38451219Y-83416093D01*
X38325632Y-83541680D01*
X38325344Y-83652258D01*
X37699342Y-83652258D01*
X37699953Y-83418115D01*
X37699953Y-83418114D01*
X37700000Y-83400000D01*
X37481014Y-83400000D01*
X37445516Y-83394896D01*
X37409669Y-83384370D01*
X37409665Y-83384369D01*
X37405346Y-83383101D01*
X37400898Y-83382461D01*
X37400891Y-83382460D01*
X37353448Y-83375639D01*
X37353441Y-83375639D01*
X37349000Y-83375000D01*
X37344504Y-83375000D01*
X33411882Y-83375001D01*
X33301000Y-83375001D01*
X33232879Y-83354999D01*
X33186386Y-83301343D01*
X33175000Y-83249001D01*
X33175000Y-83063955D01*
X38803357Y-83063955D01*
X38984377Y-83244975D01*
X39165397Y-83063955D01*
X39869674Y-83063955D01*
X40050694Y-83244975D01*
X40231713Y-83063955D01*
X40935991Y-83063955D01*
X41117011Y-83244975D01*
X41298030Y-83063955D01*
X42002308Y-83063955D01*
X42183328Y-83244975D01*
X42364347Y-83063955D01*
X43068625Y-83063955D01*
X43249645Y-83244975D01*
X43430664Y-83063955D01*
X44134942Y-83063955D01*
X44315962Y-83244975D01*
X44496981Y-83063955D01*
X45201259Y-83063955D01*
X45382279Y-83244975D01*
X45563298Y-83063955D01*
X46267576Y-83063955D01*
X46448596Y-83244975D01*
X46629615Y-83063955D01*
X47333893Y-83063955D01*
X47514913Y-83244975D01*
X47695934Y-83063955D01*
X47514914Y-82882935D01*
X47333893Y-83063955D01*
X46629615Y-83063955D01*
X46629616Y-83063954D01*
X46448597Y-82882935D01*
X46267576Y-83063955D01*
X45563298Y-83063955D01*
X45563299Y-83063954D01*
X45382280Y-82882935D01*
X45201259Y-83063955D01*
X44496981Y-83063955D01*
X44496982Y-83063954D01*
X44315963Y-82882935D01*
X44134942Y-83063955D01*
X43430664Y-83063955D01*
X43430665Y-83063954D01*
X43249646Y-82882935D01*
X43068625Y-83063955D01*
X42364347Y-83063955D01*
X42364348Y-83063954D01*
X42183329Y-82882935D01*
X42002308Y-83063955D01*
X41298030Y-83063955D01*
X41298031Y-83063954D01*
X41117012Y-82882935D01*
X40935991Y-83063955D01*
X40231713Y-83063955D01*
X40231714Y-83063954D01*
X40050695Y-82882935D01*
X39869674Y-83063955D01*
X39165397Y-83063955D01*
X38984377Y-82882935D01*
X38803357Y-83063955D01*
X33175000Y-83063955D01*
X33175000Y-82530796D01*
X34004931Y-82530796D01*
X34185951Y-82711816D01*
X34366971Y-82530796D01*
X35071248Y-82530796D01*
X35252268Y-82711816D01*
X35433288Y-82530796D01*
X36137565Y-82530796D01*
X36318585Y-82711816D01*
X36499605Y-82530796D01*
X37203882Y-82530796D01*
X37384902Y-82711816D01*
X37565922Y-82530796D01*
X38270199Y-82530796D01*
X38451219Y-82711816D01*
X38632239Y-82530796D01*
X39336516Y-82530796D01*
X39517536Y-82711816D01*
X39698556Y-82530796D01*
X40402833Y-82530796D01*
X40583853Y-82711816D01*
X40764873Y-82530796D01*
X41469150Y-82530796D01*
X41650170Y-82711816D01*
X41831190Y-82530796D01*
X42535467Y-82530796D01*
X42716487Y-82711816D01*
X42897507Y-82530796D01*
X43601784Y-82530796D01*
X43782804Y-82711816D01*
X43963824Y-82530796D01*
X44668101Y-82530796D01*
X44849121Y-82711816D01*
X45030141Y-82530796D01*
X45734418Y-82530796D01*
X45915438Y-82711816D01*
X46096458Y-82530796D01*
X46800735Y-82530796D01*
X46981755Y-82711816D01*
X47162775Y-82530796D01*
X46981755Y-82349776D01*
X46800735Y-82530796D01*
X46096458Y-82530796D01*
X45915438Y-82349776D01*
X45734418Y-82530796D01*
X45030141Y-82530796D01*
X44849121Y-82349776D01*
X44668101Y-82530796D01*
X43963824Y-82530796D01*
X43782804Y-82349776D01*
X43601784Y-82530796D01*
X42897507Y-82530796D01*
X42716487Y-82349776D01*
X42535467Y-82530796D01*
X41831190Y-82530796D01*
X41650170Y-82349776D01*
X41469150Y-82530796D01*
X40764873Y-82530796D01*
X40583853Y-82349776D01*
X40402833Y-82530796D01*
X39698556Y-82530796D01*
X39517536Y-82349776D01*
X39336516Y-82530796D01*
X38632239Y-82530796D01*
X38451219Y-82349776D01*
X38270199Y-82530796D01*
X37565922Y-82530796D01*
X37384902Y-82349776D01*
X37203882Y-82530796D01*
X36499605Y-82530796D01*
X36318585Y-82349776D01*
X36137565Y-82530796D01*
X35433288Y-82530796D01*
X35252268Y-82349776D01*
X35071248Y-82530796D01*
X34366971Y-82530796D01*
X34185951Y-82349776D01*
X34004931Y-82530796D01*
X33175000Y-82530796D01*
X33175000Y-82276000D01*
X33170430Y-82233488D01*
X33159044Y-82181146D01*
X33156622Y-82171238D01*
X33134307Y-82129361D01*
X33702087Y-82129361D01*
X33833812Y-81997637D01*
X34538089Y-81997637D01*
X34719109Y-82178657D01*
X34900129Y-81997637D01*
X35604406Y-81997637D01*
X35785426Y-82178657D01*
X35966446Y-81997637D01*
X36670723Y-81997637D01*
X36851743Y-82178657D01*
X37032763Y-81997637D01*
X37737040Y-81997637D01*
X37918060Y-82178657D01*
X38099080Y-81997637D01*
X38803357Y-81997637D01*
X38984377Y-82178657D01*
X39165397Y-81997637D01*
X39869674Y-81997637D01*
X40050695Y-82178657D01*
X40231714Y-81997638D01*
X40231713Y-81997637D01*
X40935991Y-81997637D01*
X41117012Y-82178657D01*
X41298031Y-81997638D01*
X41298030Y-81997637D01*
X42002308Y-81997637D01*
X42183329Y-82178657D01*
X42364348Y-81997638D01*
X42364347Y-81997637D01*
X43068625Y-81997637D01*
X43249646Y-82178657D01*
X43430665Y-81997638D01*
X43430664Y-81997637D01*
X44134942Y-81997637D01*
X44315963Y-82178657D01*
X44496982Y-81997638D01*
X44496981Y-81997637D01*
X45201259Y-81997637D01*
X45382280Y-82178657D01*
X45563299Y-81997638D01*
X45563298Y-81997637D01*
X46267576Y-81997637D01*
X46448597Y-82178657D01*
X46629616Y-81997638D01*
X46629615Y-81997637D01*
X47333893Y-81997637D01*
X47514914Y-82178657D01*
X47695933Y-81997638D01*
X47514913Y-81816617D01*
X47333893Y-81997637D01*
X46629615Y-81997637D01*
X46448596Y-81816617D01*
X46267576Y-81997637D01*
X45563298Y-81997637D01*
X45382279Y-81816617D01*
X45201259Y-81997637D01*
X44496981Y-81997637D01*
X44315962Y-81816617D01*
X44134942Y-81997637D01*
X43430664Y-81997637D01*
X43249645Y-81816617D01*
X43068625Y-81997637D01*
X42364347Y-81997637D01*
X42183328Y-81816617D01*
X42002308Y-81997637D01*
X41298030Y-81997637D01*
X41117011Y-81816617D01*
X40935991Y-81997637D01*
X40231713Y-81997637D01*
X40050694Y-81816617D01*
X39869674Y-81997637D01*
X39165397Y-81997637D01*
X38984377Y-81816617D01*
X38803357Y-81997637D01*
X38099080Y-81997637D01*
X37918060Y-81816617D01*
X37737040Y-81997637D01*
X37032763Y-81997637D01*
X36851743Y-81816617D01*
X36670723Y-81997637D01*
X35966446Y-81997637D01*
X35785426Y-81816617D01*
X35604406Y-81997637D01*
X34900129Y-81997637D01*
X34797643Y-81895151D01*
X34767547Y-81915260D01*
X34722127Y-81934074D01*
X34649206Y-81948579D01*
X34624624Y-81951000D01*
X34584726Y-81951000D01*
X34538089Y-81997637D01*
X33833812Y-81997637D01*
X33739317Y-81903142D01*
X33707247Y-81881714D01*
X33702087Y-82129361D01*
X33134307Y-82129361D01*
X33114764Y-82092686D01*
X33109370Y-82086461D01*
X33109057Y-82085775D01*
X33106124Y-82081505D01*
X33106872Y-82080991D01*
X33079874Y-82021881D01*
X33078618Y-82001320D01*
X33079667Y-81951000D01*
X33089735Y-81467744D01*
X33089752Y-81467055D01*
X33089820Y-81464479D01*
X35071248Y-81464479D01*
X35252268Y-81645499D01*
X35433288Y-81464479D01*
X36137565Y-81464479D01*
X36318585Y-81645499D01*
X36499605Y-81464479D01*
X37203882Y-81464479D01*
X37384902Y-81645499D01*
X37565922Y-81464479D01*
X38270199Y-81464479D01*
X38451219Y-81645499D01*
X38632239Y-81464479D01*
X39336516Y-81464479D01*
X39517536Y-81645499D01*
X39698556Y-81464479D01*
X40402833Y-81464479D01*
X40583853Y-81645499D01*
X40764873Y-81464479D01*
X41469150Y-81464479D01*
X41650170Y-81645499D01*
X41831190Y-81464479D01*
X42535467Y-81464479D01*
X42716487Y-81645499D01*
X42897507Y-81464479D01*
X43601784Y-81464479D01*
X43782804Y-81645499D01*
X43963824Y-81464479D01*
X44668101Y-81464479D01*
X44849121Y-81645499D01*
X45030141Y-81464479D01*
X45734418Y-81464479D01*
X45915438Y-81645499D01*
X46096458Y-81464479D01*
X46800735Y-81464479D01*
X46981755Y-81645499D01*
X47162775Y-81464479D01*
X46991796Y-81293500D01*
X46971714Y-81293500D01*
X46800735Y-81464479D01*
X46096458Y-81464479D01*
X45921491Y-81289512D01*
X45919209Y-81289287D01*
X45913072Y-81288530D01*
X45910716Y-81288181D01*
X45734418Y-81464479D01*
X45030141Y-81464479D01*
X44849121Y-81283459D01*
X44668101Y-81464479D01*
X43963824Y-81464479D01*
X43782804Y-81283459D01*
X43601784Y-81464479D01*
X42897507Y-81464479D01*
X42716487Y-81283459D01*
X42535467Y-81464479D01*
X41831190Y-81464479D01*
X41650170Y-81283459D01*
X41469150Y-81464479D01*
X40764873Y-81464479D01*
X40583853Y-81283459D01*
X40402833Y-81464479D01*
X39698556Y-81464479D01*
X39517536Y-81283459D01*
X39336516Y-81464479D01*
X38632239Y-81464479D01*
X38451219Y-81283459D01*
X38270199Y-81464479D01*
X37565922Y-81464479D01*
X37384902Y-81283459D01*
X37203882Y-81464479D01*
X36499605Y-81464479D01*
X36318585Y-81283459D01*
X36137565Y-81464479D01*
X35433288Y-81464479D01*
X35252268Y-81283459D01*
X35071248Y-81464479D01*
X33089820Y-81464479D01*
X33093168Y-81337218D01*
X33096527Y-81209574D01*
X33096215Y-81206007D01*
X33096214Y-81205988D01*
X33095981Y-81203331D01*
X33095527Y-81189713D01*
X33099623Y-80993110D01*
X33099623Y-80993109D01*
X33100000Y-80975000D01*
X33085790Y-80975000D01*
X33073437Y-80972178D01*
X33011483Y-80937507D01*
X33008188Y-80931320D01*
X35604406Y-80931320D01*
X35785426Y-81112340D01*
X35966446Y-80931320D01*
X36670723Y-80931320D01*
X36851743Y-81112340D01*
X37032763Y-80931320D01*
X37737040Y-80931320D01*
X37918060Y-81112340D01*
X38099080Y-80931320D01*
X38803357Y-80931320D01*
X38984377Y-81112340D01*
X39165397Y-80931320D01*
X39869674Y-80931320D01*
X40050695Y-81112340D01*
X40231714Y-80931321D01*
X40231713Y-80931320D01*
X40935991Y-80931320D01*
X41117012Y-81112340D01*
X41298031Y-80931321D01*
X41298030Y-80931320D01*
X42002308Y-80931320D01*
X42183329Y-81112340D01*
X42364348Y-80931321D01*
X42364347Y-80931320D01*
X43068625Y-80931320D01*
X43249646Y-81112340D01*
X43430665Y-80931321D01*
X43430664Y-80931320D01*
X44134942Y-80931320D01*
X44315963Y-81112340D01*
X44496982Y-80931321D01*
X44496981Y-80931320D01*
X45201259Y-80931320D01*
X45382280Y-81112340D01*
X45457631Y-81036989D01*
X45448744Y-81026161D01*
X45441378Y-81016230D01*
X45397063Y-80949909D01*
X45390706Y-80939302D01*
X45367971Y-80896768D01*
X45362684Y-80885589D01*
X45343870Y-80840167D01*
X45339704Y-80828525D01*
X45331407Y-80801172D01*
X45201259Y-80931320D01*
X44496981Y-80931320D01*
X44315962Y-80750300D01*
X44134942Y-80931320D01*
X43430664Y-80931320D01*
X43249645Y-80750300D01*
X43068625Y-80931320D01*
X42364347Y-80931320D01*
X42183328Y-80750300D01*
X42002308Y-80931320D01*
X41298030Y-80931320D01*
X41117011Y-80750300D01*
X40935991Y-80931320D01*
X40231713Y-80931320D01*
X40050694Y-80750300D01*
X39869674Y-80931320D01*
X39165397Y-80931320D01*
X38984377Y-80750300D01*
X38803357Y-80931320D01*
X38099080Y-80931320D01*
X37918060Y-80750300D01*
X37737040Y-80931320D01*
X37032763Y-80931320D01*
X36851743Y-80750300D01*
X36670723Y-80931320D01*
X35966446Y-80931320D01*
X35785426Y-80750300D01*
X35604406Y-80931320D01*
X33008188Y-80931320D01*
X32978108Y-80874844D01*
X32975500Y-80849343D01*
X32975500Y-80571166D01*
X32972519Y-80539631D01*
X32927634Y-80411816D01*
X32922042Y-80404246D01*
X32922041Y-80404243D01*
X32917549Y-80398162D01*
X35071248Y-80398162D01*
X35252268Y-80579182D01*
X35433288Y-80398162D01*
X36137565Y-80398162D01*
X36318585Y-80579182D01*
X36499605Y-80398162D01*
X37203882Y-80398162D01*
X37384902Y-80579182D01*
X37565922Y-80398162D01*
X40402833Y-80398162D01*
X40583853Y-80579182D01*
X40764873Y-80398162D01*
X41469150Y-80398162D01*
X41650170Y-80579182D01*
X41831190Y-80398162D01*
X42535467Y-80398162D01*
X42716487Y-80579182D01*
X42897507Y-80398162D01*
X43601784Y-80398162D01*
X43782804Y-80579182D01*
X43963824Y-80398162D01*
X44668101Y-80398162D01*
X44849121Y-80579182D01*
X45030141Y-80398162D01*
X44849121Y-80217142D01*
X44668101Y-80398162D01*
X43963824Y-80398162D01*
X43782804Y-80217142D01*
X43601784Y-80398162D01*
X42897507Y-80398162D01*
X42716487Y-80217142D01*
X42535467Y-80398162D01*
X41831190Y-80398162D01*
X41650170Y-80217142D01*
X41469150Y-80398162D01*
X40764873Y-80398162D01*
X40583853Y-80217142D01*
X40402833Y-80398162D01*
X37565922Y-80398162D01*
X37384902Y-80217142D01*
X37203882Y-80398162D01*
X36499605Y-80398162D01*
X36318585Y-80217142D01*
X36137565Y-80398162D01*
X35433288Y-80398162D01*
X35252268Y-80217142D01*
X35071248Y-80398162D01*
X32917549Y-80398162D01*
X32852742Y-80310421D01*
X32847150Y-80302850D01*
X32830206Y-80290335D01*
X32774244Y-80249000D01*
X34154094Y-80249000D01*
X34217809Y-80249000D01*
X34185951Y-80217142D01*
X34154094Y-80249000D01*
X32774244Y-80249000D01*
X32745757Y-80227959D01*
X32745754Y-80227958D01*
X32738184Y-80222366D01*
X32729301Y-80219247D01*
X32729300Y-80219246D01*
X32684253Y-80203427D01*
X32626607Y-80161984D01*
X32600518Y-80095955D01*
X32600000Y-80084544D01*
X32600000Y-79983000D01*
X33589769Y-79983000D01*
X33652792Y-80046023D01*
X33715815Y-79983000D01*
X34656086Y-79983000D01*
X34719109Y-80046023D01*
X34782132Y-79983000D01*
X34656086Y-79983000D01*
X33715815Y-79983000D01*
X33589769Y-79983000D01*
X32600000Y-79983000D01*
X32600000Y-79865003D01*
X35604406Y-79865003D01*
X35785426Y-80046023D01*
X35966446Y-79865003D01*
X36670723Y-79865003D01*
X36851743Y-80046023D01*
X37032763Y-79865003D01*
X37737040Y-79865003D01*
X37874000Y-80001963D01*
X37874000Y-79759290D01*
X40126000Y-79759290D01*
X40126000Y-79970718D01*
X40231714Y-79865004D01*
X40231713Y-79865003D01*
X40935991Y-79865003D01*
X41117012Y-80046023D01*
X41298031Y-79865004D01*
X41298030Y-79865003D01*
X42002308Y-79865003D01*
X42183329Y-80046023D01*
X42364348Y-79865004D01*
X42364347Y-79865003D01*
X43068625Y-79865003D01*
X43249646Y-80046023D01*
X43430665Y-79865004D01*
X43430664Y-79865003D01*
X44134942Y-79865003D01*
X44315963Y-80046023D01*
X44496982Y-79865004D01*
X44496981Y-79865003D01*
X45201259Y-79865003D01*
X45301500Y-79965244D01*
X45301500Y-79764762D01*
X45201259Y-79865003D01*
X44496981Y-79865003D01*
X44315962Y-79683983D01*
X44134942Y-79865003D01*
X43430664Y-79865003D01*
X43249645Y-79683983D01*
X43068625Y-79865003D01*
X42364347Y-79865003D01*
X42183328Y-79683983D01*
X42002308Y-79865003D01*
X41298030Y-79865003D01*
X41117011Y-79683983D01*
X40935991Y-79865003D01*
X40231713Y-79865003D01*
X40126000Y-79759290D01*
X37874000Y-79759290D01*
X37874000Y-79728043D01*
X37737040Y-79865003D01*
X37032763Y-79865003D01*
X36851743Y-79683983D01*
X36670723Y-79865003D01*
X35966446Y-79865003D01*
X35785426Y-79683983D01*
X35604406Y-79865003D01*
X32600000Y-79865003D01*
X32600000Y-79804826D01*
X32599760Y-79795026D01*
X32599651Y-79792803D01*
X32599500Y-79786630D01*
X32599500Y-79331845D01*
X35071248Y-79331845D01*
X35252268Y-79512865D01*
X35433288Y-79331845D01*
X36137565Y-79331845D01*
X36318585Y-79512865D01*
X36499605Y-79331845D01*
X37203882Y-79331845D01*
X37384902Y-79512865D01*
X37565922Y-79331845D01*
X40402833Y-79331845D01*
X40583853Y-79512865D01*
X40764873Y-79331845D01*
X41469150Y-79331845D01*
X41650170Y-79512865D01*
X41831190Y-79331845D01*
X42535467Y-79331845D01*
X42716487Y-79512865D01*
X42897507Y-79331845D01*
X43601784Y-79331845D01*
X43782804Y-79512865D01*
X43963824Y-79331845D01*
X44668101Y-79331845D01*
X44849121Y-79512865D01*
X45030141Y-79331845D01*
X44849121Y-79150825D01*
X44668101Y-79331845D01*
X43963824Y-79331845D01*
X43782804Y-79150825D01*
X43601784Y-79331845D01*
X42897507Y-79331845D01*
X42716487Y-79150825D01*
X42535467Y-79331845D01*
X41831190Y-79331845D01*
X41650170Y-79150825D01*
X41469150Y-79331845D01*
X40764873Y-79331845D01*
X40583853Y-79150825D01*
X40402833Y-79331845D01*
X37565922Y-79331845D01*
X37384902Y-79150825D01*
X37203882Y-79331845D01*
X36499605Y-79331845D01*
X36318585Y-79150825D01*
X36137565Y-79331845D01*
X35433288Y-79331845D01*
X35252268Y-79150825D01*
X35071248Y-79331845D01*
X32599500Y-79331845D01*
X32599500Y-79173370D01*
X32599651Y-79167197D01*
X32599722Y-79165751D01*
X32599722Y-79165741D01*
X32599760Y-79164974D01*
X32600000Y-79155174D01*
X32600000Y-78798686D01*
X33471772Y-78798686D01*
X33650086Y-78977000D01*
X33655498Y-78977000D01*
X33833812Y-78798686D01*
X34538089Y-78798686D01*
X34716403Y-78977000D01*
X34721815Y-78977000D01*
X34900129Y-78798686D01*
X35604406Y-78798686D01*
X35785426Y-78979706D01*
X35966446Y-78798686D01*
X36670723Y-78798686D01*
X36851743Y-78979706D01*
X37032763Y-78798686D01*
X37737040Y-78798686D01*
X37874000Y-78935646D01*
X37874000Y-78692973D01*
X40126000Y-78692973D01*
X40126000Y-78904401D01*
X40231714Y-78798687D01*
X40231713Y-78798686D01*
X40935991Y-78798686D01*
X41117012Y-78979706D01*
X41298031Y-78798687D01*
X41298030Y-78798686D01*
X42002308Y-78798686D01*
X42183329Y-78979706D01*
X42364348Y-78798687D01*
X42364347Y-78798686D01*
X43068625Y-78798686D01*
X43249646Y-78979706D01*
X43430665Y-78798687D01*
X43430664Y-78798686D01*
X44134942Y-78798686D01*
X44315963Y-78979706D01*
X44496982Y-78798687D01*
X44496981Y-78798686D01*
X45201259Y-78798686D01*
X45301500Y-78898927D01*
X45301500Y-78698445D01*
X45201259Y-78798686D01*
X44496981Y-78798686D01*
X44315962Y-78617666D01*
X44134942Y-78798686D01*
X43430664Y-78798686D01*
X43249645Y-78617666D01*
X43068625Y-78798686D01*
X42364347Y-78798686D01*
X42183328Y-78617666D01*
X42002308Y-78798686D01*
X41298030Y-78798686D01*
X41117011Y-78617666D01*
X40935991Y-78798686D01*
X40231713Y-78798686D01*
X40126000Y-78692973D01*
X37874000Y-78692973D01*
X37874000Y-78661726D01*
X37737040Y-78798686D01*
X37032763Y-78798686D01*
X36851743Y-78617666D01*
X36670723Y-78798686D01*
X35966446Y-78798686D01*
X35785426Y-78617666D01*
X35604406Y-78798686D01*
X34900129Y-78798686D01*
X34813828Y-78712385D01*
X34807586Y-78713000D01*
X34623775Y-78713000D01*
X34538089Y-78798686D01*
X33833812Y-78798686D01*
X33748126Y-78713000D01*
X33557458Y-78713000D01*
X33471772Y-78798686D01*
X32600000Y-78798686D01*
X32600000Y-78534826D01*
X32599760Y-78525026D01*
X32599651Y-78522803D01*
X32599500Y-78516630D01*
X32599500Y-78265528D01*
X35071248Y-78265528D01*
X35252268Y-78446548D01*
X35399000Y-78299816D01*
X35399000Y-78265528D01*
X37203882Y-78265528D01*
X37384902Y-78446548D01*
X37565922Y-78265528D01*
X38270199Y-78265528D01*
X38451219Y-78446548D01*
X38632239Y-78265528D01*
X39336516Y-78265528D01*
X39517536Y-78446548D01*
X39698556Y-78265528D01*
X40402833Y-78265528D01*
X40583853Y-78446548D01*
X40764873Y-78265528D01*
X41469150Y-78265528D01*
X41650170Y-78446548D01*
X41831190Y-78265528D01*
X42535467Y-78265528D01*
X42716487Y-78446548D01*
X42897507Y-78265528D01*
X43601784Y-78265528D01*
X43782804Y-78446548D01*
X43963824Y-78265528D01*
X44668101Y-78265528D01*
X44849121Y-78446548D01*
X45030141Y-78265528D01*
X44849121Y-78084508D01*
X44668101Y-78265528D01*
X43963824Y-78265528D01*
X43782804Y-78084508D01*
X43601784Y-78265528D01*
X42897507Y-78265528D01*
X42716487Y-78084508D01*
X42535467Y-78265528D01*
X41831190Y-78265528D01*
X41650170Y-78084508D01*
X41469150Y-78265528D01*
X40764873Y-78265528D01*
X40583853Y-78084508D01*
X40402833Y-78265528D01*
X39698556Y-78265528D01*
X39517536Y-78084508D01*
X39336516Y-78265528D01*
X38632239Y-78265528D01*
X38451219Y-78084508D01*
X38270199Y-78265528D01*
X37565922Y-78265528D01*
X37384902Y-78084508D01*
X37203882Y-78265528D01*
X35399000Y-78265528D01*
X35399000Y-78231240D01*
X35252268Y-78084508D01*
X35071248Y-78265528D01*
X32599500Y-78265528D01*
X32599500Y-77903370D01*
X32599651Y-77897197D01*
X32599722Y-77895751D01*
X32599722Y-77895741D01*
X32599760Y-77894974D01*
X32600000Y-77885174D01*
X32600000Y-77707000D01*
X33497141Y-77707000D01*
X33808443Y-77707000D01*
X34563458Y-77707000D01*
X34807586Y-77707000D01*
X34832166Y-77709421D01*
X34854624Y-77713888D01*
X34899868Y-77732629D01*
X34900129Y-77732369D01*
X34723945Y-77556185D01*
X36846907Y-77556185D01*
X36851000Y-77575000D01*
X36851000Y-77912647D01*
X36851742Y-77913389D01*
X37032763Y-77732369D01*
X37737040Y-77732369D01*
X37918060Y-77913389D01*
X38038035Y-77793414D01*
X38864402Y-77793414D01*
X38984377Y-77913389D01*
X39098295Y-77799470D01*
X39071728Y-77802262D01*
X38902322Y-77799601D01*
X38872328Y-77795493D01*
X38864402Y-77793414D01*
X38038035Y-77793414D01*
X38099080Y-77732369D01*
X39869674Y-77732369D01*
X40050695Y-77913389D01*
X40231714Y-77732370D01*
X40231713Y-77732369D01*
X40935991Y-77732369D01*
X41117012Y-77913389D01*
X41298031Y-77732370D01*
X41298030Y-77732369D01*
X42002308Y-77732369D01*
X42183329Y-77913389D01*
X42364348Y-77732370D01*
X42364347Y-77732369D01*
X43068625Y-77732369D01*
X43249646Y-77913389D01*
X43430665Y-77732370D01*
X43430664Y-77732369D01*
X44134942Y-77732369D01*
X44315963Y-77913389D01*
X44496982Y-77732370D01*
X44496981Y-77732369D01*
X45201259Y-77732369D01*
X45382280Y-77913389D01*
X45563299Y-77732370D01*
X45563298Y-77732369D01*
X46267576Y-77732369D01*
X46431707Y-77896500D01*
X46465486Y-77896500D01*
X46629616Y-77732370D01*
X46629615Y-77732369D01*
X47333893Y-77732369D01*
X47498024Y-77896500D01*
X47531803Y-77896500D01*
X47695933Y-77732370D01*
X47514913Y-77551349D01*
X47333893Y-77732369D01*
X46629615Y-77732369D01*
X46448596Y-77551349D01*
X46267576Y-77732369D01*
X45563298Y-77732369D01*
X45382279Y-77551349D01*
X45201259Y-77732369D01*
X44496981Y-77732369D01*
X44315962Y-77551349D01*
X44134942Y-77732369D01*
X43430664Y-77732369D01*
X43249645Y-77551349D01*
X43068625Y-77732369D01*
X42364347Y-77732369D01*
X42183328Y-77551349D01*
X42002308Y-77732369D01*
X41298030Y-77732369D01*
X41117011Y-77551349D01*
X40935991Y-77732369D01*
X40231713Y-77732369D01*
X40050694Y-77551349D01*
X39869674Y-77732369D01*
X38099080Y-77732369D01*
X37918060Y-77551349D01*
X37737040Y-77732369D01*
X37032763Y-77732369D01*
X36851743Y-77551349D01*
X36846907Y-77556185D01*
X34723945Y-77556185D01*
X34719109Y-77551349D01*
X34563458Y-77707000D01*
X33808443Y-77707000D01*
X33652792Y-77551349D01*
X33497141Y-77707000D01*
X32600000Y-77707000D01*
X32600000Y-77264826D01*
X32599760Y-77255026D01*
X32599651Y-77252803D01*
X32599500Y-77246630D01*
X32599500Y-77199211D01*
X35071248Y-77199211D01*
X35252268Y-77380231D01*
X35433288Y-77199211D01*
X36137565Y-77199211D01*
X36318585Y-77380231D01*
X36499605Y-77199211D01*
X37203882Y-77199211D01*
X37384902Y-77380231D01*
X37565922Y-77199211D01*
X40402833Y-77199211D01*
X40583853Y-77380231D01*
X40764873Y-77199211D01*
X41469150Y-77199211D01*
X41650170Y-77380231D01*
X41831190Y-77199211D01*
X42535467Y-77199211D01*
X42716487Y-77380231D01*
X42897507Y-77199211D01*
X43601784Y-77199211D01*
X43782804Y-77380231D01*
X43963824Y-77199211D01*
X44668101Y-77199211D01*
X44849121Y-77380231D01*
X45030141Y-77199211D01*
X45734418Y-77199211D01*
X45915438Y-77380231D01*
X46096458Y-77199211D01*
X46800735Y-77199211D01*
X46981755Y-77380231D01*
X47162775Y-77199211D01*
X46981755Y-77018191D01*
X46800735Y-77199211D01*
X46096458Y-77199211D01*
X45915438Y-77018191D01*
X45734418Y-77199211D01*
X45030141Y-77199211D01*
X44849121Y-77018191D01*
X44668101Y-77199211D01*
X43963824Y-77199211D01*
X43782804Y-77018191D01*
X43601784Y-77199211D01*
X42897507Y-77199211D01*
X42716487Y-77018191D01*
X42535467Y-77199211D01*
X41831190Y-77199211D01*
X41650170Y-77018191D01*
X41469150Y-77199211D01*
X40764873Y-77199211D01*
X40583853Y-77018191D01*
X40402833Y-77199211D01*
X37565922Y-77199211D01*
X37384902Y-77018191D01*
X37203882Y-77199211D01*
X36499605Y-77199211D01*
X36318585Y-77018191D01*
X36137565Y-77199211D01*
X35433288Y-77199211D01*
X35252268Y-77018191D01*
X35071248Y-77199211D01*
X32599500Y-77199211D01*
X32599500Y-76666052D01*
X35604406Y-76666052D01*
X35785426Y-76847072D01*
X35966446Y-76666052D01*
X36670723Y-76666052D01*
X36851743Y-76847072D01*
X37032763Y-76666052D01*
X37737040Y-76666052D01*
X37918060Y-76847072D01*
X38099080Y-76666052D01*
X39869674Y-76666052D01*
X40050695Y-76847072D01*
X40231714Y-76666053D01*
X40231713Y-76666052D01*
X40935991Y-76666052D01*
X41117012Y-76847072D01*
X41298031Y-76666053D01*
X41298030Y-76666052D01*
X42002308Y-76666052D01*
X42183329Y-76847072D01*
X42364348Y-76666053D01*
X42364347Y-76666052D01*
X43068625Y-76666052D01*
X43249646Y-76847072D01*
X43430665Y-76666053D01*
X43430664Y-76666052D01*
X44134942Y-76666052D01*
X44315963Y-76847072D01*
X44496982Y-76666053D01*
X44496981Y-76666052D01*
X45201259Y-76666052D01*
X45382280Y-76847072D01*
X45563299Y-76666053D01*
X45563298Y-76666052D01*
X46267576Y-76666052D01*
X46448597Y-76847072D01*
X46629616Y-76666053D01*
X46629615Y-76666052D01*
X47333893Y-76666052D01*
X47514914Y-76847072D01*
X47695933Y-76666053D01*
X47514913Y-76485032D01*
X47333893Y-76666052D01*
X46629615Y-76666052D01*
X46448596Y-76485032D01*
X46267576Y-76666052D01*
X45563298Y-76666052D01*
X45382279Y-76485032D01*
X45201259Y-76666052D01*
X44496981Y-76666052D01*
X44315962Y-76485032D01*
X44134942Y-76666052D01*
X43430664Y-76666052D01*
X43249645Y-76485032D01*
X43068625Y-76666052D01*
X42364347Y-76666052D01*
X42183328Y-76485032D01*
X42002308Y-76666052D01*
X41298030Y-76666052D01*
X41117011Y-76485032D01*
X40935991Y-76666052D01*
X40231713Y-76666052D01*
X40050694Y-76485032D01*
X39869674Y-76666052D01*
X38099080Y-76666052D01*
X37918060Y-76485032D01*
X37737040Y-76666052D01*
X37032763Y-76666052D01*
X36851743Y-76485032D01*
X36670723Y-76666052D01*
X35966446Y-76666052D01*
X35785426Y-76485032D01*
X35604406Y-76666052D01*
X32599500Y-76666052D01*
X32599500Y-76633370D01*
X32599651Y-76627197D01*
X32599722Y-76625751D01*
X32599722Y-76625741D01*
X32599760Y-76624974D01*
X32600000Y-76615174D01*
X32600000Y-76173000D01*
X33136006Y-76173000D01*
X33137035Y-76296513D01*
X33260548Y-76173000D01*
X34045037Y-76173000D01*
X34185951Y-76313914D01*
X34326865Y-76173000D01*
X34045037Y-76173000D01*
X33260548Y-76173000D01*
X33136006Y-76173000D01*
X32600000Y-76173000D01*
X32600000Y-76132894D01*
X35071248Y-76132894D01*
X35252268Y-76313914D01*
X35433288Y-76132894D01*
X36137565Y-76132894D01*
X36318585Y-76313914D01*
X36499605Y-76132894D01*
X37203882Y-76132894D01*
X37384902Y-76313914D01*
X37565922Y-76132894D01*
X38270199Y-76132894D01*
X38451219Y-76313914D01*
X38632239Y-76132894D01*
X39336516Y-76132894D01*
X39517536Y-76313914D01*
X39698556Y-76132894D01*
X40402833Y-76132894D01*
X40583853Y-76313914D01*
X40764873Y-76132894D01*
X41469150Y-76132894D01*
X41650170Y-76313914D01*
X41831190Y-76132894D01*
X42535467Y-76132894D01*
X42716487Y-76313914D01*
X42897507Y-76132894D01*
X43601784Y-76132894D01*
X43782804Y-76313914D01*
X43963824Y-76132894D01*
X44668101Y-76132894D01*
X44849121Y-76313914D01*
X45030141Y-76132894D01*
X45734418Y-76132894D01*
X45915438Y-76313914D01*
X46096458Y-76132894D01*
X46800735Y-76132894D01*
X46981755Y-76313914D01*
X47162775Y-76132894D01*
X46981755Y-75951874D01*
X46800735Y-76132894D01*
X46096458Y-76132894D01*
X45915438Y-75951874D01*
X45734418Y-76132894D01*
X45030141Y-76132894D01*
X44849121Y-75951874D01*
X44668101Y-76132894D01*
X43963824Y-76132894D01*
X43782804Y-75951874D01*
X43601784Y-76132894D01*
X42897507Y-76132894D01*
X42716487Y-75951874D01*
X42535467Y-76132894D01*
X41831190Y-76132894D01*
X41650170Y-75951874D01*
X41469150Y-76132894D01*
X40764873Y-76132894D01*
X40583853Y-75951874D01*
X40402833Y-76132894D01*
X39698556Y-76132894D01*
X39517536Y-75951874D01*
X39336516Y-76132894D01*
X38632239Y-76132894D01*
X38451219Y-75951874D01*
X38270199Y-76132894D01*
X37565922Y-76132894D01*
X37384902Y-75951874D01*
X37203882Y-76132894D01*
X36499605Y-76132894D01*
X36318585Y-75951874D01*
X36137565Y-76132894D01*
X35433288Y-76132894D01*
X35252268Y-75951874D01*
X35071248Y-76132894D01*
X32600000Y-76132894D01*
X32600000Y-75994826D01*
X32599760Y-75985026D01*
X32599651Y-75982803D01*
X32599500Y-75976630D01*
X32599500Y-75601000D01*
X37738306Y-75601000D01*
X37918060Y-75780755D01*
X38097814Y-75601000D01*
X38804623Y-75601000D01*
X38984377Y-75780755D01*
X39164131Y-75601000D01*
X39870940Y-75601000D01*
X40050695Y-75780755D01*
X40230450Y-75601000D01*
X40937257Y-75601000D01*
X41117012Y-75780755D01*
X41296767Y-75601000D01*
X42003574Y-75601000D01*
X42183329Y-75780755D01*
X42363084Y-75601000D01*
X43069891Y-75601000D01*
X43249646Y-75780755D01*
X43429401Y-75601000D01*
X44136208Y-75601000D01*
X44315963Y-75780755D01*
X44495718Y-75601000D01*
X45202525Y-75601000D01*
X45382280Y-75780755D01*
X45562035Y-75601000D01*
X46268842Y-75601000D01*
X46448597Y-75780755D01*
X46628352Y-75601000D01*
X47335159Y-75601000D01*
X47514914Y-75780755D01*
X47694669Y-75601000D01*
X47335159Y-75601000D01*
X46628352Y-75601000D01*
X46268842Y-75601000D01*
X45562035Y-75601000D01*
X45202525Y-75601000D01*
X44495718Y-75601000D01*
X44136208Y-75601000D01*
X43429401Y-75601000D01*
X43069891Y-75601000D01*
X42363084Y-75601000D01*
X42003574Y-75601000D01*
X41296767Y-75601000D01*
X40937257Y-75601000D01*
X40230450Y-75601000D01*
X39870940Y-75601000D01*
X39164131Y-75601000D01*
X38804623Y-75601000D01*
X38097814Y-75601000D01*
X37738306Y-75601000D01*
X32599500Y-75601000D01*
X32599500Y-75363370D01*
X32599651Y-75357197D01*
X32599722Y-75355751D01*
X32599722Y-75355741D01*
X32599760Y-75354974D01*
X32600000Y-75345174D01*
X32600000Y-75101000D01*
X32620002Y-75032879D01*
X32673658Y-74986386D01*
X32726000Y-74975000D01*
X35198500Y-74975000D01*
X35266621Y-74995002D01*
G37*
%TD.AperFunction*%
%TD*%
M02*
