%TF.GenerationSoftware,KiCad,Pcbnew,(6.0.2)*%
%TF.CreationDate,2022-04-26T10:25:04-06:00*%
%TF.ProjectId,CONEPROJ,434f4e45-5052-44f4-9a2e-6b696361645f,rev?*%
%TF.SameCoordinates,Original*%
%TF.FileFunction,Legend,Bot*%
%TF.FilePolarity,Positive*%
%FSLAX46Y46*%
G04 Gerber Fmt 4.6, Leading zero omitted, Abs format (unit mm)*
G04 Created by KiCad (PCBNEW (6.0.2)) date 2022-04-26 10:25:04*
%MOMM*%
%LPD*%
G01*
G04 APERTURE LIST*
G04 Aperture macros list*
%AMRoundRect*
0 Rectangle with rounded corners*
0 $1 Rounding radius*
0 $2 $3 $4 $5 $6 $7 $8 $9 X,Y pos of 4 corners*
0 Add a 4 corners polygon primitive as box body*
4,1,4,$2,$3,$4,$5,$6,$7,$8,$9,$2,$3,0*
0 Add four circle primitives for the rounded corners*
1,1,$1+$1,$2,$3*
1,1,$1+$1,$4,$5*
1,1,$1+$1,$6,$7*
1,1,$1+$1,$8,$9*
0 Add four rect primitives between the rounded corners*
20,1,$1+$1,$2,$3,$4,$5,0*
20,1,$1+$1,$4,$5,$6,$7,0*
20,1,$1+$1,$6,$7,$8,$9,0*
20,1,$1+$1,$8,$9,$2,$3,0*%
G04 Aperture macros list end*
%ADD10C,0.120000*%
%ADD11C,0.150000*%
%ADD12C,0.062500*%
%ADD13C,0.125000*%
%ADD14C,0.075000*%
%ADD15C,0.203200*%
%ADD16C,0.200000*%
%ADD17C,0.127000*%
%ADD18C,0.010000*%
%ADD19C,5.600000*%
%ADD20C,2.374900*%
%ADD21C,0.990600*%
%ADD22R,2.056000X2.056000*%
%ADD23C,2.056000*%
%ADD24RoundRect,0.150000X0.150000X-0.725000X0.150000X0.725000X-0.150000X0.725000X-0.150000X-0.725000X0*%
%ADD25RoundRect,0.237500X-0.237500X0.250000X-0.237500X-0.250000X0.237500X-0.250000X0.237500X0.250000X0*%
%ADD26R,3.000000X1.200000*%
%ADD27RoundRect,0.250000X0.475000X-0.337500X0.475000X0.337500X-0.475000X0.337500X-0.475000X-0.337500X0*%
%ADD28C,1.000000*%
%ADD29R,2.200000X1.050000*%
%ADD30R,1.050000X1.000000*%
G04 APERTURE END LIST*
D10*
X49450000Y-48250000D02*
X46400000Y-48250000D01*
X47050000Y-51450000D02*
G75*
G03*
X44550000Y-51450000I-1250000J0D01*
G01*
X42850000Y-51400000D02*
G75*
G03*
X40350000Y-51400000I-1250000J0D01*
G01*
X48750000Y-45100000D02*
G75*
G03*
X51250000Y-45100000I1250000J0D01*
G01*
X49950000Y-48550000D02*
X49450000Y-48250000D01*
X81110000Y-51880000D02*
X81100000Y-53750000D01*
X81150000Y-43500000D02*
X82430000Y-43500000D01*
X60400000Y-49490000D02*
X52950000Y-49500000D01*
X38650000Y-46550000D02*
X38350000Y-46250000D01*
X48750000Y-46450000D02*
X47100000Y-46450000D01*
X27750000Y-45050000D02*
G75*
G03*
X30250000Y-45050000I1250000J0D01*
G01*
X34450000Y-51450000D02*
G75*
G03*
X31950000Y-51450000I-1250000J0D01*
G01*
X40550000Y-46250000D02*
X40300000Y-46550000D01*
X51350000Y-50100000D02*
X51350000Y-51450000D01*
X44550000Y-45100000D02*
G75*
G03*
X47050000Y-45100000I1250000J0D01*
G01*
X48600000Y-51450000D02*
X48600000Y-50100000D01*
X38650000Y-51450000D02*
G75*
G03*
X36150000Y-51450000I-1250000J0D01*
G01*
X74290000Y-51860000D02*
X81090000Y-51860000D01*
X49000000Y-46150000D02*
X48750000Y-46450000D01*
X48600000Y-50100000D02*
X51350000Y-50100000D01*
X40350000Y-45100000D02*
G75*
G03*
X42850000Y-45100000I1250000J0D01*
G01*
X52900000Y-53750000D02*
X51200000Y-53750000D01*
X36150000Y-45100000D02*
G75*
G03*
X38650000Y-45100000I1250000J0D01*
G01*
X30250000Y-51450000D02*
G75*
G03*
X27750000Y-51450000I-1250000J0D01*
G01*
X52950000Y-49500000D02*
X52900000Y-53750000D01*
X81100000Y-53750000D02*
X82300000Y-53750000D01*
X32000000Y-45100000D02*
G75*
G03*
X34500000Y-45100000I1250000J0D01*
G01*
X95475000Y-74225000D02*
X99125000Y-74225000D01*
X99125000Y-74225000D02*
X99125000Y-75800000D01*
X99125000Y-75800000D02*
X95475000Y-75800000D01*
X95475000Y-75800000D02*
X95475000Y-74225000D01*
X47100000Y-46450000D02*
X46800000Y-46150000D01*
X40300000Y-46550000D02*
X38650000Y-46550000D01*
X81150000Y-43500000D02*
X81150000Y-47870000D01*
X46400000Y-48250000D02*
X45950000Y-48600000D01*
X74330000Y-47870000D02*
X81130000Y-47870000D01*
D11*
X29619047Y-49802380D02*
X30190476Y-49802380D01*
X29904761Y-49802380D02*
X29904761Y-48802380D01*
X30000000Y-48945238D01*
X30095238Y-49040476D01*
X30190476Y-49088095D01*
X29238095Y-48897619D02*
X29190476Y-48850000D01*
X29095238Y-48802380D01*
X28857142Y-48802380D01*
X28761904Y-48850000D01*
X28714285Y-48897619D01*
X28666666Y-48992857D01*
X28666666Y-49088095D01*
X28714285Y-49230952D01*
X29285714Y-49802380D01*
X28666666Y-49802380D01*
X28380952Y-48802380D02*
X28047619Y-49802380D01*
X27714285Y-48802380D01*
D12*
X31613846Y-80601190D02*
X31639144Y-80613095D01*
X31686763Y-80613095D01*
X31709084Y-80601190D01*
X31719501Y-80589285D01*
X31728430Y-80565476D01*
X31719501Y-80494047D01*
X31704620Y-80470238D01*
X31691227Y-80458333D01*
X31665930Y-80446428D01*
X31618311Y-80446428D01*
X31595989Y-80458333D01*
X31401049Y-80613095D02*
X31384680Y-80482142D01*
X31393608Y-80458333D01*
X31415930Y-80446428D01*
X31463549Y-80446428D01*
X31488846Y-80458333D01*
X31399561Y-80601190D02*
X31424858Y-80613095D01*
X31484382Y-80613095D01*
X31506703Y-80601190D01*
X31515632Y-80577380D01*
X31512656Y-80553571D01*
X31497775Y-80529761D01*
X31472477Y-80517857D01*
X31412953Y-80517857D01*
X31387656Y-80505952D01*
X31261168Y-80446428D02*
X31292418Y-80696428D01*
X31262656Y-80458333D02*
X31237358Y-80446428D01*
X31189739Y-80446428D01*
X31167418Y-80458333D01*
X31157001Y-80470238D01*
X31148072Y-80494047D01*
X31157001Y-80565476D01*
X31171882Y-80589285D01*
X31185275Y-80601190D01*
X31210572Y-80613095D01*
X31258191Y-80613095D01*
X31280513Y-80601190D01*
X30865334Y-80613095D02*
X30834084Y-80363095D01*
X30758191Y-80613095D02*
X30741822Y-80482142D01*
X30750751Y-80458333D01*
X30773072Y-80446428D01*
X30808787Y-80446428D01*
X30834084Y-80458333D01*
X30847477Y-80470238D01*
X30542418Y-80601190D02*
X30567715Y-80613095D01*
X30615334Y-80613095D01*
X30637656Y-80601190D01*
X30646584Y-80577380D01*
X30634680Y-80482142D01*
X30619799Y-80458333D01*
X30594501Y-80446428D01*
X30546882Y-80446428D01*
X30524561Y-80458333D01*
X30515632Y-80482142D01*
X30518608Y-80505952D01*
X30640632Y-80529761D01*
X30424858Y-80613095D02*
X30404025Y-80446428D01*
X30409977Y-80494047D02*
X30395096Y-80470238D01*
X30381703Y-80458333D01*
X30356406Y-80446428D01*
X30332596Y-80446428D01*
X30173370Y-80601190D02*
X30198668Y-80613095D01*
X30246287Y-80613095D01*
X30268608Y-80601190D01*
X30277537Y-80577380D01*
X30265632Y-80482142D01*
X30250751Y-80458333D01*
X30225453Y-80446428D01*
X30177834Y-80446428D01*
X30155513Y-80458333D01*
X30146584Y-80482142D01*
X30149561Y-80505952D01*
X30271584Y-80529761D01*
X97513846Y-75051190D02*
X97539144Y-75063095D01*
X97586763Y-75063095D01*
X97609084Y-75051190D01*
X97619501Y-75039285D01*
X97628430Y-75015476D01*
X97619501Y-74944047D01*
X97604620Y-74920238D01*
X97591227Y-74908333D01*
X97565930Y-74896428D01*
X97518311Y-74896428D01*
X97495989Y-74908333D01*
X97301049Y-75063095D02*
X97284680Y-74932142D01*
X97293608Y-74908333D01*
X97315930Y-74896428D01*
X97363549Y-74896428D01*
X97388846Y-74908333D01*
X97299561Y-75051190D02*
X97324858Y-75063095D01*
X97384382Y-75063095D01*
X97406703Y-75051190D01*
X97415632Y-75027380D01*
X97412656Y-75003571D01*
X97397775Y-74979761D01*
X97372477Y-74967857D01*
X97312953Y-74967857D01*
X97287656Y-74955952D01*
X97161168Y-74896428D02*
X97192418Y-75146428D01*
X97162656Y-74908333D02*
X97137358Y-74896428D01*
X97089739Y-74896428D01*
X97067418Y-74908333D01*
X97057001Y-74920238D01*
X97048072Y-74944047D01*
X97057001Y-75015476D01*
X97071882Y-75039285D01*
X97085275Y-75051190D01*
X97110572Y-75063095D01*
X97158191Y-75063095D01*
X97180513Y-75051190D01*
X96765334Y-75063095D02*
X96734084Y-74813095D01*
X96658191Y-75063095D02*
X96641822Y-74932142D01*
X96650751Y-74908333D01*
X96673072Y-74896428D01*
X96708787Y-74896428D01*
X96734084Y-74908333D01*
X96747477Y-74920238D01*
X96442418Y-75051190D02*
X96467715Y-75063095D01*
X96515334Y-75063095D01*
X96537656Y-75051190D01*
X96546584Y-75027380D01*
X96534680Y-74932142D01*
X96519799Y-74908333D01*
X96494501Y-74896428D01*
X96446882Y-74896428D01*
X96424561Y-74908333D01*
X96415632Y-74932142D01*
X96418608Y-74955952D01*
X96540632Y-74979761D01*
X96324858Y-75063095D02*
X96304025Y-74896428D01*
X96309977Y-74944047D02*
X96295096Y-74920238D01*
X96281703Y-74908333D01*
X96256406Y-74896428D01*
X96232596Y-74896428D01*
X96073370Y-75051190D02*
X96098668Y-75063095D01*
X96146287Y-75063095D01*
X96168608Y-75051190D01*
X96177537Y-75027380D01*
X96165632Y-74932142D01*
X96150751Y-74908333D01*
X96125453Y-74896428D01*
X96077834Y-74896428D01*
X96055513Y-74908333D01*
X96046584Y-74932142D01*
X96049561Y-74955952D01*
X96171584Y-74979761D01*
D11*
X96477142Y-36237619D02*
X96143809Y-36713809D01*
X95905714Y-36237619D02*
X95905714Y-37237619D01*
X96286666Y-37237619D01*
X96381904Y-37190000D01*
X96429523Y-37142380D01*
X96477142Y-37047142D01*
X96477142Y-36904285D01*
X96429523Y-36809047D01*
X96381904Y-36761428D01*
X96286666Y-36713809D01*
X95905714Y-36713809D01*
X96905714Y-36761428D02*
X97239047Y-36761428D01*
X97381904Y-36237619D02*
X96905714Y-36237619D01*
X96905714Y-37237619D01*
X97381904Y-37237619D01*
X97810476Y-36237619D02*
X97810476Y-37237619D01*
X98048571Y-37237619D01*
X98191428Y-37190000D01*
X98286666Y-37094761D01*
X98334285Y-36999523D01*
X98381904Y-36809047D01*
X98381904Y-36666190D01*
X98334285Y-36475714D01*
X98286666Y-36380476D01*
X98191428Y-36285238D01*
X98048571Y-36237619D01*
X97810476Y-36237619D01*
X46916666Y-49707142D02*
X46964285Y-49754761D01*
X47107142Y-49802380D01*
X47202380Y-49802380D01*
X47345238Y-49754761D01*
X47440476Y-49659523D01*
X47488095Y-49564285D01*
X47535714Y-49373809D01*
X47535714Y-49230952D01*
X47488095Y-49040476D01*
X47440476Y-48945238D01*
X47345238Y-48850000D01*
X47202380Y-48802380D01*
X47107142Y-48802380D01*
X46964285Y-48850000D01*
X46916666Y-48897619D01*
X46535714Y-49516666D02*
X46059523Y-49516666D01*
X46630952Y-49802380D02*
X46297619Y-48802380D01*
X45964285Y-49802380D01*
X45630952Y-49802380D02*
X45630952Y-48802380D01*
X45059523Y-49802380D01*
X45059523Y-48802380D01*
X44583333Y-49802380D02*
X44583333Y-48802380D01*
X44583333Y-49278571D02*
X44011904Y-49278571D01*
X44011904Y-49802380D02*
X44011904Y-48802380D01*
X42840476Y-47604761D02*
X42697619Y-47652380D01*
X42459523Y-47652380D01*
X42364285Y-47604761D01*
X42316666Y-47557142D01*
X42269047Y-47461904D01*
X42269047Y-47366666D01*
X42316666Y-47271428D01*
X42364285Y-47223809D01*
X42459523Y-47176190D01*
X42650000Y-47128571D01*
X42745238Y-47080952D01*
X42792857Y-47033333D01*
X42840476Y-46938095D01*
X42840476Y-46842857D01*
X42792857Y-46747619D01*
X42745238Y-46700000D01*
X42650000Y-46652380D01*
X42411904Y-46652380D01*
X42269047Y-46700000D01*
X41269047Y-47557142D02*
X41316666Y-47604761D01*
X41459523Y-47652380D01*
X41554761Y-47652380D01*
X41697619Y-47604761D01*
X41792857Y-47509523D01*
X41840476Y-47414285D01*
X41888095Y-47223809D01*
X41888095Y-47080952D01*
X41840476Y-46890476D01*
X41792857Y-46795238D01*
X41697619Y-46700000D01*
X41554761Y-46652380D01*
X41459523Y-46652380D01*
X41316666Y-46700000D01*
X41269047Y-46747619D01*
X40364285Y-47652380D02*
X40840476Y-47652380D01*
X40840476Y-46652380D01*
X83201904Y-37140000D02*
X83106666Y-37187619D01*
X82963809Y-37187619D01*
X82820952Y-37140000D01*
X82725714Y-37044761D01*
X82678095Y-36949523D01*
X82630476Y-36759047D01*
X82630476Y-36616190D01*
X82678095Y-36425714D01*
X82725714Y-36330476D01*
X82820952Y-36235238D01*
X82963809Y-36187619D01*
X83059047Y-36187619D01*
X83201904Y-36235238D01*
X83249523Y-36282857D01*
X83249523Y-36616190D01*
X83059047Y-36616190D01*
X83678095Y-36187619D02*
X83678095Y-37187619D01*
X84059047Y-37187619D01*
X84154285Y-37140000D01*
X84201904Y-37092380D01*
X84249523Y-36997142D01*
X84249523Y-36854285D01*
X84201904Y-36759047D01*
X84154285Y-36711428D01*
X84059047Y-36663809D01*
X83678095Y-36663809D01*
X84868571Y-37187619D02*
X85059047Y-37187619D01*
X85154285Y-37140000D01*
X85249523Y-37044761D01*
X85297142Y-36854285D01*
X85297142Y-36520952D01*
X85249523Y-36330476D01*
X85154285Y-36235238D01*
X85059047Y-36187619D01*
X84868571Y-36187619D01*
X84773333Y-36235238D01*
X84678095Y-36330476D01*
X84630476Y-36520952D01*
X84630476Y-36854285D01*
X84678095Y-37044761D01*
X84773333Y-37140000D01*
X84868571Y-37187619D01*
X85630476Y-37187619D02*
X86297142Y-37187619D01*
X85868571Y-36187619D01*
X42621428Y-49902380D02*
X43097619Y-49902380D01*
X43097619Y-48902380D01*
X42288095Y-49378571D02*
X41954761Y-49378571D01*
X41811904Y-49902380D02*
X42288095Y-49902380D01*
X42288095Y-48902380D01*
X41811904Y-48902380D01*
X41383333Y-49902380D02*
X41383333Y-48902380D01*
X41145238Y-48902380D01*
X41002380Y-48950000D01*
X40907142Y-49045238D01*
X40859523Y-49140476D01*
X40811904Y-49330952D01*
X40811904Y-49473809D01*
X40859523Y-49664285D01*
X40907142Y-49759523D01*
X41002380Y-49854761D01*
X41145238Y-49902380D01*
X41383333Y-49902380D01*
X40430952Y-49616666D02*
X39954761Y-49616666D01*
X40526190Y-49902380D02*
X40192857Y-48902380D01*
X39859523Y-49902380D01*
X58759523Y-47447380D02*
X58759523Y-46447380D01*
X58378571Y-46447380D01*
X58283333Y-46495000D01*
X58235714Y-46542619D01*
X58188095Y-46637857D01*
X58188095Y-46780714D01*
X58235714Y-46875952D01*
X58283333Y-46923571D01*
X58378571Y-46971190D01*
X58759523Y-46971190D01*
X57569047Y-46447380D02*
X57378571Y-46447380D01*
X57283333Y-46495000D01*
X57188095Y-46590238D01*
X57140476Y-46780714D01*
X57140476Y-47114047D01*
X57188095Y-47304523D01*
X57283333Y-47399761D01*
X57378571Y-47447380D01*
X57569047Y-47447380D01*
X57664285Y-47399761D01*
X57759523Y-47304523D01*
X57807142Y-47114047D01*
X57807142Y-46780714D01*
X57759523Y-46590238D01*
X57664285Y-46495000D01*
X57569047Y-46447380D01*
X56807142Y-46447380D02*
X56569047Y-47447380D01*
X56378571Y-46733095D01*
X56188095Y-47447380D01*
X55950000Y-46447380D01*
X55569047Y-46923571D02*
X55235714Y-46923571D01*
X55092857Y-47447380D02*
X55569047Y-47447380D01*
X55569047Y-46447380D01*
X55092857Y-46447380D01*
X54092857Y-47447380D02*
X54426190Y-46971190D01*
X54664285Y-47447380D02*
X54664285Y-46447380D01*
X54283333Y-46447380D01*
X54188095Y-46495000D01*
X54140476Y-46542619D01*
X54092857Y-46637857D01*
X54092857Y-46780714D01*
X54140476Y-46875952D01*
X54188095Y-46923571D01*
X54283333Y-46971190D01*
X54664285Y-46971190D01*
X57878571Y-49057380D02*
X57878571Y-48057380D01*
X56688095Y-48009761D02*
X57545238Y-49295476D01*
X56164285Y-48057380D02*
X55973809Y-48057380D01*
X55878571Y-48105000D01*
X55783333Y-48200238D01*
X55735714Y-48390714D01*
X55735714Y-48724047D01*
X55783333Y-48914523D01*
X55878571Y-49009761D01*
X55973809Y-49057380D01*
X56164285Y-49057380D01*
X56259523Y-49009761D01*
X56354761Y-48914523D01*
X56402380Y-48724047D01*
X56402380Y-48390714D01*
X56354761Y-48200238D01*
X56259523Y-48105000D01*
X56164285Y-48057380D01*
X87301905Y-37140000D02*
X87206667Y-37187619D01*
X87063810Y-37187619D01*
X86920953Y-37140000D01*
X86825715Y-37044761D01*
X86778096Y-36949523D01*
X86730477Y-36759047D01*
X86730477Y-36616190D01*
X86778096Y-36425714D01*
X86825715Y-36330476D01*
X86920953Y-36235238D01*
X87063810Y-36187619D01*
X87159048Y-36187619D01*
X87301905Y-36235238D01*
X87349524Y-36282857D01*
X87349524Y-36616190D01*
X87159048Y-36616190D01*
X87778096Y-36187619D02*
X87778096Y-37187619D01*
X88159048Y-37187619D01*
X88254286Y-37140000D01*
X88301905Y-37092380D01*
X88349524Y-36997142D01*
X88349524Y-36854285D01*
X88301905Y-36759047D01*
X88254286Y-36711428D01*
X88159048Y-36663809D01*
X87778096Y-36663809D01*
X88968572Y-37187619D02*
X89159048Y-37187619D01*
X89254286Y-37140000D01*
X89349524Y-37044761D01*
X89397143Y-36854285D01*
X89397143Y-36520952D01*
X89349524Y-36330476D01*
X89254286Y-36235238D01*
X89159048Y-36187619D01*
X88968572Y-36187619D01*
X88873334Y-36235238D01*
X88778096Y-36330476D01*
X88730477Y-36520952D01*
X88730477Y-36854285D01*
X88778096Y-37044761D01*
X88873334Y-37140000D01*
X88968572Y-37187619D01*
X89968572Y-36759047D02*
X89873334Y-36806666D01*
X89825715Y-36854285D01*
X89778096Y-36949523D01*
X89778096Y-36997142D01*
X89825715Y-37092380D01*
X89873334Y-37140000D01*
X89968572Y-37187619D01*
X90159048Y-37187619D01*
X90254286Y-37140000D01*
X90301905Y-37092380D01*
X90349524Y-36997142D01*
X90349524Y-36949523D01*
X90301905Y-36854285D01*
X90254286Y-36806666D01*
X90159048Y-36759047D01*
X89968572Y-36759047D01*
X89873334Y-36711428D01*
X89825715Y-36663809D01*
X89778096Y-36568571D01*
X89778096Y-36378095D01*
X89825715Y-36282857D01*
X89873334Y-36235238D01*
X89968572Y-36187619D01*
X90159048Y-36187619D01*
X90254286Y-36235238D01*
X90301905Y-36282857D01*
X90349524Y-36378095D01*
X90349524Y-36568571D01*
X90301905Y-36663809D01*
X90254286Y-36711428D01*
X90159048Y-36759047D01*
X38200000Y-49802380D02*
X38200000Y-48802380D01*
X37533333Y-48802380D02*
X37342857Y-48802380D01*
X37247619Y-48850000D01*
X37152380Y-48945238D01*
X37104761Y-49135714D01*
X37104761Y-49469047D01*
X37152380Y-49659523D01*
X37247619Y-49754761D01*
X37342857Y-49802380D01*
X37533333Y-49802380D01*
X37628571Y-49754761D01*
X37723809Y-49659523D01*
X37771428Y-49469047D01*
X37771428Y-49135714D01*
X37723809Y-48945238D01*
X37628571Y-48850000D01*
X37533333Y-48802380D01*
X36247619Y-49135714D02*
X36247619Y-49802380D01*
X36485714Y-48754761D02*
X36723809Y-49469047D01*
X36104761Y-49469047D01*
X102533333Y-38457619D02*
X102533333Y-39457619D01*
X102866666Y-38743333D01*
X103200000Y-39457619D01*
X103200000Y-38457619D01*
X104200000Y-38457619D02*
X103628571Y-38457619D01*
X103914285Y-38457619D02*
X103914285Y-39457619D01*
X103819047Y-39314761D01*
X103723809Y-39219523D01*
X103628571Y-39171904D01*
X105914285Y-38457619D02*
X105342857Y-38457619D01*
X105628571Y-38457619D02*
X105628571Y-39457619D01*
X105533333Y-39314761D01*
X105438095Y-39219523D01*
X105342857Y-39171904D01*
D12*
X42488846Y-91501190D02*
X42514144Y-91513095D01*
X42561763Y-91513095D01*
X42584084Y-91501190D01*
X42594501Y-91489285D01*
X42603430Y-91465476D01*
X42594501Y-91394047D01*
X42579620Y-91370238D01*
X42566227Y-91358333D01*
X42540930Y-91346428D01*
X42493311Y-91346428D01*
X42470989Y-91358333D01*
X42276049Y-91513095D02*
X42259680Y-91382142D01*
X42268608Y-91358333D01*
X42290930Y-91346428D01*
X42338549Y-91346428D01*
X42363846Y-91358333D01*
X42274561Y-91501190D02*
X42299858Y-91513095D01*
X42359382Y-91513095D01*
X42381703Y-91501190D01*
X42390632Y-91477380D01*
X42387656Y-91453571D01*
X42372775Y-91429761D01*
X42347477Y-91417857D01*
X42287953Y-91417857D01*
X42262656Y-91405952D01*
X42136168Y-91346428D02*
X42167418Y-91596428D01*
X42137656Y-91358333D02*
X42112358Y-91346428D01*
X42064739Y-91346428D01*
X42042418Y-91358333D01*
X42032001Y-91370238D01*
X42023072Y-91394047D01*
X42032001Y-91465476D01*
X42046882Y-91489285D01*
X42060275Y-91501190D01*
X42085572Y-91513095D01*
X42133191Y-91513095D01*
X42155513Y-91501190D01*
X41740334Y-91513095D02*
X41709084Y-91263095D01*
X41633191Y-91513095D02*
X41616822Y-91382142D01*
X41625751Y-91358333D01*
X41648072Y-91346428D01*
X41683787Y-91346428D01*
X41709084Y-91358333D01*
X41722477Y-91370238D01*
X41417418Y-91501190D02*
X41442715Y-91513095D01*
X41490334Y-91513095D01*
X41512656Y-91501190D01*
X41521584Y-91477380D01*
X41509680Y-91382142D01*
X41494799Y-91358333D01*
X41469501Y-91346428D01*
X41421882Y-91346428D01*
X41399561Y-91358333D01*
X41390632Y-91382142D01*
X41393608Y-91405952D01*
X41515632Y-91429761D01*
X41299858Y-91513095D02*
X41279025Y-91346428D01*
X41284977Y-91394047D02*
X41270096Y-91370238D01*
X41256703Y-91358333D01*
X41231406Y-91346428D01*
X41207596Y-91346428D01*
X41048370Y-91501190D02*
X41073668Y-91513095D01*
X41121287Y-91513095D01*
X41143608Y-91501190D01*
X41152537Y-91477380D01*
X41140632Y-91382142D01*
X41125751Y-91358333D01*
X41100453Y-91346428D01*
X41052834Y-91346428D01*
X41030513Y-91358333D01*
X41021584Y-91382142D01*
X41024561Y-91405952D01*
X41146584Y-91429761D01*
D11*
X93683333Y-38467619D02*
X93683333Y-39467619D01*
X94016666Y-38753333D01*
X94350000Y-39467619D01*
X94350000Y-38467619D01*
X94778571Y-39372380D02*
X94826190Y-39420000D01*
X94921428Y-39467619D01*
X95159523Y-39467619D01*
X95254761Y-39420000D01*
X95302380Y-39372380D01*
X95350000Y-39277142D01*
X95350000Y-39181904D01*
X95302380Y-39039047D01*
X94730952Y-38467619D01*
X95350000Y-38467619D01*
X97064285Y-38467619D02*
X96492857Y-38467619D01*
X96778571Y-38467619D02*
X96778571Y-39467619D01*
X96683333Y-39324761D01*
X96588095Y-39229523D01*
X96492857Y-39181904D01*
D13*
X108773809Y-91678571D02*
X108797619Y-91702380D01*
X108869047Y-91726190D01*
X108916666Y-91726190D01*
X108988095Y-91702380D01*
X109035714Y-91654761D01*
X109059523Y-91607142D01*
X109083333Y-91511904D01*
X109083333Y-91440476D01*
X109059523Y-91345238D01*
X109035714Y-91297619D01*
X108988095Y-91250000D01*
X108916666Y-91226190D01*
X108869047Y-91226190D01*
X108797619Y-91250000D01*
X108773809Y-91273809D01*
X108583333Y-91583333D02*
X108345238Y-91583333D01*
X108630952Y-91726190D02*
X108464285Y-91226190D01*
X108297619Y-91726190D01*
X108130952Y-91726190D02*
X108130952Y-91226190D01*
X107845238Y-91726190D01*
X107845238Y-91226190D01*
X106940476Y-91726190D02*
X107107142Y-91488095D01*
X107226190Y-91726190D02*
X107226190Y-91226190D01*
X107035714Y-91226190D01*
X106988095Y-91250000D01*
X106964285Y-91273809D01*
X106940476Y-91321428D01*
X106940476Y-91392857D01*
X106964285Y-91440476D01*
X106988095Y-91464285D01*
X107035714Y-91488095D01*
X107226190Y-91488095D01*
X106464285Y-91250000D02*
X106511904Y-91226190D01*
X106583333Y-91226190D01*
X106654761Y-91250000D01*
X106702380Y-91297619D01*
X106726190Y-91345238D01*
X106749999Y-91440476D01*
X106749999Y-91511904D01*
X106726190Y-91607142D01*
X106702380Y-91654761D01*
X106654761Y-91702380D01*
X106583333Y-91726190D01*
X106535714Y-91726190D01*
X106464285Y-91702380D01*
X106440476Y-91678571D01*
X106440476Y-91511904D01*
X106535714Y-91511904D01*
X106059523Y-91464285D02*
X105988095Y-91488095D01*
X105964285Y-91511904D01*
X105940476Y-91559523D01*
X105940476Y-91630952D01*
X105964285Y-91678571D01*
X105988095Y-91702380D01*
X106035714Y-91726190D01*
X106226190Y-91726190D01*
X106226190Y-91226190D01*
X106059523Y-91226190D01*
X106011904Y-91250000D01*
X105988095Y-91273809D01*
X105964285Y-91321428D01*
X105964285Y-91369047D01*
X105988095Y-91416666D01*
X106011904Y-91440476D01*
X106059523Y-91464285D01*
X106226190Y-91464285D01*
X105059523Y-91678571D02*
X105083333Y-91702380D01*
X105154761Y-91726190D01*
X105202380Y-91726190D01*
X105273809Y-91702380D01*
X105321428Y-91654761D01*
X105345238Y-91607142D01*
X105369047Y-91511904D01*
X105369047Y-91440476D01*
X105345238Y-91345238D01*
X105321428Y-91297619D01*
X105273809Y-91250000D01*
X105202380Y-91226190D01*
X105154761Y-91226190D01*
X105083333Y-91250000D01*
X105059523Y-91273809D01*
X104750000Y-91226190D02*
X104654761Y-91226190D01*
X104607142Y-91250000D01*
X104559523Y-91297619D01*
X104535714Y-91392857D01*
X104535714Y-91559523D01*
X104559523Y-91654761D01*
X104607142Y-91702380D01*
X104654761Y-91726190D01*
X104750000Y-91726190D01*
X104797619Y-91702380D01*
X104845238Y-91654761D01*
X104869047Y-91559523D01*
X104869047Y-91392857D01*
X104845238Y-91297619D01*
X104797619Y-91250000D01*
X104750000Y-91226190D01*
X104321428Y-91726190D02*
X104321428Y-91226190D01*
X104035714Y-91726190D01*
X104035714Y-91226190D01*
X103869047Y-91226190D02*
X103583333Y-91226190D01*
X103726190Y-91726190D02*
X103726190Y-91226190D01*
X103130952Y-91726190D02*
X103297619Y-91488095D01*
X103416666Y-91726190D02*
X103416666Y-91226190D01*
X103226190Y-91226190D01*
X103178571Y-91250000D01*
X103154761Y-91273809D01*
X103130952Y-91321428D01*
X103130952Y-91392857D01*
X103154761Y-91440476D01*
X103178571Y-91464285D01*
X103226190Y-91488095D01*
X103416666Y-91488095D01*
X102821428Y-91226190D02*
X102726190Y-91226190D01*
X102678571Y-91250000D01*
X102630952Y-91297619D01*
X102607142Y-91392857D01*
X102607142Y-91559523D01*
X102630952Y-91654761D01*
X102678571Y-91702380D01*
X102726190Y-91726190D01*
X102821428Y-91726190D01*
X102869047Y-91702380D01*
X102916666Y-91654761D01*
X102940476Y-91559523D01*
X102940476Y-91392857D01*
X102916666Y-91297619D01*
X102869047Y-91250000D01*
X102821428Y-91226190D01*
X102154761Y-91726190D02*
X102392857Y-91726190D01*
X102392857Y-91226190D01*
X101750000Y-91726190D02*
X101988095Y-91726190D01*
X101988095Y-91226190D01*
X101583333Y-91464285D02*
X101416666Y-91464285D01*
X101345238Y-91726190D02*
X101583333Y-91726190D01*
X101583333Y-91226190D01*
X101345238Y-91226190D01*
X100845238Y-91726190D02*
X101011904Y-91488095D01*
X101130952Y-91726190D02*
X101130952Y-91226190D01*
X100940476Y-91226190D01*
X100892857Y-91250000D01*
X100869047Y-91273809D01*
X100845238Y-91321428D01*
X100845238Y-91392857D01*
X100869047Y-91440476D01*
X100892857Y-91464285D01*
X100940476Y-91488095D01*
X101130952Y-91488095D01*
X100321428Y-91226190D02*
X100154761Y-91726190D01*
X99988095Y-91226190D01*
X99869047Y-91226190D02*
X99559523Y-91226190D01*
X99726190Y-91416666D01*
X99654761Y-91416666D01*
X99607142Y-91440476D01*
X99583333Y-91464285D01*
X99559523Y-91511904D01*
X99559523Y-91630952D01*
X99583333Y-91678571D01*
X99607142Y-91702380D01*
X99654761Y-91726190D01*
X99797619Y-91726190D01*
X99845238Y-91702380D01*
X99869047Y-91678571D01*
X98964285Y-91726190D02*
X98964285Y-91226190D01*
X98845238Y-91226190D01*
X98773809Y-91250000D01*
X98726190Y-91297619D01*
X98702380Y-91345238D01*
X98678571Y-91440476D01*
X98678571Y-91511904D01*
X98702380Y-91607142D01*
X98726190Y-91654761D01*
X98773809Y-91702380D01*
X98845238Y-91726190D01*
X98964285Y-91726190D01*
X98273809Y-91702380D02*
X98321428Y-91726190D01*
X98416666Y-91726190D01*
X98464285Y-91702380D01*
X98488095Y-91654761D01*
X98488095Y-91464285D01*
X98464285Y-91416666D01*
X98416666Y-91392857D01*
X98321428Y-91392857D01*
X98273809Y-91416666D01*
X98250000Y-91464285D01*
X98250000Y-91511904D01*
X98488095Y-91559523D01*
X98059523Y-91702380D02*
X98011904Y-91726190D01*
X97916666Y-91726190D01*
X97869047Y-91702380D01*
X97845238Y-91654761D01*
X97845238Y-91630952D01*
X97869047Y-91583333D01*
X97916666Y-91559523D01*
X97988095Y-91559523D01*
X98035714Y-91535714D01*
X98059523Y-91488095D01*
X98059523Y-91464285D01*
X98035714Y-91416666D01*
X97988095Y-91392857D01*
X97916666Y-91392857D01*
X97869047Y-91416666D01*
X97630952Y-91726190D02*
X97630952Y-91392857D01*
X97630952Y-91226190D02*
X97654761Y-91250000D01*
X97630952Y-91273809D01*
X97607142Y-91250000D01*
X97630952Y-91226190D01*
X97630952Y-91273809D01*
X97178571Y-91392857D02*
X97178571Y-91797619D01*
X97202380Y-91845238D01*
X97226190Y-91869047D01*
X97273809Y-91892857D01*
X97345238Y-91892857D01*
X97392857Y-91869047D01*
X97178571Y-91702380D02*
X97226190Y-91726190D01*
X97321428Y-91726190D01*
X97369047Y-91702380D01*
X97392857Y-91678571D01*
X97416666Y-91630952D01*
X97416666Y-91488095D01*
X97392857Y-91440476D01*
X97369047Y-91416666D01*
X97321428Y-91392857D01*
X97226190Y-91392857D01*
X97178571Y-91416666D01*
X96940476Y-91392857D02*
X96940476Y-91726190D01*
X96940476Y-91440476D02*
X96916666Y-91416666D01*
X96869047Y-91392857D01*
X96797619Y-91392857D01*
X96750000Y-91416666D01*
X96726190Y-91464285D01*
X96726190Y-91726190D01*
X96297619Y-91702380D02*
X96345238Y-91726190D01*
X96440476Y-91726190D01*
X96488095Y-91702380D01*
X96511904Y-91654761D01*
X96511904Y-91464285D01*
X96488095Y-91416666D01*
X96440476Y-91392857D01*
X96345238Y-91392857D01*
X96297619Y-91416666D01*
X96273809Y-91464285D01*
X96273809Y-91511904D01*
X96511904Y-91559523D01*
X95845238Y-91726190D02*
X95845238Y-91226190D01*
X95845238Y-91702380D02*
X95892857Y-91726190D01*
X95988095Y-91726190D01*
X96035714Y-91702380D01*
X96059523Y-91678571D01*
X96083333Y-91630952D01*
X96083333Y-91488095D01*
X96059523Y-91440476D01*
X96035714Y-91416666D01*
X95988095Y-91392857D01*
X95892857Y-91392857D01*
X95845238Y-91416666D01*
X95226190Y-91726190D02*
X95226190Y-91226190D01*
X95226190Y-91416666D02*
X95178571Y-91392857D01*
X95083333Y-91392857D01*
X95035714Y-91416666D01*
X95011904Y-91440476D01*
X94988095Y-91488095D01*
X94988095Y-91630952D01*
X95011904Y-91678571D01*
X95035714Y-91702380D01*
X95083333Y-91726190D01*
X95178571Y-91726190D01*
X95226190Y-91702380D01*
X94821428Y-91392857D02*
X94702380Y-91726190D01*
X94583333Y-91392857D02*
X94702380Y-91726190D01*
X94750000Y-91845238D01*
X94773809Y-91869047D01*
X94821428Y-91892857D01*
X93726190Y-91678571D02*
X93750000Y-91702380D01*
X93821428Y-91726190D01*
X93869047Y-91726190D01*
X93940476Y-91702380D01*
X93988095Y-91654761D01*
X94011904Y-91607142D01*
X94035714Y-91511904D01*
X94035714Y-91440476D01*
X94011904Y-91345238D01*
X93988095Y-91297619D01*
X93940476Y-91250000D01*
X93869047Y-91226190D01*
X93821428Y-91226190D01*
X93750000Y-91250000D01*
X93726190Y-91273809D01*
X93440476Y-91726190D02*
X93488095Y-91702380D01*
X93511904Y-91678571D01*
X93535714Y-91630952D01*
X93535714Y-91488095D01*
X93511904Y-91440476D01*
X93488095Y-91416666D01*
X93440476Y-91392857D01*
X93369047Y-91392857D01*
X93321428Y-91416666D01*
X93297619Y-91440476D01*
X93273809Y-91488095D01*
X93273809Y-91630952D01*
X93297619Y-91678571D01*
X93321428Y-91702380D01*
X93369047Y-91726190D01*
X93440476Y-91726190D01*
X93059523Y-91392857D02*
X93059523Y-91726190D01*
X93059523Y-91440476D02*
X93035714Y-91416666D01*
X92988095Y-91392857D01*
X92916666Y-91392857D01*
X92869047Y-91416666D01*
X92845238Y-91464285D01*
X92845238Y-91726190D01*
X92607142Y-91392857D02*
X92607142Y-91726190D01*
X92607142Y-91440476D02*
X92583333Y-91416666D01*
X92535714Y-91392857D01*
X92464285Y-91392857D01*
X92416666Y-91416666D01*
X92392857Y-91464285D01*
X92392857Y-91726190D01*
X92083333Y-91726190D02*
X92130952Y-91702380D01*
X92154761Y-91678571D01*
X92178571Y-91630952D01*
X92178571Y-91488095D01*
X92154761Y-91440476D01*
X92130952Y-91416666D01*
X92083333Y-91392857D01*
X92011904Y-91392857D01*
X91964285Y-91416666D01*
X91940476Y-91440476D01*
X91916666Y-91488095D01*
X91916666Y-91630952D01*
X91940476Y-91678571D01*
X91964285Y-91702380D01*
X92011904Y-91726190D01*
X92083333Y-91726190D01*
X91702380Y-91726190D02*
X91702380Y-91392857D01*
X91702380Y-91488095D02*
X91678571Y-91440476D01*
X91654761Y-91416666D01*
X91607142Y-91392857D01*
X91559523Y-91392857D01*
X90726190Y-91726190D02*
X90892857Y-91488095D01*
X91011904Y-91726190D02*
X91011904Y-91226190D01*
X90821428Y-91226190D01*
X90773809Y-91250000D01*
X90750000Y-91273809D01*
X90726190Y-91321428D01*
X90726190Y-91392857D01*
X90750000Y-91440476D01*
X90773809Y-91464285D01*
X90821428Y-91488095D01*
X91011904Y-91488095D01*
X90511904Y-91726190D02*
X90511904Y-91392857D01*
X90511904Y-91226190D02*
X90535714Y-91250000D01*
X90511904Y-91273809D01*
X90488095Y-91250000D01*
X90511904Y-91226190D01*
X90511904Y-91273809D01*
X90059523Y-91392857D02*
X90059523Y-91797619D01*
X90083333Y-91845238D01*
X90107142Y-91869047D01*
X90154761Y-91892857D01*
X90226190Y-91892857D01*
X90273809Y-91869047D01*
X90059523Y-91702380D02*
X90107142Y-91726190D01*
X90202380Y-91726190D01*
X90250000Y-91702380D01*
X90273809Y-91678571D01*
X90297619Y-91630952D01*
X90297619Y-91488095D01*
X90273809Y-91440476D01*
X90250000Y-91416666D01*
X90202380Y-91392857D01*
X90107142Y-91392857D01*
X90059523Y-91416666D01*
X89821428Y-91726190D02*
X89821428Y-91226190D01*
X89821428Y-91416666D02*
X89773809Y-91392857D01*
X89678571Y-91392857D01*
X89630952Y-91416666D01*
X89607142Y-91440476D01*
X89583333Y-91488095D01*
X89583333Y-91630952D01*
X89607142Y-91678571D01*
X89630952Y-91702380D01*
X89678571Y-91726190D01*
X89773809Y-91726190D01*
X89821428Y-91702380D01*
X89416666Y-91392857D02*
X89297619Y-91726190D01*
X89178571Y-91392857D02*
X89297619Y-91726190D01*
X89345238Y-91845238D01*
X89369047Y-91869047D01*
X89416666Y-91892857D01*
X88630952Y-91273809D02*
X88607142Y-91250000D01*
X88559523Y-91226190D01*
X88440476Y-91226190D01*
X88392857Y-91250000D01*
X88369047Y-91273809D01*
X88345238Y-91321428D01*
X88345238Y-91369047D01*
X88369047Y-91440476D01*
X88654761Y-91726190D01*
X88345238Y-91726190D01*
X88035714Y-91226190D02*
X87988095Y-91226190D01*
X87940476Y-91250000D01*
X87916666Y-91273809D01*
X87892857Y-91321428D01*
X87869047Y-91416666D01*
X87869047Y-91535714D01*
X87892857Y-91630952D01*
X87916666Y-91678571D01*
X87940476Y-91702380D01*
X87988095Y-91726190D01*
X88035714Y-91726190D01*
X88083333Y-91702380D01*
X88107142Y-91678571D01*
X88130952Y-91630952D01*
X88154761Y-91535714D01*
X88154761Y-91416666D01*
X88130952Y-91321428D01*
X88107142Y-91273809D01*
X88083333Y-91250000D01*
X88035714Y-91226190D01*
X87678571Y-91273809D02*
X87654761Y-91250000D01*
X87607142Y-91226190D01*
X87488095Y-91226190D01*
X87440476Y-91250000D01*
X87416666Y-91273809D01*
X87392857Y-91321428D01*
X87392857Y-91369047D01*
X87416666Y-91440476D01*
X87702380Y-91726190D01*
X87392857Y-91726190D01*
X87202380Y-91273809D02*
X87178571Y-91250000D01*
X87130952Y-91226190D01*
X87011904Y-91226190D01*
X86964285Y-91250000D01*
X86940476Y-91273809D01*
X86916666Y-91321428D01*
X86916666Y-91369047D01*
X86940476Y-91440476D01*
X87226190Y-91726190D01*
X86916666Y-91726190D01*
D11*
X80604285Y-49977380D02*
X81080476Y-49977380D01*
X81080476Y-48977380D01*
X80080476Y-48977380D02*
X79890000Y-48977380D01*
X79794761Y-49025000D01*
X79699523Y-49120238D01*
X79651904Y-49310714D01*
X79651904Y-49644047D01*
X79699523Y-49834523D01*
X79794761Y-49929761D01*
X79890000Y-49977380D01*
X80080476Y-49977380D01*
X80175714Y-49929761D01*
X80270952Y-49834523D01*
X80318571Y-49644047D01*
X80318571Y-49310714D01*
X80270952Y-49120238D01*
X80175714Y-49025000D01*
X80080476Y-48977380D01*
X79318571Y-48977380D02*
X79080476Y-49977380D01*
X78890000Y-49263095D01*
X78699523Y-49977380D01*
X78461428Y-48977380D01*
X77366190Y-49929761D02*
X77223333Y-49977380D01*
X76985238Y-49977380D01*
X76890000Y-49929761D01*
X76842380Y-49882142D01*
X76794761Y-49786904D01*
X76794761Y-49691666D01*
X76842380Y-49596428D01*
X76890000Y-49548809D01*
X76985238Y-49501190D01*
X77175714Y-49453571D01*
X77270952Y-49405952D01*
X77318571Y-49358333D01*
X77366190Y-49263095D01*
X77366190Y-49167857D01*
X77318571Y-49072619D01*
X77270952Y-49025000D01*
X77175714Y-48977380D01*
X76937619Y-48977380D01*
X76794761Y-49025000D01*
X76366190Y-49977380D02*
X76366190Y-48977380D01*
X75890000Y-49977380D02*
X75890000Y-48977380D01*
X75651904Y-48977380D01*
X75509047Y-49025000D01*
X75413809Y-49120238D01*
X75366190Y-49215476D01*
X75318571Y-49405952D01*
X75318571Y-49548809D01*
X75366190Y-49739285D01*
X75413809Y-49834523D01*
X75509047Y-49929761D01*
X75651904Y-49977380D01*
X75890000Y-49977380D01*
X74890000Y-49453571D02*
X74556666Y-49453571D01*
X74413809Y-49977380D02*
X74890000Y-49977380D01*
X74890000Y-48977380D01*
X74413809Y-48977380D01*
X80247142Y-51587380D02*
X80247142Y-50587380D01*
X80009047Y-50587380D01*
X79866190Y-50635000D01*
X79770952Y-50730238D01*
X79723333Y-50825476D01*
X79675714Y-51015952D01*
X79675714Y-51158809D01*
X79723333Y-51349285D01*
X79770952Y-51444523D01*
X79866190Y-51539761D01*
X80009047Y-51587380D01*
X80247142Y-51587380D01*
X78675714Y-51587380D02*
X79009047Y-51111190D01*
X79247142Y-51587380D02*
X79247142Y-50587380D01*
X78866190Y-50587380D01*
X78770952Y-50635000D01*
X78723333Y-50682619D01*
X78675714Y-50777857D01*
X78675714Y-50920714D01*
X78723333Y-51015952D01*
X78770952Y-51063571D01*
X78866190Y-51111190D01*
X79247142Y-51111190D01*
X78247142Y-51587380D02*
X78247142Y-50587380D01*
X77913809Y-50587380D02*
X77580476Y-51587380D01*
X77247142Y-50587380D01*
X76913809Y-51063571D02*
X76580476Y-51063571D01*
X76437619Y-51587380D02*
X76913809Y-51587380D01*
X76913809Y-50587380D01*
X76437619Y-50587380D01*
X75437619Y-51587380D02*
X75770952Y-51111190D01*
X76009047Y-51587380D02*
X76009047Y-50587380D01*
X75628095Y-50587380D01*
X75532857Y-50635000D01*
X75485238Y-50682619D01*
X75437619Y-50777857D01*
X75437619Y-50920714D01*
X75485238Y-51015952D01*
X75532857Y-51063571D01*
X75628095Y-51111190D01*
X76009047Y-51111190D01*
X75056666Y-51539761D02*
X74913809Y-51587380D01*
X74675714Y-51587380D01*
X74580476Y-51539761D01*
X74532857Y-51492142D01*
X74485238Y-51396904D01*
X74485238Y-51301666D01*
X74532857Y-51206428D01*
X74580476Y-51158809D01*
X74675714Y-51111190D01*
X74866190Y-51063571D01*
X74961428Y-51015952D01*
X75009047Y-50968333D01*
X75056666Y-50873095D01*
X75056666Y-50777857D01*
X75009047Y-50682619D01*
X74961428Y-50635000D01*
X74866190Y-50587380D01*
X74628095Y-50587380D01*
X74485238Y-50635000D01*
X50997619Y-49707142D02*
X51045238Y-49754761D01*
X51188095Y-49802380D01*
X51283333Y-49802380D01*
X51426190Y-49754761D01*
X51521428Y-49659523D01*
X51569047Y-49564285D01*
X51616666Y-49373809D01*
X51616666Y-49230952D01*
X51569047Y-49040476D01*
X51521428Y-48945238D01*
X51426190Y-48850000D01*
X51283333Y-48802380D01*
X51188095Y-48802380D01*
X51045238Y-48850000D01*
X50997619Y-48897619D01*
X50616666Y-49516666D02*
X50140476Y-49516666D01*
X50711904Y-49802380D02*
X50378571Y-48802380D01*
X50045238Y-49802380D01*
X49711904Y-49802380D02*
X49711904Y-48802380D01*
X49140476Y-49802380D01*
X49140476Y-48802380D01*
X48188095Y-49802380D02*
X48664285Y-49802380D01*
X48664285Y-48802380D01*
X38414285Y-47604761D02*
X38271428Y-47652380D01*
X38033333Y-47652380D01*
X37938095Y-47604761D01*
X37890476Y-47557142D01*
X37842857Y-47461904D01*
X37842857Y-47366666D01*
X37890476Y-47271428D01*
X37938095Y-47223809D01*
X38033333Y-47176190D01*
X38223809Y-47128571D01*
X38319047Y-47080952D01*
X38366666Y-47033333D01*
X38414285Y-46938095D01*
X38414285Y-46842857D01*
X38366666Y-46747619D01*
X38319047Y-46700000D01*
X38223809Y-46652380D01*
X37985714Y-46652380D01*
X37842857Y-46700000D01*
X37414285Y-47652380D02*
X37414285Y-46652380D01*
X37176190Y-46652380D01*
X37033333Y-46700000D01*
X36938095Y-46795238D01*
X36890476Y-46890476D01*
X36842857Y-47080952D01*
X36842857Y-47223809D01*
X36890476Y-47414285D01*
X36938095Y-47509523D01*
X37033333Y-47604761D01*
X37176190Y-47652380D01*
X37414285Y-47652380D01*
X36461904Y-47366666D02*
X35985714Y-47366666D01*
X36557142Y-47652380D02*
X36223809Y-46652380D01*
X35890476Y-47652380D01*
X34050000Y-47652380D02*
X34050000Y-46652380D01*
X33383333Y-46652380D02*
X33192857Y-46652380D01*
X33097619Y-46700000D01*
X33002380Y-46795238D01*
X32954761Y-46985714D01*
X32954761Y-47319047D01*
X33002380Y-47509523D01*
X33097619Y-47604761D01*
X33192857Y-47652380D01*
X33383333Y-47652380D01*
X33478571Y-47604761D01*
X33573809Y-47509523D01*
X33621428Y-47319047D01*
X33621428Y-46985714D01*
X33573809Y-46795238D01*
X33478571Y-46700000D01*
X33383333Y-46652380D01*
X32050000Y-46652380D02*
X32526190Y-46652380D01*
X32573809Y-47128571D01*
X32526190Y-47080952D01*
X32430952Y-47033333D01*
X32192857Y-47033333D01*
X32097619Y-47080952D01*
X32050000Y-47128571D01*
X32002380Y-47223809D01*
X32002380Y-47461904D01*
X32050000Y-47557142D01*
X32097619Y-47604761D01*
X32192857Y-47652380D01*
X32430952Y-47652380D01*
X32526190Y-47604761D01*
X32573809Y-47557142D01*
X97983333Y-38477620D02*
X97983333Y-39477620D01*
X98316666Y-38763334D01*
X98650000Y-39477620D01*
X98650000Y-38477620D01*
X99650000Y-38477620D02*
X99078571Y-38477620D01*
X99364285Y-38477620D02*
X99364285Y-39477620D01*
X99269047Y-39334762D01*
X99173809Y-39239524D01*
X99078571Y-39191905D01*
X100792857Y-39382381D02*
X100840476Y-39430001D01*
X100935714Y-39477620D01*
X101173809Y-39477620D01*
X101269047Y-39430001D01*
X101316666Y-39382381D01*
X101364285Y-39287143D01*
X101364285Y-39191905D01*
X101316666Y-39049048D01*
X100745238Y-38477620D01*
X101364285Y-38477620D01*
D13*
X107264285Y-69673689D02*
X107264285Y-69173689D01*
X107073809Y-69173689D01*
X107026190Y-69197499D01*
X107002380Y-69221308D01*
X106978571Y-69268927D01*
X106978571Y-69340356D01*
X107002380Y-69387975D01*
X107026190Y-69411784D01*
X107073809Y-69435594D01*
X107264285Y-69435594D01*
X106764285Y-69673689D02*
X106764285Y-69340356D01*
X106764285Y-69435594D02*
X106740476Y-69387975D01*
X106716666Y-69364165D01*
X106669047Y-69340356D01*
X106621428Y-69340356D01*
X106383333Y-69673689D02*
X106430952Y-69649879D01*
X106454761Y-69626070D01*
X106478571Y-69578451D01*
X106478571Y-69435594D01*
X106454761Y-69387975D01*
X106430952Y-69364165D01*
X106383333Y-69340356D01*
X106311904Y-69340356D01*
X106264285Y-69364165D01*
X106240476Y-69387975D01*
X106216666Y-69435594D01*
X106216666Y-69578451D01*
X106240476Y-69626070D01*
X106264285Y-69649879D01*
X106311904Y-69673689D01*
X106383333Y-69673689D01*
X106002380Y-69673689D02*
X106002380Y-69173689D01*
X106002380Y-69364165D02*
X105954761Y-69340356D01*
X105859523Y-69340356D01*
X105811904Y-69364165D01*
X105788095Y-69387975D01*
X105764285Y-69435594D01*
X105764285Y-69578451D01*
X105788095Y-69626070D01*
X105811904Y-69649879D01*
X105859523Y-69673689D01*
X105954761Y-69673689D01*
X106002380Y-69649879D01*
X105335714Y-69673689D02*
X105335714Y-69411784D01*
X105359523Y-69364165D01*
X105407142Y-69340356D01*
X105502380Y-69340356D01*
X105550000Y-69364165D01*
X105335714Y-69649879D02*
X105383333Y-69673689D01*
X105502380Y-69673689D01*
X105550000Y-69649879D01*
X105573809Y-69602260D01*
X105573809Y-69554641D01*
X105550000Y-69507022D01*
X105502380Y-69483213D01*
X105383333Y-69483213D01*
X105335714Y-69459403D01*
X105097619Y-69673689D02*
X105097619Y-69173689D01*
X105097619Y-69364165D02*
X105050000Y-69340356D01*
X104954761Y-69340356D01*
X104907142Y-69364165D01*
X104883333Y-69387975D01*
X104859523Y-69435594D01*
X104859523Y-69578451D01*
X104883333Y-69626070D01*
X104907142Y-69649879D01*
X104954761Y-69673689D01*
X105050000Y-69673689D01*
X105097619Y-69649879D01*
X104573809Y-69673689D02*
X104621428Y-69649879D01*
X104645238Y-69602260D01*
X104645238Y-69173689D01*
X104430952Y-69340356D02*
X104311904Y-69673689D01*
X104192857Y-69340356D02*
X104311904Y-69673689D01*
X104359523Y-69792737D01*
X104383333Y-69816546D01*
X104430952Y-69840356D01*
X103407142Y-69673689D02*
X103407142Y-69173689D01*
X103407142Y-69649879D02*
X103454761Y-69673689D01*
X103550000Y-69673689D01*
X103597619Y-69649879D01*
X103621428Y-69626070D01*
X103645238Y-69578451D01*
X103645238Y-69435594D01*
X103621428Y-69387975D01*
X103597619Y-69364165D01*
X103550000Y-69340356D01*
X103454761Y-69340356D01*
X103407142Y-69364165D01*
X103097619Y-69673689D02*
X103145238Y-69649879D01*
X103169047Y-69626070D01*
X103192857Y-69578451D01*
X103192857Y-69435594D01*
X103169047Y-69387975D01*
X103145238Y-69364165D01*
X103097619Y-69340356D01*
X103026190Y-69340356D01*
X102978571Y-69364165D01*
X102954761Y-69387975D01*
X102930952Y-69435594D01*
X102930952Y-69578451D01*
X102954761Y-69626070D01*
X102978571Y-69649879D01*
X103026190Y-69673689D01*
X103097619Y-69673689D01*
X102716666Y-69340356D02*
X102716666Y-69673689D01*
X102716666Y-69387975D02*
X102692857Y-69364165D01*
X102645238Y-69340356D01*
X102573809Y-69340356D01*
X102526190Y-69364165D01*
X102502380Y-69411784D01*
X102502380Y-69673689D01*
X102240476Y-69173689D02*
X102288095Y-69268927D01*
X102097619Y-69340356D02*
X101907142Y-69340356D01*
X102026190Y-69173689D02*
X102026190Y-69602260D01*
X102002380Y-69649879D01*
X101954761Y-69673689D01*
X101907142Y-69673689D01*
X101359523Y-69340356D02*
X101359523Y-69673689D01*
X101359523Y-69387975D02*
X101335714Y-69364165D01*
X101288095Y-69340356D01*
X101216666Y-69340356D01*
X101169047Y-69364165D01*
X101145238Y-69411784D01*
X101145238Y-69673689D01*
X100716666Y-69649879D02*
X100764285Y-69673689D01*
X100859523Y-69673689D01*
X100907142Y-69649879D01*
X100930952Y-69602260D01*
X100930952Y-69411784D01*
X100907142Y-69364165D01*
X100859523Y-69340356D01*
X100764285Y-69340356D01*
X100716666Y-69364165D01*
X100692857Y-69411784D01*
X100692857Y-69459403D01*
X100930952Y-69507022D01*
X100288095Y-69649879D02*
X100335714Y-69673689D01*
X100430952Y-69673689D01*
X100478571Y-69649879D01*
X100502380Y-69602260D01*
X100502380Y-69411784D01*
X100478571Y-69364165D01*
X100430952Y-69340356D01*
X100335714Y-69340356D01*
X100288095Y-69364165D01*
X100264285Y-69411784D01*
X100264285Y-69459403D01*
X100502380Y-69507022D01*
X99835714Y-69673689D02*
X99835714Y-69173689D01*
X99835714Y-69649879D02*
X99883333Y-69673689D01*
X99978571Y-69673689D01*
X100026190Y-69649879D01*
X100050000Y-69626070D01*
X100073809Y-69578451D01*
X100073809Y-69435594D01*
X100050000Y-69387975D01*
X100026190Y-69364165D01*
X99978571Y-69340356D01*
X99883333Y-69340356D01*
X99835714Y-69364165D01*
X99288095Y-69340356D02*
X99097619Y-69340356D01*
X99216666Y-69173689D02*
X99216666Y-69602260D01*
X99192857Y-69649879D01*
X99145238Y-69673689D01*
X99097619Y-69673689D01*
X98859523Y-69673689D02*
X98907142Y-69649879D01*
X98930952Y-69626070D01*
X98954761Y-69578451D01*
X98954761Y-69435594D01*
X98930952Y-69387975D01*
X98907142Y-69364165D01*
X98859523Y-69340356D01*
X98788095Y-69340356D01*
X98740476Y-69364165D01*
X98716666Y-69387975D01*
X98692857Y-69435594D01*
X98692857Y-69578451D01*
X98716666Y-69626070D01*
X98740476Y-69649879D01*
X98788095Y-69673689D01*
X98859523Y-69673689D01*
X107097619Y-70478689D02*
X107097619Y-70145356D01*
X107097619Y-70240594D02*
X107073809Y-70192975D01*
X107050000Y-70169165D01*
X107002380Y-70145356D01*
X106954761Y-70145356D01*
X106597619Y-70454879D02*
X106645238Y-70478689D01*
X106740476Y-70478689D01*
X106788095Y-70454879D01*
X106811904Y-70407260D01*
X106811904Y-70216784D01*
X106788095Y-70169165D01*
X106740476Y-70145356D01*
X106645238Y-70145356D01*
X106597619Y-70169165D01*
X106573809Y-70216784D01*
X106573809Y-70264403D01*
X106811904Y-70312022D01*
X106359523Y-70478689D02*
X106359523Y-70145356D01*
X106359523Y-70192975D02*
X106335714Y-70169165D01*
X106288095Y-70145356D01*
X106216666Y-70145356D01*
X106169047Y-70169165D01*
X106145238Y-70216784D01*
X106145238Y-70478689D01*
X106145238Y-70216784D02*
X106121428Y-70169165D01*
X106073809Y-70145356D01*
X106002380Y-70145356D01*
X105954761Y-70169165D01*
X105930952Y-70216784D01*
X105930952Y-70478689D01*
X105621428Y-70478689D02*
X105669047Y-70454879D01*
X105692857Y-70431070D01*
X105716666Y-70383451D01*
X105716666Y-70240594D01*
X105692857Y-70192975D01*
X105669047Y-70169165D01*
X105621428Y-70145356D01*
X105550000Y-70145356D01*
X105502380Y-70169165D01*
X105478571Y-70192975D01*
X105454761Y-70240594D01*
X105454761Y-70383451D01*
X105478571Y-70431070D01*
X105502380Y-70454879D01*
X105550000Y-70478689D01*
X105621428Y-70478689D01*
X105288095Y-70145356D02*
X105169047Y-70478689D01*
X105050000Y-70145356D01*
X104669047Y-70454879D02*
X104716666Y-70478689D01*
X104811904Y-70478689D01*
X104859523Y-70454879D01*
X104883333Y-70407260D01*
X104883333Y-70216784D01*
X104859523Y-70169165D01*
X104811904Y-70145356D01*
X104716666Y-70145356D01*
X104669047Y-70169165D01*
X104645238Y-70216784D01*
X104645238Y-70264403D01*
X104883333Y-70312022D01*
X104121428Y-70145356D02*
X103930952Y-70145356D01*
X104050000Y-69978689D02*
X104050000Y-70407260D01*
X104026190Y-70454879D01*
X103978571Y-70478689D01*
X103930952Y-70478689D01*
X103764285Y-70478689D02*
X103764285Y-69978689D01*
X103550000Y-70478689D02*
X103550000Y-70216784D01*
X103573809Y-70169165D01*
X103621428Y-70145356D01*
X103692857Y-70145356D01*
X103740476Y-70169165D01*
X103764285Y-70192975D01*
X103121428Y-70454879D02*
X103169047Y-70478689D01*
X103264285Y-70478689D01*
X103311904Y-70454879D01*
X103335714Y-70407260D01*
X103335714Y-70216784D01*
X103311904Y-70169165D01*
X103264285Y-70145356D01*
X103169047Y-70145356D01*
X103121428Y-70169165D01*
X103097619Y-70216784D01*
X103097619Y-70264403D01*
X103335714Y-70312022D01*
X102526190Y-70454879D02*
X102478571Y-70478689D01*
X102383333Y-70478689D01*
X102335714Y-70454879D01*
X102311904Y-70407260D01*
X102311904Y-70383451D01*
X102335714Y-70335832D01*
X102383333Y-70312022D01*
X102454761Y-70312022D01*
X102502380Y-70288213D01*
X102526190Y-70240594D01*
X102526190Y-70216784D01*
X102502380Y-70169165D01*
X102454761Y-70145356D01*
X102383333Y-70145356D01*
X102335714Y-70169165D01*
X102026190Y-70478689D02*
X102073809Y-70454879D01*
X102097619Y-70431070D01*
X102121428Y-70383451D01*
X102121428Y-70240594D01*
X102097619Y-70192975D01*
X102073809Y-70169165D01*
X102026190Y-70145356D01*
X101954761Y-70145356D01*
X101907142Y-70169165D01*
X101883333Y-70192975D01*
X101859523Y-70240594D01*
X101859523Y-70383451D01*
X101883333Y-70431070D01*
X101907142Y-70454879D01*
X101954761Y-70478689D01*
X102026190Y-70478689D01*
X101573809Y-70478689D02*
X101621428Y-70454879D01*
X101645238Y-70407260D01*
X101645238Y-69978689D01*
X101169047Y-70478689D02*
X101169047Y-69978689D01*
X101169047Y-70454879D02*
X101216666Y-70478689D01*
X101311904Y-70478689D01*
X101359523Y-70454879D01*
X101383333Y-70431070D01*
X101407142Y-70383451D01*
X101407142Y-70240594D01*
X101383333Y-70192975D01*
X101359523Y-70169165D01*
X101311904Y-70145356D01*
X101216666Y-70145356D01*
X101169047Y-70169165D01*
X100740476Y-70454879D02*
X100788095Y-70478689D01*
X100883333Y-70478689D01*
X100930952Y-70454879D01*
X100954761Y-70407260D01*
X100954761Y-70216784D01*
X100930952Y-70169165D01*
X100883333Y-70145356D01*
X100788095Y-70145356D01*
X100740476Y-70169165D01*
X100716666Y-70216784D01*
X100716666Y-70264403D01*
X100954761Y-70312022D01*
X100502380Y-70478689D02*
X100502380Y-70145356D01*
X100502380Y-70240594D02*
X100478571Y-70192975D01*
X100454761Y-70169165D01*
X100407142Y-70145356D01*
X100359523Y-70145356D01*
X100192857Y-70478689D02*
X100192857Y-70145356D01*
X100192857Y-70192975D02*
X100169047Y-70169165D01*
X100121428Y-70145356D01*
X100050000Y-70145356D01*
X100002380Y-70169165D01*
X99978571Y-70216784D01*
X99978571Y-70478689D01*
X99978571Y-70216784D02*
X99954761Y-70169165D01*
X99907142Y-70145356D01*
X99835714Y-70145356D01*
X99788095Y-70169165D01*
X99764285Y-70216784D01*
X99764285Y-70478689D01*
X99311904Y-70478689D02*
X99311904Y-70216784D01*
X99335714Y-70169165D01*
X99383333Y-70145356D01*
X99478571Y-70145356D01*
X99526190Y-70169165D01*
X99311904Y-70454879D02*
X99359523Y-70478689D01*
X99478571Y-70478689D01*
X99526190Y-70454879D01*
X99550000Y-70407260D01*
X99550000Y-70359641D01*
X99526190Y-70312022D01*
X99478571Y-70288213D01*
X99359523Y-70288213D01*
X99311904Y-70264403D01*
X99097619Y-70454879D02*
X99050000Y-70478689D01*
X98954761Y-70478689D01*
X98907142Y-70454879D01*
X98883333Y-70407260D01*
X98883333Y-70383451D01*
X98907142Y-70335832D01*
X98954761Y-70312022D01*
X99026190Y-70312022D01*
X99073809Y-70288213D01*
X99097619Y-70240594D01*
X99097619Y-70216784D01*
X99073809Y-70169165D01*
X99026190Y-70145356D01*
X98954761Y-70145356D01*
X98907142Y-70169165D01*
X98669047Y-70478689D02*
X98669047Y-69978689D01*
X98621428Y-70288213D02*
X98478571Y-70478689D01*
X98478571Y-70145356D02*
X98669047Y-70335832D01*
D11*
X104832857Y-36861428D02*
X104975714Y-36813809D01*
X105023333Y-36766190D01*
X105070952Y-36670952D01*
X105070952Y-36528095D01*
X105023333Y-36432857D01*
X104975714Y-36385238D01*
X104880476Y-36337619D01*
X104499523Y-36337619D01*
X104499523Y-37337619D01*
X104832857Y-37337619D01*
X104928095Y-37290000D01*
X104975714Y-37242380D01*
X105023333Y-37147142D01*
X105023333Y-37051904D01*
X104975714Y-36956666D01*
X104928095Y-36909047D01*
X104832857Y-36861428D01*
X104499523Y-36861428D01*
X105975714Y-36337619D02*
X105499523Y-36337619D01*
X105499523Y-37337619D01*
X106309047Y-37337619D02*
X106309047Y-36528095D01*
X106356666Y-36432857D01*
X106404285Y-36385238D01*
X106499523Y-36337619D01*
X106690000Y-36337619D01*
X106785238Y-36385238D01*
X106832857Y-36432857D01*
X106880476Y-36528095D01*
X106880476Y-37337619D01*
X91451904Y-37140000D02*
X91356666Y-37187619D01*
X91213809Y-37187619D01*
X91070952Y-37140000D01*
X90975714Y-37044761D01*
X90928095Y-36949523D01*
X90880476Y-36759047D01*
X90880476Y-36616190D01*
X90928095Y-36425714D01*
X90975714Y-36330476D01*
X91070952Y-36235238D01*
X91213809Y-36187619D01*
X91309047Y-36187619D01*
X91451904Y-36235238D01*
X91499523Y-36282857D01*
X91499523Y-36616190D01*
X91309047Y-36616190D01*
X91928095Y-36187619D02*
X91928095Y-37187619D01*
X92309047Y-37187619D01*
X92404285Y-37140000D01*
X92451904Y-37092380D01*
X92499523Y-36997142D01*
X92499523Y-36854285D01*
X92451904Y-36759047D01*
X92404285Y-36711428D01*
X92309047Y-36663809D01*
X91928095Y-36663809D01*
X93118571Y-37187619D02*
X93309047Y-37187619D01*
X93404285Y-37140000D01*
X93499523Y-37044761D01*
X93547142Y-36854285D01*
X93547142Y-36520952D01*
X93499523Y-36330476D01*
X93404285Y-36235238D01*
X93309047Y-36187619D01*
X93118571Y-36187619D01*
X93023333Y-36235238D01*
X92928095Y-36330476D01*
X92880476Y-36520952D01*
X92880476Y-36854285D01*
X92928095Y-37044761D01*
X93023333Y-37140000D01*
X93118571Y-37187619D01*
X94023333Y-36187619D02*
X94213809Y-36187619D01*
X94309047Y-36235238D01*
X94356666Y-36282857D01*
X94451904Y-36425714D01*
X94499523Y-36616190D01*
X94499523Y-36997142D01*
X94451904Y-37092380D01*
X94404285Y-37140000D01*
X94309047Y-37187619D01*
X94118571Y-37187619D01*
X94023333Y-37140000D01*
X93975714Y-37092380D01*
X93928095Y-36997142D01*
X93928095Y-36759047D01*
X93975714Y-36663809D01*
X94023333Y-36616190D01*
X94118571Y-36568571D01*
X94309047Y-36568571D01*
X94404285Y-36616190D01*
X94451904Y-36663809D01*
X94499523Y-36759047D01*
X29861904Y-46750000D02*
X29957142Y-46702380D01*
X30100000Y-46702380D01*
X30242857Y-46750000D01*
X30338095Y-46845238D01*
X30385714Y-46940476D01*
X30433333Y-47130952D01*
X30433333Y-47273809D01*
X30385714Y-47464285D01*
X30338095Y-47559523D01*
X30242857Y-47654761D01*
X30100000Y-47702380D01*
X30004761Y-47702380D01*
X29861904Y-47654761D01*
X29814285Y-47607142D01*
X29814285Y-47273809D01*
X30004761Y-47273809D01*
X29385714Y-47702380D02*
X29385714Y-46702380D01*
X28814285Y-47702380D01*
X28814285Y-46702380D01*
X28338095Y-47702380D02*
X28338095Y-46702380D01*
X28100000Y-46702380D01*
X27957142Y-46750000D01*
X27861904Y-46845238D01*
X27814285Y-46940476D01*
X27766666Y-47130952D01*
X27766666Y-47273809D01*
X27814285Y-47464285D01*
X27861904Y-47559523D01*
X27957142Y-47654761D01*
X28100000Y-47702380D01*
X28338095Y-47702380D01*
X100498094Y-37240000D02*
X100402856Y-37287619D01*
X100259999Y-37287619D01*
X100117141Y-37240000D01*
X100021903Y-37144761D01*
X99974284Y-37049523D01*
X99926665Y-36859047D01*
X99926665Y-36716190D01*
X99974284Y-36525714D01*
X100021903Y-36430476D01*
X100117141Y-36335238D01*
X100259999Y-36287619D01*
X100355237Y-36287619D01*
X100498094Y-36335238D01*
X100545713Y-36382857D01*
X100545713Y-36716190D01*
X100355237Y-36716190D01*
X101545713Y-36287619D02*
X101212379Y-36763809D01*
X100974284Y-36287619D02*
X100974284Y-37287619D01*
X101355237Y-37287619D01*
X101450475Y-37240000D01*
X101498094Y-37192380D01*
X101545713Y-37097142D01*
X101545713Y-36954285D01*
X101498094Y-36859047D01*
X101450475Y-36811428D01*
X101355237Y-36763809D01*
X100974284Y-36763809D01*
X101974284Y-36287619D02*
X101974284Y-37287619D01*
X102545713Y-36287619D01*
X102545713Y-37287619D01*
X79651904Y-45779380D02*
X79651904Y-44779380D01*
X79318571Y-45493666D01*
X78985238Y-44779380D01*
X78985238Y-45779380D01*
X78318571Y-44779380D02*
X78128095Y-44779380D01*
X78032857Y-44827000D01*
X77937619Y-44922238D01*
X77890000Y-45112714D01*
X77890000Y-45446047D01*
X77937619Y-45636523D01*
X78032857Y-45731761D01*
X78128095Y-45779380D01*
X78318571Y-45779380D01*
X78413809Y-45731761D01*
X78509047Y-45636523D01*
X78556666Y-45446047D01*
X78556666Y-45112714D01*
X78509047Y-44922238D01*
X78413809Y-44827000D01*
X78318571Y-44779380D01*
X77604285Y-44779380D02*
X77032857Y-44779380D01*
X77318571Y-45779380D02*
X77318571Y-44779380D01*
X76509047Y-44779380D02*
X76318571Y-44779380D01*
X76223333Y-44827000D01*
X76128095Y-44922238D01*
X76080476Y-45112714D01*
X76080476Y-45446047D01*
X76128095Y-45636523D01*
X76223333Y-45731761D01*
X76318571Y-45779380D01*
X76509047Y-45779380D01*
X76604285Y-45731761D01*
X76699523Y-45636523D01*
X76747142Y-45446047D01*
X76747142Y-45112714D01*
X76699523Y-44922238D01*
X76604285Y-44827000D01*
X76509047Y-44779380D01*
X75080476Y-45779380D02*
X75413809Y-45303190D01*
X75651904Y-45779380D02*
X75651904Y-44779380D01*
X75270952Y-44779380D01*
X75175714Y-44827000D01*
X75128095Y-44874619D01*
X75080476Y-44969857D01*
X75080476Y-45112714D01*
X75128095Y-45207952D01*
X75175714Y-45255571D01*
X75270952Y-45303190D01*
X75651904Y-45303190D01*
X79937619Y-47294142D02*
X79985238Y-47341761D01*
X80128095Y-47389380D01*
X80223333Y-47389380D01*
X80366190Y-47341761D01*
X80461428Y-47246523D01*
X80509047Y-47151285D01*
X80556666Y-46960809D01*
X80556666Y-46817952D01*
X80509047Y-46627476D01*
X80461428Y-46532238D01*
X80366190Y-46437000D01*
X80223333Y-46389380D01*
X80128095Y-46389380D01*
X79985238Y-46437000D01*
X79937619Y-46484619D01*
X79318571Y-46389380D02*
X79128095Y-46389380D01*
X79032857Y-46437000D01*
X78937619Y-46532238D01*
X78890000Y-46722714D01*
X78890000Y-47056047D01*
X78937619Y-47246523D01*
X79032857Y-47341761D01*
X79128095Y-47389380D01*
X79318571Y-47389380D01*
X79413809Y-47341761D01*
X79509047Y-47246523D01*
X79556666Y-47056047D01*
X79556666Y-46722714D01*
X79509047Y-46532238D01*
X79413809Y-46437000D01*
X79318571Y-46389380D01*
X78461428Y-47389380D02*
X78461428Y-46389380D01*
X77890000Y-47389380D01*
X77890000Y-46389380D01*
X77556666Y-46389380D02*
X76985238Y-46389380D01*
X77270952Y-47389380D02*
X77270952Y-46389380D01*
X76080476Y-47389380D02*
X76413809Y-46913190D01*
X76651904Y-47389380D02*
X76651904Y-46389380D01*
X76270952Y-46389380D01*
X76175714Y-46437000D01*
X76128095Y-46484619D01*
X76080476Y-46579857D01*
X76080476Y-46722714D01*
X76128095Y-46817952D01*
X76175714Y-46865571D01*
X76270952Y-46913190D01*
X76651904Y-46913190D01*
X75461428Y-46389380D02*
X75270952Y-46389380D01*
X75175714Y-46437000D01*
X75080476Y-46532238D01*
X75032857Y-46722714D01*
X75032857Y-47056047D01*
X75080476Y-47246523D01*
X75175714Y-47341761D01*
X75270952Y-47389380D01*
X75461428Y-47389380D01*
X75556666Y-47341761D01*
X75651904Y-47246523D01*
X75699523Y-47056047D01*
X75699523Y-46722714D01*
X75651904Y-46532238D01*
X75556666Y-46437000D01*
X75461428Y-46389380D01*
X74128095Y-47389380D02*
X74604285Y-47389380D01*
X74604285Y-46389380D01*
D13*
X38957618Y-73796190D02*
X38957618Y-73296190D01*
X38743332Y-73796190D02*
X38743332Y-73534285D01*
X38767141Y-73486666D01*
X38814760Y-73462857D01*
X38886189Y-73462857D01*
X38933808Y-73486666D01*
X38957618Y-73510476D01*
X38576665Y-73462857D02*
X38386189Y-73462857D01*
X38505237Y-73296190D02*
X38505237Y-73724761D01*
X38481427Y-73772380D01*
X38433808Y-73796190D01*
X38386189Y-73796190D01*
X38290951Y-73462857D02*
X38100475Y-73462857D01*
X38219522Y-73296190D02*
X38219522Y-73724761D01*
X38195713Y-73772380D01*
X38148094Y-73796190D01*
X38100475Y-73796190D01*
X37933808Y-73462857D02*
X37933808Y-73962857D01*
X37933808Y-73486666D02*
X37886189Y-73462857D01*
X37790951Y-73462857D01*
X37743332Y-73486666D01*
X37719522Y-73510476D01*
X37695713Y-73558095D01*
X37695713Y-73700952D01*
X37719522Y-73748571D01*
X37743332Y-73772380D01*
X37790951Y-73796190D01*
X37886189Y-73796190D01*
X37933808Y-73772380D01*
X37505237Y-73772380D02*
X37457618Y-73796190D01*
X37362379Y-73796190D01*
X37314760Y-73772380D01*
X37290951Y-73724761D01*
X37290951Y-73700952D01*
X37314760Y-73653333D01*
X37362379Y-73629523D01*
X37433808Y-73629523D01*
X37481427Y-73605714D01*
X37505237Y-73558095D01*
X37505237Y-73534285D01*
X37481427Y-73486666D01*
X37433808Y-73462857D01*
X37362379Y-73462857D01*
X37314760Y-73486666D01*
X37076665Y-73748571D02*
X37052856Y-73772380D01*
X37076665Y-73796190D01*
X37100475Y-73772380D01*
X37076665Y-73748571D01*
X37076665Y-73796190D01*
X37076665Y-73486666D02*
X37052856Y-73510476D01*
X37076665Y-73534285D01*
X37100475Y-73510476D01*
X37076665Y-73486666D01*
X37076665Y-73534285D01*
X36481427Y-73272380D02*
X36909999Y-73915238D01*
X35957618Y-73272380D02*
X36386189Y-73915238D01*
X35576665Y-73772380D02*
X35624284Y-73796190D01*
X35719522Y-73796190D01*
X35767141Y-73772380D01*
X35790951Y-73748571D01*
X35814760Y-73700952D01*
X35814760Y-73558095D01*
X35790951Y-73510476D01*
X35767141Y-73486666D01*
X35719522Y-73462857D01*
X35624284Y-73462857D01*
X35576665Y-73486666D01*
X35290951Y-73796190D02*
X35338570Y-73772380D01*
X35362379Y-73748571D01*
X35386189Y-73700952D01*
X35386189Y-73558095D01*
X35362379Y-73510476D01*
X35338570Y-73486666D01*
X35290951Y-73462857D01*
X35219522Y-73462857D01*
X35171903Y-73486666D01*
X35148094Y-73510476D01*
X35124284Y-73558095D01*
X35124284Y-73700952D01*
X35148094Y-73748571D01*
X35171903Y-73772380D01*
X35219522Y-73796190D01*
X35290951Y-73796190D01*
X34909999Y-73462857D02*
X34909999Y-73796190D01*
X34909999Y-73510476D02*
X34886189Y-73486666D01*
X34838570Y-73462857D01*
X34767141Y-73462857D01*
X34719522Y-73486666D01*
X34695713Y-73534285D01*
X34695713Y-73796190D01*
X34267141Y-73772380D02*
X34314760Y-73796190D01*
X34409999Y-73796190D01*
X34457618Y-73772380D01*
X34481427Y-73724761D01*
X34481427Y-73534285D01*
X34457618Y-73486666D01*
X34409999Y-73462857D01*
X34314760Y-73462857D01*
X34267141Y-73486666D01*
X34243332Y-73534285D01*
X34243332Y-73581904D01*
X34481427Y-73629523D01*
X34029046Y-73748571D02*
X34005237Y-73772380D01*
X34029046Y-73796190D01*
X34052856Y-73772380D01*
X34029046Y-73748571D01*
X34029046Y-73796190D01*
X33576665Y-73772380D02*
X33624284Y-73796190D01*
X33719522Y-73796190D01*
X33767141Y-73772380D01*
X33790951Y-73748571D01*
X33814760Y-73700952D01*
X33814760Y-73558095D01*
X33790951Y-73510476D01*
X33767141Y-73486666D01*
X33719522Y-73462857D01*
X33624284Y-73462857D01*
X33576665Y-73486666D01*
X33290951Y-73796190D02*
X33338570Y-73772380D01*
X33362379Y-73748571D01*
X33386189Y-73700952D01*
X33386189Y-73558095D01*
X33362379Y-73510476D01*
X33338570Y-73486666D01*
X33290951Y-73462857D01*
X33219522Y-73462857D01*
X33171903Y-73486666D01*
X33148094Y-73510476D01*
X33124284Y-73558095D01*
X33124284Y-73700952D01*
X33148094Y-73748571D01*
X33171903Y-73772380D01*
X33219522Y-73796190D01*
X33290951Y-73796190D01*
X32695713Y-73796190D02*
X32695713Y-73296190D01*
X32695713Y-73772380D02*
X32743332Y-73796190D01*
X32838570Y-73796190D01*
X32886189Y-73772380D01*
X32909999Y-73748571D01*
X32933808Y-73700952D01*
X32933808Y-73558095D01*
X32909999Y-73510476D01*
X32886189Y-73486666D01*
X32838570Y-73462857D01*
X32743332Y-73462857D01*
X32695713Y-73486666D01*
X32267141Y-73772380D02*
X32314760Y-73796190D01*
X32409999Y-73796190D01*
X32457618Y-73772380D01*
X32481427Y-73724761D01*
X32481427Y-73534285D01*
X32457618Y-73486666D01*
X32409999Y-73462857D01*
X32314760Y-73462857D01*
X32267141Y-73486666D01*
X32243332Y-73534285D01*
X32243332Y-73581904D01*
X32481427Y-73629523D01*
X32052856Y-73772380D02*
X32005237Y-73796190D01*
X31909999Y-73796190D01*
X31862379Y-73772380D01*
X31838570Y-73724761D01*
X31838570Y-73700952D01*
X31862379Y-73653333D01*
X31909999Y-73629523D01*
X31981427Y-73629523D01*
X32029046Y-73605714D01*
X32052856Y-73558095D01*
X32052856Y-73534285D01*
X32029046Y-73486666D01*
X31981427Y-73462857D01*
X31909999Y-73462857D01*
X31862379Y-73486666D01*
X37407142Y-91826190D02*
X37407142Y-91326190D01*
X37192857Y-91826190D02*
X37192857Y-91564285D01*
X37216666Y-91516666D01*
X37264285Y-91492857D01*
X37335714Y-91492857D01*
X37383333Y-91516666D01*
X37407142Y-91540476D01*
X37026190Y-91492857D02*
X36835714Y-91492857D01*
X36954761Y-91326190D02*
X36954761Y-91754761D01*
X36930952Y-91802380D01*
X36883333Y-91826190D01*
X36835714Y-91826190D01*
X36740476Y-91492857D02*
X36550000Y-91492857D01*
X36669047Y-91326190D02*
X36669047Y-91754761D01*
X36645238Y-91802380D01*
X36597619Y-91826190D01*
X36550000Y-91826190D01*
X36383333Y-91492857D02*
X36383333Y-91992857D01*
X36383333Y-91516666D02*
X36335714Y-91492857D01*
X36240476Y-91492857D01*
X36192857Y-91516666D01*
X36169047Y-91540476D01*
X36145238Y-91588095D01*
X36145238Y-91730952D01*
X36169047Y-91778571D01*
X36192857Y-91802380D01*
X36240476Y-91826190D01*
X36335714Y-91826190D01*
X36383333Y-91802380D01*
X35954761Y-91802380D02*
X35907142Y-91826190D01*
X35811904Y-91826190D01*
X35764285Y-91802380D01*
X35740476Y-91754761D01*
X35740476Y-91730952D01*
X35764285Y-91683333D01*
X35811904Y-91659523D01*
X35883333Y-91659523D01*
X35930952Y-91635714D01*
X35954761Y-91588095D01*
X35954761Y-91564285D01*
X35930952Y-91516666D01*
X35883333Y-91492857D01*
X35811904Y-91492857D01*
X35764285Y-91516666D01*
X35526190Y-91778571D02*
X35502380Y-91802380D01*
X35526190Y-91826190D01*
X35550000Y-91802380D01*
X35526190Y-91778571D01*
X35526190Y-91826190D01*
X35526190Y-91516666D02*
X35502380Y-91540476D01*
X35526190Y-91564285D01*
X35550000Y-91540476D01*
X35526190Y-91516666D01*
X35526190Y-91564285D01*
X34930952Y-91302380D02*
X35359523Y-91945238D01*
X34407142Y-91302380D02*
X34835714Y-91945238D01*
X34026190Y-91492857D02*
X34026190Y-91897619D01*
X34050000Y-91945238D01*
X34073809Y-91969047D01*
X34121428Y-91992857D01*
X34192857Y-91992857D01*
X34240476Y-91969047D01*
X34026190Y-91802380D02*
X34073809Y-91826190D01*
X34169047Y-91826190D01*
X34216666Y-91802380D01*
X34240476Y-91778571D01*
X34264285Y-91730952D01*
X34264285Y-91588095D01*
X34240476Y-91540476D01*
X34216666Y-91516666D01*
X34169047Y-91492857D01*
X34073809Y-91492857D01*
X34026190Y-91516666D01*
X33788095Y-91826190D02*
X33788095Y-91492857D01*
X33788095Y-91326190D02*
X33811904Y-91350000D01*
X33788095Y-91373809D01*
X33764285Y-91350000D01*
X33788095Y-91326190D01*
X33788095Y-91373809D01*
X33621428Y-91492857D02*
X33430952Y-91492857D01*
X33550000Y-91326190D02*
X33550000Y-91754761D01*
X33526190Y-91802380D01*
X33478571Y-91826190D01*
X33430952Y-91826190D01*
X33264285Y-91826190D02*
X33264285Y-91326190D01*
X33050000Y-91826190D02*
X33050000Y-91564285D01*
X33073809Y-91516666D01*
X33121428Y-91492857D01*
X33192857Y-91492857D01*
X33240476Y-91516666D01*
X33264285Y-91540476D01*
X32597619Y-91492857D02*
X32597619Y-91826190D01*
X32811904Y-91492857D02*
X32811904Y-91754761D01*
X32788095Y-91802380D01*
X32740476Y-91826190D01*
X32669047Y-91826190D01*
X32621428Y-91802380D01*
X32597619Y-91778571D01*
X32359523Y-91826190D02*
X32359523Y-91326190D01*
X32359523Y-91516666D02*
X32311904Y-91492857D01*
X32216666Y-91492857D01*
X32169047Y-91516666D01*
X32145238Y-91540476D01*
X32121428Y-91588095D01*
X32121428Y-91730952D01*
X32145238Y-91778571D01*
X32169047Y-91802380D01*
X32216666Y-91826190D01*
X32311904Y-91826190D01*
X32359523Y-91802380D01*
X31907142Y-91778571D02*
X31883333Y-91802380D01*
X31907142Y-91826190D01*
X31930952Y-91802380D01*
X31907142Y-91778571D01*
X31907142Y-91826190D01*
X31454761Y-91802380D02*
X31502380Y-91826190D01*
X31597619Y-91826190D01*
X31645238Y-91802380D01*
X31669047Y-91778571D01*
X31692857Y-91730952D01*
X31692857Y-91588095D01*
X31669047Y-91540476D01*
X31645238Y-91516666D01*
X31597619Y-91492857D01*
X31502380Y-91492857D01*
X31454761Y-91516666D01*
X31169047Y-91826190D02*
X31216666Y-91802380D01*
X31240476Y-91778571D01*
X31264285Y-91730952D01*
X31264285Y-91588095D01*
X31240476Y-91540476D01*
X31216666Y-91516666D01*
X31169047Y-91492857D01*
X31097619Y-91492857D01*
X31050000Y-91516666D01*
X31026190Y-91540476D01*
X31002380Y-91588095D01*
X31002380Y-91730952D01*
X31026190Y-91778571D01*
X31050000Y-91802380D01*
X31097619Y-91826190D01*
X31169047Y-91826190D01*
X30788095Y-91826190D02*
X30788095Y-91492857D01*
X30788095Y-91540476D02*
X30764285Y-91516666D01*
X30716666Y-91492857D01*
X30645238Y-91492857D01*
X30597619Y-91516666D01*
X30573809Y-91564285D01*
X30573809Y-91826190D01*
X30573809Y-91564285D02*
X30550000Y-91516666D01*
X30502380Y-91492857D01*
X30430952Y-91492857D01*
X30383333Y-91516666D01*
X30359523Y-91564285D01*
X30359523Y-91826190D01*
X29764285Y-91302380D02*
X30192857Y-91945238D01*
X29311904Y-91778571D02*
X29335714Y-91802380D01*
X29407142Y-91826190D01*
X29454761Y-91826190D01*
X29526190Y-91802380D01*
X29573809Y-91754761D01*
X29597619Y-91707142D01*
X29621428Y-91611904D01*
X29621428Y-91540476D01*
X29597619Y-91445238D01*
X29573809Y-91397619D01*
X29526190Y-91350000D01*
X29454761Y-91326190D01*
X29407142Y-91326190D01*
X29335714Y-91350000D01*
X29311904Y-91373809D01*
X29026190Y-91826190D02*
X29073809Y-91802380D01*
X29097619Y-91778571D01*
X29121428Y-91730952D01*
X29121428Y-91588095D01*
X29097619Y-91540476D01*
X29073809Y-91516666D01*
X29026190Y-91492857D01*
X28954761Y-91492857D01*
X28907142Y-91516666D01*
X28883333Y-91540476D01*
X28859523Y-91588095D01*
X28859523Y-91730952D01*
X28883333Y-91778571D01*
X28907142Y-91802380D01*
X28954761Y-91826190D01*
X29026190Y-91826190D01*
X28645238Y-91492857D02*
X28645238Y-91826190D01*
X28645238Y-91540476D02*
X28621428Y-91516666D01*
X28573809Y-91492857D01*
X28502380Y-91492857D01*
X28454761Y-91516666D01*
X28430952Y-91564285D01*
X28430952Y-91826190D01*
X28192857Y-91492857D02*
X28192857Y-91826190D01*
X28192857Y-91540476D02*
X28169047Y-91516666D01*
X28121428Y-91492857D01*
X28050000Y-91492857D01*
X28002380Y-91516666D01*
X27978571Y-91564285D01*
X27978571Y-91826190D01*
X27669047Y-91826190D02*
X27716666Y-91802380D01*
X27740476Y-91778571D01*
X27764285Y-91730952D01*
X27764285Y-91588095D01*
X27740476Y-91540476D01*
X27716666Y-91516666D01*
X27669047Y-91492857D01*
X27597619Y-91492857D01*
X27550000Y-91516666D01*
X27526190Y-91540476D01*
X27502380Y-91588095D01*
X27502380Y-91730952D01*
X27526190Y-91778571D01*
X27550000Y-91802380D01*
X27597619Y-91826190D01*
X27669047Y-91826190D01*
X27288095Y-91826190D02*
X27288095Y-91492857D01*
X27288095Y-91588095D02*
X27264285Y-91540476D01*
X27240476Y-91516666D01*
X27192857Y-91492857D01*
X27145238Y-91492857D01*
X26692857Y-91826190D02*
X26859523Y-91588095D01*
X26978571Y-91826190D02*
X26978571Y-91326190D01*
X26788095Y-91326190D01*
X26740476Y-91350000D01*
X26716666Y-91373809D01*
X26692857Y-91421428D01*
X26692857Y-91492857D01*
X26716666Y-91540476D01*
X26740476Y-91564285D01*
X26788095Y-91588095D01*
X26978571Y-91588095D01*
X26478571Y-91826190D02*
X26478571Y-91492857D01*
X26478571Y-91326190D02*
X26502380Y-91350000D01*
X26478571Y-91373809D01*
X26454761Y-91350000D01*
X26478571Y-91326190D01*
X26478571Y-91373809D01*
X26026190Y-91492857D02*
X26026190Y-91897619D01*
X26050000Y-91945238D01*
X26073809Y-91969047D01*
X26121428Y-91992857D01*
X26192857Y-91992857D01*
X26240476Y-91969047D01*
X26026190Y-91802380D02*
X26073809Y-91826190D01*
X26169047Y-91826190D01*
X26216666Y-91802380D01*
X26240476Y-91778571D01*
X26264285Y-91730952D01*
X26264285Y-91588095D01*
X26240476Y-91540476D01*
X26216666Y-91516666D01*
X26169047Y-91492857D01*
X26073809Y-91492857D01*
X26026190Y-91516666D01*
X25788095Y-91826190D02*
X25788095Y-91326190D01*
X25788095Y-91516666D02*
X25740476Y-91492857D01*
X25645238Y-91492857D01*
X25597619Y-91516666D01*
X25573809Y-91540476D01*
X25550000Y-91588095D01*
X25550000Y-91730952D01*
X25573809Y-91778571D01*
X25597619Y-91802380D01*
X25645238Y-91826190D01*
X25740476Y-91826190D01*
X25788095Y-91802380D01*
X25383333Y-91492857D02*
X25264285Y-91826190D01*
X25145238Y-91492857D02*
X25264285Y-91826190D01*
X25311904Y-91945238D01*
X25335714Y-91969047D01*
X25383333Y-91992857D01*
D11*
X33390476Y-48852380D02*
X33866666Y-48852380D01*
X33914285Y-49328571D01*
X33866666Y-49280952D01*
X33771428Y-49233333D01*
X33533333Y-49233333D01*
X33438095Y-49280952D01*
X33390476Y-49328571D01*
X33342857Y-49423809D01*
X33342857Y-49661904D01*
X33390476Y-49757142D01*
X33438095Y-49804761D01*
X33533333Y-49852380D01*
X33771428Y-49852380D01*
X33866666Y-49804761D01*
X33914285Y-49757142D01*
X33057142Y-48852380D02*
X32723809Y-49852380D01*
X32390476Y-48852380D01*
X89153334Y-38457619D02*
X89153334Y-39457619D01*
X89486667Y-38743333D01*
X89820001Y-39457619D01*
X89820001Y-38457619D01*
X90248572Y-39362380D02*
X90296191Y-39410000D01*
X90391429Y-39457619D01*
X90629524Y-39457619D01*
X90724762Y-39410000D01*
X90772381Y-39362380D01*
X90820001Y-39267142D01*
X90820001Y-39171904D01*
X90772381Y-39029047D01*
X90200953Y-38457619D01*
X90820001Y-38457619D01*
X91962858Y-39362380D02*
X92010477Y-39410000D01*
X92105715Y-39457619D01*
X92343810Y-39457619D01*
X92439048Y-39410000D01*
X92486667Y-39362380D01*
X92534286Y-39267142D01*
X92534286Y-39171904D01*
X92486667Y-39029047D01*
X91915239Y-38457619D01*
X92534286Y-38457619D01*
X50116666Y-47602380D02*
X50450000Y-47126190D01*
X50688095Y-47602380D02*
X50688095Y-46602380D01*
X50307142Y-46602380D01*
X50211904Y-46650000D01*
X50164285Y-46697619D01*
X50116666Y-46792857D01*
X50116666Y-46935714D01*
X50164285Y-47030952D01*
X50211904Y-47078571D01*
X50307142Y-47126190D01*
X50688095Y-47126190D01*
X49783333Y-46602380D02*
X49116666Y-47602380D01*
X49116666Y-46602380D02*
X49783333Y-47602380D01*
D14*
X40422322Y-64839285D02*
X40522322Y-64539285D01*
X40622322Y-64839285D01*
X40822322Y-64696428D02*
X40865179Y-64682142D01*
X40879465Y-64667857D01*
X40893751Y-64639285D01*
X40893751Y-64596428D01*
X40879465Y-64567857D01*
X40865179Y-64553571D01*
X40836608Y-64539285D01*
X40722322Y-64539285D01*
X40722322Y-64839285D01*
X40822322Y-64839285D01*
X40850893Y-64825000D01*
X40865179Y-64810714D01*
X40879465Y-64782142D01*
X40879465Y-64753571D01*
X40865179Y-64725000D01*
X40850893Y-64710714D01*
X40822322Y-64696428D01*
X40722322Y-64696428D01*
X41008036Y-64625000D02*
X41150893Y-64625000D01*
X40979465Y-64539285D02*
X41079465Y-64839285D01*
X41179465Y-64539285D01*
X41236608Y-64839285D02*
X41408036Y-64839285D01*
X41322322Y-64539285D02*
X41322322Y-64839285D01*
X41465179Y-64839285D02*
X41636608Y-64839285D01*
X41550893Y-64539285D02*
X41550893Y-64839285D01*
D11*
X46561904Y-46602380D02*
X45990476Y-46602380D01*
X46276190Y-47602380D02*
X46276190Y-46602380D01*
X45752380Y-46602380D02*
X45085714Y-47602380D01*
X45085714Y-46602380D02*
X45752380Y-47602380D01*
D12*
X39488846Y-86501190D02*
X39514144Y-86513095D01*
X39561763Y-86513095D01*
X39584084Y-86501190D01*
X39594501Y-86489285D01*
X39603430Y-86465476D01*
X39594501Y-86394047D01*
X39579620Y-86370238D01*
X39566227Y-86358333D01*
X39540930Y-86346428D01*
X39493311Y-86346428D01*
X39470989Y-86358333D01*
X39276049Y-86513095D02*
X39259680Y-86382142D01*
X39268608Y-86358333D01*
X39290930Y-86346428D01*
X39338549Y-86346428D01*
X39363846Y-86358333D01*
X39274561Y-86501190D02*
X39299858Y-86513095D01*
X39359382Y-86513095D01*
X39381703Y-86501190D01*
X39390632Y-86477380D01*
X39387656Y-86453571D01*
X39372775Y-86429761D01*
X39347477Y-86417857D01*
X39287953Y-86417857D01*
X39262656Y-86405952D01*
X39136168Y-86346428D02*
X39167418Y-86596428D01*
X39137656Y-86358333D02*
X39112358Y-86346428D01*
X39064739Y-86346428D01*
X39042418Y-86358333D01*
X39032001Y-86370238D01*
X39023072Y-86394047D01*
X39032001Y-86465476D01*
X39046882Y-86489285D01*
X39060275Y-86501190D01*
X39085572Y-86513095D01*
X39133191Y-86513095D01*
X39155513Y-86501190D01*
X38740334Y-86513095D02*
X38709084Y-86263095D01*
X38633191Y-86513095D02*
X38616822Y-86382142D01*
X38625751Y-86358333D01*
X38648072Y-86346428D01*
X38683787Y-86346428D01*
X38709084Y-86358333D01*
X38722477Y-86370238D01*
X38417418Y-86501190D02*
X38442715Y-86513095D01*
X38490334Y-86513095D01*
X38512656Y-86501190D01*
X38521584Y-86477380D01*
X38509680Y-86382142D01*
X38494799Y-86358333D01*
X38469501Y-86346428D01*
X38421882Y-86346428D01*
X38399561Y-86358333D01*
X38390632Y-86382142D01*
X38393608Y-86405952D01*
X38515632Y-86429761D01*
X38299858Y-86513095D02*
X38279025Y-86346428D01*
X38284977Y-86394047D02*
X38270096Y-86370238D01*
X38256703Y-86358333D01*
X38231406Y-86346428D01*
X38207596Y-86346428D01*
X38048370Y-86501190D02*
X38073668Y-86513095D01*
X38121287Y-86513095D01*
X38143608Y-86501190D01*
X38152537Y-86477380D01*
X38140632Y-86382142D01*
X38125751Y-86358333D01*
X38100453Y-86346428D01*
X38052834Y-86346428D01*
X38030513Y-86358333D01*
X38021584Y-86382142D01*
X38024561Y-86405952D01*
X38146584Y-86429761D01*
D11*
%TO.C,Q7*%
X92847619Y-57129761D02*
X92800000Y-57034523D01*
X92704761Y-56939285D01*
X92561904Y-56796428D01*
X92514285Y-56701190D01*
X92514285Y-56605952D01*
X92752380Y-56653571D02*
X92704761Y-56558333D01*
X92609523Y-56463095D01*
X92419047Y-56415476D01*
X92085714Y-56415476D01*
X91895238Y-56463095D01*
X91800000Y-56558333D01*
X91752380Y-56653571D01*
X91752380Y-56844047D01*
X91800000Y-56939285D01*
X91895238Y-57034523D01*
X92085714Y-57082142D01*
X92419047Y-57082142D01*
X92609523Y-57034523D01*
X92704761Y-56939285D01*
X92752380Y-56844047D01*
X92752380Y-56653571D01*
X91752380Y-57415476D02*
X91752380Y-58082142D01*
X92752380Y-57653571D01*
%TO.C,R8*%
X43561666Y-66002380D02*
X43895000Y-65526190D01*
X44133095Y-66002380D02*
X44133095Y-65002380D01*
X43752142Y-65002380D01*
X43656904Y-65050000D01*
X43609285Y-65097619D01*
X43561666Y-65192857D01*
X43561666Y-65335714D01*
X43609285Y-65430952D01*
X43656904Y-65478571D01*
X43752142Y-65526190D01*
X44133095Y-65526190D01*
X42990238Y-65430952D02*
X43085476Y-65383333D01*
X43133095Y-65335714D01*
X43180714Y-65240476D01*
X43180714Y-65192857D01*
X43133095Y-65097619D01*
X43085476Y-65050000D01*
X42990238Y-65002380D01*
X42799761Y-65002380D01*
X42704523Y-65050000D01*
X42656904Y-65097619D01*
X42609285Y-65192857D01*
X42609285Y-65240476D01*
X42656904Y-65335714D01*
X42704523Y-65383333D01*
X42799761Y-65430952D01*
X42990238Y-65430952D01*
X43085476Y-65478571D01*
X43133095Y-65526190D01*
X43180714Y-65621428D01*
X43180714Y-65811904D01*
X43133095Y-65907142D01*
X43085476Y-65954761D01*
X42990238Y-66002380D01*
X42799761Y-66002380D01*
X42704523Y-65954761D01*
X42656904Y-65907142D01*
X42609285Y-65811904D01*
X42609285Y-65621428D01*
X42656904Y-65526190D01*
X42704523Y-65478571D01*
X42799761Y-65430952D01*
%TO.C,Q5*%
X103897619Y-57129761D02*
X103850000Y-57034523D01*
X103754761Y-56939285D01*
X103611904Y-56796428D01*
X103564285Y-56701190D01*
X103564285Y-56605952D01*
X103802380Y-56653571D02*
X103754761Y-56558333D01*
X103659523Y-56463095D01*
X103469047Y-56415476D01*
X103135714Y-56415476D01*
X102945238Y-56463095D01*
X102850000Y-56558333D01*
X102802380Y-56653571D01*
X102802380Y-56844047D01*
X102850000Y-56939285D01*
X102945238Y-57034523D01*
X103135714Y-57082142D01*
X103469047Y-57082142D01*
X103659523Y-57034523D01*
X103754761Y-56939285D01*
X103802380Y-56844047D01*
X103802380Y-56653571D01*
X102802380Y-57986904D02*
X102802380Y-57510714D01*
X103278571Y-57463095D01*
X103230952Y-57510714D01*
X103183333Y-57605952D01*
X103183333Y-57844047D01*
X103230952Y-57939285D01*
X103278571Y-57986904D01*
X103373809Y-58034523D01*
X103611904Y-58034523D01*
X103707142Y-57986904D01*
X103754761Y-57939285D01*
X103802380Y-57844047D01*
X103802380Y-57605952D01*
X103754761Y-57510714D01*
X103707142Y-57463095D01*
%TO.C,R2*%
X43386666Y-60877380D02*
X43720000Y-60401190D01*
X43958095Y-60877380D02*
X43958095Y-59877380D01*
X43577142Y-59877380D01*
X43481904Y-59925000D01*
X43434285Y-59972619D01*
X43386666Y-60067857D01*
X43386666Y-60210714D01*
X43434285Y-60305952D01*
X43481904Y-60353571D01*
X43577142Y-60401190D01*
X43958095Y-60401190D01*
X43005714Y-59972619D02*
X42958095Y-59925000D01*
X42862857Y-59877380D01*
X42624761Y-59877380D01*
X42529523Y-59925000D01*
X42481904Y-59972619D01*
X42434285Y-60067857D01*
X42434285Y-60163095D01*
X42481904Y-60305952D01*
X43053333Y-60877380D01*
X42434285Y-60877380D01*
%TO.C,U310*%
X44818794Y-81925940D02*
X44818794Y-82737593D01*
X44771050Y-82833082D01*
X44723305Y-82880826D01*
X44627817Y-82928570D01*
X44436840Y-82928570D01*
X44341351Y-82880826D01*
X44293607Y-82833082D01*
X44245862Y-82737593D01*
X44245862Y-81925940D01*
X43863908Y-81925940D02*
X43243232Y-81925940D01*
X43577442Y-82307895D01*
X43434210Y-82307895D01*
X43338721Y-82355639D01*
X43290977Y-82403383D01*
X43243232Y-82498872D01*
X43243232Y-82737593D01*
X43290977Y-82833082D01*
X43338721Y-82880826D01*
X43434210Y-82928570D01*
X43720675Y-82928570D01*
X43816164Y-82880826D01*
X43863908Y-82833082D01*
X42288347Y-82928570D02*
X42861278Y-82928570D01*
X42574812Y-82928570D02*
X42574812Y-81925940D01*
X42670301Y-82069173D01*
X42765790Y-82164662D01*
X42861278Y-82212406D01*
X41667671Y-81925940D02*
X41572182Y-81925940D01*
X41476694Y-81973685D01*
X41428950Y-82021429D01*
X41381205Y-82116917D01*
X41333461Y-82307895D01*
X41333461Y-82546616D01*
X41381205Y-82737593D01*
X41428950Y-82833082D01*
X41476694Y-82880826D01*
X41572182Y-82928570D01*
X41667671Y-82928570D01*
X41763160Y-82880826D01*
X41810904Y-82833082D01*
X41858648Y-82737593D01*
X41906392Y-82546616D01*
X41906392Y-82307895D01*
X41858648Y-82116917D01*
X41810904Y-82021429D01*
X41763160Y-81973685D01*
X41667671Y-81925940D01*
%TO.C,C302*%
X32269047Y-85857142D02*
X32316666Y-85904761D01*
X32459523Y-85952380D01*
X32554761Y-85952380D01*
X32697619Y-85904761D01*
X32792857Y-85809523D01*
X32840476Y-85714285D01*
X32888095Y-85523809D01*
X32888095Y-85380952D01*
X32840476Y-85190476D01*
X32792857Y-85095238D01*
X32697619Y-85000000D01*
X32554761Y-84952380D01*
X32459523Y-84952380D01*
X32316666Y-85000000D01*
X32269047Y-85047619D01*
X31935714Y-84952380D02*
X31316666Y-84952380D01*
X31650000Y-85333333D01*
X31507142Y-85333333D01*
X31411904Y-85380952D01*
X31364285Y-85428571D01*
X31316666Y-85523809D01*
X31316666Y-85761904D01*
X31364285Y-85857142D01*
X31411904Y-85904761D01*
X31507142Y-85952380D01*
X31792857Y-85952380D01*
X31888095Y-85904761D01*
X31935714Y-85857142D01*
X30697619Y-84952380D02*
X30602380Y-84952380D01*
X30507142Y-85000000D01*
X30459523Y-85047619D01*
X30411904Y-85142857D01*
X30364285Y-85333333D01*
X30364285Y-85571428D01*
X30411904Y-85761904D01*
X30459523Y-85857142D01*
X30507142Y-85904761D01*
X30602380Y-85952380D01*
X30697619Y-85952380D01*
X30792857Y-85904761D01*
X30840476Y-85857142D01*
X30888095Y-85761904D01*
X30935714Y-85571428D01*
X30935714Y-85333333D01*
X30888095Y-85142857D01*
X30840476Y-85047619D01*
X30792857Y-85000000D01*
X30697619Y-84952380D01*
X29983333Y-85047619D02*
X29935714Y-85000000D01*
X29840476Y-84952380D01*
X29602380Y-84952380D01*
X29507142Y-85000000D01*
X29459523Y-85047619D01*
X29411904Y-85142857D01*
X29411904Y-85238095D01*
X29459523Y-85380952D01*
X30030952Y-85952380D01*
X29411904Y-85952380D01*
%TO.C,R12*%
X73552380Y-66057142D02*
X73076190Y-65723809D01*
X73552380Y-65485714D02*
X72552380Y-65485714D01*
X72552380Y-65866666D01*
X72600000Y-65961904D01*
X72647619Y-66009523D01*
X72742857Y-66057142D01*
X72885714Y-66057142D01*
X72980952Y-66009523D01*
X73028571Y-65961904D01*
X73076190Y-65866666D01*
X73076190Y-65485714D01*
X73552380Y-67009523D02*
X73552380Y-66438095D01*
X73552380Y-66723809D02*
X72552380Y-66723809D01*
X72695238Y-66628571D01*
X72790476Y-66533333D01*
X72838095Y-66438095D01*
X72647619Y-67390476D02*
X72600000Y-67438095D01*
X72552380Y-67533333D01*
X72552380Y-67771428D01*
X72600000Y-67866666D01*
X72647619Y-67914285D01*
X72742857Y-67961904D01*
X72838095Y-67961904D01*
X72980952Y-67914285D01*
X73552380Y-67342857D01*
X73552380Y-67961904D01*
%TO.C,R11*%
X74777380Y-66057142D02*
X74301190Y-65723809D01*
X74777380Y-65485714D02*
X73777380Y-65485714D01*
X73777380Y-65866666D01*
X73825000Y-65961904D01*
X73872619Y-66009523D01*
X73967857Y-66057142D01*
X74110714Y-66057142D01*
X74205952Y-66009523D01*
X74253571Y-65961904D01*
X74301190Y-65866666D01*
X74301190Y-65485714D01*
X74777380Y-67009523D02*
X74777380Y-66438095D01*
X74777380Y-66723809D02*
X73777380Y-66723809D01*
X73920238Y-66628571D01*
X74015476Y-66533333D01*
X74063095Y-66438095D01*
X74777380Y-67961904D02*
X74777380Y-67390476D01*
X74777380Y-67676190D02*
X73777380Y-67676190D01*
X73920238Y-67580952D01*
X74015476Y-67485714D01*
X74063095Y-67390476D01*
%TO.C,Q2*%
X98347619Y-57129761D02*
X98300000Y-57034523D01*
X98204761Y-56939285D01*
X98061904Y-56796428D01*
X98014285Y-56701190D01*
X98014285Y-56605952D01*
X98252380Y-56653571D02*
X98204761Y-56558333D01*
X98109523Y-56463095D01*
X97919047Y-56415476D01*
X97585714Y-56415476D01*
X97395238Y-56463095D01*
X97300000Y-56558333D01*
X97252380Y-56653571D01*
X97252380Y-56844047D01*
X97300000Y-56939285D01*
X97395238Y-57034523D01*
X97585714Y-57082142D01*
X97919047Y-57082142D01*
X98109523Y-57034523D01*
X98204761Y-56939285D01*
X98252380Y-56844047D01*
X98252380Y-56653571D01*
X97347619Y-57463095D02*
X97300000Y-57510714D01*
X97252380Y-57605952D01*
X97252380Y-57844047D01*
X97300000Y-57939285D01*
X97347619Y-57986904D01*
X97442857Y-58034523D01*
X97538095Y-58034523D01*
X97680952Y-57986904D01*
X98252380Y-57415476D01*
X98252380Y-58034523D01*
%TO.C,U4*%
X84242380Y-77235595D02*
X85051904Y-77235595D01*
X85147142Y-77283214D01*
X85194761Y-77330833D01*
X85242380Y-77426071D01*
X85242380Y-77616547D01*
X85194761Y-77711785D01*
X85147142Y-77759404D01*
X85051904Y-77807023D01*
X84242380Y-77807023D01*
X84575714Y-78711785D02*
X85242380Y-78711785D01*
X84194761Y-78473690D02*
X84909047Y-78235595D01*
X84909047Y-78854642D01*
D10*
%TO.C,Q7*%
X94860000Y-57225000D02*
X94860000Y-60675000D01*
X94860000Y-57225000D02*
X94860000Y-55275000D01*
X89740000Y-57225000D02*
X89740000Y-55275000D01*
X89740000Y-57225000D02*
X89740000Y-59175000D01*
%TO.C,R8*%
X40372500Y-65195276D02*
X40372500Y-65704724D01*
X41417500Y-65195276D02*
X41417500Y-65704724D01*
%TO.C,Q5*%
X105910000Y-57225000D02*
X105910000Y-60675000D01*
X100790000Y-57225000D02*
X100790000Y-59175000D01*
X105910000Y-57225000D02*
X105910000Y-55275000D01*
X100790000Y-57225000D02*
X100790000Y-55275000D01*
%TO.C,R2*%
X41417500Y-61082776D02*
X41417500Y-61592224D01*
X40372500Y-61082776D02*
X40372500Y-61592224D01*
%TO.C,G\u002A\u002A\u002A*%
G36*
X39183644Y-68181604D02*
G01*
X39229616Y-68194448D01*
X39299171Y-68214644D01*
X39389712Y-68241399D01*
X39498646Y-68273919D01*
X39623375Y-68311409D01*
X39761306Y-68353076D01*
X39909842Y-68398125D01*
X40066389Y-68445762D01*
X40228350Y-68495194D01*
X40393132Y-68545625D01*
X40558137Y-68596263D01*
X40720771Y-68646312D01*
X40878438Y-68694980D01*
X41028544Y-68741470D01*
X41168492Y-68784991D01*
X41295688Y-68824747D01*
X41407535Y-68859944D01*
X41501440Y-68889789D01*
X41574805Y-68913486D01*
X41625036Y-68930243D01*
X41678802Y-68949736D01*
X41798605Y-68998481D01*
X41925121Y-69055858D01*
X42049330Y-69117486D01*
X42162214Y-69178987D01*
X42254755Y-69235983D01*
X42274041Y-69249172D01*
X42382508Y-69332834D01*
X42477910Y-69422476D01*
X42554965Y-69512690D01*
X42608389Y-69598066D01*
X42609930Y-69601215D01*
X42632228Y-69651535D01*
X42645144Y-69696580D01*
X42651059Y-69748307D01*
X42652357Y-69818671D01*
X42651396Y-69872538D01*
X42646372Y-69929766D01*
X42635346Y-69974248D01*
X42616423Y-70016411D01*
X42584032Y-70069371D01*
X42504845Y-70164714D01*
X42401964Y-70257921D01*
X42279723Y-70345273D01*
X42142459Y-70423052D01*
X42127511Y-70430200D01*
X42083093Y-70450745D01*
X42013805Y-70482400D01*
X41921520Y-70524327D01*
X41808114Y-70575682D01*
X41675460Y-70635626D01*
X41525433Y-70703318D01*
X41359908Y-70777917D01*
X41180758Y-70858582D01*
X40989859Y-70944472D01*
X40789085Y-71034746D01*
X40580310Y-71128564D01*
X40365409Y-71225085D01*
X40146255Y-71323468D01*
X39924725Y-71422872D01*
X39702691Y-71522456D01*
X39482029Y-71621379D01*
X39264613Y-71718802D01*
X39052317Y-71813881D01*
X38847016Y-71905778D01*
X38650585Y-71993651D01*
X38464896Y-72076659D01*
X38291827Y-72153961D01*
X38133249Y-72224717D01*
X37991039Y-72288086D01*
X37867070Y-72343226D01*
X37763218Y-72389298D01*
X37681355Y-72425460D01*
X37623358Y-72450871D01*
X37591099Y-72464691D01*
X37388904Y-72541260D01*
X37110988Y-72628100D01*
X36810164Y-72703611D01*
X36489828Y-72767052D01*
X36153376Y-72817680D01*
X35804203Y-72854755D01*
X35783733Y-72856315D01*
X35697771Y-72860611D01*
X35588333Y-72863567D01*
X35460343Y-72865250D01*
X35318722Y-72865727D01*
X35168392Y-72865064D01*
X35014276Y-72863329D01*
X34861296Y-72860587D01*
X34714375Y-72856907D01*
X34578435Y-72852354D01*
X34458399Y-72846996D01*
X34359188Y-72840900D01*
X34285725Y-72834132D01*
X33992717Y-72794271D01*
X33655514Y-72735454D01*
X33343118Y-72665890D01*
X33056952Y-72585902D01*
X32798440Y-72495815D01*
X32794648Y-72494325D01*
X32750292Y-72475987D01*
X32681079Y-72446342D01*
X32588831Y-72406212D01*
X32475372Y-72356417D01*
X32342524Y-72297779D01*
X32192112Y-72231119D01*
X32025957Y-72157257D01*
X31845884Y-72077014D01*
X31653715Y-71991211D01*
X31451274Y-71900670D01*
X31240384Y-71806211D01*
X31022867Y-71708654D01*
X30800547Y-71608822D01*
X30575247Y-71507535D01*
X30348791Y-71405614D01*
X30123000Y-71303880D01*
X29899700Y-71203153D01*
X29680712Y-71104255D01*
X29467860Y-71008007D01*
X29262967Y-70915229D01*
X29067856Y-70826743D01*
X28884351Y-70743370D01*
X28714273Y-70665930D01*
X28559448Y-70595244D01*
X28421697Y-70532134D01*
X28302844Y-70477419D01*
X28204712Y-70431923D01*
X28129124Y-70396464D01*
X28077904Y-70371864D01*
X28052874Y-70358945D01*
X27982926Y-70312830D01*
X27893422Y-70242336D01*
X27812865Y-70166437D01*
X27747564Y-70091210D01*
X27703826Y-70022727D01*
X27691403Y-69994336D01*
X27671527Y-69921721D01*
X27662104Y-69830522D01*
X27661905Y-69826317D01*
X27660495Y-69762134D01*
X27665055Y-69714480D01*
X27678039Y-69670112D01*
X27701902Y-69615788D01*
X27744636Y-69538161D01*
X27808641Y-69453057D01*
X27892194Y-69369271D01*
X28000109Y-69281406D01*
X28079953Y-69226956D01*
X28184154Y-69165207D01*
X28302923Y-69101721D01*
X28428793Y-69040305D01*
X28554294Y-68984768D01*
X28671957Y-68938916D01*
X28681874Y-68935423D01*
X28736513Y-68917017D01*
X28813941Y-68891836D01*
X28911554Y-68860673D01*
X29026747Y-68824323D01*
X29156916Y-68783580D01*
X29299457Y-68739239D01*
X29451767Y-68692094D01*
X29611241Y-68642940D01*
X29775275Y-68592570D01*
X29941265Y-68541779D01*
X30106608Y-68491362D01*
X30268699Y-68442113D01*
X30424934Y-68394826D01*
X30572709Y-68350296D01*
X30709421Y-68309317D01*
X30832465Y-68272684D01*
X30939237Y-68241190D01*
X31027133Y-68215630D01*
X31093549Y-68196799D01*
X31135882Y-68185491D01*
X31151526Y-68182500D01*
X31151705Y-68183648D01*
X31146429Y-68205627D01*
X31131912Y-68253076D01*
X31109093Y-68323221D01*
X31078909Y-68413286D01*
X31042298Y-68520497D01*
X31000196Y-68642077D01*
X30953543Y-68775254D01*
X30903274Y-68917250D01*
X30898539Y-68930564D01*
X30830674Y-69122677D01*
X30773723Y-69286572D01*
X30727565Y-69422626D01*
X30692075Y-69531216D01*
X30667130Y-69612719D01*
X30652608Y-69667509D01*
X30648384Y-69695966D01*
X30650566Y-69716193D01*
X30674920Y-69795870D01*
X30722119Y-69881752D01*
X30788281Y-69968544D01*
X30869522Y-70050950D01*
X30961960Y-70123672D01*
X31038861Y-70173424D01*
X31226496Y-70276630D01*
X31442263Y-70373592D01*
X31684787Y-70463938D01*
X31952693Y-70547293D01*
X32244608Y-70623287D01*
X32559156Y-70691544D01*
X32894962Y-70751694D01*
X33250653Y-70803361D01*
X33624853Y-70846175D01*
X33877138Y-70869145D01*
X34267349Y-70896171D01*
X34658522Y-70913346D01*
X35048718Y-70920907D01*
X35435997Y-70919091D01*
X35818419Y-70908134D01*
X36194045Y-70888274D01*
X36560936Y-70859749D01*
X36917151Y-70822793D01*
X37260751Y-70777646D01*
X37589796Y-70724544D01*
X37902347Y-70663723D01*
X38196464Y-70595421D01*
X38470207Y-70519875D01*
X38721637Y-70437322D01*
X38948813Y-70347998D01*
X39149797Y-70252141D01*
X39322649Y-70149988D01*
X39328460Y-70146099D01*
X39428331Y-70071656D01*
X39516768Y-69991755D01*
X39588098Y-69912033D01*
X39636644Y-69838126D01*
X39637268Y-69836904D01*
X39651773Y-69808294D01*
X39663375Y-69782397D01*
X39671463Y-69756576D01*
X39675428Y-69728195D01*
X39674661Y-69694618D01*
X39668553Y-69653206D01*
X39656494Y-69601326D01*
X39637875Y-69536338D01*
X39612088Y-69455608D01*
X39578522Y-69356499D01*
X39536568Y-69236373D01*
X39485617Y-69092595D01*
X39425061Y-68922528D01*
X39410756Y-68882349D01*
X39360671Y-68741412D01*
X39314117Y-68610028D01*
X39272064Y-68490959D01*
X39235481Y-68386968D01*
X39205340Y-68300816D01*
X39182609Y-68235265D01*
X39168260Y-68193079D01*
X39163261Y-68177018D01*
X39163850Y-68176908D01*
X39183644Y-68181604D01*
G37*
G36*
X32636437Y-64179887D02*
G01*
X32672524Y-64227873D01*
X32756141Y-64305381D01*
X32867863Y-64379331D01*
X33006141Y-64448980D01*
X33169428Y-64513588D01*
X33356174Y-64572412D01*
X33564831Y-64624710D01*
X33821257Y-64675091D01*
X34119858Y-64719209D01*
X34430958Y-64751416D01*
X34750433Y-64771829D01*
X35074159Y-64780565D01*
X35398015Y-64777739D01*
X35717877Y-64763469D01*
X36029622Y-64737870D01*
X36329127Y-64701060D01*
X36612268Y-64653154D01*
X36874923Y-64594269D01*
X37112969Y-64524522D01*
X37184346Y-64499145D01*
X37326567Y-64439088D01*
X37453610Y-64372375D01*
X37561634Y-64301395D01*
X37646799Y-64228534D01*
X37705265Y-64156182D01*
X37707053Y-64153355D01*
X37711300Y-64148165D01*
X37716054Y-64146382D01*
X37721928Y-64149598D01*
X37729534Y-64159407D01*
X37739485Y-64177401D01*
X37752392Y-64205173D01*
X37768869Y-64244317D01*
X37789526Y-64296425D01*
X37814977Y-64363090D01*
X37845833Y-64445906D01*
X37882707Y-64546466D01*
X37926210Y-64666362D01*
X37976956Y-64807187D01*
X38035556Y-64970535D01*
X38102622Y-65157998D01*
X38178767Y-65371169D01*
X38264603Y-65611642D01*
X38302494Y-65717815D01*
X38384106Y-65946569D01*
X38456204Y-66148872D01*
X38519353Y-66326432D01*
X38574117Y-66480958D01*
X38621061Y-66614157D01*
X38660750Y-66727737D01*
X38693748Y-66823407D01*
X38720619Y-66902875D01*
X38741929Y-66967849D01*
X38758241Y-67020036D01*
X38770121Y-67061146D01*
X38778133Y-67092885D01*
X38782840Y-67116963D01*
X38784809Y-67135087D01*
X38784603Y-67148966D01*
X38782787Y-67160308D01*
X38779926Y-67170820D01*
X38744886Y-67252022D01*
X38676503Y-67345704D01*
X38581291Y-67432909D01*
X38577332Y-67435941D01*
X38439585Y-67527347D01*
X38273320Y-67613944D01*
X38080327Y-67695299D01*
X37862396Y-67770984D01*
X37621314Y-67840565D01*
X37358871Y-67903612D01*
X37076857Y-67959695D01*
X36777060Y-68008381D01*
X36461270Y-68049240D01*
X36131275Y-68081841D01*
X35788865Y-68105752D01*
X35748934Y-68107541D01*
X35662181Y-68109910D01*
X35553223Y-68111617D01*
X35427306Y-68112681D01*
X35289677Y-68113123D01*
X35145584Y-68112963D01*
X35000273Y-68112221D01*
X34858992Y-68110919D01*
X34726988Y-68109075D01*
X34609507Y-68106712D01*
X34511798Y-68103849D01*
X34439106Y-68100506D01*
X34289512Y-68090491D01*
X33959109Y-68061982D01*
X33644341Y-68025874D01*
X33346449Y-67982541D01*
X33066674Y-67932357D01*
X32806256Y-67875698D01*
X32566434Y-67812936D01*
X32348449Y-67744447D01*
X32153541Y-67670604D01*
X31982951Y-67591782D01*
X31837919Y-67508356D01*
X31719684Y-67420699D01*
X31629488Y-67329186D01*
X31568570Y-67234191D01*
X31547433Y-67187139D01*
X31531117Y-67145506D01*
X31524867Y-67121999D01*
X31526722Y-67115087D01*
X31537677Y-67081638D01*
X31557860Y-67022464D01*
X31586580Y-66939535D01*
X31623141Y-66834821D01*
X31666853Y-66710289D01*
X31717020Y-66567908D01*
X31772951Y-66409649D01*
X31833953Y-66237480D01*
X31899331Y-66053370D01*
X31968394Y-65859288D01*
X32040448Y-65657204D01*
X32082251Y-65540076D01*
X32153225Y-65341205D01*
X32221117Y-65150959D01*
X32285204Y-64971367D01*
X32344763Y-64804453D01*
X32399071Y-64652245D01*
X32447405Y-64516769D01*
X32489042Y-64400051D01*
X32523258Y-64304119D01*
X32549332Y-64230998D01*
X32566540Y-64182716D01*
X32574159Y-64161298D01*
X32592276Y-64110023D01*
X32636437Y-64179887D01*
G37*
G36*
X35643118Y-58274020D02*
G01*
X35652523Y-58299590D01*
X35671314Y-58351529D01*
X35698837Y-58428017D01*
X35734443Y-58527232D01*
X35777479Y-58647354D01*
X35827293Y-58786561D01*
X35883235Y-58943032D01*
X35944653Y-59114945D01*
X36010894Y-59300480D01*
X36081309Y-59497815D01*
X36155244Y-59705129D01*
X36232049Y-59920601D01*
X36247490Y-59963930D01*
X36335946Y-60212203D01*
X36414719Y-60433461D01*
X36484346Y-60629319D01*
X36545362Y-60801389D01*
X36598306Y-60951286D01*
X36643713Y-61080623D01*
X36682121Y-61191014D01*
X36714066Y-61284072D01*
X36740086Y-61361412D01*
X36760717Y-61424648D01*
X36776496Y-61475392D01*
X36787959Y-61515258D01*
X36795645Y-61545861D01*
X36800088Y-61568814D01*
X36801827Y-61585730D01*
X36801398Y-61598224D01*
X36799338Y-61607909D01*
X36796184Y-61616399D01*
X36784680Y-61639396D01*
X36731654Y-61703502D01*
X36650730Y-61763719D01*
X36543855Y-61819447D01*
X36412979Y-61870086D01*
X36260050Y-61915036D01*
X36087015Y-61953695D01*
X35895824Y-61985465D01*
X35688424Y-62009745D01*
X35466763Y-62025935D01*
X35436765Y-62027510D01*
X35357502Y-62031716D01*
X35289622Y-62035381D01*
X35239544Y-62038156D01*
X35213684Y-62039692D01*
X35192919Y-62040288D01*
X35137275Y-62039342D01*
X35060547Y-62036300D01*
X34968660Y-62031550D01*
X34867540Y-62025475D01*
X34763112Y-62018462D01*
X34661301Y-62010897D01*
X34568033Y-62003165D01*
X34489234Y-61995651D01*
X34430828Y-61988742D01*
X34399768Y-61984281D01*
X34203896Y-61950611D01*
X34029210Y-61910627D01*
X33877271Y-61864938D01*
X33749643Y-61814152D01*
X33647886Y-61758877D01*
X33573566Y-61699723D01*
X33528243Y-61637297D01*
X33501877Y-61581735D01*
X34079999Y-59957337D01*
X34103235Y-59892063D01*
X34178880Y-59679719D01*
X34251585Y-59475875D01*
X34320684Y-59282387D01*
X34385511Y-59101110D01*
X34445398Y-58933899D01*
X34499682Y-58782609D01*
X34547695Y-58649095D01*
X34588770Y-58535213D01*
X34622243Y-58442817D01*
X34647447Y-58373763D01*
X34663716Y-58329905D01*
X34670383Y-58313100D01*
X34672222Y-58310303D01*
X34686943Y-58302481D01*
X34710422Y-58318117D01*
X34716070Y-58322892D01*
X34777519Y-58355736D01*
X34868181Y-58379338D01*
X34988018Y-58393693D01*
X35136993Y-58398792D01*
X35147298Y-58398815D01*
X35237995Y-58398141D01*
X35306900Y-58395202D01*
X35362084Y-58389145D01*
X35411615Y-58379116D01*
X35463563Y-58364263D01*
X35469039Y-58362517D01*
X35527602Y-58340854D01*
X35576887Y-58317707D01*
X35606719Y-58297798D01*
X35629833Y-58277335D01*
X35642134Y-58271590D01*
X35643118Y-58274020D01*
G37*
D15*
%TO.C,U310*%
X34980000Y-90500000D02*
X50980000Y-90500000D01*
X50980000Y-74500000D02*
X34980000Y-74500000D01*
D16*
X52605000Y-75515000D02*
G75*
G03*
X52605000Y-75515000I-100000J0D01*
G01*
D10*
%TO.C,C302*%
X33685000Y-82811252D02*
X33685000Y-82288748D01*
X32215000Y-82811252D02*
X32215000Y-82288748D01*
%TO.C,R12*%
X72854167Y-62950276D02*
X72854167Y-63459724D01*
X73899167Y-62950276D02*
X73899167Y-63459724D01*
%TO.C,TP2*%
X42720000Y-63400000D02*
G75*
G03*
X42720000Y-63400000I-700000J0D01*
G01*
%TO.C,R11*%
X74024167Y-62950276D02*
X74024167Y-63459724D01*
X75069167Y-62950276D02*
X75069167Y-63459724D01*
%TO.C,Q2*%
X95240000Y-57225000D02*
X95240000Y-55275000D01*
X100360000Y-57225000D02*
X100360000Y-55275000D01*
X100360000Y-57225000D02*
X100360000Y-60675000D01*
X95240000Y-57225000D02*
X95240000Y-59175000D01*
D17*
%TO.C,U4*%
X85755000Y-76122500D02*
X85755000Y-80522500D01*
X96095000Y-76122500D02*
X96095000Y-80522500D01*
D16*
X86490000Y-74082500D02*
G75*
G03*
X86490000Y-74082500I-100000J0D01*
G01*
D17*
%TO.C,J304*%
X28875000Y-87200000D02*
X28875000Y-89800000D01*
X31475000Y-89800000D02*
X31475000Y-89170000D01*
X31475000Y-87200000D02*
X31475000Y-87830000D01*
%TD*%
%LPC*%
D18*
%TO.C,U4*%
X86480000Y-74652500D02*
X86480000Y-76392500D01*
X86480000Y-76392500D02*
X86920000Y-76392500D01*
X86920000Y-76392500D02*
X86920000Y-74652500D01*
X86920000Y-74652500D02*
X86480000Y-74652500D01*
G36*
X86920000Y-76392500D02*
G01*
X86480000Y-76392500D01*
X86480000Y-74652500D01*
X86920000Y-74652500D01*
X86920000Y-76392500D01*
G37*
X86920000Y-76392500D02*
X86480000Y-76392500D01*
X86480000Y-74652500D01*
X86920000Y-74652500D01*
X86920000Y-76392500D01*
X87780000Y-80252500D02*
X87780000Y-81992500D01*
X87780000Y-81992500D02*
X88220000Y-81992500D01*
X88220000Y-81992500D02*
X88220000Y-80252500D01*
X88220000Y-80252500D02*
X87780000Y-80252500D01*
G36*
X88220000Y-81992500D02*
G01*
X87780000Y-81992500D01*
X87780000Y-80252500D01*
X88220000Y-80252500D01*
X88220000Y-81992500D01*
G37*
X88220000Y-81992500D02*
X87780000Y-81992500D01*
X87780000Y-80252500D01*
X88220000Y-80252500D01*
X88220000Y-81992500D01*
X94280000Y-80252500D02*
X94280000Y-81992500D01*
X94280000Y-81992500D02*
X94720000Y-81992500D01*
X94720000Y-81992500D02*
X94720000Y-80252500D01*
X94720000Y-80252500D02*
X94280000Y-80252500D01*
G36*
X94720000Y-81992500D02*
G01*
X94280000Y-81992500D01*
X94280000Y-80252500D01*
X94720000Y-80252500D01*
X94720000Y-81992500D01*
G37*
X94720000Y-81992500D02*
X94280000Y-81992500D01*
X94280000Y-80252500D01*
X94720000Y-80252500D01*
X94720000Y-81992500D01*
X89730000Y-74652500D02*
X89730000Y-76392500D01*
X89730000Y-76392500D02*
X90170000Y-76392500D01*
X90170000Y-76392500D02*
X90170000Y-74652500D01*
X90170000Y-74652500D02*
X89730000Y-74652500D01*
G36*
X90170000Y-76392500D02*
G01*
X89730000Y-76392500D01*
X89730000Y-74652500D01*
X90170000Y-74652500D01*
X90170000Y-76392500D01*
G37*
X90170000Y-76392500D02*
X89730000Y-76392500D01*
X89730000Y-74652500D01*
X90170000Y-74652500D01*
X90170000Y-76392500D01*
X89730000Y-80252500D02*
X89730000Y-81992500D01*
X89730000Y-81992500D02*
X90170000Y-81992500D01*
X90170000Y-81992500D02*
X90170000Y-80252500D01*
X90170000Y-80252500D02*
X89730000Y-80252500D01*
G36*
X90170000Y-81992500D02*
G01*
X89730000Y-81992500D01*
X89730000Y-80252500D01*
X90170000Y-80252500D01*
X90170000Y-81992500D01*
G37*
X90170000Y-81992500D02*
X89730000Y-81992500D01*
X89730000Y-80252500D01*
X90170000Y-80252500D01*
X90170000Y-81992500D01*
X94930000Y-80252500D02*
X94930000Y-81992500D01*
X94930000Y-81992500D02*
X95370000Y-81992500D01*
X95370000Y-81992500D02*
X95370000Y-80252500D01*
X95370000Y-80252500D02*
X94930000Y-80252500D01*
G36*
X95370000Y-81992500D02*
G01*
X94930000Y-81992500D01*
X94930000Y-80252500D01*
X95370000Y-80252500D01*
X95370000Y-81992500D01*
G37*
X95370000Y-81992500D02*
X94930000Y-81992500D01*
X94930000Y-80252500D01*
X95370000Y-80252500D01*
X95370000Y-81992500D01*
X87695000Y-77122500D02*
X87695000Y-79522500D01*
X87695000Y-79522500D02*
X94155000Y-79522500D01*
X94155000Y-79522500D02*
X94155000Y-77122500D01*
X94155000Y-77122500D02*
X87695000Y-77122500D01*
G36*
X94155000Y-79522500D02*
G01*
X87695000Y-79522500D01*
X87695000Y-77122500D01*
X94155000Y-77122500D01*
X94155000Y-79522500D01*
G37*
X94155000Y-79522500D02*
X87695000Y-79522500D01*
X87695000Y-77122500D01*
X94155000Y-77122500D01*
X94155000Y-79522500D01*
X93630000Y-80252500D02*
X93630000Y-81992500D01*
X93630000Y-81992500D02*
X94070000Y-81992500D01*
X94070000Y-81992500D02*
X94070000Y-80252500D01*
X94070000Y-80252500D02*
X93630000Y-80252500D01*
G36*
X94070000Y-81992500D02*
G01*
X93630000Y-81992500D01*
X93630000Y-80252500D01*
X94070000Y-80252500D01*
X94070000Y-81992500D01*
G37*
X94070000Y-81992500D02*
X93630000Y-81992500D01*
X93630000Y-80252500D01*
X94070000Y-80252500D01*
X94070000Y-81992500D01*
X92980000Y-80252500D02*
X92980000Y-81992500D01*
X92980000Y-81992500D02*
X93420000Y-81992500D01*
X93420000Y-81992500D02*
X93420000Y-80252500D01*
X93420000Y-80252500D02*
X92980000Y-80252500D01*
G36*
X93420000Y-81992500D02*
G01*
X92980000Y-81992500D01*
X92980000Y-80252500D01*
X93420000Y-80252500D01*
X93420000Y-81992500D01*
G37*
X93420000Y-81992500D02*
X92980000Y-81992500D01*
X92980000Y-80252500D01*
X93420000Y-80252500D01*
X93420000Y-81992500D01*
X86480000Y-80252500D02*
X86480000Y-81992500D01*
X86480000Y-81992500D02*
X86920000Y-81992500D01*
X86920000Y-81992500D02*
X86920000Y-80252500D01*
X86920000Y-80252500D02*
X86480000Y-80252500D01*
G36*
X86920000Y-81992500D02*
G01*
X86480000Y-81992500D01*
X86480000Y-80252500D01*
X86920000Y-80252500D01*
X86920000Y-81992500D01*
G37*
X86920000Y-81992500D02*
X86480000Y-81992500D01*
X86480000Y-80252500D01*
X86920000Y-80252500D01*
X86920000Y-81992500D01*
X94930000Y-74652500D02*
X94930000Y-76392500D01*
X94930000Y-76392500D02*
X95370000Y-76392500D01*
X95370000Y-76392500D02*
X95370000Y-74652500D01*
X95370000Y-74652500D02*
X94930000Y-74652500D01*
G36*
X95370000Y-76392500D02*
G01*
X94930000Y-76392500D01*
X94930000Y-74652500D01*
X95370000Y-74652500D01*
X95370000Y-76392500D01*
G37*
X95370000Y-76392500D02*
X94930000Y-76392500D01*
X94930000Y-74652500D01*
X95370000Y-74652500D01*
X95370000Y-76392500D01*
X92330000Y-74652500D02*
X92330000Y-76392500D01*
X92330000Y-76392500D02*
X92770000Y-76392500D01*
X92770000Y-76392500D02*
X92770000Y-74652500D01*
X92770000Y-74652500D02*
X92330000Y-74652500D01*
G36*
X92770000Y-76392500D02*
G01*
X92330000Y-76392500D01*
X92330000Y-74652500D01*
X92770000Y-74652500D01*
X92770000Y-76392500D01*
G37*
X92770000Y-76392500D02*
X92330000Y-76392500D01*
X92330000Y-74652500D01*
X92770000Y-74652500D01*
X92770000Y-76392500D01*
X87130000Y-80252500D02*
X87130000Y-81992500D01*
X87130000Y-81992500D02*
X87570000Y-81992500D01*
X87570000Y-81992500D02*
X87570000Y-80252500D01*
X87570000Y-80252500D02*
X87130000Y-80252500D01*
G36*
X87570000Y-81992500D02*
G01*
X87130000Y-81992500D01*
X87130000Y-80252500D01*
X87570000Y-80252500D01*
X87570000Y-81992500D01*
G37*
X87570000Y-81992500D02*
X87130000Y-81992500D01*
X87130000Y-80252500D01*
X87570000Y-80252500D01*
X87570000Y-81992500D01*
X93630000Y-74652500D02*
X93630000Y-76392500D01*
X93630000Y-76392500D02*
X94070000Y-76392500D01*
X94070000Y-76392500D02*
X94070000Y-74652500D01*
X94070000Y-74652500D02*
X93630000Y-74652500D01*
G36*
X94070000Y-76392500D02*
G01*
X93630000Y-76392500D01*
X93630000Y-74652500D01*
X94070000Y-74652500D01*
X94070000Y-76392500D01*
G37*
X94070000Y-76392500D02*
X93630000Y-76392500D01*
X93630000Y-74652500D01*
X94070000Y-74652500D01*
X94070000Y-76392500D01*
X87130000Y-74652500D02*
X87130000Y-76392500D01*
X87130000Y-76392500D02*
X87570000Y-76392500D01*
X87570000Y-76392500D02*
X87570000Y-74652500D01*
X87570000Y-74652500D02*
X87130000Y-74652500D01*
G36*
X87570000Y-76392500D02*
G01*
X87130000Y-76392500D01*
X87130000Y-74652500D01*
X87570000Y-74652500D01*
X87570000Y-76392500D01*
G37*
X87570000Y-76392500D02*
X87130000Y-76392500D01*
X87130000Y-74652500D01*
X87570000Y-74652500D01*
X87570000Y-76392500D01*
X94280000Y-74652500D02*
X94280000Y-76392500D01*
X94280000Y-76392500D02*
X94720000Y-76392500D01*
X94720000Y-76392500D02*
X94720000Y-74652500D01*
X94720000Y-74652500D02*
X94280000Y-74652500D01*
G36*
X94720000Y-76392500D02*
G01*
X94280000Y-76392500D01*
X94280000Y-74652500D01*
X94720000Y-74652500D01*
X94720000Y-76392500D01*
G37*
X94720000Y-76392500D02*
X94280000Y-76392500D01*
X94280000Y-74652500D01*
X94720000Y-74652500D01*
X94720000Y-76392500D01*
X91030000Y-74652500D02*
X91030000Y-76392500D01*
X91030000Y-76392500D02*
X91470000Y-76392500D01*
X91470000Y-76392500D02*
X91470000Y-74652500D01*
X91470000Y-74652500D02*
X91030000Y-74652500D01*
G36*
X91470000Y-76392500D02*
G01*
X91030000Y-76392500D01*
X91030000Y-74652500D01*
X91470000Y-74652500D01*
X91470000Y-76392500D01*
G37*
X91470000Y-76392500D02*
X91030000Y-76392500D01*
X91030000Y-74652500D01*
X91470000Y-74652500D01*
X91470000Y-76392500D01*
X90380000Y-74652500D02*
X90380000Y-76392500D01*
X90380000Y-76392500D02*
X90820000Y-76392500D01*
X90820000Y-76392500D02*
X90820000Y-74652500D01*
X90820000Y-74652500D02*
X90380000Y-74652500D01*
G36*
X90820000Y-76392500D02*
G01*
X90380000Y-76392500D01*
X90380000Y-74652500D01*
X90820000Y-74652500D01*
X90820000Y-76392500D01*
G37*
X90820000Y-76392500D02*
X90380000Y-76392500D01*
X90380000Y-74652500D01*
X90820000Y-74652500D01*
X90820000Y-76392500D01*
X92330000Y-80252500D02*
X92330000Y-81992500D01*
X92330000Y-81992500D02*
X92770000Y-81992500D01*
X92770000Y-81992500D02*
X92770000Y-80252500D01*
X92770000Y-80252500D02*
X92330000Y-80252500D01*
G36*
X92770000Y-81992500D02*
G01*
X92330000Y-81992500D01*
X92330000Y-80252500D01*
X92770000Y-80252500D01*
X92770000Y-81992500D01*
G37*
X92770000Y-81992500D02*
X92330000Y-81992500D01*
X92330000Y-80252500D01*
X92770000Y-80252500D01*
X92770000Y-81992500D01*
X87780000Y-74652500D02*
X87780000Y-76392500D01*
X87780000Y-76392500D02*
X88220000Y-76392500D01*
X88220000Y-76392500D02*
X88220000Y-74652500D01*
X88220000Y-74652500D02*
X87780000Y-74652500D01*
G36*
X88220000Y-76392500D02*
G01*
X87780000Y-76392500D01*
X87780000Y-74652500D01*
X88220000Y-74652500D01*
X88220000Y-76392500D01*
G37*
X88220000Y-76392500D02*
X87780000Y-76392500D01*
X87780000Y-74652500D01*
X88220000Y-74652500D01*
X88220000Y-76392500D01*
X92980000Y-74652500D02*
X92980000Y-76392500D01*
X92980000Y-76392500D02*
X93420000Y-76392500D01*
X93420000Y-76392500D02*
X93420000Y-74652500D01*
X93420000Y-74652500D02*
X92980000Y-74652500D01*
G36*
X93420000Y-76392500D02*
G01*
X92980000Y-76392500D01*
X92980000Y-74652500D01*
X93420000Y-74652500D01*
X93420000Y-76392500D01*
G37*
X93420000Y-76392500D02*
X92980000Y-76392500D01*
X92980000Y-74652500D01*
X93420000Y-74652500D01*
X93420000Y-76392500D01*
X88430000Y-80252500D02*
X88430000Y-81992500D01*
X88430000Y-81992500D02*
X88870000Y-81992500D01*
X88870000Y-81992500D02*
X88870000Y-80252500D01*
X88870000Y-80252500D02*
X88430000Y-80252500D01*
G36*
X88870000Y-81992500D02*
G01*
X88430000Y-81992500D01*
X88430000Y-80252500D01*
X88870000Y-80252500D01*
X88870000Y-81992500D01*
G37*
X88870000Y-81992500D02*
X88430000Y-81992500D01*
X88430000Y-80252500D01*
X88870000Y-80252500D01*
X88870000Y-81992500D01*
X89080000Y-80252500D02*
X89080000Y-81992500D01*
X89080000Y-81992500D02*
X89520000Y-81992500D01*
X89520000Y-81992500D02*
X89520000Y-80252500D01*
X89520000Y-80252500D02*
X89080000Y-80252500D01*
G36*
X89520000Y-81992500D02*
G01*
X89080000Y-81992500D01*
X89080000Y-80252500D01*
X89520000Y-80252500D01*
X89520000Y-81992500D01*
G37*
X89520000Y-81992500D02*
X89080000Y-81992500D01*
X89080000Y-80252500D01*
X89520000Y-80252500D01*
X89520000Y-81992500D01*
X91680000Y-74652500D02*
X91680000Y-76392500D01*
X91680000Y-76392500D02*
X92120000Y-76392500D01*
X92120000Y-76392500D02*
X92120000Y-74652500D01*
X92120000Y-74652500D02*
X91680000Y-74652500D01*
G36*
X92120000Y-76392500D02*
G01*
X91680000Y-76392500D01*
X91680000Y-74652500D01*
X92120000Y-74652500D01*
X92120000Y-76392500D01*
G37*
X92120000Y-76392500D02*
X91680000Y-76392500D01*
X91680000Y-74652500D01*
X92120000Y-74652500D01*
X92120000Y-76392500D01*
X91030000Y-80252500D02*
X91030000Y-81992500D01*
X91030000Y-81992500D02*
X91470000Y-81992500D01*
X91470000Y-81992500D02*
X91470000Y-80252500D01*
X91470000Y-80252500D02*
X91030000Y-80252500D01*
G36*
X91470000Y-81992500D02*
G01*
X91030000Y-81992500D01*
X91030000Y-80252500D01*
X91470000Y-80252500D01*
X91470000Y-81992500D01*
G37*
X91470000Y-81992500D02*
X91030000Y-81992500D01*
X91030000Y-80252500D01*
X91470000Y-80252500D01*
X91470000Y-81992500D01*
X88430000Y-74652500D02*
X88430000Y-76392500D01*
X88430000Y-76392500D02*
X88870000Y-76392500D01*
X88870000Y-76392500D02*
X88870000Y-74652500D01*
X88870000Y-74652500D02*
X88430000Y-74652500D01*
G36*
X88870000Y-76392500D02*
G01*
X88430000Y-76392500D01*
X88430000Y-74652500D01*
X88870000Y-74652500D01*
X88870000Y-76392500D01*
G37*
X88870000Y-76392500D02*
X88430000Y-76392500D01*
X88430000Y-74652500D01*
X88870000Y-74652500D01*
X88870000Y-76392500D01*
X91680000Y-80252500D02*
X91680000Y-81992500D01*
X91680000Y-81992500D02*
X92120000Y-81992500D01*
X92120000Y-81992500D02*
X92120000Y-80252500D01*
X92120000Y-80252500D02*
X91680000Y-80252500D01*
G36*
X92120000Y-81992500D02*
G01*
X91680000Y-81992500D01*
X91680000Y-80252500D01*
X92120000Y-80252500D01*
X92120000Y-81992500D01*
G37*
X92120000Y-81992500D02*
X91680000Y-81992500D01*
X91680000Y-80252500D01*
X92120000Y-80252500D01*
X92120000Y-81992500D01*
X90380000Y-80252500D02*
X90380000Y-81992500D01*
X90380000Y-81992500D02*
X90820000Y-81992500D01*
X90820000Y-81992500D02*
X90820000Y-80252500D01*
X90820000Y-80252500D02*
X90380000Y-80252500D01*
G36*
X90820000Y-81992500D02*
G01*
X90380000Y-81992500D01*
X90380000Y-80252500D01*
X90820000Y-80252500D01*
X90820000Y-81992500D01*
G37*
X90820000Y-81992500D02*
X90380000Y-81992500D01*
X90380000Y-80252500D01*
X90820000Y-80252500D01*
X90820000Y-81992500D01*
X89080000Y-74652500D02*
X89080000Y-76392500D01*
X89080000Y-76392500D02*
X89520000Y-76392500D01*
X89520000Y-76392500D02*
X89520000Y-74652500D01*
X89520000Y-74652500D02*
X89080000Y-74652500D01*
G36*
X89520000Y-76392500D02*
G01*
X89080000Y-76392500D01*
X89080000Y-74652500D01*
X89520000Y-74652500D01*
X89520000Y-76392500D01*
G37*
X89520000Y-76392500D02*
X89080000Y-76392500D01*
X89080000Y-74652500D01*
X89520000Y-74652500D01*
X89520000Y-76392500D01*
%TD*%
D19*
%TO.C,H304*%
X67000000Y-47000000D03*
%TD*%
D20*
%TO.C,J5*%
X97780000Y-82095000D03*
D21*
X101336000Y-80190000D03*
X100320000Y-85270000D03*
D20*
X97780000Y-85270000D03*
X102860000Y-82095000D03*
X102860000Y-85270000D03*
D21*
X99304000Y-80190000D03*
%TD*%
D22*
%TO.C,J4*%
X84025000Y-45040000D03*
D23*
X88215000Y-45040000D03*
X92405000Y-45040000D03*
X96595000Y-45040000D03*
X100785000Y-45040000D03*
X104975000Y-45040000D03*
X104975000Y-51390000D03*
X100785000Y-51390000D03*
X96595000Y-51390000D03*
X92405000Y-51390000D03*
X88215000Y-51390000D03*
X84025000Y-51390000D03*
D22*
X49975000Y-51390000D03*
D23*
X45785000Y-51390000D03*
X41595000Y-51390000D03*
X37405000Y-51390000D03*
X33215000Y-51390000D03*
X29025000Y-51390000D03*
X29025000Y-45040000D03*
X33215000Y-45040000D03*
X37405000Y-45040000D03*
X41595000Y-45040000D03*
X45785000Y-45040000D03*
X49975000Y-45040000D03*
%TD*%
D19*
%TO.C,H302*%
X67000000Y-74000000D03*
%TD*%
D24*
%TO.C,Q7*%
X94205000Y-59800000D03*
X92935000Y-59800000D03*
X91665000Y-59800000D03*
X90395000Y-59800000D03*
X90395000Y-54650000D03*
X91665000Y-54650000D03*
X92935000Y-54650000D03*
X94205000Y-54650000D03*
%TD*%
D25*
%TO.C,R8*%
X40895000Y-64537500D03*
X40895000Y-66362500D03*
%TD*%
D24*
%TO.C,Q5*%
X105255000Y-59800000D03*
X103985000Y-59800000D03*
X102715000Y-59800000D03*
X101445000Y-59800000D03*
X101445000Y-54650000D03*
X102715000Y-54650000D03*
X103985000Y-54650000D03*
X105255000Y-54650000D03*
%TD*%
D25*
%TO.C,R2*%
X40895000Y-60425000D03*
X40895000Y-62250000D03*
%TD*%
D26*
%TO.C,U310*%
X50480000Y-75500000D03*
X50480000Y-77500000D03*
X50480000Y-79500000D03*
X50480000Y-81500000D03*
X50480000Y-83500000D03*
X50480000Y-85500000D03*
X50480000Y-87500000D03*
X50480000Y-89500000D03*
X35480000Y-89500000D03*
X35480000Y-87500000D03*
X35480000Y-85500000D03*
X35480000Y-83500000D03*
X35480000Y-81500000D03*
X35480000Y-79500000D03*
X35480000Y-77500000D03*
X35480000Y-75500000D03*
%TD*%
D27*
%TO.C,C302*%
X32950000Y-83587500D03*
X32950000Y-81512500D03*
%TD*%
D25*
%TO.C,R12*%
X73376667Y-62292500D03*
X73376667Y-64117500D03*
%TD*%
D28*
%TO.C,TP2*%
X42020000Y-63400000D03*
%TD*%
D25*
%TO.C,R11*%
X74546667Y-62292500D03*
X74546667Y-64117500D03*
%TD*%
D24*
%TO.C,Q2*%
X99705000Y-59800000D03*
X98435000Y-59800000D03*
X97165000Y-59800000D03*
X95895000Y-59800000D03*
X95895000Y-54650000D03*
X97165000Y-54650000D03*
X98435000Y-54650000D03*
X99705000Y-54650000D03*
%TD*%
D29*
%TO.C,J304*%
X30175000Y-87025000D03*
D30*
X31700000Y-88500000D03*
D29*
X30175000Y-89975000D03*
%TD*%
G36*
X107119388Y-68020063D02*
G01*
X107165934Y-68073672D01*
X107177346Y-68128726D01*
X107162547Y-68846468D01*
X107141145Y-68914162D01*
X107086542Y-68959539D01*
X107036442Y-68969871D01*
X97608116Y-68960019D01*
X97582621Y-68967476D01*
X96867250Y-69692259D01*
X96805161Y-69726691D01*
X96776974Y-69729747D01*
X94748113Y-69720086D01*
X94722880Y-69727365D01*
X94452589Y-70006977D01*
X94440068Y-70030862D01*
X94459590Y-73164253D01*
X94440012Y-73232497D01*
X94406302Y-73267942D01*
X92804795Y-74399546D01*
X92790908Y-74417073D01*
X92789938Y-74421987D01*
X92780663Y-76211958D01*
X92760309Y-76279974D01*
X92706413Y-76326188D01*
X92651985Y-76337276D01*
X92432778Y-76332612D01*
X92365098Y-76311166D01*
X92319757Y-76256533D01*
X92309459Y-76207196D01*
X92300280Y-74123453D01*
X92319982Y-74055245D01*
X92350815Y-74021996D01*
X93475491Y-73180851D01*
X93489168Y-73162598D01*
X93489901Y-73158435D01*
X93460447Y-69702397D01*
X93479867Y-69634108D01*
X93496839Y-69612738D01*
X94293010Y-68807415D01*
X94355127Y-68773035D01*
X94382613Y-68770000D01*
X96411885Y-68770000D01*
X96437671Y-68762428D01*
X97163250Y-68046272D01*
X97225783Y-68012655D01*
X97251635Y-68009948D01*
X107051247Y-68000129D01*
X107119388Y-68020063D01*
G37*
G36*
X84442121Y-52100002D02*
G01*
X84488614Y-52153658D01*
X84500000Y-52206000D01*
X84500000Y-52321885D01*
X84507530Y-52347530D01*
X84907188Y-52747188D01*
X84930615Y-52759981D01*
X90386920Y-52750096D01*
X90455077Y-52769975D01*
X90477148Y-52787914D01*
X91397322Y-53727061D01*
X91420455Y-53740000D01*
X91864676Y-53740000D01*
X91932797Y-53760002D01*
X91979290Y-53813658D01*
X91990674Y-53865323D01*
X91999319Y-55473323D01*
X91979684Y-55541550D01*
X91926279Y-55588331D01*
X91873321Y-55600000D01*
X90126000Y-55600000D01*
X90057879Y-55579998D01*
X90011386Y-55526342D01*
X90000000Y-55474000D01*
X90000000Y-53718115D01*
X89995525Y-53702876D01*
X89994135Y-53701671D01*
X89986452Y-53700000D01*
X84611454Y-53700000D01*
X84543333Y-53679998D01*
X84523254Y-53663982D01*
X83587800Y-52747051D01*
X83553153Y-52685082D01*
X83550000Y-52657069D01*
X83550000Y-52206000D01*
X83570002Y-52137879D01*
X83623658Y-52091386D01*
X83676000Y-52080000D01*
X84374000Y-52080000D01*
X84442121Y-52100002D01*
G37*
G36*
X93420759Y-44030002D02*
G01*
X93467252Y-44083658D01*
X93478631Y-44137355D01*
X93461536Y-45727156D01*
X93440802Y-45795058D01*
X93397361Y-45835594D01*
X92925787Y-46101111D01*
X92912698Y-46114545D01*
X92910000Y-46125411D01*
X92910000Y-46571885D01*
X92917761Y-46598315D01*
X93037639Y-46726756D01*
X93060023Y-46740000D01*
X106788087Y-46740000D01*
X106856208Y-46760002D01*
X106876846Y-46776569D01*
X109462827Y-49343106D01*
X109497087Y-49405289D01*
X109500068Y-49432374D01*
X109519932Y-64777584D01*
X109500018Y-64845730D01*
X109482870Y-64866999D01*
X106716878Y-67623252D01*
X106654506Y-67657168D01*
X106627940Y-67660000D01*
X95048115Y-67660000D01*
X95022410Y-67667548D01*
X93252844Y-69427228D01*
X93239971Y-69450646D01*
X93230168Y-73097427D01*
X93209982Y-73165493D01*
X93180044Y-73197681D01*
X91494461Y-74469092D01*
X91480710Y-74487602D01*
X91480056Y-74491318D01*
X91489370Y-76363373D01*
X91469708Y-76431593D01*
X91416284Y-76478352D01*
X91363372Y-76490000D01*
X91086580Y-76490000D01*
X91018459Y-76469998D01*
X90971966Y-76416342D01*
X90960581Y-76363422D01*
X90969718Y-74371551D01*
X90990033Y-74303523D01*
X91018724Y-74272389D01*
X92095660Y-73441070D01*
X92109474Y-73422035D01*
X92109974Y-73419122D01*
X92100124Y-69282220D01*
X92119964Y-69214052D01*
X92136852Y-69193001D01*
X94583110Y-66737036D01*
X94645355Y-66702888D01*
X94672274Y-66699955D01*
X106271884Y-66690016D01*
X106297590Y-66682444D01*
X108507162Y-64482781D01*
X108519993Y-64459408D01*
X108510012Y-49798115D01*
X108502492Y-49772566D01*
X106492875Y-47782748D01*
X106469281Y-47770016D01*
X92699769Y-47789928D01*
X92631620Y-47770024D01*
X92613615Y-47756041D01*
X91940028Y-47127359D01*
X91903876Y-47066256D01*
X91900000Y-47035246D01*
X91900000Y-46128115D01*
X91894845Y-46110559D01*
X91886093Y-46102414D01*
X91415250Y-45845591D01*
X91365025Y-45795411D01*
X91349587Y-45735676D01*
X91340704Y-44136700D01*
X91360327Y-44068469D01*
X91413724Y-44021679D01*
X91466702Y-44010000D01*
X93352638Y-44010000D01*
X93420759Y-44030002D01*
G37*
G36*
X85231191Y-43850237D02*
G01*
X85277897Y-43903706D01*
X85289492Y-43957009D01*
X85280495Y-46206235D01*
X85260221Y-46274275D01*
X85206379Y-46320553D01*
X85156246Y-46331719D01*
X84578112Y-46339748D01*
X84562938Y-46344434D01*
X84561452Y-46346198D01*
X84560000Y-46353103D01*
X84560000Y-47551885D01*
X84567488Y-47577387D01*
X86027102Y-49017277D01*
X86050785Y-49030000D01*
X105728371Y-49030000D01*
X105796492Y-49050002D01*
X105816784Y-49066227D01*
X107062329Y-50292900D01*
X107096828Y-50354951D01*
X107099916Y-50382873D01*
X107080083Y-62847927D01*
X107059972Y-62916016D01*
X107043178Y-62936822D01*
X104986662Y-64993338D01*
X104924350Y-65027364D01*
X104898155Y-65030242D01*
X94258114Y-65079915D01*
X94232162Y-65087667D01*
X90112950Y-69117331D01*
X90100045Y-69140360D01*
X90119698Y-73680198D01*
X90099991Y-73748404D01*
X90060982Y-73787275D01*
X89565318Y-74100326D01*
X89551613Y-74115893D01*
X89549886Y-74123529D01*
X89531050Y-76365059D01*
X89510476Y-76433009D01*
X89456431Y-76479049D01*
X89405054Y-76490000D01*
X89217142Y-76490000D01*
X89149021Y-76469998D01*
X89102528Y-76416342D01*
X89091147Y-76362863D01*
X89159537Y-68781365D01*
X89180153Y-68713428D01*
X89196245Y-68693599D01*
X93753111Y-64117048D01*
X93815349Y-64082889D01*
X93842281Y-64079951D01*
X104541885Y-64070017D01*
X104567475Y-64062477D01*
X106117230Y-62502851D01*
X106130000Y-62479287D01*
X106130000Y-50748115D01*
X106122470Y-50722470D01*
X105442812Y-50042812D01*
X105419408Y-50030032D01*
X85651325Y-50089845D01*
X85583144Y-50070050D01*
X85563175Y-50054248D01*
X83577925Y-48126821D01*
X83542983Y-48065019D01*
X83539696Y-48037143D01*
X83530104Y-46368114D01*
X83525542Y-46352901D01*
X83523998Y-46351579D01*
X83516638Y-46350000D01*
X82896503Y-46350000D01*
X82828382Y-46329998D01*
X82781889Y-46276342D01*
X82770504Y-46223498D01*
X82779502Y-43964999D01*
X82799775Y-43896958D01*
X82853616Y-43850680D01*
X82904999Y-43839502D01*
X85162991Y-43830506D01*
X85231191Y-43850237D01*
G37*
G36*
X89202891Y-44040002D02*
G01*
X89249384Y-44093658D01*
X89260768Y-44145227D01*
X89269664Y-45595309D01*
X89250080Y-45663551D01*
X89230277Y-45687595D01*
X88723156Y-46167549D01*
X88710000Y-46190143D01*
X88710000Y-47541885D01*
X88717713Y-47568154D01*
X89047550Y-47916839D01*
X89070118Y-47929988D01*
X106269831Y-47910058D01*
X106337975Y-47929981D01*
X106356478Y-47944441D01*
X108250501Y-49732707D01*
X108286301Y-49794017D01*
X108290000Y-49824324D01*
X108290000Y-63828105D01*
X108269998Y-63896226D01*
X108253453Y-63916842D01*
X105846965Y-66342737D01*
X105784789Y-66377012D01*
X105757512Y-66380000D01*
X94668115Y-66380000D01*
X94642470Y-66387530D01*
X91642812Y-69387188D01*
X91630051Y-69410556D01*
X91649692Y-73446773D01*
X91630021Y-73514990D01*
X91599492Y-73548037D01*
X90854469Y-74109103D01*
X90840705Y-74127601D01*
X90840048Y-74131319D01*
X90849466Y-76363468D01*
X90829751Y-76431673D01*
X90776292Y-76478392D01*
X90723467Y-76490000D01*
X90495650Y-76490000D01*
X90427529Y-76469998D01*
X90381036Y-76416342D01*
X90369650Y-76364351D01*
X90350146Y-69372395D01*
X90369958Y-69304219D01*
X90387051Y-69282949D01*
X94213095Y-65456905D01*
X94275407Y-65422879D01*
X94302190Y-65420000D01*
X105401885Y-65420000D01*
X105427475Y-65412486D01*
X107317225Y-63512842D01*
X107329984Y-63489329D01*
X107310027Y-50188116D01*
X107302449Y-50162449D01*
X106022812Y-48882812D01*
X105999406Y-48870031D01*
X88722022Y-48919850D01*
X88653844Y-48900045D01*
X88633026Y-48883407D01*
X87737367Y-47996982D01*
X87703020Y-47934847D01*
X87700000Y-47907426D01*
X87700000Y-46198115D01*
X87692211Y-46171588D01*
X87233546Y-45676230D01*
X87201941Y-45612657D01*
X87200000Y-45590625D01*
X87200000Y-44146000D01*
X87220002Y-44077879D01*
X87273658Y-44031386D01*
X87326000Y-44020000D01*
X89134770Y-44020000D01*
X89202891Y-44040002D01*
G37*
G36*
X90205720Y-50930002D02*
G01*
X90226948Y-50947159D01*
X91927226Y-52657153D01*
X91950595Y-52670000D01*
X93058340Y-52670000D01*
X93126461Y-52690002D01*
X93146792Y-52706266D01*
X93797097Y-53347282D01*
X93821060Y-53360144D01*
X94455636Y-53368385D01*
X94523491Y-53389270D01*
X94569284Y-53443525D01*
X94580000Y-53494374D01*
X94580000Y-55504000D01*
X94559998Y-55572121D01*
X94506342Y-55618614D01*
X94454000Y-55630000D01*
X92694124Y-55630000D01*
X92626003Y-55609998D01*
X92579510Y-55556342D01*
X92568138Y-55505890D01*
X92540272Y-53648114D01*
X92535569Y-53632942D01*
X92533776Y-53631435D01*
X92526931Y-53630000D01*
X91602190Y-53630000D01*
X91534069Y-53609998D01*
X91513095Y-53593095D01*
X89802812Y-51882812D01*
X89779350Y-51870000D01*
X89046000Y-51870000D01*
X88977879Y-51849998D01*
X88931386Y-51796342D01*
X88920000Y-51744000D01*
X88920000Y-51036000D01*
X88940002Y-50967879D01*
X88993658Y-50921386D01*
X89046000Y-50910000D01*
X90137599Y-50910000D01*
X90205720Y-50930002D01*
G37*
G36*
X97535931Y-51020002D02*
G01*
X97556905Y-51036905D01*
X99267188Y-52747188D01*
X99290650Y-52760000D01*
X100002638Y-52760000D01*
X100070759Y-52780002D01*
X100117252Y-52833658D01*
X100128631Y-52887355D01*
X100120003Y-53689756D01*
X100120000Y-53690264D01*
X100120000Y-55494601D01*
X100099998Y-55562722D01*
X100046342Y-55609215D01*
X99994603Y-55620600D01*
X98154391Y-55629405D01*
X98086175Y-55609729D01*
X98039426Y-55556296D01*
X98027808Y-55505626D01*
X97990000Y-53360000D01*
X97980323Y-52818112D01*
X97972214Y-52792214D01*
X97322810Y-52142810D01*
X97297606Y-52129047D01*
X97247405Y-52078844D01*
X97232014Y-52016231D01*
X97247809Y-51123770D01*
X97269013Y-51056014D01*
X97323483Y-51010478D01*
X97373789Y-51000000D01*
X97467810Y-51000000D01*
X97535931Y-51020002D01*
G37*
G36*
X94285931Y-50930002D02*
G01*
X94306905Y-50946905D01*
X96607188Y-53247188D01*
X96630453Y-53259892D01*
X97463235Y-53251307D01*
X97531558Y-53270605D01*
X97578602Y-53323779D01*
X97590533Y-53376771D01*
X97599466Y-55502867D01*
X97579750Y-55571071D01*
X97526290Y-55617789D01*
X97472867Y-55629395D01*
X95625400Y-55620597D01*
X95557375Y-55600270D01*
X95511138Y-55546394D01*
X95500000Y-55494598D01*
X95500000Y-53508115D01*
X95492489Y-53482535D01*
X93882849Y-51882770D01*
X93859581Y-51870158D01*
X93337909Y-51878062D01*
X93269493Y-51859094D01*
X93222192Y-51806149D01*
X93210000Y-51752076D01*
X93210000Y-51036000D01*
X93230002Y-50967879D01*
X93283658Y-50921386D01*
X93336000Y-50910000D01*
X94217810Y-50910000D01*
X94285931Y-50930002D01*
G37*
G36*
X104142688Y-51770808D02*
G01*
X104167218Y-51782089D01*
X104738605Y-52123334D01*
X104786834Y-52175434D01*
X104800000Y-52231510D01*
X104800000Y-52366671D01*
X104779998Y-52434792D01*
X104761714Y-52457126D01*
X104483006Y-52727388D01*
X104470000Y-52750359D01*
X104470000Y-53651885D01*
X104474475Y-53667124D01*
X104475865Y-53668329D01*
X104483548Y-53670000D01*
X105584000Y-53670000D01*
X105652121Y-53690002D01*
X105698614Y-53743658D01*
X105710000Y-53796000D01*
X105710000Y-55504000D01*
X105689998Y-55572121D01*
X105636342Y-55618614D01*
X105584000Y-55630000D01*
X103635616Y-55630000D01*
X103567495Y-55609998D01*
X103521002Y-55556342D01*
X103509617Y-55504384D01*
X103500152Y-52399970D01*
X103519946Y-52331789D01*
X103534137Y-52313508D01*
X104010599Y-51804187D01*
X104071743Y-51768105D01*
X104142688Y-51770808D01*
G37*
G36*
X101744768Y-51689296D02*
G01*
X101788435Y-51717407D01*
X102522573Y-52443008D01*
X102556962Y-52505120D01*
X102560000Y-52532623D01*
X102560000Y-53651885D01*
X102564475Y-53667124D01*
X102565865Y-53668329D01*
X102573548Y-53670000D01*
X103004000Y-53670000D01*
X103072121Y-53690002D01*
X103118614Y-53743658D01*
X103130000Y-53796000D01*
X103130000Y-55494595D01*
X103109998Y-55562716D01*
X103056342Y-55609209D01*
X103004597Y-55620594D01*
X101147889Y-55629394D01*
X101079674Y-55609715D01*
X101032928Y-55556280D01*
X101021298Y-55502116D01*
X101038734Y-53784721D01*
X101059427Y-53716807D01*
X101113552Y-53670861D01*
X101164728Y-53660000D01*
X101571885Y-53660000D01*
X101587124Y-53655525D01*
X101588329Y-53654135D01*
X101590000Y-53646452D01*
X101590000Y-52888115D01*
X101582470Y-52862470D01*
X101109758Y-52389758D01*
X101075732Y-52327446D01*
X101080797Y-52256631D01*
X101110420Y-52210910D01*
X101611429Y-51717269D01*
X101673992Y-51683706D01*
X101744768Y-51689296D01*
G37*
M02*
