%TF.GenerationSoftware,KiCad,Pcbnew,(6.0.2)*%
%TF.CreationDate,2022-04-22T14:27:02-06:00*%
%TF.ProjectId,CONEPROJ,434f4e45-5052-44f4-9a2e-6b696361645f,rev?*%
%TF.SameCoordinates,Original*%
%TF.FileFunction,Legend,Top*%
%TF.FilePolarity,Positive*%
%FSLAX46Y46*%
G04 Gerber Fmt 4.6, Leading zero omitted, Abs format (unit mm)*
G04 Created by KiCad (PCBNEW (6.0.2)) date 2022-04-22 14:27:02*
%MOMM*%
%LPD*%
G01*
G04 APERTURE LIST*
G04 Aperture macros list*
%AMRoundRect*
0 Rectangle with rounded corners*
0 $1 Rounding radius*
0 $2 $3 $4 $5 $6 $7 $8 $9 X,Y pos of 4 corners*
0 Add a 4 corners polygon primitive as box body*
4,1,4,$2,$3,$4,$5,$6,$7,$8,$9,$2,$3,0*
0 Add four circle primitives for the rounded corners*
1,1,$1+$1,$2,$3*
1,1,$1+$1,$4,$5*
1,1,$1+$1,$6,$7*
1,1,$1+$1,$8,$9*
0 Add four rect primitives between the rounded corners*
20,1,$1+$1,$2,$3,$4,$5,0*
20,1,$1+$1,$4,$5,$6,$7,0*
20,1,$1+$1,$6,$7,$8,$9,0*
20,1,$1+$1,$8,$9,$2,$3,0*%
G04 Aperture macros list end*
%ADD10C,0.050000*%
%ADD11C,0.120000*%
%ADD12C,0.075000*%
%ADD13C,0.125000*%
%ADD14C,0.150000*%
%ADD15C,0.127000*%
%ADD16C,0.254000*%
%ADD17C,0.400000*%
%ADD18C,0.250000*%
%ADD19C,0.304800*%
%ADD20R,1.150000X1.000000*%
%ADD21RoundRect,0.150000X-0.150000X0.875000X-0.150000X-0.875000X0.150000X-0.875000X0.150000X0.875000X0*%
%ADD22R,1.200000X0.900000*%
%ADD23RoundRect,0.100000X-0.100000X0.637500X-0.100000X-0.637500X0.100000X-0.637500X0.100000X0.637500X0*%
%ADD24RoundRect,0.237500X-0.237500X0.300000X-0.237500X-0.300000X0.237500X-0.300000X0.237500X0.300000X0*%
%ADD25RoundRect,0.237500X0.237500X-0.300000X0.237500X0.300000X-0.237500X0.300000X-0.237500X-0.300000X0*%
%ADD26R,2.000000X2.000000*%
%ADD27RoundRect,0.150000X-0.150000X0.650000X-0.150000X-0.650000X0.150000X-0.650000X0.150000X0.650000X0*%
%ADD28RoundRect,0.250000X-0.475000X0.337500X-0.475000X-0.337500X0.475000X-0.337500X0.475000X0.337500X0*%
%ADD29RoundRect,0.250000X-0.337500X-0.475000X0.337500X-0.475000X0.337500X0.475000X-0.337500X0.475000X0*%
%ADD30C,5.600000*%
%ADD31RoundRect,0.237500X-0.237500X0.250000X-0.237500X-0.250000X0.237500X-0.250000X0.237500X0.250000X0*%
%ADD32R,0.750000X3.000000*%
%ADD33RoundRect,0.443770X-0.443770X0.893770X-0.443770X-0.893770X0.443770X-0.893770X0.443770X0.893770X0*%
%ADD34RoundRect,0.396885X-0.396885X1.015655X-0.396885X-1.015655X0.396885X-1.015655X0.396885X1.015655X0*%
%ADD35RoundRect,0.412540X-0.412540X0.887541X-0.412540X-0.887541X0.412540X-0.887541X0.412540X0.887541X0*%
%ADD36RoundRect,0.418770X-0.418770X1.006311X-0.418770X-1.006311X0.418770X-1.006311X0.418770X1.006311X0*%
%ADD37RoundRect,0.150000X0.150000X-0.825000X0.150000X0.825000X-0.150000X0.825000X-0.150000X-0.825000X0*%
%ADD38C,2.374900*%
%ADD39C,0.990600*%
%ADD40C,0.787400*%
%ADD41RoundRect,0.237500X-0.300000X-0.237500X0.300000X-0.237500X0.300000X0.237500X-0.300000X0.237500X0*%
%ADD42RoundRect,0.250000X0.337500X0.475000X-0.337500X0.475000X-0.337500X-0.475000X0.337500X-0.475000X0*%
%ADD43RoundRect,0.237500X-0.250000X-0.237500X0.250000X-0.237500X0.250000X0.237500X-0.250000X0.237500X0*%
%ADD44R,2.056000X2.056000*%
%ADD45C,2.056000*%
%ADD46RoundRect,0.250000X0.475000X-0.337500X0.475000X0.337500X-0.475000X0.337500X-0.475000X-0.337500X0*%
%ADD47RoundRect,0.237500X0.237500X-0.250000X0.237500X0.250000X-0.237500X0.250000X-0.237500X-0.250000X0*%
%ADD48RoundRect,0.237500X0.287500X0.237500X-0.287500X0.237500X-0.287500X-0.237500X0.287500X-0.237500X0*%
%ADD49R,1.000000X1.500000*%
%ADD50RoundRect,0.050000X-0.050000X0.387500X-0.050000X-0.387500X0.050000X-0.387500X0.050000X0.387500X0*%
%ADD51RoundRect,0.050000X-0.387500X0.050000X-0.387500X-0.050000X0.387500X-0.050000X0.387500X0.050000X0*%
%ADD52RoundRect,0.144000X-1.456000X1.456000X-1.456000X-1.456000X1.456000X-1.456000X1.456000X1.456000X0*%
%ADD53R,2.350000X5.100000*%
%ADD54RoundRect,0.237500X0.250000X0.237500X-0.250000X0.237500X-0.250000X-0.237500X0.250000X-0.237500X0*%
%ADD55R,0.900000X1.200000*%
%ADD56R,2.200000X0.600000*%
%ADD57R,1.800000X2.100000*%
G04 APERTURE END LIST*
D10*
X83076190Y-42452380D02*
X83076190Y-43166666D01*
X83066666Y-43309523D01*
X83047619Y-43404761D01*
X83019047Y-43452380D01*
X83000000Y-43452380D01*
X83266666Y-43452380D02*
X83171428Y-43452380D01*
X83171428Y-42452380D01*
X83447619Y-43357142D02*
X83438095Y-43404761D01*
X83409523Y-43452380D01*
X83390476Y-43452380D01*
X83361904Y-43404761D01*
X83342857Y-43309523D01*
X83333333Y-43214285D01*
X83323809Y-43023809D01*
X83323809Y-42880952D01*
X83333333Y-42690476D01*
X83342857Y-42595238D01*
X83361904Y-42500000D01*
X83390476Y-42452380D01*
X83409523Y-42452380D01*
X83438095Y-42500000D01*
X83447619Y-42547619D01*
X83590476Y-42452380D02*
X83590476Y-43166666D01*
X83580952Y-43309523D01*
X83561904Y-43404761D01*
X83533333Y-43452380D01*
X83514285Y-43452380D01*
X83780952Y-43452380D02*
X83685714Y-43452380D01*
X83685714Y-42452380D01*
X83961904Y-43357142D02*
X83952380Y-43404761D01*
X83923809Y-43452380D01*
X83904761Y-43452380D01*
X83876190Y-43404761D01*
X83857142Y-43309523D01*
X83847619Y-43214285D01*
X83838095Y-43023809D01*
X83838095Y-42880952D01*
X83847619Y-42690476D01*
X83857142Y-42595238D01*
X83876190Y-42500000D01*
X83904761Y-42452380D01*
X83923809Y-42452380D01*
X83952380Y-42500000D01*
X83961904Y-42547619D01*
X84104761Y-42452380D02*
X84104761Y-43166666D01*
X84095238Y-43309523D01*
X84076190Y-43404761D01*
X84047619Y-43452380D01*
X84028571Y-43452380D01*
X84295238Y-43452380D02*
X84200000Y-43452380D01*
X84200000Y-42452380D01*
X84476190Y-43357142D02*
X84466666Y-43404761D01*
X84438095Y-43452380D01*
X84419047Y-43452380D01*
X84390476Y-43404761D01*
X84371428Y-43309523D01*
X84361904Y-43214285D01*
X84352380Y-43023809D01*
X84352380Y-42880952D01*
X84361904Y-42690476D01*
X84371428Y-42595238D01*
X84390476Y-42500000D01*
X84419047Y-42452380D01*
X84438095Y-42452380D01*
X84466666Y-42500000D01*
X84476190Y-42547619D01*
X84619047Y-42452380D02*
X84619047Y-43166666D01*
X84609523Y-43309523D01*
X84590476Y-43404761D01*
X84561904Y-43452380D01*
X84542857Y-43452380D01*
X84809523Y-43452380D02*
X84714285Y-43452380D01*
X84714285Y-42452380D01*
X84990476Y-43357142D02*
X84980952Y-43404761D01*
X84952380Y-43452380D01*
X84933333Y-43452380D01*
X84904761Y-43404761D01*
X84885714Y-43309523D01*
X84876190Y-43214285D01*
X84866666Y-43023809D01*
X84866666Y-42880952D01*
X84876190Y-42690476D01*
X84885714Y-42595238D01*
X84904761Y-42500000D01*
X84933333Y-42452380D01*
X84952380Y-42452380D01*
X84980952Y-42500000D01*
X84990476Y-42547619D01*
D11*
X69600000Y-81800000D02*
X69600000Y-80700000D01*
X96250000Y-79250000D02*
X104750000Y-79250000D01*
X104750000Y-79250000D02*
X104750000Y-88500000D01*
X104750000Y-88500000D02*
X96250000Y-88500000D01*
X96250000Y-88500000D02*
X96250000Y-79250000D01*
X55500000Y-75125000D02*
X62500000Y-75125000D01*
X60500000Y-72500000D02*
X60500000Y-77750000D01*
X76400000Y-72200000D02*
X76400000Y-79900000D01*
X70150000Y-75125000D02*
X76150000Y-75125000D01*
X69600000Y-80700000D02*
X69300000Y-80700000D01*
X75150000Y-72500000D02*
X75150000Y-75100000D01*
X62900000Y-72500000D02*
X62900000Y-77900000D01*
X71150000Y-72500000D02*
X71150000Y-77750000D01*
X49250000Y-55250000D02*
X52500000Y-55250000D01*
X52500000Y-55250000D02*
X52500000Y-58500000D01*
X52500000Y-58500000D02*
X49250000Y-58500000D01*
X49250000Y-58500000D02*
X49250000Y-55250000D01*
X55500000Y-72500000D02*
X62500000Y-72500000D01*
X62500000Y-72500000D02*
X62500000Y-77750000D01*
X62500000Y-77750000D02*
X55500000Y-77750000D01*
X55500000Y-77750000D02*
X55500000Y-72500000D01*
X70150000Y-72500000D02*
X76150000Y-72500000D01*
X76150000Y-72500000D02*
X76150000Y-77750000D01*
X76150000Y-77750000D02*
X70150000Y-77750000D01*
X70150000Y-77750000D02*
X70150000Y-72500000D01*
X73150000Y-72500000D02*
X73150000Y-77750000D01*
X62300000Y-72200000D02*
X62900000Y-72200000D01*
X69300000Y-80700000D02*
X69300000Y-77500000D01*
X68900000Y-77300000D02*
X69300000Y-77300000D01*
X58500000Y-72500000D02*
X58500000Y-77750000D01*
X69300000Y-77300000D02*
X69300000Y-77500000D01*
X65700000Y-81800000D02*
X65700000Y-80300000D01*
X62900000Y-72200000D02*
X62900000Y-72500000D01*
X68450000Y-78600000D02*
X68450000Y-79150000D01*
X62900000Y-77900000D02*
X65700000Y-80300000D01*
X67550000Y-78600000D02*
X67550000Y-79150000D01*
X61500000Y-72500000D02*
X61500000Y-77750000D01*
X76400000Y-79900000D02*
X77300000Y-80700000D01*
X56500000Y-72500000D02*
X56500000Y-77750000D01*
X57500000Y-72500000D02*
X57500000Y-77700000D01*
X66650000Y-78600000D02*
X66650000Y-79150000D01*
X66100000Y-77500000D02*
X69000000Y-77500000D01*
X69000000Y-77500000D02*
X69000000Y-80200000D01*
X69000000Y-80200000D02*
X66100000Y-80200000D01*
X66100000Y-80200000D02*
X66100000Y-77500000D01*
X66100000Y-78850000D02*
X69000000Y-78850000D01*
X74150000Y-72500000D02*
X74150000Y-77750000D01*
X59500000Y-72500000D02*
X59500000Y-75100000D01*
X72150000Y-72500000D02*
X72150000Y-77750000D01*
X77300000Y-80700000D02*
X77300000Y-81800000D01*
X76100000Y-72200000D02*
X76400000Y-72200000D01*
D12*
X71792857Y-77202380D02*
X71811904Y-77221428D01*
X71830952Y-77278571D01*
X71830952Y-77316666D01*
X71811904Y-77373809D01*
X71773809Y-77411904D01*
X71735714Y-77430952D01*
X71659523Y-77450000D01*
X71602380Y-77450000D01*
X71526190Y-77430952D01*
X71488095Y-77411904D01*
X71450000Y-77373809D01*
X71430952Y-77316666D01*
X71430952Y-77278571D01*
X71450000Y-77221428D01*
X71469047Y-77202380D01*
X71716666Y-77050000D02*
X71716666Y-76859523D01*
X71830952Y-77088095D02*
X71430952Y-76954761D01*
X71830952Y-76821428D01*
X71830952Y-76688095D02*
X71430952Y-76688095D01*
X71830952Y-76459523D01*
X71430952Y-76459523D01*
X71430952Y-76021428D02*
X71430952Y-75792857D01*
X71830952Y-75907142D02*
X71430952Y-75907142D01*
X71430952Y-75697619D02*
X71830952Y-75430952D01*
X71430952Y-75430952D02*
X71830952Y-75697619D01*
X56135714Y-74785714D02*
X55992857Y-74885714D01*
X56135714Y-74957142D02*
X55835714Y-74957142D01*
X55835714Y-74842857D01*
X55850000Y-74814285D01*
X55864285Y-74800000D01*
X55892857Y-74785714D01*
X55935714Y-74785714D01*
X55964285Y-74800000D01*
X55978571Y-74814285D01*
X55992857Y-74842857D01*
X55992857Y-74957142D01*
X56050000Y-74671428D02*
X56050000Y-74528571D01*
X56135714Y-74700000D02*
X55835714Y-74600000D01*
X56135714Y-74500000D01*
X56135714Y-74400000D02*
X55835714Y-74400000D01*
X55835714Y-74328571D01*
X55850000Y-74285714D01*
X55878571Y-74257142D01*
X55907142Y-74242857D01*
X55964285Y-74228571D01*
X56007142Y-74228571D01*
X56064285Y-74242857D01*
X56092857Y-74257142D01*
X56121428Y-74285714D01*
X56135714Y-74328571D01*
X56135714Y-74400000D01*
X56135714Y-74100000D02*
X55835714Y-74100000D01*
X55835714Y-73900000D02*
X55835714Y-73842857D01*
X55850000Y-73814285D01*
X55878571Y-73785714D01*
X55935714Y-73771428D01*
X56035714Y-73771428D01*
X56092857Y-73785714D01*
X56121428Y-73814285D01*
X56135714Y-73842857D01*
X56135714Y-73900000D01*
X56121428Y-73928571D01*
X56092857Y-73957142D01*
X56035714Y-73971428D01*
X55935714Y-73971428D01*
X55878571Y-73957142D01*
X55850000Y-73928571D01*
X55835714Y-73900000D01*
X56135714Y-73242857D02*
X55992857Y-73342857D01*
X56135714Y-73414285D02*
X55835714Y-73414285D01*
X55835714Y-73300000D01*
X55850000Y-73271428D01*
X55864285Y-73257142D01*
X55892857Y-73242857D01*
X55935714Y-73242857D01*
X55964285Y-73257142D01*
X55978571Y-73271428D01*
X55992857Y-73300000D01*
X55992857Y-73414285D01*
X56121428Y-73128571D02*
X56135714Y-73085714D01*
X56135714Y-73014285D01*
X56121428Y-72985714D01*
X56107142Y-72971428D01*
X56078571Y-72957142D01*
X56050000Y-72957142D01*
X56021428Y-72971428D01*
X56007142Y-72985714D01*
X55992857Y-73014285D01*
X55978571Y-73071428D01*
X55964285Y-73100000D01*
X55950000Y-73114285D01*
X55921428Y-73128571D01*
X55892857Y-73128571D01*
X55864285Y-73114285D01*
X55850000Y-73100000D01*
X55835714Y-73071428D01*
X55835714Y-73000000D01*
X55850000Y-72957142D01*
X55835714Y-72871428D02*
X55835714Y-72700000D01*
X56135714Y-72785714D02*
X55835714Y-72785714D01*
D13*
X66954760Y-79476190D02*
X67264284Y-79476190D01*
X67097618Y-79666666D01*
X67169046Y-79666666D01*
X67216665Y-79690476D01*
X67240475Y-79714285D01*
X67264284Y-79761904D01*
X67264284Y-79880952D01*
X67240475Y-79928571D01*
X67216665Y-79952380D01*
X67169046Y-79976190D01*
X67026189Y-79976190D01*
X66978570Y-79952380D01*
X66954760Y-79928571D01*
X67430951Y-79642857D02*
X67549999Y-79976190D01*
X67669046Y-79642857D01*
X67811903Y-79476190D02*
X68121427Y-79476190D01*
X67954760Y-79666666D01*
X68026189Y-79666666D01*
X68073808Y-79690476D01*
X68097618Y-79714285D01*
X68121427Y-79761904D01*
X68121427Y-79880952D01*
X68097618Y-79928571D01*
X68073808Y-79952380D01*
X68026189Y-79976190D01*
X67883332Y-79976190D01*
X67835713Y-79952380D01*
X67811903Y-79928571D01*
X60226190Y-74535714D02*
X59726190Y-74535714D01*
X60083333Y-74369047D01*
X59726190Y-74202380D01*
X60226190Y-74202380D01*
X60226190Y-73964285D02*
X59726190Y-73964285D01*
X60202380Y-73750000D02*
X60226190Y-73678571D01*
X60226190Y-73559523D01*
X60202380Y-73511904D01*
X60178571Y-73488095D01*
X60130952Y-73464285D01*
X60083333Y-73464285D01*
X60035714Y-73488095D01*
X60011904Y-73511904D01*
X59988095Y-73559523D01*
X59964285Y-73654761D01*
X59940476Y-73702380D01*
X59916666Y-73726190D01*
X59869047Y-73750000D01*
X59821428Y-73750000D01*
X59773809Y-73726190D01*
X59750000Y-73702380D01*
X59726190Y-73654761D01*
X59726190Y-73535714D01*
X59750000Y-73464285D01*
X59726190Y-73154761D02*
X59726190Y-73059523D01*
X59750000Y-73011904D01*
X59797619Y-72964285D01*
X59892857Y-72940476D01*
X60059523Y-72940476D01*
X60154761Y-72964285D01*
X60202380Y-73011904D01*
X60226190Y-73059523D01*
X60226190Y-73154761D01*
X60202380Y-73202380D01*
X60154761Y-73250000D01*
X60059523Y-73273809D01*
X59892857Y-73273809D01*
X59797619Y-73250000D01*
X59750000Y-73202380D01*
X59726190Y-73154761D01*
X58202380Y-74595238D02*
X58226190Y-74523809D01*
X58226190Y-74404761D01*
X58202380Y-74357142D01*
X58178571Y-74333333D01*
X58130952Y-74309523D01*
X58083333Y-74309523D01*
X58035714Y-74333333D01*
X58011904Y-74357142D01*
X57988095Y-74404761D01*
X57964285Y-74500000D01*
X57940476Y-74547619D01*
X57916666Y-74571428D01*
X57869047Y-74595238D01*
X57821428Y-74595238D01*
X57773809Y-74571428D01*
X57750000Y-74547619D01*
X57726190Y-74500000D01*
X57726190Y-74380952D01*
X57750000Y-74309523D01*
X58178571Y-73809523D02*
X58202380Y-73833333D01*
X58226190Y-73904761D01*
X58226190Y-73952380D01*
X58202380Y-74023809D01*
X58154761Y-74071428D01*
X58107142Y-74095238D01*
X58011904Y-74119047D01*
X57940476Y-74119047D01*
X57845238Y-74095238D01*
X57797619Y-74071428D01*
X57750000Y-74023809D01*
X57726190Y-73952380D01*
X57726190Y-73904761D01*
X57750000Y-73833333D01*
X57773809Y-73809523D01*
X58226190Y-73357142D02*
X58226190Y-73595238D01*
X57726190Y-73595238D01*
X58226190Y-73190476D02*
X57726190Y-73190476D01*
X58226190Y-72904761D02*
X57940476Y-73119047D01*
X57726190Y-72904761D02*
X58011904Y-73190476D01*
X72876190Y-76533333D02*
X72638095Y-76700000D01*
X72876190Y-76819047D02*
X72376190Y-76819047D01*
X72376190Y-76628571D01*
X72400000Y-76580952D01*
X72423809Y-76557142D01*
X72471428Y-76533333D01*
X72542857Y-76533333D01*
X72590476Y-76557142D01*
X72614285Y-76580952D01*
X72638095Y-76628571D01*
X72638095Y-76819047D01*
X72376190Y-76366666D02*
X72876190Y-76033333D01*
X72376190Y-76033333D02*
X72876190Y-76366666D01*
D12*
X62135714Y-74607142D02*
X61835714Y-74607142D01*
X62050000Y-74507142D01*
X61835714Y-74407142D01*
X62135714Y-74407142D01*
X62107142Y-74092857D02*
X62121428Y-74107142D01*
X62135714Y-74150000D01*
X62135714Y-74178571D01*
X62121428Y-74221428D01*
X62092857Y-74250000D01*
X62064285Y-74264285D01*
X62007142Y-74278571D01*
X61964285Y-74278571D01*
X61907142Y-74264285D01*
X61878571Y-74250000D01*
X61850000Y-74221428D01*
X61835714Y-74178571D01*
X61835714Y-74150000D01*
X61850000Y-74107142D01*
X61864285Y-74092857D01*
X62135714Y-73964285D02*
X61835714Y-73964285D01*
X61835714Y-73850000D01*
X61850000Y-73821428D01*
X61864285Y-73807142D01*
X61892857Y-73792857D01*
X61935714Y-73792857D01*
X61964285Y-73807142D01*
X61978571Y-73821428D01*
X61992857Y-73850000D01*
X61992857Y-73964285D01*
X62135714Y-73435714D02*
X61835714Y-73435714D01*
X62135714Y-73292857D02*
X61835714Y-73292857D01*
X62135714Y-73121428D01*
X61835714Y-73121428D01*
X61835714Y-73021428D02*
X61835714Y-72850000D01*
X62135714Y-72935714D02*
X61835714Y-72935714D01*
X61078571Y-76957142D02*
X61092857Y-76914285D01*
X61107142Y-76900000D01*
X61135714Y-76885714D01*
X61178571Y-76885714D01*
X61207142Y-76900000D01*
X61221428Y-76914285D01*
X61235714Y-76942857D01*
X61235714Y-77057142D01*
X60935714Y-77057142D01*
X60935714Y-76957142D01*
X60950000Y-76928571D01*
X60964285Y-76914285D01*
X60992857Y-76900000D01*
X61021428Y-76900000D01*
X61050000Y-76914285D01*
X61064285Y-76928571D01*
X61078571Y-76957142D01*
X61078571Y-77057142D01*
X60935714Y-76800000D02*
X60935714Y-76628571D01*
X61235714Y-76714285D02*
X60935714Y-76714285D01*
X61235714Y-76528571D02*
X60935714Y-76528571D01*
X61235714Y-76357142D01*
X60935714Y-76357142D01*
X61235714Y-75828571D02*
X61235714Y-76000000D01*
X61235714Y-75914285D02*
X60935714Y-75914285D01*
X60978571Y-75942857D01*
X61007142Y-75971428D01*
X61021428Y-76000000D01*
D14*
X40285714Y-76928571D02*
X40428571Y-76976190D01*
X40476190Y-77023809D01*
X40523809Y-77119047D01*
X40523809Y-77261904D01*
X40476190Y-77357142D01*
X40428571Y-77404761D01*
X40333333Y-77452380D01*
X39952380Y-77452380D01*
X39952380Y-76452380D01*
X40285714Y-76452380D01*
X40380952Y-76500000D01*
X40428571Y-76547619D01*
X40476190Y-76642857D01*
X40476190Y-76738095D01*
X40428571Y-76833333D01*
X40380952Y-76880952D01*
X40285714Y-76928571D01*
X39952380Y-76928571D01*
X41380952Y-76785714D02*
X41380952Y-77452380D01*
X40952380Y-76785714D02*
X40952380Y-77309523D01*
X41000000Y-77404761D01*
X41095238Y-77452380D01*
X41238095Y-77452380D01*
X41333333Y-77404761D01*
X41380952Y-77357142D01*
X41714285Y-76785714D02*
X42095238Y-76785714D01*
X41857142Y-76452380D02*
X41857142Y-77309523D01*
X41904761Y-77404761D01*
X42000000Y-77452380D01*
X42095238Y-77452380D01*
X42285714Y-76785714D02*
X42666666Y-76785714D01*
X42428571Y-76452380D02*
X42428571Y-77309523D01*
X42476190Y-77404761D01*
X42571428Y-77452380D01*
X42666666Y-77452380D01*
X43142857Y-77452380D02*
X43047619Y-77404761D01*
X43000000Y-77357142D01*
X42952380Y-77261904D01*
X42952380Y-76976190D01*
X43000000Y-76880952D01*
X43047619Y-76833333D01*
X43142857Y-76785714D01*
X43285714Y-76785714D01*
X43380952Y-76833333D01*
X43428571Y-76880952D01*
X43476190Y-76976190D01*
X43476190Y-77261904D01*
X43428571Y-77357142D01*
X43380952Y-77404761D01*
X43285714Y-77452380D01*
X43142857Y-77452380D01*
X43904761Y-76785714D02*
X43904761Y-77452380D01*
X43904761Y-76880952D02*
X43952380Y-76833333D01*
X44047619Y-76785714D01*
X44190476Y-76785714D01*
X44285714Y-76833333D01*
X44333333Y-76928571D01*
X44333333Y-77452380D01*
X46095238Y-77452380D02*
X45523809Y-77452380D01*
X45809523Y-77452380D02*
X45809523Y-76452380D01*
X45714285Y-76595238D01*
X45619047Y-76690476D01*
X45523809Y-76738095D01*
D12*
X61978571Y-76957142D02*
X61992857Y-76914285D01*
X62007142Y-76900000D01*
X62035714Y-76885714D01*
X62078571Y-76885714D01*
X62107142Y-76900000D01*
X62121428Y-76914285D01*
X62135714Y-76942857D01*
X62135714Y-77057142D01*
X61835714Y-77057142D01*
X61835714Y-76957142D01*
X61850000Y-76928571D01*
X61864285Y-76914285D01*
X61892857Y-76900000D01*
X61921428Y-76900000D01*
X61950000Y-76914285D01*
X61964285Y-76928571D01*
X61978571Y-76957142D01*
X61978571Y-77057142D01*
X61835714Y-76800000D02*
X61835714Y-76628571D01*
X62135714Y-76714285D02*
X61835714Y-76714285D01*
X62135714Y-76528571D02*
X61835714Y-76528571D01*
X62135714Y-76357142D01*
X61835714Y-76357142D01*
X61864285Y-76000000D02*
X61850000Y-75985714D01*
X61835714Y-75957142D01*
X61835714Y-75885714D01*
X61850000Y-75857142D01*
X61864285Y-75842857D01*
X61892857Y-75828571D01*
X61921428Y-75828571D01*
X61964285Y-75842857D01*
X62135714Y-76014285D01*
X62135714Y-75828571D01*
D13*
X59226190Y-74535714D02*
X58726190Y-74535714D01*
X59083333Y-74369047D01*
X58726190Y-74202380D01*
X59226190Y-74202380D01*
X58726190Y-73869047D02*
X58726190Y-73773809D01*
X58750000Y-73726190D01*
X58797619Y-73678571D01*
X58892857Y-73654761D01*
X59059523Y-73654761D01*
X59154761Y-73678571D01*
X59202380Y-73726190D01*
X59226190Y-73773809D01*
X59226190Y-73869047D01*
X59202380Y-73916666D01*
X59154761Y-73964285D01*
X59059523Y-73988095D01*
X58892857Y-73988095D01*
X58797619Y-73964285D01*
X58750000Y-73916666D01*
X58726190Y-73869047D01*
X59202380Y-73464285D02*
X59226190Y-73392857D01*
X59226190Y-73273809D01*
X59202380Y-73226190D01*
X59178571Y-73202380D01*
X59130952Y-73178571D01*
X59083333Y-73178571D01*
X59035714Y-73202380D01*
X59011904Y-73226190D01*
X58988095Y-73273809D01*
X58964285Y-73369047D01*
X58940476Y-73416666D01*
X58916666Y-73440476D01*
X58869047Y-73464285D01*
X58821428Y-73464285D01*
X58773809Y-73440476D01*
X58750000Y-73416666D01*
X58726190Y-73369047D01*
X58726190Y-73250000D01*
X58750000Y-73178571D01*
X59226190Y-72964285D02*
X58726190Y-72964285D01*
D14*
X40285714Y-82428571D02*
X40428571Y-82476190D01*
X40476190Y-82523809D01*
X40523809Y-82619047D01*
X40523809Y-82761904D01*
X40476190Y-82857142D01*
X40428571Y-82904761D01*
X40333333Y-82952380D01*
X39952380Y-82952380D01*
X39952380Y-81952380D01*
X40285714Y-81952380D01*
X40380952Y-82000000D01*
X40428571Y-82047619D01*
X40476190Y-82142857D01*
X40476190Y-82238095D01*
X40428571Y-82333333D01*
X40380952Y-82380952D01*
X40285714Y-82428571D01*
X39952380Y-82428571D01*
X41380952Y-82285714D02*
X41380952Y-82952380D01*
X40952380Y-82285714D02*
X40952380Y-82809523D01*
X41000000Y-82904761D01*
X41095238Y-82952380D01*
X41238095Y-82952380D01*
X41333333Y-82904761D01*
X41380952Y-82857142D01*
X41714285Y-82285714D02*
X42095238Y-82285714D01*
X41857142Y-81952380D02*
X41857142Y-82809523D01*
X41904761Y-82904761D01*
X42000000Y-82952380D01*
X42095238Y-82952380D01*
X42285714Y-82285714D02*
X42666666Y-82285714D01*
X42428571Y-81952380D02*
X42428571Y-82809523D01*
X42476190Y-82904761D01*
X42571428Y-82952380D01*
X42666666Y-82952380D01*
X43142857Y-82952380D02*
X43047619Y-82904761D01*
X43000000Y-82857142D01*
X42952380Y-82761904D01*
X42952380Y-82476190D01*
X43000000Y-82380952D01*
X43047619Y-82333333D01*
X43142857Y-82285714D01*
X43285714Y-82285714D01*
X43380952Y-82333333D01*
X43428571Y-82380952D01*
X43476190Y-82476190D01*
X43476190Y-82761904D01*
X43428571Y-82857142D01*
X43380952Y-82904761D01*
X43285714Y-82952380D01*
X43142857Y-82952380D01*
X43904761Y-82285714D02*
X43904761Y-82952380D01*
X43904761Y-82380952D02*
X43952380Y-82333333D01*
X44047619Y-82285714D01*
X44190476Y-82285714D01*
X44285714Y-82333333D01*
X44333333Y-82428571D01*
X44333333Y-82952380D01*
X45523809Y-82047619D02*
X45571428Y-82000000D01*
X45666666Y-81952380D01*
X45904761Y-81952380D01*
X46000000Y-82000000D01*
X46047619Y-82047619D01*
X46095238Y-82142857D01*
X46095238Y-82238095D01*
X46047619Y-82380952D01*
X45476190Y-82952380D01*
X46095238Y-82952380D01*
D13*
X59626190Y-76735714D02*
X59626190Y-77021428D01*
X59626190Y-76878571D02*
X59126190Y-76878571D01*
X59197619Y-76926190D01*
X59245238Y-76973809D01*
X59269047Y-77021428D01*
X59173809Y-76545238D02*
X59150000Y-76521428D01*
X59126190Y-76473809D01*
X59126190Y-76354761D01*
X59150000Y-76307142D01*
X59173809Y-76283333D01*
X59221428Y-76259523D01*
X59269047Y-76259523D01*
X59340476Y-76283333D01*
X59626190Y-76569047D01*
X59626190Y-76259523D01*
X59292857Y-76092857D02*
X59626190Y-75973809D01*
X59292857Y-75854761D01*
D12*
X58135714Y-77321428D02*
X57992857Y-77421428D01*
X58135714Y-77492857D02*
X57835714Y-77492857D01*
X57835714Y-77378571D01*
X57850000Y-77350000D01*
X57864285Y-77335714D01*
X57892857Y-77321428D01*
X57935714Y-77321428D01*
X57964285Y-77335714D01*
X57978571Y-77350000D01*
X57992857Y-77378571D01*
X57992857Y-77492857D01*
X58050000Y-77207142D02*
X58050000Y-77064285D01*
X58135714Y-77235714D02*
X57835714Y-77135714D01*
X58135714Y-77035714D01*
X58135714Y-76935714D02*
X57835714Y-76935714D01*
X57835714Y-76864285D01*
X57850000Y-76821428D01*
X57878571Y-76792857D01*
X57907142Y-76778571D01*
X57964285Y-76764285D01*
X58007142Y-76764285D01*
X58064285Y-76778571D01*
X58092857Y-76792857D01*
X58121428Y-76821428D01*
X58135714Y-76864285D01*
X58135714Y-76935714D01*
X58135714Y-76635714D02*
X57835714Y-76635714D01*
X57835714Y-76435714D02*
X57835714Y-76378571D01*
X57850000Y-76350000D01*
X57878571Y-76321428D01*
X57935714Y-76307142D01*
X58035714Y-76307142D01*
X58092857Y-76321428D01*
X58121428Y-76350000D01*
X58135714Y-76378571D01*
X58135714Y-76435714D01*
X58121428Y-76464285D01*
X58092857Y-76492857D01*
X58035714Y-76507142D01*
X57935714Y-76507142D01*
X57878571Y-76492857D01*
X57850000Y-76464285D01*
X57835714Y-76435714D01*
X58135714Y-75950000D02*
X57835714Y-75950000D01*
X58135714Y-75807142D02*
X57835714Y-75807142D01*
X58135714Y-75635714D01*
X57835714Y-75635714D01*
X57835714Y-75535714D02*
X57835714Y-75364285D01*
X58135714Y-75450000D02*
X57835714Y-75450000D01*
D13*
X67169046Y-77800000D02*
X67121427Y-77776190D01*
X67049999Y-77776190D01*
X66978570Y-77800000D01*
X66930951Y-77847619D01*
X66907141Y-77895238D01*
X66883332Y-77990476D01*
X66883332Y-78061904D01*
X66907141Y-78157142D01*
X66930951Y-78204761D01*
X66978570Y-78252380D01*
X67049999Y-78276190D01*
X67097618Y-78276190D01*
X67169046Y-78252380D01*
X67192856Y-78228571D01*
X67192856Y-78061904D01*
X67097618Y-78061904D01*
X67407141Y-78276190D02*
X67407141Y-77776190D01*
X67692856Y-78276190D01*
X67692856Y-77776190D01*
X67930951Y-78276190D02*
X67930951Y-77776190D01*
X68049999Y-77776190D01*
X68121427Y-77800000D01*
X68169046Y-77847619D01*
X68192856Y-77895238D01*
X68216665Y-77990476D01*
X68216665Y-78061904D01*
X68192856Y-78157142D01*
X68169046Y-78204761D01*
X68121427Y-78252380D01*
X68049999Y-78276190D01*
X67930951Y-78276190D01*
D12*
X57135714Y-74671428D02*
X56992857Y-74771428D01*
X57135714Y-74842857D02*
X56835714Y-74842857D01*
X56835714Y-74728571D01*
X56850000Y-74700000D01*
X56864285Y-74685714D01*
X56892857Y-74671428D01*
X56935714Y-74671428D01*
X56964285Y-74685714D01*
X56978571Y-74700000D01*
X56992857Y-74728571D01*
X56992857Y-74842857D01*
X57050000Y-74557142D02*
X57050000Y-74414285D01*
X57135714Y-74585714D02*
X56835714Y-74485714D01*
X57135714Y-74385714D01*
X57135714Y-74285714D02*
X56835714Y-74285714D01*
X56835714Y-74214285D01*
X56850000Y-74171428D01*
X56878571Y-74142857D01*
X56907142Y-74128571D01*
X56964285Y-74114285D01*
X57007142Y-74114285D01*
X57064285Y-74128571D01*
X57092857Y-74142857D01*
X57121428Y-74171428D01*
X57135714Y-74214285D01*
X57135714Y-74285714D01*
X57135714Y-73985714D02*
X56835714Y-73985714D01*
X56835714Y-73785714D02*
X56835714Y-73728571D01*
X56850000Y-73700000D01*
X56878571Y-73671428D01*
X56935714Y-73657142D01*
X57035714Y-73657142D01*
X57092857Y-73671428D01*
X57121428Y-73700000D01*
X57135714Y-73728571D01*
X57135714Y-73785714D01*
X57121428Y-73814285D01*
X57092857Y-73842857D01*
X57035714Y-73857142D01*
X56935714Y-73857142D01*
X56878571Y-73842857D01*
X56850000Y-73814285D01*
X56835714Y-73785714D01*
X57107142Y-73128571D02*
X57121428Y-73142857D01*
X57135714Y-73185714D01*
X57135714Y-73214285D01*
X57121428Y-73257142D01*
X57092857Y-73285714D01*
X57064285Y-73300000D01*
X57007142Y-73314285D01*
X56964285Y-73314285D01*
X56907142Y-73300000D01*
X56878571Y-73285714D01*
X56850000Y-73257142D01*
X56835714Y-73214285D01*
X56835714Y-73185714D01*
X56850000Y-73142857D01*
X56864285Y-73128571D01*
X57121428Y-73014285D02*
X57135714Y-72971428D01*
X57135714Y-72900000D01*
X57121428Y-72871428D01*
X57107142Y-72857142D01*
X57078571Y-72842857D01*
X57050000Y-72842857D01*
X57021428Y-72857142D01*
X57007142Y-72871428D01*
X56992857Y-72900000D01*
X56978571Y-72957142D01*
X56964285Y-72985714D01*
X56950000Y-73000000D01*
X56921428Y-73014285D01*
X56892857Y-73014285D01*
X56864285Y-73000000D01*
X56850000Y-72985714D01*
X56835714Y-72957142D01*
X56835714Y-72885714D01*
X56850000Y-72842857D01*
D13*
X83400000Y-79176190D02*
X83161904Y-79176190D01*
X83161904Y-78676190D01*
X83566666Y-78914285D02*
X83733333Y-78914285D01*
X83804761Y-79176190D02*
X83566666Y-79176190D01*
X83566666Y-78676190D01*
X83804761Y-78676190D01*
X84019047Y-79176190D02*
X84019047Y-78676190D01*
X84138095Y-78676190D01*
X84209523Y-78700000D01*
X84257142Y-78747619D01*
X84280952Y-78795238D01*
X84304761Y-78890476D01*
X84304761Y-78961904D01*
X84280952Y-79057142D01*
X84257142Y-79104761D01*
X84209523Y-79152380D01*
X84138095Y-79176190D01*
X84019047Y-79176190D01*
X85161904Y-79176190D02*
X84876190Y-79176190D01*
X85019047Y-79176190D02*
X85019047Y-78676190D01*
X84971428Y-78747619D01*
X84923809Y-78795238D01*
X84876190Y-78819047D01*
X73376190Y-76830952D02*
X73376190Y-76545238D01*
X73876190Y-76688095D02*
X73376190Y-76688095D01*
X73376190Y-76426190D02*
X73876190Y-76092857D01*
X73376190Y-76092857D02*
X73876190Y-76426190D01*
X71852380Y-74357142D02*
X71876190Y-74285714D01*
X71876190Y-74166666D01*
X71852380Y-74119047D01*
X71828571Y-74095238D01*
X71780952Y-74071428D01*
X71733333Y-74071428D01*
X71685714Y-74095238D01*
X71661904Y-74119047D01*
X71638095Y-74166666D01*
X71614285Y-74261904D01*
X71590476Y-74309523D01*
X71566666Y-74333333D01*
X71519047Y-74357142D01*
X71471428Y-74357142D01*
X71423809Y-74333333D01*
X71400000Y-74309523D01*
X71376190Y-74261904D01*
X71376190Y-74142857D01*
X71400000Y-74071428D01*
X71876190Y-73857142D02*
X71376190Y-73857142D01*
X71376190Y-73738095D01*
X71400000Y-73666666D01*
X71447619Y-73619047D01*
X71495238Y-73595238D01*
X71590476Y-73571428D01*
X71661904Y-73571428D01*
X71757142Y-73595238D01*
X71804761Y-73619047D01*
X71852380Y-73666666D01*
X71876190Y-73738095D01*
X71876190Y-73857142D01*
X71733333Y-73380952D02*
X71733333Y-73142857D01*
X71876190Y-73428571D02*
X71376190Y-73261904D01*
X71876190Y-73095238D01*
D12*
X56978571Y-77257142D02*
X56978571Y-77157142D01*
X57135714Y-77114285D02*
X57135714Y-77257142D01*
X56835714Y-77257142D01*
X56835714Y-77114285D01*
X56835714Y-77014285D02*
X57135714Y-76814285D01*
X56835714Y-76814285D02*
X57135714Y-77014285D01*
X56835714Y-76742857D02*
X56835714Y-76571428D01*
X57135714Y-76657142D02*
X56835714Y-76657142D01*
X57135714Y-76242857D02*
X56835714Y-76242857D01*
X56835714Y-76042857D02*
X56835714Y-75985714D01*
X56850000Y-75957142D01*
X56878571Y-75928571D01*
X56935714Y-75914285D01*
X57035714Y-75914285D01*
X57092857Y-75928571D01*
X57121428Y-75957142D01*
X57135714Y-75985714D01*
X57135714Y-76042857D01*
X57121428Y-76071428D01*
X57092857Y-76100000D01*
X57035714Y-76114285D01*
X56935714Y-76114285D01*
X56878571Y-76100000D01*
X56850000Y-76071428D01*
X56835714Y-76042857D01*
X56935714Y-75657142D02*
X57135714Y-75657142D01*
X56821428Y-75728571D02*
X57035714Y-75800000D01*
X57035714Y-75614285D01*
X70792857Y-77250000D02*
X70811904Y-77269047D01*
X70830952Y-77326190D01*
X70830952Y-77364285D01*
X70811904Y-77421428D01*
X70773809Y-77459523D01*
X70735714Y-77478571D01*
X70659523Y-77497619D01*
X70602380Y-77497619D01*
X70526190Y-77478571D01*
X70488095Y-77459523D01*
X70450000Y-77421428D01*
X70430952Y-77364285D01*
X70430952Y-77326190D01*
X70450000Y-77269047D01*
X70469047Y-77250000D01*
X70716666Y-77097619D02*
X70716666Y-76907142D01*
X70830952Y-77135714D02*
X70430952Y-77002380D01*
X70830952Y-76869047D01*
X70830952Y-76735714D02*
X70430952Y-76735714D01*
X70830952Y-76507142D01*
X70430952Y-76507142D01*
X70830952Y-75783333D02*
X70640476Y-75916666D01*
X70830952Y-76011904D02*
X70430952Y-76011904D01*
X70430952Y-75859523D01*
X70450000Y-75821428D01*
X70469047Y-75802380D01*
X70507142Y-75783333D01*
X70564285Y-75783333D01*
X70602380Y-75802380D01*
X70621428Y-75821428D01*
X70640476Y-75859523D01*
X70640476Y-76011904D01*
X70430952Y-75650000D02*
X70830952Y-75383333D01*
X70430952Y-75383333D02*
X70830952Y-75650000D01*
D13*
X83350000Y-75876190D02*
X83111904Y-75876190D01*
X83111904Y-75376190D01*
X83516666Y-75614285D02*
X83683333Y-75614285D01*
X83754761Y-75876190D02*
X83516666Y-75876190D01*
X83516666Y-75376190D01*
X83754761Y-75376190D01*
X83969047Y-75876190D02*
X83969047Y-75376190D01*
X84088095Y-75376190D01*
X84159523Y-75400000D01*
X84207142Y-75447619D01*
X84230952Y-75495238D01*
X84254761Y-75590476D01*
X84254761Y-75661904D01*
X84230952Y-75757142D01*
X84207142Y-75804761D01*
X84159523Y-75852380D01*
X84088095Y-75876190D01*
X83969047Y-75876190D01*
X84802380Y-75376190D02*
X85111904Y-75376190D01*
X84945238Y-75566666D01*
X85016666Y-75566666D01*
X85064285Y-75590476D01*
X85088095Y-75614285D01*
X85111904Y-75661904D01*
X85111904Y-75780952D01*
X85088095Y-75828571D01*
X85064285Y-75852380D01*
X85016666Y-75876190D01*
X84873809Y-75876190D01*
X84826190Y-75852380D01*
X84802380Y-75828571D01*
X72876190Y-74500000D02*
X72876190Y-74738095D01*
X72376190Y-74738095D01*
X72614285Y-74333333D02*
X72614285Y-74166666D01*
X72876190Y-74095238D02*
X72876190Y-74333333D01*
X72376190Y-74333333D01*
X72376190Y-74095238D01*
X72876190Y-73880952D02*
X72376190Y-73880952D01*
X72376190Y-73761904D01*
X72400000Y-73690476D01*
X72447619Y-73642857D01*
X72495238Y-73619047D01*
X72590476Y-73595238D01*
X72661904Y-73595238D01*
X72757142Y-73619047D01*
X72804761Y-73642857D01*
X72852380Y-73690476D01*
X72876190Y-73761904D01*
X72876190Y-73880952D01*
X72376190Y-73047619D02*
X72376190Y-72738095D01*
X72566666Y-72904761D01*
X72566666Y-72833333D01*
X72590476Y-72785714D01*
X72614285Y-72761904D01*
X72661904Y-72738095D01*
X72780952Y-72738095D01*
X72828571Y-72761904D01*
X72852380Y-72785714D01*
X72876190Y-72833333D01*
X72876190Y-72976190D01*
X72852380Y-73023809D01*
X72828571Y-73047619D01*
X74876190Y-76621428D02*
X74876190Y-76859523D01*
X75114285Y-76883333D01*
X75090476Y-76859523D01*
X75066666Y-76811904D01*
X75066666Y-76692857D01*
X75090476Y-76645238D01*
X75114285Y-76621428D01*
X75161904Y-76597619D01*
X75280952Y-76597619D01*
X75328571Y-76621428D01*
X75352380Y-76645238D01*
X75376190Y-76692857D01*
X75376190Y-76811904D01*
X75352380Y-76859523D01*
X75328571Y-76883333D01*
X75042857Y-76430952D02*
X75376190Y-76311904D01*
X75042857Y-76192857D01*
X73876190Y-74500000D02*
X73876190Y-74738095D01*
X73376190Y-74738095D01*
X73614285Y-74333333D02*
X73614285Y-74166666D01*
X73876190Y-74095238D02*
X73876190Y-74333333D01*
X73376190Y-74333333D01*
X73376190Y-74095238D01*
X73876190Y-73880952D02*
X73376190Y-73880952D01*
X73376190Y-73761904D01*
X73400000Y-73690476D01*
X73447619Y-73642857D01*
X73495238Y-73619047D01*
X73590476Y-73595238D01*
X73661904Y-73595238D01*
X73757142Y-73619047D01*
X73804761Y-73642857D01*
X73852380Y-73690476D01*
X73876190Y-73761904D01*
X73876190Y-73880952D01*
X73423809Y-73023809D02*
X73400000Y-73000000D01*
X73376190Y-72952380D01*
X73376190Y-72833333D01*
X73400000Y-72785714D01*
X73423809Y-72761904D01*
X73471428Y-72738095D01*
X73519047Y-72738095D01*
X73590476Y-72761904D01*
X73876190Y-73047619D01*
X73876190Y-72738095D01*
X83400000Y-77476190D02*
X83161904Y-77476190D01*
X83161904Y-76976190D01*
X83566666Y-77214285D02*
X83733333Y-77214285D01*
X83804761Y-77476190D02*
X83566666Y-77476190D01*
X83566666Y-76976190D01*
X83804761Y-76976190D01*
X84019047Y-77476190D02*
X84019047Y-76976190D01*
X84138095Y-76976190D01*
X84209523Y-77000000D01*
X84257142Y-77047619D01*
X84280952Y-77095238D01*
X84304761Y-77190476D01*
X84304761Y-77261904D01*
X84280952Y-77357142D01*
X84257142Y-77404761D01*
X84209523Y-77452380D01*
X84138095Y-77476190D01*
X84019047Y-77476190D01*
X84876190Y-77023809D02*
X84900000Y-77000000D01*
X84947619Y-76976190D01*
X85066666Y-76976190D01*
X85114285Y-77000000D01*
X85138095Y-77023809D01*
X85161904Y-77071428D01*
X85161904Y-77119047D01*
X85138095Y-77190476D01*
X84852380Y-77476190D01*
X85161904Y-77476190D01*
X70852380Y-74345238D02*
X70876190Y-74273809D01*
X70876190Y-74154761D01*
X70852380Y-74107142D01*
X70828571Y-74083333D01*
X70780952Y-74059523D01*
X70733333Y-74059523D01*
X70685714Y-74083333D01*
X70661904Y-74107142D01*
X70638095Y-74154761D01*
X70614285Y-74250000D01*
X70590476Y-74297619D01*
X70566666Y-74321428D01*
X70519047Y-74345238D01*
X70471428Y-74345238D01*
X70423809Y-74321428D01*
X70400000Y-74297619D01*
X70376190Y-74250000D01*
X70376190Y-74130952D01*
X70400000Y-74059523D01*
X70828571Y-73559523D02*
X70852380Y-73583333D01*
X70876190Y-73654761D01*
X70876190Y-73702380D01*
X70852380Y-73773809D01*
X70804761Y-73821428D01*
X70757142Y-73845238D01*
X70661904Y-73869047D01*
X70590476Y-73869047D01*
X70495238Y-73845238D01*
X70447619Y-73821428D01*
X70400000Y-73773809D01*
X70376190Y-73702380D01*
X70376190Y-73654761D01*
X70400000Y-73583333D01*
X70423809Y-73559523D01*
X70876190Y-73107142D02*
X70876190Y-73345238D01*
X70376190Y-73345238D01*
X84452381Y-91726190D02*
X84452381Y-91226190D01*
X84666667Y-91726190D02*
X84666667Y-91464285D01*
X84642858Y-91416666D01*
X84595239Y-91392857D01*
X84523810Y-91392857D01*
X84476191Y-91416666D01*
X84452381Y-91440476D01*
X84833334Y-91392857D02*
X85023810Y-91392857D01*
X84904762Y-91226190D02*
X84904762Y-91654761D01*
X84928572Y-91702380D01*
X84976191Y-91726190D01*
X85023810Y-91726190D01*
X85119048Y-91392857D02*
X85309524Y-91392857D01*
X85190477Y-91226190D02*
X85190477Y-91654761D01*
X85214286Y-91702380D01*
X85261905Y-91726190D01*
X85309524Y-91726190D01*
X85476191Y-91392857D02*
X85476191Y-91892857D01*
X85476191Y-91416666D02*
X85523810Y-91392857D01*
X85619048Y-91392857D01*
X85666667Y-91416666D01*
X85690477Y-91440476D01*
X85714286Y-91488095D01*
X85714286Y-91630952D01*
X85690477Y-91678571D01*
X85666667Y-91702380D01*
X85619048Y-91726190D01*
X85523810Y-91726190D01*
X85476191Y-91702380D01*
X85904762Y-91702380D02*
X85952381Y-91726190D01*
X86047620Y-91726190D01*
X86095239Y-91702380D01*
X86119048Y-91654761D01*
X86119048Y-91630952D01*
X86095239Y-91583333D01*
X86047620Y-91559523D01*
X85976191Y-91559523D01*
X85928572Y-91535714D01*
X85904762Y-91488095D01*
X85904762Y-91464285D01*
X85928572Y-91416666D01*
X85976191Y-91392857D01*
X86047620Y-91392857D01*
X86095239Y-91416666D01*
X86333334Y-91678571D02*
X86357143Y-91702380D01*
X86333334Y-91726190D01*
X86309524Y-91702380D01*
X86333334Y-91678571D01*
X86333334Y-91726190D01*
X86333334Y-91416666D02*
X86357143Y-91440476D01*
X86333334Y-91464285D01*
X86309524Y-91440476D01*
X86333334Y-91416666D01*
X86333334Y-91464285D01*
X86928572Y-91202380D02*
X86500001Y-91845238D01*
X87452381Y-91202380D02*
X87023810Y-91845238D01*
X87833334Y-91702380D02*
X87785715Y-91726190D01*
X87690477Y-91726190D01*
X87642858Y-91702380D01*
X87619048Y-91678571D01*
X87595239Y-91630952D01*
X87595239Y-91488095D01*
X87619048Y-91440476D01*
X87642858Y-91416666D01*
X87690477Y-91392857D01*
X87785715Y-91392857D01*
X87833334Y-91416666D01*
X88119048Y-91726190D02*
X88071429Y-91702380D01*
X88047620Y-91678571D01*
X88023810Y-91630952D01*
X88023810Y-91488095D01*
X88047620Y-91440476D01*
X88071429Y-91416666D01*
X88119048Y-91392857D01*
X88190477Y-91392857D01*
X88238096Y-91416666D01*
X88261905Y-91440476D01*
X88285715Y-91488095D01*
X88285715Y-91630952D01*
X88261905Y-91678571D01*
X88238096Y-91702380D01*
X88190477Y-91726190D01*
X88119048Y-91726190D01*
X88500001Y-91392857D02*
X88500001Y-91726190D01*
X88500001Y-91440476D02*
X88523810Y-91416666D01*
X88571429Y-91392857D01*
X88642858Y-91392857D01*
X88690477Y-91416666D01*
X88714286Y-91464285D01*
X88714286Y-91726190D01*
X89142858Y-91702380D02*
X89095239Y-91726190D01*
X89000001Y-91726190D01*
X88952381Y-91702380D01*
X88928572Y-91654761D01*
X88928572Y-91464285D01*
X88952381Y-91416666D01*
X89000001Y-91392857D01*
X89095239Y-91392857D01*
X89142858Y-91416666D01*
X89166667Y-91464285D01*
X89166667Y-91511904D01*
X88928572Y-91559523D01*
X89380953Y-91678571D02*
X89404762Y-91702380D01*
X89380953Y-91726190D01*
X89357143Y-91702380D01*
X89380953Y-91678571D01*
X89380953Y-91726190D01*
X89833334Y-91702380D02*
X89785715Y-91726190D01*
X89690477Y-91726190D01*
X89642858Y-91702380D01*
X89619048Y-91678571D01*
X89595239Y-91630952D01*
X89595239Y-91488095D01*
X89619048Y-91440476D01*
X89642858Y-91416666D01*
X89690477Y-91392857D01*
X89785715Y-91392857D01*
X89833334Y-91416666D01*
X90119048Y-91726190D02*
X90071429Y-91702380D01*
X90047620Y-91678571D01*
X90023810Y-91630952D01*
X90023810Y-91488095D01*
X90047620Y-91440476D01*
X90071429Y-91416666D01*
X90119048Y-91392857D01*
X90190477Y-91392857D01*
X90238096Y-91416666D01*
X90261905Y-91440476D01*
X90285715Y-91488095D01*
X90285715Y-91630952D01*
X90261905Y-91678571D01*
X90238096Y-91702380D01*
X90190477Y-91726190D01*
X90119048Y-91726190D01*
X90714286Y-91726190D02*
X90714286Y-91226190D01*
X90714286Y-91702380D02*
X90666667Y-91726190D01*
X90571429Y-91726190D01*
X90523810Y-91702380D01*
X90500001Y-91678571D01*
X90476191Y-91630952D01*
X90476191Y-91488095D01*
X90500001Y-91440476D01*
X90523810Y-91416666D01*
X90571429Y-91392857D01*
X90666667Y-91392857D01*
X90714286Y-91416666D01*
X91142858Y-91702380D02*
X91095239Y-91726190D01*
X91000001Y-91726190D01*
X90952381Y-91702380D01*
X90928572Y-91654761D01*
X90928572Y-91464285D01*
X90952381Y-91416666D01*
X91000001Y-91392857D01*
X91095239Y-91392857D01*
X91142858Y-91416666D01*
X91166667Y-91464285D01*
X91166667Y-91511904D01*
X90928572Y-91559523D01*
X91357143Y-91702380D02*
X91404762Y-91726190D01*
X91500001Y-91726190D01*
X91547620Y-91702380D01*
X91571429Y-91654761D01*
X91571429Y-91630952D01*
X91547620Y-91583333D01*
X91500001Y-91559523D01*
X91428572Y-91559523D01*
X91380953Y-91535714D01*
X91357143Y-91488095D01*
X91357143Y-91464285D01*
X91380953Y-91416666D01*
X91428572Y-91392857D01*
X91500001Y-91392857D01*
X91547620Y-91416666D01*
D12*
X55978571Y-77257142D02*
X55978571Y-77157142D01*
X56135714Y-77114285D02*
X56135714Y-77257142D01*
X55835714Y-77257142D01*
X55835714Y-77114285D01*
X55835714Y-77014285D02*
X56135714Y-76814285D01*
X55835714Y-76814285D02*
X56135714Y-77014285D01*
X55835714Y-76742857D02*
X55835714Y-76571428D01*
X56135714Y-76657142D02*
X55835714Y-76657142D01*
X56135714Y-76242857D02*
X55835714Y-76242857D01*
X55835714Y-76042857D02*
X55835714Y-75985714D01*
X55850000Y-75957142D01*
X55878571Y-75928571D01*
X55935714Y-75914285D01*
X56035714Y-75914285D01*
X56092857Y-75928571D01*
X56121428Y-75957142D01*
X56135714Y-75985714D01*
X56135714Y-76042857D01*
X56121428Y-76071428D01*
X56092857Y-76100000D01*
X56035714Y-76114285D01*
X55935714Y-76114285D01*
X55878571Y-76100000D01*
X55850000Y-76071428D01*
X55835714Y-76042857D01*
X55835714Y-75814285D02*
X55835714Y-75628571D01*
X55950000Y-75728571D01*
X55950000Y-75685714D01*
X55964285Y-75657142D01*
X55978571Y-75642857D01*
X56007142Y-75628571D01*
X56078571Y-75628571D01*
X56107142Y-75642857D01*
X56121428Y-75657142D01*
X56135714Y-75685714D01*
X56135714Y-75771428D01*
X56121428Y-75800000D01*
X56107142Y-75814285D01*
D13*
X75376190Y-74345238D02*
X75376190Y-74035714D01*
X75566666Y-74202380D01*
X75566666Y-74130952D01*
X75590476Y-74083333D01*
X75614285Y-74059523D01*
X75661904Y-74035714D01*
X75780952Y-74035714D01*
X75828571Y-74059523D01*
X75852380Y-74083333D01*
X75876190Y-74130952D01*
X75876190Y-74273809D01*
X75852380Y-74321428D01*
X75828571Y-74345238D01*
X75542857Y-73869047D02*
X75876190Y-73750000D01*
X75542857Y-73630952D01*
X75376190Y-73488095D02*
X75376190Y-73178571D01*
X75566666Y-73345238D01*
X75566666Y-73273809D01*
X75590476Y-73226190D01*
X75614285Y-73202380D01*
X75661904Y-73178571D01*
X75780952Y-73178571D01*
X75828571Y-73202380D01*
X75852380Y-73226190D01*
X75876190Y-73273809D01*
X75876190Y-73416666D01*
X75852380Y-73464285D01*
X75828571Y-73488095D01*
X74876190Y-74500000D02*
X74876190Y-74738095D01*
X74376190Y-74738095D01*
X74614285Y-74333333D02*
X74614285Y-74166666D01*
X74876190Y-74095238D02*
X74876190Y-74333333D01*
X74376190Y-74333333D01*
X74376190Y-74095238D01*
X74876190Y-73880952D02*
X74376190Y-73880952D01*
X74376190Y-73761904D01*
X74400000Y-73690476D01*
X74447619Y-73642857D01*
X74495238Y-73619047D01*
X74590476Y-73595238D01*
X74661904Y-73595238D01*
X74757142Y-73619047D01*
X74804761Y-73642857D01*
X74852380Y-73690476D01*
X74876190Y-73761904D01*
X74876190Y-73880952D01*
X74876190Y-72738095D02*
X74876190Y-73023809D01*
X74876190Y-72880952D02*
X74376190Y-72880952D01*
X74447619Y-72928571D01*
X74495238Y-72976190D01*
X74519047Y-73023809D01*
D14*
X50107142Y-56357142D02*
X50059523Y-56404761D01*
X49916666Y-56452380D01*
X49821428Y-56452380D01*
X49678571Y-56404761D01*
X49583333Y-56309523D01*
X49535714Y-56214285D01*
X49488095Y-56023809D01*
X49488095Y-55880952D01*
X49535714Y-55690476D01*
X49583333Y-55595238D01*
X49678571Y-55500000D01*
X49821428Y-55452380D01*
X49916666Y-55452380D01*
X50059523Y-55500000D01*
X50107142Y-55547619D01*
X50488095Y-56166666D02*
X50964285Y-56166666D01*
X50392857Y-56452380D02*
X50726190Y-55452380D01*
X51059523Y-56452380D01*
X51392857Y-56452380D02*
X51392857Y-55452380D01*
X51964285Y-56452380D01*
X51964285Y-55452380D01*
D13*
X98023809Y-87976190D02*
X97857142Y-87738095D01*
X97738095Y-87976190D02*
X97738095Y-87476190D01*
X97928571Y-87476190D01*
X97976190Y-87500000D01*
X98000000Y-87523809D01*
X98023809Y-87571428D01*
X98023809Y-87642857D01*
X98000000Y-87690476D01*
X97976190Y-87714285D01*
X97928571Y-87738095D01*
X97738095Y-87738095D01*
X98238095Y-87976190D02*
X98238095Y-87476190D01*
X98428571Y-87476190D01*
X98476190Y-87500000D01*
X98500000Y-87523809D01*
X98523809Y-87571428D01*
X98523809Y-87642857D01*
X98500000Y-87690476D01*
X98476190Y-87714285D01*
X98428571Y-87738095D01*
X98238095Y-87738095D01*
X98714285Y-87523809D02*
X98738095Y-87500000D01*
X98785714Y-87476190D01*
X98904761Y-87476190D01*
X98952380Y-87500000D01*
X98976190Y-87523809D01*
X99000000Y-87571428D01*
X99000000Y-87619047D01*
X98976190Y-87690476D01*
X98690476Y-87976190D01*
X99000000Y-87976190D01*
X99309523Y-87476190D02*
X99357142Y-87476190D01*
X99404761Y-87500000D01*
X99428571Y-87523809D01*
X99452380Y-87571428D01*
X99476190Y-87666666D01*
X99476190Y-87785714D01*
X99452380Y-87880952D01*
X99428571Y-87928571D01*
X99404761Y-87952380D01*
X99357142Y-87976190D01*
X99309523Y-87976190D01*
X99261904Y-87952380D01*
X99238095Y-87928571D01*
X99214285Y-87880952D01*
X99190476Y-87785714D01*
X99190476Y-87666666D01*
X99214285Y-87571428D01*
X99238095Y-87523809D01*
X99261904Y-87500000D01*
X99309523Y-87476190D01*
X99904761Y-87642857D02*
X99904761Y-87976190D01*
X99785714Y-87452380D02*
X99666666Y-87809523D01*
X99976190Y-87809523D01*
X100261904Y-87476190D02*
X100309523Y-87476190D01*
X100357142Y-87500000D01*
X100380952Y-87523809D01*
X100404761Y-87571428D01*
X100428571Y-87666666D01*
X100428571Y-87785714D01*
X100404761Y-87880952D01*
X100380952Y-87928571D01*
X100357142Y-87952380D01*
X100309523Y-87976190D01*
X100261904Y-87976190D01*
X100214285Y-87952380D01*
X100190476Y-87928571D01*
X100166666Y-87880952D01*
X100142857Y-87785714D01*
X100142857Y-87666666D01*
X100166666Y-87571428D01*
X100190476Y-87523809D01*
X100214285Y-87500000D01*
X100261904Y-87476190D01*
X101023809Y-87976190D02*
X101023809Y-87476190D01*
X101142857Y-87476190D01*
X101214285Y-87500000D01*
X101261904Y-87547619D01*
X101285714Y-87595238D01*
X101309523Y-87690476D01*
X101309523Y-87761904D01*
X101285714Y-87857142D01*
X101261904Y-87904761D01*
X101214285Y-87952380D01*
X101142857Y-87976190D01*
X101023809Y-87976190D01*
X101523809Y-87714285D02*
X101690476Y-87714285D01*
X101761904Y-87976190D02*
X101523809Y-87976190D01*
X101523809Y-87476190D01*
X101761904Y-87476190D01*
X102142857Y-87714285D02*
X102214285Y-87738095D01*
X102238095Y-87761904D01*
X102261904Y-87809523D01*
X102261904Y-87880952D01*
X102238095Y-87928571D01*
X102214285Y-87952380D01*
X102166666Y-87976190D01*
X101976190Y-87976190D01*
X101976190Y-87476190D01*
X102142857Y-87476190D01*
X102190476Y-87500000D01*
X102214285Y-87523809D01*
X102238095Y-87571428D01*
X102238095Y-87619047D01*
X102214285Y-87666666D01*
X102190476Y-87690476D01*
X102142857Y-87714285D01*
X101976190Y-87714285D01*
X102476190Y-87476190D02*
X102476190Y-87880952D01*
X102500000Y-87928571D01*
X102523809Y-87952380D01*
X102571428Y-87976190D01*
X102666666Y-87976190D01*
X102714285Y-87952380D01*
X102738095Y-87928571D01*
X102761904Y-87880952D01*
X102761904Y-87476190D01*
X103261904Y-87500000D02*
X103214285Y-87476190D01*
X103142857Y-87476190D01*
X103071428Y-87500000D01*
X103023809Y-87547619D01*
X103000000Y-87595238D01*
X102976190Y-87690476D01*
X102976190Y-87761904D01*
X103000000Y-87857142D01*
X103023809Y-87904761D01*
X103071428Y-87952380D01*
X103142857Y-87976190D01*
X103190476Y-87976190D01*
X103261904Y-87952380D01*
X103285714Y-87928571D01*
X103285714Y-87761904D01*
X103190476Y-87761904D01*
D12*
X61135714Y-74557142D02*
X60835714Y-74557142D01*
X61050000Y-74457142D01*
X60835714Y-74357142D01*
X61135714Y-74357142D01*
X61107142Y-74042857D02*
X61121428Y-74057142D01*
X61135714Y-74100000D01*
X61135714Y-74128571D01*
X61121428Y-74171428D01*
X61092857Y-74200000D01*
X61064285Y-74214285D01*
X61007142Y-74228571D01*
X60964285Y-74228571D01*
X60907142Y-74214285D01*
X60878571Y-74200000D01*
X60850000Y-74171428D01*
X60835714Y-74128571D01*
X60835714Y-74100000D01*
X60850000Y-74057142D01*
X60864285Y-74042857D01*
X61135714Y-73914285D02*
X60835714Y-73914285D01*
X60835714Y-73800000D01*
X60850000Y-73771428D01*
X60864285Y-73757142D01*
X60892857Y-73742857D01*
X60935714Y-73742857D01*
X60964285Y-73757142D01*
X60978571Y-73771428D01*
X60992857Y-73800000D01*
X60992857Y-73914285D01*
X61107142Y-73214285D02*
X61121428Y-73228571D01*
X61135714Y-73271428D01*
X61135714Y-73300000D01*
X61121428Y-73342857D01*
X61092857Y-73371428D01*
X61064285Y-73385714D01*
X61007142Y-73400000D01*
X60964285Y-73400000D01*
X60907142Y-73385714D01*
X60878571Y-73371428D01*
X60850000Y-73342857D01*
X60835714Y-73300000D01*
X60835714Y-73271428D01*
X60850000Y-73228571D01*
X60864285Y-73214285D01*
X61121428Y-73100000D02*
X61135714Y-73057142D01*
X61135714Y-72985714D01*
X61121428Y-72957142D01*
X61107142Y-72942857D01*
X61078571Y-72928571D01*
X61050000Y-72928571D01*
X61021428Y-72942857D01*
X61007142Y-72957142D01*
X60992857Y-72985714D01*
X60978571Y-73042857D01*
X60964285Y-73071428D01*
X60950000Y-73085714D01*
X60921428Y-73100000D01*
X60892857Y-73100000D01*
X60864285Y-73085714D01*
X60850000Y-73071428D01*
X60835714Y-73042857D01*
X60835714Y-72971428D01*
X60850000Y-72928571D01*
D14*
%TO.C,U8*%
X68102380Y-57361904D02*
X68911904Y-57361904D01*
X69007142Y-57314285D01*
X69054761Y-57266666D01*
X69102380Y-57171428D01*
X69102380Y-56980952D01*
X69054761Y-56885714D01*
X69007142Y-56838095D01*
X68911904Y-56790476D01*
X68102380Y-56790476D01*
X68530952Y-56171428D02*
X68483333Y-56266666D01*
X68435714Y-56314285D01*
X68340476Y-56361904D01*
X68292857Y-56361904D01*
X68197619Y-56314285D01*
X68150000Y-56266666D01*
X68102380Y-56171428D01*
X68102380Y-55980952D01*
X68150000Y-55885714D01*
X68197619Y-55838095D01*
X68292857Y-55790476D01*
X68340476Y-55790476D01*
X68435714Y-55838095D01*
X68483333Y-55885714D01*
X68530952Y-55980952D01*
X68530952Y-56171428D01*
X68578571Y-56266666D01*
X68626190Y-56314285D01*
X68721428Y-56361904D01*
X68911904Y-56361904D01*
X69007142Y-56314285D01*
X69054761Y-56266666D01*
X69102380Y-56171428D01*
X69102380Y-55980952D01*
X69054761Y-55885714D01*
X69007142Y-55838095D01*
X68911904Y-55790476D01*
X68721428Y-55790476D01*
X68626190Y-55838095D01*
X68578571Y-55885714D01*
X68530952Y-55980952D01*
%TO.C,D1*%
X24711904Y-63102380D02*
X24711904Y-62102380D01*
X24950000Y-62102380D01*
X25092857Y-62150000D01*
X25188095Y-62245238D01*
X25235714Y-62340476D01*
X25283333Y-62530952D01*
X25283333Y-62673809D01*
X25235714Y-62864285D01*
X25188095Y-62959523D01*
X25092857Y-63054761D01*
X24950000Y-63102380D01*
X24711904Y-63102380D01*
X26235714Y-63102380D02*
X25664285Y-63102380D01*
X25950000Y-63102380D02*
X25950000Y-62102380D01*
X25854761Y-62245238D01*
X25759523Y-62340476D01*
X25664285Y-62388095D01*
%TO.C,U5*%
X56452380Y-59481904D02*
X57261904Y-59481904D01*
X57357142Y-59434285D01*
X57404761Y-59386666D01*
X57452380Y-59291428D01*
X57452380Y-59100952D01*
X57404761Y-59005714D01*
X57357142Y-58958095D01*
X57261904Y-58910476D01*
X56452380Y-58910476D01*
X56452380Y-57958095D02*
X56452380Y-58434285D01*
X56928571Y-58481904D01*
X56880952Y-58434285D01*
X56833333Y-58339047D01*
X56833333Y-58100952D01*
X56880952Y-58005714D01*
X56928571Y-57958095D01*
X57023809Y-57910476D01*
X57261904Y-57910476D01*
X57357142Y-57958095D01*
X57404761Y-58005714D01*
X57452380Y-58100952D01*
X57452380Y-58339047D01*
X57404761Y-58434285D01*
X57357142Y-58481904D01*
%TO.C,C15*%
X83417142Y-74122857D02*
X83464761Y-74170476D01*
X83512380Y-74313333D01*
X83512380Y-74408571D01*
X83464761Y-74551428D01*
X83369523Y-74646666D01*
X83274285Y-74694285D01*
X83083809Y-74741904D01*
X82940952Y-74741904D01*
X82750476Y-74694285D01*
X82655238Y-74646666D01*
X82560000Y-74551428D01*
X82512380Y-74408571D01*
X82512380Y-74313333D01*
X82560000Y-74170476D01*
X82607619Y-74122857D01*
X83512380Y-73170476D02*
X83512380Y-73741904D01*
X83512380Y-73456190D02*
X82512380Y-73456190D01*
X82655238Y-73551428D01*
X82750476Y-73646666D01*
X82798095Y-73741904D01*
X82512380Y-72265714D02*
X82512380Y-72741904D01*
X82988571Y-72789523D01*
X82940952Y-72741904D01*
X82893333Y-72646666D01*
X82893333Y-72408571D01*
X82940952Y-72313333D01*
X82988571Y-72265714D01*
X83083809Y-72218095D01*
X83321904Y-72218095D01*
X83417142Y-72265714D01*
X83464761Y-72313333D01*
X83512380Y-72408571D01*
X83512380Y-72646666D01*
X83464761Y-72741904D01*
X83417142Y-72789523D01*
%TO.C,R7*%
X95872380Y-77466666D02*
X95396190Y-77800000D01*
X95872380Y-78038095D02*
X94872380Y-78038095D01*
X94872380Y-77657142D01*
X94920000Y-77561904D01*
X94967619Y-77514285D01*
X95062857Y-77466666D01*
X95205714Y-77466666D01*
X95300952Y-77514285D01*
X95348571Y-77561904D01*
X95396190Y-77657142D01*
X95396190Y-78038095D01*
X94872380Y-77133333D02*
X94872380Y-76466666D01*
X95872380Y-76895238D01*
%TO.C,C21*%
X59457142Y-49692857D02*
X59504761Y-49740476D01*
X59552380Y-49883333D01*
X59552380Y-49978571D01*
X59504761Y-50121428D01*
X59409523Y-50216666D01*
X59314285Y-50264285D01*
X59123809Y-50311904D01*
X58980952Y-50311904D01*
X58790476Y-50264285D01*
X58695238Y-50216666D01*
X58600000Y-50121428D01*
X58552380Y-49978571D01*
X58552380Y-49883333D01*
X58600000Y-49740476D01*
X58647619Y-49692857D01*
X58647619Y-49311904D02*
X58600000Y-49264285D01*
X58552380Y-49169047D01*
X58552380Y-48930952D01*
X58600000Y-48835714D01*
X58647619Y-48788095D01*
X58742857Y-48740476D01*
X58838095Y-48740476D01*
X58980952Y-48788095D01*
X59552380Y-49359523D01*
X59552380Y-48740476D01*
X59552380Y-47788095D02*
X59552380Y-48359523D01*
X59552380Y-48073809D02*
X58552380Y-48073809D01*
X58695238Y-48169047D01*
X58790476Y-48264285D01*
X58838095Y-48359523D01*
%TO.C,U7*%
X101639880Y-65325728D02*
X102449404Y-65325728D01*
X102544642Y-65278109D01*
X102592261Y-65230490D01*
X102639880Y-65135252D01*
X102639880Y-64944776D01*
X102592261Y-64849538D01*
X102544642Y-64801919D01*
X102449404Y-64754300D01*
X101639880Y-64754300D01*
X101639880Y-64373347D02*
X101639880Y-63706681D01*
X102639880Y-64135252D01*
%TO.C,C11*%
X44857142Y-65342857D02*
X44904761Y-65390476D01*
X44952380Y-65533333D01*
X44952380Y-65628571D01*
X44904761Y-65771428D01*
X44809523Y-65866666D01*
X44714285Y-65914285D01*
X44523809Y-65961904D01*
X44380952Y-65961904D01*
X44190476Y-65914285D01*
X44095238Y-65866666D01*
X44000000Y-65771428D01*
X43952380Y-65628571D01*
X43952380Y-65533333D01*
X44000000Y-65390476D01*
X44047619Y-65342857D01*
X44952380Y-64390476D02*
X44952380Y-64961904D01*
X44952380Y-64676190D02*
X43952380Y-64676190D01*
X44095238Y-64771428D01*
X44190476Y-64866666D01*
X44238095Y-64961904D01*
X44952380Y-63438095D02*
X44952380Y-64009523D01*
X44952380Y-63723809D02*
X43952380Y-63723809D01*
X44095238Y-63819047D01*
X44190476Y-63914285D01*
X44238095Y-64009523D01*
%TO.C,C16*%
X65707142Y-64157142D02*
X65659523Y-64204761D01*
X65516666Y-64252380D01*
X65421428Y-64252380D01*
X65278571Y-64204761D01*
X65183333Y-64109523D01*
X65135714Y-64014285D01*
X65088095Y-63823809D01*
X65088095Y-63680952D01*
X65135714Y-63490476D01*
X65183333Y-63395238D01*
X65278571Y-63300000D01*
X65421428Y-63252380D01*
X65516666Y-63252380D01*
X65659523Y-63300000D01*
X65707142Y-63347619D01*
X66659523Y-64252380D02*
X66088095Y-64252380D01*
X66373809Y-64252380D02*
X66373809Y-63252380D01*
X66278571Y-63395238D01*
X66183333Y-63490476D01*
X66088095Y-63538095D01*
X67516666Y-63252380D02*
X67326190Y-63252380D01*
X67230952Y-63300000D01*
X67183333Y-63347619D01*
X67088095Y-63490476D01*
X67040476Y-63680952D01*
X67040476Y-64061904D01*
X67088095Y-64157142D01*
X67135714Y-64204761D01*
X67230952Y-64252380D01*
X67421428Y-64252380D01*
X67516666Y-64204761D01*
X67564285Y-64157142D01*
X67611904Y-64061904D01*
X67611904Y-63823809D01*
X67564285Y-63728571D01*
X67516666Y-63680952D01*
X67421428Y-63633333D01*
X67230952Y-63633333D01*
X67135714Y-63680952D01*
X67088095Y-63728571D01*
X67040476Y-63823809D01*
%TO.C,C24*%
X86657142Y-74032857D02*
X86704761Y-74080476D01*
X86752380Y-74223333D01*
X86752380Y-74318571D01*
X86704761Y-74461428D01*
X86609523Y-74556666D01*
X86514285Y-74604285D01*
X86323809Y-74651904D01*
X86180952Y-74651904D01*
X85990476Y-74604285D01*
X85895238Y-74556666D01*
X85800000Y-74461428D01*
X85752380Y-74318571D01*
X85752380Y-74223333D01*
X85800000Y-74080476D01*
X85847619Y-74032857D01*
X85847619Y-73651904D02*
X85800000Y-73604285D01*
X85752380Y-73509047D01*
X85752380Y-73270952D01*
X85800000Y-73175714D01*
X85847619Y-73128095D01*
X85942857Y-73080476D01*
X86038095Y-73080476D01*
X86180952Y-73128095D01*
X86752380Y-73699523D01*
X86752380Y-73080476D01*
X86085714Y-72223333D02*
X86752380Y-72223333D01*
X85704761Y-72461428D02*
X86419047Y-72699523D01*
X86419047Y-72080476D01*
%TO.C,R5*%
X81383333Y-66722380D02*
X81050000Y-66246190D01*
X80811904Y-66722380D02*
X80811904Y-65722380D01*
X81192857Y-65722380D01*
X81288095Y-65770000D01*
X81335714Y-65817619D01*
X81383333Y-65912857D01*
X81383333Y-66055714D01*
X81335714Y-66150952D01*
X81288095Y-66198571D01*
X81192857Y-66246190D01*
X80811904Y-66246190D01*
X82288095Y-65722380D02*
X81811904Y-65722380D01*
X81764285Y-66198571D01*
X81811904Y-66150952D01*
X81907142Y-66103333D01*
X82145238Y-66103333D01*
X82240476Y-66150952D01*
X82288095Y-66198571D01*
X82335714Y-66293809D01*
X82335714Y-66531904D01*
X82288095Y-66627142D01*
X82240476Y-66674761D01*
X82145238Y-66722380D01*
X81907142Y-66722380D01*
X81811904Y-66674761D01*
X81764285Y-66627142D01*
%TO.C,C18*%
X93357142Y-64517142D02*
X93309523Y-64564761D01*
X93166666Y-64612380D01*
X93071428Y-64612380D01*
X92928571Y-64564761D01*
X92833333Y-64469523D01*
X92785714Y-64374285D01*
X92738095Y-64183809D01*
X92738095Y-64040952D01*
X92785714Y-63850476D01*
X92833333Y-63755238D01*
X92928571Y-63660000D01*
X93071428Y-63612380D01*
X93166666Y-63612380D01*
X93309523Y-63660000D01*
X93357142Y-63707619D01*
X94309523Y-64612380D02*
X93738095Y-64612380D01*
X94023809Y-64612380D02*
X94023809Y-63612380D01*
X93928571Y-63755238D01*
X93833333Y-63850476D01*
X93738095Y-63898095D01*
X94880952Y-64040952D02*
X94785714Y-63993333D01*
X94738095Y-63945714D01*
X94690476Y-63850476D01*
X94690476Y-63802857D01*
X94738095Y-63707619D01*
X94785714Y-63660000D01*
X94880952Y-63612380D01*
X95071428Y-63612380D01*
X95166666Y-63660000D01*
X95214285Y-63707619D01*
X95261904Y-63802857D01*
X95261904Y-63850476D01*
X95214285Y-63945714D01*
X95166666Y-63993333D01*
X95071428Y-64040952D01*
X94880952Y-64040952D01*
X94785714Y-64088571D01*
X94738095Y-64136190D01*
X94690476Y-64231428D01*
X94690476Y-64421904D01*
X94738095Y-64517142D01*
X94785714Y-64564761D01*
X94880952Y-64612380D01*
X95071428Y-64612380D01*
X95166666Y-64564761D01*
X95214285Y-64517142D01*
X95261904Y-64421904D01*
X95261904Y-64231428D01*
X95214285Y-64136190D01*
X95166666Y-64088571D01*
X95071428Y-64040952D01*
%TO.C,U2*%
X49587380Y-65461904D02*
X50396904Y-65461904D01*
X50492142Y-65414285D01*
X50539761Y-65366666D01*
X50587380Y-65271428D01*
X50587380Y-65080952D01*
X50539761Y-64985714D01*
X50492142Y-64938095D01*
X50396904Y-64890476D01*
X49587380Y-64890476D01*
X49682619Y-64461904D02*
X49635000Y-64414285D01*
X49587380Y-64319047D01*
X49587380Y-64080952D01*
X49635000Y-63985714D01*
X49682619Y-63938095D01*
X49777857Y-63890476D01*
X49873095Y-63890476D01*
X50015952Y-63938095D01*
X50587380Y-64509523D01*
X50587380Y-63890476D01*
%TO.C,C9*%
X85217142Y-73226666D02*
X85264761Y-73274285D01*
X85312380Y-73417142D01*
X85312380Y-73512380D01*
X85264761Y-73655238D01*
X85169523Y-73750476D01*
X85074285Y-73798095D01*
X84883809Y-73845714D01*
X84740952Y-73845714D01*
X84550476Y-73798095D01*
X84455238Y-73750476D01*
X84360000Y-73655238D01*
X84312380Y-73512380D01*
X84312380Y-73417142D01*
X84360000Y-73274285D01*
X84407619Y-73226666D01*
X85312380Y-72750476D02*
X85312380Y-72560000D01*
X85264761Y-72464761D01*
X85217142Y-72417142D01*
X85074285Y-72321904D01*
X84883809Y-72274285D01*
X84502857Y-72274285D01*
X84407619Y-72321904D01*
X84360000Y-72369523D01*
X84312380Y-72464761D01*
X84312380Y-72655238D01*
X84360000Y-72750476D01*
X84407619Y-72798095D01*
X84502857Y-72845714D01*
X84740952Y-72845714D01*
X84836190Y-72798095D01*
X84883809Y-72750476D01*
X84931428Y-72655238D01*
X84931428Y-72464761D01*
X84883809Y-72369523D01*
X84836190Y-72321904D01*
X84740952Y-72274285D01*
%TO.C,C7*%
X76233333Y-62482142D02*
X76185714Y-62529761D01*
X76042857Y-62577380D01*
X75947619Y-62577380D01*
X75804761Y-62529761D01*
X75709523Y-62434523D01*
X75661904Y-62339285D01*
X75614285Y-62148809D01*
X75614285Y-62005952D01*
X75661904Y-61815476D01*
X75709523Y-61720238D01*
X75804761Y-61625000D01*
X75947619Y-61577380D01*
X76042857Y-61577380D01*
X76185714Y-61625000D01*
X76233333Y-61672619D01*
X76566666Y-61577380D02*
X77233333Y-61577380D01*
X76804761Y-62577380D01*
%TO.C,C5*%
X26133332Y-65457142D02*
X26085713Y-65504761D01*
X25942856Y-65552380D01*
X25847618Y-65552380D01*
X25704760Y-65504761D01*
X25609522Y-65409523D01*
X25561903Y-65314285D01*
X25514284Y-65123809D01*
X25514284Y-64980952D01*
X25561903Y-64790476D01*
X25609522Y-64695238D01*
X25704760Y-64600000D01*
X25847618Y-64552380D01*
X25942856Y-64552380D01*
X26085713Y-64600000D01*
X26133332Y-64647619D01*
X27038094Y-64552380D02*
X26561903Y-64552380D01*
X26514284Y-65028571D01*
X26561903Y-64980952D01*
X26657141Y-64933333D01*
X26895237Y-64933333D01*
X26990475Y-64980952D01*
X27038094Y-65028571D01*
X27085713Y-65123809D01*
X27085713Y-65361904D01*
X27038094Y-65457142D01*
X26990475Y-65504761D01*
X26895237Y-65552380D01*
X26657141Y-65552380D01*
X26561903Y-65504761D01*
X26514284Y-65457142D01*
%TO.C,R22*%
X80969642Y-84172380D02*
X80636309Y-83696190D01*
X80398214Y-84172380D02*
X80398214Y-83172380D01*
X80779166Y-83172380D01*
X80874404Y-83220000D01*
X80922023Y-83267619D01*
X80969642Y-83362857D01*
X80969642Y-83505714D01*
X80922023Y-83600952D01*
X80874404Y-83648571D01*
X80779166Y-83696190D01*
X80398214Y-83696190D01*
X81350595Y-83267619D02*
X81398214Y-83220000D01*
X81493452Y-83172380D01*
X81731547Y-83172380D01*
X81826785Y-83220000D01*
X81874404Y-83267619D01*
X81922023Y-83362857D01*
X81922023Y-83458095D01*
X81874404Y-83600952D01*
X81302976Y-84172380D01*
X81922023Y-84172380D01*
X82302976Y-83267619D02*
X82350595Y-83220000D01*
X82445833Y-83172380D01*
X82683928Y-83172380D01*
X82779166Y-83220000D01*
X82826785Y-83267619D01*
X82874404Y-83362857D01*
X82874404Y-83458095D01*
X82826785Y-83600952D01*
X82255357Y-84172380D01*
X82874404Y-84172380D01*
%TO.C,C8*%
X78833333Y-71207142D02*
X78785714Y-71254761D01*
X78642857Y-71302380D01*
X78547619Y-71302380D01*
X78404761Y-71254761D01*
X78309523Y-71159523D01*
X78261904Y-71064285D01*
X78214285Y-70873809D01*
X78214285Y-70730952D01*
X78261904Y-70540476D01*
X78309523Y-70445238D01*
X78404761Y-70350000D01*
X78547619Y-70302380D01*
X78642857Y-70302380D01*
X78785714Y-70350000D01*
X78833333Y-70397619D01*
X79404761Y-70730952D02*
X79309523Y-70683333D01*
X79261904Y-70635714D01*
X79214285Y-70540476D01*
X79214285Y-70492857D01*
X79261904Y-70397619D01*
X79309523Y-70350000D01*
X79404761Y-70302380D01*
X79595238Y-70302380D01*
X79690476Y-70350000D01*
X79738095Y-70397619D01*
X79785714Y-70492857D01*
X79785714Y-70540476D01*
X79738095Y-70635714D01*
X79690476Y-70683333D01*
X79595238Y-70730952D01*
X79404761Y-70730952D01*
X79309523Y-70778571D01*
X79261904Y-70826190D01*
X79214285Y-70921428D01*
X79214285Y-71111904D01*
X79261904Y-71207142D01*
X79309523Y-71254761D01*
X79404761Y-71302380D01*
X79595238Y-71302380D01*
X79690476Y-71254761D01*
X79738095Y-71207142D01*
X79785714Y-71111904D01*
X79785714Y-70921428D01*
X79738095Y-70826190D01*
X79690476Y-70778571D01*
X79595238Y-70730952D01*
%TO.C,C14*%
X91562142Y-74339271D02*
X91609761Y-74386890D01*
X91657380Y-74529747D01*
X91657380Y-74624985D01*
X91609761Y-74767842D01*
X91514523Y-74863080D01*
X91419285Y-74910699D01*
X91228809Y-74958318D01*
X91085952Y-74958318D01*
X90895476Y-74910699D01*
X90800238Y-74863080D01*
X90705000Y-74767842D01*
X90657380Y-74624985D01*
X90657380Y-74529747D01*
X90705000Y-74386890D01*
X90752619Y-74339271D01*
X91657380Y-73386890D02*
X91657380Y-73958318D01*
X91657380Y-73672604D02*
X90657380Y-73672604D01*
X90800238Y-73767842D01*
X90895476Y-73863080D01*
X90943095Y-73958318D01*
X90990714Y-72529747D02*
X91657380Y-72529747D01*
X90609761Y-72767842D02*
X91324047Y-73005937D01*
X91324047Y-72386890D01*
%TO.C,C10*%
X96957142Y-64457142D02*
X96909523Y-64504761D01*
X96766666Y-64552380D01*
X96671428Y-64552380D01*
X96528571Y-64504761D01*
X96433333Y-64409523D01*
X96385714Y-64314285D01*
X96338095Y-64123809D01*
X96338095Y-63980952D01*
X96385714Y-63790476D01*
X96433333Y-63695238D01*
X96528571Y-63600000D01*
X96671428Y-63552380D01*
X96766666Y-63552380D01*
X96909523Y-63600000D01*
X96957142Y-63647619D01*
X97909523Y-64552380D02*
X97338095Y-64552380D01*
X97623809Y-64552380D02*
X97623809Y-63552380D01*
X97528571Y-63695238D01*
X97433333Y-63790476D01*
X97338095Y-63838095D01*
X98528571Y-63552380D02*
X98623809Y-63552380D01*
X98719047Y-63600000D01*
X98766666Y-63647619D01*
X98814285Y-63742857D01*
X98861904Y-63933333D01*
X98861904Y-64171428D01*
X98814285Y-64361904D01*
X98766666Y-64457142D01*
X98719047Y-64504761D01*
X98623809Y-64552380D01*
X98528571Y-64552380D01*
X98433333Y-64504761D01*
X98385714Y-64457142D01*
X98338095Y-64361904D01*
X98290476Y-64171428D01*
X98290476Y-63933333D01*
X98338095Y-63742857D01*
X98385714Y-63647619D01*
X98433333Y-63600000D01*
X98528571Y-63552380D01*
%TO.C,C2*%
X38183333Y-54907142D02*
X38135714Y-54954761D01*
X37992857Y-55002380D01*
X37897619Y-55002380D01*
X37754761Y-54954761D01*
X37659523Y-54859523D01*
X37611904Y-54764285D01*
X37564285Y-54573809D01*
X37564285Y-54430952D01*
X37611904Y-54240476D01*
X37659523Y-54145238D01*
X37754761Y-54050000D01*
X37897619Y-54002380D01*
X37992857Y-54002380D01*
X38135714Y-54050000D01*
X38183333Y-54097619D01*
X38564285Y-54097619D02*
X38611904Y-54050000D01*
X38707142Y-54002380D01*
X38945238Y-54002380D01*
X39040476Y-54050000D01*
X39088095Y-54097619D01*
X39135714Y-54192857D01*
X39135714Y-54288095D01*
X39088095Y-54430952D01*
X38516666Y-55002380D01*
X39135714Y-55002380D01*
%TO.C,R15*%
X47412142Y-59248571D02*
X46983571Y-59548571D01*
X47412142Y-59762857D02*
X46512142Y-59762857D01*
X46512142Y-59420000D01*
X46555000Y-59334285D01*
X46597857Y-59291428D01*
X46683571Y-59248571D01*
X46812142Y-59248571D01*
X46897857Y-59291428D01*
X46940714Y-59334285D01*
X46983571Y-59420000D01*
X46983571Y-59762857D01*
X47412142Y-58391428D02*
X47412142Y-58905714D01*
X47412142Y-58648571D02*
X46512142Y-58648571D01*
X46640714Y-58734285D01*
X46726428Y-58820000D01*
X46769285Y-58905714D01*
X46512142Y-57577142D02*
X46512142Y-58005714D01*
X46940714Y-58048571D01*
X46897857Y-58005714D01*
X46855000Y-57920000D01*
X46855000Y-57705714D01*
X46897857Y-57620000D01*
X46940714Y-57577142D01*
X47026428Y-57534285D01*
X47240714Y-57534285D01*
X47326428Y-57577142D01*
X47369285Y-57620000D01*
X47412142Y-57705714D01*
X47412142Y-57920000D01*
X47369285Y-58005714D01*
X47326428Y-58048571D01*
%TO.C,C12*%
X93157142Y-74194978D02*
X93204761Y-74242597D01*
X93252380Y-74385454D01*
X93252380Y-74480692D01*
X93204761Y-74623549D01*
X93109523Y-74718787D01*
X93014285Y-74766406D01*
X92823809Y-74814025D01*
X92680952Y-74814025D01*
X92490476Y-74766406D01*
X92395238Y-74718787D01*
X92300000Y-74623549D01*
X92252380Y-74480692D01*
X92252380Y-74385454D01*
X92300000Y-74242597D01*
X92347619Y-74194978D01*
X93252380Y-73242597D02*
X93252380Y-73814025D01*
X93252380Y-73528311D02*
X92252380Y-73528311D01*
X92395238Y-73623549D01*
X92490476Y-73718787D01*
X92538095Y-73814025D01*
X92347619Y-72861644D02*
X92300000Y-72814025D01*
X92252380Y-72718787D01*
X92252380Y-72480692D01*
X92300000Y-72385454D01*
X92347619Y-72337835D01*
X92442857Y-72290216D01*
X92538095Y-72290216D01*
X92680952Y-72337835D01*
X93252380Y-72909263D01*
X93252380Y-72290216D01*
%TO.C,R3*%
X98020833Y-58516204D02*
X97687500Y-58040014D01*
X97449404Y-58516204D02*
X97449404Y-57516204D01*
X97830357Y-57516204D01*
X97925595Y-57563824D01*
X97973214Y-57611443D01*
X98020833Y-57706681D01*
X98020833Y-57849538D01*
X97973214Y-57944776D01*
X97925595Y-57992395D01*
X97830357Y-58040014D01*
X97449404Y-58040014D01*
X98354166Y-57516204D02*
X98973214Y-57516204D01*
X98639880Y-57897157D01*
X98782738Y-57897157D01*
X98877976Y-57944776D01*
X98925595Y-57992395D01*
X98973214Y-58087633D01*
X98973214Y-58325728D01*
X98925595Y-58420966D01*
X98877976Y-58468585D01*
X98782738Y-58516204D01*
X98497023Y-58516204D01*
X98401785Y-58468585D01*
X98354166Y-58420966D01*
%TO.C,R6*%
X105822380Y-77441666D02*
X105346190Y-77775000D01*
X105822380Y-78013095D02*
X104822380Y-78013095D01*
X104822380Y-77632142D01*
X104870000Y-77536904D01*
X104917619Y-77489285D01*
X105012857Y-77441666D01*
X105155714Y-77441666D01*
X105250952Y-77489285D01*
X105298571Y-77536904D01*
X105346190Y-77632142D01*
X105346190Y-78013095D01*
X104822380Y-76584523D02*
X104822380Y-76775000D01*
X104870000Y-76870238D01*
X104917619Y-76917857D01*
X105060476Y-77013095D01*
X105250952Y-77060714D01*
X105631904Y-77060714D01*
X105727142Y-77013095D01*
X105774761Y-76965476D01*
X105822380Y-76870238D01*
X105822380Y-76679761D01*
X105774761Y-76584523D01*
X105727142Y-76536904D01*
X105631904Y-76489285D01*
X105393809Y-76489285D01*
X105298571Y-76536904D01*
X105250952Y-76584523D01*
X105203333Y-76679761D01*
X105203333Y-76870238D01*
X105250952Y-76965476D01*
X105298571Y-77013095D01*
X105393809Y-77060714D01*
%TO.C,C13*%
X90082142Y-74255358D02*
X90129761Y-74302977D01*
X90177380Y-74445834D01*
X90177380Y-74541072D01*
X90129761Y-74683929D01*
X90034523Y-74779167D01*
X89939285Y-74826786D01*
X89748809Y-74874405D01*
X89605952Y-74874405D01*
X89415476Y-74826786D01*
X89320238Y-74779167D01*
X89225000Y-74683929D01*
X89177380Y-74541072D01*
X89177380Y-74445834D01*
X89225000Y-74302977D01*
X89272619Y-74255358D01*
X90177380Y-73302977D02*
X90177380Y-73874405D01*
X90177380Y-73588691D02*
X89177380Y-73588691D01*
X89320238Y-73683929D01*
X89415476Y-73779167D01*
X89463095Y-73874405D01*
X89177380Y-72969643D02*
X89177380Y-72350596D01*
X89558333Y-72683929D01*
X89558333Y-72541072D01*
X89605952Y-72445834D01*
X89653571Y-72398215D01*
X89748809Y-72350596D01*
X89986904Y-72350596D01*
X90082142Y-72398215D01*
X90129761Y-72445834D01*
X90177380Y-72541072D01*
X90177380Y-72826786D01*
X90129761Y-72922024D01*
X90082142Y-72969643D01*
%TO.C,U9*%
X75657380Y-57494404D02*
X76466904Y-57494404D01*
X76562142Y-57446785D01*
X76609761Y-57399166D01*
X76657380Y-57303928D01*
X76657380Y-57113452D01*
X76609761Y-57018214D01*
X76562142Y-56970595D01*
X76466904Y-56922976D01*
X75657380Y-56922976D01*
X76657380Y-56399166D02*
X76657380Y-56208690D01*
X76609761Y-56113452D01*
X76562142Y-56065833D01*
X76419285Y-55970595D01*
X76228809Y-55922976D01*
X75847857Y-55922976D01*
X75752619Y-55970595D01*
X75705000Y-56018214D01*
X75657380Y-56113452D01*
X75657380Y-56303928D01*
X75705000Y-56399166D01*
X75752619Y-56446785D01*
X75847857Y-56494404D01*
X76085952Y-56494404D01*
X76181190Y-56446785D01*
X76228809Y-56399166D01*
X76276428Y-56303928D01*
X76276428Y-56113452D01*
X76228809Y-56018214D01*
X76181190Y-55970595D01*
X76085952Y-55922976D01*
%TO.C,C20*%
X38107141Y-56657142D02*
X38059522Y-56704761D01*
X37916665Y-56752380D01*
X37821427Y-56752380D01*
X37678570Y-56704761D01*
X37583332Y-56609523D01*
X37535713Y-56514285D01*
X37488094Y-56323809D01*
X37488094Y-56180952D01*
X37535713Y-55990476D01*
X37583332Y-55895238D01*
X37678570Y-55800000D01*
X37821427Y-55752380D01*
X37916665Y-55752380D01*
X38059522Y-55800000D01*
X38107141Y-55847619D01*
X38488094Y-55847619D02*
X38535713Y-55800000D01*
X38630951Y-55752380D01*
X38869046Y-55752380D01*
X38964284Y-55800000D01*
X39011903Y-55847619D01*
X39059522Y-55942857D01*
X39059522Y-56038095D01*
X39011903Y-56180952D01*
X38440475Y-56752380D01*
X39059522Y-56752380D01*
X39678570Y-55752380D02*
X39773808Y-55752380D01*
X39869046Y-55800000D01*
X39916665Y-55847619D01*
X39964284Y-55942857D01*
X40011903Y-56133333D01*
X40011903Y-56371428D01*
X39964284Y-56561904D01*
X39916665Y-56657142D01*
X39869046Y-56704761D01*
X39773808Y-56752380D01*
X39678570Y-56752380D01*
X39583332Y-56704761D01*
X39535713Y-56657142D01*
X39488094Y-56561904D01*
X39440475Y-56371428D01*
X39440475Y-56133333D01*
X39488094Y-55942857D01*
X39535713Y-55847619D01*
X39583332Y-55800000D01*
X39678570Y-55752380D01*
%TO.C,U10*%
X81261904Y-60302380D02*
X81261904Y-61111904D01*
X81309523Y-61207142D01*
X81357142Y-61254761D01*
X81452380Y-61302380D01*
X81642857Y-61302380D01*
X81738095Y-61254761D01*
X81785714Y-61207142D01*
X81833333Y-61111904D01*
X81833333Y-60302380D01*
X82833333Y-61302380D02*
X82261904Y-61302380D01*
X82547619Y-61302380D02*
X82547619Y-60302380D01*
X82452380Y-60445238D01*
X82357142Y-60540476D01*
X82261904Y-60588095D01*
X83452380Y-60302380D02*
X83547619Y-60302380D01*
X83642857Y-60350000D01*
X83690476Y-60397619D01*
X83738095Y-60492857D01*
X83785714Y-60683333D01*
X83785714Y-60921428D01*
X83738095Y-61111904D01*
X83690476Y-61207142D01*
X83642857Y-61254761D01*
X83547619Y-61302380D01*
X83452380Y-61302380D01*
X83357142Y-61254761D01*
X83309523Y-61207142D01*
X83261904Y-61111904D01*
X83214285Y-60921428D01*
X83214285Y-60683333D01*
X83261904Y-60492857D01*
X83309523Y-60397619D01*
X83357142Y-60350000D01*
X83452380Y-60302380D01*
%TO.C,L1*%
X26533333Y-73927380D02*
X26057142Y-73927380D01*
X26057142Y-72927380D01*
X27390476Y-73927380D02*
X26819047Y-73927380D01*
X27104761Y-73927380D02*
X27104761Y-72927380D01*
X27009523Y-73070238D01*
X26914285Y-73165476D01*
X26819047Y-73213095D01*
%TO.C,D2*%
X28511904Y-54802380D02*
X28511904Y-53802380D01*
X28750000Y-53802380D01*
X28892857Y-53850000D01*
X28988095Y-53945238D01*
X29035714Y-54040476D01*
X29083333Y-54230952D01*
X29083333Y-54373809D01*
X29035714Y-54564285D01*
X28988095Y-54659523D01*
X28892857Y-54754761D01*
X28750000Y-54802380D01*
X28511904Y-54802380D01*
X29464285Y-53897619D02*
X29511904Y-53850000D01*
X29607142Y-53802380D01*
X29845238Y-53802380D01*
X29940476Y-53850000D01*
X29988095Y-53897619D01*
X30035714Y-53992857D01*
X30035714Y-54088095D01*
X29988095Y-54230952D01*
X29416666Y-54802380D01*
X30035714Y-54802380D01*
%TO.C,C23*%
X95562142Y-74173564D02*
X95609761Y-74221183D01*
X95657380Y-74364040D01*
X95657380Y-74459278D01*
X95609761Y-74602135D01*
X95514523Y-74697373D01*
X95419285Y-74744992D01*
X95228809Y-74792611D01*
X95085952Y-74792611D01*
X94895476Y-74744992D01*
X94800238Y-74697373D01*
X94705000Y-74602135D01*
X94657380Y-74459278D01*
X94657380Y-74364040D01*
X94705000Y-74221183D01*
X94752619Y-74173564D01*
X94752619Y-73792611D02*
X94705000Y-73744992D01*
X94657380Y-73649754D01*
X94657380Y-73411659D01*
X94705000Y-73316421D01*
X94752619Y-73268802D01*
X94847857Y-73221183D01*
X94943095Y-73221183D01*
X95085952Y-73268802D01*
X95657380Y-73840230D01*
X95657380Y-73221183D01*
X94657380Y-72887849D02*
X94657380Y-72268802D01*
X95038333Y-72602135D01*
X95038333Y-72459278D01*
X95085952Y-72364040D01*
X95133571Y-72316421D01*
X95228809Y-72268802D01*
X95466904Y-72268802D01*
X95562142Y-72316421D01*
X95609761Y-72364040D01*
X95657380Y-72459278D01*
X95657380Y-72744992D01*
X95609761Y-72840230D01*
X95562142Y-72887849D01*
%TO.C,C4*%
X81058333Y-56482142D02*
X81010714Y-56529761D01*
X80867857Y-56577380D01*
X80772619Y-56577380D01*
X80629761Y-56529761D01*
X80534523Y-56434523D01*
X80486904Y-56339285D01*
X80439285Y-56148809D01*
X80439285Y-56005952D01*
X80486904Y-55815476D01*
X80534523Y-55720238D01*
X80629761Y-55625000D01*
X80772619Y-55577380D01*
X80867857Y-55577380D01*
X81010714Y-55625000D01*
X81058333Y-55672619D01*
X81915476Y-55910714D02*
X81915476Y-56577380D01*
X81677380Y-55529761D02*
X81439285Y-56244047D01*
X82058333Y-56244047D01*
%TO.C,C6*%
X105757142Y-71516666D02*
X105804761Y-71564285D01*
X105852380Y-71707142D01*
X105852380Y-71802380D01*
X105804761Y-71945238D01*
X105709523Y-72040476D01*
X105614285Y-72088095D01*
X105423809Y-72135714D01*
X105280952Y-72135714D01*
X105090476Y-72088095D01*
X104995238Y-72040476D01*
X104900000Y-71945238D01*
X104852380Y-71802380D01*
X104852380Y-71707142D01*
X104900000Y-71564285D01*
X104947619Y-71516666D01*
X104852380Y-70659523D02*
X104852380Y-70850000D01*
X104900000Y-70945238D01*
X104947619Y-70992857D01*
X105090476Y-71088095D01*
X105280952Y-71135714D01*
X105661904Y-71135714D01*
X105757142Y-71088095D01*
X105804761Y-71040476D01*
X105852380Y-70945238D01*
X105852380Y-70754761D01*
X105804761Y-70659523D01*
X105757142Y-70611904D01*
X105661904Y-70564285D01*
X105423809Y-70564285D01*
X105328571Y-70611904D01*
X105280952Y-70659523D01*
X105233333Y-70754761D01*
X105233333Y-70945238D01*
X105280952Y-71040476D01*
X105328571Y-71088095D01*
X105423809Y-71135714D01*
%TO.C,C3*%
X35883333Y-65457142D02*
X35835714Y-65504761D01*
X35692857Y-65552380D01*
X35597619Y-65552380D01*
X35454761Y-65504761D01*
X35359523Y-65409523D01*
X35311904Y-65314285D01*
X35264285Y-65123809D01*
X35264285Y-64980952D01*
X35311904Y-64790476D01*
X35359523Y-64695238D01*
X35454761Y-64600000D01*
X35597619Y-64552380D01*
X35692857Y-64552380D01*
X35835714Y-64600000D01*
X35883333Y-64647619D01*
X36216666Y-64552380D02*
X36835714Y-64552380D01*
X36502380Y-64933333D01*
X36645238Y-64933333D01*
X36740476Y-64980952D01*
X36788095Y-65028571D01*
X36835714Y-65123809D01*
X36835714Y-65361904D01*
X36788095Y-65457142D01*
X36740476Y-65504761D01*
X36645238Y-65552380D01*
X36359523Y-65552380D01*
X36264285Y-65504761D01*
X36216666Y-65457142D01*
%TO.C,R21*%
X80944642Y-80812380D02*
X80611309Y-80336190D01*
X80373214Y-80812380D02*
X80373214Y-79812380D01*
X80754166Y-79812380D01*
X80849404Y-79860000D01*
X80897023Y-79907619D01*
X80944642Y-80002857D01*
X80944642Y-80145714D01*
X80897023Y-80240952D01*
X80849404Y-80288571D01*
X80754166Y-80336190D01*
X80373214Y-80336190D01*
X81325595Y-79907619D02*
X81373214Y-79860000D01*
X81468452Y-79812380D01*
X81706547Y-79812380D01*
X81801785Y-79860000D01*
X81849404Y-79907619D01*
X81897023Y-80002857D01*
X81897023Y-80098095D01*
X81849404Y-80240952D01*
X81277976Y-80812380D01*
X81897023Y-80812380D01*
X82849404Y-80812380D02*
X82277976Y-80812380D01*
X82563690Y-80812380D02*
X82563690Y-79812380D01*
X82468452Y-79955238D01*
X82373214Y-80050476D01*
X82277976Y-80098095D01*
%TO.C,C17*%
X87157143Y-56807142D02*
X87109524Y-56854761D01*
X86966667Y-56902380D01*
X86871429Y-56902380D01*
X86728572Y-56854761D01*
X86633334Y-56759523D01*
X86585715Y-56664285D01*
X86538096Y-56473809D01*
X86538096Y-56330952D01*
X86585715Y-56140476D01*
X86633334Y-56045238D01*
X86728572Y-55950000D01*
X86871429Y-55902380D01*
X86966667Y-55902380D01*
X87109524Y-55950000D01*
X87157143Y-55997619D01*
X88109524Y-56902380D02*
X87538096Y-56902380D01*
X87823810Y-56902380D02*
X87823810Y-55902380D01*
X87728572Y-56045238D01*
X87633334Y-56140476D01*
X87538096Y-56188095D01*
X88442858Y-55902380D02*
X89109524Y-55902380D01*
X88680953Y-56902380D01*
%TO.C,R16*%
X64517142Y-65732380D02*
X64183809Y-65256190D01*
X63945714Y-65732380D02*
X63945714Y-64732380D01*
X64326666Y-64732380D01*
X64421904Y-64780000D01*
X64469523Y-64827619D01*
X64517142Y-64922857D01*
X64517142Y-65065714D01*
X64469523Y-65160952D01*
X64421904Y-65208571D01*
X64326666Y-65256190D01*
X63945714Y-65256190D01*
X65469523Y-65732380D02*
X64898095Y-65732380D01*
X65183809Y-65732380D02*
X65183809Y-64732380D01*
X65088571Y-64875238D01*
X64993333Y-64970476D01*
X64898095Y-65018095D01*
X66326666Y-64732380D02*
X66136190Y-64732380D01*
X66040952Y-64780000D01*
X65993333Y-64827619D01*
X65898095Y-64970476D01*
X65850476Y-65160952D01*
X65850476Y-65541904D01*
X65898095Y-65637142D01*
X65945714Y-65684761D01*
X66040952Y-65732380D01*
X66231428Y-65732380D01*
X66326666Y-65684761D01*
X66374285Y-65637142D01*
X66421904Y-65541904D01*
X66421904Y-65303809D01*
X66374285Y-65208571D01*
X66326666Y-65160952D01*
X66231428Y-65113333D01*
X66040952Y-65113333D01*
X65945714Y-65160952D01*
X65898095Y-65208571D01*
X65850476Y-65303809D01*
%TO.C,C19*%
X88670966Y-59866902D02*
X88623347Y-59914521D01*
X88480490Y-59962140D01*
X88385252Y-59962140D01*
X88242395Y-59914521D01*
X88147157Y-59819283D01*
X88099538Y-59724045D01*
X88051919Y-59533569D01*
X88051919Y-59390712D01*
X88099538Y-59200236D01*
X88147157Y-59104998D01*
X88242395Y-59009760D01*
X88385252Y-58962140D01*
X88480490Y-58962140D01*
X88623347Y-59009760D01*
X88670966Y-59057379D01*
X89623347Y-59962140D02*
X89051919Y-59962140D01*
X89337633Y-59962140D02*
X89337633Y-58962140D01*
X89242395Y-59104998D01*
X89147157Y-59200236D01*
X89051919Y-59247855D01*
X90099538Y-59962140D02*
X90290014Y-59962140D01*
X90385252Y-59914521D01*
X90432871Y-59866902D01*
X90528109Y-59724045D01*
X90575728Y-59533569D01*
X90575728Y-59152617D01*
X90528109Y-59057379D01*
X90480490Y-59009760D01*
X90385252Y-58962140D01*
X90194776Y-58962140D01*
X90099538Y-59009760D01*
X90051919Y-59057379D01*
X90004300Y-59152617D01*
X90004300Y-59390712D01*
X90051919Y-59485950D01*
X90099538Y-59533569D01*
X90194776Y-59581188D01*
X90385252Y-59581188D01*
X90480490Y-59533569D01*
X90528109Y-59485950D01*
X90575728Y-59390712D01*
%TO.C,C22*%
X55232142Y-49617857D02*
X55279761Y-49665476D01*
X55327380Y-49808333D01*
X55327380Y-49903571D01*
X55279761Y-50046428D01*
X55184523Y-50141666D01*
X55089285Y-50189285D01*
X54898809Y-50236904D01*
X54755952Y-50236904D01*
X54565476Y-50189285D01*
X54470238Y-50141666D01*
X54375000Y-50046428D01*
X54327380Y-49903571D01*
X54327380Y-49808333D01*
X54375000Y-49665476D01*
X54422619Y-49617857D01*
X54422619Y-49236904D02*
X54375000Y-49189285D01*
X54327380Y-49094047D01*
X54327380Y-48855952D01*
X54375000Y-48760714D01*
X54422619Y-48713095D01*
X54517857Y-48665476D01*
X54613095Y-48665476D01*
X54755952Y-48713095D01*
X55327380Y-49284523D01*
X55327380Y-48665476D01*
X54422619Y-48284523D02*
X54375000Y-48236904D01*
X54327380Y-48141666D01*
X54327380Y-47903571D01*
X54375000Y-47808333D01*
X54422619Y-47760714D01*
X54517857Y-47713095D01*
X54613095Y-47713095D01*
X54755952Y-47760714D01*
X55327380Y-48332142D01*
X55327380Y-47713095D01*
%TO.C,R91*%
X81022142Y-82392380D02*
X80688809Y-81916190D01*
X80450714Y-82392380D02*
X80450714Y-81392380D01*
X80831666Y-81392380D01*
X80926904Y-81440000D01*
X80974523Y-81487619D01*
X81022142Y-81582857D01*
X81022142Y-81725714D01*
X80974523Y-81820952D01*
X80926904Y-81868571D01*
X80831666Y-81916190D01*
X80450714Y-81916190D01*
X81498333Y-82392380D02*
X81688809Y-82392380D01*
X81784047Y-82344761D01*
X81831666Y-82297142D01*
X81926904Y-82154285D01*
X81974523Y-81963809D01*
X81974523Y-81582857D01*
X81926904Y-81487619D01*
X81879285Y-81440000D01*
X81784047Y-81392380D01*
X81593571Y-81392380D01*
X81498333Y-81440000D01*
X81450714Y-81487619D01*
X81403095Y-81582857D01*
X81403095Y-81820952D01*
X81450714Y-81916190D01*
X81498333Y-81963809D01*
X81593571Y-82011428D01*
X81784047Y-82011428D01*
X81879285Y-81963809D01*
X81926904Y-81916190D01*
X81974523Y-81820952D01*
X82926904Y-82392380D02*
X82355476Y-82392380D01*
X82641190Y-82392380D02*
X82641190Y-81392380D01*
X82545952Y-81535238D01*
X82450714Y-81630476D01*
X82355476Y-81678095D01*
%TO.C,R4*%
X98020833Y-60266204D02*
X97687500Y-59790014D01*
X97449404Y-60266204D02*
X97449404Y-59266204D01*
X97830357Y-59266204D01*
X97925595Y-59313824D01*
X97973214Y-59361443D01*
X98020833Y-59456681D01*
X98020833Y-59599538D01*
X97973214Y-59694776D01*
X97925595Y-59742395D01*
X97830357Y-59790014D01*
X97449404Y-59790014D01*
X98877976Y-59599538D02*
X98877976Y-60266204D01*
X98639880Y-59218585D02*
X98401785Y-59932871D01*
X99020833Y-59932871D01*
D11*
%TO.C,Y2*%
X55225000Y-50650000D02*
X55225000Y-53450000D01*
X55225000Y-53450000D02*
X58525000Y-53450000D01*
%TO.C,U8*%
X72885000Y-60610000D02*
X72640000Y-60610000D01*
X61115000Y-56750000D02*
X61115000Y-52890000D01*
X61115000Y-56750000D02*
X61115000Y-60610000D01*
X61115000Y-60610000D02*
X61360000Y-60610000D01*
X72640000Y-52890000D02*
X72640000Y-51075000D01*
X72885000Y-52890000D02*
X72640000Y-52890000D01*
X72885000Y-56750000D02*
X72885000Y-52890000D01*
X61115000Y-52890000D02*
X61360000Y-52890000D01*
X72885000Y-56750000D02*
X72885000Y-60610000D01*
%TO.C,D1*%
X24425000Y-61750000D02*
X24425000Y-57850000D01*
X26425000Y-61750000D02*
X26425000Y-57850000D01*
X24425000Y-61750000D02*
X26425000Y-61750000D01*
%TO.C,U5*%
X53865000Y-58750000D02*
X53865000Y-60950000D01*
X53865000Y-58750000D02*
X53865000Y-56550000D01*
X60635000Y-58750000D02*
X60635000Y-60950000D01*
X60635000Y-58750000D02*
X60635000Y-55150000D01*
%TO.C,C15*%
X82615000Y-70303733D02*
X82615000Y-70596267D01*
X83635000Y-70303733D02*
X83635000Y-70596267D01*
%TO.C,R7*%
X96290000Y-77446267D02*
X96290000Y-77153733D01*
X97310000Y-77446267D02*
X97310000Y-77153733D01*
%TO.C,C21*%
X58640000Y-52221267D02*
X58640000Y-51928733D01*
X59660000Y-52221267D02*
X59660000Y-51928733D01*
D15*
%TO.C,PAU301*%
X41500000Y-80345000D02*
X44500000Y-80345000D01*
X44500000Y-80345000D02*
X44500000Y-78845000D01*
D16*
X46000000Y-77845000D02*
X40000000Y-77845000D01*
D15*
X44500000Y-78845000D02*
X41500000Y-78845000D01*
X41500000Y-78845000D02*
X41500000Y-80345000D01*
D16*
X40000000Y-81345000D02*
X46000000Y-81345000D01*
X38577000Y-77595000D02*
G75*
G03*
X38577000Y-77595000I-127000J0D01*
G01*
D11*
%TO.C,U7*%
X99263687Y-64587273D02*
X99263687Y-61862273D01*
X99263687Y-61862273D02*
X99523687Y-61862273D01*
X104713687Y-64587273D02*
X104713687Y-67312273D01*
X104713687Y-67312273D02*
X104453687Y-67312273D01*
X99263687Y-64587273D02*
X99263687Y-67312273D01*
X104713687Y-64587273D02*
X104713687Y-61862273D01*
X104713687Y-61862273D02*
X104453687Y-61862273D01*
X99263687Y-67312273D02*
X99523687Y-67312273D01*
X104453687Y-61862273D02*
X104453687Y-60187273D01*
%TO.C,C11*%
X46885000Y-64488748D02*
X46885000Y-65011252D01*
X45415000Y-64488748D02*
X45415000Y-65011252D01*
%TO.C,C16*%
X61638748Y-63015000D02*
X62161252Y-63015000D01*
X61638748Y-64485000D02*
X62161252Y-64485000D01*
%TO.C,C24*%
X86810000Y-70303733D02*
X86810000Y-70596267D01*
X85790000Y-70303733D02*
X85790000Y-70596267D01*
%TO.C,R5*%
X82072500Y-68370276D02*
X82072500Y-68879724D01*
X81027500Y-68370276D02*
X81027500Y-68879724D01*
%TO.C,J2*%
X77194838Y-82997500D02*
X77194838Y-85657500D01*
X56814838Y-82997500D02*
X56754838Y-82997500D01*
X77134838Y-85657500D02*
X77134838Y-87117500D01*
X56754838Y-82997500D02*
X56754838Y-85657500D01*
X56814838Y-85657500D02*
X56754838Y-85657500D01*
X77194838Y-85657500D02*
X77134838Y-85657500D01*
X77194838Y-82997500D02*
X77134838Y-82997500D01*
%TO.C,C18*%
X95560000Y-66203733D02*
X95560000Y-66496267D01*
X94540000Y-66203733D02*
X94540000Y-66496267D01*
%TO.C,U2*%
X52745000Y-64800000D02*
X52745000Y-62850000D01*
X47625000Y-64800000D02*
X47625000Y-68250000D01*
X47625000Y-64800000D02*
X47625000Y-62850000D01*
X52745000Y-64800000D02*
X52745000Y-66750000D01*
%TO.C,C9*%
X84240000Y-70303733D02*
X84240000Y-70596267D01*
X85260000Y-70303733D02*
X85260000Y-70596267D01*
%TO.C,J5*%
X101590000Y-84000000D02*
X101590000Y-84635000D01*
X101590000Y-84635000D02*
X100955000Y-84635000D01*
%TO.C,C7*%
X78853733Y-62610000D02*
X79146267Y-62610000D01*
X78853733Y-61590000D02*
X79146267Y-61590000D01*
%TO.C,C5*%
X29286251Y-64373041D02*
X28763747Y-64373041D01*
X29286251Y-65843041D02*
X28763747Y-65843041D01*
%TO.C,R22*%
X81255276Y-79462500D02*
X81764724Y-79462500D01*
X81255276Y-78417500D02*
X81764724Y-78417500D01*
%TO.C,C8*%
X78853733Y-70034999D02*
X79146267Y-70034999D01*
X78853733Y-69014999D02*
X79146267Y-69014999D01*
D15*
%TO.C,J4*%
X63320000Y-42090000D02*
X63320000Y-48520000D01*
X71750000Y-48520000D02*
X70680000Y-48520000D01*
X65375000Y-48520000D02*
X63320000Y-48520000D01*
X16500000Y-30230000D02*
X117500000Y-30230000D01*
X117500000Y-14480000D02*
X16500000Y-14480000D01*
X62250000Y-48520000D02*
X62250000Y-42090000D01*
X81500000Y-42090000D02*
X71750000Y-42090000D01*
X107500000Y-53390000D02*
X81500000Y-53390000D01*
X117500000Y-30230000D02*
X117500000Y-42090000D01*
X117500000Y-30230000D02*
X117500000Y-14480000D01*
X65375000Y-45145000D02*
X65375000Y-48520000D01*
X52500000Y-42090000D02*
X52500000Y-53390000D01*
X70680000Y-48520000D02*
X68625000Y-48520000D01*
X16500000Y-42090000D02*
X16500000Y-30230000D01*
X26500000Y-42090000D02*
X16500000Y-42090000D01*
X52500000Y-42090000D02*
X26500000Y-42090000D01*
X107500000Y-42090000D02*
X81500000Y-42090000D01*
X71750000Y-42090000D02*
X70680000Y-42090000D01*
X63320000Y-48520000D02*
X62250000Y-48520000D01*
X81500000Y-53390000D02*
X81500000Y-42090000D01*
X71750000Y-42090000D02*
X71750000Y-48520000D01*
X52500000Y-53390000D02*
X26500000Y-53390000D01*
X26500000Y-53390000D02*
X26500000Y-42090000D01*
X70680000Y-42090000D02*
X70680000Y-48520000D01*
X117500000Y-42090000D02*
X107500000Y-42090000D01*
X70680000Y-42090000D02*
X63320000Y-42090000D01*
X62250000Y-42090000D02*
X52500000Y-42090000D01*
X107500000Y-42090000D02*
X107500000Y-53390000D01*
X63320000Y-42090000D02*
X62250000Y-42090000D01*
X68625000Y-48520000D02*
X68625000Y-45145000D01*
X16500000Y-14480000D02*
X16500000Y-30230000D01*
X68625000Y-45145000D02*
G75*
G03*
X67000000Y-43520000I-1624998J2D01*
G01*
X67000000Y-43520000D02*
G75*
G03*
X65375000Y-45145000I-2J-1624998D01*
G01*
D17*
X80950000Y-45000000D02*
G75*
G03*
X80950000Y-45000000I-200000J0D01*
G01*
D11*
%TO.C,C14*%
X90715000Y-70303733D02*
X90715000Y-70596267D01*
X91735000Y-70303733D02*
X91735000Y-70596267D01*
%TO.C,C10*%
X97110000Y-66203733D02*
X97110000Y-66496267D01*
X96090000Y-66203733D02*
X96090000Y-66496267D01*
%TO.C,C2*%
X32765000Y-55611252D02*
X32765000Y-55088748D01*
X34235000Y-55611252D02*
X34235000Y-55088748D01*
%TO.C,R15*%
X48757500Y-59054724D02*
X48757500Y-58545276D01*
X47712500Y-59054724D02*
X47712500Y-58545276D01*
%TO.C,C12*%
X93260000Y-68028733D02*
X93260000Y-68321267D01*
X92240000Y-68028733D02*
X92240000Y-68321267D01*
%TO.C,G\u002A\u002A\u002A*%
G36*
X84246739Y-86107018D02*
G01*
X84241740Y-86123079D01*
X84227391Y-86165265D01*
X84204660Y-86230816D01*
X84174519Y-86316968D01*
X84137936Y-86420959D01*
X84095883Y-86540028D01*
X84049329Y-86671412D01*
X83999244Y-86812349D01*
X83984939Y-86852528D01*
X83924383Y-87022595D01*
X83873432Y-87166373D01*
X83831478Y-87286499D01*
X83797912Y-87385608D01*
X83772125Y-87466338D01*
X83753506Y-87531326D01*
X83741447Y-87583206D01*
X83735339Y-87624618D01*
X83734572Y-87658195D01*
X83738537Y-87686576D01*
X83746625Y-87712397D01*
X83758227Y-87738294D01*
X83772732Y-87766904D01*
X83773356Y-87768126D01*
X83821902Y-87842033D01*
X83893232Y-87921755D01*
X83981669Y-88001656D01*
X84081540Y-88076099D01*
X84087351Y-88079988D01*
X84260203Y-88182141D01*
X84461187Y-88277998D01*
X84688363Y-88367322D01*
X84939793Y-88449875D01*
X85213536Y-88525421D01*
X85507653Y-88593723D01*
X85820204Y-88654544D01*
X86149249Y-88707646D01*
X86492849Y-88752793D01*
X86849064Y-88789749D01*
X87215955Y-88818274D01*
X87591581Y-88838134D01*
X87974003Y-88849091D01*
X88361282Y-88850907D01*
X88751478Y-88843346D01*
X89142651Y-88826171D01*
X89532862Y-88799145D01*
X89785147Y-88776175D01*
X90159347Y-88733361D01*
X90515038Y-88681694D01*
X90850844Y-88621544D01*
X91165392Y-88553287D01*
X91457307Y-88477293D01*
X91725213Y-88393938D01*
X91967737Y-88303592D01*
X92183504Y-88206630D01*
X92371139Y-88103424D01*
X92448040Y-88053672D01*
X92540478Y-87980950D01*
X92621719Y-87898544D01*
X92687881Y-87811752D01*
X92735080Y-87725870D01*
X92759434Y-87646193D01*
X92761616Y-87625966D01*
X92757392Y-87597509D01*
X92742870Y-87542719D01*
X92717925Y-87461216D01*
X92682435Y-87352626D01*
X92636277Y-87216572D01*
X92579326Y-87052677D01*
X92511461Y-86860564D01*
X92506726Y-86847250D01*
X92456457Y-86705254D01*
X92409804Y-86572077D01*
X92367702Y-86450497D01*
X92331091Y-86343286D01*
X92300907Y-86253221D01*
X92278088Y-86183076D01*
X92263571Y-86135627D01*
X92258295Y-86113648D01*
X92258474Y-86112500D01*
X92274118Y-86115491D01*
X92316451Y-86126799D01*
X92382867Y-86145630D01*
X92470763Y-86171190D01*
X92577535Y-86202684D01*
X92700579Y-86239317D01*
X92837291Y-86280296D01*
X92985066Y-86324826D01*
X93141301Y-86372113D01*
X93303392Y-86421362D01*
X93468735Y-86471779D01*
X93634725Y-86522570D01*
X93798759Y-86572940D01*
X93958233Y-86622094D01*
X94110543Y-86669239D01*
X94253084Y-86713580D01*
X94383253Y-86754323D01*
X94498446Y-86790673D01*
X94596059Y-86821836D01*
X94673487Y-86847017D01*
X94728126Y-86865423D01*
X94738043Y-86868916D01*
X94855706Y-86914768D01*
X94981207Y-86970305D01*
X95107077Y-87031721D01*
X95225846Y-87095207D01*
X95330047Y-87156956D01*
X95409891Y-87211406D01*
X95517806Y-87299271D01*
X95601359Y-87383057D01*
X95665364Y-87468161D01*
X95708098Y-87545788D01*
X95731961Y-87600112D01*
X95744945Y-87644480D01*
X95749505Y-87692134D01*
X95748095Y-87756317D01*
X95747896Y-87760522D01*
X95738473Y-87851721D01*
X95718597Y-87924336D01*
X95706174Y-87952727D01*
X95662436Y-88021210D01*
X95597135Y-88096437D01*
X95516578Y-88172336D01*
X95427074Y-88242830D01*
X95357126Y-88288945D01*
X95332096Y-88301864D01*
X95280876Y-88326464D01*
X95205288Y-88361923D01*
X95107156Y-88407419D01*
X94988303Y-88462134D01*
X94850552Y-88525244D01*
X94695727Y-88595930D01*
X94525649Y-88673370D01*
X94342144Y-88756743D01*
X94147033Y-88845229D01*
X93942140Y-88938007D01*
X93729288Y-89034255D01*
X93510300Y-89133153D01*
X93287000Y-89233880D01*
X93061209Y-89335614D01*
X92834753Y-89437535D01*
X92609453Y-89538822D01*
X92387133Y-89638654D01*
X92169616Y-89736211D01*
X91958726Y-89830670D01*
X91756285Y-89921211D01*
X91564116Y-90007014D01*
X91384043Y-90087257D01*
X91217888Y-90161119D01*
X91067476Y-90227779D01*
X90934628Y-90286417D01*
X90821169Y-90336212D01*
X90728921Y-90376342D01*
X90659708Y-90405987D01*
X90615352Y-90424325D01*
X90611560Y-90425815D01*
X90353048Y-90515902D01*
X90066882Y-90595890D01*
X89754486Y-90665454D01*
X89417283Y-90724271D01*
X89124275Y-90764132D01*
X89050812Y-90770900D01*
X88951601Y-90776996D01*
X88831565Y-90782354D01*
X88695625Y-90786907D01*
X88548704Y-90790587D01*
X88395724Y-90793329D01*
X88241608Y-90795064D01*
X88091278Y-90795727D01*
X87949657Y-90795250D01*
X87821667Y-90793567D01*
X87712229Y-90790611D01*
X87626267Y-90786315D01*
X87605797Y-90784755D01*
X87256624Y-90747680D01*
X86920172Y-90697052D01*
X86599836Y-90633611D01*
X86299012Y-90558100D01*
X86021096Y-90471260D01*
X85818901Y-90394691D01*
X85786642Y-90380871D01*
X85728645Y-90355460D01*
X85646782Y-90319298D01*
X85542930Y-90273226D01*
X85418961Y-90218086D01*
X85276751Y-90154717D01*
X85118173Y-90083961D01*
X84945104Y-90006659D01*
X84759415Y-89923651D01*
X84562984Y-89835778D01*
X84357683Y-89743881D01*
X84145387Y-89648802D01*
X83927971Y-89551379D01*
X83707309Y-89452456D01*
X83485275Y-89352872D01*
X83263745Y-89253468D01*
X83044591Y-89155085D01*
X82829690Y-89058564D01*
X82620915Y-88964746D01*
X82420141Y-88874472D01*
X82229242Y-88788582D01*
X82050092Y-88707917D01*
X81884567Y-88633318D01*
X81734540Y-88565626D01*
X81601886Y-88505682D01*
X81488480Y-88454327D01*
X81396195Y-88412400D01*
X81326907Y-88380745D01*
X81282489Y-88360200D01*
X81267541Y-88353052D01*
X81130277Y-88275273D01*
X81008036Y-88187921D01*
X80905155Y-88094714D01*
X80825968Y-87999371D01*
X80793577Y-87946411D01*
X80774654Y-87904248D01*
X80763628Y-87859766D01*
X80758604Y-87802538D01*
X80757643Y-87748671D01*
X80758941Y-87678307D01*
X80764856Y-87626580D01*
X80777772Y-87581535D01*
X80800070Y-87531215D01*
X80801611Y-87528066D01*
X80855035Y-87442690D01*
X80932090Y-87352476D01*
X81027492Y-87262834D01*
X81135959Y-87179172D01*
X81155245Y-87165983D01*
X81247786Y-87108987D01*
X81360670Y-87047486D01*
X81484879Y-86985858D01*
X81611395Y-86928481D01*
X81731198Y-86879736D01*
X81784964Y-86860243D01*
X81835195Y-86843486D01*
X81908560Y-86819789D01*
X82002465Y-86789944D01*
X82114312Y-86754747D01*
X82241508Y-86714991D01*
X82381456Y-86671470D01*
X82531562Y-86624980D01*
X82689229Y-86576312D01*
X82851863Y-86526263D01*
X83016868Y-86475625D01*
X83181650Y-86425194D01*
X83343611Y-86375762D01*
X83500158Y-86328125D01*
X83648694Y-86283076D01*
X83786625Y-86241409D01*
X83911354Y-86203919D01*
X84020288Y-86171399D01*
X84110829Y-86144644D01*
X84180384Y-86124448D01*
X84226356Y-86111604D01*
X84246150Y-86106908D01*
X84246739Y-86107018D01*
G37*
G36*
X90835841Y-82091298D02*
G01*
X90843460Y-82112716D01*
X90860668Y-82160998D01*
X90886742Y-82234119D01*
X90920958Y-82330051D01*
X90962595Y-82446769D01*
X91010929Y-82582245D01*
X91065237Y-82734453D01*
X91124796Y-82901367D01*
X91188883Y-83080959D01*
X91256775Y-83271205D01*
X91327749Y-83470076D01*
X91369552Y-83587204D01*
X91441606Y-83789288D01*
X91510669Y-83983370D01*
X91576047Y-84167480D01*
X91637049Y-84339649D01*
X91692980Y-84497908D01*
X91743147Y-84640289D01*
X91786859Y-84764821D01*
X91823420Y-84869535D01*
X91852140Y-84952464D01*
X91872323Y-85011638D01*
X91883278Y-85045087D01*
X91885133Y-85051999D01*
X91878883Y-85075506D01*
X91862567Y-85117139D01*
X91841430Y-85164191D01*
X91780512Y-85259186D01*
X91690316Y-85350699D01*
X91572081Y-85438356D01*
X91427049Y-85521782D01*
X91256459Y-85600604D01*
X91061551Y-85674447D01*
X90843566Y-85742936D01*
X90603744Y-85805698D01*
X90343326Y-85862357D01*
X90063551Y-85912541D01*
X89765659Y-85955874D01*
X89450891Y-85991982D01*
X89120488Y-86020491D01*
X88970894Y-86030506D01*
X88898202Y-86033849D01*
X88800493Y-86036712D01*
X88683012Y-86039075D01*
X88551008Y-86040919D01*
X88409727Y-86042221D01*
X88264416Y-86042963D01*
X88120323Y-86043123D01*
X87982694Y-86042681D01*
X87856777Y-86041617D01*
X87747819Y-86039910D01*
X87661066Y-86037541D01*
X87621135Y-86035752D01*
X87278725Y-86011841D01*
X86948730Y-85979240D01*
X86632940Y-85938381D01*
X86333143Y-85889695D01*
X86051129Y-85833612D01*
X85788686Y-85770565D01*
X85547604Y-85700984D01*
X85329673Y-85625299D01*
X85136680Y-85543944D01*
X84970415Y-85457347D01*
X84832668Y-85365941D01*
X84828709Y-85362909D01*
X84733497Y-85275704D01*
X84665114Y-85182022D01*
X84630074Y-85100820D01*
X84627213Y-85090308D01*
X84625397Y-85078966D01*
X84625191Y-85065087D01*
X84627160Y-85046963D01*
X84631867Y-85022885D01*
X84639879Y-84991146D01*
X84651759Y-84950036D01*
X84668071Y-84897849D01*
X84689381Y-84832875D01*
X84716252Y-84753407D01*
X84749250Y-84657737D01*
X84788939Y-84544157D01*
X84835883Y-84410958D01*
X84890647Y-84256432D01*
X84953796Y-84078872D01*
X85025894Y-83876569D01*
X85107506Y-83647815D01*
X85145397Y-83541642D01*
X85231233Y-83301169D01*
X85307378Y-83087998D01*
X85374444Y-82900535D01*
X85433044Y-82737187D01*
X85483790Y-82596362D01*
X85527293Y-82476466D01*
X85564167Y-82375906D01*
X85595023Y-82293090D01*
X85620474Y-82226425D01*
X85641131Y-82174317D01*
X85657608Y-82135173D01*
X85670515Y-82107401D01*
X85680466Y-82089407D01*
X85688072Y-82079598D01*
X85693946Y-82076382D01*
X85698700Y-82078165D01*
X85702947Y-82083355D01*
X85704735Y-82086182D01*
X85763201Y-82158534D01*
X85848366Y-82231395D01*
X85956390Y-82302375D01*
X86083433Y-82369088D01*
X86225654Y-82429145D01*
X86297031Y-82454522D01*
X86535077Y-82524269D01*
X86797732Y-82583154D01*
X87080873Y-82631060D01*
X87380378Y-82667870D01*
X87692123Y-82693469D01*
X88011985Y-82707739D01*
X88335841Y-82710565D01*
X88659567Y-82701829D01*
X88979042Y-82681416D01*
X89290142Y-82649209D01*
X89588743Y-82605091D01*
X89845169Y-82554710D01*
X90053826Y-82502412D01*
X90240572Y-82443588D01*
X90403859Y-82378980D01*
X90542137Y-82309331D01*
X90653859Y-82235381D01*
X90737476Y-82157873D01*
X90773563Y-82109887D01*
X90817724Y-82040023D01*
X90835841Y-82091298D01*
G37*
G36*
X87780167Y-76207335D02*
G01*
X87803281Y-76227798D01*
X87833113Y-76247707D01*
X87882398Y-76270854D01*
X87940961Y-76292517D01*
X87946437Y-76294263D01*
X87998385Y-76309116D01*
X88047916Y-76319145D01*
X88103100Y-76325202D01*
X88172005Y-76328141D01*
X88262702Y-76328815D01*
X88273007Y-76328792D01*
X88421982Y-76323693D01*
X88541819Y-76309338D01*
X88632481Y-76285736D01*
X88693930Y-76252892D01*
X88699578Y-76248117D01*
X88723057Y-76232481D01*
X88737778Y-76240303D01*
X88739617Y-76243100D01*
X88746284Y-76259905D01*
X88762553Y-76303763D01*
X88787757Y-76372817D01*
X88821230Y-76465213D01*
X88862305Y-76579095D01*
X88910318Y-76712609D01*
X88964602Y-76863899D01*
X89024489Y-77031110D01*
X89089316Y-77212387D01*
X89158415Y-77405875D01*
X89231120Y-77609719D01*
X89306765Y-77822063D01*
X89330001Y-77887337D01*
X89908123Y-79511735D01*
X89881757Y-79567297D01*
X89836434Y-79629723D01*
X89762114Y-79688877D01*
X89660357Y-79744152D01*
X89532729Y-79794938D01*
X89380790Y-79840627D01*
X89206104Y-79880611D01*
X89010232Y-79914281D01*
X88979172Y-79918742D01*
X88920766Y-79925651D01*
X88841967Y-79933165D01*
X88748699Y-79940897D01*
X88646888Y-79948462D01*
X88542460Y-79955475D01*
X88441340Y-79961550D01*
X88349453Y-79966300D01*
X88272725Y-79969342D01*
X88217081Y-79970288D01*
X88196316Y-79969692D01*
X88170456Y-79968156D01*
X88120378Y-79965381D01*
X88052498Y-79961716D01*
X87973235Y-79957510D01*
X87943237Y-79955935D01*
X87721576Y-79939745D01*
X87514176Y-79915465D01*
X87322985Y-79883695D01*
X87149950Y-79845036D01*
X86997021Y-79800086D01*
X86866145Y-79749447D01*
X86759270Y-79693719D01*
X86678346Y-79633502D01*
X86625320Y-79569396D01*
X86613816Y-79546399D01*
X86610662Y-79537909D01*
X86608602Y-79528224D01*
X86608173Y-79515730D01*
X86609912Y-79498814D01*
X86614355Y-79475861D01*
X86622041Y-79445258D01*
X86633504Y-79405392D01*
X86649283Y-79354648D01*
X86669914Y-79291412D01*
X86695934Y-79214072D01*
X86727879Y-79121014D01*
X86766287Y-79010623D01*
X86811694Y-78881286D01*
X86864638Y-78731389D01*
X86925654Y-78559319D01*
X86995281Y-78363461D01*
X87074054Y-78142203D01*
X87162510Y-77893930D01*
X87177951Y-77850601D01*
X87254756Y-77635129D01*
X87328691Y-77427815D01*
X87399106Y-77230480D01*
X87465347Y-77044945D01*
X87526765Y-76873032D01*
X87582707Y-76716561D01*
X87632521Y-76577354D01*
X87675557Y-76457232D01*
X87711163Y-76358017D01*
X87738686Y-76281529D01*
X87757477Y-76229590D01*
X87766882Y-76204020D01*
X87767866Y-76201590D01*
X87780167Y-76207335D01*
G37*
D15*
%TO.C,MOD301*%
X44500000Y-84325000D02*
X41500000Y-84325000D01*
X44500000Y-85825000D02*
X44500000Y-84325000D01*
D16*
X40000000Y-86825000D02*
X46000000Y-86825000D01*
D15*
X41500000Y-85825000D02*
X44500000Y-85825000D01*
X41500000Y-84325000D02*
X41500000Y-85825000D01*
D16*
X46000000Y-83325000D02*
X40000000Y-83325000D01*
X38577000Y-83075000D02*
G75*
G03*
X38577000Y-83075000I-127000J0D01*
G01*
D11*
%TO.C,R3*%
X95345276Y-57627500D02*
X95854724Y-57627500D01*
X95345276Y-58672500D02*
X95854724Y-58672500D01*
%TO.C,R6*%
X103340000Y-77128733D02*
X103340000Y-77421267D01*
X104360000Y-77128733D02*
X104360000Y-77421267D01*
%TO.C,D302*%
X79785000Y-76345000D02*
X79785000Y-74875000D01*
X79785000Y-74875000D02*
X77325000Y-74875000D01*
X77325000Y-76345000D02*
X79785000Y-76345000D01*
%TO.C,C13*%
X90135000Y-70303733D02*
X90135000Y-70596267D01*
X89115000Y-70303733D02*
X89115000Y-70596267D01*
D14*
%TO.C,U9*%
X78700000Y-54150000D02*
X78700000Y-59200000D01*
X73650000Y-59200000D02*
X73700000Y-59200000D01*
X78650000Y-54150000D02*
X78700000Y-54150000D01*
X78650000Y-59200000D02*
X78700000Y-59200000D01*
X73650000Y-54150000D02*
X73650000Y-59200000D01*
X73650000Y-54150000D02*
X73700000Y-54150000D01*
D18*
X77950000Y-52825000D02*
G75*
G03*
X77950000Y-52825000I-125000J0D01*
G01*
D11*
%TO.C,C20*%
X34840000Y-55396267D02*
X34840000Y-55103733D01*
X35860000Y-55396267D02*
X35860000Y-55103733D01*
%TO.C,U10*%
X84140000Y-68160000D02*
X84790000Y-68160000D01*
X91360000Y-68160000D02*
X90710000Y-68160000D01*
X84140000Y-60940000D02*
X84790000Y-60940000D01*
X91360000Y-67510000D02*
X91360000Y-68160000D01*
X84140000Y-67510000D02*
X84140000Y-68160000D01*
X91360000Y-61590000D02*
X91360000Y-60940000D01*
X84140000Y-61590000D02*
X84140000Y-60940000D01*
%TO.C,L1*%
X28575000Y-73925000D02*
X28575000Y-73475000D01*
X28575000Y-67725000D02*
X28575000Y-68175000D01*
X34775000Y-73925000D02*
X34775000Y-73475000D01*
X28575000Y-67725000D02*
X34775000Y-67725000D01*
X34775000Y-73925000D02*
X28575000Y-73925000D01*
X34775000Y-67725000D02*
X34775000Y-68175000D01*
%TO.C,R104*%
X51139724Y-58122500D02*
X50630276Y-58122500D01*
X51139724Y-57077500D02*
X50630276Y-57077500D01*
%TO.C,D2*%
X27250001Y-55300000D02*
X31150001Y-55300000D01*
X27250001Y-55300000D02*
X27250001Y-57300000D01*
X27250001Y-57300000D02*
X31150001Y-57300000D01*
%TO.C,C23*%
X95535000Y-70303733D02*
X95535000Y-70596267D01*
X94515000Y-70303733D02*
X94515000Y-70596267D01*
D19*
%TO.C,U304*%
X28441418Y-57605000D02*
G75*
G03*
X28441418Y-57605000I-141419J0D01*
G01*
D11*
%TO.C,D301*%
X79812500Y-79665000D02*
X79812500Y-78195000D01*
X77352500Y-79665000D02*
X79812500Y-79665000D01*
X79812500Y-78195000D02*
X77352500Y-78195000D01*
%TO.C,C4*%
X80085000Y-54878733D02*
X80085000Y-55171267D01*
X79065000Y-54878733D02*
X79065000Y-55171267D01*
%TO.C,C6*%
X103440000Y-71603733D02*
X103440000Y-71896267D01*
X104460000Y-71603733D02*
X104460000Y-71896267D01*
%TO.C,C3*%
X33038748Y-64373041D02*
X33561252Y-64373041D01*
X33038748Y-65843041D02*
X33561252Y-65843041D01*
%TO.C,D308*%
X77335000Y-78015000D02*
X79795000Y-78015000D01*
X79795000Y-76545000D02*
X77335000Y-76545000D01*
X79795000Y-78015000D02*
X79795000Y-76545000D01*
%TO.C,R21*%
X81280276Y-76142500D02*
X81789724Y-76142500D01*
X81280276Y-75097500D02*
X81789724Y-75097500D01*
%TO.C,C17*%
X85090000Y-56435181D02*
X85090000Y-56142647D01*
X86110000Y-56435181D02*
X86110000Y-56142647D01*
%TO.C,R16*%
X61845276Y-65077500D02*
X62354724Y-65077500D01*
X61845276Y-66122500D02*
X62354724Y-66122500D01*
%TO.C,C19*%
X92000240Y-58710091D02*
X92000240Y-58417557D01*
X90980240Y-58710091D02*
X90980240Y-58417557D01*
%TO.C,C22*%
X54935000Y-52221267D02*
X54935000Y-51928733D01*
X53915000Y-52221267D02*
X53915000Y-51928733D01*
%TO.C,R91*%
X81250276Y-76747500D02*
X81759724Y-76747500D01*
X81250276Y-77792500D02*
X81759724Y-77792500D01*
%TO.C,R4*%
X95854724Y-59227500D02*
X95345276Y-59227500D01*
X95854724Y-60272500D02*
X95345276Y-60272500D01*
%TO.C,Y3*%
X76100000Y-68425000D02*
X80600000Y-68425000D01*
X80600000Y-68425000D02*
X80600000Y-63025000D01*
%TD*%
%LPC*%
D20*
%TO.C,Y2*%
X56000000Y-52750000D03*
X57750000Y-52750000D03*
X57750000Y-51350000D03*
X56000000Y-51350000D03*
%TD*%
D21*
%TO.C,U8*%
X72080000Y-52100000D03*
X70810000Y-52100000D03*
X69540000Y-52100000D03*
X68270000Y-52100000D03*
X67000000Y-52100000D03*
X65730000Y-52100000D03*
X64460000Y-52100000D03*
X63190000Y-52100000D03*
X61920000Y-52100000D03*
X61920000Y-61400000D03*
X63190000Y-61400000D03*
X64460000Y-61400000D03*
X65730000Y-61400000D03*
X67000000Y-61400000D03*
X68270000Y-61400000D03*
X69540000Y-61400000D03*
X70810000Y-61400000D03*
X72080000Y-61400000D03*
%TD*%
D22*
%TO.C,D1*%
X25425000Y-61150000D03*
X25425000Y-57850000D03*
%TD*%
D23*
%TO.C,U5*%
X60175000Y-55887500D03*
X59525000Y-55887500D03*
X58875000Y-55887500D03*
X58225000Y-55887500D03*
X57575000Y-55887500D03*
X56925000Y-55887500D03*
X56275000Y-55887500D03*
X55625000Y-55887500D03*
X54975000Y-55887500D03*
X54325000Y-55887500D03*
X54325000Y-61612500D03*
X54975000Y-61612500D03*
X55625000Y-61612500D03*
X56275000Y-61612500D03*
X56925000Y-61612500D03*
X57575000Y-61612500D03*
X58225000Y-61612500D03*
X58875000Y-61612500D03*
X59525000Y-61612500D03*
X60175000Y-61612500D03*
%TD*%
D24*
%TO.C,C15*%
X83125000Y-69587500D03*
X83125000Y-71312500D03*
%TD*%
D25*
%TO.C,R7*%
X96800000Y-78162500D03*
X96800000Y-76437500D03*
%TD*%
%TO.C,C21*%
X59150000Y-52937500D03*
X59150000Y-51212500D03*
%TD*%
D26*
%TO.C,PAU301*%
X39000000Y-79595000D03*
X47000000Y-79595000D03*
%TD*%
D27*
%TO.C,U7*%
X103893687Y-60987273D03*
X102623687Y-60987273D03*
X101353687Y-60987273D03*
X100083687Y-60987273D03*
X100083687Y-68187273D03*
X101353687Y-68187273D03*
X102623687Y-68187273D03*
X103893687Y-68187273D03*
%TD*%
D28*
%TO.C,C11*%
X46150000Y-63712500D03*
X46150000Y-65787500D03*
%TD*%
D29*
%TO.C,C16*%
X60862500Y-63750000D03*
X62937500Y-63750000D03*
%TD*%
D24*
%TO.C,C24*%
X86300000Y-69587500D03*
X86300000Y-71312500D03*
%TD*%
D30*
%TO.C,H304*%
X67000000Y-47000000D03*
%TD*%
D31*
%TO.C,R5*%
X81550000Y-67712500D03*
X81550000Y-69537500D03*
%TD*%
D32*
%TO.C,J2*%
X76499838Y-86127500D03*
X76499838Y-82527500D03*
X75229838Y-86127500D03*
X75229838Y-82527500D03*
X73959838Y-86127500D03*
X73959838Y-82527500D03*
X72689838Y-86127500D03*
X72689838Y-82527500D03*
X71419838Y-86127500D03*
X71419838Y-82527500D03*
X70149838Y-86127500D03*
X70149838Y-82527500D03*
X68879838Y-86127500D03*
X68879838Y-82527500D03*
X67609838Y-86127500D03*
X67609838Y-82527500D03*
X66339838Y-86127500D03*
X66339838Y-82527500D03*
X65069838Y-86127500D03*
X65069838Y-82527500D03*
X63799838Y-86127500D03*
X63799838Y-82527500D03*
X62529838Y-86127500D03*
X62529838Y-82527500D03*
X61259838Y-86127500D03*
X61259838Y-82527500D03*
X59989838Y-86127500D03*
X59989838Y-82527500D03*
X58719838Y-86127500D03*
X58719838Y-82527500D03*
X57449838Y-86127500D03*
X57449838Y-82527500D03*
D33*
X54924838Y-89239959D03*
D34*
X55018608Y-84240040D03*
D35*
X79074838Y-89277419D03*
D36*
X79062378Y-84252581D03*
%TD*%
D24*
%TO.C,C18*%
X95050000Y-65487500D03*
X95050000Y-67212500D03*
%TD*%
D37*
%TO.C,U2*%
X48280000Y-67275000D03*
X49550000Y-67275000D03*
X50820000Y-67275000D03*
X52090000Y-67275000D03*
X52090000Y-62325000D03*
X50820000Y-62325000D03*
X49550000Y-62325000D03*
X48280000Y-62325000D03*
%TD*%
D24*
%TO.C,C9*%
X84750000Y-69587500D03*
X84750000Y-71312500D03*
%TD*%
D38*
%TO.C,J5*%
X97780000Y-82095000D03*
D39*
X101336000Y-80190000D03*
X100320000Y-85270000D03*
D38*
X97780000Y-85270000D03*
X102860000Y-82095000D03*
X102860000Y-85270000D03*
D39*
X99304000Y-80190000D03*
D40*
X100955000Y-84000000D03*
X99685000Y-84000000D03*
X100955000Y-82730000D03*
X99685000Y-82730000D03*
X100955000Y-81460000D03*
X99685000Y-81460000D03*
%TD*%
D41*
%TO.C,C7*%
X78137500Y-62100000D03*
X79862500Y-62100000D03*
%TD*%
D42*
%TO.C,C5*%
X30062499Y-65108041D03*
X27987499Y-65108041D03*
%TD*%
D43*
%TO.C,R22*%
X80597500Y-78940000D03*
X82422500Y-78940000D03*
%TD*%
D41*
%TO.C,C8*%
X78137500Y-69524999D03*
X79862500Y-69524999D03*
%TD*%
D44*
%TO.C,J4*%
X84025000Y-45040000D03*
D45*
X88215000Y-45040000D03*
X92405000Y-45040000D03*
X96595000Y-45040000D03*
X100785000Y-45040000D03*
X104975000Y-45040000D03*
X104975000Y-51390000D03*
X100785000Y-51390000D03*
X96595000Y-51390000D03*
X92405000Y-51390000D03*
X88215000Y-51390000D03*
X84025000Y-51390000D03*
D44*
X49975000Y-51390000D03*
D45*
X45785000Y-51390000D03*
X41595000Y-51390000D03*
X37405000Y-51390000D03*
X33215000Y-51390000D03*
X29025000Y-51390000D03*
X29025000Y-45040000D03*
X33215000Y-45040000D03*
X37405000Y-45040000D03*
X41595000Y-45040000D03*
X45785000Y-45040000D03*
X49975000Y-45040000D03*
%TD*%
D24*
%TO.C,C14*%
X91225000Y-69587500D03*
X91225000Y-71312500D03*
%TD*%
%TO.C,C10*%
X96600000Y-65487500D03*
X96600000Y-67212500D03*
%TD*%
D46*
%TO.C,C2*%
X33500000Y-56387500D03*
X33500000Y-54312500D03*
%TD*%
D47*
%TO.C,R15*%
X48235000Y-59712500D03*
X48235000Y-57887500D03*
%TD*%
D24*
%TO.C,C12*%
X92750000Y-67312500D03*
X92750000Y-69037500D03*
%TD*%
D26*
%TO.C,MOD301*%
X39000000Y-85075000D03*
X47000000Y-85075000D03*
%TD*%
D43*
%TO.C,R3*%
X94687500Y-58150000D03*
X96512500Y-58150000D03*
%TD*%
D24*
%TO.C,R6*%
X103850000Y-76412500D03*
X103850000Y-78137500D03*
%TD*%
D48*
%TO.C,D302*%
X79000000Y-75610000D03*
X77250000Y-75610000D03*
%TD*%
D24*
%TO.C,C13*%
X89625000Y-69587500D03*
X89625000Y-71312500D03*
%TD*%
D49*
%TO.C,U9*%
X77775000Y-54225000D03*
X76175000Y-54225000D03*
X74575000Y-54225000D03*
X74575000Y-59125000D03*
X76175000Y-59125000D03*
X77775000Y-59125000D03*
%TD*%
D25*
%TO.C,C20*%
X35350000Y-56112500D03*
X35350000Y-54387500D03*
%TD*%
D50*
%TO.C,U10*%
X90350000Y-61112500D03*
X89950000Y-61112500D03*
X89550000Y-61112500D03*
X89150000Y-61112500D03*
X88750000Y-61112500D03*
X88350000Y-61112500D03*
X87950000Y-61112500D03*
X87550000Y-61112500D03*
X87150000Y-61112500D03*
X86750000Y-61112500D03*
X86350000Y-61112500D03*
X85950000Y-61112500D03*
X85550000Y-61112500D03*
X85150000Y-61112500D03*
D51*
X84312500Y-61950000D03*
X84312500Y-62350000D03*
X84312500Y-62750000D03*
X84312500Y-63150000D03*
X84312500Y-63550000D03*
X84312500Y-63950000D03*
X84312500Y-64350000D03*
X84312500Y-64750000D03*
X84312500Y-65150000D03*
X84312500Y-65550000D03*
X84312500Y-65950000D03*
X84312500Y-66350000D03*
X84312500Y-66750000D03*
X84312500Y-67150000D03*
D50*
X85150000Y-67987500D03*
X85550000Y-67987500D03*
X85950000Y-67987500D03*
X86350000Y-67987500D03*
X86750000Y-67987500D03*
X87150000Y-67987500D03*
X87550000Y-67987500D03*
X87950000Y-67987500D03*
X88350000Y-67987500D03*
X88750000Y-67987500D03*
X89150000Y-67987500D03*
X89550000Y-67987500D03*
X89950000Y-67987500D03*
X90350000Y-67987500D03*
D51*
X91187500Y-67150000D03*
X91187500Y-66750000D03*
X91187500Y-66350000D03*
X91187500Y-65950000D03*
X91187500Y-65550000D03*
X91187500Y-65150000D03*
X91187500Y-64750000D03*
X91187500Y-64350000D03*
X91187500Y-63950000D03*
X91187500Y-63550000D03*
X91187500Y-63150000D03*
X91187500Y-62750000D03*
X91187500Y-62350000D03*
X91187500Y-61950000D03*
D52*
X87750000Y-64550000D03*
%TD*%
D53*
%TO.C,L1*%
X29600000Y-70825000D03*
X33750000Y-70825000D03*
%TD*%
D54*
%TO.C,R104*%
X51797500Y-57600000D03*
X49972500Y-57600000D03*
%TD*%
D55*
%TO.C,D2*%
X27850001Y-56300000D03*
X31150001Y-56300000D03*
%TD*%
D24*
%TO.C,C23*%
X95025000Y-69587500D03*
X95025000Y-71312500D03*
%TD*%
D56*
%TO.C,U304*%
X28499999Y-58600000D03*
X28499999Y-59870000D03*
X28499999Y-61140000D03*
X28499999Y-62410000D03*
X33699999Y-62410000D03*
X33699999Y-61140000D03*
X33699999Y-59870000D03*
X33699999Y-58600000D03*
%TD*%
D48*
%TO.C,D301*%
X79027500Y-78930000D03*
X77277500Y-78930000D03*
%TD*%
D30*
%TO.C,H302*%
X67000000Y-74000000D03*
%TD*%
D24*
%TO.C,C4*%
X79575000Y-54162500D03*
X79575000Y-55887500D03*
%TD*%
%TO.C,C6*%
X103950000Y-70887500D03*
X103950000Y-72612500D03*
%TD*%
D29*
%TO.C,C3*%
X32262500Y-65108041D03*
X34337500Y-65108041D03*
%TD*%
D48*
%TO.C,D308*%
X79010000Y-77280000D03*
X77260000Y-77280000D03*
%TD*%
D43*
%TO.C,R21*%
X80622500Y-75620000D03*
X82447500Y-75620000D03*
%TD*%
D25*
%TO.C,C17*%
X85600000Y-57151414D03*
X85600000Y-55426414D03*
%TD*%
D43*
%TO.C,R16*%
X61187500Y-65600000D03*
X63012500Y-65600000D03*
%TD*%
D25*
%TO.C,C19*%
X91490240Y-59426324D03*
X91490240Y-57701324D03*
%TD*%
%TO.C,C22*%
X54425000Y-52937500D03*
X54425000Y-51212500D03*
%TD*%
D43*
%TO.C,R91*%
X80592500Y-77270000D03*
X82417500Y-77270000D03*
%TD*%
D54*
%TO.C,R4*%
X96512500Y-59750000D03*
X94687500Y-59750000D03*
%TD*%
D57*
%TO.C,Y3*%
X79500000Y-67175000D03*
X79500000Y-64275000D03*
X77200000Y-64275000D03*
X77200000Y-67175000D03*
%TD*%
M02*
