%TF.GenerationSoftware,KiCad,Pcbnew,(6.0.2)*%
%TF.CreationDate,2022-04-22T14:27:02-06:00*%
%TF.ProjectId,CONEPROJ,434f4e45-5052-44f4-9a2e-6b696361645f,rev?*%
%TF.SameCoordinates,Original*%
%TF.FileFunction,Paste,Top*%
%TF.FilePolarity,Positive*%
%FSLAX46Y46*%
G04 Gerber Fmt 4.6, Leading zero omitted, Abs format (unit mm)*
G04 Created by KiCad (PCBNEW (6.0.2)) date 2022-04-22 14:27:02*
%MOMM*%
%LPD*%
G01*
G04 APERTURE LIST*
G04 Aperture macros list*
%AMRoundRect*
0 Rectangle with rounded corners*
0 $1 Rounding radius*
0 $2 $3 $4 $5 $6 $7 $8 $9 X,Y pos of 4 corners*
0 Add a 4 corners polygon primitive as box body*
4,1,4,$2,$3,$4,$5,$6,$7,$8,$9,$2,$3,0*
0 Add four circle primitives for the rounded corners*
1,1,$1+$1,$2,$3*
1,1,$1+$1,$4,$5*
1,1,$1+$1,$6,$7*
1,1,$1+$1,$8,$9*
0 Add four rect primitives between the rounded corners*
20,1,$1+$1,$2,$3,$4,$5,0*
20,1,$1+$1,$4,$5,$6,$7,0*
20,1,$1+$1,$6,$7,$8,$9,0*
20,1,$1+$1,$8,$9,$2,$3,0*%
G04 Aperture macros list end*
%ADD10R,1.150000X1.000000*%
%ADD11RoundRect,0.150000X-0.150000X0.875000X-0.150000X-0.875000X0.150000X-0.875000X0.150000X0.875000X0*%
%ADD12R,1.200000X0.900000*%
%ADD13RoundRect,0.100000X-0.100000X0.637500X-0.100000X-0.637500X0.100000X-0.637500X0.100000X0.637500X0*%
%ADD14RoundRect,0.237500X-0.237500X0.300000X-0.237500X-0.300000X0.237500X-0.300000X0.237500X0.300000X0*%
%ADD15RoundRect,0.237500X0.237500X-0.300000X0.237500X0.300000X-0.237500X0.300000X-0.237500X-0.300000X0*%
%ADD16R,2.000000X2.000000*%
%ADD17RoundRect,0.150000X-0.150000X0.650000X-0.150000X-0.650000X0.150000X-0.650000X0.150000X0.650000X0*%
%ADD18RoundRect,0.250000X-0.475000X0.337500X-0.475000X-0.337500X0.475000X-0.337500X0.475000X0.337500X0*%
%ADD19RoundRect,0.250000X-0.337500X-0.475000X0.337500X-0.475000X0.337500X0.475000X-0.337500X0.475000X0*%
%ADD20RoundRect,0.237500X-0.237500X0.250000X-0.237500X-0.250000X0.237500X-0.250000X0.237500X0.250000X0*%
%ADD21R,0.750000X3.000000*%
%ADD22RoundRect,0.443770X-0.443770X0.893770X-0.443770X-0.893770X0.443770X-0.893770X0.443770X0.893770X0*%
%ADD23RoundRect,0.396885X-0.396885X1.015655X-0.396885X-1.015655X0.396885X-1.015655X0.396885X1.015655X0*%
%ADD24RoundRect,0.412540X-0.412540X0.887541X-0.412540X-0.887541X0.412540X-0.887541X0.412540X0.887541X0*%
%ADD25RoundRect,0.418770X-0.418770X1.006311X-0.418770X-1.006311X0.418770X-1.006311X0.418770X1.006311X0*%
%ADD26RoundRect,0.150000X0.150000X-0.825000X0.150000X0.825000X-0.150000X0.825000X-0.150000X-0.825000X0*%
%ADD27RoundRect,0.237500X-0.300000X-0.237500X0.300000X-0.237500X0.300000X0.237500X-0.300000X0.237500X0*%
%ADD28RoundRect,0.250000X0.337500X0.475000X-0.337500X0.475000X-0.337500X-0.475000X0.337500X-0.475000X0*%
%ADD29RoundRect,0.237500X-0.250000X-0.237500X0.250000X-0.237500X0.250000X0.237500X-0.250000X0.237500X0*%
%ADD30RoundRect,0.250000X0.475000X-0.337500X0.475000X0.337500X-0.475000X0.337500X-0.475000X-0.337500X0*%
%ADD31RoundRect,0.237500X0.237500X-0.250000X0.237500X0.250000X-0.237500X0.250000X-0.237500X-0.250000X0*%
%ADD32RoundRect,0.237500X0.287500X0.237500X-0.287500X0.237500X-0.287500X-0.237500X0.287500X-0.237500X0*%
%ADD33R,1.000000X1.500000*%
%ADD34RoundRect,0.250000X-0.292217X0.292217X-0.292217X-0.292217X0.292217X-0.292217X0.292217X0.292217X0*%
%ADD35RoundRect,0.050000X-0.050000X0.387500X-0.050000X-0.387500X0.050000X-0.387500X0.050000X0.387500X0*%
%ADD36RoundRect,0.050000X-0.387500X0.050000X-0.387500X-0.050000X0.387500X-0.050000X0.387500X0.050000X0*%
%ADD37R,2.350000X5.100000*%
%ADD38RoundRect,0.237500X0.250000X0.237500X-0.250000X0.237500X-0.250000X-0.237500X0.250000X-0.237500X0*%
%ADD39R,0.900000X1.200000*%
%ADD40R,2.200000X0.600000*%
%ADD41R,1.800000X2.100000*%
G04 APERTURE END LIST*
D10*
%TO.C,Y2*%
X56000000Y-52750000D03*
X57750000Y-52750000D03*
X57750000Y-51350000D03*
X56000000Y-51350000D03*
%TD*%
D11*
%TO.C,U8*%
X72080000Y-52100000D03*
X70810000Y-52100000D03*
X69540000Y-52100000D03*
X68270000Y-52100000D03*
X67000000Y-52100000D03*
X65730000Y-52100000D03*
X64460000Y-52100000D03*
X63190000Y-52100000D03*
X61920000Y-52100000D03*
X61920000Y-61400000D03*
X63190000Y-61400000D03*
X64460000Y-61400000D03*
X65730000Y-61400000D03*
X67000000Y-61400000D03*
X68270000Y-61400000D03*
X69540000Y-61400000D03*
X70810000Y-61400000D03*
X72080000Y-61400000D03*
%TD*%
D12*
%TO.C,D1*%
X25425000Y-61150000D03*
X25425000Y-57850000D03*
%TD*%
D13*
%TO.C,U5*%
X60175000Y-55887500D03*
X59525000Y-55887500D03*
X58875000Y-55887500D03*
X58225000Y-55887500D03*
X57575000Y-55887500D03*
X56925000Y-55887500D03*
X56275000Y-55887500D03*
X55625000Y-55887500D03*
X54975000Y-55887500D03*
X54325000Y-55887500D03*
X54325000Y-61612500D03*
X54975000Y-61612500D03*
X55625000Y-61612500D03*
X56275000Y-61612500D03*
X56925000Y-61612500D03*
X57575000Y-61612500D03*
X58225000Y-61612500D03*
X58875000Y-61612500D03*
X59525000Y-61612500D03*
X60175000Y-61612500D03*
%TD*%
D14*
%TO.C,C15*%
X83125000Y-69587500D03*
X83125000Y-71312500D03*
%TD*%
D15*
%TO.C,R7*%
X96800000Y-78162500D03*
X96800000Y-76437500D03*
%TD*%
%TO.C,C21*%
X59150000Y-52937500D03*
X59150000Y-51212500D03*
%TD*%
D16*
%TO.C,PAU301*%
X39000000Y-79595000D03*
X47000000Y-79595000D03*
%TD*%
D17*
%TO.C,U7*%
X103893687Y-60987273D03*
X102623687Y-60987273D03*
X101353687Y-60987273D03*
X100083687Y-60987273D03*
X100083687Y-68187273D03*
X101353687Y-68187273D03*
X102623687Y-68187273D03*
X103893687Y-68187273D03*
%TD*%
D18*
%TO.C,C11*%
X46150000Y-63712500D03*
X46150000Y-65787500D03*
%TD*%
D19*
%TO.C,C16*%
X60862500Y-63750000D03*
X62937500Y-63750000D03*
%TD*%
D14*
%TO.C,C24*%
X86300000Y-69587500D03*
X86300000Y-71312500D03*
%TD*%
D20*
%TO.C,R5*%
X81550000Y-67712500D03*
X81550000Y-69537500D03*
%TD*%
D21*
%TO.C,J2*%
X76499838Y-86127500D03*
X76499838Y-82527500D03*
X75229838Y-86127500D03*
X75229838Y-82527500D03*
X73959838Y-86127500D03*
X73959838Y-82527500D03*
X72689838Y-86127500D03*
X72689838Y-82527500D03*
X71419838Y-86127500D03*
X71419838Y-82527500D03*
X70149838Y-86127500D03*
X70149838Y-82527500D03*
X68879838Y-86127500D03*
X68879838Y-82527500D03*
X67609838Y-86127500D03*
X67609838Y-82527500D03*
X66339838Y-86127500D03*
X66339838Y-82527500D03*
X65069838Y-86127500D03*
X65069838Y-82527500D03*
X63799838Y-86127500D03*
X63799838Y-82527500D03*
X62529838Y-86127500D03*
X62529838Y-82527500D03*
X61259838Y-86127500D03*
X61259838Y-82527500D03*
X59989838Y-86127500D03*
X59989838Y-82527500D03*
X58719838Y-86127500D03*
X58719838Y-82527500D03*
X57449838Y-86127500D03*
X57449838Y-82527500D03*
D22*
X54924838Y-89239959D03*
D23*
X55018608Y-84240040D03*
D24*
X79074838Y-89277419D03*
D25*
X79062378Y-84252581D03*
%TD*%
D14*
%TO.C,C18*%
X95050000Y-65487500D03*
X95050000Y-67212500D03*
%TD*%
D26*
%TO.C,U2*%
X48280000Y-67275000D03*
X49550000Y-67275000D03*
X50820000Y-67275000D03*
X52090000Y-67275000D03*
X52090000Y-62325000D03*
X50820000Y-62325000D03*
X49550000Y-62325000D03*
X48280000Y-62325000D03*
%TD*%
D14*
%TO.C,C9*%
X84750000Y-69587500D03*
X84750000Y-71312500D03*
%TD*%
D27*
%TO.C,C7*%
X78137500Y-62100000D03*
X79862500Y-62100000D03*
%TD*%
D28*
%TO.C,C5*%
X30062499Y-65108041D03*
X27987499Y-65108041D03*
%TD*%
D29*
%TO.C,R22*%
X80597500Y-78940000D03*
X82422500Y-78940000D03*
%TD*%
D27*
%TO.C,C8*%
X78137500Y-69524999D03*
X79862500Y-69524999D03*
%TD*%
D14*
%TO.C,C14*%
X91225000Y-69587500D03*
X91225000Y-71312500D03*
%TD*%
%TO.C,C10*%
X96600000Y-65487500D03*
X96600000Y-67212500D03*
%TD*%
D30*
%TO.C,C2*%
X33500000Y-56387500D03*
X33500000Y-54312500D03*
%TD*%
D31*
%TO.C,R15*%
X48235000Y-59712500D03*
X48235000Y-57887500D03*
%TD*%
D14*
%TO.C,C12*%
X92750000Y-67312500D03*
X92750000Y-69037500D03*
%TD*%
D16*
%TO.C,MOD301*%
X39000000Y-85075000D03*
X47000000Y-85075000D03*
%TD*%
D29*
%TO.C,R3*%
X94687500Y-58150000D03*
X96512500Y-58150000D03*
%TD*%
D14*
%TO.C,R6*%
X103850000Y-76412500D03*
X103850000Y-78137500D03*
%TD*%
D32*
%TO.C,D302*%
X79000000Y-75610000D03*
X77250000Y-75610000D03*
%TD*%
D14*
%TO.C,C13*%
X89625000Y-69587500D03*
X89625000Y-71312500D03*
%TD*%
D33*
%TO.C,U9*%
X77775000Y-54225000D03*
X76175000Y-54225000D03*
X74575000Y-54225000D03*
X74575000Y-59125000D03*
X76175000Y-59125000D03*
X77775000Y-59125000D03*
%TD*%
D15*
%TO.C,C20*%
X35350000Y-56112500D03*
X35350000Y-54387500D03*
%TD*%
D34*
%TO.C,U10*%
X88387500Y-65187500D03*
X88387500Y-63912500D03*
X87112500Y-65187500D03*
X87112500Y-63912500D03*
D35*
X90350000Y-61112500D03*
X89950000Y-61112500D03*
X89550000Y-61112500D03*
X89150000Y-61112500D03*
X88750000Y-61112500D03*
X88350000Y-61112500D03*
X87950000Y-61112500D03*
X87550000Y-61112500D03*
X87150000Y-61112500D03*
X86750000Y-61112500D03*
X86350000Y-61112500D03*
X85950000Y-61112500D03*
X85550000Y-61112500D03*
X85150000Y-61112500D03*
D36*
X84312500Y-61950000D03*
X84312500Y-62350000D03*
X84312500Y-62750000D03*
X84312500Y-63150000D03*
X84312500Y-63550000D03*
X84312500Y-63950000D03*
X84312500Y-64350000D03*
X84312500Y-64750000D03*
X84312500Y-65150000D03*
X84312500Y-65550000D03*
X84312500Y-65950000D03*
X84312500Y-66350000D03*
X84312500Y-66750000D03*
X84312500Y-67150000D03*
D35*
X85150000Y-67987500D03*
X85550000Y-67987500D03*
X85950000Y-67987500D03*
X86350000Y-67987500D03*
X86750000Y-67987500D03*
X87150000Y-67987500D03*
X87550000Y-67987500D03*
X87950000Y-67987500D03*
X88350000Y-67987500D03*
X88750000Y-67987500D03*
X89150000Y-67987500D03*
X89550000Y-67987500D03*
X89950000Y-67987500D03*
X90350000Y-67987500D03*
D36*
X91187500Y-67150000D03*
X91187500Y-66750000D03*
X91187500Y-66350000D03*
X91187500Y-65950000D03*
X91187500Y-65550000D03*
X91187500Y-65150000D03*
X91187500Y-64750000D03*
X91187500Y-64350000D03*
X91187500Y-63950000D03*
X91187500Y-63550000D03*
X91187500Y-63150000D03*
X91187500Y-62750000D03*
X91187500Y-62350000D03*
X91187500Y-61950000D03*
%TD*%
D37*
%TO.C,L1*%
X29600000Y-70825000D03*
X33750000Y-70825000D03*
%TD*%
D38*
%TO.C,R104*%
X51797500Y-57600000D03*
X49972500Y-57600000D03*
%TD*%
D39*
%TO.C,D2*%
X27850001Y-56300000D03*
X31150001Y-56300000D03*
%TD*%
D14*
%TO.C,C23*%
X95025000Y-69587500D03*
X95025000Y-71312500D03*
%TD*%
D40*
%TO.C,U304*%
X28499999Y-58600000D03*
X28499999Y-59870000D03*
X28499999Y-61140000D03*
X28499999Y-62410000D03*
X33699999Y-62410000D03*
X33699999Y-61140000D03*
X33699999Y-59870000D03*
X33699999Y-58600000D03*
%TD*%
D32*
%TO.C,D301*%
X79027500Y-78930000D03*
X77277500Y-78930000D03*
%TD*%
D14*
%TO.C,C4*%
X79575000Y-54162500D03*
X79575000Y-55887500D03*
%TD*%
%TO.C,C6*%
X103950000Y-70887500D03*
X103950000Y-72612500D03*
%TD*%
D19*
%TO.C,C3*%
X32262500Y-65108041D03*
X34337500Y-65108041D03*
%TD*%
D32*
%TO.C,D308*%
X79010000Y-77280000D03*
X77260000Y-77280000D03*
%TD*%
D29*
%TO.C,R21*%
X80622500Y-75620000D03*
X82447500Y-75620000D03*
%TD*%
D15*
%TO.C,C17*%
X85600000Y-57151414D03*
X85600000Y-55426414D03*
%TD*%
D29*
%TO.C,R16*%
X61187500Y-65600000D03*
X63012500Y-65600000D03*
%TD*%
D15*
%TO.C,C19*%
X91490240Y-59426324D03*
X91490240Y-57701324D03*
%TD*%
%TO.C,C22*%
X54425000Y-52937500D03*
X54425000Y-51212500D03*
%TD*%
D29*
%TO.C,R91*%
X80592500Y-77270000D03*
X82417500Y-77270000D03*
%TD*%
D38*
%TO.C,R4*%
X96512500Y-59750000D03*
X94687500Y-59750000D03*
%TD*%
D41*
%TO.C,Y3*%
X79500000Y-67175000D03*
X79500000Y-64275000D03*
X77200000Y-64275000D03*
X77200000Y-67175000D03*
%TD*%
M02*
