%TF.GenerationSoftware,KiCad,Pcbnew,(6.0.2)*%
%TF.CreationDate,2022-04-22T14:27:02-06:00*%
%TF.ProjectId,CONEPROJ,434f4e45-5052-44f4-9a2e-6b696361645f,rev?*%
%TF.SameCoordinates,Original*%
%TF.FileFunction,Profile,NP*%
%FSLAX46Y46*%
G04 Gerber Fmt 4.6, Leading zero omitted, Abs format (unit mm)*
G04 Created by KiCad (PCBNEW (6.0.2)) date 2022-04-22 14:27:02*
%MOMM*%
%LPD*%
G01*
G04 APERTURE LIST*
%TA.AperFunction,Profile*%
%ADD10C,0.050000*%
%TD*%
%TA.AperFunction,Profile*%
%ADD11C,0.120000*%
%TD*%
G04 APERTURE END LIST*
D10*
X78000000Y-92000000D02*
X79000000Y-92500000D01*
X110000000Y-43000000D02*
X110000000Y-92000000D01*
X25000000Y-42000000D02*
G75*
G03*
X24000000Y-43000000I-1J-999999D01*
G01*
X25000001Y-92439999D02*
X55000000Y-92500000D01*
X25000000Y-42000000D02*
X109000000Y-42000000D01*
X79000000Y-92500000D02*
X109500000Y-92500000D01*
X55000000Y-92500000D02*
X55500000Y-92000000D01*
X24000001Y-91439999D02*
G75*
G03*
X25000001Y-92439999I999999J-1D01*
G01*
X109500000Y-92500000D02*
G75*
G03*
X110000000Y-92000000I-1J500001D01*
G01*
X110000000Y-43000000D02*
G75*
G03*
X109000000Y-42000000I-999999J1D01*
G01*
X55500000Y-92000000D02*
X78000000Y-92000000D01*
X24000001Y-91439999D02*
X24000000Y-43000000D01*
D11*
%TO.C,J2*%
X78024838Y-86577500D02*
X78024838Y-87127500D01*
X79524838Y-86577500D02*
X79524838Y-87127500D01*
X56024838Y-86527500D02*
X56024838Y-87077500D01*
X54524838Y-86527500D02*
X54524838Y-87077500D01*
X54524838Y-87077500D02*
G75*
G03*
X56024838Y-87077500I750000J0D01*
G01*
X56024838Y-86527500D02*
G75*
G03*
X54524838Y-86527500I-750000J0D01*
G01*
X79524838Y-86577500D02*
G75*
G03*
X78024838Y-86577500I-750000J0D01*
G01*
X78024838Y-87127500D02*
G75*
G03*
X79524838Y-87127500I750000J0D01*
G01*
%TD*%
M02*
