%TF.GenerationSoftware,KiCad,Pcbnew,(6.0.2)*%
%TF.CreationDate,2022-04-22T14:27:02-06:00*%
%TF.ProjectId,CONEPROJ,434f4e45-5052-44f4-9a2e-6b696361645f,rev?*%
%TF.SameCoordinates,Original*%
%TF.FileFunction,Copper,L2,Inr*%
%TF.FilePolarity,Positive*%
%FSLAX46Y46*%
G04 Gerber Fmt 4.6, Leading zero omitted, Abs format (unit mm)*
G04 Created by KiCad (PCBNEW (6.0.2)) date 2022-04-22 14:27:02*
%MOMM*%
%LPD*%
G01*
G04 APERTURE LIST*
%TA.AperFunction,ComponentPad*%
%ADD10C,5.600000*%
%TD*%
%TA.AperFunction,ComponentPad*%
%ADD11R,2.056000X2.056000*%
%TD*%
%TA.AperFunction,ComponentPad*%
%ADD12C,2.056000*%
%TD*%
%TA.AperFunction,ComponentPad*%
%ADD13C,0.600000*%
%TD*%
%TA.AperFunction,ViaPad*%
%ADD14C,0.800000*%
%TD*%
%TA.AperFunction,ViaPad*%
%ADD15C,0.450000*%
%TD*%
G04 APERTURE END LIST*
D10*
%TO.N,GND*%
%TO.C,H304*%
X67000000Y-47000000D03*
%TD*%
D11*
%TO.N,/GPO_1_OUT*%
%TO.C,J4*%
X84025000Y-45040000D03*
D12*
%TO.N,/GPO_2_OUT*%
X88215000Y-45040000D03*
%TO.N,/GPO_3_OUT*%
X92405000Y-45040000D03*
%TO.N,/GPO_4_OUT*%
X96595000Y-45040000D03*
%TO.N,/GPO_5_OUT*%
X100785000Y-45040000D03*
%TO.N,/GPO_6_OUT*%
X104975000Y-45040000D03*
%TO.N,/GPO_7_OUT*%
X104975000Y-51390000D03*
%TO.N,/GPO_8_OUT*%
X100785000Y-51390000D03*
%TO.N,/GPO_9_OUT*%
X96595000Y-51390000D03*
%TO.N,/R_OUT*%
X92405000Y-51390000D03*
%TO.N,/G_OUT*%
X88215000Y-51390000D03*
%TO.N,/B_OUT*%
X84025000Y-51390000D03*
D11*
%TO.N,/CANL*%
X49975000Y-51390000D03*
D12*
%TO.N,/CANH*%
X45785000Y-51390000D03*
%TO.N,/LEDA_OUT*%
X41595000Y-51390000D03*
%TO.N,/EXT_IO4*%
X37405000Y-51390000D03*
%TO.N,+5V*%
X33215000Y-51390000D03*
%TO.N,/EXT_12V*%
X29025000Y-51390000D03*
%TO.N,GND*%
X29025000Y-45040000D03*
%TO.N,/EXT_IO5*%
X33215000Y-45040000D03*
%TO.N,/EXT_I2C_SDA*%
X37405000Y-45040000D03*
%TO.N,/EXT_I2C_SCL*%
X41595000Y-45040000D03*
%TO.N,/EXT_UART_TX*%
X45785000Y-45040000D03*
%TO.N,/EXT_UART_RX*%
X49975000Y-45040000D03*
%TD*%
D13*
%TO.N,GND*%
%TO.C,U10*%
X87750000Y-64550000D03*
X89025000Y-65825000D03*
X86475000Y-64550000D03*
X86475000Y-63275000D03*
X89025000Y-64550000D03*
X87750000Y-65825000D03*
X89025000Y-63275000D03*
X87750000Y-63275000D03*
X86475000Y-65825000D03*
%TD*%
D10*
%TO.N,GND*%
%TO.C,H302*%
X67000000Y-74000000D03*
%TD*%
D14*
%TO.N,+5V*%
X36500000Y-69500000D03*
X76525000Y-90550000D03*
X30300000Y-63350000D03*
X75175000Y-90550000D03*
X76475000Y-89350000D03*
X36500000Y-68000000D03*
X75349992Y-89324992D03*
D15*
%TO.N,/LEDG*%
X86825000Y-54250000D03*
%TO.N,/LEDR*%
X87450000Y-54250000D03*
D14*
%TO.N,/EXT_UART_RX*%
X73975000Y-88200000D03*
X43000000Y-69500000D03*
%TO.N,/EXT_UART_TX*%
X43000000Y-70450000D03*
X72675000Y-88200000D03*
D15*
%TO.N,/LEDB*%
X86200000Y-54250000D03*
D14*
%TO.N,/CAN_TX*%
X71425000Y-90600000D03*
X53775000Y-64950000D03*
%TO.N,/CAN_RX*%
X70150000Y-90600000D03*
X53150000Y-63850000D03*
D15*
%TO.N,/GPO_1*%
X80530000Y-54950000D03*
%TO.N,/GPO_2*%
X81130000Y-54950000D03*
%TO.N,/GPO_3*%
X81730000Y-54950000D03*
%TO.N,/GPO_4*%
X83920000Y-55030000D03*
%TO.N,+3V3*%
X88400000Y-69275000D03*
D14*
X67675000Y-90600000D03*
X46150000Y-62100000D03*
X68875000Y-88200000D03*
D15*
X104900000Y-72600000D03*
X95025000Y-68475000D03*
X88400000Y-70125000D03*
X87450000Y-69275000D03*
X87450000Y-70125000D03*
D14*
X77600000Y-82500000D03*
D15*
X90500000Y-58500000D03*
D14*
X68875000Y-90600000D03*
X66350000Y-88200000D03*
X82800011Y-64949500D03*
X67650000Y-88200000D03*
X66350000Y-90625000D03*
X75320000Y-63270000D03*
D15*
X85700000Y-58100000D03*
D14*
X32950000Y-79550000D03*
D15*
%TO.N,GND*%
X95725000Y-68475000D03*
X92250000Y-58500000D03*
D14*
X25450000Y-56300000D03*
D15*
X85600000Y-54250000D03*
D14*
X39000000Y-76975000D03*
X53050000Y-88300000D03*
X98875000Y-62975000D03*
X46200000Y-60550000D03*
X55225000Y-54025000D03*
X80710000Y-74090000D03*
X53050000Y-87150000D03*
X89750000Y-75325000D03*
X28000000Y-63500000D03*
X98300000Y-62200000D03*
X76275000Y-69525000D03*
X52950000Y-54400000D03*
X97825000Y-75300000D03*
X100750000Y-75275000D03*
X79580000Y-59250000D03*
X32850000Y-85250000D03*
X103325000Y-75275000D03*
X36200000Y-58600000D03*
X52950000Y-75350000D03*
X95275000Y-75325000D03*
X30800000Y-54400000D03*
X76175000Y-60600000D03*
D15*
X81910000Y-63340000D03*
D14*
X105275000Y-58275000D03*
X56025000Y-50225000D03*
X44850000Y-65800000D03*
X38650000Y-87500000D03*
D15*
X102625000Y-72600000D03*
D14*
X92300000Y-75325000D03*
X63980000Y-63780000D03*
X105100000Y-79300000D03*
X60700000Y-51300000D03*
X97775000Y-62975000D03*
D15*
%TO.N,/GPO_6*%
X82350000Y-54940000D03*
%TO.N,/MCP_RESET*%
X59525000Y-66700000D03*
X63000000Y-66700000D03*
D14*
X59541734Y-63631115D03*
X70825500Y-63160000D03*
D15*
%TO.N,/GPO_7*%
X89275000Y-54250000D03*
%TO.N,/GPO_8*%
X88650000Y-54250000D03*
%TO.N,/GPO_9*%
X88050000Y-54250000D03*
D14*
%TO.N,VCC*%
X36600000Y-56300000D03*
X33500000Y-56300000D03*
X76150000Y-50250000D03*
%TO.N,/LEDA_OUT*%
X74600000Y-46100000D03*
%TO.N,/GPO_6_OUT*%
X108850000Y-71700000D03*
%TO.N,/GPO_4_OUT*%
X106650000Y-71650000D03*
%TO.N,/GPO_5_OUT*%
X107750000Y-71675000D03*
D15*
%TO.N,+1V1*%
X84600000Y-59800000D03*
X84790000Y-68670000D03*
D14*
%TO.N,/EXT_IO4*%
X58700000Y-88300000D03*
X44300000Y-74200000D03*
%TO.N,/EXT_IO5*%
X57500000Y-88300000D03*
X44300000Y-73300000D03*
D15*
%TO.N,/GPO_12*%
X83200000Y-55000000D03*
D14*
%TO.N,/MODE_BTN*%
X58750000Y-78500000D03*
X65075000Y-90625000D03*
%TO.N,/PAUSE_BTN*%
X63825000Y-90625000D03*
X54750000Y-74250000D03*
%TO.N,/EXT_I2C_SDA*%
X43000000Y-72350000D03*
X73110000Y-71740000D03*
X71730000Y-64060000D03*
D15*
X87250000Y-58150000D03*
%TO.N,/EXT_I2C_SCL*%
X88110000Y-58150000D03*
D14*
X43000000Y-71400000D03*
X70830153Y-64059491D03*
X72180000Y-70810000D03*
%TO.N,/EXT_12V*%
X31800000Y-62200000D03*
X60000000Y-90600000D03*
X31800000Y-61050000D03*
X31800000Y-63350000D03*
X31800000Y-59850000D03*
X61300000Y-90600000D03*
X62575989Y-90600000D03*
%TO.N,/EXT_IO1*%
X60000000Y-88300000D03*
%TO.N,/EXT_IO2*%
X57420000Y-80330000D03*
D15*
%TO.N,/EXT_IO3*%
X82830000Y-62910000D03*
D14*
X64540000Y-67200000D03*
X56347189Y-66984474D03*
%TO.N,/EXT_SPI_MISO*%
X62530000Y-78500000D03*
X68150000Y-64500000D03*
D15*
X82820000Y-66150000D03*
D14*
X58199500Y-64915500D03*
%TO.N,/EXT_SPI_MOSI*%
X61250000Y-78500000D03*
X67030000Y-65540000D03*
X57570000Y-65665500D03*
D15*
X82830000Y-67670000D03*
D14*
%TO.N,/EXT_SPI_SCK*%
X65600000Y-66290000D03*
X56944588Y-66312002D03*
X60000000Y-78500000D03*
D15*
X82830000Y-68400000D03*
D14*
%TO.N,/EXT_SPI_SS0*%
X58770000Y-79520000D03*
%TO.N,/EXT_SPI_SS1*%
X69550000Y-64040000D03*
X58849500Y-64205500D03*
D15*
X82820000Y-66970000D03*
X69570000Y-65430000D03*
%TD*%
%TA.AperFunction,Conductor*%
%TO.N,GND*%
G36*
X108970682Y-42501500D02*
G01*
X108984957Y-42503723D01*
X108984960Y-42503723D01*
X108993830Y-42505104D01*
X109002734Y-42503940D01*
X109004391Y-42503960D01*
X109032888Y-42503706D01*
X109097156Y-42510947D01*
X109124664Y-42517226D01*
X109203541Y-42544826D01*
X109228962Y-42557068D01*
X109299726Y-42601532D01*
X109321785Y-42619124D01*
X109380876Y-42678215D01*
X109398468Y-42700274D01*
X109442932Y-42771038D01*
X109455174Y-42796459D01*
X109482774Y-42875336D01*
X109489053Y-42902842D01*
X109495597Y-42960917D01*
X109496380Y-42976564D01*
X109496278Y-42984954D01*
X109494896Y-42993828D01*
X109496061Y-43002734D01*
X109498936Y-43024724D01*
X109500000Y-43041061D01*
X109500000Y-71349332D01*
X109479998Y-71417453D01*
X109426342Y-71463946D01*
X109356068Y-71474050D01*
X109291488Y-71444556D01*
X109276454Y-71427167D01*
X109275984Y-71427572D01*
X109188260Y-71325763D01*
X109188257Y-71325760D01*
X109182400Y-71318963D01*
X109062095Y-71240985D01*
X108924739Y-71199907D01*
X108915763Y-71199852D01*
X108915762Y-71199852D01*
X108855555Y-71199484D01*
X108781376Y-71199031D01*
X108643529Y-71238428D01*
X108522280Y-71314930D01*
X108427377Y-71422388D01*
X108423560Y-71430518D01*
X108420130Y-71437822D01*
X108373073Y-71490984D01*
X108304745Y-71510265D01*
X108236839Y-71489544D01*
X108191375Y-71436423D01*
X108187351Y-71427572D01*
X108175984Y-71402572D01*
X108134933Y-71354930D01*
X108088260Y-71300763D01*
X108088257Y-71300760D01*
X108082400Y-71293963D01*
X107962095Y-71215985D01*
X107824739Y-71174907D01*
X107815763Y-71174852D01*
X107815762Y-71174852D01*
X107755555Y-71174484D01*
X107681376Y-71174031D01*
X107543529Y-71213428D01*
X107422280Y-71289930D01*
X107416338Y-71296658D01*
X107416337Y-71296659D01*
X107400201Y-71314930D01*
X107327377Y-71397388D01*
X107323560Y-71405518D01*
X107320130Y-71412822D01*
X107273073Y-71465984D01*
X107204745Y-71485265D01*
X107136839Y-71464544D01*
X107091375Y-71411423D01*
X107088690Y-71405518D01*
X107075984Y-71377572D01*
X107051651Y-71349332D01*
X106988260Y-71275763D01*
X106988257Y-71275760D01*
X106982400Y-71268963D01*
X106862095Y-71190985D01*
X106724739Y-71149907D01*
X106715763Y-71149852D01*
X106715762Y-71149852D01*
X106655555Y-71149484D01*
X106581376Y-71149031D01*
X106443529Y-71188428D01*
X106322280Y-71264930D01*
X106316338Y-71271658D01*
X106316337Y-71271659D01*
X106278122Y-71314930D01*
X106227377Y-71372388D01*
X106166447Y-71502163D01*
X106162555Y-71527163D01*
X106151513Y-71598082D01*
X106144391Y-71643823D01*
X106145555Y-71652725D01*
X106145555Y-71652728D01*
X106148468Y-71675000D01*
X106162980Y-71785979D01*
X106166597Y-71794199D01*
X106192793Y-71853733D01*
X106220720Y-71917203D01*
X106226497Y-71924076D01*
X106226498Y-71924077D01*
X106273484Y-71979974D01*
X106312970Y-72026948D01*
X106432313Y-72106390D01*
X106569157Y-72149142D01*
X106578129Y-72149306D01*
X106578132Y-72149307D01*
X106643463Y-72150504D01*
X106712499Y-72151770D01*
X106721533Y-72149307D01*
X106842158Y-72116421D01*
X106842160Y-72116420D01*
X106850817Y-72114060D01*
X106972991Y-72039045D01*
X107069200Y-71932754D01*
X107079936Y-71910595D01*
X107127638Y-71858012D01*
X107196197Y-71839566D01*
X107263845Y-71861114D01*
X107308656Y-71914786D01*
X107320720Y-71942203D01*
X107326497Y-71949076D01*
X107326498Y-71949077D01*
X107388430Y-72022754D01*
X107412970Y-72051948D01*
X107463744Y-72085746D01*
X107509826Y-72116421D01*
X107532313Y-72131390D01*
X107669157Y-72174142D01*
X107678129Y-72174306D01*
X107678132Y-72174307D01*
X107743463Y-72175504D01*
X107812499Y-72176770D01*
X107821533Y-72174307D01*
X107942158Y-72141421D01*
X107942160Y-72141420D01*
X107950817Y-72139060D01*
X108072991Y-72064045D01*
X108104344Y-72029407D01*
X108163178Y-71964407D01*
X108169200Y-71957754D01*
X108179936Y-71935595D01*
X108227638Y-71883012D01*
X108296197Y-71864566D01*
X108363845Y-71886114D01*
X108408656Y-71939786D01*
X108420720Y-71967203D01*
X108426497Y-71974076D01*
X108426498Y-71974077D01*
X108506071Y-72068741D01*
X108512970Y-72076948D01*
X108520447Y-72081925D01*
X108621425Y-72149142D01*
X108632313Y-72156390D01*
X108769157Y-72199142D01*
X108778129Y-72199306D01*
X108778132Y-72199307D01*
X108843463Y-72200504D01*
X108912499Y-72201770D01*
X108921533Y-72199307D01*
X109042158Y-72166421D01*
X109042160Y-72166420D01*
X109050817Y-72164060D01*
X109172991Y-72089045D01*
X109189534Y-72070769D01*
X109235422Y-72020072D01*
X109269200Y-71982754D01*
X109271222Y-71978581D01*
X109324215Y-71934684D01*
X109394696Y-71926142D01*
X109458606Y-71957062D01*
X109495654Y-72017625D01*
X109500000Y-72050431D01*
X109500000Y-91874000D01*
X109479998Y-91942121D01*
X109426342Y-91988614D01*
X109374000Y-92000000D01*
X79147778Y-92000000D01*
X79091429Y-91986698D01*
X78286057Y-91584012D01*
X78281206Y-91581219D01*
X78277334Y-91577799D01*
X78217996Y-91549939D01*
X78215293Y-91548629D01*
X78204800Y-91543383D01*
X78195497Y-91538731D01*
X78195492Y-91538729D01*
X78191492Y-91536729D01*
X78187245Y-91535315D01*
X78186599Y-91535048D01*
X78181242Y-91532683D01*
X78155818Y-91520746D01*
X78155814Y-91520745D01*
X78147689Y-91516930D01*
X78128685Y-91513971D01*
X78108266Y-91509019D01*
X78098532Y-91505778D01*
X78090017Y-91502943D01*
X78055258Y-91501659D01*
X78048623Y-91501022D01*
X78048615Y-91501125D01*
X78043767Y-91500750D01*
X78038953Y-91500000D01*
X78012653Y-91500000D01*
X78008003Y-91499914D01*
X77955866Y-91497988D01*
X77955863Y-91497988D01*
X77946892Y-91497657D01*
X77939578Y-91499506D01*
X77930194Y-91500000D01*
X55570123Y-91500000D01*
X55558256Y-91498674D01*
X55558215Y-91499186D01*
X55549267Y-91498466D01*
X55540512Y-91496485D01*
X55487757Y-91499758D01*
X55479957Y-91500000D01*
X55464095Y-91500000D01*
X55459647Y-91500637D01*
X55459645Y-91500637D01*
X55453991Y-91501446D01*
X55443940Y-91502476D01*
X55418686Y-91504043D01*
X55397564Y-91505354D01*
X55389117Y-91508404D01*
X55385344Y-91509185D01*
X55370779Y-91512816D01*
X55367106Y-91513890D01*
X55358223Y-91515162D01*
X55315921Y-91534396D01*
X55306554Y-91538209D01*
X55262850Y-91553986D01*
X55255598Y-91559284D01*
X55252220Y-91561080D01*
X55239219Y-91568677D01*
X55236012Y-91570728D01*
X55227844Y-91574442D01*
X55221046Y-91580299D01*
X55221045Y-91580300D01*
X55192631Y-91604783D01*
X55184713Y-91611069D01*
X55177934Y-91616022D01*
X55173991Y-91618903D01*
X55163270Y-91629624D01*
X55156422Y-91635982D01*
X55126146Y-91662069D01*
X55126142Y-91662074D01*
X55119343Y-91667932D01*
X55114461Y-91675465D01*
X55108560Y-91682229D01*
X55108554Y-91682224D01*
X55099586Y-91693308D01*
X54830318Y-91962576D01*
X54768006Y-91996602D01*
X54740971Y-91999481D01*
X25049075Y-91940096D01*
X25029943Y-91938596D01*
X25015045Y-91936276D01*
X25015040Y-91936276D01*
X25006171Y-91934895D01*
X24997267Y-91936059D01*
X24995611Y-91936039D01*
X24967113Y-91936293D01*
X24902845Y-91929052D01*
X24875337Y-91922773D01*
X24796460Y-91895173D01*
X24771039Y-91882931D01*
X24700275Y-91838467D01*
X24678216Y-91820875D01*
X24619125Y-91761784D01*
X24601533Y-91739725D01*
X24557069Y-91668961D01*
X24544827Y-91643540D01*
X24517227Y-91564663D01*
X24510948Y-91537157D01*
X24507093Y-91502943D01*
X24504404Y-91479078D01*
X24503621Y-91463435D01*
X24503723Y-91455045D01*
X24505105Y-91446171D01*
X24501065Y-91415275D01*
X24500001Y-91398938D01*
X24500001Y-90593823D01*
X59494391Y-90593823D01*
X59495555Y-90602725D01*
X59495555Y-90602728D01*
X59500083Y-90637354D01*
X59512980Y-90735979D01*
X59570720Y-90867203D01*
X59576497Y-90874076D01*
X59576498Y-90874077D01*
X59610399Y-90914407D01*
X59662970Y-90976948D01*
X59711224Y-91009069D01*
X59771425Y-91049142D01*
X59782313Y-91056390D01*
X59919157Y-91099142D01*
X59928129Y-91099306D01*
X59928132Y-91099307D01*
X59993463Y-91100504D01*
X60062499Y-91101770D01*
X60071533Y-91099307D01*
X60192158Y-91066421D01*
X60192160Y-91066420D01*
X60200817Y-91064060D01*
X60322991Y-90989045D01*
X60419200Y-90882754D01*
X60454942Y-90808983D01*
X60477795Y-90761814D01*
X60477796Y-90761812D01*
X60481710Y-90753733D01*
X60505496Y-90612354D01*
X60505647Y-90600000D01*
X60504762Y-90593823D01*
X60794391Y-90593823D01*
X60795555Y-90602725D01*
X60795555Y-90602728D01*
X60800083Y-90637354D01*
X60812980Y-90735979D01*
X60870720Y-90867203D01*
X60876497Y-90874076D01*
X60876498Y-90874077D01*
X60910399Y-90914407D01*
X60962970Y-90976948D01*
X61011224Y-91009069D01*
X61071425Y-91049142D01*
X61082313Y-91056390D01*
X61219157Y-91099142D01*
X61228129Y-91099306D01*
X61228132Y-91099307D01*
X61293463Y-91100504D01*
X61362499Y-91101770D01*
X61371533Y-91099307D01*
X61492158Y-91066421D01*
X61492160Y-91066420D01*
X61500817Y-91064060D01*
X61622991Y-90989045D01*
X61719200Y-90882754D01*
X61754942Y-90808983D01*
X61777795Y-90761814D01*
X61777796Y-90761812D01*
X61781710Y-90753733D01*
X61805496Y-90612354D01*
X61805647Y-90600000D01*
X61804762Y-90593823D01*
X62070380Y-90593823D01*
X62071544Y-90602725D01*
X62071544Y-90602728D01*
X62076072Y-90637354D01*
X62088969Y-90735979D01*
X62146709Y-90867203D01*
X62152486Y-90874076D01*
X62152487Y-90874077D01*
X62186388Y-90914407D01*
X62238959Y-90976948D01*
X62287213Y-91009069D01*
X62347414Y-91049142D01*
X62358302Y-91056390D01*
X62495146Y-91099142D01*
X62504118Y-91099306D01*
X62504121Y-91099307D01*
X62569452Y-91100504D01*
X62638488Y-91101770D01*
X62647522Y-91099307D01*
X62768147Y-91066421D01*
X62768149Y-91066420D01*
X62776806Y-91064060D01*
X62898980Y-90989045D01*
X62995189Y-90882754D01*
X63030931Y-90808983D01*
X63053784Y-90761814D01*
X63053785Y-90761812D01*
X63057699Y-90753733D01*
X63074996Y-90650924D01*
X63092505Y-90614889D01*
X63306536Y-90614889D01*
X63324186Y-90655492D01*
X63337980Y-90760979D01*
X63395720Y-90892203D01*
X63401497Y-90899076D01*
X63401498Y-90899077D01*
X63466955Y-90976948D01*
X63487970Y-91001948D01*
X63509712Y-91016421D01*
X63584826Y-91066421D01*
X63607313Y-91081390D01*
X63744157Y-91124142D01*
X63753129Y-91124306D01*
X63753132Y-91124307D01*
X63818463Y-91125504D01*
X63887499Y-91126770D01*
X63896533Y-91124307D01*
X64017158Y-91091421D01*
X64017160Y-91091420D01*
X64025817Y-91089060D01*
X64147991Y-91014045D01*
X64244200Y-90907754D01*
X64284741Y-90824077D01*
X64302795Y-90786814D01*
X64302795Y-90786813D01*
X64306710Y-90778733D01*
X64323813Y-90677074D01*
X64326403Y-90661683D01*
X64343387Y-90626728D01*
X64342080Y-90623819D01*
X64557148Y-90623819D01*
X64575593Y-90666251D01*
X64587980Y-90760979D01*
X64645720Y-90892203D01*
X64651497Y-90899076D01*
X64651498Y-90899077D01*
X64716955Y-90976948D01*
X64737970Y-91001948D01*
X64759712Y-91016421D01*
X64834826Y-91066421D01*
X64857313Y-91081390D01*
X64994157Y-91124142D01*
X65003129Y-91124306D01*
X65003132Y-91124307D01*
X65068463Y-91125504D01*
X65137499Y-91126770D01*
X65146533Y-91124307D01*
X65267158Y-91091421D01*
X65267160Y-91091420D01*
X65275817Y-91089060D01*
X65397991Y-91014045D01*
X65494200Y-90907754D01*
X65534741Y-90824077D01*
X65552795Y-90786814D01*
X65552795Y-90786813D01*
X65556710Y-90778733D01*
X65580496Y-90637354D01*
X65580647Y-90625000D01*
X65579762Y-90618823D01*
X65844391Y-90618823D01*
X65845555Y-90627725D01*
X65845555Y-90627728D01*
X65853173Y-90685979D01*
X65862980Y-90760979D01*
X65920720Y-90892203D01*
X65926497Y-90899076D01*
X65926498Y-90899077D01*
X65991955Y-90976948D01*
X66012970Y-91001948D01*
X66034712Y-91016421D01*
X66109826Y-91066421D01*
X66132313Y-91081390D01*
X66269157Y-91124142D01*
X66278129Y-91124306D01*
X66278132Y-91124307D01*
X66343463Y-91125504D01*
X66412499Y-91126770D01*
X66421533Y-91124307D01*
X66542158Y-91091421D01*
X66542160Y-91091420D01*
X66550817Y-91089060D01*
X66672991Y-91014045D01*
X66769200Y-90907754D01*
X66809741Y-90824077D01*
X66827795Y-90786814D01*
X66827795Y-90786813D01*
X66831710Y-90778733D01*
X66855496Y-90637354D01*
X66855647Y-90625000D01*
X66851182Y-90593823D01*
X67169391Y-90593823D01*
X67170555Y-90602725D01*
X67170555Y-90602728D01*
X67175083Y-90637354D01*
X67187980Y-90735979D01*
X67245720Y-90867203D01*
X67251497Y-90874076D01*
X67251498Y-90874077D01*
X67285399Y-90914407D01*
X67337970Y-90976948D01*
X67386224Y-91009069D01*
X67446425Y-91049142D01*
X67457313Y-91056390D01*
X67594157Y-91099142D01*
X67603129Y-91099306D01*
X67603132Y-91099307D01*
X67668463Y-91100504D01*
X67737499Y-91101770D01*
X67746533Y-91099307D01*
X67867158Y-91066421D01*
X67867160Y-91066420D01*
X67875817Y-91064060D01*
X67997991Y-90989045D01*
X68094200Y-90882754D01*
X68129942Y-90808983D01*
X68152796Y-90761812D01*
X68152796Y-90761811D01*
X68156710Y-90753733D01*
X68157087Y-90751491D01*
X68194965Y-90695470D01*
X68260216Y-90667492D01*
X68330235Y-90679233D01*
X68382791Y-90726965D01*
X68390562Y-90741848D01*
X68423719Y-90817203D01*
X68445720Y-90867203D01*
X68451497Y-90874076D01*
X68451498Y-90874077D01*
X68485399Y-90914407D01*
X68537970Y-90976948D01*
X68586224Y-91009069D01*
X68646425Y-91049142D01*
X68657313Y-91056390D01*
X68794157Y-91099142D01*
X68803129Y-91099306D01*
X68803132Y-91099307D01*
X68868463Y-91100504D01*
X68937499Y-91101770D01*
X68946533Y-91099307D01*
X69067158Y-91066421D01*
X69067160Y-91066420D01*
X69075817Y-91064060D01*
X69197991Y-90989045D01*
X69294200Y-90882754D01*
X69329942Y-90808983D01*
X69352795Y-90761814D01*
X69352796Y-90761812D01*
X69356710Y-90753733D01*
X69380496Y-90612354D01*
X69380647Y-90600000D01*
X69379762Y-90593823D01*
X69644391Y-90593823D01*
X69645555Y-90602725D01*
X69645555Y-90602728D01*
X69650083Y-90637354D01*
X69662980Y-90735979D01*
X69720720Y-90867203D01*
X69726497Y-90874076D01*
X69726498Y-90874077D01*
X69760399Y-90914407D01*
X69812970Y-90976948D01*
X69861224Y-91009069D01*
X69921425Y-91049142D01*
X69932313Y-91056390D01*
X70069157Y-91099142D01*
X70078129Y-91099306D01*
X70078132Y-91099307D01*
X70143463Y-91100504D01*
X70212499Y-91101770D01*
X70221533Y-91099307D01*
X70342158Y-91066421D01*
X70342160Y-91066420D01*
X70350817Y-91064060D01*
X70472991Y-90989045D01*
X70569200Y-90882754D01*
X70604942Y-90808983D01*
X70627795Y-90761814D01*
X70627796Y-90761812D01*
X70631710Y-90753733D01*
X70655496Y-90612354D01*
X70655647Y-90600000D01*
X70654762Y-90593823D01*
X70919391Y-90593823D01*
X70920555Y-90602725D01*
X70920555Y-90602728D01*
X70925083Y-90637354D01*
X70937980Y-90735979D01*
X70995720Y-90867203D01*
X71001497Y-90874076D01*
X71001498Y-90874077D01*
X71035399Y-90914407D01*
X71087970Y-90976948D01*
X71136224Y-91009069D01*
X71196425Y-91049142D01*
X71207313Y-91056390D01*
X71344157Y-91099142D01*
X71353129Y-91099306D01*
X71353132Y-91099307D01*
X71418463Y-91100504D01*
X71487499Y-91101770D01*
X71496533Y-91099307D01*
X71617158Y-91066421D01*
X71617160Y-91066420D01*
X71625817Y-91064060D01*
X71747991Y-90989045D01*
X71844200Y-90882754D01*
X71879942Y-90808983D01*
X71902795Y-90761814D01*
X71902796Y-90761812D01*
X71906710Y-90753733D01*
X71930496Y-90612354D01*
X71930647Y-90600000D01*
X71922602Y-90543823D01*
X74669391Y-90543823D01*
X74670555Y-90552725D01*
X74670555Y-90552728D01*
X74675929Y-90593823D01*
X74687980Y-90685979D01*
X74691597Y-90694199D01*
X74732349Y-90786814D01*
X74745720Y-90817203D01*
X74751497Y-90824076D01*
X74751498Y-90824077D01*
X74808764Y-90892203D01*
X74837970Y-90926948D01*
X74957313Y-91006390D01*
X75094157Y-91049142D01*
X75103129Y-91049306D01*
X75103132Y-91049307D01*
X75168463Y-91050504D01*
X75237499Y-91051770D01*
X75246533Y-91049307D01*
X75367158Y-91016421D01*
X75367160Y-91016420D01*
X75375817Y-91014060D01*
X75497991Y-90939045D01*
X75594200Y-90832754D01*
X75636774Y-90744881D01*
X75652795Y-90711814D01*
X75652795Y-90711813D01*
X75656710Y-90703733D01*
X75680496Y-90562354D01*
X75680647Y-90550000D01*
X75671487Y-90486035D01*
X75661596Y-90416968D01*
X75661595Y-90416965D01*
X75660323Y-90408082D01*
X75600984Y-90277572D01*
X75574348Y-90246659D01*
X75513260Y-90175763D01*
X75513257Y-90175760D01*
X75507400Y-90168963D01*
X75387095Y-90090985D01*
X75325512Y-90072568D01*
X75265978Y-90033887D01*
X75253138Y-90005395D01*
X75230584Y-90030536D01*
X75163528Y-90049380D01*
X75135626Y-90049210D01*
X75106376Y-90049031D01*
X74968529Y-90088428D01*
X74847280Y-90164930D01*
X74841338Y-90171658D01*
X74841337Y-90171659D01*
X74803122Y-90214930D01*
X74752377Y-90272388D01*
X74691447Y-90402163D01*
X74683769Y-90451480D01*
X74677465Y-90491968D01*
X74669391Y-90543823D01*
X71922602Y-90543823D01*
X71919215Y-90520175D01*
X71911596Y-90466968D01*
X71911595Y-90466965D01*
X71910323Y-90458082D01*
X71850984Y-90327572D01*
X71781265Y-90246659D01*
X71763260Y-90225763D01*
X71763257Y-90225760D01*
X71757400Y-90218963D01*
X71637095Y-90140985D01*
X71499739Y-90099907D01*
X71490763Y-90099852D01*
X71490762Y-90099852D01*
X71430555Y-90099484D01*
X71356376Y-90099031D01*
X71218529Y-90138428D01*
X71097280Y-90214930D01*
X71091338Y-90221658D01*
X71091337Y-90221659D01*
X71075201Y-90239930D01*
X71002377Y-90322388D01*
X70941447Y-90452163D01*
X70933643Y-90502285D01*
X70922765Y-90572155D01*
X70919391Y-90593823D01*
X70654762Y-90593823D01*
X70644215Y-90520175D01*
X70636596Y-90466968D01*
X70636595Y-90466965D01*
X70635323Y-90458082D01*
X70575984Y-90327572D01*
X70506265Y-90246659D01*
X70488260Y-90225763D01*
X70488257Y-90225760D01*
X70482400Y-90218963D01*
X70362095Y-90140985D01*
X70224739Y-90099907D01*
X70215763Y-90099852D01*
X70215762Y-90099852D01*
X70155555Y-90099484D01*
X70081376Y-90099031D01*
X69943529Y-90138428D01*
X69822280Y-90214930D01*
X69816338Y-90221658D01*
X69816337Y-90221659D01*
X69800201Y-90239930D01*
X69727377Y-90322388D01*
X69666447Y-90452163D01*
X69658643Y-90502285D01*
X69647765Y-90572155D01*
X69644391Y-90593823D01*
X69379762Y-90593823D01*
X69369215Y-90520175D01*
X69361596Y-90466968D01*
X69361595Y-90466965D01*
X69360323Y-90458082D01*
X69300984Y-90327572D01*
X69231265Y-90246659D01*
X69213260Y-90225763D01*
X69213257Y-90225760D01*
X69207400Y-90218963D01*
X69087095Y-90140985D01*
X68949739Y-90099907D01*
X68940763Y-90099852D01*
X68940762Y-90099852D01*
X68880555Y-90099484D01*
X68806376Y-90099031D01*
X68668529Y-90138428D01*
X68547280Y-90214930D01*
X68541338Y-90221658D01*
X68541337Y-90221659D01*
X68525201Y-90239930D01*
X68452377Y-90322388D01*
X68391447Y-90452163D01*
X68389991Y-90451480D01*
X68356538Y-90502285D01*
X68291633Y-90531059D01*
X68221476Y-90520175D01*
X68168340Y-90473089D01*
X68161382Y-90457600D01*
X68160323Y-90458082D01*
X68113688Y-90355514D01*
X68100984Y-90327572D01*
X68031265Y-90246659D01*
X68013260Y-90225763D01*
X68013257Y-90225760D01*
X68007400Y-90218963D01*
X67887095Y-90140985D01*
X67749739Y-90099907D01*
X67740763Y-90099852D01*
X67740762Y-90099852D01*
X67680555Y-90099484D01*
X67606376Y-90099031D01*
X67468529Y-90138428D01*
X67347280Y-90214930D01*
X67341338Y-90221658D01*
X67341337Y-90221659D01*
X67325201Y-90239930D01*
X67252377Y-90322388D01*
X67191447Y-90452163D01*
X67183643Y-90502285D01*
X67172765Y-90572155D01*
X67169391Y-90593823D01*
X66851182Y-90593823D01*
X66835323Y-90483082D01*
X66830780Y-90473089D01*
X66801223Y-90408082D01*
X66775984Y-90352572D01*
X66701095Y-90265659D01*
X66688260Y-90250763D01*
X66688257Y-90250760D01*
X66682400Y-90243963D01*
X66562095Y-90165985D01*
X66424739Y-90124907D01*
X66415763Y-90124852D01*
X66415762Y-90124852D01*
X66355555Y-90124484D01*
X66281376Y-90124031D01*
X66143529Y-90163428D01*
X66022280Y-90239930D01*
X65927377Y-90347388D01*
X65866447Y-90477163D01*
X65865066Y-90486034D01*
X65865066Y-90486035D01*
X65846897Y-90602728D01*
X65844391Y-90618823D01*
X65579762Y-90618823D01*
X65560323Y-90483082D01*
X65555780Y-90473089D01*
X65526223Y-90408082D01*
X65500984Y-90352572D01*
X65426095Y-90265659D01*
X65413260Y-90250763D01*
X65413257Y-90250760D01*
X65407400Y-90243963D01*
X65287095Y-90165985D01*
X65149739Y-90124907D01*
X65140763Y-90124852D01*
X65140762Y-90124852D01*
X65080555Y-90124484D01*
X65006376Y-90124031D01*
X64868529Y-90163428D01*
X64747280Y-90239930D01*
X64652377Y-90347388D01*
X64591447Y-90477163D01*
X64590066Y-90486034D01*
X64590066Y-90486035D01*
X64574277Y-90587440D01*
X64557148Y-90623819D01*
X64342080Y-90623819D01*
X64325050Y-90585918D01*
X64311596Y-90491968D01*
X64311595Y-90491965D01*
X64310323Y-90483082D01*
X64305780Y-90473089D01*
X64276223Y-90408082D01*
X64250984Y-90352572D01*
X64176095Y-90265659D01*
X64163260Y-90250763D01*
X64163257Y-90250760D01*
X64157400Y-90243963D01*
X64037095Y-90165985D01*
X63899739Y-90124907D01*
X63890763Y-90124852D01*
X63890762Y-90124852D01*
X63830555Y-90124484D01*
X63756376Y-90124031D01*
X63618529Y-90163428D01*
X63497280Y-90239930D01*
X63402377Y-90347388D01*
X63341447Y-90477163D01*
X63340066Y-90486034D01*
X63326657Y-90572155D01*
X63306536Y-90614889D01*
X63092505Y-90614889D01*
X63095004Y-90609745D01*
X63077431Y-90570636D01*
X63061312Y-90458082D01*
X63001973Y-90327572D01*
X62932254Y-90246659D01*
X62914249Y-90225763D01*
X62914246Y-90225760D01*
X62908389Y-90218963D01*
X62788084Y-90140985D01*
X62650728Y-90099907D01*
X62641752Y-90099852D01*
X62641751Y-90099852D01*
X62581544Y-90099484D01*
X62507365Y-90099031D01*
X62369518Y-90138428D01*
X62248269Y-90214930D01*
X62242327Y-90221658D01*
X62242326Y-90221659D01*
X62226190Y-90239930D01*
X62153366Y-90322388D01*
X62092436Y-90452163D01*
X62084632Y-90502285D01*
X62073754Y-90572155D01*
X62070380Y-90593823D01*
X61804762Y-90593823D01*
X61794215Y-90520175D01*
X61786596Y-90466968D01*
X61786595Y-90466965D01*
X61785323Y-90458082D01*
X61725984Y-90327572D01*
X61656265Y-90246659D01*
X61638260Y-90225763D01*
X61638257Y-90225760D01*
X61632400Y-90218963D01*
X61512095Y-90140985D01*
X61374739Y-90099907D01*
X61365763Y-90099852D01*
X61365762Y-90099852D01*
X61305555Y-90099484D01*
X61231376Y-90099031D01*
X61093529Y-90138428D01*
X60972280Y-90214930D01*
X60966338Y-90221658D01*
X60966337Y-90221659D01*
X60950201Y-90239930D01*
X60877377Y-90322388D01*
X60816447Y-90452163D01*
X60808643Y-90502285D01*
X60797765Y-90572155D01*
X60794391Y-90593823D01*
X60504762Y-90593823D01*
X60494215Y-90520175D01*
X60486596Y-90466968D01*
X60486595Y-90466965D01*
X60485323Y-90458082D01*
X60425984Y-90327572D01*
X60356265Y-90246659D01*
X60338260Y-90225763D01*
X60338257Y-90225760D01*
X60332400Y-90218963D01*
X60212095Y-90140985D01*
X60074739Y-90099907D01*
X60065763Y-90099852D01*
X60065762Y-90099852D01*
X60005555Y-90099484D01*
X59931376Y-90099031D01*
X59793529Y-90138428D01*
X59672280Y-90214930D01*
X59666338Y-90221658D01*
X59666337Y-90221659D01*
X59650201Y-90239930D01*
X59577377Y-90322388D01*
X59516447Y-90452163D01*
X59508643Y-90502285D01*
X59497765Y-90572155D01*
X59494391Y-90593823D01*
X24500001Y-90593823D01*
X24500001Y-89318815D01*
X74844383Y-89318815D01*
X74845547Y-89327717D01*
X74845547Y-89327720D01*
X74850076Y-89362354D01*
X74862972Y-89460971D01*
X74920712Y-89592195D01*
X74926489Y-89599068D01*
X74926490Y-89599069D01*
X74948016Y-89624677D01*
X75012962Y-89701940D01*
X75132305Y-89781382D01*
X75140880Y-89784061D01*
X75201870Y-89803115D01*
X75260927Y-89842520D01*
X75272803Y-89869756D01*
X75294022Y-89845514D01*
X75363922Y-89825872D01*
X75403513Y-89826598D01*
X75403517Y-89826597D01*
X75412491Y-89826762D01*
X75421155Y-89824400D01*
X75542150Y-89791413D01*
X75542152Y-89791412D01*
X75550809Y-89789052D01*
X75672983Y-89714037D01*
X75769192Y-89607746D01*
X75793032Y-89558540D01*
X75840735Y-89505957D01*
X75909293Y-89487512D01*
X75976941Y-89509060D01*
X76021752Y-89562732D01*
X76045720Y-89617203D01*
X76051497Y-89624076D01*
X76051498Y-89624077D01*
X76132190Y-89720072D01*
X76137970Y-89726948D01*
X76145447Y-89731925D01*
X76234814Y-89791413D01*
X76257313Y-89806390D01*
X76314961Y-89824400D01*
X76355874Y-89837182D01*
X76414930Y-89876588D01*
X76443308Y-89941666D01*
X76431996Y-90011756D01*
X76384586Y-90064604D01*
X76352929Y-90078596D01*
X76318529Y-90088428D01*
X76197280Y-90164930D01*
X76191338Y-90171658D01*
X76191337Y-90171659D01*
X76153122Y-90214930D01*
X76102377Y-90272388D01*
X76041447Y-90402163D01*
X76033769Y-90451480D01*
X76027465Y-90491968D01*
X76019391Y-90543823D01*
X76020555Y-90552725D01*
X76020555Y-90552728D01*
X76025929Y-90593823D01*
X76037980Y-90685979D01*
X76041597Y-90694199D01*
X76082349Y-90786814D01*
X76095720Y-90817203D01*
X76101497Y-90824076D01*
X76101498Y-90824077D01*
X76158764Y-90892203D01*
X76187970Y-90926948D01*
X76307313Y-91006390D01*
X76444157Y-91049142D01*
X76453129Y-91049306D01*
X76453132Y-91049307D01*
X76518463Y-91050504D01*
X76587499Y-91051770D01*
X76596533Y-91049307D01*
X76717158Y-91016421D01*
X76717160Y-91016420D01*
X76725817Y-91014060D01*
X76847991Y-90939045D01*
X76944200Y-90832754D01*
X76986774Y-90744881D01*
X77002795Y-90711814D01*
X77002795Y-90711813D01*
X77006710Y-90703733D01*
X77030496Y-90562354D01*
X77030647Y-90550000D01*
X77021487Y-90486035D01*
X77011596Y-90416968D01*
X77011595Y-90416965D01*
X77010323Y-90408082D01*
X76950984Y-90277572D01*
X76924348Y-90246659D01*
X76863260Y-90175763D01*
X76863257Y-90175760D01*
X76857400Y-90168963D01*
X76737095Y-90090985D01*
X76645860Y-90063700D01*
X76586326Y-90025019D01*
X76557156Y-89960291D01*
X76567611Y-89890069D01*
X76614372Y-89836646D01*
X76648821Y-89821420D01*
X76667157Y-89816421D01*
X76675817Y-89814060D01*
X76797991Y-89739045D01*
X76831577Y-89701940D01*
X76888178Y-89639407D01*
X76894200Y-89632754D01*
X76956710Y-89503733D01*
X76980496Y-89362354D01*
X76980647Y-89350000D01*
X76960323Y-89208082D01*
X76900984Y-89077572D01*
X76869171Y-89040651D01*
X76813260Y-88975763D01*
X76813257Y-88975760D01*
X76807400Y-88968963D01*
X76687095Y-88890985D01*
X76549739Y-88849907D01*
X76540763Y-88849852D01*
X76540762Y-88849852D01*
X76480555Y-88849484D01*
X76406376Y-88849031D01*
X76268529Y-88888428D01*
X76147280Y-88964930D01*
X76052377Y-89072388D01*
X76046106Y-89085746D01*
X76032428Y-89114878D01*
X75985371Y-89168039D01*
X75917042Y-89187321D01*
X75849137Y-89166601D01*
X75803672Y-89113479D01*
X75784253Y-89070769D01*
X75775976Y-89052564D01*
X75709800Y-88975763D01*
X75688252Y-88950755D01*
X75688249Y-88950752D01*
X75682392Y-88943955D01*
X75562087Y-88865977D01*
X75424731Y-88824899D01*
X75415755Y-88824844D01*
X75415754Y-88824844D01*
X75355547Y-88824476D01*
X75281368Y-88824023D01*
X75143521Y-88863420D01*
X75022272Y-88939922D01*
X75016330Y-88946650D01*
X75016329Y-88946651D01*
X74974820Y-88993651D01*
X74927369Y-89047380D01*
X74866439Y-89177155D01*
X74844383Y-89318815D01*
X24500001Y-89318815D01*
X24500001Y-87071329D01*
X54019734Y-87071329D01*
X54020577Y-87077773D01*
X54020884Y-87081478D01*
X54020884Y-87081482D01*
X54031783Y-87213005D01*
X54037661Y-87283948D01*
X54088515Y-87484765D01*
X54171728Y-87674473D01*
X54174576Y-87678832D01*
X54174577Y-87678834D01*
X54188309Y-87699852D01*
X54285032Y-87847897D01*
X54425335Y-88000307D01*
X54429444Y-88003505D01*
X54429446Y-88003507D01*
X54489575Y-88050307D01*
X54588810Y-88127545D01*
X54593389Y-88130023D01*
X54593392Y-88130025D01*
X54766413Y-88223659D01*
X54766416Y-88223660D01*
X54770998Y-88226140D01*
X54966929Y-88293403D01*
X54972063Y-88294260D01*
X54972068Y-88294261D01*
X55166123Y-88326643D01*
X55166126Y-88326643D01*
X55171260Y-88327500D01*
X55378416Y-88327500D01*
X55383550Y-88326643D01*
X55383553Y-88326643D01*
X55577608Y-88294261D01*
X55577613Y-88294260D01*
X55580231Y-88293823D01*
X56994391Y-88293823D01*
X56995555Y-88302725D01*
X56995555Y-88302728D01*
X57002225Y-88353733D01*
X57012980Y-88435979D01*
X57070720Y-88567203D01*
X57076497Y-88574076D01*
X57076498Y-88574077D01*
X57154121Y-88666421D01*
X57162970Y-88676948D01*
X57282313Y-88756390D01*
X57419157Y-88799142D01*
X57428129Y-88799306D01*
X57428132Y-88799307D01*
X57493463Y-88800504D01*
X57562499Y-88801770D01*
X57571533Y-88799307D01*
X57692158Y-88766421D01*
X57692160Y-88766420D01*
X57700817Y-88764060D01*
X57822991Y-88689045D01*
X57857054Y-88651413D01*
X57913178Y-88589407D01*
X57919200Y-88582754D01*
X57964426Y-88489407D01*
X57977796Y-88461812D01*
X57977796Y-88461811D01*
X57981710Y-88453733D01*
X57982087Y-88451491D01*
X58019965Y-88395470D01*
X58085216Y-88367492D01*
X58155235Y-88379233D01*
X58207791Y-88426965D01*
X58215562Y-88441848D01*
X58236489Y-88489407D01*
X58270720Y-88567203D01*
X58276497Y-88574076D01*
X58276498Y-88574077D01*
X58354121Y-88666421D01*
X58362970Y-88676948D01*
X58482313Y-88756390D01*
X58619157Y-88799142D01*
X58628129Y-88799306D01*
X58628132Y-88799307D01*
X58693463Y-88800504D01*
X58762499Y-88801770D01*
X58771533Y-88799307D01*
X58892158Y-88766421D01*
X58892160Y-88766420D01*
X58900817Y-88764060D01*
X59022991Y-88689045D01*
X59057054Y-88651413D01*
X59113178Y-88589407D01*
X59119200Y-88582754D01*
X59164426Y-88489407D01*
X59177795Y-88461814D01*
X59177796Y-88461812D01*
X59181710Y-88453733D01*
X59205496Y-88312354D01*
X59205647Y-88300000D01*
X59204762Y-88293823D01*
X59494391Y-88293823D01*
X59495555Y-88302725D01*
X59495555Y-88302728D01*
X59502225Y-88353733D01*
X59512980Y-88435979D01*
X59570720Y-88567203D01*
X59576497Y-88574076D01*
X59576498Y-88574077D01*
X59654121Y-88666421D01*
X59662970Y-88676948D01*
X59782313Y-88756390D01*
X59919157Y-88799142D01*
X59928129Y-88799306D01*
X59928132Y-88799307D01*
X59993463Y-88800504D01*
X60062499Y-88801770D01*
X60071533Y-88799307D01*
X60192158Y-88766421D01*
X60192160Y-88766420D01*
X60200817Y-88764060D01*
X60322991Y-88689045D01*
X60357054Y-88651413D01*
X60413178Y-88589407D01*
X60419200Y-88582754D01*
X60464426Y-88489407D01*
X60477795Y-88461814D01*
X60477796Y-88461812D01*
X60481710Y-88453733D01*
X60505496Y-88312354D01*
X60505647Y-88300000D01*
X60491717Y-88202728D01*
X60490442Y-88193823D01*
X65844391Y-88193823D01*
X65845555Y-88202725D01*
X65845555Y-88202728D01*
X65846814Y-88212354D01*
X65862980Y-88335979D01*
X65866597Y-88344199D01*
X65909564Y-88441848D01*
X65920720Y-88467203D01*
X65926497Y-88474076D01*
X65926498Y-88474077D01*
X65933792Y-88482754D01*
X66012970Y-88576948D01*
X66132313Y-88656390D01*
X66269157Y-88699142D01*
X66278129Y-88699306D01*
X66278132Y-88699307D01*
X66343463Y-88700504D01*
X66412499Y-88701770D01*
X66421533Y-88699307D01*
X66542158Y-88666421D01*
X66542160Y-88666420D01*
X66550817Y-88664060D01*
X66672991Y-88589045D01*
X66769200Y-88482754D01*
X66811489Y-88395470D01*
X66827795Y-88361814D01*
X66827795Y-88361813D01*
X66831710Y-88353733D01*
X66855496Y-88212354D01*
X66855647Y-88200000D01*
X66854762Y-88193823D01*
X67144391Y-88193823D01*
X67145555Y-88202725D01*
X67145555Y-88202728D01*
X67146814Y-88212354D01*
X67162980Y-88335979D01*
X67166597Y-88344199D01*
X67209564Y-88441848D01*
X67220720Y-88467203D01*
X67226497Y-88474076D01*
X67226498Y-88474077D01*
X67233792Y-88482754D01*
X67312970Y-88576948D01*
X67432313Y-88656390D01*
X67569157Y-88699142D01*
X67578129Y-88699306D01*
X67578132Y-88699307D01*
X67643463Y-88700504D01*
X67712499Y-88701770D01*
X67721533Y-88699307D01*
X67842158Y-88666421D01*
X67842160Y-88666420D01*
X67850817Y-88664060D01*
X67972991Y-88589045D01*
X68069200Y-88482754D01*
X68111489Y-88395470D01*
X68127795Y-88361814D01*
X68127795Y-88361813D01*
X68131710Y-88353733D01*
X68137336Y-88320293D01*
X68168363Y-88256435D01*
X68228989Y-88219489D01*
X68299965Y-88221184D01*
X68358758Y-88260983D01*
X68383805Y-88318600D01*
X68384403Y-88318433D01*
X68385607Y-88322744D01*
X68386526Y-88324859D01*
X68387980Y-88335979D01*
X68391597Y-88344199D01*
X68434564Y-88441848D01*
X68445720Y-88467203D01*
X68451497Y-88474076D01*
X68451498Y-88474077D01*
X68458792Y-88482754D01*
X68537970Y-88576948D01*
X68657313Y-88656390D01*
X68794157Y-88699142D01*
X68803129Y-88699306D01*
X68803132Y-88699307D01*
X68868463Y-88700504D01*
X68937499Y-88701770D01*
X68946533Y-88699307D01*
X69067158Y-88666421D01*
X69067160Y-88666420D01*
X69075817Y-88664060D01*
X69197991Y-88589045D01*
X69294200Y-88482754D01*
X69336489Y-88395470D01*
X69352795Y-88361814D01*
X69352795Y-88361813D01*
X69356710Y-88353733D01*
X69380496Y-88212354D01*
X69380647Y-88200000D01*
X69379762Y-88193823D01*
X72169391Y-88193823D01*
X72170555Y-88202725D01*
X72170555Y-88202728D01*
X72171814Y-88212354D01*
X72187980Y-88335979D01*
X72191597Y-88344199D01*
X72234564Y-88441848D01*
X72245720Y-88467203D01*
X72251497Y-88474076D01*
X72251498Y-88474077D01*
X72258792Y-88482754D01*
X72337970Y-88576948D01*
X72457313Y-88656390D01*
X72594157Y-88699142D01*
X72603129Y-88699306D01*
X72603132Y-88699307D01*
X72668463Y-88700504D01*
X72737499Y-88701770D01*
X72746533Y-88699307D01*
X72867158Y-88666421D01*
X72867160Y-88666420D01*
X72875817Y-88664060D01*
X72997991Y-88589045D01*
X73094200Y-88482754D01*
X73136489Y-88395470D01*
X73152795Y-88361814D01*
X73152795Y-88361813D01*
X73156710Y-88353733D01*
X73180496Y-88212354D01*
X73180647Y-88200000D01*
X73179762Y-88193823D01*
X73469391Y-88193823D01*
X73470555Y-88202725D01*
X73470555Y-88202728D01*
X73471814Y-88212354D01*
X73487980Y-88335979D01*
X73491597Y-88344199D01*
X73534564Y-88441848D01*
X73545720Y-88467203D01*
X73551497Y-88474076D01*
X73551498Y-88474077D01*
X73558792Y-88482754D01*
X73637970Y-88576948D01*
X73757313Y-88656390D01*
X73894157Y-88699142D01*
X73903129Y-88699306D01*
X73903132Y-88699307D01*
X73968463Y-88700504D01*
X74037499Y-88701770D01*
X74046533Y-88699307D01*
X74167158Y-88666421D01*
X74167160Y-88666420D01*
X74175817Y-88664060D01*
X74297991Y-88589045D01*
X74394200Y-88482754D01*
X74436489Y-88395470D01*
X74452795Y-88361814D01*
X74452795Y-88361813D01*
X74456710Y-88353733D01*
X74480496Y-88212354D01*
X74480647Y-88200000D01*
X74460323Y-88058082D01*
X74455044Y-88046470D01*
X74404700Y-87935746D01*
X74400984Y-87927572D01*
X74371652Y-87893531D01*
X74313260Y-87825763D01*
X74313257Y-87825760D01*
X74307400Y-87818963D01*
X74187095Y-87740985D01*
X74049739Y-87699907D01*
X74040763Y-87699852D01*
X74040762Y-87699852D01*
X73980555Y-87699484D01*
X73906376Y-87699031D01*
X73768529Y-87738428D01*
X73647280Y-87814930D01*
X73641338Y-87821658D01*
X73641337Y-87821659D01*
X73626527Y-87838428D01*
X73552377Y-87922388D01*
X73491447Y-88052163D01*
X73490066Y-88061034D01*
X73490066Y-88061035D01*
X73472424Y-88174346D01*
X73469391Y-88193823D01*
X73179762Y-88193823D01*
X73160323Y-88058082D01*
X73155044Y-88046470D01*
X73104700Y-87935746D01*
X73100984Y-87927572D01*
X73071652Y-87893531D01*
X73013260Y-87825763D01*
X73013257Y-87825760D01*
X73007400Y-87818963D01*
X72887095Y-87740985D01*
X72749739Y-87699907D01*
X72740763Y-87699852D01*
X72740762Y-87699852D01*
X72680555Y-87699484D01*
X72606376Y-87699031D01*
X72468529Y-87738428D01*
X72347280Y-87814930D01*
X72341338Y-87821658D01*
X72341337Y-87821659D01*
X72326527Y-87838428D01*
X72252377Y-87922388D01*
X72191447Y-88052163D01*
X72190066Y-88061034D01*
X72190066Y-88061035D01*
X72172424Y-88174346D01*
X72169391Y-88193823D01*
X69379762Y-88193823D01*
X69360323Y-88058082D01*
X69355044Y-88046470D01*
X69304700Y-87935746D01*
X69300984Y-87927572D01*
X69271652Y-87893531D01*
X69213260Y-87825763D01*
X69213257Y-87825760D01*
X69207400Y-87818963D01*
X69087095Y-87740985D01*
X68949739Y-87699907D01*
X68940763Y-87699852D01*
X68940762Y-87699852D01*
X68880555Y-87699484D01*
X68806376Y-87699031D01*
X68668529Y-87738428D01*
X68547280Y-87814930D01*
X68541338Y-87821658D01*
X68541337Y-87821659D01*
X68526527Y-87838428D01*
X68452377Y-87922388D01*
X68391447Y-88052163D01*
X68390066Y-88061034D01*
X68387299Y-88078804D01*
X68357054Y-88143036D01*
X68296884Y-88180720D01*
X68225892Y-88179892D01*
X68166618Y-88140813D01*
X68138073Y-88077281D01*
X68135323Y-88058082D01*
X68130044Y-88046470D01*
X68079700Y-87935746D01*
X68075984Y-87927572D01*
X68046652Y-87893531D01*
X67988260Y-87825763D01*
X67988257Y-87825760D01*
X67982400Y-87818963D01*
X67862095Y-87740985D01*
X67724739Y-87699907D01*
X67715763Y-87699852D01*
X67715762Y-87699852D01*
X67655555Y-87699484D01*
X67581376Y-87699031D01*
X67443529Y-87738428D01*
X67322280Y-87814930D01*
X67316338Y-87821658D01*
X67316337Y-87821659D01*
X67301527Y-87838428D01*
X67227377Y-87922388D01*
X67166447Y-88052163D01*
X67165066Y-88061034D01*
X67165066Y-88061035D01*
X67147424Y-88174346D01*
X67144391Y-88193823D01*
X66854762Y-88193823D01*
X66835323Y-88058082D01*
X66830044Y-88046470D01*
X66779700Y-87935746D01*
X66775984Y-87927572D01*
X66746652Y-87893531D01*
X66688260Y-87825763D01*
X66688257Y-87825760D01*
X66682400Y-87818963D01*
X66562095Y-87740985D01*
X66424739Y-87699907D01*
X66415763Y-87699852D01*
X66415762Y-87699852D01*
X66355555Y-87699484D01*
X66281376Y-87699031D01*
X66143529Y-87738428D01*
X66022280Y-87814930D01*
X66016338Y-87821658D01*
X66016337Y-87821659D01*
X66001527Y-87838428D01*
X65927377Y-87922388D01*
X65866447Y-88052163D01*
X65865066Y-88061034D01*
X65865066Y-88061035D01*
X65847424Y-88174346D01*
X65844391Y-88193823D01*
X60490442Y-88193823D01*
X60486596Y-88166968D01*
X60486595Y-88166965D01*
X60485323Y-88158082D01*
X60425984Y-88027572D01*
X60399185Y-87996470D01*
X60338260Y-87925763D01*
X60338257Y-87925760D01*
X60332400Y-87918963D01*
X60212095Y-87840985D01*
X60074739Y-87799907D01*
X60065763Y-87799852D01*
X60065762Y-87799852D01*
X60005555Y-87799484D01*
X59931376Y-87799031D01*
X59793529Y-87838428D01*
X59672280Y-87914930D01*
X59577377Y-88022388D01*
X59516447Y-88152163D01*
X59515066Y-88161035D01*
X59496881Y-88277833D01*
X59494391Y-88293823D01*
X59204762Y-88293823D01*
X59191717Y-88202728D01*
X59186596Y-88166968D01*
X59186595Y-88166965D01*
X59185323Y-88158082D01*
X59125984Y-88027572D01*
X59099185Y-87996470D01*
X59038260Y-87925763D01*
X59038257Y-87925760D01*
X59032400Y-87918963D01*
X58912095Y-87840985D01*
X58774739Y-87799907D01*
X58765763Y-87799852D01*
X58765762Y-87799852D01*
X58705555Y-87799484D01*
X58631376Y-87799031D01*
X58493529Y-87838428D01*
X58372280Y-87914930D01*
X58277377Y-88022388D01*
X58216447Y-88152163D01*
X58214991Y-88151480D01*
X58181538Y-88202285D01*
X58116633Y-88231059D01*
X58046476Y-88220175D01*
X57993340Y-88173089D01*
X57986382Y-88157600D01*
X57985323Y-88158082D01*
X57969984Y-88124346D01*
X57925984Y-88027572D01*
X57899185Y-87996470D01*
X57838260Y-87925763D01*
X57838257Y-87925760D01*
X57832400Y-87918963D01*
X57712095Y-87840985D01*
X57574739Y-87799907D01*
X57565763Y-87799852D01*
X57565762Y-87799852D01*
X57505555Y-87799484D01*
X57431376Y-87799031D01*
X57293529Y-87838428D01*
X57172280Y-87914930D01*
X57077377Y-88022388D01*
X57016447Y-88152163D01*
X57015066Y-88161035D01*
X56996881Y-88277833D01*
X56994391Y-88293823D01*
X55580231Y-88293823D01*
X55582747Y-88293403D01*
X55778678Y-88226140D01*
X55783260Y-88223660D01*
X55783263Y-88223659D01*
X55956284Y-88130025D01*
X55956287Y-88130023D01*
X55960866Y-88127545D01*
X56060101Y-88050307D01*
X56120230Y-88003507D01*
X56120232Y-88003505D01*
X56124341Y-88000307D01*
X56264644Y-87847897D01*
X56361367Y-87699852D01*
X56375099Y-87678834D01*
X56375100Y-87678832D01*
X56377948Y-87674473D01*
X56461161Y-87484765D01*
X56512015Y-87283948D01*
X56525491Y-87121329D01*
X77519734Y-87121329D01*
X77520577Y-87127773D01*
X77520884Y-87131478D01*
X77520884Y-87131482D01*
X77533518Y-87283948D01*
X77537661Y-87333948D01*
X77588515Y-87534765D01*
X77671728Y-87724473D01*
X77785032Y-87897897D01*
X77925335Y-88050307D01*
X78088810Y-88177545D01*
X78093389Y-88180023D01*
X78093392Y-88180025D01*
X78266413Y-88273659D01*
X78266416Y-88273660D01*
X78270998Y-88276140D01*
X78466929Y-88343403D01*
X78472063Y-88344260D01*
X78472068Y-88344261D01*
X78666123Y-88376643D01*
X78666126Y-88376643D01*
X78671260Y-88377500D01*
X78878416Y-88377500D01*
X78883550Y-88376643D01*
X78883553Y-88376643D01*
X79077608Y-88344261D01*
X79077613Y-88344260D01*
X79082747Y-88343403D01*
X79278678Y-88276140D01*
X79283260Y-88273660D01*
X79283263Y-88273659D01*
X79456284Y-88180025D01*
X79456287Y-88180023D01*
X79460866Y-88177545D01*
X79624341Y-88050307D01*
X79764644Y-87897897D01*
X79877948Y-87724473D01*
X79961161Y-87534765D01*
X80012015Y-87333948D01*
X80016159Y-87283948D01*
X80025984Y-87165371D01*
X80027298Y-87154890D01*
X80029829Y-87139842D01*
X80029980Y-87127500D01*
X80026111Y-87100484D01*
X80024838Y-87082622D01*
X80024838Y-86630034D01*
X80026584Y-86609130D01*
X80029022Y-86594639D01*
X80029022Y-86594638D01*
X80029829Y-86589842D01*
X80029980Y-86577500D01*
X80028476Y-86566997D01*
X80027634Y-86559541D01*
X80012446Y-86376248D01*
X80012445Y-86376243D01*
X80012015Y-86371052D01*
X79983264Y-86257518D01*
X79962443Y-86175297D01*
X79962443Y-86175296D01*
X79961161Y-86170235D01*
X79893420Y-86015800D01*
X79880041Y-85985298D01*
X79880040Y-85985295D01*
X79877948Y-85980527D01*
X79874680Y-85975524D01*
X79800163Y-85861469D01*
X79764644Y-85807103D01*
X79624341Y-85654693D01*
X79615646Y-85647925D01*
X79464976Y-85530654D01*
X79460866Y-85527455D01*
X79456287Y-85524977D01*
X79456284Y-85524975D01*
X79283263Y-85431341D01*
X79283260Y-85431340D01*
X79278678Y-85428860D01*
X79109118Y-85370650D01*
X96340637Y-85370650D01*
X96376403Y-85604384D01*
X96449864Y-85829138D01*
X96452252Y-85833726D01*
X96452254Y-85833730D01*
X96546971Y-86015680D01*
X96559046Y-86038875D01*
X96562149Y-86043008D01*
X96562151Y-86043011D01*
X96697914Y-86223830D01*
X96701019Y-86227965D01*
X96704757Y-86231537D01*
X96845457Y-86365993D01*
X96871967Y-86391327D01*
X96876236Y-86394239D01*
X97063031Y-86521662D01*
X97063035Y-86521664D01*
X97067302Y-86524575D01*
X97281777Y-86624131D01*
X97286759Y-86625513D01*
X97286760Y-86625513D01*
X97395704Y-86655726D01*
X97509632Y-86687321D01*
X97514766Y-86687870D01*
X97514768Y-86687870D01*
X97699332Y-86707594D01*
X97699339Y-86707594D01*
X97702667Y-86707950D01*
X97839939Y-86707950D01*
X97842512Y-86707738D01*
X97842523Y-86707738D01*
X97940741Y-86699662D01*
X98015659Y-86693503D01*
X98244990Y-86635899D01*
X98411998Y-86563282D01*
X98457096Y-86543673D01*
X98457099Y-86543671D01*
X98461833Y-86541613D01*
X98615819Y-86441995D01*
X98656022Y-86415987D01*
X98656025Y-86415985D01*
X98660365Y-86413177D01*
X98688303Y-86387756D01*
X98831432Y-86257518D01*
X98831433Y-86257516D01*
X98835254Y-86254040D01*
X98838453Y-86249989D01*
X98838457Y-86249985D01*
X98978603Y-86072530D01*
X98978607Y-86072525D01*
X98981804Y-86068476D01*
X98984299Y-86063957D01*
X99093581Y-85865993D01*
X99093583Y-85865989D01*
X99096078Y-85861469D01*
X99100119Y-85850059D01*
X99173282Y-85643452D01*
X99173283Y-85643448D01*
X99175008Y-85638577D01*
X99181614Y-85601493D01*
X99215568Y-85410876D01*
X99215569Y-85410870D01*
X99216474Y-85405787D01*
X99217637Y-85310607D01*
X99570222Y-85310607D01*
X99571462Y-85317823D01*
X99571462Y-85317825D01*
X99579274Y-85363290D01*
X99599673Y-85482004D01*
X99602538Y-85488738D01*
X99602539Y-85488740D01*
X99664128Y-85633481D01*
X99667765Y-85642029D01*
X99770843Y-85782097D01*
X99903380Y-85894695D01*
X99909895Y-85898022D01*
X99909897Y-85898023D01*
X99965012Y-85926166D01*
X100058265Y-85973783D01*
X100065374Y-85975523D01*
X100065378Y-85975524D01*
X100184711Y-86004724D01*
X100227190Y-86015119D01*
X100232789Y-86015466D01*
X100232793Y-86015467D01*
X100236228Y-86015680D01*
X100236237Y-86015680D01*
X100238167Y-86015800D01*
X100363547Y-86015800D01*
X100453922Y-86005263D01*
X100485467Y-86001586D01*
X100485469Y-86001586D01*
X100492739Y-86000738D01*
X100499616Y-85998242D01*
X100499619Y-85998241D01*
X100649333Y-85943897D01*
X100656212Y-85941400D01*
X100771227Y-85865993D01*
X100795531Y-85850059D01*
X100795532Y-85850058D01*
X100801650Y-85846047D01*
X100921251Y-85719793D01*
X101008599Y-85569412D01*
X101033033Y-85488740D01*
X101056888Y-85409975D01*
X101059010Y-85402969D01*
X101061015Y-85370650D01*
X101420637Y-85370650D01*
X101456403Y-85604384D01*
X101529864Y-85829138D01*
X101532252Y-85833726D01*
X101532254Y-85833730D01*
X101626971Y-86015680D01*
X101639046Y-86038875D01*
X101642149Y-86043008D01*
X101642151Y-86043011D01*
X101777914Y-86223830D01*
X101781019Y-86227965D01*
X101784757Y-86231537D01*
X101925457Y-86365993D01*
X101951967Y-86391327D01*
X101956236Y-86394239D01*
X102143031Y-86521662D01*
X102143035Y-86521664D01*
X102147302Y-86524575D01*
X102361777Y-86624131D01*
X102366759Y-86625513D01*
X102366760Y-86625513D01*
X102475704Y-86655726D01*
X102589632Y-86687321D01*
X102594766Y-86687870D01*
X102594768Y-86687870D01*
X102779332Y-86707594D01*
X102779339Y-86707594D01*
X102782667Y-86707950D01*
X102919939Y-86707950D01*
X102922512Y-86707738D01*
X102922523Y-86707738D01*
X103020741Y-86699662D01*
X103095659Y-86693503D01*
X103324990Y-86635899D01*
X103491998Y-86563282D01*
X103537096Y-86543673D01*
X103537099Y-86543671D01*
X103541833Y-86541613D01*
X103695819Y-86441995D01*
X103736022Y-86415987D01*
X103736025Y-86415985D01*
X103740365Y-86413177D01*
X103768303Y-86387756D01*
X103911432Y-86257518D01*
X103911433Y-86257516D01*
X103915254Y-86254040D01*
X103918453Y-86249989D01*
X103918457Y-86249985D01*
X104058603Y-86072530D01*
X104058607Y-86072525D01*
X104061804Y-86068476D01*
X104064299Y-86063957D01*
X104173581Y-85865993D01*
X104173583Y-85865989D01*
X104176078Y-85861469D01*
X104180119Y-85850059D01*
X104253282Y-85643452D01*
X104253283Y-85643448D01*
X104255008Y-85638577D01*
X104261614Y-85601493D01*
X104295568Y-85410876D01*
X104295569Y-85410870D01*
X104296474Y-85405787D01*
X104299363Y-85169350D01*
X104263597Y-84935616D01*
X104190136Y-84710862D01*
X104179246Y-84689941D01*
X104083343Y-84505714D01*
X104083342Y-84505713D01*
X104080954Y-84501125D01*
X103938981Y-84312035D01*
X103768033Y-84148673D01*
X103729950Y-84122695D01*
X103576969Y-84018338D01*
X103576965Y-84018336D01*
X103572698Y-84015425D01*
X103358223Y-83915869D01*
X103311250Y-83902842D01*
X103135351Y-83854061D01*
X103135352Y-83854061D01*
X103130368Y-83852679D01*
X103125234Y-83852130D01*
X103125232Y-83852130D01*
X102940668Y-83832406D01*
X102940661Y-83832406D01*
X102937333Y-83832050D01*
X102800061Y-83832050D01*
X102797488Y-83832262D01*
X102797477Y-83832262D01*
X102699259Y-83840338D01*
X102624341Y-83846497D01*
X102395010Y-83904101D01*
X102267781Y-83959422D01*
X102182904Y-83996327D01*
X102182901Y-83996329D01*
X102178167Y-83998387D01*
X102056939Y-84076813D01*
X101983978Y-84124013D01*
X101983975Y-84124015D01*
X101979635Y-84126823D01*
X101975812Y-84130302D01*
X101975809Y-84130304D01*
X101808568Y-84282482D01*
X101804746Y-84285960D01*
X101801547Y-84290011D01*
X101801543Y-84290015D01*
X101661397Y-84467470D01*
X101661393Y-84467475D01*
X101658196Y-84471524D01*
X101655703Y-84476040D01*
X101655701Y-84476043D01*
X101562264Y-84645305D01*
X101543922Y-84678531D01*
X101542198Y-84683400D01*
X101542196Y-84683404D01*
X101493752Y-84820207D01*
X101464992Y-84901423D01*
X101464085Y-84906516D01*
X101464084Y-84906519D01*
X101451424Y-84977596D01*
X101423526Y-85134213D01*
X101423463Y-85139377D01*
X101420748Y-85361597D01*
X101420637Y-85370650D01*
X101061015Y-85370650D01*
X101069778Y-85229393D01*
X101040327Y-85057996D01*
X101000441Y-84964258D01*
X100975102Y-84904708D01*
X100975101Y-84904706D01*
X100972235Y-84897971D01*
X100869157Y-84757903D01*
X100736620Y-84645305D01*
X100730105Y-84641978D01*
X100730103Y-84641977D01*
X100588256Y-84569547D01*
X100581735Y-84566217D01*
X100574626Y-84564477D01*
X100574622Y-84564476D01*
X100455289Y-84535276D01*
X100412810Y-84524881D01*
X100407211Y-84524534D01*
X100407207Y-84524533D01*
X100403772Y-84524320D01*
X100403763Y-84524320D01*
X100401833Y-84524200D01*
X100276453Y-84524200D01*
X100186078Y-84534737D01*
X100154533Y-84538414D01*
X100154531Y-84538414D01*
X100147261Y-84539262D01*
X100140384Y-84541758D01*
X100140381Y-84541759D01*
X100073001Y-84566217D01*
X99983788Y-84598600D01*
X99917627Y-84641977D01*
X99861873Y-84678531D01*
X99838350Y-84693953D01*
X99718749Y-84820207D01*
X99631401Y-84970588D01*
X99629280Y-84977592D01*
X99629278Y-84977596D01*
X99602743Y-85065209D01*
X99580990Y-85137031D01*
X99570222Y-85310607D01*
X99217637Y-85310607D01*
X99219363Y-85169350D01*
X99183597Y-84935616D01*
X99110136Y-84710862D01*
X99099246Y-84689941D01*
X99003343Y-84505714D01*
X99003342Y-84505713D01*
X99000954Y-84501125D01*
X98858981Y-84312035D01*
X98688033Y-84148673D01*
X98649950Y-84122695D01*
X98496969Y-84018338D01*
X98496965Y-84018336D01*
X98492698Y-84015425D01*
X98278223Y-83915869D01*
X98231250Y-83902842D01*
X98055351Y-83854061D01*
X98055352Y-83854061D01*
X98050368Y-83852679D01*
X98045234Y-83852130D01*
X98045232Y-83852130D01*
X97860668Y-83832406D01*
X97860661Y-83832406D01*
X97857333Y-83832050D01*
X97720061Y-83832050D01*
X97717488Y-83832262D01*
X97717477Y-83832262D01*
X97619259Y-83840338D01*
X97544341Y-83846497D01*
X97315010Y-83904101D01*
X97187781Y-83959422D01*
X97102904Y-83996327D01*
X97102901Y-83996329D01*
X97098167Y-83998387D01*
X96976939Y-84076813D01*
X96903978Y-84124013D01*
X96903975Y-84124015D01*
X96899635Y-84126823D01*
X96895812Y-84130302D01*
X96895809Y-84130304D01*
X96728568Y-84282482D01*
X96724746Y-84285960D01*
X96721547Y-84290011D01*
X96721543Y-84290015D01*
X96581397Y-84467470D01*
X96581393Y-84467475D01*
X96578196Y-84471524D01*
X96575703Y-84476040D01*
X96575701Y-84476043D01*
X96482264Y-84645305D01*
X96463922Y-84678531D01*
X96462198Y-84683400D01*
X96462196Y-84683404D01*
X96413752Y-84820207D01*
X96384992Y-84901423D01*
X96384085Y-84906516D01*
X96384084Y-84906519D01*
X96371424Y-84977596D01*
X96343526Y-85134213D01*
X96343463Y-85139377D01*
X96340748Y-85361597D01*
X96340637Y-85370650D01*
X79109118Y-85370650D01*
X79082747Y-85361597D01*
X79077613Y-85360740D01*
X79077608Y-85360739D01*
X78883553Y-85328357D01*
X78883550Y-85328357D01*
X78878416Y-85327500D01*
X78671260Y-85327500D01*
X78666126Y-85328357D01*
X78666123Y-85328357D01*
X78472068Y-85360739D01*
X78472063Y-85360740D01*
X78466929Y-85361597D01*
X78270998Y-85428860D01*
X78266416Y-85431340D01*
X78266413Y-85431341D01*
X78093392Y-85524975D01*
X78093389Y-85524977D01*
X78088810Y-85527455D01*
X78084700Y-85530654D01*
X77934031Y-85647925D01*
X77925335Y-85654693D01*
X77785032Y-85807103D01*
X77749513Y-85861469D01*
X77674997Y-85975524D01*
X77671728Y-85980527D01*
X77669636Y-85985295D01*
X77669635Y-85985298D01*
X77656256Y-86015800D01*
X77588515Y-86170235D01*
X77587233Y-86175296D01*
X77587233Y-86175297D01*
X77566412Y-86257518D01*
X77537661Y-86371052D01*
X77537231Y-86376243D01*
X77537230Y-86376248D01*
X77522953Y-86548546D01*
X77521883Y-86557523D01*
X77521279Y-86561408D01*
X77519734Y-86571329D01*
X77520898Y-86580231D01*
X77520898Y-86580234D01*
X77523774Y-86602225D01*
X77524838Y-86618562D01*
X77524838Y-87078797D01*
X77523338Y-87098181D01*
X77519734Y-87121329D01*
X56525491Y-87121329D01*
X56525985Y-87115364D01*
X56527298Y-87104890D01*
X56529829Y-87089842D01*
X56529918Y-87082622D01*
X56529921Y-87082359D01*
X56529921Y-87082353D01*
X56529980Y-87077500D01*
X56526111Y-87050484D01*
X56524838Y-87032622D01*
X56524838Y-86580034D01*
X56526584Y-86559130D01*
X56529022Y-86544639D01*
X56529022Y-86544638D01*
X56529829Y-86539842D01*
X56529980Y-86527500D01*
X56528476Y-86516997D01*
X56527634Y-86509541D01*
X56512446Y-86326248D01*
X56512445Y-86326243D01*
X56512015Y-86321052D01*
X56461161Y-86120235D01*
X56415206Y-86015467D01*
X56380041Y-85935298D01*
X56380040Y-85935295D01*
X56377948Y-85930527D01*
X56264644Y-85757103D01*
X56124341Y-85604693D01*
X55960866Y-85477455D01*
X55956287Y-85474977D01*
X55956284Y-85474975D01*
X55783263Y-85381341D01*
X55783260Y-85381340D01*
X55778678Y-85378860D01*
X55582747Y-85311597D01*
X55577613Y-85310740D01*
X55577608Y-85310739D01*
X55383553Y-85278357D01*
X55383550Y-85278357D01*
X55378416Y-85277500D01*
X55171260Y-85277500D01*
X55166126Y-85278357D01*
X55166123Y-85278357D01*
X54972068Y-85310739D01*
X54972063Y-85310740D01*
X54966929Y-85311597D01*
X54770998Y-85378860D01*
X54766416Y-85381340D01*
X54766413Y-85381341D01*
X54593392Y-85474975D01*
X54593389Y-85474977D01*
X54588810Y-85477455D01*
X54425335Y-85604693D01*
X54285032Y-85757103D01*
X54171728Y-85930527D01*
X54169636Y-85935295D01*
X54169635Y-85935298D01*
X54134470Y-86015467D01*
X54088515Y-86120235D01*
X54037661Y-86321052D01*
X54037231Y-86326243D01*
X54037230Y-86326248D01*
X54022953Y-86498546D01*
X54021883Y-86507523D01*
X54021617Y-86509234D01*
X54019734Y-86521329D01*
X54020898Y-86530231D01*
X54020898Y-86530234D01*
X54023774Y-86552225D01*
X54024838Y-86568562D01*
X54024838Y-87028797D01*
X54023338Y-87048181D01*
X54019734Y-87071329D01*
X24500001Y-87071329D01*
X24500001Y-82493823D01*
X77094391Y-82493823D01*
X77095555Y-82502725D01*
X77095555Y-82502728D01*
X77096814Y-82512354D01*
X77112980Y-82635979D01*
X77170720Y-82767203D01*
X77176497Y-82774076D01*
X77176498Y-82774077D01*
X77251981Y-82863875D01*
X77262970Y-82876948D01*
X77382313Y-82956390D01*
X77519157Y-82999142D01*
X77528129Y-82999306D01*
X77528132Y-82999307D01*
X77593463Y-83000504D01*
X77662499Y-83001770D01*
X77671533Y-82999307D01*
X77792158Y-82966421D01*
X77792160Y-82966420D01*
X77800817Y-82964060D01*
X77922991Y-82889045D01*
X78019200Y-82782754D01*
X78081710Y-82653733D01*
X78105496Y-82512354D01*
X78105647Y-82500000D01*
X78085323Y-82358082D01*
X78025984Y-82227572D01*
X77998478Y-82195650D01*
X96340637Y-82195650D01*
X96376403Y-82429384D01*
X96449864Y-82654138D01*
X96452252Y-82658726D01*
X96452254Y-82658730D01*
X96516817Y-82782754D01*
X96559046Y-82863875D01*
X96562149Y-82868008D01*
X96562151Y-82868011D01*
X96697914Y-83048830D01*
X96701019Y-83052965D01*
X96871967Y-83216327D01*
X96876236Y-83219239D01*
X97063031Y-83346662D01*
X97063035Y-83346664D01*
X97067302Y-83349575D01*
X97281777Y-83449131D01*
X97286759Y-83450513D01*
X97286760Y-83450513D01*
X97395704Y-83480726D01*
X97509632Y-83512321D01*
X97514766Y-83512870D01*
X97514768Y-83512870D01*
X97699332Y-83532594D01*
X97699339Y-83532594D01*
X97702667Y-83532950D01*
X97839939Y-83532950D01*
X97842512Y-83532738D01*
X97842523Y-83532738D01*
X97940741Y-83524662D01*
X98015659Y-83518503D01*
X98244990Y-83460899D01*
X98372219Y-83405578D01*
X98457096Y-83368673D01*
X98457099Y-83368671D01*
X98461833Y-83366613D01*
X98583061Y-83288187D01*
X98656022Y-83240987D01*
X98656025Y-83240985D01*
X98660365Y-83238177D01*
X98688303Y-83212756D01*
X98831432Y-83082518D01*
X98831433Y-83082516D01*
X98835254Y-83079040D01*
X98838453Y-83074989D01*
X98838457Y-83074985D01*
X98978603Y-82897530D01*
X98978607Y-82897525D01*
X98981804Y-82893476D01*
X98984299Y-82888957D01*
X99093581Y-82690993D01*
X99093583Y-82690989D01*
X99096078Y-82686469D01*
X99107671Y-82653733D01*
X99173282Y-82468452D01*
X99173283Y-82468448D01*
X99175008Y-82463577D01*
X99181099Y-82429384D01*
X99215568Y-82235876D01*
X99215569Y-82235870D01*
X99216474Y-82230787D01*
X99216903Y-82195650D01*
X101420637Y-82195650D01*
X101456403Y-82429384D01*
X101529864Y-82654138D01*
X101532252Y-82658726D01*
X101532254Y-82658730D01*
X101596817Y-82782754D01*
X101639046Y-82863875D01*
X101642149Y-82868008D01*
X101642151Y-82868011D01*
X101777914Y-83048830D01*
X101781019Y-83052965D01*
X101951967Y-83216327D01*
X101956236Y-83219239D01*
X102143031Y-83346662D01*
X102143035Y-83346664D01*
X102147302Y-83349575D01*
X102361777Y-83449131D01*
X102366759Y-83450513D01*
X102366760Y-83450513D01*
X102475704Y-83480726D01*
X102589632Y-83512321D01*
X102594766Y-83512870D01*
X102594768Y-83512870D01*
X102779332Y-83532594D01*
X102779339Y-83532594D01*
X102782667Y-83532950D01*
X102919939Y-83532950D01*
X102922512Y-83532738D01*
X102922523Y-83532738D01*
X103020741Y-83524662D01*
X103095659Y-83518503D01*
X103324990Y-83460899D01*
X103452219Y-83405578D01*
X103537096Y-83368673D01*
X103537099Y-83368671D01*
X103541833Y-83366613D01*
X103663061Y-83288187D01*
X103736022Y-83240987D01*
X103736025Y-83240985D01*
X103740365Y-83238177D01*
X103768303Y-83212756D01*
X103911432Y-83082518D01*
X103911433Y-83082516D01*
X103915254Y-83079040D01*
X103918453Y-83074989D01*
X103918457Y-83074985D01*
X104058603Y-82897530D01*
X104058607Y-82897525D01*
X104061804Y-82893476D01*
X104064299Y-82888957D01*
X104173581Y-82690993D01*
X104173583Y-82690989D01*
X104176078Y-82686469D01*
X104187671Y-82653733D01*
X104253282Y-82468452D01*
X104253283Y-82468448D01*
X104255008Y-82463577D01*
X104261099Y-82429384D01*
X104295568Y-82235876D01*
X104295569Y-82235870D01*
X104296474Y-82230787D01*
X104297948Y-82110140D01*
X104299300Y-81999519D01*
X104299300Y-81999517D01*
X104299363Y-81994350D01*
X104263597Y-81760616D01*
X104190136Y-81535862D01*
X104175843Y-81508404D01*
X104083343Y-81330714D01*
X104083342Y-81330713D01*
X104080954Y-81326125D01*
X103938981Y-81137035D01*
X103768033Y-80973673D01*
X103690433Y-80920738D01*
X103576969Y-80843338D01*
X103576965Y-80843336D01*
X103572698Y-80840425D01*
X103358223Y-80740869D01*
X103311250Y-80727842D01*
X103135351Y-80679061D01*
X103135352Y-80679061D01*
X103130368Y-80677679D01*
X103125234Y-80677130D01*
X103125232Y-80677130D01*
X102940668Y-80657406D01*
X102940661Y-80657406D01*
X102937333Y-80657050D01*
X102800061Y-80657050D01*
X102797488Y-80657262D01*
X102797477Y-80657262D01*
X102699259Y-80665338D01*
X102624341Y-80671497D01*
X102395010Y-80729101D01*
X102341693Y-80752284D01*
X102182904Y-80821327D01*
X102182901Y-80821329D01*
X102178167Y-80823387D01*
X102004403Y-80935800D01*
X101990601Y-80944729D01*
X101968403Y-80951319D01*
X101961401Y-80967030D01*
X101950233Y-80978577D01*
X101804746Y-81110960D01*
X101801547Y-81115011D01*
X101801543Y-81115015D01*
X101661397Y-81292470D01*
X101661393Y-81292475D01*
X101658196Y-81296524D01*
X101655703Y-81301040D01*
X101655701Y-81301043D01*
X101644139Y-81321989D01*
X101543922Y-81503531D01*
X101464992Y-81726423D01*
X101464085Y-81731516D01*
X101464084Y-81731519D01*
X101457991Y-81765728D01*
X101423526Y-81959213D01*
X101420637Y-82195650D01*
X99216903Y-82195650D01*
X99217948Y-82110140D01*
X99219300Y-81999519D01*
X99219300Y-81999517D01*
X99219363Y-81994350D01*
X99183597Y-81760616D01*
X99110136Y-81535862D01*
X99095843Y-81508404D01*
X99003343Y-81330714D01*
X99003342Y-81330713D01*
X99000954Y-81326125D01*
X98858981Y-81137035D01*
X98707315Y-80992099D01*
X98699783Y-80979019D01*
X98699410Y-80978969D01*
X98679627Y-80967938D01*
X98496977Y-80843343D01*
X98496969Y-80843338D01*
X98492698Y-80840425D01*
X98278223Y-80740869D01*
X98231250Y-80727842D01*
X98055351Y-80679061D01*
X98055352Y-80679061D01*
X98050368Y-80677679D01*
X98045234Y-80677130D01*
X98045232Y-80677130D01*
X97860668Y-80657406D01*
X97860661Y-80657406D01*
X97857333Y-80657050D01*
X97720061Y-80657050D01*
X97717488Y-80657262D01*
X97717477Y-80657262D01*
X97619259Y-80665338D01*
X97544341Y-80671497D01*
X97315010Y-80729101D01*
X97261693Y-80752284D01*
X97102904Y-80821327D01*
X97102901Y-80821329D01*
X97098167Y-80823387D01*
X96994499Y-80890453D01*
X96903978Y-80949013D01*
X96903975Y-80949015D01*
X96899635Y-80951823D01*
X96895812Y-80955302D01*
X96895809Y-80955304D01*
X96870226Y-80978583D01*
X96724746Y-81110960D01*
X96721547Y-81115011D01*
X96721543Y-81115015D01*
X96581397Y-81292470D01*
X96581393Y-81292475D01*
X96578196Y-81296524D01*
X96575703Y-81301040D01*
X96575701Y-81301043D01*
X96564139Y-81321989D01*
X96463922Y-81503531D01*
X96384992Y-81726423D01*
X96384085Y-81731516D01*
X96384084Y-81731519D01*
X96377991Y-81765728D01*
X96343526Y-81959213D01*
X96340637Y-82195650D01*
X77998478Y-82195650D01*
X77994024Y-82190481D01*
X77938260Y-82125763D01*
X77938257Y-82125760D01*
X77932400Y-82118963D01*
X77812095Y-82040985D01*
X77674739Y-81999907D01*
X77665763Y-81999852D01*
X77665762Y-81999852D01*
X77605555Y-81999484D01*
X77531376Y-81999031D01*
X77393529Y-82038428D01*
X77272280Y-82114930D01*
X77177377Y-82222388D01*
X77116447Y-82352163D01*
X77115066Y-82361035D01*
X77099894Y-82458481D01*
X77094391Y-82493823D01*
X24500001Y-82493823D01*
X24500001Y-80323823D01*
X56914391Y-80323823D01*
X56915555Y-80332725D01*
X56915555Y-80332728D01*
X56916814Y-80342354D01*
X56932980Y-80465979D01*
X56990720Y-80597203D01*
X56996497Y-80604076D01*
X56996498Y-80604077D01*
X57073934Y-80696198D01*
X57082970Y-80706948D01*
X57202313Y-80786390D01*
X57210888Y-80789069D01*
X57211832Y-80789364D01*
X57339157Y-80829142D01*
X57348129Y-80829306D01*
X57348132Y-80829307D01*
X57413463Y-80830504D01*
X57482499Y-80831770D01*
X57491533Y-80829307D01*
X57612158Y-80796421D01*
X57612160Y-80796420D01*
X57620817Y-80794060D01*
X57742991Y-80719045D01*
X57758332Y-80702097D01*
X57833178Y-80619407D01*
X57839200Y-80612754D01*
X57901710Y-80483733D01*
X57925496Y-80342354D01*
X57925647Y-80330000D01*
X57911413Y-80230607D01*
X98554222Y-80230607D01*
X98583673Y-80402004D01*
X98586538Y-80408738D01*
X98586539Y-80408740D01*
X98614393Y-80474199D01*
X98651765Y-80562029D01*
X98754843Y-80702097D01*
X98760426Y-80706840D01*
X98832210Y-80767825D01*
X98845277Y-80787729D01*
X98852227Y-80789076D01*
X98875941Y-80804977D01*
X98887380Y-80814695D01*
X98893895Y-80818022D01*
X98893897Y-80818023D01*
X98920496Y-80831605D01*
X99042265Y-80893783D01*
X99049374Y-80895523D01*
X99049378Y-80895524D01*
X99168711Y-80924724D01*
X99211190Y-80935119D01*
X99216789Y-80935466D01*
X99216793Y-80935467D01*
X99220228Y-80935680D01*
X99220237Y-80935680D01*
X99222167Y-80935800D01*
X99347547Y-80935800D01*
X99437922Y-80925263D01*
X99469467Y-80921586D01*
X99469469Y-80921586D01*
X99476739Y-80920738D01*
X99483616Y-80918242D01*
X99483619Y-80918241D01*
X99633333Y-80863897D01*
X99640212Y-80861400D01*
X99750525Y-80789076D01*
X99779531Y-80770059D01*
X99779532Y-80770058D01*
X99785650Y-80766047D01*
X99905251Y-80639793D01*
X99992599Y-80489412D01*
X99999697Y-80465979D01*
X100040054Y-80332728D01*
X100043010Y-80322969D01*
X100048740Y-80230607D01*
X100586222Y-80230607D01*
X100615673Y-80402004D01*
X100618538Y-80408738D01*
X100618539Y-80408740D01*
X100646393Y-80474199D01*
X100683765Y-80562029D01*
X100786843Y-80702097D01*
X100919380Y-80814695D01*
X100925895Y-80818022D01*
X100925897Y-80818023D01*
X100952496Y-80831605D01*
X101074265Y-80893783D01*
X101081374Y-80895523D01*
X101081378Y-80895524D01*
X101200711Y-80924724D01*
X101243190Y-80935119D01*
X101248789Y-80935466D01*
X101248793Y-80935467D01*
X101252228Y-80935680D01*
X101252237Y-80935680D01*
X101254167Y-80935800D01*
X101379547Y-80935800D01*
X101469922Y-80925263D01*
X101501467Y-80921586D01*
X101501469Y-80921586D01*
X101508739Y-80920738D01*
X101515616Y-80918242D01*
X101515619Y-80918241D01*
X101665333Y-80863897D01*
X101672212Y-80861400D01*
X101678332Y-80857387D01*
X101678337Y-80857385D01*
X101796344Y-80780017D01*
X101820918Y-80772557D01*
X101830688Y-80752284D01*
X101932217Y-80645107D01*
X101937251Y-80639793D01*
X102024599Y-80489412D01*
X102031697Y-80465979D01*
X102072054Y-80332728D01*
X102075010Y-80322969D01*
X102085778Y-80149393D01*
X102056327Y-79977996D01*
X102046867Y-79955763D01*
X101991102Y-79824708D01*
X101991101Y-79824706D01*
X101988235Y-79817971D01*
X101885157Y-79677903D01*
X101752620Y-79565305D01*
X101746105Y-79561978D01*
X101746103Y-79561977D01*
X101604256Y-79489547D01*
X101597735Y-79486217D01*
X101590626Y-79484477D01*
X101590622Y-79484476D01*
X101471289Y-79455276D01*
X101428810Y-79444881D01*
X101423211Y-79444534D01*
X101423207Y-79444533D01*
X101419772Y-79444320D01*
X101419763Y-79444320D01*
X101417833Y-79444200D01*
X101292453Y-79444200D01*
X101202078Y-79454737D01*
X101170533Y-79458414D01*
X101170531Y-79458414D01*
X101163261Y-79459262D01*
X101156384Y-79461758D01*
X101156381Y-79461759D01*
X101089001Y-79486217D01*
X100999788Y-79518600D01*
X100854350Y-79613953D01*
X100734749Y-79740207D01*
X100647401Y-79890588D01*
X100645280Y-79897592D01*
X100645278Y-79897596D01*
X100608416Y-80019307D01*
X100596990Y-80057031D01*
X100586222Y-80230607D01*
X100048740Y-80230607D01*
X100053778Y-80149393D01*
X100024327Y-79977996D01*
X100014867Y-79955763D01*
X99959102Y-79824708D01*
X99959101Y-79824706D01*
X99956235Y-79817971D01*
X99853157Y-79677903D01*
X99720620Y-79565305D01*
X99714105Y-79561978D01*
X99714103Y-79561977D01*
X99572256Y-79489547D01*
X99565735Y-79486217D01*
X99558626Y-79484477D01*
X99558622Y-79484476D01*
X99439289Y-79455276D01*
X99396810Y-79444881D01*
X99391211Y-79444534D01*
X99391207Y-79444533D01*
X99387772Y-79444320D01*
X99387763Y-79444320D01*
X99385833Y-79444200D01*
X99260453Y-79444200D01*
X99170078Y-79454737D01*
X99138533Y-79458414D01*
X99138531Y-79458414D01*
X99131261Y-79459262D01*
X99124384Y-79461758D01*
X99124381Y-79461759D01*
X99057001Y-79486217D01*
X98967788Y-79518600D01*
X98822350Y-79613953D01*
X98702749Y-79740207D01*
X98615401Y-79890588D01*
X98613280Y-79897592D01*
X98613278Y-79897596D01*
X98576416Y-80019307D01*
X98564990Y-80057031D01*
X98554222Y-80230607D01*
X57911413Y-80230607D01*
X57905323Y-80188082D01*
X57845984Y-80057572D01*
X57813013Y-80019307D01*
X57758260Y-79955763D01*
X57758257Y-79955760D01*
X57752400Y-79948963D01*
X57632095Y-79870985D01*
X57494739Y-79829907D01*
X57485763Y-79829852D01*
X57485762Y-79829852D01*
X57425555Y-79829484D01*
X57351376Y-79829031D01*
X57213529Y-79868428D01*
X57092280Y-79944930D01*
X56997377Y-80052388D01*
X56936447Y-80182163D01*
X56914391Y-80323823D01*
X24500001Y-80323823D01*
X24500001Y-79543823D01*
X32444391Y-79543823D01*
X32445555Y-79552725D01*
X32445555Y-79552728D01*
X32446765Y-79561977D01*
X32462980Y-79685979D01*
X32520720Y-79817203D01*
X32526497Y-79824076D01*
X32526498Y-79824077D01*
X32582406Y-79890588D01*
X32612970Y-79926948D01*
X32656258Y-79955763D01*
X32700494Y-79985209D01*
X32732313Y-80006390D01*
X32869157Y-80049142D01*
X32878129Y-80049306D01*
X32878132Y-80049307D01*
X32943463Y-80050504D01*
X33012499Y-80051770D01*
X33021533Y-80049307D01*
X33142158Y-80016421D01*
X33142160Y-80016420D01*
X33150817Y-80014060D01*
X33272991Y-79939045D01*
X33300146Y-79909045D01*
X33363178Y-79839407D01*
X33369200Y-79832754D01*
X33431710Y-79703733D01*
X33455496Y-79562354D01*
X33455647Y-79550000D01*
X33443010Y-79461759D01*
X33436596Y-79416968D01*
X33436595Y-79416965D01*
X33435323Y-79408082D01*
X33375984Y-79277572D01*
X33339869Y-79235659D01*
X33288260Y-79175763D01*
X33288257Y-79175760D01*
X33282400Y-79168963D01*
X33162095Y-79090985D01*
X33024739Y-79049907D01*
X33015763Y-79049852D01*
X33015762Y-79049852D01*
X32955555Y-79049484D01*
X32881376Y-79049031D01*
X32743529Y-79088428D01*
X32622280Y-79164930D01*
X32527377Y-79272388D01*
X32466447Y-79402163D01*
X32465066Y-79411035D01*
X32446177Y-79532354D01*
X32444391Y-79543823D01*
X24500001Y-79543823D01*
X24500001Y-78493823D01*
X58244391Y-78493823D01*
X58245555Y-78502725D01*
X58245555Y-78502728D01*
X58250593Y-78541251D01*
X58262980Y-78635979D01*
X58320720Y-78767203D01*
X58326497Y-78774076D01*
X58326498Y-78774077D01*
X58333792Y-78782754D01*
X58412970Y-78876948D01*
X58420447Y-78881925D01*
X58464378Y-78911168D01*
X58510001Y-78965565D01*
X58518972Y-79035993D01*
X58488442Y-79100090D01*
X58461797Y-79122615D01*
X58449874Y-79130138D01*
X58449871Y-79130140D01*
X58442280Y-79134930D01*
X58347377Y-79242388D01*
X58286447Y-79372163D01*
X58281776Y-79402163D01*
X58268171Y-79489547D01*
X58264391Y-79513823D01*
X58265555Y-79522725D01*
X58265555Y-79522728D01*
X58269478Y-79552728D01*
X58282980Y-79655979D01*
X58340720Y-79787203D01*
X58346497Y-79794076D01*
X58346498Y-79794077D01*
X58411146Y-79870985D01*
X58432970Y-79896948D01*
X58478038Y-79926948D01*
X58503266Y-79943741D01*
X58552313Y-79976390D01*
X58689157Y-80019142D01*
X58698129Y-80019306D01*
X58698132Y-80019307D01*
X58763463Y-80020504D01*
X58832499Y-80021770D01*
X58841533Y-80019307D01*
X58962158Y-79986421D01*
X58962160Y-79986420D01*
X58970817Y-79984060D01*
X59092991Y-79909045D01*
X59131988Y-79865962D01*
X59175426Y-79817971D01*
X59189200Y-79802754D01*
X59251710Y-79673733D01*
X59275496Y-79532354D01*
X59275647Y-79520000D01*
X59264853Y-79444625D01*
X59256596Y-79386968D01*
X59256595Y-79386965D01*
X59255323Y-79378082D01*
X59195984Y-79247572D01*
X59177598Y-79226234D01*
X59108260Y-79145763D01*
X59108257Y-79145760D01*
X59102400Y-79138963D01*
X59057661Y-79109964D01*
X59011378Y-79056132D01*
X59001547Y-78985819D01*
X59031290Y-78921353D01*
X59060264Y-78896860D01*
X59065340Y-78893743D01*
X59065341Y-78893742D01*
X59072991Y-78889045D01*
X59169200Y-78782754D01*
X59231710Y-78653733D01*
X59251403Y-78536683D01*
X59268387Y-78501728D01*
X59267080Y-78498819D01*
X59482148Y-78498819D01*
X59500593Y-78541251D01*
X59512980Y-78635979D01*
X59570720Y-78767203D01*
X59576497Y-78774076D01*
X59576498Y-78774077D01*
X59583792Y-78782754D01*
X59662970Y-78876948D01*
X59782313Y-78956390D01*
X59919157Y-78999142D01*
X59928129Y-78999306D01*
X59928132Y-78999307D01*
X59993463Y-79000504D01*
X60062499Y-79001770D01*
X60071533Y-78999307D01*
X60192158Y-78966421D01*
X60192160Y-78966420D01*
X60200817Y-78964060D01*
X60322991Y-78889045D01*
X60419200Y-78782754D01*
X60481710Y-78653733D01*
X60501403Y-78536683D01*
X60518387Y-78501728D01*
X60517080Y-78498819D01*
X60732148Y-78498819D01*
X60750593Y-78541251D01*
X60762980Y-78635979D01*
X60820720Y-78767203D01*
X60826497Y-78774076D01*
X60826498Y-78774077D01*
X60833792Y-78782754D01*
X60912970Y-78876948D01*
X61032313Y-78956390D01*
X61169157Y-78999142D01*
X61178129Y-78999306D01*
X61178132Y-78999307D01*
X61243463Y-79000504D01*
X61312499Y-79001770D01*
X61321533Y-78999307D01*
X61442158Y-78966421D01*
X61442160Y-78966420D01*
X61450817Y-78964060D01*
X61572991Y-78889045D01*
X61669200Y-78782754D01*
X61731710Y-78653733D01*
X61755496Y-78512354D01*
X61755647Y-78500000D01*
X61754762Y-78493823D01*
X62024391Y-78493823D01*
X62025555Y-78502725D01*
X62025555Y-78502728D01*
X62030593Y-78541251D01*
X62042980Y-78635979D01*
X62100720Y-78767203D01*
X62106497Y-78774076D01*
X62106498Y-78774077D01*
X62113792Y-78782754D01*
X62192970Y-78876948D01*
X62312313Y-78956390D01*
X62449157Y-78999142D01*
X62458129Y-78999306D01*
X62458132Y-78999307D01*
X62523463Y-79000504D01*
X62592499Y-79001770D01*
X62601533Y-78999307D01*
X62722158Y-78966421D01*
X62722160Y-78966420D01*
X62730817Y-78964060D01*
X62852991Y-78889045D01*
X62949200Y-78782754D01*
X63011710Y-78653733D01*
X63035496Y-78512354D01*
X63035647Y-78500000D01*
X63015323Y-78358082D01*
X62955984Y-78227572D01*
X62937598Y-78206234D01*
X62868260Y-78125763D01*
X62868257Y-78125760D01*
X62862400Y-78118963D01*
X62742095Y-78040985D01*
X62604739Y-77999907D01*
X62595763Y-77999852D01*
X62595762Y-77999852D01*
X62535555Y-77999484D01*
X62461376Y-77999031D01*
X62323529Y-78038428D01*
X62202280Y-78114930D01*
X62107377Y-78222388D01*
X62046447Y-78352163D01*
X62024391Y-78493823D01*
X61754762Y-78493823D01*
X61735323Y-78358082D01*
X61675984Y-78227572D01*
X61657598Y-78206234D01*
X61588260Y-78125763D01*
X61588257Y-78125760D01*
X61582400Y-78118963D01*
X61462095Y-78040985D01*
X61324739Y-77999907D01*
X61315763Y-77999852D01*
X61315762Y-77999852D01*
X61255555Y-77999484D01*
X61181376Y-77999031D01*
X61043529Y-78038428D01*
X60922280Y-78114930D01*
X60827377Y-78222388D01*
X60766447Y-78352163D01*
X60765066Y-78361035D01*
X60749277Y-78462440D01*
X60732148Y-78498819D01*
X60517080Y-78498819D01*
X60500050Y-78460918D01*
X60486596Y-78366968D01*
X60486595Y-78366965D01*
X60485323Y-78358082D01*
X60425984Y-78227572D01*
X60407598Y-78206234D01*
X60338260Y-78125763D01*
X60338257Y-78125760D01*
X60332400Y-78118963D01*
X60212095Y-78040985D01*
X60074739Y-77999907D01*
X60065763Y-77999852D01*
X60065762Y-77999852D01*
X60005555Y-77999484D01*
X59931376Y-77999031D01*
X59793529Y-78038428D01*
X59672280Y-78114930D01*
X59577377Y-78222388D01*
X59516447Y-78352163D01*
X59515066Y-78361035D01*
X59499277Y-78462440D01*
X59482148Y-78498819D01*
X59267080Y-78498819D01*
X59250050Y-78460918D01*
X59236596Y-78366968D01*
X59236595Y-78366965D01*
X59235323Y-78358082D01*
X59175984Y-78227572D01*
X59157598Y-78206234D01*
X59088260Y-78125763D01*
X59088257Y-78125760D01*
X59082400Y-78118963D01*
X58962095Y-78040985D01*
X58824739Y-77999907D01*
X58815763Y-77999852D01*
X58815762Y-77999852D01*
X58755555Y-77999484D01*
X58681376Y-77999031D01*
X58543529Y-78038428D01*
X58422280Y-78114930D01*
X58327377Y-78222388D01*
X58266447Y-78352163D01*
X58244391Y-78493823D01*
X24500001Y-78493823D01*
X24500000Y-74193823D01*
X43794391Y-74193823D01*
X43795555Y-74202725D01*
X43795555Y-74202728D01*
X43796814Y-74212354D01*
X43812980Y-74335979D01*
X43816597Y-74344199D01*
X43842793Y-74403733D01*
X43870720Y-74467203D01*
X43876497Y-74474076D01*
X43876498Y-74474077D01*
X43957190Y-74570072D01*
X43962970Y-74576948D01*
X44082313Y-74656390D01*
X44219157Y-74699142D01*
X44228129Y-74699306D01*
X44228132Y-74699307D01*
X44293463Y-74700504D01*
X44362499Y-74701770D01*
X44371533Y-74699307D01*
X44492158Y-74666421D01*
X44492160Y-74666420D01*
X44500817Y-74664060D01*
X44622991Y-74589045D01*
X44719200Y-74482754D01*
X44761774Y-74394881D01*
X44777795Y-74361814D01*
X44777795Y-74361813D01*
X44781710Y-74353733D01*
X44800202Y-74243823D01*
X54244391Y-74243823D01*
X54245555Y-74252725D01*
X54245555Y-74252728D01*
X54246814Y-74262354D01*
X54262980Y-74385979D01*
X54320720Y-74517203D01*
X54326497Y-74524076D01*
X54326498Y-74524077D01*
X54333792Y-74532754D01*
X54412970Y-74626948D01*
X54420447Y-74631925D01*
X54521425Y-74699142D01*
X54532313Y-74706390D01*
X54669157Y-74749142D01*
X54678129Y-74749306D01*
X54678132Y-74749307D01*
X54743463Y-74750504D01*
X54812499Y-74751770D01*
X54821533Y-74749307D01*
X54942158Y-74716421D01*
X54942160Y-74716420D01*
X54950817Y-74714060D01*
X55072991Y-74639045D01*
X55169200Y-74532754D01*
X55231710Y-74403733D01*
X55255496Y-74262354D01*
X55255647Y-74250000D01*
X55235323Y-74108082D01*
X55175984Y-73977572D01*
X55122636Y-73915659D01*
X55088260Y-73875763D01*
X55088257Y-73875760D01*
X55082400Y-73868963D01*
X54962095Y-73790985D01*
X54824739Y-73749907D01*
X54815763Y-73749852D01*
X54815762Y-73749852D01*
X54755555Y-73749484D01*
X54681376Y-73749031D01*
X54543529Y-73788428D01*
X54422280Y-73864930D01*
X54327377Y-73972388D01*
X54266447Y-74102163D01*
X54265066Y-74111035D01*
X54249291Y-74212354D01*
X54244391Y-74243823D01*
X44800202Y-74243823D01*
X44805496Y-74212354D01*
X44805647Y-74200000D01*
X44793756Y-74116968D01*
X44786596Y-74066968D01*
X44786595Y-74066965D01*
X44785323Y-74058082D01*
X44725984Y-73927572D01*
X44720126Y-73920773D01*
X44720123Y-73920769D01*
X44643100Y-73831381D01*
X44613786Y-73766719D01*
X44624085Y-73696473D01*
X44645138Y-73664578D01*
X44713176Y-73589411D01*
X44713181Y-73589404D01*
X44719200Y-73582754D01*
X44781710Y-73453733D01*
X44805496Y-73312354D01*
X44805647Y-73300000D01*
X44785323Y-73158082D01*
X44725984Y-73027572D01*
X44666303Y-72958309D01*
X44638260Y-72925763D01*
X44638257Y-72925760D01*
X44632400Y-72918963D01*
X44512095Y-72840985D01*
X44374739Y-72799907D01*
X44365763Y-72799852D01*
X44365762Y-72799852D01*
X44305555Y-72799484D01*
X44231376Y-72799031D01*
X44093529Y-72838428D01*
X43972280Y-72914930D01*
X43877377Y-73022388D01*
X43816447Y-73152163D01*
X43794391Y-73293823D01*
X43795555Y-73302725D01*
X43795555Y-73302728D01*
X43796814Y-73312354D01*
X43812980Y-73435979D01*
X43870720Y-73567203D01*
X43876497Y-73574076D01*
X43876498Y-73574077D01*
X43957077Y-73669937D01*
X43985598Y-73734952D01*
X43974442Y-73805067D01*
X43955068Y-73834419D01*
X43877377Y-73922388D01*
X43816447Y-74052163D01*
X43794391Y-74193823D01*
X24500000Y-74193823D01*
X24500000Y-72343823D01*
X42494391Y-72343823D01*
X42495555Y-72352725D01*
X42495555Y-72352728D01*
X42500214Y-72388352D01*
X42512980Y-72485979D01*
X42570720Y-72617203D01*
X42576497Y-72624076D01*
X42576498Y-72624077D01*
X42583792Y-72632754D01*
X42662970Y-72726948D01*
X42782313Y-72806390D01*
X42919157Y-72849142D01*
X42928129Y-72849306D01*
X42928132Y-72849307D01*
X42993463Y-72850504D01*
X43062499Y-72851770D01*
X43071533Y-72849307D01*
X43192158Y-72816421D01*
X43192160Y-72816420D01*
X43200817Y-72814060D01*
X43322991Y-72739045D01*
X43419200Y-72632754D01*
X43435069Y-72600000D01*
X104524882Y-72600000D01*
X104543242Y-72715918D01*
X104547743Y-72724752D01*
X104547744Y-72724755D01*
X104557418Y-72743741D01*
X104596523Y-72820489D01*
X104679511Y-72903477D01*
X104733079Y-72930771D01*
X104775245Y-72952256D01*
X104775248Y-72952257D01*
X104784082Y-72956758D01*
X104900000Y-72975118D01*
X105015918Y-72956758D01*
X105024752Y-72952257D01*
X105024755Y-72952256D01*
X105066921Y-72930771D01*
X105120489Y-72903477D01*
X105203477Y-72820489D01*
X105242582Y-72743741D01*
X105252256Y-72724755D01*
X105252257Y-72724752D01*
X105256758Y-72715918D01*
X105275118Y-72600000D01*
X105256758Y-72484082D01*
X105252257Y-72475248D01*
X105252256Y-72475245D01*
X105230771Y-72433079D01*
X105203477Y-72379511D01*
X105120489Y-72296523D01*
X105066921Y-72269229D01*
X105024755Y-72247744D01*
X105024752Y-72247743D01*
X105015918Y-72243242D01*
X104900000Y-72224882D01*
X104784082Y-72243242D01*
X104775248Y-72247743D01*
X104775245Y-72247744D01*
X104733079Y-72269229D01*
X104679511Y-72296523D01*
X104596523Y-72379511D01*
X104569229Y-72433079D01*
X104547744Y-72475245D01*
X104547743Y-72475248D01*
X104543242Y-72484082D01*
X104524882Y-72600000D01*
X43435069Y-72600000D01*
X43481710Y-72503733D01*
X43505496Y-72362354D01*
X43505647Y-72350000D01*
X43491003Y-72247744D01*
X43486596Y-72216968D01*
X43486595Y-72216965D01*
X43485323Y-72208082D01*
X43469892Y-72174142D01*
X43466179Y-72165977D01*
X43425984Y-72077572D01*
X43332400Y-71968963D01*
X43330064Y-71967449D01*
X43293555Y-71910223D01*
X43293790Y-71839226D01*
X43325451Y-71791272D01*
X43322991Y-71789045D01*
X43372975Y-71733823D01*
X72604391Y-71733823D01*
X72605555Y-71742725D01*
X72605555Y-71742728D01*
X72606814Y-71752354D01*
X72622980Y-71875979D01*
X72680720Y-72007203D01*
X72686497Y-72014076D01*
X72686498Y-72014077D01*
X72764095Y-72106390D01*
X72772970Y-72116948D01*
X72806188Y-72139060D01*
X72862839Y-72176770D01*
X72892313Y-72196390D01*
X73029157Y-72239142D01*
X73038129Y-72239306D01*
X73038132Y-72239307D01*
X73103463Y-72240504D01*
X73172499Y-72241770D01*
X73181533Y-72239307D01*
X73302158Y-72206421D01*
X73302160Y-72206420D01*
X73310817Y-72204060D01*
X73432991Y-72129045D01*
X73480147Y-72076948D01*
X73523178Y-72029407D01*
X73529200Y-72022754D01*
X73571428Y-71935595D01*
X73587795Y-71901814D01*
X73587795Y-71901813D01*
X73591710Y-71893733D01*
X73615496Y-71752354D01*
X73615647Y-71740000D01*
X73595323Y-71598082D01*
X73535984Y-71467572D01*
X73497051Y-71422388D01*
X73448260Y-71365763D01*
X73448257Y-71365760D01*
X73442400Y-71358963D01*
X73322095Y-71280985D01*
X73184739Y-71239907D01*
X73175763Y-71239852D01*
X73175762Y-71239852D01*
X73115555Y-71239484D01*
X73041376Y-71239031D01*
X72903529Y-71278428D01*
X72782280Y-71354930D01*
X72776338Y-71361658D01*
X72776337Y-71361659D01*
X72766862Y-71372388D01*
X72687377Y-71462388D01*
X72626447Y-71592163D01*
X72625066Y-71601035D01*
X72607734Y-71712354D01*
X72604391Y-71733823D01*
X43372975Y-71733823D01*
X43413178Y-71689407D01*
X43419200Y-71682754D01*
X43481710Y-71553733D01*
X43505496Y-71412354D01*
X43505647Y-71400000D01*
X43493464Y-71314930D01*
X43486596Y-71266968D01*
X43486595Y-71266965D01*
X43485323Y-71258082D01*
X43477060Y-71239907D01*
X43459596Y-71201498D01*
X43425984Y-71127572D01*
X43332400Y-71018963D01*
X43330064Y-71017449D01*
X43293555Y-70960223D01*
X43293790Y-70889226D01*
X43325451Y-70841272D01*
X43322991Y-70839045D01*
X43354872Y-70803823D01*
X71674391Y-70803823D01*
X71675555Y-70812725D01*
X71675555Y-70812728D01*
X71678997Y-70839045D01*
X71692980Y-70945979D01*
X71750720Y-71077203D01*
X71756497Y-71084076D01*
X71756498Y-71084077D01*
X71834186Y-71176498D01*
X71842970Y-71186948D01*
X71882726Y-71213412D01*
X71921213Y-71239031D01*
X71962313Y-71266390D01*
X72099157Y-71309142D01*
X72108129Y-71309306D01*
X72108132Y-71309307D01*
X72173463Y-71310504D01*
X72242499Y-71311770D01*
X72251533Y-71309307D01*
X72372158Y-71276421D01*
X72372160Y-71276420D01*
X72380817Y-71274060D01*
X72502991Y-71199045D01*
X72510287Y-71190985D01*
X72593178Y-71099407D01*
X72599200Y-71092754D01*
X72661710Y-70963733D01*
X72685496Y-70822354D01*
X72685647Y-70810000D01*
X72672358Y-70717203D01*
X72666596Y-70676968D01*
X72666595Y-70676965D01*
X72665323Y-70668082D01*
X72605984Y-70537572D01*
X72587598Y-70516234D01*
X72518260Y-70435763D01*
X72518257Y-70435760D01*
X72512400Y-70428963D01*
X72392095Y-70350985D01*
X72254739Y-70309907D01*
X72245763Y-70309852D01*
X72245762Y-70309852D01*
X72185555Y-70309484D01*
X72111376Y-70309031D01*
X71973529Y-70348428D01*
X71852280Y-70424930D01*
X71846338Y-70431658D01*
X71846337Y-70431659D01*
X71819228Y-70462354D01*
X71757377Y-70532388D01*
X71696447Y-70662163D01*
X71674391Y-70803823D01*
X43354872Y-70803823D01*
X43413178Y-70739407D01*
X43419200Y-70732754D01*
X43481710Y-70603733D01*
X43505496Y-70462354D01*
X43505647Y-70450000D01*
X43485323Y-70308082D01*
X43425984Y-70177572D01*
X43380685Y-70125000D01*
X87074882Y-70125000D01*
X87093242Y-70240918D01*
X87097743Y-70249752D01*
X87097744Y-70249755D01*
X87119229Y-70291921D01*
X87146523Y-70345489D01*
X87229511Y-70428477D01*
X87259630Y-70443823D01*
X87325245Y-70477256D01*
X87325248Y-70477257D01*
X87334082Y-70481758D01*
X87450000Y-70500118D01*
X87565918Y-70481758D01*
X87574752Y-70477257D01*
X87574755Y-70477256D01*
X87640370Y-70443823D01*
X87670489Y-70428477D01*
X87753477Y-70345489D01*
X87806758Y-70240918D01*
X87807263Y-70237730D01*
X87845241Y-70182189D01*
X87910637Y-70154552D01*
X87980594Y-70166659D01*
X88032900Y-70214665D01*
X88042367Y-70235396D01*
X88043242Y-70240918D01*
X88096523Y-70345489D01*
X88179511Y-70428477D01*
X88209630Y-70443823D01*
X88275245Y-70477256D01*
X88275248Y-70477257D01*
X88284082Y-70481758D01*
X88400000Y-70500118D01*
X88515918Y-70481758D01*
X88524752Y-70477257D01*
X88524755Y-70477256D01*
X88590370Y-70443823D01*
X88620489Y-70428477D01*
X88703477Y-70345489D01*
X88730771Y-70291921D01*
X88752256Y-70249755D01*
X88752257Y-70249752D01*
X88756758Y-70240918D01*
X88775118Y-70125000D01*
X88756758Y-70009082D01*
X88752257Y-70000248D01*
X88752256Y-70000245D01*
X88727374Y-69951413D01*
X88703477Y-69904511D01*
X88620489Y-69821523D01*
X88602321Y-69812266D01*
X88550707Y-69763519D01*
X88533641Y-69694604D01*
X88556542Y-69627402D01*
X88602321Y-69587734D01*
X88620489Y-69578477D01*
X88703477Y-69495489D01*
X88730771Y-69441921D01*
X88752256Y-69399755D01*
X88752257Y-69399752D01*
X88756758Y-69390918D01*
X88775118Y-69275000D01*
X88756758Y-69159082D01*
X88752257Y-69150248D01*
X88752256Y-69150245D01*
X88730771Y-69108079D01*
X88703477Y-69054511D01*
X88620489Y-68971523D01*
X88566921Y-68944229D01*
X88524755Y-68922744D01*
X88524752Y-68922743D01*
X88515918Y-68918242D01*
X88400000Y-68899882D01*
X88284082Y-68918242D01*
X88275248Y-68922743D01*
X88275245Y-68922744D01*
X88233079Y-68944229D01*
X88179511Y-68971523D01*
X88096523Y-69054511D01*
X88043242Y-69159082D01*
X88042737Y-69162270D01*
X88004759Y-69217811D01*
X87939363Y-69245448D01*
X87869406Y-69233341D01*
X87817100Y-69185335D01*
X87807633Y-69164604D01*
X87806758Y-69159082D01*
X87753477Y-69054511D01*
X87670489Y-68971523D01*
X87616921Y-68944229D01*
X87574755Y-68922744D01*
X87574752Y-68922743D01*
X87565918Y-68918242D01*
X87450000Y-68899882D01*
X87334082Y-68918242D01*
X87325248Y-68922743D01*
X87325245Y-68922744D01*
X87283079Y-68944229D01*
X87229511Y-68971523D01*
X87146523Y-69054511D01*
X87119229Y-69108079D01*
X87097744Y-69150245D01*
X87097743Y-69150248D01*
X87093242Y-69159082D01*
X87074882Y-69275000D01*
X87093242Y-69390918D01*
X87097743Y-69399752D01*
X87097744Y-69399755D01*
X87119229Y-69441921D01*
X87146523Y-69495489D01*
X87229511Y-69578477D01*
X87247679Y-69587734D01*
X87299293Y-69636481D01*
X87316359Y-69705396D01*
X87293458Y-69772598D01*
X87247679Y-69812266D01*
X87229511Y-69821523D01*
X87146523Y-69904511D01*
X87122626Y-69951413D01*
X87097744Y-70000245D01*
X87097743Y-70000248D01*
X87093242Y-70009082D01*
X87074882Y-70125000D01*
X43380685Y-70125000D01*
X43332400Y-70068963D01*
X43330064Y-70067449D01*
X43293555Y-70010223D01*
X43293790Y-69939226D01*
X43325451Y-69891272D01*
X43322991Y-69889045D01*
X43413178Y-69789407D01*
X43419200Y-69782754D01*
X43481710Y-69653733D01*
X43505496Y-69512354D01*
X43505647Y-69500000D01*
X43491291Y-69399753D01*
X43486596Y-69366968D01*
X43486595Y-69366965D01*
X43485323Y-69358082D01*
X43425984Y-69227572D01*
X43366969Y-69159082D01*
X43338260Y-69125763D01*
X43338257Y-69125760D01*
X43332400Y-69118963D01*
X43212095Y-69040985D01*
X43074739Y-68999907D01*
X43065763Y-68999852D01*
X43065762Y-68999852D01*
X43005555Y-68999484D01*
X42931376Y-68999031D01*
X42793529Y-69038428D01*
X42672280Y-69114930D01*
X42577377Y-69222388D01*
X42516447Y-69352163D01*
X42494391Y-69493823D01*
X42495555Y-69502725D01*
X42495555Y-69502728D01*
X42496814Y-69512354D01*
X42512980Y-69635979D01*
X42516597Y-69644199D01*
X42563099Y-69749882D01*
X42570720Y-69767203D01*
X42576497Y-69774076D01*
X42576498Y-69774077D01*
X42657192Y-69870075D01*
X42657195Y-69870077D01*
X42662970Y-69876948D01*
X42669719Y-69881440D01*
X42706938Y-69941382D01*
X42705835Y-70012370D01*
X42671561Y-70064295D01*
X42672280Y-70064930D01*
X42667777Y-70070028D01*
X42667775Y-70070031D01*
X42666337Y-70071659D01*
X42666336Y-70071660D01*
X42627876Y-70115208D01*
X42577377Y-70172388D01*
X42516447Y-70302163D01*
X42515066Y-70311035D01*
X42496285Y-70431659D01*
X42494391Y-70443823D01*
X42495555Y-70452725D01*
X42495555Y-70452728D01*
X42501752Y-70500118D01*
X42512980Y-70585979D01*
X42570720Y-70717203D01*
X42576497Y-70724076D01*
X42576498Y-70724077D01*
X42657192Y-70820075D01*
X42657195Y-70820077D01*
X42662970Y-70826948D01*
X42669719Y-70831440D01*
X42706938Y-70891382D01*
X42705835Y-70962370D01*
X42671561Y-71014295D01*
X42672280Y-71014930D01*
X42667777Y-71020028D01*
X42667775Y-71020031D01*
X42666337Y-71021659D01*
X42666336Y-71021660D01*
X42624542Y-71068983D01*
X42577377Y-71122388D01*
X42516447Y-71252163D01*
X42513815Y-71269069D01*
X42498760Y-71365763D01*
X42494391Y-71393823D01*
X42495555Y-71402725D01*
X42495555Y-71402728D01*
X42501025Y-71444556D01*
X42512980Y-71535979D01*
X42516597Y-71544199D01*
X42560433Y-71643823D01*
X42570720Y-71667203D01*
X42576497Y-71674076D01*
X42576498Y-71674077D01*
X42657192Y-71770075D01*
X42657195Y-71770077D01*
X42662970Y-71776948D01*
X42669719Y-71781440D01*
X42706938Y-71841382D01*
X42705835Y-71912370D01*
X42671561Y-71964295D01*
X42672280Y-71964930D01*
X42667777Y-71970028D01*
X42667775Y-71970031D01*
X42666337Y-71971659D01*
X42666336Y-71971660D01*
X42634946Y-72007203D01*
X42577377Y-72072388D01*
X42516447Y-72202163D01*
X42494391Y-72343823D01*
X24500000Y-72343823D01*
X24500000Y-69493823D01*
X35994391Y-69493823D01*
X35995555Y-69502725D01*
X35995555Y-69502728D01*
X35996814Y-69512354D01*
X36012980Y-69635979D01*
X36016597Y-69644199D01*
X36063099Y-69749882D01*
X36070720Y-69767203D01*
X36076497Y-69774076D01*
X36076498Y-69774077D01*
X36122279Y-69828540D01*
X36162970Y-69876948D01*
X36282313Y-69956390D01*
X36419157Y-69999142D01*
X36428129Y-69999306D01*
X36428132Y-69999307D01*
X36493463Y-70000504D01*
X36562499Y-70001770D01*
X36571533Y-69999307D01*
X36692158Y-69966421D01*
X36692160Y-69966420D01*
X36700817Y-69964060D01*
X36822991Y-69889045D01*
X36919200Y-69782754D01*
X36981710Y-69653733D01*
X37005496Y-69512354D01*
X37005647Y-69500000D01*
X36991291Y-69399753D01*
X36986596Y-69366968D01*
X36986595Y-69366965D01*
X36985323Y-69358082D01*
X36925984Y-69227572D01*
X36866969Y-69159082D01*
X36838260Y-69125763D01*
X36838257Y-69125760D01*
X36832400Y-69118963D01*
X36712095Y-69040985D01*
X36574739Y-68999907D01*
X36565763Y-68999852D01*
X36565762Y-68999852D01*
X36505555Y-68999484D01*
X36431376Y-68999031D01*
X36293529Y-69038428D01*
X36172280Y-69114930D01*
X36077377Y-69222388D01*
X36016447Y-69352163D01*
X35994391Y-69493823D01*
X24500000Y-69493823D01*
X24500000Y-67993823D01*
X35994391Y-67993823D01*
X35995555Y-68002725D01*
X35995555Y-68002728D01*
X36000853Y-68043242D01*
X36012980Y-68135979D01*
X36070720Y-68267203D01*
X36076497Y-68274076D01*
X36076498Y-68274077D01*
X36095290Y-68296433D01*
X36162970Y-68376948D01*
X36170447Y-68381925D01*
X36261438Y-68442494D01*
X36282313Y-68456390D01*
X36419157Y-68499142D01*
X36428129Y-68499306D01*
X36428132Y-68499307D01*
X36493463Y-68500504D01*
X36562499Y-68501770D01*
X36571533Y-68499307D01*
X36692158Y-68466421D01*
X36692160Y-68466420D01*
X36700817Y-68464060D01*
X36822991Y-68389045D01*
X36919200Y-68282754D01*
X36969691Y-68178540D01*
X36977795Y-68161814D01*
X36977795Y-68161813D01*
X36981710Y-68153733D01*
X37005496Y-68012354D01*
X37005647Y-68000000D01*
X36985323Y-67858082D01*
X36925984Y-67727572D01*
X36901487Y-67699142D01*
X36838260Y-67625763D01*
X36838257Y-67625760D01*
X36832400Y-67618963D01*
X36712095Y-67540985D01*
X36574739Y-67499907D01*
X36565763Y-67499852D01*
X36565762Y-67499852D01*
X36505555Y-67499484D01*
X36431376Y-67499031D01*
X36293529Y-67538428D01*
X36172280Y-67614930D01*
X36166338Y-67621658D01*
X36166337Y-67621659D01*
X36132292Y-67660208D01*
X36077377Y-67722388D01*
X36016447Y-67852163D01*
X36015066Y-67861035D01*
X35997559Y-67973477D01*
X35994391Y-67993823D01*
X24500000Y-67993823D01*
X24500000Y-66978297D01*
X55841580Y-66978297D01*
X55842744Y-66987199D01*
X55842744Y-66987202D01*
X55850176Y-67044036D01*
X55860169Y-67120453D01*
X55917909Y-67251677D01*
X55923686Y-67258550D01*
X55923687Y-67258551D01*
X55996255Y-67344881D01*
X56010159Y-67361422D01*
X56129502Y-67440864D01*
X56266346Y-67483616D01*
X56275318Y-67483780D01*
X56275321Y-67483781D01*
X56340652Y-67484978D01*
X56409688Y-67486244D01*
X56418722Y-67483781D01*
X56539347Y-67450895D01*
X56539349Y-67450894D01*
X56548006Y-67448534D01*
X56670180Y-67373519D01*
X56676513Y-67366523D01*
X56760367Y-67273881D01*
X56766389Y-67267228D01*
X56801953Y-67193823D01*
X64034391Y-67193823D01*
X64035555Y-67202725D01*
X64035555Y-67202728D01*
X64036814Y-67212354D01*
X64052980Y-67335979D01*
X64056597Y-67344199D01*
X64099131Y-67440864D01*
X64110720Y-67467203D01*
X64116497Y-67474076D01*
X64116498Y-67474077D01*
X64129384Y-67489407D01*
X64202970Y-67576948D01*
X64322313Y-67656390D01*
X64459157Y-67699142D01*
X64468129Y-67699306D01*
X64468132Y-67699307D01*
X64533463Y-67700504D01*
X64602499Y-67701770D01*
X64611533Y-67699307D01*
X64732158Y-67666421D01*
X64732160Y-67666420D01*
X64740817Y-67664060D01*
X64862991Y-67589045D01*
X64902637Y-67545245D01*
X64953178Y-67489407D01*
X64959200Y-67482754D01*
X65015513Y-67366523D01*
X65017795Y-67361814D01*
X65017795Y-67361813D01*
X65021710Y-67353733D01*
X65045496Y-67212354D01*
X65045647Y-67200000D01*
X65030575Y-67094755D01*
X65026596Y-67066968D01*
X65026595Y-67066965D01*
X65025323Y-67058082D01*
X64985275Y-66970000D01*
X82444882Y-66970000D01*
X82463242Y-67085918D01*
X82467743Y-67094752D01*
X82467744Y-67094755D01*
X82485374Y-67129355D01*
X82516523Y-67190489D01*
X82561939Y-67235905D01*
X82595965Y-67298217D01*
X82590900Y-67369032D01*
X82561939Y-67414095D01*
X82526523Y-67449511D01*
X82507891Y-67486079D01*
X82477744Y-67545245D01*
X82477743Y-67545248D01*
X82473242Y-67554082D01*
X82454882Y-67670000D01*
X82473242Y-67785918D01*
X82477743Y-67794752D01*
X82477744Y-67794755D01*
X82499229Y-67836921D01*
X82526523Y-67890489D01*
X82581939Y-67945905D01*
X82615965Y-68008217D01*
X82610900Y-68079032D01*
X82581939Y-68124095D01*
X82526523Y-68179511D01*
X82499229Y-68233079D01*
X82477744Y-68275245D01*
X82477743Y-68275248D01*
X82473242Y-68284082D01*
X82454882Y-68400000D01*
X82473242Y-68515918D01*
X82477743Y-68524752D01*
X82477744Y-68524755D01*
X82492687Y-68554082D01*
X82526523Y-68620489D01*
X82609511Y-68703477D01*
X82663079Y-68730771D01*
X82705245Y-68752256D01*
X82705248Y-68752257D01*
X82714082Y-68756758D01*
X82830000Y-68775118D01*
X82945918Y-68756758D01*
X82954752Y-68752257D01*
X82954755Y-68752256D01*
X82996921Y-68730771D01*
X83050489Y-68703477D01*
X83083966Y-68670000D01*
X84414882Y-68670000D01*
X84433242Y-68785918D01*
X84437743Y-68794752D01*
X84437744Y-68794755D01*
X84456598Y-68831758D01*
X84486523Y-68890489D01*
X84569511Y-68973477D01*
X84619664Y-68999031D01*
X84665245Y-69022256D01*
X84665248Y-69022257D01*
X84674082Y-69026758D01*
X84790000Y-69045118D01*
X84905918Y-69026758D01*
X84914752Y-69022257D01*
X84914755Y-69022256D01*
X84960336Y-68999031D01*
X85010489Y-68973477D01*
X85093477Y-68890489D01*
X85123402Y-68831758D01*
X85142256Y-68794755D01*
X85142257Y-68794752D01*
X85146758Y-68785918D01*
X85165118Y-68670000D01*
X85146758Y-68554082D01*
X85142257Y-68545248D01*
X85142256Y-68545245D01*
X85120020Y-68501605D01*
X85106464Y-68475000D01*
X94649882Y-68475000D01*
X94668242Y-68590918D01*
X94672743Y-68599752D01*
X94672744Y-68599755D01*
X94678804Y-68611648D01*
X94721523Y-68695489D01*
X94804511Y-68778477D01*
X94836459Y-68794755D01*
X94900245Y-68827256D01*
X94900248Y-68827257D01*
X94909082Y-68831758D01*
X95025000Y-68850118D01*
X95140918Y-68831758D01*
X95149752Y-68827257D01*
X95149755Y-68827256D01*
X95213541Y-68794755D01*
X95245489Y-68778477D01*
X95328477Y-68695489D01*
X95371196Y-68611648D01*
X95377256Y-68599755D01*
X95377257Y-68599752D01*
X95381758Y-68590918D01*
X95400118Y-68475000D01*
X95381758Y-68359082D01*
X95377257Y-68350248D01*
X95377256Y-68350245D01*
X95339041Y-68275245D01*
X95328477Y-68254511D01*
X95245489Y-68171523D01*
X95191862Y-68144199D01*
X95149755Y-68122744D01*
X95149752Y-68122743D01*
X95140918Y-68118242D01*
X95025000Y-68099882D01*
X94909082Y-68118242D01*
X94900248Y-68122743D01*
X94900245Y-68122744D01*
X94858138Y-68144199D01*
X94804511Y-68171523D01*
X94721523Y-68254511D01*
X94710959Y-68275245D01*
X94672744Y-68350245D01*
X94672743Y-68350248D01*
X94668242Y-68359082D01*
X94649882Y-68475000D01*
X85106464Y-68475000D01*
X85093477Y-68449511D01*
X85010489Y-68366523D01*
X84956921Y-68339229D01*
X84914755Y-68317744D01*
X84914752Y-68317743D01*
X84905918Y-68313242D01*
X84790000Y-68294882D01*
X84674082Y-68313242D01*
X84665248Y-68317743D01*
X84665245Y-68317744D01*
X84623079Y-68339229D01*
X84569511Y-68366523D01*
X84486523Y-68449511D01*
X84459980Y-68501605D01*
X84437744Y-68545245D01*
X84437743Y-68545248D01*
X84433242Y-68554082D01*
X84414882Y-68670000D01*
X83083966Y-68670000D01*
X83133477Y-68620489D01*
X83167313Y-68554082D01*
X83182256Y-68524755D01*
X83182257Y-68524752D01*
X83186758Y-68515918D01*
X83205118Y-68400000D01*
X83186758Y-68284082D01*
X83182257Y-68275248D01*
X83182256Y-68275245D01*
X83160771Y-68233079D01*
X83133477Y-68179511D01*
X83078061Y-68124095D01*
X83044035Y-68061783D01*
X83049100Y-67990968D01*
X83078061Y-67945905D01*
X83133477Y-67890489D01*
X83160771Y-67836921D01*
X83182256Y-67794755D01*
X83182257Y-67794752D01*
X83186758Y-67785918D01*
X83205118Y-67670000D01*
X83186758Y-67554082D01*
X83182257Y-67545248D01*
X83182256Y-67545245D01*
X83152109Y-67486079D01*
X83133477Y-67449511D01*
X83088061Y-67404095D01*
X83054035Y-67341783D01*
X83059100Y-67270968D01*
X83088061Y-67225905D01*
X83123477Y-67190489D01*
X83154626Y-67129355D01*
X83172256Y-67094755D01*
X83172257Y-67094752D01*
X83176758Y-67085918D01*
X83195118Y-66970000D01*
X83176758Y-66854082D01*
X83172257Y-66845248D01*
X83172256Y-66845245D01*
X83137005Y-66776062D01*
X83123477Y-66749511D01*
X83040489Y-66666523D01*
X83031654Y-66662021D01*
X83031535Y-66661935D01*
X82988182Y-66605712D01*
X82982107Y-66534976D01*
X83015239Y-66472185D01*
X83031535Y-66458065D01*
X83031654Y-66457979D01*
X83040489Y-66453477D01*
X83123477Y-66370489D01*
X83166942Y-66285184D01*
X83172256Y-66274755D01*
X83172257Y-66274752D01*
X83176758Y-66265918D01*
X83195118Y-66150000D01*
X83176758Y-66034082D01*
X83172257Y-66025248D01*
X83172256Y-66025245D01*
X83150771Y-65983079D01*
X83123477Y-65929511D01*
X83040489Y-65846523D01*
X82977987Y-65814677D01*
X82944755Y-65797744D01*
X82944752Y-65797743D01*
X82935918Y-65793242D01*
X82820000Y-65774882D01*
X82704082Y-65793242D01*
X82695248Y-65797743D01*
X82695245Y-65797744D01*
X82662013Y-65814677D01*
X82599511Y-65846523D01*
X82516523Y-65929511D01*
X82489229Y-65983079D01*
X82467744Y-66025245D01*
X82467743Y-66025248D01*
X82463242Y-66034082D01*
X82444882Y-66150000D01*
X82463242Y-66265918D01*
X82467743Y-66274752D01*
X82467744Y-66274755D01*
X82473058Y-66285184D01*
X82516523Y-66370489D01*
X82599511Y-66453477D01*
X82608346Y-66457979D01*
X82608465Y-66458065D01*
X82651818Y-66514288D01*
X82657893Y-66585024D01*
X82624761Y-66647815D01*
X82608465Y-66661935D01*
X82608346Y-66662021D01*
X82599511Y-66666523D01*
X82516523Y-66749511D01*
X82502995Y-66776062D01*
X82467744Y-66845245D01*
X82467743Y-66845248D01*
X82463242Y-66854082D01*
X82444882Y-66970000D01*
X64985275Y-66970000D01*
X64965984Y-66927572D01*
X64895274Y-66845509D01*
X64878260Y-66825763D01*
X64878257Y-66825760D01*
X64872400Y-66818963D01*
X64752095Y-66740985D01*
X64614739Y-66699907D01*
X64605763Y-66699852D01*
X64605762Y-66699852D01*
X64545555Y-66699484D01*
X64471376Y-66699031D01*
X64333529Y-66738428D01*
X64212280Y-66814930D01*
X64206338Y-66821658D01*
X64206337Y-66821659D01*
X64196193Y-66833145D01*
X64117377Y-66922388D01*
X64056447Y-67052163D01*
X64049816Y-67094755D01*
X64036287Y-67181648D01*
X64034391Y-67193823D01*
X56801953Y-67193823D01*
X56828899Y-67138207D01*
X56852685Y-66996828D01*
X56852836Y-66984474D01*
X56848907Y-66957041D01*
X56859049Y-66886776D01*
X56905571Y-66833145D01*
X56975944Y-66813201D01*
X57007087Y-66813772D01*
X57015751Y-66811410D01*
X57136746Y-66778423D01*
X57136748Y-66778422D01*
X57145405Y-66776062D01*
X57267579Y-66701047D01*
X57268527Y-66700000D01*
X59149882Y-66700000D01*
X59168242Y-66815918D01*
X59172743Y-66824752D01*
X59172744Y-66824755D01*
X59183319Y-66845509D01*
X59221523Y-66920489D01*
X59304511Y-67003477D01*
X59358079Y-67030771D01*
X59400245Y-67052256D01*
X59400248Y-67052257D01*
X59409082Y-67056758D01*
X59525000Y-67075118D01*
X59640918Y-67056758D01*
X59649752Y-67052257D01*
X59649755Y-67052256D01*
X59691921Y-67030771D01*
X59745489Y-67003477D01*
X59828477Y-66920489D01*
X59866681Y-66845509D01*
X59877256Y-66824755D01*
X59877257Y-66824752D01*
X59881758Y-66815918D01*
X59900118Y-66700000D01*
X62624882Y-66700000D01*
X62643242Y-66815918D01*
X62647743Y-66824752D01*
X62647744Y-66824755D01*
X62658319Y-66845509D01*
X62696523Y-66920489D01*
X62779511Y-67003477D01*
X62833079Y-67030771D01*
X62875245Y-67052256D01*
X62875248Y-67052257D01*
X62884082Y-67056758D01*
X63000000Y-67075118D01*
X63115918Y-67056758D01*
X63124752Y-67052257D01*
X63124755Y-67052256D01*
X63166921Y-67030771D01*
X63220489Y-67003477D01*
X63303477Y-66920489D01*
X63341681Y-66845509D01*
X63352256Y-66824755D01*
X63352257Y-66824752D01*
X63356758Y-66815918D01*
X63375118Y-66700000D01*
X63356758Y-66584082D01*
X63352257Y-66575248D01*
X63352256Y-66575245D01*
X63326715Y-66525118D01*
X63303477Y-66479511D01*
X63220489Y-66396523D01*
X63166921Y-66369229D01*
X63124755Y-66347744D01*
X63124752Y-66347743D01*
X63115918Y-66343242D01*
X63000000Y-66324882D01*
X62884082Y-66343242D01*
X62875248Y-66347743D01*
X62875245Y-66347744D01*
X62833079Y-66369229D01*
X62779511Y-66396523D01*
X62696523Y-66479511D01*
X62673285Y-66525118D01*
X62647744Y-66575245D01*
X62647743Y-66575248D01*
X62643242Y-66584082D01*
X62624882Y-66700000D01*
X59900118Y-66700000D01*
X59881758Y-66584082D01*
X59877257Y-66575248D01*
X59877256Y-66575245D01*
X59851715Y-66525118D01*
X59828477Y-66479511D01*
X59745489Y-66396523D01*
X59691921Y-66369229D01*
X59649755Y-66347744D01*
X59649752Y-66347743D01*
X59640918Y-66343242D01*
X59525000Y-66324882D01*
X59409082Y-66343242D01*
X59400248Y-66347743D01*
X59400245Y-66347744D01*
X59358079Y-66369229D01*
X59304511Y-66396523D01*
X59221523Y-66479511D01*
X59198285Y-66525118D01*
X59172744Y-66575245D01*
X59172743Y-66575248D01*
X59168242Y-66584082D01*
X59149882Y-66700000D01*
X57268527Y-66700000D01*
X57283244Y-66683741D01*
X57357766Y-66601409D01*
X57363788Y-66594756D01*
X57406423Y-66506758D01*
X57422383Y-66473816D01*
X57422383Y-66473815D01*
X57426298Y-66465735D01*
X57450084Y-66324356D01*
X57450235Y-66312002D01*
X57449546Y-66307188D01*
X57449229Y-66302331D01*
X57451094Y-66302210D01*
X57453752Y-66283823D01*
X65094391Y-66283823D01*
X65095555Y-66292725D01*
X65095555Y-66292728D01*
X65099691Y-66324356D01*
X65112980Y-66425979D01*
X65170720Y-66557203D01*
X65176497Y-66564076D01*
X65176498Y-66564077D01*
X65246887Y-66647815D01*
X65262970Y-66666948D01*
X65382313Y-66746390D01*
X65519157Y-66789142D01*
X65528129Y-66789306D01*
X65528132Y-66789307D01*
X65593463Y-66790504D01*
X65662499Y-66791770D01*
X65671533Y-66789307D01*
X65792158Y-66756421D01*
X65792160Y-66756420D01*
X65800817Y-66754060D01*
X65922991Y-66679045D01*
X66019200Y-66572754D01*
X66067135Y-66473816D01*
X66077795Y-66451814D01*
X66077795Y-66451813D01*
X66081710Y-66443733D01*
X66105496Y-66302354D01*
X66105647Y-66290000D01*
X66097473Y-66232924D01*
X66086596Y-66156968D01*
X66086595Y-66156965D01*
X66085323Y-66148082D01*
X66074767Y-66124864D01*
X66066179Y-66105977D01*
X66025984Y-66017572D01*
X65971988Y-65954907D01*
X65938260Y-65915763D01*
X65938257Y-65915760D01*
X65932400Y-65908963D01*
X65812095Y-65830985D01*
X65674739Y-65789907D01*
X65665763Y-65789852D01*
X65665762Y-65789852D01*
X65605555Y-65789484D01*
X65531376Y-65789031D01*
X65393529Y-65828428D01*
X65272280Y-65904930D01*
X65266338Y-65911658D01*
X65266337Y-65911659D01*
X65250571Y-65929511D01*
X65177377Y-66012388D01*
X65116447Y-66142163D01*
X65112564Y-66167105D01*
X65095803Y-66274755D01*
X65094391Y-66283823D01*
X57453752Y-66283823D01*
X57460115Y-66239802D01*
X57506648Y-66186182D01*
X57576998Y-66166252D01*
X57632499Y-66167270D01*
X57641163Y-66164908D01*
X57762158Y-66131921D01*
X57762160Y-66131920D01*
X57770817Y-66129560D01*
X57892991Y-66054545D01*
X57989200Y-65948254D01*
X58034275Y-65855219D01*
X58047795Y-65827314D01*
X58047795Y-65827313D01*
X58051710Y-65819233D01*
X58075496Y-65677854D01*
X58075647Y-65665500D01*
X58060502Y-65559746D01*
X58064244Y-65533823D01*
X66524391Y-65533823D01*
X66525555Y-65542725D01*
X66525555Y-65542728D01*
X66533686Y-65604901D01*
X66542980Y-65675979D01*
X66546597Y-65684199D01*
X66593895Y-65791691D01*
X66600720Y-65807203D01*
X66606497Y-65814076D01*
X66606498Y-65814077D01*
X66678841Y-65900140D01*
X66692970Y-65916948D01*
X66812313Y-65996390D01*
X66949157Y-66039142D01*
X66958129Y-66039306D01*
X66958132Y-66039307D01*
X67023463Y-66040504D01*
X67092499Y-66041770D01*
X67101533Y-66039307D01*
X67222158Y-66006421D01*
X67222160Y-66006420D01*
X67230817Y-66004060D01*
X67352991Y-65929045D01*
X67449200Y-65822754D01*
X67511710Y-65693733D01*
X67535496Y-65552354D01*
X67535647Y-65540000D01*
X67522940Y-65451270D01*
X67519894Y-65430000D01*
X69194882Y-65430000D01*
X69213242Y-65545918D01*
X69217743Y-65554752D01*
X69217744Y-65554755D01*
X69239229Y-65596921D01*
X69266523Y-65650489D01*
X69349511Y-65733477D01*
X69403079Y-65760771D01*
X69445245Y-65782256D01*
X69445248Y-65782257D01*
X69454082Y-65786758D01*
X69570000Y-65805118D01*
X69685918Y-65786758D01*
X69694752Y-65782257D01*
X69694755Y-65782256D01*
X69736921Y-65760771D01*
X69790489Y-65733477D01*
X69873477Y-65650489D01*
X69900771Y-65596921D01*
X69922256Y-65554755D01*
X69922257Y-65554752D01*
X69926758Y-65545918D01*
X69945118Y-65430000D01*
X69926758Y-65314082D01*
X69922257Y-65305248D01*
X69922256Y-65305245D01*
X69896990Y-65255659D01*
X69873477Y-65209511D01*
X69790489Y-65126523D01*
X69736921Y-65099229D01*
X69694755Y-65077744D01*
X69694752Y-65077743D01*
X69685918Y-65073242D01*
X69570000Y-65054882D01*
X69454082Y-65073242D01*
X69445248Y-65077743D01*
X69445245Y-65077744D01*
X69403079Y-65099229D01*
X69349511Y-65126523D01*
X69266523Y-65209511D01*
X69243010Y-65255659D01*
X69217744Y-65305245D01*
X69217743Y-65305248D01*
X69213242Y-65314082D01*
X69194882Y-65430000D01*
X67519894Y-65430000D01*
X67516596Y-65406968D01*
X67516595Y-65406965D01*
X67515323Y-65398082D01*
X67504767Y-65374864D01*
X67479627Y-65319572D01*
X67455984Y-65267572D01*
X67412152Y-65216703D01*
X67368260Y-65165763D01*
X67368257Y-65165760D01*
X67362400Y-65158963D01*
X67242095Y-65080985D01*
X67104739Y-65039907D01*
X67095763Y-65039852D01*
X67095762Y-65039852D01*
X67035555Y-65039484D01*
X66961376Y-65039031D01*
X66823529Y-65078428D01*
X66702280Y-65154930D01*
X66607377Y-65262388D01*
X66546447Y-65392163D01*
X66524391Y-65533823D01*
X58064244Y-65533823D01*
X58070645Y-65489478D01*
X58117167Y-65435848D01*
X58187538Y-65415905D01*
X58204945Y-65416224D01*
X58261999Y-65417270D01*
X58270663Y-65414908D01*
X58391658Y-65381921D01*
X58391660Y-65381920D01*
X58400317Y-65379560D01*
X58522491Y-65304545D01*
X58618700Y-65198254D01*
X58669356Y-65093699D01*
X58677295Y-65077314D01*
X58677295Y-65077313D01*
X58681210Y-65069233D01*
X58704996Y-64927854D01*
X58705147Y-64915500D01*
X58695691Y-64849472D01*
X58705835Y-64779205D01*
X58752358Y-64725576D01*
X58822728Y-64705633D01*
X58911999Y-64707270D01*
X58920663Y-64704908D01*
X59041658Y-64671921D01*
X59041660Y-64671920D01*
X59050317Y-64669560D01*
X59172491Y-64594545D01*
X59189492Y-64575763D01*
X59262678Y-64494907D01*
X59263659Y-64493823D01*
X67644391Y-64493823D01*
X67645555Y-64502725D01*
X67645555Y-64502728D01*
X67653254Y-64561605D01*
X67662980Y-64635979D01*
X67720720Y-64767203D01*
X67726497Y-64774076D01*
X67726498Y-64774077D01*
X67762131Y-64816468D01*
X67812970Y-64876948D01*
X67870885Y-64915500D01*
X67922714Y-64950000D01*
X67932313Y-64956390D01*
X68069157Y-64999142D01*
X68078129Y-64999306D01*
X68078132Y-64999307D01*
X68143463Y-65000504D01*
X68212499Y-65001770D01*
X68221533Y-64999307D01*
X68342158Y-64966421D01*
X68342160Y-64966420D01*
X68350817Y-64964060D01*
X68384591Y-64943323D01*
X82294402Y-64943323D01*
X82295566Y-64952225D01*
X82295566Y-64952228D01*
X82301351Y-64996464D01*
X82312991Y-65085479D01*
X82370731Y-65216703D01*
X82376508Y-65223576D01*
X82376509Y-65223577D01*
X82420362Y-65275746D01*
X82462981Y-65326448D01*
X82470458Y-65331425D01*
X82567488Y-65396014D01*
X82582324Y-65405890D01*
X82590899Y-65408569D01*
X82593444Y-65409364D01*
X82719168Y-65448642D01*
X82728140Y-65448806D01*
X82728143Y-65448807D01*
X82793474Y-65450004D01*
X82862510Y-65451270D01*
X82871544Y-65448807D01*
X82992169Y-65415921D01*
X82992171Y-65415920D01*
X83000828Y-65413560D01*
X83123002Y-65338545D01*
X83149527Y-65309241D01*
X83213189Y-65238907D01*
X83219211Y-65232254D01*
X83261053Y-65145891D01*
X83277806Y-65111314D01*
X83277806Y-65111313D01*
X83281721Y-65103233D01*
X83305507Y-64961854D01*
X83305583Y-64955636D01*
X83305599Y-64954359D01*
X83305599Y-64954354D01*
X83305658Y-64949500D01*
X83291333Y-64849473D01*
X83286607Y-64816468D01*
X83286606Y-64816465D01*
X83285334Y-64807582D01*
X83277071Y-64789407D01*
X83239650Y-64707105D01*
X83225995Y-64677072D01*
X83182914Y-64627074D01*
X83138271Y-64575263D01*
X83138268Y-64575260D01*
X83132411Y-64568463D01*
X83012106Y-64490485D01*
X82874750Y-64449407D01*
X82865774Y-64449352D01*
X82865773Y-64449352D01*
X82805566Y-64448984D01*
X82731387Y-64448531D01*
X82593540Y-64487928D01*
X82472291Y-64564430D01*
X82466349Y-64571158D01*
X82466348Y-64571159D01*
X82441547Y-64599241D01*
X82377388Y-64671888D01*
X82316458Y-64801663D01*
X82315077Y-64810535D01*
X82296064Y-64932649D01*
X82294402Y-64943323D01*
X68384591Y-64943323D01*
X68472991Y-64889045D01*
X68508810Y-64849473D01*
X68563178Y-64789407D01*
X68569200Y-64782754D01*
X68620160Y-64677572D01*
X68627795Y-64661814D01*
X68627795Y-64661813D01*
X68631710Y-64653733D01*
X68655496Y-64512354D01*
X68655647Y-64500000D01*
X68646617Y-64436948D01*
X68636596Y-64366968D01*
X68636595Y-64366965D01*
X68635323Y-64358082D01*
X68628123Y-64342245D01*
X68615315Y-64314077D01*
X68575984Y-64227572D01*
X68546826Y-64193733D01*
X68488260Y-64125763D01*
X68488257Y-64125760D01*
X68482400Y-64118963D01*
X68362095Y-64040985D01*
X68338147Y-64033823D01*
X69044391Y-64033823D01*
X69045555Y-64042725D01*
X69045555Y-64042728D01*
X69051800Y-64090479D01*
X69062980Y-64175979D01*
X69120720Y-64307203D01*
X69126497Y-64314076D01*
X69126498Y-64314077D01*
X69171248Y-64367314D01*
X69212970Y-64416948D01*
X69250423Y-64441879D01*
X69320091Y-64488254D01*
X69332313Y-64496390D01*
X69469157Y-64539142D01*
X69478129Y-64539306D01*
X69478132Y-64539307D01*
X69543463Y-64540504D01*
X69612499Y-64541770D01*
X69621533Y-64539307D01*
X69742158Y-64506421D01*
X69742160Y-64506420D01*
X69750817Y-64504060D01*
X69872991Y-64429045D01*
X69885336Y-64415407D01*
X69963178Y-64329407D01*
X69969200Y-64322754D01*
X70031710Y-64193733D01*
X70055496Y-64052354D01*
X70055647Y-64040000D01*
X70038628Y-63921159D01*
X70036596Y-63906968D01*
X70036595Y-63906965D01*
X70035323Y-63898082D01*
X69975984Y-63767572D01*
X69951403Y-63739045D01*
X69888260Y-63665763D01*
X69888257Y-63665760D01*
X69882400Y-63658963D01*
X69762095Y-63580985D01*
X69624739Y-63539907D01*
X69615763Y-63539852D01*
X69615762Y-63539852D01*
X69555555Y-63539484D01*
X69481376Y-63539031D01*
X69343529Y-63578428D01*
X69222280Y-63654930D01*
X69127377Y-63762388D01*
X69066447Y-63892163D01*
X69061028Y-63926968D01*
X69047818Y-64011814D01*
X69044391Y-64033823D01*
X68338147Y-64033823D01*
X68224739Y-63999907D01*
X68215763Y-63999852D01*
X68215762Y-63999852D01*
X68155555Y-63999484D01*
X68081376Y-63999031D01*
X67943529Y-64038428D01*
X67822280Y-64114930D01*
X67816338Y-64121658D01*
X67816337Y-64121659D01*
X67806538Y-64132754D01*
X67727377Y-64222388D01*
X67666447Y-64352163D01*
X67659624Y-64395984D01*
X67646516Y-64480177D01*
X67644391Y-64493823D01*
X59263659Y-64493823D01*
X59268700Y-64488254D01*
X59331210Y-64359233D01*
X59352001Y-64235655D01*
X59383028Y-64171797D01*
X59443654Y-64134851D01*
X59478565Y-64130581D01*
X59604233Y-64132885D01*
X59612897Y-64130523D01*
X59733892Y-64097536D01*
X59733894Y-64097535D01*
X59742551Y-64095175D01*
X59864725Y-64020160D01*
X59872280Y-64011814D01*
X59932175Y-63945642D01*
X59960934Y-63913869D01*
X60008147Y-63816421D01*
X60019529Y-63792929D01*
X60019529Y-63792928D01*
X60023444Y-63784848D01*
X60047230Y-63643469D01*
X60047381Y-63631115D01*
X60037183Y-63559907D01*
X60028330Y-63498083D01*
X60028329Y-63498080D01*
X60027057Y-63489197D01*
X59967718Y-63358687D01*
X59904327Y-63285118D01*
X59879994Y-63256878D01*
X59879991Y-63256875D01*
X59874134Y-63250078D01*
X59753829Y-63172100D01*
X59692715Y-63153823D01*
X70319891Y-63153823D01*
X70321055Y-63162725D01*
X70321055Y-63162728D01*
X70322920Y-63176986D01*
X70338480Y-63295979D01*
X70342097Y-63304199D01*
X70379152Y-63388412D01*
X70396220Y-63427203D01*
X70401997Y-63434076D01*
X70401998Y-63434077D01*
X70409292Y-63442754D01*
X70475650Y-63521696D01*
X70484627Y-63532376D01*
X70513148Y-63597391D01*
X70501992Y-63667506D01*
X70482618Y-63696857D01*
X70407530Y-63781879D01*
X70346600Y-63911654D01*
X70342807Y-63936014D01*
X70326464Y-64040985D01*
X70324544Y-64053314D01*
X70325708Y-64062216D01*
X70325708Y-64062219D01*
X70331975Y-64110140D01*
X70343133Y-64195470D01*
X70400873Y-64326694D01*
X70406650Y-64333567D01*
X70406651Y-64333568D01*
X70443259Y-64377119D01*
X70493123Y-64436439D01*
X70552795Y-64476160D01*
X70598255Y-64506421D01*
X70612466Y-64515881D01*
X70749310Y-64558633D01*
X70758282Y-64558797D01*
X70758285Y-64558798D01*
X70823616Y-64559995D01*
X70892652Y-64561261D01*
X70901686Y-64558798D01*
X71022311Y-64525912D01*
X71022313Y-64525911D01*
X71030970Y-64523551D01*
X71153144Y-64448536D01*
X71169855Y-64430074D01*
X71185614Y-64412664D01*
X71246157Y-64375582D01*
X71317137Y-64377119D01*
X71375480Y-64416141D01*
X71392970Y-64436948D01*
X71422320Y-64456485D01*
X71504072Y-64510904D01*
X71512313Y-64516390D01*
X71649157Y-64559142D01*
X71658129Y-64559306D01*
X71658132Y-64559307D01*
X71723463Y-64560504D01*
X71792499Y-64561770D01*
X71801533Y-64559307D01*
X71922158Y-64526421D01*
X71922160Y-64526420D01*
X71930817Y-64524060D01*
X72052991Y-64449045D01*
X72059897Y-64441416D01*
X72141039Y-64351770D01*
X72149200Y-64342754D01*
X72197171Y-64243741D01*
X72207795Y-64221814D01*
X72207795Y-64221813D01*
X72211710Y-64213733D01*
X72235496Y-64072354D01*
X72235647Y-64060000D01*
X72226224Y-63994199D01*
X72216596Y-63926968D01*
X72216595Y-63926965D01*
X72215323Y-63918082D01*
X72203539Y-63892163D01*
X72182178Y-63845184D01*
X72155984Y-63787572D01*
X72114170Y-63739045D01*
X72068260Y-63685763D01*
X72068257Y-63685760D01*
X72062400Y-63678963D01*
X71942095Y-63600985D01*
X71804739Y-63559907D01*
X71795763Y-63559852D01*
X71795762Y-63559852D01*
X71735555Y-63559484D01*
X71661376Y-63559031D01*
X71523529Y-63598428D01*
X71402280Y-63674930D01*
X71396338Y-63681658D01*
X71396337Y-63681659D01*
X71375013Y-63705804D01*
X71314928Y-63743622D01*
X71243934Y-63742952D01*
X71185116Y-63704640D01*
X71178412Y-63696859D01*
X71171205Y-63688494D01*
X71141894Y-63623830D01*
X71152197Y-63553585D01*
X71173246Y-63521696D01*
X71238678Y-63449407D01*
X71244700Y-63442754D01*
X71292632Y-63343823D01*
X71303295Y-63321814D01*
X71303295Y-63321813D01*
X71307210Y-63313733D01*
X71315607Y-63263823D01*
X74814391Y-63263823D01*
X74815555Y-63272725D01*
X74815555Y-63272728D01*
X74817431Y-63287074D01*
X74832980Y-63405979D01*
X74849161Y-63442754D01*
X74879549Y-63511814D01*
X74890720Y-63537203D01*
X74896497Y-63544076D01*
X74896498Y-63544077D01*
X74976631Y-63639407D01*
X74982970Y-63646948D01*
X75024242Y-63674421D01*
X75092822Y-63720072D01*
X75102313Y-63726390D01*
X75239157Y-63769142D01*
X75248129Y-63769306D01*
X75248132Y-63769307D01*
X75313463Y-63770504D01*
X75382499Y-63771770D01*
X75391533Y-63769307D01*
X75512158Y-63736421D01*
X75512160Y-63736420D01*
X75520817Y-63734060D01*
X75642991Y-63659045D01*
X75652750Y-63648264D01*
X75710441Y-63584527D01*
X75739200Y-63552754D01*
X75789271Y-63449407D01*
X75797795Y-63431814D01*
X75797795Y-63431813D01*
X75801710Y-63423733D01*
X75825496Y-63282354D01*
X75825647Y-63270000D01*
X75816780Y-63208082D01*
X75806596Y-63136968D01*
X75806595Y-63136965D01*
X75805323Y-63128082D01*
X75745984Y-62997572D01*
X75713730Y-62960140D01*
X75670527Y-62910000D01*
X82454882Y-62910000D01*
X82473242Y-63025918D01*
X82477743Y-63034752D01*
X82477744Y-63034755D01*
X82493491Y-63065659D01*
X82526523Y-63130489D01*
X82609511Y-63213477D01*
X82663079Y-63240771D01*
X82705245Y-63262256D01*
X82705248Y-63262257D01*
X82714082Y-63266758D01*
X82830000Y-63285118D01*
X82945918Y-63266758D01*
X82954752Y-63262257D01*
X82954755Y-63262256D01*
X82996921Y-63240771D01*
X83050489Y-63213477D01*
X83133477Y-63130489D01*
X83166509Y-63065659D01*
X83182256Y-63034755D01*
X83182257Y-63034752D01*
X83186758Y-63025918D01*
X83205118Y-62910000D01*
X83186758Y-62794082D01*
X83182257Y-62785248D01*
X83182256Y-62785245D01*
X83143274Y-62708739D01*
X83133477Y-62689511D01*
X83050489Y-62606523D01*
X82992444Y-62576948D01*
X82954755Y-62557744D01*
X82954752Y-62557743D01*
X82945918Y-62553242D01*
X82830000Y-62534882D01*
X82714082Y-62553242D01*
X82705248Y-62557743D01*
X82705245Y-62557744D01*
X82667556Y-62576948D01*
X82609511Y-62606523D01*
X82526523Y-62689511D01*
X82516726Y-62708739D01*
X82477744Y-62785245D01*
X82477743Y-62785248D01*
X82473242Y-62794082D01*
X82454882Y-62910000D01*
X75670527Y-62910000D01*
X75658260Y-62895763D01*
X75658257Y-62895760D01*
X75652400Y-62888963D01*
X75532095Y-62810985D01*
X75394739Y-62769907D01*
X75385763Y-62769852D01*
X75385762Y-62769852D01*
X75325555Y-62769484D01*
X75251376Y-62769031D01*
X75113529Y-62808428D01*
X74992280Y-62884930D01*
X74986338Y-62891658D01*
X74986337Y-62891659D01*
X74982728Y-62895746D01*
X74897377Y-62992388D01*
X74836447Y-63122163D01*
X74827911Y-63176986D01*
X74817905Y-63241255D01*
X74814391Y-63263823D01*
X71315607Y-63263823D01*
X71330996Y-63172354D01*
X71331147Y-63160000D01*
X71318368Y-63070769D01*
X71312096Y-63026968D01*
X71312095Y-63026965D01*
X71310823Y-63018082D01*
X71251484Y-62887572D01*
X71221247Y-62852480D01*
X71163760Y-62785763D01*
X71163757Y-62785760D01*
X71157900Y-62778963D01*
X71037595Y-62700985D01*
X70900239Y-62659907D01*
X70891263Y-62659852D01*
X70891262Y-62659852D01*
X70831055Y-62659484D01*
X70756876Y-62659031D01*
X70619029Y-62698428D01*
X70497780Y-62774930D01*
X70491838Y-62781658D01*
X70491837Y-62781659D01*
X70463966Y-62813217D01*
X70402877Y-62882388D01*
X70341947Y-63012163D01*
X70333618Y-63065659D01*
X70322432Y-63137506D01*
X70319891Y-63153823D01*
X59692715Y-63153823D01*
X59616473Y-63131022D01*
X59607497Y-63130967D01*
X59607496Y-63130967D01*
X59547289Y-63130599D01*
X59473110Y-63130146D01*
X59335263Y-63169543D01*
X59214014Y-63246045D01*
X59208072Y-63252773D01*
X59208071Y-63252774D01*
X59186240Y-63277493D01*
X59119111Y-63353503D01*
X59058181Y-63483278D01*
X59040637Y-63595962D01*
X59040205Y-63598736D01*
X59009961Y-63662969D01*
X58949792Y-63700654D01*
X58914935Y-63705350D01*
X58854482Y-63704981D01*
X58780876Y-63704531D01*
X58643029Y-63743928D01*
X58521780Y-63820430D01*
X58515838Y-63827158D01*
X58515837Y-63827159D01*
X58489047Y-63857493D01*
X58426877Y-63927888D01*
X58365947Y-64057663D01*
X58360107Y-64095175D01*
X58346140Y-64184881D01*
X58343891Y-64199323D01*
X58345055Y-64208225D01*
X58345055Y-64208227D01*
X58353498Y-64272787D01*
X58342498Y-64342926D01*
X58295324Y-64395984D01*
X58227792Y-64415123D01*
X58179759Y-64414830D01*
X58130876Y-64414531D01*
X57993029Y-64453928D01*
X57871780Y-64530430D01*
X57865838Y-64537158D01*
X57865837Y-64537159D01*
X57841752Y-64564430D01*
X57776877Y-64637888D01*
X57715947Y-64767663D01*
X57709732Y-64807582D01*
X57698157Y-64881925D01*
X57693891Y-64909323D01*
X57695055Y-64918225D01*
X57695055Y-64918228D01*
X57708716Y-65022695D01*
X57697716Y-65092834D01*
X57650541Y-65145891D01*
X57583011Y-65165030D01*
X57501376Y-65164531D01*
X57363529Y-65203928D01*
X57242280Y-65280430D01*
X57236338Y-65287158D01*
X57236337Y-65287159D01*
X57220364Y-65305245D01*
X57147377Y-65387888D01*
X57086447Y-65517663D01*
X57064391Y-65659323D01*
X57065555Y-65668225D01*
X57065555Y-65668228D01*
X57065668Y-65669089D01*
X57065535Y-65669940D01*
X57065446Y-65677198D01*
X57064398Y-65677185D01*
X57054667Y-65739228D01*
X57007493Y-65792286D01*
X56939962Y-65811424D01*
X56926626Y-65811343D01*
X56875964Y-65811033D01*
X56738117Y-65850430D01*
X56616868Y-65926932D01*
X56610926Y-65933660D01*
X56610925Y-65933661D01*
X56606782Y-65938352D01*
X56521965Y-66034390D01*
X56461035Y-66164165D01*
X56459654Y-66173037D01*
X56441443Y-66290000D01*
X56438979Y-66305825D01*
X56443633Y-66341412D01*
X56432631Y-66411551D01*
X56385456Y-66464608D01*
X56317927Y-66483746D01*
X56278565Y-66483505D01*
X56140718Y-66522902D01*
X56019469Y-66599404D01*
X55924566Y-66706862D01*
X55863636Y-66836637D01*
X55862255Y-66845509D01*
X55849020Y-66930514D01*
X55841580Y-66978297D01*
X24500000Y-66978297D01*
X24500000Y-64943823D01*
X53269391Y-64943823D01*
X53270555Y-64952725D01*
X53270555Y-64952728D01*
X53276947Y-65001605D01*
X53287980Y-65085979D01*
X53345720Y-65217203D01*
X53351497Y-65224076D01*
X53351498Y-65224077D01*
X53382341Y-65260769D01*
X53437970Y-65326948D01*
X53557313Y-65406390D01*
X53694157Y-65449142D01*
X53703129Y-65449306D01*
X53703132Y-65449307D01*
X53768463Y-65450504D01*
X53837499Y-65451770D01*
X53846533Y-65449307D01*
X53967158Y-65416421D01*
X53967160Y-65416420D01*
X53975817Y-65414060D01*
X54097991Y-65339045D01*
X54104467Y-65331891D01*
X54188178Y-65239407D01*
X54194200Y-65232754D01*
X54242269Y-65133540D01*
X54252795Y-65111814D01*
X54252795Y-65111813D01*
X54256710Y-65103733D01*
X54280496Y-64962354D01*
X54280647Y-64950000D01*
X54260323Y-64808082D01*
X54256382Y-64799413D01*
X54222810Y-64725576D01*
X54200984Y-64677572D01*
X54173792Y-64646014D01*
X54113260Y-64575763D01*
X54113257Y-64575760D01*
X54107400Y-64568963D01*
X53987095Y-64490985D01*
X53849739Y-64449907D01*
X53840763Y-64449852D01*
X53840762Y-64449852D01*
X53780555Y-64449484D01*
X53706376Y-64449031D01*
X53568529Y-64488428D01*
X53447280Y-64564930D01*
X53352377Y-64672388D01*
X53291447Y-64802163D01*
X53290066Y-64811035D01*
X53271131Y-64932649D01*
X53269391Y-64943823D01*
X24500000Y-64943823D01*
X24500000Y-63343823D01*
X29794391Y-63343823D01*
X29795555Y-63352725D01*
X29795555Y-63352728D01*
X29800224Y-63388428D01*
X29812980Y-63485979D01*
X29816597Y-63494199D01*
X29862003Y-63597391D01*
X29870720Y-63617203D01*
X29876497Y-63624076D01*
X29876498Y-63624077D01*
X29949594Y-63711035D01*
X29962970Y-63726948D01*
X30082313Y-63806390D01*
X30219157Y-63849142D01*
X30228129Y-63849306D01*
X30228132Y-63849307D01*
X30293463Y-63850504D01*
X30362499Y-63851770D01*
X30371533Y-63849307D01*
X30492158Y-63816421D01*
X30492160Y-63816420D01*
X30500817Y-63814060D01*
X30622991Y-63739045D01*
X30654134Y-63704639D01*
X30713178Y-63639407D01*
X30719200Y-63632754D01*
X30781710Y-63503733D01*
X30805496Y-63362354D01*
X30805647Y-63350000D01*
X30804762Y-63343823D01*
X31294391Y-63343823D01*
X31295555Y-63352725D01*
X31295555Y-63352728D01*
X31300224Y-63388428D01*
X31312980Y-63485979D01*
X31316597Y-63494199D01*
X31362003Y-63597391D01*
X31370720Y-63617203D01*
X31376497Y-63624076D01*
X31376498Y-63624077D01*
X31449594Y-63711035D01*
X31462970Y-63726948D01*
X31582313Y-63806390D01*
X31719157Y-63849142D01*
X31728129Y-63849306D01*
X31728132Y-63849307D01*
X31793463Y-63850504D01*
X31862499Y-63851770D01*
X31871533Y-63849307D01*
X31891648Y-63843823D01*
X52644391Y-63843823D01*
X52645555Y-63852725D01*
X52645555Y-63852728D01*
X52646814Y-63862354D01*
X52662980Y-63985979D01*
X52669809Y-64001498D01*
X52698426Y-64066535D01*
X52720720Y-64117203D01*
X52726497Y-64124076D01*
X52726498Y-64124077D01*
X52805326Y-64217854D01*
X52812970Y-64226948D01*
X52932313Y-64306390D01*
X53069157Y-64349142D01*
X53078129Y-64349306D01*
X53078132Y-64349307D01*
X53143463Y-64350504D01*
X53212499Y-64351770D01*
X53221163Y-64349408D01*
X53342158Y-64316421D01*
X53342160Y-64316420D01*
X53350817Y-64314060D01*
X53472991Y-64239045D01*
X53489534Y-64220769D01*
X53563178Y-64139407D01*
X53569200Y-64132754D01*
X53614139Y-64040000D01*
X53627795Y-64011814D01*
X53627795Y-64011813D01*
X53631710Y-64003733D01*
X53655496Y-63862354D01*
X53655647Y-63850000D01*
X53645891Y-63781879D01*
X53636596Y-63716968D01*
X53636595Y-63716965D01*
X53635323Y-63708082D01*
X53622084Y-63678963D01*
X53609790Y-63651925D01*
X53575984Y-63577572D01*
X53545747Y-63542480D01*
X53488260Y-63475763D01*
X53488257Y-63475760D01*
X53482400Y-63468963D01*
X53362095Y-63390985D01*
X53224739Y-63349907D01*
X53215763Y-63349852D01*
X53215762Y-63349852D01*
X53155555Y-63349484D01*
X53081376Y-63349031D01*
X52943529Y-63388428D01*
X52822280Y-63464930D01*
X52727377Y-63572388D01*
X52666447Y-63702163D01*
X52659944Y-63743928D01*
X52646986Y-63827159D01*
X52644391Y-63843823D01*
X31891648Y-63843823D01*
X31992158Y-63816421D01*
X31992160Y-63816420D01*
X32000817Y-63814060D01*
X32122991Y-63739045D01*
X32154134Y-63704639D01*
X32213178Y-63639407D01*
X32219200Y-63632754D01*
X32281710Y-63503733D01*
X32305496Y-63362354D01*
X32305647Y-63350000D01*
X32296133Y-63283567D01*
X32286596Y-63216968D01*
X32286595Y-63216965D01*
X32285323Y-63208082D01*
X32225984Y-63077572D01*
X32207598Y-63056234D01*
X32138260Y-62975763D01*
X32138257Y-62975760D01*
X32132400Y-62968963D01*
X32012095Y-62890985D01*
X32005018Y-62888868D01*
X31952173Y-62842665D01*
X31932473Y-62774456D01*
X31952778Y-62706425D01*
X32001526Y-62665214D01*
X32000817Y-62664060D01*
X32003390Y-62662480D01*
X32122991Y-62589045D01*
X32157054Y-62551413D01*
X32213178Y-62489407D01*
X32219200Y-62482754D01*
X32264426Y-62389407D01*
X32277795Y-62361814D01*
X32277795Y-62361813D01*
X32281710Y-62353733D01*
X32305496Y-62212354D01*
X32305647Y-62200000D01*
X32291326Y-62100000D01*
X32290441Y-62093823D01*
X45644391Y-62093823D01*
X45645555Y-62102725D01*
X45645555Y-62102728D01*
X45646814Y-62112354D01*
X45662980Y-62235979D01*
X45720720Y-62367203D01*
X45726497Y-62374076D01*
X45726498Y-62374077D01*
X45733792Y-62382754D01*
X45812970Y-62476948D01*
X45932313Y-62556390D01*
X46069157Y-62599142D01*
X46078129Y-62599306D01*
X46078132Y-62599307D01*
X46143463Y-62600504D01*
X46212499Y-62601770D01*
X46221533Y-62599307D01*
X46342158Y-62566421D01*
X46342160Y-62566420D01*
X46350817Y-62564060D01*
X46472991Y-62489045D01*
X46569200Y-62382754D01*
X46631710Y-62253733D01*
X46655496Y-62112354D01*
X46655647Y-62100000D01*
X46635323Y-61958082D01*
X46625168Y-61935746D01*
X46579700Y-61835746D01*
X46575984Y-61827572D01*
X46505584Y-61745869D01*
X46488260Y-61725763D01*
X46488257Y-61725760D01*
X46482400Y-61718963D01*
X46362095Y-61640985D01*
X46224739Y-61599907D01*
X46215763Y-61599852D01*
X46215762Y-61599852D01*
X46155555Y-61599484D01*
X46081376Y-61599031D01*
X45943529Y-61638428D01*
X45822280Y-61714930D01*
X45816338Y-61721658D01*
X45816337Y-61721659D01*
X45800046Y-61740105D01*
X45727377Y-61822388D01*
X45666447Y-61952163D01*
X45665066Y-61961035D01*
X45649956Y-62058082D01*
X45644391Y-62093823D01*
X32290441Y-62093823D01*
X32286596Y-62066968D01*
X32286595Y-62066965D01*
X32285323Y-62058082D01*
X32225984Y-61927572D01*
X32207598Y-61906234D01*
X32138260Y-61825763D01*
X32138257Y-61825760D01*
X32132400Y-61818963D01*
X32012095Y-61740985D01*
X32005018Y-61738868D01*
X31952173Y-61692665D01*
X31932473Y-61624456D01*
X31952778Y-61556425D01*
X32001526Y-61515214D01*
X32000817Y-61514060D01*
X32005214Y-61511360D01*
X32122991Y-61439045D01*
X32219200Y-61332754D01*
X32281710Y-61203733D01*
X32305496Y-61062354D01*
X32305647Y-61050000D01*
X32285323Y-60908082D01*
X32225984Y-60777572D01*
X32207598Y-60756234D01*
X32138260Y-60675763D01*
X32138257Y-60675760D01*
X32132400Y-60668963D01*
X32012095Y-60590985D01*
X32003493Y-60588413D01*
X32003490Y-60588411D01*
X31944705Y-60570831D01*
X31885171Y-60532149D01*
X31856001Y-60467422D01*
X31866456Y-60397199D01*
X31913217Y-60343777D01*
X31947665Y-60328551D01*
X31992158Y-60316421D01*
X31992160Y-60316420D01*
X32000817Y-60314060D01*
X32122991Y-60239045D01*
X32219200Y-60132754D01*
X32281710Y-60003733D01*
X32305496Y-59862354D01*
X32305647Y-59850000D01*
X32298487Y-59800000D01*
X84224882Y-59800000D01*
X84243242Y-59915918D01*
X84247743Y-59924752D01*
X84247744Y-59924755D01*
X84269229Y-59966921D01*
X84296523Y-60020489D01*
X84379511Y-60103477D01*
X84421119Y-60124677D01*
X84475245Y-60152256D01*
X84475248Y-60152257D01*
X84484082Y-60156758D01*
X84600000Y-60175118D01*
X84715918Y-60156758D01*
X84724752Y-60152257D01*
X84724755Y-60152256D01*
X84778881Y-60124677D01*
X84820489Y-60103477D01*
X84903477Y-60020489D01*
X84930771Y-59966921D01*
X84952256Y-59924755D01*
X84952257Y-59924752D01*
X84956758Y-59915918D01*
X84975118Y-59800000D01*
X84956758Y-59684082D01*
X84952257Y-59675248D01*
X84952256Y-59675245D01*
X84930771Y-59633079D01*
X84903477Y-59579511D01*
X84820489Y-59496523D01*
X84758484Y-59464930D01*
X84724755Y-59447744D01*
X84724752Y-59447743D01*
X84715918Y-59443242D01*
X84600000Y-59424882D01*
X84484082Y-59443242D01*
X84475248Y-59447743D01*
X84475245Y-59447744D01*
X84441516Y-59464930D01*
X84379511Y-59496523D01*
X84296523Y-59579511D01*
X84269229Y-59633079D01*
X84247744Y-59675245D01*
X84247743Y-59675248D01*
X84243242Y-59684082D01*
X84224882Y-59800000D01*
X32298487Y-59800000D01*
X32285323Y-59708082D01*
X32225984Y-59577572D01*
X32162194Y-59503540D01*
X32138260Y-59475763D01*
X32138257Y-59475760D01*
X32132400Y-59468963D01*
X32012095Y-59390985D01*
X31874739Y-59349907D01*
X31865763Y-59349852D01*
X31865762Y-59349852D01*
X31805555Y-59349484D01*
X31731376Y-59349031D01*
X31593529Y-59388428D01*
X31472280Y-59464930D01*
X31377377Y-59572388D01*
X31316447Y-59702163D01*
X31315066Y-59711035D01*
X31299690Y-59809792D01*
X31294391Y-59843823D01*
X31295555Y-59852725D01*
X31295555Y-59852728D01*
X31296814Y-59862354D01*
X31312980Y-59985979D01*
X31370720Y-60117203D01*
X31376497Y-60124076D01*
X31376498Y-60124077D01*
X31383792Y-60132754D01*
X31462970Y-60226948D01*
X31582313Y-60306390D01*
X31641574Y-60324904D01*
X31656986Y-60329719D01*
X31716043Y-60369125D01*
X31744420Y-60434204D01*
X31733108Y-60504293D01*
X31685698Y-60557141D01*
X31654036Y-60571135D01*
X31602159Y-60585961D01*
X31602156Y-60585962D01*
X31593529Y-60588428D01*
X31472280Y-60664930D01*
X31377377Y-60772388D01*
X31316447Y-60902163D01*
X31294391Y-61043823D01*
X31295555Y-61052725D01*
X31295555Y-61052728D01*
X31296814Y-61062354D01*
X31312980Y-61185979D01*
X31370720Y-61317203D01*
X31376497Y-61324076D01*
X31376498Y-61324077D01*
X31383792Y-61332754D01*
X31462970Y-61426948D01*
X31582313Y-61506390D01*
X31590887Y-61509069D01*
X31595691Y-61511360D01*
X31648566Y-61558739D01*
X31667432Y-61627183D01*
X31646299Y-61694962D01*
X31595573Y-61737844D01*
X31593529Y-61738428D01*
X31472280Y-61814930D01*
X31377377Y-61922388D01*
X31316447Y-62052163D01*
X31294391Y-62193823D01*
X31295555Y-62202725D01*
X31295555Y-62202728D01*
X31302225Y-62253733D01*
X31312980Y-62335979D01*
X31370720Y-62467203D01*
X31376497Y-62474076D01*
X31376498Y-62474077D01*
X31454121Y-62566421D01*
X31462970Y-62576948D01*
X31582313Y-62656390D01*
X31590887Y-62659069D01*
X31595691Y-62661360D01*
X31648566Y-62708739D01*
X31667432Y-62777183D01*
X31646299Y-62844962D01*
X31595573Y-62887844D01*
X31593529Y-62888428D01*
X31472280Y-62964930D01*
X31466338Y-62971658D01*
X31466337Y-62971659D01*
X31437743Y-63004036D01*
X31377377Y-63072388D01*
X31316447Y-63202163D01*
X31314142Y-63216968D01*
X31297818Y-63321814D01*
X31294391Y-63343823D01*
X30804762Y-63343823D01*
X30796133Y-63283567D01*
X30786596Y-63216968D01*
X30786595Y-63216965D01*
X30785323Y-63208082D01*
X30725984Y-63077572D01*
X30707598Y-63056234D01*
X30638260Y-62975763D01*
X30638257Y-62975760D01*
X30632400Y-62968963D01*
X30512095Y-62890985D01*
X30374739Y-62849907D01*
X30365763Y-62849852D01*
X30365762Y-62849852D01*
X30305555Y-62849484D01*
X30231376Y-62849031D01*
X30093529Y-62888428D01*
X29972280Y-62964930D01*
X29966338Y-62971658D01*
X29966337Y-62971659D01*
X29937743Y-63004036D01*
X29877377Y-63072388D01*
X29816447Y-63202163D01*
X29814142Y-63216968D01*
X29797818Y-63321814D01*
X29794391Y-63343823D01*
X24500000Y-63343823D01*
X24500000Y-58100000D01*
X85324882Y-58100000D01*
X85343242Y-58215918D01*
X85347743Y-58224752D01*
X85347744Y-58224755D01*
X85363728Y-58256124D01*
X85396523Y-58320489D01*
X85479511Y-58403477D01*
X85533079Y-58430771D01*
X85575245Y-58452256D01*
X85575248Y-58452257D01*
X85584082Y-58456758D01*
X85700000Y-58475118D01*
X85815918Y-58456758D01*
X85824752Y-58452257D01*
X85824755Y-58452256D01*
X85866921Y-58430771D01*
X85920489Y-58403477D01*
X86003477Y-58320489D01*
X86036272Y-58256124D01*
X86052256Y-58224755D01*
X86052257Y-58224752D01*
X86056758Y-58215918D01*
X86067199Y-58150000D01*
X86874882Y-58150000D01*
X86893242Y-58265918D01*
X86897743Y-58274752D01*
X86897744Y-58274755D01*
X86908941Y-58296729D01*
X86946523Y-58370489D01*
X87029511Y-58453477D01*
X87083079Y-58480771D01*
X87125245Y-58502256D01*
X87125248Y-58502257D01*
X87134082Y-58506758D01*
X87250000Y-58525118D01*
X87365918Y-58506758D01*
X87374752Y-58502257D01*
X87374755Y-58502256D01*
X87416921Y-58480771D01*
X87470489Y-58453477D01*
X87553477Y-58370489D01*
X87567734Y-58342508D01*
X87616481Y-58290894D01*
X87685396Y-58273828D01*
X87752598Y-58296729D01*
X87792266Y-58342508D01*
X87806523Y-58370489D01*
X87889511Y-58453477D01*
X87943079Y-58480771D01*
X87985245Y-58502256D01*
X87985248Y-58502257D01*
X87994082Y-58506758D01*
X88110000Y-58525118D01*
X88225918Y-58506758D01*
X88234752Y-58502257D01*
X88234755Y-58502256D01*
X88239183Y-58500000D01*
X90124882Y-58500000D01*
X90143242Y-58615918D01*
X90147743Y-58624752D01*
X90147744Y-58624755D01*
X90169229Y-58666921D01*
X90196523Y-58720489D01*
X90279511Y-58803477D01*
X90333079Y-58830771D01*
X90375245Y-58852256D01*
X90375248Y-58852257D01*
X90384082Y-58856758D01*
X90500000Y-58875118D01*
X90615918Y-58856758D01*
X90624752Y-58852257D01*
X90624755Y-58852256D01*
X90666921Y-58830771D01*
X90720489Y-58803477D01*
X90803477Y-58720489D01*
X90830771Y-58666921D01*
X90852256Y-58624755D01*
X90852257Y-58624752D01*
X90856758Y-58615918D01*
X90875118Y-58500000D01*
X90856758Y-58384082D01*
X90852257Y-58375248D01*
X90852256Y-58375245D01*
X90819851Y-58311648D01*
X90803477Y-58279511D01*
X90720489Y-58196523D01*
X90648400Y-58159792D01*
X90624755Y-58147744D01*
X90624752Y-58147743D01*
X90615918Y-58143242D01*
X90500000Y-58124882D01*
X90384082Y-58143242D01*
X90375248Y-58147743D01*
X90375245Y-58147744D01*
X90351600Y-58159792D01*
X90279511Y-58196523D01*
X90196523Y-58279511D01*
X90180149Y-58311648D01*
X90147744Y-58375245D01*
X90147743Y-58375248D01*
X90143242Y-58384082D01*
X90124882Y-58500000D01*
X88239183Y-58500000D01*
X88276921Y-58480771D01*
X88330489Y-58453477D01*
X88413477Y-58370489D01*
X88451059Y-58296729D01*
X88462256Y-58274755D01*
X88462257Y-58274752D01*
X88466758Y-58265918D01*
X88485118Y-58150000D01*
X88466758Y-58034082D01*
X88462257Y-58025248D01*
X88462256Y-58025245D01*
X88427733Y-57957491D01*
X88413477Y-57929511D01*
X88330489Y-57846523D01*
X88276921Y-57819229D01*
X88234755Y-57797744D01*
X88234752Y-57797743D01*
X88225918Y-57793242D01*
X88110000Y-57774882D01*
X87994082Y-57793242D01*
X87985248Y-57797743D01*
X87985245Y-57797744D01*
X87943079Y-57819229D01*
X87889511Y-57846523D01*
X87806523Y-57929511D01*
X87802020Y-57938349D01*
X87792267Y-57957491D01*
X87743519Y-58009106D01*
X87674604Y-58026172D01*
X87607402Y-58003271D01*
X87567733Y-57957491D01*
X87557980Y-57938349D01*
X87553477Y-57929511D01*
X87470489Y-57846523D01*
X87416921Y-57819229D01*
X87374755Y-57797744D01*
X87374752Y-57797743D01*
X87365918Y-57793242D01*
X87250000Y-57774882D01*
X87134082Y-57793242D01*
X87125248Y-57797743D01*
X87125245Y-57797744D01*
X87083079Y-57819229D01*
X87029511Y-57846523D01*
X86946523Y-57929511D01*
X86932267Y-57957491D01*
X86897744Y-58025245D01*
X86897743Y-58025248D01*
X86893242Y-58034082D01*
X86874882Y-58150000D01*
X86067199Y-58150000D01*
X86075118Y-58100000D01*
X86056758Y-57984082D01*
X86052257Y-57975248D01*
X86052256Y-57975245D01*
X86025378Y-57922494D01*
X86003477Y-57879511D01*
X85920489Y-57796523D01*
X85866921Y-57769229D01*
X85824755Y-57747744D01*
X85824752Y-57747743D01*
X85815918Y-57743242D01*
X85700000Y-57724882D01*
X85584082Y-57743242D01*
X85575248Y-57747743D01*
X85575245Y-57747744D01*
X85533079Y-57769229D01*
X85479511Y-57796523D01*
X85396523Y-57879511D01*
X85374622Y-57922494D01*
X85347744Y-57975245D01*
X85347743Y-57975248D01*
X85343242Y-57984082D01*
X85324882Y-58100000D01*
X24500000Y-58100000D01*
X24500000Y-56293823D01*
X32994391Y-56293823D01*
X32995555Y-56302725D01*
X32995555Y-56302728D01*
X32996814Y-56312354D01*
X33012980Y-56435979D01*
X33070720Y-56567203D01*
X33076497Y-56574076D01*
X33076498Y-56574077D01*
X33083792Y-56582754D01*
X33162970Y-56676948D01*
X33282313Y-56756390D01*
X33419157Y-56799142D01*
X33428129Y-56799306D01*
X33428132Y-56799307D01*
X33493463Y-56800504D01*
X33562499Y-56801770D01*
X33571533Y-56799307D01*
X33692158Y-56766421D01*
X33692160Y-56766420D01*
X33700817Y-56764060D01*
X33822991Y-56689045D01*
X33919200Y-56582754D01*
X33981710Y-56453733D01*
X34005496Y-56312354D01*
X34005647Y-56300000D01*
X34004762Y-56293823D01*
X36094391Y-56293823D01*
X36095555Y-56302725D01*
X36095555Y-56302728D01*
X36096814Y-56312354D01*
X36112980Y-56435979D01*
X36170720Y-56567203D01*
X36176497Y-56574076D01*
X36176498Y-56574077D01*
X36183792Y-56582754D01*
X36262970Y-56676948D01*
X36382313Y-56756390D01*
X36519157Y-56799142D01*
X36528129Y-56799306D01*
X36528132Y-56799307D01*
X36593463Y-56800504D01*
X36662499Y-56801770D01*
X36671533Y-56799307D01*
X36792158Y-56766421D01*
X36792160Y-56766420D01*
X36800817Y-56764060D01*
X36922991Y-56689045D01*
X37019200Y-56582754D01*
X37081710Y-56453733D01*
X37105496Y-56312354D01*
X37105647Y-56300000D01*
X37085323Y-56158082D01*
X37025984Y-56027572D01*
X37007598Y-56006234D01*
X36938260Y-55925763D01*
X36938257Y-55925760D01*
X36932400Y-55918963D01*
X36812095Y-55840985D01*
X36674739Y-55799907D01*
X36665763Y-55799852D01*
X36665762Y-55799852D01*
X36605555Y-55799484D01*
X36531376Y-55799031D01*
X36393529Y-55838428D01*
X36272280Y-55914930D01*
X36177377Y-56022388D01*
X36116447Y-56152163D01*
X36094391Y-56293823D01*
X34004762Y-56293823D01*
X33985323Y-56158082D01*
X33925984Y-56027572D01*
X33907598Y-56006234D01*
X33838260Y-55925763D01*
X33838257Y-55925760D01*
X33832400Y-55918963D01*
X33712095Y-55840985D01*
X33574739Y-55799907D01*
X33565763Y-55799852D01*
X33565762Y-55799852D01*
X33505555Y-55799484D01*
X33431376Y-55799031D01*
X33293529Y-55838428D01*
X33172280Y-55914930D01*
X33077377Y-56022388D01*
X33016447Y-56152163D01*
X32994391Y-56293823D01*
X24500000Y-56293823D01*
X24500000Y-54950000D01*
X80154882Y-54950000D01*
X80173242Y-55065918D01*
X80177743Y-55074752D01*
X80177744Y-55074755D01*
X80195718Y-55110031D01*
X80226523Y-55170489D01*
X80309511Y-55253477D01*
X80363079Y-55280771D01*
X80405245Y-55302256D01*
X80405248Y-55302257D01*
X80414082Y-55306758D01*
X80530000Y-55325118D01*
X80645918Y-55306758D01*
X80654752Y-55302257D01*
X80654755Y-55302256D01*
X80741649Y-55257981D01*
X80750489Y-55253477D01*
X80756604Y-55247362D01*
X80822805Y-55223741D01*
X80891957Y-55239820D01*
X80902862Y-55246828D01*
X80909511Y-55253477D01*
X80918351Y-55257981D01*
X81005245Y-55302256D01*
X81005248Y-55302257D01*
X81014082Y-55306758D01*
X81130000Y-55325118D01*
X81245918Y-55306758D01*
X81254752Y-55302257D01*
X81254755Y-55302256D01*
X81341649Y-55257981D01*
X81350489Y-55253477D01*
X81356604Y-55247362D01*
X81422805Y-55223741D01*
X81491957Y-55239820D01*
X81502862Y-55246828D01*
X81509511Y-55253477D01*
X81518351Y-55257981D01*
X81605245Y-55302256D01*
X81605248Y-55302257D01*
X81614082Y-55306758D01*
X81730000Y-55325118D01*
X81845918Y-55306758D01*
X81854752Y-55302257D01*
X81854755Y-55302256D01*
X81896921Y-55280771D01*
X81950489Y-55253477D01*
X81957507Y-55246459D01*
X81965522Y-55240636D01*
X81966481Y-55241956D01*
X82018943Y-55213309D01*
X82089758Y-55218374D01*
X82119788Y-55234494D01*
X82122494Y-55236460D01*
X82129511Y-55243477D01*
X82183079Y-55270771D01*
X82225245Y-55292256D01*
X82225248Y-55292257D01*
X82234082Y-55296758D01*
X82350000Y-55315118D01*
X82465918Y-55296758D01*
X82474752Y-55292257D01*
X82474755Y-55292256D01*
X82516921Y-55270771D01*
X82570489Y-55243477D01*
X82653477Y-55160489D01*
X82657341Y-55152906D01*
X82712944Y-55110031D01*
X82783680Y-55103957D01*
X82846472Y-55137090D01*
X82870922Y-55170244D01*
X82896523Y-55220489D01*
X82979511Y-55303477D01*
X83024618Y-55326460D01*
X83075245Y-55352256D01*
X83075248Y-55352257D01*
X83084082Y-55356758D01*
X83200000Y-55375118D01*
X83315918Y-55356758D01*
X83324752Y-55352257D01*
X83324755Y-55352256D01*
X83375382Y-55326460D01*
X83420489Y-55303477D01*
X83455905Y-55268061D01*
X83518217Y-55234035D01*
X83589032Y-55239100D01*
X83634095Y-55268061D01*
X83699511Y-55333477D01*
X83745203Y-55356758D01*
X83795245Y-55382256D01*
X83795248Y-55382257D01*
X83804082Y-55386758D01*
X83920000Y-55405118D01*
X84035918Y-55386758D01*
X84044752Y-55382257D01*
X84044755Y-55382256D01*
X84094797Y-55356758D01*
X84140489Y-55333477D01*
X84223477Y-55250489D01*
X84250771Y-55196921D01*
X84272256Y-55154755D01*
X84272257Y-55154752D01*
X84276758Y-55145918D01*
X84295118Y-55030000D01*
X84276758Y-54914082D01*
X84272257Y-54905248D01*
X84272256Y-54905245D01*
X84250771Y-54863079D01*
X84223477Y-54809511D01*
X84140489Y-54726523D01*
X84081610Y-54696523D01*
X84044755Y-54677744D01*
X84044752Y-54677743D01*
X84035918Y-54673242D01*
X83920000Y-54654882D01*
X83804082Y-54673242D01*
X83795248Y-54677743D01*
X83795245Y-54677744D01*
X83758390Y-54696523D01*
X83699511Y-54726523D01*
X83664095Y-54761939D01*
X83601783Y-54795965D01*
X83530968Y-54790900D01*
X83485905Y-54761939D01*
X83420489Y-54696523D01*
X83366921Y-54669229D01*
X83324755Y-54647744D01*
X83324752Y-54647743D01*
X83315918Y-54643242D01*
X83200000Y-54624882D01*
X83084082Y-54643242D01*
X83075248Y-54647743D01*
X83075245Y-54647744D01*
X83033079Y-54669229D01*
X82979511Y-54696523D01*
X82896523Y-54779511D01*
X82892659Y-54787094D01*
X82837056Y-54829969D01*
X82766320Y-54836043D01*
X82703528Y-54802910D01*
X82679077Y-54769755D01*
X82657981Y-54728351D01*
X82653477Y-54719511D01*
X82570489Y-54636523D01*
X82512071Y-54606758D01*
X82474755Y-54587744D01*
X82474752Y-54587743D01*
X82465918Y-54583242D01*
X82350000Y-54564882D01*
X82234082Y-54583242D01*
X82225248Y-54587743D01*
X82225245Y-54587744D01*
X82187929Y-54606758D01*
X82129511Y-54636523D01*
X82122494Y-54643540D01*
X82114478Y-54649364D01*
X82113519Y-54648044D01*
X82061057Y-54676691D01*
X81990242Y-54671626D01*
X81960212Y-54655506D01*
X81957506Y-54653540D01*
X81950489Y-54646523D01*
X81896921Y-54619229D01*
X81854755Y-54597744D01*
X81854752Y-54597743D01*
X81845918Y-54593242D01*
X81730000Y-54574882D01*
X81614082Y-54593242D01*
X81605248Y-54597743D01*
X81605245Y-54597744D01*
X81554565Y-54623567D01*
X81509511Y-54646523D01*
X81503396Y-54652638D01*
X81437195Y-54676259D01*
X81368043Y-54660180D01*
X81357138Y-54653172D01*
X81350489Y-54646523D01*
X81305435Y-54623567D01*
X81254755Y-54597744D01*
X81254752Y-54597743D01*
X81245918Y-54593242D01*
X81130000Y-54574882D01*
X81014082Y-54593242D01*
X81005248Y-54597743D01*
X81005245Y-54597744D01*
X80954565Y-54623567D01*
X80909511Y-54646523D01*
X80903396Y-54652638D01*
X80837195Y-54676259D01*
X80768043Y-54660180D01*
X80757138Y-54653172D01*
X80750489Y-54646523D01*
X80705435Y-54623567D01*
X80654755Y-54597744D01*
X80654752Y-54597743D01*
X80645918Y-54593242D01*
X80530000Y-54574882D01*
X80414082Y-54593242D01*
X80405248Y-54597743D01*
X80405245Y-54597744D01*
X80363079Y-54619229D01*
X80309511Y-54646523D01*
X80226523Y-54729511D01*
X80206018Y-54769755D01*
X80177744Y-54825245D01*
X80177743Y-54825248D01*
X80173242Y-54834082D01*
X80154882Y-54950000D01*
X24500000Y-54950000D01*
X24500000Y-54250000D01*
X85824882Y-54250000D01*
X85843242Y-54365918D01*
X85847743Y-54374752D01*
X85847744Y-54374755D01*
X85869229Y-54416921D01*
X85896523Y-54470489D01*
X85979511Y-54553477D01*
X86021521Y-54574882D01*
X86075245Y-54602256D01*
X86075248Y-54602257D01*
X86084082Y-54606758D01*
X86200000Y-54625118D01*
X86315918Y-54606758D01*
X86324752Y-54602257D01*
X86324755Y-54602256D01*
X86378479Y-54574882D01*
X86420489Y-54553477D01*
X86427507Y-54546459D01*
X86435522Y-54540636D01*
X86437243Y-54543005D01*
X86485717Y-54516535D01*
X86556532Y-54521600D01*
X86588419Y-54542093D01*
X86589478Y-54540636D01*
X86597493Y-54546459D01*
X86604511Y-54553477D01*
X86646521Y-54574882D01*
X86700245Y-54602256D01*
X86700248Y-54602257D01*
X86709082Y-54606758D01*
X86825000Y-54625118D01*
X86940918Y-54606758D01*
X86949752Y-54602257D01*
X86949755Y-54602256D01*
X87003479Y-54574882D01*
X87045489Y-54553477D01*
X87052507Y-54546459D01*
X87060522Y-54540636D01*
X87062243Y-54543005D01*
X87110717Y-54516535D01*
X87181532Y-54521600D01*
X87213419Y-54542093D01*
X87214478Y-54540636D01*
X87222493Y-54546459D01*
X87229511Y-54553477D01*
X87271521Y-54574882D01*
X87325245Y-54602256D01*
X87325248Y-54602257D01*
X87334082Y-54606758D01*
X87450000Y-54625118D01*
X87565918Y-54606758D01*
X87574752Y-54602257D01*
X87574755Y-54602256D01*
X87661649Y-54557981D01*
X87670489Y-54553477D01*
X87676604Y-54547362D01*
X87742805Y-54523741D01*
X87811957Y-54539820D01*
X87822862Y-54546828D01*
X87829511Y-54553477D01*
X87838351Y-54557981D01*
X87925245Y-54602256D01*
X87925248Y-54602257D01*
X87934082Y-54606758D01*
X88050000Y-54625118D01*
X88165918Y-54606758D01*
X88174752Y-54602257D01*
X88174755Y-54602256D01*
X88261649Y-54557981D01*
X88270489Y-54553477D01*
X88276604Y-54547362D01*
X88342805Y-54523741D01*
X88411957Y-54539820D01*
X88422862Y-54546828D01*
X88429511Y-54553477D01*
X88438351Y-54557981D01*
X88525245Y-54602256D01*
X88525248Y-54602257D01*
X88534082Y-54606758D01*
X88650000Y-54625118D01*
X88765918Y-54606758D01*
X88774752Y-54602257D01*
X88774755Y-54602256D01*
X88828479Y-54574882D01*
X88870489Y-54553477D01*
X88877507Y-54546459D01*
X88885522Y-54540636D01*
X88887243Y-54543005D01*
X88935717Y-54516535D01*
X89006532Y-54521600D01*
X89038419Y-54542093D01*
X89039478Y-54540636D01*
X89047493Y-54546459D01*
X89054511Y-54553477D01*
X89096521Y-54574882D01*
X89150245Y-54602256D01*
X89150248Y-54602257D01*
X89159082Y-54606758D01*
X89275000Y-54625118D01*
X89390918Y-54606758D01*
X89399752Y-54602257D01*
X89399755Y-54602256D01*
X89453479Y-54574882D01*
X89495489Y-54553477D01*
X89578477Y-54470489D01*
X89605771Y-54416921D01*
X89627256Y-54374755D01*
X89627257Y-54374752D01*
X89631758Y-54365918D01*
X89650118Y-54250000D01*
X89631758Y-54134082D01*
X89627257Y-54125248D01*
X89627256Y-54125245D01*
X89587500Y-54047220D01*
X89578477Y-54029511D01*
X89495489Y-53946523D01*
X89441921Y-53919229D01*
X89399755Y-53897744D01*
X89399752Y-53897743D01*
X89390918Y-53893242D01*
X89275000Y-53874882D01*
X89159082Y-53893242D01*
X89150248Y-53897743D01*
X89150245Y-53897744D01*
X89108079Y-53919229D01*
X89054511Y-53946523D01*
X89047494Y-53953540D01*
X89039478Y-53959364D01*
X89037757Y-53956995D01*
X88989283Y-53983465D01*
X88918468Y-53978400D01*
X88886581Y-53957907D01*
X88885522Y-53959364D01*
X88877506Y-53953540D01*
X88870489Y-53946523D01*
X88816921Y-53919229D01*
X88774755Y-53897744D01*
X88774752Y-53897743D01*
X88765918Y-53893242D01*
X88650000Y-53874882D01*
X88534082Y-53893242D01*
X88525248Y-53897743D01*
X88525245Y-53897744D01*
X88455617Y-53933221D01*
X88429511Y-53946523D01*
X88423396Y-53952638D01*
X88357195Y-53976259D01*
X88288043Y-53960180D01*
X88277138Y-53953172D01*
X88270489Y-53946523D01*
X88244383Y-53933221D01*
X88174755Y-53897744D01*
X88174752Y-53897743D01*
X88165918Y-53893242D01*
X88050000Y-53874882D01*
X87934082Y-53893242D01*
X87925248Y-53897743D01*
X87925245Y-53897744D01*
X87855617Y-53933221D01*
X87829511Y-53946523D01*
X87823396Y-53952638D01*
X87757195Y-53976259D01*
X87688043Y-53960180D01*
X87677138Y-53953172D01*
X87670489Y-53946523D01*
X87644383Y-53933221D01*
X87574755Y-53897744D01*
X87574752Y-53897743D01*
X87565918Y-53893242D01*
X87450000Y-53874882D01*
X87334082Y-53893242D01*
X87325248Y-53897743D01*
X87325245Y-53897744D01*
X87283079Y-53919229D01*
X87229511Y-53946523D01*
X87222494Y-53953540D01*
X87214478Y-53959364D01*
X87212757Y-53956995D01*
X87164283Y-53983465D01*
X87093468Y-53978400D01*
X87061581Y-53957907D01*
X87060522Y-53959364D01*
X87052506Y-53953540D01*
X87045489Y-53946523D01*
X86991921Y-53919229D01*
X86949755Y-53897744D01*
X86949752Y-53897743D01*
X86940918Y-53893242D01*
X86825000Y-53874882D01*
X86709082Y-53893242D01*
X86700248Y-53897743D01*
X86700245Y-53897744D01*
X86658079Y-53919229D01*
X86604511Y-53946523D01*
X86597494Y-53953540D01*
X86589478Y-53959364D01*
X86587757Y-53956995D01*
X86539283Y-53983465D01*
X86468468Y-53978400D01*
X86436581Y-53957907D01*
X86435522Y-53959364D01*
X86427506Y-53953540D01*
X86420489Y-53946523D01*
X86366921Y-53919229D01*
X86324755Y-53897744D01*
X86324752Y-53897743D01*
X86315918Y-53893242D01*
X86200000Y-53874882D01*
X86084082Y-53893242D01*
X86075248Y-53897743D01*
X86075245Y-53897744D01*
X86033079Y-53919229D01*
X85979511Y-53946523D01*
X85896523Y-54029511D01*
X85887500Y-54047220D01*
X85847744Y-54125245D01*
X85847743Y-54125248D01*
X85843242Y-54134082D01*
X85824882Y-54250000D01*
X24500000Y-54250000D01*
X24500000Y-51360333D01*
X27892053Y-51360333D01*
X27905618Y-51567293D01*
X27956671Y-51768315D01*
X28043503Y-51956667D01*
X28163205Y-52126042D01*
X28311769Y-52270767D01*
X28316565Y-52273972D01*
X28316568Y-52273974D01*
X28395684Y-52326837D01*
X28484219Y-52385994D01*
X28489522Y-52388272D01*
X28489525Y-52388274D01*
X28669473Y-52465586D01*
X28674780Y-52467866D01*
X28729033Y-52480142D01*
X28871433Y-52512364D01*
X28871438Y-52512365D01*
X28877070Y-52513639D01*
X28882841Y-52513866D01*
X28882843Y-52513866D01*
X28944612Y-52516293D01*
X29084314Y-52521782D01*
X29194699Y-52505777D01*
X29283858Y-52492850D01*
X29283863Y-52492849D01*
X29289572Y-52492021D01*
X29295040Y-52490165D01*
X29480497Y-52427211D01*
X29480502Y-52427209D01*
X29485969Y-52425353D01*
X29492471Y-52421712D01*
X29561981Y-52382784D01*
X29666928Y-52324011D01*
X29826389Y-52191389D01*
X29959011Y-52031928D01*
X30060353Y-51850969D01*
X30062209Y-51845502D01*
X30062211Y-51845497D01*
X30125165Y-51660040D01*
X30125165Y-51660039D01*
X30127021Y-51654572D01*
X30127849Y-51648863D01*
X30127850Y-51648858D01*
X30156249Y-51452988D01*
X30156782Y-51449314D01*
X30158335Y-51390000D01*
X30155609Y-51360333D01*
X32082053Y-51360333D01*
X32095618Y-51567293D01*
X32146671Y-51768315D01*
X32233503Y-51956667D01*
X32353205Y-52126042D01*
X32501769Y-52270767D01*
X32506565Y-52273972D01*
X32506568Y-52273974D01*
X32585684Y-52326837D01*
X32674219Y-52385994D01*
X32679522Y-52388272D01*
X32679525Y-52388274D01*
X32859473Y-52465586D01*
X32864780Y-52467866D01*
X32919033Y-52480142D01*
X33061433Y-52512364D01*
X33061438Y-52512365D01*
X33067070Y-52513639D01*
X33072841Y-52513866D01*
X33072843Y-52513866D01*
X33134612Y-52516293D01*
X33274314Y-52521782D01*
X33384699Y-52505777D01*
X33473858Y-52492850D01*
X33473863Y-52492849D01*
X33479572Y-52492021D01*
X33485040Y-52490165D01*
X33670497Y-52427211D01*
X33670502Y-52427209D01*
X33675969Y-52425353D01*
X33682471Y-52421712D01*
X33751981Y-52382784D01*
X33856928Y-52324011D01*
X34016389Y-52191389D01*
X34149011Y-52031928D01*
X34250353Y-51850969D01*
X34252209Y-51845502D01*
X34252211Y-51845497D01*
X34315165Y-51660040D01*
X34315165Y-51660039D01*
X34317021Y-51654572D01*
X34317849Y-51648863D01*
X34317850Y-51648858D01*
X34346249Y-51452988D01*
X34346782Y-51449314D01*
X34348335Y-51390000D01*
X34345609Y-51360333D01*
X36272053Y-51360333D01*
X36285618Y-51567293D01*
X36336671Y-51768315D01*
X36423503Y-51956667D01*
X36543205Y-52126042D01*
X36691769Y-52270767D01*
X36696565Y-52273972D01*
X36696568Y-52273974D01*
X36775684Y-52326837D01*
X36864219Y-52385994D01*
X36869522Y-52388272D01*
X36869525Y-52388274D01*
X37049473Y-52465586D01*
X37054780Y-52467866D01*
X37109033Y-52480142D01*
X37251433Y-52512364D01*
X37251438Y-52512365D01*
X37257070Y-52513639D01*
X37262841Y-52513866D01*
X37262843Y-52513866D01*
X37324612Y-52516293D01*
X37464314Y-52521782D01*
X37574699Y-52505777D01*
X37663858Y-52492850D01*
X37663863Y-52492849D01*
X37669572Y-52492021D01*
X37675040Y-52490165D01*
X37860497Y-52427211D01*
X37860502Y-52427209D01*
X37865969Y-52425353D01*
X37872471Y-52421712D01*
X37941981Y-52382784D01*
X38046928Y-52324011D01*
X38206389Y-52191389D01*
X38339011Y-52031928D01*
X38440353Y-51850969D01*
X38442209Y-51845502D01*
X38442211Y-51845497D01*
X38505165Y-51660040D01*
X38505165Y-51660039D01*
X38507021Y-51654572D01*
X38507849Y-51648863D01*
X38507850Y-51648858D01*
X38536249Y-51452988D01*
X38536782Y-51449314D01*
X38538335Y-51390000D01*
X38535609Y-51360333D01*
X40462053Y-51360333D01*
X40475618Y-51567293D01*
X40526671Y-51768315D01*
X40613503Y-51956667D01*
X40733205Y-52126042D01*
X40881769Y-52270767D01*
X40886565Y-52273972D01*
X40886568Y-52273974D01*
X40965684Y-52326837D01*
X41054219Y-52385994D01*
X41059522Y-52388272D01*
X41059525Y-52388274D01*
X41239473Y-52465586D01*
X41244780Y-52467866D01*
X41299033Y-52480142D01*
X41441433Y-52512364D01*
X41441438Y-52512365D01*
X41447070Y-52513639D01*
X41452841Y-52513866D01*
X41452843Y-52513866D01*
X41514612Y-52516293D01*
X41654314Y-52521782D01*
X41764699Y-52505777D01*
X41853858Y-52492850D01*
X41853863Y-52492849D01*
X41859572Y-52492021D01*
X41865040Y-52490165D01*
X42050497Y-52427211D01*
X42050502Y-52427209D01*
X42055969Y-52425353D01*
X42062471Y-52421712D01*
X42131981Y-52382784D01*
X42236928Y-52324011D01*
X42396389Y-52191389D01*
X42529011Y-52031928D01*
X42630353Y-51850969D01*
X42632209Y-51845502D01*
X42632211Y-51845497D01*
X42695165Y-51660040D01*
X42695165Y-51660039D01*
X42697021Y-51654572D01*
X42697849Y-51648863D01*
X42697850Y-51648858D01*
X42726249Y-51452988D01*
X42726782Y-51449314D01*
X42728335Y-51390000D01*
X42725609Y-51360333D01*
X44652053Y-51360333D01*
X44665618Y-51567293D01*
X44716671Y-51768315D01*
X44803503Y-51956667D01*
X44923205Y-52126042D01*
X45071769Y-52270767D01*
X45076565Y-52273972D01*
X45076568Y-52273974D01*
X45155684Y-52326837D01*
X45244219Y-52385994D01*
X45249522Y-52388272D01*
X45249525Y-52388274D01*
X45429473Y-52465586D01*
X45434780Y-52467866D01*
X45489033Y-52480142D01*
X45631433Y-52512364D01*
X45631438Y-52512365D01*
X45637070Y-52513639D01*
X45642841Y-52513866D01*
X45642843Y-52513866D01*
X45704612Y-52516293D01*
X45844314Y-52521782D01*
X45954699Y-52505777D01*
X46043858Y-52492850D01*
X46043863Y-52492849D01*
X46049572Y-52492021D01*
X46055040Y-52490165D01*
X46240497Y-52427211D01*
X46240502Y-52427209D01*
X46245969Y-52425353D01*
X46252471Y-52421712D01*
X46321981Y-52382784D01*
X46426928Y-52324011D01*
X46586389Y-52191389D01*
X46719011Y-52031928D01*
X46820353Y-51850969D01*
X46822209Y-51845502D01*
X46822211Y-51845497D01*
X46885165Y-51660040D01*
X46885165Y-51660039D01*
X46887021Y-51654572D01*
X46887849Y-51648863D01*
X46887850Y-51648858D01*
X46916249Y-51452988D01*
X46916782Y-51449314D01*
X46918335Y-51390000D01*
X46899357Y-51183466D01*
X46843059Y-50983849D01*
X46751327Y-50797834D01*
X46627232Y-50631651D01*
X46511509Y-50524677D01*
X46479171Y-50494784D01*
X46479168Y-50494782D01*
X46474931Y-50490865D01*
X46299523Y-50380191D01*
X46229115Y-50352101D01*
X48846500Y-50352101D01*
X48846501Y-52427898D01*
X48847709Y-52433971D01*
X48849911Y-52445042D01*
X48852331Y-52457213D01*
X48874543Y-52490457D01*
X48907787Y-52512669D01*
X48937101Y-52518500D01*
X49974496Y-52518500D01*
X51012898Y-52518499D01*
X51026810Y-52515732D01*
X51030045Y-52515089D01*
X51042213Y-52512669D01*
X51075457Y-52490457D01*
X51097669Y-52457213D01*
X51103500Y-52427899D01*
X51103499Y-51360333D01*
X82892053Y-51360333D01*
X82905618Y-51567293D01*
X82956671Y-51768315D01*
X83043503Y-51956667D01*
X83163205Y-52126042D01*
X83311769Y-52270767D01*
X83316565Y-52273972D01*
X83316568Y-52273974D01*
X83395684Y-52326837D01*
X83484219Y-52385994D01*
X83489522Y-52388272D01*
X83489525Y-52388274D01*
X83669473Y-52465586D01*
X83674780Y-52467866D01*
X83729033Y-52480142D01*
X83871433Y-52512364D01*
X83871438Y-52512365D01*
X83877070Y-52513639D01*
X83882841Y-52513866D01*
X83882843Y-52513866D01*
X83944612Y-52516293D01*
X84084314Y-52521782D01*
X84194699Y-52505777D01*
X84283858Y-52492850D01*
X84283863Y-52492849D01*
X84289572Y-52492021D01*
X84295040Y-52490165D01*
X84480497Y-52427211D01*
X84480502Y-52427209D01*
X84485969Y-52425353D01*
X84492471Y-52421712D01*
X84561981Y-52382784D01*
X84666928Y-52324011D01*
X84826389Y-52191389D01*
X84959011Y-52031928D01*
X85060353Y-51850969D01*
X85062209Y-51845502D01*
X85062211Y-51845497D01*
X85125165Y-51660040D01*
X85125165Y-51660039D01*
X85127021Y-51654572D01*
X85127849Y-51648863D01*
X85127850Y-51648858D01*
X85156249Y-51452988D01*
X85156782Y-51449314D01*
X85158335Y-51390000D01*
X85155609Y-51360333D01*
X87082053Y-51360333D01*
X87095618Y-51567293D01*
X87146671Y-51768315D01*
X87233503Y-51956667D01*
X87353205Y-52126042D01*
X87501769Y-52270767D01*
X87506565Y-52273972D01*
X87506568Y-52273974D01*
X87585684Y-52326837D01*
X87674219Y-52385994D01*
X87679522Y-52388272D01*
X87679525Y-52388274D01*
X87859473Y-52465586D01*
X87864780Y-52467866D01*
X87919033Y-52480142D01*
X88061433Y-52512364D01*
X88061438Y-52512365D01*
X88067070Y-52513639D01*
X88072841Y-52513866D01*
X88072843Y-52513866D01*
X88134612Y-52516293D01*
X88274314Y-52521782D01*
X88384699Y-52505777D01*
X88473858Y-52492850D01*
X88473863Y-52492849D01*
X88479572Y-52492021D01*
X88485040Y-52490165D01*
X88670497Y-52427211D01*
X88670502Y-52427209D01*
X88675969Y-52425353D01*
X88682471Y-52421712D01*
X88751981Y-52382784D01*
X88856928Y-52324011D01*
X89016389Y-52191389D01*
X89149011Y-52031928D01*
X89250353Y-51850969D01*
X89252209Y-51845502D01*
X89252211Y-51845497D01*
X89315165Y-51660040D01*
X89315165Y-51660039D01*
X89317021Y-51654572D01*
X89317849Y-51648863D01*
X89317850Y-51648858D01*
X89346249Y-51452988D01*
X89346782Y-51449314D01*
X89348335Y-51390000D01*
X89345609Y-51360333D01*
X91272053Y-51360333D01*
X91285618Y-51567293D01*
X91336671Y-51768315D01*
X91423503Y-51956667D01*
X91543205Y-52126042D01*
X91691769Y-52270767D01*
X91696565Y-52273972D01*
X91696568Y-52273974D01*
X91775684Y-52326837D01*
X91864219Y-52385994D01*
X91869522Y-52388272D01*
X91869525Y-52388274D01*
X92049473Y-52465586D01*
X92054780Y-52467866D01*
X92109033Y-52480142D01*
X92251433Y-52512364D01*
X92251438Y-52512365D01*
X92257070Y-52513639D01*
X92262841Y-52513866D01*
X92262843Y-52513866D01*
X92324612Y-52516293D01*
X92464314Y-52521782D01*
X92574699Y-52505777D01*
X92663858Y-52492850D01*
X92663863Y-52492849D01*
X92669572Y-52492021D01*
X92675040Y-52490165D01*
X92860497Y-52427211D01*
X92860502Y-52427209D01*
X92865969Y-52425353D01*
X92872471Y-52421712D01*
X92941981Y-52382784D01*
X93046928Y-52324011D01*
X93206389Y-52191389D01*
X93339011Y-52031928D01*
X93440353Y-51850969D01*
X93442209Y-51845502D01*
X93442211Y-51845497D01*
X93505165Y-51660040D01*
X93505165Y-51660039D01*
X93507021Y-51654572D01*
X93507849Y-51648863D01*
X93507850Y-51648858D01*
X93536249Y-51452988D01*
X93536782Y-51449314D01*
X93538335Y-51390000D01*
X93535609Y-51360333D01*
X95462053Y-51360333D01*
X95475618Y-51567293D01*
X95526671Y-51768315D01*
X95613503Y-51956667D01*
X95733205Y-52126042D01*
X95881769Y-52270767D01*
X95886565Y-52273972D01*
X95886568Y-52273974D01*
X95965684Y-52326837D01*
X96054219Y-52385994D01*
X96059522Y-52388272D01*
X96059525Y-52388274D01*
X96239473Y-52465586D01*
X96244780Y-52467866D01*
X96299033Y-52480142D01*
X96441433Y-52512364D01*
X96441438Y-52512365D01*
X96447070Y-52513639D01*
X96452841Y-52513866D01*
X96452843Y-52513866D01*
X96514612Y-52516293D01*
X96654314Y-52521782D01*
X96764699Y-52505777D01*
X96853858Y-52492850D01*
X96853863Y-52492849D01*
X96859572Y-52492021D01*
X96865040Y-52490165D01*
X97050497Y-52427211D01*
X97050502Y-52427209D01*
X97055969Y-52425353D01*
X97062471Y-52421712D01*
X97131981Y-52382784D01*
X97236928Y-52324011D01*
X97396389Y-52191389D01*
X97529011Y-52031928D01*
X97630353Y-51850969D01*
X97632209Y-51845502D01*
X97632211Y-51845497D01*
X97695165Y-51660040D01*
X97695165Y-51660039D01*
X97697021Y-51654572D01*
X97697849Y-51648863D01*
X97697850Y-51648858D01*
X97726249Y-51452988D01*
X97726782Y-51449314D01*
X97728335Y-51390000D01*
X97725609Y-51360333D01*
X99652053Y-51360333D01*
X99665618Y-51567293D01*
X99716671Y-51768315D01*
X99803503Y-51956667D01*
X99923205Y-52126042D01*
X100071769Y-52270767D01*
X100076565Y-52273972D01*
X100076568Y-52273974D01*
X100155684Y-52326837D01*
X100244219Y-52385994D01*
X100249522Y-52388272D01*
X100249525Y-52388274D01*
X100429473Y-52465586D01*
X100434780Y-52467866D01*
X100489033Y-52480142D01*
X100631433Y-52512364D01*
X100631438Y-52512365D01*
X100637070Y-52513639D01*
X100642841Y-52513866D01*
X100642843Y-52513866D01*
X100704612Y-52516293D01*
X100844314Y-52521782D01*
X100954699Y-52505777D01*
X101043858Y-52492850D01*
X101043863Y-52492849D01*
X101049572Y-52492021D01*
X101055040Y-52490165D01*
X101240497Y-52427211D01*
X101240502Y-52427209D01*
X101245969Y-52425353D01*
X101252471Y-52421712D01*
X101321981Y-52382784D01*
X101426928Y-52324011D01*
X101586389Y-52191389D01*
X101719011Y-52031928D01*
X101820353Y-51850969D01*
X101822209Y-51845502D01*
X101822211Y-51845497D01*
X101885165Y-51660040D01*
X101885165Y-51660039D01*
X101887021Y-51654572D01*
X101887849Y-51648863D01*
X101887850Y-51648858D01*
X101916249Y-51452988D01*
X101916782Y-51449314D01*
X101918335Y-51390000D01*
X101915609Y-51360333D01*
X103842053Y-51360333D01*
X103855618Y-51567293D01*
X103906671Y-51768315D01*
X103993503Y-51956667D01*
X104113205Y-52126042D01*
X104261769Y-52270767D01*
X104266565Y-52273972D01*
X104266568Y-52273974D01*
X104345684Y-52326837D01*
X104434219Y-52385994D01*
X104439522Y-52388272D01*
X104439525Y-52388274D01*
X104619473Y-52465586D01*
X104624780Y-52467866D01*
X104679033Y-52480142D01*
X104821433Y-52512364D01*
X104821438Y-52512365D01*
X104827070Y-52513639D01*
X104832841Y-52513866D01*
X104832843Y-52513866D01*
X104894612Y-52516293D01*
X105034314Y-52521782D01*
X105144699Y-52505777D01*
X105233858Y-52492850D01*
X105233863Y-52492849D01*
X105239572Y-52492021D01*
X105245040Y-52490165D01*
X105430497Y-52427211D01*
X105430502Y-52427209D01*
X105435969Y-52425353D01*
X105442471Y-52421712D01*
X105511981Y-52382784D01*
X105616928Y-52324011D01*
X105776389Y-52191389D01*
X105909011Y-52031928D01*
X106010353Y-51850969D01*
X106012209Y-51845502D01*
X106012211Y-51845497D01*
X106075165Y-51660040D01*
X106075165Y-51660039D01*
X106077021Y-51654572D01*
X106077849Y-51648863D01*
X106077850Y-51648858D01*
X106106249Y-51452988D01*
X106106782Y-51449314D01*
X106108335Y-51390000D01*
X106089357Y-51183466D01*
X106033059Y-50983849D01*
X105941327Y-50797834D01*
X105817232Y-50631651D01*
X105701509Y-50524677D01*
X105669171Y-50494784D01*
X105669168Y-50494782D01*
X105664931Y-50490865D01*
X105489523Y-50380191D01*
X105296885Y-50303336D01*
X105291228Y-50302211D01*
X105291222Y-50302209D01*
X105099133Y-50264001D01*
X105099131Y-50264001D01*
X105093466Y-50262874D01*
X105087691Y-50262798D01*
X105087687Y-50262798D01*
X104983848Y-50261439D01*
X104886080Y-50260159D01*
X104880383Y-50261138D01*
X104880382Y-50261138D01*
X104687368Y-50294303D01*
X104687367Y-50294303D01*
X104681671Y-50295282D01*
X104487087Y-50367069D01*
X104308842Y-50473113D01*
X104304502Y-50476919D01*
X104304498Y-50476922D01*
X104233248Y-50539407D01*
X104152908Y-50609864D01*
X104024505Y-50772742D01*
X104021816Y-50777853D01*
X104021814Y-50777856D01*
X103969144Y-50877966D01*
X103927935Y-50956291D01*
X103866431Y-51154366D01*
X103842053Y-51360333D01*
X101915609Y-51360333D01*
X101899357Y-51183466D01*
X101843059Y-50983849D01*
X101751327Y-50797834D01*
X101627232Y-50631651D01*
X101511509Y-50524677D01*
X101479171Y-50494784D01*
X101479168Y-50494782D01*
X101474931Y-50490865D01*
X101299523Y-50380191D01*
X101106885Y-50303336D01*
X101101228Y-50302211D01*
X101101222Y-50302209D01*
X100909133Y-50264001D01*
X100909131Y-50264001D01*
X100903466Y-50262874D01*
X100897691Y-50262798D01*
X100897687Y-50262798D01*
X100793848Y-50261439D01*
X100696080Y-50260159D01*
X100690383Y-50261138D01*
X100690382Y-50261138D01*
X100497368Y-50294303D01*
X100497367Y-50294303D01*
X100491671Y-50295282D01*
X100297087Y-50367069D01*
X100118842Y-50473113D01*
X100114502Y-50476919D01*
X100114498Y-50476922D01*
X100043248Y-50539407D01*
X99962908Y-50609864D01*
X99834505Y-50772742D01*
X99831816Y-50777853D01*
X99831814Y-50777856D01*
X99779144Y-50877966D01*
X99737935Y-50956291D01*
X99676431Y-51154366D01*
X99652053Y-51360333D01*
X97725609Y-51360333D01*
X97709357Y-51183466D01*
X97653059Y-50983849D01*
X97561327Y-50797834D01*
X97437232Y-50631651D01*
X97321509Y-50524677D01*
X97289171Y-50494784D01*
X97289168Y-50494782D01*
X97284931Y-50490865D01*
X97109523Y-50380191D01*
X96916885Y-50303336D01*
X96911228Y-50302211D01*
X96911222Y-50302209D01*
X96719133Y-50264001D01*
X96719131Y-50264001D01*
X96713466Y-50262874D01*
X96707691Y-50262798D01*
X96707687Y-50262798D01*
X96603848Y-50261439D01*
X96506080Y-50260159D01*
X96500383Y-50261138D01*
X96500382Y-50261138D01*
X96307368Y-50294303D01*
X96307367Y-50294303D01*
X96301671Y-50295282D01*
X96107087Y-50367069D01*
X95928842Y-50473113D01*
X95924502Y-50476919D01*
X95924498Y-50476922D01*
X95853248Y-50539407D01*
X95772908Y-50609864D01*
X95644505Y-50772742D01*
X95641816Y-50777853D01*
X95641814Y-50777856D01*
X95589144Y-50877966D01*
X95547935Y-50956291D01*
X95486431Y-51154366D01*
X95462053Y-51360333D01*
X93535609Y-51360333D01*
X93519357Y-51183466D01*
X93463059Y-50983849D01*
X93371327Y-50797834D01*
X93247232Y-50631651D01*
X93131509Y-50524677D01*
X93099171Y-50494784D01*
X93099168Y-50494782D01*
X93094931Y-50490865D01*
X92919523Y-50380191D01*
X92726885Y-50303336D01*
X92721228Y-50302211D01*
X92721222Y-50302209D01*
X92529133Y-50264001D01*
X92529131Y-50264001D01*
X92523466Y-50262874D01*
X92517691Y-50262798D01*
X92517687Y-50262798D01*
X92413848Y-50261439D01*
X92316080Y-50260159D01*
X92310383Y-50261138D01*
X92310382Y-50261138D01*
X92117368Y-50294303D01*
X92117367Y-50294303D01*
X92111671Y-50295282D01*
X91917087Y-50367069D01*
X91738842Y-50473113D01*
X91734502Y-50476919D01*
X91734498Y-50476922D01*
X91663248Y-50539407D01*
X91582908Y-50609864D01*
X91454505Y-50772742D01*
X91451816Y-50777853D01*
X91451814Y-50777856D01*
X91399144Y-50877966D01*
X91357935Y-50956291D01*
X91296431Y-51154366D01*
X91272053Y-51360333D01*
X89345609Y-51360333D01*
X89329357Y-51183466D01*
X89273059Y-50983849D01*
X89181327Y-50797834D01*
X89057232Y-50631651D01*
X88941509Y-50524677D01*
X88909171Y-50494784D01*
X88909168Y-50494782D01*
X88904931Y-50490865D01*
X88729523Y-50380191D01*
X88536885Y-50303336D01*
X88531228Y-50302211D01*
X88531222Y-50302209D01*
X88339133Y-50264001D01*
X88339131Y-50264001D01*
X88333466Y-50262874D01*
X88327691Y-50262798D01*
X88327687Y-50262798D01*
X88223848Y-50261439D01*
X88126080Y-50260159D01*
X88120383Y-50261138D01*
X88120382Y-50261138D01*
X87927368Y-50294303D01*
X87927367Y-50294303D01*
X87921671Y-50295282D01*
X87727087Y-50367069D01*
X87548842Y-50473113D01*
X87544502Y-50476919D01*
X87544498Y-50476922D01*
X87473248Y-50539407D01*
X87392908Y-50609864D01*
X87264505Y-50772742D01*
X87261816Y-50777853D01*
X87261814Y-50777856D01*
X87209144Y-50877966D01*
X87167935Y-50956291D01*
X87106431Y-51154366D01*
X87082053Y-51360333D01*
X85155609Y-51360333D01*
X85139357Y-51183466D01*
X85083059Y-50983849D01*
X84991327Y-50797834D01*
X84867232Y-50631651D01*
X84751509Y-50524677D01*
X84719171Y-50494784D01*
X84719168Y-50494782D01*
X84714931Y-50490865D01*
X84539523Y-50380191D01*
X84346885Y-50303336D01*
X84341228Y-50302211D01*
X84341222Y-50302209D01*
X84149133Y-50264001D01*
X84149131Y-50264001D01*
X84143466Y-50262874D01*
X84137691Y-50262798D01*
X84137687Y-50262798D01*
X84033848Y-50261439D01*
X83936080Y-50260159D01*
X83930383Y-50261138D01*
X83930382Y-50261138D01*
X83737368Y-50294303D01*
X83737367Y-50294303D01*
X83731671Y-50295282D01*
X83537087Y-50367069D01*
X83358842Y-50473113D01*
X83354502Y-50476919D01*
X83354498Y-50476922D01*
X83283248Y-50539407D01*
X83202908Y-50609864D01*
X83074505Y-50772742D01*
X83071816Y-50777853D01*
X83071814Y-50777856D01*
X83019144Y-50877966D01*
X82977935Y-50956291D01*
X82916431Y-51154366D01*
X82892053Y-51360333D01*
X51103499Y-51360333D01*
X51103499Y-50352102D01*
X51100732Y-50338190D01*
X51100089Y-50334955D01*
X51097669Y-50322787D01*
X51075457Y-50289543D01*
X51042213Y-50267331D01*
X51012899Y-50261500D01*
X49975504Y-50261500D01*
X48937102Y-50261501D01*
X48924531Y-50264001D01*
X48919961Y-50264910D01*
X48907787Y-50267331D01*
X48874543Y-50289543D01*
X48852331Y-50322787D01*
X48846500Y-50352101D01*
X46229115Y-50352101D01*
X46106885Y-50303336D01*
X46101228Y-50302211D01*
X46101222Y-50302209D01*
X45909133Y-50264001D01*
X45909131Y-50264001D01*
X45903466Y-50262874D01*
X45897691Y-50262798D01*
X45897687Y-50262798D01*
X45793848Y-50261439D01*
X45696080Y-50260159D01*
X45690383Y-50261138D01*
X45690382Y-50261138D01*
X45497368Y-50294303D01*
X45497367Y-50294303D01*
X45491671Y-50295282D01*
X45297087Y-50367069D01*
X45118842Y-50473113D01*
X45114502Y-50476919D01*
X45114498Y-50476922D01*
X45043248Y-50539407D01*
X44962908Y-50609864D01*
X44834505Y-50772742D01*
X44831816Y-50777853D01*
X44831814Y-50777856D01*
X44779144Y-50877966D01*
X44737935Y-50956291D01*
X44676431Y-51154366D01*
X44652053Y-51360333D01*
X42725609Y-51360333D01*
X42709357Y-51183466D01*
X42653059Y-50983849D01*
X42561327Y-50797834D01*
X42437232Y-50631651D01*
X42321509Y-50524677D01*
X42289171Y-50494784D01*
X42289168Y-50494782D01*
X42284931Y-50490865D01*
X42109523Y-50380191D01*
X41916885Y-50303336D01*
X41911228Y-50302211D01*
X41911222Y-50302209D01*
X41719133Y-50264001D01*
X41719131Y-50264001D01*
X41713466Y-50262874D01*
X41707691Y-50262798D01*
X41707687Y-50262798D01*
X41603848Y-50261439D01*
X41506080Y-50260159D01*
X41500383Y-50261138D01*
X41500382Y-50261138D01*
X41307368Y-50294303D01*
X41307367Y-50294303D01*
X41301671Y-50295282D01*
X41107087Y-50367069D01*
X40928842Y-50473113D01*
X40924502Y-50476919D01*
X40924498Y-50476922D01*
X40853248Y-50539407D01*
X40772908Y-50609864D01*
X40644505Y-50772742D01*
X40641816Y-50777853D01*
X40641814Y-50777856D01*
X40589144Y-50877966D01*
X40547935Y-50956291D01*
X40486431Y-51154366D01*
X40462053Y-51360333D01*
X38535609Y-51360333D01*
X38519357Y-51183466D01*
X38463059Y-50983849D01*
X38371327Y-50797834D01*
X38247232Y-50631651D01*
X38131509Y-50524677D01*
X38099171Y-50494784D01*
X38099168Y-50494782D01*
X38094931Y-50490865D01*
X37919523Y-50380191D01*
X37726885Y-50303336D01*
X37721228Y-50302211D01*
X37721222Y-50302209D01*
X37529133Y-50264001D01*
X37529131Y-50264001D01*
X37523466Y-50262874D01*
X37517691Y-50262798D01*
X37517687Y-50262798D01*
X37413848Y-50261439D01*
X37316080Y-50260159D01*
X37310383Y-50261138D01*
X37310382Y-50261138D01*
X37117368Y-50294303D01*
X37117367Y-50294303D01*
X37111671Y-50295282D01*
X36917087Y-50367069D01*
X36738842Y-50473113D01*
X36734502Y-50476919D01*
X36734498Y-50476922D01*
X36663248Y-50539407D01*
X36582908Y-50609864D01*
X36454505Y-50772742D01*
X36451816Y-50777853D01*
X36451814Y-50777856D01*
X36399144Y-50877966D01*
X36357935Y-50956291D01*
X36296431Y-51154366D01*
X36272053Y-51360333D01*
X34345609Y-51360333D01*
X34329357Y-51183466D01*
X34273059Y-50983849D01*
X34181327Y-50797834D01*
X34057232Y-50631651D01*
X33941509Y-50524677D01*
X33909171Y-50494784D01*
X33909168Y-50494782D01*
X33904931Y-50490865D01*
X33729523Y-50380191D01*
X33536885Y-50303336D01*
X33531228Y-50302211D01*
X33531222Y-50302209D01*
X33339133Y-50264001D01*
X33339131Y-50264001D01*
X33333466Y-50262874D01*
X33327691Y-50262798D01*
X33327687Y-50262798D01*
X33223848Y-50261439D01*
X33126080Y-50260159D01*
X33120383Y-50261138D01*
X33120382Y-50261138D01*
X32927368Y-50294303D01*
X32927367Y-50294303D01*
X32921671Y-50295282D01*
X32727087Y-50367069D01*
X32548842Y-50473113D01*
X32544502Y-50476919D01*
X32544498Y-50476922D01*
X32473248Y-50539407D01*
X32392908Y-50609864D01*
X32264505Y-50772742D01*
X32261816Y-50777853D01*
X32261814Y-50777856D01*
X32209144Y-50877966D01*
X32167935Y-50956291D01*
X32106431Y-51154366D01*
X32082053Y-51360333D01*
X30155609Y-51360333D01*
X30139357Y-51183466D01*
X30083059Y-50983849D01*
X29991327Y-50797834D01*
X29867232Y-50631651D01*
X29751509Y-50524677D01*
X29719171Y-50494784D01*
X29719168Y-50494782D01*
X29714931Y-50490865D01*
X29539523Y-50380191D01*
X29346885Y-50303336D01*
X29341228Y-50302211D01*
X29341222Y-50302209D01*
X29149133Y-50264001D01*
X29149131Y-50264001D01*
X29143466Y-50262874D01*
X29137691Y-50262798D01*
X29137687Y-50262798D01*
X29033848Y-50261439D01*
X28936080Y-50260159D01*
X28930383Y-50261138D01*
X28930382Y-50261138D01*
X28737368Y-50294303D01*
X28737367Y-50294303D01*
X28731671Y-50295282D01*
X28537087Y-50367069D01*
X28358842Y-50473113D01*
X28354502Y-50476919D01*
X28354498Y-50476922D01*
X28283248Y-50539407D01*
X28202908Y-50609864D01*
X28074505Y-50772742D01*
X28071816Y-50777853D01*
X28071814Y-50777856D01*
X28019144Y-50877966D01*
X27977935Y-50956291D01*
X27916431Y-51154366D01*
X27892053Y-51360333D01*
X24500000Y-51360333D01*
X24500000Y-50243823D01*
X75644391Y-50243823D01*
X75645555Y-50252725D01*
X75645555Y-50252728D01*
X75650992Y-50294303D01*
X75662980Y-50385979D01*
X75720720Y-50517203D01*
X75726497Y-50524076D01*
X75726498Y-50524077D01*
X75733792Y-50532754D01*
X75812970Y-50626948D01*
X75932313Y-50706390D01*
X76069157Y-50749142D01*
X76078129Y-50749306D01*
X76078132Y-50749307D01*
X76143463Y-50750504D01*
X76212499Y-50751770D01*
X76221533Y-50749307D01*
X76342158Y-50716421D01*
X76342160Y-50716420D01*
X76350817Y-50714060D01*
X76472991Y-50639045D01*
X76569200Y-50532754D01*
X76631710Y-50403733D01*
X76655496Y-50262354D01*
X76655647Y-50250000D01*
X76635323Y-50108082D01*
X76575984Y-49977572D01*
X76557598Y-49956234D01*
X76488260Y-49875763D01*
X76488257Y-49875760D01*
X76482400Y-49868963D01*
X76362095Y-49790985D01*
X76224739Y-49749907D01*
X76215763Y-49749852D01*
X76215762Y-49749852D01*
X76155555Y-49749484D01*
X76081376Y-49749031D01*
X75943529Y-49788428D01*
X75822280Y-49864930D01*
X75727377Y-49972388D01*
X75666447Y-50102163D01*
X75644391Y-50243823D01*
X24500000Y-50243823D01*
X24500000Y-45010333D01*
X32082053Y-45010333D01*
X32095618Y-45217293D01*
X32146671Y-45418315D01*
X32233503Y-45606667D01*
X32353205Y-45776042D01*
X32501769Y-45920767D01*
X32506565Y-45923972D01*
X32506568Y-45923974D01*
X32585684Y-45976837D01*
X32674219Y-46035994D01*
X32679522Y-46038272D01*
X32679525Y-46038274D01*
X32859473Y-46115586D01*
X32864780Y-46117866D01*
X32919033Y-46130142D01*
X33061433Y-46162364D01*
X33061438Y-46162365D01*
X33067070Y-46163639D01*
X33072841Y-46163866D01*
X33072843Y-46163866D01*
X33134612Y-46166293D01*
X33274314Y-46171782D01*
X33384699Y-46155777D01*
X33473858Y-46142850D01*
X33473863Y-46142849D01*
X33479572Y-46142021D01*
X33485040Y-46140165D01*
X33670497Y-46077211D01*
X33670502Y-46077209D01*
X33675969Y-46075353D01*
X33682471Y-46071712D01*
X33751981Y-46032784D01*
X33856928Y-45974011D01*
X34016389Y-45841389D01*
X34149011Y-45681928D01*
X34250353Y-45500969D01*
X34252209Y-45495502D01*
X34252211Y-45495497D01*
X34315165Y-45310040D01*
X34315165Y-45310039D01*
X34317021Y-45304572D01*
X34317849Y-45298863D01*
X34317850Y-45298858D01*
X34346249Y-45102988D01*
X34346782Y-45099314D01*
X34348335Y-45040000D01*
X34345609Y-45010333D01*
X36272053Y-45010333D01*
X36285618Y-45217293D01*
X36336671Y-45418315D01*
X36423503Y-45606667D01*
X36543205Y-45776042D01*
X36691769Y-45920767D01*
X36696565Y-45923972D01*
X36696568Y-45923974D01*
X36775684Y-45976837D01*
X36864219Y-46035994D01*
X36869522Y-46038272D01*
X36869525Y-46038274D01*
X37049473Y-46115586D01*
X37054780Y-46117866D01*
X37109033Y-46130142D01*
X37251433Y-46162364D01*
X37251438Y-46162365D01*
X37257070Y-46163639D01*
X37262841Y-46163866D01*
X37262843Y-46163866D01*
X37324612Y-46166293D01*
X37464314Y-46171782D01*
X37574699Y-46155777D01*
X37663858Y-46142850D01*
X37663863Y-46142849D01*
X37669572Y-46142021D01*
X37675040Y-46140165D01*
X37860497Y-46077211D01*
X37860502Y-46077209D01*
X37865969Y-46075353D01*
X37872471Y-46071712D01*
X37941981Y-46032784D01*
X38046928Y-45974011D01*
X38206389Y-45841389D01*
X38339011Y-45681928D01*
X38440353Y-45500969D01*
X38442209Y-45495502D01*
X38442211Y-45495497D01*
X38505165Y-45310040D01*
X38505165Y-45310039D01*
X38507021Y-45304572D01*
X38507849Y-45298863D01*
X38507850Y-45298858D01*
X38536249Y-45102988D01*
X38536782Y-45099314D01*
X38538335Y-45040000D01*
X38535609Y-45010333D01*
X40462053Y-45010333D01*
X40475618Y-45217293D01*
X40526671Y-45418315D01*
X40613503Y-45606667D01*
X40733205Y-45776042D01*
X40881769Y-45920767D01*
X40886565Y-45923972D01*
X40886568Y-45923974D01*
X40965684Y-45976837D01*
X41054219Y-46035994D01*
X41059522Y-46038272D01*
X41059525Y-46038274D01*
X41239473Y-46115586D01*
X41244780Y-46117866D01*
X41299033Y-46130142D01*
X41441433Y-46162364D01*
X41441438Y-46162365D01*
X41447070Y-46163639D01*
X41452841Y-46163866D01*
X41452843Y-46163866D01*
X41514612Y-46166293D01*
X41654314Y-46171782D01*
X41764699Y-46155777D01*
X41853858Y-46142850D01*
X41853863Y-46142849D01*
X41859572Y-46142021D01*
X41865040Y-46140165D01*
X42050497Y-46077211D01*
X42050502Y-46077209D01*
X42055969Y-46075353D01*
X42062471Y-46071712D01*
X42131981Y-46032784D01*
X42236928Y-45974011D01*
X42396389Y-45841389D01*
X42529011Y-45681928D01*
X42630353Y-45500969D01*
X42632209Y-45495502D01*
X42632211Y-45495497D01*
X42695165Y-45310040D01*
X42695165Y-45310039D01*
X42697021Y-45304572D01*
X42697849Y-45298863D01*
X42697850Y-45298858D01*
X42726249Y-45102988D01*
X42726782Y-45099314D01*
X42728335Y-45040000D01*
X42725609Y-45010333D01*
X44652053Y-45010333D01*
X44665618Y-45217293D01*
X44716671Y-45418315D01*
X44803503Y-45606667D01*
X44923205Y-45776042D01*
X45071769Y-45920767D01*
X45076565Y-45923972D01*
X45076568Y-45923974D01*
X45155684Y-45976837D01*
X45244219Y-46035994D01*
X45249522Y-46038272D01*
X45249525Y-46038274D01*
X45429473Y-46115586D01*
X45434780Y-46117866D01*
X45489033Y-46130142D01*
X45631433Y-46162364D01*
X45631438Y-46162365D01*
X45637070Y-46163639D01*
X45642841Y-46163866D01*
X45642843Y-46163866D01*
X45704612Y-46166293D01*
X45844314Y-46171782D01*
X45954699Y-46155777D01*
X46043858Y-46142850D01*
X46043863Y-46142849D01*
X46049572Y-46142021D01*
X46055040Y-46140165D01*
X46240497Y-46077211D01*
X46240502Y-46077209D01*
X46245969Y-46075353D01*
X46252471Y-46071712D01*
X46321981Y-46032784D01*
X46426928Y-45974011D01*
X46586389Y-45841389D01*
X46719011Y-45681928D01*
X46820353Y-45500969D01*
X46822209Y-45495502D01*
X46822211Y-45495497D01*
X46885165Y-45310040D01*
X46885165Y-45310039D01*
X46887021Y-45304572D01*
X46887849Y-45298863D01*
X46887850Y-45298858D01*
X46916249Y-45102988D01*
X46916782Y-45099314D01*
X46918335Y-45040000D01*
X46915609Y-45010333D01*
X48842053Y-45010333D01*
X48855618Y-45217293D01*
X48906671Y-45418315D01*
X48993503Y-45606667D01*
X49113205Y-45776042D01*
X49261769Y-45920767D01*
X49266565Y-45923972D01*
X49266568Y-45923974D01*
X49345684Y-45976837D01*
X49434219Y-46035994D01*
X49439522Y-46038272D01*
X49439525Y-46038274D01*
X49619473Y-46115586D01*
X49624780Y-46117866D01*
X49679033Y-46130142D01*
X49821433Y-46162364D01*
X49821438Y-46162365D01*
X49827070Y-46163639D01*
X49832841Y-46163866D01*
X49832843Y-46163866D01*
X49894612Y-46166293D01*
X50034314Y-46171782D01*
X50144699Y-46155777D01*
X50233858Y-46142850D01*
X50233863Y-46142849D01*
X50239572Y-46142021D01*
X50245040Y-46140165D01*
X50381559Y-46093823D01*
X74094391Y-46093823D01*
X74095555Y-46102725D01*
X74095555Y-46102728D01*
X74100802Y-46142850D01*
X74112980Y-46235979D01*
X74170720Y-46367203D01*
X74176497Y-46374076D01*
X74176498Y-46374077D01*
X74183792Y-46382754D01*
X74262970Y-46476948D01*
X74382313Y-46556390D01*
X74519157Y-46599142D01*
X74528129Y-46599306D01*
X74528132Y-46599307D01*
X74593463Y-46600504D01*
X74662499Y-46601770D01*
X74671533Y-46599307D01*
X74792158Y-46566421D01*
X74792160Y-46566420D01*
X74800817Y-46564060D01*
X74922991Y-46489045D01*
X75019200Y-46382754D01*
X75081710Y-46253733D01*
X75105496Y-46112354D01*
X75105647Y-46100000D01*
X75088009Y-45976837D01*
X75086596Y-45966968D01*
X75086595Y-45966965D01*
X75085323Y-45958082D01*
X75025984Y-45827572D01*
X74977520Y-45771327D01*
X74938260Y-45725763D01*
X74938257Y-45725760D01*
X74932400Y-45718963D01*
X74812095Y-45640985D01*
X74674739Y-45599907D01*
X74665763Y-45599852D01*
X74665762Y-45599852D01*
X74605555Y-45599484D01*
X74531376Y-45599031D01*
X74393529Y-45638428D01*
X74272280Y-45714930D01*
X74177377Y-45822388D01*
X74116447Y-45952163D01*
X74107210Y-46011490D01*
X74095925Y-46083971D01*
X74094391Y-46093823D01*
X50381559Y-46093823D01*
X50430497Y-46077211D01*
X50430502Y-46077209D01*
X50435969Y-46075353D01*
X50442471Y-46071712D01*
X50511981Y-46032784D01*
X50616928Y-45974011D01*
X50776389Y-45841389D01*
X50909011Y-45681928D01*
X51010353Y-45500969D01*
X51012209Y-45495502D01*
X51012211Y-45495497D01*
X51075165Y-45310040D01*
X51075165Y-45310039D01*
X51077021Y-45304572D01*
X51077849Y-45298863D01*
X51077850Y-45298858D01*
X51106249Y-45102988D01*
X51106782Y-45099314D01*
X51108335Y-45040000D01*
X51089357Y-44833466D01*
X51033059Y-44633849D01*
X50941327Y-44447834D01*
X50817232Y-44281651D01*
X50664931Y-44140865D01*
X50489523Y-44030191D01*
X50419115Y-44002101D01*
X82896500Y-44002101D01*
X82896501Y-46077898D01*
X82899268Y-46091810D01*
X82899911Y-46095042D01*
X82902331Y-46107213D01*
X82924543Y-46140457D01*
X82957787Y-46162669D01*
X82987101Y-46168500D01*
X84024496Y-46168500D01*
X85062898Y-46168499D01*
X85076810Y-46165732D01*
X85080045Y-46165089D01*
X85092213Y-46162669D01*
X85125457Y-46140457D01*
X85147669Y-46107213D01*
X85153500Y-46077899D01*
X85153499Y-45010333D01*
X87082053Y-45010333D01*
X87095618Y-45217293D01*
X87146671Y-45418315D01*
X87233503Y-45606667D01*
X87353205Y-45776042D01*
X87501769Y-45920767D01*
X87506565Y-45923972D01*
X87506568Y-45923974D01*
X87585684Y-45976837D01*
X87674219Y-46035994D01*
X87679522Y-46038272D01*
X87679525Y-46038274D01*
X87859473Y-46115586D01*
X87864780Y-46117866D01*
X87919033Y-46130142D01*
X88061433Y-46162364D01*
X88061438Y-46162365D01*
X88067070Y-46163639D01*
X88072841Y-46163866D01*
X88072843Y-46163866D01*
X88134612Y-46166293D01*
X88274314Y-46171782D01*
X88384699Y-46155777D01*
X88473858Y-46142850D01*
X88473863Y-46142849D01*
X88479572Y-46142021D01*
X88485040Y-46140165D01*
X88670497Y-46077211D01*
X88670502Y-46077209D01*
X88675969Y-46075353D01*
X88682471Y-46071712D01*
X88751981Y-46032784D01*
X88856928Y-45974011D01*
X89016389Y-45841389D01*
X89149011Y-45681928D01*
X89250353Y-45500969D01*
X89252209Y-45495502D01*
X89252211Y-45495497D01*
X89315165Y-45310040D01*
X89315165Y-45310039D01*
X89317021Y-45304572D01*
X89317849Y-45298863D01*
X89317850Y-45298858D01*
X89346249Y-45102988D01*
X89346782Y-45099314D01*
X89348335Y-45040000D01*
X89345609Y-45010333D01*
X91272053Y-45010333D01*
X91285618Y-45217293D01*
X91336671Y-45418315D01*
X91423503Y-45606667D01*
X91543205Y-45776042D01*
X91691769Y-45920767D01*
X91696565Y-45923972D01*
X91696568Y-45923974D01*
X91775684Y-45976837D01*
X91864219Y-46035994D01*
X91869522Y-46038272D01*
X91869525Y-46038274D01*
X92049473Y-46115586D01*
X92054780Y-46117866D01*
X92109033Y-46130142D01*
X92251433Y-46162364D01*
X92251438Y-46162365D01*
X92257070Y-46163639D01*
X92262841Y-46163866D01*
X92262843Y-46163866D01*
X92324612Y-46166293D01*
X92464314Y-46171782D01*
X92574699Y-46155777D01*
X92663858Y-46142850D01*
X92663863Y-46142849D01*
X92669572Y-46142021D01*
X92675040Y-46140165D01*
X92860497Y-46077211D01*
X92860502Y-46077209D01*
X92865969Y-46075353D01*
X92872471Y-46071712D01*
X92941981Y-46032784D01*
X93046928Y-45974011D01*
X93206389Y-45841389D01*
X93339011Y-45681928D01*
X93440353Y-45500969D01*
X93442209Y-45495502D01*
X93442211Y-45495497D01*
X93505165Y-45310040D01*
X93505165Y-45310039D01*
X93507021Y-45304572D01*
X93507849Y-45298863D01*
X93507850Y-45298858D01*
X93536249Y-45102988D01*
X93536782Y-45099314D01*
X93538335Y-45040000D01*
X93535609Y-45010333D01*
X95462053Y-45010333D01*
X95475618Y-45217293D01*
X95526671Y-45418315D01*
X95613503Y-45606667D01*
X95733205Y-45776042D01*
X95881769Y-45920767D01*
X95886565Y-45923972D01*
X95886568Y-45923974D01*
X95965684Y-45976837D01*
X96054219Y-46035994D01*
X96059522Y-46038272D01*
X96059525Y-46038274D01*
X96239473Y-46115586D01*
X96244780Y-46117866D01*
X96299033Y-46130142D01*
X96441433Y-46162364D01*
X96441438Y-46162365D01*
X96447070Y-46163639D01*
X96452841Y-46163866D01*
X96452843Y-46163866D01*
X96514612Y-46166293D01*
X96654314Y-46171782D01*
X96764699Y-46155777D01*
X96853858Y-46142850D01*
X96853863Y-46142849D01*
X96859572Y-46142021D01*
X96865040Y-46140165D01*
X97050497Y-46077211D01*
X97050502Y-46077209D01*
X97055969Y-46075353D01*
X97062471Y-46071712D01*
X97131981Y-46032784D01*
X97236928Y-45974011D01*
X97396389Y-45841389D01*
X97529011Y-45681928D01*
X97630353Y-45500969D01*
X97632209Y-45495502D01*
X97632211Y-45495497D01*
X97695165Y-45310040D01*
X97695165Y-45310039D01*
X97697021Y-45304572D01*
X97697849Y-45298863D01*
X97697850Y-45298858D01*
X97726249Y-45102988D01*
X97726782Y-45099314D01*
X97728335Y-45040000D01*
X97725609Y-45010333D01*
X99652053Y-45010333D01*
X99665618Y-45217293D01*
X99716671Y-45418315D01*
X99803503Y-45606667D01*
X99923205Y-45776042D01*
X100071769Y-45920767D01*
X100076565Y-45923972D01*
X100076568Y-45923974D01*
X100155684Y-45976837D01*
X100244219Y-46035994D01*
X100249522Y-46038272D01*
X100249525Y-46038274D01*
X100429473Y-46115586D01*
X100434780Y-46117866D01*
X100489033Y-46130142D01*
X100631433Y-46162364D01*
X100631438Y-46162365D01*
X100637070Y-46163639D01*
X100642841Y-46163866D01*
X100642843Y-46163866D01*
X100704612Y-46166293D01*
X100844314Y-46171782D01*
X100954699Y-46155777D01*
X101043858Y-46142850D01*
X101043863Y-46142849D01*
X101049572Y-46142021D01*
X101055040Y-46140165D01*
X101240497Y-46077211D01*
X101240502Y-46077209D01*
X101245969Y-46075353D01*
X101252471Y-46071712D01*
X101321981Y-46032784D01*
X101426928Y-45974011D01*
X101586389Y-45841389D01*
X101719011Y-45681928D01*
X101820353Y-45500969D01*
X101822209Y-45495502D01*
X101822211Y-45495497D01*
X101885165Y-45310040D01*
X101885165Y-45310039D01*
X101887021Y-45304572D01*
X101887849Y-45298863D01*
X101887850Y-45298858D01*
X101916249Y-45102988D01*
X101916782Y-45099314D01*
X101918335Y-45040000D01*
X101915609Y-45010333D01*
X103842053Y-45010333D01*
X103855618Y-45217293D01*
X103906671Y-45418315D01*
X103993503Y-45606667D01*
X104113205Y-45776042D01*
X104261769Y-45920767D01*
X104266565Y-45923972D01*
X104266568Y-45923974D01*
X104345684Y-45976837D01*
X104434219Y-46035994D01*
X104439522Y-46038272D01*
X104439525Y-46038274D01*
X104619473Y-46115586D01*
X104624780Y-46117866D01*
X104679033Y-46130142D01*
X104821433Y-46162364D01*
X104821438Y-46162365D01*
X104827070Y-46163639D01*
X104832841Y-46163866D01*
X104832843Y-46163866D01*
X104894612Y-46166293D01*
X105034314Y-46171782D01*
X105144699Y-46155777D01*
X105233858Y-46142850D01*
X105233863Y-46142849D01*
X105239572Y-46142021D01*
X105245040Y-46140165D01*
X105430497Y-46077211D01*
X105430502Y-46077209D01*
X105435969Y-46075353D01*
X105442471Y-46071712D01*
X105511981Y-46032784D01*
X105616928Y-45974011D01*
X105776389Y-45841389D01*
X105909011Y-45681928D01*
X106010353Y-45500969D01*
X106012209Y-45495502D01*
X106012211Y-45495497D01*
X106075165Y-45310040D01*
X106075165Y-45310039D01*
X106077021Y-45304572D01*
X106077849Y-45298863D01*
X106077850Y-45298858D01*
X106106249Y-45102988D01*
X106106782Y-45099314D01*
X106108335Y-45040000D01*
X106089357Y-44833466D01*
X106033059Y-44633849D01*
X105941327Y-44447834D01*
X105817232Y-44281651D01*
X105664931Y-44140865D01*
X105489523Y-44030191D01*
X105296885Y-43953336D01*
X105291228Y-43952211D01*
X105291222Y-43952209D01*
X105099133Y-43914001D01*
X105099131Y-43914001D01*
X105093466Y-43912874D01*
X105087691Y-43912798D01*
X105087687Y-43912798D01*
X104983848Y-43911439D01*
X104886080Y-43910159D01*
X104880383Y-43911138D01*
X104880382Y-43911138D01*
X104687368Y-43944303D01*
X104687367Y-43944303D01*
X104681671Y-43945282D01*
X104487087Y-44017069D01*
X104308842Y-44123113D01*
X104304502Y-44126919D01*
X104304498Y-44126922D01*
X104157249Y-44256057D01*
X104152908Y-44259864D01*
X104024505Y-44422742D01*
X104021816Y-44427853D01*
X104021814Y-44427856D01*
X103969144Y-44527966D01*
X103927935Y-44606291D01*
X103866431Y-44804366D01*
X103842053Y-45010333D01*
X101915609Y-45010333D01*
X101899357Y-44833466D01*
X101843059Y-44633849D01*
X101751327Y-44447834D01*
X101627232Y-44281651D01*
X101474931Y-44140865D01*
X101299523Y-44030191D01*
X101106885Y-43953336D01*
X101101228Y-43952211D01*
X101101222Y-43952209D01*
X100909133Y-43914001D01*
X100909131Y-43914001D01*
X100903466Y-43912874D01*
X100897691Y-43912798D01*
X100897687Y-43912798D01*
X100793848Y-43911439D01*
X100696080Y-43910159D01*
X100690383Y-43911138D01*
X100690382Y-43911138D01*
X100497368Y-43944303D01*
X100497367Y-43944303D01*
X100491671Y-43945282D01*
X100297087Y-44017069D01*
X100118842Y-44123113D01*
X100114502Y-44126919D01*
X100114498Y-44126922D01*
X99967249Y-44256057D01*
X99962908Y-44259864D01*
X99834505Y-44422742D01*
X99831816Y-44427853D01*
X99831814Y-44427856D01*
X99779144Y-44527966D01*
X99737935Y-44606291D01*
X99676431Y-44804366D01*
X99652053Y-45010333D01*
X97725609Y-45010333D01*
X97709357Y-44833466D01*
X97653059Y-44633849D01*
X97561327Y-44447834D01*
X97437232Y-44281651D01*
X97284931Y-44140865D01*
X97109523Y-44030191D01*
X96916885Y-43953336D01*
X96911228Y-43952211D01*
X96911222Y-43952209D01*
X96719133Y-43914001D01*
X96719131Y-43914001D01*
X96713466Y-43912874D01*
X96707691Y-43912798D01*
X96707687Y-43912798D01*
X96603848Y-43911439D01*
X96506080Y-43910159D01*
X96500383Y-43911138D01*
X96500382Y-43911138D01*
X96307368Y-43944303D01*
X96307367Y-43944303D01*
X96301671Y-43945282D01*
X96107087Y-44017069D01*
X95928842Y-44123113D01*
X95924502Y-44126919D01*
X95924498Y-44126922D01*
X95777249Y-44256057D01*
X95772908Y-44259864D01*
X95644505Y-44422742D01*
X95641816Y-44427853D01*
X95641814Y-44427856D01*
X95589144Y-44527966D01*
X95547935Y-44606291D01*
X95486431Y-44804366D01*
X95462053Y-45010333D01*
X93535609Y-45010333D01*
X93519357Y-44833466D01*
X93463059Y-44633849D01*
X93371327Y-44447834D01*
X93247232Y-44281651D01*
X93094931Y-44140865D01*
X92919523Y-44030191D01*
X92726885Y-43953336D01*
X92721228Y-43952211D01*
X92721222Y-43952209D01*
X92529133Y-43914001D01*
X92529131Y-43914001D01*
X92523466Y-43912874D01*
X92517691Y-43912798D01*
X92517687Y-43912798D01*
X92413848Y-43911439D01*
X92316080Y-43910159D01*
X92310383Y-43911138D01*
X92310382Y-43911138D01*
X92117368Y-43944303D01*
X92117367Y-43944303D01*
X92111671Y-43945282D01*
X91917087Y-44017069D01*
X91738842Y-44123113D01*
X91734502Y-44126919D01*
X91734498Y-44126922D01*
X91587249Y-44256057D01*
X91582908Y-44259864D01*
X91454505Y-44422742D01*
X91451816Y-44427853D01*
X91451814Y-44427856D01*
X91399144Y-44527966D01*
X91357935Y-44606291D01*
X91296431Y-44804366D01*
X91272053Y-45010333D01*
X89345609Y-45010333D01*
X89329357Y-44833466D01*
X89273059Y-44633849D01*
X89181327Y-44447834D01*
X89057232Y-44281651D01*
X88904931Y-44140865D01*
X88729523Y-44030191D01*
X88536885Y-43953336D01*
X88531228Y-43952211D01*
X88531222Y-43952209D01*
X88339133Y-43914001D01*
X88339131Y-43914001D01*
X88333466Y-43912874D01*
X88327691Y-43912798D01*
X88327687Y-43912798D01*
X88223848Y-43911439D01*
X88126080Y-43910159D01*
X88120383Y-43911138D01*
X88120382Y-43911138D01*
X87927368Y-43944303D01*
X87927367Y-43944303D01*
X87921671Y-43945282D01*
X87727087Y-44017069D01*
X87548842Y-44123113D01*
X87544502Y-44126919D01*
X87544498Y-44126922D01*
X87397249Y-44256057D01*
X87392908Y-44259864D01*
X87264505Y-44422742D01*
X87261816Y-44427853D01*
X87261814Y-44427856D01*
X87209144Y-44527966D01*
X87167935Y-44606291D01*
X87106431Y-44804366D01*
X87082053Y-45010333D01*
X85153499Y-45010333D01*
X85153499Y-44002102D01*
X85150732Y-43988190D01*
X85150089Y-43984955D01*
X85147669Y-43972787D01*
X85125457Y-43939543D01*
X85092213Y-43917331D01*
X85062899Y-43911500D01*
X84025504Y-43911500D01*
X82987102Y-43911501D01*
X82974531Y-43914001D01*
X82969961Y-43914910D01*
X82957787Y-43917331D01*
X82924543Y-43939543D01*
X82902331Y-43972787D01*
X82896500Y-44002101D01*
X50419115Y-44002101D01*
X50296885Y-43953336D01*
X50291228Y-43952211D01*
X50291222Y-43952209D01*
X50099133Y-43914001D01*
X50099131Y-43914001D01*
X50093466Y-43912874D01*
X50087691Y-43912798D01*
X50087687Y-43912798D01*
X49983848Y-43911439D01*
X49886080Y-43910159D01*
X49880383Y-43911138D01*
X49880382Y-43911138D01*
X49687368Y-43944303D01*
X49687367Y-43944303D01*
X49681671Y-43945282D01*
X49487087Y-44017069D01*
X49308842Y-44123113D01*
X49304502Y-44126919D01*
X49304498Y-44126922D01*
X49157249Y-44256057D01*
X49152908Y-44259864D01*
X49024505Y-44422742D01*
X49021816Y-44427853D01*
X49021814Y-44427856D01*
X48969144Y-44527966D01*
X48927935Y-44606291D01*
X48866431Y-44804366D01*
X48842053Y-45010333D01*
X46915609Y-45010333D01*
X46899357Y-44833466D01*
X46843059Y-44633849D01*
X46751327Y-44447834D01*
X46627232Y-44281651D01*
X46474931Y-44140865D01*
X46299523Y-44030191D01*
X46106885Y-43953336D01*
X46101228Y-43952211D01*
X46101222Y-43952209D01*
X45909133Y-43914001D01*
X45909131Y-43914001D01*
X45903466Y-43912874D01*
X45897691Y-43912798D01*
X45897687Y-43912798D01*
X45793848Y-43911439D01*
X45696080Y-43910159D01*
X45690383Y-43911138D01*
X45690382Y-43911138D01*
X45497368Y-43944303D01*
X45497367Y-43944303D01*
X45491671Y-43945282D01*
X45297087Y-44017069D01*
X45118842Y-44123113D01*
X45114502Y-44126919D01*
X45114498Y-44126922D01*
X44967249Y-44256057D01*
X44962908Y-44259864D01*
X44834505Y-44422742D01*
X44831816Y-44427853D01*
X44831814Y-44427856D01*
X44779144Y-44527966D01*
X44737935Y-44606291D01*
X44676431Y-44804366D01*
X44652053Y-45010333D01*
X42725609Y-45010333D01*
X42709357Y-44833466D01*
X42653059Y-44633849D01*
X42561327Y-44447834D01*
X42437232Y-44281651D01*
X42284931Y-44140865D01*
X42109523Y-44030191D01*
X41916885Y-43953336D01*
X41911228Y-43952211D01*
X41911222Y-43952209D01*
X41719133Y-43914001D01*
X41719131Y-43914001D01*
X41713466Y-43912874D01*
X41707691Y-43912798D01*
X41707687Y-43912798D01*
X41603848Y-43911439D01*
X41506080Y-43910159D01*
X41500383Y-43911138D01*
X41500382Y-43911138D01*
X41307368Y-43944303D01*
X41307367Y-43944303D01*
X41301671Y-43945282D01*
X41107087Y-44017069D01*
X40928842Y-44123113D01*
X40924502Y-44126919D01*
X40924498Y-44126922D01*
X40777249Y-44256057D01*
X40772908Y-44259864D01*
X40644505Y-44422742D01*
X40641816Y-44427853D01*
X40641814Y-44427856D01*
X40589144Y-44527966D01*
X40547935Y-44606291D01*
X40486431Y-44804366D01*
X40462053Y-45010333D01*
X38535609Y-45010333D01*
X38519357Y-44833466D01*
X38463059Y-44633849D01*
X38371327Y-44447834D01*
X38247232Y-44281651D01*
X38094931Y-44140865D01*
X37919523Y-44030191D01*
X37726885Y-43953336D01*
X37721228Y-43952211D01*
X37721222Y-43952209D01*
X37529133Y-43914001D01*
X37529131Y-43914001D01*
X37523466Y-43912874D01*
X37517691Y-43912798D01*
X37517687Y-43912798D01*
X37413848Y-43911439D01*
X37316080Y-43910159D01*
X37310383Y-43911138D01*
X37310382Y-43911138D01*
X37117368Y-43944303D01*
X37117367Y-43944303D01*
X37111671Y-43945282D01*
X36917087Y-44017069D01*
X36738842Y-44123113D01*
X36734502Y-44126919D01*
X36734498Y-44126922D01*
X36587249Y-44256057D01*
X36582908Y-44259864D01*
X36454505Y-44422742D01*
X36451816Y-44427853D01*
X36451814Y-44427856D01*
X36399144Y-44527966D01*
X36357935Y-44606291D01*
X36296431Y-44804366D01*
X36272053Y-45010333D01*
X34345609Y-45010333D01*
X34329357Y-44833466D01*
X34273059Y-44633849D01*
X34181327Y-44447834D01*
X34057232Y-44281651D01*
X33904931Y-44140865D01*
X33729523Y-44030191D01*
X33536885Y-43953336D01*
X33531228Y-43952211D01*
X33531222Y-43952209D01*
X33339133Y-43914001D01*
X33339131Y-43914001D01*
X33333466Y-43912874D01*
X33327691Y-43912798D01*
X33327687Y-43912798D01*
X33223848Y-43911439D01*
X33126080Y-43910159D01*
X33120383Y-43911138D01*
X33120382Y-43911138D01*
X32927368Y-43944303D01*
X32927367Y-43944303D01*
X32921671Y-43945282D01*
X32727087Y-44017069D01*
X32548842Y-44123113D01*
X32544502Y-44126919D01*
X32544498Y-44126922D01*
X32397249Y-44256057D01*
X32392908Y-44259864D01*
X32264505Y-44422742D01*
X32261816Y-44427853D01*
X32261814Y-44427856D01*
X32209144Y-44527966D01*
X32167935Y-44606291D01*
X32106431Y-44804366D01*
X32082053Y-45010333D01*
X24500000Y-45010333D01*
X24500000Y-43048702D01*
X24501500Y-43029318D01*
X24503723Y-43015043D01*
X24503723Y-43015040D01*
X24505104Y-43006170D01*
X24503940Y-42997266D01*
X24503960Y-42995609D01*
X24503706Y-42967112D01*
X24510947Y-42902844D01*
X24517226Y-42875336D01*
X24544826Y-42796459D01*
X24557068Y-42771038D01*
X24601532Y-42700274D01*
X24619124Y-42678215D01*
X24678215Y-42619124D01*
X24700274Y-42601532D01*
X24771038Y-42557068D01*
X24796459Y-42544826D01*
X24875336Y-42517226D01*
X24902842Y-42510947D01*
X24916454Y-42509413D01*
X24960921Y-42504403D01*
X24976564Y-42503620D01*
X24984954Y-42503722D01*
X24993828Y-42505104D01*
X25024724Y-42501064D01*
X25041061Y-42500000D01*
X108951298Y-42500000D01*
X108970682Y-42501500D01*
G37*
%TD.AperFunction*%
%TD*%
M02*
