%TF.GenerationSoftware,KiCad,Pcbnew,(6.0.2)*%
%TF.CreationDate,2022-04-26T10:25:04-06:00*%
%TF.ProjectId,CONEPROJ,434f4e45-5052-44f4-9a2e-6b696361645f,rev?*%
%TF.SameCoordinates,Original*%
%TF.FileFunction,Legend,Top*%
%TF.FilePolarity,Positive*%
%FSLAX46Y46*%
G04 Gerber Fmt 4.6, Leading zero omitted, Abs format (unit mm)*
G04 Created by KiCad (PCBNEW (6.0.2)) date 2022-04-26 10:25:04*
%MOMM*%
%LPD*%
G01*
G04 APERTURE LIST*
G04 Aperture macros list*
%AMRoundRect*
0 Rectangle with rounded corners*
0 $1 Rounding radius*
0 $2 $3 $4 $5 $6 $7 $8 $9 X,Y pos of 4 corners*
0 Add a 4 corners polygon primitive as box body*
4,1,4,$2,$3,$4,$5,$6,$7,$8,$9,$2,$3,0*
0 Add four circle primitives for the rounded corners*
1,1,$1+$1,$2,$3*
1,1,$1+$1,$4,$5*
1,1,$1+$1,$6,$7*
1,1,$1+$1,$8,$9*
0 Add four rect primitives between the rounded corners*
20,1,$1+$1,$2,$3,$4,$5,0*
20,1,$1+$1,$4,$5,$6,$7,0*
20,1,$1+$1,$6,$7,$8,$9,0*
20,1,$1+$1,$8,$9,$2,$3,0*%
%AMFreePoly0*
4,1,22,0.550000,-0.750000,0.000000,-0.750000,0.000000,-0.745033,-0.079941,-0.743568,-0.215256,-0.701293,-0.333266,-0.622738,-0.424486,-0.514219,-0.481581,-0.384460,-0.499164,-0.250000,-0.500000,-0.250000,-0.500000,0.250000,-0.499164,0.250000,-0.499963,0.256109,-0.478152,0.396186,-0.417904,0.524511,-0.324060,0.630769,-0.204165,0.706417,-0.067858,0.745374,0.000000,0.744959,0.000000,0.750000,
0.550000,0.750000,0.550000,-0.750000,0.550000,-0.750000,$1*%
%AMFreePoly1*
4,1,20,0.000000,0.744959,0.073905,0.744508,0.209726,0.703889,0.328688,0.626782,0.421226,0.519385,0.479903,0.390333,0.500000,0.250000,0.500000,-0.250000,0.499851,-0.262216,0.476331,-0.402017,0.414519,-0.529596,0.319384,-0.634700,0.198574,-0.708877,0.061801,-0.746166,0.000000,-0.745033,0.000000,-0.750000,-0.550000,-0.750000,-0.550000,0.750000,0.000000,0.750000,0.000000,0.744959,
0.000000,0.744959,$1*%
G04 Aperture macros list end*
%ADD10C,0.120000*%
%ADD11C,0.075000*%
%ADD12C,0.125000*%
%ADD13C,0.150000*%
%ADD14C,0.050000*%
%ADD15C,0.127000*%
%ADD16C,0.254000*%
%ADD17C,0.250000*%
%ADD18R,1.150000X1.000000*%
%ADD19RoundRect,0.237500X-0.250000X-0.237500X0.250000X-0.237500X0.250000X0.237500X-0.250000X0.237500X0*%
%ADD20RoundRect,0.150000X-0.150000X0.875000X-0.150000X-0.875000X0.150000X-0.875000X0.150000X0.875000X0*%
%ADD21RoundRect,0.100000X-0.100000X0.637500X-0.100000X-0.637500X0.100000X-0.637500X0.100000X0.637500X0*%
%ADD22C,1.000000*%
%ADD23RoundRect,0.250000X-0.337500X-0.475000X0.337500X-0.475000X0.337500X0.475000X-0.337500X0.475000X0*%
%ADD24R,5.700000X1.600000*%
%ADD25RoundRect,0.250000X-0.325000X-0.650000X0.325000X-0.650000X0.325000X0.650000X-0.325000X0.650000X0*%
%ADD26RoundRect,0.150000X-0.825000X-0.150000X0.825000X-0.150000X0.825000X0.150000X-0.825000X0.150000X0*%
%ADD27R,2.290000X3.000000*%
%ADD28RoundRect,0.237500X-0.237500X0.300000X-0.237500X-0.300000X0.237500X-0.300000X0.237500X0.300000X0*%
%ADD29RoundRect,0.237500X0.237500X-0.300000X0.237500X0.300000X-0.237500X0.300000X-0.237500X-0.300000X0*%
%ADD30R,2.000000X2.000000*%
%ADD31RoundRect,0.150000X-0.150000X0.650000X-0.150000X-0.650000X0.150000X-0.650000X0.150000X0.650000X0*%
%ADD32RoundRect,0.250000X-0.475000X0.337500X-0.475000X-0.337500X0.475000X-0.337500X0.475000X0.337500X0*%
%ADD33FreePoly0,270.000000*%
%ADD34R,1.500000X1.000000*%
%ADD35FreePoly1,270.000000*%
%ADD36C,5.600000*%
%ADD37RoundRect,0.237500X0.250000X0.237500X-0.250000X0.237500X-0.250000X-0.237500X0.250000X-0.237500X0*%
%ADD38RoundRect,0.250000X0.337500X0.475000X-0.337500X0.475000X-0.337500X-0.475000X0.337500X-0.475000X0*%
%ADD39RoundRect,0.237500X-0.237500X0.250000X-0.237500X-0.250000X0.237500X-0.250000X0.237500X0.250000X0*%
%ADD40R,0.750000X3.000000*%
%ADD41RoundRect,0.418770X-0.418770X1.006311X-0.418770X-1.006311X0.418770X-1.006311X0.418770X1.006311X0*%
%ADD42RoundRect,0.412540X-0.412540X0.887541X-0.412540X-0.887541X0.412540X-0.887541X0.412540X0.887541X0*%
%ADD43RoundRect,0.443770X-0.443770X0.893770X-0.443770X-0.893770X0.443770X-0.893770X0.443770X0.893770X0*%
%ADD44RoundRect,0.396885X-0.396885X1.015655X-0.396885X-1.015655X0.396885X-1.015655X0.396885X1.015655X0*%
%ADD45RoundRect,0.237500X0.237500X-0.250000X0.237500X0.250000X-0.237500X0.250000X-0.237500X-0.250000X0*%
%ADD46RoundRect,0.150000X0.150000X-0.825000X0.150000X0.825000X-0.150000X0.825000X-0.150000X-0.825000X0*%
%ADD47C,2.374900*%
%ADD48C,0.990600*%
%ADD49C,0.787400*%
%ADD50RoundRect,0.237500X-0.300000X-0.237500X0.300000X-0.237500X0.300000X0.237500X-0.300000X0.237500X0*%
%ADD51R,2.056000X2.056000*%
%ADD52C,2.056000*%
%ADD53RoundRect,0.237500X0.287500X0.237500X-0.287500X0.237500X-0.287500X-0.237500X0.287500X-0.237500X0*%
%ADD54R,1.000000X1.500000*%
%ADD55RoundRect,0.050000X-0.050000X0.387500X-0.050000X-0.387500X0.050000X-0.387500X0.050000X0.387500X0*%
%ADD56RoundRect,0.050000X-0.387500X0.050000X-0.387500X-0.050000X0.387500X-0.050000X0.387500X0.050000X0*%
%ADD57RoundRect,0.144000X-1.456000X1.456000X-1.456000X-1.456000X1.456000X-1.456000X1.456000X1.456000X0*%
%ADD58RoundRect,0.250000X-1.250000X-0.550000X1.250000X-0.550000X1.250000X0.550000X-1.250000X0.550000X0*%
%ADD59R,0.900000X1.200000*%
%ADD60R,1.800000X2.100000*%
G04 APERTURE END LIST*
D10*
X69600000Y-81800000D02*
X69600000Y-80700000D01*
X96250000Y-79250000D02*
X104750000Y-79250000D01*
X104750000Y-79250000D02*
X104750000Y-88500000D01*
X104750000Y-88500000D02*
X96250000Y-88500000D01*
X96250000Y-88500000D02*
X96250000Y-79250000D01*
X55500000Y-75125000D02*
X62500000Y-75125000D01*
X60500000Y-72500000D02*
X60500000Y-77750000D01*
X76400000Y-72200000D02*
X76400000Y-79900000D01*
X70150000Y-75125000D02*
X76150000Y-75125000D01*
X69600000Y-80700000D02*
X69300000Y-80700000D01*
X75150000Y-72500000D02*
X75150000Y-75100000D01*
X62900000Y-72500000D02*
X62900000Y-77900000D01*
X71150000Y-72500000D02*
X71150000Y-77750000D01*
X49250000Y-55250000D02*
X52500000Y-55250000D01*
X52500000Y-55250000D02*
X52500000Y-58500000D01*
X52500000Y-58500000D02*
X49250000Y-58500000D01*
X49250000Y-58500000D02*
X49250000Y-55250000D01*
X55500000Y-72500000D02*
X62500000Y-72500000D01*
X62500000Y-72500000D02*
X62500000Y-77750000D01*
X62500000Y-77750000D02*
X55500000Y-77750000D01*
X55500000Y-77750000D02*
X55500000Y-72500000D01*
X70150000Y-72500000D02*
X76150000Y-72500000D01*
X76150000Y-72500000D02*
X76150000Y-77750000D01*
X76150000Y-77750000D02*
X70150000Y-77750000D01*
X70150000Y-77750000D02*
X70150000Y-72500000D01*
X73150000Y-72500000D02*
X73150000Y-77750000D01*
X62300000Y-72200000D02*
X62900000Y-72200000D01*
X69300000Y-80700000D02*
X69300000Y-77500000D01*
X68900000Y-77300000D02*
X69300000Y-77300000D01*
X58500000Y-72500000D02*
X58500000Y-77750000D01*
X69300000Y-77300000D02*
X69300000Y-77500000D01*
X65700000Y-81800000D02*
X65700000Y-80300000D01*
X62900000Y-72200000D02*
X62900000Y-72500000D01*
X68450000Y-78600000D02*
X68450000Y-79150000D01*
X62900000Y-77900000D02*
X65700000Y-80300000D01*
X67550000Y-78600000D02*
X67550000Y-79150000D01*
X61500000Y-72500000D02*
X61500000Y-77750000D01*
X76400000Y-79900000D02*
X77300000Y-80700000D01*
X56500000Y-72500000D02*
X56500000Y-77750000D01*
X57500000Y-72500000D02*
X57500000Y-77700000D01*
X66650000Y-78600000D02*
X66650000Y-79150000D01*
X66100000Y-77500000D02*
X69000000Y-77500000D01*
X69000000Y-77500000D02*
X69000000Y-80200000D01*
X69000000Y-80200000D02*
X66100000Y-80200000D01*
X66100000Y-80200000D02*
X66100000Y-77500000D01*
X66100000Y-78850000D02*
X69000000Y-78850000D01*
X74150000Y-72500000D02*
X74150000Y-77750000D01*
X59500000Y-72500000D02*
X59500000Y-75100000D01*
X72150000Y-72500000D02*
X72150000Y-77750000D01*
X77300000Y-80700000D02*
X77300000Y-81800000D01*
X76100000Y-72200000D02*
X76400000Y-72200000D01*
D11*
X71792857Y-77202380D02*
X71811904Y-77221428D01*
X71830952Y-77278571D01*
X71830952Y-77316666D01*
X71811904Y-77373809D01*
X71773809Y-77411904D01*
X71735714Y-77430952D01*
X71659523Y-77450000D01*
X71602380Y-77450000D01*
X71526190Y-77430952D01*
X71488095Y-77411904D01*
X71450000Y-77373809D01*
X71430952Y-77316666D01*
X71430952Y-77278571D01*
X71450000Y-77221428D01*
X71469047Y-77202380D01*
X71716666Y-77050000D02*
X71716666Y-76859523D01*
X71830952Y-77088095D02*
X71430952Y-76954761D01*
X71830952Y-76821428D01*
X71830952Y-76688095D02*
X71430952Y-76688095D01*
X71830952Y-76459523D01*
X71430952Y-76459523D01*
X71430952Y-76021428D02*
X71430952Y-75792857D01*
X71830952Y-75907142D02*
X71430952Y-75907142D01*
X71430952Y-75697619D02*
X71830952Y-75430952D01*
X71430952Y-75430952D02*
X71830952Y-75697619D01*
X56135714Y-74785714D02*
X55992857Y-74885714D01*
X56135714Y-74957142D02*
X55835714Y-74957142D01*
X55835714Y-74842857D01*
X55850000Y-74814285D01*
X55864285Y-74800000D01*
X55892857Y-74785714D01*
X55935714Y-74785714D01*
X55964285Y-74800000D01*
X55978571Y-74814285D01*
X55992857Y-74842857D01*
X55992857Y-74957142D01*
X56050000Y-74671428D02*
X56050000Y-74528571D01*
X56135714Y-74700000D02*
X55835714Y-74600000D01*
X56135714Y-74500000D01*
X56135714Y-74400000D02*
X55835714Y-74400000D01*
X55835714Y-74328571D01*
X55850000Y-74285714D01*
X55878571Y-74257142D01*
X55907142Y-74242857D01*
X55964285Y-74228571D01*
X56007142Y-74228571D01*
X56064285Y-74242857D01*
X56092857Y-74257142D01*
X56121428Y-74285714D01*
X56135714Y-74328571D01*
X56135714Y-74400000D01*
X56135714Y-74100000D02*
X55835714Y-74100000D01*
X55835714Y-73900000D02*
X55835714Y-73842857D01*
X55850000Y-73814285D01*
X55878571Y-73785714D01*
X55935714Y-73771428D01*
X56035714Y-73771428D01*
X56092857Y-73785714D01*
X56121428Y-73814285D01*
X56135714Y-73842857D01*
X56135714Y-73900000D01*
X56121428Y-73928571D01*
X56092857Y-73957142D01*
X56035714Y-73971428D01*
X55935714Y-73971428D01*
X55878571Y-73957142D01*
X55850000Y-73928571D01*
X55835714Y-73900000D01*
X56135714Y-73242857D02*
X55992857Y-73342857D01*
X56135714Y-73414285D02*
X55835714Y-73414285D01*
X55835714Y-73300000D01*
X55850000Y-73271428D01*
X55864285Y-73257142D01*
X55892857Y-73242857D01*
X55935714Y-73242857D01*
X55964285Y-73257142D01*
X55978571Y-73271428D01*
X55992857Y-73300000D01*
X55992857Y-73414285D01*
X56121428Y-73128571D02*
X56135714Y-73085714D01*
X56135714Y-73014285D01*
X56121428Y-72985714D01*
X56107142Y-72971428D01*
X56078571Y-72957142D01*
X56050000Y-72957142D01*
X56021428Y-72971428D01*
X56007142Y-72985714D01*
X55992857Y-73014285D01*
X55978571Y-73071428D01*
X55964285Y-73100000D01*
X55950000Y-73114285D01*
X55921428Y-73128571D01*
X55892857Y-73128571D01*
X55864285Y-73114285D01*
X55850000Y-73100000D01*
X55835714Y-73071428D01*
X55835714Y-73000000D01*
X55850000Y-72957142D01*
X55835714Y-72871428D02*
X55835714Y-72700000D01*
X56135714Y-72785714D02*
X55835714Y-72785714D01*
D12*
X66954760Y-79476190D02*
X67264284Y-79476190D01*
X67097618Y-79666666D01*
X67169046Y-79666666D01*
X67216665Y-79690476D01*
X67240475Y-79714285D01*
X67264284Y-79761904D01*
X67264284Y-79880952D01*
X67240475Y-79928571D01*
X67216665Y-79952380D01*
X67169046Y-79976190D01*
X67026189Y-79976190D01*
X66978570Y-79952380D01*
X66954760Y-79928571D01*
X67430951Y-79642857D02*
X67549999Y-79976190D01*
X67669046Y-79642857D01*
X67811903Y-79476190D02*
X68121427Y-79476190D01*
X67954760Y-79666666D01*
X68026189Y-79666666D01*
X68073808Y-79690476D01*
X68097618Y-79714285D01*
X68121427Y-79761904D01*
X68121427Y-79880952D01*
X68097618Y-79928571D01*
X68073808Y-79952380D01*
X68026189Y-79976190D01*
X67883332Y-79976190D01*
X67835713Y-79952380D01*
X67811903Y-79928571D01*
D13*
X42562142Y-74110000D02*
X42504999Y-74081428D01*
X42419285Y-74081428D01*
X42333570Y-74110000D01*
X42276427Y-74167142D01*
X42247856Y-74224285D01*
X42219285Y-74338571D01*
X42219285Y-74424285D01*
X42247856Y-74538571D01*
X42276427Y-74595714D01*
X42333570Y-74652857D01*
X42419285Y-74681428D01*
X42476427Y-74681428D01*
X42562142Y-74652857D01*
X42590713Y-74624285D01*
X42590713Y-74424285D01*
X42476427Y-74424285D01*
X42847856Y-74681428D02*
X42847856Y-74081428D01*
X43190713Y-74681428D01*
X43190713Y-74081428D01*
X43476427Y-74681428D02*
X43476427Y-74081428D01*
X43619285Y-74081428D01*
X43704999Y-74110000D01*
X43762142Y-74167142D01*
X43790713Y-74224285D01*
X43819285Y-74338571D01*
X43819285Y-74424285D01*
X43790713Y-74538571D01*
X43762142Y-74595714D01*
X43704999Y-74652857D01*
X43619285Y-74681428D01*
X43476427Y-74681428D01*
D12*
X60226190Y-74535714D02*
X59726190Y-74535714D01*
X60083333Y-74369047D01*
X59726190Y-74202380D01*
X60226190Y-74202380D01*
X60226190Y-73964285D02*
X59726190Y-73964285D01*
X60202380Y-73750000D02*
X60226190Y-73678571D01*
X60226190Y-73559523D01*
X60202380Y-73511904D01*
X60178571Y-73488095D01*
X60130952Y-73464285D01*
X60083333Y-73464285D01*
X60035714Y-73488095D01*
X60011904Y-73511904D01*
X59988095Y-73559523D01*
X59964285Y-73654761D01*
X59940476Y-73702380D01*
X59916666Y-73726190D01*
X59869047Y-73750000D01*
X59821428Y-73750000D01*
X59773809Y-73726190D01*
X59750000Y-73702380D01*
X59726190Y-73654761D01*
X59726190Y-73535714D01*
X59750000Y-73464285D01*
X59726190Y-73154761D02*
X59726190Y-73059523D01*
X59750000Y-73011904D01*
X59797619Y-72964285D01*
X59892857Y-72940476D01*
X60059523Y-72940476D01*
X60154761Y-72964285D01*
X60202380Y-73011904D01*
X60226190Y-73059523D01*
X60226190Y-73154761D01*
X60202380Y-73202380D01*
X60154761Y-73250000D01*
X60059523Y-73273809D01*
X59892857Y-73273809D01*
X59797619Y-73250000D01*
X59750000Y-73202380D01*
X59726190Y-73154761D01*
D13*
X41676428Y-73272857D02*
X42133571Y-73272857D01*
X41904999Y-73501428D02*
X41904999Y-73044285D01*
X42362142Y-72901428D02*
X42733571Y-72901428D01*
X42533571Y-73130000D01*
X42619285Y-73130000D01*
X42676428Y-73158571D01*
X42704999Y-73187142D01*
X42733571Y-73244285D01*
X42733571Y-73387142D01*
X42704999Y-73444285D01*
X42676428Y-73472857D01*
X42619285Y-73501428D01*
X42447856Y-73501428D01*
X42390713Y-73472857D01*
X42362142Y-73444285D01*
X42904999Y-72901428D02*
X43104999Y-73501428D01*
X43304999Y-72901428D01*
X43447856Y-72901428D02*
X43819285Y-72901428D01*
X43619285Y-73130000D01*
X43704999Y-73130000D01*
X43762142Y-73158571D01*
X43790713Y-73187142D01*
X43819285Y-73244285D01*
X43819285Y-73387142D01*
X43790713Y-73444285D01*
X43762142Y-73472857D01*
X43704999Y-73501428D01*
X43533571Y-73501428D01*
X43476428Y-73472857D01*
X43447856Y-73444285D01*
D12*
X58202380Y-74595238D02*
X58226190Y-74523809D01*
X58226190Y-74404761D01*
X58202380Y-74357142D01*
X58178571Y-74333333D01*
X58130952Y-74309523D01*
X58083333Y-74309523D01*
X58035714Y-74333333D01*
X58011904Y-74357142D01*
X57988095Y-74404761D01*
X57964285Y-74500000D01*
X57940476Y-74547619D01*
X57916666Y-74571428D01*
X57869047Y-74595238D01*
X57821428Y-74595238D01*
X57773809Y-74571428D01*
X57750000Y-74547619D01*
X57726190Y-74500000D01*
X57726190Y-74380952D01*
X57750000Y-74309523D01*
X58178571Y-73809523D02*
X58202380Y-73833333D01*
X58226190Y-73904761D01*
X58226190Y-73952380D01*
X58202380Y-74023809D01*
X58154761Y-74071428D01*
X58107142Y-74095238D01*
X58011904Y-74119047D01*
X57940476Y-74119047D01*
X57845238Y-74095238D01*
X57797619Y-74071428D01*
X57750000Y-74023809D01*
X57726190Y-73952380D01*
X57726190Y-73904761D01*
X57750000Y-73833333D01*
X57773809Y-73809523D01*
X58226190Y-73357142D02*
X58226190Y-73595238D01*
X57726190Y-73595238D01*
X58226190Y-73190476D02*
X57726190Y-73190476D01*
X58226190Y-72904761D02*
X57940476Y-73119047D01*
X57726190Y-72904761D02*
X58011904Y-73190476D01*
D14*
X83076190Y-42452380D02*
X83076190Y-43166666D01*
X83066666Y-43309523D01*
X83047619Y-43404761D01*
X83019047Y-43452380D01*
X83000000Y-43452380D01*
X83266666Y-43452380D02*
X83171428Y-43452380D01*
X83171428Y-42452380D01*
X83447619Y-43357142D02*
X83438095Y-43404761D01*
X83409523Y-43452380D01*
X83390476Y-43452380D01*
X83361904Y-43404761D01*
X83342857Y-43309523D01*
X83333333Y-43214285D01*
X83323809Y-43023809D01*
X83323809Y-42880952D01*
X83333333Y-42690476D01*
X83342857Y-42595238D01*
X83361904Y-42500000D01*
X83390476Y-42452380D01*
X83409523Y-42452380D01*
X83438095Y-42500000D01*
X83447619Y-42547619D01*
X83590476Y-42452380D02*
X83590476Y-43166666D01*
X83580952Y-43309523D01*
X83561904Y-43404761D01*
X83533333Y-43452380D01*
X83514285Y-43452380D01*
X83780952Y-43452380D02*
X83685714Y-43452380D01*
X83685714Y-42452380D01*
X83961904Y-43357142D02*
X83952380Y-43404761D01*
X83923809Y-43452380D01*
X83904761Y-43452380D01*
X83876190Y-43404761D01*
X83857142Y-43309523D01*
X83847619Y-43214285D01*
X83838095Y-43023809D01*
X83838095Y-42880952D01*
X83847619Y-42690476D01*
X83857142Y-42595238D01*
X83876190Y-42500000D01*
X83904761Y-42452380D01*
X83923809Y-42452380D01*
X83952380Y-42500000D01*
X83961904Y-42547619D01*
X84104761Y-42452380D02*
X84104761Y-43166666D01*
X84095238Y-43309523D01*
X84076190Y-43404761D01*
X84047619Y-43452380D01*
X84028571Y-43452380D01*
X84295238Y-43452380D02*
X84200000Y-43452380D01*
X84200000Y-42452380D01*
X84476190Y-43357142D02*
X84466666Y-43404761D01*
X84438095Y-43452380D01*
X84419047Y-43452380D01*
X84390476Y-43404761D01*
X84371428Y-43309523D01*
X84361904Y-43214285D01*
X84352380Y-43023809D01*
X84352380Y-42880952D01*
X84361904Y-42690476D01*
X84371428Y-42595238D01*
X84390476Y-42500000D01*
X84419047Y-42452380D01*
X84438095Y-42452380D01*
X84466666Y-42500000D01*
X84476190Y-42547619D01*
X84619047Y-42452380D02*
X84619047Y-43166666D01*
X84609523Y-43309523D01*
X84590476Y-43404761D01*
X84561904Y-43452380D01*
X84542857Y-43452380D01*
X84809523Y-43452380D02*
X84714285Y-43452380D01*
X84714285Y-42452380D01*
X84990476Y-43357142D02*
X84980952Y-43404761D01*
X84952380Y-43452380D01*
X84933333Y-43452380D01*
X84904761Y-43404761D01*
X84885714Y-43309523D01*
X84876190Y-43214285D01*
X84866666Y-43023809D01*
X84866666Y-42880952D01*
X84876190Y-42690476D01*
X84885714Y-42595238D01*
X84904761Y-42500000D01*
X84933333Y-42452380D01*
X84952380Y-42452380D01*
X84980952Y-42500000D01*
X84990476Y-42547619D01*
D12*
X73876190Y-76333333D02*
X73638095Y-76500000D01*
X73876190Y-76619047D02*
X73376190Y-76619047D01*
X73376190Y-76428571D01*
X73400000Y-76380952D01*
X73423809Y-76357142D01*
X73471428Y-76333333D01*
X73542857Y-76333333D01*
X73590476Y-76357142D01*
X73614285Y-76380952D01*
X73638095Y-76428571D01*
X73638095Y-76619047D01*
X73376190Y-76166666D02*
X73876190Y-75833333D01*
X73376190Y-75833333D02*
X73876190Y-76166666D01*
D11*
X62135714Y-74607142D02*
X61835714Y-74607142D01*
X62050000Y-74507142D01*
X61835714Y-74407142D01*
X62135714Y-74407142D01*
X62107142Y-74092857D02*
X62121428Y-74107142D01*
X62135714Y-74150000D01*
X62135714Y-74178571D01*
X62121428Y-74221428D01*
X62092857Y-74250000D01*
X62064285Y-74264285D01*
X62007142Y-74278571D01*
X61964285Y-74278571D01*
X61907142Y-74264285D01*
X61878571Y-74250000D01*
X61850000Y-74221428D01*
X61835714Y-74178571D01*
X61835714Y-74150000D01*
X61850000Y-74107142D01*
X61864285Y-74092857D01*
X62135714Y-73964285D02*
X61835714Y-73964285D01*
X61835714Y-73850000D01*
X61850000Y-73821428D01*
X61864285Y-73807142D01*
X61892857Y-73792857D01*
X61935714Y-73792857D01*
X61964285Y-73807142D01*
X61978571Y-73821428D01*
X61992857Y-73850000D01*
X61992857Y-73964285D01*
X62135714Y-73435714D02*
X61835714Y-73435714D01*
X62135714Y-73292857D02*
X61835714Y-73292857D01*
X62135714Y-73121428D01*
X61835714Y-73121428D01*
X61835714Y-73021428D02*
X61835714Y-72850000D01*
X62135714Y-72935714D02*
X61835714Y-72935714D01*
X61078571Y-76957142D02*
X61092857Y-76914285D01*
X61107142Y-76900000D01*
X61135714Y-76885714D01*
X61178571Y-76885714D01*
X61207142Y-76900000D01*
X61221428Y-76914285D01*
X61235714Y-76942857D01*
X61235714Y-77057142D01*
X60935714Y-77057142D01*
X60935714Y-76957142D01*
X60950000Y-76928571D01*
X60964285Y-76914285D01*
X60992857Y-76900000D01*
X61021428Y-76900000D01*
X61050000Y-76914285D01*
X61064285Y-76928571D01*
X61078571Y-76957142D01*
X61078571Y-77057142D01*
X60935714Y-76800000D02*
X60935714Y-76628571D01*
X61235714Y-76714285D02*
X60935714Y-76714285D01*
X61235714Y-76528571D02*
X60935714Y-76528571D01*
X61235714Y-76357142D01*
X60935714Y-76357142D01*
X61235714Y-75828571D02*
X61235714Y-76000000D01*
X61235714Y-75914285D02*
X60935714Y-75914285D01*
X60978571Y-75942857D01*
X61007142Y-75971428D01*
X61021428Y-76000000D01*
D13*
X48185714Y-75928571D02*
X48328571Y-75976190D01*
X48376190Y-76023809D01*
X48423809Y-76119047D01*
X48423809Y-76261904D01*
X48376190Y-76357142D01*
X48328571Y-76404761D01*
X48233333Y-76452380D01*
X47852380Y-76452380D01*
X47852380Y-75452380D01*
X48185714Y-75452380D01*
X48280952Y-75500000D01*
X48328571Y-75547619D01*
X48376190Y-75642857D01*
X48376190Y-75738095D01*
X48328571Y-75833333D01*
X48280952Y-75880952D01*
X48185714Y-75928571D01*
X47852380Y-75928571D01*
X49280952Y-75785714D02*
X49280952Y-76452380D01*
X48852380Y-75785714D02*
X48852380Y-76309523D01*
X48900000Y-76404761D01*
X48995238Y-76452380D01*
X49138095Y-76452380D01*
X49233333Y-76404761D01*
X49280952Y-76357142D01*
X49614285Y-75785714D02*
X49995238Y-75785714D01*
X49757142Y-75452380D02*
X49757142Y-76309523D01*
X49804761Y-76404761D01*
X49900000Y-76452380D01*
X49995238Y-76452380D01*
X50185714Y-75785714D02*
X50566666Y-75785714D01*
X50328571Y-75452380D02*
X50328571Y-76309523D01*
X50376190Y-76404761D01*
X50471428Y-76452380D01*
X50566666Y-76452380D01*
X51042857Y-76452380D02*
X50947619Y-76404761D01*
X50900000Y-76357142D01*
X50852380Y-76261904D01*
X50852380Y-75976190D01*
X50900000Y-75880952D01*
X50947619Y-75833333D01*
X51042857Y-75785714D01*
X51185714Y-75785714D01*
X51280952Y-75833333D01*
X51328571Y-75880952D01*
X51376190Y-75976190D01*
X51376190Y-76261904D01*
X51328571Y-76357142D01*
X51280952Y-76404761D01*
X51185714Y-76452380D01*
X51042857Y-76452380D01*
X51804761Y-75785714D02*
X51804761Y-76452380D01*
X51804761Y-75880952D02*
X51852380Y-75833333D01*
X51947619Y-75785714D01*
X52090476Y-75785714D01*
X52185714Y-75833333D01*
X52233333Y-75928571D01*
X52233333Y-76452380D01*
X53995238Y-76452380D02*
X53423809Y-76452380D01*
X53709523Y-76452380D02*
X53709523Y-75452380D01*
X53614285Y-75595238D01*
X53519047Y-75690476D01*
X53423809Y-75738095D01*
D11*
X61978571Y-76957142D02*
X61992857Y-76914285D01*
X62007142Y-76900000D01*
X62035714Y-76885714D01*
X62078571Y-76885714D01*
X62107142Y-76900000D01*
X62121428Y-76914285D01*
X62135714Y-76942857D01*
X62135714Y-77057142D01*
X61835714Y-77057142D01*
X61835714Y-76957142D01*
X61850000Y-76928571D01*
X61864285Y-76914285D01*
X61892857Y-76900000D01*
X61921428Y-76900000D01*
X61950000Y-76914285D01*
X61964285Y-76928571D01*
X61978571Y-76957142D01*
X61978571Y-77057142D01*
X61835714Y-76800000D02*
X61835714Y-76628571D01*
X62135714Y-76714285D02*
X61835714Y-76714285D01*
X62135714Y-76528571D02*
X61835714Y-76528571D01*
X62135714Y-76357142D01*
X61835714Y-76357142D01*
X61864285Y-76000000D02*
X61850000Y-75985714D01*
X61835714Y-75957142D01*
X61835714Y-75885714D01*
X61850000Y-75857142D01*
X61864285Y-75842857D01*
X61892857Y-75828571D01*
X61921428Y-75828571D01*
X61964285Y-75842857D01*
X62135714Y-76014285D01*
X62135714Y-75828571D01*
D12*
X59226190Y-74535714D02*
X58726190Y-74535714D01*
X59083333Y-74369047D01*
X58726190Y-74202380D01*
X59226190Y-74202380D01*
X58726190Y-73869047D02*
X58726190Y-73773809D01*
X58750000Y-73726190D01*
X58797619Y-73678571D01*
X58892857Y-73654761D01*
X59059523Y-73654761D01*
X59154761Y-73678571D01*
X59202380Y-73726190D01*
X59226190Y-73773809D01*
X59226190Y-73869047D01*
X59202380Y-73916666D01*
X59154761Y-73964285D01*
X59059523Y-73988095D01*
X58892857Y-73988095D01*
X58797619Y-73964285D01*
X58750000Y-73916666D01*
X58726190Y-73869047D01*
X59202380Y-73464285D02*
X59226190Y-73392857D01*
X59226190Y-73273809D01*
X59202380Y-73226190D01*
X59178571Y-73202380D01*
X59130952Y-73178571D01*
X59083333Y-73178571D01*
X59035714Y-73202380D01*
X59011904Y-73226190D01*
X58988095Y-73273809D01*
X58964285Y-73369047D01*
X58940476Y-73416666D01*
X58916666Y-73440476D01*
X58869047Y-73464285D01*
X58821428Y-73464285D01*
X58773809Y-73440476D01*
X58750000Y-73416666D01*
X58726190Y-73369047D01*
X58726190Y-73250000D01*
X58750000Y-73178571D01*
X59226190Y-72964285D02*
X58726190Y-72964285D01*
D13*
X48385714Y-81528571D02*
X48528571Y-81576190D01*
X48576190Y-81623809D01*
X48623809Y-81719047D01*
X48623809Y-81861904D01*
X48576190Y-81957142D01*
X48528571Y-82004761D01*
X48433333Y-82052380D01*
X48052380Y-82052380D01*
X48052380Y-81052380D01*
X48385714Y-81052380D01*
X48480952Y-81100000D01*
X48528571Y-81147619D01*
X48576190Y-81242857D01*
X48576190Y-81338095D01*
X48528571Y-81433333D01*
X48480952Y-81480952D01*
X48385714Y-81528571D01*
X48052380Y-81528571D01*
X49480952Y-81385714D02*
X49480952Y-82052380D01*
X49052380Y-81385714D02*
X49052380Y-81909523D01*
X49100000Y-82004761D01*
X49195238Y-82052380D01*
X49338095Y-82052380D01*
X49433333Y-82004761D01*
X49480952Y-81957142D01*
X49814285Y-81385714D02*
X50195238Y-81385714D01*
X49957142Y-81052380D02*
X49957142Y-81909523D01*
X50004761Y-82004761D01*
X50100000Y-82052380D01*
X50195238Y-82052380D01*
X50385714Y-81385714D02*
X50766666Y-81385714D01*
X50528571Y-81052380D02*
X50528571Y-81909523D01*
X50576190Y-82004761D01*
X50671428Y-82052380D01*
X50766666Y-82052380D01*
X51242857Y-82052380D02*
X51147619Y-82004761D01*
X51100000Y-81957142D01*
X51052380Y-81861904D01*
X51052380Y-81576190D01*
X51100000Y-81480952D01*
X51147619Y-81433333D01*
X51242857Y-81385714D01*
X51385714Y-81385714D01*
X51480952Y-81433333D01*
X51528571Y-81480952D01*
X51576190Y-81576190D01*
X51576190Y-81861904D01*
X51528571Y-81957142D01*
X51480952Y-82004761D01*
X51385714Y-82052380D01*
X51242857Y-82052380D01*
X52004761Y-81385714D02*
X52004761Y-82052380D01*
X52004761Y-81480952D02*
X52052380Y-81433333D01*
X52147619Y-81385714D01*
X52290476Y-81385714D01*
X52385714Y-81433333D01*
X52433333Y-81528571D01*
X52433333Y-82052380D01*
X53623809Y-81147619D02*
X53671428Y-81100000D01*
X53766666Y-81052380D01*
X54004761Y-81052380D01*
X54100000Y-81100000D01*
X54147619Y-81147619D01*
X54195238Y-81242857D01*
X54195238Y-81338095D01*
X54147619Y-81480952D01*
X53576190Y-82052380D01*
X54195238Y-82052380D01*
D12*
X87226190Y-91678571D02*
X87202380Y-91702380D01*
X87130952Y-91726190D01*
X87083333Y-91726190D01*
X87011904Y-91702380D01*
X86964285Y-91654761D01*
X86940476Y-91607142D01*
X86916666Y-91511904D01*
X86916666Y-91440476D01*
X86940476Y-91345238D01*
X86964285Y-91297619D01*
X87011904Y-91250000D01*
X87083333Y-91226190D01*
X87130952Y-91226190D01*
X87202380Y-91250000D01*
X87226190Y-91273809D01*
X87416666Y-91583333D02*
X87654761Y-91583333D01*
X87369047Y-91726190D02*
X87535714Y-91226190D01*
X87702380Y-91726190D01*
X87869047Y-91726190D02*
X87869047Y-91226190D01*
X88154761Y-91726190D01*
X88154761Y-91226190D01*
X89059523Y-91726190D02*
X88892857Y-91488095D01*
X88773809Y-91726190D02*
X88773809Y-91226190D01*
X88964285Y-91226190D01*
X89011904Y-91250000D01*
X89035714Y-91273809D01*
X89059523Y-91321428D01*
X89059523Y-91392857D01*
X89035714Y-91440476D01*
X89011904Y-91464285D01*
X88964285Y-91488095D01*
X88773809Y-91488095D01*
X89535714Y-91250000D02*
X89488095Y-91226190D01*
X89416666Y-91226190D01*
X89345238Y-91250000D01*
X89297619Y-91297619D01*
X89273809Y-91345238D01*
X89250000Y-91440476D01*
X89250000Y-91511904D01*
X89273809Y-91607142D01*
X89297619Y-91654761D01*
X89345238Y-91702380D01*
X89416666Y-91726190D01*
X89464285Y-91726190D01*
X89535714Y-91702380D01*
X89559523Y-91678571D01*
X89559523Y-91511904D01*
X89464285Y-91511904D01*
X89940476Y-91464285D02*
X90011904Y-91488095D01*
X90035714Y-91511904D01*
X90059523Y-91559523D01*
X90059523Y-91630952D01*
X90035714Y-91678571D01*
X90011904Y-91702380D01*
X89964285Y-91726190D01*
X89773809Y-91726190D01*
X89773809Y-91226190D01*
X89940476Y-91226190D01*
X89988095Y-91250000D01*
X90011904Y-91273809D01*
X90035714Y-91321428D01*
X90035714Y-91369047D01*
X90011904Y-91416666D01*
X89988095Y-91440476D01*
X89940476Y-91464285D01*
X89773809Y-91464285D01*
X90940476Y-91678571D02*
X90916666Y-91702380D01*
X90845238Y-91726190D01*
X90797619Y-91726190D01*
X90726190Y-91702380D01*
X90678571Y-91654761D01*
X90654761Y-91607142D01*
X90630952Y-91511904D01*
X90630952Y-91440476D01*
X90654761Y-91345238D01*
X90678571Y-91297619D01*
X90726190Y-91250000D01*
X90797619Y-91226190D01*
X90845238Y-91226190D01*
X90916666Y-91250000D01*
X90940476Y-91273809D01*
X91250000Y-91226190D02*
X91345238Y-91226190D01*
X91392857Y-91250000D01*
X91440476Y-91297619D01*
X91464285Y-91392857D01*
X91464285Y-91559523D01*
X91440476Y-91654761D01*
X91392857Y-91702380D01*
X91345238Y-91726190D01*
X91250000Y-91726190D01*
X91202380Y-91702380D01*
X91154761Y-91654761D01*
X91130952Y-91559523D01*
X91130952Y-91392857D01*
X91154761Y-91297619D01*
X91202380Y-91250000D01*
X91250000Y-91226190D01*
X91678571Y-91726190D02*
X91678571Y-91226190D01*
X91964285Y-91726190D01*
X91964285Y-91226190D01*
X92130952Y-91226190D02*
X92416666Y-91226190D01*
X92273809Y-91726190D02*
X92273809Y-91226190D01*
X92869047Y-91726190D02*
X92702380Y-91488095D01*
X92583333Y-91726190D02*
X92583333Y-91226190D01*
X92773809Y-91226190D01*
X92821428Y-91250000D01*
X92845238Y-91273809D01*
X92869047Y-91321428D01*
X92869047Y-91392857D01*
X92845238Y-91440476D01*
X92821428Y-91464285D01*
X92773809Y-91488095D01*
X92583333Y-91488095D01*
X93178571Y-91226190D02*
X93273809Y-91226190D01*
X93321428Y-91250000D01*
X93369047Y-91297619D01*
X93392857Y-91392857D01*
X93392857Y-91559523D01*
X93369047Y-91654761D01*
X93321428Y-91702380D01*
X93273809Y-91726190D01*
X93178571Y-91726190D01*
X93130952Y-91702380D01*
X93083333Y-91654761D01*
X93059523Y-91559523D01*
X93059523Y-91392857D01*
X93083333Y-91297619D01*
X93130952Y-91250000D01*
X93178571Y-91226190D01*
X93845238Y-91726190D02*
X93607142Y-91726190D01*
X93607142Y-91226190D01*
X94250000Y-91726190D02*
X94011904Y-91726190D01*
X94011904Y-91226190D01*
X94416666Y-91464285D02*
X94583333Y-91464285D01*
X94654761Y-91726190D02*
X94416666Y-91726190D01*
X94416666Y-91226190D01*
X94654761Y-91226190D01*
X95154761Y-91726190D02*
X94988095Y-91488095D01*
X94869047Y-91726190D02*
X94869047Y-91226190D01*
X95059523Y-91226190D01*
X95107142Y-91250000D01*
X95130952Y-91273809D01*
X95154761Y-91321428D01*
X95154761Y-91392857D01*
X95130952Y-91440476D01*
X95107142Y-91464285D01*
X95059523Y-91488095D01*
X94869047Y-91488095D01*
X95678571Y-91226190D02*
X95845238Y-91726190D01*
X96011904Y-91226190D01*
X96130952Y-91226190D02*
X96440476Y-91226190D01*
X96273809Y-91416666D01*
X96345238Y-91416666D01*
X96392857Y-91440476D01*
X96416666Y-91464285D01*
X96440476Y-91511904D01*
X96440476Y-91630952D01*
X96416666Y-91678571D01*
X96392857Y-91702380D01*
X96345238Y-91726190D01*
X96202380Y-91726190D01*
X96154761Y-91702380D01*
X96130952Y-91678571D01*
X97035714Y-91726190D02*
X97035714Y-91226190D01*
X97154761Y-91226190D01*
X97226190Y-91250000D01*
X97273809Y-91297619D01*
X97297619Y-91345238D01*
X97321428Y-91440476D01*
X97321428Y-91511904D01*
X97297619Y-91607142D01*
X97273809Y-91654761D01*
X97226190Y-91702380D01*
X97154761Y-91726190D01*
X97035714Y-91726190D01*
X97726190Y-91702380D02*
X97678571Y-91726190D01*
X97583333Y-91726190D01*
X97535714Y-91702380D01*
X97511904Y-91654761D01*
X97511904Y-91464285D01*
X97535714Y-91416666D01*
X97583333Y-91392857D01*
X97678571Y-91392857D01*
X97726190Y-91416666D01*
X97750000Y-91464285D01*
X97750000Y-91511904D01*
X97511904Y-91559523D01*
X97940476Y-91702380D02*
X97988095Y-91726190D01*
X98083333Y-91726190D01*
X98130952Y-91702380D01*
X98154761Y-91654761D01*
X98154761Y-91630952D01*
X98130952Y-91583333D01*
X98083333Y-91559523D01*
X98011904Y-91559523D01*
X97964285Y-91535714D01*
X97940476Y-91488095D01*
X97940476Y-91464285D01*
X97964285Y-91416666D01*
X98011904Y-91392857D01*
X98083333Y-91392857D01*
X98130952Y-91416666D01*
X98369047Y-91726190D02*
X98369047Y-91392857D01*
X98369047Y-91226190D02*
X98345238Y-91250000D01*
X98369047Y-91273809D01*
X98392857Y-91250000D01*
X98369047Y-91226190D01*
X98369047Y-91273809D01*
X98821428Y-91392857D02*
X98821428Y-91797619D01*
X98797619Y-91845238D01*
X98773809Y-91869047D01*
X98726190Y-91892857D01*
X98654761Y-91892857D01*
X98607142Y-91869047D01*
X98821428Y-91702380D02*
X98773809Y-91726190D01*
X98678571Y-91726190D01*
X98630952Y-91702380D01*
X98607142Y-91678571D01*
X98583333Y-91630952D01*
X98583333Y-91488095D01*
X98607142Y-91440476D01*
X98630952Y-91416666D01*
X98678571Y-91392857D01*
X98773809Y-91392857D01*
X98821428Y-91416666D01*
X99059523Y-91392857D02*
X99059523Y-91726190D01*
X99059523Y-91440476D02*
X99083333Y-91416666D01*
X99130952Y-91392857D01*
X99202380Y-91392857D01*
X99250000Y-91416666D01*
X99273809Y-91464285D01*
X99273809Y-91726190D01*
X99702380Y-91702380D02*
X99654761Y-91726190D01*
X99559523Y-91726190D01*
X99511904Y-91702380D01*
X99488095Y-91654761D01*
X99488095Y-91464285D01*
X99511904Y-91416666D01*
X99559523Y-91392857D01*
X99654761Y-91392857D01*
X99702380Y-91416666D01*
X99726190Y-91464285D01*
X99726190Y-91511904D01*
X99488095Y-91559523D01*
X100154761Y-91726190D02*
X100154761Y-91226190D01*
X100154761Y-91702380D02*
X100107142Y-91726190D01*
X100011904Y-91726190D01*
X99964285Y-91702380D01*
X99940476Y-91678571D01*
X99916666Y-91630952D01*
X99916666Y-91488095D01*
X99940476Y-91440476D01*
X99964285Y-91416666D01*
X100011904Y-91392857D01*
X100107142Y-91392857D01*
X100154761Y-91416666D01*
X100773809Y-91726190D02*
X100773809Y-91226190D01*
X100773809Y-91416666D02*
X100821428Y-91392857D01*
X100916666Y-91392857D01*
X100964285Y-91416666D01*
X100988095Y-91440476D01*
X101011904Y-91488095D01*
X101011904Y-91630952D01*
X100988095Y-91678571D01*
X100964285Y-91702380D01*
X100916666Y-91726190D01*
X100821428Y-91726190D01*
X100773809Y-91702380D01*
X101178571Y-91392857D02*
X101297619Y-91726190D01*
X101416666Y-91392857D02*
X101297619Y-91726190D01*
X101250000Y-91845238D01*
X101226190Y-91869047D01*
X101178571Y-91892857D01*
X102273809Y-91678571D02*
X102249999Y-91702380D01*
X102178571Y-91726190D01*
X102130952Y-91726190D01*
X102059523Y-91702380D01*
X102011904Y-91654761D01*
X101988095Y-91607142D01*
X101964285Y-91511904D01*
X101964285Y-91440476D01*
X101988095Y-91345238D01*
X102011904Y-91297619D01*
X102059523Y-91250000D01*
X102130952Y-91226190D01*
X102178571Y-91226190D01*
X102249999Y-91250000D01*
X102273809Y-91273809D01*
X102559523Y-91726190D02*
X102511904Y-91702380D01*
X102488095Y-91678571D01*
X102464285Y-91630952D01*
X102464285Y-91488095D01*
X102488095Y-91440476D01*
X102511904Y-91416666D01*
X102559523Y-91392857D01*
X102630952Y-91392857D01*
X102678571Y-91416666D01*
X102702380Y-91440476D01*
X102726190Y-91488095D01*
X102726190Y-91630952D01*
X102702380Y-91678571D01*
X102678571Y-91702380D01*
X102630952Y-91726190D01*
X102559523Y-91726190D01*
X102940476Y-91392857D02*
X102940476Y-91726190D01*
X102940476Y-91440476D02*
X102964285Y-91416666D01*
X103011904Y-91392857D01*
X103083333Y-91392857D01*
X103130952Y-91416666D01*
X103154761Y-91464285D01*
X103154761Y-91726190D01*
X103392857Y-91392857D02*
X103392857Y-91726190D01*
X103392857Y-91440476D02*
X103416666Y-91416666D01*
X103464285Y-91392857D01*
X103535714Y-91392857D01*
X103583333Y-91416666D01*
X103607142Y-91464285D01*
X103607142Y-91726190D01*
X103916666Y-91726190D02*
X103869047Y-91702380D01*
X103845238Y-91678571D01*
X103821428Y-91630952D01*
X103821428Y-91488095D01*
X103845238Y-91440476D01*
X103869047Y-91416666D01*
X103916666Y-91392857D01*
X103988095Y-91392857D01*
X104035714Y-91416666D01*
X104059523Y-91440476D01*
X104083333Y-91488095D01*
X104083333Y-91630952D01*
X104059523Y-91678571D01*
X104035714Y-91702380D01*
X103988095Y-91726190D01*
X103916666Y-91726190D01*
X104297619Y-91726190D02*
X104297619Y-91392857D01*
X104297619Y-91488095D02*
X104321428Y-91440476D01*
X104345238Y-91416666D01*
X104392857Y-91392857D01*
X104440476Y-91392857D01*
X105273809Y-91726190D02*
X105107142Y-91488095D01*
X104988095Y-91726190D02*
X104988095Y-91226190D01*
X105178571Y-91226190D01*
X105226190Y-91250000D01*
X105249999Y-91273809D01*
X105273809Y-91321428D01*
X105273809Y-91392857D01*
X105249999Y-91440476D01*
X105226190Y-91464285D01*
X105178571Y-91488095D01*
X104988095Y-91488095D01*
X105488095Y-91726190D02*
X105488095Y-91392857D01*
X105488095Y-91226190D02*
X105464285Y-91250000D01*
X105488095Y-91273809D01*
X105511904Y-91250000D01*
X105488095Y-91226190D01*
X105488095Y-91273809D01*
X105940476Y-91392857D02*
X105940476Y-91797619D01*
X105916666Y-91845238D01*
X105892857Y-91869047D01*
X105845238Y-91892857D01*
X105773809Y-91892857D01*
X105726190Y-91869047D01*
X105940476Y-91702380D02*
X105892857Y-91726190D01*
X105797619Y-91726190D01*
X105749999Y-91702380D01*
X105726190Y-91678571D01*
X105702380Y-91630952D01*
X105702380Y-91488095D01*
X105726190Y-91440476D01*
X105749999Y-91416666D01*
X105797619Y-91392857D01*
X105892857Y-91392857D01*
X105940476Y-91416666D01*
X106178571Y-91726190D02*
X106178571Y-91226190D01*
X106178571Y-91416666D02*
X106226190Y-91392857D01*
X106321428Y-91392857D01*
X106369047Y-91416666D01*
X106392857Y-91440476D01*
X106416666Y-91488095D01*
X106416666Y-91630952D01*
X106392857Y-91678571D01*
X106369047Y-91702380D01*
X106321428Y-91726190D01*
X106226190Y-91726190D01*
X106178571Y-91702380D01*
X106583333Y-91392857D02*
X106702380Y-91726190D01*
X106821428Y-91392857D02*
X106702380Y-91726190D01*
X106654761Y-91845238D01*
X106630952Y-91869047D01*
X106583333Y-91892857D01*
X107369047Y-91273809D02*
X107392857Y-91250000D01*
X107440476Y-91226190D01*
X107559523Y-91226190D01*
X107607142Y-91250000D01*
X107630952Y-91273809D01*
X107654761Y-91321428D01*
X107654761Y-91369047D01*
X107630952Y-91440476D01*
X107345238Y-91726190D01*
X107654761Y-91726190D01*
X107964285Y-91226190D02*
X108011904Y-91226190D01*
X108059523Y-91250000D01*
X108083333Y-91273809D01*
X108107142Y-91321428D01*
X108130952Y-91416666D01*
X108130952Y-91535714D01*
X108107142Y-91630952D01*
X108083333Y-91678571D01*
X108059523Y-91702380D01*
X108011904Y-91726190D01*
X107964285Y-91726190D01*
X107916666Y-91702380D01*
X107892857Y-91678571D01*
X107869047Y-91630952D01*
X107845238Y-91535714D01*
X107845238Y-91416666D01*
X107869047Y-91321428D01*
X107892857Y-91273809D01*
X107916666Y-91250000D01*
X107964285Y-91226190D01*
X108321428Y-91273809D02*
X108345238Y-91250000D01*
X108392857Y-91226190D01*
X108511904Y-91226190D01*
X108559523Y-91250000D01*
X108583333Y-91273809D01*
X108607142Y-91321428D01*
X108607142Y-91369047D01*
X108583333Y-91440476D01*
X108297619Y-91726190D01*
X108607142Y-91726190D01*
X108797619Y-91273809D02*
X108821428Y-91250000D01*
X108869047Y-91226190D01*
X108988095Y-91226190D01*
X109035714Y-91250000D01*
X109059523Y-91273809D01*
X109083333Y-91321428D01*
X109083333Y-91369047D01*
X109059523Y-91440476D01*
X108773809Y-91726190D01*
X109083333Y-91726190D01*
D13*
X81042857Y-60300000D02*
X80985714Y-60271428D01*
X80900000Y-60271428D01*
X80814285Y-60300000D01*
X80757142Y-60357142D01*
X80728571Y-60414285D01*
X80700000Y-60528571D01*
X80700000Y-60614285D01*
X80728571Y-60728571D01*
X80757142Y-60785714D01*
X80814285Y-60842857D01*
X80900000Y-60871428D01*
X80957142Y-60871428D01*
X81042857Y-60842857D01*
X81071428Y-60814285D01*
X81071428Y-60614285D01*
X80957142Y-60614285D01*
X81328571Y-60871428D02*
X81328571Y-60271428D01*
X81671428Y-60871428D01*
X81671428Y-60271428D01*
X81957142Y-60871428D02*
X81957142Y-60271428D01*
X82100000Y-60271428D01*
X82185714Y-60300000D01*
X82242857Y-60357142D01*
X82271428Y-60414285D01*
X82300000Y-60528571D01*
X82300000Y-60614285D01*
X82271428Y-60728571D01*
X82242857Y-60785714D01*
X82185714Y-60842857D01*
X82100000Y-60871428D01*
X81957142Y-60871428D01*
D12*
X59626190Y-76735714D02*
X59626190Y-77021428D01*
X59626190Y-76878571D02*
X59126190Y-76878571D01*
X59197619Y-76926190D01*
X59245238Y-76973809D01*
X59269047Y-77021428D01*
X59173809Y-76545238D02*
X59150000Y-76521428D01*
X59126190Y-76473809D01*
X59126190Y-76354761D01*
X59150000Y-76307142D01*
X59173809Y-76283333D01*
X59221428Y-76259523D01*
X59269047Y-76259523D01*
X59340476Y-76283333D01*
X59626190Y-76569047D01*
X59626190Y-76259523D01*
X59292857Y-76092857D02*
X59626190Y-75973809D01*
X59292857Y-75854761D01*
D11*
X58135714Y-77321428D02*
X57992857Y-77421428D01*
X58135714Y-77492857D02*
X57835714Y-77492857D01*
X57835714Y-77378571D01*
X57850000Y-77350000D01*
X57864285Y-77335714D01*
X57892857Y-77321428D01*
X57935714Y-77321428D01*
X57964285Y-77335714D01*
X57978571Y-77350000D01*
X57992857Y-77378571D01*
X57992857Y-77492857D01*
X58050000Y-77207142D02*
X58050000Y-77064285D01*
X58135714Y-77235714D02*
X57835714Y-77135714D01*
X58135714Y-77035714D01*
X58135714Y-76935714D02*
X57835714Y-76935714D01*
X57835714Y-76864285D01*
X57850000Y-76821428D01*
X57878571Y-76792857D01*
X57907142Y-76778571D01*
X57964285Y-76764285D01*
X58007142Y-76764285D01*
X58064285Y-76778571D01*
X58092857Y-76792857D01*
X58121428Y-76821428D01*
X58135714Y-76864285D01*
X58135714Y-76935714D01*
X58135714Y-76635714D02*
X57835714Y-76635714D01*
X57835714Y-76435714D02*
X57835714Y-76378571D01*
X57850000Y-76350000D01*
X57878571Y-76321428D01*
X57935714Y-76307142D01*
X58035714Y-76307142D01*
X58092857Y-76321428D01*
X58121428Y-76350000D01*
X58135714Y-76378571D01*
X58135714Y-76435714D01*
X58121428Y-76464285D01*
X58092857Y-76492857D01*
X58035714Y-76507142D01*
X57935714Y-76507142D01*
X57878571Y-76492857D01*
X57850000Y-76464285D01*
X57835714Y-76435714D01*
X58135714Y-75950000D02*
X57835714Y-75950000D01*
X58135714Y-75807142D02*
X57835714Y-75807142D01*
X58135714Y-75635714D01*
X57835714Y-75635714D01*
X57835714Y-75535714D02*
X57835714Y-75364285D01*
X58135714Y-75450000D02*
X57835714Y-75450000D01*
D12*
X67169046Y-77800000D02*
X67121427Y-77776190D01*
X67049999Y-77776190D01*
X66978570Y-77800000D01*
X66930951Y-77847619D01*
X66907141Y-77895238D01*
X66883332Y-77990476D01*
X66883332Y-78061904D01*
X66907141Y-78157142D01*
X66930951Y-78204761D01*
X66978570Y-78252380D01*
X67049999Y-78276190D01*
X67097618Y-78276190D01*
X67169046Y-78252380D01*
X67192856Y-78228571D01*
X67192856Y-78061904D01*
X67097618Y-78061904D01*
X67407141Y-78276190D02*
X67407141Y-77776190D01*
X67692856Y-78276190D01*
X67692856Y-77776190D01*
X67930951Y-78276190D02*
X67930951Y-77776190D01*
X68049999Y-77776190D01*
X68121427Y-77800000D01*
X68169046Y-77847619D01*
X68192856Y-77895238D01*
X68216665Y-77990476D01*
X68216665Y-78061904D01*
X68192856Y-78157142D01*
X68169046Y-78204761D01*
X68121427Y-78252380D01*
X68049999Y-78276190D01*
X67930951Y-78276190D01*
D11*
X57135714Y-74671428D02*
X56992857Y-74771428D01*
X57135714Y-74842857D02*
X56835714Y-74842857D01*
X56835714Y-74728571D01*
X56850000Y-74700000D01*
X56864285Y-74685714D01*
X56892857Y-74671428D01*
X56935714Y-74671428D01*
X56964285Y-74685714D01*
X56978571Y-74700000D01*
X56992857Y-74728571D01*
X56992857Y-74842857D01*
X57050000Y-74557142D02*
X57050000Y-74414285D01*
X57135714Y-74585714D02*
X56835714Y-74485714D01*
X57135714Y-74385714D01*
X57135714Y-74285714D02*
X56835714Y-74285714D01*
X56835714Y-74214285D01*
X56850000Y-74171428D01*
X56878571Y-74142857D01*
X56907142Y-74128571D01*
X56964285Y-74114285D01*
X57007142Y-74114285D01*
X57064285Y-74128571D01*
X57092857Y-74142857D01*
X57121428Y-74171428D01*
X57135714Y-74214285D01*
X57135714Y-74285714D01*
X57135714Y-73985714D02*
X56835714Y-73985714D01*
X56835714Y-73785714D02*
X56835714Y-73728571D01*
X56850000Y-73700000D01*
X56878571Y-73671428D01*
X56935714Y-73657142D01*
X57035714Y-73657142D01*
X57092857Y-73671428D01*
X57121428Y-73700000D01*
X57135714Y-73728571D01*
X57135714Y-73785714D01*
X57121428Y-73814285D01*
X57092857Y-73842857D01*
X57035714Y-73857142D01*
X56935714Y-73857142D01*
X56878571Y-73842857D01*
X56850000Y-73814285D01*
X56835714Y-73785714D01*
X57107142Y-73128571D02*
X57121428Y-73142857D01*
X57135714Y-73185714D01*
X57135714Y-73214285D01*
X57121428Y-73257142D01*
X57092857Y-73285714D01*
X57064285Y-73300000D01*
X57007142Y-73314285D01*
X56964285Y-73314285D01*
X56907142Y-73300000D01*
X56878571Y-73285714D01*
X56850000Y-73257142D01*
X56835714Y-73214285D01*
X56835714Y-73185714D01*
X56850000Y-73142857D01*
X56864285Y-73128571D01*
X57121428Y-73014285D02*
X57135714Y-72971428D01*
X57135714Y-72900000D01*
X57121428Y-72871428D01*
X57107142Y-72857142D01*
X57078571Y-72842857D01*
X57050000Y-72842857D01*
X57021428Y-72857142D01*
X57007142Y-72871428D01*
X56992857Y-72900000D01*
X56978571Y-72957142D01*
X56964285Y-72985714D01*
X56950000Y-73000000D01*
X56921428Y-73014285D01*
X56892857Y-73014285D01*
X56864285Y-73000000D01*
X56850000Y-72985714D01*
X56835714Y-72957142D01*
X56835714Y-72885714D01*
X56850000Y-72842857D01*
D12*
X82080000Y-81546190D02*
X81841904Y-81546190D01*
X81841904Y-81046190D01*
X82246666Y-81284285D02*
X82413333Y-81284285D01*
X82484761Y-81546190D02*
X82246666Y-81546190D01*
X82246666Y-81046190D01*
X82484761Y-81046190D01*
X82699047Y-81546190D02*
X82699047Y-81046190D01*
X82818095Y-81046190D01*
X82889523Y-81070000D01*
X82937142Y-81117619D01*
X82960952Y-81165238D01*
X82984761Y-81260476D01*
X82984761Y-81331904D01*
X82960952Y-81427142D01*
X82937142Y-81474761D01*
X82889523Y-81522380D01*
X82818095Y-81546190D01*
X82699047Y-81546190D01*
X83841904Y-81546190D02*
X83556190Y-81546190D01*
X83699047Y-81546190D02*
X83699047Y-81046190D01*
X83651428Y-81117619D01*
X83603809Y-81165238D01*
X83556190Y-81189047D01*
D13*
X34314285Y-55471428D02*
X35076190Y-55471428D01*
X34695238Y-55852380D02*
X34695238Y-55090476D01*
X36028571Y-54852380D02*
X35552380Y-54852380D01*
X35504761Y-55328571D01*
X35552380Y-55280952D01*
X35647619Y-55233333D01*
X35885714Y-55233333D01*
X35980952Y-55280952D01*
X36028571Y-55328571D01*
X36076190Y-55423809D01*
X36076190Y-55661904D01*
X36028571Y-55757142D01*
X35980952Y-55804761D01*
X35885714Y-55852380D01*
X35647619Y-55852380D01*
X35552380Y-55804761D01*
X35504761Y-55757142D01*
X36361904Y-54852380D02*
X36695238Y-55852380D01*
X37028571Y-54852380D01*
D12*
X72376190Y-76630952D02*
X72376190Y-76345238D01*
X72876190Y-76488095D02*
X72376190Y-76488095D01*
X72376190Y-76226190D02*
X72876190Y-75892857D01*
X72376190Y-75892857D02*
X72876190Y-76226190D01*
D13*
X74441666Y-46717380D02*
X74775000Y-47717380D01*
X75108333Y-46717380D01*
X75441666Y-47717380D02*
X75441666Y-46717380D01*
X75679761Y-46717380D01*
X75822619Y-46765000D01*
X75917857Y-46860238D01*
X75965476Y-46955476D01*
X76013095Y-47145952D01*
X76013095Y-47288809D01*
X75965476Y-47479285D01*
X75917857Y-47574523D01*
X75822619Y-47669761D01*
X75679761Y-47717380D01*
X75441666Y-47717380D01*
X76441666Y-47717380D02*
X76441666Y-46717380D01*
X76679761Y-46717380D01*
X76822619Y-46765000D01*
X76917857Y-46860238D01*
X76965476Y-46955476D01*
X77013095Y-47145952D01*
X77013095Y-47288809D01*
X76965476Y-47479285D01*
X76917857Y-47574523D01*
X76822619Y-47669761D01*
X76679761Y-47717380D01*
X76441666Y-47717380D01*
X74132142Y-48327380D02*
X74465476Y-49327380D01*
X74798809Y-48327380D01*
X75465476Y-48803571D02*
X75608333Y-48851190D01*
X75655952Y-48898809D01*
X75703571Y-48994047D01*
X75703571Y-49136904D01*
X75655952Y-49232142D01*
X75608333Y-49279761D01*
X75513095Y-49327380D01*
X75132142Y-49327380D01*
X75132142Y-48327380D01*
X75465476Y-48327380D01*
X75560714Y-48375000D01*
X75608333Y-48422619D01*
X75655952Y-48517857D01*
X75655952Y-48613095D01*
X75608333Y-48708333D01*
X75560714Y-48755952D01*
X75465476Y-48803571D01*
X75132142Y-48803571D01*
X76084523Y-49041666D02*
X76560714Y-49041666D01*
X75989285Y-49327380D02*
X76322619Y-48327380D01*
X76655952Y-49327380D01*
X76846428Y-48327380D02*
X77417857Y-48327380D01*
X77132142Y-49327380D02*
X77132142Y-48327380D01*
X74441666Y-49937380D02*
X74775000Y-50937380D01*
X75108333Y-49937380D01*
X76013095Y-50842142D02*
X75965476Y-50889761D01*
X75822619Y-50937380D01*
X75727380Y-50937380D01*
X75584523Y-50889761D01*
X75489285Y-50794523D01*
X75441666Y-50699285D01*
X75394047Y-50508809D01*
X75394047Y-50365952D01*
X75441666Y-50175476D01*
X75489285Y-50080238D01*
X75584523Y-49985000D01*
X75727380Y-49937380D01*
X75822619Y-49937380D01*
X75965476Y-49985000D01*
X76013095Y-50032619D01*
X77013095Y-50842142D02*
X76965476Y-50889761D01*
X76822619Y-50937380D01*
X76727380Y-50937380D01*
X76584523Y-50889761D01*
X76489285Y-50794523D01*
X76441666Y-50699285D01*
X76394047Y-50508809D01*
X76394047Y-50365952D01*
X76441666Y-50175476D01*
X76489285Y-50080238D01*
X76584523Y-49985000D01*
X76727380Y-49937380D01*
X76822619Y-49937380D01*
X76965476Y-49985000D01*
X77013095Y-50032619D01*
D12*
X71852380Y-74357142D02*
X71876190Y-74285714D01*
X71876190Y-74166666D01*
X71852380Y-74119047D01*
X71828571Y-74095238D01*
X71780952Y-74071428D01*
X71733333Y-74071428D01*
X71685714Y-74095238D01*
X71661904Y-74119047D01*
X71638095Y-74166666D01*
X71614285Y-74261904D01*
X71590476Y-74309523D01*
X71566666Y-74333333D01*
X71519047Y-74357142D01*
X71471428Y-74357142D01*
X71423809Y-74333333D01*
X71400000Y-74309523D01*
X71376190Y-74261904D01*
X71376190Y-74142857D01*
X71400000Y-74071428D01*
X71876190Y-73857142D02*
X71376190Y-73857142D01*
X71376190Y-73738095D01*
X71400000Y-73666666D01*
X71447619Y-73619047D01*
X71495238Y-73595238D01*
X71590476Y-73571428D01*
X71661904Y-73571428D01*
X71757142Y-73595238D01*
X71804761Y-73619047D01*
X71852380Y-73666666D01*
X71876190Y-73738095D01*
X71876190Y-73857142D01*
X71733333Y-73380952D02*
X71733333Y-73142857D01*
X71876190Y-73428571D02*
X71376190Y-73261904D01*
X71876190Y-73095238D01*
D11*
X56978571Y-77257142D02*
X56978571Y-77157142D01*
X57135714Y-77114285D02*
X57135714Y-77257142D01*
X56835714Y-77257142D01*
X56835714Y-77114285D01*
X56835714Y-77014285D02*
X57135714Y-76814285D01*
X56835714Y-76814285D02*
X57135714Y-77014285D01*
X56835714Y-76742857D02*
X56835714Y-76571428D01*
X57135714Y-76657142D02*
X56835714Y-76657142D01*
X57135714Y-76242857D02*
X56835714Y-76242857D01*
X56835714Y-76042857D02*
X56835714Y-75985714D01*
X56850000Y-75957142D01*
X56878571Y-75928571D01*
X56935714Y-75914285D01*
X57035714Y-75914285D01*
X57092857Y-75928571D01*
X57121428Y-75957142D01*
X57135714Y-75985714D01*
X57135714Y-76042857D01*
X57121428Y-76071428D01*
X57092857Y-76100000D01*
X57035714Y-76114285D01*
X56935714Y-76114285D01*
X56878571Y-76100000D01*
X56850000Y-76071428D01*
X56835714Y-76042857D01*
X56935714Y-75657142D02*
X57135714Y-75657142D01*
X56821428Y-75728571D02*
X57035714Y-75800000D01*
X57035714Y-75614285D01*
X70792857Y-77250000D02*
X70811904Y-77269047D01*
X70830952Y-77326190D01*
X70830952Y-77364285D01*
X70811904Y-77421428D01*
X70773809Y-77459523D01*
X70735714Y-77478571D01*
X70659523Y-77497619D01*
X70602380Y-77497619D01*
X70526190Y-77478571D01*
X70488095Y-77459523D01*
X70450000Y-77421428D01*
X70430952Y-77364285D01*
X70430952Y-77326190D01*
X70450000Y-77269047D01*
X70469047Y-77250000D01*
X70716666Y-77097619D02*
X70716666Y-76907142D01*
X70830952Y-77135714D02*
X70430952Y-77002380D01*
X70830952Y-76869047D01*
X70830952Y-76735714D02*
X70430952Y-76735714D01*
X70830952Y-76507142D01*
X70430952Y-76507142D01*
X70830952Y-75783333D02*
X70640476Y-75916666D01*
X70830952Y-76011904D02*
X70430952Y-76011904D01*
X70430952Y-75859523D01*
X70450000Y-75821428D01*
X70469047Y-75802380D01*
X70507142Y-75783333D01*
X70564285Y-75783333D01*
X70602380Y-75802380D01*
X70621428Y-75821428D01*
X70640476Y-75859523D01*
X70640476Y-76011904D01*
X70430952Y-75650000D02*
X70830952Y-75383333D01*
X70430952Y-75383333D02*
X70830952Y-75650000D01*
D12*
X82090000Y-80156190D02*
X81851904Y-80156190D01*
X81851904Y-79656190D01*
X82256666Y-79894285D02*
X82423333Y-79894285D01*
X82494761Y-80156190D02*
X82256666Y-80156190D01*
X82256666Y-79656190D01*
X82494761Y-79656190D01*
X82709047Y-80156190D02*
X82709047Y-79656190D01*
X82828095Y-79656190D01*
X82899523Y-79680000D01*
X82947142Y-79727619D01*
X82970952Y-79775238D01*
X82994761Y-79870476D01*
X82994761Y-79941904D01*
X82970952Y-80037142D01*
X82947142Y-80084761D01*
X82899523Y-80132380D01*
X82828095Y-80156190D01*
X82709047Y-80156190D01*
X83542380Y-79656190D02*
X83851904Y-79656190D01*
X83685238Y-79846666D01*
X83756666Y-79846666D01*
X83804285Y-79870476D01*
X83828095Y-79894285D01*
X83851904Y-79941904D01*
X83851904Y-80060952D01*
X83828095Y-80108571D01*
X83804285Y-80132380D01*
X83756666Y-80156190D01*
X83613809Y-80156190D01*
X83566190Y-80132380D01*
X83542380Y-80108571D01*
X72876190Y-74500000D02*
X72876190Y-74738095D01*
X72376190Y-74738095D01*
X72614285Y-74333333D02*
X72614285Y-74166666D01*
X72876190Y-74095238D02*
X72876190Y-74333333D01*
X72376190Y-74333333D01*
X72376190Y-74095238D01*
X72876190Y-73880952D02*
X72376190Y-73880952D01*
X72376190Y-73761904D01*
X72400000Y-73690476D01*
X72447619Y-73642857D01*
X72495238Y-73619047D01*
X72590476Y-73595238D01*
X72661904Y-73595238D01*
X72757142Y-73619047D01*
X72804761Y-73642857D01*
X72852380Y-73690476D01*
X72876190Y-73761904D01*
X72876190Y-73880952D01*
X72376190Y-73047619D02*
X72376190Y-72738095D01*
X72566666Y-72904761D01*
X72566666Y-72833333D01*
X72590476Y-72785714D01*
X72614285Y-72761904D01*
X72661904Y-72738095D01*
X72780952Y-72738095D01*
X72828571Y-72761904D01*
X72852380Y-72785714D01*
X72876190Y-72833333D01*
X72876190Y-72976190D01*
X72852380Y-73023809D01*
X72828571Y-73047619D01*
X74876190Y-76621428D02*
X74876190Y-76859523D01*
X75114285Y-76883333D01*
X75090476Y-76859523D01*
X75066666Y-76811904D01*
X75066666Y-76692857D01*
X75090476Y-76645238D01*
X75114285Y-76621428D01*
X75161904Y-76597619D01*
X75280952Y-76597619D01*
X75328571Y-76621428D01*
X75352380Y-76645238D01*
X75376190Y-76692857D01*
X75376190Y-76811904D01*
X75352380Y-76859523D01*
X75328571Y-76883333D01*
X75042857Y-76430952D02*
X75376190Y-76311904D01*
X75042857Y-76192857D01*
D13*
X83854761Y-59546428D02*
X84350000Y-59546428D01*
X84102380Y-59794047D02*
X84102380Y-59298809D01*
X85000000Y-59794047D02*
X84628571Y-59794047D01*
X84814285Y-59794047D02*
X84814285Y-59144047D01*
X84752380Y-59236904D01*
X84690476Y-59298809D01*
X84628571Y-59329761D01*
X85185714Y-59144047D02*
X85402380Y-59794047D01*
X85619047Y-59144047D01*
X85928571Y-59422619D02*
X85866666Y-59391666D01*
X85835714Y-59360714D01*
X85804761Y-59298809D01*
X85804761Y-59267857D01*
X85835714Y-59205952D01*
X85866666Y-59175000D01*
X85928571Y-59144047D01*
X86052380Y-59144047D01*
X86114285Y-59175000D01*
X86145238Y-59205952D01*
X86176190Y-59267857D01*
X86176190Y-59298809D01*
X86145238Y-59360714D01*
X86114285Y-59391666D01*
X86052380Y-59422619D01*
X85928571Y-59422619D01*
X85866666Y-59453571D01*
X85835714Y-59484523D01*
X85804761Y-59546428D01*
X85804761Y-59670238D01*
X85835714Y-59732142D01*
X85866666Y-59763095D01*
X85928571Y-59794047D01*
X86052380Y-59794047D01*
X86114285Y-59763095D01*
X86145238Y-59732142D01*
X86176190Y-59670238D01*
X86176190Y-59546428D01*
X86145238Y-59484523D01*
X86114285Y-59453571D01*
X86052380Y-59422619D01*
D12*
X73876190Y-74500000D02*
X73876190Y-74738095D01*
X73376190Y-74738095D01*
X73614285Y-74333333D02*
X73614285Y-74166666D01*
X73876190Y-74095238D02*
X73876190Y-74333333D01*
X73376190Y-74333333D01*
X73376190Y-74095238D01*
X73876190Y-73880952D02*
X73376190Y-73880952D01*
X73376190Y-73761904D01*
X73400000Y-73690476D01*
X73447619Y-73642857D01*
X73495238Y-73619047D01*
X73590476Y-73595238D01*
X73661904Y-73595238D01*
X73757142Y-73619047D01*
X73804761Y-73642857D01*
X73852380Y-73690476D01*
X73876190Y-73761904D01*
X73876190Y-73880952D01*
X73423809Y-73023809D02*
X73400000Y-73000000D01*
X73376190Y-72952380D01*
X73376190Y-72833333D01*
X73400000Y-72785714D01*
X73423809Y-72761904D01*
X73471428Y-72738095D01*
X73519047Y-72738095D01*
X73590476Y-72761904D01*
X73876190Y-73047619D01*
X73876190Y-72738095D01*
X82090000Y-80866190D02*
X81851904Y-80866190D01*
X81851904Y-80366190D01*
X82256666Y-80604285D02*
X82423333Y-80604285D01*
X82494761Y-80866190D02*
X82256666Y-80866190D01*
X82256666Y-80366190D01*
X82494761Y-80366190D01*
X82709047Y-80866190D02*
X82709047Y-80366190D01*
X82828095Y-80366190D01*
X82899523Y-80390000D01*
X82947142Y-80437619D01*
X82970952Y-80485238D01*
X82994761Y-80580476D01*
X82994761Y-80651904D01*
X82970952Y-80747142D01*
X82947142Y-80794761D01*
X82899523Y-80842380D01*
X82828095Y-80866190D01*
X82709047Y-80866190D01*
X83566190Y-80413809D02*
X83590000Y-80390000D01*
X83637619Y-80366190D01*
X83756666Y-80366190D01*
X83804285Y-80390000D01*
X83828095Y-80413809D01*
X83851904Y-80461428D01*
X83851904Y-80509047D01*
X83828095Y-80580476D01*
X83542380Y-80866190D01*
X83851904Y-80866190D01*
X70852380Y-74345238D02*
X70876190Y-74273809D01*
X70876190Y-74154761D01*
X70852380Y-74107142D01*
X70828571Y-74083333D01*
X70780952Y-74059523D01*
X70733333Y-74059523D01*
X70685714Y-74083333D01*
X70661904Y-74107142D01*
X70638095Y-74154761D01*
X70614285Y-74250000D01*
X70590476Y-74297619D01*
X70566666Y-74321428D01*
X70519047Y-74345238D01*
X70471428Y-74345238D01*
X70423809Y-74321428D01*
X70400000Y-74297619D01*
X70376190Y-74250000D01*
X70376190Y-74130952D01*
X70400000Y-74059523D01*
X70828571Y-73559523D02*
X70852380Y-73583333D01*
X70876190Y-73654761D01*
X70876190Y-73702380D01*
X70852380Y-73773809D01*
X70804761Y-73821428D01*
X70757142Y-73845238D01*
X70661904Y-73869047D01*
X70590476Y-73869047D01*
X70495238Y-73845238D01*
X70447619Y-73821428D01*
X70400000Y-73773809D01*
X70376190Y-73702380D01*
X70376190Y-73654761D01*
X70400000Y-73583333D01*
X70423809Y-73559523D01*
X70876190Y-73107142D02*
X70876190Y-73345238D01*
X70376190Y-73345238D01*
D11*
X55978571Y-77257142D02*
X55978571Y-77157142D01*
X56135714Y-77114285D02*
X56135714Y-77257142D01*
X55835714Y-77257142D01*
X55835714Y-77114285D01*
X55835714Y-77014285D02*
X56135714Y-76814285D01*
X55835714Y-76814285D02*
X56135714Y-77014285D01*
X55835714Y-76742857D02*
X55835714Y-76571428D01*
X56135714Y-76657142D02*
X55835714Y-76657142D01*
X56135714Y-76242857D02*
X55835714Y-76242857D01*
X55835714Y-76042857D02*
X55835714Y-75985714D01*
X55850000Y-75957142D01*
X55878571Y-75928571D01*
X55935714Y-75914285D01*
X56035714Y-75914285D01*
X56092857Y-75928571D01*
X56121428Y-75957142D01*
X56135714Y-75985714D01*
X56135714Y-76042857D01*
X56121428Y-76071428D01*
X56092857Y-76100000D01*
X56035714Y-76114285D01*
X55935714Y-76114285D01*
X55878571Y-76100000D01*
X55850000Y-76071428D01*
X55835714Y-76042857D01*
X55835714Y-75814285D02*
X55835714Y-75628571D01*
X55950000Y-75728571D01*
X55950000Y-75685714D01*
X55964285Y-75657142D01*
X55978571Y-75642857D01*
X56007142Y-75628571D01*
X56078571Y-75628571D01*
X56107142Y-75642857D01*
X56121428Y-75657142D01*
X56135714Y-75685714D01*
X56135714Y-75771428D01*
X56121428Y-75800000D01*
X56107142Y-75814285D01*
D13*
X38238095Y-54900000D02*
X38142857Y-54852380D01*
X38000000Y-54852380D01*
X37857142Y-54900000D01*
X37761904Y-54995238D01*
X37714285Y-55090476D01*
X37666666Y-55280952D01*
X37666666Y-55423809D01*
X37714285Y-55614285D01*
X37761904Y-55709523D01*
X37857142Y-55804761D01*
X38000000Y-55852380D01*
X38095238Y-55852380D01*
X38238095Y-55804761D01*
X38285714Y-55757142D01*
X38285714Y-55423809D01*
X38095238Y-55423809D01*
X38714285Y-55852380D02*
X38714285Y-54852380D01*
X39285714Y-55852380D01*
X39285714Y-54852380D01*
X39761904Y-55852380D02*
X39761904Y-54852380D01*
X40000000Y-54852380D01*
X40142857Y-54900000D01*
X40238095Y-54995238D01*
X40285714Y-55090476D01*
X40333333Y-55280952D01*
X40333333Y-55423809D01*
X40285714Y-55614285D01*
X40238095Y-55709523D01*
X40142857Y-55804761D01*
X40000000Y-55852380D01*
X39761904Y-55852380D01*
D12*
X75376190Y-74345238D02*
X75376190Y-74035714D01*
X75566666Y-74202380D01*
X75566666Y-74130952D01*
X75590476Y-74083333D01*
X75614285Y-74059523D01*
X75661904Y-74035714D01*
X75780952Y-74035714D01*
X75828571Y-74059523D01*
X75852380Y-74083333D01*
X75876190Y-74130952D01*
X75876190Y-74273809D01*
X75852380Y-74321428D01*
X75828571Y-74345238D01*
X75542857Y-73869047D02*
X75876190Y-73750000D01*
X75542857Y-73630952D01*
X75376190Y-73488095D02*
X75376190Y-73178571D01*
X75566666Y-73345238D01*
X75566666Y-73273809D01*
X75590476Y-73226190D01*
X75614285Y-73202380D01*
X75661904Y-73178571D01*
X75780952Y-73178571D01*
X75828571Y-73202380D01*
X75852380Y-73226190D01*
X75876190Y-73273809D01*
X75876190Y-73416666D01*
X75852380Y-73464285D01*
X75828571Y-73488095D01*
X74876190Y-74500000D02*
X74876190Y-74738095D01*
X74376190Y-74738095D01*
X74614285Y-74333333D02*
X74614285Y-74166666D01*
X74876190Y-74095238D02*
X74876190Y-74333333D01*
X74376190Y-74333333D01*
X74376190Y-74095238D01*
X74876190Y-73880952D02*
X74376190Y-73880952D01*
X74376190Y-73761904D01*
X74400000Y-73690476D01*
X74447619Y-73642857D01*
X74495238Y-73619047D01*
X74590476Y-73595238D01*
X74661904Y-73595238D01*
X74757142Y-73619047D01*
X74804761Y-73642857D01*
X74852380Y-73690476D01*
X74876190Y-73761904D01*
X74876190Y-73880952D01*
X74876190Y-72738095D02*
X74876190Y-73023809D01*
X74876190Y-72880952D02*
X74376190Y-72880952D01*
X74447619Y-72928571D01*
X74495238Y-72976190D01*
X74519047Y-73023809D01*
D13*
X50107142Y-56357142D02*
X50059523Y-56404761D01*
X49916666Y-56452380D01*
X49821428Y-56452380D01*
X49678571Y-56404761D01*
X49583333Y-56309523D01*
X49535714Y-56214285D01*
X49488095Y-56023809D01*
X49488095Y-55880952D01*
X49535714Y-55690476D01*
X49583333Y-55595238D01*
X49678571Y-55500000D01*
X49821428Y-55452380D01*
X49916666Y-55452380D01*
X50059523Y-55500000D01*
X50107142Y-55547619D01*
X50488095Y-56166666D02*
X50964285Y-56166666D01*
X50392857Y-56452380D02*
X50726190Y-55452380D01*
X51059523Y-56452380D01*
X51392857Y-56452380D02*
X51392857Y-55452380D01*
X51964285Y-56452380D01*
X51964285Y-55452380D01*
D12*
X98023809Y-87976190D02*
X97857142Y-87738095D01*
X97738095Y-87976190D02*
X97738095Y-87476190D01*
X97928571Y-87476190D01*
X97976190Y-87500000D01*
X98000000Y-87523809D01*
X98023809Y-87571428D01*
X98023809Y-87642857D01*
X98000000Y-87690476D01*
X97976190Y-87714285D01*
X97928571Y-87738095D01*
X97738095Y-87738095D01*
X98238095Y-87976190D02*
X98238095Y-87476190D01*
X98428571Y-87476190D01*
X98476190Y-87500000D01*
X98500000Y-87523809D01*
X98523809Y-87571428D01*
X98523809Y-87642857D01*
X98500000Y-87690476D01*
X98476190Y-87714285D01*
X98428571Y-87738095D01*
X98238095Y-87738095D01*
X98714285Y-87523809D02*
X98738095Y-87500000D01*
X98785714Y-87476190D01*
X98904761Y-87476190D01*
X98952380Y-87500000D01*
X98976190Y-87523809D01*
X99000000Y-87571428D01*
X99000000Y-87619047D01*
X98976190Y-87690476D01*
X98690476Y-87976190D01*
X99000000Y-87976190D01*
X99309523Y-87476190D02*
X99357142Y-87476190D01*
X99404761Y-87500000D01*
X99428571Y-87523809D01*
X99452380Y-87571428D01*
X99476190Y-87666666D01*
X99476190Y-87785714D01*
X99452380Y-87880952D01*
X99428571Y-87928571D01*
X99404761Y-87952380D01*
X99357142Y-87976190D01*
X99309523Y-87976190D01*
X99261904Y-87952380D01*
X99238095Y-87928571D01*
X99214285Y-87880952D01*
X99190476Y-87785714D01*
X99190476Y-87666666D01*
X99214285Y-87571428D01*
X99238095Y-87523809D01*
X99261904Y-87500000D01*
X99309523Y-87476190D01*
X99904761Y-87642857D02*
X99904761Y-87976190D01*
X99785714Y-87452380D02*
X99666666Y-87809523D01*
X99976190Y-87809523D01*
X100261904Y-87476190D02*
X100309523Y-87476190D01*
X100357142Y-87500000D01*
X100380952Y-87523809D01*
X100404761Y-87571428D01*
X100428571Y-87666666D01*
X100428571Y-87785714D01*
X100404761Y-87880952D01*
X100380952Y-87928571D01*
X100357142Y-87952380D01*
X100309523Y-87976190D01*
X100261904Y-87976190D01*
X100214285Y-87952380D01*
X100190476Y-87928571D01*
X100166666Y-87880952D01*
X100142857Y-87785714D01*
X100142857Y-87666666D01*
X100166666Y-87571428D01*
X100190476Y-87523809D01*
X100214285Y-87500000D01*
X100261904Y-87476190D01*
X101023809Y-87976190D02*
X101023809Y-87476190D01*
X101142857Y-87476190D01*
X101214285Y-87500000D01*
X101261904Y-87547619D01*
X101285714Y-87595238D01*
X101309523Y-87690476D01*
X101309523Y-87761904D01*
X101285714Y-87857142D01*
X101261904Y-87904761D01*
X101214285Y-87952380D01*
X101142857Y-87976190D01*
X101023809Y-87976190D01*
X101523809Y-87714285D02*
X101690476Y-87714285D01*
X101761904Y-87976190D02*
X101523809Y-87976190D01*
X101523809Y-87476190D01*
X101761904Y-87476190D01*
X102142857Y-87714285D02*
X102214285Y-87738095D01*
X102238095Y-87761904D01*
X102261904Y-87809523D01*
X102261904Y-87880952D01*
X102238095Y-87928571D01*
X102214285Y-87952380D01*
X102166666Y-87976190D01*
X101976190Y-87976190D01*
X101976190Y-87476190D01*
X102142857Y-87476190D01*
X102190476Y-87500000D01*
X102214285Y-87523809D01*
X102238095Y-87571428D01*
X102238095Y-87619047D01*
X102214285Y-87666666D01*
X102190476Y-87690476D01*
X102142857Y-87714285D01*
X101976190Y-87714285D01*
X102476190Y-87476190D02*
X102476190Y-87880952D01*
X102500000Y-87928571D01*
X102523809Y-87952380D01*
X102571428Y-87976190D01*
X102666666Y-87976190D01*
X102714285Y-87952380D01*
X102738095Y-87928571D01*
X102761904Y-87880952D01*
X102761904Y-87476190D01*
X103261904Y-87500000D02*
X103214285Y-87476190D01*
X103142857Y-87476190D01*
X103071428Y-87500000D01*
X103023809Y-87547619D01*
X103000000Y-87595238D01*
X102976190Y-87690476D01*
X102976190Y-87761904D01*
X103000000Y-87857142D01*
X103023809Y-87904761D01*
X103071428Y-87952380D01*
X103142857Y-87976190D01*
X103190476Y-87976190D01*
X103261904Y-87952380D01*
X103285714Y-87928571D01*
X103285714Y-87761904D01*
X103190476Y-87761904D01*
D11*
X61135714Y-74557142D02*
X60835714Y-74557142D01*
X61050000Y-74457142D01*
X60835714Y-74357142D01*
X61135714Y-74357142D01*
X61107142Y-74042857D02*
X61121428Y-74057142D01*
X61135714Y-74100000D01*
X61135714Y-74128571D01*
X61121428Y-74171428D01*
X61092857Y-74200000D01*
X61064285Y-74214285D01*
X61007142Y-74228571D01*
X60964285Y-74228571D01*
X60907142Y-74214285D01*
X60878571Y-74200000D01*
X60850000Y-74171428D01*
X60835714Y-74128571D01*
X60835714Y-74100000D01*
X60850000Y-74057142D01*
X60864285Y-74042857D01*
X61135714Y-73914285D02*
X60835714Y-73914285D01*
X60835714Y-73800000D01*
X60850000Y-73771428D01*
X60864285Y-73757142D01*
X60892857Y-73742857D01*
X60935714Y-73742857D01*
X60964285Y-73757142D01*
X60978571Y-73771428D01*
X60992857Y-73800000D01*
X60992857Y-73914285D01*
X61107142Y-73214285D02*
X61121428Y-73228571D01*
X61135714Y-73271428D01*
X61135714Y-73300000D01*
X61121428Y-73342857D01*
X61092857Y-73371428D01*
X61064285Y-73385714D01*
X61007142Y-73400000D01*
X60964285Y-73400000D01*
X60907142Y-73385714D01*
X60878571Y-73371428D01*
X60850000Y-73342857D01*
X60835714Y-73300000D01*
X60835714Y-73271428D01*
X60850000Y-73228571D01*
X60864285Y-73214285D01*
X61121428Y-73100000D02*
X61135714Y-73057142D01*
X61135714Y-72985714D01*
X61121428Y-72957142D01*
X61107142Y-72942857D01*
X61078571Y-72928571D01*
X61050000Y-72928571D01*
X61021428Y-72942857D01*
X61007142Y-72957142D01*
X60992857Y-72985714D01*
X60978571Y-73042857D01*
X60964285Y-73071428D01*
X60950000Y-73085714D01*
X60921428Y-73100000D01*
X60892857Y-73100000D01*
X60864285Y-73085714D01*
X60850000Y-73071428D01*
X60835714Y-73042857D01*
X60835714Y-72971428D01*
X60850000Y-72928571D01*
D12*
%TO.C,R10*%
X29373295Y-72636190D02*
X29206628Y-72398095D01*
X29087581Y-72636190D02*
X29087581Y-72136190D01*
X29278057Y-72136190D01*
X29325676Y-72160000D01*
X29349485Y-72183809D01*
X29373295Y-72231428D01*
X29373295Y-72302857D01*
X29349485Y-72350476D01*
X29325676Y-72374285D01*
X29278057Y-72398095D01*
X29087581Y-72398095D01*
X29849485Y-72636190D02*
X29563771Y-72636190D01*
X29706628Y-72636190D02*
X29706628Y-72136190D01*
X29659009Y-72207619D01*
X29611390Y-72255238D01*
X29563771Y-72279047D01*
X30159009Y-72136190D02*
X30206628Y-72136190D01*
X30254247Y-72160000D01*
X30278057Y-72183809D01*
X30301866Y-72231428D01*
X30325676Y-72326666D01*
X30325676Y-72445714D01*
X30301866Y-72540952D01*
X30278057Y-72588571D01*
X30254247Y-72612380D01*
X30206628Y-72636190D01*
X30159009Y-72636190D01*
X30111390Y-72612380D01*
X30087581Y-72588571D01*
X30063771Y-72540952D01*
X30039962Y-72445714D01*
X30039962Y-72326666D01*
X30063771Y-72231428D01*
X30087581Y-72183809D01*
X30111390Y-72160000D01*
X30159009Y-72136190D01*
D13*
%TO.C,U8*%
X68102380Y-57361904D02*
X68911904Y-57361904D01*
X69007142Y-57314285D01*
X69054761Y-57266666D01*
X69102380Y-57171428D01*
X69102380Y-56980952D01*
X69054761Y-56885714D01*
X69007142Y-56838095D01*
X68911904Y-56790476D01*
X68102380Y-56790476D01*
X68530952Y-56171428D02*
X68483333Y-56266666D01*
X68435714Y-56314285D01*
X68340476Y-56361904D01*
X68292857Y-56361904D01*
X68197619Y-56314285D01*
X68150000Y-56266666D01*
X68102380Y-56171428D01*
X68102380Y-55980952D01*
X68150000Y-55885714D01*
X68197619Y-55838095D01*
X68292857Y-55790476D01*
X68340476Y-55790476D01*
X68435714Y-55838095D01*
X68483333Y-55885714D01*
X68530952Y-55980952D01*
X68530952Y-56171428D01*
X68578571Y-56266666D01*
X68626190Y-56314285D01*
X68721428Y-56361904D01*
X68911904Y-56361904D01*
X69007142Y-56314285D01*
X69054761Y-56266666D01*
X69102380Y-56171428D01*
X69102380Y-55980952D01*
X69054761Y-55885714D01*
X69007142Y-55838095D01*
X68911904Y-55790476D01*
X68721428Y-55790476D01*
X68626190Y-55838095D01*
X68578571Y-55885714D01*
X68530952Y-55980952D01*
%TO.C,U5*%
X56452380Y-59481904D02*
X57261904Y-59481904D01*
X57357142Y-59434285D01*
X57404761Y-59386666D01*
X57452380Y-59291428D01*
X57452380Y-59100952D01*
X57404761Y-59005714D01*
X57357142Y-58958095D01*
X57261904Y-58910476D01*
X56452380Y-58910476D01*
X56452380Y-57958095D02*
X56452380Y-58434285D01*
X56928571Y-58481904D01*
X56880952Y-58434285D01*
X56833333Y-58339047D01*
X56833333Y-58100952D01*
X56880952Y-58005714D01*
X56928571Y-57958095D01*
X57023809Y-57910476D01*
X57261904Y-57910476D01*
X57357142Y-57958095D01*
X57404761Y-58005714D01*
X57452380Y-58100952D01*
X57452380Y-58339047D01*
X57404761Y-58434285D01*
X57357142Y-58481904D01*
D12*
%TO.C,C36*%
X42548571Y-67378571D02*
X42524761Y-67402380D01*
X42453333Y-67426190D01*
X42405714Y-67426190D01*
X42334285Y-67402380D01*
X42286666Y-67354761D01*
X42262857Y-67307142D01*
X42239047Y-67211904D01*
X42239047Y-67140476D01*
X42262857Y-67045238D01*
X42286666Y-66997619D01*
X42334285Y-66950000D01*
X42405714Y-66926190D01*
X42453333Y-66926190D01*
X42524761Y-66950000D01*
X42548571Y-66973809D01*
X42715238Y-66926190D02*
X43024761Y-66926190D01*
X42858095Y-67116666D01*
X42929523Y-67116666D01*
X42977142Y-67140476D01*
X43000952Y-67164285D01*
X43024761Y-67211904D01*
X43024761Y-67330952D01*
X43000952Y-67378571D01*
X42977142Y-67402380D01*
X42929523Y-67426190D01*
X42786666Y-67426190D01*
X42739047Y-67402380D01*
X42715238Y-67378571D01*
X43453333Y-66926190D02*
X43358095Y-66926190D01*
X43310476Y-66950000D01*
X43286666Y-66973809D01*
X43239047Y-67045238D01*
X43215238Y-67140476D01*
X43215238Y-67330952D01*
X43239047Y-67378571D01*
X43262857Y-67402380D01*
X43310476Y-67426190D01*
X43405714Y-67426190D01*
X43453333Y-67402380D01*
X43477142Y-67378571D01*
X43500952Y-67330952D01*
X43500952Y-67211904D01*
X43477142Y-67164285D01*
X43453333Y-67140476D01*
X43405714Y-67116666D01*
X43310476Y-67116666D01*
X43262857Y-67140476D01*
X43239047Y-67164285D01*
X43215238Y-67211904D01*
D13*
%TO.C,L2*%
X35808333Y-66127380D02*
X35332142Y-66127380D01*
X35332142Y-65127380D01*
X36094047Y-65222619D02*
X36141666Y-65175000D01*
X36236904Y-65127380D01*
X36475000Y-65127380D01*
X36570238Y-65175000D01*
X36617857Y-65222619D01*
X36665476Y-65317857D01*
X36665476Y-65413095D01*
X36617857Y-65555952D01*
X36046428Y-66127380D01*
X36665476Y-66127380D01*
%TO.C,C33*%
X39612142Y-83309642D02*
X39564523Y-83357261D01*
X39421666Y-83404880D01*
X39326428Y-83404880D01*
X39183571Y-83357261D01*
X39088333Y-83262023D01*
X39040714Y-83166785D01*
X38993095Y-82976309D01*
X38993095Y-82833452D01*
X39040714Y-82642976D01*
X39088333Y-82547738D01*
X39183571Y-82452500D01*
X39326428Y-82404880D01*
X39421666Y-82404880D01*
X39564523Y-82452500D01*
X39612142Y-82500119D01*
X39945476Y-82404880D02*
X40564523Y-82404880D01*
X40231190Y-82785833D01*
X40374047Y-82785833D01*
X40469285Y-82833452D01*
X40516904Y-82881071D01*
X40564523Y-82976309D01*
X40564523Y-83214404D01*
X40516904Y-83309642D01*
X40469285Y-83357261D01*
X40374047Y-83404880D01*
X40088333Y-83404880D01*
X39993095Y-83357261D01*
X39945476Y-83309642D01*
X40897857Y-82404880D02*
X41516904Y-82404880D01*
X41183571Y-82785833D01*
X41326428Y-82785833D01*
X41421666Y-82833452D01*
X41469285Y-82881071D01*
X41516904Y-82976309D01*
X41516904Y-83214404D01*
X41469285Y-83309642D01*
X41421666Y-83357261D01*
X41326428Y-83404880D01*
X41040714Y-83404880D01*
X40945476Y-83357261D01*
X40897857Y-83309642D01*
%TO.C,U6*%
X25248095Y-82682380D02*
X25248095Y-83491904D01*
X25295714Y-83587142D01*
X25343333Y-83634761D01*
X25438571Y-83682380D01*
X25629047Y-83682380D01*
X25724285Y-83634761D01*
X25771904Y-83587142D01*
X25819523Y-83491904D01*
X25819523Y-82682380D01*
X26724285Y-82682380D02*
X26533809Y-82682380D01*
X26438571Y-82730000D01*
X26390952Y-82777619D01*
X26295714Y-82920476D01*
X26248095Y-83110952D01*
X26248095Y-83491904D01*
X26295714Y-83587142D01*
X26343333Y-83634761D01*
X26438571Y-83682380D01*
X26629047Y-83682380D01*
X26724285Y-83634761D01*
X26771904Y-83587142D01*
X26819523Y-83491904D01*
X26819523Y-83253809D01*
X26771904Y-83158571D01*
X26724285Y-83110952D01*
X26629047Y-83063333D01*
X26438571Y-83063333D01*
X26343333Y-83110952D01*
X26295714Y-83158571D01*
X26248095Y-83253809D01*
D12*
%TO.C,C15*%
X83278571Y-73091428D02*
X83302380Y-73115238D01*
X83326190Y-73186666D01*
X83326190Y-73234285D01*
X83302380Y-73305714D01*
X83254761Y-73353333D01*
X83207142Y-73377142D01*
X83111904Y-73400952D01*
X83040476Y-73400952D01*
X82945238Y-73377142D01*
X82897619Y-73353333D01*
X82850000Y-73305714D01*
X82826190Y-73234285D01*
X82826190Y-73186666D01*
X82850000Y-73115238D01*
X82873809Y-73091428D01*
X83326190Y-72615238D02*
X83326190Y-72900952D01*
X83326190Y-72758095D02*
X82826190Y-72758095D01*
X82897619Y-72805714D01*
X82945238Y-72853333D01*
X82969047Y-72900952D01*
X82826190Y-72162857D02*
X82826190Y-72400952D01*
X83064285Y-72424761D01*
X83040476Y-72400952D01*
X83016666Y-72353333D01*
X83016666Y-72234285D01*
X83040476Y-72186666D01*
X83064285Y-72162857D01*
X83111904Y-72139047D01*
X83230952Y-72139047D01*
X83278571Y-72162857D01*
X83302380Y-72186666D01*
X83326190Y-72234285D01*
X83326190Y-72353333D01*
X83302380Y-72400952D01*
X83278571Y-72424761D01*
%TO.C,C42*%
X42628571Y-62918571D02*
X42604761Y-62942380D01*
X42533333Y-62966190D01*
X42485714Y-62966190D01*
X42414285Y-62942380D01*
X42366666Y-62894761D01*
X42342857Y-62847142D01*
X42319047Y-62751904D01*
X42319047Y-62680476D01*
X42342857Y-62585238D01*
X42366666Y-62537619D01*
X42414285Y-62490000D01*
X42485714Y-62466190D01*
X42533333Y-62466190D01*
X42604761Y-62490000D01*
X42628571Y-62513809D01*
X43057142Y-62632857D02*
X43057142Y-62966190D01*
X42938095Y-62442380D02*
X42819047Y-62799523D01*
X43128571Y-62799523D01*
X43295238Y-62513809D02*
X43319047Y-62490000D01*
X43366666Y-62466190D01*
X43485714Y-62466190D01*
X43533333Y-62490000D01*
X43557142Y-62513809D01*
X43580952Y-62561428D01*
X43580952Y-62609047D01*
X43557142Y-62680476D01*
X43271428Y-62966190D01*
X43580952Y-62966190D01*
D13*
%TO.C,R7*%
X98193333Y-77032380D02*
X97860000Y-76556190D01*
X97621904Y-77032380D02*
X97621904Y-76032380D01*
X98002857Y-76032380D01*
X98098095Y-76080000D01*
X98145714Y-76127619D01*
X98193333Y-76222857D01*
X98193333Y-76365714D01*
X98145714Y-76460952D01*
X98098095Y-76508571D01*
X98002857Y-76556190D01*
X97621904Y-76556190D01*
X98526666Y-76032380D02*
X99193333Y-76032380D01*
X98764761Y-77032380D01*
%TO.C,C21*%
X59457142Y-49692857D02*
X59504761Y-49740476D01*
X59552380Y-49883333D01*
X59552380Y-49978571D01*
X59504761Y-50121428D01*
X59409523Y-50216666D01*
X59314285Y-50264285D01*
X59123809Y-50311904D01*
X58980952Y-50311904D01*
X58790476Y-50264285D01*
X58695238Y-50216666D01*
X58600000Y-50121428D01*
X58552380Y-49978571D01*
X58552380Y-49883333D01*
X58600000Y-49740476D01*
X58647619Y-49692857D01*
X58647619Y-49311904D02*
X58600000Y-49264285D01*
X58552380Y-49169047D01*
X58552380Y-48930952D01*
X58600000Y-48835714D01*
X58647619Y-48788095D01*
X58742857Y-48740476D01*
X58838095Y-48740476D01*
X58980952Y-48788095D01*
X59552380Y-49359523D01*
X59552380Y-48740476D01*
X59552380Y-47788095D02*
X59552380Y-48359523D01*
X59552380Y-48073809D02*
X58552380Y-48073809D01*
X58695238Y-48169047D01*
X58790476Y-48264285D01*
X58838095Y-48359523D01*
%TO.C,U7*%
X104568585Y-67756547D02*
X104568585Y-68282738D01*
X104599538Y-68344642D01*
X104630490Y-68375595D01*
X104692395Y-68406547D01*
X104816204Y-68406547D01*
X104878109Y-68375595D01*
X104909062Y-68344642D01*
X104940014Y-68282738D01*
X104940014Y-67756547D01*
X105187633Y-67756547D02*
X105620966Y-67756547D01*
X105342395Y-68406547D01*
D12*
%TO.C,C11*%
X45828571Y-67053571D02*
X45804761Y-67077380D01*
X45733333Y-67101190D01*
X45685714Y-67101190D01*
X45614285Y-67077380D01*
X45566666Y-67029761D01*
X45542857Y-66982142D01*
X45519047Y-66886904D01*
X45519047Y-66815476D01*
X45542857Y-66720238D01*
X45566666Y-66672619D01*
X45614285Y-66625000D01*
X45685714Y-66601190D01*
X45733333Y-66601190D01*
X45804761Y-66625000D01*
X45828571Y-66648809D01*
X46304761Y-67101190D02*
X46019047Y-67101190D01*
X46161904Y-67101190D02*
X46161904Y-66601190D01*
X46114285Y-66672619D01*
X46066666Y-66720238D01*
X46019047Y-66744047D01*
X46780952Y-67101190D02*
X46495238Y-67101190D01*
X46638095Y-67101190D02*
X46638095Y-66601190D01*
X46590476Y-66672619D01*
X46542857Y-66720238D01*
X46495238Y-66744047D01*
D13*
%TO.C,C16*%
X65707142Y-64157142D02*
X65659523Y-64204761D01*
X65516666Y-64252380D01*
X65421428Y-64252380D01*
X65278571Y-64204761D01*
X65183333Y-64109523D01*
X65135714Y-64014285D01*
X65088095Y-63823809D01*
X65088095Y-63680952D01*
X65135714Y-63490476D01*
X65183333Y-63395238D01*
X65278571Y-63300000D01*
X65421428Y-63252380D01*
X65516666Y-63252380D01*
X65659523Y-63300000D01*
X65707142Y-63347619D01*
X66659523Y-64252380D02*
X66088095Y-64252380D01*
X66373809Y-64252380D02*
X66373809Y-63252380D01*
X66278571Y-63395238D01*
X66183333Y-63490476D01*
X66088095Y-63538095D01*
X67516666Y-63252380D02*
X67326190Y-63252380D01*
X67230952Y-63300000D01*
X67183333Y-63347619D01*
X67088095Y-63490476D01*
X67040476Y-63680952D01*
X67040476Y-64061904D01*
X67088095Y-64157142D01*
X67135714Y-64204761D01*
X67230952Y-64252380D01*
X67421428Y-64252380D01*
X67516666Y-64204761D01*
X67564285Y-64157142D01*
X67611904Y-64061904D01*
X67611904Y-63823809D01*
X67564285Y-63728571D01*
X67516666Y-63680952D01*
X67421428Y-63633333D01*
X67230952Y-63633333D01*
X67135714Y-63680952D01*
X67088095Y-63728571D01*
X67040476Y-63823809D01*
D12*
%TO.C,C38*%
X42428571Y-71328571D02*
X42404761Y-71352380D01*
X42333333Y-71376190D01*
X42285714Y-71376190D01*
X42214285Y-71352380D01*
X42166666Y-71304761D01*
X42142857Y-71257142D01*
X42119047Y-71161904D01*
X42119047Y-71090476D01*
X42142857Y-70995238D01*
X42166666Y-70947619D01*
X42214285Y-70900000D01*
X42285714Y-70876190D01*
X42333333Y-70876190D01*
X42404761Y-70900000D01*
X42428571Y-70923809D01*
X42595238Y-70876190D02*
X42904761Y-70876190D01*
X42738095Y-71066666D01*
X42809523Y-71066666D01*
X42857142Y-71090476D01*
X42880952Y-71114285D01*
X42904761Y-71161904D01*
X42904761Y-71280952D01*
X42880952Y-71328571D01*
X42857142Y-71352380D01*
X42809523Y-71376190D01*
X42666666Y-71376190D01*
X42619047Y-71352380D01*
X42595238Y-71328571D01*
X43190476Y-71090476D02*
X43142857Y-71066666D01*
X43119047Y-71042857D01*
X43095238Y-70995238D01*
X43095238Y-70971428D01*
X43119047Y-70923809D01*
X43142857Y-70900000D01*
X43190476Y-70876190D01*
X43285714Y-70876190D01*
X43333333Y-70900000D01*
X43357142Y-70923809D01*
X43380952Y-70971428D01*
X43380952Y-70995238D01*
X43357142Y-71042857D01*
X43333333Y-71066666D01*
X43285714Y-71090476D01*
X43190476Y-71090476D01*
X43142857Y-71114285D01*
X43119047Y-71138095D01*
X43095238Y-71185714D01*
X43095238Y-71280952D01*
X43119047Y-71328571D01*
X43142857Y-71352380D01*
X43190476Y-71376190D01*
X43285714Y-71376190D01*
X43333333Y-71352380D01*
X43357142Y-71328571D01*
X43380952Y-71280952D01*
X43380952Y-71185714D01*
X43357142Y-71138095D01*
X43333333Y-71114285D01*
X43285714Y-71090476D01*
%TO.C,C24*%
X87468571Y-71661428D02*
X87492380Y-71685238D01*
X87516190Y-71756666D01*
X87516190Y-71804285D01*
X87492380Y-71875714D01*
X87444761Y-71923333D01*
X87397142Y-71947142D01*
X87301904Y-71970952D01*
X87230476Y-71970952D01*
X87135238Y-71947142D01*
X87087619Y-71923333D01*
X87040000Y-71875714D01*
X87016190Y-71804285D01*
X87016190Y-71756666D01*
X87040000Y-71685238D01*
X87063809Y-71661428D01*
X87063809Y-71470952D02*
X87040000Y-71447142D01*
X87016190Y-71399523D01*
X87016190Y-71280476D01*
X87040000Y-71232857D01*
X87063809Y-71209047D01*
X87111428Y-71185238D01*
X87159047Y-71185238D01*
X87230476Y-71209047D01*
X87516190Y-71494761D01*
X87516190Y-71185238D01*
X87182857Y-70756666D02*
X87516190Y-70756666D01*
X86992380Y-70875714D02*
X87349523Y-70994761D01*
X87349523Y-70685238D01*
%TO.C,R19*%
X32668571Y-72736190D02*
X32501904Y-72498095D01*
X32382857Y-72736190D02*
X32382857Y-72236190D01*
X32573333Y-72236190D01*
X32620952Y-72260000D01*
X32644761Y-72283809D01*
X32668571Y-72331428D01*
X32668571Y-72402857D01*
X32644761Y-72450476D01*
X32620952Y-72474285D01*
X32573333Y-72498095D01*
X32382857Y-72498095D01*
X33144761Y-72736190D02*
X32859047Y-72736190D01*
X33001904Y-72736190D02*
X33001904Y-72236190D01*
X32954285Y-72307619D01*
X32906666Y-72355238D01*
X32859047Y-72379047D01*
X33382857Y-72736190D02*
X33478095Y-72736190D01*
X33525714Y-72712380D01*
X33549523Y-72688571D01*
X33597142Y-72617142D01*
X33620952Y-72521904D01*
X33620952Y-72331428D01*
X33597142Y-72283809D01*
X33573333Y-72260000D01*
X33525714Y-72236190D01*
X33430476Y-72236190D01*
X33382857Y-72260000D01*
X33359047Y-72283809D01*
X33335238Y-72331428D01*
X33335238Y-72450476D01*
X33359047Y-72498095D01*
X33382857Y-72521904D01*
X33430476Y-72545714D01*
X33525714Y-72545714D01*
X33573333Y-72521904D01*
X33597142Y-72498095D01*
X33620952Y-72450476D01*
%TO.C,C27*%
X92753571Y-88323571D02*
X92729761Y-88347380D01*
X92658333Y-88371190D01*
X92610714Y-88371190D01*
X92539285Y-88347380D01*
X92491666Y-88299761D01*
X92467857Y-88252142D01*
X92444047Y-88156904D01*
X92444047Y-88085476D01*
X92467857Y-87990238D01*
X92491666Y-87942619D01*
X92539285Y-87895000D01*
X92610714Y-87871190D01*
X92658333Y-87871190D01*
X92729761Y-87895000D01*
X92753571Y-87918809D01*
X92944047Y-87918809D02*
X92967857Y-87895000D01*
X93015476Y-87871190D01*
X93134523Y-87871190D01*
X93182142Y-87895000D01*
X93205952Y-87918809D01*
X93229761Y-87966428D01*
X93229761Y-88014047D01*
X93205952Y-88085476D01*
X92920238Y-88371190D01*
X93229761Y-88371190D01*
X93396428Y-87871190D02*
X93729761Y-87871190D01*
X93515476Y-88371190D01*
%TO.C,R5*%
X81566666Y-66696190D02*
X81400000Y-66458095D01*
X81280952Y-66696190D02*
X81280952Y-66196190D01*
X81471428Y-66196190D01*
X81519047Y-66220000D01*
X81542857Y-66243809D01*
X81566666Y-66291428D01*
X81566666Y-66362857D01*
X81542857Y-66410476D01*
X81519047Y-66434285D01*
X81471428Y-66458095D01*
X81280952Y-66458095D01*
X82019047Y-66196190D02*
X81780952Y-66196190D01*
X81757142Y-66434285D01*
X81780952Y-66410476D01*
X81828571Y-66386666D01*
X81947619Y-66386666D01*
X81995238Y-66410476D01*
X82019047Y-66434285D01*
X82042857Y-66481904D01*
X82042857Y-66600952D01*
X82019047Y-66648571D01*
X81995238Y-66672380D01*
X81947619Y-66696190D01*
X81828571Y-66696190D01*
X81780952Y-66672380D01*
X81757142Y-66648571D01*
D13*
%TO.C,C18*%
X93357142Y-64517142D02*
X93309523Y-64564761D01*
X93166666Y-64612380D01*
X93071428Y-64612380D01*
X92928571Y-64564761D01*
X92833333Y-64469523D01*
X92785714Y-64374285D01*
X92738095Y-64183809D01*
X92738095Y-64040952D01*
X92785714Y-63850476D01*
X92833333Y-63755238D01*
X92928571Y-63660000D01*
X93071428Y-63612380D01*
X93166666Y-63612380D01*
X93309523Y-63660000D01*
X93357142Y-63707619D01*
X94309523Y-64612380D02*
X93738095Y-64612380D01*
X94023809Y-64612380D02*
X94023809Y-63612380D01*
X93928571Y-63755238D01*
X93833333Y-63850476D01*
X93738095Y-63898095D01*
X94880952Y-64040952D02*
X94785714Y-63993333D01*
X94738095Y-63945714D01*
X94690476Y-63850476D01*
X94690476Y-63802857D01*
X94738095Y-63707619D01*
X94785714Y-63660000D01*
X94880952Y-63612380D01*
X95071428Y-63612380D01*
X95166666Y-63660000D01*
X95214285Y-63707619D01*
X95261904Y-63802857D01*
X95261904Y-63850476D01*
X95214285Y-63945714D01*
X95166666Y-63993333D01*
X95071428Y-64040952D01*
X94880952Y-64040952D01*
X94785714Y-64088571D01*
X94738095Y-64136190D01*
X94690476Y-64231428D01*
X94690476Y-64421904D01*
X94738095Y-64517142D01*
X94785714Y-64564761D01*
X94880952Y-64612380D01*
X95071428Y-64612380D01*
X95166666Y-64564761D01*
X95214285Y-64517142D01*
X95261904Y-64421904D01*
X95261904Y-64231428D01*
X95214285Y-64136190D01*
X95166666Y-64088571D01*
X95071428Y-64040952D01*
D12*
%TO.C,C25*%
X25948571Y-61983571D02*
X25924761Y-62007380D01*
X25853333Y-62031190D01*
X25805714Y-62031190D01*
X25734285Y-62007380D01*
X25686666Y-61959761D01*
X25662857Y-61912142D01*
X25639047Y-61816904D01*
X25639047Y-61745476D01*
X25662857Y-61650238D01*
X25686666Y-61602619D01*
X25734285Y-61555000D01*
X25805714Y-61531190D01*
X25853333Y-61531190D01*
X25924761Y-61555000D01*
X25948571Y-61578809D01*
X26139047Y-61578809D02*
X26162857Y-61555000D01*
X26210476Y-61531190D01*
X26329523Y-61531190D01*
X26377142Y-61555000D01*
X26400952Y-61578809D01*
X26424761Y-61626428D01*
X26424761Y-61674047D01*
X26400952Y-61745476D01*
X26115238Y-62031190D01*
X26424761Y-62031190D01*
X26877142Y-61531190D02*
X26639047Y-61531190D01*
X26615238Y-61769285D01*
X26639047Y-61745476D01*
X26686666Y-61721666D01*
X26805714Y-61721666D01*
X26853333Y-61745476D01*
X26877142Y-61769285D01*
X26900952Y-61816904D01*
X26900952Y-61935952D01*
X26877142Y-61983571D01*
X26853333Y-62007380D01*
X26805714Y-62031190D01*
X26686666Y-62031190D01*
X26639047Y-62007380D01*
X26615238Y-61983571D01*
%TO.C,R9*%
X93576666Y-83286190D02*
X93410000Y-83048095D01*
X93290952Y-83286190D02*
X93290952Y-82786190D01*
X93481428Y-82786190D01*
X93529047Y-82810000D01*
X93552857Y-82833809D01*
X93576666Y-82881428D01*
X93576666Y-82952857D01*
X93552857Y-83000476D01*
X93529047Y-83024285D01*
X93481428Y-83048095D01*
X93290952Y-83048095D01*
X93814761Y-83286190D02*
X93910000Y-83286190D01*
X93957619Y-83262380D01*
X93981428Y-83238571D01*
X94029047Y-83167142D01*
X94052857Y-83071904D01*
X94052857Y-82881428D01*
X94029047Y-82833809D01*
X94005238Y-82810000D01*
X93957619Y-82786190D01*
X93862380Y-82786190D01*
X93814761Y-82810000D01*
X93790952Y-82833809D01*
X93767142Y-82881428D01*
X93767142Y-83000476D01*
X93790952Y-83048095D01*
X93814761Y-83071904D01*
X93862380Y-83095714D01*
X93957619Y-83095714D01*
X94005238Y-83071904D01*
X94029047Y-83048095D01*
X94052857Y-83000476D01*
D13*
%TO.C,U2*%
X49587380Y-65461904D02*
X50396904Y-65461904D01*
X50492142Y-65414285D01*
X50539761Y-65366666D01*
X50587380Y-65271428D01*
X50587380Y-65080952D01*
X50539761Y-64985714D01*
X50492142Y-64938095D01*
X50396904Y-64890476D01*
X49587380Y-64890476D01*
X49682619Y-64461904D02*
X49635000Y-64414285D01*
X49587380Y-64319047D01*
X49587380Y-64080952D01*
X49635000Y-63985714D01*
X49682619Y-63938095D01*
X49777857Y-63890476D01*
X49873095Y-63890476D01*
X50015952Y-63938095D01*
X50587380Y-64509523D01*
X50587380Y-63890476D01*
D12*
%TO.C,C9*%
X84928571Y-72693333D02*
X84952380Y-72717142D01*
X84976190Y-72788571D01*
X84976190Y-72836190D01*
X84952380Y-72907619D01*
X84904761Y-72955238D01*
X84857142Y-72979047D01*
X84761904Y-73002857D01*
X84690476Y-73002857D01*
X84595238Y-72979047D01*
X84547619Y-72955238D01*
X84500000Y-72907619D01*
X84476190Y-72836190D01*
X84476190Y-72788571D01*
X84500000Y-72717142D01*
X84523809Y-72693333D01*
X84976190Y-72455238D02*
X84976190Y-72360000D01*
X84952380Y-72312380D01*
X84928571Y-72288571D01*
X84857142Y-72240952D01*
X84761904Y-72217142D01*
X84571428Y-72217142D01*
X84523809Y-72240952D01*
X84500000Y-72264761D01*
X84476190Y-72312380D01*
X84476190Y-72407619D01*
X84500000Y-72455238D01*
X84523809Y-72479047D01*
X84571428Y-72502857D01*
X84690476Y-72502857D01*
X84738095Y-72479047D01*
X84761904Y-72455238D01*
X84785714Y-72407619D01*
X84785714Y-72312380D01*
X84761904Y-72264761D01*
X84738095Y-72240952D01*
X84690476Y-72217142D01*
%TO.C,C34*%
X25948571Y-63408571D02*
X25924761Y-63432380D01*
X25853333Y-63456190D01*
X25805714Y-63456190D01*
X25734285Y-63432380D01*
X25686666Y-63384761D01*
X25662857Y-63337142D01*
X25639047Y-63241904D01*
X25639047Y-63170476D01*
X25662857Y-63075238D01*
X25686666Y-63027619D01*
X25734285Y-62980000D01*
X25805714Y-62956190D01*
X25853333Y-62956190D01*
X25924761Y-62980000D01*
X25948571Y-63003809D01*
X26115238Y-62956190D02*
X26424761Y-62956190D01*
X26258095Y-63146666D01*
X26329523Y-63146666D01*
X26377142Y-63170476D01*
X26400952Y-63194285D01*
X26424761Y-63241904D01*
X26424761Y-63360952D01*
X26400952Y-63408571D01*
X26377142Y-63432380D01*
X26329523Y-63456190D01*
X26186666Y-63456190D01*
X26139047Y-63432380D01*
X26115238Y-63408571D01*
X26853333Y-63122857D02*
X26853333Y-63456190D01*
X26734285Y-62932380D02*
X26615238Y-63289523D01*
X26924761Y-63289523D01*
D13*
%TO.C,C30*%
X96042142Y-73482142D02*
X95994523Y-73529761D01*
X95851666Y-73577380D01*
X95756428Y-73577380D01*
X95613571Y-73529761D01*
X95518333Y-73434523D01*
X95470714Y-73339285D01*
X95423095Y-73148809D01*
X95423095Y-73005952D01*
X95470714Y-72815476D01*
X95518333Y-72720238D01*
X95613571Y-72625000D01*
X95756428Y-72577380D01*
X95851666Y-72577380D01*
X95994523Y-72625000D01*
X96042142Y-72672619D01*
X96375476Y-72577380D02*
X96994523Y-72577380D01*
X96661190Y-72958333D01*
X96804047Y-72958333D01*
X96899285Y-73005952D01*
X96946904Y-73053571D01*
X96994523Y-73148809D01*
X96994523Y-73386904D01*
X96946904Y-73482142D01*
X96899285Y-73529761D01*
X96804047Y-73577380D01*
X96518333Y-73577380D01*
X96423095Y-73529761D01*
X96375476Y-73482142D01*
X97613571Y-72577380D02*
X97708809Y-72577380D01*
X97804047Y-72625000D01*
X97851666Y-72672619D01*
X97899285Y-72767857D01*
X97946904Y-72958333D01*
X97946904Y-73196428D01*
X97899285Y-73386904D01*
X97851666Y-73482142D01*
X97804047Y-73529761D01*
X97708809Y-73577380D01*
X97613571Y-73577380D01*
X97518333Y-73529761D01*
X97470714Y-73482142D01*
X97423095Y-73386904D01*
X97375476Y-73196428D01*
X97375476Y-72958333D01*
X97423095Y-72767857D01*
X97470714Y-72672619D01*
X97518333Y-72625000D01*
X97613571Y-72577380D01*
D12*
%TO.C,C7*%
X76316666Y-62303571D02*
X76292857Y-62327380D01*
X76221428Y-62351190D01*
X76173809Y-62351190D01*
X76102380Y-62327380D01*
X76054761Y-62279761D01*
X76030952Y-62232142D01*
X76007142Y-62136904D01*
X76007142Y-62065476D01*
X76030952Y-61970238D01*
X76054761Y-61922619D01*
X76102380Y-61875000D01*
X76173809Y-61851190D01*
X76221428Y-61851190D01*
X76292857Y-61875000D01*
X76316666Y-61898809D01*
X76483333Y-61851190D02*
X76816666Y-61851190D01*
X76602380Y-62351190D01*
%TO.C,C32*%
X43323571Y-69238571D02*
X43299761Y-69262380D01*
X43228333Y-69286190D01*
X43180714Y-69286190D01*
X43109285Y-69262380D01*
X43061666Y-69214761D01*
X43037857Y-69167142D01*
X43014047Y-69071904D01*
X43014047Y-69000476D01*
X43037857Y-68905238D01*
X43061666Y-68857619D01*
X43109285Y-68810000D01*
X43180714Y-68786190D01*
X43228333Y-68786190D01*
X43299761Y-68810000D01*
X43323571Y-68833809D01*
X43490238Y-68786190D02*
X43799761Y-68786190D01*
X43633095Y-68976666D01*
X43704523Y-68976666D01*
X43752142Y-69000476D01*
X43775952Y-69024285D01*
X43799761Y-69071904D01*
X43799761Y-69190952D01*
X43775952Y-69238571D01*
X43752142Y-69262380D01*
X43704523Y-69286190D01*
X43561666Y-69286190D01*
X43514047Y-69262380D01*
X43490238Y-69238571D01*
X43990238Y-68833809D02*
X44014047Y-68810000D01*
X44061666Y-68786190D01*
X44180714Y-68786190D01*
X44228333Y-68810000D01*
X44252142Y-68833809D01*
X44275952Y-68881428D01*
X44275952Y-68929047D01*
X44252142Y-69000476D01*
X43966428Y-69286190D01*
X44275952Y-69286190D01*
%TO.C,C5*%
X29696666Y-75243571D02*
X29672857Y-75267380D01*
X29601428Y-75291190D01*
X29553809Y-75291190D01*
X29482380Y-75267380D01*
X29434761Y-75219761D01*
X29410952Y-75172142D01*
X29387142Y-75076904D01*
X29387142Y-75005476D01*
X29410952Y-74910238D01*
X29434761Y-74862619D01*
X29482380Y-74815000D01*
X29553809Y-74791190D01*
X29601428Y-74791190D01*
X29672857Y-74815000D01*
X29696666Y-74838809D01*
X30149047Y-74791190D02*
X29910952Y-74791190D01*
X29887142Y-75029285D01*
X29910952Y-75005476D01*
X29958571Y-74981666D01*
X30077619Y-74981666D01*
X30125238Y-75005476D01*
X30149047Y-75029285D01*
X30172857Y-75076904D01*
X30172857Y-75195952D01*
X30149047Y-75243571D01*
X30125238Y-75267380D01*
X30077619Y-75291190D01*
X29958571Y-75291190D01*
X29910952Y-75267380D01*
X29887142Y-75243571D01*
%TO.C,R22*%
X80291071Y-81546190D02*
X80124404Y-81308095D01*
X80005357Y-81546190D02*
X80005357Y-81046190D01*
X80195833Y-81046190D01*
X80243452Y-81070000D01*
X80267261Y-81093809D01*
X80291071Y-81141428D01*
X80291071Y-81212857D01*
X80267261Y-81260476D01*
X80243452Y-81284285D01*
X80195833Y-81308095D01*
X80005357Y-81308095D01*
X80481547Y-81093809D02*
X80505357Y-81070000D01*
X80552976Y-81046190D01*
X80672023Y-81046190D01*
X80719642Y-81070000D01*
X80743452Y-81093809D01*
X80767261Y-81141428D01*
X80767261Y-81189047D01*
X80743452Y-81260476D01*
X80457738Y-81546190D01*
X80767261Y-81546190D01*
X80957738Y-81093809D02*
X80981547Y-81070000D01*
X81029166Y-81046190D01*
X81148214Y-81046190D01*
X81195833Y-81070000D01*
X81219642Y-81093809D01*
X81243452Y-81141428D01*
X81243452Y-81189047D01*
X81219642Y-81260476D01*
X80933928Y-81546190D01*
X81243452Y-81546190D01*
%TO.C,C8*%
X78916666Y-70828571D02*
X78892857Y-70852380D01*
X78821428Y-70876190D01*
X78773809Y-70876190D01*
X78702380Y-70852380D01*
X78654761Y-70804761D01*
X78630952Y-70757142D01*
X78607142Y-70661904D01*
X78607142Y-70590476D01*
X78630952Y-70495238D01*
X78654761Y-70447619D01*
X78702380Y-70400000D01*
X78773809Y-70376190D01*
X78821428Y-70376190D01*
X78892857Y-70400000D01*
X78916666Y-70423809D01*
X79202380Y-70590476D02*
X79154761Y-70566666D01*
X79130952Y-70542857D01*
X79107142Y-70495238D01*
X79107142Y-70471428D01*
X79130952Y-70423809D01*
X79154761Y-70400000D01*
X79202380Y-70376190D01*
X79297619Y-70376190D01*
X79345238Y-70400000D01*
X79369047Y-70423809D01*
X79392857Y-70471428D01*
X79392857Y-70495238D01*
X79369047Y-70542857D01*
X79345238Y-70566666D01*
X79297619Y-70590476D01*
X79202380Y-70590476D01*
X79154761Y-70614285D01*
X79130952Y-70638095D01*
X79107142Y-70685714D01*
X79107142Y-70780952D01*
X79130952Y-70828571D01*
X79154761Y-70852380D01*
X79202380Y-70876190D01*
X79297619Y-70876190D01*
X79345238Y-70852380D01*
X79369047Y-70828571D01*
X79392857Y-70780952D01*
X79392857Y-70685714D01*
X79369047Y-70638095D01*
X79345238Y-70614285D01*
X79297619Y-70590476D01*
%TO.C,C26*%
X29538570Y-77892591D02*
X29514760Y-77916400D01*
X29443332Y-77940210D01*
X29395713Y-77940210D01*
X29324284Y-77916400D01*
X29276665Y-77868781D01*
X29252856Y-77821162D01*
X29229046Y-77725924D01*
X29229046Y-77654496D01*
X29252856Y-77559258D01*
X29276665Y-77511639D01*
X29324284Y-77464020D01*
X29395713Y-77440210D01*
X29443332Y-77440210D01*
X29514760Y-77464020D01*
X29538570Y-77487829D01*
X29729046Y-77487829D02*
X29752856Y-77464020D01*
X29800475Y-77440210D01*
X29919522Y-77440210D01*
X29967141Y-77464020D01*
X29990951Y-77487829D01*
X30014760Y-77535448D01*
X30014760Y-77583067D01*
X29990951Y-77654496D01*
X29705237Y-77940210D01*
X30014760Y-77940210D01*
X30443332Y-77440210D02*
X30348094Y-77440210D01*
X30300475Y-77464020D01*
X30276665Y-77487829D01*
X30229046Y-77559258D01*
X30205237Y-77654496D01*
X30205237Y-77844972D01*
X30229046Y-77892591D01*
X30252856Y-77916400D01*
X30300475Y-77940210D01*
X30395713Y-77940210D01*
X30443332Y-77916400D01*
X30467141Y-77892591D01*
X30490951Y-77844972D01*
X30490951Y-77725924D01*
X30467141Y-77678305D01*
X30443332Y-77654496D01*
X30395713Y-77630686D01*
X30300475Y-77630686D01*
X30252856Y-77654496D01*
X30229046Y-77678305D01*
X30205237Y-77725924D01*
%TO.C,C35*%
X26913570Y-79458571D02*
X26889760Y-79482380D01*
X26818332Y-79506190D01*
X26770713Y-79506190D01*
X26699284Y-79482380D01*
X26651665Y-79434761D01*
X26627856Y-79387142D01*
X26604046Y-79291904D01*
X26604046Y-79220476D01*
X26627856Y-79125238D01*
X26651665Y-79077619D01*
X26699284Y-79030000D01*
X26770713Y-79006190D01*
X26818332Y-79006190D01*
X26889760Y-79030000D01*
X26913570Y-79053809D01*
X27080237Y-79006190D02*
X27389760Y-79006190D01*
X27223094Y-79196666D01*
X27294522Y-79196666D01*
X27342141Y-79220476D01*
X27365951Y-79244285D01*
X27389760Y-79291904D01*
X27389760Y-79410952D01*
X27365951Y-79458571D01*
X27342141Y-79482380D01*
X27294522Y-79506190D01*
X27151665Y-79506190D01*
X27104046Y-79482380D01*
X27080237Y-79458571D01*
X27842141Y-79006190D02*
X27604046Y-79006190D01*
X27580237Y-79244285D01*
X27604046Y-79220476D01*
X27651665Y-79196666D01*
X27770713Y-79196666D01*
X27818332Y-79220476D01*
X27842141Y-79244285D01*
X27865951Y-79291904D01*
X27865951Y-79410952D01*
X27842141Y-79458571D01*
X27818332Y-79482380D01*
X27770713Y-79506190D01*
X27651665Y-79506190D01*
X27604046Y-79482380D01*
X27580237Y-79458571D01*
%TO.C,C14*%
X92443571Y-71577842D02*
X92467380Y-71601652D01*
X92491190Y-71673080D01*
X92491190Y-71720699D01*
X92467380Y-71792128D01*
X92419761Y-71839747D01*
X92372142Y-71863556D01*
X92276904Y-71887366D01*
X92205476Y-71887366D01*
X92110238Y-71863556D01*
X92062619Y-71839747D01*
X92015000Y-71792128D01*
X91991190Y-71720699D01*
X91991190Y-71673080D01*
X92015000Y-71601652D01*
X92038809Y-71577842D01*
X92491190Y-71101652D02*
X92491190Y-71387366D01*
X92491190Y-71244509D02*
X91991190Y-71244509D01*
X92062619Y-71292128D01*
X92110238Y-71339747D01*
X92134047Y-71387366D01*
X92157857Y-70673080D02*
X92491190Y-70673080D01*
X91967380Y-70792128D02*
X92324523Y-70911175D01*
X92324523Y-70601652D01*
%TO.C,R18*%
X36118571Y-72736190D02*
X35951904Y-72498095D01*
X35832857Y-72736190D02*
X35832857Y-72236190D01*
X36023333Y-72236190D01*
X36070952Y-72260000D01*
X36094761Y-72283809D01*
X36118571Y-72331428D01*
X36118571Y-72402857D01*
X36094761Y-72450476D01*
X36070952Y-72474285D01*
X36023333Y-72498095D01*
X35832857Y-72498095D01*
X36594761Y-72736190D02*
X36309047Y-72736190D01*
X36451904Y-72736190D02*
X36451904Y-72236190D01*
X36404285Y-72307619D01*
X36356666Y-72355238D01*
X36309047Y-72379047D01*
X36880476Y-72450476D02*
X36832857Y-72426666D01*
X36809047Y-72402857D01*
X36785238Y-72355238D01*
X36785238Y-72331428D01*
X36809047Y-72283809D01*
X36832857Y-72260000D01*
X36880476Y-72236190D01*
X36975714Y-72236190D01*
X37023333Y-72260000D01*
X37047142Y-72283809D01*
X37070952Y-72331428D01*
X37070952Y-72355238D01*
X37047142Y-72402857D01*
X37023333Y-72426666D01*
X36975714Y-72450476D01*
X36880476Y-72450476D01*
X36832857Y-72474285D01*
X36809047Y-72498095D01*
X36785238Y-72545714D01*
X36785238Y-72640952D01*
X36809047Y-72688571D01*
X36832857Y-72712380D01*
X36880476Y-72736190D01*
X36975714Y-72736190D01*
X37023333Y-72712380D01*
X37047142Y-72688571D01*
X37070952Y-72640952D01*
X37070952Y-72545714D01*
X37047142Y-72498095D01*
X37023333Y-72474285D01*
X36975714Y-72450476D01*
D13*
%TO.C,C10*%
X96957142Y-64457142D02*
X96909523Y-64504761D01*
X96766666Y-64552380D01*
X96671428Y-64552380D01*
X96528571Y-64504761D01*
X96433333Y-64409523D01*
X96385714Y-64314285D01*
X96338095Y-64123809D01*
X96338095Y-63980952D01*
X96385714Y-63790476D01*
X96433333Y-63695238D01*
X96528571Y-63600000D01*
X96671428Y-63552380D01*
X96766666Y-63552380D01*
X96909523Y-63600000D01*
X96957142Y-63647619D01*
X97909523Y-64552380D02*
X97338095Y-64552380D01*
X97623809Y-64552380D02*
X97623809Y-63552380D01*
X97528571Y-63695238D01*
X97433333Y-63790476D01*
X97338095Y-63838095D01*
X98528571Y-63552380D02*
X98623809Y-63552380D01*
X98719047Y-63600000D01*
X98766666Y-63647619D01*
X98814285Y-63742857D01*
X98861904Y-63933333D01*
X98861904Y-64171428D01*
X98814285Y-64361904D01*
X98766666Y-64457142D01*
X98719047Y-64504761D01*
X98623809Y-64552380D01*
X98528571Y-64552380D01*
X98433333Y-64504761D01*
X98385714Y-64457142D01*
X98338095Y-64361904D01*
X98290476Y-64171428D01*
X98290476Y-63933333D01*
X98338095Y-63742857D01*
X98385714Y-63647619D01*
X98433333Y-63600000D01*
X98528571Y-63552380D01*
D12*
%TO.C,R17*%
X36228571Y-84376190D02*
X36061904Y-84138095D01*
X35942857Y-84376190D02*
X35942857Y-83876190D01*
X36133333Y-83876190D01*
X36180952Y-83900000D01*
X36204761Y-83923809D01*
X36228571Y-83971428D01*
X36228571Y-84042857D01*
X36204761Y-84090476D01*
X36180952Y-84114285D01*
X36133333Y-84138095D01*
X35942857Y-84138095D01*
X36704761Y-84376190D02*
X36419047Y-84376190D01*
X36561904Y-84376190D02*
X36561904Y-83876190D01*
X36514285Y-83947619D01*
X36466666Y-83995238D01*
X36419047Y-84019047D01*
X36871428Y-83876190D02*
X37204761Y-83876190D01*
X36990476Y-84376190D01*
D13*
%TO.C,R15*%
X50296428Y-59857142D02*
X49996428Y-59428571D01*
X49782142Y-59857142D02*
X49782142Y-58957142D01*
X50125000Y-58957142D01*
X50210714Y-59000000D01*
X50253571Y-59042857D01*
X50296428Y-59128571D01*
X50296428Y-59257142D01*
X50253571Y-59342857D01*
X50210714Y-59385714D01*
X50125000Y-59428571D01*
X49782142Y-59428571D01*
X51153571Y-59857142D02*
X50639285Y-59857142D01*
X50896428Y-59857142D02*
X50896428Y-58957142D01*
X50810714Y-59085714D01*
X50725000Y-59171428D01*
X50639285Y-59214285D01*
X51967857Y-58957142D02*
X51539285Y-58957142D01*
X51496428Y-59385714D01*
X51539285Y-59342857D01*
X51625000Y-59300000D01*
X51839285Y-59300000D01*
X51925000Y-59342857D01*
X51967857Y-59385714D01*
X52010714Y-59471428D01*
X52010714Y-59685714D01*
X51967857Y-59771428D01*
X51925000Y-59814285D01*
X51839285Y-59857142D01*
X51625000Y-59857142D01*
X51539285Y-59814285D01*
X51496428Y-59771428D01*
D12*
%TO.C,C12*%
X93938571Y-68443549D02*
X93962380Y-68467359D01*
X93986190Y-68538787D01*
X93986190Y-68586406D01*
X93962380Y-68657835D01*
X93914761Y-68705454D01*
X93867142Y-68729263D01*
X93771904Y-68753073D01*
X93700476Y-68753073D01*
X93605238Y-68729263D01*
X93557619Y-68705454D01*
X93510000Y-68657835D01*
X93486190Y-68586406D01*
X93486190Y-68538787D01*
X93510000Y-68467359D01*
X93533809Y-68443549D01*
X93986190Y-67967359D02*
X93986190Y-68253073D01*
X93986190Y-68110216D02*
X93486190Y-68110216D01*
X93557619Y-68157835D01*
X93605238Y-68205454D01*
X93629047Y-68253073D01*
X93533809Y-67776882D02*
X93510000Y-67753073D01*
X93486190Y-67705454D01*
X93486190Y-67586406D01*
X93510000Y-67538787D01*
X93533809Y-67514978D01*
X93581428Y-67491168D01*
X93629047Y-67491168D01*
X93700476Y-67514978D01*
X93986190Y-67800692D01*
X93986190Y-67491168D01*
D13*
%TO.C,R3*%
X98020833Y-58516204D02*
X97687500Y-58040014D01*
X97449404Y-58516204D02*
X97449404Y-57516204D01*
X97830357Y-57516204D01*
X97925595Y-57563824D01*
X97973214Y-57611443D01*
X98020833Y-57706681D01*
X98020833Y-57849538D01*
X97973214Y-57944776D01*
X97925595Y-57992395D01*
X97830357Y-58040014D01*
X97449404Y-58040014D01*
X98354166Y-57516204D02*
X98973214Y-57516204D01*
X98639880Y-57897157D01*
X98782738Y-57897157D01*
X98877976Y-57944776D01*
X98925595Y-57992395D01*
X98973214Y-58087633D01*
X98973214Y-58325728D01*
X98925595Y-58420966D01*
X98877976Y-58468585D01*
X98782738Y-58516204D01*
X98497023Y-58516204D01*
X98401785Y-58468585D01*
X98354166Y-58420966D01*
%TO.C,R6*%
X102118333Y-76952380D02*
X101785000Y-76476190D01*
X101546904Y-76952380D02*
X101546904Y-75952380D01*
X101927857Y-75952380D01*
X102023095Y-76000000D01*
X102070714Y-76047619D01*
X102118333Y-76142857D01*
X102118333Y-76285714D01*
X102070714Y-76380952D01*
X102023095Y-76428571D01*
X101927857Y-76476190D01*
X101546904Y-76476190D01*
X102975476Y-75952380D02*
X102785000Y-75952380D01*
X102689761Y-76000000D01*
X102642142Y-76047619D01*
X102546904Y-76190476D01*
X102499285Y-76380952D01*
X102499285Y-76761904D01*
X102546904Y-76857142D01*
X102594523Y-76904761D01*
X102689761Y-76952380D01*
X102880238Y-76952380D01*
X102975476Y-76904761D01*
X103023095Y-76857142D01*
X103070714Y-76761904D01*
X103070714Y-76523809D01*
X103023095Y-76428571D01*
X102975476Y-76380952D01*
X102880238Y-76333333D01*
X102689761Y-76333333D01*
X102594523Y-76380952D01*
X102546904Y-76428571D01*
X102499285Y-76523809D01*
%TO.C,C29*%
X90102142Y-74962142D02*
X90054523Y-75009761D01*
X89911666Y-75057380D01*
X89816428Y-75057380D01*
X89673571Y-75009761D01*
X89578333Y-74914523D01*
X89530714Y-74819285D01*
X89483095Y-74628809D01*
X89483095Y-74485952D01*
X89530714Y-74295476D01*
X89578333Y-74200238D01*
X89673571Y-74105000D01*
X89816428Y-74057380D01*
X89911666Y-74057380D01*
X90054523Y-74105000D01*
X90102142Y-74152619D01*
X90483095Y-74152619D02*
X90530714Y-74105000D01*
X90625952Y-74057380D01*
X90864047Y-74057380D01*
X90959285Y-74105000D01*
X91006904Y-74152619D01*
X91054523Y-74247857D01*
X91054523Y-74343095D01*
X91006904Y-74485952D01*
X90435476Y-75057380D01*
X91054523Y-75057380D01*
X91530714Y-75057380D02*
X91721190Y-75057380D01*
X91816428Y-75009761D01*
X91864047Y-74962142D01*
X91959285Y-74819285D01*
X92006904Y-74628809D01*
X92006904Y-74247857D01*
X91959285Y-74152619D01*
X91911666Y-74105000D01*
X91816428Y-74057380D01*
X91625952Y-74057380D01*
X91530714Y-74105000D01*
X91483095Y-74152619D01*
X91435476Y-74247857D01*
X91435476Y-74485952D01*
X91483095Y-74581190D01*
X91530714Y-74628809D01*
X91625952Y-74676428D01*
X91816428Y-74676428D01*
X91911666Y-74628809D01*
X91959285Y-74581190D01*
X92006904Y-74485952D01*
D12*
%TO.C,C13*%
X88663571Y-71643929D02*
X88687380Y-71667739D01*
X88711190Y-71739167D01*
X88711190Y-71786786D01*
X88687380Y-71858215D01*
X88639761Y-71905834D01*
X88592142Y-71929643D01*
X88496904Y-71953453D01*
X88425476Y-71953453D01*
X88330238Y-71929643D01*
X88282619Y-71905834D01*
X88235000Y-71858215D01*
X88211190Y-71786786D01*
X88211190Y-71739167D01*
X88235000Y-71667739D01*
X88258809Y-71643929D01*
X88711190Y-71167739D02*
X88711190Y-71453453D01*
X88711190Y-71310596D02*
X88211190Y-71310596D01*
X88282619Y-71358215D01*
X88330238Y-71405834D01*
X88354047Y-71453453D01*
X88211190Y-71001072D02*
X88211190Y-70691548D01*
X88401666Y-70858215D01*
X88401666Y-70786786D01*
X88425476Y-70739167D01*
X88449285Y-70715358D01*
X88496904Y-70691548D01*
X88615952Y-70691548D01*
X88663571Y-70715358D01*
X88687380Y-70739167D01*
X88711190Y-70786786D01*
X88711190Y-70929643D01*
X88687380Y-70977262D01*
X88663571Y-71001072D01*
D13*
%TO.C,U9*%
X75657380Y-57494404D02*
X76466904Y-57494404D01*
X76562142Y-57446785D01*
X76609761Y-57399166D01*
X76657380Y-57303928D01*
X76657380Y-57113452D01*
X76609761Y-57018214D01*
X76562142Y-56970595D01*
X76466904Y-56922976D01*
X75657380Y-56922976D01*
X76657380Y-56399166D02*
X76657380Y-56208690D01*
X76609761Y-56113452D01*
X76562142Y-56065833D01*
X76419285Y-55970595D01*
X76228809Y-55922976D01*
X75847857Y-55922976D01*
X75752619Y-55970595D01*
X75705000Y-56018214D01*
X75657380Y-56113452D01*
X75657380Y-56303928D01*
X75705000Y-56399166D01*
X75752619Y-56446785D01*
X75847857Y-56494404D01*
X76085952Y-56494404D01*
X76181190Y-56446785D01*
X76228809Y-56399166D01*
X76276428Y-56303928D01*
X76276428Y-56113452D01*
X76228809Y-56018214D01*
X76181190Y-55970595D01*
X76085952Y-55922976D01*
%TO.C,U10*%
X80861904Y-63702380D02*
X80861904Y-64511904D01*
X80909523Y-64607142D01*
X80957142Y-64654761D01*
X81052380Y-64702380D01*
X81242857Y-64702380D01*
X81338095Y-64654761D01*
X81385714Y-64607142D01*
X81433333Y-64511904D01*
X81433333Y-63702380D01*
X82433333Y-64702380D02*
X81861904Y-64702380D01*
X82147619Y-64702380D02*
X82147619Y-63702380D01*
X82052380Y-63845238D01*
X81957142Y-63940476D01*
X81861904Y-63988095D01*
X83052380Y-63702380D02*
X83147619Y-63702380D01*
X83242857Y-63750000D01*
X83290476Y-63797619D01*
X83338095Y-63892857D01*
X83385714Y-64083333D01*
X83385714Y-64321428D01*
X83338095Y-64511904D01*
X83290476Y-64607142D01*
X83242857Y-64654761D01*
X83147619Y-64702380D01*
X83052380Y-64702380D01*
X82957142Y-64654761D01*
X82909523Y-64607142D01*
X82861904Y-64511904D01*
X82814285Y-64321428D01*
X82814285Y-64083333D01*
X82861904Y-63892857D01*
X82909523Y-63797619D01*
X82957142Y-63750000D01*
X83052380Y-63702380D01*
%TO.C,L3*%
X37288333Y-81352380D02*
X36812142Y-81352380D01*
X36812142Y-80352380D01*
X37526428Y-80352380D02*
X38145476Y-80352380D01*
X37812142Y-80733333D01*
X37955000Y-80733333D01*
X38050238Y-80780952D01*
X38097857Y-80828571D01*
X38145476Y-80923809D01*
X38145476Y-81161904D01*
X38097857Y-81257142D01*
X38050238Y-81304761D01*
X37955000Y-81352380D01*
X37669285Y-81352380D01*
X37574047Y-81304761D01*
X37526428Y-81257142D01*
D12*
%TO.C,R23*%
X32338571Y-88026189D02*
X32171904Y-87788094D01*
X32052857Y-88026189D02*
X32052857Y-87526189D01*
X32243333Y-87526189D01*
X32290952Y-87549999D01*
X32314761Y-87573808D01*
X32338571Y-87621427D01*
X32338571Y-87692856D01*
X32314761Y-87740475D01*
X32290952Y-87764284D01*
X32243333Y-87788094D01*
X32052857Y-87788094D01*
X32529047Y-87573808D02*
X32552857Y-87549999D01*
X32600476Y-87526189D01*
X32719523Y-87526189D01*
X32767142Y-87549999D01*
X32790952Y-87573808D01*
X32814761Y-87621427D01*
X32814761Y-87669046D01*
X32790952Y-87740475D01*
X32505238Y-88026189D01*
X32814761Y-88026189D01*
X32981428Y-87526189D02*
X33290952Y-87526189D01*
X33124285Y-87716665D01*
X33195714Y-87716665D01*
X33243333Y-87740475D01*
X33267142Y-87764284D01*
X33290952Y-87811903D01*
X33290952Y-87930951D01*
X33267142Y-87978570D01*
X33243333Y-88002379D01*
X33195714Y-88026189D01*
X33052857Y-88026189D01*
X33005238Y-88002379D01*
X32981428Y-87978570D01*
%TO.C,C31*%
X88103571Y-85523571D02*
X88079761Y-85547380D01*
X88008333Y-85571190D01*
X87960714Y-85571190D01*
X87889285Y-85547380D01*
X87841666Y-85499761D01*
X87817857Y-85452142D01*
X87794047Y-85356904D01*
X87794047Y-85285476D01*
X87817857Y-85190238D01*
X87841666Y-85142619D01*
X87889285Y-85095000D01*
X87960714Y-85071190D01*
X88008333Y-85071190D01*
X88079761Y-85095000D01*
X88103571Y-85118809D01*
X88270238Y-85071190D02*
X88579761Y-85071190D01*
X88413095Y-85261666D01*
X88484523Y-85261666D01*
X88532142Y-85285476D01*
X88555952Y-85309285D01*
X88579761Y-85356904D01*
X88579761Y-85475952D01*
X88555952Y-85523571D01*
X88532142Y-85547380D01*
X88484523Y-85571190D01*
X88341666Y-85571190D01*
X88294047Y-85547380D01*
X88270238Y-85523571D01*
X89055952Y-85571190D02*
X88770238Y-85571190D01*
X88913095Y-85571190D02*
X88913095Y-85071190D01*
X88865476Y-85142619D01*
X88817857Y-85190238D01*
X88770238Y-85214047D01*
%TO.C,C41*%
X42858571Y-82026071D02*
X42834761Y-82049880D01*
X42763333Y-82073690D01*
X42715714Y-82073690D01*
X42644285Y-82049880D01*
X42596666Y-82002261D01*
X42572857Y-81954642D01*
X42549047Y-81859404D01*
X42549047Y-81787976D01*
X42572857Y-81692738D01*
X42596666Y-81645119D01*
X42644285Y-81597500D01*
X42715714Y-81573690D01*
X42763333Y-81573690D01*
X42834761Y-81597500D01*
X42858571Y-81621309D01*
X43287142Y-81740357D02*
X43287142Y-82073690D01*
X43168095Y-81549880D02*
X43049047Y-81907023D01*
X43358571Y-81907023D01*
X43810952Y-82073690D02*
X43525238Y-82073690D01*
X43668095Y-82073690D02*
X43668095Y-81573690D01*
X43620476Y-81645119D01*
X43572857Y-81692738D01*
X43525238Y-81716547D01*
%TO.C,C28*%
X85213570Y-75683571D02*
X85189760Y-75707380D01*
X85118332Y-75731190D01*
X85070713Y-75731190D01*
X84999284Y-75707380D01*
X84951665Y-75659761D01*
X84927856Y-75612142D01*
X84904046Y-75516904D01*
X84904046Y-75445476D01*
X84927856Y-75350238D01*
X84951665Y-75302619D01*
X84999284Y-75255000D01*
X85070713Y-75231190D01*
X85118332Y-75231190D01*
X85189760Y-75255000D01*
X85213570Y-75278809D01*
X85404046Y-75278809D02*
X85427856Y-75255000D01*
X85475475Y-75231190D01*
X85594522Y-75231190D01*
X85642141Y-75255000D01*
X85665951Y-75278809D01*
X85689760Y-75326428D01*
X85689760Y-75374047D01*
X85665951Y-75445476D01*
X85380237Y-75731190D01*
X85689760Y-75731190D01*
X85975475Y-75445476D02*
X85927856Y-75421666D01*
X85904046Y-75397857D01*
X85880237Y-75350238D01*
X85880237Y-75326428D01*
X85904046Y-75278809D01*
X85927856Y-75255000D01*
X85975475Y-75231190D01*
X86070713Y-75231190D01*
X86118332Y-75255000D01*
X86142141Y-75278809D01*
X86165951Y-75326428D01*
X86165951Y-75350238D01*
X86142141Y-75397857D01*
X86118332Y-75421666D01*
X86070713Y-75445476D01*
X85975475Y-75445476D01*
X85927856Y-75469285D01*
X85904046Y-75493095D01*
X85880237Y-75540714D01*
X85880237Y-75635952D01*
X85904046Y-75683571D01*
X85927856Y-75707380D01*
X85975475Y-75731190D01*
X86070713Y-75731190D01*
X86118332Y-75707380D01*
X86142141Y-75683571D01*
X86165951Y-75635952D01*
X86165951Y-75540714D01*
X86142141Y-75493095D01*
X86118332Y-75469285D01*
X86070713Y-75445476D01*
%TO.C,C40*%
X42628571Y-60848571D02*
X42604761Y-60872380D01*
X42533333Y-60896190D01*
X42485714Y-60896190D01*
X42414285Y-60872380D01*
X42366666Y-60824761D01*
X42342857Y-60777142D01*
X42319047Y-60681904D01*
X42319047Y-60610476D01*
X42342857Y-60515238D01*
X42366666Y-60467619D01*
X42414285Y-60420000D01*
X42485714Y-60396190D01*
X42533333Y-60396190D01*
X42604761Y-60420000D01*
X42628571Y-60443809D01*
X43057142Y-60562857D02*
X43057142Y-60896190D01*
X42938095Y-60372380D02*
X42819047Y-60729523D01*
X43128571Y-60729523D01*
X43414285Y-60396190D02*
X43461904Y-60396190D01*
X43509523Y-60420000D01*
X43533333Y-60443809D01*
X43557142Y-60491428D01*
X43580952Y-60586666D01*
X43580952Y-60705714D01*
X43557142Y-60800952D01*
X43533333Y-60848571D01*
X43509523Y-60872380D01*
X43461904Y-60896190D01*
X43414285Y-60896190D01*
X43366666Y-60872380D01*
X43342857Y-60848571D01*
X43319047Y-60800952D01*
X43295238Y-60705714D01*
X43295238Y-60586666D01*
X43319047Y-60491428D01*
X43342857Y-60443809D01*
X43366666Y-60420000D01*
X43414285Y-60396190D01*
D13*
%TO.C,D2*%
X28711904Y-55102380D02*
X28711904Y-54102380D01*
X28950000Y-54102380D01*
X29092857Y-54150000D01*
X29188095Y-54245238D01*
X29235714Y-54340476D01*
X29283333Y-54530952D01*
X29283333Y-54673809D01*
X29235714Y-54864285D01*
X29188095Y-54959523D01*
X29092857Y-55054761D01*
X28950000Y-55102380D01*
X28711904Y-55102380D01*
X29664285Y-54197619D02*
X29711904Y-54150000D01*
X29807142Y-54102380D01*
X30045238Y-54102380D01*
X30140476Y-54150000D01*
X30188095Y-54197619D01*
X30235714Y-54292857D01*
X30235714Y-54388095D01*
X30188095Y-54530952D01*
X29616666Y-55102380D01*
X30235714Y-55102380D01*
D12*
%TO.C,C23*%
X96113571Y-70782135D02*
X96137380Y-70805945D01*
X96161190Y-70877373D01*
X96161190Y-70924992D01*
X96137380Y-70996421D01*
X96089761Y-71044040D01*
X96042142Y-71067849D01*
X95946904Y-71091659D01*
X95875476Y-71091659D01*
X95780238Y-71067849D01*
X95732619Y-71044040D01*
X95685000Y-70996421D01*
X95661190Y-70924992D01*
X95661190Y-70877373D01*
X95685000Y-70805945D01*
X95708809Y-70782135D01*
X95708809Y-70591659D02*
X95685000Y-70567849D01*
X95661190Y-70520230D01*
X95661190Y-70401183D01*
X95685000Y-70353564D01*
X95708809Y-70329754D01*
X95756428Y-70305945D01*
X95804047Y-70305945D01*
X95875476Y-70329754D01*
X96161190Y-70615468D01*
X96161190Y-70305945D01*
X95661190Y-70139278D02*
X95661190Y-69829754D01*
X95851666Y-69996421D01*
X95851666Y-69924992D01*
X95875476Y-69877373D01*
X95899285Y-69853564D01*
X95946904Y-69829754D01*
X96065952Y-69829754D01*
X96113571Y-69853564D01*
X96137380Y-69877373D01*
X96161190Y-69924992D01*
X96161190Y-70067849D01*
X96137380Y-70115468D01*
X96113571Y-70139278D01*
%TO.C,C37*%
X42858571Y-82813571D02*
X42834761Y-82837380D01*
X42763333Y-82861190D01*
X42715714Y-82861190D01*
X42644285Y-82837380D01*
X42596666Y-82789761D01*
X42572857Y-82742142D01*
X42549047Y-82646904D01*
X42549047Y-82575476D01*
X42572857Y-82480238D01*
X42596666Y-82432619D01*
X42644285Y-82385000D01*
X42715714Y-82361190D01*
X42763333Y-82361190D01*
X42834761Y-82385000D01*
X42858571Y-82408809D01*
X43025238Y-82361190D02*
X43334761Y-82361190D01*
X43168095Y-82551666D01*
X43239523Y-82551666D01*
X43287142Y-82575476D01*
X43310952Y-82599285D01*
X43334761Y-82646904D01*
X43334761Y-82765952D01*
X43310952Y-82813571D01*
X43287142Y-82837380D01*
X43239523Y-82861190D01*
X43096666Y-82861190D01*
X43049047Y-82837380D01*
X43025238Y-82813571D01*
X43501428Y-82361190D02*
X43834761Y-82361190D01*
X43620476Y-82861190D01*
D13*
%TO.C,U3*%
X24803095Y-67262379D02*
X24803095Y-68071903D01*
X24850714Y-68167141D01*
X24898333Y-68214760D01*
X24993571Y-68262379D01*
X25184047Y-68262379D01*
X25279285Y-68214760D01*
X25326904Y-68167141D01*
X25374523Y-68071903D01*
X25374523Y-67262379D01*
X25755476Y-67262379D02*
X26374523Y-67262379D01*
X26041190Y-67643332D01*
X26184047Y-67643332D01*
X26279285Y-67690951D01*
X26326904Y-67738570D01*
X26374523Y-67833808D01*
X26374523Y-68071903D01*
X26326904Y-68167141D01*
X26279285Y-68214760D01*
X26184047Y-68262379D01*
X25898333Y-68262379D01*
X25803095Y-68214760D01*
X25755476Y-68167141D01*
%TO.C,C4*%
X81058333Y-56482142D02*
X81010714Y-56529761D01*
X80867857Y-56577380D01*
X80772619Y-56577380D01*
X80629761Y-56529761D01*
X80534523Y-56434523D01*
X80486904Y-56339285D01*
X80439285Y-56148809D01*
X80439285Y-56005952D01*
X80486904Y-55815476D01*
X80534523Y-55720238D01*
X80629761Y-55625000D01*
X80772619Y-55577380D01*
X80867857Y-55577380D01*
X81010714Y-55625000D01*
X81058333Y-55672619D01*
X81915476Y-55910714D02*
X81915476Y-56577380D01*
X81677380Y-55529761D02*
X81439285Y-56244047D01*
X82058333Y-56244047D01*
%TO.C,C6*%
X102243333Y-72127142D02*
X102195714Y-72174761D01*
X102052857Y-72222380D01*
X101957619Y-72222380D01*
X101814761Y-72174761D01*
X101719523Y-72079523D01*
X101671904Y-71984285D01*
X101624285Y-71793809D01*
X101624285Y-71650952D01*
X101671904Y-71460476D01*
X101719523Y-71365238D01*
X101814761Y-71270000D01*
X101957619Y-71222380D01*
X102052857Y-71222380D01*
X102195714Y-71270000D01*
X102243333Y-71317619D01*
X103100476Y-71222380D02*
X102910000Y-71222380D01*
X102814761Y-71270000D01*
X102767142Y-71317619D01*
X102671904Y-71460476D01*
X102624285Y-71650952D01*
X102624285Y-72031904D01*
X102671904Y-72127142D01*
X102719523Y-72174761D01*
X102814761Y-72222380D01*
X103005238Y-72222380D01*
X103100476Y-72174761D01*
X103148095Y-72127142D01*
X103195714Y-72031904D01*
X103195714Y-71793809D01*
X103148095Y-71698571D01*
X103100476Y-71650952D01*
X103005238Y-71603333D01*
X102814761Y-71603333D01*
X102719523Y-71650952D01*
X102671904Y-71698571D01*
X102624285Y-71793809D01*
D12*
%TO.C,C3*%
X26424762Y-59761612D02*
X26400953Y-59785421D01*
X26329524Y-59809231D01*
X26281905Y-59809231D01*
X26210476Y-59785421D01*
X26162857Y-59737802D01*
X26139048Y-59690183D01*
X26115238Y-59594945D01*
X26115238Y-59523517D01*
X26139048Y-59428279D01*
X26162857Y-59380660D01*
X26210476Y-59333041D01*
X26281905Y-59309231D01*
X26329524Y-59309231D01*
X26400953Y-59333041D01*
X26424762Y-59356850D01*
X26591429Y-59309231D02*
X26900953Y-59309231D01*
X26734286Y-59499707D01*
X26805715Y-59499707D01*
X26853334Y-59523517D01*
X26877143Y-59547326D01*
X26900953Y-59594945D01*
X26900953Y-59713993D01*
X26877143Y-59761612D01*
X26853334Y-59785421D01*
X26805715Y-59809231D01*
X26662857Y-59809231D01*
X26615238Y-59785421D01*
X26591429Y-59761612D01*
%TO.C,C43*%
X42858571Y-81238571D02*
X42834761Y-81262380D01*
X42763333Y-81286190D01*
X42715714Y-81286190D01*
X42644285Y-81262380D01*
X42596666Y-81214761D01*
X42572857Y-81167142D01*
X42549047Y-81071904D01*
X42549047Y-81000476D01*
X42572857Y-80905238D01*
X42596666Y-80857619D01*
X42644285Y-80810000D01*
X42715714Y-80786190D01*
X42763333Y-80786190D01*
X42834761Y-80810000D01*
X42858571Y-80833809D01*
X43287142Y-80952857D02*
X43287142Y-81286190D01*
X43168095Y-80762380D02*
X43049047Y-81119523D01*
X43358571Y-81119523D01*
X43501428Y-80786190D02*
X43810952Y-80786190D01*
X43644285Y-80976666D01*
X43715714Y-80976666D01*
X43763333Y-81000476D01*
X43787142Y-81024285D01*
X43810952Y-81071904D01*
X43810952Y-81190952D01*
X43787142Y-81238571D01*
X43763333Y-81262380D01*
X43715714Y-81286190D01*
X43572857Y-81286190D01*
X43525238Y-81262380D01*
X43501428Y-81238571D01*
%TO.C,R14*%
X36108571Y-68966190D02*
X35941904Y-68728095D01*
X35822857Y-68966190D02*
X35822857Y-68466190D01*
X36013333Y-68466190D01*
X36060952Y-68490000D01*
X36084761Y-68513809D01*
X36108571Y-68561428D01*
X36108571Y-68632857D01*
X36084761Y-68680476D01*
X36060952Y-68704285D01*
X36013333Y-68728095D01*
X35822857Y-68728095D01*
X36584761Y-68966190D02*
X36299047Y-68966190D01*
X36441904Y-68966190D02*
X36441904Y-68466190D01*
X36394285Y-68537619D01*
X36346666Y-68585238D01*
X36299047Y-68609047D01*
X37013333Y-68632857D02*
X37013333Y-68966190D01*
X36894285Y-68442380D02*
X36775238Y-68799523D01*
X37084761Y-68799523D01*
%TO.C,R20*%
X36258571Y-88056190D02*
X36091904Y-87818095D01*
X35972857Y-88056190D02*
X35972857Y-87556190D01*
X36163333Y-87556190D01*
X36210952Y-87580000D01*
X36234761Y-87603809D01*
X36258571Y-87651428D01*
X36258571Y-87722857D01*
X36234761Y-87770476D01*
X36210952Y-87794285D01*
X36163333Y-87818095D01*
X35972857Y-87818095D01*
X36449047Y-87603809D02*
X36472857Y-87580000D01*
X36520476Y-87556190D01*
X36639523Y-87556190D01*
X36687142Y-87580000D01*
X36710952Y-87603809D01*
X36734761Y-87651428D01*
X36734761Y-87699047D01*
X36710952Y-87770476D01*
X36425238Y-88056190D01*
X36734761Y-88056190D01*
X37044285Y-87556190D02*
X37091904Y-87556190D01*
X37139523Y-87580000D01*
X37163333Y-87603809D01*
X37187142Y-87651428D01*
X37210952Y-87746666D01*
X37210952Y-87865714D01*
X37187142Y-87960952D01*
X37163333Y-88008571D01*
X37139523Y-88032380D01*
X37091904Y-88056190D01*
X37044285Y-88056190D01*
X36996666Y-88032380D01*
X36972857Y-88008571D01*
X36949047Y-87960952D01*
X36925238Y-87865714D01*
X36925238Y-87746666D01*
X36949047Y-87651428D01*
X36972857Y-87603809D01*
X36996666Y-87580000D01*
X37044285Y-87556190D01*
%TO.C,R21*%
X80296071Y-80146190D02*
X80129404Y-79908095D01*
X80010357Y-80146190D02*
X80010357Y-79646190D01*
X80200833Y-79646190D01*
X80248452Y-79670000D01*
X80272261Y-79693809D01*
X80296071Y-79741428D01*
X80296071Y-79812857D01*
X80272261Y-79860476D01*
X80248452Y-79884285D01*
X80200833Y-79908095D01*
X80010357Y-79908095D01*
X80486547Y-79693809D02*
X80510357Y-79670000D01*
X80557976Y-79646190D01*
X80677023Y-79646190D01*
X80724642Y-79670000D01*
X80748452Y-79693809D01*
X80772261Y-79741428D01*
X80772261Y-79789047D01*
X80748452Y-79860476D01*
X80462738Y-80146190D01*
X80772261Y-80146190D01*
X81248452Y-80146190D02*
X80962738Y-80146190D01*
X81105595Y-80146190D02*
X81105595Y-79646190D01*
X81057976Y-79717619D01*
X81010357Y-79765238D01*
X80962738Y-79789047D01*
D13*
%TO.C,C17*%
X87157143Y-56807142D02*
X87109524Y-56854761D01*
X86966667Y-56902380D01*
X86871429Y-56902380D01*
X86728572Y-56854761D01*
X86633334Y-56759523D01*
X86585715Y-56664285D01*
X86538096Y-56473809D01*
X86538096Y-56330952D01*
X86585715Y-56140476D01*
X86633334Y-56045238D01*
X86728572Y-55950000D01*
X86871429Y-55902380D01*
X86966667Y-55902380D01*
X87109524Y-55950000D01*
X87157143Y-55997619D01*
X88109524Y-56902380D02*
X87538096Y-56902380D01*
X87823810Y-56902380D02*
X87823810Y-55902380D01*
X87728572Y-56045238D01*
X87633334Y-56140476D01*
X87538096Y-56188095D01*
X88442858Y-55902380D02*
X89109524Y-55902380D01*
X88680953Y-56902380D01*
%TO.C,R16*%
X64517142Y-65732380D02*
X64183809Y-65256190D01*
X63945714Y-65732380D02*
X63945714Y-64732380D01*
X64326666Y-64732380D01*
X64421904Y-64780000D01*
X64469523Y-64827619D01*
X64517142Y-64922857D01*
X64517142Y-65065714D01*
X64469523Y-65160952D01*
X64421904Y-65208571D01*
X64326666Y-65256190D01*
X63945714Y-65256190D01*
X65469523Y-65732380D02*
X64898095Y-65732380D01*
X65183809Y-65732380D02*
X65183809Y-64732380D01*
X65088571Y-64875238D01*
X64993333Y-64970476D01*
X64898095Y-65018095D01*
X66326666Y-64732380D02*
X66136190Y-64732380D01*
X66040952Y-64780000D01*
X65993333Y-64827619D01*
X65898095Y-64970476D01*
X65850476Y-65160952D01*
X65850476Y-65541904D01*
X65898095Y-65637142D01*
X65945714Y-65684761D01*
X66040952Y-65732380D01*
X66231428Y-65732380D01*
X66326666Y-65684761D01*
X66374285Y-65637142D01*
X66421904Y-65541904D01*
X66421904Y-65303809D01*
X66374285Y-65208571D01*
X66326666Y-65160952D01*
X66231428Y-65113333D01*
X66040952Y-65113333D01*
X65945714Y-65160952D01*
X65898095Y-65208571D01*
X65850476Y-65303809D01*
%TO.C,C19*%
X90770966Y-56766902D02*
X90723347Y-56814521D01*
X90580490Y-56862140D01*
X90485252Y-56862140D01*
X90342395Y-56814521D01*
X90247157Y-56719283D01*
X90199538Y-56624045D01*
X90151919Y-56433569D01*
X90151919Y-56290712D01*
X90199538Y-56100236D01*
X90247157Y-56004998D01*
X90342395Y-55909760D01*
X90485252Y-55862140D01*
X90580490Y-55862140D01*
X90723347Y-55909760D01*
X90770966Y-55957379D01*
X91723347Y-56862140D02*
X91151919Y-56862140D01*
X91437633Y-56862140D02*
X91437633Y-55862140D01*
X91342395Y-56004998D01*
X91247157Y-56100236D01*
X91151919Y-56147855D01*
X92199538Y-56862140D02*
X92390014Y-56862140D01*
X92485252Y-56814521D01*
X92532871Y-56766902D01*
X92628109Y-56624045D01*
X92675728Y-56433569D01*
X92675728Y-56052617D01*
X92628109Y-55957379D01*
X92580490Y-55909760D01*
X92485252Y-55862140D01*
X92294776Y-55862140D01*
X92199538Y-55909760D01*
X92151919Y-55957379D01*
X92104300Y-56052617D01*
X92104300Y-56290712D01*
X92151919Y-56385950D01*
X92199538Y-56433569D01*
X92294776Y-56481188D01*
X92485252Y-56481188D01*
X92580490Y-56433569D01*
X92628109Y-56385950D01*
X92675728Y-56290712D01*
D12*
%TO.C,C39*%
X42858571Y-87178571D02*
X42834761Y-87202380D01*
X42763333Y-87226190D01*
X42715714Y-87226190D01*
X42644285Y-87202380D01*
X42596666Y-87154761D01*
X42572857Y-87107142D01*
X42549047Y-87011904D01*
X42549047Y-86940476D01*
X42572857Y-86845238D01*
X42596666Y-86797619D01*
X42644285Y-86750000D01*
X42715714Y-86726190D01*
X42763333Y-86726190D01*
X42834761Y-86750000D01*
X42858571Y-86773809D01*
X43025238Y-86726190D02*
X43334761Y-86726190D01*
X43168095Y-86916666D01*
X43239523Y-86916666D01*
X43287142Y-86940476D01*
X43310952Y-86964285D01*
X43334761Y-87011904D01*
X43334761Y-87130952D01*
X43310952Y-87178571D01*
X43287142Y-87202380D01*
X43239523Y-87226190D01*
X43096666Y-87226190D01*
X43049047Y-87202380D01*
X43025238Y-87178571D01*
X43572857Y-87226190D02*
X43668095Y-87226190D01*
X43715714Y-87202380D01*
X43739523Y-87178571D01*
X43787142Y-87107142D01*
X43810952Y-87011904D01*
X43810952Y-86821428D01*
X43787142Y-86773809D01*
X43763333Y-86750000D01*
X43715714Y-86726190D01*
X43620476Y-86726190D01*
X43572857Y-86750000D01*
X43549047Y-86773809D01*
X43525238Y-86821428D01*
X43525238Y-86940476D01*
X43549047Y-86988095D01*
X43572857Y-87011904D01*
X43620476Y-87035714D01*
X43715714Y-87035714D01*
X43763333Y-87011904D01*
X43787142Y-86988095D01*
X43810952Y-86940476D01*
%TO.C,R13*%
X28888571Y-88076190D02*
X28721904Y-87838095D01*
X28602857Y-88076190D02*
X28602857Y-87576190D01*
X28793333Y-87576190D01*
X28840952Y-87600000D01*
X28864761Y-87623809D01*
X28888571Y-87671428D01*
X28888571Y-87742857D01*
X28864761Y-87790476D01*
X28840952Y-87814285D01*
X28793333Y-87838095D01*
X28602857Y-87838095D01*
X29364761Y-88076190D02*
X29079047Y-88076190D01*
X29221904Y-88076190D02*
X29221904Y-87576190D01*
X29174285Y-87647619D01*
X29126666Y-87695238D01*
X29079047Y-87719047D01*
X29531428Y-87576190D02*
X29840952Y-87576190D01*
X29674285Y-87766666D01*
X29745714Y-87766666D01*
X29793333Y-87790476D01*
X29817142Y-87814285D01*
X29840952Y-87861904D01*
X29840952Y-87980952D01*
X29817142Y-88028571D01*
X29793333Y-88052380D01*
X29745714Y-88076190D01*
X29602857Y-88076190D01*
X29555238Y-88052380D01*
X29531428Y-88028571D01*
D13*
%TO.C,C22*%
X55232142Y-49617857D02*
X55279761Y-49665476D01*
X55327380Y-49808333D01*
X55327380Y-49903571D01*
X55279761Y-50046428D01*
X55184523Y-50141666D01*
X55089285Y-50189285D01*
X54898809Y-50236904D01*
X54755952Y-50236904D01*
X54565476Y-50189285D01*
X54470238Y-50141666D01*
X54375000Y-50046428D01*
X54327380Y-49903571D01*
X54327380Y-49808333D01*
X54375000Y-49665476D01*
X54422619Y-49617857D01*
X54422619Y-49236904D02*
X54375000Y-49189285D01*
X54327380Y-49094047D01*
X54327380Y-48855952D01*
X54375000Y-48760714D01*
X54422619Y-48713095D01*
X54517857Y-48665476D01*
X54613095Y-48665476D01*
X54755952Y-48713095D01*
X55327380Y-49284523D01*
X55327380Y-48665476D01*
X54422619Y-48284523D02*
X54375000Y-48236904D01*
X54327380Y-48141666D01*
X54327380Y-47903571D01*
X54375000Y-47808333D01*
X54422619Y-47760714D01*
X54517857Y-47713095D01*
X54613095Y-47713095D01*
X54755952Y-47760714D01*
X55327380Y-48332142D01*
X55327380Y-47713095D01*
D12*
%TO.C,R91*%
X80323571Y-80836190D02*
X80156904Y-80598095D01*
X80037857Y-80836190D02*
X80037857Y-80336190D01*
X80228333Y-80336190D01*
X80275952Y-80360000D01*
X80299761Y-80383809D01*
X80323571Y-80431428D01*
X80323571Y-80502857D01*
X80299761Y-80550476D01*
X80275952Y-80574285D01*
X80228333Y-80598095D01*
X80037857Y-80598095D01*
X80561666Y-80836190D02*
X80656904Y-80836190D01*
X80704523Y-80812380D01*
X80728333Y-80788571D01*
X80775952Y-80717142D01*
X80799761Y-80621904D01*
X80799761Y-80431428D01*
X80775952Y-80383809D01*
X80752142Y-80360000D01*
X80704523Y-80336190D01*
X80609285Y-80336190D01*
X80561666Y-80360000D01*
X80537857Y-80383809D01*
X80514047Y-80431428D01*
X80514047Y-80550476D01*
X80537857Y-80598095D01*
X80561666Y-80621904D01*
X80609285Y-80645714D01*
X80704523Y-80645714D01*
X80752142Y-80621904D01*
X80775952Y-80598095D01*
X80799761Y-80550476D01*
X81275952Y-80836190D02*
X80990238Y-80836190D01*
X81133095Y-80836190D02*
X81133095Y-80336190D01*
X81085476Y-80407619D01*
X81037857Y-80455238D01*
X80990238Y-80479047D01*
D13*
%TO.C,R4*%
X98020833Y-60266204D02*
X97687500Y-59790014D01*
X97449404Y-60266204D02*
X97449404Y-59266204D01*
X97830357Y-59266204D01*
X97925595Y-59313824D01*
X97973214Y-59361443D01*
X98020833Y-59456681D01*
X98020833Y-59599538D01*
X97973214Y-59694776D01*
X97925595Y-59742395D01*
X97830357Y-59790014D01*
X97449404Y-59790014D01*
X98877976Y-59599538D02*
X98877976Y-60266204D01*
X98639880Y-59218585D02*
X98401785Y-59932871D01*
X99020833Y-59932871D01*
D10*
%TO.C,Y2*%
X55225000Y-50650000D02*
X55225000Y-53450000D01*
X55225000Y-53450000D02*
X58525000Y-53450000D01*
%TO.C,R10*%
X29485276Y-70877500D02*
X29994724Y-70877500D01*
X29485276Y-71922500D02*
X29994724Y-71922500D01*
%TO.C,U8*%
X72885000Y-60610000D02*
X72640000Y-60610000D01*
X61115000Y-56750000D02*
X61115000Y-52890000D01*
X61115000Y-56750000D02*
X61115000Y-60610000D01*
X61115000Y-60610000D02*
X61360000Y-60610000D01*
X72640000Y-52890000D02*
X72640000Y-51075000D01*
X72885000Y-52890000D02*
X72640000Y-52890000D01*
X72885000Y-56750000D02*
X72885000Y-52890000D01*
X61115000Y-52890000D02*
X61360000Y-52890000D01*
X72885000Y-56750000D02*
X72885000Y-60610000D01*
%TO.C,U5*%
X53865000Y-58750000D02*
X53865000Y-60950000D01*
X53865000Y-58750000D02*
X53865000Y-56550000D01*
X60635000Y-58750000D02*
X60635000Y-60950000D01*
X60635000Y-58750000D02*
X60635000Y-55150000D01*
%TO.C,TP4*%
X41700000Y-73900000D02*
G75*
G03*
X41700000Y-73900000I-700000J0D01*
G01*
%TO.C,C36*%
X39848748Y-66405000D02*
X40371252Y-66405000D01*
X39848748Y-67875000D02*
X40371252Y-67875000D01*
%TO.C,L2*%
X31000000Y-64795000D02*
X32200000Y-64795000D01*
X31000000Y-57995000D02*
X31000000Y-59395000D01*
X31000000Y-57995000D02*
X32200000Y-57995000D01*
X37400000Y-64795000D02*
X37400000Y-63395000D01*
X37400000Y-57995000D02*
X37400000Y-59395000D01*
X37400000Y-64795000D02*
X36200000Y-64795000D01*
X31000000Y-64795000D02*
X31000000Y-63395000D01*
X37400000Y-57995000D02*
X36200000Y-57995000D01*
%TO.C,C33*%
X39543748Y-85712500D02*
X40966252Y-85712500D01*
X39543748Y-83892500D02*
X40966252Y-83892500D01*
%TO.C,U6*%
X31170000Y-80610000D02*
X27720000Y-80610000D01*
X31170000Y-85730000D02*
X33120000Y-85730000D01*
X31170000Y-80610000D02*
X33120000Y-80610000D01*
X31170000Y-85730000D02*
X29220000Y-85730000D01*
%TO.C,C15*%
X82615000Y-70303733D02*
X82615000Y-70596267D01*
X83635000Y-70303733D02*
X83635000Y-70596267D01*
%TO.C,C42*%
X39348748Y-61945000D02*
X39871252Y-61945000D01*
X39348748Y-63415000D02*
X39871252Y-63415000D01*
%TO.C,R7*%
X96290000Y-77446267D02*
X96290000Y-77153733D01*
X97310000Y-77446267D02*
X97310000Y-77153733D01*
%TO.C,C21*%
X58640000Y-52221267D02*
X58640000Y-51928733D01*
X59660000Y-52221267D02*
X59660000Y-51928733D01*
D15*
%TO.C,PAU301*%
X46000000Y-79345000D02*
X49000000Y-79345000D01*
X49000000Y-79345000D02*
X49000000Y-77845000D01*
D16*
X50500000Y-76845000D02*
X44500000Y-76845000D01*
D15*
X49000000Y-77845000D02*
X46000000Y-77845000D01*
X46000000Y-77845000D02*
X46000000Y-79345000D01*
D16*
X44500000Y-80345000D02*
X50500000Y-80345000D01*
D10*
%TO.C,U7*%
X99263687Y-64587273D02*
X99263687Y-61862273D01*
X99263687Y-61862273D02*
X99523687Y-61862273D01*
X104713687Y-64587273D02*
X104713687Y-67312273D01*
X104713687Y-67312273D02*
X104453687Y-67312273D01*
X99263687Y-64587273D02*
X99263687Y-67312273D01*
X104713687Y-64587273D02*
X104713687Y-61862273D01*
X104713687Y-61862273D02*
X104453687Y-61862273D01*
X99263687Y-67312273D02*
X99523687Y-67312273D01*
X104453687Y-61862273D02*
X104453687Y-60187273D01*
%TO.C,C11*%
X46885000Y-64488748D02*
X46885000Y-65011252D01*
X45415000Y-64488748D02*
X45415000Y-65011252D01*
%TO.C,C16*%
X61638748Y-63015000D02*
X62161252Y-63015000D01*
X61638748Y-64485000D02*
X62161252Y-64485000D01*
%TO.C,C38*%
X39848748Y-70405000D02*
X40371252Y-70405000D01*
X39848748Y-71875000D02*
X40371252Y-71875000D01*
%TO.C,JP2*%
X80300000Y-47475000D02*
X80300000Y-50275000D01*
X79000000Y-46825000D02*
X79600000Y-46825000D01*
X79600000Y-50925000D02*
X79000000Y-50925000D01*
X78300000Y-50275000D02*
X78300000Y-47475000D01*
X79600000Y-50925000D02*
G75*
G03*
X80300000Y-50225000I1J699999D01*
G01*
X78300000Y-50225000D02*
G75*
G03*
X79000000Y-50925000I699999J-1D01*
G01*
X79000000Y-46825000D02*
G75*
G03*
X78300000Y-47525000I-1J-699999D01*
G01*
X80300000Y-47525000D02*
G75*
G03*
X79600000Y-46825000I-699999J1D01*
G01*
%TO.C,C24*%
X86810000Y-70303733D02*
X86810000Y-70596267D01*
X85790000Y-70303733D02*
X85790000Y-70596267D01*
%TO.C,R19*%
X33164724Y-71892500D02*
X32655276Y-71892500D01*
X33164724Y-70847500D02*
X32655276Y-70847500D01*
%TO.C,C27*%
X94556252Y-86110000D02*
X94033748Y-86110000D01*
X94556252Y-87580000D02*
X94033748Y-87580000D01*
%TO.C,R5*%
X82072500Y-68370276D02*
X82072500Y-68879724D01*
X81027500Y-68370276D02*
X81027500Y-68879724D01*
%TO.C,J2*%
X77194838Y-85657500D02*
X77134838Y-85657500D01*
X77134838Y-85657500D02*
X77134838Y-87117500D01*
X56814838Y-85657500D02*
X56754838Y-85657500D01*
X56754838Y-82997500D02*
X56754838Y-85657500D01*
X77194838Y-82997500D02*
X77134838Y-82997500D01*
X56814838Y-82997500D02*
X56754838Y-82997500D01*
X77194838Y-82997500D02*
X77194838Y-85657500D01*
%TO.C,C18*%
X95560000Y-66203733D02*
X95560000Y-66496267D01*
X94540000Y-66203733D02*
X94540000Y-66496267D01*
%TO.C,C25*%
X29031252Y-62575000D02*
X28508748Y-62575000D01*
X29031252Y-61105000D02*
X28508748Y-61105000D01*
%TO.C,R9*%
X92057500Y-84684724D02*
X92057500Y-84175276D01*
X93102500Y-84684724D02*
X93102500Y-84175276D01*
%TO.C,TP5*%
X83500000Y-59500000D02*
G75*
G03*
X83500000Y-59500000I-700000J0D01*
G01*
%TO.C,U2*%
X52745000Y-64800000D02*
X52745000Y-62850000D01*
X47625000Y-64800000D02*
X47625000Y-68250000D01*
X47625000Y-64800000D02*
X47625000Y-62850000D01*
X52745000Y-64800000D02*
X52745000Y-66750000D01*
%TO.C,C9*%
X84240000Y-70303733D02*
X84240000Y-70596267D01*
X85260000Y-70303733D02*
X85260000Y-70596267D01*
%TO.C,C34*%
X28508748Y-64545000D02*
X29031252Y-64545000D01*
X28508748Y-63075000D02*
X29031252Y-63075000D01*
%TO.C,J5*%
X101590000Y-84000000D02*
X101590000Y-84635000D01*
X101590000Y-84635000D02*
X100955000Y-84635000D01*
%TO.C,C30*%
X96543748Y-75720000D02*
X97066252Y-75720000D01*
X96543748Y-74250000D02*
X97066252Y-74250000D01*
%TO.C,C7*%
X78853733Y-62610000D02*
X79146267Y-62610000D01*
X78853733Y-61590000D02*
X79146267Y-61590000D01*
%TO.C,C32*%
X39808748Y-69970000D02*
X41231252Y-69970000D01*
X39808748Y-68150000D02*
X41231252Y-68150000D01*
%TO.C,C5*%
X30096251Y-73083041D02*
X29573747Y-73083041D01*
X30096251Y-74553041D02*
X29573747Y-74553041D01*
%TO.C,R22*%
X81255276Y-79462500D02*
X81764724Y-79462500D01*
X81255276Y-78417500D02*
X81764724Y-78417500D01*
%TO.C,C8*%
X78853733Y-70034999D02*
X79146267Y-70034999D01*
X78853733Y-69014999D02*
X79146267Y-69014999D01*
D15*
%TO.C,J4*%
X52500000Y-42090000D02*
X26500000Y-42090000D01*
X63320000Y-48520000D02*
X62250000Y-48520000D01*
X117500000Y-30230000D02*
X117500000Y-14480000D01*
X52500000Y-42090000D02*
X52500000Y-53390000D01*
X81500000Y-42090000D02*
X71750000Y-42090000D01*
X62250000Y-48520000D02*
X62250000Y-42090000D01*
X70680000Y-42090000D02*
X70680000Y-48520000D01*
X16500000Y-42090000D02*
X16500000Y-30230000D01*
X62250000Y-42090000D02*
X52500000Y-42090000D01*
X117500000Y-30230000D02*
X117500000Y-42090000D01*
X107500000Y-42090000D02*
X107500000Y-53390000D01*
X71750000Y-48520000D02*
X70680000Y-48520000D01*
X63320000Y-42090000D02*
X62250000Y-42090000D01*
X117500000Y-14480000D02*
X16500000Y-14480000D01*
X71750000Y-42090000D02*
X70680000Y-42090000D01*
X63320000Y-42090000D02*
X63320000Y-48520000D01*
X52500000Y-53390000D02*
X26500000Y-53390000D01*
X70680000Y-48520000D02*
X68625000Y-48520000D01*
X117500000Y-42090000D02*
X107500000Y-42090000D01*
X16500000Y-14480000D02*
X16500000Y-30230000D01*
X26500000Y-53390000D02*
X26500000Y-42090000D01*
X16500000Y-30230000D02*
X117500000Y-30230000D01*
X81500000Y-53390000D02*
X81500000Y-42090000D01*
X107500000Y-42090000D02*
X81500000Y-42090000D01*
X65375000Y-45145000D02*
X65375000Y-48520000D01*
X68625000Y-48520000D02*
X68625000Y-45145000D01*
X71750000Y-42090000D02*
X71750000Y-48520000D01*
X65375000Y-48520000D02*
X63320000Y-48520000D01*
X107500000Y-53390000D02*
X81500000Y-53390000D01*
X70680000Y-42090000D02*
X63320000Y-42090000D01*
X26500000Y-42090000D02*
X16500000Y-42090000D01*
X68625000Y-45145000D02*
G75*
G03*
X67000000Y-43520000I-1624998J2D01*
G01*
X67000000Y-43520000D02*
G75*
G03*
X65375000Y-45145000I-2J-1624998D01*
G01*
D10*
%TO.C,C26*%
X30096251Y-75804020D02*
X29573747Y-75804020D01*
X30096251Y-77274020D02*
X29573747Y-77274020D01*
%TO.C,C35*%
X29573747Y-79995000D02*
X30096251Y-79995000D01*
X29573747Y-78525000D02*
X30096251Y-78525000D01*
%TO.C,C14*%
X90715000Y-70303733D02*
X90715000Y-70596267D01*
X91735000Y-70303733D02*
X91735000Y-70596267D01*
%TO.C,R18*%
X36694724Y-71902501D02*
X36185276Y-71902501D01*
X36694724Y-70857501D02*
X36185276Y-70857501D01*
%TO.C,C10*%
X97110000Y-66203733D02*
X97110000Y-66496267D01*
X96090000Y-66203733D02*
X96090000Y-66496267D01*
%TO.C,R17*%
X36345276Y-84607500D02*
X36854724Y-84607500D01*
X36345276Y-85652500D02*
X36854724Y-85652500D01*
%TO.C,R15*%
X48757500Y-59054724D02*
X48757500Y-58545276D01*
X47712500Y-59054724D02*
X47712500Y-58545276D01*
%TO.C,C12*%
X93260000Y-68028733D02*
X93260000Y-68321267D01*
X92240000Y-68028733D02*
X92240000Y-68321267D01*
D15*
%TO.C,MOD301*%
X49000000Y-83325000D02*
X46000000Y-83325000D01*
X49000000Y-84825000D02*
X49000000Y-83325000D01*
D16*
X44500000Y-85825000D02*
X50500000Y-85825000D01*
D15*
X46000000Y-84825000D02*
X49000000Y-84825000D01*
X46000000Y-83325000D02*
X46000000Y-84825000D01*
D16*
X50500000Y-82325000D02*
X44500000Y-82325000D01*
D10*
%TO.C,R3*%
X95345276Y-57627500D02*
X95854724Y-57627500D01*
X95345276Y-58672500D02*
X95854724Y-58672500D01*
%TO.C,R6*%
X103340000Y-77128733D02*
X103340000Y-77421267D01*
X104360000Y-77128733D02*
X104360000Y-77421267D01*
%TO.C,C29*%
X90493748Y-72150000D02*
X91016252Y-72150000D01*
X90493748Y-73620000D02*
X91016252Y-73620000D01*
%TO.C,TP6*%
X39400000Y-56900000D02*
G75*
G03*
X39400000Y-56900000I-700000J0D01*
G01*
%TO.C,D302*%
X79785000Y-76345000D02*
X79785000Y-74875000D01*
X79785000Y-74875000D02*
X77325000Y-74875000D01*
X77325000Y-76345000D02*
X79785000Y-76345000D01*
%TO.C,C13*%
X90135000Y-70303733D02*
X90135000Y-70596267D01*
X89115000Y-70303733D02*
X89115000Y-70596267D01*
D13*
%TO.C,U9*%
X78700000Y-54150000D02*
X78700000Y-59200000D01*
X73650000Y-59200000D02*
X73700000Y-59200000D01*
X78650000Y-54150000D02*
X78700000Y-54150000D01*
X78650000Y-59200000D02*
X78700000Y-59200000D01*
X73650000Y-54150000D02*
X73650000Y-59200000D01*
X73650000Y-54150000D02*
X73700000Y-54150000D01*
D17*
X77950000Y-52825000D02*
G75*
G03*
X77950000Y-52825000I-125000J0D01*
G01*
D10*
%TO.C,U10*%
X84140000Y-68160000D02*
X84790000Y-68160000D01*
X91360000Y-68160000D02*
X90710000Y-68160000D01*
X84140000Y-60940000D02*
X84790000Y-60940000D01*
X91360000Y-67510000D02*
X91360000Y-68160000D01*
X84140000Y-67510000D02*
X84140000Y-68160000D01*
X91360000Y-61590000D02*
X91360000Y-60940000D01*
X84140000Y-61590000D02*
X84140000Y-60940000D01*
%TO.C,L3*%
X31955000Y-79955000D02*
X31955000Y-78555000D01*
X31955000Y-79955000D02*
X33155000Y-79955000D01*
X38355000Y-73155000D02*
X37155000Y-73155000D01*
X38355000Y-73155000D02*
X38355000Y-74555000D01*
X38355000Y-79955000D02*
X38355000Y-78555000D01*
X38355000Y-79955000D02*
X37155000Y-79955000D01*
X31955000Y-73155000D02*
X31955000Y-74555000D01*
X31955000Y-73155000D02*
X33155000Y-73155000D01*
%TO.C,R23*%
X32914724Y-86147499D02*
X32405276Y-86147499D01*
X32914724Y-87192499D02*
X32405276Y-87192499D01*
%TO.C,R104*%
X51139724Y-58122500D02*
X50630276Y-58122500D01*
X51139724Y-57077500D02*
X50630276Y-57077500D01*
%TO.C,C31*%
X85615000Y-83770563D02*
X85615000Y-83135000D01*
X84750000Y-80390000D02*
X85375000Y-80390000D01*
X91135000Y-79315000D02*
X91135000Y-81015000D01*
X85615000Y-80379437D02*
X86679437Y-79315000D01*
X85615000Y-80379437D02*
X85615000Y-81015000D01*
X86679437Y-79315000D02*
X91135000Y-79315000D01*
X85615000Y-83770563D02*
X86679437Y-84835000D01*
X85062500Y-80077500D02*
X85062500Y-80702500D01*
X86679437Y-84835000D02*
X91135000Y-84835000D01*
X91135000Y-84835000D02*
X91135000Y-83135000D01*
%TO.C,C41*%
X40068748Y-79892500D02*
X40591252Y-79892500D01*
X40068748Y-81362500D02*
X40591252Y-81362500D01*
%TO.C,C28*%
X83260000Y-75273748D02*
X83260000Y-75796252D01*
X84730000Y-75273748D02*
X84730000Y-75796252D01*
%TO.C,C40*%
X39348748Y-59905000D02*
X39871252Y-59905000D01*
X39348748Y-61375000D02*
X39871252Y-61375000D01*
%TO.C,D2*%
X27250001Y-55300000D02*
X31150001Y-55300000D01*
X27250001Y-55300000D02*
X27250001Y-57300000D01*
X27250001Y-57300000D02*
X31150001Y-57300000D01*
%TO.C,C23*%
X95535000Y-70303733D02*
X95535000Y-70596267D01*
X94515000Y-70303733D02*
X94515000Y-70596267D01*
%TO.C,TP7*%
X43600000Y-75800000D02*
G75*
G03*
X43600000Y-75800000I-700000J0D01*
G01*
%TO.C,C37*%
X40068748Y-83400000D02*
X40591252Y-83400000D01*
X40068748Y-81930000D02*
X40591252Y-81930000D01*
%TO.C,D301*%
X79812500Y-79665000D02*
X79812500Y-78195000D01*
X77352500Y-79665000D02*
X79812500Y-79665000D01*
X79812500Y-78195000D02*
X77352500Y-78195000D01*
%TO.C,U3*%
X31265000Y-65249999D02*
X33215000Y-65249999D01*
X31265000Y-70369999D02*
X29315000Y-70369999D01*
X31265000Y-65249999D02*
X27815000Y-65249999D01*
X31265000Y-70369999D02*
X33215000Y-70369999D01*
%TO.C,TP3*%
X36500000Y-56900000D02*
G75*
G03*
X36500000Y-56900000I-700000J0D01*
G01*
%TO.C,C4*%
X80085000Y-54878733D02*
X80085000Y-55171267D01*
X79065000Y-54878733D02*
X79065000Y-55171267D01*
%TO.C,C6*%
X103440000Y-71603733D02*
X103440000Y-71896267D01*
X104460000Y-71603733D02*
X104460000Y-71896267D01*
%TO.C,C3*%
X29031252Y-60310000D02*
X28508748Y-60310000D01*
X29031252Y-58840000D02*
X28508748Y-58840000D01*
%TO.C,D308*%
X77335000Y-78015000D02*
X79795000Y-78015000D01*
X79795000Y-76545000D02*
X77335000Y-76545000D01*
X79795000Y-78015000D02*
X79795000Y-76545000D01*
%TO.C,C43*%
X40068748Y-79325000D02*
X40591252Y-79325000D01*
X40068748Y-77855000D02*
X40591252Y-77855000D01*
%TO.C,R14*%
X36175276Y-70302500D02*
X36684724Y-70302500D01*
X36175276Y-69257500D02*
X36684724Y-69257500D01*
%TO.C,R20*%
X36854724Y-86157500D02*
X36345276Y-86157500D01*
X36854724Y-87202500D02*
X36345276Y-87202500D01*
%TO.C,R21*%
X81280276Y-76142500D02*
X81789724Y-76142500D01*
X81280276Y-75097500D02*
X81789724Y-75097500D01*
%TO.C,C17*%
X85090000Y-56435181D02*
X85090000Y-56142647D01*
X86110000Y-56435181D02*
X86110000Y-56142647D01*
%TO.C,R16*%
X61845276Y-65077500D02*
X62354724Y-65077500D01*
X61845276Y-66122500D02*
X62354724Y-66122500D01*
%TO.C,C19*%
X92000240Y-58710091D02*
X92000240Y-58417557D01*
X90980240Y-58710091D02*
X90980240Y-58417557D01*
%TO.C,C39*%
X40068748Y-87475000D02*
X40591252Y-87475000D01*
X40068748Y-86005000D02*
X40591252Y-86005000D01*
%TO.C,R13*%
X28945276Y-86167500D02*
X29454724Y-86167500D01*
X28945276Y-87212500D02*
X29454724Y-87212500D01*
%TO.C,TP8*%
X80300000Y-60300000D02*
G75*
G03*
X80300000Y-60300000I-700000J0D01*
G01*
%TO.C,C22*%
X54935000Y-52221267D02*
X54935000Y-51928733D01*
X53915000Y-52221267D02*
X53915000Y-51928733D01*
%TO.C,R91*%
X81250276Y-76747500D02*
X81759724Y-76747500D01*
X81250276Y-77792500D02*
X81759724Y-77792500D01*
%TO.C,R4*%
X95854724Y-59227500D02*
X95345276Y-59227500D01*
X95854724Y-60272500D02*
X95345276Y-60272500D01*
%TO.C,Y3*%
X76100000Y-68425000D02*
X80600000Y-68425000D01*
X80600000Y-68425000D02*
X80600000Y-63025000D01*
%TD*%
%LPC*%
D18*
%TO.C,Y2*%
X56000000Y-52750000D03*
X57750000Y-52750000D03*
X57750000Y-51350000D03*
X56000000Y-51350000D03*
%TD*%
D19*
%TO.C,R10*%
X28827500Y-71400000D03*
X30652500Y-71400000D03*
%TD*%
D20*
%TO.C,U8*%
X72080000Y-52100000D03*
X70810000Y-52100000D03*
X69540000Y-52100000D03*
X68270000Y-52100000D03*
X67000000Y-52100000D03*
X65730000Y-52100000D03*
X64460000Y-52100000D03*
X63190000Y-52100000D03*
X61920000Y-52100000D03*
X61920000Y-61400000D03*
X63190000Y-61400000D03*
X64460000Y-61400000D03*
X65730000Y-61400000D03*
X67000000Y-61400000D03*
X68270000Y-61400000D03*
X69540000Y-61400000D03*
X70810000Y-61400000D03*
X72080000Y-61400000D03*
%TD*%
D21*
%TO.C,U5*%
X60175000Y-55887500D03*
X59525000Y-55887500D03*
X58875000Y-55887500D03*
X58225000Y-55887500D03*
X57575000Y-55887500D03*
X56925000Y-55887500D03*
X56275000Y-55887500D03*
X55625000Y-55887500D03*
X54975000Y-55887500D03*
X54325000Y-55887500D03*
X54325000Y-61612500D03*
X54975000Y-61612500D03*
X55625000Y-61612500D03*
X56275000Y-61612500D03*
X56925000Y-61612500D03*
X57575000Y-61612500D03*
X58225000Y-61612500D03*
X58875000Y-61612500D03*
X59525000Y-61612500D03*
X60175000Y-61612500D03*
%TD*%
D22*
%TO.C,TP4*%
X41000000Y-73900000D03*
%TD*%
D23*
%TO.C,C36*%
X39072500Y-67140000D03*
X41147500Y-67140000D03*
%TD*%
D24*
%TO.C,L2*%
X34200000Y-63745000D03*
X34200000Y-59045000D03*
%TD*%
D25*
%TO.C,C33*%
X38780000Y-84802500D03*
X41730000Y-84802500D03*
%TD*%
D26*
%TO.C,U6*%
X28695000Y-81265000D03*
X28695000Y-82535000D03*
X28695000Y-83805000D03*
X28695000Y-85075000D03*
X33645000Y-85075000D03*
X33645000Y-83805000D03*
X33645000Y-82535000D03*
X33645000Y-81265000D03*
D27*
X31170000Y-83170000D03*
%TD*%
D28*
%TO.C,C15*%
X83125000Y-69587500D03*
X83125000Y-71312500D03*
%TD*%
D23*
%TO.C,C42*%
X38572500Y-62680000D03*
X40647500Y-62680000D03*
%TD*%
D29*
%TO.C,R7*%
X96800000Y-78162500D03*
X96800000Y-76437500D03*
%TD*%
%TO.C,C21*%
X59150000Y-52937500D03*
X59150000Y-51212500D03*
%TD*%
D30*
%TO.C,PAU301*%
X43500000Y-78595000D03*
X51500000Y-78595000D03*
%TD*%
D31*
%TO.C,U7*%
X103893687Y-60987273D03*
X102623687Y-60987273D03*
X101353687Y-60987273D03*
X100083687Y-60987273D03*
X100083687Y-68187273D03*
X101353687Y-68187273D03*
X102623687Y-68187273D03*
X103893687Y-68187273D03*
%TD*%
D32*
%TO.C,C11*%
X46150000Y-63712500D03*
X46150000Y-65787500D03*
%TD*%
D23*
%TO.C,C16*%
X60862500Y-63750000D03*
X62937500Y-63750000D03*
%TD*%
%TO.C,C38*%
X39072500Y-71140000D03*
X41147500Y-71140000D03*
%TD*%
D33*
%TO.C,JP2*%
X79300000Y-47575000D03*
D34*
X79300000Y-48875000D03*
D35*
X79300000Y-50175000D03*
%TD*%
D28*
%TO.C,C24*%
X86300000Y-69587500D03*
X86300000Y-71312500D03*
%TD*%
D36*
%TO.C,H304*%
X67000000Y-47000000D03*
%TD*%
D37*
%TO.C,R19*%
X33822500Y-71370000D03*
X31997500Y-71370000D03*
%TD*%
D38*
%TO.C,C27*%
X95332500Y-86845000D03*
X93257500Y-86845000D03*
%TD*%
D39*
%TO.C,R5*%
X81550000Y-67712500D03*
X81550000Y-69537500D03*
%TD*%
D40*
%TO.C,J2*%
X76499838Y-86127500D03*
X76499838Y-82527500D03*
X75229838Y-86127500D03*
X75229838Y-82527500D03*
X73959838Y-86127500D03*
X73959838Y-82527500D03*
X72689838Y-86127500D03*
X72689838Y-82527500D03*
X71419838Y-86127500D03*
X71419838Y-82527500D03*
X70149838Y-86127500D03*
X70149838Y-82527500D03*
X68879838Y-86127500D03*
X68879838Y-82527500D03*
X67609838Y-86127500D03*
X67609838Y-82527500D03*
X66339838Y-86127500D03*
X66339838Y-82527500D03*
X65069838Y-86127500D03*
X65069838Y-82527500D03*
X63799838Y-86127500D03*
X63799838Y-82527500D03*
X62529838Y-86127500D03*
X62529838Y-82527500D03*
X61259838Y-86127500D03*
X61259838Y-82527500D03*
X59989838Y-86127500D03*
X59989838Y-82527500D03*
X58719838Y-86127500D03*
X58719838Y-82527500D03*
X57449838Y-86127500D03*
X57449838Y-82527500D03*
D41*
X79062378Y-84252581D03*
D42*
X79074838Y-89277419D03*
D43*
X54924838Y-89239959D03*
D44*
X55018608Y-84240040D03*
%TD*%
D28*
%TO.C,C18*%
X95050000Y-65487500D03*
X95050000Y-67212500D03*
%TD*%
D38*
%TO.C,C25*%
X29807500Y-61840000D03*
X27732500Y-61840000D03*
%TD*%
D45*
%TO.C,R9*%
X92580000Y-85342500D03*
X92580000Y-83517500D03*
%TD*%
D22*
%TO.C,TP5*%
X82800000Y-59500000D03*
%TD*%
D46*
%TO.C,U2*%
X48280000Y-67275000D03*
X49550000Y-67275000D03*
X50820000Y-67275000D03*
X52090000Y-67275000D03*
X52090000Y-62325000D03*
X50820000Y-62325000D03*
X49550000Y-62325000D03*
X48280000Y-62325000D03*
%TD*%
D28*
%TO.C,C9*%
X84750000Y-69587500D03*
X84750000Y-71312500D03*
%TD*%
D23*
%TO.C,C34*%
X27732500Y-63810000D03*
X29807500Y-63810000D03*
%TD*%
D47*
%TO.C,J5*%
X97780000Y-82095000D03*
D48*
X101336000Y-80190000D03*
X100320000Y-85270000D03*
D47*
X97780000Y-85270000D03*
X102860000Y-82095000D03*
X102860000Y-85270000D03*
D48*
X99304000Y-80190000D03*
D49*
X100955000Y-84000000D03*
X99685000Y-84000000D03*
X100955000Y-82730000D03*
X99685000Y-82730000D03*
X100955000Y-81460000D03*
X99685000Y-81460000D03*
%TD*%
D23*
%TO.C,C30*%
X95767500Y-74985000D03*
X97842500Y-74985000D03*
%TD*%
D50*
%TO.C,C7*%
X78137500Y-62100000D03*
X79862500Y-62100000D03*
%TD*%
D25*
%TO.C,C32*%
X39045000Y-69060000D03*
X41995000Y-69060000D03*
%TD*%
D38*
%TO.C,C5*%
X30872499Y-73818041D03*
X28797499Y-73818041D03*
%TD*%
D19*
%TO.C,R22*%
X80597500Y-78940000D03*
X82422500Y-78940000D03*
%TD*%
D50*
%TO.C,C8*%
X78137500Y-69524999D03*
X79862500Y-69524999D03*
%TD*%
D51*
%TO.C,J4*%
X84025000Y-45040000D03*
D52*
X88215000Y-45040000D03*
X92405000Y-45040000D03*
X96595000Y-45040000D03*
X100785000Y-45040000D03*
X104975000Y-45040000D03*
X104975000Y-51390000D03*
X100785000Y-51390000D03*
X96595000Y-51390000D03*
X92405000Y-51390000D03*
X88215000Y-51390000D03*
X84025000Y-51390000D03*
D51*
X49975000Y-51390000D03*
D52*
X45785000Y-51390000D03*
X41595000Y-51390000D03*
X37405000Y-51390000D03*
X33215000Y-51390000D03*
X29025000Y-51390000D03*
X29025000Y-45040000D03*
X33215000Y-45040000D03*
X37405000Y-45040000D03*
X41595000Y-45040000D03*
X45785000Y-45040000D03*
X49975000Y-45040000D03*
%TD*%
D38*
%TO.C,C26*%
X30872499Y-76539020D03*
X28797499Y-76539020D03*
%TD*%
D23*
%TO.C,C35*%
X28797499Y-79260000D03*
X30872499Y-79260000D03*
%TD*%
D28*
%TO.C,C14*%
X91225000Y-69587500D03*
X91225000Y-71312500D03*
%TD*%
D37*
%TO.C,R18*%
X37352500Y-71380001D03*
X35527500Y-71380001D03*
%TD*%
D28*
%TO.C,C10*%
X96600000Y-65487500D03*
X96600000Y-67212500D03*
%TD*%
D19*
%TO.C,R17*%
X35687500Y-85130000D03*
X37512500Y-85130000D03*
%TD*%
D45*
%TO.C,R15*%
X48235000Y-59712500D03*
X48235000Y-57887500D03*
%TD*%
D28*
%TO.C,C12*%
X92750000Y-67312500D03*
X92750000Y-69037500D03*
%TD*%
D30*
%TO.C,MOD301*%
X43500000Y-84075000D03*
X51500000Y-84075000D03*
%TD*%
D19*
%TO.C,R3*%
X94687500Y-58150000D03*
X96512500Y-58150000D03*
%TD*%
D28*
%TO.C,R6*%
X103850000Y-76412500D03*
X103850000Y-78137500D03*
%TD*%
D23*
%TO.C,C29*%
X89717500Y-72885000D03*
X91792500Y-72885000D03*
%TD*%
D22*
%TO.C,TP6*%
X38700000Y-56900000D03*
%TD*%
D53*
%TO.C,D302*%
X79000000Y-75610000D03*
X77250000Y-75610000D03*
%TD*%
D28*
%TO.C,C13*%
X89625000Y-69587500D03*
X89625000Y-71312500D03*
%TD*%
D54*
%TO.C,U9*%
X77775000Y-54225000D03*
X76175000Y-54225000D03*
X74575000Y-54225000D03*
X74575000Y-59125000D03*
X76175000Y-59125000D03*
X77775000Y-59125000D03*
%TD*%
D55*
%TO.C,U10*%
X90350000Y-61112500D03*
X89950000Y-61112500D03*
X89550000Y-61112500D03*
X89150000Y-61112500D03*
X88750000Y-61112500D03*
X88350000Y-61112500D03*
X87950000Y-61112500D03*
X87550000Y-61112500D03*
X87150000Y-61112500D03*
X86750000Y-61112500D03*
X86350000Y-61112500D03*
X85950000Y-61112500D03*
X85550000Y-61112500D03*
X85150000Y-61112500D03*
D56*
X84312500Y-61950000D03*
X84312500Y-62350000D03*
X84312500Y-62750000D03*
X84312500Y-63150000D03*
X84312500Y-63550000D03*
X84312500Y-63950000D03*
X84312500Y-64350000D03*
X84312500Y-64750000D03*
X84312500Y-65150000D03*
X84312500Y-65550000D03*
X84312500Y-65950000D03*
X84312500Y-66350000D03*
X84312500Y-66750000D03*
X84312500Y-67150000D03*
D55*
X85150000Y-67987500D03*
X85550000Y-67987500D03*
X85950000Y-67987500D03*
X86350000Y-67987500D03*
X86750000Y-67987500D03*
X87150000Y-67987500D03*
X87550000Y-67987500D03*
X87950000Y-67987500D03*
X88350000Y-67987500D03*
X88750000Y-67987500D03*
X89150000Y-67987500D03*
X89550000Y-67987500D03*
X89950000Y-67987500D03*
X90350000Y-67987500D03*
D56*
X91187500Y-67150000D03*
X91187500Y-66750000D03*
X91187500Y-66350000D03*
X91187500Y-65950000D03*
X91187500Y-65550000D03*
X91187500Y-65150000D03*
X91187500Y-64750000D03*
X91187500Y-64350000D03*
X91187500Y-63950000D03*
X91187500Y-63550000D03*
X91187500Y-63150000D03*
X91187500Y-62750000D03*
X91187500Y-62350000D03*
X91187500Y-61950000D03*
D57*
X87750000Y-64550000D03*
%TD*%
D24*
%TO.C,L3*%
X35155000Y-78905000D03*
X35155000Y-74205000D03*
%TD*%
D37*
%TO.C,R23*%
X33572500Y-86669999D03*
X31747500Y-86669999D03*
%TD*%
%TO.C,R104*%
X51797500Y-57600000D03*
X49972500Y-57600000D03*
%TD*%
D58*
%TO.C,C31*%
X86175000Y-82075000D03*
X90575000Y-82075000D03*
%TD*%
D23*
%TO.C,C41*%
X39292500Y-80627500D03*
X41367500Y-80627500D03*
%TD*%
D32*
%TO.C,C28*%
X83995000Y-74497500D03*
X83995000Y-76572500D03*
%TD*%
D23*
%TO.C,C40*%
X38572500Y-60640000D03*
X40647500Y-60640000D03*
%TD*%
D59*
%TO.C,D2*%
X27850001Y-56300000D03*
X31150001Y-56300000D03*
%TD*%
D28*
%TO.C,C23*%
X95025000Y-69587500D03*
X95025000Y-71312500D03*
%TD*%
D22*
%TO.C,TP7*%
X42900000Y-75800000D03*
%TD*%
D23*
%TO.C,C37*%
X39292500Y-82665000D03*
X41367500Y-82665000D03*
%TD*%
D53*
%TO.C,D301*%
X79027500Y-78930000D03*
X77277500Y-78930000D03*
%TD*%
D36*
%TO.C,H302*%
X67000000Y-74000000D03*
%TD*%
D26*
%TO.C,U3*%
X28790000Y-65904999D03*
X28790000Y-67174999D03*
X28790000Y-68444999D03*
X28790000Y-69714999D03*
X33740000Y-69714999D03*
X33740000Y-68444999D03*
X33740000Y-67174999D03*
X33740000Y-65904999D03*
D27*
X31265000Y-67809999D03*
%TD*%
D22*
%TO.C,TP3*%
X35800000Y-56900000D03*
%TD*%
D28*
%TO.C,C4*%
X79575000Y-54162500D03*
X79575000Y-55887500D03*
%TD*%
%TO.C,C6*%
X103950000Y-70887500D03*
X103950000Y-72612500D03*
%TD*%
D38*
%TO.C,C3*%
X29807500Y-59575000D03*
X27732500Y-59575000D03*
%TD*%
D53*
%TO.C,D308*%
X79010000Y-77280000D03*
X77260000Y-77280000D03*
%TD*%
D23*
%TO.C,C43*%
X39292500Y-78590000D03*
X41367500Y-78590000D03*
%TD*%
D19*
%TO.C,R14*%
X35517500Y-69780000D03*
X37342500Y-69780000D03*
%TD*%
D37*
%TO.C,R20*%
X37512500Y-86680000D03*
X35687500Y-86680000D03*
%TD*%
D19*
%TO.C,R21*%
X80622500Y-75620000D03*
X82447500Y-75620000D03*
%TD*%
D29*
%TO.C,C17*%
X85600000Y-57151414D03*
X85600000Y-55426414D03*
%TD*%
D19*
%TO.C,R16*%
X61187500Y-65600000D03*
X63012500Y-65600000D03*
%TD*%
D29*
%TO.C,C19*%
X91490240Y-59426324D03*
X91490240Y-57701324D03*
%TD*%
D23*
%TO.C,C39*%
X39292500Y-86740000D03*
X41367500Y-86740000D03*
%TD*%
D19*
%TO.C,R13*%
X28287500Y-86690000D03*
X30112500Y-86690000D03*
%TD*%
D22*
%TO.C,TP8*%
X79600000Y-60300000D03*
%TD*%
D29*
%TO.C,C22*%
X54425000Y-52937500D03*
X54425000Y-51212500D03*
%TD*%
D19*
%TO.C,R91*%
X80592500Y-77270000D03*
X82417500Y-77270000D03*
%TD*%
D37*
%TO.C,R4*%
X96512500Y-59750000D03*
X94687500Y-59750000D03*
%TD*%
D60*
%TO.C,Y3*%
X79500000Y-67175000D03*
X79500000Y-64275000D03*
X77200000Y-64275000D03*
X77200000Y-67175000D03*
%TD*%
G36*
X97700083Y-43910002D02*
G01*
X97746576Y-43963658D01*
X97757946Y-44018021D01*
X97731076Y-45692932D01*
X97709984Y-45760723D01*
X97673761Y-45796555D01*
X97145189Y-46140127D01*
X97131499Y-46156093D01*
X97129945Y-46163252D01*
X97120075Y-48561884D01*
X97127350Y-48587044D01*
X97346920Y-48797465D01*
X97371061Y-48809988D01*
X106248583Y-48800058D01*
X106316726Y-48819984D01*
X106336777Y-48835933D01*
X107132026Y-49612899D01*
X107166774Y-49674811D01*
X107169973Y-49703089D01*
X107160065Y-68844065D01*
X107140028Y-68912176D01*
X107086348Y-68958641D01*
X107034065Y-68970000D01*
X106256201Y-68970000D01*
X106188080Y-68949998D01*
X106141587Y-68896342D01*
X106130201Y-68843800D01*
X106159971Y-50118115D01*
X106152624Y-50092944D01*
X105943091Y-49892522D01*
X105918943Y-49880025D01*
X97002354Y-49899883D01*
X96934188Y-49880032D01*
X96912978Y-49862978D01*
X96096722Y-49046722D01*
X96062696Y-48984410D01*
X96059818Y-48958069D01*
X96050064Y-46178117D01*
X96043138Y-46154834D01*
X96042078Y-46153663D01*
X95597288Y-45797830D01*
X95556590Y-45739657D01*
X95550000Y-45699441D01*
X95550000Y-44016000D01*
X95570002Y-43947879D01*
X95623658Y-43901386D01*
X95676000Y-43890000D01*
X97631962Y-43890000D01*
X97700083Y-43910002D01*
G37*
M02*
