%TF.GenerationSoftware,KiCad,Pcbnew,(6.0.2)*%
%TF.CreationDate,2022-04-25T10:39:50-06:00*%
%TF.ProjectId,CONEPROJ,434f4e45-5052-44f4-9a2e-6b696361645f,rev?*%
%TF.SameCoordinates,Original*%
%TF.FileFunction,Legend,Top*%
%TF.FilePolarity,Positive*%
%FSLAX46Y46*%
G04 Gerber Fmt 4.6, Leading zero omitted, Abs format (unit mm)*
G04 Created by KiCad (PCBNEW (6.0.2)) date 2022-04-25 10:39:50*
%MOMM*%
%LPD*%
G01*
G04 APERTURE LIST*
G04 Aperture macros list*
%AMRoundRect*
0 Rectangle with rounded corners*
0 $1 Rounding radius*
0 $2 $3 $4 $5 $6 $7 $8 $9 X,Y pos of 4 corners*
0 Add a 4 corners polygon primitive as box body*
4,1,4,$2,$3,$4,$5,$6,$7,$8,$9,$2,$3,0*
0 Add four circle primitives for the rounded corners*
1,1,$1+$1,$2,$3*
1,1,$1+$1,$4,$5*
1,1,$1+$1,$6,$7*
1,1,$1+$1,$8,$9*
0 Add four rect primitives between the rounded corners*
20,1,$1+$1,$2,$3,$4,$5,0*
20,1,$1+$1,$4,$5,$6,$7,0*
20,1,$1+$1,$6,$7,$8,$9,0*
20,1,$1+$1,$8,$9,$2,$3,0*%
G04 Aperture macros list end*
%ADD10C,0.120000*%
%ADD11C,0.075000*%
%ADD12C,0.125000*%
%ADD13C,0.150000*%
%ADD14C,0.050000*%
%ADD15C,0.127000*%
%ADD16C,0.254000*%
%ADD17C,0.400000*%
%ADD18C,0.250000*%
%ADD19C,0.304800*%
%ADD20R,1.150000X1.000000*%
%ADD21RoundRect,0.150000X-0.150000X0.875000X-0.150000X-0.875000X0.150000X-0.875000X0.150000X0.875000X0*%
%ADD22R,1.200000X0.900000*%
%ADD23RoundRect,0.100000X-0.100000X0.637500X-0.100000X-0.637500X0.100000X-0.637500X0.100000X0.637500X0*%
%ADD24R,2.350000X5.100000*%
%ADD25RoundRect,0.237500X0.237500X-0.250000X0.237500X0.250000X-0.237500X0.250000X-0.237500X-0.250000X0*%
%ADD26RoundRect,0.237500X-0.237500X0.300000X-0.237500X-0.300000X0.237500X-0.300000X0.237500X0.300000X0*%
%ADD27RoundRect,0.237500X0.237500X-0.300000X0.237500X0.300000X-0.237500X0.300000X-0.237500X-0.300000X0*%
%ADD28R,2.000000X2.000000*%
%ADD29RoundRect,0.150000X-0.150000X0.650000X-0.150000X-0.650000X0.150000X-0.650000X0.150000X0.650000X0*%
%ADD30RoundRect,0.250000X-0.475000X0.337500X-0.475000X-0.337500X0.475000X-0.337500X0.475000X0.337500X0*%
%ADD31RoundRect,0.250000X-0.337500X-0.475000X0.337500X-0.475000X0.337500X0.475000X-0.337500X0.475000X0*%
%ADD32C,5.600000*%
%ADD33RoundRect,0.250000X0.337500X0.475000X-0.337500X0.475000X-0.337500X-0.475000X0.337500X-0.475000X0*%
%ADD34RoundRect,0.237500X-0.237500X0.250000X-0.237500X-0.250000X0.237500X-0.250000X0.237500X0.250000X0*%
%ADD35R,0.750000X3.000000*%
%ADD36RoundRect,0.418770X-0.418770X1.006311X-0.418770X-1.006311X0.418770X-1.006311X0.418770X1.006311X0*%
%ADD37RoundRect,0.412540X-0.412540X0.887541X-0.412540X-0.887541X0.412540X-0.887541X0.412540X0.887541X0*%
%ADD38RoundRect,0.443770X-0.443770X0.893770X-0.443770X-0.893770X0.443770X-0.893770X0.443770X0.893770X0*%
%ADD39RoundRect,0.396885X-0.396885X1.015655X-0.396885X-1.015655X0.396885X-1.015655X0.396885X1.015655X0*%
%ADD40RoundRect,0.150000X0.150000X-0.825000X0.150000X0.825000X-0.150000X0.825000X-0.150000X-0.825000X0*%
%ADD41C,2.374900*%
%ADD42C,0.990600*%
%ADD43C,0.787400*%
%ADD44RoundRect,0.237500X-0.300000X-0.237500X0.300000X-0.237500X0.300000X0.237500X-0.300000X0.237500X0*%
%ADD45RoundRect,0.237500X-0.250000X-0.237500X0.250000X-0.237500X0.250000X0.237500X-0.250000X0.237500X0*%
%ADD46R,2.056000X2.056000*%
%ADD47C,2.056000*%
%ADD48RoundRect,0.250000X0.475000X-0.337500X0.475000X0.337500X-0.475000X0.337500X-0.475000X-0.337500X0*%
%ADD49RoundRect,0.237500X0.287500X0.237500X-0.287500X0.237500X-0.287500X-0.237500X0.287500X-0.237500X0*%
%ADD50R,1.000000X1.500000*%
%ADD51RoundRect,0.050000X-0.050000X0.387500X-0.050000X-0.387500X0.050000X-0.387500X0.050000X0.387500X0*%
%ADD52RoundRect,0.050000X-0.387500X0.050000X-0.387500X-0.050000X0.387500X-0.050000X0.387500X0.050000X0*%
%ADD53RoundRect,0.144000X-1.456000X1.456000X-1.456000X-1.456000X1.456000X-1.456000X1.456000X1.456000X0*%
%ADD54RoundRect,0.237500X0.250000X0.237500X-0.250000X0.237500X-0.250000X-0.237500X0.250000X-0.237500X0*%
%ADD55RoundRect,0.250000X-1.250000X-0.550000X1.250000X-0.550000X1.250000X0.550000X-1.250000X0.550000X0*%
%ADD56R,0.900000X1.200000*%
%ADD57R,2.200000X0.600000*%
%ADD58C,1.000000*%
%ADD59R,1.800000X2.100000*%
G04 APERTURE END LIST*
D10*
X69600000Y-81800000D02*
X69600000Y-80700000D01*
X96250000Y-79250000D02*
X104750000Y-79250000D01*
X104750000Y-79250000D02*
X104750000Y-88500000D01*
X104750000Y-88500000D02*
X96250000Y-88500000D01*
X96250000Y-88500000D02*
X96250000Y-79250000D01*
X55500000Y-75125000D02*
X62500000Y-75125000D01*
X60500000Y-72500000D02*
X60500000Y-77750000D01*
X76400000Y-72200000D02*
X76400000Y-79900000D01*
X70150000Y-75125000D02*
X76150000Y-75125000D01*
X69600000Y-80700000D02*
X69300000Y-80700000D01*
X75150000Y-72500000D02*
X75150000Y-75100000D01*
X62900000Y-72500000D02*
X62900000Y-77900000D01*
X71150000Y-72500000D02*
X71150000Y-77750000D01*
X49250000Y-55250000D02*
X52500000Y-55250000D01*
X52500000Y-55250000D02*
X52500000Y-58500000D01*
X52500000Y-58500000D02*
X49250000Y-58500000D01*
X49250000Y-58500000D02*
X49250000Y-55250000D01*
X55500000Y-72500000D02*
X62500000Y-72500000D01*
X62500000Y-72500000D02*
X62500000Y-77750000D01*
X62500000Y-77750000D02*
X55500000Y-77750000D01*
X55500000Y-77750000D02*
X55500000Y-72500000D01*
X70150000Y-72500000D02*
X76150000Y-72500000D01*
X76150000Y-72500000D02*
X76150000Y-77750000D01*
X76150000Y-77750000D02*
X70150000Y-77750000D01*
X70150000Y-77750000D02*
X70150000Y-72500000D01*
X73150000Y-72500000D02*
X73150000Y-77750000D01*
X62300000Y-72200000D02*
X62900000Y-72200000D01*
X69300000Y-80700000D02*
X69300000Y-77500000D01*
X68900000Y-77300000D02*
X69300000Y-77300000D01*
X58500000Y-72500000D02*
X58500000Y-77750000D01*
X69300000Y-77300000D02*
X69300000Y-77500000D01*
X65700000Y-81800000D02*
X65700000Y-80300000D01*
X62900000Y-72200000D02*
X62900000Y-72500000D01*
X68450000Y-78600000D02*
X68450000Y-79150000D01*
X62900000Y-77900000D02*
X65700000Y-80300000D01*
X67550000Y-78600000D02*
X67550000Y-79150000D01*
X61500000Y-72500000D02*
X61500000Y-77750000D01*
X76400000Y-79900000D02*
X77300000Y-80700000D01*
X56500000Y-72500000D02*
X56500000Y-77750000D01*
X57500000Y-72500000D02*
X57500000Y-77700000D01*
X66650000Y-78600000D02*
X66650000Y-79150000D01*
X66100000Y-77500000D02*
X69000000Y-77500000D01*
X69000000Y-77500000D02*
X69000000Y-80200000D01*
X69000000Y-80200000D02*
X66100000Y-80200000D01*
X66100000Y-80200000D02*
X66100000Y-77500000D01*
X66100000Y-78850000D02*
X69000000Y-78850000D01*
X74150000Y-72500000D02*
X74150000Y-77750000D01*
X59500000Y-72500000D02*
X59500000Y-75100000D01*
X72150000Y-72500000D02*
X72150000Y-77750000D01*
X77300000Y-80700000D02*
X77300000Y-81800000D01*
X76100000Y-72200000D02*
X76400000Y-72200000D01*
D11*
X71792857Y-77202380D02*
X71811904Y-77221428D01*
X71830952Y-77278571D01*
X71830952Y-77316666D01*
X71811904Y-77373809D01*
X71773809Y-77411904D01*
X71735714Y-77430952D01*
X71659523Y-77450000D01*
X71602380Y-77450000D01*
X71526190Y-77430952D01*
X71488095Y-77411904D01*
X71450000Y-77373809D01*
X71430952Y-77316666D01*
X71430952Y-77278571D01*
X71450000Y-77221428D01*
X71469047Y-77202380D01*
X71716666Y-77050000D02*
X71716666Y-76859523D01*
X71830952Y-77088095D02*
X71430952Y-76954761D01*
X71830952Y-76821428D01*
X71830952Y-76688095D02*
X71430952Y-76688095D01*
X71830952Y-76459523D01*
X71430952Y-76459523D01*
X71430952Y-76021428D02*
X71430952Y-75792857D01*
X71830952Y-75907142D02*
X71430952Y-75907142D01*
X71430952Y-75697619D02*
X71830952Y-75430952D01*
X71430952Y-75430952D02*
X71830952Y-75697619D01*
X56135714Y-74785714D02*
X55992857Y-74885714D01*
X56135714Y-74957142D02*
X55835714Y-74957142D01*
X55835714Y-74842857D01*
X55850000Y-74814285D01*
X55864285Y-74800000D01*
X55892857Y-74785714D01*
X55935714Y-74785714D01*
X55964285Y-74800000D01*
X55978571Y-74814285D01*
X55992857Y-74842857D01*
X55992857Y-74957142D01*
X56050000Y-74671428D02*
X56050000Y-74528571D01*
X56135714Y-74700000D02*
X55835714Y-74600000D01*
X56135714Y-74500000D01*
X56135714Y-74400000D02*
X55835714Y-74400000D01*
X55835714Y-74328571D01*
X55850000Y-74285714D01*
X55878571Y-74257142D01*
X55907142Y-74242857D01*
X55964285Y-74228571D01*
X56007142Y-74228571D01*
X56064285Y-74242857D01*
X56092857Y-74257142D01*
X56121428Y-74285714D01*
X56135714Y-74328571D01*
X56135714Y-74400000D01*
X56135714Y-74100000D02*
X55835714Y-74100000D01*
X55835714Y-73900000D02*
X55835714Y-73842857D01*
X55850000Y-73814285D01*
X55878571Y-73785714D01*
X55935714Y-73771428D01*
X56035714Y-73771428D01*
X56092857Y-73785714D01*
X56121428Y-73814285D01*
X56135714Y-73842857D01*
X56135714Y-73900000D01*
X56121428Y-73928571D01*
X56092857Y-73957142D01*
X56035714Y-73971428D01*
X55935714Y-73971428D01*
X55878571Y-73957142D01*
X55850000Y-73928571D01*
X55835714Y-73900000D01*
X56135714Y-73242857D02*
X55992857Y-73342857D01*
X56135714Y-73414285D02*
X55835714Y-73414285D01*
X55835714Y-73300000D01*
X55850000Y-73271428D01*
X55864285Y-73257142D01*
X55892857Y-73242857D01*
X55935714Y-73242857D01*
X55964285Y-73257142D01*
X55978571Y-73271428D01*
X55992857Y-73300000D01*
X55992857Y-73414285D01*
X56121428Y-73128571D02*
X56135714Y-73085714D01*
X56135714Y-73014285D01*
X56121428Y-72985714D01*
X56107142Y-72971428D01*
X56078571Y-72957142D01*
X56050000Y-72957142D01*
X56021428Y-72971428D01*
X56007142Y-72985714D01*
X55992857Y-73014285D01*
X55978571Y-73071428D01*
X55964285Y-73100000D01*
X55950000Y-73114285D01*
X55921428Y-73128571D01*
X55892857Y-73128571D01*
X55864285Y-73114285D01*
X55850000Y-73100000D01*
X55835714Y-73071428D01*
X55835714Y-73000000D01*
X55850000Y-72957142D01*
X55835714Y-72871428D02*
X55835714Y-72700000D01*
X56135714Y-72785714D02*
X55835714Y-72785714D01*
D12*
X66954760Y-79476190D02*
X67264284Y-79476190D01*
X67097618Y-79666666D01*
X67169046Y-79666666D01*
X67216665Y-79690476D01*
X67240475Y-79714285D01*
X67264284Y-79761904D01*
X67264284Y-79880952D01*
X67240475Y-79928571D01*
X67216665Y-79952380D01*
X67169046Y-79976190D01*
X67026189Y-79976190D01*
X66978570Y-79952380D01*
X66954760Y-79928571D01*
X67430951Y-79642857D02*
X67549999Y-79976190D01*
X67669046Y-79642857D01*
X67811903Y-79476190D02*
X68121427Y-79476190D01*
X67954760Y-79666666D01*
X68026189Y-79666666D01*
X68073808Y-79690476D01*
X68097618Y-79714285D01*
X68121427Y-79761904D01*
X68121427Y-79880952D01*
X68097618Y-79928571D01*
X68073808Y-79952380D01*
X68026189Y-79976190D01*
X67883332Y-79976190D01*
X67835713Y-79952380D01*
X67811903Y-79928571D01*
D13*
X37679523Y-72057380D02*
X37203333Y-72057380D01*
X37155714Y-72533571D01*
X37203333Y-72485952D01*
X37298571Y-72438333D01*
X37536666Y-72438333D01*
X37631904Y-72485952D01*
X37679523Y-72533571D01*
X37727142Y-72628809D01*
X37727142Y-72866904D01*
X37679523Y-72962142D01*
X37631904Y-73009761D01*
X37536666Y-73057380D01*
X37298571Y-73057380D01*
X37203333Y-73009761D01*
X37155714Y-72962142D01*
X38012857Y-72057380D02*
X38346190Y-73057380D01*
X38679523Y-72057380D01*
D12*
X60226190Y-74535714D02*
X59726190Y-74535714D01*
X60083333Y-74369047D01*
X59726190Y-74202380D01*
X60226190Y-74202380D01*
X60226190Y-73964285D02*
X59726190Y-73964285D01*
X60202380Y-73750000D02*
X60226190Y-73678571D01*
X60226190Y-73559523D01*
X60202380Y-73511904D01*
X60178571Y-73488095D01*
X60130952Y-73464285D01*
X60083333Y-73464285D01*
X60035714Y-73488095D01*
X60011904Y-73511904D01*
X59988095Y-73559523D01*
X59964285Y-73654761D01*
X59940476Y-73702380D01*
X59916666Y-73726190D01*
X59869047Y-73750000D01*
X59821428Y-73750000D01*
X59773809Y-73726190D01*
X59750000Y-73702380D01*
X59726190Y-73654761D01*
X59726190Y-73535714D01*
X59750000Y-73464285D01*
X59726190Y-73154761D02*
X59726190Y-73059523D01*
X59750000Y-73011904D01*
X59797619Y-72964285D01*
X59892857Y-72940476D01*
X60059523Y-72940476D01*
X60154761Y-72964285D01*
X60202380Y-73011904D01*
X60226190Y-73059523D01*
X60226190Y-73154761D01*
X60202380Y-73202380D01*
X60154761Y-73250000D01*
X60059523Y-73273809D01*
X59892857Y-73273809D01*
X59797619Y-73250000D01*
X59750000Y-73202380D01*
X59726190Y-73154761D01*
D13*
X35036904Y-89852380D02*
X35655952Y-89852380D01*
X35322619Y-90233333D01*
X35465476Y-90233333D01*
X35560714Y-90280952D01*
X35608333Y-90328571D01*
X35655952Y-90423809D01*
X35655952Y-90661904D01*
X35608333Y-90757142D01*
X35560714Y-90804761D01*
X35465476Y-90852380D01*
X35179761Y-90852380D01*
X35084523Y-90804761D01*
X35036904Y-90757142D01*
X35941666Y-89852380D02*
X36275000Y-90852380D01*
X36608333Y-89852380D01*
X36846428Y-89852380D02*
X37465476Y-89852380D01*
X37132142Y-90233333D01*
X37275000Y-90233333D01*
X37370238Y-90280952D01*
X37417857Y-90328571D01*
X37465476Y-90423809D01*
X37465476Y-90661904D01*
X37417857Y-90757142D01*
X37370238Y-90804761D01*
X37275000Y-90852380D01*
X36989285Y-90852380D01*
X36894047Y-90804761D01*
X36846428Y-90757142D01*
D12*
X58202380Y-74595238D02*
X58226190Y-74523809D01*
X58226190Y-74404761D01*
X58202380Y-74357142D01*
X58178571Y-74333333D01*
X58130952Y-74309523D01*
X58083333Y-74309523D01*
X58035714Y-74333333D01*
X58011904Y-74357142D01*
X57988095Y-74404761D01*
X57964285Y-74500000D01*
X57940476Y-74547619D01*
X57916666Y-74571428D01*
X57869047Y-74595238D01*
X57821428Y-74595238D01*
X57773809Y-74571428D01*
X57750000Y-74547619D01*
X57726190Y-74500000D01*
X57726190Y-74380952D01*
X57750000Y-74309523D01*
X58178571Y-73809523D02*
X58202380Y-73833333D01*
X58226190Y-73904761D01*
X58226190Y-73952380D01*
X58202380Y-74023809D01*
X58154761Y-74071428D01*
X58107142Y-74095238D01*
X58011904Y-74119047D01*
X57940476Y-74119047D01*
X57845238Y-74095238D01*
X57797619Y-74071428D01*
X57750000Y-74023809D01*
X57726190Y-73952380D01*
X57726190Y-73904761D01*
X57750000Y-73833333D01*
X57773809Y-73809523D01*
X58226190Y-73357142D02*
X58226190Y-73595238D01*
X57726190Y-73595238D01*
X58226190Y-73190476D02*
X57726190Y-73190476D01*
X58226190Y-72904761D02*
X57940476Y-73119047D01*
X57726190Y-72904761D02*
X58011904Y-73190476D01*
D14*
X83076190Y-42452380D02*
X83076190Y-43166666D01*
X83066666Y-43309523D01*
X83047619Y-43404761D01*
X83019047Y-43452380D01*
X83000000Y-43452380D01*
X83266666Y-43452380D02*
X83171428Y-43452380D01*
X83171428Y-42452380D01*
X83447619Y-43357142D02*
X83438095Y-43404761D01*
X83409523Y-43452380D01*
X83390476Y-43452380D01*
X83361904Y-43404761D01*
X83342857Y-43309523D01*
X83333333Y-43214285D01*
X83323809Y-43023809D01*
X83323809Y-42880952D01*
X83333333Y-42690476D01*
X83342857Y-42595238D01*
X83361904Y-42500000D01*
X83390476Y-42452380D01*
X83409523Y-42452380D01*
X83438095Y-42500000D01*
X83447619Y-42547619D01*
X83590476Y-42452380D02*
X83590476Y-43166666D01*
X83580952Y-43309523D01*
X83561904Y-43404761D01*
X83533333Y-43452380D01*
X83514285Y-43452380D01*
X83780952Y-43452380D02*
X83685714Y-43452380D01*
X83685714Y-42452380D01*
X83961904Y-43357142D02*
X83952380Y-43404761D01*
X83923809Y-43452380D01*
X83904761Y-43452380D01*
X83876190Y-43404761D01*
X83857142Y-43309523D01*
X83847619Y-43214285D01*
X83838095Y-43023809D01*
X83838095Y-42880952D01*
X83847619Y-42690476D01*
X83857142Y-42595238D01*
X83876190Y-42500000D01*
X83904761Y-42452380D01*
X83923809Y-42452380D01*
X83952380Y-42500000D01*
X83961904Y-42547619D01*
X84104761Y-42452380D02*
X84104761Y-43166666D01*
X84095238Y-43309523D01*
X84076190Y-43404761D01*
X84047619Y-43452380D01*
X84028571Y-43452380D01*
X84295238Y-43452380D02*
X84200000Y-43452380D01*
X84200000Y-42452380D01*
X84476190Y-43357142D02*
X84466666Y-43404761D01*
X84438095Y-43452380D01*
X84419047Y-43452380D01*
X84390476Y-43404761D01*
X84371428Y-43309523D01*
X84361904Y-43214285D01*
X84352380Y-43023809D01*
X84352380Y-42880952D01*
X84361904Y-42690476D01*
X84371428Y-42595238D01*
X84390476Y-42500000D01*
X84419047Y-42452380D01*
X84438095Y-42452380D01*
X84466666Y-42500000D01*
X84476190Y-42547619D01*
X84619047Y-42452380D02*
X84619047Y-43166666D01*
X84609523Y-43309523D01*
X84590476Y-43404761D01*
X84561904Y-43452380D01*
X84542857Y-43452380D01*
X84809523Y-43452380D02*
X84714285Y-43452380D01*
X84714285Y-42452380D01*
X84990476Y-43357142D02*
X84980952Y-43404761D01*
X84952380Y-43452380D01*
X84933333Y-43452380D01*
X84904761Y-43404761D01*
X84885714Y-43309523D01*
X84876190Y-43214285D01*
X84866666Y-43023809D01*
X84866666Y-42880952D01*
X84876190Y-42690476D01*
X84885714Y-42595238D01*
X84904761Y-42500000D01*
X84933333Y-42452380D01*
X84952380Y-42452380D01*
X84980952Y-42500000D01*
X84990476Y-42547619D01*
D12*
X72876190Y-76533333D02*
X72638095Y-76700000D01*
X72876190Y-76819047D02*
X72376190Y-76819047D01*
X72376190Y-76628571D01*
X72400000Y-76580952D01*
X72423809Y-76557142D01*
X72471428Y-76533333D01*
X72542857Y-76533333D01*
X72590476Y-76557142D01*
X72614285Y-76580952D01*
X72638095Y-76628571D01*
X72638095Y-76819047D01*
X72376190Y-76366666D02*
X72876190Y-76033333D01*
X72376190Y-76033333D02*
X72876190Y-76366666D01*
D11*
X62135714Y-74607142D02*
X61835714Y-74607142D01*
X62050000Y-74507142D01*
X61835714Y-74407142D01*
X62135714Y-74407142D01*
X62107142Y-74092857D02*
X62121428Y-74107142D01*
X62135714Y-74150000D01*
X62135714Y-74178571D01*
X62121428Y-74221428D01*
X62092857Y-74250000D01*
X62064285Y-74264285D01*
X62007142Y-74278571D01*
X61964285Y-74278571D01*
X61907142Y-74264285D01*
X61878571Y-74250000D01*
X61850000Y-74221428D01*
X61835714Y-74178571D01*
X61835714Y-74150000D01*
X61850000Y-74107142D01*
X61864285Y-74092857D01*
X62135714Y-73964285D02*
X61835714Y-73964285D01*
X61835714Y-73850000D01*
X61850000Y-73821428D01*
X61864285Y-73807142D01*
X61892857Y-73792857D01*
X61935714Y-73792857D01*
X61964285Y-73807142D01*
X61978571Y-73821428D01*
X61992857Y-73850000D01*
X61992857Y-73964285D01*
X62135714Y-73435714D02*
X61835714Y-73435714D01*
X62135714Y-73292857D02*
X61835714Y-73292857D01*
X62135714Y-73121428D01*
X61835714Y-73121428D01*
X61835714Y-73021428D02*
X61835714Y-72850000D01*
X62135714Y-72935714D02*
X61835714Y-72935714D01*
X61078571Y-76957142D02*
X61092857Y-76914285D01*
X61107142Y-76900000D01*
X61135714Y-76885714D01*
X61178571Y-76885714D01*
X61207142Y-76900000D01*
X61221428Y-76914285D01*
X61235714Y-76942857D01*
X61235714Y-77057142D01*
X60935714Y-77057142D01*
X60935714Y-76957142D01*
X60950000Y-76928571D01*
X60964285Y-76914285D01*
X60992857Y-76900000D01*
X61021428Y-76900000D01*
X61050000Y-76914285D01*
X61064285Y-76928571D01*
X61078571Y-76957142D01*
X61078571Y-77057142D01*
X60935714Y-76800000D02*
X60935714Y-76628571D01*
X61235714Y-76714285D02*
X60935714Y-76714285D01*
X61235714Y-76528571D02*
X60935714Y-76528571D01*
X61235714Y-76357142D01*
X60935714Y-76357142D01*
X61235714Y-75828571D02*
X61235714Y-76000000D01*
X61235714Y-75914285D02*
X60935714Y-75914285D01*
X60978571Y-75942857D01*
X61007142Y-75971428D01*
X61021428Y-76000000D01*
D13*
X40285714Y-76928571D02*
X40428571Y-76976190D01*
X40476190Y-77023809D01*
X40523809Y-77119047D01*
X40523809Y-77261904D01*
X40476190Y-77357142D01*
X40428571Y-77404761D01*
X40333333Y-77452380D01*
X39952380Y-77452380D01*
X39952380Y-76452380D01*
X40285714Y-76452380D01*
X40380952Y-76500000D01*
X40428571Y-76547619D01*
X40476190Y-76642857D01*
X40476190Y-76738095D01*
X40428571Y-76833333D01*
X40380952Y-76880952D01*
X40285714Y-76928571D01*
X39952380Y-76928571D01*
X41380952Y-76785714D02*
X41380952Y-77452380D01*
X40952380Y-76785714D02*
X40952380Y-77309523D01*
X41000000Y-77404761D01*
X41095238Y-77452380D01*
X41238095Y-77452380D01*
X41333333Y-77404761D01*
X41380952Y-77357142D01*
X41714285Y-76785714D02*
X42095238Y-76785714D01*
X41857142Y-76452380D02*
X41857142Y-77309523D01*
X41904761Y-77404761D01*
X42000000Y-77452380D01*
X42095238Y-77452380D01*
X42285714Y-76785714D02*
X42666666Y-76785714D01*
X42428571Y-76452380D02*
X42428571Y-77309523D01*
X42476190Y-77404761D01*
X42571428Y-77452380D01*
X42666666Y-77452380D01*
X43142857Y-77452380D02*
X43047619Y-77404761D01*
X43000000Y-77357142D01*
X42952380Y-77261904D01*
X42952380Y-76976190D01*
X43000000Y-76880952D01*
X43047619Y-76833333D01*
X43142857Y-76785714D01*
X43285714Y-76785714D01*
X43380952Y-76833333D01*
X43428571Y-76880952D01*
X43476190Y-76976190D01*
X43476190Y-77261904D01*
X43428571Y-77357142D01*
X43380952Y-77404761D01*
X43285714Y-77452380D01*
X43142857Y-77452380D01*
X43904761Y-76785714D02*
X43904761Y-77452380D01*
X43904761Y-76880952D02*
X43952380Y-76833333D01*
X44047619Y-76785714D01*
X44190476Y-76785714D01*
X44285714Y-76833333D01*
X44333333Y-76928571D01*
X44333333Y-77452380D01*
X46095238Y-77452380D02*
X45523809Y-77452380D01*
X45809523Y-77452380D02*
X45809523Y-76452380D01*
X45714285Y-76595238D01*
X45619047Y-76690476D01*
X45523809Y-76738095D01*
D11*
X61978571Y-76957142D02*
X61992857Y-76914285D01*
X62007142Y-76900000D01*
X62035714Y-76885714D01*
X62078571Y-76885714D01*
X62107142Y-76900000D01*
X62121428Y-76914285D01*
X62135714Y-76942857D01*
X62135714Y-77057142D01*
X61835714Y-77057142D01*
X61835714Y-76957142D01*
X61850000Y-76928571D01*
X61864285Y-76914285D01*
X61892857Y-76900000D01*
X61921428Y-76900000D01*
X61950000Y-76914285D01*
X61964285Y-76928571D01*
X61978571Y-76957142D01*
X61978571Y-77057142D01*
X61835714Y-76800000D02*
X61835714Y-76628571D01*
X62135714Y-76714285D02*
X61835714Y-76714285D01*
X62135714Y-76528571D02*
X61835714Y-76528571D01*
X62135714Y-76357142D01*
X61835714Y-76357142D01*
X61864285Y-76000000D02*
X61850000Y-75985714D01*
X61835714Y-75957142D01*
X61835714Y-75885714D01*
X61850000Y-75857142D01*
X61864285Y-75842857D01*
X61892857Y-75828571D01*
X61921428Y-75828571D01*
X61964285Y-75842857D01*
X62135714Y-76014285D01*
X62135714Y-75828571D01*
D12*
X59226190Y-74535714D02*
X58726190Y-74535714D01*
X59083333Y-74369047D01*
X58726190Y-74202380D01*
X59226190Y-74202380D01*
X58726190Y-73869047D02*
X58726190Y-73773809D01*
X58750000Y-73726190D01*
X58797619Y-73678571D01*
X58892857Y-73654761D01*
X59059523Y-73654761D01*
X59154761Y-73678571D01*
X59202380Y-73726190D01*
X59226190Y-73773809D01*
X59226190Y-73869047D01*
X59202380Y-73916666D01*
X59154761Y-73964285D01*
X59059523Y-73988095D01*
X58892857Y-73988095D01*
X58797619Y-73964285D01*
X58750000Y-73916666D01*
X58726190Y-73869047D01*
X59202380Y-73464285D02*
X59226190Y-73392857D01*
X59226190Y-73273809D01*
X59202380Y-73226190D01*
X59178571Y-73202380D01*
X59130952Y-73178571D01*
X59083333Y-73178571D01*
X59035714Y-73202380D01*
X59011904Y-73226190D01*
X58988095Y-73273809D01*
X58964285Y-73369047D01*
X58940476Y-73416666D01*
X58916666Y-73440476D01*
X58869047Y-73464285D01*
X58821428Y-73464285D01*
X58773809Y-73440476D01*
X58750000Y-73416666D01*
X58726190Y-73369047D01*
X58726190Y-73250000D01*
X58750000Y-73178571D01*
X59226190Y-72964285D02*
X58726190Y-72964285D01*
D13*
X40285714Y-82428571D02*
X40428571Y-82476190D01*
X40476190Y-82523809D01*
X40523809Y-82619047D01*
X40523809Y-82761904D01*
X40476190Y-82857142D01*
X40428571Y-82904761D01*
X40333333Y-82952380D01*
X39952380Y-82952380D01*
X39952380Y-81952380D01*
X40285714Y-81952380D01*
X40380952Y-82000000D01*
X40428571Y-82047619D01*
X40476190Y-82142857D01*
X40476190Y-82238095D01*
X40428571Y-82333333D01*
X40380952Y-82380952D01*
X40285714Y-82428571D01*
X39952380Y-82428571D01*
X41380952Y-82285714D02*
X41380952Y-82952380D01*
X40952380Y-82285714D02*
X40952380Y-82809523D01*
X41000000Y-82904761D01*
X41095238Y-82952380D01*
X41238095Y-82952380D01*
X41333333Y-82904761D01*
X41380952Y-82857142D01*
X41714285Y-82285714D02*
X42095238Y-82285714D01*
X41857142Y-81952380D02*
X41857142Y-82809523D01*
X41904761Y-82904761D01*
X42000000Y-82952380D01*
X42095238Y-82952380D01*
X42285714Y-82285714D02*
X42666666Y-82285714D01*
X42428571Y-81952380D02*
X42428571Y-82809523D01*
X42476190Y-82904761D01*
X42571428Y-82952380D01*
X42666666Y-82952380D01*
X43142857Y-82952380D02*
X43047619Y-82904761D01*
X43000000Y-82857142D01*
X42952380Y-82761904D01*
X42952380Y-82476190D01*
X43000000Y-82380952D01*
X43047619Y-82333333D01*
X43142857Y-82285714D01*
X43285714Y-82285714D01*
X43380952Y-82333333D01*
X43428571Y-82380952D01*
X43476190Y-82476190D01*
X43476190Y-82761904D01*
X43428571Y-82857142D01*
X43380952Y-82904761D01*
X43285714Y-82952380D01*
X43142857Y-82952380D01*
X43904761Y-82285714D02*
X43904761Y-82952380D01*
X43904761Y-82380952D02*
X43952380Y-82333333D01*
X44047619Y-82285714D01*
X44190476Y-82285714D01*
X44285714Y-82333333D01*
X44333333Y-82428571D01*
X44333333Y-82952380D01*
X45523809Y-82047619D02*
X45571428Y-82000000D01*
X45666666Y-81952380D01*
X45904761Y-81952380D01*
X46000000Y-82000000D01*
X46047619Y-82047619D01*
X46095238Y-82142857D01*
X46095238Y-82238095D01*
X46047619Y-82380952D01*
X45476190Y-82952380D01*
X46095238Y-82952380D01*
D12*
X59626190Y-76735714D02*
X59626190Y-77021428D01*
X59626190Y-76878571D02*
X59126190Y-76878571D01*
X59197619Y-76926190D01*
X59245238Y-76973809D01*
X59269047Y-77021428D01*
X59173809Y-76545238D02*
X59150000Y-76521428D01*
X59126190Y-76473809D01*
X59126190Y-76354761D01*
X59150000Y-76307142D01*
X59173809Y-76283333D01*
X59221428Y-76259523D01*
X59269047Y-76259523D01*
X59340476Y-76283333D01*
X59626190Y-76569047D01*
X59626190Y-76259523D01*
X59292857Y-76092857D02*
X59626190Y-75973809D01*
X59292857Y-75854761D01*
D11*
X58135714Y-77321428D02*
X57992857Y-77421428D01*
X58135714Y-77492857D02*
X57835714Y-77492857D01*
X57835714Y-77378571D01*
X57850000Y-77350000D01*
X57864285Y-77335714D01*
X57892857Y-77321428D01*
X57935714Y-77321428D01*
X57964285Y-77335714D01*
X57978571Y-77350000D01*
X57992857Y-77378571D01*
X57992857Y-77492857D01*
X58050000Y-77207142D02*
X58050000Y-77064285D01*
X58135714Y-77235714D02*
X57835714Y-77135714D01*
X58135714Y-77035714D01*
X58135714Y-76935714D02*
X57835714Y-76935714D01*
X57835714Y-76864285D01*
X57850000Y-76821428D01*
X57878571Y-76792857D01*
X57907142Y-76778571D01*
X57964285Y-76764285D01*
X58007142Y-76764285D01*
X58064285Y-76778571D01*
X58092857Y-76792857D01*
X58121428Y-76821428D01*
X58135714Y-76864285D01*
X58135714Y-76935714D01*
X58135714Y-76635714D02*
X57835714Y-76635714D01*
X57835714Y-76435714D02*
X57835714Y-76378571D01*
X57850000Y-76350000D01*
X57878571Y-76321428D01*
X57935714Y-76307142D01*
X58035714Y-76307142D01*
X58092857Y-76321428D01*
X58121428Y-76350000D01*
X58135714Y-76378571D01*
X58135714Y-76435714D01*
X58121428Y-76464285D01*
X58092857Y-76492857D01*
X58035714Y-76507142D01*
X57935714Y-76507142D01*
X57878571Y-76492857D01*
X57850000Y-76464285D01*
X57835714Y-76435714D01*
X58135714Y-75950000D02*
X57835714Y-75950000D01*
X58135714Y-75807142D02*
X57835714Y-75807142D01*
X58135714Y-75635714D01*
X57835714Y-75635714D01*
X57835714Y-75535714D02*
X57835714Y-75364285D01*
X58135714Y-75450000D02*
X57835714Y-75450000D01*
D12*
X67169046Y-77800000D02*
X67121427Y-77776190D01*
X67049999Y-77776190D01*
X66978570Y-77800000D01*
X66930951Y-77847619D01*
X66907141Y-77895238D01*
X66883332Y-77990476D01*
X66883332Y-78061904D01*
X66907141Y-78157142D01*
X66930951Y-78204761D01*
X66978570Y-78252380D01*
X67049999Y-78276190D01*
X67097618Y-78276190D01*
X67169046Y-78252380D01*
X67192856Y-78228571D01*
X67192856Y-78061904D01*
X67097618Y-78061904D01*
X67407141Y-78276190D02*
X67407141Y-77776190D01*
X67692856Y-78276190D01*
X67692856Y-77776190D01*
X67930951Y-78276190D02*
X67930951Y-77776190D01*
X68049999Y-77776190D01*
X68121427Y-77800000D01*
X68169046Y-77847619D01*
X68192856Y-77895238D01*
X68216665Y-77990476D01*
X68216665Y-78061904D01*
X68192856Y-78157142D01*
X68169046Y-78204761D01*
X68121427Y-78252380D01*
X68049999Y-78276190D01*
X67930951Y-78276190D01*
D11*
X57135714Y-74671428D02*
X56992857Y-74771428D01*
X57135714Y-74842857D02*
X56835714Y-74842857D01*
X56835714Y-74728571D01*
X56850000Y-74700000D01*
X56864285Y-74685714D01*
X56892857Y-74671428D01*
X56935714Y-74671428D01*
X56964285Y-74685714D01*
X56978571Y-74700000D01*
X56992857Y-74728571D01*
X56992857Y-74842857D01*
X57050000Y-74557142D02*
X57050000Y-74414285D01*
X57135714Y-74585714D02*
X56835714Y-74485714D01*
X57135714Y-74385714D01*
X57135714Y-74285714D02*
X56835714Y-74285714D01*
X56835714Y-74214285D01*
X56850000Y-74171428D01*
X56878571Y-74142857D01*
X56907142Y-74128571D01*
X56964285Y-74114285D01*
X57007142Y-74114285D01*
X57064285Y-74128571D01*
X57092857Y-74142857D01*
X57121428Y-74171428D01*
X57135714Y-74214285D01*
X57135714Y-74285714D01*
X57135714Y-73985714D02*
X56835714Y-73985714D01*
X56835714Y-73785714D02*
X56835714Y-73728571D01*
X56850000Y-73700000D01*
X56878571Y-73671428D01*
X56935714Y-73657142D01*
X57035714Y-73657142D01*
X57092857Y-73671428D01*
X57121428Y-73700000D01*
X57135714Y-73728571D01*
X57135714Y-73785714D01*
X57121428Y-73814285D01*
X57092857Y-73842857D01*
X57035714Y-73857142D01*
X56935714Y-73857142D01*
X56878571Y-73842857D01*
X56850000Y-73814285D01*
X56835714Y-73785714D01*
X57107142Y-73128571D02*
X57121428Y-73142857D01*
X57135714Y-73185714D01*
X57135714Y-73214285D01*
X57121428Y-73257142D01*
X57092857Y-73285714D01*
X57064285Y-73300000D01*
X57007142Y-73314285D01*
X56964285Y-73314285D01*
X56907142Y-73300000D01*
X56878571Y-73285714D01*
X56850000Y-73257142D01*
X56835714Y-73214285D01*
X56835714Y-73185714D01*
X56850000Y-73142857D01*
X56864285Y-73128571D01*
X57121428Y-73014285D02*
X57135714Y-72971428D01*
X57135714Y-72900000D01*
X57121428Y-72871428D01*
X57107142Y-72857142D01*
X57078571Y-72842857D01*
X57050000Y-72842857D01*
X57021428Y-72857142D01*
X57007142Y-72871428D01*
X56992857Y-72900000D01*
X56978571Y-72957142D01*
X56964285Y-72985714D01*
X56950000Y-73000000D01*
X56921428Y-73014285D01*
X56892857Y-73014285D01*
X56864285Y-73000000D01*
X56850000Y-72985714D01*
X56835714Y-72957142D01*
X56835714Y-72885714D01*
X56850000Y-72842857D01*
D12*
X82080000Y-81546190D02*
X81841904Y-81546190D01*
X81841904Y-81046190D01*
X82246666Y-81284285D02*
X82413333Y-81284285D01*
X82484761Y-81546190D02*
X82246666Y-81546190D01*
X82246666Y-81046190D01*
X82484761Y-81046190D01*
X82699047Y-81546190D02*
X82699047Y-81046190D01*
X82818095Y-81046190D01*
X82889523Y-81070000D01*
X82937142Y-81117619D01*
X82960952Y-81165238D01*
X82984761Y-81260476D01*
X82984761Y-81331904D01*
X82960952Y-81427142D01*
X82937142Y-81474761D01*
X82889523Y-81522380D01*
X82818095Y-81546190D01*
X82699047Y-81546190D01*
X83841904Y-81546190D02*
X83556190Y-81546190D01*
X83699047Y-81546190D02*
X83699047Y-81046190D01*
X83651428Y-81117619D01*
X83603809Y-81165238D01*
X83556190Y-81189047D01*
X73376190Y-76830952D02*
X73376190Y-76545238D01*
X73876190Y-76688095D02*
X73376190Y-76688095D01*
X73376190Y-76426190D02*
X73876190Y-76092857D01*
X73376190Y-76092857D02*
X73876190Y-76426190D01*
X71852380Y-74357142D02*
X71876190Y-74285714D01*
X71876190Y-74166666D01*
X71852380Y-74119047D01*
X71828571Y-74095238D01*
X71780952Y-74071428D01*
X71733333Y-74071428D01*
X71685714Y-74095238D01*
X71661904Y-74119047D01*
X71638095Y-74166666D01*
X71614285Y-74261904D01*
X71590476Y-74309523D01*
X71566666Y-74333333D01*
X71519047Y-74357142D01*
X71471428Y-74357142D01*
X71423809Y-74333333D01*
X71400000Y-74309523D01*
X71376190Y-74261904D01*
X71376190Y-74142857D01*
X71400000Y-74071428D01*
X71876190Y-73857142D02*
X71376190Y-73857142D01*
X71376190Y-73738095D01*
X71400000Y-73666666D01*
X71447619Y-73619047D01*
X71495238Y-73595238D01*
X71590476Y-73571428D01*
X71661904Y-73571428D01*
X71757142Y-73595238D01*
X71804761Y-73619047D01*
X71852380Y-73666666D01*
X71876190Y-73738095D01*
X71876190Y-73857142D01*
X71733333Y-73380952D02*
X71733333Y-73142857D01*
X71876190Y-73428571D02*
X71376190Y-73261904D01*
X71876190Y-73095238D01*
D11*
X56978571Y-77257142D02*
X56978571Y-77157142D01*
X57135714Y-77114285D02*
X57135714Y-77257142D01*
X56835714Y-77257142D01*
X56835714Y-77114285D01*
X56835714Y-77014285D02*
X57135714Y-76814285D01*
X56835714Y-76814285D02*
X57135714Y-77014285D01*
X56835714Y-76742857D02*
X56835714Y-76571428D01*
X57135714Y-76657142D02*
X56835714Y-76657142D01*
X57135714Y-76242857D02*
X56835714Y-76242857D01*
X56835714Y-76042857D02*
X56835714Y-75985714D01*
X56850000Y-75957142D01*
X56878571Y-75928571D01*
X56935714Y-75914285D01*
X57035714Y-75914285D01*
X57092857Y-75928571D01*
X57121428Y-75957142D01*
X57135714Y-75985714D01*
X57135714Y-76042857D01*
X57121428Y-76071428D01*
X57092857Y-76100000D01*
X57035714Y-76114285D01*
X56935714Y-76114285D01*
X56878571Y-76100000D01*
X56850000Y-76071428D01*
X56835714Y-76042857D01*
X56935714Y-75657142D02*
X57135714Y-75657142D01*
X56821428Y-75728571D02*
X57035714Y-75800000D01*
X57035714Y-75614285D01*
X70792857Y-77250000D02*
X70811904Y-77269047D01*
X70830952Y-77326190D01*
X70830952Y-77364285D01*
X70811904Y-77421428D01*
X70773809Y-77459523D01*
X70735714Y-77478571D01*
X70659523Y-77497619D01*
X70602380Y-77497619D01*
X70526190Y-77478571D01*
X70488095Y-77459523D01*
X70450000Y-77421428D01*
X70430952Y-77364285D01*
X70430952Y-77326190D01*
X70450000Y-77269047D01*
X70469047Y-77250000D01*
X70716666Y-77097619D02*
X70716666Y-76907142D01*
X70830952Y-77135714D02*
X70430952Y-77002380D01*
X70830952Y-76869047D01*
X70830952Y-76735714D02*
X70430952Y-76735714D01*
X70830952Y-76507142D01*
X70430952Y-76507142D01*
X70830952Y-75783333D02*
X70640476Y-75916666D01*
X70830952Y-76011904D02*
X70430952Y-76011904D01*
X70430952Y-75859523D01*
X70450000Y-75821428D01*
X70469047Y-75802380D01*
X70507142Y-75783333D01*
X70564285Y-75783333D01*
X70602380Y-75802380D01*
X70621428Y-75821428D01*
X70640476Y-75859523D01*
X70640476Y-76011904D01*
X70430952Y-75650000D02*
X70830952Y-75383333D01*
X70430952Y-75383333D02*
X70830952Y-75650000D01*
D12*
X82090000Y-80156190D02*
X81851904Y-80156190D01*
X81851904Y-79656190D01*
X82256666Y-79894285D02*
X82423333Y-79894285D01*
X82494761Y-80156190D02*
X82256666Y-80156190D01*
X82256666Y-79656190D01*
X82494761Y-79656190D01*
X82709047Y-80156190D02*
X82709047Y-79656190D01*
X82828095Y-79656190D01*
X82899523Y-79680000D01*
X82947142Y-79727619D01*
X82970952Y-79775238D01*
X82994761Y-79870476D01*
X82994761Y-79941904D01*
X82970952Y-80037142D01*
X82947142Y-80084761D01*
X82899523Y-80132380D01*
X82828095Y-80156190D01*
X82709047Y-80156190D01*
X83542380Y-79656190D02*
X83851904Y-79656190D01*
X83685238Y-79846666D01*
X83756666Y-79846666D01*
X83804285Y-79870476D01*
X83828095Y-79894285D01*
X83851904Y-79941904D01*
X83851904Y-80060952D01*
X83828095Y-80108571D01*
X83804285Y-80132380D01*
X83756666Y-80156190D01*
X83613809Y-80156190D01*
X83566190Y-80132380D01*
X83542380Y-80108571D01*
X72876190Y-74500000D02*
X72876190Y-74738095D01*
X72376190Y-74738095D01*
X72614285Y-74333333D02*
X72614285Y-74166666D01*
X72876190Y-74095238D02*
X72876190Y-74333333D01*
X72376190Y-74333333D01*
X72376190Y-74095238D01*
X72876190Y-73880952D02*
X72376190Y-73880952D01*
X72376190Y-73761904D01*
X72400000Y-73690476D01*
X72447619Y-73642857D01*
X72495238Y-73619047D01*
X72590476Y-73595238D01*
X72661904Y-73595238D01*
X72757142Y-73619047D01*
X72804761Y-73642857D01*
X72852380Y-73690476D01*
X72876190Y-73761904D01*
X72876190Y-73880952D01*
X72376190Y-73047619D02*
X72376190Y-72738095D01*
X72566666Y-72904761D01*
X72566666Y-72833333D01*
X72590476Y-72785714D01*
X72614285Y-72761904D01*
X72661904Y-72738095D01*
X72780952Y-72738095D01*
X72828571Y-72761904D01*
X72852380Y-72785714D01*
X72876190Y-72833333D01*
X72876190Y-72976190D01*
X72852380Y-73023809D01*
X72828571Y-73047619D01*
X74876190Y-76621428D02*
X74876190Y-76859523D01*
X75114285Y-76883333D01*
X75090476Y-76859523D01*
X75066666Y-76811904D01*
X75066666Y-76692857D01*
X75090476Y-76645238D01*
X75114285Y-76621428D01*
X75161904Y-76597619D01*
X75280952Y-76597619D01*
X75328571Y-76621428D01*
X75352380Y-76645238D01*
X75376190Y-76692857D01*
X75376190Y-76811904D01*
X75352380Y-76859523D01*
X75328571Y-76883333D01*
X75042857Y-76430952D02*
X75376190Y-76311904D01*
X75042857Y-76192857D01*
X73876190Y-74500000D02*
X73876190Y-74738095D01*
X73376190Y-74738095D01*
X73614285Y-74333333D02*
X73614285Y-74166666D01*
X73876190Y-74095238D02*
X73876190Y-74333333D01*
X73376190Y-74333333D01*
X73376190Y-74095238D01*
X73876190Y-73880952D02*
X73376190Y-73880952D01*
X73376190Y-73761904D01*
X73400000Y-73690476D01*
X73447619Y-73642857D01*
X73495238Y-73619047D01*
X73590476Y-73595238D01*
X73661904Y-73595238D01*
X73757142Y-73619047D01*
X73804761Y-73642857D01*
X73852380Y-73690476D01*
X73876190Y-73761904D01*
X73876190Y-73880952D01*
X73423809Y-73023809D02*
X73400000Y-73000000D01*
X73376190Y-72952380D01*
X73376190Y-72833333D01*
X73400000Y-72785714D01*
X73423809Y-72761904D01*
X73471428Y-72738095D01*
X73519047Y-72738095D01*
X73590476Y-72761904D01*
X73876190Y-73047619D01*
X73876190Y-72738095D01*
X82090000Y-80866190D02*
X81851904Y-80866190D01*
X81851904Y-80366190D01*
X82256666Y-80604285D02*
X82423333Y-80604285D01*
X82494761Y-80866190D02*
X82256666Y-80866190D01*
X82256666Y-80366190D01*
X82494761Y-80366190D01*
X82709047Y-80866190D02*
X82709047Y-80366190D01*
X82828095Y-80366190D01*
X82899523Y-80390000D01*
X82947142Y-80437619D01*
X82970952Y-80485238D01*
X82994761Y-80580476D01*
X82994761Y-80651904D01*
X82970952Y-80747142D01*
X82947142Y-80794761D01*
X82899523Y-80842380D01*
X82828095Y-80866190D01*
X82709047Y-80866190D01*
X83566190Y-80413809D02*
X83590000Y-80390000D01*
X83637619Y-80366190D01*
X83756666Y-80366190D01*
X83804285Y-80390000D01*
X83828095Y-80413809D01*
X83851904Y-80461428D01*
X83851904Y-80509047D01*
X83828095Y-80580476D01*
X83542380Y-80866190D01*
X83851904Y-80866190D01*
X70852380Y-74345238D02*
X70876190Y-74273809D01*
X70876190Y-74154761D01*
X70852380Y-74107142D01*
X70828571Y-74083333D01*
X70780952Y-74059523D01*
X70733333Y-74059523D01*
X70685714Y-74083333D01*
X70661904Y-74107142D01*
X70638095Y-74154761D01*
X70614285Y-74250000D01*
X70590476Y-74297619D01*
X70566666Y-74321428D01*
X70519047Y-74345238D01*
X70471428Y-74345238D01*
X70423809Y-74321428D01*
X70400000Y-74297619D01*
X70376190Y-74250000D01*
X70376190Y-74130952D01*
X70400000Y-74059523D01*
X70828571Y-73559523D02*
X70852380Y-73583333D01*
X70876190Y-73654761D01*
X70876190Y-73702380D01*
X70852380Y-73773809D01*
X70804761Y-73821428D01*
X70757142Y-73845238D01*
X70661904Y-73869047D01*
X70590476Y-73869047D01*
X70495238Y-73845238D01*
X70447619Y-73821428D01*
X70400000Y-73773809D01*
X70376190Y-73702380D01*
X70376190Y-73654761D01*
X70400000Y-73583333D01*
X70423809Y-73559523D01*
X70876190Y-73107142D02*
X70876190Y-73345238D01*
X70376190Y-73345238D01*
D11*
X55978571Y-77257142D02*
X55978571Y-77157142D01*
X56135714Y-77114285D02*
X56135714Y-77257142D01*
X55835714Y-77257142D01*
X55835714Y-77114285D01*
X55835714Y-77014285D02*
X56135714Y-76814285D01*
X55835714Y-76814285D02*
X56135714Y-77014285D01*
X55835714Y-76742857D02*
X55835714Y-76571428D01*
X56135714Y-76657142D02*
X55835714Y-76657142D01*
X56135714Y-76242857D02*
X55835714Y-76242857D01*
X55835714Y-76042857D02*
X55835714Y-75985714D01*
X55850000Y-75957142D01*
X55878571Y-75928571D01*
X55935714Y-75914285D01*
X56035714Y-75914285D01*
X56092857Y-75928571D01*
X56121428Y-75957142D01*
X56135714Y-75985714D01*
X56135714Y-76042857D01*
X56121428Y-76071428D01*
X56092857Y-76100000D01*
X56035714Y-76114285D01*
X55935714Y-76114285D01*
X55878571Y-76100000D01*
X55850000Y-76071428D01*
X55835714Y-76042857D01*
X55835714Y-75814285D02*
X55835714Y-75628571D01*
X55950000Y-75728571D01*
X55950000Y-75685714D01*
X55964285Y-75657142D01*
X55978571Y-75642857D01*
X56007142Y-75628571D01*
X56078571Y-75628571D01*
X56107142Y-75642857D01*
X56121428Y-75657142D01*
X56135714Y-75685714D01*
X56135714Y-75771428D01*
X56121428Y-75800000D01*
X56107142Y-75814285D01*
D12*
X75376190Y-74345238D02*
X75376190Y-74035714D01*
X75566666Y-74202380D01*
X75566666Y-74130952D01*
X75590476Y-74083333D01*
X75614285Y-74059523D01*
X75661904Y-74035714D01*
X75780952Y-74035714D01*
X75828571Y-74059523D01*
X75852380Y-74083333D01*
X75876190Y-74130952D01*
X75876190Y-74273809D01*
X75852380Y-74321428D01*
X75828571Y-74345238D01*
X75542857Y-73869047D02*
X75876190Y-73750000D01*
X75542857Y-73630952D01*
X75376190Y-73488095D02*
X75376190Y-73178571D01*
X75566666Y-73345238D01*
X75566666Y-73273809D01*
X75590476Y-73226190D01*
X75614285Y-73202380D01*
X75661904Y-73178571D01*
X75780952Y-73178571D01*
X75828571Y-73202380D01*
X75852380Y-73226190D01*
X75876190Y-73273809D01*
X75876190Y-73416666D01*
X75852380Y-73464285D01*
X75828571Y-73488095D01*
X74876190Y-74500000D02*
X74876190Y-74738095D01*
X74376190Y-74738095D01*
X74614285Y-74333333D02*
X74614285Y-74166666D01*
X74876190Y-74095238D02*
X74876190Y-74333333D01*
X74376190Y-74333333D01*
X74376190Y-74095238D01*
X74876190Y-73880952D02*
X74376190Y-73880952D01*
X74376190Y-73761904D01*
X74400000Y-73690476D01*
X74447619Y-73642857D01*
X74495238Y-73619047D01*
X74590476Y-73595238D01*
X74661904Y-73595238D01*
X74757142Y-73619047D01*
X74804761Y-73642857D01*
X74852380Y-73690476D01*
X74876190Y-73761904D01*
X74876190Y-73880952D01*
X74876190Y-72738095D02*
X74876190Y-73023809D01*
X74876190Y-72880952D02*
X74376190Y-72880952D01*
X74447619Y-72928571D01*
X74495238Y-72976190D01*
X74519047Y-73023809D01*
D13*
X50107142Y-56357142D02*
X50059523Y-56404761D01*
X49916666Y-56452380D01*
X49821428Y-56452380D01*
X49678571Y-56404761D01*
X49583333Y-56309523D01*
X49535714Y-56214285D01*
X49488095Y-56023809D01*
X49488095Y-55880952D01*
X49535714Y-55690476D01*
X49583333Y-55595238D01*
X49678571Y-55500000D01*
X49821428Y-55452380D01*
X49916666Y-55452380D01*
X50059523Y-55500000D01*
X50107142Y-55547619D01*
X50488095Y-56166666D02*
X50964285Y-56166666D01*
X50392857Y-56452380D02*
X50726190Y-55452380D01*
X51059523Y-56452380D01*
X51392857Y-56452380D02*
X51392857Y-55452380D01*
X51964285Y-56452380D01*
X51964285Y-55452380D01*
D12*
X98023809Y-87976190D02*
X97857142Y-87738095D01*
X97738095Y-87976190D02*
X97738095Y-87476190D01*
X97928571Y-87476190D01*
X97976190Y-87500000D01*
X98000000Y-87523809D01*
X98023809Y-87571428D01*
X98023809Y-87642857D01*
X98000000Y-87690476D01*
X97976190Y-87714285D01*
X97928571Y-87738095D01*
X97738095Y-87738095D01*
X98238095Y-87976190D02*
X98238095Y-87476190D01*
X98428571Y-87476190D01*
X98476190Y-87500000D01*
X98500000Y-87523809D01*
X98523809Y-87571428D01*
X98523809Y-87642857D01*
X98500000Y-87690476D01*
X98476190Y-87714285D01*
X98428571Y-87738095D01*
X98238095Y-87738095D01*
X98714285Y-87523809D02*
X98738095Y-87500000D01*
X98785714Y-87476190D01*
X98904761Y-87476190D01*
X98952380Y-87500000D01*
X98976190Y-87523809D01*
X99000000Y-87571428D01*
X99000000Y-87619047D01*
X98976190Y-87690476D01*
X98690476Y-87976190D01*
X99000000Y-87976190D01*
X99309523Y-87476190D02*
X99357142Y-87476190D01*
X99404761Y-87500000D01*
X99428571Y-87523809D01*
X99452380Y-87571428D01*
X99476190Y-87666666D01*
X99476190Y-87785714D01*
X99452380Y-87880952D01*
X99428571Y-87928571D01*
X99404761Y-87952380D01*
X99357142Y-87976190D01*
X99309523Y-87976190D01*
X99261904Y-87952380D01*
X99238095Y-87928571D01*
X99214285Y-87880952D01*
X99190476Y-87785714D01*
X99190476Y-87666666D01*
X99214285Y-87571428D01*
X99238095Y-87523809D01*
X99261904Y-87500000D01*
X99309523Y-87476190D01*
X99904761Y-87642857D02*
X99904761Y-87976190D01*
X99785714Y-87452380D02*
X99666666Y-87809523D01*
X99976190Y-87809523D01*
X100261904Y-87476190D02*
X100309523Y-87476190D01*
X100357142Y-87500000D01*
X100380952Y-87523809D01*
X100404761Y-87571428D01*
X100428571Y-87666666D01*
X100428571Y-87785714D01*
X100404761Y-87880952D01*
X100380952Y-87928571D01*
X100357142Y-87952380D01*
X100309523Y-87976190D01*
X100261904Y-87976190D01*
X100214285Y-87952380D01*
X100190476Y-87928571D01*
X100166666Y-87880952D01*
X100142857Y-87785714D01*
X100142857Y-87666666D01*
X100166666Y-87571428D01*
X100190476Y-87523809D01*
X100214285Y-87500000D01*
X100261904Y-87476190D01*
X101023809Y-87976190D02*
X101023809Y-87476190D01*
X101142857Y-87476190D01*
X101214285Y-87500000D01*
X101261904Y-87547619D01*
X101285714Y-87595238D01*
X101309523Y-87690476D01*
X101309523Y-87761904D01*
X101285714Y-87857142D01*
X101261904Y-87904761D01*
X101214285Y-87952380D01*
X101142857Y-87976190D01*
X101023809Y-87976190D01*
X101523809Y-87714285D02*
X101690476Y-87714285D01*
X101761904Y-87976190D02*
X101523809Y-87976190D01*
X101523809Y-87476190D01*
X101761904Y-87476190D01*
X102142857Y-87714285D02*
X102214285Y-87738095D01*
X102238095Y-87761904D01*
X102261904Y-87809523D01*
X102261904Y-87880952D01*
X102238095Y-87928571D01*
X102214285Y-87952380D01*
X102166666Y-87976190D01*
X101976190Y-87976190D01*
X101976190Y-87476190D01*
X102142857Y-87476190D01*
X102190476Y-87500000D01*
X102214285Y-87523809D01*
X102238095Y-87571428D01*
X102238095Y-87619047D01*
X102214285Y-87666666D01*
X102190476Y-87690476D01*
X102142857Y-87714285D01*
X101976190Y-87714285D01*
X102476190Y-87476190D02*
X102476190Y-87880952D01*
X102500000Y-87928571D01*
X102523809Y-87952380D01*
X102571428Y-87976190D01*
X102666666Y-87976190D01*
X102714285Y-87952380D01*
X102738095Y-87928571D01*
X102761904Y-87880952D01*
X102761904Y-87476190D01*
X103261904Y-87500000D02*
X103214285Y-87476190D01*
X103142857Y-87476190D01*
X103071428Y-87500000D01*
X103023809Y-87547619D01*
X103000000Y-87595238D01*
X102976190Y-87690476D01*
X102976190Y-87761904D01*
X103000000Y-87857142D01*
X103023809Y-87904761D01*
X103071428Y-87952380D01*
X103142857Y-87976190D01*
X103190476Y-87976190D01*
X103261904Y-87952380D01*
X103285714Y-87928571D01*
X103285714Y-87761904D01*
X103190476Y-87761904D01*
D11*
X61135714Y-74557142D02*
X60835714Y-74557142D01*
X61050000Y-74457142D01*
X60835714Y-74357142D01*
X61135714Y-74357142D01*
X61107142Y-74042857D02*
X61121428Y-74057142D01*
X61135714Y-74100000D01*
X61135714Y-74128571D01*
X61121428Y-74171428D01*
X61092857Y-74200000D01*
X61064285Y-74214285D01*
X61007142Y-74228571D01*
X60964285Y-74228571D01*
X60907142Y-74214285D01*
X60878571Y-74200000D01*
X60850000Y-74171428D01*
X60835714Y-74128571D01*
X60835714Y-74100000D01*
X60850000Y-74057142D01*
X60864285Y-74042857D01*
X61135714Y-73914285D02*
X60835714Y-73914285D01*
X60835714Y-73800000D01*
X60850000Y-73771428D01*
X60864285Y-73757142D01*
X60892857Y-73742857D01*
X60935714Y-73742857D01*
X60964285Y-73757142D01*
X60978571Y-73771428D01*
X60992857Y-73800000D01*
X60992857Y-73914285D01*
X61107142Y-73214285D02*
X61121428Y-73228571D01*
X61135714Y-73271428D01*
X61135714Y-73300000D01*
X61121428Y-73342857D01*
X61092857Y-73371428D01*
X61064285Y-73385714D01*
X61007142Y-73400000D01*
X60964285Y-73400000D01*
X60907142Y-73385714D01*
X60878571Y-73371428D01*
X60850000Y-73342857D01*
X60835714Y-73300000D01*
X60835714Y-73271428D01*
X60850000Y-73228571D01*
X60864285Y-73214285D01*
X61121428Y-73100000D02*
X61135714Y-73057142D01*
X61135714Y-72985714D01*
X61121428Y-72957142D01*
X61107142Y-72942857D01*
X61078571Y-72928571D01*
X61050000Y-72928571D01*
X61021428Y-72942857D01*
X61007142Y-72957142D01*
X60992857Y-72985714D01*
X60978571Y-73042857D01*
X60964285Y-73071428D01*
X60950000Y-73085714D01*
X60921428Y-73100000D01*
X60892857Y-73100000D01*
X60864285Y-73085714D01*
X60850000Y-73071428D01*
X60835714Y-73042857D01*
X60835714Y-72971428D01*
X60850000Y-72928571D01*
X38952321Y-65160714D02*
X39052321Y-65460714D01*
X39152321Y-65160714D01*
X39352321Y-65303571D02*
X39395178Y-65317857D01*
X39409464Y-65332142D01*
X39423750Y-65360714D01*
X39423750Y-65403571D01*
X39409464Y-65432142D01*
X39395178Y-65446428D01*
X39366607Y-65460714D01*
X39252321Y-65460714D01*
X39252321Y-65160714D01*
X39352321Y-65160714D01*
X39380892Y-65175000D01*
X39395178Y-65189285D01*
X39409464Y-65217857D01*
X39409464Y-65246428D01*
X39395178Y-65275000D01*
X39380892Y-65289285D01*
X39352321Y-65303571D01*
X39252321Y-65303571D01*
X39538035Y-65375000D02*
X39680892Y-65375000D01*
X39509464Y-65460714D02*
X39609464Y-65160714D01*
X39709464Y-65460714D01*
X39766607Y-65160714D02*
X39938035Y-65160714D01*
X39852321Y-65460714D02*
X39852321Y-65160714D01*
X39995178Y-65160714D02*
X40166607Y-65160714D01*
X40080892Y-65460714D02*
X40080892Y-65160714D01*
D13*
%TO.C,U8*%
X68102380Y-57361904D02*
X68911904Y-57361904D01*
X69007142Y-57314285D01*
X69054761Y-57266666D01*
X69102380Y-57171428D01*
X69102380Y-56980952D01*
X69054761Y-56885714D01*
X69007142Y-56838095D01*
X68911904Y-56790476D01*
X68102380Y-56790476D01*
X68530952Y-56171428D02*
X68483333Y-56266666D01*
X68435714Y-56314285D01*
X68340476Y-56361904D01*
X68292857Y-56361904D01*
X68197619Y-56314285D01*
X68150000Y-56266666D01*
X68102380Y-56171428D01*
X68102380Y-55980952D01*
X68150000Y-55885714D01*
X68197619Y-55838095D01*
X68292857Y-55790476D01*
X68340476Y-55790476D01*
X68435714Y-55838095D01*
X68483333Y-55885714D01*
X68530952Y-55980952D01*
X68530952Y-56171428D01*
X68578571Y-56266666D01*
X68626190Y-56314285D01*
X68721428Y-56361904D01*
X68911904Y-56361904D01*
X69007142Y-56314285D01*
X69054761Y-56266666D01*
X69102380Y-56171428D01*
X69102380Y-55980952D01*
X69054761Y-55885714D01*
X69007142Y-55838095D01*
X68911904Y-55790476D01*
X68721428Y-55790476D01*
X68626190Y-55838095D01*
X68578571Y-55885714D01*
X68530952Y-55980952D01*
%TO.C,D1*%
X24711904Y-63102380D02*
X24711904Y-62102380D01*
X24950000Y-62102380D01*
X25092857Y-62150000D01*
X25188095Y-62245238D01*
X25235714Y-62340476D01*
X25283333Y-62530952D01*
X25283333Y-62673809D01*
X25235714Y-62864285D01*
X25188095Y-62959523D01*
X25092857Y-63054761D01*
X24950000Y-63102380D01*
X24711904Y-63102380D01*
X26235714Y-63102380D02*
X25664285Y-63102380D01*
X25950000Y-63102380D02*
X25950000Y-62102380D01*
X25854761Y-62245238D01*
X25759523Y-62340476D01*
X25664285Y-62388095D01*
%TO.C,U5*%
X56452380Y-59481904D02*
X57261904Y-59481904D01*
X57357142Y-59434285D01*
X57404761Y-59386666D01*
X57452380Y-59291428D01*
X57452380Y-59100952D01*
X57404761Y-59005714D01*
X57357142Y-58958095D01*
X57261904Y-58910476D01*
X56452380Y-58910476D01*
X56452380Y-57958095D02*
X56452380Y-58434285D01*
X56928571Y-58481904D01*
X56880952Y-58434285D01*
X56833333Y-58339047D01*
X56833333Y-58100952D01*
X56880952Y-58005714D01*
X56928571Y-57958095D01*
X57023809Y-57910476D01*
X57261904Y-57910476D01*
X57357142Y-57958095D01*
X57404761Y-58005714D01*
X57452380Y-58100952D01*
X57452380Y-58339047D01*
X57404761Y-58434285D01*
X57357142Y-58481904D01*
%TO.C,L2*%
X26583333Y-90977380D02*
X26107142Y-90977380D01*
X26107142Y-89977380D01*
X26869047Y-90072619D02*
X26916666Y-90025000D01*
X27011904Y-89977380D01*
X27250000Y-89977380D01*
X27345238Y-90025000D01*
X27392857Y-90072619D01*
X27440476Y-90167857D01*
X27440476Y-90263095D01*
X27392857Y-90405952D01*
X26821428Y-90977380D01*
X27440476Y-90977380D01*
%TO.C,R8*%
X38058333Y-60502380D02*
X37725000Y-60026190D01*
X37486904Y-60502380D02*
X37486904Y-59502380D01*
X37867857Y-59502380D01*
X37963095Y-59550000D01*
X38010714Y-59597619D01*
X38058333Y-59692857D01*
X38058333Y-59835714D01*
X38010714Y-59930952D01*
X37963095Y-59978571D01*
X37867857Y-60026190D01*
X37486904Y-60026190D01*
X38629761Y-59930952D02*
X38534523Y-59883333D01*
X38486904Y-59835714D01*
X38439285Y-59740476D01*
X38439285Y-59692857D01*
X38486904Y-59597619D01*
X38534523Y-59550000D01*
X38629761Y-59502380D01*
X38820238Y-59502380D01*
X38915476Y-59550000D01*
X38963095Y-59597619D01*
X39010714Y-59692857D01*
X39010714Y-59740476D01*
X38963095Y-59835714D01*
X38915476Y-59883333D01*
X38820238Y-59930952D01*
X38629761Y-59930952D01*
X38534523Y-59978571D01*
X38486904Y-60026190D01*
X38439285Y-60121428D01*
X38439285Y-60311904D01*
X38486904Y-60407142D01*
X38534523Y-60454761D01*
X38629761Y-60502380D01*
X38820238Y-60502380D01*
X38915476Y-60454761D01*
X38963095Y-60407142D01*
X39010714Y-60311904D01*
X39010714Y-60121428D01*
X38963095Y-60026190D01*
X38915476Y-59978571D01*
X38820238Y-59930952D01*
D12*
%TO.C,C15*%
X83278571Y-73091428D02*
X83302380Y-73115238D01*
X83326190Y-73186666D01*
X83326190Y-73234285D01*
X83302380Y-73305714D01*
X83254761Y-73353333D01*
X83207142Y-73377142D01*
X83111904Y-73400952D01*
X83040476Y-73400952D01*
X82945238Y-73377142D01*
X82897619Y-73353333D01*
X82850000Y-73305714D01*
X82826190Y-73234285D01*
X82826190Y-73186666D01*
X82850000Y-73115238D01*
X82873809Y-73091428D01*
X83326190Y-72615238D02*
X83326190Y-72900952D01*
X83326190Y-72758095D02*
X82826190Y-72758095D01*
X82897619Y-72805714D01*
X82945238Y-72853333D01*
X82969047Y-72900952D01*
X82826190Y-72162857D02*
X82826190Y-72400952D01*
X83064285Y-72424761D01*
X83040476Y-72400952D01*
X83016666Y-72353333D01*
X83016666Y-72234285D01*
X83040476Y-72186666D01*
X83064285Y-72162857D01*
X83111904Y-72139047D01*
X83230952Y-72139047D01*
X83278571Y-72162857D01*
X83302380Y-72186666D01*
X83326190Y-72234285D01*
X83326190Y-72353333D01*
X83302380Y-72400952D01*
X83278571Y-72424761D01*
D13*
%TO.C,R7*%
X98193333Y-77032380D02*
X97860000Y-76556190D01*
X97621904Y-77032380D02*
X97621904Y-76032380D01*
X98002857Y-76032380D01*
X98098095Y-76080000D01*
X98145714Y-76127619D01*
X98193333Y-76222857D01*
X98193333Y-76365714D01*
X98145714Y-76460952D01*
X98098095Y-76508571D01*
X98002857Y-76556190D01*
X97621904Y-76556190D01*
X98526666Y-76032380D02*
X99193333Y-76032380D01*
X98764761Y-77032380D01*
%TO.C,C21*%
X59457142Y-49692857D02*
X59504761Y-49740476D01*
X59552380Y-49883333D01*
X59552380Y-49978571D01*
X59504761Y-50121428D01*
X59409523Y-50216666D01*
X59314285Y-50264285D01*
X59123809Y-50311904D01*
X58980952Y-50311904D01*
X58790476Y-50264285D01*
X58695238Y-50216666D01*
X58600000Y-50121428D01*
X58552380Y-49978571D01*
X58552380Y-49883333D01*
X58600000Y-49740476D01*
X58647619Y-49692857D01*
X58647619Y-49311904D02*
X58600000Y-49264285D01*
X58552380Y-49169047D01*
X58552380Y-48930952D01*
X58600000Y-48835714D01*
X58647619Y-48788095D01*
X58742857Y-48740476D01*
X58838095Y-48740476D01*
X58980952Y-48788095D01*
X59552380Y-49359523D01*
X59552380Y-48740476D01*
X59552380Y-47788095D02*
X59552380Y-48359523D01*
X59552380Y-48073809D02*
X58552380Y-48073809D01*
X58695238Y-48169047D01*
X58790476Y-48264285D01*
X58838095Y-48359523D01*
%TO.C,U7*%
X101639880Y-65325728D02*
X102449404Y-65325728D01*
X102544642Y-65278109D01*
X102592261Y-65230490D01*
X102639880Y-65135252D01*
X102639880Y-64944776D01*
X102592261Y-64849538D01*
X102544642Y-64801919D01*
X102449404Y-64754300D01*
X101639880Y-64754300D01*
X101639880Y-64373347D02*
X101639880Y-63706681D01*
X102639880Y-64135252D01*
%TO.C,C11*%
X45507142Y-67732142D02*
X45459523Y-67779761D01*
X45316666Y-67827380D01*
X45221428Y-67827380D01*
X45078571Y-67779761D01*
X44983333Y-67684523D01*
X44935714Y-67589285D01*
X44888095Y-67398809D01*
X44888095Y-67255952D01*
X44935714Y-67065476D01*
X44983333Y-66970238D01*
X45078571Y-66875000D01*
X45221428Y-66827380D01*
X45316666Y-66827380D01*
X45459523Y-66875000D01*
X45507142Y-66922619D01*
X46459523Y-67827380D02*
X45888095Y-67827380D01*
X46173809Y-67827380D02*
X46173809Y-66827380D01*
X46078571Y-66970238D01*
X45983333Y-67065476D01*
X45888095Y-67113095D01*
X47411904Y-67827380D02*
X46840476Y-67827380D01*
X47126190Y-67827380D02*
X47126190Y-66827380D01*
X47030952Y-66970238D01*
X46935714Y-67065476D01*
X46840476Y-67113095D01*
%TO.C,C16*%
X65707142Y-64157142D02*
X65659523Y-64204761D01*
X65516666Y-64252380D01*
X65421428Y-64252380D01*
X65278571Y-64204761D01*
X65183333Y-64109523D01*
X65135714Y-64014285D01*
X65088095Y-63823809D01*
X65088095Y-63680952D01*
X65135714Y-63490476D01*
X65183333Y-63395238D01*
X65278571Y-63300000D01*
X65421428Y-63252380D01*
X65516666Y-63252380D01*
X65659523Y-63300000D01*
X65707142Y-63347619D01*
X66659523Y-64252380D02*
X66088095Y-64252380D01*
X66373809Y-64252380D02*
X66373809Y-63252380D01*
X66278571Y-63395238D01*
X66183333Y-63490476D01*
X66088095Y-63538095D01*
X67516666Y-63252380D02*
X67326190Y-63252380D01*
X67230952Y-63300000D01*
X67183333Y-63347619D01*
X67088095Y-63490476D01*
X67040476Y-63680952D01*
X67040476Y-64061904D01*
X67088095Y-64157142D01*
X67135714Y-64204761D01*
X67230952Y-64252380D01*
X67421428Y-64252380D01*
X67516666Y-64204761D01*
X67564285Y-64157142D01*
X67611904Y-64061904D01*
X67611904Y-63823809D01*
X67564285Y-63728571D01*
X67516666Y-63680952D01*
X67421428Y-63633333D01*
X67230952Y-63633333D01*
X67135714Y-63680952D01*
X67088095Y-63728571D01*
X67040476Y-63823809D01*
D12*
%TO.C,C24*%
X87468571Y-71661428D02*
X87492380Y-71685238D01*
X87516190Y-71756666D01*
X87516190Y-71804285D01*
X87492380Y-71875714D01*
X87444761Y-71923333D01*
X87397142Y-71947142D01*
X87301904Y-71970952D01*
X87230476Y-71970952D01*
X87135238Y-71947142D01*
X87087619Y-71923333D01*
X87040000Y-71875714D01*
X87016190Y-71804285D01*
X87016190Y-71756666D01*
X87040000Y-71685238D01*
X87063809Y-71661428D01*
X87063809Y-71470952D02*
X87040000Y-71447142D01*
X87016190Y-71399523D01*
X87016190Y-71280476D01*
X87040000Y-71232857D01*
X87063809Y-71209047D01*
X87111428Y-71185238D01*
X87159047Y-71185238D01*
X87230476Y-71209047D01*
X87516190Y-71494761D01*
X87516190Y-71185238D01*
X87182857Y-70756666D02*
X87516190Y-70756666D01*
X86992380Y-70875714D02*
X87349523Y-70994761D01*
X87349523Y-70685238D01*
D13*
%TO.C,C27*%
X94182142Y-85762142D02*
X94134523Y-85809761D01*
X93991666Y-85857380D01*
X93896428Y-85857380D01*
X93753571Y-85809761D01*
X93658333Y-85714523D01*
X93610714Y-85619285D01*
X93563095Y-85428809D01*
X93563095Y-85285952D01*
X93610714Y-85095476D01*
X93658333Y-85000238D01*
X93753571Y-84905000D01*
X93896428Y-84857380D01*
X93991666Y-84857380D01*
X94134523Y-84905000D01*
X94182142Y-84952619D01*
X94563095Y-84952619D02*
X94610714Y-84905000D01*
X94705952Y-84857380D01*
X94944047Y-84857380D01*
X95039285Y-84905000D01*
X95086904Y-84952619D01*
X95134523Y-85047857D01*
X95134523Y-85143095D01*
X95086904Y-85285952D01*
X94515476Y-85857380D01*
X95134523Y-85857380D01*
X95467857Y-84857380D02*
X96134523Y-84857380D01*
X95705952Y-85857380D01*
%TO.C,R5*%
X81383333Y-66722380D02*
X81050000Y-66246190D01*
X80811904Y-66722380D02*
X80811904Y-65722380D01*
X81192857Y-65722380D01*
X81288095Y-65770000D01*
X81335714Y-65817619D01*
X81383333Y-65912857D01*
X81383333Y-66055714D01*
X81335714Y-66150952D01*
X81288095Y-66198571D01*
X81192857Y-66246190D01*
X80811904Y-66246190D01*
X82288095Y-65722380D02*
X81811904Y-65722380D01*
X81764285Y-66198571D01*
X81811904Y-66150952D01*
X81907142Y-66103333D01*
X82145238Y-66103333D01*
X82240476Y-66150952D01*
X82288095Y-66198571D01*
X82335714Y-66293809D01*
X82335714Y-66531904D01*
X82288095Y-66627142D01*
X82240476Y-66674761D01*
X82145238Y-66722380D01*
X81907142Y-66722380D01*
X81811904Y-66674761D01*
X81764285Y-66627142D01*
%TO.C,R2*%
X38083333Y-68927380D02*
X37750000Y-68451190D01*
X37511904Y-68927380D02*
X37511904Y-67927380D01*
X37892857Y-67927380D01*
X37988095Y-67975000D01*
X38035714Y-68022619D01*
X38083333Y-68117857D01*
X38083333Y-68260714D01*
X38035714Y-68355952D01*
X37988095Y-68403571D01*
X37892857Y-68451190D01*
X37511904Y-68451190D01*
X38464285Y-68022619D02*
X38511904Y-67975000D01*
X38607142Y-67927380D01*
X38845238Y-67927380D01*
X38940476Y-67975000D01*
X38988095Y-68022619D01*
X39035714Y-68117857D01*
X39035714Y-68213095D01*
X38988095Y-68355952D01*
X38416666Y-68927380D01*
X39035714Y-68927380D01*
%TO.C,D4*%
X37636904Y-75402380D02*
X37636904Y-74402380D01*
X37875000Y-74402380D01*
X38017857Y-74450000D01*
X38113095Y-74545238D01*
X38160714Y-74640476D01*
X38208333Y-74830952D01*
X38208333Y-74973809D01*
X38160714Y-75164285D01*
X38113095Y-75259523D01*
X38017857Y-75354761D01*
X37875000Y-75402380D01*
X37636904Y-75402380D01*
X39065476Y-74735714D02*
X39065476Y-75402380D01*
X38827380Y-74354761D02*
X38589285Y-75069047D01*
X39208333Y-75069047D01*
%TO.C,C18*%
X93357142Y-64517142D02*
X93309523Y-64564761D01*
X93166666Y-64612380D01*
X93071428Y-64612380D01*
X92928571Y-64564761D01*
X92833333Y-64469523D01*
X92785714Y-64374285D01*
X92738095Y-64183809D01*
X92738095Y-64040952D01*
X92785714Y-63850476D01*
X92833333Y-63755238D01*
X92928571Y-63660000D01*
X93071428Y-63612380D01*
X93166666Y-63612380D01*
X93309523Y-63660000D01*
X93357142Y-63707619D01*
X94309523Y-64612380D02*
X93738095Y-64612380D01*
X94023809Y-64612380D02*
X94023809Y-63612380D01*
X93928571Y-63755238D01*
X93833333Y-63850476D01*
X93738095Y-63898095D01*
X94880952Y-64040952D02*
X94785714Y-63993333D01*
X94738095Y-63945714D01*
X94690476Y-63850476D01*
X94690476Y-63802857D01*
X94738095Y-63707619D01*
X94785714Y-63660000D01*
X94880952Y-63612380D01*
X95071428Y-63612380D01*
X95166666Y-63660000D01*
X95214285Y-63707619D01*
X95261904Y-63802857D01*
X95261904Y-63850476D01*
X95214285Y-63945714D01*
X95166666Y-63993333D01*
X95071428Y-64040952D01*
X94880952Y-64040952D01*
X94785714Y-64088571D01*
X94738095Y-64136190D01*
X94690476Y-64231428D01*
X94690476Y-64421904D01*
X94738095Y-64517142D01*
X94785714Y-64564761D01*
X94880952Y-64612380D01*
X95071428Y-64612380D01*
X95166666Y-64564761D01*
X95214285Y-64517142D01*
X95261904Y-64421904D01*
X95261904Y-64231428D01*
X95214285Y-64136190D01*
X95166666Y-64088571D01*
X95071428Y-64040952D01*
%TO.C,C25*%
X32557142Y-83257142D02*
X32509523Y-83304761D01*
X32366666Y-83352380D01*
X32271428Y-83352380D01*
X32128571Y-83304761D01*
X32033333Y-83209523D01*
X31985714Y-83114285D01*
X31938095Y-82923809D01*
X31938095Y-82780952D01*
X31985714Y-82590476D01*
X32033333Y-82495238D01*
X32128571Y-82400000D01*
X32271428Y-82352380D01*
X32366666Y-82352380D01*
X32509523Y-82400000D01*
X32557142Y-82447619D01*
X32938095Y-82447619D02*
X32985714Y-82400000D01*
X33080952Y-82352380D01*
X33319047Y-82352380D01*
X33414285Y-82400000D01*
X33461904Y-82447619D01*
X33509523Y-82542857D01*
X33509523Y-82638095D01*
X33461904Y-82780952D01*
X32890476Y-83352380D01*
X33509523Y-83352380D01*
X34414285Y-82352380D02*
X33938095Y-82352380D01*
X33890476Y-82828571D01*
X33938095Y-82780952D01*
X34033333Y-82733333D01*
X34271428Y-82733333D01*
X34366666Y-82780952D01*
X34414285Y-82828571D01*
X34461904Y-82923809D01*
X34461904Y-83161904D01*
X34414285Y-83257142D01*
X34366666Y-83304761D01*
X34271428Y-83352380D01*
X34033333Y-83352380D01*
X33938095Y-83304761D01*
X33890476Y-83257142D01*
%TO.C,U2*%
X49587380Y-65461904D02*
X50396904Y-65461904D01*
X50492142Y-65414285D01*
X50539761Y-65366666D01*
X50587380Y-65271428D01*
X50587380Y-65080952D01*
X50539761Y-64985714D01*
X50492142Y-64938095D01*
X50396904Y-64890476D01*
X49587380Y-64890476D01*
X49682619Y-64461904D02*
X49635000Y-64414285D01*
X49587380Y-64319047D01*
X49587380Y-64080952D01*
X49635000Y-63985714D01*
X49682619Y-63938095D01*
X49777857Y-63890476D01*
X49873095Y-63890476D01*
X50015952Y-63938095D01*
X50587380Y-64509523D01*
X50587380Y-63890476D01*
D12*
%TO.C,C9*%
X84928571Y-72693333D02*
X84952380Y-72717142D01*
X84976190Y-72788571D01*
X84976190Y-72836190D01*
X84952380Y-72907619D01*
X84904761Y-72955238D01*
X84857142Y-72979047D01*
X84761904Y-73002857D01*
X84690476Y-73002857D01*
X84595238Y-72979047D01*
X84547619Y-72955238D01*
X84500000Y-72907619D01*
X84476190Y-72836190D01*
X84476190Y-72788571D01*
X84500000Y-72717142D01*
X84523809Y-72693333D01*
X84976190Y-72455238D02*
X84976190Y-72360000D01*
X84952380Y-72312380D01*
X84928571Y-72288571D01*
X84857142Y-72240952D01*
X84761904Y-72217142D01*
X84571428Y-72217142D01*
X84523809Y-72240952D01*
X84500000Y-72264761D01*
X84476190Y-72312380D01*
X84476190Y-72407619D01*
X84500000Y-72455238D01*
X84523809Y-72479047D01*
X84571428Y-72502857D01*
X84690476Y-72502857D01*
X84738095Y-72479047D01*
X84761904Y-72455238D01*
X84785714Y-72407619D01*
X84785714Y-72312380D01*
X84761904Y-72264761D01*
X84738095Y-72240952D01*
X84690476Y-72217142D01*
D13*
%TO.C,C30*%
X96042142Y-73482142D02*
X95994523Y-73529761D01*
X95851666Y-73577380D01*
X95756428Y-73577380D01*
X95613571Y-73529761D01*
X95518333Y-73434523D01*
X95470714Y-73339285D01*
X95423095Y-73148809D01*
X95423095Y-73005952D01*
X95470714Y-72815476D01*
X95518333Y-72720238D01*
X95613571Y-72625000D01*
X95756428Y-72577380D01*
X95851666Y-72577380D01*
X95994523Y-72625000D01*
X96042142Y-72672619D01*
X96375476Y-72577380D02*
X96994523Y-72577380D01*
X96661190Y-72958333D01*
X96804047Y-72958333D01*
X96899285Y-73005952D01*
X96946904Y-73053571D01*
X96994523Y-73148809D01*
X96994523Y-73386904D01*
X96946904Y-73482142D01*
X96899285Y-73529761D01*
X96804047Y-73577380D01*
X96518333Y-73577380D01*
X96423095Y-73529761D01*
X96375476Y-73482142D01*
X97613571Y-72577380D02*
X97708809Y-72577380D01*
X97804047Y-72625000D01*
X97851666Y-72672619D01*
X97899285Y-72767857D01*
X97946904Y-72958333D01*
X97946904Y-73196428D01*
X97899285Y-73386904D01*
X97851666Y-73482142D01*
X97804047Y-73529761D01*
X97708809Y-73577380D01*
X97613571Y-73577380D01*
X97518333Y-73529761D01*
X97470714Y-73482142D01*
X97423095Y-73386904D01*
X97375476Y-73196428D01*
X97375476Y-72958333D01*
X97423095Y-72767857D01*
X97470714Y-72672619D01*
X97518333Y-72625000D01*
X97613571Y-72577380D01*
%TO.C,C7*%
X76233333Y-62482142D02*
X76185714Y-62529761D01*
X76042857Y-62577380D01*
X75947619Y-62577380D01*
X75804761Y-62529761D01*
X75709523Y-62434523D01*
X75661904Y-62339285D01*
X75614285Y-62148809D01*
X75614285Y-62005952D01*
X75661904Y-61815476D01*
X75709523Y-61720238D01*
X75804761Y-61625000D01*
X75947619Y-61577380D01*
X76042857Y-61577380D01*
X76185714Y-61625000D01*
X76233333Y-61672619D01*
X76566666Y-61577380D02*
X77233333Y-61577380D01*
X76804761Y-62577380D01*
%TO.C,C5*%
X28883333Y-67182142D02*
X28835714Y-67229761D01*
X28692857Y-67277380D01*
X28597619Y-67277380D01*
X28454761Y-67229761D01*
X28359523Y-67134523D01*
X28311904Y-67039285D01*
X28264285Y-66848809D01*
X28264285Y-66705952D01*
X28311904Y-66515476D01*
X28359523Y-66420238D01*
X28454761Y-66325000D01*
X28597619Y-66277380D01*
X28692857Y-66277380D01*
X28835714Y-66325000D01*
X28883333Y-66372619D01*
X29788095Y-66277380D02*
X29311904Y-66277380D01*
X29264285Y-66753571D01*
X29311904Y-66705952D01*
X29407142Y-66658333D01*
X29645238Y-66658333D01*
X29740476Y-66705952D01*
X29788095Y-66753571D01*
X29835714Y-66848809D01*
X29835714Y-67086904D01*
X29788095Y-67182142D01*
X29740476Y-67229761D01*
X29645238Y-67277380D01*
X29407142Y-67277380D01*
X29311904Y-67229761D01*
X29264285Y-67182142D01*
D12*
%TO.C,R22*%
X80291071Y-81546190D02*
X80124404Y-81308095D01*
X80005357Y-81546190D02*
X80005357Y-81046190D01*
X80195833Y-81046190D01*
X80243452Y-81070000D01*
X80267261Y-81093809D01*
X80291071Y-81141428D01*
X80291071Y-81212857D01*
X80267261Y-81260476D01*
X80243452Y-81284285D01*
X80195833Y-81308095D01*
X80005357Y-81308095D01*
X80481547Y-81093809D02*
X80505357Y-81070000D01*
X80552976Y-81046190D01*
X80672023Y-81046190D01*
X80719642Y-81070000D01*
X80743452Y-81093809D01*
X80767261Y-81141428D01*
X80767261Y-81189047D01*
X80743452Y-81260476D01*
X80457738Y-81546190D01*
X80767261Y-81546190D01*
X80957738Y-81093809D02*
X80981547Y-81070000D01*
X81029166Y-81046190D01*
X81148214Y-81046190D01*
X81195833Y-81070000D01*
X81219642Y-81093809D01*
X81243452Y-81141428D01*
X81243452Y-81189047D01*
X81219642Y-81260476D01*
X80933928Y-81546190D01*
X81243452Y-81546190D01*
D13*
%TO.C,C8*%
X78833333Y-71207142D02*
X78785714Y-71254761D01*
X78642857Y-71302380D01*
X78547619Y-71302380D01*
X78404761Y-71254761D01*
X78309523Y-71159523D01*
X78261904Y-71064285D01*
X78214285Y-70873809D01*
X78214285Y-70730952D01*
X78261904Y-70540476D01*
X78309523Y-70445238D01*
X78404761Y-70350000D01*
X78547619Y-70302380D01*
X78642857Y-70302380D01*
X78785714Y-70350000D01*
X78833333Y-70397619D01*
X79404761Y-70730952D02*
X79309523Y-70683333D01*
X79261904Y-70635714D01*
X79214285Y-70540476D01*
X79214285Y-70492857D01*
X79261904Y-70397619D01*
X79309523Y-70350000D01*
X79404761Y-70302380D01*
X79595238Y-70302380D01*
X79690476Y-70350000D01*
X79738095Y-70397619D01*
X79785714Y-70492857D01*
X79785714Y-70540476D01*
X79738095Y-70635714D01*
X79690476Y-70683333D01*
X79595238Y-70730952D01*
X79404761Y-70730952D01*
X79309523Y-70778571D01*
X79261904Y-70826190D01*
X79214285Y-70921428D01*
X79214285Y-71111904D01*
X79261904Y-71207142D01*
X79309523Y-71254761D01*
X79404761Y-71302380D01*
X79595238Y-71302380D01*
X79690476Y-71254761D01*
X79738095Y-71207142D01*
X79785714Y-71111904D01*
X79785714Y-70921428D01*
X79738095Y-70826190D01*
X79690476Y-70778571D01*
X79595238Y-70730952D01*
%TO.C,C26*%
X25432142Y-81507142D02*
X25384523Y-81554761D01*
X25241666Y-81602380D01*
X25146428Y-81602380D01*
X25003571Y-81554761D01*
X24908333Y-81459523D01*
X24860714Y-81364285D01*
X24813095Y-81173809D01*
X24813095Y-81030952D01*
X24860714Y-80840476D01*
X24908333Y-80745238D01*
X25003571Y-80650000D01*
X25146428Y-80602380D01*
X25241666Y-80602380D01*
X25384523Y-80650000D01*
X25432142Y-80697619D01*
X25813095Y-80697619D02*
X25860714Y-80650000D01*
X25955952Y-80602380D01*
X26194047Y-80602380D01*
X26289285Y-80650000D01*
X26336904Y-80697619D01*
X26384523Y-80792857D01*
X26384523Y-80888095D01*
X26336904Y-81030952D01*
X25765476Y-81602380D01*
X26384523Y-81602380D01*
X27241666Y-80602380D02*
X27051190Y-80602380D01*
X26955952Y-80650000D01*
X26908333Y-80697619D01*
X26813095Y-80840476D01*
X26765476Y-81030952D01*
X26765476Y-81411904D01*
X26813095Y-81507142D01*
X26860714Y-81554761D01*
X26955952Y-81602380D01*
X27146428Y-81602380D01*
X27241666Y-81554761D01*
X27289285Y-81507142D01*
X27336904Y-81411904D01*
X27336904Y-81173809D01*
X27289285Y-81078571D01*
X27241666Y-81030952D01*
X27146428Y-80983333D01*
X26955952Y-80983333D01*
X26860714Y-81030952D01*
X26813095Y-81078571D01*
X26765476Y-81173809D01*
D12*
%TO.C,C14*%
X92443571Y-70777842D02*
X92467380Y-70801652D01*
X92491190Y-70873080D01*
X92491190Y-70920699D01*
X92467380Y-70992128D01*
X92419761Y-71039747D01*
X92372142Y-71063556D01*
X92276904Y-71087366D01*
X92205476Y-71087366D01*
X92110238Y-71063556D01*
X92062619Y-71039747D01*
X92015000Y-70992128D01*
X91991190Y-70920699D01*
X91991190Y-70873080D01*
X92015000Y-70801652D01*
X92038809Y-70777842D01*
X92491190Y-70301652D02*
X92491190Y-70587366D01*
X92491190Y-70444509D02*
X91991190Y-70444509D01*
X92062619Y-70492128D01*
X92110238Y-70539747D01*
X92134047Y-70587366D01*
X92157857Y-69873080D02*
X92491190Y-69873080D01*
X91967380Y-69992128D02*
X92324523Y-70111175D01*
X92324523Y-69801652D01*
D13*
%TO.C,C10*%
X96957142Y-64457142D02*
X96909523Y-64504761D01*
X96766666Y-64552380D01*
X96671428Y-64552380D01*
X96528571Y-64504761D01*
X96433333Y-64409523D01*
X96385714Y-64314285D01*
X96338095Y-64123809D01*
X96338095Y-63980952D01*
X96385714Y-63790476D01*
X96433333Y-63695238D01*
X96528571Y-63600000D01*
X96671428Y-63552380D01*
X96766666Y-63552380D01*
X96909523Y-63600000D01*
X96957142Y-63647619D01*
X97909523Y-64552380D02*
X97338095Y-64552380D01*
X97623809Y-64552380D02*
X97623809Y-63552380D01*
X97528571Y-63695238D01*
X97433333Y-63790476D01*
X97338095Y-63838095D01*
X98528571Y-63552380D02*
X98623809Y-63552380D01*
X98719047Y-63600000D01*
X98766666Y-63647619D01*
X98814285Y-63742857D01*
X98861904Y-63933333D01*
X98861904Y-64171428D01*
X98814285Y-64361904D01*
X98766666Y-64457142D01*
X98719047Y-64504761D01*
X98623809Y-64552380D01*
X98528571Y-64552380D01*
X98433333Y-64504761D01*
X98385714Y-64457142D01*
X98338095Y-64361904D01*
X98290476Y-64171428D01*
X98290476Y-63933333D01*
X98338095Y-63742857D01*
X98385714Y-63647619D01*
X98433333Y-63600000D01*
X98528571Y-63552380D01*
%TO.C,C2*%
X38183333Y-54907142D02*
X38135714Y-54954761D01*
X37992857Y-55002380D01*
X37897619Y-55002380D01*
X37754761Y-54954761D01*
X37659523Y-54859523D01*
X37611904Y-54764285D01*
X37564285Y-54573809D01*
X37564285Y-54430952D01*
X37611904Y-54240476D01*
X37659523Y-54145238D01*
X37754761Y-54050000D01*
X37897619Y-54002380D01*
X37992857Y-54002380D01*
X38135714Y-54050000D01*
X38183333Y-54097619D01*
X38564285Y-54097619D02*
X38611904Y-54050000D01*
X38707142Y-54002380D01*
X38945238Y-54002380D01*
X39040476Y-54050000D01*
X39088095Y-54097619D01*
X39135714Y-54192857D01*
X39135714Y-54288095D01*
X39088095Y-54430952D01*
X38516666Y-55002380D01*
X39135714Y-55002380D01*
%TO.C,R15*%
X50296428Y-59857142D02*
X49996428Y-59428571D01*
X49782142Y-59857142D02*
X49782142Y-58957142D01*
X50125000Y-58957142D01*
X50210714Y-59000000D01*
X50253571Y-59042857D01*
X50296428Y-59128571D01*
X50296428Y-59257142D01*
X50253571Y-59342857D01*
X50210714Y-59385714D01*
X50125000Y-59428571D01*
X49782142Y-59428571D01*
X51153571Y-59857142D02*
X50639285Y-59857142D01*
X50896428Y-59857142D02*
X50896428Y-58957142D01*
X50810714Y-59085714D01*
X50725000Y-59171428D01*
X50639285Y-59214285D01*
X51967857Y-58957142D02*
X51539285Y-58957142D01*
X51496428Y-59385714D01*
X51539285Y-59342857D01*
X51625000Y-59300000D01*
X51839285Y-59300000D01*
X51925000Y-59342857D01*
X51967857Y-59385714D01*
X52010714Y-59471428D01*
X52010714Y-59685714D01*
X51967857Y-59771428D01*
X51925000Y-59814285D01*
X51839285Y-59857142D01*
X51625000Y-59857142D01*
X51539285Y-59814285D01*
X51496428Y-59771428D01*
D12*
%TO.C,C12*%
X93938571Y-68443549D02*
X93962380Y-68467359D01*
X93986190Y-68538787D01*
X93986190Y-68586406D01*
X93962380Y-68657835D01*
X93914761Y-68705454D01*
X93867142Y-68729263D01*
X93771904Y-68753073D01*
X93700476Y-68753073D01*
X93605238Y-68729263D01*
X93557619Y-68705454D01*
X93510000Y-68657835D01*
X93486190Y-68586406D01*
X93486190Y-68538787D01*
X93510000Y-68467359D01*
X93533809Y-68443549D01*
X93986190Y-67967359D02*
X93986190Y-68253073D01*
X93986190Y-68110216D02*
X93486190Y-68110216D01*
X93557619Y-68157835D01*
X93605238Y-68205454D01*
X93629047Y-68253073D01*
X93533809Y-67776882D02*
X93510000Y-67753073D01*
X93486190Y-67705454D01*
X93486190Y-67586406D01*
X93510000Y-67538787D01*
X93533809Y-67514978D01*
X93581428Y-67491168D01*
X93629047Y-67491168D01*
X93700476Y-67514978D01*
X93986190Y-67800692D01*
X93986190Y-67491168D01*
D13*
%TO.C,R3*%
X98020833Y-58516204D02*
X97687500Y-58040014D01*
X97449404Y-58516204D02*
X97449404Y-57516204D01*
X97830357Y-57516204D01*
X97925595Y-57563824D01*
X97973214Y-57611443D01*
X98020833Y-57706681D01*
X98020833Y-57849538D01*
X97973214Y-57944776D01*
X97925595Y-57992395D01*
X97830357Y-58040014D01*
X97449404Y-58040014D01*
X98354166Y-57516204D02*
X98973214Y-57516204D01*
X98639880Y-57897157D01*
X98782738Y-57897157D01*
X98877976Y-57944776D01*
X98925595Y-57992395D01*
X98973214Y-58087633D01*
X98973214Y-58325728D01*
X98925595Y-58420966D01*
X98877976Y-58468585D01*
X98782738Y-58516204D01*
X98497023Y-58516204D01*
X98401785Y-58468585D01*
X98354166Y-58420966D01*
%TO.C,R6*%
X102118333Y-76952380D02*
X101785000Y-76476190D01*
X101546904Y-76952380D02*
X101546904Y-75952380D01*
X101927857Y-75952380D01*
X102023095Y-76000000D01*
X102070714Y-76047619D01*
X102118333Y-76142857D01*
X102118333Y-76285714D01*
X102070714Y-76380952D01*
X102023095Y-76428571D01*
X101927857Y-76476190D01*
X101546904Y-76476190D01*
X102975476Y-75952380D02*
X102785000Y-75952380D01*
X102689761Y-76000000D01*
X102642142Y-76047619D01*
X102546904Y-76190476D01*
X102499285Y-76380952D01*
X102499285Y-76761904D01*
X102546904Y-76857142D01*
X102594523Y-76904761D01*
X102689761Y-76952380D01*
X102880238Y-76952380D01*
X102975476Y-76904761D01*
X103023095Y-76857142D01*
X103070714Y-76761904D01*
X103070714Y-76523809D01*
X103023095Y-76428571D01*
X102975476Y-76380952D01*
X102880238Y-76333333D01*
X102689761Y-76333333D01*
X102594523Y-76380952D01*
X102546904Y-76428571D01*
X102499285Y-76523809D01*
%TO.C,C29*%
X90102142Y-74962142D02*
X90054523Y-75009761D01*
X89911666Y-75057380D01*
X89816428Y-75057380D01*
X89673571Y-75009761D01*
X89578333Y-74914523D01*
X89530714Y-74819285D01*
X89483095Y-74628809D01*
X89483095Y-74485952D01*
X89530714Y-74295476D01*
X89578333Y-74200238D01*
X89673571Y-74105000D01*
X89816428Y-74057380D01*
X89911666Y-74057380D01*
X90054523Y-74105000D01*
X90102142Y-74152619D01*
X90483095Y-74152619D02*
X90530714Y-74105000D01*
X90625952Y-74057380D01*
X90864047Y-74057380D01*
X90959285Y-74105000D01*
X91006904Y-74152619D01*
X91054523Y-74247857D01*
X91054523Y-74343095D01*
X91006904Y-74485952D01*
X90435476Y-75057380D01*
X91054523Y-75057380D01*
X91530714Y-75057380D02*
X91721190Y-75057380D01*
X91816428Y-75009761D01*
X91864047Y-74962142D01*
X91959285Y-74819285D01*
X92006904Y-74628809D01*
X92006904Y-74247857D01*
X91959285Y-74152619D01*
X91911666Y-74105000D01*
X91816428Y-74057380D01*
X91625952Y-74057380D01*
X91530714Y-74105000D01*
X91483095Y-74152619D01*
X91435476Y-74247857D01*
X91435476Y-74485952D01*
X91483095Y-74581190D01*
X91530714Y-74628809D01*
X91625952Y-74676428D01*
X91816428Y-74676428D01*
X91911666Y-74628809D01*
X91959285Y-74581190D01*
X92006904Y-74485952D01*
D12*
%TO.C,C13*%
X88663571Y-71643929D02*
X88687380Y-71667739D01*
X88711190Y-71739167D01*
X88711190Y-71786786D01*
X88687380Y-71858215D01*
X88639761Y-71905834D01*
X88592142Y-71929643D01*
X88496904Y-71953453D01*
X88425476Y-71953453D01*
X88330238Y-71929643D01*
X88282619Y-71905834D01*
X88235000Y-71858215D01*
X88211190Y-71786786D01*
X88211190Y-71739167D01*
X88235000Y-71667739D01*
X88258809Y-71643929D01*
X88711190Y-71167739D02*
X88711190Y-71453453D01*
X88711190Y-71310596D02*
X88211190Y-71310596D01*
X88282619Y-71358215D01*
X88330238Y-71405834D01*
X88354047Y-71453453D01*
X88211190Y-71001072D02*
X88211190Y-70691548D01*
X88401666Y-70858215D01*
X88401666Y-70786786D01*
X88425476Y-70739167D01*
X88449285Y-70715358D01*
X88496904Y-70691548D01*
X88615952Y-70691548D01*
X88663571Y-70715358D01*
X88687380Y-70739167D01*
X88711190Y-70786786D01*
X88711190Y-70929643D01*
X88687380Y-70977262D01*
X88663571Y-71001072D01*
D13*
%TO.C,U9*%
X75657380Y-57494404D02*
X76466904Y-57494404D01*
X76562142Y-57446785D01*
X76609761Y-57399166D01*
X76657380Y-57303928D01*
X76657380Y-57113452D01*
X76609761Y-57018214D01*
X76562142Y-56970595D01*
X76466904Y-56922976D01*
X75657380Y-56922976D01*
X76657380Y-56399166D02*
X76657380Y-56208690D01*
X76609761Y-56113452D01*
X76562142Y-56065833D01*
X76419285Y-55970595D01*
X76228809Y-55922976D01*
X75847857Y-55922976D01*
X75752619Y-55970595D01*
X75705000Y-56018214D01*
X75657380Y-56113452D01*
X75657380Y-56303928D01*
X75705000Y-56399166D01*
X75752619Y-56446785D01*
X75847857Y-56494404D01*
X76085952Y-56494404D01*
X76181190Y-56446785D01*
X76228809Y-56399166D01*
X76276428Y-56303928D01*
X76276428Y-56113452D01*
X76228809Y-56018214D01*
X76181190Y-55970595D01*
X76085952Y-55922976D01*
%TO.C,C20*%
X38107141Y-56657142D02*
X38059522Y-56704761D01*
X37916665Y-56752380D01*
X37821427Y-56752380D01*
X37678570Y-56704761D01*
X37583332Y-56609523D01*
X37535713Y-56514285D01*
X37488094Y-56323809D01*
X37488094Y-56180952D01*
X37535713Y-55990476D01*
X37583332Y-55895238D01*
X37678570Y-55800000D01*
X37821427Y-55752380D01*
X37916665Y-55752380D01*
X38059522Y-55800000D01*
X38107141Y-55847619D01*
X38488094Y-55847619D02*
X38535713Y-55800000D01*
X38630951Y-55752380D01*
X38869046Y-55752380D01*
X38964284Y-55800000D01*
X39011903Y-55847619D01*
X39059522Y-55942857D01*
X39059522Y-56038095D01*
X39011903Y-56180952D01*
X38440475Y-56752380D01*
X39059522Y-56752380D01*
X39678570Y-55752380D02*
X39773808Y-55752380D01*
X39869046Y-55800000D01*
X39916665Y-55847619D01*
X39964284Y-55942857D01*
X40011903Y-56133333D01*
X40011903Y-56371428D01*
X39964284Y-56561904D01*
X39916665Y-56657142D01*
X39869046Y-56704761D01*
X39773808Y-56752380D01*
X39678570Y-56752380D01*
X39583332Y-56704761D01*
X39535713Y-56657142D01*
X39488094Y-56561904D01*
X39440475Y-56371428D01*
X39440475Y-56133333D01*
X39488094Y-55942857D01*
X39535713Y-55847619D01*
X39583332Y-55800000D01*
X39678570Y-55752380D01*
%TO.C,U10*%
X81261904Y-60302380D02*
X81261904Y-61111904D01*
X81309523Y-61207142D01*
X81357142Y-61254761D01*
X81452380Y-61302380D01*
X81642857Y-61302380D01*
X81738095Y-61254761D01*
X81785714Y-61207142D01*
X81833333Y-61111904D01*
X81833333Y-60302380D01*
X82833333Y-61302380D02*
X82261904Y-61302380D01*
X82547619Y-61302380D02*
X82547619Y-60302380D01*
X82452380Y-60445238D01*
X82357142Y-60540476D01*
X82261904Y-60588095D01*
X83452380Y-60302380D02*
X83547619Y-60302380D01*
X83642857Y-60350000D01*
X83690476Y-60397619D01*
X83738095Y-60492857D01*
X83785714Y-60683333D01*
X83785714Y-60921428D01*
X83738095Y-61111904D01*
X83690476Y-61207142D01*
X83642857Y-61254761D01*
X83547619Y-61302380D01*
X83452380Y-61302380D01*
X83357142Y-61254761D01*
X83309523Y-61207142D01*
X83261904Y-61111904D01*
X83214285Y-60921428D01*
X83214285Y-60683333D01*
X83261904Y-60492857D01*
X83309523Y-60397619D01*
X83357142Y-60350000D01*
X83452380Y-60302380D01*
%TO.C,L1*%
X25933333Y-73227380D02*
X25457142Y-73227380D01*
X25457142Y-72227380D01*
X26790476Y-73227380D02*
X26219047Y-73227380D01*
X26504761Y-73227380D02*
X26504761Y-72227380D01*
X26409523Y-72370238D01*
X26314285Y-72465476D01*
X26219047Y-72513095D01*
D12*
%TO.C,C31*%
X91663571Y-84143571D02*
X91639761Y-84167380D01*
X91568333Y-84191190D01*
X91520714Y-84191190D01*
X91449285Y-84167380D01*
X91401666Y-84119761D01*
X91377857Y-84072142D01*
X91354047Y-83976904D01*
X91354047Y-83905476D01*
X91377857Y-83810238D01*
X91401666Y-83762619D01*
X91449285Y-83715000D01*
X91520714Y-83691190D01*
X91568333Y-83691190D01*
X91639761Y-83715000D01*
X91663571Y-83738809D01*
X91830238Y-83691190D02*
X92139761Y-83691190D01*
X91973095Y-83881666D01*
X92044523Y-83881666D01*
X92092142Y-83905476D01*
X92115952Y-83929285D01*
X92139761Y-83976904D01*
X92139761Y-84095952D01*
X92115952Y-84143571D01*
X92092142Y-84167380D01*
X92044523Y-84191190D01*
X91901666Y-84191190D01*
X91854047Y-84167380D01*
X91830238Y-84143571D01*
X92615952Y-84191190D02*
X92330238Y-84191190D01*
X92473095Y-84191190D02*
X92473095Y-83691190D01*
X92425476Y-83762619D01*
X92377857Y-83810238D01*
X92330238Y-83834047D01*
%TO.C,C28*%
X85213570Y-75683571D02*
X85189760Y-75707380D01*
X85118332Y-75731190D01*
X85070713Y-75731190D01*
X84999284Y-75707380D01*
X84951665Y-75659761D01*
X84927856Y-75612142D01*
X84904046Y-75516904D01*
X84904046Y-75445476D01*
X84927856Y-75350238D01*
X84951665Y-75302619D01*
X84999284Y-75255000D01*
X85070713Y-75231190D01*
X85118332Y-75231190D01*
X85189760Y-75255000D01*
X85213570Y-75278809D01*
X85404046Y-75278809D02*
X85427856Y-75255000D01*
X85475475Y-75231190D01*
X85594522Y-75231190D01*
X85642141Y-75255000D01*
X85665951Y-75278809D01*
X85689760Y-75326428D01*
X85689760Y-75374047D01*
X85665951Y-75445476D01*
X85380237Y-75731190D01*
X85689760Y-75731190D01*
X85975475Y-75445476D02*
X85927856Y-75421666D01*
X85904046Y-75397857D01*
X85880237Y-75350238D01*
X85880237Y-75326428D01*
X85904046Y-75278809D01*
X85927856Y-75255000D01*
X85975475Y-75231190D01*
X86070713Y-75231190D01*
X86118332Y-75255000D01*
X86142141Y-75278809D01*
X86165951Y-75326428D01*
X86165951Y-75350238D01*
X86142141Y-75397857D01*
X86118332Y-75421666D01*
X86070713Y-75445476D01*
X85975475Y-75445476D01*
X85927856Y-75469285D01*
X85904046Y-75493095D01*
X85880237Y-75540714D01*
X85880237Y-75635952D01*
X85904046Y-75683571D01*
X85927856Y-75707380D01*
X85975475Y-75731190D01*
X86070713Y-75731190D01*
X86118332Y-75707380D01*
X86142141Y-75683571D01*
X86165951Y-75635952D01*
X86165951Y-75540714D01*
X86142141Y-75493095D01*
X86118332Y-75469285D01*
X86070713Y-75445476D01*
D13*
%TO.C,D2*%
X28511904Y-54802380D02*
X28511904Y-53802380D01*
X28750000Y-53802380D01*
X28892857Y-53850000D01*
X28988095Y-53945238D01*
X29035714Y-54040476D01*
X29083333Y-54230952D01*
X29083333Y-54373809D01*
X29035714Y-54564285D01*
X28988095Y-54659523D01*
X28892857Y-54754761D01*
X28750000Y-54802380D01*
X28511904Y-54802380D01*
X29464285Y-53897619D02*
X29511904Y-53850000D01*
X29607142Y-53802380D01*
X29845238Y-53802380D01*
X29940476Y-53850000D01*
X29988095Y-53897619D01*
X30035714Y-53992857D01*
X30035714Y-54088095D01*
X29988095Y-54230952D01*
X29416666Y-54802380D01*
X30035714Y-54802380D01*
D12*
%TO.C,C23*%
X96113571Y-70782135D02*
X96137380Y-70805945D01*
X96161190Y-70877373D01*
X96161190Y-70924992D01*
X96137380Y-70996421D01*
X96089761Y-71044040D01*
X96042142Y-71067849D01*
X95946904Y-71091659D01*
X95875476Y-71091659D01*
X95780238Y-71067849D01*
X95732619Y-71044040D01*
X95685000Y-70996421D01*
X95661190Y-70924992D01*
X95661190Y-70877373D01*
X95685000Y-70805945D01*
X95708809Y-70782135D01*
X95708809Y-70591659D02*
X95685000Y-70567849D01*
X95661190Y-70520230D01*
X95661190Y-70401183D01*
X95685000Y-70353564D01*
X95708809Y-70329754D01*
X95756428Y-70305945D01*
X95804047Y-70305945D01*
X95875476Y-70329754D01*
X96161190Y-70615468D01*
X96161190Y-70305945D01*
X95661190Y-70139278D02*
X95661190Y-69829754D01*
X95851666Y-69996421D01*
X95851666Y-69924992D01*
X95875476Y-69877373D01*
X95899285Y-69853564D01*
X95946904Y-69829754D01*
X96065952Y-69829754D01*
X96113571Y-69853564D01*
X96137380Y-69877373D01*
X96161190Y-69924992D01*
X96161190Y-70067849D01*
X96137380Y-70115468D01*
X96113571Y-70139278D01*
D13*
%TO.C,C4*%
X81058333Y-56482142D02*
X81010714Y-56529761D01*
X80867857Y-56577380D01*
X80772619Y-56577380D01*
X80629761Y-56529761D01*
X80534523Y-56434523D01*
X80486904Y-56339285D01*
X80439285Y-56148809D01*
X80439285Y-56005952D01*
X80486904Y-55815476D01*
X80534523Y-55720238D01*
X80629761Y-55625000D01*
X80772619Y-55577380D01*
X80867857Y-55577380D01*
X81010714Y-55625000D01*
X81058333Y-55672619D01*
X81915476Y-55910714D02*
X81915476Y-56577380D01*
X81677380Y-55529761D02*
X81439285Y-56244047D01*
X82058333Y-56244047D01*
%TO.C,C6*%
X102243333Y-72127142D02*
X102195714Y-72174761D01*
X102052857Y-72222380D01*
X101957619Y-72222380D01*
X101814761Y-72174761D01*
X101719523Y-72079523D01*
X101671904Y-71984285D01*
X101624285Y-71793809D01*
X101624285Y-71650952D01*
X101671904Y-71460476D01*
X101719523Y-71365238D01*
X101814761Y-71270000D01*
X101957619Y-71222380D01*
X102052857Y-71222380D01*
X102195714Y-71270000D01*
X102243333Y-71317619D01*
X103100476Y-71222380D02*
X102910000Y-71222380D01*
X102814761Y-71270000D01*
X102767142Y-71317619D01*
X102671904Y-71460476D01*
X102624285Y-71650952D01*
X102624285Y-72031904D01*
X102671904Y-72127142D01*
X102719523Y-72174761D01*
X102814761Y-72222380D01*
X103005238Y-72222380D01*
X103100476Y-72174761D01*
X103148095Y-72127142D01*
X103195714Y-72031904D01*
X103195714Y-71793809D01*
X103148095Y-71698571D01*
X103100476Y-71650952D01*
X103005238Y-71603333D01*
X102814761Y-71603333D01*
X102719523Y-71650952D01*
X102671904Y-71698571D01*
X102624285Y-71793809D01*
%TO.C,C3*%
X33133333Y-67157142D02*
X33085714Y-67204761D01*
X32942857Y-67252380D01*
X32847619Y-67252380D01*
X32704761Y-67204761D01*
X32609523Y-67109523D01*
X32561904Y-67014285D01*
X32514285Y-66823809D01*
X32514285Y-66680952D01*
X32561904Y-66490476D01*
X32609523Y-66395238D01*
X32704761Y-66300000D01*
X32847619Y-66252380D01*
X32942857Y-66252380D01*
X33085714Y-66300000D01*
X33133333Y-66347619D01*
X33466666Y-66252380D02*
X34085714Y-66252380D01*
X33752380Y-66633333D01*
X33895238Y-66633333D01*
X33990476Y-66680952D01*
X34038095Y-66728571D01*
X34085714Y-66823809D01*
X34085714Y-67061904D01*
X34038095Y-67157142D01*
X33990476Y-67204761D01*
X33895238Y-67252380D01*
X33609523Y-67252380D01*
X33514285Y-67204761D01*
X33466666Y-67157142D01*
D12*
%TO.C,R21*%
X80296071Y-80146190D02*
X80129404Y-79908095D01*
X80010357Y-80146190D02*
X80010357Y-79646190D01*
X80200833Y-79646190D01*
X80248452Y-79670000D01*
X80272261Y-79693809D01*
X80296071Y-79741428D01*
X80296071Y-79812857D01*
X80272261Y-79860476D01*
X80248452Y-79884285D01*
X80200833Y-79908095D01*
X80010357Y-79908095D01*
X80486547Y-79693809D02*
X80510357Y-79670000D01*
X80557976Y-79646190D01*
X80677023Y-79646190D01*
X80724642Y-79670000D01*
X80748452Y-79693809D01*
X80772261Y-79741428D01*
X80772261Y-79789047D01*
X80748452Y-79860476D01*
X80462738Y-80146190D01*
X80772261Y-80146190D01*
X81248452Y-80146190D02*
X80962738Y-80146190D01*
X81105595Y-80146190D02*
X81105595Y-79646190D01*
X81057976Y-79717619D01*
X81010357Y-79765238D01*
X80962738Y-79789047D01*
D13*
%TO.C,C17*%
X87157143Y-56807142D02*
X87109524Y-56854761D01*
X86966667Y-56902380D01*
X86871429Y-56902380D01*
X86728572Y-56854761D01*
X86633334Y-56759523D01*
X86585715Y-56664285D01*
X86538096Y-56473809D01*
X86538096Y-56330952D01*
X86585715Y-56140476D01*
X86633334Y-56045238D01*
X86728572Y-55950000D01*
X86871429Y-55902380D01*
X86966667Y-55902380D01*
X87109524Y-55950000D01*
X87157143Y-55997619D01*
X88109524Y-56902380D02*
X87538096Y-56902380D01*
X87823810Y-56902380D02*
X87823810Y-55902380D01*
X87728572Y-56045238D01*
X87633334Y-56140476D01*
X87538096Y-56188095D01*
X88442858Y-55902380D02*
X89109524Y-55902380D01*
X88680953Y-56902380D01*
%TO.C,R16*%
X64517142Y-65732380D02*
X64183809Y-65256190D01*
X63945714Y-65732380D02*
X63945714Y-64732380D01*
X64326666Y-64732380D01*
X64421904Y-64780000D01*
X64469523Y-64827619D01*
X64517142Y-64922857D01*
X64517142Y-65065714D01*
X64469523Y-65160952D01*
X64421904Y-65208571D01*
X64326666Y-65256190D01*
X63945714Y-65256190D01*
X65469523Y-65732380D02*
X64898095Y-65732380D01*
X65183809Y-65732380D02*
X65183809Y-64732380D01*
X65088571Y-64875238D01*
X64993333Y-64970476D01*
X64898095Y-65018095D01*
X66326666Y-64732380D02*
X66136190Y-64732380D01*
X66040952Y-64780000D01*
X65993333Y-64827619D01*
X65898095Y-64970476D01*
X65850476Y-65160952D01*
X65850476Y-65541904D01*
X65898095Y-65637142D01*
X65945714Y-65684761D01*
X66040952Y-65732380D01*
X66231428Y-65732380D01*
X66326666Y-65684761D01*
X66374285Y-65637142D01*
X66421904Y-65541904D01*
X66421904Y-65303809D01*
X66374285Y-65208571D01*
X66326666Y-65160952D01*
X66231428Y-65113333D01*
X66040952Y-65113333D01*
X65945714Y-65160952D01*
X65898095Y-65208571D01*
X65850476Y-65303809D01*
%TO.C,C19*%
X88670966Y-59866902D02*
X88623347Y-59914521D01*
X88480490Y-59962140D01*
X88385252Y-59962140D01*
X88242395Y-59914521D01*
X88147157Y-59819283D01*
X88099538Y-59724045D01*
X88051919Y-59533569D01*
X88051919Y-59390712D01*
X88099538Y-59200236D01*
X88147157Y-59104998D01*
X88242395Y-59009760D01*
X88385252Y-58962140D01*
X88480490Y-58962140D01*
X88623347Y-59009760D01*
X88670966Y-59057379D01*
X89623347Y-59962140D02*
X89051919Y-59962140D01*
X89337633Y-59962140D02*
X89337633Y-58962140D01*
X89242395Y-59104998D01*
X89147157Y-59200236D01*
X89051919Y-59247855D01*
X90099538Y-59962140D02*
X90290014Y-59962140D01*
X90385252Y-59914521D01*
X90432871Y-59866902D01*
X90528109Y-59724045D01*
X90575728Y-59533569D01*
X90575728Y-59152617D01*
X90528109Y-59057379D01*
X90480490Y-59009760D01*
X90385252Y-58962140D01*
X90194776Y-58962140D01*
X90099538Y-59009760D01*
X90051919Y-59057379D01*
X90004300Y-59152617D01*
X90004300Y-59390712D01*
X90051919Y-59485950D01*
X90099538Y-59533569D01*
X90194776Y-59581188D01*
X90385252Y-59581188D01*
X90480490Y-59533569D01*
X90528109Y-59485950D01*
X90575728Y-59390712D01*
%TO.C,C22*%
X55232142Y-49617857D02*
X55279761Y-49665476D01*
X55327380Y-49808333D01*
X55327380Y-49903571D01*
X55279761Y-50046428D01*
X55184523Y-50141666D01*
X55089285Y-50189285D01*
X54898809Y-50236904D01*
X54755952Y-50236904D01*
X54565476Y-50189285D01*
X54470238Y-50141666D01*
X54375000Y-50046428D01*
X54327380Y-49903571D01*
X54327380Y-49808333D01*
X54375000Y-49665476D01*
X54422619Y-49617857D01*
X54422619Y-49236904D02*
X54375000Y-49189285D01*
X54327380Y-49094047D01*
X54327380Y-48855952D01*
X54375000Y-48760714D01*
X54422619Y-48713095D01*
X54517857Y-48665476D01*
X54613095Y-48665476D01*
X54755952Y-48713095D01*
X55327380Y-49284523D01*
X55327380Y-48665476D01*
X54422619Y-48284523D02*
X54375000Y-48236904D01*
X54327380Y-48141666D01*
X54327380Y-47903571D01*
X54375000Y-47808333D01*
X54422619Y-47760714D01*
X54517857Y-47713095D01*
X54613095Y-47713095D01*
X54755952Y-47760714D01*
X55327380Y-48332142D01*
X55327380Y-47713095D01*
D12*
%TO.C,R91*%
X80323571Y-80836190D02*
X80156904Y-80598095D01*
X80037857Y-80836190D02*
X80037857Y-80336190D01*
X80228333Y-80336190D01*
X80275952Y-80360000D01*
X80299761Y-80383809D01*
X80323571Y-80431428D01*
X80323571Y-80502857D01*
X80299761Y-80550476D01*
X80275952Y-80574285D01*
X80228333Y-80598095D01*
X80037857Y-80598095D01*
X80561666Y-80836190D02*
X80656904Y-80836190D01*
X80704523Y-80812380D01*
X80728333Y-80788571D01*
X80775952Y-80717142D01*
X80799761Y-80621904D01*
X80799761Y-80431428D01*
X80775952Y-80383809D01*
X80752142Y-80360000D01*
X80704523Y-80336190D01*
X80609285Y-80336190D01*
X80561666Y-80360000D01*
X80537857Y-80383809D01*
X80514047Y-80431428D01*
X80514047Y-80550476D01*
X80537857Y-80598095D01*
X80561666Y-80621904D01*
X80609285Y-80645714D01*
X80704523Y-80645714D01*
X80752142Y-80621904D01*
X80775952Y-80598095D01*
X80799761Y-80550476D01*
X81275952Y-80836190D02*
X80990238Y-80836190D01*
X81133095Y-80836190D02*
X81133095Y-80336190D01*
X81085476Y-80407619D01*
X81037857Y-80455238D01*
X80990238Y-80479047D01*
D13*
%TO.C,R4*%
X98020833Y-60266204D02*
X97687500Y-59790014D01*
X97449404Y-60266204D02*
X97449404Y-59266204D01*
X97830357Y-59266204D01*
X97925595Y-59313824D01*
X97973214Y-59361443D01*
X98020833Y-59456681D01*
X98020833Y-59599538D01*
X97973214Y-59694776D01*
X97925595Y-59742395D01*
X97830357Y-59790014D01*
X97449404Y-59790014D01*
X98877976Y-59599538D02*
X98877976Y-60266204D01*
X98639880Y-59218585D02*
X98401785Y-59932871D01*
X99020833Y-59932871D01*
D10*
%TO.C,Y2*%
X55225000Y-50650000D02*
X55225000Y-53450000D01*
X55225000Y-53450000D02*
X58525000Y-53450000D01*
%TO.C,U8*%
X72885000Y-60610000D02*
X72640000Y-60610000D01*
X61115000Y-56750000D02*
X61115000Y-52890000D01*
X61115000Y-56750000D02*
X61115000Y-60610000D01*
X61115000Y-60610000D02*
X61360000Y-60610000D01*
X72640000Y-52890000D02*
X72640000Y-51075000D01*
X72885000Y-52890000D02*
X72640000Y-52890000D01*
X72885000Y-56750000D02*
X72885000Y-52890000D01*
X61115000Y-52890000D02*
X61360000Y-52890000D01*
X72885000Y-56750000D02*
X72885000Y-60610000D01*
%TO.C,D1*%
X24425000Y-61750000D02*
X24425000Y-57850000D01*
X26425000Y-61750000D02*
X26425000Y-57850000D01*
X24425000Y-61750000D02*
X26425000Y-61750000D01*
%TO.C,U5*%
X53865000Y-58750000D02*
X53865000Y-60950000D01*
X53865000Y-58750000D02*
X53865000Y-56550000D01*
X60635000Y-58750000D02*
X60635000Y-60950000D01*
X60635000Y-58750000D02*
X60635000Y-55150000D01*
%TO.C,L2*%
X34575000Y-84800000D02*
X34575000Y-85250000D01*
X28375000Y-84800000D02*
X28375000Y-85250000D01*
X28375000Y-84800000D02*
X34575000Y-84800000D01*
X28375000Y-91000000D02*
X28375000Y-90550000D01*
X34575000Y-91000000D02*
X34575000Y-90550000D01*
X34575000Y-91000000D02*
X28375000Y-91000000D01*
%TO.C,R8*%
X37702500Y-62404724D02*
X37702500Y-61895276D01*
X38747500Y-62404724D02*
X38747500Y-61895276D01*
%TO.C,C15*%
X82615000Y-70303733D02*
X82615000Y-70596267D01*
X83635000Y-70303733D02*
X83635000Y-70596267D01*
%TO.C,R7*%
X96290000Y-77446267D02*
X96290000Y-77153733D01*
X97310000Y-77446267D02*
X97310000Y-77153733D01*
%TO.C,C21*%
X58640000Y-52221267D02*
X58640000Y-51928733D01*
X59660000Y-52221267D02*
X59660000Y-51928733D01*
D15*
%TO.C,PAU301*%
X41500000Y-80345000D02*
X44500000Y-80345000D01*
X44500000Y-80345000D02*
X44500000Y-78845000D01*
D16*
X46000000Y-77845000D02*
X40000000Y-77845000D01*
D15*
X44500000Y-78845000D02*
X41500000Y-78845000D01*
X41500000Y-78845000D02*
X41500000Y-80345000D01*
D16*
X40000000Y-81345000D02*
X46000000Y-81345000D01*
X38577000Y-77595000D02*
G75*
G03*
X38577000Y-77595000I-127000J0D01*
G01*
D10*
%TO.C,U7*%
X99263687Y-64587273D02*
X99263687Y-61862273D01*
X99263687Y-61862273D02*
X99523687Y-61862273D01*
X104713687Y-64587273D02*
X104713687Y-67312273D01*
X104713687Y-67312273D02*
X104453687Y-67312273D01*
X99263687Y-64587273D02*
X99263687Y-67312273D01*
X104713687Y-64587273D02*
X104713687Y-61862273D01*
X104713687Y-61862273D02*
X104453687Y-61862273D01*
X99263687Y-67312273D02*
X99523687Y-67312273D01*
X104453687Y-61862273D02*
X104453687Y-60187273D01*
%TO.C,C11*%
X46885000Y-64488748D02*
X46885000Y-65011252D01*
X45415000Y-64488748D02*
X45415000Y-65011252D01*
%TO.C,C16*%
X61638748Y-63015000D02*
X62161252Y-63015000D01*
X61638748Y-64485000D02*
X62161252Y-64485000D01*
%TO.C,C24*%
X86810000Y-70303733D02*
X86810000Y-70596267D01*
X85790000Y-70303733D02*
X85790000Y-70596267D01*
%TO.C,C27*%
X94486252Y-86110000D02*
X93963748Y-86110000D01*
X94486252Y-87580000D02*
X93963748Y-87580000D01*
%TO.C,R5*%
X82072500Y-68370276D02*
X82072500Y-68879724D01*
X81027500Y-68370276D02*
X81027500Y-68879724D01*
%TO.C,R2*%
X38747500Y-66517224D02*
X38747500Y-66007776D01*
X37702500Y-66517224D02*
X37702500Y-66007776D01*
%TO.C,J2*%
X77194838Y-85657500D02*
X77134838Y-85657500D01*
X77134838Y-85657500D02*
X77134838Y-87117500D01*
X56814838Y-85657500D02*
X56754838Y-85657500D01*
X56754838Y-82997500D02*
X56754838Y-85657500D01*
X77194838Y-82997500D02*
X77134838Y-82997500D01*
X56814838Y-82997500D02*
X56754838Y-82997500D01*
X77194838Y-82997500D02*
X77194838Y-85657500D01*
%TO.C,D4*%
X35125000Y-74125000D02*
X35125000Y-78025000D01*
X37125000Y-74125000D02*
X35125000Y-74125000D01*
X37125000Y-74125000D02*
X37125000Y-78025000D01*
%TO.C,C18*%
X95560000Y-66203733D02*
X95560000Y-66496267D01*
X94540000Y-66203733D02*
X94540000Y-66496267D01*
%TO.C,C25*%
X32963748Y-80365000D02*
X33486252Y-80365000D01*
X32963748Y-81835000D02*
X33486252Y-81835000D01*
%TO.C,U2*%
X52745000Y-64800000D02*
X52745000Y-62850000D01*
X47625000Y-64800000D02*
X47625000Y-68250000D01*
X47625000Y-64800000D02*
X47625000Y-62850000D01*
X52745000Y-64800000D02*
X52745000Y-66750000D01*
%TO.C,C9*%
X84240000Y-70303733D02*
X84240000Y-70596267D01*
X85260000Y-70303733D02*
X85260000Y-70596267D01*
%TO.C,J5*%
X101590000Y-84000000D02*
X101590000Y-84635000D01*
X101590000Y-84635000D02*
X100955000Y-84635000D01*
%TO.C,C30*%
X96543748Y-75720000D02*
X97066252Y-75720000D01*
X96543748Y-74250000D02*
X97066252Y-74250000D01*
%TO.C,C7*%
X78853733Y-62610000D02*
X79146267Y-62610000D01*
X78853733Y-61590000D02*
X79146267Y-61590000D01*
%TO.C,C5*%
X29286251Y-64373041D02*
X28763747Y-64373041D01*
X29286251Y-65843041D02*
X28763747Y-65843041D01*
%TO.C,R22*%
X81255276Y-79462500D02*
X81764724Y-79462500D01*
X81255276Y-78417500D02*
X81764724Y-78417500D01*
%TO.C,C8*%
X78853733Y-70034999D02*
X79146267Y-70034999D01*
X78853733Y-69014999D02*
X79146267Y-69014999D01*
D15*
%TO.C,J4*%
X63320000Y-42090000D02*
X63320000Y-48520000D01*
X71750000Y-48520000D02*
X70680000Y-48520000D01*
X65375000Y-48520000D02*
X63320000Y-48520000D01*
X16500000Y-30230000D02*
X117500000Y-30230000D01*
X117500000Y-14480000D02*
X16500000Y-14480000D01*
X62250000Y-48520000D02*
X62250000Y-42090000D01*
X81500000Y-42090000D02*
X71750000Y-42090000D01*
X107500000Y-53390000D02*
X81500000Y-53390000D01*
X117500000Y-30230000D02*
X117500000Y-42090000D01*
X117500000Y-30230000D02*
X117500000Y-14480000D01*
X65375000Y-45145000D02*
X65375000Y-48520000D01*
X52500000Y-42090000D02*
X52500000Y-53390000D01*
X70680000Y-48520000D02*
X68625000Y-48520000D01*
X16500000Y-42090000D02*
X16500000Y-30230000D01*
X26500000Y-42090000D02*
X16500000Y-42090000D01*
X52500000Y-42090000D02*
X26500000Y-42090000D01*
X107500000Y-42090000D02*
X81500000Y-42090000D01*
X71750000Y-42090000D02*
X70680000Y-42090000D01*
X63320000Y-48520000D02*
X62250000Y-48520000D01*
X81500000Y-53390000D02*
X81500000Y-42090000D01*
X71750000Y-42090000D02*
X71750000Y-48520000D01*
X52500000Y-53390000D02*
X26500000Y-53390000D01*
X26500000Y-53390000D02*
X26500000Y-42090000D01*
X70680000Y-42090000D02*
X70680000Y-48520000D01*
X117500000Y-42090000D02*
X107500000Y-42090000D01*
X70680000Y-42090000D02*
X63320000Y-42090000D01*
X62250000Y-42090000D02*
X52500000Y-42090000D01*
X107500000Y-42090000D02*
X107500000Y-53390000D01*
X63320000Y-42090000D02*
X62250000Y-42090000D01*
X68625000Y-48520000D02*
X68625000Y-45145000D01*
X16500000Y-14480000D02*
X16500000Y-30230000D01*
X68625000Y-45145000D02*
G75*
G03*
X67000000Y-43520000I-1624998J2D01*
G01*
X67000000Y-43520000D02*
G75*
G03*
X65375000Y-45145000I-2J-1624998D01*
G01*
D17*
X80950000Y-45000000D02*
G75*
G03*
X80950000Y-45000000I-200000J0D01*
G01*
D10*
%TO.C,C26*%
X29611252Y-80440000D02*
X29088748Y-80440000D01*
X29611252Y-81910000D02*
X29088748Y-81910000D01*
%TO.C,C14*%
X90715000Y-70303733D02*
X90715000Y-70596267D01*
X91735000Y-70303733D02*
X91735000Y-70596267D01*
%TO.C,C10*%
X97110000Y-66203733D02*
X97110000Y-66496267D01*
X96090000Y-66203733D02*
X96090000Y-66496267D01*
%TO.C,C2*%
X32765000Y-55611252D02*
X32765000Y-55088748D01*
X34235000Y-55611252D02*
X34235000Y-55088748D01*
%TO.C,R15*%
X48757500Y-59054724D02*
X48757500Y-58545276D01*
X47712500Y-59054724D02*
X47712500Y-58545276D01*
%TO.C,C12*%
X93260000Y-68028733D02*
X93260000Y-68321267D01*
X92240000Y-68028733D02*
X92240000Y-68321267D01*
D15*
%TO.C,MOD301*%
X44500000Y-84325000D02*
X41500000Y-84325000D01*
X44500000Y-85825000D02*
X44500000Y-84325000D01*
D16*
X40000000Y-86825000D02*
X46000000Y-86825000D01*
D15*
X41500000Y-85825000D02*
X44500000Y-85825000D01*
X41500000Y-84325000D02*
X41500000Y-85825000D01*
D16*
X46000000Y-83325000D02*
X40000000Y-83325000D01*
X38577000Y-83075000D02*
G75*
G03*
X38577000Y-83075000I-127000J0D01*
G01*
D10*
%TO.C,R3*%
X95345276Y-57627500D02*
X95854724Y-57627500D01*
X95345276Y-58672500D02*
X95854724Y-58672500D01*
%TO.C,R6*%
X103340000Y-77128733D02*
X103340000Y-77421267D01*
X104360000Y-77128733D02*
X104360000Y-77421267D01*
%TO.C,C29*%
X90493748Y-72150000D02*
X91016252Y-72150000D01*
X90493748Y-73620000D02*
X91016252Y-73620000D01*
%TO.C,D302*%
X79785000Y-76345000D02*
X79785000Y-74875000D01*
X79785000Y-74875000D02*
X77325000Y-74875000D01*
X77325000Y-76345000D02*
X79785000Y-76345000D01*
%TO.C,C13*%
X90135000Y-70303733D02*
X90135000Y-70596267D01*
X89115000Y-70303733D02*
X89115000Y-70596267D01*
D13*
%TO.C,U9*%
X78700000Y-54150000D02*
X78700000Y-59200000D01*
X73650000Y-59200000D02*
X73700000Y-59200000D01*
X78650000Y-54150000D02*
X78700000Y-54150000D01*
X78650000Y-59200000D02*
X78700000Y-59200000D01*
X73650000Y-54150000D02*
X73650000Y-59200000D01*
X73650000Y-54150000D02*
X73700000Y-54150000D01*
D18*
X77950000Y-52825000D02*
G75*
G03*
X77950000Y-52825000I-125000J0D01*
G01*
D10*
%TO.C,C20*%
X34840000Y-55396267D02*
X34840000Y-55103733D01*
X35860000Y-55396267D02*
X35860000Y-55103733D01*
%TO.C,U10*%
X84140000Y-68160000D02*
X84790000Y-68160000D01*
X91360000Y-68160000D02*
X90710000Y-68160000D01*
X84140000Y-60940000D02*
X84790000Y-60940000D01*
X91360000Y-67510000D02*
X91360000Y-68160000D01*
X84140000Y-67510000D02*
X84140000Y-68160000D01*
X91360000Y-61590000D02*
X91360000Y-60940000D01*
X84140000Y-61590000D02*
X84140000Y-60940000D01*
%TO.C,L1*%
X28575000Y-73925000D02*
X28575000Y-73475000D01*
X28575000Y-67725000D02*
X28575000Y-68175000D01*
X34775000Y-73925000D02*
X34775000Y-73475000D01*
X28575000Y-67725000D02*
X34775000Y-67725000D01*
X34775000Y-73925000D02*
X28575000Y-73925000D01*
X34775000Y-67725000D02*
X34775000Y-68175000D01*
%TO.C,R104*%
X51139724Y-58122500D02*
X50630276Y-58122500D01*
X51139724Y-57077500D02*
X50630276Y-57077500D01*
%TO.C,C31*%
X85615000Y-83770563D02*
X85615000Y-83135000D01*
X84750000Y-80390000D02*
X85375000Y-80390000D01*
X91135000Y-79315000D02*
X91135000Y-81015000D01*
X85615000Y-80379437D02*
X86679437Y-79315000D01*
X85615000Y-80379437D02*
X85615000Y-81015000D01*
X86679437Y-79315000D02*
X91135000Y-79315000D01*
X85615000Y-83770563D02*
X86679437Y-84835000D01*
X85062500Y-80077500D02*
X85062500Y-80702500D01*
X86679437Y-84835000D02*
X91135000Y-84835000D01*
X91135000Y-84835000D02*
X91135000Y-83135000D01*
%TO.C,C28*%
X83260000Y-75273748D02*
X83260000Y-75796252D01*
X84730000Y-75273748D02*
X84730000Y-75796252D01*
%TO.C,D2*%
X27250001Y-55300000D02*
X31150001Y-55300000D01*
X27250001Y-55300000D02*
X27250001Y-57300000D01*
X27250001Y-57300000D02*
X31150001Y-57300000D01*
%TO.C,C23*%
X95535000Y-70303733D02*
X95535000Y-70596267D01*
X94515000Y-70303733D02*
X94515000Y-70596267D01*
D19*
%TO.C,U304*%
X28441418Y-57605000D02*
G75*
G03*
X28441418Y-57605000I-141419J0D01*
G01*
D10*
%TO.C,D301*%
X79812500Y-79665000D02*
X79812500Y-78195000D01*
X77352500Y-79665000D02*
X79812500Y-79665000D01*
X79812500Y-78195000D02*
X77352500Y-78195000D01*
D19*
%TO.C,U3*%
X28441419Y-74675000D02*
G75*
G03*
X28441419Y-74675000I-141419J0D01*
G01*
D10*
%TO.C,C4*%
X80085000Y-54878733D02*
X80085000Y-55171267D01*
X79065000Y-54878733D02*
X79065000Y-55171267D01*
%TO.C,C6*%
X103440000Y-71603733D02*
X103440000Y-71896267D01*
X104460000Y-71603733D02*
X104460000Y-71896267D01*
%TO.C,C3*%
X33038748Y-64373041D02*
X33561252Y-64373041D01*
X33038748Y-65843041D02*
X33561252Y-65843041D01*
%TO.C,D308*%
X77335000Y-78015000D02*
X79795000Y-78015000D01*
X79795000Y-76545000D02*
X77335000Y-76545000D01*
X79795000Y-78015000D02*
X79795000Y-76545000D01*
%TO.C,R21*%
X81280276Y-76142500D02*
X81789724Y-76142500D01*
X81280276Y-75097500D02*
X81789724Y-75097500D01*
%TO.C,C17*%
X85090000Y-56435181D02*
X85090000Y-56142647D01*
X86110000Y-56435181D02*
X86110000Y-56142647D01*
%TO.C,R16*%
X61845276Y-65077500D02*
X62354724Y-65077500D01*
X61845276Y-66122500D02*
X62354724Y-66122500D01*
%TO.C,C19*%
X92000240Y-58710091D02*
X92000240Y-58417557D01*
X90980240Y-58710091D02*
X90980240Y-58417557D01*
%TO.C,TP2*%
X40050000Y-64200000D02*
G75*
G03*
X40050000Y-64200000I-700000J0D01*
G01*
%TO.C,C22*%
X54935000Y-52221267D02*
X54935000Y-51928733D01*
X53915000Y-52221267D02*
X53915000Y-51928733D01*
%TO.C,R91*%
X81250276Y-76747500D02*
X81759724Y-76747500D01*
X81250276Y-77792500D02*
X81759724Y-77792500D01*
%TO.C,R4*%
X95854724Y-59227500D02*
X95345276Y-59227500D01*
X95854724Y-60272500D02*
X95345276Y-60272500D01*
%TO.C,Y3*%
X76100000Y-68425000D02*
X80600000Y-68425000D01*
X80600000Y-68425000D02*
X80600000Y-63025000D01*
%TD*%
%LPC*%
D20*
%TO.C,Y2*%
X56000000Y-52750000D03*
X57750000Y-52750000D03*
X57750000Y-51350000D03*
X56000000Y-51350000D03*
%TD*%
D21*
%TO.C,U8*%
X72080000Y-52100000D03*
X70810000Y-52100000D03*
X69540000Y-52100000D03*
X68270000Y-52100000D03*
X67000000Y-52100000D03*
X65730000Y-52100000D03*
X64460000Y-52100000D03*
X63190000Y-52100000D03*
X61920000Y-52100000D03*
X61920000Y-61400000D03*
X63190000Y-61400000D03*
X64460000Y-61400000D03*
X65730000Y-61400000D03*
X67000000Y-61400000D03*
X68270000Y-61400000D03*
X69540000Y-61400000D03*
X70810000Y-61400000D03*
X72080000Y-61400000D03*
%TD*%
D22*
%TO.C,D1*%
X25425000Y-61150000D03*
X25425000Y-57850000D03*
%TD*%
D23*
%TO.C,U5*%
X60175000Y-55887500D03*
X59525000Y-55887500D03*
X58875000Y-55887500D03*
X58225000Y-55887500D03*
X57575000Y-55887500D03*
X56925000Y-55887500D03*
X56275000Y-55887500D03*
X55625000Y-55887500D03*
X54975000Y-55887500D03*
X54325000Y-55887500D03*
X54325000Y-61612500D03*
X54975000Y-61612500D03*
X55625000Y-61612500D03*
X56275000Y-61612500D03*
X56925000Y-61612500D03*
X57575000Y-61612500D03*
X58225000Y-61612500D03*
X58875000Y-61612500D03*
X59525000Y-61612500D03*
X60175000Y-61612500D03*
%TD*%
D24*
%TO.C,L2*%
X29400000Y-87900000D03*
X33550000Y-87900000D03*
%TD*%
D25*
%TO.C,R8*%
X38225000Y-63062500D03*
X38225000Y-61237500D03*
%TD*%
D26*
%TO.C,C15*%
X83125000Y-69587500D03*
X83125000Y-71312500D03*
%TD*%
D27*
%TO.C,R7*%
X96800000Y-78162500D03*
X96800000Y-76437500D03*
%TD*%
%TO.C,C21*%
X59150000Y-52937500D03*
X59150000Y-51212500D03*
%TD*%
D28*
%TO.C,PAU301*%
X39000000Y-79595000D03*
X47000000Y-79595000D03*
%TD*%
D29*
%TO.C,U7*%
X103893687Y-60987273D03*
X102623687Y-60987273D03*
X101353687Y-60987273D03*
X100083687Y-60987273D03*
X100083687Y-68187273D03*
X101353687Y-68187273D03*
X102623687Y-68187273D03*
X103893687Y-68187273D03*
%TD*%
D30*
%TO.C,C11*%
X46150000Y-63712500D03*
X46150000Y-65787500D03*
%TD*%
D31*
%TO.C,C16*%
X60862500Y-63750000D03*
X62937500Y-63750000D03*
%TD*%
D26*
%TO.C,C24*%
X86300000Y-69587500D03*
X86300000Y-71312500D03*
%TD*%
D32*
%TO.C,H304*%
X67000000Y-47000000D03*
%TD*%
D33*
%TO.C,C27*%
X95262500Y-86845000D03*
X93187500Y-86845000D03*
%TD*%
D34*
%TO.C,R5*%
X81550000Y-67712500D03*
X81550000Y-69537500D03*
%TD*%
D25*
%TO.C,R2*%
X38225000Y-67175000D03*
X38225000Y-65350000D03*
%TD*%
D35*
%TO.C,J2*%
X76499838Y-86127500D03*
X76499838Y-82527500D03*
X75229838Y-86127500D03*
X75229838Y-82527500D03*
X73959838Y-86127500D03*
X73959838Y-82527500D03*
X72689838Y-86127500D03*
X72689838Y-82527500D03*
X71419838Y-86127500D03*
X71419838Y-82527500D03*
X70149838Y-86127500D03*
X70149838Y-82527500D03*
X68879838Y-86127500D03*
X68879838Y-82527500D03*
X67609838Y-86127500D03*
X67609838Y-82527500D03*
X66339838Y-86127500D03*
X66339838Y-82527500D03*
X65069838Y-86127500D03*
X65069838Y-82527500D03*
X63799838Y-86127500D03*
X63799838Y-82527500D03*
X62529838Y-86127500D03*
X62529838Y-82527500D03*
X61259838Y-86127500D03*
X61259838Y-82527500D03*
X59989838Y-86127500D03*
X59989838Y-82527500D03*
X58719838Y-86127500D03*
X58719838Y-82527500D03*
X57449838Y-86127500D03*
X57449838Y-82527500D03*
D36*
X79062378Y-84252581D03*
D37*
X79074838Y-89277419D03*
D38*
X54924838Y-89239959D03*
D39*
X55018608Y-84240040D03*
%TD*%
D22*
%TO.C,D4*%
X36125000Y-74725000D03*
X36125000Y-78025000D03*
%TD*%
D26*
%TO.C,C18*%
X95050000Y-65487500D03*
X95050000Y-67212500D03*
%TD*%
D31*
%TO.C,C25*%
X32187500Y-81100000D03*
X34262500Y-81100000D03*
%TD*%
D40*
%TO.C,U2*%
X48280000Y-67275000D03*
X49550000Y-67275000D03*
X50820000Y-67275000D03*
X52090000Y-67275000D03*
X52090000Y-62325000D03*
X50820000Y-62325000D03*
X49550000Y-62325000D03*
X48280000Y-62325000D03*
%TD*%
D26*
%TO.C,C9*%
X84750000Y-69587500D03*
X84750000Y-71312500D03*
%TD*%
D41*
%TO.C,J5*%
X97780000Y-82095000D03*
D42*
X101336000Y-80190000D03*
X100320000Y-85270000D03*
D41*
X97780000Y-85270000D03*
X102860000Y-82095000D03*
X102860000Y-85270000D03*
D42*
X99304000Y-80190000D03*
D43*
X100955000Y-84000000D03*
X99685000Y-84000000D03*
X100955000Y-82730000D03*
X99685000Y-82730000D03*
X100955000Y-81460000D03*
X99685000Y-81460000D03*
%TD*%
D31*
%TO.C,C30*%
X95767500Y-74985000D03*
X97842500Y-74985000D03*
%TD*%
D44*
%TO.C,C7*%
X78137500Y-62100000D03*
X79862500Y-62100000D03*
%TD*%
D33*
%TO.C,C5*%
X30062499Y-65108041D03*
X27987499Y-65108041D03*
%TD*%
D45*
%TO.C,R22*%
X80597500Y-78940000D03*
X82422500Y-78940000D03*
%TD*%
D44*
%TO.C,C8*%
X78137500Y-69524999D03*
X79862500Y-69524999D03*
%TD*%
D46*
%TO.C,J4*%
X84025000Y-45040000D03*
D47*
X88215000Y-45040000D03*
X92405000Y-45040000D03*
X96595000Y-45040000D03*
X100785000Y-45040000D03*
X104975000Y-45040000D03*
X104975000Y-51390000D03*
X100785000Y-51390000D03*
X96595000Y-51390000D03*
X92405000Y-51390000D03*
X88215000Y-51390000D03*
X84025000Y-51390000D03*
D46*
X49975000Y-51390000D03*
D47*
X45785000Y-51390000D03*
X41595000Y-51390000D03*
X37405000Y-51390000D03*
X33215000Y-51390000D03*
X29025000Y-51390000D03*
X29025000Y-45040000D03*
X33215000Y-45040000D03*
X37405000Y-45040000D03*
X41595000Y-45040000D03*
X45785000Y-45040000D03*
X49975000Y-45040000D03*
%TD*%
D33*
%TO.C,C26*%
X30387500Y-81175000D03*
X28312500Y-81175000D03*
%TD*%
D26*
%TO.C,C14*%
X91225000Y-69587500D03*
X91225000Y-71312500D03*
%TD*%
%TO.C,C10*%
X96600000Y-65487500D03*
X96600000Y-67212500D03*
%TD*%
D48*
%TO.C,C2*%
X33500000Y-56387500D03*
X33500000Y-54312500D03*
%TD*%
D25*
%TO.C,R15*%
X48235000Y-59712500D03*
X48235000Y-57887500D03*
%TD*%
D26*
%TO.C,C12*%
X92750000Y-67312500D03*
X92750000Y-69037500D03*
%TD*%
D28*
%TO.C,MOD301*%
X39000000Y-85075000D03*
X47000000Y-85075000D03*
%TD*%
D45*
%TO.C,R3*%
X94687500Y-58150000D03*
X96512500Y-58150000D03*
%TD*%
D26*
%TO.C,R6*%
X103850000Y-76412500D03*
X103850000Y-78137500D03*
%TD*%
D31*
%TO.C,C29*%
X89717500Y-72885000D03*
X91792500Y-72885000D03*
%TD*%
D49*
%TO.C,D302*%
X79000000Y-75610000D03*
X77250000Y-75610000D03*
%TD*%
D26*
%TO.C,C13*%
X89625000Y-69587500D03*
X89625000Y-71312500D03*
%TD*%
D50*
%TO.C,U9*%
X77775000Y-54225000D03*
X76175000Y-54225000D03*
X74575000Y-54225000D03*
X74575000Y-59125000D03*
X76175000Y-59125000D03*
X77775000Y-59125000D03*
%TD*%
D27*
%TO.C,C20*%
X35350000Y-56112500D03*
X35350000Y-54387500D03*
%TD*%
D51*
%TO.C,U10*%
X90350000Y-61112500D03*
X89950000Y-61112500D03*
X89550000Y-61112500D03*
X89150000Y-61112500D03*
X88750000Y-61112500D03*
X88350000Y-61112500D03*
X87950000Y-61112500D03*
X87550000Y-61112500D03*
X87150000Y-61112500D03*
X86750000Y-61112500D03*
X86350000Y-61112500D03*
X85950000Y-61112500D03*
X85550000Y-61112500D03*
X85150000Y-61112500D03*
D52*
X84312500Y-61950000D03*
X84312500Y-62350000D03*
X84312500Y-62750000D03*
X84312500Y-63150000D03*
X84312500Y-63550000D03*
X84312500Y-63950000D03*
X84312500Y-64350000D03*
X84312500Y-64750000D03*
X84312500Y-65150000D03*
X84312500Y-65550000D03*
X84312500Y-65950000D03*
X84312500Y-66350000D03*
X84312500Y-66750000D03*
X84312500Y-67150000D03*
D51*
X85150000Y-67987500D03*
X85550000Y-67987500D03*
X85950000Y-67987500D03*
X86350000Y-67987500D03*
X86750000Y-67987500D03*
X87150000Y-67987500D03*
X87550000Y-67987500D03*
X87950000Y-67987500D03*
X88350000Y-67987500D03*
X88750000Y-67987500D03*
X89150000Y-67987500D03*
X89550000Y-67987500D03*
X89950000Y-67987500D03*
X90350000Y-67987500D03*
D52*
X91187500Y-67150000D03*
X91187500Y-66750000D03*
X91187500Y-66350000D03*
X91187500Y-65950000D03*
X91187500Y-65550000D03*
X91187500Y-65150000D03*
X91187500Y-64750000D03*
X91187500Y-64350000D03*
X91187500Y-63950000D03*
X91187500Y-63550000D03*
X91187500Y-63150000D03*
X91187500Y-62750000D03*
X91187500Y-62350000D03*
X91187500Y-61950000D03*
D53*
X87750000Y-64550000D03*
%TD*%
D24*
%TO.C,L1*%
X29600000Y-70825000D03*
X33750000Y-70825000D03*
%TD*%
D54*
%TO.C,R104*%
X51797500Y-57600000D03*
X49972500Y-57600000D03*
%TD*%
D55*
%TO.C,C31*%
X86175000Y-82075000D03*
X90575000Y-82075000D03*
%TD*%
D30*
%TO.C,C28*%
X83995000Y-74497500D03*
X83995000Y-76572500D03*
%TD*%
D56*
%TO.C,D2*%
X27850001Y-56300000D03*
X31150001Y-56300000D03*
%TD*%
D26*
%TO.C,C23*%
X95025000Y-69587500D03*
X95025000Y-71312500D03*
%TD*%
D57*
%TO.C,U304*%
X28499999Y-58600000D03*
X28499999Y-59870000D03*
X28499999Y-61140000D03*
X28499999Y-62410000D03*
X33699999Y-62410000D03*
X33699999Y-61140000D03*
X33699999Y-59870000D03*
X33699999Y-58600000D03*
%TD*%
D49*
%TO.C,D301*%
X79027500Y-78930000D03*
X77277500Y-78930000D03*
%TD*%
D32*
%TO.C,H302*%
X67000000Y-74000000D03*
%TD*%
D57*
%TO.C,U3*%
X28500000Y-75670000D03*
X28500000Y-76940000D03*
X28500000Y-78210000D03*
X28500000Y-79480000D03*
X33700000Y-79480000D03*
X33700000Y-78210000D03*
X33700000Y-76940000D03*
X33700000Y-75670000D03*
%TD*%
D26*
%TO.C,C4*%
X79575000Y-54162500D03*
X79575000Y-55887500D03*
%TD*%
%TO.C,C6*%
X103950000Y-70887500D03*
X103950000Y-72612500D03*
%TD*%
D31*
%TO.C,C3*%
X32262500Y-65108041D03*
X34337500Y-65108041D03*
%TD*%
D49*
%TO.C,D308*%
X79010000Y-77280000D03*
X77260000Y-77280000D03*
%TD*%
D45*
%TO.C,R21*%
X80622500Y-75620000D03*
X82447500Y-75620000D03*
%TD*%
D27*
%TO.C,C17*%
X85600000Y-57151414D03*
X85600000Y-55426414D03*
%TD*%
D45*
%TO.C,R16*%
X61187500Y-65600000D03*
X63012500Y-65600000D03*
%TD*%
D27*
%TO.C,C19*%
X91490240Y-59426324D03*
X91490240Y-57701324D03*
%TD*%
D58*
%TO.C,TP2*%
X39350000Y-64200000D03*
%TD*%
D27*
%TO.C,C22*%
X54425000Y-52937500D03*
X54425000Y-51212500D03*
%TD*%
D45*
%TO.C,R91*%
X80592500Y-77270000D03*
X82417500Y-77270000D03*
%TD*%
D54*
%TO.C,R4*%
X96512500Y-59750000D03*
X94687500Y-59750000D03*
%TD*%
D59*
%TO.C,Y3*%
X79500000Y-67175000D03*
X79500000Y-64275000D03*
X77200000Y-64275000D03*
X77200000Y-67175000D03*
%TD*%
G36*
X97700083Y-43910002D02*
G01*
X97746576Y-43963658D01*
X97757946Y-44018021D01*
X97731076Y-45692932D01*
X97709984Y-45760723D01*
X97673761Y-45796555D01*
X97145189Y-46140127D01*
X97131499Y-46156093D01*
X97129945Y-46163252D01*
X97120075Y-48561884D01*
X97127350Y-48587044D01*
X97346920Y-48797465D01*
X97371061Y-48809988D01*
X106248583Y-48800058D01*
X106316726Y-48819984D01*
X106336777Y-48835933D01*
X107132026Y-49612899D01*
X107166774Y-49674811D01*
X107169973Y-49703089D01*
X107160065Y-68844065D01*
X107140028Y-68912176D01*
X107086348Y-68958641D01*
X107034065Y-68970000D01*
X106256201Y-68970000D01*
X106188080Y-68949998D01*
X106141587Y-68896342D01*
X106130201Y-68843800D01*
X106159971Y-50118115D01*
X106152624Y-50092944D01*
X105943091Y-49892522D01*
X105918943Y-49880025D01*
X97002354Y-49899883D01*
X96934188Y-49880032D01*
X96912978Y-49862978D01*
X96096722Y-49046722D01*
X96062696Y-48984410D01*
X96059818Y-48958069D01*
X96050064Y-46178117D01*
X96043138Y-46154834D01*
X96042078Y-46153663D01*
X95597288Y-45797830D01*
X95556590Y-45739657D01*
X95550000Y-45699441D01*
X95550000Y-44016000D01*
X95570002Y-43947879D01*
X95623658Y-43901386D01*
X95676000Y-43890000D01*
X97631962Y-43890000D01*
X97700083Y-43910002D01*
G37*
M02*
