%TF.GenerationSoftware,KiCad,Pcbnew,(6.0.2)*%
%TF.CreationDate,2022-04-25T10:39:50-06:00*%
%TF.ProjectId,CONEPROJ,434f4e45-5052-44f4-9a2e-6b696361645f,rev?*%
%TF.SameCoordinates,Original*%
%TF.FileFunction,Paste,Bot*%
%TF.FilePolarity,Positive*%
%FSLAX46Y46*%
G04 Gerber Fmt 4.6, Leading zero omitted, Abs format (unit mm)*
G04 Created by KiCad (PCBNEW (6.0.2)) date 2022-04-25 10:39:50*
%MOMM*%
%LPD*%
G01*
G04 APERTURE LIST*
G04 Aperture macros list*
%AMRoundRect*
0 Rectangle with rounded corners*
0 $1 Rounding radius*
0 $2 $3 $4 $5 $6 $7 $8 $9 X,Y pos of 4 corners*
0 Add a 4 corners polygon primitive as box body*
4,1,4,$2,$3,$4,$5,$6,$7,$8,$9,$2,$3,0*
0 Add four circle primitives for the rounded corners*
1,1,$1+$1,$2,$3*
1,1,$1+$1,$4,$5*
1,1,$1+$1,$6,$7*
1,1,$1+$1,$8,$9*
0 Add four rect primitives between the rounded corners*
20,1,$1+$1,$2,$3,$4,$5,0*
20,1,$1+$1,$4,$5,$6,$7,0*
20,1,$1+$1,$6,$7,$8,$9,0*
20,1,$1+$1,$8,$9,$2,$3,0*%
G04 Aperture macros list end*
%ADD10C,0.010000*%
%ADD11RoundRect,0.150000X0.150000X-0.725000X0.150000X0.725000X-0.150000X0.725000X-0.150000X-0.725000X0*%
%ADD12R,3.000000X1.200000*%
%ADD13RoundRect,0.250000X0.475000X-0.337500X0.475000X0.337500X-0.475000X0.337500X-0.475000X-0.337500X0*%
%ADD14RoundRect,0.237500X-0.237500X0.250000X-0.237500X-0.250000X0.237500X-0.250000X0.237500X0.250000X0*%
%ADD15R,2.200000X1.050000*%
%ADD16R,1.050000X1.000000*%
G04 APERTURE END LIST*
D10*
%TO.C,U4*%
X88525000Y-74747500D02*
X88525000Y-76297500D01*
X88525000Y-76297500D02*
X88775000Y-76297500D01*
X88775000Y-76297500D02*
X88775000Y-74747500D01*
X88775000Y-74747500D02*
X88525000Y-74747500D01*
G36*
X88775000Y-76297500D02*
G01*
X88525000Y-76297500D01*
X88525000Y-74747500D01*
X88775000Y-74747500D01*
X88775000Y-76297500D01*
G37*
X88775000Y-76297500D02*
X88525000Y-76297500D01*
X88525000Y-74747500D01*
X88775000Y-74747500D01*
X88775000Y-76297500D01*
X86575000Y-74747500D02*
X86575000Y-76297500D01*
X86575000Y-76297500D02*
X86825000Y-76297500D01*
X86825000Y-76297500D02*
X86825000Y-74747500D01*
X86825000Y-74747500D02*
X86575000Y-74747500D01*
G36*
X86825000Y-76297500D02*
G01*
X86575000Y-76297500D01*
X86575000Y-74747500D01*
X86825000Y-74747500D01*
X86825000Y-76297500D01*
G37*
X86825000Y-76297500D02*
X86575000Y-76297500D01*
X86575000Y-74747500D01*
X86825000Y-74747500D01*
X86825000Y-76297500D01*
X89825000Y-80347500D02*
X89825000Y-81897500D01*
X89825000Y-81897500D02*
X90075000Y-81897500D01*
X90075000Y-81897500D02*
X90075000Y-80347500D01*
X90075000Y-80347500D02*
X89825000Y-80347500D01*
G36*
X90075000Y-81897500D02*
G01*
X89825000Y-81897500D01*
X89825000Y-80347500D01*
X90075000Y-80347500D01*
X90075000Y-81897500D01*
G37*
X90075000Y-81897500D02*
X89825000Y-81897500D01*
X89825000Y-80347500D01*
X90075000Y-80347500D01*
X90075000Y-81897500D01*
X89175000Y-80347500D02*
X89175000Y-81897500D01*
X89175000Y-81897500D02*
X89425000Y-81897500D01*
X89425000Y-81897500D02*
X89425000Y-80347500D01*
X89425000Y-80347500D02*
X89175000Y-80347500D01*
G36*
X89425000Y-81897500D02*
G01*
X89175000Y-81897500D01*
X89175000Y-80347500D01*
X89425000Y-80347500D01*
X89425000Y-81897500D01*
G37*
X89425000Y-81897500D02*
X89175000Y-81897500D01*
X89175000Y-80347500D01*
X89425000Y-80347500D01*
X89425000Y-81897500D01*
X87695000Y-77122500D02*
X87695000Y-79522500D01*
X87695000Y-79522500D02*
X94155000Y-79522500D01*
X94155000Y-79522500D02*
X94155000Y-77122500D01*
X94155000Y-77122500D02*
X87695000Y-77122500D01*
G36*
X94155000Y-79522500D02*
G01*
X87695000Y-79522500D01*
X87695000Y-77122500D01*
X94155000Y-77122500D01*
X94155000Y-79522500D01*
G37*
X94155000Y-79522500D02*
X87695000Y-79522500D01*
X87695000Y-77122500D01*
X94155000Y-77122500D01*
X94155000Y-79522500D01*
X91125000Y-74747500D02*
X91125000Y-76297500D01*
X91125000Y-76297500D02*
X91375000Y-76297500D01*
X91375000Y-76297500D02*
X91375000Y-74747500D01*
X91375000Y-74747500D02*
X91125000Y-74747500D01*
G36*
X91375000Y-76297500D02*
G01*
X91125000Y-76297500D01*
X91125000Y-74747500D01*
X91375000Y-74747500D01*
X91375000Y-76297500D01*
G37*
X91375000Y-76297500D02*
X91125000Y-76297500D01*
X91125000Y-74747500D01*
X91375000Y-74747500D01*
X91375000Y-76297500D01*
X87875000Y-74747500D02*
X87875000Y-76297500D01*
X87875000Y-76297500D02*
X88125000Y-76297500D01*
X88125000Y-76297500D02*
X88125000Y-74747500D01*
X88125000Y-74747500D02*
X87875000Y-74747500D01*
G36*
X88125000Y-76297500D02*
G01*
X87875000Y-76297500D01*
X87875000Y-74747500D01*
X88125000Y-74747500D01*
X88125000Y-76297500D01*
G37*
X88125000Y-76297500D02*
X87875000Y-76297500D01*
X87875000Y-74747500D01*
X88125000Y-74747500D01*
X88125000Y-76297500D01*
X87225000Y-80347500D02*
X87225000Y-81897500D01*
X87225000Y-81897500D02*
X87475000Y-81897500D01*
X87475000Y-81897500D02*
X87475000Y-80347500D01*
X87475000Y-80347500D02*
X87225000Y-80347500D01*
G36*
X87475000Y-81897500D02*
G01*
X87225000Y-81897500D01*
X87225000Y-80347500D01*
X87475000Y-80347500D01*
X87475000Y-81897500D01*
G37*
X87475000Y-81897500D02*
X87225000Y-81897500D01*
X87225000Y-80347500D01*
X87475000Y-80347500D01*
X87475000Y-81897500D01*
X92425000Y-74747500D02*
X92425000Y-76297500D01*
X92425000Y-76297500D02*
X92675000Y-76297500D01*
X92675000Y-76297500D02*
X92675000Y-74747500D01*
X92675000Y-74747500D02*
X92425000Y-74747500D01*
G36*
X92675000Y-76297500D02*
G01*
X92425000Y-76297500D01*
X92425000Y-74747500D01*
X92675000Y-74747500D01*
X92675000Y-76297500D01*
G37*
X92675000Y-76297500D02*
X92425000Y-76297500D01*
X92425000Y-74747500D01*
X92675000Y-74747500D01*
X92675000Y-76297500D01*
X91125000Y-80347500D02*
X91125000Y-81897500D01*
X91125000Y-81897500D02*
X91375000Y-81897500D01*
X91375000Y-81897500D02*
X91375000Y-80347500D01*
X91375000Y-80347500D02*
X91125000Y-80347500D01*
G36*
X91375000Y-81897500D02*
G01*
X91125000Y-81897500D01*
X91125000Y-80347500D01*
X91375000Y-80347500D01*
X91375000Y-81897500D01*
G37*
X91375000Y-81897500D02*
X91125000Y-81897500D01*
X91125000Y-80347500D01*
X91375000Y-80347500D01*
X91375000Y-81897500D01*
X90475000Y-74747500D02*
X90475000Y-76297500D01*
X90475000Y-76297500D02*
X90725000Y-76297500D01*
X90725000Y-76297500D02*
X90725000Y-74747500D01*
X90725000Y-74747500D02*
X90475000Y-74747500D01*
G36*
X90725000Y-76297500D02*
G01*
X90475000Y-76297500D01*
X90475000Y-74747500D01*
X90725000Y-74747500D01*
X90725000Y-76297500D01*
G37*
X90725000Y-76297500D02*
X90475000Y-76297500D01*
X90475000Y-74747500D01*
X90725000Y-74747500D01*
X90725000Y-76297500D01*
X93075000Y-74747500D02*
X93075000Y-76297500D01*
X93075000Y-76297500D02*
X93325000Y-76297500D01*
X93325000Y-76297500D02*
X93325000Y-74747500D01*
X93325000Y-74747500D02*
X93075000Y-74747500D01*
G36*
X93325000Y-76297500D02*
G01*
X93075000Y-76297500D01*
X93075000Y-74747500D01*
X93325000Y-74747500D01*
X93325000Y-76297500D01*
G37*
X93325000Y-76297500D02*
X93075000Y-76297500D01*
X93075000Y-74747500D01*
X93325000Y-74747500D01*
X93325000Y-76297500D01*
X89825000Y-74747500D02*
X89825000Y-76297500D01*
X89825000Y-76297500D02*
X90075000Y-76297500D01*
X90075000Y-76297500D02*
X90075000Y-74747500D01*
X90075000Y-74747500D02*
X89825000Y-74747500D01*
G36*
X90075000Y-76297500D02*
G01*
X89825000Y-76297500D01*
X89825000Y-74747500D01*
X90075000Y-74747500D01*
X90075000Y-76297500D01*
G37*
X90075000Y-76297500D02*
X89825000Y-76297500D01*
X89825000Y-74747500D01*
X90075000Y-74747500D01*
X90075000Y-76297500D01*
X90475000Y-80347500D02*
X90475000Y-81897500D01*
X90475000Y-81897500D02*
X90725000Y-81897500D01*
X90725000Y-81897500D02*
X90725000Y-80347500D01*
X90725000Y-80347500D02*
X90475000Y-80347500D01*
G36*
X90725000Y-81897500D02*
G01*
X90475000Y-81897500D01*
X90475000Y-80347500D01*
X90725000Y-80347500D01*
X90725000Y-81897500D01*
G37*
X90725000Y-81897500D02*
X90475000Y-81897500D01*
X90475000Y-80347500D01*
X90725000Y-80347500D01*
X90725000Y-81897500D01*
X95025000Y-80347500D02*
X95025000Y-81897500D01*
X95025000Y-81897500D02*
X95275000Y-81897500D01*
X95275000Y-81897500D02*
X95275000Y-80347500D01*
X95275000Y-80347500D02*
X95025000Y-80347500D01*
G36*
X95275000Y-81897500D02*
G01*
X95025000Y-81897500D01*
X95025000Y-80347500D01*
X95275000Y-80347500D01*
X95275000Y-81897500D01*
G37*
X95275000Y-81897500D02*
X95025000Y-81897500D01*
X95025000Y-80347500D01*
X95275000Y-80347500D01*
X95275000Y-81897500D01*
X94375000Y-80347500D02*
X94375000Y-81897500D01*
X94375000Y-81897500D02*
X94625000Y-81897500D01*
X94625000Y-81897500D02*
X94625000Y-80347500D01*
X94625000Y-80347500D02*
X94375000Y-80347500D01*
G36*
X94625000Y-81897500D02*
G01*
X94375000Y-81897500D01*
X94375000Y-80347500D01*
X94625000Y-80347500D01*
X94625000Y-81897500D01*
G37*
X94625000Y-81897500D02*
X94375000Y-81897500D01*
X94375000Y-80347500D01*
X94625000Y-80347500D01*
X94625000Y-81897500D01*
X89175000Y-74747500D02*
X89175000Y-76297500D01*
X89175000Y-76297500D02*
X89425000Y-76297500D01*
X89425000Y-76297500D02*
X89425000Y-74747500D01*
X89425000Y-74747500D02*
X89175000Y-74747500D01*
G36*
X89425000Y-76297500D02*
G01*
X89175000Y-76297500D01*
X89175000Y-74747500D01*
X89425000Y-74747500D01*
X89425000Y-76297500D01*
G37*
X89425000Y-76297500D02*
X89175000Y-76297500D01*
X89175000Y-74747500D01*
X89425000Y-74747500D01*
X89425000Y-76297500D01*
X86575000Y-80347500D02*
X86575000Y-81897500D01*
X86575000Y-81897500D02*
X86825000Y-81897500D01*
X86825000Y-81897500D02*
X86825000Y-80347500D01*
X86825000Y-80347500D02*
X86575000Y-80347500D01*
G36*
X86825000Y-81897500D02*
G01*
X86575000Y-81897500D01*
X86575000Y-80347500D01*
X86825000Y-80347500D01*
X86825000Y-81897500D01*
G37*
X86825000Y-81897500D02*
X86575000Y-81897500D01*
X86575000Y-80347500D01*
X86825000Y-80347500D01*
X86825000Y-81897500D01*
X87875000Y-80347500D02*
X87875000Y-81897500D01*
X87875000Y-81897500D02*
X88125000Y-81897500D01*
X88125000Y-81897500D02*
X88125000Y-80347500D01*
X88125000Y-80347500D02*
X87875000Y-80347500D01*
G36*
X88125000Y-81897500D02*
G01*
X87875000Y-81897500D01*
X87875000Y-80347500D01*
X88125000Y-80347500D01*
X88125000Y-81897500D01*
G37*
X88125000Y-81897500D02*
X87875000Y-81897500D01*
X87875000Y-80347500D01*
X88125000Y-80347500D01*
X88125000Y-81897500D01*
X87225000Y-74747500D02*
X87225000Y-76297500D01*
X87225000Y-76297500D02*
X87475000Y-76297500D01*
X87475000Y-76297500D02*
X87475000Y-74747500D01*
X87475000Y-74747500D02*
X87225000Y-74747500D01*
G36*
X87475000Y-76297500D02*
G01*
X87225000Y-76297500D01*
X87225000Y-74747500D01*
X87475000Y-74747500D01*
X87475000Y-76297500D01*
G37*
X87475000Y-76297500D02*
X87225000Y-76297500D01*
X87225000Y-74747500D01*
X87475000Y-74747500D01*
X87475000Y-76297500D01*
X88525000Y-80347500D02*
X88525000Y-81897500D01*
X88525000Y-81897500D02*
X88775000Y-81897500D01*
X88775000Y-81897500D02*
X88775000Y-80347500D01*
X88775000Y-80347500D02*
X88525000Y-80347500D01*
G36*
X88775000Y-81897500D02*
G01*
X88525000Y-81897500D01*
X88525000Y-80347500D01*
X88775000Y-80347500D01*
X88775000Y-81897500D01*
G37*
X88775000Y-81897500D02*
X88525000Y-81897500D01*
X88525000Y-80347500D01*
X88775000Y-80347500D01*
X88775000Y-81897500D01*
X93725000Y-74747500D02*
X93725000Y-76297500D01*
X93725000Y-76297500D02*
X93975000Y-76297500D01*
X93975000Y-76297500D02*
X93975000Y-74747500D01*
X93975000Y-74747500D02*
X93725000Y-74747500D01*
G36*
X93975000Y-76297500D02*
G01*
X93725000Y-76297500D01*
X93725000Y-74747500D01*
X93975000Y-74747500D01*
X93975000Y-76297500D01*
G37*
X93975000Y-76297500D02*
X93725000Y-76297500D01*
X93725000Y-74747500D01*
X93975000Y-74747500D01*
X93975000Y-76297500D01*
X91775000Y-80347500D02*
X91775000Y-81897500D01*
X91775000Y-81897500D02*
X92025000Y-81897500D01*
X92025000Y-81897500D02*
X92025000Y-80347500D01*
X92025000Y-80347500D02*
X91775000Y-80347500D01*
G36*
X92025000Y-81897500D02*
G01*
X91775000Y-81897500D01*
X91775000Y-80347500D01*
X92025000Y-80347500D01*
X92025000Y-81897500D01*
G37*
X92025000Y-81897500D02*
X91775000Y-81897500D01*
X91775000Y-80347500D01*
X92025000Y-80347500D01*
X92025000Y-81897500D01*
X94375000Y-74747500D02*
X94375000Y-76297500D01*
X94375000Y-76297500D02*
X94625000Y-76297500D01*
X94625000Y-76297500D02*
X94625000Y-74747500D01*
X94625000Y-74747500D02*
X94375000Y-74747500D01*
G36*
X94625000Y-76297500D02*
G01*
X94375000Y-76297500D01*
X94375000Y-74747500D01*
X94625000Y-74747500D01*
X94625000Y-76297500D01*
G37*
X94625000Y-76297500D02*
X94375000Y-76297500D01*
X94375000Y-74747500D01*
X94625000Y-74747500D01*
X94625000Y-76297500D01*
X91775000Y-74747500D02*
X91775000Y-76297500D01*
X91775000Y-76297500D02*
X92025000Y-76297500D01*
X92025000Y-76297500D02*
X92025000Y-74747500D01*
X92025000Y-74747500D02*
X91775000Y-74747500D01*
G36*
X92025000Y-76297500D02*
G01*
X91775000Y-76297500D01*
X91775000Y-74747500D01*
X92025000Y-74747500D01*
X92025000Y-76297500D01*
G37*
X92025000Y-76297500D02*
X91775000Y-76297500D01*
X91775000Y-74747500D01*
X92025000Y-74747500D01*
X92025000Y-76297500D01*
X92425000Y-80347500D02*
X92425000Y-81897500D01*
X92425000Y-81897500D02*
X92675000Y-81897500D01*
X92675000Y-81897500D02*
X92675000Y-80347500D01*
X92675000Y-80347500D02*
X92425000Y-80347500D01*
G36*
X92675000Y-81897500D02*
G01*
X92425000Y-81897500D01*
X92425000Y-80347500D01*
X92675000Y-80347500D01*
X92675000Y-81897500D01*
G37*
X92675000Y-81897500D02*
X92425000Y-81897500D01*
X92425000Y-80347500D01*
X92675000Y-80347500D01*
X92675000Y-81897500D01*
X93075000Y-80347500D02*
X93075000Y-81897500D01*
X93075000Y-81897500D02*
X93325000Y-81897500D01*
X93325000Y-81897500D02*
X93325000Y-80347500D01*
X93325000Y-80347500D02*
X93075000Y-80347500D01*
G36*
X93325000Y-81897500D02*
G01*
X93075000Y-81897500D01*
X93075000Y-80347500D01*
X93325000Y-80347500D01*
X93325000Y-81897500D01*
G37*
X93325000Y-81897500D02*
X93075000Y-81897500D01*
X93075000Y-80347500D01*
X93325000Y-80347500D01*
X93325000Y-81897500D01*
X95025000Y-74747500D02*
X95025000Y-76297500D01*
X95025000Y-76297500D02*
X95275000Y-76297500D01*
X95275000Y-76297500D02*
X95275000Y-74747500D01*
X95275000Y-74747500D02*
X95025000Y-74747500D01*
G36*
X95275000Y-76297500D02*
G01*
X95025000Y-76297500D01*
X95025000Y-74747500D01*
X95275000Y-74747500D01*
X95275000Y-76297500D01*
G37*
X95275000Y-76297500D02*
X95025000Y-76297500D01*
X95025000Y-74747500D01*
X95275000Y-74747500D01*
X95275000Y-76297500D01*
X93725000Y-80347500D02*
X93725000Y-81897500D01*
X93725000Y-81897500D02*
X93975000Y-81897500D01*
X93975000Y-81897500D02*
X93975000Y-80347500D01*
X93975000Y-80347500D02*
X93725000Y-80347500D01*
G36*
X93975000Y-81897500D02*
G01*
X93725000Y-81897500D01*
X93725000Y-80347500D01*
X93975000Y-80347500D01*
X93975000Y-81897500D01*
G37*
X93975000Y-81897500D02*
X93725000Y-81897500D01*
X93725000Y-80347500D01*
X93975000Y-80347500D01*
X93975000Y-81897500D01*
%TD*%
D11*
%TO.C,Q7*%
X94205000Y-59800000D03*
X92935000Y-59800000D03*
X91665000Y-59800000D03*
X90395000Y-59800000D03*
X90395000Y-54650000D03*
X91665000Y-54650000D03*
X92935000Y-54650000D03*
X94205000Y-54650000D03*
%TD*%
%TO.C,Q5*%
X105255000Y-59800000D03*
X103985000Y-59800000D03*
X102715000Y-59800000D03*
X101445000Y-59800000D03*
X101445000Y-54650000D03*
X102715000Y-54650000D03*
X103985000Y-54650000D03*
X105255000Y-54650000D03*
%TD*%
D12*
%TO.C,U310*%
X50480000Y-75500000D03*
X50480000Y-77500000D03*
X50480000Y-79500000D03*
X50480000Y-81500000D03*
X50480000Y-83500000D03*
X50480000Y-85500000D03*
X50480000Y-87500000D03*
X50480000Y-89500000D03*
X35480000Y-89500000D03*
X35480000Y-87500000D03*
X35480000Y-85500000D03*
X35480000Y-83500000D03*
X35480000Y-81500000D03*
X35480000Y-79500000D03*
X35480000Y-77500000D03*
X35480000Y-75500000D03*
%TD*%
D13*
%TO.C,C302*%
X32850000Y-83587500D03*
X32850000Y-81512500D03*
%TD*%
D14*
%TO.C,R12*%
X73376667Y-62292500D03*
X73376667Y-64117500D03*
%TD*%
%TO.C,R11*%
X74546667Y-62292500D03*
X74546667Y-64117500D03*
%TD*%
D11*
%TO.C,Q2*%
X99705000Y-59800000D03*
X98435000Y-59800000D03*
X97165000Y-59800000D03*
X95895000Y-59800000D03*
X95895000Y-54650000D03*
X97165000Y-54650000D03*
X98435000Y-54650000D03*
X99705000Y-54650000D03*
%TD*%
D15*
%TO.C,J304*%
X30175000Y-87025000D03*
D16*
X31700000Y-88500000D03*
D15*
X30175000Y-89975000D03*
%TD*%
M02*
