M48
; DRILL file {KiCad (6.0.2)} date Mon 25 Apr 2022 10:39:50 AM MDT
; FORMAT={-:-/ absolute / inch / decimal}
; #@! TF.CreationDate,2022-04-25T10:39:50-06:00
; #@! TF.GenerationSoftware,Kicad,Pcbnew,(6.0.2)
; #@! TF.FileFunction,Plated,1,4,PTH
FMAT,2
INCH
; #@! TA.AperFunction,Plated,PTH,ViaDrill
T1C0.0079
; #@! TA.AperFunction,Plated,PTH,ComponentDrill
T2C0.0118
; #@! TA.AperFunction,Plated,PTH,ComponentDrill
T3C0.0138
; #@! TA.AperFunction,Plated,PTH,ViaDrill
T4C0.0157
; #@! TA.AperFunction,Plated,PTH,ComponentDrill
T5C0.0509
; #@! TA.AperFunction,Plated,PTH,ComponentDrill
T6C0.1260
%
G90
G05
T1
X1.3386Y-2.5049
X1.4537Y-2.3553
X1.4537Y-2.4085
X1.4537Y-2.4577
X1.4537Y-2.5049
X1.4537Y-2.5522
X1.5049Y-2.5276
X2.0925Y-2.7175
X2.1417Y-2.5945
X2.1624Y-2.6722
X2.1624Y-2.7333
X2.3445Y-2.622
X2.4606Y-2.622
X2.7392Y-2.5886
X3.1705Y-2.1634
X3.1941Y-2.1634
X3.2087Y-2.8425
X3.2177Y-2.1634
X3.222Y-3.3016
X3.2248Y-2.4937
X3.2287Y-2.8646
X3.2421Y-2.163
X3.2421Y-3.402
X3.2606Y-2.6043
X3.2606Y-2.6366
X3.261Y-2.4768
X3.261Y-2.5634
X3.261Y-2.6642
X3.261Y-2.6929
X3.2622Y-3.3516
X3.2667Y-2.1624
X3.2819Y-3.2752
X3.2904Y-2.1624
X3.3043Y-3.3295
X3.3346Y-2.377
X3.3346Y-2.7047
X3.3524Y-3.4264
X3.3701Y-2.1358
X3.378Y-2.2805
X3.3803Y-3.4516
X3.3937Y-2.1358
X3.3972Y-3.376
X3.4Y-2.6181
X3.4043Y-2.8457
X3.4142Y-2.9224
X3.4183Y-2.1358
X3.4264Y-3.4772
X3.428Y-2.8457
X3.4321Y-2.6191
X3.435Y-2.2894
X3.4402Y-3.3291
X3.4409Y-2.7417
X3.4429Y-2.1358
X3.4457Y-2.9224
X3.4551Y-2.6386
X3.4606Y-2.7283
X3.4646Y-3.302
X3.4665Y-2.1358
X3.4689Y-2.2894
X3.4803Y-2.7642
X3.4902Y-2.1358
X3.4902Y-3.2756
X3.4929Y-2.8831
X3.4929Y-2.9146
X3.5148Y-2.1358
X3.5157Y-3.402
X3.5413Y-3.3756
X3.5567Y-2.6358
X3.563Y-2.3031
X3.5669Y-3.35
X3.5937Y-3.4512
X3.6165Y-3.4264
X3.6319Y-2.3031
X3.6437Y-3.2441
X3.6441Y-3.2205
X3.6441Y-3.2685
X3.6685Y-3.3724
X3.6965Y-3.474
X3.716Y-3.2665
X3.7205Y-2.9268
X3.7411Y-2.687
X3.7697Y-2.687
X3.7728Y-2.8783
X3.889Y-2.9516
X4.0404Y-2.8583
X4.1299Y-2.7909
T2
X3.4262Y-3.0324
X3.4262Y-3.0836
X3.4262Y-3.1347
X3.4774Y-3.0324
X3.4774Y-3.0836
X3.4774Y-3.1347
X3.5285Y-3.0324
X3.5285Y-3.0836
X3.5285Y-3.1347
X3.5797Y-3.0324
X3.5797Y-3.0836
X3.5797Y-3.1347
X3.6309Y-3.0324
X3.6309Y-3.0836
X3.6309Y-3.1347
X3.6821Y-3.0324
X3.6821Y-3.0836
X3.6821Y-3.1347
X3.7333Y-3.0324
X3.7333Y-3.0836
X3.7333Y-3.1347
T3
X3.4045Y-2.4911
X3.4045Y-2.5413
X3.4045Y-2.5915
X3.4547Y-2.4911
X3.4547Y-2.5413
X3.4547Y-2.5915
X3.5049Y-2.4911
X3.5049Y-2.5413
X3.5049Y-2.5915
T4
X1.002Y-2.2165
X1.0719Y-2.4941
X1.0807Y-3.25
X1.1093Y-3.2756
X1.1368Y-2.4951
X1.1378Y-3.25
X1.1929Y-2.4941
X1.1959Y-3.1289
X1.1969Y-3.25
X1.2126Y-2.1417
X1.252Y-2.3563
X1.252Y-2.4035
X1.252Y-2.4488
X1.252Y-2.4941
X1.252Y-2.9793
X1.252Y-3.0285
X1.252Y-3.0797
X1.252Y-3.1289
X1.3189Y-2.2165
X1.437Y-2.6772
X1.437Y-2.7362
X1.437Y-2.7972
X1.437Y-2.8606
X1.4409Y-2.2165
X1.4439Y-2.3071
X1.5217Y-3.4449
X1.5354Y-3.0305
X1.6929Y-2.7362
X1.6929Y-2.7736
X1.6929Y-2.811
X1.6929Y-2.8484
X1.7441Y-2.8858
X1.7441Y-2.9213
X1.7657Y-2.5906
X1.8169Y-2.3848
X1.8169Y-2.4449
X2.0846Y-2.1417
X2.0846Y-2.9665
X2.0886Y-3.4311
X2.0886Y-3.4764
X2.0925Y-2.5138
X2.1171Y-2.5571
X2.1555Y-2.9232
X2.1742Y-2.127
X2.2028Y-2.6388
X2.2057Y-1.9774
X2.2283Y-2.5994
X2.247Y-2.5502
X2.2606Y-3.1626
X2.2638Y-3.4764
X2.2913Y-2.5502
X2.311Y-3.4764
X2.313Y-3.0906
X2.3138Y-3.1307
X2.3179Y-2.5197
X2.3435Y-2.4882
X2.3612Y-3.0906
X2.3622Y-3.4764
X2.3622Y-3.5669
X2.3898Y-2.0197
X2.4114Y-3.0906
X2.4134Y-3.5669
X2.4618Y-3.0906
X2.4636Y-3.5669
X2.5128Y-3.5679
X2.5189Y-2.511
X2.5285Y-2.6348
X2.562Y-3.5679
X2.5827Y-2.6098
X2.6122Y-3.4724
X2.6122Y-3.5679
X2.639Y-2.5803
X2.6634Y-3.4724
X2.6644Y-3.5669
X2.6831Y-2.5394
X2.7116Y-3.4724
X2.7116Y-3.5669
X2.7372Y-2.5118
X2.7618Y-3.5669
X2.7874Y-2.4866
X2.7902Y-2.5443
X2.812Y-3.5669
X2.8343Y-2.5443
X2.8417Y-2.7878
X2.8612Y-3.4724
X2.8783Y-2.8244
X2.9124Y-3.4724
X2.937Y-1.815
X2.9596Y-3.565
X2.9654Y-2.4909
X2.9665Y-3.5167
X2.998Y-1.9783
X2.999Y-2.3858
X3.003Y-2.7372
X3.0108Y-3.5177
X3.0128Y-3.565
X3.0551Y-3.248
X3.1331Y-2.3327
X3.1776Y-2.9169
X3.8494Y-2.4793
X3.8701Y-2.4488
X3.8927Y-2.4793
X4.1378Y-3.122
X4.1447Y-2.2943
X4.1988Y-2.6965
T5
X1.1427Y-1.7732
X1.1427Y-2.0232
X1.3077Y-1.7732
X1.3077Y-2.0232
X1.4726Y-1.7732
X1.4726Y-2.0232
X1.6376Y-1.7732
X1.6376Y-2.0232
X1.8026Y-1.7732
X1.8026Y-2.0232
X1.9675Y-1.7732
X1.9675Y-2.0232
X3.3081Y-1.7732
X3.3081Y-2.0232
X3.473Y-1.7732
X3.473Y-2.0232
X3.638Y-1.7732
X3.638Y-2.0232
X3.803Y-1.7732
X3.803Y-2.0232
X3.9679Y-1.7732
X3.9679Y-2.0232
X4.1329Y-1.7732
X4.1329Y-2.0232
T6
X2.6378Y-1.8504
X2.6378Y-2.9134
T0
M30
