M48
; DRILL file {KiCad (6.0.2)} date Fri 22 Apr 2022 02:27:02 PM MDT
; FORMAT={-:-/ absolute / inch / decimal}
; #@! TF.CreationDate,2022-04-22T14:27:02-06:00
; #@! TF.GenerationSoftware,Kicad,Pcbnew,(6.0.2)
; #@! TF.FileFunction,Plated,1,4,PTH
FMAT,2
INCH
; #@! TA.AperFunction,Plated,PTH,ViaDrill
T1C0.0079
; #@! TA.AperFunction,Plated,PTH,ComponentDrill
T2C0.0138
; #@! TA.AperFunction,Plated,PTH,ViaDrill
T3C0.0157
; #@! TA.AperFunction,Plated,PTH,ComponentDrill
T4C0.0509
; #@! TA.AperFunction,Plated,PTH,ComponentDrill
T5C0.1260
%
G90
G05
T1
X2.3435Y-2.626
X2.4803Y-2.626
X2.739Y-2.576
X3.1705Y-2.1634
X3.1941Y-2.1634
X3.2177Y-2.1634
X3.2248Y-2.4937
X3.2421Y-2.163
X3.2606Y-2.6043
X3.2606Y-2.6366
X3.261Y-2.4768
X3.261Y-2.6642
X3.261Y-2.6929
X3.2756Y-2.1654
X3.3039Y-2.1665
X3.3307Y-2.3543
X3.3382Y-2.7035
X3.3701Y-2.1358
X3.374Y-2.2874
X3.3937Y-2.1358
X3.4183Y-2.1358
X3.435Y-2.2894
X3.4429Y-2.1358
X3.4429Y-2.7274
X3.4429Y-2.7608
X3.4665Y-2.1358
X3.4689Y-2.2894
X3.4803Y-2.7274
X3.4803Y-2.7608
X3.4902Y-2.1358
X3.5148Y-2.1358
X3.563Y-2.3031
X3.6319Y-2.3031
X3.7411Y-2.6959
X3.7687Y-2.6959
X4.0404Y-2.8583
X4.1299Y-2.8583
T2
X3.4045Y-2.4911
X3.4045Y-2.5413
X3.4045Y-2.5915
X3.4547Y-2.4911
X3.4547Y-2.5413
X3.4547Y-2.5915
X3.5049Y-2.4911
X3.5049Y-2.5413
X3.5049Y-2.5915
T3
X1.002Y-2.2165
X1.1024Y-2.5
X1.1929Y-2.4941
X1.2126Y-2.1417
X1.252Y-2.3563
X1.252Y-2.4035
X1.252Y-2.4488
X1.252Y-2.4941
X1.2933Y-3.3563
X1.2972Y-3.1319
X1.3189Y-2.2165
X1.4252Y-2.3071
X1.437Y-2.6772
X1.437Y-2.7362
X1.4409Y-2.2165
X1.5217Y-3.4449
X1.5354Y-3.0305
X1.6929Y-2.7362
X1.6929Y-2.7736
X1.6929Y-2.811
X1.6929Y-2.8484
X1.7441Y-2.8858
X1.7441Y-2.9213
X1.7657Y-2.5906
X1.8169Y-2.4449
X1.8189Y-2.3839
X2.0846Y-2.1417
X2.0846Y-2.9665
X2.0886Y-3.4311
X2.0886Y-3.4764
X2.0925Y-2.5138
X2.1171Y-2.5571
X2.1555Y-2.9232
X2.1742Y-2.127
X2.2057Y-1.9774
X2.2184Y-2.6372
X2.2419Y-2.6107
X2.2606Y-3.1626
X2.2638Y-3.4764
X2.2665Y-2.5853
X2.2913Y-2.5557
X2.311Y-3.4764
X2.313Y-3.0906
X2.3138Y-3.1307
X2.3169Y-2.5278
X2.3442Y-2.5052
X2.3622Y-3.0906
X2.3622Y-3.4764
X2.3622Y-3.5669
X2.3898Y-2.0197
X2.4114Y-3.0906
X2.4134Y-3.5669
X2.4618Y-3.0906
X2.4636Y-3.5669
X2.5128Y-3.5679
X2.5189Y-2.511
X2.5409Y-2.6457
X2.562Y-3.5679
X2.5827Y-2.6098
X2.6122Y-3.4724
X2.6122Y-3.5679
X2.639Y-2.5803
X2.6634Y-3.4724
X2.6644Y-3.5669
X2.6831Y-2.5394
X2.7116Y-3.4724
X2.7116Y-3.5669
X2.7382Y-2.5213
X2.7618Y-3.5669
X2.7884Y-2.4866
X2.7886Y-2.522
X2.812Y-3.5669
X2.824Y-2.522
X2.8417Y-2.7878
X2.8612Y-3.4724
X2.8783Y-2.8244
X2.9124Y-3.4724
X2.937Y-1.815
X2.9596Y-3.565
X2.9654Y-2.4909
X2.9665Y-3.5167
X2.998Y-1.9783
X2.999Y-2.3858
X3.003Y-2.7372
X3.0108Y-3.5177
X3.0128Y-3.565
X3.0551Y-3.248
X3.1331Y-2.3327
X3.1776Y-2.9169
X3.2598Y-2.5571
X3.5335Y-2.9656
X3.6339Y-2.9656
X3.751Y-2.9656
X3.8494Y-2.4793
X3.8514Y-2.9646
X3.8701Y-2.4488
X3.8927Y-2.4793
X3.9665Y-2.9636
X4.0679Y-2.9636
X4.1378Y-3.122
X4.1447Y-2.2943
X4.1988Y-2.8209
X4.2421Y-2.8219
X4.2854Y-2.8228
T4
X1.1427Y-1.7732
X1.1427Y-2.0232
X1.3077Y-1.7732
X1.3077Y-2.0232
X1.4726Y-1.7732
X1.4726Y-2.0232
X1.6376Y-1.7732
X1.6376Y-2.0232
X1.8026Y-1.7732
X1.8026Y-2.0232
X1.9675Y-1.7732
X1.9675Y-2.0232
X3.3081Y-1.7732
X3.3081Y-2.0232
X3.473Y-1.7732
X3.473Y-2.0232
X3.638Y-1.7732
X3.638Y-2.0232
X3.803Y-1.7732
X3.803Y-2.0232
X3.9679Y-1.7732
X3.9679Y-2.0232
X4.1329Y-1.7732
X4.1329Y-2.0232
T5
X2.6378Y-1.8504
X2.6378Y-2.9134
T0
M30
