%TF.GenerationSoftware,KiCad,Pcbnew,(6.0.2)*%
%TF.CreationDate,2022-04-22T14:27:02-06:00*%
%TF.ProjectId,CONEPROJ,434f4e45-5052-44f4-9a2e-6b696361645f,rev?*%
%TF.SameCoordinates,Original*%
%TF.FileFunction,Soldermask,Bot*%
%TF.FilePolarity,Negative*%
%FSLAX46Y46*%
G04 Gerber Fmt 4.6, Leading zero omitted, Abs format (unit mm)*
G04 Created by KiCad (PCBNEW (6.0.2)) date 2022-04-22 14:27:02*
%MOMM*%
%LPD*%
G01*
G04 APERTURE LIST*
G04 Aperture macros list*
%AMRoundRect*
0 Rectangle with rounded corners*
0 $1 Rounding radius*
0 $2 $3 $4 $5 $6 $7 $8 $9 X,Y pos of 4 corners*
0 Add a 4 corners polygon primitive as box body*
4,1,4,$2,$3,$4,$5,$6,$7,$8,$9,$2,$3,0*
0 Add four circle primitives for the rounded corners*
1,1,$1+$1,$2,$3*
1,1,$1+$1,$4,$5*
1,1,$1+$1,$6,$7*
1,1,$1+$1,$8,$9*
0 Add four rect primitives between the rounded corners*
20,1,$1+$1,$2,$3,$4,$5,0*
20,1,$1+$1,$4,$5,$6,$7,0*
20,1,$1+$1,$6,$7,$8,$9,0*
20,1,$1+$1,$8,$9,$2,$3,0*%
G04 Aperture macros list end*
%ADD10C,5.600000*%
%ADD11C,2.374900*%
%ADD12C,0.990600*%
%ADD13R,2.056000X2.056000*%
%ADD14C,2.056000*%
%ADD15RoundRect,0.150000X0.150000X-0.725000X0.150000X0.725000X-0.150000X0.725000X-0.150000X-0.725000X0*%
%ADD16R,3.000000X1.200000*%
%ADD17RoundRect,0.250000X0.475000X-0.337500X0.475000X0.337500X-0.475000X0.337500X-0.475000X-0.337500X0*%
%ADD18RoundRect,0.237500X-0.237500X0.250000X-0.237500X-0.250000X0.237500X-0.250000X0.237500X0.250000X0*%
%ADD19R,2.200000X1.050000*%
%ADD20R,1.050000X1.000000*%
G04 APERTURE END LIST*
D10*
%TO.C,H304*%
X67000000Y-47000000D03*
%TD*%
D11*
%TO.C,J5*%
X97780000Y-82095000D03*
D12*
X101336000Y-80190000D03*
X100320000Y-85270000D03*
D11*
X97780000Y-85270000D03*
X102860000Y-82095000D03*
X102860000Y-85270000D03*
D12*
X99304000Y-80190000D03*
%TD*%
D13*
%TO.C,J4*%
X84025000Y-45040000D03*
D14*
X88215000Y-45040000D03*
X92405000Y-45040000D03*
X96595000Y-45040000D03*
X100785000Y-45040000D03*
X104975000Y-45040000D03*
X104975000Y-51390000D03*
X100785000Y-51390000D03*
X96595000Y-51390000D03*
X92405000Y-51390000D03*
X88215000Y-51390000D03*
X84025000Y-51390000D03*
D13*
X49975000Y-51390000D03*
D14*
X45785000Y-51390000D03*
X41595000Y-51390000D03*
X37405000Y-51390000D03*
X33215000Y-51390000D03*
X29025000Y-51390000D03*
X29025000Y-45040000D03*
X33215000Y-45040000D03*
X37405000Y-45040000D03*
X41595000Y-45040000D03*
X45785000Y-45040000D03*
X49975000Y-45040000D03*
%TD*%
D10*
%TO.C,H302*%
X67000000Y-74000000D03*
%TD*%
D15*
%TO.C,Q7*%
X94205000Y-59800000D03*
X92935000Y-59800000D03*
X91665000Y-59800000D03*
X90395000Y-59800000D03*
X90395000Y-54650000D03*
X91665000Y-54650000D03*
X92935000Y-54650000D03*
X94205000Y-54650000D03*
%TD*%
%TO.C,Q5*%
X105255000Y-59800000D03*
X103985000Y-59800000D03*
X102715000Y-59800000D03*
X101445000Y-59800000D03*
X101445000Y-54650000D03*
X102715000Y-54650000D03*
X103985000Y-54650000D03*
X105255000Y-54650000D03*
%TD*%
%TO.C,Q6*%
X103305000Y-76725000D03*
X102035000Y-76725000D03*
X100765000Y-76725000D03*
X99495000Y-76725000D03*
X99495000Y-71575000D03*
X100765000Y-71575000D03*
X102035000Y-71575000D03*
X103305000Y-71575000D03*
%TD*%
%TO.C,Q3*%
X92280000Y-76725000D03*
X91010000Y-76725000D03*
X89740000Y-76725000D03*
X88470000Y-76725000D03*
X88470000Y-71575000D03*
X89740000Y-71575000D03*
X91010000Y-71575000D03*
X92280000Y-71575000D03*
%TD*%
D16*
%TO.C,U310*%
X50480000Y-75500000D03*
X50480000Y-77500000D03*
X50480000Y-79500000D03*
X50480000Y-81500000D03*
X50480000Y-83500000D03*
X50480000Y-85500000D03*
X50480000Y-87500000D03*
X50480000Y-89500000D03*
X35480000Y-89500000D03*
X35480000Y-87500000D03*
X35480000Y-85500000D03*
X35480000Y-83500000D03*
X35480000Y-81500000D03*
X35480000Y-79500000D03*
X35480000Y-77500000D03*
X35480000Y-75500000D03*
%TD*%
D17*
%TO.C,C302*%
X32850000Y-83587500D03*
X32850000Y-81512500D03*
%TD*%
D15*
%TO.C,Q4*%
X97805000Y-76725000D03*
X96535000Y-76725000D03*
X95265000Y-76725000D03*
X93995000Y-76725000D03*
X93995000Y-71575000D03*
X95265000Y-71575000D03*
X96535000Y-71575000D03*
X97805000Y-71575000D03*
%TD*%
D18*
%TO.C,R12*%
X73376667Y-62292500D03*
X73376667Y-64117500D03*
%TD*%
%TO.C,R11*%
X74546667Y-62292500D03*
X74546667Y-64117500D03*
%TD*%
D15*
%TO.C,Q2*%
X99705000Y-59800000D03*
X98435000Y-59800000D03*
X97165000Y-59800000D03*
X95895000Y-59800000D03*
X95895000Y-54650000D03*
X97165000Y-54650000D03*
X98435000Y-54650000D03*
X99705000Y-54650000D03*
%TD*%
D19*
%TO.C,J304*%
X30175000Y-87025000D03*
D20*
X31700000Y-88500000D03*
D19*
X30175000Y-89975000D03*
%TD*%
M02*
