%TF.GenerationSoftware,KiCad,Pcbnew,(6.0.2)*%
%TF.CreationDate,2022-04-26T10:25:04-06:00*%
%TF.ProjectId,CONEPROJ,434f4e45-5052-44f4-9a2e-6b696361645f,rev?*%
%TF.SameCoordinates,Original*%
%TF.FileFunction,Paste,Top*%
%TF.FilePolarity,Positive*%
%FSLAX46Y46*%
G04 Gerber Fmt 4.6, Leading zero omitted, Abs format (unit mm)*
G04 Created by KiCad (PCBNEW (6.0.2)) date 2022-04-26 10:25:04*
%MOMM*%
%LPD*%
G01*
G04 APERTURE LIST*
G04 Aperture macros list*
%AMRoundRect*
0 Rectangle with rounded corners*
0 $1 Rounding radius*
0 $2 $3 $4 $5 $6 $7 $8 $9 X,Y pos of 4 corners*
0 Add a 4 corners polygon primitive as box body*
4,1,4,$2,$3,$4,$5,$6,$7,$8,$9,$2,$3,0*
0 Add four circle primitives for the rounded corners*
1,1,$1+$1,$2,$3*
1,1,$1+$1,$4,$5*
1,1,$1+$1,$6,$7*
1,1,$1+$1,$8,$9*
0 Add four rect primitives between the rounded corners*
20,1,$1+$1,$2,$3,$4,$5,0*
20,1,$1+$1,$4,$5,$6,$7,0*
20,1,$1+$1,$6,$7,$8,$9,0*
20,1,$1+$1,$8,$9,$2,$3,0*%
G04 Aperture macros list end*
%ADD10R,1.150000X1.000000*%
%ADD11RoundRect,0.237500X-0.250000X-0.237500X0.250000X-0.237500X0.250000X0.237500X-0.250000X0.237500X0*%
%ADD12RoundRect,0.150000X-0.150000X0.875000X-0.150000X-0.875000X0.150000X-0.875000X0.150000X0.875000X0*%
%ADD13RoundRect,0.100000X-0.100000X0.637500X-0.100000X-0.637500X0.100000X-0.637500X0.100000X0.637500X0*%
%ADD14RoundRect,0.250000X-0.337500X-0.475000X0.337500X-0.475000X0.337500X0.475000X-0.337500X0.475000X0*%
%ADD15R,5.700000X1.600000*%
%ADD16RoundRect,0.250000X-0.325000X-0.650000X0.325000X-0.650000X0.325000X0.650000X-0.325000X0.650000X0*%
%ADD17RoundRect,0.240000X-0.240000X-0.385000X0.240000X-0.385000X0.240000X0.385000X-0.240000X0.385000X0*%
%ADD18RoundRect,0.150000X-0.825000X-0.150000X0.825000X-0.150000X0.825000X0.150000X-0.825000X0.150000X0*%
%ADD19RoundRect,0.237500X-0.237500X0.300000X-0.237500X-0.300000X0.237500X-0.300000X0.237500X0.300000X0*%
%ADD20RoundRect,0.237500X0.237500X-0.300000X0.237500X0.300000X-0.237500X0.300000X-0.237500X-0.300000X0*%
%ADD21R,2.000000X2.000000*%
%ADD22RoundRect,0.150000X-0.150000X0.650000X-0.150000X-0.650000X0.150000X-0.650000X0.150000X0.650000X0*%
%ADD23RoundRect,0.250000X-0.475000X0.337500X-0.475000X-0.337500X0.475000X-0.337500X0.475000X0.337500X0*%
%ADD24RoundRect,0.237500X0.250000X0.237500X-0.250000X0.237500X-0.250000X-0.237500X0.250000X-0.237500X0*%
%ADD25RoundRect,0.250000X0.337500X0.475000X-0.337500X0.475000X-0.337500X-0.475000X0.337500X-0.475000X0*%
%ADD26RoundRect,0.237500X-0.237500X0.250000X-0.237500X-0.250000X0.237500X-0.250000X0.237500X0.250000X0*%
%ADD27R,0.750000X3.000000*%
%ADD28RoundRect,0.418770X-0.418770X1.006311X-0.418770X-1.006311X0.418770X-1.006311X0.418770X1.006311X0*%
%ADD29RoundRect,0.412540X-0.412540X0.887541X-0.412540X-0.887541X0.412540X-0.887541X0.412540X0.887541X0*%
%ADD30RoundRect,0.443770X-0.443770X0.893770X-0.443770X-0.893770X0.443770X-0.893770X0.443770X0.893770X0*%
%ADD31RoundRect,0.396885X-0.396885X1.015655X-0.396885X-1.015655X0.396885X-1.015655X0.396885X1.015655X0*%
%ADD32RoundRect,0.237500X0.237500X-0.250000X0.237500X0.250000X-0.237500X0.250000X-0.237500X-0.250000X0*%
%ADD33RoundRect,0.150000X0.150000X-0.825000X0.150000X0.825000X-0.150000X0.825000X-0.150000X-0.825000X0*%
%ADD34RoundRect,0.237500X-0.300000X-0.237500X0.300000X-0.237500X0.300000X0.237500X-0.300000X0.237500X0*%
%ADD35RoundRect,0.237500X0.287500X0.237500X-0.287500X0.237500X-0.287500X-0.237500X0.287500X-0.237500X0*%
%ADD36R,1.000000X1.500000*%
%ADD37RoundRect,0.250000X-0.292217X0.292217X-0.292217X-0.292217X0.292217X-0.292217X0.292217X0.292217X0*%
%ADD38RoundRect,0.050000X-0.050000X0.387500X-0.050000X-0.387500X0.050000X-0.387500X0.050000X0.387500X0*%
%ADD39RoundRect,0.050000X-0.387500X0.050000X-0.387500X-0.050000X0.387500X-0.050000X0.387500X0.050000X0*%
%ADD40RoundRect,0.250000X-1.250000X-0.550000X1.250000X-0.550000X1.250000X0.550000X-1.250000X0.550000X0*%
%ADD41R,0.900000X1.200000*%
%ADD42R,1.800000X2.100000*%
G04 APERTURE END LIST*
D10*
%TO.C,Y2*%
X56000000Y-52750000D03*
X57750000Y-52750000D03*
X57750000Y-51350000D03*
X56000000Y-51350000D03*
%TD*%
D11*
%TO.C,R10*%
X28827500Y-71400000D03*
X30652500Y-71400000D03*
%TD*%
D12*
%TO.C,U8*%
X72080000Y-52100000D03*
X70810000Y-52100000D03*
X69540000Y-52100000D03*
X68270000Y-52100000D03*
X67000000Y-52100000D03*
X65730000Y-52100000D03*
X64460000Y-52100000D03*
X63190000Y-52100000D03*
X61920000Y-52100000D03*
X61920000Y-61400000D03*
X63190000Y-61400000D03*
X64460000Y-61400000D03*
X65730000Y-61400000D03*
X67000000Y-61400000D03*
X68270000Y-61400000D03*
X69540000Y-61400000D03*
X70810000Y-61400000D03*
X72080000Y-61400000D03*
%TD*%
D13*
%TO.C,U5*%
X60175000Y-55887500D03*
X59525000Y-55887500D03*
X58875000Y-55887500D03*
X58225000Y-55887500D03*
X57575000Y-55887500D03*
X56925000Y-55887500D03*
X56275000Y-55887500D03*
X55625000Y-55887500D03*
X54975000Y-55887500D03*
X54325000Y-55887500D03*
X54325000Y-61612500D03*
X54975000Y-61612500D03*
X55625000Y-61612500D03*
X56275000Y-61612500D03*
X56925000Y-61612500D03*
X57575000Y-61612500D03*
X58225000Y-61612500D03*
X58875000Y-61612500D03*
X59525000Y-61612500D03*
X60175000Y-61612500D03*
%TD*%
D14*
%TO.C,C36*%
X39072500Y-67140000D03*
X41147500Y-67140000D03*
%TD*%
D15*
%TO.C,L2*%
X34200000Y-63745000D03*
X34200000Y-59045000D03*
%TD*%
D16*
%TO.C,C33*%
X38780000Y-84802500D03*
X41730000Y-84802500D03*
%TD*%
D17*
%TO.C,U6*%
X31740000Y-83920000D03*
X30600000Y-82420000D03*
X30600000Y-83920000D03*
X31740000Y-82420000D03*
D18*
X28695000Y-81265000D03*
X28695000Y-82535000D03*
X28695000Y-83805000D03*
X28695000Y-85075000D03*
X33645000Y-85075000D03*
X33645000Y-83805000D03*
X33645000Y-82535000D03*
X33645000Y-81265000D03*
%TD*%
D19*
%TO.C,C15*%
X83125000Y-69587500D03*
X83125000Y-71312500D03*
%TD*%
D14*
%TO.C,C42*%
X38572500Y-62680000D03*
X40647500Y-62680000D03*
%TD*%
D20*
%TO.C,R7*%
X96800000Y-78162500D03*
X96800000Y-76437500D03*
%TD*%
%TO.C,C21*%
X59150000Y-52937500D03*
X59150000Y-51212500D03*
%TD*%
D21*
%TO.C,PAU301*%
X43500000Y-78595000D03*
X51500000Y-78595000D03*
%TD*%
D22*
%TO.C,U7*%
X103893687Y-60987273D03*
X102623687Y-60987273D03*
X101353687Y-60987273D03*
X100083687Y-60987273D03*
X100083687Y-68187273D03*
X101353687Y-68187273D03*
X102623687Y-68187273D03*
X103893687Y-68187273D03*
%TD*%
D23*
%TO.C,C11*%
X46150000Y-63712500D03*
X46150000Y-65787500D03*
%TD*%
D14*
%TO.C,C16*%
X60862500Y-63750000D03*
X62937500Y-63750000D03*
%TD*%
%TO.C,C38*%
X39072500Y-71140000D03*
X41147500Y-71140000D03*
%TD*%
D19*
%TO.C,C24*%
X86300000Y-69587500D03*
X86300000Y-71312500D03*
%TD*%
D24*
%TO.C,R19*%
X33822500Y-71370000D03*
X31997500Y-71370000D03*
%TD*%
D25*
%TO.C,C27*%
X95332500Y-86845000D03*
X93257500Y-86845000D03*
%TD*%
D26*
%TO.C,R5*%
X81550000Y-67712500D03*
X81550000Y-69537500D03*
%TD*%
D27*
%TO.C,J2*%
X76499838Y-86127500D03*
X76499838Y-82527500D03*
X75229838Y-86127500D03*
X75229838Y-82527500D03*
X73959838Y-86127500D03*
X73959838Y-82527500D03*
X72689838Y-86127500D03*
X72689838Y-82527500D03*
X71419838Y-86127500D03*
X71419838Y-82527500D03*
X70149838Y-86127500D03*
X70149838Y-82527500D03*
X68879838Y-86127500D03*
X68879838Y-82527500D03*
X67609838Y-86127500D03*
X67609838Y-82527500D03*
X66339838Y-86127500D03*
X66339838Y-82527500D03*
X65069838Y-86127500D03*
X65069838Y-82527500D03*
X63799838Y-86127500D03*
X63799838Y-82527500D03*
X62529838Y-86127500D03*
X62529838Y-82527500D03*
X61259838Y-86127500D03*
X61259838Y-82527500D03*
X59989838Y-86127500D03*
X59989838Y-82527500D03*
X58719838Y-86127500D03*
X58719838Y-82527500D03*
X57449838Y-86127500D03*
X57449838Y-82527500D03*
D28*
X79062378Y-84252581D03*
D29*
X79074838Y-89277419D03*
D30*
X54924838Y-89239959D03*
D31*
X55018608Y-84240040D03*
%TD*%
D19*
%TO.C,C18*%
X95050000Y-65487500D03*
X95050000Y-67212500D03*
%TD*%
D25*
%TO.C,C25*%
X29807500Y-61840000D03*
X27732500Y-61840000D03*
%TD*%
D32*
%TO.C,R9*%
X92580000Y-85342500D03*
X92580000Y-83517500D03*
%TD*%
D33*
%TO.C,U2*%
X48280000Y-67275000D03*
X49550000Y-67275000D03*
X50820000Y-67275000D03*
X52090000Y-67275000D03*
X52090000Y-62325000D03*
X50820000Y-62325000D03*
X49550000Y-62325000D03*
X48280000Y-62325000D03*
%TD*%
D19*
%TO.C,C9*%
X84750000Y-69587500D03*
X84750000Y-71312500D03*
%TD*%
D14*
%TO.C,C34*%
X27732500Y-63810000D03*
X29807500Y-63810000D03*
%TD*%
%TO.C,C30*%
X95767500Y-74985000D03*
X97842500Y-74985000D03*
%TD*%
D34*
%TO.C,C7*%
X78137500Y-62100000D03*
X79862500Y-62100000D03*
%TD*%
D16*
%TO.C,C32*%
X39045000Y-69060000D03*
X41995000Y-69060000D03*
%TD*%
D25*
%TO.C,C5*%
X30872499Y-73818041D03*
X28797499Y-73818041D03*
%TD*%
D11*
%TO.C,R22*%
X80597500Y-78940000D03*
X82422500Y-78940000D03*
%TD*%
D34*
%TO.C,C8*%
X78137500Y-69524999D03*
X79862500Y-69524999D03*
%TD*%
D25*
%TO.C,C26*%
X30872499Y-76539020D03*
X28797499Y-76539020D03*
%TD*%
D14*
%TO.C,C35*%
X28797499Y-79260000D03*
X30872499Y-79260000D03*
%TD*%
D19*
%TO.C,C14*%
X91225000Y-69587500D03*
X91225000Y-71312500D03*
%TD*%
D24*
%TO.C,R18*%
X37352500Y-71380001D03*
X35527500Y-71380001D03*
%TD*%
D19*
%TO.C,C10*%
X96600000Y-65487500D03*
X96600000Y-67212500D03*
%TD*%
D11*
%TO.C,R17*%
X35687500Y-85130000D03*
X37512500Y-85130000D03*
%TD*%
D32*
%TO.C,R15*%
X48235000Y-59712500D03*
X48235000Y-57887500D03*
%TD*%
D19*
%TO.C,C12*%
X92750000Y-67312500D03*
X92750000Y-69037500D03*
%TD*%
D21*
%TO.C,MOD301*%
X43500000Y-84075000D03*
X51500000Y-84075000D03*
%TD*%
D11*
%TO.C,R3*%
X94687500Y-58150000D03*
X96512500Y-58150000D03*
%TD*%
D19*
%TO.C,R6*%
X103850000Y-76412500D03*
X103850000Y-78137500D03*
%TD*%
D14*
%TO.C,C29*%
X89717500Y-72885000D03*
X91792500Y-72885000D03*
%TD*%
D35*
%TO.C,D302*%
X79000000Y-75610000D03*
X77250000Y-75610000D03*
%TD*%
D19*
%TO.C,C13*%
X89625000Y-69587500D03*
X89625000Y-71312500D03*
%TD*%
D36*
%TO.C,U9*%
X77775000Y-54225000D03*
X76175000Y-54225000D03*
X74575000Y-54225000D03*
X74575000Y-59125000D03*
X76175000Y-59125000D03*
X77775000Y-59125000D03*
%TD*%
D37*
%TO.C,U10*%
X88387500Y-65187500D03*
X88387500Y-63912500D03*
X87112500Y-65187500D03*
X87112500Y-63912500D03*
D38*
X90350000Y-61112500D03*
X89950000Y-61112500D03*
X89550000Y-61112500D03*
X89150000Y-61112500D03*
X88750000Y-61112500D03*
X88350000Y-61112500D03*
X87950000Y-61112500D03*
X87550000Y-61112500D03*
X87150000Y-61112500D03*
X86750000Y-61112500D03*
X86350000Y-61112500D03*
X85950000Y-61112500D03*
X85550000Y-61112500D03*
X85150000Y-61112500D03*
D39*
X84312500Y-61950000D03*
X84312500Y-62350000D03*
X84312500Y-62750000D03*
X84312500Y-63150000D03*
X84312500Y-63550000D03*
X84312500Y-63950000D03*
X84312500Y-64350000D03*
X84312500Y-64750000D03*
X84312500Y-65150000D03*
X84312500Y-65550000D03*
X84312500Y-65950000D03*
X84312500Y-66350000D03*
X84312500Y-66750000D03*
X84312500Y-67150000D03*
D38*
X85150000Y-67987500D03*
X85550000Y-67987500D03*
X85950000Y-67987500D03*
X86350000Y-67987500D03*
X86750000Y-67987500D03*
X87150000Y-67987500D03*
X87550000Y-67987500D03*
X87950000Y-67987500D03*
X88350000Y-67987500D03*
X88750000Y-67987500D03*
X89150000Y-67987500D03*
X89550000Y-67987500D03*
X89950000Y-67987500D03*
X90350000Y-67987500D03*
D39*
X91187500Y-67150000D03*
X91187500Y-66750000D03*
X91187500Y-66350000D03*
X91187500Y-65950000D03*
X91187500Y-65550000D03*
X91187500Y-65150000D03*
X91187500Y-64750000D03*
X91187500Y-64350000D03*
X91187500Y-63950000D03*
X91187500Y-63550000D03*
X91187500Y-63150000D03*
X91187500Y-62750000D03*
X91187500Y-62350000D03*
X91187500Y-61950000D03*
%TD*%
D15*
%TO.C,L3*%
X35155000Y-78905000D03*
X35155000Y-74205000D03*
%TD*%
D24*
%TO.C,R23*%
X33572500Y-86669999D03*
X31747500Y-86669999D03*
%TD*%
%TO.C,R104*%
X51797500Y-57600000D03*
X49972500Y-57600000D03*
%TD*%
D40*
%TO.C,C31*%
X86175000Y-82075000D03*
X90575000Y-82075000D03*
%TD*%
D14*
%TO.C,C41*%
X39292500Y-80627500D03*
X41367500Y-80627500D03*
%TD*%
D23*
%TO.C,C28*%
X83995000Y-74497500D03*
X83995000Y-76572500D03*
%TD*%
D14*
%TO.C,C40*%
X38572500Y-60640000D03*
X40647500Y-60640000D03*
%TD*%
D41*
%TO.C,D2*%
X27850001Y-56300000D03*
X31150001Y-56300000D03*
%TD*%
D19*
%TO.C,C23*%
X95025000Y-69587500D03*
X95025000Y-71312500D03*
%TD*%
D14*
%TO.C,C37*%
X39292500Y-82665000D03*
X41367500Y-82665000D03*
%TD*%
D35*
%TO.C,D301*%
X79027500Y-78930000D03*
X77277500Y-78930000D03*
%TD*%
D17*
%TO.C,U3*%
X31835000Y-67059999D03*
X30695000Y-67059999D03*
X30695000Y-68559999D03*
X31835000Y-68559999D03*
D18*
X28790000Y-65904999D03*
X28790000Y-67174999D03*
X28790000Y-68444999D03*
X28790000Y-69714999D03*
X33740000Y-69714999D03*
X33740000Y-68444999D03*
X33740000Y-67174999D03*
X33740000Y-65904999D03*
%TD*%
D19*
%TO.C,C4*%
X79575000Y-54162500D03*
X79575000Y-55887500D03*
%TD*%
%TO.C,C6*%
X103950000Y-70887500D03*
X103950000Y-72612500D03*
%TD*%
D25*
%TO.C,C3*%
X29807500Y-59575000D03*
X27732500Y-59575000D03*
%TD*%
D35*
%TO.C,D308*%
X79010000Y-77280000D03*
X77260000Y-77280000D03*
%TD*%
D14*
%TO.C,C43*%
X39292500Y-78590000D03*
X41367500Y-78590000D03*
%TD*%
D11*
%TO.C,R14*%
X35517500Y-69780000D03*
X37342500Y-69780000D03*
%TD*%
D24*
%TO.C,R20*%
X37512500Y-86680000D03*
X35687500Y-86680000D03*
%TD*%
D11*
%TO.C,R21*%
X80622500Y-75620000D03*
X82447500Y-75620000D03*
%TD*%
D20*
%TO.C,C17*%
X85600000Y-57151414D03*
X85600000Y-55426414D03*
%TD*%
D11*
%TO.C,R16*%
X61187500Y-65600000D03*
X63012500Y-65600000D03*
%TD*%
D20*
%TO.C,C19*%
X91490240Y-59426324D03*
X91490240Y-57701324D03*
%TD*%
D14*
%TO.C,C39*%
X39292500Y-86740000D03*
X41367500Y-86740000D03*
%TD*%
D11*
%TO.C,R13*%
X28287500Y-86690000D03*
X30112500Y-86690000D03*
%TD*%
D20*
%TO.C,C22*%
X54425000Y-52937500D03*
X54425000Y-51212500D03*
%TD*%
D11*
%TO.C,R91*%
X80592500Y-77270000D03*
X82417500Y-77270000D03*
%TD*%
D24*
%TO.C,R4*%
X96512500Y-59750000D03*
X94687500Y-59750000D03*
%TD*%
D42*
%TO.C,Y3*%
X79500000Y-67175000D03*
X79500000Y-64275000D03*
X77200000Y-64275000D03*
X77200000Y-67175000D03*
%TD*%
M02*
