%TF.GenerationSoftware,KiCad,Pcbnew,(6.0.2)*%
%TF.CreationDate,2022-04-25T10:39:50-06:00*%
%TF.ProjectId,CONEPROJ,434f4e45-5052-44f4-9a2e-6b696361645f,rev?*%
%TF.SameCoordinates,Original*%
%TF.FileFunction,Legend,Bot*%
%TF.FilePolarity,Positive*%
%FSLAX46Y46*%
G04 Gerber Fmt 4.6, Leading zero omitted, Abs format (unit mm)*
G04 Created by KiCad (PCBNEW (6.0.2)) date 2022-04-25 10:39:50*
%MOMM*%
%LPD*%
G01*
G04 APERTURE LIST*
G04 Aperture macros list*
%AMRoundRect*
0 Rectangle with rounded corners*
0 $1 Rounding radius*
0 $2 $3 $4 $5 $6 $7 $8 $9 X,Y pos of 4 corners*
0 Add a 4 corners polygon primitive as box body*
4,1,4,$2,$3,$4,$5,$6,$7,$8,$9,$2,$3,0*
0 Add four circle primitives for the rounded corners*
1,1,$1+$1,$2,$3*
1,1,$1+$1,$4,$5*
1,1,$1+$1,$6,$7*
1,1,$1+$1,$8,$9*
0 Add four rect primitives between the rounded corners*
20,1,$1+$1,$2,$3,$4,$5,0*
20,1,$1+$1,$4,$5,$6,$7,0*
20,1,$1+$1,$6,$7,$8,$9,0*
20,1,$1+$1,$8,$9,$2,$3,0*%
G04 Aperture macros list end*
%ADD10C,0.120000*%
%ADD11C,0.150000*%
%ADD12C,0.125000*%
%ADD13C,0.127000*%
%ADD14C,0.200000*%
%ADD15C,0.203200*%
%ADD16C,0.010000*%
%ADD17C,5.600000*%
%ADD18C,2.374900*%
%ADD19C,0.990600*%
%ADD20R,2.056000X2.056000*%
%ADD21C,2.056000*%
%ADD22RoundRect,0.150000X0.150000X-0.725000X0.150000X0.725000X-0.150000X0.725000X-0.150000X-0.725000X0*%
%ADD23R,3.000000X1.200000*%
%ADD24RoundRect,0.250000X0.475000X-0.337500X0.475000X0.337500X-0.475000X0.337500X-0.475000X-0.337500X0*%
%ADD25RoundRect,0.237500X-0.237500X0.250000X-0.237500X-0.250000X0.237500X-0.250000X0.237500X0.250000X0*%
%ADD26R,2.200000X1.050000*%
%ADD27R,1.050000X1.000000*%
G04 APERTURE END LIST*
D10*
X81150000Y-43500000D02*
X82430000Y-43500000D01*
X81150000Y-43500000D02*
X81150000Y-47870000D01*
X74330000Y-47870000D02*
X81130000Y-47870000D01*
D11*
X79651904Y-45779380D02*
X79651904Y-44779380D01*
X79318571Y-45493666D01*
X78985238Y-44779380D01*
X78985238Y-45779380D01*
X78318571Y-44779380D02*
X78128095Y-44779380D01*
X78032857Y-44827000D01*
X77937619Y-44922238D01*
X77890000Y-45112714D01*
X77890000Y-45446047D01*
X77937619Y-45636523D01*
X78032857Y-45731761D01*
X78128095Y-45779380D01*
X78318571Y-45779380D01*
X78413809Y-45731761D01*
X78509047Y-45636523D01*
X78556666Y-45446047D01*
X78556666Y-45112714D01*
X78509047Y-44922238D01*
X78413809Y-44827000D01*
X78318571Y-44779380D01*
X77604285Y-44779380D02*
X77032857Y-44779380D01*
X77318571Y-45779380D02*
X77318571Y-44779380D01*
X76509047Y-44779380D02*
X76318571Y-44779380D01*
X76223333Y-44827000D01*
X76128095Y-44922238D01*
X76080476Y-45112714D01*
X76080476Y-45446047D01*
X76128095Y-45636523D01*
X76223333Y-45731761D01*
X76318571Y-45779380D01*
X76509047Y-45779380D01*
X76604285Y-45731761D01*
X76699523Y-45636523D01*
X76747142Y-45446047D01*
X76747142Y-45112714D01*
X76699523Y-44922238D01*
X76604285Y-44827000D01*
X76509047Y-44779380D01*
X75080476Y-45779380D02*
X75413809Y-45303190D01*
X75651904Y-45779380D02*
X75651904Y-44779380D01*
X75270952Y-44779380D01*
X75175714Y-44827000D01*
X75128095Y-44874619D01*
X75080476Y-44969857D01*
X75080476Y-45112714D01*
X75128095Y-45207952D01*
X75175714Y-45255571D01*
X75270952Y-45303190D01*
X75651904Y-45303190D01*
X79937619Y-47294142D02*
X79985238Y-47341761D01*
X80128095Y-47389380D01*
X80223333Y-47389380D01*
X80366190Y-47341761D01*
X80461428Y-47246523D01*
X80509047Y-47151285D01*
X80556666Y-46960809D01*
X80556666Y-46817952D01*
X80509047Y-46627476D01*
X80461428Y-46532238D01*
X80366190Y-46437000D01*
X80223333Y-46389380D01*
X80128095Y-46389380D01*
X79985238Y-46437000D01*
X79937619Y-46484619D01*
X79318571Y-46389380D02*
X79128095Y-46389380D01*
X79032857Y-46437000D01*
X78937619Y-46532238D01*
X78890000Y-46722714D01*
X78890000Y-47056047D01*
X78937619Y-47246523D01*
X79032857Y-47341761D01*
X79128095Y-47389380D01*
X79318571Y-47389380D01*
X79413809Y-47341761D01*
X79509047Y-47246523D01*
X79556666Y-47056047D01*
X79556666Y-46722714D01*
X79509047Y-46532238D01*
X79413809Y-46437000D01*
X79318571Y-46389380D01*
X78461428Y-47389380D02*
X78461428Y-46389380D01*
X77890000Y-47389380D01*
X77890000Y-46389380D01*
X77556666Y-46389380D02*
X76985238Y-46389380D01*
X77270952Y-47389380D02*
X77270952Y-46389380D01*
X76080476Y-47389380D02*
X76413809Y-46913190D01*
X76651904Y-47389380D02*
X76651904Y-46389380D01*
X76270952Y-46389380D01*
X76175714Y-46437000D01*
X76128095Y-46484619D01*
X76080476Y-46579857D01*
X76080476Y-46722714D01*
X76128095Y-46817952D01*
X76175714Y-46865571D01*
X76270952Y-46913190D01*
X76651904Y-46913190D01*
X75461428Y-46389380D02*
X75270952Y-46389380D01*
X75175714Y-46437000D01*
X75080476Y-46532238D01*
X75032857Y-46722714D01*
X75032857Y-47056047D01*
X75080476Y-47246523D01*
X75175714Y-47341761D01*
X75270952Y-47389380D01*
X75461428Y-47389380D01*
X75556666Y-47341761D01*
X75651904Y-47246523D01*
X75699523Y-47056047D01*
X75699523Y-46722714D01*
X75651904Y-46532238D01*
X75556666Y-46437000D01*
X75461428Y-46389380D01*
X74128095Y-47389380D02*
X74604285Y-47389380D01*
X74604285Y-46389380D01*
D10*
X49450000Y-48250000D02*
X46400000Y-48250000D01*
X47050000Y-51450000D02*
G75*
G03*
X44550000Y-51450000I-1250000J0D01*
G01*
X42850000Y-51400000D02*
G75*
G03*
X40350000Y-51400000I-1250000J0D01*
G01*
X48750000Y-45100000D02*
G75*
G03*
X51250000Y-45100000I1250000J0D01*
G01*
X49950000Y-48550000D02*
X49450000Y-48250000D01*
X81110000Y-51880000D02*
X81100000Y-53750000D01*
X60400000Y-49490000D02*
X52950000Y-49500000D01*
X38650000Y-46550000D02*
X38350000Y-46250000D01*
X48750000Y-46450000D02*
X47100000Y-46450000D01*
X27750000Y-45050000D02*
G75*
G03*
X30250000Y-45050000I1250000J0D01*
G01*
X34450000Y-51450000D02*
G75*
G03*
X31950000Y-51450000I-1250000J0D01*
G01*
X40550000Y-46250000D02*
X40300000Y-46550000D01*
X51350000Y-50100000D02*
X51350000Y-51450000D01*
X44550000Y-45100000D02*
G75*
G03*
X47050000Y-45100000I1250000J0D01*
G01*
X48600000Y-51450000D02*
X48600000Y-50100000D01*
X38650000Y-51450000D02*
G75*
G03*
X36150000Y-51450000I-1250000J0D01*
G01*
X74290000Y-51860000D02*
X81090000Y-51860000D01*
X49000000Y-46150000D02*
X48750000Y-46450000D01*
X48600000Y-50100000D02*
X51350000Y-50100000D01*
X40350000Y-45100000D02*
G75*
G03*
X42850000Y-45100000I1250000J0D01*
G01*
X52900000Y-53750000D02*
X51200000Y-53750000D01*
X36150000Y-45100000D02*
G75*
G03*
X38650000Y-45100000I1250000J0D01*
G01*
X30250000Y-51450000D02*
G75*
G03*
X27750000Y-51450000I-1250000J0D01*
G01*
X52950000Y-49500000D02*
X52900000Y-53750000D01*
X81100000Y-53750000D02*
X82300000Y-53750000D01*
X32000000Y-45100000D02*
G75*
G03*
X34500000Y-45100000I1250000J0D01*
G01*
X47100000Y-46450000D02*
X46800000Y-46150000D01*
X40300000Y-46550000D02*
X38650000Y-46550000D01*
X46400000Y-48250000D02*
X45950000Y-48600000D01*
D11*
X29619047Y-49802380D02*
X30190476Y-49802380D01*
X29904761Y-49802380D02*
X29904761Y-48802380D01*
X30000000Y-48945238D01*
X30095238Y-49040476D01*
X30190476Y-49088095D01*
X29238095Y-48897619D02*
X29190476Y-48850000D01*
X29095238Y-48802380D01*
X28857142Y-48802380D01*
X28761904Y-48850000D01*
X28714285Y-48897619D01*
X28666666Y-48992857D01*
X28666666Y-49088095D01*
X28714285Y-49230952D01*
X29285714Y-49802380D01*
X28666666Y-49802380D01*
X28380952Y-48802380D02*
X28047619Y-49802380D01*
X27714285Y-48802380D01*
X96477142Y-36237619D02*
X96143809Y-36713809D01*
X95905714Y-36237619D02*
X95905714Y-37237619D01*
X96286666Y-37237619D01*
X96381904Y-37190000D01*
X96429523Y-37142380D01*
X96477142Y-37047142D01*
X96477142Y-36904285D01*
X96429523Y-36809047D01*
X96381904Y-36761428D01*
X96286666Y-36713809D01*
X95905714Y-36713809D01*
X96905714Y-36761428D02*
X97239047Y-36761428D01*
X97381904Y-36237619D02*
X96905714Y-36237619D01*
X96905714Y-37237619D01*
X97381904Y-37237619D01*
X97810476Y-36237619D02*
X97810476Y-37237619D01*
X98048571Y-37237619D01*
X98191428Y-37190000D01*
X98286666Y-37094761D01*
X98334285Y-36999523D01*
X98381904Y-36809047D01*
X98381904Y-36666190D01*
X98334285Y-36475714D01*
X98286666Y-36380476D01*
X98191428Y-36285238D01*
X98048571Y-36237619D01*
X97810476Y-36237619D01*
X46916666Y-49707142D02*
X46964285Y-49754761D01*
X47107142Y-49802380D01*
X47202380Y-49802380D01*
X47345238Y-49754761D01*
X47440476Y-49659523D01*
X47488095Y-49564285D01*
X47535714Y-49373809D01*
X47535714Y-49230952D01*
X47488095Y-49040476D01*
X47440476Y-48945238D01*
X47345238Y-48850000D01*
X47202380Y-48802380D01*
X47107142Y-48802380D01*
X46964285Y-48850000D01*
X46916666Y-48897619D01*
X46535714Y-49516666D02*
X46059523Y-49516666D01*
X46630952Y-49802380D02*
X46297619Y-48802380D01*
X45964285Y-49802380D01*
X45630952Y-49802380D02*
X45630952Y-48802380D01*
X45059523Y-49802380D01*
X45059523Y-48802380D01*
X44583333Y-49802380D02*
X44583333Y-48802380D01*
X44583333Y-49278571D02*
X44011904Y-49278571D01*
X44011904Y-49802380D02*
X44011904Y-48802380D01*
X42840476Y-47604761D02*
X42697619Y-47652380D01*
X42459523Y-47652380D01*
X42364285Y-47604761D01*
X42316666Y-47557142D01*
X42269047Y-47461904D01*
X42269047Y-47366666D01*
X42316666Y-47271428D01*
X42364285Y-47223809D01*
X42459523Y-47176190D01*
X42650000Y-47128571D01*
X42745238Y-47080952D01*
X42792857Y-47033333D01*
X42840476Y-46938095D01*
X42840476Y-46842857D01*
X42792857Y-46747619D01*
X42745238Y-46700000D01*
X42650000Y-46652380D01*
X42411904Y-46652380D01*
X42269047Y-46700000D01*
X41269047Y-47557142D02*
X41316666Y-47604761D01*
X41459523Y-47652380D01*
X41554761Y-47652380D01*
X41697619Y-47604761D01*
X41792857Y-47509523D01*
X41840476Y-47414285D01*
X41888095Y-47223809D01*
X41888095Y-47080952D01*
X41840476Y-46890476D01*
X41792857Y-46795238D01*
X41697619Y-46700000D01*
X41554761Y-46652380D01*
X41459523Y-46652380D01*
X41316666Y-46700000D01*
X41269047Y-46747619D01*
X40364285Y-47652380D02*
X40840476Y-47652380D01*
X40840476Y-46652380D01*
X83201904Y-37140000D02*
X83106666Y-37187619D01*
X82963809Y-37187619D01*
X82820952Y-37140000D01*
X82725714Y-37044761D01*
X82678095Y-36949523D01*
X82630476Y-36759047D01*
X82630476Y-36616190D01*
X82678095Y-36425714D01*
X82725714Y-36330476D01*
X82820952Y-36235238D01*
X82963809Y-36187619D01*
X83059047Y-36187619D01*
X83201904Y-36235238D01*
X83249523Y-36282857D01*
X83249523Y-36616190D01*
X83059047Y-36616190D01*
X83678095Y-36187619D02*
X83678095Y-37187619D01*
X84059047Y-37187619D01*
X84154285Y-37140000D01*
X84201904Y-37092380D01*
X84249523Y-36997142D01*
X84249523Y-36854285D01*
X84201904Y-36759047D01*
X84154285Y-36711428D01*
X84059047Y-36663809D01*
X83678095Y-36663809D01*
X84868571Y-37187619D02*
X85059047Y-37187619D01*
X85154285Y-37140000D01*
X85249523Y-37044761D01*
X85297142Y-36854285D01*
X85297142Y-36520952D01*
X85249523Y-36330476D01*
X85154285Y-36235238D01*
X85059047Y-36187619D01*
X84868571Y-36187619D01*
X84773333Y-36235238D01*
X84678095Y-36330476D01*
X84630476Y-36520952D01*
X84630476Y-36854285D01*
X84678095Y-37044761D01*
X84773333Y-37140000D01*
X84868571Y-37187619D01*
X85630476Y-37187619D02*
X86297142Y-37187619D01*
X85868571Y-36187619D01*
X42621428Y-49902380D02*
X43097619Y-49902380D01*
X43097619Y-48902380D01*
X42288095Y-49378571D02*
X41954761Y-49378571D01*
X41811904Y-49902380D02*
X42288095Y-49902380D01*
X42288095Y-48902380D01*
X41811904Y-48902380D01*
X41383333Y-49902380D02*
X41383333Y-48902380D01*
X41145238Y-48902380D01*
X41002380Y-48950000D01*
X40907142Y-49045238D01*
X40859523Y-49140476D01*
X40811904Y-49330952D01*
X40811904Y-49473809D01*
X40859523Y-49664285D01*
X40907142Y-49759523D01*
X41002380Y-49854761D01*
X41145238Y-49902380D01*
X41383333Y-49902380D01*
X40430952Y-49616666D02*
X39954761Y-49616666D01*
X40526190Y-49902380D02*
X40192857Y-48902380D01*
X39859523Y-49902380D01*
X58759523Y-47447380D02*
X58759523Y-46447380D01*
X58378571Y-46447380D01*
X58283333Y-46495000D01*
X58235714Y-46542619D01*
X58188095Y-46637857D01*
X58188095Y-46780714D01*
X58235714Y-46875952D01*
X58283333Y-46923571D01*
X58378571Y-46971190D01*
X58759523Y-46971190D01*
X57569047Y-46447380D02*
X57378571Y-46447380D01*
X57283333Y-46495000D01*
X57188095Y-46590238D01*
X57140476Y-46780714D01*
X57140476Y-47114047D01*
X57188095Y-47304523D01*
X57283333Y-47399761D01*
X57378571Y-47447380D01*
X57569047Y-47447380D01*
X57664285Y-47399761D01*
X57759523Y-47304523D01*
X57807142Y-47114047D01*
X57807142Y-46780714D01*
X57759523Y-46590238D01*
X57664285Y-46495000D01*
X57569047Y-46447380D01*
X56807142Y-46447380D02*
X56569047Y-47447380D01*
X56378571Y-46733095D01*
X56188095Y-47447380D01*
X55950000Y-46447380D01*
X55569047Y-46923571D02*
X55235714Y-46923571D01*
X55092857Y-47447380D02*
X55569047Y-47447380D01*
X55569047Y-46447380D01*
X55092857Y-46447380D01*
X54092857Y-47447380D02*
X54426190Y-46971190D01*
X54664285Y-47447380D02*
X54664285Y-46447380D01*
X54283333Y-46447380D01*
X54188095Y-46495000D01*
X54140476Y-46542619D01*
X54092857Y-46637857D01*
X54092857Y-46780714D01*
X54140476Y-46875952D01*
X54188095Y-46923571D01*
X54283333Y-46971190D01*
X54664285Y-46971190D01*
X57878571Y-49057380D02*
X57878571Y-48057380D01*
X56688095Y-48009761D02*
X57545238Y-49295476D01*
X56164285Y-48057380D02*
X55973809Y-48057380D01*
X55878571Y-48105000D01*
X55783333Y-48200238D01*
X55735714Y-48390714D01*
X55735714Y-48724047D01*
X55783333Y-48914523D01*
X55878571Y-49009761D01*
X55973809Y-49057380D01*
X56164285Y-49057380D01*
X56259523Y-49009761D01*
X56354761Y-48914523D01*
X56402380Y-48724047D01*
X56402380Y-48390714D01*
X56354761Y-48200238D01*
X56259523Y-48105000D01*
X56164285Y-48057380D01*
X87301905Y-37140000D02*
X87206667Y-37187619D01*
X87063810Y-37187619D01*
X86920953Y-37140000D01*
X86825715Y-37044761D01*
X86778096Y-36949523D01*
X86730477Y-36759047D01*
X86730477Y-36616190D01*
X86778096Y-36425714D01*
X86825715Y-36330476D01*
X86920953Y-36235238D01*
X87063810Y-36187619D01*
X87159048Y-36187619D01*
X87301905Y-36235238D01*
X87349524Y-36282857D01*
X87349524Y-36616190D01*
X87159048Y-36616190D01*
X87778096Y-36187619D02*
X87778096Y-37187619D01*
X88159048Y-37187619D01*
X88254286Y-37140000D01*
X88301905Y-37092380D01*
X88349524Y-36997142D01*
X88349524Y-36854285D01*
X88301905Y-36759047D01*
X88254286Y-36711428D01*
X88159048Y-36663809D01*
X87778096Y-36663809D01*
X88968572Y-37187619D02*
X89159048Y-37187619D01*
X89254286Y-37140000D01*
X89349524Y-37044761D01*
X89397143Y-36854285D01*
X89397143Y-36520952D01*
X89349524Y-36330476D01*
X89254286Y-36235238D01*
X89159048Y-36187619D01*
X88968572Y-36187619D01*
X88873334Y-36235238D01*
X88778096Y-36330476D01*
X88730477Y-36520952D01*
X88730477Y-36854285D01*
X88778096Y-37044761D01*
X88873334Y-37140000D01*
X88968572Y-37187619D01*
X89968572Y-36759047D02*
X89873334Y-36806666D01*
X89825715Y-36854285D01*
X89778096Y-36949523D01*
X89778096Y-36997142D01*
X89825715Y-37092380D01*
X89873334Y-37140000D01*
X89968572Y-37187619D01*
X90159048Y-37187619D01*
X90254286Y-37140000D01*
X90301905Y-37092380D01*
X90349524Y-36997142D01*
X90349524Y-36949523D01*
X90301905Y-36854285D01*
X90254286Y-36806666D01*
X90159048Y-36759047D01*
X89968572Y-36759047D01*
X89873334Y-36711428D01*
X89825715Y-36663809D01*
X89778096Y-36568571D01*
X89778096Y-36378095D01*
X89825715Y-36282857D01*
X89873334Y-36235238D01*
X89968572Y-36187619D01*
X90159048Y-36187619D01*
X90254286Y-36235238D01*
X90301905Y-36282857D01*
X90349524Y-36378095D01*
X90349524Y-36568571D01*
X90301905Y-36663809D01*
X90254286Y-36711428D01*
X90159048Y-36759047D01*
X38200000Y-49802380D02*
X38200000Y-48802380D01*
X37533333Y-48802380D02*
X37342857Y-48802380D01*
X37247619Y-48850000D01*
X37152380Y-48945238D01*
X37104761Y-49135714D01*
X37104761Y-49469047D01*
X37152380Y-49659523D01*
X37247619Y-49754761D01*
X37342857Y-49802380D01*
X37533333Y-49802380D01*
X37628571Y-49754761D01*
X37723809Y-49659523D01*
X37771428Y-49469047D01*
X37771428Y-49135714D01*
X37723809Y-48945238D01*
X37628571Y-48850000D01*
X37533333Y-48802380D01*
X36247619Y-49135714D02*
X36247619Y-49802380D01*
X36485714Y-48754761D02*
X36723809Y-49469047D01*
X36104761Y-49469047D01*
X102533333Y-38457619D02*
X102533333Y-39457619D01*
X102866666Y-38743333D01*
X103200000Y-39457619D01*
X103200000Y-38457619D01*
X104200000Y-38457619D02*
X103628571Y-38457619D01*
X103914285Y-38457619D02*
X103914285Y-39457619D01*
X103819047Y-39314761D01*
X103723809Y-39219523D01*
X103628571Y-39171904D01*
X105914285Y-38457619D02*
X105342857Y-38457619D01*
X105628571Y-38457619D02*
X105628571Y-39457619D01*
X105533333Y-39314761D01*
X105438095Y-39219523D01*
X105342857Y-39171904D01*
X93683333Y-38467619D02*
X93683333Y-39467619D01*
X94016666Y-38753333D01*
X94350000Y-39467619D01*
X94350000Y-38467619D01*
X94778571Y-39372380D02*
X94826190Y-39420000D01*
X94921428Y-39467619D01*
X95159523Y-39467619D01*
X95254761Y-39420000D01*
X95302380Y-39372380D01*
X95350000Y-39277142D01*
X95350000Y-39181904D01*
X95302380Y-39039047D01*
X94730952Y-38467619D01*
X95350000Y-38467619D01*
X97064285Y-38467619D02*
X96492857Y-38467619D01*
X96778571Y-38467619D02*
X96778571Y-39467619D01*
X96683333Y-39324761D01*
X96588095Y-39229523D01*
X96492857Y-39181904D01*
D12*
X108773809Y-91678571D02*
X108797619Y-91702380D01*
X108869047Y-91726190D01*
X108916666Y-91726190D01*
X108988095Y-91702380D01*
X109035714Y-91654761D01*
X109059523Y-91607142D01*
X109083333Y-91511904D01*
X109083333Y-91440476D01*
X109059523Y-91345238D01*
X109035714Y-91297619D01*
X108988095Y-91250000D01*
X108916666Y-91226190D01*
X108869047Y-91226190D01*
X108797619Y-91250000D01*
X108773809Y-91273809D01*
X108583333Y-91583333D02*
X108345238Y-91583333D01*
X108630952Y-91726190D02*
X108464285Y-91226190D01*
X108297619Y-91726190D01*
X108130952Y-91726190D02*
X108130952Y-91226190D01*
X107845238Y-91726190D01*
X107845238Y-91226190D01*
X106940476Y-91726190D02*
X107107142Y-91488095D01*
X107226190Y-91726190D02*
X107226190Y-91226190D01*
X107035714Y-91226190D01*
X106988095Y-91250000D01*
X106964285Y-91273809D01*
X106940476Y-91321428D01*
X106940476Y-91392857D01*
X106964285Y-91440476D01*
X106988095Y-91464285D01*
X107035714Y-91488095D01*
X107226190Y-91488095D01*
X106464285Y-91250000D02*
X106511904Y-91226190D01*
X106583333Y-91226190D01*
X106654761Y-91250000D01*
X106702380Y-91297619D01*
X106726190Y-91345238D01*
X106749999Y-91440476D01*
X106749999Y-91511904D01*
X106726190Y-91607142D01*
X106702380Y-91654761D01*
X106654761Y-91702380D01*
X106583333Y-91726190D01*
X106535714Y-91726190D01*
X106464285Y-91702380D01*
X106440476Y-91678571D01*
X106440476Y-91511904D01*
X106535714Y-91511904D01*
X106059523Y-91464285D02*
X105988095Y-91488095D01*
X105964285Y-91511904D01*
X105940476Y-91559523D01*
X105940476Y-91630952D01*
X105964285Y-91678571D01*
X105988095Y-91702380D01*
X106035714Y-91726190D01*
X106226190Y-91726190D01*
X106226190Y-91226190D01*
X106059523Y-91226190D01*
X106011904Y-91250000D01*
X105988095Y-91273809D01*
X105964285Y-91321428D01*
X105964285Y-91369047D01*
X105988095Y-91416666D01*
X106011904Y-91440476D01*
X106059523Y-91464285D01*
X106226190Y-91464285D01*
X105059523Y-91678571D02*
X105083333Y-91702380D01*
X105154761Y-91726190D01*
X105202380Y-91726190D01*
X105273809Y-91702380D01*
X105321428Y-91654761D01*
X105345238Y-91607142D01*
X105369047Y-91511904D01*
X105369047Y-91440476D01*
X105345238Y-91345238D01*
X105321428Y-91297619D01*
X105273809Y-91250000D01*
X105202380Y-91226190D01*
X105154761Y-91226190D01*
X105083333Y-91250000D01*
X105059523Y-91273809D01*
X104750000Y-91226190D02*
X104654761Y-91226190D01*
X104607142Y-91250000D01*
X104559523Y-91297619D01*
X104535714Y-91392857D01*
X104535714Y-91559523D01*
X104559523Y-91654761D01*
X104607142Y-91702380D01*
X104654761Y-91726190D01*
X104750000Y-91726190D01*
X104797619Y-91702380D01*
X104845238Y-91654761D01*
X104869047Y-91559523D01*
X104869047Y-91392857D01*
X104845238Y-91297619D01*
X104797619Y-91250000D01*
X104750000Y-91226190D01*
X104321428Y-91726190D02*
X104321428Y-91226190D01*
X104035714Y-91726190D01*
X104035714Y-91226190D01*
X103869047Y-91226190D02*
X103583333Y-91226190D01*
X103726190Y-91726190D02*
X103726190Y-91226190D01*
X103130952Y-91726190D02*
X103297619Y-91488095D01*
X103416666Y-91726190D02*
X103416666Y-91226190D01*
X103226190Y-91226190D01*
X103178571Y-91250000D01*
X103154761Y-91273809D01*
X103130952Y-91321428D01*
X103130952Y-91392857D01*
X103154761Y-91440476D01*
X103178571Y-91464285D01*
X103226190Y-91488095D01*
X103416666Y-91488095D01*
X102821428Y-91226190D02*
X102726190Y-91226190D01*
X102678571Y-91250000D01*
X102630952Y-91297619D01*
X102607142Y-91392857D01*
X102607142Y-91559523D01*
X102630952Y-91654761D01*
X102678571Y-91702380D01*
X102726190Y-91726190D01*
X102821428Y-91726190D01*
X102869047Y-91702380D01*
X102916666Y-91654761D01*
X102940476Y-91559523D01*
X102940476Y-91392857D01*
X102916666Y-91297619D01*
X102869047Y-91250000D01*
X102821428Y-91226190D01*
X102154761Y-91726190D02*
X102392857Y-91726190D01*
X102392857Y-91226190D01*
X101750000Y-91726190D02*
X101988095Y-91726190D01*
X101988095Y-91226190D01*
X101583333Y-91464285D02*
X101416666Y-91464285D01*
X101345238Y-91726190D02*
X101583333Y-91726190D01*
X101583333Y-91226190D01*
X101345238Y-91226190D01*
X100845238Y-91726190D02*
X101011904Y-91488095D01*
X101130952Y-91726190D02*
X101130952Y-91226190D01*
X100940476Y-91226190D01*
X100892857Y-91250000D01*
X100869047Y-91273809D01*
X100845238Y-91321428D01*
X100845238Y-91392857D01*
X100869047Y-91440476D01*
X100892857Y-91464285D01*
X100940476Y-91488095D01*
X101130952Y-91488095D01*
X100321428Y-91226190D02*
X100154761Y-91726190D01*
X99988095Y-91226190D01*
X99869047Y-91226190D02*
X99559523Y-91226190D01*
X99726190Y-91416666D01*
X99654761Y-91416666D01*
X99607142Y-91440476D01*
X99583333Y-91464285D01*
X99559523Y-91511904D01*
X99559523Y-91630952D01*
X99583333Y-91678571D01*
X99607142Y-91702380D01*
X99654761Y-91726190D01*
X99797619Y-91726190D01*
X99845238Y-91702380D01*
X99869047Y-91678571D01*
X98964285Y-91726190D02*
X98964285Y-91226190D01*
X98845238Y-91226190D01*
X98773809Y-91250000D01*
X98726190Y-91297619D01*
X98702380Y-91345238D01*
X98678571Y-91440476D01*
X98678571Y-91511904D01*
X98702380Y-91607142D01*
X98726190Y-91654761D01*
X98773809Y-91702380D01*
X98845238Y-91726190D01*
X98964285Y-91726190D01*
X98273809Y-91702380D02*
X98321428Y-91726190D01*
X98416666Y-91726190D01*
X98464285Y-91702380D01*
X98488095Y-91654761D01*
X98488095Y-91464285D01*
X98464285Y-91416666D01*
X98416666Y-91392857D01*
X98321428Y-91392857D01*
X98273809Y-91416666D01*
X98250000Y-91464285D01*
X98250000Y-91511904D01*
X98488095Y-91559523D01*
X98059523Y-91702380D02*
X98011904Y-91726190D01*
X97916666Y-91726190D01*
X97869047Y-91702380D01*
X97845238Y-91654761D01*
X97845238Y-91630952D01*
X97869047Y-91583333D01*
X97916666Y-91559523D01*
X97988095Y-91559523D01*
X98035714Y-91535714D01*
X98059523Y-91488095D01*
X98059523Y-91464285D01*
X98035714Y-91416666D01*
X97988095Y-91392857D01*
X97916666Y-91392857D01*
X97869047Y-91416666D01*
X97630952Y-91726190D02*
X97630952Y-91392857D01*
X97630952Y-91226190D02*
X97654761Y-91250000D01*
X97630952Y-91273809D01*
X97607142Y-91250000D01*
X97630952Y-91226190D01*
X97630952Y-91273809D01*
X97178571Y-91392857D02*
X97178571Y-91797619D01*
X97202380Y-91845238D01*
X97226190Y-91869047D01*
X97273809Y-91892857D01*
X97345238Y-91892857D01*
X97392857Y-91869047D01*
X97178571Y-91702380D02*
X97226190Y-91726190D01*
X97321428Y-91726190D01*
X97369047Y-91702380D01*
X97392857Y-91678571D01*
X97416666Y-91630952D01*
X97416666Y-91488095D01*
X97392857Y-91440476D01*
X97369047Y-91416666D01*
X97321428Y-91392857D01*
X97226190Y-91392857D01*
X97178571Y-91416666D01*
X96940476Y-91392857D02*
X96940476Y-91726190D01*
X96940476Y-91440476D02*
X96916666Y-91416666D01*
X96869047Y-91392857D01*
X96797619Y-91392857D01*
X96750000Y-91416666D01*
X96726190Y-91464285D01*
X96726190Y-91726190D01*
X96297619Y-91702380D02*
X96345238Y-91726190D01*
X96440476Y-91726190D01*
X96488095Y-91702380D01*
X96511904Y-91654761D01*
X96511904Y-91464285D01*
X96488095Y-91416666D01*
X96440476Y-91392857D01*
X96345238Y-91392857D01*
X96297619Y-91416666D01*
X96273809Y-91464285D01*
X96273809Y-91511904D01*
X96511904Y-91559523D01*
X95845238Y-91726190D02*
X95845238Y-91226190D01*
X95845238Y-91702380D02*
X95892857Y-91726190D01*
X95988095Y-91726190D01*
X96035714Y-91702380D01*
X96059523Y-91678571D01*
X96083333Y-91630952D01*
X96083333Y-91488095D01*
X96059523Y-91440476D01*
X96035714Y-91416666D01*
X95988095Y-91392857D01*
X95892857Y-91392857D01*
X95845238Y-91416666D01*
X95226190Y-91726190D02*
X95226190Y-91226190D01*
X95226190Y-91416666D02*
X95178571Y-91392857D01*
X95083333Y-91392857D01*
X95035714Y-91416666D01*
X95011904Y-91440476D01*
X94988095Y-91488095D01*
X94988095Y-91630952D01*
X95011904Y-91678571D01*
X95035714Y-91702380D01*
X95083333Y-91726190D01*
X95178571Y-91726190D01*
X95226190Y-91702380D01*
X94821428Y-91392857D02*
X94702380Y-91726190D01*
X94583333Y-91392857D02*
X94702380Y-91726190D01*
X94750000Y-91845238D01*
X94773809Y-91869047D01*
X94821428Y-91892857D01*
X93726190Y-91678571D02*
X93750000Y-91702380D01*
X93821428Y-91726190D01*
X93869047Y-91726190D01*
X93940476Y-91702380D01*
X93988095Y-91654761D01*
X94011904Y-91607142D01*
X94035714Y-91511904D01*
X94035714Y-91440476D01*
X94011904Y-91345238D01*
X93988095Y-91297619D01*
X93940476Y-91250000D01*
X93869047Y-91226190D01*
X93821428Y-91226190D01*
X93750000Y-91250000D01*
X93726190Y-91273809D01*
X93440476Y-91726190D02*
X93488095Y-91702380D01*
X93511904Y-91678571D01*
X93535714Y-91630952D01*
X93535714Y-91488095D01*
X93511904Y-91440476D01*
X93488095Y-91416666D01*
X93440476Y-91392857D01*
X93369047Y-91392857D01*
X93321428Y-91416666D01*
X93297619Y-91440476D01*
X93273809Y-91488095D01*
X93273809Y-91630952D01*
X93297619Y-91678571D01*
X93321428Y-91702380D01*
X93369047Y-91726190D01*
X93440476Y-91726190D01*
X93059523Y-91392857D02*
X93059523Y-91726190D01*
X93059523Y-91440476D02*
X93035714Y-91416666D01*
X92988095Y-91392857D01*
X92916666Y-91392857D01*
X92869047Y-91416666D01*
X92845238Y-91464285D01*
X92845238Y-91726190D01*
X92607142Y-91392857D02*
X92607142Y-91726190D01*
X92607142Y-91440476D02*
X92583333Y-91416666D01*
X92535714Y-91392857D01*
X92464285Y-91392857D01*
X92416666Y-91416666D01*
X92392857Y-91464285D01*
X92392857Y-91726190D01*
X92083333Y-91726190D02*
X92130952Y-91702380D01*
X92154761Y-91678571D01*
X92178571Y-91630952D01*
X92178571Y-91488095D01*
X92154761Y-91440476D01*
X92130952Y-91416666D01*
X92083333Y-91392857D01*
X92011904Y-91392857D01*
X91964285Y-91416666D01*
X91940476Y-91440476D01*
X91916666Y-91488095D01*
X91916666Y-91630952D01*
X91940476Y-91678571D01*
X91964285Y-91702380D01*
X92011904Y-91726190D01*
X92083333Y-91726190D01*
X91702380Y-91726190D02*
X91702380Y-91392857D01*
X91702380Y-91488095D02*
X91678571Y-91440476D01*
X91654761Y-91416666D01*
X91607142Y-91392857D01*
X91559523Y-91392857D01*
X90726190Y-91726190D02*
X90892857Y-91488095D01*
X91011904Y-91726190D02*
X91011904Y-91226190D01*
X90821428Y-91226190D01*
X90773809Y-91250000D01*
X90750000Y-91273809D01*
X90726190Y-91321428D01*
X90726190Y-91392857D01*
X90750000Y-91440476D01*
X90773809Y-91464285D01*
X90821428Y-91488095D01*
X91011904Y-91488095D01*
X90511904Y-91726190D02*
X90511904Y-91392857D01*
X90511904Y-91226190D02*
X90535714Y-91250000D01*
X90511904Y-91273809D01*
X90488095Y-91250000D01*
X90511904Y-91226190D01*
X90511904Y-91273809D01*
X90059523Y-91392857D02*
X90059523Y-91797619D01*
X90083333Y-91845238D01*
X90107142Y-91869047D01*
X90154761Y-91892857D01*
X90226190Y-91892857D01*
X90273809Y-91869047D01*
X90059523Y-91702380D02*
X90107142Y-91726190D01*
X90202380Y-91726190D01*
X90250000Y-91702380D01*
X90273809Y-91678571D01*
X90297619Y-91630952D01*
X90297619Y-91488095D01*
X90273809Y-91440476D01*
X90250000Y-91416666D01*
X90202380Y-91392857D01*
X90107142Y-91392857D01*
X90059523Y-91416666D01*
X89821428Y-91726190D02*
X89821428Y-91226190D01*
X89821428Y-91416666D02*
X89773809Y-91392857D01*
X89678571Y-91392857D01*
X89630952Y-91416666D01*
X89607142Y-91440476D01*
X89583333Y-91488095D01*
X89583333Y-91630952D01*
X89607142Y-91678571D01*
X89630952Y-91702380D01*
X89678571Y-91726190D01*
X89773809Y-91726190D01*
X89821428Y-91702380D01*
X89416666Y-91392857D02*
X89297619Y-91726190D01*
X89178571Y-91392857D02*
X89297619Y-91726190D01*
X89345238Y-91845238D01*
X89369047Y-91869047D01*
X89416666Y-91892857D01*
X88630952Y-91273809D02*
X88607142Y-91250000D01*
X88559523Y-91226190D01*
X88440476Y-91226190D01*
X88392857Y-91250000D01*
X88369047Y-91273809D01*
X88345238Y-91321428D01*
X88345238Y-91369047D01*
X88369047Y-91440476D01*
X88654761Y-91726190D01*
X88345238Y-91726190D01*
X88035714Y-91226190D02*
X87988095Y-91226190D01*
X87940476Y-91250000D01*
X87916666Y-91273809D01*
X87892857Y-91321428D01*
X87869047Y-91416666D01*
X87869047Y-91535714D01*
X87892857Y-91630952D01*
X87916666Y-91678571D01*
X87940476Y-91702380D01*
X87988095Y-91726190D01*
X88035714Y-91726190D01*
X88083333Y-91702380D01*
X88107142Y-91678571D01*
X88130952Y-91630952D01*
X88154761Y-91535714D01*
X88154761Y-91416666D01*
X88130952Y-91321428D01*
X88107142Y-91273809D01*
X88083333Y-91250000D01*
X88035714Y-91226190D01*
X87678571Y-91273809D02*
X87654761Y-91250000D01*
X87607142Y-91226190D01*
X87488095Y-91226190D01*
X87440476Y-91250000D01*
X87416666Y-91273809D01*
X87392857Y-91321428D01*
X87392857Y-91369047D01*
X87416666Y-91440476D01*
X87702380Y-91726190D01*
X87392857Y-91726190D01*
X87202380Y-91273809D02*
X87178571Y-91250000D01*
X87130952Y-91226190D01*
X87011904Y-91226190D01*
X86964285Y-91250000D01*
X86940476Y-91273809D01*
X86916666Y-91321428D01*
X86916666Y-91369047D01*
X86940476Y-91440476D01*
X87226190Y-91726190D01*
X86916666Y-91726190D01*
D11*
X80604285Y-49977380D02*
X81080476Y-49977380D01*
X81080476Y-48977380D01*
X80080476Y-48977380D02*
X79890000Y-48977380D01*
X79794761Y-49025000D01*
X79699523Y-49120238D01*
X79651904Y-49310714D01*
X79651904Y-49644047D01*
X79699523Y-49834523D01*
X79794761Y-49929761D01*
X79890000Y-49977380D01*
X80080476Y-49977380D01*
X80175714Y-49929761D01*
X80270952Y-49834523D01*
X80318571Y-49644047D01*
X80318571Y-49310714D01*
X80270952Y-49120238D01*
X80175714Y-49025000D01*
X80080476Y-48977380D01*
X79318571Y-48977380D02*
X79080476Y-49977380D01*
X78890000Y-49263095D01*
X78699523Y-49977380D01*
X78461428Y-48977380D01*
X77366190Y-49929761D02*
X77223333Y-49977380D01*
X76985238Y-49977380D01*
X76890000Y-49929761D01*
X76842380Y-49882142D01*
X76794761Y-49786904D01*
X76794761Y-49691666D01*
X76842380Y-49596428D01*
X76890000Y-49548809D01*
X76985238Y-49501190D01*
X77175714Y-49453571D01*
X77270952Y-49405952D01*
X77318571Y-49358333D01*
X77366190Y-49263095D01*
X77366190Y-49167857D01*
X77318571Y-49072619D01*
X77270952Y-49025000D01*
X77175714Y-48977380D01*
X76937619Y-48977380D01*
X76794761Y-49025000D01*
X76366190Y-49977380D02*
X76366190Y-48977380D01*
X75890000Y-49977380D02*
X75890000Y-48977380D01*
X75651904Y-48977380D01*
X75509047Y-49025000D01*
X75413809Y-49120238D01*
X75366190Y-49215476D01*
X75318571Y-49405952D01*
X75318571Y-49548809D01*
X75366190Y-49739285D01*
X75413809Y-49834523D01*
X75509047Y-49929761D01*
X75651904Y-49977380D01*
X75890000Y-49977380D01*
X74890000Y-49453571D02*
X74556666Y-49453571D01*
X74413809Y-49977380D02*
X74890000Y-49977380D01*
X74890000Y-48977380D01*
X74413809Y-48977380D01*
X80247142Y-51587380D02*
X80247142Y-50587380D01*
X80009047Y-50587380D01*
X79866190Y-50635000D01*
X79770952Y-50730238D01*
X79723333Y-50825476D01*
X79675714Y-51015952D01*
X79675714Y-51158809D01*
X79723333Y-51349285D01*
X79770952Y-51444523D01*
X79866190Y-51539761D01*
X80009047Y-51587380D01*
X80247142Y-51587380D01*
X78675714Y-51587380D02*
X79009047Y-51111190D01*
X79247142Y-51587380D02*
X79247142Y-50587380D01*
X78866190Y-50587380D01*
X78770952Y-50635000D01*
X78723333Y-50682619D01*
X78675714Y-50777857D01*
X78675714Y-50920714D01*
X78723333Y-51015952D01*
X78770952Y-51063571D01*
X78866190Y-51111190D01*
X79247142Y-51111190D01*
X78247142Y-51587380D02*
X78247142Y-50587380D01*
X77913809Y-50587380D02*
X77580476Y-51587380D01*
X77247142Y-50587380D01*
X76913809Y-51063571D02*
X76580476Y-51063571D01*
X76437619Y-51587380D02*
X76913809Y-51587380D01*
X76913809Y-50587380D01*
X76437619Y-50587380D01*
X75437619Y-51587380D02*
X75770952Y-51111190D01*
X76009047Y-51587380D02*
X76009047Y-50587380D01*
X75628095Y-50587380D01*
X75532857Y-50635000D01*
X75485238Y-50682619D01*
X75437619Y-50777857D01*
X75437619Y-50920714D01*
X75485238Y-51015952D01*
X75532857Y-51063571D01*
X75628095Y-51111190D01*
X76009047Y-51111190D01*
X75056666Y-51539761D02*
X74913809Y-51587380D01*
X74675714Y-51587380D01*
X74580476Y-51539761D01*
X74532857Y-51492142D01*
X74485238Y-51396904D01*
X74485238Y-51301666D01*
X74532857Y-51206428D01*
X74580476Y-51158809D01*
X74675714Y-51111190D01*
X74866190Y-51063571D01*
X74961428Y-51015952D01*
X75009047Y-50968333D01*
X75056666Y-50873095D01*
X75056666Y-50777857D01*
X75009047Y-50682619D01*
X74961428Y-50635000D01*
X74866190Y-50587380D01*
X74628095Y-50587380D01*
X74485238Y-50635000D01*
X50997619Y-49707142D02*
X51045238Y-49754761D01*
X51188095Y-49802380D01*
X51283333Y-49802380D01*
X51426190Y-49754761D01*
X51521428Y-49659523D01*
X51569047Y-49564285D01*
X51616666Y-49373809D01*
X51616666Y-49230952D01*
X51569047Y-49040476D01*
X51521428Y-48945238D01*
X51426190Y-48850000D01*
X51283333Y-48802380D01*
X51188095Y-48802380D01*
X51045238Y-48850000D01*
X50997619Y-48897619D01*
X50616666Y-49516666D02*
X50140476Y-49516666D01*
X50711904Y-49802380D02*
X50378571Y-48802380D01*
X50045238Y-49802380D01*
X49711904Y-49802380D02*
X49711904Y-48802380D01*
X49140476Y-49802380D01*
X49140476Y-48802380D01*
X48188095Y-49802380D02*
X48664285Y-49802380D01*
X48664285Y-48802380D01*
X38414285Y-47604761D02*
X38271428Y-47652380D01*
X38033333Y-47652380D01*
X37938095Y-47604761D01*
X37890476Y-47557142D01*
X37842857Y-47461904D01*
X37842857Y-47366666D01*
X37890476Y-47271428D01*
X37938095Y-47223809D01*
X38033333Y-47176190D01*
X38223809Y-47128571D01*
X38319047Y-47080952D01*
X38366666Y-47033333D01*
X38414285Y-46938095D01*
X38414285Y-46842857D01*
X38366666Y-46747619D01*
X38319047Y-46700000D01*
X38223809Y-46652380D01*
X37985714Y-46652380D01*
X37842857Y-46700000D01*
X37414285Y-47652380D02*
X37414285Y-46652380D01*
X37176190Y-46652380D01*
X37033333Y-46700000D01*
X36938095Y-46795238D01*
X36890476Y-46890476D01*
X36842857Y-47080952D01*
X36842857Y-47223809D01*
X36890476Y-47414285D01*
X36938095Y-47509523D01*
X37033333Y-47604761D01*
X37176190Y-47652380D01*
X37414285Y-47652380D01*
X36461904Y-47366666D02*
X35985714Y-47366666D01*
X36557142Y-47652380D02*
X36223809Y-46652380D01*
X35890476Y-47652380D01*
X34050000Y-47652380D02*
X34050000Y-46652380D01*
X33383333Y-46652380D02*
X33192857Y-46652380D01*
X33097619Y-46700000D01*
X33002380Y-46795238D01*
X32954761Y-46985714D01*
X32954761Y-47319047D01*
X33002380Y-47509523D01*
X33097619Y-47604761D01*
X33192857Y-47652380D01*
X33383333Y-47652380D01*
X33478571Y-47604761D01*
X33573809Y-47509523D01*
X33621428Y-47319047D01*
X33621428Y-46985714D01*
X33573809Y-46795238D01*
X33478571Y-46700000D01*
X33383333Y-46652380D01*
X32050000Y-46652380D02*
X32526190Y-46652380D01*
X32573809Y-47128571D01*
X32526190Y-47080952D01*
X32430952Y-47033333D01*
X32192857Y-47033333D01*
X32097619Y-47080952D01*
X32050000Y-47128571D01*
X32002380Y-47223809D01*
X32002380Y-47461904D01*
X32050000Y-47557142D01*
X32097619Y-47604761D01*
X32192857Y-47652380D01*
X32430952Y-47652380D01*
X32526190Y-47604761D01*
X32573809Y-47557142D01*
X97983333Y-38477620D02*
X97983333Y-39477620D01*
X98316666Y-38763334D01*
X98650000Y-39477620D01*
X98650000Y-38477620D01*
X99650000Y-38477620D02*
X99078571Y-38477620D01*
X99364285Y-38477620D02*
X99364285Y-39477620D01*
X99269047Y-39334762D01*
X99173809Y-39239524D01*
X99078571Y-39191905D01*
X100792857Y-39382381D02*
X100840476Y-39430001D01*
X100935714Y-39477620D01*
X101173809Y-39477620D01*
X101269047Y-39430001D01*
X101316666Y-39382381D01*
X101364285Y-39287143D01*
X101364285Y-39191905D01*
X101316666Y-39049048D01*
X100745238Y-38477620D01*
X101364285Y-38477620D01*
X104832857Y-36861428D02*
X104975714Y-36813809D01*
X105023333Y-36766190D01*
X105070952Y-36670952D01*
X105070952Y-36528095D01*
X105023333Y-36432857D01*
X104975714Y-36385238D01*
X104880476Y-36337619D01*
X104499523Y-36337619D01*
X104499523Y-37337619D01*
X104832857Y-37337619D01*
X104928095Y-37290000D01*
X104975714Y-37242380D01*
X105023333Y-37147142D01*
X105023333Y-37051904D01*
X104975714Y-36956666D01*
X104928095Y-36909047D01*
X104832857Y-36861428D01*
X104499523Y-36861428D01*
X105975714Y-36337619D02*
X105499523Y-36337619D01*
X105499523Y-37337619D01*
X106309047Y-37337619D02*
X106309047Y-36528095D01*
X106356666Y-36432857D01*
X106404285Y-36385238D01*
X106499523Y-36337619D01*
X106690000Y-36337619D01*
X106785238Y-36385238D01*
X106832857Y-36432857D01*
X106880476Y-36528095D01*
X106880476Y-37337619D01*
X91451904Y-37140000D02*
X91356666Y-37187619D01*
X91213809Y-37187619D01*
X91070952Y-37140000D01*
X90975714Y-37044761D01*
X90928095Y-36949523D01*
X90880476Y-36759047D01*
X90880476Y-36616190D01*
X90928095Y-36425714D01*
X90975714Y-36330476D01*
X91070952Y-36235238D01*
X91213809Y-36187619D01*
X91309047Y-36187619D01*
X91451904Y-36235238D01*
X91499523Y-36282857D01*
X91499523Y-36616190D01*
X91309047Y-36616190D01*
X91928095Y-36187619D02*
X91928095Y-37187619D01*
X92309047Y-37187619D01*
X92404285Y-37140000D01*
X92451904Y-37092380D01*
X92499523Y-36997142D01*
X92499523Y-36854285D01*
X92451904Y-36759047D01*
X92404285Y-36711428D01*
X92309047Y-36663809D01*
X91928095Y-36663809D01*
X93118571Y-37187619D02*
X93309047Y-37187619D01*
X93404285Y-37140000D01*
X93499523Y-37044761D01*
X93547142Y-36854285D01*
X93547142Y-36520952D01*
X93499523Y-36330476D01*
X93404285Y-36235238D01*
X93309047Y-36187619D01*
X93118571Y-36187619D01*
X93023333Y-36235238D01*
X92928095Y-36330476D01*
X92880476Y-36520952D01*
X92880476Y-36854285D01*
X92928095Y-37044761D01*
X93023333Y-37140000D01*
X93118571Y-37187619D01*
X94023333Y-36187619D02*
X94213809Y-36187619D01*
X94309047Y-36235238D01*
X94356666Y-36282857D01*
X94451904Y-36425714D01*
X94499523Y-36616190D01*
X94499523Y-36997142D01*
X94451904Y-37092380D01*
X94404285Y-37140000D01*
X94309047Y-37187619D01*
X94118571Y-37187619D01*
X94023333Y-37140000D01*
X93975714Y-37092380D01*
X93928095Y-36997142D01*
X93928095Y-36759047D01*
X93975714Y-36663809D01*
X94023333Y-36616190D01*
X94118571Y-36568571D01*
X94309047Y-36568571D01*
X94404285Y-36616190D01*
X94451904Y-36663809D01*
X94499523Y-36759047D01*
X29861904Y-46750000D02*
X29957142Y-46702380D01*
X30100000Y-46702380D01*
X30242857Y-46750000D01*
X30338095Y-46845238D01*
X30385714Y-46940476D01*
X30433333Y-47130952D01*
X30433333Y-47273809D01*
X30385714Y-47464285D01*
X30338095Y-47559523D01*
X30242857Y-47654761D01*
X30100000Y-47702380D01*
X30004761Y-47702380D01*
X29861904Y-47654761D01*
X29814285Y-47607142D01*
X29814285Y-47273809D01*
X30004761Y-47273809D01*
X29385714Y-47702380D02*
X29385714Y-46702380D01*
X28814285Y-47702380D01*
X28814285Y-46702380D01*
X28338095Y-47702380D02*
X28338095Y-46702380D01*
X28100000Y-46702380D01*
X27957142Y-46750000D01*
X27861904Y-46845238D01*
X27814285Y-46940476D01*
X27766666Y-47130952D01*
X27766666Y-47273809D01*
X27814285Y-47464285D01*
X27861904Y-47559523D01*
X27957142Y-47654761D01*
X28100000Y-47702380D01*
X28338095Y-47702380D01*
X100498094Y-37240000D02*
X100402856Y-37287619D01*
X100259999Y-37287619D01*
X100117141Y-37240000D01*
X100021903Y-37144761D01*
X99974284Y-37049523D01*
X99926665Y-36859047D01*
X99926665Y-36716190D01*
X99974284Y-36525714D01*
X100021903Y-36430476D01*
X100117141Y-36335238D01*
X100259999Y-36287619D01*
X100355237Y-36287619D01*
X100498094Y-36335238D01*
X100545713Y-36382857D01*
X100545713Y-36716190D01*
X100355237Y-36716190D01*
X101545713Y-36287619D02*
X101212379Y-36763809D01*
X100974284Y-36287619D02*
X100974284Y-37287619D01*
X101355237Y-37287619D01*
X101450475Y-37240000D01*
X101498094Y-37192380D01*
X101545713Y-37097142D01*
X101545713Y-36954285D01*
X101498094Y-36859047D01*
X101450475Y-36811428D01*
X101355237Y-36763809D01*
X100974284Y-36763809D01*
X101974284Y-36287619D02*
X101974284Y-37287619D01*
X102545713Y-36287619D01*
X102545713Y-37287619D01*
D12*
X37457618Y-73896190D02*
X37457618Y-73396190D01*
X37243332Y-73896190D02*
X37243332Y-73634285D01*
X37267141Y-73586666D01*
X37314760Y-73562857D01*
X37386189Y-73562857D01*
X37433808Y-73586666D01*
X37457618Y-73610476D01*
X37076665Y-73562857D02*
X36886189Y-73562857D01*
X37005237Y-73396190D02*
X37005237Y-73824761D01*
X36981427Y-73872380D01*
X36933808Y-73896190D01*
X36886189Y-73896190D01*
X36790951Y-73562857D02*
X36600475Y-73562857D01*
X36719522Y-73396190D02*
X36719522Y-73824761D01*
X36695713Y-73872380D01*
X36648094Y-73896190D01*
X36600475Y-73896190D01*
X36433808Y-73562857D02*
X36433808Y-74062857D01*
X36433808Y-73586666D02*
X36386189Y-73562857D01*
X36290951Y-73562857D01*
X36243332Y-73586666D01*
X36219522Y-73610476D01*
X36195713Y-73658095D01*
X36195713Y-73800952D01*
X36219522Y-73848571D01*
X36243332Y-73872380D01*
X36290951Y-73896190D01*
X36386189Y-73896190D01*
X36433808Y-73872380D01*
X36005237Y-73872380D02*
X35957618Y-73896190D01*
X35862379Y-73896190D01*
X35814760Y-73872380D01*
X35790951Y-73824761D01*
X35790951Y-73800952D01*
X35814760Y-73753333D01*
X35862379Y-73729523D01*
X35933808Y-73729523D01*
X35981427Y-73705714D01*
X36005237Y-73658095D01*
X36005237Y-73634285D01*
X35981427Y-73586666D01*
X35933808Y-73562857D01*
X35862379Y-73562857D01*
X35814760Y-73586666D01*
X35576665Y-73848571D02*
X35552856Y-73872380D01*
X35576665Y-73896190D01*
X35600475Y-73872380D01*
X35576665Y-73848571D01*
X35576665Y-73896190D01*
X35576665Y-73586666D02*
X35552856Y-73610476D01*
X35576665Y-73634285D01*
X35600475Y-73610476D01*
X35576665Y-73586666D01*
X35576665Y-73634285D01*
X34981427Y-73372380D02*
X35409999Y-74015238D01*
X34457618Y-73372380D02*
X34886189Y-74015238D01*
X34076665Y-73872380D02*
X34124284Y-73896190D01*
X34219522Y-73896190D01*
X34267141Y-73872380D01*
X34290951Y-73848571D01*
X34314760Y-73800952D01*
X34314760Y-73658095D01*
X34290951Y-73610476D01*
X34267141Y-73586666D01*
X34219522Y-73562857D01*
X34124284Y-73562857D01*
X34076665Y-73586666D01*
X33790951Y-73896190D02*
X33838570Y-73872380D01*
X33862379Y-73848571D01*
X33886189Y-73800952D01*
X33886189Y-73658095D01*
X33862379Y-73610476D01*
X33838570Y-73586666D01*
X33790951Y-73562857D01*
X33719522Y-73562857D01*
X33671903Y-73586666D01*
X33648094Y-73610476D01*
X33624284Y-73658095D01*
X33624284Y-73800952D01*
X33648094Y-73848571D01*
X33671903Y-73872380D01*
X33719522Y-73896190D01*
X33790951Y-73896190D01*
X33409999Y-73562857D02*
X33409999Y-73896190D01*
X33409999Y-73610476D02*
X33386189Y-73586666D01*
X33338570Y-73562857D01*
X33267141Y-73562857D01*
X33219522Y-73586666D01*
X33195713Y-73634285D01*
X33195713Y-73896190D01*
X32767141Y-73872380D02*
X32814760Y-73896190D01*
X32909999Y-73896190D01*
X32957618Y-73872380D01*
X32981427Y-73824761D01*
X32981427Y-73634285D01*
X32957618Y-73586666D01*
X32909999Y-73562857D01*
X32814760Y-73562857D01*
X32767141Y-73586666D01*
X32743332Y-73634285D01*
X32743332Y-73681904D01*
X32981427Y-73729523D01*
X32529046Y-73848571D02*
X32505237Y-73872380D01*
X32529046Y-73896190D01*
X32552856Y-73872380D01*
X32529046Y-73848571D01*
X32529046Y-73896190D01*
X32076665Y-73872380D02*
X32124284Y-73896190D01*
X32219522Y-73896190D01*
X32267141Y-73872380D01*
X32290951Y-73848571D01*
X32314760Y-73800952D01*
X32314760Y-73658095D01*
X32290951Y-73610476D01*
X32267141Y-73586666D01*
X32219522Y-73562857D01*
X32124284Y-73562857D01*
X32076665Y-73586666D01*
X31790951Y-73896190D02*
X31838570Y-73872380D01*
X31862379Y-73848571D01*
X31886189Y-73800952D01*
X31886189Y-73658095D01*
X31862379Y-73610476D01*
X31838570Y-73586666D01*
X31790951Y-73562857D01*
X31719522Y-73562857D01*
X31671903Y-73586666D01*
X31648094Y-73610476D01*
X31624284Y-73658095D01*
X31624284Y-73800952D01*
X31648094Y-73848571D01*
X31671903Y-73872380D01*
X31719522Y-73896190D01*
X31790951Y-73896190D01*
X31195713Y-73896190D02*
X31195713Y-73396190D01*
X31195713Y-73872380D02*
X31243332Y-73896190D01*
X31338570Y-73896190D01*
X31386189Y-73872380D01*
X31409999Y-73848571D01*
X31433808Y-73800952D01*
X31433808Y-73658095D01*
X31409999Y-73610476D01*
X31386189Y-73586666D01*
X31338570Y-73562857D01*
X31243332Y-73562857D01*
X31195713Y-73586666D01*
X30767141Y-73872380D02*
X30814760Y-73896190D01*
X30909999Y-73896190D01*
X30957618Y-73872380D01*
X30981427Y-73824761D01*
X30981427Y-73634285D01*
X30957618Y-73586666D01*
X30909999Y-73562857D01*
X30814760Y-73562857D01*
X30767141Y-73586666D01*
X30743332Y-73634285D01*
X30743332Y-73681904D01*
X30981427Y-73729523D01*
X30552856Y-73872380D02*
X30505237Y-73896190D01*
X30409999Y-73896190D01*
X30362379Y-73872380D01*
X30338570Y-73824761D01*
X30338570Y-73800952D01*
X30362379Y-73753333D01*
X30409999Y-73729523D01*
X30481427Y-73729523D01*
X30529046Y-73705714D01*
X30552856Y-73658095D01*
X30552856Y-73634285D01*
X30529046Y-73586666D01*
X30481427Y-73562857D01*
X30409999Y-73562857D01*
X30362379Y-73586666D01*
X37407142Y-91826190D02*
X37407142Y-91326190D01*
X37192857Y-91826190D02*
X37192857Y-91564285D01*
X37216666Y-91516666D01*
X37264285Y-91492857D01*
X37335714Y-91492857D01*
X37383333Y-91516666D01*
X37407142Y-91540476D01*
X37026190Y-91492857D02*
X36835714Y-91492857D01*
X36954761Y-91326190D02*
X36954761Y-91754761D01*
X36930952Y-91802380D01*
X36883333Y-91826190D01*
X36835714Y-91826190D01*
X36740476Y-91492857D02*
X36550000Y-91492857D01*
X36669047Y-91326190D02*
X36669047Y-91754761D01*
X36645238Y-91802380D01*
X36597619Y-91826190D01*
X36550000Y-91826190D01*
X36383333Y-91492857D02*
X36383333Y-91992857D01*
X36383333Y-91516666D02*
X36335714Y-91492857D01*
X36240476Y-91492857D01*
X36192857Y-91516666D01*
X36169047Y-91540476D01*
X36145238Y-91588095D01*
X36145238Y-91730952D01*
X36169047Y-91778571D01*
X36192857Y-91802380D01*
X36240476Y-91826190D01*
X36335714Y-91826190D01*
X36383333Y-91802380D01*
X35954761Y-91802380D02*
X35907142Y-91826190D01*
X35811904Y-91826190D01*
X35764285Y-91802380D01*
X35740476Y-91754761D01*
X35740476Y-91730952D01*
X35764285Y-91683333D01*
X35811904Y-91659523D01*
X35883333Y-91659523D01*
X35930952Y-91635714D01*
X35954761Y-91588095D01*
X35954761Y-91564285D01*
X35930952Y-91516666D01*
X35883333Y-91492857D01*
X35811904Y-91492857D01*
X35764285Y-91516666D01*
X35526190Y-91778571D02*
X35502380Y-91802380D01*
X35526190Y-91826190D01*
X35550000Y-91802380D01*
X35526190Y-91778571D01*
X35526190Y-91826190D01*
X35526190Y-91516666D02*
X35502380Y-91540476D01*
X35526190Y-91564285D01*
X35550000Y-91540476D01*
X35526190Y-91516666D01*
X35526190Y-91564285D01*
X34930952Y-91302380D02*
X35359523Y-91945238D01*
X34407142Y-91302380D02*
X34835714Y-91945238D01*
X34026190Y-91492857D02*
X34026190Y-91897619D01*
X34050000Y-91945238D01*
X34073809Y-91969047D01*
X34121428Y-91992857D01*
X34192857Y-91992857D01*
X34240476Y-91969047D01*
X34026190Y-91802380D02*
X34073809Y-91826190D01*
X34169047Y-91826190D01*
X34216666Y-91802380D01*
X34240476Y-91778571D01*
X34264285Y-91730952D01*
X34264285Y-91588095D01*
X34240476Y-91540476D01*
X34216666Y-91516666D01*
X34169047Y-91492857D01*
X34073809Y-91492857D01*
X34026190Y-91516666D01*
X33788095Y-91826190D02*
X33788095Y-91492857D01*
X33788095Y-91326190D02*
X33811904Y-91350000D01*
X33788095Y-91373809D01*
X33764285Y-91350000D01*
X33788095Y-91326190D01*
X33788095Y-91373809D01*
X33621428Y-91492857D02*
X33430952Y-91492857D01*
X33550000Y-91326190D02*
X33550000Y-91754761D01*
X33526190Y-91802380D01*
X33478571Y-91826190D01*
X33430952Y-91826190D01*
X33264285Y-91826190D02*
X33264285Y-91326190D01*
X33050000Y-91826190D02*
X33050000Y-91564285D01*
X33073809Y-91516666D01*
X33121428Y-91492857D01*
X33192857Y-91492857D01*
X33240476Y-91516666D01*
X33264285Y-91540476D01*
X32597619Y-91492857D02*
X32597619Y-91826190D01*
X32811904Y-91492857D02*
X32811904Y-91754761D01*
X32788095Y-91802380D01*
X32740476Y-91826190D01*
X32669047Y-91826190D01*
X32621428Y-91802380D01*
X32597619Y-91778571D01*
X32359523Y-91826190D02*
X32359523Y-91326190D01*
X32359523Y-91516666D02*
X32311904Y-91492857D01*
X32216666Y-91492857D01*
X32169047Y-91516666D01*
X32145238Y-91540476D01*
X32121428Y-91588095D01*
X32121428Y-91730952D01*
X32145238Y-91778571D01*
X32169047Y-91802380D01*
X32216666Y-91826190D01*
X32311904Y-91826190D01*
X32359523Y-91802380D01*
X31907142Y-91778571D02*
X31883333Y-91802380D01*
X31907142Y-91826190D01*
X31930952Y-91802380D01*
X31907142Y-91778571D01*
X31907142Y-91826190D01*
X31454761Y-91802380D02*
X31502380Y-91826190D01*
X31597619Y-91826190D01*
X31645238Y-91802380D01*
X31669047Y-91778571D01*
X31692857Y-91730952D01*
X31692857Y-91588095D01*
X31669047Y-91540476D01*
X31645238Y-91516666D01*
X31597619Y-91492857D01*
X31502380Y-91492857D01*
X31454761Y-91516666D01*
X31169047Y-91826190D02*
X31216666Y-91802380D01*
X31240476Y-91778571D01*
X31264285Y-91730952D01*
X31264285Y-91588095D01*
X31240476Y-91540476D01*
X31216666Y-91516666D01*
X31169047Y-91492857D01*
X31097619Y-91492857D01*
X31050000Y-91516666D01*
X31026190Y-91540476D01*
X31002380Y-91588095D01*
X31002380Y-91730952D01*
X31026190Y-91778571D01*
X31050000Y-91802380D01*
X31097619Y-91826190D01*
X31169047Y-91826190D01*
X30788095Y-91826190D02*
X30788095Y-91492857D01*
X30788095Y-91540476D02*
X30764285Y-91516666D01*
X30716666Y-91492857D01*
X30645238Y-91492857D01*
X30597619Y-91516666D01*
X30573809Y-91564285D01*
X30573809Y-91826190D01*
X30573809Y-91564285D02*
X30550000Y-91516666D01*
X30502380Y-91492857D01*
X30430952Y-91492857D01*
X30383333Y-91516666D01*
X30359523Y-91564285D01*
X30359523Y-91826190D01*
X29764285Y-91302380D02*
X30192857Y-91945238D01*
X29311904Y-91778571D02*
X29335714Y-91802380D01*
X29407142Y-91826190D01*
X29454761Y-91826190D01*
X29526190Y-91802380D01*
X29573809Y-91754761D01*
X29597619Y-91707142D01*
X29621428Y-91611904D01*
X29621428Y-91540476D01*
X29597619Y-91445238D01*
X29573809Y-91397619D01*
X29526190Y-91350000D01*
X29454761Y-91326190D01*
X29407142Y-91326190D01*
X29335714Y-91350000D01*
X29311904Y-91373809D01*
X29026190Y-91826190D02*
X29073809Y-91802380D01*
X29097619Y-91778571D01*
X29121428Y-91730952D01*
X29121428Y-91588095D01*
X29097619Y-91540476D01*
X29073809Y-91516666D01*
X29026190Y-91492857D01*
X28954761Y-91492857D01*
X28907142Y-91516666D01*
X28883333Y-91540476D01*
X28859523Y-91588095D01*
X28859523Y-91730952D01*
X28883333Y-91778571D01*
X28907142Y-91802380D01*
X28954761Y-91826190D01*
X29026190Y-91826190D01*
X28645238Y-91492857D02*
X28645238Y-91826190D01*
X28645238Y-91540476D02*
X28621428Y-91516666D01*
X28573809Y-91492857D01*
X28502380Y-91492857D01*
X28454761Y-91516666D01*
X28430952Y-91564285D01*
X28430952Y-91826190D01*
X28192857Y-91492857D02*
X28192857Y-91826190D01*
X28192857Y-91540476D02*
X28169047Y-91516666D01*
X28121428Y-91492857D01*
X28050000Y-91492857D01*
X28002380Y-91516666D01*
X27978571Y-91564285D01*
X27978571Y-91826190D01*
X27669047Y-91826190D02*
X27716666Y-91802380D01*
X27740476Y-91778571D01*
X27764285Y-91730952D01*
X27764285Y-91588095D01*
X27740476Y-91540476D01*
X27716666Y-91516666D01*
X27669047Y-91492857D01*
X27597619Y-91492857D01*
X27550000Y-91516666D01*
X27526190Y-91540476D01*
X27502380Y-91588095D01*
X27502380Y-91730952D01*
X27526190Y-91778571D01*
X27550000Y-91802380D01*
X27597619Y-91826190D01*
X27669047Y-91826190D01*
X27288095Y-91826190D02*
X27288095Y-91492857D01*
X27288095Y-91588095D02*
X27264285Y-91540476D01*
X27240476Y-91516666D01*
X27192857Y-91492857D01*
X27145238Y-91492857D01*
X26692857Y-91826190D02*
X26859523Y-91588095D01*
X26978571Y-91826190D02*
X26978571Y-91326190D01*
X26788095Y-91326190D01*
X26740476Y-91350000D01*
X26716666Y-91373809D01*
X26692857Y-91421428D01*
X26692857Y-91492857D01*
X26716666Y-91540476D01*
X26740476Y-91564285D01*
X26788095Y-91588095D01*
X26978571Y-91588095D01*
X26478571Y-91826190D02*
X26478571Y-91492857D01*
X26478571Y-91326190D02*
X26502380Y-91350000D01*
X26478571Y-91373809D01*
X26454761Y-91350000D01*
X26478571Y-91326190D01*
X26478571Y-91373809D01*
X26026190Y-91492857D02*
X26026190Y-91897619D01*
X26050000Y-91945238D01*
X26073809Y-91969047D01*
X26121428Y-91992857D01*
X26192857Y-91992857D01*
X26240476Y-91969047D01*
X26026190Y-91802380D02*
X26073809Y-91826190D01*
X26169047Y-91826190D01*
X26216666Y-91802380D01*
X26240476Y-91778571D01*
X26264285Y-91730952D01*
X26264285Y-91588095D01*
X26240476Y-91540476D01*
X26216666Y-91516666D01*
X26169047Y-91492857D01*
X26073809Y-91492857D01*
X26026190Y-91516666D01*
X25788095Y-91826190D02*
X25788095Y-91326190D01*
X25788095Y-91516666D02*
X25740476Y-91492857D01*
X25645238Y-91492857D01*
X25597619Y-91516666D01*
X25573809Y-91540476D01*
X25550000Y-91588095D01*
X25550000Y-91730952D01*
X25573809Y-91778571D01*
X25597619Y-91802380D01*
X25645238Y-91826190D01*
X25740476Y-91826190D01*
X25788095Y-91802380D01*
X25383333Y-91492857D02*
X25264285Y-91826190D01*
X25145238Y-91492857D02*
X25264285Y-91826190D01*
X25311904Y-91945238D01*
X25335714Y-91969047D01*
X25383333Y-91992857D01*
D11*
X33390476Y-48852380D02*
X33866666Y-48852380D01*
X33914285Y-49328571D01*
X33866666Y-49280952D01*
X33771428Y-49233333D01*
X33533333Y-49233333D01*
X33438095Y-49280952D01*
X33390476Y-49328571D01*
X33342857Y-49423809D01*
X33342857Y-49661904D01*
X33390476Y-49757142D01*
X33438095Y-49804761D01*
X33533333Y-49852380D01*
X33771428Y-49852380D01*
X33866666Y-49804761D01*
X33914285Y-49757142D01*
X33057142Y-48852380D02*
X32723809Y-49852380D01*
X32390476Y-48852380D01*
X89153334Y-38457619D02*
X89153334Y-39457619D01*
X89486667Y-38743333D01*
X89820001Y-39457619D01*
X89820001Y-38457619D01*
X90248572Y-39362380D02*
X90296191Y-39410000D01*
X90391429Y-39457619D01*
X90629524Y-39457619D01*
X90724762Y-39410000D01*
X90772381Y-39362380D01*
X90820001Y-39267142D01*
X90820001Y-39171904D01*
X90772381Y-39029047D01*
X90200953Y-38457619D01*
X90820001Y-38457619D01*
X91962858Y-39362380D02*
X92010477Y-39410000D01*
X92105715Y-39457619D01*
X92343810Y-39457619D01*
X92439048Y-39410000D01*
X92486667Y-39362380D01*
X92534286Y-39267142D01*
X92534286Y-39171904D01*
X92486667Y-39029047D01*
X91915239Y-38457619D01*
X92534286Y-38457619D01*
X50116666Y-47602380D02*
X50450000Y-47126190D01*
X50688095Y-47602380D02*
X50688095Y-46602380D01*
X50307142Y-46602380D01*
X50211904Y-46650000D01*
X50164285Y-46697619D01*
X50116666Y-46792857D01*
X50116666Y-46935714D01*
X50164285Y-47030952D01*
X50211904Y-47078571D01*
X50307142Y-47126190D01*
X50688095Y-47126190D01*
X49783333Y-46602380D02*
X49116666Y-47602380D01*
X49116666Y-46602380D02*
X49783333Y-47602380D01*
X46561904Y-46602380D02*
X45990476Y-46602380D01*
X46276190Y-47602380D02*
X46276190Y-46602380D01*
X45752380Y-46602380D02*
X45085714Y-47602380D01*
X45085714Y-46602380D02*
X45752380Y-47602380D01*
%TO.C,U4*%
X84242380Y-77235595D02*
X85051904Y-77235595D01*
X85147142Y-77283214D01*
X85194761Y-77330833D01*
X85242380Y-77426071D01*
X85242380Y-77616547D01*
X85194761Y-77711785D01*
X85147142Y-77759404D01*
X85051904Y-77807023D01*
X84242380Y-77807023D01*
X84575714Y-78711785D02*
X85242380Y-78711785D01*
X84194761Y-78473690D02*
X84909047Y-78235595D01*
X84909047Y-78854642D01*
%TO.C,Q7*%
X92847619Y-57129761D02*
X92800000Y-57034523D01*
X92704761Y-56939285D01*
X92561904Y-56796428D01*
X92514285Y-56701190D01*
X92514285Y-56605952D01*
X92752380Y-56653571D02*
X92704761Y-56558333D01*
X92609523Y-56463095D01*
X92419047Y-56415476D01*
X92085714Y-56415476D01*
X91895238Y-56463095D01*
X91800000Y-56558333D01*
X91752380Y-56653571D01*
X91752380Y-56844047D01*
X91800000Y-56939285D01*
X91895238Y-57034523D01*
X92085714Y-57082142D01*
X92419047Y-57082142D01*
X92609523Y-57034523D01*
X92704761Y-56939285D01*
X92752380Y-56844047D01*
X92752380Y-56653571D01*
X91752380Y-57415476D02*
X91752380Y-58082142D01*
X92752380Y-57653571D01*
%TO.C,Q5*%
X103897619Y-57129761D02*
X103850000Y-57034523D01*
X103754761Y-56939285D01*
X103611904Y-56796428D01*
X103564285Y-56701190D01*
X103564285Y-56605952D01*
X103802380Y-56653571D02*
X103754761Y-56558333D01*
X103659523Y-56463095D01*
X103469047Y-56415476D01*
X103135714Y-56415476D01*
X102945238Y-56463095D01*
X102850000Y-56558333D01*
X102802380Y-56653571D01*
X102802380Y-56844047D01*
X102850000Y-56939285D01*
X102945238Y-57034523D01*
X103135714Y-57082142D01*
X103469047Y-57082142D01*
X103659523Y-57034523D01*
X103754761Y-56939285D01*
X103802380Y-56844047D01*
X103802380Y-56653571D01*
X102802380Y-57986904D02*
X102802380Y-57510714D01*
X103278571Y-57463095D01*
X103230952Y-57510714D01*
X103183333Y-57605952D01*
X103183333Y-57844047D01*
X103230952Y-57939285D01*
X103278571Y-57986904D01*
X103373809Y-58034523D01*
X103611904Y-58034523D01*
X103707142Y-57986904D01*
X103754761Y-57939285D01*
X103802380Y-57844047D01*
X103802380Y-57605952D01*
X103754761Y-57510714D01*
X103707142Y-57463095D01*
%TO.C,U310*%
X44818794Y-81925940D02*
X44818794Y-82737593D01*
X44771050Y-82833082D01*
X44723305Y-82880826D01*
X44627817Y-82928570D01*
X44436840Y-82928570D01*
X44341351Y-82880826D01*
X44293607Y-82833082D01*
X44245862Y-82737593D01*
X44245862Y-81925940D01*
X43863908Y-81925940D02*
X43243232Y-81925940D01*
X43577442Y-82307895D01*
X43434210Y-82307895D01*
X43338721Y-82355639D01*
X43290977Y-82403383D01*
X43243232Y-82498872D01*
X43243232Y-82737593D01*
X43290977Y-82833082D01*
X43338721Y-82880826D01*
X43434210Y-82928570D01*
X43720675Y-82928570D01*
X43816164Y-82880826D01*
X43863908Y-82833082D01*
X42288347Y-82928570D02*
X42861278Y-82928570D01*
X42574812Y-82928570D02*
X42574812Y-81925940D01*
X42670301Y-82069173D01*
X42765790Y-82164662D01*
X42861278Y-82212406D01*
X41667671Y-81925940D02*
X41572182Y-81925940D01*
X41476694Y-81973685D01*
X41428950Y-82021429D01*
X41381205Y-82116917D01*
X41333461Y-82307895D01*
X41333461Y-82546616D01*
X41381205Y-82737593D01*
X41428950Y-82833082D01*
X41476694Y-82880826D01*
X41572182Y-82928570D01*
X41667671Y-82928570D01*
X41763160Y-82880826D01*
X41810904Y-82833082D01*
X41858648Y-82737593D01*
X41906392Y-82546616D01*
X41906392Y-82307895D01*
X41858648Y-82116917D01*
X41810904Y-82021429D01*
X41763160Y-81973685D01*
X41667671Y-81925940D01*
%TO.C,C302*%
X31769047Y-85257142D02*
X31816666Y-85304761D01*
X31959523Y-85352380D01*
X32054761Y-85352380D01*
X32197619Y-85304761D01*
X32292857Y-85209523D01*
X32340476Y-85114285D01*
X32388095Y-84923809D01*
X32388095Y-84780952D01*
X32340476Y-84590476D01*
X32292857Y-84495238D01*
X32197619Y-84400000D01*
X32054761Y-84352380D01*
X31959523Y-84352380D01*
X31816666Y-84400000D01*
X31769047Y-84447619D01*
X31435714Y-84352380D02*
X30816666Y-84352380D01*
X31150000Y-84733333D01*
X31007142Y-84733333D01*
X30911904Y-84780952D01*
X30864285Y-84828571D01*
X30816666Y-84923809D01*
X30816666Y-85161904D01*
X30864285Y-85257142D01*
X30911904Y-85304761D01*
X31007142Y-85352380D01*
X31292857Y-85352380D01*
X31388095Y-85304761D01*
X31435714Y-85257142D01*
X30197619Y-84352380D02*
X30102380Y-84352380D01*
X30007142Y-84400000D01*
X29959523Y-84447619D01*
X29911904Y-84542857D01*
X29864285Y-84733333D01*
X29864285Y-84971428D01*
X29911904Y-85161904D01*
X29959523Y-85257142D01*
X30007142Y-85304761D01*
X30102380Y-85352380D01*
X30197619Y-85352380D01*
X30292857Y-85304761D01*
X30340476Y-85257142D01*
X30388095Y-85161904D01*
X30435714Y-84971428D01*
X30435714Y-84733333D01*
X30388095Y-84542857D01*
X30340476Y-84447619D01*
X30292857Y-84400000D01*
X30197619Y-84352380D01*
X29483333Y-84447619D02*
X29435714Y-84400000D01*
X29340476Y-84352380D01*
X29102380Y-84352380D01*
X29007142Y-84400000D01*
X28959523Y-84447619D01*
X28911904Y-84542857D01*
X28911904Y-84638095D01*
X28959523Y-84780952D01*
X29530952Y-85352380D01*
X28911904Y-85352380D01*
%TO.C,R12*%
X73552380Y-66057142D02*
X73076190Y-65723809D01*
X73552380Y-65485714D02*
X72552380Y-65485714D01*
X72552380Y-65866666D01*
X72600000Y-65961904D01*
X72647619Y-66009523D01*
X72742857Y-66057142D01*
X72885714Y-66057142D01*
X72980952Y-66009523D01*
X73028571Y-65961904D01*
X73076190Y-65866666D01*
X73076190Y-65485714D01*
X73552380Y-67009523D02*
X73552380Y-66438095D01*
X73552380Y-66723809D02*
X72552380Y-66723809D01*
X72695238Y-66628571D01*
X72790476Y-66533333D01*
X72838095Y-66438095D01*
X72647619Y-67390476D02*
X72600000Y-67438095D01*
X72552380Y-67533333D01*
X72552380Y-67771428D01*
X72600000Y-67866666D01*
X72647619Y-67914285D01*
X72742857Y-67961904D01*
X72838095Y-67961904D01*
X72980952Y-67914285D01*
X73552380Y-67342857D01*
X73552380Y-67961904D01*
%TO.C,R11*%
X74777380Y-66057142D02*
X74301190Y-65723809D01*
X74777380Y-65485714D02*
X73777380Y-65485714D01*
X73777380Y-65866666D01*
X73825000Y-65961904D01*
X73872619Y-66009523D01*
X73967857Y-66057142D01*
X74110714Y-66057142D01*
X74205952Y-66009523D01*
X74253571Y-65961904D01*
X74301190Y-65866666D01*
X74301190Y-65485714D01*
X74777380Y-67009523D02*
X74777380Y-66438095D01*
X74777380Y-66723809D02*
X73777380Y-66723809D01*
X73920238Y-66628571D01*
X74015476Y-66533333D01*
X74063095Y-66438095D01*
X74777380Y-67961904D02*
X74777380Y-67390476D01*
X74777380Y-67676190D02*
X73777380Y-67676190D01*
X73920238Y-67580952D01*
X74015476Y-67485714D01*
X74063095Y-67390476D01*
%TO.C,Q2*%
X98347619Y-57129761D02*
X98300000Y-57034523D01*
X98204761Y-56939285D01*
X98061904Y-56796428D01*
X98014285Y-56701190D01*
X98014285Y-56605952D01*
X98252380Y-56653571D02*
X98204761Y-56558333D01*
X98109523Y-56463095D01*
X97919047Y-56415476D01*
X97585714Y-56415476D01*
X97395238Y-56463095D01*
X97300000Y-56558333D01*
X97252380Y-56653571D01*
X97252380Y-56844047D01*
X97300000Y-56939285D01*
X97395238Y-57034523D01*
X97585714Y-57082142D01*
X97919047Y-57082142D01*
X98109523Y-57034523D01*
X98204761Y-56939285D01*
X98252380Y-56844047D01*
X98252380Y-56653571D01*
X97347619Y-57463095D02*
X97300000Y-57510714D01*
X97252380Y-57605952D01*
X97252380Y-57844047D01*
X97300000Y-57939285D01*
X97347619Y-57986904D01*
X97442857Y-58034523D01*
X97538095Y-58034523D01*
X97680952Y-57986904D01*
X98252380Y-57415476D01*
X98252380Y-58034523D01*
D13*
%TO.C,U4*%
X85755000Y-76122500D02*
X85755000Y-80522500D01*
X96095000Y-76122500D02*
X96095000Y-80522500D01*
D14*
X86490000Y-74082500D02*
G75*
G03*
X86490000Y-74082500I-100000J0D01*
G01*
D10*
%TO.C,Q7*%
X94860000Y-57225000D02*
X94860000Y-60675000D01*
X94860000Y-57225000D02*
X94860000Y-55275000D01*
X89740000Y-57225000D02*
X89740000Y-55275000D01*
X89740000Y-57225000D02*
X89740000Y-59175000D01*
%TO.C,Q5*%
X105910000Y-57225000D02*
X105910000Y-60675000D01*
X100790000Y-57225000D02*
X100790000Y-59175000D01*
X105910000Y-57225000D02*
X105910000Y-55275000D01*
X100790000Y-57225000D02*
X100790000Y-55275000D01*
%TO.C,G\u002A\u002A\u002A*%
G36*
X37683644Y-68281604D02*
G01*
X37729616Y-68294448D01*
X37799171Y-68314644D01*
X37889712Y-68341399D01*
X37998646Y-68373919D01*
X38123375Y-68411409D01*
X38261306Y-68453076D01*
X38409842Y-68498125D01*
X38566389Y-68545762D01*
X38728350Y-68595194D01*
X38893132Y-68645625D01*
X39058137Y-68696263D01*
X39220771Y-68746312D01*
X39378438Y-68794980D01*
X39528544Y-68841470D01*
X39668492Y-68884991D01*
X39795688Y-68924747D01*
X39907535Y-68959944D01*
X40001440Y-68989789D01*
X40074805Y-69013486D01*
X40125036Y-69030243D01*
X40178802Y-69049736D01*
X40298605Y-69098481D01*
X40425121Y-69155858D01*
X40549330Y-69217486D01*
X40662214Y-69278987D01*
X40754755Y-69335983D01*
X40774041Y-69349172D01*
X40882508Y-69432834D01*
X40977910Y-69522476D01*
X41054965Y-69612690D01*
X41108389Y-69698066D01*
X41109930Y-69701215D01*
X41132228Y-69751535D01*
X41145144Y-69796580D01*
X41151059Y-69848307D01*
X41152357Y-69918671D01*
X41151396Y-69972538D01*
X41146372Y-70029766D01*
X41135346Y-70074248D01*
X41116423Y-70116411D01*
X41084032Y-70169371D01*
X41004845Y-70264714D01*
X40901964Y-70357921D01*
X40779723Y-70445273D01*
X40642459Y-70523052D01*
X40627511Y-70530200D01*
X40583093Y-70550745D01*
X40513805Y-70582400D01*
X40421520Y-70624327D01*
X40308114Y-70675682D01*
X40175460Y-70735626D01*
X40025433Y-70803318D01*
X39859908Y-70877917D01*
X39680758Y-70958582D01*
X39489859Y-71044472D01*
X39289085Y-71134746D01*
X39080310Y-71228564D01*
X38865409Y-71325085D01*
X38646255Y-71423468D01*
X38424725Y-71522872D01*
X38202691Y-71622456D01*
X37982029Y-71721379D01*
X37764613Y-71818802D01*
X37552317Y-71913881D01*
X37347016Y-72005778D01*
X37150585Y-72093651D01*
X36964896Y-72176659D01*
X36791827Y-72253961D01*
X36633249Y-72324717D01*
X36491039Y-72388086D01*
X36367070Y-72443226D01*
X36263218Y-72489298D01*
X36181355Y-72525460D01*
X36123358Y-72550871D01*
X36091099Y-72564691D01*
X35888904Y-72641260D01*
X35610988Y-72728100D01*
X35310164Y-72803611D01*
X34989828Y-72867052D01*
X34653376Y-72917680D01*
X34304203Y-72954755D01*
X34283733Y-72956315D01*
X34197771Y-72960611D01*
X34088333Y-72963567D01*
X33960343Y-72965250D01*
X33818722Y-72965727D01*
X33668392Y-72965064D01*
X33514276Y-72963329D01*
X33361296Y-72960587D01*
X33214375Y-72956907D01*
X33078435Y-72952354D01*
X32958399Y-72946996D01*
X32859188Y-72940900D01*
X32785725Y-72934132D01*
X32492717Y-72894271D01*
X32155514Y-72835454D01*
X31843118Y-72765890D01*
X31556952Y-72685902D01*
X31298440Y-72595815D01*
X31294648Y-72594325D01*
X31250292Y-72575987D01*
X31181079Y-72546342D01*
X31088831Y-72506212D01*
X30975372Y-72456417D01*
X30842524Y-72397779D01*
X30692112Y-72331119D01*
X30525957Y-72257257D01*
X30345884Y-72177014D01*
X30153715Y-72091211D01*
X29951274Y-72000670D01*
X29740384Y-71906211D01*
X29522867Y-71808654D01*
X29300547Y-71708822D01*
X29075247Y-71607535D01*
X28848791Y-71505614D01*
X28623000Y-71403880D01*
X28399700Y-71303153D01*
X28180712Y-71204255D01*
X27967860Y-71108007D01*
X27762967Y-71015229D01*
X27567856Y-70926743D01*
X27384351Y-70843370D01*
X27214273Y-70765930D01*
X27059448Y-70695244D01*
X26921697Y-70632134D01*
X26802844Y-70577419D01*
X26704712Y-70531923D01*
X26629124Y-70496464D01*
X26577904Y-70471864D01*
X26552874Y-70458945D01*
X26482926Y-70412830D01*
X26393422Y-70342336D01*
X26312865Y-70266437D01*
X26247564Y-70191210D01*
X26203826Y-70122727D01*
X26191403Y-70094336D01*
X26171527Y-70021721D01*
X26162104Y-69930522D01*
X26161905Y-69926317D01*
X26160495Y-69862134D01*
X26165055Y-69814480D01*
X26178039Y-69770112D01*
X26201902Y-69715788D01*
X26244636Y-69638161D01*
X26308641Y-69553057D01*
X26392194Y-69469271D01*
X26500109Y-69381406D01*
X26579953Y-69326956D01*
X26684154Y-69265207D01*
X26802923Y-69201721D01*
X26928793Y-69140305D01*
X27054294Y-69084768D01*
X27171957Y-69038916D01*
X27181874Y-69035423D01*
X27236513Y-69017017D01*
X27313941Y-68991836D01*
X27411554Y-68960673D01*
X27526747Y-68924323D01*
X27656916Y-68883580D01*
X27799457Y-68839239D01*
X27951767Y-68792094D01*
X28111241Y-68742940D01*
X28275275Y-68692570D01*
X28441265Y-68641779D01*
X28606608Y-68591362D01*
X28768699Y-68542113D01*
X28924934Y-68494826D01*
X29072709Y-68450296D01*
X29209421Y-68409317D01*
X29332465Y-68372684D01*
X29439237Y-68341190D01*
X29527133Y-68315630D01*
X29593549Y-68296799D01*
X29635882Y-68285491D01*
X29651526Y-68282500D01*
X29651705Y-68283648D01*
X29646429Y-68305627D01*
X29631912Y-68353076D01*
X29609093Y-68423221D01*
X29578909Y-68513286D01*
X29542298Y-68620497D01*
X29500196Y-68742077D01*
X29453543Y-68875254D01*
X29403274Y-69017250D01*
X29398539Y-69030564D01*
X29330674Y-69222677D01*
X29273723Y-69386572D01*
X29227565Y-69522626D01*
X29192075Y-69631216D01*
X29167130Y-69712719D01*
X29152608Y-69767509D01*
X29148384Y-69795966D01*
X29150566Y-69816193D01*
X29174920Y-69895870D01*
X29222119Y-69981752D01*
X29288281Y-70068544D01*
X29369522Y-70150950D01*
X29461960Y-70223672D01*
X29538861Y-70273424D01*
X29726496Y-70376630D01*
X29942263Y-70473592D01*
X30184787Y-70563938D01*
X30452693Y-70647293D01*
X30744608Y-70723287D01*
X31059156Y-70791544D01*
X31394962Y-70851694D01*
X31750653Y-70903361D01*
X32124853Y-70946175D01*
X32377138Y-70969145D01*
X32767349Y-70996171D01*
X33158522Y-71013346D01*
X33548718Y-71020907D01*
X33935997Y-71019091D01*
X34318419Y-71008134D01*
X34694045Y-70988274D01*
X35060936Y-70959749D01*
X35417151Y-70922793D01*
X35760751Y-70877646D01*
X36089796Y-70824544D01*
X36402347Y-70763723D01*
X36696464Y-70695421D01*
X36970207Y-70619875D01*
X37221637Y-70537322D01*
X37448813Y-70447998D01*
X37649797Y-70352141D01*
X37822649Y-70249988D01*
X37828460Y-70246099D01*
X37928331Y-70171656D01*
X38016768Y-70091755D01*
X38088098Y-70012033D01*
X38136644Y-69938126D01*
X38137268Y-69936904D01*
X38151773Y-69908294D01*
X38163375Y-69882397D01*
X38171463Y-69856576D01*
X38175428Y-69828195D01*
X38174661Y-69794618D01*
X38168553Y-69753206D01*
X38156494Y-69701326D01*
X38137875Y-69636338D01*
X38112088Y-69555608D01*
X38078522Y-69456499D01*
X38036568Y-69336373D01*
X37985617Y-69192595D01*
X37925061Y-69022528D01*
X37910756Y-68982349D01*
X37860671Y-68841412D01*
X37814117Y-68710028D01*
X37772064Y-68590959D01*
X37735481Y-68486968D01*
X37705340Y-68400816D01*
X37682609Y-68335265D01*
X37668260Y-68293079D01*
X37663261Y-68277018D01*
X37663850Y-68276908D01*
X37683644Y-68281604D01*
G37*
G36*
X31136437Y-64279887D02*
G01*
X31172524Y-64327873D01*
X31256141Y-64405381D01*
X31367863Y-64479331D01*
X31506141Y-64548980D01*
X31669428Y-64613588D01*
X31856174Y-64672412D01*
X32064831Y-64724710D01*
X32321257Y-64775091D01*
X32619858Y-64819209D01*
X32930958Y-64851416D01*
X33250433Y-64871829D01*
X33574159Y-64880565D01*
X33898015Y-64877739D01*
X34217877Y-64863469D01*
X34529622Y-64837870D01*
X34829127Y-64801060D01*
X35112268Y-64753154D01*
X35374923Y-64694269D01*
X35612969Y-64624522D01*
X35684346Y-64599145D01*
X35826567Y-64539088D01*
X35953610Y-64472375D01*
X36061634Y-64401395D01*
X36146799Y-64328534D01*
X36205265Y-64256182D01*
X36207053Y-64253355D01*
X36211300Y-64248165D01*
X36216054Y-64246382D01*
X36221928Y-64249598D01*
X36229534Y-64259407D01*
X36239485Y-64277401D01*
X36252392Y-64305173D01*
X36268869Y-64344317D01*
X36289526Y-64396425D01*
X36314977Y-64463090D01*
X36345833Y-64545906D01*
X36382707Y-64646466D01*
X36426210Y-64766362D01*
X36476956Y-64907187D01*
X36535556Y-65070535D01*
X36602622Y-65257998D01*
X36678767Y-65471169D01*
X36764603Y-65711642D01*
X36802494Y-65817815D01*
X36884106Y-66046569D01*
X36956204Y-66248872D01*
X37019353Y-66426432D01*
X37074117Y-66580958D01*
X37121061Y-66714157D01*
X37160750Y-66827737D01*
X37193748Y-66923407D01*
X37220619Y-67002875D01*
X37241929Y-67067849D01*
X37258241Y-67120036D01*
X37270121Y-67161146D01*
X37278133Y-67192885D01*
X37282840Y-67216963D01*
X37284809Y-67235087D01*
X37284603Y-67248966D01*
X37282787Y-67260308D01*
X37279926Y-67270820D01*
X37244886Y-67352022D01*
X37176503Y-67445704D01*
X37081291Y-67532909D01*
X37077332Y-67535941D01*
X36939585Y-67627347D01*
X36773320Y-67713944D01*
X36580327Y-67795299D01*
X36362396Y-67870984D01*
X36121314Y-67940565D01*
X35858871Y-68003612D01*
X35576857Y-68059695D01*
X35277060Y-68108381D01*
X34961270Y-68149240D01*
X34631275Y-68181841D01*
X34288865Y-68205752D01*
X34248934Y-68207541D01*
X34162181Y-68209910D01*
X34053223Y-68211617D01*
X33927306Y-68212681D01*
X33789677Y-68213123D01*
X33645584Y-68212963D01*
X33500273Y-68212221D01*
X33358992Y-68210919D01*
X33226988Y-68209075D01*
X33109507Y-68206712D01*
X33011798Y-68203849D01*
X32939106Y-68200506D01*
X32789512Y-68190491D01*
X32459109Y-68161982D01*
X32144341Y-68125874D01*
X31846449Y-68082541D01*
X31566674Y-68032357D01*
X31306256Y-67975698D01*
X31066434Y-67912936D01*
X30848449Y-67844447D01*
X30653541Y-67770604D01*
X30482951Y-67691782D01*
X30337919Y-67608356D01*
X30219684Y-67520699D01*
X30129488Y-67429186D01*
X30068570Y-67334191D01*
X30047433Y-67287139D01*
X30031117Y-67245506D01*
X30024867Y-67221999D01*
X30026722Y-67215087D01*
X30037677Y-67181638D01*
X30057860Y-67122464D01*
X30086580Y-67039535D01*
X30123141Y-66934821D01*
X30166853Y-66810289D01*
X30217020Y-66667908D01*
X30272951Y-66509649D01*
X30333953Y-66337480D01*
X30399331Y-66153370D01*
X30468394Y-65959288D01*
X30540448Y-65757204D01*
X30582251Y-65640076D01*
X30653225Y-65441205D01*
X30721117Y-65250959D01*
X30785204Y-65071367D01*
X30844763Y-64904453D01*
X30899071Y-64752245D01*
X30947405Y-64616769D01*
X30989042Y-64500051D01*
X31023258Y-64404119D01*
X31049332Y-64330998D01*
X31066540Y-64282716D01*
X31074159Y-64261298D01*
X31092276Y-64210023D01*
X31136437Y-64279887D01*
G37*
G36*
X34143118Y-58374020D02*
G01*
X34152523Y-58399590D01*
X34171314Y-58451529D01*
X34198837Y-58528017D01*
X34234443Y-58627232D01*
X34277479Y-58747354D01*
X34327293Y-58886561D01*
X34383235Y-59043032D01*
X34444653Y-59214945D01*
X34510894Y-59400480D01*
X34581309Y-59597815D01*
X34655244Y-59805129D01*
X34732049Y-60020601D01*
X34747490Y-60063930D01*
X34835946Y-60312203D01*
X34914719Y-60533461D01*
X34984346Y-60729319D01*
X35045362Y-60901389D01*
X35098306Y-61051286D01*
X35143713Y-61180623D01*
X35182121Y-61291014D01*
X35214066Y-61384072D01*
X35240086Y-61461412D01*
X35260717Y-61524648D01*
X35276496Y-61575392D01*
X35287959Y-61615258D01*
X35295645Y-61645861D01*
X35300088Y-61668814D01*
X35301827Y-61685730D01*
X35301398Y-61698224D01*
X35299338Y-61707909D01*
X35296184Y-61716399D01*
X35284680Y-61739396D01*
X35231654Y-61803502D01*
X35150730Y-61863719D01*
X35043855Y-61919447D01*
X34912979Y-61970086D01*
X34760050Y-62015036D01*
X34587015Y-62053695D01*
X34395824Y-62085465D01*
X34188424Y-62109745D01*
X33966763Y-62125935D01*
X33936765Y-62127510D01*
X33857502Y-62131716D01*
X33789622Y-62135381D01*
X33739544Y-62138156D01*
X33713684Y-62139692D01*
X33692919Y-62140288D01*
X33637275Y-62139342D01*
X33560547Y-62136300D01*
X33468660Y-62131550D01*
X33367540Y-62125475D01*
X33263112Y-62118462D01*
X33161301Y-62110897D01*
X33068033Y-62103165D01*
X32989234Y-62095651D01*
X32930828Y-62088742D01*
X32899768Y-62084281D01*
X32703896Y-62050611D01*
X32529210Y-62010627D01*
X32377271Y-61964938D01*
X32249643Y-61914152D01*
X32147886Y-61858877D01*
X32073566Y-61799723D01*
X32028243Y-61737297D01*
X32001877Y-61681735D01*
X32579999Y-60057337D01*
X32603235Y-59992063D01*
X32678880Y-59779719D01*
X32751585Y-59575875D01*
X32820684Y-59382387D01*
X32885511Y-59201110D01*
X32945398Y-59033899D01*
X32999682Y-58882609D01*
X33047695Y-58749095D01*
X33088770Y-58635213D01*
X33122243Y-58542817D01*
X33147447Y-58473763D01*
X33163716Y-58429905D01*
X33170383Y-58413100D01*
X33172222Y-58410303D01*
X33186943Y-58402481D01*
X33210422Y-58418117D01*
X33216070Y-58422892D01*
X33277519Y-58455736D01*
X33368181Y-58479338D01*
X33488018Y-58493693D01*
X33636993Y-58498792D01*
X33647298Y-58498815D01*
X33737995Y-58498141D01*
X33806900Y-58495202D01*
X33862084Y-58489145D01*
X33911615Y-58479116D01*
X33963563Y-58464263D01*
X33969039Y-58462517D01*
X34027602Y-58440854D01*
X34076887Y-58417707D01*
X34106719Y-58397798D01*
X34129833Y-58377335D01*
X34142134Y-58371590D01*
X34143118Y-58374020D01*
G37*
D15*
%TO.C,U310*%
X34980000Y-90500000D02*
X50980000Y-90500000D01*
X50980000Y-74500000D02*
X34980000Y-74500000D01*
D14*
X52605000Y-75515000D02*
G75*
G03*
X52605000Y-75515000I-100000J0D01*
G01*
D10*
%TO.C,C302*%
X33585000Y-82811252D02*
X33585000Y-82288748D01*
X32115000Y-82811252D02*
X32115000Y-82288748D01*
%TO.C,R12*%
X72854167Y-62950276D02*
X72854167Y-63459724D01*
X73899167Y-62950276D02*
X73899167Y-63459724D01*
%TO.C,R11*%
X74024167Y-62950276D02*
X74024167Y-63459724D01*
X75069167Y-62950276D02*
X75069167Y-63459724D01*
%TO.C,Q2*%
X95240000Y-57225000D02*
X95240000Y-55275000D01*
X100360000Y-57225000D02*
X100360000Y-55275000D01*
X100360000Y-57225000D02*
X100360000Y-60675000D01*
X95240000Y-57225000D02*
X95240000Y-59175000D01*
D13*
%TO.C,J304*%
X28875000Y-87200000D02*
X28875000Y-89800000D01*
X31475000Y-89800000D02*
X31475000Y-89170000D01*
X31475000Y-87200000D02*
X31475000Y-87830000D01*
%TD*%
%LPC*%
D16*
%TO.C,U4*%
X90380000Y-80252500D02*
X90380000Y-81992500D01*
X90380000Y-81992500D02*
X90820000Y-81992500D01*
X90820000Y-81992500D02*
X90820000Y-80252500D01*
X90820000Y-80252500D02*
X90380000Y-80252500D01*
G36*
X90820000Y-81992500D02*
G01*
X90380000Y-81992500D01*
X90380000Y-80252500D01*
X90820000Y-80252500D01*
X90820000Y-81992500D01*
G37*
X90820000Y-81992500D02*
X90380000Y-81992500D01*
X90380000Y-80252500D01*
X90820000Y-80252500D01*
X90820000Y-81992500D01*
X87695000Y-77122500D02*
X87695000Y-79522500D01*
X87695000Y-79522500D02*
X94155000Y-79522500D01*
X94155000Y-79522500D02*
X94155000Y-77122500D01*
X94155000Y-77122500D02*
X87695000Y-77122500D01*
G36*
X94155000Y-79522500D02*
G01*
X87695000Y-79522500D01*
X87695000Y-77122500D01*
X94155000Y-77122500D01*
X94155000Y-79522500D01*
G37*
X94155000Y-79522500D02*
X87695000Y-79522500D01*
X87695000Y-77122500D01*
X94155000Y-77122500D01*
X94155000Y-79522500D01*
X93630000Y-74652500D02*
X93630000Y-76392500D01*
X93630000Y-76392500D02*
X94070000Y-76392500D01*
X94070000Y-76392500D02*
X94070000Y-74652500D01*
X94070000Y-74652500D02*
X93630000Y-74652500D01*
G36*
X94070000Y-76392500D02*
G01*
X93630000Y-76392500D01*
X93630000Y-74652500D01*
X94070000Y-74652500D01*
X94070000Y-76392500D01*
G37*
X94070000Y-76392500D02*
X93630000Y-76392500D01*
X93630000Y-74652500D01*
X94070000Y-74652500D01*
X94070000Y-76392500D01*
X91030000Y-74652500D02*
X91030000Y-76392500D01*
X91030000Y-76392500D02*
X91470000Y-76392500D01*
X91470000Y-76392500D02*
X91470000Y-74652500D01*
X91470000Y-74652500D02*
X91030000Y-74652500D01*
G36*
X91470000Y-76392500D02*
G01*
X91030000Y-76392500D01*
X91030000Y-74652500D01*
X91470000Y-74652500D01*
X91470000Y-76392500D01*
G37*
X91470000Y-76392500D02*
X91030000Y-76392500D01*
X91030000Y-74652500D01*
X91470000Y-74652500D01*
X91470000Y-76392500D01*
X92330000Y-74652500D02*
X92330000Y-76392500D01*
X92330000Y-76392500D02*
X92770000Y-76392500D01*
X92770000Y-76392500D02*
X92770000Y-74652500D01*
X92770000Y-74652500D02*
X92330000Y-74652500D01*
G36*
X92770000Y-76392500D02*
G01*
X92330000Y-76392500D01*
X92330000Y-74652500D01*
X92770000Y-74652500D01*
X92770000Y-76392500D01*
G37*
X92770000Y-76392500D02*
X92330000Y-76392500D01*
X92330000Y-74652500D01*
X92770000Y-74652500D01*
X92770000Y-76392500D01*
X87130000Y-74652500D02*
X87130000Y-76392500D01*
X87130000Y-76392500D02*
X87570000Y-76392500D01*
X87570000Y-76392500D02*
X87570000Y-74652500D01*
X87570000Y-74652500D02*
X87130000Y-74652500D01*
G36*
X87570000Y-76392500D02*
G01*
X87130000Y-76392500D01*
X87130000Y-74652500D01*
X87570000Y-74652500D01*
X87570000Y-76392500D01*
G37*
X87570000Y-76392500D02*
X87130000Y-76392500D01*
X87130000Y-74652500D01*
X87570000Y-74652500D01*
X87570000Y-76392500D01*
X88430000Y-80252500D02*
X88430000Y-81992500D01*
X88430000Y-81992500D02*
X88870000Y-81992500D01*
X88870000Y-81992500D02*
X88870000Y-80252500D01*
X88870000Y-80252500D02*
X88430000Y-80252500D01*
G36*
X88870000Y-81992500D02*
G01*
X88430000Y-81992500D01*
X88430000Y-80252500D01*
X88870000Y-80252500D01*
X88870000Y-81992500D01*
G37*
X88870000Y-81992500D02*
X88430000Y-81992500D01*
X88430000Y-80252500D01*
X88870000Y-80252500D01*
X88870000Y-81992500D01*
X88430000Y-74652500D02*
X88430000Y-76392500D01*
X88430000Y-76392500D02*
X88870000Y-76392500D01*
X88870000Y-76392500D02*
X88870000Y-74652500D01*
X88870000Y-74652500D02*
X88430000Y-74652500D01*
G36*
X88870000Y-76392500D02*
G01*
X88430000Y-76392500D01*
X88430000Y-74652500D01*
X88870000Y-74652500D01*
X88870000Y-76392500D01*
G37*
X88870000Y-76392500D02*
X88430000Y-76392500D01*
X88430000Y-74652500D01*
X88870000Y-74652500D01*
X88870000Y-76392500D01*
X89730000Y-80252500D02*
X89730000Y-81992500D01*
X89730000Y-81992500D02*
X90170000Y-81992500D01*
X90170000Y-81992500D02*
X90170000Y-80252500D01*
X90170000Y-80252500D02*
X89730000Y-80252500D01*
G36*
X90170000Y-81992500D02*
G01*
X89730000Y-81992500D01*
X89730000Y-80252500D01*
X90170000Y-80252500D01*
X90170000Y-81992500D01*
G37*
X90170000Y-81992500D02*
X89730000Y-81992500D01*
X89730000Y-80252500D01*
X90170000Y-80252500D01*
X90170000Y-81992500D01*
X91030000Y-80252500D02*
X91030000Y-81992500D01*
X91030000Y-81992500D02*
X91470000Y-81992500D01*
X91470000Y-81992500D02*
X91470000Y-80252500D01*
X91470000Y-80252500D02*
X91030000Y-80252500D01*
G36*
X91470000Y-81992500D02*
G01*
X91030000Y-81992500D01*
X91030000Y-80252500D01*
X91470000Y-80252500D01*
X91470000Y-81992500D01*
G37*
X91470000Y-81992500D02*
X91030000Y-81992500D01*
X91030000Y-80252500D01*
X91470000Y-80252500D01*
X91470000Y-81992500D01*
X89080000Y-80252500D02*
X89080000Y-81992500D01*
X89080000Y-81992500D02*
X89520000Y-81992500D01*
X89520000Y-81992500D02*
X89520000Y-80252500D01*
X89520000Y-80252500D02*
X89080000Y-80252500D01*
G36*
X89520000Y-81992500D02*
G01*
X89080000Y-81992500D01*
X89080000Y-80252500D01*
X89520000Y-80252500D01*
X89520000Y-81992500D01*
G37*
X89520000Y-81992500D02*
X89080000Y-81992500D01*
X89080000Y-80252500D01*
X89520000Y-80252500D01*
X89520000Y-81992500D01*
X86480000Y-74652500D02*
X86480000Y-76392500D01*
X86480000Y-76392500D02*
X86920000Y-76392500D01*
X86920000Y-76392500D02*
X86920000Y-74652500D01*
X86920000Y-74652500D02*
X86480000Y-74652500D01*
G36*
X86920000Y-76392500D02*
G01*
X86480000Y-76392500D01*
X86480000Y-74652500D01*
X86920000Y-74652500D01*
X86920000Y-76392500D01*
G37*
X86920000Y-76392500D02*
X86480000Y-76392500D01*
X86480000Y-74652500D01*
X86920000Y-74652500D01*
X86920000Y-76392500D01*
X93630000Y-80252500D02*
X93630000Y-81992500D01*
X93630000Y-81992500D02*
X94070000Y-81992500D01*
X94070000Y-81992500D02*
X94070000Y-80252500D01*
X94070000Y-80252500D02*
X93630000Y-80252500D01*
G36*
X94070000Y-81992500D02*
G01*
X93630000Y-81992500D01*
X93630000Y-80252500D01*
X94070000Y-80252500D01*
X94070000Y-81992500D01*
G37*
X94070000Y-81992500D02*
X93630000Y-81992500D01*
X93630000Y-80252500D01*
X94070000Y-80252500D01*
X94070000Y-81992500D01*
X87780000Y-80252500D02*
X87780000Y-81992500D01*
X87780000Y-81992500D02*
X88220000Y-81992500D01*
X88220000Y-81992500D02*
X88220000Y-80252500D01*
X88220000Y-80252500D02*
X87780000Y-80252500D01*
G36*
X88220000Y-81992500D02*
G01*
X87780000Y-81992500D01*
X87780000Y-80252500D01*
X88220000Y-80252500D01*
X88220000Y-81992500D01*
G37*
X88220000Y-81992500D02*
X87780000Y-81992500D01*
X87780000Y-80252500D01*
X88220000Y-80252500D01*
X88220000Y-81992500D01*
X90380000Y-74652500D02*
X90380000Y-76392500D01*
X90380000Y-76392500D02*
X90820000Y-76392500D01*
X90820000Y-76392500D02*
X90820000Y-74652500D01*
X90820000Y-74652500D02*
X90380000Y-74652500D01*
G36*
X90820000Y-76392500D02*
G01*
X90380000Y-76392500D01*
X90380000Y-74652500D01*
X90820000Y-74652500D01*
X90820000Y-76392500D01*
G37*
X90820000Y-76392500D02*
X90380000Y-76392500D01*
X90380000Y-74652500D01*
X90820000Y-74652500D01*
X90820000Y-76392500D01*
X92330000Y-80252500D02*
X92330000Y-81992500D01*
X92330000Y-81992500D02*
X92770000Y-81992500D01*
X92770000Y-81992500D02*
X92770000Y-80252500D01*
X92770000Y-80252500D02*
X92330000Y-80252500D01*
G36*
X92770000Y-81992500D02*
G01*
X92330000Y-81992500D01*
X92330000Y-80252500D01*
X92770000Y-80252500D01*
X92770000Y-81992500D01*
G37*
X92770000Y-81992500D02*
X92330000Y-81992500D01*
X92330000Y-80252500D01*
X92770000Y-80252500D01*
X92770000Y-81992500D01*
X94930000Y-74652500D02*
X94930000Y-76392500D01*
X94930000Y-76392500D02*
X95370000Y-76392500D01*
X95370000Y-76392500D02*
X95370000Y-74652500D01*
X95370000Y-74652500D02*
X94930000Y-74652500D01*
G36*
X95370000Y-76392500D02*
G01*
X94930000Y-76392500D01*
X94930000Y-74652500D01*
X95370000Y-74652500D01*
X95370000Y-76392500D01*
G37*
X95370000Y-76392500D02*
X94930000Y-76392500D01*
X94930000Y-74652500D01*
X95370000Y-74652500D01*
X95370000Y-76392500D01*
X92980000Y-74652500D02*
X92980000Y-76392500D01*
X92980000Y-76392500D02*
X93420000Y-76392500D01*
X93420000Y-76392500D02*
X93420000Y-74652500D01*
X93420000Y-74652500D02*
X92980000Y-74652500D01*
G36*
X93420000Y-76392500D02*
G01*
X92980000Y-76392500D01*
X92980000Y-74652500D01*
X93420000Y-74652500D01*
X93420000Y-76392500D01*
G37*
X93420000Y-76392500D02*
X92980000Y-76392500D01*
X92980000Y-74652500D01*
X93420000Y-74652500D01*
X93420000Y-76392500D01*
X92980000Y-80252500D02*
X92980000Y-81992500D01*
X92980000Y-81992500D02*
X93420000Y-81992500D01*
X93420000Y-81992500D02*
X93420000Y-80252500D01*
X93420000Y-80252500D02*
X92980000Y-80252500D01*
G36*
X93420000Y-81992500D02*
G01*
X92980000Y-81992500D01*
X92980000Y-80252500D01*
X93420000Y-80252500D01*
X93420000Y-81992500D01*
G37*
X93420000Y-81992500D02*
X92980000Y-81992500D01*
X92980000Y-80252500D01*
X93420000Y-80252500D01*
X93420000Y-81992500D01*
X91680000Y-74652500D02*
X91680000Y-76392500D01*
X91680000Y-76392500D02*
X92120000Y-76392500D01*
X92120000Y-76392500D02*
X92120000Y-74652500D01*
X92120000Y-74652500D02*
X91680000Y-74652500D01*
G36*
X92120000Y-76392500D02*
G01*
X91680000Y-76392500D01*
X91680000Y-74652500D01*
X92120000Y-74652500D01*
X92120000Y-76392500D01*
G37*
X92120000Y-76392500D02*
X91680000Y-76392500D01*
X91680000Y-74652500D01*
X92120000Y-74652500D01*
X92120000Y-76392500D01*
X89730000Y-74652500D02*
X89730000Y-76392500D01*
X89730000Y-76392500D02*
X90170000Y-76392500D01*
X90170000Y-76392500D02*
X90170000Y-74652500D01*
X90170000Y-74652500D02*
X89730000Y-74652500D01*
G36*
X90170000Y-76392500D02*
G01*
X89730000Y-76392500D01*
X89730000Y-74652500D01*
X90170000Y-74652500D01*
X90170000Y-76392500D01*
G37*
X90170000Y-76392500D02*
X89730000Y-76392500D01*
X89730000Y-74652500D01*
X90170000Y-74652500D01*
X90170000Y-76392500D01*
X89080000Y-74652500D02*
X89080000Y-76392500D01*
X89080000Y-76392500D02*
X89520000Y-76392500D01*
X89520000Y-76392500D02*
X89520000Y-74652500D01*
X89520000Y-74652500D02*
X89080000Y-74652500D01*
G36*
X89520000Y-76392500D02*
G01*
X89080000Y-76392500D01*
X89080000Y-74652500D01*
X89520000Y-74652500D01*
X89520000Y-76392500D01*
G37*
X89520000Y-76392500D02*
X89080000Y-76392500D01*
X89080000Y-74652500D01*
X89520000Y-74652500D01*
X89520000Y-76392500D01*
X91680000Y-80252500D02*
X91680000Y-81992500D01*
X91680000Y-81992500D02*
X92120000Y-81992500D01*
X92120000Y-81992500D02*
X92120000Y-80252500D01*
X92120000Y-80252500D02*
X91680000Y-80252500D01*
G36*
X92120000Y-81992500D02*
G01*
X91680000Y-81992500D01*
X91680000Y-80252500D01*
X92120000Y-80252500D01*
X92120000Y-81992500D01*
G37*
X92120000Y-81992500D02*
X91680000Y-81992500D01*
X91680000Y-80252500D01*
X92120000Y-80252500D01*
X92120000Y-81992500D01*
X87780000Y-74652500D02*
X87780000Y-76392500D01*
X87780000Y-76392500D02*
X88220000Y-76392500D01*
X88220000Y-76392500D02*
X88220000Y-74652500D01*
X88220000Y-74652500D02*
X87780000Y-74652500D01*
G36*
X88220000Y-76392500D02*
G01*
X87780000Y-76392500D01*
X87780000Y-74652500D01*
X88220000Y-74652500D01*
X88220000Y-76392500D01*
G37*
X88220000Y-76392500D02*
X87780000Y-76392500D01*
X87780000Y-74652500D01*
X88220000Y-74652500D01*
X88220000Y-76392500D01*
X86480000Y-80252500D02*
X86480000Y-81992500D01*
X86480000Y-81992500D02*
X86920000Y-81992500D01*
X86920000Y-81992500D02*
X86920000Y-80252500D01*
X86920000Y-80252500D02*
X86480000Y-80252500D01*
G36*
X86920000Y-81992500D02*
G01*
X86480000Y-81992500D01*
X86480000Y-80252500D01*
X86920000Y-80252500D01*
X86920000Y-81992500D01*
G37*
X86920000Y-81992500D02*
X86480000Y-81992500D01*
X86480000Y-80252500D01*
X86920000Y-80252500D01*
X86920000Y-81992500D01*
X87130000Y-80252500D02*
X87130000Y-81992500D01*
X87130000Y-81992500D02*
X87570000Y-81992500D01*
X87570000Y-81992500D02*
X87570000Y-80252500D01*
X87570000Y-80252500D02*
X87130000Y-80252500D01*
G36*
X87570000Y-81992500D02*
G01*
X87130000Y-81992500D01*
X87130000Y-80252500D01*
X87570000Y-80252500D01*
X87570000Y-81992500D01*
G37*
X87570000Y-81992500D02*
X87130000Y-81992500D01*
X87130000Y-80252500D01*
X87570000Y-80252500D01*
X87570000Y-81992500D01*
X94930000Y-80252500D02*
X94930000Y-81992500D01*
X94930000Y-81992500D02*
X95370000Y-81992500D01*
X95370000Y-81992500D02*
X95370000Y-80252500D01*
X95370000Y-80252500D02*
X94930000Y-80252500D01*
G36*
X95370000Y-81992500D02*
G01*
X94930000Y-81992500D01*
X94930000Y-80252500D01*
X95370000Y-80252500D01*
X95370000Y-81992500D01*
G37*
X95370000Y-81992500D02*
X94930000Y-81992500D01*
X94930000Y-80252500D01*
X95370000Y-80252500D01*
X95370000Y-81992500D01*
X94280000Y-74652500D02*
X94280000Y-76392500D01*
X94280000Y-76392500D02*
X94720000Y-76392500D01*
X94720000Y-76392500D02*
X94720000Y-74652500D01*
X94720000Y-74652500D02*
X94280000Y-74652500D01*
G36*
X94720000Y-76392500D02*
G01*
X94280000Y-76392500D01*
X94280000Y-74652500D01*
X94720000Y-74652500D01*
X94720000Y-76392500D01*
G37*
X94720000Y-76392500D02*
X94280000Y-76392500D01*
X94280000Y-74652500D01*
X94720000Y-74652500D01*
X94720000Y-76392500D01*
X94280000Y-80252500D02*
X94280000Y-81992500D01*
X94280000Y-81992500D02*
X94720000Y-81992500D01*
X94720000Y-81992500D02*
X94720000Y-80252500D01*
X94720000Y-80252500D02*
X94280000Y-80252500D01*
G36*
X94720000Y-81992500D02*
G01*
X94280000Y-81992500D01*
X94280000Y-80252500D01*
X94720000Y-80252500D01*
X94720000Y-81992500D01*
G37*
X94720000Y-81992500D02*
X94280000Y-81992500D01*
X94280000Y-80252500D01*
X94720000Y-80252500D01*
X94720000Y-81992500D01*
%TD*%
D17*
%TO.C,H304*%
X67000000Y-47000000D03*
%TD*%
D18*
%TO.C,J5*%
X97780000Y-82095000D03*
D19*
X101336000Y-80190000D03*
X100320000Y-85270000D03*
D18*
X97780000Y-85270000D03*
X102860000Y-82095000D03*
X102860000Y-85270000D03*
D19*
X99304000Y-80190000D03*
%TD*%
D20*
%TO.C,J4*%
X84025000Y-45040000D03*
D21*
X88215000Y-45040000D03*
X92405000Y-45040000D03*
X96595000Y-45040000D03*
X100785000Y-45040000D03*
X104975000Y-45040000D03*
X104975000Y-51390000D03*
X100785000Y-51390000D03*
X96595000Y-51390000D03*
X92405000Y-51390000D03*
X88215000Y-51390000D03*
X84025000Y-51390000D03*
D20*
X49975000Y-51390000D03*
D21*
X45785000Y-51390000D03*
X41595000Y-51390000D03*
X37405000Y-51390000D03*
X33215000Y-51390000D03*
X29025000Y-51390000D03*
X29025000Y-45040000D03*
X33215000Y-45040000D03*
X37405000Y-45040000D03*
X41595000Y-45040000D03*
X45785000Y-45040000D03*
X49975000Y-45040000D03*
%TD*%
D17*
%TO.C,H302*%
X67000000Y-74000000D03*
%TD*%
D22*
%TO.C,Q7*%
X94205000Y-59800000D03*
X92935000Y-59800000D03*
X91665000Y-59800000D03*
X90395000Y-59800000D03*
X90395000Y-54650000D03*
X91665000Y-54650000D03*
X92935000Y-54650000D03*
X94205000Y-54650000D03*
%TD*%
%TO.C,Q5*%
X105255000Y-59800000D03*
X103985000Y-59800000D03*
X102715000Y-59800000D03*
X101445000Y-59800000D03*
X101445000Y-54650000D03*
X102715000Y-54650000D03*
X103985000Y-54650000D03*
X105255000Y-54650000D03*
%TD*%
D23*
%TO.C,U310*%
X50480000Y-75500000D03*
X50480000Y-77500000D03*
X50480000Y-79500000D03*
X50480000Y-81500000D03*
X50480000Y-83500000D03*
X50480000Y-85500000D03*
X50480000Y-87500000D03*
X50480000Y-89500000D03*
X35480000Y-89500000D03*
X35480000Y-87500000D03*
X35480000Y-85500000D03*
X35480000Y-83500000D03*
X35480000Y-81500000D03*
X35480000Y-79500000D03*
X35480000Y-77500000D03*
X35480000Y-75500000D03*
%TD*%
D24*
%TO.C,C302*%
X32850000Y-83587500D03*
X32850000Y-81512500D03*
%TD*%
D25*
%TO.C,R12*%
X73376667Y-62292500D03*
X73376667Y-64117500D03*
%TD*%
%TO.C,R11*%
X74546667Y-62292500D03*
X74546667Y-64117500D03*
%TD*%
D22*
%TO.C,Q2*%
X99705000Y-59800000D03*
X98435000Y-59800000D03*
X97165000Y-59800000D03*
X95895000Y-59800000D03*
X95895000Y-54650000D03*
X97165000Y-54650000D03*
X98435000Y-54650000D03*
X99705000Y-54650000D03*
%TD*%
D26*
%TO.C,J304*%
X30175000Y-87025000D03*
D27*
X31700000Y-88500000D03*
D26*
X30175000Y-89975000D03*
%TD*%
G36*
X107119388Y-68020063D02*
G01*
X107165934Y-68073672D01*
X107177346Y-68128726D01*
X107162547Y-68846468D01*
X107141145Y-68914162D01*
X107086542Y-68959539D01*
X107036442Y-68969871D01*
X97608116Y-68960019D01*
X97582621Y-68967476D01*
X96867250Y-69692259D01*
X96805161Y-69726691D01*
X96776974Y-69729747D01*
X94748113Y-69720086D01*
X94722880Y-69727365D01*
X94452589Y-70006977D01*
X94440068Y-70030862D01*
X94459590Y-73164253D01*
X94440012Y-73232497D01*
X94406302Y-73267942D01*
X92804795Y-74399546D01*
X92790908Y-74417073D01*
X92789938Y-74421987D01*
X92780663Y-76211958D01*
X92760309Y-76279974D01*
X92706413Y-76326188D01*
X92651985Y-76337276D01*
X92432778Y-76332612D01*
X92365098Y-76311166D01*
X92319757Y-76256533D01*
X92309459Y-76207196D01*
X92300280Y-74123453D01*
X92319982Y-74055245D01*
X92350815Y-74021996D01*
X93475491Y-73180851D01*
X93489168Y-73162598D01*
X93489901Y-73158435D01*
X93460447Y-69702397D01*
X93479867Y-69634108D01*
X93496839Y-69612738D01*
X94293010Y-68807415D01*
X94355127Y-68773035D01*
X94382613Y-68770000D01*
X96411885Y-68770000D01*
X96437671Y-68762428D01*
X97163250Y-68046272D01*
X97225783Y-68012655D01*
X97251635Y-68009948D01*
X107051247Y-68000129D01*
X107119388Y-68020063D01*
G37*
G36*
X93420759Y-44030002D02*
G01*
X93467252Y-44083658D01*
X93478631Y-44137355D01*
X93461536Y-45727156D01*
X93440802Y-45795058D01*
X93397361Y-45835594D01*
X92925787Y-46101111D01*
X92912698Y-46114545D01*
X92910000Y-46125411D01*
X92910000Y-46571885D01*
X92917761Y-46598315D01*
X93037639Y-46726756D01*
X93060023Y-46740000D01*
X106788087Y-46740000D01*
X106856208Y-46760002D01*
X106876846Y-46776569D01*
X109462827Y-49343106D01*
X109497087Y-49405289D01*
X109500068Y-49432374D01*
X109519932Y-64777584D01*
X109500018Y-64845730D01*
X109482870Y-64866999D01*
X106716878Y-67623252D01*
X106654506Y-67657168D01*
X106627940Y-67660000D01*
X95048115Y-67660000D01*
X95022410Y-67667548D01*
X93252844Y-69427228D01*
X93239971Y-69450646D01*
X93230168Y-73097427D01*
X93209982Y-73165493D01*
X93180044Y-73197681D01*
X91494461Y-74469092D01*
X91480710Y-74487602D01*
X91480056Y-74491318D01*
X91489370Y-76363373D01*
X91469708Y-76431593D01*
X91416284Y-76478352D01*
X91363372Y-76490000D01*
X91086580Y-76490000D01*
X91018459Y-76469998D01*
X90971966Y-76416342D01*
X90960581Y-76363422D01*
X90969718Y-74371551D01*
X90990033Y-74303523D01*
X91018724Y-74272389D01*
X92095660Y-73441070D01*
X92109474Y-73422035D01*
X92109974Y-73419122D01*
X92100124Y-69282220D01*
X92119964Y-69214052D01*
X92136852Y-69193001D01*
X94583110Y-66737036D01*
X94645355Y-66702888D01*
X94672274Y-66699955D01*
X106271884Y-66690016D01*
X106297590Y-66682444D01*
X108507162Y-64482781D01*
X108519993Y-64459408D01*
X108510012Y-49798115D01*
X108502492Y-49772566D01*
X106492875Y-47782748D01*
X106469281Y-47770016D01*
X92699769Y-47789928D01*
X92631620Y-47770024D01*
X92613615Y-47756041D01*
X91940028Y-47127359D01*
X91903876Y-47066256D01*
X91900000Y-47035246D01*
X91900000Y-46128115D01*
X91894845Y-46110559D01*
X91886093Y-46102414D01*
X91415250Y-45845591D01*
X91365025Y-45795411D01*
X91349587Y-45735676D01*
X91340704Y-44136700D01*
X91360327Y-44068469D01*
X91413724Y-44021679D01*
X91466702Y-44010000D01*
X93352638Y-44010000D01*
X93420759Y-44030002D01*
G37*
G36*
X84442121Y-52100002D02*
G01*
X84488614Y-52153658D01*
X84500000Y-52206000D01*
X84500000Y-52321885D01*
X84507530Y-52347530D01*
X84907188Y-52747188D01*
X84930615Y-52759981D01*
X90386920Y-52750096D01*
X90455077Y-52769975D01*
X90477148Y-52787914D01*
X91397322Y-53727061D01*
X91420455Y-53740000D01*
X91864676Y-53740000D01*
X91932797Y-53760002D01*
X91979290Y-53813658D01*
X91990674Y-53865323D01*
X91999319Y-55473323D01*
X91979684Y-55541550D01*
X91926279Y-55588331D01*
X91873321Y-55600000D01*
X90126000Y-55600000D01*
X90057879Y-55579998D01*
X90011386Y-55526342D01*
X90000000Y-55474000D01*
X90000000Y-53718115D01*
X89995525Y-53702876D01*
X89994135Y-53701671D01*
X89986452Y-53700000D01*
X84611454Y-53700000D01*
X84543333Y-53679998D01*
X84523254Y-53663982D01*
X83587800Y-52747051D01*
X83553153Y-52685082D01*
X83550000Y-52657069D01*
X83550000Y-52206000D01*
X83570002Y-52137879D01*
X83623658Y-52091386D01*
X83676000Y-52080000D01*
X84374000Y-52080000D01*
X84442121Y-52100002D01*
G37*
G36*
X89202891Y-44040002D02*
G01*
X89249384Y-44093658D01*
X89260768Y-44145227D01*
X89269664Y-45595309D01*
X89250080Y-45663551D01*
X89230277Y-45687595D01*
X88723156Y-46167549D01*
X88710000Y-46190143D01*
X88710000Y-47541885D01*
X88717713Y-47568154D01*
X89047550Y-47916839D01*
X89070118Y-47929988D01*
X106269831Y-47910058D01*
X106337975Y-47929981D01*
X106356478Y-47944441D01*
X108250501Y-49732707D01*
X108286301Y-49794017D01*
X108290000Y-49824324D01*
X108290000Y-63828105D01*
X108269998Y-63896226D01*
X108253453Y-63916842D01*
X105846965Y-66342737D01*
X105784789Y-66377012D01*
X105757512Y-66380000D01*
X94668115Y-66380000D01*
X94642470Y-66387530D01*
X91642812Y-69387188D01*
X91630051Y-69410556D01*
X91649692Y-73446773D01*
X91630021Y-73514990D01*
X91599492Y-73548037D01*
X90854469Y-74109103D01*
X90840705Y-74127601D01*
X90840048Y-74131319D01*
X90849466Y-76363468D01*
X90829751Y-76431673D01*
X90776292Y-76478392D01*
X90723467Y-76490000D01*
X90495650Y-76490000D01*
X90427529Y-76469998D01*
X90381036Y-76416342D01*
X90369650Y-76364351D01*
X90350146Y-69372395D01*
X90369958Y-69304219D01*
X90387051Y-69282949D01*
X94213095Y-65456905D01*
X94275407Y-65422879D01*
X94302190Y-65420000D01*
X105401885Y-65420000D01*
X105427475Y-65412486D01*
X107317225Y-63512842D01*
X107329984Y-63489329D01*
X107310027Y-50188116D01*
X107302449Y-50162449D01*
X106022812Y-48882812D01*
X105999406Y-48870031D01*
X88722022Y-48919850D01*
X88653844Y-48900045D01*
X88633026Y-48883407D01*
X87737367Y-47996982D01*
X87703020Y-47934847D01*
X87700000Y-47907426D01*
X87700000Y-46198115D01*
X87692211Y-46171588D01*
X87233546Y-45676230D01*
X87201941Y-45612657D01*
X87200000Y-45590625D01*
X87200000Y-44146000D01*
X87220002Y-44077879D01*
X87273658Y-44031386D01*
X87326000Y-44020000D01*
X89134770Y-44020000D01*
X89202891Y-44040002D01*
G37*
G36*
X85231191Y-43850237D02*
G01*
X85277897Y-43903706D01*
X85289492Y-43957009D01*
X85280495Y-46206235D01*
X85260221Y-46274275D01*
X85206379Y-46320553D01*
X85156246Y-46331719D01*
X84578112Y-46339748D01*
X84562938Y-46344434D01*
X84561452Y-46346198D01*
X84560000Y-46353103D01*
X84560000Y-47551885D01*
X84567488Y-47577387D01*
X86027102Y-49017277D01*
X86050785Y-49030000D01*
X105728371Y-49030000D01*
X105796492Y-49050002D01*
X105816784Y-49066227D01*
X107062329Y-50292900D01*
X107096828Y-50354951D01*
X107099916Y-50382873D01*
X107080083Y-62847927D01*
X107059972Y-62916016D01*
X107043178Y-62936822D01*
X104986662Y-64993338D01*
X104924350Y-65027364D01*
X104898155Y-65030242D01*
X94258114Y-65079915D01*
X94232162Y-65087667D01*
X90112950Y-69117331D01*
X90100045Y-69140360D01*
X90119698Y-73680198D01*
X90099991Y-73748404D01*
X90060982Y-73787275D01*
X89565318Y-74100326D01*
X89551613Y-74115893D01*
X89549886Y-74123529D01*
X89531050Y-76365059D01*
X89510476Y-76433009D01*
X89456431Y-76479049D01*
X89405054Y-76490000D01*
X89217142Y-76490000D01*
X89149021Y-76469998D01*
X89102528Y-76416342D01*
X89091147Y-76362863D01*
X89159537Y-68781365D01*
X89180153Y-68713428D01*
X89196245Y-68693599D01*
X93753111Y-64117048D01*
X93815349Y-64082889D01*
X93842281Y-64079951D01*
X104541885Y-64070017D01*
X104567475Y-64062477D01*
X106117230Y-62502851D01*
X106130000Y-62479287D01*
X106130000Y-50748115D01*
X106122470Y-50722470D01*
X105442812Y-50042812D01*
X105419408Y-50030032D01*
X85651325Y-50089845D01*
X85583144Y-50070050D01*
X85563175Y-50054248D01*
X83577925Y-48126821D01*
X83542983Y-48065019D01*
X83539696Y-48037143D01*
X83530104Y-46368114D01*
X83525542Y-46352901D01*
X83523998Y-46351579D01*
X83516638Y-46350000D01*
X82896503Y-46350000D01*
X82828382Y-46329998D01*
X82781889Y-46276342D01*
X82770504Y-46223498D01*
X82779502Y-43964999D01*
X82799775Y-43896958D01*
X82853616Y-43850680D01*
X82904999Y-43839502D01*
X85162991Y-43830506D01*
X85231191Y-43850237D01*
G37*
G36*
X104142688Y-51770808D02*
G01*
X104167218Y-51782089D01*
X104738605Y-52123334D01*
X104786834Y-52175434D01*
X104800000Y-52231510D01*
X104800000Y-52366671D01*
X104779998Y-52434792D01*
X104761714Y-52457126D01*
X104483006Y-52727388D01*
X104470000Y-52750359D01*
X104470000Y-53651885D01*
X104474475Y-53667124D01*
X104475865Y-53668329D01*
X104483548Y-53670000D01*
X105584000Y-53670000D01*
X105652121Y-53690002D01*
X105698614Y-53743658D01*
X105710000Y-53796000D01*
X105710000Y-55504000D01*
X105689998Y-55572121D01*
X105636342Y-55618614D01*
X105584000Y-55630000D01*
X103635616Y-55630000D01*
X103567495Y-55609998D01*
X103521002Y-55556342D01*
X103509617Y-55504384D01*
X103500152Y-52399970D01*
X103519946Y-52331789D01*
X103534137Y-52313508D01*
X104010599Y-51804187D01*
X104071743Y-51768105D01*
X104142688Y-51770808D01*
G37*
G36*
X90205720Y-50930002D02*
G01*
X90226948Y-50947159D01*
X91927226Y-52657153D01*
X91950595Y-52670000D01*
X93058340Y-52670000D01*
X93126461Y-52690002D01*
X93146792Y-52706266D01*
X93797097Y-53347282D01*
X93821060Y-53360144D01*
X94455636Y-53368385D01*
X94523491Y-53389270D01*
X94569284Y-53443525D01*
X94580000Y-53494374D01*
X94580000Y-55504000D01*
X94559998Y-55572121D01*
X94506342Y-55618614D01*
X94454000Y-55630000D01*
X92694124Y-55630000D01*
X92626003Y-55609998D01*
X92579510Y-55556342D01*
X92568138Y-55505890D01*
X92540272Y-53648114D01*
X92535569Y-53632942D01*
X92533776Y-53631435D01*
X92526931Y-53630000D01*
X91602190Y-53630000D01*
X91534069Y-53609998D01*
X91513095Y-53593095D01*
X89802812Y-51882812D01*
X89779350Y-51870000D01*
X89046000Y-51870000D01*
X88977879Y-51849998D01*
X88931386Y-51796342D01*
X88920000Y-51744000D01*
X88920000Y-51036000D01*
X88940002Y-50967879D01*
X88993658Y-50921386D01*
X89046000Y-50910000D01*
X90137599Y-50910000D01*
X90205720Y-50930002D01*
G37*
G36*
X94285931Y-50930002D02*
G01*
X94306905Y-50946905D01*
X96607188Y-53247188D01*
X96630453Y-53259892D01*
X97463235Y-53251307D01*
X97531558Y-53270605D01*
X97578602Y-53323779D01*
X97590533Y-53376771D01*
X97599466Y-55502867D01*
X97579750Y-55571071D01*
X97526290Y-55617789D01*
X97472867Y-55629395D01*
X95625400Y-55620597D01*
X95557375Y-55600270D01*
X95511138Y-55546394D01*
X95500000Y-55494598D01*
X95500000Y-53508115D01*
X95492489Y-53482535D01*
X93882849Y-51882770D01*
X93859581Y-51870158D01*
X93337909Y-51878062D01*
X93269493Y-51859094D01*
X93222192Y-51806149D01*
X93210000Y-51752076D01*
X93210000Y-51036000D01*
X93230002Y-50967879D01*
X93283658Y-50921386D01*
X93336000Y-50910000D01*
X94217810Y-50910000D01*
X94285931Y-50930002D01*
G37*
G36*
X97535931Y-51020002D02*
G01*
X97556905Y-51036905D01*
X99267188Y-52747188D01*
X99290650Y-52760000D01*
X100002638Y-52760000D01*
X100070759Y-52780002D01*
X100117252Y-52833658D01*
X100128631Y-52887355D01*
X100120003Y-53689756D01*
X100120000Y-53690264D01*
X100120000Y-55494601D01*
X100099998Y-55562722D01*
X100046342Y-55609215D01*
X99994603Y-55620600D01*
X98154391Y-55629405D01*
X98086175Y-55609729D01*
X98039426Y-55556296D01*
X98027808Y-55505626D01*
X97990000Y-53360000D01*
X97980323Y-52818112D01*
X97972214Y-52792214D01*
X97322810Y-52142810D01*
X97297606Y-52129047D01*
X97247405Y-52078844D01*
X97232014Y-52016231D01*
X97247809Y-51123770D01*
X97269013Y-51056014D01*
X97323483Y-51010478D01*
X97373789Y-51000000D01*
X97467810Y-51000000D01*
X97535931Y-51020002D01*
G37*
G36*
X101744768Y-51689296D02*
G01*
X101788435Y-51717407D01*
X102522573Y-52443008D01*
X102556962Y-52505120D01*
X102560000Y-52532623D01*
X102560000Y-53651885D01*
X102564475Y-53667124D01*
X102565865Y-53668329D01*
X102573548Y-53670000D01*
X103004000Y-53670000D01*
X103072121Y-53690002D01*
X103118614Y-53743658D01*
X103130000Y-53796000D01*
X103130000Y-55494595D01*
X103109998Y-55562716D01*
X103056342Y-55609209D01*
X103004597Y-55620594D01*
X101147889Y-55629394D01*
X101079674Y-55609715D01*
X101032928Y-55556280D01*
X101021298Y-55502116D01*
X101038734Y-53784721D01*
X101059427Y-53716807D01*
X101113552Y-53670861D01*
X101164728Y-53660000D01*
X101571885Y-53660000D01*
X101587124Y-53655525D01*
X101588329Y-53654135D01*
X101590000Y-53646452D01*
X101590000Y-52888115D01*
X101582470Y-52862470D01*
X101109758Y-52389758D01*
X101075732Y-52327446D01*
X101080797Y-52256631D01*
X101110420Y-52210910D01*
X101611429Y-51717269D01*
X101673992Y-51683706D01*
X101744768Y-51689296D01*
G37*
M02*
