%TF.GenerationSoftware,KiCad,Pcbnew,(6.0.2-0)*%
%TF.CreationDate,2022-04-27T17:33:59-06:00*%
%TF.ProjectId,haltech-adapter,68616c74-6563-4682-9d61-646170746572,rev?*%
%TF.SameCoordinates,Original*%
%TF.FileFunction,Legend,Top*%
%TF.FilePolarity,Positive*%
%FSLAX46Y46*%
G04 Gerber Fmt 4.6, Leading zero omitted, Abs format (unit mm)*
G04 Created by KiCad (PCBNEW (6.0.2-0)) date 2022-04-27 17:33:59*
%MOMM*%
%LPD*%
G01*
G04 APERTURE LIST*
%ADD10C,0.150000*%
%ADD11C,0.100000*%
%ADD12C,0.127000*%
%ADD13C,0.400000*%
%ADD14C,1.800000*%
%ADD15C,5.400000*%
%ADD16R,1.950000X1.950000*%
%ADD17C,1.950000*%
G04 APERTURE END LIST*
D10*
X42839285Y-129122547D02*
X42839285Y-128472547D01*
X43210714Y-129122547D01*
X43210714Y-128472547D01*
X43489285Y-128936833D02*
X43798809Y-128936833D01*
X43427380Y-129122547D02*
X43644047Y-128472547D01*
X43860714Y-129122547D01*
X44355952Y-128472547D02*
X44232142Y-128472547D01*
X44170238Y-128503500D01*
X44139285Y-128534452D01*
X44077380Y-128627309D01*
X44046428Y-128751119D01*
X44046428Y-128998738D01*
X44077380Y-129060642D01*
X44108333Y-129091595D01*
X44170238Y-129122547D01*
X44294047Y-129122547D01*
X44355952Y-129091595D01*
X44386904Y-129060642D01*
X44417857Y-128998738D01*
X44417857Y-128843976D01*
X44386904Y-128782071D01*
X44355952Y-128751119D01*
X44294047Y-128720166D01*
X44170238Y-128720166D01*
X44108333Y-128751119D01*
X44077380Y-128782071D01*
X44046428Y-128843976D01*
X45191666Y-129122547D02*
X45191666Y-128472547D01*
X45408333Y-128936833D01*
X45624999Y-128472547D01*
X45624999Y-129122547D01*
X45934523Y-129122547D02*
X45934523Y-128689214D01*
X45934523Y-128472547D02*
X45903571Y-128503500D01*
X45934523Y-128534452D01*
X45965476Y-128503500D01*
X45934523Y-128472547D01*
X45934523Y-128534452D01*
X46522619Y-129122547D02*
X46522619Y-128782071D01*
X46491666Y-128720166D01*
X46429761Y-128689214D01*
X46305952Y-128689214D01*
X46244047Y-128720166D01*
X46522619Y-129091595D02*
X46460714Y-129122547D01*
X46305952Y-129122547D01*
X46244047Y-129091595D01*
X46213095Y-129029690D01*
X46213095Y-128967785D01*
X46244047Y-128905880D01*
X46305952Y-128874928D01*
X46460714Y-128874928D01*
X46522619Y-128843976D01*
X46739285Y-128689214D02*
X46986904Y-128689214D01*
X46832142Y-128472547D02*
X46832142Y-129029690D01*
X46863095Y-129091595D01*
X46925000Y-129122547D01*
X46986904Y-129122547D01*
X47482142Y-129122547D02*
X47482142Y-128782071D01*
X47451190Y-128720166D01*
X47389285Y-128689214D01*
X47265476Y-128689214D01*
X47203571Y-128720166D01*
X47482142Y-129091595D02*
X47420238Y-129122547D01*
X47265476Y-129122547D01*
X47203571Y-129091595D01*
X47172619Y-129029690D01*
X47172619Y-128967785D01*
X47203571Y-128905880D01*
X47265476Y-128874928D01*
X47420238Y-128874928D01*
X47482142Y-128843976D01*
X48286904Y-129122547D02*
X48286904Y-128472547D01*
X48286904Y-128782071D02*
X48658333Y-128782071D01*
X48658333Y-129122547D02*
X48658333Y-128472547D01*
X49246428Y-129122547D02*
X49246428Y-128782071D01*
X49215476Y-128720166D01*
X49153571Y-128689214D01*
X49029761Y-128689214D01*
X48967857Y-128720166D01*
X49246428Y-129091595D02*
X49184523Y-129122547D01*
X49029761Y-129122547D01*
X48967857Y-129091595D01*
X48936904Y-129029690D01*
X48936904Y-128967785D01*
X48967857Y-128905880D01*
X49029761Y-128874928D01*
X49184523Y-128874928D01*
X49246428Y-128843976D01*
X49648809Y-129122547D02*
X49586904Y-129091595D01*
X49555952Y-129029690D01*
X49555952Y-128472547D01*
X49803571Y-128689214D02*
X50051190Y-128689214D01*
X49896428Y-128472547D02*
X49896428Y-129029690D01*
X49927380Y-129091595D01*
X49989285Y-129122547D01*
X50051190Y-129122547D01*
X50515476Y-129091595D02*
X50453571Y-129122547D01*
X50329761Y-129122547D01*
X50267857Y-129091595D01*
X50236904Y-129029690D01*
X50236904Y-128782071D01*
X50267857Y-128720166D01*
X50329761Y-128689214D01*
X50453571Y-128689214D01*
X50515476Y-128720166D01*
X50546428Y-128782071D01*
X50546428Y-128843976D01*
X50236904Y-128905880D01*
X51103571Y-129091595D02*
X51041666Y-129122547D01*
X50917857Y-129122547D01*
X50855952Y-129091595D01*
X50824999Y-129060642D01*
X50794047Y-128998738D01*
X50794047Y-128813023D01*
X50824999Y-128751119D01*
X50855952Y-128720166D01*
X50917857Y-128689214D01*
X51041666Y-128689214D01*
X51103571Y-128720166D01*
X51382142Y-129122547D02*
X51382142Y-128472547D01*
X51660714Y-129122547D02*
X51660714Y-128782071D01*
X51629761Y-128720166D01*
X51567857Y-128689214D01*
X51475000Y-128689214D01*
X51413095Y-128720166D01*
X51382142Y-128751119D01*
X52403571Y-128472547D02*
X52836904Y-128472547D01*
X52558333Y-129122547D01*
X53394047Y-128472547D02*
X53084523Y-128472547D01*
X53053571Y-128782071D01*
X53084523Y-128751119D01*
X53146428Y-128720166D01*
X53301190Y-128720166D01*
X53363095Y-128751119D01*
X53394047Y-128782071D01*
X53425000Y-128843976D01*
X53425000Y-128998738D01*
X53394047Y-129060642D01*
X53363095Y-129091595D01*
X53301190Y-129122547D01*
X53146428Y-129122547D01*
X53084523Y-129091595D01*
X53053571Y-129060642D01*
X53827380Y-128472547D02*
X53889285Y-128472547D01*
X53951190Y-128503500D01*
X53982142Y-128534452D01*
X54013095Y-128596357D01*
X54044047Y-128720166D01*
X54044047Y-128874928D01*
X54013095Y-128998738D01*
X53982142Y-129060642D01*
X53951190Y-129091595D01*
X53889285Y-129122547D01*
X53827380Y-129122547D01*
X53765476Y-129091595D01*
X53734523Y-129060642D01*
X53703571Y-128998738D01*
X53672619Y-128874928D01*
X53672619Y-128720166D01*
X53703571Y-128596357D01*
X53734523Y-128534452D01*
X53765476Y-128503500D01*
X53827380Y-128472547D01*
X54786904Y-128936833D02*
X55096428Y-128936833D01*
X54725000Y-129122547D02*
X54941666Y-128472547D01*
X55158333Y-129122547D01*
X55653571Y-129122547D02*
X55653571Y-128472547D01*
X55653571Y-129091595D02*
X55591666Y-129122547D01*
X55467857Y-129122547D01*
X55405952Y-129091595D01*
X55375000Y-129060642D01*
X55344047Y-128998738D01*
X55344047Y-128813023D01*
X55375000Y-128751119D01*
X55405952Y-128720166D01*
X55467857Y-128689214D01*
X55591666Y-128689214D01*
X55653571Y-128720166D01*
X56241666Y-129122547D02*
X56241666Y-128782071D01*
X56210714Y-128720166D01*
X56148809Y-128689214D01*
X56025000Y-128689214D01*
X55963095Y-128720166D01*
X56241666Y-129091595D02*
X56179761Y-129122547D01*
X56025000Y-129122547D01*
X55963095Y-129091595D01*
X55932142Y-129029690D01*
X55932142Y-128967785D01*
X55963095Y-128905880D01*
X56025000Y-128874928D01*
X56179761Y-128874928D01*
X56241666Y-128843976D01*
X56551190Y-128689214D02*
X56551190Y-129339214D01*
X56551190Y-128720166D02*
X56613095Y-128689214D01*
X56736904Y-128689214D01*
X56798809Y-128720166D01*
X56829761Y-128751119D01*
X56860714Y-128813023D01*
X56860714Y-128998738D01*
X56829761Y-129060642D01*
X56798809Y-129091595D01*
X56736904Y-129122547D01*
X56613095Y-129122547D01*
X56551190Y-129091595D01*
X57046428Y-128689214D02*
X57294047Y-128689214D01*
X57139285Y-128472547D02*
X57139285Y-129029690D01*
X57170238Y-129091595D01*
X57232142Y-129122547D01*
X57294047Y-129122547D01*
X57758333Y-129091595D02*
X57696428Y-129122547D01*
X57572619Y-129122547D01*
X57510714Y-129091595D01*
X57479761Y-129029690D01*
X57479761Y-128782071D01*
X57510714Y-128720166D01*
X57572619Y-128689214D01*
X57696428Y-128689214D01*
X57758333Y-128720166D01*
X57789285Y-128782071D01*
X57789285Y-128843976D01*
X57479761Y-128905880D01*
X58067857Y-129122547D02*
X58067857Y-128689214D01*
X58067857Y-128813023D02*
X58098809Y-128751119D01*
X58129761Y-128720166D01*
X58191666Y-128689214D01*
X58253571Y-128689214D01*
X42344047Y-130169047D02*
X42344047Y-129519047D01*
X42498809Y-129519047D01*
X42591666Y-129550000D01*
X42653571Y-129611904D01*
X42684523Y-129673809D01*
X42715476Y-129797619D01*
X42715476Y-129890476D01*
X42684523Y-130014285D01*
X42653571Y-130076190D01*
X42591666Y-130138095D01*
X42498809Y-130169047D01*
X42344047Y-130169047D01*
X43241666Y-130138095D02*
X43179761Y-130169047D01*
X43055952Y-130169047D01*
X42994047Y-130138095D01*
X42963095Y-130076190D01*
X42963095Y-129828571D01*
X42994047Y-129766666D01*
X43055952Y-129735714D01*
X43179761Y-129735714D01*
X43241666Y-129766666D01*
X43272619Y-129828571D01*
X43272619Y-129890476D01*
X42963095Y-129952380D01*
X43520238Y-130138095D02*
X43582142Y-130169047D01*
X43705952Y-130169047D01*
X43767857Y-130138095D01*
X43798809Y-130076190D01*
X43798809Y-130045238D01*
X43767857Y-129983333D01*
X43705952Y-129952380D01*
X43613095Y-129952380D01*
X43551190Y-129921428D01*
X43520238Y-129859523D01*
X43520238Y-129828571D01*
X43551190Y-129766666D01*
X43613095Y-129735714D01*
X43705952Y-129735714D01*
X43767857Y-129766666D01*
X44077380Y-130169047D02*
X44077380Y-129735714D01*
X44077380Y-129519047D02*
X44046428Y-129550000D01*
X44077380Y-129580952D01*
X44108333Y-129550000D01*
X44077380Y-129519047D01*
X44077380Y-129580952D01*
X44665476Y-129735714D02*
X44665476Y-130261904D01*
X44634523Y-130323809D01*
X44603571Y-130354761D01*
X44541666Y-130385714D01*
X44448809Y-130385714D01*
X44386904Y-130354761D01*
X44665476Y-130138095D02*
X44603571Y-130169047D01*
X44479761Y-130169047D01*
X44417857Y-130138095D01*
X44386904Y-130107142D01*
X44355952Y-130045238D01*
X44355952Y-129859523D01*
X44386904Y-129797619D01*
X44417857Y-129766666D01*
X44479761Y-129735714D01*
X44603571Y-129735714D01*
X44665476Y-129766666D01*
X44975000Y-129735714D02*
X44975000Y-130169047D01*
X44975000Y-129797619D02*
X45005952Y-129766666D01*
X45067857Y-129735714D01*
X45160714Y-129735714D01*
X45222619Y-129766666D01*
X45253571Y-129828571D01*
X45253571Y-130169047D01*
X45810714Y-130138095D02*
X45748809Y-130169047D01*
X45625000Y-130169047D01*
X45563095Y-130138095D01*
X45532142Y-130076190D01*
X45532142Y-129828571D01*
X45563095Y-129766666D01*
X45625000Y-129735714D01*
X45748809Y-129735714D01*
X45810714Y-129766666D01*
X45841666Y-129828571D01*
X45841666Y-129890476D01*
X45532142Y-129952380D01*
X46398809Y-130169047D02*
X46398809Y-129519047D01*
X46398809Y-130138095D02*
X46336904Y-130169047D01*
X46213095Y-130169047D01*
X46151190Y-130138095D01*
X46120238Y-130107142D01*
X46089285Y-130045238D01*
X46089285Y-129859523D01*
X46120238Y-129797619D01*
X46151190Y-129766666D01*
X46213095Y-129735714D01*
X46336904Y-129735714D01*
X46398809Y-129766666D01*
X47203571Y-130169047D02*
X47203571Y-129519047D01*
X47203571Y-129766666D02*
X47265476Y-129735714D01*
X47389285Y-129735714D01*
X47451190Y-129766666D01*
X47482142Y-129797619D01*
X47513095Y-129859523D01*
X47513095Y-130045238D01*
X47482142Y-130107142D01*
X47451190Y-130138095D01*
X47389285Y-130169047D01*
X47265476Y-130169047D01*
X47203571Y-130138095D01*
X47729761Y-129735714D02*
X47884523Y-130169047D01*
X48039285Y-129735714D02*
X47884523Y-130169047D01*
X47822619Y-130323809D01*
X47791666Y-130354761D01*
X47729761Y-130385714D01*
X49153571Y-130107142D02*
X49122619Y-130138095D01*
X49029761Y-130169047D01*
X48967857Y-130169047D01*
X48875000Y-130138095D01*
X48813095Y-130076190D01*
X48782142Y-130014285D01*
X48751190Y-129890476D01*
X48751190Y-129797619D01*
X48782142Y-129673809D01*
X48813095Y-129611904D01*
X48875000Y-129550000D01*
X48967857Y-129519047D01*
X49029761Y-129519047D01*
X49122619Y-129550000D01*
X49153571Y-129580952D01*
X49525000Y-130169047D02*
X49463095Y-130138095D01*
X49432142Y-130107142D01*
X49401190Y-130045238D01*
X49401190Y-129859523D01*
X49432142Y-129797619D01*
X49463095Y-129766666D01*
X49525000Y-129735714D01*
X49617857Y-129735714D01*
X49679761Y-129766666D01*
X49710714Y-129797619D01*
X49741666Y-129859523D01*
X49741666Y-130045238D01*
X49710714Y-130107142D01*
X49679761Y-130138095D01*
X49617857Y-130169047D01*
X49525000Y-130169047D01*
X50020238Y-129735714D02*
X50020238Y-130169047D01*
X50020238Y-129797619D02*
X50051190Y-129766666D01*
X50113095Y-129735714D01*
X50205952Y-129735714D01*
X50267857Y-129766666D01*
X50298809Y-129828571D01*
X50298809Y-130169047D01*
X50608333Y-129735714D02*
X50608333Y-130169047D01*
X50608333Y-129797619D02*
X50639285Y-129766666D01*
X50701190Y-129735714D01*
X50794047Y-129735714D01*
X50855952Y-129766666D01*
X50886904Y-129828571D01*
X50886904Y-130169047D01*
X51289285Y-130169047D02*
X51227380Y-130138095D01*
X51196428Y-130107142D01*
X51165476Y-130045238D01*
X51165476Y-129859523D01*
X51196428Y-129797619D01*
X51227380Y-129766666D01*
X51289285Y-129735714D01*
X51382142Y-129735714D01*
X51444047Y-129766666D01*
X51475000Y-129797619D01*
X51505952Y-129859523D01*
X51505952Y-130045238D01*
X51475000Y-130107142D01*
X51444047Y-130138095D01*
X51382142Y-130169047D01*
X51289285Y-130169047D01*
X51784523Y-130169047D02*
X51784523Y-129735714D01*
X51784523Y-129859523D02*
X51815476Y-129797619D01*
X51846428Y-129766666D01*
X51908333Y-129735714D01*
X51970238Y-129735714D01*
X53053571Y-130169047D02*
X52836904Y-129859523D01*
X52682142Y-130169047D02*
X52682142Y-129519047D01*
X52929761Y-129519047D01*
X52991666Y-129550000D01*
X53022619Y-129580952D01*
X53053571Y-129642857D01*
X53053571Y-129735714D01*
X53022619Y-129797619D01*
X52991666Y-129828571D01*
X52929761Y-129859523D01*
X52682142Y-129859523D01*
X53332142Y-130169047D02*
X53332142Y-129735714D01*
X53332142Y-129519047D02*
X53301190Y-129550000D01*
X53332142Y-129580952D01*
X53363095Y-129550000D01*
X53332142Y-129519047D01*
X53332142Y-129580952D01*
X53920238Y-129735714D02*
X53920238Y-130261904D01*
X53889285Y-130323809D01*
X53858333Y-130354761D01*
X53796428Y-130385714D01*
X53703571Y-130385714D01*
X53641666Y-130354761D01*
X53920238Y-130138095D02*
X53858333Y-130169047D01*
X53734523Y-130169047D01*
X53672619Y-130138095D01*
X53641666Y-130107142D01*
X53610714Y-130045238D01*
X53610714Y-129859523D01*
X53641666Y-129797619D01*
X53672619Y-129766666D01*
X53734523Y-129735714D01*
X53858333Y-129735714D01*
X53920238Y-129766666D01*
X54229761Y-130169047D02*
X54229761Y-129519047D01*
X54229761Y-129766666D02*
X54291666Y-129735714D01*
X54415476Y-129735714D01*
X54477380Y-129766666D01*
X54508333Y-129797619D01*
X54539285Y-129859523D01*
X54539285Y-130045238D01*
X54508333Y-130107142D01*
X54477380Y-130138095D01*
X54415476Y-130169047D01*
X54291666Y-130169047D01*
X54229761Y-130138095D01*
X54755952Y-129735714D02*
X54910714Y-130169047D01*
X55065476Y-129735714D02*
X54910714Y-130169047D01*
X54848809Y-130323809D01*
X54817857Y-130354761D01*
X54755952Y-130385714D01*
X55932142Y-129519047D02*
X55994047Y-129519047D01*
X56055952Y-129550000D01*
X56086904Y-129580952D01*
X56117857Y-129642857D01*
X56148809Y-129766666D01*
X56148809Y-129921428D01*
X56117857Y-130045238D01*
X56086904Y-130107142D01*
X56055952Y-130138095D01*
X55994047Y-130169047D01*
X55932142Y-130169047D01*
X55870238Y-130138095D01*
X55839285Y-130107142D01*
X55808333Y-130045238D01*
X55777380Y-129921428D01*
X55777380Y-129766666D01*
X55808333Y-129642857D01*
X55839285Y-129580952D01*
X55870238Y-129550000D01*
X55932142Y-129519047D01*
X56705952Y-129735714D02*
X56705952Y-130169047D01*
X56551190Y-129488095D02*
X56396428Y-129952380D01*
X56798809Y-129952380D01*
X57510714Y-129488095D02*
X56953571Y-130323809D01*
X57696428Y-129580952D02*
X57727380Y-129550000D01*
X57789285Y-129519047D01*
X57944047Y-129519047D01*
X58005952Y-129550000D01*
X58036904Y-129580952D01*
X58067857Y-129642857D01*
X58067857Y-129704761D01*
X58036904Y-129797619D01*
X57665476Y-130169047D01*
X58067857Y-130169047D01*
X58315476Y-129580952D02*
X58346428Y-129550000D01*
X58408333Y-129519047D01*
X58563095Y-129519047D01*
X58625000Y-129550000D01*
X58655952Y-129580952D01*
X58686904Y-129642857D01*
X58686904Y-129704761D01*
X58655952Y-129797619D01*
X58284523Y-130169047D01*
X58686904Y-130169047D01*
X45888095Y-131215547D02*
X45888095Y-130565547D01*
X46166666Y-131215547D02*
X46166666Y-130875071D01*
X46135714Y-130813166D01*
X46073809Y-130782214D01*
X45980952Y-130782214D01*
X45919047Y-130813166D01*
X45888095Y-130844119D01*
X46383333Y-130782214D02*
X46630952Y-130782214D01*
X46476190Y-130565547D02*
X46476190Y-131122690D01*
X46507142Y-131184595D01*
X46569047Y-131215547D01*
X46630952Y-131215547D01*
X46754761Y-130782214D02*
X47002380Y-130782214D01*
X46847619Y-130565547D02*
X46847619Y-131122690D01*
X46878571Y-131184595D01*
X46940476Y-131215547D01*
X47002380Y-131215547D01*
X47219047Y-130782214D02*
X47219047Y-131432214D01*
X47219047Y-130813166D02*
X47280952Y-130782214D01*
X47404761Y-130782214D01*
X47466666Y-130813166D01*
X47497619Y-130844119D01*
X47528571Y-130906023D01*
X47528571Y-131091738D01*
X47497619Y-131153642D01*
X47466666Y-131184595D01*
X47404761Y-131215547D01*
X47280952Y-131215547D01*
X47219047Y-131184595D01*
X47776190Y-131184595D02*
X47838095Y-131215547D01*
X47961904Y-131215547D01*
X48023809Y-131184595D01*
X48054761Y-131122690D01*
X48054761Y-131091738D01*
X48023809Y-131029833D01*
X47961904Y-130998880D01*
X47869047Y-130998880D01*
X47807142Y-130967928D01*
X47776190Y-130906023D01*
X47776190Y-130875071D01*
X47807142Y-130813166D01*
X47869047Y-130782214D01*
X47961904Y-130782214D01*
X48023809Y-130813166D01*
X48333333Y-131153642D02*
X48364285Y-131184595D01*
X48333333Y-131215547D01*
X48302380Y-131184595D01*
X48333333Y-131153642D01*
X48333333Y-131215547D01*
X48333333Y-130813166D02*
X48364285Y-130844119D01*
X48333333Y-130875071D01*
X48302380Y-130844119D01*
X48333333Y-130813166D01*
X48333333Y-130875071D01*
X49107142Y-130534595D02*
X48549999Y-131370309D01*
X49788095Y-130534595D02*
X49230952Y-131370309D01*
X50283333Y-131184595D02*
X50221428Y-131215547D01*
X50097619Y-131215547D01*
X50035714Y-131184595D01*
X50004761Y-131153642D01*
X49973809Y-131091738D01*
X49973809Y-130906023D01*
X50004761Y-130844119D01*
X50035714Y-130813166D01*
X50097619Y-130782214D01*
X50221428Y-130782214D01*
X50283333Y-130813166D01*
X50654761Y-131215547D02*
X50592857Y-131184595D01*
X50561904Y-131153642D01*
X50530952Y-131091738D01*
X50530952Y-130906023D01*
X50561904Y-130844119D01*
X50592857Y-130813166D01*
X50654761Y-130782214D01*
X50747619Y-130782214D01*
X50809523Y-130813166D01*
X50840476Y-130844119D01*
X50871428Y-130906023D01*
X50871428Y-131091738D01*
X50840476Y-131153642D01*
X50809523Y-131184595D01*
X50747619Y-131215547D01*
X50654761Y-131215547D01*
X51149999Y-130782214D02*
X51149999Y-131215547D01*
X51149999Y-130844119D02*
X51180952Y-130813166D01*
X51242857Y-130782214D01*
X51335714Y-130782214D01*
X51397619Y-130813166D01*
X51428571Y-130875071D01*
X51428571Y-131215547D01*
X51985714Y-131184595D02*
X51923809Y-131215547D01*
X51799999Y-131215547D01*
X51738095Y-131184595D01*
X51707142Y-131122690D01*
X51707142Y-130875071D01*
X51738095Y-130813166D01*
X51799999Y-130782214D01*
X51923809Y-130782214D01*
X51985714Y-130813166D01*
X52016666Y-130875071D01*
X52016666Y-130936976D01*
X51707142Y-130998880D01*
X52295238Y-131153642D02*
X52326190Y-131184595D01*
X52295238Y-131215547D01*
X52264285Y-131184595D01*
X52295238Y-131153642D01*
X52295238Y-131215547D01*
X52883333Y-131184595D02*
X52821428Y-131215547D01*
X52697619Y-131215547D01*
X52635714Y-131184595D01*
X52604761Y-131153642D01*
X52573809Y-131091738D01*
X52573809Y-130906023D01*
X52604761Y-130844119D01*
X52635714Y-130813166D01*
X52697619Y-130782214D01*
X52821428Y-130782214D01*
X52883333Y-130813166D01*
X53254761Y-131215547D02*
X53192857Y-131184595D01*
X53161904Y-131153642D01*
X53130952Y-131091738D01*
X53130952Y-130906023D01*
X53161904Y-130844119D01*
X53192857Y-130813166D01*
X53254761Y-130782214D01*
X53347619Y-130782214D01*
X53409523Y-130813166D01*
X53440476Y-130844119D01*
X53471428Y-130906023D01*
X53471428Y-131091738D01*
X53440476Y-131153642D01*
X53409523Y-131184595D01*
X53347619Y-131215547D01*
X53254761Y-131215547D01*
X54028571Y-131215547D02*
X54028571Y-130565547D01*
X54028571Y-131184595D02*
X53966666Y-131215547D01*
X53842857Y-131215547D01*
X53780952Y-131184595D01*
X53749999Y-131153642D01*
X53719047Y-131091738D01*
X53719047Y-130906023D01*
X53749999Y-130844119D01*
X53780952Y-130813166D01*
X53842857Y-130782214D01*
X53966666Y-130782214D01*
X54028571Y-130813166D01*
X54585714Y-131184595D02*
X54523809Y-131215547D01*
X54399999Y-131215547D01*
X54338095Y-131184595D01*
X54307142Y-131122690D01*
X54307142Y-130875071D01*
X54338095Y-130813166D01*
X54399999Y-130782214D01*
X54523809Y-130782214D01*
X54585714Y-130813166D01*
X54616666Y-130875071D01*
X54616666Y-130936976D01*
X54307142Y-130998880D01*
X54864285Y-131184595D02*
X54926190Y-131215547D01*
X55049999Y-131215547D01*
X55111904Y-131184595D01*
X55142857Y-131122690D01*
X55142857Y-131091738D01*
X55111904Y-131029833D01*
X55049999Y-130998880D01*
X54957142Y-130998880D01*
X54895238Y-130967928D01*
X54864285Y-130906023D01*
X54864285Y-130875071D01*
X54895238Y-130813166D01*
X54957142Y-130782214D01*
X55049999Y-130782214D01*
X55111904Y-130813166D01*
%TO.C,G\u002A\u002A\u002A*%
G36*
X72493932Y-40572540D02*
G01*
X72599368Y-40587459D01*
X72684476Y-40612132D01*
X72739762Y-40633672D01*
X72780316Y-40655863D01*
X72817237Y-40686336D01*
X72861624Y-40732717D01*
X72864457Y-40735831D01*
X72922281Y-40806981D01*
X72959574Y-40872382D01*
X72970865Y-40901242D01*
X72988362Y-40980594D01*
X72995381Y-41079963D01*
X72992087Y-41190594D01*
X72978645Y-41303730D01*
X72961792Y-41385798D01*
X72953229Y-41412632D01*
X72934406Y-41466245D01*
X72906030Y-41544767D01*
X72868811Y-41646328D01*
X72823458Y-41769059D01*
X72770679Y-41911089D01*
X72711184Y-42070549D01*
X72645679Y-42245571D01*
X72574875Y-42434282D01*
X72499480Y-42634816D01*
X72420202Y-42845301D01*
X72337751Y-43063868D01*
X72252834Y-43288647D01*
X72166162Y-43517769D01*
X72078441Y-43749364D01*
X71990381Y-43981561D01*
X71902691Y-44212493D01*
X71816079Y-44440289D01*
X71731254Y-44663080D01*
X71648925Y-44878994D01*
X71569800Y-45086164D01*
X71494588Y-45282720D01*
X71423997Y-45466791D01*
X71358736Y-45636509D01*
X71299515Y-45790002D01*
X71247040Y-45925403D01*
X71202023Y-46040841D01*
X71165170Y-46134446D01*
X71137191Y-46204349D01*
X71118794Y-46248681D01*
X71117166Y-46252416D01*
X70998071Y-46498912D01*
X70852282Y-46757822D01*
X70680573Y-47027909D01*
X70483725Y-47307937D01*
X70304723Y-47543311D01*
X70257562Y-47600043D01*
X70191720Y-47674506D01*
X70110630Y-47763173D01*
X70017726Y-47862517D01*
X69916439Y-47969008D01*
X69810205Y-48079120D01*
X69702455Y-48189323D01*
X69596625Y-48296091D01*
X69496146Y-48395895D01*
X69404454Y-48485208D01*
X69324979Y-48560502D01*
X69261157Y-48618249D01*
X69245579Y-48631620D01*
X68972461Y-48852307D01*
X68698754Y-49054415D01*
X68427383Y-49236067D01*
X68161274Y-49395387D01*
X67903352Y-49530498D01*
X67706236Y-49619329D01*
X67673653Y-49632368D01*
X67614675Y-49655409D01*
X67531219Y-49687725D01*
X67425206Y-49728582D01*
X67298557Y-49777251D01*
X67153191Y-49833000D01*
X66991027Y-49895100D01*
X66813988Y-49962817D01*
X66623991Y-50035424D01*
X66422958Y-50112186D01*
X66212807Y-50192374D01*
X65995460Y-50275259D01*
X65772835Y-50360107D01*
X65546854Y-50446190D01*
X65319436Y-50532775D01*
X65092502Y-50619131D01*
X64867969Y-50704529D01*
X64647760Y-50788236D01*
X64433795Y-50869523D01*
X64227993Y-50947658D01*
X64032273Y-51021911D01*
X63848556Y-51091550D01*
X63678763Y-51155845D01*
X63524813Y-51214064D01*
X63388625Y-51265478D01*
X63272122Y-51309355D01*
X63177219Y-51344963D01*
X63105842Y-51371574D01*
X63059906Y-51388455D01*
X63044282Y-51393970D01*
X62892224Y-51436032D01*
X62744019Y-51460703D01*
X62605364Y-51467543D01*
X62481952Y-51456119D01*
X62421600Y-51441575D01*
X62378406Y-51425141D01*
X62339156Y-51401485D01*
X62295137Y-51364571D01*
X62256368Y-51327161D01*
X62207531Y-51276488D01*
X62175137Y-51235729D01*
X62152418Y-51194744D01*
X62132603Y-51143395D01*
X62131466Y-51140079D01*
X62108873Y-51041933D01*
X62099568Y-50923656D01*
X62103641Y-50792810D01*
X62121181Y-50656954D01*
X62125492Y-50633991D01*
X62150626Y-50528252D01*
X62186959Y-50404943D01*
X62231211Y-50273537D01*
X62280100Y-50143505D01*
X62330345Y-50024323D01*
X62354580Y-49972521D01*
X62378250Y-49925154D01*
X62413370Y-49856521D01*
X62458667Y-49769016D01*
X62512867Y-49665040D01*
X62574696Y-49546987D01*
X62642881Y-49417255D01*
X62716148Y-49278241D01*
X62793222Y-49132340D01*
X62872832Y-48981950D01*
X62953701Y-48829468D01*
X63034560Y-48677289D01*
X63114130Y-48527812D01*
X63191141Y-48383432D01*
X63264317Y-48246547D01*
X63332386Y-48119552D01*
X63394073Y-48004845D01*
X63448106Y-47904822D01*
X63493210Y-47821882D01*
X63528112Y-47758418D01*
X63551537Y-47716829D01*
X63562213Y-47699512D01*
X63562707Y-47699173D01*
X63570529Y-47714065D01*
X63590213Y-47754041D01*
X63620491Y-47816466D01*
X63660097Y-47898697D01*
X63707762Y-47998098D01*
X63762220Y-48112029D01*
X63822204Y-48237850D01*
X63886446Y-48372923D01*
X63904742Y-48411449D01*
X63982178Y-48574524D01*
X64047816Y-48712218D01*
X64103092Y-48826826D01*
X64149438Y-48920641D01*
X64188289Y-48995960D01*
X64221077Y-49055079D01*
X64249234Y-49100291D01*
X64274198Y-49133893D01*
X64297398Y-49158178D01*
X64320270Y-49175442D01*
X64344247Y-49187981D01*
X64370763Y-49198090D01*
X64401250Y-49208063D01*
X64402556Y-49208486D01*
X64489143Y-49226419D01*
X64595953Y-49232353D01*
X64714986Y-49226317D01*
X64838244Y-49208337D01*
X64845103Y-49206978D01*
X65039561Y-49156986D01*
X65249459Y-49082650D01*
X65473259Y-48985174D01*
X65709420Y-48865760D01*
X65956405Y-48725614D01*
X66212674Y-48565938D01*
X66476688Y-48387938D01*
X66746907Y-48192817D01*
X67021792Y-47981779D01*
X67299806Y-47756029D01*
X67579407Y-47516768D01*
X67859058Y-47265203D01*
X68137219Y-47002538D01*
X68412351Y-46729974D01*
X68682915Y-46448718D01*
X68947371Y-46159972D01*
X69204182Y-45864941D01*
X69366332Y-45670306D01*
X69600657Y-45375433D01*
X69815635Y-45087387D01*
X70010553Y-44807404D01*
X70184707Y-44536720D01*
X70337386Y-44276569D01*
X70467883Y-44028190D01*
X70575490Y-43792815D01*
X70659497Y-43571683D01*
X70719198Y-43366027D01*
X70738395Y-43276470D01*
X70752336Y-43159684D01*
X70751512Y-43043968D01*
X70736925Y-42935813D01*
X70709572Y-42841711D01*
X70670453Y-42768150D01*
X70657693Y-42752304D01*
X70634584Y-42735169D01*
X70585573Y-42706695D01*
X70510303Y-42666703D01*
X70408423Y-42615013D01*
X70279579Y-42551447D01*
X70123418Y-42475826D01*
X69939586Y-42387970D01*
X69926823Y-42381903D01*
X69790871Y-42317043D01*
X69663712Y-42255861D01*
X69547971Y-42199661D01*
X69446274Y-42149740D01*
X69361245Y-42107397D01*
X69295510Y-42073933D01*
X69251693Y-42050646D01*
X69232421Y-42038836D01*
X69231736Y-42037897D01*
X69244913Y-42028950D01*
X69282842Y-42007012D01*
X69343121Y-41973365D01*
X69423347Y-41929286D01*
X69521116Y-41876057D01*
X69634024Y-41814955D01*
X69759671Y-41747262D01*
X69895651Y-41674256D01*
X70039563Y-41597218D01*
X70189003Y-41517427D01*
X70341568Y-41436162D01*
X70494855Y-41354704D01*
X70646462Y-41274332D01*
X70793984Y-41196324D01*
X70935020Y-41121961D01*
X71067166Y-41052523D01*
X71188019Y-40989289D01*
X71295176Y-40933539D01*
X71386234Y-40886551D01*
X71458790Y-40849607D01*
X71510440Y-40823987D01*
X71519923Y-40819444D01*
X71635545Y-40768666D01*
X71763558Y-40719194D01*
X71895990Y-40673618D01*
X72024863Y-40634527D01*
X72142208Y-40604509D01*
X72237168Y-40586553D01*
X72375605Y-40572375D01*
X72493932Y-40572540D01*
G37*
G36*
X59764808Y-37547385D02*
G01*
X59781406Y-37554554D01*
X59823922Y-37574062D01*
X59890572Y-37605069D01*
X59979575Y-37646734D01*
X60089146Y-37698216D01*
X60217505Y-37758674D01*
X60362868Y-37827268D01*
X60523450Y-37903158D01*
X60697472Y-37985500D01*
X60883149Y-38073456D01*
X61078699Y-38166186D01*
X61282338Y-38262847D01*
X61344924Y-38292572D01*
X62902341Y-39032401D01*
X62922985Y-39090333D01*
X62935079Y-39166523D01*
X62924355Y-39260903D01*
X62891487Y-39371941D01*
X62837152Y-39498099D01*
X62762022Y-39637843D01*
X62666773Y-39789638D01*
X62552079Y-39951949D01*
X62533271Y-39977066D01*
X62496857Y-40023250D01*
X62446451Y-40084283D01*
X62385968Y-40155701D01*
X62319326Y-40233041D01*
X62250443Y-40311842D01*
X62183236Y-40387640D01*
X62121621Y-40455973D01*
X62069517Y-40512379D01*
X62030839Y-40552394D01*
X62015735Y-40566656D01*
X61996363Y-40583855D01*
X61958990Y-40617304D01*
X61908400Y-40662710D01*
X61849379Y-40715784D01*
X61827053Y-40735882D01*
X61658867Y-40881172D01*
X61495045Y-41010657D01*
X61337388Y-41123385D01*
X61187697Y-41218403D01*
X61047776Y-41294756D01*
X60919425Y-41351492D01*
X60804448Y-41387658D01*
X60704646Y-41402300D01*
X60621821Y-41394466D01*
X60597425Y-41386339D01*
X60589192Y-41382566D01*
X60580887Y-41377174D01*
X60571749Y-41368643D01*
X60561017Y-41355452D01*
X60547928Y-41336080D01*
X60531724Y-41309005D01*
X60511640Y-41272710D01*
X60486916Y-41225671D01*
X60456789Y-41166368D01*
X60420501Y-41093282D01*
X60377287Y-41004891D01*
X60326388Y-40899675D01*
X60267040Y-40776112D01*
X60198484Y-40632682D01*
X60119957Y-40467865D01*
X60030698Y-40280139D01*
X59929946Y-40067985D01*
X59816938Y-39829881D01*
X59797219Y-39788325D01*
X59699166Y-39581654D01*
X59604853Y-39382781D01*
X59515107Y-39193453D01*
X59430753Y-39015420D01*
X59352622Y-38850430D01*
X59281537Y-38700232D01*
X59218326Y-38566574D01*
X59163818Y-38451204D01*
X59118840Y-38355871D01*
X59084217Y-38282324D01*
X59060777Y-38232310D01*
X59049347Y-38207579D01*
X59048325Y-38205165D01*
X59061085Y-38200529D01*
X59091899Y-38198655D01*
X59127071Y-38191638D01*
X59178288Y-38173156D01*
X59235016Y-38147063D01*
X59240123Y-38144426D01*
X59287358Y-38118196D01*
X59329474Y-38090264D01*
X59372778Y-38055526D01*
X59423579Y-38008881D01*
X59488188Y-37945225D01*
X59495459Y-37937922D01*
X59597194Y-37828975D01*
X59671781Y-37734087D01*
X59719200Y-37653290D01*
X59739427Y-37586615D01*
X59740044Y-37579245D01*
X59745590Y-37551586D01*
X59761530Y-37546708D01*
X59764808Y-37547385D01*
G37*
G36*
X65382363Y-40200432D02*
G01*
X65402895Y-40210189D01*
X65449204Y-40232162D01*
X65519345Y-40265429D01*
X65611374Y-40309069D01*
X65723348Y-40362159D01*
X65853321Y-40423778D01*
X65999350Y-40493003D01*
X66159490Y-40568915D01*
X66331797Y-40650589D01*
X66514328Y-40737107D01*
X66705138Y-40827543D01*
X66817519Y-40880806D01*
X67011364Y-40972751D01*
X67197435Y-41061153D01*
X67373850Y-41145109D01*
X67538727Y-41223716D01*
X67690182Y-41296073D01*
X67826334Y-41361278D01*
X67945300Y-41418427D01*
X68045197Y-41466618D01*
X68124145Y-41504950D01*
X68180259Y-41532520D01*
X68211657Y-41548426D01*
X68217856Y-41552002D01*
X68230059Y-41573043D01*
X68247961Y-41614019D01*
X68266285Y-41662236D01*
X68290381Y-41772483D01*
X68291313Y-41900971D01*
X68269691Y-42046559D01*
X68226129Y-42208103D01*
X68161239Y-42384464D01*
X68075633Y-42574499D01*
X67969923Y-42777067D01*
X67844723Y-42991026D01*
X67700644Y-43215234D01*
X67538298Y-43448550D01*
X67358298Y-43689832D01*
X67161256Y-43937939D01*
X66947784Y-44191728D01*
X66849087Y-44304589D01*
X66800050Y-44358354D01*
X66732984Y-44429469D01*
X66651583Y-44514211D01*
X66559546Y-44608856D01*
X66460566Y-44709678D01*
X66358340Y-44812953D01*
X66256564Y-44914955D01*
X66158933Y-45011961D01*
X66069144Y-45100245D01*
X65990892Y-45176083D01*
X65927873Y-45235752D01*
X65898373Y-45262722D01*
X65639345Y-45487935D01*
X65382951Y-45698224D01*
X65130762Y-45892630D01*
X64884347Y-46070192D01*
X64645276Y-46229949D01*
X64415120Y-46370944D01*
X64195448Y-46492213D01*
X63987830Y-46592796D01*
X63793837Y-46671736D01*
X63615037Y-46728070D01*
X63453001Y-46760838D01*
X63448058Y-46761494D01*
X63319069Y-46767155D01*
X63204472Y-46749266D01*
X63122276Y-46716625D01*
X63112820Y-46711215D01*
X63103516Y-46704479D01*
X63093557Y-46694811D01*
X63082133Y-46680603D01*
X63068436Y-46660249D01*
X63051658Y-46632140D01*
X63030990Y-46594671D01*
X63005622Y-46546235D01*
X62974747Y-46485223D01*
X62937555Y-46410030D01*
X62893240Y-46319048D01*
X62840991Y-46210670D01*
X62779999Y-46083290D01*
X62709457Y-45935299D01*
X62628556Y-45765093D01*
X62536487Y-45571062D01*
X62432442Y-45351600D01*
X62384160Y-45249731D01*
X62274815Y-45018996D01*
X62177923Y-44814419D01*
X62092789Y-44634439D01*
X62018721Y-44477498D01*
X61955026Y-44342037D01*
X61901008Y-44226497D01*
X61855975Y-44129316D01*
X61819234Y-44048938D01*
X61790091Y-43983802D01*
X61767852Y-43932350D01*
X61751824Y-43893020D01*
X61741312Y-43864255D01*
X61735625Y-43844495D01*
X61734067Y-43832181D01*
X61735947Y-43825753D01*
X61740569Y-43823652D01*
X61747242Y-43824319D01*
X61750506Y-43825054D01*
X61843008Y-43834873D01*
X61954749Y-43826172D01*
X62081324Y-43799978D01*
X62218330Y-43757319D01*
X62361362Y-43699220D01*
X62429778Y-43666693D01*
X62647420Y-43547688D01*
X62874783Y-43403601D01*
X63108869Y-43237264D01*
X63346680Y-43051511D01*
X63585218Y-42849175D01*
X63821485Y-42633089D01*
X64052484Y-42406086D01*
X64275215Y-42171000D01*
X64486684Y-41930663D01*
X64683891Y-41687908D01*
X64863838Y-41445570D01*
X65009534Y-41228624D01*
X65120096Y-41044101D01*
X65210551Y-40870457D01*
X65280327Y-40709311D01*
X65328855Y-40562284D01*
X65355564Y-40430994D01*
X65359884Y-40317062D01*
X65351470Y-40257613D01*
X65333295Y-40176985D01*
X65382363Y-40200432D01*
G37*
D11*
%TO.C,J2*%
X25550000Y-17950000D02*
X13450000Y-17950000D01*
X25550000Y-126950000D02*
X13450000Y-126950000D01*
X13450000Y-126950000D02*
X13450000Y-17950000D01*
X31950000Y-17950000D02*
X31950000Y-126950000D01*
D12*
%TO.C,J1*%
X49178509Y-56557040D02*
X49178509Y-95057040D01*
X49180949Y-95059640D02*
X62928509Y-95059640D01*
X62928509Y-98557040D02*
X69928509Y-98557040D01*
X62928509Y-53057040D02*
X62928509Y-56557040D01*
X85678509Y-95057040D02*
X85678509Y-56557040D01*
X69928509Y-56557040D02*
X69928509Y-53057040D01*
X62928509Y-56557040D02*
X49178509Y-56557040D01*
X62928509Y-95059640D02*
X62928509Y-98557040D01*
X85678509Y-56557040D02*
X69928509Y-56557040D01*
X69928509Y-53057040D02*
X62928509Y-53057040D01*
X69928509Y-95057040D02*
X85678509Y-95057040D01*
X69928509Y-98557040D02*
X69928509Y-95057040D01*
D13*
X51980509Y-96961540D02*
G75*
G03*
X51980509Y-96961540I-200000J0D01*
G01*
%TO.C,G\u002A\u002A\u002A*%
G36*
X72218932Y-119997540D02*
G01*
X72324368Y-120012459D01*
X72409476Y-120037132D01*
X72464762Y-120058672D01*
X72505316Y-120080863D01*
X72542237Y-120111336D01*
X72586624Y-120157717D01*
X72589457Y-120160831D01*
X72647281Y-120231981D01*
X72684574Y-120297382D01*
X72695865Y-120326242D01*
X72713362Y-120405594D01*
X72720381Y-120504963D01*
X72717087Y-120615594D01*
X72703645Y-120728730D01*
X72686792Y-120810798D01*
X72678229Y-120837632D01*
X72659406Y-120891245D01*
X72631030Y-120969767D01*
X72593811Y-121071328D01*
X72548458Y-121194059D01*
X72495679Y-121336089D01*
X72436184Y-121495549D01*
X72370679Y-121670571D01*
X72299875Y-121859282D01*
X72224480Y-122059816D01*
X72145202Y-122270301D01*
X72062751Y-122488868D01*
X71977834Y-122713647D01*
X71891162Y-122942769D01*
X71803441Y-123174364D01*
X71715381Y-123406561D01*
X71627691Y-123637493D01*
X71541079Y-123865289D01*
X71456254Y-124088080D01*
X71373925Y-124303994D01*
X71294800Y-124511164D01*
X71219588Y-124707720D01*
X71148997Y-124891791D01*
X71083736Y-125061509D01*
X71024515Y-125215002D01*
X70972040Y-125350403D01*
X70927023Y-125465841D01*
X70890170Y-125559446D01*
X70862191Y-125629349D01*
X70843794Y-125673681D01*
X70842166Y-125677416D01*
X70723071Y-125923912D01*
X70577282Y-126182822D01*
X70405573Y-126452909D01*
X70208725Y-126732937D01*
X70029723Y-126968311D01*
X69982562Y-127025043D01*
X69916720Y-127099506D01*
X69835630Y-127188173D01*
X69742726Y-127287517D01*
X69641439Y-127394008D01*
X69535205Y-127504120D01*
X69427455Y-127614323D01*
X69321625Y-127721091D01*
X69221146Y-127820895D01*
X69129454Y-127910208D01*
X69049979Y-127985502D01*
X68986157Y-128043249D01*
X68970579Y-128056620D01*
X68697461Y-128277307D01*
X68423754Y-128479415D01*
X68152383Y-128661067D01*
X67886274Y-128820387D01*
X67628352Y-128955498D01*
X67431236Y-129044329D01*
X67398653Y-129057368D01*
X67339675Y-129080409D01*
X67256219Y-129112725D01*
X67150206Y-129153582D01*
X67023557Y-129202251D01*
X66878191Y-129258000D01*
X66716027Y-129320100D01*
X66538988Y-129387817D01*
X66348991Y-129460424D01*
X66147958Y-129537186D01*
X65937807Y-129617374D01*
X65720460Y-129700259D01*
X65497835Y-129785107D01*
X65271854Y-129871190D01*
X65044436Y-129957775D01*
X64817502Y-130044131D01*
X64592969Y-130129529D01*
X64372760Y-130213236D01*
X64158795Y-130294523D01*
X63952993Y-130372658D01*
X63757273Y-130446911D01*
X63573556Y-130516550D01*
X63403763Y-130580845D01*
X63249813Y-130639064D01*
X63113625Y-130690478D01*
X62997122Y-130734355D01*
X62902219Y-130769963D01*
X62830842Y-130796574D01*
X62784906Y-130813455D01*
X62769282Y-130818970D01*
X62617224Y-130861032D01*
X62469019Y-130885703D01*
X62330364Y-130892543D01*
X62206952Y-130881119D01*
X62146600Y-130866575D01*
X62103406Y-130850141D01*
X62064156Y-130826485D01*
X62020137Y-130789571D01*
X61981368Y-130752161D01*
X61932531Y-130701488D01*
X61900137Y-130660729D01*
X61877418Y-130619744D01*
X61857603Y-130568395D01*
X61856466Y-130565079D01*
X61833873Y-130466933D01*
X61824568Y-130348656D01*
X61828641Y-130217810D01*
X61846181Y-130081954D01*
X61850492Y-130058991D01*
X61875626Y-129953252D01*
X61911959Y-129829943D01*
X61956211Y-129698537D01*
X62005100Y-129568505D01*
X62055345Y-129449323D01*
X62079580Y-129397521D01*
X62103250Y-129350154D01*
X62138370Y-129281521D01*
X62183667Y-129194016D01*
X62237867Y-129090040D01*
X62299696Y-128971987D01*
X62367881Y-128842255D01*
X62441148Y-128703241D01*
X62518222Y-128557340D01*
X62597832Y-128406950D01*
X62678701Y-128254468D01*
X62759560Y-128102289D01*
X62839130Y-127952812D01*
X62916141Y-127808432D01*
X62989317Y-127671547D01*
X63057386Y-127544552D01*
X63119073Y-127429845D01*
X63173106Y-127329822D01*
X63218210Y-127246882D01*
X63253112Y-127183418D01*
X63276537Y-127141829D01*
X63287213Y-127124512D01*
X63287707Y-127124173D01*
X63295529Y-127139065D01*
X63315213Y-127179041D01*
X63345491Y-127241466D01*
X63385097Y-127323697D01*
X63432762Y-127423098D01*
X63487220Y-127537029D01*
X63547204Y-127662850D01*
X63611446Y-127797923D01*
X63629742Y-127836449D01*
X63707178Y-127999524D01*
X63772816Y-128137218D01*
X63828092Y-128251826D01*
X63874438Y-128345641D01*
X63913289Y-128420960D01*
X63946077Y-128480079D01*
X63974234Y-128525291D01*
X63999198Y-128558893D01*
X64022398Y-128583178D01*
X64045270Y-128600442D01*
X64069247Y-128612981D01*
X64095763Y-128623090D01*
X64126250Y-128633063D01*
X64127556Y-128633486D01*
X64214143Y-128651419D01*
X64320953Y-128657353D01*
X64439986Y-128651317D01*
X64563244Y-128633337D01*
X64570103Y-128631978D01*
X64764561Y-128581986D01*
X64974459Y-128507650D01*
X65198259Y-128410174D01*
X65434420Y-128290760D01*
X65681405Y-128150614D01*
X65937674Y-127990938D01*
X66201688Y-127812938D01*
X66471907Y-127617817D01*
X66746792Y-127406779D01*
X67024806Y-127181029D01*
X67304407Y-126941768D01*
X67584058Y-126690203D01*
X67862219Y-126427538D01*
X68137351Y-126154974D01*
X68407915Y-125873718D01*
X68672371Y-125584972D01*
X68929182Y-125289941D01*
X69091332Y-125095306D01*
X69325657Y-124800433D01*
X69540635Y-124512387D01*
X69735553Y-124232404D01*
X69909707Y-123961720D01*
X70062386Y-123701569D01*
X70192883Y-123453190D01*
X70300490Y-123217815D01*
X70384497Y-122996683D01*
X70444198Y-122791027D01*
X70463395Y-122701470D01*
X70477336Y-122584684D01*
X70476512Y-122468968D01*
X70461925Y-122360813D01*
X70434572Y-122266711D01*
X70395453Y-122193150D01*
X70382693Y-122177304D01*
X70359584Y-122160169D01*
X70310573Y-122131695D01*
X70235303Y-122091703D01*
X70133423Y-122040013D01*
X70004579Y-121976447D01*
X69848418Y-121900826D01*
X69664586Y-121812970D01*
X69651823Y-121806903D01*
X69515871Y-121742043D01*
X69388712Y-121680861D01*
X69272971Y-121624661D01*
X69171274Y-121574740D01*
X69086245Y-121532397D01*
X69020510Y-121498933D01*
X68976693Y-121475646D01*
X68957421Y-121463836D01*
X68956736Y-121462897D01*
X68969913Y-121453950D01*
X69007842Y-121432012D01*
X69068121Y-121398365D01*
X69148347Y-121354286D01*
X69246116Y-121301057D01*
X69359024Y-121239955D01*
X69484671Y-121172262D01*
X69620651Y-121099256D01*
X69764563Y-121022218D01*
X69914003Y-120942427D01*
X70066568Y-120861162D01*
X70219855Y-120779704D01*
X70371462Y-120699332D01*
X70518984Y-120621324D01*
X70660020Y-120546961D01*
X70792166Y-120477523D01*
X70913019Y-120414289D01*
X71020176Y-120358539D01*
X71111234Y-120311551D01*
X71183790Y-120274607D01*
X71235440Y-120248987D01*
X71244923Y-120244444D01*
X71360545Y-120193666D01*
X71488558Y-120144194D01*
X71620990Y-120098618D01*
X71749863Y-120059527D01*
X71867208Y-120029509D01*
X71962168Y-120011553D01*
X72100605Y-119997375D01*
X72218932Y-119997540D01*
G37*
G36*
X65107363Y-119625432D02*
G01*
X65127895Y-119635189D01*
X65174204Y-119657162D01*
X65244345Y-119690429D01*
X65336374Y-119734069D01*
X65448348Y-119787159D01*
X65578321Y-119848778D01*
X65724350Y-119918003D01*
X65884490Y-119993915D01*
X66056797Y-120075589D01*
X66239328Y-120162107D01*
X66430138Y-120252543D01*
X66542519Y-120305806D01*
X66736364Y-120397751D01*
X66922435Y-120486153D01*
X67098850Y-120570109D01*
X67263727Y-120648716D01*
X67415182Y-120721073D01*
X67551334Y-120786278D01*
X67670300Y-120843427D01*
X67770197Y-120891618D01*
X67849145Y-120929950D01*
X67905259Y-120957520D01*
X67936657Y-120973426D01*
X67942856Y-120977002D01*
X67955059Y-120998043D01*
X67972961Y-121039019D01*
X67991285Y-121087236D01*
X68015381Y-121197483D01*
X68016313Y-121325971D01*
X67994691Y-121471559D01*
X67951129Y-121633103D01*
X67886239Y-121809464D01*
X67800633Y-121999499D01*
X67694923Y-122202067D01*
X67569723Y-122416026D01*
X67425644Y-122640234D01*
X67263298Y-122873550D01*
X67083298Y-123114832D01*
X66886256Y-123362939D01*
X66672784Y-123616728D01*
X66574087Y-123729589D01*
X66525050Y-123783354D01*
X66457984Y-123854469D01*
X66376583Y-123939211D01*
X66284546Y-124033856D01*
X66185566Y-124134678D01*
X66083340Y-124237953D01*
X65981564Y-124339955D01*
X65883933Y-124436961D01*
X65794144Y-124525245D01*
X65715892Y-124601083D01*
X65652873Y-124660752D01*
X65623373Y-124687722D01*
X65364345Y-124912935D01*
X65107951Y-125123224D01*
X64855762Y-125317630D01*
X64609347Y-125495192D01*
X64370276Y-125654949D01*
X64140120Y-125795944D01*
X63920448Y-125917213D01*
X63712830Y-126017796D01*
X63518837Y-126096736D01*
X63340037Y-126153070D01*
X63178001Y-126185838D01*
X63173058Y-126186494D01*
X63044069Y-126192155D01*
X62929472Y-126174266D01*
X62847276Y-126141625D01*
X62837820Y-126136215D01*
X62828516Y-126129479D01*
X62818557Y-126119811D01*
X62807133Y-126105603D01*
X62793436Y-126085249D01*
X62776658Y-126057140D01*
X62755990Y-126019671D01*
X62730622Y-125971235D01*
X62699747Y-125910223D01*
X62662555Y-125835030D01*
X62618240Y-125744048D01*
X62565991Y-125635670D01*
X62504999Y-125508290D01*
X62434457Y-125360299D01*
X62353556Y-125190093D01*
X62261487Y-124996062D01*
X62157442Y-124776600D01*
X62109160Y-124674731D01*
X61999815Y-124443996D01*
X61902923Y-124239419D01*
X61817789Y-124059439D01*
X61743721Y-123902498D01*
X61680026Y-123767037D01*
X61626008Y-123651497D01*
X61580975Y-123554316D01*
X61544234Y-123473938D01*
X61515091Y-123408802D01*
X61492852Y-123357350D01*
X61476824Y-123318020D01*
X61466312Y-123289255D01*
X61460625Y-123269495D01*
X61459067Y-123257181D01*
X61460947Y-123250753D01*
X61465569Y-123248652D01*
X61472242Y-123249319D01*
X61475506Y-123250054D01*
X61568008Y-123259873D01*
X61679749Y-123251172D01*
X61806324Y-123224978D01*
X61943330Y-123182319D01*
X62086362Y-123124220D01*
X62154778Y-123091693D01*
X62372420Y-122972688D01*
X62599783Y-122828601D01*
X62833869Y-122662264D01*
X63071680Y-122476511D01*
X63310218Y-122274175D01*
X63546485Y-122058089D01*
X63777484Y-121831086D01*
X64000215Y-121596000D01*
X64211684Y-121355663D01*
X64408891Y-121112908D01*
X64588838Y-120870570D01*
X64734534Y-120653624D01*
X64845096Y-120469101D01*
X64935551Y-120295457D01*
X65005327Y-120134311D01*
X65053855Y-119987284D01*
X65080564Y-119855994D01*
X65084884Y-119742062D01*
X65076470Y-119682613D01*
X65058295Y-119601985D01*
X65107363Y-119625432D01*
G37*
G36*
X59489808Y-116972385D02*
G01*
X59506406Y-116979554D01*
X59548922Y-116999062D01*
X59615572Y-117030069D01*
X59704575Y-117071734D01*
X59814146Y-117123216D01*
X59942505Y-117183674D01*
X60087868Y-117252268D01*
X60248450Y-117328158D01*
X60422472Y-117410500D01*
X60608149Y-117498456D01*
X60803699Y-117591186D01*
X61007338Y-117687847D01*
X61069924Y-117717572D01*
X62627341Y-118457401D01*
X62647985Y-118515333D01*
X62660079Y-118591523D01*
X62649355Y-118685903D01*
X62616487Y-118796941D01*
X62562152Y-118923099D01*
X62487022Y-119062843D01*
X62391773Y-119214638D01*
X62277079Y-119376949D01*
X62258271Y-119402066D01*
X62221857Y-119448250D01*
X62171451Y-119509283D01*
X62110968Y-119580701D01*
X62044326Y-119658041D01*
X61975443Y-119736842D01*
X61908236Y-119812640D01*
X61846621Y-119880973D01*
X61794517Y-119937379D01*
X61755839Y-119977394D01*
X61740735Y-119991656D01*
X61721363Y-120008855D01*
X61683990Y-120042304D01*
X61633400Y-120087710D01*
X61574379Y-120140784D01*
X61552053Y-120160882D01*
X61383867Y-120306172D01*
X61220045Y-120435657D01*
X61062388Y-120548385D01*
X60912697Y-120643403D01*
X60772776Y-120719756D01*
X60644425Y-120776492D01*
X60529448Y-120812658D01*
X60429646Y-120827300D01*
X60346821Y-120819466D01*
X60322425Y-120811339D01*
X60314192Y-120807566D01*
X60305887Y-120802174D01*
X60296749Y-120793643D01*
X60286017Y-120780452D01*
X60272928Y-120761080D01*
X60256724Y-120734005D01*
X60236640Y-120697710D01*
X60211916Y-120650671D01*
X60181789Y-120591368D01*
X60145501Y-120518282D01*
X60102287Y-120429891D01*
X60051388Y-120324675D01*
X59992040Y-120201112D01*
X59923484Y-120057682D01*
X59844957Y-119892865D01*
X59755698Y-119705139D01*
X59654946Y-119492985D01*
X59541938Y-119254881D01*
X59522219Y-119213325D01*
X59424166Y-119006654D01*
X59329853Y-118807781D01*
X59240107Y-118618453D01*
X59155753Y-118440420D01*
X59077622Y-118275430D01*
X59006537Y-118125232D01*
X58943326Y-117991574D01*
X58888818Y-117876204D01*
X58843840Y-117780871D01*
X58809217Y-117707324D01*
X58785777Y-117657310D01*
X58774347Y-117632579D01*
X58773325Y-117630165D01*
X58786085Y-117625529D01*
X58816899Y-117623655D01*
X58852071Y-117616638D01*
X58903288Y-117598156D01*
X58960016Y-117572063D01*
X58965123Y-117569426D01*
X59012358Y-117543196D01*
X59054474Y-117515264D01*
X59097778Y-117480526D01*
X59148579Y-117433881D01*
X59213188Y-117370225D01*
X59220459Y-117362922D01*
X59322194Y-117253975D01*
X59396781Y-117159087D01*
X59444200Y-117078290D01*
X59464427Y-117011615D01*
X59465044Y-117004245D01*
X59470590Y-116976586D01*
X59486530Y-116971708D01*
X59489808Y-116972385D01*
G37*
G36*
X60760903Y-109775645D02*
G01*
X60871941Y-109808513D01*
X60998099Y-109862848D01*
X61137843Y-109937978D01*
X61289638Y-110033227D01*
X61451949Y-110147921D01*
X61477066Y-110166729D01*
X61523250Y-110203143D01*
X61584283Y-110253549D01*
X61655701Y-110314032D01*
X61733041Y-110380674D01*
X61811842Y-110449557D01*
X61887640Y-110516764D01*
X61955973Y-110578379D01*
X62012379Y-110630483D01*
X62052394Y-110669161D01*
X62066656Y-110684265D01*
X62083855Y-110703637D01*
X62117304Y-110741010D01*
X62162710Y-110791600D01*
X62215784Y-110850621D01*
X62235882Y-110872947D01*
X62381172Y-111041133D01*
X62510657Y-111204955D01*
X62623385Y-111362612D01*
X62718403Y-111512303D01*
X62794756Y-111652224D01*
X62851492Y-111780575D01*
X62887658Y-111895552D01*
X62902300Y-111995354D01*
X62894466Y-112078179D01*
X62886339Y-112102575D01*
X62882566Y-112110808D01*
X62877174Y-112119113D01*
X62868643Y-112128251D01*
X62855452Y-112138983D01*
X62836080Y-112152072D01*
X62809005Y-112168276D01*
X62772710Y-112188360D01*
X62725671Y-112213084D01*
X62666368Y-112243211D01*
X62593282Y-112279499D01*
X62504891Y-112322713D01*
X62399675Y-112373612D01*
X62276112Y-112432960D01*
X62132682Y-112501516D01*
X61967865Y-112580043D01*
X61780139Y-112669302D01*
X61567985Y-112770054D01*
X61329881Y-112883062D01*
X61288325Y-112902781D01*
X61081654Y-113000834D01*
X60882781Y-113095147D01*
X60693453Y-113184893D01*
X60515420Y-113269247D01*
X60350430Y-113347378D01*
X60200232Y-113418463D01*
X60066574Y-113481674D01*
X59951204Y-113536182D01*
X59855871Y-113581160D01*
X59782324Y-113615783D01*
X59732310Y-113639223D01*
X59707579Y-113650653D01*
X59705165Y-113651675D01*
X59700529Y-113638915D01*
X59698655Y-113608101D01*
X59691638Y-113572929D01*
X59673156Y-113521712D01*
X59647063Y-113464984D01*
X59644426Y-113459877D01*
X59618196Y-113412642D01*
X59590264Y-113370526D01*
X59555526Y-113327222D01*
X59508881Y-113276421D01*
X59445225Y-113211812D01*
X59437922Y-113204541D01*
X59328975Y-113102806D01*
X59234087Y-113028219D01*
X59153290Y-112980800D01*
X59086615Y-112960573D01*
X59079245Y-112959956D01*
X59051586Y-112954410D01*
X59046708Y-112938470D01*
X59047385Y-112935192D01*
X59054554Y-112918594D01*
X59074062Y-112876078D01*
X59105069Y-112809428D01*
X59146734Y-112720425D01*
X59198216Y-112610854D01*
X59258674Y-112482495D01*
X59327268Y-112337132D01*
X59403158Y-112176550D01*
X59485500Y-112002528D01*
X59573456Y-111816851D01*
X59666186Y-111621301D01*
X59762847Y-111417662D01*
X59792572Y-111355076D01*
X60532401Y-109797659D01*
X60590333Y-109777015D01*
X60666523Y-109764921D01*
X60760903Y-109775645D01*
G37*
G36*
X62690594Y-99707913D02*
G01*
X62803730Y-99721355D01*
X62885798Y-99738208D01*
X62912632Y-99746771D01*
X62966245Y-99765594D01*
X63044767Y-99793970D01*
X63146328Y-99831189D01*
X63269059Y-99876542D01*
X63411089Y-99929321D01*
X63570549Y-99988816D01*
X63745571Y-100054321D01*
X63934282Y-100125125D01*
X64134816Y-100200520D01*
X64345301Y-100279798D01*
X64563868Y-100362249D01*
X64788647Y-100447166D01*
X65017769Y-100533838D01*
X65249364Y-100621559D01*
X65481561Y-100709619D01*
X65712493Y-100797309D01*
X65940289Y-100883921D01*
X66163080Y-100968746D01*
X66378994Y-101051075D01*
X66586164Y-101130200D01*
X66782720Y-101205412D01*
X66966791Y-101276003D01*
X67136509Y-101341264D01*
X67290002Y-101400485D01*
X67425403Y-101452960D01*
X67540841Y-101497977D01*
X67634446Y-101534830D01*
X67704349Y-101562809D01*
X67748681Y-101581206D01*
X67752416Y-101582834D01*
X67998912Y-101701929D01*
X68257822Y-101847718D01*
X68527909Y-102019427D01*
X68807937Y-102216275D01*
X69043311Y-102395277D01*
X69100043Y-102442438D01*
X69174506Y-102508280D01*
X69263173Y-102589370D01*
X69362517Y-102682274D01*
X69469008Y-102783561D01*
X69579120Y-102889795D01*
X69689323Y-102997545D01*
X69796091Y-103103375D01*
X69895895Y-103203854D01*
X69985208Y-103295546D01*
X70060502Y-103375021D01*
X70118249Y-103438843D01*
X70131620Y-103454421D01*
X70352307Y-103727539D01*
X70554415Y-104001246D01*
X70736067Y-104272617D01*
X70895387Y-104538726D01*
X71030498Y-104796648D01*
X71119329Y-104993764D01*
X71132368Y-105026347D01*
X71155409Y-105085325D01*
X71187725Y-105168781D01*
X71228582Y-105274794D01*
X71277251Y-105401443D01*
X71333000Y-105546809D01*
X71395100Y-105708973D01*
X71462817Y-105886012D01*
X71535424Y-106076009D01*
X71612186Y-106277042D01*
X71692374Y-106487193D01*
X71775259Y-106704540D01*
X71860107Y-106927165D01*
X71946190Y-107153146D01*
X72032775Y-107380564D01*
X72119131Y-107607498D01*
X72204529Y-107832031D01*
X72288236Y-108052240D01*
X72369523Y-108266205D01*
X72447658Y-108472007D01*
X72521911Y-108667727D01*
X72591550Y-108851444D01*
X72655845Y-109021237D01*
X72714064Y-109175187D01*
X72765478Y-109311375D01*
X72809355Y-109427878D01*
X72844963Y-109522781D01*
X72871574Y-109594158D01*
X72888455Y-109640094D01*
X72893970Y-109655718D01*
X72936032Y-109807776D01*
X72960703Y-109955981D01*
X72967543Y-110094636D01*
X72956119Y-110218048D01*
X72941575Y-110278400D01*
X72925141Y-110321594D01*
X72901485Y-110360844D01*
X72864571Y-110404863D01*
X72827161Y-110443632D01*
X72776488Y-110492469D01*
X72735729Y-110524863D01*
X72694744Y-110547582D01*
X72643395Y-110567397D01*
X72640079Y-110568534D01*
X72541933Y-110591127D01*
X72423656Y-110600432D01*
X72292810Y-110596359D01*
X72156954Y-110578819D01*
X72133991Y-110574508D01*
X72028252Y-110549374D01*
X71904943Y-110513041D01*
X71773537Y-110468789D01*
X71643505Y-110419900D01*
X71524323Y-110369655D01*
X71472521Y-110345420D01*
X71425154Y-110321750D01*
X71356521Y-110286630D01*
X71269016Y-110241333D01*
X71165040Y-110187133D01*
X71046987Y-110125304D01*
X70917255Y-110057119D01*
X70778241Y-109983852D01*
X70632340Y-109906778D01*
X70481950Y-109827168D01*
X70329468Y-109746299D01*
X70177289Y-109665440D01*
X70027812Y-109585870D01*
X69883432Y-109508859D01*
X69746547Y-109435683D01*
X69619552Y-109367614D01*
X69504845Y-109305927D01*
X69404822Y-109251894D01*
X69321882Y-109206790D01*
X69258418Y-109171888D01*
X69216829Y-109148463D01*
X69199512Y-109137787D01*
X69199173Y-109137293D01*
X69214065Y-109129471D01*
X69254041Y-109109787D01*
X69316466Y-109079509D01*
X69398697Y-109039903D01*
X69498098Y-108992238D01*
X69612029Y-108937780D01*
X69737850Y-108877796D01*
X69872923Y-108813554D01*
X69911449Y-108795258D01*
X70074524Y-108717822D01*
X70212218Y-108652184D01*
X70326826Y-108596908D01*
X70420641Y-108550562D01*
X70495960Y-108511711D01*
X70555079Y-108478923D01*
X70600291Y-108450766D01*
X70633893Y-108425802D01*
X70658178Y-108402602D01*
X70675442Y-108379730D01*
X70687981Y-108355753D01*
X70698090Y-108329237D01*
X70708063Y-108298750D01*
X70708486Y-108297444D01*
X70726419Y-108210857D01*
X70732353Y-108104047D01*
X70726317Y-107985014D01*
X70708337Y-107861756D01*
X70706978Y-107854897D01*
X70656986Y-107660439D01*
X70582650Y-107450541D01*
X70485174Y-107226741D01*
X70365760Y-106990580D01*
X70225614Y-106743595D01*
X70065938Y-106487326D01*
X69887938Y-106223312D01*
X69692817Y-105953093D01*
X69481779Y-105678208D01*
X69256029Y-105400194D01*
X69016768Y-105120593D01*
X68765203Y-104840942D01*
X68502538Y-104562781D01*
X68229974Y-104287649D01*
X67948718Y-104017085D01*
X67659972Y-103752629D01*
X67364941Y-103495818D01*
X67170306Y-103333668D01*
X66875433Y-103099343D01*
X66587387Y-102884365D01*
X66307404Y-102689447D01*
X66036720Y-102515293D01*
X65776569Y-102362614D01*
X65528190Y-102232117D01*
X65292815Y-102124510D01*
X65071683Y-102040503D01*
X64866027Y-101980802D01*
X64776470Y-101961605D01*
X64659684Y-101947664D01*
X64543968Y-101948488D01*
X64435813Y-101963075D01*
X64341711Y-101990428D01*
X64268150Y-102029547D01*
X64252304Y-102042307D01*
X64235169Y-102065416D01*
X64206695Y-102114427D01*
X64166703Y-102189697D01*
X64115013Y-102291577D01*
X64051447Y-102420421D01*
X63975826Y-102576582D01*
X63887970Y-102760414D01*
X63881903Y-102773177D01*
X63817043Y-102909129D01*
X63755861Y-103036288D01*
X63699661Y-103152029D01*
X63649740Y-103253726D01*
X63607397Y-103338755D01*
X63573933Y-103404490D01*
X63550646Y-103448307D01*
X63538836Y-103467579D01*
X63537897Y-103468264D01*
X63528950Y-103455087D01*
X63507012Y-103417158D01*
X63473365Y-103356879D01*
X63429286Y-103276653D01*
X63376057Y-103178884D01*
X63314955Y-103065976D01*
X63247262Y-102940329D01*
X63174256Y-102804349D01*
X63097218Y-102660437D01*
X63017427Y-102510997D01*
X62936162Y-102358432D01*
X62854704Y-102205145D01*
X62774332Y-102053538D01*
X62696324Y-101906016D01*
X62621961Y-101764980D01*
X62552523Y-101632834D01*
X62489289Y-101511981D01*
X62433539Y-101404824D01*
X62386551Y-101313766D01*
X62349607Y-101241210D01*
X62323987Y-101189560D01*
X62319444Y-101180077D01*
X62268666Y-101064455D01*
X62219194Y-100936442D01*
X62173618Y-100804010D01*
X62134527Y-100675137D01*
X62104509Y-100557792D01*
X62086553Y-100462832D01*
X62072375Y-100324395D01*
X62072540Y-100206068D01*
X62087459Y-100100632D01*
X62112132Y-100015524D01*
X62133672Y-99960238D01*
X62155863Y-99919684D01*
X62186336Y-99882763D01*
X62232717Y-99838376D01*
X62235831Y-99835543D01*
X62306981Y-99777719D01*
X62372382Y-99740426D01*
X62401242Y-99729135D01*
X62480594Y-99711638D01*
X62579963Y-99704619D01*
X62690594Y-99707913D01*
G37*
G36*
X63546559Y-104430309D02*
G01*
X63708103Y-104473871D01*
X63884464Y-104538761D01*
X64074499Y-104624367D01*
X64277067Y-104730077D01*
X64491026Y-104855277D01*
X64715234Y-104999356D01*
X64948550Y-105161702D01*
X65189832Y-105341702D01*
X65437939Y-105538744D01*
X65691728Y-105752216D01*
X65804589Y-105850913D01*
X65858354Y-105899950D01*
X65929469Y-105967016D01*
X66014211Y-106048417D01*
X66108856Y-106140454D01*
X66209678Y-106239434D01*
X66312953Y-106341660D01*
X66414955Y-106443436D01*
X66511961Y-106541067D01*
X66600245Y-106630856D01*
X66676083Y-106709108D01*
X66735752Y-106772127D01*
X66762722Y-106801627D01*
X66987935Y-107060655D01*
X67198224Y-107317049D01*
X67392630Y-107569238D01*
X67570192Y-107815653D01*
X67729949Y-108054724D01*
X67870944Y-108284880D01*
X67992213Y-108504552D01*
X68092796Y-108712170D01*
X68171736Y-108906163D01*
X68228070Y-109084963D01*
X68260838Y-109246999D01*
X68261494Y-109251942D01*
X68267155Y-109380931D01*
X68249266Y-109495528D01*
X68216625Y-109577724D01*
X68211215Y-109587180D01*
X68204479Y-109596484D01*
X68194811Y-109606443D01*
X68180603Y-109617867D01*
X68160249Y-109631564D01*
X68132140Y-109648342D01*
X68094671Y-109669010D01*
X68046235Y-109694378D01*
X67985223Y-109725253D01*
X67910030Y-109762445D01*
X67819048Y-109806760D01*
X67710670Y-109859009D01*
X67583290Y-109920001D01*
X67435299Y-109990543D01*
X67265093Y-110071444D01*
X67071062Y-110163513D01*
X66851600Y-110267558D01*
X66749731Y-110315840D01*
X66518996Y-110425185D01*
X66314419Y-110522077D01*
X66134439Y-110607211D01*
X65977498Y-110681279D01*
X65842037Y-110744974D01*
X65726497Y-110798992D01*
X65629316Y-110844025D01*
X65548938Y-110880766D01*
X65483802Y-110909909D01*
X65432350Y-110932148D01*
X65393020Y-110948176D01*
X65364255Y-110958688D01*
X65344495Y-110964375D01*
X65332181Y-110965933D01*
X65325753Y-110964053D01*
X65323652Y-110959431D01*
X65324319Y-110952758D01*
X65325054Y-110949494D01*
X65334873Y-110856992D01*
X65326172Y-110745251D01*
X65299978Y-110618676D01*
X65257319Y-110481670D01*
X65199220Y-110338638D01*
X65166693Y-110270222D01*
X65047688Y-110052580D01*
X64903601Y-109825217D01*
X64737264Y-109591131D01*
X64551511Y-109353320D01*
X64349175Y-109114782D01*
X64133089Y-108878515D01*
X63906086Y-108647516D01*
X63671000Y-108424785D01*
X63430663Y-108213316D01*
X63187908Y-108016109D01*
X62945570Y-107836162D01*
X62728624Y-107690466D01*
X62544101Y-107579904D01*
X62370457Y-107489449D01*
X62209311Y-107419673D01*
X62062284Y-107371145D01*
X61930994Y-107344436D01*
X61817062Y-107340116D01*
X61757613Y-107348530D01*
X61676985Y-107366705D01*
X61700432Y-107317637D01*
X61710189Y-107297105D01*
X61732162Y-107250796D01*
X61765429Y-107180655D01*
X61809069Y-107088626D01*
X61862159Y-106976652D01*
X61923778Y-106846679D01*
X61993003Y-106700650D01*
X62068915Y-106540510D01*
X62150589Y-106368203D01*
X62237107Y-106185672D01*
X62327543Y-105994862D01*
X62380806Y-105882481D01*
X62472751Y-105688636D01*
X62561153Y-105502565D01*
X62645109Y-105326150D01*
X62723716Y-105161273D01*
X62796073Y-105009818D01*
X62861278Y-104873666D01*
X62918427Y-104754700D01*
X62966618Y-104654803D01*
X63004950Y-104575855D01*
X63032520Y-104519741D01*
X63048426Y-104488343D01*
X63052002Y-104482144D01*
X63073043Y-104469941D01*
X63114019Y-104452039D01*
X63162236Y-104433715D01*
X63272483Y-104409619D01*
X63400971Y-104408687D01*
X63546559Y-104430309D01*
G37*
G36*
X62581694Y-13907158D02*
G01*
X62694830Y-13920600D01*
X62776898Y-13937453D01*
X62803732Y-13946016D01*
X62857345Y-13964839D01*
X62935867Y-13993215D01*
X63037428Y-14030434D01*
X63160159Y-14075787D01*
X63302189Y-14128566D01*
X63461649Y-14188061D01*
X63636671Y-14253566D01*
X63825382Y-14324370D01*
X64025916Y-14399765D01*
X64236401Y-14479043D01*
X64454968Y-14561494D01*
X64679747Y-14646411D01*
X64908869Y-14733083D01*
X65140464Y-14820804D01*
X65372661Y-14908864D01*
X65603593Y-14996554D01*
X65831389Y-15083166D01*
X66054180Y-15167991D01*
X66270094Y-15250320D01*
X66477264Y-15329445D01*
X66673820Y-15404657D01*
X66857891Y-15475248D01*
X67027609Y-15540509D01*
X67181102Y-15599730D01*
X67316503Y-15652205D01*
X67431941Y-15697222D01*
X67525546Y-15734075D01*
X67595449Y-15762054D01*
X67639781Y-15780451D01*
X67643516Y-15782079D01*
X67890012Y-15901174D01*
X68148922Y-16046963D01*
X68419009Y-16218672D01*
X68699037Y-16415520D01*
X68934411Y-16594522D01*
X68991143Y-16641683D01*
X69065606Y-16707525D01*
X69154273Y-16788615D01*
X69253617Y-16881519D01*
X69360108Y-16982806D01*
X69470220Y-17089040D01*
X69580423Y-17196790D01*
X69687191Y-17302620D01*
X69786995Y-17403099D01*
X69876308Y-17494791D01*
X69951602Y-17574266D01*
X70009349Y-17638088D01*
X70022720Y-17653666D01*
X70243407Y-17926784D01*
X70445515Y-18200491D01*
X70627167Y-18471862D01*
X70786487Y-18737971D01*
X70921598Y-18995893D01*
X71010429Y-19193009D01*
X71023468Y-19225592D01*
X71046509Y-19284570D01*
X71078825Y-19368026D01*
X71119682Y-19474039D01*
X71168351Y-19600688D01*
X71224100Y-19746054D01*
X71286200Y-19908218D01*
X71353917Y-20085257D01*
X71426524Y-20275254D01*
X71503286Y-20476287D01*
X71583474Y-20686438D01*
X71666359Y-20903785D01*
X71751207Y-21126410D01*
X71837290Y-21352391D01*
X71923875Y-21579809D01*
X72010231Y-21806743D01*
X72095629Y-22031276D01*
X72179336Y-22251485D01*
X72260623Y-22465450D01*
X72338758Y-22671252D01*
X72413011Y-22866972D01*
X72482650Y-23050689D01*
X72546945Y-23220482D01*
X72605164Y-23374432D01*
X72656578Y-23510620D01*
X72700455Y-23627123D01*
X72736063Y-23722026D01*
X72762674Y-23793403D01*
X72779555Y-23839339D01*
X72785070Y-23854963D01*
X72827132Y-24007021D01*
X72851803Y-24155226D01*
X72858643Y-24293881D01*
X72847219Y-24417293D01*
X72832675Y-24477645D01*
X72816241Y-24520839D01*
X72792585Y-24560089D01*
X72755671Y-24604108D01*
X72718261Y-24642877D01*
X72667588Y-24691714D01*
X72626829Y-24724108D01*
X72585844Y-24746827D01*
X72534495Y-24766642D01*
X72531179Y-24767779D01*
X72433033Y-24790372D01*
X72314756Y-24799677D01*
X72183910Y-24795604D01*
X72048054Y-24778064D01*
X72025091Y-24773753D01*
X71919352Y-24748619D01*
X71796043Y-24712286D01*
X71664637Y-24668034D01*
X71534605Y-24619145D01*
X71415423Y-24568900D01*
X71363621Y-24544665D01*
X71316254Y-24520995D01*
X71247621Y-24485875D01*
X71160116Y-24440578D01*
X71056140Y-24386378D01*
X70938087Y-24324549D01*
X70808355Y-24256364D01*
X70669341Y-24183097D01*
X70523440Y-24106023D01*
X70373050Y-24026413D01*
X70220568Y-23945544D01*
X70068389Y-23864685D01*
X69918912Y-23785115D01*
X69774532Y-23708104D01*
X69637647Y-23634928D01*
X69510652Y-23566859D01*
X69395945Y-23505172D01*
X69295922Y-23451139D01*
X69212982Y-23406035D01*
X69149518Y-23371133D01*
X69107929Y-23347708D01*
X69090612Y-23337032D01*
X69090273Y-23336538D01*
X69105165Y-23328716D01*
X69145141Y-23309032D01*
X69207566Y-23278754D01*
X69289797Y-23239148D01*
X69389198Y-23191483D01*
X69503129Y-23137025D01*
X69628950Y-23077041D01*
X69764023Y-23012799D01*
X69802549Y-22994503D01*
X69965624Y-22917067D01*
X70103318Y-22851429D01*
X70217926Y-22796153D01*
X70311741Y-22749807D01*
X70387060Y-22710956D01*
X70446179Y-22678168D01*
X70491391Y-22650011D01*
X70524993Y-22625047D01*
X70549278Y-22601847D01*
X70566542Y-22578975D01*
X70579081Y-22554998D01*
X70589190Y-22528482D01*
X70599163Y-22497995D01*
X70599586Y-22496689D01*
X70617519Y-22410102D01*
X70623453Y-22303292D01*
X70617417Y-22184259D01*
X70599437Y-22061001D01*
X70598078Y-22054142D01*
X70548086Y-21859684D01*
X70473750Y-21649786D01*
X70376274Y-21425986D01*
X70256860Y-21189825D01*
X70116714Y-20942840D01*
X69957038Y-20686571D01*
X69779038Y-20422557D01*
X69583917Y-20152338D01*
X69372879Y-19877453D01*
X69147129Y-19599439D01*
X68907868Y-19319838D01*
X68656303Y-19040187D01*
X68393638Y-18762026D01*
X68121074Y-18486894D01*
X67839818Y-18216330D01*
X67551072Y-17951874D01*
X67256041Y-17695063D01*
X67061406Y-17532913D01*
X66766533Y-17298588D01*
X66478487Y-17083610D01*
X66198504Y-16888692D01*
X65927820Y-16714538D01*
X65667669Y-16561859D01*
X65419290Y-16431362D01*
X65183915Y-16323755D01*
X64962783Y-16239748D01*
X64757127Y-16180047D01*
X64667570Y-16160850D01*
X64550784Y-16146909D01*
X64435068Y-16147733D01*
X64326913Y-16162320D01*
X64232811Y-16189673D01*
X64159250Y-16228792D01*
X64143404Y-16241552D01*
X64126269Y-16264661D01*
X64097795Y-16313672D01*
X64057803Y-16388942D01*
X64006113Y-16490822D01*
X63942547Y-16619666D01*
X63866926Y-16775827D01*
X63779070Y-16959659D01*
X63773003Y-16972422D01*
X63708143Y-17108374D01*
X63646961Y-17235533D01*
X63590761Y-17351274D01*
X63540840Y-17452971D01*
X63498497Y-17538000D01*
X63465033Y-17603735D01*
X63441746Y-17647552D01*
X63429936Y-17666824D01*
X63428997Y-17667509D01*
X63420050Y-17654332D01*
X63398112Y-17616403D01*
X63364465Y-17556124D01*
X63320386Y-17475898D01*
X63267157Y-17378129D01*
X63206055Y-17265221D01*
X63138362Y-17139574D01*
X63065356Y-17003594D01*
X62988318Y-16859682D01*
X62908527Y-16710242D01*
X62827262Y-16557677D01*
X62745804Y-16404390D01*
X62665432Y-16252783D01*
X62587424Y-16105261D01*
X62513061Y-15964225D01*
X62443623Y-15832079D01*
X62380389Y-15711226D01*
X62324639Y-15604069D01*
X62277651Y-15513011D01*
X62240707Y-15440455D01*
X62215087Y-15388805D01*
X62210544Y-15379322D01*
X62159766Y-15263700D01*
X62110294Y-15135687D01*
X62064718Y-15003255D01*
X62025627Y-14874382D01*
X61995609Y-14757037D01*
X61977653Y-14662077D01*
X61963475Y-14523640D01*
X61963640Y-14405313D01*
X61978559Y-14299877D01*
X62003232Y-14214769D01*
X62024772Y-14159483D01*
X62046963Y-14118929D01*
X62077436Y-14082008D01*
X62123817Y-14037621D01*
X62126931Y-14034788D01*
X62198081Y-13976964D01*
X62263482Y-13939671D01*
X62292342Y-13928380D01*
X62371694Y-13910883D01*
X62471063Y-13903864D01*
X62581694Y-13907158D01*
G37*
G36*
X63437659Y-18629554D02*
G01*
X63599203Y-18673116D01*
X63775564Y-18738006D01*
X63965599Y-18823612D01*
X64168167Y-18929322D01*
X64382126Y-19054522D01*
X64606334Y-19198601D01*
X64839650Y-19360947D01*
X65080932Y-19540947D01*
X65329039Y-19737989D01*
X65582828Y-19951461D01*
X65695689Y-20050158D01*
X65749454Y-20099195D01*
X65820569Y-20166261D01*
X65905311Y-20247662D01*
X65999956Y-20339699D01*
X66100778Y-20438679D01*
X66204053Y-20540905D01*
X66306055Y-20642681D01*
X66403061Y-20740312D01*
X66491345Y-20830101D01*
X66567183Y-20908353D01*
X66626852Y-20971372D01*
X66653822Y-21000872D01*
X66879035Y-21259900D01*
X67089324Y-21516294D01*
X67283730Y-21768483D01*
X67461292Y-22014898D01*
X67621049Y-22253969D01*
X67762044Y-22484125D01*
X67883313Y-22703797D01*
X67983896Y-22911415D01*
X68062836Y-23105408D01*
X68119170Y-23284208D01*
X68151938Y-23446244D01*
X68152594Y-23451187D01*
X68158255Y-23580176D01*
X68140366Y-23694773D01*
X68107725Y-23776969D01*
X68102315Y-23786425D01*
X68095579Y-23795729D01*
X68085911Y-23805688D01*
X68071703Y-23817112D01*
X68051349Y-23830809D01*
X68023240Y-23847587D01*
X67985771Y-23868255D01*
X67937335Y-23893623D01*
X67876323Y-23924498D01*
X67801130Y-23961690D01*
X67710148Y-24006005D01*
X67601770Y-24058254D01*
X67474390Y-24119246D01*
X67326399Y-24189788D01*
X67156193Y-24270689D01*
X66962162Y-24362758D01*
X66742700Y-24466803D01*
X66640831Y-24515085D01*
X66410096Y-24624430D01*
X66205519Y-24721322D01*
X66025539Y-24806456D01*
X65868598Y-24880524D01*
X65733137Y-24944219D01*
X65617597Y-24998237D01*
X65520416Y-25043270D01*
X65440038Y-25080011D01*
X65374902Y-25109154D01*
X65323450Y-25131393D01*
X65284120Y-25147421D01*
X65255355Y-25157933D01*
X65235595Y-25163620D01*
X65223281Y-25165178D01*
X65216853Y-25163298D01*
X65214752Y-25158676D01*
X65215419Y-25152003D01*
X65216154Y-25148739D01*
X65225973Y-25056237D01*
X65217272Y-24944496D01*
X65191078Y-24817921D01*
X65148419Y-24680915D01*
X65090320Y-24537883D01*
X65057793Y-24469467D01*
X64938788Y-24251825D01*
X64794701Y-24024462D01*
X64628364Y-23790376D01*
X64442611Y-23552565D01*
X64240275Y-23314027D01*
X64024189Y-23077760D01*
X63797186Y-22846761D01*
X63562100Y-22624030D01*
X63321763Y-22412561D01*
X63079008Y-22215354D01*
X62836670Y-22035407D01*
X62619724Y-21889711D01*
X62435201Y-21779149D01*
X62261557Y-21688694D01*
X62100411Y-21618918D01*
X61953384Y-21570390D01*
X61822094Y-21543681D01*
X61708162Y-21539361D01*
X61648713Y-21547775D01*
X61568085Y-21565950D01*
X61591532Y-21516882D01*
X61601289Y-21496350D01*
X61623262Y-21450041D01*
X61656529Y-21379900D01*
X61700169Y-21287871D01*
X61753259Y-21175897D01*
X61814878Y-21045924D01*
X61884103Y-20899895D01*
X61960015Y-20739755D01*
X62041689Y-20567448D01*
X62128207Y-20384917D01*
X62218643Y-20194107D01*
X62271906Y-20081726D01*
X62363851Y-19887881D01*
X62452253Y-19701810D01*
X62536209Y-19525395D01*
X62614816Y-19360518D01*
X62687173Y-19209063D01*
X62752378Y-19072911D01*
X62809527Y-18953945D01*
X62857718Y-18854048D01*
X62896050Y-18775100D01*
X62923620Y-18718986D01*
X62939526Y-18687588D01*
X62943102Y-18681389D01*
X62964143Y-18669186D01*
X63005119Y-18651284D01*
X63053336Y-18632960D01*
X63163583Y-18608864D01*
X63292071Y-18607932D01*
X63437659Y-18629554D01*
G37*
G36*
X60652003Y-23974890D02*
G01*
X60763041Y-24007758D01*
X60889199Y-24062093D01*
X61028943Y-24137223D01*
X61180738Y-24232472D01*
X61343049Y-24347166D01*
X61368166Y-24365974D01*
X61414350Y-24402388D01*
X61475383Y-24452794D01*
X61546801Y-24513277D01*
X61624141Y-24579919D01*
X61702942Y-24648802D01*
X61778740Y-24716009D01*
X61847073Y-24777624D01*
X61903479Y-24829728D01*
X61943494Y-24868406D01*
X61957756Y-24883510D01*
X61974955Y-24902882D01*
X62008404Y-24940255D01*
X62053810Y-24990845D01*
X62106884Y-25049866D01*
X62126982Y-25072192D01*
X62272272Y-25240378D01*
X62401757Y-25404200D01*
X62514485Y-25561857D01*
X62609503Y-25711548D01*
X62685856Y-25851469D01*
X62742592Y-25979820D01*
X62778758Y-26094797D01*
X62793400Y-26194599D01*
X62785566Y-26277424D01*
X62777439Y-26301820D01*
X62773666Y-26310053D01*
X62768274Y-26318358D01*
X62759743Y-26327496D01*
X62746552Y-26338228D01*
X62727180Y-26351317D01*
X62700105Y-26367521D01*
X62663810Y-26387605D01*
X62616771Y-26412329D01*
X62557468Y-26442456D01*
X62484382Y-26478744D01*
X62395991Y-26521958D01*
X62290775Y-26572857D01*
X62167212Y-26632205D01*
X62023782Y-26700761D01*
X61858965Y-26779288D01*
X61671239Y-26868547D01*
X61459085Y-26969299D01*
X61220981Y-27082307D01*
X61179425Y-27102026D01*
X60972754Y-27200079D01*
X60773881Y-27294392D01*
X60584553Y-27384138D01*
X60406520Y-27468492D01*
X60241530Y-27546623D01*
X60091332Y-27617708D01*
X59957674Y-27680919D01*
X59842304Y-27735427D01*
X59746971Y-27780405D01*
X59673424Y-27815028D01*
X59623410Y-27838468D01*
X59598679Y-27849898D01*
X59596265Y-27850920D01*
X59591629Y-27838160D01*
X59589755Y-27807346D01*
X59582738Y-27772174D01*
X59564256Y-27720957D01*
X59538163Y-27664229D01*
X59535526Y-27659122D01*
X59509296Y-27611887D01*
X59481364Y-27569771D01*
X59446626Y-27526467D01*
X59399981Y-27475666D01*
X59336325Y-27411057D01*
X59329022Y-27403786D01*
X59220075Y-27302051D01*
X59125187Y-27227464D01*
X59044390Y-27180045D01*
X58977715Y-27159818D01*
X58970345Y-27159201D01*
X58942686Y-27153655D01*
X58937808Y-27137715D01*
X58938485Y-27134437D01*
X58945654Y-27117839D01*
X58965162Y-27075323D01*
X58996169Y-27008673D01*
X59037834Y-26919670D01*
X59089316Y-26810099D01*
X59149774Y-26681740D01*
X59218368Y-26536377D01*
X59294258Y-26375795D01*
X59376600Y-26201773D01*
X59464556Y-26016096D01*
X59557286Y-25820546D01*
X59653947Y-25616907D01*
X59683672Y-25554321D01*
X60423501Y-23996904D01*
X60481433Y-23976260D01*
X60557623Y-23964166D01*
X60652003Y-23974890D01*
G37*
%TD*%
%LPC*%
D14*
%TO.C,J2*%
X34450000Y-123100000D03*
X38950000Y-123100000D03*
X34450000Y-119600000D03*
X38950000Y-119600000D03*
X34450000Y-116500000D03*
X38950000Y-116500000D03*
X34450000Y-113500000D03*
X38950000Y-113500000D03*
X34450000Y-110500000D03*
X38950000Y-110500000D03*
X34450000Y-107500000D03*
X38950000Y-107500000D03*
X34450000Y-104500000D03*
X38950000Y-104500000D03*
X34450000Y-101500000D03*
X38950000Y-101500000D03*
X34450000Y-98500000D03*
X38950000Y-98500000D03*
X34450000Y-95500000D03*
X38950000Y-95500000D03*
X34450000Y-92000000D03*
X38950000Y-92000000D03*
X34450000Y-59500000D03*
X38950000Y-59500000D03*
X34450000Y-56000000D03*
X38950000Y-56000000D03*
X34450000Y-52900000D03*
X38950000Y-52900000D03*
X34450000Y-49900000D03*
X38950000Y-49900000D03*
X34450000Y-46900000D03*
X38950000Y-46900000D03*
X34450000Y-43900000D03*
X38950000Y-43900000D03*
X34450000Y-40900000D03*
X38950000Y-40900000D03*
X34450000Y-37900000D03*
X38950000Y-37900000D03*
X34450000Y-34900000D03*
X38950000Y-34900000D03*
X34450000Y-31900000D03*
X38950000Y-31900000D03*
X34450000Y-28800000D03*
X38950000Y-28800000D03*
X34450000Y-25300000D03*
X38950000Y-25300000D03*
X38950000Y-21800000D03*
X34450000Y-21800000D03*
X34450000Y-86450000D03*
X38950000Y-86450000D03*
X34450000Y-83450000D03*
X38950000Y-83450000D03*
X34450000Y-80450000D03*
X38950000Y-80450000D03*
X34450000Y-77450000D03*
X38950000Y-77450000D03*
X34450000Y-74450000D03*
X38950000Y-74450000D03*
X34450000Y-71450000D03*
X38950000Y-71450000D03*
X34450000Y-68450000D03*
X38950000Y-68450000D03*
X34450000Y-65450000D03*
X38950000Y-65450000D03*
D15*
X28750000Y-128150000D03*
X28750000Y-89300000D03*
X28750000Y-62600000D03*
X28750000Y-16750000D03*
%TD*%
D16*
%TO.C,J1*%
X51928509Y-87807040D03*
D17*
X51928509Y-84807040D03*
X51928509Y-81807040D03*
X51928509Y-78807040D03*
X51928509Y-75807040D03*
X51928509Y-72807040D03*
X51928509Y-69807040D03*
X51928509Y-66807040D03*
X51928509Y-63807040D03*
X54428509Y-86307040D03*
X54428509Y-83307040D03*
X54428509Y-80307040D03*
X54428509Y-77307040D03*
X54428509Y-74307040D03*
X54428509Y-71307040D03*
X54428509Y-68307040D03*
X54428509Y-65307040D03*
X57428509Y-86307040D03*
X57428509Y-83307040D03*
X57428509Y-80307040D03*
X57428509Y-77307040D03*
X57428509Y-74307040D03*
X57428509Y-71307040D03*
X57428509Y-68307040D03*
X57428509Y-65307040D03*
X59928509Y-87807040D03*
X59928509Y-84807040D03*
X59928509Y-81807040D03*
X59928509Y-78807040D03*
X59928509Y-75807040D03*
X59928509Y-72807040D03*
X59928509Y-69807040D03*
X59928509Y-66807040D03*
X59928509Y-63807040D03*
%TD*%
M02*
