M48
; DRILL file {KiCad (6.0.2-0)} date Wednesday, April 27, 2022 at 05:33:59 PM
; FORMAT={-:-/ absolute / inch / decimal}
; #@! TF.CreationDate,2022-04-27T17:33:59-06:00
; #@! TF.GenerationSoftware,Kicad,Pcbnew,(6.0.2-0)
; #@! TF.FileFunction,Plated,1,2,PTH
FMAT,2
INCH
; #@! TA.AperFunction,Plated,PTH,ViaDrill
T1C0.0157
; #@! TA.AperFunction,Plated,PTH,ComponentDrill
T2C0.0472
; #@! TA.AperFunction,Plated,PTH,ComponentDrill
T3C0.0512
; #@! TA.AperFunction,Plated,PTH,ComponentDrill
T4C0.1417
%
G90
G05
T1
X1.64Y-2.3428
X1.641Y-3.3979
X1.6902Y-1.6105
X1.6902Y-3.3389
X1.7355Y-3.457
X1.7355Y-4.3526
X1.7395Y-2.205
X1.7395Y-3.2798
X1.7896Y-3.2227
X1.7896Y-4.5259
X1.8389Y-3.1617
X1.8389Y-3.8192
X1.8868Y-1.7283
X1.8871Y-2.9255
X1.8881Y-3.1036
X1.8891Y-4.4688
X1.9383Y-2.5121
X1.9383Y-4.1145
X1.9744Y-1.5512
X1.9845Y-3.3979
X2.0101Y-2.9255
X2.0101Y-3.1617
X2.0101Y-3.2798
X2.0241Y-1.9058
X2.0305Y-0.9272
X2.0574Y-4.6459
X2.0807Y-1.4291
X2.1105Y-4.8457
X2.1154Y-3.8792
X2.1309Y-1.4921
X2.1791Y-1.1339
X2.2303Y-1.0659
X2.2828Y-2.0249
X2.394Y-2.5711
X2.394Y-2.6893
X2.394Y-2.8074
X2.394Y-2.9255
X2.394Y-3.0436
X2.394Y-3.1617
X2.3959Y-3.3979
X2.3969Y-3.2798
X2.4924Y-2.6902
X2.4934Y-3.3979
X2.5416Y-2.7473
X2.5436Y-3.458
X2.5918Y-2.8083
X2.6417Y-3.0436
X2.642Y-2.8664
X2.642Y-2.9255
X2.6922Y-2.9875
X2.7414Y-3.1026
X2.7896Y-3.1617
X2.8418Y-3.2798
T2
X1.3563Y-0.8583
X1.3563Y-0.9961
X1.3563Y-1.1339
X1.3563Y-1.2559
X1.3563Y-1.374
X1.3563Y-1.4921
X1.3563Y-1.6102
X1.3563Y-1.7283
X1.3563Y-1.8465
X1.3563Y-1.9646
X1.3563Y-2.0827
X1.3563Y-2.2047
X1.3563Y-2.3425
X1.3563Y-2.5768
X1.3563Y-2.6949
X1.3563Y-2.813
X1.3563Y-2.9311
X1.3563Y-3.0492
X1.3563Y-3.1673
X1.3563Y-3.2854
X1.3563Y-3.4035
X1.3563Y-3.622
X1.3563Y-3.7598
X1.3563Y-3.878
X1.3563Y-3.9961
X1.3563Y-4.1142
X1.3563Y-4.2323
X1.3563Y-4.3504
X1.3563Y-4.4685
X1.3563Y-4.5866
X1.3563Y-4.7087
X1.3563Y-4.8465
X1.5335Y-0.8583
X1.5335Y-0.9961
X1.5335Y-1.1339
X1.5335Y-1.2559
X1.5335Y-1.374
X1.5335Y-1.4921
X1.5335Y-1.6102
X1.5335Y-1.7283
X1.5335Y-1.8465
X1.5335Y-1.9646
X1.5335Y-2.0827
X1.5335Y-2.2047
X1.5335Y-2.3425
X1.5335Y-2.5768
X1.5335Y-2.6949
X1.5335Y-2.813
X1.5335Y-2.9311
X1.5335Y-3.0492
X1.5335Y-3.1673
X1.5335Y-3.2854
X1.5335Y-3.4035
X1.5335Y-3.622
X1.5335Y-3.7598
X1.5335Y-3.878
X1.5335Y-3.9961
X1.5335Y-4.1142
X1.5335Y-4.2323
X1.5335Y-4.3504
X1.5335Y-4.4685
X1.5335Y-4.5866
X1.5335Y-4.7087
X1.5335Y-4.8465
T3
X2.0444Y-2.5121
X2.0444Y-2.6302
X2.0444Y-2.7483
X2.0444Y-2.8664
X2.0444Y-2.9845
X2.0444Y-3.1026
X2.0444Y-3.2207
X2.0444Y-3.3389
X2.0444Y-3.457
X2.1429Y-2.5711
X2.1429Y-2.6893
X2.1429Y-2.8074
X2.1429Y-2.9255
X2.1429Y-3.0436
X2.1429Y-3.1617
X2.1429Y-3.2798
X2.1429Y-3.3979
X2.261Y-2.5711
X2.261Y-2.6893
X2.261Y-2.8074
X2.261Y-2.9255
X2.261Y-3.0436
X2.261Y-3.1617
X2.261Y-3.2798
X2.261Y-3.3979
X2.3594Y-2.5121
X2.3594Y-2.6302
X2.3594Y-2.7483
X2.3594Y-2.8664
X2.3594Y-2.9845
X2.3594Y-3.1026
X2.3594Y-3.2207
X2.3594Y-3.3389
X2.3594Y-3.457
T4
X1.1319Y-0.6594
X1.1319Y-2.4646
X1.1319Y-3.5157
X1.1319Y-5.0453
T0
M30
