%TF.GenerationSoftware,KiCad,Pcbnew,(6.0.2)*%
%TF.CreationDate,2022-05-10T14:48:36-06:00*%
%TF.ProjectId,CONEPROJ,434f4e45-5052-44f4-9a2e-6b696361645f,rev?*%
%TF.SameCoordinates,Original*%
%TF.FileFunction,Copper,L4,Bot*%
%TF.FilePolarity,Positive*%
%FSLAX46Y46*%
G04 Gerber Fmt 4.6, Leading zero omitted, Abs format (unit mm)*
G04 Created by KiCad (PCBNEW (6.0.2)) date 2022-05-10 14:48:36*
%MOMM*%
%LPD*%
G01*
G04 APERTURE LIST*
G04 Aperture macros list*
%AMRotRect*
0 Rectangle, with rotation*
0 The origin of the aperture is its center*
0 $1 length*
0 $2 width*
0 $3 Rotation angle, in degrees counterclockwise*
0 Add horizontal line*
21,1,$1,$2,0,0,$3*%
G04 Aperture macros list end*
%TA.AperFunction,EtchedComponent*%
%ADD10C,1.000000*%
%TD*%
%TA.AperFunction,ComponentPad*%
%ADD11O,1.000000X1.000000*%
%TD*%
%TA.AperFunction,ComponentPad*%
%ADD12R,1.000000X1.000000*%
%TD*%
%TA.AperFunction,ComponentPad*%
%ADD13R,0.900000X0.500000*%
%TD*%
%TA.AperFunction,ComponentPad*%
%ADD14C,0.500000*%
%TD*%
%TA.AperFunction,SMDPad,CuDef*%
%ADD15RotRect,5.600000X5.600000X135.000000*%
%TD*%
%TA.AperFunction,ComponentPad*%
%ADD16R,2.056000X2.056000*%
%TD*%
%TA.AperFunction,ComponentPad*%
%ADD17C,2.056000*%
%TD*%
%TA.AperFunction,ComponentPad*%
%ADD18C,1.000000*%
%TD*%
%TA.AperFunction,ComponentPad*%
%ADD19C,5.600000*%
%TD*%
%TA.AperFunction,ComponentPad*%
%ADD20R,1.700000X1.700000*%
%TD*%
%TA.AperFunction,ComponentPad*%
%ADD21O,1.700000X1.700000*%
%TD*%
%TA.AperFunction,ComponentPad*%
%ADD22C,0.600000*%
%TD*%
%TA.AperFunction,SMDPad,CuDef*%
%ADD23C,1.000000*%
%TD*%
%TA.AperFunction,ViaPad*%
%ADD24C,0.800000*%
%TD*%
%TA.AperFunction,ViaPad*%
%ADD25C,0.450000*%
%TD*%
%TA.AperFunction,Conductor*%
%ADD26C,1.000000*%
%TD*%
%TA.AperFunction,Conductor*%
%ADD27C,0.305800*%
%TD*%
%TA.AperFunction,Conductor*%
%ADD28C,0.500000*%
%TD*%
%TA.AperFunction,Conductor*%
%ADD29C,0.200000*%
%TD*%
%TA.AperFunction,Conductor*%
%ADD30C,0.250000*%
%TD*%
G04 APERTURE END LIST*
D10*
%TO.C,AE3*%
X72682499Y-138437502D02*
X71682499Y-137437502D01*
X73682499Y-137437502D02*
X73682499Y-134437502D01*
X87682499Y-134437502D02*
X86682499Y-133437502D01*
X88682499Y-138437502D02*
X87682499Y-137437502D01*
X84682499Y-138437502D02*
X83682499Y-137437502D01*
X77682499Y-137437502D02*
X77682499Y-134437502D01*
X80682499Y-138437502D02*
X79682499Y-137437502D01*
X77682499Y-134437502D02*
X76682499Y-133437502D01*
X82682499Y-138437502D02*
X81682499Y-137437502D01*
X78682499Y-138437502D02*
X77682499Y-137437502D01*
X71682499Y-137437502D02*
X71682499Y-134437502D01*
X73682499Y-134437502D02*
X72682499Y-133437502D01*
X75682499Y-137437502D02*
X75682499Y-134437502D01*
X75682499Y-134437502D02*
X74682499Y-133437502D01*
X79682499Y-137437502D02*
X79682499Y-134437502D01*
X85682499Y-137437502D02*
X85682499Y-134437502D01*
X71682499Y-134437502D02*
X70682499Y-133437502D01*
X85682499Y-134437502D02*
X84682499Y-133437502D01*
X79682499Y-134437502D02*
X78682499Y-133437502D01*
X81682499Y-137437502D02*
X81682499Y-134437502D01*
X83682499Y-134437502D02*
X82682499Y-133437502D01*
X86682499Y-138437502D02*
X85682499Y-137437502D01*
X87682499Y-137437502D02*
X87682499Y-134437502D01*
X76682499Y-138437502D02*
X75682499Y-137437502D01*
X83682499Y-137437502D02*
X83682499Y-134437502D01*
X81682499Y-134437502D02*
X80682499Y-133437502D01*
X74682499Y-138437502D02*
X73682499Y-137437502D01*
%TD*%
D11*
%TO.P,J8,6,Pin_6*%
%TO.N,unconnected-(J8-Pad6)*%
X26830000Y-123760000D03*
%TO.P,J8,5,Pin_5*%
%TO.N,GND*%
X26830000Y-122490000D03*
%TO.P,J8,4,Pin_4*%
%TO.N,/MTDI*%
X26830000Y-121220000D03*
%TO.P,J8,3,Pin_3*%
%TO.N,/MTMS*%
X26830000Y-119950000D03*
%TO.P,J8,2,Pin_2*%
%TO.N,/MTDO*%
X26830000Y-118680000D03*
D12*
%TO.P,J8,1,Pin_1*%
%TO.N,/MTCK*%
X26830000Y-117410000D03*
%TD*%
%TO.P,J6,1,Pin_1*%
%TO.N,GND*%
X26850000Y-126890000D03*
D11*
%TO.P,J6,2,Pin_2*%
%TO.N,/RXD*%
X26850000Y-128160000D03*
%TO.P,J6,3,Pin_3*%
%TO.N,/TXD*%
X26850000Y-129430000D03*
%TO.P,J6,4,Pin_4*%
%TO.N,unconnected-(J6-Pad4)*%
X26850000Y-130700000D03*
%TO.P,J6,5,Pin_5*%
%TO.N,/CTS*%
X26850000Y-131970000D03*
%TO.P,J6,6,Pin_6*%
%TO.N,/CHIP_PU*%
X26850000Y-133240000D03*
%TD*%
D13*
%TO.P,AE2,2,Shield*%
%TO.N,GND*%
X51870000Y-133985000D03*
%TD*%
D14*
%TO.P,U4,57,GND*%
%TO.N,GND*%
X51083122Y-118020000D03*
X46575317Y-117118439D03*
X52886245Y-118020000D03*
X45673755Y-118020000D03*
X51984683Y-118921561D03*
X48378439Y-115315317D03*
D15*
X49280000Y-118020000D03*
D14*
X48378439Y-118921561D03*
X49280000Y-118020000D03*
X50181561Y-118921561D03*
X49244645Y-119823122D03*
X48378439Y-117118439D03*
X49280000Y-114413755D03*
X49280000Y-121626245D03*
X51984683Y-117118439D03*
X48360761Y-120707006D03*
X50181561Y-117118439D03*
X51083122Y-116216878D03*
X51083122Y-119823122D03*
X50181561Y-115315317D03*
X47476878Y-118020000D03*
X47476878Y-116216878D03*
X47476878Y-119823122D03*
X49280000Y-116216878D03*
X46575317Y-118921561D03*
X50163883Y-120742361D03*
%TD*%
D16*
%TO.P,J4,A1,A1*%
%TO.N,/GPO1*%
X84025000Y-45040000D03*
D17*
%TO.P,J4,A2,A2*%
%TO.N,/GPO2*%
X88215000Y-45040000D03*
%TO.P,J4,A3,A3*%
%TO.N,/GPO3*%
X92405000Y-45040000D03*
%TO.P,J4,A4,A4*%
%TO.N,/GPO4*%
X96595000Y-45040000D03*
%TO.P,J4,A5,A5*%
%TO.N,/GPO6*%
X100785000Y-45040000D03*
%TO.P,J4,A6,A6*%
%TO.N,/GPO5*%
X104975000Y-45040000D03*
%TO.P,J4,A7,A7*%
%TO.N,/MOTOR1_OUT1*%
X104975000Y-51390000D03*
%TO.P,J4,A8,A8*%
%TO.N,/MOTOR1_OUT2*%
X100785000Y-51390000D03*
%TO.P,J4,A9,A9*%
%TO.N,/MOTOR2_OUT1*%
X96595000Y-51390000D03*
%TO.P,J4,A10,A10*%
%TO.N,/MOTOR2_OUT2*%
X92405000Y-51390000D03*
%TO.P,J4,A11,A11*%
%TO.N,/VBAT*%
X88215000Y-51390000D03*
%TO.P,J4,A12,A12*%
%TO.N,GND*%
X84025000Y-51390000D03*
D16*
%TO.P,J4,B1,B1*%
%TO.N,/CAN_P*%
X49975000Y-51390000D03*
D17*
%TO.P,J4,B2,B2*%
%TO.N,/CONN_B2*%
X45785000Y-51390000D03*
%TO.P,J4,B3,B3*%
%TO.N,/CONN_B3*%
X41595000Y-51390000D03*
%TO.P,J4,B4,B4*%
%TO.N,/CONN_RP_USB_D_P*%
X37405000Y-51390000D03*
%TO.P,J4,B5,B5*%
%TO.N,/USB_D_P*%
X33215000Y-51390000D03*
%TO.P,J4,B6,B6*%
%TO.N,GND*%
X29025000Y-51390000D03*
%TO.P,J4,B7,B7*%
%TO.N,+3V3*%
X29025000Y-45040000D03*
%TO.P,J4,B8,B8*%
%TO.N,/USB_D_N*%
X33215000Y-45040000D03*
%TO.P,J4,B9,B9*%
%TO.N,/CONN_RP_USB_D_N*%
X37405000Y-45040000D03*
%TO.P,J4,B10,B10*%
%TO.N,/CONN_B10*%
X41595000Y-45040000D03*
%TO.P,J4,B11,B11*%
%TO.N,/CONN_B11*%
X45785000Y-45040000D03*
%TO.P,J4,B12,B12*%
%TO.N,/CAN_N*%
X49975000Y-45040000D03*
%TD*%
D18*
%TO.P,AE3,*%
%TO.N,*%
X70682499Y-138437502D03*
X88682499Y-138437502D03*
X84682499Y-138437502D03*
X72682499Y-133437502D03*
X72682499Y-138437502D03*
X78682499Y-133437502D03*
X80682499Y-133437502D03*
X76682499Y-133437502D03*
X70682499Y-133437502D03*
X82682499Y-138437502D03*
X76682499Y-138437502D03*
X78682499Y-138437502D03*
X84682499Y-133437502D03*
X86682499Y-138437502D03*
X80682499Y-138437502D03*
X74682499Y-138437502D03*
X74682499Y-133437502D03*
X86682499Y-133437502D03*
X82682499Y-133437502D03*
%TD*%
D19*
%TO.P,H1,1,1*%
%TO.N,GND*%
X67000000Y-74000000D03*
%TD*%
D14*
%TO.P,U10,30,GND*%
%TO.N,GND*%
X98476500Y-65225000D03*
%TO.P,U10,31,GND*%
X99776500Y-65225000D03*
%TO.P,U10,32,GND*%
X101076500Y-65225000D03*
%TO.P,U10,33,GND*%
X102376500Y-65225000D03*
%TO.P,U10,34,GND*%
X97176500Y-65225000D03*
%TO.P,U10,35,GND*%
X95876500Y-65225000D03*
%TO.P,U10,36,GND*%
X94576500Y-65225000D03*
%TO.P,U10,37,GND*%
X102376500Y-63925000D03*
%TO.P,U10,38,GND*%
X102376500Y-66525000D03*
%TO.P,U10,39,GND*%
X101076500Y-63925000D03*
%TO.P,U10,40,GND*%
X101076500Y-66525000D03*
%TO.P,U10,41,GND*%
X99776500Y-66525000D03*
%TO.P,U10,42,GND*%
X99776500Y-63925000D03*
%TO.P,U10,43,GND*%
X98476500Y-63925000D03*
%TO.P,U10,44,GND*%
X98476500Y-66525000D03*
%TO.P,U10,45,GND*%
X97176500Y-63925000D03*
%TO.P,U10,46,GND*%
X97176500Y-66525000D03*
%TO.P,U10,47,GND*%
X95876500Y-63925000D03*
%TO.P,U10,48,GND*%
X95876500Y-66525000D03*
%TO.P,U10,49,GND*%
X94576500Y-63925000D03*
%TO.P,U10,50,GND*%
X94576500Y-66525000D03*
%TD*%
D20*
%TO.P,J5,1,Pin_1*%
%TO.N,+3V3*%
X104430000Y-86190000D03*
D21*
%TO.P,J5,2,Pin_2*%
%TO.N,GND*%
X104430000Y-88730000D03*
%TO.P,J5,3,Pin_3*%
%TO.N,/CONN_RP_USB_D_P*%
X104430000Y-91270000D03*
%TO.P,J5,4,Pin_4*%
%TO.N,/CONN_RP_USB_D_N*%
X104430000Y-93810000D03*
%TO.P,J5,5,Pin_5*%
%TO.N,/USB_D_N*%
X104430000Y-96350000D03*
%TO.P,J5,6,Pin_6*%
%TO.N,/USB_D_P*%
X104430000Y-98890000D03*
%TO.P,J5,7,Pin_7*%
%TO.N,/FSPIQ*%
X104430000Y-101430000D03*
%TO.P,J5,8,Pin_8*%
%TO.N,/FSPICLK*%
X104430000Y-103970000D03*
%TO.P,J5,9,Pin_9*%
%TO.N,/FSPID*%
X104430000Y-106510000D03*
%TO.P,J5,10,Pin_10*%
%TO.N,unconnected-(J5-Pad10)*%
X104430000Y-109050000D03*
%TD*%
D22*
%TO.P,U11,57,GND*%
%TO.N,GND*%
X41765000Y-71050000D03*
X41765000Y-69775000D03*
X40490000Y-69775000D03*
X40490000Y-71050000D03*
X41765000Y-72325000D03*
X39215000Y-72325000D03*
X39215000Y-69775000D03*
X40490000Y-72325000D03*
X39215000Y-71050000D03*
%TD*%
D23*
%TO.P,TP10,1,1*%
%TO.N,/FSPICS1*%
X63360000Y-118270000D03*
%TD*%
%TO.P,TP6,1,1*%
%TO.N,/FSPIQ*%
X79010000Y-94940000D03*
%TD*%
%TO.P,TP5,1,1*%
%TO.N,/FSPID*%
X79010000Y-98320000D03*
%TD*%
%TO.P,TP12,1,1*%
%TO.N,/GPIO14*%
X43520000Y-100300000D03*
%TD*%
%TO.P,TP11,1,1*%
%TO.N,/FSPICS2*%
X47570000Y-100300000D03*
%TD*%
%TO.P,TP8,1,1*%
%TO.N,/FSPICLK*%
X79010000Y-96630000D03*
%TD*%
%TO.P,TP9,1,1*%
%TO.N,/FSPICS0*%
X79010000Y-100010000D03*
%TD*%
D24*
%TO.N,GND*%
X72530000Y-67270000D03*
X73530000Y-67270000D03*
X74530000Y-67270000D03*
D25*
X46820000Y-132020000D03*
X47715000Y-132020000D03*
D24*
%TO.N,+3V3*%
X31760000Y-111130000D03*
D25*
X43650000Y-120470000D03*
D24*
X83230000Y-116300000D03*
D25*
X51480000Y-123450000D03*
X54890417Y-114883589D03*
D24*
X38970000Y-103970000D03*
X35510000Y-103970000D03*
X41280000Y-110280000D03*
X53430000Y-128260000D03*
X25020000Y-111130000D03*
X49180000Y-112780000D03*
X36800000Y-100620500D03*
X39362028Y-129242028D03*
D25*
%TO.N,/MTDI*%
X37940000Y-122650000D03*
%TO.N,/MTDO*%
X38930000Y-119780000D03*
%TO.N,/MTCK*%
X38930000Y-118970000D03*
%TO.N,/TXD*%
X37430000Y-129080000D03*
%TO.N,/RXD*%
X34570000Y-126890000D03*
D24*
%TO.N,GND*%
X35690000Y-122770000D03*
D25*
%TO.N,/MTMS*%
X30820000Y-120120000D03*
X38930000Y-122650000D03*
%TO.N,/CHIP_PU*%
X37440000Y-131300000D03*
%TO.N,/CTS*%
X36330000Y-130080000D03*
%TO.N,/CHIP_PU*%
X53030000Y-123334500D03*
%TO.N,/CTS*%
X54640000Y-123330000D03*
%TO.N,GND*%
X48920000Y-127990000D03*
D24*
X28620000Y-64310500D03*
X36380000Y-79180000D03*
X72600000Y-47550000D03*
X40880000Y-78260000D03*
X91100000Y-114980000D03*
X51550000Y-126110000D03*
X56200000Y-133990000D03*
D25*
X92610000Y-137500000D03*
D24*
X72600000Y-45010000D03*
X93700000Y-59800000D03*
X41578003Y-58741997D03*
X48699020Y-110570000D03*
X37870000Y-60770000D03*
D25*
X55340000Y-114220000D03*
D24*
X87900000Y-70400000D03*
D25*
X56660000Y-108930000D03*
X48610000Y-132010000D03*
D24*
X72600000Y-58200000D03*
X89600000Y-125600000D03*
D25*
X50760000Y-129940000D03*
D24*
X52390000Y-56965000D03*
X55479906Y-126721281D03*
X86400000Y-70400000D03*
D25*
X48920000Y-129960000D03*
D24*
X47190000Y-67140000D03*
X72500000Y-52890000D03*
X33810000Y-114832107D03*
X97590000Y-121350000D03*
X43161261Y-64660723D03*
D25*
X53780000Y-108930000D03*
D24*
X104400000Y-64200000D03*
X56200000Y-131030000D03*
D25*
X48920000Y-128970000D03*
D24*
X78000000Y-69300000D03*
X89604999Y-121250002D03*
X64320000Y-124390000D03*
D25*
X50760000Y-130950000D03*
D24*
X43020688Y-110239312D03*
X73530000Y-124280000D03*
D25*
X48930000Y-127130000D03*
D24*
X78000000Y-70300000D03*
X49090000Y-126110000D03*
X87220000Y-125600000D03*
D25*
X50770000Y-128950000D03*
D24*
X104400000Y-65200000D03*
X72600000Y-55680000D03*
X44010000Y-104650000D03*
X47219503Y-72960000D03*
X34050497Y-73930000D03*
X79300000Y-70300000D03*
X35909500Y-66679500D03*
X72600000Y-50350000D03*
D25*
X51530000Y-127970000D03*
D24*
X34030000Y-75490000D03*
X49660378Y-110569622D03*
X89500000Y-70400000D03*
X89594999Y-124220002D03*
X68220000Y-79660000D03*
X29190994Y-56232970D03*
X32610000Y-109290000D03*
D25*
X48610000Y-133000000D03*
D24*
X43270000Y-129560000D03*
D25*
X50770000Y-127110000D03*
D24*
X79300000Y-69300000D03*
X87900000Y-68800000D03*
X86400000Y-68800000D03*
X99770000Y-118700000D03*
D25*
X40970000Y-120470000D03*
D24*
X42280000Y-124770000D03*
X73680000Y-110300000D03*
X104400000Y-66400000D03*
X93200000Y-121250000D03*
X93700000Y-60900000D03*
%TO.N,/LED_RED*%
X70050000Y-81350000D03*
X48547600Y-81350000D03*
%TO.N,+3V3*%
X71180000Y-62330000D03*
X41390000Y-61480000D03*
X46100000Y-72920000D03*
X52390000Y-55715000D03*
X35050000Y-73930000D03*
X39410500Y-77428816D03*
X103560000Y-117040000D03*
X89020000Y-117580000D03*
X73980000Y-76770000D03*
X91140000Y-131610000D03*
X35080000Y-67300000D03*
X99780000Y-121360000D03*
%TO.N,/FSPICS0*%
X74730000Y-97320000D03*
D25*
X28510000Y-97320000D03*
%TO.N,/FSPIQ*%
X100890000Y-113550000D03*
X26510000Y-94900000D03*
D24*
X67970000Y-94900000D03*
D25*
X102850000Y-113550000D03*
D24*
%TO.N,/FSPICLK*%
X65520000Y-95680000D03*
D25*
X27200000Y-95680000D03*
%TO.N,/FSPID*%
X96490000Y-115400000D03*
X102860000Y-114590000D03*
X27860000Y-96440000D03*
X99710000Y-115400000D03*
D24*
X66900000Y-96470000D03*
D25*
%TO.N,/GPIO14*%
X48550000Y-98920000D03*
X56300000Y-111450000D03*
D24*
%TO.N,/USB_D_P*%
X51480000Y-93790000D03*
%TO.N,/USB_D_N*%
X50792400Y-92730000D03*
D25*
%TO.N,/SPICLK*%
X39970000Y-108020000D03*
X38343343Y-108020000D03*
%TO.N,/SPID*%
X40070000Y-109300000D03*
X36320000Y-109310000D03*
%TO.N,/SPICS0*%
X45380000Y-109030000D03*
X47094020Y-109030000D03*
%TO.N,/FSPICS1*%
X64540000Y-118300000D03*
X56390000Y-118270000D03*
%TO.N,/GPIO38*%
X25985500Y-98310000D03*
D24*
X56180000Y-98300000D03*
%TO.N,/VIN*%
X103500000Y-55900000D03*
X93600000Y-54800000D03*
X94600000Y-54800000D03*
X102500000Y-54900000D03*
X101500000Y-55900000D03*
X93600000Y-55800000D03*
X103500000Y-54900000D03*
X30320000Y-56220000D03*
X94600000Y-55800000D03*
X102500000Y-55900000D03*
X95600000Y-55800000D03*
X101500000Y-54900000D03*
X95600000Y-54800000D03*
%TO.N,/SW*%
X74000000Y-72100000D03*
X81050000Y-70300000D03*
D25*
%TO.N,Net-(R9-Pad2)*%
X44870000Y-106760000D03*
X48700000Y-106750000D03*
%TO.N,Net-(R11-Pad2)*%
X46560000Y-108020000D03*
X44860000Y-108020000D03*
D24*
%TO.N,/GPO5*%
X82300000Y-56350000D03*
%TO.N,/GPO6*%
X80620000Y-56310000D03*
%TO.N,/GPIO_CAN_P*%
X53670000Y-62240000D03*
X60730000Y-62239622D03*
D25*
%TO.N,/RP_SWD*%
X44260000Y-79950000D03*
X45550000Y-79960000D03*
D24*
%TO.N,+1V1*%
X43140000Y-65660000D03*
X39690000Y-63480000D03*
X42259500Y-77419536D03*
%TO.N,/GPIO_CAN_N*%
X54940000Y-61110000D03*
X62840000Y-61090000D03*
%TO.N,/GPIO21*%
X52290000Y-63710000D03*
X58142972Y-63692972D03*
D25*
%TO.N,/FSPICS2*%
X57042600Y-110550000D03*
X49300000Y-100300000D03*
D24*
%TO.N,/CONN_RP_USB_D_P*%
X52570000Y-78310000D03*
X46400000Y-62520000D03*
X52560000Y-90090000D03*
%TO.N,/CONN_RP_USB_D_N*%
X46370000Y-63570000D03*
X51280000Y-78300000D03*
X51310000Y-91220000D03*
%TO.N,/LED_GREEN*%
X70050000Y-83050000D03*
X48547600Y-83050000D03*
D25*
%TO.N,/CONN_B11*%
X33610000Y-70860000D03*
%TO.N,/CONN_B2*%
X34191731Y-70174500D03*
%TO.N,/CONN_B10*%
X33000000Y-71500000D03*
%TO.N,/CONN_B3*%
X32380000Y-72050000D03*
%TD*%
D26*
%TO.N,/SW*%
X79800000Y-72100000D02*
X74000000Y-72100000D01*
X81050000Y-70300000D02*
X81050000Y-70850000D01*
X81050000Y-70850000D02*
X79800000Y-72100000D01*
%TO.N,+3V3*%
X90457499Y-118932501D02*
X90377499Y-118932501D01*
X103560000Y-117040000D02*
X92350000Y-117040000D01*
X92350000Y-117040000D02*
X90457499Y-118932501D01*
D27*
%TO.N,/CONN_RP_USB_D_P*%
X52560000Y-90090000D02*
X49540000Y-90090000D01*
X48940000Y-89090000D02*
G75*
G02*
X49240000Y-89390000I0J-300000D01*
G01*
X45940000Y-90090000D02*
G75*
G03*
X46240000Y-89790000I0J300000D01*
G01*
X46240000Y-89390000D02*
G75*
G02*
X46540000Y-89090000I300000J0D01*
G01*
X31740000Y-60380000D02*
X37405000Y-54715000D01*
X46540000Y-89090000D02*
G75*
G02*
X46840000Y-89390000I0J-300000D01*
G01*
X49240000Y-89790000D02*
X49240000Y-89390000D01*
X46840000Y-90390000D02*
G75*
G03*
X47140000Y-90690000I300000J0D01*
G01*
X48040000Y-90390000D02*
X48040000Y-89390000D01*
X47140000Y-90690000D02*
G75*
G03*
X47440000Y-90390000I0J300000D01*
G01*
X47740000Y-89090000D02*
G75*
G02*
X48040000Y-89390000I0J-300000D01*
G01*
X47440000Y-89390000D02*
G75*
G02*
X47740000Y-89090000I300000J0D01*
G01*
X48040000Y-90390000D02*
G75*
G03*
X48340000Y-90690000I300000J0D01*
G01*
X45940000Y-90090000D02*
X36920000Y-90090000D01*
X48340000Y-90690000D02*
G75*
G03*
X48640000Y-90390000I0J300000D01*
G01*
X48640000Y-89390000D02*
G75*
G02*
X48940000Y-89090000I300000J0D01*
G01*
X49240000Y-89790000D02*
G75*
G03*
X49540000Y-90090000I300000J0D01*
G01*
X48640000Y-89390000D02*
X48640000Y-90390000D01*
X31740000Y-84910000D02*
X31740000Y-60380000D01*
X47440000Y-89390000D02*
X47440000Y-90390000D01*
X46840000Y-90390000D02*
X46840000Y-89390000D01*
X46240000Y-89390000D02*
X46240000Y-89790000D01*
X36920000Y-90090000D02*
X31740000Y-84910000D01*
X37405000Y-54715000D02*
X37405000Y-51390000D01*
D28*
%TO.N,+3V3*%
X46100000Y-72920000D02*
X46120000Y-72900000D01*
X46120000Y-72900000D02*
X46120000Y-64990000D01*
X46120000Y-64990000D02*
X42610000Y-61480000D01*
X42610000Y-61480000D02*
X41390000Y-61480000D01*
%TO.N,+1V1*%
X43140000Y-65660000D02*
X41090000Y-65660000D01*
X41090000Y-65660000D02*
X39690000Y-64260000D01*
X39690000Y-64260000D02*
X39690000Y-63480000D01*
D26*
%TO.N,+3V3*%
X91140000Y-131610000D02*
X91140000Y-119695003D01*
X91140000Y-119695003D02*
X90377499Y-118932501D01*
D28*
X39360000Y-123680000D02*
X42570000Y-120470000D01*
X54890417Y-114883589D02*
X54893589Y-114883589D01*
X54350000Y-126260000D02*
X53430000Y-126260000D01*
D26*
X56240000Y-116300000D02*
X55860000Y-115920000D01*
D28*
X39360000Y-129240000D02*
X39360000Y-123680000D01*
X32620000Y-110270000D02*
X41270000Y-110270000D01*
X55528415Y-115518415D02*
X55528415Y-115588415D01*
X41270000Y-110270000D02*
X41280000Y-110280000D01*
X39640000Y-103970000D02*
X41280000Y-105610000D01*
D26*
X31760000Y-111130000D02*
X25020000Y-111130000D01*
D28*
X43650000Y-112870000D02*
X43750000Y-112770000D01*
X49170000Y-112770000D02*
X43750000Y-112770000D01*
X31760000Y-111130000D02*
X32620000Y-110270000D01*
X42780000Y-112770000D02*
X41280000Y-111270000D01*
X41280000Y-111270000D02*
X41280000Y-110280000D01*
X49180000Y-112780000D02*
X49170000Y-112770000D01*
X35510000Y-103970000D02*
X36790000Y-103970000D01*
X43650000Y-120470000D02*
X43650000Y-112870000D01*
X43750000Y-112770000D02*
X42780000Y-112770000D01*
X41280000Y-105610000D02*
X41280000Y-110280000D01*
X52786828Y-112780000D02*
X49180000Y-112780000D01*
X54890417Y-114883589D02*
X52786828Y-112780000D01*
X38970000Y-103970000D02*
X39640000Y-103970000D01*
X36790000Y-103970000D02*
X38970000Y-103970000D01*
D26*
X83230000Y-116300000D02*
X56240000Y-116300000D01*
D28*
X54893589Y-114883589D02*
X55528415Y-115518415D01*
X42570000Y-120470000D02*
X43650000Y-120470000D01*
X55860000Y-115920000D02*
X55400000Y-116380000D01*
X39362028Y-129242028D02*
X39360000Y-129240000D01*
D26*
X55860000Y-115920000D02*
X55528415Y-115588415D01*
D28*
X53430000Y-128260000D02*
X53430000Y-126260000D01*
X55400000Y-125210000D02*
X54350000Y-126260000D01*
X55400000Y-116380000D02*
X55400000Y-125210000D01*
X53430000Y-125400000D02*
X51480000Y-123450000D01*
X53430000Y-126260000D02*
X53430000Y-125400000D01*
X36810000Y-100630500D02*
X36810000Y-103950000D01*
X36800000Y-100620500D02*
X36810000Y-100630500D01*
X36810000Y-103950000D02*
X36790000Y-103970000D01*
D27*
%TO.N,/MTDI*%
X37940000Y-122650000D02*
X37940000Y-121350000D01*
X37940000Y-121350000D02*
X37340000Y-120750000D01*
X28530000Y-120750000D02*
X28060000Y-121220000D01*
X37340000Y-120750000D02*
X28530000Y-120750000D01*
X28060000Y-121220000D02*
X26830000Y-121220000D01*
%TO.N,/MTMS*%
X30820000Y-120120000D02*
X28500000Y-120120000D01*
X28500000Y-120120000D02*
X28330000Y-119950000D01*
X28330000Y-119950000D02*
X26830000Y-119950000D01*
%TO.N,/MTDO*%
X38920000Y-119780000D02*
X38480000Y-119340000D01*
X38480000Y-119340000D02*
X28790000Y-119340000D01*
X28790000Y-119340000D02*
X28130000Y-118680000D01*
X28130000Y-118680000D02*
X26830000Y-118680000D01*
%TO.N,/MTCK*%
X38930000Y-118970000D02*
X38520000Y-118560000D01*
X38520000Y-118560000D02*
X29170000Y-118560000D01*
X29170000Y-118560000D02*
X28020000Y-117410000D01*
X28020000Y-117410000D02*
X26830000Y-117410000D01*
%TO.N,/MTMS*%
X37890000Y-120120000D02*
X38920000Y-121150000D01*
X30820000Y-120120000D02*
X37890000Y-120120000D01*
X38920000Y-121150000D02*
X38920000Y-122650000D01*
%TO.N,/TXD*%
X26850000Y-129430000D02*
X27271721Y-129851721D01*
X27271721Y-129851721D02*
X32378279Y-129851721D01*
X32378279Y-129851721D02*
X33157721Y-129072279D01*
X33157721Y-129072279D02*
X37422279Y-129072279D01*
X37422279Y-129072279D02*
X37430000Y-129080000D01*
%TO.N,/CTS*%
X34440000Y-131970000D02*
X26850000Y-131970000D01*
X36330000Y-130080000D02*
X34440000Y-131970000D01*
%TO.N,/CHIP_PU*%
X52520000Y-123310000D02*
X52520000Y-123330000D01*
X37440000Y-131300000D02*
X39580000Y-131300000D01*
X39580000Y-131300000D02*
X40850000Y-130030000D01*
X52050000Y-122840000D02*
X52520000Y-123310000D01*
X35500000Y-133240000D02*
X26850000Y-133240000D01*
X40850000Y-130030000D02*
X40850000Y-124420000D01*
X37440000Y-131300000D02*
X35500000Y-133240000D01*
X40850000Y-124420000D02*
X42430000Y-122840000D01*
X42430000Y-122840000D02*
X52050000Y-122840000D01*
%TO.N,/RXD*%
X34570000Y-126890000D02*
X33520000Y-127940000D01*
X33520000Y-127940000D02*
X27390000Y-127940000D01*
X27390000Y-127940000D02*
X27170000Y-128160000D01*
%TO.N,/CTS*%
X36330000Y-130080000D02*
X39745592Y-130080000D01*
X39745592Y-130080000D02*
X40172580Y-129653012D01*
X40172580Y-123967420D02*
X41805320Y-122334680D01*
X53644680Y-122334680D02*
X54640000Y-123330000D01*
X40172580Y-129653012D02*
X40172580Y-123967420D01*
X41805320Y-122334680D02*
X53644680Y-122334680D01*
%TO.N,/USB_D_N*%
X50792400Y-92730000D02*
X50762400Y-92700000D01*
X50762400Y-92700000D02*
X34270000Y-92700000D01*
X33215000Y-47475000D02*
X33215000Y-45040000D01*
X34270000Y-92700000D02*
X30320000Y-88750000D01*
X34850000Y-54440000D02*
X34850000Y-49110000D01*
X30320000Y-88750000D02*
X30320000Y-58970000D01*
X30320000Y-58970000D02*
X34850000Y-54440000D01*
X34850000Y-49110000D02*
X33215000Y-47475000D01*
X96000830Y-92991661D02*
X96459170Y-92991661D01*
X97430000Y-92850000D02*
X99070000Y-92850000D01*
X95930000Y-92408339D02*
X95930000Y-92920831D01*
X95330000Y-92550000D02*
X95330000Y-92408339D01*
X50912400Y-92850000D02*
X95030000Y-92850000D01*
X96830000Y-92108339D02*
G75*
G03*
X96530000Y-92408339I0J-300000D01*
G01*
X99070000Y-92850000D02*
X102570000Y-96350000D01*
X96530000Y-92920831D02*
G75*
G02*
X96459170Y-92991661I-70831J1D01*
G01*
X96530000Y-92920831D02*
X96530000Y-92408339D01*
X97430000Y-92850000D02*
G75*
G02*
X97130000Y-92550000I0J300000D01*
G01*
X96000830Y-92991661D02*
G75*
G02*
X95930000Y-92920831I1J70831D01*
G01*
X97130000Y-92408339D02*
X97130000Y-92550000D01*
X95930000Y-92408339D02*
G75*
G03*
X95630000Y-92108339I-300000J0D01*
G01*
X95630000Y-92108339D02*
G75*
G03*
X95330000Y-92408339I0J-300000D01*
G01*
X50792400Y-92730000D02*
X50912400Y-92850000D01*
X97130000Y-92408339D02*
G75*
G03*
X96830000Y-92108339I-300000J0D01*
G01*
X95330000Y-92550000D02*
G75*
G02*
X95030000Y-92850000I-300000J0D01*
G01*
X102570000Y-96350000D02*
X104430000Y-96350000D01*
%TO.N,/CHIP_PU*%
X53030000Y-123334500D02*
X52524500Y-123334500D01*
D28*
%TO.N,/LED_RED*%
X48547600Y-81350000D02*
X70050000Y-81350000D01*
%TO.N,+3V3*%
X38850000Y-61480000D02*
X41390000Y-61480000D01*
D26*
X72650000Y-78100000D02*
X56090000Y-78100000D01*
X73980000Y-76770000D02*
X73980000Y-74790000D01*
X103610000Y-117140000D02*
X103610000Y-119220000D01*
X56090000Y-78100000D02*
X54230000Y-79960000D01*
X71180000Y-71990000D02*
X71180000Y-62330000D01*
D28*
X35060000Y-72770000D02*
X35050000Y-72780000D01*
D26*
X54230000Y-79960000D02*
X49700000Y-79960000D01*
X73980000Y-75930000D02*
X74050000Y-75860000D01*
X73980000Y-76770000D02*
X72650000Y-78100000D01*
X103610000Y-119220000D02*
X101470000Y-121360000D01*
D28*
X37318816Y-77428816D02*
X39410500Y-77428816D01*
D26*
X74050000Y-75860000D02*
X101010000Y-75860000D01*
X89020000Y-117580000D02*
X89024998Y-117580000D01*
D28*
X35060000Y-67620000D02*
X35060000Y-65270000D01*
D26*
X89024998Y-117580000D02*
X90377499Y-118932501D01*
D28*
X35060000Y-65270000D02*
X38850000Y-61480000D01*
D26*
X101470000Y-121360000D02*
X99780000Y-121360000D01*
X104450000Y-79300000D02*
X104430000Y-79320000D01*
D28*
X35060000Y-67620000D02*
X35060000Y-72770000D01*
D26*
X73980000Y-74790000D02*
X71180000Y-71990000D01*
X104430000Y-79320000D02*
X104430000Y-86190000D01*
X101010000Y-75860000D02*
X104450000Y-79300000D01*
D28*
X35050000Y-72780000D02*
X35050000Y-75160000D01*
X35050000Y-75160000D02*
X37318816Y-77428816D01*
D26*
X49700000Y-79960000D02*
X46119992Y-76379992D01*
X46119992Y-76379992D02*
X46119992Y-72960000D01*
X64565000Y-55715000D02*
X52390000Y-55715000D01*
X71180000Y-62330000D02*
X64565000Y-55715000D01*
D27*
%TO.N,/FSPICS0*%
X77950000Y-100010000D02*
X75260000Y-97320000D01*
X28510000Y-97320000D02*
X74730000Y-97320000D01*
X75260000Y-97320000D02*
X74730000Y-97320000D01*
X79010000Y-100010000D02*
X77950000Y-100010000D01*
%TO.N,/FSPIQ*%
X100510000Y-101430000D02*
X104430000Y-101430000D01*
X79010000Y-94940000D02*
X94020000Y-94940000D01*
X67970000Y-94900000D02*
X26510000Y-94900000D01*
X68010000Y-94940000D02*
X79010000Y-94940000D01*
X94020000Y-94940000D02*
X100510000Y-101430000D01*
D28*
X100890000Y-113550000D02*
X102850000Y-113550000D01*
D27*
X67970000Y-94900000D02*
X68010000Y-94940000D01*
%TO.N,/FSPICLK*%
X65520000Y-95680000D02*
X76500000Y-95680000D01*
X104430000Y-103970000D02*
X99930000Y-103970000D01*
X65520000Y-95680000D02*
X27200000Y-95680000D01*
X92590000Y-96630000D02*
X79010000Y-96630000D01*
X77450000Y-96630000D02*
X79010000Y-96630000D01*
X99930000Y-103970000D02*
X92590000Y-96630000D01*
X76500000Y-95680000D02*
X77450000Y-96630000D01*
%TO.N,/FSPID*%
X77770000Y-98320000D02*
X79010000Y-98320000D01*
X79010000Y-98320000D02*
X89950000Y-98320000D01*
X98140000Y-106510000D02*
X104430000Y-106510000D01*
X66900000Y-96470000D02*
X75920000Y-96470000D01*
X75920000Y-96470000D02*
X77770000Y-98320000D01*
X27860000Y-96440000D02*
X66870000Y-96440000D01*
D28*
X99710000Y-115400000D02*
X96490000Y-115400000D01*
X100520000Y-114590000D02*
X99710000Y-115400000D01*
X102860000Y-114590000D02*
X100520000Y-114590000D01*
D27*
X66870000Y-96440000D02*
X66900000Y-96470000D01*
X89950000Y-98320000D02*
X98140000Y-106510000D01*
%TO.N,/GPIO14*%
X44900000Y-98920000D02*
X43520000Y-100300000D01*
X58600000Y-110150000D02*
X57300000Y-111450000D01*
X58600000Y-105400000D02*
X58600000Y-110150000D01*
X48550000Y-98920000D02*
X44900000Y-98920000D01*
X48550000Y-98920000D02*
X52120000Y-98920000D01*
X52120000Y-98920000D02*
X58600000Y-105400000D01*
X57300000Y-111450000D02*
X56300000Y-111450000D01*
%TO.N,/USB_D_P*%
X33215000Y-51390000D02*
X33215000Y-54935000D01*
X51480000Y-93790000D02*
X50590000Y-93790000D01*
X51480000Y-93790000D02*
X95115000Y-93790000D01*
X33215000Y-54935000D02*
X29470000Y-58680000D01*
X104430000Y-98890000D02*
X102570000Y-98890000D01*
X48840000Y-93240000D02*
X48790000Y-93240000D01*
X96015000Y-93790000D02*
X96015000Y-94455806D01*
X33400000Y-93790000D02*
X47040000Y-93790000D01*
X102570000Y-98890000D02*
X97470000Y-93790000D01*
X47915000Y-94090000D02*
X47915000Y-93515000D01*
X96032097Y-93790000D02*
X96015000Y-93790000D01*
X96032097Y-93682097D02*
X96032097Y-93790000D01*
X95415000Y-94455806D02*
X95415000Y-94090000D01*
X50040000Y-93240000D02*
X49990000Y-93240000D01*
X48515000Y-93515000D02*
X48515000Y-94090000D01*
X47640000Y-93240000D02*
X47590000Y-93240000D01*
X49115000Y-94090000D02*
X49115000Y-93515000D01*
X96524194Y-93574194D02*
X96140000Y-93574194D01*
X49715000Y-93515000D02*
X49715000Y-94090000D01*
X97470000Y-93790000D02*
X96740000Y-93790000D01*
X29470000Y-58680000D02*
X29470000Y-89860000D01*
X29470000Y-89860000D02*
X33400000Y-93790000D01*
X47040000Y-93790000D02*
G75*
G03*
X47315000Y-93515000I-1J275001D01*
G01*
X48515000Y-93515000D02*
G75*
G02*
X48790000Y-93240000I275001J-1D01*
G01*
X95415000Y-94455806D02*
G75*
G03*
X95715000Y-94755806I300000J0D01*
G01*
X48215000Y-94390000D02*
G75*
G03*
X48515000Y-94090000I0J300000D01*
G01*
X96632097Y-93682097D02*
G75*
G03*
X96740000Y-93790000I107903J0D01*
G01*
X49115000Y-94090000D02*
G75*
G03*
X49415000Y-94390000I300000J0D01*
G01*
X95115000Y-93790000D02*
G75*
G02*
X95415000Y-94090000I0J-300000D01*
G01*
X49715000Y-93515000D02*
G75*
G02*
X49990000Y-93240000I275001J-1D01*
G01*
X47315000Y-93515000D02*
G75*
G02*
X47590000Y-93240000I275001J-1D01*
G01*
X96524194Y-93574194D02*
G75*
G02*
X96632097Y-93682097I0J-107903D01*
G01*
X96032097Y-93682097D02*
G75*
G02*
X96140000Y-93574194I107903J0D01*
G01*
X50315000Y-93515000D02*
G75*
G03*
X50590000Y-93790000I275001J1D01*
G01*
X48840000Y-93240000D02*
G75*
G02*
X49115000Y-93515000I-1J-275001D01*
G01*
X47640000Y-93240000D02*
G75*
G02*
X47915000Y-93515000I-1J-275001D01*
G01*
X47915000Y-94090000D02*
G75*
G03*
X48215000Y-94390000I300000J0D01*
G01*
X49415000Y-94390000D02*
G75*
G03*
X49715000Y-94090000I0J300000D01*
G01*
X95715000Y-94755806D02*
G75*
G03*
X96015000Y-94455806I0J300000D01*
G01*
X50040000Y-93240000D02*
G75*
G02*
X50315000Y-93515000I-1J-275001D01*
G01*
%TO.N,/SPICLK*%
X38343343Y-108020000D02*
X39970000Y-108020000D01*
%TO.N,/SPID*%
X36330000Y-109300000D02*
X40070000Y-109300000D01*
X36320000Y-109310000D02*
X36330000Y-109300000D01*
%TO.N,/SPICS0*%
X45380000Y-109030000D02*
X47094020Y-109030000D01*
D29*
%TO.N,/FSPICS1*%
X56390000Y-118270000D02*
X64510000Y-118270000D01*
X64510000Y-118270000D02*
X64540000Y-118300000D01*
D27*
%TO.N,/GPIO38*%
X56170000Y-98310000D02*
X25985500Y-98310000D01*
X56180000Y-98300000D02*
X56170000Y-98310000D01*
D26*
%TO.N,/VIN*%
X72980000Y-43050000D02*
X77385000Y-47455000D01*
X77385000Y-47455000D02*
X77385000Y-56445000D01*
X31100000Y-43976951D02*
X32026951Y-43050000D01*
X31100000Y-55440000D02*
X31100000Y-43976951D01*
X80380000Y-59440000D02*
X87450000Y-59440000D01*
X77385000Y-56445000D02*
X80380000Y-59440000D01*
X32026951Y-43050000D02*
X72980000Y-43050000D01*
X87450000Y-59440000D02*
X91580000Y-55310000D01*
X91580000Y-55310000D02*
X94440000Y-55310000D01*
X30320000Y-56220000D02*
X31100000Y-55440000D01*
D27*
%TO.N,Net-(R9-Pad2)*%
X48690000Y-106760000D02*
X48700000Y-106750000D01*
X44870000Y-106760000D02*
X48690000Y-106760000D01*
%TO.N,Net-(R11-Pad2)*%
X46560000Y-108020000D02*
X44860000Y-108020000D01*
D26*
%TO.N,/GPO5*%
X82300000Y-52108071D02*
X82297489Y-52105560D01*
X82300000Y-56350000D02*
X82300000Y-52108071D01*
X83120000Y-49030000D02*
X100985000Y-49030000D01*
X82297489Y-52105560D02*
X82297489Y-49852511D01*
X82297489Y-49852511D02*
X83120000Y-49030000D01*
X100985000Y-49030000D02*
X104975000Y-45040000D01*
%TO.N,/GPO6*%
X80620000Y-56310000D02*
X80620000Y-48980000D01*
X82490000Y-47110000D02*
X98715000Y-47110000D01*
X80620000Y-48980000D02*
X82490000Y-47110000D01*
X98715000Y-47110000D02*
X100785000Y-45040000D01*
D27*
%TO.N,/GPIO_CAN_P*%
X60730000Y-62239622D02*
X60729622Y-62240000D01*
X60729622Y-62240000D02*
X53670000Y-62240000D01*
D29*
%TO.N,/RP_SWD*%
X45540000Y-79950000D02*
X44260000Y-79950000D01*
X45550000Y-79960000D02*
X45540000Y-79950000D01*
D28*
%TO.N,+1V1*%
X43140000Y-65660000D02*
X43140000Y-76539036D01*
X43140000Y-76539036D02*
X42259500Y-77419536D01*
D27*
%TO.N,/GPIO_CAN_N*%
X54960000Y-61090000D02*
X54940000Y-61110000D01*
X62840000Y-61090000D02*
X54960000Y-61090000D01*
%TO.N,/GPIO21*%
X52310000Y-63690000D02*
X52290000Y-63710000D01*
X58142972Y-63692972D02*
X58140000Y-63690000D01*
X58140000Y-63690000D02*
X52310000Y-63690000D01*
%TO.N,/FSPICS2*%
X58000000Y-106050000D02*
X58000000Y-109592600D01*
X58000000Y-109592600D02*
X57042600Y-110550000D01*
X52250000Y-100300000D02*
X58000000Y-106050000D01*
X49300000Y-100300000D02*
X52250000Y-100300000D01*
X49300000Y-100300000D02*
X47580000Y-100300000D01*
D30*
%TO.N,/CONN_RP_USB_D_P*%
X50683527Y-64403527D02*
X52570000Y-66290000D01*
D27*
X96600000Y-89538346D02*
X96600000Y-90315827D01*
D30*
X50736196Y-63502335D02*
X50736195Y-63502334D01*
D27*
X101460000Y-91270000D02*
X100280000Y-90090000D01*
X97200000Y-89790000D02*
X97200000Y-89538346D01*
D30*
X48800000Y-62520000D02*
X49835000Y-63555000D01*
X52570000Y-66290000D02*
X52570000Y-78310000D01*
D27*
X100280000Y-90090000D02*
X97500000Y-90090000D01*
X104430000Y-91270000D02*
X101460000Y-91270000D01*
X96374173Y-90541654D02*
X96225827Y-90541654D01*
D30*
X50683527Y-63979263D02*
X50736195Y-63926598D01*
X46400000Y-62520000D02*
X48800000Y-62520000D01*
X50259264Y-63555000D02*
X50311931Y-63502334D01*
D27*
X52560000Y-90090000D02*
X95774173Y-90090000D01*
D30*
X50736194Y-63926599D02*
G75*
G03*
X50736195Y-63502334I-212134J212133D01*
G01*
D27*
X97200000Y-89790000D02*
G75*
G03*
X97500000Y-90090000I300000J0D01*
G01*
X96600000Y-89538346D02*
G75*
G02*
X96900000Y-89238346I300000J0D01*
G01*
X95774173Y-90090000D02*
G75*
G02*
X96000000Y-90315827I1J-225826D01*
G01*
X96374173Y-90541654D02*
G75*
G03*
X96600000Y-90315827I1J225826D01*
G01*
D30*
X50683528Y-64403528D02*
G75*
G02*
X50683527Y-63979263I212134J212133D01*
G01*
D27*
X96900000Y-89238346D02*
G75*
G02*
X97200000Y-89538346I0J-300000D01*
G01*
X96000000Y-90315827D02*
G75*
G03*
X96225827Y-90541654I225826J-1D01*
G01*
D30*
X50259265Y-63554999D02*
G75*
G02*
X49835000Y-63555000I-212133J212127D01*
G01*
X50736196Y-63502335D02*
G75*
G03*
X50311931Y-63502334I-212133J-212127D01*
G01*
D27*
%TO.N,/CONN_RP_USB_D_N*%
X31040000Y-59950000D02*
X31040000Y-86630000D01*
X99920000Y-91220000D02*
X102510000Y-93810000D01*
D30*
X46370000Y-63570000D02*
X48810000Y-63570000D01*
X48810000Y-63570000D02*
X51280000Y-66040000D01*
D27*
X37405000Y-45040000D02*
X37405000Y-47795000D01*
X35790000Y-49410000D02*
X35790000Y-55200000D01*
X51310000Y-91220000D02*
X99920000Y-91220000D01*
X31040000Y-86630000D02*
X35630000Y-91220000D01*
D30*
X51280000Y-66040000D02*
X51280000Y-78300000D01*
D27*
X37405000Y-47795000D02*
X35790000Y-49410000D01*
X35630000Y-91220000D02*
X51310000Y-91220000D01*
X102510000Y-93810000D02*
X104430000Y-93810000D01*
X35790000Y-55200000D02*
X31040000Y-59950000D01*
D28*
%TO.N,/LED_GREEN*%
X70050000Y-83050000D02*
X48547600Y-83050000D01*
D27*
%TO.N,/CONN_B11*%
X33610000Y-70860000D02*
X33614331Y-70855669D01*
X44150000Y-48960000D02*
X45785000Y-47325000D01*
X40550000Y-56340000D02*
X44150000Y-52740000D01*
X33614331Y-70855669D02*
X33614331Y-62095669D01*
X33614331Y-62095669D02*
X39370000Y-56340000D01*
X45785000Y-47325000D02*
X45785000Y-45040000D01*
X44150000Y-52740000D02*
X44150000Y-48960000D01*
X39370000Y-56340000D02*
X40550000Y-56340000D01*
%TO.N,/CONN_B2*%
X34190000Y-62880000D02*
X39830000Y-57240000D01*
X34190000Y-70172769D02*
X34190000Y-62880000D01*
X34191731Y-70174500D02*
X34190000Y-70172769D01*
X41250000Y-57240000D02*
X45785000Y-52705000D01*
X45785000Y-52705000D02*
X45785000Y-51390000D01*
X39830000Y-57240000D02*
X41250000Y-57240000D01*
%TO.N,/CONN_B10*%
X43260000Y-48960000D02*
X43260000Y-52420000D01*
X39160000Y-55450000D02*
X33000000Y-61610000D01*
X43260000Y-52420000D02*
X40230000Y-55450000D01*
X40230000Y-55450000D02*
X39160000Y-55450000D01*
X33000000Y-61610000D02*
X33000000Y-71500000D01*
X41595000Y-45040000D02*
X41595000Y-47295000D01*
X41595000Y-47295000D02*
X43260000Y-48960000D01*
%TO.N,/CONN_B3*%
X32380000Y-61040000D02*
X41595000Y-51825000D01*
X32380000Y-72050000D02*
X32380000Y-61040000D01*
%TD*%
%TA.AperFunction,Conductor*%
%TO.N,/VIN*%
G36*
X104042121Y-54220002D02*
G01*
X104088614Y-54273658D01*
X104100000Y-54326000D01*
X104100000Y-57174000D01*
X104079998Y-57242121D01*
X104026342Y-57288614D01*
X103974000Y-57300000D01*
X93226000Y-57300000D01*
X93157879Y-57279998D01*
X93111386Y-57226342D01*
X93100000Y-57174000D01*
X93100000Y-54326000D01*
X93120002Y-54257879D01*
X93173658Y-54211386D01*
X93226000Y-54200000D01*
X103974000Y-54200000D01*
X104042121Y-54220002D01*
G37*
%TD.AperFunction*%
%TD*%
M02*
