%TF.GenerationSoftware,KiCad,Pcbnew,(6.0.2)*%
%TF.CreationDate,2022-05-10T14:48:36-06:00*%
%TF.ProjectId,CONEPROJ,434f4e45-5052-44f4-9a2e-6b696361645f,rev?*%
%TF.SameCoordinates,Original*%
%TF.FileFunction,Soldermask,Bot*%
%TF.FilePolarity,Negative*%
%FSLAX46Y46*%
G04 Gerber Fmt 4.6, Leading zero omitted, Abs format (unit mm)*
G04 Created by KiCad (PCBNEW (6.0.2)) date 2022-05-10 14:48:36*
%MOMM*%
%LPD*%
G01*
G04 APERTURE LIST*
%ADD10C,0.990600*%
%ADD11O,1.000000X1.000000*%
%ADD12R,1.000000X1.000000*%
%ADD13R,2.056000X2.056000*%
%ADD14C,2.056000*%
%ADD15C,5.600000*%
%ADD16R,1.700000X1.700000*%
%ADD17O,1.700000X1.700000*%
%ADD18C,1.000000*%
G04 APERTURE END LIST*
D10*
%TO.C,TC4*%
X34140000Y-123786000D03*
X34140000Y-121754000D03*
X29060000Y-122770000D03*
%TD*%
D11*
%TO.C,J8*%
X26830000Y-123760000D03*
X26830000Y-122490000D03*
X26830000Y-121220000D03*
X26830000Y-119950000D03*
X26830000Y-118680000D03*
D12*
X26830000Y-117410000D03*
%TD*%
%TO.C,J6*%
X26850000Y-126890000D03*
D11*
X26850000Y-128160000D03*
X26850000Y-129430000D03*
X26850000Y-130700000D03*
X26850000Y-131970000D03*
X26850000Y-133240000D03*
%TD*%
D10*
%TO.C,TC3*%
X42570000Y-78700000D03*
X43586000Y-83780000D03*
X41554000Y-83780000D03*
%TD*%
D13*
%TO.C,J4*%
X84025000Y-45040000D03*
D14*
X88215000Y-45040000D03*
X92405000Y-45040000D03*
X96595000Y-45040000D03*
X100785000Y-45040000D03*
X104975000Y-45040000D03*
X104975000Y-51390000D03*
X100785000Y-51390000D03*
X96595000Y-51390000D03*
X92405000Y-51390000D03*
X88215000Y-51390000D03*
X84025000Y-51390000D03*
D13*
X49975000Y-51390000D03*
D14*
X45785000Y-51390000D03*
X41595000Y-51390000D03*
X37405000Y-51390000D03*
X33215000Y-51390000D03*
X29025000Y-51390000D03*
X29025000Y-45040000D03*
X33215000Y-45040000D03*
X37405000Y-45040000D03*
X41595000Y-45040000D03*
X45785000Y-45040000D03*
X49975000Y-45040000D03*
%TD*%
D15*
%TO.C,H1*%
X67000000Y-74000000D03*
%TD*%
D10*
%TO.C,TC2*%
X29060000Y-130986000D03*
X34140000Y-129970000D03*
X29060000Y-128954000D03*
%TD*%
D16*
%TO.C,J5*%
X104430000Y-86190000D03*
D17*
X104430000Y-88730000D03*
X104430000Y-91270000D03*
X104430000Y-93810000D03*
X104430000Y-96350000D03*
X104430000Y-98890000D03*
X104430000Y-101430000D03*
X104430000Y-103970000D03*
X104430000Y-106510000D03*
X104430000Y-109050000D03*
%TD*%
D18*
%TO.C,TP10*%
X63360000Y-118270000D03*
%TD*%
%TO.C,TP6*%
X79010000Y-94940000D03*
%TD*%
%TO.C,TP5*%
X79010000Y-98320000D03*
%TD*%
%TO.C,TP12*%
X43520000Y-100300000D03*
%TD*%
%TO.C,TP11*%
X47570000Y-100300000D03*
%TD*%
%TO.C,TP8*%
X79010000Y-96630000D03*
%TD*%
%TO.C,TP9*%
X79010000Y-100010000D03*
%TD*%
M02*
