%TF.GenerationSoftware,KiCad,Pcbnew,(6.0.2)*%
%TF.CreationDate,2022-04-26T10:25:04-06:00*%
%TF.ProjectId,CONEPROJ,434f4e45-5052-44f4-9a2e-6b696361645f,rev?*%
%TF.SameCoordinates,Original*%
%TF.FileFunction,Copper,L1,Top*%
%TF.FilePolarity,Positive*%
%FSLAX46Y46*%
G04 Gerber Fmt 4.6, Leading zero omitted, Abs format (unit mm)*
G04 Created by KiCad (PCBNEW (6.0.2)) date 2022-04-26 10:25:04*
%MOMM*%
%LPD*%
G01*
G04 APERTURE LIST*
G04 Aperture macros list*
%AMRoundRect*
0 Rectangle with rounded corners*
0 $1 Rounding radius*
0 $2 $3 $4 $5 $6 $7 $8 $9 X,Y pos of 4 corners*
0 Add a 4 corners polygon primitive as box body*
4,1,4,$2,$3,$4,$5,$6,$7,$8,$9,$2,$3,0*
0 Add four circle primitives for the rounded corners*
1,1,$1+$1,$2,$3*
1,1,$1+$1,$4,$5*
1,1,$1+$1,$6,$7*
1,1,$1+$1,$8,$9*
0 Add four rect primitives between the rounded corners*
20,1,$1+$1,$2,$3,$4,$5,0*
20,1,$1+$1,$4,$5,$6,$7,0*
20,1,$1+$1,$6,$7,$8,$9,0*
20,1,$1+$1,$8,$9,$2,$3,0*%
%AMFreePoly0*
4,1,22,0.550000,-0.750000,0.000000,-0.750000,0.000000,-0.745033,-0.079941,-0.743568,-0.215256,-0.701293,-0.333266,-0.622738,-0.424486,-0.514219,-0.481581,-0.384460,-0.499164,-0.250000,-0.500000,-0.250000,-0.500000,0.250000,-0.499164,0.250000,-0.499963,0.256109,-0.478152,0.396186,-0.417904,0.524511,-0.324060,0.630769,-0.204165,0.706417,-0.067858,0.745374,0.000000,0.744959,0.000000,0.750000,
0.550000,0.750000,0.550000,-0.750000,0.550000,-0.750000,$1*%
%AMFreePoly1*
4,1,20,0.000000,0.744959,0.073905,0.744508,0.209726,0.703889,0.328688,0.626782,0.421226,0.519385,0.479903,0.390333,0.500000,0.250000,0.500000,-0.250000,0.499851,-0.262216,0.476331,-0.402017,0.414519,-0.529596,0.319384,-0.634700,0.198574,-0.708877,0.061801,-0.746166,0.000000,-0.745033,0.000000,-0.750000,-0.550000,-0.750000,-0.550000,0.750000,0.000000,0.750000,0.000000,0.744959,
0.000000,0.744959,$1*%
G04 Aperture macros list end*
%TA.AperFunction,SMDPad,CuDef*%
%ADD10R,1.150000X1.000000*%
%TD*%
%TA.AperFunction,SMDPad,CuDef*%
%ADD11RoundRect,0.237500X-0.250000X-0.237500X0.250000X-0.237500X0.250000X0.237500X-0.250000X0.237500X0*%
%TD*%
%TA.AperFunction,SMDPad,CuDef*%
%ADD12RoundRect,0.150000X-0.150000X0.875000X-0.150000X-0.875000X0.150000X-0.875000X0.150000X0.875000X0*%
%TD*%
%TA.AperFunction,SMDPad,CuDef*%
%ADD13RoundRect,0.100000X-0.100000X0.637500X-0.100000X-0.637500X0.100000X-0.637500X0.100000X0.637500X0*%
%TD*%
%TA.AperFunction,SMDPad,CuDef*%
%ADD14C,1.000000*%
%TD*%
%TA.AperFunction,SMDPad,CuDef*%
%ADD15RoundRect,0.250000X-0.337500X-0.475000X0.337500X-0.475000X0.337500X0.475000X-0.337500X0.475000X0*%
%TD*%
%TA.AperFunction,SMDPad,CuDef*%
%ADD16R,5.700000X1.600000*%
%TD*%
%TA.AperFunction,SMDPad,CuDef*%
%ADD17RoundRect,0.250000X-0.325000X-0.650000X0.325000X-0.650000X0.325000X0.650000X-0.325000X0.650000X0*%
%TD*%
%TA.AperFunction,SMDPad,CuDef*%
%ADD18RoundRect,0.150000X-0.825000X-0.150000X0.825000X-0.150000X0.825000X0.150000X-0.825000X0.150000X0*%
%TD*%
%TA.AperFunction,ComponentPad*%
%ADD19C,0.500000*%
%TD*%
%TA.AperFunction,SMDPad,CuDef*%
%ADD20R,2.290000X3.000000*%
%TD*%
%TA.AperFunction,SMDPad,CuDef*%
%ADD21RoundRect,0.237500X-0.237500X0.300000X-0.237500X-0.300000X0.237500X-0.300000X0.237500X0.300000X0*%
%TD*%
%TA.AperFunction,SMDPad,CuDef*%
%ADD22RoundRect,0.237500X0.237500X-0.300000X0.237500X0.300000X-0.237500X0.300000X-0.237500X-0.300000X0*%
%TD*%
%TA.AperFunction,SMDPad,CuDef*%
%ADD23R,2.000000X2.000000*%
%TD*%
%TA.AperFunction,SMDPad,CuDef*%
%ADD24RoundRect,0.150000X-0.150000X0.650000X-0.150000X-0.650000X0.150000X-0.650000X0.150000X0.650000X0*%
%TD*%
%TA.AperFunction,SMDPad,CuDef*%
%ADD25RoundRect,0.250000X-0.475000X0.337500X-0.475000X-0.337500X0.475000X-0.337500X0.475000X0.337500X0*%
%TD*%
%TA.AperFunction,SMDPad,CuDef*%
%ADD26FreePoly0,270.000000*%
%TD*%
%TA.AperFunction,SMDPad,CuDef*%
%ADD27R,1.500000X1.000000*%
%TD*%
%TA.AperFunction,SMDPad,CuDef*%
%ADD28FreePoly1,270.000000*%
%TD*%
%TA.AperFunction,ComponentPad*%
%ADD29C,5.600000*%
%TD*%
%TA.AperFunction,SMDPad,CuDef*%
%ADD30RoundRect,0.237500X0.250000X0.237500X-0.250000X0.237500X-0.250000X-0.237500X0.250000X-0.237500X0*%
%TD*%
%TA.AperFunction,SMDPad,CuDef*%
%ADD31RoundRect,0.250000X0.337500X0.475000X-0.337500X0.475000X-0.337500X-0.475000X0.337500X-0.475000X0*%
%TD*%
%TA.AperFunction,SMDPad,CuDef*%
%ADD32RoundRect,0.237500X-0.237500X0.250000X-0.237500X-0.250000X0.237500X-0.250000X0.237500X0.250000X0*%
%TD*%
%TA.AperFunction,SMDPad,CuDef*%
%ADD33R,0.750000X3.000000*%
%TD*%
%TA.AperFunction,SMDPad,CuDef*%
%ADD34RoundRect,0.418770X-0.418770X1.006311X-0.418770X-1.006311X0.418770X-1.006311X0.418770X1.006311X0*%
%TD*%
%TA.AperFunction,SMDPad,CuDef*%
%ADD35RoundRect,0.412540X-0.412540X0.887541X-0.412540X-0.887541X0.412540X-0.887541X0.412540X0.887541X0*%
%TD*%
%TA.AperFunction,SMDPad,CuDef*%
%ADD36RoundRect,0.443770X-0.443770X0.893770X-0.443770X-0.893770X0.443770X-0.893770X0.443770X0.893770X0*%
%TD*%
%TA.AperFunction,SMDPad,CuDef*%
%ADD37RoundRect,0.396885X-0.396885X1.015655X-0.396885X-1.015655X0.396885X-1.015655X0.396885X1.015655X0*%
%TD*%
%TA.AperFunction,SMDPad,CuDef*%
%ADD38RoundRect,0.237500X0.237500X-0.250000X0.237500X0.250000X-0.237500X0.250000X-0.237500X-0.250000X0*%
%TD*%
%TA.AperFunction,SMDPad,CuDef*%
%ADD39RoundRect,0.150000X0.150000X-0.825000X0.150000X0.825000X-0.150000X0.825000X-0.150000X-0.825000X0*%
%TD*%
%TA.AperFunction,ConnectorPad*%
%ADD40C,0.787400*%
%TD*%
%TA.AperFunction,SMDPad,CuDef*%
%ADD41RoundRect,0.237500X-0.300000X-0.237500X0.300000X-0.237500X0.300000X0.237500X-0.300000X0.237500X0*%
%TD*%
%TA.AperFunction,ComponentPad*%
%ADD42R,2.056000X2.056000*%
%TD*%
%TA.AperFunction,ComponentPad*%
%ADD43C,2.056000*%
%TD*%
%TA.AperFunction,SMDPad,CuDef*%
%ADD44RoundRect,0.237500X0.287500X0.237500X-0.287500X0.237500X-0.287500X-0.237500X0.287500X-0.237500X0*%
%TD*%
%TA.AperFunction,SMDPad,CuDef*%
%ADD45R,1.000000X1.500000*%
%TD*%
%TA.AperFunction,SMDPad,CuDef*%
%ADD46RoundRect,0.050000X-0.050000X0.387500X-0.050000X-0.387500X0.050000X-0.387500X0.050000X0.387500X0*%
%TD*%
%TA.AperFunction,SMDPad,CuDef*%
%ADD47RoundRect,0.050000X-0.387500X0.050000X-0.387500X-0.050000X0.387500X-0.050000X0.387500X0.050000X0*%
%TD*%
%TA.AperFunction,SMDPad,CuDef*%
%ADD48RoundRect,0.144000X-1.456000X1.456000X-1.456000X-1.456000X1.456000X-1.456000X1.456000X1.456000X0*%
%TD*%
%TA.AperFunction,ComponentPad*%
%ADD49C,0.600000*%
%TD*%
%TA.AperFunction,SMDPad,CuDef*%
%ADD50RoundRect,0.250000X-1.250000X-0.550000X1.250000X-0.550000X1.250000X0.550000X-1.250000X0.550000X0*%
%TD*%
%TA.AperFunction,SMDPad,CuDef*%
%ADD51R,0.900000X1.200000*%
%TD*%
%TA.AperFunction,SMDPad,CuDef*%
%ADD52R,1.800000X2.100000*%
%TD*%
%TA.AperFunction,ViaPad*%
%ADD53C,0.800000*%
%TD*%
%TA.AperFunction,ViaPad*%
%ADD54C,0.450000*%
%TD*%
%TA.AperFunction,Conductor*%
%ADD55C,1.000000*%
%TD*%
%TA.AperFunction,Conductor*%
%ADD56C,0.200000*%
%TD*%
%TA.AperFunction,Conductor*%
%ADD57C,0.250000*%
%TD*%
%TA.AperFunction,Conductor*%
%ADD58C,0.500000*%
%TD*%
%TA.AperFunction,Conductor*%
%ADD59C,0.190000*%
%TD*%
%TA.AperFunction,Conductor*%
%ADD60C,2.000000*%
%TD*%
G04 APERTURE END LIST*
%TO.C,JP2*%
G36*
X79600000Y-48475000D02*
G01*
X79000000Y-48475000D01*
X79000000Y-47975000D01*
X79600000Y-47975000D01*
X79600000Y-48475000D01*
G37*
%TD*%
D10*
%TO.P,Y2,1,1*%
%TO.N,/MCP_OSC1*%
X56000000Y-52750000D03*
%TO.P,Y2,2,2*%
%TO.N,GND*%
X57750000Y-52750000D03*
%TO.P,Y2,3,3*%
%TO.N,/MCP_OSC2*%
X57750000Y-51350000D03*
%TO.P,Y2,4,4*%
%TO.N,GND*%
X56000000Y-51350000D03*
%TD*%
D11*
%TO.P,R10,1*%
%TO.N,Net-(R10-Pad1)*%
X28827500Y-71400000D03*
%TO.P,R10,2*%
%TO.N,GND*%
X30652500Y-71400000D03*
%TD*%
D12*
%TO.P,U8,1,TXCAN*%
%TO.N,/CAN_TX*%
X72080000Y-52100000D03*
%TO.P,U8,2,RXCAN*%
%TO.N,/CAN_RX*%
X70810000Y-52100000D03*
%TO.P,U8,3,CLKOUT/SOF*%
%TO.N,unconnected-(U8-Pad3)*%
X69540000Y-52100000D03*
%TO.P,U8,4,~{TX0RTS}*%
%TO.N,unconnected-(U8-Pad4)*%
X68270000Y-52100000D03*
%TO.P,U8,5,~{TX1RTS}*%
%TO.N,unconnected-(U8-Pad5)*%
X67000000Y-52100000D03*
%TO.P,U8,6,~{TX2RTS}*%
%TO.N,unconnected-(U8-Pad6)*%
X65730000Y-52100000D03*
%TO.P,U8,7,OSC2*%
%TO.N,/MCP_OSC2*%
X64460000Y-52100000D03*
%TO.P,U8,8,OSC1*%
%TO.N,/MCP_OSC1*%
X63190000Y-52100000D03*
%TO.P,U8,9,VSS*%
%TO.N,GND*%
X61920000Y-52100000D03*
%TO.P,U8,10,~{RX1BF}*%
%TO.N,unconnected-(U8-Pad10)*%
X61920000Y-61400000D03*
%TO.P,U8,11,~{RX0BF}*%
%TO.N,unconnected-(U8-Pad11)*%
X63190000Y-61400000D03*
%TO.P,U8,12,~{INT}*%
%TO.N,/EXT_IO3*%
X64460000Y-61400000D03*
%TO.P,U8,13,SCK*%
%TO.N,/EXT_SPI_SCK*%
X65730000Y-61400000D03*
%TO.P,U8,14,SI*%
%TO.N,/EXT_SPI_MOSI*%
X67000000Y-61400000D03*
%TO.P,U8,15,SO*%
%TO.N,/EXT_SPI_MISO*%
X68270000Y-61400000D03*
%TO.P,U8,16,~{CS}*%
%TO.N,/EXT_SPI_SS1*%
X69540000Y-61400000D03*
%TO.P,U8,17,~{RESET}*%
%TO.N,/MCP_RESET*%
X70810000Y-61400000D03*
%TO.P,U8,18,VDD*%
%TO.N,+3V3*%
X72080000Y-61400000D03*
%TD*%
D13*
%TO.P,U5,1,TXCAN*%
%TO.N,/CAN_TX*%
X60175000Y-55887500D03*
%TO.P,U5,2,RXCAN*%
%TO.N,/CAN_RX*%
X59525000Y-55887500D03*
%TO.P,U5,3,CLKOUT/SOF*%
%TO.N,unconnected-(U5-Pad3)*%
X58875000Y-55887500D03*
%TO.P,U5,4,~{TX0RTS}*%
%TO.N,unconnected-(U5-Pad4)*%
X58225000Y-55887500D03*
%TO.P,U5,5,~{TX1RTS}*%
%TO.N,unconnected-(U5-Pad5)*%
X57575000Y-55887500D03*
%TO.P,U5,6,NC*%
%TO.N,unconnected-(U5-Pad6)*%
X56925000Y-55887500D03*
%TO.P,U5,7,~{TX2RTS}*%
%TO.N,unconnected-(U5-Pad7)*%
X56275000Y-55887500D03*
%TO.P,U5,8,OSC2*%
%TO.N,/MCP_OSC2*%
X55625000Y-55887500D03*
%TO.P,U5,9,OSC1*%
%TO.N,/MCP_OSC1*%
X54975000Y-55887500D03*
%TO.P,U5,10,VSS*%
%TO.N,GND*%
X54325000Y-55887500D03*
%TO.P,U5,11,~{RX1BF}*%
%TO.N,unconnected-(U5-Pad11)*%
X54325000Y-61612500D03*
%TO.P,U5,12,~{RX0BF}*%
%TO.N,unconnected-(U5-Pad12)*%
X54975000Y-61612500D03*
%TO.P,U5,13,~{INT}*%
%TO.N,/EXT_IO3*%
X55625000Y-61612500D03*
%TO.P,U5,14,SCK*%
%TO.N,/EXT_SPI_SCK*%
X56275000Y-61612500D03*
%TO.P,U5,15,NC*%
%TO.N,unconnected-(U5-Pad15)*%
X56925000Y-61612500D03*
%TO.P,U5,16,SI*%
%TO.N,/EXT_SPI_MOSI*%
X57575000Y-61612500D03*
%TO.P,U5,17,SO*%
%TO.N,/EXT_SPI_MISO*%
X58225000Y-61612500D03*
%TO.P,U5,18,~{CS}*%
%TO.N,/EXT_SPI_SS1*%
X58875000Y-61612500D03*
%TO.P,U5,19,~{RESET}*%
%TO.N,/MCP_RESET*%
X59525000Y-61612500D03*
%TO.P,U5,20,VDD*%
%TO.N,+3V3*%
X60175000Y-61612500D03*
%TD*%
D14*
%TO.P,TP4,1,1*%
%TO.N,+3V3*%
X41000000Y-73900000D03*
%TD*%
D15*
%TO.P,C36,1*%
%TO.N,Net-(C36-Pad1)*%
X39072500Y-67140000D03*
%TO.P,C36,2*%
%TO.N,GND*%
X41147500Y-67140000D03*
%TD*%
D16*
%TO.P,L2,1*%
%TO.N,Net-(C34-Pad2)*%
X34200000Y-63745000D03*
%TO.P,L2,2*%
%TO.N,+5V*%
X34200000Y-59045000D03*
%TD*%
D17*
%TO.P,C33,1*%
%TO.N,Net-(C33-Pad1)*%
X38780000Y-84802500D03*
%TO.P,C33,2*%
%TO.N,GND*%
X41730000Y-84802500D03*
%TD*%
D18*
%TO.P,U6,1,BST*%
%TO.N,Net-(C35-Pad1)*%
X28695000Y-81265000D03*
%TO.P,U6,2,VIN*%
%TO.N,/EXT_12V*%
X28695000Y-82535000D03*
%TO.P,U6,3,EN*%
X28695000Y-83805000D03*
%TO.P,U6,4,RT*%
%TO.N,Net-(R13-Pad1)*%
X28695000Y-85075000D03*
%TO.P,U6,5,FB*%
%TO.N,Net-(C39-Pad2)*%
X33645000Y-85075000D03*
%TO.P,U6,6,COMP*%
%TO.N,Net-(C37-Pad1)*%
X33645000Y-83805000D03*
%TO.P,U6,7,GND*%
%TO.N,GND*%
X33645000Y-82535000D03*
%TO.P,U6,8,SW*%
%TO.N,Net-(C35-Pad2)*%
X33645000Y-81265000D03*
D19*
%TO.P,U6,9,GND*%
%TO.N,GND*%
X31820000Y-83170000D03*
X30520000Y-82170000D03*
X31820000Y-82170000D03*
X30520000Y-83170000D03*
X31820000Y-84170000D03*
X30520000Y-84170000D03*
D20*
X31170000Y-83170000D03*
%TD*%
D21*
%TO.P,C15,1*%
%TO.N,+3V3*%
X83125000Y-69587500D03*
%TO.P,C15,2*%
%TO.N,GND*%
X83125000Y-71312500D03*
%TD*%
D15*
%TO.P,C42,1*%
%TO.N,+5V*%
X38572500Y-62680000D03*
%TO.P,C42,2*%
%TO.N,GND*%
X40647500Y-62680000D03*
%TD*%
D22*
%TO.P,R7,1*%
%TO.N,/PICO_USB_N*%
X96800000Y-78162500D03*
%TO.P,R7,2*%
%TO.N,/PICO_USB__N*%
X96800000Y-76437500D03*
%TD*%
%TO.P,C21,1*%
%TO.N,GND*%
X59150000Y-52937500D03*
%TO.P,C21,2*%
%TO.N,/MCP_OSC2*%
X59150000Y-51212500D03*
%TD*%
D23*
%TO.P,PAU301,1,A*%
%TO.N,GND*%
X43500000Y-78595000D03*
%TO.P,PAU301,2,B*%
%TO.N,/PAUSE_BTN*%
X51500000Y-78595000D03*
%TD*%
D24*
%TO.P,U7,1,~{CS}*%
%TO.N,/QSPI_SS*%
X103893687Y-60987273D03*
%TO.P,U7,2,DO(IO1)*%
%TO.N,/QSPI_SD1*%
X102623687Y-60987273D03*
%TO.P,U7,3,IO2*%
%TO.N,/QSPI_SD2*%
X101353687Y-60987273D03*
%TO.P,U7,4,GND*%
%TO.N,GND*%
X100083687Y-60987273D03*
%TO.P,U7,5,DI(IO0)*%
%TO.N,/QSPI_SD0*%
X100083687Y-68187273D03*
%TO.P,U7,6,CLK*%
%TO.N,/QSPI_SCLK*%
X101353687Y-68187273D03*
%TO.P,U7,7,IO3*%
%TO.N,/QSPI_SD3*%
X102623687Y-68187273D03*
%TO.P,U7,8,VCC*%
%TO.N,+3V3*%
X103893687Y-68187273D03*
%TD*%
D25*
%TO.P,C11,1*%
%TO.N,+3V3*%
X46150000Y-63712500D03*
%TO.P,C11,2*%
%TO.N,GND*%
X46150000Y-65787500D03*
%TD*%
D15*
%TO.P,C16,1*%
%TO.N,+3V3*%
X60862500Y-63750000D03*
%TO.P,C16,2*%
%TO.N,GND*%
X62937500Y-63750000D03*
%TD*%
%TO.P,C38,1*%
%TO.N,+5V*%
X39072500Y-71140000D03*
%TO.P,C38,2*%
%TO.N,Net-(C38-Pad2)*%
X41147500Y-71140000D03*
%TD*%
D26*
%TO.P,JP2,1,A*%
%TO.N,/WS2815B_VDD*%
X79300000Y-47575000D03*
D27*
%TO.P,JP2,2,C*%
%TO.N,/EXT_12V*%
X79300000Y-48875000D03*
D28*
%TO.P,JP2,3,B*%
%TO.N,/WS2815B_VCC*%
X79300000Y-50175000D03*
%TD*%
D21*
%TO.P,C24,1*%
%TO.N,+3V3*%
X86300000Y-69587500D03*
%TO.P,C24,2*%
%TO.N,GND*%
X86300000Y-71312500D03*
%TD*%
D29*
%TO.P,H304,1,1*%
%TO.N,GND*%
X67000000Y-47000000D03*
%TD*%
D30*
%TO.P,R19,1*%
%TO.N,Net-(C38-Pad2)*%
X33822500Y-71370000D03*
%TO.P,R19,2*%
%TO.N,GND*%
X31997500Y-71370000D03*
%TD*%
D31*
%TO.P,C27,1*%
%TO.N,Net-(C27-Pad1)*%
X95332500Y-86845000D03*
%TO.P,C27,2*%
%TO.N,GND*%
X93257500Y-86845000D03*
%TD*%
D32*
%TO.P,R5,1*%
%TO.N,Net-(R5-Pad1)*%
X81550000Y-67712500D03*
%TO.P,R5,2*%
%TO.N,Net-(C8-Pad2)*%
X81550000Y-69537500D03*
%TD*%
D33*
%TO.P,J2,1,Pin_1*%
%TO.N,+5V*%
X76499838Y-86127500D03*
%TO.P,J2,2,Pin_2*%
%TO.N,+3V3*%
X76499838Y-82527500D03*
%TO.P,J2,3,Pin_3*%
%TO.N,+5V*%
X75229838Y-86127500D03*
%TO.P,J2,4,Pin_4*%
%TO.N,/LED_GRN*%
X75229838Y-82527500D03*
%TO.P,J2,5,Pin_5*%
%TO.N,/EXT_UART_RX*%
X73959838Y-86127500D03*
%TO.P,J2,6,Pin_6*%
%TO.N,/WIFI_LED*%
X73959838Y-82527500D03*
%TO.P,J2,7,Pin_7*%
%TO.N,/EXT_UART_TX*%
X72689838Y-86127500D03*
%TO.P,J2,8,Pin_8*%
%TO.N,/LED_RED*%
X72689838Y-82527500D03*
%TO.P,J2,9,Pin_9*%
%TO.N,/CAN_RX*%
X71419838Y-86127500D03*
%TO.P,J2,10,Pin_10*%
%TO.N,/EXT_I2C_SDA*%
X71419838Y-82527500D03*
%TO.P,J2,11,Pin_11*%
%TO.N,/CAN_TX*%
X70149838Y-86127500D03*
%TO.P,J2,12,Pin_12*%
%TO.N,/EXT_I2C_SCL*%
X70149838Y-82527500D03*
%TO.P,J2,13,Pin_13*%
%TO.N,+3V3*%
X68879838Y-86127500D03*
%TO.P,J2,14,Pin_14*%
%TO.N,GND*%
X68879838Y-82527500D03*
%TO.P,J2,15,Pin_15*%
%TO.N,+3V3*%
X67609838Y-86127500D03*
%TO.P,J2,16,Pin_16*%
%TO.N,GND*%
X67609838Y-82527500D03*
%TO.P,J2,17,Pin_17*%
%TO.N,+3V3*%
X66339838Y-86127500D03*
%TO.P,J2,18,Pin_18*%
%TO.N,GND*%
X66339838Y-82527500D03*
%TO.P,J2,19,Pin_19*%
%TO.N,/MODE_BTN*%
X65069838Y-86127500D03*
%TO.P,J2,20,Pin_20*%
%TO.N,/EXT_IO3*%
X65069838Y-82527500D03*
%TO.P,J2,21,Pin_21*%
%TO.N,/PAUSE_BTN*%
X63799838Y-86127500D03*
%TO.P,J2,22,Pin_22*%
%TO.N,/EXT_SPI_SS1*%
X63799838Y-82527500D03*
%TO.P,J2,23,Pin_23*%
%TO.N,/EXT_12V*%
X62529838Y-86127500D03*
%TO.P,J2,24,Pin_24*%
%TO.N,/EXT_SPI_MISO*%
X62529838Y-82527500D03*
%TO.P,J2,25,Pin_25*%
%TO.N,/EXT_12V*%
X61259838Y-86127500D03*
%TO.P,J2,26,Pin_26*%
%TO.N,/EXT_SPI_MOSI*%
X61259838Y-82527500D03*
%TO.P,J2,27,Pin_27*%
%TO.N,/EXT_IO1*%
X59989838Y-86127500D03*
%TO.P,J2,28,Pin_28*%
%TO.N,/EXT_SPI_SCK*%
X59989838Y-82527500D03*
%TO.P,J2,29,Pin_29*%
%TO.N,/EXT_IO4*%
X58719838Y-86127500D03*
%TO.P,J2,30,Pin_30*%
%TO.N,/EXT_SPI_SS0*%
X58719838Y-82527500D03*
%TO.P,J2,31,Pin_31*%
%TO.N,/EXT_IO5*%
X57449838Y-86127500D03*
%TO.P,J2,32,Pin_32*%
%TO.N,/EXT_IO2*%
X57449838Y-82527500D03*
D34*
%TO.P,J2,MP1,Shield*%
%TO.N,unconnected-(J2-PadMP1)*%
X79062378Y-84252581D03*
D35*
X79074838Y-89277419D03*
D36*
%TO.P,J2,MP2,Shield*%
%TO.N,unconnected-(J2-PadMP2)*%
X54924838Y-89239959D03*
D37*
X55018608Y-84240040D03*
%TD*%
D21*
%TO.P,C18,1*%
%TO.N,+3V3*%
X95050000Y-65487500D03*
%TO.P,C18,2*%
%TO.N,GND*%
X95050000Y-67212500D03*
%TD*%
D31*
%TO.P,C25,1*%
%TO.N,GND*%
X29807500Y-61840000D03*
%TO.P,C25,2*%
%TO.N,/EXT_12V*%
X27732500Y-61840000D03*
%TD*%
D38*
%TO.P,R9,1*%
%TO.N,+3V3*%
X92580000Y-85342500D03*
%TO.P,R9,2*%
%TO.N,/DRV_RESET*%
X92580000Y-83517500D03*
%TD*%
D14*
%TO.P,TP5,1,1*%
%TO.N,+1V1*%
X82800000Y-59500000D03*
%TD*%
D39*
%TO.P,U2,1,D*%
%TO.N,/CAN_TX*%
X48280000Y-67275000D03*
%TO.P,U2,2,GND*%
%TO.N,GND*%
X49550000Y-67275000D03*
%TO.P,U2,3,VCC*%
%TO.N,+3V3*%
X50820000Y-67275000D03*
%TO.P,U2,4,R*%
%TO.N,/CAN_RX*%
X52090000Y-67275000D03*
%TO.P,U2,5,Vref*%
%TO.N,unconnected-(U2-Pad5)*%
X52090000Y-62325000D03*
%TO.P,U2,6,CANL*%
%TO.N,/CANL*%
X50820000Y-62325000D03*
%TO.P,U2,7,CANH*%
%TO.N,/CANH*%
X49550000Y-62325000D03*
%TO.P,U2,8,Rs*%
%TO.N,Net-(R15-Pad1)*%
X48280000Y-62325000D03*
%TD*%
D21*
%TO.P,C9,1*%
%TO.N,+1V1*%
X84750000Y-69587500D03*
%TO.P,C9,2*%
%TO.N,GND*%
X84750000Y-71312500D03*
%TD*%
D15*
%TO.P,C34,1*%
%TO.N,Net-(C34-Pad1)*%
X27732500Y-63810000D03*
%TO.P,C34,2*%
%TO.N,Net-(C34-Pad2)*%
X29807500Y-63810000D03*
%TD*%
D40*
%TO.P,J5,1,VCC*%
%TO.N,unconnected-(J5-Pad1)*%
X100955000Y-84000000D03*
%TO.P,J5,2,SWDIO*%
%TO.N,unconnected-(J5-Pad2)*%
X99685000Y-84000000D03*
%TO.P,J5,3,NRESET*%
%TO.N,/PICO_USB_N*%
X100955000Y-82730000D03*
%TO.P,J5,4,SWCLK*%
%TO.N,/PICO_USB_P*%
X99685000Y-82730000D03*
%TO.P,J5,5,GND*%
%TO.N,GND*%
X100955000Y-81460000D03*
%TO.P,J5,6,SWO*%
%TO.N,unconnected-(J5-Pad6)*%
X99685000Y-81460000D03*
%TD*%
D15*
%TO.P,C30,1*%
%TO.N,/EXT_12V*%
X95767500Y-74985000D03*
%TO.P,C30,2*%
%TO.N,GND*%
X97842500Y-74985000D03*
%TD*%
D41*
%TO.P,C7,1*%
%TO.N,Net-(C7-Pad1)*%
X78137500Y-62100000D03*
%TO.P,C7,2*%
%TO.N,GND*%
X79862500Y-62100000D03*
%TD*%
D17*
%TO.P,C32,1*%
%TO.N,Net-(C32-Pad1)*%
X39045000Y-69060000D03*
%TO.P,C32,2*%
%TO.N,GND*%
X41995000Y-69060000D03*
%TD*%
D31*
%TO.P,C5,1*%
%TO.N,GND*%
X30872499Y-73818041D03*
%TO.P,C5,2*%
%TO.N,/EXT_12V*%
X28797499Y-73818041D03*
%TD*%
D11*
%TO.P,R22,1*%
%TO.N,Net-(D301-Pad1)*%
X80597500Y-78940000D03*
%TO.P,R22,2*%
%TO.N,/LED_GRN*%
X82422500Y-78940000D03*
%TD*%
D41*
%TO.P,C8,1*%
%TO.N,GND*%
X78137500Y-69524999D03*
%TO.P,C8,2*%
%TO.N,Net-(C8-Pad2)*%
X79862500Y-69524999D03*
%TD*%
D42*
%TO.P,J4,A1,A1*%
%TO.N,/MOTOR1_OUT1*%
X84025000Y-45040000D03*
D43*
%TO.P,J4,A2,A2*%
%TO.N,/MOTOR1_OUT2*%
X88215000Y-45040000D03*
%TO.P,J4,A3,A3*%
%TO.N,/MOTOR2_OUT1*%
X92405000Y-45040000D03*
%TO.P,J4,A4,A4*%
%TO.N,/MOTOR2_OUT2*%
X96595000Y-45040000D03*
%TO.P,J4,A5,A5*%
%TO.N,/GPO_5_OUT*%
X100785000Y-45040000D03*
%TO.P,J4,A6,A6*%
%TO.N,/GPO_6_OUT*%
X104975000Y-45040000D03*
%TO.P,J4,A7,A7*%
%TO.N,/GPO_7_OUT*%
X104975000Y-51390000D03*
%TO.P,J4,A8,A8*%
%TO.N,/GPO_8_OUT*%
X100785000Y-51390000D03*
%TO.P,J4,A9,A9*%
%TO.N,/GPO_9_OUT*%
X96595000Y-51390000D03*
%TO.P,J4,A10,A10*%
%TO.N,/R_OUT*%
X92405000Y-51390000D03*
%TO.P,J4,A11,A11*%
%TO.N,/G_OUT*%
X88215000Y-51390000D03*
%TO.P,J4,A12,A12*%
%TO.N,/B_OUT*%
X84025000Y-51390000D03*
D42*
%TO.P,J4,B1,B1*%
%TO.N,/CANL*%
X49975000Y-51390000D03*
D43*
%TO.P,J4,B2,B2*%
%TO.N,/CANH*%
X45785000Y-51390000D03*
%TO.P,J4,B3,B3*%
%TO.N,/LEDA_OUT*%
X41595000Y-51390000D03*
%TO.P,J4,B4,B4*%
%TO.N,/EXT_IO4*%
X37405000Y-51390000D03*
%TO.P,J4,B5,B5*%
%TO.N,+5V*%
X33215000Y-51390000D03*
%TO.P,J4,B6,B6*%
%TO.N,/VBAT*%
X29025000Y-51390000D03*
%TO.P,J4,B7,B7*%
%TO.N,GND*%
X29025000Y-45040000D03*
%TO.P,J4,B8,B8*%
%TO.N,/EXT_IO5*%
X33215000Y-45040000D03*
%TO.P,J4,B9,B9*%
%TO.N,/EXT_I2C_SDA*%
X37405000Y-45040000D03*
%TO.P,J4,B10,B10*%
%TO.N,/EXT_I2C_SCL*%
X41595000Y-45040000D03*
%TO.P,J4,B11,B11*%
%TO.N,/EXT_UART_TX*%
X45785000Y-45040000D03*
%TO.P,J4,B12,B12*%
%TO.N,/EXT_UART_RX*%
X49975000Y-45040000D03*
%TD*%
D31*
%TO.P,C26,1*%
%TO.N,GND*%
X30872499Y-76539020D03*
%TO.P,C26,2*%
%TO.N,/EXT_12V*%
X28797499Y-76539020D03*
%TD*%
D15*
%TO.P,C35,1*%
%TO.N,Net-(C35-Pad1)*%
X28797499Y-79260000D03*
%TO.P,C35,2*%
%TO.N,Net-(C35-Pad2)*%
X30872499Y-79260000D03*
%TD*%
D21*
%TO.P,C14,1*%
%TO.N,+3V3*%
X91225000Y-69587500D03*
%TO.P,C14,2*%
%TO.N,GND*%
X91225000Y-71312500D03*
%TD*%
D30*
%TO.P,R18,1*%
%TO.N,+5V*%
X37352500Y-71380001D03*
%TO.P,R18,2*%
%TO.N,Net-(C38-Pad2)*%
X35527500Y-71380001D03*
%TD*%
D21*
%TO.P,C10,1*%
%TO.N,+1V1*%
X96600000Y-65487500D03*
%TO.P,C10,2*%
%TO.N,GND*%
X96600000Y-67212500D03*
%TD*%
D11*
%TO.P,R17,1*%
%TO.N,Net-(C37-Pad1)*%
X35687500Y-85130000D03*
%TO.P,R17,2*%
%TO.N,Net-(C33-Pad1)*%
X37512500Y-85130000D03*
%TD*%
D38*
%TO.P,R15,1*%
%TO.N,Net-(R15-Pad1)*%
X48235000Y-59712500D03*
%TO.P,R15,2*%
%TO.N,GND*%
X48235000Y-57887500D03*
%TD*%
D21*
%TO.P,C12,1*%
%TO.N,+1V1*%
X92750000Y-67312500D03*
%TO.P,C12,2*%
%TO.N,GND*%
X92750000Y-69037500D03*
%TD*%
D23*
%TO.P,MOD301,1,A*%
%TO.N,GND*%
X43500000Y-84075000D03*
%TO.P,MOD301,2,B*%
%TO.N,/MODE_BTN*%
X51500000Y-84075000D03*
%TD*%
D11*
%TO.P,R3,1*%
%TO.N,/USB_BOOT*%
X94687500Y-58150000D03*
%TO.P,R3,2*%
%TO.N,/QSPI_SS*%
X96512500Y-58150000D03*
%TD*%
D21*
%TO.P,R6,1*%
%TO.N,/PICO_USB__P*%
X103850000Y-76412500D03*
%TO.P,R6,2*%
%TO.N,/PICO_USB_P*%
X103850000Y-78137500D03*
%TD*%
D15*
%TO.P,C29,1*%
%TO.N,Net-(C29-Pad1)*%
X89717500Y-72885000D03*
%TO.P,C29,2*%
%TO.N,/EXT_12V*%
X91792500Y-72885000D03*
%TD*%
D14*
%TO.P,TP6,1,1*%
%TO.N,GND*%
X38700000Y-56900000D03*
%TD*%
D44*
%TO.P,D302,1,K*%
%TO.N,Net-(D302-Pad1)*%
X79000000Y-75610000D03*
%TO.P,D302,2,A*%
%TO.N,/LED_RED*%
X77250000Y-75610000D03*
%TD*%
D21*
%TO.P,C13,1*%
%TO.N,+3V3*%
X89625000Y-69587500D03*
%TO.P,C13,2*%
%TO.N,GND*%
X89625000Y-71312500D03*
%TD*%
D45*
%TO.P,U9,1,VCC*%
%TO.N,/WS2815B_VCC*%
X77775000Y-54225000D03*
%TO.P,U9,2,VDD*%
%TO.N,/WS2815B_VDD*%
X76175000Y-54225000D03*
%TO.P,U9,3,DO*%
%TO.N,/LEDA_OUT*%
X74575000Y-54225000D03*
%TO.P,U9,4,DIN*%
%TO.N,/LEDA*%
X74575000Y-59125000D03*
%TO.P,U9,5,GND*%
%TO.N,GND*%
X76175000Y-59125000D03*
%TO.P,U9,6,BIN*%
%TO.N,/LEDA*%
X77775000Y-59125000D03*
%TD*%
D46*
%TO.P,U10,1,IOVDD*%
%TO.N,+3V3*%
X90350000Y-61112500D03*
%TO.P,U10,2,GPIO0*%
%TO.N,/GPO_7*%
X89950000Y-61112500D03*
%TO.P,U10,3,GPIO1*%
%TO.N,/GPO_8*%
X89550000Y-61112500D03*
%TO.P,U10,4,GPIO2*%
%TO.N,/GPO_9*%
X89150000Y-61112500D03*
%TO.P,U10,5,GPIO3*%
%TO.N,/LEDR*%
X88750000Y-61112500D03*
%TO.P,U10,6,GPIO4*%
%TO.N,/EXT_I2C_SCL*%
X88350000Y-61112500D03*
%TO.P,U10,7,GPIO5*%
%TO.N,/EXT_I2C_SDA*%
X87950000Y-61112500D03*
%TO.P,U10,8,GPIO6*%
%TO.N,/LEDG*%
X87550000Y-61112500D03*
%TO.P,U10,9,GPIO7*%
%TO.N,/LEDB*%
X87150000Y-61112500D03*
%TO.P,U10,10,IOVDD*%
%TO.N,+3V3*%
X86750000Y-61112500D03*
%TO.P,U10,11,GPIO8*%
%TO.N,/EN4*%
X86350000Y-61112500D03*
%TO.P,U10,12,GPIO9*%
%TO.N,/GPO_5*%
X85950000Y-61112500D03*
%TO.P,U10,13,GPIO10*%
%TO.N,/GPO_6*%
X85550000Y-61112500D03*
%TO.P,U10,14,GPIO11*%
%TO.N,/EN3*%
X85150000Y-61112500D03*
D47*
%TO.P,U10,15,GPIO12*%
%TO.N,/EN2*%
X84312500Y-61950000D03*
%TO.P,U10,16,GPIO13*%
%TO.N,/EN1*%
X84312500Y-62350000D03*
%TO.P,U10,17,GPIO14*%
%TO.N,/LEDA*%
X84312500Y-62750000D03*
%TO.P,U10,18,GPIO15*%
%TO.N,/EXT_IO3*%
X84312500Y-63150000D03*
%TO.P,U10,19,TESTEN*%
%TO.N,GND*%
X84312500Y-63550000D03*
%TO.P,U10,20,XIN*%
%TO.N,Net-(C7-Pad1)*%
X84312500Y-63950000D03*
%TO.P,U10,21,XOUT*%
%TO.N,Net-(R5-Pad1)*%
X84312500Y-64350000D03*
%TO.P,U10,22,IOVDD*%
%TO.N,+3V3*%
X84312500Y-64750000D03*
%TO.P,U10,23,DVDD*%
%TO.N,+1V1*%
X84312500Y-65150000D03*
%TO.P,U10,24,SWCLK*%
%TO.N,unconnected-(U10-Pad24)*%
X84312500Y-65550000D03*
%TO.P,U10,25,SWD*%
%TO.N,unconnected-(U10-Pad25)*%
X84312500Y-65950000D03*
%TO.P,U10,26,RUN*%
%TO.N,unconnected-(U10-Pad26)*%
X84312500Y-66350000D03*
%TO.P,U10,27,GPIO16*%
%TO.N,/EXT_SPI_MISO*%
X84312500Y-66750000D03*
%TO.P,U10,28,GPIO17*%
%TO.N,/EXT_SPI_SS1*%
X84312500Y-67150000D03*
D46*
%TO.P,U10,29,GPIO18*%
%TO.N,/EXT_SPI_SCK*%
X85150000Y-67987500D03*
%TO.P,U10,30,GPIO19*%
%TO.N,/EXT_SPI_MOSI*%
X85550000Y-67987500D03*
%TO.P,U10,31,GPIO20*%
%TO.N,/5V_EN*%
X85950000Y-67987500D03*
%TO.P,U10,32,GPIO21*%
%TO.N,/VBAT_SENSE*%
X86350000Y-67987500D03*
%TO.P,U10,33,IOVDD*%
%TO.N,+3V3*%
X86750000Y-67987500D03*
%TO.P,U10,34,GPIO22*%
%TO.N,/GPO_11*%
X87150000Y-67987500D03*
%TO.P,U10,35,GPIO23*%
%TO.N,/GPO_10*%
X87550000Y-67987500D03*
%TO.P,U10,36,GPIO24*%
%TO.N,/DRV_SLEEP*%
X87950000Y-67987500D03*
%TO.P,U10,37,GPIO25*%
%TO.N,/MCP_RESET*%
X88350000Y-67987500D03*
%TO.P,U10,38,GPIO26_ADC0*%
%TO.N,/VBAT_SENSE*%
X88750000Y-67987500D03*
%TO.P,U10,39,GPIO27_ADC1*%
%TO.N,unconnected-(U10-Pad39)*%
X89150000Y-67987500D03*
%TO.P,U10,40,GPIO28_ADC2*%
%TO.N,unconnected-(U10-Pad40)*%
X89550000Y-67987500D03*
%TO.P,U10,41,GPIO29_ADC3*%
%TO.N,unconnected-(U10-Pad41)*%
X89950000Y-67987500D03*
%TO.P,U10,42,IOVDD*%
%TO.N,+3V3*%
X90350000Y-67987500D03*
D47*
%TO.P,U10,43,ADC_AVDD*%
X91187500Y-67150000D03*
%TO.P,U10,44,VREG_IN*%
X91187500Y-66750000D03*
%TO.P,U10,45,VREG_VOUT*%
%TO.N,+1V1*%
X91187500Y-66350000D03*
%TO.P,U10,46,USB_DM*%
%TO.N,/PICO_USB__N*%
X91187500Y-65950000D03*
%TO.P,U10,47,USB_DP*%
%TO.N,/PICO_USB__P*%
X91187500Y-65550000D03*
%TO.P,U10,48,USB_VDD*%
%TO.N,+3V3*%
X91187500Y-65150000D03*
%TO.P,U10,49,IOVDD*%
X91187500Y-64750000D03*
%TO.P,U10,50,DVDD*%
%TO.N,+1V1*%
X91187500Y-64350000D03*
%TO.P,U10,51,QSPI_SD3*%
%TO.N,/QSPI_SD3*%
X91187500Y-63950000D03*
%TO.P,U10,52,QSPI_SCLK*%
%TO.N,/QSPI_SCLK*%
X91187500Y-63550000D03*
%TO.P,U10,53,QSPI_SD0*%
%TO.N,/QSPI_SD0*%
X91187500Y-63150000D03*
%TO.P,U10,54,QSPI_SD2*%
%TO.N,/QSPI_SD2*%
X91187500Y-62750000D03*
%TO.P,U10,55,QSPI_SD1*%
%TO.N,/QSPI_SD1*%
X91187500Y-62350000D03*
%TO.P,U10,56,QSPI_SS*%
%TO.N,/QSPI_SS*%
X91187500Y-61950000D03*
D48*
%TO.P,U10,57,GND*%
%TO.N,GND*%
X87750000Y-64550000D03*
D49*
X87750000Y-64550000D03*
X89025000Y-65825000D03*
X86475000Y-64550000D03*
X86475000Y-63275000D03*
X89025000Y-64550000D03*
X87750000Y-65825000D03*
X89025000Y-63275000D03*
X87750000Y-63275000D03*
X86475000Y-65825000D03*
%TD*%
D16*
%TO.P,L3,1*%
%TO.N,Net-(C35-Pad2)*%
X35155000Y-78905000D03*
%TO.P,L3,2*%
%TO.N,+3V3*%
X35155000Y-74205000D03*
%TD*%
D30*
%TO.P,R23,1*%
%TO.N,Net-(C39-Pad2)*%
X33572500Y-86669999D03*
%TO.P,R23,2*%
%TO.N,GND*%
X31747500Y-86669999D03*
%TD*%
%TO.P,R104,1*%
%TO.N,/CANL*%
X51797500Y-57600000D03*
%TO.P,R104,2*%
%TO.N,/CANH*%
X49972500Y-57600000D03*
%TD*%
D50*
%TO.P,C31,1*%
%TO.N,/EXT_12V*%
X86175000Y-82075000D03*
%TO.P,C31,2*%
%TO.N,GND*%
X90575000Y-82075000D03*
%TD*%
D15*
%TO.P,C41,1*%
%TO.N,+3V3*%
X39292500Y-80627500D03*
%TO.P,C41,2*%
%TO.N,GND*%
X41367500Y-80627500D03*
%TD*%
D25*
%TO.P,C28,1*%
%TO.N,/CP1*%
X83995000Y-74497500D03*
%TO.P,C28,2*%
%TO.N,/CP2*%
X83995000Y-76572500D03*
%TD*%
D15*
%TO.P,C40,1*%
%TO.N,+5V*%
X38572500Y-60640000D03*
%TO.P,C40,2*%
%TO.N,GND*%
X40647500Y-60640000D03*
%TD*%
D51*
%TO.P,D2,1,K*%
%TO.N,/EXT_12V*%
X27850001Y-56300000D03*
%TO.P,D2,2,A*%
%TO.N,/VBAT*%
X31150001Y-56300000D03*
%TD*%
D21*
%TO.P,C23,1*%
%TO.N,+3V3*%
X95025000Y-69587500D03*
%TO.P,C23,2*%
%TO.N,GND*%
X95025000Y-71312500D03*
%TD*%
D14*
%TO.P,TP7,1,1*%
%TO.N,GND*%
X42900000Y-75800000D03*
%TD*%
D15*
%TO.P,C37,1*%
%TO.N,Net-(C37-Pad1)*%
X39292500Y-82665000D03*
%TO.P,C37,2*%
%TO.N,GND*%
X41367500Y-82665000D03*
%TD*%
D44*
%TO.P,D301,1,K*%
%TO.N,Net-(D301-Pad1)*%
X79027500Y-78930000D03*
%TO.P,D301,2,A*%
%TO.N,+3V3*%
X77277500Y-78930000D03*
%TD*%
D29*
%TO.P,H302,1,1*%
%TO.N,GND*%
X67000000Y-74000000D03*
%TD*%
D18*
%TO.P,U3,1,BST*%
%TO.N,Net-(C34-Pad1)*%
X28790000Y-65904999D03*
%TO.P,U3,2,VIN*%
%TO.N,/EXT_12V*%
X28790000Y-67174999D03*
%TO.P,U3,3,EN*%
%TO.N,/5V_EN*%
X28790000Y-68444999D03*
%TO.P,U3,4,RT*%
%TO.N,Net-(R10-Pad1)*%
X28790000Y-69714999D03*
%TO.P,U3,5,FB*%
%TO.N,Net-(C38-Pad2)*%
X33740000Y-69714999D03*
%TO.P,U3,6,COMP*%
%TO.N,Net-(C36-Pad1)*%
X33740000Y-68444999D03*
%TO.P,U3,7,GND*%
%TO.N,GND*%
X33740000Y-67174999D03*
%TO.P,U3,8,SW*%
%TO.N,Net-(C34-Pad2)*%
X33740000Y-65904999D03*
D19*
%TO.P,U3,9,GND*%
%TO.N,GND*%
X31915000Y-68809999D03*
X30615000Y-66809999D03*
X30615000Y-68809999D03*
X31915000Y-66809999D03*
D20*
X31265000Y-67809999D03*
D19*
X30615000Y-67809999D03*
X31915000Y-67809999D03*
%TD*%
D14*
%TO.P,TP3,1,1*%
%TO.N,+5V*%
X35800000Y-56900000D03*
%TD*%
D21*
%TO.P,C4,1*%
%TO.N,/WS2815B_VCC*%
X79575000Y-54162500D03*
%TO.P,C4,2*%
%TO.N,GND*%
X79575000Y-55887500D03*
%TD*%
%TO.P,C6,1*%
%TO.N,+3V3*%
X103950000Y-70887500D03*
%TO.P,C6,2*%
%TO.N,GND*%
X103950000Y-72612500D03*
%TD*%
D31*
%TO.P,C3,1*%
%TO.N,GND*%
X29807500Y-59575000D03*
%TO.P,C3,2*%
%TO.N,/EXT_12V*%
X27732500Y-59575000D03*
%TD*%
D44*
%TO.P,D308,1,K*%
%TO.N,Net-(D308-Pad1)*%
X79010000Y-77280000D03*
%TO.P,D308,2,A*%
%TO.N,/WIFI_LED*%
X77260000Y-77280000D03*
%TD*%
D15*
%TO.P,C43,1*%
%TO.N,+3V3*%
X39292500Y-78590000D03*
%TO.P,C43,2*%
%TO.N,GND*%
X41367500Y-78590000D03*
%TD*%
D11*
%TO.P,R14,1*%
%TO.N,Net-(C36-Pad1)*%
X35517500Y-69780000D03*
%TO.P,R14,2*%
%TO.N,Net-(C32-Pad1)*%
X37342500Y-69780000D03*
%TD*%
D30*
%TO.P,R20,1*%
%TO.N,+3V3*%
X37512500Y-86680000D03*
%TO.P,R20,2*%
%TO.N,Net-(C39-Pad2)*%
X35687500Y-86680000D03*
%TD*%
D11*
%TO.P,R21,1*%
%TO.N,Net-(D302-Pad1)*%
X80622500Y-75620000D03*
%TO.P,R21,2*%
%TO.N,GND*%
X82447500Y-75620000D03*
%TD*%
D22*
%TO.P,C17,1*%
%TO.N,+3V3*%
X85600000Y-57151414D03*
%TO.P,C17,2*%
%TO.N,GND*%
X85600000Y-55426414D03*
%TD*%
D11*
%TO.P,R16,1*%
%TO.N,+3V3*%
X61187500Y-65600000D03*
%TO.P,R16,2*%
%TO.N,/MCP_RESET*%
X63012500Y-65600000D03*
%TD*%
D22*
%TO.P,C19,1*%
%TO.N,+3V3*%
X91490240Y-59426324D03*
%TO.P,C19,2*%
%TO.N,GND*%
X91490240Y-57701324D03*
%TD*%
D15*
%TO.P,C39,1*%
%TO.N,+3V3*%
X39292500Y-86740000D03*
%TO.P,C39,2*%
%TO.N,Net-(C39-Pad2)*%
X41367500Y-86740000D03*
%TD*%
D11*
%TO.P,R13,1*%
%TO.N,Net-(R13-Pad1)*%
X28287500Y-86690000D03*
%TO.P,R13,2*%
%TO.N,GND*%
X30112500Y-86690000D03*
%TD*%
D14*
%TO.P,TP8,1,1*%
%TO.N,GND*%
X79600000Y-60300000D03*
%TD*%
D22*
%TO.P,C22,1*%
%TO.N,/MCP_OSC1*%
X54425000Y-52937500D03*
%TO.P,C22,2*%
%TO.N,GND*%
X54425000Y-51212500D03*
%TD*%
D11*
%TO.P,R91,1*%
%TO.N,Net-(D308-Pad1)*%
X80592500Y-77270000D03*
%TO.P,R91,2*%
%TO.N,GND*%
X82417500Y-77270000D03*
%TD*%
D30*
%TO.P,R4,1*%
%TO.N,/QSPI_SS*%
X96512500Y-59750000D03*
%TO.P,R4,2*%
%TO.N,+3V3*%
X94687500Y-59750000D03*
%TD*%
D52*
%TO.P,Y3,1,1*%
%TO.N,Net-(C8-Pad2)*%
X79500000Y-67175000D03*
%TO.P,Y3,2,2*%
%TO.N,GND*%
X79500000Y-64275000D03*
%TO.P,Y3,3,3*%
%TO.N,Net-(C7-Pad1)*%
X77200000Y-64275000D03*
%TO.P,Y3,4,4*%
%TO.N,GND*%
X77200000Y-67175000D03*
%TD*%
D19*
%TO.P,U4,30,GND*%
%TO.N,GND*%
X90925000Y-78322500D03*
%TO.P,U4,31,GND*%
X89625000Y-78322500D03*
%TO.P,U4,32,GND*%
X88325000Y-78322500D03*
%TO.P,U4,33,GND*%
X87025000Y-78322500D03*
%TO.P,U4,34,GND*%
X92225000Y-78322500D03*
%TO.P,U4,35,GND*%
X93525000Y-78322500D03*
%TO.P,U4,36,GND*%
X94825000Y-78322500D03*
%TO.P,U4,37,GND*%
X87025000Y-77022500D03*
%TO.P,U4,38,GND*%
X87025000Y-79622500D03*
%TO.P,U4,39,GND*%
X88325000Y-77022500D03*
%TO.P,U4,40,GND*%
X88325000Y-79622500D03*
%TO.P,U4,41,GND*%
X89625000Y-79622500D03*
%TO.P,U4,42,GND*%
X89625000Y-77022500D03*
%TO.P,U4,43,GND*%
X90925000Y-77022500D03*
%TO.P,U4,44,GND*%
X90925000Y-79622500D03*
%TO.P,U4,45,GND*%
X92225000Y-77022500D03*
%TO.P,U4,46,GND*%
X92225000Y-79622500D03*
%TO.P,U4,47,GND*%
X93525000Y-77022500D03*
%TO.P,U4,48,GND*%
X93525000Y-79622500D03*
%TO.P,U4,49,GND*%
X94825000Y-77022500D03*
%TO.P,U4,50,GND*%
X94825000Y-79622500D03*
%TD*%
D53*
%TO.N,+5V*%
X38600000Y-65500000D03*
X38600000Y-63700000D03*
X38600000Y-64600000D03*
X76430000Y-89330000D03*
X75349992Y-89324992D03*
X38200000Y-71200000D03*
D54*
%TO.N,/LEDG*%
X86825000Y-54250000D03*
%TO.N,/LEDR*%
X87450000Y-54250000D03*
D53*
%TO.N,/EXT_UART_RX*%
X73975000Y-88200000D03*
X45286231Y-71186232D03*
%TO.N,/EXT_UART_TX*%
X45300000Y-72100000D03*
X72675000Y-88200000D03*
D54*
%TO.N,/LEDB*%
X86200000Y-54250000D03*
D53*
%TO.N,/CAN_TX*%
X70140000Y-88200000D03*
X53775000Y-64950000D03*
%TO.N,/CAN_RX*%
X71430000Y-88200000D03*
X53150000Y-63850000D03*
D54*
%TO.N,/GPO_5*%
X87380000Y-84560000D03*
X83930000Y-84570000D03*
X82975000Y-54925000D03*
%TO.N,GND*%
X95750000Y-68250000D03*
X93700000Y-58200000D03*
X98780000Y-74970000D03*
X92550000Y-82400000D03*
D53*
X28000000Y-89200000D03*
X40000000Y-89300000D03*
D54*
X85600000Y-54250000D03*
D53*
X53050000Y-88300000D03*
X98875000Y-62975000D03*
X46150000Y-60575000D03*
X36600000Y-67200000D03*
X28000000Y-88200000D03*
X55225000Y-54025000D03*
X35300000Y-67200000D03*
X80710000Y-74090000D03*
X29800000Y-58200000D03*
X53050000Y-87150000D03*
X47100000Y-84100000D03*
X47100000Y-78600000D03*
X37800000Y-82500000D03*
X98300000Y-62200000D03*
X76275000Y-69525000D03*
X52950000Y-54400000D03*
X41700000Y-89300000D03*
X42900000Y-76900000D03*
X79580000Y-58900000D03*
X52950000Y-75350000D03*
X42900000Y-80100000D03*
D54*
X92560000Y-81800000D03*
D53*
X43300000Y-88000000D03*
D54*
X95830000Y-73110000D03*
D53*
X76175000Y-60600000D03*
D54*
X81910000Y-63340000D03*
D53*
X105275000Y-58275000D03*
X56025000Y-50225000D03*
X46175000Y-67675000D03*
X38400000Y-89300000D03*
D54*
X102625000Y-72600000D03*
X93350000Y-84350000D03*
D53*
X63980000Y-63780000D03*
X40600000Y-59200000D03*
X43300000Y-89300000D03*
X44000000Y-80100000D03*
X105100000Y-79300000D03*
X60700000Y-51300000D03*
X97775000Y-62975000D03*
D54*
%TO.N,/GPO_6*%
X88650000Y-83200000D03*
X83360000Y-83190000D03*
X82350000Y-54940000D03*
%TO.N,/MCP_RESET*%
X59550000Y-66600000D03*
X62500000Y-66600000D03*
D53*
X59525000Y-63200000D03*
X70799506Y-63160510D03*
D54*
%TO.N,/GPO_7*%
X89275000Y-54250000D03*
%TO.N,/GPO_8*%
X88650000Y-54250000D03*
%TO.N,/GPO_9*%
X88050000Y-54250000D03*
D53*
%TO.N,/LEDA_OUT*%
X74600000Y-46100000D03*
D54*
%TO.N,+1V1*%
X84700000Y-60375000D03*
X84700000Y-68700000D03*
%TO.N,/GPO_11*%
X87400000Y-69640000D03*
X91280000Y-87660000D03*
X85860000Y-87670000D03*
D53*
%TO.N,/EXT_IO4*%
X58700000Y-88300000D03*
X45300000Y-75698012D03*
%TO.N,/EXT_IO5*%
X57500000Y-88300000D03*
X45300000Y-74798509D03*
%TO.N,/MODE_BTN*%
X58750000Y-78500000D03*
X65075000Y-88200000D03*
%TO.N,/PAUSE_BTN*%
X63824989Y-88220000D03*
X54750000Y-74250000D03*
%TO.N,/EXT_I2C_SDA*%
X45300000Y-73899006D03*
X73110000Y-71740000D03*
X71990000Y-64625500D03*
D54*
X87250000Y-58150000D03*
%TO.N,/EXT_I2C_SCL*%
X88110000Y-58150000D03*
D53*
X45300000Y-72999503D03*
X70870000Y-64625500D03*
X72180000Y-70810000D03*
%TO.N,/EXT_12V*%
X77625000Y-48875000D03*
X25500000Y-56300000D03*
X25500000Y-66460000D03*
X60000000Y-90800000D03*
X25500000Y-69000000D03*
X25500000Y-61380000D03*
X43400000Y-90800000D03*
X25500000Y-74080000D03*
X25500000Y-58840000D03*
X40100000Y-90800000D03*
X25500000Y-71540000D03*
X41700000Y-90800000D03*
X61400000Y-90800000D03*
X62800000Y-90800000D03*
D54*
X94500000Y-74340000D03*
D53*
X80830000Y-90570000D03*
X25500000Y-63920000D03*
D54*
X88720000Y-74030000D03*
D53*
X25500000Y-76620000D03*
%TO.N,/EXT_IO1*%
X60000000Y-88300000D03*
%TO.N,/EXT_IO2*%
X57420000Y-80330000D03*
D54*
%TO.N,/EXT_IO3*%
X82830000Y-62910000D03*
D53*
X64225000Y-66925000D03*
X55950000Y-67025500D03*
%TO.N,/EXT_SPI_MISO*%
X62530000Y-78500000D03*
X68150000Y-64500000D03*
D54*
X82820000Y-66150000D03*
D53*
X58200000Y-64775000D03*
%TO.N,/EXT_SPI_MOSI*%
X61250000Y-78500000D03*
X67030000Y-65540000D03*
X57075000Y-64775000D03*
D54*
X82830000Y-67670000D03*
D53*
%TO.N,/EXT_SPI_SCK*%
X65600000Y-66290000D03*
X56600000Y-66025000D03*
X59975000Y-78500000D03*
D54*
X82830000Y-68400000D03*
D53*
%TO.N,/EXT_SPI_SS0*%
X58770000Y-79520000D03*
%TO.N,/EXT_SPI_SS1*%
X69525000Y-63800000D03*
X58875000Y-64000000D03*
D54*
X82820000Y-66970000D03*
X69575000Y-65750000D03*
%TO.N,/5V_EN*%
X86360000Y-66500000D03*
D53*
X27300000Y-68400000D03*
D54*
X81500000Y-72200000D03*
X86470000Y-72280000D03*
X54925000Y-67875000D03*
X54925000Y-69425000D03*
%TO.N,/VBAT_SENSE*%
X87175000Y-66525000D03*
X54400000Y-65900000D03*
X87070000Y-72280000D03*
X82010000Y-72760000D03*
X53150000Y-69025000D03*
%TO.N,/GPO_10*%
X87900000Y-69300000D03*
X86290000Y-85750000D03*
X89950000Y-85740000D03*
%TO.N,/DRV_SLEEP*%
X93890000Y-88240000D03*
X87030000Y-88320000D03*
X88400000Y-70210000D03*
D53*
%TO.N,/MOTOR2_OUT2*%
X106650000Y-68490000D03*
D54*
%TO.N,Net-(C27-Pad1)*%
X94400000Y-85670000D03*
%TO.N,Net-(C29-Pad1)*%
X88720000Y-73230000D03*
%TO.N,/DRV_RESET*%
X94410000Y-84950000D03*
%TO.N,/CP1*%
X86720000Y-74230000D03*
%TO.N,/CP2*%
X87520000Y-74230000D03*
%TO.N,/EN4*%
X85150000Y-87030000D03*
X83575000Y-54925000D03*
X91860000Y-87030000D03*
%TO.N,/EN3*%
X82860000Y-85130000D03*
X81730000Y-54950000D03*
X90600000Y-85090000D03*
%TO.N,/EN2*%
X81130000Y-54950000D03*
X82350000Y-86410000D03*
X89300000Y-86410000D03*
%TO.N,/EN1*%
X88000000Y-83870000D03*
X81840000Y-83860000D03*
X80530000Y-54950000D03*
%TO.N,+3V3*%
X87760000Y-67020000D03*
X90340000Y-66950000D03*
D53*
X46150000Y-62100000D03*
X38300000Y-87400000D03*
X68800000Y-88200000D03*
D54*
X104900000Y-70890000D03*
X95025000Y-68250000D03*
D53*
X39300000Y-76900000D03*
D54*
X92420000Y-87680000D03*
D53*
X77600000Y-82500000D03*
X41100000Y-75500000D03*
X39300000Y-74100000D03*
D54*
X90400000Y-58400000D03*
D53*
X41100000Y-76900000D03*
D54*
X82830000Y-65110000D03*
D53*
X39400000Y-87400000D03*
X39300000Y-75500000D03*
X67600000Y-88200000D03*
X75320000Y-63270000D03*
X66400000Y-88200000D03*
D54*
X85800000Y-57925000D03*
%TD*%
D55*
%TO.N,/CANH*%
X49972500Y-56972500D02*
X47550000Y-54550000D01*
X46490000Y-51390000D02*
X45785000Y-51390000D01*
X49972500Y-57600000D02*
X49972500Y-56972500D01*
X49972500Y-58712500D02*
X49972500Y-57600000D01*
X49550000Y-59135000D02*
X49972500Y-58712500D01*
X47550000Y-54550000D02*
X47550000Y-52450000D01*
X49550000Y-62325000D02*
X49550000Y-59135000D01*
X47550000Y-52450000D02*
X46490000Y-51390000D01*
%TO.N,/CANL*%
X50820000Y-62325000D02*
X50820000Y-59580000D01*
X50820000Y-59580000D02*
X51797500Y-58602500D01*
X49975000Y-51390000D02*
X49975000Y-53675000D01*
X51797500Y-55497500D02*
X51797500Y-57600000D01*
X51797500Y-58602500D02*
X51797500Y-57600000D01*
X49975000Y-53675000D02*
X51797500Y-55497500D01*
%TO.N,+5V*%
X35800000Y-56900000D02*
X35800000Y-58100000D01*
X39072500Y-71140000D02*
X38260000Y-71140000D01*
X38572500Y-62680000D02*
X38572500Y-65472500D01*
X38260000Y-71140000D02*
X38200000Y-71200000D01*
X38572500Y-65472500D02*
X38600000Y-65500000D01*
D56*
%TO.N,/LEDG*%
X86700000Y-58526414D02*
X87550000Y-59376414D01*
X87550000Y-59376414D02*
X87550000Y-61112500D01*
X86825000Y-54250000D02*
X86700000Y-54375000D01*
X86700000Y-54375000D02*
X86700000Y-58526414D01*
%TO.N,/LEDR*%
X89051440Y-56701440D02*
X87450000Y-55100000D01*
X88750000Y-61112500D02*
X88750000Y-60698540D01*
X89051440Y-60397100D02*
X89051440Y-56701440D01*
X87450000Y-55100000D02*
X87450000Y-54250000D01*
X88750000Y-60698540D02*
X89051440Y-60397100D01*
D57*
%TO.N,/EXT_UART_RX*%
X44450000Y-55742113D02*
X44648080Y-55940193D01*
D56*
X73959838Y-88184838D02*
X73959838Y-86127500D01*
D57*
X44450000Y-50050000D02*
X44450000Y-55742113D01*
X46400000Y-48100000D02*
X44450000Y-50050000D01*
X49050000Y-48100000D02*
X46400000Y-48100000D01*
D56*
X73975000Y-88200000D02*
X73959838Y-88184838D01*
D57*
X44861232Y-71186232D02*
X45286231Y-71186232D01*
X49975000Y-45040000D02*
X49975000Y-47175000D01*
X44648080Y-55940193D02*
X44648080Y-70973080D01*
X44648080Y-70973080D02*
X44861232Y-71186232D01*
X49975000Y-47175000D02*
X49050000Y-48100000D01*
%TO.N,/EXT_UART_TX*%
X45785000Y-47365000D02*
X45785000Y-45040000D01*
D56*
X72689838Y-88185162D02*
X72689838Y-86127500D01*
D57*
X45300000Y-72100000D02*
X44700000Y-72100000D01*
X44700000Y-72100000D02*
X44298560Y-71698560D01*
D56*
X72675000Y-88200000D02*
X72689838Y-88185162D01*
D57*
X44298558Y-56084966D02*
X44050000Y-55836408D01*
X44050000Y-49100000D02*
X45785000Y-47365000D01*
X44298560Y-71698560D02*
X44298558Y-56084966D01*
X44050000Y-55836408D02*
X44050000Y-49100000D01*
D56*
%TO.N,/LEDB*%
X86274520Y-58577348D02*
X87150000Y-59452828D01*
X86274520Y-54324520D02*
X86274520Y-58577348D01*
X87150000Y-59452828D02*
X87150000Y-61112500D01*
X86200000Y-54250000D02*
X86274520Y-54324520D01*
%TO.N,/CAN_TX*%
X48280000Y-67275000D02*
X48280000Y-68355000D01*
X60175000Y-55887500D02*
X60175000Y-55450000D01*
X72080000Y-53770000D02*
X72080000Y-52100000D01*
X70700000Y-55150000D02*
X72080000Y-53770000D01*
D57*
X70149838Y-88190162D02*
X70149838Y-86127500D01*
D56*
X59525000Y-58050000D02*
X60175000Y-57400000D01*
X53775000Y-67687500D02*
X53775000Y-64950000D01*
X48800000Y-68875000D02*
X52587500Y-68875000D01*
X53775000Y-63950000D02*
X53775000Y-60850000D01*
X48280000Y-68355000D02*
X48800000Y-68875000D01*
D57*
X70140000Y-88200000D02*
X70149838Y-88190162D01*
D56*
X60175000Y-57400000D02*
X60175000Y-55887500D01*
X60175000Y-55450000D02*
X60475000Y-55150000D01*
X53775000Y-60850000D02*
X56575000Y-58050000D01*
X56575000Y-58050000D02*
X59525000Y-58050000D01*
X52587500Y-68875000D02*
X53775000Y-67687500D01*
X60475000Y-55150000D02*
X70700000Y-55150000D01*
D57*
X53775000Y-63950000D02*
X53775000Y-64950000D01*
D56*
%TO.N,/CAN_RX*%
X53150000Y-65550000D02*
X53150000Y-65600000D01*
X69975000Y-54700000D02*
X70810000Y-53865000D01*
D57*
X71430000Y-88200000D02*
X71419838Y-88189838D01*
D56*
X55059194Y-58465806D02*
X55059192Y-58465805D01*
X53150000Y-60375000D02*
X53150000Y-64350000D01*
X52850000Y-64650000D02*
X52450000Y-64650000D01*
X59525000Y-56950000D02*
X59000000Y-57475000D01*
X55165259Y-58784004D02*
X54953127Y-58996137D01*
X53150000Y-65600000D02*
X53150000Y-66625000D01*
X54210663Y-59314337D02*
X54210661Y-59314336D01*
D57*
X71419838Y-88189838D02*
X71419838Y-86127500D01*
D56*
X54740995Y-58996137D02*
X54139955Y-58395098D01*
X59900000Y-54700000D02*
X69975000Y-54700000D01*
X52450000Y-65250000D02*
X52850000Y-65250000D01*
X53892464Y-59844668D02*
X53291424Y-59243629D01*
X59525000Y-55887500D02*
X59525000Y-56950000D01*
X53150000Y-66625000D02*
X52500000Y-67275000D01*
X59525000Y-55075000D02*
X59900000Y-54700000D01*
X55271329Y-57829410D02*
X54988486Y-57546567D01*
X56050000Y-57475000D02*
X55695593Y-57829410D01*
X54139955Y-58395098D02*
X54139955Y-58395099D01*
X54988486Y-57546567D02*
X54988486Y-57546568D01*
X53715689Y-58819363D02*
X54210663Y-59314337D01*
D57*
X53150000Y-64350000D02*
X53150000Y-63850000D01*
D56*
X54210661Y-59314336D02*
X54316728Y-59420403D01*
X55059192Y-58465805D02*
X55165259Y-58571872D01*
X53291424Y-59243629D02*
X53291424Y-59243630D01*
X54564220Y-57970832D02*
X55059194Y-58465806D01*
X52867158Y-59667894D02*
X53150000Y-59950736D01*
X70810000Y-53865000D02*
X70810000Y-52100000D01*
X52500000Y-67275000D02*
X52090000Y-67275000D01*
X59525000Y-55887500D02*
X59525000Y-55075000D01*
X59000000Y-57475000D02*
X56050000Y-57475000D01*
X54316728Y-59632535D02*
X54104596Y-59844668D01*
X53150000Y-65550000D02*
G75*
G03*
X52850000Y-65250000I-300000J0D01*
G01*
X53715690Y-58395100D02*
G75*
G02*
X54139954Y-58395100I212132J-212130D01*
G01*
X52867159Y-59667893D02*
G75*
G02*
X52867159Y-59243631I212131J212131D01*
G01*
X55271330Y-57829409D02*
G75*
G03*
X55695592Y-57829409I212131J212131D01*
G01*
X54316727Y-59632534D02*
G75*
G03*
X54316727Y-59420404I-106065J106065D01*
G01*
X55165258Y-58784003D02*
G75*
G03*
X55165258Y-58571873I-106065J106065D01*
G01*
X53892465Y-59844667D02*
G75*
G03*
X54104595Y-59844667I106065J106065D01*
G01*
X53149999Y-60374999D02*
G75*
G03*
X53149999Y-59950737I-212131J212131D01*
G01*
X54564221Y-57546569D02*
G75*
G02*
X54988485Y-57546569I212132J-212130D01*
G01*
X52867159Y-59243631D02*
G75*
G02*
X53291423Y-59243631I212132J-212130D01*
G01*
X52850000Y-64650000D02*
G75*
G03*
X53150000Y-64350000I0J300000D01*
G01*
X52150000Y-64950000D02*
G75*
G02*
X52450000Y-64650000I300000J0D01*
G01*
X54564221Y-57970831D02*
G75*
G02*
X54564221Y-57546569I212131J212131D01*
G01*
X53715690Y-58819362D02*
G75*
G02*
X53715690Y-58395100I212131J212131D01*
G01*
X54740996Y-58996136D02*
G75*
G03*
X54953126Y-58996136I106065J106065D01*
G01*
X52450000Y-65250000D02*
G75*
G02*
X52150000Y-64950000I0J300000D01*
G01*
D57*
%TO.N,/GPO_5*%
X83940000Y-84560000D02*
X87380000Y-84560000D01*
D56*
X82975000Y-54925000D02*
X82975000Y-56800000D01*
X85950000Y-59775000D02*
X85950000Y-61112500D01*
X82975000Y-56800000D02*
X85950000Y-59775000D01*
D57*
X83930000Y-84570000D02*
X83940000Y-84560000D01*
D55*
%TO.N,GND*%
X95830000Y-73110000D02*
X94210000Y-73110000D01*
X29807500Y-61840000D02*
X29807500Y-59575000D01*
D58*
X56900000Y-53600000D02*
X57750000Y-52750000D01*
X53750000Y-54400000D02*
X52950000Y-54400000D01*
D55*
X95937500Y-71312500D02*
X95025000Y-71312500D01*
X92750000Y-69037500D02*
X92750000Y-70675000D01*
D57*
X93350000Y-84350000D02*
X93380000Y-84380000D01*
D55*
X92075000Y-71350000D02*
X91262500Y-71350000D01*
D58*
X57750000Y-52750000D02*
X59212500Y-52750000D01*
X54325000Y-54975000D02*
X53750000Y-54400000D01*
D55*
X92750000Y-70675000D02*
X92075000Y-71350000D01*
D58*
X63950000Y-63750000D02*
X63980000Y-63780000D01*
X82447500Y-75725000D02*
X82447500Y-75620000D01*
D55*
X96600000Y-67212500D02*
X96600000Y-68750000D01*
X89625000Y-71312500D02*
X91225000Y-71312500D01*
X46175000Y-67675000D02*
X46175000Y-65812500D01*
D58*
X37765000Y-82535000D02*
X37800000Y-82500000D01*
D55*
X79580000Y-60280000D02*
X79600000Y-60300000D01*
X96600000Y-68750000D02*
X96600000Y-70650000D01*
D58*
X95750000Y-68250000D02*
X96525000Y-68250000D01*
D55*
X94210000Y-73110000D02*
X92650000Y-71550000D01*
D58*
X55650000Y-53600000D02*
X56900000Y-53600000D01*
D56*
X82120000Y-63550000D02*
X84312500Y-63550000D01*
D58*
X55225000Y-54025000D02*
X55650000Y-53600000D01*
X102637500Y-72612500D02*
X102625000Y-72600000D01*
D55*
X76175000Y-59125000D02*
X76175000Y-60600000D01*
X46175000Y-65812500D02*
X46150000Y-65787500D01*
D58*
X62937500Y-63750000D02*
X63950000Y-63750000D01*
X35274999Y-67174999D02*
X35300000Y-67200000D01*
X39600000Y-56900000D02*
X38700000Y-56900000D01*
X77200000Y-67175000D02*
X77200000Y-69225000D01*
X96600000Y-68325000D02*
X96600000Y-68750000D01*
X56000000Y-51350000D02*
X54212500Y-51350000D01*
D55*
X96600000Y-70650000D02*
X95937500Y-71312500D01*
X49550000Y-66325000D02*
X49550000Y-67275000D01*
D58*
X82400000Y-75772500D02*
X82447500Y-75725000D01*
D55*
X78050000Y-69612499D02*
X78137500Y-69524999D01*
X91262500Y-71350000D02*
X91225000Y-71312500D01*
D57*
X98300000Y-62200000D02*
X99800000Y-62200000D01*
D58*
X96600000Y-67212500D02*
X95050000Y-67212500D01*
D57*
X93380000Y-86652500D02*
X93187500Y-86845000D01*
D58*
X79862500Y-63912500D02*
X79500000Y-64275000D01*
X79862500Y-62100000D02*
X79862500Y-63912500D01*
X60700000Y-51300000D02*
X61120000Y-51300000D01*
D55*
X79580000Y-58900000D02*
X79575000Y-58895000D01*
X40647500Y-62680000D02*
X40647500Y-60640000D01*
X46150000Y-58950000D02*
X47212500Y-57887500D01*
X29807500Y-58207500D02*
X29800000Y-58200000D01*
X92650000Y-70775000D02*
X92750000Y-70675000D01*
X40600000Y-59200000D02*
X40647500Y-59247500D01*
D58*
X40600000Y-57900000D02*
X39600000Y-56900000D01*
D57*
X98765000Y-74985000D02*
X98780000Y-74970000D01*
X100466179Y-80971179D02*
X100955000Y-81460000D01*
D58*
X77200000Y-69225000D02*
X77550000Y-69575000D01*
X56000000Y-51350000D02*
X56000000Y-50250000D01*
D55*
X79187500Y-71312500D02*
X78050000Y-70175000D01*
D56*
X81910000Y-63340000D02*
X82120000Y-63550000D01*
D58*
X91988916Y-58200000D02*
X91490240Y-57701324D01*
D55*
X92650000Y-71550000D02*
X92650000Y-70775000D01*
D57*
X100083687Y-61916313D02*
X100083687Y-60987273D01*
D58*
X77550000Y-69575000D02*
X78087499Y-69575000D01*
D55*
X83125000Y-71312500D02*
X79187500Y-71312500D01*
D56*
X85600000Y-55426414D02*
X85600000Y-54250000D01*
D57*
X100466179Y-79829707D02*
X100466179Y-80971179D01*
D55*
X78050000Y-70175000D02*
X78050000Y-69612499D01*
D58*
X82447500Y-75147500D02*
X81390000Y-74090000D01*
D56*
X80670000Y-62100000D02*
X79862500Y-62100000D01*
D55*
X48925480Y-65700480D02*
X49550000Y-66325000D01*
X79580000Y-58900000D02*
X79580000Y-60280000D01*
D57*
X100995886Y-79300000D02*
X100466179Y-79829707D01*
D58*
X61120000Y-51300000D02*
X61920000Y-52100000D01*
X33645000Y-82535000D02*
X37765000Y-82535000D01*
X93700000Y-58200000D02*
X91988916Y-58200000D01*
D55*
X78137500Y-69524999D02*
X76275000Y-69525000D01*
X29807500Y-59575000D02*
X29807500Y-58207500D01*
X43500000Y-78595000D02*
X47095000Y-78595000D01*
X79575000Y-58895000D02*
X79575000Y-55887500D01*
X46237020Y-65700480D02*
X48925480Y-65700480D01*
X40647500Y-59247500D02*
X40647500Y-60640000D01*
X46150000Y-65787500D02*
X46237020Y-65700480D01*
D58*
X81390000Y-74090000D02*
X80710000Y-74090000D01*
X82447500Y-75620000D02*
X82447500Y-75147500D01*
D55*
X43500000Y-84095000D02*
X47095000Y-84095000D01*
D58*
X54325000Y-55887500D02*
X54325000Y-54975000D01*
D55*
X47095000Y-78595000D02*
X47100000Y-78600000D01*
D57*
X93380000Y-84380000D02*
X93380000Y-86652500D01*
D58*
X96525000Y-68250000D02*
X96600000Y-68325000D01*
X103950000Y-72612500D02*
X102637500Y-72612500D01*
X56000000Y-50250000D02*
X56025000Y-50225000D01*
D55*
X83125000Y-71312500D02*
X86300000Y-71312500D01*
X46150000Y-60575000D02*
X46150000Y-58950000D01*
D58*
X42900000Y-76900000D02*
X42900000Y-75800000D01*
D57*
X99800000Y-62200000D02*
X100083687Y-61916313D01*
X105100000Y-79300000D02*
X100995886Y-79300000D01*
D58*
X82400000Y-77087500D02*
X82400000Y-75772500D01*
X40600000Y-59200000D02*
X40600000Y-57900000D01*
D57*
X97842500Y-74985000D02*
X98765000Y-74985000D01*
D58*
X33740000Y-67174999D02*
X35274999Y-67174999D01*
D56*
X81910000Y-63340000D02*
X80670000Y-62100000D01*
D55*
X47212500Y-57887500D02*
X48235000Y-57887500D01*
D56*
%TO.N,/MCP_OSC2*%
X60300000Y-54250000D02*
X55975000Y-54250000D01*
X60300000Y-54250000D02*
X63650000Y-54250000D01*
X63650000Y-54250000D02*
X64460000Y-53440000D01*
X60625000Y-52225000D02*
X60625000Y-53925000D01*
X59837500Y-51437500D02*
X60625000Y-52225000D01*
X59625000Y-51437500D02*
X59837500Y-51437500D01*
X60625000Y-53925000D02*
X60300000Y-54250000D01*
X55975000Y-54250000D02*
X55625000Y-54600000D01*
X64460000Y-53440000D02*
X64460000Y-52100000D01*
X57750000Y-51350000D02*
X59537500Y-51350000D01*
X55625000Y-54600000D02*
X55625000Y-55887500D01*
D57*
%TO.N,/GPO_6*%
X88650000Y-83200000D02*
X83370000Y-83200000D01*
D59*
X82350000Y-56645986D02*
X82350000Y-54940000D01*
X85550000Y-59845986D02*
X82350000Y-56645986D01*
X85550000Y-61112500D02*
X85550000Y-59845986D01*
D57*
X83370000Y-83200000D02*
X83360000Y-83190000D01*
D56*
%TO.N,/MCP_OSC1*%
X56875000Y-50600000D02*
X56875000Y-51875000D01*
X54125000Y-53850000D02*
X54125000Y-53162500D01*
X54975000Y-54700000D02*
X54125000Y-53850000D01*
X57475000Y-50000000D02*
X56875000Y-50600000D01*
X63190000Y-50990000D02*
X62200000Y-50000000D01*
X54975000Y-55887500D02*
X54975000Y-54700000D01*
X63190000Y-52100000D02*
X63190000Y-50990000D01*
X54537500Y-52750000D02*
X54125000Y-53162500D01*
X62200000Y-50000000D02*
X57475000Y-50000000D01*
X56875000Y-51875000D02*
X56000000Y-52750000D01*
X56000000Y-52750000D02*
X54537500Y-52750000D01*
%TO.N,/MCP_RESET*%
X62500000Y-66600000D02*
X63012500Y-66087500D01*
D57*
X77820000Y-72630000D02*
X80220000Y-72630000D01*
X75410000Y-70220000D02*
X77820000Y-72630000D01*
D56*
X59525000Y-66575000D02*
X59525000Y-61612500D01*
D57*
X70799506Y-63619506D02*
X71174520Y-63994520D01*
D56*
X88350000Y-67987500D02*
X88350000Y-68620000D01*
D57*
X70810000Y-63150016D02*
X70810000Y-61400000D01*
X70799506Y-63160510D02*
X70810000Y-63150016D01*
D56*
X63012500Y-66087500D02*
X63012500Y-65600000D01*
D57*
X80220000Y-72630000D02*
X80880000Y-73290000D01*
X80880000Y-73290000D02*
X87730000Y-73290000D01*
X59525000Y-63200000D02*
X59525000Y-61612500D01*
X74274520Y-63994520D02*
X75410000Y-65130000D01*
X87730000Y-73290000D02*
X88870000Y-72150000D01*
D56*
X88870000Y-69140000D02*
X88870000Y-70370000D01*
D57*
X75410000Y-65130000D02*
X75410000Y-70220000D01*
D56*
X88350000Y-68620000D02*
X88870000Y-69140000D01*
D57*
X88870000Y-72150000D02*
X88870000Y-70370000D01*
X71174520Y-63994520D02*
X74274520Y-63994520D01*
X70799506Y-63160510D02*
X70799506Y-63619506D01*
D56*
X59550000Y-66600000D02*
X59525000Y-66575000D01*
D58*
%TO.N,Net-(R15-Pad1)*%
X48280000Y-62325000D02*
X48280000Y-59757500D01*
D56*
%TO.N,/GPO_7*%
X89275000Y-55200000D02*
X89950000Y-55875000D01*
X89950000Y-55875000D02*
X89950000Y-61112500D01*
X89275000Y-54250000D02*
X89275000Y-55200000D01*
%TO.N,/GPO_8*%
X88650000Y-55220001D02*
X89650480Y-56220481D01*
X89650480Y-61012020D02*
X89550000Y-61112500D01*
X88650000Y-54250000D02*
X88650000Y-55220001D01*
X89650480Y-56220481D02*
X89650480Y-61012020D01*
%TO.N,/GPO_9*%
X89350960Y-60521166D02*
X89350960Y-56575960D01*
X89150000Y-61112500D02*
X89150000Y-60722126D01*
X88050000Y-54250000D02*
X88050000Y-55250000D01*
X89350960Y-56550960D02*
X89350960Y-56575960D01*
X89150000Y-60722126D02*
X89350960Y-60521166D01*
X88050000Y-55250000D02*
X89350960Y-56550960D01*
D55*
%TO.N,/LEDA_OUT*%
X74575000Y-46125000D02*
X74575000Y-54225000D01*
X74600000Y-46100000D02*
X74575000Y-46125000D01*
%TO.N,/LEDA*%
X74575000Y-57985000D02*
X74575000Y-59125000D01*
X77775000Y-57345000D02*
X77775000Y-59125000D01*
D56*
X83550000Y-62750000D02*
X84312500Y-62750000D01*
D55*
X77775000Y-57345000D02*
X75215000Y-57345000D01*
D56*
X77775000Y-59125000D02*
X77775000Y-60475000D01*
D55*
X75215000Y-57345000D02*
X74575000Y-57985000D01*
D56*
X82125000Y-61325000D02*
X83550000Y-62750000D01*
X77775000Y-60475000D02*
X78625000Y-61325000D01*
X78625000Y-61325000D02*
X82125000Y-61325000D01*
%TO.N,Net-(C7-Pad1)*%
X77840000Y-65750000D02*
X77200000Y-65110000D01*
X80350000Y-65750000D02*
X77840000Y-65750000D01*
X77200000Y-65110000D02*
X77200000Y-64275000D01*
D58*
X77375000Y-62100000D02*
X78137500Y-62100000D01*
D56*
X82150000Y-63950000D02*
X80350000Y-65750000D01*
D58*
X77200000Y-64275000D02*
X77200000Y-62275000D01*
X77200000Y-62275000D02*
X77375000Y-62100000D01*
D56*
X84312500Y-63950000D02*
X82150000Y-63950000D01*
D58*
%TO.N,Net-(C8-Pad2)*%
X79862500Y-69524999D02*
X81537499Y-69524999D01*
X79862500Y-69524999D02*
X79862500Y-67537500D01*
D56*
%TO.N,+1V1*%
X84700000Y-61490000D02*
X85860000Y-62650000D01*
X84700000Y-60000000D02*
X84200000Y-59500000D01*
X90550000Y-66350000D02*
X89850000Y-65650000D01*
X85890000Y-62650000D02*
X86270000Y-62650000D01*
X86270000Y-62650000D02*
X89490000Y-62650000D01*
X84312500Y-65150000D02*
X85050000Y-65150000D01*
D58*
X84750000Y-68750000D02*
X84750000Y-69587500D01*
D56*
X92750000Y-66580547D02*
X92750000Y-67312500D01*
D58*
X84700000Y-68700000D02*
X84750000Y-68750000D01*
D56*
X89850000Y-64350000D02*
X91187500Y-64350000D01*
X89850000Y-65650000D02*
X89850000Y-64600000D01*
X85590000Y-62950000D02*
X85890000Y-62650000D01*
X85050000Y-65150000D02*
X85590000Y-64610000D01*
X89850000Y-64600000D02*
X89850000Y-64350000D01*
X84700000Y-60375000D02*
X84700000Y-60000000D01*
X89490000Y-62650000D02*
X89850000Y-63010000D01*
X85860000Y-62650000D02*
X86270000Y-62650000D01*
X91187500Y-64350000D02*
X96100000Y-64350000D01*
X91187500Y-66350000D02*
X92519453Y-66350000D01*
X92519453Y-66350000D02*
X92750000Y-66580547D01*
X89850000Y-63010000D02*
X89850000Y-64600000D01*
X91187500Y-66350000D02*
X90550000Y-66350000D01*
X96100000Y-64350000D02*
X96600000Y-64850000D01*
X96600000Y-64850000D02*
X96600000Y-65487500D01*
X84200000Y-59500000D02*
X82800000Y-59500000D01*
X84700000Y-60375000D02*
X84700000Y-61490000D01*
X85590000Y-64610000D02*
X85590000Y-62950000D01*
D57*
%TO.N,/PICO_USB_N*%
X100955000Y-82730000D02*
X101915000Y-83690000D01*
X95630000Y-80350188D02*
X95630000Y-79720000D01*
X101915000Y-83690000D02*
X103660000Y-83690000D01*
X94620000Y-81840000D02*
X94319995Y-81840000D01*
X96800000Y-78550000D02*
X96800000Y-78162500D01*
X94871884Y-81108304D02*
X95630000Y-80350188D01*
X103660000Y-83690000D02*
X104670000Y-84700000D01*
X104670000Y-84700000D02*
X104670000Y-86280000D01*
X104670000Y-86280000D02*
X103750000Y-87200000D01*
X97300000Y-87200000D02*
X94920000Y-84820000D01*
X103750000Y-87200000D02*
X97300000Y-87200000D01*
X95630000Y-79720000D02*
X96800000Y-78550000D01*
X94319995Y-81240000D02*
X94620000Y-81240000D01*
X94920000Y-84820000D02*
X94920000Y-82140000D01*
X94871883Y-81108304D02*
G75*
G02*
X94620000Y-81239999I-255119J181220D01*
G01*
X94620000Y-81840000D02*
G75*
G02*
X94920000Y-82140000I0J-300000D01*
G01*
X94019995Y-81540000D02*
G75*
G03*
X94319995Y-81840000I300000J0D01*
G01*
X94319995Y-81240000D02*
G75*
G03*
X94019995Y-81540000I0J-300000D01*
G01*
%TO.N,/PICO_USB_P*%
X101542500Y-78633929D02*
X101542500Y-78137500D01*
X98992500Y-78137500D02*
X98637058Y-78492939D01*
X99742500Y-77441071D02*
X99742500Y-77837500D01*
X95880000Y-81690000D02*
X95580000Y-81690000D01*
X96180000Y-83040000D02*
X96796971Y-83656971D01*
X98637058Y-78917203D02*
X98775955Y-79056100D01*
X96180000Y-82590000D02*
X96180000Y-82640000D01*
X99442500Y-78137500D02*
X98992500Y-78137500D01*
X96180000Y-80950000D02*
X96180000Y-81390000D01*
X101542500Y-78137500D02*
X101542500Y-77441071D01*
X97609226Y-80434962D02*
X97364264Y-80190000D01*
X103850000Y-78137500D02*
X102442500Y-78137500D01*
X98351691Y-79480365D02*
X97755701Y-78884376D01*
X98758029Y-83656971D02*
X99685000Y-82730000D01*
X100942500Y-77441071D02*
X100942500Y-78137500D01*
X102142500Y-78437500D02*
X102142500Y-78633929D01*
X95580000Y-82290000D02*
X95880000Y-82290000D01*
X96796971Y-83656971D02*
X98758029Y-83656971D01*
X100942500Y-78137500D02*
X100942500Y-78733929D01*
X98775955Y-79056100D02*
X98775955Y-79056099D01*
X96180000Y-82640000D02*
X96180000Y-83040000D01*
X96940000Y-80190000D02*
X96180000Y-80950000D01*
X100342500Y-77837500D02*
X100342500Y-77441071D01*
X97755701Y-78884376D02*
X97755701Y-78884377D01*
X98033490Y-80010697D02*
X98033490Y-80010696D01*
X97331435Y-79308641D02*
X98033490Y-80010697D01*
X100342500Y-78733929D02*
X100342500Y-77837500D01*
X98637059Y-78917202D02*
G75*
G02*
X98637059Y-78492940I212131J212131D01*
G01*
X100042500Y-77141071D02*
G75*
G02*
X100342500Y-77441071I0J-300000D01*
G01*
X99442500Y-78137500D02*
G75*
G03*
X99742500Y-77837500I0J300000D01*
G01*
X100942500Y-77441071D02*
G75*
G02*
X101242500Y-77141071I300000J0D01*
G01*
X100642500Y-79033929D02*
G75*
G03*
X100942500Y-78733929I0J300000D01*
G01*
X96180000Y-82590000D02*
G75*
G03*
X95880000Y-82290000I-300000J0D01*
G01*
X97331436Y-79308640D02*
G75*
G02*
X97331436Y-78884378I212131J212131D01*
G01*
X96940001Y-80190001D02*
G75*
G02*
X97364263Y-80190001I212131J-212131D01*
G01*
X101242500Y-77141071D02*
G75*
G02*
X101542500Y-77441071I0J-300000D01*
G01*
X100342500Y-78733929D02*
G75*
G03*
X100642500Y-79033929I300000J0D01*
G01*
X102142500Y-78437500D02*
G75*
G02*
X102442500Y-78137500I300000J0D01*
G01*
X98033490Y-80434962D02*
G75*
G03*
X98033490Y-80010696I-212134J212133D01*
G01*
X98351692Y-79480364D02*
G75*
G03*
X98775954Y-79480364I212131J212131D01*
G01*
X95580000Y-82290000D02*
G75*
G02*
X95280000Y-81990000I0J300000D01*
G01*
X101842500Y-78933929D02*
G75*
G03*
X102142500Y-78633929I0J300000D01*
G01*
X98775955Y-79480365D02*
G75*
G03*
X98775955Y-79056099I-212134J212133D01*
G01*
X101542500Y-78633929D02*
G75*
G03*
X101842500Y-78933929I300000J0D01*
G01*
X97331436Y-78884378D02*
G75*
G02*
X97755700Y-78884378I212132J-212130D01*
G01*
X99742500Y-77441071D02*
G75*
G02*
X100042500Y-77141071I300000J0D01*
G01*
X95280000Y-81990000D02*
G75*
G02*
X95580000Y-81690000I300000J0D01*
G01*
X95880000Y-81690000D02*
G75*
G03*
X96180000Y-81390000I0J300000D01*
G01*
X97609227Y-80434961D02*
G75*
G03*
X98033489Y-80434961I212131J212131D01*
G01*
D58*
%TO.N,/QSPI_SS*%
X96512500Y-58150000D02*
X96512500Y-59750000D01*
D56*
X102238687Y-58387273D02*
X103893687Y-60042273D01*
X91187500Y-61950000D02*
X96750000Y-61950000D01*
X96750000Y-61950000D02*
X97639647Y-61060353D01*
X97629294Y-59750000D02*
X97639647Y-59760353D01*
X97639647Y-59760353D02*
X97639647Y-59062248D01*
X97639647Y-59062248D02*
X98314622Y-58387273D01*
X96512500Y-59750000D02*
X97629294Y-59750000D01*
X103893687Y-60042273D02*
X103893687Y-60987273D01*
X98314622Y-58387273D02*
X102238687Y-58387273D01*
X97639647Y-61060353D02*
X97639647Y-59760353D01*
%TO.N,Net-(R5-Pad1)*%
X84312500Y-64350000D02*
X82550000Y-64350000D01*
X82550000Y-64350000D02*
X81575000Y-65325000D01*
X81575000Y-67487500D02*
X81450000Y-67612500D01*
X81575000Y-65325000D02*
X81575000Y-67487500D01*
%TO.N,/QSPI_SD1*%
X97939167Y-61210833D02*
X96800000Y-62350000D01*
X102623687Y-59672273D02*
X101638207Y-58686793D01*
X102623687Y-60987273D02*
X102623687Y-59672273D01*
X97939167Y-59186313D02*
X97939167Y-61210833D01*
X98438687Y-58686793D02*
X97939167Y-59186313D01*
X96800000Y-62350000D02*
X91187500Y-62350000D01*
X101638207Y-58686793D02*
X98438687Y-58686793D01*
%TO.N,/QSPI_SD2*%
X100687727Y-58986313D02*
X101353687Y-59652273D01*
X96850000Y-62750000D02*
X98238687Y-61361313D01*
X98238687Y-61361313D02*
X98238687Y-59310379D01*
X98562753Y-58986313D02*
X100687727Y-58986313D01*
X98238687Y-59310379D02*
X98562753Y-58986313D01*
X101353687Y-59652273D02*
X101353687Y-60987273D01*
X91187500Y-62750000D02*
X96850000Y-62750000D01*
%TO.N,/QSPI_SD0*%
X99888687Y-70688233D02*
X100083687Y-70493233D01*
X98350000Y-64652828D02*
X98350000Y-69801414D01*
X98350000Y-69801414D02*
X99236819Y-70688233D01*
X96847172Y-63150000D02*
X98350000Y-64652828D01*
X91187500Y-63150000D02*
X96847172Y-63150000D01*
X99236819Y-70688233D02*
X99888687Y-70688233D01*
X100083687Y-70493233D02*
X100083687Y-68187273D01*
%TO.N,/QSPI_SCLK*%
X96823586Y-63550000D02*
X91187500Y-63550000D01*
X99112753Y-70987753D02*
X98050480Y-69925480D01*
X101353687Y-70422273D02*
X100788207Y-70987753D01*
X98050480Y-69925480D02*
X98050480Y-64776894D01*
X100788207Y-70987753D02*
X99112753Y-70987753D01*
X101353687Y-68187273D02*
X101353687Y-70422273D01*
X98050480Y-64776894D02*
X96823586Y-63550000D01*
%TO.N,/QSPI_SD3*%
X96800000Y-63950000D02*
X97750960Y-64900960D01*
X97750960Y-70049546D02*
X98988687Y-71287273D01*
X91187500Y-63950000D02*
X96800000Y-63950000D01*
X97750960Y-64900960D02*
X97750960Y-70049546D01*
X98988687Y-71287273D02*
X101812500Y-71287273D01*
X101812500Y-71287273D02*
X102623687Y-70476086D01*
X102623687Y-70476086D02*
X102623687Y-68187273D01*
%TO.N,/PICO_USB__P*%
X94597500Y-72072500D02*
X98822500Y-72072500D01*
X91187500Y-65550000D02*
X92566625Y-65550000D01*
X103930000Y-76332500D02*
X103850000Y-76412500D01*
X94074520Y-67057896D02*
X94074520Y-71549520D01*
X98822500Y-72072500D02*
X100145000Y-73395000D01*
X92566625Y-65550000D02*
X94074520Y-67057896D01*
X100145000Y-73395000D02*
X103055000Y-73395000D01*
X94074520Y-71549520D02*
X94597500Y-72072500D01*
X103930000Y-74270000D02*
X103930000Y-76332500D01*
X103055000Y-73395000D02*
X103930000Y-74270000D01*
%TO.N,/PICO_USB__N*%
X93775000Y-70585000D02*
X93775000Y-70255000D01*
X93775000Y-71675000D02*
X93775000Y-71535000D01*
X93775000Y-67181961D02*
X92543039Y-65950000D01*
X96340000Y-72395000D02*
X94495000Y-72395000D01*
X96800000Y-72855000D02*
X96340000Y-72395000D01*
X93425000Y-71185000D02*
X93425000Y-70935000D01*
X94495000Y-72395000D02*
X93775000Y-71675000D01*
X92543039Y-65950000D02*
X91187500Y-65950000D01*
X93475000Y-69955000D02*
X93475000Y-69655000D01*
X96800000Y-76437500D02*
X96800000Y-72855000D01*
X93775000Y-69355000D02*
X93775000Y-67181961D01*
X93425000Y-71185000D02*
G75*
G03*
X93600000Y-71360000I174999J-1D01*
G01*
X93600000Y-71360000D02*
G75*
G02*
X93775000Y-71535000I1J-174999D01*
G01*
X93475000Y-69955000D02*
G75*
G03*
X93625000Y-70105000I150000J0D01*
G01*
X93775000Y-70585000D02*
G75*
G02*
X93600000Y-70760000I-174999J-1D01*
G01*
X93600000Y-70760000D02*
G75*
G03*
X93425000Y-70935000I-1J-174999D01*
G01*
X93775000Y-69355000D02*
G75*
G02*
X93625000Y-69505000I-150000J0D01*
G01*
X93625000Y-69505000D02*
G75*
G03*
X93475000Y-69655000I0J-150000D01*
G01*
X93625000Y-70105000D02*
G75*
G02*
X93775000Y-70255000I0J-150000D01*
G01*
%TO.N,/GPO_11*%
X85870000Y-87660000D02*
X91280000Y-87660000D01*
X87400000Y-69640000D02*
X87150000Y-69390000D01*
X87150000Y-69390000D02*
X87150000Y-67987500D01*
X85860000Y-87670000D02*
X85870000Y-87660000D01*
D57*
%TO.N,/EXT_IO4*%
X37405000Y-51905000D02*
X37405000Y-51390000D01*
X58700000Y-86147338D02*
X58719838Y-86127500D01*
X58700000Y-88300000D02*
X58700000Y-86147338D01*
X43923012Y-75698012D02*
X42900000Y-74675000D01*
X42900000Y-74675000D02*
X42900000Y-57400000D01*
X42900000Y-57400000D02*
X37405000Y-51905000D01*
X45300000Y-75698012D02*
X43923012Y-75698012D01*
%TO.N,/EXT_IO5*%
X57500000Y-86177662D02*
X57449838Y-86127500D01*
X43898509Y-74798509D02*
X43250000Y-74150000D01*
X57500000Y-88300000D02*
X57500000Y-86177662D01*
X45300000Y-74798509D02*
X43898509Y-74798509D01*
X37850000Y-49250000D02*
X35950000Y-49250000D01*
X33215000Y-46515000D02*
X33215000Y-45040000D01*
X39800000Y-53300000D02*
X39800000Y-51200000D01*
X43250000Y-56750000D02*
X39800000Y-53300000D01*
X39800000Y-51200000D02*
X37850000Y-49250000D01*
X35950000Y-49250000D02*
X33215000Y-46515000D01*
X43250000Y-74150000D02*
X43250000Y-56750000D01*
D58*
%TO.N,Net-(D301-Pad1)*%
X78927500Y-78930000D02*
X80687500Y-78930000D01*
%TO.N,Net-(D302-Pad1)*%
X79000000Y-75610000D02*
X80612500Y-75610000D01*
X80612500Y-75610000D02*
X80622500Y-75620000D01*
D57*
%TO.N,/LED_RED*%
X76850000Y-75610000D02*
X74965000Y-75610000D01*
X74965000Y-75610000D02*
X72689838Y-77885162D01*
X72689838Y-77885162D02*
X72689838Y-82527500D01*
D58*
%TO.N,Net-(D308-Pad1)*%
X80582500Y-77280000D02*
X80592500Y-77270000D01*
X79010000Y-77280000D02*
X80582500Y-77280000D01*
D57*
%TO.N,/WIFI_LED*%
X76860000Y-77280000D02*
X74740000Y-77280000D01*
X73959838Y-78060162D02*
X73959838Y-82527500D01*
X74740000Y-77280000D02*
X73959838Y-78060162D01*
D58*
%TO.N,/MODE_BTN*%
X55700000Y-78500000D02*
X58750000Y-78500000D01*
D57*
X65075000Y-88200000D02*
X65069838Y-88194838D01*
D58*
X53200000Y-83600000D02*
X53200000Y-81000000D01*
X51500000Y-84075000D02*
X52725000Y-84075000D01*
X53200000Y-81000000D02*
X55700000Y-78500000D01*
D57*
X65069838Y-88194838D02*
X65069838Y-86127500D01*
D58*
X52725000Y-84075000D02*
X53200000Y-83600000D01*
D57*
%TO.N,/PAUSE_BTN*%
X63824989Y-88220000D02*
X63799838Y-88194849D01*
D58*
X53905000Y-78595000D02*
X54750000Y-77750000D01*
X51500000Y-78595000D02*
X53905000Y-78595000D01*
D57*
X63799838Y-88194849D02*
X63799838Y-86127500D01*
D58*
X54750000Y-77750000D02*
X54750000Y-74250000D01*
D57*
%TO.N,/LED_GRN*%
X82222500Y-78940000D02*
X82020000Y-78940000D01*
X75229838Y-78660162D02*
X75229838Y-82527500D01*
X75780000Y-78110000D02*
X75229838Y-78660162D01*
X81190000Y-78110000D02*
X75780000Y-78110000D01*
X82020000Y-78940000D02*
X81190000Y-78110000D01*
%TO.N,/EXT_I2C_SDA*%
X71990000Y-66590000D02*
X73125000Y-67725000D01*
X38350000Y-48100000D02*
X41150000Y-48100000D01*
X73110000Y-71740000D02*
X73100000Y-71750000D01*
D56*
X87250000Y-58150000D02*
X87950000Y-58850000D01*
D57*
X37405000Y-47155000D02*
X38350000Y-48100000D01*
X41150000Y-48100000D02*
X43100000Y-50050000D01*
X43100000Y-55875000D02*
X43599520Y-56374520D01*
X44274006Y-73899006D02*
X45300000Y-73899006D01*
D56*
X87950000Y-58850000D02*
X87950000Y-61112500D01*
D57*
X43599520Y-73224520D02*
X44274006Y-73899006D01*
X73100000Y-71750000D02*
X73100000Y-76280000D01*
X73125000Y-67725000D02*
X73125000Y-71725000D01*
X43599520Y-56374520D02*
X43599520Y-73224520D01*
X73100000Y-76280000D02*
X71419838Y-77960162D01*
X43100000Y-50050000D02*
X43100000Y-55875000D01*
X71990000Y-64625500D02*
X71990000Y-66590000D01*
X73125000Y-71725000D02*
X73110000Y-71740000D01*
X71419838Y-77960162D02*
X71419838Y-82527500D01*
X37405000Y-45040000D02*
X37405000Y-47155000D01*
%TO.N,/EXT_I2C_SCL*%
X44524503Y-72999503D02*
X43949040Y-72424040D01*
X43949039Y-56229743D02*
X43625000Y-55905704D01*
D56*
X88110000Y-58150000D02*
X88350000Y-58390000D01*
D57*
X70149838Y-77930162D02*
X70149838Y-82527500D01*
X45300000Y-72999503D02*
X44524503Y-72999503D01*
X72175000Y-75905000D02*
X70149838Y-77930162D01*
D56*
X70870000Y-64625500D02*
X70870000Y-66895000D01*
D57*
X72175000Y-70815000D02*
X72175000Y-75905000D01*
X43625000Y-55905704D02*
X43625000Y-49125000D01*
D56*
X88350000Y-58390000D02*
X88350000Y-61112500D01*
X70870000Y-66895000D02*
X72180000Y-68205000D01*
D57*
X43625000Y-49125000D02*
X41595000Y-47095000D01*
D56*
X72180000Y-68205000D02*
X72180000Y-70810000D01*
D57*
X72180000Y-70810000D02*
X72175000Y-70815000D01*
X41595000Y-47095000D02*
X41595000Y-45040000D01*
X43949040Y-72424040D02*
X43949039Y-56229743D01*
D55*
%TO.N,/EXT_12V*%
X80830000Y-83450000D02*
X82040000Y-82240000D01*
D58*
X91782500Y-73827500D02*
X91782500Y-72775000D01*
X88260000Y-74940000D02*
X87165960Y-76034040D01*
D55*
X86175000Y-82075000D02*
X84835000Y-82075000D01*
D58*
X86265960Y-76034040D02*
X84840000Y-77460000D01*
D55*
X84835000Y-82075000D02*
X84830000Y-82070000D01*
D58*
X88720000Y-74860000D02*
X88650000Y-74930000D01*
X94500000Y-74340000D02*
X92295000Y-74340000D01*
D55*
X77625000Y-48875000D02*
X77650000Y-48875000D01*
D60*
X27700000Y-61807500D02*
X27732500Y-61840000D01*
D58*
X95767500Y-74467500D02*
X95767500Y-74985000D01*
D55*
X84830000Y-82070000D02*
X84830000Y-78280000D01*
D60*
X27700000Y-56450001D02*
X27700000Y-61807500D01*
D55*
X86010000Y-82240000D02*
X86175000Y-82075000D01*
D58*
X88720000Y-74030000D02*
X88720000Y-74860000D01*
D55*
X82040000Y-82240000D02*
X86010000Y-82240000D01*
D58*
X87165960Y-76034040D02*
X86265960Y-76034040D01*
X84840000Y-77460000D02*
X84840000Y-78270000D01*
D55*
X80830000Y-90570000D02*
X80830000Y-83450000D01*
D58*
X94500000Y-74340000D02*
X95640000Y-74340000D01*
X95640000Y-74340000D02*
X95767500Y-74467500D01*
X92295000Y-74340000D02*
X91782500Y-73827500D01*
D55*
X77625000Y-48875000D02*
X79300000Y-48875000D01*
D58*
X88660000Y-74940000D02*
X88260000Y-74940000D01*
D57*
%TO.N,/EXT_IO1*%
X60000000Y-88300000D02*
X60000000Y-86137662D01*
X60000000Y-86137662D02*
X59989838Y-86127500D01*
%TO.N,/EXT_IO2*%
X57420000Y-82497662D02*
X57449838Y-82527500D01*
X57420000Y-80330000D02*
X57420000Y-82497662D01*
D56*
%TO.N,/EXT_IO3*%
X83070000Y-63150000D02*
X82830000Y-62910000D01*
D57*
X65069838Y-78169838D02*
X65069838Y-82527500D01*
X55950000Y-67025500D02*
X55625000Y-66700500D01*
X64225000Y-66925000D02*
X64604511Y-66545489D01*
X63550000Y-67600000D02*
X63550000Y-76650000D01*
X64604511Y-66545489D02*
X64604511Y-61544511D01*
X63550000Y-76650000D02*
X65069838Y-78169838D01*
X64604511Y-61544511D02*
X64460000Y-61400000D01*
D56*
X84312500Y-63150000D02*
X83070000Y-63150000D01*
D57*
X55625000Y-66700500D02*
X55625000Y-61612500D01*
X64225000Y-66925000D02*
X63550000Y-67600000D01*
%TO.N,/EXT_SPI_MISO*%
X62529838Y-78500162D02*
X62529838Y-82527500D01*
X68300000Y-64350000D02*
X68300000Y-61430000D01*
X68300000Y-61430000D02*
X68270000Y-61400000D01*
D56*
X84312500Y-66750000D02*
X83420000Y-66750000D01*
D57*
X58200000Y-64775000D02*
X58225000Y-64750000D01*
X62530000Y-78500000D02*
X62529838Y-78500162D01*
X58200000Y-64775000D02*
X58025000Y-64950000D01*
X62150000Y-72150000D02*
X62150000Y-78120000D01*
X58025000Y-64950000D02*
X58025000Y-68025000D01*
X68150000Y-64500000D02*
X68300000Y-64350000D01*
D56*
X83420000Y-66750000D02*
X82820000Y-66150000D01*
D57*
X58025000Y-68025000D02*
X62150000Y-72150000D01*
X58225000Y-64750000D02*
X58225000Y-61612500D01*
X62150000Y-78120000D02*
X62530000Y-78500000D01*
%TO.N,/EXT_SPI_MOSI*%
X57075000Y-64775000D02*
X57075000Y-64075000D01*
D56*
X82950000Y-67550000D02*
X82830000Y-67670000D01*
X85282874Y-67330000D02*
X84922874Y-67330000D01*
X84702874Y-67550000D02*
X83330000Y-67550000D01*
X83330000Y-67550000D02*
X82950000Y-67550000D01*
X85550000Y-67987500D02*
X85550000Y-67597126D01*
D57*
X57350000Y-68350000D02*
X61250000Y-72250000D01*
D56*
X85550000Y-67597126D02*
X85282874Y-67330000D01*
D57*
X61250000Y-72250000D02*
X61250000Y-78500000D01*
D56*
X84922874Y-67330000D02*
X84702874Y-67550000D01*
D57*
X61250000Y-78500000D02*
X61259838Y-78509838D01*
X57075000Y-64075000D02*
X57575000Y-63575000D01*
X57075000Y-64775000D02*
X57075000Y-65500000D01*
X57075000Y-65500000D02*
X57350000Y-65775000D01*
X67030000Y-61430000D02*
X67000000Y-61400000D01*
X57350000Y-65775000D02*
X57350000Y-68350000D01*
X67030000Y-65540000D02*
X67030000Y-61430000D01*
X57575000Y-63575000D02*
X57575000Y-61612500D01*
X61259838Y-78509838D02*
X61259838Y-82527500D01*
D56*
%TO.N,/EXT_SPI_SCK*%
X82830000Y-68400000D02*
X83242500Y-67987500D01*
D57*
X56600000Y-66025000D02*
X56275000Y-65700000D01*
X56600000Y-66025000D02*
X56600000Y-68650000D01*
X65600000Y-61530000D02*
X65730000Y-61400000D01*
X59989838Y-78514838D02*
X59989838Y-82527500D01*
X60010000Y-72060000D02*
X60010000Y-78465000D01*
X56275000Y-65700000D02*
X56275000Y-61612500D01*
X65600000Y-66290000D02*
X65600000Y-61530000D01*
X60010000Y-78465000D02*
X59975000Y-78500000D01*
X56600000Y-68650000D02*
X60010000Y-72060000D01*
D56*
X83242500Y-67987500D02*
X85150000Y-67987500D01*
D57*
X59975000Y-78500000D02*
X59989838Y-78514838D01*
%TO.N,/EXT_SPI_SS0*%
X58719838Y-79570162D02*
X58719838Y-82527500D01*
X58770000Y-79520000D02*
X58719838Y-79570162D01*
%TO.N,/EXT_SPI_SS1*%
X69540000Y-63785000D02*
X69540000Y-62607170D01*
X69525000Y-63800000D02*
X69540000Y-63785000D01*
D56*
X69525000Y-65700000D02*
X69575000Y-65750000D01*
X83000000Y-67150000D02*
X82820000Y-66970000D01*
X84312500Y-67150000D02*
X83000000Y-67150000D01*
D57*
X63799838Y-78269838D02*
X63799838Y-82527500D01*
X62879520Y-77349520D02*
X63799838Y-78269838D01*
X58875000Y-64000000D02*
X58875000Y-61612500D01*
X58875000Y-68025000D02*
X62879520Y-72029520D01*
D56*
X69540000Y-61400000D02*
X69540000Y-62607170D01*
D57*
X58875000Y-64000000D02*
X58875000Y-68025000D01*
D56*
X69525000Y-63800000D02*
X69525000Y-65700000D01*
D57*
X62879520Y-72029520D02*
X62879520Y-77349520D01*
%TO.N,/5V_EN*%
X85950000Y-66910000D02*
X85950000Y-67987500D01*
D58*
X28790000Y-68444999D02*
X27344999Y-68444999D01*
D56*
X54925000Y-67875000D02*
X54925000Y-69425000D01*
D58*
X27344999Y-68444999D02*
X27300000Y-68400000D01*
D57*
X81500000Y-72200000D02*
X81580000Y-72280000D01*
X81580000Y-72280000D02*
X86470000Y-72280000D01*
X86360000Y-66500000D02*
X85950000Y-66910000D01*
%TO.N,/VBAT_SENSE*%
X87070000Y-72510000D02*
X87070000Y-72280000D01*
D56*
X88750000Y-67987500D02*
X88750000Y-67000000D01*
X88750000Y-67000000D02*
X88275000Y-66525000D01*
D57*
X82025000Y-72775000D02*
X86805000Y-72775000D01*
X86350000Y-67215000D02*
X87040000Y-66525000D01*
D56*
X88275000Y-66525000D02*
X87175000Y-66525000D01*
D57*
X86350000Y-67987500D02*
X86350000Y-67215000D01*
D56*
X54400000Y-67775000D02*
X53150000Y-69025000D01*
X54400000Y-65900000D02*
X54400000Y-67775000D01*
D57*
X82010000Y-72760000D02*
X82025000Y-72775000D01*
X87040000Y-66525000D02*
X87175000Y-66525000D01*
X86805000Y-72775000D02*
X87070000Y-72510000D01*
D56*
%TO.N,/GPO_10*%
X87900000Y-69300000D02*
X87550000Y-68950000D01*
X86300000Y-85740000D02*
X89950000Y-85740000D01*
X86290000Y-85750000D02*
X86300000Y-85740000D01*
X87550000Y-68950000D02*
X87550000Y-68127500D01*
%TO.N,/DRV_SLEEP*%
X93810000Y-88320000D02*
X93890000Y-88240000D01*
X88390000Y-69150000D02*
X88390000Y-70200000D01*
X87030000Y-88320000D02*
X93810000Y-88320000D01*
X87950000Y-67987500D02*
X87950000Y-68710000D01*
X87950000Y-68710000D02*
X88230000Y-68990000D01*
X88230000Y-68990000D02*
X88390000Y-69150000D01*
X88390000Y-70200000D02*
X88400000Y-70210000D01*
D55*
%TO.N,/MOTOR2_OUT2*%
X106110000Y-49340000D02*
X97130000Y-49340000D01*
X106650000Y-68490000D02*
X106650000Y-49880000D01*
X96595000Y-48805000D02*
X96595000Y-45040000D01*
X97130000Y-49340000D02*
X96595000Y-48805000D01*
X106650000Y-49880000D02*
X106110000Y-49340000D01*
D57*
%TO.N,Net-(C27-Pad1)*%
X94400000Y-85670000D02*
X94400000Y-85912500D01*
X94400000Y-85912500D02*
X95332500Y-86845000D01*
D58*
%TO.N,Net-(C29-Pad1)*%
X88720000Y-73230000D02*
X88720000Y-72971072D01*
X88916072Y-72775000D02*
X89707500Y-72775000D01*
X88720000Y-72971072D02*
X88916072Y-72775000D01*
D57*
%TO.N,/DRV_RESET*%
X93860000Y-83480000D02*
X94410000Y-84030000D01*
X94410000Y-84030000D02*
X94410000Y-84950000D01*
X92802500Y-83480000D02*
X93860000Y-83480000D01*
D58*
%TO.N,/CP1*%
X86510000Y-74670000D02*
X84687500Y-74670000D01*
X86720000Y-74230000D02*
X86720000Y-74460000D01*
X86720000Y-74460000D02*
X86510000Y-74670000D01*
X84687500Y-74670000D02*
X84505000Y-74487500D01*
%TO.N,/CP2*%
X86845480Y-75434520D02*
X84275480Y-75434520D01*
X84275480Y-75434520D02*
X83995000Y-75715000D01*
X87520000Y-74760000D02*
X86845480Y-75434520D01*
X87520000Y-74230000D02*
X87520000Y-74760000D01*
X83995000Y-75715000D02*
X83995000Y-76572500D01*
D56*
%TO.N,/EN4*%
X83575000Y-54925000D02*
X83575000Y-56925000D01*
X83575000Y-56925000D02*
X86350000Y-59700000D01*
D57*
X91860000Y-87030000D02*
X85150000Y-87030000D01*
D56*
X86350000Y-59700000D02*
X86350000Y-61112500D01*
D57*
%TO.N,/EN3*%
X82860000Y-85130000D02*
X82900000Y-85090000D01*
D56*
X81730000Y-54950000D02*
X81730000Y-56480000D01*
X85150000Y-59900000D02*
X85150000Y-61112500D01*
X81730000Y-56480000D02*
X85150000Y-59900000D01*
D57*
X82900000Y-85090000D02*
X90600000Y-85090000D01*
D56*
%TO.N,/EN2*%
X83597172Y-61950000D02*
X84312500Y-61950000D01*
X81150000Y-54970000D02*
X81150000Y-59502828D01*
X81150000Y-59502828D02*
X83597172Y-61950000D01*
X81130000Y-54950000D02*
X81150000Y-54970000D01*
X82350000Y-86410000D02*
X89300000Y-86410000D01*
%TO.N,/EN1*%
X81840000Y-83860000D02*
X87990000Y-83860000D01*
X83573586Y-62350000D02*
X84312500Y-62350000D01*
X80550000Y-59326414D02*
X83573586Y-62350000D01*
X87990000Y-83860000D02*
X88000000Y-83870000D01*
X80530000Y-54950000D02*
X80550000Y-54970000D01*
X80550000Y-54970000D02*
X80550000Y-59326414D01*
D57*
%TO.N,Net-(R10-Pad1)*%
X27600000Y-71400000D02*
X27200000Y-71000000D01*
X27485001Y-69714999D02*
X28790000Y-69714999D01*
X27200000Y-71000000D02*
X27200000Y-70000000D01*
X27200000Y-70000000D02*
X27485001Y-69714999D01*
X28827500Y-71400000D02*
X27600000Y-71400000D01*
D55*
%TO.N,+3V3*%
X46150000Y-63712500D02*
X46150000Y-62100000D01*
X72080000Y-62480000D02*
X72080000Y-61400000D01*
D58*
X90826324Y-59426324D02*
X91490240Y-59426324D01*
X93950000Y-59750000D02*
X93626324Y-59426324D01*
D55*
X39292500Y-76907500D02*
X39300000Y-76900000D01*
D56*
X86750000Y-67987500D02*
X86750000Y-67440000D01*
D58*
X39527500Y-80627500D02*
X40400000Y-81500000D01*
D55*
X61187500Y-64075000D02*
X60862500Y-63750000D01*
X50820000Y-65620000D02*
X50820000Y-67275000D01*
D56*
X86750000Y-59476414D02*
X85800000Y-58526414D01*
D58*
X85800000Y-57351414D02*
X85600000Y-57151414D01*
D56*
X83575000Y-70425000D02*
X85900000Y-70425000D01*
X90350000Y-66960000D02*
X90340000Y-66950000D01*
X86750000Y-61112500D02*
X86750000Y-59476414D01*
D58*
X90400000Y-58400000D02*
X90400000Y-59000000D01*
D55*
X60500000Y-60325000D02*
X60500000Y-62761477D01*
X39292500Y-78590000D02*
X39292500Y-76907500D01*
D56*
X95050000Y-65750000D02*
X94374040Y-66425960D01*
X87150000Y-67040000D02*
X87170000Y-67020000D01*
X86300000Y-70025000D02*
X86300000Y-69587500D01*
D58*
X93626324Y-59426324D02*
X91490240Y-59426324D01*
D55*
X46150000Y-64375000D02*
X46175000Y-64400000D01*
X60862500Y-63123977D02*
X60862500Y-63750000D01*
D58*
X94687500Y-59750000D02*
X93950000Y-59750000D01*
X76527338Y-82500000D02*
X76499838Y-82527500D01*
D56*
X90350000Y-61112500D02*
X90350000Y-60350960D01*
D58*
X77600000Y-79352500D02*
X77177500Y-78930000D01*
D55*
X72080000Y-59730000D02*
X71725000Y-59375000D01*
X46175000Y-64400000D02*
X49600000Y-64400000D01*
D56*
X90249520Y-60250480D02*
X90249520Y-59049520D01*
D58*
X39400000Y-86847500D02*
X39292500Y-86740000D01*
D56*
X86750000Y-67440000D02*
X87150000Y-67040000D01*
X83125000Y-69975000D02*
X83575000Y-70425000D01*
D58*
X90400000Y-59000000D02*
X90826324Y-59426324D01*
D55*
X60500000Y-62761477D02*
X60862500Y-63123977D01*
D56*
X87170000Y-67020000D02*
X87760000Y-67020000D01*
D55*
X71725000Y-59375000D02*
X61450000Y-59375000D01*
D57*
X92420000Y-85242500D02*
X92420000Y-87680000D01*
D56*
X95050000Y-65487500D02*
X95050000Y-65750000D01*
X94374040Y-66425960D02*
X94374040Y-68936540D01*
X90249520Y-59049520D02*
X90500000Y-59300000D01*
D55*
X75320000Y-63270000D02*
X72870000Y-63270000D01*
D56*
X85900000Y-70425000D02*
X86300000Y-70025000D01*
D55*
X46150000Y-63712500D02*
X46150000Y-64375000D01*
D58*
X39400000Y-87400000D02*
X39400000Y-86847500D01*
D56*
X85800000Y-58526414D02*
X85800000Y-57351414D01*
D55*
X49600000Y-64400000D02*
X50820000Y-65620000D01*
D58*
X104900000Y-70890000D02*
X103952500Y-70890000D01*
D57*
X82830000Y-65110000D02*
X83190000Y-64750000D01*
D55*
X72870000Y-63270000D02*
X72080000Y-62480000D01*
D56*
X90350000Y-60350960D02*
X90249520Y-60250480D01*
D58*
X103952500Y-70890000D02*
X103950000Y-70887500D01*
D57*
X83190000Y-64750000D02*
X84312500Y-64750000D01*
D58*
X77600000Y-82500000D02*
X76527338Y-82500000D01*
X95025000Y-69587500D02*
X95025000Y-68250000D01*
D56*
X83125000Y-69587500D02*
X83125000Y-69975000D01*
X90350000Y-67987500D02*
X90350000Y-66960000D01*
D58*
X39292500Y-80627500D02*
X39527500Y-80627500D01*
D56*
X90500000Y-59300000D02*
X90700000Y-59300000D01*
D58*
X77600000Y-82500000D02*
X77600000Y-79352500D01*
X103893687Y-68187273D02*
X103893687Y-70831187D01*
X40400000Y-81500000D02*
X40400000Y-86400000D01*
X85800000Y-57925000D02*
X85800000Y-57351414D01*
D55*
X61450000Y-59375000D02*
X60500000Y-60325000D01*
X72080000Y-61400000D02*
X72080000Y-59730000D01*
D56*
X94374040Y-68936540D02*
X95025000Y-69587500D01*
D55*
X61187500Y-65600000D02*
X61187500Y-64075000D01*
%TO.N,/WS2815B_VCC*%
X79300000Y-53887500D02*
X79575000Y-54162500D01*
X79300000Y-50175000D02*
X79300000Y-53887500D01*
X77775000Y-54225000D02*
X79512500Y-54225000D01*
X79512500Y-54225000D02*
X79575000Y-54162500D01*
%TO.N,/WS2815B_VDD*%
X76175000Y-48525000D02*
X76175000Y-54225000D01*
X77125000Y-47575000D02*
X76175000Y-48525000D01*
X79300000Y-47575000D02*
X77125000Y-47575000D01*
D60*
%TO.N,/VBAT*%
X29025000Y-51390000D02*
X31150001Y-53515001D01*
X31150001Y-53515001D02*
X31150001Y-56300000D01*
%TD*%
%TA.AperFunction,Conductor*%
%TO.N,+3V3*%
G36*
X41842121Y-73120002D02*
G01*
X41888614Y-73173658D01*
X41900000Y-73226000D01*
X41900000Y-77474000D01*
X41879998Y-77542121D01*
X41826342Y-77588614D01*
X41774000Y-77600000D01*
X40200000Y-77600000D01*
X40200000Y-81374000D01*
X40179998Y-81442121D01*
X40126342Y-81488614D01*
X40074000Y-81500000D01*
X38726000Y-81500000D01*
X38657879Y-81479998D01*
X38611386Y-81426342D01*
X38600000Y-81374000D01*
X38600000Y-77600000D01*
X32126000Y-77600000D01*
X32057879Y-77579998D01*
X32011386Y-77526342D01*
X32000000Y-77474000D01*
X32000000Y-73226000D01*
X32020002Y-73157879D01*
X32073658Y-73111386D01*
X32126000Y-73100000D01*
X41774000Y-73100000D01*
X41842121Y-73120002D01*
G37*
%TD.AperFunction*%
%TD*%
%TA.AperFunction,Conductor*%
%TO.N,/EXT_12V*%
G36*
X28461931Y-55320002D02*
G01*
X28482905Y-55336905D01*
X28663095Y-55517095D01*
X28697121Y-55579407D01*
X28700000Y-55606190D01*
X28700000Y-62593810D01*
X28679998Y-62661931D01*
X28663095Y-62682905D01*
X28482905Y-62863095D01*
X28420593Y-62897121D01*
X28393810Y-62900000D01*
X28212500Y-62900000D01*
X28170752Y-62892883D01*
X28162616Y-62890026D01*
X28155369Y-62887481D01*
X28147723Y-62886758D01*
X28147722Y-62886758D01*
X28141752Y-62886194D01*
X28123834Y-62884500D01*
X27341166Y-62884500D01*
X27323248Y-62886194D01*
X27317278Y-62886758D01*
X27317277Y-62886758D01*
X27309631Y-62887481D01*
X27302384Y-62890026D01*
X27294248Y-62892883D01*
X27252500Y-62900000D01*
X26700000Y-62900000D01*
X26700000Y-66700000D01*
X29593810Y-66700000D01*
X29661931Y-66720002D01*
X29682905Y-66736905D01*
X29863095Y-66917095D01*
X29897121Y-66979407D01*
X29900000Y-67006190D01*
X29900000Y-67393810D01*
X29879998Y-67461931D01*
X29863095Y-67482905D01*
X29682905Y-67663095D01*
X29620593Y-67697121D01*
X29593810Y-67700000D01*
X26700000Y-67700000D01*
X26700000Y-68348583D01*
X26698922Y-68365029D01*
X26694318Y-68400000D01*
X26695396Y-68408188D01*
X26698922Y-68434971D01*
X26700000Y-68451417D01*
X26700000Y-72700000D01*
X29493810Y-72700000D01*
X29561931Y-72720002D01*
X29582905Y-72736905D01*
X29763095Y-72917095D01*
X29797121Y-72979407D01*
X29800000Y-73006190D01*
X29800000Y-77693810D01*
X29779998Y-77761931D01*
X29763095Y-77782905D01*
X29582905Y-77963095D01*
X29520593Y-77997121D01*
X29493810Y-78000000D01*
X26700000Y-78000000D01*
X26700000Y-82200000D01*
X29493810Y-82200000D01*
X29561931Y-82220002D01*
X29582905Y-82236905D01*
X29763095Y-82417095D01*
X29797121Y-82479407D01*
X29800000Y-82506190D01*
X29800000Y-84193810D01*
X29779998Y-84261931D01*
X29763095Y-84282905D01*
X29582905Y-84463095D01*
X29520593Y-84497121D01*
X29493810Y-84500000D01*
X26700000Y-84500000D01*
X26700000Y-90100000D01*
X53712550Y-90100000D01*
X53780671Y-90120002D01*
X53827164Y-90173658D01*
X53838162Y-90216119D01*
X53839672Y-90235316D01*
X53841467Y-90241493D01*
X53841468Y-90241499D01*
X53847315Y-90261623D01*
X53885086Y-90391633D01*
X53889123Y-90398459D01*
X53963910Y-90524918D01*
X53963912Y-90524921D01*
X53967948Y-90531745D01*
X54083052Y-90646849D01*
X54089876Y-90650885D01*
X54089879Y-90650887D01*
X54193548Y-90712196D01*
X54223164Y-90729711D01*
X54230775Y-90731922D01*
X54230777Y-90731923D01*
X54281099Y-90746542D01*
X54379481Y-90775125D01*
X54401438Y-90776853D01*
X54413542Y-90777806D01*
X54413551Y-90777806D01*
X54415999Y-90777999D01*
X54924426Y-90777999D01*
X55433676Y-90777998D01*
X55456242Y-90776223D01*
X55463777Y-90775630D01*
X55463778Y-90775630D01*
X55470195Y-90775125D01*
X55476375Y-90773330D01*
X55476378Y-90773329D01*
X55618899Y-90731923D01*
X55618901Y-90731922D01*
X55626512Y-90729711D01*
X55656128Y-90712196D01*
X55759797Y-90650887D01*
X55759800Y-90650885D01*
X55766624Y-90646849D01*
X55881728Y-90531745D01*
X55885764Y-90524921D01*
X55885766Y-90524918D01*
X55960553Y-90398459D01*
X55964590Y-90391633D01*
X56010004Y-90235316D01*
X56010510Y-90228898D01*
X56011515Y-90216116D01*
X56036800Y-90149774D01*
X56093937Y-90107633D01*
X56137127Y-90100000D01*
X77923259Y-90100000D01*
X77991380Y-90120002D01*
X78037873Y-90173658D01*
X78048378Y-90221948D01*
X78049162Y-90221917D01*
X78049259Y-90224385D01*
X78049259Y-90226860D01*
X78051994Y-90261623D01*
X78053790Y-90267806D01*
X78053791Y-90267810D01*
X78091748Y-90398459D01*
X78095206Y-90410362D01*
X78134629Y-90477022D01*
X78170014Y-90536856D01*
X78170016Y-90536859D01*
X78174052Y-90543683D01*
X78283575Y-90653206D01*
X78290399Y-90657242D01*
X78290402Y-90657244D01*
X78350236Y-90692629D01*
X78416896Y-90732052D01*
X78424509Y-90734264D01*
X78424512Y-90734265D01*
X78559455Y-90773469D01*
X78559459Y-90773470D01*
X78565635Y-90775264D01*
X78572046Y-90775769D01*
X78572048Y-90775769D01*
X78597941Y-90777807D01*
X78597949Y-90777807D01*
X78600397Y-90778000D01*
X79074549Y-90778000D01*
X79549278Y-90777999D01*
X79584041Y-90775264D01*
X79590224Y-90773468D01*
X79590228Y-90773467D01*
X79725164Y-90734265D01*
X79725167Y-90734264D01*
X79732780Y-90732052D01*
X79799440Y-90692629D01*
X79859274Y-90657244D01*
X79859277Y-90657242D01*
X79866101Y-90653206D01*
X79975624Y-90543683D01*
X79979660Y-90536859D01*
X79979662Y-90536856D01*
X80015047Y-90477023D01*
X80054470Y-90410362D01*
X80057928Y-90398459D01*
X80095887Y-90267803D01*
X80095888Y-90267799D01*
X80097682Y-90261623D01*
X80098187Y-90255210D01*
X80100225Y-90229317D01*
X80100225Y-90229309D01*
X80100418Y-90226861D01*
X80100418Y-90224394D01*
X80100515Y-90221920D01*
X80101603Y-90221963D01*
X80120420Y-90157879D01*
X80174076Y-90111386D01*
X80226418Y-90100000D01*
X80993810Y-90100000D01*
X81061931Y-90120002D01*
X81082905Y-90136905D01*
X81263095Y-90317095D01*
X81297121Y-90379407D01*
X81300000Y-90406190D01*
X81300000Y-91874000D01*
X81279998Y-91942121D01*
X81226342Y-91988614D01*
X81174000Y-92000000D01*
X79147778Y-92000000D01*
X79091429Y-91986698D01*
X78286057Y-91584012D01*
X78281206Y-91581219D01*
X78277334Y-91577799D01*
X78217996Y-91549939D01*
X78215293Y-91548629D01*
X78204800Y-91543383D01*
X78195497Y-91538731D01*
X78195492Y-91538729D01*
X78191492Y-91536729D01*
X78187245Y-91535315D01*
X78186599Y-91535048D01*
X78181242Y-91532683D01*
X78155818Y-91520746D01*
X78155814Y-91520745D01*
X78147689Y-91516930D01*
X78128685Y-91513971D01*
X78108266Y-91509019D01*
X78098532Y-91505778D01*
X78090017Y-91502943D01*
X78055258Y-91501659D01*
X78048623Y-91501022D01*
X78048615Y-91501125D01*
X78043767Y-91500750D01*
X78038953Y-91500000D01*
X78012653Y-91500000D01*
X78008003Y-91499914D01*
X77955866Y-91497988D01*
X77955863Y-91497988D01*
X77946892Y-91497657D01*
X77939578Y-91499506D01*
X77930194Y-91500000D01*
X55570123Y-91500000D01*
X55558256Y-91498674D01*
X55558215Y-91499186D01*
X55549267Y-91498466D01*
X55540512Y-91496485D01*
X55487757Y-91499758D01*
X55479957Y-91500000D01*
X55464095Y-91500000D01*
X55459647Y-91500637D01*
X55459645Y-91500637D01*
X55453991Y-91501446D01*
X55443940Y-91502476D01*
X55418686Y-91504043D01*
X55397564Y-91505354D01*
X55389117Y-91508404D01*
X55385344Y-91509185D01*
X55370779Y-91512816D01*
X55367106Y-91513890D01*
X55358223Y-91515162D01*
X55315921Y-91534396D01*
X55306554Y-91538209D01*
X55262850Y-91553986D01*
X55255598Y-91559284D01*
X55252220Y-91561080D01*
X55239219Y-91568677D01*
X55236012Y-91570728D01*
X55227844Y-91574442D01*
X55221046Y-91580299D01*
X55221045Y-91580300D01*
X55192631Y-91604783D01*
X55184713Y-91611069D01*
X55177934Y-91616022D01*
X55173991Y-91618903D01*
X55163270Y-91629624D01*
X55156422Y-91635982D01*
X55126146Y-91662069D01*
X55126142Y-91662074D01*
X55119343Y-91667932D01*
X55114461Y-91675465D01*
X55108560Y-91682229D01*
X55108554Y-91682224D01*
X55099586Y-91693308D01*
X54830318Y-91962576D01*
X54768006Y-91996602D01*
X54740971Y-91999481D01*
X25049075Y-91940096D01*
X25029943Y-91938596D01*
X25015045Y-91936276D01*
X25015040Y-91936276D01*
X25006171Y-91934895D01*
X24997267Y-91936059D01*
X24995611Y-91936039D01*
X24967113Y-91936293D01*
X24902845Y-91929052D01*
X24875337Y-91922773D01*
X24796460Y-91895173D01*
X24771039Y-91882931D01*
X24700275Y-91838467D01*
X24678216Y-91820875D01*
X24619125Y-91761784D01*
X24601533Y-91739725D01*
X24557069Y-91668961D01*
X24544827Y-91643540D01*
X24517227Y-91564663D01*
X24510948Y-91537157D01*
X24507093Y-91502943D01*
X24504404Y-91479078D01*
X24503621Y-91463435D01*
X24503723Y-91455045D01*
X24505105Y-91446171D01*
X24501065Y-91415275D01*
X24500001Y-91398938D01*
X24500001Y-73427785D01*
X24500000Y-55425999D01*
X24520002Y-55357879D01*
X24573658Y-55311386D01*
X24626000Y-55300000D01*
X28393810Y-55300000D01*
X28461931Y-55320002D01*
G37*
%TD.AperFunction*%
%TD*%
%TA.AperFunction,Conductor*%
%TO.N,+5V*%
G36*
X34242121Y-50220002D02*
G01*
X34288614Y-50273658D01*
X34300000Y-50326000D01*
X34300000Y-57900000D01*
X37474000Y-57900000D01*
X37542121Y-57920002D01*
X37588614Y-57973658D01*
X37600000Y-58026000D01*
X37600000Y-59800000D01*
X39174000Y-59800000D01*
X39242121Y-59820002D01*
X39288614Y-59873658D01*
X39300000Y-59926000D01*
X39300000Y-65974000D01*
X39279998Y-66042121D01*
X39226342Y-66088614D01*
X39174000Y-66100000D01*
X37826000Y-66100000D01*
X37757879Y-66079998D01*
X37711386Y-66026342D01*
X37700000Y-65974000D01*
X37700000Y-62600000D01*
X31026000Y-62600000D01*
X30957879Y-62579998D01*
X30911386Y-62526342D01*
X30900000Y-62474000D01*
X30900000Y-58026000D01*
X30920002Y-57957879D01*
X30973658Y-57911386D01*
X31026000Y-57900000D01*
X32300000Y-57900000D01*
X32300000Y-56664135D01*
X32305668Y-56626771D01*
X32327583Y-56556194D01*
X32327586Y-56556182D01*
X32329298Y-56550667D01*
X32340953Y-56452198D01*
X32350065Y-56375211D01*
X32350065Y-56375205D01*
X32350501Y-56371524D01*
X32350501Y-53559725D01*
X32350771Y-53551484D01*
X32354853Y-53489207D01*
X32355231Y-53483441D01*
X32344299Y-53391074D01*
X32343958Y-53387825D01*
X32335455Y-53295290D01*
X32333849Y-53289595D01*
X32329993Y-53270212D01*
X32329976Y-53270072D01*
X32329297Y-53264334D01*
X32305667Y-53188231D01*
X32300000Y-53150868D01*
X32300000Y-50326000D01*
X32320002Y-50257879D01*
X32373658Y-50211386D01*
X32426000Y-50200000D01*
X34174000Y-50200000D01*
X34242121Y-50220002D01*
G37*
%TD.AperFunction*%
%TD*%
%TA.AperFunction,Conductor*%
%TO.N,GND*%
G36*
X32542121Y-65120002D02*
G01*
X32588614Y-65173658D01*
X32600000Y-65226000D01*
X32600000Y-65572093D01*
X32587200Y-65627426D01*
X32574464Y-65653481D01*
X32564500Y-65721781D01*
X32564500Y-66088217D01*
X32574642Y-66157111D01*
X32578958Y-66165901D01*
X32587103Y-66182491D01*
X32600000Y-66238022D01*
X32600000Y-66700000D01*
X37174000Y-66700000D01*
X37242121Y-66720002D01*
X37288614Y-66773658D01*
X37300000Y-66826000D01*
X37300000Y-67674000D01*
X37279998Y-67742121D01*
X37226342Y-67788614D01*
X37174000Y-67800000D01*
X32600000Y-67800000D01*
X32600000Y-68112093D01*
X32587200Y-68167426D01*
X32574464Y-68193481D01*
X32564500Y-68261781D01*
X32564500Y-68628217D01*
X32574642Y-68697111D01*
X32578958Y-68705901D01*
X32587103Y-68722491D01*
X32600000Y-68778022D01*
X32600000Y-69382093D01*
X32587200Y-69437426D01*
X32574464Y-69463481D01*
X32564500Y-69531781D01*
X32564500Y-69898217D01*
X32574642Y-69967111D01*
X32578958Y-69975901D01*
X32587103Y-69992491D01*
X32600000Y-70048022D01*
X32600000Y-72774000D01*
X32579998Y-72842121D01*
X32526342Y-72888614D01*
X32474000Y-72900000D01*
X32126000Y-72900000D01*
X32122654Y-72900360D01*
X32122648Y-72900360D01*
X32108564Y-72901874D01*
X32083488Y-72904570D01*
X32031146Y-72915956D01*
X32021238Y-72918378D01*
X31942686Y-72960236D01*
X31889030Y-73006729D01*
X31871555Y-73023851D01*
X31828103Y-73101533D01*
X31808101Y-73169654D01*
X31800000Y-73226000D01*
X31800000Y-77474000D01*
X31804570Y-77516512D01*
X31815956Y-77568854D01*
X31818378Y-77578762D01*
X31860236Y-77657314D01*
X31906729Y-77710970D01*
X31923851Y-77728445D01*
X31931711Y-77732842D01*
X31931713Y-77732843D01*
X31987476Y-77764034D01*
X32037164Y-77814746D01*
X32051547Y-77884270D01*
X32026059Y-77950534D01*
X31968792Y-77992499D01*
X31925966Y-78000000D01*
X30126000Y-78000000D01*
X30057879Y-77979998D01*
X30011386Y-77926342D01*
X30000000Y-77874000D01*
X30000000Y-67676207D01*
X30020002Y-67608086D01*
X30027888Y-67597151D01*
X30035722Y-67587430D01*
X30071897Y-67518277D01*
X30091899Y-67450156D01*
X30100000Y-67393810D01*
X30100000Y-67006190D01*
X30098854Y-66984814D01*
X30095975Y-66958031D01*
X30072656Y-66883555D01*
X30041228Y-66826000D01*
X30040788Y-66825194D01*
X30040785Y-66825189D01*
X30038630Y-66821243D01*
X30035935Y-66817643D01*
X30035926Y-66817629D01*
X30025134Y-66803214D01*
X30000321Y-66736695D01*
X30000000Y-66727703D01*
X30000000Y-65226000D01*
X30020002Y-65157879D01*
X30073658Y-65111386D01*
X30126000Y-65100000D01*
X32474000Y-65100000D01*
X32542121Y-65120002D01*
G37*
%TD.AperFunction*%
%TD*%
%TA.AperFunction,Conductor*%
%TO.N,GND*%
G36*
X95841403Y-76620002D02*
G01*
X95887896Y-76673658D01*
X95899280Y-76726716D01*
X95886639Y-78951559D01*
X95866250Y-79019565D01*
X95849736Y-79039938D01*
X95413785Y-79475889D01*
X95405681Y-79483316D01*
X95376806Y-79507545D01*
X95371293Y-79517094D01*
X95357961Y-79540185D01*
X95352055Y-79549456D01*
X95330446Y-79580316D01*
X95327592Y-79590966D01*
X95326115Y-79594134D01*
X95324923Y-79597410D01*
X95319412Y-79606955D01*
X95313462Y-79640699D01*
X95312870Y-79644058D01*
X95310492Y-79654785D01*
X95300736Y-79691193D01*
X95301697Y-79702178D01*
X95301697Y-79702180D01*
X95304020Y-79728728D01*
X95304500Y-79739710D01*
X95304500Y-79994000D01*
X95284498Y-80062121D01*
X95230842Y-80108614D01*
X95178500Y-80120000D01*
X92990000Y-80120000D01*
X92990000Y-82703500D01*
X92969998Y-82771621D01*
X92916342Y-82818114D01*
X92864000Y-82829500D01*
X92485564Y-82829501D01*
X92290168Y-82829501D01*
X92287218Y-82829780D01*
X92287213Y-82829780D01*
X92267150Y-82831676D01*
X92267149Y-82831676D01*
X92259500Y-82832399D01*
X92252252Y-82834944D01*
X92252249Y-82834945D01*
X92144121Y-82872917D01*
X92144119Y-82872918D01*
X92135232Y-82876039D01*
X92127657Y-82881634D01*
X92127655Y-82881635D01*
X92071007Y-82923476D01*
X92029289Y-82954289D01*
X91951039Y-83060232D01*
X91947918Y-83069119D01*
X91947917Y-83069121D01*
X91910144Y-83176682D01*
X91907399Y-83184500D01*
X91904500Y-83215167D01*
X91904500Y-83434001D01*
X91884499Y-83502120D01*
X91830844Y-83548613D01*
X91778501Y-83560000D01*
X89186366Y-83560000D01*
X89118245Y-83539998D01*
X89071752Y-83486342D01*
X89060367Y-83433633D01*
X89060649Y-83336813D01*
X89062199Y-83317470D01*
X89079253Y-83209794D01*
X89079253Y-83209793D01*
X89080804Y-83200000D01*
X89062982Y-83087475D01*
X89061432Y-83067400D01*
X89069947Y-80138116D01*
X89070000Y-80120000D01*
X86076000Y-80120000D01*
X86007879Y-80099998D01*
X85961386Y-80046342D01*
X85950000Y-79994000D01*
X85950000Y-77039293D01*
X85970002Y-76971172D01*
X85986905Y-76950198D01*
X86300198Y-76636905D01*
X86362510Y-76602879D01*
X86389293Y-76600000D01*
X95773282Y-76600000D01*
X95841403Y-76620002D01*
G37*
%TD.AperFunction*%
%TD*%
%TA.AperFunction,Conductor*%
%TO.N,GND*%
G36*
X41842121Y-58520002D02*
G01*
X41888614Y-58573658D01*
X41900000Y-58626000D01*
X41900000Y-68050000D01*
X42448500Y-68050000D01*
X42516621Y-68070002D01*
X42563114Y-68123658D01*
X42574500Y-68176000D01*
X42574500Y-69897019D01*
X42554498Y-69965140D01*
X42500842Y-70011633D01*
X42447268Y-70023012D01*
X40752609Y-70006398D01*
X40224765Y-70001223D01*
X40156843Y-69980554D01*
X40110879Y-69926445D01*
X40100000Y-69875229D01*
X40100000Y-58626000D01*
X40120002Y-58557879D01*
X40173658Y-58511386D01*
X40226000Y-58500000D01*
X41774000Y-58500000D01*
X41842121Y-58520002D01*
G37*
%TD.AperFunction*%
%TD*%
%TA.AperFunction,Conductor*%
%TO.N,+3V3*%
G36*
X40442121Y-86120002D02*
G01*
X40488614Y-86173658D01*
X40500000Y-86226000D01*
X40500000Y-87674000D01*
X40479998Y-87742121D01*
X40426342Y-87788614D01*
X40374000Y-87800000D01*
X37026000Y-87800000D01*
X36957879Y-87779998D01*
X36911386Y-87726342D01*
X36900000Y-87674000D01*
X36900000Y-86226000D01*
X36920002Y-86157879D01*
X36973658Y-86111386D01*
X37026000Y-86100000D01*
X40374000Y-86100000D01*
X40442121Y-86120002D01*
G37*
%TD.AperFunction*%
%TD*%
%TA.AperFunction,Conductor*%
%TO.N,GND*%
G36*
X44742121Y-77420002D02*
G01*
X44788614Y-77473658D01*
X44800000Y-77526000D01*
X44800000Y-89774000D01*
X44779998Y-89842121D01*
X44726342Y-89888614D01*
X44674000Y-89900000D01*
X32200000Y-89900000D01*
X32200000Y-88800000D01*
X42200000Y-88800000D01*
X42200000Y-85600000D01*
X40976500Y-85600000D01*
X40908379Y-85579998D01*
X40861886Y-85526342D01*
X40850500Y-85474000D01*
X40850500Y-81534219D01*
X40851373Y-81519410D01*
X40854257Y-81495041D01*
X40855364Y-81485689D01*
X40853672Y-81476426D01*
X40853672Y-81476419D01*
X40844825Y-81427982D01*
X40844174Y-81424075D01*
X40836850Y-81375356D01*
X40836850Y-81375355D01*
X40835449Y-81366038D01*
X40832321Y-81359525D01*
X40831025Y-81352427D01*
X40803972Y-81300347D01*
X40802223Y-81296845D01*
X40780887Y-81252413D01*
X40780886Y-81252412D01*
X40776809Y-81243921D01*
X40771923Y-81238636D01*
X40771892Y-81238589D01*
X40768579Y-81232211D01*
X40764275Y-81227172D01*
X40727048Y-81189945D01*
X40723618Y-81186379D01*
X40691246Y-81151359D01*
X40684854Y-81144444D01*
X40678495Y-81140751D01*
X40672337Y-81135234D01*
X40636905Y-81099802D01*
X40602879Y-81037490D01*
X40600000Y-81010707D01*
X40600000Y-77926000D01*
X40620002Y-77857879D01*
X40673658Y-77811386D01*
X40726000Y-77800000D01*
X41774000Y-77800000D01*
X41777346Y-77799640D01*
X41777352Y-77799640D01*
X41791436Y-77798126D01*
X41816512Y-77795430D01*
X41868854Y-77784044D01*
X41878762Y-77781622D01*
X41957314Y-77739764D01*
X41967689Y-77730774D01*
X42032270Y-77701282D01*
X42050200Y-77700000D01*
X42100000Y-77700000D01*
X42100000Y-77526000D01*
X42120002Y-77457879D01*
X42173658Y-77411386D01*
X42226000Y-77400000D01*
X44674000Y-77400000D01*
X44742121Y-77420002D01*
G37*
%TD.AperFunction*%
%TD*%
%TA.AperFunction,Conductor*%
%TO.N,/EXT_12V*%
G36*
X62917121Y-84545002D02*
G01*
X62963614Y-84598658D01*
X62975000Y-84651000D01*
X62975000Y-89900000D01*
X63174000Y-89900000D01*
X63242121Y-89920002D01*
X63288614Y-89973658D01*
X63300000Y-90026000D01*
X63300000Y-90100000D01*
X59552703Y-90100000D01*
X59551726Y-90027706D01*
X59570805Y-89959321D01*
X59623828Y-89912107D01*
X59677717Y-89900003D01*
X60689202Y-89900024D01*
X60707319Y-89900024D01*
X60724587Y-84650586D01*
X60744813Y-84582531D01*
X60798621Y-84536215D01*
X60850586Y-84525000D01*
X62849000Y-84525000D01*
X62917121Y-84545002D01*
G37*
%TD.AperFunction*%
%TD*%
%TA.AperFunction,Conductor*%
%TO.N,Net-(C35-Pad2)*%
G36*
X38342121Y-78220002D02*
G01*
X38388614Y-78273658D01*
X38400000Y-78326000D01*
X38400000Y-81774000D01*
X38379998Y-81842121D01*
X38326342Y-81888614D01*
X38274000Y-81900000D01*
X37851417Y-81900000D01*
X37834971Y-81898922D01*
X37808188Y-81895396D01*
X37800000Y-81894318D01*
X37791812Y-81895396D01*
X37765029Y-81898922D01*
X37748583Y-81900000D01*
X32726000Y-81900000D01*
X32657879Y-81879998D01*
X32611386Y-81826342D01*
X32600000Y-81774000D01*
X32600000Y-80900000D01*
X30126000Y-80900000D01*
X30057879Y-80879998D01*
X30011386Y-80826342D01*
X30000000Y-80774000D01*
X30000000Y-78326000D01*
X30020002Y-78257879D01*
X30073658Y-78211386D01*
X30126000Y-78200000D01*
X38274000Y-78200000D01*
X38342121Y-78220002D01*
G37*
%TD.AperFunction*%
%TD*%
%TA.AperFunction,Conductor*%
%TO.N,+5V*%
G36*
X36884498Y-70411052D02*
G01*
X36885232Y-70408961D01*
X37002252Y-70450056D01*
X37002254Y-70450057D01*
X37009500Y-70452601D01*
X37017144Y-70453324D01*
X37017146Y-70453324D01*
X37025121Y-70454078D01*
X37040167Y-70455500D01*
X37342347Y-70455500D01*
X37644832Y-70455499D01*
X37647782Y-70455220D01*
X37647787Y-70455220D01*
X37667850Y-70453324D01*
X37667851Y-70453324D01*
X37675500Y-70452601D01*
X37682748Y-70450056D01*
X37682751Y-70450055D01*
X37799768Y-70408961D01*
X37800502Y-70411052D01*
X37844998Y-70400000D01*
X39674000Y-70400000D01*
X39742121Y-70420002D01*
X39788614Y-70473658D01*
X39800000Y-70526000D01*
X39800000Y-71874000D01*
X39779998Y-71942121D01*
X39726342Y-71988614D01*
X39674000Y-72000000D01*
X36826000Y-72000000D01*
X36757879Y-71979998D01*
X36711386Y-71926342D01*
X36700000Y-71874000D01*
X36700000Y-70526000D01*
X36720002Y-70457879D01*
X36773658Y-70411386D01*
X36826000Y-70400000D01*
X36840002Y-70400000D01*
X36884498Y-70411052D01*
G37*
%TD.AperFunction*%
%TD*%
%TA.AperFunction,Conductor*%
%TO.N,+5V*%
G36*
X76917121Y-84545002D02*
G01*
X76963614Y-84598658D01*
X76975000Y-84651000D01*
X76975000Y-89774000D01*
X76954998Y-89842121D01*
X76901342Y-89888614D01*
X76849000Y-89900000D01*
X74862473Y-89900000D01*
X74794352Y-89879998D01*
X74747859Y-89826342D01*
X74736473Y-89773675D01*
X74749676Y-84650675D01*
X74769854Y-84582606D01*
X74823629Y-84536252D01*
X74875676Y-84525000D01*
X76849000Y-84525000D01*
X76917121Y-84545002D01*
G37*
%TD.AperFunction*%
%TD*%
%TA.AperFunction,Conductor*%
%TO.N,Net-(C33-Pad1)*%
G36*
X39891621Y-83820002D02*
G01*
X39938114Y-83873658D01*
X39949500Y-83926000D01*
X39949500Y-85674000D01*
X39929498Y-85742121D01*
X39875842Y-85788614D01*
X39823500Y-85800000D01*
X37026000Y-85800000D01*
X36957879Y-85779998D01*
X36911386Y-85726342D01*
X36900000Y-85674000D01*
X36900000Y-83926000D01*
X36920002Y-83857879D01*
X36973658Y-83811386D01*
X37026000Y-83800000D01*
X39823500Y-83800000D01*
X39891621Y-83820002D01*
G37*
%TD.AperFunction*%
%TD*%
%TA.AperFunction,Conductor*%
%TO.N,GND*%
G36*
X67156013Y-70851766D02*
G01*
X67491754Y-70886499D01*
X67505629Y-70888722D01*
X67835420Y-70960627D01*
X67848960Y-70964381D01*
X67881186Y-70975285D01*
X68168692Y-71072566D01*
X68181732Y-71077806D01*
X68487417Y-71220917D01*
X68499793Y-71227576D01*
X68787653Y-71403847D01*
X68799201Y-71411837D01*
X69065647Y-71619071D01*
X69076232Y-71628297D01*
X69317933Y-71863905D01*
X69327433Y-71874260D01*
X69541388Y-72135312D01*
X69549677Y-72146661D01*
X69733237Y-72429927D01*
X69740210Y-72442129D01*
X69891083Y-72744072D01*
X69896653Y-72756974D01*
X70012960Y-73073832D01*
X70017053Y-73087251D01*
X70097360Y-73415124D01*
X70099934Y-73428928D01*
X70143225Y-73763670D01*
X70144248Y-73777681D01*
X70147459Y-73966332D01*
X70149992Y-74115179D01*
X70149447Y-74129222D01*
X70118229Y-74458333D01*
X70117573Y-74465245D01*
X70115469Y-74479133D01*
X70046371Y-74809531D01*
X70042733Y-74823099D01*
X70020906Y-74889462D01*
X69937276Y-75143734D01*
X69932150Y-75156813D01*
X69902378Y-75221841D01*
X69791637Y-75463720D01*
X69785083Y-75476152D01*
X69611273Y-75765494D01*
X69603378Y-75777116D01*
X69397896Y-76045998D01*
X69389959Y-76055395D01*
X69274263Y-76179502D01*
X69277141Y-77070778D01*
X69299592Y-84023593D01*
X69279810Y-84091778D01*
X69226305Y-84138444D01*
X69173593Y-84150000D01*
X66026221Y-84150000D01*
X65958100Y-84129998D01*
X65911607Y-84076342D01*
X65900221Y-84023779D01*
X65912400Y-77070778D01*
X65912432Y-77052662D01*
X65752435Y-76988826D01*
X65741275Y-76983730D01*
X65436029Y-76825950D01*
X65423992Y-76818858D01*
X65138795Y-76628693D01*
X65127616Y-76620307D01*
X64865254Y-76399729D01*
X64855069Y-76390152D01*
X64618766Y-76141874D01*
X64609704Y-76131229D01*
X64548675Y-76050896D01*
X64402349Y-75858286D01*
X64394531Y-75846714D01*
X64349597Y-75771525D01*
X64218686Y-75552471D01*
X64212206Y-75540119D01*
X64070040Y-75228206D01*
X64064961Y-75215193D01*
X63958228Y-74889462D01*
X63954624Y-74875978D01*
X63884631Y-74540407D01*
X63882543Y-74526599D01*
X63876064Y-74458333D01*
X63875500Y-74446428D01*
X63875500Y-73625305D01*
X63876284Y-73611273D01*
X63890796Y-73481769D01*
X63893137Y-73467913D01*
X63903569Y-73421951D01*
X63967847Y-73138742D01*
X63971712Y-73125247D01*
X64082614Y-72806445D01*
X64087964Y-72793451D01*
X64233679Y-72488978D01*
X64240437Y-72476671D01*
X64419150Y-72190323D01*
X64427237Y-72178844D01*
X64452711Y-72146661D01*
X64636732Y-71914171D01*
X64646044Y-71903667D01*
X64883709Y-71663971D01*
X64894142Y-71654562D01*
X64938216Y-71619063D01*
X65157013Y-71442831D01*
X65168431Y-71434641D01*
X65453249Y-71253497D01*
X65465495Y-71246636D01*
X65768726Y-71098331D01*
X65781644Y-71092883D01*
X66099512Y-70979265D01*
X66112975Y-70975285D01*
X66441494Y-70897778D01*
X66455330Y-70895319D01*
X66714233Y-70864073D01*
X66790434Y-70854877D01*
X66804455Y-70853974D01*
X66980722Y-70852474D01*
X67141975Y-70851102D01*
X67156013Y-70851766D01*
G37*
%TD.AperFunction*%
%TD*%
%TA.AperFunction,Conductor*%
%TO.N,Net-(C36-Pad1)*%
G36*
X39732287Y-66340278D02*
G01*
X39779035Y-66393712D01*
X39790670Y-66445929D01*
X39798489Y-67916016D01*
X39778850Y-67984242D01*
X39725442Y-68031020D01*
X39655223Y-68041497D01*
X39597630Y-68018036D01*
X39590758Y-68012960D01*
X39590757Y-68012959D01*
X39583184Y-68007366D01*
X39455369Y-67962481D01*
X39447723Y-67961758D01*
X39447722Y-67961758D01*
X39441752Y-67961194D01*
X39423834Y-67959500D01*
X38666166Y-67959500D01*
X38648248Y-67961194D01*
X38642278Y-67961758D01*
X38642277Y-67961758D01*
X38634631Y-67962481D01*
X38506816Y-68007366D01*
X38499246Y-68012958D01*
X38499243Y-68012959D01*
X38446464Y-68051943D01*
X38397850Y-68087850D01*
X38392258Y-68095421D01*
X38392255Y-68095424D01*
X38339338Y-68167068D01*
X38327003Y-68176426D01*
X38327104Y-68176514D01*
X38306753Y-68200000D01*
X38300000Y-68200000D01*
X38300000Y-68224786D01*
X38292883Y-68266534D01*
X38272481Y-68324631D01*
X38269500Y-68356166D01*
X38269500Y-68874000D01*
X38249498Y-68942121D01*
X38195842Y-68988614D01*
X38143500Y-69000000D01*
X36100000Y-69000000D01*
X36100000Y-70374000D01*
X36079998Y-70442121D01*
X36026342Y-70488614D01*
X35974000Y-70500000D01*
X35026000Y-70500000D01*
X34957879Y-70479998D01*
X34911386Y-70426342D01*
X34900000Y-70374000D01*
X34900000Y-69998347D01*
X34904480Y-69968677D01*
X34905536Y-69966517D01*
X34915500Y-69898217D01*
X34915500Y-69531781D01*
X34905358Y-69462887D01*
X34904473Y-69461085D01*
X34900000Y-69431616D01*
X34900000Y-69000000D01*
X32926000Y-69000000D01*
X32857879Y-68979998D01*
X32811386Y-68926342D01*
X32800000Y-68874000D01*
X32800000Y-68778022D01*
X32794815Y-68732777D01*
X32781918Y-68677246D01*
X32772368Y-68650442D01*
X32766402Y-68626500D01*
X32765843Y-68622702D01*
X32764500Y-68604355D01*
X32764500Y-68285431D01*
X32765816Y-68267270D01*
X32766258Y-68264241D01*
X32772194Y-68240286D01*
X32780853Y-68215886D01*
X32780854Y-68215883D01*
X32782054Y-68212501D01*
X32794854Y-68157168D01*
X32800000Y-68112093D01*
X32801740Y-68112292D01*
X32823270Y-68051943D01*
X32879491Y-68008587D01*
X32925209Y-68000000D01*
X37174000Y-68000000D01*
X37177346Y-67999640D01*
X37177352Y-67999640D01*
X37201408Y-67997054D01*
X37216512Y-67995430D01*
X37224192Y-67993759D01*
X37250717Y-67990880D01*
X37690000Y-67990000D01*
X37690000Y-66455402D01*
X37710002Y-66387281D01*
X37763658Y-66340788D01*
X37815400Y-66329403D01*
X39664072Y-66320600D01*
X39732287Y-66340278D01*
G37*
%TD.AperFunction*%
%TD*%
%TA.AperFunction,Conductor*%
%TO.N,/EXT_12V*%
G36*
X89226345Y-73791027D02*
G01*
X89267934Y-73798144D01*
X89287388Y-73804976D01*
X89287392Y-73804977D01*
X89294631Y-73807519D01*
X89326166Y-73810500D01*
X90108834Y-73810500D01*
X90124182Y-73809049D01*
X90132723Y-73808242D01*
X90132725Y-73808242D01*
X90140369Y-73807519D01*
X90163559Y-73799375D01*
X90205461Y-73792258D01*
X91697645Y-73794135D01*
X94053941Y-73797100D01*
X94070226Y-73798178D01*
X94097103Y-73801716D01*
X94103620Y-73802748D01*
X94158224Y-73812868D01*
X94158225Y-73812868D01*
X94165692Y-73814252D01*
X94173272Y-73813815D01*
X94173273Y-73813815D01*
X94227144Y-73810709D01*
X94234396Y-73810500D01*
X95872516Y-73810500D01*
X95900579Y-73807104D01*
X95955782Y-73800424D01*
X95971078Y-73799511D01*
X96234159Y-73799842D01*
X96302254Y-73819930D01*
X96348679Y-73873644D01*
X96360000Y-73925842D01*
X96360000Y-75634158D01*
X96339998Y-75702279D01*
X96286342Y-75748772D01*
X96234158Y-75760158D01*
X94370286Y-75762500D01*
X88526795Y-75769841D01*
X88458650Y-75749924D01*
X88412090Y-75696327D01*
X88400640Y-75643205D01*
X88409366Y-73915522D01*
X88429711Y-73847503D01*
X88483601Y-73801281D01*
X88535522Y-73790158D01*
X89226345Y-73791027D01*
G37*
%TD.AperFunction*%
%TD*%
%TA.AperFunction,Conductor*%
%TO.N,GND*%
G36*
X32342121Y-81120002D02*
G01*
X32388614Y-81173658D01*
X32400000Y-81226000D01*
X32400000Y-82200000D01*
X34574000Y-82200000D01*
X34642121Y-82220002D01*
X34688614Y-82273658D01*
X34700000Y-82326000D01*
X34700000Y-82874000D01*
X34679998Y-82942121D01*
X34626342Y-82988614D01*
X34574000Y-83000000D01*
X32300000Y-83000000D01*
X32300000Y-89900000D01*
X27026000Y-89900000D01*
X26957879Y-89879998D01*
X26911386Y-89826342D01*
X26900000Y-89774000D01*
X26900000Y-87726000D01*
X26920002Y-87657879D01*
X26973658Y-87611386D01*
X27026000Y-87600000D01*
X30000000Y-87600000D01*
X30000000Y-81226000D01*
X30020002Y-81157879D01*
X30073658Y-81111386D01*
X30126000Y-81100000D01*
X32274000Y-81100000D01*
X32342121Y-81120002D01*
G37*
%TD.AperFunction*%
%TD*%
%TA.AperFunction,Conductor*%
%TO.N,+3V3*%
G36*
X95592121Y-64570502D02*
G01*
X95638614Y-64624158D01*
X95650000Y-64676500D01*
X95650000Y-66224000D01*
X95629998Y-66292121D01*
X95576342Y-66338614D01*
X95524000Y-66350000D01*
X93702365Y-66350000D01*
X93634244Y-66329998D01*
X93613269Y-66313095D01*
X92734006Y-65433831D01*
X92732404Y-65432036D01*
X92727573Y-65421976D01*
X92705953Y-65404686D01*
X92699435Y-65398853D01*
X92697424Y-65397249D01*
X92692417Y-65392242D01*
X92686426Y-65388477D01*
X92683977Y-65386523D01*
X92677378Y-65381833D01*
X92667215Y-65373705D01*
X92667210Y-65373703D01*
X92656133Y-65364844D01*
X92644610Y-65362194D01*
X92634597Y-65355901D01*
X92620500Y-65354307D01*
X92620499Y-65354307D01*
X92615714Y-65353766D01*
X92609237Y-65351719D01*
X92600813Y-65350813D01*
X92600000Y-65350000D01*
X92593248Y-65350000D01*
X92592625Y-65349933D01*
X92590854Y-65349833D01*
X92589406Y-65349500D01*
X92584967Y-65349500D01*
X92579609Y-65349197D01*
X92579526Y-65349188D01*
X92570921Y-65348703D01*
X92543701Y-65345626D01*
X92533023Y-65349355D01*
X92530423Y-65349500D01*
X90785180Y-65349500D01*
X90783506Y-65349833D01*
X90780102Y-65350000D01*
X90226000Y-65350000D01*
X90157879Y-65329998D01*
X90111386Y-65276342D01*
X90100000Y-65224000D01*
X90100000Y-64676500D01*
X90120002Y-64608379D01*
X90173658Y-64561886D01*
X90226000Y-64550500D01*
X95524000Y-64550500D01*
X95592121Y-64570502D01*
G37*
%TD.AperFunction*%
%TD*%
%TA.AperFunction,Conductor*%
%TO.N,Net-(C38-Pad2)*%
G36*
X34642121Y-69220002D02*
G01*
X34688614Y-69273658D01*
X34700000Y-69326000D01*
X34700000Y-69431616D01*
X34702265Y-69461630D01*
X34706738Y-69491099D01*
X34707465Y-69493419D01*
X34708521Y-69499014D01*
X34714156Y-69537289D01*
X34715500Y-69555641D01*
X34715500Y-69874565D01*
X34714180Y-69892752D01*
X34708829Y-69929435D01*
X34707592Y-69936028D01*
X34706722Y-69938817D01*
X34702242Y-69968487D01*
X34700000Y-69998347D01*
X34700000Y-70374000D01*
X34704570Y-70416512D01*
X34715956Y-70468854D01*
X34718378Y-70478762D01*
X34760236Y-70557314D01*
X34764868Y-70562660D01*
X34764869Y-70562661D01*
X34769226Y-70567689D01*
X34798718Y-70632270D01*
X34800000Y-70650200D01*
X34800000Y-70800000D01*
X36174000Y-70800000D01*
X36242121Y-70820002D01*
X36288614Y-70873658D01*
X36300000Y-70926000D01*
X36300000Y-72100000D01*
X36546109Y-72100000D01*
X36614230Y-72120002D01*
X36618549Y-72123034D01*
X36623851Y-72128445D01*
X36701533Y-72171897D01*
X36734654Y-72181622D01*
X36765331Y-72190630D01*
X36765335Y-72190631D01*
X36769654Y-72191899D01*
X36774102Y-72192539D01*
X36774109Y-72192540D01*
X36821552Y-72199361D01*
X36821559Y-72199361D01*
X36826000Y-72200000D01*
X39674000Y-72200000D01*
X39677346Y-72199640D01*
X39677352Y-72199640D01*
X39691436Y-72198126D01*
X39716512Y-72195430D01*
X39768854Y-72184044D01*
X39778762Y-72181622D01*
X39857314Y-72139764D01*
X39867689Y-72130774D01*
X39932270Y-72101282D01*
X39950200Y-72100000D01*
X40100000Y-72100000D01*
X40109333Y-70326678D01*
X40129693Y-70258664D01*
X40183593Y-70212454D01*
X40236566Y-70201348D01*
X40750648Y-70206388D01*
X41775235Y-70216433D01*
X41843157Y-70237102D01*
X41889121Y-70291211D01*
X41900000Y-70342427D01*
X41900000Y-72447810D01*
X41879998Y-72515931D01*
X41863095Y-72536905D01*
X41536905Y-72863095D01*
X41474593Y-72897121D01*
X41447810Y-72900000D01*
X32926000Y-72900000D01*
X32857879Y-72879998D01*
X32811386Y-72826342D01*
X32800000Y-72774000D01*
X32800000Y-70048022D01*
X32794815Y-70002777D01*
X32788821Y-69976969D01*
X32782731Y-69950745D01*
X32782729Y-69950739D01*
X32781918Y-69947246D01*
X32772368Y-69920442D01*
X32766402Y-69896500D01*
X32765851Y-69892752D01*
X32765843Y-69892698D01*
X32764500Y-69874355D01*
X32764500Y-69555431D01*
X32765816Y-69537270D01*
X32766258Y-69534241D01*
X32772194Y-69510286D01*
X32780853Y-69485886D01*
X32780854Y-69485883D01*
X32782054Y-69482501D01*
X32794854Y-69427168D01*
X32800000Y-69382093D01*
X32800000Y-69326000D01*
X32820002Y-69257879D01*
X32873658Y-69211386D01*
X32926000Y-69200000D01*
X34574000Y-69200000D01*
X34642121Y-69220002D01*
G37*
%TD.AperFunction*%
%TD*%
%TA.AperFunction,Conductor*%
%TO.N,Net-(C39-Pad2)*%
G36*
X34842121Y-84720002D02*
G01*
X34888614Y-84773658D01*
X34900000Y-84826000D01*
X34900000Y-86100000D01*
X36574000Y-86100000D01*
X36642121Y-86120002D01*
X36688614Y-86173658D01*
X36700000Y-86226000D01*
X36700000Y-87674000D01*
X36704570Y-87716512D01*
X36715956Y-87768854D01*
X36718378Y-87778762D01*
X36760236Y-87857314D01*
X36764868Y-87862660D01*
X36764869Y-87862661D01*
X36769226Y-87867689D01*
X36798718Y-87932270D01*
X36800000Y-87950200D01*
X36800000Y-88000000D01*
X38248583Y-88000000D01*
X38265029Y-88001078D01*
X38300000Y-88005682D01*
X38308188Y-88004604D01*
X38334971Y-88001078D01*
X38351417Y-88000000D01*
X39348583Y-88000000D01*
X39365029Y-88001078D01*
X39400000Y-88005682D01*
X39408188Y-88004604D01*
X39434971Y-88001078D01*
X39451417Y-88000000D01*
X40700000Y-88000000D01*
X40700000Y-86793907D01*
X40720002Y-86725786D01*
X40728858Y-86714436D01*
X40732110Y-86711872D01*
X40809131Y-86600431D01*
X40849980Y-86471270D01*
X40850500Y-86464663D01*
X40850500Y-86134028D01*
X40870502Y-86065907D01*
X40924158Y-86019414D01*
X40975598Y-86008031D01*
X41873102Y-86001621D01*
X41941362Y-86021135D01*
X41988237Y-86074457D01*
X42000000Y-86127617D01*
X42000000Y-88474000D01*
X41979998Y-88542121D01*
X41926342Y-88588614D01*
X41874000Y-88600000D01*
X32626000Y-88600000D01*
X32557879Y-88579998D01*
X32511386Y-88526342D01*
X32500000Y-88474000D01*
X32500000Y-84826000D01*
X32520002Y-84757879D01*
X32573658Y-84711386D01*
X32626000Y-84700000D01*
X34774000Y-84700000D01*
X34842121Y-84720002D01*
G37*
%TD.AperFunction*%
%TD*%
%TA.AperFunction,Conductor*%
%TO.N,+3V3*%
G36*
X86892121Y-67420002D02*
G01*
X86938614Y-67473658D01*
X86950000Y-67526000D01*
X86950000Y-67580102D01*
X86949833Y-67583506D01*
X86949500Y-67585180D01*
X86949500Y-69353788D01*
X86949364Y-69356189D01*
X86945666Y-69366719D01*
X86947235Y-69380820D01*
X86947235Y-69380821D01*
X86948727Y-69394227D01*
X86949212Y-69402969D01*
X86949500Y-69405527D01*
X86949500Y-69412603D01*
X86951073Y-69419497D01*
X86951424Y-69422616D01*
X86952776Y-69430609D01*
X86955783Y-69457633D01*
X86962058Y-69467656D01*
X86964688Y-69479185D01*
X86973530Y-69490281D01*
X86973531Y-69490283D01*
X86981635Y-69500452D01*
X86986491Y-69507310D01*
X86988333Y-69509623D01*
X86992116Y-69515666D01*
X86997160Y-69520710D01*
X87001485Y-69526142D01*
X87028269Y-69591893D01*
X87027362Y-69624338D01*
X87026433Y-69630203D01*
X87026433Y-69630207D01*
X87024882Y-69640000D01*
X87043242Y-69755918D01*
X87047743Y-69764751D01*
X87047744Y-69764755D01*
X87051513Y-69772151D01*
X87096523Y-69860489D01*
X87179511Y-69943477D01*
X87233079Y-69970771D01*
X87275245Y-69992256D01*
X87275248Y-69992257D01*
X87284082Y-69996758D01*
X87400000Y-70015118D01*
X87515918Y-69996758D01*
X87524752Y-69992257D01*
X87524755Y-69992256D01*
X87566921Y-69970771D01*
X87620489Y-69943477D01*
X87703477Y-69860489D01*
X87748487Y-69772151D01*
X87752258Y-69764751D01*
X87752259Y-69764748D01*
X87756758Y-69755918D01*
X87756852Y-69755325D01*
X87794010Y-69700989D01*
X87859408Y-69673355D01*
X87880289Y-69673802D01*
X87880289Y-69673567D01*
X87890208Y-69673567D01*
X87900000Y-69675118D01*
X88015918Y-69656758D01*
X88024636Y-69652316D01*
X88095531Y-69650290D01*
X88156329Y-69686952D01*
X88187654Y-69750665D01*
X88189500Y-69772151D01*
X88189500Y-69844344D01*
X88169498Y-69912465D01*
X88152595Y-69933439D01*
X88096523Y-69989511D01*
X88084266Y-70013567D01*
X88047744Y-70085245D01*
X88047743Y-70085248D01*
X88043242Y-70094082D01*
X88024882Y-70210000D01*
X88043242Y-70325918D01*
X88047745Y-70334755D01*
X88047745Y-70334756D01*
X88059307Y-70357449D01*
X88072410Y-70427226D01*
X88045708Y-70493010D01*
X87987680Y-70533915D01*
X87947558Y-70540648D01*
X87522398Y-70542398D01*
X85801518Y-70549479D01*
X85733316Y-70529757D01*
X85686603Y-70476293D01*
X85675000Y-70423480D01*
X85675000Y-68801000D01*
X85695002Y-68732879D01*
X85748658Y-68686386D01*
X85801000Y-68675000D01*
X86550000Y-68675000D01*
X86550000Y-68394898D01*
X86550167Y-68391494D01*
X86550500Y-68389820D01*
X86550500Y-68118366D01*
X86561393Y-68067117D01*
X86570114Y-68047530D01*
X86570114Y-68047528D01*
X86575500Y-68035432D01*
X86575500Y-67526000D01*
X86595502Y-67457879D01*
X86649158Y-67411386D01*
X86701500Y-67400000D01*
X86824000Y-67400000D01*
X86892121Y-67420002D01*
G37*
%TD.AperFunction*%
%TA.AperFunction,Conductor*%
G36*
X90525772Y-66550167D02*
G01*
X90527219Y-66550500D01*
X90531656Y-66550500D01*
X90537016Y-66550803D01*
X90537096Y-66550812D01*
X90545715Y-66551298D01*
X90558822Y-66552780D01*
X90558823Y-66552780D01*
X90572923Y-66554374D01*
X90583601Y-66550645D01*
X90586193Y-66550500D01*
X91624000Y-66550500D01*
X91692121Y-66570502D01*
X91738614Y-66624158D01*
X91750000Y-66676500D01*
X91750000Y-70399517D01*
X91729998Y-70467638D01*
X91676342Y-70514131D01*
X91624519Y-70525516D01*
X89222019Y-70535403D01*
X89153816Y-70515681D01*
X89107103Y-70462218D01*
X89095500Y-70409404D01*
X89095500Y-70346298D01*
X89089087Y-70316124D01*
X89083360Y-70289183D01*
X89083360Y-70289182D01*
X89080607Y-70276232D01*
X89079155Y-70274233D01*
X89070500Y-70233518D01*
X89070500Y-69176212D01*
X89070636Y-69173811D01*
X89074334Y-69163281D01*
X89071273Y-69135773D01*
X89070788Y-69127031D01*
X89070500Y-69124473D01*
X89070500Y-69117397D01*
X89068927Y-69110503D01*
X89068576Y-69107384D01*
X89067224Y-69099391D01*
X89065786Y-69086470D01*
X89064217Y-69072367D01*
X89057942Y-69062344D01*
X89055312Y-69050815D01*
X89046470Y-69039719D01*
X89046469Y-69039717D01*
X89038358Y-69029539D01*
X89033514Y-69022698D01*
X89031668Y-69020379D01*
X89027883Y-69014334D01*
X89022838Y-69009289D01*
X89021104Y-69007111D01*
X89015381Y-69000705D01*
X89007148Y-68990373D01*
X89007147Y-68990373D01*
X88998305Y-68979276D01*
X88988118Y-68974362D01*
X88986177Y-68972627D01*
X88903645Y-68890095D01*
X88869619Y-68827783D01*
X88874684Y-68756968D01*
X88917231Y-68700132D01*
X88983751Y-68675321D01*
X88992740Y-68675000D01*
X90150000Y-68675000D01*
X90150000Y-68394898D01*
X90150167Y-68391494D01*
X90150500Y-68389820D01*
X90150500Y-67585180D01*
X90150167Y-67583506D01*
X90150000Y-67580102D01*
X90150000Y-66676000D01*
X90170002Y-66607879D01*
X90223658Y-66561386D01*
X90276000Y-66550000D01*
X90522812Y-66550000D01*
X90525772Y-66550167D01*
G37*
%TD.AperFunction*%
%TD*%
%TA.AperFunction,Conductor*%
%TO.N,Net-(C32-Pad1)*%
G36*
X39742121Y-68320002D02*
G01*
X39788614Y-68373658D01*
X39800000Y-68426000D01*
X39800000Y-70074000D01*
X39779998Y-70142121D01*
X39726342Y-70188614D01*
X39674000Y-70200000D01*
X37844998Y-70200000D01*
X37841200Y-70200465D01*
X37841194Y-70200465D01*
X37800587Y-70205433D01*
X37800585Y-70205433D01*
X37796787Y-70205898D01*
X37793070Y-70206821D01*
X37793066Y-70206822D01*
X37752291Y-70216950D01*
X37751739Y-70214730D01*
X37747065Y-70216285D01*
X37747430Y-70217876D01*
X37740532Y-70219459D01*
X37733500Y-70220259D01*
X37726823Y-70222604D01*
X37726818Y-70222605D01*
X37653421Y-70248381D01*
X37611672Y-70255499D01*
X37342347Y-70255500D01*
X37073330Y-70255500D01*
X37031581Y-70248382D01*
X37031578Y-70248381D01*
X36951500Y-70220259D01*
X36948050Y-70219468D01*
X36948044Y-70219466D01*
X36925745Y-70214352D01*
X36907822Y-70210241D01*
X36907606Y-70210265D01*
X36902967Y-70209563D01*
X36891930Y-70206821D01*
X36891925Y-70206820D01*
X36888213Y-70205898D01*
X36874105Y-70204172D01*
X36843806Y-70200465D01*
X36843800Y-70200465D01*
X36840002Y-70200000D01*
X36826000Y-70200000D01*
X36757879Y-70179998D01*
X36711386Y-70126342D01*
X36700000Y-70074000D01*
X36700000Y-69326000D01*
X36720002Y-69257879D01*
X36773658Y-69211386D01*
X36826000Y-69200000D01*
X38400000Y-69200000D01*
X38400000Y-69105320D01*
X38416034Y-69043810D01*
X38437942Y-69004644D01*
X38437942Y-69004643D01*
X38441397Y-68998467D01*
X38461399Y-68930346D01*
X38469500Y-68874000D01*
X38469500Y-68426000D01*
X38489502Y-68357879D01*
X38543158Y-68311386D01*
X38595500Y-68300000D01*
X39674000Y-68300000D01*
X39742121Y-68320002D01*
G37*
%TD.AperFunction*%
%TD*%
%TA.AperFunction,Conductor*%
%TO.N,Net-(C35-Pad1)*%
G36*
X29742121Y-78220002D02*
G01*
X29788614Y-78273658D01*
X29800000Y-78326000D01*
X29800000Y-81774000D01*
X29779998Y-81842121D01*
X29726342Y-81888614D01*
X29674000Y-81900000D01*
X27026000Y-81900000D01*
X26957879Y-81879998D01*
X26911386Y-81826342D01*
X26900000Y-81774000D01*
X26900000Y-78326000D01*
X26920002Y-78257879D01*
X26973658Y-78211386D01*
X27026000Y-78200000D01*
X29674000Y-78200000D01*
X29742121Y-78220002D01*
G37*
%TD.AperFunction*%
%TD*%
%TA.AperFunction,Conductor*%
%TO.N,Net-(R13-Pad1)*%
G36*
X29742121Y-84720002D02*
G01*
X29788614Y-84773658D01*
X29800000Y-84826000D01*
X29800000Y-85874000D01*
X29779998Y-85942121D01*
X29726342Y-85988614D01*
X29674000Y-86000000D01*
X29000000Y-86000000D01*
X29000000Y-87274000D01*
X28979998Y-87342121D01*
X28926342Y-87388614D01*
X28874000Y-87400000D01*
X27026000Y-87400000D01*
X26957879Y-87379998D01*
X26911386Y-87326342D01*
X26900000Y-87274000D01*
X26900000Y-84826000D01*
X26920002Y-84757879D01*
X26973658Y-84711386D01*
X27026000Y-84700000D01*
X29674000Y-84700000D01*
X29742121Y-84720002D01*
G37*
%TD.AperFunction*%
%TD*%
%TA.AperFunction,Conductor*%
%TO.N,Net-(C37-Pad1)*%
G36*
X39891621Y-81820002D02*
G01*
X39938114Y-81873658D01*
X39949500Y-81926000D01*
X39949500Y-83474000D01*
X39929498Y-83542121D01*
X39875842Y-83588614D01*
X39823500Y-83600000D01*
X37026000Y-83600000D01*
X37022654Y-83600360D01*
X37022648Y-83600360D01*
X37008564Y-83601874D01*
X36983488Y-83604570D01*
X36931146Y-83615956D01*
X36921238Y-83618378D01*
X36842686Y-83660236D01*
X36837340Y-83664868D01*
X36837339Y-83664869D01*
X36832311Y-83669226D01*
X36767730Y-83698718D01*
X36749800Y-83700000D01*
X36700000Y-83700000D01*
X36700000Y-85674000D01*
X36679998Y-85742121D01*
X36626342Y-85788614D01*
X36574000Y-85800000D01*
X35226000Y-85800000D01*
X35157879Y-85779998D01*
X35111386Y-85726342D01*
X35100000Y-85674000D01*
X35100000Y-84400000D01*
X32641500Y-84400000D01*
X32573379Y-84379998D01*
X32526886Y-84326342D01*
X32515500Y-84274000D01*
X32515500Y-83326000D01*
X32535502Y-83257879D01*
X32589158Y-83211386D01*
X32641500Y-83200000D01*
X34574000Y-83200000D01*
X34577346Y-83199640D01*
X34577352Y-83199640D01*
X34591436Y-83198126D01*
X34616512Y-83195430D01*
X34668854Y-83184044D01*
X34678762Y-83181622D01*
X34757314Y-83139764D01*
X34810970Y-83093271D01*
X34812351Y-83091918D01*
X34818392Y-83086000D01*
X34881048Y-83052612D01*
X34906573Y-83050000D01*
X37533571Y-83050000D01*
X37581789Y-83059591D01*
X37643238Y-83085044D01*
X37800000Y-83105682D01*
X37808188Y-83104604D01*
X37948574Y-83086122D01*
X37956762Y-83085044D01*
X38018211Y-83059591D01*
X38066429Y-83050000D01*
X38520000Y-83050000D01*
X38504011Y-82050682D01*
X38522921Y-81982250D01*
X38524388Y-81980124D01*
X38528445Y-81976149D01*
X38571897Y-81898467D01*
X38574237Y-81890498D01*
X38574667Y-81889829D01*
X38576631Y-81885155D01*
X38577450Y-81885499D01*
X38612622Y-81830773D01*
X38677204Y-81801282D01*
X38695132Y-81800000D01*
X39823500Y-81800000D01*
X39891621Y-81820002D01*
G37*
%TD.AperFunction*%
%TD*%
%TA.AperFunction,Conductor*%
%TO.N,Net-(C34-Pad2)*%
G36*
X37142121Y-62820002D02*
G01*
X37188614Y-62873658D01*
X37200000Y-62926000D01*
X37200000Y-64674000D01*
X37179998Y-64742121D01*
X37126342Y-64788614D01*
X37074000Y-64800000D01*
X34800000Y-64800000D01*
X34800000Y-66174000D01*
X34779998Y-66242121D01*
X34726342Y-66288614D01*
X34674000Y-66300000D01*
X32919230Y-66300000D01*
X32851109Y-66279998D01*
X32804616Y-66226342D01*
X32795153Y-66195731D01*
X32794815Y-66192777D01*
X32790455Y-66174000D01*
X32782731Y-66140745D01*
X32782729Y-66140739D01*
X32781918Y-66137246D01*
X32772368Y-66110442D01*
X32766402Y-66086500D01*
X32765843Y-66082702D01*
X32764500Y-66064355D01*
X32764500Y-65745431D01*
X32765816Y-65727270D01*
X32766258Y-65724241D01*
X32772194Y-65700286D01*
X32780853Y-65675886D01*
X32780854Y-65675883D01*
X32782054Y-65672501D01*
X32794854Y-65617168D01*
X32800000Y-65572093D01*
X32800000Y-65226000D01*
X32795430Y-65183488D01*
X32784044Y-65131146D01*
X32781622Y-65121238D01*
X32739764Y-65042686D01*
X32730774Y-65032311D01*
X32701282Y-64967730D01*
X32700000Y-64949800D01*
X32700000Y-64800000D01*
X29126000Y-64800000D01*
X29057879Y-64779998D01*
X29011386Y-64726342D01*
X29000000Y-64674000D01*
X29000000Y-62926000D01*
X29020002Y-62857879D01*
X29073658Y-62811386D01*
X29126000Y-62800000D01*
X37074000Y-62800000D01*
X37142121Y-62820002D01*
G37*
%TD.AperFunction*%
%TD*%
%TA.AperFunction,Conductor*%
%TO.N,Net-(C34-Pad1)*%
G36*
X28131269Y-63088519D02*
G01*
X28134563Y-63089372D01*
X28134574Y-63089374D01*
X28137142Y-63090039D01*
X28153312Y-63092796D01*
X28176272Y-63096710D01*
X28176279Y-63096711D01*
X28178890Y-63097156D01*
X28185449Y-63097711D01*
X28209836Y-63099775D01*
X28209846Y-63099775D01*
X28212500Y-63100000D01*
X28274000Y-63100000D01*
X28342121Y-63120002D01*
X28388614Y-63173658D01*
X28400000Y-63226000D01*
X28400000Y-65400000D01*
X29674000Y-65400000D01*
X29742121Y-65420002D01*
X29788614Y-65473658D01*
X29800000Y-65526000D01*
X29800000Y-66174000D01*
X29779998Y-66242121D01*
X29726342Y-66288614D01*
X29674000Y-66300000D01*
X27126000Y-66300000D01*
X27057879Y-66279998D01*
X27011386Y-66226342D01*
X27000000Y-66174000D01*
X27000000Y-63226000D01*
X27020002Y-63157879D01*
X27073658Y-63111386D01*
X27126000Y-63100000D01*
X27252500Y-63100000D01*
X27255154Y-63099775D01*
X27255164Y-63099775D01*
X27279551Y-63097711D01*
X27286110Y-63097156D01*
X27288721Y-63096711D01*
X27288728Y-63096710D01*
X27311688Y-63092796D01*
X27327858Y-63090039D01*
X27330426Y-63089374D01*
X27330437Y-63089372D01*
X27333731Y-63088519D01*
X27365301Y-63084500D01*
X28099699Y-63084500D01*
X28131269Y-63088519D01*
G37*
%TD.AperFunction*%
%TD*%
%TA.AperFunction,Conductor*%
%TO.N,Net-(R10-Pad1)*%
G36*
X29742121Y-69220002D02*
G01*
X29788614Y-69273658D01*
X29800000Y-69326000D01*
X29800000Y-71874000D01*
X29779998Y-71942121D01*
X29726342Y-71988614D01*
X29674000Y-72000000D01*
X27026000Y-72000000D01*
X26957879Y-71979998D01*
X26911386Y-71926342D01*
X26900000Y-71874000D01*
X26900000Y-69326000D01*
X26920002Y-69257879D01*
X26973658Y-69211386D01*
X27026000Y-69200000D01*
X29674000Y-69200000D01*
X29742121Y-69220002D01*
G37*
%TD.AperFunction*%
%TD*%
%TA.AperFunction,Conductor*%
%TO.N,+3V3*%
G36*
X69232962Y-84520002D02*
G01*
X69279455Y-84573658D01*
X69290838Y-84625156D01*
X69319151Y-88853156D01*
X69299606Y-88921409D01*
X69246263Y-88968261D01*
X69193154Y-88980000D01*
X65996564Y-88980000D01*
X65928443Y-88959998D01*
X65881950Y-88906342D01*
X65870565Y-88853438D01*
X65889440Y-84625438D01*
X65909746Y-84557407D01*
X65963609Y-84511154D01*
X66015439Y-84500000D01*
X69164841Y-84500000D01*
X69232962Y-84520002D01*
G37*
%TD.AperFunction*%
%TD*%
%TA.AperFunction,NonConductor*%
G36*
X109442121Y-72520002D02*
G01*
X109488614Y-72573658D01*
X109500000Y-72626000D01*
X109500000Y-91874000D01*
X109479998Y-91942121D01*
X109426342Y-91988614D01*
X109374000Y-92000000D01*
X96637986Y-92000000D01*
X96569865Y-91979998D01*
X96523372Y-91926342D01*
X96511993Y-91872660D01*
X96515937Y-91502000D01*
X97808479Y-91502000D01*
X97872534Y-91502000D01*
X98874796Y-91502000D01*
X98938851Y-91502000D01*
X99941113Y-91502000D01*
X100005168Y-91502000D01*
X101007430Y-91502000D01*
X101071485Y-91502000D01*
X102073747Y-91502000D01*
X102137802Y-91502000D01*
X103140063Y-91502000D01*
X103204119Y-91502000D01*
X104206380Y-91502000D01*
X104270436Y-91502000D01*
X105272697Y-91502000D01*
X105336753Y-91502000D01*
X106339014Y-91502000D01*
X106403070Y-91502000D01*
X107405331Y-91502000D01*
X107469387Y-91502000D01*
X108471648Y-91502000D01*
X108535704Y-91502000D01*
X108503676Y-91469972D01*
X108471648Y-91502000D01*
X107469387Y-91502000D01*
X107437359Y-91469972D01*
X107405331Y-91502000D01*
X106403070Y-91502000D01*
X106371042Y-91469972D01*
X106339014Y-91502000D01*
X105336753Y-91502000D01*
X105304725Y-91469972D01*
X105272697Y-91502000D01*
X104270436Y-91502000D01*
X104238408Y-91469972D01*
X104206380Y-91502000D01*
X103204119Y-91502000D01*
X103172091Y-91469972D01*
X103140063Y-91502000D01*
X102137802Y-91502000D01*
X102105774Y-91469972D01*
X102073747Y-91502000D01*
X101071485Y-91502000D01*
X101039457Y-91469972D01*
X101007430Y-91502000D01*
X100005168Y-91502000D01*
X99973140Y-91469972D01*
X99941113Y-91502000D01*
X98938851Y-91502000D01*
X98906823Y-91469972D01*
X98874796Y-91502000D01*
X97872534Y-91502000D01*
X97840506Y-91469972D01*
X97808479Y-91502000D01*
X96515937Y-91502000D01*
X96518098Y-91298854D01*
X96519816Y-91137358D01*
X97145851Y-91137358D01*
X97307347Y-91298854D01*
X97488367Y-91117834D01*
X98192644Y-91117834D01*
X98373664Y-91298854D01*
X98554684Y-91117834D01*
X99258961Y-91117834D01*
X99439981Y-91298854D01*
X99621001Y-91117834D01*
X100325278Y-91117834D01*
X100506298Y-91298854D01*
X100687318Y-91117834D01*
X101391595Y-91117834D01*
X101572615Y-91298854D01*
X101753635Y-91117834D01*
X102457912Y-91117834D01*
X102638932Y-91298854D01*
X102819952Y-91117834D01*
X103524229Y-91117834D01*
X103705249Y-91298854D01*
X103886268Y-91117834D01*
X104590546Y-91117834D01*
X104771566Y-91298854D01*
X104952585Y-91117834D01*
X105656863Y-91117834D01*
X105837883Y-91298854D01*
X106018902Y-91117834D01*
X106723180Y-91117834D01*
X106904200Y-91298854D01*
X107085219Y-91117834D01*
X107789497Y-91117834D01*
X107970517Y-91298854D01*
X108151536Y-91117834D01*
X108855814Y-91117834D01*
X109002000Y-91264020D01*
X109002000Y-90971648D01*
X108855814Y-91117834D01*
X108151536Y-91117834D01*
X108151537Y-91117833D01*
X107970518Y-90936814D01*
X107789497Y-91117834D01*
X107085219Y-91117834D01*
X107085220Y-91117833D01*
X106904201Y-90936814D01*
X106723180Y-91117834D01*
X106018902Y-91117834D01*
X106018903Y-91117833D01*
X105837884Y-90936814D01*
X105656863Y-91117834D01*
X104952585Y-91117834D01*
X104952586Y-91117833D01*
X104771567Y-90936814D01*
X104590546Y-91117834D01*
X103886268Y-91117834D01*
X103886269Y-91117833D01*
X103705250Y-90936814D01*
X103524229Y-91117834D01*
X102819952Y-91117834D01*
X102638932Y-90936814D01*
X102457912Y-91117834D01*
X101753635Y-91117834D01*
X101572615Y-90936814D01*
X101391595Y-91117834D01*
X100687318Y-91117834D01*
X100506298Y-90936814D01*
X100325278Y-91117834D01*
X99621001Y-91117834D01*
X99439981Y-90936814D01*
X99258961Y-91117834D01*
X98554684Y-91117834D01*
X98373664Y-90936814D01*
X98192644Y-91117834D01*
X97488367Y-91117834D01*
X97307347Y-90936814D01*
X97146271Y-91097891D01*
X97145851Y-91137358D01*
X96519816Y-91137358D01*
X96525695Y-90584675D01*
X97659486Y-90584675D01*
X97840506Y-90765695D01*
X98021526Y-90584675D01*
X98725803Y-90584675D01*
X98906823Y-90765695D01*
X99087843Y-90584675D01*
X99792120Y-90584675D01*
X99973140Y-90765695D01*
X100154160Y-90584675D01*
X100858437Y-90584675D01*
X101039457Y-90765695D01*
X101220477Y-90584675D01*
X101924754Y-90584675D01*
X102105774Y-90765695D01*
X102286794Y-90584675D01*
X102991071Y-90584675D01*
X103172091Y-90765695D01*
X103353111Y-90584675D01*
X104057388Y-90584675D01*
X104238408Y-90765695D01*
X104419428Y-90584675D01*
X105123705Y-90584675D01*
X105304725Y-90765695D01*
X105485745Y-90584675D01*
X106190022Y-90584675D01*
X106371042Y-90765695D01*
X106552062Y-90584675D01*
X107256339Y-90584675D01*
X107437359Y-90765695D01*
X107618379Y-90584675D01*
X108322656Y-90584675D01*
X108503676Y-90765695D01*
X108684696Y-90584675D01*
X108503676Y-90403655D01*
X108322656Y-90584675D01*
X107618379Y-90584675D01*
X107437359Y-90403655D01*
X107256339Y-90584675D01*
X106552062Y-90584675D01*
X106371042Y-90403655D01*
X106190022Y-90584675D01*
X105485745Y-90584675D01*
X105304725Y-90403655D01*
X105123705Y-90584675D01*
X104419428Y-90584675D01*
X104238408Y-90403655D01*
X104057388Y-90584675D01*
X103353111Y-90584675D01*
X103172091Y-90403655D01*
X102991071Y-90584675D01*
X102286794Y-90584675D01*
X102105774Y-90403655D01*
X101924754Y-90584675D01*
X101220477Y-90584675D01*
X101039457Y-90403655D01*
X100858437Y-90584675D01*
X100154160Y-90584675D01*
X99973140Y-90403655D01*
X99792120Y-90584675D01*
X99087843Y-90584675D01*
X98906823Y-90403655D01*
X98725803Y-90584675D01*
X98021526Y-90584675D01*
X97840506Y-90403655D01*
X97659486Y-90584675D01*
X96525695Y-90584675D01*
X96531040Y-90082265D01*
X97157075Y-90082265D01*
X97307347Y-90232537D01*
X97488367Y-90051517D01*
X98192644Y-90051517D01*
X98373664Y-90232537D01*
X98554684Y-90051517D01*
X99258961Y-90051517D01*
X99439981Y-90232537D01*
X99621001Y-90051517D01*
X100325278Y-90051517D01*
X100506298Y-90232537D01*
X100687318Y-90051517D01*
X101391595Y-90051517D01*
X101572615Y-90232537D01*
X101753635Y-90051517D01*
X102457912Y-90051517D01*
X102638932Y-90232537D01*
X102819952Y-90051517D01*
X103524229Y-90051517D01*
X103705249Y-90232537D01*
X103886268Y-90051517D01*
X104590546Y-90051517D01*
X104771566Y-90232537D01*
X104952585Y-90051517D01*
X105656863Y-90051517D01*
X105837883Y-90232537D01*
X106018902Y-90051517D01*
X106723180Y-90051517D01*
X106904200Y-90232537D01*
X107085219Y-90051517D01*
X107789497Y-90051517D01*
X107970517Y-90232537D01*
X108151536Y-90051517D01*
X108855814Y-90051517D01*
X109002000Y-90197703D01*
X109002000Y-89905331D01*
X108855814Y-90051517D01*
X108151536Y-90051517D01*
X108151537Y-90051516D01*
X107970518Y-89870497D01*
X107789497Y-90051517D01*
X107085219Y-90051517D01*
X107085220Y-90051516D01*
X106904201Y-89870497D01*
X106723180Y-90051517D01*
X106018902Y-90051517D01*
X106018903Y-90051516D01*
X105837884Y-89870497D01*
X105656863Y-90051517D01*
X104952585Y-90051517D01*
X104952586Y-90051516D01*
X104771567Y-89870497D01*
X104590546Y-90051517D01*
X103886268Y-90051517D01*
X103886269Y-90051516D01*
X103705250Y-89870497D01*
X103524229Y-90051517D01*
X102819952Y-90051517D01*
X102638932Y-89870497D01*
X102457912Y-90051517D01*
X101753635Y-90051517D01*
X101572615Y-89870497D01*
X101391595Y-90051517D01*
X100687318Y-90051517D01*
X100506298Y-89870497D01*
X100325278Y-90051517D01*
X99621001Y-90051517D01*
X99439981Y-89870497D01*
X99258961Y-90051517D01*
X98554684Y-90051517D01*
X98373664Y-89870497D01*
X98192644Y-90051517D01*
X97488367Y-90051517D01*
X97307346Y-89870497D01*
X97157736Y-90020107D01*
X97157075Y-90082265D01*
X96531040Y-90082265D01*
X96537039Y-89518358D01*
X97659486Y-89518358D01*
X97840506Y-89699378D01*
X98021526Y-89518358D01*
X98725803Y-89518358D01*
X98906823Y-89699378D01*
X99087843Y-89518358D01*
X99792120Y-89518358D01*
X99973140Y-89699378D01*
X100154160Y-89518358D01*
X100858437Y-89518358D01*
X101039457Y-89699378D01*
X101220477Y-89518358D01*
X101924754Y-89518358D01*
X102105774Y-89699378D01*
X102286794Y-89518358D01*
X102991071Y-89518358D01*
X103172091Y-89699378D01*
X103353111Y-89518358D01*
X104057388Y-89518358D01*
X104238408Y-89699378D01*
X104419428Y-89518358D01*
X105123705Y-89518358D01*
X105304725Y-89699378D01*
X105485745Y-89518358D01*
X106190022Y-89518358D01*
X106371042Y-89699378D01*
X106552062Y-89518358D01*
X107256339Y-89518358D01*
X107437359Y-89699378D01*
X107618379Y-89518358D01*
X108322656Y-89518358D01*
X108503676Y-89699378D01*
X108684696Y-89518358D01*
X108503676Y-89337338D01*
X108322656Y-89518358D01*
X107618379Y-89518358D01*
X107437359Y-89337338D01*
X107256339Y-89518358D01*
X106552062Y-89518358D01*
X106371042Y-89337338D01*
X106190022Y-89518358D01*
X105485745Y-89518358D01*
X105304725Y-89337338D01*
X105123705Y-89518358D01*
X104419428Y-89518358D01*
X104238408Y-89337338D01*
X104057388Y-89518358D01*
X103353111Y-89518358D01*
X103172091Y-89337338D01*
X102991071Y-89518358D01*
X102286794Y-89518358D01*
X102105774Y-89337338D01*
X101924754Y-89518358D01*
X101220477Y-89518358D01*
X101039457Y-89337338D01*
X100858437Y-89518358D01*
X100154160Y-89518358D01*
X99973140Y-89337338D01*
X99792120Y-89518358D01*
X99087843Y-89518358D01*
X98906823Y-89337338D01*
X98725803Y-89518358D01*
X98021526Y-89518358D01*
X97840506Y-89337338D01*
X97659486Y-89518358D01*
X96537039Y-89518358D01*
X96542042Y-89048000D01*
X97189127Y-89048000D01*
X97307347Y-89166220D01*
X97425567Y-89048000D01*
X98255444Y-89048000D01*
X98373664Y-89166220D01*
X98491884Y-89048000D01*
X99321761Y-89048000D01*
X99439981Y-89166220D01*
X99558201Y-89048000D01*
X100388078Y-89048000D01*
X100506298Y-89166220D01*
X100624518Y-89048000D01*
X101454395Y-89048000D01*
X101572615Y-89166220D01*
X101690835Y-89048000D01*
X102520712Y-89048000D01*
X102638932Y-89166220D01*
X102757152Y-89048000D01*
X103587029Y-89048000D01*
X103705249Y-89166220D01*
X103823469Y-89048000D01*
X104653346Y-89048000D01*
X104771566Y-89166220D01*
X104926165Y-89011621D01*
X104922925Y-89012929D01*
X104854804Y-89032931D01*
X104837238Y-89036752D01*
X104767932Y-89046717D01*
X104750000Y-89048000D01*
X104653346Y-89048000D01*
X103823469Y-89048000D01*
X103587029Y-89048000D01*
X102757152Y-89048000D01*
X102520712Y-89048000D01*
X101690835Y-89048000D01*
X101454395Y-89048000D01*
X100624518Y-89048000D01*
X100388078Y-89048000D01*
X99558201Y-89048000D01*
X99321761Y-89048000D01*
X98491884Y-89048000D01*
X98255444Y-89048000D01*
X97425567Y-89048000D01*
X97189127Y-89048000D01*
X96542042Y-89048000D01*
X96542710Y-88985200D01*
X105656863Y-88985200D01*
X105837883Y-89166220D01*
X106018902Y-88985200D01*
X106723180Y-88985200D01*
X106904200Y-89166220D01*
X107085219Y-88985200D01*
X107789497Y-88985200D01*
X107970517Y-89166220D01*
X108151536Y-88985200D01*
X108855814Y-88985200D01*
X109002000Y-89131386D01*
X109002000Y-88839014D01*
X108855814Y-88985200D01*
X108151536Y-88985200D01*
X108151537Y-88985199D01*
X107970518Y-88804180D01*
X107789497Y-88985200D01*
X107085219Y-88985200D01*
X107085220Y-88985199D01*
X106904201Y-88804180D01*
X106723180Y-88985200D01*
X106018902Y-88985200D01*
X106018903Y-88985199D01*
X105837884Y-88804180D01*
X105656863Y-88985200D01*
X96542710Y-88985200D01*
X96546014Y-88674659D01*
X96565287Y-88611517D01*
X105283181Y-88611517D01*
X105304725Y-88633061D01*
X105485745Y-88452041D01*
X106190022Y-88452041D01*
X106371042Y-88633061D01*
X106552062Y-88452041D01*
X107256339Y-88452041D01*
X107437359Y-88633061D01*
X107618379Y-88452041D01*
X108322656Y-88452041D01*
X108503676Y-88633061D01*
X108684696Y-88452041D01*
X108503676Y-88271021D01*
X108322656Y-88452041D01*
X107618379Y-88452041D01*
X107437359Y-88271021D01*
X107256339Y-88452041D01*
X106552062Y-88452041D01*
X106371042Y-88271021D01*
X106190022Y-88452041D01*
X105485745Y-88452041D01*
X105370551Y-88336847D01*
X105335596Y-88515532D01*
X105316705Y-88561345D01*
X105283181Y-88611517D01*
X96565287Y-88611517D01*
X96566740Y-88606756D01*
X96620887Y-88560836D01*
X96672007Y-88550000D01*
X104750000Y-88550000D01*
X104753034Y-87918882D01*
X105656863Y-87918882D01*
X105837884Y-88099902D01*
X106018903Y-87918883D01*
X106018902Y-87918882D01*
X106723180Y-87918882D01*
X106904201Y-88099902D01*
X107085220Y-87918883D01*
X107085219Y-87918882D01*
X107789497Y-87918882D01*
X107970518Y-88099902D01*
X108151537Y-87918883D01*
X108151536Y-87918882D01*
X108855814Y-87918882D01*
X109002000Y-88065068D01*
X109002000Y-87772696D01*
X108855814Y-87918882D01*
X108151536Y-87918882D01*
X107970517Y-87737862D01*
X107789497Y-87918882D01*
X107085219Y-87918882D01*
X106904200Y-87737862D01*
X106723180Y-87918882D01*
X106018902Y-87918882D01*
X105837883Y-87737862D01*
X105656863Y-87918882D01*
X104753034Y-87918882D01*
X104755836Y-87336035D01*
X104756156Y-87269469D01*
X105369490Y-87269469D01*
X105370952Y-87500517D01*
X105485745Y-87385724D01*
X106190022Y-87385724D01*
X106371042Y-87566744D01*
X106552062Y-87385724D01*
X107256339Y-87385724D01*
X107437359Y-87566744D01*
X107618379Y-87385724D01*
X108322656Y-87385724D01*
X108503676Y-87566744D01*
X108684696Y-87385724D01*
X108503676Y-87204704D01*
X108322656Y-87385724D01*
X107618379Y-87385724D01*
X107437359Y-87204704D01*
X107256339Y-87385724D01*
X106552062Y-87385724D01*
X106371042Y-87204704D01*
X106190022Y-87385724D01*
X105485745Y-87385724D01*
X105369490Y-87269469D01*
X104756156Y-87269469D01*
X104758161Y-86852565D01*
X105656863Y-86852565D01*
X105837884Y-87033585D01*
X106018903Y-86852566D01*
X106018902Y-86852565D01*
X106723180Y-86852565D01*
X106904201Y-87033585D01*
X107085220Y-86852566D01*
X107085219Y-86852565D01*
X107789497Y-86852565D01*
X107970518Y-87033585D01*
X108151537Y-86852566D01*
X108151536Y-86852565D01*
X108855814Y-86852565D01*
X109002000Y-86998751D01*
X109002000Y-86706379D01*
X108855814Y-86852565D01*
X108151536Y-86852565D01*
X107970517Y-86671545D01*
X107789497Y-86852565D01*
X107085219Y-86852565D01*
X106904200Y-86671545D01*
X106723180Y-86852565D01*
X106018902Y-86852565D01*
X105837883Y-86671545D01*
X105656863Y-86852565D01*
X104758161Y-86852565D01*
X104758880Y-86703032D01*
X104779210Y-86635008D01*
X104795784Y-86614543D01*
X104886222Y-86524105D01*
X104894326Y-86516678D01*
X104914749Y-86499541D01*
X104923194Y-86492455D01*
X104942039Y-86459815D01*
X104947943Y-86450547D01*
X104963231Y-86428713D01*
X104969553Y-86419684D01*
X104972406Y-86409038D01*
X104973883Y-86405870D01*
X104975076Y-86402593D01*
X104980588Y-86393045D01*
X104987132Y-86355931D01*
X104989512Y-86345196D01*
X104996410Y-86319454D01*
X104996423Y-86319407D01*
X106190022Y-86319407D01*
X106371042Y-86500427D01*
X106552062Y-86319407D01*
X107256339Y-86319407D01*
X107437359Y-86500427D01*
X107618379Y-86319407D01*
X108322656Y-86319407D01*
X108503676Y-86500427D01*
X108684696Y-86319407D01*
X108503676Y-86138387D01*
X108322656Y-86319407D01*
X107618379Y-86319407D01*
X107437359Y-86138387D01*
X107256339Y-86319407D01*
X106552062Y-86319407D01*
X106371042Y-86138387D01*
X106190022Y-86319407D01*
X104996423Y-86319407D01*
X104999263Y-86308807D01*
X104995979Y-86271269D01*
X104995500Y-86260288D01*
X104995500Y-85786248D01*
X105656863Y-85786248D01*
X105837884Y-85967268D01*
X106018903Y-85786249D01*
X106018902Y-85786248D01*
X106723180Y-85786248D01*
X106904201Y-85967268D01*
X107085220Y-85786249D01*
X107085219Y-85786248D01*
X107789497Y-85786248D01*
X107970518Y-85967268D01*
X108151537Y-85786249D01*
X108151536Y-85786248D01*
X108855814Y-85786248D01*
X109002000Y-85932434D01*
X109002000Y-85640062D01*
X108855814Y-85786248D01*
X108151536Y-85786248D01*
X107970517Y-85605228D01*
X107789497Y-85786248D01*
X107085219Y-85786248D01*
X106904200Y-85605228D01*
X106723180Y-85786248D01*
X106018902Y-85786248D01*
X105837883Y-85605228D01*
X105656863Y-85786248D01*
X104995500Y-85786248D01*
X104995500Y-85253090D01*
X106190022Y-85253090D01*
X106371042Y-85434110D01*
X106552062Y-85253090D01*
X107256339Y-85253090D01*
X107437359Y-85434110D01*
X107618379Y-85253090D01*
X108322656Y-85253090D01*
X108503676Y-85434110D01*
X108684696Y-85253090D01*
X108503676Y-85072070D01*
X108322656Y-85253090D01*
X107618379Y-85253090D01*
X107437359Y-85072070D01*
X107256339Y-85253090D01*
X106552062Y-85253090D01*
X106371042Y-85072070D01*
X106190022Y-85253090D01*
X104995500Y-85253090D01*
X104995500Y-84719931D01*
X105656863Y-84719931D01*
X105837884Y-84900951D01*
X106018903Y-84719932D01*
X106018902Y-84719931D01*
X106723180Y-84719931D01*
X106904201Y-84900951D01*
X107085220Y-84719932D01*
X107085219Y-84719931D01*
X107789497Y-84719931D01*
X107970518Y-84900951D01*
X108151537Y-84719932D01*
X108151536Y-84719931D01*
X108855814Y-84719931D01*
X109002000Y-84866117D01*
X109002000Y-84573745D01*
X108855814Y-84719931D01*
X108151536Y-84719931D01*
X107970517Y-84538911D01*
X107789497Y-84719931D01*
X107085219Y-84719931D01*
X106904200Y-84538911D01*
X106723180Y-84719931D01*
X106018902Y-84719931D01*
X105837883Y-84538911D01*
X105656863Y-84719931D01*
X104995500Y-84719931D01*
X104995500Y-84719710D01*
X104995980Y-84708728D01*
X104998303Y-84682180D01*
X104998303Y-84682178D01*
X104999264Y-84671193D01*
X104989508Y-84634785D01*
X104987130Y-84624058D01*
X104986538Y-84620699D01*
X104980588Y-84586955D01*
X104975077Y-84577410D01*
X104973885Y-84574134D01*
X104972408Y-84570966D01*
X104969554Y-84560316D01*
X104947945Y-84529456D01*
X104942039Y-84520185D01*
X104928707Y-84497094D01*
X104923194Y-84487545D01*
X104894317Y-84463315D01*
X104886215Y-84455889D01*
X104807398Y-84377072D01*
X104773372Y-84314760D01*
X104770494Y-84287371D01*
X104771634Y-84050142D01*
X105349114Y-84050142D01*
X105350265Y-84231936D01*
X105354477Y-84238549D01*
X105365197Y-84257118D01*
X105377488Y-84274670D01*
X105383395Y-84283942D01*
X105385291Y-84287227D01*
X105485745Y-84186773D01*
X106190022Y-84186773D01*
X106371042Y-84367793D01*
X106552062Y-84186773D01*
X107256339Y-84186773D01*
X107437359Y-84367793D01*
X107618379Y-84186773D01*
X108322656Y-84186773D01*
X108503676Y-84367793D01*
X108684696Y-84186773D01*
X108503676Y-84005753D01*
X108322656Y-84186773D01*
X107618379Y-84186773D01*
X107437359Y-84005753D01*
X107256339Y-84186773D01*
X106552062Y-84186773D01*
X106371042Y-84005753D01*
X106190022Y-84186773D01*
X105485745Y-84186773D01*
X105349114Y-84050142D01*
X104771634Y-84050142D01*
X104773540Y-83653614D01*
X105656863Y-83653614D01*
X105837884Y-83834634D01*
X106018903Y-83653615D01*
X106018902Y-83653614D01*
X106723180Y-83653614D01*
X106904201Y-83834634D01*
X107085220Y-83653615D01*
X107085219Y-83653614D01*
X107789497Y-83653614D01*
X107970518Y-83834634D01*
X108151537Y-83653615D01*
X108151536Y-83653614D01*
X108855814Y-83653614D01*
X109002000Y-83799800D01*
X109002000Y-83507428D01*
X108855814Y-83653614D01*
X108151536Y-83653614D01*
X107970517Y-83472594D01*
X107789497Y-83653614D01*
X107085219Y-83653614D01*
X106904200Y-83472594D01*
X106723180Y-83653614D01*
X106018902Y-83653614D01*
X105837883Y-83472594D01*
X105656863Y-83653614D01*
X104773540Y-83653614D01*
X104776793Y-82977033D01*
X105342322Y-82977033D01*
X105344127Y-83262074D01*
X105485745Y-83120456D01*
X106190022Y-83120456D01*
X106371042Y-83301476D01*
X106552062Y-83120456D01*
X107256339Y-83120456D01*
X107437359Y-83301476D01*
X107618379Y-83120456D01*
X108322656Y-83120456D01*
X108503676Y-83301476D01*
X108684696Y-83120456D01*
X108503676Y-82939436D01*
X108322656Y-83120456D01*
X107618379Y-83120456D01*
X107437359Y-82939436D01*
X107256339Y-83120456D01*
X106552062Y-83120456D01*
X106371042Y-82939436D01*
X106190022Y-83120456D01*
X105485745Y-83120456D01*
X105342322Y-82977033D01*
X104776793Y-82977033D01*
X104778667Y-82587297D01*
X105656863Y-82587297D01*
X105837884Y-82768317D01*
X106018903Y-82587298D01*
X106018902Y-82587297D01*
X106723180Y-82587297D01*
X106904201Y-82768317D01*
X107085220Y-82587298D01*
X107085219Y-82587297D01*
X107789497Y-82587297D01*
X107970518Y-82768317D01*
X108151537Y-82587298D01*
X108151536Y-82587297D01*
X108855814Y-82587297D01*
X109002000Y-82733483D01*
X109002000Y-82441111D01*
X108855814Y-82587297D01*
X108151536Y-82587297D01*
X107970517Y-82406277D01*
X107789497Y-82587297D01*
X107085219Y-82587297D01*
X106904200Y-82406277D01*
X106723180Y-82587297D01*
X106018902Y-82587297D01*
X105837883Y-82406277D01*
X105656863Y-82587297D01*
X104778667Y-82587297D01*
X104781952Y-81903925D01*
X105335531Y-81903925D01*
X105337420Y-82202464D01*
X105485745Y-82054139D01*
X106190022Y-82054139D01*
X106371042Y-82235159D01*
X106552062Y-82054139D01*
X107256339Y-82054139D01*
X107437359Y-82235159D01*
X107618379Y-82054139D01*
X108322656Y-82054139D01*
X108503676Y-82235159D01*
X108684696Y-82054139D01*
X108503676Y-81873119D01*
X108322656Y-82054139D01*
X107618379Y-82054139D01*
X107437359Y-81873119D01*
X107256339Y-82054139D01*
X106552062Y-82054139D01*
X106371042Y-81873119D01*
X106190022Y-82054139D01*
X105485745Y-82054139D01*
X105335531Y-81903925D01*
X104781952Y-81903925D01*
X104783793Y-81520980D01*
X105656863Y-81520980D01*
X105837884Y-81702000D01*
X106018903Y-81520981D01*
X106018902Y-81520980D01*
X106723180Y-81520980D01*
X106904201Y-81702000D01*
X107085220Y-81520981D01*
X107085219Y-81520980D01*
X107789497Y-81520980D01*
X107970518Y-81702000D01*
X108151537Y-81520981D01*
X108151536Y-81520980D01*
X108855814Y-81520980D01*
X109002000Y-81667166D01*
X109002000Y-81374794D01*
X108855814Y-81520980D01*
X108151536Y-81520980D01*
X107970517Y-81339960D01*
X107789497Y-81520980D01*
X107085219Y-81520980D01*
X106904200Y-81339960D01*
X106723180Y-81520980D01*
X106018902Y-81520980D01*
X105837883Y-81339960D01*
X105656863Y-81520980D01*
X104783793Y-81520980D01*
X104787111Y-80830816D01*
X105328739Y-80830816D01*
X105330714Y-81142853D01*
X105485745Y-80987822D01*
X106190022Y-80987822D01*
X106371042Y-81168842D01*
X106552062Y-80987822D01*
X107256339Y-80987822D01*
X107437359Y-81168842D01*
X107618379Y-80987822D01*
X108322656Y-80987822D01*
X108503676Y-81168842D01*
X108684696Y-80987822D01*
X108503676Y-80806802D01*
X108322656Y-80987822D01*
X107618379Y-80987822D01*
X107437359Y-80806802D01*
X107256339Y-80987822D01*
X106552062Y-80987822D01*
X106371042Y-80806802D01*
X106190022Y-80987822D01*
X105485745Y-80987822D01*
X105328739Y-80830816D01*
X104787111Y-80830816D01*
X104788920Y-80454663D01*
X105656863Y-80454663D01*
X105837884Y-80635683D01*
X106018903Y-80454664D01*
X106018902Y-80454663D01*
X106723180Y-80454663D01*
X106904201Y-80635683D01*
X107085220Y-80454664D01*
X107085219Y-80454663D01*
X107789497Y-80454663D01*
X107970518Y-80635683D01*
X108151537Y-80454664D01*
X108151536Y-80454663D01*
X108855814Y-80454663D01*
X109002000Y-80600849D01*
X109002000Y-80308477D01*
X108855814Y-80454663D01*
X108151536Y-80454663D01*
X107970517Y-80273643D01*
X107789497Y-80454663D01*
X107085219Y-80454663D01*
X106904200Y-80273643D01*
X106723180Y-80454663D01*
X106018902Y-80454663D01*
X105837883Y-80273643D01*
X105656863Y-80454663D01*
X104788920Y-80454663D01*
X104791073Y-80006756D01*
X104811403Y-79938732D01*
X104831478Y-79921505D01*
X106190022Y-79921505D01*
X106371042Y-80102525D01*
X106552062Y-79921505D01*
X107256339Y-79921505D01*
X107437359Y-80102525D01*
X107618379Y-79921505D01*
X108322656Y-79921505D01*
X108503676Y-80102525D01*
X108684696Y-79921505D01*
X108503676Y-79740485D01*
X108322656Y-79921505D01*
X107618379Y-79921505D01*
X107437359Y-79740485D01*
X107256339Y-79921505D01*
X106552062Y-79921505D01*
X106371042Y-79740485D01*
X106190022Y-79921505D01*
X104831478Y-79921505D01*
X104865281Y-79892498D01*
X104935603Y-79882732D01*
X104939720Y-79883587D01*
X104943238Y-79885044D01*
X104951422Y-79886121D01*
X104951424Y-79886122D01*
X105091812Y-79904604D01*
X105100000Y-79905682D01*
X105108188Y-79904604D01*
X105248574Y-79886122D01*
X105256762Y-79885044D01*
X105402841Y-79824536D01*
X105528282Y-79728282D01*
X105624536Y-79602841D01*
X105685044Y-79456762D01*
X105694051Y-79388346D01*
X106723180Y-79388346D01*
X106904201Y-79569366D01*
X107085220Y-79388347D01*
X107085219Y-79388346D01*
X107789497Y-79388346D01*
X107970518Y-79569366D01*
X108151537Y-79388347D01*
X108151536Y-79388346D01*
X108855814Y-79388346D01*
X109002000Y-79534532D01*
X109002000Y-79242160D01*
X108855814Y-79388346D01*
X108151536Y-79388346D01*
X107970517Y-79207326D01*
X107789497Y-79388346D01*
X107085219Y-79388346D01*
X106904200Y-79207326D01*
X106723180Y-79388346D01*
X105694051Y-79388346D01*
X105705682Y-79300000D01*
X105685044Y-79143238D01*
X105624536Y-78997159D01*
X105528282Y-78871718D01*
X105506740Y-78855188D01*
X106190022Y-78855188D01*
X106371042Y-79036208D01*
X106552062Y-78855188D01*
X107256339Y-78855188D01*
X107437359Y-79036208D01*
X107618379Y-78855188D01*
X108322656Y-78855188D01*
X108503676Y-79036208D01*
X108684696Y-78855188D01*
X108503676Y-78674168D01*
X108322656Y-78855188D01*
X107618379Y-78855188D01*
X107437359Y-78674168D01*
X107256339Y-78855188D01*
X106552062Y-78855188D01*
X106371042Y-78674168D01*
X106190022Y-78855188D01*
X105506740Y-78855188D01*
X105402841Y-78775464D01*
X105256762Y-78714956D01*
X105100000Y-78694318D01*
X104943238Y-78714956D01*
X104942874Y-78712195D01*
X104885527Y-78710834D01*
X104826728Y-78671045D01*
X104798774Y-78605783D01*
X104797883Y-78590208D01*
X104798357Y-78491789D01*
X104799173Y-78322029D01*
X105656863Y-78322029D01*
X105745557Y-78410723D01*
X105831445Y-78476627D01*
X105837819Y-78481859D01*
X105849142Y-78491789D01*
X106018903Y-78322029D01*
X106723180Y-78322029D01*
X106904200Y-78503049D01*
X107085220Y-78322029D01*
X107789497Y-78322029D01*
X107970517Y-78503049D01*
X108151537Y-78322029D01*
X108855814Y-78322029D01*
X109002000Y-78468215D01*
X109002000Y-78175843D01*
X108855814Y-78322029D01*
X108151537Y-78322029D01*
X107970517Y-78141009D01*
X107789497Y-78322029D01*
X107085220Y-78322029D01*
X106904200Y-78141009D01*
X106723180Y-78322029D01*
X106018903Y-78322029D01*
X105837883Y-78141009D01*
X105656863Y-78322029D01*
X104799173Y-78322029D01*
X104800000Y-78150000D01*
X104786112Y-78150081D01*
X104784263Y-78149680D01*
X104721932Y-78115688D01*
X104687874Y-78053394D01*
X104684983Y-78027342D01*
X104684620Y-77969891D01*
X104682352Y-77611490D01*
X105308364Y-77611490D01*
X105310595Y-77964021D01*
X105485745Y-77788871D01*
X106190022Y-77788871D01*
X106371042Y-77969891D01*
X106552062Y-77788871D01*
X107256339Y-77788871D01*
X107437359Y-77969891D01*
X107618379Y-77788871D01*
X108322656Y-77788871D01*
X108503676Y-77969891D01*
X108684696Y-77788871D01*
X108503676Y-77607851D01*
X108322656Y-77788871D01*
X107618379Y-77788871D01*
X107437359Y-77607851D01*
X107256339Y-77788871D01*
X106552062Y-77788871D01*
X106371042Y-77607851D01*
X106190022Y-77788871D01*
X105485745Y-77788871D01*
X105308364Y-77611490D01*
X104682352Y-77611490D01*
X104680100Y-77255712D01*
X105656863Y-77255712D01*
X105837883Y-77436732D01*
X106018903Y-77255712D01*
X106723180Y-77255712D01*
X106904200Y-77436732D01*
X107085220Y-77255712D01*
X107789497Y-77255712D01*
X107970517Y-77436732D01*
X108151537Y-77255712D01*
X108855814Y-77255712D01*
X109002000Y-77401898D01*
X109002000Y-77109526D01*
X108855814Y-77255712D01*
X108151537Y-77255712D01*
X107970517Y-77074692D01*
X107789497Y-77255712D01*
X107085220Y-77255712D01*
X106904200Y-77074692D01*
X106723180Y-77255712D01*
X106018903Y-77255712D01*
X105837883Y-77074692D01*
X105656863Y-77255712D01*
X104680100Y-77255712D01*
X104675599Y-76544647D01*
X105301611Y-76544647D01*
X105303878Y-76902727D01*
X105304725Y-76903574D01*
X105485745Y-76722554D01*
X106190022Y-76722554D01*
X106371042Y-76903574D01*
X106552062Y-76722554D01*
X107256339Y-76722554D01*
X107437359Y-76903574D01*
X107618379Y-76722554D01*
X108322656Y-76722554D01*
X108503676Y-76903574D01*
X108684696Y-76722554D01*
X108503676Y-76541534D01*
X108322656Y-76722554D01*
X107618379Y-76722554D01*
X107437359Y-76541534D01*
X107256339Y-76722554D01*
X106552062Y-76722554D01*
X106371042Y-76541534D01*
X106190022Y-76722554D01*
X105485745Y-76722554D01*
X105304724Y-76541534D01*
X105301611Y-76544647D01*
X104675599Y-76544647D01*
X104673351Y-76189395D01*
X105656863Y-76189395D01*
X105837883Y-76370415D01*
X106018903Y-76189395D01*
X106723180Y-76189395D01*
X106904200Y-76370415D01*
X107085220Y-76189395D01*
X107789497Y-76189395D01*
X107970517Y-76370415D01*
X108151537Y-76189395D01*
X108855814Y-76189395D01*
X109002000Y-76335581D01*
X109002000Y-76043209D01*
X108855814Y-76189395D01*
X108151537Y-76189395D01*
X107970517Y-76008375D01*
X107789497Y-76189395D01*
X107085220Y-76189395D01*
X106904200Y-76008375D01*
X106723180Y-76189395D01*
X106018903Y-76189395D01*
X105837883Y-76008375D01*
X105656863Y-76189395D01*
X104673351Y-76189395D01*
X104668893Y-75485038D01*
X105294905Y-75485038D01*
X105297086Y-75829618D01*
X105304725Y-75837257D01*
X105485745Y-75656237D01*
X106190022Y-75656237D01*
X106371042Y-75837257D01*
X106552062Y-75656237D01*
X107256339Y-75656237D01*
X107437359Y-75837257D01*
X107618379Y-75656237D01*
X108322656Y-75656237D01*
X108503676Y-75837257D01*
X108684696Y-75656237D01*
X108503676Y-75475217D01*
X108322656Y-75656237D01*
X107618379Y-75656237D01*
X107437359Y-75475217D01*
X107256339Y-75656237D01*
X106552062Y-75656237D01*
X106371042Y-75475217D01*
X106190022Y-75656237D01*
X105485745Y-75656237D01*
X105304725Y-75475217D01*
X105294905Y-75485038D01*
X104668893Y-75485038D01*
X104666602Y-75123078D01*
X105656863Y-75123078D01*
X105837883Y-75304098D01*
X106018903Y-75123078D01*
X106723180Y-75123078D01*
X106904200Y-75304098D01*
X107085220Y-75123078D01*
X107789497Y-75123078D01*
X107970517Y-75304098D01*
X108151537Y-75123078D01*
X108855814Y-75123078D01*
X109002000Y-75269264D01*
X109002000Y-74976892D01*
X108855814Y-75123078D01*
X108151537Y-75123078D01*
X107970517Y-74942058D01*
X107789497Y-75123078D01*
X107085220Y-75123078D01*
X106904200Y-74942058D01*
X106723180Y-75123078D01*
X106018903Y-75123078D01*
X105837883Y-74942058D01*
X105656863Y-75123078D01*
X104666602Y-75123078D01*
X104662186Y-74425426D01*
X105288198Y-74425426D01*
X105290295Y-74756510D01*
X105304725Y-74770940D01*
X105485745Y-74589920D01*
X106190022Y-74589920D01*
X106371042Y-74770940D01*
X106552062Y-74589920D01*
X107256339Y-74589920D01*
X107437359Y-74770940D01*
X107618379Y-74589920D01*
X108322656Y-74589920D01*
X108503676Y-74770940D01*
X108684696Y-74589920D01*
X108503676Y-74408900D01*
X108322656Y-74589920D01*
X107618379Y-74589920D01*
X107437359Y-74408900D01*
X107256339Y-74589920D01*
X106552062Y-74589920D01*
X106371042Y-74408900D01*
X106190022Y-74589920D01*
X105485745Y-74589920D01*
X105304724Y-74408900D01*
X105288198Y-74425426D01*
X104662186Y-74425426D01*
X104659853Y-74056761D01*
X105656863Y-74056761D01*
X105837883Y-74237781D01*
X106018903Y-74056761D01*
X106723180Y-74056761D01*
X106904200Y-74237781D01*
X107085220Y-74056761D01*
X107789497Y-74056761D01*
X107970517Y-74237781D01*
X108151537Y-74056761D01*
X108855814Y-74056761D01*
X109002000Y-74202947D01*
X109002000Y-73910575D01*
X108855814Y-74056761D01*
X108151537Y-74056761D01*
X107970517Y-73875741D01*
X107789497Y-74056761D01*
X107085220Y-74056761D01*
X106904200Y-73875741D01*
X106723180Y-74056761D01*
X106018903Y-74056761D01*
X105837883Y-73875741D01*
X105656863Y-74056761D01*
X104659853Y-74056761D01*
X104655480Y-73365815D01*
X105281492Y-73365815D01*
X105283503Y-73683401D01*
X105304725Y-73704623D01*
X105485745Y-73523603D01*
X106190022Y-73523603D01*
X106371042Y-73704623D01*
X106552062Y-73523603D01*
X107256339Y-73523603D01*
X107437359Y-73704623D01*
X107618379Y-73523603D01*
X108322656Y-73523603D01*
X108503676Y-73704623D01*
X108684696Y-73523603D01*
X108503676Y-73342583D01*
X108322656Y-73523603D01*
X107618379Y-73523603D01*
X107437359Y-73342583D01*
X107256339Y-73523603D01*
X106552062Y-73523603D01*
X106371042Y-73342583D01*
X106190022Y-73523603D01*
X105485745Y-73523603D01*
X105304724Y-73342583D01*
X105281492Y-73365815D01*
X104655480Y-73365815D01*
X104653962Y-73126000D01*
X105792419Y-73126000D01*
X105837883Y-73171464D01*
X105883346Y-73126000D01*
X106858736Y-73126000D01*
X106904200Y-73171464D01*
X106949663Y-73126000D01*
X107925053Y-73126000D01*
X107970517Y-73171464D01*
X108015980Y-73126000D01*
X108991370Y-73126000D01*
X109002000Y-73136630D01*
X109002000Y-73126000D01*
X108991370Y-73126000D01*
X108015980Y-73126000D01*
X107925053Y-73126000D01*
X106949663Y-73126000D01*
X106858736Y-73126000D01*
X105883346Y-73126000D01*
X105792419Y-73126000D01*
X104653962Y-73126000D01*
X104650803Y-72626797D01*
X104670373Y-72558551D01*
X104723733Y-72511720D01*
X104776800Y-72500000D01*
X109374000Y-72500000D01*
X109442121Y-72520002D01*
G37*
%TD.AperFunction*%
M02*
