M48
; DRILL file {KiCad (6.0.2)} date Wed 18 May 2022 04:01:19 PM MDT
; FORMAT={-:-/ absolute / inch / decimal}
; #@! TF.CreationDate,2022-05-18T16:01:19-06:00
; #@! TF.GenerationSoftware,Kicad,Pcbnew,(6.0.2)
; #@! TF.FileFunction,Plated,1,4,PTH
FMAT,2
INCH
; #@! TA.AperFunction,Plated,PTH,ViaDrill
T1C0.0079
; #@! TA.AperFunction,Plated,PTH,ComponentDrill
T2C0.0118
; #@! TA.AperFunction,Plated,PTH,ComponentDrill
T3C0.0138
; #@! TA.AperFunction,Plated,PTH,ViaDrill
T4C0.0157
; #@! TA.AperFunction,Plated,PTH,ComponentDrill
T5C0.0157
; #@! TA.AperFunction,Plated,PTH,ComponentDrill
T6C0.0256
; #@! TA.AperFunction,Plated,PTH,ComponentDrill
T7C0.0394
; #@! TA.AperFunction,Plated,PTH,ComponentDrill
T8C0.0509
; #@! TA.AperFunction,Plated,PTH,ComponentDrill
T9C0.1260
%
G90
G05
T1
X1.0231Y-3.8705
X1.0437Y-3.7362
X1.0709Y-3.7669
X1.0969Y-3.7969
X1.1224Y-3.8315
X1.2134Y-4.7291
X1.2748Y-2.8366
X1.2992Y-2.815
X1.3075Y-2.8811
X1.3232Y-2.7898
X1.3461Y-2.7628
X1.361Y-4.9957
X1.4303Y-5.1213
X1.4736Y-5.0819
X1.4843Y-5.1484
X1.4937Y-4.8287
X1.5327Y-4.6839
X1.5327Y-4.7157
X1.5327Y-4.8287
X1.613Y-4.7429
X1.6992Y-4.7433
X1.7425Y-3.1476
X1.7661Y-4.2528
X1.7665Y-4.2031
X1.7866Y-4.2925
X1.7933Y-3.148
X1.8132Y-2.5947
X1.8209Y-2.6232
X1.8209Y-2.6472
X1.8331Y-4.2528
X1.8433Y-5.1976
X1.8541Y-4.2925
X1.8785Y-5.1976
X1.9114Y-3.8945
X1.9138Y-5.1972
X1.9138Y-5.2362
X1.9173Y-4.2028
X1.926Y-5.039
X1.926Y-5.0776
X1.926Y-5.1165
X1.9264Y-5.0051
X1.9409Y-3.9488
X1.9984Y-5.1157
X1.9984Y-5.1555
X1.9988Y-5.0043
X1.9988Y-5.0768
X2.0268Y-4.8602
X2.0287Y-5.0382
X2.0878Y-4.8557
X2.1173Y-4.2886
X2.1512Y-4.8555
X2.161Y-4.523
X2.1787Y-4.4969
X2.2165Y-4.3878
X2.2201Y-4.6563
X2.2307Y-4.2886
X2.2458Y-4.3524
X2.5409Y-4.6575
X3.5709Y-5.4134
X3.5959Y-5.4134
X3.621Y-5.4134
X3.6461Y-5.4134
X3.7988Y-4.5433
X3.9256Y-4.5433
X3.972Y-4.4705
X4.0492Y-4.4705
X4.0496Y-4.5114
T2
X2.0421Y-5.275
X3.7825Y-2.5236
X3.7825Y-2.6122
X3.8455Y-2.5236
X3.8455Y-2.6122
X3.9085Y-2.5236
X3.9085Y-2.6122
X3.9715Y-2.5236
X3.9715Y-2.6122
T3
X1.5439Y-2.747
X1.5439Y-2.7972
X1.5439Y-2.8474
X1.5941Y-2.747
X1.5941Y-2.7972
X1.5941Y-2.8474
X1.6443Y-2.747
X1.6443Y-2.7972
X1.6443Y-2.8474
X1.8692Y-4.6465
X1.9047Y-4.611
X1.9047Y-4.682
X1.9402Y-4.5755
X1.9402Y-4.6465
X1.9402Y-4.7174
X1.9757Y-4.611
X1.9757Y-4.682
X2.0111Y-4.6465
T4
X0.985Y-4.3752
X1.1268Y-2.5319
X1.1493Y-2.2139
X1.1937Y-2.2134
X1.2839Y-4.3028
X1.3213Y-2.9728
X1.3799Y-2.9106
X1.3807Y-2.6528
X1.398Y-4.0933
X1.4051Y-4.8335
X1.4323Y-3.1173
X1.4449Y-2.6244
X1.4488Y-3.9614
X1.4909Y-2.3925
X1.5134Y-5.0811
X1.5343Y-4.0933
X1.5516Y-3.0484
X1.5626Y-2.4992
X1.6094Y-3.0811
X1.6295Y-2.4205
X1.6369Y-2.3127
X1.6638Y-3.048
X1.6646Y-4.9122
X1.6984Y-2.585
X1.6993Y-2.5457
X1.7035Y-5.1008
X1.7327Y-4.1201
X1.8157Y-2.8728
X1.8256Y-2.5028
X1.8268Y-2.4614
X1.8579Y-2.6433
X1.8843Y-2.837
X1.9113Y-3.2028
X1.9113Y-3.2697
X1.9173Y-4.335
X1.9327Y-4.965
X1.9362Y-4.4402
X1.9551Y-4.335
X2.013Y-3.65
X2.0189Y-3.0827
X2.0201Y-3.5913
X2.0268Y-3.6925
X2.0295Y-4.965
X2.0587Y-2.5083
X2.0626Y-2.1935
X2.0626Y-2.2427
X2.0693Y-3.5469
X2.0697Y-3.0831
X2.113Y-2.4504
X2.15Y-5.0505
X2.163Y-2.4059
X2.1842Y-4.989
X2.2118Y-3.8701
X2.2126Y-5.1587
X2.2126Y-5.2752
X2.2891Y-2.5076
X2.3909Y-2.4504
X2.474Y-2.4051
X2.5323Y-4.8972
X2.6606Y-3.7665
X2.6858Y-3.1362
X2.7134Y-3.7969
X2.7579Y-3.2028
X2.7579Y-3.2697
X2.7693Y-3.7366
X2.8024Y-2.4539
X2.8543Y-2.0823
X2.8555Y-2.6484
X2.8583Y-1.772
X2.8583Y-1.872
X2.8583Y-1.9823
X2.8583Y-2.1921
X2.8583Y-2.2913
X2.8949Y-2.6484
X2.8949Y-4.8929
X2.9008Y-4.3425
X2.9126Y-3.0224
X2.9134Y-2.8386
X2.9343Y-2.6484
X2.9421Y-3.8315
X2.9524Y-2.8386
X2.9913Y-2.8386
X3.0193Y-2.9866
X3.0661Y-2.9866
X3.0709Y-2.7283
X3.0709Y-2.7677
X3.113Y-2.9866
X3.122Y-2.7283
X3.122Y-2.7677
X3.174Y-2.2169
X3.1909Y-2.7677
X3.2402Y-2.2185
X3.2768Y-4.5787
X3.4016Y-2.7087
X3.4016Y-2.7717
X3.4339Y-4.9449
X3.4606Y-2.7087
X3.4606Y-2.7717
X3.5047Y-4.6291
X3.5051Y-2.985
X3.5236Y-2.7717
X3.5274Y-4.8906
X3.5276Y-4.9449
X3.5278Y-4.7736
X3.552Y-2.985
X3.5866Y-4.5268
X3.5882Y-5.1815
X3.5988Y-2.985
X3.6693Y-4.7736
X3.685Y-2.1575
X3.685Y-2.1969
X3.689Y-2.3543
X3.689Y-2.3976
X3.7244Y-2.1575
X3.7244Y-2.1969
X3.7638Y-2.1575
X3.7638Y-2.1969
X3.8421Y-4.7776
X3.928Y-4.6732
X3.9283Y-4.778
X3.9961Y-2.1614
X3.9961Y-2.2008
X4.0354Y-2.1614
X4.0354Y-2.2008
X4.0748Y-2.1614
X4.0748Y-2.2008
X4.0772Y-4.6079
X4.1102Y-2.5276
X4.1102Y-2.5669
X4.1102Y-2.6142
T5
X2.7828Y-5.2534
X2.7828Y-5.4503
X2.8615Y-5.2534
X2.8615Y-5.4503
X2.9403Y-5.2534
X2.9403Y-5.4503
X3.019Y-5.2534
X3.019Y-5.4503
X3.0977Y-5.2534
X3.0977Y-5.4503
X3.1765Y-5.2534
X3.1765Y-5.4503
X3.2552Y-5.2534
X3.2552Y-5.4503
X3.334Y-5.2534
X3.334Y-5.4503
X3.4127Y-5.2534
X3.4127Y-5.4503
X3.4914Y-5.4503
T6
X1.0563Y-4.6224
X1.0563Y-4.6724
X1.0563Y-4.7224
X1.0563Y-4.7724
X1.0563Y-4.8224
X1.0563Y-4.8724
X1.0571Y-4.9957
X1.0571Y-5.0457
X1.0571Y-5.0957
X1.0571Y-5.1457
X1.0571Y-5.1957
X1.0571Y-5.2457
T7
X4.1114Y-3.3933
X4.1114Y-3.4933
X4.1114Y-3.5933
X4.1114Y-3.6933
X4.1114Y-3.7933
X4.1114Y-3.8933
X4.1114Y-3.9933
X4.1114Y-4.0933
X4.1114Y-4.1933
X4.1114Y-4.2933
T8
X1.1427Y-1.7732
X1.1427Y-2.0232
X1.3077Y-1.7732
X1.3077Y-2.0232
X1.4726Y-1.7732
X1.4726Y-2.0232
X1.6376Y-1.7732
X1.6376Y-2.0232
X1.8026Y-1.7732
X1.8026Y-2.0232
X1.9675Y-1.7732
X1.9675Y-2.0232
X3.3081Y-1.7732
X3.3081Y-2.0232
X3.473Y-1.7732
X3.473Y-2.0232
X3.638Y-1.7732
X3.638Y-2.0232
X3.803Y-1.7732
X3.803Y-2.0232
X3.9679Y-1.7732
X3.9679Y-2.0232
X4.1329Y-1.7732
X4.1329Y-2.0232
T9
X2.6378Y-2.9134
T0
M30
