%TF.GenerationSoftware,KiCad,Pcbnew,(6.0.2-0)*%
%TF.CreationDate,2022-05-17T22:41:33-06:00*%
%TF.ProjectId,RGB-controller,5247422d-636f-46e7-9472-6f6c6c65722e,rev?*%
%TF.SameCoordinates,Original*%
%TF.FileFunction,Legend,Top*%
%TF.FilePolarity,Positive*%
%FSLAX46Y46*%
G04 Gerber Fmt 4.6, Leading zero omitted, Abs format (unit mm)*
G04 Created by KiCad (PCBNEW (6.0.2-0)) date 2022-05-17 22:41:33*
%MOMM*%
%LPD*%
G01*
G04 APERTURE LIST*
G04 Aperture macros list*
%AMRoundRect*
0 Rectangle with rounded corners*
0 $1 Rounding radius*
0 $2 $3 $4 $5 $6 $7 $8 $9 X,Y pos of 4 corners*
0 Add a 4 corners polygon primitive as box body*
4,1,4,$2,$3,$4,$5,$6,$7,$8,$9,$2,$3,0*
0 Add four circle primitives for the rounded corners*
1,1,$1+$1,$2,$3*
1,1,$1+$1,$4,$5*
1,1,$1+$1,$6,$7*
1,1,$1+$1,$8,$9*
0 Add four rect primitives between the rounded corners*
20,1,$1+$1,$2,$3,$4,$5,0*
20,1,$1+$1,$4,$5,$6,$7,0*
20,1,$1+$1,$6,$7,$8,$9,0*
20,1,$1+$1,$8,$9,$2,$3,0*%
%AMRotRect*
0 Rectangle, with rotation*
0 The origin of the aperture is its center*
0 $1 length*
0 $2 width*
0 $3 Rotation angle, in degrees counterclockwise*
0 Add horizontal line*
21,1,$1,$2,0,0,$3*%
%AMFreePoly0*
4,1,22,0.550000,-0.750000,0.000000,-0.750000,0.000000,-0.745033,-0.079941,-0.743568,-0.215256,-0.701293,-0.333266,-0.622738,-0.424486,-0.514219,-0.481581,-0.384460,-0.499164,-0.250000,-0.500000,-0.250000,-0.500000,0.250000,-0.499164,0.250000,-0.499963,0.256109,-0.478152,0.396186,-0.417904,0.524511,-0.324060,0.630769,-0.204165,0.706417,-0.067858,0.745374,0.000000,0.744959,0.000000,0.750000,
0.550000,0.750000,0.550000,-0.750000,0.550000,-0.750000,$1*%
%AMFreePoly1*
4,1,20,0.000000,0.744959,0.073905,0.744508,0.209726,0.703889,0.328688,0.626782,0.421226,0.519385,0.479903,0.390333,0.500000,0.250000,0.500000,-0.250000,0.499851,-0.262216,0.476331,-0.402017,0.414519,-0.529596,0.319384,-0.634700,0.198574,-0.708877,0.061801,-0.746166,0.000000,-0.745033,0.000000,-0.750000,-0.550000,-0.750000,-0.550000,0.750000,0.000000,0.750000,0.000000,0.744959,
0.000000,0.744959,$1*%
G04 Aperture macros list end*
%ADD10C,0.150000*%
%ADD11C,0.125000*%
%ADD12C,0.120000*%
%ADD13C,0.127000*%
%ADD14C,0.200000*%
%ADD15C,0.203200*%
%ADD16C,0.254000*%
%ADD17C,0.250000*%
%ADD18RoundRect,0.135000X-0.135000X-0.185000X0.135000X-0.185000X0.135000X0.185000X-0.135000X0.185000X0*%
%ADD19R,1.100000X1.100000*%
%ADD20RoundRect,0.250000X0.250000X0.475000X-0.250000X0.475000X-0.250000X-0.475000X0.250000X-0.475000X0*%
%ADD21RoundRect,0.140000X-0.140000X-0.170000X0.140000X-0.170000X0.140000X0.170000X-0.140000X0.170000X0*%
%ADD22R,5.700000X1.600000*%
%ADD23RoundRect,0.250000X-0.475000X0.250000X-0.475000X-0.250000X0.475000X-0.250000X0.475000X0.250000X0*%
%ADD24RoundRect,0.140000X-0.021213X0.219203X-0.219203X0.021213X0.021213X-0.219203X0.219203X-0.021213X0*%
%ADD25RoundRect,0.140000X0.170000X-0.140000X0.170000X0.140000X-0.170000X0.140000X-0.170000X-0.140000X0*%
%ADD26C,0.990600*%
%ADD27C,0.787400*%
%ADD28RoundRect,0.150000X0.825000X0.150000X-0.825000X0.150000X-0.825000X-0.150000X0.825000X-0.150000X0*%
%ADD29RoundRect,0.140000X-0.219203X-0.021213X-0.021213X-0.219203X0.219203X0.021213X0.021213X0.219203X0*%
%ADD30RoundRect,0.200000X-0.200000X-0.275000X0.200000X-0.275000X0.200000X0.275000X-0.200000X0.275000X0*%
%ADD31R,1.000000X1.000000*%
%ADD32O,1.000000X1.000000*%
%ADD33RoundRect,0.250000X-0.550000X1.250000X-0.550000X-1.250000X0.550000X-1.250000X0.550000X1.250000X0*%
%ADD34RoundRect,0.135000X-0.035355X0.226274X-0.226274X0.035355X0.035355X-0.226274X0.226274X-0.035355X0*%
%ADD35R,1.400000X1.200000*%
%ADD36RoundRect,0.135000X0.135000X0.185000X-0.135000X0.185000X-0.135000X-0.185000X0.135000X-0.185000X0*%
%ADD37R,0.700000X1.200000*%
%ADD38R,1.000000X1.200000*%
%ADD39R,1.300000X1.900000*%
%ADD40R,1.000000X2.800000*%
%ADD41R,1.000000X0.800000*%
%ADD42FreePoly0,90.000000*%
%ADD43R,1.500000X1.000000*%
%ADD44FreePoly1,90.000000*%
%ADD45R,1.700000X0.650000*%
%ADD46RoundRect,0.140000X0.140000X0.170000X-0.140000X0.170000X-0.140000X-0.170000X0.140000X-0.170000X0*%
%ADD47R,3.000000X1.200000*%
%ADD48RoundRect,0.135000X-0.185000X0.135000X-0.185000X-0.135000X0.185000X-0.135000X0.185000X0.135000X0*%
%ADD49R,2.200000X1.050000*%
%ADD50R,1.050000X1.000000*%
%ADD51C,1.000000*%
%ADD52RoundRect,0.147500X-0.172500X0.147500X-0.172500X-0.147500X0.172500X-0.147500X0.172500X0.147500X0*%
%ADD53RoundRect,0.135000X0.185000X-0.135000X0.185000X0.135000X-0.185000X0.135000X-0.185000X-0.135000X0*%
%ADD54RoundRect,0.140000X-0.170000X0.140000X-0.170000X-0.140000X0.170000X-0.140000X0.170000X0.140000X0*%
%ADD55RoundRect,0.050000X0.309359X-0.238649X-0.238649X0.309359X-0.309359X0.238649X0.238649X-0.309359X0*%
%ADD56RoundRect,0.050000X0.309359X0.238649X0.238649X0.309359X-0.309359X-0.238649X-0.238649X-0.309359X0*%
%ADD57RoundRect,0.144000X2.059095X0.000000X0.000000X2.059095X-2.059095X0.000000X0.000000X-2.059095X0*%
%ADD58R,2.056000X2.056000*%
%ADD59C,2.056000*%
%ADD60RoundRect,0.150000X-0.725000X-0.150000X0.725000X-0.150000X0.725000X0.150000X-0.725000X0.150000X0*%
%ADD61RoundRect,0.250000X0.475000X-0.250000X0.475000X0.250000X-0.475000X0.250000X-0.475000X-0.250000X0*%
%ADD62RoundRect,0.218750X-0.218750X-0.256250X0.218750X-0.256250X0.218750X0.256250X-0.218750X0.256250X0*%
%ADD63RoundRect,0.147500X0.147500X0.172500X-0.147500X0.172500X-0.147500X-0.172500X0.147500X-0.172500X0*%
%ADD64R,2.290000X3.000000*%
%ADD65R,2.000000X2.000000*%
%ADD66RoundRect,0.200000X0.200000X0.275000X-0.200000X0.275000X-0.200000X-0.275000X0.200000X-0.275000X0*%
%ADD67RoundRect,0.135000X0.035355X-0.226274X0.226274X-0.035355X-0.035355X0.226274X-0.226274X0.035355X0*%
%ADD68RoundRect,0.140000X0.021213X-0.219203X0.219203X-0.021213X-0.021213X0.219203X-0.219203X0.021213X0*%
%ADD69C,5.600000*%
%ADD70R,1.000000X1.800000*%
%ADD71RoundRect,0.100000X-0.100000X0.637500X-0.100000X-0.637500X0.100000X-0.637500X0.100000X0.637500X0*%
%ADD72R,5.400000X2.850000*%
%ADD73R,1.700000X1.700000*%
%ADD74O,1.700000X1.700000*%
%ADD75RotRect,1.400000X1.200000X135.000000*%
%ADD76RoundRect,0.250000X-0.450000X0.262500X-0.450000X-0.262500X0.450000X-0.262500X0.450000X0.262500X0*%
%ADD77RoundRect,0.050000X-0.387500X-0.050000X0.387500X-0.050000X0.387500X0.050000X-0.387500X0.050000X0*%
%ADD78RoundRect,0.050000X-0.050000X-0.387500X0.050000X-0.387500X0.050000X0.387500X-0.050000X0.387500X0*%
%ADD79RoundRect,0.144000X-1.456000X-1.456000X1.456000X-1.456000X1.456000X1.456000X-1.456000X1.456000X0*%
G04 APERTURE END LIST*
D10*
X28585714Y-128104047D02*
X28369048Y-127794523D01*
X28214286Y-128104047D02*
X28214286Y-127454047D01*
X28461905Y-127454047D01*
X28523809Y-127485000D01*
X28554762Y-127515952D01*
X28585714Y-127577857D01*
X28585714Y-127670714D01*
X28554762Y-127732619D01*
X28523809Y-127763571D01*
X28461905Y-127794523D01*
X28214286Y-127794523D01*
X28802381Y-127454047D02*
X29235714Y-128104047D01*
X29235714Y-127454047D02*
X28802381Y-128104047D01*
X29483333Y-128104047D02*
X29483333Y-127454047D01*
X29638095Y-127454047D01*
X29730952Y-127485000D01*
X29792857Y-127546904D01*
X29823809Y-127608809D01*
X29854762Y-127732619D01*
X29854762Y-127825476D01*
X29823809Y-127949285D01*
X29792857Y-128011190D01*
X29730952Y-128073095D01*
X29638095Y-128104047D01*
X29483333Y-128104047D01*
X97169523Y-96174571D02*
X97502857Y-96174571D01*
X97645714Y-96698380D02*
X97169523Y-96698380D01*
X97169523Y-95698380D01*
X97645714Y-95698380D01*
X98026666Y-96650761D02*
X98169523Y-96698380D01*
X98407619Y-96698380D01*
X98502857Y-96650761D01*
X98550476Y-96603142D01*
X98598095Y-96507904D01*
X98598095Y-96412666D01*
X98550476Y-96317428D01*
X98502857Y-96269809D01*
X98407619Y-96222190D01*
X98217142Y-96174571D01*
X98121904Y-96126952D01*
X98074285Y-96079333D01*
X98026666Y-95984095D01*
X98026666Y-95888857D01*
X98074285Y-95793619D01*
X98121904Y-95746000D01*
X98217142Y-95698380D01*
X98455238Y-95698380D01*
X98598095Y-95746000D01*
X99026666Y-96698380D02*
X99026666Y-95698380D01*
X99407619Y-95698380D01*
X99502857Y-95746000D01*
X99550476Y-95793619D01*
X99598095Y-95888857D01*
X99598095Y-96031714D01*
X99550476Y-96126952D01*
X99502857Y-96174571D01*
X99407619Y-96222190D01*
X99026666Y-96222190D01*
X100788571Y-96698380D02*
X100788571Y-95698380D01*
X101026666Y-95698380D01*
X101169523Y-95746000D01*
X101264761Y-95841238D01*
X101312380Y-95936476D01*
X101360000Y-96126952D01*
X101360000Y-96269809D01*
X101312380Y-96460285D01*
X101264761Y-96555523D01*
X101169523Y-96650761D01*
X101026666Y-96698380D01*
X100788571Y-96698380D01*
X101788571Y-96317428D02*
X102550476Y-96317428D01*
X28121428Y-129634047D02*
X28492857Y-129634047D01*
X28307143Y-130284047D02*
X28307143Y-129634047D01*
X28647619Y-129634047D02*
X29080952Y-130284047D01*
X29080952Y-129634047D02*
X28647619Y-130284047D01*
X29328571Y-130284047D02*
X29328571Y-129634047D01*
X29483333Y-129634047D01*
X29576190Y-129665000D01*
X29638095Y-129726904D01*
X29669047Y-129788809D01*
X29700000Y-129912619D01*
X29700000Y-130005476D01*
X29669047Y-130129285D01*
X29638095Y-130191190D01*
X29576190Y-130253095D01*
X29483333Y-130284047D01*
X29328571Y-130284047D01*
X29218571Y-77624047D02*
X29218571Y-78150238D01*
X29249523Y-78212142D01*
X29280476Y-78243095D01*
X29342380Y-78274047D01*
X29466190Y-78274047D01*
X29528095Y-78243095D01*
X29559047Y-78212142D01*
X29590000Y-78150238D01*
X29590000Y-77624047D01*
X29868571Y-78243095D02*
X29961428Y-78274047D01*
X30116190Y-78274047D01*
X30178095Y-78243095D01*
X30209047Y-78212142D01*
X30240000Y-78150238D01*
X30240000Y-78088333D01*
X30209047Y-78026428D01*
X30178095Y-77995476D01*
X30116190Y-77964523D01*
X29992380Y-77933571D01*
X29930476Y-77902619D01*
X29899523Y-77871666D01*
X29868571Y-77809761D01*
X29868571Y-77747857D01*
X29899523Y-77685952D01*
X29930476Y-77655000D01*
X29992380Y-77624047D01*
X30147142Y-77624047D01*
X30240000Y-77655000D01*
X30735238Y-77933571D02*
X30828095Y-77964523D01*
X30859047Y-77995476D01*
X30890000Y-78057380D01*
X30890000Y-78150238D01*
X30859047Y-78212142D01*
X30828095Y-78243095D01*
X30766190Y-78274047D01*
X30518571Y-78274047D01*
X30518571Y-77624047D01*
X30735238Y-77624047D01*
X30797142Y-77655000D01*
X30828095Y-77685952D01*
X30859047Y-77747857D01*
X30859047Y-77809761D01*
X30828095Y-77871666D01*
X30797142Y-77902619D01*
X30735238Y-77933571D01*
X30518571Y-77933571D01*
X31880476Y-77933571D02*
X31973333Y-77964523D01*
X32004285Y-77995476D01*
X32035238Y-78057380D01*
X32035238Y-78150238D01*
X32004285Y-78212142D01*
X31973333Y-78243095D01*
X31911428Y-78274047D01*
X31663809Y-78274047D01*
X31663809Y-77624047D01*
X31880476Y-77624047D01*
X31942380Y-77655000D01*
X31973333Y-77685952D01*
X32004285Y-77747857D01*
X32004285Y-77809761D01*
X31973333Y-77871666D01*
X31942380Y-77902619D01*
X31880476Y-77933571D01*
X31663809Y-77933571D01*
X32437619Y-77624047D02*
X32561428Y-77624047D01*
X32623333Y-77655000D01*
X32685238Y-77716904D01*
X32716190Y-77840714D01*
X32716190Y-78057380D01*
X32685238Y-78181190D01*
X32623333Y-78243095D01*
X32561428Y-78274047D01*
X32437619Y-78274047D01*
X32375714Y-78243095D01*
X32313809Y-78181190D01*
X32282857Y-78057380D01*
X32282857Y-77840714D01*
X32313809Y-77716904D01*
X32375714Y-77655000D01*
X32437619Y-77624047D01*
X33118571Y-77624047D02*
X33242380Y-77624047D01*
X33304285Y-77655000D01*
X33366190Y-77716904D01*
X33397142Y-77840714D01*
X33397142Y-78057380D01*
X33366190Y-78181190D01*
X33304285Y-78243095D01*
X33242380Y-78274047D01*
X33118571Y-78274047D01*
X33056666Y-78243095D01*
X32994761Y-78181190D01*
X32963809Y-78057380D01*
X32963809Y-77840714D01*
X32994761Y-77716904D01*
X33056666Y-77655000D01*
X33118571Y-77624047D01*
X33582857Y-77624047D02*
X33954285Y-77624047D01*
X33768571Y-78274047D02*
X33768571Y-77624047D01*
X57285000Y-131964047D02*
X57439761Y-132614047D01*
X57563571Y-132149761D01*
X57687380Y-132614047D01*
X57842142Y-131964047D01*
X58089761Y-132614047D02*
X58089761Y-131964047D01*
X58615952Y-132273571D02*
X58399285Y-132273571D01*
X58399285Y-132614047D02*
X58399285Y-131964047D01*
X58708809Y-131964047D01*
X58956428Y-132614047D02*
X58956428Y-131964047D01*
X60225476Y-131933095D02*
X59668333Y-132768809D01*
X61154047Y-132273571D02*
X61246904Y-132304523D01*
X61277857Y-132335476D01*
X61308809Y-132397380D01*
X61308809Y-132490238D01*
X61277857Y-132552142D01*
X61246904Y-132583095D01*
X61185000Y-132614047D01*
X60937380Y-132614047D01*
X60937380Y-131964047D01*
X61154047Y-131964047D01*
X61215952Y-131995000D01*
X61246904Y-132025952D01*
X61277857Y-132087857D01*
X61277857Y-132149761D01*
X61246904Y-132211666D01*
X61215952Y-132242619D01*
X61154047Y-132273571D01*
X60937380Y-132273571D01*
X61494523Y-131964047D02*
X61865952Y-131964047D01*
X61680238Y-132614047D02*
X61680238Y-131964047D01*
X98598095Y-91650380D02*
X98264762Y-91174190D01*
X98026667Y-91650380D02*
X98026667Y-90650380D01*
X98407619Y-90650380D01*
X98502857Y-90698000D01*
X98550476Y-90745619D01*
X98598095Y-90840857D01*
X98598095Y-90983714D01*
X98550476Y-91078952D01*
X98502857Y-91126571D01*
X98407619Y-91174190D01*
X98026667Y-91174190D01*
X99026667Y-91650380D02*
X99026667Y-90650380D01*
X99407619Y-90650380D01*
X99502857Y-90698000D01*
X99550476Y-90745619D01*
X99598095Y-90840857D01*
X99598095Y-90983714D01*
X99550476Y-91078952D01*
X99502857Y-91126571D01*
X99407619Y-91174190D01*
X99026667Y-91174190D01*
X100788572Y-91650380D02*
X100788572Y-90650380D01*
X101026667Y-90650380D01*
X101169524Y-90698000D01*
X101264762Y-90793238D01*
X101312381Y-90888476D01*
X101360000Y-91078952D01*
X101360000Y-91221809D01*
X101312381Y-91412285D01*
X101264762Y-91507523D01*
X101169524Y-91602761D01*
X101026667Y-91650380D01*
X100788572Y-91650380D01*
X101788572Y-91269428D02*
X102550476Y-91269428D01*
X102169524Y-91650380D02*
X102169524Y-90888476D01*
X32649047Y-119862380D02*
X32649047Y-120576666D01*
X32601428Y-120719523D01*
X32506190Y-120814761D01*
X32363333Y-120862380D01*
X32268094Y-120862380D01*
X32982380Y-119862380D02*
X33553809Y-119862380D01*
X33268094Y-120862380D02*
X33268094Y-119862380D01*
X33839523Y-120576666D02*
X34315714Y-120576666D01*
X33744285Y-120862380D02*
X34077618Y-119862380D01*
X34410952Y-120862380D01*
X35268094Y-119910000D02*
X35172856Y-119862380D01*
X35029999Y-119862380D01*
X34887142Y-119910000D01*
X34791904Y-120005238D01*
X34744285Y-120100476D01*
X34696666Y-120290952D01*
X34696666Y-120433809D01*
X34744285Y-120624285D01*
X34791904Y-120719523D01*
X34887142Y-120814761D01*
X35029999Y-120862380D01*
X35125237Y-120862380D01*
X35268094Y-120814761D01*
X35315714Y-120767142D01*
X35315714Y-120433809D01*
X35125237Y-120433809D01*
X28444285Y-118374047D02*
X28815714Y-118374047D01*
X28629999Y-119024047D02*
X28629999Y-118374047D01*
X29032380Y-119024047D02*
X29032380Y-118374047D01*
X29187142Y-118374047D01*
X29279999Y-118405000D01*
X29341904Y-118466904D01*
X29372856Y-118528809D01*
X29403809Y-118652619D01*
X29403809Y-118745476D01*
X29372856Y-118869285D01*
X29341904Y-118931190D01*
X29279999Y-118993095D01*
X29187142Y-119024047D01*
X29032380Y-119024047D01*
X29806190Y-118374047D02*
X29929999Y-118374047D01*
X29991904Y-118405000D01*
X30053809Y-118466904D01*
X30084761Y-118590714D01*
X30084761Y-118807380D01*
X30053809Y-118931190D01*
X29991904Y-118993095D01*
X29929999Y-119024047D01*
X29806190Y-119024047D01*
X29744285Y-118993095D01*
X29682380Y-118931190D01*
X29651428Y-118807380D01*
X29651428Y-118590714D01*
X29682380Y-118466904D01*
X29744285Y-118405000D01*
X29806190Y-118374047D01*
X96547619Y-124014047D02*
X96547619Y-124478333D01*
X96516666Y-124571190D01*
X96454761Y-124633095D01*
X96361904Y-124664047D01*
X96300000Y-124664047D01*
X97166666Y-124664047D02*
X96857142Y-124664047D01*
X96857142Y-124014047D01*
X97754761Y-124602142D02*
X97723809Y-124633095D01*
X97630952Y-124664047D01*
X97569047Y-124664047D01*
X97476190Y-124633095D01*
X97414285Y-124571190D01*
X97383333Y-124509285D01*
X97352380Y-124385476D01*
X97352380Y-124292619D01*
X97383333Y-124168809D01*
X97414285Y-124106904D01*
X97476190Y-124045000D01*
X97569047Y-124014047D01*
X97630952Y-124014047D01*
X97723809Y-124045000D01*
X97754761Y-124075952D01*
X98219047Y-124014047D02*
X98219047Y-124478333D01*
X98188095Y-124571190D01*
X98126190Y-124633095D01*
X98033333Y-124664047D01*
X97971428Y-124664047D01*
X98838095Y-124664047D02*
X98528571Y-124664047D01*
X98528571Y-124014047D01*
X99426190Y-124602142D02*
X99395238Y-124633095D01*
X99302380Y-124664047D01*
X99240476Y-124664047D01*
X99147619Y-124633095D01*
X99085714Y-124571190D01*
X99054761Y-124509285D01*
X99023809Y-124385476D01*
X99023809Y-124292619D01*
X99054761Y-124168809D01*
X99085714Y-124106904D01*
X99147619Y-124045000D01*
X99240476Y-124014047D01*
X99302380Y-124014047D01*
X99395238Y-124045000D01*
X99426190Y-124075952D01*
X99890476Y-124014047D02*
X99890476Y-124478333D01*
X99859523Y-124571190D01*
X99797619Y-124633095D01*
X99704761Y-124664047D01*
X99642857Y-124664047D01*
X100509523Y-124664047D02*
X100200000Y-124664047D01*
X100200000Y-124014047D01*
X101097619Y-124602142D02*
X101066666Y-124633095D01*
X100973809Y-124664047D01*
X100911904Y-124664047D01*
X100819047Y-124633095D01*
X100757142Y-124571190D01*
X100726190Y-124509285D01*
X100695238Y-124385476D01*
X100695238Y-124292619D01*
X100726190Y-124168809D01*
X100757142Y-124106904D01*
X100819047Y-124045000D01*
X100911904Y-124014047D01*
X100973809Y-124014047D01*
X101066666Y-124045000D01*
X101097619Y-124075952D01*
X101561904Y-124014047D02*
X101561904Y-124478333D01*
X101530952Y-124571190D01*
X101469047Y-124633095D01*
X101376190Y-124664047D01*
X101314285Y-124664047D01*
X102180952Y-124664047D02*
X101871428Y-124664047D01*
X101871428Y-124014047D01*
X102769047Y-124602142D02*
X102738095Y-124633095D01*
X102645238Y-124664047D01*
X102583333Y-124664047D01*
X102490476Y-124633095D01*
X102428571Y-124571190D01*
X102397619Y-124509285D01*
X102366666Y-124385476D01*
X102366666Y-124292619D01*
X102397619Y-124168809D01*
X102428571Y-124106904D01*
X102490476Y-124045000D01*
X102583333Y-124014047D01*
X102645238Y-124014047D01*
X102738095Y-124045000D01*
X102769047Y-124075952D01*
X55075238Y-137472142D02*
X55027619Y-137519761D01*
X54884761Y-137567380D01*
X54789523Y-137567380D01*
X54646666Y-137519761D01*
X54551428Y-137424523D01*
X54503809Y-137329285D01*
X54456190Y-137138809D01*
X54456190Y-136995952D01*
X54503809Y-136805476D01*
X54551428Y-136710238D01*
X54646666Y-136615000D01*
X54789523Y-136567380D01*
X54884761Y-136567380D01*
X55027619Y-136615000D01*
X55075238Y-136662619D01*
X55456190Y-137281666D02*
X55932380Y-137281666D01*
X55360952Y-137567380D02*
X55694285Y-136567380D01*
X56027619Y-137567380D01*
X56360952Y-137567380D02*
X56360952Y-136567380D01*
X56932380Y-137567380D01*
X56932380Y-136567380D01*
X58741904Y-137567380D02*
X58408571Y-137091190D01*
X58170476Y-137567380D02*
X58170476Y-136567380D01*
X58551428Y-136567380D01*
X58646666Y-136615000D01*
X58694285Y-136662619D01*
X58741904Y-136757857D01*
X58741904Y-136900714D01*
X58694285Y-136995952D01*
X58646666Y-137043571D01*
X58551428Y-137091190D01*
X58170476Y-137091190D01*
X59694285Y-136615000D02*
X59599047Y-136567380D01*
X59456190Y-136567380D01*
X59313333Y-136615000D01*
X59218095Y-136710238D01*
X59170476Y-136805476D01*
X59122857Y-136995952D01*
X59122857Y-137138809D01*
X59170476Y-137329285D01*
X59218095Y-137424523D01*
X59313333Y-137519761D01*
X59456190Y-137567380D01*
X59551428Y-137567380D01*
X59694285Y-137519761D01*
X59741904Y-137472142D01*
X59741904Y-137138809D01*
X59551428Y-137138809D01*
X60503809Y-137043571D02*
X60646666Y-137091190D01*
X60694285Y-137138809D01*
X60741904Y-137234047D01*
X60741904Y-137376904D01*
X60694285Y-137472142D01*
X60646666Y-137519761D01*
X60551428Y-137567380D01*
X60170476Y-137567380D01*
X60170476Y-136567380D01*
X60503809Y-136567380D01*
X60599047Y-136615000D01*
X60646666Y-136662619D01*
X60694285Y-136757857D01*
X60694285Y-136853095D01*
X60646666Y-136948333D01*
X60599047Y-136995952D01*
X60503809Y-137043571D01*
X60170476Y-137043571D01*
X62503809Y-137472142D02*
X62456190Y-137519761D01*
X62313333Y-137567380D01*
X62218095Y-137567380D01*
X62075238Y-137519761D01*
X61980000Y-137424523D01*
X61932380Y-137329285D01*
X61884761Y-137138809D01*
X61884761Y-136995952D01*
X61932380Y-136805476D01*
X61980000Y-136710238D01*
X62075238Y-136615000D01*
X62218095Y-136567380D01*
X62313333Y-136567380D01*
X62456190Y-136615000D01*
X62503809Y-136662619D01*
X63075238Y-137567380D02*
X62980000Y-137519761D01*
X62932380Y-137472142D01*
X62884761Y-137376904D01*
X62884761Y-137091190D01*
X62932380Y-136995952D01*
X62980000Y-136948333D01*
X63075238Y-136900714D01*
X63218095Y-136900714D01*
X63313333Y-136948333D01*
X63360952Y-136995952D01*
X63408571Y-137091190D01*
X63408571Y-137376904D01*
X63360952Y-137472142D01*
X63313333Y-137519761D01*
X63218095Y-137567380D01*
X63075238Y-137567380D01*
X63837142Y-136900714D02*
X63837142Y-137567380D01*
X63837142Y-136995952D02*
X63884761Y-136948333D01*
X63980000Y-136900714D01*
X64122857Y-136900714D01*
X64218095Y-136948333D01*
X64265714Y-137043571D01*
X64265714Y-137567380D01*
X64599047Y-136900714D02*
X64980000Y-136900714D01*
X64741904Y-136567380D02*
X64741904Y-137424523D01*
X64789523Y-137519761D01*
X64884761Y-137567380D01*
X64980000Y-137567380D01*
X65313333Y-137567380D02*
X65313333Y-136900714D01*
X65313333Y-137091190D02*
X65360952Y-136995952D01*
X65408571Y-136948333D01*
X65503809Y-136900714D01*
X65599047Y-136900714D01*
X66075238Y-137567380D02*
X65980000Y-137519761D01*
X65932380Y-137472142D01*
X65884761Y-137376904D01*
X65884761Y-137091190D01*
X65932380Y-136995952D01*
X65980000Y-136948333D01*
X66075238Y-136900714D01*
X66218095Y-136900714D01*
X66313333Y-136948333D01*
X66360952Y-136995952D01*
X66408571Y-137091190D01*
X66408571Y-137376904D01*
X66360952Y-137472142D01*
X66313333Y-137519761D01*
X66218095Y-137567380D01*
X66075238Y-137567380D01*
X66980000Y-137567380D02*
X66884761Y-137519761D01*
X66837142Y-137424523D01*
X66837142Y-136567380D01*
X67503809Y-137567380D02*
X67408571Y-137519761D01*
X67360952Y-137424523D01*
X67360952Y-136567380D01*
X68265714Y-137519761D02*
X68170476Y-137567380D01*
X67980000Y-137567380D01*
X67884761Y-137519761D01*
X67837142Y-137424523D01*
X67837142Y-137043571D01*
X67884761Y-136948333D01*
X67980000Y-136900714D01*
X68170476Y-136900714D01*
X68265714Y-136948333D01*
X68313333Y-137043571D01*
X68313333Y-137138809D01*
X67837142Y-137234047D01*
X68741904Y-137567380D02*
X68741904Y-136900714D01*
X68741904Y-137091190D02*
X68789523Y-136995952D01*
X68837142Y-136948333D01*
X68932380Y-136900714D01*
X69027619Y-136900714D01*
X69980000Y-136567380D02*
X70313333Y-137567380D01*
X70646666Y-136567380D01*
X71408571Y-136900714D02*
X71408571Y-137567380D01*
X71170476Y-136519761D02*
X70932380Y-137234047D01*
X71551428Y-137234047D01*
X57908571Y-139177380D02*
X57575238Y-138701190D01*
X57337142Y-139177380D02*
X57337142Y-138177380D01*
X57718095Y-138177380D01*
X57813333Y-138225000D01*
X57860952Y-138272619D01*
X57908571Y-138367857D01*
X57908571Y-138510714D01*
X57860952Y-138605952D01*
X57813333Y-138653571D01*
X57718095Y-138701190D01*
X57337142Y-138701190D01*
X58718095Y-139129761D02*
X58622857Y-139177380D01*
X58432380Y-139177380D01*
X58337142Y-139129761D01*
X58289523Y-139034523D01*
X58289523Y-138653571D01*
X58337142Y-138558333D01*
X58432380Y-138510714D01*
X58622857Y-138510714D01*
X58718095Y-138558333D01*
X58765714Y-138653571D01*
X58765714Y-138748809D01*
X58289523Y-138844047D01*
X59099047Y-138510714D02*
X59337142Y-139177380D01*
X59575238Y-138510714D01*
X60670476Y-138891666D02*
X61146666Y-138891666D01*
X60575238Y-139177380D02*
X60908571Y-138177380D01*
X61241904Y-139177380D01*
X62527619Y-138177380D02*
X62622857Y-138177380D01*
X62718095Y-138225000D01*
X62765714Y-138272619D01*
X62813333Y-138367857D01*
X62860952Y-138558333D01*
X62860952Y-138796428D01*
X62813333Y-138986904D01*
X62765714Y-139082142D01*
X62718095Y-139129761D01*
X62622857Y-139177380D01*
X62527619Y-139177380D01*
X62432380Y-139129761D01*
X62384761Y-139082142D01*
X62337142Y-138986904D01*
X62289523Y-138796428D01*
X62289523Y-138558333D01*
X62337142Y-138367857D01*
X62384761Y-138272619D01*
X62432380Y-138225000D01*
X62527619Y-138177380D01*
X63765714Y-138177380D02*
X63289523Y-138177380D01*
X63241904Y-138653571D01*
X63289523Y-138605952D01*
X63384761Y-138558333D01*
X63622857Y-138558333D01*
X63718095Y-138605952D01*
X63765714Y-138653571D01*
X63813333Y-138748809D01*
X63813333Y-138986904D01*
X63765714Y-139082142D01*
X63718095Y-139129761D01*
X63622857Y-139177380D01*
X63384761Y-139177380D01*
X63289523Y-139129761D01*
X63241904Y-139082142D01*
X64956190Y-138129761D02*
X64099047Y-139415476D01*
X65241904Y-138272619D02*
X65289523Y-138225000D01*
X65384761Y-138177380D01*
X65622857Y-138177380D01*
X65718095Y-138225000D01*
X65765714Y-138272619D01*
X65813333Y-138367857D01*
X65813333Y-138463095D01*
X65765714Y-138605952D01*
X65194285Y-139177380D01*
X65813333Y-139177380D01*
X66432380Y-138177380D02*
X66527619Y-138177380D01*
X66622857Y-138225000D01*
X66670476Y-138272619D01*
X66718095Y-138367857D01*
X66765714Y-138558333D01*
X66765714Y-138796428D01*
X66718095Y-138986904D01*
X66670476Y-139082142D01*
X66622857Y-139129761D01*
X66527619Y-139177380D01*
X66432380Y-139177380D01*
X66337142Y-139129761D01*
X66289523Y-139082142D01*
X66241904Y-138986904D01*
X66194285Y-138796428D01*
X66194285Y-138558333D01*
X66241904Y-138367857D01*
X66289523Y-138272619D01*
X66337142Y-138225000D01*
X66432380Y-138177380D01*
X67146666Y-138272619D02*
X67194285Y-138225000D01*
X67289523Y-138177380D01*
X67527619Y-138177380D01*
X67622857Y-138225000D01*
X67670476Y-138272619D01*
X67718095Y-138367857D01*
X67718095Y-138463095D01*
X67670476Y-138605952D01*
X67099047Y-139177380D01*
X67718095Y-139177380D01*
X68099047Y-138272619D02*
X68146666Y-138225000D01*
X68241904Y-138177380D01*
X68480000Y-138177380D01*
X68575238Y-138225000D01*
X68622857Y-138272619D01*
X68670476Y-138367857D01*
X68670476Y-138463095D01*
X68622857Y-138605952D01*
X68051428Y-139177380D01*
X68670476Y-139177380D01*
X28585714Y-133764047D02*
X28369047Y-133454523D01*
X28214286Y-133764047D02*
X28214286Y-133114047D01*
X28461905Y-133114047D01*
X28523809Y-133145000D01*
X28554762Y-133175952D01*
X28585714Y-133237857D01*
X28585714Y-133330714D01*
X28554762Y-133392619D01*
X28523809Y-133423571D01*
X28461905Y-133454523D01*
X28214286Y-133454523D01*
X28771428Y-133114047D02*
X29142857Y-133114047D01*
X28957143Y-133764047D02*
X28957143Y-133114047D01*
X29328571Y-133733095D02*
X29421428Y-133764047D01*
X29576190Y-133764047D01*
X29638095Y-133733095D01*
X29669047Y-133702142D01*
X29700000Y-133640238D01*
X29700000Y-133578333D01*
X29669047Y-133516428D01*
X29638095Y-133485476D01*
X29576190Y-133454523D01*
X29452381Y-133423571D01*
X29390476Y-133392619D01*
X29359524Y-133361666D01*
X29328571Y-133299761D01*
X29328571Y-133237857D01*
X29359524Y-133175952D01*
X29390476Y-133145000D01*
X29452381Y-133114047D01*
X29607143Y-133114047D01*
X29700000Y-133145000D01*
X98629523Y-106984761D02*
X98772380Y-107032380D01*
X99010476Y-107032380D01*
X99105714Y-106984761D01*
X99153333Y-106937142D01*
X99200952Y-106841904D01*
X99200952Y-106746666D01*
X99153333Y-106651428D01*
X99105714Y-106603809D01*
X99010476Y-106556190D01*
X98820000Y-106508571D01*
X98724761Y-106460952D01*
X98677142Y-106413333D01*
X98629523Y-106318095D01*
X98629523Y-106222857D01*
X98677142Y-106127619D01*
X98724761Y-106080000D01*
X98820000Y-106032380D01*
X99058095Y-106032380D01*
X99200952Y-106080000D01*
X100200952Y-106937142D02*
X100153333Y-106984761D01*
X100010476Y-107032380D01*
X99915238Y-107032380D01*
X99772380Y-106984761D01*
X99677142Y-106889523D01*
X99629523Y-106794285D01*
X99581904Y-106603809D01*
X99581904Y-106460952D01*
X99629523Y-106270476D01*
X99677142Y-106175238D01*
X99772380Y-106080000D01*
X99915238Y-106032380D01*
X100010476Y-106032380D01*
X100153333Y-106080000D01*
X100200952Y-106127619D01*
X101105714Y-107032380D02*
X100629523Y-107032380D01*
X100629523Y-106032380D01*
X101439047Y-107032380D02*
X101439047Y-106032380D01*
X102010476Y-107032380D02*
X101581904Y-106460952D01*
X102010476Y-106032380D02*
X101439047Y-106603809D01*
X98598095Y-94174380D02*
X98264762Y-93698190D01*
X98026667Y-94174380D02*
X98026667Y-93174380D01*
X98407619Y-93174380D01*
X98502857Y-93222000D01*
X98550476Y-93269619D01*
X98598095Y-93364857D01*
X98598095Y-93507714D01*
X98550476Y-93602952D01*
X98502857Y-93650571D01*
X98407619Y-93698190D01*
X98026667Y-93698190D01*
X99026667Y-94174380D02*
X99026667Y-93174380D01*
X99407619Y-93174380D01*
X99502857Y-93222000D01*
X99550476Y-93269619D01*
X99598095Y-93364857D01*
X99598095Y-93507714D01*
X99550476Y-93602952D01*
X99502857Y-93650571D01*
X99407619Y-93698190D01*
X99026667Y-93698190D01*
X100788572Y-94174380D02*
X100788572Y-93174380D01*
X101026667Y-93174380D01*
X101169524Y-93222000D01*
X101264762Y-93317238D01*
X101312381Y-93412476D01*
X101360000Y-93602952D01*
X101360000Y-93745809D01*
X101312381Y-93936285D01*
X101264762Y-94031523D01*
X101169524Y-94126761D01*
X101026667Y-94174380D01*
X100788572Y-94174380D01*
X101788572Y-93793428D02*
X102550476Y-93793428D01*
X31374761Y-128167142D02*
X31327142Y-128214761D01*
X31184285Y-128262380D01*
X31089047Y-128262380D01*
X30946190Y-128214761D01*
X30850952Y-128119523D01*
X30803333Y-128024285D01*
X30755714Y-127833809D01*
X30755714Y-127690952D01*
X30803333Y-127500476D01*
X30850952Y-127405238D01*
X30946190Y-127310000D01*
X31089047Y-127262380D01*
X31184285Y-127262380D01*
X31327142Y-127310000D01*
X31374761Y-127357619D01*
X31993809Y-127262380D02*
X32184285Y-127262380D01*
X32279523Y-127310000D01*
X32374761Y-127405238D01*
X32422380Y-127595714D01*
X32422380Y-127929047D01*
X32374761Y-128119523D01*
X32279523Y-128214761D01*
X32184285Y-128262380D01*
X31993809Y-128262380D01*
X31898571Y-128214761D01*
X31803333Y-128119523D01*
X31755714Y-127929047D01*
X31755714Y-127595714D01*
X31803333Y-127405238D01*
X31898571Y-127310000D01*
X31993809Y-127262380D01*
X32850952Y-128262380D02*
X32850952Y-127262380D01*
X33422380Y-128262380D01*
X33422380Y-127262380D01*
X33850952Y-128214761D02*
X33993809Y-128262380D01*
X34231904Y-128262380D01*
X34327142Y-128214761D01*
X34374761Y-128167142D01*
X34422380Y-128071904D01*
X34422380Y-127976666D01*
X34374761Y-127881428D01*
X34327142Y-127833809D01*
X34231904Y-127786190D01*
X34041428Y-127738571D01*
X33946190Y-127690952D01*
X33898571Y-127643333D01*
X33850952Y-127548095D01*
X33850952Y-127452857D01*
X33898571Y-127357619D01*
X33946190Y-127310000D01*
X34041428Y-127262380D01*
X34279523Y-127262380D01*
X34422380Y-127310000D01*
X35041428Y-127262380D02*
X35231904Y-127262380D01*
X35327142Y-127310000D01*
X35422380Y-127405238D01*
X35470000Y-127595714D01*
X35470000Y-127929047D01*
X35422380Y-128119523D01*
X35327142Y-128214761D01*
X35231904Y-128262380D01*
X35041428Y-128262380D01*
X34946190Y-128214761D01*
X34850952Y-128119523D01*
X34803333Y-127929047D01*
X34803333Y-127595714D01*
X34850952Y-127405238D01*
X34946190Y-127310000D01*
X35041428Y-127262380D01*
X36374761Y-128262380D02*
X35898571Y-128262380D01*
X35898571Y-127262380D01*
X36708095Y-127738571D02*
X37041428Y-127738571D01*
X37184285Y-128262380D02*
X36708095Y-128262380D01*
X36708095Y-127262380D01*
X37184285Y-127262380D01*
X100169523Y-85602380D02*
X100788571Y-85602380D01*
X100455238Y-85983333D01*
X100598095Y-85983333D01*
X100693333Y-86030952D01*
X100740952Y-86078571D01*
X100788571Y-86173809D01*
X100788571Y-86411904D01*
X100740952Y-86507142D01*
X100693333Y-86554761D01*
X100598095Y-86602380D01*
X100312380Y-86602380D01*
X100217142Y-86554761D01*
X100169523Y-86507142D01*
X101074285Y-85602380D02*
X101407619Y-86602380D01*
X101740952Y-85602380D01*
X101979047Y-85602380D02*
X102598095Y-85602380D01*
X102264761Y-85983333D01*
X102407619Y-85983333D01*
X102502857Y-86030952D01*
X102550476Y-86078571D01*
X102598095Y-86173809D01*
X102598095Y-86411904D01*
X102550476Y-86507142D01*
X102502857Y-86554761D01*
X102407619Y-86602380D01*
X102121904Y-86602380D01*
X102026666Y-86554761D01*
X101979047Y-86507142D01*
X97169523Y-98698571D02*
X97502857Y-98698571D01*
X97645714Y-99222380D02*
X97169523Y-99222380D01*
X97169523Y-98222380D01*
X97645714Y-98222380D01*
X98026666Y-99174761D02*
X98169523Y-99222380D01*
X98407619Y-99222380D01*
X98502857Y-99174761D01*
X98550476Y-99127142D01*
X98598095Y-99031904D01*
X98598095Y-98936666D01*
X98550476Y-98841428D01*
X98502857Y-98793809D01*
X98407619Y-98746190D01*
X98217142Y-98698571D01*
X98121904Y-98650952D01*
X98074285Y-98603333D01*
X98026666Y-98508095D01*
X98026666Y-98412857D01*
X98074285Y-98317619D01*
X98121904Y-98270000D01*
X98217142Y-98222380D01*
X98455238Y-98222380D01*
X98598095Y-98270000D01*
X99026666Y-99222380D02*
X99026666Y-98222380D01*
X99407619Y-98222380D01*
X99502857Y-98270000D01*
X99550476Y-98317619D01*
X99598095Y-98412857D01*
X99598095Y-98555714D01*
X99550476Y-98650952D01*
X99502857Y-98698571D01*
X99407619Y-98746190D01*
X99026666Y-98746190D01*
X100788571Y-99222380D02*
X100788571Y-98222380D01*
X101026666Y-98222380D01*
X101169523Y-98270000D01*
X101264761Y-98365238D01*
X101312380Y-98460476D01*
X101360000Y-98650952D01*
X101360000Y-98793809D01*
X101312380Y-98984285D01*
X101264761Y-99079523D01*
X101169523Y-99174761D01*
X101026666Y-99222380D01*
X100788571Y-99222380D01*
X101788571Y-98841428D02*
X102550476Y-98841428D01*
X102169523Y-99222380D02*
X102169523Y-98460476D01*
X28444285Y-117094047D02*
X28815714Y-117094047D01*
X28630000Y-117744047D02*
X28630000Y-117094047D01*
X29403809Y-117682142D02*
X29372857Y-117713095D01*
X29280000Y-117744047D01*
X29218095Y-117744047D01*
X29125238Y-117713095D01*
X29063333Y-117651190D01*
X29032380Y-117589285D01*
X29001428Y-117465476D01*
X29001428Y-117372619D01*
X29032380Y-117248809D01*
X29063333Y-117186904D01*
X29125238Y-117125000D01*
X29218095Y-117094047D01*
X29280000Y-117094047D01*
X29372857Y-117125000D01*
X29403809Y-117155952D01*
X29682380Y-117744047D02*
X29682380Y-117094047D01*
X30053809Y-117744047D02*
X29775238Y-117372619D01*
X30053809Y-117094047D02*
X29682380Y-117465476D01*
X28585714Y-132532142D02*
X28554762Y-132563095D01*
X28461905Y-132594047D01*
X28400000Y-132594047D01*
X28307143Y-132563095D01*
X28245238Y-132501190D01*
X28214286Y-132439285D01*
X28183333Y-132315476D01*
X28183333Y-132222619D01*
X28214286Y-132098809D01*
X28245238Y-132036904D01*
X28307143Y-131975000D01*
X28400000Y-131944047D01*
X28461905Y-131944047D01*
X28554762Y-131975000D01*
X28585714Y-132005952D01*
X28771428Y-131944047D02*
X29142857Y-131944047D01*
X28957143Y-132594047D02*
X28957143Y-131944047D01*
X29328571Y-132563095D02*
X29421428Y-132594047D01*
X29576190Y-132594047D01*
X29638095Y-132563095D01*
X29669047Y-132532142D01*
X29700000Y-132470238D01*
X29700000Y-132408333D01*
X29669047Y-132346428D01*
X29638095Y-132315476D01*
X29576190Y-132284523D01*
X29452381Y-132253571D01*
X29390476Y-132222619D01*
X29359524Y-132191666D01*
X29328571Y-132129761D01*
X29328571Y-132067857D01*
X29359524Y-132005952D01*
X29390476Y-131975000D01*
X29452381Y-131944047D01*
X29607143Y-131944047D01*
X29700000Y-131975000D01*
X67350476Y-126095000D02*
X67288571Y-126064047D01*
X67195714Y-126064047D01*
X67102857Y-126095000D01*
X67040952Y-126156904D01*
X67010000Y-126218809D01*
X66979047Y-126342619D01*
X66979047Y-126435476D01*
X67010000Y-126559285D01*
X67040952Y-126621190D01*
X67102857Y-126683095D01*
X67195714Y-126714047D01*
X67257619Y-126714047D01*
X67350476Y-126683095D01*
X67381428Y-126652142D01*
X67381428Y-126435476D01*
X67257619Y-126435476D01*
X67660000Y-126714047D02*
X67660000Y-126064047D01*
X67907619Y-126064047D01*
X67969523Y-126095000D01*
X68000476Y-126125952D01*
X68031428Y-126187857D01*
X68031428Y-126280714D01*
X68000476Y-126342619D01*
X67969523Y-126373571D01*
X67907619Y-126404523D01*
X67660000Y-126404523D01*
X68310000Y-126714047D02*
X68310000Y-126064047D01*
X68743333Y-126064047D02*
X68867142Y-126064047D01*
X68929047Y-126095000D01*
X68990952Y-126156904D01*
X69021904Y-126280714D01*
X69021904Y-126497380D01*
X68990952Y-126621190D01*
X68929047Y-126683095D01*
X68867142Y-126714047D01*
X68743333Y-126714047D01*
X68681428Y-126683095D01*
X68619523Y-126621190D01*
X68588571Y-126497380D01*
X68588571Y-126280714D01*
X68619523Y-126156904D01*
X68681428Y-126095000D01*
X68743333Y-126064047D01*
X69424285Y-126064047D02*
X69486190Y-126064047D01*
X69548095Y-126095000D01*
X69579047Y-126125952D01*
X69610000Y-126187857D01*
X69640952Y-126311666D01*
X69640952Y-126466428D01*
X69610000Y-126590238D01*
X69579047Y-126652142D01*
X69548095Y-126683095D01*
X69486190Y-126714047D01*
X69424285Y-126714047D01*
X69362380Y-126683095D01*
X69331428Y-126652142D01*
X69300476Y-126590238D01*
X69269523Y-126466428D01*
X69269523Y-126311666D01*
X69300476Y-126187857D01*
X69331428Y-126125952D01*
X69362380Y-126095000D01*
X69424285Y-126064047D01*
X28554761Y-126375000D02*
X28492857Y-126344047D01*
X28400000Y-126344047D01*
X28307142Y-126375000D01*
X28245238Y-126436904D01*
X28214285Y-126498809D01*
X28183333Y-126622619D01*
X28183333Y-126715476D01*
X28214285Y-126839285D01*
X28245238Y-126901190D01*
X28307142Y-126963095D01*
X28400000Y-126994047D01*
X28461904Y-126994047D01*
X28554761Y-126963095D01*
X28585714Y-126932142D01*
X28585714Y-126715476D01*
X28461904Y-126715476D01*
X28864285Y-126994047D02*
X28864285Y-126344047D01*
X29235714Y-126994047D01*
X29235714Y-126344047D01*
X29545238Y-126994047D02*
X29545238Y-126344047D01*
X29700000Y-126344047D01*
X29792857Y-126375000D01*
X29854761Y-126436904D01*
X29885714Y-126498809D01*
X29916666Y-126622619D01*
X29916666Y-126715476D01*
X29885714Y-126839285D01*
X29854761Y-126901190D01*
X29792857Y-126963095D01*
X29700000Y-126994047D01*
X29545238Y-126994047D01*
X28444285Y-121044047D02*
X28815714Y-121044047D01*
X28630000Y-121694047D02*
X28630000Y-121044047D01*
X29032381Y-121694047D02*
X29032381Y-121044047D01*
X29187142Y-121044047D01*
X29280000Y-121075000D01*
X29341904Y-121136904D01*
X29372857Y-121198809D01*
X29403809Y-121322619D01*
X29403809Y-121415476D01*
X29372857Y-121539285D01*
X29341904Y-121601190D01*
X29280000Y-121663095D01*
X29187142Y-121694047D01*
X29032381Y-121694047D01*
X29682381Y-121694047D02*
X29682381Y-121044047D01*
X28877618Y-123975000D02*
X28815714Y-123944047D01*
X28722857Y-123944047D01*
X28629999Y-123975000D01*
X28568095Y-124036904D01*
X28537142Y-124098809D01*
X28506190Y-124222619D01*
X28506190Y-124315476D01*
X28537142Y-124439285D01*
X28568095Y-124501190D01*
X28629999Y-124563095D01*
X28722857Y-124594047D01*
X28784761Y-124594047D01*
X28877618Y-124563095D01*
X28908571Y-124532142D01*
X28908571Y-124315476D01*
X28784761Y-124315476D01*
X29187142Y-124594047D02*
X29187142Y-123944047D01*
X29558571Y-124594047D01*
X29558571Y-123944047D01*
X29868095Y-124594047D02*
X29868095Y-123944047D01*
X30022857Y-123944047D01*
X30115714Y-123975000D01*
X30177618Y-124036904D01*
X30208571Y-124098809D01*
X30239523Y-124222619D01*
X30239523Y-124315476D01*
X30208571Y-124439285D01*
X30177618Y-124501190D01*
X30115714Y-124563095D01*
X30022857Y-124594047D01*
X29868095Y-124594047D01*
X28444285Y-119654047D02*
X28815713Y-119654047D01*
X28629999Y-120304047D02*
X28629999Y-119654047D01*
X29032380Y-120304047D02*
X29032380Y-119654047D01*
X29249047Y-120118333D01*
X29465713Y-119654047D01*
X29465713Y-120304047D01*
X29744285Y-120273095D02*
X29837142Y-120304047D01*
X29991904Y-120304047D01*
X30053809Y-120273095D01*
X30084761Y-120242142D01*
X30115713Y-120180238D01*
X30115713Y-120118333D01*
X30084761Y-120056428D01*
X30053809Y-120025476D01*
X29991904Y-119994523D01*
X29868094Y-119963571D01*
X29806190Y-119932619D01*
X29775237Y-119901666D01*
X29744285Y-119839761D01*
X29744285Y-119777857D01*
X29775237Y-119715952D01*
X29806190Y-119685000D01*
X29868094Y-119654047D01*
X30022856Y-119654047D01*
X30115713Y-119685000D01*
X69175238Y-76654047D02*
X69577619Y-76654047D01*
X69360952Y-76901666D01*
X69453809Y-76901666D01*
X69515714Y-76932619D01*
X69546666Y-76963571D01*
X69577619Y-77025476D01*
X69577619Y-77180238D01*
X69546666Y-77242142D01*
X69515714Y-77273095D01*
X69453809Y-77304047D01*
X69268095Y-77304047D01*
X69206190Y-77273095D01*
X69175238Y-77242142D01*
X69763333Y-76654047D02*
X69980000Y-77304047D01*
X70196666Y-76654047D01*
X70351428Y-76654047D02*
X70753809Y-76654047D01*
X70537142Y-76901666D01*
X70630000Y-76901666D01*
X70691904Y-76932619D01*
X70722857Y-76963571D01*
X70753809Y-77025476D01*
X70753809Y-77180238D01*
X70722857Y-77242142D01*
X70691904Y-77273095D01*
X70630000Y-77304047D01*
X70444285Y-77304047D01*
X70382380Y-77273095D01*
X70351428Y-77242142D01*
X90042142Y-120204047D02*
X89825476Y-119894523D01*
X89670714Y-120204047D02*
X89670714Y-119554047D01*
X89918333Y-119554047D01*
X89980238Y-119585000D01*
X90011190Y-119615952D01*
X90042142Y-119677857D01*
X90042142Y-119770714D01*
X90011190Y-119832619D01*
X89980238Y-119863571D01*
X89918333Y-119894523D01*
X89670714Y-119894523D01*
X90537380Y-119863571D02*
X90320714Y-119863571D01*
X90320714Y-120204047D02*
X90320714Y-119554047D01*
X90630238Y-119554047D01*
X90877857Y-120204047D02*
X90877857Y-119554047D01*
X91094523Y-120018333D01*
X91311190Y-119554047D01*
X91311190Y-120204047D01*
X91899285Y-119554047D02*
X91775476Y-119554047D01*
X91713571Y-119585000D01*
X91682619Y-119615952D01*
X91620714Y-119708809D01*
X91589761Y-119832619D01*
X91589761Y-120080238D01*
X91620714Y-120142142D01*
X91651666Y-120173095D01*
X91713571Y-120204047D01*
X91837380Y-120204047D01*
X91899285Y-120173095D01*
X91930238Y-120142142D01*
X91961190Y-120080238D01*
X91961190Y-119925476D01*
X91930238Y-119863571D01*
X91899285Y-119832619D01*
X91837380Y-119801666D01*
X91713571Y-119801666D01*
X91651666Y-119832619D01*
X91620714Y-119863571D01*
X91589761Y-119925476D01*
X92270714Y-120204047D02*
X92394523Y-120204047D01*
X92456428Y-120173095D01*
X92487380Y-120142142D01*
X92549285Y-120049285D01*
X92580238Y-119925476D01*
X92580238Y-119677857D01*
X92549285Y-119615952D01*
X92518333Y-119585000D01*
X92456428Y-119554047D01*
X92332619Y-119554047D01*
X92270714Y-119585000D01*
X92239761Y-119615952D01*
X92208809Y-119677857D01*
X92208809Y-119832619D01*
X92239761Y-119894523D01*
X92270714Y-119925476D01*
X92332619Y-119956428D01*
X92456428Y-119956428D01*
X92518333Y-119925476D01*
X92549285Y-119894523D01*
X92580238Y-119832619D01*
X69414761Y-77785000D02*
X69352857Y-77754047D01*
X69260000Y-77754047D01*
X69167142Y-77785000D01*
X69105238Y-77846904D01*
X69074285Y-77908809D01*
X69043333Y-78032619D01*
X69043333Y-78125476D01*
X69074285Y-78249285D01*
X69105238Y-78311190D01*
X69167142Y-78373095D01*
X69260000Y-78404047D01*
X69321904Y-78404047D01*
X69414761Y-78373095D01*
X69445714Y-78342142D01*
X69445714Y-78125476D01*
X69321904Y-78125476D01*
X69724285Y-78404047D02*
X69724285Y-77754047D01*
X70095714Y-78404047D01*
X70095714Y-77754047D01*
X70405238Y-78404047D02*
X70405238Y-77754047D01*
X70560000Y-77754047D01*
X70652857Y-77785000D01*
X70714761Y-77846904D01*
X70745714Y-77908809D01*
X70776666Y-78032619D01*
X70776666Y-78125476D01*
X70745714Y-78249285D01*
X70714761Y-78311190D01*
X70652857Y-78373095D01*
X70560000Y-78404047D01*
X70405238Y-78404047D01*
X67215952Y-131004047D02*
X66999285Y-130694523D01*
X66844523Y-131004047D02*
X66844523Y-130354047D01*
X67092142Y-130354047D01*
X67154047Y-130385000D01*
X67185000Y-130415952D01*
X67215952Y-130477857D01*
X67215952Y-130570714D01*
X67185000Y-130632619D01*
X67154047Y-130663571D01*
X67092142Y-130694523D01*
X66844523Y-130694523D01*
X67494523Y-130663571D02*
X67711190Y-130663571D01*
X67804047Y-131004047D02*
X67494523Y-131004047D01*
X67494523Y-130354047D01*
X67804047Y-130354047D01*
X68051666Y-130973095D02*
X68144523Y-131004047D01*
X68299285Y-131004047D01*
X68361190Y-130973095D01*
X68392142Y-130942142D01*
X68423095Y-130880238D01*
X68423095Y-130818333D01*
X68392142Y-130756428D01*
X68361190Y-130725476D01*
X68299285Y-130694523D01*
X68175476Y-130663571D01*
X68113571Y-130632619D01*
X68082619Y-130601666D01*
X68051666Y-130539761D01*
X68051666Y-130477857D01*
X68082619Y-130415952D01*
X68113571Y-130385000D01*
X68175476Y-130354047D01*
X68330238Y-130354047D01*
X68423095Y-130385000D01*
X68701666Y-130663571D02*
X68918333Y-130663571D01*
X69011190Y-131004047D02*
X68701666Y-131004047D01*
X68701666Y-130354047D01*
X69011190Y-130354047D01*
X69196904Y-130354047D02*
X69568333Y-130354047D01*
X69382619Y-131004047D02*
X69382619Y-130354047D01*
D11*
X38551996Y-99725572D02*
X38277294Y-99136472D01*
X38804468Y-99607843D02*
X38660576Y-99299267D01*
X38606362Y-99256243D01*
X38537176Y-99254353D01*
X38453019Y-99293596D01*
X38409995Y-99347810D01*
X38395024Y-99388944D01*
X38817700Y-99123542D02*
X39042119Y-99018894D01*
X38810290Y-98887932D02*
X39045748Y-99392875D01*
X39099963Y-99435899D01*
X39169149Y-99437789D01*
X39225253Y-99411627D01*
X39154328Y-98966570D02*
X39378747Y-98861921D01*
X39146918Y-98730960D02*
X39382377Y-99235903D01*
X39436591Y-99278927D01*
X39505777Y-99280817D01*
X39561882Y-99254655D01*
X39575114Y-98770354D02*
X39849816Y-99359454D01*
X39588195Y-98798407D02*
X39631219Y-98744192D01*
X39743428Y-98691868D01*
X39812614Y-98693758D01*
X39853748Y-98708730D01*
X39907962Y-98751753D01*
X39986448Y-98920068D01*
X39984558Y-98989253D01*
X39969587Y-99030387D01*
X39926563Y-99084601D01*
X39814353Y-99136925D01*
X39745168Y-99135035D01*
X40250111Y-98899576D02*
X40319296Y-98901467D01*
X40431506Y-98849143D01*
X40474530Y-98794928D01*
X40476420Y-98725742D01*
X40463339Y-98697690D01*
X40409124Y-98654666D01*
X40339939Y-98652776D01*
X40255781Y-98692019D01*
X40186596Y-98690129D01*
X40132381Y-98647105D01*
X40119300Y-98619053D01*
X40121190Y-98549867D01*
X40164214Y-98495652D01*
X40248371Y-98456409D01*
X40317557Y-98458299D01*
X40741972Y-98636065D02*
X40783106Y-98651037D01*
X40768135Y-98692170D01*
X40727001Y-98677199D01*
X40741972Y-98636065D01*
X40768135Y-98692170D01*
X40598081Y-98327489D02*
X40639214Y-98342460D01*
X40624243Y-98383594D01*
X40583110Y-98368622D01*
X40598081Y-98327489D01*
X40624243Y-98383594D01*
X41181661Y-97747992D02*
X41029906Y-98740865D01*
X41798814Y-97460209D02*
X41647059Y-98453082D01*
X42522354Y-97840012D02*
X42479330Y-97894227D01*
X42367120Y-97946551D01*
X42297935Y-97944660D01*
X42256801Y-97929689D01*
X42202587Y-97886665D01*
X42124100Y-97718351D01*
X42125991Y-97649165D01*
X42140962Y-97608032D01*
X42183986Y-97553817D01*
X42296195Y-97501493D01*
X42365381Y-97503383D01*
X42872063Y-97711092D02*
X42802878Y-97709202D01*
X42761744Y-97694230D01*
X42707530Y-97651207D01*
X42629043Y-97482892D01*
X42630934Y-97413706D01*
X42645905Y-97372573D01*
X42688929Y-97318359D01*
X42773086Y-97279115D01*
X42842272Y-97281006D01*
X42883405Y-97295977D01*
X42937620Y-97339001D01*
X43016106Y-97507315D01*
X43014216Y-97576501D01*
X42999244Y-97617634D01*
X42956220Y-97671849D01*
X42872063Y-97711092D01*
X43137767Y-97109062D02*
X43320901Y-97501795D01*
X43163929Y-97165167D02*
X43178900Y-97124033D01*
X43221924Y-97069819D01*
X43306081Y-97030576D01*
X43375267Y-97032466D01*
X43429481Y-97075490D01*
X43573373Y-97384066D01*
X44065235Y-97120555D02*
X44022211Y-97174769D01*
X43910002Y-97227093D01*
X43840816Y-97225203D01*
X43786601Y-97182179D01*
X43681953Y-96957760D01*
X43683843Y-96888574D01*
X43726867Y-96834360D01*
X43839076Y-96782036D01*
X43908262Y-96783926D01*
X43962477Y-96826950D01*
X43988639Y-96883055D01*
X43734277Y-97069970D01*
X44332678Y-96961692D02*
X44373811Y-96976663D01*
X44358840Y-97017797D01*
X44317706Y-97002825D01*
X44332678Y-96961692D01*
X44358840Y-97017797D01*
X44878754Y-96741205D02*
X44835730Y-96795419D01*
X44723521Y-96847743D01*
X44654335Y-96845853D01*
X44613201Y-96830882D01*
X44558987Y-96787858D01*
X44480501Y-96619544D01*
X44482391Y-96550358D01*
X44497362Y-96509224D01*
X44540386Y-96455010D01*
X44652596Y-96402686D01*
X44721781Y-96404576D01*
X45228464Y-96612284D02*
X45159278Y-96610394D01*
X45118144Y-96595423D01*
X45063930Y-96552399D01*
X44985444Y-96384085D01*
X44987334Y-96314899D01*
X45002305Y-96273766D01*
X45045329Y-96219551D01*
X45129486Y-96180308D01*
X45198672Y-96182198D01*
X45239805Y-96197170D01*
X45294020Y-96240193D01*
X45372506Y-96408508D01*
X45370616Y-96477693D01*
X45355644Y-96518827D01*
X45312621Y-96573041D01*
X45228464Y-96612284D01*
X45929773Y-96285258D02*
X45655071Y-95696158D01*
X45916692Y-96257206D02*
X45873668Y-96311421D01*
X45761459Y-96363745D01*
X45692273Y-96361854D01*
X45651140Y-96346883D01*
X45596925Y-96303859D01*
X45518439Y-96135545D01*
X45520329Y-96066359D01*
X45535301Y-96025226D01*
X45578324Y-95971011D01*
X45690534Y-95918687D01*
X45759720Y-95920577D01*
X46421635Y-96021747D02*
X46378611Y-96075962D01*
X46266402Y-96128286D01*
X46197216Y-96126396D01*
X46143001Y-96083372D01*
X46038353Y-95858953D01*
X46040243Y-95789767D01*
X46083267Y-95735553D01*
X46195477Y-95683228D01*
X46264663Y-95685119D01*
X46318877Y-95728142D01*
X46345039Y-95784247D01*
X46090677Y-95971162D01*
X46674106Y-95904018D02*
X46743292Y-95905908D01*
X46855502Y-95853584D01*
X46898526Y-95799370D01*
X46900416Y-95730184D01*
X46887335Y-95702131D01*
X46833120Y-95659108D01*
X46763935Y-95657217D01*
X46679777Y-95696460D01*
X46610592Y-95694570D01*
X46556377Y-95651546D01*
X46543296Y-95623494D01*
X46545186Y-95554308D01*
X46588210Y-95500094D01*
X46672367Y-95460851D01*
X46741553Y-95462741D01*
D10*
X100502857Y-88174000D02*
X100407619Y-88126380D01*
X100264762Y-88126380D01*
X100121904Y-88174000D01*
X100026666Y-88269238D01*
X99979047Y-88364476D01*
X99931428Y-88554952D01*
X99931428Y-88697809D01*
X99979047Y-88888285D01*
X100026666Y-88983523D01*
X100121904Y-89078761D01*
X100264762Y-89126380D01*
X100360000Y-89126380D01*
X100502857Y-89078761D01*
X100550476Y-89031142D01*
X100550476Y-88697809D01*
X100360000Y-88697809D01*
X100979047Y-89126380D02*
X100979047Y-88126380D01*
X101550476Y-89126380D01*
X101550476Y-88126380D01*
X102026666Y-89126380D02*
X102026666Y-88126380D01*
X102264762Y-88126380D01*
X102407619Y-88174000D01*
X102502857Y-88269238D01*
X102550476Y-88364476D01*
X102598095Y-88554952D01*
X102598095Y-88697809D01*
X102550476Y-88888285D01*
X102502857Y-88983523D01*
X102407619Y-89078761D01*
X102264762Y-89126380D01*
X102026666Y-89126380D01*
X98677143Y-101802380D02*
X98677143Y-100802380D01*
X99010476Y-101516666D01*
X99343810Y-100802380D01*
X99343810Y-101802380D01*
X99820000Y-101802380D02*
X99820000Y-100802380D01*
X100248572Y-101754761D02*
X100391429Y-101802380D01*
X100629524Y-101802380D01*
X100724762Y-101754761D01*
X100772381Y-101707142D01*
X100820000Y-101611904D01*
X100820000Y-101516666D01*
X100772381Y-101421428D01*
X100724762Y-101373809D01*
X100629524Y-101326190D01*
X100439048Y-101278571D01*
X100343810Y-101230952D01*
X100296191Y-101183333D01*
X100248572Y-101088095D01*
X100248572Y-100992857D01*
X100296191Y-100897619D01*
X100343810Y-100850000D01*
X100439048Y-100802380D01*
X100677143Y-100802380D01*
X100820000Y-100850000D01*
X101439048Y-100802380D02*
X101629524Y-100802380D01*
X101724762Y-100850000D01*
X101820000Y-100945238D01*
X101867619Y-101135714D01*
X101867619Y-101469047D01*
X101820000Y-101659523D01*
X101724762Y-101754761D01*
X101629524Y-101802380D01*
X101439048Y-101802380D01*
X101343810Y-101754761D01*
X101248572Y-101659523D01*
X101200952Y-101469047D01*
X101200952Y-101135714D01*
X101248572Y-100945238D01*
X101343810Y-100850000D01*
X101439048Y-100802380D01*
X98677143Y-104552380D02*
X98677143Y-103552380D01*
X99010476Y-104266666D01*
X99343810Y-103552380D01*
X99343810Y-104552380D01*
X100010476Y-103552380D02*
X100200952Y-103552380D01*
X100296191Y-103600000D01*
X100391429Y-103695238D01*
X100439048Y-103885714D01*
X100439048Y-104219047D01*
X100391429Y-104409523D01*
X100296191Y-104504761D01*
X100200952Y-104552380D01*
X100010476Y-104552380D01*
X99915238Y-104504761D01*
X99820000Y-104409523D01*
X99772381Y-104219047D01*
X99772381Y-103885714D01*
X99820000Y-103695238D01*
X99915238Y-103600000D01*
X100010476Y-103552380D01*
X100820000Y-104504761D02*
X100962857Y-104552380D01*
X101200952Y-104552380D01*
X101296191Y-104504761D01*
X101343810Y-104457142D01*
X101391429Y-104361904D01*
X101391429Y-104266666D01*
X101343810Y-104171428D01*
X101296191Y-104123809D01*
X101200952Y-104076190D01*
X101010476Y-104028571D01*
X100915238Y-103980952D01*
X100867619Y-103933333D01*
X100820000Y-103838095D01*
X100820000Y-103742857D01*
X100867619Y-103647619D01*
X100915238Y-103600000D01*
X101010476Y-103552380D01*
X101248572Y-103552380D01*
X101391429Y-103600000D01*
X101820000Y-104552380D02*
X101820000Y-103552380D01*
%TO.C,R39*%
X95042142Y-72154047D02*
X94825476Y-71844523D01*
X94670714Y-72154047D02*
X94670714Y-71504047D01*
X94918333Y-71504047D01*
X94980238Y-71535000D01*
X95011190Y-71565952D01*
X95042142Y-71627857D01*
X95042142Y-71720714D01*
X95011190Y-71782619D01*
X94980238Y-71813571D01*
X94918333Y-71844523D01*
X94670714Y-71844523D01*
X95258809Y-71504047D02*
X95661190Y-71504047D01*
X95444523Y-71751666D01*
X95537380Y-71751666D01*
X95599285Y-71782619D01*
X95630238Y-71813571D01*
X95661190Y-71875476D01*
X95661190Y-72030238D01*
X95630238Y-72092142D01*
X95599285Y-72123095D01*
X95537380Y-72154047D01*
X95351666Y-72154047D01*
X95289761Y-72123095D01*
X95258809Y-72092142D01*
X95970714Y-72154047D02*
X96094523Y-72154047D01*
X96156428Y-72123095D01*
X96187380Y-72092142D01*
X96249285Y-71999285D01*
X96280238Y-71875476D01*
X96280238Y-71627857D01*
X96249285Y-71565952D01*
X96218333Y-71535000D01*
X96156428Y-71504047D01*
X96032619Y-71504047D01*
X95970714Y-71535000D01*
X95939761Y-71565952D01*
X95908809Y-71627857D01*
X95908809Y-71782619D01*
X95939761Y-71844523D01*
X95970714Y-71875476D01*
X96032619Y-71906428D01*
X96156428Y-71906428D01*
X96218333Y-71875476D01*
X96249285Y-71844523D01*
X96280238Y-71782619D01*
%TO.C,D5*%
X89021404Y-57537380D02*
X89021404Y-56537380D01*
X89259500Y-56537380D01*
X89402357Y-56585000D01*
X89497595Y-56680238D01*
X89545214Y-56775476D01*
X89592833Y-56965952D01*
X89592833Y-57108809D01*
X89545214Y-57299285D01*
X89497595Y-57394523D01*
X89402357Y-57489761D01*
X89259500Y-57537380D01*
X89021404Y-57537380D01*
X90497595Y-56537380D02*
X90021404Y-56537380D01*
X89973785Y-57013571D01*
X90021404Y-56965952D01*
X90116642Y-56918333D01*
X90354738Y-56918333D01*
X90449976Y-56965952D01*
X90497595Y-57013571D01*
X90545214Y-57108809D01*
X90545214Y-57346904D01*
X90497595Y-57442142D01*
X90449976Y-57489761D01*
X90354738Y-57537380D01*
X90116642Y-57537380D01*
X90021404Y-57489761D01*
X89973785Y-57442142D01*
%TO.C,C32*%
X82587143Y-72237142D02*
X82556191Y-72268095D01*
X82463334Y-72299047D01*
X82401429Y-72299047D01*
X82308572Y-72268095D01*
X82246667Y-72206190D01*
X82215715Y-72144285D01*
X82184762Y-72020476D01*
X82184762Y-71927619D01*
X82215715Y-71803809D01*
X82246667Y-71741904D01*
X82308572Y-71680000D01*
X82401429Y-71649047D01*
X82463334Y-71649047D01*
X82556191Y-71680000D01*
X82587143Y-71710952D01*
X82803810Y-71649047D02*
X83206191Y-71649047D01*
X82989524Y-71896666D01*
X83082381Y-71896666D01*
X83144286Y-71927619D01*
X83175239Y-71958571D01*
X83206191Y-72020476D01*
X83206191Y-72175238D01*
X83175239Y-72237142D01*
X83144286Y-72268095D01*
X83082381Y-72299047D01*
X82896667Y-72299047D01*
X82834762Y-72268095D01*
X82803810Y-72237142D01*
X83453810Y-71710952D02*
X83484762Y-71680000D01*
X83546667Y-71649047D01*
X83701429Y-71649047D01*
X83763334Y-71680000D01*
X83794286Y-71710952D01*
X83825239Y-71772857D01*
X83825239Y-71834761D01*
X83794286Y-71927619D01*
X83422858Y-72299047D01*
X83825239Y-72299047D01*
%TO.C,C24*%
X36572142Y-77502142D02*
X36541190Y-77533095D01*
X36448333Y-77564047D01*
X36386428Y-77564047D01*
X36293571Y-77533095D01*
X36231666Y-77471190D01*
X36200714Y-77409285D01*
X36169761Y-77285476D01*
X36169761Y-77192619D01*
X36200714Y-77068809D01*
X36231666Y-77006904D01*
X36293571Y-76945000D01*
X36386428Y-76914047D01*
X36448333Y-76914047D01*
X36541190Y-76945000D01*
X36572142Y-76975952D01*
X36819761Y-76975952D02*
X36850714Y-76945000D01*
X36912619Y-76914047D01*
X37067380Y-76914047D01*
X37129285Y-76945000D01*
X37160238Y-76975952D01*
X37191190Y-77037857D01*
X37191190Y-77099761D01*
X37160238Y-77192619D01*
X36788809Y-77564047D01*
X37191190Y-77564047D01*
X37748333Y-77130714D02*
X37748333Y-77564047D01*
X37593571Y-76883095D02*
X37438809Y-77347380D01*
X37841190Y-77347380D01*
%TO.C,L6*%
X76581666Y-77174047D02*
X76272142Y-77174047D01*
X76272142Y-76524047D01*
X77076904Y-76524047D02*
X76953095Y-76524047D01*
X76891190Y-76555000D01*
X76860238Y-76585952D01*
X76798333Y-76678809D01*
X76767380Y-76802619D01*
X76767380Y-77050238D01*
X76798333Y-77112142D01*
X76829285Y-77143095D01*
X76891190Y-77174047D01*
X77015000Y-77174047D01*
X77076904Y-77143095D01*
X77107857Y-77112142D01*
X77138809Y-77050238D01*
X77138809Y-76895476D01*
X77107857Y-76833571D01*
X77076904Y-76802619D01*
X77015000Y-76771666D01*
X76891190Y-76771666D01*
X76829285Y-76802619D01*
X76798333Y-76833571D01*
X76767380Y-76895476D01*
%TO.C,C5*%
X55561666Y-56547141D02*
X55530714Y-56578094D01*
X55437857Y-56609046D01*
X55375952Y-56609046D01*
X55283095Y-56578094D01*
X55221190Y-56516189D01*
X55190238Y-56454284D01*
X55159285Y-56330475D01*
X55159285Y-56237618D01*
X55190238Y-56113808D01*
X55221190Y-56051903D01*
X55283095Y-55989999D01*
X55375952Y-55959046D01*
X55437857Y-55959046D01*
X55530714Y-55989999D01*
X55561666Y-56020951D01*
X56149761Y-55959046D02*
X55840238Y-55959046D01*
X55809285Y-56268570D01*
X55840238Y-56237618D01*
X55902142Y-56206665D01*
X56056904Y-56206665D01*
X56118809Y-56237618D01*
X56149761Y-56268570D01*
X56180714Y-56330475D01*
X56180714Y-56485237D01*
X56149761Y-56547141D01*
X56118809Y-56578094D01*
X56056904Y-56609046D01*
X55902142Y-56609046D01*
X55840238Y-56578094D01*
X55809285Y-56547141D01*
%TO.C,C22*%
X41167072Y-127980437D02*
X41167072Y-128024210D01*
X41123298Y-128111757D01*
X41079525Y-128155530D01*
X40991979Y-128199303D01*
X40904432Y-128199303D01*
X40838772Y-128177417D01*
X40729339Y-128111757D01*
X40663679Y-128046097D01*
X40598019Y-127936664D01*
X40576132Y-127871004D01*
X40576132Y-127783457D01*
X40619906Y-127695911D01*
X40663679Y-127652137D01*
X40751226Y-127608364D01*
X40794999Y-127608364D01*
X40970092Y-127433271D02*
X40970092Y-127389498D01*
X40991979Y-127323838D01*
X41101412Y-127214405D01*
X41167072Y-127192518D01*
X41210845Y-127192518D01*
X41276505Y-127214405D01*
X41320278Y-127258178D01*
X41364051Y-127345724D01*
X41364051Y-127871004D01*
X41648578Y-127586477D01*
X41407825Y-126995538D02*
X41407825Y-126951765D01*
X41429711Y-126886105D01*
X41539145Y-126776672D01*
X41604804Y-126754785D01*
X41648578Y-126754785D01*
X41714238Y-126776672D01*
X41758011Y-126820445D01*
X41801784Y-126907992D01*
X41801784Y-127433271D01*
X42086310Y-127148745D01*
%TO.C,C16*%
X46762142Y-111442142D02*
X46731190Y-111473095D01*
X46638333Y-111504047D01*
X46576428Y-111504047D01*
X46483571Y-111473095D01*
X46421666Y-111411190D01*
X46390714Y-111349285D01*
X46359761Y-111225476D01*
X46359761Y-111132619D01*
X46390714Y-111008809D01*
X46421666Y-110946904D01*
X46483571Y-110885000D01*
X46576428Y-110854047D01*
X46638333Y-110854047D01*
X46731190Y-110885000D01*
X46762142Y-110915952D01*
X47381190Y-111504047D02*
X47009761Y-111504047D01*
X47195476Y-111504047D02*
X47195476Y-110854047D01*
X47133571Y-110946904D01*
X47071666Y-111008809D01*
X47009761Y-111039761D01*
X47938333Y-110854047D02*
X47814523Y-110854047D01*
X47752619Y-110885000D01*
X47721666Y-110915952D01*
X47659761Y-111008809D01*
X47628809Y-111132619D01*
X47628809Y-111380238D01*
X47659761Y-111442142D01*
X47690714Y-111473095D01*
X47752619Y-111504047D01*
X47876428Y-111504047D01*
X47938333Y-111473095D01*
X47969285Y-111442142D01*
X48000238Y-111380238D01*
X48000238Y-111225476D01*
X47969285Y-111163571D01*
X47938333Y-111132619D01*
X47876428Y-111101666D01*
X47752619Y-111101666D01*
X47690714Y-111132619D01*
X47659761Y-111163571D01*
X47628809Y-111225476D01*
%TO.C,U3*%
X50274761Y-59424047D02*
X50274761Y-59950238D01*
X50305714Y-60012142D01*
X50336666Y-60043095D01*
X50398571Y-60074047D01*
X50522380Y-60074047D01*
X50584285Y-60043095D01*
X50615238Y-60012142D01*
X50646190Y-59950238D01*
X50646190Y-59424047D01*
X50893809Y-59424047D02*
X51296190Y-59424047D01*
X51079523Y-59671666D01*
X51172380Y-59671666D01*
X51234285Y-59702619D01*
X51265238Y-59733571D01*
X51296190Y-59795476D01*
X51296190Y-59950238D01*
X51265238Y-60012142D01*
X51234285Y-60043095D01*
X51172380Y-60074047D01*
X50986666Y-60074047D01*
X50924761Y-60043095D01*
X50893809Y-60012142D01*
%TO.C,C21*%
X46932142Y-130242142D02*
X46901190Y-130273095D01*
X46808333Y-130304047D01*
X46746428Y-130304047D01*
X46653571Y-130273095D01*
X46591666Y-130211190D01*
X46560714Y-130149285D01*
X46529761Y-130025476D01*
X46529761Y-129932619D01*
X46560714Y-129808809D01*
X46591666Y-129746904D01*
X46653571Y-129685000D01*
X46746428Y-129654047D01*
X46808333Y-129654047D01*
X46901190Y-129685000D01*
X46932142Y-129715952D01*
X47179761Y-129715952D02*
X47210714Y-129685000D01*
X47272619Y-129654047D01*
X47427380Y-129654047D01*
X47489285Y-129685000D01*
X47520238Y-129715952D01*
X47551190Y-129777857D01*
X47551190Y-129839761D01*
X47520238Y-129932619D01*
X47148809Y-130304047D01*
X47551190Y-130304047D01*
X48170238Y-130304047D02*
X47798809Y-130304047D01*
X47984523Y-130304047D02*
X47984523Y-129654047D01*
X47922619Y-129746904D01*
X47860714Y-129808809D01*
X47798809Y-129839761D01*
%TO.C,C18*%
X47523325Y-128354629D02*
X47523325Y-128398402D01*
X47479551Y-128485949D01*
X47435778Y-128529722D01*
X47348232Y-128573495D01*
X47260685Y-128573495D01*
X47195025Y-128551609D01*
X47085592Y-128485949D01*
X47019932Y-128420289D01*
X46954272Y-128310856D01*
X46932385Y-128245196D01*
X46932385Y-128157649D01*
X46976159Y-128070103D01*
X47019932Y-128026329D01*
X47107479Y-127982556D01*
X47151252Y-127982556D01*
X48004831Y-127960669D02*
X47742191Y-128223309D01*
X47873511Y-128091989D02*
X47413891Y-127632370D01*
X47435778Y-127741803D01*
X47435778Y-127829350D01*
X47413891Y-127895010D01*
X48004831Y-127435390D02*
X47939171Y-127457277D01*
X47895398Y-127457277D01*
X47829738Y-127435390D01*
X47807851Y-127413503D01*
X47785964Y-127347844D01*
X47785964Y-127304070D01*
X47807851Y-127238410D01*
X47895398Y-127150864D01*
X47961057Y-127128977D01*
X48004831Y-127128977D01*
X48070491Y-127150864D01*
X48092377Y-127172750D01*
X48114264Y-127238410D01*
X48114264Y-127282184D01*
X48092377Y-127347844D01*
X48004831Y-127435390D01*
X47982944Y-127501050D01*
X47982944Y-127544823D01*
X48004831Y-127610483D01*
X48092377Y-127698030D01*
X48158037Y-127719916D01*
X48201810Y-127719916D01*
X48267470Y-127698030D01*
X48355017Y-127610483D01*
X48376904Y-127544823D01*
X48376904Y-127501050D01*
X48355017Y-127435390D01*
X48267470Y-127347844D01*
X48201810Y-127325957D01*
X48158037Y-127325957D01*
X48092377Y-127347844D01*
%TO.C,R34*%
X73117142Y-61409047D02*
X72900476Y-61099523D01*
X72745714Y-61409047D02*
X72745714Y-60759047D01*
X72993333Y-60759047D01*
X73055238Y-60790000D01*
X73086190Y-60820952D01*
X73117142Y-60882857D01*
X73117142Y-60975714D01*
X73086190Y-61037619D01*
X73055238Y-61068571D01*
X72993333Y-61099523D01*
X72745714Y-61099523D01*
X73333809Y-60759047D02*
X73736190Y-60759047D01*
X73519523Y-61006666D01*
X73612380Y-61006666D01*
X73674285Y-61037619D01*
X73705238Y-61068571D01*
X73736190Y-61130476D01*
X73736190Y-61285238D01*
X73705238Y-61347142D01*
X73674285Y-61378095D01*
X73612380Y-61409047D01*
X73426666Y-61409047D01*
X73364761Y-61378095D01*
X73333809Y-61347142D01*
X74293333Y-60975714D02*
X74293333Y-61409047D01*
X74138571Y-60728095D02*
X73983809Y-61192380D01*
X74386190Y-61192380D01*
%TO.C,C47*%
X87327141Y-62127141D02*
X87296189Y-62158094D01*
X87203332Y-62189046D01*
X87141427Y-62189046D01*
X87048570Y-62158094D01*
X86986665Y-62096189D01*
X86955713Y-62034284D01*
X86924760Y-61910475D01*
X86924760Y-61817618D01*
X86955713Y-61693808D01*
X86986665Y-61631903D01*
X87048570Y-61569999D01*
X87141427Y-61539046D01*
X87203332Y-61539046D01*
X87296189Y-61569999D01*
X87327141Y-61600951D01*
X87884284Y-61755713D02*
X87884284Y-62189046D01*
X87729522Y-61508094D02*
X87574760Y-61972379D01*
X87977141Y-61972379D01*
X88162856Y-61539046D02*
X88596189Y-61539046D01*
X88317618Y-62189046D01*
%TO.C,R26*%
X44409768Y-122670707D02*
X44037695Y-122605047D01*
X44147128Y-122933347D02*
X43687509Y-122473727D01*
X43862602Y-122298634D01*
X43928262Y-122276748D01*
X43972035Y-122276748D01*
X44037695Y-122298634D01*
X44103355Y-122364294D01*
X44125242Y-122429954D01*
X44125242Y-122473727D01*
X44103355Y-122539387D01*
X43928262Y-122714480D01*
X44169015Y-122079768D02*
X44169015Y-122035995D01*
X44190902Y-121970335D01*
X44300335Y-121860902D01*
X44365995Y-121839015D01*
X44409768Y-121839015D01*
X44475428Y-121860902D01*
X44519201Y-121904675D01*
X44562974Y-121992221D01*
X44562974Y-122517501D01*
X44847501Y-122232974D01*
X44781841Y-121379396D02*
X44694294Y-121466942D01*
X44672408Y-121532602D01*
X44672408Y-121576375D01*
X44694294Y-121685808D01*
X44759954Y-121795242D01*
X44935047Y-121970335D01*
X45000707Y-121992221D01*
X45044480Y-121992221D01*
X45110140Y-121970335D01*
X45197687Y-121882788D01*
X45219574Y-121817128D01*
X45219574Y-121773355D01*
X45197687Y-121707695D01*
X45088254Y-121598262D01*
X45022594Y-121576375D01*
X44978821Y-121576375D01*
X44913161Y-121598262D01*
X44825614Y-121685808D01*
X44803727Y-121751468D01*
X44803727Y-121795242D01*
X44825614Y-121860902D01*
%TO.C,Y4*%
X35310476Y-80134523D02*
X35310476Y-80444047D01*
X35093809Y-79794047D02*
X35310476Y-80134523D01*
X35527142Y-79794047D01*
X36022380Y-80010714D02*
X36022380Y-80444047D01*
X35867619Y-79763095D02*
X35712857Y-80227380D01*
X36115238Y-80227380D01*
%TO.C,C33*%
X40322142Y-66022142D02*
X40291190Y-66053095D01*
X40198333Y-66084047D01*
X40136428Y-66084047D01*
X40043571Y-66053095D01*
X39981666Y-65991190D01*
X39950714Y-65929285D01*
X39919761Y-65805476D01*
X39919761Y-65712619D01*
X39950714Y-65588809D01*
X39981666Y-65526904D01*
X40043571Y-65465000D01*
X40136428Y-65434047D01*
X40198333Y-65434047D01*
X40291190Y-65465000D01*
X40322142Y-65495952D01*
X40538809Y-65434047D02*
X40941190Y-65434047D01*
X40724523Y-65681666D01*
X40817380Y-65681666D01*
X40879285Y-65712619D01*
X40910238Y-65743571D01*
X40941190Y-65805476D01*
X40941190Y-65960238D01*
X40910238Y-66022142D01*
X40879285Y-66053095D01*
X40817380Y-66084047D01*
X40631666Y-66084047D01*
X40569761Y-66053095D01*
X40538809Y-66022142D01*
X41157857Y-65434047D02*
X41560238Y-65434047D01*
X41343571Y-65681666D01*
X41436428Y-65681666D01*
X41498333Y-65712619D01*
X41529285Y-65743571D01*
X41560238Y-65805476D01*
X41560238Y-65960238D01*
X41529285Y-66022142D01*
X41498333Y-66053095D01*
X41436428Y-66084047D01*
X41250714Y-66084047D01*
X41188809Y-66053095D01*
X41157857Y-66022142D01*
%TO.C,R31*%
X83437142Y-54609046D02*
X83220476Y-54299522D01*
X83065714Y-54609046D02*
X83065714Y-53959046D01*
X83313333Y-53959046D01*
X83375238Y-53989999D01*
X83406190Y-54020951D01*
X83437142Y-54082856D01*
X83437142Y-54175713D01*
X83406190Y-54237618D01*
X83375238Y-54268570D01*
X83313333Y-54299522D01*
X83065714Y-54299522D01*
X83653809Y-53959046D02*
X84056190Y-53959046D01*
X83839523Y-54206665D01*
X83932380Y-54206665D01*
X83994285Y-54237618D01*
X84025238Y-54268570D01*
X84056190Y-54330475D01*
X84056190Y-54485237D01*
X84025238Y-54547141D01*
X83994285Y-54578094D01*
X83932380Y-54609046D01*
X83746666Y-54609046D01*
X83684761Y-54578094D01*
X83653809Y-54547141D01*
X84675238Y-54609046D02*
X84303809Y-54609046D01*
X84489523Y-54609046D02*
X84489523Y-53959046D01*
X84427619Y-54051903D01*
X84365714Y-54113808D01*
X84303809Y-54144760D01*
%TO.C,C46*%
X105817143Y-60247142D02*
X105786191Y-60278095D01*
X105693334Y-60309047D01*
X105631429Y-60309047D01*
X105538572Y-60278095D01*
X105476667Y-60216190D01*
X105445715Y-60154285D01*
X105414762Y-60030476D01*
X105414762Y-59937619D01*
X105445715Y-59813809D01*
X105476667Y-59751904D01*
X105538572Y-59690000D01*
X105631429Y-59659047D01*
X105693334Y-59659047D01*
X105786191Y-59690000D01*
X105817143Y-59720952D01*
X106374286Y-59875714D02*
X106374286Y-60309047D01*
X106219524Y-59628095D02*
X106064762Y-60092380D01*
X106467143Y-60092380D01*
X106993334Y-59659047D02*
X106869524Y-59659047D01*
X106807620Y-59690000D01*
X106776667Y-59720952D01*
X106714762Y-59813809D01*
X106683810Y-59937619D01*
X106683810Y-60185238D01*
X106714762Y-60247142D01*
X106745715Y-60278095D01*
X106807620Y-60309047D01*
X106931429Y-60309047D01*
X106993334Y-60278095D01*
X107024286Y-60247142D01*
X107055239Y-60185238D01*
X107055239Y-60030476D01*
X107024286Y-59968571D01*
X106993334Y-59937619D01*
X106931429Y-59906666D01*
X106807620Y-59906666D01*
X106745715Y-59937619D01*
X106714762Y-59968571D01*
X106683810Y-60030476D01*
%TO.C,U5*%
X36916258Y-103159466D02*
X36916258Y-103968990D01*
X36963877Y-104064228D01*
X37011496Y-104111847D01*
X37106734Y-104159466D01*
X37297210Y-104159466D01*
X37392448Y-104111847D01*
X37440067Y-104064228D01*
X37487686Y-103968990D01*
X37487686Y-103159466D01*
X38440067Y-103159466D02*
X37963877Y-103159466D01*
X37916258Y-103635657D01*
X37963877Y-103588038D01*
X38059115Y-103540419D01*
X38297210Y-103540419D01*
X38392448Y-103588038D01*
X38440067Y-103635657D01*
X38487686Y-103730895D01*
X38487686Y-103968990D01*
X38440067Y-104064228D01*
X38392448Y-104111847D01*
X38297210Y-104159466D01*
X38059115Y-104159466D01*
X37963877Y-104111847D01*
X37916258Y-104064228D01*
%TO.C,R43*%
X108442142Y-113844047D02*
X108225476Y-113534523D01*
X108070714Y-113844047D02*
X108070714Y-113194047D01*
X108318333Y-113194047D01*
X108380238Y-113225000D01*
X108411190Y-113255952D01*
X108442142Y-113317857D01*
X108442142Y-113410714D01*
X108411190Y-113472619D01*
X108380238Y-113503571D01*
X108318333Y-113534523D01*
X108070714Y-113534523D01*
X108999285Y-113410714D02*
X108999285Y-113844047D01*
X108844523Y-113163095D02*
X108689761Y-113627380D01*
X109092142Y-113627380D01*
X109277857Y-113194047D02*
X109680238Y-113194047D01*
X109463571Y-113441666D01*
X109556428Y-113441666D01*
X109618333Y-113472619D01*
X109649285Y-113503571D01*
X109680238Y-113565476D01*
X109680238Y-113720238D01*
X109649285Y-113782142D01*
X109618333Y-113813095D01*
X109556428Y-113844047D01*
X109370714Y-113844047D01*
X109308809Y-113813095D01*
X109277857Y-113782142D01*
%TO.C,C50*%
X34432142Y-69362142D02*
X34401190Y-69393095D01*
X34308333Y-69424047D01*
X34246428Y-69424047D01*
X34153571Y-69393095D01*
X34091666Y-69331190D01*
X34060714Y-69269285D01*
X34029761Y-69145476D01*
X34029761Y-69052619D01*
X34060714Y-68928809D01*
X34091666Y-68866904D01*
X34153571Y-68805000D01*
X34246428Y-68774047D01*
X34308333Y-68774047D01*
X34401190Y-68805000D01*
X34432142Y-68835952D01*
X35020238Y-68774047D02*
X34710714Y-68774047D01*
X34679761Y-69083571D01*
X34710714Y-69052619D01*
X34772619Y-69021666D01*
X34927380Y-69021666D01*
X34989285Y-69052619D01*
X35020238Y-69083571D01*
X35051190Y-69145476D01*
X35051190Y-69300238D01*
X35020238Y-69362142D01*
X34989285Y-69393095D01*
X34927380Y-69424047D01*
X34772619Y-69424047D01*
X34710714Y-69393095D01*
X34679761Y-69362142D01*
X35453571Y-68774047D02*
X35515476Y-68774047D01*
X35577380Y-68805000D01*
X35608333Y-68835952D01*
X35639285Y-68897857D01*
X35670238Y-69021666D01*
X35670238Y-69176428D01*
X35639285Y-69300238D01*
X35608333Y-69362142D01*
X35577380Y-69393095D01*
X35515476Y-69424047D01*
X35453571Y-69424047D01*
X35391666Y-69393095D01*
X35360714Y-69362142D01*
X35329761Y-69300238D01*
X35298809Y-69176428D01*
X35298809Y-69021666D01*
X35329761Y-68897857D01*
X35360714Y-68835952D01*
X35391666Y-68805000D01*
X35453571Y-68774047D01*
%TO.C,C45*%
X89957141Y-118132144D02*
X89926189Y-118163097D01*
X89833332Y-118194049D01*
X89771427Y-118194049D01*
X89678570Y-118163097D01*
X89616665Y-118101192D01*
X89585713Y-118039287D01*
X89554760Y-117915478D01*
X89554760Y-117822621D01*
X89585713Y-117698811D01*
X89616665Y-117636906D01*
X89678570Y-117575002D01*
X89771427Y-117544049D01*
X89833332Y-117544049D01*
X89926189Y-117575002D01*
X89957141Y-117605954D01*
X90514284Y-117760716D02*
X90514284Y-118194049D01*
X90359522Y-117513097D02*
X90204760Y-117977382D01*
X90607141Y-117977382D01*
X91164284Y-117544049D02*
X90854760Y-117544049D01*
X90823808Y-117853573D01*
X90854760Y-117822621D01*
X90916665Y-117791668D01*
X91071427Y-117791668D01*
X91133332Y-117822621D01*
X91164284Y-117853573D01*
X91195237Y-117915478D01*
X91195237Y-118070240D01*
X91164284Y-118132144D01*
X91133332Y-118163097D01*
X91071427Y-118194049D01*
X90916665Y-118194049D01*
X90854760Y-118163097D01*
X90823808Y-118132144D01*
%TO.C,U9*%
X72170711Y-107090540D02*
X72170711Y-107902193D01*
X72218455Y-107997682D01*
X72266200Y-108045426D01*
X72361688Y-108093170D01*
X72552665Y-108093170D01*
X72648154Y-108045426D01*
X72695898Y-107997682D01*
X72743642Y-107902193D01*
X72743642Y-107090540D01*
X73268830Y-108093170D02*
X73459807Y-108093170D01*
X73555295Y-108045426D01*
X73603040Y-107997682D01*
X73698528Y-107854449D01*
X73746272Y-107663472D01*
X73746272Y-107281517D01*
X73698528Y-107186029D01*
X73650784Y-107138285D01*
X73555295Y-107090540D01*
X73364318Y-107090540D01*
X73268830Y-107138285D01*
X73221085Y-107186029D01*
X73173341Y-107281517D01*
X73173341Y-107520239D01*
X73221085Y-107615727D01*
X73268830Y-107663472D01*
X73364318Y-107711216D01*
X73555295Y-107711216D01*
X73650784Y-107663472D01*
X73698528Y-107615727D01*
X73746272Y-107520239D01*
%TO.C,R8*%
X55801666Y-110414047D02*
X55585000Y-110104523D01*
X55430238Y-110414047D02*
X55430238Y-109764047D01*
X55677857Y-109764047D01*
X55739761Y-109795000D01*
X55770714Y-109825952D01*
X55801666Y-109887857D01*
X55801666Y-109980714D01*
X55770714Y-110042619D01*
X55739761Y-110073571D01*
X55677857Y-110104523D01*
X55430238Y-110104523D01*
X56173095Y-110042619D02*
X56111190Y-110011666D01*
X56080238Y-109980714D01*
X56049285Y-109918809D01*
X56049285Y-109887857D01*
X56080238Y-109825952D01*
X56111190Y-109795000D01*
X56173095Y-109764047D01*
X56296904Y-109764047D01*
X56358809Y-109795000D01*
X56389761Y-109825952D01*
X56420714Y-109887857D01*
X56420714Y-109918809D01*
X56389761Y-109980714D01*
X56358809Y-110011666D01*
X56296904Y-110042619D01*
X56173095Y-110042619D01*
X56111190Y-110073571D01*
X56080238Y-110104523D01*
X56049285Y-110166428D01*
X56049285Y-110290238D01*
X56080238Y-110352142D01*
X56111190Y-110383095D01*
X56173095Y-110414047D01*
X56296904Y-110414047D01*
X56358809Y-110383095D01*
X56389761Y-110352142D01*
X56420714Y-110290238D01*
X56420714Y-110166428D01*
X56389761Y-110104523D01*
X56358809Y-110073571D01*
X56296904Y-110042619D01*
%TO.C,C23*%
X51823786Y-108281524D02*
X51792834Y-108312477D01*
X51699977Y-108343429D01*
X51638072Y-108343429D01*
X51545215Y-108312477D01*
X51483310Y-108250572D01*
X51452358Y-108188667D01*
X51421405Y-108064858D01*
X51421405Y-107972001D01*
X51452358Y-107848191D01*
X51483310Y-107786286D01*
X51545215Y-107724382D01*
X51638072Y-107693429D01*
X51699977Y-107693429D01*
X51792834Y-107724382D01*
X51823786Y-107755334D01*
X52071405Y-107755334D02*
X52102358Y-107724382D01*
X52164263Y-107693429D01*
X52319024Y-107693429D01*
X52380929Y-107724382D01*
X52411882Y-107755334D01*
X52442834Y-107817239D01*
X52442834Y-107879143D01*
X52411882Y-107972001D01*
X52040453Y-108343429D01*
X52442834Y-108343429D01*
X52659501Y-107693429D02*
X53061882Y-107693429D01*
X52845215Y-107941048D01*
X52938072Y-107941048D01*
X52999977Y-107972001D01*
X53030929Y-108002953D01*
X53061882Y-108064858D01*
X53061882Y-108219620D01*
X53030929Y-108281524D01*
X52999977Y-108312477D01*
X52938072Y-108343429D01*
X52752358Y-108343429D01*
X52690453Y-108312477D01*
X52659501Y-108281524D01*
%TO.C,C49*%
X34432142Y-72372142D02*
X34401190Y-72403095D01*
X34308333Y-72434047D01*
X34246428Y-72434047D01*
X34153571Y-72403095D01*
X34091666Y-72341190D01*
X34060714Y-72279285D01*
X34029761Y-72155476D01*
X34029761Y-72062619D01*
X34060714Y-71938809D01*
X34091666Y-71876904D01*
X34153571Y-71815000D01*
X34246428Y-71784047D01*
X34308333Y-71784047D01*
X34401190Y-71815000D01*
X34432142Y-71845952D01*
X34989285Y-72000714D02*
X34989285Y-72434047D01*
X34834523Y-71753095D02*
X34679761Y-72217380D01*
X35082142Y-72217380D01*
X35360714Y-72434047D02*
X35484523Y-72434047D01*
X35546428Y-72403095D01*
X35577380Y-72372142D01*
X35639285Y-72279285D01*
X35670238Y-72155476D01*
X35670238Y-71907857D01*
X35639285Y-71845952D01*
X35608333Y-71815000D01*
X35546428Y-71784047D01*
X35422619Y-71784047D01*
X35360714Y-71815000D01*
X35329761Y-71845952D01*
X35298809Y-71907857D01*
X35298809Y-72062619D01*
X35329761Y-72124523D01*
X35360714Y-72155476D01*
X35422619Y-72186428D01*
X35546428Y-72186428D01*
X35608333Y-72155476D01*
X35639285Y-72124523D01*
X35670238Y-72062619D01*
%TO.C,R27*%
X45099144Y-123301331D02*
X44727071Y-123235671D01*
X44836504Y-123563971D02*
X44376885Y-123104351D01*
X44551978Y-122929258D01*
X44617638Y-122907372D01*
X44661411Y-122907372D01*
X44727071Y-122929258D01*
X44792731Y-122994918D01*
X44814618Y-123060578D01*
X44814618Y-123104351D01*
X44792731Y-123170011D01*
X44617638Y-123345104D01*
X44858391Y-122710392D02*
X44858391Y-122666619D01*
X44880278Y-122600959D01*
X44989711Y-122491526D01*
X45055371Y-122469639D01*
X45099144Y-122469639D01*
X45164804Y-122491526D01*
X45208577Y-122535299D01*
X45252350Y-122622845D01*
X45252350Y-123148125D01*
X45536877Y-122863598D01*
X45230464Y-122250773D02*
X45536877Y-121944360D01*
X45799516Y-122600959D01*
%TO.C,R24*%
X91227141Y-134644049D02*
X91010475Y-134334525D01*
X90855713Y-134644049D02*
X90855713Y-133994049D01*
X91103332Y-133994049D01*
X91165237Y-134025002D01*
X91196189Y-134055954D01*
X91227141Y-134117859D01*
X91227141Y-134210716D01*
X91196189Y-134272621D01*
X91165237Y-134303573D01*
X91103332Y-134334525D01*
X90855713Y-134334525D01*
X91474760Y-134055954D02*
X91505713Y-134025002D01*
X91567618Y-133994049D01*
X91722379Y-133994049D01*
X91784284Y-134025002D01*
X91815237Y-134055954D01*
X91846189Y-134117859D01*
X91846189Y-134179763D01*
X91815237Y-134272621D01*
X91443808Y-134644049D01*
X91846189Y-134644049D01*
X92403332Y-134210716D02*
X92403332Y-134644049D01*
X92248570Y-133963097D02*
X92093808Y-134427382D01*
X92496189Y-134427382D01*
%TO.C,C38*%
X46532142Y-64962142D02*
X46501190Y-64993095D01*
X46408333Y-65024047D01*
X46346428Y-65024047D01*
X46253571Y-64993095D01*
X46191666Y-64931190D01*
X46160714Y-64869285D01*
X46129761Y-64745476D01*
X46129761Y-64652619D01*
X46160714Y-64528809D01*
X46191666Y-64466904D01*
X46253571Y-64405000D01*
X46346428Y-64374047D01*
X46408333Y-64374047D01*
X46501190Y-64405000D01*
X46532142Y-64435952D01*
X46748809Y-64374047D02*
X47151190Y-64374047D01*
X46934523Y-64621666D01*
X47027380Y-64621666D01*
X47089285Y-64652619D01*
X47120238Y-64683571D01*
X47151190Y-64745476D01*
X47151190Y-64900238D01*
X47120238Y-64962142D01*
X47089285Y-64993095D01*
X47027380Y-65024047D01*
X46841666Y-65024047D01*
X46779761Y-64993095D01*
X46748809Y-64962142D01*
X47522619Y-64652619D02*
X47460714Y-64621666D01*
X47429761Y-64590714D01*
X47398809Y-64528809D01*
X47398809Y-64497857D01*
X47429761Y-64435952D01*
X47460714Y-64405000D01*
X47522619Y-64374047D01*
X47646428Y-64374047D01*
X47708333Y-64405000D01*
X47739285Y-64435952D01*
X47770238Y-64497857D01*
X47770238Y-64528809D01*
X47739285Y-64590714D01*
X47708333Y-64621666D01*
X47646428Y-64652619D01*
X47522619Y-64652619D01*
X47460714Y-64683571D01*
X47429761Y-64714523D01*
X47398809Y-64776428D01*
X47398809Y-64900238D01*
X47429761Y-64962142D01*
X47460714Y-64993095D01*
X47522619Y-65024047D01*
X47646428Y-65024047D01*
X47708333Y-64993095D01*
X47739285Y-64962142D01*
X47770238Y-64900238D01*
X47770238Y-64776428D01*
X47739285Y-64714523D01*
X47708333Y-64683571D01*
X47646428Y-64652619D01*
%TO.C,C26*%
X36582142Y-78402142D02*
X36551190Y-78433095D01*
X36458333Y-78464047D01*
X36396428Y-78464047D01*
X36303571Y-78433095D01*
X36241666Y-78371190D01*
X36210714Y-78309285D01*
X36179761Y-78185476D01*
X36179761Y-78092619D01*
X36210714Y-77968809D01*
X36241666Y-77906904D01*
X36303571Y-77845000D01*
X36396428Y-77814047D01*
X36458333Y-77814047D01*
X36551190Y-77845000D01*
X36582142Y-77875952D01*
X36829761Y-77875952D02*
X36860714Y-77845000D01*
X36922619Y-77814047D01*
X37077380Y-77814047D01*
X37139285Y-77845000D01*
X37170238Y-77875952D01*
X37201190Y-77937857D01*
X37201190Y-77999761D01*
X37170238Y-78092619D01*
X36798809Y-78464047D01*
X37201190Y-78464047D01*
X37758333Y-77814047D02*
X37634523Y-77814047D01*
X37572619Y-77845000D01*
X37541666Y-77875952D01*
X37479761Y-77968809D01*
X37448809Y-78092619D01*
X37448809Y-78340238D01*
X37479761Y-78402142D01*
X37510714Y-78433095D01*
X37572619Y-78464047D01*
X37696428Y-78464047D01*
X37758333Y-78433095D01*
X37789285Y-78402142D01*
X37820238Y-78340238D01*
X37820238Y-78185476D01*
X37789285Y-78123571D01*
X37758333Y-78092619D01*
X37696428Y-78061666D01*
X37572619Y-78061666D01*
X37510714Y-78092619D01*
X37479761Y-78123571D01*
X37448809Y-78185476D01*
%TO.C,C43*%
X102087142Y-60247142D02*
X102056190Y-60278095D01*
X101963333Y-60309047D01*
X101901428Y-60309047D01*
X101808571Y-60278095D01*
X101746666Y-60216190D01*
X101715714Y-60154285D01*
X101684761Y-60030476D01*
X101684761Y-59937619D01*
X101715714Y-59813809D01*
X101746666Y-59751904D01*
X101808571Y-59690000D01*
X101901428Y-59659047D01*
X101963333Y-59659047D01*
X102056190Y-59690000D01*
X102087142Y-59720952D01*
X102644285Y-59875714D02*
X102644285Y-60309047D01*
X102489523Y-59628095D02*
X102334761Y-60092380D01*
X102737142Y-60092380D01*
X102922857Y-59659047D02*
X103325238Y-59659047D01*
X103108571Y-59906666D01*
X103201428Y-59906666D01*
X103263333Y-59937619D01*
X103294285Y-59968571D01*
X103325238Y-60030476D01*
X103325238Y-60185238D01*
X103294285Y-60247142D01*
X103263333Y-60278095D01*
X103201428Y-60309047D01*
X103015714Y-60309047D01*
X102953809Y-60278095D01*
X102922857Y-60247142D01*
%TO.C,C40*%
X46282142Y-71202142D02*
X46251190Y-71233095D01*
X46158333Y-71264047D01*
X46096428Y-71264047D01*
X46003571Y-71233095D01*
X45941666Y-71171190D01*
X45910714Y-71109285D01*
X45879761Y-70985476D01*
X45879761Y-70892619D01*
X45910714Y-70768809D01*
X45941666Y-70706904D01*
X46003571Y-70645000D01*
X46096428Y-70614047D01*
X46158333Y-70614047D01*
X46251190Y-70645000D01*
X46282142Y-70675952D01*
X46839285Y-70830714D02*
X46839285Y-71264047D01*
X46684523Y-70583095D02*
X46529761Y-71047380D01*
X46932142Y-71047380D01*
X47303571Y-70614047D02*
X47365476Y-70614047D01*
X47427380Y-70645000D01*
X47458333Y-70675952D01*
X47489285Y-70737857D01*
X47520238Y-70861666D01*
X47520238Y-71016428D01*
X47489285Y-71140238D01*
X47458333Y-71202142D01*
X47427380Y-71233095D01*
X47365476Y-71264047D01*
X47303571Y-71264047D01*
X47241666Y-71233095D01*
X47210714Y-71202142D01*
X47179761Y-71140238D01*
X47148809Y-71016428D01*
X47148809Y-70861666D01*
X47179761Y-70737857D01*
X47210714Y-70675952D01*
X47241666Y-70645000D01*
X47303571Y-70614047D01*
%TO.C,L3*%
X51501666Y-130284047D02*
X51192142Y-130284047D01*
X51192142Y-129634047D01*
X51656428Y-129634047D02*
X52058809Y-129634047D01*
X51842142Y-129881666D01*
X51935000Y-129881666D01*
X51996904Y-129912619D01*
X52027857Y-129943571D01*
X52058809Y-130005476D01*
X52058809Y-130160238D01*
X52027857Y-130222142D01*
X51996904Y-130253095D01*
X51935000Y-130284047D01*
X51749285Y-130284047D01*
X51687380Y-130253095D01*
X51656428Y-130222142D01*
%TO.C,R32*%
X86702141Y-126899046D02*
X86485475Y-126589522D01*
X86330713Y-126899046D02*
X86330713Y-126249046D01*
X86578332Y-126249046D01*
X86640237Y-126279999D01*
X86671189Y-126310951D01*
X86702141Y-126372856D01*
X86702141Y-126465713D01*
X86671189Y-126527618D01*
X86640237Y-126558570D01*
X86578332Y-126589522D01*
X86330713Y-126589522D01*
X86918808Y-126249046D02*
X87321189Y-126249046D01*
X87104522Y-126496665D01*
X87197379Y-126496665D01*
X87259284Y-126527618D01*
X87290237Y-126558570D01*
X87321189Y-126620475D01*
X87321189Y-126775237D01*
X87290237Y-126837141D01*
X87259284Y-126868094D01*
X87197379Y-126899046D01*
X87011665Y-126899046D01*
X86949760Y-126868094D01*
X86918808Y-126837141D01*
X87568808Y-126310951D02*
X87599760Y-126279999D01*
X87661665Y-126249046D01*
X87816427Y-126249046D01*
X87878332Y-126279999D01*
X87909284Y-126310951D01*
X87940237Y-126372856D01*
X87940237Y-126434760D01*
X87909284Y-126527618D01*
X87537856Y-126899046D01*
X87940237Y-126899046D01*
%TO.C,C10*%
X52392142Y-122507857D02*
X52423095Y-122538809D01*
X52454047Y-122631666D01*
X52454047Y-122693571D01*
X52423095Y-122786428D01*
X52361190Y-122848333D01*
X52299285Y-122879285D01*
X52175476Y-122910238D01*
X52082619Y-122910238D01*
X51958809Y-122879285D01*
X51896904Y-122848333D01*
X51835000Y-122786428D01*
X51804047Y-122693571D01*
X51804047Y-122631666D01*
X51835000Y-122538809D01*
X51865952Y-122507857D01*
X52454047Y-121888809D02*
X52454047Y-122260238D01*
X52454047Y-122074523D02*
X51804047Y-122074523D01*
X51896904Y-122136428D01*
X51958809Y-122198333D01*
X51989761Y-122260238D01*
X51804047Y-121486428D02*
X51804047Y-121424523D01*
X51835000Y-121362619D01*
X51865952Y-121331666D01*
X51927857Y-121300714D01*
X52051666Y-121269761D01*
X52206428Y-121269761D01*
X52330238Y-121300714D01*
X52392142Y-121331666D01*
X52423095Y-121362619D01*
X52454047Y-121424523D01*
X52454047Y-121486428D01*
X52423095Y-121548333D01*
X52392142Y-121579285D01*
X52330238Y-121610238D01*
X52206428Y-121641190D01*
X52051666Y-121641190D01*
X51927857Y-121610238D01*
X51865952Y-121579285D01*
X51835000Y-121548333D01*
X51804047Y-121486428D01*
%TO.C,R37*%
X25192142Y-59594047D02*
X24975476Y-59284523D01*
X24820714Y-59594047D02*
X24820714Y-58944047D01*
X25068333Y-58944047D01*
X25130238Y-58975000D01*
X25161190Y-59005952D01*
X25192142Y-59067857D01*
X25192142Y-59160714D01*
X25161190Y-59222619D01*
X25130238Y-59253571D01*
X25068333Y-59284523D01*
X24820714Y-59284523D01*
X25408809Y-58944047D02*
X25811190Y-58944047D01*
X25594523Y-59191666D01*
X25687380Y-59191666D01*
X25749285Y-59222619D01*
X25780238Y-59253571D01*
X25811190Y-59315476D01*
X25811190Y-59470238D01*
X25780238Y-59532142D01*
X25749285Y-59563095D01*
X25687380Y-59594047D01*
X25501666Y-59594047D01*
X25439761Y-59563095D01*
X25408809Y-59532142D01*
X26027857Y-58944047D02*
X26461190Y-58944047D01*
X26182619Y-59594047D01*
%TO.C,R38*%
X38532142Y-101924047D02*
X38315476Y-101614523D01*
X38160714Y-101924047D02*
X38160714Y-101274047D01*
X38408333Y-101274047D01*
X38470238Y-101305000D01*
X38501190Y-101335952D01*
X38532142Y-101397857D01*
X38532142Y-101490714D01*
X38501190Y-101552619D01*
X38470238Y-101583571D01*
X38408333Y-101614523D01*
X38160714Y-101614523D01*
X38748809Y-101274047D02*
X39151190Y-101274047D01*
X38934523Y-101521666D01*
X39027380Y-101521666D01*
X39089285Y-101552619D01*
X39120238Y-101583571D01*
X39151190Y-101645476D01*
X39151190Y-101800238D01*
X39120238Y-101862142D01*
X39089285Y-101893095D01*
X39027380Y-101924047D01*
X38841666Y-101924047D01*
X38779761Y-101893095D01*
X38748809Y-101862142D01*
X39522619Y-101552619D02*
X39460714Y-101521666D01*
X39429761Y-101490714D01*
X39398809Y-101428809D01*
X39398809Y-101397857D01*
X39429761Y-101335952D01*
X39460714Y-101305000D01*
X39522619Y-101274047D01*
X39646428Y-101274047D01*
X39708333Y-101305000D01*
X39739285Y-101335952D01*
X39770238Y-101397857D01*
X39770238Y-101428809D01*
X39739285Y-101490714D01*
X39708333Y-101521666D01*
X39646428Y-101552619D01*
X39522619Y-101552619D01*
X39460714Y-101583571D01*
X39429761Y-101614523D01*
X39398809Y-101676428D01*
X39398809Y-101800238D01*
X39429761Y-101862142D01*
X39460714Y-101893095D01*
X39522619Y-101924047D01*
X39646428Y-101924047D01*
X39708333Y-101893095D01*
X39739285Y-101862142D01*
X39770238Y-101800238D01*
X39770238Y-101676428D01*
X39739285Y-101614523D01*
X39708333Y-101583571D01*
X39646428Y-101552619D01*
%TO.C,R15*%
X29562142Y-105704047D02*
X29345476Y-105394523D01*
X29190714Y-105704047D02*
X29190714Y-105054047D01*
X29438333Y-105054047D01*
X29500238Y-105085000D01*
X29531190Y-105115952D01*
X29562142Y-105177857D01*
X29562142Y-105270714D01*
X29531190Y-105332619D01*
X29500238Y-105363571D01*
X29438333Y-105394523D01*
X29190714Y-105394523D01*
X30181190Y-105704047D02*
X29809761Y-105704047D01*
X29995476Y-105704047D02*
X29995476Y-105054047D01*
X29933571Y-105146904D01*
X29871666Y-105208809D01*
X29809761Y-105239761D01*
X30769285Y-105054047D02*
X30459761Y-105054047D01*
X30428809Y-105363571D01*
X30459761Y-105332619D01*
X30521666Y-105301666D01*
X30676428Y-105301666D01*
X30738333Y-105332619D01*
X30769285Y-105363571D01*
X30800238Y-105425476D01*
X30800238Y-105580238D01*
X30769285Y-105642142D01*
X30738333Y-105673095D01*
X30676428Y-105704047D01*
X30521666Y-105704047D01*
X30459761Y-105673095D01*
X30428809Y-105642142D01*
%TO.C,R28*%
X46912142Y-134914047D02*
X46695476Y-134604523D01*
X46540714Y-134914047D02*
X46540714Y-134264047D01*
X46788333Y-134264047D01*
X46850238Y-134295000D01*
X46881190Y-134325952D01*
X46912142Y-134387857D01*
X46912142Y-134480714D01*
X46881190Y-134542619D01*
X46850238Y-134573571D01*
X46788333Y-134604523D01*
X46540714Y-134604523D01*
X47159761Y-134325952D02*
X47190714Y-134295000D01*
X47252619Y-134264047D01*
X47407380Y-134264047D01*
X47469285Y-134295000D01*
X47500238Y-134325952D01*
X47531190Y-134387857D01*
X47531190Y-134449761D01*
X47500238Y-134542619D01*
X47128809Y-134914047D01*
X47531190Y-134914047D01*
X47902619Y-134542619D02*
X47840714Y-134511666D01*
X47809761Y-134480714D01*
X47778809Y-134418809D01*
X47778809Y-134387857D01*
X47809761Y-134325952D01*
X47840714Y-134295000D01*
X47902619Y-134264047D01*
X48026428Y-134264047D01*
X48088333Y-134295000D01*
X48119285Y-134325952D01*
X48150238Y-134387857D01*
X48150238Y-134418809D01*
X48119285Y-134480714D01*
X48088333Y-134511666D01*
X48026428Y-134542619D01*
X47902619Y-134542619D01*
X47840714Y-134573571D01*
X47809761Y-134604523D01*
X47778809Y-134666428D01*
X47778809Y-134790238D01*
X47809761Y-134852142D01*
X47840714Y-134883095D01*
X47902619Y-134914047D01*
X48026428Y-134914047D01*
X48088333Y-134883095D01*
X48119285Y-134852142D01*
X48150238Y-134790238D01*
X48150238Y-134666428D01*
X48119285Y-134604523D01*
X48088333Y-134573571D01*
X48026428Y-134542619D01*
%TO.C,C29*%
X38342142Y-64842143D02*
X38311190Y-64873096D01*
X38218333Y-64904048D01*
X38156428Y-64904048D01*
X38063571Y-64873096D01*
X38001666Y-64811191D01*
X37970714Y-64749286D01*
X37939761Y-64625477D01*
X37939761Y-64532620D01*
X37970714Y-64408810D01*
X38001666Y-64346905D01*
X38063571Y-64285001D01*
X38156428Y-64254048D01*
X38218333Y-64254048D01*
X38311190Y-64285001D01*
X38342142Y-64315953D01*
X38589761Y-64315953D02*
X38620714Y-64285001D01*
X38682619Y-64254048D01*
X38837380Y-64254048D01*
X38899285Y-64285001D01*
X38930238Y-64315953D01*
X38961190Y-64377858D01*
X38961190Y-64439762D01*
X38930238Y-64532620D01*
X38558809Y-64904048D01*
X38961190Y-64904048D01*
X39270714Y-64904048D02*
X39394523Y-64904048D01*
X39456428Y-64873096D01*
X39487380Y-64842143D01*
X39549285Y-64749286D01*
X39580238Y-64625477D01*
X39580238Y-64377858D01*
X39549285Y-64315953D01*
X39518333Y-64285001D01*
X39456428Y-64254048D01*
X39332619Y-64254048D01*
X39270714Y-64285001D01*
X39239761Y-64315953D01*
X39208809Y-64377858D01*
X39208809Y-64532620D01*
X39239761Y-64594524D01*
X39270714Y-64625477D01*
X39332619Y-64656429D01*
X39456428Y-64656429D01*
X39518333Y-64625477D01*
X39549285Y-64594524D01*
X39580238Y-64532620D01*
%TO.C,U4*%
X41328095Y-117432380D02*
X41328095Y-118241904D01*
X41375714Y-118337142D01*
X41423333Y-118384761D01*
X41518571Y-118432380D01*
X41709047Y-118432380D01*
X41804285Y-118384761D01*
X41851904Y-118337142D01*
X41899523Y-118241904D01*
X41899523Y-117432380D01*
X42804285Y-117765714D02*
X42804285Y-118432380D01*
X42566190Y-117384761D02*
X42328095Y-118099047D01*
X42947142Y-118099047D01*
%TO.C,C28*%
X100972142Y-120262141D02*
X100941190Y-120293094D01*
X100848333Y-120324046D01*
X100786428Y-120324046D01*
X100693571Y-120293094D01*
X100631666Y-120231189D01*
X100600714Y-120169284D01*
X100569761Y-120045475D01*
X100569761Y-119952618D01*
X100600714Y-119828808D01*
X100631666Y-119766903D01*
X100693571Y-119704999D01*
X100786428Y-119674046D01*
X100848333Y-119674046D01*
X100941190Y-119704999D01*
X100972142Y-119735951D01*
X101219761Y-119735951D02*
X101250714Y-119704999D01*
X101312619Y-119674046D01*
X101467380Y-119674046D01*
X101529285Y-119704999D01*
X101560238Y-119735951D01*
X101591190Y-119797856D01*
X101591190Y-119859760D01*
X101560238Y-119952618D01*
X101188809Y-120324046D01*
X101591190Y-120324046D01*
X101962619Y-119952618D02*
X101900714Y-119921665D01*
X101869761Y-119890713D01*
X101838809Y-119828808D01*
X101838809Y-119797856D01*
X101869761Y-119735951D01*
X101900714Y-119704999D01*
X101962619Y-119674046D01*
X102086428Y-119674046D01*
X102148333Y-119704999D01*
X102179285Y-119735951D01*
X102210238Y-119797856D01*
X102210238Y-119828808D01*
X102179285Y-119890713D01*
X102148333Y-119921665D01*
X102086428Y-119952618D01*
X101962619Y-119952618D01*
X101900714Y-119983570D01*
X101869761Y-120014522D01*
X101838809Y-120076427D01*
X101838809Y-120200237D01*
X101869761Y-120262141D01*
X101900714Y-120293094D01*
X101962619Y-120324046D01*
X102086428Y-120324046D01*
X102148333Y-120293094D01*
X102179285Y-120262141D01*
X102210238Y-120200237D01*
X102210238Y-120076427D01*
X102179285Y-120014522D01*
X102148333Y-119983570D01*
X102086428Y-119952618D01*
%TO.C,Q4*%
X71643095Y-57320951D02*
X71581190Y-57289999D01*
X71519285Y-57228094D01*
X71426428Y-57135237D01*
X71364523Y-57104284D01*
X71302619Y-57104284D01*
X71333571Y-57259046D02*
X71271666Y-57228094D01*
X71209761Y-57166189D01*
X71178809Y-57042379D01*
X71178809Y-56825713D01*
X71209761Y-56701903D01*
X71271666Y-56639999D01*
X71333571Y-56609046D01*
X71457380Y-56609046D01*
X71519285Y-56639999D01*
X71581190Y-56701903D01*
X71612142Y-56825713D01*
X71612142Y-57042379D01*
X71581190Y-57166189D01*
X71519285Y-57228094D01*
X71457380Y-57259046D01*
X71333571Y-57259046D01*
X72169285Y-56825713D02*
X72169285Y-57259046D01*
X72014523Y-56578094D02*
X71859761Y-57042379D01*
X72262142Y-57042379D01*
%TO.C,C39*%
X80127142Y-75777142D02*
X80096190Y-75808095D01*
X80003333Y-75839047D01*
X79941428Y-75839047D01*
X79848571Y-75808095D01*
X79786666Y-75746190D01*
X79755714Y-75684285D01*
X79724761Y-75560476D01*
X79724761Y-75467619D01*
X79755714Y-75343809D01*
X79786666Y-75281904D01*
X79848571Y-75220000D01*
X79941428Y-75189047D01*
X80003333Y-75189047D01*
X80096190Y-75220000D01*
X80127142Y-75250952D01*
X80343809Y-75189047D02*
X80746190Y-75189047D01*
X80529523Y-75436666D01*
X80622380Y-75436666D01*
X80684285Y-75467619D01*
X80715238Y-75498571D01*
X80746190Y-75560476D01*
X80746190Y-75715238D01*
X80715238Y-75777142D01*
X80684285Y-75808095D01*
X80622380Y-75839047D01*
X80436666Y-75839047D01*
X80374761Y-75808095D01*
X80343809Y-75777142D01*
X81055714Y-75839047D02*
X81179523Y-75839047D01*
X81241428Y-75808095D01*
X81272380Y-75777142D01*
X81334285Y-75684285D01*
X81365238Y-75560476D01*
X81365238Y-75312857D01*
X81334285Y-75250952D01*
X81303333Y-75220000D01*
X81241428Y-75189047D01*
X81117619Y-75189047D01*
X81055714Y-75220000D01*
X81024761Y-75250952D01*
X80993809Y-75312857D01*
X80993809Y-75467619D01*
X81024761Y-75529523D01*
X81055714Y-75560476D01*
X81117619Y-75591428D01*
X81241428Y-75591428D01*
X81303333Y-75560476D01*
X81334285Y-75529523D01*
X81365238Y-75467619D01*
%TO.C,C13*%
X46412142Y-122942142D02*
X46381190Y-122973095D01*
X46288333Y-123004047D01*
X46226428Y-123004047D01*
X46133571Y-122973095D01*
X46071666Y-122911190D01*
X46040714Y-122849285D01*
X46009761Y-122725476D01*
X46009761Y-122632619D01*
X46040714Y-122508809D01*
X46071666Y-122446904D01*
X46133571Y-122385000D01*
X46226428Y-122354047D01*
X46288333Y-122354047D01*
X46381190Y-122385000D01*
X46412142Y-122415952D01*
X47031190Y-123004047D02*
X46659761Y-123004047D01*
X46845476Y-123004047D02*
X46845476Y-122354047D01*
X46783571Y-122446904D01*
X46721666Y-122508809D01*
X46659761Y-122539761D01*
X47247857Y-122354047D02*
X47650238Y-122354047D01*
X47433571Y-122601666D01*
X47526428Y-122601666D01*
X47588333Y-122632619D01*
X47619285Y-122663571D01*
X47650238Y-122725476D01*
X47650238Y-122880238D01*
X47619285Y-122942142D01*
X47588333Y-122973095D01*
X47526428Y-123004047D01*
X47340714Y-123004047D01*
X47278809Y-122973095D01*
X47247857Y-122942142D01*
%TO.C,L4*%
X51511666Y-131314047D02*
X51202142Y-131314047D01*
X51202142Y-130664047D01*
X52006904Y-130880714D02*
X52006904Y-131314047D01*
X51852142Y-130633095D02*
X51697380Y-131097380D01*
X52099761Y-131097380D01*
%TO.C,R4*%
X54661666Y-128474047D02*
X54445000Y-128164523D01*
X54290238Y-128474047D02*
X54290238Y-127824047D01*
X54537857Y-127824047D01*
X54599761Y-127855000D01*
X54630714Y-127885952D01*
X54661666Y-127947857D01*
X54661666Y-128040714D01*
X54630714Y-128102619D01*
X54599761Y-128133571D01*
X54537857Y-128164523D01*
X54290238Y-128164523D01*
X55218809Y-128040714D02*
X55218809Y-128474047D01*
X55064047Y-127793095D02*
X54909285Y-128257380D01*
X55311666Y-128257380D01*
%TO.C,U8*%
X79429761Y-62889047D02*
X79429761Y-63415238D01*
X79460714Y-63477142D01*
X79491666Y-63508095D01*
X79553571Y-63539047D01*
X79677380Y-63539047D01*
X79739285Y-63508095D01*
X79770238Y-63477142D01*
X79801190Y-63415238D01*
X79801190Y-62889047D01*
X80203571Y-63167619D02*
X80141666Y-63136666D01*
X80110714Y-63105714D01*
X80079761Y-63043809D01*
X80079761Y-63012857D01*
X80110714Y-62950952D01*
X80141666Y-62920000D01*
X80203571Y-62889047D01*
X80327380Y-62889047D01*
X80389285Y-62920000D01*
X80420238Y-62950952D01*
X80451190Y-63012857D01*
X80451190Y-63043809D01*
X80420238Y-63105714D01*
X80389285Y-63136666D01*
X80327380Y-63167619D01*
X80203571Y-63167619D01*
X80141666Y-63198571D01*
X80110714Y-63229523D01*
X80079761Y-63291428D01*
X80079761Y-63415238D01*
X80110714Y-63477142D01*
X80141666Y-63508095D01*
X80203571Y-63539047D01*
X80327380Y-63539047D01*
X80389285Y-63508095D01*
X80420238Y-63477142D01*
X80451190Y-63415238D01*
X80451190Y-63291428D01*
X80420238Y-63229523D01*
X80389285Y-63198571D01*
X80327380Y-63167619D01*
%TO.C,R44*%
X94452142Y-118884047D02*
X94235476Y-118574523D01*
X94080714Y-118884047D02*
X94080714Y-118234047D01*
X94328333Y-118234047D01*
X94390238Y-118265000D01*
X94421190Y-118295952D01*
X94452142Y-118357857D01*
X94452142Y-118450714D01*
X94421190Y-118512619D01*
X94390238Y-118543571D01*
X94328333Y-118574523D01*
X94080714Y-118574523D01*
X95009285Y-118450714D02*
X95009285Y-118884047D01*
X94854523Y-118203095D02*
X94699761Y-118667380D01*
X95102142Y-118667380D01*
X95628333Y-118450714D02*
X95628333Y-118884047D01*
X95473571Y-118203095D02*
X95318809Y-118667380D01*
X95721190Y-118667380D01*
%TO.C,R19*%
X78014644Y-81664046D02*
X77797978Y-81354522D01*
X77643216Y-81664046D02*
X77643216Y-81014046D01*
X77890835Y-81014046D01*
X77952740Y-81044999D01*
X77983692Y-81075951D01*
X78014644Y-81137856D01*
X78014644Y-81230713D01*
X77983692Y-81292618D01*
X77952740Y-81323570D01*
X77890835Y-81354522D01*
X77643216Y-81354522D01*
X78633692Y-81664046D02*
X78262263Y-81664046D01*
X78447978Y-81664046D02*
X78447978Y-81014046D01*
X78386073Y-81106903D01*
X78324168Y-81168808D01*
X78262263Y-81199760D01*
X78943216Y-81664046D02*
X79067025Y-81664046D01*
X79128930Y-81633094D01*
X79159882Y-81602141D01*
X79221787Y-81509284D01*
X79252740Y-81385475D01*
X79252740Y-81137856D01*
X79221787Y-81075951D01*
X79190835Y-81044999D01*
X79128930Y-81014046D01*
X79005121Y-81014046D01*
X78943216Y-81044999D01*
X78912263Y-81075951D01*
X78881311Y-81137856D01*
X78881311Y-81292618D01*
X78912263Y-81354522D01*
X78943216Y-81385475D01*
X79005121Y-81416427D01*
X79128930Y-81416427D01*
X79190835Y-81385475D01*
X79221787Y-81354522D01*
X79252740Y-81292618D01*
%TO.C,R40*%
X108442142Y-114894047D02*
X108225476Y-114584523D01*
X108070714Y-114894047D02*
X108070714Y-114244047D01*
X108318333Y-114244047D01*
X108380238Y-114275000D01*
X108411190Y-114305952D01*
X108442142Y-114367857D01*
X108442142Y-114460714D01*
X108411190Y-114522619D01*
X108380238Y-114553571D01*
X108318333Y-114584523D01*
X108070714Y-114584523D01*
X108999285Y-114460714D02*
X108999285Y-114894047D01*
X108844523Y-114213095D02*
X108689761Y-114677380D01*
X109092142Y-114677380D01*
X109463571Y-114244047D02*
X109525476Y-114244047D01*
X109587380Y-114275000D01*
X109618333Y-114305952D01*
X109649285Y-114367857D01*
X109680238Y-114491666D01*
X109680238Y-114646428D01*
X109649285Y-114770238D01*
X109618333Y-114832142D01*
X109587380Y-114863095D01*
X109525476Y-114894047D01*
X109463571Y-114894047D01*
X109401666Y-114863095D01*
X109370714Y-114832142D01*
X109339761Y-114770238D01*
X109308809Y-114646428D01*
X109308809Y-114491666D01*
X109339761Y-114367857D01*
X109370714Y-114305952D01*
X109401666Y-114275000D01*
X109463571Y-114244047D01*
%TO.C,R12*%
X29582142Y-107034047D02*
X29365476Y-106724523D01*
X29210714Y-107034047D02*
X29210714Y-106384047D01*
X29458333Y-106384047D01*
X29520238Y-106415000D01*
X29551190Y-106445952D01*
X29582142Y-106507857D01*
X29582142Y-106600714D01*
X29551190Y-106662619D01*
X29520238Y-106693571D01*
X29458333Y-106724523D01*
X29210714Y-106724523D01*
X30201190Y-107034047D02*
X29829761Y-107034047D01*
X30015476Y-107034047D02*
X30015476Y-106384047D01*
X29953571Y-106476904D01*
X29891666Y-106538809D01*
X29829761Y-106569761D01*
X30448809Y-106445952D02*
X30479761Y-106415000D01*
X30541666Y-106384047D01*
X30696428Y-106384047D01*
X30758333Y-106415000D01*
X30789285Y-106445952D01*
X30820238Y-106507857D01*
X30820238Y-106569761D01*
X30789285Y-106662619D01*
X30417857Y-107034047D01*
X30820238Y-107034047D01*
%TO.C,R6*%
X41161666Y-124044047D02*
X40945000Y-123734523D01*
X40790238Y-124044047D02*
X40790238Y-123394047D01*
X41037857Y-123394047D01*
X41099761Y-123425000D01*
X41130714Y-123455952D01*
X41161666Y-123517857D01*
X41161666Y-123610714D01*
X41130714Y-123672619D01*
X41099761Y-123703571D01*
X41037857Y-123734523D01*
X40790238Y-123734523D01*
X41718809Y-123394047D02*
X41595000Y-123394047D01*
X41533095Y-123425000D01*
X41502142Y-123455952D01*
X41440238Y-123548809D01*
X41409285Y-123672619D01*
X41409285Y-123920238D01*
X41440238Y-123982142D01*
X41471190Y-124013095D01*
X41533095Y-124044047D01*
X41656904Y-124044047D01*
X41718809Y-124013095D01*
X41749761Y-123982142D01*
X41780714Y-123920238D01*
X41780714Y-123765476D01*
X41749761Y-123703571D01*
X41718809Y-123672619D01*
X41656904Y-123641666D01*
X41533095Y-123641666D01*
X41471190Y-123672619D01*
X41440238Y-123703571D01*
X41409285Y-123765476D01*
%TO.C,R22*%
X46912142Y-133994047D02*
X46695476Y-133684523D01*
X46540714Y-133994047D02*
X46540714Y-133344047D01*
X46788333Y-133344047D01*
X46850238Y-133375000D01*
X46881190Y-133405952D01*
X46912142Y-133467857D01*
X46912142Y-133560714D01*
X46881190Y-133622619D01*
X46850238Y-133653571D01*
X46788333Y-133684523D01*
X46540714Y-133684523D01*
X47159761Y-133405952D02*
X47190714Y-133375000D01*
X47252619Y-133344047D01*
X47407380Y-133344047D01*
X47469285Y-133375000D01*
X47500238Y-133405952D01*
X47531190Y-133467857D01*
X47531190Y-133529761D01*
X47500238Y-133622619D01*
X47128809Y-133994047D01*
X47531190Y-133994047D01*
X47778809Y-133405952D02*
X47809761Y-133375000D01*
X47871666Y-133344047D01*
X48026428Y-133344047D01*
X48088333Y-133375000D01*
X48119285Y-133405952D01*
X48150238Y-133467857D01*
X48150238Y-133529761D01*
X48119285Y-133622619D01*
X47747857Y-133994047D01*
X48150238Y-133994047D01*
%TO.C,R10*%
X29425306Y-108366134D02*
X29208640Y-108056610D01*
X29053878Y-108366134D02*
X29053878Y-107716134D01*
X29301497Y-107716134D01*
X29363402Y-107747087D01*
X29394354Y-107778039D01*
X29425306Y-107839944D01*
X29425306Y-107932801D01*
X29394354Y-107994706D01*
X29363402Y-108025658D01*
X29301497Y-108056610D01*
X29053878Y-108056610D01*
X30044354Y-108366134D02*
X29672925Y-108366134D01*
X29858640Y-108366134D02*
X29858640Y-107716134D01*
X29796735Y-107808991D01*
X29734830Y-107870896D01*
X29672925Y-107901848D01*
X30446735Y-107716134D02*
X30508640Y-107716134D01*
X30570544Y-107747087D01*
X30601497Y-107778039D01*
X30632449Y-107839944D01*
X30663402Y-107963753D01*
X30663402Y-108118515D01*
X30632449Y-108242325D01*
X30601497Y-108304229D01*
X30570544Y-108335182D01*
X30508640Y-108366134D01*
X30446735Y-108366134D01*
X30384830Y-108335182D01*
X30353878Y-108304229D01*
X30322925Y-108242325D01*
X30291973Y-108118515D01*
X30291973Y-107963753D01*
X30322925Y-107839944D01*
X30353878Y-107778039D01*
X30384830Y-107747087D01*
X30446735Y-107716134D01*
%TO.C,R33*%
X86674640Y-127876546D02*
X86457974Y-127567022D01*
X86303212Y-127876546D02*
X86303212Y-127226546D01*
X86550831Y-127226546D01*
X86612736Y-127257499D01*
X86643688Y-127288451D01*
X86674640Y-127350356D01*
X86674640Y-127443213D01*
X86643688Y-127505118D01*
X86612736Y-127536070D01*
X86550831Y-127567022D01*
X86303212Y-127567022D01*
X86891307Y-127226546D02*
X87293688Y-127226546D01*
X87077021Y-127474165D01*
X87169878Y-127474165D01*
X87231783Y-127505118D01*
X87262736Y-127536070D01*
X87293688Y-127597975D01*
X87293688Y-127752737D01*
X87262736Y-127814641D01*
X87231783Y-127845594D01*
X87169878Y-127876546D01*
X86984164Y-127876546D01*
X86922259Y-127845594D01*
X86891307Y-127814641D01*
X87510355Y-127226546D02*
X87912736Y-127226546D01*
X87696069Y-127474165D01*
X87788926Y-127474165D01*
X87850831Y-127505118D01*
X87881783Y-127536070D01*
X87912736Y-127597975D01*
X87912736Y-127752737D01*
X87881783Y-127814641D01*
X87850831Y-127845594D01*
X87788926Y-127876546D01*
X87603212Y-127876546D01*
X87541307Y-127845594D01*
X87510355Y-127814641D01*
%TO.C,R23*%
X82127142Y-62069047D02*
X81910476Y-61759523D01*
X81755714Y-62069047D02*
X81755714Y-61419047D01*
X82003333Y-61419047D01*
X82065238Y-61450000D01*
X82096190Y-61480952D01*
X82127142Y-61542857D01*
X82127142Y-61635714D01*
X82096190Y-61697619D01*
X82065238Y-61728571D01*
X82003333Y-61759523D01*
X81755714Y-61759523D01*
X82374761Y-61480952D02*
X82405714Y-61450000D01*
X82467619Y-61419047D01*
X82622380Y-61419047D01*
X82684285Y-61450000D01*
X82715238Y-61480952D01*
X82746190Y-61542857D01*
X82746190Y-61604761D01*
X82715238Y-61697619D01*
X82343809Y-62069047D01*
X82746190Y-62069047D01*
X82962857Y-61419047D02*
X83365238Y-61419047D01*
X83148571Y-61666666D01*
X83241428Y-61666666D01*
X83303333Y-61697619D01*
X83334285Y-61728571D01*
X83365238Y-61790476D01*
X83365238Y-61945238D01*
X83334285Y-62007142D01*
X83303333Y-62038095D01*
X83241428Y-62069047D01*
X83055714Y-62069047D01*
X82993809Y-62038095D01*
X82962857Y-62007142D01*
%TO.C,R35*%
X76827142Y-61439047D02*
X76610476Y-61129523D01*
X76455714Y-61439047D02*
X76455714Y-60789047D01*
X76703333Y-60789047D01*
X76765238Y-60820000D01*
X76796190Y-60850952D01*
X76827142Y-60912857D01*
X76827142Y-61005714D01*
X76796190Y-61067619D01*
X76765238Y-61098571D01*
X76703333Y-61129523D01*
X76455714Y-61129523D01*
X77043809Y-60789047D02*
X77446190Y-60789047D01*
X77229523Y-61036666D01*
X77322380Y-61036666D01*
X77384285Y-61067619D01*
X77415238Y-61098571D01*
X77446190Y-61160476D01*
X77446190Y-61315238D01*
X77415238Y-61377142D01*
X77384285Y-61408095D01*
X77322380Y-61439047D01*
X77136666Y-61439047D01*
X77074761Y-61408095D01*
X77043809Y-61377142D01*
X78034285Y-60789047D02*
X77724761Y-60789047D01*
X77693809Y-61098571D01*
X77724761Y-61067619D01*
X77786666Y-61036666D01*
X77941428Y-61036666D01*
X78003333Y-61067619D01*
X78034285Y-61098571D01*
X78065238Y-61160476D01*
X78065238Y-61315238D01*
X78034285Y-61377142D01*
X78003333Y-61408095D01*
X77941428Y-61439047D01*
X77786666Y-61439047D01*
X77724761Y-61408095D01*
X77693809Y-61377142D01*
%TO.C,R17*%
X49562142Y-102634047D02*
X49345476Y-102324523D01*
X49190714Y-102634047D02*
X49190714Y-101984047D01*
X49438333Y-101984047D01*
X49500238Y-102015000D01*
X49531190Y-102045952D01*
X49562142Y-102107857D01*
X49562142Y-102200714D01*
X49531190Y-102262619D01*
X49500238Y-102293571D01*
X49438333Y-102324523D01*
X49190714Y-102324523D01*
X50181190Y-102634047D02*
X49809761Y-102634047D01*
X49995476Y-102634047D02*
X49995476Y-101984047D01*
X49933571Y-102076904D01*
X49871666Y-102138809D01*
X49809761Y-102169761D01*
X50397857Y-101984047D02*
X50831190Y-101984047D01*
X50552619Y-102634047D01*
%TO.C,R36*%
X33022142Y-65544047D02*
X32805476Y-65234523D01*
X32650714Y-65544047D02*
X32650714Y-64894047D01*
X32898333Y-64894047D01*
X32960238Y-64925000D01*
X32991190Y-64955952D01*
X33022142Y-65017857D01*
X33022142Y-65110714D01*
X32991190Y-65172619D01*
X32960238Y-65203571D01*
X32898333Y-65234523D01*
X32650714Y-65234523D01*
X33238809Y-64894047D02*
X33641190Y-64894047D01*
X33424523Y-65141666D01*
X33517380Y-65141666D01*
X33579285Y-65172619D01*
X33610238Y-65203571D01*
X33641190Y-65265476D01*
X33641190Y-65420238D01*
X33610238Y-65482142D01*
X33579285Y-65513095D01*
X33517380Y-65544047D01*
X33331666Y-65544047D01*
X33269761Y-65513095D01*
X33238809Y-65482142D01*
X34198333Y-64894047D02*
X34074523Y-64894047D01*
X34012619Y-64925000D01*
X33981666Y-64955952D01*
X33919761Y-65048809D01*
X33888809Y-65172619D01*
X33888809Y-65420238D01*
X33919761Y-65482142D01*
X33950714Y-65513095D01*
X34012619Y-65544047D01*
X34136428Y-65544047D01*
X34198333Y-65513095D01*
X34229285Y-65482142D01*
X34260238Y-65420238D01*
X34260238Y-65265476D01*
X34229285Y-65203571D01*
X34198333Y-65172619D01*
X34136428Y-65141666D01*
X34012619Y-65141666D01*
X33950714Y-65172619D01*
X33919761Y-65203571D01*
X33888809Y-65265476D01*
%TO.C,R42*%
X47502142Y-63904047D02*
X47285476Y-63594523D01*
X47130714Y-63904047D02*
X47130714Y-63254047D01*
X47378333Y-63254047D01*
X47440238Y-63285000D01*
X47471190Y-63315952D01*
X47502142Y-63377857D01*
X47502142Y-63470714D01*
X47471190Y-63532619D01*
X47440238Y-63563571D01*
X47378333Y-63594523D01*
X47130714Y-63594523D01*
X48059285Y-63470714D02*
X48059285Y-63904047D01*
X47904523Y-63223095D02*
X47749761Y-63687380D01*
X48152142Y-63687380D01*
X48368809Y-63315952D02*
X48399761Y-63285000D01*
X48461666Y-63254047D01*
X48616428Y-63254047D01*
X48678333Y-63285000D01*
X48709285Y-63315952D01*
X48740238Y-63377857D01*
X48740238Y-63439761D01*
X48709285Y-63532619D01*
X48337857Y-63904047D01*
X48740238Y-63904047D01*
%TO.C,U7*%
X29008095Y-57612380D02*
X29008095Y-58421904D01*
X29055714Y-58517142D01*
X29103333Y-58564761D01*
X29198571Y-58612380D01*
X29389047Y-58612380D01*
X29484285Y-58564761D01*
X29531904Y-58517142D01*
X29579523Y-58421904D01*
X29579523Y-57612380D01*
X29960476Y-57612380D02*
X30627142Y-57612380D01*
X30198571Y-58612380D01*
%TO.C,R20*%
X78014644Y-83359046D02*
X77797978Y-83049522D01*
X77643216Y-83359046D02*
X77643216Y-82709046D01*
X77890835Y-82709046D01*
X77952740Y-82739999D01*
X77983692Y-82770951D01*
X78014644Y-82832856D01*
X78014644Y-82925713D01*
X77983692Y-82987618D01*
X77952740Y-83018570D01*
X77890835Y-83049522D01*
X77643216Y-83049522D01*
X78262263Y-82770951D02*
X78293216Y-82739999D01*
X78355121Y-82709046D01*
X78509882Y-82709046D01*
X78571787Y-82739999D01*
X78602740Y-82770951D01*
X78633692Y-82832856D01*
X78633692Y-82894760D01*
X78602740Y-82987618D01*
X78231311Y-83359046D01*
X78633692Y-83359046D01*
X79036073Y-82709046D02*
X79097978Y-82709046D01*
X79159882Y-82739999D01*
X79190835Y-82770951D01*
X79221787Y-82832856D01*
X79252740Y-82956665D01*
X79252740Y-83111427D01*
X79221787Y-83235237D01*
X79190835Y-83297141D01*
X79159882Y-83328094D01*
X79097978Y-83359046D01*
X79036073Y-83359046D01*
X78974168Y-83328094D01*
X78943216Y-83297141D01*
X78912263Y-83235237D01*
X78881311Y-83111427D01*
X78881311Y-82956665D01*
X78912263Y-82832856D01*
X78943216Y-82770951D01*
X78974168Y-82739999D01*
X79036073Y-82709046D01*
%TO.C,R9*%
X46474830Y-107086134D02*
X46258164Y-106776610D01*
X46103402Y-107086134D02*
X46103402Y-106436134D01*
X46351021Y-106436134D01*
X46412925Y-106467087D01*
X46443878Y-106498039D01*
X46474830Y-106559944D01*
X46474830Y-106652801D01*
X46443878Y-106714706D01*
X46412925Y-106745658D01*
X46351021Y-106776610D01*
X46103402Y-106776610D01*
X46784354Y-107086134D02*
X46908164Y-107086134D01*
X46970068Y-107055182D01*
X47001021Y-107024229D01*
X47062925Y-106931372D01*
X47093878Y-106807563D01*
X47093878Y-106559944D01*
X47062925Y-106498039D01*
X47031973Y-106467087D01*
X46970068Y-106436134D01*
X46846259Y-106436134D01*
X46784354Y-106467087D01*
X46753402Y-106498039D01*
X46722449Y-106559944D01*
X46722449Y-106714706D01*
X46753402Y-106776610D01*
X46784354Y-106807563D01*
X46846259Y-106838515D01*
X46970068Y-106838515D01*
X47031973Y-106807563D01*
X47062925Y-106776610D01*
X47093878Y-106714706D01*
%TO.C,Q3*%
X71633094Y-52030953D02*
X71571189Y-52000001D01*
X71509284Y-51938096D01*
X71416427Y-51845239D01*
X71354522Y-51814286D01*
X71292618Y-51814286D01*
X71323570Y-51969048D02*
X71261665Y-51938096D01*
X71199760Y-51876191D01*
X71168808Y-51752381D01*
X71168808Y-51535715D01*
X71199760Y-51411905D01*
X71261665Y-51350001D01*
X71323570Y-51319048D01*
X71447379Y-51319048D01*
X71509284Y-51350001D01*
X71571189Y-51411905D01*
X71602141Y-51535715D01*
X71602141Y-51752381D01*
X71571189Y-51876191D01*
X71509284Y-51938096D01*
X71447379Y-51969048D01*
X71323570Y-51969048D01*
X71818808Y-51319048D02*
X72221189Y-51319048D01*
X72004522Y-51566667D01*
X72097379Y-51566667D01*
X72159284Y-51597620D01*
X72190237Y-51628572D01*
X72221189Y-51690477D01*
X72221189Y-51845239D01*
X72190237Y-51907143D01*
X72159284Y-51938096D01*
X72097379Y-51969048D01*
X71911665Y-51969048D01*
X71849760Y-51938096D01*
X71818808Y-51907143D01*
%TO.C,C4*%
X46474830Y-105729230D02*
X46443878Y-105760183D01*
X46351021Y-105791135D01*
X46289116Y-105791135D01*
X46196259Y-105760183D01*
X46134354Y-105698278D01*
X46103402Y-105636373D01*
X46072449Y-105512564D01*
X46072449Y-105419707D01*
X46103402Y-105295897D01*
X46134354Y-105233992D01*
X46196259Y-105172088D01*
X46289116Y-105141135D01*
X46351021Y-105141135D01*
X46443878Y-105172088D01*
X46474830Y-105203040D01*
X47031973Y-105357802D02*
X47031973Y-105791135D01*
X46877211Y-105110183D02*
X46722449Y-105574468D01*
X47124830Y-105574468D01*
%TO.C,R45*%
X105182142Y-120324046D02*
X104965476Y-120014522D01*
X104810714Y-120324046D02*
X104810714Y-119674046D01*
X105058333Y-119674046D01*
X105120238Y-119704999D01*
X105151190Y-119735951D01*
X105182142Y-119797856D01*
X105182142Y-119890713D01*
X105151190Y-119952618D01*
X105120238Y-119983570D01*
X105058333Y-120014522D01*
X104810714Y-120014522D01*
X105739285Y-119890713D02*
X105739285Y-120324046D01*
X105584523Y-119643094D02*
X105429761Y-120107379D01*
X105832142Y-120107379D01*
X106389285Y-119674046D02*
X106079761Y-119674046D01*
X106048809Y-119983570D01*
X106079761Y-119952618D01*
X106141666Y-119921665D01*
X106296428Y-119921665D01*
X106358333Y-119952618D01*
X106389285Y-119983570D01*
X106420238Y-120045475D01*
X106420238Y-120200237D01*
X106389285Y-120262141D01*
X106358333Y-120293094D01*
X106296428Y-120324046D01*
X106141666Y-120324046D01*
X106079761Y-120293094D01*
X106048809Y-120262141D01*
%TO.C,R41*%
X47462142Y-62804047D02*
X47245476Y-62494523D01*
X47090714Y-62804047D02*
X47090714Y-62154047D01*
X47338333Y-62154047D01*
X47400238Y-62185000D01*
X47431190Y-62215952D01*
X47462142Y-62277857D01*
X47462142Y-62370714D01*
X47431190Y-62432619D01*
X47400238Y-62463571D01*
X47338333Y-62494523D01*
X47090714Y-62494523D01*
X48019285Y-62370714D02*
X48019285Y-62804047D01*
X47864523Y-62123095D02*
X47709761Y-62587380D01*
X48112142Y-62587380D01*
X48700238Y-62804047D02*
X48328809Y-62804047D01*
X48514523Y-62804047D02*
X48514523Y-62154047D01*
X48452619Y-62246904D01*
X48390714Y-62308809D01*
X48328809Y-62339761D01*
%TO.C,C14*%
X50762144Y-111492140D02*
X50731192Y-111523093D01*
X50638335Y-111554045D01*
X50576430Y-111554045D01*
X50483573Y-111523093D01*
X50421668Y-111461188D01*
X50390716Y-111399283D01*
X50359763Y-111275474D01*
X50359763Y-111182617D01*
X50390716Y-111058807D01*
X50421668Y-110996902D01*
X50483573Y-110934998D01*
X50576430Y-110904045D01*
X50638335Y-110904045D01*
X50731192Y-110934998D01*
X50762144Y-110965950D01*
X51381192Y-111554045D02*
X51009763Y-111554045D01*
X51195478Y-111554045D02*
X51195478Y-110904045D01*
X51133573Y-110996902D01*
X51071668Y-111058807D01*
X51009763Y-111089759D01*
X51938335Y-111120712D02*
X51938335Y-111554045D01*
X51783573Y-110873093D02*
X51628811Y-111337378D01*
X52031192Y-111337378D01*
%TO.C,R18*%
X78014644Y-80064047D02*
X77797978Y-79754523D01*
X77643216Y-80064047D02*
X77643216Y-79414047D01*
X77890835Y-79414047D01*
X77952740Y-79445000D01*
X77983692Y-79475952D01*
X78014644Y-79537857D01*
X78014644Y-79630714D01*
X77983692Y-79692619D01*
X77952740Y-79723571D01*
X77890835Y-79754523D01*
X77643216Y-79754523D01*
X78633692Y-80064047D02*
X78262263Y-80064047D01*
X78447978Y-80064047D02*
X78447978Y-79414047D01*
X78386073Y-79506904D01*
X78324168Y-79568809D01*
X78262263Y-79599761D01*
X79005121Y-79692619D02*
X78943216Y-79661666D01*
X78912263Y-79630714D01*
X78881311Y-79568809D01*
X78881311Y-79537857D01*
X78912263Y-79475952D01*
X78943216Y-79445000D01*
X79005121Y-79414047D01*
X79128930Y-79414047D01*
X79190835Y-79445000D01*
X79221787Y-79475952D01*
X79252740Y-79537857D01*
X79252740Y-79568809D01*
X79221787Y-79630714D01*
X79190835Y-79661666D01*
X79128930Y-79692619D01*
X79005121Y-79692619D01*
X78943216Y-79723571D01*
X78912263Y-79754523D01*
X78881311Y-79816428D01*
X78881311Y-79940238D01*
X78912263Y-80002142D01*
X78943216Y-80033095D01*
X79005121Y-80064047D01*
X79128930Y-80064047D01*
X79190835Y-80033095D01*
X79221787Y-80002142D01*
X79252740Y-79940238D01*
X79252740Y-79816428D01*
X79221787Y-79754523D01*
X79190835Y-79723571D01*
X79128930Y-79692619D01*
%TO.C,R21*%
X54802143Y-103871743D02*
X54585477Y-103562219D01*
X54430715Y-103871743D02*
X54430715Y-103221743D01*
X54678334Y-103221743D01*
X54740239Y-103252696D01*
X54771191Y-103283648D01*
X54802143Y-103345553D01*
X54802143Y-103438410D01*
X54771191Y-103500315D01*
X54740239Y-103531267D01*
X54678334Y-103562219D01*
X54430715Y-103562219D01*
X55049762Y-103283648D02*
X55080715Y-103252696D01*
X55142620Y-103221743D01*
X55297381Y-103221743D01*
X55359286Y-103252696D01*
X55390239Y-103283648D01*
X55421191Y-103345553D01*
X55421191Y-103407457D01*
X55390239Y-103500315D01*
X55018810Y-103871743D01*
X55421191Y-103871743D01*
X56040239Y-103871743D02*
X55668810Y-103871743D01*
X55854524Y-103871743D02*
X55854524Y-103221743D01*
X55792620Y-103314600D01*
X55730715Y-103376505D01*
X55668810Y-103407457D01*
%TO.C,C48*%
X38412142Y-76552142D02*
X38381190Y-76583095D01*
X38288333Y-76614047D01*
X38226428Y-76614047D01*
X38133571Y-76583095D01*
X38071666Y-76521190D01*
X38040714Y-76459285D01*
X38009761Y-76335476D01*
X38009761Y-76242619D01*
X38040714Y-76118809D01*
X38071666Y-76056904D01*
X38133571Y-75995000D01*
X38226428Y-75964047D01*
X38288333Y-75964047D01*
X38381190Y-75995000D01*
X38412142Y-76025952D01*
X38969285Y-76180714D02*
X38969285Y-76614047D01*
X38814523Y-75933095D02*
X38659761Y-76397380D01*
X39062142Y-76397380D01*
X39402619Y-76242619D02*
X39340714Y-76211666D01*
X39309761Y-76180714D01*
X39278809Y-76118809D01*
X39278809Y-76087857D01*
X39309761Y-76025952D01*
X39340714Y-75995000D01*
X39402619Y-75964047D01*
X39526428Y-75964047D01*
X39588333Y-75995000D01*
X39619285Y-76025952D01*
X39650238Y-76087857D01*
X39650238Y-76118809D01*
X39619285Y-76180714D01*
X39588333Y-76211666D01*
X39526428Y-76242619D01*
X39402619Y-76242619D01*
X39340714Y-76273571D01*
X39309761Y-76304523D01*
X39278809Y-76366428D01*
X39278809Y-76490238D01*
X39309761Y-76552142D01*
X39340714Y-76583095D01*
X39402619Y-76614047D01*
X39526428Y-76614047D01*
X39588333Y-76583095D01*
X39619285Y-76552142D01*
X39650238Y-76490238D01*
X39650238Y-76366428D01*
X39619285Y-76304523D01*
X39588333Y-76273571D01*
X39526428Y-76242619D01*
%TO.C,R7*%
X45734004Y-124057211D02*
X45361931Y-123991551D01*
X45471365Y-124319850D02*
X45011745Y-123860231D01*
X45186838Y-123685138D01*
X45252498Y-123663251D01*
X45296272Y-123663251D01*
X45361931Y-123685138D01*
X45427591Y-123750798D01*
X45449478Y-123816458D01*
X45449478Y-123860231D01*
X45427591Y-123925891D01*
X45252498Y-124100984D01*
X45427591Y-123444385D02*
X45734004Y-123137972D01*
X45996644Y-123794571D01*
%TO.C,C7*%
X55453214Y-113747185D02*
X55422262Y-113778138D01*
X55329405Y-113809090D01*
X55267500Y-113809090D01*
X55174643Y-113778138D01*
X55112738Y-113716233D01*
X55081786Y-113654328D01*
X55050833Y-113530519D01*
X55050833Y-113437662D01*
X55081786Y-113313852D01*
X55112738Y-113251947D01*
X55174643Y-113190043D01*
X55267500Y-113159090D01*
X55329405Y-113159090D01*
X55422262Y-113190043D01*
X55453214Y-113220995D01*
X55669881Y-113159090D02*
X56103214Y-113159090D01*
X55824643Y-113809090D01*
%TO.C,R30*%
X85577142Y-54609046D02*
X85360476Y-54299522D01*
X85205714Y-54609046D02*
X85205714Y-53959046D01*
X85453333Y-53959046D01*
X85515238Y-53989999D01*
X85546190Y-54020951D01*
X85577142Y-54082856D01*
X85577142Y-54175713D01*
X85546190Y-54237618D01*
X85515238Y-54268570D01*
X85453333Y-54299522D01*
X85205714Y-54299522D01*
X85793809Y-53959046D02*
X86196190Y-53959046D01*
X85979523Y-54206665D01*
X86072380Y-54206665D01*
X86134285Y-54237618D01*
X86165238Y-54268570D01*
X86196190Y-54330475D01*
X86196190Y-54485237D01*
X86165238Y-54547141D01*
X86134285Y-54578094D01*
X86072380Y-54609046D01*
X85886666Y-54609046D01*
X85824761Y-54578094D01*
X85793809Y-54547141D01*
X86598571Y-53959046D02*
X86660476Y-53959046D01*
X86722380Y-53989999D01*
X86753333Y-54020951D01*
X86784285Y-54082856D01*
X86815238Y-54206665D01*
X86815238Y-54361427D01*
X86784285Y-54485237D01*
X86753333Y-54547141D01*
X86722380Y-54578094D01*
X86660476Y-54609046D01*
X86598571Y-54609046D01*
X86536666Y-54578094D01*
X86505714Y-54547141D01*
X86474761Y-54485237D01*
X86443809Y-54361427D01*
X86443809Y-54206665D01*
X86474761Y-54082856D01*
X86505714Y-54020951D01*
X86536666Y-53989999D01*
X86598571Y-53959046D01*
%TO.C,C12*%
X53322142Y-122447857D02*
X53353095Y-122478809D01*
X53384047Y-122571666D01*
X53384047Y-122633571D01*
X53353095Y-122726428D01*
X53291190Y-122788333D01*
X53229285Y-122819285D01*
X53105476Y-122850238D01*
X53012619Y-122850238D01*
X52888809Y-122819285D01*
X52826904Y-122788333D01*
X52765000Y-122726428D01*
X52734047Y-122633571D01*
X52734047Y-122571666D01*
X52765000Y-122478809D01*
X52795952Y-122447857D01*
X53384047Y-121828809D02*
X53384047Y-122200238D01*
X53384047Y-122014523D02*
X52734047Y-122014523D01*
X52826904Y-122076428D01*
X52888809Y-122138333D01*
X52919761Y-122200238D01*
X52795952Y-121581190D02*
X52765000Y-121550238D01*
X52734047Y-121488333D01*
X52734047Y-121333571D01*
X52765000Y-121271666D01*
X52795952Y-121240714D01*
X52857857Y-121209761D01*
X52919761Y-121209761D01*
X53012619Y-121240714D01*
X53384047Y-121612142D01*
X53384047Y-121209761D01*
%TO.C,R25*%
X55612142Y-123524047D02*
X55395476Y-123214523D01*
X55240714Y-123524047D02*
X55240714Y-122874047D01*
X55488333Y-122874047D01*
X55550238Y-122905000D01*
X55581190Y-122935952D01*
X55612142Y-122997857D01*
X55612142Y-123090714D01*
X55581190Y-123152619D01*
X55550238Y-123183571D01*
X55488333Y-123214523D01*
X55240714Y-123214523D01*
X55859761Y-122935952D02*
X55890714Y-122905000D01*
X55952619Y-122874047D01*
X56107380Y-122874047D01*
X56169285Y-122905000D01*
X56200238Y-122935952D01*
X56231190Y-122997857D01*
X56231190Y-123059761D01*
X56200238Y-123152619D01*
X55828809Y-123524047D01*
X56231190Y-123524047D01*
X56819285Y-122874047D02*
X56509761Y-122874047D01*
X56478809Y-123183571D01*
X56509761Y-123152619D01*
X56571666Y-123121666D01*
X56726428Y-123121666D01*
X56788333Y-123152619D01*
X56819285Y-123183571D01*
X56850238Y-123245476D01*
X56850238Y-123400238D01*
X56819285Y-123462142D01*
X56788333Y-123493095D01*
X56726428Y-123524047D01*
X56571666Y-123524047D01*
X56509761Y-123493095D01*
X56478809Y-123462142D01*
%TO.C,R16*%
X53582142Y-102644047D02*
X53365476Y-102334523D01*
X53210714Y-102644047D02*
X53210714Y-101994047D01*
X53458333Y-101994047D01*
X53520238Y-102025000D01*
X53551190Y-102055952D01*
X53582142Y-102117857D01*
X53582142Y-102210714D01*
X53551190Y-102272619D01*
X53520238Y-102303571D01*
X53458333Y-102334523D01*
X53210714Y-102334523D01*
X54201190Y-102644047D02*
X53829761Y-102644047D01*
X54015476Y-102644047D02*
X54015476Y-101994047D01*
X53953571Y-102086904D01*
X53891666Y-102148809D01*
X53829761Y-102179761D01*
X54758333Y-101994047D02*
X54634523Y-101994047D01*
X54572619Y-102025000D01*
X54541666Y-102055952D01*
X54479761Y-102148809D01*
X54448809Y-102272619D01*
X54448809Y-102520238D01*
X54479761Y-102582142D01*
X54510714Y-102613095D01*
X54572619Y-102644047D01*
X54696428Y-102644047D01*
X54758333Y-102613095D01*
X54789285Y-102582142D01*
X54820238Y-102520238D01*
X54820238Y-102365476D01*
X54789285Y-102303571D01*
X54758333Y-102272619D01*
X54696428Y-102241666D01*
X54572619Y-102241666D01*
X54510714Y-102272619D01*
X54479761Y-102303571D01*
X54448809Y-102365476D01*
%TO.C,C52*%
X46242142Y-69362142D02*
X46211190Y-69393095D01*
X46118333Y-69424047D01*
X46056428Y-69424047D01*
X45963571Y-69393095D01*
X45901666Y-69331190D01*
X45870714Y-69269285D01*
X45839761Y-69145476D01*
X45839761Y-69052619D01*
X45870714Y-68928809D01*
X45901666Y-68866904D01*
X45963571Y-68805000D01*
X46056428Y-68774047D01*
X46118333Y-68774047D01*
X46211190Y-68805000D01*
X46242142Y-68835952D01*
X46830238Y-68774047D02*
X46520714Y-68774047D01*
X46489761Y-69083571D01*
X46520714Y-69052619D01*
X46582619Y-69021666D01*
X46737380Y-69021666D01*
X46799285Y-69052619D01*
X46830238Y-69083571D01*
X46861190Y-69145476D01*
X46861190Y-69300238D01*
X46830238Y-69362142D01*
X46799285Y-69393095D01*
X46737380Y-69424047D01*
X46582619Y-69424047D01*
X46520714Y-69393095D01*
X46489761Y-69362142D01*
X47108809Y-68835952D02*
X47139761Y-68805000D01*
X47201666Y-68774047D01*
X47356428Y-68774047D01*
X47418333Y-68805000D01*
X47449285Y-68835952D01*
X47480238Y-68897857D01*
X47480238Y-68959761D01*
X47449285Y-69052619D01*
X47077857Y-69424047D01*
X47480238Y-69424047D01*
%TO.C,C31*%
X42402142Y-76602142D02*
X42371190Y-76633095D01*
X42278333Y-76664047D01*
X42216428Y-76664047D01*
X42123571Y-76633095D01*
X42061666Y-76571190D01*
X42030714Y-76509285D01*
X41999761Y-76385476D01*
X41999761Y-76292619D01*
X42030714Y-76168809D01*
X42061666Y-76106904D01*
X42123571Y-76045000D01*
X42216428Y-76014047D01*
X42278333Y-76014047D01*
X42371190Y-76045000D01*
X42402142Y-76075952D01*
X42618809Y-76014047D02*
X43021190Y-76014047D01*
X42804523Y-76261666D01*
X42897380Y-76261666D01*
X42959285Y-76292619D01*
X42990238Y-76323571D01*
X43021190Y-76385476D01*
X43021190Y-76540238D01*
X42990238Y-76602142D01*
X42959285Y-76633095D01*
X42897380Y-76664047D01*
X42711666Y-76664047D01*
X42649761Y-76633095D01*
X42618809Y-76602142D01*
X43640238Y-76664047D02*
X43268809Y-76664047D01*
X43454523Y-76664047D02*
X43454523Y-76014047D01*
X43392619Y-76106904D01*
X43330714Y-76168809D01*
X43268809Y-76199761D01*
%TO.C,C19*%
X57716284Y-108287382D02*
X57685332Y-108318335D01*
X57592475Y-108349287D01*
X57530570Y-108349287D01*
X57437713Y-108318335D01*
X57375808Y-108256430D01*
X57344856Y-108194525D01*
X57313903Y-108070716D01*
X57313903Y-107977859D01*
X57344856Y-107854049D01*
X57375808Y-107792144D01*
X57437713Y-107730240D01*
X57530570Y-107699287D01*
X57592475Y-107699287D01*
X57685332Y-107730240D01*
X57716284Y-107761192D01*
X58335332Y-108349287D02*
X57963903Y-108349287D01*
X58149618Y-108349287D02*
X58149618Y-107699287D01*
X58087713Y-107792144D01*
X58025808Y-107854049D01*
X57963903Y-107885001D01*
X58644856Y-108349287D02*
X58768665Y-108349287D01*
X58830570Y-108318335D01*
X58861522Y-108287382D01*
X58923427Y-108194525D01*
X58954380Y-108070716D01*
X58954380Y-107823097D01*
X58923427Y-107761192D01*
X58892475Y-107730240D01*
X58830570Y-107699287D01*
X58706761Y-107699287D01*
X58644856Y-107730240D01*
X58613903Y-107761192D01*
X58582951Y-107823097D01*
X58582951Y-107977859D01*
X58613903Y-108039763D01*
X58644856Y-108070716D01*
X58706761Y-108101668D01*
X58830570Y-108101668D01*
X58892475Y-108070716D01*
X58923427Y-108039763D01*
X58954380Y-107977859D01*
%TO.C,C37*%
X53212142Y-126182142D02*
X53181190Y-126213095D01*
X53088333Y-126244047D01*
X53026428Y-126244047D01*
X52933571Y-126213095D01*
X52871666Y-126151190D01*
X52840714Y-126089285D01*
X52809761Y-125965476D01*
X52809761Y-125872619D01*
X52840714Y-125748809D01*
X52871666Y-125686904D01*
X52933571Y-125625000D01*
X53026428Y-125594047D01*
X53088333Y-125594047D01*
X53181190Y-125625000D01*
X53212142Y-125655952D01*
X53428809Y-125594047D02*
X53831190Y-125594047D01*
X53614523Y-125841666D01*
X53707380Y-125841666D01*
X53769285Y-125872619D01*
X53800238Y-125903571D01*
X53831190Y-125965476D01*
X53831190Y-126120238D01*
X53800238Y-126182142D01*
X53769285Y-126213095D01*
X53707380Y-126244047D01*
X53521666Y-126244047D01*
X53459761Y-126213095D01*
X53428809Y-126182142D01*
X54047857Y-125594047D02*
X54481190Y-125594047D01*
X54202619Y-126244047D01*
%TO.C,C17*%
X51632142Y-129222142D02*
X51601190Y-129253095D01*
X51508333Y-129284047D01*
X51446428Y-129284047D01*
X51353571Y-129253095D01*
X51291666Y-129191190D01*
X51260714Y-129129285D01*
X51229761Y-129005476D01*
X51229761Y-128912619D01*
X51260714Y-128788809D01*
X51291666Y-128726904D01*
X51353571Y-128665000D01*
X51446428Y-128634047D01*
X51508333Y-128634047D01*
X51601190Y-128665000D01*
X51632142Y-128695952D01*
X52251190Y-129284047D02*
X51879761Y-129284047D01*
X52065476Y-129284047D02*
X52065476Y-128634047D01*
X52003571Y-128726904D01*
X51941666Y-128788809D01*
X51879761Y-128819761D01*
X52467857Y-128634047D02*
X52901190Y-128634047D01*
X52622619Y-129284047D01*
%TO.C,C25*%
X84537142Y-64477141D02*
X84506190Y-64508094D01*
X84413333Y-64539046D01*
X84351428Y-64539046D01*
X84258571Y-64508094D01*
X84196666Y-64446189D01*
X84165714Y-64384284D01*
X84134761Y-64260475D01*
X84134761Y-64167618D01*
X84165714Y-64043808D01*
X84196666Y-63981903D01*
X84258571Y-63919999D01*
X84351428Y-63889046D01*
X84413333Y-63889046D01*
X84506190Y-63919999D01*
X84537142Y-63950951D01*
X84784761Y-63950951D02*
X84815714Y-63919999D01*
X84877619Y-63889046D01*
X85032380Y-63889046D01*
X85094285Y-63919999D01*
X85125238Y-63950951D01*
X85156190Y-64012856D01*
X85156190Y-64074760D01*
X85125238Y-64167618D01*
X84753809Y-64539046D01*
X85156190Y-64539046D01*
X85744285Y-63889046D02*
X85434761Y-63889046D01*
X85403809Y-64198570D01*
X85434761Y-64167618D01*
X85496666Y-64136665D01*
X85651428Y-64136665D01*
X85713333Y-64167618D01*
X85744285Y-64198570D01*
X85775238Y-64260475D01*
X85775238Y-64415237D01*
X85744285Y-64477141D01*
X85713333Y-64508094D01*
X85651428Y-64539046D01*
X85496666Y-64539046D01*
X85434761Y-64508094D01*
X85403809Y-64477141D01*
%TO.C,C51*%
X40352142Y-64852142D02*
X40321190Y-64883095D01*
X40228333Y-64914047D01*
X40166428Y-64914047D01*
X40073571Y-64883095D01*
X40011666Y-64821190D01*
X39980714Y-64759285D01*
X39949761Y-64635476D01*
X39949761Y-64542619D01*
X39980714Y-64418809D01*
X40011666Y-64356904D01*
X40073571Y-64295000D01*
X40166428Y-64264047D01*
X40228333Y-64264047D01*
X40321190Y-64295000D01*
X40352142Y-64325952D01*
X40940238Y-64264047D02*
X40630714Y-64264047D01*
X40599761Y-64573571D01*
X40630714Y-64542619D01*
X40692619Y-64511666D01*
X40847380Y-64511666D01*
X40909285Y-64542619D01*
X40940238Y-64573571D01*
X40971190Y-64635476D01*
X40971190Y-64790238D01*
X40940238Y-64852142D01*
X40909285Y-64883095D01*
X40847380Y-64914047D01*
X40692619Y-64914047D01*
X40630714Y-64883095D01*
X40599761Y-64852142D01*
X41590238Y-64914047D02*
X41218809Y-64914047D01*
X41404523Y-64914047D02*
X41404523Y-64264047D01*
X41342619Y-64356904D01*
X41280714Y-64418809D01*
X41218809Y-64449761D01*
%TO.C,Y3*%
X56600477Y-104572218D02*
X56600477Y-104881742D01*
X56383810Y-104231742D02*
X56600477Y-104572218D01*
X56817143Y-104231742D01*
X56971905Y-104231742D02*
X57374286Y-104231742D01*
X57157620Y-104479361D01*
X57250477Y-104479361D01*
X57312381Y-104510314D01*
X57343334Y-104541266D01*
X57374286Y-104603171D01*
X57374286Y-104757933D01*
X57343334Y-104819837D01*
X57312381Y-104850790D01*
X57250477Y-104881742D01*
X57064762Y-104881742D01*
X57002858Y-104850790D01*
X56971905Y-104819837D01*
%TO.C,R11*%
X45855782Y-108276133D02*
X45639116Y-107966609D01*
X45484354Y-108276133D02*
X45484354Y-107626133D01*
X45731973Y-107626133D01*
X45793878Y-107657086D01*
X45824830Y-107688038D01*
X45855782Y-107749943D01*
X45855782Y-107842800D01*
X45824830Y-107904705D01*
X45793878Y-107935657D01*
X45731973Y-107966609D01*
X45484354Y-107966609D01*
X46474830Y-108276133D02*
X46103401Y-108276133D01*
X46289116Y-108276133D02*
X46289116Y-107626133D01*
X46227211Y-107718990D01*
X46165306Y-107780895D01*
X46103401Y-107811847D01*
X47093878Y-108276133D02*
X46722449Y-108276133D01*
X46908163Y-108276133D02*
X46908163Y-107626133D01*
X46846259Y-107718990D01*
X46784354Y-107780895D01*
X46722449Y-107811847D01*
%TO.C,U6*%
X37070595Y-55537380D02*
X37070595Y-56346904D01*
X37118214Y-56442142D01*
X37165833Y-56489761D01*
X37261071Y-56537380D01*
X37451547Y-56537380D01*
X37546785Y-56489761D01*
X37594404Y-56442142D01*
X37642023Y-56346904D01*
X37642023Y-55537380D01*
X38546785Y-55537380D02*
X38356309Y-55537380D01*
X38261071Y-55585000D01*
X38213452Y-55632619D01*
X38118214Y-55775476D01*
X38070595Y-55965952D01*
X38070595Y-56346904D01*
X38118214Y-56442142D01*
X38165833Y-56489761D01*
X38261071Y-56537380D01*
X38451547Y-56537380D01*
X38546785Y-56489761D01*
X38594404Y-56442142D01*
X38642023Y-56346904D01*
X38642023Y-56108809D01*
X38594404Y-56013571D01*
X38546785Y-55965952D01*
X38451547Y-55918333D01*
X38261071Y-55918333D01*
X38165833Y-55965952D01*
X38118214Y-56013571D01*
X38070595Y-56108809D01*
%TO.C,R13*%
X45855782Y-110006135D02*
X45639116Y-109696611D01*
X45484354Y-110006135D02*
X45484354Y-109356135D01*
X45731973Y-109356135D01*
X45793878Y-109387088D01*
X45824830Y-109418040D01*
X45855782Y-109479945D01*
X45855782Y-109572802D01*
X45824830Y-109634707D01*
X45793878Y-109665659D01*
X45731973Y-109696611D01*
X45484354Y-109696611D01*
X46474830Y-110006135D02*
X46103401Y-110006135D01*
X46289116Y-110006135D02*
X46289116Y-109356135D01*
X46227211Y-109448992D01*
X46165306Y-109510897D01*
X46103401Y-109541849D01*
X46691497Y-109356135D02*
X47093878Y-109356135D01*
X46877211Y-109603754D01*
X46970068Y-109603754D01*
X47031973Y-109634707D01*
X47062925Y-109665659D01*
X47093878Y-109727564D01*
X47093878Y-109882326D01*
X47062925Y-109944230D01*
X47031973Y-109975183D01*
X46970068Y-110006135D01*
X46784354Y-110006135D01*
X46722449Y-109975183D01*
X46691497Y-109944230D01*
%TO.C,C11*%
X54242142Y-122387857D02*
X54273095Y-122418809D01*
X54304047Y-122511666D01*
X54304047Y-122573571D01*
X54273095Y-122666428D01*
X54211190Y-122728333D01*
X54149285Y-122759285D01*
X54025476Y-122790238D01*
X53932619Y-122790238D01*
X53808809Y-122759285D01*
X53746904Y-122728333D01*
X53685000Y-122666428D01*
X53654047Y-122573571D01*
X53654047Y-122511666D01*
X53685000Y-122418809D01*
X53715952Y-122387857D01*
X54304047Y-121768809D02*
X54304047Y-122140238D01*
X54304047Y-121954523D02*
X53654047Y-121954523D01*
X53746904Y-122016428D01*
X53808809Y-122078333D01*
X53839761Y-122140238D01*
X54304047Y-121149761D02*
X54304047Y-121521190D01*
X54304047Y-121335476D02*
X53654047Y-121335476D01*
X53746904Y-121397380D01*
X53808809Y-121459285D01*
X53839761Y-121521190D01*
%TO.C,C35*%
X46522142Y-65952142D02*
X46491190Y-65983095D01*
X46398333Y-66014047D01*
X46336428Y-66014047D01*
X46243571Y-65983095D01*
X46181666Y-65921190D01*
X46150714Y-65859285D01*
X46119761Y-65735476D01*
X46119761Y-65642619D01*
X46150714Y-65518809D01*
X46181666Y-65456904D01*
X46243571Y-65395000D01*
X46336428Y-65364047D01*
X46398333Y-65364047D01*
X46491190Y-65395000D01*
X46522142Y-65425952D01*
X46738809Y-65364047D02*
X47141190Y-65364047D01*
X46924523Y-65611666D01*
X47017380Y-65611666D01*
X47079285Y-65642619D01*
X47110238Y-65673571D01*
X47141190Y-65735476D01*
X47141190Y-65890238D01*
X47110238Y-65952142D01*
X47079285Y-65983095D01*
X47017380Y-66014047D01*
X46831666Y-66014047D01*
X46769761Y-65983095D01*
X46738809Y-65952142D01*
X47729285Y-65364047D02*
X47419761Y-65364047D01*
X47388809Y-65673571D01*
X47419761Y-65642619D01*
X47481666Y-65611666D01*
X47636428Y-65611666D01*
X47698333Y-65642619D01*
X47729285Y-65673571D01*
X47760238Y-65735476D01*
X47760238Y-65890238D01*
X47729285Y-65952142D01*
X47698333Y-65983095D01*
X47636428Y-66014047D01*
X47481666Y-66014047D01*
X47419761Y-65983095D01*
X47388809Y-65952142D01*
%TO.C,C41*%
X77987142Y-75707142D02*
X77956190Y-75738095D01*
X77863333Y-75769047D01*
X77801428Y-75769047D01*
X77708571Y-75738095D01*
X77646666Y-75676190D01*
X77615714Y-75614285D01*
X77584761Y-75490476D01*
X77584761Y-75397619D01*
X77615714Y-75273809D01*
X77646666Y-75211904D01*
X77708571Y-75150000D01*
X77801428Y-75119047D01*
X77863333Y-75119047D01*
X77956190Y-75150000D01*
X77987142Y-75180952D01*
X78544285Y-75335714D02*
X78544285Y-75769047D01*
X78389523Y-75088095D02*
X78234761Y-75552380D01*
X78637142Y-75552380D01*
X79225238Y-75769047D02*
X78853809Y-75769047D01*
X79039523Y-75769047D02*
X79039523Y-75119047D01*
X78977619Y-75211904D01*
X78915714Y-75273809D01*
X78853809Y-75304761D01*
%TO.C,U10*%
X104190238Y-67397547D02*
X104190238Y-67923738D01*
X104221190Y-67985642D01*
X104252142Y-68016595D01*
X104314047Y-68047547D01*
X104437857Y-68047547D01*
X104499761Y-68016595D01*
X104530714Y-67985642D01*
X104561666Y-67923738D01*
X104561666Y-67397547D01*
X105211666Y-68047547D02*
X104840238Y-68047547D01*
X105025952Y-68047547D02*
X105025952Y-67397547D01*
X104964047Y-67490404D01*
X104902142Y-67552309D01*
X104840238Y-67583261D01*
X105614047Y-67397547D02*
X105675952Y-67397547D01*
X105737857Y-67428500D01*
X105768809Y-67459452D01*
X105799761Y-67521357D01*
X105830714Y-67645166D01*
X105830714Y-67799928D01*
X105799761Y-67923738D01*
X105768809Y-67985642D01*
X105737857Y-68016595D01*
X105675952Y-68047547D01*
X105614047Y-68047547D01*
X105552142Y-68016595D01*
X105521190Y-67985642D01*
X105490238Y-67923738D01*
X105459285Y-67799928D01*
X105459285Y-67645166D01*
X105490238Y-67521357D01*
X105521190Y-67459452D01*
X105552142Y-67428500D01*
X105614047Y-67397547D01*
%TO.C,R14*%
X42602142Y-60194047D02*
X42385476Y-59884523D01*
X42230714Y-60194047D02*
X42230714Y-59544047D01*
X42478333Y-59544047D01*
X42540238Y-59575000D01*
X42571190Y-59605952D01*
X42602142Y-59667857D01*
X42602142Y-59760714D01*
X42571190Y-59822619D01*
X42540238Y-59853571D01*
X42478333Y-59884523D01*
X42230714Y-59884523D01*
X43221190Y-60194047D02*
X42849761Y-60194047D01*
X43035476Y-60194047D02*
X43035476Y-59544047D01*
X42973571Y-59636904D01*
X42911666Y-59698809D01*
X42849761Y-59729761D01*
X43778333Y-59760714D02*
X43778333Y-60194047D01*
X43623571Y-59513095D02*
X43468809Y-59977380D01*
X43871190Y-59977380D01*
%TO.C,C42*%
X94937142Y-70417143D02*
X94906190Y-70448096D01*
X94813333Y-70479048D01*
X94751428Y-70479048D01*
X94658571Y-70448096D01*
X94596666Y-70386191D01*
X94565714Y-70324286D01*
X94534761Y-70200477D01*
X94534761Y-70107620D01*
X94565714Y-69983810D01*
X94596666Y-69921905D01*
X94658571Y-69860001D01*
X94751428Y-69829048D01*
X94813333Y-69829048D01*
X94906190Y-69860001D01*
X94937142Y-69890953D01*
X95494285Y-70045715D02*
X95494285Y-70479048D01*
X95339523Y-69798096D02*
X95184761Y-70262381D01*
X95587142Y-70262381D01*
X95803809Y-69890953D02*
X95834761Y-69860001D01*
X95896666Y-69829048D01*
X96051428Y-69829048D01*
X96113333Y-69860001D01*
X96144285Y-69890953D01*
X96175238Y-69952858D01*
X96175238Y-70014762D01*
X96144285Y-70107620D01*
X95772857Y-70479048D01*
X96175238Y-70479048D01*
%TO.C,C44*%
X94757142Y-60157142D02*
X94726190Y-60188095D01*
X94633333Y-60219047D01*
X94571428Y-60219047D01*
X94478571Y-60188095D01*
X94416666Y-60126190D01*
X94385714Y-60064285D01*
X94354761Y-59940476D01*
X94354761Y-59847619D01*
X94385714Y-59723809D01*
X94416666Y-59661904D01*
X94478571Y-59600000D01*
X94571428Y-59569047D01*
X94633333Y-59569047D01*
X94726190Y-59600000D01*
X94757142Y-59630952D01*
X95314285Y-59785714D02*
X95314285Y-60219047D01*
X95159523Y-59538095D02*
X95004761Y-60002380D01*
X95407142Y-60002380D01*
X95933333Y-59785714D02*
X95933333Y-60219047D01*
X95778571Y-59538095D02*
X95623809Y-60002380D01*
X96026190Y-60002380D01*
%TO.C,C15*%
X47122142Y-123772142D02*
X47091190Y-123803095D01*
X46998333Y-123834047D01*
X46936428Y-123834047D01*
X46843571Y-123803095D01*
X46781666Y-123741190D01*
X46750714Y-123679285D01*
X46719761Y-123555476D01*
X46719761Y-123462619D01*
X46750714Y-123338809D01*
X46781666Y-123276904D01*
X46843571Y-123215000D01*
X46936428Y-123184047D01*
X46998333Y-123184047D01*
X47091190Y-123215000D01*
X47122142Y-123245952D01*
X47741190Y-123834047D02*
X47369761Y-123834047D01*
X47555476Y-123834047D02*
X47555476Y-123184047D01*
X47493571Y-123276904D01*
X47431666Y-123338809D01*
X47369761Y-123369761D01*
X48329285Y-123184047D02*
X48019761Y-123184047D01*
X47988809Y-123493571D01*
X48019761Y-123462619D01*
X48081666Y-123431666D01*
X48236428Y-123431666D01*
X48298333Y-123462619D01*
X48329285Y-123493571D01*
X48360238Y-123555476D01*
X48360238Y-123710238D01*
X48329285Y-123772142D01*
X48298333Y-123803095D01*
X48236428Y-123834047D01*
X48081666Y-123834047D01*
X48019761Y-123803095D01*
X47988809Y-123772142D01*
%TO.C,Y2*%
X41715329Y-125746259D02*
X41715329Y-126055783D01*
X41498662Y-125405783D02*
X41715329Y-125746259D01*
X41931995Y-125405783D01*
X42117710Y-125467688D02*
X42148662Y-125436736D01*
X42210567Y-125405783D01*
X42365329Y-125405783D01*
X42427233Y-125436736D01*
X42458186Y-125467688D01*
X42489138Y-125529593D01*
X42489138Y-125591497D01*
X42458186Y-125684355D01*
X42086757Y-126055783D01*
X42489138Y-126055783D01*
%TO.C,C6*%
X27791666Y-56502142D02*
X27760714Y-56533095D01*
X27667857Y-56564047D01*
X27605952Y-56564047D01*
X27513095Y-56533095D01*
X27451190Y-56471190D01*
X27420238Y-56409285D01*
X27389285Y-56285476D01*
X27389285Y-56192619D01*
X27420238Y-56068809D01*
X27451190Y-56006904D01*
X27513095Y-55945000D01*
X27605952Y-55914047D01*
X27667857Y-55914047D01*
X27760714Y-55945000D01*
X27791666Y-55975952D01*
X28348809Y-55914047D02*
X28225000Y-55914047D01*
X28163095Y-55945000D01*
X28132142Y-55975952D01*
X28070238Y-56068809D01*
X28039285Y-56192619D01*
X28039285Y-56440238D01*
X28070238Y-56502142D01*
X28101190Y-56533095D01*
X28163095Y-56564047D01*
X28286904Y-56564047D01*
X28348809Y-56533095D01*
X28379761Y-56502142D01*
X28410714Y-56440238D01*
X28410714Y-56285476D01*
X28379761Y-56223571D01*
X28348809Y-56192619D01*
X28286904Y-56161666D01*
X28163095Y-56161666D01*
X28101190Y-56192619D01*
X28070238Y-56223571D01*
X28039285Y-56285476D01*
%TO.C,R3*%
X42751666Y-54514047D02*
X42535000Y-54204523D01*
X42380238Y-54514047D02*
X42380238Y-53864047D01*
X42627857Y-53864047D01*
X42689761Y-53895000D01*
X42720714Y-53925952D01*
X42751666Y-53987857D01*
X42751666Y-54080714D01*
X42720714Y-54142619D01*
X42689761Y-54173571D01*
X42627857Y-54204523D01*
X42380238Y-54204523D01*
X42968333Y-53864047D02*
X43370714Y-53864047D01*
X43154047Y-54111666D01*
X43246904Y-54111666D01*
X43308809Y-54142619D01*
X43339761Y-54173571D01*
X43370714Y-54235476D01*
X43370714Y-54390238D01*
X43339761Y-54452142D01*
X43308809Y-54483095D01*
X43246904Y-54514047D01*
X43061190Y-54514047D01*
X42999285Y-54483095D01*
X42968333Y-54452142D01*
%TO.C,C9*%
X39901666Y-60592142D02*
X39870714Y-60623095D01*
X39777857Y-60654047D01*
X39715952Y-60654047D01*
X39623095Y-60623095D01*
X39561190Y-60561190D01*
X39530238Y-60499285D01*
X39499285Y-60375476D01*
X39499285Y-60282619D01*
X39530238Y-60158809D01*
X39561190Y-60096904D01*
X39623095Y-60035000D01*
X39715952Y-60004047D01*
X39777857Y-60004047D01*
X39870714Y-60035000D01*
X39901666Y-60065952D01*
X40211190Y-60654047D02*
X40335000Y-60654047D01*
X40396904Y-60623095D01*
X40427857Y-60592142D01*
X40489761Y-60499285D01*
X40520714Y-60375476D01*
X40520714Y-60127857D01*
X40489761Y-60065952D01*
X40458809Y-60035000D01*
X40396904Y-60004047D01*
X40273095Y-60004047D01*
X40211190Y-60035000D01*
X40180238Y-60065952D01*
X40149285Y-60127857D01*
X40149285Y-60282619D01*
X40180238Y-60344523D01*
X40211190Y-60375476D01*
X40273095Y-60406428D01*
X40396904Y-60406428D01*
X40458809Y-60375476D01*
X40489761Y-60344523D01*
X40520714Y-60282619D01*
%TO.C,C8*%
X42066666Y-121672142D02*
X42035714Y-121703095D01*
X41942857Y-121734047D01*
X41880952Y-121734047D01*
X41788095Y-121703095D01*
X41726190Y-121641190D01*
X41695238Y-121579285D01*
X41664285Y-121455476D01*
X41664285Y-121362619D01*
X41695238Y-121238809D01*
X41726190Y-121176904D01*
X41788095Y-121115000D01*
X41880952Y-121084047D01*
X41942857Y-121084047D01*
X42035714Y-121115000D01*
X42066666Y-121145952D01*
X42438095Y-121362619D02*
X42376190Y-121331666D01*
X42345238Y-121300714D01*
X42314285Y-121238809D01*
X42314285Y-121207857D01*
X42345238Y-121145952D01*
X42376190Y-121115000D01*
X42438095Y-121084047D01*
X42561904Y-121084047D01*
X42623809Y-121115000D01*
X42654761Y-121145952D01*
X42685714Y-121207857D01*
X42685714Y-121238809D01*
X42654761Y-121300714D01*
X42623809Y-121331666D01*
X42561904Y-121362619D01*
X42438095Y-121362619D01*
X42376190Y-121393571D01*
X42345238Y-121424523D01*
X42314285Y-121486428D01*
X42314285Y-121610238D01*
X42345238Y-121672142D01*
X42376190Y-121703095D01*
X42438095Y-121734047D01*
X42561904Y-121734047D01*
X42623809Y-121703095D01*
X42654761Y-121672142D01*
X42685714Y-121610238D01*
X42685714Y-121486428D01*
X42654761Y-121424523D01*
X42623809Y-121393571D01*
X42561904Y-121362619D01*
%TO.C,Q2*%
X71603095Y-49490952D02*
X71541190Y-49460000D01*
X71479285Y-49398095D01*
X71386428Y-49305238D01*
X71324523Y-49274285D01*
X71262619Y-49274285D01*
X71293571Y-49429047D02*
X71231666Y-49398095D01*
X71169761Y-49336190D01*
X71138809Y-49212380D01*
X71138809Y-48995714D01*
X71169761Y-48871904D01*
X71231666Y-48810000D01*
X71293571Y-48779047D01*
X71417380Y-48779047D01*
X71479285Y-48810000D01*
X71541190Y-48871904D01*
X71572142Y-48995714D01*
X71572142Y-49212380D01*
X71541190Y-49336190D01*
X71479285Y-49398095D01*
X71417380Y-49429047D01*
X71293571Y-49429047D01*
X71819761Y-48840952D02*
X71850714Y-48810000D01*
X71912619Y-48779047D01*
X72067380Y-48779047D01*
X72129285Y-48810000D01*
X72160238Y-48840952D01*
X72191190Y-48902857D01*
X72191190Y-48964761D01*
X72160238Y-49057619D01*
X71788809Y-49429047D01*
X72191190Y-49429047D01*
%TO.C,C20*%
X46912142Y-133052142D02*
X46881190Y-133083095D01*
X46788333Y-133114047D01*
X46726428Y-133114047D01*
X46633571Y-133083095D01*
X46571666Y-133021190D01*
X46540714Y-132959285D01*
X46509761Y-132835476D01*
X46509761Y-132742619D01*
X46540714Y-132618809D01*
X46571666Y-132556904D01*
X46633571Y-132495000D01*
X46726428Y-132464047D01*
X46788333Y-132464047D01*
X46881190Y-132495000D01*
X46912142Y-132525952D01*
X47159761Y-132525952D02*
X47190714Y-132495000D01*
X47252619Y-132464047D01*
X47407380Y-132464047D01*
X47469285Y-132495000D01*
X47500238Y-132525952D01*
X47531190Y-132587857D01*
X47531190Y-132649761D01*
X47500238Y-132742619D01*
X47128809Y-133114047D01*
X47531190Y-133114047D01*
X47933571Y-132464047D02*
X47995476Y-132464047D01*
X48057380Y-132495000D01*
X48088333Y-132525952D01*
X48119285Y-132587857D01*
X48150238Y-132711666D01*
X48150238Y-132866428D01*
X48119285Y-132990238D01*
X48088333Y-133052142D01*
X48057380Y-133083095D01*
X47995476Y-133114047D01*
X47933571Y-133114047D01*
X47871666Y-133083095D01*
X47840714Y-133052142D01*
X47809761Y-132990238D01*
X47778809Y-132866428D01*
X47778809Y-132711666D01*
X47809761Y-132587857D01*
X47840714Y-132525952D01*
X47871666Y-132495000D01*
X47933571Y-132464047D01*
%TO.C,U11*%
X44845238Y-66314047D02*
X44845238Y-66840238D01*
X44876190Y-66902142D01*
X44907142Y-66933095D01*
X44969047Y-66964047D01*
X45092857Y-66964047D01*
X45154761Y-66933095D01*
X45185714Y-66902142D01*
X45216666Y-66840238D01*
X45216666Y-66314047D01*
X45866666Y-66964047D02*
X45495238Y-66964047D01*
X45680952Y-66964047D02*
X45680952Y-66314047D01*
X45619047Y-66406904D01*
X45557142Y-66468809D01*
X45495238Y-66499761D01*
X46485714Y-66964047D02*
X46114285Y-66964047D01*
X46300000Y-66964047D02*
X46300000Y-66314047D01*
X46238095Y-66406904D01*
X46176190Y-66468809D01*
X46114285Y-66499761D01*
D12*
%TO.C,R39*%
X92886359Y-71480000D02*
X93193641Y-71480000D01*
X92886359Y-72240000D02*
X93193641Y-72240000D01*
%TO.C,D5*%
X91832500Y-56180000D02*
X87982500Y-56180000D01*
X91832500Y-54180000D02*
X87982500Y-54180000D01*
X91832500Y-56180000D02*
X91832500Y-54180000D01*
%TO.C,C32*%
X83266253Y-71060000D02*
X82743749Y-71060000D01*
X83266253Y-69590000D02*
X82743749Y-69590000D01*
%TO.C,C24*%
X39602164Y-78740000D02*
X39817836Y-78740000D01*
X39602164Y-79460000D02*
X39817836Y-79460000D01*
%TO.C,L6*%
X77150000Y-76230000D02*
X77150000Y-74830000D01*
X70750000Y-76230000D02*
X71950000Y-76230000D01*
X77150000Y-69430000D02*
X77150000Y-70830000D01*
X70750000Y-69430000D02*
X71950000Y-69430000D01*
X70750000Y-69430000D02*
X70750000Y-70830000D01*
X77150000Y-69430000D02*
X75950000Y-69430000D01*
X70750000Y-76230000D02*
X70750000Y-74830000D01*
X77150000Y-76230000D02*
X75950000Y-76230000D01*
%TO.C,C5*%
X54725000Y-56053747D02*
X54725000Y-56576251D01*
X53255000Y-56053747D02*
X53255000Y-56576251D01*
%TO.C,C22*%
X42368958Y-128398881D02*
X42216455Y-128551384D01*
X41859841Y-127889764D02*
X41707338Y-128042267D01*
%TO.C,C16*%
X48320000Y-111387836D02*
X48320000Y-111172164D01*
X49040000Y-111387836D02*
X49040000Y-111172164D01*
%TO.C,TC3*%
X41300000Y-79335000D02*
X41935000Y-79335000D01*
X41300000Y-79970000D02*
X41300000Y-79335000D01*
%TO.C,U3*%
X47795000Y-58885000D02*
X51245000Y-58885000D01*
X47795000Y-58885000D02*
X45845000Y-58885000D01*
X47795000Y-53765000D02*
X49745000Y-53765000D01*
X47795000Y-53765000D02*
X45845000Y-53765000D01*
%TO.C,C21*%
X47222164Y-131340000D02*
X47437836Y-131340000D01*
X47222164Y-130620000D02*
X47437836Y-130620000D01*
%TO.C,C18*%
X46589190Y-126128307D02*
X46741693Y-126280810D01*
X47098307Y-125619190D02*
X47250810Y-125771693D01*
%TO.C,R34*%
X73237742Y-62847500D02*
X73712258Y-62847500D01*
X73237742Y-61802500D02*
X73712258Y-61802500D01*
%TO.C,J6*%
X27413471Y-127650000D02*
X27960000Y-127650000D01*
X25740000Y-126130000D02*
X26850000Y-126130000D01*
X25740000Y-127650000D02*
X25740000Y-133935000D01*
X27157530Y-133935000D02*
X27960000Y-133935000D01*
X25740000Y-127650000D02*
X26286529Y-127650000D01*
X25740000Y-133935000D02*
X26542470Y-133935000D01*
X25740000Y-126890000D02*
X25740000Y-126130000D01*
X27960000Y-127650000D02*
X27960000Y-133935000D01*
%TO.C,C47*%
X91430000Y-61649999D02*
X91430000Y-62274999D01*
X88049437Y-62514999D02*
X88685000Y-62514999D01*
X91440563Y-62514999D02*
X92505000Y-63579436D01*
X86985000Y-63579436D02*
X86985000Y-68034999D01*
X91440563Y-62514999D02*
X90805000Y-62514999D01*
X91742500Y-61962499D02*
X91117500Y-61962499D01*
X92505000Y-63579436D02*
X92505000Y-68034999D01*
X92505000Y-68034999D02*
X90805000Y-68034999D01*
X86985000Y-68034999D02*
X88685000Y-68034999D01*
X88049437Y-62514999D02*
X86985000Y-63579436D01*
%TO.C,R26*%
X43149940Y-123362659D02*
X42932659Y-123579940D01*
X43687341Y-123900060D02*
X43470060Y-124117341D01*
%TO.C,Y4*%
X40400000Y-83020000D02*
X40400000Y-79720000D01*
X40400000Y-79720000D02*
X36400000Y-79720000D01*
%TO.C,C33*%
X41970000Y-65287836D02*
X41970000Y-65072164D01*
X42690000Y-65287836D02*
X42690000Y-65072164D01*
%TO.C,R31*%
X83998641Y-55804999D02*
X83691359Y-55804999D01*
X83998641Y-55044999D02*
X83691359Y-55044999D01*
D13*
%TO.C,J3*%
X104885000Y-139345003D02*
X94885000Y-139345003D01*
X94385000Y-140145003D02*
X94385000Y-139645003D01*
X105385000Y-138845003D02*
X105385000Y-139345003D01*
X104885000Y-144145003D02*
X94885000Y-144145003D01*
X105385000Y-139345003D02*
X104885000Y-139345003D01*
X94385000Y-140145003D02*
X94385000Y-143645003D01*
X93385000Y-135745003D02*
X93385000Y-134145003D01*
X105385000Y-139345003D02*
X105385000Y-139645003D01*
X107235000Y-122595003D02*
X107235000Y-136745003D01*
X94385000Y-139345003D02*
X94385000Y-139645003D01*
X105385000Y-122595003D02*
X107235000Y-122595003D01*
X105385000Y-140145003D02*
X104885000Y-140145003D01*
X105385000Y-139645003D02*
X105385000Y-140145003D01*
X94385000Y-138545003D02*
X105385000Y-138545003D01*
X94385000Y-139345003D02*
X94385000Y-138845003D01*
X104885000Y-140145003D02*
X94885000Y-140145003D01*
X93835000Y-122595003D02*
X93385000Y-122595003D01*
X94885000Y-139345003D02*
X94385000Y-139345003D01*
X105385000Y-138545003D02*
X105385000Y-138845003D01*
X94885000Y-140145003D02*
X94385000Y-140145003D01*
X105385000Y-140145003D02*
X105385000Y-143645003D01*
X94385000Y-138545003D02*
X94385000Y-138845003D01*
X93385000Y-122595003D02*
X93385000Y-123145003D01*
X104885000Y-140145003D02*
G75*
G03*
X105385000Y-139645003I-1J500001D01*
G01*
X94385000Y-138845003D02*
G75*
G03*
X94885000Y-139345003I500001J1D01*
G01*
X104885000Y-139345003D02*
G75*
G03*
X105385000Y-138845003I-1J500001D01*
G01*
X104885000Y-144145003D02*
G75*
G03*
X105385000Y-143645003I-1J500001D01*
G01*
X94385000Y-139645003D02*
G75*
G03*
X94885000Y-140145003I500001J1D01*
G01*
X94385000Y-143645003D02*
G75*
G03*
X94885000Y-144145003I500001J1D01*
G01*
D14*
X103385000Y-121345003D02*
G75*
G03*
X103385000Y-121345003I-250000J0D01*
G01*
D12*
%TO.C,C46*%
X106496253Y-57600000D02*
X105973749Y-57600000D01*
X106496253Y-59070000D02*
X105973749Y-59070000D01*
%TO.C,JP2*%
X33440000Y-54800000D02*
X33440000Y-57600000D01*
X32740000Y-58250000D02*
X32140000Y-58250000D01*
X31440000Y-57600000D02*
X31440000Y-54800000D01*
X32140000Y-54150000D02*
X32740000Y-54150000D01*
X32740000Y-58250000D02*
G75*
G03*
X33440000Y-57550000I1J699999D01*
G01*
X32140000Y-54150000D02*
G75*
G03*
X31440000Y-54850000I-1J-699999D01*
G01*
X33440000Y-54850000D02*
G75*
G03*
X32740000Y-54150000I-699999J1D01*
G01*
X31440000Y-57550000D02*
G75*
G03*
X32140000Y-58250000I699999J-1D01*
G01*
D10*
%TO.C,U5*%
X34928163Y-104632086D02*
X34928163Y-104837086D01*
X34928163Y-104632086D02*
X40428163Y-104632086D01*
X34928163Y-110142086D02*
X34928163Y-109842086D01*
X34928163Y-110142086D02*
X40428163Y-110142086D01*
X40428163Y-104632086D02*
X40428163Y-104932086D01*
X40428163Y-110142086D02*
X40428163Y-109842086D01*
X34928163Y-104837086D02*
X33178163Y-104837086D01*
D12*
%TO.C,R43*%
X106883641Y-113930000D02*
X106576359Y-113930000D01*
X106883641Y-113170000D02*
X106576359Y-113170000D01*
%TO.C,C50*%
X34697836Y-67770000D02*
X34482164Y-67770000D01*
X34697836Y-68490000D02*
X34482164Y-68490000D01*
%TO.C,C45*%
X90336251Y-115515002D02*
X89813747Y-115515002D01*
X90336251Y-116985002D02*
X89813747Y-116985002D01*
D15*
%TO.C,U9*%
X86775000Y-125300000D02*
X70775000Y-125300000D01*
X70775000Y-109300000D02*
X86775000Y-109300000D01*
D14*
X69350000Y-110315000D02*
G75*
G03*
X69350000Y-110315000I-100000J0D01*
G01*
D12*
%TO.C,R8*%
X54340000Y-109356359D02*
X54340000Y-109663641D01*
X55100000Y-109356359D02*
X55100000Y-109663641D01*
%TO.C,C23*%
X54349480Y-107659382D02*
X54133808Y-107659382D01*
X54349480Y-108379382D02*
X54133808Y-108379382D01*
%TO.C,C49*%
X34677836Y-72830000D02*
X34462164Y-72830000D01*
X34677836Y-73550000D02*
X34462164Y-73550000D01*
D13*
%TO.C,J7*%
X53035000Y-133810000D02*
X53035000Y-133180000D01*
X53035000Y-131210000D02*
X53035000Y-131840000D01*
X55635000Y-131210000D02*
X55635000Y-133810000D01*
D12*
%TO.C,R27*%
X44276717Y-124500684D02*
X44059436Y-124717965D01*
X43739316Y-123963283D02*
X43522035Y-124180564D01*
%TO.C,R24*%
X91491358Y-133720002D02*
X91798640Y-133720002D01*
X91491358Y-132960002D02*
X91798640Y-132960002D01*
%TO.C,C38*%
X44020000Y-65287836D02*
X44020000Y-65072164D01*
X44740000Y-65287836D02*
X44740000Y-65072164D01*
%TO.C,C26*%
X37877836Y-78730000D02*
X37662164Y-78730000D01*
X37877836Y-79450000D02*
X37662164Y-79450000D01*
%TO.C,C43*%
X102766252Y-57600000D02*
X102243748Y-57600000D01*
X102766252Y-59070000D02*
X102243748Y-59070000D01*
%TO.C,TP3*%
X85555000Y-57155000D02*
G75*
G03*
X85555000Y-57155000I-700000J0D01*
G01*
%TO.C,C40*%
X46582164Y-72420000D02*
X46797836Y-72420000D01*
X46582164Y-71700000D02*
X46797836Y-71700000D01*
%TO.C,R32*%
X88884999Y-123953643D02*
X88884999Y-123646361D01*
X88124999Y-123953643D02*
X88124999Y-123646361D01*
%TO.C,C10*%
X50360000Y-124472164D02*
X50360000Y-124687836D01*
X51080000Y-124472164D02*
X51080000Y-124687836D01*
%TO.C,R37*%
X26660000Y-59166359D02*
X26660000Y-59473641D01*
X27420000Y-59166359D02*
X27420000Y-59473641D01*
%TO.C,R38*%
X38746359Y-100990000D02*
X39053641Y-100990000D01*
X38746359Y-100230000D02*
X39053641Y-100230000D01*
%TO.C,R15*%
X31796359Y-105020000D02*
X32103641Y-105020000D01*
X31796359Y-105780000D02*
X32103641Y-105780000D01*
%TO.C,R28*%
X50423641Y-132620000D02*
X50116359Y-132620000D01*
X50423641Y-133380000D02*
X50116359Y-133380000D01*
D13*
%TO.C,J2*%
X92604999Y-121430002D02*
X92604999Y-124030002D01*
X90004999Y-121430002D02*
X90004999Y-122060002D01*
X90004999Y-124030002D02*
X90004999Y-123400002D01*
D12*
%TO.C,C29*%
X39130000Y-63107836D02*
X39130000Y-62892164D01*
X38410000Y-63107836D02*
X38410000Y-62892164D01*
%TO.C,U4*%
X54385311Y-118020000D02*
X53925692Y-118479619D01*
X44174689Y-118020000D02*
X44634308Y-117560381D01*
X53925692Y-117560381D02*
X54385311Y-118020000D01*
X49280000Y-112914689D02*
X48820381Y-113374308D01*
X48820381Y-122665692D02*
X49280000Y-123125311D01*
X49739619Y-113374308D02*
X49280000Y-112914689D01*
X44634308Y-118479619D02*
X44174689Y-118020000D01*
%TO.C,C28*%
X99420000Y-120077836D02*
X99420000Y-119862164D01*
X100140000Y-120077836D02*
X100140000Y-119862164D01*
D13*
%TO.C,J4*%
X68625000Y-48520000D02*
X68625000Y-45145000D01*
X65375000Y-48520000D02*
X63320000Y-48520000D01*
X70680000Y-42090000D02*
X63320000Y-42090000D01*
X71750000Y-42090000D02*
X70680000Y-42090000D01*
X16500000Y-30230000D02*
X117500000Y-30230000D01*
X62250000Y-48520000D02*
X62250000Y-42090000D01*
X107500000Y-42090000D02*
X81500000Y-42090000D01*
X65375000Y-45145000D02*
X65375000Y-48520000D01*
X107500000Y-42090000D02*
X107500000Y-53390000D01*
X26500000Y-53390000D02*
X26500000Y-42090000D01*
X81500000Y-42090000D02*
X71750000Y-42090000D01*
X117500000Y-42090000D02*
X107500000Y-42090000D01*
X117500000Y-30230000D02*
X117500000Y-42090000D01*
X52500000Y-42090000D02*
X26500000Y-42090000D01*
X52500000Y-42090000D02*
X52500000Y-53390000D01*
X62250000Y-42090000D02*
X52500000Y-42090000D01*
X117500000Y-14480000D02*
X16500000Y-14480000D01*
X16500000Y-42090000D02*
X16500000Y-30230000D01*
X16500000Y-14480000D02*
X16500000Y-30230000D01*
X26500000Y-42090000D02*
X16500000Y-42090000D01*
X70680000Y-48520000D02*
X68625000Y-48520000D01*
X63320000Y-42090000D02*
X62250000Y-42090000D01*
X107500000Y-53390000D02*
X81500000Y-53390000D01*
X70680000Y-42090000D02*
X70680000Y-48520000D01*
X63320000Y-42090000D02*
X63320000Y-48520000D01*
X71750000Y-42090000D02*
X71750000Y-48520000D01*
X52500000Y-53390000D02*
X26500000Y-53390000D01*
X117500000Y-30230000D02*
X117500000Y-14480000D01*
X81500000Y-53390000D02*
X81500000Y-42090000D01*
X71750000Y-48520000D02*
X70680000Y-48520000D01*
X63320000Y-48520000D02*
X62250000Y-48520000D01*
X67000000Y-43520000D02*
G75*
G03*
X65375000Y-45145000I-2J-1624998D01*
G01*
X68625000Y-45145000D02*
G75*
G03*
X67000000Y-43520000I-1624998J2D01*
G01*
D12*
%TO.C,Q4*%
X76625000Y-55014999D02*
X73175000Y-55014999D01*
X76625000Y-60134999D02*
X74675000Y-60134999D01*
X76625000Y-60134999D02*
X78575000Y-60134999D01*
X76625000Y-55014999D02*
X78575000Y-55014999D01*
%TO.C,C39*%
X79760000Y-73466252D02*
X79760000Y-72943748D01*
X81230000Y-73466252D02*
X81230000Y-72943748D01*
%TO.C,D4*%
X76822498Y-82340001D02*
X74537498Y-82340001D01*
X74537498Y-82340001D02*
X74537498Y-83810001D01*
X74537498Y-83810001D02*
X76822498Y-83810001D01*
%TO.C,C13*%
X48502164Y-124750000D02*
X48717836Y-124750000D01*
X48502164Y-124030000D02*
X48717836Y-124030000D01*
%TO.C,R4*%
X55160000Y-128156359D02*
X55160000Y-128463641D01*
X55920000Y-128156359D02*
X55920000Y-128463641D01*
%TO.C,U8*%
X78905000Y-69165000D02*
X76955000Y-69165000D01*
X78905000Y-64045000D02*
X80855000Y-64045000D01*
X78905000Y-64045000D02*
X76955000Y-64045000D01*
X78905000Y-69165000D02*
X82355000Y-69165000D01*
%TO.C,TP4*%
X70580000Y-79620000D02*
G75*
G03*
X70580000Y-79620000I-700000J0D01*
G01*
%TO.C,R44*%
X94716359Y-120140000D02*
X95023641Y-120140000D01*
X94716359Y-119380000D02*
X95023641Y-119380000D01*
D13*
%TO.C,SW3*%
X63550000Y-125140000D02*
X63550000Y-123640000D01*
X60550000Y-123640000D02*
X60550000Y-125140000D01*
X60550000Y-125140000D02*
X63550000Y-125140000D01*
D16*
X59050000Y-126140000D02*
X65050000Y-126140000D01*
X65050000Y-122640000D02*
X59050000Y-122640000D01*
D13*
X63550000Y-123640000D02*
X60550000Y-123640000D01*
D12*
%TO.C,R19*%
X72754757Y-80827501D02*
X72280241Y-80827501D01*
X72754757Y-81872501D02*
X72280241Y-81872501D01*
%TO.C,R40*%
X106883641Y-114210000D02*
X106576359Y-114210000D01*
X106883641Y-114970000D02*
X106576359Y-114970000D01*
%TO.C,R12*%
X32123641Y-106370000D02*
X31816359Y-106370000D01*
X32123641Y-107130000D02*
X31816359Y-107130000D01*
%TO.C,R6*%
X41116359Y-123110000D02*
X41423641Y-123110000D01*
X41116359Y-122350000D02*
X41423641Y-122350000D01*
%TO.C,G\u002A\u002A\u002A*%
G36*
X34186739Y-93537018D02*
G01*
X34181740Y-93553079D01*
X34167391Y-93595265D01*
X34144660Y-93660816D01*
X34114519Y-93746968D01*
X34077936Y-93850959D01*
X34035883Y-93970028D01*
X33989329Y-94101412D01*
X33939244Y-94242349D01*
X33924939Y-94282528D01*
X33864383Y-94452595D01*
X33813432Y-94596373D01*
X33771478Y-94716499D01*
X33737912Y-94815608D01*
X33712125Y-94896338D01*
X33693506Y-94961326D01*
X33681447Y-95013206D01*
X33675339Y-95054618D01*
X33674572Y-95088195D01*
X33678537Y-95116576D01*
X33686625Y-95142397D01*
X33698227Y-95168294D01*
X33712732Y-95196904D01*
X33713356Y-95198126D01*
X33761902Y-95272033D01*
X33833232Y-95351755D01*
X33921669Y-95431656D01*
X34021540Y-95506099D01*
X34027351Y-95509988D01*
X34200203Y-95612141D01*
X34401187Y-95707998D01*
X34628363Y-95797322D01*
X34879793Y-95879875D01*
X35153536Y-95955421D01*
X35447653Y-96023723D01*
X35760204Y-96084544D01*
X36089249Y-96137646D01*
X36432849Y-96182793D01*
X36789064Y-96219749D01*
X37155955Y-96248274D01*
X37531581Y-96268134D01*
X37914003Y-96279091D01*
X38301282Y-96280907D01*
X38691478Y-96273346D01*
X39082651Y-96256171D01*
X39472862Y-96229145D01*
X39725147Y-96206175D01*
X40099347Y-96163361D01*
X40455038Y-96111694D01*
X40790844Y-96051544D01*
X41105392Y-95983287D01*
X41397307Y-95907293D01*
X41665213Y-95823938D01*
X41907737Y-95733592D01*
X42123504Y-95636630D01*
X42311139Y-95533424D01*
X42388040Y-95483672D01*
X42480478Y-95410950D01*
X42561719Y-95328544D01*
X42627881Y-95241752D01*
X42675080Y-95155870D01*
X42699434Y-95076193D01*
X42701616Y-95055966D01*
X42697392Y-95027509D01*
X42682870Y-94972719D01*
X42657925Y-94891216D01*
X42622435Y-94782626D01*
X42576277Y-94646572D01*
X42519326Y-94482677D01*
X42451461Y-94290564D01*
X42446726Y-94277250D01*
X42396457Y-94135254D01*
X42349804Y-94002077D01*
X42307702Y-93880497D01*
X42271091Y-93773286D01*
X42240907Y-93683221D01*
X42218088Y-93613076D01*
X42203571Y-93565627D01*
X42198295Y-93543648D01*
X42198474Y-93542500D01*
X42214118Y-93545491D01*
X42256451Y-93556799D01*
X42322867Y-93575630D01*
X42410763Y-93601190D01*
X42517535Y-93632684D01*
X42640579Y-93669317D01*
X42777291Y-93710296D01*
X42925066Y-93754826D01*
X43081301Y-93802113D01*
X43243392Y-93851362D01*
X43408735Y-93901779D01*
X43574725Y-93952570D01*
X43738759Y-94002940D01*
X43898233Y-94052094D01*
X44050543Y-94099239D01*
X44193084Y-94143580D01*
X44323253Y-94184323D01*
X44438446Y-94220673D01*
X44536059Y-94251836D01*
X44613487Y-94277017D01*
X44668126Y-94295423D01*
X44678043Y-94298916D01*
X44795706Y-94344768D01*
X44921207Y-94400305D01*
X45047077Y-94461721D01*
X45165846Y-94525207D01*
X45270047Y-94586956D01*
X45349891Y-94641406D01*
X45457806Y-94729271D01*
X45541359Y-94813057D01*
X45605364Y-94898161D01*
X45648098Y-94975788D01*
X45671961Y-95030112D01*
X45684945Y-95074480D01*
X45689505Y-95122134D01*
X45688095Y-95186317D01*
X45687896Y-95190522D01*
X45678473Y-95281721D01*
X45658597Y-95354336D01*
X45646174Y-95382727D01*
X45602436Y-95451210D01*
X45537135Y-95526437D01*
X45456578Y-95602336D01*
X45367074Y-95672830D01*
X45297126Y-95718945D01*
X45272096Y-95731864D01*
X45220876Y-95756464D01*
X45145288Y-95791923D01*
X45047156Y-95837419D01*
X44928303Y-95892134D01*
X44790552Y-95955244D01*
X44635727Y-96025930D01*
X44465649Y-96103370D01*
X44282144Y-96186743D01*
X44087033Y-96275229D01*
X43882140Y-96368007D01*
X43669288Y-96464255D01*
X43450300Y-96563153D01*
X43227000Y-96663880D01*
X43001209Y-96765614D01*
X42774753Y-96867535D01*
X42549453Y-96968822D01*
X42327133Y-97068654D01*
X42109616Y-97166211D01*
X41898726Y-97260670D01*
X41696285Y-97351211D01*
X41504116Y-97437014D01*
X41324043Y-97517257D01*
X41157888Y-97591119D01*
X41007476Y-97657779D01*
X40874628Y-97716417D01*
X40761169Y-97766212D01*
X40668921Y-97806342D01*
X40599708Y-97835987D01*
X40555352Y-97854325D01*
X40551560Y-97855815D01*
X40293048Y-97945902D01*
X40006882Y-98025890D01*
X39694486Y-98095454D01*
X39357283Y-98154271D01*
X39064275Y-98194132D01*
X38990812Y-98200900D01*
X38891601Y-98206996D01*
X38771565Y-98212354D01*
X38635625Y-98216907D01*
X38488704Y-98220587D01*
X38335724Y-98223329D01*
X38181608Y-98225064D01*
X38031278Y-98225727D01*
X37889657Y-98225250D01*
X37761667Y-98223567D01*
X37652229Y-98220611D01*
X37566267Y-98216315D01*
X37545797Y-98214755D01*
X37196624Y-98177680D01*
X36860172Y-98127052D01*
X36539836Y-98063611D01*
X36239012Y-97988100D01*
X35961096Y-97901260D01*
X35758901Y-97824691D01*
X35726642Y-97810871D01*
X35668645Y-97785460D01*
X35586782Y-97749298D01*
X35482930Y-97703226D01*
X35358961Y-97648086D01*
X35216751Y-97584717D01*
X35058173Y-97513961D01*
X34885104Y-97436659D01*
X34699415Y-97353651D01*
X34502984Y-97265778D01*
X34297683Y-97173881D01*
X34085387Y-97078802D01*
X33867971Y-96981379D01*
X33647309Y-96882456D01*
X33425275Y-96782872D01*
X33203745Y-96683468D01*
X32984591Y-96585085D01*
X32769690Y-96488564D01*
X32560915Y-96394746D01*
X32360141Y-96304472D01*
X32169242Y-96218582D01*
X31990092Y-96137917D01*
X31824567Y-96063318D01*
X31674540Y-95995626D01*
X31541886Y-95935682D01*
X31428480Y-95884327D01*
X31336195Y-95842400D01*
X31266907Y-95810745D01*
X31222489Y-95790200D01*
X31207541Y-95783052D01*
X31070277Y-95705273D01*
X30948036Y-95617921D01*
X30845155Y-95524714D01*
X30765968Y-95429371D01*
X30733577Y-95376411D01*
X30714654Y-95334248D01*
X30703628Y-95289766D01*
X30698604Y-95232538D01*
X30697643Y-95178671D01*
X30698941Y-95108307D01*
X30704856Y-95056580D01*
X30717772Y-95011535D01*
X30740070Y-94961215D01*
X30741611Y-94958066D01*
X30795035Y-94872690D01*
X30872090Y-94782476D01*
X30967492Y-94692834D01*
X31075959Y-94609172D01*
X31095245Y-94595983D01*
X31187786Y-94538987D01*
X31300670Y-94477486D01*
X31424879Y-94415858D01*
X31551395Y-94358481D01*
X31671198Y-94309736D01*
X31724964Y-94290243D01*
X31775195Y-94273486D01*
X31848560Y-94249789D01*
X31942465Y-94219944D01*
X32054312Y-94184747D01*
X32181508Y-94144991D01*
X32321456Y-94101470D01*
X32471562Y-94054980D01*
X32629229Y-94006312D01*
X32791863Y-93956263D01*
X32956868Y-93905625D01*
X33121650Y-93855194D01*
X33283611Y-93805762D01*
X33440158Y-93758125D01*
X33588694Y-93713076D01*
X33726625Y-93671409D01*
X33851354Y-93633919D01*
X33960288Y-93601399D01*
X34050829Y-93574644D01*
X34120384Y-93554448D01*
X34166356Y-93541604D01*
X34186150Y-93536908D01*
X34186739Y-93537018D01*
G37*
G36*
X40775841Y-89521298D02*
G01*
X40783460Y-89542716D01*
X40800668Y-89590998D01*
X40826742Y-89664119D01*
X40860958Y-89760051D01*
X40902595Y-89876769D01*
X40950929Y-90012245D01*
X41005237Y-90164453D01*
X41064796Y-90331367D01*
X41128883Y-90510959D01*
X41196775Y-90701205D01*
X41267749Y-90900076D01*
X41309552Y-91017204D01*
X41381606Y-91219288D01*
X41450669Y-91413370D01*
X41516047Y-91597480D01*
X41577049Y-91769649D01*
X41632980Y-91927908D01*
X41683147Y-92070289D01*
X41726859Y-92194821D01*
X41763420Y-92299535D01*
X41792140Y-92382464D01*
X41812323Y-92441638D01*
X41823278Y-92475087D01*
X41825133Y-92481999D01*
X41818883Y-92505506D01*
X41802567Y-92547139D01*
X41781430Y-92594191D01*
X41720512Y-92689186D01*
X41630316Y-92780699D01*
X41512081Y-92868356D01*
X41367049Y-92951782D01*
X41196459Y-93030604D01*
X41001551Y-93104447D01*
X40783566Y-93172936D01*
X40543744Y-93235698D01*
X40283326Y-93292357D01*
X40003551Y-93342541D01*
X39705659Y-93385874D01*
X39390891Y-93421982D01*
X39060488Y-93450491D01*
X38910894Y-93460506D01*
X38838202Y-93463849D01*
X38740493Y-93466712D01*
X38623012Y-93469075D01*
X38491008Y-93470919D01*
X38349727Y-93472221D01*
X38204416Y-93472963D01*
X38060323Y-93473123D01*
X37922694Y-93472681D01*
X37796777Y-93471617D01*
X37687819Y-93469910D01*
X37601066Y-93467541D01*
X37561135Y-93465752D01*
X37218725Y-93441841D01*
X36888730Y-93409240D01*
X36572940Y-93368381D01*
X36273143Y-93319695D01*
X35991129Y-93263612D01*
X35728686Y-93200565D01*
X35487604Y-93130984D01*
X35269673Y-93055299D01*
X35076680Y-92973944D01*
X34910415Y-92887347D01*
X34772668Y-92795941D01*
X34768709Y-92792909D01*
X34673497Y-92705704D01*
X34605114Y-92612022D01*
X34570074Y-92530820D01*
X34567213Y-92520308D01*
X34565397Y-92508966D01*
X34565191Y-92495087D01*
X34567160Y-92476963D01*
X34571867Y-92452885D01*
X34579879Y-92421146D01*
X34591759Y-92380036D01*
X34608071Y-92327849D01*
X34629381Y-92262875D01*
X34656252Y-92183407D01*
X34689250Y-92087737D01*
X34728939Y-91974157D01*
X34775883Y-91840958D01*
X34830647Y-91686432D01*
X34893796Y-91508872D01*
X34965894Y-91306569D01*
X35047506Y-91077815D01*
X35085397Y-90971642D01*
X35171233Y-90731169D01*
X35247378Y-90517998D01*
X35314444Y-90330535D01*
X35373044Y-90167187D01*
X35423790Y-90026362D01*
X35467293Y-89906466D01*
X35504167Y-89805906D01*
X35535023Y-89723090D01*
X35560474Y-89656425D01*
X35581131Y-89604317D01*
X35597608Y-89565173D01*
X35610515Y-89537401D01*
X35620466Y-89519407D01*
X35628072Y-89509598D01*
X35633946Y-89506382D01*
X35638700Y-89508165D01*
X35642947Y-89513355D01*
X35644735Y-89516182D01*
X35703201Y-89588534D01*
X35788366Y-89661395D01*
X35896390Y-89732375D01*
X36023433Y-89799088D01*
X36165654Y-89859145D01*
X36237031Y-89884522D01*
X36475077Y-89954269D01*
X36737732Y-90013154D01*
X37020873Y-90061060D01*
X37320378Y-90097870D01*
X37632123Y-90123469D01*
X37951985Y-90137739D01*
X38275841Y-90140565D01*
X38599567Y-90131829D01*
X38919042Y-90111416D01*
X39230142Y-90079209D01*
X39528743Y-90035091D01*
X39785169Y-89984710D01*
X39993826Y-89932412D01*
X40180572Y-89873588D01*
X40343859Y-89808980D01*
X40482137Y-89739331D01*
X40593859Y-89665381D01*
X40677476Y-89587873D01*
X40713563Y-89539887D01*
X40757724Y-89470023D01*
X40775841Y-89521298D01*
G37*
G36*
X37720167Y-83637335D02*
G01*
X37743281Y-83657798D01*
X37773113Y-83677707D01*
X37822398Y-83700854D01*
X37880961Y-83722517D01*
X37886437Y-83724263D01*
X37938385Y-83739116D01*
X37987916Y-83749145D01*
X38043100Y-83755202D01*
X38112005Y-83758141D01*
X38202702Y-83758815D01*
X38213007Y-83758792D01*
X38361982Y-83753693D01*
X38481819Y-83739338D01*
X38572481Y-83715736D01*
X38633930Y-83682892D01*
X38639578Y-83678117D01*
X38663057Y-83662481D01*
X38677778Y-83670303D01*
X38679617Y-83673100D01*
X38686284Y-83689905D01*
X38702553Y-83733763D01*
X38727757Y-83802817D01*
X38761230Y-83895213D01*
X38802305Y-84009095D01*
X38850318Y-84142609D01*
X38904602Y-84293899D01*
X38964489Y-84461110D01*
X39029316Y-84642387D01*
X39098415Y-84835875D01*
X39171120Y-85039719D01*
X39246765Y-85252063D01*
X39270001Y-85317337D01*
X39848123Y-86941735D01*
X39821757Y-86997297D01*
X39776434Y-87059723D01*
X39702114Y-87118877D01*
X39600357Y-87174152D01*
X39472729Y-87224938D01*
X39320790Y-87270627D01*
X39146104Y-87310611D01*
X38950232Y-87344281D01*
X38919172Y-87348742D01*
X38860766Y-87355651D01*
X38781967Y-87363165D01*
X38688699Y-87370897D01*
X38586888Y-87378462D01*
X38482460Y-87385475D01*
X38381340Y-87391550D01*
X38289453Y-87396300D01*
X38212725Y-87399342D01*
X38157081Y-87400288D01*
X38136316Y-87399692D01*
X38110456Y-87398156D01*
X38060378Y-87395381D01*
X37992498Y-87391716D01*
X37913235Y-87387510D01*
X37883237Y-87385935D01*
X37661576Y-87369745D01*
X37454176Y-87345465D01*
X37262985Y-87313695D01*
X37089950Y-87275036D01*
X36937021Y-87230086D01*
X36806145Y-87179447D01*
X36699270Y-87123719D01*
X36618346Y-87063502D01*
X36565320Y-86999396D01*
X36553816Y-86976399D01*
X36550662Y-86967909D01*
X36548602Y-86958224D01*
X36548173Y-86945730D01*
X36549912Y-86928814D01*
X36554355Y-86905861D01*
X36562041Y-86875258D01*
X36573504Y-86835392D01*
X36589283Y-86784648D01*
X36609914Y-86721412D01*
X36635934Y-86644072D01*
X36667879Y-86551014D01*
X36706287Y-86440623D01*
X36751694Y-86311286D01*
X36804638Y-86161389D01*
X36865654Y-85989319D01*
X36935281Y-85793461D01*
X37014054Y-85572203D01*
X37102510Y-85323930D01*
X37117951Y-85280601D01*
X37194756Y-85065129D01*
X37268691Y-84857815D01*
X37339106Y-84660480D01*
X37405347Y-84474945D01*
X37466765Y-84303032D01*
X37522707Y-84146561D01*
X37572521Y-84007354D01*
X37615557Y-83887232D01*
X37651163Y-83788017D01*
X37678686Y-83711529D01*
X37697477Y-83659590D01*
X37706882Y-83634020D01*
X37707866Y-83631590D01*
X37720167Y-83637335D01*
G37*
%TO.C,R22*%
X50140000Y-133643641D02*
X50140000Y-133336359D01*
X49380000Y-133643641D02*
X49380000Y-133336359D01*
D13*
%TO.C,SW2*%
X63540000Y-127910000D02*
X60540000Y-127910000D01*
D16*
X59040000Y-130410000D02*
X65040000Y-130410000D01*
D13*
X60540000Y-127910000D02*
X60540000Y-129410000D01*
D16*
X65040000Y-126910000D02*
X59040000Y-126910000D01*
D13*
X60540000Y-129410000D02*
X63540000Y-129410000D01*
X63540000Y-129410000D02*
X63540000Y-127910000D01*
D12*
%TO.C,R10*%
X32106805Y-108492087D02*
X31799523Y-108492087D01*
X32106805Y-107732087D02*
X31799523Y-107732087D01*
%TO.C,D2*%
X74527498Y-78965000D02*
X74527498Y-80435000D01*
X76812498Y-78965000D02*
X74527498Y-78965000D01*
X74527498Y-80435000D02*
X76812498Y-80435000D01*
%TO.C,R33*%
X88882499Y-124663861D02*
X88882499Y-124971143D01*
X88122499Y-124663861D02*
X88122499Y-124971143D01*
%TO.C,R23*%
X82752258Y-63617500D02*
X82277742Y-63617500D01*
X82752258Y-62572500D02*
X82277742Y-62572500D01*
%TO.C,R35*%
X77007742Y-61792500D02*
X77482258Y-61792500D01*
X77007742Y-62837500D02*
X77482258Y-62837500D01*
%TO.C,R17*%
X51860000Y-102503641D02*
X51860000Y-102196359D01*
X51100000Y-102503641D02*
X51100000Y-102196359D01*
%TO.C,R36*%
X33802679Y-66526359D02*
X33802679Y-66833641D01*
X33042679Y-66526359D02*
X33042679Y-66833641D01*
%TO.C,R42*%
X45053641Y-63950000D02*
X44746359Y-63950000D01*
X45053641Y-63190000D02*
X44746359Y-63190000D01*
D10*
%TO.C,U7*%
X29480000Y-59180000D02*
X27730000Y-59180000D01*
X34980000Y-58975000D02*
X34980000Y-59275000D01*
X29480000Y-64485000D02*
X29480000Y-64185000D01*
X34980000Y-64485000D02*
X34980000Y-64185000D01*
X29480000Y-58975000D02*
X29480000Y-59180000D01*
X29480000Y-58975000D02*
X34980000Y-58975000D01*
X29480000Y-64485000D02*
X34980000Y-64485000D01*
D12*
%TO.C,R20*%
X72754756Y-82552501D02*
X72280240Y-82552501D01*
X72754756Y-83597501D02*
X72280240Y-83597501D01*
%TO.C,R9*%
X43359522Y-106382087D02*
X43666804Y-106382087D01*
X43359522Y-107142087D02*
X43666804Y-107142087D01*
%TO.C,Q3*%
X76624999Y-54815001D02*
X74674999Y-54815001D01*
X76624999Y-49695001D02*
X73174999Y-49695001D01*
X76624999Y-54815001D02*
X78574999Y-54815001D01*
X76624999Y-49695001D02*
X78574999Y-49695001D01*
%TO.C,C4*%
X43425328Y-105117088D02*
X43641000Y-105117088D01*
X43425328Y-105837088D02*
X43641000Y-105837088D01*
%TO.C,R45*%
X103743641Y-119380000D02*
X103436359Y-119380000D01*
X103743641Y-120140000D02*
X103436359Y-120140000D01*
%TO.C,R41*%
X45053641Y-62900000D02*
X44746359Y-62900000D01*
X45053641Y-62140000D02*
X44746359Y-62140000D01*
%TO.C,C14*%
X50039998Y-111387834D02*
X50039998Y-111172162D01*
X49319998Y-111387834D02*
X49319998Y-111172162D01*
%TO.C,R18*%
X72744757Y-79137500D02*
X72270241Y-79137500D01*
X72744757Y-80182500D02*
X72270241Y-80182500D01*
%TO.C,R21*%
X55313642Y-105047696D02*
X55006360Y-105047696D01*
X55313642Y-104287696D02*
X55006360Y-104287696D01*
%TO.C,C48*%
X40680000Y-76852164D02*
X40680000Y-77067836D01*
X39960000Y-76852164D02*
X39960000Y-77067836D01*
%TO.C,R7*%
X46320060Y-124937341D02*
X46537341Y-124720060D01*
X45782659Y-124399940D02*
X45999940Y-124182659D01*
%TO.C,C7*%
X54389048Y-114868917D02*
X54541551Y-114716414D01*
X53879931Y-114359800D02*
X54032434Y-114207297D01*
%TO.C,R30*%
X85968641Y-55044999D02*
X85661359Y-55044999D01*
X85968641Y-55804999D02*
X85661359Y-55804999D01*
%TO.C,C12*%
X51180000Y-124472164D02*
X51180000Y-124687836D01*
X51900000Y-124472164D02*
X51900000Y-124687836D01*
%TO.C,R25*%
X55336359Y-124170000D02*
X55643641Y-124170000D01*
X55336359Y-124930000D02*
X55643641Y-124930000D01*
%TO.C,R16*%
X52150000Y-102503641D02*
X52150000Y-102196359D01*
X52910000Y-102503641D02*
X52910000Y-102196359D01*
%TO.C,C52*%
X46592164Y-67690000D02*
X46807836Y-67690000D01*
X46592164Y-68410000D02*
X46807836Y-68410000D01*
%TO.C,C31*%
X41710000Y-76852164D02*
X41710000Y-77067836D01*
X40990000Y-76852164D02*
X40990000Y-77067836D01*
%TO.C,C19*%
X56056306Y-108365240D02*
X56271978Y-108365240D01*
X56056306Y-107645240D02*
X56271978Y-107645240D01*
%TO.C,C37*%
X55567836Y-125970000D02*
X55352164Y-125970000D01*
X55567836Y-125250000D02*
X55352164Y-125250000D01*
%TO.C,C17*%
X50397836Y-128320000D02*
X50182164Y-128320000D01*
X50397836Y-127600000D02*
X50182164Y-127600000D01*
%TO.C,C25*%
X84290000Y-66716252D02*
X84290000Y-66193748D01*
X85760000Y-66716252D02*
X85760000Y-66193748D01*
%TO.C,TP2*%
X54500000Y-124550000D02*
G75*
G03*
X54500000Y-124550000I-700000J0D01*
G01*
%TO.C,C51*%
X40990000Y-63107836D02*
X40990000Y-62892164D01*
X40270000Y-63107836D02*
X40270000Y-62892164D01*
%TO.C,Y3*%
X57200001Y-107297695D02*
X57200001Y-105497695D01*
X55800001Y-107347695D02*
X54700001Y-107347695D01*
X55800001Y-105447695D02*
X54700001Y-105447695D01*
%TO.C,R11*%
X43359523Y-107642086D02*
X43666805Y-107642086D01*
X43359523Y-108402086D02*
X43666805Y-108402086D01*
D10*
%TO.C,U6*%
X35315000Y-58565000D02*
X40365000Y-58565000D01*
X35315000Y-53515000D02*
X40365000Y-53515000D01*
X35315000Y-53565000D02*
X35315000Y-53515000D01*
X35315000Y-58565000D02*
X35315000Y-58515000D01*
X40365000Y-53565000D02*
X40365000Y-53515000D01*
X40365000Y-58565000D02*
X40365000Y-58515000D01*
D17*
X34115000Y-54390000D02*
G75*
G03*
X34115000Y-54390000I-125000J0D01*
G01*
D12*
%TO.C,R13*%
X43359521Y-108882088D02*
X43666803Y-108882088D01*
X43359521Y-109642088D02*
X43666803Y-109642088D01*
%TO.C,C11*%
X52730000Y-124472164D02*
X52730000Y-124687836D01*
X52010000Y-124472164D02*
X52010000Y-124687836D01*
%TO.C,C35*%
X45770000Y-65287836D02*
X45770000Y-65072164D01*
X45050000Y-65287836D02*
X45050000Y-65072164D01*
%TO.C,TP7*%
X72765000Y-77585000D02*
G75*
G03*
X72765000Y-77585000I-700000J0D01*
G01*
%TO.C,D3*%
X76822498Y-80654999D02*
X74537498Y-80654999D01*
X74537498Y-80654999D02*
X74537498Y-82124999D01*
X74537498Y-82124999D02*
X76822498Y-82124999D01*
%TO.C,C41*%
X77690000Y-73466252D02*
X77690000Y-72943748D01*
X79160000Y-73466252D02*
X79160000Y-72943748D01*
%TO.C,J8*%
X25720000Y-118170000D02*
X26266529Y-118170000D01*
X27393471Y-118170000D02*
X27940000Y-118170000D01*
X25720000Y-124455000D02*
X26522470Y-124455000D01*
X25720000Y-118170000D02*
X25720000Y-124455000D01*
X25720000Y-117410000D02*
X25720000Y-116650000D01*
X27137530Y-124455000D02*
X27940000Y-124455000D01*
X27940000Y-118170000D02*
X27940000Y-124455000D01*
X25720000Y-116650000D02*
X26830000Y-116650000D01*
%TO.C,TC2*%
X32870000Y-128700000D02*
X33505000Y-128700000D01*
X33505000Y-128700000D02*
X33505000Y-129335000D01*
%TO.C,U10*%
X93516500Y-65225000D02*
X93516500Y-62915000D01*
X103436500Y-67535000D02*
X103161500Y-67535000D01*
X103436500Y-65225000D02*
X103436500Y-62915000D01*
X93516500Y-67535000D02*
X93791500Y-67535000D01*
X103436500Y-62915000D02*
X103161500Y-62915000D01*
X93516500Y-62915000D02*
X93791500Y-62915000D01*
X103161500Y-62915000D02*
X103161500Y-61625000D01*
X93516500Y-65225000D02*
X93516500Y-67535000D01*
X103436500Y-65225000D02*
X103436500Y-67535000D01*
%TO.C,J5*%
X105760000Y-87460000D02*
X105760000Y-110380000D01*
X103100000Y-110380000D02*
X105760000Y-110380000D01*
X103100000Y-87460000D02*
X103100000Y-110380000D01*
X103100000Y-84860000D02*
X104430000Y-84860000D01*
X103100000Y-87460000D02*
X105760000Y-87460000D01*
X103100000Y-86190000D02*
X103100000Y-84860000D01*
%TO.C,R14*%
X43103641Y-58360000D02*
X42796359Y-58360000D01*
X43103641Y-59120000D02*
X42796359Y-59120000D01*
%TO.C,C42*%
X93076252Y-70739999D02*
X92553748Y-70739999D01*
X93076252Y-69269999D02*
X92553748Y-69269999D01*
%TO.C,C44*%
X95056252Y-57600000D02*
X94533748Y-57600000D01*
X95056252Y-59070000D02*
X94533748Y-59070000D01*
%TO.C,C15*%
X48512164Y-125060000D02*
X48727836Y-125060000D01*
X48512164Y-125780000D02*
X48727836Y-125780000D01*
%TO.C,Y2*%
X44917487Y-129720940D02*
X47250940Y-127387487D01*
X47250940Y-127387487D02*
X44422513Y-124559060D01*
%TO.C,C6*%
X29521252Y-55485000D02*
X28998748Y-55485000D01*
X29521252Y-54015000D02*
X28998748Y-54015000D01*
%TO.C,R3*%
X43724999Y-56092936D02*
X43724999Y-56547064D01*
X42254999Y-56092936D02*
X42254999Y-56547064D01*
%TO.C,C9*%
X38410000Y-60182164D02*
X38410000Y-60397836D01*
X39130000Y-60182164D02*
X39130000Y-60397836D01*
D13*
%TO.C,SW4*%
X32172679Y-72990000D02*
X32172679Y-69990000D01*
X32172679Y-69990000D02*
X30672679Y-69990000D01*
X30672679Y-72990000D02*
X32172679Y-72990000D01*
D16*
X29672679Y-68490000D02*
X29672679Y-74490000D01*
D13*
X30672679Y-69990000D02*
X30672679Y-72990000D01*
D16*
X33172679Y-74490000D02*
X33172679Y-68490000D01*
D12*
%TO.C,C8*%
X42282836Y-120110000D02*
X42067164Y-120110000D01*
X42282836Y-120830000D02*
X42067164Y-120830000D01*
%TO.C,Q2*%
X76625000Y-49475000D02*
X78575000Y-49475000D01*
X76625000Y-44355000D02*
X78575000Y-44355000D01*
X76625000Y-49475000D02*
X74675000Y-49475000D01*
X76625000Y-44355000D02*
X73175000Y-44355000D01*
%TO.C,C20*%
X50347836Y-131640000D02*
X50132164Y-131640000D01*
X50347836Y-132360000D02*
X50132164Y-132360000D01*
%TO.C,U11*%
X44100000Y-74660000D02*
X44100000Y-74010000D01*
X43450000Y-74660000D02*
X44100000Y-74660000D01*
X44100000Y-67440000D02*
X44100000Y-68090000D01*
X37530000Y-74660000D02*
X36880000Y-74660000D01*
X36880000Y-74660000D02*
X36880000Y-74010000D01*
X37530000Y-67440000D02*
X36880000Y-67440000D01*
X43450000Y-67440000D02*
X44100000Y-67440000D01*
%TD*%
%LPC*%
D18*
%TO.C,R39*%
X92530000Y-71860000D03*
X93550000Y-71860000D03*
%TD*%
D19*
%TO.C,D5*%
X91032500Y-55180000D03*
X88232500Y-55180000D03*
%TD*%
D20*
%TO.C,C32*%
X83955001Y-70325000D03*
X82055001Y-70325000D03*
%TD*%
D21*
%TO.C,C24*%
X39230000Y-79100000D03*
X40190000Y-79100000D03*
%TD*%
D22*
%TO.C,L6*%
X73950000Y-70480000D03*
X73950000Y-75180000D03*
%TD*%
D23*
%TO.C,C5*%
X53990000Y-55364999D03*
X53990000Y-57264999D03*
%TD*%
D24*
%TO.C,C22*%
X42377559Y-127881163D03*
X41698737Y-128559985D03*
%TD*%
D25*
%TO.C,C16*%
X48680000Y-111760000D03*
X48680000Y-110800000D03*
%TD*%
D26*
%TO.C,TC3*%
X42570000Y-78700000D03*
X43586000Y-83780000D03*
X41554000Y-83780000D03*
D27*
X41935000Y-79970000D03*
X43205000Y-79970000D03*
X41935000Y-81240000D03*
X43205000Y-81240000D03*
X41935000Y-82510000D03*
X43205000Y-82510000D03*
%TD*%
D28*
%TO.C,U3*%
X50270000Y-58230000D03*
X50270000Y-56960000D03*
X50270000Y-55690000D03*
X50270000Y-54420000D03*
X45320000Y-54420000D03*
X45320000Y-55690000D03*
X45320000Y-56960000D03*
X45320000Y-58230000D03*
%TD*%
D21*
%TO.C,C21*%
X46850000Y-130980000D03*
X47810000Y-130980000D03*
%TD*%
D29*
%TO.C,C18*%
X46580589Y-125610589D03*
X47259411Y-126289411D03*
%TD*%
D30*
%TO.C,R34*%
X72650000Y-62325000D03*
X74300000Y-62325000D03*
%TD*%
D31*
%TO.C,J6*%
X26850000Y-126890000D03*
D32*
X26850000Y-128160000D03*
X26850000Y-129430000D03*
X26850000Y-130700000D03*
X26850000Y-131970000D03*
X26850000Y-133240000D03*
%TD*%
D33*
%TO.C,C47*%
X89745000Y-63074999D03*
X89745000Y-67474999D03*
%TD*%
D34*
%TO.C,R26*%
X43670624Y-123379376D03*
X42949376Y-124100624D03*
%TD*%
D35*
%TO.C,Y4*%
X39500000Y-80520000D03*
X37300000Y-80520000D03*
X37300000Y-82220000D03*
X39500000Y-82220000D03*
%TD*%
D25*
%TO.C,C33*%
X42330000Y-65660000D03*
X42330000Y-64700000D03*
%TD*%
D36*
%TO.C,R31*%
X84355000Y-55424999D03*
X83335000Y-55424999D03*
%TD*%
D37*
%TO.C,J3*%
X103085000Y-122845003D03*
X101985000Y-122845003D03*
X100885000Y-122845003D03*
X99785000Y-122845003D03*
X98685000Y-122845003D03*
X97585000Y-122845003D03*
X96485000Y-122845003D03*
X95385000Y-122845003D03*
D38*
X104635000Y-122845003D03*
D39*
X106985000Y-137945003D03*
D40*
X93485000Y-137495003D03*
D38*
X93485000Y-127145003D03*
D41*
X93485000Y-133345003D03*
D37*
X94435000Y-122845003D03*
%TD*%
D20*
%TO.C,C46*%
X107185001Y-58335000D03*
X105285001Y-58335000D03*
%TD*%
D42*
%TO.C,JP2*%
X32440000Y-57500000D03*
D43*
X32440000Y-56200000D03*
D44*
X32440000Y-54900000D03*
%TD*%
D45*
%TO.C,U5*%
X34028163Y-105482086D03*
X34028163Y-106752086D03*
X34028163Y-108022086D03*
X34028163Y-109292086D03*
X41328163Y-109292086D03*
X41328163Y-108022086D03*
X41328163Y-106752086D03*
X41328163Y-105482086D03*
%TD*%
D36*
%TO.C,R43*%
X107240000Y-113550000D03*
X106220000Y-113550000D03*
%TD*%
D46*
%TO.C,C50*%
X35070000Y-68130000D03*
X34110000Y-68130000D03*
%TD*%
D26*
%TO.C,TC4*%
X34140000Y-121754000D03*
X34140000Y-123786000D03*
X29060000Y-122770000D03*
D27*
X30330000Y-123405000D03*
X30330000Y-122135000D03*
X31600000Y-123405000D03*
X31600000Y-122135000D03*
X32870000Y-123405000D03*
X32870000Y-122135000D03*
%TD*%
D20*
%TO.C,C45*%
X91024999Y-116250002D03*
X89124999Y-116250002D03*
%TD*%
D47*
%TO.C,U9*%
X71275000Y-110300000D03*
X71275000Y-112300000D03*
X71275000Y-114300000D03*
X71275000Y-116300000D03*
X71275000Y-118300000D03*
X71275000Y-120300000D03*
X71275000Y-122300000D03*
X71275000Y-124300000D03*
X86275000Y-124300000D03*
X86275000Y-122300000D03*
X86275000Y-120300000D03*
X86275000Y-118300000D03*
X86275000Y-116300000D03*
X86275000Y-114300000D03*
X86275000Y-112300000D03*
X86275000Y-110300000D03*
%TD*%
D48*
%TO.C,R8*%
X54720000Y-109000000D03*
X54720000Y-110020000D03*
%TD*%
D46*
%TO.C,C23*%
X54721644Y-108019382D03*
X53761644Y-108019382D03*
%TD*%
%TO.C,C49*%
X35050000Y-73190000D03*
X34090000Y-73190000D03*
%TD*%
D49*
%TO.C,J7*%
X54335000Y-131035000D03*
D50*
X52810000Y-132510000D03*
D49*
X54335000Y-133985000D03*
%TD*%
D34*
%TO.C,R27*%
X44260000Y-123980000D03*
X43538752Y-124701248D03*
%TD*%
D18*
%TO.C,R24*%
X91134999Y-133340002D03*
X92154999Y-133340002D03*
%TD*%
D25*
%TO.C,C38*%
X44380000Y-65660000D03*
X44380000Y-64700000D03*
%TD*%
D46*
%TO.C,C26*%
X38250000Y-79090000D03*
X37290000Y-79090000D03*
%TD*%
D20*
%TO.C,C43*%
X103455000Y-58335000D03*
X101555000Y-58335000D03*
%TD*%
D51*
%TO.C,TP3*%
X84855000Y-57155000D03*
%TD*%
D21*
%TO.C,C40*%
X46210000Y-72060000D03*
X47170000Y-72060000D03*
%TD*%
D52*
%TO.C,L3*%
X49770000Y-128965000D03*
X49770000Y-129935000D03*
%TD*%
D53*
%TO.C,R32*%
X88504999Y-124310002D03*
X88504999Y-123290002D03*
%TD*%
D54*
%TO.C,C10*%
X50720000Y-124100000D03*
X50720000Y-125060000D03*
%TD*%
D48*
%TO.C,R37*%
X27040000Y-58810000D03*
X27040000Y-59830000D03*
%TD*%
D18*
%TO.C,R38*%
X38390000Y-100610000D03*
X39410000Y-100610000D03*
%TD*%
%TO.C,R15*%
X31440000Y-105400000D03*
X32460000Y-105400000D03*
%TD*%
D36*
%TO.C,R28*%
X50780000Y-133000000D03*
X49760000Y-133000000D03*
%TD*%
D49*
%TO.C,J2*%
X91304999Y-121255002D03*
D50*
X89779999Y-122730002D03*
D49*
X91304999Y-124205002D03*
%TD*%
D25*
%TO.C,C29*%
X38770000Y-63480000D03*
X38770000Y-62520000D03*
%TD*%
D55*
%TO.C,U4*%
X49872202Y-122289157D03*
X50155045Y-122006314D03*
X50437887Y-121723472D03*
X50720730Y-121440629D03*
X51003573Y-121157786D03*
X51286415Y-120874944D03*
X51569258Y-120592101D03*
X51852101Y-120309258D03*
X52134944Y-120026415D03*
X52417786Y-119743573D03*
X52700629Y-119460730D03*
X52983472Y-119177887D03*
X53266314Y-118895045D03*
X53549157Y-118612202D03*
D56*
X53549157Y-117427798D03*
X53266314Y-117144955D03*
X52983472Y-116862113D03*
X52700629Y-116579270D03*
X52417786Y-116296427D03*
X52134944Y-116013585D03*
X51852101Y-115730742D03*
X51569258Y-115447899D03*
X51286415Y-115165056D03*
X51003573Y-114882214D03*
X50720730Y-114599371D03*
X50437887Y-114316528D03*
X50155045Y-114033686D03*
X49872202Y-113750843D03*
D55*
X48687798Y-113750843D03*
X48404955Y-114033686D03*
X48122113Y-114316528D03*
X47839270Y-114599371D03*
X47556427Y-114882214D03*
X47273585Y-115165056D03*
X46990742Y-115447899D03*
X46707899Y-115730742D03*
X46425056Y-116013585D03*
X46142214Y-116296427D03*
X45859371Y-116579270D03*
X45576528Y-116862113D03*
X45293686Y-117144955D03*
X45010843Y-117427798D03*
D56*
X45010843Y-118612202D03*
X45293686Y-118895045D03*
X45576528Y-119177887D03*
X45859371Y-119460730D03*
X46142214Y-119743573D03*
X46425056Y-120026415D03*
X46707899Y-120309258D03*
X46990742Y-120592101D03*
X47273585Y-120874944D03*
X47556427Y-121157786D03*
X47839270Y-121440629D03*
X48122113Y-121723472D03*
X48404955Y-122006314D03*
X48687798Y-122289157D03*
D57*
X49280000Y-118020000D03*
%TD*%
D25*
%TO.C,C28*%
X99780000Y-120450000D03*
X99780000Y-119490000D03*
%TD*%
D58*
%TO.C,J4*%
X84025000Y-45040000D03*
D59*
X88215000Y-45040000D03*
X92405000Y-45040000D03*
X96595000Y-45040000D03*
X100785000Y-45040000D03*
X104975000Y-45040000D03*
X104975000Y-51390000D03*
X100785000Y-51390000D03*
X96595000Y-51390000D03*
X92405000Y-51390000D03*
X88215000Y-51390000D03*
X84025000Y-51390000D03*
D58*
X49975000Y-51390000D03*
D59*
X45785000Y-51390000D03*
X41595000Y-51390000D03*
X37405000Y-51390000D03*
X33215000Y-51390000D03*
X29025000Y-51390000D03*
X29025000Y-45040000D03*
X33215000Y-45040000D03*
X37405000Y-45040000D03*
X41595000Y-45040000D03*
X45785000Y-45040000D03*
X49975000Y-45040000D03*
%TD*%
D60*
%TO.C,Q4*%
X74050000Y-55669999D03*
X74050000Y-56939999D03*
X74050000Y-58209999D03*
X74050000Y-59479999D03*
X79200000Y-59479999D03*
X79200000Y-58209999D03*
X79200000Y-56939999D03*
X79200000Y-55669999D03*
%TD*%
D61*
%TO.C,C39*%
X80495000Y-74155000D03*
X80495000Y-72255000D03*
%TD*%
D62*
%TO.C,D4*%
X75234998Y-83075001D03*
X76809998Y-83075001D03*
%TD*%
D21*
%TO.C,C13*%
X48130000Y-124390000D03*
X49090000Y-124390000D03*
%TD*%
D63*
%TO.C,L4*%
X49775000Y-130960000D03*
X48805000Y-130960000D03*
%TD*%
D48*
%TO.C,R4*%
X55540000Y-127800000D03*
X55540000Y-128820000D03*
%TD*%
D28*
%TO.C,U8*%
X81380000Y-68510000D03*
X81380000Y-67240000D03*
X81380000Y-65970000D03*
X81380000Y-64700000D03*
X76430000Y-64700000D03*
X76430000Y-65970000D03*
X76430000Y-67240000D03*
X76430000Y-68510000D03*
D64*
X78905000Y-66605000D03*
%TD*%
D51*
%TO.C,TP4*%
X69880000Y-79620000D03*
%TD*%
D18*
%TO.C,R44*%
X94360000Y-119760000D03*
X95380000Y-119760000D03*
%TD*%
D65*
%TO.C,SW3*%
X58050000Y-124390000D03*
X66050000Y-124390000D03*
%TD*%
D66*
%TO.C,R19*%
X73342499Y-81350001D03*
X71692499Y-81350001D03*
%TD*%
D36*
%TO.C,R40*%
X107240000Y-114590000D03*
X106220000Y-114590000D03*
%TD*%
%TO.C,R12*%
X32480000Y-106750000D03*
X31460000Y-106750000D03*
%TD*%
D18*
%TO.C,R6*%
X40760000Y-122730000D03*
X41780000Y-122730000D03*
%TD*%
D53*
%TO.C,R22*%
X49760000Y-134000000D03*
X49760000Y-132980000D03*
%TD*%
D65*
%TO.C,SW2*%
X58040000Y-128660000D03*
X66040000Y-128660000D03*
%TD*%
D36*
%TO.C,R10*%
X32463164Y-108112087D03*
X31443164Y-108112087D03*
%TD*%
D62*
%TO.C,D2*%
X75224998Y-79700000D03*
X76799998Y-79700000D03*
%TD*%
D48*
%TO.C,R33*%
X88502499Y-124307502D03*
X88502499Y-125327502D03*
%TD*%
D66*
%TO.C,R23*%
X83340000Y-63095000D03*
X81690000Y-63095000D03*
%TD*%
D30*
%TO.C,R35*%
X76420000Y-62315000D03*
X78070000Y-62315000D03*
%TD*%
D53*
%TO.C,R17*%
X51480000Y-102860000D03*
X51480000Y-101840000D03*
%TD*%
D48*
%TO.C,R36*%
X33422679Y-66170000D03*
X33422679Y-67190000D03*
%TD*%
D36*
%TO.C,R42*%
X45410000Y-63570000D03*
X44390000Y-63570000D03*
%TD*%
D45*
%TO.C,U7*%
X28580000Y-59825000D03*
X28580000Y-61095000D03*
X28580000Y-62365000D03*
X28580000Y-63635000D03*
X35880000Y-63635000D03*
X35880000Y-62365000D03*
X35880000Y-61095000D03*
X35880000Y-59825000D03*
%TD*%
D66*
%TO.C,R20*%
X73342498Y-83075001D03*
X71692498Y-83075001D03*
%TD*%
D18*
%TO.C,R9*%
X43003163Y-106762087D03*
X44023163Y-106762087D03*
%TD*%
D60*
%TO.C,Q3*%
X74049999Y-50350001D03*
X74049999Y-51620001D03*
X74049999Y-52890001D03*
X74049999Y-54160001D03*
X79199999Y-54160001D03*
X79199999Y-52890001D03*
X79199999Y-51620001D03*
X79199999Y-50350001D03*
%TD*%
D21*
%TO.C,C4*%
X43053164Y-105477088D03*
X44013164Y-105477088D03*
%TD*%
D36*
%TO.C,R45*%
X104100000Y-119760000D03*
X103080000Y-119760000D03*
%TD*%
%TO.C,R41*%
X45410000Y-62520000D03*
X44390000Y-62520000D03*
%TD*%
D25*
%TO.C,C14*%
X49679998Y-111759998D03*
X49679998Y-110799998D03*
%TD*%
D66*
%TO.C,R18*%
X73332499Y-79660000D03*
X71682499Y-79660000D03*
%TD*%
D36*
%TO.C,R21*%
X55670001Y-104667696D03*
X54650001Y-104667696D03*
%TD*%
D54*
%TO.C,C48*%
X40320000Y-76480000D03*
X40320000Y-77440000D03*
%TD*%
D67*
%TO.C,R7*%
X45799376Y-124920624D03*
X46520624Y-124199376D03*
%TD*%
D68*
%TO.C,C7*%
X53871330Y-114877518D03*
X54550152Y-114198696D03*
%TD*%
D36*
%TO.C,R30*%
X86325000Y-55424999D03*
X85305000Y-55424999D03*
%TD*%
D54*
%TO.C,C12*%
X51540000Y-124100000D03*
X51540000Y-125060000D03*
%TD*%
D18*
%TO.C,R25*%
X54980000Y-124550000D03*
X56000000Y-124550000D03*
%TD*%
D53*
%TO.C,R16*%
X52530000Y-102860000D03*
X52530000Y-101840000D03*
%TD*%
D21*
%TO.C,C52*%
X46220000Y-68050000D03*
X47180000Y-68050000D03*
%TD*%
D54*
%TO.C,C31*%
X41350000Y-76480000D03*
X41350000Y-77440000D03*
%TD*%
D21*
%TO.C,C19*%
X55684142Y-108005240D03*
X56644142Y-108005240D03*
%TD*%
D46*
%TO.C,C37*%
X55940000Y-125610000D03*
X54980000Y-125610000D03*
%TD*%
%TO.C,C17*%
X50770000Y-127960000D03*
X49810000Y-127960000D03*
%TD*%
D61*
%TO.C,C25*%
X85025000Y-67405000D03*
X85025000Y-65505000D03*
%TD*%
D51*
%TO.C,TP2*%
X53800000Y-124550000D03*
%TD*%
D25*
%TO.C,C51*%
X40630000Y-63480000D03*
X40630000Y-62520000D03*
%TD*%
D69*
%TO.C,H1*%
X67000000Y-74000000D03*
%TD*%
D70*
%TO.C,Y3*%
X56500001Y-106397695D03*
X54000001Y-106397695D03*
%TD*%
D18*
%TO.C,R11*%
X43003164Y-108022086D03*
X44023164Y-108022086D03*
%TD*%
D43*
%TO.C,U6*%
X35390000Y-54440000D03*
X35390000Y-56040000D03*
X35390000Y-57640000D03*
X40290000Y-57640000D03*
X40290000Y-56040000D03*
X40290000Y-54440000D03*
%TD*%
D18*
%TO.C,R13*%
X43003162Y-109262088D03*
X44023162Y-109262088D03*
%TD*%
D54*
%TO.C,C11*%
X52370000Y-124100000D03*
X52370000Y-125060000D03*
%TD*%
D25*
%TO.C,C35*%
X45410000Y-65660000D03*
X45410000Y-64700000D03*
%TD*%
D51*
%TO.C,TP7*%
X72065000Y-77585000D03*
%TD*%
D62*
%TO.C,D3*%
X75234998Y-81389999D03*
X76809998Y-81389999D03*
%TD*%
D61*
%TO.C,C41*%
X78425000Y-74155000D03*
X78425000Y-72255000D03*
%TD*%
D31*
%TO.C,J8*%
X26830000Y-117410000D03*
D32*
X26830000Y-118680000D03*
X26830000Y-119950000D03*
X26830000Y-121220000D03*
X26830000Y-122490000D03*
X26830000Y-123760000D03*
%TD*%
D26*
%TO.C,TC2*%
X29060000Y-130986000D03*
X34140000Y-129970000D03*
X29060000Y-128954000D03*
D27*
X32870000Y-129335000D03*
X32870000Y-130605000D03*
X31600000Y-129335000D03*
X31600000Y-130605000D03*
X30330000Y-129335000D03*
X30330000Y-130605000D03*
%TD*%
D71*
%TO.C,U10*%
X102701500Y-62362500D03*
X102051500Y-62362500D03*
X101401500Y-62362500D03*
X100751500Y-62362500D03*
X100101500Y-62362500D03*
X99451500Y-62362500D03*
X98801500Y-62362500D03*
X98151500Y-62362500D03*
X97501500Y-62362500D03*
X96851500Y-62362500D03*
X96201500Y-62362500D03*
X95551500Y-62362500D03*
X94901500Y-62362500D03*
X94251500Y-62362500D03*
X94251500Y-68087500D03*
X94901500Y-68087500D03*
X95551500Y-68087500D03*
X96201500Y-68087500D03*
X96851500Y-68087500D03*
X97501500Y-68087500D03*
X98151500Y-68087500D03*
X98801500Y-68087500D03*
X99451500Y-68087500D03*
X100101500Y-68087500D03*
X100751500Y-68087500D03*
X101401500Y-68087500D03*
X102051500Y-68087500D03*
X102701500Y-68087500D03*
D72*
X98476500Y-65225000D03*
%TD*%
D73*
%TO.C,J5*%
X104430000Y-86190000D03*
D74*
X104430000Y-88730000D03*
X104430000Y-91270000D03*
X104430000Y-93810000D03*
X104430000Y-96350000D03*
X104430000Y-98890000D03*
X104430000Y-101430000D03*
X104430000Y-103970000D03*
X104430000Y-106510000D03*
X104430000Y-109050000D03*
%TD*%
D36*
%TO.C,R14*%
X43460000Y-58740000D03*
X42440000Y-58740000D03*
%TD*%
D20*
%TO.C,C42*%
X93765000Y-70004999D03*
X91865000Y-70004999D03*
%TD*%
%TO.C,C44*%
X95745000Y-58335000D03*
X93845000Y-58335000D03*
%TD*%
D21*
%TO.C,C15*%
X48140000Y-125420000D03*
X49100000Y-125420000D03*
%TD*%
D75*
%TO.C,Y2*%
X46048858Y-127316777D03*
X44493223Y-125761142D03*
X43291142Y-126963223D03*
X44846777Y-128518858D03*
%TD*%
D20*
%TO.C,C6*%
X30210000Y-54750000D03*
X28310000Y-54750000D03*
%TD*%
D76*
%TO.C,R3*%
X42989999Y-55407500D03*
X42989999Y-57232500D03*
%TD*%
D54*
%TO.C,C9*%
X38770000Y-59810000D03*
X38770000Y-60770000D03*
%TD*%
D65*
%TO.C,SW4*%
X31422679Y-75490000D03*
X31422679Y-67490000D03*
%TD*%
D46*
%TO.C,C8*%
X42655000Y-120470000D03*
X41695000Y-120470000D03*
%TD*%
D60*
%TO.C,Q2*%
X74050000Y-45010000D03*
X74050000Y-46280000D03*
X74050000Y-47550000D03*
X74050000Y-48820000D03*
X79200000Y-48820000D03*
X79200000Y-47550000D03*
X79200000Y-46280000D03*
X79200000Y-45010000D03*
%TD*%
D46*
%TO.C,C20*%
X50720000Y-132000000D03*
X49760000Y-132000000D03*
%TD*%
D77*
%TO.C,U11*%
X37052500Y-68450000D03*
X37052500Y-68850000D03*
X37052500Y-69250000D03*
X37052500Y-69650000D03*
X37052500Y-70050000D03*
X37052500Y-70450000D03*
X37052500Y-70850000D03*
X37052500Y-71250000D03*
X37052500Y-71650000D03*
X37052500Y-72050000D03*
X37052500Y-72450000D03*
X37052500Y-72850000D03*
X37052500Y-73250000D03*
X37052500Y-73650000D03*
D78*
X37890000Y-74487500D03*
X38290000Y-74487500D03*
X38690000Y-74487500D03*
X39090000Y-74487500D03*
X39490000Y-74487500D03*
X39890000Y-74487500D03*
X40290000Y-74487500D03*
X40690000Y-74487500D03*
X41090000Y-74487500D03*
X41490000Y-74487500D03*
X41890000Y-74487500D03*
X42290000Y-74487500D03*
X42690000Y-74487500D03*
X43090000Y-74487500D03*
D77*
X43927500Y-73650000D03*
X43927500Y-73250000D03*
X43927500Y-72850000D03*
X43927500Y-72450000D03*
X43927500Y-72050000D03*
X43927500Y-71650000D03*
X43927500Y-71250000D03*
X43927500Y-70850000D03*
X43927500Y-70450000D03*
X43927500Y-70050000D03*
X43927500Y-69650000D03*
X43927500Y-69250000D03*
X43927500Y-68850000D03*
X43927500Y-68450000D03*
D78*
X43090000Y-67612500D03*
X42690000Y-67612500D03*
X42290000Y-67612500D03*
X41890000Y-67612500D03*
X41490000Y-67612500D03*
X41090000Y-67612500D03*
X40690000Y-67612500D03*
X40290000Y-67612500D03*
X39890000Y-67612500D03*
X39490000Y-67612500D03*
X39090000Y-67612500D03*
X38690000Y-67612500D03*
X38290000Y-67612500D03*
X37890000Y-67612500D03*
D79*
X40490000Y-71050000D03*
%TD*%
M02*
