%TF.GenerationSoftware,KiCad,Pcbnew,(6.0.2)*%
%TF.CreationDate,2022-06-02T13:11:00-06:00*%
%TF.ProjectId,RGB-controller,5247422d-636f-46e7-9472-6f6c6c65722e,rev?*%
%TF.SameCoordinates,Original*%
%TF.FileFunction,Legend,Bot*%
%TF.FilePolarity,Positive*%
%FSLAX46Y46*%
G04 Gerber Fmt 4.6, Leading zero omitted, Abs format (unit mm)*
G04 Created by KiCad (PCBNEW (6.0.2)) date 2022-06-02 13:11:00*
%MOMM*%
%LPD*%
G01*
G04 APERTURE LIST*
%ADD10C,0.150000*%
%ADD11C,0.120000*%
%ADD12R,1.000000X1.000000*%
%ADD13O,1.000000X1.000000*%
%ADD14R,2.056000X2.056000*%
%ADD15C,2.056000*%
%ADD16C,0.990600*%
G04 APERTURE END LIST*
D10*
X89410238Y-49194047D02*
X89193571Y-49844047D01*
X88976904Y-49194047D01*
X88636428Y-49194047D02*
X88512619Y-49194047D01*
X88450714Y-49225000D01*
X88388809Y-49286904D01*
X88357857Y-49410714D01*
X88357857Y-49627380D01*
X88388809Y-49751190D01*
X88450714Y-49813095D01*
X88512619Y-49844047D01*
X88636428Y-49844047D01*
X88698333Y-49813095D01*
X88760238Y-49751190D01*
X88791190Y-49627380D01*
X88791190Y-49410714D01*
X88760238Y-49286904D01*
X88698333Y-49225000D01*
X88636428Y-49194047D01*
X88079285Y-49194047D02*
X88079285Y-49720238D01*
X88048333Y-49782142D01*
X88017380Y-49813095D01*
X87955476Y-49844047D01*
X87831666Y-49844047D01*
X87769761Y-49813095D01*
X87738809Y-49782142D01*
X87707857Y-49720238D01*
X87707857Y-49194047D01*
X87491190Y-49194047D02*
X87119761Y-49194047D01*
X87305476Y-49844047D02*
X87305476Y-49194047D01*
D11*
X92400000Y-50150000D02*
X92410000Y-49060000D01*
X85380000Y-44950000D02*
X85380000Y-46300000D01*
X102030000Y-51400000D02*
G75*
G03*
X99530000Y-51400000I-1250000J0D01*
G01*
X47050000Y-51450000D02*
G75*
G03*
X44550000Y-51450000I-1250000J0D01*
G01*
X42850000Y-51400000D02*
G75*
G03*
X40350000Y-51400000I-1250000J0D01*
G01*
X48750000Y-45100000D02*
G75*
G03*
X51250000Y-45100000I1250000J0D01*
G01*
X86960000Y-45070000D02*
G75*
G03*
X89460000Y-45070000I1250000J0D01*
G01*
X97860000Y-51400000D02*
G75*
G03*
X95360000Y-51400000I-1250000J0D01*
G01*
X89460000Y-51370000D02*
G75*
G03*
X86960000Y-51370000I-1250000J0D01*
G01*
X100800000Y-50150000D02*
X100800000Y-49050000D01*
X27750000Y-45050000D02*
G75*
G03*
X30250000Y-45050000I1250000J0D01*
G01*
X34450000Y-51450000D02*
G75*
G03*
X31950000Y-51450000I-1250000J0D01*
G01*
X51350000Y-51460000D02*
X55620000Y-51460000D01*
X51350000Y-50100000D02*
X51350000Y-51450000D01*
X44550000Y-45100000D02*
G75*
G03*
X47050000Y-45100000I1250000J0D01*
G01*
X48600000Y-51450000D02*
X48600000Y-50100000D01*
X38650000Y-51450000D02*
G75*
G03*
X36150000Y-51450000I-1250000J0D01*
G01*
X99540000Y-45000000D02*
G75*
G03*
X102040000Y-45000000I1250000J0D01*
G01*
X106240000Y-51390000D02*
G75*
G03*
X103740000Y-51390000I-1250000J0D01*
G01*
X93650000Y-51400000D02*
G75*
G03*
X91150000Y-51400000I-1250000J0D01*
G01*
X95320000Y-45000000D02*
G75*
G03*
X97820000Y-45000000I1250000J0D01*
G01*
X48600000Y-50100000D02*
X51350000Y-50100000D01*
X40350000Y-45100000D02*
G75*
G03*
X42850000Y-45100000I1250000J0D01*
G01*
X36150000Y-45100000D02*
G75*
G03*
X38650000Y-45100000I1250000J0D01*
G01*
X30250000Y-51450000D02*
G75*
G03*
X27750000Y-51450000I-1250000J0D01*
G01*
X103740000Y-45020000D02*
G75*
G03*
X106240000Y-45020000I1250000J0D01*
G01*
X32000000Y-45100000D02*
G75*
G03*
X34500000Y-45100000I1250000J0D01*
G01*
X82630000Y-46300000D02*
X82630000Y-44950000D01*
X91160000Y-45020000D02*
G75*
G03*
X93660000Y-45020000I1250000J0D01*
G01*
X85380000Y-46300000D02*
X82630000Y-46300000D01*
X51250000Y-45100000D02*
X55520000Y-45100000D01*
X85250000Y-51390000D02*
G75*
G03*
X82750000Y-51390000I-1250000J0D01*
G01*
D10*
X84477857Y-47244047D02*
X84694523Y-46934523D01*
X84849285Y-47244047D02*
X84849285Y-46594047D01*
X84601666Y-46594047D01*
X84539761Y-46625000D01*
X84508809Y-46655952D01*
X84477857Y-46717857D01*
X84477857Y-46810714D01*
X84508809Y-46872619D01*
X84539761Y-46903571D01*
X84601666Y-46934523D01*
X84849285Y-46934523D01*
X84199285Y-46903571D02*
X83982619Y-46903571D01*
X83889761Y-47244047D02*
X84199285Y-47244047D01*
X84199285Y-46594047D01*
X83889761Y-46594047D01*
X83611190Y-47244047D02*
X83611190Y-46594047D01*
X83456428Y-46594047D01*
X83363571Y-46625000D01*
X83301666Y-46686904D01*
X83270714Y-46748809D01*
X83239761Y-46872619D01*
X83239761Y-46965476D01*
X83270714Y-47089285D01*
X83301666Y-47151190D01*
X83363571Y-47213095D01*
X83456428Y-47244047D01*
X83611190Y-47244047D01*
X85360476Y-49164047D02*
X85143809Y-49814047D01*
X84927142Y-49164047D01*
X84493809Y-49473571D02*
X84400952Y-49504523D01*
X84370000Y-49535476D01*
X84339047Y-49597380D01*
X84339047Y-49690238D01*
X84370000Y-49752142D01*
X84400952Y-49783095D01*
X84462857Y-49814047D01*
X84710476Y-49814047D01*
X84710476Y-49164047D01*
X84493809Y-49164047D01*
X84431904Y-49195000D01*
X84400952Y-49225952D01*
X84370000Y-49287857D01*
X84370000Y-49349761D01*
X84400952Y-49411666D01*
X84431904Y-49442619D01*
X84493809Y-49473571D01*
X84710476Y-49473571D01*
X84091428Y-49628333D02*
X83781904Y-49628333D01*
X84153333Y-49814047D02*
X83936666Y-49164047D01*
X83720000Y-49814047D01*
X83596190Y-49164047D02*
X83224761Y-49164047D01*
X83410476Y-49814047D02*
X83410476Y-49164047D01*
X83100952Y-49164047D02*
X82729523Y-49164047D01*
X82915238Y-49814047D02*
X82915238Y-49164047D01*
X46419047Y-46665000D02*
X46480952Y-46634047D01*
X46573809Y-46634047D01*
X46666666Y-46665000D01*
X46728571Y-46726904D01*
X46759523Y-46788809D01*
X46790476Y-46912619D01*
X46790476Y-47005476D01*
X46759523Y-47129285D01*
X46728571Y-47191190D01*
X46666666Y-47253095D01*
X46573809Y-47284047D01*
X46511904Y-47284047D01*
X46419047Y-47253095D01*
X46388095Y-47222142D01*
X46388095Y-47005476D01*
X46511904Y-47005476D01*
X46109523Y-47284047D02*
X46109523Y-46634047D01*
X45861904Y-46634047D01*
X45800000Y-46665000D01*
X45769047Y-46695952D01*
X45738095Y-46757857D01*
X45738095Y-46850714D01*
X45769047Y-46912619D01*
X45800000Y-46943571D01*
X45861904Y-46974523D01*
X46109523Y-46974523D01*
X45459523Y-47284047D02*
X45459523Y-46634047D01*
X44809523Y-47284047D02*
X45180952Y-47284047D01*
X44995238Y-47284047D02*
X44995238Y-46634047D01*
X45057142Y-46726904D01*
X45119047Y-46788809D01*
X45180952Y-46819761D01*
X103322380Y-48734047D02*
X103322380Y-48084047D01*
X103105714Y-48548333D01*
X102889047Y-48084047D01*
X102889047Y-48734047D01*
X102455714Y-48084047D02*
X102331904Y-48084047D01*
X102270000Y-48115000D01*
X102208095Y-48176904D01*
X102177142Y-48300714D01*
X102177142Y-48517380D01*
X102208095Y-48641190D01*
X102270000Y-48703095D01*
X102331904Y-48734047D01*
X102455714Y-48734047D01*
X102517619Y-48703095D01*
X102579523Y-48641190D01*
X102610476Y-48517380D01*
X102610476Y-48300714D01*
X102579523Y-48176904D01*
X102517619Y-48115000D01*
X102455714Y-48084047D01*
X101991428Y-48084047D02*
X101620000Y-48084047D01*
X101805714Y-48734047D02*
X101805714Y-48084047D01*
X101279523Y-48084047D02*
X101155714Y-48084047D01*
X101093809Y-48115000D01*
X101031904Y-48176904D01*
X101000952Y-48300714D01*
X101000952Y-48517380D01*
X101031904Y-48641190D01*
X101093809Y-48703095D01*
X101155714Y-48734047D01*
X101279523Y-48734047D01*
X101341428Y-48703095D01*
X101403333Y-48641190D01*
X101434285Y-48517380D01*
X101434285Y-48300714D01*
X101403333Y-48176904D01*
X101341428Y-48115000D01*
X101279523Y-48084047D01*
X100350952Y-48734047D02*
X100567619Y-48424523D01*
X100722380Y-48734047D02*
X100722380Y-48084047D01*
X100474761Y-48084047D01*
X100412857Y-48115000D01*
X100381904Y-48145952D01*
X100350952Y-48207857D01*
X100350952Y-48300714D01*
X100381904Y-48362619D01*
X100412857Y-48393571D01*
X100474761Y-48424523D01*
X100722380Y-48424523D01*
X99731904Y-48734047D02*
X100103333Y-48734047D01*
X99917619Y-48734047D02*
X99917619Y-48084047D01*
X99979523Y-48176904D01*
X100041428Y-48238809D01*
X100103333Y-48269761D01*
X98741428Y-48393571D02*
X98648571Y-48424523D01*
X98617619Y-48455476D01*
X98586666Y-48517380D01*
X98586666Y-48610238D01*
X98617619Y-48672142D01*
X98648571Y-48703095D01*
X98710476Y-48734047D01*
X98958095Y-48734047D01*
X98958095Y-48084047D01*
X98741428Y-48084047D01*
X98679523Y-48115000D01*
X98648571Y-48145952D01*
X98617619Y-48207857D01*
X98617619Y-48269761D01*
X98648571Y-48331666D01*
X98679523Y-48362619D01*
X98741428Y-48393571D01*
X98958095Y-48393571D01*
X42407559Y-46665000D02*
X42469464Y-46634047D01*
X42562321Y-46634047D01*
X42655178Y-46665000D01*
X42717083Y-46726904D01*
X42748035Y-46788809D01*
X42778988Y-46912619D01*
X42778988Y-47005476D01*
X42748035Y-47129285D01*
X42717083Y-47191190D01*
X42655178Y-47253095D01*
X42562321Y-47284047D01*
X42500416Y-47284047D01*
X42407559Y-47253095D01*
X42376607Y-47222142D01*
X42376607Y-47005476D01*
X42500416Y-47005476D01*
X42098035Y-47284047D02*
X42098035Y-46634047D01*
X41850416Y-46634047D01*
X41788512Y-46665000D01*
X41757559Y-46695952D01*
X41726607Y-46757857D01*
X41726607Y-46850714D01*
X41757559Y-46912619D01*
X41788512Y-46943571D01*
X41850416Y-46974523D01*
X42098035Y-46974523D01*
X41448035Y-47284047D02*
X41448035Y-46634047D01*
X41200416Y-46634047D02*
X40798035Y-46634047D01*
X41014702Y-46881666D01*
X40921845Y-46881666D01*
X40859940Y-46912619D01*
X40828988Y-46943571D01*
X40798035Y-47005476D01*
X40798035Y-47160238D01*
X40828988Y-47222142D01*
X40859940Y-47253095D01*
X40921845Y-47284047D01*
X41107559Y-47284047D01*
X41169464Y-47253095D01*
X41200416Y-47222142D01*
X101347238Y-46625000D02*
X101409142Y-46594047D01*
X101502000Y-46594047D01*
X101594857Y-46625000D01*
X101656761Y-46686904D01*
X101687714Y-46748809D01*
X101718666Y-46872619D01*
X101718666Y-46965476D01*
X101687714Y-47089285D01*
X101656761Y-47151190D01*
X101594857Y-47213095D01*
X101502000Y-47244047D01*
X101440095Y-47244047D01*
X101347238Y-47213095D01*
X101316285Y-47182142D01*
X101316285Y-46965476D01*
X101440095Y-46965476D01*
X101037714Y-47244047D02*
X101037714Y-46594047D01*
X100666285Y-47244047D01*
X100666285Y-46594047D01*
X100356761Y-47244047D02*
X100356761Y-46594047D01*
X100202000Y-46594047D01*
X100109142Y-46625000D01*
X100047238Y-46686904D01*
X100016285Y-46748809D01*
X99985333Y-46872619D01*
X99985333Y-46965476D01*
X100016285Y-47089285D01*
X100047238Y-47151190D01*
X100109142Y-47213095D01*
X100202000Y-47244047D01*
X100356761Y-47244047D01*
X34379166Y-49254047D02*
X34379166Y-49780238D01*
X34348213Y-49842142D01*
X34317261Y-49873095D01*
X34255356Y-49904047D01*
X34131547Y-49904047D01*
X34069642Y-49873095D01*
X34038689Y-49842142D01*
X34007737Y-49780238D01*
X34007737Y-49254047D01*
X33729166Y-49873095D02*
X33636308Y-49904047D01*
X33481547Y-49904047D01*
X33419642Y-49873095D01*
X33388689Y-49842142D01*
X33357737Y-49780238D01*
X33357737Y-49718333D01*
X33388689Y-49656428D01*
X33419642Y-49625476D01*
X33481547Y-49594523D01*
X33605356Y-49563571D01*
X33667261Y-49532619D01*
X33698213Y-49501666D01*
X33729166Y-49439761D01*
X33729166Y-49377857D01*
X33698213Y-49315952D01*
X33667261Y-49285000D01*
X33605356Y-49254047D01*
X33450594Y-49254047D01*
X33357737Y-49285000D01*
X32862499Y-49563571D02*
X32769642Y-49594523D01*
X32738689Y-49625476D01*
X32707737Y-49687380D01*
X32707737Y-49780238D01*
X32738689Y-49842142D01*
X32769642Y-49873095D01*
X32831547Y-49904047D01*
X33079166Y-49904047D01*
X33079166Y-49254047D01*
X32862499Y-49254047D01*
X32800594Y-49285000D01*
X32769642Y-49315952D01*
X32738689Y-49377857D01*
X32738689Y-49439761D01*
X32769642Y-49501666D01*
X32800594Y-49532619D01*
X32862499Y-49563571D01*
X33079166Y-49563571D01*
X31933928Y-49904047D02*
X31933928Y-49254047D01*
X31779166Y-49254047D01*
X31686308Y-49285000D01*
X31624404Y-49346904D01*
X31593451Y-49408809D01*
X31562499Y-49532619D01*
X31562499Y-49625476D01*
X31593451Y-49749285D01*
X31624404Y-49811190D01*
X31686308Y-49873095D01*
X31779166Y-49904047D01*
X31933928Y-49904047D01*
X31283928Y-49656428D02*
X30788689Y-49656428D01*
X99085952Y-49784047D02*
X99085952Y-49134047D01*
X98869285Y-49598333D01*
X98652619Y-49134047D01*
X98652619Y-49784047D01*
X98219285Y-49134047D02*
X98095476Y-49134047D01*
X98033571Y-49165000D01*
X97971666Y-49226904D01*
X97940714Y-49350714D01*
X97940714Y-49567380D01*
X97971666Y-49691190D01*
X98033571Y-49753095D01*
X98095476Y-49784047D01*
X98219285Y-49784047D01*
X98281190Y-49753095D01*
X98343095Y-49691190D01*
X98374047Y-49567380D01*
X98374047Y-49350714D01*
X98343095Y-49226904D01*
X98281190Y-49165000D01*
X98219285Y-49134047D01*
X97755000Y-49134047D02*
X97383571Y-49134047D01*
X97569285Y-49784047D02*
X97569285Y-49134047D01*
X97043095Y-49134047D02*
X96919285Y-49134047D01*
X96857380Y-49165000D01*
X96795476Y-49226904D01*
X96764523Y-49350714D01*
X96764523Y-49567380D01*
X96795476Y-49691190D01*
X96857380Y-49753095D01*
X96919285Y-49784047D01*
X97043095Y-49784047D01*
X97105000Y-49753095D01*
X97166904Y-49691190D01*
X97197857Y-49567380D01*
X97197857Y-49350714D01*
X97166904Y-49226904D01*
X97105000Y-49165000D01*
X97043095Y-49134047D01*
X96114523Y-49784047D02*
X96331190Y-49474523D01*
X96485952Y-49784047D02*
X96485952Y-49134047D01*
X96238333Y-49134047D01*
X96176428Y-49165000D01*
X96145476Y-49195952D01*
X96114523Y-49257857D01*
X96114523Y-49350714D01*
X96145476Y-49412619D01*
X96176428Y-49443571D01*
X96238333Y-49474523D01*
X96485952Y-49474523D01*
X95866904Y-49195952D02*
X95835952Y-49165000D01*
X95774047Y-49134047D01*
X95619285Y-49134047D01*
X95557380Y-49165000D01*
X95526428Y-49195952D01*
X95495476Y-49257857D01*
X95495476Y-49319761D01*
X95526428Y-49412619D01*
X95897857Y-49784047D01*
X95495476Y-49784047D01*
X94752619Y-49598333D02*
X94443095Y-49598333D01*
X94814523Y-49784047D02*
X94597857Y-49134047D01*
X94381190Y-49784047D01*
X94632380Y-48734047D02*
X94632380Y-48084047D01*
X94415714Y-48548333D01*
X94199047Y-48084047D01*
X94199047Y-48734047D01*
X93765714Y-48084047D02*
X93641904Y-48084047D01*
X93580000Y-48115000D01*
X93518095Y-48176904D01*
X93487142Y-48300714D01*
X93487142Y-48517380D01*
X93518095Y-48641190D01*
X93580000Y-48703095D01*
X93641904Y-48734047D01*
X93765714Y-48734047D01*
X93827619Y-48703095D01*
X93889523Y-48641190D01*
X93920476Y-48517380D01*
X93920476Y-48300714D01*
X93889523Y-48176904D01*
X93827619Y-48115000D01*
X93765714Y-48084047D01*
X93301428Y-48084047D02*
X92930000Y-48084047D01*
X93115714Y-48734047D02*
X93115714Y-48084047D01*
X92589523Y-48084047D02*
X92465714Y-48084047D01*
X92403809Y-48115000D01*
X92341904Y-48176904D01*
X92310952Y-48300714D01*
X92310952Y-48517380D01*
X92341904Y-48641190D01*
X92403809Y-48703095D01*
X92465714Y-48734047D01*
X92589523Y-48734047D01*
X92651428Y-48703095D01*
X92713333Y-48641190D01*
X92744285Y-48517380D01*
X92744285Y-48300714D01*
X92713333Y-48176904D01*
X92651428Y-48115000D01*
X92589523Y-48084047D01*
X91660952Y-48734047D02*
X91877619Y-48424523D01*
X92032380Y-48734047D02*
X92032380Y-48084047D01*
X91784761Y-48084047D01*
X91722857Y-48115000D01*
X91691904Y-48145952D01*
X91660952Y-48207857D01*
X91660952Y-48300714D01*
X91691904Y-48362619D01*
X91722857Y-48393571D01*
X91784761Y-48424523D01*
X92032380Y-48424523D01*
X91413333Y-48145952D02*
X91382380Y-48115000D01*
X91320476Y-48084047D01*
X91165714Y-48084047D01*
X91103809Y-48115000D01*
X91072857Y-48145952D01*
X91041904Y-48207857D01*
X91041904Y-48269761D01*
X91072857Y-48362619D01*
X91444285Y-48734047D01*
X91041904Y-48734047D01*
X90051428Y-48393571D02*
X89958571Y-48424523D01*
X89927619Y-48455476D01*
X89896666Y-48517380D01*
X89896666Y-48610238D01*
X89927619Y-48672142D01*
X89958571Y-48703095D01*
X90020476Y-48734047D01*
X90268095Y-48734047D01*
X90268095Y-48084047D01*
X90051428Y-48084047D01*
X89989523Y-48115000D01*
X89958571Y-48145952D01*
X89927619Y-48207857D01*
X89927619Y-48269761D01*
X89958571Y-48331666D01*
X89989523Y-48362619D01*
X90051428Y-48393571D01*
X90268095Y-48393571D01*
X39364881Y-49234047D02*
X39364881Y-49760238D01*
X39333928Y-49822142D01*
X39302976Y-49853095D01*
X39241071Y-49884047D01*
X39117262Y-49884047D01*
X39055357Y-49853095D01*
X39024404Y-49822142D01*
X38993452Y-49760238D01*
X38993452Y-49234047D01*
X38714881Y-49853095D02*
X38622023Y-49884047D01*
X38467262Y-49884047D01*
X38405357Y-49853095D01*
X38374404Y-49822142D01*
X38343452Y-49760238D01*
X38343452Y-49698333D01*
X38374404Y-49636428D01*
X38405357Y-49605476D01*
X38467262Y-49574523D01*
X38591071Y-49543571D01*
X38652976Y-49512619D01*
X38683928Y-49481666D01*
X38714881Y-49419761D01*
X38714881Y-49357857D01*
X38683928Y-49295952D01*
X38652976Y-49265000D01*
X38591071Y-49234047D01*
X38436309Y-49234047D01*
X38343452Y-49265000D01*
X37848214Y-49543571D02*
X37755357Y-49574523D01*
X37724404Y-49605476D01*
X37693452Y-49667380D01*
X37693452Y-49760238D01*
X37724404Y-49822142D01*
X37755357Y-49853095D01*
X37817262Y-49884047D01*
X38064881Y-49884047D01*
X38064881Y-49234047D01*
X37848214Y-49234047D01*
X37786309Y-49265000D01*
X37755357Y-49295952D01*
X37724404Y-49357857D01*
X37724404Y-49419761D01*
X37755357Y-49481666D01*
X37786309Y-49512619D01*
X37848214Y-49543571D01*
X38064881Y-49543571D01*
X36919643Y-49884047D02*
X36919643Y-49234047D01*
X36764881Y-49234047D01*
X36672023Y-49265000D01*
X36610119Y-49326904D01*
X36579166Y-49388809D01*
X36548214Y-49512619D01*
X36548214Y-49605476D01*
X36579166Y-49729285D01*
X36610119Y-49791190D01*
X36672023Y-49853095D01*
X36764881Y-49884047D01*
X36919643Y-49884047D01*
X36269643Y-49636428D02*
X35774404Y-49636428D01*
X36022023Y-49884047D02*
X36022023Y-49388809D01*
X93307190Y-46903571D02*
X93214333Y-46934523D01*
X93183380Y-46965476D01*
X93152428Y-47027380D01*
X93152428Y-47120238D01*
X93183380Y-47182142D01*
X93214333Y-47213095D01*
X93276238Y-47244047D01*
X93523857Y-47244047D01*
X93523857Y-46594047D01*
X93307190Y-46594047D01*
X93245285Y-46625000D01*
X93214333Y-46655952D01*
X93183380Y-46717857D01*
X93183380Y-46779761D01*
X93214333Y-46841666D01*
X93245285Y-46872619D01*
X93307190Y-46903571D01*
X93523857Y-46903571D01*
X92564333Y-47244047D02*
X92873857Y-47244047D01*
X92873857Y-46594047D01*
X92347666Y-46594047D02*
X92347666Y-47120238D01*
X92316714Y-47182142D01*
X92285761Y-47213095D01*
X92223857Y-47244047D01*
X92100047Y-47244047D01*
X92038142Y-47213095D01*
X92007190Y-47182142D01*
X91976238Y-47120238D01*
X91976238Y-46594047D01*
X91666714Y-46903571D02*
X91450047Y-46903571D01*
X91357190Y-47244047D02*
X91666714Y-47244047D01*
X91666714Y-46594047D01*
X91357190Y-46594047D01*
X55195952Y-51212142D02*
X55226904Y-51243095D01*
X55319761Y-51274047D01*
X55381666Y-51274047D01*
X55474523Y-51243095D01*
X55536428Y-51181190D01*
X55567380Y-51119285D01*
X55598333Y-50995476D01*
X55598333Y-50902619D01*
X55567380Y-50778809D01*
X55536428Y-50716904D01*
X55474523Y-50655000D01*
X55381666Y-50624047D01*
X55319761Y-50624047D01*
X55226904Y-50655000D01*
X55195952Y-50685952D01*
X54948333Y-51088333D02*
X54638809Y-51088333D01*
X55010238Y-51274047D02*
X54793571Y-50624047D01*
X54576904Y-51274047D01*
X54360238Y-51274047D02*
X54360238Y-50624047D01*
X53988809Y-51274047D01*
X53988809Y-50624047D01*
X53184047Y-51274047D02*
X53184047Y-50624047D01*
X53184047Y-50933571D02*
X52812619Y-50933571D01*
X52812619Y-51274047D02*
X52812619Y-50624047D01*
X42423035Y-49265000D02*
X42484940Y-49234047D01*
X42577797Y-49234047D01*
X42670654Y-49265000D01*
X42732559Y-49326904D01*
X42763511Y-49388809D01*
X42794464Y-49512619D01*
X42794464Y-49605476D01*
X42763511Y-49729285D01*
X42732559Y-49791190D01*
X42670654Y-49853095D01*
X42577797Y-49884047D01*
X42515892Y-49884047D01*
X42423035Y-49853095D01*
X42392083Y-49822142D01*
X42392083Y-49605476D01*
X42515892Y-49605476D01*
X42113511Y-49884047D02*
X42113511Y-49234047D01*
X41865892Y-49234047D01*
X41803988Y-49265000D01*
X41773035Y-49295952D01*
X41742083Y-49357857D01*
X41742083Y-49450714D01*
X41773035Y-49512619D01*
X41803988Y-49543571D01*
X41865892Y-49574523D01*
X42113511Y-49574523D01*
X41463511Y-49884047D02*
X41463511Y-49234047D01*
X40875416Y-49450714D02*
X40875416Y-49884047D01*
X41030178Y-49203095D02*
X41184940Y-49667380D01*
X40782559Y-49667380D01*
X107035952Y-49784047D02*
X107035952Y-49134047D01*
X106819285Y-49598333D01*
X106602619Y-49134047D01*
X106602619Y-49784047D01*
X106169285Y-49134047D02*
X106045476Y-49134047D01*
X105983571Y-49165000D01*
X105921666Y-49226904D01*
X105890714Y-49350714D01*
X105890714Y-49567380D01*
X105921666Y-49691190D01*
X105983571Y-49753095D01*
X106045476Y-49784047D01*
X106169285Y-49784047D01*
X106231190Y-49753095D01*
X106293095Y-49691190D01*
X106324047Y-49567380D01*
X106324047Y-49350714D01*
X106293095Y-49226904D01*
X106231190Y-49165000D01*
X106169285Y-49134047D01*
X105705000Y-49134047D02*
X105333571Y-49134047D01*
X105519285Y-49784047D02*
X105519285Y-49134047D01*
X104993095Y-49134047D02*
X104869285Y-49134047D01*
X104807380Y-49165000D01*
X104745476Y-49226904D01*
X104714523Y-49350714D01*
X104714523Y-49567380D01*
X104745476Y-49691190D01*
X104807380Y-49753095D01*
X104869285Y-49784047D01*
X104993095Y-49784047D01*
X105055000Y-49753095D01*
X105116904Y-49691190D01*
X105147857Y-49567380D01*
X105147857Y-49350714D01*
X105116904Y-49226904D01*
X105055000Y-49165000D01*
X104993095Y-49134047D01*
X104064523Y-49784047D02*
X104281190Y-49474523D01*
X104435952Y-49784047D02*
X104435952Y-49134047D01*
X104188333Y-49134047D01*
X104126428Y-49165000D01*
X104095476Y-49195952D01*
X104064523Y-49257857D01*
X104064523Y-49350714D01*
X104095476Y-49412619D01*
X104126428Y-49443571D01*
X104188333Y-49474523D01*
X104435952Y-49474523D01*
X103445476Y-49784047D02*
X103816904Y-49784047D01*
X103631190Y-49784047D02*
X103631190Y-49134047D01*
X103693095Y-49226904D01*
X103755000Y-49288809D01*
X103816904Y-49319761D01*
X102702619Y-49598333D02*
X102393095Y-49598333D01*
X102764523Y-49784047D02*
X102547857Y-49134047D01*
X102331190Y-49784047D01*
X55038571Y-44822142D02*
X55069523Y-44853095D01*
X55162380Y-44884047D01*
X55224285Y-44884047D01*
X55317142Y-44853095D01*
X55379047Y-44791190D01*
X55410000Y-44729285D01*
X55440952Y-44605476D01*
X55440952Y-44512619D01*
X55410000Y-44388809D01*
X55379047Y-44326904D01*
X55317142Y-44265000D01*
X55224285Y-44234047D01*
X55162380Y-44234047D01*
X55069523Y-44265000D01*
X55038571Y-44295952D01*
X54790952Y-44698333D02*
X54481428Y-44698333D01*
X54852857Y-44884047D02*
X54636190Y-44234047D01*
X54419523Y-44884047D01*
X54202857Y-44884047D02*
X54202857Y-44234047D01*
X53831428Y-44884047D01*
X53831428Y-44234047D01*
X52717142Y-44884047D02*
X53026666Y-44884047D01*
X53026666Y-44234047D01*
X46496428Y-49365000D02*
X46558333Y-49334047D01*
X46651190Y-49334047D01*
X46744047Y-49365000D01*
X46805952Y-49426904D01*
X46836904Y-49488809D01*
X46867857Y-49612619D01*
X46867857Y-49705476D01*
X46836904Y-49829285D01*
X46805952Y-49891190D01*
X46744047Y-49953095D01*
X46651190Y-49984047D01*
X46589285Y-49984047D01*
X46496428Y-49953095D01*
X46465476Y-49922142D01*
X46465476Y-49705476D01*
X46589285Y-49705476D01*
X46186904Y-49984047D02*
X46186904Y-49334047D01*
X45939285Y-49334047D01*
X45877381Y-49365000D01*
X45846428Y-49395952D01*
X45815476Y-49457857D01*
X45815476Y-49550714D01*
X45846428Y-49612619D01*
X45877381Y-49643571D01*
X45939285Y-49674523D01*
X46186904Y-49674523D01*
X45536904Y-49984047D02*
X45536904Y-49334047D01*
X45258333Y-49395952D02*
X45227381Y-49365000D01*
X45165476Y-49334047D01*
X45010714Y-49334047D01*
X44948809Y-49365000D01*
X44917857Y-49395952D01*
X44886904Y-49457857D01*
X44886904Y-49519761D01*
X44917857Y-49612619D01*
X45289285Y-49984047D01*
X44886904Y-49984047D01*
X89341333Y-46625000D02*
X89403238Y-46594047D01*
X89496095Y-46594047D01*
X89588952Y-46625000D01*
X89650857Y-46686904D01*
X89681809Y-46748809D01*
X89712761Y-46872619D01*
X89712761Y-46965476D01*
X89681809Y-47089285D01*
X89650857Y-47151190D01*
X89588952Y-47213095D01*
X89496095Y-47244047D01*
X89434190Y-47244047D01*
X89341333Y-47213095D01*
X89310380Y-47182142D01*
X89310380Y-46965476D01*
X89434190Y-46965476D01*
X88660380Y-47244047D02*
X88877047Y-46934523D01*
X89031809Y-47244047D02*
X89031809Y-46594047D01*
X88784190Y-46594047D01*
X88722285Y-46625000D01*
X88691333Y-46655952D01*
X88660380Y-46717857D01*
X88660380Y-46810714D01*
X88691333Y-46872619D01*
X88722285Y-46903571D01*
X88784190Y-46934523D01*
X89031809Y-46934523D01*
X88381809Y-46903571D02*
X88165142Y-46903571D01*
X88072285Y-47244047D02*
X88381809Y-47244047D01*
X88381809Y-46594047D01*
X88072285Y-46594047D01*
X87793714Y-46903571D02*
X87577047Y-46903571D01*
X87484190Y-47244047D02*
X87793714Y-47244047D01*
X87793714Y-46594047D01*
X87484190Y-46594047D01*
X87205619Y-47244047D02*
X87205619Y-46594047D01*
X86834190Y-47244047D01*
X86834190Y-46594047D01*
X105715476Y-47244047D02*
X105715476Y-46594047D01*
X105065476Y-46625000D02*
X105127380Y-46594047D01*
X105220238Y-46594047D01*
X105313095Y-46625000D01*
X105375000Y-46686904D01*
X105405952Y-46748809D01*
X105436904Y-46872619D01*
X105436904Y-46965476D01*
X105405952Y-47089285D01*
X105375000Y-47151190D01*
X105313095Y-47213095D01*
X105220238Y-47244047D01*
X105158333Y-47244047D01*
X105065476Y-47213095D01*
X105034523Y-47182142D01*
X105034523Y-46965476D01*
X105158333Y-46965476D01*
X104755952Y-47244047D02*
X104755952Y-46594047D01*
X104384523Y-47244047D01*
X104384523Y-46594047D01*
X29475238Y-49325000D02*
X29537142Y-49294047D01*
X29630000Y-49294047D01*
X29722857Y-49325000D01*
X29784761Y-49386904D01*
X29815714Y-49448809D01*
X29846666Y-49572619D01*
X29846666Y-49665476D01*
X29815714Y-49789285D01*
X29784761Y-49851190D01*
X29722857Y-49913095D01*
X29630000Y-49944047D01*
X29568095Y-49944047D01*
X29475238Y-49913095D01*
X29444285Y-49882142D01*
X29444285Y-49665476D01*
X29568095Y-49665476D01*
X29165714Y-49944047D02*
X29165714Y-49294047D01*
X28794285Y-49944047D01*
X28794285Y-49294047D01*
X28484761Y-49944047D02*
X28484761Y-49294047D01*
X28330000Y-49294047D01*
X28237142Y-49325000D01*
X28175238Y-49386904D01*
X28144285Y-49448809D01*
X28113333Y-49572619D01*
X28113333Y-49665476D01*
X28144285Y-49789285D01*
X28175238Y-49851190D01*
X28237142Y-49913095D01*
X28330000Y-49944047D01*
X28484761Y-49944047D01*
%LPC*%
D12*
%TO.C,J6*%
X26000000Y-96070000D03*
D13*
X26000000Y-97340000D03*
X26000000Y-98610000D03*
X26000000Y-99880000D03*
X26000000Y-101150000D03*
X26000000Y-102420000D03*
%TD*%
D12*
%TO.C,J5*%
X60155000Y-110850000D03*
D13*
X61425000Y-110850000D03*
X62695000Y-110850000D03*
X63965000Y-110850000D03*
X65235000Y-110850000D03*
%TD*%
D14*
%TO.C,J4*%
X84025000Y-45040000D03*
D15*
X88215000Y-45040000D03*
X92405000Y-45040000D03*
X96595000Y-45040000D03*
X100785000Y-45040000D03*
X104975000Y-45040000D03*
X104975000Y-51390000D03*
X100785000Y-51390000D03*
X96595000Y-51390000D03*
X92405000Y-51390000D03*
X88215000Y-51390000D03*
X84025000Y-51390000D03*
D14*
X49975000Y-51390000D03*
D15*
X45785000Y-51390000D03*
X41595000Y-51390000D03*
X37405000Y-51390000D03*
X33215000Y-51390000D03*
X29025000Y-51390000D03*
X29025000Y-45040000D03*
X33215000Y-45040000D03*
X37405000Y-45040000D03*
X41595000Y-45040000D03*
X45785000Y-45040000D03*
X49975000Y-45040000D03*
%TD*%
D16*
%TO.C,TC2*%
X28210000Y-100166000D03*
X33290000Y-99150000D03*
X28210000Y-98134000D03*
%TD*%
D12*
%TO.C,J3*%
X47610000Y-61150000D03*
D13*
X47610000Y-62420000D03*
X47610000Y-63690000D03*
X47610000Y-64960000D03*
%TD*%
M02*
