%TF.GenerationSoftware,KiCad,Pcbnew,(6.0.2)*%
%TF.CreationDate,2022-07-01T10:37:28-06:00*%
%TF.ProjectId,RGB-controller,5247422d-636f-46e7-9472-6f6c6c65722e,B*%
%TF.SameCoordinates,Original*%
%TF.FileFunction,Copper,L2,Inr*%
%TF.FilePolarity,Positive*%
%FSLAX46Y46*%
G04 Gerber Fmt 4.6, Leading zero omitted, Abs format (unit mm)*
G04 Created by KiCad (PCBNEW (6.0.2)) date 2022-07-01 10:37:28*
%MOMM*%
%LPD*%
G01*
G04 APERTURE LIST*
%TA.AperFunction,ComponentPad*%
%ADD10R,1.000000X1.000000*%
%TD*%
%TA.AperFunction,ComponentPad*%
%ADD11O,1.000000X1.000000*%
%TD*%
%TA.AperFunction,ComponentPad*%
%ADD12R,0.900000X0.500000*%
%TD*%
%TA.AperFunction,ComponentPad*%
%ADD13C,2.000000*%
%TD*%
%TA.AperFunction,ComponentPad*%
%ADD14C,0.900000*%
%TD*%
%TA.AperFunction,ComponentPad*%
%ADD15C,12.800000*%
%TD*%
%TA.AperFunction,ComponentPad*%
%ADD16C,0.600000*%
%TD*%
%TA.AperFunction,ComponentPad*%
%ADD17C,0.500000*%
%TD*%
%TA.AperFunction,ViaPad*%
%ADD18C,0.800000*%
%TD*%
%TA.AperFunction,ViaPad*%
%ADD19C,0.450000*%
%TD*%
G04 APERTURE END LIST*
D10*
%TO.N,GND*%
%TO.C,J101*%
X34920000Y-105820000D03*
D11*
%TO.N,unconnected-(J101-Pad2)*%
X34920000Y-107090000D03*
%TO.N,/ESP32-S3/U0TXD*%
X34920000Y-108360000D03*
%TO.N,/ESP32-S3/U0RXD*%
X34920000Y-109630000D03*
%TO.N,/CS1*%
X34920000Y-110900000D03*
%TO.N,/ESP32-S3/CHIP_PU*%
X34920000Y-112170000D03*
%TD*%
D12*
%TO.N,GND*%
%TO.C,AE101*%
X54488501Y-131844999D03*
%TD*%
D13*
%TO.N,/Connectors/RGB1_GND*%
%TO.C,J201*%
X59179404Y-60680432D03*
%TO.N,/Connectors/RGB1_R*%
X63329404Y-60680432D03*
%TO.N,/Connectors/RGB1_G*%
X66659404Y-60680432D03*
%TO.N,/Connectors/RGB1_B*%
X69989404Y-60680432D03*
%TO.N,/Connectors/RGB2_R*%
X73319404Y-60680432D03*
%TO.N,/Connectors/RGB2_G*%
X76649404Y-60680432D03*
%TO.N,/Connectors/RGB2_B*%
X79979404Y-60680432D03*
%TO.N,/Connectors/RGB2_GND*%
X84129404Y-60680432D03*
%TO.N,/Connectors/RGB2_12V*%
X59179404Y-56480432D03*
%TO.N,/Connectors/IGNITION*%
X63329404Y-56480432D03*
%TO.N,/CAN_H*%
X66659404Y-56480432D03*
%TO.N,/CAN_L*%
X69989404Y-56480432D03*
%TO.N,GND*%
X73319404Y-56480432D03*
%TO.N,/Connectors/USB_D_N*%
X76649404Y-56480432D03*
%TO.N,/Connectors/USB_D_P*%
X79979404Y-56480432D03*
%TO.N,/Connectors/USB_VBUS*%
X84129404Y-56480432D03*
%TO.N,/Connectors/RGB1_12V*%
X59179404Y-52280432D03*
%TO.N,/Connectors/DI_1*%
X63329404Y-52280432D03*
%TO.N,/Connectors/DI_2*%
X66659404Y-52280432D03*
%TO.N,/Connectors/DI_3*%
X69989404Y-52280432D03*
%TO.N,/Connectors/DI_4*%
X73319404Y-52280432D03*
%TO.N,/Connectors/PIXEL_2*%
X76649404Y-52280432D03*
%TO.N,/Connectors/PIXEL_1*%
X79979404Y-52280432D03*
%TO.N,/Connectors/VBATT*%
X84129404Y-52280432D03*
%TD*%
D10*
%TO.N,+3V3*%
%TO.C,J202*%
X65255000Y-120450000D03*
D11*
%TO.N,GND*%
X66525000Y-120450000D03*
%TO.N,/SCLK*%
X67795000Y-120450000D03*
%TO.N,/MISO*%
X69065000Y-120450000D03*
%TO.N,/MOSI*%
X70335000Y-120450000D03*
%TD*%
D14*
%TO.N,GND*%
%TO.C,H202*%
X45590000Y-130400000D03*
X37395887Y-133794113D03*
X44184113Y-127005887D03*
X35990000Y-130400000D03*
X37395887Y-127005887D03*
X40790000Y-135200000D03*
X40790000Y-125600000D03*
D15*
X40790000Y-130400000D03*
D14*
X44184113Y-133794113D03*
%TD*%
D16*
%TO.N,GND*%
%TO.C,U101*%
X58883122Y-104200000D03*
X57080000Y-106003122D03*
X57080000Y-102396878D03*
X55276878Y-104200000D03*
%TD*%
D14*
%TO.N,GND*%
%TO.C,H201*%
X107530000Y-130400000D03*
X106124113Y-127005887D03*
D15*
X102730000Y-130400000D03*
D14*
X102730000Y-125600000D03*
X97930000Y-130400000D03*
X106124113Y-133794113D03*
X102730000Y-135200000D03*
X99335887Y-133794113D03*
X99335887Y-127005887D03*
%TD*%
D17*
%TO.N,GND*%
%TO.C,U501*%
X82295000Y-108340000D03*
X79395000Y-106890000D03*
X79395000Y-108340000D03*
X80845000Y-108340000D03*
X79395000Y-105440000D03*
X80845000Y-106890000D03*
X82295000Y-106890000D03*
X82295000Y-105440000D03*
X80845000Y-105440000D03*
%TD*%
D18*
%TO.N,/Connectors/VBATT*%
X50020000Y-77270000D03*
X48770000Y-77270000D03*
X47520000Y-77270000D03*
X51320000Y-77270000D03*
X50070000Y-73220000D03*
X47570000Y-73220000D03*
X51370000Y-73220000D03*
X48820000Y-73220000D03*
X50070000Y-71970000D03*
X51370000Y-71970000D03*
X48820000Y-71970000D03*
X47570000Y-71970000D03*
%TO.N,GND*%
X58560000Y-79100000D03*
X58560000Y-78070000D03*
X58610000Y-81200000D03*
X58610000Y-80170000D03*
X59810000Y-81200000D03*
X59810000Y-80170000D03*
X59810000Y-79100000D03*
X59810000Y-78070000D03*
%TO.N,/External-IO/CUR_SENSE_2*%
X44470000Y-78720000D03*
%TO.N,/External-IO/CUR_SENSE_1*%
X42570000Y-78720000D03*
%TO.N,/External-IO/CUR_SENSE_2*%
X50770000Y-61770000D03*
%TO.N,/External-IO/CUR_SENSE_1*%
X49170000Y-61270000D03*
%TO.N,/Connectors/RGB2_GND*%
X52070000Y-64270000D03*
%TO.N,/Connectors/RGB1_GND*%
X49670000Y-63320000D03*
%TO.N,+3V3*%
X51049503Y-58970000D03*
%TO.N,GND*%
X50070000Y-58970000D03*
D19*
X98870000Y-109045000D03*
X99028334Y-97445000D03*
X67020000Y-95410000D03*
X56720000Y-114170000D03*
X57018815Y-120070000D03*
X86520000Y-104370000D03*
D18*
X54420000Y-96960000D03*
X105650000Y-68150000D03*
D19*
X99020000Y-93170000D03*
D18*
X100070000Y-96432500D03*
X94291523Y-63815500D03*
X98840000Y-87200925D03*
D19*
X97120000Y-102020000D03*
D18*
X104150000Y-63650000D03*
D19*
X57018815Y-118570000D03*
X93303334Y-97445000D03*
X97120000Y-95220000D03*
D18*
X99870000Y-110070000D03*
D19*
X93295000Y-91345000D03*
X59530000Y-113290000D03*
X89295000Y-107970000D03*
D18*
X91870000Y-91982500D03*
X104150000Y-66650000D03*
D19*
X89295000Y-106270000D03*
D18*
X105610000Y-82900000D03*
D19*
X98870000Y-110945000D03*
X57018815Y-121570000D03*
X90320000Y-106045000D03*
D18*
X100070000Y-103070000D03*
X107510000Y-87170000D03*
D19*
X56122445Y-113771622D03*
D18*
X100070000Y-94220000D03*
D19*
X71345000Y-112750000D03*
X97120000Y-97445000D03*
D18*
X82610000Y-96270000D03*
D19*
X57018815Y-126070000D03*
X82604999Y-100780000D03*
D18*
X35870000Y-103770000D03*
D19*
X87495000Y-108820000D03*
D18*
X98760000Y-47430000D03*
D19*
X58221185Y-111830000D03*
D18*
X102140000Y-81780000D03*
D19*
X89295000Y-102770000D03*
X57070000Y-110410000D03*
X86170000Y-102845000D03*
D18*
X96950000Y-82850000D03*
X91870000Y-100832500D03*
X105230000Y-52210000D03*
X99845000Y-111745000D03*
D19*
X57018815Y-127570000D03*
D18*
X96230000Y-55150000D03*
X90540000Y-60518815D03*
D19*
X89295000Y-105320000D03*
D18*
X78480000Y-96280000D03*
D19*
X80725000Y-97570000D03*
X95203333Y-91345000D03*
X97120000Y-99795000D03*
X58560000Y-116120000D03*
D18*
X100070000Y-89795000D03*
X104150000Y-68150000D03*
X62360000Y-74470000D03*
D19*
X58121185Y-120070000D03*
D18*
X91870000Y-98620000D03*
X105650000Y-63650000D03*
D19*
X97111666Y-91345000D03*
X49820000Y-112160000D03*
X95211667Y-95220000D03*
D18*
X74970000Y-116070000D03*
X104150000Y-65150000D03*
X75470000Y-106270000D03*
D19*
X56720000Y-116140000D03*
X100165000Y-104395000D03*
D18*
X102650000Y-66650000D03*
D19*
X58121185Y-126070000D03*
X58121185Y-129070000D03*
X55472445Y-114181622D03*
D18*
X95970000Y-89770000D03*
D19*
X56720000Y-115150000D03*
D18*
X91870000Y-94195000D03*
D19*
X58560000Y-117130000D03*
X66080000Y-97930000D03*
D18*
X100070000Y-92007500D03*
X55550000Y-97350000D03*
D19*
X57070000Y-113300000D03*
X78265000Y-111310000D03*
X93295000Y-93170000D03*
D18*
X93920000Y-89770000D03*
D19*
X57070000Y-111116666D03*
X50470000Y-112690000D03*
X58570000Y-115130000D03*
X58221185Y-112550000D03*
X57070000Y-112530000D03*
D18*
X59810000Y-74470000D03*
X86960000Y-67410000D03*
D19*
X95203333Y-93170000D03*
D18*
X102650000Y-63650000D03*
X108010000Y-66430000D03*
D19*
X58221185Y-110390000D03*
D18*
X59810000Y-75500000D03*
D19*
X57018815Y-123070000D03*
D18*
X105420000Y-81860000D03*
D19*
X55492445Y-115171622D03*
X59030000Y-114150000D03*
X53800000Y-129220000D03*
X84545000Y-108820000D03*
D18*
X102650000Y-68150000D03*
X85575001Y-97530000D03*
D19*
X55830000Y-111770000D03*
X97165000Y-104370000D03*
D18*
X102650000Y-65150000D03*
X91470000Y-108270000D03*
D19*
X58121185Y-123070000D03*
D18*
X100070000Y-100857500D03*
D19*
X52490000Y-112670000D03*
X55502445Y-116181622D03*
D18*
X62360000Y-75500000D03*
D19*
X57070000Y-111823332D03*
X97111666Y-93170000D03*
D18*
X78870000Y-120270000D03*
X101780000Y-55810000D03*
D19*
X99028334Y-102020000D03*
X61130000Y-114450000D03*
X61990000Y-112110000D03*
X90320000Y-105320000D03*
D18*
X96670000Y-61094571D03*
X42030000Y-100350000D03*
D19*
X58121185Y-121570000D03*
X93303334Y-102020000D03*
D18*
X107850000Y-49570000D03*
X102780000Y-55810000D03*
X105650000Y-66650000D03*
D19*
X93303334Y-95220000D03*
X58121185Y-118570000D03*
X51630000Y-116660000D03*
X58121185Y-124570000D03*
X95211667Y-97445000D03*
X99028334Y-95220000D03*
D18*
X97813750Y-111745000D03*
D19*
X79345000Y-101310000D03*
D18*
X91870000Y-96407500D03*
X108310000Y-54200000D03*
D19*
X86170000Y-103870000D03*
X58221185Y-113270000D03*
X58210000Y-131150000D03*
X98295000Y-65595000D03*
X95211667Y-99795000D03*
X57018815Y-124570000D03*
X99028334Y-99795000D03*
X95211667Y-102020000D03*
X93303334Y-99795000D03*
X58221185Y-111110000D03*
D18*
X100070000Y-98645000D03*
D19*
X99020000Y-91345000D03*
X58121185Y-127570000D03*
D18*
X99895000Y-107995000D03*
D19*
X48710000Y-116460000D03*
X49500000Y-105950000D03*
D18*
X105650000Y-65150000D03*
X91870000Y-89770000D03*
X95782500Y-111745000D03*
X94690180Y-81730677D03*
X108780000Y-81630000D03*
X98020000Y-89770000D03*
D19*
X59310000Y-115150000D03*
D18*
X97370000Y-116270000D03*
D19*
X54430000Y-111960000D03*
D18*
%TO.N,+3V3*%
X97420000Y-114270000D03*
D19*
X50450000Y-105930000D03*
D18*
X56242613Y-98042613D03*
X87040000Y-69340000D03*
D19*
X60500000Y-111450000D03*
X59510000Y-111340000D03*
X65120000Y-95410000D03*
X37970000Y-97970000D03*
D18*
X93770000Y-85870000D03*
X100780000Y-55610000D03*
X108020000Y-59410000D03*
X102420000Y-85420000D03*
D19*
X61100000Y-115420000D03*
D18*
X51470000Y-66270000D03*
X101780000Y-54610000D03*
X106520000Y-81820000D03*
X48820000Y-66270000D03*
X85575000Y-99439999D03*
D19*
X63930000Y-111200000D03*
D18*
X54430097Y-95980550D03*
D19*
X65110000Y-97920000D03*
D18*
X100780000Y-54610000D03*
X97870000Y-81820000D03*
X40780000Y-95550000D03*
X36870000Y-103770000D03*
X102780000Y-54610000D03*
X55750000Y-109560000D03*
D19*
X95040000Y-108870000D03*
X79225000Y-111310000D03*
%TO.N,/MISO*%
X43320000Y-103384500D03*
%TO.N,/SCLK*%
X44510000Y-102375500D03*
%TO.N,/MOSI*%
X42520000Y-103370000D03*
%TO.N,/ESP32-S3/CHIP_PU*%
X62240000Y-109650000D03*
%TO.N,/ESP32-S3/SPICS0*%
X52916736Y-98587575D03*
D18*
X40800000Y-96550000D03*
%TO.N,/Connectors/DI_1*%
X94700000Y-82720000D03*
%TO.N,/Connectors/DI_2*%
X100060000Y-82720000D03*
%TO.N,/Connectors/DI_3*%
X103270000Y-82730000D03*
%TO.N,/Connectors/DI_4*%
X108760000Y-82730000D03*
%TO.N,/Connectors/PIXEL_2*%
X87380000Y-54910000D03*
X103580000Y-78990000D03*
%TO.N,/Connectors/PIXEL_1*%
X103550000Y-75000000D03*
X87380000Y-53840000D03*
%TO.N,/Connectors/IGNITION*%
X106870000Y-59350000D03*
D19*
%TO.N,/Connectors/USB_D_P*%
X95170000Y-60570000D03*
D18*
X59781077Y-92689974D03*
D19*
%TO.N,/Connectors/USB_D_N*%
X95170000Y-61270000D03*
D18*
X60523541Y-93432438D03*
D19*
%TO.N,/SX1231/RX_TX*%
X84770000Y-109970000D03*
X96045000Y-108870000D03*
%TO.N,/SX1231/DIO0*%
X72570000Y-107370000D03*
%TO.N,/SX1231/NRESET*%
X71801625Y-107270000D03*
D18*
%TO.N,/Connectors/RGB1_GND*%
X59995000Y-68520000D03*
X76860000Y-69680000D03*
X59995000Y-64120000D03*
X58720000Y-68520000D03*
X75590000Y-70690000D03*
X58720000Y-66770000D03*
X72540000Y-69680000D03*
X58720000Y-64120000D03*
X73790000Y-69680000D03*
X75580000Y-69680000D03*
X72550000Y-70690000D03*
X59995000Y-65270000D03*
X58720000Y-65270000D03*
X70000000Y-70690000D03*
X70000000Y-69680000D03*
X71250000Y-69680000D03*
%TO.N,/Connectors/RGB2_GND*%
X83740000Y-69640000D03*
X64895000Y-66770000D03*
X63620000Y-68495000D03*
X66045000Y-68495000D03*
X81210000Y-69650000D03*
X78110000Y-69670000D03*
X78110000Y-70700000D03*
X62395000Y-68495000D03*
X64895000Y-68495000D03*
X79440000Y-69670000D03*
X81200000Y-70700000D03*
X67170000Y-68495000D03*
X66045000Y-66770000D03*
X82470000Y-69650000D03*
X83740000Y-70700000D03*
D19*
%TO.N,/CS1*%
X81770000Y-112170000D03*
X64070000Y-109740000D03*
X75270000Y-112170000D03*
%TO.N,/ESP32-S3/I2S_SCK*%
X36004995Y-100671517D03*
X45470000Y-101720000D03*
%TO.N,/SX1231/ANT*%
X97170000Y-108870000D03*
%TD*%
%TA.AperFunction,Conductor*%
%TO.N,GND*%
G36*
X86036525Y-45250434D02*
G01*
X86083018Y-45304090D01*
X86094404Y-45356432D01*
X86094404Y-47021942D01*
X86094402Y-47022712D01*
X86093936Y-47098988D01*
X86096400Y-47107611D01*
X86096401Y-47107616D01*
X86101887Y-47126811D01*
X86105464Y-47143569D01*
X86109566Y-47172209D01*
X86113281Y-47180379D01*
X86113281Y-47180380D01*
X86119953Y-47195055D01*
X86126401Y-47212582D01*
X86133293Y-47236697D01*
X86148736Y-47261172D01*
X86156870Y-47276248D01*
X86168846Y-47302588D01*
X86174702Y-47309384D01*
X86174704Y-47309387D01*
X86185219Y-47321589D01*
X86196332Y-47336607D01*
X86209719Y-47357825D01*
X86231406Y-47376978D01*
X86243447Y-47389167D01*
X86262336Y-47411089D01*
X86269865Y-47415969D01*
X86269866Y-47415970D01*
X86283395Y-47424739D01*
X86298268Y-47436029D01*
X86310337Y-47446687D01*
X86317070Y-47452633D01*
X86343263Y-47464931D01*
X86358230Y-47473245D01*
X86382521Y-47488989D01*
X86391123Y-47491561D01*
X86391124Y-47491562D01*
X86394543Y-47492584D01*
X86406563Y-47496179D01*
X86424001Y-47502838D01*
X86433115Y-47507117D01*
X86438593Y-47509689D01*
X86438595Y-47509690D01*
X86446715Y-47513502D01*
X86455579Y-47514882D01*
X86455582Y-47514883D01*
X86471829Y-47517412D01*
X86475303Y-47517953D01*
X86492020Y-47521736D01*
X86511139Y-47527454D01*
X86511145Y-47527455D01*
X86519739Y-47530025D01*
X86528708Y-47530080D01*
X86528710Y-47530080D01*
X86538925Y-47530142D01*
X86553620Y-47530232D01*
X86554367Y-47530263D01*
X86555451Y-47530432D01*
X86585914Y-47530432D01*
X86586685Y-47530434D01*
X86662960Y-47530900D01*
X86664287Y-47530521D01*
X86665593Y-47530432D01*
X88685914Y-47530432D01*
X88686685Y-47530434D01*
X88762960Y-47530900D01*
X88771583Y-47528436D01*
X88771588Y-47528435D01*
X88790783Y-47522949D01*
X88807541Y-47519372D01*
X88827296Y-47516543D01*
X88827299Y-47516542D01*
X88836181Y-47515270D01*
X88848456Y-47509689D01*
X88859027Y-47504883D01*
X88876554Y-47498435D01*
X88892038Y-47494010D01*
X88892040Y-47494009D01*
X88900669Y-47491543D01*
X88925144Y-47476100D01*
X88940220Y-47467966D01*
X88958391Y-47459704D01*
X88966560Y-47455990D01*
X88973356Y-47450134D01*
X88973359Y-47450132D01*
X88985561Y-47439617D01*
X89000579Y-47428504D01*
X89014205Y-47419907D01*
X89021797Y-47415117D01*
X89040950Y-47393430D01*
X89053139Y-47381389D01*
X89075061Y-47362500D01*
X89088711Y-47341441D01*
X89100001Y-47326568D01*
X89110659Y-47314499D01*
X89110660Y-47314498D01*
X89116605Y-47307766D01*
X89128903Y-47281573D01*
X89137217Y-47266606D01*
X89152961Y-47242315D01*
X89160151Y-47218273D01*
X89166810Y-47200835D01*
X89177474Y-47178121D01*
X89181925Y-47149533D01*
X89185708Y-47132816D01*
X89191426Y-47113697D01*
X89191427Y-47113691D01*
X89193997Y-47105097D01*
X89194204Y-47071216D01*
X89194235Y-47070469D01*
X89194404Y-47069385D01*
X89194404Y-47038922D01*
X89194406Y-47038152D01*
X89194848Y-46965762D01*
X89194872Y-46961876D01*
X89194493Y-46960549D01*
X89194404Y-46959243D01*
X89194404Y-45356432D01*
X89214406Y-45288311D01*
X89268062Y-45241818D01*
X89320404Y-45230432D01*
X109695700Y-45230432D01*
X109715084Y-45231932D01*
X109729359Y-45234155D01*
X109729362Y-45234155D01*
X109738232Y-45235536D01*
X109748832Y-45234150D01*
X109777514Y-45233693D01*
X109832290Y-45239088D01*
X109878372Y-45243627D01*
X109902597Y-45248446D01*
X110019539Y-45283920D01*
X110042359Y-45293372D01*
X110150136Y-45350980D01*
X110170674Y-45364703D01*
X110265141Y-45442230D01*
X110282606Y-45459695D01*
X110360133Y-45554162D01*
X110373856Y-45574700D01*
X110431464Y-45682477D01*
X110440916Y-45705297D01*
X110476390Y-45822239D01*
X110481209Y-45846464D01*
X110490486Y-45940652D01*
X110490041Y-45956407D01*
X110490791Y-45956416D01*
X110490681Y-45965390D01*
X110489300Y-45974262D01*
X110490464Y-45983164D01*
X110490464Y-45983167D01*
X110493340Y-46005158D01*
X110494404Y-46021495D01*
X110494403Y-48541479D01*
X110494404Y-104094000D01*
X110474402Y-104162121D01*
X110420746Y-104208614D01*
X110368404Y-104220000D01*
X106671000Y-104220000D01*
X106602879Y-104199998D01*
X106556386Y-104146342D01*
X106545000Y-104094000D01*
X106545000Y-102946000D01*
X106565002Y-102877879D01*
X106618658Y-102831386D01*
X106671000Y-102820000D01*
X110145000Y-102820000D01*
X110145000Y-90520000D01*
X101045000Y-90520000D01*
X101045000Y-105420000D01*
X106545000Y-105420000D01*
X106545000Y-105346000D01*
X106565002Y-105277879D01*
X106618658Y-105231386D01*
X106671000Y-105220000D01*
X107419000Y-105220000D01*
X107487121Y-105240002D01*
X107533614Y-105293658D01*
X107545000Y-105346000D01*
X107545000Y-106694000D01*
X107524998Y-106762121D01*
X107471342Y-106808614D01*
X107419000Y-106820000D01*
X106671000Y-106820000D01*
X106602879Y-106799998D01*
X106556386Y-106746342D01*
X106545000Y-106694000D01*
X106545000Y-106620000D01*
X101045000Y-106620000D01*
X101045000Y-111020000D01*
X109345000Y-111020000D01*
X109345000Y-110420000D01*
X106671000Y-110420000D01*
X106602879Y-110399998D01*
X106556386Y-110346342D01*
X106545000Y-110294000D01*
X106545000Y-107246000D01*
X106565002Y-107177879D01*
X106618658Y-107131386D01*
X106671000Y-107120000D01*
X110368404Y-107120000D01*
X110436525Y-107140002D01*
X110483018Y-107193658D01*
X110494404Y-107246000D01*
X110494404Y-135431729D01*
X110492904Y-135451113D01*
X110489300Y-135474261D01*
X110491234Y-135489052D01*
X110491977Y-135514374D01*
X110477234Y-135720492D01*
X110474676Y-135738286D01*
X110425433Y-135964658D01*
X110420370Y-135981902D01*
X110354407Y-136158755D01*
X110339408Y-136198969D01*
X110331939Y-136215322D01*
X110220916Y-136418644D01*
X110211197Y-136433767D01*
X110072363Y-136619227D01*
X110060590Y-136632813D01*
X109896785Y-136796618D01*
X109883199Y-136808391D01*
X109697739Y-136947225D01*
X109682619Y-136956942D01*
X109479290Y-137067969D01*
X109462946Y-137075434D01*
X109245874Y-137156398D01*
X109228635Y-137161459D01*
X109061900Y-137197730D01*
X109002258Y-137210704D01*
X108984464Y-137213262D01*
X108785349Y-137227503D01*
X108768422Y-137226800D01*
X108768422Y-137226819D01*
X108759446Y-137226709D01*
X108750575Y-137225328D01*
X108741673Y-137226492D01*
X108741670Y-137226492D01*
X108719679Y-137229368D01*
X108703342Y-137230432D01*
X35043107Y-137230432D01*
X35023723Y-137228932D01*
X35009447Y-137226709D01*
X35009445Y-137226709D01*
X35000575Y-137225328D01*
X34991672Y-137226492D01*
X34991669Y-137226492D01*
X34984761Y-137227395D01*
X34960185Y-137228189D01*
X34851296Y-137221052D01*
X34741594Y-137213862D01*
X34725254Y-137211711D01*
X34484866Y-137163895D01*
X34468945Y-137159629D01*
X34236856Y-137080845D01*
X34221630Y-137074538D01*
X34001812Y-136966136D01*
X33987538Y-136957895D01*
X33783746Y-136821726D01*
X33770671Y-136811693D01*
X33766906Y-136808391D01*
X33586392Y-136650085D01*
X33574751Y-136638444D01*
X33413143Y-136454165D01*
X33403110Y-136441090D01*
X33266941Y-136237298D01*
X33258700Y-136223024D01*
X33150298Y-136003206D01*
X33143991Y-135987980D01*
X33065207Y-135755891D01*
X33060941Y-135739970D01*
X33013125Y-135499582D01*
X33010974Y-135483242D01*
X32997346Y-135275322D01*
X32998504Y-135252450D01*
X32998152Y-135252418D01*
X32998586Y-135247580D01*
X32999395Y-135242774D01*
X32999546Y-135230432D01*
X32995677Y-135203416D01*
X32994404Y-135185554D01*
X32994404Y-120969748D01*
X64554500Y-120969748D01*
X64566133Y-121028231D01*
X64610448Y-121094552D01*
X64676769Y-121138867D01*
X64688938Y-121141288D01*
X64688939Y-121141288D01*
X64718601Y-121147188D01*
X64735252Y-121150500D01*
X65774748Y-121150500D01*
X65791399Y-121147188D01*
X65821061Y-121141288D01*
X65821062Y-121141288D01*
X65833231Y-121138867D01*
X65899552Y-121094552D01*
X65943867Y-121028231D01*
X65955500Y-120969748D01*
X65955500Y-120442611D01*
X67089394Y-120442611D01*
X67107999Y-120611135D01*
X67166266Y-120770356D01*
X67170502Y-120776659D01*
X67170502Y-120776660D01*
X67183574Y-120796113D01*
X67260830Y-120911083D01*
X67266442Y-120916190D01*
X67266445Y-120916193D01*
X67380612Y-121020077D01*
X67380616Y-121020080D01*
X67386233Y-121025191D01*
X67392906Y-121028814D01*
X67392910Y-121028817D01*
X67528558Y-121102467D01*
X67528560Y-121102468D01*
X67535235Y-121106092D01*
X67542584Y-121108020D01*
X67691883Y-121147188D01*
X67691885Y-121147188D01*
X67699233Y-121149116D01*
X67785609Y-121150473D01*
X67861161Y-121151660D01*
X67861164Y-121151660D01*
X67868760Y-121151779D01*
X67876165Y-121150083D01*
X67876166Y-121150083D01*
X67936586Y-121136245D01*
X68034029Y-121113928D01*
X68185498Y-121037747D01*
X68314423Y-120927634D01*
X68326504Y-120910821D01*
X68382497Y-120867174D01*
X68453201Y-120860727D01*
X68516166Y-120893529D01*
X68524207Y-120902014D01*
X68526594Y-120904780D01*
X68530830Y-120911083D01*
X68536446Y-120916193D01*
X68536449Y-120916196D01*
X68650612Y-121020077D01*
X68650616Y-121020080D01*
X68656233Y-121025191D01*
X68662906Y-121028814D01*
X68662910Y-121028817D01*
X68798558Y-121102467D01*
X68798560Y-121102468D01*
X68805235Y-121106092D01*
X68812584Y-121108020D01*
X68961883Y-121147188D01*
X68961885Y-121147188D01*
X68969233Y-121149116D01*
X69055609Y-121150473D01*
X69131161Y-121151660D01*
X69131164Y-121151660D01*
X69138760Y-121151779D01*
X69146165Y-121150083D01*
X69146166Y-121150083D01*
X69206586Y-121136245D01*
X69304029Y-121113928D01*
X69455498Y-121037747D01*
X69584423Y-120927634D01*
X69596504Y-120910821D01*
X69652497Y-120867174D01*
X69723201Y-120860727D01*
X69786166Y-120893529D01*
X69794207Y-120902014D01*
X69796594Y-120904780D01*
X69800830Y-120911083D01*
X69806446Y-120916193D01*
X69806449Y-120916196D01*
X69920612Y-121020077D01*
X69920616Y-121020080D01*
X69926233Y-121025191D01*
X69932906Y-121028814D01*
X69932910Y-121028817D01*
X70068558Y-121102467D01*
X70068560Y-121102468D01*
X70075235Y-121106092D01*
X70082584Y-121108020D01*
X70231883Y-121147188D01*
X70231885Y-121147188D01*
X70239233Y-121149116D01*
X70325609Y-121150473D01*
X70401161Y-121151660D01*
X70401164Y-121151660D01*
X70408760Y-121151779D01*
X70416165Y-121150083D01*
X70416166Y-121150083D01*
X70476586Y-121136245D01*
X70574029Y-121113928D01*
X70725498Y-121037747D01*
X70854423Y-120927634D01*
X70953361Y-120789947D01*
X70961237Y-120770356D01*
X71013766Y-120639687D01*
X71013767Y-120639685D01*
X71016601Y-120632634D01*
X71040490Y-120464778D01*
X71040645Y-120450000D01*
X71038840Y-120435080D01*
X71021188Y-120289220D01*
X71020276Y-120281680D01*
X70960345Y-120123077D01*
X70880641Y-120007107D01*
X70868614Y-119989608D01*
X70868613Y-119989607D01*
X70864312Y-119983349D01*
X70804718Y-119930252D01*
X70743392Y-119875612D01*
X70743388Y-119875610D01*
X70737721Y-119870560D01*
X70587881Y-119791224D01*
X70423441Y-119749919D01*
X70415843Y-119749879D01*
X70415841Y-119749879D01*
X70338668Y-119749475D01*
X70253895Y-119749031D01*
X70246508Y-119750805D01*
X70246504Y-119750805D01*
X70103162Y-119785220D01*
X70089032Y-119788612D01*
X70082288Y-119792093D01*
X70082285Y-119792094D01*
X69947905Y-119861453D01*
X69938369Y-119866375D01*
X69932647Y-119871367D01*
X69932645Y-119871368D01*
X69927780Y-119875612D01*
X69810604Y-119977831D01*
X69806237Y-119984045D01*
X69806235Y-119984047D01*
X69803574Y-119987833D01*
X69748039Y-120032064D01*
X69677407Y-120039249D01*
X69614103Y-120007107D01*
X69603837Y-119995133D01*
X69603639Y-119995308D01*
X69598613Y-119989608D01*
X69594312Y-119983349D01*
X69534718Y-119930252D01*
X69473392Y-119875612D01*
X69473388Y-119875610D01*
X69467721Y-119870560D01*
X69317881Y-119791224D01*
X69153441Y-119749919D01*
X69145843Y-119749879D01*
X69145841Y-119749879D01*
X69068668Y-119749475D01*
X68983895Y-119749031D01*
X68976508Y-119750805D01*
X68976504Y-119750805D01*
X68833162Y-119785220D01*
X68819032Y-119788612D01*
X68812288Y-119792093D01*
X68812285Y-119792094D01*
X68677905Y-119861453D01*
X68668369Y-119866375D01*
X68662647Y-119871367D01*
X68662645Y-119871368D01*
X68657780Y-119875612D01*
X68540604Y-119977831D01*
X68536237Y-119984045D01*
X68536235Y-119984047D01*
X68533574Y-119987833D01*
X68478039Y-120032064D01*
X68407407Y-120039249D01*
X68344103Y-120007107D01*
X68333837Y-119995133D01*
X68333639Y-119995308D01*
X68328613Y-119989608D01*
X68324312Y-119983349D01*
X68264718Y-119930252D01*
X68203392Y-119875612D01*
X68203388Y-119875610D01*
X68197721Y-119870560D01*
X68047881Y-119791224D01*
X67883441Y-119749919D01*
X67875843Y-119749879D01*
X67875841Y-119749879D01*
X67798668Y-119749475D01*
X67713895Y-119749031D01*
X67706508Y-119750805D01*
X67706504Y-119750805D01*
X67563162Y-119785220D01*
X67549032Y-119788612D01*
X67542288Y-119792093D01*
X67542285Y-119792094D01*
X67407905Y-119861453D01*
X67398369Y-119866375D01*
X67392647Y-119871367D01*
X67392645Y-119871368D01*
X67387780Y-119875612D01*
X67270604Y-119977831D01*
X67173113Y-120116547D01*
X67111524Y-120274513D01*
X67089394Y-120442611D01*
X65955500Y-120442611D01*
X65955500Y-119930252D01*
X65943867Y-119871769D01*
X65899552Y-119805448D01*
X65833231Y-119761133D01*
X65821062Y-119758712D01*
X65821061Y-119758712D01*
X65780816Y-119750707D01*
X65774748Y-119749500D01*
X64735252Y-119749500D01*
X64729184Y-119750707D01*
X64688939Y-119758712D01*
X64688938Y-119758712D01*
X64676769Y-119761133D01*
X64610448Y-119805448D01*
X64566133Y-119871769D01*
X64554500Y-119930252D01*
X64554500Y-120969748D01*
X32994404Y-120969748D01*
X32994404Y-115420000D01*
X60669196Y-115420000D01*
X60690281Y-115553126D01*
X60751472Y-115673220D01*
X60846780Y-115768528D01*
X60966874Y-115829719D01*
X60976663Y-115831269D01*
X60976665Y-115831270D01*
X61090207Y-115849253D01*
X61100000Y-115850804D01*
X61109793Y-115849253D01*
X61223335Y-115831270D01*
X61223337Y-115831269D01*
X61233126Y-115829719D01*
X61353220Y-115768528D01*
X61448528Y-115673220D01*
X61509719Y-115553126D01*
X61530804Y-115420000D01*
X61509719Y-115286874D01*
X61448528Y-115166780D01*
X61353220Y-115071472D01*
X61233126Y-115010281D01*
X61223337Y-115008731D01*
X61223335Y-115008730D01*
X61109793Y-114990747D01*
X61100000Y-114989196D01*
X61090207Y-114990747D01*
X60976665Y-115008730D01*
X60976663Y-115008731D01*
X60966874Y-115010281D01*
X60846780Y-115071472D01*
X60751472Y-115166780D01*
X60690281Y-115286874D01*
X60669196Y-115420000D01*
X32994404Y-115420000D01*
X32994404Y-114270000D01*
X96814318Y-114270000D01*
X96834956Y-114426762D01*
X96895464Y-114572841D01*
X96991718Y-114698282D01*
X97117159Y-114794536D01*
X97263238Y-114855044D01*
X97420000Y-114875682D01*
X97428188Y-114874604D01*
X97568574Y-114856122D01*
X97576762Y-114855044D01*
X97722841Y-114794536D01*
X97848282Y-114698282D01*
X97944536Y-114572841D01*
X98005044Y-114426762D01*
X98025682Y-114270000D01*
X98005044Y-114113238D01*
X97944536Y-113967159D01*
X97848282Y-113841718D01*
X97722841Y-113745464D01*
X97576762Y-113684956D01*
X97420000Y-113664318D01*
X97263238Y-113684956D01*
X97117159Y-113745464D01*
X96991718Y-113841718D01*
X96895464Y-113967159D01*
X96834956Y-114113238D01*
X96814318Y-114270000D01*
X32994404Y-114270000D01*
X32994404Y-112162611D01*
X34214394Y-112162611D01*
X34232999Y-112331135D01*
X34291266Y-112490356D01*
X34295502Y-112496659D01*
X34295502Y-112496660D01*
X34308574Y-112516113D01*
X34385830Y-112631083D01*
X34391442Y-112636190D01*
X34391445Y-112636193D01*
X34505612Y-112740077D01*
X34505616Y-112740080D01*
X34511233Y-112745191D01*
X34517906Y-112748814D01*
X34517910Y-112748817D01*
X34653558Y-112822467D01*
X34653560Y-112822468D01*
X34660235Y-112826092D01*
X34667584Y-112828020D01*
X34816883Y-112867188D01*
X34816885Y-112867188D01*
X34824233Y-112869116D01*
X34910609Y-112870473D01*
X34986161Y-112871660D01*
X34986164Y-112871660D01*
X34993760Y-112871779D01*
X35001165Y-112870083D01*
X35001166Y-112870083D01*
X35061586Y-112856245D01*
X35159029Y-112833928D01*
X35310498Y-112757747D01*
X35439423Y-112647634D01*
X35538361Y-112509947D01*
X35546237Y-112490356D01*
X35598766Y-112359687D01*
X35598767Y-112359685D01*
X35601601Y-112352634D01*
X35625490Y-112184778D01*
X35625645Y-112170000D01*
X74839196Y-112170000D01*
X74860281Y-112303126D01*
X74921472Y-112423220D01*
X75016780Y-112518528D01*
X75136874Y-112579719D01*
X75146663Y-112581269D01*
X75146665Y-112581270D01*
X75260207Y-112599253D01*
X75270000Y-112600804D01*
X75279793Y-112599253D01*
X75393335Y-112581270D01*
X75393337Y-112581269D01*
X75403126Y-112579719D01*
X75523220Y-112518528D01*
X75618528Y-112423220D01*
X75679719Y-112303126D01*
X75700804Y-112170000D01*
X81339196Y-112170000D01*
X81360281Y-112303126D01*
X81421472Y-112423220D01*
X81516780Y-112518528D01*
X81636874Y-112579719D01*
X81646663Y-112581269D01*
X81646665Y-112581270D01*
X81760207Y-112599253D01*
X81770000Y-112600804D01*
X81779793Y-112599253D01*
X81893335Y-112581270D01*
X81893337Y-112581269D01*
X81903126Y-112579719D01*
X82023220Y-112518528D01*
X82118528Y-112423220D01*
X82179719Y-112303126D01*
X82200804Y-112170000D01*
X82179719Y-112036874D01*
X82118528Y-111916780D01*
X82023220Y-111821472D01*
X81903126Y-111760281D01*
X81893337Y-111758731D01*
X81893335Y-111758730D01*
X81779793Y-111740747D01*
X81770000Y-111739196D01*
X81760207Y-111740747D01*
X81646665Y-111758730D01*
X81646663Y-111758731D01*
X81636874Y-111760281D01*
X81516780Y-111821472D01*
X81421472Y-111916780D01*
X81360281Y-112036874D01*
X81339196Y-112170000D01*
X75700804Y-112170000D01*
X75679719Y-112036874D01*
X75618528Y-111916780D01*
X75523220Y-111821472D01*
X75403126Y-111760281D01*
X75393337Y-111758731D01*
X75393335Y-111758730D01*
X75279793Y-111740747D01*
X75270000Y-111739196D01*
X75260207Y-111740747D01*
X75146665Y-111758730D01*
X75146663Y-111758731D01*
X75136874Y-111760281D01*
X75016780Y-111821472D01*
X74921472Y-111916780D01*
X74860281Y-112036874D01*
X74839196Y-112170000D01*
X35625645Y-112170000D01*
X35623840Y-112155080D01*
X35621004Y-112131653D01*
X35605276Y-112001680D01*
X35545345Y-111843077D01*
X35487375Y-111758730D01*
X35453614Y-111709608D01*
X35453613Y-111709607D01*
X35449312Y-111703349D01*
X35439255Y-111694388D01*
X35365663Y-111628820D01*
X35328107Y-111568570D01*
X35329088Y-111497580D01*
X35367652Y-111438933D01*
X35433648Y-111382567D01*
X35433651Y-111382564D01*
X35439423Y-111377634D01*
X35466466Y-111340000D01*
X59079196Y-111340000D01*
X59080747Y-111349793D01*
X59098239Y-111460231D01*
X59100281Y-111473126D01*
X59161472Y-111593220D01*
X59256780Y-111688528D01*
X59376874Y-111749719D01*
X59386663Y-111751269D01*
X59386665Y-111751270D01*
X59500207Y-111769253D01*
X59510000Y-111770804D01*
X59519793Y-111769253D01*
X59633335Y-111751270D01*
X59633337Y-111751269D01*
X59643126Y-111749719D01*
X59763220Y-111688528D01*
X59858528Y-111593220D01*
X59863275Y-111583904D01*
X59864940Y-111580637D01*
X59868466Y-111576904D01*
X59868861Y-111576360D01*
X59868931Y-111576411D01*
X59913688Y-111529022D01*
X59982603Y-111511957D01*
X60049805Y-111534858D01*
X60088754Y-111583904D01*
X60090281Y-111583126D01*
X60151472Y-111703220D01*
X60246780Y-111798528D01*
X60366874Y-111859719D01*
X60376663Y-111861269D01*
X60376665Y-111861270D01*
X60490207Y-111879253D01*
X60500000Y-111880804D01*
X60509793Y-111879253D01*
X60623335Y-111861270D01*
X60623337Y-111861269D01*
X60633126Y-111859719D01*
X60753220Y-111798528D01*
X60848528Y-111703220D01*
X60909719Y-111583126D01*
X60911762Y-111570231D01*
X60929253Y-111459793D01*
X60930804Y-111450000D01*
X60920124Y-111382567D01*
X60911270Y-111326665D01*
X60911269Y-111326663D01*
X60909719Y-111316874D01*
X60850169Y-111200000D01*
X63499196Y-111200000D01*
X63500747Y-111209793D01*
X63507930Y-111255142D01*
X63520281Y-111333126D01*
X63581472Y-111453220D01*
X63676780Y-111548528D01*
X63796874Y-111609719D01*
X63806663Y-111611269D01*
X63806665Y-111611270D01*
X63920207Y-111629253D01*
X63930000Y-111630804D01*
X63939793Y-111629253D01*
X64053335Y-111611270D01*
X64053337Y-111611269D01*
X64063126Y-111609719D01*
X64183220Y-111548528D01*
X64278528Y-111453220D01*
X64339719Y-111333126D01*
X64343382Y-111310000D01*
X78794196Y-111310000D01*
X78795747Y-111319793D01*
X78800499Y-111349793D01*
X78815281Y-111443126D01*
X78876472Y-111563220D01*
X78971780Y-111658528D01*
X79091874Y-111719719D01*
X79101663Y-111721269D01*
X79101665Y-111721270D01*
X79215207Y-111739253D01*
X79225000Y-111740804D01*
X79234793Y-111739253D01*
X79348335Y-111721270D01*
X79348337Y-111721269D01*
X79358126Y-111719719D01*
X79478220Y-111658528D01*
X79573528Y-111563220D01*
X79634719Y-111443126D01*
X79649502Y-111349793D01*
X79654253Y-111319793D01*
X79655804Y-111310000D01*
X79648040Y-111260978D01*
X79636270Y-111186665D01*
X79636269Y-111186663D01*
X79634719Y-111176874D01*
X79573528Y-111056780D01*
X79478220Y-110961472D01*
X79358126Y-110900281D01*
X79348337Y-110898731D01*
X79348335Y-110898730D01*
X79234793Y-110880747D01*
X79225000Y-110879196D01*
X79215207Y-110880747D01*
X79101665Y-110898730D01*
X79101663Y-110898731D01*
X79091874Y-110900281D01*
X78971780Y-110961472D01*
X78876472Y-111056780D01*
X78815281Y-111176874D01*
X78813731Y-111186663D01*
X78813730Y-111186665D01*
X78801960Y-111260978D01*
X78794196Y-111310000D01*
X64343382Y-111310000D01*
X64352071Y-111255142D01*
X64359253Y-111209793D01*
X64360804Y-111200000D01*
X64342215Y-111082634D01*
X64341270Y-111076665D01*
X64341269Y-111076663D01*
X64339719Y-111066874D01*
X64278528Y-110946780D01*
X64183220Y-110851472D01*
X64063126Y-110790281D01*
X64053337Y-110788731D01*
X64053335Y-110788730D01*
X63939793Y-110770747D01*
X63930000Y-110769196D01*
X63920207Y-110770747D01*
X63806665Y-110788730D01*
X63806663Y-110788731D01*
X63796874Y-110790281D01*
X63676780Y-110851472D01*
X63581472Y-110946780D01*
X63520281Y-111066874D01*
X63518731Y-111076663D01*
X63518730Y-111076665D01*
X63517785Y-111082634D01*
X63499196Y-111200000D01*
X60850169Y-111200000D01*
X60848528Y-111196780D01*
X60753220Y-111101472D01*
X60633126Y-111040281D01*
X60623337Y-111038731D01*
X60623335Y-111038730D01*
X60509793Y-111020747D01*
X60500000Y-111019196D01*
X60490207Y-111020747D01*
X60376665Y-111038730D01*
X60376663Y-111038731D01*
X60366874Y-111040281D01*
X60246780Y-111101472D01*
X60151472Y-111196780D01*
X60146972Y-111205612D01*
X60146970Y-111205615D01*
X60145060Y-111209363D01*
X60141534Y-111213096D01*
X60141139Y-111213640D01*
X60141069Y-111213589D01*
X60096312Y-111260978D01*
X60027397Y-111278043D01*
X59960195Y-111255142D01*
X59921246Y-111206096D01*
X59919719Y-111206874D01*
X59863028Y-111095612D01*
X59858528Y-111086780D01*
X59763220Y-110991472D01*
X59643126Y-110930281D01*
X59633337Y-110928731D01*
X59633335Y-110928730D01*
X59519793Y-110910747D01*
X59510000Y-110909196D01*
X59500207Y-110910747D01*
X59386665Y-110928730D01*
X59386663Y-110928731D01*
X59376874Y-110930281D01*
X59256780Y-110991472D01*
X59161472Y-111086780D01*
X59100281Y-111206874D01*
X59098731Y-111216663D01*
X59098730Y-111216665D01*
X59082859Y-111316874D01*
X59079196Y-111340000D01*
X35466466Y-111340000D01*
X35538361Y-111239947D01*
X35546237Y-111220356D01*
X35598766Y-111089687D01*
X35598767Y-111089685D01*
X35601601Y-111082634D01*
X35614575Y-110991472D01*
X35624909Y-110918862D01*
X35624909Y-110918859D01*
X35625490Y-110914778D01*
X35625645Y-110900000D01*
X35623840Y-110885080D01*
X35612912Y-110794782D01*
X35605276Y-110731680D01*
X35545345Y-110573077D01*
X35449312Y-110433349D01*
X35437558Y-110422876D01*
X35365663Y-110358820D01*
X35328107Y-110298570D01*
X35329088Y-110227580D01*
X35367652Y-110168933D01*
X35433648Y-110112567D01*
X35433651Y-110112564D01*
X35439423Y-110107634D01*
X35538361Y-109969947D01*
X35541194Y-109962900D01*
X35598766Y-109819687D01*
X35598767Y-109819685D01*
X35601601Y-109812634D01*
X35625490Y-109644778D01*
X35625645Y-109630000D01*
X35624069Y-109616972D01*
X35617174Y-109560000D01*
X55144318Y-109560000D01*
X55164956Y-109716762D01*
X55225464Y-109862841D01*
X55321718Y-109988282D01*
X55447159Y-110084536D01*
X55593238Y-110145044D01*
X55750000Y-110165682D01*
X55758188Y-110164604D01*
X55898574Y-110146122D01*
X55906762Y-110145044D01*
X56052841Y-110084536D01*
X56178282Y-109988282D01*
X56274536Y-109862841D01*
X56335044Y-109716762D01*
X56343833Y-109650000D01*
X61809196Y-109650000D01*
X61810747Y-109659793D01*
X61825002Y-109749793D01*
X61830281Y-109783126D01*
X61891472Y-109903220D01*
X61986780Y-109998528D01*
X62106874Y-110059719D01*
X62116663Y-110061269D01*
X62116665Y-110061270D01*
X62230207Y-110079253D01*
X62240000Y-110080804D01*
X62249793Y-110079253D01*
X62363335Y-110061270D01*
X62363337Y-110061269D01*
X62373126Y-110059719D01*
X62493220Y-109998528D01*
X62588528Y-109903220D01*
X62649719Y-109783126D01*
X62654999Y-109749793D01*
X62656550Y-109740000D01*
X63639196Y-109740000D01*
X63640747Y-109749793D01*
X63657444Y-109855211D01*
X63660281Y-109873126D01*
X63721472Y-109993220D01*
X63816780Y-110088528D01*
X63936874Y-110149719D01*
X63946663Y-110151269D01*
X63946665Y-110151270D01*
X64060207Y-110169253D01*
X64070000Y-110170804D01*
X64079793Y-110169253D01*
X64193335Y-110151270D01*
X64193337Y-110151269D01*
X64203126Y-110149719D01*
X64323220Y-110088528D01*
X64418528Y-109993220D01*
X64430359Y-109970000D01*
X84339196Y-109970000D01*
X84340747Y-109979793D01*
X84358682Y-110093028D01*
X84360281Y-110103126D01*
X84421472Y-110223220D01*
X84516780Y-110318528D01*
X84636874Y-110379719D01*
X84646663Y-110381269D01*
X84646665Y-110381270D01*
X84760207Y-110399253D01*
X84770000Y-110400804D01*
X84779793Y-110399253D01*
X84893335Y-110381270D01*
X84893337Y-110381269D01*
X84903126Y-110379719D01*
X85023220Y-110318528D01*
X85118528Y-110223220D01*
X85179719Y-110103126D01*
X85181319Y-110093028D01*
X85199253Y-109979793D01*
X85200804Y-109970000D01*
X85185461Y-109873126D01*
X85181270Y-109846665D01*
X85181269Y-109846663D01*
X85179719Y-109836874D01*
X85118528Y-109716780D01*
X85023220Y-109621472D01*
X84903126Y-109560281D01*
X84893337Y-109558731D01*
X84893335Y-109558730D01*
X84779793Y-109540747D01*
X84770000Y-109539196D01*
X84760207Y-109540747D01*
X84646665Y-109558730D01*
X84646663Y-109558731D01*
X84636874Y-109560281D01*
X84516780Y-109621472D01*
X84421472Y-109716780D01*
X84360281Y-109836874D01*
X84358731Y-109846663D01*
X84358730Y-109846665D01*
X84354539Y-109873126D01*
X84339196Y-109970000D01*
X64430359Y-109970000D01*
X64479719Y-109873126D01*
X64482557Y-109855211D01*
X64499253Y-109749793D01*
X64500804Y-109740000D01*
X64497126Y-109716780D01*
X64481270Y-109616665D01*
X64481269Y-109616663D01*
X64479719Y-109606874D01*
X64418528Y-109486780D01*
X64323220Y-109391472D01*
X64203126Y-109330281D01*
X64193337Y-109328731D01*
X64193335Y-109328730D01*
X64079793Y-109310747D01*
X64070000Y-109309196D01*
X64060207Y-109310747D01*
X63946665Y-109328730D01*
X63946663Y-109328731D01*
X63936874Y-109330281D01*
X63816780Y-109391472D01*
X63721472Y-109486780D01*
X63660281Y-109606874D01*
X63658731Y-109616663D01*
X63658730Y-109616665D01*
X63642874Y-109716780D01*
X63639196Y-109740000D01*
X62656550Y-109740000D01*
X62669253Y-109659793D01*
X62670804Y-109650000D01*
X62656594Y-109560281D01*
X62651270Y-109526665D01*
X62651269Y-109526663D01*
X62649719Y-109516874D01*
X62588528Y-109396780D01*
X62493220Y-109301472D01*
X62373126Y-109240281D01*
X62363337Y-109238731D01*
X62363335Y-109238730D01*
X62249793Y-109220747D01*
X62240000Y-109219196D01*
X62230207Y-109220747D01*
X62116665Y-109238730D01*
X62116663Y-109238731D01*
X62106874Y-109240281D01*
X61986780Y-109301472D01*
X61891472Y-109396780D01*
X61830281Y-109516874D01*
X61828731Y-109526663D01*
X61828730Y-109526665D01*
X61823406Y-109560281D01*
X61809196Y-109650000D01*
X56343833Y-109650000D01*
X56355682Y-109560000D01*
X56341794Y-109454513D01*
X56336122Y-109411426D01*
X56335044Y-109403238D01*
X56274536Y-109257159D01*
X56178282Y-109131718D01*
X56052841Y-109035464D01*
X55906762Y-108974956D01*
X55750000Y-108954318D01*
X55593238Y-108974956D01*
X55447159Y-109035464D01*
X55321718Y-109131718D01*
X55225464Y-109257159D01*
X55164956Y-109403238D01*
X55163878Y-109411426D01*
X55158206Y-109454513D01*
X55144318Y-109560000D01*
X35617174Y-109560000D01*
X35606188Y-109469220D01*
X35605276Y-109461680D01*
X35545345Y-109303077D01*
X35501120Y-109238730D01*
X35453614Y-109169608D01*
X35453613Y-109169607D01*
X35449312Y-109163349D01*
X35421158Y-109138264D01*
X35365663Y-109088820D01*
X35328107Y-109028570D01*
X35329088Y-108957580D01*
X35367652Y-108898933D01*
X35401528Y-108870000D01*
X94609196Y-108870000D01*
X94610747Y-108879793D01*
X94625649Y-108973878D01*
X94630281Y-109003126D01*
X94691472Y-109123220D01*
X94786780Y-109218528D01*
X94906874Y-109279719D01*
X94916663Y-109281269D01*
X94916665Y-109281270D01*
X95030207Y-109299253D01*
X95040000Y-109300804D01*
X95049793Y-109299253D01*
X95163335Y-109281270D01*
X95163337Y-109281269D01*
X95173126Y-109279719D01*
X95293220Y-109218528D01*
X95388528Y-109123220D01*
X95430233Y-109041369D01*
X95478981Y-108989754D01*
X95547896Y-108972688D01*
X95615098Y-108995589D01*
X95654767Y-109041368D01*
X95696472Y-109123220D01*
X95791780Y-109218528D01*
X95911874Y-109279719D01*
X95921663Y-109281269D01*
X95921665Y-109281270D01*
X96035207Y-109299253D01*
X96045000Y-109300804D01*
X96054793Y-109299253D01*
X96168335Y-109281270D01*
X96168337Y-109281269D01*
X96178126Y-109279719D01*
X96298220Y-109218528D01*
X96393528Y-109123220D01*
X96454719Y-109003126D01*
X96459352Y-108973878D01*
X96474253Y-108879793D01*
X96475804Y-108870000D01*
X96739196Y-108870000D01*
X96740747Y-108879793D01*
X96755649Y-108973878D01*
X96760281Y-109003126D01*
X96821472Y-109123220D01*
X96916780Y-109218528D01*
X97036874Y-109279719D01*
X97046663Y-109281269D01*
X97046665Y-109281270D01*
X97160207Y-109299253D01*
X97170000Y-109300804D01*
X97179793Y-109299253D01*
X97293335Y-109281270D01*
X97293337Y-109281269D01*
X97303126Y-109279719D01*
X97423220Y-109218528D01*
X97518528Y-109123220D01*
X97579719Y-109003126D01*
X97584352Y-108973878D01*
X97599253Y-108879793D01*
X97600804Y-108870000D01*
X97595678Y-108837634D01*
X97581270Y-108746665D01*
X97581269Y-108746663D01*
X97579719Y-108736874D01*
X97518528Y-108616780D01*
X97423220Y-108521472D01*
X97303126Y-108460281D01*
X97293337Y-108458731D01*
X97293335Y-108458730D01*
X97179793Y-108440747D01*
X97170000Y-108439196D01*
X97160207Y-108440747D01*
X97046665Y-108458730D01*
X97046663Y-108458731D01*
X97036874Y-108460281D01*
X96916780Y-108521472D01*
X96821472Y-108616780D01*
X96760281Y-108736874D01*
X96758731Y-108746663D01*
X96758730Y-108746665D01*
X96744322Y-108837634D01*
X96739196Y-108870000D01*
X96475804Y-108870000D01*
X96470678Y-108837634D01*
X96456270Y-108746665D01*
X96456269Y-108746663D01*
X96454719Y-108736874D01*
X96393528Y-108616780D01*
X96298220Y-108521472D01*
X96178126Y-108460281D01*
X96168337Y-108458731D01*
X96168335Y-108458730D01*
X96054793Y-108440747D01*
X96045000Y-108439196D01*
X96035207Y-108440747D01*
X95921665Y-108458730D01*
X95921663Y-108458731D01*
X95911874Y-108460281D01*
X95791780Y-108521472D01*
X95696472Y-108616780D01*
X95660867Y-108686660D01*
X95654767Y-108698631D01*
X95606019Y-108750246D01*
X95537104Y-108767312D01*
X95469902Y-108744411D01*
X95430233Y-108698631D01*
X95424134Y-108686660D01*
X95388528Y-108616780D01*
X95293220Y-108521472D01*
X95173126Y-108460281D01*
X95163337Y-108458731D01*
X95163335Y-108458730D01*
X95049793Y-108440747D01*
X95040000Y-108439196D01*
X95030207Y-108440747D01*
X94916665Y-108458730D01*
X94916663Y-108458731D01*
X94906874Y-108460281D01*
X94786780Y-108521472D01*
X94691472Y-108616780D01*
X94630281Y-108736874D01*
X94628731Y-108746663D01*
X94628730Y-108746665D01*
X94614322Y-108837634D01*
X94609196Y-108870000D01*
X35401528Y-108870000D01*
X35433648Y-108842567D01*
X35433651Y-108842564D01*
X35439423Y-108837634D01*
X35538361Y-108699947D01*
X35546237Y-108680356D01*
X35598766Y-108549687D01*
X35598767Y-108549685D01*
X35601601Y-108542634D01*
X35625490Y-108374778D01*
X35625645Y-108360000D01*
X35623840Y-108345080D01*
X35606188Y-108199220D01*
X35605276Y-108191680D01*
X35545345Y-108033077D01*
X35449312Y-107893349D01*
X35365663Y-107818820D01*
X35328107Y-107758570D01*
X35329088Y-107687580D01*
X35367652Y-107628933D01*
X35433648Y-107572567D01*
X35433651Y-107572564D01*
X35439423Y-107567634D01*
X35538361Y-107429947D01*
X35546237Y-107410356D01*
X35598766Y-107279687D01*
X35598767Y-107279685D01*
X35601601Y-107272634D01*
X35601976Y-107270000D01*
X71370821Y-107270000D01*
X71391906Y-107403126D01*
X71453097Y-107523220D01*
X71548405Y-107618528D01*
X71668499Y-107679719D01*
X71678288Y-107681269D01*
X71678290Y-107681270D01*
X71791832Y-107699253D01*
X71801625Y-107700804D01*
X71811418Y-107699253D01*
X71924960Y-107681270D01*
X71924962Y-107681269D01*
X71934751Y-107679719D01*
X72054845Y-107618528D01*
X72061056Y-107612317D01*
X72127326Y-107588669D01*
X72196479Y-107604746D01*
X72223620Y-107625368D01*
X72316780Y-107718528D01*
X72436874Y-107779719D01*
X72446663Y-107781269D01*
X72446665Y-107781270D01*
X72560207Y-107799253D01*
X72570000Y-107800804D01*
X72579793Y-107799253D01*
X72693335Y-107781270D01*
X72693337Y-107781269D01*
X72703126Y-107779719D01*
X72823220Y-107718528D01*
X72918528Y-107623220D01*
X72979719Y-107503126D01*
X72991310Y-107429947D01*
X72999253Y-107379793D01*
X73000804Y-107370000D01*
X72979719Y-107236874D01*
X72918528Y-107116780D01*
X72823220Y-107021472D01*
X72703126Y-106960281D01*
X72693337Y-106958731D01*
X72693335Y-106958730D01*
X72579793Y-106940747D01*
X72570000Y-106939196D01*
X72560207Y-106940747D01*
X72446665Y-106958730D01*
X72446663Y-106958731D01*
X72436874Y-106960281D01*
X72316780Y-107021472D01*
X72310569Y-107027683D01*
X72244299Y-107051331D01*
X72175146Y-107035254D01*
X72148005Y-107014632D01*
X72054845Y-106921472D01*
X71934751Y-106860281D01*
X71924962Y-106858731D01*
X71924960Y-106858730D01*
X71811418Y-106840747D01*
X71801625Y-106839196D01*
X71791832Y-106840747D01*
X71678290Y-106858730D01*
X71678288Y-106858731D01*
X71668499Y-106860281D01*
X71548405Y-106921472D01*
X71453097Y-107016780D01*
X71391906Y-107136874D01*
X71390356Y-107146663D01*
X71390355Y-107146665D01*
X71374622Y-107246000D01*
X71370821Y-107270000D01*
X35601976Y-107270000D01*
X35625490Y-107104778D01*
X35625645Y-107090000D01*
X35623840Y-107075080D01*
X35617352Y-107021472D01*
X35605276Y-106921680D01*
X35545345Y-106763077D01*
X35533843Y-106746342D01*
X35453614Y-106629608D01*
X35453613Y-106629607D01*
X35449312Y-106623349D01*
X35437514Y-106612837D01*
X35328392Y-106515612D01*
X35328388Y-106515610D01*
X35322721Y-106510560D01*
X35172881Y-106431224D01*
X35008441Y-106389919D01*
X35000843Y-106389879D01*
X35000841Y-106389879D01*
X34923668Y-106389475D01*
X34838895Y-106389031D01*
X34831508Y-106390805D01*
X34831504Y-106390805D01*
X34688162Y-106425220D01*
X34674032Y-106428612D01*
X34667288Y-106432093D01*
X34667285Y-106432094D01*
X34662089Y-106434776D01*
X34523369Y-106506375D01*
X34395604Y-106617831D01*
X34298113Y-106756547D01*
X34236524Y-106914513D01*
X34235532Y-106922046D01*
X34235532Y-106922047D01*
X34220629Y-107035254D01*
X34214394Y-107082611D01*
X34232999Y-107251135D01*
X34291266Y-107410356D01*
X34295502Y-107416659D01*
X34295502Y-107416660D01*
X34308574Y-107436113D01*
X34385830Y-107551083D01*
X34391446Y-107556193D01*
X34474958Y-107632184D01*
X34511880Y-107692824D01*
X34510157Y-107763800D01*
X34472987Y-107820326D01*
X34395604Y-107887831D01*
X34298113Y-108026547D01*
X34236524Y-108184513D01*
X34214394Y-108352611D01*
X34232999Y-108521135D01*
X34291266Y-108680356D01*
X34295502Y-108686659D01*
X34295502Y-108686660D01*
X34308574Y-108706113D01*
X34385830Y-108821083D01*
X34391446Y-108826193D01*
X34474958Y-108902184D01*
X34511880Y-108962824D01*
X34510157Y-109033800D01*
X34472987Y-109090326D01*
X34395604Y-109157831D01*
X34298113Y-109296547D01*
X34236524Y-109454513D01*
X34235532Y-109462046D01*
X34235532Y-109462047D01*
X34216466Y-109606874D01*
X34214394Y-109622611D01*
X34232999Y-109791135D01*
X34240867Y-109812634D01*
X34274017Y-109903220D01*
X34291266Y-109950356D01*
X34295502Y-109956659D01*
X34295502Y-109956660D01*
X34304466Y-109970000D01*
X34385830Y-110091083D01*
X34391446Y-110096193D01*
X34474958Y-110172184D01*
X34511880Y-110232824D01*
X34510157Y-110303800D01*
X34472987Y-110360326D01*
X34395604Y-110427831D01*
X34298113Y-110566547D01*
X34236524Y-110724513D01*
X34235532Y-110732046D01*
X34235532Y-110732047D01*
X34215956Y-110880747D01*
X34214394Y-110892611D01*
X34232999Y-111061135D01*
X34250326Y-111108483D01*
X34286048Y-111206096D01*
X34291266Y-111220356D01*
X34295502Y-111226659D01*
X34295502Y-111226660D01*
X34308574Y-111246113D01*
X34385830Y-111361083D01*
X34391446Y-111366193D01*
X34474958Y-111442184D01*
X34511880Y-111502824D01*
X34510157Y-111573800D01*
X34472987Y-111630326D01*
X34395604Y-111697831D01*
X34391237Y-111704045D01*
X34311871Y-111816972D01*
X34298113Y-111836547D01*
X34236524Y-111994513D01*
X34214394Y-112162611D01*
X32994404Y-112162611D01*
X32994404Y-105930000D01*
X50019196Y-105930000D01*
X50040281Y-106063126D01*
X50101472Y-106183220D01*
X50196780Y-106278528D01*
X50316874Y-106339719D01*
X50326663Y-106341269D01*
X50326665Y-106341270D01*
X50440207Y-106359253D01*
X50450000Y-106360804D01*
X50459793Y-106359253D01*
X50573335Y-106341270D01*
X50573337Y-106341269D01*
X50583126Y-106339719D01*
X50703220Y-106278528D01*
X50798528Y-106183220D01*
X50859719Y-106063126D01*
X50880804Y-105930000D01*
X50859719Y-105796874D01*
X50798528Y-105676780D01*
X50703220Y-105581472D01*
X50583126Y-105520281D01*
X50573337Y-105518731D01*
X50573335Y-105518730D01*
X50459793Y-105500747D01*
X50450000Y-105499196D01*
X50440207Y-105500747D01*
X50326665Y-105518730D01*
X50326663Y-105518731D01*
X50316874Y-105520281D01*
X50196780Y-105581472D01*
X50101472Y-105676780D01*
X50040281Y-105796874D01*
X50019196Y-105930000D01*
X32994404Y-105930000D01*
X32994404Y-103770000D01*
X36264318Y-103770000D01*
X36284956Y-103926762D01*
X36345464Y-104072841D01*
X36441718Y-104198282D01*
X36448264Y-104203305D01*
X36477918Y-104226059D01*
X36567159Y-104294536D01*
X36713238Y-104355044D01*
X36870000Y-104375682D01*
X36878188Y-104374604D01*
X37018574Y-104356122D01*
X37026762Y-104355044D01*
X37172841Y-104294536D01*
X37262082Y-104226059D01*
X37291736Y-104203305D01*
X37298282Y-104198282D01*
X37394536Y-104072841D01*
X37455044Y-103926762D01*
X37475682Y-103770000D01*
X37455044Y-103613238D01*
X37394536Y-103467159D01*
X37323595Y-103374707D01*
X37319983Y-103370000D01*
X42089196Y-103370000D01*
X42110281Y-103503126D01*
X42171472Y-103623220D01*
X42266780Y-103718528D01*
X42386874Y-103779719D01*
X42396663Y-103781269D01*
X42396665Y-103781270D01*
X42510207Y-103799253D01*
X42520000Y-103800804D01*
X42529793Y-103799253D01*
X42643335Y-103781270D01*
X42643337Y-103781269D01*
X42653126Y-103779719D01*
X42773220Y-103718528D01*
X42823655Y-103668093D01*
X42885967Y-103634067D01*
X42956782Y-103639132D01*
X43001845Y-103668093D01*
X43066780Y-103733028D01*
X43186874Y-103794219D01*
X43196663Y-103795769D01*
X43196665Y-103795770D01*
X43310207Y-103813753D01*
X43320000Y-103815304D01*
X43329793Y-103813753D01*
X43443335Y-103795770D01*
X43443337Y-103795769D01*
X43453126Y-103794219D01*
X43573220Y-103733028D01*
X43668528Y-103637720D01*
X43729719Y-103517626D01*
X43733567Y-103493335D01*
X43749253Y-103394293D01*
X43750804Y-103384500D01*
X43744028Y-103341718D01*
X43731270Y-103261165D01*
X43731269Y-103261163D01*
X43729719Y-103251374D01*
X43668528Y-103131280D01*
X43573220Y-103035972D01*
X43453126Y-102974781D01*
X43443337Y-102973231D01*
X43443335Y-102973230D01*
X43329793Y-102955247D01*
X43320000Y-102953696D01*
X43310207Y-102955247D01*
X43196665Y-102973230D01*
X43196663Y-102973231D01*
X43186874Y-102974781D01*
X43066780Y-103035972D01*
X43016345Y-103086407D01*
X42954033Y-103120433D01*
X42883218Y-103115368D01*
X42838155Y-103086407D01*
X42773220Y-103021472D01*
X42653126Y-102960281D01*
X42643337Y-102958731D01*
X42643335Y-102958730D01*
X42529793Y-102940747D01*
X42520000Y-102939196D01*
X42510207Y-102940747D01*
X42396665Y-102958730D01*
X42396663Y-102958731D01*
X42386874Y-102960281D01*
X42266780Y-103021472D01*
X42171472Y-103116780D01*
X42110281Y-103236874D01*
X42108731Y-103246663D01*
X42108730Y-103246665D01*
X42094471Y-103336695D01*
X42089196Y-103370000D01*
X37319983Y-103370000D01*
X37303305Y-103348264D01*
X37298282Y-103341718D01*
X37172841Y-103245464D01*
X37026762Y-103184956D01*
X36870000Y-103164318D01*
X36713238Y-103184956D01*
X36567159Y-103245464D01*
X36441718Y-103341718D01*
X36436695Y-103348264D01*
X36416405Y-103374707D01*
X36345464Y-103467159D01*
X36284956Y-103613238D01*
X36264318Y-103770000D01*
X32994404Y-103770000D01*
X32994404Y-102375500D01*
X44079196Y-102375500D01*
X44100281Y-102508626D01*
X44161472Y-102628720D01*
X44256780Y-102724028D01*
X44376874Y-102785219D01*
X44386663Y-102786769D01*
X44386665Y-102786770D01*
X44500207Y-102804753D01*
X44510000Y-102806304D01*
X44519793Y-102804753D01*
X44633335Y-102786770D01*
X44633337Y-102786769D01*
X44643126Y-102785219D01*
X44763220Y-102724028D01*
X44858528Y-102628720D01*
X44919719Y-102508626D01*
X44940804Y-102375500D01*
X44919719Y-102242374D01*
X44858528Y-102122280D01*
X44763220Y-102026972D01*
X44643126Y-101965781D01*
X44633337Y-101964231D01*
X44633335Y-101964230D01*
X44519793Y-101946247D01*
X44510000Y-101944696D01*
X44500207Y-101946247D01*
X44386665Y-101964230D01*
X44386663Y-101964231D01*
X44376874Y-101965781D01*
X44256780Y-102026972D01*
X44161472Y-102122280D01*
X44100281Y-102242374D01*
X44079196Y-102375500D01*
X32994404Y-102375500D01*
X32994404Y-101720000D01*
X45039196Y-101720000D01*
X45060281Y-101853126D01*
X45121472Y-101973220D01*
X45216780Y-102068528D01*
X45336874Y-102129719D01*
X45346663Y-102131269D01*
X45346665Y-102131270D01*
X45460207Y-102149253D01*
X45470000Y-102150804D01*
X45479793Y-102149253D01*
X45593335Y-102131270D01*
X45593337Y-102131269D01*
X45603126Y-102129719D01*
X45723220Y-102068528D01*
X45818528Y-101973220D01*
X45879719Y-101853126D01*
X45900804Y-101720000D01*
X45879719Y-101586874D01*
X45818528Y-101466780D01*
X45723220Y-101371472D01*
X45603126Y-101310281D01*
X45593337Y-101308731D01*
X45593335Y-101308730D01*
X45479793Y-101290747D01*
X45470000Y-101289196D01*
X45460207Y-101290747D01*
X45346665Y-101308730D01*
X45346663Y-101308731D01*
X45336874Y-101310281D01*
X45216780Y-101371472D01*
X45121472Y-101466780D01*
X45060281Y-101586874D01*
X45039196Y-101720000D01*
X32994404Y-101720000D01*
X32994404Y-100638624D01*
X34256031Y-100638624D01*
X34295428Y-100776471D01*
X34371930Y-100897720D01*
X34479388Y-100992623D01*
X34609163Y-101053553D01*
X34718009Y-101070500D01*
X34792940Y-101070500D01*
X34834339Y-101064571D01*
X34890032Y-101056596D01*
X34890035Y-101056595D01*
X34898918Y-101055323D01*
X35029428Y-100995984D01*
X35050766Y-100977598D01*
X35131237Y-100908260D01*
X35131240Y-100908257D01*
X35138037Y-100902400D01*
X35216015Y-100782095D01*
X35249085Y-100671517D01*
X35574191Y-100671517D01*
X35575742Y-100681310D01*
X35592899Y-100789633D01*
X35595276Y-100804643D01*
X35656467Y-100924737D01*
X35751775Y-101020045D01*
X35871869Y-101081236D01*
X35881658Y-101082786D01*
X35881660Y-101082787D01*
X35995202Y-101100770D01*
X36004995Y-101102321D01*
X36014788Y-101100770D01*
X36128330Y-101082787D01*
X36128332Y-101082786D01*
X36138121Y-101081236D01*
X36258215Y-101020045D01*
X36353523Y-100924737D01*
X36414714Y-100804643D01*
X36417092Y-100789633D01*
X36434248Y-100681310D01*
X36435799Y-100671517D01*
X36414714Y-100538391D01*
X36353523Y-100418297D01*
X36258215Y-100322989D01*
X36138121Y-100261798D01*
X36128332Y-100260248D01*
X36128330Y-100260247D01*
X36014788Y-100242264D01*
X36004995Y-100240713D01*
X35995202Y-100242264D01*
X35881660Y-100260247D01*
X35881658Y-100260248D01*
X35871869Y-100261798D01*
X35751775Y-100322989D01*
X35656467Y-100418297D01*
X35595276Y-100538391D01*
X35574191Y-100671517D01*
X35249085Y-100671517D01*
X35257093Y-100644739D01*
X35257969Y-100501376D01*
X35218572Y-100363529D01*
X35142070Y-100242280D01*
X35034612Y-100147377D01*
X34904837Y-100086447D01*
X34795991Y-100069500D01*
X34721060Y-100069500D01*
X34679661Y-100075429D01*
X34623968Y-100083404D01*
X34623965Y-100083405D01*
X34615082Y-100084677D01*
X34484572Y-100144016D01*
X34477768Y-100149878D01*
X34477769Y-100149878D01*
X34382763Y-100231740D01*
X34382760Y-100231743D01*
X34375963Y-100237600D01*
X34297985Y-100357905D01*
X34256907Y-100495261D01*
X34256031Y-100638624D01*
X32994404Y-100638624D01*
X32994404Y-99439999D01*
X84969318Y-99439999D01*
X84989956Y-99596761D01*
X85050464Y-99742840D01*
X85146718Y-99868281D01*
X85272159Y-99964535D01*
X85418238Y-100025043D01*
X85575000Y-100045681D01*
X85583188Y-100044603D01*
X85723574Y-100026121D01*
X85731762Y-100025043D01*
X85877841Y-99964535D01*
X86003282Y-99868281D01*
X86099536Y-99742840D01*
X86160044Y-99596761D01*
X86180682Y-99439999D01*
X86160044Y-99283237D01*
X86099536Y-99137158D01*
X86003282Y-99011717D01*
X85877841Y-98915463D01*
X85731762Y-98854955D01*
X85575000Y-98834317D01*
X85418238Y-98854955D01*
X85272159Y-98915463D01*
X85146718Y-99011717D01*
X85050464Y-99137158D01*
X84989956Y-99283237D01*
X84969318Y-99439999D01*
X32994404Y-99439999D01*
X32994404Y-98587575D01*
X52485932Y-98587575D01*
X52507017Y-98720701D01*
X52568208Y-98840795D01*
X52663516Y-98936103D01*
X52783610Y-98997294D01*
X52793399Y-98998844D01*
X52793401Y-98998845D01*
X52906943Y-99016828D01*
X52916736Y-99018379D01*
X52926529Y-99016828D01*
X53040071Y-98998845D01*
X53040073Y-98998844D01*
X53049862Y-98997294D01*
X53169956Y-98936103D01*
X53265264Y-98840795D01*
X53326455Y-98720701D01*
X53347540Y-98587575D01*
X53343509Y-98562122D01*
X53328006Y-98464240D01*
X53328005Y-98464238D01*
X53326455Y-98454449D01*
X53265264Y-98334355D01*
X53169956Y-98239047D01*
X53049862Y-98177856D01*
X53040073Y-98176306D01*
X53040071Y-98176305D01*
X52926529Y-98158322D01*
X52916736Y-98156771D01*
X52906943Y-98158322D01*
X52793401Y-98176305D01*
X52793399Y-98176306D01*
X52783610Y-98177856D01*
X52663516Y-98239047D01*
X52568208Y-98334355D01*
X52507017Y-98454449D01*
X52505467Y-98464238D01*
X52505466Y-98464240D01*
X52489963Y-98562122D01*
X52485932Y-98587575D01*
X32994404Y-98587575D01*
X32994404Y-97970000D01*
X37539196Y-97970000D01*
X37540747Y-97979793D01*
X37551994Y-98050801D01*
X37560281Y-98103126D01*
X37621472Y-98223220D01*
X37716780Y-98318528D01*
X37836874Y-98379719D01*
X37846663Y-98381269D01*
X37846665Y-98381270D01*
X37960207Y-98399253D01*
X37970000Y-98400804D01*
X37979793Y-98399253D01*
X38093335Y-98381270D01*
X38093337Y-98381269D01*
X38103126Y-98379719D01*
X38223220Y-98318528D01*
X38318528Y-98223220D01*
X38379719Y-98103126D01*
X38388007Y-98050801D01*
X38389304Y-98042613D01*
X55636931Y-98042613D01*
X55657569Y-98199375D01*
X55718077Y-98345454D01*
X55814331Y-98470895D01*
X55939772Y-98567149D01*
X56085851Y-98627657D01*
X56242613Y-98648295D01*
X56250801Y-98647217D01*
X56391187Y-98628735D01*
X56399375Y-98627657D01*
X56545454Y-98567149D01*
X56670895Y-98470895D01*
X56767149Y-98345454D01*
X56827657Y-98199375D01*
X56848295Y-98042613D01*
X56832153Y-97920000D01*
X64679196Y-97920000D01*
X64700281Y-98053126D01*
X64761472Y-98173220D01*
X64856780Y-98268528D01*
X64976874Y-98329719D01*
X64986663Y-98331269D01*
X64986665Y-98331270D01*
X65100207Y-98349253D01*
X65110000Y-98350804D01*
X65119793Y-98349253D01*
X65233335Y-98331270D01*
X65233337Y-98331269D01*
X65243126Y-98329719D01*
X65363220Y-98268528D01*
X65458528Y-98173220D01*
X65519719Y-98053126D01*
X65540804Y-97920000D01*
X65519719Y-97786874D01*
X65458528Y-97666780D01*
X65363220Y-97571472D01*
X65243126Y-97510281D01*
X65233337Y-97508731D01*
X65233335Y-97508730D01*
X65119793Y-97490747D01*
X65110000Y-97489196D01*
X65100207Y-97490747D01*
X64986665Y-97508730D01*
X64986663Y-97508731D01*
X64976874Y-97510281D01*
X64856780Y-97571472D01*
X64761472Y-97666780D01*
X64700281Y-97786874D01*
X64679196Y-97920000D01*
X56832153Y-97920000D01*
X56827657Y-97885851D01*
X56767149Y-97739772D01*
X56681754Y-97628483D01*
X56675918Y-97620877D01*
X56670895Y-97614331D01*
X56545454Y-97518077D01*
X56399375Y-97457569D01*
X56242613Y-97436931D01*
X56085851Y-97457569D01*
X55939772Y-97518077D01*
X55814331Y-97614331D01*
X55809308Y-97620877D01*
X55803472Y-97628483D01*
X55718077Y-97739772D01*
X55657569Y-97885851D01*
X55636931Y-98042613D01*
X38389304Y-98042613D01*
X38399253Y-97979793D01*
X38400804Y-97970000D01*
X38379719Y-97836874D01*
X38318528Y-97716780D01*
X38223220Y-97621472D01*
X38103126Y-97560281D01*
X38093337Y-97558731D01*
X38093335Y-97558730D01*
X37979793Y-97540747D01*
X37970000Y-97539196D01*
X37960207Y-97540747D01*
X37846665Y-97558730D01*
X37846663Y-97558731D01*
X37836874Y-97560281D01*
X37716780Y-97621472D01*
X37621472Y-97716780D01*
X37560281Y-97836874D01*
X37539196Y-97970000D01*
X32994404Y-97970000D01*
X32994404Y-95550000D01*
X40174318Y-95550000D01*
X40194956Y-95706762D01*
X40255464Y-95852841D01*
X40351718Y-95978282D01*
X40351063Y-95978785D01*
X40381863Y-96035190D01*
X40376798Y-96106005D01*
X40358705Y-96138677D01*
X40275464Y-96247159D01*
X40214956Y-96393238D01*
X40194318Y-96550000D01*
X40214956Y-96706762D01*
X40275464Y-96852841D01*
X40371718Y-96978282D01*
X40497159Y-97074536D01*
X40643238Y-97135044D01*
X40800000Y-97155682D01*
X40808188Y-97154604D01*
X40948574Y-97136122D01*
X40956762Y-97135044D01*
X41102841Y-97074536D01*
X41228282Y-96978282D01*
X41324536Y-96852841D01*
X41385044Y-96706762D01*
X41405682Y-96550000D01*
X41385044Y-96393238D01*
X41324536Y-96247159D01*
X41228282Y-96121718D01*
X41228937Y-96121215D01*
X41198137Y-96064810D01*
X41203202Y-95993995D01*
X41210648Y-95980550D01*
X53824415Y-95980550D01*
X53845053Y-96137312D01*
X53905561Y-96283391D01*
X54001815Y-96408832D01*
X54127256Y-96505086D01*
X54273335Y-96565594D01*
X54430097Y-96586232D01*
X54438285Y-96585154D01*
X54578671Y-96566672D01*
X54586859Y-96565594D01*
X54732938Y-96505086D01*
X54858379Y-96408832D01*
X54954633Y-96283391D01*
X55015141Y-96137312D01*
X55035779Y-95980550D01*
X55015141Y-95823788D01*
X54954633Y-95677709D01*
X54858379Y-95552268D01*
X54844753Y-95541812D01*
X54739489Y-95461041D01*
X54732938Y-95456014D01*
X54621851Y-95410000D01*
X64689196Y-95410000D01*
X64710281Y-95543126D01*
X64771472Y-95663220D01*
X64866780Y-95758528D01*
X64986874Y-95819719D01*
X64996663Y-95821269D01*
X64996665Y-95821270D01*
X65110207Y-95839253D01*
X65120000Y-95840804D01*
X65129793Y-95839253D01*
X65243335Y-95821270D01*
X65243337Y-95821269D01*
X65253126Y-95819719D01*
X65373220Y-95758528D01*
X65468528Y-95663220D01*
X65529719Y-95543126D01*
X65550804Y-95410000D01*
X65529719Y-95276874D01*
X65468528Y-95156780D01*
X65373220Y-95061472D01*
X65253126Y-95000281D01*
X65243337Y-94998731D01*
X65243335Y-94998730D01*
X65129793Y-94980747D01*
X65120000Y-94979196D01*
X65110207Y-94980747D01*
X64996665Y-94998730D01*
X64996663Y-94998731D01*
X64986874Y-95000281D01*
X64866780Y-95061472D01*
X64771472Y-95156780D01*
X64710281Y-95276874D01*
X64689196Y-95410000D01*
X54621851Y-95410000D01*
X54586859Y-95395506D01*
X54430097Y-95374868D01*
X54273335Y-95395506D01*
X54127256Y-95456014D01*
X54120705Y-95461041D01*
X54015442Y-95541812D01*
X54001815Y-95552268D01*
X53905561Y-95677709D01*
X53845053Y-95823788D01*
X53824415Y-95980550D01*
X41210648Y-95980550D01*
X41221295Y-95961323D01*
X41299509Y-95859392D01*
X41304536Y-95852841D01*
X41365044Y-95706762D01*
X41385682Y-95550000D01*
X41365044Y-95393238D01*
X41304536Y-95247159D01*
X41208282Y-95121718D01*
X41082841Y-95025464D01*
X40936762Y-94964956D01*
X40780000Y-94944318D01*
X40623238Y-94964956D01*
X40477159Y-95025464D01*
X40351718Y-95121718D01*
X40255464Y-95247159D01*
X40194956Y-95393238D01*
X40174318Y-95550000D01*
X32994404Y-95550000D01*
X32994404Y-92689974D01*
X59175395Y-92689974D01*
X59176473Y-92698162D01*
X59193545Y-92827834D01*
X59196033Y-92846736D01*
X59256541Y-92992815D01*
X59352795Y-93118256D01*
X59478236Y-93214510D01*
X59624315Y-93275018D01*
X59781077Y-93295656D01*
X59789265Y-93294578D01*
X59792937Y-93294578D01*
X59861058Y-93314580D01*
X59907551Y-93368236D01*
X59918937Y-93420578D01*
X59918937Y-93424250D01*
X59917859Y-93432438D01*
X59938497Y-93589200D01*
X59999005Y-93735279D01*
X60095259Y-93860720D01*
X60220700Y-93956974D01*
X60366779Y-94017482D01*
X60523541Y-94038120D01*
X60531729Y-94037042D01*
X60672115Y-94018560D01*
X60680303Y-94017482D01*
X60826382Y-93956974D01*
X60951823Y-93860720D01*
X61048077Y-93735279D01*
X61108585Y-93589200D01*
X61129223Y-93432438D01*
X61111215Y-93295656D01*
X61109663Y-93283864D01*
X61108585Y-93275676D01*
X61048077Y-93129597D01*
X60951823Y-93004156D01*
X60826382Y-92907902D01*
X60680303Y-92847394D01*
X60523541Y-92826756D01*
X60515353Y-92827834D01*
X60511681Y-92827834D01*
X60443560Y-92807832D01*
X60397067Y-92754176D01*
X60385681Y-92701834D01*
X60385681Y-92698162D01*
X60386759Y-92689974D01*
X60366121Y-92533212D01*
X60305613Y-92387133D01*
X60209359Y-92261692D01*
X60083918Y-92165438D01*
X59937839Y-92104930D01*
X59781077Y-92084292D01*
X59624315Y-92104930D01*
X59478236Y-92165438D01*
X59352795Y-92261692D01*
X59256541Y-92387133D01*
X59196033Y-92533212D01*
X59175395Y-92689974D01*
X32994404Y-92689974D01*
X32994404Y-85870000D01*
X93164318Y-85870000D01*
X93184956Y-86026762D01*
X93245464Y-86172841D01*
X93341718Y-86298282D01*
X93467159Y-86394536D01*
X93613238Y-86455044D01*
X93770000Y-86475682D01*
X93778188Y-86474604D01*
X93918574Y-86456122D01*
X93926762Y-86455044D01*
X94072841Y-86394536D01*
X94198282Y-86298282D01*
X94294536Y-86172841D01*
X94355044Y-86026762D01*
X94375682Y-85870000D01*
X94355044Y-85713238D01*
X94294536Y-85567159D01*
X94198282Y-85441718D01*
X94169979Y-85420000D01*
X101814318Y-85420000D01*
X101834956Y-85576762D01*
X101895464Y-85722841D01*
X101991718Y-85848282D01*
X101998264Y-85853305D01*
X102027918Y-85876059D01*
X102117159Y-85944536D01*
X102263238Y-86005044D01*
X102420000Y-86025682D01*
X102428188Y-86024604D01*
X102568574Y-86006122D01*
X102576762Y-86005044D01*
X102722841Y-85944536D01*
X102812082Y-85876059D01*
X102841736Y-85853305D01*
X102848282Y-85848282D01*
X102944536Y-85722841D01*
X103005044Y-85576762D01*
X103025682Y-85420000D01*
X103005044Y-85263238D01*
X102944536Y-85117159D01*
X102848282Y-84991718D01*
X102722841Y-84895464D01*
X102576762Y-84834956D01*
X102420000Y-84814318D01*
X102263238Y-84834956D01*
X102117159Y-84895464D01*
X101991718Y-84991718D01*
X101895464Y-85117159D01*
X101834956Y-85263238D01*
X101814318Y-85420000D01*
X94169979Y-85420000D01*
X94079392Y-85350491D01*
X94072841Y-85345464D01*
X93926762Y-85284956D01*
X93770000Y-85264318D01*
X93613238Y-85284956D01*
X93467159Y-85345464D01*
X93460608Y-85350491D01*
X93370022Y-85420000D01*
X93341718Y-85441718D01*
X93245464Y-85567159D01*
X93184956Y-85713238D01*
X93164318Y-85870000D01*
X32994404Y-85870000D01*
X32994404Y-82720000D01*
X94094318Y-82720000D01*
X94114956Y-82876762D01*
X94175464Y-83022841D01*
X94271718Y-83148282D01*
X94397159Y-83244536D01*
X94543238Y-83305044D01*
X94700000Y-83325682D01*
X94708188Y-83324604D01*
X94848574Y-83306122D01*
X94856762Y-83305044D01*
X95002841Y-83244536D01*
X95128282Y-83148282D01*
X95224536Y-83022841D01*
X95285044Y-82876762D01*
X95305682Y-82720000D01*
X99454318Y-82720000D01*
X99474956Y-82876762D01*
X99535464Y-83022841D01*
X99631718Y-83148282D01*
X99757159Y-83244536D01*
X99903238Y-83305044D01*
X100060000Y-83325682D01*
X100068188Y-83324604D01*
X100208574Y-83306122D01*
X100216762Y-83305044D01*
X100362841Y-83244536D01*
X100488282Y-83148282D01*
X100584536Y-83022841D01*
X100645044Y-82876762D01*
X100664365Y-82730000D01*
X102664318Y-82730000D01*
X102665396Y-82738188D01*
X102682562Y-82868574D01*
X102684956Y-82886762D01*
X102745464Y-83032841D01*
X102841718Y-83158282D01*
X102967159Y-83254536D01*
X103113238Y-83315044D01*
X103270000Y-83335682D01*
X103278188Y-83334604D01*
X103418574Y-83316122D01*
X103426762Y-83315044D01*
X103572841Y-83254536D01*
X103698282Y-83158282D01*
X103794536Y-83032841D01*
X103855044Y-82886762D01*
X103857439Y-82868574D01*
X103874604Y-82738188D01*
X103875682Y-82730000D01*
X108154318Y-82730000D01*
X108155396Y-82738188D01*
X108172562Y-82868574D01*
X108174956Y-82886762D01*
X108235464Y-83032841D01*
X108331718Y-83158282D01*
X108457159Y-83254536D01*
X108603238Y-83315044D01*
X108760000Y-83335682D01*
X108768188Y-83334604D01*
X108908574Y-83316122D01*
X108916762Y-83315044D01*
X109062841Y-83254536D01*
X109188282Y-83158282D01*
X109284536Y-83032841D01*
X109345044Y-82886762D01*
X109347439Y-82868574D01*
X109364604Y-82738188D01*
X109365682Y-82730000D01*
X109345044Y-82573238D01*
X109284536Y-82427159D01*
X109188282Y-82301718D01*
X109062841Y-82205464D01*
X108916762Y-82144956D01*
X108760000Y-82124318D01*
X108603238Y-82144956D01*
X108457159Y-82205464D01*
X108331718Y-82301718D01*
X108235464Y-82427159D01*
X108174956Y-82573238D01*
X108154318Y-82730000D01*
X103875682Y-82730000D01*
X103855044Y-82573238D01*
X103794536Y-82427159D01*
X103698282Y-82301718D01*
X103572841Y-82205464D01*
X103426762Y-82144956D01*
X103270000Y-82124318D01*
X103113238Y-82144956D01*
X102967159Y-82205464D01*
X102841718Y-82301718D01*
X102745464Y-82427159D01*
X102684956Y-82573238D01*
X102664318Y-82730000D01*
X100664365Y-82730000D01*
X100665682Y-82720000D01*
X100655363Y-82641619D01*
X100646122Y-82571426D01*
X100645044Y-82563238D01*
X100584536Y-82417159D01*
X100488282Y-82291718D01*
X100362841Y-82195464D01*
X100216762Y-82134956D01*
X100060000Y-82114318D01*
X99903238Y-82134956D01*
X99757159Y-82195464D01*
X99631718Y-82291718D01*
X99535464Y-82417159D01*
X99474956Y-82563238D01*
X99473878Y-82571426D01*
X99464637Y-82641619D01*
X99454318Y-82720000D01*
X95305682Y-82720000D01*
X95295363Y-82641619D01*
X95286122Y-82571426D01*
X95285044Y-82563238D01*
X95224536Y-82417159D01*
X95128282Y-82291718D01*
X95002841Y-82195464D01*
X94856762Y-82134956D01*
X94700000Y-82114318D01*
X94543238Y-82134956D01*
X94397159Y-82195464D01*
X94271718Y-82291718D01*
X94175464Y-82417159D01*
X94114956Y-82563238D01*
X94113878Y-82571426D01*
X94104637Y-82641619D01*
X94094318Y-82720000D01*
X32994404Y-82720000D01*
X32994404Y-81820000D01*
X97264318Y-81820000D01*
X97284956Y-81976762D01*
X97345464Y-82122841D01*
X97441718Y-82248282D01*
X97567159Y-82344536D01*
X97713238Y-82405044D01*
X97870000Y-82425682D01*
X97878188Y-82424604D01*
X98018574Y-82406122D01*
X98026762Y-82405044D01*
X98172841Y-82344536D01*
X98298282Y-82248282D01*
X98394536Y-82122841D01*
X98455044Y-81976762D01*
X98475682Y-81820000D01*
X105914318Y-81820000D01*
X105934956Y-81976762D01*
X105995464Y-82122841D01*
X106091718Y-82248282D01*
X106217159Y-82344536D01*
X106363238Y-82405044D01*
X106520000Y-82425682D01*
X106528188Y-82424604D01*
X106668574Y-82406122D01*
X106676762Y-82405044D01*
X106822841Y-82344536D01*
X106948282Y-82248282D01*
X107044536Y-82122841D01*
X107105044Y-81976762D01*
X107125682Y-81820000D01*
X107105044Y-81663238D01*
X107044536Y-81517159D01*
X106948282Y-81391718D01*
X106822841Y-81295464D01*
X106676762Y-81234956D01*
X106520000Y-81214318D01*
X106363238Y-81234956D01*
X106217159Y-81295464D01*
X106091718Y-81391718D01*
X105995464Y-81517159D01*
X105934956Y-81663238D01*
X105914318Y-81820000D01*
X98475682Y-81820000D01*
X98455044Y-81663238D01*
X98394536Y-81517159D01*
X98298282Y-81391718D01*
X98172841Y-81295464D01*
X98026762Y-81234956D01*
X97870000Y-81214318D01*
X97713238Y-81234956D01*
X97567159Y-81295464D01*
X97441718Y-81391718D01*
X97345464Y-81517159D01*
X97284956Y-81663238D01*
X97264318Y-81820000D01*
X32994404Y-81820000D01*
X32994404Y-78720000D01*
X41964318Y-78720000D01*
X41984956Y-78876762D01*
X42045464Y-79022841D01*
X42141718Y-79148282D01*
X42267159Y-79244536D01*
X42413238Y-79305044D01*
X42570000Y-79325682D01*
X42578188Y-79324604D01*
X42718574Y-79306122D01*
X42726762Y-79305044D01*
X42872841Y-79244536D01*
X42998282Y-79148282D01*
X43094536Y-79022841D01*
X43155044Y-78876762D01*
X43175682Y-78720000D01*
X43864318Y-78720000D01*
X43884956Y-78876762D01*
X43945464Y-79022841D01*
X44041718Y-79148282D01*
X44167159Y-79244536D01*
X44313238Y-79305044D01*
X44470000Y-79325682D01*
X44478188Y-79324604D01*
X44618574Y-79306122D01*
X44626762Y-79305044D01*
X44772841Y-79244536D01*
X44898282Y-79148282D01*
X44994536Y-79022841D01*
X45008139Y-78990000D01*
X102974318Y-78990000D01*
X102994956Y-79146762D01*
X103055464Y-79292841D01*
X103151718Y-79418282D01*
X103277159Y-79514536D01*
X103423238Y-79575044D01*
X103580000Y-79595682D01*
X103588188Y-79594604D01*
X103728574Y-79576122D01*
X103736762Y-79575044D01*
X103882841Y-79514536D01*
X104008282Y-79418282D01*
X104104536Y-79292841D01*
X104165044Y-79146762D01*
X104185682Y-78990000D01*
X104165044Y-78833238D01*
X104104536Y-78687159D01*
X104008282Y-78561718D01*
X103882841Y-78465464D01*
X103736762Y-78404956D01*
X103580000Y-78384318D01*
X103423238Y-78404956D01*
X103277159Y-78465464D01*
X103151718Y-78561718D01*
X103055464Y-78687159D01*
X102994956Y-78833238D01*
X102974318Y-78990000D01*
X45008139Y-78990000D01*
X45055044Y-78876762D01*
X45075682Y-78720000D01*
X45055044Y-78563238D01*
X44994536Y-78417159D01*
X44898282Y-78291718D01*
X44772841Y-78195464D01*
X44626762Y-78134956D01*
X44470000Y-78114318D01*
X44313238Y-78134956D01*
X44167159Y-78195464D01*
X44041718Y-78291718D01*
X43945464Y-78417159D01*
X43884956Y-78563238D01*
X43864318Y-78720000D01*
X43175682Y-78720000D01*
X43155044Y-78563238D01*
X43094536Y-78417159D01*
X42998282Y-78291718D01*
X42872841Y-78195464D01*
X42726762Y-78134956D01*
X42570000Y-78114318D01*
X42413238Y-78134956D01*
X42267159Y-78195464D01*
X42141718Y-78291718D01*
X42045464Y-78417159D01*
X41984956Y-78563238D01*
X41964318Y-78720000D01*
X32994404Y-78720000D01*
X32994404Y-77270000D01*
X46914318Y-77270000D01*
X46934956Y-77426762D01*
X46995464Y-77572841D01*
X47091718Y-77698282D01*
X47217159Y-77794536D01*
X47363238Y-77855044D01*
X47520000Y-77875682D01*
X47528188Y-77874604D01*
X47668574Y-77856122D01*
X47676762Y-77855044D01*
X47822841Y-77794536D01*
X47948282Y-77698282D01*
X48044536Y-77572841D01*
X48047201Y-77574886D01*
X48087250Y-77536691D01*
X48156962Y-77523246D01*
X48222876Y-77549625D01*
X48243980Y-77573980D01*
X48245464Y-77572841D01*
X48341718Y-77698282D01*
X48467159Y-77794536D01*
X48613238Y-77855044D01*
X48770000Y-77875682D01*
X48778188Y-77874604D01*
X48918574Y-77856122D01*
X48926762Y-77855044D01*
X49072841Y-77794536D01*
X49198282Y-77698282D01*
X49294536Y-77572841D01*
X49297201Y-77574886D01*
X49337250Y-77536691D01*
X49406962Y-77523246D01*
X49472876Y-77549625D01*
X49493980Y-77573980D01*
X49495464Y-77572841D01*
X49591718Y-77698282D01*
X49717159Y-77794536D01*
X49863238Y-77855044D01*
X50020000Y-77875682D01*
X50028188Y-77874604D01*
X50168574Y-77856122D01*
X50176762Y-77855044D01*
X50322841Y-77794536D01*
X50448282Y-77698282D01*
X50544536Y-77572841D01*
X50553591Y-77550980D01*
X50598139Y-77495699D01*
X50665502Y-77473278D01*
X50734294Y-77490836D01*
X50782672Y-77542798D01*
X50786408Y-77550977D01*
X50795464Y-77572841D01*
X50891718Y-77698282D01*
X51017159Y-77794536D01*
X51163238Y-77855044D01*
X51320000Y-77875682D01*
X51328188Y-77874604D01*
X51468574Y-77856122D01*
X51476762Y-77855044D01*
X51622841Y-77794536D01*
X51748282Y-77698282D01*
X51844536Y-77572841D01*
X51905044Y-77426762D01*
X51925682Y-77270000D01*
X51905044Y-77113238D01*
X51844536Y-76967159D01*
X51748282Y-76841718D01*
X51622841Y-76745464D01*
X51476762Y-76684956D01*
X51320000Y-76664318D01*
X51163238Y-76684956D01*
X51017159Y-76745464D01*
X50891718Y-76841718D01*
X50795464Y-76967159D01*
X50792304Y-76974789D01*
X50786409Y-76989020D01*
X50741861Y-77044301D01*
X50674498Y-77066722D01*
X50605706Y-77049164D01*
X50557328Y-76997202D01*
X50553591Y-76989020D01*
X50547696Y-76974789D01*
X50544536Y-76967159D01*
X50448282Y-76841718D01*
X50322841Y-76745464D01*
X50176762Y-76684956D01*
X50020000Y-76664318D01*
X49863238Y-76684956D01*
X49717159Y-76745464D01*
X49591718Y-76841718D01*
X49495464Y-76967159D01*
X49492799Y-76965114D01*
X49452750Y-77003309D01*
X49383038Y-77016754D01*
X49317124Y-76990375D01*
X49296020Y-76966020D01*
X49294536Y-76967159D01*
X49203305Y-76848264D01*
X49198282Y-76841718D01*
X49072841Y-76745464D01*
X48926762Y-76684956D01*
X48770000Y-76664318D01*
X48613238Y-76684956D01*
X48467159Y-76745464D01*
X48341718Y-76841718D01*
X48245464Y-76967159D01*
X48242799Y-76965114D01*
X48202750Y-77003309D01*
X48133038Y-77016754D01*
X48067124Y-76990375D01*
X48046020Y-76966020D01*
X48044536Y-76967159D01*
X47953305Y-76848264D01*
X47948282Y-76841718D01*
X47822841Y-76745464D01*
X47676762Y-76684956D01*
X47520000Y-76664318D01*
X47363238Y-76684956D01*
X47217159Y-76745464D01*
X47091718Y-76841718D01*
X46995464Y-76967159D01*
X46934956Y-77113238D01*
X46914318Y-77270000D01*
X32994404Y-77270000D01*
X32994404Y-75000000D01*
X102944318Y-75000000D01*
X102964956Y-75156762D01*
X103025464Y-75302841D01*
X103121718Y-75428282D01*
X103247159Y-75524536D01*
X103393238Y-75585044D01*
X103550000Y-75605682D01*
X103558188Y-75604604D01*
X103698574Y-75586122D01*
X103706762Y-75585044D01*
X103852841Y-75524536D01*
X103978282Y-75428282D01*
X104074536Y-75302841D01*
X104135044Y-75156762D01*
X104155682Y-75000000D01*
X104135044Y-74843238D01*
X104074536Y-74697159D01*
X103978282Y-74571718D01*
X103852841Y-74475464D01*
X103706762Y-74414956D01*
X103550000Y-74394318D01*
X103393238Y-74414956D01*
X103247159Y-74475464D01*
X103121718Y-74571718D01*
X103025464Y-74697159D01*
X102964956Y-74843238D01*
X102944318Y-75000000D01*
X32994404Y-75000000D01*
X32994404Y-73220000D01*
X46964318Y-73220000D01*
X46984956Y-73376762D01*
X47045464Y-73522841D01*
X47141718Y-73648282D01*
X47267159Y-73744536D01*
X47413238Y-73805044D01*
X47570000Y-73825682D01*
X47578188Y-73824604D01*
X47718574Y-73806122D01*
X47726762Y-73805044D01*
X47872841Y-73744536D01*
X47998282Y-73648282D01*
X48094536Y-73522841D01*
X48097201Y-73524886D01*
X48137250Y-73486691D01*
X48206962Y-73473246D01*
X48272876Y-73499625D01*
X48293980Y-73523980D01*
X48295464Y-73522841D01*
X48391718Y-73648282D01*
X48517159Y-73744536D01*
X48663238Y-73805044D01*
X48820000Y-73825682D01*
X48828188Y-73824604D01*
X48968574Y-73806122D01*
X48976762Y-73805044D01*
X49122841Y-73744536D01*
X49248282Y-73648282D01*
X49344536Y-73522841D01*
X49347201Y-73524886D01*
X49387250Y-73486691D01*
X49456962Y-73473246D01*
X49522876Y-73499625D01*
X49543980Y-73523980D01*
X49545464Y-73522841D01*
X49641718Y-73648282D01*
X49767159Y-73744536D01*
X49913238Y-73805044D01*
X50070000Y-73825682D01*
X50078188Y-73824604D01*
X50218574Y-73806122D01*
X50226762Y-73805044D01*
X50372841Y-73744536D01*
X50498282Y-73648282D01*
X50594536Y-73522841D01*
X50603591Y-73500980D01*
X50648139Y-73445699D01*
X50715502Y-73423278D01*
X50784294Y-73440836D01*
X50832672Y-73492798D01*
X50836408Y-73500977D01*
X50845464Y-73522841D01*
X50941718Y-73648282D01*
X51067159Y-73744536D01*
X51213238Y-73805044D01*
X51370000Y-73825682D01*
X51378188Y-73824604D01*
X51518574Y-73806122D01*
X51526762Y-73805044D01*
X51672841Y-73744536D01*
X51798282Y-73648282D01*
X51894536Y-73522841D01*
X51955044Y-73376762D01*
X51975682Y-73220000D01*
X51955044Y-73063238D01*
X51894536Y-72917159D01*
X51798282Y-72791718D01*
X51672841Y-72695464D01*
X51674886Y-72692799D01*
X51636691Y-72652750D01*
X51623246Y-72583038D01*
X51649625Y-72517124D01*
X51673980Y-72496020D01*
X51672841Y-72494536D01*
X51791736Y-72403305D01*
X51798282Y-72398282D01*
X51894536Y-72272841D01*
X51955044Y-72126762D01*
X51975682Y-71970000D01*
X51955044Y-71813238D01*
X51894536Y-71667159D01*
X51798282Y-71541718D01*
X51672841Y-71445464D01*
X51526762Y-71384956D01*
X51370000Y-71364318D01*
X51213238Y-71384956D01*
X51067159Y-71445464D01*
X50941718Y-71541718D01*
X50845464Y-71667159D01*
X50842304Y-71674789D01*
X50836409Y-71689020D01*
X50791861Y-71744301D01*
X50724498Y-71766722D01*
X50655706Y-71749164D01*
X50607328Y-71697202D01*
X50603591Y-71689020D01*
X50597696Y-71674789D01*
X50594536Y-71667159D01*
X50498282Y-71541718D01*
X50372841Y-71445464D01*
X50226762Y-71384956D01*
X50070000Y-71364318D01*
X49913238Y-71384956D01*
X49767159Y-71445464D01*
X49641718Y-71541718D01*
X49545464Y-71667159D01*
X49542799Y-71665114D01*
X49502750Y-71703309D01*
X49433038Y-71716754D01*
X49367124Y-71690375D01*
X49346020Y-71666020D01*
X49344536Y-71667159D01*
X49253305Y-71548264D01*
X49248282Y-71541718D01*
X49122841Y-71445464D01*
X48976762Y-71384956D01*
X48820000Y-71364318D01*
X48663238Y-71384956D01*
X48517159Y-71445464D01*
X48391718Y-71541718D01*
X48295464Y-71667159D01*
X48292799Y-71665114D01*
X48252750Y-71703309D01*
X48183038Y-71716754D01*
X48117124Y-71690375D01*
X48096020Y-71666020D01*
X48094536Y-71667159D01*
X48003305Y-71548264D01*
X47998282Y-71541718D01*
X47872841Y-71445464D01*
X47726762Y-71384956D01*
X47570000Y-71364318D01*
X47413238Y-71384956D01*
X47267159Y-71445464D01*
X47141718Y-71541718D01*
X47045464Y-71667159D01*
X46984956Y-71813238D01*
X46964318Y-71970000D01*
X46984956Y-72126762D01*
X47045464Y-72272841D01*
X47141718Y-72398282D01*
X47148264Y-72403305D01*
X47267159Y-72494536D01*
X47265114Y-72497201D01*
X47303309Y-72537250D01*
X47316754Y-72606962D01*
X47290375Y-72672876D01*
X47266020Y-72693980D01*
X47267159Y-72695464D01*
X47141718Y-72791718D01*
X47045464Y-72917159D01*
X46984956Y-73063238D01*
X46964318Y-73220000D01*
X32994404Y-73220000D01*
X32994404Y-70690000D01*
X69394318Y-70690000D01*
X69414956Y-70846762D01*
X69475464Y-70992841D01*
X69571718Y-71118282D01*
X69697159Y-71214536D01*
X69843238Y-71275044D01*
X70000000Y-71295682D01*
X70008188Y-71294604D01*
X70148574Y-71276122D01*
X70156762Y-71275044D01*
X70302841Y-71214536D01*
X70428282Y-71118282D01*
X70524536Y-70992841D01*
X70585044Y-70846762D01*
X70605682Y-70690000D01*
X70595363Y-70611619D01*
X70586122Y-70541426D01*
X70585044Y-70533238D01*
X70524536Y-70387159D01*
X70428282Y-70261718D01*
X70431168Y-70259503D01*
X70405110Y-70211783D01*
X70410175Y-70140968D01*
X70430224Y-70109772D01*
X70428282Y-70108282D01*
X70524536Y-69982841D01*
X70527201Y-69984886D01*
X70567250Y-69946691D01*
X70636962Y-69933246D01*
X70702876Y-69959625D01*
X70723980Y-69983980D01*
X70725464Y-69982841D01*
X70807038Y-70089150D01*
X70821718Y-70108282D01*
X70947159Y-70204536D01*
X71093238Y-70265044D01*
X71101426Y-70266122D01*
X71165854Y-70274604D01*
X71250000Y-70285682D01*
X71258188Y-70284604D01*
X71398574Y-70266122D01*
X71406762Y-70265044D01*
X71552841Y-70204536D01*
X71678282Y-70108282D01*
X71692963Y-70089150D01*
X71769509Y-69989392D01*
X71774536Y-69982841D01*
X71778591Y-69973052D01*
X71779832Y-69971512D01*
X71781825Y-69968060D01*
X71782363Y-69968371D01*
X71823138Y-69917771D01*
X71890501Y-69895349D01*
X71959293Y-69912906D01*
X72007672Y-69964868D01*
X72011409Y-69973052D01*
X72015464Y-69982841D01*
X72020491Y-69989392D01*
X72111718Y-70108282D01*
X72110641Y-70109109D01*
X72140544Y-70163862D01*
X72135486Y-70234678D01*
X72117390Y-70267359D01*
X72025464Y-70387159D01*
X71964956Y-70533238D01*
X71963878Y-70541426D01*
X71954637Y-70611619D01*
X71944318Y-70690000D01*
X71964956Y-70846762D01*
X72025464Y-70992841D01*
X72121718Y-71118282D01*
X72247159Y-71214536D01*
X72393238Y-71275044D01*
X72550000Y-71295682D01*
X72558188Y-71294604D01*
X72698574Y-71276122D01*
X72706762Y-71275044D01*
X72852841Y-71214536D01*
X72978282Y-71118282D01*
X73074536Y-70992841D01*
X73135044Y-70846762D01*
X73155682Y-70690000D01*
X73145363Y-70611619D01*
X73136122Y-70541426D01*
X73135044Y-70533238D01*
X73074536Y-70387159D01*
X72978282Y-70261718D01*
X72979359Y-70260891D01*
X72949456Y-70206138D01*
X72954514Y-70135322D01*
X72972611Y-70102640D01*
X72989106Y-70081144D01*
X73064536Y-69982841D01*
X73067201Y-69984886D01*
X73107250Y-69946691D01*
X73176962Y-69933246D01*
X73242876Y-69959625D01*
X73263980Y-69983980D01*
X73265464Y-69982841D01*
X73347038Y-70089150D01*
X73361718Y-70108282D01*
X73487159Y-70204536D01*
X73633238Y-70265044D01*
X73641426Y-70266122D01*
X73705854Y-70274604D01*
X73790000Y-70285682D01*
X73798188Y-70284604D01*
X73938574Y-70266122D01*
X73946762Y-70265044D01*
X74092841Y-70204536D01*
X74218282Y-70108282D01*
X74232963Y-70089150D01*
X74309509Y-69989392D01*
X74314536Y-69982841D01*
X74375044Y-69836762D01*
X74377439Y-69818574D01*
X74394604Y-69688188D01*
X74395682Y-69680000D01*
X74974318Y-69680000D01*
X74975396Y-69688188D01*
X74992562Y-69818574D01*
X74994956Y-69836762D01*
X75055464Y-69982841D01*
X75060491Y-69989392D01*
X75151718Y-70108282D01*
X75150641Y-70109109D01*
X75180544Y-70163862D01*
X75175486Y-70234678D01*
X75157390Y-70267359D01*
X75065464Y-70387159D01*
X75004956Y-70533238D01*
X75003878Y-70541426D01*
X74994637Y-70611619D01*
X74984318Y-70690000D01*
X75004956Y-70846762D01*
X75065464Y-70992841D01*
X75161718Y-71118282D01*
X75287159Y-71214536D01*
X75433238Y-71275044D01*
X75590000Y-71295682D01*
X75598188Y-71294604D01*
X75738574Y-71276122D01*
X75746762Y-71275044D01*
X75892841Y-71214536D01*
X76018282Y-71118282D01*
X76114536Y-70992841D01*
X76175044Y-70846762D01*
X76195682Y-70690000D01*
X76185363Y-70611619D01*
X76176122Y-70541426D01*
X76175044Y-70533238D01*
X76114536Y-70387159D01*
X76018282Y-70261718D01*
X76019359Y-70260891D01*
X75989456Y-70206138D01*
X75994514Y-70135322D01*
X76012611Y-70102640D01*
X76027447Y-70083305D01*
X76104536Y-69982841D01*
X76107696Y-69975211D01*
X76110880Y-69969697D01*
X76162263Y-69920703D01*
X76231976Y-69907266D01*
X76297887Y-69933653D01*
X76329120Y-69969697D01*
X76332304Y-69975211D01*
X76335464Y-69982841D01*
X76340491Y-69989392D01*
X76417038Y-70089150D01*
X76431718Y-70108282D01*
X76557159Y-70204536D01*
X76703238Y-70265044D01*
X76711426Y-70266122D01*
X76775854Y-70274604D01*
X76860000Y-70285682D01*
X76868188Y-70284604D01*
X77008574Y-70266122D01*
X77016762Y-70265044D01*
X77162841Y-70204536D01*
X77288282Y-70108282D01*
X77302963Y-70089150D01*
X77384536Y-69982841D01*
X77385741Y-69983766D01*
X77430487Y-69941100D01*
X77500200Y-69927663D01*
X77566111Y-69954050D01*
X77588185Y-69976387D01*
X77681718Y-70098282D01*
X77682482Y-70098868D01*
X77714890Y-70158217D01*
X77709825Y-70229032D01*
X77683047Y-70270698D01*
X77681718Y-70271718D01*
X77585464Y-70397159D01*
X77524956Y-70543238D01*
X77504318Y-70700000D01*
X77505396Y-70708188D01*
X77522562Y-70838574D01*
X77524956Y-70856762D01*
X77585464Y-71002841D01*
X77681718Y-71128282D01*
X77807159Y-71224536D01*
X77953238Y-71285044D01*
X78110000Y-71305682D01*
X78118188Y-71304604D01*
X78258574Y-71286122D01*
X78266762Y-71285044D01*
X78412841Y-71224536D01*
X78538282Y-71128282D01*
X78634536Y-71002841D01*
X78695044Y-70856762D01*
X78697439Y-70838574D01*
X78714604Y-70708188D01*
X78715682Y-70700000D01*
X80594318Y-70700000D01*
X80595396Y-70708188D01*
X80612562Y-70838574D01*
X80614956Y-70856762D01*
X80675464Y-71002841D01*
X80771718Y-71128282D01*
X80897159Y-71224536D01*
X81043238Y-71285044D01*
X81200000Y-71305682D01*
X81208188Y-71304604D01*
X81348574Y-71286122D01*
X81356762Y-71285044D01*
X81502841Y-71224536D01*
X81628282Y-71128282D01*
X81724536Y-71002841D01*
X81785044Y-70856762D01*
X81787439Y-70838574D01*
X81804604Y-70708188D01*
X81805682Y-70700000D01*
X81785044Y-70543238D01*
X81724536Y-70397159D01*
X81628282Y-70271718D01*
X81623431Y-70267996D01*
X81589879Y-70206552D01*
X81594944Y-70135737D01*
X81627901Y-70091160D01*
X81625891Y-70089150D01*
X81631736Y-70083305D01*
X81638282Y-70078282D01*
X81734536Y-69952841D01*
X81734938Y-69953149D01*
X81782264Y-69908024D01*
X81851977Y-69894588D01*
X81917888Y-69920974D01*
X81945431Y-69952760D01*
X81945464Y-69952841D01*
X82041718Y-70078282D01*
X82167159Y-70174536D01*
X82313238Y-70235044D01*
X82470000Y-70255682D01*
X82478188Y-70254604D01*
X82618574Y-70236122D01*
X82626762Y-70235044D01*
X82772841Y-70174536D01*
X82898282Y-70078282D01*
X82994536Y-69952841D01*
X82997696Y-69945212D01*
X82998767Y-69943357D01*
X83050150Y-69894363D01*
X83119863Y-69880926D01*
X83185774Y-69907313D01*
X83214461Y-69940419D01*
X83215464Y-69942841D01*
X83311718Y-70068282D01*
X83318264Y-70073305D01*
X83324109Y-70079150D01*
X83322115Y-70081144D01*
X83355874Y-70127379D01*
X83360093Y-70198251D01*
X83325327Y-70260152D01*
X83321432Y-70263527D01*
X83318264Y-70266695D01*
X83311718Y-70271718D01*
X83215464Y-70397159D01*
X83154956Y-70543238D01*
X83134318Y-70700000D01*
X83135396Y-70708188D01*
X83152562Y-70838574D01*
X83154956Y-70856762D01*
X83215464Y-71002841D01*
X83311718Y-71128282D01*
X83437159Y-71224536D01*
X83583238Y-71285044D01*
X83740000Y-71305682D01*
X83748188Y-71304604D01*
X83888574Y-71286122D01*
X83896762Y-71285044D01*
X84042841Y-71224536D01*
X84168282Y-71128282D01*
X84264536Y-71002841D01*
X84325044Y-70856762D01*
X84327439Y-70838574D01*
X84344604Y-70708188D01*
X84345682Y-70700000D01*
X84325044Y-70543238D01*
X84264536Y-70397159D01*
X84168282Y-70271718D01*
X84161736Y-70266695D01*
X84155891Y-70260850D01*
X84157885Y-70258856D01*
X84124126Y-70212621D01*
X84119907Y-70141749D01*
X84154673Y-70079848D01*
X84158568Y-70076473D01*
X84161736Y-70073305D01*
X84168282Y-70068282D01*
X84264536Y-69942841D01*
X84325044Y-69796762D01*
X84345682Y-69640000D01*
X84327637Y-69502935D01*
X84326122Y-69491426D01*
X84325044Y-69483238D01*
X84265713Y-69340000D01*
X86434318Y-69340000D01*
X86454956Y-69496762D01*
X86515464Y-69642841D01*
X86611718Y-69768282D01*
X86737159Y-69864536D01*
X86883238Y-69925044D01*
X87040000Y-69945682D01*
X87048188Y-69944604D01*
X87061580Y-69942841D01*
X87196762Y-69925044D01*
X87342841Y-69864536D01*
X87468282Y-69768282D01*
X87564536Y-69642841D01*
X87625044Y-69496762D01*
X87645682Y-69340000D01*
X87625044Y-69183238D01*
X87564536Y-69037159D01*
X87468282Y-68911718D01*
X87342841Y-68815464D01*
X87196762Y-68754956D01*
X87040000Y-68734318D01*
X86883238Y-68754956D01*
X86737159Y-68815464D01*
X86611718Y-68911718D01*
X86515464Y-69037159D01*
X86454956Y-69183238D01*
X86434318Y-69340000D01*
X84265713Y-69340000D01*
X84264536Y-69337159D01*
X84191302Y-69241718D01*
X84173305Y-69218264D01*
X84168282Y-69211718D01*
X84042841Y-69115464D01*
X83896762Y-69054956D01*
X83740000Y-69034318D01*
X83583238Y-69054956D01*
X83437159Y-69115464D01*
X83311718Y-69211718D01*
X83306695Y-69218264D01*
X83288698Y-69241718D01*
X83215464Y-69337159D01*
X83212304Y-69344788D01*
X83211233Y-69346643D01*
X83159850Y-69395637D01*
X83090137Y-69409074D01*
X83024226Y-69382687D01*
X82995539Y-69349581D01*
X82994536Y-69347159D01*
X82918651Y-69248264D01*
X82903305Y-69228264D01*
X82898282Y-69221718D01*
X82772841Y-69125464D01*
X82626762Y-69064956D01*
X82470000Y-69044318D01*
X82313238Y-69064956D01*
X82167159Y-69125464D01*
X82041718Y-69221718D01*
X82036695Y-69228264D01*
X82024543Y-69244101D01*
X81945464Y-69347159D01*
X81945062Y-69346851D01*
X81897736Y-69391976D01*
X81828023Y-69405412D01*
X81762112Y-69379026D01*
X81734569Y-69347240D01*
X81734536Y-69347159D01*
X81655457Y-69244101D01*
X81643305Y-69228264D01*
X81638282Y-69221718D01*
X81512841Y-69125464D01*
X81366762Y-69064956D01*
X81210000Y-69044318D01*
X81053238Y-69064956D01*
X80907159Y-69125464D01*
X80781718Y-69221718D01*
X80776695Y-69228264D01*
X80761349Y-69248264D01*
X80685464Y-69347159D01*
X80624956Y-69493238D01*
X80604318Y-69650000D01*
X80605396Y-69658188D01*
X80622562Y-69788574D01*
X80624956Y-69806762D01*
X80685464Y-69952841D01*
X80781718Y-70078282D01*
X80786569Y-70082004D01*
X80820121Y-70143448D01*
X80815056Y-70214263D01*
X80782099Y-70258840D01*
X80784109Y-70260850D01*
X80778264Y-70266695D01*
X80771718Y-70271718D01*
X80675464Y-70397159D01*
X80614956Y-70543238D01*
X80594318Y-70700000D01*
X78715682Y-70700000D01*
X78695044Y-70543238D01*
X78634536Y-70397159D01*
X78538282Y-70271718D01*
X78537518Y-70271132D01*
X78505110Y-70211783D01*
X78510175Y-70140968D01*
X78536953Y-70099302D01*
X78538282Y-70098282D01*
X78552963Y-70079150D01*
X78621836Y-69989392D01*
X78634536Y-69972841D01*
X78658591Y-69914767D01*
X78703139Y-69859486D01*
X78770503Y-69837065D01*
X78839294Y-69854623D01*
X78887672Y-69906585D01*
X78891408Y-69914765D01*
X78915464Y-69972841D01*
X78928164Y-69989392D01*
X78997038Y-70079150D01*
X79011718Y-70098282D01*
X79137159Y-70194536D01*
X79283238Y-70255044D01*
X79291426Y-70256122D01*
X79333932Y-70261718D01*
X79440000Y-70275682D01*
X79448188Y-70274604D01*
X79452055Y-70274095D01*
X79546068Y-70261718D01*
X79588574Y-70256122D01*
X79596762Y-70255044D01*
X79742841Y-70194536D01*
X79868282Y-70098282D01*
X79882963Y-70079150D01*
X79951836Y-69989392D01*
X79964536Y-69972841D01*
X80025044Y-69826762D01*
X80045682Y-69670000D01*
X80035363Y-69591619D01*
X80026122Y-69521426D01*
X80025044Y-69513238D01*
X79964536Y-69367159D01*
X79868282Y-69241718D01*
X79742841Y-69145464D01*
X79596762Y-69084956D01*
X79559452Y-69080044D01*
X79448188Y-69065396D01*
X79440000Y-69064318D01*
X79431812Y-69065396D01*
X79320549Y-69080044D01*
X79283238Y-69084956D01*
X79137159Y-69145464D01*
X79011718Y-69241718D01*
X78915464Y-69367159D01*
X78891409Y-69425233D01*
X78846861Y-69480514D01*
X78779497Y-69502935D01*
X78710706Y-69485377D01*
X78662328Y-69433415D01*
X78658591Y-69425233D01*
X78634536Y-69367159D01*
X78538282Y-69241718D01*
X78412841Y-69145464D01*
X78266762Y-69084956D01*
X78229452Y-69080044D01*
X78118188Y-69065396D01*
X78110000Y-69064318D01*
X78101812Y-69065396D01*
X77990549Y-69080044D01*
X77953238Y-69084956D01*
X77807159Y-69145464D01*
X77681718Y-69241718D01*
X77585464Y-69367159D01*
X77584259Y-69366234D01*
X77539513Y-69408900D01*
X77469800Y-69422337D01*
X77403889Y-69395950D01*
X77381815Y-69373613D01*
X77288282Y-69251718D01*
X77162841Y-69155464D01*
X77016762Y-69094956D01*
X76860000Y-69074318D01*
X76703238Y-69094956D01*
X76557159Y-69155464D01*
X76431718Y-69251718D01*
X76335464Y-69377159D01*
X76332304Y-69384789D01*
X76329120Y-69390303D01*
X76277737Y-69439297D01*
X76208024Y-69452734D01*
X76142113Y-69426347D01*
X76110880Y-69390303D01*
X76107696Y-69384789D01*
X76104536Y-69377159D01*
X76008282Y-69251718D01*
X75882841Y-69155464D01*
X75736762Y-69094956D01*
X75580000Y-69074318D01*
X75423238Y-69094956D01*
X75277159Y-69155464D01*
X75151718Y-69251718D01*
X75055464Y-69377159D01*
X74994956Y-69523238D01*
X74974318Y-69680000D01*
X74395682Y-69680000D01*
X74375044Y-69523238D01*
X74314536Y-69377159D01*
X74218282Y-69251718D01*
X74092841Y-69155464D01*
X73946762Y-69094956D01*
X73790000Y-69074318D01*
X73633238Y-69094956D01*
X73487159Y-69155464D01*
X73361718Y-69251718D01*
X73265464Y-69377159D01*
X73262799Y-69375114D01*
X73222750Y-69413309D01*
X73153038Y-69426754D01*
X73087124Y-69400375D01*
X73066020Y-69376020D01*
X73064536Y-69377159D01*
X72973305Y-69258264D01*
X72973304Y-69258263D01*
X72968282Y-69251718D01*
X72842841Y-69155464D01*
X72696762Y-69094956D01*
X72540000Y-69074318D01*
X72383238Y-69094956D01*
X72237159Y-69155464D01*
X72111718Y-69251718D01*
X72015464Y-69377159D01*
X72012304Y-69384789D01*
X72012303Y-69384791D01*
X72011409Y-69386948D01*
X72010168Y-69388488D01*
X72008175Y-69391940D01*
X72007637Y-69391629D01*
X71966862Y-69442229D01*
X71899499Y-69464651D01*
X71830707Y-69447094D01*
X71782328Y-69395132D01*
X71778591Y-69386948D01*
X71777697Y-69384791D01*
X71777696Y-69384789D01*
X71774536Y-69377159D01*
X71678282Y-69251718D01*
X71552841Y-69155464D01*
X71406762Y-69094956D01*
X71250000Y-69074318D01*
X71093238Y-69094956D01*
X70947159Y-69155464D01*
X70821718Y-69251718D01*
X70725464Y-69377159D01*
X70722799Y-69375114D01*
X70682750Y-69413309D01*
X70613038Y-69426754D01*
X70547124Y-69400375D01*
X70526020Y-69376020D01*
X70524536Y-69377159D01*
X70433305Y-69258264D01*
X70433304Y-69258263D01*
X70428282Y-69251718D01*
X70302841Y-69155464D01*
X70156762Y-69094956D01*
X70000000Y-69074318D01*
X69843238Y-69094956D01*
X69697159Y-69155464D01*
X69571718Y-69251718D01*
X69475464Y-69377159D01*
X69414956Y-69523238D01*
X69394318Y-69680000D01*
X69395396Y-69688188D01*
X69412562Y-69818574D01*
X69414956Y-69836762D01*
X69475464Y-69982841D01*
X69480491Y-69989392D01*
X69571718Y-70108282D01*
X69568832Y-70110497D01*
X69594890Y-70158217D01*
X69589825Y-70229032D01*
X69569776Y-70260228D01*
X69571718Y-70261718D01*
X69475464Y-70387159D01*
X69414956Y-70533238D01*
X69413878Y-70541426D01*
X69404637Y-70611619D01*
X69394318Y-70690000D01*
X32994404Y-70690000D01*
X32994404Y-68520000D01*
X58114318Y-68520000D01*
X58134956Y-68676762D01*
X58195464Y-68822841D01*
X58291718Y-68948282D01*
X58417159Y-69044536D01*
X58563238Y-69105044D01*
X58720000Y-69125682D01*
X58728188Y-69124604D01*
X58745659Y-69122304D01*
X58876762Y-69105044D01*
X59022841Y-69044536D01*
X59148282Y-68948282D01*
X59244536Y-68822841D01*
X59247697Y-68815211D01*
X59248380Y-68814027D01*
X59299762Y-68765033D01*
X59369476Y-68751596D01*
X59435387Y-68777982D01*
X59466620Y-68814027D01*
X59467303Y-68815211D01*
X59470464Y-68822841D01*
X59566718Y-68948282D01*
X59692159Y-69044536D01*
X59838238Y-69105044D01*
X59995000Y-69125682D01*
X60003188Y-69124604D01*
X60020659Y-69122304D01*
X60151762Y-69105044D01*
X60297841Y-69044536D01*
X60423282Y-68948282D01*
X60519536Y-68822841D01*
X60580044Y-68676762D01*
X60600682Y-68520000D01*
X60597391Y-68495000D01*
X61789318Y-68495000D01*
X61809956Y-68651762D01*
X61870464Y-68797841D01*
X61966718Y-68923282D01*
X62092159Y-69019536D01*
X62238238Y-69080044D01*
X62246426Y-69081122D01*
X62299551Y-69088116D01*
X62395000Y-69100682D01*
X62403188Y-69099604D01*
X62438494Y-69094956D01*
X62490449Y-69088116D01*
X62543574Y-69081122D01*
X62551762Y-69080044D01*
X62697841Y-69019536D01*
X62823282Y-68923282D01*
X62907538Y-68813477D01*
X62964875Y-68771611D01*
X63035746Y-68767389D01*
X63097649Y-68802153D01*
X63107460Y-68813475D01*
X63191718Y-68923282D01*
X63317159Y-69019536D01*
X63463238Y-69080044D01*
X63471426Y-69081122D01*
X63524551Y-69088116D01*
X63620000Y-69100682D01*
X63628188Y-69099604D01*
X63663494Y-69094956D01*
X63715449Y-69088116D01*
X63768574Y-69081122D01*
X63776762Y-69080044D01*
X63922841Y-69019536D01*
X64048282Y-68923282D01*
X64144536Y-68797841D01*
X64147697Y-68790211D01*
X64148380Y-68789027D01*
X64199762Y-68740033D01*
X64269476Y-68726596D01*
X64335387Y-68752982D01*
X64366620Y-68789027D01*
X64367303Y-68790211D01*
X64370464Y-68797841D01*
X64466718Y-68923282D01*
X64592159Y-69019536D01*
X64738238Y-69080044D01*
X64746426Y-69081122D01*
X64799551Y-69088116D01*
X64895000Y-69100682D01*
X64903188Y-69099604D01*
X64938494Y-69094956D01*
X64990449Y-69088116D01*
X65043574Y-69081122D01*
X65051762Y-69080044D01*
X65197841Y-69019536D01*
X65323282Y-68923282D01*
X65328305Y-68916736D01*
X65328309Y-68916732D01*
X65370038Y-68862350D01*
X65427376Y-68820483D01*
X65498247Y-68816261D01*
X65560150Y-68851025D01*
X65569962Y-68862350D01*
X65611691Y-68916732D01*
X65611695Y-68916736D01*
X65616718Y-68923282D01*
X65742159Y-69019536D01*
X65888238Y-69080044D01*
X65896426Y-69081122D01*
X65949551Y-69088116D01*
X66045000Y-69100682D01*
X66053188Y-69099604D01*
X66088494Y-69094956D01*
X66140449Y-69088116D01*
X66193574Y-69081122D01*
X66201762Y-69080044D01*
X66347841Y-69019536D01*
X66473282Y-68923282D01*
X66507537Y-68878640D01*
X66564875Y-68836773D01*
X66635746Y-68832551D01*
X66697649Y-68867315D01*
X66707463Y-68878640D01*
X66741718Y-68923282D01*
X66867159Y-69019536D01*
X67013238Y-69080044D01*
X67021426Y-69081122D01*
X67074551Y-69088116D01*
X67170000Y-69100682D01*
X67178188Y-69099604D01*
X67213494Y-69094956D01*
X67265449Y-69088116D01*
X67318574Y-69081122D01*
X67326762Y-69080044D01*
X67472841Y-69019536D01*
X67598282Y-68923282D01*
X67694536Y-68797841D01*
X67755044Y-68651762D01*
X67775682Y-68495000D01*
X67755044Y-68338238D01*
X67694536Y-68192159D01*
X67598282Y-68066718D01*
X67472841Y-67970464D01*
X67326762Y-67909956D01*
X67170000Y-67889318D01*
X67013238Y-67909956D01*
X66867159Y-67970464D01*
X66741718Y-68066718D01*
X66736695Y-68073264D01*
X66707463Y-68111360D01*
X66650125Y-68153227D01*
X66579254Y-68157449D01*
X66517351Y-68122685D01*
X66507537Y-68111360D01*
X66478305Y-68073264D01*
X66473282Y-68066718D01*
X66347841Y-67970464D01*
X66201762Y-67909956D01*
X66045000Y-67889318D01*
X65888238Y-67909956D01*
X65742159Y-67970464D01*
X65616718Y-68066718D01*
X65611695Y-68073264D01*
X65611691Y-68073268D01*
X65569962Y-68127650D01*
X65512624Y-68169517D01*
X65441753Y-68173739D01*
X65379850Y-68138975D01*
X65370038Y-68127650D01*
X65328309Y-68073268D01*
X65328305Y-68073264D01*
X65323282Y-68066718D01*
X65197841Y-67970464D01*
X65051762Y-67909956D01*
X64895000Y-67889318D01*
X64738238Y-67909956D01*
X64592159Y-67970464D01*
X64466718Y-68066718D01*
X64370464Y-68192159D01*
X64367303Y-68199789D01*
X64366620Y-68200973D01*
X64315238Y-68249967D01*
X64245524Y-68263404D01*
X64179613Y-68237018D01*
X64148380Y-68200973D01*
X64147697Y-68199789D01*
X64144536Y-68192159D01*
X64048282Y-68066718D01*
X63922841Y-67970464D01*
X63776762Y-67909956D01*
X63620000Y-67889318D01*
X63463238Y-67909956D01*
X63317159Y-67970464D01*
X63191718Y-68066718D01*
X63125338Y-68153227D01*
X63107463Y-68176522D01*
X63050125Y-68218389D01*
X62979254Y-68222611D01*
X62917351Y-68187847D01*
X62907537Y-68176522D01*
X62889663Y-68153227D01*
X62823282Y-68066718D01*
X62697841Y-67970464D01*
X62551762Y-67909956D01*
X62395000Y-67889318D01*
X62238238Y-67909956D01*
X62092159Y-67970464D01*
X61966718Y-68066718D01*
X61870464Y-68192159D01*
X61809956Y-68338238D01*
X61789318Y-68495000D01*
X60597391Y-68495000D01*
X60580044Y-68363238D01*
X60519536Y-68217159D01*
X60423282Y-68091718D01*
X60297841Y-67995464D01*
X60151762Y-67934956D01*
X59995000Y-67914318D01*
X59838238Y-67934956D01*
X59692159Y-67995464D01*
X59566718Y-68091718D01*
X59470464Y-68217159D01*
X59467303Y-68224789D01*
X59466620Y-68225973D01*
X59415238Y-68274967D01*
X59345524Y-68288404D01*
X59279613Y-68262018D01*
X59248380Y-68225973D01*
X59247697Y-68224789D01*
X59244536Y-68217159D01*
X59148282Y-68091718D01*
X59022841Y-67995464D01*
X58876762Y-67934956D01*
X58720000Y-67914318D01*
X58563238Y-67934956D01*
X58417159Y-67995464D01*
X58291718Y-68091718D01*
X58195464Y-68217159D01*
X58134956Y-68363238D01*
X58114318Y-68520000D01*
X32994404Y-68520000D01*
X32994404Y-66270000D01*
X48214318Y-66270000D01*
X48234956Y-66426762D01*
X48295464Y-66572841D01*
X48391718Y-66698282D01*
X48517159Y-66794536D01*
X48663238Y-66855044D01*
X48820000Y-66875682D01*
X48828188Y-66874604D01*
X48968574Y-66856122D01*
X48976762Y-66855044D01*
X49122841Y-66794536D01*
X49248282Y-66698282D01*
X49344536Y-66572841D01*
X49405044Y-66426762D01*
X49425682Y-66270000D01*
X50864318Y-66270000D01*
X50884956Y-66426762D01*
X50945464Y-66572841D01*
X51041718Y-66698282D01*
X51167159Y-66794536D01*
X51313238Y-66855044D01*
X51470000Y-66875682D01*
X51478188Y-66874604D01*
X51618574Y-66856122D01*
X51626762Y-66855044D01*
X51772841Y-66794536D01*
X51804817Y-66770000D01*
X58114318Y-66770000D01*
X58134956Y-66926762D01*
X58195464Y-67072841D01*
X58291718Y-67198282D01*
X58417159Y-67294536D01*
X58563238Y-67355044D01*
X58720000Y-67375682D01*
X58728188Y-67374604D01*
X58868574Y-67356122D01*
X58876762Y-67355044D01*
X59022841Y-67294536D01*
X59148282Y-67198282D01*
X59244536Y-67072841D01*
X59305044Y-66926762D01*
X59325682Y-66770000D01*
X64289318Y-66770000D01*
X64309956Y-66926762D01*
X64370464Y-67072841D01*
X64466718Y-67198282D01*
X64592159Y-67294536D01*
X64738238Y-67355044D01*
X64895000Y-67375682D01*
X64903188Y-67374604D01*
X65043574Y-67356122D01*
X65051762Y-67355044D01*
X65197841Y-67294536D01*
X65323282Y-67198282D01*
X65328305Y-67191736D01*
X65328309Y-67191732D01*
X65370038Y-67137350D01*
X65427376Y-67095483D01*
X65498247Y-67091261D01*
X65560150Y-67126025D01*
X65569962Y-67137350D01*
X65611691Y-67191732D01*
X65611695Y-67191736D01*
X65616718Y-67198282D01*
X65742159Y-67294536D01*
X65888238Y-67355044D01*
X66045000Y-67375682D01*
X66053188Y-67374604D01*
X66193574Y-67356122D01*
X66201762Y-67355044D01*
X66347841Y-67294536D01*
X66473282Y-67198282D01*
X66569536Y-67072841D01*
X66630044Y-66926762D01*
X66650682Y-66770000D01*
X66630044Y-66613238D01*
X66569536Y-66467159D01*
X66473282Y-66341718D01*
X66347841Y-66245464D01*
X66201762Y-66184956D01*
X66045000Y-66164318D01*
X65888238Y-66184956D01*
X65742159Y-66245464D01*
X65616718Y-66341718D01*
X65611695Y-66348264D01*
X65611691Y-66348268D01*
X65569962Y-66402650D01*
X65512624Y-66444517D01*
X65441753Y-66448739D01*
X65379850Y-66413975D01*
X65370038Y-66402650D01*
X65328309Y-66348268D01*
X65328305Y-66348264D01*
X65323282Y-66341718D01*
X65197841Y-66245464D01*
X65051762Y-66184956D01*
X64895000Y-66164318D01*
X64738238Y-66184956D01*
X64592159Y-66245464D01*
X64466718Y-66341718D01*
X64370464Y-66467159D01*
X64309956Y-66613238D01*
X64289318Y-66770000D01*
X59325682Y-66770000D01*
X59305044Y-66613238D01*
X59244536Y-66467159D01*
X59148282Y-66341718D01*
X59022841Y-66245464D01*
X58876762Y-66184956D01*
X58720000Y-66164318D01*
X58563238Y-66184956D01*
X58417159Y-66245464D01*
X58291718Y-66341718D01*
X58195464Y-66467159D01*
X58134956Y-66613238D01*
X58114318Y-66770000D01*
X51804817Y-66770000D01*
X51898282Y-66698282D01*
X51994536Y-66572841D01*
X52055044Y-66426762D01*
X52075682Y-66270000D01*
X52055044Y-66113238D01*
X51994536Y-65967159D01*
X51898282Y-65841718D01*
X51772841Y-65745464D01*
X51626762Y-65684956D01*
X51470000Y-65664318D01*
X51313238Y-65684956D01*
X51167159Y-65745464D01*
X51041718Y-65841718D01*
X50945464Y-65967159D01*
X50884956Y-66113238D01*
X50864318Y-66270000D01*
X49425682Y-66270000D01*
X49405044Y-66113238D01*
X49344536Y-65967159D01*
X49248282Y-65841718D01*
X49122841Y-65745464D01*
X48976762Y-65684956D01*
X48820000Y-65664318D01*
X48663238Y-65684956D01*
X48517159Y-65745464D01*
X48391718Y-65841718D01*
X48295464Y-65967159D01*
X48234956Y-66113238D01*
X48214318Y-66270000D01*
X32994404Y-66270000D01*
X32994404Y-65270000D01*
X58114318Y-65270000D01*
X58134956Y-65426762D01*
X58195464Y-65572841D01*
X58291718Y-65698282D01*
X58417159Y-65794536D01*
X58563238Y-65855044D01*
X58720000Y-65875682D01*
X58728188Y-65874604D01*
X58868574Y-65856122D01*
X58876762Y-65855044D01*
X59022841Y-65794536D01*
X59148282Y-65698282D01*
X59244536Y-65572841D01*
X59247697Y-65565211D01*
X59248380Y-65564027D01*
X59299762Y-65515033D01*
X59369476Y-65501596D01*
X59435387Y-65527982D01*
X59466620Y-65564027D01*
X59467303Y-65565211D01*
X59470464Y-65572841D01*
X59566718Y-65698282D01*
X59692159Y-65794536D01*
X59838238Y-65855044D01*
X59995000Y-65875682D01*
X60003188Y-65874604D01*
X60143574Y-65856122D01*
X60151762Y-65855044D01*
X60297841Y-65794536D01*
X60423282Y-65698282D01*
X60519536Y-65572841D01*
X60580044Y-65426762D01*
X60600682Y-65270000D01*
X60580044Y-65113238D01*
X60519536Y-64967159D01*
X60423282Y-64841718D01*
X60416736Y-64836695D01*
X60416732Y-64836691D01*
X60362350Y-64794962D01*
X60320483Y-64737624D01*
X60316261Y-64666753D01*
X60351025Y-64604850D01*
X60362350Y-64595038D01*
X60416732Y-64553309D01*
X60416736Y-64553305D01*
X60423282Y-64548282D01*
X60519536Y-64422841D01*
X60580044Y-64276762D01*
X60600682Y-64120000D01*
X60580044Y-63963238D01*
X60519536Y-63817159D01*
X60423282Y-63691718D01*
X60297841Y-63595464D01*
X60151762Y-63534956D01*
X59995000Y-63514318D01*
X59838238Y-63534956D01*
X59692159Y-63595464D01*
X59566718Y-63691718D01*
X59470464Y-63817159D01*
X59467303Y-63824789D01*
X59466620Y-63825973D01*
X59415238Y-63874967D01*
X59345524Y-63888404D01*
X59279613Y-63862018D01*
X59248380Y-63825973D01*
X59247697Y-63824789D01*
X59244536Y-63817159D01*
X59148282Y-63691718D01*
X59022841Y-63595464D01*
X58876762Y-63534956D01*
X58720000Y-63514318D01*
X58563238Y-63534956D01*
X58417159Y-63595464D01*
X58291718Y-63691718D01*
X58195464Y-63817159D01*
X58134956Y-63963238D01*
X58114318Y-64120000D01*
X58134956Y-64276762D01*
X58195464Y-64422841D01*
X58291718Y-64548282D01*
X58298264Y-64553305D01*
X58298268Y-64553309D01*
X58352650Y-64595038D01*
X58394517Y-64652376D01*
X58398739Y-64723247D01*
X58363975Y-64785150D01*
X58352650Y-64794962D01*
X58298268Y-64836691D01*
X58298264Y-64836695D01*
X58291718Y-64841718D01*
X58195464Y-64967159D01*
X58134956Y-65113238D01*
X58114318Y-65270000D01*
X32994404Y-65270000D01*
X32994404Y-64270000D01*
X51464318Y-64270000D01*
X51484956Y-64426762D01*
X51545464Y-64572841D01*
X51641718Y-64698282D01*
X51767159Y-64794536D01*
X51913238Y-64855044D01*
X52070000Y-64875682D01*
X52078188Y-64874604D01*
X52218574Y-64856122D01*
X52226762Y-64855044D01*
X52372841Y-64794536D01*
X52498282Y-64698282D01*
X52594536Y-64572841D01*
X52655044Y-64426762D01*
X52675682Y-64270000D01*
X52655044Y-64113238D01*
X52594536Y-63967159D01*
X52498282Y-63841718D01*
X52372841Y-63745464D01*
X52226762Y-63684956D01*
X52070000Y-63664318D01*
X51913238Y-63684956D01*
X51767159Y-63745464D01*
X51641718Y-63841718D01*
X51545464Y-63967159D01*
X51484956Y-64113238D01*
X51464318Y-64270000D01*
X32994404Y-64270000D01*
X32994404Y-63320000D01*
X49064318Y-63320000D01*
X49084956Y-63476762D01*
X49145464Y-63622841D01*
X49241718Y-63748282D01*
X49367159Y-63844536D01*
X49513238Y-63905044D01*
X49670000Y-63925682D01*
X49678188Y-63924604D01*
X49818574Y-63906122D01*
X49826762Y-63905044D01*
X49972841Y-63844536D01*
X50098282Y-63748282D01*
X50194536Y-63622841D01*
X50255044Y-63476762D01*
X50275682Y-63320000D01*
X50255044Y-63163238D01*
X50194536Y-63017159D01*
X50098282Y-62891718D01*
X49972841Y-62795464D01*
X49826762Y-62734956D01*
X49670000Y-62714318D01*
X49513238Y-62734956D01*
X49367159Y-62795464D01*
X49241718Y-62891718D01*
X49145464Y-63017159D01*
X49084956Y-63163238D01*
X49064318Y-63320000D01*
X32994404Y-63320000D01*
X32994404Y-61270000D01*
X48564318Y-61270000D01*
X48584956Y-61426762D01*
X48645464Y-61572841D01*
X48741718Y-61698282D01*
X48867159Y-61794536D01*
X49013238Y-61855044D01*
X49170000Y-61875682D01*
X49178188Y-61874604D01*
X49179085Y-61874486D01*
X49326762Y-61855044D01*
X49472841Y-61794536D01*
X49504817Y-61770000D01*
X50164318Y-61770000D01*
X50165396Y-61778188D01*
X50178272Y-61875988D01*
X50184956Y-61926762D01*
X50245464Y-62072841D01*
X50341718Y-62198282D01*
X50467159Y-62294536D01*
X50613238Y-62355044D01*
X50770000Y-62375682D01*
X50778188Y-62374604D01*
X50918574Y-62356122D01*
X50926762Y-62355044D01*
X51072841Y-62294536D01*
X51198282Y-62198282D01*
X51294536Y-62072841D01*
X51355044Y-61926762D01*
X51361729Y-61875988D01*
X51374604Y-61778188D01*
X51375682Y-61770000D01*
X51355044Y-61613238D01*
X51294536Y-61467159D01*
X51198282Y-61341718D01*
X51072841Y-61245464D01*
X50926762Y-61184956D01*
X50770000Y-61164318D01*
X50613238Y-61184956D01*
X50467159Y-61245464D01*
X50341718Y-61341718D01*
X50245464Y-61467159D01*
X50184956Y-61613238D01*
X50164318Y-61770000D01*
X49504817Y-61770000D01*
X49598282Y-61698282D01*
X49694536Y-61572841D01*
X49755044Y-61426762D01*
X49775682Y-61270000D01*
X49755044Y-61113238D01*
X49694536Y-60967159D01*
X49598282Y-60841718D01*
X49585520Y-60831925D01*
X49479392Y-60750491D01*
X49472841Y-60745464D01*
X49326762Y-60684956D01*
X49170000Y-60664318D01*
X49013238Y-60684956D01*
X48867159Y-60745464D01*
X48860608Y-60750491D01*
X48754481Y-60831925D01*
X48741718Y-60841718D01*
X48645464Y-60967159D01*
X48584956Y-61113238D01*
X48564318Y-61270000D01*
X32994404Y-61270000D01*
X32994404Y-60648872D01*
X57974174Y-60648872D01*
X57988604Y-60869036D01*
X57990025Y-60874632D01*
X57990026Y-60874637D01*
X58041494Y-61077289D01*
X58042915Y-61082884D01*
X58045332Y-61088126D01*
X58045332Y-61088127D01*
X58080954Y-61165396D01*
X58135287Y-61283253D01*
X58262626Y-61463434D01*
X58420668Y-61617393D01*
X58425464Y-61620598D01*
X58425467Y-61620600D01*
X58545502Y-61700804D01*
X58604121Y-61739972D01*
X58609424Y-61742250D01*
X58609427Y-61742252D01*
X58719421Y-61789509D01*
X58806840Y-61827067D01*
X58886492Y-61845090D01*
X59016399Y-61874486D01*
X59016405Y-61874487D01*
X59022036Y-61875761D01*
X59027807Y-61875988D01*
X59027809Y-61875988D01*
X59095615Y-61878652D01*
X59242502Y-61884423D01*
X59351679Y-61868593D01*
X59455142Y-61853592D01*
X59455147Y-61853591D01*
X59460856Y-61852763D01*
X59466320Y-61850908D01*
X59466325Y-61850907D01*
X59664311Y-61783700D01*
X59664316Y-61783698D01*
X59669783Y-61781842D01*
X59690929Y-61770000D01*
X59810021Y-61703305D01*
X59862288Y-61674034D01*
X59929027Y-61618528D01*
X60027490Y-61536636D01*
X60031922Y-61532950D01*
X60139896Y-61403126D01*
X60169312Y-61367758D01*
X60169314Y-61367755D01*
X60173006Y-61363316D01*
X60271123Y-61188116D01*
X60277990Y-61175854D01*
X60277991Y-61175852D01*
X60280814Y-61170811D01*
X60282670Y-61165344D01*
X60282672Y-61165339D01*
X60349879Y-60967353D01*
X60349880Y-60967348D01*
X60351735Y-60961884D01*
X60352563Y-60956175D01*
X60352564Y-60956170D01*
X60373121Y-60814388D01*
X60383395Y-60743530D01*
X60385047Y-60680432D01*
X60382147Y-60648872D01*
X62124174Y-60648872D01*
X62138604Y-60869036D01*
X62140025Y-60874632D01*
X62140026Y-60874637D01*
X62191494Y-61077289D01*
X62192915Y-61082884D01*
X62195332Y-61088126D01*
X62195332Y-61088127D01*
X62230954Y-61165396D01*
X62285287Y-61283253D01*
X62412626Y-61463434D01*
X62570668Y-61617393D01*
X62575464Y-61620598D01*
X62575467Y-61620600D01*
X62695502Y-61700804D01*
X62754121Y-61739972D01*
X62759424Y-61742250D01*
X62759427Y-61742252D01*
X62869421Y-61789509D01*
X62956840Y-61827067D01*
X63036492Y-61845090D01*
X63166399Y-61874486D01*
X63166405Y-61874487D01*
X63172036Y-61875761D01*
X63177807Y-61875988D01*
X63177809Y-61875988D01*
X63245615Y-61878652D01*
X63392502Y-61884423D01*
X63501679Y-61868593D01*
X63605142Y-61853592D01*
X63605147Y-61853591D01*
X63610856Y-61852763D01*
X63616320Y-61850908D01*
X63616325Y-61850907D01*
X63814311Y-61783700D01*
X63814316Y-61783698D01*
X63819783Y-61781842D01*
X63840929Y-61770000D01*
X63960021Y-61703305D01*
X64012288Y-61674034D01*
X64079027Y-61618528D01*
X64177490Y-61536636D01*
X64181922Y-61532950D01*
X64289896Y-61403126D01*
X64319312Y-61367758D01*
X64319314Y-61367755D01*
X64323006Y-61363316D01*
X64421123Y-61188116D01*
X64427990Y-61175854D01*
X64427991Y-61175852D01*
X64430814Y-61170811D01*
X64432670Y-61165344D01*
X64432672Y-61165339D01*
X64499879Y-60967353D01*
X64499880Y-60967348D01*
X64501735Y-60961884D01*
X64502563Y-60956175D01*
X64502564Y-60956170D01*
X64523121Y-60814388D01*
X64533395Y-60743530D01*
X64535047Y-60680432D01*
X64532147Y-60648872D01*
X65454174Y-60648872D01*
X65468604Y-60869036D01*
X65470025Y-60874632D01*
X65470026Y-60874637D01*
X65521494Y-61077289D01*
X65522915Y-61082884D01*
X65525332Y-61088126D01*
X65525332Y-61088127D01*
X65560954Y-61165396D01*
X65615287Y-61283253D01*
X65742626Y-61463434D01*
X65900668Y-61617393D01*
X65905464Y-61620598D01*
X65905467Y-61620600D01*
X66025502Y-61700804D01*
X66084121Y-61739972D01*
X66089424Y-61742250D01*
X66089427Y-61742252D01*
X66199421Y-61789509D01*
X66286840Y-61827067D01*
X66366492Y-61845090D01*
X66496399Y-61874486D01*
X66496405Y-61874487D01*
X66502036Y-61875761D01*
X66507807Y-61875988D01*
X66507809Y-61875988D01*
X66575615Y-61878652D01*
X66722502Y-61884423D01*
X66831679Y-61868593D01*
X66935142Y-61853592D01*
X66935147Y-61853591D01*
X66940856Y-61852763D01*
X66946320Y-61850908D01*
X66946325Y-61850907D01*
X67144311Y-61783700D01*
X67144316Y-61783698D01*
X67149783Y-61781842D01*
X67170929Y-61770000D01*
X67290021Y-61703305D01*
X67342288Y-61674034D01*
X67409027Y-61618528D01*
X67507490Y-61536636D01*
X67511922Y-61532950D01*
X67619896Y-61403126D01*
X67649312Y-61367758D01*
X67649314Y-61367755D01*
X67653006Y-61363316D01*
X67751123Y-61188116D01*
X67757990Y-61175854D01*
X67757991Y-61175852D01*
X67760814Y-61170811D01*
X67762670Y-61165344D01*
X67762672Y-61165339D01*
X67829879Y-60967353D01*
X67829880Y-60967348D01*
X67831735Y-60961884D01*
X67832563Y-60956175D01*
X67832564Y-60956170D01*
X67853121Y-60814388D01*
X67863395Y-60743530D01*
X67865047Y-60680432D01*
X67862147Y-60648872D01*
X68784174Y-60648872D01*
X68798604Y-60869036D01*
X68800025Y-60874632D01*
X68800026Y-60874637D01*
X68851494Y-61077289D01*
X68852915Y-61082884D01*
X68855332Y-61088126D01*
X68855332Y-61088127D01*
X68890954Y-61165396D01*
X68945287Y-61283253D01*
X69072626Y-61463434D01*
X69230668Y-61617393D01*
X69235464Y-61620598D01*
X69235467Y-61620600D01*
X69355502Y-61700804D01*
X69414121Y-61739972D01*
X69419424Y-61742250D01*
X69419427Y-61742252D01*
X69529421Y-61789509D01*
X69616840Y-61827067D01*
X69696492Y-61845090D01*
X69826399Y-61874486D01*
X69826405Y-61874487D01*
X69832036Y-61875761D01*
X69837807Y-61875988D01*
X69837809Y-61875988D01*
X69905615Y-61878652D01*
X70052502Y-61884423D01*
X70161679Y-61868593D01*
X70265142Y-61853592D01*
X70265147Y-61853591D01*
X70270856Y-61852763D01*
X70276320Y-61850908D01*
X70276325Y-61850907D01*
X70474311Y-61783700D01*
X70474316Y-61783698D01*
X70479783Y-61781842D01*
X70500929Y-61770000D01*
X70620021Y-61703305D01*
X70672288Y-61674034D01*
X70739027Y-61618528D01*
X70837490Y-61536636D01*
X70841922Y-61532950D01*
X70949896Y-61403126D01*
X70979312Y-61367758D01*
X70979314Y-61367755D01*
X70983006Y-61363316D01*
X71081123Y-61188116D01*
X71087990Y-61175854D01*
X71087991Y-61175852D01*
X71090814Y-61170811D01*
X71092670Y-61165344D01*
X71092672Y-61165339D01*
X71159879Y-60967353D01*
X71159880Y-60967348D01*
X71161735Y-60961884D01*
X71162563Y-60956175D01*
X71162564Y-60956170D01*
X71183121Y-60814388D01*
X71193395Y-60743530D01*
X71195047Y-60680432D01*
X71192147Y-60648872D01*
X72114174Y-60648872D01*
X72128604Y-60869036D01*
X72130025Y-60874632D01*
X72130026Y-60874637D01*
X72181494Y-61077289D01*
X72182915Y-61082884D01*
X72185332Y-61088126D01*
X72185332Y-61088127D01*
X72220954Y-61165396D01*
X72275287Y-61283253D01*
X72402626Y-61463434D01*
X72560668Y-61617393D01*
X72565464Y-61620598D01*
X72565467Y-61620600D01*
X72685502Y-61700804D01*
X72744121Y-61739972D01*
X72749424Y-61742250D01*
X72749427Y-61742252D01*
X72859421Y-61789509D01*
X72946840Y-61827067D01*
X73026492Y-61845090D01*
X73156399Y-61874486D01*
X73156405Y-61874487D01*
X73162036Y-61875761D01*
X73167807Y-61875988D01*
X73167809Y-61875988D01*
X73235615Y-61878652D01*
X73382502Y-61884423D01*
X73491679Y-61868593D01*
X73595142Y-61853592D01*
X73595147Y-61853591D01*
X73600856Y-61852763D01*
X73606320Y-61850908D01*
X73606325Y-61850907D01*
X73804311Y-61783700D01*
X73804316Y-61783698D01*
X73809783Y-61781842D01*
X73830929Y-61770000D01*
X73950021Y-61703305D01*
X74002288Y-61674034D01*
X74069027Y-61618528D01*
X74167490Y-61536636D01*
X74171922Y-61532950D01*
X74279896Y-61403126D01*
X74309312Y-61367758D01*
X74309314Y-61367755D01*
X74313006Y-61363316D01*
X74411123Y-61188116D01*
X74417990Y-61175854D01*
X74417991Y-61175852D01*
X74420814Y-61170811D01*
X74422670Y-61165344D01*
X74422672Y-61165339D01*
X74489879Y-60967353D01*
X74489880Y-60967348D01*
X74491735Y-60961884D01*
X74492563Y-60956175D01*
X74492564Y-60956170D01*
X74513121Y-60814388D01*
X74523395Y-60743530D01*
X74525047Y-60680432D01*
X74522147Y-60648872D01*
X75444174Y-60648872D01*
X75458604Y-60869036D01*
X75460025Y-60874632D01*
X75460026Y-60874637D01*
X75511494Y-61077289D01*
X75512915Y-61082884D01*
X75515332Y-61088126D01*
X75515332Y-61088127D01*
X75550954Y-61165396D01*
X75605287Y-61283253D01*
X75732626Y-61463434D01*
X75890668Y-61617393D01*
X75895464Y-61620598D01*
X75895467Y-61620600D01*
X76015502Y-61700804D01*
X76074121Y-61739972D01*
X76079424Y-61742250D01*
X76079427Y-61742252D01*
X76189421Y-61789509D01*
X76276840Y-61827067D01*
X76356492Y-61845090D01*
X76486399Y-61874486D01*
X76486405Y-61874487D01*
X76492036Y-61875761D01*
X76497807Y-61875988D01*
X76497809Y-61875988D01*
X76565615Y-61878652D01*
X76712502Y-61884423D01*
X76821679Y-61868593D01*
X76925142Y-61853592D01*
X76925147Y-61853591D01*
X76930856Y-61852763D01*
X76936320Y-61850908D01*
X76936325Y-61850907D01*
X77134311Y-61783700D01*
X77134316Y-61783698D01*
X77139783Y-61781842D01*
X77160929Y-61770000D01*
X77280021Y-61703305D01*
X77332288Y-61674034D01*
X77399027Y-61618528D01*
X77497490Y-61536636D01*
X77501922Y-61532950D01*
X77609896Y-61403126D01*
X77639312Y-61367758D01*
X77639314Y-61367755D01*
X77643006Y-61363316D01*
X77741123Y-61188116D01*
X77747990Y-61175854D01*
X77747991Y-61175852D01*
X77750814Y-61170811D01*
X77752670Y-61165344D01*
X77752672Y-61165339D01*
X77819879Y-60967353D01*
X77819880Y-60967348D01*
X77821735Y-60961884D01*
X77822563Y-60956175D01*
X77822564Y-60956170D01*
X77843121Y-60814388D01*
X77853395Y-60743530D01*
X77855047Y-60680432D01*
X77852147Y-60648872D01*
X78774174Y-60648872D01*
X78788604Y-60869036D01*
X78790025Y-60874632D01*
X78790026Y-60874637D01*
X78841494Y-61077289D01*
X78842915Y-61082884D01*
X78845332Y-61088126D01*
X78845332Y-61088127D01*
X78880954Y-61165396D01*
X78935287Y-61283253D01*
X79062626Y-61463434D01*
X79220668Y-61617393D01*
X79225464Y-61620598D01*
X79225467Y-61620600D01*
X79345502Y-61700804D01*
X79404121Y-61739972D01*
X79409424Y-61742250D01*
X79409427Y-61742252D01*
X79519421Y-61789509D01*
X79606840Y-61827067D01*
X79686492Y-61845090D01*
X79816399Y-61874486D01*
X79816405Y-61874487D01*
X79822036Y-61875761D01*
X79827807Y-61875988D01*
X79827809Y-61875988D01*
X79895615Y-61878652D01*
X80042502Y-61884423D01*
X80151679Y-61868593D01*
X80255142Y-61853592D01*
X80255147Y-61853591D01*
X80260856Y-61852763D01*
X80266320Y-61850908D01*
X80266325Y-61850907D01*
X80464311Y-61783700D01*
X80464316Y-61783698D01*
X80469783Y-61781842D01*
X80490929Y-61770000D01*
X80610021Y-61703305D01*
X80662288Y-61674034D01*
X80729027Y-61618528D01*
X80827490Y-61536636D01*
X80831922Y-61532950D01*
X80939896Y-61403126D01*
X80969312Y-61367758D01*
X80969314Y-61367755D01*
X80973006Y-61363316D01*
X81071123Y-61188116D01*
X81077990Y-61175854D01*
X81077991Y-61175852D01*
X81080814Y-61170811D01*
X81082670Y-61165344D01*
X81082672Y-61165339D01*
X81149879Y-60967353D01*
X81149880Y-60967348D01*
X81151735Y-60961884D01*
X81152563Y-60956175D01*
X81152564Y-60956170D01*
X81173121Y-60814388D01*
X81183395Y-60743530D01*
X81185047Y-60680432D01*
X81182147Y-60648872D01*
X82924174Y-60648872D01*
X82938604Y-60869036D01*
X82940025Y-60874632D01*
X82940026Y-60874637D01*
X82991494Y-61077289D01*
X82992915Y-61082884D01*
X82995332Y-61088126D01*
X82995332Y-61088127D01*
X83030954Y-61165396D01*
X83085287Y-61283253D01*
X83212626Y-61463434D01*
X83370668Y-61617393D01*
X83375464Y-61620598D01*
X83375467Y-61620600D01*
X83495502Y-61700804D01*
X83554121Y-61739972D01*
X83559424Y-61742250D01*
X83559427Y-61742252D01*
X83669421Y-61789509D01*
X83756840Y-61827067D01*
X83836492Y-61845090D01*
X83966399Y-61874486D01*
X83966405Y-61874487D01*
X83972036Y-61875761D01*
X83977807Y-61875988D01*
X83977809Y-61875988D01*
X84045615Y-61878652D01*
X84192502Y-61884423D01*
X84301679Y-61868593D01*
X84405142Y-61853592D01*
X84405147Y-61853591D01*
X84410856Y-61852763D01*
X84416320Y-61850908D01*
X84416325Y-61850907D01*
X84614311Y-61783700D01*
X84614316Y-61783698D01*
X84619783Y-61781842D01*
X84640929Y-61770000D01*
X84760021Y-61703305D01*
X84812288Y-61674034D01*
X84879027Y-61618528D01*
X84977490Y-61536636D01*
X84981922Y-61532950D01*
X85089896Y-61403126D01*
X85119312Y-61367758D01*
X85119314Y-61367755D01*
X85123006Y-61363316D01*
X85175266Y-61270000D01*
X94739196Y-61270000D01*
X94740747Y-61279793D01*
X94753177Y-61358271D01*
X94760281Y-61403126D01*
X94821472Y-61523220D01*
X94916780Y-61618528D01*
X95036874Y-61679719D01*
X95046663Y-61681269D01*
X95046665Y-61681270D01*
X95160207Y-61699253D01*
X95170000Y-61700804D01*
X95179793Y-61699253D01*
X95293335Y-61681270D01*
X95293337Y-61681269D01*
X95303126Y-61679719D01*
X95423220Y-61618528D01*
X95518528Y-61523220D01*
X95579719Y-61403126D01*
X95586824Y-61358271D01*
X95599253Y-61279793D01*
X95600804Y-61270000D01*
X95587835Y-61188116D01*
X95581270Y-61146665D01*
X95581269Y-61146663D01*
X95579719Y-61136874D01*
X95518528Y-61016780D01*
X95510843Y-61009095D01*
X95510286Y-61008075D01*
X95505689Y-61001748D01*
X95506507Y-61001154D01*
X95476817Y-60946783D01*
X95481882Y-60875968D01*
X95505984Y-60838466D01*
X95505689Y-60838252D01*
X95509432Y-60833100D01*
X95510843Y-60830905D01*
X95518528Y-60823220D01*
X95579719Y-60703126D01*
X95582097Y-60688116D01*
X95599253Y-60579793D01*
X95600804Y-60570000D01*
X95579719Y-60436874D01*
X95518528Y-60316780D01*
X95423220Y-60221472D01*
X95303126Y-60160281D01*
X95293337Y-60158731D01*
X95293335Y-60158730D01*
X95179793Y-60140747D01*
X95170000Y-60139196D01*
X95160207Y-60140747D01*
X95046665Y-60158730D01*
X95046663Y-60158731D01*
X95036874Y-60160281D01*
X94916780Y-60221472D01*
X94821472Y-60316780D01*
X94760281Y-60436874D01*
X94739196Y-60570000D01*
X94740747Y-60579793D01*
X94757904Y-60688116D01*
X94760281Y-60703126D01*
X94821472Y-60823220D01*
X94829157Y-60830905D01*
X94829714Y-60831925D01*
X94834311Y-60838252D01*
X94833493Y-60838846D01*
X94863183Y-60893217D01*
X94858118Y-60964032D01*
X94834016Y-61001534D01*
X94834311Y-61001748D01*
X94830568Y-61006900D01*
X94829157Y-61009095D01*
X94821472Y-61016780D01*
X94760281Y-61136874D01*
X94758731Y-61146663D01*
X94758730Y-61146665D01*
X94752165Y-61188116D01*
X94739196Y-61270000D01*
X85175266Y-61270000D01*
X85221123Y-61188116D01*
X85227990Y-61175854D01*
X85227991Y-61175852D01*
X85230814Y-61170811D01*
X85232670Y-61165344D01*
X85232672Y-61165339D01*
X85299879Y-60967353D01*
X85299880Y-60967348D01*
X85301735Y-60961884D01*
X85302563Y-60956175D01*
X85302564Y-60956170D01*
X85323121Y-60814388D01*
X85333395Y-60743530D01*
X85335047Y-60680432D01*
X85314858Y-60460721D01*
X85305642Y-60428041D01*
X85256538Y-60253932D01*
X85254969Y-60248368D01*
X85157384Y-60050485D01*
X85025371Y-59873699D01*
X84888688Y-59747350D01*
X84867593Y-59727850D01*
X84867590Y-59727848D01*
X84863353Y-59723931D01*
X84676754Y-59606196D01*
X84471825Y-59524438D01*
X84466165Y-59523312D01*
X84466161Y-59523311D01*
X84261095Y-59482521D01*
X84261092Y-59482521D01*
X84255428Y-59481394D01*
X84249653Y-59481318D01*
X84249649Y-59481318D01*
X84138908Y-59479869D01*
X84034810Y-59478506D01*
X84029113Y-59479485D01*
X84029112Y-59479485D01*
X83823058Y-59514891D01*
X83823057Y-59514891D01*
X83817361Y-59515870D01*
X83610361Y-59592236D01*
X83420745Y-59705046D01*
X83254861Y-59850522D01*
X83118267Y-60023792D01*
X83015535Y-60219052D01*
X82950107Y-60429765D01*
X82924174Y-60648872D01*
X81182147Y-60648872D01*
X81164858Y-60460721D01*
X81155642Y-60428041D01*
X81106538Y-60253932D01*
X81104969Y-60248368D01*
X81007384Y-60050485D01*
X80875371Y-59873699D01*
X80738688Y-59747350D01*
X80717593Y-59727850D01*
X80717590Y-59727848D01*
X80713353Y-59723931D01*
X80526754Y-59606196D01*
X80321825Y-59524438D01*
X80316165Y-59523312D01*
X80316161Y-59523311D01*
X80111095Y-59482521D01*
X80111092Y-59482521D01*
X80105428Y-59481394D01*
X80099653Y-59481318D01*
X80099649Y-59481318D01*
X79988908Y-59479869D01*
X79884810Y-59478506D01*
X79879113Y-59479485D01*
X79879112Y-59479485D01*
X79673058Y-59514891D01*
X79673057Y-59514891D01*
X79667361Y-59515870D01*
X79460361Y-59592236D01*
X79270745Y-59705046D01*
X79104861Y-59850522D01*
X78968267Y-60023792D01*
X78865535Y-60219052D01*
X78800107Y-60429765D01*
X78774174Y-60648872D01*
X77852147Y-60648872D01*
X77834858Y-60460721D01*
X77825642Y-60428041D01*
X77776538Y-60253932D01*
X77774969Y-60248368D01*
X77677384Y-60050485D01*
X77545371Y-59873699D01*
X77408688Y-59747350D01*
X77387593Y-59727850D01*
X77387590Y-59727848D01*
X77383353Y-59723931D01*
X77196754Y-59606196D01*
X76991825Y-59524438D01*
X76986165Y-59523312D01*
X76986161Y-59523311D01*
X76781095Y-59482521D01*
X76781092Y-59482521D01*
X76775428Y-59481394D01*
X76769653Y-59481318D01*
X76769649Y-59481318D01*
X76658908Y-59479869D01*
X76554810Y-59478506D01*
X76549113Y-59479485D01*
X76549112Y-59479485D01*
X76343058Y-59514891D01*
X76343057Y-59514891D01*
X76337361Y-59515870D01*
X76130361Y-59592236D01*
X75940745Y-59705046D01*
X75774861Y-59850522D01*
X75638267Y-60023792D01*
X75535535Y-60219052D01*
X75470107Y-60429765D01*
X75444174Y-60648872D01*
X74522147Y-60648872D01*
X74504858Y-60460721D01*
X74495642Y-60428041D01*
X74446538Y-60253932D01*
X74444969Y-60248368D01*
X74347384Y-60050485D01*
X74215371Y-59873699D01*
X74078688Y-59747350D01*
X74057593Y-59727850D01*
X74057590Y-59727848D01*
X74053353Y-59723931D01*
X73866754Y-59606196D01*
X73661825Y-59524438D01*
X73656165Y-59523312D01*
X73656161Y-59523311D01*
X73451095Y-59482521D01*
X73451092Y-59482521D01*
X73445428Y-59481394D01*
X73439653Y-59481318D01*
X73439649Y-59481318D01*
X73328908Y-59479869D01*
X73224810Y-59478506D01*
X73219113Y-59479485D01*
X73219112Y-59479485D01*
X73013058Y-59514891D01*
X73013057Y-59514891D01*
X73007361Y-59515870D01*
X72800361Y-59592236D01*
X72610745Y-59705046D01*
X72444861Y-59850522D01*
X72308267Y-60023792D01*
X72205535Y-60219052D01*
X72140107Y-60429765D01*
X72114174Y-60648872D01*
X71192147Y-60648872D01*
X71174858Y-60460721D01*
X71165642Y-60428041D01*
X71116538Y-60253932D01*
X71114969Y-60248368D01*
X71017384Y-60050485D01*
X70885371Y-59873699D01*
X70748688Y-59747350D01*
X70727593Y-59727850D01*
X70727590Y-59727848D01*
X70723353Y-59723931D01*
X70536754Y-59606196D01*
X70331825Y-59524438D01*
X70326165Y-59523312D01*
X70326161Y-59523311D01*
X70121095Y-59482521D01*
X70121092Y-59482521D01*
X70115428Y-59481394D01*
X70109653Y-59481318D01*
X70109649Y-59481318D01*
X69998908Y-59479869D01*
X69894810Y-59478506D01*
X69889113Y-59479485D01*
X69889112Y-59479485D01*
X69683058Y-59514891D01*
X69683057Y-59514891D01*
X69677361Y-59515870D01*
X69470361Y-59592236D01*
X69280745Y-59705046D01*
X69114861Y-59850522D01*
X68978267Y-60023792D01*
X68875535Y-60219052D01*
X68810107Y-60429765D01*
X68784174Y-60648872D01*
X67862147Y-60648872D01*
X67844858Y-60460721D01*
X67835642Y-60428041D01*
X67786538Y-60253932D01*
X67784969Y-60248368D01*
X67687384Y-60050485D01*
X67555371Y-59873699D01*
X67418688Y-59747350D01*
X67397593Y-59727850D01*
X67397590Y-59727848D01*
X67393353Y-59723931D01*
X67206754Y-59606196D01*
X67001825Y-59524438D01*
X66996165Y-59523312D01*
X66996161Y-59523311D01*
X66791095Y-59482521D01*
X66791092Y-59482521D01*
X66785428Y-59481394D01*
X66779653Y-59481318D01*
X66779649Y-59481318D01*
X66668908Y-59479869D01*
X66564810Y-59478506D01*
X66559113Y-59479485D01*
X66559112Y-59479485D01*
X66353058Y-59514891D01*
X66353057Y-59514891D01*
X66347361Y-59515870D01*
X66140361Y-59592236D01*
X65950745Y-59705046D01*
X65784861Y-59850522D01*
X65648267Y-60023792D01*
X65545535Y-60219052D01*
X65480107Y-60429765D01*
X65454174Y-60648872D01*
X64532147Y-60648872D01*
X64514858Y-60460721D01*
X64505642Y-60428041D01*
X64456538Y-60253932D01*
X64454969Y-60248368D01*
X64357384Y-60050485D01*
X64225371Y-59873699D01*
X64088688Y-59747350D01*
X64067593Y-59727850D01*
X64067590Y-59727848D01*
X64063353Y-59723931D01*
X63876754Y-59606196D01*
X63671825Y-59524438D01*
X63666165Y-59523312D01*
X63666161Y-59523311D01*
X63461095Y-59482521D01*
X63461092Y-59482521D01*
X63455428Y-59481394D01*
X63449653Y-59481318D01*
X63449649Y-59481318D01*
X63338908Y-59479869D01*
X63234810Y-59478506D01*
X63229113Y-59479485D01*
X63229112Y-59479485D01*
X63023058Y-59514891D01*
X63023057Y-59514891D01*
X63017361Y-59515870D01*
X62810361Y-59592236D01*
X62620745Y-59705046D01*
X62454861Y-59850522D01*
X62318267Y-60023792D01*
X62215535Y-60219052D01*
X62150107Y-60429765D01*
X62124174Y-60648872D01*
X60382147Y-60648872D01*
X60364858Y-60460721D01*
X60355642Y-60428041D01*
X60306538Y-60253932D01*
X60304969Y-60248368D01*
X60207384Y-60050485D01*
X60075371Y-59873699D01*
X59938688Y-59747350D01*
X59917593Y-59727850D01*
X59917590Y-59727848D01*
X59913353Y-59723931D01*
X59726754Y-59606196D01*
X59521825Y-59524438D01*
X59516165Y-59523312D01*
X59516161Y-59523311D01*
X59311095Y-59482521D01*
X59311092Y-59482521D01*
X59305428Y-59481394D01*
X59299653Y-59481318D01*
X59299649Y-59481318D01*
X59188908Y-59479869D01*
X59084810Y-59478506D01*
X59079113Y-59479485D01*
X59079112Y-59479485D01*
X58873058Y-59514891D01*
X58873057Y-59514891D01*
X58867361Y-59515870D01*
X58660361Y-59592236D01*
X58470745Y-59705046D01*
X58304861Y-59850522D01*
X58168267Y-60023792D01*
X58065535Y-60219052D01*
X58000107Y-60429765D01*
X57974174Y-60648872D01*
X32994404Y-60648872D01*
X32994404Y-58970000D01*
X50443821Y-58970000D01*
X50464459Y-59126762D01*
X50524967Y-59272841D01*
X50621221Y-59398282D01*
X50746662Y-59494536D01*
X50892741Y-59555044D01*
X51049503Y-59575682D01*
X51057691Y-59574604D01*
X51198077Y-59556122D01*
X51206265Y-59555044D01*
X51352344Y-59494536D01*
X51477785Y-59398282D01*
X51514833Y-59350000D01*
X106264318Y-59350000D01*
X106284956Y-59506762D01*
X106288116Y-59514391D01*
X106291811Y-59523311D01*
X106345464Y-59652841D01*
X106441718Y-59778282D01*
X106567159Y-59874536D01*
X106713238Y-59935044D01*
X106870000Y-59955682D01*
X106878188Y-59954604D01*
X107018574Y-59936122D01*
X107026762Y-59935044D01*
X107172841Y-59874536D01*
X107298282Y-59778282D01*
X107303305Y-59771736D01*
X107303309Y-59771732D01*
X107322018Y-59747350D01*
X107379356Y-59705483D01*
X107450227Y-59701261D01*
X107512129Y-59736025D01*
X107521942Y-59747350D01*
X107586691Y-59831732D01*
X107586695Y-59831736D01*
X107591718Y-59838282D01*
X107598264Y-59843305D01*
X107613589Y-59855064D01*
X107717159Y-59934536D01*
X107863238Y-59995044D01*
X108020000Y-60015682D01*
X108028188Y-60014604D01*
X108168574Y-59996122D01*
X108176762Y-59995044D01*
X108322841Y-59934536D01*
X108426411Y-59855064D01*
X108441736Y-59843305D01*
X108448282Y-59838282D01*
X108544536Y-59712841D01*
X108605044Y-59566762D01*
X108625682Y-59410000D01*
X108605044Y-59253238D01*
X108544536Y-59107159D01*
X108448282Y-58981718D01*
X108322841Y-58885464D01*
X108176762Y-58824956D01*
X108020000Y-58804318D01*
X107863238Y-58824956D01*
X107717159Y-58885464D01*
X107591718Y-58981718D01*
X107586695Y-58988264D01*
X107586691Y-58988268D01*
X107567982Y-59012650D01*
X107510644Y-59054517D01*
X107439773Y-59058739D01*
X107377871Y-59023975D01*
X107368058Y-59012650D01*
X107303309Y-58928268D01*
X107303305Y-58928264D01*
X107298282Y-58921718D01*
X107172841Y-58825464D01*
X107026762Y-58764956D01*
X106870000Y-58744318D01*
X106713238Y-58764956D01*
X106567159Y-58825464D01*
X106441718Y-58921718D01*
X106345464Y-59047159D01*
X106284956Y-59193238D01*
X106264318Y-59350000D01*
X51514833Y-59350000D01*
X51574039Y-59272841D01*
X51634547Y-59126762D01*
X51655185Y-58970000D01*
X51634547Y-58813238D01*
X51574039Y-58667159D01*
X51477785Y-58541718D01*
X51352344Y-58445464D01*
X51206265Y-58384956D01*
X51049503Y-58364318D01*
X50892741Y-58384956D01*
X50746662Y-58445464D01*
X50621221Y-58541718D01*
X50524967Y-58667159D01*
X50464459Y-58813238D01*
X50443821Y-58970000D01*
X32994404Y-58970000D01*
X32994404Y-56448872D01*
X57974174Y-56448872D01*
X57988604Y-56669036D01*
X57990025Y-56674632D01*
X57990026Y-56674637D01*
X58024212Y-56809243D01*
X58042915Y-56882884D01*
X58045332Y-56888126D01*
X58045332Y-56888127D01*
X58083450Y-56970811D01*
X58135287Y-57083253D01*
X58262626Y-57263434D01*
X58420668Y-57417393D01*
X58425464Y-57420598D01*
X58425467Y-57420600D01*
X58509665Y-57476859D01*
X58604121Y-57539972D01*
X58609424Y-57542250D01*
X58609427Y-57542252D01*
X58801533Y-57624787D01*
X58806840Y-57627067D01*
X58886492Y-57645090D01*
X59016399Y-57674486D01*
X59016405Y-57674487D01*
X59022036Y-57675761D01*
X59027807Y-57675988D01*
X59027809Y-57675988D01*
X59095615Y-57678652D01*
X59242502Y-57684423D01*
X59351679Y-57668593D01*
X59455142Y-57653592D01*
X59455147Y-57653591D01*
X59460856Y-57652763D01*
X59466320Y-57650908D01*
X59466325Y-57650907D01*
X59664311Y-57583700D01*
X59664316Y-57583698D01*
X59669783Y-57581842D01*
X59862288Y-57474034D01*
X59974832Y-57380432D01*
X60027490Y-57336636D01*
X60031922Y-57332950D01*
X60087629Y-57265970D01*
X60169312Y-57167758D01*
X60169314Y-57167755D01*
X60173006Y-57163316D01*
X60280814Y-56970811D01*
X60282670Y-56965344D01*
X60282672Y-56965339D01*
X60349879Y-56767353D01*
X60349880Y-56767348D01*
X60351735Y-56761884D01*
X60352563Y-56756175D01*
X60352564Y-56756170D01*
X60382862Y-56547204D01*
X60383395Y-56543530D01*
X60385047Y-56480432D01*
X60382147Y-56448872D01*
X62124174Y-56448872D01*
X62138604Y-56669036D01*
X62140025Y-56674632D01*
X62140026Y-56674637D01*
X62174212Y-56809243D01*
X62192915Y-56882884D01*
X62195332Y-56888126D01*
X62195332Y-56888127D01*
X62233450Y-56970811D01*
X62285287Y-57083253D01*
X62412626Y-57263434D01*
X62570668Y-57417393D01*
X62575464Y-57420598D01*
X62575467Y-57420600D01*
X62659665Y-57476859D01*
X62754121Y-57539972D01*
X62759424Y-57542250D01*
X62759427Y-57542252D01*
X62951533Y-57624787D01*
X62956840Y-57627067D01*
X63036492Y-57645090D01*
X63166399Y-57674486D01*
X63166405Y-57674487D01*
X63172036Y-57675761D01*
X63177807Y-57675988D01*
X63177809Y-57675988D01*
X63245615Y-57678652D01*
X63392502Y-57684423D01*
X63501679Y-57668593D01*
X63605142Y-57653592D01*
X63605147Y-57653591D01*
X63610856Y-57652763D01*
X63616320Y-57650908D01*
X63616325Y-57650907D01*
X63814311Y-57583700D01*
X63814316Y-57583698D01*
X63819783Y-57581842D01*
X64012288Y-57474034D01*
X64124832Y-57380432D01*
X64177490Y-57336636D01*
X64181922Y-57332950D01*
X64237629Y-57265970D01*
X64319312Y-57167758D01*
X64319314Y-57167755D01*
X64323006Y-57163316D01*
X64430814Y-56970811D01*
X64432670Y-56965344D01*
X64432672Y-56965339D01*
X64499879Y-56767353D01*
X64499880Y-56767348D01*
X64501735Y-56761884D01*
X64502563Y-56756175D01*
X64502564Y-56756170D01*
X64532862Y-56547204D01*
X64533395Y-56543530D01*
X64535047Y-56480432D01*
X64532147Y-56448872D01*
X65454174Y-56448872D01*
X65468604Y-56669036D01*
X65470025Y-56674632D01*
X65470026Y-56674637D01*
X65504212Y-56809243D01*
X65522915Y-56882884D01*
X65525332Y-56888126D01*
X65525332Y-56888127D01*
X65563450Y-56970811D01*
X65615287Y-57083253D01*
X65742626Y-57263434D01*
X65900668Y-57417393D01*
X65905464Y-57420598D01*
X65905467Y-57420600D01*
X65989665Y-57476859D01*
X66084121Y-57539972D01*
X66089424Y-57542250D01*
X66089427Y-57542252D01*
X66281533Y-57624787D01*
X66286840Y-57627067D01*
X66366492Y-57645090D01*
X66496399Y-57674486D01*
X66496405Y-57674487D01*
X66502036Y-57675761D01*
X66507807Y-57675988D01*
X66507809Y-57675988D01*
X66575615Y-57678652D01*
X66722502Y-57684423D01*
X66831679Y-57668593D01*
X66935142Y-57653592D01*
X66935147Y-57653591D01*
X66940856Y-57652763D01*
X66946320Y-57650908D01*
X66946325Y-57650907D01*
X67144311Y-57583700D01*
X67144316Y-57583698D01*
X67149783Y-57581842D01*
X67342288Y-57474034D01*
X67454832Y-57380432D01*
X67507490Y-57336636D01*
X67511922Y-57332950D01*
X67567629Y-57265970D01*
X67649312Y-57167758D01*
X67649314Y-57167755D01*
X67653006Y-57163316D01*
X67760814Y-56970811D01*
X67762670Y-56965344D01*
X67762672Y-56965339D01*
X67829879Y-56767353D01*
X67829880Y-56767348D01*
X67831735Y-56761884D01*
X67832563Y-56756175D01*
X67832564Y-56756170D01*
X67862862Y-56547204D01*
X67863395Y-56543530D01*
X67865047Y-56480432D01*
X67862147Y-56448872D01*
X68784174Y-56448872D01*
X68798604Y-56669036D01*
X68800025Y-56674632D01*
X68800026Y-56674637D01*
X68834212Y-56809243D01*
X68852915Y-56882884D01*
X68855332Y-56888126D01*
X68855332Y-56888127D01*
X68893450Y-56970811D01*
X68945287Y-57083253D01*
X69072626Y-57263434D01*
X69230668Y-57417393D01*
X69235464Y-57420598D01*
X69235467Y-57420600D01*
X69319665Y-57476859D01*
X69414121Y-57539972D01*
X69419424Y-57542250D01*
X69419427Y-57542252D01*
X69611533Y-57624787D01*
X69616840Y-57627067D01*
X69696492Y-57645090D01*
X69826399Y-57674486D01*
X69826405Y-57674487D01*
X69832036Y-57675761D01*
X69837807Y-57675988D01*
X69837809Y-57675988D01*
X69905615Y-57678652D01*
X70052502Y-57684423D01*
X70161679Y-57668593D01*
X70265142Y-57653592D01*
X70265147Y-57653591D01*
X70270856Y-57652763D01*
X70276320Y-57650908D01*
X70276325Y-57650907D01*
X70474311Y-57583700D01*
X70474316Y-57583698D01*
X70479783Y-57581842D01*
X70672288Y-57474034D01*
X70784832Y-57380432D01*
X70837490Y-57336636D01*
X70841922Y-57332950D01*
X70897629Y-57265970D01*
X70979312Y-57167758D01*
X70979314Y-57167755D01*
X70983006Y-57163316D01*
X71090814Y-56970811D01*
X71092670Y-56965344D01*
X71092672Y-56965339D01*
X71159879Y-56767353D01*
X71159880Y-56767348D01*
X71161735Y-56761884D01*
X71162563Y-56756175D01*
X71162564Y-56756170D01*
X71192862Y-56547204D01*
X71193395Y-56543530D01*
X71195047Y-56480432D01*
X71192147Y-56448872D01*
X75444174Y-56448872D01*
X75458604Y-56669036D01*
X75460025Y-56674632D01*
X75460026Y-56674637D01*
X75494212Y-56809243D01*
X75512915Y-56882884D01*
X75515332Y-56888126D01*
X75515332Y-56888127D01*
X75553450Y-56970811D01*
X75605287Y-57083253D01*
X75732626Y-57263434D01*
X75890668Y-57417393D01*
X75895464Y-57420598D01*
X75895467Y-57420600D01*
X75979665Y-57476859D01*
X76074121Y-57539972D01*
X76079424Y-57542250D01*
X76079427Y-57542252D01*
X76271533Y-57624787D01*
X76276840Y-57627067D01*
X76356492Y-57645090D01*
X76486399Y-57674486D01*
X76486405Y-57674487D01*
X76492036Y-57675761D01*
X76497807Y-57675988D01*
X76497809Y-57675988D01*
X76565615Y-57678652D01*
X76712502Y-57684423D01*
X76821679Y-57668593D01*
X76925142Y-57653592D01*
X76925147Y-57653591D01*
X76930856Y-57652763D01*
X76936320Y-57650908D01*
X76936325Y-57650907D01*
X77134311Y-57583700D01*
X77134316Y-57583698D01*
X77139783Y-57581842D01*
X77332288Y-57474034D01*
X77444832Y-57380432D01*
X77497490Y-57336636D01*
X77501922Y-57332950D01*
X77557629Y-57265970D01*
X77639312Y-57167758D01*
X77639314Y-57167755D01*
X77643006Y-57163316D01*
X77750814Y-56970811D01*
X77752670Y-56965344D01*
X77752672Y-56965339D01*
X77819879Y-56767353D01*
X77819880Y-56767348D01*
X77821735Y-56761884D01*
X77822563Y-56756175D01*
X77822564Y-56756170D01*
X77852862Y-56547204D01*
X77853395Y-56543530D01*
X77855047Y-56480432D01*
X77852147Y-56448872D01*
X78774174Y-56448872D01*
X78788604Y-56669036D01*
X78790025Y-56674632D01*
X78790026Y-56674637D01*
X78824212Y-56809243D01*
X78842915Y-56882884D01*
X78845332Y-56888126D01*
X78845332Y-56888127D01*
X78883450Y-56970811D01*
X78935287Y-57083253D01*
X79062626Y-57263434D01*
X79220668Y-57417393D01*
X79225464Y-57420598D01*
X79225467Y-57420600D01*
X79309665Y-57476859D01*
X79404121Y-57539972D01*
X79409424Y-57542250D01*
X79409427Y-57542252D01*
X79601533Y-57624787D01*
X79606840Y-57627067D01*
X79686492Y-57645090D01*
X79816399Y-57674486D01*
X79816405Y-57674487D01*
X79822036Y-57675761D01*
X79827807Y-57675988D01*
X79827809Y-57675988D01*
X79895615Y-57678652D01*
X80042502Y-57684423D01*
X80151679Y-57668593D01*
X80255142Y-57653592D01*
X80255147Y-57653591D01*
X80260856Y-57652763D01*
X80266320Y-57650908D01*
X80266325Y-57650907D01*
X80464311Y-57583700D01*
X80464316Y-57583698D01*
X80469783Y-57581842D01*
X80662288Y-57474034D01*
X80774832Y-57380432D01*
X80827490Y-57336636D01*
X80831922Y-57332950D01*
X80887629Y-57265970D01*
X80969312Y-57167758D01*
X80969314Y-57167755D01*
X80973006Y-57163316D01*
X81080814Y-56970811D01*
X81082670Y-56965344D01*
X81082672Y-56965339D01*
X81149879Y-56767353D01*
X81149880Y-56767348D01*
X81151735Y-56761884D01*
X81152563Y-56756175D01*
X81152564Y-56756170D01*
X81182862Y-56547204D01*
X81183395Y-56543530D01*
X81185047Y-56480432D01*
X81182147Y-56448872D01*
X82924174Y-56448872D01*
X82938604Y-56669036D01*
X82940025Y-56674632D01*
X82940026Y-56674637D01*
X82974212Y-56809243D01*
X82992915Y-56882884D01*
X82995332Y-56888126D01*
X82995332Y-56888127D01*
X83033450Y-56970811D01*
X83085287Y-57083253D01*
X83212626Y-57263434D01*
X83370668Y-57417393D01*
X83375464Y-57420598D01*
X83375467Y-57420600D01*
X83459665Y-57476859D01*
X83554121Y-57539972D01*
X83559424Y-57542250D01*
X83559427Y-57542252D01*
X83751533Y-57624787D01*
X83756840Y-57627067D01*
X83836492Y-57645090D01*
X83966399Y-57674486D01*
X83966405Y-57674487D01*
X83972036Y-57675761D01*
X83977807Y-57675988D01*
X83977809Y-57675988D01*
X84045615Y-57678652D01*
X84192502Y-57684423D01*
X84301679Y-57668593D01*
X84405142Y-57653592D01*
X84405147Y-57653591D01*
X84410856Y-57652763D01*
X84416320Y-57650908D01*
X84416325Y-57650907D01*
X84614311Y-57583700D01*
X84614316Y-57583698D01*
X84619783Y-57581842D01*
X84812288Y-57474034D01*
X84924832Y-57380432D01*
X84977490Y-57336636D01*
X84981922Y-57332950D01*
X85037629Y-57265970D01*
X85119312Y-57167758D01*
X85119314Y-57167755D01*
X85123006Y-57163316D01*
X85230814Y-56970811D01*
X85232670Y-56965344D01*
X85232672Y-56965339D01*
X85238222Y-56948988D01*
X90363936Y-56948988D01*
X90366400Y-56957611D01*
X90366401Y-56957616D01*
X90371887Y-56976811D01*
X90375464Y-56993569D01*
X90379566Y-57022209D01*
X90383281Y-57030379D01*
X90383281Y-57030380D01*
X90389953Y-57045055D01*
X90396401Y-57062582D01*
X90400810Y-57078008D01*
X90403293Y-57086697D01*
X90418736Y-57111172D01*
X90426870Y-57126248D01*
X90438846Y-57152588D01*
X90444702Y-57159384D01*
X90444704Y-57159387D01*
X90455219Y-57171589D01*
X90466332Y-57186607D01*
X90479719Y-57207825D01*
X90501406Y-57226978D01*
X90513447Y-57239167D01*
X90532336Y-57261089D01*
X90539865Y-57265969D01*
X90539866Y-57265970D01*
X90553395Y-57274739D01*
X90568268Y-57286029D01*
X90580337Y-57296687D01*
X90587070Y-57302633D01*
X90613263Y-57314931D01*
X90628230Y-57323245D01*
X90652521Y-57338989D01*
X90661123Y-57341561D01*
X90661124Y-57341562D01*
X90664543Y-57342584D01*
X90676563Y-57346179D01*
X90694001Y-57352838D01*
X90703115Y-57357117D01*
X90708593Y-57359689D01*
X90708595Y-57359690D01*
X90716715Y-57363502D01*
X90725579Y-57364882D01*
X90725582Y-57364883D01*
X90741829Y-57367412D01*
X90745303Y-57367953D01*
X90762020Y-57371736D01*
X90781139Y-57377454D01*
X90781145Y-57377455D01*
X90789739Y-57380025D01*
X90798708Y-57380080D01*
X90798710Y-57380080D01*
X90808925Y-57380142D01*
X90823620Y-57380232D01*
X90824367Y-57380263D01*
X90825451Y-57380432D01*
X90855914Y-57380432D01*
X90856685Y-57380434D01*
X90932960Y-57380900D01*
X90934287Y-57380521D01*
X90935593Y-57380432D01*
X93045914Y-57380432D01*
X93046685Y-57380434D01*
X93122960Y-57380900D01*
X93131583Y-57378436D01*
X93131588Y-57378435D01*
X93150783Y-57372949D01*
X93167541Y-57369372D01*
X93187296Y-57366543D01*
X93187299Y-57366542D01*
X93196181Y-57365270D01*
X93208456Y-57359689D01*
X93219027Y-57354883D01*
X93236554Y-57348435D01*
X93252038Y-57344010D01*
X93252040Y-57344009D01*
X93260669Y-57341543D01*
X93285144Y-57326100D01*
X93300220Y-57317966D01*
X93318391Y-57309704D01*
X93326560Y-57305990D01*
X93333356Y-57300134D01*
X93333359Y-57300132D01*
X93345561Y-57289617D01*
X93360579Y-57278504D01*
X93374205Y-57269907D01*
X93381797Y-57265117D01*
X93400950Y-57243430D01*
X93413139Y-57231389D01*
X93435061Y-57212500D01*
X93448711Y-57191441D01*
X93460001Y-57176568D01*
X93470659Y-57164499D01*
X93470660Y-57164498D01*
X93476605Y-57157766D01*
X93488903Y-57131573D01*
X93497217Y-57116606D01*
X93512961Y-57092315D01*
X93520151Y-57068273D01*
X93526810Y-57050835D01*
X93537474Y-57028121D01*
X93541925Y-56999533D01*
X93545708Y-56982816D01*
X93551426Y-56963697D01*
X93551427Y-56963691D01*
X93553997Y-56955097D01*
X93554204Y-56921216D01*
X93554235Y-56920469D01*
X93554404Y-56919385D01*
X93554404Y-56888922D01*
X93554406Y-56888152D01*
X93554848Y-56815762D01*
X93554872Y-56811876D01*
X93554493Y-56810549D01*
X93554404Y-56809243D01*
X93554404Y-55610000D01*
X100174318Y-55610000D01*
X100194956Y-55766762D01*
X100255464Y-55912841D01*
X100351718Y-56038282D01*
X100358264Y-56043305D01*
X100387918Y-56066059D01*
X100477159Y-56134536D01*
X100623238Y-56195044D01*
X100780000Y-56215682D01*
X100788188Y-56214604D01*
X100928574Y-56196122D01*
X100936762Y-56195044D01*
X101082841Y-56134536D01*
X101172082Y-56066059D01*
X101201736Y-56043305D01*
X101208282Y-56038282D01*
X101304536Y-55912841D01*
X101365044Y-55766762D01*
X101385682Y-55610000D01*
X101365044Y-55453238D01*
X101304536Y-55307159D01*
X101300691Y-55302148D01*
X101284166Y-55234026D01*
X101307387Y-55166935D01*
X101363195Y-55123048D01*
X101433870Y-55116300D01*
X101471859Y-55130469D01*
X101477159Y-55134536D01*
X101623238Y-55195044D01*
X101780000Y-55215682D01*
X101788188Y-55214604D01*
X101801580Y-55212841D01*
X101936762Y-55195044D01*
X102082841Y-55134536D01*
X102203296Y-55042108D01*
X102269517Y-55016508D01*
X102339065Y-55030773D01*
X102356704Y-55042108D01*
X102477159Y-55134536D01*
X102623238Y-55195044D01*
X102780000Y-55215682D01*
X102788188Y-55214604D01*
X102801580Y-55212841D01*
X102936762Y-55195044D01*
X103082841Y-55134536D01*
X103208282Y-55038282D01*
X103304536Y-54912841D01*
X103365044Y-54766762D01*
X103385682Y-54610000D01*
X103365044Y-54453238D01*
X103304536Y-54307159D01*
X103208282Y-54181718D01*
X103082841Y-54085464D01*
X102936762Y-54024956D01*
X102780000Y-54004318D01*
X102623238Y-54024956D01*
X102477159Y-54085464D01*
X102470608Y-54090491D01*
X102356704Y-54177892D01*
X102290483Y-54203492D01*
X102220935Y-54189227D01*
X102203296Y-54177892D01*
X102089392Y-54090491D01*
X102082841Y-54085464D01*
X101936762Y-54024956D01*
X101780000Y-54004318D01*
X101623238Y-54024956D01*
X101477159Y-54085464D01*
X101470608Y-54090491D01*
X101356704Y-54177892D01*
X101290483Y-54203492D01*
X101220935Y-54189227D01*
X101203296Y-54177892D01*
X101089392Y-54090491D01*
X101082841Y-54085464D01*
X100936762Y-54024956D01*
X100780000Y-54004318D01*
X100623238Y-54024956D01*
X100477159Y-54085464D01*
X100351718Y-54181718D01*
X100255464Y-54307159D01*
X100194956Y-54453238D01*
X100174318Y-54610000D01*
X100194956Y-54766762D01*
X100255464Y-54912841D01*
X100260491Y-54919392D01*
X100347892Y-55033296D01*
X100373492Y-55099517D01*
X100359227Y-55169065D01*
X100347892Y-55186704D01*
X100255464Y-55307159D01*
X100194956Y-55453238D01*
X100174318Y-55610000D01*
X93554404Y-55610000D01*
X93554404Y-51888922D01*
X93554406Y-51888152D01*
X93554817Y-51820847D01*
X93554872Y-51811876D01*
X93552408Y-51803253D01*
X93552407Y-51803248D01*
X93546921Y-51784053D01*
X93543344Y-51767295D01*
X93540515Y-51747540D01*
X93540514Y-51747537D01*
X93539242Y-51738655D01*
X93532861Y-51724621D01*
X93528855Y-51715809D01*
X93522407Y-51698282D01*
X93517982Y-51682798D01*
X93517981Y-51682796D01*
X93515515Y-51674167D01*
X93500072Y-51649692D01*
X93491938Y-51634616D01*
X93483676Y-51616445D01*
X93479962Y-51608276D01*
X93474106Y-51601480D01*
X93474104Y-51601477D01*
X93463589Y-51589275D01*
X93452476Y-51574257D01*
X93443879Y-51560631D01*
X93439089Y-51553039D01*
X93417402Y-51533886D01*
X93405361Y-51521697D01*
X93386472Y-51499775D01*
X93365414Y-51486125D01*
X93350540Y-51474835D01*
X93338471Y-51464177D01*
X93338470Y-51464176D01*
X93331738Y-51458231D01*
X93305545Y-51445933D01*
X93290578Y-51437619D01*
X93266287Y-51421875D01*
X93257685Y-51419303D01*
X93257684Y-51419302D01*
X93254265Y-51418280D01*
X93242245Y-51414685D01*
X93224807Y-51408026D01*
X93215693Y-51403747D01*
X93210215Y-51401175D01*
X93210213Y-51401174D01*
X93202093Y-51397362D01*
X93193229Y-51395982D01*
X93193226Y-51395981D01*
X93176979Y-51393452D01*
X93173505Y-51392911D01*
X93156788Y-51389128D01*
X93137669Y-51383410D01*
X93137663Y-51383409D01*
X93129069Y-51380839D01*
X93120100Y-51380784D01*
X93120098Y-51380784D01*
X93109883Y-51380722D01*
X93095188Y-51380632D01*
X93094441Y-51380601D01*
X93093357Y-51380432D01*
X93062894Y-51380432D01*
X93062124Y-51380430D01*
X93061508Y-51380426D01*
X92985848Y-51379964D01*
X92984521Y-51380343D01*
X92983215Y-51380432D01*
X90872894Y-51380432D01*
X90872124Y-51380430D01*
X90871356Y-51380425D01*
X90795848Y-51379964D01*
X90787225Y-51382428D01*
X90787220Y-51382429D01*
X90768025Y-51387915D01*
X90751267Y-51391492D01*
X90731512Y-51394321D01*
X90731509Y-51394322D01*
X90722627Y-51395594D01*
X90714457Y-51399309D01*
X90714456Y-51399309D01*
X90699781Y-51405981D01*
X90682254Y-51412429D01*
X90666770Y-51416854D01*
X90666768Y-51416855D01*
X90658139Y-51419321D01*
X90633664Y-51434764D01*
X90618588Y-51442898D01*
X90592248Y-51454874D01*
X90585452Y-51460730D01*
X90585449Y-51460732D01*
X90573247Y-51471247D01*
X90558229Y-51482360D01*
X90537011Y-51495747D01*
X90517862Y-51517430D01*
X90505669Y-51529475D01*
X90483747Y-51548364D01*
X90478867Y-51555893D01*
X90478866Y-51555894D01*
X90470097Y-51569423D01*
X90458807Y-51584296D01*
X90448149Y-51596365D01*
X90442203Y-51603098D01*
X90435937Y-51616445D01*
X90429908Y-51629286D01*
X90421591Y-51644258D01*
X90405847Y-51668549D01*
X90398657Y-51692591D01*
X90391998Y-51710029D01*
X90381334Y-51732743D01*
X90379954Y-51741607D01*
X90379953Y-51741610D01*
X90376883Y-51761330D01*
X90373100Y-51778048D01*
X90367382Y-51797167D01*
X90367381Y-51797173D01*
X90364811Y-51805767D01*
X90364756Y-51814736D01*
X90364756Y-51814738D01*
X90364605Y-51839635D01*
X90364573Y-51840395D01*
X90364404Y-51841479D01*
X90364404Y-51871942D01*
X90364402Y-51872712D01*
X90363936Y-51948988D01*
X90364315Y-51950315D01*
X90364404Y-51951621D01*
X90364404Y-56871942D01*
X90364402Y-56872712D01*
X90363936Y-56948988D01*
X85238222Y-56948988D01*
X85299879Y-56767353D01*
X85299880Y-56767348D01*
X85301735Y-56761884D01*
X85302563Y-56756175D01*
X85302564Y-56756170D01*
X85332862Y-56547204D01*
X85333395Y-56543530D01*
X85335047Y-56480432D01*
X85314858Y-56260721D01*
X85296640Y-56196122D01*
X85256538Y-56053932D01*
X85254969Y-56048368D01*
X85157384Y-55850485D01*
X85148800Y-55838989D01*
X85028824Y-55678323D01*
X85028824Y-55678322D01*
X85025371Y-55673699D01*
X84911331Y-55568281D01*
X84867593Y-55527850D01*
X84867590Y-55527848D01*
X84863353Y-55523931D01*
X84676754Y-55406196D01*
X84471825Y-55324438D01*
X84466165Y-55323312D01*
X84466161Y-55323311D01*
X84261095Y-55282521D01*
X84261092Y-55282521D01*
X84255428Y-55281394D01*
X84249653Y-55281318D01*
X84249649Y-55281318D01*
X84138908Y-55279869D01*
X84034810Y-55278506D01*
X84029113Y-55279485D01*
X84029112Y-55279485D01*
X83823058Y-55314891D01*
X83823057Y-55314891D01*
X83817361Y-55315870D01*
X83610361Y-55392236D01*
X83605400Y-55395188D01*
X83605399Y-55395188D01*
X83454332Y-55485064D01*
X83420745Y-55505046D01*
X83254861Y-55650522D01*
X83118267Y-55823792D01*
X83015535Y-56019052D01*
X82950107Y-56229765D01*
X82924174Y-56448872D01*
X81182147Y-56448872D01*
X81164858Y-56260721D01*
X81146640Y-56196122D01*
X81106538Y-56053932D01*
X81104969Y-56048368D01*
X81007384Y-55850485D01*
X80998800Y-55838989D01*
X80878824Y-55678323D01*
X80878824Y-55678322D01*
X80875371Y-55673699D01*
X80761331Y-55568281D01*
X80717593Y-55527850D01*
X80717590Y-55527848D01*
X80713353Y-55523931D01*
X80526754Y-55406196D01*
X80321825Y-55324438D01*
X80316165Y-55323312D01*
X80316161Y-55323311D01*
X80111095Y-55282521D01*
X80111092Y-55282521D01*
X80105428Y-55281394D01*
X80099653Y-55281318D01*
X80099649Y-55281318D01*
X79988908Y-55279869D01*
X79884810Y-55278506D01*
X79879113Y-55279485D01*
X79879112Y-55279485D01*
X79673058Y-55314891D01*
X79673057Y-55314891D01*
X79667361Y-55315870D01*
X79460361Y-55392236D01*
X79455400Y-55395188D01*
X79455399Y-55395188D01*
X79304332Y-55485064D01*
X79270745Y-55505046D01*
X79104861Y-55650522D01*
X78968267Y-55823792D01*
X78865535Y-56019052D01*
X78800107Y-56229765D01*
X78774174Y-56448872D01*
X77852147Y-56448872D01*
X77834858Y-56260721D01*
X77816640Y-56196122D01*
X77776538Y-56053932D01*
X77774969Y-56048368D01*
X77677384Y-55850485D01*
X77668800Y-55838989D01*
X77548824Y-55678323D01*
X77548824Y-55678322D01*
X77545371Y-55673699D01*
X77431331Y-55568281D01*
X77387593Y-55527850D01*
X77387590Y-55527848D01*
X77383353Y-55523931D01*
X77196754Y-55406196D01*
X76991825Y-55324438D01*
X76986165Y-55323312D01*
X76986161Y-55323311D01*
X76781095Y-55282521D01*
X76781092Y-55282521D01*
X76775428Y-55281394D01*
X76769653Y-55281318D01*
X76769649Y-55281318D01*
X76658908Y-55279869D01*
X76554810Y-55278506D01*
X76549113Y-55279485D01*
X76549112Y-55279485D01*
X76343058Y-55314891D01*
X76343057Y-55314891D01*
X76337361Y-55315870D01*
X76130361Y-55392236D01*
X76125400Y-55395188D01*
X76125399Y-55395188D01*
X75974332Y-55485064D01*
X75940745Y-55505046D01*
X75774861Y-55650522D01*
X75638267Y-55823792D01*
X75535535Y-56019052D01*
X75470107Y-56229765D01*
X75444174Y-56448872D01*
X71192147Y-56448872D01*
X71174858Y-56260721D01*
X71156640Y-56196122D01*
X71116538Y-56053932D01*
X71114969Y-56048368D01*
X71017384Y-55850485D01*
X71008800Y-55838989D01*
X70888824Y-55678323D01*
X70888824Y-55678322D01*
X70885371Y-55673699D01*
X70771331Y-55568281D01*
X70727593Y-55527850D01*
X70727590Y-55527848D01*
X70723353Y-55523931D01*
X70536754Y-55406196D01*
X70331825Y-55324438D01*
X70326165Y-55323312D01*
X70326161Y-55323311D01*
X70121095Y-55282521D01*
X70121092Y-55282521D01*
X70115428Y-55281394D01*
X70109653Y-55281318D01*
X70109649Y-55281318D01*
X69998908Y-55279869D01*
X69894810Y-55278506D01*
X69889113Y-55279485D01*
X69889112Y-55279485D01*
X69683058Y-55314891D01*
X69683057Y-55314891D01*
X69677361Y-55315870D01*
X69470361Y-55392236D01*
X69465400Y-55395188D01*
X69465399Y-55395188D01*
X69314332Y-55485064D01*
X69280745Y-55505046D01*
X69114861Y-55650522D01*
X68978267Y-55823792D01*
X68875535Y-56019052D01*
X68810107Y-56229765D01*
X68784174Y-56448872D01*
X67862147Y-56448872D01*
X67844858Y-56260721D01*
X67826640Y-56196122D01*
X67786538Y-56053932D01*
X67784969Y-56048368D01*
X67687384Y-55850485D01*
X67678800Y-55838989D01*
X67558824Y-55678323D01*
X67558824Y-55678322D01*
X67555371Y-55673699D01*
X67441331Y-55568281D01*
X67397593Y-55527850D01*
X67397590Y-55527848D01*
X67393353Y-55523931D01*
X67206754Y-55406196D01*
X67001825Y-55324438D01*
X66996165Y-55323312D01*
X66996161Y-55323311D01*
X66791095Y-55282521D01*
X66791092Y-55282521D01*
X66785428Y-55281394D01*
X66779653Y-55281318D01*
X66779649Y-55281318D01*
X66668908Y-55279869D01*
X66564810Y-55278506D01*
X66559113Y-55279485D01*
X66559112Y-55279485D01*
X66353058Y-55314891D01*
X66353057Y-55314891D01*
X66347361Y-55315870D01*
X66140361Y-55392236D01*
X66135400Y-55395188D01*
X66135399Y-55395188D01*
X65984332Y-55485064D01*
X65950745Y-55505046D01*
X65784861Y-55650522D01*
X65648267Y-55823792D01*
X65545535Y-56019052D01*
X65480107Y-56229765D01*
X65454174Y-56448872D01*
X64532147Y-56448872D01*
X64514858Y-56260721D01*
X64496640Y-56196122D01*
X64456538Y-56053932D01*
X64454969Y-56048368D01*
X64357384Y-55850485D01*
X64348800Y-55838989D01*
X64228824Y-55678323D01*
X64228824Y-55678322D01*
X64225371Y-55673699D01*
X64111331Y-55568281D01*
X64067593Y-55527850D01*
X64067590Y-55527848D01*
X64063353Y-55523931D01*
X63876754Y-55406196D01*
X63671825Y-55324438D01*
X63666165Y-55323312D01*
X63666161Y-55323311D01*
X63461095Y-55282521D01*
X63461092Y-55282521D01*
X63455428Y-55281394D01*
X63449653Y-55281318D01*
X63449649Y-55281318D01*
X63338908Y-55279869D01*
X63234810Y-55278506D01*
X63229113Y-55279485D01*
X63229112Y-55279485D01*
X63023058Y-55314891D01*
X63023057Y-55314891D01*
X63017361Y-55315870D01*
X62810361Y-55392236D01*
X62805400Y-55395188D01*
X62805399Y-55395188D01*
X62654332Y-55485064D01*
X62620745Y-55505046D01*
X62454861Y-55650522D01*
X62318267Y-55823792D01*
X62215535Y-56019052D01*
X62150107Y-56229765D01*
X62124174Y-56448872D01*
X60382147Y-56448872D01*
X60364858Y-56260721D01*
X60346640Y-56196122D01*
X60306538Y-56053932D01*
X60304969Y-56048368D01*
X60207384Y-55850485D01*
X60198800Y-55838989D01*
X60078824Y-55678323D01*
X60078824Y-55678322D01*
X60075371Y-55673699D01*
X59961331Y-55568281D01*
X59917593Y-55527850D01*
X59917590Y-55527848D01*
X59913353Y-55523931D01*
X59726754Y-55406196D01*
X59521825Y-55324438D01*
X59516165Y-55323312D01*
X59516161Y-55323311D01*
X59311095Y-55282521D01*
X59311092Y-55282521D01*
X59305428Y-55281394D01*
X59299653Y-55281318D01*
X59299649Y-55281318D01*
X59188908Y-55279869D01*
X59084810Y-55278506D01*
X59079113Y-55279485D01*
X59079112Y-55279485D01*
X58873058Y-55314891D01*
X58873057Y-55314891D01*
X58867361Y-55315870D01*
X58660361Y-55392236D01*
X58655400Y-55395188D01*
X58655399Y-55395188D01*
X58504332Y-55485064D01*
X58470745Y-55505046D01*
X58304861Y-55650522D01*
X58168267Y-55823792D01*
X58065535Y-56019052D01*
X58000107Y-56229765D01*
X57974174Y-56448872D01*
X32994404Y-56448872D01*
X32994404Y-55448988D01*
X49753936Y-55448988D01*
X49756400Y-55457611D01*
X49756401Y-55457616D01*
X49761887Y-55476811D01*
X49765464Y-55493569D01*
X49767654Y-55508856D01*
X49769566Y-55522209D01*
X49773281Y-55530379D01*
X49773281Y-55530380D01*
X49779953Y-55545055D01*
X49786401Y-55562582D01*
X49793293Y-55586697D01*
X49808736Y-55611172D01*
X49816870Y-55626248D01*
X49828846Y-55652588D01*
X49834702Y-55659384D01*
X49834704Y-55659387D01*
X49845219Y-55671589D01*
X49856332Y-55686607D01*
X49869719Y-55707825D01*
X49891406Y-55726978D01*
X49903447Y-55739167D01*
X49922336Y-55761089D01*
X49929865Y-55765969D01*
X49929866Y-55765970D01*
X49943395Y-55774739D01*
X49958268Y-55786029D01*
X49970337Y-55796687D01*
X49977070Y-55802633D01*
X50003263Y-55814931D01*
X50018230Y-55823245D01*
X50042521Y-55838989D01*
X50051123Y-55841561D01*
X50051124Y-55841562D01*
X50054543Y-55842584D01*
X50066563Y-55846179D01*
X50084001Y-55852838D01*
X50090025Y-55855666D01*
X50098593Y-55859689D01*
X50098595Y-55859690D01*
X50106715Y-55863502D01*
X50115579Y-55864882D01*
X50115582Y-55864883D01*
X50131829Y-55867412D01*
X50135303Y-55867953D01*
X50152020Y-55871736D01*
X50171139Y-55877454D01*
X50171145Y-55877455D01*
X50179739Y-55880025D01*
X50188708Y-55880080D01*
X50188710Y-55880080D01*
X50198925Y-55880142D01*
X50213620Y-55880232D01*
X50214367Y-55880263D01*
X50215451Y-55880432D01*
X50245914Y-55880432D01*
X50246685Y-55880434D01*
X50322960Y-55880900D01*
X50324287Y-55880521D01*
X50325593Y-55880432D01*
X52435914Y-55880432D01*
X52436685Y-55880434D01*
X52512960Y-55880900D01*
X52521583Y-55878436D01*
X52521588Y-55878435D01*
X52540783Y-55872949D01*
X52557541Y-55869372D01*
X52577296Y-55866543D01*
X52577299Y-55866542D01*
X52586181Y-55865270D01*
X52598456Y-55859689D01*
X52609027Y-55854883D01*
X52626554Y-55848435D01*
X52642038Y-55844010D01*
X52642040Y-55844009D01*
X52650669Y-55841543D01*
X52675144Y-55826100D01*
X52690220Y-55817966D01*
X52708391Y-55809704D01*
X52716560Y-55805990D01*
X52723356Y-55800134D01*
X52723359Y-55800132D01*
X52735561Y-55789617D01*
X52750579Y-55778504D01*
X52764205Y-55769907D01*
X52771797Y-55765117D01*
X52790950Y-55743430D01*
X52803139Y-55731389D01*
X52825061Y-55712500D01*
X52838711Y-55691441D01*
X52850001Y-55676568D01*
X52860659Y-55664499D01*
X52860660Y-55664498D01*
X52866605Y-55657766D01*
X52878903Y-55631573D01*
X52887217Y-55616606D01*
X52902961Y-55592315D01*
X52910151Y-55568273D01*
X52916810Y-55550835D01*
X52927474Y-55528121D01*
X52931925Y-55499533D01*
X52935708Y-55482816D01*
X52941426Y-55463697D01*
X52941427Y-55463691D01*
X52943997Y-55455097D01*
X52944204Y-55421216D01*
X52944235Y-55420469D01*
X52944404Y-55419385D01*
X52944404Y-55388922D01*
X52944406Y-55388152D01*
X52944680Y-55343305D01*
X52944872Y-55311876D01*
X52944493Y-55310549D01*
X52944404Y-55309243D01*
X52944404Y-54910000D01*
X86774318Y-54910000D01*
X86794956Y-55066762D01*
X86855464Y-55212841D01*
X86860491Y-55219392D01*
X86933770Y-55314891D01*
X86951718Y-55338282D01*
X87077159Y-55434536D01*
X87223238Y-55495044D01*
X87380000Y-55515682D01*
X87388188Y-55514604D01*
X87528574Y-55496122D01*
X87536762Y-55495044D01*
X87682841Y-55434536D01*
X87808282Y-55338282D01*
X87826231Y-55314891D01*
X87899509Y-55219392D01*
X87904536Y-55212841D01*
X87965044Y-55066762D01*
X87985682Y-54910000D01*
X87965044Y-54753238D01*
X87904536Y-54607159D01*
X87808282Y-54481718D01*
X87801736Y-54476695D01*
X87801734Y-54476693D01*
X87799477Y-54474961D01*
X87798056Y-54473015D01*
X87795891Y-54470850D01*
X87796229Y-54470512D01*
X87757611Y-54417623D01*
X87753390Y-54346752D01*
X87788155Y-54284849D01*
X87799477Y-54275039D01*
X87801734Y-54273307D01*
X87801736Y-54273305D01*
X87808282Y-54268282D01*
X87904536Y-54142841D01*
X87965044Y-53996762D01*
X87985682Y-53840000D01*
X87965044Y-53683238D01*
X87904536Y-53537159D01*
X87808282Y-53411718D01*
X87682841Y-53315464D01*
X87536762Y-53254956D01*
X87380000Y-53234318D01*
X87223238Y-53254956D01*
X87077159Y-53315464D01*
X86951718Y-53411718D01*
X86855464Y-53537159D01*
X86794956Y-53683238D01*
X86774318Y-53840000D01*
X86794956Y-53996762D01*
X86855464Y-54142841D01*
X86951718Y-54268282D01*
X86958264Y-54273305D01*
X86958266Y-54273307D01*
X86960523Y-54275039D01*
X86961944Y-54276985D01*
X86964109Y-54279150D01*
X86963771Y-54279488D01*
X87002389Y-54332377D01*
X87006610Y-54403248D01*
X86971845Y-54465151D01*
X86960523Y-54474961D01*
X86958266Y-54476693D01*
X86958264Y-54476695D01*
X86951718Y-54481718D01*
X86855464Y-54607159D01*
X86794956Y-54753238D01*
X86774318Y-54910000D01*
X52944404Y-54910000D01*
X52944404Y-52248872D01*
X57974174Y-52248872D01*
X57988604Y-52469036D01*
X57990025Y-52474632D01*
X57990026Y-52474637D01*
X58041494Y-52677289D01*
X58042915Y-52682884D01*
X58045332Y-52688126D01*
X58045332Y-52688127D01*
X58083450Y-52770811D01*
X58135287Y-52883253D01*
X58262626Y-53063434D01*
X58420668Y-53217393D01*
X58425464Y-53220598D01*
X58425467Y-53220600D01*
X58509665Y-53276859D01*
X58604121Y-53339972D01*
X58609424Y-53342250D01*
X58609427Y-53342252D01*
X58759423Y-53406695D01*
X58806840Y-53427067D01*
X58886492Y-53445090D01*
X59016399Y-53474486D01*
X59016405Y-53474487D01*
X59022036Y-53475761D01*
X59027807Y-53475988D01*
X59027809Y-53475988D01*
X59095615Y-53478652D01*
X59242502Y-53484423D01*
X59351679Y-53468593D01*
X59455142Y-53453592D01*
X59455147Y-53453591D01*
X59460856Y-53452763D01*
X59466320Y-53450908D01*
X59466325Y-53450907D01*
X59664311Y-53383700D01*
X59664316Y-53383698D01*
X59669783Y-53381842D01*
X59862288Y-53274034D01*
X59881428Y-53258116D01*
X60027490Y-53136636D01*
X60031922Y-53132950D01*
X60173006Y-52963316D01*
X60280814Y-52770811D01*
X60282670Y-52765344D01*
X60282672Y-52765339D01*
X60349879Y-52567353D01*
X60349880Y-52567348D01*
X60351735Y-52561884D01*
X60352563Y-52556175D01*
X60352564Y-52556170D01*
X60382862Y-52347204D01*
X60383395Y-52343530D01*
X60385047Y-52280432D01*
X60382147Y-52248872D01*
X62124174Y-52248872D01*
X62138604Y-52469036D01*
X62140025Y-52474632D01*
X62140026Y-52474637D01*
X62191494Y-52677289D01*
X62192915Y-52682884D01*
X62195332Y-52688126D01*
X62195332Y-52688127D01*
X62233450Y-52770811D01*
X62285287Y-52883253D01*
X62412626Y-53063434D01*
X62570668Y-53217393D01*
X62575464Y-53220598D01*
X62575467Y-53220600D01*
X62659665Y-53276859D01*
X62754121Y-53339972D01*
X62759424Y-53342250D01*
X62759427Y-53342252D01*
X62909423Y-53406695D01*
X62956840Y-53427067D01*
X63036492Y-53445090D01*
X63166399Y-53474486D01*
X63166405Y-53474487D01*
X63172036Y-53475761D01*
X63177807Y-53475988D01*
X63177809Y-53475988D01*
X63245615Y-53478652D01*
X63392502Y-53484423D01*
X63501679Y-53468593D01*
X63605142Y-53453592D01*
X63605147Y-53453591D01*
X63610856Y-53452763D01*
X63616320Y-53450908D01*
X63616325Y-53450907D01*
X63814311Y-53383700D01*
X63814316Y-53383698D01*
X63819783Y-53381842D01*
X64012288Y-53274034D01*
X64031428Y-53258116D01*
X64177490Y-53136636D01*
X64181922Y-53132950D01*
X64323006Y-52963316D01*
X64430814Y-52770811D01*
X64432670Y-52765344D01*
X64432672Y-52765339D01*
X64499879Y-52567353D01*
X64499880Y-52567348D01*
X64501735Y-52561884D01*
X64502563Y-52556175D01*
X64502564Y-52556170D01*
X64532862Y-52347204D01*
X64533395Y-52343530D01*
X64535047Y-52280432D01*
X64532147Y-52248872D01*
X65454174Y-52248872D01*
X65468604Y-52469036D01*
X65470025Y-52474632D01*
X65470026Y-52474637D01*
X65521494Y-52677289D01*
X65522915Y-52682884D01*
X65525332Y-52688126D01*
X65525332Y-52688127D01*
X65563450Y-52770811D01*
X65615287Y-52883253D01*
X65742626Y-53063434D01*
X65900668Y-53217393D01*
X65905464Y-53220598D01*
X65905467Y-53220600D01*
X65989665Y-53276859D01*
X66084121Y-53339972D01*
X66089424Y-53342250D01*
X66089427Y-53342252D01*
X66239423Y-53406695D01*
X66286840Y-53427067D01*
X66366492Y-53445090D01*
X66496399Y-53474486D01*
X66496405Y-53474487D01*
X66502036Y-53475761D01*
X66507807Y-53475988D01*
X66507809Y-53475988D01*
X66575615Y-53478652D01*
X66722502Y-53484423D01*
X66831679Y-53468593D01*
X66935142Y-53453592D01*
X66935147Y-53453591D01*
X66940856Y-53452763D01*
X66946320Y-53450908D01*
X66946325Y-53450907D01*
X67144311Y-53383700D01*
X67144316Y-53383698D01*
X67149783Y-53381842D01*
X67342288Y-53274034D01*
X67361428Y-53258116D01*
X67507490Y-53136636D01*
X67511922Y-53132950D01*
X67653006Y-52963316D01*
X67760814Y-52770811D01*
X67762670Y-52765344D01*
X67762672Y-52765339D01*
X67829879Y-52567353D01*
X67829880Y-52567348D01*
X67831735Y-52561884D01*
X67832563Y-52556175D01*
X67832564Y-52556170D01*
X67862862Y-52347204D01*
X67863395Y-52343530D01*
X67865047Y-52280432D01*
X67862147Y-52248872D01*
X68784174Y-52248872D01*
X68798604Y-52469036D01*
X68800025Y-52474632D01*
X68800026Y-52474637D01*
X68851494Y-52677289D01*
X68852915Y-52682884D01*
X68855332Y-52688126D01*
X68855332Y-52688127D01*
X68893450Y-52770811D01*
X68945287Y-52883253D01*
X69072626Y-53063434D01*
X69230668Y-53217393D01*
X69235464Y-53220598D01*
X69235467Y-53220600D01*
X69319665Y-53276859D01*
X69414121Y-53339972D01*
X69419424Y-53342250D01*
X69419427Y-53342252D01*
X69569423Y-53406695D01*
X69616840Y-53427067D01*
X69696492Y-53445090D01*
X69826399Y-53474486D01*
X69826405Y-53474487D01*
X69832036Y-53475761D01*
X69837807Y-53475988D01*
X69837809Y-53475988D01*
X69905615Y-53478652D01*
X70052502Y-53484423D01*
X70161679Y-53468593D01*
X70265142Y-53453592D01*
X70265147Y-53453591D01*
X70270856Y-53452763D01*
X70276320Y-53450908D01*
X70276325Y-53450907D01*
X70474311Y-53383700D01*
X70474316Y-53383698D01*
X70479783Y-53381842D01*
X70672288Y-53274034D01*
X70691428Y-53258116D01*
X70837490Y-53136636D01*
X70841922Y-53132950D01*
X70983006Y-52963316D01*
X71090814Y-52770811D01*
X71092670Y-52765344D01*
X71092672Y-52765339D01*
X71159879Y-52567353D01*
X71159880Y-52567348D01*
X71161735Y-52561884D01*
X71162563Y-52556175D01*
X71162564Y-52556170D01*
X71192862Y-52347204D01*
X71193395Y-52343530D01*
X71195047Y-52280432D01*
X71192147Y-52248872D01*
X72114174Y-52248872D01*
X72128604Y-52469036D01*
X72130025Y-52474632D01*
X72130026Y-52474637D01*
X72181494Y-52677289D01*
X72182915Y-52682884D01*
X72185332Y-52688126D01*
X72185332Y-52688127D01*
X72223450Y-52770811D01*
X72275287Y-52883253D01*
X72402626Y-53063434D01*
X72560668Y-53217393D01*
X72565464Y-53220598D01*
X72565467Y-53220600D01*
X72649665Y-53276859D01*
X72744121Y-53339972D01*
X72749424Y-53342250D01*
X72749427Y-53342252D01*
X72899423Y-53406695D01*
X72946840Y-53427067D01*
X73026492Y-53445090D01*
X73156399Y-53474486D01*
X73156405Y-53474487D01*
X73162036Y-53475761D01*
X73167807Y-53475988D01*
X73167809Y-53475988D01*
X73235615Y-53478652D01*
X73382502Y-53484423D01*
X73491679Y-53468593D01*
X73595142Y-53453592D01*
X73595147Y-53453591D01*
X73600856Y-53452763D01*
X73606320Y-53450908D01*
X73606325Y-53450907D01*
X73804311Y-53383700D01*
X73804316Y-53383698D01*
X73809783Y-53381842D01*
X74002288Y-53274034D01*
X74021428Y-53258116D01*
X74167490Y-53136636D01*
X74171922Y-53132950D01*
X74313006Y-52963316D01*
X74420814Y-52770811D01*
X74422670Y-52765344D01*
X74422672Y-52765339D01*
X74489879Y-52567353D01*
X74489880Y-52567348D01*
X74491735Y-52561884D01*
X74492563Y-52556175D01*
X74492564Y-52556170D01*
X74522862Y-52347204D01*
X74523395Y-52343530D01*
X74525047Y-52280432D01*
X74522147Y-52248872D01*
X75444174Y-52248872D01*
X75458604Y-52469036D01*
X75460025Y-52474632D01*
X75460026Y-52474637D01*
X75511494Y-52677289D01*
X75512915Y-52682884D01*
X75515332Y-52688126D01*
X75515332Y-52688127D01*
X75553450Y-52770811D01*
X75605287Y-52883253D01*
X75732626Y-53063434D01*
X75890668Y-53217393D01*
X75895464Y-53220598D01*
X75895467Y-53220600D01*
X75979665Y-53276859D01*
X76074121Y-53339972D01*
X76079424Y-53342250D01*
X76079427Y-53342252D01*
X76229423Y-53406695D01*
X76276840Y-53427067D01*
X76356492Y-53445090D01*
X76486399Y-53474486D01*
X76486405Y-53474487D01*
X76492036Y-53475761D01*
X76497807Y-53475988D01*
X76497809Y-53475988D01*
X76565615Y-53478652D01*
X76712502Y-53484423D01*
X76821679Y-53468593D01*
X76925142Y-53453592D01*
X76925147Y-53453591D01*
X76930856Y-53452763D01*
X76936320Y-53450908D01*
X76936325Y-53450907D01*
X77134311Y-53383700D01*
X77134316Y-53383698D01*
X77139783Y-53381842D01*
X77332288Y-53274034D01*
X77351428Y-53258116D01*
X77497490Y-53136636D01*
X77501922Y-53132950D01*
X77643006Y-52963316D01*
X77750814Y-52770811D01*
X77752670Y-52765344D01*
X77752672Y-52765339D01*
X77819879Y-52567353D01*
X77819880Y-52567348D01*
X77821735Y-52561884D01*
X77822563Y-52556175D01*
X77822564Y-52556170D01*
X77852862Y-52347204D01*
X77853395Y-52343530D01*
X77855047Y-52280432D01*
X77852147Y-52248872D01*
X78774174Y-52248872D01*
X78788604Y-52469036D01*
X78790025Y-52474632D01*
X78790026Y-52474637D01*
X78841494Y-52677289D01*
X78842915Y-52682884D01*
X78845332Y-52688126D01*
X78845332Y-52688127D01*
X78883450Y-52770811D01*
X78935287Y-52883253D01*
X79062626Y-53063434D01*
X79220668Y-53217393D01*
X79225464Y-53220598D01*
X79225467Y-53220600D01*
X79309665Y-53276859D01*
X79404121Y-53339972D01*
X79409424Y-53342250D01*
X79409427Y-53342252D01*
X79559423Y-53406695D01*
X79606840Y-53427067D01*
X79686492Y-53445090D01*
X79816399Y-53474486D01*
X79816405Y-53474487D01*
X79822036Y-53475761D01*
X79827807Y-53475988D01*
X79827809Y-53475988D01*
X79895615Y-53478652D01*
X80042502Y-53484423D01*
X80151679Y-53468593D01*
X80255142Y-53453592D01*
X80255147Y-53453591D01*
X80260856Y-53452763D01*
X80266320Y-53450908D01*
X80266325Y-53450907D01*
X80464311Y-53383700D01*
X80464316Y-53383698D01*
X80469783Y-53381842D01*
X80662288Y-53274034D01*
X80681428Y-53258116D01*
X80827490Y-53136636D01*
X80831922Y-53132950D01*
X80973006Y-52963316D01*
X81080814Y-52770811D01*
X81082670Y-52765344D01*
X81082672Y-52765339D01*
X81149879Y-52567353D01*
X81149880Y-52567348D01*
X81151735Y-52561884D01*
X81152563Y-52556175D01*
X81152564Y-52556170D01*
X81182862Y-52347204D01*
X81183395Y-52343530D01*
X81185047Y-52280432D01*
X81182147Y-52248872D01*
X82924174Y-52248872D01*
X82938604Y-52469036D01*
X82940025Y-52474632D01*
X82940026Y-52474637D01*
X82991494Y-52677289D01*
X82992915Y-52682884D01*
X82995332Y-52688126D01*
X82995332Y-52688127D01*
X83033450Y-52770811D01*
X83085287Y-52883253D01*
X83212626Y-53063434D01*
X83370668Y-53217393D01*
X83375464Y-53220598D01*
X83375467Y-53220600D01*
X83459665Y-53276859D01*
X83554121Y-53339972D01*
X83559424Y-53342250D01*
X83559427Y-53342252D01*
X83709423Y-53406695D01*
X83756840Y-53427067D01*
X83836492Y-53445090D01*
X83966399Y-53474486D01*
X83966405Y-53474487D01*
X83972036Y-53475761D01*
X83977807Y-53475988D01*
X83977809Y-53475988D01*
X84045615Y-53478652D01*
X84192502Y-53484423D01*
X84301679Y-53468593D01*
X84405142Y-53453592D01*
X84405147Y-53453591D01*
X84410856Y-53452763D01*
X84416320Y-53450908D01*
X84416325Y-53450907D01*
X84614311Y-53383700D01*
X84614316Y-53383698D01*
X84619783Y-53381842D01*
X84812288Y-53274034D01*
X84831428Y-53258116D01*
X84977490Y-53136636D01*
X84981922Y-53132950D01*
X85123006Y-52963316D01*
X85230814Y-52770811D01*
X85232670Y-52765344D01*
X85232672Y-52765339D01*
X85299879Y-52567353D01*
X85299880Y-52567348D01*
X85301735Y-52561884D01*
X85302563Y-52556175D01*
X85302564Y-52556170D01*
X85332862Y-52347204D01*
X85333395Y-52343530D01*
X85335047Y-52280432D01*
X85314858Y-52060721D01*
X85254969Y-51848368D01*
X85157384Y-51650485D01*
X85116971Y-51596365D01*
X85028824Y-51478323D01*
X85028824Y-51478322D01*
X85025371Y-51473699D01*
X84863353Y-51323931D01*
X84676754Y-51206196D01*
X84471825Y-51124438D01*
X84466165Y-51123312D01*
X84466161Y-51123311D01*
X84261095Y-51082521D01*
X84261092Y-51082521D01*
X84255428Y-51081394D01*
X84249653Y-51081318D01*
X84249649Y-51081318D01*
X84138908Y-51079869D01*
X84034810Y-51078506D01*
X84029113Y-51079485D01*
X84029112Y-51079485D01*
X83823058Y-51114891D01*
X83823057Y-51114891D01*
X83817361Y-51115870D01*
X83610361Y-51192236D01*
X83420745Y-51305046D01*
X83254861Y-51450522D01*
X83118267Y-51623792D01*
X83015535Y-51819052D01*
X82950107Y-52029765D01*
X82924174Y-52248872D01*
X81182147Y-52248872D01*
X81164858Y-52060721D01*
X81104969Y-51848368D01*
X81007384Y-51650485D01*
X80966971Y-51596365D01*
X80878824Y-51478323D01*
X80878824Y-51478322D01*
X80875371Y-51473699D01*
X80713353Y-51323931D01*
X80526754Y-51206196D01*
X80321825Y-51124438D01*
X80316165Y-51123312D01*
X80316161Y-51123311D01*
X80111095Y-51082521D01*
X80111092Y-51082521D01*
X80105428Y-51081394D01*
X80099653Y-51081318D01*
X80099649Y-51081318D01*
X79988908Y-51079869D01*
X79884810Y-51078506D01*
X79879113Y-51079485D01*
X79879112Y-51079485D01*
X79673058Y-51114891D01*
X79673057Y-51114891D01*
X79667361Y-51115870D01*
X79460361Y-51192236D01*
X79270745Y-51305046D01*
X79104861Y-51450522D01*
X78968267Y-51623792D01*
X78865535Y-51819052D01*
X78800107Y-52029765D01*
X78774174Y-52248872D01*
X77852147Y-52248872D01*
X77834858Y-52060721D01*
X77774969Y-51848368D01*
X77677384Y-51650485D01*
X77636971Y-51596365D01*
X77548824Y-51478323D01*
X77548824Y-51478322D01*
X77545371Y-51473699D01*
X77383353Y-51323931D01*
X77196754Y-51206196D01*
X76991825Y-51124438D01*
X76986165Y-51123312D01*
X76986161Y-51123311D01*
X76781095Y-51082521D01*
X76781092Y-51082521D01*
X76775428Y-51081394D01*
X76769653Y-51081318D01*
X76769649Y-51081318D01*
X76658908Y-51079869D01*
X76554810Y-51078506D01*
X76549113Y-51079485D01*
X76549112Y-51079485D01*
X76343058Y-51114891D01*
X76343057Y-51114891D01*
X76337361Y-51115870D01*
X76130361Y-51192236D01*
X75940745Y-51305046D01*
X75774861Y-51450522D01*
X75638267Y-51623792D01*
X75535535Y-51819052D01*
X75470107Y-52029765D01*
X75444174Y-52248872D01*
X74522147Y-52248872D01*
X74504858Y-52060721D01*
X74444969Y-51848368D01*
X74347384Y-51650485D01*
X74306971Y-51596365D01*
X74218824Y-51478323D01*
X74218824Y-51478322D01*
X74215371Y-51473699D01*
X74053353Y-51323931D01*
X73866754Y-51206196D01*
X73661825Y-51124438D01*
X73656165Y-51123312D01*
X73656161Y-51123311D01*
X73451095Y-51082521D01*
X73451092Y-51082521D01*
X73445428Y-51081394D01*
X73439653Y-51081318D01*
X73439649Y-51081318D01*
X73328908Y-51079869D01*
X73224810Y-51078506D01*
X73219113Y-51079485D01*
X73219112Y-51079485D01*
X73013058Y-51114891D01*
X73013057Y-51114891D01*
X73007361Y-51115870D01*
X72800361Y-51192236D01*
X72610745Y-51305046D01*
X72444861Y-51450522D01*
X72308267Y-51623792D01*
X72205535Y-51819052D01*
X72140107Y-52029765D01*
X72114174Y-52248872D01*
X71192147Y-52248872D01*
X71174858Y-52060721D01*
X71114969Y-51848368D01*
X71017384Y-51650485D01*
X70976971Y-51596365D01*
X70888824Y-51478323D01*
X70888824Y-51478322D01*
X70885371Y-51473699D01*
X70723353Y-51323931D01*
X70536754Y-51206196D01*
X70331825Y-51124438D01*
X70326165Y-51123312D01*
X70326161Y-51123311D01*
X70121095Y-51082521D01*
X70121092Y-51082521D01*
X70115428Y-51081394D01*
X70109653Y-51081318D01*
X70109649Y-51081318D01*
X69998908Y-51079869D01*
X69894810Y-51078506D01*
X69889113Y-51079485D01*
X69889112Y-51079485D01*
X69683058Y-51114891D01*
X69683057Y-51114891D01*
X69677361Y-51115870D01*
X69470361Y-51192236D01*
X69280745Y-51305046D01*
X69114861Y-51450522D01*
X68978267Y-51623792D01*
X68875535Y-51819052D01*
X68810107Y-52029765D01*
X68784174Y-52248872D01*
X67862147Y-52248872D01*
X67844858Y-52060721D01*
X67784969Y-51848368D01*
X67687384Y-51650485D01*
X67646971Y-51596365D01*
X67558824Y-51478323D01*
X67558824Y-51478322D01*
X67555371Y-51473699D01*
X67393353Y-51323931D01*
X67206754Y-51206196D01*
X67001825Y-51124438D01*
X66996165Y-51123312D01*
X66996161Y-51123311D01*
X66791095Y-51082521D01*
X66791092Y-51082521D01*
X66785428Y-51081394D01*
X66779653Y-51081318D01*
X66779649Y-51081318D01*
X66668908Y-51079869D01*
X66564810Y-51078506D01*
X66559113Y-51079485D01*
X66559112Y-51079485D01*
X66353058Y-51114891D01*
X66353057Y-51114891D01*
X66347361Y-51115870D01*
X66140361Y-51192236D01*
X65950745Y-51305046D01*
X65784861Y-51450522D01*
X65648267Y-51623792D01*
X65545535Y-51819052D01*
X65480107Y-52029765D01*
X65454174Y-52248872D01*
X64532147Y-52248872D01*
X64514858Y-52060721D01*
X64454969Y-51848368D01*
X64357384Y-51650485D01*
X64316971Y-51596365D01*
X64228824Y-51478323D01*
X64228824Y-51478322D01*
X64225371Y-51473699D01*
X64063353Y-51323931D01*
X63876754Y-51206196D01*
X63671825Y-51124438D01*
X63666165Y-51123312D01*
X63666161Y-51123311D01*
X63461095Y-51082521D01*
X63461092Y-51082521D01*
X63455428Y-51081394D01*
X63449653Y-51081318D01*
X63449649Y-51081318D01*
X63338908Y-51079869D01*
X63234810Y-51078506D01*
X63229113Y-51079485D01*
X63229112Y-51079485D01*
X63023058Y-51114891D01*
X63023057Y-51114891D01*
X63017361Y-51115870D01*
X62810361Y-51192236D01*
X62620745Y-51305046D01*
X62454861Y-51450522D01*
X62318267Y-51623792D01*
X62215535Y-51819052D01*
X62150107Y-52029765D01*
X62124174Y-52248872D01*
X60382147Y-52248872D01*
X60364858Y-52060721D01*
X60304969Y-51848368D01*
X60207384Y-51650485D01*
X60166971Y-51596365D01*
X60078824Y-51478323D01*
X60078824Y-51478322D01*
X60075371Y-51473699D01*
X59913353Y-51323931D01*
X59726754Y-51206196D01*
X59521825Y-51124438D01*
X59516165Y-51123312D01*
X59516161Y-51123311D01*
X59311095Y-51082521D01*
X59311092Y-51082521D01*
X59305428Y-51081394D01*
X59299653Y-51081318D01*
X59299649Y-51081318D01*
X59188908Y-51079869D01*
X59084810Y-51078506D01*
X59079113Y-51079485D01*
X59079112Y-51079485D01*
X58873058Y-51114891D01*
X58873057Y-51114891D01*
X58867361Y-51115870D01*
X58660361Y-51192236D01*
X58470745Y-51305046D01*
X58304861Y-51450522D01*
X58168267Y-51623792D01*
X58065535Y-51819052D01*
X58000107Y-52029765D01*
X57974174Y-52248872D01*
X52944404Y-52248872D01*
X52944404Y-51888922D01*
X52944406Y-51888152D01*
X52944817Y-51820847D01*
X52944872Y-51811876D01*
X52942408Y-51803253D01*
X52942407Y-51803248D01*
X52936921Y-51784053D01*
X52933344Y-51767295D01*
X52930515Y-51747540D01*
X52930514Y-51747537D01*
X52929242Y-51738655D01*
X52922861Y-51724621D01*
X52918855Y-51715809D01*
X52912407Y-51698282D01*
X52907982Y-51682798D01*
X52907981Y-51682796D01*
X52905515Y-51674167D01*
X52890072Y-51649692D01*
X52881938Y-51634616D01*
X52873676Y-51616445D01*
X52869962Y-51608276D01*
X52864106Y-51601480D01*
X52864104Y-51601477D01*
X52853589Y-51589275D01*
X52842476Y-51574257D01*
X52833879Y-51560631D01*
X52829089Y-51553039D01*
X52807402Y-51533886D01*
X52795361Y-51521697D01*
X52776472Y-51499775D01*
X52755414Y-51486125D01*
X52740540Y-51474835D01*
X52728471Y-51464177D01*
X52728470Y-51464176D01*
X52721738Y-51458231D01*
X52695545Y-51445933D01*
X52680578Y-51437619D01*
X52656287Y-51421875D01*
X52647685Y-51419303D01*
X52647684Y-51419302D01*
X52644265Y-51418280D01*
X52632245Y-51414685D01*
X52614807Y-51408026D01*
X52605693Y-51403747D01*
X52600215Y-51401175D01*
X52600213Y-51401174D01*
X52592093Y-51397362D01*
X52583229Y-51395982D01*
X52583226Y-51395981D01*
X52566979Y-51393452D01*
X52563505Y-51392911D01*
X52546788Y-51389128D01*
X52527669Y-51383410D01*
X52527663Y-51383409D01*
X52519069Y-51380839D01*
X52510100Y-51380784D01*
X52510098Y-51380784D01*
X52499883Y-51380722D01*
X52485188Y-51380632D01*
X52484441Y-51380601D01*
X52483357Y-51380432D01*
X52452894Y-51380432D01*
X52452124Y-51380430D01*
X52451508Y-51380426D01*
X52375848Y-51379964D01*
X52374521Y-51380343D01*
X52373215Y-51380432D01*
X50262894Y-51380432D01*
X50262124Y-51380430D01*
X50261356Y-51380425D01*
X50185848Y-51379964D01*
X50177225Y-51382428D01*
X50177220Y-51382429D01*
X50158025Y-51387915D01*
X50141267Y-51391492D01*
X50121512Y-51394321D01*
X50121509Y-51394322D01*
X50112627Y-51395594D01*
X50104457Y-51399309D01*
X50104456Y-51399309D01*
X50089781Y-51405981D01*
X50072254Y-51412429D01*
X50056770Y-51416854D01*
X50056768Y-51416855D01*
X50048139Y-51419321D01*
X50023664Y-51434764D01*
X50008588Y-51442898D01*
X49982248Y-51454874D01*
X49975452Y-51460730D01*
X49975449Y-51460732D01*
X49963247Y-51471247D01*
X49948229Y-51482360D01*
X49927011Y-51495747D01*
X49907862Y-51517430D01*
X49895669Y-51529475D01*
X49873747Y-51548364D01*
X49868867Y-51555893D01*
X49868866Y-51555894D01*
X49860097Y-51569423D01*
X49848807Y-51584296D01*
X49838149Y-51596365D01*
X49832203Y-51603098D01*
X49825937Y-51616445D01*
X49819908Y-51629286D01*
X49811591Y-51644258D01*
X49795847Y-51668549D01*
X49788657Y-51692591D01*
X49781998Y-51710029D01*
X49771334Y-51732743D01*
X49769954Y-51741607D01*
X49769953Y-51741610D01*
X49766883Y-51761330D01*
X49763100Y-51778048D01*
X49757382Y-51797167D01*
X49757381Y-51797173D01*
X49754811Y-51805767D01*
X49754756Y-51814736D01*
X49754756Y-51814738D01*
X49754605Y-51839635D01*
X49754573Y-51840395D01*
X49754404Y-51841479D01*
X49754404Y-51871942D01*
X49754402Y-51872712D01*
X49753936Y-51948988D01*
X49754315Y-51950315D01*
X49754404Y-51951621D01*
X49754404Y-55371942D01*
X49754402Y-55372712D01*
X49753936Y-55448988D01*
X32994404Y-55448988D01*
X32994404Y-46029136D01*
X32995904Y-46009752D01*
X32998127Y-45995477D01*
X32998127Y-45995474D01*
X32999508Y-45986604D01*
X32998122Y-45976004D01*
X32997665Y-45947319D01*
X33007599Y-45846464D01*
X33012418Y-45822239D01*
X33047892Y-45705297D01*
X33057344Y-45682477D01*
X33114952Y-45574700D01*
X33128675Y-45554162D01*
X33206202Y-45459695D01*
X33223667Y-45442230D01*
X33318134Y-45364703D01*
X33338672Y-45350980D01*
X33446449Y-45293372D01*
X33469269Y-45283920D01*
X33586211Y-45248446D01*
X33610436Y-45243627D01*
X33640090Y-45240706D01*
X33704624Y-45234350D01*
X33720379Y-45234795D01*
X33720388Y-45234045D01*
X33729362Y-45234155D01*
X33738234Y-45235536D01*
X33747136Y-45234372D01*
X33747139Y-45234372D01*
X33769130Y-45231496D01*
X33785467Y-45230432D01*
X85968404Y-45230432D01*
X86036525Y-45250434D01*
G37*
%TD.AperFunction*%
%TD*%
M02*
