%TF.GenerationSoftware,KiCad,Pcbnew,(6.0.2-0)*%
%TF.CreationDate,2022-05-17T22:41:33-06:00*%
%TF.ProjectId,RGB-controller,5247422d-636f-46e7-9472-6f6c6c65722e,rev?*%
%TF.SameCoordinates,Original*%
%TF.FileFunction,Paste,Top*%
%TF.FilePolarity,Positive*%
%FSLAX46Y46*%
G04 Gerber Fmt 4.6, Leading zero omitted, Abs format (unit mm)*
G04 Created by KiCad (PCBNEW (6.0.2-0)) date 2022-05-17 22:41:33*
%MOMM*%
%LPD*%
G01*
G04 APERTURE LIST*
G04 Aperture macros list*
%AMRoundRect*
0 Rectangle with rounded corners*
0 $1 Rounding radius*
0 $2 $3 $4 $5 $6 $7 $8 $9 X,Y pos of 4 corners*
0 Add a 4 corners polygon primitive as box body*
4,1,4,$2,$3,$4,$5,$6,$7,$8,$9,$2,$3,0*
0 Add four circle primitives for the rounded corners*
1,1,$1+$1,$2,$3*
1,1,$1+$1,$4,$5*
1,1,$1+$1,$6,$7*
1,1,$1+$1,$8,$9*
0 Add four rect primitives between the rounded corners*
20,1,$1+$1,$2,$3,$4,$5,0*
20,1,$1+$1,$4,$5,$6,$7,0*
20,1,$1+$1,$6,$7,$8,$9,0*
20,1,$1+$1,$8,$9,$2,$3,0*%
%AMRotRect*
0 Rectangle, with rotation*
0 The origin of the aperture is its center*
0 $1 length*
0 $2 width*
0 $3 Rotation angle, in degrees counterclockwise*
0 Add horizontal line*
21,1,$1,$2,0,0,$3*%
G04 Aperture macros list end*
%ADD10RoundRect,0.135000X-0.135000X-0.185000X0.135000X-0.185000X0.135000X0.185000X-0.135000X0.185000X0*%
%ADD11R,1.100000X1.100000*%
%ADD12RoundRect,0.250000X0.250000X0.475000X-0.250000X0.475000X-0.250000X-0.475000X0.250000X-0.475000X0*%
%ADD13RoundRect,0.140000X-0.140000X-0.170000X0.140000X-0.170000X0.140000X0.170000X-0.140000X0.170000X0*%
%ADD14R,5.700000X1.600000*%
%ADD15RoundRect,0.250000X-0.475000X0.250000X-0.475000X-0.250000X0.475000X-0.250000X0.475000X0.250000X0*%
%ADD16RoundRect,0.140000X-0.021213X0.219203X-0.219203X0.021213X0.021213X-0.219203X0.219203X-0.021213X0*%
%ADD17RoundRect,0.140000X0.170000X-0.140000X0.170000X0.140000X-0.170000X0.140000X-0.170000X-0.140000X0*%
%ADD18RoundRect,0.150000X0.825000X0.150000X-0.825000X0.150000X-0.825000X-0.150000X0.825000X-0.150000X0*%
%ADD19RoundRect,0.140000X-0.219203X-0.021213X-0.021213X-0.219203X0.219203X0.021213X0.021213X0.219203X0*%
%ADD20RoundRect,0.200000X-0.200000X-0.275000X0.200000X-0.275000X0.200000X0.275000X-0.200000X0.275000X0*%
%ADD21RoundRect,0.250000X-0.550000X1.250000X-0.550000X-1.250000X0.550000X-1.250000X0.550000X1.250000X0*%
%ADD22RoundRect,0.135000X-0.035355X0.226274X-0.226274X0.035355X0.035355X-0.226274X0.226274X-0.035355X0*%
%ADD23R,1.400000X1.200000*%
%ADD24RoundRect,0.135000X0.135000X0.185000X-0.135000X0.185000X-0.135000X-0.185000X0.135000X-0.185000X0*%
%ADD25R,0.700000X1.200000*%
%ADD26R,1.000000X1.200000*%
%ADD27R,1.300000X1.900000*%
%ADD28R,1.000000X2.800000*%
%ADD29R,1.000000X0.800000*%
%ADD30R,1.700000X0.650000*%
%ADD31RoundRect,0.140000X0.140000X0.170000X-0.140000X0.170000X-0.140000X-0.170000X0.140000X-0.170000X0*%
%ADD32R,3.000000X1.200000*%
%ADD33RoundRect,0.135000X-0.185000X0.135000X-0.185000X-0.135000X0.185000X-0.135000X0.185000X0.135000X0*%
%ADD34R,2.200000X1.050000*%
%ADD35R,1.050000X1.000000*%
%ADD36RoundRect,0.147500X-0.172500X0.147500X-0.172500X-0.147500X0.172500X-0.147500X0.172500X0.147500X0*%
%ADD37RoundRect,0.135000X0.185000X-0.135000X0.185000X0.135000X-0.185000X0.135000X-0.185000X-0.135000X0*%
%ADD38RoundRect,0.140000X-0.170000X0.140000X-0.170000X-0.140000X0.170000X-0.140000X0.170000X0.140000X0*%
%ADD39RoundRect,0.250000X0.413257X0.000000X0.000000X0.413257X-0.413257X0.000000X0.000000X-0.413257X0*%
%ADD40RoundRect,0.050000X0.309359X-0.238649X-0.238649X0.309359X-0.309359X0.238649X0.238649X-0.309359X0*%
%ADD41RoundRect,0.050000X0.309359X0.238649X0.238649X0.309359X-0.309359X-0.238649X-0.238649X-0.309359X0*%
%ADD42RoundRect,0.150000X-0.725000X-0.150000X0.725000X-0.150000X0.725000X0.150000X-0.725000X0.150000X0*%
%ADD43RoundRect,0.250000X0.475000X-0.250000X0.475000X0.250000X-0.475000X0.250000X-0.475000X-0.250000X0*%
%ADD44RoundRect,0.218750X-0.218750X-0.256250X0.218750X-0.256250X0.218750X0.256250X-0.218750X0.256250X0*%
%ADD45RoundRect,0.147500X0.147500X0.172500X-0.147500X0.172500X-0.147500X-0.172500X0.147500X-0.172500X0*%
%ADD46RoundRect,0.230000X0.230000X0.375000X-0.230000X0.375000X-0.230000X-0.375000X0.230000X-0.375000X0*%
%ADD47R,2.000000X2.000000*%
%ADD48RoundRect,0.200000X0.200000X0.275000X-0.200000X0.275000X-0.200000X-0.275000X0.200000X-0.275000X0*%
%ADD49RoundRect,0.135000X0.035355X-0.226274X0.226274X-0.035355X-0.035355X0.226274X-0.226274X0.035355X0*%
%ADD50RoundRect,0.140000X0.021213X-0.219203X0.219203X-0.021213X-0.021213X0.219203X-0.219203X0.021213X0*%
%ADD51R,1.000000X1.800000*%
%ADD52R,1.500000X1.000000*%
%ADD53RoundRect,0.250000X-0.475000X0.900000X-0.475000X-0.900000X0.475000X-0.900000X0.475000X0.900000X0*%
%ADD54RoundRect,0.100000X-0.100000X0.637500X-0.100000X-0.637500X0.100000X-0.637500X0.100000X0.637500X0*%
%ADD55RotRect,1.400000X1.200000X135.000000*%
%ADD56RoundRect,0.250000X-0.450000X0.262500X-0.450000X-0.262500X0.450000X-0.262500X0.450000X0.262500X0*%
%ADD57RoundRect,0.250000X-0.292217X-0.292217X0.292217X-0.292217X0.292217X0.292217X-0.292217X0.292217X0*%
%ADD58RoundRect,0.050000X-0.387500X-0.050000X0.387500X-0.050000X0.387500X0.050000X-0.387500X0.050000X0*%
%ADD59RoundRect,0.050000X-0.050000X-0.387500X0.050000X-0.387500X0.050000X0.387500X-0.050000X0.387500X0*%
G04 APERTURE END LIST*
D10*
%TO.C,R39*%
X92530000Y-71860000D03*
X93550000Y-71860000D03*
%TD*%
D11*
%TO.C,D5*%
X91032500Y-55180000D03*
X88232500Y-55180000D03*
%TD*%
D12*
%TO.C,C32*%
X83955001Y-70325000D03*
X82055001Y-70325000D03*
%TD*%
D13*
%TO.C,C24*%
X39230000Y-79100000D03*
X40190000Y-79100000D03*
%TD*%
D14*
%TO.C,L6*%
X73950000Y-70480000D03*
X73950000Y-75180000D03*
%TD*%
D15*
%TO.C,C5*%
X53990000Y-55364999D03*
X53990000Y-57264999D03*
%TD*%
D16*
%TO.C,C22*%
X42377559Y-127881163D03*
X41698737Y-128559985D03*
%TD*%
D17*
%TO.C,C16*%
X48680000Y-111760000D03*
X48680000Y-110800000D03*
%TD*%
D18*
%TO.C,U3*%
X50270000Y-58230000D03*
X50270000Y-56960000D03*
X50270000Y-55690000D03*
X50270000Y-54420000D03*
X45320000Y-54420000D03*
X45320000Y-55690000D03*
X45320000Y-56960000D03*
X45320000Y-58230000D03*
%TD*%
D13*
%TO.C,C21*%
X46850000Y-130980000D03*
X47810000Y-130980000D03*
%TD*%
D19*
%TO.C,C18*%
X46580589Y-125610589D03*
X47259411Y-126289411D03*
%TD*%
D20*
%TO.C,R34*%
X72650000Y-62325000D03*
X74300000Y-62325000D03*
%TD*%
D21*
%TO.C,C47*%
X89745000Y-63074999D03*
X89745000Y-67474999D03*
%TD*%
D22*
%TO.C,R26*%
X43670624Y-123379376D03*
X42949376Y-124100624D03*
%TD*%
D23*
%TO.C,Y4*%
X39500000Y-80520000D03*
X37300000Y-80520000D03*
X37300000Y-82220000D03*
X39500000Y-82220000D03*
%TD*%
D17*
%TO.C,C33*%
X42330000Y-65660000D03*
X42330000Y-64700000D03*
%TD*%
D24*
%TO.C,R31*%
X84355000Y-55424999D03*
X83335000Y-55424999D03*
%TD*%
D25*
%TO.C,J3*%
X103085000Y-122845003D03*
X101985000Y-122845003D03*
X100885000Y-122845003D03*
X99785000Y-122845003D03*
X98685000Y-122845003D03*
X97585000Y-122845003D03*
X96485000Y-122845003D03*
X95385000Y-122845003D03*
D26*
X104635000Y-122845003D03*
D27*
X106985000Y-137945003D03*
D28*
X93485000Y-137495003D03*
D26*
X93485000Y-127145003D03*
D29*
X93485000Y-133345003D03*
D25*
X94435000Y-122845003D03*
%TD*%
D12*
%TO.C,C46*%
X107185001Y-58335000D03*
X105285001Y-58335000D03*
%TD*%
D30*
%TO.C,U5*%
X34028163Y-105482086D03*
X34028163Y-106752086D03*
X34028163Y-108022086D03*
X34028163Y-109292086D03*
X41328163Y-109292086D03*
X41328163Y-108022086D03*
X41328163Y-106752086D03*
X41328163Y-105482086D03*
%TD*%
D24*
%TO.C,R43*%
X107240000Y-113550000D03*
X106220000Y-113550000D03*
%TD*%
D31*
%TO.C,C50*%
X35070000Y-68130000D03*
X34110000Y-68130000D03*
%TD*%
D12*
%TO.C,C45*%
X91024999Y-116250002D03*
X89124999Y-116250002D03*
%TD*%
D32*
%TO.C,U9*%
X71275000Y-110300000D03*
X71275000Y-112300000D03*
X71275000Y-114300000D03*
X71275000Y-116300000D03*
X71275000Y-118300000D03*
X71275000Y-120300000D03*
X71275000Y-122300000D03*
X71275000Y-124300000D03*
X86275000Y-124300000D03*
X86275000Y-122300000D03*
X86275000Y-120300000D03*
X86275000Y-118300000D03*
X86275000Y-116300000D03*
X86275000Y-114300000D03*
X86275000Y-112300000D03*
X86275000Y-110300000D03*
%TD*%
D33*
%TO.C,R8*%
X54720000Y-109000000D03*
X54720000Y-110020000D03*
%TD*%
D31*
%TO.C,C23*%
X54721644Y-108019382D03*
X53761644Y-108019382D03*
%TD*%
%TO.C,C49*%
X35050000Y-73190000D03*
X34090000Y-73190000D03*
%TD*%
D34*
%TO.C,J7*%
X54335000Y-131035000D03*
D35*
X52810000Y-132510000D03*
D34*
X54335000Y-133985000D03*
%TD*%
D22*
%TO.C,R27*%
X44260000Y-123980000D03*
X43538752Y-124701248D03*
%TD*%
D10*
%TO.C,R24*%
X91134999Y-133340002D03*
X92154999Y-133340002D03*
%TD*%
D17*
%TO.C,C38*%
X44380000Y-65660000D03*
X44380000Y-64700000D03*
%TD*%
D31*
%TO.C,C26*%
X38250000Y-79090000D03*
X37290000Y-79090000D03*
%TD*%
D12*
%TO.C,C43*%
X103455000Y-58335000D03*
X101555000Y-58335000D03*
%TD*%
D13*
%TO.C,C40*%
X46210000Y-72060000D03*
X47170000Y-72060000D03*
%TD*%
D36*
%TO.C,L3*%
X49770000Y-128965000D03*
X49770000Y-129935000D03*
%TD*%
D37*
%TO.C,R32*%
X88504999Y-124310002D03*
X88504999Y-123290002D03*
%TD*%
D38*
%TO.C,C10*%
X50720000Y-124100000D03*
X50720000Y-125060000D03*
%TD*%
D33*
%TO.C,R37*%
X27040000Y-58810000D03*
X27040000Y-59830000D03*
%TD*%
D10*
%TO.C,R38*%
X38390000Y-100610000D03*
X39410000Y-100610000D03*
%TD*%
%TO.C,R15*%
X31440000Y-105400000D03*
X32460000Y-105400000D03*
%TD*%
D24*
%TO.C,R28*%
X50780000Y-133000000D03*
X49760000Y-133000000D03*
%TD*%
D34*
%TO.C,J2*%
X91304999Y-121255002D03*
D35*
X89779999Y-122730002D03*
D34*
X91304999Y-124205002D03*
%TD*%
D17*
%TO.C,C29*%
X38770000Y-63480000D03*
X38770000Y-62520000D03*
%TD*%
D39*
%TO.C,U4*%
X48378439Y-118020000D03*
X49280000Y-118921561D03*
X50181561Y-118020000D03*
X49280000Y-117118439D03*
D40*
X49872202Y-122289157D03*
X50155045Y-122006314D03*
X50437887Y-121723472D03*
X50720730Y-121440629D03*
X51003573Y-121157786D03*
X51286415Y-120874944D03*
X51569258Y-120592101D03*
X51852101Y-120309258D03*
X52134944Y-120026415D03*
X52417786Y-119743573D03*
X52700629Y-119460730D03*
X52983472Y-119177887D03*
X53266314Y-118895045D03*
X53549157Y-118612202D03*
D41*
X53549157Y-117427798D03*
X53266314Y-117144955D03*
X52983472Y-116862113D03*
X52700629Y-116579270D03*
X52417786Y-116296427D03*
X52134944Y-116013585D03*
X51852101Y-115730742D03*
X51569258Y-115447899D03*
X51286415Y-115165056D03*
X51003573Y-114882214D03*
X50720730Y-114599371D03*
X50437887Y-114316528D03*
X50155045Y-114033686D03*
X49872202Y-113750843D03*
D40*
X48687798Y-113750843D03*
X48404955Y-114033686D03*
X48122113Y-114316528D03*
X47839270Y-114599371D03*
X47556427Y-114882214D03*
X47273585Y-115165056D03*
X46990742Y-115447899D03*
X46707899Y-115730742D03*
X46425056Y-116013585D03*
X46142214Y-116296427D03*
X45859371Y-116579270D03*
X45576528Y-116862113D03*
X45293686Y-117144955D03*
X45010843Y-117427798D03*
D41*
X45010843Y-118612202D03*
X45293686Y-118895045D03*
X45576528Y-119177887D03*
X45859371Y-119460730D03*
X46142214Y-119743573D03*
X46425056Y-120026415D03*
X46707899Y-120309258D03*
X46990742Y-120592101D03*
X47273585Y-120874944D03*
X47556427Y-121157786D03*
X47839270Y-121440629D03*
X48122113Y-121723472D03*
X48404955Y-122006314D03*
X48687798Y-122289157D03*
%TD*%
D17*
%TO.C,C28*%
X99780000Y-120450000D03*
X99780000Y-119490000D03*
%TD*%
D42*
%TO.C,Q4*%
X74050000Y-55669999D03*
X74050000Y-56939999D03*
X74050000Y-58209999D03*
X74050000Y-59479999D03*
X79200000Y-59479999D03*
X79200000Y-58209999D03*
X79200000Y-56939999D03*
X79200000Y-55669999D03*
%TD*%
D43*
%TO.C,C39*%
X80495000Y-74155000D03*
X80495000Y-72255000D03*
%TD*%
D44*
%TO.C,D4*%
X75234998Y-83075001D03*
X76809998Y-83075001D03*
%TD*%
D13*
%TO.C,C13*%
X48130000Y-124390000D03*
X49090000Y-124390000D03*
%TD*%
D45*
%TO.C,L4*%
X49775000Y-130960000D03*
X48805000Y-130960000D03*
%TD*%
D33*
%TO.C,R4*%
X55540000Y-127800000D03*
X55540000Y-128820000D03*
%TD*%
D46*
%TO.C,U8*%
X78335000Y-65855000D03*
X78335000Y-67355000D03*
X79475000Y-65855000D03*
X79475000Y-67355000D03*
D18*
X81380000Y-68510000D03*
X81380000Y-67240000D03*
X81380000Y-65970000D03*
X81380000Y-64700000D03*
X76430000Y-64700000D03*
X76430000Y-65970000D03*
X76430000Y-67240000D03*
X76430000Y-68510000D03*
%TD*%
D10*
%TO.C,R44*%
X94360000Y-119760000D03*
X95380000Y-119760000D03*
%TD*%
D47*
%TO.C,SW3*%
X58050000Y-124390000D03*
X66050000Y-124390000D03*
%TD*%
D48*
%TO.C,R19*%
X73342499Y-81350001D03*
X71692499Y-81350001D03*
%TD*%
D24*
%TO.C,R40*%
X107240000Y-114590000D03*
X106220000Y-114590000D03*
%TD*%
%TO.C,R12*%
X32480000Y-106750000D03*
X31460000Y-106750000D03*
%TD*%
D10*
%TO.C,R6*%
X40760000Y-122730000D03*
X41780000Y-122730000D03*
%TD*%
D37*
%TO.C,R22*%
X49760000Y-134000000D03*
X49760000Y-132980000D03*
%TD*%
D47*
%TO.C,SW2*%
X58040000Y-128660000D03*
X66040000Y-128660000D03*
%TD*%
D24*
%TO.C,R10*%
X32463164Y-108112087D03*
X31443164Y-108112087D03*
%TD*%
D44*
%TO.C,D2*%
X75224998Y-79700000D03*
X76799998Y-79700000D03*
%TD*%
D33*
%TO.C,R33*%
X88502499Y-124307502D03*
X88502499Y-125327502D03*
%TD*%
D48*
%TO.C,R23*%
X83340000Y-63095000D03*
X81690000Y-63095000D03*
%TD*%
D20*
%TO.C,R35*%
X76420000Y-62315000D03*
X78070000Y-62315000D03*
%TD*%
D37*
%TO.C,R17*%
X51480000Y-102860000D03*
X51480000Y-101840000D03*
%TD*%
D33*
%TO.C,R36*%
X33422679Y-66170000D03*
X33422679Y-67190000D03*
%TD*%
D24*
%TO.C,R42*%
X45410000Y-63570000D03*
X44390000Y-63570000D03*
%TD*%
D30*
%TO.C,U7*%
X28580000Y-59825000D03*
X28580000Y-61095000D03*
X28580000Y-62365000D03*
X28580000Y-63635000D03*
X35880000Y-63635000D03*
X35880000Y-62365000D03*
X35880000Y-61095000D03*
X35880000Y-59825000D03*
%TD*%
D48*
%TO.C,R20*%
X73342498Y-83075001D03*
X71692498Y-83075001D03*
%TD*%
D10*
%TO.C,R9*%
X43003163Y-106762087D03*
X44023163Y-106762087D03*
%TD*%
D42*
%TO.C,Q3*%
X74049999Y-50350001D03*
X74049999Y-51620001D03*
X74049999Y-52890001D03*
X74049999Y-54160001D03*
X79199999Y-54160001D03*
X79199999Y-52890001D03*
X79199999Y-51620001D03*
X79199999Y-50350001D03*
%TD*%
D13*
%TO.C,C4*%
X43053164Y-105477088D03*
X44013164Y-105477088D03*
%TD*%
D24*
%TO.C,R45*%
X104100000Y-119760000D03*
X103080000Y-119760000D03*
%TD*%
%TO.C,R41*%
X45410000Y-62520000D03*
X44390000Y-62520000D03*
%TD*%
D17*
%TO.C,C14*%
X49679998Y-111759998D03*
X49679998Y-110799998D03*
%TD*%
D48*
%TO.C,R18*%
X73332499Y-79660000D03*
X71682499Y-79660000D03*
%TD*%
D24*
%TO.C,R21*%
X55670001Y-104667696D03*
X54650001Y-104667696D03*
%TD*%
D38*
%TO.C,C48*%
X40320000Y-76480000D03*
X40320000Y-77440000D03*
%TD*%
D49*
%TO.C,R7*%
X45799376Y-124920624D03*
X46520624Y-124199376D03*
%TD*%
D50*
%TO.C,C7*%
X53871330Y-114877518D03*
X54550152Y-114198696D03*
%TD*%
D24*
%TO.C,R30*%
X86325000Y-55424999D03*
X85305000Y-55424999D03*
%TD*%
D38*
%TO.C,C12*%
X51540000Y-124100000D03*
X51540000Y-125060000D03*
%TD*%
D10*
%TO.C,R25*%
X54980000Y-124550000D03*
X56000000Y-124550000D03*
%TD*%
D37*
%TO.C,R16*%
X52530000Y-102860000D03*
X52530000Y-101840000D03*
%TD*%
D13*
%TO.C,C52*%
X46220000Y-68050000D03*
X47180000Y-68050000D03*
%TD*%
D38*
%TO.C,C31*%
X41350000Y-76480000D03*
X41350000Y-77440000D03*
%TD*%
D13*
%TO.C,C19*%
X55684142Y-108005240D03*
X56644142Y-108005240D03*
%TD*%
D31*
%TO.C,C37*%
X55940000Y-125610000D03*
X54980000Y-125610000D03*
%TD*%
%TO.C,C17*%
X50770000Y-127960000D03*
X49810000Y-127960000D03*
%TD*%
D43*
%TO.C,C25*%
X85025000Y-67405000D03*
X85025000Y-65505000D03*
%TD*%
D17*
%TO.C,C51*%
X40630000Y-63480000D03*
X40630000Y-62520000D03*
%TD*%
D51*
%TO.C,Y3*%
X56500001Y-106397695D03*
X54000001Y-106397695D03*
%TD*%
D10*
%TO.C,R11*%
X43003164Y-108022086D03*
X44023164Y-108022086D03*
%TD*%
D52*
%TO.C,U6*%
X35390000Y-54440000D03*
X35390000Y-56040000D03*
X35390000Y-57640000D03*
X40290000Y-57640000D03*
X40290000Y-56040000D03*
X40290000Y-54440000D03*
%TD*%
D10*
%TO.C,R13*%
X43003162Y-109262088D03*
X44023162Y-109262088D03*
%TD*%
D38*
%TO.C,C11*%
X52370000Y-124100000D03*
X52370000Y-125060000D03*
%TD*%
D17*
%TO.C,C35*%
X45410000Y-65660000D03*
X45410000Y-64700000D03*
%TD*%
D44*
%TO.C,D3*%
X75234998Y-81389999D03*
X76809998Y-81389999D03*
%TD*%
D43*
%TO.C,C41*%
X78425000Y-74155000D03*
X78425000Y-72255000D03*
%TD*%
D53*
%TO.C,U10*%
X96676500Y-65225000D03*
X98476500Y-65225000D03*
X100276500Y-65225000D03*
D54*
X102701500Y-62362500D03*
X102051500Y-62362500D03*
X101401500Y-62362500D03*
X100751500Y-62362500D03*
X100101500Y-62362500D03*
X99451500Y-62362500D03*
X98801500Y-62362500D03*
X98151500Y-62362500D03*
X97501500Y-62362500D03*
X96851500Y-62362500D03*
X96201500Y-62362500D03*
X95551500Y-62362500D03*
X94901500Y-62362500D03*
X94251500Y-62362500D03*
X94251500Y-68087500D03*
X94901500Y-68087500D03*
X95551500Y-68087500D03*
X96201500Y-68087500D03*
X96851500Y-68087500D03*
X97501500Y-68087500D03*
X98151500Y-68087500D03*
X98801500Y-68087500D03*
X99451500Y-68087500D03*
X100101500Y-68087500D03*
X100751500Y-68087500D03*
X101401500Y-68087500D03*
X102051500Y-68087500D03*
X102701500Y-68087500D03*
%TD*%
D24*
%TO.C,R14*%
X43460000Y-58740000D03*
X42440000Y-58740000D03*
%TD*%
D12*
%TO.C,C42*%
X93765000Y-70004999D03*
X91865000Y-70004999D03*
%TD*%
%TO.C,C44*%
X95745000Y-58335000D03*
X93845000Y-58335000D03*
%TD*%
D13*
%TO.C,C15*%
X48140000Y-125420000D03*
X49100000Y-125420000D03*
%TD*%
D55*
%TO.C,Y2*%
X46048858Y-127316777D03*
X44493223Y-125761142D03*
X43291142Y-126963223D03*
X44846777Y-128518858D03*
%TD*%
D12*
%TO.C,C6*%
X30210000Y-54750000D03*
X28310000Y-54750000D03*
%TD*%
D56*
%TO.C,R3*%
X42989999Y-55407500D03*
X42989999Y-57232500D03*
%TD*%
D38*
%TO.C,C9*%
X38770000Y-59810000D03*
X38770000Y-60770000D03*
%TD*%
D47*
%TO.C,SW4*%
X31422679Y-75490000D03*
X31422679Y-67490000D03*
%TD*%
D31*
%TO.C,C8*%
X42655000Y-120470000D03*
X41695000Y-120470000D03*
%TD*%
D42*
%TO.C,Q2*%
X74050000Y-45010000D03*
X74050000Y-46280000D03*
X74050000Y-47550000D03*
X74050000Y-48820000D03*
X79200000Y-48820000D03*
X79200000Y-47550000D03*
X79200000Y-46280000D03*
X79200000Y-45010000D03*
%TD*%
D31*
%TO.C,C20*%
X50720000Y-132000000D03*
X49760000Y-132000000D03*
%TD*%
D57*
%TO.C,U11*%
X41127500Y-70412500D03*
X39852500Y-71687500D03*
X41127500Y-71687500D03*
X39852500Y-70412500D03*
D58*
X37052500Y-68450000D03*
X37052500Y-68850000D03*
X37052500Y-69250000D03*
X37052500Y-69650000D03*
X37052500Y-70050000D03*
X37052500Y-70450000D03*
X37052500Y-70850000D03*
X37052500Y-71250000D03*
X37052500Y-71650000D03*
X37052500Y-72050000D03*
X37052500Y-72450000D03*
X37052500Y-72850000D03*
X37052500Y-73250000D03*
X37052500Y-73650000D03*
D59*
X37890000Y-74487500D03*
X38290000Y-74487500D03*
X38690000Y-74487500D03*
X39090000Y-74487500D03*
X39490000Y-74487500D03*
X39890000Y-74487500D03*
X40290000Y-74487500D03*
X40690000Y-74487500D03*
X41090000Y-74487500D03*
X41490000Y-74487500D03*
X41890000Y-74487500D03*
X42290000Y-74487500D03*
X42690000Y-74487500D03*
X43090000Y-74487500D03*
D58*
X43927500Y-73650000D03*
X43927500Y-73250000D03*
X43927500Y-72850000D03*
X43927500Y-72450000D03*
X43927500Y-72050000D03*
X43927500Y-71650000D03*
X43927500Y-71250000D03*
X43927500Y-70850000D03*
X43927500Y-70450000D03*
X43927500Y-70050000D03*
X43927500Y-69650000D03*
X43927500Y-69250000D03*
X43927500Y-68850000D03*
X43927500Y-68450000D03*
D59*
X43090000Y-67612500D03*
X42690000Y-67612500D03*
X42290000Y-67612500D03*
X41890000Y-67612500D03*
X41490000Y-67612500D03*
X41090000Y-67612500D03*
X40690000Y-67612500D03*
X40290000Y-67612500D03*
X39890000Y-67612500D03*
X39490000Y-67612500D03*
X39090000Y-67612500D03*
X38690000Y-67612500D03*
X38290000Y-67612500D03*
X37890000Y-67612500D03*
%TD*%
M02*
