M48
; DRILL file {KiCad (6.0.2)} date Thu 02 Jun 2022 01:11:00 PM MDT
; FORMAT={-:-/ absolute / inch / decimal}
; #@! TF.CreationDate,2022-06-02T13:11:00-06:00
; #@! TF.GenerationSoftware,Kicad,Pcbnew,(6.0.2)
; #@! TF.FileFunction,Plated,1,4,PTH
FMAT,2
INCH
; #@! TA.AperFunction,Plated,PTH,ViaDrill
T1C0.0079
; #@! TA.AperFunction,Plated,PTH,ComponentDrill
T2C0.0079
; #@! TA.AperFunction,Plated,PTH,ComponentDrill
T3C0.0118
; #@! TA.AperFunction,Plated,PTH,ComponentDrill
T4C0.0138
; #@! TA.AperFunction,Plated,PTH,ViaDrill
T5C0.0157
; #@! TA.AperFunction,Plated,PTH,ComponentDrill
T6C0.0157
; #@! TA.AperFunction,Plated,PTH,ComponentDrill
T7C0.0256
; #@! TA.AperFunction,Plated,PTH,ComponentDrill
T8C0.0509
%
G90
G05
T1
X1.0398Y-2.8299
X1.0646Y-2.2886
X1.0669Y-2.8606
X1.1331Y-2.861
X1.1529Y-2.8299
X1.2764Y-3.4394
X1.2951Y-2.2311
X1.3325Y-2.2094
X1.3339Y-3.8189
X1.3693Y-3.6882
X1.3699Y-2.2311
X1.3969Y-3.9079
X1.4055Y-3.7161
X1.4217Y-4.3044
X1.4217Y-4.3339
X1.4409Y-3.6654
X1.4449Y-4.2717
X1.4508Y-3.935
X1.4683Y-3.0884
X1.4725Y-4.341
X1.4791Y-3.8858
X1.4891Y-4.2658
X1.4891Y-4.3146
X1.5025Y-2.2203
X1.5135Y-4.3383
X1.5139Y-4.2398
X1.5383Y-4.2658
X1.5383Y-4.3146
X1.5549Y-3.2754
X1.5594Y-3.0555
X1.5615Y-3.0265
X1.5627Y-4.3383
X1.5631Y-4.2398
X1.5875Y-4.2658
X1.5875Y-4.3146
X1.6091Y-3.114
X1.6119Y-4.3383
X1.6123Y-4.2398
X1.6367Y-4.2658
X1.6367Y-4.3146
X1.6378Y-3.8091
X1.6504Y-4.0535
X1.6575Y-3.011
X1.6585Y-3.0503
X1.6611Y-4.3383
X1.6615Y-4.2398
X1.6752Y-3.8083
X1.676Y-4.0744
X1.6839Y-2.3659
X1.6859Y-4.2658
X1.6859Y-4.3146
X1.6976Y-3.0602
X1.7103Y-4.3383
X1.7217Y-4.2307
X1.7351Y-4.2658
X1.7351Y-4.3146
X1.7406Y-3.4649
X1.7555Y-4.0736
X1.7595Y-4.3383
X1.7618Y-2.5677
X1.7618Y-2.6217
X1.7618Y-2.6429
X1.7723Y-3.5192
X1.7764Y-2.3659
X1.7843Y-4.2658
X1.7843Y-4.3146
X1.7996Y-2.5681
X1.7996Y-2.6217
X1.7996Y-2.6425
X1.8088Y-4.3383
X1.8134Y-4.2504
X1.8148Y-2.4614
X1.8148Y-2.5028
X1.8319Y-4.0457
X1.8336Y-4.3146
X1.8528Y-3.3551
X1.8544Y-4.339
X1.8729Y-4.1331
X1.8737Y-4.1721
X1.8741Y-4.2119
X1.8804Y-4.3154
X1.887Y-4.0382
X1.8981Y-4.191
X1.8985Y-4.117
X1.8985Y-4.1532
X1.9044Y-4.3414
X1.922Y-4.1327
X1.922Y-4.1713
X1.922Y-4.2102
X1.9276Y-3.3547
X1.9358Y-3.9846
X1.9358Y-4.0125
X1.9358Y-4.0403
X1.9358Y-4.0681
X1.9358Y-4.0984
X1.9749Y-3.1394
X1.9811Y-3.9839
X1.9811Y-4.0122
X1.9811Y-4.0406
X1.9811Y-4.0689
X1.9811Y-4.0972
X1.9939Y-3.0215
X1.9945Y-4.2094
X1.9945Y-4.2492
X1.9949Y-4.1705
X2.0087Y-2.1533
X2.013Y-4.1319
X2.0228Y-4.3264
X2.024Y-4.1713
X2.0297Y-3.0218
X2.0319Y-4.0213
X2.0327Y-4.098
X2.0569Y-2.3049
X2.0573Y-3.0218
X2.0697Y-4.1413
X2.0697Y-4.2575
X2.0709Y-4.0256
X2.115Y-3.0175
X2.1295Y-4.0516
X2.1394Y-3.9547
X2.1397Y-3.0175
X2.1484Y-3.524
X2.1492Y-3.487
X2.1965Y-3.9295
X2.2059Y-4.0157
X2.2142Y-3.0602
X2.2437Y-3.9524
X2.3169Y-2.8976
X2.3171Y-3.0927
X2.3279Y-2.7732
X2.3528Y-2.7453
X2.3902Y-2.9946
X2.4186Y-2.9557
X2.4367Y-3.0715
X2.458Y-2.9557
X2.484Y-2.903
X2.4844Y-3.0959
X2.5245Y-2.7699
X2.5943Y-2.4585
X2.7138Y-4.061
X2.7268Y-4.1642
X2.7321Y-2.6524
X2.75Y-3.9304
X2.7505Y-3.9552
X2.7508Y-3.9807
X2.7513Y-4.0055
X2.9228Y-3.8213
X3.0669Y-4.0615
X3.089Y-3.7614
X3.089Y-4.0835
X3.1319Y-4.0831
X3.1697Y-4.0831
X3.1744Y-3.6894
X3.202Y-3.4906
X3.2287Y-3.5421
X3.2409Y-3.4906
X3.3028Y-3.6685
X3.3134Y-3.5559
X3.4154Y-4.1161
X3.4217Y-3.6807
X3.4602Y-3.6807
X3.4654Y-4.1161
X3.4732Y-4.0539
X3.4945Y-3.6807
X3.4976Y-4.115
X3.5091Y-3.7488
X3.511Y-3.9016
X3.511Y-4.0539
X3.5295Y-4.1142
X3.5311Y-3.6941
X3.5528Y-4.0933
X3.5547Y-3.7181
X3.5673Y-2.689
X3.5728Y-3.7488
X3.5732Y-4.0693
X3.5819Y-3.8795
X3.5819Y-3.9244
X3.6087Y-3.9252
X3.6122Y-3.8803
X3.6248Y-4.0287
X3.6252Y-3.7772
X3.6256Y-3.748
X3.635Y-3.9256
X3.6425Y-3.8807
X3.6728Y-3.8811
X3.7031Y-3.8815
X3.7043Y-3.7307
X3.7366Y-3.952
X3.737Y-3.9937
X3.7374Y-3.7307
X3.7772Y-3.7957
X3.778Y-3.7303
X3.787Y-2.765
T2
X3.1764Y-3.852
X3.1764Y-3.9091
X3.1764Y-3.9661
X3.2335Y-3.852
X3.2335Y-3.9091
X3.2335Y-3.9661
X3.2906Y-3.852
X3.2906Y-3.9091
X3.2906Y-3.9661
T3
X1.5307Y-4.3652
X3.7825Y-2.5236
X3.7825Y-2.6122
X3.8455Y-2.5236
X3.8455Y-2.6122
X3.9085Y-2.5236
X3.9085Y-2.6122
X3.9715Y-2.5236
X3.9715Y-2.6122
T4
X1.5439Y-2.747
X1.5439Y-2.8474
X1.6443Y-2.747
X1.6443Y-2.8474
X1.8652Y-3.7402
X1.9362Y-3.6692
X1.9362Y-3.8111
X2.0072Y-3.7402
T5
X1.1815Y-2.5055
X1.2909Y-3.0181
X1.3414Y-2.9338
X1.3437Y-3.5886
X1.3799Y-2.9339
X1.3807Y-2.6528
X1.4152Y-2.6244
X1.5177Y-2.3544
X1.5177Y-2.393
X1.5626Y-2.4606
X1.5626Y-2.4992
X1.6409Y-2.4209
X1.6417Y-2.4653
X1.6652Y-3.1724
X1.6652Y-3.2394
X1.6661Y-3.1205
X1.6984Y-2.585
X1.6993Y-2.5457
X1.7584Y-3.4038
X1.7969Y-3.4039
X1.876Y-3.4705
X1.8839Y-3.9512
X1.8992Y-2.872
X1.9033Y-3.4977
X1.9386Y-2.872
X2.0667Y-2.1957
X2.0677Y-2.2705
X2.2734Y-1.988
X2.2744Y-2.0451
X2.301Y-2.0156
X2.3295Y-1.988
X2.3305Y-2.0451
X2.5805Y-3.0402
X2.6455Y-3.0402
X2.7163Y-3.0402
X2.774Y-3.5606
X2.774Y-3.8398
X2.774Y-4.0512
X2.774Y-4.2516
X2.7911Y-2.1888
X2.7911Y-2.2319
X2.7911Y-2.4043
X2.7921Y-2.275
X2.7921Y-2.3181
X2.7921Y-2.3612
X2.8309Y-2.1888
X2.8309Y-2.2319
X2.8309Y-2.4043
X2.8319Y-2.275
X2.8319Y-2.3181
X2.8319Y-2.3612
X2.8502Y-2.5884
X2.8555Y-2.6484
X2.8949Y-2.6484
X2.8996Y-2.2992
X2.9126Y-3.0528
X2.9134Y-2.8386
X2.928Y-3.4043
X2.9283Y-4.4083
X2.9343Y-2.6484
X2.9524Y-2.8386
X2.9913Y-2.8386
X2.9949Y-2.2996
X3.002Y-3.0528
X3.0709Y-2.7283
X3.0709Y-2.7677
X3.0858Y-2.9835
X3.0858Y-3.0528
X3.1051Y-2.2996
X3.122Y-2.7283
X3.122Y-2.7677
X3.128Y-3.4043
X3.128Y-4.4083
X3.1846Y-2.9835
X3.1846Y-3.0528
X3.1913Y-2.7756
X3.2047Y-2.2996
X3.2528Y-2.6228
X3.2734Y-2.4575
X3.2734Y-2.5451
X3.2835Y-2.9835
X3.2835Y-3.0528
X3.2839Y-2.8972
X3.3492Y-2.7004
X3.3681Y-2.9634
X3.4197Y-3.6157
X3.4197Y-3.5406
X3.4236Y-4.4083
X3.424Y-2.4772
X3.4247Y-2.5379
X3.426Y-3.4043
X3.4335Y-4.0524
X3.4663Y-2.4772
X3.4713Y-2.5382
X3.472Y-3.9031
X3.4748Y-3.7488
X3.4835Y-3.3496
X3.5169Y-2.8177
X3.5189Y-2.8614
X3.5465Y-3.7791
X3.5469Y-4.0252
X3.5598Y-2.8614
X3.5602Y-2.8177
X3.585Y-3.7791
X3.5854Y-4.0256
X3.6189Y-3.4043
X3.6209Y-4.4083
X3.6386Y-2.7087
X3.6843Y-2.1831
X3.6843Y-2.2224
X3.689Y-2.3543
X3.689Y-2.3976
X3.7055Y-4.0256
X3.7236Y-2.1831
X3.7236Y-2.2224
X3.7402Y-3.8028
X3.763Y-2.1831
X3.763Y-2.2224
X3.778Y-3.5583
X3.778Y-3.8736
X3.778Y-4.2524
X3.9953Y-2.187
X3.9953Y-2.2264
X4.0346Y-2.187
X4.0346Y-2.2264
X4.074Y-2.187
X4.074Y-2.2264
X4.1102Y-2.5276
X4.1102Y-2.5669
X4.1102Y-2.6142
X4.1514Y-2.1514
T6
X4.0697Y-3.0425
X4.0697Y-3.1213
X4.0697Y-3.2
X4.0697Y-3.2787
X4.0697Y-3.3575
X4.0697Y-3.4362
X4.0697Y-3.515
X4.0697Y-3.5937
X4.0697Y-3.6724
X4.0697Y-3.9016
X4.0697Y-3.9803
X4.0697Y-4.0591
X4.0697Y-4.1378
X4.0697Y-4.2165
X4.0697Y-4.2953
X4.0697Y-4.374
X4.0697Y-4.4528
X4.0697Y-4.5315
X4.2665Y-3.0425
X4.2665Y-3.1213
X4.2665Y-3.2
X4.2665Y-3.2787
X4.2665Y-3.3575
X4.2665Y-3.4362
X4.2665Y-3.515
X4.2665Y-3.5937
X4.2665Y-3.6724
X4.2665Y-3.7512
X4.2665Y-3.8228
X4.2665Y-3.9016
X4.2665Y-3.9803
X4.2665Y-4.0591
X4.2665Y-4.1378
X4.2665Y-4.2165
X4.2665Y-4.2953
X4.2665Y-4.374
X4.2665Y-4.4528
X4.2665Y-4.5315
T7
X1.0236Y-3.7823
X1.0236Y-3.8323
X1.0236Y-3.8823
X1.0236Y-3.9323
X1.0236Y-3.9823
X1.0236Y-4.0323
X1.8744Y-2.4075
X1.8744Y-2.4575
X1.8744Y-2.5075
X1.8744Y-2.5575
X2.3683Y-4.3642
X2.4183Y-4.3642
X2.4683Y-4.3642
X2.5183Y-4.3642
X2.5683Y-4.3642
T8
X1.1427Y-1.7732
X1.1427Y-2.0232
X1.3077Y-1.7732
X1.3077Y-2.0232
X1.4726Y-1.7732
X1.4726Y-2.0232
X1.6376Y-1.7732
X1.6376Y-2.0232
X1.8026Y-1.7732
X1.8026Y-2.0232
X1.9675Y-1.7732
X1.9675Y-2.0232
X3.3081Y-1.7732
X3.3081Y-2.0232
X3.473Y-1.7732
X3.473Y-2.0232
X3.638Y-1.7732
X3.638Y-2.0232
X3.803Y-1.7732
X3.803Y-2.0232
X3.9679Y-1.7732
X3.9679Y-2.0232
X4.1329Y-1.7732
X4.1329Y-2.0232
T0
M30
