%TF.GenerationSoftware,KiCad,Pcbnew,(6.0.2)*%
%TF.CreationDate,2022-07-01T10:37:28-06:00*%
%TF.ProjectId,RGB-controller,5247422d-636f-46e7-9472-6f6c6c65722e,B*%
%TF.SameCoordinates,Original*%
%TF.FileFunction,Soldermask,Top*%
%TF.FilePolarity,Negative*%
%FSLAX46Y46*%
G04 Gerber Fmt 4.6, Leading zero omitted, Abs format (unit mm)*
G04 Created by KiCad (PCBNEW (6.0.2)) date 2022-07-01 10:37:28*
%MOMM*%
%LPD*%
G01*
G04 APERTURE LIST*
G04 Aperture macros list*
%AMRoundRect*
0 Rectangle with rounded corners*
0 $1 Rounding radius*
0 $2 $3 $4 $5 $6 $7 $8 $9 X,Y pos of 4 corners*
0 Add a 4 corners polygon primitive as box body*
4,1,4,$2,$3,$4,$5,$6,$7,$8,$9,$2,$3,0*
0 Add four circle primitives for the rounded corners*
1,1,$1+$1,$2,$3*
1,1,$1+$1,$4,$5*
1,1,$1+$1,$6,$7*
1,1,$1+$1,$8,$9*
0 Add four rect primitives between the rounded corners*
20,1,$1+$1,$2,$3,$4,$5,0*
20,1,$1+$1,$4,$5,$6,$7,0*
20,1,$1+$1,$6,$7,$8,$9,0*
20,1,$1+$1,$8,$9,$2,$3,0*%
%AMRotRect*
0 Rectangle, with rotation*
0 The origin of the aperture is its center*
0 $1 length*
0 $2 width*
0 $3 Rotation angle, in degrees counterclockwise*
0 Add horizontal line*
21,1,$1,$2,0,0,$3*%
G04 Aperture macros list end*
%ADD10C,0.500000*%
%ADD11R,0.558800X1.701800*%
%ADD12R,5.359400X2.413000*%
%ADD13RoundRect,0.250000X-1.250000X-0.550000X1.250000X-0.550000X1.250000X0.550000X-1.250000X0.550000X0*%
%ADD14C,1.000000*%
%ADD15RoundRect,0.150000X-0.150000X0.725000X-0.150000X-0.725000X0.150000X-0.725000X0.150000X0.725000X0*%
%ADD16RoundRect,0.071250X-0.071250X0.803750X-0.071250X-0.803750X0.071250X-0.803750X0.071250X0.803750X0*%
%ADD17RoundRect,0.075000X-0.650000X-0.075000X0.650000X-0.075000X0.650000X0.075000X-0.650000X0.075000X0*%
%ADD18RoundRect,0.250000X-1.425000X0.362500X-1.425000X-0.362500X1.425000X-0.362500X1.425000X0.362500X0*%
%ADD19RoundRect,0.140000X0.140000X0.170000X-0.140000X0.170000X-0.140000X-0.170000X0.140000X-0.170000X0*%
%ADD20RoundRect,0.250000X0.475000X-0.250000X0.475000X0.250000X-0.475000X0.250000X-0.475000X-0.250000X0*%
%ADD21RoundRect,0.135000X-0.135000X-0.185000X0.135000X-0.185000X0.135000X0.185000X-0.135000X0.185000X0*%
%ADD22RoundRect,0.135000X0.185000X-0.135000X0.185000X0.135000X-0.185000X0.135000X-0.185000X-0.135000X0*%
%ADD23RoundRect,0.135000X-0.185000X0.135000X-0.185000X-0.135000X0.185000X-0.135000X0.185000X0.135000X0*%
%ADD24RoundRect,0.140000X-0.021213X0.219203X-0.219203X0.021213X0.021213X-0.219203X0.219203X-0.021213X0*%
%ADD25RoundRect,0.250000X-0.475000X0.250000X-0.475000X-0.250000X0.475000X-0.250000X0.475000X0.250000X0*%
%ADD26RoundRect,0.147500X-0.147500X-0.172500X0.147500X-0.172500X0.147500X0.172500X-0.147500X0.172500X0*%
%ADD27C,0.500000*%
%ADD28R,0.522000X0.600000*%
%ADD29R,3.800000X1.150000*%
%ADD30R,0.800000X1.400000*%
%ADD31RoundRect,0.140000X-0.140000X-0.170000X0.140000X-0.170000X0.140000X0.170000X-0.140000X0.170000X0*%
%ADD32RoundRect,0.135000X0.135000X0.185000X-0.135000X0.185000X-0.135000X-0.185000X0.135000X-0.185000X0*%
%ADD33RoundRect,0.140000X-0.219203X-0.021213X-0.021213X-0.219203X0.219203X0.021213X0.021213X0.219203X0*%
%ADD34RoundRect,0.150000X-0.825000X-0.150000X0.825000X-0.150000X0.825000X0.150000X-0.825000X0.150000X0*%
%ADD35R,1.000000X1.000000*%
%ADD36O,1.000000X1.000000*%
%ADD37RoundRect,0.135000X-0.035355X0.226274X-0.226274X0.035355X0.035355X-0.226274X0.226274X-0.035355X0*%
%ADD38RoundRect,0.250000X0.250000X0.475000X-0.250000X0.475000X-0.250000X-0.475000X0.250000X-0.475000X0*%
%ADD39R,1.700000X0.650000*%
%ADD40RoundRect,0.250000X-0.362500X-1.425000X0.362500X-1.425000X0.362500X1.425000X-0.362500X1.425000X0*%
%ADD41RoundRect,0.140000X0.170000X-0.140000X0.170000X0.140000X-0.170000X0.140000X-0.170000X-0.140000X0*%
%ADD42RoundRect,0.250000X0.262500X0.450000X-0.262500X0.450000X-0.262500X-0.450000X0.262500X-0.450000X0*%
%ADD43R,0.650000X0.400000*%
%ADD44RoundRect,0.140000X-0.170000X0.140000X-0.170000X-0.140000X0.170000X-0.140000X0.170000X0.140000X0*%
%ADD45RoundRect,0.150000X-0.512500X-0.150000X0.512500X-0.150000X0.512500X0.150000X-0.512500X0.150000X0*%
%ADD46C,2.000000*%
%ADD47RoundRect,0.150000X0.587500X0.150000X-0.587500X0.150000X-0.587500X-0.150000X0.587500X-0.150000X0*%
%ADD48RoundRect,0.200000X-0.275000X0.200000X-0.275000X-0.200000X0.275000X-0.200000X0.275000X0.200000X0*%
%ADD49RoundRect,0.250000X-0.450000X0.262500X-0.450000X-0.262500X0.450000X-0.262500X0.450000X0.262500X0*%
%ADD50RoundRect,0.218750X0.256250X-0.218750X0.256250X0.218750X-0.256250X0.218750X-0.256250X-0.218750X0*%
%ADD51RoundRect,0.147500X-0.172500X0.147500X-0.172500X-0.147500X0.172500X-0.147500X0.172500X0.147500X0*%
%ADD52C,0.900000*%
%ADD53C,12.800000*%
%ADD54RoundRect,0.050000X0.353553X-0.282843X-0.282843X0.353553X-0.353553X0.282843X0.282843X-0.353553X0*%
%ADD55RoundRect,0.050000X0.353553X0.282843X0.282843X0.353553X-0.353553X-0.282843X-0.282843X-0.353553X0*%
%ADD56RoundRect,0.144000X2.059095X0.000000X0.000000X2.059095X-2.059095X0.000000X0.000000X-2.059095X0*%
%ADD57RoundRect,0.147500X0.172500X-0.147500X0.172500X0.147500X-0.172500X0.147500X-0.172500X-0.147500X0*%
%ADD58R,2.000000X2.000000*%
%ADD59RoundRect,0.150000X0.150000X-0.725000X0.150000X0.725000X-0.150000X0.725000X-0.150000X-0.725000X0*%
%ADD60RoundRect,0.250000X-0.262500X-0.450000X0.262500X-0.450000X0.262500X0.450000X-0.262500X0.450000X0*%
%ADD61R,1.800000X2.500000*%
%ADD62RoundRect,0.140000X0.219203X0.021213X0.021213X0.219203X-0.219203X-0.021213X-0.021213X-0.219203X0*%
%ADD63RoundRect,0.062500X-0.062500X0.362500X-0.062500X-0.362500X0.062500X-0.362500X0.062500X0.362500X0*%
%ADD64RoundRect,0.062500X-0.362500X0.062500X-0.362500X-0.062500X0.362500X-0.062500X0.362500X0.062500X0*%
%ADD65R,3.400000X3.400000*%
%ADD66R,1.000000X1.150000*%
%ADD67RotRect,1.400000X1.200000X135.000000*%
%ADD68RoundRect,0.250000X-0.250000X-0.475000X0.250000X-0.475000X0.250000X0.475000X-0.250000X0.475000X0*%
G04 APERTURE END LIST*
D10*
%TO.C,MK801*%
X35422000Y-100570000D02*
G75*
G03*
X35422000Y-100570000I-665000J0D01*
G01*
%TD*%
D11*
%TO.C,U301*%
X106110000Y-61530900D03*
X104840000Y-61530900D03*
X102300000Y-61530900D03*
X101030000Y-61530900D03*
D12*
X103570000Y-70268500D03*
%TD*%
D13*
%TO.C,C602*%
X51420000Y-80620000D03*
X55820000Y-80620000D03*
%TD*%
D14*
%TO.C,TP602*%
X44470000Y-80670000D03*
%TD*%
%TO.C,TP601*%
X42570000Y-80670000D03*
%TD*%
D15*
%TO.C,Q606*%
X51350000Y-70140000D03*
X50080000Y-70140000D03*
X48810000Y-70140000D03*
X47540000Y-70140000D03*
X47540000Y-75290000D03*
D16*
X48652500Y-75290000D03*
X50237500Y-75290000D03*
D15*
X51350000Y-75290000D03*
%TD*%
D17*
%TO.C,U601*%
X47668528Y-61270000D03*
X47668528Y-61770000D03*
X47668528Y-62270000D03*
X47668528Y-62770000D03*
X47668528Y-63270000D03*
X52068528Y-63270000D03*
X52068528Y-62770000D03*
X52068528Y-62270000D03*
X52068528Y-61770000D03*
X52068528Y-61270000D03*
%TD*%
D18*
%TO.C,R622*%
X55268529Y-64727500D03*
X55268529Y-70652500D03*
%TD*%
%TO.C,R621*%
X44408529Y-64727500D03*
X44408529Y-70652500D03*
%TD*%
D19*
%TO.C,C601*%
X51049999Y-59870000D03*
X50089999Y-59870000D03*
%TD*%
D20*
%TO.C,C501*%
X84175001Y-99440000D03*
X84175001Y-97540000D03*
%TD*%
D21*
%TO.C,R606*%
X103250000Y-85880000D03*
X104270000Y-85880000D03*
%TD*%
D22*
%TO.C,R612*%
X109770000Y-82880000D03*
X109770000Y-81860000D03*
%TD*%
D23*
%TO.C,R105*%
X41905000Y-95524999D03*
X41905000Y-96544999D03*
%TD*%
D24*
%TO.C,C113*%
X49757559Y-115431163D03*
X49078737Y-116109985D03*
%TD*%
D25*
%TO.C,C523*%
X95870000Y-114320000D03*
X95870000Y-116220000D03*
%TD*%
D26*
%TO.C,L501*%
X84535000Y-104905000D03*
X85505000Y-104905000D03*
%TD*%
D23*
%TO.C,R613*%
X94685000Y-83755000D03*
X94685000Y-84775000D03*
%TD*%
D27*
%TO.C,MK801*%
X34757000Y-100570000D03*
D28*
X36831000Y-99670000D03*
X36009000Y-99670000D03*
X36009000Y-101470000D03*
X36831000Y-101470000D03*
X36831000Y-100570000D03*
%TD*%
D29*
%TO.C,AE501*%
X108545000Y-107795000D03*
X108545000Y-103495000D03*
D30*
X107045000Y-106020000D03*
%TD*%
D31*
%TO.C,C506*%
X84540000Y-102845000D03*
X85500000Y-102845000D03*
%TD*%
%TO.C,C116*%
X54490000Y-129220000D03*
X55450000Y-129220000D03*
%TD*%
D32*
%TO.C,R501*%
X96050000Y-107970000D03*
X95030000Y-107970000D03*
%TD*%
D33*
%TO.C,C112*%
X53960589Y-113160589D03*
X54639411Y-113839411D03*
%TD*%
D34*
%TO.C,U401*%
X90545000Y-66415000D03*
X90545000Y-67685000D03*
X90545000Y-68955000D03*
X90545000Y-70225000D03*
X95495000Y-70225000D03*
X95495000Y-68955000D03*
X95495000Y-67685000D03*
X95495000Y-66415000D03*
%TD*%
D31*
%TO.C,C521*%
X98185000Y-106020000D03*
X99145000Y-106020000D03*
%TD*%
D35*
%TO.C,J101*%
X34920000Y-105820000D03*
D36*
X34920000Y-107090000D03*
X34920000Y-108360000D03*
X34920000Y-109630000D03*
X34920000Y-110900000D03*
X34920000Y-112170000D03*
%TD*%
D19*
%TO.C,C502*%
X79225000Y-110599999D03*
X78265000Y-110599999D03*
%TD*%
D26*
%TO.C,L502*%
X84535000Y-105920000D03*
X85505000Y-105920000D03*
%TD*%
D20*
%TO.C,C401*%
X88170000Y-69320000D03*
X88170000Y-67420000D03*
%TD*%
D37*
%TO.C,R108*%
X51050624Y-110929376D03*
X50329376Y-111650624D03*
%TD*%
D38*
%TO.C,C201*%
X63890000Y-119170000D03*
X61990000Y-119170000D03*
%TD*%
D22*
%TO.C,R617*%
X104300001Y-84820000D03*
X104300001Y-83800000D03*
%TD*%
D39*
%TO.C,U102*%
X43558163Y-96552086D03*
X43558163Y-97822086D03*
X43558163Y-99092086D03*
X43558163Y-100362086D03*
X50858163Y-100362086D03*
X50858163Y-99092086D03*
X50858163Y-97822086D03*
X50858163Y-96552086D03*
%TD*%
D40*
%TO.C,R23*%
X91347500Y-74995000D03*
X97272500Y-74995000D03*
%TD*%
D41*
%TO.C,C514*%
X92095000Y-104475000D03*
X92095000Y-103515000D03*
%TD*%
D42*
%TO.C,R301*%
X99507500Y-59110000D03*
X97682500Y-59110000D03*
%TD*%
D43*
%TO.C,U502*%
X94145000Y-105370000D03*
X94145000Y-106020000D03*
X94145000Y-106670000D03*
X96045000Y-106670000D03*
X96045000Y-106020000D03*
X96045000Y-105370000D03*
%TD*%
D26*
%TO.C,L503*%
X87360000Y-104470000D03*
X88330000Y-104470000D03*
%TD*%
D41*
%TO.C,C504*%
X82105000Y-101740000D03*
X82105000Y-100780000D03*
%TD*%
D44*
%TO.C,C518*%
X87495000Y-107215000D03*
X87495000Y-108175000D03*
%TD*%
D45*
%TO.C,D301*%
X100182500Y-51070000D03*
X100182500Y-52020000D03*
X100182500Y-52970000D03*
X102457500Y-52970000D03*
X102457500Y-51070000D03*
%TD*%
D22*
%TO.C,R614*%
X95710000Y-84775000D03*
X95710000Y-83755000D03*
%TD*%
D46*
%TO.C,J201*%
X59179404Y-60680432D03*
X63329404Y-60680432D03*
X66659404Y-60680432D03*
X69989404Y-60680432D03*
X73319404Y-60680432D03*
X76649404Y-60680432D03*
X79979404Y-60680432D03*
X84129404Y-60680432D03*
X59179404Y-56480432D03*
X63329404Y-56480432D03*
X66659404Y-56480432D03*
X69989404Y-56480432D03*
X73319404Y-56480432D03*
X76649404Y-56480432D03*
X79979404Y-56480432D03*
X84129404Y-56480432D03*
X59179404Y-52280432D03*
X63329404Y-52280432D03*
X66659404Y-52280432D03*
X69989404Y-52280432D03*
X73319404Y-52280432D03*
X76649404Y-52280432D03*
X79979404Y-52280432D03*
X84129404Y-52280432D03*
%TD*%
D31*
%TO.C,C509*%
X84540000Y-103875000D03*
X85500000Y-103875000D03*
%TD*%
D43*
%TO.C,Q605*%
X107510000Y-85470000D03*
X107510000Y-84820000D03*
X107510000Y-84170000D03*
X105610000Y-84170000D03*
X105610000Y-84820000D03*
X105610000Y-85470000D03*
%TD*%
D37*
%TO.C,R109*%
X51640000Y-111530000D03*
X50918752Y-112251248D03*
%TD*%
D47*
%TO.C,D201*%
X93732500Y-61245000D03*
X93732500Y-59345000D03*
X91857500Y-60295000D03*
%TD*%
D48*
%TO.C,R303*%
X108020000Y-63820000D03*
X108020000Y-65470000D03*
%TD*%
D22*
%TO.C,R103*%
X60395000Y-95905000D03*
X60395000Y-94885000D03*
%TD*%
D21*
%TO.C,R605*%
X94660000Y-85870000D03*
X95680000Y-85870000D03*
%TD*%
%TO.C,R402*%
X97285000Y-66420000D03*
X98305000Y-66420000D03*
%TD*%
%TO.C,R620*%
X106550000Y-82770000D03*
X107570000Y-82770000D03*
%TD*%
D22*
%TO.C,R611*%
X109770001Y-84815000D03*
X109770001Y-83795000D03*
%TD*%
D49*
%TO.C,R603*%
X50080000Y-66247500D03*
X50080000Y-68072500D03*
%TD*%
D44*
%TO.C,C520*%
X100165000Y-105065000D03*
X100165000Y-106025000D03*
%TD*%
D14*
%TO.C,TP102*%
X42790000Y-107630000D03*
%TD*%
D50*
%TO.C,D303*%
X108020000Y-62232500D03*
X108020000Y-60657500D03*
%TD*%
D51*
%TO.C,L101*%
X57570000Y-115145000D03*
X57570000Y-116115000D03*
%TD*%
D31*
%TO.C,C103*%
X61040000Y-110460000D03*
X62000000Y-110460000D03*
%TD*%
D35*
%TO.C,J202*%
X65255000Y-120450000D03*
D36*
X66525000Y-120450000D03*
X67795000Y-120450000D03*
X69065000Y-120450000D03*
X70335000Y-120450000D03*
%TD*%
D51*
%TO.C,L505*%
X84545000Y-107210000D03*
X84545000Y-108180000D03*
%TD*%
D31*
%TO.C,C515*%
X92090000Y-105370000D03*
X93050000Y-105370000D03*
%TD*%
D22*
%TO.C,R615*%
X95710000Y-82840000D03*
X95710000Y-81820000D03*
%TD*%
D41*
%TO.C,C513*%
X89295000Y-104475000D03*
X89295000Y-103515000D03*
%TD*%
D52*
%TO.C,H202*%
X45590000Y-130400000D03*
X37395887Y-133794113D03*
X44184113Y-127005887D03*
X35990000Y-130400000D03*
X37395887Y-127005887D03*
X40790000Y-135200000D03*
X40790000Y-125600000D03*
D53*
X40790000Y-130400000D03*
D52*
X44184113Y-133794113D03*
%TD*%
D54*
%TO.C,U101*%
X57672202Y-108469157D03*
X57955045Y-108186314D03*
X58237887Y-107903472D03*
X58520730Y-107620629D03*
X58803573Y-107337786D03*
X59086415Y-107054944D03*
X59369258Y-106772101D03*
X59652101Y-106489258D03*
X59934944Y-106206415D03*
X60217786Y-105923573D03*
X60500629Y-105640730D03*
X60783472Y-105357887D03*
X61066314Y-105075045D03*
X61349157Y-104792202D03*
D55*
X61349157Y-103607798D03*
X61066314Y-103324955D03*
X60783472Y-103042113D03*
X60500629Y-102759270D03*
X60217786Y-102476427D03*
X59934944Y-102193585D03*
X59652101Y-101910742D03*
X59369258Y-101627899D03*
X59086415Y-101345056D03*
X58803573Y-101062214D03*
X58520730Y-100779371D03*
X58237887Y-100496528D03*
X57955045Y-100213686D03*
X57672202Y-99930843D03*
D54*
X56487798Y-99930843D03*
X56204955Y-100213686D03*
X55922113Y-100496528D03*
X55639270Y-100779371D03*
X55356427Y-101062214D03*
X55073585Y-101345056D03*
X54790742Y-101627899D03*
X54507899Y-101910742D03*
X54225056Y-102193585D03*
X53942214Y-102476427D03*
X53659371Y-102759270D03*
X53376528Y-103042113D03*
X53093686Y-103324955D03*
X52810843Y-103607798D03*
D55*
X52810843Y-104792202D03*
X53093686Y-105075045D03*
X53376528Y-105357887D03*
X53659371Y-105640730D03*
X53942214Y-105923573D03*
X54225056Y-106206415D03*
X54507899Y-106489258D03*
X54790742Y-106772101D03*
X55073585Y-107054944D03*
X55356427Y-107337786D03*
X55639270Y-107620629D03*
X55922113Y-107903472D03*
X56204955Y-108186314D03*
X56487798Y-108469157D03*
D56*
X57080000Y-104200000D03*
%TD*%
D14*
%TO.C,TP301*%
X99480000Y-55115000D03*
%TD*%
D44*
%TO.C,C108*%
X54430000Y-110490000D03*
X54430000Y-111450000D03*
%TD*%
D57*
%TO.C,L102*%
X56589999Y-130185000D03*
X56589999Y-129215000D03*
%TD*%
D21*
%TO.C,R801*%
X36020000Y-97979999D03*
X37040000Y-97979999D03*
%TD*%
%TO.C,R101*%
X62910001Y-110470000D03*
X63930001Y-110470000D03*
%TD*%
D14*
%TO.C,TP104*%
X46860000Y-107630000D03*
%TD*%
D31*
%TO.C,C510*%
X87460000Y-105920000D03*
X88420000Y-105920000D03*
%TD*%
D20*
%TO.C,C304*%
X102295000Y-59020000D03*
X102295000Y-57120000D03*
%TD*%
D22*
%TO.C,R608*%
X101125000Y-84775000D03*
X101125000Y-83755000D03*
%TD*%
D41*
%TO.C,C522*%
X86495000Y-105925000D03*
X86495000Y-104965000D03*
%TD*%
D42*
%TO.C,R302*%
X99507500Y-61105000D03*
X97682500Y-61105000D03*
%TD*%
D58*
%TO.C,SW102*%
X64630000Y-112750000D03*
X72630000Y-112750000D03*
%TD*%
D47*
%TO.C,D202*%
X93732500Y-64695000D03*
X93732500Y-62795000D03*
X91857500Y-63745000D03*
%TD*%
D22*
%TO.C,R104*%
X59365000Y-95895000D03*
X59365000Y-94875000D03*
%TD*%
D26*
%TO.C,L504*%
X90285000Y-104470000D03*
X91255000Y-104470000D03*
%TD*%
D19*
%TO.C,C508*%
X79440000Y-97220000D03*
X78480000Y-97220000D03*
%TD*%
D59*
%TO.C,Q607*%
X59815001Y-72150000D03*
X61085001Y-72150000D03*
X62355001Y-72150000D03*
X63625001Y-72150000D03*
X63625001Y-67000000D03*
X62355001Y-67000000D03*
X61085001Y-67000000D03*
X59815001Y-67000000D03*
%TD*%
D44*
%TO.C,C519*%
X97190000Y-105065000D03*
X97190000Y-106025000D03*
%TD*%
D21*
%TO.C,R102*%
X48560000Y-108910000D03*
X49580000Y-108910000D03*
%TD*%
D25*
%TO.C,C302*%
X97380000Y-53275001D03*
X97380000Y-55175001D03*
%TD*%
D60*
%TO.C,R602*%
X65707500Y-71310000D03*
X67532500Y-71310000D03*
%TD*%
D23*
%TO.C,R502*%
X97170000Y-106860000D03*
X97170000Y-107880000D03*
%TD*%
D43*
%TO.C,Q604*%
X98840000Y-85425000D03*
X98840000Y-84775000D03*
X98840000Y-84125000D03*
X96940000Y-84125000D03*
X96940000Y-84775000D03*
X96940000Y-85425000D03*
%TD*%
D58*
%TO.C,SW101*%
X64620000Y-117020000D03*
X72620000Y-117020000D03*
%TD*%
D21*
%TO.C,R619*%
X97860000Y-82780000D03*
X98880000Y-82780000D03*
%TD*%
D31*
%TO.C,C507*%
X81655000Y-97245000D03*
X82615000Y-97245000D03*
%TD*%
D25*
%TO.C,C301*%
X100210000Y-47430000D03*
X100210000Y-49330000D03*
%TD*%
D22*
%TO.C,R618*%
X104300001Y-82875001D03*
X104300001Y-81855001D03*
%TD*%
D61*
%TO.C,D302*%
X105220000Y-58270000D03*
X105220000Y-54270000D03*
%TD*%
D60*
%TO.C,R604*%
X65707500Y-73510000D03*
X67532500Y-73510000D03*
%TD*%
D23*
%TO.C,R610*%
X108765001Y-83800001D03*
X108765001Y-84820001D03*
%TD*%
D14*
%TO.C,TP101*%
X40750000Y-107630000D03*
%TD*%
D59*
%TO.C,Q602*%
X75575000Y-72150000D03*
X76845000Y-72150000D03*
X78115000Y-72150000D03*
X79385000Y-72150000D03*
X79385000Y-67000000D03*
X78115000Y-67000000D03*
X76845000Y-67000000D03*
X75575000Y-67000000D03*
%TD*%
D19*
%TO.C,C512*%
X91255000Y-103470000D03*
X90295000Y-103470000D03*
%TD*%
D62*
%TO.C,C106*%
X55604053Y-98665477D03*
X54925231Y-97986655D03*
%TD*%
D31*
%TO.C,C517*%
X92090000Y-106670000D03*
X93050000Y-106670000D03*
%TD*%
D41*
%TO.C,C503*%
X82535000Y-99440000D03*
X82535000Y-98480000D03*
%TD*%
D14*
%TO.C,TP302*%
X98725000Y-71925000D03*
%TD*%
D44*
%TO.C,C110*%
X53685000Y-96005000D03*
X53685000Y-96965000D03*
%TD*%
D21*
%TO.C,R304*%
X104005000Y-49555000D03*
X105025000Y-49555000D03*
%TD*%
D49*
%TO.C,R401*%
X95770000Y-62807500D03*
X95770000Y-64632500D03*
%TD*%
%TO.C,R601*%
X47530000Y-66257499D03*
X47530000Y-68082499D03*
%TD*%
D31*
%TO.C,C101*%
X65121569Y-98632617D03*
X66081569Y-98632617D03*
%TD*%
D52*
%TO.C,H201*%
X107530000Y-130400000D03*
X106124113Y-127005887D03*
D53*
X102730000Y-130400000D03*
D52*
X102730000Y-125600000D03*
X97930000Y-130400000D03*
X106124113Y-133794113D03*
X102730000Y-135200000D03*
X99335887Y-133794113D03*
X99335887Y-127005887D03*
%TD*%
D26*
%TO.C,C516*%
X85535000Y-107220000D03*
X86505000Y-107220000D03*
%TD*%
D63*
%TO.C,U501*%
X82470000Y-104440000D03*
X81820000Y-104440000D03*
X81170000Y-104440000D03*
X80520000Y-104440000D03*
X79870000Y-104440000D03*
X79220000Y-104440000D03*
D64*
X78395000Y-105265000D03*
X78395000Y-105915000D03*
X78395000Y-106565000D03*
X78395000Y-107215000D03*
X78395000Y-107865000D03*
X78395000Y-108515000D03*
D63*
X79220000Y-109340000D03*
X79870000Y-109340000D03*
X80520000Y-109340000D03*
X81170000Y-109340000D03*
X81820000Y-109340000D03*
X82470000Y-109340000D03*
D64*
X83295000Y-108515000D03*
X83295000Y-107865000D03*
X83295000Y-107215000D03*
X83295000Y-106565000D03*
X83295000Y-105915000D03*
X83295000Y-105265000D03*
D65*
X80845000Y-106890000D03*
%TD*%
D66*
%TO.C,Y501*%
X80735000Y-100394999D03*
X80735000Y-98644999D03*
X79335000Y-98644999D03*
X79335000Y-100394999D03*
%TD*%
D25*
%TO.C,C105*%
X59530000Y-110590000D03*
X59530000Y-112490000D03*
%TD*%
D21*
%TO.C,R107*%
X66830000Y-109750000D03*
X67850000Y-109750000D03*
%TD*%
D22*
%TO.C,R609*%
X101125000Y-82785000D03*
X101125000Y-81765000D03*
%TD*%
D59*
%TO.C,Q603*%
X81175000Y-72150000D03*
X82445000Y-72150000D03*
X83715000Y-72150000D03*
X84985000Y-72150000D03*
X84985000Y-67000000D03*
X83715000Y-67000000D03*
X82445000Y-67000000D03*
X81175000Y-67000000D03*
%TD*%
D23*
%TO.C,R616*%
X103270000Y-83800001D03*
X103270000Y-84820001D03*
%TD*%
D19*
%TO.C,C511*%
X88325000Y-103470000D03*
X87365000Y-103470000D03*
%TD*%
D41*
%TO.C,C111*%
X74370000Y-117020000D03*
X74370000Y-116060000D03*
%TD*%
D19*
%TO.C,C114*%
X58570000Y-114140000D03*
X57610000Y-114140000D03*
%TD*%
%TO.C,C801*%
X36850000Y-102770000D03*
X35890000Y-102770000D03*
%TD*%
D40*
%TO.C,R24*%
X91347500Y-78995000D03*
X97272500Y-78995000D03*
%TD*%
D31*
%TO.C,C104*%
X61040000Y-111450000D03*
X62000000Y-111450000D03*
%TD*%
D32*
%TO.C,R106*%
X62790000Y-115409999D03*
X61770000Y-115409999D03*
%TD*%
D14*
%TO.C,TP103*%
X44820000Y-107630000D03*
%TD*%
D19*
%TO.C,C117*%
X62780000Y-114450000D03*
X61820000Y-114450000D03*
%TD*%
D25*
%TO.C,C109*%
X55830000Y-110600000D03*
X55830000Y-112500000D03*
%TD*%
D67*
%TO.C,Y101*%
X53428858Y-114866777D03*
X51873223Y-113311142D03*
X50671142Y-114513223D03*
X52226777Y-116068858D03*
%TD*%
D41*
%TO.C,C505*%
X83115000Y-101740000D03*
X83115000Y-100780000D03*
%TD*%
D19*
%TO.C,C102*%
X50455000Y-106650000D03*
X49495000Y-106650000D03*
%TD*%
D68*
%TO.C,C107*%
X65119999Y-96665000D03*
X67019999Y-96665000D03*
%TD*%
D21*
%TO.C,R305*%
X105969998Y-49554999D03*
X106989998Y-49554999D03*
%TD*%
D25*
%TO.C,C303*%
X108295000Y-55494999D03*
X108295000Y-57394999D03*
%TD*%
D23*
%TO.C,R607*%
X100080000Y-83755001D03*
X100080000Y-84775001D03*
%TD*%
D59*
%TO.C,Q601*%
X69975000Y-72150000D03*
X71245000Y-72150000D03*
X72515000Y-72150000D03*
X73785000Y-72150000D03*
X73785000Y-67000000D03*
X72515000Y-67000000D03*
X71245000Y-67000000D03*
X69975000Y-67000000D03*
%TD*%
D19*
%TO.C,C115*%
X57550000Y-131150000D03*
X56590000Y-131150000D03*
%TD*%
M02*
