%TF.GenerationSoftware,KiCad,Pcbnew,(6.0.2)*%
%TF.CreationDate,2022-06-02T13:11:00-06:00*%
%TF.ProjectId,RGB-controller,5247422d-636f-46e7-9472-6f6c6c65722e,rev?*%
%TF.SameCoordinates,Original*%
%TF.FileFunction,Copper,L1,Top*%
%TF.FilePolarity,Positive*%
%FSLAX46Y46*%
G04 Gerber Fmt 4.6, Leading zero omitted, Abs format (unit mm)*
G04 Created by KiCad (PCBNEW (6.0.2)) date 2022-06-02 13:11:00*
%MOMM*%
%LPD*%
G01*
G04 APERTURE LIST*
G04 Aperture macros list*
%AMRoundRect*
0 Rectangle with rounded corners*
0 $1 Rounding radius*
0 $2 $3 $4 $5 $6 $7 $8 $9 X,Y pos of 4 corners*
0 Add a 4 corners polygon primitive as box body*
4,1,4,$2,$3,$4,$5,$6,$7,$8,$9,$2,$3,0*
0 Add four circle primitives for the rounded corners*
1,1,$1+$1,$2,$3*
1,1,$1+$1,$4,$5*
1,1,$1+$1,$6,$7*
1,1,$1+$1,$8,$9*
0 Add four rect primitives between the rounded corners*
20,1,$1+$1,$2,$3,$4,$5,0*
20,1,$1+$1,$4,$5,$6,$7,0*
20,1,$1+$1,$6,$7,$8,$9,0*
20,1,$1+$1,$8,$9,$2,$3,0*%
%AMRotRect*
0 Rectangle, with rotation*
0 The origin of the aperture is its center*
0 $1 length*
0 $2 width*
0 $3 Rotation angle, in degrees counterclockwise*
0 Add horizontal line*
21,1,$1,$2,0,0,$3*%
%AMOutline4P*
0 Free polygon, 4 corners , with rotation*
0 The origin of the aperture is its center*
0 number of corners: always 4*
0 $1 to $8 corner X, Y*
0 $9 Rotation angle, in degrees counterclockwise*
0 create outline with 4 corners*
4,1,4,$1,$2,$3,$4,$5,$6,$7,$8,$1,$2,$9*%
G04 Aperture macros list end*
%TA.AperFunction,EtchedComponent*%
%ADD10C,1.000000*%
%TD*%
%TA.AperFunction,SMDPad,CuDef*%
%ADD11RoundRect,0.250000X0.475000X-0.250000X0.475000X0.250000X-0.475000X0.250000X-0.475000X-0.250000X0*%
%TD*%
%TA.AperFunction,SMDPad,CuDef*%
%ADD12RoundRect,0.200000X-0.275000X0.200000X-0.275000X-0.200000X0.275000X-0.200000X0.275000X0.200000X0*%
%TD*%
%TA.AperFunction,SMDPad,CuDef*%
%ADD13RoundRect,0.140000X0.140000X0.170000X-0.140000X0.170000X-0.140000X-0.170000X0.140000X-0.170000X0*%
%TD*%
%TA.AperFunction,SMDPad,CuDef*%
%ADD14RoundRect,0.250000X0.250000X0.475000X-0.250000X0.475000X-0.250000X-0.475000X0.250000X-0.475000X0*%
%TD*%
%TA.AperFunction,SMDPad,CuDef*%
%ADD15RoundRect,0.140000X-0.140000X-0.170000X0.140000X-0.170000X0.140000X0.170000X-0.140000X0.170000X0*%
%TD*%
%TA.AperFunction,SMDPad,CuDef*%
%ADD16R,5.700000X1.600000*%
%TD*%
%TA.AperFunction,SMDPad,CuDef*%
%ADD17RoundRect,0.250000X-0.475000X0.250000X-0.475000X-0.250000X0.475000X-0.250000X0.475000X0.250000X0*%
%TD*%
%TA.AperFunction,SMDPad,CuDef*%
%ADD18RoundRect,0.140000X-0.021213X0.219203X-0.219203X0.021213X0.021213X-0.219203X0.219203X-0.021213X0*%
%TD*%
%TA.AperFunction,SMDPad,CuDef*%
%ADD19RoundRect,0.135000X0.135000X0.185000X-0.135000X0.185000X-0.135000X-0.185000X0.135000X-0.185000X0*%
%TD*%
%TA.AperFunction,SMDPad,CuDef*%
%ADD20C,1.000000*%
%TD*%
%TA.AperFunction,SMDPad,CuDef*%
%ADD21R,1.050000X2.200000*%
%TD*%
%TA.AperFunction,SMDPad,CuDef*%
%ADD22R,1.000000X1.050000*%
%TD*%
%TA.AperFunction,SMDPad,CuDef*%
%ADD23RoundRect,0.147500X-0.147500X-0.172500X0.147500X-0.172500X0.147500X0.172500X-0.147500X0.172500X0*%
%TD*%
%TA.AperFunction,SMDPad,CuDef*%
%ADD24RoundRect,0.135000X-0.135000X-0.185000X0.135000X-0.185000X0.135000X0.185000X-0.135000X0.185000X0*%
%TD*%
%TA.AperFunction,SMDPad,CuDef*%
%ADD25RoundRect,0.150000X0.825000X0.150000X-0.825000X0.150000X-0.825000X-0.150000X0.825000X-0.150000X0*%
%TD*%
%TA.AperFunction,SMDPad,CuDef*%
%ADD26RoundRect,0.250000X-0.362500X-1.425000X0.362500X-1.425000X0.362500X1.425000X-0.362500X1.425000X0*%
%TD*%
%TA.AperFunction,SMDPad,CuDef*%
%ADD27RoundRect,0.140000X-0.219203X-0.021213X-0.021213X-0.219203X0.219203X0.021213X0.021213X0.219203X0*%
%TD*%
%TA.AperFunction,SMDPad,CuDef*%
%ADD28RoundRect,0.200000X-0.200000X-0.275000X0.200000X-0.275000X0.200000X0.275000X-0.200000X0.275000X0*%
%TD*%
%TA.AperFunction,ComponentPad*%
%ADD29R,1.000000X1.000000*%
%TD*%
%TA.AperFunction,ComponentPad*%
%ADD30O,1.000000X1.000000*%
%TD*%
%TA.AperFunction,SMDPad,CuDef*%
%ADD31RoundRect,0.250000X-0.550000X1.250000X-0.550000X-1.250000X0.550000X-1.250000X0.550000X1.250000X0*%
%TD*%
%TA.AperFunction,SMDPad,CuDef*%
%ADD32RoundRect,0.135000X-0.035355X0.226274X-0.226274X0.035355X0.035355X-0.226274X0.226274X-0.035355X0*%
%TD*%
%TA.AperFunction,SMDPad,CuDef*%
%ADD33R,1.400000X1.200000*%
%TD*%
%TA.AperFunction,SMDPad,CuDef*%
%ADD34RoundRect,0.140000X0.170000X-0.140000X0.170000X0.140000X-0.170000X0.140000X-0.170000X-0.140000X0*%
%TD*%
%TA.AperFunction,SMDPad,CuDef*%
%ADD35RoundRect,0.550000X0.550000X3.936000X-0.550000X3.936000X-0.550000X-3.936000X0.550000X-3.936000X0*%
%TD*%
%TA.AperFunction,SMDPad,CuDef*%
%ADD36RoundRect,0.521850X0.521850X3.964150X-0.521850X3.964150X-0.521850X-3.964150X0.521850X-3.964150X0*%
%TD*%
%TA.AperFunction,SMDPad,CuDef*%
%ADD37RoundRect,0.135000X0.185000X-0.135000X0.185000X0.135000X-0.185000X0.135000X-0.185000X-0.135000X0*%
%TD*%
%TA.AperFunction,SMDPad,CuDef*%
%ADD38R,1.700000X0.650000*%
%TD*%
%TA.AperFunction,SMDPad,CuDef*%
%ADD39RoundRect,0.218750X0.256250X-0.218750X0.256250X0.218750X-0.256250X0.218750X-0.256250X-0.218750X0*%
%TD*%
%TA.AperFunction,SMDPad,CuDef*%
%ADD40R,2.200000X1.050000*%
%TD*%
%TA.AperFunction,SMDPad,CuDef*%
%ADD41R,1.050000X1.000000*%
%TD*%
%TA.AperFunction,SMDPad,CuDef*%
%ADD42RoundRect,0.250000X-0.450000X0.262500X-0.450000X-0.262500X0.450000X-0.262500X0.450000X0.262500X0*%
%TD*%
%TA.AperFunction,SMDPad,CuDef*%
%ADD43RoundRect,0.150000X-0.150000X0.587500X-0.150000X-0.587500X0.150000X-0.587500X0.150000X0.587500X0*%
%TD*%
%TA.AperFunction,SMDPad,CuDef*%
%ADD44RoundRect,0.147500X-0.172500X0.147500X-0.172500X-0.147500X0.172500X-0.147500X0.172500X0.147500X0*%
%TD*%
%TA.AperFunction,SMDPad,CuDef*%
%ADD45RoundRect,0.135000X-0.185000X0.135000X-0.185000X-0.135000X0.185000X-0.135000X0.185000X0.135000X0*%
%TD*%
%TA.AperFunction,ComponentPad*%
%ADD46C,1.000000*%
%TD*%
%TA.AperFunction,SMDPad,CuDef*%
%ADD47Outline4P,-0.350000X-0.400000X0.350000X-0.400000X0.050000X0.400000X-0.050000X0.400000X90.000000*%
%TD*%
%TA.AperFunction,ConnectorPad*%
%ADD48R,0.500000X0.500000*%
%TD*%
%TA.AperFunction,ComponentPad*%
%ADD49R,0.900000X0.500000*%
%TD*%
%TA.AperFunction,SMDPad,CuDef*%
%ADD50R,1.100000X1.100000*%
%TD*%
%TA.AperFunction,SMDPad,CuDef*%
%ADD51RoundRect,0.050000X0.353553X-0.282843X-0.282843X0.353553X-0.353553X0.282843X0.282843X-0.353553X0*%
%TD*%
%TA.AperFunction,SMDPad,CuDef*%
%ADD52RoundRect,0.050000X0.353553X0.282843X0.282843X0.353553X-0.353553X-0.282843X-0.282843X-0.353553X0*%
%TD*%
%TA.AperFunction,ComponentPad*%
%ADD53C,0.600000*%
%TD*%
%TA.AperFunction,SMDPad,CuDef*%
%ADD54RoundRect,0.144000X2.059095X0.000000X0.000000X2.059095X-2.059095X0.000000X0.000000X-2.059095X0*%
%TD*%
%TA.AperFunction,ComponentPad*%
%ADD55R,2.056000X2.056000*%
%TD*%
%TA.AperFunction,ComponentPad*%
%ADD56C,2.056000*%
%TD*%
%TA.AperFunction,SMDPad,CuDef*%
%ADD57RoundRect,0.150000X0.587500X0.150000X-0.587500X0.150000X-0.587500X-0.150000X0.587500X-0.150000X0*%
%TD*%
%TA.AperFunction,SMDPad,CuDef*%
%ADD58RoundRect,0.218750X0.218750X0.256250X-0.218750X0.256250X-0.218750X-0.256250X0.218750X-0.256250X0*%
%TD*%
%TA.AperFunction,SMDPad,CuDef*%
%ADD59RoundRect,0.140000X-0.170000X0.140000X-0.170000X-0.140000X0.170000X-0.140000X0.170000X0.140000X0*%
%TD*%
%TA.AperFunction,SMDPad,CuDef*%
%ADD60RoundRect,0.147500X0.147500X0.172500X-0.147500X0.172500X-0.147500X-0.172500X0.147500X-0.172500X0*%
%TD*%
%TA.AperFunction,SMDPad,CuDef*%
%ADD61R,2.290000X3.000000*%
%TD*%
%TA.AperFunction,SMDPad,CuDef*%
%ADD62R,2.000000X2.000000*%
%TD*%
%TA.AperFunction,SMDPad,CuDef*%
%ADD63RoundRect,0.200000X0.200000X0.275000X-0.200000X0.275000X-0.200000X-0.275000X0.200000X-0.275000X0*%
%TD*%
%TA.AperFunction,SMDPad,CuDef*%
%ADD64RoundRect,0.150000X0.150000X-0.725000X0.150000X0.725000X-0.150000X0.725000X-0.150000X-0.725000X0*%
%TD*%
%TA.AperFunction,SMDPad,CuDef*%
%ADD65RoundRect,0.140000X0.219203X0.021213X0.021213X0.219203X-0.219203X-0.021213X-0.021213X-0.219203X0*%
%TD*%
%TA.AperFunction,SMDPad,CuDef*%
%ADD66RoundRect,0.062500X-0.062500X0.362500X-0.062500X-0.362500X0.062500X-0.362500X0.062500X0.362500X0*%
%TD*%
%TA.AperFunction,SMDPad,CuDef*%
%ADD67RoundRect,0.062500X-0.362500X0.062500X-0.362500X-0.062500X0.362500X-0.062500X0.362500X0.062500X0*%
%TD*%
%TA.AperFunction,ComponentPad*%
%ADD68C,0.500000*%
%TD*%
%TA.AperFunction,SMDPad,CuDef*%
%ADD69R,3.400000X3.400000*%
%TD*%
%TA.AperFunction,SMDPad,CuDef*%
%ADD70R,1.000000X1.150000*%
%TD*%
%TA.AperFunction,SMDPad,CuDef*%
%ADD71R,1.200000X2.200000*%
%TD*%
%TA.AperFunction,SMDPad,CuDef*%
%ADD72R,5.800000X6.400000*%
%TD*%
%TA.AperFunction,SMDPad,CuDef*%
%ADD73R,0.650000X0.400000*%
%TD*%
%TA.AperFunction,ConnectorPad*%
%ADD74C,0.787400*%
%TD*%
%TA.AperFunction,SMDPad,CuDef*%
%ADD75RoundRect,0.100000X-0.100000X0.637500X-0.100000X-0.637500X0.100000X-0.637500X0.100000X0.637500X0*%
%TD*%
%TA.AperFunction,SMDPad,CuDef*%
%ADD76R,5.400000X2.850000*%
%TD*%
%TA.AperFunction,SMDPad,CuDef*%
%ADD77RotRect,1.400000X1.200000X135.000000*%
%TD*%
%TA.AperFunction,SMDPad,CuDef*%
%ADD78RoundRect,0.050000X-0.450000X-0.050000X0.450000X-0.050000X0.450000X0.050000X-0.450000X0.050000X0*%
%TD*%
%TA.AperFunction,SMDPad,CuDef*%
%ADD79RoundRect,0.050000X-0.050000X-0.450000X0.050000X-0.450000X0.050000X0.450000X-0.050000X0.450000X0*%
%TD*%
%TA.AperFunction,SMDPad,CuDef*%
%ADD80RoundRect,0.144000X-1.456000X-1.456000X1.456000X-1.456000X1.456000X1.456000X-1.456000X1.456000X0*%
%TD*%
%TA.AperFunction,ViaPad*%
%ADD81C,0.450000*%
%TD*%
%TA.AperFunction,ViaPad*%
%ADD82C,0.800000*%
%TD*%
%TA.AperFunction,Conductor*%
%ADD83C,0.200000*%
%TD*%
%TA.AperFunction,Conductor*%
%ADD84C,0.500000*%
%TD*%
%TA.AperFunction,Conductor*%
%ADD85C,0.293370*%
%TD*%
%TA.AperFunction,Conductor*%
%ADD86C,0.305800*%
%TD*%
%TA.AperFunction,Conductor*%
%ADD87C,1.000000*%
%TD*%
%TA.AperFunction,Conductor*%
%ADD88C,0.254000*%
%TD*%
%TA.AperFunction,Conductor*%
%ADD89C,0.250000*%
%TD*%
%TA.AperFunction,Conductor*%
%ADD90C,0.400000*%
%TD*%
%TA.AperFunction,Conductor*%
%ADD91C,1.500000*%
%TD*%
G04 APERTURE END LIST*
D10*
%TO.C,AE3*%
X108370000Y-109100000D02*
X103370000Y-109100000D01*
X108370000Y-103100000D02*
X103370000Y-103100000D01*
X108370000Y-101100000D02*
X103370000Y-101100000D01*
X97370000Y-97100000D02*
X108370000Y-97100000D01*
X108370000Y-99100000D02*
X103370000Y-99100000D01*
X108370000Y-113100000D02*
X103370000Y-113100000D01*
X108370000Y-111100000D02*
X103370000Y-111100000D01*
X108370000Y-115100000D02*
X103370000Y-115100000D01*
X108370000Y-107100000D02*
X103370000Y-107100000D01*
X108370000Y-105100000D02*
X103370000Y-105100000D01*
%TO.C,AE2*%
G36*
X34330000Y-116025000D02*
G01*
X34330000Y-113385000D01*
X32330000Y-113385000D01*
X32330000Y-116025000D01*
X29630000Y-116025000D01*
X29630000Y-113385000D01*
X27630000Y-113385000D01*
X27630000Y-116025000D01*
X24930000Y-116025000D01*
X24930000Y-111585000D01*
X25430000Y-111585000D01*
X25430000Y-115525000D01*
X27130000Y-115525000D01*
X27130000Y-112885000D01*
X30130000Y-112885000D01*
X30130000Y-115525000D01*
X31830000Y-115525000D01*
X31830000Y-112885000D01*
X34830000Y-112885000D01*
X34830000Y-115525000D01*
X36530000Y-115525000D01*
X36530000Y-110625000D01*
X37030000Y-110625000D01*
X37030000Y-115525000D01*
X38430000Y-115525000D01*
X38430000Y-110883158D01*
X38731778Y-110883158D01*
X38740218Y-110931417D01*
X38757112Y-110963643D01*
X38792372Y-110996313D01*
X38837682Y-111016408D01*
X38887267Y-111022982D01*
X38935353Y-111015092D01*
X38968245Y-110998186D01*
X39003185Y-110961416D01*
X39022847Y-110916622D01*
X39027583Y-110868215D01*
X39017742Y-110820605D01*
X38993674Y-110778203D01*
X38955731Y-110745419D01*
X38947819Y-110741065D01*
X38905156Y-110728957D01*
X38856637Y-110729700D01*
X38811122Y-110742600D01*
X38792511Y-110753213D01*
X38758868Y-110788447D01*
X38738309Y-110833632D01*
X38731778Y-110883158D01*
X38430000Y-110883158D01*
X38430000Y-110625000D01*
X39330000Y-110625000D01*
X39330000Y-116025000D01*
X34330000Y-116025000D01*
G37*
%TO.C,AE4*%
X108370000Y-87280000D02*
X103370000Y-87280000D01*
X108370000Y-91280000D02*
X103370000Y-91280000D01*
X108370000Y-85280000D02*
X103370000Y-85280000D01*
X97370000Y-95280000D02*
X108370000Y-95280000D01*
X108370000Y-77280000D02*
X103370000Y-77280000D01*
X108370000Y-83280000D02*
X103370000Y-83280000D01*
X108370000Y-81280000D02*
X103370000Y-81280000D01*
X108370000Y-79280000D02*
X103370000Y-79280000D01*
X108370000Y-93280000D02*
X103370000Y-93280000D01*
X108370000Y-89280000D02*
X103370000Y-89280000D01*
%TD*%
D11*
%TO.P,C2,1*%
%TO.N,+3V3*%
X85460001Y-91840000D03*
%TO.P,C2,2*%
%TO.N,GND*%
X85460001Y-89940000D03*
%TD*%
D12*
%TO.P,R21,1*%
%TO.N,Net-(D6-Pad1)*%
X67195000Y-74497499D03*
%TO.P,R21,2*%
%TO.N,GND*%
X67195000Y-76147499D03*
%TD*%
D13*
%TO.P,C65,1*%
%TO.N,Net-(C65-Pad1)*%
X93060000Y-101540000D03*
%TO.P,C65,2*%
%TO.N,Net-(C61-Pad1)*%
X92100000Y-101540000D03*
%TD*%
D14*
%TO.P,C32,1*%
%TO.N,/Power/BST*%
X83955001Y-70325000D03*
%TO.P,C32,2*%
%TO.N,/Power/SW*%
X82055001Y-70325000D03*
%TD*%
D15*
%TO.P,C24,1*%
%TO.N,/Pico Remote Proc/RP_XOUT*%
X39230000Y-79100000D03*
%TO.P,C24,2*%
%TO.N,GND*%
X40190000Y-79100000D03*
%TD*%
D16*
%TO.P,L6,1*%
%TO.N,/Power/SW*%
X73950000Y-70480000D03*
%TO.P,L6,2*%
%TO.N,+3V3*%
X73950000Y-75180000D03*
%TD*%
D17*
%TO.P,C5,1*%
%TO.N,+3V3*%
X51050000Y-55764999D03*
%TO.P,C5,2*%
%TO.N,GND*%
X51050000Y-57664999D03*
%TD*%
D18*
%TO.P,C22,1*%
%TO.N,/ESP32-S3/XTAL_N*%
X41857559Y-106231163D03*
%TO.P,C22,2*%
%TO.N,GND*%
X41178737Y-106909985D03*
%TD*%
D19*
%TO.P,R10,1*%
%TO.N,Net-(R10-Pad1)*%
X64123167Y-73185000D03*
%TO.P,R10,2*%
%TO.N,GND*%
X63103167Y-73185000D03*
%TD*%
D20*
%TO.P,TP17,1,1*%
%TO.N,/SX1276/DIO4*%
X75329999Y-100260000D03*
%TD*%
D14*
%TO.P,C16,1*%
%TO.N,+3V3*%
X48960000Y-86450000D03*
%TO.P,C16,2*%
%TO.N,GND*%
X47060000Y-86450000D03*
%TD*%
D21*
%TO.P,J2,1*%
%TO.N,GND*%
X91605000Y-91910001D03*
D22*
%TO.P,J2,2*%
%TO.N,Net-(J2-Pad2)*%
X93080000Y-93435001D03*
D21*
%TO.P,J2,3*%
%TO.N,GND*%
X94555000Y-91910001D03*
%TD*%
D23*
%TO.P,L7,1*%
%TO.N,/SX1276/VR_PA*%
X86245000Y-97290000D03*
%TO.P,L7,2*%
%TO.N,Net-(C56-Pad1)*%
X87215000Y-97290000D03*
%TD*%
D24*
%TO.P,R7,1*%
%TO.N,Net-(R5-Pad2)*%
X57833167Y-73185000D03*
%TO.P,R7,2*%
%TO.N,GND*%
X58853167Y-73185000D03*
%TD*%
D23*
%TO.P,L12,1*%
%TO.N,Net-(C61-Pad1)*%
X92095000Y-100430001D03*
%TO.P,L12,2*%
%TO.N,Net-(C65-Pad1)*%
X93065000Y-100430001D03*
%TD*%
D25*
%TO.P,U3,1,D*%
%TO.N,/GPIO_CAN_P*%
X48970000Y-58500000D03*
%TO.P,U3,2,GND*%
%TO.N,GND*%
X48970000Y-57230000D03*
%TO.P,U3,3,VCC*%
%TO.N,+3V3*%
X48970000Y-55960000D03*
%TO.P,U3,4,R*%
%TO.N,/GPIO_CAN_N*%
X48970000Y-54690000D03*
%TO.P,U3,5,Vref*%
%TO.N,unconnected-(U3-Pad5)*%
X44020000Y-54690000D03*
%TO.P,U3,6,CANL*%
%TO.N,/CAN_N*%
X44020000Y-55960000D03*
%TO.P,U3,7,CANH*%
%TO.N,/CAN_P*%
X44020000Y-57230000D03*
%TO.P,U3,8,Rs*%
%TO.N,/CAN_EN*%
X44020000Y-58500000D03*
%TD*%
D15*
%TO.P,C53,1*%
%TO.N,/SX1276/VR_PA*%
X86250000Y-95230000D03*
%TO.P,C53,2*%
%TO.N,GND*%
X87210000Y-95230000D03*
%TD*%
%TO.P,C21,1*%
%TO.N,GND*%
X46750000Y-107960000D03*
%TO.P,C21,2*%
%TO.N,Net-(C21-Pad2)*%
X47710000Y-107960000D03*
%TD*%
D26*
%TO.P,R45,1*%
%TO.N,/LEDA*%
X50207500Y-63945000D03*
%TO.P,R45,2*%
%TO.N,/Connectors/LEDA*%
X56132500Y-63945000D03*
%TD*%
D15*
%TO.P,C55,1*%
%TO.N,/SX1276/VR_PA*%
X86250000Y-102040000D03*
%TO.P,C55,2*%
%TO.N,GND*%
X87210000Y-102040000D03*
%TD*%
D20*
%TO.P,TP18,1,1*%
%TO.N,/SX1276/DIO5*%
X76970000Y-101170000D03*
%TD*%
D27*
%TO.P,C18,1*%
%TO.N,/ESP32-S3/XTAL_P*%
X46060589Y-103960589D03*
%TO.P,C18,2*%
%TO.N,GND*%
X46739411Y-104639411D03*
%TD*%
D28*
%TO.P,R34,1*%
%TO.N,+3V3*%
X72480000Y-64635000D03*
%TO.P,R34,2*%
%TO.N,/Power/FB*%
X74130000Y-64635000D03*
%TD*%
D29*
%TO.P,J6,1,Pin_1*%
%TO.N,GND*%
X26000000Y-96070000D03*
D30*
%TO.P,J6,2,Pin_2*%
%TO.N,/ESP32-S3/RXD*%
X26000000Y-97340000D03*
%TO.P,J6,3,Pin_3*%
%TO.N,/ESP32-S3/TXD*%
X26000000Y-98610000D03*
%TO.P,J6,4,Pin_4*%
%TO.N,unconnected-(J6-Pad4)*%
X26000000Y-99880000D03*
%TO.P,J6,5,Pin_5*%
%TO.N,/ESP32-S3/CTS*%
X26000000Y-101150000D03*
%TO.P,J6,6,Pin_6*%
%TO.N,/ESP32-S3/CHIP_PU*%
X26000000Y-102420000D03*
%TD*%
D31*
%TO.P,C47,1*%
%TO.N,/Connectors/VOUT*%
X88005000Y-68274999D03*
%TO.P,C47,2*%
%TO.N,GND*%
X88005000Y-72674999D03*
%TD*%
D13*
%TO.P,C27,1*%
%TO.N,+3V3*%
X80510000Y-102999999D03*
%TO.P,C27,2*%
%TO.N,GND*%
X79550000Y-102999999D03*
%TD*%
D32*
%TO.P,R26,1*%
%TO.N,/ESP32-S3/GPIO45*%
X43150624Y-101729376D03*
%TO.P,R26,2*%
%TO.N,GND*%
X42429376Y-102450624D03*
%TD*%
D33*
%TO.P,Y4,1,1*%
%TO.N,/Pico Remote Proc/RP_XIN*%
X37300000Y-82220000D03*
%TO.P,Y4,2,2*%
%TO.N,GND*%
X39500000Y-82220000D03*
%TO.P,Y4,3,3*%
%TO.N,/Pico Remote Proc/RP_XOUT*%
X39500000Y-80520000D03*
%TO.P,Y4,4,4*%
%TO.N,GND*%
X37300000Y-80520000D03*
%TD*%
D14*
%TO.P,C6,1*%
%TO.N,GND*%
X58790000Y-109570000D03*
%TO.P,C6,2*%
%TO.N,+3V3*%
X56890000Y-109570000D03*
%TD*%
D34*
%TO.P,C33,1*%
%TO.N,+1V1*%
X42330000Y-65660000D03*
%TO.P,C33,2*%
%TO.N,GND*%
X42330000Y-64700000D03*
%TD*%
D35*
%TO.P,F2,1*%
%TO.N,/Connectors/FUSE_OUT*%
X69200000Y-57024000D03*
D36*
%TO.P,F2,2*%
%TO.N,/Connectors/FUSE_IN*%
X55656300Y-57124000D03*
%TD*%
D19*
%TO.P,R31,1*%
%TO.N,/VSENSE*%
X87420000Y-75274999D03*
%TO.P,R31,2*%
%TO.N,GND*%
X86400000Y-75274999D03*
%TD*%
D37*
%TO.P,R44,1*%
%TO.N,Net-(C64-Pad1)*%
X93060000Y-95720000D03*
%TO.P,R44,2*%
%TO.N,Net-(J2-Pad2)*%
X93060000Y-94700000D03*
%TD*%
D14*
%TO.P,C46,1*%
%TO.N,/Motor-Control/CP1*%
X107185001Y-58335000D03*
%TO.P,C46,2*%
%TO.N,/Motor-Control/CP2*%
X105285001Y-58335000D03*
%TD*%
D38*
%TO.P,U5,1,~{CS}*%
%TO.N,/ESP32-S3/SPICS0*%
X35658163Y-87352086D03*
%TO.P,U5,2,DO(IO1)*%
%TO.N,/ESP32-S3/SPIQ*%
X35658163Y-88622086D03*
%TO.P,U5,3,IO2*%
%TO.N,/ESP32-S3/SPIWP*%
X35658163Y-89892086D03*
%TO.P,U5,4,GND*%
%TO.N,GND*%
X35658163Y-91162086D03*
%TO.P,U5,5,DI(IO0)*%
%TO.N,/ESP32-S3/SPID*%
X42958163Y-91162086D03*
%TO.P,U5,6,CLK*%
%TO.N,/ESP32-S3/SPICLK*%
X42958163Y-89892086D03*
%TO.P,U5,7,IO3*%
%TO.N,/ESP32-S3/SPIHD*%
X42958163Y-88622086D03*
%TO.P,U5,8,VCC*%
%TO.N,+3V3*%
X42958163Y-87352086D03*
%TD*%
D20*
%TO.P,TP13,1,1*%
%TO.N,/SX1276_IRQ*%
X75330000Y-97050000D03*
%TD*%
D13*
%TO.P,C50,1*%
%TO.N,+3V3*%
X35070000Y-68130000D03*
%TO.P,C50,2*%
%TO.N,GND*%
X34110000Y-68130000D03*
%TD*%
D23*
%TO.P,L9,1*%
%TO.N,Net-(C58-Pad2)*%
X89135000Y-98319999D03*
%TO.P,L9,2*%
%TO.N,Net-(C60-Pad1)*%
X90105000Y-98319999D03*
%TD*%
D13*
%TO.P,C49,1*%
%TO.N,+3V3*%
X35050000Y-73650000D03*
%TO.P,C49,2*%
%TO.N,GND*%
X34090000Y-73650000D03*
%TD*%
D21*
%TO.P,J10,1*%
%TO.N,GND*%
X94535001Y-106339999D03*
D22*
%TO.P,J10,2*%
%TO.N,Net-(J10-Pad2)*%
X93060001Y-104814999D03*
D21*
%TO.P,J10,3*%
%TO.N,GND*%
X91585001Y-106339999D03*
%TD*%
D34*
%TO.P,C36,1*%
%TO.N,/SX1276/VR_DIG*%
X83390000Y-94140000D03*
%TO.P,C36,2*%
%TO.N,GND*%
X83390000Y-93180000D03*
%TD*%
D39*
%TO.P,D6,1,K*%
%TO.N,Net-(D6-Pad1)*%
X67195000Y-72999999D03*
%TO.P,D6,2,A*%
%TO.N,+3V3*%
X67195000Y-71424999D03*
%TD*%
D34*
%TO.P,C57,1*%
%TO.N,Net-(C57-Pad1)*%
X88190000Y-100940000D03*
%TO.P,C57,2*%
%TO.N,GND*%
X88190000Y-99980000D03*
%TD*%
D15*
%TO.P,C54,1*%
%TO.N,/SX1276/VR_PA*%
X86250000Y-96260000D03*
%TO.P,C54,2*%
%TO.N,GND*%
X87210000Y-96260000D03*
%TD*%
D40*
%TO.P,J7,1*%
%TO.N,GND*%
X54075000Y-105185001D03*
D41*
%TO.P,J7,2*%
%TO.N,/ESP32-S3/RF_ANT_EXT*%
X52550000Y-106660001D03*
D40*
%TO.P,J7,3*%
%TO.N,GND*%
X54075000Y-108135001D03*
%TD*%
D32*
%TO.P,R27,1*%
%TO.N,/ESP32-S3/GPIO46*%
X43740000Y-102330000D03*
%TO.P,R27,2*%
%TO.N,GND*%
X43018752Y-103051248D03*
%TD*%
D19*
%TO.P,R29,1*%
%TO.N,/Connectors/GPI3*%
X64123167Y-75825000D03*
%TO.P,R29,2*%
%TO.N,Net-(Q6-Pad5)*%
X63103167Y-75825000D03*
%TD*%
D15*
%TO.P,C38,1*%
%TO.N,+3V3*%
X44750000Y-64610000D03*
%TO.P,C38,2*%
%TO.N,GND*%
X45710000Y-64610000D03*
%TD*%
D13*
%TO.P,C26,1*%
%TO.N,/Pico Remote Proc/RP_XIN*%
X38250000Y-79090000D03*
%TO.P,C26,2*%
%TO.N,GND*%
X37290000Y-79090000D03*
%TD*%
D14*
%TO.P,C43,1*%
%TO.N,/Motor-Control/VCP*%
X103455000Y-58335000D03*
%TO.P,C43,2*%
%TO.N,/Connectors/VOUT*%
X101555000Y-58335000D03*
%TD*%
D20*
%TO.P,TP3,1,1*%
%TO.N,/VSENSE*%
X87920000Y-77005000D03*
%TD*%
D28*
%TO.P,R39,1*%
%TO.N,/Motor-Control/V3P3OUT*%
X92215000Y-71780000D03*
%TO.P,R39,2*%
%TO.N,/MCPWM_RESET*%
X93865000Y-71780000D03*
%TD*%
D15*
%TO.P,C40,1*%
%TO.N,+3V3*%
X48250000Y-72060000D03*
%TO.P,C40,2*%
%TO.N,GND*%
X49210000Y-72060000D03*
%TD*%
D42*
%TO.P,R3,1*%
%TO.N,/CAN_N*%
X41262501Y-55472501D03*
%TO.P,R3,2*%
%TO.N,/CAN_P*%
X41262501Y-57297501D03*
%TD*%
D43*
%TO.P,D7,1,A1*%
%TO.N,/Connectors/USB_D_P*%
X34795000Y-55257500D03*
%TO.P,D7,2,A2*%
%TO.N,/Connectors/USB_D_N*%
X32895000Y-55257500D03*
%TO.P,D7,3,common*%
%TO.N,GND*%
X33845000Y-57132500D03*
%TD*%
D24*
%TO.P,R32,1*%
%TO.N,Net-(Q6-Pad5)*%
X63103167Y-76835000D03*
%TO.P,R32,2*%
%TO.N,Net-(R32-Pad2)*%
X64123167Y-76835000D03*
%TD*%
D20*
%TO.P,TP16,1,1*%
%TO.N,/SX1276/DIO3*%
X76970000Y-99600000D03*
%TD*%
D44*
%TO.P,L3,1*%
%TO.N,/ESP32-S3/LNA_IN*%
X49670000Y-105945000D03*
%TO.P,L3,2*%
%TO.N,/ESP32-S3/RF_ANT*%
X49670000Y-106915000D03*
%TD*%
D15*
%TO.P,C10,1*%
%TO.N,+3V3*%
X53140000Y-101260000D03*
%TO.P,C10,2*%
%TO.N,GND*%
X54100000Y-101260000D03*
%TD*%
D29*
%TO.P,J5,1,Pin_1*%
%TO.N,+3V3*%
X60155000Y-110850000D03*
D30*
%TO.P,J5,2,Pin_2*%
%TO.N,GND*%
X61425000Y-110850000D03*
%TO.P,J5,3,Pin_3*%
%TO.N,/SCLK*%
X62695000Y-110850000D03*
%TO.P,J5,4,Pin_4*%
%TO.N,/MISO*%
X63965000Y-110850000D03*
%TO.P,J5,5,Pin_5*%
%TO.N,/MOSI*%
X65235000Y-110850000D03*
%TD*%
D23*
%TO.P,L5,1*%
%TO.N,/SX1276/RFIO*%
X86245000Y-99610000D03*
%TO.P,L5,2*%
%TO.N,Net-(C57-Pad1)*%
X87215000Y-99610000D03*
%TD*%
D45*
%TO.P,R37,1*%
%TO.N,+3V3*%
X27040000Y-58810000D03*
%TO.P,R37,2*%
%TO.N,/Pico Remote Proc/RP_SS*%
X27040000Y-59830000D03*
%TD*%
D19*
%TO.P,R43,1*%
%TO.N,Net-(AE4-Pad1)*%
X94070000Y-95720000D03*
%TO.P,R43,2*%
%TO.N,Net-(C64-Pad1)*%
X93050000Y-95720000D03*
%TD*%
D37*
%TO.P,R38,1*%
%TO.N,+3V3*%
X43110000Y-79250000D03*
%TO.P,R38,2*%
%TO.N,/RP2040_EN*%
X43110000Y-78230000D03*
%TD*%
D46*
%TO.P,AE3,*%
%TO.N,*%
X103370000Y-107100000D03*
X103370000Y-101100000D03*
X108370000Y-115100000D03*
X108370000Y-99100000D03*
X108370000Y-107100000D03*
X108370000Y-101100000D03*
X103370000Y-109100000D03*
X103370000Y-113100000D03*
X108370000Y-113100000D03*
X108370000Y-105100000D03*
X103370000Y-115100000D03*
X108370000Y-103100000D03*
X108370000Y-109100000D03*
X103370000Y-99100000D03*
X103370000Y-103100000D03*
X108370000Y-97100000D03*
X103370000Y-105100000D03*
X103370000Y-111100000D03*
X108370000Y-111100000D03*
D47*
%TO.P,AE3,1,A*%
%TO.N,Net-(AE3-Pad1)*%
X96670000Y-97100000D03*
%TD*%
D24*
%TO.P,R15,1*%
%TO.N,+3V3*%
X33060000Y-87359999D03*
%TO.P,R15,2*%
%TO.N,/ESP32-S3/SPICS0*%
X34080000Y-87359999D03*
%TD*%
D19*
%TO.P,R12,1*%
%TO.N,Net-(Q6-Pad2)*%
X58853167Y-76835000D03*
%TO.P,R12,2*%
%TO.N,Net-(R12-Pad2)*%
X57833167Y-76835000D03*
%TD*%
%TO.P,R28,1*%
%TO.N,/ESP32-S3/RF_ANT_EXT*%
X50710000Y-108900000D03*
%TO.P,R28,2*%
%TO.N,/ESP32-S3/RF_ANT*%
X49690000Y-108900000D03*
%TD*%
D48*
%TO.P,AE2,1,A*%
%TO.N,Net-(AE2-Pad1)*%
X36780000Y-110875000D03*
D49*
%TO.P,AE2,2,Shield*%
%TO.N,GND*%
X38880000Y-110875000D03*
%TD*%
D34*
%TO.P,C62,1*%
%TO.N,Net-(C60-Pad1)*%
X91060000Y-97809998D03*
%TO.P,C62,2*%
%TO.N,GND*%
X91060000Y-96849998D03*
%TD*%
D50*
%TO.P,D5,1,K*%
%TO.N,/VIN*%
X105445000Y-55870000D03*
%TO.P,D5,2,A*%
%TO.N,/Connectors/IGNITION*%
X108245000Y-55870000D03*
%TD*%
D39*
%TO.P,D9,1,K*%
%TO.N,Net-(D9-Pad1)*%
X68985000Y-72994999D03*
%TO.P,D9,2,A*%
%TO.N,+3V3*%
X68985000Y-71419999D03*
%TD*%
D34*
%TO.P,C29,1*%
%TO.N,+1V1*%
X38770000Y-63480000D03*
%TO.P,C29,2*%
%TO.N,GND*%
X38770000Y-62520000D03*
%TD*%
D51*
%TO.P,U4,1,LNA_IN*%
%TO.N,/ESP32-S3/LNA_IN*%
X49772202Y-99269157D03*
%TO.P,U4,2,VDD3P3*%
%TO.N,+3V3*%
X50055045Y-98986314D03*
%TO.P,U4,3,VDD3P3*%
X50337887Y-98703472D03*
%TO.P,U4,4,CHIP_PU*%
%TO.N,/ESP32-S3/CHIP_PU*%
X50620730Y-98420629D03*
%TO.P,U4,5,GPIO0*%
%TO.N,/CS1*%
X50903573Y-98137786D03*
%TO.P,U4,6,GPIO1*%
%TO.N,/SX1276_RESET*%
X51186415Y-97854944D03*
%TO.P,U4,7,GPIO2*%
%TO.N,/SX1276_IRQ*%
X51469258Y-97572101D03*
%TO.P,U4,8,GPIO3*%
%TO.N,/MCPWM0_INA*%
X51752101Y-97289258D03*
%TO.P,U4,9,GPIO4*%
%TO.N,/MCPWM0_ENA*%
X52034944Y-97006415D03*
%TO.P,U4,10,GPIO5*%
%TO.N,/MCPWM0_INB*%
X52317786Y-96723573D03*
%TO.P,U4,11,GPIO6*%
%TO.N,/MCPWM0_ENB*%
X52600629Y-96440730D03*
%TO.P,U4,12,GPIO7*%
%TO.N,/MCPWM1_INA*%
X52883472Y-96157887D03*
%TO.P,U4,13,GPIO8*%
%TO.N,/MCPWM1_ENA*%
X53166314Y-95875045D03*
%TO.P,U4,14,GPIO9*%
%TO.N,unconnected-(U4-Pad14)*%
X53449157Y-95592202D03*
D52*
%TO.P,U4,15,GPIO10*%
%TO.N,/MCPWM1_INB*%
X53449157Y-94407798D03*
%TO.P,U4,16,GPIO11*%
%TO.N,/MCPWM1_ENB*%
X53166314Y-94124955D03*
%TO.P,U4,17,GPIO12*%
%TO.N,/MCPWM_SLEEP*%
X52883472Y-93842113D03*
%TO.P,U4,18,GPIO13*%
%TO.N,/VSENSE*%
X52600629Y-93559270D03*
%TO.P,U4,19,GPIO14*%
%TO.N,/RP2040_EN*%
X52317786Y-93276427D03*
%TO.P,U4,20,VDD3P3_RTC*%
%TO.N,+3V3*%
X52034944Y-92993585D03*
%TO.P,U4,21,XTAL_32K_P*%
%TO.N,/ESP32-S3/RTC_XTAL_P*%
X51752101Y-92710742D03*
%TO.P,U4,22,XTAL_32K_N*%
%TO.N,/ESP32-S3/RTC_XTAL_N*%
X51469258Y-92427899D03*
%TO.P,U4,23,GPIO17*%
%TO.N,/GPIO_CAN_P*%
X51186415Y-92145056D03*
%TO.P,U4,24,GPIO18*%
%TO.N,/GPIO_CAN_N*%
X50903573Y-91862214D03*
%TO.P,U4,25,GPIO19*%
%TO.N,/ESP32-S3/GPIO19*%
X50620730Y-91579371D03*
%TO.P,U4,26,GPIO20*%
%TO.N,/ESP32-S3/GPIO20*%
X50337887Y-91296528D03*
%TO.P,U4,27,GPIO21*%
%TO.N,/CAN_EN*%
X50055045Y-91013686D03*
%TO.P,U4,28,SPICS1*%
%TO.N,/MCPWM_FAULT*%
X49772202Y-90730843D03*
D51*
%TO.P,U4,29,VDD_SPI*%
%TO.N,+3V3*%
X48587798Y-90730843D03*
%TO.P,U4,30,SPIHD*%
%TO.N,/ESP32-S3/SPIHD*%
X48304955Y-91013686D03*
%TO.P,U4,31,SPIWP*%
%TO.N,/ESP32-S3/SPIWP*%
X48022113Y-91296528D03*
%TO.P,U4,32,SPICS0*%
%TO.N,/ESP32-S3/SPICS0*%
X47739270Y-91579371D03*
%TO.P,U4,33,SPICLK*%
%TO.N,/ESP32-S3/SPICLK*%
X47456427Y-91862214D03*
%TO.P,U4,34,SPIQ*%
%TO.N,/ESP32-S3/SPIQ*%
X47173585Y-92145056D03*
%TO.P,U4,35,SPID*%
%TO.N,/ESP32-S3/SPID*%
X46890742Y-92427899D03*
%TO.P,U4,36,SPICLK_N*%
%TO.N,unconnected-(U4-Pad36)*%
X46607899Y-92710742D03*
%TO.P,U4,37,SPICLK_P*%
%TO.N,unconnected-(U4-Pad37)*%
X46325056Y-92993585D03*
%TO.P,U4,38,GPIO33*%
%TO.N,/CS2*%
X46042214Y-93276427D03*
%TO.P,U4,39,GPIO34*%
%TO.N,/ESP32-S3/GPIO34*%
X45759371Y-93559270D03*
%TO.P,U4,40,GPIO35*%
%TO.N,/MOSI*%
X45476528Y-93842113D03*
%TO.P,U4,41,GPIO36*%
%TO.N,/SCLK*%
X45193686Y-94124955D03*
%TO.P,U4,42,GPIO37*%
%TO.N,/MISO*%
X44910843Y-94407798D03*
D52*
%TO.P,U4,43,GPIO38*%
%TO.N,unconnected-(U4-Pad43)*%
X44910843Y-95592202D03*
%TO.P,U4,44,MTCK*%
%TO.N,/ESP32-S3/MTCK*%
X45193686Y-95875045D03*
%TO.P,U4,45,MTDO*%
%TO.N,/ESP32-S3/MTDO*%
X45476528Y-96157887D03*
%TO.P,U4,46,VDD3P3_CPU*%
%TO.N,+3V3*%
X45759371Y-96440730D03*
%TO.P,U4,47,MTDI*%
%TO.N,/ESP32-S3/MTDI*%
X46042214Y-96723573D03*
%TO.P,U4,48,MTMS*%
%TO.N,/ESP32-S3/MTMS*%
X46325056Y-97006415D03*
%TO.P,U4,49,U0TXD*%
%TO.N,Net-(R6-Pad2)*%
X46607899Y-97289258D03*
%TO.P,U4,50,U0RXD*%
%TO.N,/ESP32-S3/TXD*%
X46890742Y-97572101D03*
%TO.P,U4,51,GPIO45*%
%TO.N,/ESP32-S3/GPIO45*%
X47173585Y-97854944D03*
%TO.P,U4,52,GPIO46*%
%TO.N,/ESP32-S3/GPIO46*%
X47456427Y-98137786D03*
%TO.P,U4,53,XTAL_N*%
%TO.N,/ESP32-S3/XTAL_N*%
X47739270Y-98420629D03*
%TO.P,U4,54,XTAL_P*%
%TO.N,/ESP32-S3/XTAL_P*%
X48022113Y-98703472D03*
%TO.P,U4,55,VDDA1*%
%TO.N,+3V3*%
X48304955Y-98986314D03*
%TO.P,U4,56,VDDA2*%
X48587798Y-99269157D03*
D53*
%TO.P,U4,57,GND*%
%TO.N,GND*%
X50983122Y-95000000D03*
X49180000Y-96803122D03*
X49180000Y-93196878D03*
D54*
X49180000Y-95000000D03*
D53*
X47376878Y-95000000D03*
%TD*%
D55*
%TO.P,J4,A1,A1*%
%TO.N,/Connectors/GPO1*%
X84025000Y-45040000D03*
D56*
%TO.P,J4,A2,A2*%
%TO.N,/Connectors/GPO2*%
X88215000Y-45040000D03*
%TO.P,J4,A3,A3*%
%TO.N,/Connectors/GPO3*%
X92405000Y-45040000D03*
%TO.P,J4,A4,A4*%
%TO.N,/Connectors/LEDA*%
X96595000Y-45040000D03*
%TO.P,J4,A5,A5*%
%TO.N,GND*%
X100785000Y-45040000D03*
%TO.P,J4,A6,A6*%
%TO.N,/Connectors/IGNITION*%
X104975000Y-45040000D03*
%TO.P,J4,A7,A7*%
%TO.N,/Connectors/MOTOR1_OUT1*%
X104975000Y-51390000D03*
%TO.P,J4,A8,A8*%
%TO.N,/Connectors/MOTOR1_OUT2*%
X100785000Y-51390000D03*
%TO.P,J4,A9,A9*%
%TO.N,/Connectors/MOTOR2_OUT1*%
X96595000Y-51390000D03*
%TO.P,J4,A10,A10*%
%TO.N,/Connectors/MOTOR2_OUT2*%
X92405000Y-51390000D03*
%TO.P,J4,A11,A11*%
%TO.N,/Connectors/VOUT*%
X88215000Y-51390000D03*
%TO.P,J4,A12,A12*%
%TO.N,/Connectors/FUSE_IN*%
X84025000Y-51390000D03*
D55*
%TO.P,J4,B1,B1*%
%TO.N,/CAN_P*%
X49975000Y-51390000D03*
D56*
%TO.P,J4,B2,B2*%
%TO.N,/Connectors/GPI2*%
X45785000Y-51390000D03*
%TO.P,J4,B3,B3*%
%TO.N,/Connectors/GPI4*%
X41595000Y-51390000D03*
%TO.P,J4,B4,B4*%
%TO.N,/Connectors/USB_D_P*%
X37405000Y-51390000D03*
%TO.P,J4,B5,B5*%
%TO.N,/Connectors/USB_D_N*%
X33215000Y-51390000D03*
%TO.P,J4,B6,B6*%
%TO.N,GND*%
X29025000Y-51390000D03*
%TO.P,J4,B7,B7*%
%TO.N,unconnected-(J4-PadB7)*%
X29025000Y-45040000D03*
%TO.P,J4,B8,B8*%
%TO.N,unconnected-(J4-PadB8)*%
X33215000Y-45040000D03*
%TO.P,J4,B9,B9*%
%TO.N,unconnected-(J4-PadB9)*%
X37405000Y-45040000D03*
%TO.P,J4,B10,B10*%
%TO.N,/Connectors/GPI3*%
X41595000Y-45040000D03*
%TO.P,J4,B11,B11*%
%TO.N,/Connectors/GPI1*%
X45785000Y-45040000D03*
%TO.P,J4,B12,B12*%
%TO.N,/CAN_N*%
X49975000Y-45040000D03*
%TD*%
D57*
%TO.P,D8,1,A1*%
%TO.N,/CAN_P*%
X38670000Y-57345000D03*
%TO.P,D8,2,A2*%
%TO.N,/CAN_N*%
X38670000Y-55445000D03*
%TO.P,D8,3,common*%
%TO.N,GND*%
X36795000Y-56395000D03*
%TD*%
D11*
%TO.P,C39,1*%
%TO.N,+3V3*%
X80495000Y-74155000D03*
%TO.P,C39,2*%
%TO.N,GND*%
X80495000Y-72255000D03*
%TD*%
D58*
%TO.P,D4,1,K*%
%TO.N,Net-(D4-Pad1)*%
X44680002Y-80564999D03*
%TO.P,D4,2,A*%
%TO.N,+3V3*%
X43105002Y-80564999D03*
%TD*%
D59*
%TO.P,C13,1*%
%TO.N,+3V3*%
X46530000Y-101290000D03*
%TO.P,C13,2*%
%TO.N,GND*%
X46530000Y-102250000D03*
%TD*%
D60*
%TO.P,L4,1*%
%TO.N,/ESP32-S3/RF_ANT*%
X49675000Y-107940000D03*
%TO.P,L4,2*%
%TO.N,Net-(C21-Pad2)*%
X48705000Y-107940000D03*
%TD*%
D24*
%TO.P,R4,1*%
%TO.N,/ESP32-S3/CHIP_PU*%
X55010001Y-101270000D03*
%TO.P,R4,2*%
%TO.N,+3V3*%
X56030001Y-101270000D03*
%TD*%
D25*
%TO.P,U8,1,BST*%
%TO.N,/Power/BST*%
X81380000Y-68510000D03*
%TO.P,U8,2,Vin*%
%TO.N,/VIN*%
X81380000Y-67240000D03*
%TO.P,U8,3,EN*%
X81380000Y-65970000D03*
%TO.P,U8,4,PGOOD*%
%TO.N,/Power/PGOOD*%
X81380000Y-64700000D03*
%TO.P,U8,5,FB*%
%TO.N,/Power/FB*%
X76430000Y-64700000D03*
%TO.P,U8,6,NC*%
%TO.N,unconnected-(U8-Pad6)*%
X76430000Y-65970000D03*
%TO.P,U8,7,GND*%
%TO.N,GND*%
X76430000Y-67240000D03*
%TO.P,U8,8,SW*%
%TO.N,/Power/SW*%
X76430000Y-68510000D03*
D61*
%TO.P,U8,9,PADGND*%
%TO.N,GND*%
X78905000Y-66605000D03*
%TD*%
D12*
%TO.P,R48,1*%
%TO.N,/External-IO/VOUT_EN*%
X85370000Y-65835000D03*
%TO.P,R48,2*%
%TO.N,/Connectors/FUSE_OUT*%
X85370000Y-67485000D03*
%TD*%
D62*
%TO.P,SW5,1,1*%
%TO.N,GND*%
X31422679Y-77910000D03*
%TO.P,SW5,2,2*%
%TO.N,/RP2040_EN*%
X31422679Y-85910000D03*
%TD*%
D59*
%TO.P,C56,1*%
%TO.N,Net-(C56-Pad1)*%
X88190000Y-97290001D03*
%TO.P,C56,2*%
%TO.N,GND*%
X88190000Y-98250001D03*
%TD*%
D62*
%TO.P,SW3,1,1*%
%TO.N,/ESP32-S3/GPIO0_BOOTSTRAP*%
X59530000Y-103150000D03*
%TO.P,SW3,2,2*%
%TO.N,GND*%
X67530000Y-103150000D03*
%TD*%
D28*
%TO.P,R19,1*%
%TO.N,Net-(D3-Pad1)*%
X46572502Y-82289999D03*
%TO.P,R19,2*%
%TO.N,/Pico Remote Proc/LED_RED*%
X48222502Y-82289999D03*
%TD*%
D23*
%TO.P,L11,1*%
%TO.N,Net-(C60-Pad1)*%
X92085000Y-96750000D03*
%TO.P,L11,2*%
%TO.N,Net-(C64-Pad1)*%
X93055000Y-96750000D03*
%TD*%
D34*
%TO.P,C34,1*%
%TO.N,/SX1276/RADIO_XTAL_N*%
X80620000Y-89620000D03*
%TO.P,C34,2*%
%TO.N,GND*%
X80620000Y-88660000D03*
%TD*%
D24*
%TO.P,R6,1*%
%TO.N,/ESP32-S3/RXD*%
X40660000Y-99710000D03*
%TO.P,R6,2*%
%TO.N,Net-(R6-Pad2)*%
X41680000Y-99710000D03*
%TD*%
D20*
%TO.P,TP14,1,1*%
%TO.N,/SX1276/DIO1*%
X76970000Y-98029999D03*
%TD*%
D24*
%TO.P,R22,1*%
%TO.N,Net-(AE2-Pad1)*%
X48653223Y-108902807D03*
%TO.P,R22,2*%
%TO.N,/ESP32-S3/RF_ANT*%
X49673223Y-108902807D03*
%TD*%
D62*
%TO.P,SW2,1,1*%
%TO.N,/ESP32-S3/CHIP_PU*%
X59520000Y-107420000D03*
%TO.P,SW2,2,2*%
%TO.N,Net-(C37-Pad1)*%
X67520000Y-107420000D03*
%TD*%
D59*
%TO.P,C63,1*%
%TO.N,Net-(C61-Pad1)*%
X91070000Y-100430000D03*
%TO.P,C63,2*%
%TO.N,GND*%
X91070000Y-101390000D03*
%TD*%
D24*
%TO.P,R2,1*%
%TO.N,/Connectors/GPI2*%
X57833167Y-71145000D03*
%TO.P,R2,2*%
%TO.N,Net-(Q5-Pad2)*%
X58853167Y-71145000D03*
%TD*%
D12*
%TO.P,R47,1*%
%TO.N,/GPIO_GPO4*%
X69395000Y-64920000D03*
%TO.P,R47,2*%
%TO.N,GND*%
X69395000Y-66570000D03*
%TD*%
D34*
%TO.P,C3,1*%
%TO.N,/SX1276/RADIO_XTAL_P*%
X83040000Y-89620000D03*
%TO.P,C3,2*%
%TO.N,GND*%
X83040000Y-88660000D03*
%TD*%
D39*
%TO.P,D2,1,K*%
%TO.N,Net-(D2-Pad1)*%
X65545000Y-73007500D03*
%TO.P,D2,2,A*%
%TO.N,+3V3*%
X65545000Y-71432500D03*
%TD*%
D63*
%TO.P,R23,1*%
%TO.N,/VIN*%
X82620000Y-63305000D03*
%TO.P,R23,2*%
%TO.N,/Power/PGOOD*%
X80970000Y-63305000D03*
%TD*%
D28*
%TO.P,R35,1*%
%TO.N,/Power/FB*%
X76920000Y-63295000D03*
%TO.P,R35,2*%
%TO.N,GND*%
X78570000Y-63295000D03*
%TD*%
D37*
%TO.P,R17,1*%
%TO.N,/ESP32-S3/GPIO20*%
X51380000Y-79840000D03*
%TO.P,R17,2*%
%TO.N,/Connectors/USB_D_N*%
X51380000Y-78820000D03*
%TD*%
D45*
%TO.P,R36,1*%
%TO.N,/Pico Remote Proc/RP_SS*%
X33422679Y-66170000D03*
%TO.P,R36,2*%
%TO.N,/Pico Remote Proc/USB_BOOT*%
X33422679Y-67190000D03*
%TD*%
D19*
%TO.P,R42,1*%
%TO.N,/Connectors/CONN_RP_USB_D_N*%
X45410000Y-63570000D03*
%TO.P,R42,2*%
%TO.N,/Pico Remote Proc/RP_USB_D_N*%
X44390000Y-63570000D03*
%TD*%
D38*
%TO.P,U7,1,~{CS}*%
%TO.N,/Pico Remote Proc/RP_SS*%
X28580000Y-59825000D03*
%TO.P,U7,2,DO(IO1)*%
%TO.N,/Pico Remote Proc/RP_SD1*%
X28580000Y-61095000D03*
%TO.P,U7,3,IO2*%
%TO.N,/Pico Remote Proc/RP_SD2*%
X28580000Y-62365000D03*
%TO.P,U7,4,GND*%
%TO.N,GND*%
X28580000Y-63635000D03*
%TO.P,U7,5,DI(IO0)*%
%TO.N,/Pico Remote Proc/RP_SD0*%
X35880000Y-63635000D03*
%TO.P,U7,6,CLK*%
%TO.N,/Pico Remote Proc/RP_SCLK*%
X35880000Y-62365000D03*
%TO.P,U7,7,IO3*%
%TO.N,/Pico Remote Proc/RP_SD3*%
X35880000Y-61095000D03*
%TO.P,U7,8,VCC*%
%TO.N,+3V3*%
X35880000Y-59825000D03*
%TD*%
D19*
%TO.P,R33,1*%
%TO.N,Net-(R32-Pad2)*%
X64123167Y-77905000D03*
%TO.P,R33,2*%
%TO.N,GND*%
X63103167Y-77905000D03*
%TD*%
D12*
%TO.P,R46,1*%
%TO.N,Net-(D9-Pad1)*%
X68985000Y-74532499D03*
%TO.P,R46,2*%
%TO.N,/MCPWM_FAULT*%
X68985000Y-76182499D03*
%TD*%
D19*
%TO.P,R8,1*%
%TO.N,/Connectors/GPI1*%
X64123167Y-71145000D03*
%TO.P,R8,2*%
%TO.N,Net-(Q5-Pad5)*%
X63103167Y-71145000D03*
%TD*%
D28*
%TO.P,R20,1*%
%TO.N,Net-(D4-Pad1)*%
X46572502Y-80564999D03*
%TO.P,R20,2*%
%TO.N,/Pico Remote Proc/LED_GREEN*%
X48222502Y-80564999D03*
%TD*%
D34*
%TO.P,C66,1*%
%TO.N,Net-(C64-Pad1)*%
X94110000Y-97800000D03*
%TO.P,C66,2*%
%TO.N,GND*%
X94110000Y-96840000D03*
%TD*%
D20*
%TO.P,TP15,1,1*%
%TO.N,/SX1276/DIO2*%
X75330000Y-98655000D03*
%TD*%
D64*
%TO.P,Q3,1,S*%
%TO.N,GND*%
X78880000Y-60220001D03*
%TO.P,Q3,2,G*%
%TO.N,/GPIO_GPO3*%
X80150000Y-60220001D03*
%TO.P,Q3,3,S*%
%TO.N,GND*%
X81420000Y-60220001D03*
%TO.P,Q3,4,G*%
%TO.N,/GPIO_GPO4*%
X82690000Y-60220001D03*
%TO.P,Q3,5,D*%
%TO.N,/External-IO/VOUT_EN*%
X82690000Y-55070001D03*
%TO.P,Q3,6,D*%
X81420000Y-55070001D03*
%TO.P,Q3,7,D*%
%TO.N,/Connectors/GPO3*%
X80150000Y-55070001D03*
%TO.P,Q3,8,D*%
X78880000Y-55070001D03*
%TD*%
D15*
%TO.P,C4,1*%
%TO.N,+3V3*%
X44683164Y-87347088D03*
%TO.P,C4,2*%
%TO.N,GND*%
X45643164Y-87347088D03*
%TD*%
D23*
%TO.P,L10,1*%
%TO.N,Net-(C59-Pad2)*%
X89155000Y-99890000D03*
%TO.P,L10,2*%
%TO.N,Net-(C61-Pad1)*%
X90125000Y-99890000D03*
%TD*%
D13*
%TO.P,C64,1*%
%TO.N,Net-(C64-Pad1)*%
X93050000Y-97810000D03*
%TO.P,C64,2*%
%TO.N,Net-(C60-Pad1)*%
X92090000Y-97810000D03*
%TD*%
D19*
%TO.P,R41,1*%
%TO.N,/Connectors/CONN_RP_USB_D_P*%
X45410000Y-62520000D03*
%TO.P,R41,2*%
%TO.N,/Pico Remote Proc/RP_USB_D_P*%
X44390000Y-62520000D03*
%TD*%
D65*
%TO.P,C14,1*%
%TO.N,+3V3*%
X47704053Y-89465477D03*
%TO.P,C14,2*%
%TO.N,GND*%
X47025231Y-88786655D03*
%TD*%
D34*
%TO.P,C30,1*%
%TO.N,+3V3*%
X83820000Y-91840000D03*
%TO.P,C30,2*%
%TO.N,GND*%
X83820000Y-90880000D03*
%TD*%
D12*
%TO.P,R18,1*%
%TO.N,Net-(D2-Pad1)*%
X65545000Y-74500001D03*
%TO.P,R18,2*%
%TO.N,GND*%
X65545000Y-76150001D03*
%TD*%
D46*
%TO.P,AE4,*%
%TO.N,*%
X103370000Y-93280000D03*
X108370000Y-89280000D03*
X108370000Y-85280000D03*
X108370000Y-77280000D03*
X108370000Y-95280000D03*
X103370000Y-91280000D03*
X103370000Y-87280000D03*
X103370000Y-79280000D03*
X103370000Y-81280000D03*
X108370000Y-83280000D03*
X108370000Y-93280000D03*
X103370000Y-89280000D03*
X103370000Y-83280000D03*
X108370000Y-91280000D03*
X108370000Y-87280000D03*
X108370000Y-79280000D03*
X103370000Y-85280000D03*
X103370000Y-77280000D03*
X108370000Y-81280000D03*
D47*
%TO.P,AE4,1,A*%
%TO.N,Net-(AE4-Pad1)*%
X96670000Y-95280000D03*
%TD*%
D59*
%TO.P,C48,1*%
%TO.N,+3V3*%
X40320000Y-76480000D03*
%TO.P,C48,2*%
%TO.N,GND*%
X40320000Y-77440000D03*
%TD*%
D24*
%TO.P,R9,1*%
%TO.N,Net-(Q5-Pad5)*%
X63103167Y-72155000D03*
%TO.P,R9,2*%
%TO.N,Net-(R10-Pad1)*%
X64123167Y-72155000D03*
%TD*%
D15*
%TO.P,C58,1*%
%TO.N,Net-(C56-Pad1)*%
X88180000Y-96250000D03*
%TO.P,C58,2*%
%TO.N,Net-(C58-Pad2)*%
X89140000Y-96250000D03*
%TD*%
D34*
%TO.P,C7,1*%
%TO.N,+3V3*%
X53862617Y-89528432D03*
%TO.P,C7,2*%
%TO.N,GND*%
X53862617Y-88568432D03*
%TD*%
D23*
%TO.P,L8,1*%
%TO.N,/SX1276/VR_PA*%
X86245000Y-100940000D03*
%TO.P,L8,2*%
%TO.N,Net-(C57-Pad1)*%
X87215000Y-100940000D03*
%TD*%
D19*
%TO.P,R30,1*%
%TO.N,/VIN*%
X89390000Y-75274999D03*
%TO.P,R30,2*%
%TO.N,/VSENSE*%
X88370000Y-75274999D03*
%TD*%
%TO.P,R24,1*%
%TO.N,Net-(AE3-Pad1)*%
X94090000Y-99429999D03*
%TO.P,R24,2*%
%TO.N,Net-(C65-Pad1)*%
X93070000Y-99429999D03*
%TD*%
D66*
%TO.P,U2,1,VBAT1*%
%TO.N,+3V3*%
X83755000Y-96840000D03*
%TO.P,U2,2,VR_ANA*%
%TO.N,/SX1276/VR_ANA*%
X83105000Y-96840000D03*
%TO.P,U2,3,VR_DIG*%
%TO.N,/SX1276/VR_DIG*%
X82455000Y-96840000D03*
%TO.P,U2,4,XTA*%
%TO.N,/SX1276/RADIO_XTAL_P*%
X81805000Y-96840000D03*
%TO.P,U2,5,XTB*%
%TO.N,/SX1276/RADIO_XTAL_N*%
X81155000Y-96840000D03*
%TO.P,U2,6,RESET*%
%TO.N,/SX1276_RESET*%
X80505000Y-96840000D03*
D67*
%TO.P,U2,7,DIO0*%
%TO.N,/SX1276_IRQ*%
X79680000Y-97665000D03*
%TO.P,U2,8,DIO1/DCLK*%
%TO.N,/SX1276/DIO1*%
X79680000Y-98315000D03*
%TO.P,U2,9,DIO2/DATA*%
%TO.N,/SX1276/DIO2*%
X79680000Y-98965000D03*
%TO.P,U2,10,DIO3*%
%TO.N,/SX1276/DIO3*%
X79680000Y-99615000D03*
%TO.P,U2,11,DIO4*%
%TO.N,/SX1276/DIO4*%
X79680000Y-100265000D03*
%TO.P,U2,12,DIO5*%
%TO.N,/SX1276/DIO5*%
X79680000Y-100915000D03*
D66*
%TO.P,U2,13,VBAT2*%
%TO.N,+3V3*%
X80505000Y-101740000D03*
%TO.P,U2,14,GND*%
%TO.N,GND*%
X81155000Y-101740000D03*
%TO.P,U2,15,SCK*%
%TO.N,/SCLK*%
X81805000Y-101740000D03*
%TO.P,U2,16,MISO*%
%TO.N,/MISO*%
X82455000Y-101740000D03*
%TO.P,U2,17,MOSI*%
%TO.N,/MOSI*%
X83105000Y-101740000D03*
%TO.P,U2,18,NSS*%
%TO.N,/CS1*%
X83755000Y-101740000D03*
D67*
%TO.P,U2,19,RXTX*%
%TO.N,unconnected-(U2-Pad19)*%
X84580000Y-100915000D03*
%TO.P,U2,20,GND*%
%TO.N,GND*%
X84580000Y-100265000D03*
%TO.P,U2,21,RFIO*%
%TO.N,/SX1276/RFIO*%
X84580000Y-99615000D03*
%TO.P,U2,22,GND*%
%TO.N,GND*%
X84580000Y-98965000D03*
%TO.P,U2,23,PA_BOOST*%
%TO.N,/SX1276/PA_BOOST*%
X84580000Y-98315000D03*
%TO.P,U2,24,VR_PA*%
%TO.N,/SX1276/VR_PA*%
X84580000Y-97665000D03*
D68*
%TO.P,U2,25,EP*%
%TO.N,GND*%
X83580000Y-100740000D03*
X80680000Y-99290000D03*
X80680000Y-100740000D03*
X82130000Y-100740000D03*
D69*
X82130000Y-99290000D03*
D68*
X80680000Y-97840000D03*
X82130000Y-99290000D03*
X83580000Y-99290000D03*
X83580000Y-97840000D03*
X82130000Y-97840000D03*
%TD*%
D70*
%TO.P,Y5,1,1*%
%TO.N,/SX1276/RADIO_XTAL_P*%
X82020000Y-92794999D03*
%TO.P,Y5,2,2*%
%TO.N,GND*%
X82020000Y-91044999D03*
%TO.P,Y5,3,3*%
%TO.N,/SX1276/RADIO_XTAL_N*%
X80620000Y-91044999D03*
%TO.P,Y5,4,4*%
%TO.N,GND*%
X80620000Y-92794999D03*
%TD*%
D17*
%TO.P,C12,1*%
%TO.N,+3V3*%
X51630000Y-101390000D03*
%TO.P,C12,2*%
%TO.N,GND*%
X51630000Y-103290000D03*
%TD*%
D24*
%TO.P,R25,1*%
%TO.N,/ESP32-S3/CTS*%
X61730000Y-100150000D03*
%TO.P,R25,2*%
%TO.N,/ESP32-S3/GPIO0_BOOTSTRAP*%
X62750000Y-100150000D03*
%TD*%
D37*
%TO.P,R16,1*%
%TO.N,/ESP32-S3/GPIO19*%
X52430000Y-79840000D03*
%TO.P,R16,2*%
%TO.N,/Connectors/USB_D_P*%
X52430000Y-78820000D03*
%TD*%
D19*
%TO.P,R5,1*%
%TO.N,Net-(Q5-Pad2)*%
X58853167Y-72155000D03*
%TO.P,R5,2*%
%TO.N,Net-(R5-Pad2)*%
X57833167Y-72155000D03*
%TD*%
D24*
%TO.P,R11,1*%
%TO.N,/Connectors/GPI4*%
X57833167Y-75825000D03*
%TO.P,R11,2*%
%TO.N,Net-(Q6-Pad2)*%
X58853167Y-75825000D03*
%TD*%
D45*
%TO.P,R40,1*%
%TO.N,Net-(C65-Pad1)*%
X93060000Y-102500000D03*
%TO.P,R40,2*%
%TO.N,Net-(J10-Pad2)*%
X93060000Y-103520000D03*
%TD*%
D15*
%TO.P,C52,1*%
%TO.N,+3V3*%
X44750000Y-67840000D03*
%TO.P,C52,2*%
%TO.N,GND*%
X45710000Y-67840000D03*
%TD*%
D59*
%TO.P,C31,1*%
%TO.N,+1V1*%
X41350000Y-76480000D03*
%TO.P,C31,2*%
%TO.N,GND*%
X41350000Y-77440000D03*
%TD*%
D13*
%TO.P,C60,1*%
%TO.N,Net-(C60-Pad1)*%
X90100000Y-97280001D03*
%TO.P,C60,2*%
%TO.N,Net-(C58-Pad2)*%
X89140000Y-97280001D03*
%TD*%
D24*
%TO.P,R13,1*%
%TO.N,Net-(R12-Pad2)*%
X57833167Y-77905000D03*
%TO.P,R13,2*%
%TO.N,GND*%
X58853167Y-77905000D03*
%TD*%
D13*
%TO.P,C61,1*%
%TO.N,Net-(C61-Pad1)*%
X90120000Y-100940000D03*
%TO.P,C61,2*%
%TO.N,Net-(C59-Pad2)*%
X89160000Y-100940000D03*
%TD*%
D34*
%TO.P,C37,1*%
%TO.N,Net-(C37-Pad1)*%
X69270000Y-107420000D03*
%TO.P,C37,2*%
%TO.N,GND*%
X69270000Y-106460000D03*
%TD*%
D13*
%TO.P,C17,1*%
%TO.N,GND*%
X50670000Y-104940000D03*
%TO.P,C17,2*%
%TO.N,/ESP32-S3/LNA_IN*%
X49710000Y-104940000D03*
%TD*%
D11*
%TO.P,C25,1*%
%TO.N,GND*%
X83685000Y-67864999D03*
%TO.P,C25,2*%
%TO.N,/VIN*%
X83685000Y-65964999D03*
%TD*%
D71*
%TO.P,Q7,1,G*%
%TO.N,/External-IO/VOUT_EN*%
X84830001Y-63700000D03*
D72*
%TO.P,Q7,2,D*%
%TO.N,/Connectors/VOUT*%
X87110001Y-57400000D03*
D71*
%TO.P,Q7,3,S*%
%TO.N,/Connectors/FUSE_OUT*%
X89390001Y-63700000D03*
%TD*%
D34*
%TO.P,C51,1*%
%TO.N,+3V3*%
X40630000Y-63480000D03*
%TO.P,C51,2*%
%TO.N,GND*%
X40630000Y-62520000D03*
%TD*%
D73*
%TO.P,Q6,1,E1*%
%TO.N,GND*%
X59983167Y-76105000D03*
%TO.P,Q6,2,B1*%
%TO.N,Net-(Q6-Pad2)*%
X59983167Y-76755000D03*
%TO.P,Q6,3,C2*%
%TO.N,/GPIO_GPI3*%
X59983167Y-77405000D03*
%TO.P,Q6,4,E2*%
%TO.N,GND*%
X61883167Y-77405000D03*
%TO.P,Q6,5,B2*%
%TO.N,Net-(Q6-Pad5)*%
X61883167Y-76755000D03*
%TO.P,Q6,6,C1*%
%TO.N,/GPIO_GPI4*%
X61883167Y-76105000D03*
%TD*%
D15*
%TO.P,C11,1*%
%TO.N,+3V3*%
X53140000Y-102250000D03*
%TO.P,C11,2*%
%TO.N,GND*%
X54100000Y-102250000D03*
%TD*%
%TO.P,C35,1*%
%TO.N,+3V3*%
X44750000Y-65870000D03*
%TO.P,C35,2*%
%TO.N,GND*%
X45710000Y-65870000D03*
%TD*%
D73*
%TO.P,Q5,1,E1*%
%TO.N,GND*%
X59983167Y-71505000D03*
%TO.P,Q5,2,B1*%
%TO.N,Net-(Q5-Pad2)*%
X59983167Y-72155000D03*
%TO.P,Q5,3,C2*%
%TO.N,/GPIO_GPI1*%
X59983167Y-72805000D03*
%TO.P,Q5,4,E2*%
%TO.N,GND*%
X61883167Y-72805000D03*
%TO.P,Q5,5,B2*%
%TO.N,Net-(Q5-Pad5)*%
X61883167Y-72155000D03*
%TO.P,Q5,6,C1*%
%TO.N,/GPIO_GPI2*%
X61883167Y-71505000D03*
%TD*%
D20*
%TO.P,TP7,1,1*%
%TO.N,+3V3*%
X72065000Y-77585000D03*
%TD*%
D58*
%TO.P,D3,1,K*%
%TO.N,Net-(D3-Pad1)*%
X44680002Y-82250001D03*
%TO.P,D3,2,A*%
%TO.N,+3V3*%
X43105002Y-82250001D03*
%TD*%
D11*
%TO.P,C41,1*%
%TO.N,+3V3*%
X78425000Y-74155000D03*
%TO.P,C41,2*%
%TO.N,GND*%
X78425000Y-72255000D03*
%TD*%
D74*
%TO.P,TC2,1,VCC*%
%TO.N,unconnected-(TC2-Pad1)*%
X32020000Y-98515000D03*
%TO.P,TC2,2,SWDIO*%
%TO.N,/ESP32-S3/CTS*%
X32020000Y-99785000D03*
%TO.P,TC2,3,NRESET*%
%TO.N,/ESP32-S3/RXD*%
X30750000Y-98515000D03*
%TO.P,TC2,4,SWCLK*%
%TO.N,/ESP32-S3/TXD*%
X30750000Y-99785000D03*
%TO.P,TC2,5,GND*%
%TO.N,GND*%
X29480000Y-98515000D03*
%TO.P,TC2,6,SWO*%
%TO.N,/ESP32-S3/CHIP_PU*%
X29480000Y-99785000D03*
%TD*%
D59*
%TO.P,C67,1*%
%TO.N,Net-(C65-Pad1)*%
X94119999Y-100430000D03*
%TO.P,C67,2*%
%TO.N,GND*%
X94119999Y-101390000D03*
%TD*%
D75*
%TO.P,U10,1,CP1*%
%TO.N,/Motor-Control/CP1*%
X102701500Y-62362500D03*
%TO.P,U10,2,CP2*%
%TO.N,/Motor-Control/CP2*%
X102051500Y-62362500D03*
%TO.P,U10,3,VCP*%
%TO.N,/Motor-Control/VCP*%
X101401500Y-62362500D03*
%TO.P,U10,4,VM-1*%
%TO.N,/Connectors/VOUT*%
X100751500Y-62362500D03*
%TO.P,U10,5,OUTPUT1*%
%TO.N,/Connectors/MOTOR1_OUT1*%
X100101500Y-62362500D03*
%TO.P,U10,6,SRC12*%
%TO.N,GND*%
X99451500Y-62362500D03*
%TO.P,U10,7,OUTPUT2*%
%TO.N,/Connectors/MOTOR1_OUT2*%
X98801500Y-62362500D03*
%TO.P,U10,8,OUTPUT3*%
%TO.N,/Connectors/MOTOR2_OUT1*%
X98151500Y-62362500D03*
%TO.P,U10,9,SRC34*%
%TO.N,GND*%
X97501500Y-62362500D03*
%TO.P,U10,10,OUTPUT4*%
%TO.N,/Connectors/MOTOR2_OUT2*%
X96851500Y-62362500D03*
%TO.P,U10,11,VM*%
%TO.N,/Connectors/VOUT*%
X96201500Y-62362500D03*
%TO.P,U10,12,NC*%
%TO.N,unconnected-(U10-Pad12)*%
X95551500Y-62362500D03*
%TO.P,U10,13,NC*%
%TO.N,unconnected-(U10-Pad13)*%
X94901500Y-62362500D03*
%TO.P,U10,14,VNEG-2*%
%TO.N,GND*%
X94251500Y-62362500D03*
%TO.P,U10,15,V3P3OUT*%
%TO.N,/Motor-Control/V3P3OUT*%
X94251500Y-68087500D03*
%TO.P,U10,16,NRESET*%
%TO.N,/MCPWM_RESET*%
X94901500Y-68087500D03*
%TO.P,U10,17,NSLEEP*%
%TO.N,/MCPWM_SLEEP*%
X95551500Y-68087500D03*
%TO.P,U10,18,NFAULT*%
%TO.N,/MCPWM_FAULT*%
X96201500Y-68087500D03*
%TO.P,U10,19,LGND*%
%TO.N,GND*%
X96851500Y-68087500D03*
%TO.P,U10,20,EN4*%
%TO.N,/MCPWM1_ENB*%
X97501500Y-68087500D03*
%TO.P,U10,21,IN4*%
%TO.N,/MCPWM1_INB*%
X98151500Y-68087500D03*
%TO.P,U10,22,EN3*%
%TO.N,/MCPWM1_ENA*%
X98801500Y-68087500D03*
%TO.P,U10,23,IN3*%
%TO.N,/MCPWM1_INA*%
X99451500Y-68087500D03*
%TO.P,U10,24,EN2*%
%TO.N,/MCPWM0_ENB*%
X100101500Y-68087500D03*
%TO.P,U10,25,IN2*%
%TO.N,/MCPWM0_INB*%
X100751500Y-68087500D03*
%TO.P,U10,26,EN1*%
%TO.N,/MCPWM0_ENA*%
X101401500Y-68087500D03*
%TO.P,U10,27,IN1*%
%TO.N,/MCPWM0_INA*%
X102051500Y-68087500D03*
%TO.P,U10,28,VNEG*%
%TO.N,GND*%
X102701500Y-68087500D03*
D53*
%TO.P,U10,29,VNEG*%
X99276500Y-64100000D03*
X97676500Y-64100000D03*
X99276500Y-66350000D03*
X100876500Y-64100000D03*
X97676500Y-66350000D03*
X96076500Y-66350000D03*
D76*
X98476500Y-65225000D03*
D53*
X96076500Y-64100000D03*
X100876500Y-66350000D03*
%TD*%
D19*
%TO.P,R14,1*%
%TO.N,/CAN_EN*%
X44445000Y-60095000D03*
%TO.P,R14,2*%
%TO.N,GND*%
X43425000Y-60095000D03*
%TD*%
D14*
%TO.P,C42,1*%
%TO.N,/Motor-Control/V3P3OUT*%
X93765000Y-70004999D03*
%TO.P,C42,2*%
%TO.N,GND*%
X91865000Y-70004999D03*
%TD*%
D15*
%TO.P,C59,1*%
%TO.N,Net-(C57-Pad1)*%
X88200000Y-101960000D03*
%TO.P,C59,2*%
%TO.N,Net-(C59-Pad2)*%
X89160000Y-101960000D03*
%TD*%
D14*
%TO.P,C44,1*%
%TO.N,/Connectors/VOUT*%
X95745000Y-58335000D03*
%TO.P,C44,2*%
%TO.N,GND*%
X93845000Y-58335000D03*
%TD*%
D17*
%TO.P,C15,1*%
%TO.N,+3V3*%
X47930000Y-101400000D03*
%TO.P,C15,2*%
%TO.N,GND*%
X47930000Y-103300000D03*
%TD*%
D77*
%TO.P,Y2,1,1*%
%TO.N,/ESP32-S3/XTAL_P*%
X45528858Y-105666777D03*
%TO.P,Y2,2,2*%
%TO.N,GND*%
X43973223Y-104111142D03*
%TO.P,Y2,3,3*%
%TO.N,/ESP32-S3/XTAL_N*%
X42771142Y-105313223D03*
%TO.P,Y2,4,4*%
%TO.N,GND*%
X44326777Y-106868858D03*
%TD*%
D34*
%TO.P,C45,1*%
%TO.N,/SX1276/VR_ANA*%
X84400000Y-94140000D03*
%TO.P,C45,2*%
%TO.N,GND*%
X84400000Y-93180000D03*
%TD*%
D29*
%TO.P,J3,1,Pin_1*%
%TO.N,unconnected-(J3-Pad1)*%
X47610000Y-61150000D03*
D30*
%TO.P,J3,2,Pin_2*%
%TO.N,/Connectors/CONN_RP_USB_D_P*%
X47610000Y-62420000D03*
%TO.P,J3,3,Pin_3*%
%TO.N,/Connectors/CONN_RP_USB_D_N*%
X47610000Y-63690000D03*
%TO.P,J3,4,Pin_4*%
%TO.N,GND*%
X47610000Y-64960000D03*
%TD*%
D59*
%TO.P,C9,1*%
%TO.N,+3V3*%
X37730000Y-59810000D03*
%TO.P,C9,2*%
%TO.N,GND*%
X37730000Y-60770000D03*
%TD*%
D62*
%TO.P,SW4,1,1*%
%TO.N,GND*%
X31422679Y-75490000D03*
%TO.P,SW4,2,2*%
%TO.N,/Pico Remote Proc/USB_BOOT*%
X31422679Y-67490000D03*
%TD*%
D13*
%TO.P,C8,1*%
%TO.N,+3V3*%
X42555000Y-97450000D03*
%TO.P,C8,2*%
%TO.N,GND*%
X41595000Y-97450000D03*
%TD*%
D64*
%TO.P,Q2,1,S*%
%TO.N,GND*%
X73540000Y-60220000D03*
%TO.P,Q2,2,G*%
%TO.N,/GPIO_GPO1*%
X74810000Y-60220000D03*
%TO.P,Q2,3,S*%
%TO.N,GND*%
X76080000Y-60220000D03*
%TO.P,Q2,4,G*%
%TO.N,/GPIO_GPO2*%
X77350000Y-60220000D03*
%TO.P,Q2,5,D*%
%TO.N,/Connectors/GPO2*%
X77350000Y-55070000D03*
%TO.P,Q2,6,D*%
X76080000Y-55070000D03*
%TO.P,Q2,7,D*%
%TO.N,/Connectors/GPO1*%
X74810000Y-55070000D03*
%TO.P,Q2,8,D*%
X73540000Y-55070000D03*
%TD*%
D23*
%TO.P,L2,1*%
%TO.N,/SX1276/PA_BOOST*%
X86245000Y-98310000D03*
%TO.P,L2,2*%
%TO.N,Net-(C56-Pad1)*%
X87215000Y-98310000D03*
%TD*%
D13*
%TO.P,C20,1*%
%TO.N,GND*%
X50720000Y-109890000D03*
%TO.P,C20,2*%
%TO.N,/ESP32-S3/RF_ANT*%
X49760000Y-109890000D03*
%TD*%
D78*
%TO.P,U11,1,IOVDD*%
%TO.N,+3V3*%
X37052500Y-68450000D03*
%TO.P,U11,2,GPIO0*%
%TO.N,/MOSI*%
X37052500Y-68850000D03*
%TO.P,U11,3,GPIO1*%
%TO.N,/CS2*%
X37052500Y-69250000D03*
%TO.P,U11,4,GPIO2*%
%TO.N,/SCLK*%
X37052500Y-69650000D03*
%TO.P,U11,5,GPIO3*%
%TO.N,/MISO*%
X37052500Y-70050000D03*
%TO.P,U11,6,GPIO4*%
%TO.N,unconnected-(U11-Pad6)*%
X37052500Y-70450000D03*
%TO.P,U11,7,GPIO5*%
%TO.N,unconnected-(U11-Pad7)*%
X37052500Y-70850000D03*
%TO.P,U11,8,GPIO6*%
%TO.N,unconnected-(U11-Pad8)*%
X37052500Y-71250000D03*
%TO.P,U11,9,GPIO7*%
%TO.N,unconnected-(U11-Pad9)*%
X37052500Y-71650000D03*
%TO.P,U11,10,IOVDD*%
%TO.N,+3V3*%
X37052500Y-72050000D03*
%TO.P,U11,11,GPIO8*%
%TO.N,unconnected-(U11-Pad11)*%
X37052500Y-72450000D03*
%TO.P,U11,12,GPIO9*%
%TO.N,unconnected-(U11-Pad12)*%
X37052500Y-72850000D03*
%TO.P,U11,13,GPIO10*%
%TO.N,unconnected-(U11-Pad13)*%
X37052500Y-73250000D03*
%TO.P,U11,14,GPIO11*%
%TO.N,unconnected-(U11-Pad14)*%
X37052500Y-73650000D03*
D79*
%TO.P,U11,15,GPIO12*%
%TO.N,unconnected-(U11-Pad15)*%
X37890000Y-74487500D03*
%TO.P,U11,16,GPIO13*%
%TO.N,unconnected-(U11-Pad16)*%
X38290000Y-74487500D03*
%TO.P,U11,17,GPIO14*%
%TO.N,unconnected-(U11-Pad17)*%
X38690000Y-74487500D03*
%TO.P,U11,18,GPIO15*%
%TO.N,unconnected-(U11-Pad18)*%
X39090000Y-74487500D03*
%TO.P,U11,19,TESTEN*%
%TO.N,GND*%
X39490000Y-74487500D03*
%TO.P,U11,20,XIN*%
%TO.N,/Pico Remote Proc/RP_XIN*%
X39890000Y-74487500D03*
%TO.P,U11,21,XOUT*%
%TO.N,/Pico Remote Proc/RP_XOUT*%
X40290000Y-74487500D03*
%TO.P,U11,22,IOVDD*%
%TO.N,+3V3*%
X40690000Y-74487500D03*
%TO.P,U11,23,DVDD*%
%TO.N,+1V1*%
X41090000Y-74487500D03*
%TO.P,U11,24,SWCLK*%
%TO.N,unconnected-(U11-Pad24)*%
X41490000Y-74487500D03*
%TO.P,U11,25,SWD*%
%TO.N,unconnected-(U11-Pad25)*%
X41890000Y-74487500D03*
%TO.P,U11,26,RUN*%
%TO.N,/RP2040_EN*%
X42290000Y-74487500D03*
%TO.P,U11,27,GPIO16*%
%TO.N,/Pico Remote Proc/LED_GREEN*%
X42690000Y-74487500D03*
%TO.P,U11,28,GPIO17*%
%TO.N,/Pico Remote Proc/LED_RED*%
X43090000Y-74487500D03*
D78*
%TO.P,U11,29,GPIO18*%
%TO.N,/GPIO_GPI4*%
X43927500Y-73650000D03*
%TO.P,U11,30,GPIO19*%
%TO.N,/GPIO_GPI3*%
X43927500Y-73250000D03*
%TO.P,U11,31,GPIO20*%
%TO.N,/GPIO_GPI2*%
X43927500Y-72850000D03*
%TO.P,U11,32,GPIO21*%
%TO.N,/GPIO_GPI1*%
X43927500Y-72450000D03*
%TO.P,U11,33,IOVDD*%
%TO.N,+3V3*%
X43927500Y-72050000D03*
%TO.P,U11,34,GPIO22*%
%TO.N,unconnected-(U11-Pad34)*%
X43927500Y-71650000D03*
%TO.P,U11,35,GPIO23*%
%TO.N,/GPIO_GPO5*%
X43927500Y-71250000D03*
%TO.P,U11,36,GPIO24*%
%TO.N,/GPIO_GPO6*%
X43927500Y-70850000D03*
%TO.P,U11,37,GPIO25*%
%TO.N,/GPIO_GPO4*%
X43927500Y-70450000D03*
%TO.P,U11,38,GPIO26_ADC0*%
%TO.N,/GPIO_GPO3*%
X43927500Y-70050000D03*
%TO.P,U11,39,GPIO27_ADC1*%
%TO.N,/GPIO_GPO2*%
X43927500Y-69650000D03*
%TO.P,U11,40,GPIO28_ADC2*%
%TO.N,/GPIO_GPO1*%
X43927500Y-69250000D03*
%TO.P,U11,41,GPIO29_ADC3*%
%TO.N,/LEDA*%
X43927500Y-68850000D03*
%TO.P,U11,42,IOVDD*%
%TO.N,+3V3*%
X43927500Y-68450000D03*
D79*
%TO.P,U11,43,ADC_AVDD*%
X43090000Y-67612500D03*
%TO.P,U11,44,VREG_IN*%
X42690000Y-67612500D03*
%TO.P,U11,45,VREG_VOUT*%
%TO.N,+1V1*%
X42290000Y-67612500D03*
%TO.P,U11,46,USB_DM*%
%TO.N,/Pico Remote Proc/RP_USB_D_N*%
X41890000Y-67612500D03*
%TO.P,U11,47,USB_DP*%
%TO.N,/Pico Remote Proc/RP_USB_D_P*%
X41490000Y-67612500D03*
%TO.P,U11,48,USB_VDD*%
%TO.N,+3V3*%
X41090000Y-67612500D03*
%TO.P,U11,49,IOVDD*%
X40690000Y-67612500D03*
%TO.P,U11,50,DVDD*%
%TO.N,+1V1*%
X40290000Y-67612500D03*
%TO.P,U11,51,QSPI_SD3*%
%TO.N,/Pico Remote Proc/RP_SD3*%
X39890000Y-67612500D03*
%TO.P,U11,52,QSPI_SCLK*%
%TO.N,/Pico Remote Proc/RP_SCLK*%
X39490000Y-67612500D03*
%TO.P,U11,53,QSPI_SD0*%
%TO.N,/Pico Remote Proc/RP_SD0*%
X39090000Y-67612500D03*
%TO.P,U11,54,QSPI_SD2*%
%TO.N,/Pico Remote Proc/RP_SD2*%
X38690000Y-67612500D03*
%TO.P,U11,55,QSPI_SD1*%
%TO.N,/Pico Remote Proc/RP_SD1*%
X38290000Y-67612500D03*
%TO.P,U11,56,QSPI_SS*%
%TO.N,/Pico Remote Proc/RP_SS*%
X37890000Y-67612500D03*
D53*
%TO.P,U11,57,GND*%
%TO.N,GND*%
X39215000Y-72325000D03*
X41765000Y-69775000D03*
X41765000Y-72325000D03*
X39215000Y-69775000D03*
D80*
X40490000Y-71050000D03*
%TD*%
D81*
%TO.N,GND*%
X44692445Y-110191622D03*
X88220000Y-102970000D03*
X48820000Y-104970000D03*
D82*
X30010000Y-63640000D03*
X86960000Y-111970000D03*
X32790000Y-76660000D03*
D81*
X48372445Y-110271622D03*
X42770000Y-60095000D03*
X42125107Y-77477909D03*
X89180000Y-99100000D03*
D82*
X74530000Y-67270000D03*
D81*
X60711431Y-76063264D03*
X41572445Y-108351622D03*
X92070000Y-102330000D03*
X89130000Y-95220000D03*
D82*
X73530000Y-67270000D03*
D81*
X90760000Y-103360000D03*
X51630000Y-104090000D03*
X87890000Y-93490000D03*
D82*
X93700000Y-59800000D03*
D81*
X40870000Y-79095000D03*
D82*
X38550000Y-60781903D03*
D81*
X93290000Y-98580000D03*
D82*
X87020000Y-86470000D03*
X92420000Y-68800000D03*
D81*
X89650000Y-104500000D03*
X63093167Y-73735000D03*
X37822445Y-108351622D03*
X95960000Y-94750000D03*
D82*
X70460000Y-97530000D03*
D81*
X48222445Y-104571622D03*
D82*
X90420000Y-72680000D03*
D81*
X68930000Y-103150000D03*
X69259999Y-105770000D03*
X83889999Y-93180000D03*
D82*
X72530000Y-67270000D03*
X85070000Y-68590000D03*
D81*
X39072445Y-109591622D03*
D82*
X39690000Y-62500497D03*
D81*
X94920000Y-101440000D03*
D82*
X41680000Y-61490000D03*
X94120000Y-102250000D03*
D81*
X52570000Y-108140000D03*
D82*
X91070000Y-102250000D03*
D81*
X50321185Y-102630000D03*
D82*
X78870000Y-58410000D03*
X89330000Y-71570000D03*
D81*
X49170000Y-101210000D03*
X42202445Y-107691622D03*
X94060000Y-98590000D03*
X88020000Y-104550000D03*
X90290000Y-94440000D03*
D82*
X90430000Y-71570000D03*
D81*
X86910000Y-93490000D03*
X82010000Y-89970000D03*
X36700000Y-108500000D03*
X39495000Y-83195000D03*
D82*
X91970000Y-111970000D03*
D81*
X42192445Y-110191622D03*
X50660000Y-106920000D03*
X92330000Y-99710000D03*
X52570000Y-105190000D03*
X41920000Y-102960000D03*
D82*
X65545000Y-77220000D03*
D81*
X89690000Y-93830000D03*
D82*
X95000000Y-96590000D03*
X95960000Y-90380000D03*
X79450000Y-86470000D03*
D81*
X47060000Y-85220000D03*
X89180000Y-102970000D03*
X48820000Y-106940000D03*
X54590000Y-88570000D03*
X48212445Y-106451622D03*
X44072445Y-108351622D03*
D82*
X74370000Y-86470000D03*
X87210000Y-102930000D03*
D81*
X45710000Y-65230000D03*
X45710000Y-66590000D03*
D82*
X79450000Y-111970000D03*
X43161261Y-64660723D03*
X70460000Y-107990000D03*
X73650000Y-58400000D03*
D81*
X39072445Y-108351622D03*
X88760000Y-93490000D03*
D82*
X104400000Y-64200000D03*
D81*
X47572445Y-104981622D03*
D82*
X89380000Y-72680000D03*
D81*
X37295000Y-78445000D03*
X86750000Y-104550000D03*
X45942445Y-110191622D03*
X90980000Y-99680000D03*
X44072445Y-109591622D03*
X48820000Y-105950000D03*
D82*
X78000000Y-69300000D03*
D81*
X69395000Y-67370000D03*
X50660000Y-107930000D03*
X38162501Y-56395001D03*
D82*
X67195000Y-77220000D03*
D81*
X49170000Y-104100000D03*
X79550000Y-103710000D03*
D82*
X78000000Y-70300000D03*
X81400000Y-58410000D03*
X52520000Y-57670000D03*
D81*
X90240000Y-103970000D03*
X49170000Y-101916666D03*
X94930000Y-94760000D03*
X42570000Y-103490000D03*
X50670000Y-105930000D03*
X50321185Y-103350000D03*
X45322445Y-109591622D03*
X49170000Y-103330000D03*
D82*
X104400000Y-65200000D03*
D81*
X36112445Y-109331622D03*
D82*
X45642028Y-86460070D03*
D81*
X48222445Y-105491622D03*
X39702445Y-107691622D03*
D82*
X70460000Y-102900000D03*
D81*
X59129467Y-70439332D03*
X50321185Y-101190000D03*
D82*
X79300000Y-70300000D03*
D81*
X91750000Y-98560000D03*
D82*
X35945000Y-66659500D03*
D81*
X36112445Y-110081622D03*
X47592445Y-105971622D03*
X51130000Y-104950000D03*
X38442445Y-110191622D03*
X43442445Y-110191622D03*
X46060000Y-107960000D03*
X42822445Y-109591622D03*
D82*
X49240000Y-72950000D03*
D81*
X90750000Y-95220000D03*
X45322445Y-108351622D03*
X82320000Y-88660000D03*
X38452445Y-107691622D03*
D82*
X86860001Y-89930000D03*
D81*
X88840000Y-104520000D03*
X37402445Y-110261622D03*
X47930000Y-102570000D03*
X40322445Y-109591622D03*
X63103167Y-78635000D03*
X95940000Y-96410000D03*
X92520000Y-98570000D03*
X47762445Y-109611622D03*
X44590000Y-103470000D03*
X47602445Y-106981622D03*
X49170000Y-102623332D03*
X54090000Y-102910000D03*
X33845000Y-56120000D03*
D82*
X34130000Y-91150000D03*
D81*
X92080000Y-95940000D03*
D82*
X70460000Y-90440000D03*
X95960000Y-98390000D03*
D81*
X40322445Y-108351622D03*
D82*
X85550000Y-75270000D03*
D81*
X43730000Y-107460000D03*
X90980000Y-98540000D03*
D82*
X91920000Y-86470000D03*
D81*
X47102445Y-110211622D03*
D82*
X88260000Y-95220000D03*
D81*
X41572445Y-109591622D03*
D82*
X76070000Y-58410000D03*
X95960000Y-108010000D03*
D81*
X80630000Y-93710000D03*
X61893167Y-78015000D03*
X84160000Y-90320000D03*
X94910000Y-100380000D03*
X58850000Y-73600000D03*
X37822445Y-109591622D03*
X40942445Y-110191622D03*
X50321185Y-104070000D03*
X51380000Y-109890000D03*
X58853167Y-78555000D03*
X91660000Y-99700000D03*
D82*
X79300000Y-69300000D03*
D81*
X92090000Y-95200000D03*
D82*
X88190000Y-99140000D03*
D81*
X46572445Y-109591622D03*
X50321185Y-101910000D03*
D82*
X47650000Y-88150000D03*
X74380000Y-111970000D03*
D81*
X40952445Y-107691622D03*
X42822445Y-108351622D03*
D82*
X91060000Y-95990000D03*
D81*
X39692445Y-110191622D03*
X41600000Y-96750000D03*
X94090000Y-94760000D03*
X81330000Y-88660000D03*
D82*
X104400000Y-66400000D03*
D81*
X45710000Y-67120000D03*
D82*
X34070551Y-74519744D03*
X93700000Y-60900000D03*
D81*
X51410000Y-105950000D03*
X46530000Y-102760000D03*
X39610000Y-77610000D03*
D82*
%TO.N,+3V3*%
X80890000Y-77540000D03*
X72395000Y-65745000D03*
D81*
X39661924Y-76871924D03*
X42550000Y-96730000D03*
D82*
X48342613Y-88842613D03*
D81*
X48960000Y-85210000D03*
D82*
X38550000Y-59802400D03*
D81*
X52600000Y-102250000D03*
X51610000Y-102140000D03*
D82*
X48240000Y-72950000D03*
X83400000Y-77540000D03*
D81*
X44750000Y-66590000D03*
X44750000Y-67130000D03*
D82*
X35050053Y-74520000D03*
X83400000Y-75780000D03*
D81*
X27040000Y-58130000D03*
D82*
X76250000Y-77540000D03*
X42296185Y-80580000D03*
D81*
X32420000Y-87360000D03*
D82*
X42320000Y-79260000D03*
X80890000Y-75780000D03*
X52495000Y-55770000D03*
X41699520Y-62619520D03*
X44662531Y-86456937D03*
X42296185Y-82280000D03*
X78380000Y-75780000D03*
X83410000Y-73590000D03*
X86860000Y-91839999D03*
D81*
X56030000Y-102000000D03*
X44750000Y-65220000D03*
X54570000Y-89510000D03*
D82*
X73980000Y-77540000D03*
X88480000Y-85080000D03*
X78380000Y-77540000D03*
X47850000Y-100360000D03*
X35070000Y-67380000D03*
D81*
X80510000Y-103710000D03*
D82*
%TO.N,/Power/SW*%
X74990000Y-72100000D03*
X75980000Y-72100000D03*
X74000000Y-72100000D03*
X81060000Y-70500000D03*
%TO.N,/SX1276/VR_PA*%
X90090558Y-102239117D03*
X90080497Y-95990000D03*
D81*
%TO.N,/MISO*%
X69862139Y-100460885D03*
X29284500Y-71880000D03*
X26410000Y-71880000D03*
X35700000Y-94390000D03*
%TO.N,/SCLK*%
X28780000Y-72670000D03*
X69850000Y-99831500D03*
X27100000Y-72660000D03*
X34780000Y-93680000D03*
%TO.N,/MOSI*%
X69870000Y-101110000D03*
X36600000Y-93100000D03*
%TO.N,/Connectors/GPI2*%
X59760000Y-69730000D03*
%TO.N,/Connectors/GPI4*%
X61433167Y-75075000D03*
%TO.N,/GPIO_CAN_P*%
X54349503Y-76645000D03*
X52245000Y-58545000D03*
%TO.N,/Connectors/GPI3*%
X62433167Y-75075000D03*
D82*
%TO.N,+1V1*%
X43140000Y-65660000D03*
X39690000Y-63480000D03*
D81*
X42100000Y-76480000D03*
%TO.N,/Connectors/GPI1*%
X64123167Y-70355000D03*
%TO.N,/GPIO_CAN_N*%
X53720000Y-76645000D03*
X51020000Y-54695000D03*
%TO.N,/Connectors/CONN_RP_USB_D_P*%
X46095000Y-62520000D03*
%TO.N,/Connectors/CONN_RP_USB_D_N*%
X46095000Y-63570000D03*
%TO.N,/Connectors/USB_D_N*%
X32895000Y-56670000D03*
X51555000Y-76754500D03*
%TO.N,/Connectors/USB_D_P*%
X52255000Y-76754500D03*
X34795000Y-56670000D03*
%TO.N,/ESP32-S3/CHIP_PU*%
X36850000Y-99950000D03*
X54340000Y-100450000D03*
%TO.N,/CAN_EN*%
X50645000Y-76745000D03*
X45120000Y-60095000D03*
%TO.N,/ESP32-S3/SPICS0*%
X45016736Y-89387575D03*
X44210801Y-88007705D03*
%TO.N,/RP2040_EN*%
X43120000Y-77730000D03*
X56240000Y-77730000D03*
%TO.N,/CS1*%
X56990000Y-100390000D03*
X69882104Y-101739386D03*
%TO.N,/SX1276_RESET*%
X78460000Y-95540000D03*
X78460000Y-103720000D03*
%TO.N,/SX1276_IRQ*%
X74240000Y-97060000D03*
X77900000Y-103162600D03*
%TO.N,/MCPWM_FAULT*%
X50163003Y-79740000D03*
X96190000Y-70230000D03*
D82*
X68995000Y-77220000D03*
D81*
%TO.N,/ESP32-S3/CTS*%
X35480000Y-99260000D03*
X55790000Y-99810000D03*
%TO.N,/ESP32-S3/TXD*%
X37570000Y-98700000D03*
%TO.N,/ESP32-S3/RXD*%
X33880000Y-97000000D03*
D82*
%TO.N,/VIN*%
X83145000Y-62420000D03*
D81*
X90610000Y-68300000D03*
D82*
X83145000Y-64645000D03*
X105445000Y-54645000D03*
X82620000Y-66620000D03*
%TO.N,/Connectors/FUSE_IN*%
X57745000Y-50495000D03*
X58445000Y-51195000D03*
X57770000Y-51945000D03*
X59170000Y-50495000D03*
X59195000Y-51945000D03*
%TO.N,/Connectors/FUSE_OUT*%
X86970000Y-62920000D03*
X70920000Y-58880000D03*
X70920000Y-57785000D03*
X70895000Y-55595000D03*
X70895000Y-61070000D03*
X71905000Y-56690000D03*
X88045000Y-62920000D03*
X88170000Y-64470000D03*
X86987500Y-64462500D03*
X71905000Y-55595000D03*
X71930000Y-59975000D03*
X70920000Y-59975000D03*
X71930000Y-58880000D03*
X71905000Y-61070000D03*
X71930000Y-57785000D03*
X70895000Y-56690000D03*
%TO.N,/Connectors/VOUT*%
X103480000Y-56550000D03*
X93580000Y-55450000D03*
X94580000Y-55450000D03*
X102480000Y-55550000D03*
X101480000Y-56550000D03*
X93580000Y-56450000D03*
X103480000Y-55550000D03*
X94580000Y-56450000D03*
X102480000Y-56550000D03*
X95580000Y-56450000D03*
X101480000Y-55550000D03*
X95580000Y-55450000D03*
D81*
%TO.N,/Connectors/LEDA*%
X65895000Y-62445000D03*
%TD*%
D83*
%TO.N,/GPIO_GPO2*%
X77350000Y-60220000D02*
X77350000Y-61250000D01*
X55266556Y-69650000D02*
X43927500Y-69650000D01*
X77350000Y-61250000D02*
X76972038Y-61627962D01*
X74439300Y-62599520D02*
X71490480Y-62599520D01*
X61096556Y-63820000D02*
X55266556Y-69650000D01*
X76972038Y-61627962D02*
X75410858Y-61627962D01*
X75410858Y-61627962D02*
X74439300Y-62599520D01*
X71490480Y-62599520D02*
X70270000Y-63820000D01*
X70270000Y-63820000D02*
X61096556Y-63820000D01*
%TO.N,/GPIO_GPO3*%
X43927500Y-70050000D02*
X55403278Y-70050000D01*
X61212798Y-64240480D02*
X70462798Y-64240480D01*
X74672870Y-62979040D02*
X75590429Y-62061481D01*
X75590429Y-62061481D02*
X79698519Y-62061481D01*
X79698519Y-62061481D02*
X80150000Y-61610000D01*
X55403278Y-70050000D02*
X61212798Y-64240480D01*
X70462798Y-64240480D02*
X71724238Y-62979040D01*
X71724238Y-62979040D02*
X74672870Y-62979040D01*
X80150000Y-61610000D02*
X80150000Y-60220001D01*
%TO.N,/GPIO_GPO4*%
X43927500Y-70450000D02*
X55540000Y-70450000D01*
X55540000Y-70450000D02*
X61370000Y-64620000D01*
X70620000Y-64620000D02*
X71881440Y-63358560D01*
X61370000Y-64620000D02*
X70620000Y-64620000D01*
X71881440Y-63358560D02*
X74906440Y-63358560D01*
X74906440Y-63358560D02*
X75823999Y-62441001D01*
X75823999Y-62441001D02*
X81478999Y-62441001D01*
X81478999Y-62441001D02*
X82690000Y-61230000D01*
X82690000Y-61230000D02*
X82690000Y-60220001D01*
D84*
%TO.N,GND*%
X54100000Y-103150000D02*
X53850000Y-103400000D01*
D85*
X88190000Y-98250001D02*
X88190000Y-99140000D01*
D86*
X43425000Y-60095000D02*
X42770000Y-60095000D01*
D84*
X43121984Y-64700000D02*
X43161261Y-64660723D01*
X62412687Y-72834520D02*
X61883167Y-72834520D01*
D85*
X91585001Y-107733369D02*
X91861632Y-108010000D01*
D84*
X41595000Y-96755000D02*
X41595000Y-97450000D01*
X39670497Y-62520000D02*
X39690000Y-62500497D01*
D86*
X35945000Y-66659500D02*
X35933089Y-66647589D01*
D84*
X84410001Y-68590000D02*
X83685000Y-67864999D01*
X58853167Y-77905000D02*
X58853167Y-78555000D01*
X47025231Y-88774769D02*
X47650000Y-88150000D01*
D86*
X52574999Y-108135001D02*
X52570000Y-108140000D01*
D84*
X51630000Y-103290000D02*
X51630000Y-104090000D01*
D87*
X79450000Y-111970000D02*
X74380000Y-111970000D01*
D86*
X54588432Y-88568432D02*
X54590000Y-88570000D01*
X59129467Y-70439332D02*
X59787499Y-70439332D01*
X84580001Y-100265000D02*
X83105000Y-100265000D01*
D87*
X70460000Y-90440000D02*
X70460000Y-86470000D01*
D84*
X45710000Y-65870000D02*
X45710000Y-66590000D01*
X43008752Y-103051248D02*
X42570000Y-103490000D01*
D86*
X51130000Y-104950000D02*
X51120000Y-104940000D01*
X51120000Y-104940000D02*
X50670000Y-104940000D01*
D85*
X95789999Y-91910001D02*
X95960000Y-91740000D01*
D84*
X85070000Y-68590000D02*
X84410001Y-68590000D01*
D87*
X95960000Y-86470000D02*
X91920000Y-86470000D01*
D84*
X42125107Y-77477909D02*
X42087198Y-77440000D01*
D85*
X91605000Y-90505000D02*
X91860000Y-90250000D01*
D87*
X70460000Y-107990000D02*
X70460000Y-102900000D01*
D84*
X36795001Y-56395000D02*
X38162501Y-56395001D01*
X42429376Y-102450624D02*
X41920000Y-102960000D01*
D86*
X34110000Y-67130000D02*
X34110000Y-68130000D01*
D84*
X50615001Y-57230000D02*
X51050000Y-57664999D01*
X54100000Y-102250000D02*
X54100000Y-103150000D01*
D86*
X35933089Y-66647589D02*
X34592411Y-66647589D01*
D83*
X39490000Y-74487500D02*
X39490000Y-73260000D01*
D87*
X70460000Y-111970000D02*
X70460000Y-107990000D01*
D86*
X47554067Y-105000000D02*
X47572445Y-104981622D01*
D85*
X94555000Y-91910001D02*
X95789999Y-91910001D01*
D84*
X39500000Y-83190000D02*
X39500000Y-82220000D01*
D85*
X94535001Y-106339999D02*
X95710001Y-106339999D01*
X83889999Y-93180000D02*
X83390000Y-93180000D01*
D84*
X43973223Y-104086777D02*
X44590000Y-103470000D01*
D86*
X46739411Y-104639411D02*
X47100000Y-105000000D01*
D85*
X91605000Y-91910001D02*
X91605000Y-90505000D01*
D86*
X81154999Y-101740000D02*
X81155000Y-100265000D01*
D87*
X95960000Y-90380000D02*
X95960000Y-91740000D01*
X88005000Y-72674999D02*
X89374999Y-72674999D01*
D88*
X60669695Y-76105000D02*
X60711431Y-76063264D01*
D84*
X38770000Y-62520000D02*
X39670497Y-62520000D01*
X37290000Y-78450000D02*
X37290000Y-80510000D01*
D87*
X29480000Y-96680000D02*
X28870000Y-96070000D01*
D85*
X87210000Y-96260000D02*
X87210000Y-95230000D01*
D84*
X41600000Y-96750000D02*
X41595000Y-96755000D01*
D87*
X31422679Y-77910000D02*
X31422679Y-76652679D01*
D84*
X47025231Y-88786655D02*
X47025231Y-88774769D01*
X41655933Y-61490000D02*
X41680000Y-61490000D01*
X45710000Y-64610000D02*
X45710000Y-65230000D01*
D86*
X83020000Y-98970000D02*
X82370000Y-99620000D01*
X82020000Y-89980000D02*
X82010000Y-89970000D01*
X81155000Y-100265000D02*
X82130000Y-99290000D01*
X53862617Y-88568432D02*
X54588432Y-88568432D01*
D84*
X43018752Y-103051248D02*
X43008752Y-103051248D01*
X63103167Y-73185000D02*
X62963167Y-73045000D01*
D86*
X59983167Y-70635000D02*
X59983167Y-71505000D01*
D87*
X89374999Y-72674999D02*
X89380000Y-72680000D01*
D84*
X65545000Y-77220000D02*
X65545000Y-76150001D01*
D87*
X87020000Y-86470000D02*
X79450000Y-86470000D01*
D84*
X85460000Y-89940000D02*
X85460000Y-90200000D01*
X30010000Y-63640000D02*
X30005000Y-63645000D01*
D87*
X95960000Y-111970000D02*
X91970000Y-111970000D01*
X86960000Y-111970000D02*
X79450000Y-111970000D01*
D86*
X84160000Y-90820000D02*
X84160000Y-90320000D01*
X61883167Y-77405000D02*
X61883167Y-78005000D01*
D84*
X85460000Y-89940000D02*
X86850000Y-89940001D01*
D85*
X94119999Y-101390000D02*
X94120000Y-102250000D01*
D87*
X91920000Y-86470000D02*
X87020000Y-86470000D01*
D84*
X47060000Y-86450000D02*
X47060000Y-85220000D01*
X49210000Y-72920000D02*
X49240000Y-72950000D01*
D86*
X80620000Y-92795000D02*
X80620000Y-93700000D01*
D85*
X88250000Y-95230000D02*
X88260000Y-95220000D01*
D84*
X44321142Y-106868858D02*
X43730000Y-107460000D01*
D87*
X28870000Y-96070000D02*
X26000000Y-96070000D01*
D85*
X87210000Y-95230000D02*
X88250000Y-95230000D01*
X91860000Y-90250000D02*
X95830000Y-90250000D01*
D86*
X84580000Y-98965000D02*
X82455000Y-98965000D01*
D87*
X91970000Y-111970000D02*
X86960000Y-111970000D01*
D84*
X34130000Y-91150000D02*
X34142086Y-91162086D01*
X52514999Y-57664999D02*
X52520000Y-57670000D01*
D86*
X52574999Y-105185001D02*
X52570000Y-105190000D01*
D84*
X43973223Y-103994471D02*
X42429376Y-102450624D01*
D87*
X32782679Y-76652679D02*
X31422679Y-76652679D01*
D85*
X94110000Y-96840000D02*
X94750000Y-96840000D01*
X91070000Y-101390000D02*
X91070000Y-102250000D01*
D86*
X58790000Y-109570000D02*
X60970000Y-109570000D01*
D84*
X37295000Y-78445000D02*
X37290000Y-78450000D01*
X38550000Y-60781903D02*
X38538097Y-60770000D01*
D85*
X84400000Y-93180000D02*
X83889999Y-93180000D01*
D88*
X61883167Y-78005000D02*
X61893167Y-78015000D01*
D87*
X92420000Y-69449999D02*
X91865000Y-70004999D01*
D84*
X39495000Y-83195000D02*
X39500000Y-83190000D01*
D85*
X95830000Y-90250000D02*
X95960000Y-90380000D01*
D84*
X42330000Y-64700000D02*
X43121984Y-64700000D01*
D87*
X74380000Y-111970000D02*
X70460000Y-111970000D01*
D85*
X91060000Y-96849998D02*
X91060000Y-95990000D01*
D84*
X83040000Y-88660000D02*
X82320000Y-88660000D01*
X49210000Y-72060000D02*
X49210000Y-72920000D01*
D87*
X95960000Y-108010000D02*
X95960000Y-111970000D01*
D84*
X34090000Y-73650000D02*
X34090000Y-74500295D01*
X45643164Y-86843164D02*
X45643164Y-87347088D01*
X43973223Y-104111142D02*
X43973223Y-104086777D01*
X53850000Y-103400000D02*
X51740000Y-103400000D01*
X63103167Y-73725000D02*
X63093167Y-73735000D01*
X34142086Y-91162086D02*
X35708163Y-91162086D01*
D85*
X91861632Y-108010000D02*
X95960000Y-108010000D01*
D87*
X29480000Y-98515000D02*
X29480000Y-96680000D01*
D84*
X58850000Y-73600000D02*
X58853167Y-73596833D01*
X47930000Y-103300000D02*
X47930000Y-102570000D01*
X44326777Y-106868858D02*
X44321142Y-106868858D01*
D83*
X39490000Y-72600000D02*
X39215000Y-72325000D01*
D85*
X91585001Y-106339999D02*
X91585001Y-107733369D01*
D84*
X42087198Y-77440000D02*
X41350000Y-77440000D01*
D87*
X92420000Y-68800000D02*
X92420000Y-69449999D01*
D88*
X40780000Y-107300000D02*
X40780000Y-107519177D01*
D84*
X34090000Y-74500295D02*
X34070551Y-74519744D01*
D88*
X41170015Y-106909985D02*
X40780000Y-107300000D01*
D83*
X69270000Y-106460000D02*
X69269999Y-105780000D01*
D84*
X83820000Y-90879999D02*
X85290000Y-90879999D01*
X62963167Y-73045000D02*
X62623167Y-73045000D01*
X58853167Y-73596833D02*
X58853167Y-73185000D01*
X45642028Y-86842028D02*
X45643164Y-86843164D01*
D88*
X50720000Y-109890000D02*
X51380000Y-109890000D01*
D86*
X39490000Y-73260000D02*
X39490000Y-73640000D01*
D84*
X85480000Y-90690000D02*
X85480000Y-89960000D01*
X62623167Y-73045000D02*
X62412687Y-72834520D01*
D85*
X95710001Y-106339999D02*
X95960000Y-106090000D01*
D83*
X39490000Y-73010000D02*
X39490000Y-72600000D01*
D87*
X95960000Y-91740000D02*
X95960000Y-93760000D01*
D86*
X34592411Y-66647589D02*
X34110000Y-67130000D01*
D88*
X41178737Y-106909985D02*
X41170015Y-106909985D01*
D86*
X54075000Y-108135001D02*
X52574999Y-108135001D01*
D84*
X40865000Y-79100000D02*
X40870000Y-79095000D01*
X85480000Y-89960000D02*
X85460000Y-89940000D01*
X86850000Y-89940001D02*
X86860001Y-89930000D01*
D86*
X80620000Y-93700000D02*
X80630000Y-93710000D01*
X54075000Y-105185001D02*
X52574999Y-105185001D01*
D84*
X45642028Y-86460070D02*
X45642028Y-86842028D01*
D83*
X39490000Y-73260000D02*
X39490000Y-73010000D01*
D84*
X39490000Y-73010000D02*
X39490000Y-73640000D01*
D86*
X61425000Y-110025000D02*
X61425000Y-110850000D01*
D85*
X94750000Y-96840000D02*
X95000000Y-96590000D01*
D84*
X40190000Y-79100000D02*
X40865000Y-79100000D01*
D86*
X83105000Y-100265000D02*
X82130000Y-99290000D01*
D84*
X85290000Y-90879999D02*
X85480000Y-90690000D01*
X63103167Y-73185000D02*
X63103167Y-73725000D01*
D85*
X88190000Y-99980000D02*
X88190000Y-99140000D01*
D84*
X45710000Y-67840000D02*
X45710000Y-67120000D01*
D86*
X86400000Y-75274999D02*
X85554999Y-75274999D01*
X59787499Y-70439332D02*
X59983167Y-70635000D01*
X60970000Y-109570000D02*
X61425000Y-110025000D01*
D87*
X95960000Y-98390000D02*
X95960000Y-106090000D01*
D84*
X33845000Y-57132500D02*
X33845000Y-56120000D01*
X48970000Y-57230000D02*
X50615001Y-57230000D01*
D86*
X82455000Y-98965000D02*
X82130000Y-99290000D01*
D84*
X67530000Y-103150000D02*
X68930000Y-103150000D01*
D88*
X46750000Y-107960000D02*
X46060000Y-107960000D01*
D84*
X39610000Y-77610000D02*
X40150000Y-77610000D01*
X40150000Y-77610000D02*
X40320000Y-77440000D01*
D87*
X79450000Y-86470000D02*
X74370000Y-86470000D01*
D84*
X54100000Y-101260000D02*
X54100000Y-102250000D01*
X67195000Y-77220000D02*
X67195000Y-76147499D01*
D86*
X69395000Y-66570000D02*
X69395000Y-67370000D01*
D84*
X38538097Y-60770000D02*
X37730000Y-60770000D01*
X46530000Y-102250000D02*
X46530000Y-102760000D01*
D87*
X95960000Y-106090000D02*
X95960000Y-108050000D01*
D84*
X30005000Y-63645000D02*
X28620000Y-63645000D01*
X51050000Y-57664999D02*
X52514999Y-57664999D01*
D83*
X79550000Y-102999999D02*
X79550000Y-103710000D01*
D84*
X81330000Y-88660000D02*
X80620000Y-88660000D01*
D87*
X31422679Y-76652679D02*
X31422679Y-75490000D01*
X95960000Y-86470000D02*
X95960000Y-90380000D01*
D86*
X82020000Y-91045000D02*
X82020000Y-89980000D01*
D84*
X40630000Y-62515933D02*
X41655933Y-61490000D01*
X39490000Y-73640000D02*
X39490000Y-72050000D01*
D86*
X85554999Y-75274999D02*
X85550000Y-75270000D01*
X59983167Y-76105000D02*
X60669695Y-76105000D01*
X63103167Y-77905000D02*
X63103167Y-78635000D01*
D87*
X32790000Y-76660000D02*
X32782679Y-76652679D01*
X74370000Y-86470000D02*
X70460000Y-86470000D01*
D85*
X87210000Y-102040000D02*
X87210000Y-102930000D01*
D88*
X40780000Y-107519177D02*
X40952445Y-107691622D01*
D86*
X47100000Y-105000000D02*
X47554067Y-105000000D01*
D84*
X40630000Y-62520000D02*
X40630000Y-62515933D01*
D87*
X70460000Y-97530000D02*
X70460000Y-90440000D01*
D86*
%TO.N,/SX1276/RADIO_XTAL_P*%
X83060000Y-89640000D02*
X83040000Y-89620000D01*
X81805000Y-93010000D02*
X81805000Y-96840000D01*
X83060000Y-92480000D02*
X83060000Y-89640000D01*
X82020000Y-92795000D02*
X81805000Y-93010000D01*
X82745000Y-92795000D02*
X83060000Y-92480000D01*
X82020000Y-92795000D02*
X82745000Y-92795000D01*
D83*
%TO.N,/LEDA*%
X50207500Y-63945000D02*
X50207500Y-66907500D01*
X48265000Y-68850000D02*
X43927500Y-68850000D01*
X50207500Y-66907500D02*
X48265000Y-68850000D01*
D84*
%TO.N,/Pico Remote Proc/RP_XOUT*%
X39220000Y-80240000D02*
X39220000Y-79180000D01*
D83*
X40290000Y-74487500D02*
X40290000Y-75494994D01*
X39000000Y-78320000D02*
X39220000Y-78540000D01*
X40290000Y-75494994D02*
X39000000Y-76784994D01*
X39000000Y-76784994D02*
X39000000Y-78320000D01*
X39220000Y-78540000D02*
X39220000Y-79180000D01*
D85*
%TO.N,/ESP32-S3/LNA_IN*%
X49770000Y-100500000D02*
X49770000Y-104880000D01*
D86*
X49710000Y-104940000D02*
X49710000Y-105905000D01*
D83*
X49760000Y-100360000D02*
X49760000Y-100460000D01*
X49830710Y-100189289D02*
X49935392Y-100084607D01*
X49935392Y-99432347D02*
G75*
G02*
X50070480Y-99758477I-326134J-326132D01*
G01*
X49830710Y-100189289D02*
G75*
G03*
X49760000Y-100360000I170699J-170705D01*
G01*
X50070479Y-99758477D02*
G75*
G02*
X49935392Y-100084607I-461226J4D01*
G01*
%TO.N,/ESP32-S3/XTAL_P*%
X48021534Y-98703472D02*
X46090000Y-100635006D01*
X45659520Y-103427202D02*
X45658896Y-103427826D01*
X45659520Y-101060480D02*
X45659520Y-103427202D01*
X45658896Y-103558896D02*
X46060589Y-103960589D01*
X45658896Y-103427826D02*
X45658896Y-103558896D01*
X46100000Y-100620000D02*
X45659520Y-101060480D01*
X46060589Y-104439411D02*
X45528858Y-104971142D01*
X46060589Y-103960589D02*
X46060589Y-104439411D01*
D84*
%TO.N,+3V3*%
X48970000Y-55960000D02*
X50854999Y-55960000D01*
D83*
X41090000Y-66650960D02*
X41090960Y-66650000D01*
D84*
X70595000Y-76820000D02*
X71470000Y-76820000D01*
D83*
X40320000Y-76030000D02*
X40320000Y-76480000D01*
X42690000Y-66560000D02*
X42910489Y-66339511D01*
D84*
X46530000Y-101290000D02*
X47820000Y-101290000D01*
X44683164Y-87347088D02*
X44683164Y-86477570D01*
X52489999Y-55764999D02*
X52495000Y-55770000D01*
D83*
X35480000Y-72050000D02*
X35050000Y-72480000D01*
X48567565Y-90730843D02*
X48000000Y-90163278D01*
D84*
X43105002Y-82250001D02*
X42326184Y-82250001D01*
X42311186Y-80564999D02*
X42296185Y-80580000D01*
D83*
X35050000Y-72480000D02*
X35050000Y-73650000D01*
D84*
X44750000Y-65220000D02*
X44749999Y-64610000D01*
D83*
X48587798Y-90730843D02*
X48567565Y-90730843D01*
D84*
X47850000Y-99730000D02*
X47850000Y-101320000D01*
X69669999Y-71419999D02*
X70220000Y-71970000D01*
X44750000Y-67130000D02*
X44750000Y-67840000D01*
D83*
X80510000Y-101745000D02*
X80505000Y-101740000D01*
X52551076Y-92478924D02*
X53862617Y-91167383D01*
X53862617Y-91167383D02*
X53862617Y-89528432D01*
D86*
X57290000Y-110850000D02*
X56890000Y-110450000D01*
D84*
X38542400Y-59810000D02*
X38550000Y-59802400D01*
D83*
X44540000Y-68450000D02*
X44750000Y-68240000D01*
X43490000Y-66780000D02*
X43240000Y-66780000D01*
D86*
X53862617Y-89528432D02*
X54551568Y-89528432D01*
D83*
X42910489Y-66339511D02*
X43421464Y-66339511D01*
D84*
X42550000Y-96730000D02*
X42550000Y-97445000D01*
X40320000Y-76480000D02*
X40053848Y-76480000D01*
D83*
X43090000Y-66930000D02*
X43090000Y-67612500D01*
X40910480Y-66469520D02*
X40710480Y-66269520D01*
X44200000Y-64610000D02*
X44750000Y-64610000D01*
D84*
X53010000Y-101390000D02*
X53140000Y-101260000D01*
D83*
X41090960Y-66650000D02*
X40910480Y-66469520D01*
D84*
X44683164Y-86477570D02*
X44662531Y-86456937D01*
X40053848Y-76480000D02*
X39661924Y-76871924D01*
X44760000Y-97450000D02*
X45160000Y-97050000D01*
X83820000Y-91840000D02*
X85460000Y-91840000D01*
D83*
X37052500Y-68450000D02*
X35390000Y-68450000D01*
X42690000Y-67612500D02*
X42690000Y-66560000D01*
D84*
X37730000Y-59810000D02*
X38542400Y-59810000D01*
X35070000Y-67380000D02*
X35070000Y-68130000D01*
D83*
X48000000Y-90163278D02*
X48000000Y-89761424D01*
X45759371Y-96450629D02*
X45160000Y-97050000D01*
D84*
X85460000Y-91840000D02*
X86860000Y-91839999D01*
D83*
X40690000Y-66290000D02*
X40710480Y-66269520D01*
D84*
X47704053Y-89465477D02*
X47719749Y-89465477D01*
X51050000Y-55764999D02*
X52489999Y-55764999D01*
D83*
X52548925Y-92478924D02*
X52551076Y-92478924D01*
D84*
X83755000Y-96840000D02*
X83755000Y-96135001D01*
D83*
X43240000Y-66780000D02*
X43090000Y-66930000D01*
X80510000Y-102999999D02*
X80510000Y-103710000D01*
D84*
X40839040Y-63480000D02*
X41699520Y-62619520D01*
X51630000Y-101390000D02*
X53010000Y-101390000D01*
X56030000Y-102000000D02*
X56030001Y-101270000D01*
D83*
X44750000Y-68240000D02*
X44750000Y-67840000D01*
D86*
X60155000Y-110850000D02*
X57290000Y-110850000D01*
X56890000Y-110450000D02*
X56890000Y-109570000D01*
D83*
X43927500Y-72050000D02*
X48240000Y-72050000D01*
D84*
X48250000Y-72940000D02*
X48240000Y-72950000D01*
D83*
X48240000Y-72050000D02*
X48250000Y-72060000D01*
D84*
X37730000Y-59810000D02*
X35895000Y-59810000D01*
D83*
X40690000Y-74487500D02*
X40690000Y-75660000D01*
X80510000Y-102999999D02*
X80510000Y-101745000D01*
D84*
X85460001Y-94430000D02*
X85460000Y-91840000D01*
D83*
X41090000Y-67612500D02*
X41090000Y-66650960D01*
D84*
X48250000Y-72060000D02*
X48250000Y-72940000D01*
X68972499Y-71432500D02*
X68985000Y-71419999D01*
D83*
X40690000Y-75660000D02*
X40320000Y-76030000D01*
D84*
X42326184Y-82250001D02*
X42296185Y-82280000D01*
D83*
X44400000Y-65870000D02*
X43490000Y-66780000D01*
X43819511Y-64990489D02*
X44200000Y-64610000D01*
X43927500Y-68450000D02*
X44540000Y-68450000D01*
D84*
X42330000Y-79250000D02*
X42320000Y-79260000D01*
X48960000Y-86450000D02*
X48960000Y-85210000D01*
D83*
X37052500Y-72050000D02*
X35480000Y-72050000D01*
D84*
X53140000Y-102250000D02*
X52600000Y-102250000D01*
X42963161Y-87347088D02*
X42958163Y-87352086D01*
D83*
X40690000Y-67612500D02*
X40690000Y-66290000D01*
X45759371Y-96440730D02*
X45759371Y-96450629D01*
D84*
X33060000Y-87360000D02*
X32410000Y-87359999D01*
X48540000Y-99040000D02*
X47850000Y-99730000D01*
D83*
X44750000Y-65870000D02*
X44400000Y-65870000D01*
D84*
X42555000Y-97450000D02*
X44760000Y-97450000D01*
X51630000Y-101390000D02*
X51630000Y-100270000D01*
X47719749Y-89465477D02*
X48342613Y-88842613D01*
X65545000Y-71432500D02*
X68972499Y-71432500D01*
D83*
X27040000Y-58810000D02*
X27040000Y-58130000D01*
D84*
X53140000Y-102250000D02*
X53140000Y-101260000D01*
X50854999Y-55960000D02*
X51050000Y-55764999D01*
X43110000Y-79250000D02*
X42330000Y-79250000D01*
D83*
X48000000Y-89761424D02*
X47704053Y-89465477D01*
D84*
X70220000Y-76445000D02*
X70595000Y-76820000D01*
D86*
X40740000Y-66520000D02*
X40740000Y-63590000D01*
X40900000Y-66600000D02*
X40900000Y-67880000D01*
D84*
X83755000Y-96135001D02*
X85460001Y-94430000D01*
D83*
X43421464Y-66339511D02*
X43819511Y-65941464D01*
X43819511Y-65941464D02*
X43819511Y-64990489D01*
D84*
X40630000Y-63480000D02*
X40839040Y-63480000D01*
X42550000Y-97445000D02*
X42555000Y-97450000D01*
X35050000Y-73650000D02*
X35050000Y-74519947D01*
X43105002Y-80564999D02*
X42311186Y-80564999D01*
X70220000Y-71970000D02*
X70220000Y-76445000D01*
X35050000Y-74519947D02*
X35050053Y-74520000D01*
X68985000Y-71419999D02*
X69669999Y-71419999D01*
D86*
X54551568Y-89528432D02*
X54570000Y-89510000D01*
D84*
X51610000Y-102140000D02*
X51610000Y-101250000D01*
X35895000Y-59810000D02*
X35880000Y-59825000D01*
X51630000Y-100270000D02*
X50070000Y-98710000D01*
X44683164Y-87347088D02*
X42963161Y-87347088D01*
X44750000Y-66590000D02*
X44750000Y-65870000D01*
D83*
X35390000Y-68450000D02*
X35070000Y-68130000D01*
X52034944Y-92992905D02*
X52548925Y-92478924D01*
D85*
%TO.N,/ESP32-S3/RF_ANT*%
X49675000Y-107940000D02*
X49675000Y-109965000D01*
X49670000Y-106915000D02*
X49670000Y-107935000D01*
D83*
%TO.N,/ESP32-S3/XTAL_N*%
X43801802Y-105808198D02*
X43266117Y-105808198D01*
X45279376Y-103270624D02*
X45279376Y-104330624D01*
X43266117Y-105808198D02*
X42771142Y-105313223D01*
X45280000Y-100880000D02*
X45280000Y-103270000D01*
X41857559Y-106226806D02*
X42771142Y-105313223D01*
X47739270Y-98420730D02*
X45280000Y-100880000D01*
X45279376Y-104330624D02*
X43801802Y-105808198D01*
D87*
%TO.N,/Power/SW*%
X81060000Y-70500000D02*
X81235000Y-70325000D01*
X81235000Y-70325000D02*
X81967501Y-70325000D01*
D86*
%TO.N,/SX1276/RADIO_XTAL_N*%
X81155000Y-96840000D02*
X81155000Y-95545000D01*
X80620000Y-91045000D02*
X80620000Y-89610000D01*
X81155000Y-95545000D02*
X79600000Y-93990000D01*
X79600000Y-91360000D02*
X79915000Y-91045000D01*
X79600000Y-93990000D02*
X79600000Y-91360000D01*
X79915000Y-91045000D02*
X80620000Y-91045000D01*
D84*
%TO.N,/Motor-Control/V3P3OUT*%
X92215000Y-71780000D02*
X92660000Y-71780000D01*
X92660000Y-71780000D02*
X92920000Y-71520000D01*
X94251500Y-68087500D02*
X94251500Y-69518499D01*
X92920000Y-70420000D02*
X93335001Y-70004999D01*
X94251500Y-69518499D02*
X93765000Y-70004999D01*
X93335001Y-70004999D02*
X93765000Y-70004999D01*
X92920000Y-71520000D02*
X92920000Y-70420000D01*
D88*
%TO.N,/Motor-Control/VCP*%
X101401500Y-62425000D02*
X101401500Y-61368500D01*
X101401500Y-61368500D02*
X103455000Y-59315000D01*
X103455000Y-58422500D02*
X103542500Y-58335000D01*
X103455000Y-59315000D02*
X103455000Y-58422500D01*
D85*
%TO.N,/SX1276/VR_DIG*%
X82455000Y-95665000D02*
X82455000Y-96840000D01*
X83390001Y-94730000D02*
X82455000Y-95665000D01*
X83390001Y-94140000D02*
X83390001Y-94730000D01*
D88*
%TO.N,/Motor-Control/CP1*%
X106570000Y-60740000D02*
X107300000Y-60010000D01*
X107300000Y-60010000D02*
X107300000Y-58362499D01*
X103370000Y-60740000D02*
X106570000Y-60740000D01*
X102701500Y-62425000D02*
X102701500Y-61408500D01*
X102701500Y-61408500D02*
X103370000Y-60740000D01*
%TO.N,/Motor-Control/CP2*%
X102051500Y-61368500D02*
X102051500Y-62425000D01*
X103300000Y-60120000D02*
X102051500Y-61368500D01*
X105200000Y-59760000D02*
X104840000Y-60120000D01*
X104840000Y-60120000D02*
X103300000Y-60120000D01*
X105200000Y-58337499D02*
X105200000Y-59760000D01*
D85*
%TO.N,/SX1276/VR_ANA*%
X84390000Y-94600000D02*
X84390000Y-94350000D01*
X83105000Y-96840000D02*
X83105000Y-95885000D01*
X83105000Y-95885000D02*
X84390000Y-94600000D01*
%TO.N,/SX1276/VR_PA*%
X90090558Y-102239117D02*
X90090558Y-102909442D01*
X86250000Y-94610000D02*
X86730000Y-94130000D01*
X86250000Y-95230000D02*
X86250000Y-94610000D01*
X86250000Y-103390000D02*
X86250000Y-102040000D01*
X86245000Y-100940000D02*
X86245000Y-102035000D01*
X86245000Y-102035000D02*
X86250000Y-102040000D01*
X86780000Y-103920000D02*
X86250000Y-103390000D01*
X89080000Y-103920000D02*
X86780000Y-103920000D01*
X85840000Y-97290000D02*
X86245000Y-97290000D01*
X86250000Y-95230000D02*
X86250000Y-97285000D01*
X90090558Y-102909442D02*
X89080000Y-103920000D01*
X86730000Y-94130000D02*
X89120000Y-94130000D01*
X90080497Y-95090497D02*
X90080497Y-95990000D01*
X84580000Y-97665000D02*
X85465000Y-97665000D01*
X86250000Y-97285000D02*
X86245000Y-97290000D01*
X89120000Y-94130000D02*
X90080497Y-95090497D01*
X85465000Y-97665000D02*
X85840000Y-97290000D01*
%TO.N,/SX1276/PA_BOOST*%
X84580000Y-98315000D02*
X86240000Y-98315000D01*
X86240000Y-98315000D02*
X86245000Y-98310000D01*
D83*
%TO.N,Net-(R6-Pad2)*%
X46607899Y-97289938D02*
X44187837Y-99710000D01*
X44187837Y-99710000D02*
X41680000Y-99710000D01*
D84*
%TO.N,Net-(D3-Pad1)*%
X46485002Y-82289999D02*
X44807500Y-82289999D01*
D85*
%TO.N,Net-(AE2-Pad1)*%
X37327193Y-108902807D02*
X36780000Y-109450000D01*
X36780000Y-109450000D02*
X36780000Y-110875000D01*
X48653223Y-108902807D02*
X37327193Y-108902807D01*
D84*
%TO.N,Net-(D4-Pad1)*%
X46485002Y-80564999D02*
X44767502Y-80564999D01*
D83*
%TO.N,/MISO*%
X29284500Y-71235500D02*
X30460000Y-70060000D01*
D89*
X63965000Y-103498545D02*
X67002659Y-100460885D01*
X63965000Y-103498545D02*
X63965000Y-110850000D01*
D83*
X29284500Y-71880000D02*
X29284500Y-71235500D01*
X81460000Y-104750000D02*
X76410000Y-104750000D01*
X35700000Y-94390000D02*
X35690000Y-94380000D01*
X26410000Y-90170000D02*
X26410000Y-71880000D01*
X35700000Y-94390000D02*
X35710000Y-94380000D01*
X30620000Y-94380000D02*
X26410000Y-90170000D01*
X82455000Y-103755000D02*
X81460000Y-104750000D01*
X35710000Y-94380000D02*
X44883045Y-94380000D01*
X35690000Y-94380000D02*
X30620000Y-94380000D01*
X72120885Y-100460885D02*
X69862139Y-100460885D01*
X30460000Y-70060000D02*
X37042500Y-70060000D01*
X44883045Y-94380000D02*
X44910843Y-94407798D01*
X82455000Y-101740000D02*
X82455000Y-103755000D01*
X37042500Y-70060000D02*
X37052500Y-70050000D01*
X76410000Y-104750000D02*
X72120885Y-100460885D01*
D89*
X69862139Y-100460885D02*
X67002659Y-100460885D01*
D83*
%TO.N,/SCLK*%
X30680000Y-93680000D02*
X27100000Y-90100000D01*
X28780000Y-71136722D02*
X30266722Y-69650000D01*
X72041500Y-99831500D02*
X76540000Y-104330000D01*
X81805000Y-101740000D02*
X81805000Y-103845000D01*
X81805000Y-103845000D02*
X81320000Y-104330000D01*
D89*
X62695000Y-104055000D02*
X62695000Y-110850000D01*
D83*
X44748731Y-93680000D02*
X45193686Y-94124955D01*
X28780000Y-72670000D02*
X28780000Y-71136722D01*
X72041500Y-99831500D02*
X69850000Y-99831500D01*
D89*
X66918500Y-99831500D02*
X62695000Y-104055000D01*
X69850000Y-99831500D02*
X66918500Y-99831500D01*
D83*
X34780000Y-93680000D02*
X44748731Y-93680000D01*
X34780000Y-93680000D02*
X30680000Y-93680000D01*
X27100000Y-90100000D02*
X27100000Y-72660000D01*
X30266722Y-69650000D02*
X37052500Y-69650000D01*
X81320000Y-104330000D02*
X76540000Y-104330000D01*
D84*
%TO.N,/CAN_N*%
X38670001Y-55445001D02*
X41235000Y-55445000D01*
D86*
X47434680Y-53830320D02*
X47434680Y-46155320D01*
D84*
X41750000Y-55960000D02*
X41262501Y-55472501D01*
D86*
X44020000Y-55960000D02*
X45305000Y-55960000D01*
D84*
X41235000Y-55445000D02*
X41262501Y-55472501D01*
D86*
X47434680Y-46155320D02*
X48550000Y-45040000D01*
D84*
X44020000Y-55960000D02*
X41750000Y-55960000D01*
D86*
X45305000Y-55960000D02*
X47434680Y-53830320D01*
X48550000Y-45040000D02*
X49975000Y-45040000D01*
D84*
%TO.N,/CAN_P*%
X43952499Y-57297501D02*
X44020000Y-57230000D01*
D86*
X44721346Y-57230000D02*
X47920000Y-54031346D01*
X47920000Y-52220000D02*
X48750000Y-51390000D01*
D84*
X41262501Y-57297501D02*
X43952499Y-57297501D01*
D86*
X48750000Y-51390000D02*
X49975000Y-51390000D01*
X47920000Y-54031346D02*
X47920000Y-52220000D01*
D84*
X38670001Y-57345000D02*
X41215002Y-57345000D01*
X41215002Y-57345000D02*
X41262501Y-57297501D01*
D86*
X44020000Y-57230000D02*
X44721346Y-57230000D01*
D89*
%TO.N,/MOSI*%
X69870000Y-101110000D02*
X66960978Y-101110000D01*
D83*
X37052500Y-68850000D02*
X29830000Y-68850000D01*
X44734415Y-93100000D02*
X45476528Y-93842113D01*
X30890000Y-93100000D02*
X27750000Y-89960000D01*
D89*
X65235000Y-102835978D02*
X65235000Y-110850000D01*
D83*
X27750000Y-89960000D02*
X27750000Y-73430000D01*
X76252798Y-105129520D02*
X72233278Y-101110000D01*
X27760000Y-73420000D02*
X27750000Y-73410000D01*
D89*
X66960978Y-101110000D02*
X65235000Y-102835978D01*
D83*
X83105000Y-103641722D02*
X81617202Y-105129520D01*
X29830000Y-68850000D02*
X27750000Y-70930000D01*
X72233278Y-101110000D02*
X69870000Y-101110000D01*
X36600000Y-93100000D02*
X30890000Y-93100000D01*
X27750000Y-73430000D02*
X27760000Y-73420000D01*
X83105000Y-101740000D02*
X83105000Y-103641722D01*
X36600000Y-93100000D02*
X44734415Y-93100000D01*
X81617202Y-105129520D02*
X76252798Y-105129520D01*
X27750000Y-70930000D02*
X27750000Y-73410000D01*
D86*
%TO.N,Net-(C21-Pad2)*%
X48705000Y-107940000D02*
X47730000Y-107940000D01*
D87*
%TO.N,/Connectors/GPO1*%
X79300000Y-45040000D02*
X74810000Y-49530000D01*
X84025000Y-45040000D02*
X79300000Y-45040000D01*
X74810000Y-49530000D02*
X74810000Y-55070000D01*
%TO.N,Net-(D2-Pad1)*%
X65545000Y-74499999D02*
X65545000Y-73007501D01*
D83*
%TO.N,/Pico Remote Proc/RP_XIN*%
X38299511Y-79229511D02*
X38299511Y-81990489D01*
X39779988Y-75440000D02*
X38260480Y-76959508D01*
X38299511Y-81990489D02*
X38070000Y-82220000D01*
X39890000Y-74487500D02*
X39890000Y-75330000D01*
X38260480Y-76959508D02*
X38260480Y-79169520D01*
X39780000Y-75440000D02*
X39779988Y-75440000D01*
X38070000Y-82220000D02*
X37300000Y-82220000D01*
X39890000Y-75330000D02*
X39780000Y-75440000D01*
D87*
%TO.N,/Connectors/GPO2*%
X88215000Y-45040000D02*
X88215000Y-46950000D01*
X88215000Y-46950000D02*
X87755000Y-47410000D01*
X87755000Y-47410000D02*
X80805000Y-47410000D01*
X80805000Y-47410000D02*
X77350000Y-50865000D01*
X77350000Y-50865000D02*
X77350000Y-55070000D01*
%TO.N,/Connectors/GPO3*%
X92405000Y-46610000D02*
X92405000Y-45040000D01*
X80150000Y-51365000D02*
X82595000Y-48920000D01*
X82595000Y-48920000D02*
X90095000Y-48920000D01*
X80150000Y-55070001D02*
X80150000Y-51365000D01*
X90095000Y-48920000D02*
X92405000Y-46610000D01*
D83*
%TO.N,/GPIO_GPO1*%
X69949520Y-63440480D02*
X71170000Y-62220000D01*
X43927500Y-69250000D02*
X55129834Y-69250000D01*
X71170000Y-62220000D02*
X74243914Y-62220000D01*
X55129834Y-69250000D02*
X60939354Y-63440480D01*
X74243914Y-62220000D02*
X74810000Y-61653914D01*
X60939354Y-63440480D02*
X69949520Y-63440480D01*
X74810000Y-61653914D02*
X74810000Y-60220000D01*
D84*
%TO.N,/Connectors/GPI2*%
X58081833Y-69730000D02*
X57833167Y-69978666D01*
X59760000Y-69730000D02*
X58081833Y-69730000D01*
X57833167Y-69978666D02*
X57833167Y-71145000D01*
%TO.N,/Connectors/GPI4*%
X57833167Y-75726649D02*
X57833167Y-75825000D01*
X58484336Y-75075480D02*
X57833167Y-75726649D01*
X61433167Y-75075000D02*
X61432687Y-75075480D01*
X61432687Y-75075480D02*
X58484336Y-75075480D01*
D88*
%TO.N,/GPIO_CAN_P*%
X52200000Y-58500000D02*
X52245000Y-58545000D01*
X48970000Y-58500000D02*
X52200000Y-58500000D01*
D83*
X54349503Y-76645000D02*
X54345000Y-76649503D01*
X54345000Y-76649503D02*
X54345000Y-80745000D01*
X53195000Y-90136471D02*
X51186415Y-92145056D01*
X54345000Y-80745000D02*
X53195000Y-81895000D01*
X53195000Y-81895000D02*
X53195000Y-90136471D01*
D84*
%TO.N,/Connectors/GPI3*%
X63663647Y-75075480D02*
X64123167Y-75535000D01*
X62433167Y-75075000D02*
X62433647Y-75075480D01*
X62433647Y-75075480D02*
X63663647Y-75075480D01*
X64123167Y-75535000D02*
X64123167Y-75825000D01*
D83*
%TO.N,/Pico Remote Proc/LED_RED*%
X43090000Y-75463278D02*
X44736722Y-77110000D01*
X44736722Y-77110000D02*
X46910000Y-77110000D01*
X49140000Y-82030000D02*
X48880001Y-82289999D01*
X43090000Y-74487500D02*
X43090000Y-75463278D01*
X48880001Y-82289999D02*
X48222502Y-82289999D01*
X46910000Y-77110000D02*
X49140000Y-79340000D01*
X49140000Y-79340000D02*
X49140000Y-82030000D01*
%TO.N,/Pico Remote Proc/LED_GREEN*%
X48222502Y-78982502D02*
X48222502Y-80564999D01*
X42690000Y-74487500D02*
X42690000Y-75600000D01*
X44579520Y-77489520D02*
X46729520Y-77489520D01*
X46729520Y-77489520D02*
X48222502Y-78982502D01*
X42690000Y-75600000D02*
X44579520Y-77489520D01*
%TO.N,/Pico Remote Proc/RP_SS*%
X27040000Y-60480000D02*
X25920000Y-61600000D01*
X27040000Y-59830000D02*
X27040000Y-60480000D01*
X37040000Y-65980000D02*
X37890000Y-66830000D01*
X27140000Y-65980000D02*
X37040000Y-65980000D01*
X27045000Y-59825000D02*
X28630000Y-59825000D01*
X25920000Y-64760000D02*
X27140000Y-65980000D01*
X25920000Y-61600000D02*
X25920000Y-64760000D01*
X37890000Y-66830000D02*
X37890000Y-67612500D01*
D84*
%TO.N,/Pico Remote Proc/USB_BOOT*%
X31422679Y-67490000D02*
X32590000Y-67490000D01*
X32590000Y-67490000D02*
X32890000Y-67190000D01*
X32890000Y-67190000D02*
X33390480Y-67190000D01*
D83*
%TO.N,/Pico Remote Proc/RP_USB_D_P*%
X41230000Y-64050000D02*
X42760000Y-62520000D01*
X42760000Y-62520000D02*
X44390000Y-62520000D01*
X41230000Y-66109520D02*
X41230000Y-64050000D01*
X41490480Y-67612020D02*
X41490480Y-66370000D01*
X41490480Y-66370000D02*
X41230000Y-66109520D01*
%TO.N,/Pico Remote Proc/RP_USB_D_N*%
X41890000Y-67612500D02*
X41890000Y-66151575D01*
X42528425Y-63570000D02*
X44390000Y-63570000D01*
X41890000Y-66151575D02*
X41650000Y-65911575D01*
X41650000Y-64448425D02*
X42528425Y-63570000D01*
X41650000Y-65911575D02*
X41650000Y-64448425D01*
%TO.N,+1V1*%
X41090000Y-75680000D02*
X41350000Y-75940000D01*
X42290000Y-67612500D02*
X42290000Y-65700000D01*
X40290000Y-65470000D02*
X38770000Y-63950000D01*
X41350000Y-75940000D02*
X41350000Y-76480000D01*
X40290000Y-67612500D02*
X40290000Y-65470000D01*
D84*
X38770000Y-63480000D02*
X39690000Y-63480000D01*
D83*
X41090000Y-74487500D02*
X41090000Y-75680000D01*
D84*
X42100000Y-76480000D02*
X41350000Y-76480000D01*
X42330000Y-65660000D02*
X43140000Y-65660000D01*
D83*
X38770000Y-63950000D02*
X38770000Y-63520000D01*
D84*
%TO.N,/Connectors/GPI1*%
X64123167Y-70355000D02*
X64123167Y-71145000D01*
D83*
%TO.N,/GPIO_CAN_N*%
X50903573Y-91862214D02*
X52815480Y-89950307D01*
D88*
X51015000Y-54690000D02*
X51020000Y-54695000D01*
X48970000Y-54690000D02*
X51015000Y-54690000D01*
D83*
X52815480Y-81524520D02*
X53720000Y-80620000D01*
X52815480Y-89950307D02*
X52815480Y-81524520D01*
X53720000Y-80620000D02*
X53720000Y-76645000D01*
D85*
%TO.N,/Connectors/CONN_RP_USB_D_P*%
X45410000Y-62520000D02*
X46095000Y-62520000D01*
%TO.N,/Connectors/CONN_RP_USB_D_N*%
X45410000Y-63570000D02*
X46095000Y-63570000D01*
D84*
%TO.N,/Connectors/USB_D_N*%
X32895000Y-55257500D02*
X32895000Y-56670000D01*
X32895000Y-51710000D02*
X33215000Y-51390000D01*
D83*
X51679999Y-78520001D02*
X51679999Y-76879499D01*
X51679999Y-76879499D02*
X51555000Y-76754500D01*
D84*
X32895000Y-55257500D02*
X32895000Y-51710000D01*
D83*
X51380000Y-78820000D02*
X51679999Y-78520001D01*
D84*
%TO.N,/Connectors/USB_D_P*%
X34795000Y-55257500D02*
X34795000Y-56670000D01*
X34795000Y-54000000D02*
X37405000Y-51390000D01*
D83*
X52430000Y-78820000D02*
X52130001Y-78520001D01*
X52130001Y-76879499D02*
X52255000Y-76754500D01*
D84*
X34795000Y-55257500D02*
X34795000Y-54000000D01*
D83*
X52130001Y-78520001D02*
X52130001Y-76879499D01*
%TO.N,/ESP32-S3/CHIP_PU*%
X52500781Y-100300781D02*
X52500781Y-100300000D01*
D86*
X29480000Y-100380000D02*
X29480000Y-99785000D01*
D83*
X54340000Y-100450000D02*
X54330000Y-100440000D01*
D88*
X55010001Y-100900001D02*
X55010001Y-101270000D01*
D85*
X57090000Y-107160000D02*
X57090000Y-104460000D01*
D86*
X30860000Y-101760000D02*
X29480000Y-100380000D01*
D83*
X52640000Y-100440000D02*
X52500781Y-100300781D01*
D85*
X59520000Y-107420000D02*
X57350000Y-107420000D01*
X57090000Y-104460000D02*
X55010001Y-102380001D01*
D88*
X54340000Y-100450000D02*
X54560000Y-100450000D01*
D86*
X36850000Y-99950000D02*
X35040000Y-101760000D01*
D85*
X55010001Y-102380001D02*
X55010001Y-101270000D01*
D83*
X52500781Y-100300000D02*
X50620730Y-98419949D01*
D85*
X57350000Y-107420000D02*
X57090000Y-107160000D01*
D83*
X54330000Y-100440000D02*
X52640000Y-100440000D01*
D88*
X54560000Y-100450000D02*
X55010001Y-100900001D01*
D86*
X35040000Y-101760000D02*
X30860000Y-101760000D01*
D85*
%TO.N,/ESP32-S3/RF_ANT_EXT*%
X51530000Y-106930000D02*
X51530000Y-108660000D01*
X52550000Y-106660001D02*
X51799999Y-106660001D01*
X51799999Y-106660001D02*
X51530000Y-106930000D01*
X51290000Y-108900000D02*
X50710000Y-108900000D01*
X51530000Y-108660000D02*
X51290000Y-108900000D01*
D86*
%TO.N,Net-(C37-Pad1)*%
X69270000Y-107420000D02*
X67520000Y-107420000D01*
D84*
%TO.N,Net-(R5-Pad2)*%
X57833167Y-72155000D02*
X57833167Y-73185000D01*
D83*
%TO.N,/GPIO_GPI1*%
X59524520Y-74140480D02*
X48010480Y-74140480D01*
X59983167Y-72805000D02*
X59983167Y-73681833D01*
X59983167Y-73681833D02*
X59524520Y-74140480D01*
X48010480Y-74140480D02*
X46320000Y-72450000D01*
X46320000Y-72450000D02*
X43927500Y-72450000D01*
%TO.N,/Pico Remote Proc/RP_SD1*%
X38290000Y-66664994D02*
X38290000Y-67612500D01*
X28630000Y-61095000D02*
X27645000Y-61095000D01*
X37095006Y-65470000D02*
X38290000Y-66664994D01*
X27645000Y-61095000D02*
X26490000Y-62250000D01*
X26490000Y-62250000D02*
X26490000Y-64420000D01*
X27540000Y-65470000D02*
X37095006Y-65470000D01*
X26490000Y-64420000D02*
X27540000Y-65470000D01*
D84*
%TO.N,Net-(R10-Pad1)*%
X64123167Y-72155000D02*
X64123167Y-73185000D01*
D83*
%TO.N,/GPIO_GPI2*%
X61883167Y-71505000D02*
X61213167Y-71505000D01*
X61213167Y-71505000D02*
X61053167Y-71665000D01*
X43927500Y-72850000D02*
X46030000Y-72850000D01*
X61053167Y-74035000D02*
X60568167Y-74520000D01*
X47700000Y-74520000D02*
X60568167Y-74520000D01*
X61053167Y-71665000D02*
X61053167Y-74035000D01*
X46030000Y-72850000D02*
X47700000Y-74520000D01*
D84*
%TO.N,Net-(Q6-Pad2)*%
X58933167Y-76755000D02*
X58853167Y-76835000D01*
X58853167Y-75825000D02*
X58853167Y-76835000D01*
D90*
X59983167Y-76755000D02*
X58933167Y-76755000D01*
D83*
%TO.N,/GPIO_GPI3*%
X59995000Y-77416833D02*
X59983167Y-77405000D01*
X59575861Y-79364139D02*
X59995000Y-78945000D01*
X47470000Y-75200000D02*
X45520000Y-73250000D01*
X45520000Y-73250000D02*
X43927500Y-73250000D01*
X57199520Y-78587798D02*
X57975861Y-79364139D01*
X59995000Y-78945000D02*
X59995000Y-77416833D01*
X57199520Y-76274520D02*
X57199520Y-78587798D01*
X56125000Y-75200000D02*
X47470000Y-75200000D01*
X56125000Y-75200000D02*
X57199520Y-76274520D01*
X57975861Y-79364139D02*
X59575861Y-79364139D01*
D84*
%TO.N,Net-(Q6-Pad5)*%
X63023167Y-76755000D02*
X63103167Y-76835000D01*
X63103167Y-75825000D02*
X63103167Y-76835000D01*
X61883167Y-76755000D02*
X63023167Y-76755000D01*
D83*
%TO.N,/GPIO_GPI4*%
X60845000Y-78920000D02*
X60845000Y-76720000D01*
X57595000Y-79770000D02*
X59995000Y-79770000D01*
X47360000Y-75900000D02*
X56240000Y-75900000D01*
X43927500Y-73650000D02*
X45110000Y-73650000D01*
X61460000Y-76105000D02*
X61883167Y-76105000D01*
X56820000Y-78995000D02*
X57595000Y-79770000D01*
X56240000Y-75900000D02*
X56820000Y-76480000D01*
X60845000Y-76720000D02*
X61460000Y-76105000D01*
X56820000Y-76480000D02*
X56820000Y-78995000D01*
X59995000Y-79770000D02*
X60845000Y-78920000D01*
X45110000Y-73650000D02*
X47360000Y-75900000D01*
D84*
%TO.N,Net-(R12-Pad2)*%
X57833167Y-77905000D02*
X57833167Y-76835000D01*
%TO.N,Net-(R32-Pad2)*%
X64123167Y-76835000D02*
X64123167Y-77905000D01*
D83*
%TO.N,/Pico Remote Proc/RP_SD2*%
X28060000Y-65010000D02*
X37460000Y-65010000D01*
X26990000Y-62910000D02*
X26990000Y-63940000D01*
X26990000Y-63940000D02*
X28060000Y-65010000D01*
X37460000Y-65010000D02*
X38689501Y-66239501D01*
X27535000Y-62365000D02*
X26990000Y-62910000D01*
X28630000Y-62365000D02*
X27535000Y-62365000D01*
X38689501Y-66239501D02*
X38689500Y-67612000D01*
%TO.N,/Pico Remote Proc/RP_SD0*%
X37617202Y-64630480D02*
X36040480Y-64630480D01*
X39090000Y-67612500D02*
X39090000Y-66103278D01*
X36040480Y-64630480D02*
X35830000Y-64420000D01*
X39090000Y-66103278D02*
X37617202Y-64630480D01*
X35830000Y-64420000D02*
X35830000Y-63635000D01*
%TO.N,/Pico Remote Proc/RP_SCLK*%
X37700480Y-64110480D02*
X37700480Y-63010480D01*
X37700480Y-63010480D02*
X37055000Y-62365000D01*
X39490000Y-67039830D02*
X39488540Y-67038370D01*
X39488540Y-67038370D02*
X39488540Y-65898540D01*
X37055000Y-62365000D02*
X35830000Y-62365000D01*
X39490000Y-67612500D02*
X39490000Y-67039830D01*
X39488540Y-65898540D02*
X37700480Y-64110480D01*
%TO.N,/Pico Remote Proc/RP_SD3*%
X39888060Y-65728060D02*
X39888060Y-66872884D01*
X39888060Y-66872884D02*
X39890000Y-66874824D01*
X38100000Y-63940000D02*
X39888060Y-65728060D01*
X39890000Y-66874824D02*
X39890000Y-67612500D01*
X37025000Y-61095000D02*
X38100000Y-62170000D01*
X38100000Y-62170000D02*
X38100000Y-63940000D01*
X35830000Y-61095000D02*
X37025000Y-61095000D01*
D84*
%TO.N,Net-(Q5-Pad2)*%
X58853167Y-71145000D02*
X58853167Y-72155000D01*
X59983167Y-72155000D02*
X58853167Y-72155000D01*
D83*
%TO.N,/CAN_EN*%
X50667503Y-90401228D02*
X50055045Y-91013686D01*
D84*
X44445000Y-60095000D02*
X45120000Y-60095000D01*
D83*
X50667503Y-76767503D02*
X50667503Y-90401228D01*
D86*
X44020000Y-59295000D02*
X44020000Y-58500000D01*
X44445000Y-59720000D02*
X44020000Y-59295000D01*
D83*
X50645000Y-76745000D02*
X50667503Y-76767503D01*
D86*
X44445000Y-60095000D02*
X44445000Y-59720000D01*
D83*
%TO.N,/ESP32-S3/SPICS0*%
X38492086Y-87352086D02*
X35658163Y-87352086D01*
X45557575Y-89387575D02*
X47739270Y-91569270D01*
X34080000Y-87359999D02*
X35650250Y-87359999D01*
X39110000Y-87970000D02*
X38492086Y-87352086D01*
X47739270Y-91569270D02*
X47739270Y-91579371D01*
X44210801Y-88007705D02*
X44173096Y-87970000D01*
X35650250Y-87359999D02*
X35658163Y-87352086D01*
X45016736Y-89387575D02*
X45557575Y-89387575D01*
X44173096Y-87970000D02*
X39110000Y-87970000D01*
D85*
%TO.N,/ESP32-S3/GPIO0_BOOTSTRAP*%
X62750000Y-102350000D02*
X62750000Y-100150000D01*
X59530000Y-103150000D02*
X61950000Y-103150000D01*
X61950000Y-103150000D02*
X62750000Y-102350000D01*
D83*
%TO.N,/ESP32-S3/GPIO45*%
X47174263Y-97854944D02*
X43299831Y-101729376D01*
%TO.N,/ESP32-S3/GPIO46*%
X43740000Y-102330000D02*
X44060000Y-102010000D01*
X44060000Y-102010000D02*
X44060000Y-101534213D01*
X44060000Y-101534213D02*
X47456427Y-98137786D01*
%TO.N,/VSENSE*%
X52600629Y-93559270D02*
X53250379Y-92909520D01*
X86373446Y-79955020D02*
X87920000Y-78408466D01*
X63184980Y-79955020D02*
X86373446Y-79955020D01*
X56880000Y-91770000D02*
X56880000Y-86260000D01*
D84*
X87420000Y-76505000D02*
X87920000Y-77005000D01*
D83*
X56880000Y-86260000D02*
X63184980Y-79955020D01*
X87920000Y-78408466D02*
X87920000Y-77005000D01*
D84*
X87420000Y-75274999D02*
X87420000Y-76505000D01*
D83*
X53250379Y-92909520D02*
X55740480Y-92909520D01*
D84*
X88370000Y-75274999D02*
X88370000Y-76555000D01*
X88370000Y-76555000D02*
X87920000Y-77005000D01*
D83*
X55740480Y-92909520D02*
X56880000Y-91770000D01*
D85*
%TO.N,/RP2040_EN*%
X41480000Y-78970000D02*
X41480000Y-85330000D01*
D83*
X43120000Y-76566722D02*
X42290000Y-75736722D01*
X42290000Y-75736722D02*
X42290000Y-74487500D01*
X43110000Y-77740000D02*
X43110000Y-78230000D01*
D86*
X56240000Y-77730000D02*
X56240000Y-91230000D01*
D83*
X52716563Y-92878443D02*
X52715770Y-92878443D01*
D85*
X41480000Y-85330000D02*
X40900000Y-85910000D01*
D83*
X56240000Y-91230000D02*
X56240000Y-91620000D01*
D85*
X42220000Y-78230000D02*
X41480000Y-78970000D01*
D83*
X52715770Y-92878443D02*
X52317786Y-93276427D01*
X56240000Y-91620000D02*
X55330000Y-92530000D01*
X53065006Y-92530000D02*
X52716563Y-92878443D01*
D85*
X40900000Y-85910000D02*
X31422679Y-85910000D01*
X43110000Y-78230000D02*
X42220000Y-78230000D01*
D83*
X55330000Y-92530000D02*
X53065006Y-92530000D01*
X43120000Y-77730000D02*
X43120000Y-76566722D01*
X43120000Y-77730000D02*
X43110000Y-77740000D01*
%TO.N,/CS1*%
X56990000Y-100390000D02*
X55260000Y-100390000D01*
X54650000Y-99780000D02*
X52550000Y-99780000D01*
X83755000Y-101740000D02*
X83755000Y-103595000D01*
X83755000Y-103595000D02*
X81840960Y-105509040D01*
X52550000Y-99780000D02*
X50907786Y-98137786D01*
X55260000Y-100390000D02*
X54650000Y-99780000D01*
X76095596Y-105509040D02*
X72325942Y-101739386D01*
X81840960Y-105509040D02*
X76095596Y-105509040D01*
X50907786Y-98137786D02*
X50903573Y-98137786D01*
X72325942Y-101739386D02*
X69882104Y-101739386D01*
%TO.N,/CS2*%
X30920000Y-92310000D02*
X28240000Y-89630000D01*
X28240000Y-89630000D02*
X28240000Y-71140000D01*
X46042214Y-93276427D02*
X46042214Y-93272214D01*
X30130000Y-69250000D02*
X37052500Y-69250000D01*
X28240000Y-71140000D02*
X30130000Y-69250000D01*
X46042214Y-93272214D02*
X45080000Y-92310000D01*
X45080000Y-92310000D02*
X30920000Y-92310000D01*
D88*
%TO.N,/SX1276_RESET*%
X72290000Y-99300000D02*
X59430000Y-99300000D01*
D83*
X80505000Y-96015000D02*
X80505000Y-96840000D01*
X52631471Y-99300000D02*
X59430000Y-99300000D01*
D88*
X78460000Y-103720000D02*
X76710000Y-103720000D01*
D83*
X80030000Y-95540000D02*
X80505000Y-96015000D01*
D88*
X76710000Y-103720000D02*
X72290000Y-99300000D01*
D83*
X78460000Y-95540000D02*
X80030000Y-95540000D01*
X52631471Y-99300000D02*
X51186415Y-97854944D01*
D88*
%TO.N,/SX1276_IRQ*%
X59298520Y-98866480D02*
X72476480Y-98866480D01*
X59295000Y-98870000D02*
X59298520Y-98866480D01*
D83*
X59270000Y-98895000D02*
X52792157Y-98895000D01*
X77720000Y-97050000D02*
X75330000Y-97050000D01*
D88*
X73689571Y-100086481D02*
X76765690Y-103162600D01*
D83*
X78340000Y-97670000D02*
X77720000Y-97050000D01*
D86*
X74250000Y-97050000D02*
X74240000Y-97060000D01*
D88*
X76765690Y-103162600D02*
X77900000Y-103162600D01*
X72476480Y-98866480D02*
X73689571Y-100079571D01*
D83*
X59295000Y-98870000D02*
X59270000Y-98895000D01*
D88*
X73689571Y-100079571D02*
X73689571Y-100086481D01*
D83*
X79382500Y-97670000D02*
X78340000Y-97670000D01*
D86*
X75330000Y-97050000D02*
X74250000Y-97050000D01*
D83*
X52792157Y-98895000D02*
X51469258Y-97572101D01*
%TO.N,/SX1276/DIO1*%
X78250000Y-98320000D02*
X77960000Y-98030000D01*
X77960000Y-98030000D02*
X76970000Y-98029999D01*
X79382500Y-98320000D02*
X78250000Y-98320000D01*
%TO.N,/SX1276/DIO2*%
X79382500Y-98970000D02*
X77960000Y-98970000D01*
X77960000Y-98970000D02*
X77799511Y-98809511D01*
X77799511Y-98809511D02*
X75484511Y-98809511D01*
X75484511Y-98809511D02*
X75330000Y-98655000D01*
%TO.N,/SX1276/DIO3*%
X79362500Y-99600000D02*
X76970000Y-99600000D01*
X79382500Y-99620000D02*
X79362500Y-99600000D01*
%TO.N,/SX1276/DIO4*%
X75449510Y-100379511D02*
X77900490Y-100379511D01*
X75329999Y-100260000D02*
X75449510Y-100379511D01*
X77900490Y-100379511D02*
X78010000Y-100270001D01*
X78010000Y-100270001D02*
X79382501Y-100270000D01*
%TO.N,/SX1276/DIO5*%
X79382500Y-100920000D02*
X78320000Y-100920000D01*
X78320000Y-100920000D02*
X78070000Y-101170000D01*
X78070000Y-101170000D02*
X76970000Y-101170000D01*
%TO.N,/ESP32-S3/SPIHD*%
X48304955Y-91004955D02*
X45710000Y-88410000D01*
X48304955Y-91013686D02*
X48304955Y-91004955D01*
X44307914Y-88622086D02*
X42958163Y-88622086D01*
X45710000Y-88400000D02*
X45700000Y-88390000D01*
X44540000Y-88390000D02*
X44307914Y-88622086D01*
X45700000Y-88390000D02*
X44540000Y-88390000D01*
%TO.N,/ESP32-S3/SPIWP*%
X38347914Y-89892086D02*
X35658163Y-89892086D01*
X38952425Y-89287575D02*
X38347914Y-89892086D01*
X48022113Y-91292113D02*
X45640000Y-88910000D01*
X44766936Y-88883064D02*
X44362425Y-89287575D01*
X44362425Y-89287575D02*
X38952425Y-89287575D01*
X45623064Y-88883064D02*
X44766936Y-88883064D01*
%TO.N,/ESP32-S3/SPICLK*%
X47456427Y-91862214D02*
X47452214Y-91862214D01*
X45482086Y-89892086D02*
X42958163Y-89892086D01*
X45482086Y-89892086D02*
X47452214Y-91862214D01*
%TO.N,/ESP32-S3/SPIQ*%
X47173585Y-92145056D02*
X47173585Y-92143585D01*
X34030000Y-90050000D02*
X34030000Y-88860000D01*
X45587575Y-90557575D02*
X34537575Y-90557575D01*
X34030000Y-88860000D02*
X34267914Y-88622086D01*
X34537575Y-90557575D02*
X34030000Y-90050000D01*
X45587575Y-90557575D02*
X47173585Y-92143585D01*
X34267914Y-88622086D02*
X35658163Y-88622086D01*
%TO.N,/ESP32-S3/SPID*%
X42958163Y-91162086D02*
X45622086Y-91162086D01*
X45644929Y-91182086D02*
X46890742Y-92427899D01*
%TO.N,/MCPWM0_ENB*%
X56737600Y-97302400D02*
X61760000Y-92280000D01*
D86*
X100100000Y-70271730D02*
X100100000Y-67800000D01*
D83*
X52600629Y-96440730D02*
X53462299Y-97302400D01*
X61760000Y-92280000D02*
X61760000Y-91680000D01*
D86*
X61760000Y-91740000D02*
X61760000Y-85601730D01*
X61760000Y-85601730D02*
X64547690Y-82814040D01*
X64547690Y-82814040D02*
X87557690Y-82814040D01*
X87557690Y-82814040D02*
X100100000Y-70271730D01*
D83*
X53462299Y-97302400D02*
X56737600Y-97302400D01*
D86*
%TO.N,/MCPWM0_INB*%
X100750000Y-70308076D02*
X100750000Y-67800000D01*
D83*
X62650000Y-92180000D02*
X62650000Y-91670000D01*
D86*
X64748716Y-83299360D02*
X87758716Y-83299360D01*
X62650000Y-91740000D02*
X62650000Y-85398076D01*
D83*
X52317786Y-96723573D02*
X53296133Y-97701920D01*
X53296133Y-97701920D02*
X57128080Y-97701920D01*
D86*
X62650000Y-85398076D02*
X64748716Y-83299360D01*
X87758716Y-83299360D02*
X100750000Y-70308076D01*
D83*
X57128080Y-97701920D02*
X62650000Y-92180000D01*
%TO.N,/MCPWM0_ENA*%
X63500000Y-92140000D02*
X63500000Y-91650000D01*
X53129969Y-98101440D02*
X57538560Y-98101440D01*
X52034944Y-97006415D02*
X53129969Y-98101440D01*
D86*
X63500000Y-91740000D02*
X63500000Y-85234422D01*
X64949742Y-83784680D02*
X87959742Y-83784680D01*
X101410000Y-70334422D02*
X101410000Y-68033500D01*
X87959742Y-83784680D02*
X101410000Y-70334422D01*
D83*
X57538560Y-98101440D02*
X63500000Y-92140000D01*
D86*
X63500000Y-85234422D02*
X64949742Y-83784680D01*
D83*
%TO.N,/MCPWM0_INA*%
X64190000Y-92210000D02*
X64190000Y-91690000D01*
D86*
X102050000Y-70380768D02*
X102050000Y-67800000D01*
X65160000Y-84270000D02*
X88160768Y-84270000D01*
X64190000Y-85240000D02*
X65160000Y-84270000D01*
X64190000Y-91740000D02*
X64190000Y-85240000D01*
X88160768Y-84270000D02*
X102050000Y-70380768D01*
D83*
X51752101Y-97289938D02*
X52963123Y-98500960D01*
X57899040Y-98500960D02*
X64190000Y-92210000D01*
X52963123Y-98500960D02*
X57899040Y-98500960D01*
%TO.N,/ESP32-S3/GPIO19*%
X52435960Y-89763460D02*
X52435960Y-82398845D01*
X52435960Y-82398845D02*
X52430000Y-82392885D01*
X50620730Y-91578691D02*
X52435960Y-89763460D01*
X52430000Y-82392885D02*
X52430000Y-79840000D01*
%TO.N,/ESP32-S3/GPIO20*%
X51395000Y-90235011D02*
X51395000Y-79855000D01*
X51395000Y-79855000D02*
X51380000Y-79840000D01*
X51189038Y-90440973D02*
X51395000Y-90235011D01*
X51130006Y-90504409D02*
X51130006Y-90500006D01*
X51130006Y-90500006D02*
X51189039Y-90440973D01*
X50337887Y-91296528D02*
X51130006Y-90504409D01*
D89*
%TO.N,/MCPWM_RESET*%
X94510000Y-71780000D02*
X93865000Y-71780000D01*
X94901500Y-71388500D02*
X94510000Y-71780000D01*
X94901500Y-68025000D02*
X94901500Y-71388500D01*
D83*
%TO.N,/MCPWM_SLEEP*%
X56390960Y-93289040D02*
X57520000Y-92160000D01*
D86*
X95550000Y-71390000D02*
X95550000Y-68026500D01*
D83*
X53435978Y-93289040D02*
X56390960Y-93289040D01*
D86*
X63542560Y-80387440D02*
X86552560Y-80387440D01*
X86552560Y-80387440D02*
X95550000Y-71390000D01*
D83*
X57520000Y-92160000D02*
X57520000Y-91740000D01*
D86*
X57520000Y-91740000D02*
X57520000Y-86410000D01*
D83*
X52882905Y-93842113D02*
X53435978Y-93289040D01*
D86*
X57520000Y-86410000D02*
X63542560Y-80387440D01*
D84*
%TO.N,/MCPWM_FAULT*%
X96201500Y-70218500D02*
X96201500Y-68087500D01*
X96190000Y-70230000D02*
X96201500Y-70218500D01*
D83*
X50163003Y-90340042D02*
X49772202Y-90730843D01*
D86*
X68995000Y-77220000D02*
X68995000Y-76192499D01*
X68995000Y-76192499D02*
X68985000Y-76182499D01*
D83*
X50163003Y-79740000D02*
X50163003Y-90340042D01*
D86*
%TO.N,/MCPWM1_INA*%
X99450000Y-70235384D02*
X99450000Y-67800000D01*
X60870000Y-85805384D02*
X64346664Y-82328720D01*
X87356664Y-82328720D02*
X99450000Y-70235384D01*
D83*
X60870000Y-92420000D02*
X60870000Y-91790000D01*
X52883472Y-96158567D02*
X53627453Y-96902548D01*
D86*
X64346664Y-82328720D02*
X87356664Y-82328720D01*
X60870000Y-91740000D02*
X60870000Y-85805384D01*
D83*
X53627453Y-96902548D02*
X56387452Y-96902548D01*
X56387452Y-96902548D02*
X60870000Y-92420000D01*
D86*
%TO.N,/MCPWM1_ENA*%
X59990000Y-91740000D02*
X59990000Y-85999038D01*
D83*
X53794297Y-96503028D02*
X56136972Y-96503028D01*
X53166314Y-95875045D02*
X53794297Y-96503028D01*
D86*
X98810000Y-70189038D02*
X98810000Y-67800000D01*
D83*
X56136972Y-96503028D02*
X59980000Y-92660000D01*
D86*
X59990000Y-85999038D02*
X64145638Y-81843400D01*
X64145638Y-81843400D02*
X87155638Y-81843400D01*
X87155638Y-81843400D02*
X98810000Y-70189038D01*
D83*
X59980000Y-92660000D02*
X59980000Y-91640000D01*
D86*
%TO.N,/MCPWM1_INB*%
X59100000Y-91740000D02*
X59100000Y-86202692D01*
X86954612Y-81358080D02*
X98150000Y-70162692D01*
D83*
X53808875Y-94048080D02*
X57731920Y-94048080D01*
X59100000Y-92680000D02*
X59100000Y-91660000D01*
D86*
X59100000Y-86202692D02*
X63944612Y-81358080D01*
X98150000Y-70162692D02*
X98150000Y-67800000D01*
X63944612Y-81358080D02*
X86954612Y-81358080D01*
D83*
X53708875Y-94148080D02*
X53808875Y-94048080D01*
X57731920Y-94048080D02*
X59100000Y-92680000D01*
%TO.N,/MCPWM1_ENB*%
X53166314Y-94124277D02*
X53622031Y-93668560D01*
D86*
X58240000Y-91740000D02*
X58240000Y-86380000D01*
D83*
X58240000Y-92560000D02*
X58240000Y-91240000D01*
D86*
X58340000Y-86276346D02*
X63743586Y-80872760D01*
X63743586Y-80872760D02*
X86753586Y-80872760D01*
X97500000Y-70126346D02*
X97500000Y-67800000D01*
D83*
X57131440Y-93668560D02*
X58240000Y-92560000D01*
X53622031Y-93668560D02*
X57131440Y-93668560D01*
D86*
X58240000Y-86380000D02*
X58370000Y-86250000D01*
X86753586Y-80872760D02*
X97500000Y-70126346D01*
D85*
%TO.N,Net-(C56-Pad1)*%
X88190000Y-97290001D02*
X87215000Y-97290000D01*
X88180000Y-97280001D02*
X88190000Y-97290001D01*
X87215000Y-98310000D02*
X87215000Y-97290000D01*
X88180000Y-96250000D02*
X88180000Y-97280001D01*
%TO.N,Net-(C57-Pad1)*%
X88200000Y-100950000D02*
X88190000Y-100940000D01*
X88200000Y-101960000D02*
X88200000Y-100950000D01*
X87215000Y-99610000D02*
X87215000Y-100940000D01*
X87215000Y-100940000D02*
X88190000Y-100940000D01*
%TO.N,Net-(C58-Pad2)*%
X89140000Y-96250000D02*
X89140000Y-98314999D01*
X89140000Y-98314999D02*
X89135000Y-98319999D01*
%TO.N,Net-(C59-Pad2)*%
X89160000Y-99895000D02*
X89155000Y-99890000D01*
X89160000Y-101960000D02*
X89160000Y-99895000D01*
%TO.N,Net-(C60-Pad1)*%
X91060000Y-97809998D02*
X92089998Y-97809998D01*
X90105000Y-97735000D02*
X90105000Y-97285001D01*
X90179998Y-97809998D02*
X90105000Y-97735000D01*
X90105000Y-97285001D02*
X90100000Y-97280001D01*
X90105000Y-98319999D02*
X90105000Y-97735000D01*
X91060000Y-97809998D02*
X90179998Y-97809998D01*
X92085000Y-97805000D02*
X92090000Y-97810000D01*
X92085000Y-96750000D02*
X92085000Y-97805000D01*
%TO.N,Net-(C61-Pad1)*%
X90125000Y-100935000D02*
X90120000Y-100940000D01*
X90140000Y-100430000D02*
X90125000Y-100415000D01*
X91070000Y-100430000D02*
X90140000Y-100430000D01*
X92095000Y-100430001D02*
X92095000Y-101535000D01*
X90125000Y-99890000D02*
X90125000Y-100415000D01*
X92095000Y-101535000D02*
X92100000Y-101540000D01*
X91070000Y-100430000D02*
X92095000Y-100430001D01*
X90125000Y-100415000D02*
X90125000Y-100935000D01*
%TO.N,Net-(C64-Pad1)*%
X93050000Y-97810000D02*
X94100000Y-97810000D01*
X94100000Y-97810000D02*
X94110000Y-97800000D01*
X93055000Y-96750000D02*
X93055000Y-95725000D01*
X93055000Y-97805000D02*
X93050000Y-97810000D01*
X93055000Y-96750000D02*
X93055000Y-97805000D01*
X93055000Y-95725000D02*
X93060000Y-95720000D01*
%TO.N,Net-(C65-Pad1)*%
X93065000Y-100430001D02*
X94119999Y-100430000D01*
X93065000Y-100430001D02*
X93065000Y-99434999D01*
X93065000Y-100430001D02*
X93065000Y-101535000D01*
X93060000Y-101540000D02*
X93060000Y-102500000D01*
X93065000Y-99434999D02*
X93070000Y-99429999D01*
X93065000Y-101535000D02*
X93060000Y-101540000D01*
%TO.N,/SX1276/RFIO*%
X84580000Y-99615000D02*
X86240000Y-99615000D01*
X86240000Y-99615000D02*
X86245000Y-99610000D01*
D86*
%TO.N,/ESP32-S3/CTS*%
X32214680Y-100574680D02*
X32020000Y-100380000D01*
D83*
X61630000Y-100250000D02*
X61730000Y-100150000D01*
X55795500Y-99804500D02*
X58314500Y-99804500D01*
X58760000Y-100250000D02*
X61630000Y-100250000D01*
D86*
X32020000Y-100380000D02*
X32020000Y-99785000D01*
D83*
X55790000Y-99810000D02*
X55795500Y-99804500D01*
D86*
X34165320Y-100574680D02*
X32214680Y-100574680D01*
X35480000Y-99260000D02*
X34165320Y-100574680D01*
D83*
X58314500Y-99804500D02*
X58760000Y-100250000D01*
D86*
%TO.N,/ESP32-S3/TXD*%
X37570000Y-98700000D02*
X38050000Y-98700000D01*
D83*
X43964201Y-100500000D02*
X42100000Y-100500000D01*
X46890742Y-97572101D02*
X45527100Y-98935743D01*
D86*
X37080000Y-98700000D02*
X34670000Y-101110000D01*
D83*
X45527100Y-98937101D02*
X43964201Y-100500000D01*
D86*
X34670000Y-101110000D02*
X31560000Y-101110000D01*
X38050000Y-98700000D02*
X39850000Y-100500000D01*
X39850000Y-100500000D02*
X42080000Y-100500000D01*
D83*
X45527100Y-98935743D02*
X45527100Y-98937101D01*
D86*
X37570000Y-98700000D02*
X37080000Y-98700000D01*
X31560000Y-101110000D02*
X30750000Y-100300000D01*
X30750000Y-100300000D02*
X30750000Y-99785000D01*
%TO.N,/ESP32-S3/RXD*%
X31405000Y-97000000D02*
X30750000Y-97655000D01*
X37130000Y-97000000D02*
X39840000Y-99710000D01*
X30750000Y-97655000D02*
X30750000Y-98515000D01*
X39840000Y-99710000D02*
X40660000Y-99710000D01*
X33880000Y-97000000D02*
X31405000Y-97000000D01*
X33880000Y-97000000D02*
X37130000Y-97000000D01*
D85*
%TO.N,Net-(AE3-Pad1)*%
X95670000Y-97100000D02*
X96543795Y-97100000D01*
X94930001Y-99429999D02*
X95070000Y-99290000D01*
X95070000Y-97700000D02*
X95670000Y-97100000D01*
X94090000Y-99429999D02*
X94930001Y-99429999D01*
X95070000Y-99290000D02*
X95070000Y-97700000D01*
D87*
%TO.N,Net-(D6-Pad1)*%
X67195000Y-72999999D02*
X67195000Y-74497499D01*
D85*
%TO.N,Net-(J10-Pad2)*%
X93060001Y-104814999D02*
X93060000Y-103520000D01*
%TO.N,Net-(AE4-Pad1)*%
X95160000Y-95720000D02*
X95600000Y-95280000D01*
X94070000Y-95720000D02*
X95160000Y-95720000D01*
X95600000Y-95280000D02*
X96543795Y-95280000D01*
%TO.N,Net-(J2-Pad2)*%
X93060000Y-93455001D02*
X93080000Y-93435001D01*
X93060000Y-94700000D02*
X93060000Y-93455001D01*
D87*
%TO.N,Net-(D9-Pad1)*%
X68985000Y-74532499D02*
X68985000Y-72994999D01*
D86*
%TO.N,/External-IO/VOUT_EN*%
X85620000Y-65585000D02*
X85620000Y-63830000D01*
D84*
X84830001Y-62080001D02*
X84830001Y-63700000D01*
X83595000Y-58695000D02*
X83595000Y-60845000D01*
D86*
X85370000Y-65835000D02*
X85620000Y-65585000D01*
D84*
X83595000Y-60845000D02*
X84830001Y-62080001D01*
X82690000Y-55070001D02*
X82690000Y-57790000D01*
X82690000Y-57790000D02*
X83595000Y-58695000D01*
D86*
X85620000Y-63830000D02*
X85490000Y-63700000D01*
X85490000Y-63700000D02*
X84830001Y-63700000D01*
%TO.N,/VIN*%
X90610000Y-68300000D02*
X88580000Y-70330000D01*
D87*
X105445000Y-55870000D02*
X105445000Y-54645000D01*
D86*
X89390000Y-74710000D02*
X89390000Y-75274999D01*
X87240000Y-70330000D02*
X86530000Y-71040000D01*
X86530000Y-74061190D02*
X87058810Y-74590000D01*
X88580000Y-70330000D02*
X87240000Y-70330000D01*
X86530000Y-71040000D02*
X86530000Y-74061190D01*
X87058810Y-74590000D02*
X89270000Y-74590000D01*
X89270000Y-74590000D02*
X89390000Y-74710000D01*
%TO.N,/Connectors/FUSE_OUT*%
X86125000Y-67485000D02*
X86180000Y-67430000D01*
X86217500Y-64462500D02*
X86987500Y-64462500D01*
X86180000Y-64500000D02*
X86217500Y-64462500D01*
X85370000Y-67485000D02*
X86125000Y-67485000D01*
X86180000Y-67430000D02*
X86180000Y-64500000D01*
D84*
%TO.N,/Connectors/LEDA*%
X65895000Y-62445000D02*
X60720000Y-62445000D01*
X59220000Y-63945000D02*
X56132500Y-63945000D01*
X60720000Y-62445000D02*
X59220000Y-63945000D01*
D91*
%TO.N,/Connectors/IGNITION*%
X108220000Y-46070000D02*
X108220000Y-55845000D01*
X108220000Y-55845000D02*
X108245000Y-55870000D01*
X107190000Y-45040000D02*
X108220000Y-46070000D01*
X104975000Y-45040000D02*
X107190000Y-45040000D01*
D84*
%TO.N,Net-(Q5-Pad5)*%
X61883167Y-72155000D02*
X63103167Y-72155000D01*
X63103167Y-72155000D02*
X63103167Y-71145000D01*
%TD*%
%TA.AperFunction,Conductor*%
%TO.N,GND*%
G36*
X96402121Y-85990002D02*
G01*
X96448614Y-86043658D01*
X96460000Y-86096000D01*
X96460000Y-89144000D01*
X96439998Y-89212121D01*
X96386342Y-89258614D01*
X96334000Y-89270000D01*
X95586000Y-89270000D01*
X95517879Y-89249998D01*
X95471386Y-89196342D01*
X95460000Y-89144000D01*
X95460000Y-86970000D01*
X93286000Y-86970000D01*
X93217879Y-86949998D01*
X93171386Y-86896342D01*
X93160000Y-86844000D01*
X93160000Y-86096000D01*
X93180002Y-86027879D01*
X93233658Y-85981386D01*
X93286000Y-85970000D01*
X96334000Y-85970000D01*
X96402121Y-85990002D01*
G37*
%TD.AperFunction*%
%TD*%
%TA.AperFunction,Conductor*%
%TO.N,/VIN*%
G36*
X83638490Y-61965002D02*
G01*
X83684983Y-62018658D01*
X83696361Y-62069624D01*
X83729992Y-65149267D01*
X83730000Y-65150643D01*
X83730000Y-66619380D01*
X83729993Y-66620679D01*
X83725672Y-67039798D01*
X83704969Y-67107709D01*
X83650837Y-67153646D01*
X83599679Y-67164499D01*
X83156166Y-67164499D01*
X83138248Y-67166193D01*
X83132278Y-67166757D01*
X83132277Y-67166757D01*
X83124631Y-67167480D01*
X82996816Y-67212365D01*
X82989246Y-67217957D01*
X82989243Y-67217958D01*
X82904794Y-67280334D01*
X82887850Y-67292849D01*
X82882258Y-67300420D01*
X82812959Y-67394242D01*
X82812958Y-67394245D01*
X82807366Y-67401815D01*
X82804247Y-67410697D01*
X82768577Y-67512272D01*
X82727134Y-67569917D01*
X82661104Y-67596006D01*
X82650472Y-67596522D01*
X80679400Y-67608540D01*
X80566768Y-67609227D01*
X80498527Y-67589640D01*
X80451708Y-67536269D01*
X80440000Y-67483229D01*
X80440000Y-65776000D01*
X80460002Y-65707879D01*
X80513658Y-65661386D01*
X80566000Y-65650000D01*
X82560000Y-65650000D01*
X82555502Y-64867348D01*
X82555500Y-64866624D01*
X82555500Y-64516782D01*
X82554696Y-64511318D01*
X82553355Y-64493699D01*
X82550000Y-63910000D01*
X82537609Y-63909625D01*
X82537607Y-63909624D01*
X82428692Y-63906324D01*
X82341559Y-63903684D01*
X82274076Y-63881628D01*
X82229230Y-63826589D01*
X82219378Y-63778386D01*
X82211236Y-62186571D01*
X82230889Y-62118349D01*
X82248139Y-62096832D01*
X82363066Y-61981905D01*
X82425378Y-61947879D01*
X82452161Y-61945000D01*
X83570369Y-61945000D01*
X83638490Y-61965002D01*
G37*
%TD.AperFunction*%
%TD*%
%TA.AperFunction,Conductor*%
%TO.N,/Connectors/GPO2*%
G36*
X77792121Y-54010002D02*
G01*
X77838614Y-54063658D01*
X77850000Y-54116000D01*
X77850000Y-56014554D01*
X77829998Y-56082675D01*
X77776342Y-56129168D01*
X77724557Y-56140553D01*
X76843601Y-56144433D01*
X75706555Y-56149442D01*
X75638347Y-56129740D01*
X75591618Y-56076290D01*
X75580000Y-56023443D01*
X75580000Y-54116000D01*
X75600002Y-54047879D01*
X75653658Y-54001386D01*
X75706000Y-53990000D01*
X77724000Y-53990000D01*
X77792121Y-54010002D01*
G37*
%TD.AperFunction*%
%TD*%
%TA.AperFunction,Conductor*%
%TO.N,/Connectors/MOTOR1_OUT1*%
G36*
X106442121Y-50020002D02*
G01*
X106488614Y-50073658D01*
X106500000Y-50126000D01*
X106500000Y-53874000D01*
X106479998Y-53942121D01*
X106426342Y-53988614D01*
X106374000Y-54000000D01*
X105754575Y-54000000D01*
X105709419Y-53991631D01*
X105704597Y-53989780D01*
X105697881Y-53986224D01*
X105533441Y-53944919D01*
X105525843Y-53944879D01*
X105525841Y-53944879D01*
X105448668Y-53944475D01*
X105363895Y-53944031D01*
X105356508Y-53945805D01*
X105356504Y-53945805D01*
X105213162Y-53980220D01*
X105199032Y-53983612D01*
X105192285Y-53987094D01*
X105185160Y-53989744D01*
X105184643Y-53988353D01*
X105136681Y-54000000D01*
X100300000Y-54000000D01*
X100300000Y-63174000D01*
X100279998Y-63242121D01*
X100226342Y-63288614D01*
X100174000Y-63300000D01*
X100026000Y-63300000D01*
X99957879Y-63279998D01*
X99911386Y-63226342D01*
X99900000Y-63174000D01*
X99900000Y-61500000D01*
X99536905Y-61136905D01*
X99502879Y-61074593D01*
X99500000Y-61047810D01*
X99500000Y-52926000D01*
X99520002Y-52857879D01*
X99573658Y-52811386D01*
X99626000Y-52800000D01*
X103000000Y-52800000D01*
X103000000Y-50126000D01*
X103020002Y-50057879D01*
X103073658Y-50011386D01*
X103126000Y-50000000D01*
X106374000Y-50000000D01*
X106442121Y-50020002D01*
G37*
%TD.AperFunction*%
%TD*%
%TA.AperFunction,Conductor*%
%TO.N,/Connectors/GPO3*%
G36*
X80592121Y-54000002D02*
G01*
X80638614Y-54053658D01*
X80650000Y-54106000D01*
X80650000Y-56004554D01*
X80629998Y-56072675D01*
X80576342Y-56119168D01*
X80524557Y-56130553D01*
X79661731Y-56134354D01*
X78506555Y-56139443D01*
X78438347Y-56119741D01*
X78391618Y-56066291D01*
X78380000Y-56013444D01*
X78380000Y-54106000D01*
X78400002Y-54037879D01*
X78453658Y-53991386D01*
X78506000Y-53980000D01*
X80524000Y-53980000D01*
X80592121Y-54000002D01*
G37*
%TD.AperFunction*%
%TD*%
%TA.AperFunction,Conductor*%
%TO.N,/External-IO/VOUT_EN*%
G36*
X83132122Y-54010002D02*
G01*
X83178615Y-54063658D01*
X83190001Y-54116000D01*
X83190000Y-56014554D01*
X83169998Y-56082675D01*
X83116342Y-56129168D01*
X83064557Y-56140553D01*
X82183601Y-56144433D01*
X81046555Y-56149442D01*
X80978347Y-56129740D01*
X80931618Y-56076290D01*
X80920000Y-56023443D01*
X80920000Y-54116000D01*
X80940002Y-54047879D01*
X80993658Y-54001386D01*
X81046000Y-53990000D01*
X83064001Y-53990000D01*
X83132122Y-54010002D01*
G37*
%TD.AperFunction*%
%TD*%
%TA.AperFunction,Conductor*%
%TO.N,/Connectors/VOUT*%
G36*
X93719601Y-54195144D02*
G01*
X96284089Y-54199773D01*
X96352174Y-54219898D01*
X96398570Y-54273638D01*
X96409862Y-54325909D01*
X96406587Y-57305895D01*
X96400138Y-63174138D01*
X96380061Y-63242237D01*
X96326354Y-63288671D01*
X96274138Y-63300000D01*
X96126000Y-63300000D01*
X96057879Y-63279998D01*
X96011386Y-63226342D01*
X96000000Y-63174000D01*
X96000000Y-61500000D01*
X95339775Y-60546342D01*
X95122404Y-60232361D01*
X95100000Y-60160641D01*
X95100000Y-57300000D01*
X92800000Y-57300000D01*
X92791393Y-64909200D01*
X92790058Y-66089011D01*
X92769979Y-66157109D01*
X92754497Y-66176599D01*
X91207123Y-67771731D01*
X91145335Y-67806699D01*
X91116684Y-67810000D01*
X88990000Y-67810000D01*
X88990000Y-69314645D01*
X88969998Y-69382766D01*
X88916342Y-69429259D01*
X88864647Y-69440643D01*
X87166644Y-69449351D01*
X87098424Y-69429699D01*
X87051656Y-69376282D01*
X87040000Y-69323353D01*
X87040000Y-65496000D01*
X87060002Y-65427879D01*
X87113658Y-65381386D01*
X87166000Y-65370000D01*
X90000000Y-65370000D01*
X90580000Y-64920000D01*
X90571006Y-61030044D01*
X90562045Y-61023334D01*
X90562043Y-61023332D01*
X90034501Y-60628321D01*
X90020000Y-60617463D01*
X89990000Y-60595000D01*
X84244249Y-60590038D01*
X84206386Y-60546342D01*
X84200000Y-60516985D01*
X84200000Y-54210000D01*
X90020000Y-54192549D01*
X90869791Y-54190001D01*
X90870081Y-54190000D01*
X93719601Y-54195144D01*
G37*
%TD.AperFunction*%
%TD*%
%TA.AperFunction,Conductor*%
%TO.N,/Connectors/VOUT*%
G36*
X89962121Y-50040002D02*
G01*
X90008614Y-50093658D01*
X90020000Y-50146000D01*
X90020000Y-60494000D01*
X89999998Y-60562121D01*
X89946342Y-60608614D01*
X89894000Y-60620000D01*
X84321000Y-60620000D01*
X84252879Y-60599998D01*
X84206386Y-60546342D01*
X84195000Y-60494000D01*
X84195000Y-54137564D01*
X84215002Y-54069443D01*
X84220813Y-54061154D01*
X85726514Y-52086905D01*
X85726514Y-52086904D01*
X85737500Y-52072500D01*
X85739847Y-50145847D01*
X85759932Y-50077750D01*
X85813644Y-50031323D01*
X85865847Y-50020000D01*
X89894000Y-50020000D01*
X89962121Y-50040002D01*
G37*
%TD.AperFunction*%
%TD*%
%TA.AperFunction,Conductor*%
%TO.N,/Connectors/FUSE_OUT*%
G36*
X89869205Y-61089633D02*
G01*
X89937267Y-61109833D01*
X89983603Y-61163625D01*
X89994837Y-61215795D01*
X89990163Y-64824163D01*
X89970073Y-64892258D01*
X89916357Y-64938681D01*
X89864163Y-64950000D01*
X86696000Y-64950000D01*
X86627879Y-64929998D01*
X86581386Y-64876342D01*
X86570000Y-64824000D01*
X86570000Y-61206368D01*
X86590002Y-61138247D01*
X86643658Y-61091754D01*
X86696368Y-61080369D01*
X89869205Y-61089633D01*
G37*
%TD.AperFunction*%
%TD*%
%TA.AperFunction,Conductor*%
%TO.N,/Power/SW*%
G36*
X77142121Y-68020002D02*
G01*
X77188614Y-68073658D01*
X77200000Y-68126000D01*
X77200000Y-72874000D01*
X77179998Y-72942121D01*
X77126342Y-72988614D01*
X77074000Y-73000000D01*
X70926000Y-73000000D01*
X70857879Y-72979998D01*
X70811386Y-72926342D01*
X70800000Y-72874000D01*
X70800000Y-69526000D01*
X70820002Y-69457879D01*
X70873658Y-69411386D01*
X70926000Y-69400000D01*
X74200000Y-69400000D01*
X75262164Y-68048154D01*
X75319979Y-68006948D01*
X75361241Y-68000000D01*
X77074000Y-68000000D01*
X77142121Y-68020002D01*
G37*
%TD.AperFunction*%
%TD*%
%TA.AperFunction,Conductor*%
%TO.N,GND*%
G36*
X80242121Y-62850002D02*
G01*
X80288614Y-62903658D01*
X80300000Y-62956000D01*
X80300000Y-64258185D01*
X80276578Y-64331354D01*
X80273065Y-64336279D01*
X80265707Y-64343650D01*
X80214464Y-64448482D01*
X80204500Y-64516782D01*
X80204500Y-64883218D01*
X80205170Y-64887768D01*
X80205170Y-64887771D01*
X80213216Y-64942426D01*
X80214642Y-64952112D01*
X80266068Y-65056855D01*
X80273435Y-65064209D01*
X80276451Y-65068422D01*
X80300000Y-65141768D01*
X80300000Y-65528185D01*
X80276578Y-65601354D01*
X80273065Y-65606279D01*
X80265707Y-65613650D01*
X80214464Y-65718482D01*
X80204500Y-65786782D01*
X80204500Y-66153218D01*
X80205170Y-66157768D01*
X80205170Y-66157771D01*
X80213216Y-66212426D01*
X80214642Y-66222112D01*
X80218958Y-66230902D01*
X80227103Y-66247492D01*
X80240000Y-66303023D01*
X80240000Y-66907094D01*
X80227200Y-66962427D01*
X80214464Y-66988482D01*
X80204500Y-67056782D01*
X80204500Y-67423218D01*
X80214642Y-67492112D01*
X80218958Y-67500902D01*
X80249384Y-67562873D01*
X80253797Y-67574950D01*
X80254237Y-67574779D01*
X80257107Y-67582178D01*
X80259023Y-67589865D01*
X80262790Y-67596832D01*
X80262791Y-67596834D01*
X80284835Y-67637601D01*
X80300000Y-67697532D01*
X80300000Y-68068185D01*
X80276578Y-68141354D01*
X80273065Y-68146279D01*
X80265707Y-68153650D01*
X80214464Y-68258482D01*
X80204500Y-68326782D01*
X80204500Y-68693218D01*
X80205170Y-68697768D01*
X80205170Y-68697771D01*
X80213216Y-68752426D01*
X80214642Y-68762112D01*
X80266068Y-68866855D01*
X80273435Y-68874209D01*
X80276451Y-68878422D01*
X80300000Y-68951768D01*
X80300000Y-70800000D01*
X80351702Y-70800000D01*
X80419823Y-70820002D01*
X80459818Y-70861294D01*
X80502431Y-70932495D01*
X80507768Y-70937888D01*
X80507771Y-70937892D01*
X80563210Y-70993914D01*
X80621690Y-71053010D01*
X80766254Y-71141598D01*
X80852521Y-71169129D01*
X80920536Y-71190836D01*
X80920538Y-71190836D01*
X80927775Y-71193146D01*
X80935355Y-71193663D01*
X80935356Y-71193663D01*
X81089354Y-71204162D01*
X81089358Y-71204162D01*
X81096930Y-71204678D01*
X81104406Y-71203373D01*
X81104409Y-71203373D01*
X81152337Y-71195008D01*
X81222882Y-71203000D01*
X81277908Y-71247864D01*
X81300000Y-71319132D01*
X81300000Y-72874000D01*
X81279998Y-72942121D01*
X81226342Y-72988614D01*
X81174000Y-73000000D01*
X77626124Y-73000000D01*
X77558003Y-72979998D01*
X77511510Y-72926342D01*
X77500124Y-72873876D01*
X77503974Y-68958742D01*
X77524043Y-68890641D01*
X77531202Y-68881758D01*
X77536935Y-68873721D01*
X77544293Y-68866350D01*
X77595536Y-68761518D01*
X77605500Y-68693218D01*
X77605500Y-68326782D01*
X77596871Y-68268162D01*
X77596784Y-68267574D01*
X77596784Y-68267573D01*
X77595358Y-68257888D01*
X77570860Y-68207992D01*
X77548522Y-68162493D01*
X77548521Y-68162491D01*
X77543932Y-68153145D01*
X77536563Y-68145788D01*
X77530499Y-68137319D01*
X77533247Y-68135352D01*
X77507760Y-68088782D01*
X77504856Y-68061763D01*
X77506474Y-66416238D01*
X77526543Y-66348137D01*
X77531167Y-66342399D01*
X77530887Y-66342200D01*
X77536935Y-66333720D01*
X77544293Y-66326350D01*
X77555696Y-66303023D01*
X77564730Y-66284540D01*
X77595536Y-66221518D01*
X77605500Y-66153218D01*
X77605500Y-65786782D01*
X77596871Y-65728162D01*
X77596784Y-65727574D01*
X77596784Y-65727573D01*
X77595358Y-65717888D01*
X77570860Y-65667992D01*
X77548522Y-65622493D01*
X77548521Y-65622491D01*
X77543932Y-65613145D01*
X77536562Y-65605788D01*
X77530899Y-65597878D01*
X77507351Y-65524409D01*
X77507724Y-65144881D01*
X77531146Y-65071835D01*
X77536931Y-65063725D01*
X77544293Y-65056350D01*
X77595536Y-64951518D01*
X77605500Y-64883218D01*
X77605500Y-64516782D01*
X77596871Y-64458162D01*
X77596784Y-64457574D01*
X77596784Y-64457573D01*
X77595358Y-64447888D01*
X77570860Y-64397992D01*
X77548522Y-64352493D01*
X77548521Y-64352491D01*
X77543932Y-64343145D01*
X77536562Y-64335788D01*
X77532147Y-64329621D01*
X77508598Y-64256150D01*
X77509161Y-63682903D01*
X77510712Y-63663316D01*
X77518916Y-63611518D01*
X77520500Y-63601519D01*
X77520499Y-62988482D01*
X77518476Y-62975709D01*
X77527576Y-62905299D01*
X77573298Y-62850985D01*
X77642925Y-62830000D01*
X80174000Y-62830000D01*
X80242121Y-62850002D01*
G37*
%TD.AperFunction*%
%TD*%
%TA.AperFunction,Conductor*%
%TO.N,/Connectors/FUSE_IN*%
G36*
X58998334Y-50012190D02*
G01*
X59670235Y-50018777D01*
X59738157Y-50039446D01*
X59784121Y-50093555D01*
X59795000Y-50144771D01*
X59795000Y-61494607D01*
X59774998Y-61562728D01*
X59721342Y-61609221D01*
X59669610Y-61620606D01*
X54747310Y-61644385D01*
X54679093Y-61624712D01*
X54632342Y-61571281D01*
X54620703Y-61517690D01*
X54669304Y-52720917D01*
X54689682Y-52652908D01*
X54743594Y-52606712D01*
X54795916Y-52595614D01*
X55720047Y-52600122D01*
X57214384Y-52607412D01*
X57214385Y-52607412D01*
X57232500Y-52607500D01*
X57244394Y-50121632D01*
X57264722Y-50053608D01*
X57318600Y-50007372D01*
X57371626Y-49996241D01*
X58998334Y-50012190D01*
G37*
%TD.AperFunction*%
%TD*%
%TA.AperFunction,Conductor*%
%TO.N,/Connectors/GPO1*%
G36*
X75252121Y-54010002D02*
G01*
X75298614Y-54063658D01*
X75310000Y-54116000D01*
X75310000Y-56014555D01*
X75289998Y-56082676D01*
X75236342Y-56129169D01*
X75184557Y-56140554D01*
X73166553Y-56149443D01*
X73098347Y-56129741D01*
X73051618Y-56076291D01*
X73040000Y-56023444D01*
X73040000Y-54116000D01*
X73060002Y-54047879D01*
X73113658Y-54001386D01*
X73166000Y-53990000D01*
X75184000Y-53990000D01*
X75252121Y-54010002D01*
G37*
%TD.AperFunction*%
%TD*%
%TA.AperFunction,Conductor*%
%TO.N,/Connectors/FUSE_OUT*%
G36*
X71016246Y-52554641D02*
G01*
X72515105Y-52559588D01*
X72583159Y-52579814D01*
X72629475Y-52633623D01*
X72640687Y-52684894D01*
X72689302Y-61523168D01*
X72669675Y-61591398D01*
X72616276Y-61638185D01*
X72563166Y-61649861D01*
X68245517Y-61645137D01*
X68177418Y-61625060D01*
X68130984Y-61571354D01*
X68119655Y-61519483D01*
X68095348Y-52671763D01*
X68115163Y-52603588D01*
X68168691Y-52556948D01*
X68221762Y-52545418D01*
X71016246Y-52554641D01*
G37*
%TD.AperFunction*%
%TD*%
%TA.AperFunction,Conductor*%
%TO.N,/Connectors/MOTOR1_OUT2*%
G36*
X102642121Y-50020002D02*
G01*
X102688614Y-50073658D01*
X102700000Y-50126000D01*
X102700000Y-52474000D01*
X102679998Y-52542121D01*
X102626342Y-52588614D01*
X102574000Y-52600000D01*
X99300000Y-52600000D01*
X99300000Y-61057017D01*
X99279998Y-61125138D01*
X99274897Y-61132487D01*
X99000000Y-61500000D01*
X99000000Y-63174000D01*
X98979998Y-63242121D01*
X98926342Y-63288614D01*
X98874000Y-63300000D01*
X98640936Y-63300000D01*
X98572815Y-63279998D01*
X98526322Y-63226342D01*
X98516218Y-63156068D01*
X98525696Y-63123052D01*
X98545175Y-63078992D01*
X98549006Y-63070327D01*
X98552000Y-63044646D01*
X98552000Y-61680354D01*
X98548882Y-61654154D01*
X98510847Y-61568525D01*
X98500000Y-61517381D01*
X98500000Y-50126000D01*
X98520002Y-50057879D01*
X98573658Y-50011386D01*
X98626000Y-50000000D01*
X102574000Y-50000000D01*
X102642121Y-50020002D01*
G37*
%TD.AperFunction*%
%TD*%
%TA.AperFunction,Conductor*%
%TO.N,+3V3*%
G36*
X84851357Y-71190519D02*
G01*
X84898320Y-71243764D01*
X84910171Y-71296942D01*
X84919830Y-78473830D01*
X84899920Y-78541978D01*
X84846326Y-78588543D01*
X84793830Y-78600000D01*
X70926000Y-78600000D01*
X70857879Y-78579998D01*
X70811386Y-78526342D01*
X70800000Y-78474000D01*
X70800000Y-73626000D01*
X70820002Y-73557879D01*
X70873658Y-73511386D01*
X70926000Y-73500000D01*
X81500000Y-73500000D01*
X81500000Y-71348182D01*
X81520002Y-71280061D01*
X81573658Y-71233568D01*
X81643932Y-71223464D01*
X81667748Y-71229299D01*
X81679905Y-71233568D01*
X81719632Y-71247519D01*
X81727278Y-71248242D01*
X81727279Y-71248242D01*
X81733249Y-71248806D01*
X81751167Y-71250500D01*
X82358835Y-71250500D01*
X82376753Y-71248806D01*
X82382723Y-71248242D01*
X82382724Y-71248242D01*
X82390370Y-71247519D01*
X82512000Y-71204806D01*
X82512004Y-71204805D01*
X82518185Y-71202634D01*
X82518380Y-71203191D01*
X82568114Y-71190603D01*
X82831324Y-71188287D01*
X83425426Y-71183061D01*
X83484964Y-71197572D01*
X83491817Y-71202634D01*
X83619632Y-71247519D01*
X83627278Y-71248242D01*
X83627279Y-71248242D01*
X83633249Y-71248806D01*
X83651167Y-71250500D01*
X84258835Y-71250500D01*
X84276753Y-71248806D01*
X84282723Y-71248242D01*
X84282724Y-71248242D01*
X84290370Y-71247519D01*
X84418185Y-71202634D01*
X84425762Y-71197038D01*
X84434083Y-71192632D01*
X84435118Y-71194588D01*
X84497844Y-71173626D01*
X84504326Y-71173569D01*
X84783063Y-71171117D01*
X84851357Y-71190519D01*
G37*
%TD.AperFunction*%
%TD*%
%TA.AperFunction,Conductor*%
%TO.N,GND*%
G36*
X77505084Y-67829682D02*
G01*
X77285177Y-67829303D01*
X77220071Y-67829191D01*
X77184790Y-67824087D01*
X77134669Y-67809370D01*
X77134665Y-67809369D01*
X77130346Y-67808101D01*
X77125898Y-67807461D01*
X77125891Y-67807460D01*
X77078448Y-67800639D01*
X77078441Y-67800639D01*
X77074000Y-67800000D01*
X75361241Y-67800000D01*
X75348042Y-67801104D01*
X75330645Y-67802558D01*
X75330635Y-67802559D01*
X75328031Y-67802777D01*
X75286769Y-67809725D01*
X75271278Y-67816147D01*
X75222808Y-67825754D01*
X73250535Y-67822359D01*
X72006827Y-67820218D01*
X71938741Y-67800099D01*
X71892340Y-67746363D01*
X71881048Y-67693177D01*
X71888969Y-66734744D01*
X71909534Y-66666791D01*
X71963572Y-66620743D01*
X72014747Y-66609785D01*
X75318985Y-66604078D01*
X77506293Y-66600300D01*
X77505084Y-67829682D01*
G37*
%TD.AperFunction*%
%TD*%
%TA.AperFunction,Conductor*%
%TO.N,/Connectors/MOTOR2_OUT2*%
G36*
X94042121Y-50020002D02*
G01*
X94088614Y-50073658D01*
X94100000Y-50126000D01*
X94100000Y-52800000D01*
X97274000Y-52800000D01*
X97342121Y-52820002D01*
X97388614Y-52873658D01*
X97400000Y-52926000D01*
X97400000Y-61047869D01*
X97379998Y-61115990D01*
X97363168Y-61136892D01*
X97000000Y-61500653D01*
X97000000Y-63174000D01*
X96979998Y-63242121D01*
X96926342Y-63288614D01*
X96874000Y-63300000D01*
X96826000Y-63300000D01*
X96757879Y-63279998D01*
X96711386Y-63226342D01*
X96700000Y-63174000D01*
X96700000Y-54000000D01*
X96287772Y-54000000D01*
X96285417Y-53999914D01*
X96284450Y-53999773D01*
X93719962Y-53995144D01*
X90925773Y-53990100D01*
X90857688Y-53969975D01*
X90811292Y-53916235D01*
X90800000Y-53864100D01*
X90800000Y-50126000D01*
X90820002Y-50057879D01*
X90873658Y-50011386D01*
X90926000Y-50000000D01*
X93974000Y-50000000D01*
X94042121Y-50020002D01*
G37*
%TD.AperFunction*%
%TD*%
%TA.AperFunction,Conductor*%
%TO.N,/Power/PGOOD*%
G36*
X81750656Y-63250002D02*
G01*
X81797149Y-63303658D01*
X81808527Y-63357457D01*
X81791392Y-64839574D01*
X81770603Y-64907459D01*
X81716414Y-64953328D01*
X81669633Y-64964046D01*
X81337821Y-64975199D01*
X80729499Y-64995647D01*
X80660745Y-64977945D01*
X80612475Y-64925881D01*
X80599268Y-64870430D01*
X80590716Y-63356712D01*
X80610333Y-63288479D01*
X80663725Y-63241684D01*
X80716714Y-63230000D01*
X81682535Y-63230000D01*
X81750656Y-63250002D01*
G37*
%TD.AperFunction*%
%TD*%
%TA.AperFunction,Conductor*%
%TO.N,GND*%
G36*
X94442121Y-57520002D02*
G01*
X94488614Y-57573658D01*
X94500000Y-57626000D01*
X94500000Y-63500000D01*
X97300000Y-63500000D01*
X97300000Y-61626000D01*
X97320002Y-61557879D01*
X97373658Y-61511386D01*
X97426000Y-61500000D01*
X97574000Y-61500000D01*
X97642121Y-61520002D01*
X97688614Y-61573658D01*
X97700000Y-61626000D01*
X97700000Y-63500000D01*
X99200000Y-63500000D01*
X99200000Y-63069118D01*
X99200848Y-63054527D01*
X99202000Y-63044646D01*
X99202000Y-61680354D01*
X99200883Y-61670968D01*
X99200000Y-61656078D01*
X99200000Y-61626000D01*
X99220002Y-61557879D01*
X99273658Y-61511386D01*
X99326000Y-61500000D01*
X99564968Y-61500000D01*
X99633089Y-61520002D01*
X99654063Y-61536905D01*
X99663095Y-61545937D01*
X99697121Y-61608249D01*
X99700000Y-61635032D01*
X99700000Y-63500000D01*
X104974000Y-63500000D01*
X105042121Y-63520002D01*
X105088614Y-63573658D01*
X105100000Y-63626000D01*
X105100000Y-66974000D01*
X105079998Y-67042121D01*
X105026342Y-67088614D01*
X104974000Y-67100000D01*
X103000000Y-67100000D01*
X103000000Y-68774000D01*
X102979998Y-68842121D01*
X102926342Y-68888614D01*
X102874000Y-68900000D01*
X102626000Y-68900000D01*
X102557879Y-68879998D01*
X102511386Y-68826342D01*
X102500000Y-68774000D01*
X102500000Y-67100000D01*
X97100000Y-67100000D01*
X97100000Y-68774000D01*
X97079998Y-68842121D01*
X97026342Y-68888614D01*
X96974000Y-68900000D01*
X96778000Y-68900000D01*
X96709879Y-68879998D01*
X96663386Y-68826342D01*
X96652000Y-68774000D01*
X96652000Y-68053650D01*
X96650968Y-68046780D01*
X96638349Y-67962849D01*
X96638349Y-67962848D01*
X96636949Y-67953538D01*
X96614417Y-67906615D01*
X96602000Y-67852073D01*
X96602000Y-67405354D01*
X96600883Y-67395968D01*
X96600000Y-67381078D01*
X96600000Y-67170000D01*
X96438034Y-67170000D01*
X96387086Y-67159240D01*
X96380493Y-67156325D01*
X96380492Y-67156325D01*
X96371827Y-67152494D01*
X96346146Y-67149500D01*
X96056854Y-67149500D01*
X96053150Y-67149941D01*
X96053147Y-67149941D01*
X96045754Y-67150821D01*
X96030654Y-67152618D01*
X96022020Y-67156453D01*
X96022013Y-67156455D01*
X96015945Y-67159151D01*
X95964796Y-67170000D01*
X95788034Y-67170000D01*
X95737086Y-67159240D01*
X95730493Y-67156325D01*
X95730492Y-67156325D01*
X95721827Y-67152494D01*
X95696146Y-67149500D01*
X95406854Y-67149500D01*
X95403150Y-67149941D01*
X95403147Y-67149941D01*
X95395754Y-67150821D01*
X95380654Y-67152618D01*
X95372020Y-67156453D01*
X95372013Y-67156455D01*
X95365945Y-67159151D01*
X95314796Y-67170000D01*
X95138034Y-67170000D01*
X95087086Y-67159240D01*
X95080493Y-67156325D01*
X95080492Y-67156325D01*
X95071827Y-67152494D01*
X95046146Y-67149500D01*
X94756854Y-67149500D01*
X94753150Y-67149941D01*
X94753147Y-67149941D01*
X94745754Y-67150821D01*
X94730654Y-67152618D01*
X94722020Y-67156453D01*
X94722013Y-67156455D01*
X94715945Y-67159151D01*
X94664796Y-67170000D01*
X94488034Y-67170000D01*
X94437086Y-67159240D01*
X94430493Y-67156325D01*
X94430492Y-67156325D01*
X94421827Y-67152494D01*
X94396146Y-67149500D01*
X94106854Y-67149500D01*
X94103150Y-67149941D01*
X94103147Y-67149941D01*
X94095754Y-67150821D01*
X94080654Y-67152618D01*
X94072014Y-67156456D01*
X94072013Y-67156456D01*
X94064719Y-67159696D01*
X93978347Y-67198061D01*
X93899259Y-67277287D01*
X93898378Y-67279280D01*
X93875055Y-67303160D01*
X93839089Y-67329056D01*
X93810000Y-67350000D01*
X93808129Y-67401647D01*
X93761684Y-68683513D01*
X93739229Y-68750865D01*
X93728514Y-68764239D01*
X93460144Y-69056079D01*
X93409145Y-69089674D01*
X93301816Y-69127365D01*
X93294246Y-69132957D01*
X93294243Y-69132958D01*
X93209794Y-69195334D01*
X93192850Y-69207849D01*
X93187258Y-69215420D01*
X93117959Y-69309242D01*
X93117958Y-69309245D01*
X93112366Y-69316815D01*
X93067481Y-69444630D01*
X93066758Y-69452277D01*
X93065113Y-69459775D01*
X93061926Y-69459076D01*
X93041035Y-69511283D01*
X93034726Y-69518700D01*
X91911702Y-70739936D01*
X91130000Y-71590000D01*
X91129830Y-71601888D01*
X91101781Y-73565304D01*
X91080808Y-73633132D01*
X91026494Y-73678854D01*
X90975292Y-73689503D01*
X89293886Y-73682804D01*
X87008897Y-73673701D01*
X86940858Y-73653428D01*
X86894579Y-73599587D01*
X86883400Y-73547702D01*
X86883400Y-71238573D01*
X86903402Y-71170452D01*
X86920305Y-71149478D01*
X87298290Y-70771493D01*
X87360602Y-70737467D01*
X87387827Y-70734589D01*
X87747542Y-70735851D01*
X88930000Y-70740000D01*
X93100000Y-66310000D01*
X93100000Y-57626000D01*
X93120002Y-57557879D01*
X93173658Y-57511386D01*
X93226000Y-57500000D01*
X94374000Y-57500000D01*
X94442121Y-57520002D01*
G37*
%TD.AperFunction*%
%TD*%
%TA.AperFunction,NonConductor*%
G36*
X55049690Y-85064042D02*
G01*
X55072472Y-85072307D01*
X55814763Y-85425698D01*
X55867670Y-85473039D01*
X55886600Y-85539462D01*
X55886600Y-89262506D01*
X55866598Y-89330627D01*
X55812942Y-89377120D01*
X55742668Y-89387224D01*
X55678088Y-89357730D01*
X55646729Y-89316445D01*
X55051319Y-88059467D01*
X55502166Y-88059467D01*
X55609200Y-88166500D01*
X55609200Y-87952433D01*
X55502166Y-88059467D01*
X55051319Y-88059467D01*
X54820672Y-87572546D01*
X55269253Y-87572546D01*
X55385623Y-87818216D01*
X55504289Y-87699550D01*
X55323269Y-87518530D01*
X55269253Y-87572546D01*
X54820672Y-87572546D01*
X54710345Y-87339633D01*
X55502166Y-87339633D01*
X55609200Y-87446667D01*
X55609200Y-87232599D01*
X55502166Y-87339633D01*
X54710345Y-87339633D01*
X54539857Y-86979715D01*
X55142249Y-86979715D01*
X55323269Y-87160735D01*
X55504289Y-86979715D01*
X55323269Y-86798695D01*
X55142249Y-86979715D01*
X54539857Y-86979715D01*
X54357921Y-86595627D01*
X54806502Y-86595627D01*
X54850009Y-86687476D01*
X54963351Y-86800818D01*
X55144371Y-86619798D01*
X55502166Y-86619798D01*
X55609200Y-86726832D01*
X55609200Y-86512764D01*
X55502166Y-86619798D01*
X55144371Y-86619798D01*
X54963351Y-86438778D01*
X54806502Y-86595627D01*
X54357921Y-86595627D01*
X54126546Y-86107169D01*
X54575127Y-86107169D01*
X54691497Y-86352838D01*
X54784454Y-86259881D01*
X55142249Y-86259881D01*
X55323269Y-86440901D01*
X55504289Y-86259881D01*
X55323269Y-86078861D01*
X55142249Y-86259881D01*
X54784454Y-86259881D01*
X54603434Y-86078861D01*
X54575127Y-86107169D01*
X54126546Y-86107169D01*
X54103079Y-86057628D01*
X54091206Y-86011715D01*
X54084073Y-85899963D01*
X54782331Y-85899963D01*
X54963351Y-86080983D01*
X55144371Y-85899963D01*
X55502166Y-85899963D01*
X55609200Y-86006997D01*
X55609200Y-85792929D01*
X55502166Y-85899963D01*
X55144371Y-85899963D01*
X54963351Y-85718943D01*
X54782331Y-85899963D01*
X54084073Y-85899963D01*
X54073698Y-85737419D01*
X54086744Y-85673044D01*
X54091883Y-85662766D01*
X54545134Y-85662766D01*
X54603434Y-85721066D01*
X54756820Y-85567680D01*
X55169883Y-85567680D01*
X55323269Y-85721066D01*
X55377712Y-85666623D01*
X55169883Y-85567680D01*
X54756820Y-85567680D01*
X54784454Y-85540046D01*
X54716580Y-85472172D01*
X54571897Y-85609239D01*
X54545134Y-85662766D01*
X54091883Y-85662766D01*
X54231310Y-85383912D01*
X54257352Y-85348791D01*
X54490310Y-85128094D01*
X54535465Y-85100595D01*
X54778016Y-85015984D01*
X54850895Y-85012923D01*
X55049690Y-85064042D01*
G37*
%TD.AperFunction*%
%TA.AperFunction,NonConductor*%
G36*
X62262153Y-91811138D02*
G01*
X62314797Y-91863037D01*
X62334388Y-91899346D01*
X62349500Y-91959177D01*
X62349500Y-92003339D01*
X62329498Y-92071460D01*
X62312595Y-92092434D01*
X62275595Y-92129434D01*
X62213283Y-92163460D01*
X62142468Y-92158395D01*
X62085632Y-92115848D01*
X62060821Y-92049328D01*
X62060500Y-92040339D01*
X62060500Y-91965907D01*
X62074168Y-91912675D01*
X62073969Y-91912605D01*
X62074030Y-91912433D01*
X62085027Y-91881118D01*
X62126471Y-91823473D01*
X62192501Y-91797385D01*
X62262153Y-91811138D01*
G37*
%TD.AperFunction*%
%TA.AperFunction,NonConductor*%
G36*
X61372153Y-91811138D02*
G01*
X61424797Y-91863037D01*
X61444388Y-91899346D01*
X61459500Y-91959177D01*
X61459500Y-92103339D01*
X61439498Y-92171460D01*
X61422595Y-92192434D01*
X61385595Y-92229434D01*
X61323283Y-92263460D01*
X61252468Y-92258395D01*
X61195632Y-92215848D01*
X61170821Y-92149328D01*
X61170500Y-92140339D01*
X61170500Y-91965907D01*
X61184168Y-91912675D01*
X61183969Y-91912605D01*
X61184030Y-91912433D01*
X61195027Y-91881118D01*
X61236471Y-91823473D01*
X61302501Y-91797385D01*
X61372153Y-91811138D01*
G37*
%TD.AperFunction*%
%TA.AperFunction,NonConductor*%
G36*
X60488208Y-91822363D02*
G01*
X60540854Y-91874262D01*
X60550612Y-91892346D01*
X60554388Y-91899345D01*
X60569500Y-91959177D01*
X60569500Y-92243339D01*
X60549498Y-92311460D01*
X60532595Y-92332434D01*
X60495595Y-92369434D01*
X60433283Y-92403460D01*
X60362468Y-92398395D01*
X60305632Y-92355848D01*
X60280821Y-92289328D01*
X60280500Y-92280339D01*
X60280500Y-91984099D01*
X60296084Y-91923401D01*
X60297524Y-91920782D01*
X60303969Y-91912606D01*
X60311085Y-91892344D01*
X60352526Y-91834701D01*
X60418555Y-91808612D01*
X60488208Y-91822363D01*
G37*
%TD.AperFunction*%
%TA.AperFunction,NonConductor*%
G36*
X59602153Y-91811138D02*
G01*
X59654798Y-91863038D01*
X59664389Y-91880814D01*
X59679500Y-91940644D01*
X59679500Y-92483339D01*
X59659498Y-92551460D01*
X59642595Y-92572434D01*
X59615595Y-92599434D01*
X59553283Y-92633460D01*
X59482468Y-92628395D01*
X59425632Y-92585848D01*
X59400821Y-92519328D01*
X59400500Y-92510339D01*
X59400500Y-91965907D01*
X59414168Y-91912675D01*
X59413969Y-91912605D01*
X59414030Y-91912433D01*
X59425027Y-91881118D01*
X59466471Y-91823473D01*
X59532501Y-91797385D01*
X59602153Y-91811138D01*
G37*
%TD.AperFunction*%
%TA.AperFunction,NonConductor*%
G36*
X58747661Y-91855496D02*
G01*
X58782743Y-91896298D01*
X58784378Y-91899327D01*
X58799500Y-91959177D01*
X58799500Y-92503339D01*
X58779498Y-92571460D01*
X58762595Y-92592434D01*
X58755595Y-92599434D01*
X58693283Y-92633460D01*
X58622468Y-92628395D01*
X58565632Y-92585848D01*
X58540821Y-92519328D01*
X58540500Y-92510339D01*
X58540500Y-91965907D01*
X58554775Y-91910310D01*
X58557421Y-91902776D01*
X58561450Y-91895448D01*
X58611795Y-91845389D01*
X58681212Y-91830495D01*
X58747661Y-91855496D01*
G37*
%TD.AperFunction*%
%TA.AperFunction,NonConductor*%
G36*
X67918529Y-87941617D02*
G01*
X67948728Y-87948586D01*
X68055157Y-87973147D01*
X68110377Y-88001608D01*
X68324221Y-88191057D01*
X68342303Y-88210895D01*
X68468050Y-88382501D01*
X68492079Y-88447780D01*
X68509569Y-88686805D01*
X68508268Y-88716245D01*
X68462711Y-88996094D01*
X68458152Y-89014874D01*
X67451173Y-92106227D01*
X67448590Y-92113410D01*
X66847956Y-93637125D01*
X66778240Y-93813984D01*
X66777831Y-93815156D01*
X66777823Y-93815178D01*
X66713642Y-93999165D01*
X66603620Y-94314563D01*
X66569053Y-94413655D01*
X66561999Y-94430041D01*
X66359847Y-94820867D01*
X66345953Y-94842150D01*
X65764467Y-95562085D01*
X65754937Y-95572610D01*
X64712490Y-96601064D01*
X64699599Y-96612169D01*
X63638585Y-97407930D01*
X63623994Y-97417375D01*
X62912052Y-97811363D01*
X62893880Y-97819613D01*
X60924701Y-98531475D01*
X60881867Y-98538980D01*
X59318314Y-98538980D01*
X59307331Y-98538500D01*
X59280521Y-98536154D01*
X59280520Y-98536154D01*
X59269536Y-98535193D01*
X59232876Y-98545016D01*
X59222152Y-98547393D01*
X59184781Y-98553983D01*
X59175235Y-98559494D01*
X59171867Y-98560720D01*
X59168622Y-98562234D01*
X59157977Y-98565086D01*
X59148947Y-98571409D01*
X59148514Y-98571712D01*
X59147844Y-98571923D01*
X59138958Y-98576067D01*
X59138412Y-98574897D01*
X59076242Y-98594500D01*
X58534661Y-98594500D01*
X58466540Y-98574498D01*
X58420047Y-98520842D01*
X58409943Y-98450568D01*
X58439437Y-98385988D01*
X58445566Y-98379405D01*
X58507871Y-98317100D01*
X58921393Y-98317100D01*
X58923492Y-98317100D01*
X58922443Y-98316051D01*
X58921393Y-98317100D01*
X58507871Y-98317100D01*
X58687818Y-98137153D01*
X59101340Y-98137153D01*
X59226599Y-98262411D01*
X59267327Y-98258849D01*
X59278306Y-98258370D01*
X59282733Y-98258370D01*
X59293716Y-98258850D01*
X59324916Y-98261580D01*
X59338953Y-98261580D01*
X59463380Y-98137153D01*
X59821174Y-98137153D01*
X59945601Y-98261580D01*
X60058786Y-98261580D01*
X60183214Y-98137153D01*
X60541009Y-98137153D01*
X60615890Y-98212034D01*
X60881802Y-98115906D01*
X60722029Y-97956133D01*
X60541009Y-98137153D01*
X60183214Y-98137153D01*
X60002194Y-97956133D01*
X59821174Y-98137153D01*
X59463380Y-98137153D01*
X59282360Y-97956133D01*
X59101340Y-98137153D01*
X58687818Y-98137153D01*
X59047735Y-97777236D01*
X59461257Y-97777236D01*
X59642277Y-97958256D01*
X59823297Y-97777236D01*
X60181092Y-97777236D01*
X60362112Y-97958256D01*
X60543132Y-97777236D01*
X60900926Y-97777236D01*
X61081946Y-97958256D01*
X61262966Y-97777236D01*
X61620761Y-97777236D01*
X61673302Y-97829777D01*
X61939214Y-97733649D01*
X61801781Y-97596216D01*
X61620761Y-97777236D01*
X61262966Y-97777236D01*
X61081946Y-97596216D01*
X60900926Y-97777236D01*
X60543132Y-97777236D01*
X60362112Y-97596216D01*
X60181092Y-97777236D01*
X59823297Y-97777236D01*
X59642277Y-97596216D01*
X59461257Y-97777236D01*
X59047735Y-97777236D01*
X59407653Y-97417318D01*
X59821174Y-97417318D01*
X60002195Y-97598338D01*
X60183214Y-97417319D01*
X60183213Y-97417318D01*
X60541009Y-97417318D01*
X60722029Y-97598338D01*
X60903048Y-97417319D01*
X61260844Y-97417319D01*
X61441863Y-97598338D01*
X61622884Y-97417318D01*
X61980678Y-97417318D01*
X62161699Y-97598338D01*
X62342718Y-97417319D01*
X62342717Y-97417318D01*
X62700513Y-97417318D01*
X62730715Y-97447520D01*
X62735183Y-97445905D01*
X62964330Y-97319095D01*
X62881533Y-97236298D01*
X62700513Y-97417318D01*
X62342717Y-97417318D01*
X62161698Y-97236298D01*
X61980678Y-97417318D01*
X61622884Y-97417318D01*
X61441864Y-97236298D01*
X61260844Y-97417319D01*
X60903048Y-97417319D01*
X60903049Y-97417318D01*
X60722029Y-97236298D01*
X60541009Y-97417318D01*
X60183213Y-97417318D01*
X60002194Y-97236298D01*
X59821174Y-97417318D01*
X59407653Y-97417318D01*
X59767570Y-97057401D01*
X60181092Y-97057401D01*
X60362112Y-97238421D01*
X60543132Y-97057401D01*
X60900926Y-97057401D01*
X61081946Y-97238421D01*
X61262966Y-97057401D01*
X61620761Y-97057401D01*
X61801781Y-97238421D01*
X61982801Y-97057401D01*
X62340596Y-97057401D01*
X62521616Y-97238421D01*
X62702636Y-97057401D01*
X63060430Y-97057401D01*
X63194660Y-97191631D01*
X63404200Y-97075672D01*
X63422470Y-97057402D01*
X63241450Y-96876381D01*
X63060430Y-97057401D01*
X62702636Y-97057401D01*
X62521616Y-96876381D01*
X62340596Y-97057401D01*
X61982801Y-97057401D01*
X61801781Y-96876381D01*
X61620761Y-97057401D01*
X61262966Y-97057401D01*
X61081946Y-96876381D01*
X60900926Y-97057401D01*
X60543132Y-97057401D01*
X60362112Y-96876381D01*
X60181092Y-97057401D01*
X59767570Y-97057401D01*
X60127487Y-96697484D01*
X60541009Y-96697484D01*
X60722029Y-96878504D01*
X60903049Y-96697484D01*
X61260844Y-96697484D01*
X61441864Y-96878504D01*
X61622884Y-96697484D01*
X61980678Y-96697484D01*
X62161698Y-96878504D01*
X62342718Y-96697484D01*
X62700513Y-96697484D01*
X62881533Y-96878504D01*
X63062553Y-96697484D01*
X63420348Y-96697484D01*
X63601368Y-96878504D01*
X63782388Y-96697484D01*
X63601368Y-96516464D01*
X63420348Y-96697484D01*
X63062553Y-96697484D01*
X62881533Y-96516464D01*
X62700513Y-96697484D01*
X62342718Y-96697484D01*
X62161698Y-96516464D01*
X61980678Y-96697484D01*
X61622884Y-96697484D01*
X61441864Y-96516464D01*
X61260844Y-96697484D01*
X60903049Y-96697484D01*
X60722029Y-96516464D01*
X60541009Y-96697484D01*
X60127487Y-96697484D01*
X60487405Y-96337566D01*
X60900926Y-96337566D01*
X61081947Y-96518586D01*
X61262966Y-96337567D01*
X61262965Y-96337566D01*
X61620761Y-96337566D01*
X61801781Y-96518586D01*
X61982801Y-96337566D01*
X62340596Y-96337566D01*
X62521616Y-96518586D01*
X62702636Y-96337566D01*
X63060430Y-96337566D01*
X63241451Y-96518586D01*
X63422470Y-96337567D01*
X63422469Y-96337566D01*
X63780265Y-96337566D01*
X63961285Y-96518586D01*
X64142305Y-96337566D01*
X63961285Y-96156546D01*
X63780265Y-96337566D01*
X63422469Y-96337566D01*
X63241450Y-96156546D01*
X63060430Y-96337566D01*
X62702636Y-96337566D01*
X62521616Y-96156546D01*
X62340596Y-96337566D01*
X61982801Y-96337566D01*
X61801781Y-96156546D01*
X61620761Y-96337566D01*
X61262965Y-96337566D01*
X61081946Y-96156546D01*
X60900926Y-96337566D01*
X60487405Y-96337566D01*
X60847322Y-95977649D01*
X61260844Y-95977649D01*
X61441864Y-96158669D01*
X61622884Y-95977649D01*
X61980678Y-95977649D01*
X62161698Y-96158669D01*
X62342718Y-95977649D01*
X62700513Y-95977649D01*
X62881533Y-96158669D01*
X63062553Y-95977649D01*
X63420348Y-95977649D01*
X63601368Y-96158669D01*
X63782388Y-95977649D01*
X64140183Y-95977649D01*
X64321203Y-96158669D01*
X64502223Y-95977649D01*
X64321203Y-95796629D01*
X64140183Y-95977649D01*
X63782388Y-95977649D01*
X63601368Y-95796629D01*
X63420348Y-95977649D01*
X63062553Y-95977649D01*
X62881533Y-95796629D01*
X62700513Y-95977649D01*
X62342718Y-95977649D01*
X62161698Y-95796629D01*
X61980678Y-95977649D01*
X61622884Y-95977649D01*
X61441864Y-95796629D01*
X61260844Y-95977649D01*
X60847322Y-95977649D01*
X61207239Y-95617732D01*
X61620761Y-95617732D01*
X61801781Y-95798752D01*
X61982801Y-95617732D01*
X62340596Y-95617732D01*
X62521616Y-95798752D01*
X62702636Y-95617732D01*
X63060430Y-95617732D01*
X63241450Y-95798752D01*
X63422469Y-95617732D01*
X63780265Y-95617732D01*
X63961285Y-95798752D01*
X64142305Y-95617732D01*
X64500100Y-95617732D01*
X64681120Y-95798752D01*
X64862140Y-95617732D01*
X64681120Y-95436712D01*
X64500100Y-95617732D01*
X64142305Y-95617732D01*
X63961285Y-95436712D01*
X63780265Y-95617732D01*
X63422469Y-95617732D01*
X63422470Y-95617731D01*
X63241451Y-95436712D01*
X63060430Y-95617732D01*
X62702636Y-95617732D01*
X62521616Y-95436712D01*
X62340596Y-95617732D01*
X61982801Y-95617732D01*
X61801781Y-95436712D01*
X61620761Y-95617732D01*
X61207239Y-95617732D01*
X61567157Y-95257814D01*
X61980678Y-95257814D01*
X62161699Y-95438834D01*
X62342718Y-95257815D01*
X62342717Y-95257814D01*
X62700513Y-95257814D01*
X62881533Y-95438834D01*
X63062553Y-95257814D01*
X63420348Y-95257814D01*
X63601368Y-95438834D01*
X63782387Y-95257815D01*
X64140183Y-95257815D01*
X64321202Y-95438834D01*
X64502223Y-95257814D01*
X64860017Y-95257814D01*
X65041038Y-95438834D01*
X65222057Y-95257815D01*
X65041037Y-95076794D01*
X64860017Y-95257814D01*
X64502223Y-95257814D01*
X64321203Y-95076794D01*
X64140183Y-95257815D01*
X63782387Y-95257815D01*
X63782388Y-95257814D01*
X63601368Y-95076794D01*
X63420348Y-95257814D01*
X63062553Y-95257814D01*
X62881533Y-95076794D01*
X62700513Y-95257814D01*
X62342717Y-95257814D01*
X62161698Y-95076794D01*
X61980678Y-95257814D01*
X61567157Y-95257814D01*
X61927074Y-94897897D01*
X62340596Y-94897897D01*
X62521616Y-95078917D01*
X62702636Y-94897897D01*
X63060430Y-94897897D01*
X63241450Y-95078917D01*
X63422470Y-94897897D01*
X63780265Y-94897897D01*
X63961285Y-95078917D01*
X64142305Y-94897897D01*
X64500100Y-94897897D01*
X64681120Y-95078917D01*
X64862140Y-94897897D01*
X65219935Y-94897897D01*
X65400955Y-95078917D01*
X65581975Y-94897897D01*
X65400955Y-94716877D01*
X65219935Y-94897897D01*
X64862140Y-94897897D01*
X64681120Y-94716877D01*
X64500100Y-94897897D01*
X64142305Y-94897897D01*
X63961285Y-94716877D01*
X63780265Y-94897897D01*
X63422470Y-94897897D01*
X63241450Y-94716877D01*
X63060430Y-94897897D01*
X62702636Y-94897897D01*
X62521616Y-94716877D01*
X62340596Y-94897897D01*
X61927074Y-94897897D01*
X62286991Y-94537980D01*
X62700513Y-94537980D01*
X62881533Y-94719000D01*
X63062553Y-94537980D01*
X63420348Y-94537980D01*
X63601368Y-94719000D01*
X63782388Y-94537980D01*
X63782387Y-94537979D01*
X64140183Y-94537979D01*
X64321203Y-94719000D01*
X64502223Y-94537980D01*
X64860017Y-94537980D01*
X65041037Y-94719000D01*
X65222056Y-94537980D01*
X65579852Y-94537980D01*
X65760872Y-94719000D01*
X65941892Y-94537980D01*
X65760872Y-94356960D01*
X65579852Y-94537980D01*
X65222056Y-94537980D01*
X65222057Y-94537979D01*
X65041038Y-94356960D01*
X64860017Y-94537980D01*
X64502223Y-94537980D01*
X64321202Y-94356960D01*
X64140183Y-94537979D01*
X63782387Y-94537979D01*
X63601368Y-94356960D01*
X63420348Y-94537980D01*
X63062553Y-94537980D01*
X62881533Y-94356960D01*
X62700513Y-94537980D01*
X62286991Y-94537980D01*
X62646909Y-94178062D01*
X63060430Y-94178062D01*
X63241451Y-94359082D01*
X63422470Y-94178063D01*
X63422469Y-94178062D01*
X63780265Y-94178062D01*
X63961285Y-94359082D01*
X64142305Y-94178062D01*
X64500100Y-94178062D01*
X64681120Y-94359082D01*
X64862139Y-94178063D01*
X65219935Y-94178063D01*
X65400954Y-94359082D01*
X65581975Y-94178062D01*
X65939769Y-94178062D01*
X66120790Y-94359082D01*
X66165309Y-94314563D01*
X66192804Y-94261407D01*
X66242549Y-94118802D01*
X66120789Y-93997042D01*
X65939769Y-94178062D01*
X65581975Y-94178062D01*
X65400955Y-93997042D01*
X65219935Y-94178063D01*
X64862139Y-94178063D01*
X64862140Y-94178062D01*
X64681120Y-93997042D01*
X64500100Y-94178062D01*
X64142305Y-94178062D01*
X63961285Y-93997042D01*
X63780265Y-94178062D01*
X63422469Y-94178062D01*
X63241450Y-93997042D01*
X63060430Y-94178062D01*
X62646909Y-94178062D01*
X63006826Y-93818145D01*
X63420348Y-93818145D01*
X63601368Y-93999165D01*
X63782388Y-93818145D01*
X64140183Y-93818145D01*
X64321203Y-93999165D01*
X64502223Y-93818145D01*
X64860017Y-93818145D01*
X65041037Y-93999165D01*
X65222057Y-93818145D01*
X65579852Y-93818145D01*
X65760872Y-93999165D01*
X65941892Y-93818145D01*
X66299687Y-93818145D01*
X66335083Y-93853540D01*
X66373006Y-93744826D01*
X66299687Y-93818145D01*
X65941892Y-93818145D01*
X65760872Y-93637125D01*
X65579852Y-93818145D01*
X65222057Y-93818145D01*
X65041037Y-93637125D01*
X64860017Y-93818145D01*
X64502223Y-93818145D01*
X64321203Y-93637125D01*
X64140183Y-93818145D01*
X63782388Y-93818145D01*
X63601368Y-93637125D01*
X63420348Y-93818145D01*
X63006826Y-93818145D01*
X63366743Y-93458228D01*
X63780265Y-93458228D01*
X63961285Y-93639248D01*
X64142305Y-93458228D01*
X64500100Y-93458228D01*
X64681120Y-93639248D01*
X64862140Y-93458228D01*
X64862139Y-93458227D01*
X65219935Y-93458227D01*
X65400955Y-93639248D01*
X65581975Y-93458228D01*
X65939769Y-93458228D01*
X66120789Y-93639248D01*
X66301809Y-93458227D01*
X66120790Y-93277208D01*
X65939769Y-93458228D01*
X65581975Y-93458228D01*
X65400954Y-93277208D01*
X65219935Y-93458227D01*
X64862139Y-93458227D01*
X64681120Y-93277208D01*
X64500100Y-93458228D01*
X64142305Y-93458228D01*
X63961285Y-93277208D01*
X63780265Y-93458228D01*
X63366743Y-93458228D01*
X63726660Y-93098311D01*
X64140183Y-93098311D01*
X64321202Y-93279330D01*
X64502223Y-93098310D01*
X64860017Y-93098310D01*
X65041038Y-93279330D01*
X65222057Y-93098311D01*
X65222056Y-93098310D01*
X65579852Y-93098310D01*
X65760872Y-93279330D01*
X65941891Y-93098311D01*
X66299687Y-93098311D01*
X66480707Y-93279331D01*
X66600430Y-93159608D01*
X66635092Y-93071675D01*
X66480707Y-92917290D01*
X66299687Y-93098311D01*
X65941891Y-93098311D01*
X65941892Y-93098310D01*
X65760872Y-92917290D01*
X65579852Y-93098310D01*
X65222056Y-93098310D01*
X65041037Y-92917290D01*
X64860017Y-93098310D01*
X64502223Y-93098310D01*
X64321203Y-92917290D01*
X64140183Y-93098311D01*
X63726660Y-93098311D01*
X64086578Y-92738393D01*
X64500100Y-92738393D01*
X64681120Y-92919413D01*
X64862140Y-92738393D01*
X65219935Y-92738393D01*
X65400955Y-92919413D01*
X65581975Y-92738393D01*
X65939769Y-92738393D01*
X66120789Y-92919413D01*
X66301809Y-92738393D01*
X66659604Y-92738393D01*
X66736254Y-92815043D01*
X66836004Y-92561993D01*
X66659604Y-92738393D01*
X66301809Y-92738393D01*
X66120789Y-92557373D01*
X65939769Y-92738393D01*
X65581975Y-92738393D01*
X65400955Y-92557373D01*
X65219935Y-92738393D01*
X64862140Y-92738393D01*
X64681120Y-92557373D01*
X64500100Y-92738393D01*
X64086578Y-92738393D01*
X64365452Y-92459519D01*
X64367486Y-92457763D01*
X64372269Y-92455425D01*
X64385494Y-92441169D01*
X64405573Y-92419523D01*
X64408853Y-92416118D01*
X64422248Y-92402723D01*
X64424972Y-92398753D01*
X64427297Y-92396105D01*
X64440492Y-92381881D01*
X64440494Y-92381878D01*
X64443650Y-92378476D01*
X64860017Y-92378476D01*
X65041037Y-92559496D01*
X65222056Y-92378476D01*
X65579852Y-92378476D01*
X65760872Y-92559496D01*
X65941892Y-92378476D01*
X65941891Y-92378475D01*
X66299687Y-92378475D01*
X66480707Y-92559496D01*
X66661727Y-92378476D01*
X66480706Y-92197456D01*
X66299687Y-92378475D01*
X65941891Y-92378475D01*
X65760872Y-92197456D01*
X65579852Y-92378476D01*
X65222056Y-92378476D01*
X65222057Y-92378475D01*
X65041038Y-92197456D01*
X64860017Y-92378476D01*
X64443650Y-92378476D01*
X64448401Y-92373354D01*
X64452711Y-92362550D01*
X64455233Y-92358561D01*
X64460994Y-92347773D01*
X64462911Y-92343448D01*
X64469492Y-92333854D01*
X64475183Y-92309873D01*
X64480748Y-92292276D01*
X64486588Y-92277638D01*
X64486589Y-92277635D01*
X64489883Y-92269378D01*
X64490500Y-92263085D01*
X64490500Y-92260006D01*
X64490650Y-92256933D01*
X64490866Y-92256944D01*
X64492198Y-92245569D01*
X64492654Y-92236254D01*
X64495340Y-92224934D01*
X64493728Y-92213085D01*
X64491651Y-92197827D01*
X64490500Y-92180836D01*
X64490500Y-92112798D01*
X64767900Y-92112798D01*
X64862140Y-92018558D01*
X65219935Y-92018558D01*
X65400955Y-92199578D01*
X65581975Y-92018558D01*
X65939769Y-92018558D01*
X66120789Y-92199578D01*
X66301809Y-92018558D01*
X66659604Y-92018558D01*
X66840624Y-92199578D01*
X67021644Y-92018558D01*
X66840624Y-91837538D01*
X66659604Y-92018558D01*
X66301809Y-92018558D01*
X66120789Y-91837538D01*
X65939769Y-92018558D01*
X65581975Y-92018558D01*
X65400955Y-91837538D01*
X65219935Y-92018558D01*
X64862140Y-92018558D01*
X64787115Y-91943533D01*
X64767900Y-91998250D01*
X64767900Y-92112798D01*
X64490500Y-92112798D01*
X64490500Y-91965907D01*
X64504168Y-91912676D01*
X64503969Y-91912606D01*
X64504774Y-91910313D01*
X64504775Y-91910310D01*
X64507421Y-91902776D01*
X64507422Y-91902775D01*
X64540326Y-91809079D01*
X64540327Y-91809076D01*
X64542952Y-91801600D01*
X64543400Y-91796427D01*
X64543400Y-91658641D01*
X64860017Y-91658641D01*
X65041037Y-91839661D01*
X65222057Y-91658641D01*
X65579852Y-91658641D01*
X65760872Y-91839661D01*
X65941892Y-91658641D01*
X66299687Y-91658641D01*
X66480707Y-91839661D01*
X66661727Y-91658641D01*
X67019521Y-91658641D01*
X67133483Y-91772603D01*
X67222438Y-91499518D01*
X67200541Y-91477621D01*
X67019521Y-91658641D01*
X66661727Y-91658641D01*
X66480707Y-91477621D01*
X66299687Y-91658641D01*
X65941892Y-91658641D01*
X65760872Y-91477621D01*
X65579852Y-91658641D01*
X65222057Y-91658641D01*
X65041037Y-91477621D01*
X64860017Y-91658641D01*
X64543400Y-91658641D01*
X64543400Y-91257383D01*
X64820800Y-91257383D01*
X64820800Y-91340062D01*
X64862139Y-91298724D01*
X65219935Y-91298724D01*
X65400954Y-91479743D01*
X65581975Y-91298723D01*
X65939769Y-91298723D01*
X66120790Y-91479743D01*
X66301809Y-91298724D01*
X66301808Y-91298723D01*
X66659604Y-91298723D01*
X66840624Y-91479743D01*
X67021644Y-91298723D01*
X66840624Y-91117703D01*
X66659604Y-91298723D01*
X66301808Y-91298723D01*
X66120789Y-91117703D01*
X65939769Y-91298723D01*
X65581975Y-91298723D01*
X65400955Y-91117703D01*
X65219935Y-91298724D01*
X64862139Y-91298724D01*
X64862140Y-91298723D01*
X64820800Y-91257383D01*
X64543400Y-91257383D01*
X64543400Y-90938806D01*
X64860017Y-90938806D01*
X65041037Y-91119826D01*
X65222057Y-90938806D01*
X65579852Y-90938806D01*
X65760872Y-91119826D01*
X65941892Y-90938806D01*
X66299687Y-90938806D01*
X66480707Y-91119826D01*
X66661727Y-90938806D01*
X67019521Y-90938806D01*
X67200541Y-91119826D01*
X67381561Y-90938806D01*
X67200541Y-90757786D01*
X67019521Y-90938806D01*
X66661727Y-90938806D01*
X66480707Y-90757786D01*
X66299687Y-90938806D01*
X65941892Y-90938806D01*
X65760872Y-90757786D01*
X65579852Y-90938806D01*
X65222057Y-90938806D01*
X65041037Y-90757786D01*
X64860017Y-90938806D01*
X64543400Y-90938806D01*
X64543400Y-90537549D01*
X64820800Y-90537549D01*
X64820800Y-90620229D01*
X64862140Y-90578889D01*
X65219935Y-90578889D01*
X65400955Y-90759909D01*
X65581975Y-90578889D01*
X65939769Y-90578889D01*
X66120789Y-90759909D01*
X66301809Y-90578889D01*
X66659604Y-90578889D01*
X66840624Y-90759909D01*
X67021644Y-90578889D01*
X67379439Y-90578889D01*
X67487217Y-90686666D01*
X67576172Y-90413582D01*
X67560459Y-90397869D01*
X67379439Y-90578889D01*
X67021644Y-90578889D01*
X66840624Y-90397869D01*
X66659604Y-90578889D01*
X66301809Y-90578889D01*
X66120789Y-90397869D01*
X65939769Y-90578889D01*
X65581975Y-90578889D01*
X65400955Y-90397869D01*
X65219935Y-90578889D01*
X64862140Y-90578889D01*
X64820800Y-90537549D01*
X64543400Y-90537549D01*
X64543400Y-90218971D01*
X64860017Y-90218971D01*
X65041038Y-90399991D01*
X65222057Y-90218972D01*
X65222056Y-90218971D01*
X65579852Y-90218971D01*
X65760872Y-90399991D01*
X65941891Y-90218972D01*
X66299687Y-90218972D01*
X66480706Y-90399991D01*
X66661727Y-90218971D01*
X67019521Y-90218971D01*
X67200542Y-90399991D01*
X67381561Y-90218972D01*
X67200541Y-90037951D01*
X67019521Y-90218971D01*
X66661727Y-90218971D01*
X66480707Y-90037951D01*
X66299687Y-90218972D01*
X65941891Y-90218972D01*
X65941892Y-90218971D01*
X65760872Y-90037951D01*
X65579852Y-90218971D01*
X65222056Y-90218971D01*
X65041037Y-90037951D01*
X64860017Y-90218971D01*
X64543400Y-90218971D01*
X64543400Y-89817714D01*
X64820800Y-89817714D01*
X64820800Y-89900394D01*
X64862140Y-89859054D01*
X65219935Y-89859054D01*
X65400955Y-90040074D01*
X65581975Y-89859054D01*
X65939769Y-89859054D01*
X66120789Y-90040074D01*
X66301809Y-89859054D01*
X66659604Y-89859054D01*
X66840624Y-90040074D01*
X67021644Y-89859054D01*
X67379439Y-89859054D01*
X67560459Y-90040074D01*
X67741479Y-89859054D01*
X67560459Y-89678034D01*
X67379439Y-89859054D01*
X67021644Y-89859054D01*
X66840624Y-89678034D01*
X66659604Y-89859054D01*
X66301809Y-89859054D01*
X66120789Y-89678034D01*
X65939769Y-89859054D01*
X65581975Y-89859054D01*
X65400955Y-89678034D01*
X65219935Y-89859054D01*
X64862140Y-89859054D01*
X64820800Y-89817714D01*
X64543400Y-89817714D01*
X64543400Y-89635749D01*
X64996629Y-89635749D01*
X65041037Y-89680157D01*
X65179990Y-89541203D01*
X64996629Y-89635749D01*
X64543400Y-89635749D01*
X64543400Y-89499137D01*
X65579852Y-89499137D01*
X65760872Y-89680157D01*
X65941892Y-89499137D01*
X65941891Y-89499136D01*
X66299687Y-89499136D01*
X66480707Y-89680157D01*
X66661727Y-89499137D01*
X67019521Y-89499137D01*
X67200541Y-89680157D01*
X67381560Y-89499137D01*
X67739356Y-89499137D01*
X67840950Y-89600731D01*
X67929905Y-89327645D01*
X67920377Y-89318117D01*
X67739356Y-89499137D01*
X67381560Y-89499137D01*
X67381561Y-89499136D01*
X67200542Y-89318117D01*
X67019521Y-89499137D01*
X66661727Y-89499137D01*
X66480706Y-89318117D01*
X66299687Y-89499136D01*
X65941891Y-89499136D01*
X65760872Y-89318117D01*
X65579852Y-89499137D01*
X64543400Y-89499137D01*
X64543400Y-89490121D01*
X64563402Y-89422000D01*
X64611656Y-89378132D01*
X65061921Y-89145964D01*
X65946515Y-89145964D01*
X66120790Y-89320239D01*
X66301810Y-89139219D01*
X66659604Y-89139219D01*
X66840624Y-89320239D01*
X67021643Y-89139220D01*
X67379439Y-89139220D01*
X67560458Y-89320239D01*
X67741479Y-89139219D01*
X67560459Y-88958199D01*
X67379439Y-89139220D01*
X67021643Y-89139220D01*
X67021644Y-89139219D01*
X66840624Y-88958199D01*
X66659604Y-89139219D01*
X66301810Y-89139219D01*
X66185387Y-89022796D01*
X65946515Y-89145964D01*
X65061921Y-89145964D01*
X65536863Y-88901072D01*
X66421457Y-88901072D01*
X66480707Y-88960322D01*
X66661727Y-88779302D01*
X67019521Y-88779302D01*
X67200541Y-88960322D01*
X67381561Y-88779302D01*
X67739356Y-88779302D01*
X67920376Y-88960322D01*
X68084519Y-88796179D01*
X68089244Y-88767150D01*
X67920376Y-88598282D01*
X67739356Y-88779302D01*
X67381561Y-88779302D01*
X67200541Y-88598282D01*
X67019521Y-88779302D01*
X66661727Y-88779302D01*
X66660329Y-88777904D01*
X66421457Y-88901072D01*
X65536863Y-88901072D01*
X66433728Y-88438626D01*
X67398680Y-88438626D01*
X67560459Y-88600405D01*
X67741479Y-88419385D01*
X67685579Y-88363485D01*
X67398680Y-88438626D01*
X66433728Y-88438626D01*
X67077002Y-88106938D01*
X67102823Y-88097038D01*
X67669637Y-87948586D01*
X67697496Y-87944541D01*
X67886136Y-87938456D01*
X67918529Y-87941617D01*
G37*
%TD.AperFunction*%
%TA.AperFunction,Conductor*%
%TO.N,/Power/FB*%
G36*
X76959143Y-62838738D02*
G01*
X77194671Y-62839369D01*
X77262737Y-62859554D01*
X77309085Y-62913334D01*
X77320319Y-62963576D01*
X77320638Y-62985989D01*
X77320388Y-62988482D01*
X77320499Y-62988482D01*
X77320500Y-63575857D01*
X77318949Y-63595567D01*
X77313174Y-63632029D01*
X77311336Y-63647528D01*
X77309785Y-63667115D01*
X77309161Y-63682707D01*
X77308598Y-64255954D01*
X77318142Y-64317195D01*
X77341691Y-64390666D01*
X77343893Y-64395046D01*
X77343895Y-64395052D01*
X77366404Y-64439834D01*
X77369525Y-64446043D01*
X77372380Y-64450030D01*
X77374917Y-64454230D01*
X77374634Y-64454401D01*
X77380867Y-64464823D01*
X77391330Y-64486133D01*
X77391331Y-64486135D01*
X77391330Y-64486135D01*
X77391388Y-64486252D01*
X77392605Y-64488731D01*
X77405500Y-64544257D01*
X77405500Y-64855721D01*
X77392699Y-64911056D01*
X77381016Y-64934956D01*
X77373556Y-64947483D01*
X77373670Y-64947551D01*
X77371156Y-64951723D01*
X77368325Y-64955692D01*
X77340697Y-65010768D01*
X77339206Y-65015417D01*
X77337366Y-65019924D01*
X77335585Y-65019197D01*
X77300324Y-65071216D01*
X77235041Y-65099119D01*
X77220168Y-65100000D01*
X73835446Y-65100000D01*
X73767325Y-65079998D01*
X73720832Y-65026342D01*
X73709447Y-64974555D01*
X73709168Y-64911056D01*
X73705559Y-64091796D01*
X73725261Y-64023588D01*
X73778711Y-63976859D01*
X73831797Y-63965241D01*
X76321884Y-63969966D01*
X76321885Y-63969966D01*
X76340000Y-63970000D01*
X76339983Y-62963419D01*
X76359984Y-62895298D01*
X76413639Y-62848804D01*
X76466321Y-62837417D01*
X76959143Y-62838738D01*
G37*
%TD.AperFunction*%
%TD*%
%TA.AperFunction,Conductor*%
%TO.N,/Connectors/VOUT*%
G36*
X104042121Y-54220002D02*
G01*
X104088614Y-54273658D01*
X104100000Y-54326000D01*
X104100000Y-57174000D01*
X104079998Y-57242121D01*
X104026342Y-57288614D01*
X103974000Y-57300000D01*
X102200000Y-57300000D01*
X102200000Y-60054655D01*
X102179998Y-60122776D01*
X102163095Y-60143750D01*
X101183933Y-61122913D01*
X101175829Y-61130340D01*
X101146750Y-61154740D01*
X101141237Y-61164289D01*
X101127775Y-61187606D01*
X101121877Y-61196865D01*
X101100106Y-61227957D01*
X101097254Y-61238601D01*
X101095740Y-61241847D01*
X101094514Y-61245215D01*
X101089003Y-61254761D01*
X101087089Y-61265617D01*
X101082413Y-61292133D01*
X101080036Y-61302856D01*
X101070213Y-61339516D01*
X101071174Y-61350497D01*
X101072104Y-61361123D01*
X101058114Y-61430728D01*
X101039169Y-61457566D01*
X101012288Y-61486688D01*
X101000000Y-61500000D01*
X101000000Y-63174000D01*
X100979998Y-63242121D01*
X100926342Y-63288614D01*
X100874000Y-63300000D01*
X100726000Y-63300000D01*
X100657879Y-63279998D01*
X100611386Y-63226342D01*
X100600000Y-63174000D01*
X100600000Y-54326000D01*
X100620002Y-54257879D01*
X100673658Y-54211386D01*
X100726000Y-54200000D01*
X103974000Y-54200000D01*
X104042121Y-54220002D01*
G37*
%TD.AperFunction*%
%TD*%
%TA.AperFunction,Conductor*%
%TO.N,/Power/BST*%
G36*
X82626121Y-68220002D02*
G01*
X82633600Y-68225200D01*
X82837865Y-68378399D01*
X82863616Y-68404339D01*
X82887850Y-68437149D01*
X82895421Y-68442741D01*
X82989243Y-68512040D01*
X82989246Y-68512041D01*
X82996816Y-68517633D01*
X83124631Y-68562518D01*
X83132277Y-68563241D01*
X83132278Y-68563241D01*
X83138248Y-68563805D01*
X83156166Y-68565499D01*
X83692671Y-68565499D01*
X83760792Y-68585501D01*
X83807285Y-68639157D01*
X83818664Y-68692868D01*
X83796304Y-70749985D01*
X83775562Y-70817885D01*
X83721404Y-70863792D01*
X83675062Y-70874526D01*
X83131102Y-70895053D01*
X83062277Y-70877634D01*
X83013794Y-70825770D01*
X83000352Y-70768805D01*
X83004517Y-69218125D01*
X83004566Y-69200010D01*
X82600000Y-68900000D01*
X80584896Y-68900000D01*
X80516775Y-68879998D01*
X80468310Y-68821745D01*
X80466877Y-68817283D01*
X80439075Y-68762003D01*
X80436223Y-68758020D01*
X80434883Y-68755802D01*
X80429617Y-68746163D01*
X80417396Y-68721271D01*
X80404500Y-68665743D01*
X80404500Y-68354279D01*
X80417301Y-68298943D01*
X80429122Y-68274761D01*
X80434391Y-68265081D01*
X80436570Y-68261465D01*
X80437014Y-68260842D01*
X80489143Y-68212954D01*
X80544789Y-68200000D01*
X82558000Y-68200000D01*
X82626121Y-68220002D01*
G37*
%TD.AperFunction*%
%TD*%
%TA.AperFunction,Conductor*%
%TO.N,/Connectors/MOTOR2_OUT1*%
G36*
X98242121Y-50020002D02*
G01*
X98288614Y-50073658D01*
X98300000Y-50126000D01*
X98300000Y-63174000D01*
X98279998Y-63242121D01*
X98226342Y-63288614D01*
X98174000Y-63300000D01*
X98126000Y-63300000D01*
X98057879Y-63279998D01*
X98011386Y-63226342D01*
X98000000Y-63174000D01*
X98000000Y-61500000D01*
X97636905Y-61136905D01*
X97602879Y-61074593D01*
X97600000Y-61047810D01*
X97600000Y-52600000D01*
X94526000Y-52600000D01*
X94457879Y-52579998D01*
X94411386Y-52526342D01*
X94400000Y-52474000D01*
X94400000Y-50126000D01*
X94420002Y-50057879D01*
X94473658Y-50011386D01*
X94526000Y-50000000D01*
X98174000Y-50000000D01*
X98242121Y-50020002D01*
G37*
%TD.AperFunction*%
%TD*%
%TA.AperFunction,Conductor*%
%TO.N,GND*%
G36*
X80835336Y-56270782D02*
G01*
X80840572Y-56274321D01*
X80844974Y-56278775D01*
X80922846Y-56321885D01*
X80991054Y-56341587D01*
X81047436Y-56349440D01*
X81693446Y-56346594D01*
X81761653Y-56366296D01*
X81808382Y-56419746D01*
X81820000Y-56472593D01*
X81820000Y-61014000D01*
X81799998Y-61082121D01*
X81746342Y-61128614D01*
X81694000Y-61140000D01*
X81146000Y-61140000D01*
X81077879Y-61119998D01*
X81031386Y-61066342D01*
X81020000Y-61014000D01*
X81019999Y-59158115D01*
X81019999Y-59140000D01*
X79220000Y-59140000D01*
X79220000Y-61014000D01*
X79199998Y-61082121D01*
X79146342Y-61128614D01*
X79094000Y-61140000D01*
X78646000Y-61140000D01*
X78577879Y-61119998D01*
X78531386Y-61066342D01*
X78520000Y-61014000D01*
X78519999Y-59158115D01*
X78519999Y-59140000D01*
X76420000Y-59140000D01*
X76420000Y-61014000D01*
X76399998Y-61082121D01*
X76346342Y-61128614D01*
X76294000Y-61140000D01*
X75846000Y-61140000D01*
X75777879Y-61119998D01*
X75731386Y-61066342D01*
X75720000Y-61014000D01*
X75719999Y-59158115D01*
X75719999Y-59140000D01*
X73920000Y-59140000D01*
X73920000Y-61014000D01*
X73899998Y-61082121D01*
X73846342Y-61128614D01*
X73794000Y-61140000D01*
X73345485Y-61140000D01*
X73277364Y-61119998D01*
X73230871Y-61066342D01*
X73219486Y-61014516D01*
X73200882Y-56475256D01*
X73220605Y-56407054D01*
X73274069Y-56360342D01*
X73326326Y-56348741D01*
X73763428Y-56346816D01*
X75182110Y-56340567D01*
X75182116Y-56340567D01*
X75185438Y-56340552D01*
X75227502Y-56335889D01*
X75279287Y-56324504D01*
X75280027Y-56324322D01*
X75280041Y-56324319D01*
X75280591Y-56324184D01*
X75288762Y-56322177D01*
X75367314Y-56280319D01*
X75368278Y-56279483D01*
X75433565Y-56258123D01*
X75502260Y-56276030D01*
X75504974Y-56278775D01*
X75582846Y-56321885D01*
X75651054Y-56341587D01*
X75707436Y-56349440D01*
X76844482Y-56344431D01*
X77722110Y-56340566D01*
X77722116Y-56340566D01*
X77725438Y-56340551D01*
X77767502Y-56335888D01*
X77819287Y-56324503D01*
X77820027Y-56324321D01*
X77820041Y-56324318D01*
X77820591Y-56324183D01*
X77828762Y-56322176D01*
X77901069Y-56283646D01*
X77901073Y-56283644D01*
X77907314Y-56280318D01*
X77911771Y-56276456D01*
X77982532Y-56254452D01*
X78245854Y-56254147D01*
X78307026Y-56269912D01*
X78376652Y-56308457D01*
X78382846Y-56311886D01*
X78451054Y-56331588D01*
X78507436Y-56339441D01*
X79662612Y-56334352D01*
X80522110Y-56330566D01*
X80522116Y-56330566D01*
X80525438Y-56330551D01*
X80567502Y-56325888D01*
X80619287Y-56314503D01*
X80620027Y-56314321D01*
X80620041Y-56314318D01*
X80620591Y-56314183D01*
X80628762Y-56312176D01*
X80707314Y-56270318D01*
X80708208Y-56271996D01*
X80766634Y-56252877D01*
X80835336Y-56270782D01*
G37*
%TD.AperFunction*%
%TD*%
%TA.AperFunction,Conductor*%
%TO.N,+3V3*%
G36*
X73027695Y-64065002D02*
G01*
X73074188Y-64118658D01*
X73085573Y-64170424D01*
X73093524Y-65911816D01*
X73094422Y-66108425D01*
X73074731Y-66176636D01*
X73021288Y-66223373D01*
X72968423Y-66235000D01*
X71871000Y-66235000D01*
X71802879Y-66214998D01*
X71756386Y-66161342D01*
X71745000Y-66109000D01*
X71745000Y-64171000D01*
X71765002Y-64102879D01*
X71818658Y-64056386D01*
X71871000Y-64045000D01*
X72959574Y-64045000D01*
X73027695Y-64065002D01*
G37*
%TD.AperFunction*%
%TD*%
M02*
