%TF.GenerationSoftware,KiCad,Pcbnew,(6.0.2)*%
%TF.CreationDate,2022-06-02T13:11:00-06:00*%
%TF.ProjectId,RGB-controller,5247422d-636f-46e7-9472-6f6c6c65722e,rev?*%
%TF.SameCoordinates,Original*%
%TF.FileFunction,Paste,Top*%
%TF.FilePolarity,Positive*%
%FSLAX46Y46*%
G04 Gerber Fmt 4.6, Leading zero omitted, Abs format (unit mm)*
G04 Created by KiCad (PCBNEW (6.0.2)) date 2022-06-02 13:11:00*
%MOMM*%
%LPD*%
G01*
G04 APERTURE LIST*
G04 Aperture macros list*
%AMRoundRect*
0 Rectangle with rounded corners*
0 $1 Rounding radius*
0 $2 $3 $4 $5 $6 $7 $8 $9 X,Y pos of 4 corners*
0 Add a 4 corners polygon primitive as box body*
4,1,4,$2,$3,$4,$5,$6,$7,$8,$9,$2,$3,0*
0 Add four circle primitives for the rounded corners*
1,1,$1+$1,$2,$3*
1,1,$1+$1,$4,$5*
1,1,$1+$1,$6,$7*
1,1,$1+$1,$8,$9*
0 Add four rect primitives between the rounded corners*
20,1,$1+$1,$2,$3,$4,$5,0*
20,1,$1+$1,$4,$5,$6,$7,0*
20,1,$1+$1,$6,$7,$8,$9,0*
20,1,$1+$1,$8,$9,$2,$3,0*%
%AMRotRect*
0 Rectangle, with rotation*
0 The origin of the aperture is its center*
0 $1 length*
0 $2 width*
0 $3 Rotation angle, in degrees counterclockwise*
0 Add horizontal line*
21,1,$1,$2,0,0,$3*%
G04 Aperture macros list end*
%ADD10RoundRect,0.250000X0.475000X-0.250000X0.475000X0.250000X-0.475000X0.250000X-0.475000X-0.250000X0*%
%ADD11RoundRect,0.200000X-0.275000X0.200000X-0.275000X-0.200000X0.275000X-0.200000X0.275000X0.200000X0*%
%ADD12RoundRect,0.140000X0.140000X0.170000X-0.140000X0.170000X-0.140000X-0.170000X0.140000X-0.170000X0*%
%ADD13RoundRect,0.250000X0.250000X0.475000X-0.250000X0.475000X-0.250000X-0.475000X0.250000X-0.475000X0*%
%ADD14RoundRect,0.140000X-0.140000X-0.170000X0.140000X-0.170000X0.140000X0.170000X-0.140000X0.170000X0*%
%ADD15R,5.700000X1.600000*%
%ADD16RoundRect,0.250000X-0.475000X0.250000X-0.475000X-0.250000X0.475000X-0.250000X0.475000X0.250000X0*%
%ADD17RoundRect,0.140000X-0.021213X0.219203X-0.219203X0.021213X0.021213X-0.219203X0.219203X-0.021213X0*%
%ADD18RoundRect,0.135000X0.135000X0.185000X-0.135000X0.185000X-0.135000X-0.185000X0.135000X-0.185000X0*%
%ADD19R,1.050000X2.200000*%
%ADD20R,1.000000X1.050000*%
%ADD21RoundRect,0.147500X-0.147500X-0.172500X0.147500X-0.172500X0.147500X0.172500X-0.147500X0.172500X0*%
%ADD22RoundRect,0.135000X-0.135000X-0.185000X0.135000X-0.185000X0.135000X0.185000X-0.135000X0.185000X0*%
%ADD23RoundRect,0.150000X0.825000X0.150000X-0.825000X0.150000X-0.825000X-0.150000X0.825000X-0.150000X0*%
%ADD24RoundRect,0.250000X-0.362500X-1.425000X0.362500X-1.425000X0.362500X1.425000X-0.362500X1.425000X0*%
%ADD25RoundRect,0.140000X-0.219203X-0.021213X-0.021213X-0.219203X0.219203X0.021213X0.021213X0.219203X0*%
%ADD26RoundRect,0.200000X-0.200000X-0.275000X0.200000X-0.275000X0.200000X0.275000X-0.200000X0.275000X0*%
%ADD27RoundRect,0.250000X-0.550000X1.250000X-0.550000X-1.250000X0.550000X-1.250000X0.550000X1.250000X0*%
%ADD28RoundRect,0.135000X-0.035355X0.226274X-0.226274X0.035355X0.035355X-0.226274X0.226274X-0.035355X0*%
%ADD29R,1.400000X1.200000*%
%ADD30RoundRect,0.140000X0.170000X-0.140000X0.170000X0.140000X-0.170000X0.140000X-0.170000X-0.140000X0*%
%ADD31RoundRect,0.550000X0.550000X3.936000X-0.550000X3.936000X-0.550000X-3.936000X0.550000X-3.936000X0*%
%ADD32RoundRect,0.521850X0.521850X3.964150X-0.521850X3.964150X-0.521850X-3.964150X0.521850X-3.964150X0*%
%ADD33RoundRect,0.135000X0.185000X-0.135000X0.185000X0.135000X-0.185000X0.135000X-0.185000X-0.135000X0*%
%ADD34R,1.700000X0.650000*%
%ADD35RoundRect,0.218750X0.256250X-0.218750X0.256250X0.218750X-0.256250X0.218750X-0.256250X-0.218750X0*%
%ADD36R,2.200000X1.050000*%
%ADD37R,1.050000X1.000000*%
%ADD38RoundRect,0.250000X-0.450000X0.262500X-0.450000X-0.262500X0.450000X-0.262500X0.450000X0.262500X0*%
%ADD39RoundRect,0.150000X-0.150000X0.587500X-0.150000X-0.587500X0.150000X-0.587500X0.150000X0.587500X0*%
%ADD40RoundRect,0.147500X-0.172500X0.147500X-0.172500X-0.147500X0.172500X-0.147500X0.172500X0.147500X0*%
%ADD41RoundRect,0.135000X-0.185000X0.135000X-0.185000X-0.135000X0.185000X-0.135000X0.185000X0.135000X0*%
%ADD42R,1.100000X1.100000*%
%ADD43RoundRect,0.391909X0.683192X-0.035355X-0.035355X0.683192X-0.683192X0.035355X0.035355X-0.683192X0*%
%ADD44RoundRect,0.050000X0.353553X-0.282843X-0.282843X0.353553X-0.353553X0.282843X0.282843X-0.353553X0*%
%ADD45RoundRect,0.050000X0.353553X0.282843X0.282843X0.353553X-0.353553X-0.282843X-0.282843X-0.353553X0*%
%ADD46RoundRect,0.150000X0.587500X0.150000X-0.587500X0.150000X-0.587500X-0.150000X0.587500X-0.150000X0*%
%ADD47RoundRect,0.218750X0.218750X0.256250X-0.218750X0.256250X-0.218750X-0.256250X0.218750X-0.256250X0*%
%ADD48RoundRect,0.140000X-0.170000X0.140000X-0.170000X-0.140000X0.170000X-0.140000X0.170000X0.140000X0*%
%ADD49RoundRect,0.147500X0.147500X0.172500X-0.147500X0.172500X-0.147500X-0.172500X0.147500X-0.172500X0*%
%ADD50RoundRect,0.230000X0.230000X0.375000X-0.230000X0.375000X-0.230000X-0.375000X0.230000X-0.375000X0*%
%ADD51R,2.000000X2.000000*%
%ADD52RoundRect,0.200000X0.200000X0.275000X-0.200000X0.275000X-0.200000X-0.275000X0.200000X-0.275000X0*%
%ADD53RoundRect,0.150000X0.150000X-0.725000X0.150000X0.725000X-0.150000X0.725000X-0.150000X-0.725000X0*%
%ADD54RoundRect,0.140000X0.219203X0.021213X0.021213X0.219203X-0.219203X-0.021213X-0.021213X-0.219203X0*%
%ADD55RoundRect,0.250000X-0.485000X0.485000X-0.485000X-0.485000X0.485000X-0.485000X0.485000X0.485000X0*%
%ADD56RoundRect,0.062500X-0.062500X0.362500X-0.062500X-0.362500X0.062500X-0.362500X0.062500X0.362500X0*%
%ADD57RoundRect,0.062500X-0.362500X0.062500X-0.362500X-0.062500X0.362500X-0.062500X0.362500X0.062500X0*%
%ADD58R,1.000000X1.150000*%
%ADD59R,2.750000X3.050000*%
%ADD60R,1.200000X2.200000*%
%ADD61R,0.650000X0.400000*%
%ADD62RoundRect,0.250000X-0.475000X0.900000X-0.475000X-0.900000X0.475000X-0.900000X0.475000X0.900000X0*%
%ADD63RoundRect,0.100000X-0.100000X0.637500X-0.100000X-0.637500X0.100000X-0.637500X0.100000X0.637500X0*%
%ADD64RotRect,1.400000X1.200000X135.000000*%
%ADD65RoundRect,0.391909X-0.508090X-0.458090X0.508090X-0.458090X0.508090X0.458090X-0.508090X0.458090X0*%
%ADD66RoundRect,0.050000X-0.450000X-0.050000X0.450000X-0.050000X0.450000X0.050000X-0.450000X0.050000X0*%
%ADD67RoundRect,0.050000X-0.050000X-0.450000X0.050000X-0.450000X0.050000X0.450000X-0.050000X0.450000X0*%
G04 APERTURE END LIST*
D10*
%TO.C,C2*%
X85460001Y-91840000D03*
X85460001Y-89940000D03*
%TD*%
D11*
%TO.C,R21*%
X67195000Y-74497499D03*
X67195000Y-76147499D03*
%TD*%
D12*
%TO.C,C65*%
X93060000Y-101540000D03*
X92100000Y-101540000D03*
%TD*%
D13*
%TO.C,C32*%
X83955001Y-70325000D03*
X82055001Y-70325000D03*
%TD*%
D14*
%TO.C,C24*%
X39230000Y-79100000D03*
X40190000Y-79100000D03*
%TD*%
D15*
%TO.C,L6*%
X73950000Y-70480000D03*
X73950000Y-75180000D03*
%TD*%
D16*
%TO.C,C5*%
X51050000Y-55764999D03*
X51050000Y-57664999D03*
%TD*%
D17*
%TO.C,C22*%
X41857559Y-106231163D03*
X41178737Y-106909985D03*
%TD*%
D18*
%TO.C,R10*%
X64123167Y-73185000D03*
X63103167Y-73185000D03*
%TD*%
D13*
%TO.C,C16*%
X48960000Y-86450000D03*
X47060000Y-86450000D03*
%TD*%
D19*
%TO.C,J2*%
X91605000Y-91910001D03*
D20*
X93080000Y-93435001D03*
D19*
X94555000Y-91910001D03*
%TD*%
D21*
%TO.C,L7*%
X86245000Y-97290000D03*
X87215000Y-97290000D03*
%TD*%
D22*
%TO.C,R7*%
X57833167Y-73185000D03*
X58853167Y-73185000D03*
%TD*%
D21*
%TO.C,L12*%
X92095000Y-100430001D03*
X93065000Y-100430001D03*
%TD*%
D23*
%TO.C,U3*%
X48970000Y-58500000D03*
X48970000Y-57230000D03*
X48970000Y-55960000D03*
X48970000Y-54690000D03*
X44020000Y-54690000D03*
X44020000Y-55960000D03*
X44020000Y-57230000D03*
X44020000Y-58500000D03*
%TD*%
D14*
%TO.C,C53*%
X86250000Y-95230000D03*
X87210000Y-95230000D03*
%TD*%
%TO.C,C21*%
X46750000Y-107960000D03*
X47710000Y-107960000D03*
%TD*%
D24*
%TO.C,R45*%
X50207500Y-63945000D03*
X56132500Y-63945000D03*
%TD*%
D14*
%TO.C,C55*%
X86250000Y-102040000D03*
X87210000Y-102040000D03*
%TD*%
D25*
%TO.C,C18*%
X46060589Y-103960589D03*
X46739411Y-104639411D03*
%TD*%
D26*
%TO.C,R34*%
X72480000Y-64635000D03*
X74130000Y-64635000D03*
%TD*%
D27*
%TO.C,C47*%
X88005000Y-68274999D03*
X88005000Y-72674999D03*
%TD*%
D12*
%TO.C,C27*%
X80510000Y-102999999D03*
X79550000Y-102999999D03*
%TD*%
D28*
%TO.C,R26*%
X43150624Y-101729376D03*
X42429376Y-102450624D03*
%TD*%
D29*
%TO.C,Y4*%
X37300000Y-82220000D03*
X39500000Y-82220000D03*
X39500000Y-80520000D03*
X37300000Y-80520000D03*
%TD*%
D13*
%TO.C,C6*%
X58790000Y-109570000D03*
X56890000Y-109570000D03*
%TD*%
D30*
%TO.C,C33*%
X42330000Y-65660000D03*
X42330000Y-64700000D03*
%TD*%
D31*
%TO.C,F2*%
X69200000Y-57024000D03*
D32*
X55656300Y-57124000D03*
%TD*%
D18*
%TO.C,R31*%
X87420000Y-75274999D03*
X86400000Y-75274999D03*
%TD*%
D33*
%TO.C,R44*%
X93060000Y-95720000D03*
X93060000Y-94700000D03*
%TD*%
D13*
%TO.C,C46*%
X107185001Y-58335000D03*
X105285001Y-58335000D03*
%TD*%
D34*
%TO.C,U5*%
X35658163Y-87352086D03*
X35658163Y-88622086D03*
X35658163Y-89892086D03*
X35658163Y-91162086D03*
X42958163Y-91162086D03*
X42958163Y-89892086D03*
X42958163Y-88622086D03*
X42958163Y-87352086D03*
%TD*%
D12*
%TO.C,C50*%
X35070000Y-68130000D03*
X34110000Y-68130000D03*
%TD*%
D21*
%TO.C,L9*%
X89135000Y-98319999D03*
X90105000Y-98319999D03*
%TD*%
D12*
%TO.C,C49*%
X35050000Y-73650000D03*
X34090000Y-73650000D03*
%TD*%
D19*
%TO.C,J10*%
X94535001Y-106339999D03*
D20*
X93060001Y-104814999D03*
D19*
X91585001Y-106339999D03*
%TD*%
D30*
%TO.C,C36*%
X83390000Y-94140000D03*
X83390000Y-93180000D03*
%TD*%
D35*
%TO.C,D6*%
X67195000Y-72999999D03*
X67195000Y-71424999D03*
%TD*%
D30*
%TO.C,C57*%
X88190000Y-100940000D03*
X88190000Y-99980000D03*
%TD*%
D14*
%TO.C,C54*%
X86250000Y-96260000D03*
X87210000Y-96260000D03*
%TD*%
D36*
%TO.C,J7*%
X54075000Y-105185001D03*
D37*
X52550000Y-106660001D03*
D36*
X54075000Y-108135001D03*
%TD*%
D28*
%TO.C,R27*%
X43740000Y-102330000D03*
X43018752Y-103051248D03*
%TD*%
D18*
%TO.C,R29*%
X64123167Y-75825000D03*
X63103167Y-75825000D03*
%TD*%
D14*
%TO.C,C38*%
X44750000Y-64610000D03*
X45710000Y-64610000D03*
%TD*%
D12*
%TO.C,C26*%
X38250000Y-79090000D03*
X37290000Y-79090000D03*
%TD*%
D13*
%TO.C,C43*%
X103455000Y-58335000D03*
X101555000Y-58335000D03*
%TD*%
D26*
%TO.C,R39*%
X92215000Y-71780000D03*
X93865000Y-71780000D03*
%TD*%
D14*
%TO.C,C40*%
X48250000Y-72060000D03*
X49210000Y-72060000D03*
%TD*%
D38*
%TO.C,R3*%
X41262501Y-55472501D03*
X41262501Y-57297501D03*
%TD*%
D39*
%TO.C,D7*%
X34795000Y-55257500D03*
X32895000Y-55257500D03*
X33845000Y-57132500D03*
%TD*%
D22*
%TO.C,R32*%
X63103167Y-76835000D03*
X64123167Y-76835000D03*
%TD*%
D40*
%TO.C,L3*%
X49670000Y-105945000D03*
X49670000Y-106915000D03*
%TD*%
D14*
%TO.C,C10*%
X53140000Y-101260000D03*
X54100000Y-101260000D03*
%TD*%
D21*
%TO.C,L5*%
X86245000Y-99610000D03*
X87215000Y-99610000D03*
%TD*%
D41*
%TO.C,R37*%
X27040000Y-58810000D03*
X27040000Y-59830000D03*
%TD*%
D18*
%TO.C,R43*%
X94070000Y-95720000D03*
X93050000Y-95720000D03*
%TD*%
D33*
%TO.C,R38*%
X43110000Y-79250000D03*
X43110000Y-78230000D03*
%TD*%
D22*
%TO.C,R15*%
X33060000Y-87359999D03*
X34080000Y-87359999D03*
%TD*%
D18*
%TO.C,R12*%
X58853167Y-76835000D03*
X57833167Y-76835000D03*
%TD*%
%TO.C,R28*%
X50710000Y-108900000D03*
X49690000Y-108900000D03*
%TD*%
D30*
%TO.C,C62*%
X91060000Y-97809998D03*
X91060000Y-96849998D03*
%TD*%
D42*
%TO.C,D5*%
X105445000Y-55870000D03*
X108245000Y-55870000D03*
%TD*%
D35*
%TO.C,D9*%
X68985000Y-72994999D03*
X68985000Y-71419999D03*
%TD*%
D30*
%TO.C,C29*%
X38770000Y-63480000D03*
X38770000Y-62520000D03*
%TD*%
D43*
%TO.C,U4*%
X49215355Y-94964646D03*
D44*
X49772202Y-99269157D03*
X50055045Y-98986314D03*
X50337887Y-98703472D03*
X50620730Y-98420629D03*
X50903573Y-98137786D03*
X51186415Y-97854944D03*
X51469258Y-97572101D03*
X51752101Y-97289258D03*
X52034944Y-97006415D03*
X52317786Y-96723573D03*
X52600629Y-96440730D03*
X52883472Y-96157887D03*
X53166314Y-95875045D03*
X53449157Y-95592202D03*
D45*
X53449157Y-94407798D03*
X53166314Y-94124955D03*
X52883472Y-93842113D03*
X52600629Y-93559270D03*
X52317786Y-93276427D03*
X52034944Y-92993585D03*
X51752101Y-92710742D03*
X51469258Y-92427899D03*
X51186415Y-92145056D03*
X50903573Y-91862214D03*
X50620730Y-91579371D03*
X50337887Y-91296528D03*
X50055045Y-91013686D03*
X49772202Y-90730843D03*
D44*
X48587798Y-90730843D03*
X48304955Y-91013686D03*
X48022113Y-91296528D03*
X47739270Y-91579371D03*
X47456427Y-91862214D03*
X47173585Y-92145056D03*
X46890742Y-92427899D03*
X46607899Y-92710742D03*
X46325056Y-92993585D03*
X46042214Y-93276427D03*
X45759371Y-93559270D03*
X45476528Y-93842113D03*
X45193686Y-94124955D03*
X44910843Y-94407798D03*
D45*
X44910843Y-95592202D03*
X45193686Y-95875045D03*
X45476528Y-96157887D03*
X45759371Y-96440730D03*
X46042214Y-96723573D03*
X46325056Y-97006415D03*
X46607899Y-97289258D03*
X46890742Y-97572101D03*
X47173585Y-97854944D03*
X47456427Y-98137786D03*
X47739270Y-98420629D03*
X48022113Y-98703472D03*
X48304955Y-98986314D03*
X48587798Y-99269157D03*
%TD*%
D46*
%TO.C,D8*%
X38670000Y-57345000D03*
X38670000Y-55445000D03*
X36795000Y-56395000D03*
%TD*%
D10*
%TO.C,C39*%
X80495000Y-74155000D03*
X80495000Y-72255000D03*
%TD*%
D47*
%TO.C,D4*%
X44680002Y-80564999D03*
X43105002Y-80564999D03*
%TD*%
D48*
%TO.C,C13*%
X46530000Y-101290000D03*
X46530000Y-102250000D03*
%TD*%
D49*
%TO.C,L4*%
X49675000Y-107940000D03*
X48705000Y-107940000D03*
%TD*%
D22*
%TO.C,R4*%
X55010001Y-101270000D03*
X56030001Y-101270000D03*
%TD*%
D50*
%TO.C,U8*%
X78335000Y-65855000D03*
X78335000Y-67355000D03*
X79475000Y-65855000D03*
X79475000Y-67355000D03*
D23*
X81380000Y-68510000D03*
X81380000Y-67240000D03*
X81380000Y-65970000D03*
X81380000Y-64700000D03*
X76430000Y-64700000D03*
X76430000Y-65970000D03*
X76430000Y-67240000D03*
X76430000Y-68510000D03*
%TD*%
D11*
%TO.C,R48*%
X85370000Y-65835000D03*
X85370000Y-67485000D03*
%TD*%
D51*
%TO.C,SW5*%
X31422679Y-77910000D03*
X31422679Y-85910000D03*
%TD*%
D48*
%TO.C,C56*%
X88190000Y-97290001D03*
X88190000Y-98250001D03*
%TD*%
D51*
%TO.C,SW3*%
X59530000Y-103150000D03*
X67530000Y-103150000D03*
%TD*%
D26*
%TO.C,R19*%
X46572502Y-82289999D03*
X48222502Y-82289999D03*
%TD*%
D21*
%TO.C,L11*%
X92085000Y-96750000D03*
X93055000Y-96750000D03*
%TD*%
D30*
%TO.C,C34*%
X80620000Y-89620000D03*
X80620000Y-88660000D03*
%TD*%
D22*
%TO.C,R6*%
X40660000Y-99710000D03*
X41680000Y-99710000D03*
%TD*%
%TO.C,R22*%
X48653223Y-108902807D03*
X49673223Y-108902807D03*
%TD*%
D51*
%TO.C,SW2*%
X59520000Y-107420000D03*
X67520000Y-107420000D03*
%TD*%
D48*
%TO.C,C63*%
X91070000Y-100430000D03*
X91070000Y-101390000D03*
%TD*%
D22*
%TO.C,R2*%
X57833167Y-71145000D03*
X58853167Y-71145000D03*
%TD*%
D11*
%TO.C,R47*%
X69395000Y-64920000D03*
X69395000Y-66570000D03*
%TD*%
D30*
%TO.C,C3*%
X83040000Y-89620000D03*
X83040000Y-88660000D03*
%TD*%
D35*
%TO.C,D2*%
X65545000Y-73007500D03*
X65545000Y-71432500D03*
%TD*%
D52*
%TO.C,R23*%
X82620000Y-63305000D03*
X80970000Y-63305000D03*
%TD*%
D26*
%TO.C,R35*%
X76920000Y-63295000D03*
X78570000Y-63295000D03*
%TD*%
D33*
%TO.C,R17*%
X51380000Y-79840000D03*
X51380000Y-78820000D03*
%TD*%
D41*
%TO.C,R36*%
X33422679Y-66170000D03*
X33422679Y-67190000D03*
%TD*%
D18*
%TO.C,R42*%
X45410000Y-63570000D03*
X44390000Y-63570000D03*
%TD*%
D34*
%TO.C,U7*%
X28580000Y-59825000D03*
X28580000Y-61095000D03*
X28580000Y-62365000D03*
X28580000Y-63635000D03*
X35880000Y-63635000D03*
X35880000Y-62365000D03*
X35880000Y-61095000D03*
X35880000Y-59825000D03*
%TD*%
D18*
%TO.C,R33*%
X64123167Y-77905000D03*
X63103167Y-77905000D03*
%TD*%
D11*
%TO.C,R46*%
X68985000Y-74532499D03*
X68985000Y-76182499D03*
%TD*%
D18*
%TO.C,R8*%
X64123167Y-71145000D03*
X63103167Y-71145000D03*
%TD*%
D26*
%TO.C,R20*%
X46572502Y-80564999D03*
X48222502Y-80564999D03*
%TD*%
D30*
%TO.C,C66*%
X94110000Y-97800000D03*
X94110000Y-96840000D03*
%TD*%
D53*
%TO.C,Q3*%
X78880000Y-60220001D03*
X80150000Y-60220001D03*
X81420000Y-60220001D03*
X82690000Y-60220001D03*
X82690000Y-55070001D03*
X81420000Y-55070001D03*
X80150000Y-55070001D03*
X78880000Y-55070001D03*
%TD*%
D14*
%TO.C,C4*%
X44683164Y-87347088D03*
X45643164Y-87347088D03*
%TD*%
D21*
%TO.C,L10*%
X89155000Y-99890000D03*
X90125000Y-99890000D03*
%TD*%
D12*
%TO.C,C64*%
X93050000Y-97810000D03*
X92090000Y-97810000D03*
%TD*%
D18*
%TO.C,R41*%
X45410000Y-62520000D03*
X44390000Y-62520000D03*
%TD*%
D54*
%TO.C,C14*%
X47704053Y-89465477D03*
X47025231Y-88786655D03*
%TD*%
D30*
%TO.C,C30*%
X83820000Y-91840000D03*
X83820000Y-90880000D03*
%TD*%
D11*
%TO.C,R18*%
X65545000Y-74500001D03*
X65545000Y-76150001D03*
%TD*%
D48*
%TO.C,C48*%
X40320000Y-76480000D03*
X40320000Y-77440000D03*
%TD*%
D22*
%TO.C,R9*%
X63103167Y-72155000D03*
X64123167Y-72155000D03*
%TD*%
D14*
%TO.C,C58*%
X88180000Y-96250000D03*
X89140000Y-96250000D03*
%TD*%
D30*
%TO.C,C7*%
X53862617Y-89528432D03*
X53862617Y-88568432D03*
%TD*%
D21*
%TO.C,L8*%
X86245000Y-100940000D03*
X87215000Y-100940000D03*
%TD*%
D18*
%TO.C,R30*%
X89390000Y-75274999D03*
X88370000Y-75274999D03*
%TD*%
%TO.C,R24*%
X94090000Y-99429999D03*
X93070000Y-99429999D03*
%TD*%
D55*
%TO.C,U2*%
X81280000Y-98440000D03*
X82980000Y-98440000D03*
X82980000Y-100140000D03*
X81280000Y-100140000D03*
D56*
X83755000Y-96840000D03*
X83105000Y-96840000D03*
X82455000Y-96840000D03*
X81805000Y-96840000D03*
X81155000Y-96840000D03*
X80505000Y-96840000D03*
D57*
X79680000Y-97665000D03*
X79680000Y-98315000D03*
X79680000Y-98965000D03*
X79680000Y-99615000D03*
X79680000Y-100265000D03*
X79680000Y-100915000D03*
D56*
X80505000Y-101740000D03*
X81155000Y-101740000D03*
X81805000Y-101740000D03*
X82455000Y-101740000D03*
X83105000Y-101740000D03*
X83755000Y-101740000D03*
D57*
X84580000Y-100915000D03*
X84580000Y-100265000D03*
X84580000Y-99615000D03*
X84580000Y-98965000D03*
X84580000Y-98315000D03*
X84580000Y-97665000D03*
%TD*%
D58*
%TO.C,Y5*%
X82020000Y-92794999D03*
X82020000Y-91044999D03*
X80620000Y-91044999D03*
X80620000Y-92794999D03*
%TD*%
D16*
%TO.C,C12*%
X51630000Y-101390000D03*
X51630000Y-103290000D03*
%TD*%
D22*
%TO.C,R25*%
X61730000Y-100150000D03*
X62750000Y-100150000D03*
%TD*%
D33*
%TO.C,R16*%
X52430000Y-79840000D03*
X52430000Y-78820000D03*
%TD*%
D18*
%TO.C,R5*%
X58853167Y-72155000D03*
X57833167Y-72155000D03*
%TD*%
D22*
%TO.C,R11*%
X57833167Y-75825000D03*
X58853167Y-75825000D03*
%TD*%
D41*
%TO.C,R40*%
X93060000Y-102500000D03*
X93060000Y-103520000D03*
%TD*%
D14*
%TO.C,C52*%
X44750000Y-67840000D03*
X45710000Y-67840000D03*
%TD*%
D48*
%TO.C,C31*%
X41350000Y-76480000D03*
X41350000Y-77440000D03*
%TD*%
D12*
%TO.C,C60*%
X90100000Y-97280001D03*
X89140000Y-97280001D03*
%TD*%
D22*
%TO.C,R13*%
X57833167Y-77905000D03*
X58853167Y-77905000D03*
%TD*%
D12*
%TO.C,C61*%
X90120000Y-100940000D03*
X89160000Y-100940000D03*
%TD*%
D30*
%TO.C,C37*%
X69270000Y-107420000D03*
X69270000Y-106460000D03*
%TD*%
D12*
%TO.C,C17*%
X50670000Y-104940000D03*
X49710000Y-104940000D03*
%TD*%
D10*
%TO.C,C25*%
X83685000Y-67864999D03*
X83685000Y-65964999D03*
%TD*%
D59*
%TO.C,Q7*%
X85585001Y-59075000D03*
X88635001Y-59075000D03*
X88635001Y-55725000D03*
X85585001Y-55725000D03*
D60*
X84830001Y-63700000D03*
X89390001Y-63700000D03*
%TD*%
D30*
%TO.C,C51*%
X40630000Y-63480000D03*
X40630000Y-62520000D03*
%TD*%
D61*
%TO.C,Q6*%
X59983167Y-76105000D03*
X59983167Y-76755000D03*
X59983167Y-77405000D03*
X61883167Y-77405000D03*
X61883167Y-76755000D03*
X61883167Y-76105000D03*
%TD*%
D14*
%TO.C,C11*%
X53140000Y-102250000D03*
X54100000Y-102250000D03*
%TD*%
%TO.C,C35*%
X44750000Y-65870000D03*
X45710000Y-65870000D03*
%TD*%
D61*
%TO.C,Q5*%
X59983167Y-71505000D03*
X59983167Y-72155000D03*
X59983167Y-72805000D03*
X61883167Y-72805000D03*
X61883167Y-72155000D03*
X61883167Y-71505000D03*
%TD*%
D47*
%TO.C,D3*%
X44680002Y-82250001D03*
X43105002Y-82250001D03*
%TD*%
D10*
%TO.C,C41*%
X78425000Y-74155000D03*
X78425000Y-72255000D03*
%TD*%
D48*
%TO.C,C67*%
X94119999Y-100430000D03*
X94119999Y-101390000D03*
%TD*%
D62*
%TO.C,U10*%
X96676500Y-65225000D03*
X98476500Y-65225000D03*
X100276500Y-65225000D03*
D63*
X102701500Y-62362500D03*
X102051500Y-62362500D03*
X101401500Y-62362500D03*
X100751500Y-62362500D03*
X100101500Y-62362500D03*
X99451500Y-62362500D03*
X98801500Y-62362500D03*
X98151500Y-62362500D03*
X97501500Y-62362500D03*
X96851500Y-62362500D03*
X96201500Y-62362500D03*
X95551500Y-62362500D03*
X94901500Y-62362500D03*
X94251500Y-62362500D03*
X94251500Y-68087500D03*
X94901500Y-68087500D03*
X95551500Y-68087500D03*
X96201500Y-68087500D03*
X96851500Y-68087500D03*
X97501500Y-68087500D03*
X98151500Y-68087500D03*
X98801500Y-68087500D03*
X99451500Y-68087500D03*
X100101500Y-68087500D03*
X100751500Y-68087500D03*
X101401500Y-68087500D03*
X102051500Y-68087500D03*
X102701500Y-68087500D03*
%TD*%
D18*
%TO.C,R14*%
X44445000Y-60095000D03*
X43425000Y-60095000D03*
%TD*%
D13*
%TO.C,C42*%
X93765000Y-70004999D03*
X91865000Y-70004999D03*
%TD*%
D14*
%TO.C,C59*%
X88200000Y-101960000D03*
X89160000Y-101960000D03*
%TD*%
D13*
%TO.C,C44*%
X95745000Y-58335000D03*
X93845000Y-58335000D03*
%TD*%
D16*
%TO.C,C15*%
X47930000Y-101400000D03*
X47930000Y-103300000D03*
%TD*%
D64*
%TO.C,Y2*%
X45528858Y-105666777D03*
X43973223Y-104111142D03*
X42771142Y-105313223D03*
X44326777Y-106868858D03*
%TD*%
D30*
%TO.C,C45*%
X84400000Y-94140000D03*
X84400000Y-93180000D03*
%TD*%
D48*
%TO.C,C9*%
X37730000Y-59810000D03*
X37730000Y-60770000D03*
%TD*%
D51*
%TO.C,SW4*%
X31422679Y-75490000D03*
X31422679Y-67490000D03*
%TD*%
D12*
%TO.C,C8*%
X42555000Y-97450000D03*
X41595000Y-97450000D03*
%TD*%
D53*
%TO.C,Q2*%
X73540000Y-60220000D03*
X74810000Y-60220000D03*
X76080000Y-60220000D03*
X77350000Y-60220000D03*
X77350000Y-55070000D03*
X76080000Y-55070000D03*
X74810000Y-55070000D03*
X73540000Y-55070000D03*
%TD*%
D21*
%TO.C,L2*%
X86245000Y-98310000D03*
X87215000Y-98310000D03*
%TD*%
D12*
%TO.C,C20*%
X50720000Y-109890000D03*
X49760000Y-109890000D03*
%TD*%
D65*
%TO.C,U11*%
X40489999Y-71099999D03*
D66*
X37052500Y-68450000D03*
X37052500Y-68850000D03*
X37052500Y-69250000D03*
X37052500Y-69650000D03*
X37052500Y-70050000D03*
X37052500Y-70450000D03*
X37052500Y-70850000D03*
X37052500Y-71250000D03*
X37052500Y-71650000D03*
X37052500Y-72050000D03*
X37052500Y-72450000D03*
X37052500Y-72850000D03*
X37052500Y-73250000D03*
X37052500Y-73650000D03*
D67*
X37890000Y-74487500D03*
X38290000Y-74487500D03*
X38690000Y-74487500D03*
X39090000Y-74487500D03*
X39490000Y-74487500D03*
X39890000Y-74487500D03*
X40290000Y-74487500D03*
X40690000Y-74487500D03*
X41090000Y-74487500D03*
X41490000Y-74487500D03*
X41890000Y-74487500D03*
X42290000Y-74487500D03*
X42690000Y-74487500D03*
X43090000Y-74487500D03*
D66*
X43927500Y-73650000D03*
X43927500Y-73250000D03*
X43927500Y-72850000D03*
X43927500Y-72450000D03*
X43927500Y-72050000D03*
X43927500Y-71650000D03*
X43927500Y-71250000D03*
X43927500Y-70850000D03*
X43927500Y-70450000D03*
X43927500Y-70050000D03*
X43927500Y-69650000D03*
X43927500Y-69250000D03*
X43927500Y-68850000D03*
X43927500Y-68450000D03*
D67*
X43090000Y-67612500D03*
X42690000Y-67612500D03*
X42290000Y-67612500D03*
X41890000Y-67612500D03*
X41490000Y-67612500D03*
X41090000Y-67612500D03*
X40690000Y-67612500D03*
X40290000Y-67612500D03*
X39890000Y-67612500D03*
X39490000Y-67612500D03*
X39090000Y-67612500D03*
X38690000Y-67612500D03*
X38290000Y-67612500D03*
X37890000Y-67612500D03*
%TD*%
M02*
