%TF.GenerationSoftware,KiCad,Pcbnew,(6.0.2)*%
%TF.CreationDate,2022-07-01T10:37:28-06:00*%
%TF.ProjectId,RGB-controller,5247422d-636f-46e7-9472-6f6c6c65722e,B*%
%TF.SameCoordinates,Original*%
%TF.FileFunction,Profile,NP*%
%FSLAX46Y46*%
G04 Gerber Fmt 4.6, Leading zero omitted, Abs format (unit mm)*
G04 Created by KiCad (PCBNEW (6.0.2)) date 2022-07-01 10:37:28*
%MOMM*%
%LPD*%
G01*
G04 APERTURE LIST*
%TA.AperFunction,Profile*%
%ADD10C,0.050000*%
%TD*%
G04 APERTURE END LIST*
D10*
X33744404Y-44730432D02*
G75*
G03*
X32494404Y-45980432I2J-1250002D01*
G01*
X108744404Y-137730432D02*
G75*
G03*
X110994404Y-135480432I-1J2250001D01*
G01*
X110994404Y-45980432D02*
G75*
G03*
X109744404Y-44730432I-1250002J-2D01*
G01*
X32494404Y-135230432D02*
G75*
G03*
X34994404Y-137730432I2500000J0D01*
G01*
X33744404Y-44730432D02*
X86594404Y-44730432D01*
X110994403Y-48580432D02*
X110994404Y-135480432D01*
X110994404Y-45980432D02*
X110994403Y-48580432D01*
X50254404Y-51880432D02*
X52444404Y-51880432D01*
X52444404Y-51880432D02*
X52444404Y-55380432D01*
X52444404Y-55380432D02*
X50254404Y-55380432D01*
X50254404Y-55380432D02*
X50254404Y-51880432D01*
X88694404Y-47030432D02*
X88694404Y-44730432D01*
X32494404Y-135230432D02*
X32494404Y-45980432D01*
X86594404Y-47030432D02*
X88694404Y-47030432D01*
X86594404Y-44730432D02*
X86594404Y-47030432D01*
X90864404Y-51880432D02*
X93054404Y-51880432D01*
X93054404Y-51880432D02*
X93054404Y-56880432D01*
X93054404Y-56880432D02*
X90864404Y-56880432D01*
X90864404Y-56880432D02*
X90864404Y-51880432D01*
X109744404Y-44730432D02*
X88694404Y-44730432D01*
X108744404Y-137730432D02*
X34994404Y-137730432D01*
M02*
