%TF.GenerationSoftware,KiCad,Pcbnew,(6.0.2)*%
%TF.CreationDate,2022-07-01T10:37:28-06:00*%
%TF.ProjectId,RGB-controller,5247422d-636f-46e7-9472-6f6c6c65722e,B*%
%TF.SameCoordinates,Original*%
%TF.FileFunction,Legend,Bot*%
%TF.FilePolarity,Positive*%
%FSLAX46Y46*%
G04 Gerber Fmt 4.6, Leading zero omitted, Abs format (unit mm)*
G04 Created by KiCad (PCBNEW (6.0.2)) date 2022-07-01 10:37:28*
%MOMM*%
%LPD*%
G01*
G04 APERTURE LIST*
%ADD10C,0.150000*%
%ADD11C,0.120000*%
%ADD12C,0.500000*%
%ADD13R,1.000000X1.000000*%
%ADD14O,1.000000X1.000000*%
%ADD15C,2.000000*%
%ADD16C,0.900000*%
%ADD17C,12.800000*%
%ADD18R,2.000000X1.000000*%
G04 APERTURE END LIST*
D10*
X61565238Y-74745000D02*
X61627142Y-74714047D01*
X61720000Y-74714047D01*
X61812857Y-74745000D01*
X61874761Y-74806904D01*
X61905714Y-74868809D01*
X61936666Y-74992619D01*
X61936666Y-75085476D01*
X61905714Y-75209285D01*
X61874761Y-75271190D01*
X61812857Y-75333095D01*
X61720000Y-75364047D01*
X61658095Y-75364047D01*
X61565238Y-75333095D01*
X61534285Y-75302142D01*
X61534285Y-75085476D01*
X61658095Y-75085476D01*
X61255714Y-75364047D02*
X61255714Y-74714047D01*
X60884285Y-75364047D01*
X60884285Y-74714047D01*
X60574761Y-75364047D02*
X60574761Y-74714047D01*
X60420000Y-74714047D01*
X60327142Y-74745000D01*
X60265238Y-74806904D01*
X60234285Y-74868809D01*
X60203333Y-74992619D01*
X60203333Y-75085476D01*
X60234285Y-75209285D01*
X60265238Y-75271190D01*
X60327142Y-75333095D01*
X60420000Y-75364047D01*
X60574761Y-75364047D01*
X84878333Y-63064047D02*
X85095000Y-62754523D01*
X85249761Y-63064047D02*
X85249761Y-62414047D01*
X85002142Y-62414047D01*
X84940238Y-62445000D01*
X84909285Y-62475952D01*
X84878333Y-62537857D01*
X84878333Y-62630714D01*
X84909285Y-62692619D01*
X84940238Y-62723571D01*
X85002142Y-62754523D01*
X85249761Y-62754523D01*
X84259285Y-62445000D02*
X84321190Y-62414047D01*
X84414047Y-62414047D01*
X84506904Y-62445000D01*
X84568809Y-62506904D01*
X84599761Y-62568809D01*
X84630714Y-62692619D01*
X84630714Y-62785476D01*
X84599761Y-62909285D01*
X84568809Y-62971190D01*
X84506904Y-63033095D01*
X84414047Y-63064047D01*
X84352142Y-63064047D01*
X84259285Y-63033095D01*
X84228333Y-63002142D01*
X84228333Y-62785476D01*
X84352142Y-62785476D01*
X83733095Y-62723571D02*
X83640238Y-62754523D01*
X83609285Y-62785476D01*
X83578333Y-62847380D01*
X83578333Y-62940238D01*
X83609285Y-63002142D01*
X83640238Y-63033095D01*
X83702142Y-63064047D01*
X83949761Y-63064047D01*
X83949761Y-62414047D01*
X83733095Y-62414047D01*
X83671190Y-62445000D01*
X83640238Y-62475952D01*
X83609285Y-62537857D01*
X83609285Y-62599761D01*
X83640238Y-62661666D01*
X83671190Y-62692619D01*
X83733095Y-62723571D01*
X83949761Y-62723571D01*
X83330714Y-62475952D02*
X83299761Y-62445000D01*
X83237857Y-62414047D01*
X83083095Y-62414047D01*
X83021190Y-62445000D01*
X82990238Y-62475952D01*
X82959285Y-62537857D01*
X82959285Y-62599761D01*
X82990238Y-62692619D01*
X83361666Y-63064047D01*
X82959285Y-63064047D01*
X59828333Y-63064047D02*
X60045000Y-62754523D01*
X60199761Y-63064047D02*
X60199761Y-62414047D01*
X59952142Y-62414047D01*
X59890238Y-62445000D01*
X59859285Y-62475952D01*
X59828333Y-62537857D01*
X59828333Y-62630714D01*
X59859285Y-62692619D01*
X59890238Y-62723571D01*
X59952142Y-62754523D01*
X60199761Y-62754523D01*
X59209285Y-62445000D02*
X59271190Y-62414047D01*
X59364047Y-62414047D01*
X59456904Y-62445000D01*
X59518809Y-62506904D01*
X59549761Y-62568809D01*
X59580714Y-62692619D01*
X59580714Y-62785476D01*
X59549761Y-62909285D01*
X59518809Y-62971190D01*
X59456904Y-63033095D01*
X59364047Y-63064047D01*
X59302142Y-63064047D01*
X59209285Y-63033095D01*
X59178333Y-63002142D01*
X59178333Y-62785476D01*
X59302142Y-62785476D01*
X58683095Y-62723571D02*
X58590238Y-62754523D01*
X58559285Y-62785476D01*
X58528333Y-62847380D01*
X58528333Y-62940238D01*
X58559285Y-63002142D01*
X58590238Y-63033095D01*
X58652142Y-63064047D01*
X58899761Y-63064047D01*
X58899761Y-62414047D01*
X58683095Y-62414047D01*
X58621190Y-62445000D01*
X58590238Y-62475952D01*
X58559285Y-62537857D01*
X58559285Y-62599761D01*
X58590238Y-62661666D01*
X58621190Y-62692619D01*
X58683095Y-62723571D01*
X58899761Y-62723571D01*
X57909285Y-63064047D02*
X58280714Y-63064047D01*
X58095000Y-63064047D02*
X58095000Y-62414047D01*
X58156904Y-62506904D01*
X58218809Y-62568809D01*
X58280714Y-62599761D01*
X50665238Y-76366428D02*
X50170000Y-76366428D01*
X50417619Y-76614047D02*
X50417619Y-76118809D01*
X49520000Y-76614047D02*
X49891428Y-76614047D01*
X49705714Y-76614047D02*
X49705714Y-75964047D01*
X49767619Y-76056904D01*
X49829523Y-76118809D01*
X49891428Y-76149761D01*
X49272380Y-76025952D02*
X49241428Y-75995000D01*
X49179523Y-75964047D01*
X49024761Y-75964047D01*
X48962857Y-75995000D01*
X48931904Y-76025952D01*
X48900952Y-76087857D01*
X48900952Y-76149761D01*
X48931904Y-76242619D01*
X49303333Y-76614047D01*
X48900952Y-76614047D01*
X48715238Y-75964047D02*
X48498571Y-76614047D01*
X48281904Y-75964047D01*
D11*
%TO.C,MOD501*%
X76970000Y-105170000D02*
X93170000Y-105170000D01*
X93170000Y-121370000D02*
X93170000Y-120970000D01*
X76970000Y-105570000D02*
X76970000Y-105170000D01*
X76970000Y-121020000D02*
X76070000Y-121020000D01*
X76970000Y-121370000D02*
X76970000Y-121020000D01*
X76970000Y-121370000D02*
X93170000Y-121370000D01*
X93170000Y-105170000D02*
X93170000Y-105570000D01*
%TD*%
%LPC*%
D12*
%TO.C,MK801*%
X34757000Y-100570000D03*
%TD*%
D13*
%TO.C,J101*%
X34920000Y-105820000D03*
D14*
X34920000Y-107090000D03*
X34920000Y-108360000D03*
X34920000Y-109630000D03*
X34920000Y-110900000D03*
X34920000Y-112170000D03*
%TD*%
D15*
%TO.C,J201*%
X59179404Y-60680432D03*
X63329404Y-60680432D03*
X66659404Y-60680432D03*
X69989404Y-60680432D03*
X73319404Y-60680432D03*
X76649404Y-60680432D03*
X79979404Y-60680432D03*
X84129404Y-60680432D03*
X59179404Y-56480432D03*
X63329404Y-56480432D03*
X66659404Y-56480432D03*
X69989404Y-56480432D03*
X73319404Y-56480432D03*
X76649404Y-56480432D03*
X79979404Y-56480432D03*
X84129404Y-56480432D03*
X59179404Y-52280432D03*
X63329404Y-52280432D03*
X66659404Y-52280432D03*
X69989404Y-52280432D03*
X73319404Y-52280432D03*
X76649404Y-52280432D03*
X79979404Y-52280432D03*
X84129404Y-52280432D03*
%TD*%
D13*
%TO.C,J202*%
X65255000Y-120450000D03*
D14*
X66525000Y-120450000D03*
X67795000Y-120450000D03*
X69065000Y-120450000D03*
X70335000Y-120450000D03*
%TD*%
D16*
%TO.C,H202*%
X45590000Y-130400000D03*
X37395887Y-133794113D03*
X44184113Y-127005887D03*
X35990000Y-130400000D03*
X37395887Y-127005887D03*
X40790000Y-135200000D03*
X40790000Y-125600000D03*
D17*
X40790000Y-130400000D03*
D16*
X44184113Y-133794113D03*
%TD*%
%TO.C,H201*%
X107530000Y-130400000D03*
X106124113Y-127005887D03*
D17*
X102730000Y-130400000D03*
D16*
X102730000Y-125600000D03*
X97930000Y-130400000D03*
X106124113Y-133794113D03*
X102730000Y-135200000D03*
X99335887Y-133794113D03*
X99335887Y-127005887D03*
%TD*%
D18*
%TO.C,MOD501*%
X77070000Y-120270000D03*
X77070000Y-118270000D03*
X77070000Y-116270000D03*
X77070000Y-114270000D03*
X77070000Y-112270000D03*
X77070000Y-110270000D03*
X77070000Y-108270000D03*
X77070000Y-106270000D03*
X93070000Y-106270000D03*
X93070000Y-108270000D03*
X93070000Y-110270000D03*
X93070000Y-112270000D03*
X93070000Y-114270000D03*
X93070000Y-116270000D03*
X93070000Y-118270000D03*
X93070000Y-120270000D03*
%TD*%
M02*
