%TF.GenerationSoftware,KiCad,Pcbnew,(6.0.2)*%
%TF.CreationDate,2022-07-01T10:37:28-06:00*%
%TF.ProjectId,RGB-controller,5247422d-636f-46e7-9472-6f6c6c65722e,B*%
%TF.SameCoordinates,Original*%
%TF.FileFunction,Soldermask,Bot*%
%TF.FilePolarity,Negative*%
%FSLAX46Y46*%
G04 Gerber Fmt 4.6, Leading zero omitted, Abs format (unit mm)*
G04 Created by KiCad (PCBNEW (6.0.2)) date 2022-07-01 10:37:28*
%MOMM*%
%LPD*%
G01*
G04 APERTURE LIST*
%ADD10C,0.500000*%
%ADD11R,1.000000X1.000000*%
%ADD12O,1.000000X1.000000*%
%ADD13C,2.000000*%
%ADD14C,0.900000*%
%ADD15C,12.800000*%
%ADD16R,2.000000X1.000000*%
G04 APERTURE END LIST*
D10*
%TO.C,MK801*%
X34757000Y-100570000D03*
%TD*%
D11*
%TO.C,J101*%
X34920000Y-105820000D03*
D12*
X34920000Y-107090000D03*
X34920000Y-108360000D03*
X34920000Y-109630000D03*
X34920000Y-110900000D03*
X34920000Y-112170000D03*
%TD*%
D13*
%TO.C,J201*%
X59179404Y-60680432D03*
X63329404Y-60680432D03*
X66659404Y-60680432D03*
X69989404Y-60680432D03*
X73319404Y-60680432D03*
X76649404Y-60680432D03*
X79979404Y-60680432D03*
X84129404Y-60680432D03*
X59179404Y-56480432D03*
X63329404Y-56480432D03*
X66659404Y-56480432D03*
X69989404Y-56480432D03*
X73319404Y-56480432D03*
X76649404Y-56480432D03*
X79979404Y-56480432D03*
X84129404Y-56480432D03*
X59179404Y-52280432D03*
X63329404Y-52280432D03*
X66659404Y-52280432D03*
X69989404Y-52280432D03*
X73319404Y-52280432D03*
X76649404Y-52280432D03*
X79979404Y-52280432D03*
X84129404Y-52280432D03*
%TD*%
D11*
%TO.C,J202*%
X65255000Y-120450000D03*
D12*
X66525000Y-120450000D03*
X67795000Y-120450000D03*
X69065000Y-120450000D03*
X70335000Y-120450000D03*
%TD*%
D14*
%TO.C,H202*%
X45590000Y-130400000D03*
X37395887Y-133794113D03*
X44184113Y-127005887D03*
X35990000Y-130400000D03*
X37395887Y-127005887D03*
X40790000Y-135200000D03*
X40790000Y-125600000D03*
D15*
X40790000Y-130400000D03*
D14*
X44184113Y-133794113D03*
%TD*%
%TO.C,H201*%
X107530000Y-130400000D03*
X106124113Y-127005887D03*
D15*
X102730000Y-130400000D03*
D14*
X102730000Y-125600000D03*
X97930000Y-130400000D03*
X106124113Y-133794113D03*
X102730000Y-135200000D03*
X99335887Y-133794113D03*
X99335887Y-127005887D03*
%TD*%
D16*
%TO.C,MOD501*%
X77070000Y-120270000D03*
X77070000Y-118270000D03*
X77070000Y-116270000D03*
X77070000Y-114270000D03*
X77070000Y-112270000D03*
X77070000Y-110270000D03*
X77070000Y-108270000D03*
X77070000Y-106270000D03*
X93070000Y-106270000D03*
X93070000Y-108270000D03*
X93070000Y-110270000D03*
X93070000Y-112270000D03*
X93070000Y-114270000D03*
X93070000Y-116270000D03*
X93070000Y-118270000D03*
X93070000Y-120270000D03*
%TD*%
M02*
