M48
; DRILL file {KiCad (6.0.2)} date Fri 01 Jul 2022 10:37:28 AM MDT
; FORMAT={-:-/ absolute / inch / decimal}
; #@! TF.CreationDate,2022-07-01T10:37:28-06:00
; #@! TF.GenerationSoftware,Kicad,Pcbnew,(6.0.2)
; #@! TF.FileFunction,Plated,1,4,PTH
FMAT,2
INCH
; #@! TA.AperFunction,Plated,PTH,ViaDrill
T1C0.0079
; #@! TA.AperFunction,Plated,PTH,ComponentDrill
T2C0.0079
; #@! TA.AperFunction,Plated,PTH,ComponentDrill
T3C0.0118
; #@! TA.AperFunction,Plated,PTH,ComponentDrill
T4C0.0138
; #@! TA.AperFunction,Plated,PTH,ViaDrill
T5C0.0157
; #@! TA.AperFunction,Plated,PTH,ComponentDrill
T6C0.0236
; #@! TA.AperFunction,Plated,PTH,ComponentDrill
T7C0.0256
; #@! TA.AperFunction,Plated,PTH,ComponentDrill
T8C0.0512
; #@! TA.AperFunction,Plated,PTH,ComponentDrill
T9C0.2520
%
G90
G05
T1
X1.4175Y-3.9634
X1.4949Y-3.8571
X1.674Y-4.0697
X1.7055Y-4.0703
X1.7524Y-4.0305
X1.7902Y-4.0047
X1.9177Y-4.585
X1.9488Y-4.1713
X1.9614Y-4.4157
X1.9862Y-4.1705
X1.987Y-4.4366
X2.0327Y-4.5929
X2.0665Y-4.4358
X2.0833Y-3.8814
X2.1181Y-5.0874
X2.1429Y-4.4079
X2.184Y-4.4953
X2.1847Y-4.5343
X2.1851Y-4.5741
X2.198Y-4.4004
X2.2095Y-4.4792
X2.2331Y-4.4949
X2.2331Y-4.5335
X2.2331Y-4.5724
X2.2448Y-4.6681
X2.2448Y-4.7272
X2.2448Y-4.7862
X2.2448Y-4.8453
X2.2448Y-4.9043
X2.2448Y-4.9634
X2.2448Y-5.0224
X2.2469Y-4.3469
X2.2469Y-4.3747
X2.2469Y-4.4025
X2.2469Y-4.4303
X2.2469Y-4.4606
X2.2882Y-4.6681
X2.2882Y-4.7272
X2.2882Y-4.7862
X2.2882Y-4.8453
X2.2882Y-4.9043
X2.2882Y-4.9634
X2.2882Y-5.0224
X2.2882Y-5.0815
X2.2917Y-5.1634
X2.2922Y-4.3461
X2.2922Y-4.3744
X2.2922Y-4.4028
X2.2922Y-4.4311
X2.2922Y-4.4594
X2.3055Y-4.5717
X2.3055Y-4.6114
X2.3059Y-4.5327
X2.324Y-4.4941
X2.335Y-4.5335
X2.3429Y-4.3835
X2.3437Y-4.4602
X2.3819Y-4.3878
X2.4055Y-4.5441
X2.4067Y-4.5059
X2.4406Y-4.4138
X2.4504Y-4.3169
X2.5169Y-4.378
X2.5224Y-4.3205
X2.5634Y-3.8551
X2.5638Y-3.7563
X2.6016Y-3.8555
X2.6386Y-3.7563
X2.8089Y-4.439
X2.8268Y-4.2232
X2.8571Y-4.2272
X2.9634Y-4.4161
X3.0813Y-4.3823
X3.1191Y-4.3823
X3.1238Y-3.9886
X3.1781Y-3.8413
X3.2193Y-4.4161
X3.2522Y-3.9677
X3.3285Y-4.2843
X3.3374Y-4.3295
X3.3925Y-4.049
X3.3925Y-4.0894
X3.4063Y-4.1091
X3.4447Y-4.2843
X3.5156Y-4.0461
X3.5156Y-4.1465
X3.5156Y-4.1839
X3.5156Y-4.2508
X3.5559Y-4.1465
X3.5559Y-4.175
X3.673Y-3.5963
X3.673Y-3.6681
X3.6734Y-3.7488
X3.6734Y-3.8364
X3.6734Y-3.9289
X3.6734Y-4.0165
X3.7417Y-4.2862
X3.7469Y-2.3846
X3.7469Y-2.4122
X3.7482Y-3.5963
X3.7482Y-3.6681
X3.7485Y-3.7488
X3.7485Y-3.8364
X3.7485Y-3.9289
X3.7485Y-4.0165
X3.7813Y-4.2862
X3.8233Y-3.5963
X3.8233Y-3.6681
X3.8236Y-3.7488
X3.8236Y-3.8364
X3.8236Y-3.9289
X3.8236Y-4.0165
X3.8254Y-4.1091
X3.8256Y-4.2862
X3.8699Y-2.5825
X3.8925Y-4.2931
X3.8925Y-4.3679
X3.8984Y-3.5963
X3.8984Y-3.6681
X3.8988Y-3.7488
X3.8988Y-3.8364
X3.8988Y-3.9289
X3.8988Y-4.0165
X3.9435Y-4.11
T2
X3.1258Y-4.1512
X3.1258Y-4.2083
X3.1258Y-4.2654
X3.1829Y-4.1512
X3.1829Y-4.2083
X3.1829Y-4.2654
X3.24Y-4.1512
X3.24Y-4.2083
X3.24Y-4.2654
T3
X2.1452Y-5.1907
T4
X2.1763Y-4.1024
X2.2472Y-4.0314
X2.2472Y-4.1734
X2.3182Y-4.1024
T5
X1.4122Y-4.0854
X1.4516Y-4.0854
X1.6055Y-3.7618
X1.6063Y-3.8012
X1.6547Y-3.9508
X1.676Y-3.0992
X1.7508Y-3.0992
X1.8709Y-3.0421
X1.8728Y-2.8335
X1.8728Y-2.8827
X1.9201Y-3.0421
X1.922Y-2.6091
X1.922Y-2.8335
X1.922Y-2.8827
X1.9358Y-2.4122
X1.9555Y-2.4929
X1.9693Y-3.0421
X1.9713Y-2.3217
X1.9713Y-2.8335
X1.9713Y-2.8827
X1.9988Y-2.4319
X2.0098Y-2.3217
X2.0205Y-3.0421
X2.0224Y-2.8335
X2.0224Y-2.8827
X2.0264Y-2.6091
X2.05Y-2.5303
X2.1425Y-3.8173
X2.1429Y-3.7788
X2.187Y-3.8327
X2.1949Y-4.3134
X2.2143Y-3.8599
X2.3055Y-3.0736
X2.3055Y-3.1142
X2.3075Y-3.1563
X2.3075Y-3.1969
X2.3118Y-2.5244
X2.3118Y-2.5697
X2.3118Y-2.6287
X2.3118Y-2.6976
X2.3536Y-3.6492
X2.3547Y-2.9319
X2.3547Y-2.9724
X2.3547Y-3.0736
X2.3547Y-3.1142
X2.3547Y-3.1563
X2.3547Y-3.1969
X2.362Y-2.5244
X2.362Y-2.5697
X2.362Y-2.6976
X2.3828Y-3.6784
X2.4551Y-2.9319
X2.4551Y-2.9724
X2.4565Y-2.6967
X2.5047Y-2.6967
X2.5549Y-2.6287
X2.5549Y-2.6967
X2.6002Y-2.6287
X2.6002Y-2.6967
X2.6445Y-2.6967
X2.7559Y-2.7433
X2.7559Y-2.7831
X2.8051Y-2.7433
X2.8559Y-2.7433
X2.8563Y-2.7831
X2.9051Y-2.7433
X2.9516Y-4.5697
X2.9713Y-4.1839
X2.9756Y-2.7433
X2.976Y-2.7831
X3.026Y-2.7433
X3.0752Y-2.7429
X3.0752Y-2.7835
X3.0898Y-3.7906
X3.1051Y-4.735
X3.1276Y-2.7429
X3.1969Y-2.7835
X3.1972Y-2.7421
X3.2469Y-2.7421
X3.2524Y-3.7902
X3.2969Y-2.7417
X3.2969Y-2.7835
X3.3691Y-3.915
X3.3691Y-3.8398
X3.4236Y-2.6539
X3.4268Y-2.7299
X3.4402Y-2.1197
X3.4402Y-2.1618
X3.5646Y-2.3826
X3.6012Y-4.2626
X3.6169Y-3.5343
X3.6169Y-3.6214
X3.6169Y-3.7085
X3.6169Y-3.7956
X3.6169Y-3.8827
X3.6169Y-3.9698
X3.6917Y-3.3807
X3.6976Y-3.5343
X3.7123Y-2.5124
X3.728Y-3.2177
X3.7283Y-3.2567
X3.771Y-4.3994
X3.7783Y-3.5343
X3.7886Y-2.1713
X3.8059Y-2.4053
X3.8169Y-3.2618
X3.8335Y-4.5776
X3.8354Y-4.4988
X3.8509Y-4.3994
X3.8531Y-3.2213
X3.8591Y-3.5343
X3.8882Y-1.8673
X3.8913Y-3.4331
X3.9309Y-4.3994
X3.9319Y-4.3335
X3.9329Y-4.2518
X3.9394Y-3.2567
X3.9398Y-3.5352
X3.9398Y-3.6223
X3.9398Y-3.7094
X3.9398Y-3.7966
X3.9398Y-3.8837
X3.9398Y-3.9708
X3.9398Y-4.0579
X3.9677Y-2.15
X3.9677Y-2.1894
X4.0071Y-2.15
X4.0071Y-2.1972
X4.0213Y-3.2197
X4.0323Y-3.363
X4.0413Y-2.5059
X4.0413Y-2.565
X4.0413Y-2.624
X4.0413Y-2.6831
X4.0465Y-2.15
X4.0465Y-2.1972
X4.0657Y-3.2571
X4.0768Y-2.9528
X4.078Y-3.1098
X4.1004Y-2.5059
X4.1004Y-2.565
X4.1004Y-2.624
X4.1004Y-2.6831
X4.1429Y-2.0555
X4.1504Y-3.2228
X4.1579Y-3.2638
X4.1594Y-2.5059
X4.1594Y-2.565
X4.1594Y-2.624
X4.1594Y-2.6831
X4.1937Y-3.2213
X4.2075Y-2.3366
X4.2327Y-3.4319
X4.2461Y-1.9516
X4.2524Y-2.6154
X4.2528Y-2.339
X4.2642Y-2.1339
X4.2819Y-3.2571
X4.2827Y-3.2138
T6
X1.4169Y-5.1339
X1.4723Y-5.0002
X1.4723Y-5.2675
X1.6059Y-4.9449
X1.6059Y-5.3228
X1.7395Y-5.0002
X1.7395Y-5.2675
X1.7949Y-5.1339
X3.8555Y-5.1339
X3.9109Y-5.0002
X3.9109Y-5.2675
X4.0445Y-4.9449
X4.0445Y-5.3228
X4.1781Y-5.0002
X4.1781Y-5.2675
X4.2335Y-5.1339
T7
X1.3748Y-4.1661
X1.3748Y-4.2161
X1.3748Y-4.2661
X1.3748Y-4.3161
X1.3748Y-4.3661
X1.3748Y-4.4161
X2.5691Y-4.7421
X2.6191Y-4.7421
X2.6691Y-4.7421
X2.7191Y-4.7421
X2.7691Y-4.7421
T8
X2.3299Y-2.0583
X2.3299Y-2.2236
X2.3299Y-2.389
X2.4933Y-2.0583
X2.4933Y-2.2236
X2.4933Y-2.389
X2.6244Y-2.0583
X2.6244Y-2.2236
X2.6244Y-2.389
X2.7555Y-2.0583
X2.7555Y-2.2236
X2.7555Y-2.389
X2.8866Y-2.0583
X2.8866Y-2.2236
X2.8866Y-2.389
X3.0177Y-2.0583
X3.0177Y-2.2236
X3.0177Y-2.389
X3.1488Y-2.0583
X3.1488Y-2.2236
X3.1488Y-2.389
X3.3122Y-2.0583
X3.3122Y-2.2236
X3.3122Y-2.389
T9
X1.6059Y-5.1339
X4.0445Y-5.1339
T0
M30
