%TF.GenerationSoftware,KiCad,Pcbnew,(6.0.2)*%
%TF.CreationDate,2022-07-01T10:37:28-06:00*%
%TF.ProjectId,RGB-controller,5247422d-636f-46e7-9472-6f6c6c65722e,B*%
%TF.SameCoordinates,Original*%
%TF.FileFunction,Paste,Top*%
%TF.FilePolarity,Positive*%
%FSLAX46Y46*%
G04 Gerber Fmt 4.6, Leading zero omitted, Abs format (unit mm)*
G04 Created by KiCad (PCBNEW (6.0.2)) date 2022-07-01 10:37:28*
%MOMM*%
%LPD*%
G01*
G04 APERTURE LIST*
G04 Aperture macros list*
%AMRoundRect*
0 Rectangle with rounded corners*
0 $1 Rounding radius*
0 $2 $3 $4 $5 $6 $7 $8 $9 X,Y pos of 4 corners*
0 Add a 4 corners polygon primitive as box body*
4,1,4,$2,$3,$4,$5,$6,$7,$8,$9,$2,$3,0*
0 Add four circle primitives for the rounded corners*
1,1,$1+$1,$2,$3*
1,1,$1+$1,$4,$5*
1,1,$1+$1,$6,$7*
1,1,$1+$1,$8,$9*
0 Add four rect primitives between the rounded corners*
20,1,$1+$1,$2,$3,$4,$5,0*
20,1,$1+$1,$4,$5,$6,$7,0*
20,1,$1+$1,$6,$7,$8,$9,0*
20,1,$1+$1,$8,$9,$2,$3,0*%
%AMRotRect*
0 Rectangle, with rotation*
0 The origin of the aperture is its center*
0 $1 length*
0 $2 width*
0 $3 Rotation angle, in degrees counterclockwise*
0 Add horizontal line*
21,1,$1,$2,0,0,$3*%
G04 Aperture macros list end*
%ADD10C,0.120000*%
%ADD11C,0.001000*%
%ADD12R,0.558800X1.701800*%
%ADD13R,5.359400X2.413000*%
%ADD14RoundRect,0.250000X-1.250000X-0.550000X1.250000X-0.550000X1.250000X0.550000X-1.250000X0.550000X0*%
%ADD15RoundRect,0.150000X-0.150000X0.725000X-0.150000X-0.725000X0.150000X-0.725000X0.150000X0.725000X0*%
%ADD16RoundRect,0.071250X-0.071250X0.803750X-0.071250X-0.803750X0.071250X-0.803750X0.071250X0.803750X0*%
%ADD17RoundRect,0.075000X-0.650000X-0.075000X0.650000X-0.075000X0.650000X0.075000X-0.650000X0.075000X0*%
%ADD18RoundRect,0.250000X-1.425000X0.362500X-1.425000X-0.362500X1.425000X-0.362500X1.425000X0.362500X0*%
%ADD19RoundRect,0.140000X0.140000X0.170000X-0.140000X0.170000X-0.140000X-0.170000X0.140000X-0.170000X0*%
%ADD20RoundRect,0.250000X0.475000X-0.250000X0.475000X0.250000X-0.475000X0.250000X-0.475000X-0.250000X0*%
%ADD21RoundRect,0.135000X-0.135000X-0.185000X0.135000X-0.185000X0.135000X0.185000X-0.135000X0.185000X0*%
%ADD22RoundRect,0.135000X0.185000X-0.135000X0.185000X0.135000X-0.185000X0.135000X-0.185000X-0.135000X0*%
%ADD23RoundRect,0.135000X-0.185000X0.135000X-0.185000X-0.135000X0.185000X-0.135000X0.185000X0.135000X0*%
%ADD24RoundRect,0.140000X-0.021213X0.219203X-0.219203X0.021213X0.021213X-0.219203X0.219203X-0.021213X0*%
%ADD25RoundRect,0.250000X-0.475000X0.250000X-0.475000X-0.250000X0.475000X-0.250000X0.475000X0.250000X0*%
%ADD26RoundRect,0.147500X-0.147500X-0.172500X0.147500X-0.172500X0.147500X0.172500X-0.147500X0.172500X0*%
%ADD27R,3.800000X1.150000*%
%ADD28R,0.800000X1.400000*%
%ADD29RoundRect,0.140000X-0.140000X-0.170000X0.140000X-0.170000X0.140000X0.170000X-0.140000X0.170000X0*%
%ADD30RoundRect,0.135000X0.135000X0.185000X-0.135000X0.185000X-0.135000X-0.185000X0.135000X-0.185000X0*%
%ADD31RoundRect,0.140000X-0.219203X-0.021213X-0.021213X-0.219203X0.219203X0.021213X0.021213X0.219203X0*%
%ADD32RoundRect,0.150000X-0.825000X-0.150000X0.825000X-0.150000X0.825000X0.150000X-0.825000X0.150000X0*%
%ADD33RoundRect,0.135000X-0.035355X0.226274X-0.226274X0.035355X0.035355X-0.226274X0.226274X-0.035355X0*%
%ADD34RoundRect,0.250000X0.250000X0.475000X-0.250000X0.475000X-0.250000X-0.475000X0.250000X-0.475000X0*%
%ADD35R,1.700000X0.650000*%
%ADD36RoundRect,0.250000X-0.362500X-1.425000X0.362500X-1.425000X0.362500X1.425000X-0.362500X1.425000X0*%
%ADD37RoundRect,0.140000X0.170000X-0.140000X0.170000X0.140000X-0.170000X0.140000X-0.170000X-0.140000X0*%
%ADD38RoundRect,0.250000X0.262500X0.450000X-0.262500X0.450000X-0.262500X-0.450000X0.262500X-0.450000X0*%
%ADD39R,0.650000X0.400000*%
%ADD40RoundRect,0.140000X-0.170000X0.140000X-0.170000X-0.140000X0.170000X-0.140000X0.170000X0.140000X0*%
%ADD41RoundRect,0.150000X-0.512500X-0.150000X0.512500X-0.150000X0.512500X0.150000X-0.512500X0.150000X0*%
%ADD42RoundRect,0.150000X0.587500X0.150000X-0.587500X0.150000X-0.587500X-0.150000X0.587500X-0.150000X0*%
%ADD43RoundRect,0.200000X-0.275000X0.200000X-0.275000X-0.200000X0.275000X-0.200000X0.275000X0.200000X0*%
%ADD44RoundRect,0.250000X-0.450000X0.262500X-0.450000X-0.262500X0.450000X-0.262500X0.450000X0.262500X0*%
%ADD45RoundRect,0.218750X0.256250X-0.218750X0.256250X0.218750X-0.256250X0.218750X-0.256250X-0.218750X0*%
%ADD46RoundRect,0.147500X-0.172500X0.147500X-0.172500X-0.147500X0.172500X-0.147500X0.172500X0.147500X0*%
%ADD47RoundRect,0.391909X0.683192X-0.035355X-0.035355X0.683192X-0.683192X0.035355X0.035355X-0.683192X0*%
%ADD48RoundRect,0.050000X0.353553X-0.282843X-0.282843X0.353553X-0.353553X0.282843X0.282843X-0.353553X0*%
%ADD49RoundRect,0.050000X0.353553X0.282843X0.282843X0.353553X-0.353553X-0.282843X-0.282843X-0.353553X0*%
%ADD50RoundRect,0.147500X0.172500X-0.147500X0.172500X0.147500X-0.172500X0.147500X-0.172500X-0.147500X0*%
%ADD51R,2.000000X2.000000*%
%ADD52RoundRect,0.150000X0.150000X-0.725000X0.150000X0.725000X-0.150000X0.725000X-0.150000X-0.725000X0*%
%ADD53RoundRect,0.250000X-0.262500X-0.450000X0.262500X-0.450000X0.262500X0.450000X-0.262500X0.450000X0*%
%ADD54R,1.800000X2.500000*%
%ADD55RoundRect,0.140000X0.219203X0.021213X0.021213X0.219203X-0.219203X-0.021213X-0.021213X-0.219203X0*%
%ADD56RoundRect,0.250000X-0.485000X0.485000X-0.485000X-0.485000X0.485000X-0.485000X0.485000X0.485000X0*%
%ADD57RoundRect,0.062500X-0.062500X0.362500X-0.062500X-0.362500X0.062500X-0.362500X0.062500X0.362500X0*%
%ADD58RoundRect,0.062500X-0.362500X0.062500X-0.362500X-0.062500X0.362500X-0.062500X0.362500X0.062500X0*%
%ADD59R,1.000000X1.150000*%
%ADD60RotRect,1.400000X1.200000X135.000000*%
%ADD61RoundRect,0.250000X-0.250000X-0.475000X0.250000X-0.475000X0.250000X0.475000X-0.250000X0.475000X0*%
G04 APERTURE END LIST*
D10*
%TO.C,U301*%
X100870000Y-64345000D02*
X106070000Y-64345000D01*
X106070000Y-64345000D02*
X106070000Y-67895000D01*
X106070000Y-67895000D02*
X100870000Y-67895000D01*
X100870000Y-67895000D02*
X100870000Y-64345000D01*
G36*
X106070000Y-67895000D02*
G01*
X100870000Y-67895000D01*
X100870000Y-64345000D01*
X106070000Y-64345000D01*
X106070000Y-67895000D01*
G37*
X106070000Y-67895000D02*
X100870000Y-67895000D01*
X100870000Y-64345000D01*
X106070000Y-64345000D01*
X106070000Y-67895000D01*
D11*
%TO.C,MK801*%
X37042000Y-100820000D02*
X36620000Y-100820000D01*
X36620000Y-100820000D02*
X36620000Y-100320000D01*
X36620000Y-100320000D02*
X37042000Y-100320000D01*
X37042000Y-100320000D02*
X37042000Y-100820000D01*
G36*
X37042000Y-100820000D02*
G01*
X36620000Y-100820000D01*
X36620000Y-100320000D01*
X37042000Y-100320000D01*
X37042000Y-100820000D01*
G37*
X37042000Y-100820000D02*
X36620000Y-100820000D01*
X36620000Y-100320000D01*
X37042000Y-100320000D01*
X37042000Y-100820000D01*
X34707000Y-101080000D02*
X34686000Y-101078000D01*
X34686000Y-101078000D02*
X34662000Y-101074000D01*
X34662000Y-101074000D02*
X34639000Y-101069000D01*
X34639000Y-101069000D02*
X34616000Y-101063000D01*
X34616000Y-101063000D02*
X34594000Y-101056000D01*
X34594000Y-101056000D02*
X34571000Y-101048000D01*
X34571000Y-101048000D02*
X34549000Y-101039000D01*
X34549000Y-101039000D02*
X34528000Y-101029000D01*
X34528000Y-101029000D02*
X34507000Y-101018000D01*
X34507000Y-101018000D02*
X34487000Y-101006000D01*
X34487000Y-101006000D02*
X34467000Y-100993000D01*
X34467000Y-100993000D02*
X34447000Y-100980000D01*
X34447000Y-100980000D02*
X34429000Y-100965000D01*
X34429000Y-100965000D02*
X34411000Y-100949000D01*
X34411000Y-100949000D02*
X34394000Y-100933000D01*
X34394000Y-100933000D02*
X34378000Y-100916000D01*
X34378000Y-100916000D02*
X34362000Y-100898000D01*
X34362000Y-100898000D02*
X34347000Y-100880000D01*
X34347000Y-100880000D02*
X34334000Y-100860000D01*
X34334000Y-100860000D02*
X34321000Y-100840000D01*
X34321000Y-100840000D02*
X34309000Y-100820000D01*
X34309000Y-100820000D02*
X34298000Y-100799000D01*
X34298000Y-100799000D02*
X34288000Y-100778000D01*
X34288000Y-100778000D02*
X34279000Y-100756000D01*
X34279000Y-100756000D02*
X34271000Y-100733000D01*
X34271000Y-100733000D02*
X34264000Y-100711000D01*
X34264000Y-100711000D02*
X34258000Y-100688000D01*
X34258000Y-100688000D02*
X34253000Y-100665000D01*
X34253000Y-100665000D02*
X34249000Y-100641000D01*
X34249000Y-100641000D02*
X34247000Y-100620000D01*
X34247000Y-100620000D02*
X33947000Y-100620000D01*
X33947000Y-100620000D02*
X33950000Y-100659000D01*
X33950000Y-100659000D02*
X33955000Y-100697000D01*
X33955000Y-100697000D02*
X33962000Y-100736000D01*
X33962000Y-100736000D02*
X33970000Y-100774000D01*
X33970000Y-100774000D02*
X33981000Y-100812000D01*
X33981000Y-100812000D02*
X33993000Y-100850000D01*
X33993000Y-100850000D02*
X34008000Y-100886000D01*
X34008000Y-100886000D02*
X34024000Y-100922000D01*
X34024000Y-100922000D02*
X34041000Y-100957000D01*
X34041000Y-100957000D02*
X34061000Y-100991000D01*
X34061000Y-100991000D02*
X34082000Y-101024000D01*
X34082000Y-101024000D02*
X34104000Y-101057000D01*
X34104000Y-101057000D02*
X34129000Y-101088000D01*
X34129000Y-101088000D02*
X34154000Y-101117000D01*
X34154000Y-101117000D02*
X34181000Y-101146000D01*
X34181000Y-101146000D02*
X34210000Y-101173000D01*
X34210000Y-101173000D02*
X34239000Y-101198000D01*
X34239000Y-101198000D02*
X34270000Y-101223000D01*
X34270000Y-101223000D02*
X34303000Y-101245000D01*
X34303000Y-101245000D02*
X34336000Y-101266000D01*
X34336000Y-101266000D02*
X34370000Y-101286000D01*
X34370000Y-101286000D02*
X34405000Y-101303000D01*
X34405000Y-101303000D02*
X34441000Y-101319000D01*
X34441000Y-101319000D02*
X34477000Y-101334000D01*
X34477000Y-101334000D02*
X34515000Y-101346000D01*
X34515000Y-101346000D02*
X34553000Y-101357000D01*
X34553000Y-101357000D02*
X34591000Y-101365000D01*
X34591000Y-101365000D02*
X34630000Y-101372000D01*
X34630000Y-101372000D02*
X34668000Y-101377000D01*
X34668000Y-101377000D02*
X34707000Y-101380000D01*
X34707000Y-101380000D02*
X34707000Y-101080000D01*
X34707000Y-101080000D02*
X34707000Y-101080000D01*
G36*
X34249000Y-100641000D02*
G01*
X34253000Y-100665000D01*
X34258000Y-100688000D01*
X34264000Y-100711000D01*
X34271000Y-100733000D01*
X34279000Y-100756000D01*
X34288000Y-100778000D01*
X34298000Y-100799000D01*
X34309000Y-100820000D01*
X34321000Y-100840000D01*
X34347000Y-100880000D01*
X34362000Y-100898000D01*
X34378000Y-100916000D01*
X34394000Y-100933000D01*
X34411000Y-100949000D01*
X34429000Y-100965000D01*
X34447000Y-100980000D01*
X34487000Y-101006000D01*
X34507000Y-101018000D01*
X34528000Y-101029000D01*
X34549000Y-101039000D01*
X34571000Y-101048000D01*
X34594000Y-101056000D01*
X34616000Y-101063000D01*
X34639000Y-101069000D01*
X34662000Y-101074000D01*
X34686000Y-101078000D01*
X34707000Y-101080000D01*
X34707000Y-101380000D01*
X34668000Y-101377000D01*
X34630000Y-101372000D01*
X34591000Y-101365000D01*
X34553000Y-101357000D01*
X34515000Y-101346000D01*
X34477000Y-101334000D01*
X34441000Y-101319000D01*
X34405000Y-101303000D01*
X34370000Y-101286000D01*
X34336000Y-101266000D01*
X34303000Y-101245000D01*
X34270000Y-101223000D01*
X34239000Y-101198000D01*
X34210000Y-101173000D01*
X34181000Y-101146000D01*
X34154000Y-101117000D01*
X34129000Y-101088000D01*
X34104000Y-101057000D01*
X34082000Y-101024000D01*
X34061000Y-100991000D01*
X34041000Y-100957000D01*
X34024000Y-100922000D01*
X34008000Y-100886000D01*
X33993000Y-100850000D01*
X33981000Y-100812000D01*
X33970000Y-100774000D01*
X33962000Y-100736000D01*
X33955000Y-100697000D01*
X33950000Y-100659000D01*
X33947000Y-100620000D01*
X34247000Y-100620000D01*
X34249000Y-100641000D01*
G37*
X34249000Y-100641000D02*
X34253000Y-100665000D01*
X34258000Y-100688000D01*
X34264000Y-100711000D01*
X34271000Y-100733000D01*
X34279000Y-100756000D01*
X34288000Y-100778000D01*
X34298000Y-100799000D01*
X34309000Y-100820000D01*
X34321000Y-100840000D01*
X34347000Y-100880000D01*
X34362000Y-100898000D01*
X34378000Y-100916000D01*
X34394000Y-100933000D01*
X34411000Y-100949000D01*
X34429000Y-100965000D01*
X34447000Y-100980000D01*
X34487000Y-101006000D01*
X34507000Y-101018000D01*
X34528000Y-101029000D01*
X34549000Y-101039000D01*
X34571000Y-101048000D01*
X34594000Y-101056000D01*
X34616000Y-101063000D01*
X34639000Y-101069000D01*
X34662000Y-101074000D01*
X34686000Y-101078000D01*
X34707000Y-101080000D01*
X34707000Y-101380000D01*
X34668000Y-101377000D01*
X34630000Y-101372000D01*
X34591000Y-101365000D01*
X34553000Y-101357000D01*
X34515000Y-101346000D01*
X34477000Y-101334000D01*
X34441000Y-101319000D01*
X34405000Y-101303000D01*
X34370000Y-101286000D01*
X34336000Y-101266000D01*
X34303000Y-101245000D01*
X34270000Y-101223000D01*
X34239000Y-101198000D01*
X34210000Y-101173000D01*
X34181000Y-101146000D01*
X34154000Y-101117000D01*
X34129000Y-101088000D01*
X34104000Y-101057000D01*
X34082000Y-101024000D01*
X34061000Y-100991000D01*
X34041000Y-100957000D01*
X34024000Y-100922000D01*
X34008000Y-100886000D01*
X33993000Y-100850000D01*
X33981000Y-100812000D01*
X33970000Y-100774000D01*
X33962000Y-100736000D01*
X33955000Y-100697000D01*
X33950000Y-100659000D01*
X33947000Y-100620000D01*
X34247000Y-100620000D01*
X34249000Y-100641000D01*
X34807000Y-100060000D02*
X34828000Y-100062000D01*
X34828000Y-100062000D02*
X34852000Y-100066000D01*
X34852000Y-100066000D02*
X34875000Y-100071000D01*
X34875000Y-100071000D02*
X34898000Y-100077000D01*
X34898000Y-100077000D02*
X34920000Y-100084000D01*
X34920000Y-100084000D02*
X34943000Y-100092000D01*
X34943000Y-100092000D02*
X34965000Y-100101000D01*
X34965000Y-100101000D02*
X34986000Y-100111000D01*
X34986000Y-100111000D02*
X35007000Y-100122000D01*
X35007000Y-100122000D02*
X35027000Y-100134000D01*
X35027000Y-100134000D02*
X35047000Y-100147000D01*
X35047000Y-100147000D02*
X35067000Y-100160000D01*
X35067000Y-100160000D02*
X35085000Y-100175000D01*
X35085000Y-100175000D02*
X35103000Y-100191000D01*
X35103000Y-100191000D02*
X35120000Y-100207000D01*
X35120000Y-100207000D02*
X35136000Y-100224000D01*
X35136000Y-100224000D02*
X35152000Y-100242000D01*
X35152000Y-100242000D02*
X35167000Y-100260000D01*
X35167000Y-100260000D02*
X35180000Y-100280000D01*
X35180000Y-100280000D02*
X35193000Y-100300000D01*
X35193000Y-100300000D02*
X35205000Y-100320000D01*
X35205000Y-100320000D02*
X35216000Y-100341000D01*
X35216000Y-100341000D02*
X35226000Y-100362000D01*
X35226000Y-100362000D02*
X35235000Y-100384000D01*
X35235000Y-100384000D02*
X35243000Y-100407000D01*
X35243000Y-100407000D02*
X35250000Y-100429000D01*
X35250000Y-100429000D02*
X35256000Y-100452000D01*
X35256000Y-100452000D02*
X35261000Y-100475000D01*
X35261000Y-100475000D02*
X35265000Y-100499000D01*
X35265000Y-100499000D02*
X35267000Y-100520000D01*
X35267000Y-100520000D02*
X35567000Y-100520000D01*
X35567000Y-100520000D02*
X35564000Y-100481000D01*
X35564000Y-100481000D02*
X35559000Y-100443000D01*
X35559000Y-100443000D02*
X35552000Y-100404000D01*
X35552000Y-100404000D02*
X35544000Y-100366000D01*
X35544000Y-100366000D02*
X35533000Y-100328000D01*
X35533000Y-100328000D02*
X35521000Y-100290000D01*
X35521000Y-100290000D02*
X35506000Y-100254000D01*
X35506000Y-100254000D02*
X35490000Y-100218000D01*
X35490000Y-100218000D02*
X35473000Y-100183000D01*
X35473000Y-100183000D02*
X35453000Y-100149000D01*
X35453000Y-100149000D02*
X35432000Y-100116000D01*
X35432000Y-100116000D02*
X35410000Y-100083000D01*
X35410000Y-100083000D02*
X35385000Y-100052000D01*
X35385000Y-100052000D02*
X35360000Y-100023000D01*
X35360000Y-100023000D02*
X35333000Y-99994000D01*
X35333000Y-99994000D02*
X35304000Y-99967000D01*
X35304000Y-99967000D02*
X35275000Y-99942000D01*
X35275000Y-99942000D02*
X35244000Y-99917000D01*
X35244000Y-99917000D02*
X35211000Y-99895000D01*
X35211000Y-99895000D02*
X35178000Y-99874000D01*
X35178000Y-99874000D02*
X35144000Y-99854000D01*
X35144000Y-99854000D02*
X35109000Y-99837000D01*
X35109000Y-99837000D02*
X35073000Y-99821000D01*
X35073000Y-99821000D02*
X35037000Y-99806000D01*
X35037000Y-99806000D02*
X34999000Y-99794000D01*
X34999000Y-99794000D02*
X34961000Y-99783000D01*
X34961000Y-99783000D02*
X34923000Y-99775000D01*
X34923000Y-99775000D02*
X34884000Y-99768000D01*
X34884000Y-99768000D02*
X34846000Y-99763000D01*
X34846000Y-99763000D02*
X34807000Y-99760000D01*
X34807000Y-99760000D02*
X34807000Y-100060000D01*
X34807000Y-100060000D02*
X34807000Y-100060000D01*
G36*
X34846000Y-99763000D02*
G01*
X34884000Y-99768000D01*
X34923000Y-99775000D01*
X34961000Y-99783000D01*
X34999000Y-99794000D01*
X35037000Y-99806000D01*
X35073000Y-99821000D01*
X35109000Y-99837000D01*
X35144000Y-99854000D01*
X35178000Y-99874000D01*
X35211000Y-99895000D01*
X35244000Y-99917000D01*
X35275000Y-99942000D01*
X35304000Y-99967000D01*
X35333000Y-99994000D01*
X35360000Y-100023000D01*
X35385000Y-100052000D01*
X35410000Y-100083000D01*
X35432000Y-100116000D01*
X35453000Y-100149000D01*
X35473000Y-100183000D01*
X35490000Y-100218000D01*
X35506000Y-100254000D01*
X35521000Y-100290000D01*
X35533000Y-100328000D01*
X35544000Y-100366000D01*
X35552000Y-100404000D01*
X35559000Y-100443000D01*
X35564000Y-100481000D01*
X35567000Y-100520000D01*
X35267000Y-100520000D01*
X35265000Y-100499000D01*
X35261000Y-100475000D01*
X35256000Y-100452000D01*
X35250000Y-100429000D01*
X35243000Y-100407000D01*
X35235000Y-100384000D01*
X35226000Y-100362000D01*
X35216000Y-100341000D01*
X35205000Y-100320000D01*
X35193000Y-100300000D01*
X35167000Y-100260000D01*
X35152000Y-100242000D01*
X35136000Y-100224000D01*
X35120000Y-100207000D01*
X35103000Y-100191000D01*
X35085000Y-100175000D01*
X35067000Y-100160000D01*
X35027000Y-100134000D01*
X35007000Y-100122000D01*
X34986000Y-100111000D01*
X34965000Y-100101000D01*
X34943000Y-100092000D01*
X34920000Y-100084000D01*
X34898000Y-100077000D01*
X34875000Y-100071000D01*
X34852000Y-100066000D01*
X34828000Y-100062000D01*
X34807000Y-100060000D01*
X34807000Y-99760000D01*
X34846000Y-99763000D01*
G37*
X34846000Y-99763000D02*
X34884000Y-99768000D01*
X34923000Y-99775000D01*
X34961000Y-99783000D01*
X34999000Y-99794000D01*
X35037000Y-99806000D01*
X35073000Y-99821000D01*
X35109000Y-99837000D01*
X35144000Y-99854000D01*
X35178000Y-99874000D01*
X35211000Y-99895000D01*
X35244000Y-99917000D01*
X35275000Y-99942000D01*
X35304000Y-99967000D01*
X35333000Y-99994000D01*
X35360000Y-100023000D01*
X35385000Y-100052000D01*
X35410000Y-100083000D01*
X35432000Y-100116000D01*
X35453000Y-100149000D01*
X35473000Y-100183000D01*
X35490000Y-100218000D01*
X35506000Y-100254000D01*
X35521000Y-100290000D01*
X35533000Y-100328000D01*
X35544000Y-100366000D01*
X35552000Y-100404000D01*
X35559000Y-100443000D01*
X35564000Y-100481000D01*
X35567000Y-100520000D01*
X35267000Y-100520000D01*
X35265000Y-100499000D01*
X35261000Y-100475000D01*
X35256000Y-100452000D01*
X35250000Y-100429000D01*
X35243000Y-100407000D01*
X35235000Y-100384000D01*
X35226000Y-100362000D01*
X35216000Y-100341000D01*
X35205000Y-100320000D01*
X35193000Y-100300000D01*
X35167000Y-100260000D01*
X35152000Y-100242000D01*
X35136000Y-100224000D01*
X35120000Y-100207000D01*
X35103000Y-100191000D01*
X35085000Y-100175000D01*
X35067000Y-100160000D01*
X35027000Y-100134000D01*
X35007000Y-100122000D01*
X34986000Y-100111000D01*
X34965000Y-100101000D01*
X34943000Y-100092000D01*
X34920000Y-100084000D01*
X34898000Y-100077000D01*
X34875000Y-100071000D01*
X34852000Y-100066000D01*
X34828000Y-100062000D01*
X34807000Y-100060000D01*
X34807000Y-99760000D01*
X34846000Y-99763000D01*
X36220000Y-99920000D02*
X35798000Y-99920000D01*
X35798000Y-99920000D02*
X35798000Y-99420000D01*
X35798000Y-99420000D02*
X36220000Y-99420000D01*
X36220000Y-99420000D02*
X36220000Y-99920000D01*
G36*
X36220000Y-99920000D02*
G01*
X35798000Y-99920000D01*
X35798000Y-99420000D01*
X36220000Y-99420000D01*
X36220000Y-99920000D01*
G37*
X36220000Y-99920000D02*
X35798000Y-99920000D01*
X35798000Y-99420000D01*
X36220000Y-99420000D01*
X36220000Y-99920000D01*
X34247000Y-100520000D02*
X34249000Y-100499000D01*
X34249000Y-100499000D02*
X34253000Y-100475000D01*
X34253000Y-100475000D02*
X34258000Y-100452000D01*
X34258000Y-100452000D02*
X34264000Y-100429000D01*
X34264000Y-100429000D02*
X34271000Y-100407000D01*
X34271000Y-100407000D02*
X34279000Y-100384000D01*
X34279000Y-100384000D02*
X34288000Y-100362000D01*
X34288000Y-100362000D02*
X34298000Y-100341000D01*
X34298000Y-100341000D02*
X34309000Y-100320000D01*
X34309000Y-100320000D02*
X34321000Y-100300000D01*
X34321000Y-100300000D02*
X34334000Y-100280000D01*
X34334000Y-100280000D02*
X34347000Y-100260000D01*
X34347000Y-100260000D02*
X34362000Y-100242000D01*
X34362000Y-100242000D02*
X34378000Y-100224000D01*
X34378000Y-100224000D02*
X34394000Y-100207000D01*
X34394000Y-100207000D02*
X34411000Y-100191000D01*
X34411000Y-100191000D02*
X34429000Y-100175000D01*
X34429000Y-100175000D02*
X34447000Y-100160000D01*
X34447000Y-100160000D02*
X34467000Y-100147000D01*
X34467000Y-100147000D02*
X34487000Y-100134000D01*
X34487000Y-100134000D02*
X34507000Y-100122000D01*
X34507000Y-100122000D02*
X34528000Y-100111000D01*
X34528000Y-100111000D02*
X34549000Y-100101000D01*
X34549000Y-100101000D02*
X34571000Y-100092000D01*
X34571000Y-100092000D02*
X34594000Y-100084000D01*
X34594000Y-100084000D02*
X34616000Y-100077000D01*
X34616000Y-100077000D02*
X34639000Y-100071000D01*
X34639000Y-100071000D02*
X34662000Y-100066000D01*
X34662000Y-100066000D02*
X34686000Y-100062000D01*
X34686000Y-100062000D02*
X34707000Y-100060000D01*
X34707000Y-100060000D02*
X34707000Y-99760000D01*
X34707000Y-99760000D02*
X34668000Y-99763000D01*
X34668000Y-99763000D02*
X34630000Y-99768000D01*
X34630000Y-99768000D02*
X34591000Y-99775000D01*
X34591000Y-99775000D02*
X34553000Y-99783000D01*
X34553000Y-99783000D02*
X34515000Y-99794000D01*
X34515000Y-99794000D02*
X34477000Y-99806000D01*
X34477000Y-99806000D02*
X34441000Y-99821000D01*
X34441000Y-99821000D02*
X34405000Y-99837000D01*
X34405000Y-99837000D02*
X34370000Y-99854000D01*
X34370000Y-99854000D02*
X34336000Y-99874000D01*
X34336000Y-99874000D02*
X34303000Y-99895000D01*
X34303000Y-99895000D02*
X34270000Y-99917000D01*
X34270000Y-99917000D02*
X34239000Y-99942000D01*
X34239000Y-99942000D02*
X34210000Y-99967000D01*
X34210000Y-99967000D02*
X34181000Y-99994000D01*
X34181000Y-99994000D02*
X34154000Y-100023000D01*
X34154000Y-100023000D02*
X34129000Y-100052000D01*
X34129000Y-100052000D02*
X34104000Y-100083000D01*
X34104000Y-100083000D02*
X34082000Y-100116000D01*
X34082000Y-100116000D02*
X34061000Y-100149000D01*
X34061000Y-100149000D02*
X34041000Y-100183000D01*
X34041000Y-100183000D02*
X34024000Y-100218000D01*
X34024000Y-100218000D02*
X34008000Y-100254000D01*
X34008000Y-100254000D02*
X33993000Y-100290000D01*
X33993000Y-100290000D02*
X33981000Y-100328000D01*
X33981000Y-100328000D02*
X33970000Y-100366000D01*
X33970000Y-100366000D02*
X33962000Y-100404000D01*
X33962000Y-100404000D02*
X33955000Y-100443000D01*
X33955000Y-100443000D02*
X33950000Y-100481000D01*
X33950000Y-100481000D02*
X33947000Y-100520000D01*
X33947000Y-100520000D02*
X34247000Y-100520000D01*
X34247000Y-100520000D02*
X34247000Y-100520000D01*
G36*
X34707000Y-100060000D02*
G01*
X34686000Y-100062000D01*
X34662000Y-100066000D01*
X34639000Y-100071000D01*
X34616000Y-100077000D01*
X34594000Y-100084000D01*
X34571000Y-100092000D01*
X34549000Y-100101000D01*
X34528000Y-100111000D01*
X34507000Y-100122000D01*
X34487000Y-100134000D01*
X34447000Y-100160000D01*
X34429000Y-100175000D01*
X34411000Y-100191000D01*
X34394000Y-100207000D01*
X34378000Y-100224000D01*
X34362000Y-100242000D01*
X34347000Y-100260000D01*
X34321000Y-100300000D01*
X34309000Y-100320000D01*
X34298000Y-100341000D01*
X34288000Y-100362000D01*
X34279000Y-100384000D01*
X34271000Y-100407000D01*
X34264000Y-100429000D01*
X34258000Y-100452000D01*
X34253000Y-100475000D01*
X34249000Y-100499000D01*
X34247000Y-100520000D01*
X33947000Y-100520000D01*
X33950000Y-100481000D01*
X33955000Y-100443000D01*
X33962000Y-100404000D01*
X33970000Y-100366000D01*
X33981000Y-100328000D01*
X33993000Y-100290000D01*
X34008000Y-100254000D01*
X34024000Y-100218000D01*
X34041000Y-100183000D01*
X34061000Y-100149000D01*
X34082000Y-100116000D01*
X34104000Y-100083000D01*
X34129000Y-100052000D01*
X34154000Y-100023000D01*
X34181000Y-99994000D01*
X34210000Y-99967000D01*
X34239000Y-99942000D01*
X34270000Y-99917000D01*
X34303000Y-99895000D01*
X34336000Y-99874000D01*
X34370000Y-99854000D01*
X34405000Y-99837000D01*
X34441000Y-99821000D01*
X34477000Y-99806000D01*
X34515000Y-99794000D01*
X34553000Y-99783000D01*
X34591000Y-99775000D01*
X34630000Y-99768000D01*
X34668000Y-99763000D01*
X34707000Y-99760000D01*
X34707000Y-100060000D01*
G37*
X34707000Y-100060000D02*
X34686000Y-100062000D01*
X34662000Y-100066000D01*
X34639000Y-100071000D01*
X34616000Y-100077000D01*
X34594000Y-100084000D01*
X34571000Y-100092000D01*
X34549000Y-100101000D01*
X34528000Y-100111000D01*
X34507000Y-100122000D01*
X34487000Y-100134000D01*
X34447000Y-100160000D01*
X34429000Y-100175000D01*
X34411000Y-100191000D01*
X34394000Y-100207000D01*
X34378000Y-100224000D01*
X34362000Y-100242000D01*
X34347000Y-100260000D01*
X34321000Y-100300000D01*
X34309000Y-100320000D01*
X34298000Y-100341000D01*
X34288000Y-100362000D01*
X34279000Y-100384000D01*
X34271000Y-100407000D01*
X34264000Y-100429000D01*
X34258000Y-100452000D01*
X34253000Y-100475000D01*
X34249000Y-100499000D01*
X34247000Y-100520000D01*
X33947000Y-100520000D01*
X33950000Y-100481000D01*
X33955000Y-100443000D01*
X33962000Y-100404000D01*
X33970000Y-100366000D01*
X33981000Y-100328000D01*
X33993000Y-100290000D01*
X34008000Y-100254000D01*
X34024000Y-100218000D01*
X34041000Y-100183000D01*
X34061000Y-100149000D01*
X34082000Y-100116000D01*
X34104000Y-100083000D01*
X34129000Y-100052000D01*
X34154000Y-100023000D01*
X34181000Y-99994000D01*
X34210000Y-99967000D01*
X34239000Y-99942000D01*
X34270000Y-99917000D01*
X34303000Y-99895000D01*
X34336000Y-99874000D01*
X34370000Y-99854000D01*
X34405000Y-99837000D01*
X34441000Y-99821000D01*
X34477000Y-99806000D01*
X34515000Y-99794000D01*
X34553000Y-99783000D01*
X34591000Y-99775000D01*
X34630000Y-99768000D01*
X34668000Y-99763000D01*
X34707000Y-99760000D01*
X34707000Y-100060000D01*
X37042000Y-101720000D02*
X36620000Y-101720000D01*
X36620000Y-101720000D02*
X36620000Y-101220000D01*
X36620000Y-101220000D02*
X37042000Y-101220000D01*
X37042000Y-101220000D02*
X37042000Y-101720000D01*
G36*
X37042000Y-101720000D02*
G01*
X36620000Y-101720000D01*
X36620000Y-101220000D01*
X37042000Y-101220000D01*
X37042000Y-101720000D01*
G37*
X37042000Y-101720000D02*
X36620000Y-101720000D01*
X36620000Y-101220000D01*
X37042000Y-101220000D01*
X37042000Y-101720000D01*
X35267000Y-100620000D02*
X35265000Y-100641000D01*
X35265000Y-100641000D02*
X35261000Y-100665000D01*
X35261000Y-100665000D02*
X35256000Y-100688000D01*
X35256000Y-100688000D02*
X35250000Y-100711000D01*
X35250000Y-100711000D02*
X35243000Y-100733000D01*
X35243000Y-100733000D02*
X35235000Y-100756000D01*
X35235000Y-100756000D02*
X35226000Y-100778000D01*
X35226000Y-100778000D02*
X35216000Y-100799000D01*
X35216000Y-100799000D02*
X35205000Y-100820000D01*
X35205000Y-100820000D02*
X35193000Y-100840000D01*
X35193000Y-100840000D02*
X35180000Y-100860000D01*
X35180000Y-100860000D02*
X35167000Y-100880000D01*
X35167000Y-100880000D02*
X35152000Y-100898000D01*
X35152000Y-100898000D02*
X35136000Y-100916000D01*
X35136000Y-100916000D02*
X35120000Y-100933000D01*
X35120000Y-100933000D02*
X35103000Y-100949000D01*
X35103000Y-100949000D02*
X35085000Y-100965000D01*
X35085000Y-100965000D02*
X35067000Y-100980000D01*
X35067000Y-100980000D02*
X35047000Y-100993000D01*
X35047000Y-100993000D02*
X35027000Y-101006000D01*
X35027000Y-101006000D02*
X35007000Y-101018000D01*
X35007000Y-101018000D02*
X34986000Y-101029000D01*
X34986000Y-101029000D02*
X34965000Y-101039000D01*
X34965000Y-101039000D02*
X34943000Y-101048000D01*
X34943000Y-101048000D02*
X34920000Y-101056000D01*
X34920000Y-101056000D02*
X34898000Y-101063000D01*
X34898000Y-101063000D02*
X34875000Y-101069000D01*
X34875000Y-101069000D02*
X34852000Y-101074000D01*
X34852000Y-101074000D02*
X34828000Y-101078000D01*
X34828000Y-101078000D02*
X34807000Y-101080000D01*
X34807000Y-101080000D02*
X34807000Y-101380000D01*
X34807000Y-101380000D02*
X34846000Y-101377000D01*
X34846000Y-101377000D02*
X34884000Y-101372000D01*
X34884000Y-101372000D02*
X34923000Y-101365000D01*
X34923000Y-101365000D02*
X34961000Y-101357000D01*
X34961000Y-101357000D02*
X34999000Y-101346000D01*
X34999000Y-101346000D02*
X35037000Y-101334000D01*
X35037000Y-101334000D02*
X35073000Y-101319000D01*
X35073000Y-101319000D02*
X35109000Y-101303000D01*
X35109000Y-101303000D02*
X35144000Y-101286000D01*
X35144000Y-101286000D02*
X35178000Y-101266000D01*
X35178000Y-101266000D02*
X35211000Y-101245000D01*
X35211000Y-101245000D02*
X35244000Y-101223000D01*
X35244000Y-101223000D02*
X35275000Y-101198000D01*
X35275000Y-101198000D02*
X35304000Y-101173000D01*
X35304000Y-101173000D02*
X35333000Y-101146000D01*
X35333000Y-101146000D02*
X35360000Y-101117000D01*
X35360000Y-101117000D02*
X35385000Y-101088000D01*
X35385000Y-101088000D02*
X35410000Y-101057000D01*
X35410000Y-101057000D02*
X35432000Y-101024000D01*
X35432000Y-101024000D02*
X35453000Y-100991000D01*
X35453000Y-100991000D02*
X35473000Y-100957000D01*
X35473000Y-100957000D02*
X35490000Y-100922000D01*
X35490000Y-100922000D02*
X35506000Y-100886000D01*
X35506000Y-100886000D02*
X35521000Y-100850000D01*
X35521000Y-100850000D02*
X35533000Y-100812000D01*
X35533000Y-100812000D02*
X35544000Y-100774000D01*
X35544000Y-100774000D02*
X35552000Y-100736000D01*
X35552000Y-100736000D02*
X35559000Y-100697000D01*
X35559000Y-100697000D02*
X35564000Y-100659000D01*
X35564000Y-100659000D02*
X35567000Y-100620000D01*
X35567000Y-100620000D02*
X35267000Y-100620000D01*
X35267000Y-100620000D02*
X35267000Y-100620000D01*
G36*
X35564000Y-100659000D02*
G01*
X35559000Y-100697000D01*
X35552000Y-100736000D01*
X35544000Y-100774000D01*
X35533000Y-100812000D01*
X35521000Y-100850000D01*
X35506000Y-100886000D01*
X35490000Y-100922000D01*
X35473000Y-100957000D01*
X35453000Y-100991000D01*
X35432000Y-101024000D01*
X35410000Y-101057000D01*
X35385000Y-101088000D01*
X35360000Y-101117000D01*
X35333000Y-101146000D01*
X35304000Y-101173000D01*
X35275000Y-101198000D01*
X35244000Y-101223000D01*
X35211000Y-101245000D01*
X35178000Y-101266000D01*
X35144000Y-101286000D01*
X35109000Y-101303000D01*
X35073000Y-101319000D01*
X35037000Y-101334000D01*
X34999000Y-101346000D01*
X34961000Y-101357000D01*
X34923000Y-101365000D01*
X34884000Y-101372000D01*
X34846000Y-101377000D01*
X34807000Y-101380000D01*
X34807000Y-101080000D01*
X34828000Y-101078000D01*
X34852000Y-101074000D01*
X34875000Y-101069000D01*
X34898000Y-101063000D01*
X34920000Y-101056000D01*
X34943000Y-101048000D01*
X34965000Y-101039000D01*
X34986000Y-101029000D01*
X35007000Y-101018000D01*
X35027000Y-101006000D01*
X35067000Y-100980000D01*
X35085000Y-100965000D01*
X35103000Y-100949000D01*
X35120000Y-100933000D01*
X35136000Y-100916000D01*
X35152000Y-100898000D01*
X35167000Y-100880000D01*
X35193000Y-100840000D01*
X35205000Y-100820000D01*
X35216000Y-100799000D01*
X35226000Y-100778000D01*
X35235000Y-100756000D01*
X35243000Y-100733000D01*
X35250000Y-100711000D01*
X35256000Y-100688000D01*
X35261000Y-100665000D01*
X35265000Y-100641000D01*
X35267000Y-100620000D01*
X35567000Y-100620000D01*
X35564000Y-100659000D01*
G37*
X35564000Y-100659000D02*
X35559000Y-100697000D01*
X35552000Y-100736000D01*
X35544000Y-100774000D01*
X35533000Y-100812000D01*
X35521000Y-100850000D01*
X35506000Y-100886000D01*
X35490000Y-100922000D01*
X35473000Y-100957000D01*
X35453000Y-100991000D01*
X35432000Y-101024000D01*
X35410000Y-101057000D01*
X35385000Y-101088000D01*
X35360000Y-101117000D01*
X35333000Y-101146000D01*
X35304000Y-101173000D01*
X35275000Y-101198000D01*
X35244000Y-101223000D01*
X35211000Y-101245000D01*
X35178000Y-101266000D01*
X35144000Y-101286000D01*
X35109000Y-101303000D01*
X35073000Y-101319000D01*
X35037000Y-101334000D01*
X34999000Y-101346000D01*
X34961000Y-101357000D01*
X34923000Y-101365000D01*
X34884000Y-101372000D01*
X34846000Y-101377000D01*
X34807000Y-101380000D01*
X34807000Y-101080000D01*
X34828000Y-101078000D01*
X34852000Y-101074000D01*
X34875000Y-101069000D01*
X34898000Y-101063000D01*
X34920000Y-101056000D01*
X34943000Y-101048000D01*
X34965000Y-101039000D01*
X34986000Y-101029000D01*
X35007000Y-101018000D01*
X35027000Y-101006000D01*
X35067000Y-100980000D01*
X35085000Y-100965000D01*
X35103000Y-100949000D01*
X35120000Y-100933000D01*
X35136000Y-100916000D01*
X35152000Y-100898000D01*
X35167000Y-100880000D01*
X35193000Y-100840000D01*
X35205000Y-100820000D01*
X35216000Y-100799000D01*
X35226000Y-100778000D01*
X35235000Y-100756000D01*
X35243000Y-100733000D01*
X35250000Y-100711000D01*
X35256000Y-100688000D01*
X35261000Y-100665000D01*
X35265000Y-100641000D01*
X35267000Y-100620000D01*
X35567000Y-100620000D01*
X35564000Y-100659000D01*
X37042000Y-99920000D02*
X36620000Y-99920000D01*
X36620000Y-99920000D02*
X36620000Y-99420000D01*
X36620000Y-99420000D02*
X37042000Y-99420000D01*
X37042000Y-99420000D02*
X37042000Y-99920000D01*
G36*
X37042000Y-99920000D02*
G01*
X36620000Y-99920000D01*
X36620000Y-99420000D01*
X37042000Y-99420000D01*
X37042000Y-99920000D01*
G37*
X37042000Y-99920000D02*
X36620000Y-99920000D01*
X36620000Y-99420000D01*
X37042000Y-99420000D01*
X37042000Y-99920000D01*
X36220000Y-101720000D02*
X35798000Y-101720000D01*
X35798000Y-101720000D02*
X35798000Y-101220000D01*
X35798000Y-101220000D02*
X36220000Y-101220000D01*
X36220000Y-101220000D02*
X36220000Y-101720000D01*
G36*
X36220000Y-101720000D02*
G01*
X35798000Y-101720000D01*
X35798000Y-101220000D01*
X36220000Y-101220000D01*
X36220000Y-101720000D01*
G37*
X36220000Y-101720000D02*
X35798000Y-101720000D01*
X35798000Y-101220000D01*
X36220000Y-101220000D01*
X36220000Y-101720000D01*
%TD*%
D12*
%TO.C,U301*%
X106110000Y-61530900D03*
X104840000Y-61530900D03*
X102300000Y-61530900D03*
X101030000Y-61530900D03*
D13*
X103570000Y-70268500D03*
%TD*%
D14*
%TO.C,C602*%
X51420000Y-80620000D03*
X55820000Y-80620000D03*
%TD*%
D15*
%TO.C,Q606*%
X51350000Y-70140000D03*
X50080000Y-70140000D03*
X48810000Y-70140000D03*
X47540000Y-70140000D03*
X47540000Y-75290000D03*
D16*
X48652500Y-75290000D03*
X50237500Y-75290000D03*
D15*
X51350000Y-75290000D03*
%TD*%
D17*
%TO.C,U601*%
X47668528Y-61270000D03*
X47668528Y-61770000D03*
X47668528Y-62270000D03*
X47668528Y-62770000D03*
X47668528Y-63270000D03*
X52068528Y-63270000D03*
X52068528Y-62770000D03*
X52068528Y-62270000D03*
X52068528Y-61770000D03*
X52068528Y-61270000D03*
%TD*%
D18*
%TO.C,R622*%
X55268529Y-64727500D03*
X55268529Y-70652500D03*
%TD*%
%TO.C,R621*%
X44408529Y-64727500D03*
X44408529Y-70652500D03*
%TD*%
D19*
%TO.C,C601*%
X51049999Y-59870000D03*
X50089999Y-59870000D03*
%TD*%
D20*
%TO.C,C501*%
X84175001Y-99440000D03*
X84175001Y-97540000D03*
%TD*%
D21*
%TO.C,R606*%
X103250000Y-85880000D03*
X104270000Y-85880000D03*
%TD*%
D22*
%TO.C,R612*%
X109770000Y-82880000D03*
X109770000Y-81860000D03*
%TD*%
D23*
%TO.C,R105*%
X41905000Y-95524999D03*
X41905000Y-96544999D03*
%TD*%
D24*
%TO.C,C113*%
X49757559Y-115431163D03*
X49078737Y-116109985D03*
%TD*%
D25*
%TO.C,C523*%
X95870000Y-114320000D03*
X95870000Y-116220000D03*
%TD*%
D26*
%TO.C,L501*%
X84535000Y-104905000D03*
X85505000Y-104905000D03*
%TD*%
D23*
%TO.C,R613*%
X94685000Y-83755000D03*
X94685000Y-84775000D03*
%TD*%
D27*
%TO.C,AE501*%
X108545000Y-107795000D03*
X108545000Y-103495000D03*
D28*
X107045000Y-106020000D03*
%TD*%
D29*
%TO.C,C506*%
X84540000Y-102845000D03*
X85500000Y-102845000D03*
%TD*%
%TO.C,C116*%
X54490000Y-129220000D03*
X55450000Y-129220000D03*
%TD*%
D30*
%TO.C,R501*%
X96050000Y-107970000D03*
X95030000Y-107970000D03*
%TD*%
D31*
%TO.C,C112*%
X53960589Y-113160589D03*
X54639411Y-113839411D03*
%TD*%
D32*
%TO.C,U401*%
X90545000Y-66415000D03*
X90545000Y-67685000D03*
X90545000Y-68955000D03*
X90545000Y-70225000D03*
X95495000Y-70225000D03*
X95495000Y-68955000D03*
X95495000Y-67685000D03*
X95495000Y-66415000D03*
%TD*%
D29*
%TO.C,C521*%
X98185000Y-106020000D03*
X99145000Y-106020000D03*
%TD*%
D19*
%TO.C,C502*%
X79225000Y-110599999D03*
X78265000Y-110599999D03*
%TD*%
D26*
%TO.C,L502*%
X84535000Y-105920000D03*
X85505000Y-105920000D03*
%TD*%
D20*
%TO.C,C401*%
X88170000Y-69320000D03*
X88170000Y-67420000D03*
%TD*%
D33*
%TO.C,R108*%
X51050624Y-110929376D03*
X50329376Y-111650624D03*
%TD*%
D34*
%TO.C,C201*%
X63890000Y-119170000D03*
X61990000Y-119170000D03*
%TD*%
D22*
%TO.C,R617*%
X104300001Y-84820000D03*
X104300001Y-83800000D03*
%TD*%
D35*
%TO.C,U102*%
X43558163Y-96552086D03*
X43558163Y-97822086D03*
X43558163Y-99092086D03*
X43558163Y-100362086D03*
X50858163Y-100362086D03*
X50858163Y-99092086D03*
X50858163Y-97822086D03*
X50858163Y-96552086D03*
%TD*%
D36*
%TO.C,R23*%
X91347500Y-74995000D03*
X97272500Y-74995000D03*
%TD*%
D37*
%TO.C,C514*%
X92095000Y-104475000D03*
X92095000Y-103515000D03*
%TD*%
D38*
%TO.C,R301*%
X99507500Y-59110000D03*
X97682500Y-59110000D03*
%TD*%
D39*
%TO.C,U502*%
X94145000Y-105370000D03*
X94145000Y-106020000D03*
X94145000Y-106670000D03*
X96045000Y-106670000D03*
X96045000Y-106020000D03*
X96045000Y-105370000D03*
%TD*%
D26*
%TO.C,L503*%
X87360000Y-104470000D03*
X88330000Y-104470000D03*
%TD*%
D37*
%TO.C,C504*%
X82105000Y-101740000D03*
X82105000Y-100780000D03*
%TD*%
D40*
%TO.C,C518*%
X87495000Y-107215000D03*
X87495000Y-108175000D03*
%TD*%
D41*
%TO.C,D301*%
X100182500Y-51070000D03*
X100182500Y-52020000D03*
X100182500Y-52970000D03*
X102457500Y-52970000D03*
X102457500Y-51070000D03*
%TD*%
D22*
%TO.C,R614*%
X95710000Y-84775000D03*
X95710000Y-83755000D03*
%TD*%
D29*
%TO.C,C509*%
X84540000Y-103875000D03*
X85500000Y-103875000D03*
%TD*%
D39*
%TO.C,Q605*%
X107510000Y-85470000D03*
X107510000Y-84820000D03*
X107510000Y-84170000D03*
X105610000Y-84170000D03*
X105610000Y-84820000D03*
X105610000Y-85470000D03*
%TD*%
D33*
%TO.C,R109*%
X51640000Y-111530000D03*
X50918752Y-112251248D03*
%TD*%
D42*
%TO.C,D201*%
X93732500Y-61245000D03*
X93732500Y-59345000D03*
X91857500Y-60295000D03*
%TD*%
D43*
%TO.C,R303*%
X108020000Y-63820000D03*
X108020000Y-65470000D03*
%TD*%
D22*
%TO.C,R103*%
X60395000Y-95905000D03*
X60395000Y-94885000D03*
%TD*%
D21*
%TO.C,R605*%
X94660000Y-85870000D03*
X95680000Y-85870000D03*
%TD*%
%TO.C,R402*%
X97285000Y-66420000D03*
X98305000Y-66420000D03*
%TD*%
%TO.C,R620*%
X106550000Y-82770000D03*
X107570000Y-82770000D03*
%TD*%
D22*
%TO.C,R611*%
X109770001Y-84815000D03*
X109770001Y-83795000D03*
%TD*%
D44*
%TO.C,R603*%
X50080000Y-66247500D03*
X50080000Y-68072500D03*
%TD*%
D40*
%TO.C,C520*%
X100165000Y-105065000D03*
X100165000Y-106025000D03*
%TD*%
D45*
%TO.C,D303*%
X108020000Y-62232500D03*
X108020000Y-60657500D03*
%TD*%
D46*
%TO.C,L101*%
X57570000Y-115145000D03*
X57570000Y-116115000D03*
%TD*%
D29*
%TO.C,C103*%
X61040000Y-110460000D03*
X62000000Y-110460000D03*
%TD*%
D46*
%TO.C,L505*%
X84545000Y-107210000D03*
X84545000Y-108180000D03*
%TD*%
D29*
%TO.C,C515*%
X92090000Y-105370000D03*
X93050000Y-105370000D03*
%TD*%
D22*
%TO.C,R615*%
X95710000Y-82840000D03*
X95710000Y-81820000D03*
%TD*%
D37*
%TO.C,C513*%
X89295000Y-104475000D03*
X89295000Y-103515000D03*
%TD*%
D47*
%TO.C,U101*%
X57115355Y-104164646D03*
D48*
X57672202Y-108469157D03*
X57955045Y-108186314D03*
X58237887Y-107903472D03*
X58520730Y-107620629D03*
X58803573Y-107337786D03*
X59086415Y-107054944D03*
X59369258Y-106772101D03*
X59652101Y-106489258D03*
X59934944Y-106206415D03*
X60217786Y-105923573D03*
X60500629Y-105640730D03*
X60783472Y-105357887D03*
X61066314Y-105075045D03*
X61349157Y-104792202D03*
D49*
X61349157Y-103607798D03*
X61066314Y-103324955D03*
X60783472Y-103042113D03*
X60500629Y-102759270D03*
X60217786Y-102476427D03*
X59934944Y-102193585D03*
X59652101Y-101910742D03*
X59369258Y-101627899D03*
X59086415Y-101345056D03*
X58803573Y-101062214D03*
X58520730Y-100779371D03*
X58237887Y-100496528D03*
X57955045Y-100213686D03*
X57672202Y-99930843D03*
D48*
X56487798Y-99930843D03*
X56204955Y-100213686D03*
X55922113Y-100496528D03*
X55639270Y-100779371D03*
X55356427Y-101062214D03*
X55073585Y-101345056D03*
X54790742Y-101627899D03*
X54507899Y-101910742D03*
X54225056Y-102193585D03*
X53942214Y-102476427D03*
X53659371Y-102759270D03*
X53376528Y-103042113D03*
X53093686Y-103324955D03*
X52810843Y-103607798D03*
D49*
X52810843Y-104792202D03*
X53093686Y-105075045D03*
X53376528Y-105357887D03*
X53659371Y-105640730D03*
X53942214Y-105923573D03*
X54225056Y-106206415D03*
X54507899Y-106489258D03*
X54790742Y-106772101D03*
X55073585Y-107054944D03*
X55356427Y-107337786D03*
X55639270Y-107620629D03*
X55922113Y-107903472D03*
X56204955Y-108186314D03*
X56487798Y-108469157D03*
%TD*%
D40*
%TO.C,C108*%
X54430000Y-110490000D03*
X54430000Y-111450000D03*
%TD*%
D50*
%TO.C,L102*%
X56589999Y-130185000D03*
X56589999Y-129215000D03*
%TD*%
D21*
%TO.C,R801*%
X36020000Y-97979999D03*
X37040000Y-97979999D03*
%TD*%
%TO.C,R101*%
X62910001Y-110470000D03*
X63930001Y-110470000D03*
%TD*%
D29*
%TO.C,C510*%
X87460000Y-105920000D03*
X88420000Y-105920000D03*
%TD*%
D20*
%TO.C,C304*%
X102295000Y-59020000D03*
X102295000Y-57120000D03*
%TD*%
D22*
%TO.C,R608*%
X101125000Y-84775000D03*
X101125000Y-83755000D03*
%TD*%
D37*
%TO.C,C522*%
X86495000Y-105925000D03*
X86495000Y-104965000D03*
%TD*%
D38*
%TO.C,R302*%
X99507500Y-61105000D03*
X97682500Y-61105000D03*
%TD*%
D51*
%TO.C,SW102*%
X64630000Y-112750000D03*
X72630000Y-112750000D03*
%TD*%
D42*
%TO.C,D202*%
X93732500Y-64695000D03*
X93732500Y-62795000D03*
X91857500Y-63745000D03*
%TD*%
D22*
%TO.C,R104*%
X59365000Y-95895000D03*
X59365000Y-94875000D03*
%TD*%
D26*
%TO.C,L504*%
X90285000Y-104470000D03*
X91255000Y-104470000D03*
%TD*%
D19*
%TO.C,C508*%
X79440000Y-97220000D03*
X78480000Y-97220000D03*
%TD*%
D52*
%TO.C,Q607*%
X59815001Y-72150000D03*
X61085001Y-72150000D03*
X62355001Y-72150000D03*
X63625001Y-72150000D03*
X63625001Y-67000000D03*
X62355001Y-67000000D03*
X61085001Y-67000000D03*
X59815001Y-67000000D03*
%TD*%
D40*
%TO.C,C519*%
X97190000Y-105065000D03*
X97190000Y-106025000D03*
%TD*%
D21*
%TO.C,R102*%
X48560000Y-108910000D03*
X49580000Y-108910000D03*
%TD*%
D25*
%TO.C,C302*%
X97380000Y-53275001D03*
X97380000Y-55175001D03*
%TD*%
D53*
%TO.C,R602*%
X65707500Y-71310000D03*
X67532500Y-71310000D03*
%TD*%
D23*
%TO.C,R502*%
X97170000Y-106860000D03*
X97170000Y-107880000D03*
%TD*%
D39*
%TO.C,Q604*%
X98840000Y-85425000D03*
X98840000Y-84775000D03*
X98840000Y-84125000D03*
X96940000Y-84125000D03*
X96940000Y-84775000D03*
X96940000Y-85425000D03*
%TD*%
D51*
%TO.C,SW101*%
X64620000Y-117020000D03*
X72620000Y-117020000D03*
%TD*%
D21*
%TO.C,R619*%
X97860000Y-82780000D03*
X98880000Y-82780000D03*
%TD*%
D29*
%TO.C,C507*%
X81655000Y-97245000D03*
X82615000Y-97245000D03*
%TD*%
D25*
%TO.C,C301*%
X100210000Y-47430000D03*
X100210000Y-49330000D03*
%TD*%
D22*
%TO.C,R618*%
X104300001Y-82875001D03*
X104300001Y-81855001D03*
%TD*%
D54*
%TO.C,D302*%
X105220000Y-58270000D03*
X105220000Y-54270000D03*
%TD*%
D53*
%TO.C,R604*%
X65707500Y-73510000D03*
X67532500Y-73510000D03*
%TD*%
D23*
%TO.C,R610*%
X108765001Y-83800001D03*
X108765001Y-84820001D03*
%TD*%
D52*
%TO.C,Q602*%
X75575000Y-72150000D03*
X76845000Y-72150000D03*
X78115000Y-72150000D03*
X79385000Y-72150000D03*
X79385000Y-67000000D03*
X78115000Y-67000000D03*
X76845000Y-67000000D03*
X75575000Y-67000000D03*
%TD*%
D19*
%TO.C,C512*%
X91255000Y-103470000D03*
X90295000Y-103470000D03*
%TD*%
D55*
%TO.C,C106*%
X55604053Y-98665477D03*
X54925231Y-97986655D03*
%TD*%
D29*
%TO.C,C517*%
X92090000Y-106670000D03*
X93050000Y-106670000D03*
%TD*%
D37*
%TO.C,C503*%
X82535000Y-99440000D03*
X82535000Y-98480000D03*
%TD*%
D40*
%TO.C,C110*%
X53685000Y-96005000D03*
X53685000Y-96965000D03*
%TD*%
D21*
%TO.C,R304*%
X104005000Y-49555000D03*
X105025000Y-49555000D03*
%TD*%
D44*
%TO.C,R401*%
X95770000Y-62807500D03*
X95770000Y-64632500D03*
%TD*%
%TO.C,R601*%
X47530000Y-66257499D03*
X47530000Y-68082499D03*
%TD*%
D29*
%TO.C,C101*%
X65121569Y-98632617D03*
X66081569Y-98632617D03*
%TD*%
D26*
%TO.C,C516*%
X85535000Y-107220000D03*
X86505000Y-107220000D03*
%TD*%
D56*
%TO.C,U501*%
X79995000Y-106040000D03*
X81695000Y-106040000D03*
X81695000Y-107740000D03*
X79995000Y-107740000D03*
D57*
X82470000Y-104440000D03*
X81820000Y-104440000D03*
X81170000Y-104440000D03*
X80520000Y-104440000D03*
X79870000Y-104440000D03*
X79220000Y-104440000D03*
D58*
X78395000Y-105265000D03*
X78395000Y-105915000D03*
X78395000Y-106565000D03*
X78395000Y-107215000D03*
X78395000Y-107865000D03*
X78395000Y-108515000D03*
D57*
X79220000Y-109340000D03*
X79870000Y-109340000D03*
X80520000Y-109340000D03*
X81170000Y-109340000D03*
X81820000Y-109340000D03*
X82470000Y-109340000D03*
D58*
X83295000Y-108515000D03*
X83295000Y-107865000D03*
X83295000Y-107215000D03*
X83295000Y-106565000D03*
X83295000Y-105915000D03*
X83295000Y-105265000D03*
%TD*%
D59*
%TO.C,Y501*%
X80735000Y-100394999D03*
X80735000Y-98644999D03*
X79335000Y-98644999D03*
X79335000Y-100394999D03*
%TD*%
D25*
%TO.C,C105*%
X59530000Y-110590000D03*
X59530000Y-112490000D03*
%TD*%
D21*
%TO.C,R107*%
X66830000Y-109750000D03*
X67850000Y-109750000D03*
%TD*%
D22*
%TO.C,R609*%
X101125000Y-82785000D03*
X101125000Y-81765000D03*
%TD*%
D52*
%TO.C,Q603*%
X81175000Y-72150000D03*
X82445000Y-72150000D03*
X83715000Y-72150000D03*
X84985000Y-72150000D03*
X84985000Y-67000000D03*
X83715000Y-67000000D03*
X82445000Y-67000000D03*
X81175000Y-67000000D03*
%TD*%
D23*
%TO.C,R616*%
X103270000Y-83800001D03*
X103270000Y-84820001D03*
%TD*%
D19*
%TO.C,C511*%
X88325000Y-103470000D03*
X87365000Y-103470000D03*
%TD*%
D37*
%TO.C,C111*%
X74370000Y-117020000D03*
X74370000Y-116060000D03*
%TD*%
D19*
%TO.C,C114*%
X58570000Y-114140000D03*
X57610000Y-114140000D03*
%TD*%
%TO.C,C801*%
X36850000Y-102770000D03*
X35890000Y-102770000D03*
%TD*%
D36*
%TO.C,R24*%
X91347500Y-78995000D03*
X97272500Y-78995000D03*
%TD*%
D29*
%TO.C,C104*%
X61040000Y-111450000D03*
X62000000Y-111450000D03*
%TD*%
D30*
%TO.C,R106*%
X62790000Y-115409999D03*
X61770000Y-115409999D03*
%TD*%
D19*
%TO.C,C117*%
X62780000Y-114450000D03*
X61820000Y-114450000D03*
%TD*%
D25*
%TO.C,C109*%
X55830000Y-110600000D03*
X55830000Y-112500000D03*
%TD*%
D60*
%TO.C,Y101*%
X53428858Y-114866777D03*
X51873223Y-113311142D03*
X50671142Y-114513223D03*
X52226777Y-116068858D03*
%TD*%
D37*
%TO.C,C505*%
X83115000Y-101740000D03*
X83115000Y-100780000D03*
%TD*%
D19*
%TO.C,C102*%
X50455000Y-106650000D03*
X49495000Y-106650000D03*
%TD*%
D61*
%TO.C,C107*%
X65119999Y-96665000D03*
X67019999Y-96665000D03*
%TD*%
D21*
%TO.C,R305*%
X105969998Y-49554999D03*
X106989998Y-49554999D03*
%TD*%
D25*
%TO.C,C303*%
X108295000Y-55494999D03*
X108295000Y-57394999D03*
%TD*%
D23*
%TO.C,R607*%
X100080000Y-83755001D03*
X100080000Y-84775001D03*
%TD*%
D52*
%TO.C,Q601*%
X69975000Y-72150000D03*
X71245000Y-72150000D03*
X72515000Y-72150000D03*
X73785000Y-72150000D03*
X73785000Y-67000000D03*
X72515000Y-67000000D03*
X71245000Y-67000000D03*
X69975000Y-67000000D03*
%TD*%
D19*
%TO.C,C115*%
X57550000Y-131150000D03*
X56590000Y-131150000D03*
%TD*%
M02*
