%TF.GenerationSoftware,KiCad,Pcbnew,(6.0.2)*%
%TF.CreationDate,2022-05-18T10:59:20-06:00*%
%TF.ProjectId,RGB-controller,5247422d-636f-46e7-9472-6f6c6c65722e,rev?*%
%TF.SameCoordinates,Original*%
%TF.FileFunction,Legend,Bot*%
%TF.FilePolarity,Positive*%
%FSLAX46Y46*%
G04 Gerber Fmt 4.6, Leading zero omitted, Abs format (unit mm)*
G04 Created by KiCad (PCBNEW (6.0.2)) date 2022-05-18 10:59:20*
%MOMM*%
%LPD*%
G01*
G04 APERTURE LIST*
%ADD10C,0.120000*%
%ADD11C,0.150000*%
%ADD12C,0.990600*%
%ADD13R,1.000000X1.000000*%
%ADD14O,1.000000X1.000000*%
%ADD15R,2.056000X2.056000*%
%ADD16C,2.056000*%
%ADD17C,5.600000*%
%ADD18R,1.700000X1.700000*%
%ADD19O,1.700000X1.700000*%
%ADD20C,1.000000*%
G04 APERTURE END LIST*
D10*
X92400000Y-50150000D02*
X92410000Y-49060000D01*
X85380000Y-44950000D02*
X85380000Y-46300000D01*
X102030000Y-51400000D02*
G75*
G03*
X99530000Y-51400000I-1250000J0D01*
G01*
X47050000Y-51450000D02*
G75*
G03*
X44550000Y-51450000I-1250000J0D01*
G01*
X42850000Y-51400000D02*
G75*
G03*
X40350000Y-51400000I-1250000J0D01*
G01*
X48750000Y-45100000D02*
G75*
G03*
X51250000Y-45100000I1250000J0D01*
G01*
X86960000Y-45070000D02*
G75*
G03*
X89460000Y-45070000I1250000J0D01*
G01*
X47520000Y-43370000D02*
X25010000Y-43370000D01*
X25010000Y-43370000D02*
X25010000Y-53750000D01*
X25010000Y-53750000D02*
X47520000Y-53750000D01*
X47520000Y-53750000D02*
X47520000Y-43370000D01*
X97860000Y-51400000D02*
G75*
G03*
X95360000Y-51400000I-1250000J0D01*
G01*
X89460000Y-51370000D02*
G75*
G03*
X86960000Y-51370000I-1250000J0D01*
G01*
X100800000Y-50150000D02*
X100800000Y-49050000D01*
X27750000Y-45050000D02*
G75*
G03*
X30250000Y-45050000I1250000J0D01*
G01*
X34450000Y-51450000D02*
G75*
G03*
X31950000Y-51450000I-1250000J0D01*
G01*
X51350000Y-51460000D02*
X55620000Y-51460000D01*
X51350000Y-50100000D02*
X51350000Y-51450000D01*
X44550000Y-45100000D02*
G75*
G03*
X47050000Y-45100000I1250000J0D01*
G01*
X48600000Y-51450000D02*
X48600000Y-50100000D01*
X38650000Y-51450000D02*
G75*
G03*
X36150000Y-51450000I-1250000J0D01*
G01*
X99540000Y-45000000D02*
G75*
G03*
X102040000Y-45000000I1250000J0D01*
G01*
X106240000Y-51390000D02*
G75*
G03*
X103740000Y-51390000I-1250000J0D01*
G01*
X93650000Y-51400000D02*
G75*
G03*
X91150000Y-51400000I-1250000J0D01*
G01*
X95320000Y-45000000D02*
G75*
G03*
X97820000Y-45000000I1250000J0D01*
G01*
X48600000Y-50100000D02*
X51350000Y-50100000D01*
X40350000Y-45100000D02*
G75*
G03*
X42850000Y-45100000I1250000J0D01*
G01*
X36150000Y-45100000D02*
G75*
G03*
X38650000Y-45100000I1250000J0D01*
G01*
X30250000Y-51450000D02*
G75*
G03*
X27750000Y-51450000I-1250000J0D01*
G01*
X103740000Y-45020000D02*
G75*
G03*
X106240000Y-45020000I1250000J0D01*
G01*
X32000000Y-45100000D02*
G75*
G03*
X34500000Y-45100000I1250000J0D01*
G01*
X82630000Y-46300000D02*
X82630000Y-44950000D01*
X91160000Y-45020000D02*
G75*
G03*
X93660000Y-45020000I1250000J0D01*
G01*
X85380000Y-46300000D02*
X82630000Y-46300000D01*
X51250000Y-45100000D02*
X55520000Y-45100000D01*
X85250000Y-51390000D02*
G75*
G03*
X82750000Y-51390000I-1250000J0D01*
G01*
D11*
X84864761Y-46625000D02*
X84926666Y-46594047D01*
X85019523Y-46594047D01*
X85112380Y-46625000D01*
X85174285Y-46686904D01*
X85205238Y-46748809D01*
X85236190Y-46872619D01*
X85236190Y-46965476D01*
X85205238Y-47089285D01*
X85174285Y-47151190D01*
X85112380Y-47213095D01*
X85019523Y-47244047D01*
X84957619Y-47244047D01*
X84864761Y-47213095D01*
X84833809Y-47182142D01*
X84833809Y-46965476D01*
X84957619Y-46965476D01*
X84555238Y-47244047D02*
X84555238Y-46594047D01*
X84307619Y-46594047D01*
X84245714Y-46625000D01*
X84214761Y-46655952D01*
X84183809Y-46717857D01*
X84183809Y-46810714D01*
X84214761Y-46872619D01*
X84245714Y-46903571D01*
X84307619Y-46934523D01*
X84555238Y-46934523D01*
X83781428Y-46594047D02*
X83657619Y-46594047D01*
X83595714Y-46625000D01*
X83533809Y-46686904D01*
X83502857Y-46810714D01*
X83502857Y-47027380D01*
X83533809Y-47151190D01*
X83595714Y-47213095D01*
X83657619Y-47244047D01*
X83781428Y-47244047D01*
X83843333Y-47213095D01*
X83905238Y-47151190D01*
X83936190Y-47027380D01*
X83936190Y-46810714D01*
X83905238Y-46686904D01*
X83843333Y-46625000D01*
X83781428Y-46594047D01*
X82883809Y-47244047D02*
X83255238Y-47244047D01*
X83069523Y-47244047D02*
X83069523Y-46594047D01*
X83131428Y-46686904D01*
X83193333Y-46748809D01*
X83255238Y-46779761D01*
X34688689Y-46694047D02*
X34688689Y-47220238D01*
X34657737Y-47282142D01*
X34626785Y-47313095D01*
X34564880Y-47344047D01*
X34441070Y-47344047D01*
X34379166Y-47313095D01*
X34348213Y-47282142D01*
X34317261Y-47220238D01*
X34317261Y-46694047D01*
X34038689Y-47313095D02*
X33945832Y-47344047D01*
X33791070Y-47344047D01*
X33729166Y-47313095D01*
X33698213Y-47282142D01*
X33667261Y-47220238D01*
X33667261Y-47158333D01*
X33698213Y-47096428D01*
X33729166Y-47065476D01*
X33791070Y-47034523D01*
X33914880Y-47003571D01*
X33976785Y-46972619D01*
X34007737Y-46941666D01*
X34038689Y-46879761D01*
X34038689Y-46817857D01*
X34007737Y-46755952D01*
X33976785Y-46725000D01*
X33914880Y-46694047D01*
X33760118Y-46694047D01*
X33667261Y-46725000D01*
X33172023Y-47003571D02*
X33079166Y-47034523D01*
X33048213Y-47065476D01*
X33017261Y-47127380D01*
X33017261Y-47220238D01*
X33048213Y-47282142D01*
X33079166Y-47313095D01*
X33141070Y-47344047D01*
X33388689Y-47344047D01*
X33388689Y-46694047D01*
X33172023Y-46694047D01*
X33110118Y-46725000D01*
X33079166Y-46755952D01*
X33048213Y-46817857D01*
X33048213Y-46879761D01*
X33079166Y-46941666D01*
X33110118Y-46972619D01*
X33172023Y-47003571D01*
X33388689Y-47003571D01*
X32614880Y-46694047D02*
X32552975Y-46694047D01*
X32491070Y-46725000D01*
X32460118Y-46755952D01*
X32429166Y-46817857D01*
X32398213Y-46941666D01*
X32398213Y-47096428D01*
X32429166Y-47220238D01*
X32460118Y-47282142D01*
X32491070Y-47313095D01*
X32552975Y-47344047D01*
X32614880Y-47344047D01*
X32676785Y-47313095D01*
X32707737Y-47282142D01*
X32738689Y-47220238D01*
X32769642Y-47096428D01*
X32769642Y-46941666D01*
X32738689Y-46817857D01*
X32707737Y-46755952D01*
X32676785Y-46725000D01*
X32614880Y-46694047D01*
X31624404Y-47344047D02*
X31624404Y-46694047D01*
X31469642Y-46694047D01*
X31376785Y-46725000D01*
X31314880Y-46786904D01*
X31283928Y-46848809D01*
X31252975Y-46972619D01*
X31252975Y-47065476D01*
X31283928Y-47189285D01*
X31314880Y-47251190D01*
X31376785Y-47313095D01*
X31469642Y-47344047D01*
X31624404Y-47344047D01*
X30974404Y-47096428D02*
X30479166Y-47096428D01*
X61877857Y-118512142D02*
X61908809Y-118543095D01*
X62001666Y-118574047D01*
X62063571Y-118574047D01*
X62156428Y-118543095D01*
X62218333Y-118481190D01*
X62249285Y-118419285D01*
X62280238Y-118295476D01*
X62280238Y-118202619D01*
X62249285Y-118078809D01*
X62218333Y-118016904D01*
X62156428Y-117955000D01*
X62063571Y-117924047D01*
X62001666Y-117924047D01*
X61908809Y-117955000D01*
X61877857Y-117985952D01*
X61630238Y-118543095D02*
X61537380Y-118574047D01*
X61382619Y-118574047D01*
X61320714Y-118543095D01*
X61289761Y-118512142D01*
X61258809Y-118450238D01*
X61258809Y-118388333D01*
X61289761Y-118326428D01*
X61320714Y-118295476D01*
X61382619Y-118264523D01*
X61506428Y-118233571D01*
X61568333Y-118202619D01*
X61599285Y-118171666D01*
X61630238Y-118109761D01*
X61630238Y-118047857D01*
X61599285Y-117985952D01*
X61568333Y-117955000D01*
X61506428Y-117924047D01*
X61351666Y-117924047D01*
X61258809Y-117955000D01*
X60639761Y-118574047D02*
X61011190Y-118574047D01*
X60825476Y-118574047D02*
X60825476Y-117924047D01*
X60887380Y-118016904D01*
X60949285Y-118078809D01*
X61011190Y-118109761D01*
X82235238Y-96893095D02*
X82142381Y-96924047D01*
X81987619Y-96924047D01*
X81925714Y-96893095D01*
X81894762Y-96862142D01*
X81863809Y-96800238D01*
X81863809Y-96738333D01*
X81894762Y-96676428D01*
X81925714Y-96645476D01*
X81987619Y-96614523D01*
X82111429Y-96583571D01*
X82173333Y-96552619D01*
X82204286Y-96521666D01*
X82235238Y-96459761D01*
X82235238Y-96397857D01*
X82204286Y-96335952D01*
X82173333Y-96305000D01*
X82111429Y-96274047D01*
X81956667Y-96274047D01*
X81863809Y-96305000D01*
X81213809Y-96862142D02*
X81244762Y-96893095D01*
X81337619Y-96924047D01*
X81399524Y-96924047D01*
X81492381Y-96893095D01*
X81554286Y-96831190D01*
X81585238Y-96769285D01*
X81616190Y-96645476D01*
X81616190Y-96552619D01*
X81585238Y-96428809D01*
X81554286Y-96366904D01*
X81492381Y-96305000D01*
X81399524Y-96274047D01*
X81337619Y-96274047D01*
X81244762Y-96305000D01*
X81213809Y-96335952D01*
X80625714Y-96924047D02*
X80935238Y-96924047D01*
X80935238Y-96274047D01*
X80409048Y-96924047D02*
X80409048Y-96274047D01*
X80037619Y-96924047D02*
X80316190Y-96552619D01*
X80037619Y-96274047D02*
X80409048Y-96645476D01*
X89485476Y-49124047D02*
X89268809Y-49774047D01*
X89052142Y-49124047D01*
X88618809Y-49433571D02*
X88525952Y-49464523D01*
X88495000Y-49495476D01*
X88464047Y-49557380D01*
X88464047Y-49650238D01*
X88495000Y-49712142D01*
X88525952Y-49743095D01*
X88587857Y-49774047D01*
X88835476Y-49774047D01*
X88835476Y-49124047D01*
X88618809Y-49124047D01*
X88556904Y-49155000D01*
X88525952Y-49185952D01*
X88495000Y-49247857D01*
X88495000Y-49309761D01*
X88525952Y-49371666D01*
X88556904Y-49402619D01*
X88618809Y-49433571D01*
X88835476Y-49433571D01*
X88216428Y-49588333D02*
X87906904Y-49588333D01*
X88278333Y-49774047D02*
X88061666Y-49124047D01*
X87845000Y-49774047D01*
X87721190Y-49124047D02*
X87349761Y-49124047D01*
X87535476Y-49774047D02*
X87535476Y-49124047D01*
X87225952Y-49124047D02*
X86854523Y-49124047D01*
X87040238Y-49774047D02*
X87040238Y-49124047D01*
X46620238Y-46634047D02*
X46248809Y-46634047D01*
X46434523Y-47284047D02*
X46434523Y-46634047D01*
X46094047Y-46634047D02*
X45660714Y-47284047D01*
X45660714Y-46634047D02*
X46094047Y-47284047D01*
X45413095Y-47284047D02*
X45413095Y-46634047D01*
X45258333Y-46634047D01*
X45165476Y-46665000D01*
X45103571Y-46726904D01*
X45072619Y-46788809D01*
X45041666Y-46912619D01*
X45041666Y-47005476D01*
X45072619Y-47129285D01*
X45103571Y-47191190D01*
X45165476Y-47253095D01*
X45258333Y-47284047D01*
X45413095Y-47284047D01*
X103322380Y-48734047D02*
X103322380Y-48084047D01*
X103105714Y-48548333D01*
X102889047Y-48084047D01*
X102889047Y-48734047D01*
X102455714Y-48084047D02*
X102331904Y-48084047D01*
X102270000Y-48115000D01*
X102208095Y-48176904D01*
X102177142Y-48300714D01*
X102177142Y-48517380D01*
X102208095Y-48641190D01*
X102270000Y-48703095D01*
X102331904Y-48734047D01*
X102455714Y-48734047D01*
X102517619Y-48703095D01*
X102579523Y-48641190D01*
X102610476Y-48517380D01*
X102610476Y-48300714D01*
X102579523Y-48176904D01*
X102517619Y-48115000D01*
X102455714Y-48084047D01*
X101991428Y-48084047D02*
X101620000Y-48084047D01*
X101805714Y-48734047D02*
X101805714Y-48084047D01*
X101279523Y-48084047D02*
X101155714Y-48084047D01*
X101093809Y-48115000D01*
X101031904Y-48176904D01*
X101000952Y-48300714D01*
X101000952Y-48517380D01*
X101031904Y-48641190D01*
X101093809Y-48703095D01*
X101155714Y-48734047D01*
X101279523Y-48734047D01*
X101341428Y-48703095D01*
X101403333Y-48641190D01*
X101434285Y-48517380D01*
X101434285Y-48300714D01*
X101403333Y-48176904D01*
X101341428Y-48115000D01*
X101279523Y-48084047D01*
X100350952Y-48734047D02*
X100567619Y-48424523D01*
X100722380Y-48734047D02*
X100722380Y-48084047D01*
X100474761Y-48084047D01*
X100412857Y-48115000D01*
X100381904Y-48145952D01*
X100350952Y-48207857D01*
X100350952Y-48300714D01*
X100381904Y-48362619D01*
X100412857Y-48393571D01*
X100474761Y-48424523D01*
X100722380Y-48424523D01*
X99731904Y-48734047D02*
X100103333Y-48734047D01*
X99917619Y-48734047D02*
X99917619Y-48084047D01*
X99979523Y-48176904D01*
X100041428Y-48238809D01*
X100103333Y-48269761D01*
X98741428Y-48393571D02*
X98648571Y-48424523D01*
X98617619Y-48455476D01*
X98586666Y-48517380D01*
X98586666Y-48610238D01*
X98617619Y-48672142D01*
X98648571Y-48703095D01*
X98710476Y-48734047D01*
X98958095Y-48734047D01*
X98958095Y-48084047D01*
X98741428Y-48084047D01*
X98679523Y-48115000D01*
X98648571Y-48145952D01*
X98617619Y-48207857D01*
X98617619Y-48269761D01*
X98648571Y-48331666D01*
X98679523Y-48362619D01*
X98741428Y-48393571D01*
X98958095Y-48393571D01*
X84445238Y-49165000D02*
X84507142Y-49134047D01*
X84600000Y-49134047D01*
X84692857Y-49165000D01*
X84754761Y-49226904D01*
X84785714Y-49288809D01*
X84816666Y-49412619D01*
X84816666Y-49505476D01*
X84785714Y-49629285D01*
X84754761Y-49691190D01*
X84692857Y-49753095D01*
X84600000Y-49784047D01*
X84538095Y-49784047D01*
X84445238Y-49753095D01*
X84414285Y-49722142D01*
X84414285Y-49505476D01*
X84538095Y-49505476D01*
X84135714Y-49784047D02*
X84135714Y-49134047D01*
X83764285Y-49784047D01*
X83764285Y-49134047D01*
X83454761Y-49784047D02*
X83454761Y-49134047D01*
X83300000Y-49134047D01*
X83207142Y-49165000D01*
X83145238Y-49226904D01*
X83114285Y-49288809D01*
X83083333Y-49412619D01*
X83083333Y-49505476D01*
X83114285Y-49629285D01*
X83145238Y-49691190D01*
X83207142Y-49753095D01*
X83300000Y-49784047D01*
X83454761Y-49784047D01*
X42562321Y-47253095D02*
X42469464Y-47284047D01*
X42314702Y-47284047D01*
X42252797Y-47253095D01*
X42221845Y-47222142D01*
X42190892Y-47160238D01*
X42190892Y-47098333D01*
X42221845Y-47036428D01*
X42252797Y-47005476D01*
X42314702Y-46974523D01*
X42438512Y-46943571D01*
X42500416Y-46912619D01*
X42531369Y-46881666D01*
X42562321Y-46819761D01*
X42562321Y-46757857D01*
X42531369Y-46695952D01*
X42500416Y-46665000D01*
X42438512Y-46634047D01*
X42283750Y-46634047D01*
X42190892Y-46665000D01*
X41540892Y-47222142D02*
X41571845Y-47253095D01*
X41664702Y-47284047D01*
X41726607Y-47284047D01*
X41819464Y-47253095D01*
X41881369Y-47191190D01*
X41912321Y-47129285D01*
X41943273Y-47005476D01*
X41943273Y-46912619D01*
X41912321Y-46788809D01*
X41881369Y-46726904D01*
X41819464Y-46665000D01*
X41726607Y-46634047D01*
X41664702Y-46634047D01*
X41571845Y-46665000D01*
X41540892Y-46695952D01*
X40952797Y-47284047D02*
X41262321Y-47284047D01*
X41262321Y-46634047D01*
X101656761Y-46625000D02*
X101718666Y-46594047D01*
X101811523Y-46594047D01*
X101904380Y-46625000D01*
X101966285Y-46686904D01*
X101997238Y-46748809D01*
X102028190Y-46872619D01*
X102028190Y-46965476D01*
X101997238Y-47089285D01*
X101966285Y-47151190D01*
X101904380Y-47213095D01*
X101811523Y-47244047D01*
X101749619Y-47244047D01*
X101656761Y-47213095D01*
X101625809Y-47182142D01*
X101625809Y-46965476D01*
X101749619Y-46965476D01*
X101347238Y-47244047D02*
X101347238Y-46594047D01*
X101099619Y-46594047D01*
X101037714Y-46625000D01*
X101006761Y-46655952D01*
X100975809Y-46717857D01*
X100975809Y-46810714D01*
X101006761Y-46872619D01*
X101037714Y-46903571D01*
X101099619Y-46934523D01*
X101347238Y-46934523D01*
X100573428Y-46594047D02*
X100449619Y-46594047D01*
X100387714Y-46625000D01*
X100325809Y-46686904D01*
X100294857Y-46810714D01*
X100294857Y-47027380D01*
X100325809Y-47151190D01*
X100387714Y-47213095D01*
X100449619Y-47244047D01*
X100573428Y-47244047D01*
X100635333Y-47213095D01*
X100697238Y-47151190D01*
X100728190Y-47027380D01*
X100728190Y-46810714D01*
X100697238Y-46686904D01*
X100635333Y-46625000D01*
X100573428Y-46594047D01*
X99706761Y-46594047D02*
X100016285Y-46594047D01*
X100047238Y-46903571D01*
X100016285Y-46872619D01*
X99954380Y-46841666D01*
X99799619Y-46841666D01*
X99737714Y-46872619D01*
X99706761Y-46903571D01*
X99675809Y-46965476D01*
X99675809Y-47120238D01*
X99706761Y-47182142D01*
X99737714Y-47213095D01*
X99799619Y-47244047D01*
X99954380Y-47244047D01*
X100016285Y-47213095D01*
X100047238Y-47182142D01*
X34688689Y-49254047D02*
X34688689Y-49780238D01*
X34657737Y-49842142D01*
X34626785Y-49873095D01*
X34564880Y-49904047D01*
X34441070Y-49904047D01*
X34379166Y-49873095D01*
X34348213Y-49842142D01*
X34317261Y-49780238D01*
X34317261Y-49254047D01*
X34038689Y-49873095D02*
X33945832Y-49904047D01*
X33791070Y-49904047D01*
X33729166Y-49873095D01*
X33698213Y-49842142D01*
X33667261Y-49780238D01*
X33667261Y-49718333D01*
X33698213Y-49656428D01*
X33729166Y-49625476D01*
X33791070Y-49594523D01*
X33914880Y-49563571D01*
X33976785Y-49532619D01*
X34007737Y-49501666D01*
X34038689Y-49439761D01*
X34038689Y-49377857D01*
X34007737Y-49315952D01*
X33976785Y-49285000D01*
X33914880Y-49254047D01*
X33760118Y-49254047D01*
X33667261Y-49285000D01*
X33172023Y-49563571D02*
X33079166Y-49594523D01*
X33048213Y-49625476D01*
X33017261Y-49687380D01*
X33017261Y-49780238D01*
X33048213Y-49842142D01*
X33079166Y-49873095D01*
X33141070Y-49904047D01*
X33388689Y-49904047D01*
X33388689Y-49254047D01*
X33172023Y-49254047D01*
X33110118Y-49285000D01*
X33079166Y-49315952D01*
X33048213Y-49377857D01*
X33048213Y-49439761D01*
X33079166Y-49501666D01*
X33110118Y-49532619D01*
X33172023Y-49563571D01*
X33388689Y-49563571D01*
X32614880Y-49254047D02*
X32552975Y-49254047D01*
X32491070Y-49285000D01*
X32460118Y-49315952D01*
X32429166Y-49377857D01*
X32398213Y-49501666D01*
X32398213Y-49656428D01*
X32429166Y-49780238D01*
X32460118Y-49842142D01*
X32491070Y-49873095D01*
X32552975Y-49904047D01*
X32614880Y-49904047D01*
X32676785Y-49873095D01*
X32707737Y-49842142D01*
X32738689Y-49780238D01*
X32769642Y-49656428D01*
X32769642Y-49501666D01*
X32738689Y-49377857D01*
X32707737Y-49315952D01*
X32676785Y-49285000D01*
X32614880Y-49254047D01*
X31624404Y-49904047D02*
X31624404Y-49254047D01*
X31469642Y-49254047D01*
X31376785Y-49285000D01*
X31314880Y-49346904D01*
X31283928Y-49408809D01*
X31252975Y-49532619D01*
X31252975Y-49625476D01*
X31283928Y-49749285D01*
X31314880Y-49811190D01*
X31376785Y-49873095D01*
X31469642Y-49904047D01*
X31624404Y-49904047D01*
X30974404Y-49656428D02*
X30479166Y-49656428D01*
X30726785Y-49904047D02*
X30726785Y-49408809D01*
X99085952Y-49784047D02*
X99085952Y-49134047D01*
X98869285Y-49598333D01*
X98652619Y-49134047D01*
X98652619Y-49784047D01*
X98219285Y-49134047D02*
X98095476Y-49134047D01*
X98033571Y-49165000D01*
X97971666Y-49226904D01*
X97940714Y-49350714D01*
X97940714Y-49567380D01*
X97971666Y-49691190D01*
X98033571Y-49753095D01*
X98095476Y-49784047D01*
X98219285Y-49784047D01*
X98281190Y-49753095D01*
X98343095Y-49691190D01*
X98374047Y-49567380D01*
X98374047Y-49350714D01*
X98343095Y-49226904D01*
X98281190Y-49165000D01*
X98219285Y-49134047D01*
X97755000Y-49134047D02*
X97383571Y-49134047D01*
X97569285Y-49784047D02*
X97569285Y-49134047D01*
X97043095Y-49134047D02*
X96919285Y-49134047D01*
X96857380Y-49165000D01*
X96795476Y-49226904D01*
X96764523Y-49350714D01*
X96764523Y-49567380D01*
X96795476Y-49691190D01*
X96857380Y-49753095D01*
X96919285Y-49784047D01*
X97043095Y-49784047D01*
X97105000Y-49753095D01*
X97166904Y-49691190D01*
X97197857Y-49567380D01*
X97197857Y-49350714D01*
X97166904Y-49226904D01*
X97105000Y-49165000D01*
X97043095Y-49134047D01*
X96114523Y-49784047D02*
X96331190Y-49474523D01*
X96485952Y-49784047D02*
X96485952Y-49134047D01*
X96238333Y-49134047D01*
X96176428Y-49165000D01*
X96145476Y-49195952D01*
X96114523Y-49257857D01*
X96114523Y-49350714D01*
X96145476Y-49412619D01*
X96176428Y-49443571D01*
X96238333Y-49474523D01*
X96485952Y-49474523D01*
X95866904Y-49195952D02*
X95835952Y-49165000D01*
X95774047Y-49134047D01*
X95619285Y-49134047D01*
X95557380Y-49165000D01*
X95526428Y-49195952D01*
X95495476Y-49257857D01*
X95495476Y-49319761D01*
X95526428Y-49412619D01*
X95897857Y-49784047D01*
X95495476Y-49784047D01*
X94752619Y-49598333D02*
X94443095Y-49598333D01*
X94814523Y-49784047D02*
X94597857Y-49134047D01*
X94381190Y-49784047D01*
X39674404Y-46634047D02*
X39674404Y-47160238D01*
X39643452Y-47222142D01*
X39612500Y-47253095D01*
X39550595Y-47284047D01*
X39426785Y-47284047D01*
X39364881Y-47253095D01*
X39333928Y-47222142D01*
X39302976Y-47160238D01*
X39302976Y-46634047D01*
X39024404Y-47253095D02*
X38931547Y-47284047D01*
X38776785Y-47284047D01*
X38714881Y-47253095D01*
X38683928Y-47222142D01*
X38652976Y-47160238D01*
X38652976Y-47098333D01*
X38683928Y-47036428D01*
X38714881Y-47005476D01*
X38776785Y-46974523D01*
X38900595Y-46943571D01*
X38962500Y-46912619D01*
X38993452Y-46881666D01*
X39024404Y-46819761D01*
X39024404Y-46757857D01*
X38993452Y-46695952D01*
X38962500Y-46665000D01*
X38900595Y-46634047D01*
X38745833Y-46634047D01*
X38652976Y-46665000D01*
X38157738Y-46943571D02*
X38064881Y-46974523D01*
X38033928Y-47005476D01*
X38002976Y-47067380D01*
X38002976Y-47160238D01*
X38033928Y-47222142D01*
X38064881Y-47253095D01*
X38126785Y-47284047D01*
X38374404Y-47284047D01*
X38374404Y-46634047D01*
X38157738Y-46634047D01*
X38095833Y-46665000D01*
X38064881Y-46695952D01*
X38033928Y-46757857D01*
X38033928Y-46819761D01*
X38064881Y-46881666D01*
X38095833Y-46912619D01*
X38157738Y-46943571D01*
X38374404Y-46943571D01*
X37383928Y-47284047D02*
X37755357Y-47284047D01*
X37569643Y-47284047D02*
X37569643Y-46634047D01*
X37631547Y-46726904D01*
X37693452Y-46788809D01*
X37755357Y-46819761D01*
X36610119Y-47284047D02*
X36610119Y-46634047D01*
X36455357Y-46634047D01*
X36362500Y-46665000D01*
X36300595Y-46726904D01*
X36269643Y-46788809D01*
X36238690Y-46912619D01*
X36238690Y-47005476D01*
X36269643Y-47129285D01*
X36300595Y-47191190D01*
X36362500Y-47253095D01*
X36455357Y-47284047D01*
X36610119Y-47284047D01*
X35960119Y-47036428D02*
X35464881Y-47036428D01*
X94632380Y-48734047D02*
X94632380Y-48084047D01*
X94415714Y-48548333D01*
X94199047Y-48084047D01*
X94199047Y-48734047D01*
X93765714Y-48084047D02*
X93641904Y-48084047D01*
X93580000Y-48115000D01*
X93518095Y-48176904D01*
X93487142Y-48300714D01*
X93487142Y-48517380D01*
X93518095Y-48641190D01*
X93580000Y-48703095D01*
X93641904Y-48734047D01*
X93765714Y-48734047D01*
X93827619Y-48703095D01*
X93889523Y-48641190D01*
X93920476Y-48517380D01*
X93920476Y-48300714D01*
X93889523Y-48176904D01*
X93827619Y-48115000D01*
X93765714Y-48084047D01*
X93301428Y-48084047D02*
X92930000Y-48084047D01*
X93115714Y-48734047D02*
X93115714Y-48084047D01*
X92589523Y-48084047D02*
X92465714Y-48084047D01*
X92403809Y-48115000D01*
X92341904Y-48176904D01*
X92310952Y-48300714D01*
X92310952Y-48517380D01*
X92341904Y-48641190D01*
X92403809Y-48703095D01*
X92465714Y-48734047D01*
X92589523Y-48734047D01*
X92651428Y-48703095D01*
X92713333Y-48641190D01*
X92744285Y-48517380D01*
X92744285Y-48300714D01*
X92713333Y-48176904D01*
X92651428Y-48115000D01*
X92589523Y-48084047D01*
X91660952Y-48734047D02*
X91877619Y-48424523D01*
X92032380Y-48734047D02*
X92032380Y-48084047D01*
X91784761Y-48084047D01*
X91722857Y-48115000D01*
X91691904Y-48145952D01*
X91660952Y-48207857D01*
X91660952Y-48300714D01*
X91691904Y-48362619D01*
X91722857Y-48393571D01*
X91784761Y-48424523D01*
X92032380Y-48424523D01*
X91413333Y-48145952D02*
X91382380Y-48115000D01*
X91320476Y-48084047D01*
X91165714Y-48084047D01*
X91103809Y-48115000D01*
X91072857Y-48145952D01*
X91041904Y-48207857D01*
X91041904Y-48269761D01*
X91072857Y-48362619D01*
X91444285Y-48734047D01*
X91041904Y-48734047D01*
X90051428Y-48393571D02*
X89958571Y-48424523D01*
X89927619Y-48455476D01*
X89896666Y-48517380D01*
X89896666Y-48610238D01*
X89927619Y-48672142D01*
X89958571Y-48703095D01*
X90020476Y-48734047D01*
X90268095Y-48734047D01*
X90268095Y-48084047D01*
X90051428Y-48084047D01*
X89989523Y-48115000D01*
X89958571Y-48145952D01*
X89927619Y-48207857D01*
X89927619Y-48269761D01*
X89958571Y-48331666D01*
X89989523Y-48362619D01*
X90051428Y-48393571D01*
X90268095Y-48393571D01*
X39674404Y-49234047D02*
X39674404Y-49760238D01*
X39643452Y-49822142D01*
X39612500Y-49853095D01*
X39550595Y-49884047D01*
X39426785Y-49884047D01*
X39364881Y-49853095D01*
X39333928Y-49822142D01*
X39302976Y-49760238D01*
X39302976Y-49234047D01*
X39024404Y-49853095D02*
X38931547Y-49884047D01*
X38776785Y-49884047D01*
X38714881Y-49853095D01*
X38683928Y-49822142D01*
X38652976Y-49760238D01*
X38652976Y-49698333D01*
X38683928Y-49636428D01*
X38714881Y-49605476D01*
X38776785Y-49574523D01*
X38900595Y-49543571D01*
X38962500Y-49512619D01*
X38993452Y-49481666D01*
X39024404Y-49419761D01*
X39024404Y-49357857D01*
X38993452Y-49295952D01*
X38962500Y-49265000D01*
X38900595Y-49234047D01*
X38745833Y-49234047D01*
X38652976Y-49265000D01*
X38157738Y-49543571D02*
X38064881Y-49574523D01*
X38033928Y-49605476D01*
X38002976Y-49667380D01*
X38002976Y-49760238D01*
X38033928Y-49822142D01*
X38064881Y-49853095D01*
X38126785Y-49884047D01*
X38374404Y-49884047D01*
X38374404Y-49234047D01*
X38157738Y-49234047D01*
X38095833Y-49265000D01*
X38064881Y-49295952D01*
X38033928Y-49357857D01*
X38033928Y-49419761D01*
X38064881Y-49481666D01*
X38095833Y-49512619D01*
X38157738Y-49543571D01*
X38374404Y-49543571D01*
X37383928Y-49884047D02*
X37755357Y-49884047D01*
X37569643Y-49884047D02*
X37569643Y-49234047D01*
X37631547Y-49326904D01*
X37693452Y-49388809D01*
X37755357Y-49419761D01*
X36610119Y-49884047D02*
X36610119Y-49234047D01*
X36455357Y-49234047D01*
X36362500Y-49265000D01*
X36300595Y-49326904D01*
X36269643Y-49388809D01*
X36238690Y-49512619D01*
X36238690Y-49605476D01*
X36269643Y-49729285D01*
X36300595Y-49791190D01*
X36362500Y-49853095D01*
X36455357Y-49884047D01*
X36610119Y-49884047D01*
X35960119Y-49636428D02*
X35464881Y-49636428D01*
X35712500Y-49884047D02*
X35712500Y-49388809D01*
X43585476Y-99364047D02*
X43802142Y-99054523D01*
X43956904Y-99364047D02*
X43956904Y-98714047D01*
X43709285Y-98714047D01*
X43647380Y-98745000D01*
X43616428Y-98775952D01*
X43585476Y-98837857D01*
X43585476Y-98930714D01*
X43616428Y-98992619D01*
X43647380Y-99023571D01*
X43709285Y-99054523D01*
X43956904Y-99054523D01*
X43306904Y-99364047D02*
X43306904Y-98714047D01*
X43059285Y-98714047D01*
X42997380Y-98745000D01*
X42966428Y-98775952D01*
X42935476Y-98837857D01*
X42935476Y-98930714D01*
X42966428Y-98992619D01*
X42997380Y-99023571D01*
X43059285Y-99054523D01*
X43306904Y-99054523D01*
X42687857Y-98775952D02*
X42656904Y-98745000D01*
X42595000Y-98714047D01*
X42440238Y-98714047D01*
X42378333Y-98745000D01*
X42347380Y-98775952D01*
X42316428Y-98837857D01*
X42316428Y-98899761D01*
X42347380Y-98992619D01*
X42718809Y-99364047D01*
X42316428Y-99364047D01*
X41914047Y-98714047D02*
X41852142Y-98714047D01*
X41790238Y-98745000D01*
X41759285Y-98775952D01*
X41728333Y-98837857D01*
X41697380Y-98961666D01*
X41697380Y-99116428D01*
X41728333Y-99240238D01*
X41759285Y-99302142D01*
X41790238Y-99333095D01*
X41852142Y-99364047D01*
X41914047Y-99364047D01*
X41975952Y-99333095D01*
X42006904Y-99302142D01*
X42037857Y-99240238D01*
X42068809Y-99116428D01*
X42068809Y-98961666D01*
X42037857Y-98837857D01*
X42006904Y-98775952D01*
X41975952Y-98745000D01*
X41914047Y-98714047D01*
X41140238Y-98930714D02*
X41140238Y-99364047D01*
X41295000Y-98683095D02*
X41449761Y-99147380D01*
X41047380Y-99147380D01*
X40675952Y-98714047D02*
X40614047Y-98714047D01*
X40552142Y-98745000D01*
X40521190Y-98775952D01*
X40490238Y-98837857D01*
X40459285Y-98961666D01*
X40459285Y-99116428D01*
X40490238Y-99240238D01*
X40521190Y-99302142D01*
X40552142Y-99333095D01*
X40614047Y-99364047D01*
X40675952Y-99364047D01*
X40737857Y-99333095D01*
X40768809Y-99302142D01*
X40799761Y-99240238D01*
X40830714Y-99116428D01*
X40830714Y-98961666D01*
X40799761Y-98837857D01*
X40768809Y-98775952D01*
X40737857Y-98745000D01*
X40675952Y-98714047D01*
X39314047Y-99364047D02*
X39530714Y-99054523D01*
X39685476Y-99364047D02*
X39685476Y-98714047D01*
X39437857Y-98714047D01*
X39375952Y-98745000D01*
X39345000Y-98775952D01*
X39314047Y-98837857D01*
X39314047Y-98930714D01*
X39345000Y-98992619D01*
X39375952Y-99023571D01*
X39437857Y-99054523D01*
X39685476Y-99054523D01*
X39035476Y-98714047D02*
X39035476Y-99240238D01*
X39004523Y-99302142D01*
X38973571Y-99333095D01*
X38911666Y-99364047D01*
X38787857Y-99364047D01*
X38725952Y-99333095D01*
X38695000Y-99302142D01*
X38664047Y-99240238D01*
X38664047Y-98714047D01*
X38354523Y-99364047D02*
X38354523Y-98714047D01*
X37983095Y-99364047D01*
X37983095Y-98714047D01*
X93260761Y-46625000D02*
X93322666Y-46594047D01*
X93415523Y-46594047D01*
X93508380Y-46625000D01*
X93570285Y-46686904D01*
X93601238Y-46748809D01*
X93632190Y-46872619D01*
X93632190Y-46965476D01*
X93601238Y-47089285D01*
X93570285Y-47151190D01*
X93508380Y-47213095D01*
X93415523Y-47244047D01*
X93353619Y-47244047D01*
X93260761Y-47213095D01*
X93229809Y-47182142D01*
X93229809Y-46965476D01*
X93353619Y-46965476D01*
X92951238Y-47244047D02*
X92951238Y-46594047D01*
X92703619Y-46594047D01*
X92641714Y-46625000D01*
X92610761Y-46655952D01*
X92579809Y-46717857D01*
X92579809Y-46810714D01*
X92610761Y-46872619D01*
X92641714Y-46903571D01*
X92703619Y-46934523D01*
X92951238Y-46934523D01*
X92177428Y-46594047D02*
X92053619Y-46594047D01*
X91991714Y-46625000D01*
X91929809Y-46686904D01*
X91898857Y-46810714D01*
X91898857Y-47027380D01*
X91929809Y-47151190D01*
X91991714Y-47213095D01*
X92053619Y-47244047D01*
X92177428Y-47244047D01*
X92239333Y-47213095D01*
X92301238Y-47151190D01*
X92332190Y-47027380D01*
X92332190Y-46810714D01*
X92301238Y-46686904D01*
X92239333Y-46625000D01*
X92177428Y-46594047D01*
X91682190Y-46594047D02*
X91279809Y-46594047D01*
X91496476Y-46841666D01*
X91403619Y-46841666D01*
X91341714Y-46872619D01*
X91310761Y-46903571D01*
X91279809Y-46965476D01*
X91279809Y-47120238D01*
X91310761Y-47182142D01*
X91341714Y-47213095D01*
X91403619Y-47244047D01*
X91589333Y-47244047D01*
X91651238Y-47213095D01*
X91682190Y-47182142D01*
X55195952Y-51212142D02*
X55226904Y-51243095D01*
X55319761Y-51274047D01*
X55381666Y-51274047D01*
X55474523Y-51243095D01*
X55536428Y-51181190D01*
X55567380Y-51119285D01*
X55598333Y-50995476D01*
X55598333Y-50902619D01*
X55567380Y-50778809D01*
X55536428Y-50716904D01*
X55474523Y-50655000D01*
X55381666Y-50624047D01*
X55319761Y-50624047D01*
X55226904Y-50655000D01*
X55195952Y-50685952D01*
X54948333Y-51088333D02*
X54638809Y-51088333D01*
X55010238Y-51274047D02*
X54793571Y-50624047D01*
X54576904Y-51274047D01*
X54360238Y-51274047D02*
X54360238Y-50624047D01*
X53988809Y-51274047D01*
X53988809Y-50624047D01*
X53184047Y-51274047D02*
X53184047Y-50624047D01*
X53184047Y-50933571D02*
X52812619Y-50933571D01*
X52812619Y-51274047D02*
X52812619Y-50624047D01*
X42593273Y-49853095D02*
X42500416Y-49884047D01*
X42345654Y-49884047D01*
X42283749Y-49853095D01*
X42252797Y-49822142D01*
X42221845Y-49760238D01*
X42221845Y-49698333D01*
X42252797Y-49636428D01*
X42283749Y-49605476D01*
X42345654Y-49574523D01*
X42469464Y-49543571D01*
X42531368Y-49512619D01*
X42562321Y-49481666D01*
X42593273Y-49419761D01*
X42593273Y-49357857D01*
X42562321Y-49295952D01*
X42531368Y-49265000D01*
X42469464Y-49234047D01*
X42314702Y-49234047D01*
X42221845Y-49265000D01*
X41943273Y-49884047D02*
X41943273Y-49234047D01*
X41788511Y-49234047D01*
X41695654Y-49265000D01*
X41633749Y-49326904D01*
X41602797Y-49388809D01*
X41571845Y-49512619D01*
X41571845Y-49605476D01*
X41602797Y-49729285D01*
X41633749Y-49791190D01*
X41695654Y-49853095D01*
X41788511Y-49884047D01*
X41943273Y-49884047D01*
X41324226Y-49698333D02*
X41014702Y-49698333D01*
X41386130Y-49884047D02*
X41169464Y-49234047D01*
X40952797Y-49884047D01*
X107035952Y-49784047D02*
X107035952Y-49134047D01*
X106819285Y-49598333D01*
X106602619Y-49134047D01*
X106602619Y-49784047D01*
X106169285Y-49134047D02*
X106045476Y-49134047D01*
X105983571Y-49165000D01*
X105921666Y-49226904D01*
X105890714Y-49350714D01*
X105890714Y-49567380D01*
X105921666Y-49691190D01*
X105983571Y-49753095D01*
X106045476Y-49784047D01*
X106169285Y-49784047D01*
X106231190Y-49753095D01*
X106293095Y-49691190D01*
X106324047Y-49567380D01*
X106324047Y-49350714D01*
X106293095Y-49226904D01*
X106231190Y-49165000D01*
X106169285Y-49134047D01*
X105705000Y-49134047D02*
X105333571Y-49134047D01*
X105519285Y-49784047D02*
X105519285Y-49134047D01*
X104993095Y-49134047D02*
X104869285Y-49134047D01*
X104807380Y-49165000D01*
X104745476Y-49226904D01*
X104714523Y-49350714D01*
X104714523Y-49567380D01*
X104745476Y-49691190D01*
X104807380Y-49753095D01*
X104869285Y-49784047D01*
X104993095Y-49784047D01*
X105055000Y-49753095D01*
X105116904Y-49691190D01*
X105147857Y-49567380D01*
X105147857Y-49350714D01*
X105116904Y-49226904D01*
X105055000Y-49165000D01*
X104993095Y-49134047D01*
X104064523Y-49784047D02*
X104281190Y-49474523D01*
X104435952Y-49784047D02*
X104435952Y-49134047D01*
X104188333Y-49134047D01*
X104126428Y-49165000D01*
X104095476Y-49195952D01*
X104064523Y-49257857D01*
X104064523Y-49350714D01*
X104095476Y-49412619D01*
X104126428Y-49443571D01*
X104188333Y-49474523D01*
X104435952Y-49474523D01*
X103445476Y-49784047D02*
X103816904Y-49784047D01*
X103631190Y-49784047D02*
X103631190Y-49134047D01*
X103693095Y-49226904D01*
X103755000Y-49288809D01*
X103816904Y-49319761D01*
X102702619Y-49598333D02*
X102393095Y-49598333D01*
X102764523Y-49784047D02*
X102547857Y-49134047D01*
X102331190Y-49784047D01*
X28981666Y-52774047D02*
X28610238Y-52774047D01*
X28795952Y-53424047D02*
X28795952Y-52774047D01*
X28486428Y-52774047D02*
X28115000Y-52774047D01*
X28300714Y-53424047D02*
X28300714Y-52774047D01*
X27588809Y-53424047D02*
X27898333Y-53424047D01*
X27898333Y-52774047D01*
X26938809Y-52774047D02*
X26536428Y-52774047D01*
X26753095Y-53021666D01*
X26660238Y-53021666D01*
X26598333Y-53052619D01*
X26567380Y-53083571D01*
X26536428Y-53145476D01*
X26536428Y-53300238D01*
X26567380Y-53362142D01*
X26598333Y-53393095D01*
X26660238Y-53424047D01*
X26845952Y-53424047D01*
X26907857Y-53393095D01*
X26938809Y-53362142D01*
X26350714Y-52774047D02*
X26134047Y-53424047D01*
X25917380Y-52774047D01*
X25762619Y-52774047D02*
X25360238Y-52774047D01*
X25576904Y-53021666D01*
X25484047Y-53021666D01*
X25422142Y-53052619D01*
X25391190Y-53083571D01*
X25360238Y-53145476D01*
X25360238Y-53300238D01*
X25391190Y-53362142D01*
X25422142Y-53393095D01*
X25484047Y-53424047D01*
X25669761Y-53424047D01*
X25731666Y-53393095D01*
X25762619Y-53362142D01*
X55038571Y-44822142D02*
X55069523Y-44853095D01*
X55162380Y-44884047D01*
X55224285Y-44884047D01*
X55317142Y-44853095D01*
X55379047Y-44791190D01*
X55410000Y-44729285D01*
X55440952Y-44605476D01*
X55440952Y-44512619D01*
X55410000Y-44388809D01*
X55379047Y-44326904D01*
X55317142Y-44265000D01*
X55224285Y-44234047D01*
X55162380Y-44234047D01*
X55069523Y-44265000D01*
X55038571Y-44295952D01*
X54790952Y-44698333D02*
X54481428Y-44698333D01*
X54852857Y-44884047D02*
X54636190Y-44234047D01*
X54419523Y-44884047D01*
X54202857Y-44884047D02*
X54202857Y-44234047D01*
X53831428Y-44884047D01*
X53831428Y-44234047D01*
X52717142Y-44884047D02*
X53026666Y-44884047D01*
X53026666Y-44234047D01*
X46310714Y-49984047D02*
X46527381Y-49674523D01*
X46682142Y-49984047D02*
X46682142Y-49334047D01*
X46434523Y-49334047D01*
X46372619Y-49365000D01*
X46341666Y-49395952D01*
X46310714Y-49457857D01*
X46310714Y-49550714D01*
X46341666Y-49612619D01*
X46372619Y-49643571D01*
X46434523Y-49674523D01*
X46682142Y-49674523D01*
X46094047Y-49334047D02*
X45660714Y-49984047D01*
X45660714Y-49334047D02*
X46094047Y-49984047D01*
X45413095Y-49984047D02*
X45413095Y-49334047D01*
X45258333Y-49334047D01*
X45165476Y-49365000D01*
X45103571Y-49426904D01*
X45072619Y-49488809D01*
X45041666Y-49612619D01*
X45041666Y-49705476D01*
X45072619Y-49829285D01*
X45103571Y-49891190D01*
X45165476Y-49953095D01*
X45258333Y-49984047D01*
X45413095Y-49984047D01*
X29691904Y-46614047D02*
X29289523Y-46614047D01*
X29506190Y-46861666D01*
X29413333Y-46861666D01*
X29351428Y-46892619D01*
X29320476Y-46923571D01*
X29289523Y-46985476D01*
X29289523Y-47140238D01*
X29320476Y-47202142D01*
X29351428Y-47233095D01*
X29413333Y-47264047D01*
X29599047Y-47264047D01*
X29660952Y-47233095D01*
X29691904Y-47202142D01*
X29103809Y-46614047D02*
X28887143Y-47264047D01*
X28670476Y-46614047D01*
X28515714Y-46614047D02*
X28113333Y-46614047D01*
X28330000Y-46861666D01*
X28237143Y-46861666D01*
X28175238Y-46892619D01*
X28144285Y-46923571D01*
X28113333Y-46985476D01*
X28113333Y-47140238D01*
X28144285Y-47202142D01*
X28175238Y-47233095D01*
X28237143Y-47264047D01*
X28422857Y-47264047D01*
X28484762Y-47233095D01*
X28515714Y-47202142D01*
X89062761Y-46625000D02*
X89124666Y-46594047D01*
X89217523Y-46594047D01*
X89310380Y-46625000D01*
X89372285Y-46686904D01*
X89403238Y-46748809D01*
X89434190Y-46872619D01*
X89434190Y-46965476D01*
X89403238Y-47089285D01*
X89372285Y-47151190D01*
X89310380Y-47213095D01*
X89217523Y-47244047D01*
X89155619Y-47244047D01*
X89062761Y-47213095D01*
X89031809Y-47182142D01*
X89031809Y-46965476D01*
X89155619Y-46965476D01*
X88753238Y-47244047D02*
X88753238Y-46594047D01*
X88505619Y-46594047D01*
X88443714Y-46625000D01*
X88412761Y-46655952D01*
X88381809Y-46717857D01*
X88381809Y-46810714D01*
X88412761Y-46872619D01*
X88443714Y-46903571D01*
X88505619Y-46934523D01*
X88753238Y-46934523D01*
X87979428Y-46594047D02*
X87855619Y-46594047D01*
X87793714Y-46625000D01*
X87731809Y-46686904D01*
X87700857Y-46810714D01*
X87700857Y-47027380D01*
X87731809Y-47151190D01*
X87793714Y-47213095D01*
X87855619Y-47244047D01*
X87979428Y-47244047D01*
X88041333Y-47213095D01*
X88103238Y-47151190D01*
X88134190Y-47027380D01*
X88134190Y-46810714D01*
X88103238Y-46686904D01*
X88041333Y-46625000D01*
X87979428Y-46594047D01*
X87453238Y-46655952D02*
X87422285Y-46625000D01*
X87360380Y-46594047D01*
X87205619Y-46594047D01*
X87143714Y-46625000D01*
X87112761Y-46655952D01*
X87081809Y-46717857D01*
X87081809Y-46779761D01*
X87112761Y-46872619D01*
X87484190Y-47244047D01*
X87081809Y-47244047D01*
X105854761Y-46625000D02*
X105916666Y-46594047D01*
X106009523Y-46594047D01*
X106102380Y-46625000D01*
X106164285Y-46686904D01*
X106195238Y-46748809D01*
X106226190Y-46872619D01*
X106226190Y-46965476D01*
X106195238Y-47089285D01*
X106164285Y-47151190D01*
X106102380Y-47213095D01*
X106009523Y-47244047D01*
X105947619Y-47244047D01*
X105854761Y-47213095D01*
X105823809Y-47182142D01*
X105823809Y-46965476D01*
X105947619Y-46965476D01*
X105545238Y-47244047D02*
X105545238Y-46594047D01*
X105297619Y-46594047D01*
X105235714Y-46625000D01*
X105204761Y-46655952D01*
X105173809Y-46717857D01*
X105173809Y-46810714D01*
X105204761Y-46872619D01*
X105235714Y-46903571D01*
X105297619Y-46934523D01*
X105545238Y-46934523D01*
X104771428Y-46594047D02*
X104647619Y-46594047D01*
X104585714Y-46625000D01*
X104523809Y-46686904D01*
X104492857Y-46810714D01*
X104492857Y-47027380D01*
X104523809Y-47151190D01*
X104585714Y-47213095D01*
X104647619Y-47244047D01*
X104771428Y-47244047D01*
X104833333Y-47213095D01*
X104895238Y-47151190D01*
X104926190Y-47027380D01*
X104926190Y-46810714D01*
X104895238Y-46686904D01*
X104833333Y-46625000D01*
X104771428Y-46594047D01*
X103935714Y-46594047D02*
X104059523Y-46594047D01*
X104121428Y-46625000D01*
X104152380Y-46655952D01*
X104214285Y-46748809D01*
X104245238Y-46872619D01*
X104245238Y-47120238D01*
X104214285Y-47182142D01*
X104183333Y-47213095D01*
X104121428Y-47244047D01*
X103997619Y-47244047D01*
X103935714Y-47213095D01*
X103904761Y-47182142D01*
X103873809Y-47120238D01*
X103873809Y-46965476D01*
X103904761Y-46903571D01*
X103935714Y-46872619D01*
X103997619Y-46841666D01*
X104121428Y-46841666D01*
X104183333Y-46872619D01*
X104214285Y-46903571D01*
X104245238Y-46965476D01*
X97458761Y-46625000D02*
X97520666Y-46594047D01*
X97613523Y-46594047D01*
X97706380Y-46625000D01*
X97768285Y-46686904D01*
X97799238Y-46748809D01*
X97830190Y-46872619D01*
X97830190Y-46965476D01*
X97799238Y-47089285D01*
X97768285Y-47151190D01*
X97706380Y-47213095D01*
X97613523Y-47244047D01*
X97551619Y-47244047D01*
X97458761Y-47213095D01*
X97427809Y-47182142D01*
X97427809Y-46965476D01*
X97551619Y-46965476D01*
X97149238Y-47244047D02*
X97149238Y-46594047D01*
X96901619Y-46594047D01*
X96839714Y-46625000D01*
X96808761Y-46655952D01*
X96777809Y-46717857D01*
X96777809Y-46810714D01*
X96808761Y-46872619D01*
X96839714Y-46903571D01*
X96901619Y-46934523D01*
X97149238Y-46934523D01*
X96375428Y-46594047D02*
X96251619Y-46594047D01*
X96189714Y-46625000D01*
X96127809Y-46686904D01*
X96096857Y-46810714D01*
X96096857Y-47027380D01*
X96127809Y-47151190D01*
X96189714Y-47213095D01*
X96251619Y-47244047D01*
X96375428Y-47244047D01*
X96437333Y-47213095D01*
X96499238Y-47151190D01*
X96530190Y-47027380D01*
X96530190Y-46810714D01*
X96499238Y-46686904D01*
X96437333Y-46625000D01*
X96375428Y-46594047D01*
X95539714Y-46810714D02*
X95539714Y-47244047D01*
X95694476Y-46563095D02*
X95849238Y-47027380D01*
X95446857Y-47027380D01*
X47657857Y-99242142D02*
X47688809Y-99273095D01*
X47781666Y-99304047D01*
X47843571Y-99304047D01*
X47936428Y-99273095D01*
X47998333Y-99211190D01*
X48029285Y-99149285D01*
X48060238Y-99025476D01*
X48060238Y-98932619D01*
X48029285Y-98808809D01*
X47998333Y-98746904D01*
X47936428Y-98685000D01*
X47843571Y-98654047D01*
X47781666Y-98654047D01*
X47688809Y-98685000D01*
X47657857Y-98715952D01*
X47410238Y-99273095D02*
X47317380Y-99304047D01*
X47162619Y-99304047D01*
X47100714Y-99273095D01*
X47069761Y-99242142D01*
X47038809Y-99180238D01*
X47038809Y-99118333D01*
X47069761Y-99056428D01*
X47100714Y-99025476D01*
X47162619Y-98994523D01*
X47286428Y-98963571D01*
X47348333Y-98932619D01*
X47379285Y-98901666D01*
X47410238Y-98839761D01*
X47410238Y-98777857D01*
X47379285Y-98715952D01*
X47348333Y-98685000D01*
X47286428Y-98654047D01*
X47131666Y-98654047D01*
X47038809Y-98685000D01*
X46791190Y-98715952D02*
X46760238Y-98685000D01*
X46698333Y-98654047D01*
X46543571Y-98654047D01*
X46481666Y-98685000D01*
X46450714Y-98715952D01*
X46419761Y-98777857D01*
X46419761Y-98839761D01*
X46450714Y-98932619D01*
X46822142Y-99304047D01*
X46419761Y-99304047D01*
X82111428Y-98664047D02*
X82111428Y-98014047D01*
X81894761Y-98478333D01*
X81678095Y-98014047D01*
X81678095Y-98664047D01*
X81244761Y-98014047D02*
X81120952Y-98014047D01*
X81059047Y-98045000D01*
X80997142Y-98106904D01*
X80966190Y-98230714D01*
X80966190Y-98447380D01*
X80997142Y-98571190D01*
X81059047Y-98633095D01*
X81120952Y-98664047D01*
X81244761Y-98664047D01*
X81306666Y-98633095D01*
X81368571Y-98571190D01*
X81399523Y-98447380D01*
X81399523Y-98230714D01*
X81368571Y-98106904D01*
X81306666Y-98045000D01*
X81244761Y-98014047D01*
X80718571Y-98633095D02*
X80625714Y-98664047D01*
X80470952Y-98664047D01*
X80409047Y-98633095D01*
X80378095Y-98602142D01*
X80347142Y-98540238D01*
X80347142Y-98478333D01*
X80378095Y-98416428D01*
X80409047Y-98385476D01*
X80470952Y-98354523D01*
X80594761Y-98323571D01*
X80656666Y-98292619D01*
X80687619Y-98261666D01*
X80718571Y-98199761D01*
X80718571Y-98137857D01*
X80687619Y-98075952D01*
X80656666Y-98045000D01*
X80594761Y-98014047D01*
X80440000Y-98014047D01*
X80347142Y-98045000D01*
X80068571Y-98664047D02*
X80068571Y-98014047D01*
X82111428Y-95184047D02*
X82111428Y-94534047D01*
X81894761Y-94998333D01*
X81678095Y-94534047D01*
X81678095Y-95184047D01*
X81368571Y-95184047D02*
X81368571Y-94534047D01*
X81090000Y-95153095D02*
X80997142Y-95184047D01*
X80842380Y-95184047D01*
X80780476Y-95153095D01*
X80749523Y-95122142D01*
X80718571Y-95060238D01*
X80718571Y-94998333D01*
X80749523Y-94936428D01*
X80780476Y-94905476D01*
X80842380Y-94874523D01*
X80966190Y-94843571D01*
X81028095Y-94812619D01*
X81059047Y-94781666D01*
X81090000Y-94719761D01*
X81090000Y-94657857D01*
X81059047Y-94595952D01*
X81028095Y-94565000D01*
X80966190Y-94534047D01*
X80811428Y-94534047D01*
X80718571Y-94565000D01*
X80316190Y-94534047D02*
X80192380Y-94534047D01*
X80130476Y-94565000D01*
X80068571Y-94626904D01*
X80037619Y-94750714D01*
X80037619Y-94967380D01*
X80068571Y-95091190D01*
X80130476Y-95153095D01*
X80192380Y-95184047D01*
X80316190Y-95184047D01*
X80378095Y-95153095D01*
X80440000Y-95091190D01*
X80470952Y-94967380D01*
X80470952Y-94750714D01*
X80440000Y-94626904D01*
X80378095Y-94565000D01*
X80316190Y-94534047D01*
X81275714Y-100342142D02*
X81306666Y-100373095D01*
X81399523Y-100404047D01*
X81461428Y-100404047D01*
X81554285Y-100373095D01*
X81616190Y-100311190D01*
X81647142Y-100249285D01*
X81678095Y-100125476D01*
X81678095Y-100032619D01*
X81647142Y-99908809D01*
X81616190Y-99846904D01*
X81554285Y-99785000D01*
X81461428Y-99754047D01*
X81399523Y-99754047D01*
X81306666Y-99785000D01*
X81275714Y-99815952D01*
X81028095Y-100373095D02*
X80935237Y-100404047D01*
X80780476Y-100404047D01*
X80718571Y-100373095D01*
X80687618Y-100342142D01*
X80656666Y-100280238D01*
X80656666Y-100218333D01*
X80687618Y-100156428D01*
X80718571Y-100125476D01*
X80780476Y-100094523D01*
X80904285Y-100063571D01*
X80966190Y-100032619D01*
X80997142Y-100001666D01*
X81028095Y-99939761D01*
X81028095Y-99877857D01*
X80997142Y-99815952D01*
X80966190Y-99785000D01*
X80904285Y-99754047D01*
X80749523Y-99754047D01*
X80656666Y-99785000D01*
X80254285Y-99754047D02*
X80192380Y-99754047D01*
X80130476Y-99785000D01*
X80099523Y-99815952D01*
X80068571Y-99877857D01*
X80037618Y-100001666D01*
X80037618Y-100156428D01*
X80068571Y-100280238D01*
X80099523Y-100342142D01*
X80130476Y-100373095D01*
X80192380Y-100404047D01*
X80254285Y-100404047D01*
X80316190Y-100373095D01*
X80347142Y-100342142D01*
X80378095Y-100280238D01*
X80409047Y-100156428D01*
X80409047Y-100001666D01*
X80378095Y-99877857D01*
X80347142Y-99815952D01*
X80316190Y-99785000D01*
X80254285Y-99754047D01*
X29475238Y-49325000D02*
X29537142Y-49294047D01*
X29630000Y-49294047D01*
X29722857Y-49325000D01*
X29784761Y-49386904D01*
X29815714Y-49448809D01*
X29846666Y-49572619D01*
X29846666Y-49665476D01*
X29815714Y-49789285D01*
X29784761Y-49851190D01*
X29722857Y-49913095D01*
X29630000Y-49944047D01*
X29568095Y-49944047D01*
X29475238Y-49913095D01*
X29444285Y-49882142D01*
X29444285Y-49665476D01*
X29568095Y-49665476D01*
X29165714Y-49944047D02*
X29165714Y-49294047D01*
X28794285Y-49944047D01*
X28794285Y-49294047D01*
X28484761Y-49944047D02*
X28484761Y-49294047D01*
X28330000Y-49294047D01*
X28237142Y-49325000D01*
X28175238Y-49386904D01*
X28144285Y-49448809D01*
X28113333Y-49572619D01*
X28113333Y-49665476D01*
X28144285Y-49789285D01*
X28175238Y-49851190D01*
X28237142Y-49913095D01*
X28330000Y-49944047D01*
X28484761Y-49944047D01*
D10*
%TO.C,TP10*%
X64060000Y-118270000D02*
G75*
G03*
X64060000Y-118270000I-700000J0D01*
G01*
%TO.C,TP6*%
X79710000Y-94940000D02*
G75*
G03*
X79710000Y-94940000I-700000J0D01*
G01*
%TO.C,TP5*%
X79710000Y-98320000D02*
G75*
G03*
X79710000Y-98320000I-700000J0D01*
G01*
%TO.C,TP12*%
X44220000Y-100300000D02*
G75*
G03*
X44220000Y-100300000I-700000J0D01*
G01*
%TO.C,TP11*%
X48270000Y-100300000D02*
G75*
G03*
X48270000Y-100300000I-700000J0D01*
G01*
%TO.C,TP8*%
X79710000Y-96630000D02*
G75*
G03*
X79710000Y-96630000I-700000J0D01*
G01*
%TO.C,TP9*%
X79710000Y-100010000D02*
G75*
G03*
X79710000Y-100010000I-700000J0D01*
G01*
%TD*%
%LPC*%
D12*
%TO.C,TC3*%
X42570000Y-78700000D03*
X43586000Y-83780000D03*
X41554000Y-83780000D03*
%TD*%
D13*
%TO.C,J6*%
X26850000Y-126890000D03*
D14*
X26850000Y-128160000D03*
X26850000Y-129430000D03*
X26850000Y-130700000D03*
X26850000Y-131970000D03*
X26850000Y-133240000D03*
%TD*%
D12*
%TO.C,TC4*%
X34140000Y-121754000D03*
X34140000Y-123786000D03*
X29060000Y-122770000D03*
%TD*%
D15*
%TO.C,J4*%
X84025000Y-45040000D03*
D16*
X88215000Y-45040000D03*
X92405000Y-45040000D03*
X96595000Y-45040000D03*
X100785000Y-45040000D03*
X104975000Y-45040000D03*
X104975000Y-51390000D03*
X100785000Y-51390000D03*
X96595000Y-51390000D03*
X92405000Y-51390000D03*
X88215000Y-51390000D03*
X84025000Y-51390000D03*
D15*
X49975000Y-51390000D03*
D16*
X45785000Y-51390000D03*
X41595000Y-51390000D03*
X37405000Y-51390000D03*
X33215000Y-51390000D03*
X29025000Y-51390000D03*
X29025000Y-45040000D03*
X33215000Y-45040000D03*
X37405000Y-45040000D03*
X41595000Y-45040000D03*
X45785000Y-45040000D03*
X49975000Y-45040000D03*
%TD*%
D17*
%TO.C,H1*%
X67000000Y-74000000D03*
%TD*%
D13*
%TO.C,J8*%
X26830000Y-117410000D03*
D14*
X26830000Y-118680000D03*
X26830000Y-119950000D03*
X26830000Y-121220000D03*
X26830000Y-122490000D03*
X26830000Y-123760000D03*
%TD*%
D12*
%TO.C,TC2*%
X29060000Y-130986000D03*
X34140000Y-129970000D03*
X29060000Y-128954000D03*
%TD*%
D18*
%TO.C,J5*%
X104430000Y-86190000D03*
D19*
X104430000Y-88730000D03*
X104430000Y-91270000D03*
X104430000Y-93810000D03*
X104430000Y-96350000D03*
X104430000Y-98890000D03*
X104430000Y-101430000D03*
X104430000Y-103970000D03*
X104430000Y-106510000D03*
X104430000Y-109050000D03*
%TD*%
D20*
%TO.C,TP10*%
X63360000Y-118270000D03*
%TD*%
%TO.C,TP6*%
X79010000Y-94940000D03*
%TD*%
%TO.C,TP5*%
X79010000Y-98320000D03*
%TD*%
%TO.C,TP12*%
X43520000Y-100300000D03*
%TD*%
%TO.C,TP11*%
X47570000Y-100300000D03*
%TD*%
%TO.C,TP8*%
X79010000Y-96630000D03*
%TD*%
%TO.C,TP9*%
X79010000Y-100010000D03*
%TD*%
M02*
