%TF.GenerationSoftware,KiCad,Pcbnew,(6.0.2)*%
%TF.CreationDate,2022-06-02T13:11:00-06:00*%
%TF.ProjectId,RGB-controller,5247422d-636f-46e7-9472-6f6c6c65722e,rev?*%
%TF.SameCoordinates,Original*%
%TF.FileFunction,Copper,L4,Bot*%
%TF.FilePolarity,Positive*%
%FSLAX46Y46*%
G04 Gerber Fmt 4.6, Leading zero omitted, Abs format (unit mm)*
G04 Created by KiCad (PCBNEW (6.0.2)) date 2022-06-02 13:11:00*
%MOMM*%
%LPD*%
G01*
G04 APERTURE LIST*
%TA.AperFunction,EtchedComponent*%
%ADD10C,1.000000*%
%TD*%
%TA.AperFunction,ComponentPad*%
%ADD11R,1.000000X1.000000*%
%TD*%
%TA.AperFunction,ComponentPad*%
%ADD12O,1.000000X1.000000*%
%TD*%
%TA.AperFunction,ComponentPad*%
%ADD13C,1.000000*%
%TD*%
%TA.AperFunction,ComponentPad*%
%ADD14R,0.900000X0.500000*%
%TD*%
%TA.AperFunction,ComponentPad*%
%ADD15C,0.600000*%
%TD*%
%TA.AperFunction,ComponentPad*%
%ADD16R,2.056000X2.056000*%
%TD*%
%TA.AperFunction,ComponentPad*%
%ADD17C,2.056000*%
%TD*%
%TA.AperFunction,ComponentPad*%
%ADD18C,0.500000*%
%TD*%
%TA.AperFunction,SMDPad,CuDef*%
%ADD19R,3.400000X3.400000*%
%TD*%
%TA.AperFunction,SMDPad,CuDef*%
%ADD20R,5.400000X2.850000*%
%TD*%
%TA.AperFunction,ViaPad*%
%ADD21C,0.450000*%
%TD*%
%TA.AperFunction,ViaPad*%
%ADD22C,0.800000*%
%TD*%
%TA.AperFunction,Conductor*%
%ADD23C,0.200000*%
%TD*%
%TA.AperFunction,Conductor*%
%ADD24C,1.000000*%
%TD*%
%TA.AperFunction,Conductor*%
%ADD25C,0.500000*%
%TD*%
%TA.AperFunction,Conductor*%
%ADD26C,0.293370*%
%TD*%
%TA.AperFunction,Conductor*%
%ADD27C,0.305800*%
%TD*%
%TA.AperFunction,Conductor*%
%ADD28C,1.500000*%
%TD*%
G04 APERTURE END LIST*
D10*
%TO.C,AE3*%
X108370000Y-109100000D02*
X107370000Y-110100000D01*
X107370000Y-108100000D02*
X104370000Y-108100000D01*
X107370000Y-110100000D02*
X104370000Y-110100000D01*
X107370000Y-104100000D02*
X104370000Y-104100000D01*
X104370000Y-98100000D02*
X103370000Y-99100000D01*
X104370000Y-114100000D02*
X103370000Y-115100000D01*
X108370000Y-103100000D02*
X107370000Y-104100000D01*
X108370000Y-105100000D02*
X107370000Y-106100000D01*
X104370000Y-112100000D02*
X103370000Y-113100000D01*
X107370000Y-114100000D02*
X104370000Y-114100000D01*
X104370000Y-104100000D02*
X103370000Y-105100000D01*
X108370000Y-99100000D02*
X107370000Y-100100000D01*
X108370000Y-101100000D02*
X107370000Y-102100000D01*
X108370000Y-113100000D02*
X107370000Y-114100000D01*
X104370000Y-108100000D02*
X103370000Y-109100000D01*
X108370000Y-97100000D02*
X107370000Y-98100000D01*
X104370000Y-100100000D02*
X103370000Y-101100000D01*
X104370000Y-110100000D02*
X103370000Y-111100000D01*
X107370000Y-102100000D02*
X104370000Y-102100000D01*
X104370000Y-106100000D02*
X103370000Y-107100000D01*
X104370000Y-102100000D02*
X103370000Y-103100000D01*
X107370000Y-112100000D02*
X104370000Y-112100000D01*
X107370000Y-98100000D02*
X104370000Y-98100000D01*
X108370000Y-107100000D02*
X107370000Y-108100000D01*
X107370000Y-100100000D02*
X104370000Y-100100000D01*
X107370000Y-106100000D02*
X104370000Y-106100000D01*
X108370000Y-111100000D02*
X107370000Y-112100000D01*
%TO.C,AE4*%
X104370000Y-82280000D02*
X103370000Y-81280000D01*
X107370000Y-88280000D02*
X104370000Y-88280000D01*
X108370000Y-91280000D02*
X107370000Y-90280000D01*
X107370000Y-82280000D02*
X104370000Y-82280000D01*
X104370000Y-80280000D02*
X103370000Y-79280000D01*
X107370000Y-94280000D02*
X104370000Y-94280000D01*
X107370000Y-92280000D02*
X104370000Y-92280000D01*
X108370000Y-89280000D02*
X107370000Y-88280000D01*
X108370000Y-87280000D02*
X107370000Y-86280000D01*
X108370000Y-85280000D02*
X107370000Y-84280000D01*
X107370000Y-84280000D02*
X104370000Y-84280000D01*
X104370000Y-84280000D02*
X103370000Y-83280000D01*
X107370000Y-80280000D02*
X104370000Y-80280000D01*
X107370000Y-78280000D02*
X104370000Y-78280000D01*
X107370000Y-86280000D02*
X104370000Y-86280000D01*
X108370000Y-83280000D02*
X107370000Y-82280000D01*
X108370000Y-81280000D02*
X107370000Y-80280000D01*
X104370000Y-86280000D02*
X103370000Y-85280000D01*
X107370000Y-90280000D02*
X104370000Y-90280000D01*
X108370000Y-79280000D02*
X107370000Y-78280000D01*
X108370000Y-95280000D02*
X107370000Y-94280000D01*
X104370000Y-88280000D02*
X103370000Y-87280000D01*
X108370000Y-93280000D02*
X107370000Y-92280000D01*
X104370000Y-90280000D02*
X103370000Y-89280000D01*
X104370000Y-78280000D02*
X103370000Y-77280000D01*
X104370000Y-92280000D02*
X103370000Y-91280000D01*
X104370000Y-94280000D02*
X103370000Y-93280000D01*
%TD*%
D11*
%TO.P,J6,1,Pin_1*%
%TO.N,GND*%
X26000000Y-96070000D03*
D12*
%TO.P,J6,2,Pin_2*%
%TO.N,/ESP32-S3/RXD*%
X26000000Y-97340000D03*
%TO.P,J6,3,Pin_3*%
%TO.N,/ESP32-S3/TXD*%
X26000000Y-98610000D03*
%TO.P,J6,4,Pin_4*%
%TO.N,unconnected-(J6-Pad4)*%
X26000000Y-99880000D03*
%TO.P,J6,5,Pin_5*%
%TO.N,/ESP32-S3/CTS*%
X26000000Y-101150000D03*
%TO.P,J6,6,Pin_6*%
%TO.N,/ESP32-S3/CHIP_PU*%
X26000000Y-102420000D03*
%TD*%
D11*
%TO.P,J5,1,Pin_1*%
%TO.N,+3V3*%
X60155000Y-110850000D03*
D12*
%TO.P,J5,2,Pin_2*%
%TO.N,GND*%
X61425000Y-110850000D03*
%TO.P,J5,3,Pin_3*%
%TO.N,/SCLK*%
X62695000Y-110850000D03*
%TO.P,J5,4,Pin_4*%
%TO.N,/MISO*%
X63965000Y-110850000D03*
%TO.P,J5,5,Pin_5*%
%TO.N,/MOSI*%
X65235000Y-110850000D03*
%TD*%
D13*
%TO.P,AE3,*%
%TO.N,*%
X103370000Y-107100000D03*
X103370000Y-101100000D03*
X108370000Y-115100000D03*
X108370000Y-99100000D03*
X108370000Y-107100000D03*
X108370000Y-101100000D03*
X103370000Y-109100000D03*
X103370000Y-113100000D03*
X108370000Y-113100000D03*
X108370000Y-105100000D03*
X103370000Y-115100000D03*
X108370000Y-103100000D03*
X108370000Y-109100000D03*
X103370000Y-99100000D03*
X103370000Y-103100000D03*
X108370000Y-97100000D03*
X103370000Y-105100000D03*
X103370000Y-111100000D03*
X108370000Y-111100000D03*
%TD*%
D14*
%TO.P,AE2,2,Shield*%
%TO.N,GND*%
X38880000Y-110875000D03*
%TD*%
D15*
%TO.P,U4,57,GND*%
%TO.N,GND*%
X50983122Y-95000000D03*
X49180000Y-96803122D03*
X49180000Y-93196878D03*
X47376878Y-95000000D03*
%TD*%
D16*
%TO.P,J4,A1,A1*%
%TO.N,/Connectors/GPO1*%
X84025000Y-45040000D03*
D17*
%TO.P,J4,A2,A2*%
%TO.N,/Connectors/GPO2*%
X88215000Y-45040000D03*
%TO.P,J4,A3,A3*%
%TO.N,/Connectors/GPO3*%
X92405000Y-45040000D03*
%TO.P,J4,A4,A4*%
%TO.N,/Connectors/LEDA*%
X96595000Y-45040000D03*
%TO.P,J4,A5,A5*%
%TO.N,GND*%
X100785000Y-45040000D03*
%TO.P,J4,A6,A6*%
%TO.N,/Connectors/IGNITION*%
X104975000Y-45040000D03*
%TO.P,J4,A7,A7*%
%TO.N,/Connectors/MOTOR1_OUT1*%
X104975000Y-51390000D03*
%TO.P,J4,A8,A8*%
%TO.N,/Connectors/MOTOR1_OUT2*%
X100785000Y-51390000D03*
%TO.P,J4,A9,A9*%
%TO.N,/Connectors/MOTOR2_OUT1*%
X96595000Y-51390000D03*
%TO.P,J4,A10,A10*%
%TO.N,/Connectors/MOTOR2_OUT2*%
X92405000Y-51390000D03*
%TO.P,J4,A11,A11*%
%TO.N,/Connectors/VOUT*%
X88215000Y-51390000D03*
%TO.P,J4,A12,A12*%
%TO.N,/Connectors/FUSE_IN*%
X84025000Y-51390000D03*
D16*
%TO.P,J4,B1,B1*%
%TO.N,/CAN_P*%
X49975000Y-51390000D03*
D17*
%TO.P,J4,B2,B2*%
%TO.N,/Connectors/GPI2*%
X45785000Y-51390000D03*
%TO.P,J4,B3,B3*%
%TO.N,/Connectors/GPI4*%
X41595000Y-51390000D03*
%TO.P,J4,B4,B4*%
%TO.N,/Connectors/USB_D_P*%
X37405000Y-51390000D03*
%TO.P,J4,B5,B5*%
%TO.N,/Connectors/USB_D_N*%
X33215000Y-51390000D03*
%TO.P,J4,B6,B6*%
%TO.N,GND*%
X29025000Y-51390000D03*
%TO.P,J4,B7,B7*%
%TO.N,unconnected-(J4-PadB7)*%
X29025000Y-45040000D03*
%TO.P,J4,B8,B8*%
%TO.N,unconnected-(J4-PadB8)*%
X33215000Y-45040000D03*
%TO.P,J4,B9,B9*%
%TO.N,unconnected-(J4-PadB9)*%
X37405000Y-45040000D03*
%TO.P,J4,B10,B10*%
%TO.N,/Connectors/GPI3*%
X41595000Y-45040000D03*
%TO.P,J4,B11,B11*%
%TO.N,/Connectors/GPI1*%
X45785000Y-45040000D03*
%TO.P,J4,B12,B12*%
%TO.N,/CAN_N*%
X49975000Y-45040000D03*
%TD*%
D13*
%TO.P,AE4,*%
%TO.N,*%
X103370000Y-93280000D03*
X108370000Y-89280000D03*
X108370000Y-85280000D03*
X108370000Y-77280000D03*
X108370000Y-95280000D03*
X103370000Y-91280000D03*
X103370000Y-87280000D03*
X103370000Y-79280000D03*
X103370000Y-81280000D03*
X108370000Y-83280000D03*
X108370000Y-93280000D03*
X103370000Y-89280000D03*
X103370000Y-83280000D03*
X108370000Y-91280000D03*
X108370000Y-87280000D03*
X108370000Y-79280000D03*
X103370000Y-85280000D03*
X103370000Y-77280000D03*
X108370000Y-81280000D03*
%TD*%
D18*
%TO.P,U2,25,EP*%
%TO.N,GND*%
X83580000Y-100740000D03*
X80680000Y-99290000D03*
X80680000Y-100740000D03*
X82130000Y-100740000D03*
X80680000Y-97840000D03*
X82130000Y-99290000D03*
X83580000Y-99290000D03*
X83580000Y-97840000D03*
X82130000Y-97840000D03*
D19*
X82130000Y-99290000D03*
%TD*%
D15*
%TO.P,U10,29,VNEG*%
%TO.N,GND*%
X99276500Y-64100000D03*
X97676500Y-64100000D03*
X99276500Y-66350000D03*
X100876500Y-64100000D03*
X97676500Y-66350000D03*
X96076500Y-66350000D03*
X96076500Y-64100000D03*
D20*
X98476500Y-65225000D03*
D15*
X100876500Y-66350000D03*
%TD*%
D11*
%TO.P,J3,1,Pin_1*%
%TO.N,unconnected-(J3-Pad1)*%
X47610000Y-61150000D03*
D12*
%TO.P,J3,2,Pin_2*%
%TO.N,/Connectors/CONN_RP_USB_D_P*%
X47610000Y-62420000D03*
%TO.P,J3,3,Pin_3*%
%TO.N,/Connectors/CONN_RP_USB_D_N*%
X47610000Y-63690000D03*
%TO.P,J3,4,Pin_4*%
%TO.N,GND*%
X47610000Y-64960000D03*
%TD*%
D15*
%TO.P,U11,57,GND*%
%TO.N,GND*%
X39215000Y-72325000D03*
X41765000Y-69775000D03*
X41765000Y-72325000D03*
X39215000Y-69775000D03*
%TD*%
D21*
%TO.N,GND*%
X44692445Y-110191622D03*
X88220000Y-102970000D03*
X48820000Y-104970000D03*
D22*
X30010000Y-63640000D03*
X86960000Y-111970000D03*
X32790000Y-76660000D03*
D21*
X48372445Y-110271622D03*
X42770000Y-60095000D03*
X42125107Y-77477909D03*
X89180000Y-99100000D03*
D22*
X74530000Y-67270000D03*
D21*
X60711431Y-76063264D03*
X41572445Y-108351622D03*
X92070000Y-102330000D03*
X89130000Y-95220000D03*
D22*
X73530000Y-67270000D03*
D21*
X90760000Y-103360000D03*
X51630000Y-104090000D03*
X87890000Y-93490000D03*
D22*
X93700000Y-59800000D03*
D21*
X40870000Y-79095000D03*
D22*
X38550000Y-60781903D03*
D21*
X93290000Y-98580000D03*
D22*
X87020000Y-86470000D03*
X92420000Y-68800000D03*
D21*
X89650000Y-104500000D03*
X63093167Y-73735000D03*
X37822445Y-108351622D03*
X95960000Y-94750000D03*
D22*
X70460000Y-97530000D03*
D21*
X48222445Y-104571622D03*
D22*
X90420000Y-72680000D03*
D21*
X68930000Y-103150000D03*
X69259999Y-105770000D03*
X83889999Y-93180000D03*
D22*
X72530000Y-67270000D03*
X85070000Y-68590000D03*
D21*
X39072445Y-109591622D03*
D22*
X39690000Y-62500497D03*
D21*
X94920000Y-101440000D03*
D22*
X41680000Y-61490000D03*
X94120000Y-102250000D03*
D21*
X52570000Y-108140000D03*
D22*
X91070000Y-102250000D03*
D21*
X50321185Y-102630000D03*
D22*
X78870000Y-58410000D03*
X89330000Y-71570000D03*
D21*
X49170000Y-101210000D03*
X42202445Y-107691622D03*
X94060000Y-98590000D03*
X88020000Y-104550000D03*
X90290000Y-94440000D03*
D22*
X90430000Y-71570000D03*
D21*
X86910000Y-93490000D03*
X82010000Y-89970000D03*
X36700000Y-108500000D03*
X39495000Y-83195000D03*
D22*
X91970000Y-111970000D03*
D21*
X42192445Y-110191622D03*
X50660000Y-106920000D03*
X92330000Y-99710000D03*
X52570000Y-105190000D03*
X41920000Y-102960000D03*
D22*
X65545000Y-77220000D03*
D21*
X89690000Y-93830000D03*
D22*
X95000000Y-96590000D03*
X95960000Y-90380000D03*
X79450000Y-86470000D03*
D21*
X47060000Y-85220000D03*
X89180000Y-102970000D03*
X48820000Y-106940000D03*
X54590000Y-88570000D03*
X48212445Y-106451622D03*
X44072445Y-108351622D03*
D22*
X74370000Y-86470000D03*
X87210000Y-102930000D03*
D21*
X45710000Y-65230000D03*
X45710000Y-66590000D03*
D22*
X79450000Y-111970000D03*
X43161261Y-64660723D03*
X70460000Y-107990000D03*
X73650000Y-58400000D03*
D21*
X39072445Y-108351622D03*
X88760000Y-93490000D03*
D22*
X104400000Y-64200000D03*
D21*
X47572445Y-104981622D03*
D22*
X89380000Y-72680000D03*
D21*
X37295000Y-78445000D03*
X86750000Y-104550000D03*
X45942445Y-110191622D03*
X90980000Y-99680000D03*
X44072445Y-109591622D03*
X48820000Y-105950000D03*
D22*
X78000000Y-69300000D03*
D21*
X69395000Y-67370000D03*
X50660000Y-107930000D03*
X38162501Y-56395001D03*
D22*
X67195000Y-77220000D03*
D21*
X49170000Y-104100000D03*
X79550000Y-103710000D03*
D22*
X78000000Y-70300000D03*
X81400000Y-58410000D03*
X52520000Y-57670000D03*
D21*
X90240000Y-103970000D03*
X49170000Y-101916666D03*
X94930000Y-94760000D03*
X42570000Y-103490000D03*
X50670000Y-105930000D03*
X50321185Y-103350000D03*
X45322445Y-109591622D03*
X49170000Y-103330000D03*
D22*
X104400000Y-65200000D03*
D21*
X36112445Y-109331622D03*
D22*
X45642028Y-86460070D03*
D21*
X48222445Y-105491622D03*
X39702445Y-107691622D03*
D22*
X70460000Y-102900000D03*
D21*
X59129467Y-70439332D03*
X50321185Y-101190000D03*
D22*
X79300000Y-70300000D03*
D21*
X91750000Y-98560000D03*
D22*
X35945000Y-66659500D03*
D21*
X36112445Y-110081622D03*
X47592445Y-105971622D03*
X51130000Y-104950000D03*
X38442445Y-110191622D03*
X43442445Y-110191622D03*
X46060000Y-107960000D03*
X42822445Y-109591622D03*
D22*
X49240000Y-72950000D03*
D21*
X90750000Y-95220000D03*
X45322445Y-108351622D03*
X82320000Y-88660000D03*
X38452445Y-107691622D03*
D22*
X86860001Y-89930000D03*
D21*
X88840000Y-104520000D03*
X37402445Y-110261622D03*
X47930000Y-102570000D03*
X40322445Y-109591622D03*
X63103167Y-78635000D03*
X95940000Y-96410000D03*
X92520000Y-98570000D03*
X47762445Y-109611622D03*
X44590000Y-103470000D03*
X47602445Y-106981622D03*
X49170000Y-102623332D03*
X54090000Y-102910000D03*
X33845000Y-56120000D03*
D22*
X34130000Y-91150000D03*
D21*
X92080000Y-95940000D03*
D22*
X70460000Y-90440000D03*
X95960000Y-98390000D03*
D21*
X40322445Y-108351622D03*
D22*
X85550000Y-75270000D03*
D21*
X43730000Y-107460000D03*
X90980000Y-98540000D03*
D22*
X91920000Y-86470000D03*
D21*
X47102445Y-110211622D03*
D22*
X88260000Y-95220000D03*
D21*
X41572445Y-109591622D03*
D22*
X76070000Y-58410000D03*
X95960000Y-108010000D03*
D21*
X80630000Y-93710000D03*
X61893167Y-78015000D03*
X84160000Y-90320000D03*
X94910000Y-100380000D03*
X58850000Y-73600000D03*
X37822445Y-109591622D03*
X40942445Y-110191622D03*
X50321185Y-104070000D03*
X51380000Y-109890000D03*
X58853167Y-78555000D03*
X91660000Y-99700000D03*
D22*
X79300000Y-69300000D03*
D21*
X92090000Y-95200000D03*
D22*
X88190000Y-99140000D03*
D21*
X46572445Y-109591622D03*
X50321185Y-101910000D03*
D22*
X47650000Y-88150000D03*
X74380000Y-111970000D03*
D21*
X40952445Y-107691622D03*
X42822445Y-108351622D03*
D22*
X91060000Y-95990000D03*
D21*
X39692445Y-110191622D03*
X41600000Y-96750000D03*
X94090000Y-94760000D03*
X81330000Y-88660000D03*
D22*
X104400000Y-66400000D03*
D21*
X45710000Y-67120000D03*
D22*
X34070551Y-74519744D03*
X93700000Y-60900000D03*
D21*
X51410000Y-105950000D03*
X46530000Y-102760000D03*
X39610000Y-77610000D03*
D22*
%TO.N,+3V3*%
X80890000Y-77540000D03*
X72395000Y-65745000D03*
D21*
X39661924Y-76871924D03*
X42550000Y-96730000D03*
D22*
X48342613Y-88842613D03*
D21*
X48960000Y-85210000D03*
D22*
X38550000Y-59802400D03*
D21*
X52600000Y-102250000D03*
X51610000Y-102140000D03*
D22*
X48240000Y-72950000D03*
X83400000Y-77540000D03*
D21*
X44750000Y-66590000D03*
X44750000Y-67130000D03*
D22*
X35050053Y-74520000D03*
X83400000Y-75780000D03*
D21*
X27040000Y-58130000D03*
D22*
X76250000Y-77540000D03*
X42296185Y-80580000D03*
D21*
X32420000Y-87360000D03*
D22*
X42320000Y-79260000D03*
X80890000Y-75780000D03*
X52495000Y-55770000D03*
X41699520Y-62619520D03*
X44662531Y-86456937D03*
X42296185Y-82280000D03*
X78380000Y-75780000D03*
X83410000Y-73590000D03*
X86860000Y-91839999D03*
D21*
X56030000Y-102000000D03*
X44750000Y-65220000D03*
X54570000Y-89510000D03*
D22*
X73980000Y-77540000D03*
X88480000Y-85080000D03*
X78380000Y-77540000D03*
X47850000Y-100360000D03*
X35070000Y-67380000D03*
D21*
X80510000Y-103710000D03*
D22*
%TO.N,/Power/SW*%
X74990000Y-72100000D03*
X75980000Y-72100000D03*
X74000000Y-72100000D03*
X81060000Y-70500000D03*
%TO.N,/SX1276/VR_PA*%
X90090558Y-102239117D03*
X90080497Y-95990000D03*
D21*
%TO.N,/MISO*%
X69862139Y-100460885D03*
X29284500Y-71880000D03*
X26410000Y-71880000D03*
X35700000Y-94390000D03*
%TO.N,/SCLK*%
X28780000Y-72670000D03*
X69850000Y-99831500D03*
X27100000Y-72660000D03*
X34780000Y-93680000D03*
%TO.N,/MOSI*%
X69870000Y-101110000D03*
X36600000Y-93100000D03*
%TO.N,/Connectors/GPI2*%
X59760000Y-69730000D03*
%TO.N,/Connectors/GPI4*%
X61433167Y-75075000D03*
%TO.N,/GPIO_CAN_P*%
X54349503Y-76645000D03*
X52245000Y-58545000D03*
%TO.N,/Connectors/GPI3*%
X62433167Y-75075000D03*
D22*
%TO.N,+1V1*%
X43140000Y-65660000D03*
X39690000Y-63480000D03*
D21*
X42100000Y-76480000D03*
%TO.N,/Connectors/GPI1*%
X64123167Y-70355000D03*
%TO.N,/GPIO_CAN_N*%
X53720000Y-76645000D03*
X51020000Y-54695000D03*
%TO.N,/Connectors/CONN_RP_USB_D_P*%
X46095000Y-62520000D03*
%TO.N,/Connectors/CONN_RP_USB_D_N*%
X46095000Y-63570000D03*
%TO.N,/Connectors/USB_D_N*%
X32895000Y-56670000D03*
X51555000Y-76754500D03*
%TO.N,/Connectors/USB_D_P*%
X52255000Y-76754500D03*
X34795000Y-56670000D03*
%TO.N,/ESP32-S3/CHIP_PU*%
X36850000Y-99950000D03*
X54340000Y-100450000D03*
%TO.N,/CAN_EN*%
X50645000Y-76745000D03*
X45120000Y-60095000D03*
%TO.N,/ESP32-S3/SPICS0*%
X45016736Y-89387575D03*
X44210801Y-88007705D03*
%TO.N,/RP2040_EN*%
X43120000Y-77730000D03*
X56240000Y-77730000D03*
%TO.N,/CS1*%
X56990000Y-100390000D03*
X69882104Y-101739386D03*
%TO.N,/SX1276_RESET*%
X78460000Y-95540000D03*
X78460000Y-103720000D03*
%TO.N,/SX1276_IRQ*%
X74240000Y-97060000D03*
X77900000Y-103162600D03*
%TO.N,/MCPWM_FAULT*%
X50163003Y-79740000D03*
X96190000Y-70230000D03*
D22*
X68995000Y-77220000D03*
D21*
%TO.N,/ESP32-S3/CTS*%
X35480000Y-99260000D03*
X55790000Y-99810000D03*
%TO.N,/ESP32-S3/TXD*%
X37570000Y-98700000D03*
%TO.N,/ESP32-S3/RXD*%
X33880000Y-97000000D03*
D22*
%TO.N,/VIN*%
X83145000Y-62420000D03*
D21*
X90610000Y-68300000D03*
D22*
X83145000Y-64645000D03*
X105445000Y-54645000D03*
X82620000Y-66620000D03*
%TO.N,/Connectors/FUSE_IN*%
X57745000Y-50495000D03*
X58445000Y-51195000D03*
X57770000Y-51945000D03*
X59170000Y-50495000D03*
X59195000Y-51945000D03*
%TO.N,/Connectors/FUSE_OUT*%
X86970000Y-62920000D03*
X70920000Y-58880000D03*
X70920000Y-57785000D03*
X70895000Y-55595000D03*
X70895000Y-61070000D03*
X71905000Y-56690000D03*
X88045000Y-62920000D03*
X88170000Y-64470000D03*
X86987500Y-64462500D03*
X71905000Y-55595000D03*
X71930000Y-59975000D03*
X70920000Y-59975000D03*
X71930000Y-58880000D03*
X71905000Y-61070000D03*
X71930000Y-57785000D03*
X70895000Y-56690000D03*
%TO.N,/Connectors/VOUT*%
X103480000Y-56550000D03*
X93580000Y-55450000D03*
X94580000Y-55450000D03*
X102480000Y-55550000D03*
X101480000Y-56550000D03*
X93580000Y-56450000D03*
X103480000Y-55550000D03*
X94580000Y-56450000D03*
X102480000Y-56550000D03*
X95580000Y-56450000D03*
X101480000Y-55550000D03*
X95580000Y-55450000D03*
D21*
%TO.N,/Connectors/LEDA*%
X65895000Y-62445000D03*
%TD*%
D23*
%TO.N,/ESP32-S3/SPICS0*%
X45016736Y-88813640D02*
X45016736Y-89387575D01*
X44210801Y-88007705D02*
X45016736Y-88813640D01*
D24*
%TO.N,GND*%
X73650000Y-58400000D02*
X81390000Y-58400000D01*
X81390000Y-58400000D02*
X81400000Y-58410000D01*
%TO.N,+3V3*%
X71675000Y-65745000D02*
X71180000Y-66240000D01*
X71180000Y-66240000D02*
X71180000Y-73030000D01*
D25*
X81930000Y-94730000D02*
X83970000Y-94730000D01*
X80510000Y-103710000D02*
X79330000Y-102530000D01*
X79330000Y-97330000D02*
X81930000Y-94730000D01*
X86860000Y-91839999D02*
X87840001Y-91839999D01*
X87840001Y-91839999D02*
X88010000Y-91670000D01*
X83970000Y-94730000D02*
X86860000Y-91839999D01*
X88480000Y-91200000D02*
X88480000Y-85080000D01*
X88010000Y-91670000D02*
X88480000Y-91200000D01*
D24*
X73980000Y-75830000D02*
X73980000Y-77550000D01*
X71180000Y-73030000D02*
X73980000Y-75830000D01*
X72395000Y-65745000D02*
X71675000Y-65745000D01*
D25*
X79330000Y-102530000D02*
X79330000Y-97330000D01*
D24*
%TO.N,/Power/SW*%
X81060000Y-70500000D02*
X81060000Y-71490000D01*
X80450000Y-72100000D02*
X74000000Y-72100000D01*
X81060000Y-71490000D02*
X80450000Y-72100000D01*
D26*
%TO.N,/SX1276/VR_PA*%
X90090558Y-102239117D02*
X90090000Y-102238559D01*
X90090000Y-95999503D02*
X90080497Y-95990000D01*
X90090000Y-102238559D02*
X90090000Y-95999503D01*
D27*
%TO.N,/MISO*%
X58995000Y-90720000D02*
X68735885Y-100460885D01*
X68735885Y-100460885D02*
X69862139Y-100460885D01*
X45995000Y-90720000D02*
X58995000Y-90720000D01*
X29284500Y-71880000D02*
X26410000Y-71880000D01*
X35700000Y-94390000D02*
X35700000Y-93060000D01*
X36267411Y-92492589D02*
X44222411Y-92492589D01*
X44222411Y-92492589D02*
X45995000Y-90720000D01*
X35700000Y-93060000D02*
X36267411Y-92492589D01*
%TO.N,/SCLK*%
X45822500Y-90145000D02*
X59445000Y-90145000D01*
X34780000Y-93680000D02*
X34780000Y-92820000D01*
X28780000Y-72670000D02*
X28770000Y-72660000D01*
X69131500Y-99831500D02*
X69850000Y-99831500D01*
X35592731Y-92007269D02*
X43960231Y-92007269D01*
X59445000Y-90145000D02*
X69131500Y-99831500D01*
X28770000Y-72660000D02*
X27100000Y-72660000D01*
X34780000Y-92820000D02*
X35592731Y-92007269D01*
X43960231Y-92007269D02*
X45822500Y-90145000D01*
%TO.N,/MOSI*%
X44342692Y-93100000D02*
X46162052Y-91280640D01*
X68447308Y-101110000D02*
X69870000Y-101110000D01*
X46162052Y-91280640D02*
X58617948Y-91280640D01*
X58617948Y-91280640D02*
X68447308Y-101110000D01*
X36600000Y-93100000D02*
X44342692Y-93100000D01*
D25*
%TO.N,/Connectors/GPI2*%
X59760000Y-58259978D02*
X51060022Y-49560000D01*
X51060022Y-49560000D02*
X47615000Y-49560000D01*
X59760000Y-69730000D02*
X59760000Y-58259978D01*
X47615000Y-49560000D02*
X45785000Y-51390000D01*
%TO.N,/Connectors/GPI4*%
X61445000Y-58983992D02*
X61445000Y-72222181D01*
X61445000Y-72222181D02*
X61434127Y-72233054D01*
X41595000Y-51390000D02*
X44255000Y-48730000D01*
X51191008Y-48730000D02*
X61445000Y-58983992D01*
X61433167Y-75075000D02*
X61433167Y-72245000D01*
X44255000Y-48730000D02*
X51191008Y-48730000D01*
D23*
%TO.N,/GPIO_CAN_P*%
X54259752Y-76555249D02*
X54259752Y-62141552D01*
X52245000Y-60126800D02*
X52245000Y-58545000D01*
X54349503Y-76645000D02*
X54259752Y-76555249D01*
X54259752Y-62141552D02*
X52245000Y-60126800D01*
D25*
%TO.N,/Connectors/GPI3*%
X62433167Y-59011173D02*
X51311994Y-47890000D01*
X44445000Y-47890000D02*
X41595000Y-45040000D01*
X51311994Y-47890000D02*
X44445000Y-47890000D01*
X62433167Y-75075000D02*
X62433167Y-59011173D01*
%TO.N,+1V1*%
X41090000Y-65660000D02*
X39690000Y-64260000D01*
X42100000Y-75830000D02*
X43140000Y-74790000D01*
X43140000Y-74790000D02*
X43140000Y-65660000D01*
X43140000Y-65660000D02*
X41090000Y-65660000D01*
X42100000Y-76480000D02*
X42100000Y-75830000D01*
X39690000Y-64260000D02*
X39690000Y-63480000D01*
%TO.N,/Connectors/GPI1*%
X47705000Y-46960000D02*
X45785000Y-45040000D01*
X51342980Y-46960000D02*
X47705000Y-46960000D01*
X64120000Y-59737020D02*
X51342980Y-46960000D01*
X64123167Y-70355000D02*
X64120000Y-70351833D01*
X64120000Y-70351833D02*
X64120000Y-59737020D01*
D23*
%TO.N,/GPIO_CAN_N*%
X53809751Y-76555249D02*
X53809751Y-62327951D01*
X51020000Y-59538200D02*
X51020000Y-54695000D01*
X53720000Y-76645000D02*
X53809751Y-76555249D01*
X53809751Y-62327951D02*
X51020000Y-59538200D01*
D27*
%TO.N,/Connectors/CONN_RP_USB_D_P*%
X46095000Y-62520000D02*
X46640000Y-62520000D01*
X46640000Y-62520000D02*
X46740000Y-62420000D01*
X46740000Y-62420000D02*
X47610000Y-62420000D01*
%TO.N,/Connectors/CONN_RP_USB_D_N*%
X46720000Y-63690000D02*
X46600000Y-63570000D01*
X46600000Y-63570000D02*
X46095000Y-63570000D01*
X47610000Y-63690000D02*
X46720000Y-63690000D01*
D23*
%TO.N,/Connectors/USB_D_N*%
X34135000Y-58945000D02*
X32895000Y-57705000D01*
X51679999Y-76629501D02*
X51679999Y-62148199D01*
X51679999Y-62148199D02*
X48476800Y-58945000D01*
X51555000Y-76754500D02*
X51679999Y-76629501D01*
X32895000Y-57705000D02*
X32895000Y-56670000D01*
X48476800Y-58945000D02*
X34135000Y-58945000D01*
%TO.N,/Connectors/USB_D_P*%
X52130001Y-61961801D02*
X48663200Y-58495000D01*
X34795000Y-57933603D02*
X34795000Y-56670000D01*
X35356397Y-58495000D02*
X34795000Y-57933603D01*
X48663200Y-58495000D02*
X35356397Y-58495000D01*
X52130001Y-76629501D02*
X52130001Y-61961801D01*
X52255000Y-76754500D02*
X52130001Y-76629501D01*
D27*
%TO.N,/ESP32-S3/CHIP_PU*%
X53215000Y-92445000D02*
X46495000Y-92445000D01*
X42480000Y-99950000D02*
X36850000Y-99950000D01*
X35265000Y-99950000D02*
X32795000Y-102420000D01*
X36850000Y-99950000D02*
X35265000Y-99950000D01*
X45390000Y-97040000D02*
X42480000Y-99950000D01*
X45390000Y-93550000D02*
X45390000Y-97040000D01*
X54340000Y-93570000D02*
X53215000Y-92445000D01*
X46495000Y-92445000D02*
X45390000Y-93550000D01*
X54340000Y-100450000D02*
X54340000Y-93570000D01*
X32795000Y-102420000D02*
X26000000Y-102420000D01*
D23*
%TO.N,/CAN_EN*%
X50645000Y-76745000D02*
X50645000Y-62625978D01*
X48114022Y-60095000D02*
X45120000Y-60095000D01*
X50645000Y-62625978D02*
X48114022Y-60095000D01*
D27*
%TO.N,/RP2040_EN*%
X56240000Y-77730000D02*
X43120000Y-77730000D01*
D23*
%TO.N,/CS1*%
X68264386Y-101739386D02*
X58970000Y-92445000D01*
X69882104Y-101739386D02*
X68264386Y-101739386D01*
X57620000Y-92445000D02*
X56970000Y-93095000D01*
X56970000Y-100370000D02*
X56990000Y-100390000D01*
X58970000Y-92445000D02*
X57620000Y-92445000D01*
X56970000Y-93095000D02*
X56970000Y-100370000D01*
D27*
%TO.N,/SX1276_RESET*%
X78460000Y-95540000D02*
X78460000Y-103720000D01*
%TO.N,/SX1276_IRQ*%
X74240000Y-97060000D02*
X77060000Y-97060000D01*
X77060000Y-97060000D02*
X77900000Y-97900000D01*
X77900000Y-97900000D02*
X77900000Y-103162600D01*
D23*
%TO.N,/MCPWM_FAULT*%
X50163003Y-79740000D02*
X68860000Y-79740000D01*
D27*
X96190000Y-70230000D02*
X96190000Y-72750000D01*
X89370000Y-79570000D02*
X69850000Y-79570000D01*
X69850000Y-79570000D02*
X68995000Y-78715000D01*
X68995000Y-78715000D02*
X68995000Y-77220000D01*
D23*
X68860000Y-79740000D02*
X69470000Y-79130000D01*
D27*
X96190000Y-72750000D02*
X89370000Y-79570000D01*
%TO.N,/ESP32-S3/CTS*%
X53830000Y-91870000D02*
X46320000Y-91870000D01*
X44825320Y-96794680D02*
X42360000Y-99260000D01*
X35480000Y-99260000D02*
X34460000Y-99260000D01*
X32570000Y-101150000D02*
X26000000Y-101150000D01*
X46320000Y-91870000D02*
X44825320Y-93364680D01*
X42360000Y-99260000D02*
X35480000Y-99260000D01*
X34460000Y-99260000D02*
X32570000Y-101150000D01*
X44825320Y-93364680D02*
X44825320Y-96794680D01*
X55790000Y-99810000D02*
X55790000Y-93830000D01*
X55790000Y-93830000D02*
X53830000Y-91870000D01*
%TO.N,/ESP32-S3/TXD*%
X31170000Y-99170000D02*
X26560000Y-99170000D01*
X32087721Y-98252279D02*
X31170000Y-99170000D01*
X37122279Y-98252279D02*
X32087721Y-98252279D01*
X37570000Y-98700000D02*
X37122279Y-98252279D01*
X26560000Y-99170000D02*
X26000000Y-98610000D01*
%TO.N,/ESP32-S3/RXD*%
X26665000Y-96995000D02*
X26320000Y-97340000D01*
X33880000Y-97000000D02*
X33875000Y-96995000D01*
X33875000Y-96995000D02*
X26665000Y-96995000D01*
D28*
%TO.N,/VIN*%
X91295000Y-54370000D02*
X92195000Y-53470000D01*
X104845000Y-53470000D02*
X105445000Y-54070000D01*
D23*
X90610000Y-67310000D02*
X89445000Y-66145000D01*
D28*
X92195000Y-53470000D02*
X104845000Y-53470000D01*
D23*
X90610000Y-68300000D02*
X90610000Y-67310000D01*
D28*
X89395000Y-66145000D02*
X90370000Y-66145000D01*
X89395000Y-66145000D02*
X83095000Y-66145000D01*
X91295000Y-65220000D02*
X91295000Y-54370000D01*
D23*
X89445000Y-66145000D02*
X89395000Y-66145000D01*
D28*
X83095000Y-66145000D02*
X82620000Y-66620000D01*
X105445000Y-54070000D02*
X105445000Y-54645000D01*
X90370000Y-66145000D02*
X91295000Y-65220000D01*
D25*
%TO.N,/Connectors/LEDA*%
X67750000Y-53840000D02*
X65895000Y-55695000D01*
X96095000Y-48770000D02*
X87320000Y-48770000D01*
X85150000Y-53840000D02*
X67750000Y-53840000D01*
X87320000Y-48770000D02*
X86110000Y-49980000D01*
X86110000Y-52880000D02*
X85150000Y-53840000D01*
X65895000Y-55695000D02*
X65895000Y-62445000D01*
X96595000Y-48270000D02*
X96095000Y-48770000D01*
X86110000Y-49980000D02*
X86110000Y-52880000D01*
X96595000Y-45040000D02*
X96595000Y-48270000D01*
%TD*%
%TA.AperFunction,Conductor*%
%TO.N,/Connectors/VOUT*%
G36*
X104042121Y-54440502D02*
G01*
X104088614Y-54494158D01*
X104100000Y-54546500D01*
X104100000Y-62704000D01*
X104079998Y-62772121D01*
X104026342Y-62818614D01*
X103974000Y-62830000D01*
X94666000Y-62830000D01*
X94597879Y-62809998D01*
X94551386Y-62756342D01*
X94540000Y-62704000D01*
X94540000Y-59140000D01*
X93226000Y-59140000D01*
X93157879Y-59119998D01*
X93111386Y-59066342D01*
X93100000Y-59014000D01*
X93100000Y-54546500D01*
X93120002Y-54478379D01*
X93173658Y-54431886D01*
X93226000Y-54420500D01*
X103974000Y-54420500D01*
X104042121Y-54440502D01*
G37*
%TD.AperFunction*%
%TD*%
%TA.AperFunction,Conductor*%
%TO.N,/Connectors/FUSE_OUT*%
G36*
X90187956Y-54129038D02*
G01*
X90268764Y-54182975D01*
X90322779Y-54263730D01*
X90341780Y-54359009D01*
X90341047Y-54378213D01*
X90339883Y-54393342D01*
X90341464Y-54405855D01*
X90341464Y-54405864D01*
X90342536Y-54414349D01*
X90344500Y-54445558D01*
X90344500Y-64223273D01*
X90325546Y-64318561D01*
X90291006Y-64377475D01*
X89874770Y-64905202D01*
X89800877Y-64968281D01*
X89708470Y-64998281D01*
X89679264Y-65000000D01*
X84269000Y-65000000D01*
X84173712Y-64981046D01*
X84092930Y-64927070D01*
X84038954Y-64846288D01*
X84020000Y-64751000D01*
X84020000Y-61680000D01*
X83995411Y-61680026D01*
X70119923Y-61694735D01*
X70024615Y-61675882D01*
X69943776Y-61621991D01*
X69889714Y-61541267D01*
X69870660Y-61445078D01*
X69878486Y-58481105D01*
X72949031Y-58481105D01*
X72988612Y-58645968D01*
X72995494Y-58659301D01*
X72995494Y-58659302D01*
X73025040Y-58716545D01*
X73066375Y-58796631D01*
X73076241Y-58807941D01*
X73076242Y-58807942D01*
X73120668Y-58858868D01*
X73177831Y-58924396D01*
X73316547Y-59021887D01*
X73330536Y-59027341D01*
X73460528Y-59078024D01*
X73460532Y-59078025D01*
X73474513Y-59083476D01*
X73603826Y-59100500D01*
X81258610Y-59100500D01*
X81303986Y-59104669D01*
X81340933Y-59111517D01*
X81340936Y-59111517D01*
X81355692Y-59114252D01*
X81370679Y-59113388D01*
X81370680Y-59113388D01*
X81411881Y-59111012D01*
X81524959Y-59104493D01*
X81687011Y-59054639D01*
X81832495Y-58967569D01*
X81843168Y-58957008D01*
X81843171Y-58957005D01*
X81942341Y-58858868D01*
X81942342Y-58858867D01*
X81953010Y-58848310D01*
X82041597Y-58703746D01*
X82046160Y-58689448D01*
X82046162Y-58689444D01*
X82088580Y-58556532D01*
X82093146Y-58542225D01*
X82104678Y-58373070D01*
X82075527Y-58206046D01*
X82007378Y-58050797D01*
X81979364Y-58014288D01*
X81979004Y-58013790D01*
X81973625Y-58003369D01*
X81963762Y-57992062D01*
X81963759Y-57992058D01*
X81956832Y-57984117D01*
X81946931Y-57972021D01*
X81932940Y-57953788D01*
X81932938Y-57953786D01*
X81927978Y-57947322D01*
X81908514Y-57927857D01*
X81896986Y-57915515D01*
X81862169Y-57875604D01*
X81849889Y-57866973D01*
X81849885Y-57866970D01*
X81813159Y-57841159D01*
X81802691Y-57833385D01*
X81755543Y-57796416D01*
X81741859Y-57790238D01*
X81740771Y-57789579D01*
X81738887Y-57788348D01*
X81736852Y-57787345D01*
X81735740Y-57786749D01*
X81723453Y-57778113D01*
X81667638Y-57756351D01*
X81655634Y-57751305D01*
X81614693Y-57732820D01*
X81614691Y-57732819D01*
X81601016Y-57726645D01*
X81586268Y-57723911D01*
X81585035Y-57723525D01*
X81582920Y-57722783D01*
X81580730Y-57722299D01*
X81579470Y-57721976D01*
X81565487Y-57716524D01*
X81516045Y-57710015D01*
X81506084Y-57708704D01*
X81493206Y-57706664D01*
X81449075Y-57698485D01*
X81434308Y-57695748D01*
X81419319Y-57696612D01*
X81419316Y-57696612D01*
X81376394Y-57699087D01*
X81362062Y-57699500D01*
X73607484Y-57699500D01*
X73600051Y-57700400D01*
X73600043Y-57700400D01*
X73496576Y-57712921D01*
X73496573Y-57712922D01*
X73481680Y-57714724D01*
X73323077Y-57774655D01*
X73183349Y-57870688D01*
X73173369Y-57881890D01*
X73173366Y-57881892D01*
X73137728Y-57921892D01*
X73070560Y-57997279D01*
X72991224Y-58147119D01*
X72949919Y-58311559D01*
X72949031Y-58481105D01*
X69878486Y-58481105D01*
X69888894Y-54538843D01*
X69908099Y-54443605D01*
X69962289Y-54362966D01*
X70043213Y-54309203D01*
X70137893Y-54290500D01*
X85108530Y-54290500D01*
X85137797Y-54292226D01*
X85164310Y-54295364D01*
X85220102Y-54285175D01*
X85227799Y-54283894D01*
X85267768Y-54277884D01*
X85267771Y-54277883D01*
X85283962Y-54275449D01*
X85290475Y-54272321D01*
X85297573Y-54271025D01*
X85312084Y-54263487D01*
X85312087Y-54263486D01*
X85347894Y-54244886D01*
X85354887Y-54241391D01*
X85406079Y-54216809D01*
X85411383Y-54211906D01*
X85417788Y-54208579D01*
X85422828Y-54204275D01*
X85441856Y-54185247D01*
X85522638Y-54131271D01*
X85617804Y-54112317D01*
X90092658Y-54110131D01*
X90187956Y-54129038D01*
G37*
%TD.AperFunction*%
%TD*%
%TA.AperFunction,Conductor*%
%TO.N,/Connectors/FUSE_IN*%
G36*
X85917679Y-49269962D02*
G01*
X85972217Y-49324500D01*
X85992179Y-49399000D01*
X85972217Y-49473500D01*
X85948538Y-49504359D01*
X85816606Y-49636291D01*
X85803493Y-49647944D01*
X85777890Y-49668128D01*
X85771558Y-49677290D01*
X85771556Y-49677292D01*
X85744741Y-49716090D01*
X85742020Y-49719898D01*
X85707366Y-49766816D01*
X85704973Y-49773632D01*
X85700869Y-49779569D01*
X85697510Y-49790190D01*
X85683286Y-49835165D01*
X85681813Y-49839580D01*
X85662481Y-49894631D01*
X85662198Y-49901845D01*
X85660020Y-49908730D01*
X85659500Y-49915337D01*
X85659500Y-49967571D01*
X85659385Y-49973420D01*
X85657162Y-50029994D01*
X85659120Y-50037379D01*
X85659500Y-50044282D01*
X85659500Y-52631679D01*
X85639538Y-52706179D01*
X85615859Y-52737038D01*
X85136538Y-53216359D01*
X85069743Y-53254923D01*
X85031179Y-53260000D01*
X58341801Y-53260000D01*
X58267301Y-53240038D01*
X58236442Y-53216359D01*
X57147468Y-52127385D01*
X57108904Y-52060590D01*
X57103829Y-52022769D01*
X57090747Y-49399743D01*
X57110337Y-49325144D01*
X57164602Y-49270335D01*
X57239745Y-49250000D01*
X85843179Y-49250000D01*
X85917679Y-49269962D01*
G37*
%TD.AperFunction*%
%TD*%
%TA.AperFunction,Conductor*%
%TO.N,GND*%
G36*
X87971621Y-85990002D02*
G01*
X88018114Y-86043658D01*
X88029500Y-86096000D01*
X88029500Y-90961207D01*
X88009498Y-91029328D01*
X87992595Y-91050302D01*
X87690303Y-91352594D01*
X87627991Y-91386620D01*
X87601208Y-91389499D01*
X87302099Y-91389499D01*
X87233978Y-91369497D01*
X87225395Y-91363462D01*
X87169392Y-91320490D01*
X87162841Y-91315463D01*
X87016762Y-91254955D01*
X86860000Y-91234317D01*
X86703238Y-91254955D01*
X86557159Y-91315463D01*
X86431718Y-91411717D01*
X86335464Y-91537158D01*
X86274956Y-91683237D01*
X86273878Y-91691426D01*
X86264665Y-91761408D01*
X86235943Y-91826336D01*
X86228838Y-91834058D01*
X83820302Y-94242595D01*
X83757990Y-94276620D01*
X83731207Y-94279500D01*
X81964219Y-94279500D01*
X81949410Y-94278627D01*
X81946593Y-94278294D01*
X81915689Y-94274636D01*
X81906426Y-94276328D01*
X81906419Y-94276328D01*
X81857982Y-94285175D01*
X81854083Y-94285825D01*
X81831353Y-94289242D01*
X81805356Y-94293150D01*
X81805355Y-94293150D01*
X81796038Y-94294551D01*
X81789525Y-94297679D01*
X81782427Y-94298975D01*
X81730347Y-94326028D01*
X81726845Y-94327777D01*
X81682413Y-94349113D01*
X81673921Y-94353191D01*
X81668636Y-94358077D01*
X81668589Y-94358108D01*
X81662211Y-94361421D01*
X81657172Y-94365725D01*
X81619945Y-94402952D01*
X81616380Y-94406381D01*
X81574444Y-94445146D01*
X81570751Y-94451505D01*
X81565234Y-94457663D01*
X79035650Y-96987247D01*
X79024566Y-96997098D01*
X79017409Y-97002741D01*
X78951531Y-97029208D01*
X78881801Y-97015857D01*
X78830358Y-96966927D01*
X78813400Y-96903793D01*
X78813400Y-95813909D01*
X78827133Y-95756706D01*
X78865218Y-95681959D01*
X78869719Y-95673126D01*
X78886328Y-95568264D01*
X78889253Y-95549793D01*
X78890804Y-95540000D01*
X78869719Y-95406874D01*
X78808528Y-95286780D01*
X78713220Y-95191472D01*
X78593126Y-95130281D01*
X78583337Y-95128731D01*
X78583335Y-95128730D01*
X78469793Y-95110747D01*
X78460000Y-95109196D01*
X78450207Y-95110747D01*
X78336665Y-95128730D01*
X78336663Y-95128731D01*
X78326874Y-95130281D01*
X78206780Y-95191472D01*
X78111472Y-95286780D01*
X78050281Y-95406874D01*
X78029196Y-95540000D01*
X78030747Y-95549793D01*
X78033673Y-95568264D01*
X78050281Y-95673126D01*
X78054782Y-95681959D01*
X78092867Y-95756706D01*
X78106600Y-95813909D01*
X78106600Y-97302627D01*
X78086598Y-97370748D01*
X78032942Y-97417241D01*
X77962668Y-97427345D01*
X77898088Y-97397851D01*
X77891505Y-97391722D01*
X77346053Y-96846270D01*
X77333667Y-96830934D01*
X77330650Y-96827619D01*
X77325000Y-96818868D01*
X77316821Y-96812420D01*
X77316819Y-96812418D01*
X77300836Y-96799818D01*
X77296853Y-96796279D01*
X77296767Y-96796380D01*
X77292808Y-96793025D01*
X77289130Y-96789347D01*
X77284906Y-96786329D01*
X77284896Y-96786320D01*
X77274667Y-96779011D01*
X77269940Y-96775463D01*
X77232606Y-96746031D01*
X77224562Y-96743206D01*
X77217625Y-96738249D01*
X77207644Y-96735264D01*
X77172084Y-96724629D01*
X77166437Y-96722794D01*
X77129079Y-96709674D01*
X77129076Y-96709673D01*
X77121600Y-96707048D01*
X77116427Y-96706600D01*
X77113710Y-96706600D01*
X77111477Y-96706503D01*
X77110990Y-96706358D01*
X77110992Y-96706316D01*
X77110813Y-96706305D01*
X77104905Y-96704538D01*
X77054893Y-96706503D01*
X77049946Y-96706600D01*
X74513909Y-96706600D01*
X74456706Y-96692867D01*
X74426533Y-96677493D01*
X74373126Y-96650281D01*
X74363337Y-96648731D01*
X74363335Y-96648730D01*
X74249793Y-96630747D01*
X74240000Y-96629196D01*
X74230207Y-96630747D01*
X74116665Y-96648730D01*
X74116663Y-96648731D01*
X74106874Y-96650281D01*
X73986780Y-96711472D01*
X73891472Y-96806780D01*
X73830281Y-96926874D01*
X73828731Y-96936663D01*
X73828730Y-96936665D01*
X73815828Y-97018128D01*
X73809196Y-97060000D01*
X73810747Y-97069793D01*
X73820215Y-97129569D01*
X73830281Y-97193126D01*
X73891472Y-97313220D01*
X73986780Y-97408528D01*
X74106874Y-97469719D01*
X74116663Y-97471269D01*
X74116665Y-97471270D01*
X74230207Y-97489253D01*
X74240000Y-97490804D01*
X74249793Y-97489253D01*
X74363335Y-97471270D01*
X74363337Y-97471269D01*
X74373126Y-97469719D01*
X74444402Y-97433402D01*
X74456706Y-97427133D01*
X74513909Y-97413400D01*
X76861427Y-97413400D01*
X76929548Y-97433402D01*
X76950522Y-97450305D01*
X77509695Y-98009478D01*
X77543721Y-98071790D01*
X77546600Y-98098573D01*
X77546600Y-102888691D01*
X77532867Y-102945894D01*
X77517493Y-102976067D01*
X77490281Y-103029474D01*
X77469196Y-103162600D01*
X77490281Y-103295726D01*
X77551472Y-103415820D01*
X77646780Y-103511128D01*
X77766874Y-103572319D01*
X77776663Y-103573869D01*
X77776665Y-103573870D01*
X77890207Y-103591853D01*
X77900000Y-103593404D01*
X77906515Y-103592372D01*
X77972868Y-103611855D01*
X78019361Y-103665511D01*
X78030046Y-103714632D01*
X78029196Y-103720000D01*
X78030747Y-103729793D01*
X78046653Y-103830217D01*
X78050281Y-103853126D01*
X78111472Y-103973220D01*
X78206780Y-104068528D01*
X78326874Y-104129719D01*
X78336663Y-104131269D01*
X78336665Y-104131270D01*
X78450207Y-104149253D01*
X78460000Y-104150804D01*
X78469793Y-104149253D01*
X78583335Y-104131270D01*
X78583337Y-104131269D01*
X78593126Y-104129719D01*
X78713220Y-104068528D01*
X78808528Y-103973220D01*
X78869719Y-103853126D01*
X78873348Y-103830217D01*
X78889253Y-103729793D01*
X78890804Y-103720000D01*
X78869719Y-103586874D01*
X78833417Y-103515628D01*
X78827133Y-103503294D01*
X78813400Y-103446091D01*
X78813400Y-102956782D01*
X78833402Y-102888661D01*
X78887058Y-102842168D01*
X78957332Y-102832064D01*
X79021912Y-102861558D01*
X79031926Y-102871255D01*
X79038751Y-102878639D01*
X79038755Y-102878642D01*
X79045146Y-102885556D01*
X79051505Y-102889249D01*
X79057663Y-102894766D01*
X80215384Y-104052487D01*
X80219167Y-104055281D01*
X80219168Y-104055282D01*
X80289243Y-104107041D01*
X80289246Y-104107042D01*
X80296816Y-104112634D01*
X80424631Y-104157519D01*
X80434038Y-104157889D01*
X80434040Y-104157889D01*
X80488486Y-104160028D01*
X80559994Y-104162838D01*
X80690937Y-104128119D01*
X80710765Y-104115753D01*
X80797889Y-104061418D01*
X80797890Y-104061418D01*
X80805882Y-104056433D01*
X80894667Y-103954117D01*
X80898472Y-103945510D01*
X80898474Y-103945507D01*
X80945636Y-103838827D01*
X80945637Y-103838825D01*
X80949442Y-103830217D01*
X80965364Y-103695690D01*
X80941025Y-103562427D01*
X80878579Y-103442212D01*
X80874275Y-103437172D01*
X79817405Y-102380302D01*
X79783379Y-102317990D01*
X79780500Y-102291207D01*
X79780500Y-97568793D01*
X79800502Y-97500672D01*
X79817405Y-97479698D01*
X81307103Y-95990000D01*
X89474815Y-95990000D01*
X89495453Y-96146762D01*
X89555961Y-96292841D01*
X89652215Y-96418282D01*
X89658765Y-96423308D01*
X89658768Y-96423311D01*
X89693519Y-96449976D01*
X89735386Y-96507314D01*
X89742815Y-96549938D01*
X89742815Y-101686899D01*
X89722813Y-101755020D01*
X89693521Y-101786859D01*
X89662276Y-101810835D01*
X89566022Y-101936276D01*
X89505514Y-102082355D01*
X89484876Y-102239117D01*
X89505514Y-102395879D01*
X89566022Y-102541958D01*
X89662276Y-102667399D01*
X89787717Y-102763653D01*
X89933796Y-102824161D01*
X89941984Y-102825239D01*
X90012177Y-102834480D01*
X90090558Y-102844799D01*
X90098746Y-102843721D01*
X90110543Y-102842168D01*
X90168939Y-102834480D01*
X90239132Y-102825239D01*
X90247320Y-102824161D01*
X90393399Y-102763653D01*
X90518840Y-102667399D01*
X90615094Y-102541958D01*
X90675602Y-102395879D01*
X90696240Y-102239117D01*
X90675602Y-102082355D01*
X90615094Y-101936276D01*
X90518840Y-101810835D01*
X90512294Y-101805812D01*
X90512290Y-101805808D01*
X90486481Y-101786004D01*
X90444614Y-101728666D01*
X90437185Y-101686042D01*
X90437185Y-96535355D01*
X90457187Y-96467234D01*
X90486481Y-96435393D01*
X90502229Y-96423309D01*
X90502233Y-96423305D01*
X90508779Y-96418282D01*
X90605033Y-96292841D01*
X90665541Y-96146762D01*
X90686179Y-95990000D01*
X90665541Y-95833238D01*
X90605033Y-95687159D01*
X90508779Y-95561718D01*
X90480476Y-95540000D01*
X90389889Y-95470491D01*
X90383338Y-95465464D01*
X90237259Y-95404956D01*
X90080497Y-95384318D01*
X89923735Y-95404956D01*
X89777656Y-95465464D01*
X89771105Y-95470491D01*
X89680519Y-95540000D01*
X89652215Y-95561718D01*
X89555961Y-95687159D01*
X89495453Y-95833238D01*
X89474815Y-95990000D01*
X81307103Y-95990000D01*
X82079698Y-95217405D01*
X82142010Y-95183379D01*
X82168793Y-95180500D01*
X83935781Y-95180500D01*
X83950590Y-95181373D01*
X83984311Y-95185364D01*
X83993574Y-95183672D01*
X83993581Y-95183672D01*
X84042018Y-95174825D01*
X84045917Y-95174175D01*
X84068647Y-95170758D01*
X84094644Y-95166850D01*
X84094645Y-95166850D01*
X84103962Y-95165449D01*
X84110475Y-95162321D01*
X84117573Y-95161025D01*
X84169647Y-95133975D01*
X84173137Y-95132232D01*
X84226079Y-95106809D01*
X84231365Y-95101923D01*
X84231413Y-95101890D01*
X84237788Y-95098579D01*
X84242828Y-95094275D01*
X84280054Y-95057049D01*
X84283620Y-95053619D01*
X84318641Y-95021246D01*
X84325556Y-95014854D01*
X84329249Y-95008495D01*
X84334766Y-95002337D01*
X86865941Y-92471161D01*
X86928253Y-92437136D01*
X86938585Y-92435335D01*
X87016762Y-92425043D01*
X87162841Y-92364535D01*
X87225395Y-92316536D01*
X87291616Y-92290936D01*
X87302099Y-92290499D01*
X87805781Y-92290499D01*
X87820590Y-92291372D01*
X87854311Y-92295363D01*
X87863575Y-92293671D01*
X87863576Y-92293671D01*
X87912002Y-92284827D01*
X87915905Y-92284177D01*
X87964646Y-92276849D01*
X87964647Y-92276849D01*
X87973963Y-92275448D01*
X87980476Y-92272320D01*
X87987574Y-92271024D01*
X88039648Y-92243974D01*
X88043138Y-92242231D01*
X88096080Y-92216808D01*
X88101366Y-92211922D01*
X88101414Y-92211889D01*
X88107789Y-92208578D01*
X88112829Y-92204274D01*
X88150056Y-92167047D01*
X88153622Y-92163617D01*
X88188642Y-92131245D01*
X88195557Y-92124853D01*
X88199250Y-92118494D01*
X88204767Y-92112336D01*
X88774350Y-91542753D01*
X88785439Y-91532899D01*
X88804709Y-91517707D01*
X88804711Y-91517705D01*
X88812110Y-91511872D01*
X88845462Y-91463615D01*
X88847757Y-91460403D01*
X88877040Y-91420758D01*
X88877041Y-91420757D01*
X88882634Y-91413184D01*
X88885027Y-91406368D01*
X88889131Y-91400431D01*
X88892589Y-91389499D01*
X88906818Y-91344505D01*
X88908071Y-91340750D01*
X88924396Y-91294263D01*
X88924396Y-91294261D01*
X88927519Y-91285369D01*
X88927801Y-91278181D01*
X88927812Y-91278122D01*
X88929980Y-91271270D01*
X88930500Y-91264663D01*
X88930500Y-91211984D01*
X88930597Y-91207037D01*
X88932468Y-91159418D01*
X88932838Y-91150006D01*
X88930954Y-91142900D01*
X88930500Y-91134656D01*
X88930500Y-86096000D01*
X88950502Y-86027879D01*
X89004158Y-85981386D01*
X89056500Y-85970000D01*
X94456258Y-85970000D01*
X94465245Y-85970321D01*
X94736331Y-85989705D01*
X94754114Y-85992260D01*
X94884702Y-86020661D01*
X95015286Y-86049061D01*
X95032532Y-86054124D01*
X95282954Y-86147503D01*
X95299303Y-86154967D01*
X95533899Y-86283029D01*
X95549017Y-86292742D01*
X95656011Y-86372810D01*
X95763002Y-86452877D01*
X95776587Y-86464645D01*
X95965612Y-86653598D01*
X95977385Y-86667179D01*
X96137601Y-86881103D01*
X96147322Y-86896221D01*
X96275470Y-87130765D01*
X96282941Y-87147111D01*
X96376415Y-87397501D01*
X96381484Y-87414744D01*
X96438382Y-87675888D01*
X96440946Y-87693678D01*
X96460432Y-87964761D01*
X96460756Y-87973739D01*
X96464577Y-98098573D01*
X96469243Y-110464747D01*
X96468925Y-110473738D01*
X96449626Y-110744960D01*
X96447073Y-110762760D01*
X96390318Y-111024066D01*
X96385262Y-111041307D01*
X96291879Y-111291900D01*
X96284424Y-111308235D01*
X96156331Y-111542964D01*
X96146615Y-111558091D01*
X96066513Y-111665144D01*
X95986413Y-111772194D01*
X95974640Y-111785785D01*
X95785597Y-111974900D01*
X95772013Y-111986675D01*
X95557976Y-112146954D01*
X95542849Y-112156678D01*
X95308172Y-112284857D01*
X95291821Y-112292327D01*
X95041282Y-112385798D01*
X95024036Y-112390863D01*
X94783483Y-112443205D01*
X94762753Y-112447716D01*
X94744954Y-112450276D01*
X94473732Y-112469679D01*
X94464741Y-112470000D01*
X71964501Y-112470000D01*
X71955513Y-112469679D01*
X71906129Y-112466147D01*
X71684350Y-112450285D01*
X71666567Y-112447728D01*
X71405342Y-112390902D01*
X71388100Y-112385840D01*
X71137607Y-112292411D01*
X71121260Y-112284945D01*
X70886625Y-112156824D01*
X70871502Y-112147105D01*
X70657490Y-111986897D01*
X70643904Y-111975124D01*
X70454876Y-111786096D01*
X70443103Y-111772510D01*
X70282895Y-111558498D01*
X70273176Y-111543375D01*
X70145055Y-111308740D01*
X70137589Y-111292393D01*
X70044160Y-111041900D01*
X70039097Y-111024654D01*
X70038969Y-111024066D01*
X69982272Y-110763433D01*
X69979714Y-110745645D01*
X69960321Y-110474487D01*
X69960000Y-110465499D01*
X69960000Y-102254459D01*
X69980002Y-102186338D01*
X70028796Y-102142193D01*
X70135324Y-102087914D01*
X70230632Y-101992606D01*
X70291823Y-101872512D01*
X70305525Y-101786004D01*
X70311357Y-101749179D01*
X70312908Y-101739386D01*
X70291823Y-101606260D01*
X70230632Y-101486166D01*
X70229690Y-101485224D01*
X70207433Y-101422846D01*
X70220960Y-101358449D01*
X70275217Y-101251962D01*
X70275217Y-101251961D01*
X70279719Y-101243126D01*
X70300804Y-101110000D01*
X70279719Y-100976874D01*
X70218528Y-100856780D01*
X70214004Y-100852256D01*
X70190801Y-100787228D01*
X70206880Y-100718076D01*
X70207211Y-100717561D01*
X70210667Y-100714105D01*
X70271858Y-100594011D01*
X70292943Y-100460885D01*
X70271858Y-100327759D01*
X70210667Y-100207665D01*
X70209709Y-100206707D01*
X70187447Y-100144321D01*
X70200974Y-100079919D01*
X70255218Y-99973459D01*
X70259719Y-99964626D01*
X70280804Y-99831500D01*
X70259719Y-99698374D01*
X70198528Y-99578280D01*
X70103220Y-99482972D01*
X70094387Y-99478471D01*
X70094385Y-99478470D01*
X70028798Y-99445052D01*
X69977182Y-99396304D01*
X69960000Y-99332785D01*
X69960000Y-87974501D01*
X69960321Y-87965513D01*
X69979714Y-87694355D01*
X69982272Y-87676567D01*
X70039098Y-87415342D01*
X70044161Y-87398097D01*
X70137589Y-87147607D01*
X70145055Y-87131260D01*
X70273176Y-86896625D01*
X70282895Y-86881502D01*
X70443103Y-86667490D01*
X70454876Y-86653904D01*
X70643904Y-86464876D01*
X70657490Y-86453103D01*
X70871502Y-86292895D01*
X70886625Y-86283176D01*
X71121260Y-86155055D01*
X71137607Y-86147589D01*
X71388100Y-86054160D01*
X71405342Y-86049098D01*
X71666567Y-85992272D01*
X71684350Y-85989715D01*
X71906129Y-85973853D01*
X71955513Y-85970321D01*
X71964501Y-85970000D01*
X87903500Y-85970000D01*
X87971621Y-85990002D01*
G37*
%TD.AperFunction*%
%TD*%
%TA.AperFunction,Conductor*%
%TO.N,/VIN*%
G36*
X106280365Y-52759588D02*
G01*
X106354809Y-52779755D01*
X106409196Y-52834442D01*
X106428950Y-52909633D01*
X106411038Y-55462046D01*
X106390554Y-55536404D01*
X106335635Y-55590557D01*
X106262042Y-55610000D01*
X104449000Y-55610000D01*
X104374500Y-55590038D01*
X104319962Y-55535500D01*
X104300000Y-55461000D01*
X104300000Y-54546500D01*
X104295430Y-54503988D01*
X104284044Y-54451646D01*
X104281622Y-54441738D01*
X104239764Y-54363186D01*
X104193271Y-54309530D01*
X104176149Y-54292055D01*
X104178392Y-54289857D01*
X104142241Y-54242918D01*
X104140000Y-54236336D01*
X104140000Y-54220000D01*
X98706578Y-54215162D01*
X92929616Y-54210017D01*
X92929614Y-54210017D01*
X92910000Y-54210000D01*
X92910000Y-54467189D01*
X92907540Y-54490073D01*
X92908101Y-54490154D01*
X92900000Y-54546500D01*
X92900000Y-59014000D01*
X92904570Y-59056512D01*
X92905419Y-59060414D01*
X92906595Y-59065821D01*
X92910000Y-59097492D01*
X92910000Y-59122486D01*
X92890038Y-59196986D01*
X92859239Y-59234513D01*
X92274748Y-59747067D01*
X92260000Y-59760000D01*
X92260020Y-59772279D01*
X92269913Y-65836858D01*
X92250072Y-65911390D01*
X92236437Y-65931203D01*
X91040000Y-67400000D01*
X91040000Y-68371000D01*
X91020038Y-68445500D01*
X90965500Y-68500038D01*
X90891000Y-68520000D01*
X90329000Y-68520000D01*
X90254500Y-68500038D01*
X90199962Y-68445500D01*
X90180000Y-68371000D01*
X90180000Y-67400000D01*
X86333238Y-67390906D01*
X81868127Y-67380350D01*
X81793674Y-67360211D01*
X81739265Y-67305545D01*
X81719480Y-67231873D01*
X81701234Y-62031822D01*
X81720935Y-61957254D01*
X81775281Y-61902525D01*
X81850075Y-61882301D01*
X83409424Y-61880647D01*
X83670842Y-61880370D01*
X83745363Y-61900253D01*
X83799959Y-61954733D01*
X83820000Y-62029370D01*
X83820000Y-64751000D01*
X83820358Y-64754633D01*
X83820358Y-64754637D01*
X83822041Y-64771718D01*
X83823843Y-64790018D01*
X83842797Y-64885306D01*
X83872659Y-64957401D01*
X83926635Y-65038183D01*
X83981817Y-65093365D01*
X84062599Y-65147341D01*
X84134694Y-65177203D01*
X84161472Y-65182529D01*
X84170070Y-65184240D01*
X84239244Y-65218354D01*
X84282093Y-65282484D01*
X84290000Y-65330377D01*
X84290000Y-65390000D01*
X89980000Y-65380000D01*
X90242859Y-65043357D01*
X90537928Y-64665461D01*
X90537928Y-64665460D01*
X90550000Y-64650000D01*
X90550000Y-54131394D01*
X90569962Y-54056894D01*
X90593250Y-54026427D01*
X91846125Y-52764202D01*
X91912775Y-52725391D01*
X91952281Y-52720171D01*
X106280365Y-52759588D01*
G37*
%TD.AperFunction*%
%TD*%
%TA.AperFunction,Conductor*%
%TO.N,GND*%
G36*
X108972442Y-42501774D02*
G01*
X108983339Y-42503471D01*
X108983342Y-42503471D01*
X108993830Y-42505104D01*
X109004357Y-42503728D01*
X109014968Y-42503857D01*
X109014964Y-42504204D01*
X109035670Y-42504019D01*
X109094579Y-42510656D01*
X109127101Y-42518079D01*
X109201098Y-42543971D01*
X109231157Y-42558447D01*
X109297530Y-42600152D01*
X109323616Y-42620955D01*
X109379045Y-42676384D01*
X109399848Y-42702470D01*
X109441553Y-42768843D01*
X109456030Y-42798905D01*
X109481920Y-42872895D01*
X109489344Y-42905423D01*
X109495646Y-42961353D01*
X109496572Y-42979856D01*
X109496530Y-42983337D01*
X109494896Y-42993828D01*
X109496273Y-43004356D01*
X109498742Y-43023240D01*
X109500000Y-43042559D01*
X109500000Y-69647914D01*
X109480038Y-69722414D01*
X109425500Y-69776952D01*
X109350731Y-69796913D01*
X106254443Y-69791289D01*
X91732286Y-69764911D01*
X91732284Y-69764911D01*
X91230024Y-69763999D01*
X91231393Y-70271155D01*
X91238626Y-72950868D01*
X91237406Y-72970304D01*
X91224495Y-73070543D01*
X91214545Y-73108113D01*
X91179892Y-73192492D01*
X91160564Y-73226213D01*
X91105263Y-73298765D01*
X91077872Y-73326338D01*
X91005688Y-73382121D01*
X90972100Y-73401672D01*
X90887953Y-73436886D01*
X90850449Y-73447086D01*
X90750300Y-73460663D01*
X90730883Y-73462013D01*
X89825737Y-73465590D01*
X89221768Y-73467977D01*
X89202265Y-73466773D01*
X89101688Y-73453902D01*
X89063991Y-73443934D01*
X88979332Y-73409161D01*
X88945510Y-73389752D01*
X88872776Y-73334207D01*
X88845149Y-73306689D01*
X88789316Y-73234174D01*
X88769774Y-73200430D01*
X88734666Y-73115908D01*
X88724549Y-73078249D01*
X88711281Y-72977726D01*
X88710000Y-72958229D01*
X88710000Y-69750000D01*
X79990000Y-69750000D01*
X79994464Y-70254425D01*
X79994507Y-70259323D01*
X79994507Y-70259329D01*
X79995449Y-70365755D01*
X79994333Y-70385321D01*
X79981877Y-70486260D01*
X79972032Y-70524117D01*
X79937462Y-70609168D01*
X79918105Y-70643157D01*
X79862599Y-70716272D01*
X79835063Y-70744053D01*
X79762437Y-70800207D01*
X79728622Y-70819863D01*
X79643888Y-70855181D01*
X79606120Y-70865361D01*
X79505292Y-70878711D01*
X79485735Y-70880000D01*
X78109763Y-70880000D01*
X78090315Y-70878725D01*
X78090209Y-70878711D01*
X77990037Y-70865523D01*
X77952471Y-70855458D01*
X77868122Y-70820519D01*
X77834440Y-70801074D01*
X77762006Y-70745492D01*
X77734506Y-70717992D01*
X77678926Y-70645560D01*
X77659480Y-70611877D01*
X77624543Y-70527532D01*
X77614476Y-70489960D01*
X77601275Y-70389685D01*
X77600000Y-70370237D01*
X77600000Y-67850000D01*
X77096019Y-67849117D01*
X77096013Y-67849117D01*
X72422590Y-67840933D01*
X72394785Y-67840884D01*
X72375460Y-67839591D01*
X72365351Y-67838251D01*
X72275819Y-67826379D01*
X72238486Y-67816371D01*
X72154643Y-67781713D01*
X72121138Y-67762438D01*
X72049024Y-67707374D01*
X72021608Y-67680132D01*
X71966088Y-67608375D01*
X71946600Y-67574995D01*
X71911406Y-67491371D01*
X71901160Y-67454101D01*
X71887312Y-67354546D01*
X71885896Y-67335229D01*
X71884171Y-67122993D01*
X71885297Y-67103458D01*
X71897786Y-67002676D01*
X71907627Y-66964881D01*
X71927055Y-66917099D01*
X71942152Y-66879966D01*
X71961472Y-66846035D01*
X72016877Y-66773007D01*
X72044350Y-66745261D01*
X72116826Y-66689139D01*
X72150573Y-66669481D01*
X72235136Y-66634123D01*
X72272830Y-66623909D01*
X72373484Y-66610424D01*
X72393009Y-66609105D01*
X77608954Y-66600002D01*
X77609027Y-66600002D01*
X77610000Y-66600001D01*
X77611036Y-66600003D01*
X77611046Y-66600003D01*
X81253342Y-66608887D01*
X81276487Y-66610753D01*
X81379879Y-66627272D01*
X81423908Y-66641591D01*
X81436431Y-66647959D01*
X81493790Y-66699521D01*
X81517893Y-66780251D01*
X81518674Y-67002676D01*
X81519481Y-67232575D01*
X81526324Y-67283746D01*
X81546109Y-67357418D01*
X81550333Y-67371156D01*
X81597511Y-67446633D01*
X81651920Y-67501299D01*
X81662857Y-67511496D01*
X81671482Y-67516081D01*
X81671484Y-67516082D01*
X81686670Y-67524154D01*
X81741452Y-67553273D01*
X81772983Y-67561802D01*
X81811190Y-67572137D01*
X81811195Y-67572138D01*
X81815905Y-67573412D01*
X81820742Y-67574060D01*
X81820745Y-67574061D01*
X81862827Y-67579702D01*
X81867654Y-67580349D01*
X81872513Y-67580360D01*
X81872521Y-67580361D01*
X86332765Y-67590905D01*
X89831352Y-67599176D01*
X89905805Y-67619315D01*
X89960214Y-67673981D01*
X89980000Y-67748176D01*
X89980000Y-68371000D01*
X89986815Y-68422763D01*
X90006777Y-68497263D01*
X90011185Y-68511556D01*
X90058541Y-68586921D01*
X90113079Y-68641459D01*
X90124043Y-68651633D01*
X90132681Y-68656198D01*
X90195340Y-68689314D01*
X90195342Y-68689315D01*
X90202737Y-68693223D01*
X90210815Y-68695388D01*
X90210819Y-68695389D01*
X90272529Y-68711924D01*
X90272536Y-68711925D01*
X90277237Y-68713185D01*
X90305207Y-68716867D01*
X90324159Y-68719363D01*
X90324164Y-68719363D01*
X90329000Y-68720000D01*
X90530056Y-68720000D01*
X90553364Y-68721834D01*
X90598419Y-68728970D01*
X90598421Y-68728970D01*
X90610000Y-68730804D01*
X90621579Y-68728970D01*
X90621581Y-68728970D01*
X90666636Y-68721834D01*
X90689944Y-68720000D01*
X90891000Y-68720000D01*
X90895836Y-68719363D01*
X90895841Y-68719363D01*
X90914793Y-68716867D01*
X90942763Y-68713185D01*
X90947464Y-68711925D01*
X90947471Y-68711924D01*
X90980347Y-68703114D01*
X91017263Y-68693223D01*
X91020906Y-68692099D01*
X91022225Y-68691693D01*
X91022227Y-68691692D01*
X91031556Y-68688815D01*
X91106921Y-68641459D01*
X91161459Y-68586921D01*
X91171633Y-68575957D01*
X91213223Y-68497263D01*
X91233185Y-68422763D01*
X91240000Y-68371000D01*
X91240000Y-67524154D01*
X91259962Y-67449654D01*
X91273476Y-67430052D01*
X91314741Y-67379394D01*
X92391503Y-66057515D01*
X92401193Y-66044585D01*
X92414828Y-66024772D01*
X92427209Y-65997881D01*
X92440671Y-65968639D01*
X92443341Y-65962840D01*
X92463182Y-65888308D01*
X92469913Y-65836532D01*
X92460258Y-59918152D01*
X92480099Y-59843621D01*
X92511019Y-59805883D01*
X92988812Y-59386895D01*
X92988813Y-59386894D01*
X92991104Y-59384885D01*
X93007915Y-59367515D01*
X93074071Y-59327864D01*
X93156961Y-59328173D01*
X93164540Y-59330399D01*
X93164561Y-59330404D01*
X93169654Y-59331899D01*
X93174910Y-59332655D01*
X93174916Y-59332656D01*
X93220733Y-59339243D01*
X93220736Y-59339243D01*
X93226000Y-59340000D01*
X94191000Y-59340000D01*
X94265500Y-59359962D01*
X94320038Y-59414500D01*
X94340000Y-59489000D01*
X94340000Y-62704000D01*
X94344570Y-62746512D01*
X94355956Y-62798854D01*
X94358378Y-62808762D01*
X94400236Y-62887314D01*
X94446729Y-62940970D01*
X94463851Y-62958445D01*
X94473155Y-62963649D01*
X94473156Y-62963650D01*
X94491122Y-62973699D01*
X94541533Y-63001897D01*
X94609654Y-63021899D01*
X94614910Y-63022655D01*
X94614916Y-63022656D01*
X94660733Y-63029243D01*
X94660736Y-63029243D01*
X94666000Y-63030000D01*
X103974000Y-63030000D01*
X104016512Y-63025430D01*
X104049047Y-63018353D01*
X104067903Y-63014251D01*
X104067912Y-63014249D01*
X104068854Y-63014044D01*
X104078762Y-63011622D01*
X104117779Y-62990831D01*
X104149930Y-62973699D01*
X104149932Y-62973698D01*
X104157314Y-62969764D01*
X104210970Y-62923271D01*
X104228445Y-62906149D01*
X104235444Y-62893637D01*
X104267815Y-62835765D01*
X104267816Y-62835764D01*
X104271897Y-62828467D01*
X104291899Y-62760346D01*
X104294460Y-62742539D01*
X104299243Y-62709267D01*
X104299243Y-62709264D01*
X104300000Y-62704000D01*
X104300000Y-55959000D01*
X104319962Y-55884500D01*
X104374500Y-55829962D01*
X104449000Y-55810000D01*
X106262042Y-55810000D01*
X106313128Y-55803365D01*
X106317777Y-55802137D01*
X106317781Y-55802136D01*
X106385423Y-55784265D01*
X106385427Y-55784264D01*
X106386721Y-55783922D01*
X106387979Y-55783541D01*
X106387994Y-55783537D01*
X106391077Y-55782604D01*
X106391080Y-55782603D01*
X106400363Y-55779793D01*
X106476060Y-55732968D01*
X106530979Y-55678815D01*
X106541230Y-55667921D01*
X106583371Y-55589521D01*
X106603855Y-55515163D01*
X106611033Y-55463450D01*
X106621565Y-53962690D01*
X106628911Y-52915950D01*
X106628911Y-52915943D01*
X106628945Y-52911037D01*
X106625874Y-52886579D01*
X106622998Y-52863684D01*
X106622997Y-52863679D01*
X106622386Y-52858814D01*
X106602632Y-52783623D01*
X106598154Y-52768906D01*
X106570343Y-52724374D01*
X106555437Y-52700505D01*
X106555437Y-52700504D01*
X106551006Y-52693410D01*
X106496619Y-52638723D01*
X106485683Y-52628520D01*
X106477058Y-52623931D01*
X106414493Y-52590644D01*
X106414491Y-52590643D01*
X106407104Y-52586713D01*
X106399028Y-52584525D01*
X106399025Y-52584524D01*
X106337379Y-52567824D01*
X106337373Y-52567823D01*
X106332660Y-52566546D01*
X106299709Y-52562116D01*
X106285759Y-52560240D01*
X106285755Y-52560240D01*
X106280915Y-52559589D01*
X105903118Y-52558550D01*
X105828674Y-52538383D01*
X105774287Y-52483696D01*
X105754530Y-52409141D01*
X105774697Y-52334696D01*
X105798170Y-52304192D01*
X105919681Y-52182681D01*
X106042976Y-52006596D01*
X106133822Y-51811777D01*
X106189458Y-51604142D01*
X106208193Y-51390000D01*
X106189458Y-51175858D01*
X106133822Y-50968223D01*
X106042976Y-50773404D01*
X105919681Y-50597319D01*
X105767681Y-50445319D01*
X105700682Y-50398406D01*
X105596929Y-50325757D01*
X105596925Y-50325755D01*
X105591597Y-50322024D01*
X105396777Y-50231178D01*
X105386115Y-50228321D01*
X105195420Y-50177224D01*
X105195418Y-50177224D01*
X105189142Y-50175542D01*
X105182671Y-50174976D01*
X105182666Y-50174975D01*
X104981481Y-50157374D01*
X104975000Y-50156807D01*
X104968519Y-50157374D01*
X104767334Y-50174975D01*
X104767329Y-50174976D01*
X104760858Y-50175542D01*
X104754582Y-50177224D01*
X104754580Y-50177224D01*
X104563885Y-50228321D01*
X104553223Y-50231178D01*
X104358404Y-50322024D01*
X104182319Y-50445319D01*
X104030319Y-50597319D01*
X103907024Y-50773404D01*
X103816178Y-50968223D01*
X103760542Y-51175858D01*
X103741807Y-51390000D01*
X103760542Y-51604142D01*
X103816178Y-51811777D01*
X103907024Y-52006596D01*
X104030319Y-52182681D01*
X104112779Y-52265141D01*
X104151343Y-52331936D01*
X104151343Y-52409064D01*
X104112779Y-52475859D01*
X104045984Y-52514423D01*
X104007420Y-52519500D01*
X101752580Y-52519500D01*
X101678080Y-52499538D01*
X101623542Y-52445000D01*
X101603580Y-52370500D01*
X101623542Y-52296000D01*
X101647221Y-52265141D01*
X101729681Y-52182681D01*
X101852976Y-52006596D01*
X101943822Y-51811777D01*
X101999458Y-51604142D01*
X102018193Y-51390000D01*
X101999458Y-51175858D01*
X101943822Y-50968223D01*
X101852976Y-50773404D01*
X101729681Y-50597319D01*
X101577681Y-50445319D01*
X101510682Y-50398406D01*
X101406929Y-50325757D01*
X101406925Y-50325755D01*
X101401597Y-50322024D01*
X101206777Y-50231178D01*
X101196115Y-50228321D01*
X101005420Y-50177224D01*
X101005418Y-50177224D01*
X100999142Y-50175542D01*
X100992671Y-50174976D01*
X100992666Y-50174975D01*
X100791481Y-50157374D01*
X100785000Y-50156807D01*
X100778519Y-50157374D01*
X100577334Y-50174975D01*
X100577329Y-50174976D01*
X100570858Y-50175542D01*
X100564582Y-50177224D01*
X100564580Y-50177224D01*
X100373885Y-50228321D01*
X100363223Y-50231178D01*
X100168404Y-50322024D01*
X99992319Y-50445319D01*
X99840319Y-50597319D01*
X99717024Y-50773404D01*
X99626178Y-50968223D01*
X99570542Y-51175858D01*
X99551807Y-51390000D01*
X99570542Y-51604142D01*
X99626178Y-51811777D01*
X99717024Y-52006596D01*
X99840319Y-52182681D01*
X99922779Y-52265141D01*
X99961343Y-52331936D01*
X99961343Y-52409064D01*
X99922779Y-52475859D01*
X99855984Y-52514423D01*
X99817420Y-52519500D01*
X97562580Y-52519500D01*
X97488080Y-52499538D01*
X97433542Y-52445000D01*
X97413580Y-52370500D01*
X97433542Y-52296000D01*
X97457221Y-52265141D01*
X97539681Y-52182681D01*
X97662976Y-52006596D01*
X97753822Y-51811777D01*
X97809458Y-51604142D01*
X97828193Y-51390000D01*
X97809458Y-51175858D01*
X97753822Y-50968223D01*
X97662976Y-50773404D01*
X97539681Y-50597319D01*
X97387681Y-50445319D01*
X97320682Y-50398406D01*
X97216929Y-50325757D01*
X97216925Y-50325755D01*
X97211597Y-50322024D01*
X97016777Y-50231178D01*
X97006115Y-50228321D01*
X96815420Y-50177224D01*
X96815418Y-50177224D01*
X96809142Y-50175542D01*
X96802671Y-50174976D01*
X96802666Y-50174975D01*
X96601481Y-50157374D01*
X96595000Y-50156807D01*
X96588519Y-50157374D01*
X96387334Y-50174975D01*
X96387329Y-50174976D01*
X96380858Y-50175542D01*
X96374582Y-50177224D01*
X96374580Y-50177224D01*
X96183885Y-50228321D01*
X96173223Y-50231178D01*
X95978404Y-50322024D01*
X95802319Y-50445319D01*
X95650319Y-50597319D01*
X95527024Y-50773404D01*
X95436178Y-50968223D01*
X95380542Y-51175858D01*
X95361807Y-51390000D01*
X95380542Y-51604142D01*
X95436178Y-51811777D01*
X95527024Y-52006596D01*
X95650319Y-52182681D01*
X95732779Y-52265141D01*
X95771343Y-52331936D01*
X95771343Y-52409064D01*
X95732779Y-52475859D01*
X95665984Y-52514423D01*
X95627420Y-52519500D01*
X93372580Y-52519500D01*
X93298080Y-52499538D01*
X93243542Y-52445000D01*
X93223580Y-52370500D01*
X93243542Y-52296000D01*
X93267221Y-52265141D01*
X93349681Y-52182681D01*
X93472976Y-52006596D01*
X93563822Y-51811777D01*
X93619458Y-51604142D01*
X93638193Y-51390000D01*
X93619458Y-51175858D01*
X93563822Y-50968223D01*
X93472976Y-50773404D01*
X93349681Y-50597319D01*
X93197681Y-50445319D01*
X93130682Y-50398406D01*
X93026929Y-50325757D01*
X93026925Y-50325755D01*
X93021597Y-50322024D01*
X92826777Y-50231178D01*
X92816115Y-50228321D01*
X92625420Y-50177224D01*
X92625418Y-50177224D01*
X92619142Y-50175542D01*
X92612671Y-50174976D01*
X92612666Y-50174975D01*
X92411481Y-50157374D01*
X92405000Y-50156807D01*
X92398519Y-50157374D01*
X92197334Y-50174975D01*
X92197329Y-50174976D01*
X92190858Y-50175542D01*
X92184582Y-50177224D01*
X92184580Y-50177224D01*
X91993885Y-50228321D01*
X91983223Y-50231178D01*
X91788404Y-50322024D01*
X91612319Y-50445319D01*
X91460319Y-50597319D01*
X91337024Y-50773404D01*
X91246178Y-50968223D01*
X91190542Y-51175858D01*
X91171807Y-51390000D01*
X91190542Y-51604142D01*
X91246178Y-51811777D01*
X91337024Y-52006596D01*
X91460319Y-52182681D01*
X91612319Y-52334681D01*
X91617645Y-52338410D01*
X91691146Y-52389876D01*
X91740723Y-52448960D01*
X91754116Y-52524916D01*
X91727737Y-52597393D01*
X91705518Y-52622271D01*
X91704179Y-52623307D01*
X91700754Y-52626757D01*
X91700741Y-52626769D01*
X91624758Y-52703319D01*
X91600602Y-52723026D01*
X91598767Y-52724227D01*
X91593746Y-52727513D01*
X91589032Y-52731758D01*
X91552864Y-52767926D01*
X91544471Y-52775698D01*
X91503125Y-52811136D01*
X91498499Y-52817100D01*
X91498497Y-52817102D01*
X91486295Y-52832833D01*
X91473921Y-52846869D01*
X90634033Y-53686757D01*
X90631050Y-53689658D01*
X90571765Y-53745721D01*
X90567437Y-53751902D01*
X90539505Y-53791793D01*
X90532921Y-53800498D01*
X90524673Y-53810611D01*
X90514978Y-53821382D01*
X90451304Y-53885532D01*
X90434353Y-53904971D01*
X90434210Y-53904847D01*
X90372458Y-53949318D01*
X90295719Y-53957057D01*
X90262695Y-53947677D01*
X90233649Y-53935663D01*
X90233648Y-53935663D01*
X90226877Y-53932862D01*
X90219694Y-53931437D01*
X90219691Y-53931436D01*
X90135175Y-53914668D01*
X90135166Y-53914667D01*
X90131579Y-53913955D01*
X90127944Y-53913599D01*
X90127939Y-53913598D01*
X90115998Y-53912428D01*
X90092560Y-53910131D01*
X87479777Y-53911408D01*
X86074800Y-53912094D01*
X86000290Y-53892168D01*
X85945726Y-53837657D01*
X85925727Y-53763167D01*
X85945653Y-53688657D01*
X85969368Y-53657735D01*
X86403394Y-53223709D01*
X86416507Y-53212056D01*
X86433364Y-53198767D01*
X86433364Y-53198766D01*
X86442110Y-53191872D01*
X86448444Y-53182708D01*
X86475259Y-53143910D01*
X86477980Y-53140102D01*
X86506017Y-53102143D01*
X86506018Y-53102142D01*
X86512634Y-53093184D01*
X86515027Y-53086368D01*
X86519131Y-53080431D01*
X86536715Y-53024832D01*
X86538194Y-53020398D01*
X86557519Y-52965369D01*
X86557802Y-52958155D01*
X86559980Y-52951270D01*
X86560500Y-52944663D01*
X86560500Y-52892429D01*
X86560615Y-52886579D01*
X86562401Y-52841133D01*
X86562401Y-52841131D01*
X86562838Y-52830006D01*
X86560880Y-52822621D01*
X86560500Y-52815718D01*
X86560500Y-51390000D01*
X86981807Y-51390000D01*
X87000542Y-51604142D01*
X87056178Y-51811777D01*
X87147024Y-52006596D01*
X87270319Y-52182681D01*
X87422319Y-52334681D01*
X87427645Y-52338410D01*
X87593071Y-52454243D01*
X87593075Y-52454245D01*
X87598403Y-52457976D01*
X87793223Y-52548822D01*
X87799504Y-52550505D01*
X87994580Y-52602776D01*
X87994582Y-52602776D01*
X88000858Y-52604458D01*
X88007329Y-52605024D01*
X88007334Y-52605025D01*
X88208519Y-52622626D01*
X88215000Y-52623193D01*
X88221481Y-52622626D01*
X88422666Y-52605025D01*
X88422671Y-52605024D01*
X88429142Y-52604458D01*
X88435418Y-52602776D01*
X88435420Y-52602776D01*
X88630496Y-52550505D01*
X88636777Y-52548822D01*
X88831597Y-52457976D01*
X88836925Y-52454245D01*
X88836929Y-52454243D01*
X89002355Y-52338410D01*
X89007681Y-52334681D01*
X89159681Y-52182681D01*
X89282976Y-52006596D01*
X89373822Y-51811777D01*
X89429458Y-51604142D01*
X89448193Y-51390000D01*
X89429458Y-51175858D01*
X89373822Y-50968223D01*
X89282976Y-50773404D01*
X89159681Y-50597319D01*
X89007681Y-50445319D01*
X88940682Y-50398406D01*
X88836929Y-50325757D01*
X88836925Y-50325755D01*
X88831597Y-50322024D01*
X88636777Y-50231178D01*
X88626115Y-50228321D01*
X88435420Y-50177224D01*
X88435418Y-50177224D01*
X88429142Y-50175542D01*
X88422671Y-50174976D01*
X88422666Y-50174975D01*
X88221481Y-50157374D01*
X88215000Y-50156807D01*
X88208519Y-50157374D01*
X88007334Y-50174975D01*
X88007329Y-50174976D01*
X88000858Y-50175542D01*
X87994582Y-50177224D01*
X87994580Y-50177224D01*
X87803885Y-50228321D01*
X87793223Y-50231178D01*
X87598404Y-50322024D01*
X87422319Y-50445319D01*
X87270319Y-50597319D01*
X87147024Y-50773404D01*
X87056178Y-50968223D01*
X87000542Y-51175858D01*
X86981807Y-51390000D01*
X86560500Y-51390000D01*
X86560500Y-50228321D01*
X86580462Y-50153821D01*
X86604141Y-50122962D01*
X87462962Y-49264141D01*
X87529757Y-49225577D01*
X87568321Y-49220500D01*
X96059428Y-49220500D01*
X96076941Y-49221533D01*
X96109310Y-49225364D01*
X96120266Y-49223363D01*
X96120269Y-49223363D01*
X96166668Y-49214889D01*
X96171284Y-49214121D01*
X96217943Y-49207106D01*
X96217945Y-49207105D01*
X96228962Y-49205449D01*
X96235475Y-49202321D01*
X96242573Y-49201025D01*
X96294313Y-49174148D01*
X96298465Y-49172074D01*
X96351079Y-49146809D01*
X96356383Y-49141906D01*
X96362788Y-49138579D01*
X96367828Y-49134275D01*
X96404760Y-49097343D01*
X96408978Y-49093288D01*
X96442377Y-49062415D01*
X96442378Y-49062413D01*
X96450556Y-49054854D01*
X96454394Y-49048246D01*
X96459005Y-49043098D01*
X96888394Y-48613709D01*
X96901507Y-48602056D01*
X96918364Y-48588767D01*
X96918364Y-48588766D01*
X96927110Y-48581872D01*
X96960256Y-48533914D01*
X96962974Y-48530110D01*
X96991018Y-48492142D01*
X96991019Y-48492141D01*
X96997635Y-48483183D01*
X97000029Y-48476366D01*
X97004131Y-48470431D01*
X97011633Y-48446712D01*
X97021706Y-48414861D01*
X97023172Y-48410464D01*
X97042520Y-48355369D01*
X97042804Y-48348152D01*
X97044980Y-48341270D01*
X97045500Y-48334663D01*
X97045500Y-48282439D01*
X97045615Y-48276590D01*
X97047401Y-48231133D01*
X97047401Y-48231132D01*
X97047838Y-48220006D01*
X97045880Y-48212622D01*
X97045500Y-48205717D01*
X97045500Y-46280352D01*
X97065462Y-46205852D01*
X97120000Y-46151314D01*
X97131530Y-46145312D01*
X97205697Y-46110727D01*
X97211597Y-46107976D01*
X97216925Y-46104245D01*
X97216929Y-46104243D01*
X97382355Y-45988410D01*
X97387681Y-45984681D01*
X97539681Y-45832681D01*
X97662976Y-45656596D01*
X97753822Y-45461777D01*
X97809458Y-45254142D01*
X97828193Y-45040000D01*
X103741807Y-45040000D01*
X103760542Y-45254142D01*
X103816178Y-45461777D01*
X103907024Y-45656596D01*
X104030319Y-45832681D01*
X104182319Y-45984681D01*
X104187645Y-45988410D01*
X104353071Y-46104243D01*
X104353075Y-46104245D01*
X104358403Y-46107976D01*
X104553223Y-46198822D01*
X104559504Y-46200505D01*
X104754580Y-46252776D01*
X104754582Y-46252776D01*
X104760858Y-46254458D01*
X104767329Y-46255024D01*
X104767334Y-46255025D01*
X104968519Y-46272626D01*
X104975000Y-46273193D01*
X104981481Y-46272626D01*
X105182666Y-46255025D01*
X105182671Y-46255024D01*
X105189142Y-46254458D01*
X105195418Y-46252776D01*
X105195420Y-46252776D01*
X105390496Y-46200505D01*
X105396777Y-46198822D01*
X105591597Y-46107976D01*
X105596925Y-46104245D01*
X105596929Y-46104243D01*
X105762355Y-45988410D01*
X105767681Y-45984681D01*
X105919681Y-45832681D01*
X106042976Y-45656596D01*
X106133822Y-45461777D01*
X106189458Y-45254142D01*
X106208193Y-45040000D01*
X106189458Y-44825858D01*
X106133822Y-44618223D01*
X106042976Y-44423404D01*
X105919681Y-44247319D01*
X105767681Y-44095319D01*
X105610239Y-43985077D01*
X105596929Y-43975757D01*
X105596925Y-43975755D01*
X105591597Y-43972024D01*
X105396777Y-43881178D01*
X105345536Y-43867448D01*
X105195420Y-43827224D01*
X105195418Y-43827224D01*
X105189142Y-43825542D01*
X105182671Y-43824976D01*
X105182666Y-43824975D01*
X104981481Y-43807374D01*
X104975000Y-43806807D01*
X104968519Y-43807374D01*
X104767334Y-43824975D01*
X104767329Y-43824976D01*
X104760858Y-43825542D01*
X104754582Y-43827224D01*
X104754580Y-43827224D01*
X104604464Y-43867448D01*
X104553223Y-43881178D01*
X104358404Y-43972024D01*
X104182319Y-44095319D01*
X104030319Y-44247319D01*
X103907024Y-44423404D01*
X103816178Y-44618223D01*
X103760542Y-44825858D01*
X103741807Y-45040000D01*
X97828193Y-45040000D01*
X97809458Y-44825858D01*
X97753822Y-44618223D01*
X97662976Y-44423404D01*
X97539681Y-44247319D01*
X97387681Y-44095319D01*
X97230239Y-43985077D01*
X97216929Y-43975757D01*
X97216925Y-43975755D01*
X97211597Y-43972024D01*
X97016777Y-43881178D01*
X96965536Y-43867448D01*
X96815420Y-43827224D01*
X96815418Y-43827224D01*
X96809142Y-43825542D01*
X96802671Y-43824976D01*
X96802666Y-43824975D01*
X96601481Y-43807374D01*
X96595000Y-43806807D01*
X96588519Y-43807374D01*
X96387334Y-43824975D01*
X96387329Y-43824976D01*
X96380858Y-43825542D01*
X96374582Y-43827224D01*
X96374580Y-43827224D01*
X96224464Y-43867448D01*
X96173223Y-43881178D01*
X95978404Y-43972024D01*
X95802319Y-44095319D01*
X95650319Y-44247319D01*
X95527024Y-44423404D01*
X95436178Y-44618223D01*
X95380542Y-44825858D01*
X95361807Y-45040000D01*
X95380542Y-45254142D01*
X95436178Y-45461777D01*
X95527024Y-45656596D01*
X95650319Y-45832681D01*
X95802319Y-45984681D01*
X95807645Y-45988410D01*
X95973071Y-46104243D01*
X95973075Y-46104245D01*
X95978403Y-46107976D01*
X95984303Y-46110727D01*
X96058470Y-46145312D01*
X96117554Y-46194889D01*
X96143933Y-46267366D01*
X96144500Y-46280352D01*
X96144500Y-48021679D01*
X96124538Y-48096179D01*
X96100859Y-48127038D01*
X95952038Y-48275859D01*
X95885243Y-48314423D01*
X95846679Y-48319500D01*
X87355571Y-48319500D01*
X87338058Y-48318467D01*
X87316749Y-48315945D01*
X87305689Y-48314636D01*
X87294733Y-48316637D01*
X87248347Y-48325109D01*
X87243726Y-48325878D01*
X87186038Y-48334551D01*
X87179525Y-48337679D01*
X87172427Y-48338975D01*
X87120681Y-48365854D01*
X87116529Y-48367929D01*
X87063921Y-48393191D01*
X87058618Y-48398093D01*
X87052211Y-48401421D01*
X87047172Y-48405725D01*
X87010240Y-48442657D01*
X87006022Y-48446712D01*
X86972623Y-48477585D01*
X86972622Y-48477587D01*
X86964444Y-48485146D01*
X86960606Y-48491754D01*
X86955995Y-48496902D01*
X86297087Y-49155810D01*
X86230292Y-49194374D01*
X86153164Y-49194374D01*
X86086369Y-49155810D01*
X86059100Y-49128541D01*
X86048136Y-49118367D01*
X86000683Y-49093288D01*
X85976839Y-49080686D01*
X85976837Y-49080685D01*
X85969442Y-49076777D01*
X85961364Y-49074612D01*
X85961360Y-49074611D01*
X85899650Y-49058076D01*
X85899643Y-49058075D01*
X85894942Y-49056815D01*
X85866972Y-49053133D01*
X85848020Y-49050637D01*
X85848015Y-49050637D01*
X85843179Y-49050000D01*
X82762259Y-49050000D01*
X82687759Y-49030038D01*
X82633221Y-48975500D01*
X82628926Y-48959471D01*
X82790000Y-48960000D01*
X82789320Y-48442657D01*
X82786648Y-46412339D01*
X82806512Y-46337813D01*
X82860978Y-46283203D01*
X82935452Y-46263143D01*
X82964717Y-46266007D01*
X82977252Y-46268500D01*
X85072748Y-46268500D01*
X85079921Y-46267073D01*
X85079923Y-46267073D01*
X85116834Y-46259731D01*
X85116835Y-46259731D01*
X85131231Y-46256867D01*
X85197552Y-46212552D01*
X85206726Y-46198822D01*
X85233712Y-46158436D01*
X85233712Y-46158435D01*
X85241867Y-46146231D01*
X85249477Y-46107976D01*
X85252073Y-46094923D01*
X85252073Y-46094921D01*
X85253500Y-46087748D01*
X85253500Y-45040000D01*
X86981807Y-45040000D01*
X87000542Y-45254142D01*
X87056178Y-45461777D01*
X87147024Y-45656596D01*
X87270319Y-45832681D01*
X87422319Y-45984681D01*
X87427645Y-45988410D01*
X87593071Y-46104243D01*
X87593075Y-46104245D01*
X87598403Y-46107976D01*
X87793223Y-46198822D01*
X87799504Y-46200505D01*
X87994580Y-46252776D01*
X87994582Y-46252776D01*
X88000858Y-46254458D01*
X88007329Y-46255024D01*
X88007334Y-46255025D01*
X88208519Y-46272626D01*
X88215000Y-46273193D01*
X88221481Y-46272626D01*
X88422666Y-46255025D01*
X88422671Y-46255024D01*
X88429142Y-46254458D01*
X88435418Y-46252776D01*
X88435420Y-46252776D01*
X88630496Y-46200505D01*
X88636777Y-46198822D01*
X88831597Y-46107976D01*
X88836925Y-46104245D01*
X88836929Y-46104243D01*
X89002355Y-45988410D01*
X89007681Y-45984681D01*
X89159681Y-45832681D01*
X89282976Y-45656596D01*
X89373822Y-45461777D01*
X89429458Y-45254142D01*
X89448193Y-45040000D01*
X91171807Y-45040000D01*
X91190542Y-45254142D01*
X91246178Y-45461777D01*
X91337024Y-45656596D01*
X91460319Y-45832681D01*
X91612319Y-45984681D01*
X91617645Y-45988410D01*
X91783071Y-46104243D01*
X91783075Y-46104245D01*
X91788403Y-46107976D01*
X91983223Y-46198822D01*
X91989504Y-46200505D01*
X92184580Y-46252776D01*
X92184582Y-46252776D01*
X92190858Y-46254458D01*
X92197329Y-46255024D01*
X92197334Y-46255025D01*
X92398519Y-46272626D01*
X92405000Y-46273193D01*
X92411481Y-46272626D01*
X92612666Y-46255025D01*
X92612671Y-46255024D01*
X92619142Y-46254458D01*
X92625418Y-46252776D01*
X92625420Y-46252776D01*
X92820496Y-46200505D01*
X92826777Y-46198822D01*
X93021597Y-46107976D01*
X93026925Y-46104245D01*
X93026929Y-46104243D01*
X93192355Y-45988410D01*
X93197681Y-45984681D01*
X93349681Y-45832681D01*
X93472976Y-45656596D01*
X93563822Y-45461777D01*
X93619458Y-45254142D01*
X93638193Y-45040000D01*
X93619458Y-44825858D01*
X93563822Y-44618223D01*
X93472976Y-44423404D01*
X93349681Y-44247319D01*
X93197681Y-44095319D01*
X93040239Y-43985077D01*
X93026929Y-43975757D01*
X93026925Y-43975755D01*
X93021597Y-43972024D01*
X92826777Y-43881178D01*
X92775536Y-43867448D01*
X92625420Y-43827224D01*
X92625418Y-43827224D01*
X92619142Y-43825542D01*
X92612671Y-43824976D01*
X92612666Y-43824975D01*
X92411481Y-43807374D01*
X92405000Y-43806807D01*
X92398519Y-43807374D01*
X92197334Y-43824975D01*
X92197329Y-43824976D01*
X92190858Y-43825542D01*
X92184582Y-43827224D01*
X92184580Y-43827224D01*
X92034464Y-43867448D01*
X91983223Y-43881178D01*
X91788404Y-43972024D01*
X91612319Y-44095319D01*
X91460319Y-44247319D01*
X91337024Y-44423404D01*
X91246178Y-44618223D01*
X91190542Y-44825858D01*
X91171807Y-45040000D01*
X89448193Y-45040000D01*
X89429458Y-44825858D01*
X89373822Y-44618223D01*
X89282976Y-44423404D01*
X89159681Y-44247319D01*
X89007681Y-44095319D01*
X88850239Y-43985077D01*
X88836929Y-43975757D01*
X88836925Y-43975755D01*
X88831597Y-43972024D01*
X88636777Y-43881178D01*
X88585536Y-43867448D01*
X88435420Y-43827224D01*
X88435418Y-43827224D01*
X88429142Y-43825542D01*
X88422671Y-43824976D01*
X88422666Y-43824975D01*
X88221481Y-43807374D01*
X88215000Y-43806807D01*
X88208519Y-43807374D01*
X88007334Y-43824975D01*
X88007329Y-43824976D01*
X88000858Y-43825542D01*
X87994582Y-43827224D01*
X87994580Y-43827224D01*
X87844464Y-43867448D01*
X87793223Y-43881178D01*
X87598404Y-43972024D01*
X87422319Y-44095319D01*
X87270319Y-44247319D01*
X87147024Y-44423404D01*
X87056178Y-44618223D01*
X87000542Y-44825858D01*
X86981807Y-45040000D01*
X85253500Y-45040000D01*
X85253500Y-43992252D01*
X85250219Y-43975755D01*
X85244731Y-43948166D01*
X85244731Y-43948165D01*
X85241867Y-43933769D01*
X85208563Y-43883926D01*
X85205706Y-43879651D01*
X85197552Y-43867448D01*
X85131231Y-43823133D01*
X85116835Y-43820269D01*
X85116834Y-43820269D01*
X85079923Y-43812927D01*
X85079921Y-43812927D01*
X85072748Y-43811500D01*
X82977252Y-43811500D01*
X82970079Y-43812927D01*
X82970077Y-43812927D01*
X82965047Y-43813928D01*
X82961109Y-43814711D01*
X82884147Y-43809669D01*
X82820016Y-43766820D01*
X82785902Y-43697647D01*
X82783038Y-43668771D01*
X82781893Y-42798905D01*
X82781839Y-42757786D01*
X82781696Y-42649195D01*
X82801560Y-42574670D01*
X82856026Y-42520060D01*
X82930696Y-42500000D01*
X108949520Y-42500000D01*
X108972442Y-42501774D01*
G37*
%TD.AperFunction*%
%TA.AperFunction,Conductor*%
G36*
X81439385Y-57900095D02*
G01*
X81456293Y-57903229D01*
X81456367Y-57903242D01*
X81456760Y-57903315D01*
X81461914Y-57904201D01*
X81462434Y-57904283D01*
X81462462Y-57904288D01*
X81466168Y-57904875D01*
X81474792Y-57906241D01*
X81476958Y-57906555D01*
X81479467Y-57906919D01*
X81479502Y-57906924D01*
X81479986Y-57906994D01*
X81489157Y-57908201D01*
X81489947Y-57908305D01*
X81489947Y-57908306D01*
X81501705Y-57909853D01*
X81505290Y-57910325D01*
X81525573Y-57914482D01*
X81526516Y-57914777D01*
X81528200Y-57915195D01*
X81529806Y-57915712D01*
X81530615Y-57915919D01*
X81550013Y-57923058D01*
X81573333Y-57933587D01*
X81578131Y-57935678D01*
X81582738Y-57937615D01*
X81589675Y-57940531D01*
X81589719Y-57940549D01*
X81590135Y-57940724D01*
X81594986Y-57942689D01*
X81595456Y-57942872D01*
X81595473Y-57942879D01*
X81618785Y-57951968D01*
X81637449Y-57960824D01*
X81638244Y-57961305D01*
X81639779Y-57962112D01*
X81641261Y-57963026D01*
X81642045Y-57963446D01*
X81659176Y-57975006D01*
X81679283Y-57990772D01*
X81683448Y-57993950D01*
X81693916Y-58001724D01*
X81698159Y-58004790D01*
X81712619Y-58014952D01*
X81739217Y-58038902D01*
X81746274Y-58046991D01*
X81750827Y-58052034D01*
X81762355Y-58064376D01*
X81762771Y-58064807D01*
X81762799Y-58064836D01*
X81766655Y-58068826D01*
X81767089Y-58069275D01*
X81770385Y-58072571D01*
X81783235Y-58087224D01*
X81788262Y-58093775D01*
X81788582Y-58094179D01*
X81788611Y-58094216D01*
X81790990Y-58097217D01*
X81792166Y-58098701D01*
X81802067Y-58110797D01*
X81803300Y-58112256D01*
X81803866Y-58112926D01*
X81813980Y-58126367D01*
X81815458Y-58128581D01*
X81816920Y-58130959D01*
X81817280Y-58131457D01*
X81820693Y-58136039D01*
X81821065Y-58136524D01*
X81821078Y-58136541D01*
X81823004Y-58139052D01*
X81841219Y-58169855D01*
X81875419Y-58247765D01*
X81885766Y-58282036D01*
X81900395Y-58365855D01*
X81902269Y-58401601D01*
X81899657Y-58439915D01*
X81896481Y-58486489D01*
X81889773Y-58521653D01*
X81863905Y-58602708D01*
X81849005Y-58635252D01*
X81811176Y-58696986D01*
X81804549Y-58707800D01*
X81782312Y-58735857D01*
X81756809Y-58761094D01*
X81721836Y-58795702D01*
X81693549Y-58817643D01*
X81620544Y-58861336D01*
X81587839Y-58875898D01*
X81506515Y-58900916D01*
X81471283Y-58907256D01*
X81400370Y-58911344D01*
X81400366Y-58911344D01*
X81386343Y-58912153D01*
X81350613Y-58909905D01*
X81340435Y-58908018D01*
X81338721Y-58907781D01*
X81338715Y-58907780D01*
X81323986Y-58905743D01*
X81323971Y-58905741D01*
X81322284Y-58905508D01*
X81276908Y-58901339D01*
X81267675Y-58900916D01*
X81260299Y-58900577D01*
X81260280Y-58900577D01*
X81258610Y-58900500D01*
X73626697Y-58900500D01*
X73607250Y-58899225D01*
X73587618Y-58896640D01*
X73542491Y-58890700D01*
X73507816Y-58881796D01*
X73455339Y-58861336D01*
X73428545Y-58850889D01*
X73396996Y-58833973D01*
X73327386Y-58785051D01*
X73300779Y-58761094D01*
X73271381Y-58727394D01*
X73271380Y-58727392D01*
X73244852Y-58696983D01*
X73224731Y-58667377D01*
X73202764Y-58624816D01*
X73202763Y-58624813D01*
X73185705Y-58591763D01*
X73173227Y-58558211D01*
X73154588Y-58480577D01*
X73153363Y-58475476D01*
X73149249Y-58439915D01*
X73149695Y-58354841D01*
X73154182Y-58319324D01*
X73174910Y-58236802D01*
X73187740Y-58203379D01*
X73205490Y-58169855D01*
X73227549Y-58128192D01*
X73247981Y-58098795D01*
X73287043Y-58054954D01*
X73287057Y-58054937D01*
X73304583Y-58035266D01*
X73331435Y-58011593D01*
X73362118Y-57990505D01*
X73401556Y-57963400D01*
X73433281Y-57946815D01*
X73512872Y-57916741D01*
X73547635Y-57908201D01*
X73610618Y-57900579D01*
X73628519Y-57899500D01*
X81362062Y-57899500D01*
X81362457Y-57899494D01*
X81362504Y-57899494D01*
X81367364Y-57899424D01*
X81367415Y-57899423D01*
X81367823Y-57899417D01*
X81368270Y-57899404D01*
X81368321Y-57899403D01*
X81381571Y-57899021D01*
X81381597Y-57899020D01*
X81382155Y-57899004D01*
X81382637Y-57898983D01*
X81382697Y-57898981D01*
X81386685Y-57898808D01*
X81387907Y-57898755D01*
X81388363Y-57898729D01*
X81388377Y-57898728D01*
X81403657Y-57897847D01*
X81439385Y-57900095D01*
G37*
%TD.AperFunction*%
%TD*%
M02*
