%TF.GenerationSoftware,KiCad,Pcbnew,(6.0.2)*%
%TF.CreationDate,2022-06-02T13:11:00-06:00*%
%TF.ProjectId,RGB-controller,5247422d-636f-46e7-9472-6f6c6c65722e,rev?*%
%TF.SameCoordinates,Original*%
%TF.FileFunction,Legend,Top*%
%TF.FilePolarity,Positive*%
%FSLAX46Y46*%
G04 Gerber Fmt 4.6, Leading zero omitted, Abs format (unit mm)*
G04 Created by KiCad (PCBNEW (6.0.2)) date 2022-06-02 13:11:00*
%MOMM*%
%LPD*%
G01*
G04 APERTURE LIST*
G04 Aperture macros list*
%AMRoundRect*
0 Rectangle with rounded corners*
0 $1 Rounding radius*
0 $2 $3 $4 $5 $6 $7 $8 $9 X,Y pos of 4 corners*
0 Add a 4 corners polygon primitive as box body*
4,1,4,$2,$3,$4,$5,$6,$7,$8,$9,$2,$3,0*
0 Add four circle primitives for the rounded corners*
1,1,$1+$1,$2,$3*
1,1,$1+$1,$4,$5*
1,1,$1+$1,$6,$7*
1,1,$1+$1,$8,$9*
0 Add four rect primitives between the rounded corners*
20,1,$1+$1,$2,$3,$4,$5,0*
20,1,$1+$1,$4,$5,$6,$7,0*
20,1,$1+$1,$6,$7,$8,$9,0*
20,1,$1+$1,$8,$9,$2,$3,0*%
%AMRotRect*
0 Rectangle, with rotation*
0 The origin of the aperture is its center*
0 $1 length*
0 $2 width*
0 $3 Rotation angle, in degrees counterclockwise*
0 Add horizontal line*
21,1,$1,$2,0,0,$3*%
G04 Aperture macros list end*
%ADD10C,0.150000*%
%ADD11C,0.125000*%
%ADD12C,0.120000*%
%ADD13C,0.127000*%
%ADD14C,0.254000*%
%ADD15RoundRect,0.250000X0.475000X-0.250000X0.475000X0.250000X-0.475000X0.250000X-0.475000X-0.250000X0*%
%ADD16RoundRect,0.200000X-0.275000X0.200000X-0.275000X-0.200000X0.275000X-0.200000X0.275000X0.200000X0*%
%ADD17RoundRect,0.140000X0.140000X0.170000X-0.140000X0.170000X-0.140000X-0.170000X0.140000X-0.170000X0*%
%ADD18RoundRect,0.250000X0.250000X0.475000X-0.250000X0.475000X-0.250000X-0.475000X0.250000X-0.475000X0*%
%ADD19RoundRect,0.140000X-0.140000X-0.170000X0.140000X-0.170000X0.140000X0.170000X-0.140000X0.170000X0*%
%ADD20R,5.700000X1.600000*%
%ADD21RoundRect,0.250000X-0.475000X0.250000X-0.475000X-0.250000X0.475000X-0.250000X0.475000X0.250000X0*%
%ADD22RoundRect,0.140000X-0.021213X0.219203X-0.219203X0.021213X0.021213X-0.219203X0.219203X-0.021213X0*%
%ADD23RoundRect,0.135000X0.135000X0.185000X-0.135000X0.185000X-0.135000X-0.185000X0.135000X-0.185000X0*%
%ADD24C,1.000000*%
%ADD25R,1.050000X2.200000*%
%ADD26R,1.000000X1.050000*%
%ADD27RoundRect,0.147500X-0.147500X-0.172500X0.147500X-0.172500X0.147500X0.172500X-0.147500X0.172500X0*%
%ADD28RoundRect,0.135000X-0.135000X-0.185000X0.135000X-0.185000X0.135000X0.185000X-0.135000X0.185000X0*%
%ADD29RoundRect,0.150000X0.825000X0.150000X-0.825000X0.150000X-0.825000X-0.150000X0.825000X-0.150000X0*%
%ADD30RoundRect,0.250000X-0.362500X-1.425000X0.362500X-1.425000X0.362500X1.425000X-0.362500X1.425000X0*%
%ADD31RoundRect,0.140000X-0.219203X-0.021213X-0.021213X-0.219203X0.219203X0.021213X0.021213X0.219203X0*%
%ADD32RoundRect,0.200000X-0.200000X-0.275000X0.200000X-0.275000X0.200000X0.275000X-0.200000X0.275000X0*%
%ADD33R,1.000000X1.000000*%
%ADD34O,1.000000X1.000000*%
%ADD35RoundRect,0.250000X-0.550000X1.250000X-0.550000X-1.250000X0.550000X-1.250000X0.550000X1.250000X0*%
%ADD36RoundRect,0.135000X-0.035355X0.226274X-0.226274X0.035355X0.035355X-0.226274X0.226274X-0.035355X0*%
%ADD37R,1.400000X1.200000*%
%ADD38RoundRect,0.140000X0.170000X-0.140000X0.170000X0.140000X-0.170000X0.140000X-0.170000X-0.140000X0*%
%ADD39RoundRect,0.550000X0.550000X3.936000X-0.550000X3.936000X-0.550000X-3.936000X0.550000X-3.936000X0*%
%ADD40RoundRect,0.521850X0.521850X3.964150X-0.521850X3.964150X-0.521850X-3.964150X0.521850X-3.964150X0*%
%ADD41RoundRect,0.135000X0.185000X-0.135000X0.185000X0.135000X-0.185000X0.135000X-0.185000X-0.135000X0*%
%ADD42R,1.700000X0.650000*%
%ADD43RoundRect,0.218750X0.256250X-0.218750X0.256250X0.218750X-0.256250X0.218750X-0.256250X-0.218750X0*%
%ADD44R,2.200000X1.050000*%
%ADD45R,1.050000X1.000000*%
%ADD46RoundRect,0.250000X-0.450000X0.262500X-0.450000X-0.262500X0.450000X-0.262500X0.450000X0.262500X0*%
%ADD47RoundRect,0.150000X-0.150000X0.587500X-0.150000X-0.587500X0.150000X-0.587500X0.150000X0.587500X0*%
%ADD48RoundRect,0.147500X-0.172500X0.147500X-0.172500X-0.147500X0.172500X-0.147500X0.172500X0.147500X0*%
%ADD49RoundRect,0.135000X-0.185000X0.135000X-0.185000X-0.135000X0.185000X-0.135000X0.185000X0.135000X0*%
%ADD50R,1.100000X1.100000*%
%ADD51RoundRect,0.050000X0.353553X-0.282843X-0.282843X0.353553X-0.353553X0.282843X0.282843X-0.353553X0*%
%ADD52RoundRect,0.050000X0.353553X0.282843X0.282843X0.353553X-0.353553X-0.282843X-0.282843X-0.353553X0*%
%ADD53RoundRect,0.144000X2.059095X0.000000X0.000000X2.059095X-2.059095X0.000000X0.000000X-2.059095X0*%
%ADD54R,2.056000X2.056000*%
%ADD55C,2.056000*%
%ADD56RoundRect,0.150000X0.587500X0.150000X-0.587500X0.150000X-0.587500X-0.150000X0.587500X-0.150000X0*%
%ADD57RoundRect,0.218750X0.218750X0.256250X-0.218750X0.256250X-0.218750X-0.256250X0.218750X-0.256250X0*%
%ADD58RoundRect,0.140000X-0.170000X0.140000X-0.170000X-0.140000X0.170000X-0.140000X0.170000X0.140000X0*%
%ADD59RoundRect,0.147500X0.147500X0.172500X-0.147500X0.172500X-0.147500X-0.172500X0.147500X-0.172500X0*%
%ADD60R,2.290000X3.000000*%
%ADD61R,2.000000X2.000000*%
%ADD62RoundRect,0.200000X0.200000X0.275000X-0.200000X0.275000X-0.200000X-0.275000X0.200000X-0.275000X0*%
%ADD63RoundRect,0.150000X0.150000X-0.725000X0.150000X0.725000X-0.150000X0.725000X-0.150000X-0.725000X0*%
%ADD64RoundRect,0.140000X0.219203X0.021213X0.021213X0.219203X-0.219203X-0.021213X-0.021213X-0.219203X0*%
%ADD65RoundRect,0.062500X-0.062500X0.362500X-0.062500X-0.362500X0.062500X-0.362500X0.062500X0.362500X0*%
%ADD66RoundRect,0.062500X-0.362500X0.062500X-0.362500X-0.062500X0.362500X-0.062500X0.362500X0.062500X0*%
%ADD67R,3.400000X3.400000*%
%ADD68R,1.000000X1.150000*%
%ADD69R,1.200000X2.200000*%
%ADD70R,5.800000X6.400000*%
%ADD71R,0.650000X0.400000*%
%ADD72C,0.990600*%
%ADD73C,0.787400*%
%ADD74RoundRect,0.100000X-0.100000X0.637500X-0.100000X-0.637500X0.100000X-0.637500X0.100000X0.637500X0*%
%ADD75R,5.400000X2.850000*%
%ADD76RotRect,1.400000X1.200000X135.000000*%
%ADD77RoundRect,0.050000X-0.450000X-0.050000X0.450000X-0.050000X0.450000X0.050000X-0.450000X0.050000X0*%
%ADD78RoundRect,0.050000X-0.050000X-0.450000X0.050000X-0.450000X0.050000X0.450000X-0.050000X0.450000X0*%
%ADD79RoundRect,0.144000X-1.456000X-1.456000X1.456000X-1.456000X1.456000X1.456000X-1.456000X1.456000X0*%
G04 APERTURE END LIST*
D10*
X27735714Y-97284047D02*
X27519048Y-96974523D01*
X27364286Y-97284047D02*
X27364286Y-96634047D01*
X27611905Y-96634047D01*
X27673809Y-96665000D01*
X27704762Y-96695952D01*
X27735714Y-96757857D01*
X27735714Y-96850714D01*
X27704762Y-96912619D01*
X27673809Y-96943571D01*
X27611905Y-96974523D01*
X27364286Y-96974523D01*
X27952381Y-96634047D02*
X28385714Y-97284047D01*
X28385714Y-96634047D02*
X27952381Y-97284047D01*
X28633333Y-97284047D02*
X28633333Y-96634047D01*
X28788095Y-96634047D01*
X28880952Y-96665000D01*
X28942857Y-96726904D01*
X28973809Y-96788809D01*
X29004762Y-96912619D01*
X29004762Y-97005476D01*
X28973809Y-97129285D01*
X28942857Y-97191190D01*
X28880952Y-97253095D01*
X28788095Y-97284047D01*
X28633333Y-97284047D01*
X27271428Y-98814047D02*
X27642857Y-98814047D01*
X27457143Y-99464047D02*
X27457143Y-98814047D01*
X27797619Y-98814047D02*
X28230952Y-99464047D01*
X28230952Y-98814047D02*
X27797619Y-99464047D01*
X28478571Y-99464047D02*
X28478571Y-98814047D01*
X28633333Y-98814047D01*
X28726190Y-98845000D01*
X28788095Y-98906904D01*
X28819047Y-98968809D01*
X28850000Y-99092619D01*
X28850000Y-99185476D01*
X28819047Y-99309285D01*
X28788095Y-99371190D01*
X28726190Y-99433095D01*
X28633333Y-99464047D01*
X28478571Y-99464047D01*
X28032380Y-74441428D02*
X28841904Y-74441428D01*
X28937142Y-74393809D01*
X28984761Y-74346190D01*
X29032380Y-74250952D01*
X29032380Y-74060476D01*
X28984761Y-73965238D01*
X28937142Y-73917619D01*
X28841904Y-73870000D01*
X28032380Y-73870000D01*
X28984761Y-73441428D02*
X29032380Y-73298571D01*
X29032380Y-73060476D01*
X28984761Y-72965238D01*
X28937142Y-72917619D01*
X28841904Y-72870000D01*
X28746666Y-72870000D01*
X28651428Y-72917619D01*
X28603809Y-72965238D01*
X28556190Y-73060476D01*
X28508571Y-73250952D01*
X28460952Y-73346190D01*
X28413333Y-73393809D01*
X28318095Y-73441428D01*
X28222857Y-73441428D01*
X28127619Y-73393809D01*
X28080000Y-73346190D01*
X28032380Y-73250952D01*
X28032380Y-73012857D01*
X28080000Y-72870000D01*
X28508571Y-72108095D02*
X28556190Y-71965238D01*
X28603809Y-71917619D01*
X28699047Y-71870000D01*
X28841904Y-71870000D01*
X28937142Y-71917619D01*
X28984761Y-71965238D01*
X29032380Y-72060476D01*
X29032380Y-72441428D01*
X28032380Y-72441428D01*
X28032380Y-72108095D01*
X28080000Y-72012857D01*
X28127619Y-71965238D01*
X28222857Y-71917619D01*
X28318095Y-71917619D01*
X28413333Y-71965238D01*
X28460952Y-72012857D01*
X28508571Y-72108095D01*
X28508571Y-72441428D01*
X28508571Y-70346190D02*
X28556190Y-70203333D01*
X28603809Y-70155714D01*
X28699047Y-70108095D01*
X28841904Y-70108095D01*
X28937142Y-70155714D01*
X28984761Y-70203333D01*
X29032380Y-70298571D01*
X29032380Y-70679523D01*
X28032380Y-70679523D01*
X28032380Y-70346190D01*
X28080000Y-70250952D01*
X28127619Y-70203333D01*
X28222857Y-70155714D01*
X28318095Y-70155714D01*
X28413333Y-70203333D01*
X28460952Y-70250952D01*
X28508571Y-70346190D01*
X28508571Y-70679523D01*
X28032380Y-69489047D02*
X28032380Y-69298571D01*
X28080000Y-69203333D01*
X28175238Y-69108095D01*
X28365714Y-69060476D01*
X28699047Y-69060476D01*
X28889523Y-69108095D01*
X28984761Y-69203333D01*
X29032380Y-69298571D01*
X29032380Y-69489047D01*
X28984761Y-69584285D01*
X28889523Y-69679523D01*
X28699047Y-69727142D01*
X28365714Y-69727142D01*
X28175238Y-69679523D01*
X28080000Y-69584285D01*
X28032380Y-69489047D01*
X28032380Y-68441428D02*
X28032380Y-68250952D01*
X28080000Y-68155714D01*
X28175238Y-68060476D01*
X28365714Y-68012857D01*
X28699047Y-68012857D01*
X28889523Y-68060476D01*
X28984761Y-68155714D01*
X29032380Y-68250952D01*
X29032380Y-68441428D01*
X28984761Y-68536666D01*
X28889523Y-68631904D01*
X28699047Y-68679523D01*
X28365714Y-68679523D01*
X28175238Y-68631904D01*
X28080000Y-68536666D01*
X28032380Y-68441428D01*
X28032380Y-67727142D02*
X28032380Y-67155714D01*
X29032380Y-67441428D02*
X28032380Y-67441428D01*
X86145714Y-78984047D02*
X86362380Y-79634047D01*
X86579047Y-78984047D01*
X86764761Y-79603095D02*
X86857619Y-79634047D01*
X87012380Y-79634047D01*
X87074285Y-79603095D01*
X87105238Y-79572142D01*
X87136190Y-79510238D01*
X87136190Y-79448333D01*
X87105238Y-79386428D01*
X87074285Y-79355476D01*
X87012380Y-79324523D01*
X86888571Y-79293571D01*
X86826666Y-79262619D01*
X86795714Y-79231666D01*
X86764761Y-79169761D01*
X86764761Y-79107857D01*
X86795714Y-79045952D01*
X86826666Y-79015000D01*
X86888571Y-78984047D01*
X87043333Y-78984047D01*
X87136190Y-79015000D01*
X87414761Y-79293571D02*
X87631428Y-79293571D01*
X87724285Y-79634047D02*
X87414761Y-79634047D01*
X87414761Y-78984047D01*
X87724285Y-78984047D01*
X88002857Y-79634047D02*
X88002857Y-78984047D01*
X88374285Y-79634047D01*
X88374285Y-78984047D01*
X88652857Y-79603095D02*
X88745714Y-79634047D01*
X88900476Y-79634047D01*
X88962380Y-79603095D01*
X88993333Y-79572142D01*
X89024285Y-79510238D01*
X89024285Y-79448333D01*
X88993333Y-79386428D01*
X88962380Y-79355476D01*
X88900476Y-79324523D01*
X88776666Y-79293571D01*
X88714761Y-79262619D01*
X88683809Y-79231666D01*
X88652857Y-79169761D01*
X88652857Y-79107857D01*
X88683809Y-79045952D01*
X88714761Y-79015000D01*
X88776666Y-78984047D01*
X88931428Y-78984047D01*
X89024285Y-79015000D01*
X89302857Y-79293571D02*
X89519523Y-79293571D01*
X89612380Y-79634047D02*
X89302857Y-79634047D01*
X89302857Y-78984047D01*
X89612380Y-78984047D01*
X25085238Y-104732142D02*
X25037619Y-104779761D01*
X24894761Y-104827380D01*
X24799523Y-104827380D01*
X24656666Y-104779761D01*
X24561428Y-104684523D01*
X24513809Y-104589285D01*
X24466190Y-104398809D01*
X24466190Y-104255952D01*
X24513809Y-104065476D01*
X24561428Y-103970238D01*
X24656666Y-103875000D01*
X24799523Y-103827380D01*
X24894761Y-103827380D01*
X25037619Y-103875000D01*
X25085238Y-103922619D01*
X25466190Y-104541666D02*
X25942380Y-104541666D01*
X25370952Y-104827380D02*
X25704285Y-103827380D01*
X26037619Y-104827380D01*
X26370952Y-104827380D02*
X26370952Y-103827380D01*
X26942380Y-104827380D01*
X26942380Y-103827380D01*
X28751904Y-104827380D02*
X28418571Y-104351190D01*
X28180476Y-104827380D02*
X28180476Y-103827380D01*
X28561428Y-103827380D01*
X28656666Y-103875000D01*
X28704285Y-103922619D01*
X28751904Y-104017857D01*
X28751904Y-104160714D01*
X28704285Y-104255952D01*
X28656666Y-104303571D01*
X28561428Y-104351190D01*
X28180476Y-104351190D01*
X29704285Y-103875000D02*
X29609047Y-103827380D01*
X29466190Y-103827380D01*
X29323333Y-103875000D01*
X29228095Y-103970238D01*
X29180476Y-104065476D01*
X29132857Y-104255952D01*
X29132857Y-104398809D01*
X29180476Y-104589285D01*
X29228095Y-104684523D01*
X29323333Y-104779761D01*
X29466190Y-104827380D01*
X29561428Y-104827380D01*
X29704285Y-104779761D01*
X29751904Y-104732142D01*
X29751904Y-104398809D01*
X29561428Y-104398809D01*
X30513809Y-104303571D02*
X30656666Y-104351190D01*
X30704285Y-104398809D01*
X30751904Y-104494047D01*
X30751904Y-104636904D01*
X30704285Y-104732142D01*
X30656666Y-104779761D01*
X30561428Y-104827380D01*
X30180476Y-104827380D01*
X30180476Y-103827380D01*
X30513809Y-103827380D01*
X30609047Y-103875000D01*
X30656666Y-103922619D01*
X30704285Y-104017857D01*
X30704285Y-104113095D01*
X30656666Y-104208333D01*
X30609047Y-104255952D01*
X30513809Y-104303571D01*
X30180476Y-104303571D01*
X32513809Y-104732142D02*
X32466190Y-104779761D01*
X32323333Y-104827380D01*
X32228095Y-104827380D01*
X32085238Y-104779761D01*
X31990000Y-104684523D01*
X31942380Y-104589285D01*
X31894761Y-104398809D01*
X31894761Y-104255952D01*
X31942380Y-104065476D01*
X31990000Y-103970238D01*
X32085238Y-103875000D01*
X32228095Y-103827380D01*
X32323333Y-103827380D01*
X32466190Y-103875000D01*
X32513809Y-103922619D01*
X33085238Y-104827380D02*
X32990000Y-104779761D01*
X32942380Y-104732142D01*
X32894761Y-104636904D01*
X32894761Y-104351190D01*
X32942380Y-104255952D01*
X32990000Y-104208333D01*
X33085238Y-104160714D01*
X33228095Y-104160714D01*
X33323333Y-104208333D01*
X33370952Y-104255952D01*
X33418571Y-104351190D01*
X33418571Y-104636904D01*
X33370952Y-104732142D01*
X33323333Y-104779761D01*
X33228095Y-104827380D01*
X33085238Y-104827380D01*
X33847142Y-104160714D02*
X33847142Y-104827380D01*
X33847142Y-104255952D02*
X33894761Y-104208333D01*
X33990000Y-104160714D01*
X34132857Y-104160714D01*
X34228095Y-104208333D01*
X34275714Y-104303571D01*
X34275714Y-104827380D01*
X34609047Y-104160714D02*
X34990000Y-104160714D01*
X34751904Y-103827380D02*
X34751904Y-104684523D01*
X34799523Y-104779761D01*
X34894761Y-104827380D01*
X34990000Y-104827380D01*
X35323333Y-104827380D02*
X35323333Y-104160714D01*
X35323333Y-104351190D02*
X35370952Y-104255952D01*
X35418571Y-104208333D01*
X35513809Y-104160714D01*
X35609047Y-104160714D01*
X36085238Y-104827380D02*
X35990000Y-104779761D01*
X35942380Y-104732142D01*
X35894761Y-104636904D01*
X35894761Y-104351190D01*
X35942380Y-104255952D01*
X35990000Y-104208333D01*
X36085238Y-104160714D01*
X36228095Y-104160714D01*
X36323333Y-104208333D01*
X36370952Y-104255952D01*
X36418571Y-104351190D01*
X36418571Y-104636904D01*
X36370952Y-104732142D01*
X36323333Y-104779761D01*
X36228095Y-104827380D01*
X36085238Y-104827380D01*
X36990000Y-104827380D02*
X36894761Y-104779761D01*
X36847142Y-104684523D01*
X36847142Y-103827380D01*
X37513809Y-104827380D02*
X37418571Y-104779761D01*
X37370952Y-104684523D01*
X37370952Y-103827380D01*
X38275714Y-104779761D02*
X38180476Y-104827380D01*
X37990000Y-104827380D01*
X37894761Y-104779761D01*
X37847142Y-104684523D01*
X37847142Y-104303571D01*
X37894761Y-104208333D01*
X37990000Y-104160714D01*
X38180476Y-104160714D01*
X38275714Y-104208333D01*
X38323333Y-104303571D01*
X38323333Y-104398809D01*
X37847142Y-104494047D01*
X38751904Y-104827380D02*
X38751904Y-104160714D01*
X38751904Y-104351190D02*
X38799523Y-104255952D01*
X38847142Y-104208333D01*
X38942380Y-104160714D01*
X39037619Y-104160714D01*
X39990000Y-103827380D02*
X40323333Y-104827380D01*
X40656666Y-103827380D01*
X41418571Y-104160714D02*
X41418571Y-104827380D01*
X41180476Y-103779761D02*
X40942380Y-104494047D01*
X41561428Y-104494047D01*
X27847142Y-106437380D02*
X27513809Y-105961190D01*
X27275714Y-106437380D02*
X27275714Y-105437380D01*
X27656666Y-105437380D01*
X27751904Y-105485000D01*
X27799523Y-105532619D01*
X27847142Y-105627857D01*
X27847142Y-105770714D01*
X27799523Y-105865952D01*
X27751904Y-105913571D01*
X27656666Y-105961190D01*
X27275714Y-105961190D01*
X28656666Y-106389761D02*
X28561428Y-106437380D01*
X28370952Y-106437380D01*
X28275714Y-106389761D01*
X28228095Y-106294523D01*
X28228095Y-105913571D01*
X28275714Y-105818333D01*
X28370952Y-105770714D01*
X28561428Y-105770714D01*
X28656666Y-105818333D01*
X28704285Y-105913571D01*
X28704285Y-106008809D01*
X28228095Y-106104047D01*
X29037619Y-105770714D02*
X29275714Y-106437380D01*
X29513809Y-105770714D01*
X30990000Y-105913571D02*
X31132857Y-105961190D01*
X31180476Y-106008809D01*
X31228095Y-106104047D01*
X31228095Y-106246904D01*
X31180476Y-106342142D01*
X31132857Y-106389761D01*
X31037619Y-106437380D01*
X30656666Y-106437380D01*
X30656666Y-105437380D01*
X30990000Y-105437380D01*
X31085238Y-105485000D01*
X31132857Y-105532619D01*
X31180476Y-105627857D01*
X31180476Y-105723095D01*
X31132857Y-105818333D01*
X31085238Y-105865952D01*
X30990000Y-105913571D01*
X30656666Y-105913571D01*
X32609047Y-105437380D02*
X32704285Y-105437380D01*
X32799523Y-105485000D01*
X32847142Y-105532619D01*
X32894761Y-105627857D01*
X32942380Y-105818333D01*
X32942380Y-106056428D01*
X32894761Y-106246904D01*
X32847142Y-106342142D01*
X32799523Y-106389761D01*
X32704285Y-106437380D01*
X32609047Y-106437380D01*
X32513809Y-106389761D01*
X32466190Y-106342142D01*
X32418571Y-106246904D01*
X32370952Y-106056428D01*
X32370952Y-105818333D01*
X32418571Y-105627857D01*
X32466190Y-105532619D01*
X32513809Y-105485000D01*
X32609047Y-105437380D01*
X33847142Y-105437380D02*
X33370952Y-105437380D01*
X33323333Y-105913571D01*
X33370952Y-105865952D01*
X33466190Y-105818333D01*
X33704285Y-105818333D01*
X33799523Y-105865952D01*
X33847142Y-105913571D01*
X33894761Y-106008809D01*
X33894761Y-106246904D01*
X33847142Y-106342142D01*
X33799523Y-106389761D01*
X33704285Y-106437380D01*
X33466190Y-106437380D01*
X33370952Y-106389761D01*
X33323333Y-106342142D01*
X35037619Y-105389761D02*
X34180476Y-106675476D01*
X35323333Y-105532619D02*
X35370952Y-105485000D01*
X35466190Y-105437380D01*
X35704285Y-105437380D01*
X35799523Y-105485000D01*
X35847142Y-105532619D01*
X35894761Y-105627857D01*
X35894761Y-105723095D01*
X35847142Y-105865952D01*
X35275714Y-106437380D01*
X35894761Y-106437380D01*
X36513809Y-105437380D02*
X36609047Y-105437380D01*
X36704285Y-105485000D01*
X36751904Y-105532619D01*
X36799523Y-105627857D01*
X36847142Y-105818333D01*
X36847142Y-106056428D01*
X36799523Y-106246904D01*
X36751904Y-106342142D01*
X36704285Y-106389761D01*
X36609047Y-106437380D01*
X36513809Y-106437380D01*
X36418571Y-106389761D01*
X36370952Y-106342142D01*
X36323333Y-106246904D01*
X36275714Y-106056428D01*
X36275714Y-105818333D01*
X36323333Y-105627857D01*
X36370952Y-105532619D01*
X36418571Y-105485000D01*
X36513809Y-105437380D01*
X37228095Y-105532619D02*
X37275714Y-105485000D01*
X37370952Y-105437380D01*
X37609047Y-105437380D01*
X37704285Y-105485000D01*
X37751904Y-105532619D01*
X37799523Y-105627857D01*
X37799523Y-105723095D01*
X37751904Y-105865952D01*
X37180476Y-106437380D01*
X37799523Y-106437380D01*
X38180476Y-105532619D02*
X38228095Y-105485000D01*
X38323333Y-105437380D01*
X38561428Y-105437380D01*
X38656666Y-105485000D01*
X38704285Y-105532619D01*
X38751904Y-105627857D01*
X38751904Y-105723095D01*
X38704285Y-105865952D01*
X38132857Y-106437380D01*
X38751904Y-106437380D01*
X27735714Y-102944047D02*
X27519047Y-102634523D01*
X27364286Y-102944047D02*
X27364286Y-102294047D01*
X27611905Y-102294047D01*
X27673809Y-102325000D01*
X27704762Y-102355952D01*
X27735714Y-102417857D01*
X27735714Y-102510714D01*
X27704762Y-102572619D01*
X27673809Y-102603571D01*
X27611905Y-102634523D01*
X27364286Y-102634523D01*
X27921428Y-102294047D02*
X28292857Y-102294047D01*
X28107143Y-102944047D02*
X28107143Y-102294047D01*
X28478571Y-102913095D02*
X28571428Y-102944047D01*
X28726190Y-102944047D01*
X28788095Y-102913095D01*
X28819047Y-102882142D01*
X28850000Y-102820238D01*
X28850000Y-102758333D01*
X28819047Y-102696428D01*
X28788095Y-102665476D01*
X28726190Y-102634523D01*
X28602381Y-102603571D01*
X28540476Y-102572619D01*
X28509524Y-102541666D01*
X28478571Y-102479761D01*
X28478571Y-102417857D01*
X28509524Y-102355952D01*
X28540476Y-102325000D01*
X28602381Y-102294047D01*
X28757143Y-102294047D01*
X28850000Y-102325000D01*
X30524761Y-97347142D02*
X30477142Y-97394761D01*
X30334285Y-97442380D01*
X30239047Y-97442380D01*
X30096190Y-97394761D01*
X30000952Y-97299523D01*
X29953333Y-97204285D01*
X29905714Y-97013809D01*
X29905714Y-96870952D01*
X29953333Y-96680476D01*
X30000952Y-96585238D01*
X30096190Y-96490000D01*
X30239047Y-96442380D01*
X30334285Y-96442380D01*
X30477142Y-96490000D01*
X30524761Y-96537619D01*
X31143809Y-96442380D02*
X31334285Y-96442380D01*
X31429523Y-96490000D01*
X31524761Y-96585238D01*
X31572380Y-96775714D01*
X31572380Y-97109047D01*
X31524761Y-97299523D01*
X31429523Y-97394761D01*
X31334285Y-97442380D01*
X31143809Y-97442380D01*
X31048571Y-97394761D01*
X30953333Y-97299523D01*
X30905714Y-97109047D01*
X30905714Y-96775714D01*
X30953333Y-96585238D01*
X31048571Y-96490000D01*
X31143809Y-96442380D01*
X32000952Y-97442380D02*
X32000952Y-96442380D01*
X32572380Y-97442380D01*
X32572380Y-96442380D01*
X33000952Y-97394761D02*
X33143809Y-97442380D01*
X33381904Y-97442380D01*
X33477142Y-97394761D01*
X33524761Y-97347142D01*
X33572380Y-97251904D01*
X33572380Y-97156666D01*
X33524761Y-97061428D01*
X33477142Y-97013809D01*
X33381904Y-96966190D01*
X33191428Y-96918571D01*
X33096190Y-96870952D01*
X33048571Y-96823333D01*
X33000952Y-96728095D01*
X33000952Y-96632857D01*
X33048571Y-96537619D01*
X33096190Y-96490000D01*
X33191428Y-96442380D01*
X33429523Y-96442380D01*
X33572380Y-96490000D01*
X34191428Y-96442380D02*
X34381904Y-96442380D01*
X34477142Y-96490000D01*
X34572380Y-96585238D01*
X34620000Y-96775714D01*
X34620000Y-97109047D01*
X34572380Y-97299523D01*
X34477142Y-97394761D01*
X34381904Y-97442380D01*
X34191428Y-97442380D01*
X34096190Y-97394761D01*
X34000952Y-97299523D01*
X33953333Y-97109047D01*
X33953333Y-96775714D01*
X34000952Y-96585238D01*
X34096190Y-96490000D01*
X34191428Y-96442380D01*
X35524761Y-97442380D02*
X35048571Y-97442380D01*
X35048571Y-96442380D01*
X35858095Y-96918571D02*
X36191428Y-96918571D01*
X36334285Y-97442380D02*
X35858095Y-97442380D01*
X35858095Y-96442380D01*
X36334285Y-96442380D01*
X29042380Y-83188095D02*
X28566190Y-83521428D01*
X29042380Y-83759523D02*
X28042380Y-83759523D01*
X28042380Y-83378571D01*
X28090000Y-83283333D01*
X28137619Y-83235714D01*
X28232857Y-83188095D01*
X28375714Y-83188095D01*
X28470952Y-83235714D01*
X28518571Y-83283333D01*
X28566190Y-83378571D01*
X28566190Y-83759523D01*
X28994761Y-82378571D02*
X29042380Y-82473809D01*
X29042380Y-82664285D01*
X28994761Y-82759523D01*
X28899523Y-82807142D01*
X28518571Y-82807142D01*
X28423333Y-82759523D01*
X28375714Y-82664285D01*
X28375714Y-82473809D01*
X28423333Y-82378571D01*
X28518571Y-82330952D01*
X28613809Y-82330952D01*
X28709047Y-82807142D01*
X28994761Y-81950000D02*
X29042380Y-81854761D01*
X29042380Y-81664285D01*
X28994761Y-81569047D01*
X28899523Y-81521428D01*
X28851904Y-81521428D01*
X28756666Y-81569047D01*
X28709047Y-81664285D01*
X28709047Y-81807142D01*
X28661428Y-81902380D01*
X28566190Y-81950000D01*
X28518571Y-81950000D01*
X28423333Y-81902380D01*
X28375714Y-81807142D01*
X28375714Y-81664285D01*
X28423333Y-81569047D01*
X28994761Y-80711904D02*
X29042380Y-80807142D01*
X29042380Y-80997619D01*
X28994761Y-81092857D01*
X28899523Y-81140476D01*
X28518571Y-81140476D01*
X28423333Y-81092857D01*
X28375714Y-80997619D01*
X28375714Y-80807142D01*
X28423333Y-80711904D01*
X28518571Y-80664285D01*
X28613809Y-80664285D01*
X28709047Y-81140476D01*
X28375714Y-80378571D02*
X28375714Y-79997619D01*
X28042380Y-80235714D02*
X28899523Y-80235714D01*
X28994761Y-80188095D01*
X29042380Y-80092857D01*
X29042380Y-79997619D01*
X27348809Y-101774047D02*
X27348809Y-101124047D01*
X27503571Y-101124047D01*
X27596428Y-101155000D01*
X27658333Y-101216904D01*
X27689286Y-101278809D01*
X27720238Y-101402619D01*
X27720238Y-101495476D01*
X27689286Y-101619285D01*
X27658333Y-101681190D01*
X27596428Y-101743095D01*
X27503571Y-101774047D01*
X27348809Y-101774047D01*
X27905952Y-101124047D02*
X28277381Y-101124047D01*
X28091667Y-101774047D02*
X28091667Y-101124047D01*
X28865476Y-101774047D02*
X28648809Y-101464523D01*
X28494047Y-101774047D02*
X28494047Y-101124047D01*
X28741667Y-101124047D01*
X28803571Y-101155000D01*
X28834524Y-101185952D01*
X28865476Y-101247857D01*
X28865476Y-101340714D01*
X28834524Y-101402619D01*
X28803571Y-101433571D01*
X28741667Y-101464523D01*
X28494047Y-101464523D01*
X57140476Y-101035000D02*
X57078571Y-101004047D01*
X56985714Y-101004047D01*
X56892857Y-101035000D01*
X56830952Y-101096904D01*
X56800000Y-101158809D01*
X56769047Y-101282619D01*
X56769047Y-101375476D01*
X56800000Y-101499285D01*
X56830952Y-101561190D01*
X56892857Y-101623095D01*
X56985714Y-101654047D01*
X57047619Y-101654047D01*
X57140476Y-101623095D01*
X57171428Y-101592142D01*
X57171428Y-101375476D01*
X57047619Y-101375476D01*
X57450000Y-101654047D02*
X57450000Y-101004047D01*
X57697619Y-101004047D01*
X57759523Y-101035000D01*
X57790476Y-101065952D01*
X57821428Y-101127857D01*
X57821428Y-101220714D01*
X57790476Y-101282619D01*
X57759523Y-101313571D01*
X57697619Y-101344523D01*
X57450000Y-101344523D01*
X58100000Y-101654047D02*
X58100000Y-101004047D01*
X58533333Y-101004047D02*
X58657142Y-101004047D01*
X58719047Y-101035000D01*
X58780952Y-101096904D01*
X58811904Y-101220714D01*
X58811904Y-101437380D01*
X58780952Y-101561190D01*
X58719047Y-101623095D01*
X58657142Y-101654047D01*
X58533333Y-101654047D01*
X58471428Y-101623095D01*
X58409523Y-101561190D01*
X58378571Y-101437380D01*
X58378571Y-101220714D01*
X58409523Y-101096904D01*
X58471428Y-101035000D01*
X58533333Y-101004047D01*
X59214285Y-101004047D02*
X59276190Y-101004047D01*
X59338095Y-101035000D01*
X59369047Y-101065952D01*
X59400000Y-101127857D01*
X59430952Y-101251666D01*
X59430952Y-101406428D01*
X59400000Y-101530238D01*
X59369047Y-101592142D01*
X59338095Y-101623095D01*
X59276190Y-101654047D01*
X59214285Y-101654047D01*
X59152380Y-101623095D01*
X59121428Y-101592142D01*
X59090476Y-101530238D01*
X59059523Y-101406428D01*
X59059523Y-101251666D01*
X59090476Y-101127857D01*
X59121428Y-101065952D01*
X59152380Y-101035000D01*
X59214285Y-101004047D01*
X27704761Y-95555000D02*
X27642857Y-95524047D01*
X27550000Y-95524047D01*
X27457142Y-95555000D01*
X27395238Y-95616904D01*
X27364285Y-95678809D01*
X27333333Y-95802619D01*
X27333333Y-95895476D01*
X27364285Y-96019285D01*
X27395238Y-96081190D01*
X27457142Y-96143095D01*
X27550000Y-96174047D01*
X27611904Y-96174047D01*
X27704761Y-96143095D01*
X27735714Y-96112142D01*
X27735714Y-95895476D01*
X27611904Y-95895476D01*
X28014285Y-96174047D02*
X28014285Y-95524047D01*
X28385714Y-96174047D01*
X28385714Y-95524047D01*
X28695238Y-96174047D02*
X28695238Y-95524047D01*
X28850000Y-95524047D01*
X28942857Y-95555000D01*
X29004761Y-95616904D01*
X29035714Y-95678809D01*
X29066666Y-95802619D01*
X29066666Y-95895476D01*
X29035714Y-96019285D01*
X29004761Y-96081190D01*
X28942857Y-96143095D01*
X28850000Y-96174047D01*
X28695238Y-96174047D01*
X73235238Y-76274047D02*
X73637619Y-76274047D01*
X73420952Y-76521666D01*
X73513809Y-76521666D01*
X73575714Y-76552619D01*
X73606666Y-76583571D01*
X73637619Y-76645476D01*
X73637619Y-76800238D01*
X73606666Y-76862142D01*
X73575714Y-76893095D01*
X73513809Y-76924047D01*
X73328095Y-76924047D01*
X73266190Y-76893095D01*
X73235238Y-76862142D01*
X73823333Y-76274047D02*
X74040000Y-76924047D01*
X74256666Y-76274047D01*
X74411428Y-76274047D02*
X74813809Y-76274047D01*
X74597142Y-76521666D01*
X74690000Y-76521666D01*
X74751904Y-76552619D01*
X74782857Y-76583571D01*
X74813809Y-76645476D01*
X74813809Y-76800238D01*
X74782857Y-76862142D01*
X74751904Y-76893095D01*
X74690000Y-76924047D01*
X74504285Y-76924047D01*
X74442380Y-76893095D01*
X74411428Y-76862142D01*
X56775952Y-105754047D02*
X56559285Y-105444523D01*
X56404523Y-105754047D02*
X56404523Y-105104047D01*
X56652142Y-105104047D01*
X56714047Y-105135000D01*
X56745000Y-105165952D01*
X56775952Y-105227857D01*
X56775952Y-105320714D01*
X56745000Y-105382619D01*
X56714047Y-105413571D01*
X56652142Y-105444523D01*
X56404523Y-105444523D01*
X57054523Y-105413571D02*
X57271190Y-105413571D01*
X57364047Y-105754047D02*
X57054523Y-105754047D01*
X57054523Y-105104047D01*
X57364047Y-105104047D01*
X57611666Y-105723095D02*
X57704523Y-105754047D01*
X57859285Y-105754047D01*
X57921190Y-105723095D01*
X57952142Y-105692142D01*
X57983095Y-105630238D01*
X57983095Y-105568333D01*
X57952142Y-105506428D01*
X57921190Y-105475476D01*
X57859285Y-105444523D01*
X57735476Y-105413571D01*
X57673571Y-105382619D01*
X57642619Y-105351666D01*
X57611666Y-105289761D01*
X57611666Y-105227857D01*
X57642619Y-105165952D01*
X57673571Y-105135000D01*
X57735476Y-105104047D01*
X57890238Y-105104047D01*
X57983095Y-105135000D01*
X58261666Y-105413571D02*
X58478333Y-105413571D01*
X58571190Y-105754047D02*
X58261666Y-105754047D01*
X58261666Y-105104047D01*
X58571190Y-105104047D01*
X58756904Y-105104047D02*
X59128333Y-105104047D01*
X58942619Y-105754047D02*
X58942619Y-105104047D01*
D11*
X66246191Y-96687367D02*
X65635390Y-96465053D01*
X66341468Y-96425595D02*
X66021525Y-96309145D01*
X65952767Y-96317058D01*
X65902508Y-96364644D01*
X65870749Y-96451901D01*
X65878662Y-96520658D01*
X65897162Y-96560331D01*
X66008372Y-96073786D02*
X66093063Y-95841100D01*
X65836531Y-95912425D02*
X66360074Y-96102979D01*
X66428832Y-96095066D01*
X66479090Y-96047481D01*
X66500263Y-95989309D01*
X66135408Y-95724758D02*
X66220099Y-95492072D01*
X65963567Y-95563396D02*
X66487110Y-95753950D01*
X66555868Y-95746037D01*
X66606126Y-95698452D01*
X66627299Y-95640281D01*
X66294203Y-95288472D02*
X66905003Y-95510785D01*
X66323289Y-95299058D02*
X66315376Y-95230300D01*
X66357721Y-95113957D01*
X66407979Y-95066372D01*
X66447651Y-95047873D01*
X66516409Y-95039960D01*
X66690924Y-95103478D01*
X66738509Y-95153736D01*
X66757008Y-95193408D01*
X66764921Y-95262166D01*
X66722576Y-95378509D01*
X66672317Y-95426094D01*
X66862871Y-94902551D02*
X66913130Y-94854966D01*
X66955475Y-94738623D01*
X66947562Y-94669865D01*
X66899977Y-94619607D01*
X66870891Y-94609021D01*
X66802134Y-94616934D01*
X66751875Y-94664519D01*
X66720116Y-94751776D01*
X66669858Y-94799361D01*
X66601100Y-94807274D01*
X66572014Y-94796688D01*
X66524429Y-94746429D01*
X66516516Y-94677672D01*
X66548275Y-94590414D01*
X66598533Y-94542829D01*
X67024340Y-94368422D02*
X67064012Y-94349922D01*
X67082511Y-94389594D01*
X67042839Y-94408094D01*
X67024340Y-94368422D01*
X67082511Y-94389594D01*
X66704397Y-94251972D02*
X66744069Y-94233473D01*
X66762568Y-94273145D01*
X66722896Y-94291644D01*
X66704397Y-94251972D01*
X66762568Y-94273145D01*
X66707284Y-93429552D02*
X67302044Y-94238926D01*
X66940183Y-92789666D02*
X67534944Y-93599040D01*
X67720365Y-92546607D02*
X67728278Y-92615365D01*
X67685932Y-92731708D01*
X67635674Y-92779293D01*
X67596002Y-92797793D01*
X67527244Y-92805706D01*
X67352730Y-92742188D01*
X67305145Y-92691929D01*
X67286645Y-92652257D01*
X67278732Y-92583499D01*
X67321078Y-92467156D01*
X67371336Y-92419571D01*
X67876487Y-92208165D02*
X67826228Y-92255750D01*
X67786556Y-92274250D01*
X67717798Y-92282163D01*
X67543284Y-92218645D01*
X67495699Y-92168386D01*
X67477199Y-92128714D01*
X67469286Y-92059956D01*
X67501045Y-91972699D01*
X67551304Y-91925114D01*
X67590976Y-91906615D01*
X67659734Y-91898702D01*
X67834248Y-91962220D01*
X67881833Y-92012478D01*
X67900333Y-92052150D01*
X67908246Y-92120908D01*
X67876487Y-92208165D01*
X67638668Y-91594585D02*
X68045868Y-91742794D01*
X67696839Y-91615757D02*
X67678340Y-91576085D01*
X67670427Y-91507328D01*
X67702186Y-91420070D01*
X67752444Y-91372485D01*
X67821202Y-91364572D01*
X68141145Y-91481022D01*
X68302613Y-90946893D02*
X68310526Y-91015650D01*
X68268181Y-91131993D01*
X68217923Y-91179578D01*
X68149165Y-91187491D01*
X67916479Y-91102801D01*
X67868894Y-91052542D01*
X67860981Y-90983785D01*
X67903326Y-90867442D01*
X67953585Y-90819857D01*
X68022342Y-90811944D01*
X68080514Y-90833116D01*
X68032822Y-91145146D01*
X68379391Y-90645449D02*
X68419063Y-90626950D01*
X68437562Y-90666622D01*
X68397890Y-90685121D01*
X68379391Y-90645449D01*
X68437562Y-90666622D01*
X68609617Y-90103407D02*
X68617530Y-90172164D01*
X68575185Y-90288507D01*
X68524926Y-90336092D01*
X68485254Y-90354592D01*
X68416497Y-90362505D01*
X68241982Y-90298987D01*
X68194397Y-90248728D01*
X68175898Y-90209056D01*
X68167985Y-90140299D01*
X68210330Y-90023956D01*
X68260588Y-89976371D01*
X68765739Y-89764964D02*
X68715481Y-89812549D01*
X68675808Y-89831049D01*
X68607051Y-89838962D01*
X68432536Y-89775444D01*
X68384951Y-89725185D01*
X68366452Y-89685513D01*
X68358539Y-89616756D01*
X68390298Y-89529498D01*
X68440556Y-89481913D01*
X68480228Y-89463414D01*
X68548986Y-89455501D01*
X68723500Y-89519019D01*
X68771086Y-89569277D01*
X68789585Y-89608949D01*
X68797498Y-89677707D01*
X68765739Y-89764964D01*
X69030397Y-89037821D02*
X68419597Y-88815508D01*
X69001312Y-89027235D02*
X69009225Y-89095993D01*
X68966879Y-89212336D01*
X68916621Y-89259921D01*
X68876949Y-89278420D01*
X68808191Y-89286333D01*
X68633677Y-89222815D01*
X68586092Y-89172557D01*
X68567592Y-89132885D01*
X68559679Y-89064127D01*
X68602025Y-88947784D01*
X68652283Y-88900199D01*
X69191866Y-88503692D02*
X69199779Y-88572450D01*
X69157433Y-88688792D01*
X69107175Y-88736378D01*
X69038417Y-88744291D01*
X68805731Y-88659600D01*
X68758146Y-88609342D01*
X68750233Y-88540584D01*
X68792579Y-88424241D01*
X68842837Y-88376656D01*
X68911595Y-88368743D01*
X68969766Y-88389915D01*
X68922074Y-88701945D01*
X69287143Y-88241920D02*
X69337401Y-88194335D01*
X69379747Y-88077992D01*
X69371833Y-88009234D01*
X69324248Y-87958976D01*
X69295163Y-87948390D01*
X69226405Y-87956303D01*
X69176146Y-88003888D01*
X69144387Y-88091145D01*
X69094129Y-88138730D01*
X69025371Y-88146643D01*
X68996286Y-88136057D01*
X68948700Y-88085799D01*
X68940787Y-88017041D01*
X68972546Y-87929784D01*
X69022805Y-87882198D01*
D10*
%TO.C,J4*%
X66497522Y-18647982D02*
X66497522Y-19648714D01*
X66430806Y-19848860D01*
X66297375Y-19982291D01*
X66097229Y-20049006D01*
X65963798Y-20049006D01*
X67765115Y-19114990D02*
X67765115Y-20049006D01*
X67431538Y-18581267D02*
X67097960Y-19581998D01*
X67965261Y-19581998D01*
D12*
%TO.C,C2*%
X84725001Y-91151252D02*
X84725001Y-90628748D01*
X86195001Y-91151252D02*
X86195001Y-90628748D01*
%TO.C,R21*%
X66672500Y-75085241D02*
X66672500Y-75559757D01*
X67717500Y-75085241D02*
X67717500Y-75559757D01*
%TO.C,C65*%
X92687836Y-101180000D02*
X92472164Y-101180000D01*
X92687836Y-101900000D02*
X92472164Y-101900000D01*
%TO.C,C32*%
X83266253Y-71060000D02*
X82743749Y-71060000D01*
X83266253Y-69590000D02*
X82743749Y-69590000D01*
%TO.C,C24*%
X39602164Y-78740000D02*
X39817836Y-78740000D01*
X39602164Y-79460000D02*
X39817836Y-79460000D01*
%TO.C,L6*%
X77150000Y-76230000D02*
X77150000Y-74830000D01*
X70750000Y-76230000D02*
X71950000Y-76230000D01*
X77150000Y-69430000D02*
X77150000Y-70830000D01*
X70750000Y-69430000D02*
X71950000Y-69430000D01*
X70750000Y-69430000D02*
X70750000Y-70830000D01*
X77150000Y-69430000D02*
X75950000Y-69430000D01*
X70750000Y-76230000D02*
X70750000Y-74830000D01*
X77150000Y-76230000D02*
X75950000Y-76230000D01*
%TO.C,C5*%
X51785000Y-56453747D02*
X51785000Y-56976251D01*
X50315000Y-56453747D02*
X50315000Y-56976251D01*
%TO.C,C22*%
X41848958Y-106748881D02*
X41696455Y-106901384D01*
X41339841Y-106239764D02*
X41187338Y-106392267D01*
%TO.C,R10*%
X63766808Y-72805000D02*
X63459526Y-72805000D01*
X63766808Y-73565000D02*
X63459526Y-73565000D01*
%TO.C,TP17*%
X76029999Y-100260000D02*
G75*
G03*
X76029999Y-100260000I-700000J0D01*
G01*
%TO.C,C16*%
X48271252Y-85715000D02*
X47748748Y-85715000D01*
X48271252Y-87185000D02*
X47748748Y-87185000D01*
D13*
%TO.C,J2*%
X91780000Y-90610001D02*
X94380000Y-90610001D01*
X94380000Y-93210001D02*
X93750000Y-93210001D01*
X91780000Y-93210001D02*
X92410000Y-93210001D01*
D12*
%TO.C,R7*%
X58189526Y-73565000D02*
X58496808Y-73565000D01*
X58189526Y-72805000D02*
X58496808Y-72805000D01*
%TO.C,U3*%
X46495000Y-59155000D02*
X49945000Y-59155000D01*
X46495000Y-59155000D02*
X44545000Y-59155000D01*
X46495000Y-54035000D02*
X48445000Y-54035000D01*
X46495000Y-54035000D02*
X44545000Y-54035000D01*
%TO.C,C53*%
X86622164Y-95590000D02*
X86837836Y-95590000D01*
X86622164Y-94870000D02*
X86837836Y-94870000D01*
%TO.C,C21*%
X47122164Y-108320000D02*
X47337836Y-108320000D01*
X47122164Y-107600000D02*
X47337836Y-107600000D01*
%TO.C,R45*%
X50992936Y-65655000D02*
X55347064Y-65655000D01*
X50992936Y-62235000D02*
X55347064Y-62235000D01*
%TO.C,C55*%
X86622164Y-101680000D02*
X86837836Y-101680000D01*
X86622164Y-102400000D02*
X86837836Y-102400000D01*
%TO.C,TP18*%
X77670000Y-101170000D02*
G75*
G03*
X77670000Y-101170000I-700000J0D01*
G01*
%TO.C,C18*%
X46069190Y-104478307D02*
X46221693Y-104630810D01*
X46578307Y-103969190D02*
X46730810Y-104121693D01*
%TO.C,R34*%
X73067742Y-65157500D02*
X73542258Y-65157500D01*
X73067742Y-64112500D02*
X73542258Y-64112500D01*
%TO.C,J6*%
X26563471Y-96830000D02*
X27110000Y-96830000D01*
X24890000Y-95310000D02*
X26000000Y-95310000D01*
X24890000Y-96830000D02*
X24890000Y-103115000D01*
X26307530Y-103115000D02*
X27110000Y-103115000D01*
X24890000Y-96830000D02*
X25436529Y-96830000D01*
X24890000Y-103115000D02*
X25692470Y-103115000D01*
X24890000Y-96070000D02*
X24890000Y-95310000D01*
X27110000Y-96830000D02*
X27110000Y-103115000D01*
%TO.C,C47*%
X89690000Y-66849999D02*
X89690000Y-67474999D01*
X86309437Y-67714999D02*
X86945000Y-67714999D01*
X89700563Y-67714999D02*
X90765000Y-68779436D01*
X85245000Y-68779436D02*
X85245000Y-73234999D01*
X89700563Y-67714999D02*
X89065000Y-67714999D01*
X90002500Y-67162499D02*
X89377500Y-67162499D01*
X90765000Y-68779436D02*
X90765000Y-73234999D01*
X90765000Y-73234999D02*
X89065000Y-73234999D01*
X85245000Y-73234999D02*
X86945000Y-73234999D01*
X86309437Y-67714999D02*
X85245000Y-68779436D01*
%TO.C,C27*%
X80137836Y-102639999D02*
X79922164Y-102639999D01*
X80137836Y-103359999D02*
X79922164Y-103359999D01*
%TO.C,R26*%
X42629940Y-101712659D02*
X42412659Y-101929940D01*
X43167341Y-102250060D02*
X42950060Y-102467341D01*
%TO.C,Y4*%
X36400000Y-79720000D02*
X36400000Y-83020000D01*
X36400000Y-83020000D02*
X40400000Y-83020000D01*
%TO.C,C6*%
X58101252Y-108835000D02*
X57578748Y-108835000D01*
X58101252Y-110305000D02*
X57578748Y-110305000D01*
%TO.C,C33*%
X41970000Y-65287836D02*
X41970000Y-65072164D01*
X42690000Y-65287836D02*
X42690000Y-65072164D01*
%TO.C,F2*%
X71600000Y-60410000D02*
X53600000Y-60410000D01*
X53600000Y-60410000D02*
X53600000Y-53410000D01*
X53600000Y-53410000D02*
X71600000Y-53410000D01*
X71600000Y-53410000D02*
X71600000Y-60410000D01*
%TO.C,R31*%
X87063641Y-75654999D02*
X86756359Y-75654999D01*
X87063641Y-74894999D02*
X86756359Y-74894999D01*
%TO.C,R44*%
X92680000Y-95363641D02*
X92680000Y-95056359D01*
X93440000Y-95363641D02*
X93440000Y-95056359D01*
%TO.C,C46*%
X106496253Y-57600000D02*
X105973749Y-57600000D01*
X106496253Y-59070000D02*
X105973749Y-59070000D01*
D10*
%TO.C,U5*%
X36558163Y-86502086D02*
X36558163Y-86707086D01*
X36558163Y-86502086D02*
X42058163Y-86502086D01*
X36558163Y-92012086D02*
X36558163Y-91712086D01*
X36558163Y-92012086D02*
X42058163Y-92012086D01*
X42058163Y-86502086D02*
X42058163Y-86802086D01*
X42058163Y-92012086D02*
X42058163Y-91712086D01*
X36558163Y-86707086D02*
X34808163Y-86707086D01*
D12*
%TO.C,TP13*%
X76030000Y-97050000D02*
G75*
G03*
X76030000Y-97050000I-700000J0D01*
G01*
%TO.C,C50*%
X34697836Y-67770000D02*
X34482164Y-67770000D01*
X34697836Y-68490000D02*
X34482164Y-68490000D01*
%TO.C,C49*%
X34677836Y-73290000D02*
X34462164Y-73290000D01*
X34677836Y-74010000D02*
X34462164Y-74010000D01*
D13*
%TO.C,J10*%
X94360001Y-105039999D02*
X93730001Y-105039999D01*
X91760001Y-105039999D02*
X92390001Y-105039999D01*
X94360001Y-107639999D02*
X91760001Y-107639999D01*
D12*
%TO.C,C36*%
X83030000Y-93767836D02*
X83030000Y-93552164D01*
X83750000Y-93767836D02*
X83750000Y-93552164D01*
%TO.C,D6*%
X66460000Y-73697499D02*
X67930000Y-73697499D01*
X66460000Y-71412499D02*
X66460000Y-73697499D01*
X67930000Y-73697499D02*
X67930000Y-71412499D01*
%TO.C,C57*%
X88550000Y-100567836D02*
X88550000Y-100352164D01*
X87830000Y-100567836D02*
X87830000Y-100352164D01*
%TO.C,C54*%
X86622164Y-96620000D02*
X86837836Y-96620000D01*
X86622164Y-95900000D02*
X86837836Y-95900000D01*
D13*
%TO.C,J7*%
X52775000Y-107960001D02*
X52775000Y-107330001D01*
X52775000Y-105360001D02*
X52775000Y-105990001D01*
X55375000Y-105360001D02*
X55375000Y-107960001D01*
D12*
%TO.C,R27*%
X43756717Y-102850684D02*
X43539436Y-103067965D01*
X43219316Y-102313283D02*
X43002035Y-102530564D01*
%TO.C,R29*%
X63766808Y-75445000D02*
X63459526Y-75445000D01*
X63766808Y-76205000D02*
X63459526Y-76205000D01*
%TO.C,C38*%
X45122164Y-64250000D02*
X45337836Y-64250000D01*
X45122164Y-64970000D02*
X45337836Y-64970000D01*
%TO.C,C26*%
X37877836Y-78730000D02*
X37662164Y-78730000D01*
X37877836Y-79450000D02*
X37662164Y-79450000D01*
%TO.C,C43*%
X102766252Y-57600000D02*
X102243748Y-57600000D01*
X102766252Y-59070000D02*
X102243748Y-59070000D01*
%TO.C,TP3*%
X88620000Y-77005000D02*
G75*
G03*
X88620000Y-77005000I-700000J0D01*
G01*
%TO.C,R39*%
X92802742Y-71257500D02*
X93277258Y-71257500D01*
X92802742Y-72302500D02*
X93277258Y-72302500D01*
%TO.C,C40*%
X48622164Y-72420000D02*
X48837836Y-72420000D01*
X48622164Y-71700000D02*
X48837836Y-71700000D01*
%TO.C,R3*%
X40527501Y-56157937D02*
X40527501Y-56612065D01*
X41997501Y-56157937D02*
X41997501Y-56612065D01*
%TO.C,D7*%
X32285000Y-56195000D02*
X32285000Y-56845000D01*
X35405000Y-56195000D02*
X35405000Y-54520000D01*
X32285000Y-56195000D02*
X32285000Y-55545000D01*
X35405000Y-56195000D02*
X35405000Y-56845000D01*
%TO.C,R32*%
X63459526Y-77215000D02*
X63766808Y-77215000D01*
X63459526Y-76455000D02*
X63766808Y-76455000D01*
%TO.C,TP16*%
X77670000Y-99600000D02*
G75*
G03*
X77670000Y-99600000I-700000J0D01*
G01*
%TO.C,C10*%
X53512164Y-101620000D02*
X53727836Y-101620000D01*
X53512164Y-100900000D02*
X53727836Y-100900000D01*
%TO.C,J5*%
X60915000Y-111960000D02*
X65930000Y-111960000D01*
X60155000Y-111960000D02*
X59395000Y-111960000D01*
X59395000Y-111960000D02*
X59395000Y-110850000D01*
X65930000Y-110542470D02*
X65930000Y-109740000D01*
X60915000Y-111960000D02*
X60915000Y-111413471D01*
X60915000Y-109740000D02*
X65930000Y-109740000D01*
X65930000Y-111960000D02*
X65930000Y-111157530D01*
X60915000Y-110286529D02*
X60915000Y-109740000D01*
%TO.C,R37*%
X26660000Y-59166359D02*
X26660000Y-59473641D01*
X27420000Y-59166359D02*
X27420000Y-59473641D01*
%TO.C,R43*%
X93713641Y-96100000D02*
X93406359Y-96100000D01*
X93713641Y-95340000D02*
X93406359Y-95340000D01*
%TO.C,R38*%
X43490000Y-78893641D02*
X43490000Y-78586359D01*
X42730000Y-78893641D02*
X42730000Y-78586359D01*
%TO.C,R15*%
X33416359Y-86979999D02*
X33723641Y-86979999D01*
X33416359Y-87739999D02*
X33723641Y-87739999D01*
%TO.C,R12*%
X58496808Y-77215000D02*
X58189526Y-77215000D01*
X58496808Y-76455000D02*
X58189526Y-76455000D01*
%TO.C,R28*%
X50353641Y-108520000D02*
X50046359Y-108520000D01*
X50353641Y-109280000D02*
X50046359Y-109280000D01*
%TO.C,C62*%
X91420000Y-97437834D02*
X91420000Y-97222162D01*
X90700000Y-97437834D02*
X90700000Y-97222162D01*
%TO.C,D5*%
X104645000Y-54870000D02*
X104645000Y-56870000D01*
X104645000Y-54870000D02*
X108495000Y-54870000D01*
X104645000Y-56870000D02*
X108495000Y-56870000D01*
%TO.C,D9*%
X68250000Y-71407499D02*
X68250000Y-73692499D01*
X68250000Y-73692499D02*
X69720000Y-73692499D01*
X69720000Y-73692499D02*
X69720000Y-71407499D01*
%TO.C,C29*%
X39130000Y-63107836D02*
X39130000Y-62892164D01*
X38410000Y-63107836D02*
X38410000Y-62892164D01*
%TO.C,U4*%
X48720381Y-99645692D02*
X49180000Y-100105311D01*
X49639619Y-90354308D02*
X49180000Y-89894689D01*
X54285311Y-95000000D02*
X53825692Y-95459619D01*
X53825692Y-94540381D02*
X54285311Y-95000000D01*
X44074689Y-95000000D02*
X44534308Y-94540381D01*
X44534308Y-95459619D02*
X44074689Y-95000000D01*
X49180000Y-89894689D02*
X48720381Y-90354308D01*
D13*
%TO.C,J4*%
X107500000Y-42090000D02*
X107500000Y-53390000D01*
X26500000Y-42090000D02*
X16500000Y-42090000D01*
X16500000Y-42090000D02*
X16500000Y-30230000D01*
X62250000Y-42090000D02*
X52500000Y-42090000D01*
X62250000Y-48520000D02*
X62250000Y-42090000D01*
X63320000Y-48520000D02*
X62250000Y-48520000D01*
X117500000Y-14480000D02*
X16500000Y-14480000D01*
X117500000Y-42090000D02*
X107500000Y-42090000D01*
X107500000Y-53390000D02*
X81500000Y-53390000D01*
X117500000Y-30230000D02*
X117500000Y-14480000D01*
X16500000Y-14480000D02*
X16500000Y-30230000D01*
X117500000Y-30230000D02*
X117500000Y-42090000D01*
X68625000Y-48520000D02*
X68625000Y-45145000D01*
X63320000Y-42090000D02*
X63320000Y-48520000D01*
X52500000Y-42090000D02*
X52500000Y-53390000D01*
X65375000Y-48520000D02*
X63320000Y-48520000D01*
X70680000Y-48520000D02*
X68625000Y-48520000D01*
X52500000Y-42090000D02*
X26500000Y-42090000D01*
X63320000Y-42090000D02*
X62250000Y-42090000D01*
X70680000Y-42090000D02*
X63320000Y-42090000D01*
X81500000Y-42090000D02*
X71750000Y-42090000D01*
X81500000Y-53390000D02*
X81500000Y-42090000D01*
X71750000Y-42090000D02*
X71750000Y-48520000D01*
X16500000Y-30230000D02*
X117500000Y-30230000D01*
X52500000Y-53390000D02*
X26500000Y-53390000D01*
X107500000Y-42090000D02*
X81500000Y-42090000D01*
X70680000Y-42090000D02*
X70680000Y-48520000D01*
X65375000Y-45145000D02*
X65375000Y-48520000D01*
X71750000Y-42090000D02*
X70680000Y-42090000D01*
X71750000Y-48520000D02*
X70680000Y-48520000D01*
X26500000Y-53390000D02*
X26500000Y-42090000D01*
X68625000Y-45145000D02*
G75*
G03*
X67000000Y-43520000I-1624998J2D01*
G01*
X67000000Y-43520000D02*
G75*
G03*
X65375000Y-45145000I-2J-1624998D01*
G01*
D12*
%TO.C,D8*%
X37732500Y-54835000D02*
X37082500Y-54835000D01*
X37732500Y-57955000D02*
X37082500Y-57955000D01*
X37732500Y-54835000D02*
X38382500Y-54835000D01*
X37732500Y-57955000D02*
X39407500Y-57955000D01*
%TO.C,C39*%
X79760000Y-73466252D02*
X79760000Y-72943748D01*
X81230000Y-73466252D02*
X81230000Y-72943748D01*
%TO.C,D4*%
X43092502Y-81299999D02*
X45377502Y-81299999D01*
X45377502Y-81299999D02*
X45377502Y-79829999D01*
X45377502Y-79829999D02*
X43092502Y-79829999D01*
%TO.C,C13*%
X46170000Y-101662164D02*
X46170000Y-101877836D01*
X46890000Y-101662164D02*
X46890000Y-101877836D01*
%TO.C,R4*%
X55366360Y-101650000D02*
X55673642Y-101650000D01*
X55366360Y-100890000D02*
X55673642Y-100890000D01*
%TO.C,U8*%
X78905000Y-69165000D02*
X76955000Y-69165000D01*
X78905000Y-64045000D02*
X80855000Y-64045000D01*
X78905000Y-64045000D02*
X76955000Y-64045000D01*
X78905000Y-69165000D02*
X82355000Y-69165000D01*
%TO.C,R48*%
X85892500Y-66422742D02*
X85892500Y-66897258D01*
X84847500Y-66422742D02*
X84847500Y-66897258D01*
D13*
%TO.C,SW5*%
X32172679Y-80410000D02*
X30672679Y-80410000D01*
X30672679Y-80410000D02*
X30672679Y-83410000D01*
X32172679Y-83410000D02*
X32172679Y-80410000D01*
D14*
X33172679Y-84910000D02*
X33172679Y-78910000D01*
X29672679Y-78910000D02*
X29672679Y-84910000D01*
D13*
X30672679Y-83410000D02*
X32172679Y-83410000D01*
D12*
%TO.C,C56*%
X87830000Y-97662165D02*
X87830000Y-97877837D01*
X88550000Y-97662165D02*
X88550000Y-97877837D01*
D13*
%TO.C,SW3*%
X65030000Y-103900000D02*
X65030000Y-102400000D01*
X62030000Y-102400000D02*
X62030000Y-103900000D01*
X62030000Y-103900000D02*
X65030000Y-103900000D01*
D14*
X60530000Y-104900000D02*
X66530000Y-104900000D01*
X66530000Y-101400000D02*
X60530000Y-101400000D01*
D13*
X65030000Y-102400000D02*
X62030000Y-102400000D01*
D12*
%TO.C,R19*%
X47160244Y-82812499D02*
X47634760Y-82812499D01*
X47160244Y-81767499D02*
X47634760Y-81767499D01*
%TO.C,C34*%
X80980000Y-89247836D02*
X80980000Y-89032164D01*
X80260000Y-89247836D02*
X80260000Y-89032164D01*
%TO.C,R6*%
X41016359Y-100090000D02*
X41323641Y-100090000D01*
X41016359Y-99330000D02*
X41323641Y-99330000D01*
%TO.C,TP14*%
X77670000Y-98029999D02*
G75*
G03*
X77670000Y-98029999I-700000J0D01*
G01*
%TO.C,G\u002A\u002A\u002A*%
G36*
X67714744Y-88271468D02*
G01*
X67820180Y-88286387D01*
X67905288Y-88311060D01*
X67960574Y-88332600D01*
X68001128Y-88354791D01*
X68038049Y-88385264D01*
X68082436Y-88431645D01*
X68085269Y-88434759D01*
X68143093Y-88505909D01*
X68180386Y-88571310D01*
X68191677Y-88600170D01*
X68209174Y-88679522D01*
X68216193Y-88778891D01*
X68212899Y-88889522D01*
X68199457Y-89002658D01*
X68182604Y-89084726D01*
X68174041Y-89111560D01*
X68155218Y-89165173D01*
X68126842Y-89243695D01*
X68089623Y-89345256D01*
X68044270Y-89467987D01*
X67991491Y-89610017D01*
X67931996Y-89769477D01*
X67866491Y-89944499D01*
X67795687Y-90133210D01*
X67720292Y-90333744D01*
X67641014Y-90544229D01*
X67558563Y-90762796D01*
X67473646Y-90987575D01*
X67386974Y-91216697D01*
X67299253Y-91448292D01*
X67211193Y-91680489D01*
X67123503Y-91911421D01*
X67036891Y-92139217D01*
X66952066Y-92362008D01*
X66869737Y-92577922D01*
X66790612Y-92785092D01*
X66715400Y-92981648D01*
X66644809Y-93165719D01*
X66579548Y-93335437D01*
X66520327Y-93488930D01*
X66467852Y-93624331D01*
X66422835Y-93739769D01*
X66385982Y-93833374D01*
X66358003Y-93903277D01*
X66339606Y-93947609D01*
X66337978Y-93951344D01*
X66218883Y-94197840D01*
X66073094Y-94456750D01*
X65901385Y-94726837D01*
X65704537Y-95006865D01*
X65525535Y-95242239D01*
X65478374Y-95298971D01*
X65412532Y-95373434D01*
X65331442Y-95462101D01*
X65238538Y-95561445D01*
X65137251Y-95667936D01*
X65031017Y-95778048D01*
X64923267Y-95888251D01*
X64817437Y-95995019D01*
X64716958Y-96094823D01*
X64625266Y-96184136D01*
X64545791Y-96259430D01*
X64481969Y-96317177D01*
X64466391Y-96330548D01*
X64193273Y-96551235D01*
X63919566Y-96753343D01*
X63648195Y-96934995D01*
X63382086Y-97094315D01*
X63124164Y-97229426D01*
X62927048Y-97318257D01*
X62894465Y-97331296D01*
X62835487Y-97354337D01*
X62752031Y-97386653D01*
X62646018Y-97427510D01*
X62519369Y-97476179D01*
X62374003Y-97531928D01*
X62211839Y-97594028D01*
X62034800Y-97661745D01*
X61844803Y-97734352D01*
X61643770Y-97811114D01*
X61433619Y-97891302D01*
X61216272Y-97974187D01*
X60993647Y-98059035D01*
X60767666Y-98145118D01*
X60540248Y-98231703D01*
X60313314Y-98318059D01*
X60088781Y-98403457D01*
X59868572Y-98487164D01*
X59654607Y-98568451D01*
X59448805Y-98646586D01*
X59253085Y-98720839D01*
X59069368Y-98790478D01*
X58899575Y-98854773D01*
X58745625Y-98912992D01*
X58609437Y-98964406D01*
X58492934Y-99008283D01*
X58398031Y-99043891D01*
X58326654Y-99070502D01*
X58280718Y-99087383D01*
X58265094Y-99092898D01*
X58113036Y-99134960D01*
X57964831Y-99159631D01*
X57826176Y-99166471D01*
X57702764Y-99155047D01*
X57642412Y-99140503D01*
X57599218Y-99124069D01*
X57559968Y-99100413D01*
X57515949Y-99063499D01*
X57477180Y-99026089D01*
X57428343Y-98975416D01*
X57395949Y-98934657D01*
X57373230Y-98893672D01*
X57353415Y-98842323D01*
X57352278Y-98839007D01*
X57329685Y-98740861D01*
X57320380Y-98622584D01*
X57324453Y-98491738D01*
X57341993Y-98355882D01*
X57346304Y-98332919D01*
X57371438Y-98227180D01*
X57407771Y-98103871D01*
X57452023Y-97972465D01*
X57500912Y-97842433D01*
X57551157Y-97723251D01*
X57575392Y-97671449D01*
X57599062Y-97624082D01*
X57634182Y-97555449D01*
X57679479Y-97467944D01*
X57733679Y-97363968D01*
X57795508Y-97245915D01*
X57863693Y-97116183D01*
X57936960Y-96977169D01*
X58014034Y-96831268D01*
X58093644Y-96680878D01*
X58174513Y-96528396D01*
X58255372Y-96376217D01*
X58334942Y-96226740D01*
X58411953Y-96082360D01*
X58485129Y-95945475D01*
X58553198Y-95818480D01*
X58614885Y-95703773D01*
X58668918Y-95603750D01*
X58714022Y-95520810D01*
X58748924Y-95457346D01*
X58772349Y-95415757D01*
X58783025Y-95398440D01*
X58783519Y-95398101D01*
X58791341Y-95412993D01*
X58811025Y-95452969D01*
X58841303Y-95515394D01*
X58880909Y-95597625D01*
X58928574Y-95697026D01*
X58983032Y-95810957D01*
X59043016Y-95936778D01*
X59107258Y-96071851D01*
X59125554Y-96110377D01*
X59202990Y-96273452D01*
X59268628Y-96411146D01*
X59323904Y-96525754D01*
X59370250Y-96619569D01*
X59409101Y-96694888D01*
X59441889Y-96754007D01*
X59470046Y-96799219D01*
X59495010Y-96832821D01*
X59518210Y-96857106D01*
X59541082Y-96874370D01*
X59565059Y-96886909D01*
X59591575Y-96897018D01*
X59622062Y-96906991D01*
X59623368Y-96907414D01*
X59709955Y-96925347D01*
X59816765Y-96931281D01*
X59935798Y-96925245D01*
X60059056Y-96907265D01*
X60065915Y-96905906D01*
X60260373Y-96855914D01*
X60470271Y-96781578D01*
X60694071Y-96684102D01*
X60930232Y-96564688D01*
X61177217Y-96424542D01*
X61433486Y-96264866D01*
X61697500Y-96086866D01*
X61967719Y-95891745D01*
X62242604Y-95680707D01*
X62520618Y-95454957D01*
X62800219Y-95215696D01*
X63079870Y-94964131D01*
X63358031Y-94701466D01*
X63633163Y-94428902D01*
X63903727Y-94147646D01*
X64168183Y-93858900D01*
X64424994Y-93563869D01*
X64587144Y-93369234D01*
X64821469Y-93074361D01*
X65036447Y-92786315D01*
X65231365Y-92506332D01*
X65405519Y-92235648D01*
X65558198Y-91975497D01*
X65688695Y-91727118D01*
X65796302Y-91491743D01*
X65880309Y-91270611D01*
X65940010Y-91064955D01*
X65959207Y-90975398D01*
X65973148Y-90858612D01*
X65972324Y-90742896D01*
X65957737Y-90634741D01*
X65930384Y-90540639D01*
X65891265Y-90467078D01*
X65878505Y-90451232D01*
X65855396Y-90434097D01*
X65806385Y-90405623D01*
X65731115Y-90365631D01*
X65629235Y-90313941D01*
X65500391Y-90250375D01*
X65344230Y-90174754D01*
X65160398Y-90086898D01*
X65147635Y-90080831D01*
X65011683Y-90015971D01*
X64884524Y-89954789D01*
X64768783Y-89898589D01*
X64667086Y-89848668D01*
X64582057Y-89806325D01*
X64516322Y-89772861D01*
X64472505Y-89749574D01*
X64453233Y-89737764D01*
X64452548Y-89736825D01*
X64465725Y-89727878D01*
X64503654Y-89705940D01*
X64563933Y-89672293D01*
X64644159Y-89628214D01*
X64741928Y-89574985D01*
X64854836Y-89513883D01*
X64980483Y-89446190D01*
X65116463Y-89373184D01*
X65260375Y-89296146D01*
X65409815Y-89216355D01*
X65562380Y-89135090D01*
X65715667Y-89053632D01*
X65867274Y-88973260D01*
X66014796Y-88895252D01*
X66155832Y-88820889D01*
X66287978Y-88751451D01*
X66408831Y-88688217D01*
X66515988Y-88632467D01*
X66607046Y-88585479D01*
X66679602Y-88548535D01*
X66731252Y-88522915D01*
X66740735Y-88518372D01*
X66856357Y-88467594D01*
X66984370Y-88418122D01*
X67116802Y-88372546D01*
X67245675Y-88333455D01*
X67363020Y-88303437D01*
X67457980Y-88285481D01*
X67596417Y-88271303D01*
X67714744Y-88271468D01*
G37*
G36*
X60603175Y-87899360D02*
G01*
X60623707Y-87909117D01*
X60670016Y-87931090D01*
X60740157Y-87964357D01*
X60832186Y-88007997D01*
X60944160Y-88061087D01*
X61074133Y-88122706D01*
X61220162Y-88191931D01*
X61380302Y-88267843D01*
X61552609Y-88349517D01*
X61735140Y-88436035D01*
X61925950Y-88526471D01*
X62038331Y-88579734D01*
X62232176Y-88671679D01*
X62418247Y-88760081D01*
X62594662Y-88844037D01*
X62759539Y-88922644D01*
X62910994Y-88995001D01*
X63047146Y-89060206D01*
X63166112Y-89117355D01*
X63266009Y-89165546D01*
X63344957Y-89203878D01*
X63401071Y-89231448D01*
X63432469Y-89247354D01*
X63438668Y-89250930D01*
X63450871Y-89271971D01*
X63468773Y-89312947D01*
X63487097Y-89361164D01*
X63511193Y-89471411D01*
X63512125Y-89599899D01*
X63490503Y-89745487D01*
X63446941Y-89907031D01*
X63382051Y-90083392D01*
X63296445Y-90273427D01*
X63190735Y-90475995D01*
X63065535Y-90689954D01*
X62921456Y-90914162D01*
X62759110Y-91147478D01*
X62579110Y-91388760D01*
X62382068Y-91636867D01*
X62168596Y-91890656D01*
X62069899Y-92003517D01*
X62020862Y-92057282D01*
X61953796Y-92128397D01*
X61872395Y-92213139D01*
X61780358Y-92307784D01*
X61681378Y-92408606D01*
X61579152Y-92511881D01*
X61477376Y-92613883D01*
X61379745Y-92710889D01*
X61289956Y-92799173D01*
X61211704Y-92875011D01*
X61148685Y-92934680D01*
X61119185Y-92961650D01*
X60860157Y-93186863D01*
X60603763Y-93397152D01*
X60351574Y-93591558D01*
X60105159Y-93769120D01*
X59866088Y-93928877D01*
X59635932Y-94069872D01*
X59416260Y-94191141D01*
X59208642Y-94291724D01*
X59014649Y-94370664D01*
X58835849Y-94426998D01*
X58673813Y-94459766D01*
X58668870Y-94460422D01*
X58539881Y-94466083D01*
X58425284Y-94448194D01*
X58343088Y-94415553D01*
X58333632Y-94410143D01*
X58324328Y-94403407D01*
X58314369Y-94393739D01*
X58302945Y-94379531D01*
X58289248Y-94359177D01*
X58272470Y-94331068D01*
X58251802Y-94293599D01*
X58226434Y-94245163D01*
X58195559Y-94184151D01*
X58158367Y-94108958D01*
X58114052Y-94017976D01*
X58061803Y-93909598D01*
X58000811Y-93782218D01*
X57930269Y-93634227D01*
X57849368Y-93464021D01*
X57757299Y-93269990D01*
X57653254Y-93050528D01*
X57604972Y-92948659D01*
X57495627Y-92717924D01*
X57398735Y-92513347D01*
X57313601Y-92333367D01*
X57239533Y-92176426D01*
X57175838Y-92040965D01*
X57121820Y-91925425D01*
X57076787Y-91828244D01*
X57040046Y-91747866D01*
X57010903Y-91682730D01*
X56988664Y-91631278D01*
X56972636Y-91591948D01*
X56962124Y-91563183D01*
X56956437Y-91543423D01*
X56954879Y-91531109D01*
X56956759Y-91524681D01*
X56961381Y-91522580D01*
X56968054Y-91523247D01*
X56971318Y-91523982D01*
X57063820Y-91533801D01*
X57175561Y-91525100D01*
X57302136Y-91498906D01*
X57439142Y-91456247D01*
X57582174Y-91398148D01*
X57650590Y-91365621D01*
X57868232Y-91246616D01*
X58095595Y-91102529D01*
X58329681Y-90936192D01*
X58567492Y-90750439D01*
X58806030Y-90548103D01*
X59042297Y-90332017D01*
X59273296Y-90105014D01*
X59496027Y-89869928D01*
X59707496Y-89629591D01*
X59904703Y-89386836D01*
X60084650Y-89144498D01*
X60230346Y-88927552D01*
X60340908Y-88743029D01*
X60431363Y-88569385D01*
X60501139Y-88408239D01*
X60549667Y-88261212D01*
X60576376Y-88129922D01*
X60580696Y-88015990D01*
X60572282Y-87956541D01*
X60554107Y-87875913D01*
X60603175Y-87899360D01*
G37*
G36*
X54985620Y-85246313D02*
G01*
X55002218Y-85253482D01*
X55044734Y-85272990D01*
X55111384Y-85303997D01*
X55200387Y-85345662D01*
X55309958Y-85397144D01*
X55438317Y-85457602D01*
X55583680Y-85526196D01*
X55744262Y-85602086D01*
X55918284Y-85684428D01*
X56103961Y-85772384D01*
X56299511Y-85865114D01*
X56503150Y-85961775D01*
X56565736Y-85991500D01*
X58123153Y-86731329D01*
X58143797Y-86789261D01*
X58155891Y-86865451D01*
X58145167Y-86959831D01*
X58112299Y-87070869D01*
X58057964Y-87197027D01*
X57982834Y-87336771D01*
X57887585Y-87488566D01*
X57772891Y-87650877D01*
X57754083Y-87675994D01*
X57717669Y-87722178D01*
X57667263Y-87783211D01*
X57606780Y-87854629D01*
X57540138Y-87931969D01*
X57471255Y-88010770D01*
X57404048Y-88086568D01*
X57342433Y-88154901D01*
X57290329Y-88211307D01*
X57251651Y-88251322D01*
X57236547Y-88265584D01*
X57217175Y-88282783D01*
X57179802Y-88316232D01*
X57129212Y-88361638D01*
X57070191Y-88414712D01*
X57047865Y-88434810D01*
X56879679Y-88580100D01*
X56715857Y-88709585D01*
X56558200Y-88822313D01*
X56408509Y-88917331D01*
X56268588Y-88993684D01*
X56140237Y-89050420D01*
X56025260Y-89086586D01*
X55925458Y-89101228D01*
X55842633Y-89093394D01*
X55818237Y-89085267D01*
X55810004Y-89081494D01*
X55801699Y-89076102D01*
X55792561Y-89067571D01*
X55781829Y-89054380D01*
X55768740Y-89035008D01*
X55752536Y-89007933D01*
X55732452Y-88971638D01*
X55707728Y-88924599D01*
X55677601Y-88865296D01*
X55641313Y-88792210D01*
X55598099Y-88703819D01*
X55547200Y-88598603D01*
X55487852Y-88475040D01*
X55419296Y-88331610D01*
X55340769Y-88166793D01*
X55251510Y-87979067D01*
X55150758Y-87766913D01*
X55037750Y-87528809D01*
X55018031Y-87487253D01*
X54919978Y-87280582D01*
X54825665Y-87081709D01*
X54735919Y-86892381D01*
X54651565Y-86714348D01*
X54573434Y-86549358D01*
X54502349Y-86399160D01*
X54439138Y-86265502D01*
X54384630Y-86150132D01*
X54339652Y-86054799D01*
X54305029Y-85981252D01*
X54281589Y-85931238D01*
X54270159Y-85906507D01*
X54269137Y-85904093D01*
X54281897Y-85899457D01*
X54312711Y-85897583D01*
X54347883Y-85890566D01*
X54399100Y-85872084D01*
X54455828Y-85845991D01*
X54460935Y-85843354D01*
X54508170Y-85817124D01*
X54550286Y-85789192D01*
X54593590Y-85754454D01*
X54644391Y-85707809D01*
X54709000Y-85644153D01*
X54716271Y-85636850D01*
X54818006Y-85527903D01*
X54892593Y-85433015D01*
X54940012Y-85352218D01*
X54960239Y-85285543D01*
X54960856Y-85278173D01*
X54966402Y-85250514D01*
X54982342Y-85245636D01*
X54985620Y-85246313D01*
G37*
%TO.C,R22*%
X49009582Y-109282807D02*
X49316864Y-109282807D01*
X49009582Y-108522807D02*
X49316864Y-108522807D01*
D13*
%TO.C,SW2*%
X65020000Y-106670000D02*
X62020000Y-106670000D01*
D14*
X60520000Y-109170000D02*
X66520000Y-109170000D01*
D13*
X62020000Y-106670000D02*
X62020000Y-108170000D01*
D14*
X66520000Y-105670000D02*
X60520000Y-105670000D01*
D13*
X62020000Y-108170000D02*
X65020000Y-108170000D01*
X65020000Y-108170000D02*
X65020000Y-106670000D01*
D12*
%TO.C,C63*%
X91430000Y-100802164D02*
X91430000Y-101017836D01*
X90710000Y-100802164D02*
X90710000Y-101017836D01*
%TO.C,R2*%
X58189526Y-70765000D02*
X58496808Y-70765000D01*
X58189526Y-71525000D02*
X58496808Y-71525000D01*
%TO.C,R47*%
X69917500Y-65507742D02*
X69917500Y-65982258D01*
X68872500Y-65507742D02*
X68872500Y-65982258D01*
%TO.C,C3*%
X82680000Y-89247836D02*
X82680000Y-89032164D01*
X83400000Y-89247836D02*
X83400000Y-89032164D01*
%TO.C,D2*%
X64810000Y-73705000D02*
X66280000Y-73705000D01*
X64810000Y-71420000D02*
X64810000Y-73705000D01*
X66280000Y-73705000D02*
X66280000Y-71420000D01*
%TO.C,R23*%
X82032258Y-63827500D02*
X81557742Y-63827500D01*
X82032258Y-62782500D02*
X81557742Y-62782500D01*
%TO.C,R35*%
X77507742Y-62772500D02*
X77982258Y-62772500D01*
X77507742Y-63817500D02*
X77982258Y-63817500D01*
%TO.C,R17*%
X51760000Y-79483641D02*
X51760000Y-79176359D01*
X51000000Y-79483641D02*
X51000000Y-79176359D01*
%TO.C,R36*%
X33802679Y-66526359D02*
X33802679Y-66833641D01*
X33042679Y-66526359D02*
X33042679Y-66833641D01*
%TO.C,R42*%
X45053641Y-63950000D02*
X44746359Y-63950000D01*
X45053641Y-63190000D02*
X44746359Y-63190000D01*
D10*
%TO.C,U7*%
X29480000Y-59180000D02*
X27730000Y-59180000D01*
X34980000Y-58975000D02*
X34980000Y-59275000D01*
X29480000Y-64485000D02*
X29480000Y-64185000D01*
X34980000Y-64485000D02*
X34980000Y-64185000D01*
X29480000Y-58975000D02*
X29480000Y-59180000D01*
X29480000Y-58975000D02*
X34980000Y-58975000D01*
X29480000Y-64485000D02*
X34980000Y-64485000D01*
D12*
%TO.C,R33*%
X63766808Y-77525000D02*
X63459526Y-77525000D01*
X63766808Y-78285000D02*
X63459526Y-78285000D01*
%TO.C,R46*%
X68462500Y-75120241D02*
X68462500Y-75594757D01*
X69507500Y-75120241D02*
X69507500Y-75594757D01*
%TO.C,R8*%
X63766808Y-70765000D02*
X63459526Y-70765000D01*
X63766808Y-71525000D02*
X63459526Y-71525000D01*
%TO.C,R20*%
X47160244Y-81087499D02*
X47634760Y-81087499D01*
X47160244Y-80042499D02*
X47634760Y-80042499D01*
%TO.C,C66*%
X94470000Y-97427836D02*
X94470000Y-97212164D01*
X93750000Y-97427836D02*
X93750000Y-97212164D01*
%TO.C,TP15*%
X76030000Y-98655000D02*
G75*
G03*
X76030000Y-98655000I-700000J0D01*
G01*
%TO.C,Q3*%
X83345000Y-57645001D02*
X83345000Y-59595001D01*
X78225000Y-57645001D02*
X78225000Y-61095001D01*
X83345000Y-57645001D02*
X83345000Y-55695001D01*
X78225000Y-57645001D02*
X78225000Y-55695001D01*
%TO.C,C4*%
X45055328Y-86987088D02*
X45271000Y-86987088D01*
X45055328Y-87707088D02*
X45271000Y-87707088D01*
%TO.C,C64*%
X92677836Y-98170000D02*
X92462164Y-98170000D01*
X92677836Y-97450000D02*
X92462164Y-97450000D01*
%TO.C,R41*%
X45053641Y-62900000D02*
X44746359Y-62900000D01*
X45053641Y-62140000D02*
X44746359Y-62140000D01*
%TO.C,C14*%
X47695452Y-88947759D02*
X47542949Y-88795256D01*
X47186335Y-89456876D02*
X47033832Y-89304373D01*
%TO.C,C30*%
X84180000Y-91467836D02*
X84180000Y-91252164D01*
X83460000Y-91467836D02*
X83460000Y-91252164D01*
%TO.C,R18*%
X65022500Y-75087743D02*
X65022500Y-75562259D01*
X66067500Y-75087743D02*
X66067500Y-75562259D01*
%TO.C,C48*%
X40680000Y-76852164D02*
X40680000Y-77067836D01*
X39960000Y-76852164D02*
X39960000Y-77067836D01*
%TO.C,R9*%
X63459526Y-71775000D02*
X63766808Y-71775000D01*
X63459526Y-72535000D02*
X63766808Y-72535000D01*
%TO.C,C58*%
X88552164Y-96610000D02*
X88767836Y-96610000D01*
X88552164Y-95890000D02*
X88767836Y-95890000D01*
%TO.C,C7*%
X54222617Y-89156268D02*
X54222617Y-88940596D01*
X53502617Y-89156268D02*
X53502617Y-88940596D01*
%TO.C,R30*%
X89033641Y-74894999D02*
X88726359Y-74894999D01*
X89033641Y-75654999D02*
X88726359Y-75654999D01*
%TO.C,R24*%
X93733641Y-99809999D02*
X93426359Y-99809999D01*
X93733641Y-99049999D02*
X93426359Y-99049999D01*
%TO.C,U2*%
X84740000Y-101900000D02*
X84140000Y-101900000D01*
X79520000Y-97280000D02*
X79520000Y-96680000D01*
X84740000Y-101300000D02*
X84740000Y-101900000D01*
X84740000Y-97280000D02*
X84740000Y-96680000D01*
X79520000Y-101300000D02*
X79520000Y-101900000D01*
X79520000Y-96680000D02*
X80120000Y-96680000D01*
X79520000Y-101900000D02*
X80120000Y-101900000D01*
%TO.C,Y5*%
X82720000Y-93569999D02*
X82720000Y-90269999D01*
X79920000Y-93569999D02*
X82720000Y-93569999D01*
%TO.C,C12*%
X52365000Y-102078748D02*
X52365000Y-102601252D01*
X50895000Y-102078748D02*
X50895000Y-102601252D01*
%TO.C,R25*%
X62086359Y-99770000D02*
X62393641Y-99770000D01*
X62086359Y-100530000D02*
X62393641Y-100530000D01*
%TO.C,R16*%
X52050000Y-79483641D02*
X52050000Y-79176359D01*
X52810000Y-79483641D02*
X52810000Y-79176359D01*
%TO.C,R5*%
X58496808Y-71775000D02*
X58189526Y-71775000D01*
X58496808Y-72535000D02*
X58189526Y-72535000D01*
%TO.C,R11*%
X58189526Y-75445000D02*
X58496808Y-75445000D01*
X58189526Y-76205000D02*
X58496808Y-76205000D01*
%TO.C,R40*%
X92680000Y-102856359D02*
X92680000Y-103163641D01*
X93440000Y-102856359D02*
X93440000Y-103163641D01*
%TO.C,C52*%
X45122164Y-67480000D02*
X45337836Y-67480000D01*
X45122164Y-68200000D02*
X45337836Y-68200000D01*
%TO.C,C31*%
X41710000Y-76852164D02*
X41710000Y-77067836D01*
X40990000Y-76852164D02*
X40990000Y-77067836D01*
%TO.C,C60*%
X89727836Y-96920001D02*
X89512164Y-96920001D01*
X89727836Y-97640001D02*
X89512164Y-97640001D01*
%TO.C,R13*%
X58189526Y-77525000D02*
X58496808Y-77525000D01*
X58189526Y-78285000D02*
X58496808Y-78285000D01*
%TO.C,C61*%
X89747836Y-101300000D02*
X89532164Y-101300000D01*
X89747836Y-100580000D02*
X89532164Y-100580000D01*
%TO.C,C37*%
X68910000Y-107047836D02*
X68910000Y-106832164D01*
X69630000Y-107047836D02*
X69630000Y-106832164D01*
%TO.C,C17*%
X50297836Y-105300000D02*
X50082164Y-105300000D01*
X50297836Y-104580000D02*
X50082164Y-104580000D01*
%TO.C,C25*%
X82950000Y-67176251D02*
X82950000Y-66653747D01*
X84420000Y-67176251D02*
X84420000Y-66653747D01*
%TO.C,Q7*%
X90560001Y-60470000D02*
X90560001Y-61970000D01*
X83930001Y-61970000D02*
X83930001Y-64800000D01*
X83660001Y-61970000D02*
X83930001Y-61970000D01*
X90560001Y-61970000D02*
X90290001Y-61970000D01*
X90290001Y-61970000D02*
X90290001Y-63070000D01*
X83660001Y-60470000D02*
X83660001Y-61970000D01*
%TO.C,C51*%
X40990000Y-63107836D02*
X40990000Y-62892164D01*
X40270000Y-63107836D02*
X40270000Y-62892164D01*
%TO.C,Q6*%
X60233167Y-77915000D02*
X61633167Y-77915000D01*
X61633167Y-75595000D02*
X59733167Y-75595000D01*
%TO.C,C11*%
X53512164Y-101890000D02*
X53727836Y-101890000D01*
X53512164Y-102610000D02*
X53727836Y-102610000D01*
%TO.C,C35*%
X45122164Y-66230000D02*
X45337836Y-66230000D01*
X45122164Y-65510000D02*
X45337836Y-65510000D01*
%TO.C,Q5*%
X61633167Y-70995000D02*
X59733167Y-70995000D01*
X60233167Y-73315000D02*
X61633167Y-73315000D01*
%TO.C,TP7*%
X72765000Y-77585000D02*
G75*
G03*
X72765000Y-77585000I-700000J0D01*
G01*
%TO.C,D3*%
X43092502Y-82985001D02*
X45377502Y-82985001D01*
X45377502Y-82985001D02*
X45377502Y-81515001D01*
X45377502Y-81515001D02*
X43092502Y-81515001D01*
%TO.C,C41*%
X77690000Y-73466252D02*
X77690000Y-72943748D01*
X79160000Y-73466252D02*
X79160000Y-72943748D01*
%TO.C,TC2*%
X32020000Y-97880000D02*
X32655000Y-97880000D01*
X32655000Y-97880000D02*
X32655000Y-98515000D01*
%TO.C,C67*%
X94479999Y-100802164D02*
X94479999Y-101017836D01*
X93759999Y-100802164D02*
X93759999Y-101017836D01*
%TO.C,U10*%
X93516500Y-65225000D02*
X93516500Y-62915000D01*
X103436500Y-67535000D02*
X103161500Y-67535000D01*
X103436500Y-65225000D02*
X103436500Y-62915000D01*
X93516500Y-67535000D02*
X93791500Y-67535000D01*
X103436500Y-62915000D02*
X103161500Y-62915000D01*
X93516500Y-62915000D02*
X93791500Y-62915000D01*
X103161500Y-62915000D02*
X103161500Y-61625000D01*
X93516500Y-65225000D02*
X93516500Y-67535000D01*
X103436500Y-65225000D02*
X103436500Y-67535000D01*
%TO.C,R14*%
X44088641Y-59715000D02*
X43781359Y-59715000D01*
X44088641Y-60475000D02*
X43781359Y-60475000D01*
%TO.C,C42*%
X93076252Y-70739999D02*
X92553748Y-70739999D01*
X93076252Y-69269999D02*
X92553748Y-69269999D01*
%TO.C,C59*%
X88572164Y-101600000D02*
X88787836Y-101600000D01*
X88572164Y-102320000D02*
X88787836Y-102320000D01*
%TO.C,C44*%
X95056252Y-57600000D02*
X94533748Y-57600000D01*
X95056252Y-59070000D02*
X94533748Y-59070000D01*
%TO.C,C15*%
X47195000Y-102088748D02*
X47195000Y-102611252D01*
X48665000Y-102088748D02*
X48665000Y-102611252D01*
%TO.C,Y2*%
X44397487Y-108070940D02*
X46730940Y-105737487D01*
X46730940Y-105737487D02*
X43902513Y-102909060D01*
%TO.C,C45*%
X84760000Y-93767836D02*
X84760000Y-93552164D01*
X84040000Y-93767836D02*
X84040000Y-93552164D01*
%TO.C,J3*%
X48173471Y-61910000D02*
X48720000Y-61910000D01*
X46500000Y-61150000D02*
X46500000Y-60390000D01*
X46500000Y-60390000D02*
X47610000Y-60390000D01*
X46500000Y-61910000D02*
X47046529Y-61910000D01*
X46500000Y-65655000D02*
X47302470Y-65655000D01*
X47917530Y-65655000D02*
X48720000Y-65655000D01*
X48720000Y-61910000D02*
X48720000Y-65655000D01*
X46500000Y-61910000D02*
X46500000Y-65655000D01*
%TO.C,C9*%
X37370000Y-60182164D02*
X37370000Y-60397836D01*
X38090000Y-60182164D02*
X38090000Y-60397836D01*
D13*
%TO.C,SW4*%
X32172679Y-72990000D02*
X32172679Y-69990000D01*
X32172679Y-69990000D02*
X30672679Y-69990000D01*
X30672679Y-72990000D02*
X32172679Y-72990000D01*
D14*
X29672679Y-68490000D02*
X29672679Y-74490000D01*
D13*
X30672679Y-69990000D02*
X30672679Y-72990000D01*
D14*
X33172679Y-74490000D02*
X33172679Y-68490000D01*
D12*
%TO.C,C8*%
X42182836Y-97090000D02*
X41967164Y-97090000D01*
X42182836Y-97810000D02*
X41967164Y-97810000D01*
%TO.C,Q2*%
X78005000Y-57645000D02*
X78005000Y-55695000D01*
X72885000Y-57645000D02*
X72885000Y-55695000D01*
X78005000Y-57645000D02*
X78005000Y-59595000D01*
X72885000Y-57645000D02*
X72885000Y-61095000D01*
%TO.C,C20*%
X50347836Y-109530000D02*
X50132164Y-109530000D01*
X50347836Y-110250000D02*
X50132164Y-110250000D01*
%TO.C,U11*%
X37530000Y-74660000D02*
X36880000Y-74660000D01*
X44100000Y-74660000D02*
X44100000Y-74010000D01*
X43450000Y-74660000D02*
X44100000Y-74660000D01*
X36880000Y-74660000D02*
X36880000Y-74010000D01*
X44100000Y-67440000D02*
X44100000Y-68090000D01*
X43450000Y-67440000D02*
X44100000Y-67440000D01*
X37530000Y-67440000D02*
X36880000Y-67440000D01*
%TD*%
%LPC*%
D15*
%TO.C,C2*%
X85460001Y-91840000D03*
X85460001Y-89940000D03*
%TD*%
D16*
%TO.C,R21*%
X67195000Y-74497499D03*
X67195000Y-76147499D03*
%TD*%
D17*
%TO.C,C65*%
X93060000Y-101540000D03*
X92100000Y-101540000D03*
%TD*%
D18*
%TO.C,C32*%
X83955001Y-70325000D03*
X82055001Y-70325000D03*
%TD*%
D19*
%TO.C,C24*%
X39230000Y-79100000D03*
X40190000Y-79100000D03*
%TD*%
D20*
%TO.C,L6*%
X73950000Y-70480000D03*
X73950000Y-75180000D03*
%TD*%
D21*
%TO.C,C5*%
X51050000Y-55764999D03*
X51050000Y-57664999D03*
%TD*%
D22*
%TO.C,C22*%
X41857559Y-106231163D03*
X41178737Y-106909985D03*
%TD*%
D23*
%TO.C,R10*%
X64123167Y-73185000D03*
X63103167Y-73185000D03*
%TD*%
D24*
%TO.C,TP17*%
X75329999Y-100260000D03*
%TD*%
D18*
%TO.C,C16*%
X48960000Y-86450000D03*
X47060000Y-86450000D03*
%TD*%
D25*
%TO.C,J2*%
X91605000Y-91910001D03*
D26*
X93080000Y-93435001D03*
D25*
X94555000Y-91910001D03*
%TD*%
D27*
%TO.C,L7*%
X86245000Y-97290000D03*
X87215000Y-97290000D03*
%TD*%
D28*
%TO.C,R7*%
X57833167Y-73185000D03*
X58853167Y-73185000D03*
%TD*%
D27*
%TO.C,L12*%
X92095000Y-100430001D03*
X93065000Y-100430001D03*
%TD*%
D29*
%TO.C,U3*%
X48970000Y-58500000D03*
X48970000Y-57230000D03*
X48970000Y-55960000D03*
X48970000Y-54690000D03*
X44020000Y-54690000D03*
X44020000Y-55960000D03*
X44020000Y-57230000D03*
X44020000Y-58500000D03*
%TD*%
D19*
%TO.C,C53*%
X86250000Y-95230000D03*
X87210000Y-95230000D03*
%TD*%
%TO.C,C21*%
X46750000Y-107960000D03*
X47710000Y-107960000D03*
%TD*%
D30*
%TO.C,R45*%
X50207500Y-63945000D03*
X56132500Y-63945000D03*
%TD*%
D19*
%TO.C,C55*%
X86250000Y-102040000D03*
X87210000Y-102040000D03*
%TD*%
D24*
%TO.C,TP18*%
X76970000Y-101170000D03*
%TD*%
D31*
%TO.C,C18*%
X46060589Y-103960589D03*
X46739411Y-104639411D03*
%TD*%
D32*
%TO.C,R34*%
X72480000Y-64635000D03*
X74130000Y-64635000D03*
%TD*%
D33*
%TO.C,J6*%
X26000000Y-96070000D03*
D34*
X26000000Y-97340000D03*
X26000000Y-98610000D03*
X26000000Y-99880000D03*
X26000000Y-101150000D03*
X26000000Y-102420000D03*
%TD*%
D35*
%TO.C,C47*%
X88005000Y-68274999D03*
X88005000Y-72674999D03*
%TD*%
D17*
%TO.C,C27*%
X80510000Y-102999999D03*
X79550000Y-102999999D03*
%TD*%
D36*
%TO.C,R26*%
X43150624Y-101729376D03*
X42429376Y-102450624D03*
%TD*%
D37*
%TO.C,Y4*%
X37300000Y-82220000D03*
X39500000Y-82220000D03*
X39500000Y-80520000D03*
X37300000Y-80520000D03*
%TD*%
D18*
%TO.C,C6*%
X58790000Y-109570000D03*
X56890000Y-109570000D03*
%TD*%
D38*
%TO.C,C33*%
X42330000Y-65660000D03*
X42330000Y-64700000D03*
%TD*%
D39*
%TO.C,F2*%
X69200000Y-57024000D03*
D40*
X55656300Y-57124000D03*
%TD*%
D23*
%TO.C,R31*%
X87420000Y-75274999D03*
X86400000Y-75274999D03*
%TD*%
D41*
%TO.C,R44*%
X93060000Y-95720000D03*
X93060000Y-94700000D03*
%TD*%
D18*
%TO.C,C46*%
X107185001Y-58335000D03*
X105285001Y-58335000D03*
%TD*%
D42*
%TO.C,U5*%
X35658163Y-87352086D03*
X35658163Y-88622086D03*
X35658163Y-89892086D03*
X35658163Y-91162086D03*
X42958163Y-91162086D03*
X42958163Y-89892086D03*
X42958163Y-88622086D03*
X42958163Y-87352086D03*
%TD*%
D24*
%TO.C,TP13*%
X75330000Y-97050000D03*
%TD*%
D17*
%TO.C,C50*%
X35070000Y-68130000D03*
X34110000Y-68130000D03*
%TD*%
D27*
%TO.C,L9*%
X89135000Y-98319999D03*
X90105000Y-98319999D03*
%TD*%
D17*
%TO.C,C49*%
X35050000Y-73650000D03*
X34090000Y-73650000D03*
%TD*%
D25*
%TO.C,J10*%
X94535001Y-106339999D03*
D26*
X93060001Y-104814999D03*
D25*
X91585001Y-106339999D03*
%TD*%
D38*
%TO.C,C36*%
X83390000Y-94140000D03*
X83390000Y-93180000D03*
%TD*%
D43*
%TO.C,D6*%
X67195000Y-72999999D03*
X67195000Y-71424999D03*
%TD*%
D38*
%TO.C,C57*%
X88190000Y-100940000D03*
X88190000Y-99980000D03*
%TD*%
D19*
%TO.C,C54*%
X86250000Y-96260000D03*
X87210000Y-96260000D03*
%TD*%
D44*
%TO.C,J7*%
X54075000Y-105185001D03*
D45*
X52550000Y-106660001D03*
D44*
X54075000Y-108135001D03*
%TD*%
D36*
%TO.C,R27*%
X43740000Y-102330000D03*
X43018752Y-103051248D03*
%TD*%
D23*
%TO.C,R29*%
X64123167Y-75825000D03*
X63103167Y-75825000D03*
%TD*%
D19*
%TO.C,C38*%
X44750000Y-64610000D03*
X45710000Y-64610000D03*
%TD*%
D17*
%TO.C,C26*%
X38250000Y-79090000D03*
X37290000Y-79090000D03*
%TD*%
D18*
%TO.C,C43*%
X103455000Y-58335000D03*
X101555000Y-58335000D03*
%TD*%
D24*
%TO.C,TP3*%
X87920000Y-77005000D03*
%TD*%
D32*
%TO.C,R39*%
X92215000Y-71780000D03*
X93865000Y-71780000D03*
%TD*%
D19*
%TO.C,C40*%
X48250000Y-72060000D03*
X49210000Y-72060000D03*
%TD*%
D46*
%TO.C,R3*%
X41262501Y-55472501D03*
X41262501Y-57297501D03*
%TD*%
D47*
%TO.C,D7*%
X34795000Y-55257500D03*
X32895000Y-55257500D03*
X33845000Y-57132500D03*
%TD*%
D28*
%TO.C,R32*%
X63103167Y-76835000D03*
X64123167Y-76835000D03*
%TD*%
D24*
%TO.C,TP16*%
X76970000Y-99600000D03*
%TD*%
D48*
%TO.C,L3*%
X49670000Y-105945000D03*
X49670000Y-106915000D03*
%TD*%
D19*
%TO.C,C10*%
X53140000Y-101260000D03*
X54100000Y-101260000D03*
%TD*%
D33*
%TO.C,J5*%
X60155000Y-110850000D03*
D34*
X61425000Y-110850000D03*
X62695000Y-110850000D03*
X63965000Y-110850000D03*
X65235000Y-110850000D03*
%TD*%
D27*
%TO.C,L5*%
X86245000Y-99610000D03*
X87215000Y-99610000D03*
%TD*%
D49*
%TO.C,R37*%
X27040000Y-58810000D03*
X27040000Y-59830000D03*
%TD*%
D23*
%TO.C,R43*%
X94070000Y-95720000D03*
X93050000Y-95720000D03*
%TD*%
D41*
%TO.C,R38*%
X43110000Y-79250000D03*
X43110000Y-78230000D03*
%TD*%
D28*
%TO.C,R15*%
X33060000Y-87359999D03*
X34080000Y-87359999D03*
%TD*%
D23*
%TO.C,R12*%
X58853167Y-76835000D03*
X57833167Y-76835000D03*
%TD*%
%TO.C,R28*%
X50710000Y-108900000D03*
X49690000Y-108900000D03*
%TD*%
D38*
%TO.C,C62*%
X91060000Y-97809998D03*
X91060000Y-96849998D03*
%TD*%
D50*
%TO.C,D5*%
X105445000Y-55870000D03*
X108245000Y-55870000D03*
%TD*%
D43*
%TO.C,D9*%
X68985000Y-72994999D03*
X68985000Y-71419999D03*
%TD*%
D38*
%TO.C,C29*%
X38770000Y-63480000D03*
X38770000Y-62520000D03*
%TD*%
D51*
%TO.C,U4*%
X49772202Y-99269157D03*
X50055045Y-98986314D03*
X50337887Y-98703472D03*
X50620730Y-98420629D03*
X50903573Y-98137786D03*
X51186415Y-97854944D03*
X51469258Y-97572101D03*
X51752101Y-97289258D03*
X52034944Y-97006415D03*
X52317786Y-96723573D03*
X52600629Y-96440730D03*
X52883472Y-96157887D03*
X53166314Y-95875045D03*
X53449157Y-95592202D03*
D52*
X53449157Y-94407798D03*
X53166314Y-94124955D03*
X52883472Y-93842113D03*
X52600629Y-93559270D03*
X52317786Y-93276427D03*
X52034944Y-92993585D03*
X51752101Y-92710742D03*
X51469258Y-92427899D03*
X51186415Y-92145056D03*
X50903573Y-91862214D03*
X50620730Y-91579371D03*
X50337887Y-91296528D03*
X50055045Y-91013686D03*
X49772202Y-90730843D03*
D51*
X48587798Y-90730843D03*
X48304955Y-91013686D03*
X48022113Y-91296528D03*
X47739270Y-91579371D03*
X47456427Y-91862214D03*
X47173585Y-92145056D03*
X46890742Y-92427899D03*
X46607899Y-92710742D03*
X46325056Y-92993585D03*
X46042214Y-93276427D03*
X45759371Y-93559270D03*
X45476528Y-93842113D03*
X45193686Y-94124955D03*
X44910843Y-94407798D03*
D52*
X44910843Y-95592202D03*
X45193686Y-95875045D03*
X45476528Y-96157887D03*
X45759371Y-96440730D03*
X46042214Y-96723573D03*
X46325056Y-97006415D03*
X46607899Y-97289258D03*
X46890742Y-97572101D03*
X47173585Y-97854944D03*
X47456427Y-98137786D03*
X47739270Y-98420629D03*
X48022113Y-98703472D03*
X48304955Y-98986314D03*
X48587798Y-99269157D03*
D53*
X49180000Y-95000000D03*
%TD*%
D54*
%TO.C,J4*%
X84025000Y-45040000D03*
D55*
X88215000Y-45040000D03*
X92405000Y-45040000D03*
X96595000Y-45040000D03*
X100785000Y-45040000D03*
X104975000Y-45040000D03*
X104975000Y-51390000D03*
X100785000Y-51390000D03*
X96595000Y-51390000D03*
X92405000Y-51390000D03*
X88215000Y-51390000D03*
X84025000Y-51390000D03*
D54*
X49975000Y-51390000D03*
D55*
X45785000Y-51390000D03*
X41595000Y-51390000D03*
X37405000Y-51390000D03*
X33215000Y-51390000D03*
X29025000Y-51390000D03*
X29025000Y-45040000D03*
X33215000Y-45040000D03*
X37405000Y-45040000D03*
X41595000Y-45040000D03*
X45785000Y-45040000D03*
X49975000Y-45040000D03*
%TD*%
D56*
%TO.C,D8*%
X38670000Y-57345000D03*
X38670000Y-55445000D03*
X36795000Y-56395000D03*
%TD*%
D15*
%TO.C,C39*%
X80495000Y-74155000D03*
X80495000Y-72255000D03*
%TD*%
D57*
%TO.C,D4*%
X44680002Y-80564999D03*
X43105002Y-80564999D03*
%TD*%
D58*
%TO.C,C13*%
X46530000Y-101290000D03*
X46530000Y-102250000D03*
%TD*%
D59*
%TO.C,L4*%
X49675000Y-107940000D03*
X48705000Y-107940000D03*
%TD*%
D28*
%TO.C,R4*%
X55010001Y-101270000D03*
X56030001Y-101270000D03*
%TD*%
D29*
%TO.C,U8*%
X81380000Y-68510000D03*
X81380000Y-67240000D03*
X81380000Y-65970000D03*
X81380000Y-64700000D03*
X76430000Y-64700000D03*
X76430000Y-65970000D03*
X76430000Y-67240000D03*
X76430000Y-68510000D03*
D60*
X78905000Y-66605000D03*
%TD*%
D16*
%TO.C,R48*%
X85370000Y-65835000D03*
X85370000Y-67485000D03*
%TD*%
D61*
%TO.C,SW5*%
X31422679Y-77910000D03*
X31422679Y-85910000D03*
%TD*%
D58*
%TO.C,C56*%
X88190000Y-97290001D03*
X88190000Y-98250001D03*
%TD*%
D61*
%TO.C,SW3*%
X59530000Y-103150000D03*
X67530000Y-103150000D03*
%TD*%
D32*
%TO.C,R19*%
X46572502Y-82289999D03*
X48222502Y-82289999D03*
%TD*%
D27*
%TO.C,L11*%
X92085000Y-96750000D03*
X93055000Y-96750000D03*
%TD*%
D38*
%TO.C,C34*%
X80620000Y-89620000D03*
X80620000Y-88660000D03*
%TD*%
D28*
%TO.C,R6*%
X40660000Y-99710000D03*
X41680000Y-99710000D03*
%TD*%
D24*
%TO.C,TP14*%
X76970000Y-98029999D03*
%TD*%
D28*
%TO.C,R22*%
X48653223Y-108902807D03*
X49673223Y-108902807D03*
%TD*%
D61*
%TO.C,SW2*%
X59520000Y-107420000D03*
X67520000Y-107420000D03*
%TD*%
D58*
%TO.C,C63*%
X91070000Y-100430000D03*
X91070000Y-101390000D03*
%TD*%
D28*
%TO.C,R2*%
X57833167Y-71145000D03*
X58853167Y-71145000D03*
%TD*%
D16*
%TO.C,R47*%
X69395000Y-64920000D03*
X69395000Y-66570000D03*
%TD*%
D38*
%TO.C,C3*%
X83040000Y-89620000D03*
X83040000Y-88660000D03*
%TD*%
D43*
%TO.C,D2*%
X65545000Y-73007500D03*
X65545000Y-71432500D03*
%TD*%
D62*
%TO.C,R23*%
X82620000Y-63305000D03*
X80970000Y-63305000D03*
%TD*%
D32*
%TO.C,R35*%
X76920000Y-63295000D03*
X78570000Y-63295000D03*
%TD*%
D41*
%TO.C,R17*%
X51380000Y-79840000D03*
X51380000Y-78820000D03*
%TD*%
D49*
%TO.C,R36*%
X33422679Y-66170000D03*
X33422679Y-67190000D03*
%TD*%
D23*
%TO.C,R42*%
X45410000Y-63570000D03*
X44390000Y-63570000D03*
%TD*%
D42*
%TO.C,U7*%
X28580000Y-59825000D03*
X28580000Y-61095000D03*
X28580000Y-62365000D03*
X28580000Y-63635000D03*
X35880000Y-63635000D03*
X35880000Y-62365000D03*
X35880000Y-61095000D03*
X35880000Y-59825000D03*
%TD*%
D23*
%TO.C,R33*%
X64123167Y-77905000D03*
X63103167Y-77905000D03*
%TD*%
D16*
%TO.C,R46*%
X68985000Y-74532499D03*
X68985000Y-76182499D03*
%TD*%
D23*
%TO.C,R8*%
X64123167Y-71145000D03*
X63103167Y-71145000D03*
%TD*%
D32*
%TO.C,R20*%
X46572502Y-80564999D03*
X48222502Y-80564999D03*
%TD*%
D38*
%TO.C,C66*%
X94110000Y-97800000D03*
X94110000Y-96840000D03*
%TD*%
D24*
%TO.C,TP15*%
X75330000Y-98655000D03*
%TD*%
D63*
%TO.C,Q3*%
X78880000Y-60220001D03*
X80150000Y-60220001D03*
X81420000Y-60220001D03*
X82690000Y-60220001D03*
X82690000Y-55070001D03*
X81420000Y-55070001D03*
X80150000Y-55070001D03*
X78880000Y-55070001D03*
%TD*%
D19*
%TO.C,C4*%
X44683164Y-87347088D03*
X45643164Y-87347088D03*
%TD*%
D27*
%TO.C,L10*%
X89155000Y-99890000D03*
X90125000Y-99890000D03*
%TD*%
D17*
%TO.C,C64*%
X93050000Y-97810000D03*
X92090000Y-97810000D03*
%TD*%
D23*
%TO.C,R41*%
X45410000Y-62520000D03*
X44390000Y-62520000D03*
%TD*%
D64*
%TO.C,C14*%
X47704053Y-89465477D03*
X47025231Y-88786655D03*
%TD*%
D38*
%TO.C,C30*%
X83820000Y-91840000D03*
X83820000Y-90880000D03*
%TD*%
D16*
%TO.C,R18*%
X65545000Y-74500001D03*
X65545000Y-76150001D03*
%TD*%
D58*
%TO.C,C48*%
X40320000Y-76480000D03*
X40320000Y-77440000D03*
%TD*%
D28*
%TO.C,R9*%
X63103167Y-72155000D03*
X64123167Y-72155000D03*
%TD*%
D19*
%TO.C,C58*%
X88180000Y-96250000D03*
X89140000Y-96250000D03*
%TD*%
D38*
%TO.C,C7*%
X53862617Y-89528432D03*
X53862617Y-88568432D03*
%TD*%
D27*
%TO.C,L8*%
X86245000Y-100940000D03*
X87215000Y-100940000D03*
%TD*%
D23*
%TO.C,R30*%
X89390000Y-75274999D03*
X88370000Y-75274999D03*
%TD*%
%TO.C,R24*%
X94090000Y-99429999D03*
X93070000Y-99429999D03*
%TD*%
D65*
%TO.C,U2*%
X83755000Y-96840000D03*
X83105000Y-96840000D03*
X82455000Y-96840000D03*
X81805000Y-96840000D03*
X81155000Y-96840000D03*
X80505000Y-96840000D03*
D66*
X79680000Y-97665000D03*
X79680000Y-98315000D03*
X79680000Y-98965000D03*
X79680000Y-99615000D03*
X79680000Y-100265000D03*
X79680000Y-100915000D03*
D65*
X80505000Y-101740000D03*
X81155000Y-101740000D03*
X81805000Y-101740000D03*
X82455000Y-101740000D03*
X83105000Y-101740000D03*
X83755000Y-101740000D03*
D66*
X84580000Y-100915000D03*
X84580000Y-100265000D03*
X84580000Y-99615000D03*
X84580000Y-98965000D03*
X84580000Y-98315000D03*
X84580000Y-97665000D03*
D67*
X82130000Y-99290000D03*
%TD*%
D68*
%TO.C,Y5*%
X82020000Y-92794999D03*
X82020000Y-91044999D03*
X80620000Y-91044999D03*
X80620000Y-92794999D03*
%TD*%
D21*
%TO.C,C12*%
X51630000Y-101390000D03*
X51630000Y-103290000D03*
%TD*%
D28*
%TO.C,R25*%
X61730000Y-100150000D03*
X62750000Y-100150000D03*
%TD*%
D41*
%TO.C,R16*%
X52430000Y-79840000D03*
X52430000Y-78820000D03*
%TD*%
D23*
%TO.C,R5*%
X58853167Y-72155000D03*
X57833167Y-72155000D03*
%TD*%
D28*
%TO.C,R11*%
X57833167Y-75825000D03*
X58853167Y-75825000D03*
%TD*%
D49*
%TO.C,R40*%
X93060000Y-102500000D03*
X93060000Y-103520000D03*
%TD*%
D19*
%TO.C,C52*%
X44750000Y-67840000D03*
X45710000Y-67840000D03*
%TD*%
D58*
%TO.C,C31*%
X41350000Y-76480000D03*
X41350000Y-77440000D03*
%TD*%
D17*
%TO.C,C60*%
X90100000Y-97280001D03*
X89140000Y-97280001D03*
%TD*%
D28*
%TO.C,R13*%
X57833167Y-77905000D03*
X58853167Y-77905000D03*
%TD*%
D17*
%TO.C,C61*%
X90120000Y-100940000D03*
X89160000Y-100940000D03*
%TD*%
D38*
%TO.C,C37*%
X69270000Y-107420000D03*
X69270000Y-106460000D03*
%TD*%
D17*
%TO.C,C17*%
X50670000Y-104940000D03*
X49710000Y-104940000D03*
%TD*%
D15*
%TO.C,C25*%
X83685000Y-67864999D03*
X83685000Y-65964999D03*
%TD*%
D69*
%TO.C,Q7*%
X84830001Y-63700000D03*
D70*
X87110001Y-57400000D03*
D69*
X89390001Y-63700000D03*
%TD*%
D38*
%TO.C,C51*%
X40630000Y-63480000D03*
X40630000Y-62520000D03*
%TD*%
D71*
%TO.C,Q6*%
X59983167Y-76105000D03*
X59983167Y-76755000D03*
X59983167Y-77405000D03*
X61883167Y-77405000D03*
X61883167Y-76755000D03*
X61883167Y-76105000D03*
%TD*%
D19*
%TO.C,C11*%
X53140000Y-102250000D03*
X54100000Y-102250000D03*
%TD*%
%TO.C,C35*%
X44750000Y-65870000D03*
X45710000Y-65870000D03*
%TD*%
D71*
%TO.C,Q5*%
X59983167Y-71505000D03*
X59983167Y-72155000D03*
X59983167Y-72805000D03*
X61883167Y-72805000D03*
X61883167Y-72155000D03*
X61883167Y-71505000D03*
%TD*%
D24*
%TO.C,TP7*%
X72065000Y-77585000D03*
%TD*%
D57*
%TO.C,D3*%
X44680002Y-82250001D03*
X43105002Y-82250001D03*
%TD*%
D15*
%TO.C,C41*%
X78425000Y-74155000D03*
X78425000Y-72255000D03*
%TD*%
D72*
%TO.C,TC2*%
X28210000Y-100166000D03*
X33290000Y-99150000D03*
X28210000Y-98134000D03*
D73*
X32020000Y-98515000D03*
X32020000Y-99785000D03*
X30750000Y-98515000D03*
X30750000Y-99785000D03*
X29480000Y-98515000D03*
X29480000Y-99785000D03*
%TD*%
D58*
%TO.C,C67*%
X94119999Y-100430000D03*
X94119999Y-101390000D03*
%TD*%
D74*
%TO.C,U10*%
X102701500Y-62362500D03*
X102051500Y-62362500D03*
X101401500Y-62362500D03*
X100751500Y-62362500D03*
X100101500Y-62362500D03*
X99451500Y-62362500D03*
X98801500Y-62362500D03*
X98151500Y-62362500D03*
X97501500Y-62362500D03*
X96851500Y-62362500D03*
X96201500Y-62362500D03*
X95551500Y-62362500D03*
X94901500Y-62362500D03*
X94251500Y-62362500D03*
X94251500Y-68087500D03*
X94901500Y-68087500D03*
X95551500Y-68087500D03*
X96201500Y-68087500D03*
X96851500Y-68087500D03*
X97501500Y-68087500D03*
X98151500Y-68087500D03*
X98801500Y-68087500D03*
X99451500Y-68087500D03*
X100101500Y-68087500D03*
X100751500Y-68087500D03*
X101401500Y-68087500D03*
X102051500Y-68087500D03*
X102701500Y-68087500D03*
D75*
X98476500Y-65225000D03*
%TD*%
D23*
%TO.C,R14*%
X44445000Y-60095000D03*
X43425000Y-60095000D03*
%TD*%
D18*
%TO.C,C42*%
X93765000Y-70004999D03*
X91865000Y-70004999D03*
%TD*%
D19*
%TO.C,C59*%
X88200000Y-101960000D03*
X89160000Y-101960000D03*
%TD*%
D18*
%TO.C,C44*%
X95745000Y-58335000D03*
X93845000Y-58335000D03*
%TD*%
D21*
%TO.C,C15*%
X47930000Y-101400000D03*
X47930000Y-103300000D03*
%TD*%
D76*
%TO.C,Y2*%
X45528858Y-105666777D03*
X43973223Y-104111142D03*
X42771142Y-105313223D03*
X44326777Y-106868858D03*
%TD*%
D38*
%TO.C,C45*%
X84400000Y-94140000D03*
X84400000Y-93180000D03*
%TD*%
D33*
%TO.C,J3*%
X47610000Y-61150000D03*
D34*
X47610000Y-62420000D03*
X47610000Y-63690000D03*
X47610000Y-64960000D03*
%TD*%
D58*
%TO.C,C9*%
X37730000Y-59810000D03*
X37730000Y-60770000D03*
%TD*%
D61*
%TO.C,SW4*%
X31422679Y-75490000D03*
X31422679Y-67490000D03*
%TD*%
D17*
%TO.C,C8*%
X42555000Y-97450000D03*
X41595000Y-97450000D03*
%TD*%
D63*
%TO.C,Q2*%
X73540000Y-60220000D03*
X74810000Y-60220000D03*
X76080000Y-60220000D03*
X77350000Y-60220000D03*
X77350000Y-55070000D03*
X76080000Y-55070000D03*
X74810000Y-55070000D03*
X73540000Y-55070000D03*
%TD*%
D27*
%TO.C,L2*%
X86245000Y-98310000D03*
X87215000Y-98310000D03*
%TD*%
D17*
%TO.C,C20*%
X50720000Y-109890000D03*
X49760000Y-109890000D03*
%TD*%
D77*
%TO.C,U11*%
X37052500Y-68450000D03*
X37052500Y-68850000D03*
X37052500Y-69250000D03*
X37052500Y-69650000D03*
X37052500Y-70050000D03*
X37052500Y-70450000D03*
X37052500Y-70850000D03*
X37052500Y-71250000D03*
X37052500Y-71650000D03*
X37052500Y-72050000D03*
X37052500Y-72450000D03*
X37052500Y-72850000D03*
X37052500Y-73250000D03*
X37052500Y-73650000D03*
D78*
X37890000Y-74487500D03*
X38290000Y-74487500D03*
X38690000Y-74487500D03*
X39090000Y-74487500D03*
X39490000Y-74487500D03*
X39890000Y-74487500D03*
X40290000Y-74487500D03*
X40690000Y-74487500D03*
X41090000Y-74487500D03*
X41490000Y-74487500D03*
X41890000Y-74487500D03*
X42290000Y-74487500D03*
X42690000Y-74487500D03*
X43090000Y-74487500D03*
D77*
X43927500Y-73650000D03*
X43927500Y-73250000D03*
X43927500Y-72850000D03*
X43927500Y-72450000D03*
X43927500Y-72050000D03*
X43927500Y-71650000D03*
X43927500Y-71250000D03*
X43927500Y-70850000D03*
X43927500Y-70450000D03*
X43927500Y-70050000D03*
X43927500Y-69650000D03*
X43927500Y-69250000D03*
X43927500Y-68850000D03*
X43927500Y-68450000D03*
D78*
X43090000Y-67612500D03*
X42690000Y-67612500D03*
X42290000Y-67612500D03*
X41890000Y-67612500D03*
X41490000Y-67612500D03*
X41090000Y-67612500D03*
X40690000Y-67612500D03*
X40290000Y-67612500D03*
X39890000Y-67612500D03*
X39490000Y-67612500D03*
X39090000Y-67612500D03*
X38690000Y-67612500D03*
X38290000Y-67612500D03*
X37890000Y-67612500D03*
D79*
X40490000Y-71050000D03*
%TD*%
G36*
X96402121Y-85990002D02*
G01*
X96448614Y-86043658D01*
X96460000Y-86096000D01*
X96460000Y-89144000D01*
X96439998Y-89212121D01*
X96386342Y-89258614D01*
X96334000Y-89270000D01*
X95586000Y-89270000D01*
X95517879Y-89249998D01*
X95471386Y-89196342D01*
X95460000Y-89144000D01*
X95460000Y-86988115D01*
X95455525Y-86972876D01*
X95454135Y-86971671D01*
X95446452Y-86970000D01*
X93286000Y-86970000D01*
X93217879Y-86949998D01*
X93171386Y-86896342D01*
X93160000Y-86844000D01*
X93160000Y-86096000D01*
X93180002Y-86027879D01*
X93233658Y-85981386D01*
X93286000Y-85970000D01*
X96334000Y-85970000D01*
X96402121Y-85990002D01*
G37*
G36*
X90702121Y-85990002D02*
G01*
X90748614Y-86043658D01*
X90760000Y-86096000D01*
X90760000Y-86844000D01*
X90739998Y-86912121D01*
X90686342Y-86958614D01*
X90634000Y-86970000D01*
X88286000Y-86970000D01*
X88217879Y-86949998D01*
X88171386Y-86896342D01*
X88160000Y-86844000D01*
X88160000Y-86096000D01*
X88180002Y-86027879D01*
X88233658Y-85981386D01*
X88286000Y-85970000D01*
X90634000Y-85970000D01*
X90702121Y-85990002D01*
G37*
G36*
X85702122Y-85990002D02*
G01*
X85748615Y-86043658D01*
X85760001Y-86096000D01*
X85760000Y-86844000D01*
X85739998Y-86912121D01*
X85686342Y-86958614D01*
X85634000Y-86970000D01*
X80785999Y-86970000D01*
X80717878Y-86949998D01*
X80671385Y-86896342D01*
X80659999Y-86844000D01*
X80660000Y-86096000D01*
X80680002Y-86027879D01*
X80733658Y-85981386D01*
X80786000Y-85970000D01*
X85634001Y-85970000D01*
X85702122Y-85990002D01*
G37*
G36*
X96402120Y-91690002D02*
G01*
X96448613Y-91743658D01*
X96459999Y-91796000D01*
X96460000Y-94143998D01*
X96439998Y-94212119D01*
X96386342Y-94258612D01*
X96334000Y-94269998D01*
X95586000Y-94270000D01*
X95517880Y-94249998D01*
X95471387Y-94196343D01*
X95460000Y-94144000D01*
X95460000Y-91796000D01*
X95480002Y-91727879D01*
X95533658Y-91681386D01*
X95586000Y-91670000D01*
X96333999Y-91670000D01*
X96402120Y-91690002D01*
G37*
G36*
X78202121Y-85990002D02*
G01*
X78248614Y-86043658D01*
X78260000Y-86096000D01*
X78260000Y-86844000D01*
X78239998Y-86912121D01*
X78186342Y-86958614D01*
X78134000Y-86970000D01*
X75786000Y-86970000D01*
X75717879Y-86949998D01*
X75671386Y-86896342D01*
X75660000Y-86844000D01*
X75660000Y-86096000D01*
X75680002Y-86027879D01*
X75733658Y-85981386D01*
X75786000Y-85970000D01*
X78134000Y-85970000D01*
X78202121Y-85990002D01*
G37*
G36*
X78192121Y-111490002D02*
G01*
X78238614Y-111543658D01*
X78250000Y-111596000D01*
X78250000Y-112344000D01*
X78229998Y-112412121D01*
X78176342Y-112458614D01*
X78124000Y-112470000D01*
X75776001Y-112470000D01*
X75707880Y-112449998D01*
X75661387Y-112396342D01*
X75650001Y-112344000D01*
X75650000Y-111596000D01*
X75670002Y-111527879D01*
X75723658Y-111481386D01*
X75776000Y-111470000D01*
X78124000Y-111470000D01*
X78192121Y-111490002D01*
G37*
G36*
X73134000Y-85970000D02*
G01*
X73202121Y-85990002D01*
X73248614Y-86043658D01*
X73260000Y-86096000D01*
X73260000Y-86844000D01*
X73239998Y-86912121D01*
X73186342Y-86958614D01*
X73134000Y-86970000D01*
X70978115Y-86970000D01*
X70962876Y-86974475D01*
X70961671Y-86975865D01*
X70960000Y-86983548D01*
X70960000Y-89144000D01*
X70939998Y-89212121D01*
X70886342Y-89258614D01*
X70834000Y-89270000D01*
X70086000Y-89270000D01*
X70017879Y-89249998D01*
X69971386Y-89196342D01*
X69960000Y-89144000D01*
X69960000Y-86095999D01*
X69980002Y-86027878D01*
X70033658Y-85981385D01*
X70086000Y-85969999D01*
X73134000Y-85970000D01*
G37*
G36*
X96402121Y-97910002D02*
G01*
X96448614Y-97963658D01*
X96460000Y-98016000D01*
X96460000Y-106643998D01*
X96439998Y-106712119D01*
X96386342Y-106758612D01*
X96334000Y-106769998D01*
X95586000Y-106770000D01*
X95517880Y-106749998D01*
X95471387Y-106696343D01*
X95460000Y-106644000D01*
X95460000Y-98016000D01*
X95480002Y-97947879D01*
X95533658Y-97901386D01*
X95586000Y-97890000D01*
X96334000Y-97890000D01*
X96402121Y-97910002D01*
G37*
G36*
X70902121Y-91690002D02*
G01*
X70948614Y-91743658D01*
X70960000Y-91796000D01*
X70960000Y-94144000D01*
X70939998Y-94212121D01*
X70886342Y-94258614D01*
X70834000Y-94270000D01*
X70086000Y-94270000D01*
X70017879Y-94249998D01*
X69971386Y-94196342D01*
X69960000Y-94144000D01*
X69960000Y-91796000D01*
X69980002Y-91727879D01*
X70033658Y-91681386D01*
X70086000Y-91670000D01*
X70834000Y-91670000D01*
X70902121Y-91690002D01*
G37*
G36*
X90702121Y-111490002D02*
G01*
X90748614Y-111543658D01*
X90760000Y-111596000D01*
X90760000Y-112344000D01*
X90739998Y-112412121D01*
X90686342Y-112458614D01*
X90634000Y-112470000D01*
X88286001Y-112470000D01*
X88217880Y-112449998D01*
X88171387Y-112396342D01*
X88160001Y-112344000D01*
X88160000Y-111596000D01*
X88180002Y-111527879D01*
X88233658Y-111481386D01*
X88286000Y-111470000D01*
X90634000Y-111470000D01*
X90702121Y-111490002D01*
G37*
G36*
X70902121Y-104190002D02*
G01*
X70948614Y-104243658D01*
X70960000Y-104296000D01*
X70960000Y-106644000D01*
X70939998Y-106712121D01*
X70886342Y-106758614D01*
X70834000Y-106770000D01*
X70086000Y-106770000D01*
X70017879Y-106749998D01*
X69971386Y-106696342D01*
X69960000Y-106644000D01*
X69960000Y-104296000D01*
X69980002Y-104227879D01*
X70033658Y-104181386D01*
X70086000Y-104170000D01*
X70834000Y-104170000D01*
X70902121Y-104190002D01*
G37*
G36*
X96402121Y-109190002D02*
G01*
X96448614Y-109243658D01*
X96460000Y-109296000D01*
X96460000Y-112344001D01*
X96439998Y-112412122D01*
X96386342Y-112458615D01*
X96334000Y-112470001D01*
X93286000Y-112470000D01*
X93217879Y-112449998D01*
X93171386Y-112396342D01*
X93160000Y-112344000D01*
X93160000Y-111596000D01*
X93180002Y-111527879D01*
X93233658Y-111481386D01*
X93286000Y-111470000D01*
X95441885Y-111470000D01*
X95457124Y-111465525D01*
X95458329Y-111464135D01*
X95460000Y-111456452D01*
X95460000Y-109296000D01*
X95480002Y-109227879D01*
X95533658Y-109181386D01*
X95586000Y-109170000D01*
X96334000Y-109170000D01*
X96402121Y-109190002D01*
G37*
G36*
X70902122Y-109190002D02*
G01*
X70948615Y-109243658D01*
X70960001Y-109296000D01*
X70960000Y-111451885D01*
X70964475Y-111467124D01*
X70965865Y-111468329D01*
X70973548Y-111470000D01*
X73134000Y-111470000D01*
X73202121Y-111490002D01*
X73248614Y-111543658D01*
X73260000Y-111596000D01*
X73260000Y-112344000D01*
X73239998Y-112412121D01*
X73186342Y-112458614D01*
X73134000Y-112470000D01*
X70085999Y-112470000D01*
X70017878Y-112449998D01*
X69971385Y-112396342D01*
X69959999Y-112344000D01*
X69960000Y-109296000D01*
X69980002Y-109227879D01*
X70033658Y-109181386D01*
X70086000Y-109170000D01*
X70834001Y-109170000D01*
X70902122Y-109190002D01*
G37*
G36*
X85702121Y-111490002D02*
G01*
X85748614Y-111543658D01*
X85760000Y-111596000D01*
X85760000Y-112344000D01*
X85739998Y-112412121D01*
X85686342Y-112458614D01*
X85634000Y-112470000D01*
X80785999Y-112470000D01*
X80717878Y-112449998D01*
X80671385Y-112396342D01*
X80659999Y-112344000D01*
X80660000Y-111596000D01*
X80680002Y-111527879D01*
X80733658Y-111481386D01*
X80786000Y-111470000D01*
X85634000Y-111470000D01*
X85702121Y-111490002D01*
G37*
M02*
