M48
INCH,TZ
T1C0.0079
T2C0.0079
T3C0.0118
T4C0.0118
T5C0.0138
T6C0.0236
T7C0.0394
T8C0.1260
T9C0.0256
T10C0.0390
T11C0.0935
%
G90
G05
T1
X8858Y-19406
X8976Y-28394
X8976Y-29563
X9047Y-19843
X9055Y-18543
X9126Y-21165
X9734Y-13600
X9947Y-13600
X10039Y-18602
X10152Y-13600
X10197Y-15827
X10472Y-25748
X10543Y-13957
X10602Y-19024
X10721Y-18595
X10812Y-19029
X10812Y-19284
X10870Y-11181
X10870Y-11567
X11024Y-10335
X11024Y-10925
X11039Y-14543
X11091Y-12965
X11193Y-11374
X11272Y-17945
X11283Y-22748
X11358Y-14280
X11383Y-16214
X11521Y-12592
X11521Y-14914
X11541Y-12867
X11555Y-13117
X11796Y-12060
X11802Y-18729
X11811Y-21457
X11811Y-21654
X11969Y-13535
X11993Y-19363
X12035Y-18732
X12094Y-10783
X12190Y-15190
X12382Y-19764
X12398Y-10783
X12413Y-21850
X12584Y-17099
X12584Y-17336
X12584Y-17572
X12720Y-10783
X12736Y-12047
X12852Y-14835
X13071Y-10783
X13106Y-21594
X13203Y-11989
X13277Y-14839
X13332Y-17198
X13332Y-17414
X13513Y-11989
X13548Y-17198
X13548Y-17414
X13711Y-12078
X13726Y-16155
X13761Y-15146
X13761Y-15309
X13765Y-17198
X13765Y-17414
X13937Y-11492
X14142Y-12060
X14159Y-18635
X14159Y-18871
X14249Y-19783
X14257Y-14639
X14296Y-12670
X14336Y-15977
X14395Y-18635
X14395Y-18871
X14409Y-22787
X14413Y-28902
X14493Y-12040
X14552Y-15977
X14552Y-15662
X14563Y-11043
X14592Y-12906
X14619Y-14229
X14619Y-14446
X14717Y-13759
X14728Y-13305
X14730Y-12040
X14754Y-15977
X14769Y-15662
X14828Y-14324
X15123Y-17099
X15123Y-17336
X15123Y-17572
X15359Y-17336
X15413Y-27807
X15539Y-10874
X15547Y-10551
X15576Y-15879
X15576Y-16095
X15673Y-13989
X15717Y-27812
X15773Y-12177
X15773Y-12473
X15773Y-15879
X15773Y-16095
X15830Y-13832
X15925Y-10551
X15933Y-10874
X15970Y-15879
X15970Y-16095
X15988Y-13674
X16228Y-12177
X16272Y-10551
X16598Y-26799
X16598Y-27504
X17047Y-26740
X17197Y-9908
X17469Y-26740
X17923Y-15328
X17949Y-27776
X18071Y-15168
X18125Y-13005
X18236Y-27780
X18440Y-13005
X18440Y-15210
X18440Y-15525
X18440Y-15840
X18465Y-22831
X18467Y-17101
X18571Y-27780
X18623Y-14417
X18747Y-13638
X18755Y-13005
X18755Y-13320
X18862Y-28382
X18870Y-28898
X19057Y-13328
X19070Y-13005
X19070Y-15525
X19070Y-15840
X19075Y-26240
X19362Y-14014
X19370Y-26240
X19385Y-13005
X19385Y-13635
X19535Y-12827
X19582Y-15879
X19700Y-15210
X19723Y-13635
X19764Y-24035
X19772Y-14103
X19827Y-18362
X19988Y-27024
X20035Y-13020
X20098Y-26260
X20205Y-14028
X20218Y-13403
X20330Y-14915
X20330Y-15210
X20330Y-15525
X20331Y-16319
X20354Y-12988
X20438Y-16824
X20454Y-14024
X20555Y-21126
X20576Y-12513
X20598Y-22528
X20645Y-13320
X20645Y-13635
X20793Y-12513
X20807Y-26260
X20812Y-16813
X20873Y-24952
X20960Y-15525
X20960Y-15840
X20960Y-16115
X21009Y-12513
X21067Y-19772
X21138Y-21965
X21149Y-14841
X21157Y-14029
X21167Y-17631
X21260Y-24094
X21265Y-20874
X21275Y-13005
X21275Y-13320
X21370Y-22528
X21386Y-14804
X21408Y-12847
X21590Y-15840
X21898Y-19815
X21905Y-13320
X21905Y-13635
X21905Y-15210
X21905Y-15525
X21905Y-15840
X21917Y-18610
X21969Y-12972
X22079Y-10197
X22087Y-18902
X22087Y-19119
X22150Y-18654
X22220Y-13635
X22220Y-15525
X22224Y-14885
X22224Y-12972
X22304Y-18113
X22321Y-18813
X22327Y-17882
X22328Y-20911
X22335Y-17641
X22409Y-17329
X22417Y-16627
X22444Y-26282
X22500Y-24882
X22505Y-23261
X22535Y-13320
X22535Y-13635
X22535Y-14895
X22535Y-15210
X22535Y-15525
X22535Y-15840
X22571Y-12949
X22587Y-18893
X22705Y-21070
X22839Y-18614
X22843Y-12957
X22850Y-13635
X22850Y-14895
X22850Y-15208
X22850Y-15525
X22850Y-15840
X22859Y-18891
X23036Y-18184
X23165Y-13005
X23165Y-13320
X23174Y-18891
X23177Y-13628
X23248Y-26280
X23361Y-18220
X23371Y-12513
X23390Y-24902
X23482Y-20785
X23489Y-19521
X23489Y-19836
X23489Y-21410
X23489Y-21725
X23491Y-21096
X23504Y-18906
X23508Y-22965
X23518Y-20155
X23563Y-26732
X23697Y-29051
X23765Y-12690
X23799Y-24154
X23804Y-19206
X23804Y-22040
X23804Y-22985
X23804Y-19521
X23804Y-19836
X23804Y-20151
X23804Y-20781
X23804Y-21096
X23804Y-21410
X23804Y-21726
X23819Y-23858
X23835Y-25165
X23852Y-17473
X23984Y-17157
X24071Y-29055
X24079Y-17438
X24088Y-17943
X24105Y-21091
X24119Y-18891
X24119Y-19206
X24119Y-19836
X24119Y-20151
X24119Y-20781
X24119Y-21411
X24119Y-21726
X24119Y-19521
X24122Y-22665
X24154Y-24146
X24280Y-10465
X24307Y-26244
X24434Y-20151
X24434Y-20781
X24434Y-21410
X24434Y-19206
X24449Y-24154
X24572Y-11391
X24587Y-17488
X24587Y-27953
X24598Y-13031
X24749Y-19836
X24749Y-20151
X24749Y-20781
X24749Y-21410
X24749Y-22985
X24749Y-18891
X24749Y-19206
X24749Y-19521
X24768Y-24154
X24808Y-11391
X25051Y-24154
X25051Y-24921
X25064Y-19836
X25064Y-20151
X25064Y-20781
X25064Y-21410
X25064Y-22040
X25064Y-22355
X25064Y-19202
X25079Y-25709
X25084Y-21681
X25118Y-27657
X25272Y-26244
X25343Y-24150
X25346Y-25508
X25374Y-19819
X25379Y-20781
X25379Y-21410
X25388Y-20466
X25453Y-21102
X25556Y-13025
X25650Y-24154
X25669Y-25118
X25673Y-25476
X25694Y-19521
X25694Y-20781
X25694Y-21725
X25694Y-22040
X25694Y-19836
X25694Y-20151
X25714Y-16568
X25714Y-16844
X25733Y-13477
X25733Y-13714
X25921Y-24154
X25953Y-25114
X25970Y-13714
X26009Y-19206
X26009Y-20781
X26009Y-21095
X26009Y-21410
X26009Y-22355
X26185Y-24161
X26224Y-25114
X26285Y-17592
X26293Y-18937
X26307Y-20756
X26324Y-19521
X26324Y-20151
X26324Y-22985
X26449Y-24161
X26481Y-13812
X26481Y-15741
X26575Y-24626
X26634Y-19213
X26639Y-19498
X26639Y-18576
X26639Y-20151
X26639Y-20466
X26639Y-21410
X26639Y-22040
X26639Y-22355
X26646Y-20783
X26673Y-21764
X26678Y-13674
X26678Y-13910
X26681Y-21098
X26698Y-14796
X26780Y-24165
X26783Y-25787
X26796Y-17218
X26831Y-24488
X26925Y-19548
X26934Y-13674
X26934Y-13910
X26954Y-20151
X26960Y-19190
X26964Y-14796
X27067Y-24177
X27126Y-26299
X27256Y-21713
X27260Y-21079
X27261Y-19488
X27264Y-21405
X27268Y-23957
X27269Y-18261
X27269Y-18576
X27269Y-18891
X27271Y-19856
X27272Y-20780
X27272Y-22031
X27320Y-26571
X27559Y-27677
X27567Y-20453
X27584Y-18891
X27584Y-21725
X27584Y-22985
X27587Y-21098
X27840Y-15249
X27840Y-15505
X27840Y-15761
X27840Y-16036
X27899Y-18891
X28016Y-25220
X28051Y-23693
X28174Y-16962
X28214Y-18891
X28295Y-25217
X28303Y-29157
X28360Y-17088
X28391Y-23969
X28440Y-18044
X28450Y-24639
X28583Y-19232
X28622Y-29157
X28689Y-22043
X28724Y-23906
X28768Y-22488
X28890Y-29157
X28981Y-16489
X28988Y-21799
X29177Y-29157
X29256Y-21909
X29319Y-21331
X29579Y-20996
X29590Y-19048
X29591Y-19697
X29591Y-20071
X29626Y-20394
X29638Y-29445
X29669Y-26917
X29748Y-17355
X29767Y-16489
X29815Y-19295
X29839Y-27150
X29850Y-26346
X29917Y-25622
X30016Y-28024
X30035Y-29441
X30043Y-29126
X30074Y-24972
X30083Y-19276
X30197Y-26126
X30205Y-19661
X30220Y-28807
X30531Y-21331
X30604Y-28260
X30665Y-20024
X30724Y-25205
X30728Y-27957
X30732Y-27067
X30752Y-22776
X30756Y-16791
X30783Y-29059
X30787Y-24634
X30791Y-24350
X30795Y-24012
X30795Y-24925
X30862Y-17717
X30862Y-17717
X30870Y-20539
X30898Y-23374
X30929Y-28165
X30933Y-27547
X31016Y-22571
X31031Y-22118
X31075Y-29059
X31093Y-28435
X31150Y-23878
X31209Y-23374
X31322Y-27547
X31322Y-27764
X31350Y-21500
X31370Y-28236
X31563Y-24980
X31650Y-29157
X31720Y-29437
X31827Y-24980
X32051Y-29437
X32209Y-21386
X32453Y-27165
X32933Y-27165
X33228Y-16512
X33232Y-17008
X33472Y-27165
X33740Y-21425
X33787Y-18272
X33921Y-26110
X33969Y-19043
X34705Y-18091
X36161Y-8335
X36213Y-26913
X36606Y-26913
X36622Y-28969
X37016Y-28972
X37161Y-8335
X37343Y-12587
X38161Y-8335
X38343Y-12587
X39161Y-8335
X39343Y-12587
X39862Y-26921
X40343Y-12587
T2
X12734Y-12921
X12734Y-13328
X12734Y-13735
X12734Y-14142
X13141Y-12921
X13141Y-13328
X13141Y-13735
X13141Y-14142
X13548Y-12921
X13548Y-13328
X13548Y-13735
X13548Y-14142
X13955Y-12921
X13955Y-13328
X13955Y-13735
X13955Y-14142
T3
X32748Y-24984
T4
X10089Y-27815
T5
X22021Y-26763
X22021Y-27265
X22021Y-27767
X22523Y-26763
X22523Y-27265
X22523Y-27767
X23025Y-26763
X23025Y-27265
X23025Y-27767
T7
X37874Y-17055
X37874Y-18146
X37874Y-19236
X37874Y-20327
X37874Y-21417
X38992Y-17600
X38992Y-18691
X38992Y-19781
X38992Y-20872
T8
X37992Y-14315
X37992Y-24157
T9
X9858Y-10142
X9858Y-12417
T10
X26079Y-27053
X28079Y-26653
X28079Y-27453
X32241Y-19989
X32241Y-20789
X32831Y-23646
X32831Y-24446
X34831Y-24046
X35241Y-20389
T11
X32991Y-19389
X32991Y-21389
X33581Y-23046
X33581Y-25046
X34831Y-23046
X34831Y-25046
X35241Y-19389
X35241Y-21389
T6
G00X8303Y-9579
M15
G01X8539Y-9579
M16
G05
G00X8303Y-12980
M15
G01X8539Y-12980
M16
G05
G00X9850Y-9579
M15
G01X10283Y-9579
M16
G05
G00X9850Y-12980
M15
G01X10283Y-12980
M16
G05
T0
M30
