%TF.GenerationSoftware,KiCad,Pcbnew,(6.0.2-0)*%
%TF.CreationDate,2022-05-22T12:16:40-06:00*%
%TF.ProjectId,epas-controller,65706173-2d63-46f6-9e74-726f6c6c6572,rev?*%
%TF.SameCoordinates,Original*%
%TF.FileFunction,Soldermask,Top*%
%TF.FilePolarity,Negative*%
%FSLAX46Y46*%
G04 Gerber Fmt 4.6, Leading zero omitted, Abs format (unit mm)*
G04 Created by KiCad (PCBNEW (6.0.2-0)) date 2022-05-22 12:16:40*
%MOMM*%
%LPD*%
G01*
G04 APERTURE LIST*
G04 Aperture macros list*
%AMRoundRect*
0 Rectangle with rounded corners*
0 $1 Rounding radius*
0 $2 $3 $4 $5 $6 $7 $8 $9 X,Y pos of 4 corners*
0 Add a 4 corners polygon primitive as box body*
4,1,4,$2,$3,$4,$5,$6,$7,$8,$9,$2,$3,0*
0 Add four circle primitives for the rounded corners*
1,1,$1+$1,$2,$3*
1,1,$1+$1,$4,$5*
1,1,$1+$1,$6,$7*
1,1,$1+$1,$8,$9*
0 Add four rect primitives between the rounded corners*
20,1,$1+$1,$2,$3,$4,$5,0*
20,1,$1+$1,$4,$5,$6,$7,0*
20,1,$1+$1,$6,$7,$8,$9,0*
20,1,$1+$1,$8,$9,$2,$3,0*%
G04 Aperture macros list end*
%ADD10RoundRect,0.140000X-0.170000X0.140000X-0.170000X-0.140000X0.170000X-0.140000X0.170000X0.140000X0*%
%ADD11RoundRect,0.075000X-0.662500X-0.075000X0.662500X-0.075000X0.662500X0.075000X-0.662500X0.075000X0*%
%ADD12RoundRect,0.075000X-0.075000X-0.662500X0.075000X-0.662500X0.075000X0.662500X-0.075000X0.662500X0*%
%ADD13R,1.200000X1.400000*%
%ADD14RoundRect,0.140000X0.170000X-0.140000X0.170000X0.140000X-0.170000X0.140000X-0.170000X-0.140000X0*%
%ADD15R,2.400000X0.740000*%
%ADD16RoundRect,0.250000X0.250000X0.475000X-0.250000X0.475000X-0.250000X-0.475000X0.250000X-0.475000X0*%
%ADD17RoundRect,0.140000X0.140000X0.170000X-0.140000X0.170000X-0.140000X-0.170000X0.140000X-0.170000X0*%
%ADD18RoundRect,0.250000X-0.250000X-0.475000X0.250000X-0.475000X0.250000X0.475000X-0.250000X0.475000X0*%
%ADD19RoundRect,0.135000X0.135000X0.185000X-0.135000X0.185000X-0.135000X-0.185000X0.135000X-0.185000X0*%
%ADD20RoundRect,0.218750X0.256250X-0.218750X0.256250X0.218750X-0.256250X0.218750X-0.256250X-0.218750X0*%
%ADD21R,1.600000X5.700000*%
%ADD22RoundRect,0.250000X0.450000X-0.262500X0.450000X0.262500X-0.450000X0.262500X-0.450000X-0.262500X0*%
%ADD23RoundRect,0.140000X-0.140000X-0.170000X0.140000X-0.170000X0.140000X0.170000X-0.140000X0.170000X0*%
%ADD24RoundRect,0.200000X-0.200000X-0.275000X0.200000X-0.275000X0.200000X0.275000X-0.200000X0.275000X0*%
%ADD25C,0.800000*%
%ADD26C,6.400000*%
%ADD27R,1.000000X1.500000*%
%ADD28RoundRect,0.200000X-0.275000X0.200000X-0.275000X-0.200000X0.275000X-0.200000X0.275000X0.200000X0*%
%ADD29R,1.100000X1.100000*%
%ADD30C,1.400000*%
%ADD31C,1.800000*%
%ADD32C,4.000000*%
%ADD33R,2.000000X2.000000*%
%ADD34RoundRect,0.250000X-0.475000X0.250000X-0.475000X-0.250000X0.475000X-0.250000X0.475000X0.250000X0*%
%ADD35R,2.500000X1.800000*%
%ADD36R,0.600000X1.550000*%
%ADD37R,3.100000X2.600000*%
%ADD38RoundRect,0.150000X0.825000X0.150000X-0.825000X0.150000X-0.825000X-0.150000X0.825000X-0.150000X0*%
G04 APERTURE END LIST*
D10*
%TO.C,C11*%
X21562500Y-49345000D03*
X21562500Y-50305000D03*
%TD*%
D11*
%TO.C,U3*%
X24900000Y-44075000D03*
X24900000Y-44575000D03*
X24900000Y-45075000D03*
X24900000Y-45575000D03*
X24900000Y-46075000D03*
X24900000Y-46575000D03*
X24900000Y-47075000D03*
X24900000Y-47575000D03*
X24900000Y-48075000D03*
X24900000Y-48575000D03*
X24900000Y-49075000D03*
X24900000Y-49575000D03*
D12*
X26312500Y-50987500D03*
X26812500Y-50987500D03*
X27312500Y-50987500D03*
X27812500Y-50987500D03*
X28312500Y-50987500D03*
X28812500Y-50987500D03*
X29312500Y-50987500D03*
X29812500Y-50987500D03*
X30312500Y-50987500D03*
X30812500Y-50987500D03*
X31312500Y-50987500D03*
X31812500Y-50987500D03*
D11*
X33225000Y-49575000D03*
X33225000Y-49075000D03*
X33225000Y-48575000D03*
X33225000Y-48075000D03*
X33225000Y-47575000D03*
X33225000Y-47075000D03*
X33225000Y-46575000D03*
X33225000Y-46075000D03*
X33225000Y-45575000D03*
X33225000Y-45075000D03*
X33225000Y-44575000D03*
X33225000Y-44075000D03*
D12*
X31812500Y-42662500D03*
X31312500Y-42662500D03*
X30812500Y-42662500D03*
X30312500Y-42662500D03*
X29812500Y-42662500D03*
X29312500Y-42662500D03*
X28812500Y-42662500D03*
X28312500Y-42662500D03*
X27812500Y-42662500D03*
X27312500Y-42662500D03*
X26812500Y-42662500D03*
X26312500Y-42662500D03*
%TD*%
D13*
%TO.C,Y1*%
X18212500Y-45725000D03*
X18212500Y-47925000D03*
X19912500Y-47925000D03*
X19912500Y-45725000D03*
%TD*%
D14*
%TO.C,C12*%
X21562500Y-46305000D03*
X21562500Y-45345000D03*
%TD*%
D15*
%TO.C,J2*%
X42112500Y-41650000D03*
X46012500Y-41650000D03*
X42112500Y-42920000D03*
X46012500Y-42920000D03*
X42112500Y-44190000D03*
X46012500Y-44190000D03*
X42112500Y-45460000D03*
X46012500Y-45460000D03*
X42112500Y-46730000D03*
X46012500Y-46730000D03*
X42112500Y-48000000D03*
X46012500Y-48000000D03*
%TD*%
D10*
%TO.C,C5*%
X42550000Y-23165000D03*
X42550000Y-24125000D03*
%TD*%
D14*
%TO.C,C7*%
X35062500Y-44805000D03*
X35062500Y-43845000D03*
%TD*%
D16*
%TO.C,C4*%
X56625000Y-32600000D03*
X54725000Y-32600000D03*
%TD*%
D17*
%TO.C,C9*%
X26542500Y-40825000D03*
X25582500Y-40825000D03*
%TD*%
D18*
%TO.C,C3*%
X50100000Y-21625000D03*
X52000000Y-21625000D03*
%TD*%
D19*
%TO.C,R7*%
X27785000Y-59450000D03*
X26765000Y-59450000D03*
%TD*%
D20*
%TO.C,D4*%
X52374999Y-35925001D03*
X52374999Y-34350001D03*
%TD*%
D21*
%TO.C,L1*%
X52700000Y-26625000D03*
X57400000Y-26625000D03*
%TD*%
D22*
%TO.C,R3*%
X32500000Y-24537500D03*
X32500000Y-22712500D03*
%TD*%
D23*
%TO.C,C10*%
X21582500Y-43825000D03*
X22542500Y-43825000D03*
%TD*%
%TO.C,C8*%
X31082500Y-52825000D03*
X32042500Y-52825000D03*
%TD*%
D24*
%TO.C,R2*%
X52350000Y-30850000D03*
X54000000Y-30850000D03*
%TD*%
D25*
%TO.C,H1*%
X56197056Y-59472056D03*
X52802944Y-59472056D03*
X56197056Y-56077944D03*
X52100000Y-57775000D03*
X54500000Y-55375000D03*
D26*
X54500000Y-57775000D03*
D25*
X54500000Y-60175000D03*
X52802944Y-56077944D03*
X56900000Y-57775000D03*
%TD*%
D27*
%TO.C,JP1*%
X47350000Y-34345000D03*
X46050000Y-34345000D03*
X44750000Y-34345000D03*
%TD*%
D28*
%TO.C,R6*%
X50725000Y-37800000D03*
X50725000Y-39450000D03*
%TD*%
D29*
%TO.C,D2*%
X50050000Y-27525000D03*
X50050000Y-24725000D03*
%TD*%
D30*
%TO.C,TP1*%
X54275000Y-22000000D03*
X56815000Y-22000000D03*
%TD*%
D28*
%TO.C,R8*%
X52374999Y-37812500D03*
X52374999Y-39462500D03*
%TD*%
D24*
%TO.C,R1*%
X49350000Y-30850000D03*
X51000000Y-30850000D03*
%TD*%
D31*
%TO.C,J1*%
X27287500Y-30754166D03*
X27287500Y-28570833D03*
X27287500Y-26387500D03*
X27287500Y-24204166D03*
D32*
X21162500Y-31462500D03*
X21162500Y-23462500D03*
%TD*%
D33*
%TO.C,SW1*%
X30000000Y-58923500D03*
X38000000Y-58923500D03*
%TD*%
D27*
%TO.C,JP2*%
X47350000Y-37625000D03*
X46050000Y-37625000D03*
X44750000Y-37625000D03*
%TD*%
D20*
%TO.C,D3*%
X50724999Y-35912500D03*
X50724999Y-34337500D03*
%TD*%
D34*
%TO.C,C1*%
X47080000Y-29675000D03*
X47080000Y-31575000D03*
%TD*%
D10*
%TO.C,C13*%
X21562500Y-47345000D03*
X21562500Y-48305000D03*
%TD*%
D35*
%TO.C,D1*%
X39550000Y-28625000D03*
X35550000Y-28625000D03*
%TD*%
D36*
%TO.C,U1*%
X47955000Y-21925000D03*
X46685000Y-21925000D03*
X45415000Y-21925000D03*
X44145000Y-21925000D03*
X44145000Y-27325000D03*
X45415000Y-27325000D03*
X46685000Y-27325000D03*
X47955000Y-27325000D03*
D37*
X46050000Y-24625000D03*
%TD*%
D18*
%TO.C,C6*%
X21112500Y-42250000D03*
X23012500Y-42250000D03*
%TD*%
D25*
%TO.C,H2*%
X18727944Y-56077944D03*
X18727944Y-59472056D03*
X22122056Y-59472056D03*
X20425000Y-55375000D03*
X22122056Y-56077944D03*
X18025000Y-57775000D03*
X22825000Y-57775000D03*
D26*
X20425000Y-57775000D03*
D25*
X20425000Y-60175000D03*
%TD*%
D19*
%TO.C,R10*%
X43260000Y-36845000D03*
X42240000Y-36845000D03*
%TD*%
D24*
%TO.C,R4*%
X42500000Y-19750000D03*
X44150000Y-19750000D03*
%TD*%
D19*
%TO.C,R9*%
X43260001Y-35125000D03*
X42240001Y-35125000D03*
%TD*%
D34*
%TO.C,C2*%
X45050000Y-29675000D03*
X45050000Y-31575000D03*
%TD*%
D24*
%TO.C,R5*%
X45500000Y-19750000D03*
X47150000Y-19750000D03*
%TD*%
D38*
%TO.C,U2*%
X40525000Y-25530000D03*
X40525000Y-24260000D03*
X40525000Y-22990000D03*
X40525000Y-21720000D03*
X35575000Y-21720000D03*
X35575000Y-22990000D03*
X35575000Y-24260000D03*
X35575000Y-25530000D03*
%TD*%
D23*
%TO.C,C14*%
X26795000Y-58350000D03*
X27755000Y-58350000D03*
%TD*%
M02*
