%TF.GenerationSoftware,KiCad,Pcbnew,(6.0.2-0)*%
%TF.CreationDate,2022-05-22T12:16:40-06:00*%
%TF.ProjectId,epas-controller,65706173-2d63-46f6-9e74-726f6c6c6572,rev?*%
%TF.SameCoordinates,Original*%
%TF.FileFunction,Copper,L2,Bot*%
%TF.FilePolarity,Positive*%
%FSLAX46Y46*%
G04 Gerber Fmt 4.6, Leading zero omitted, Abs format (unit mm)*
G04 Created by KiCad (PCBNEW (6.0.2-0)) date 2022-05-22 12:16:40*
%MOMM*%
%LPD*%
G01*
G04 APERTURE LIST*
%TA.AperFunction,ComponentPad*%
%ADD10C,0.800000*%
%TD*%
%TA.AperFunction,ComponentPad*%
%ADD11C,6.400000*%
%TD*%
%TA.AperFunction,ComponentPad*%
%ADD12C,1.400000*%
%TD*%
%TA.AperFunction,ComponentPad*%
%ADD13C,1.800000*%
%TD*%
%TA.AperFunction,ComponentPad*%
%ADD14C,4.000000*%
%TD*%
%TA.AperFunction,ComponentPad*%
%ADD15C,0.600000*%
%TD*%
%TA.AperFunction,SMDPad,CuDef*%
%ADD16R,4.500000X2.950000*%
%TD*%
%TA.AperFunction,ViaPad*%
%ADD17C,0.800000*%
%TD*%
%TA.AperFunction,ViaPad*%
%ADD18C,0.450000*%
%TD*%
%TA.AperFunction,Conductor*%
%ADD19C,1.000000*%
%TD*%
%TA.AperFunction,Conductor*%
%ADD20C,0.500000*%
%TD*%
%TA.AperFunction,Conductor*%
%ADD21C,0.250000*%
%TD*%
G04 APERTURE END LIST*
D10*
%TO.P,H1,1,1*%
%TO.N,GND*%
X56197056Y-59472056D03*
X52802944Y-59472056D03*
X56197056Y-56077944D03*
X52100000Y-57775000D03*
X54500000Y-55375000D03*
D11*
X54500000Y-57775000D03*
D10*
X54500000Y-60175000D03*
X52802944Y-56077944D03*
X56900000Y-57775000D03*
%TD*%
D12*
%TO.P,TP1,1,1*%
%TO.N,GND*%
X54275000Y-22000000D03*
%TO.P,TP1,2,2*%
%TO.N,+3V3*%
X56815000Y-22000000D03*
%TD*%
D13*
%TO.P,J1,1,Pin_1*%
%TO.N,+12V*%
X27287500Y-30754166D03*
%TO.P,J1,2,Pin_2*%
%TO.N,GND*%
X27287500Y-28570833D03*
%TO.P,J1,3,Pin_3*%
%TO.N,/CANH*%
X27287500Y-26387500D03*
%TO.P,J1,4,Pin_4*%
%TO.N,/CANL*%
X27287500Y-24204166D03*
D14*
%TO.P,J1,MH1*%
%TO.N,N/C*%
X21162500Y-31462500D03*
%TO.P,J1,MH2*%
X21162500Y-23462500D03*
%TD*%
D15*
%TO.P,U1,9,GNDPAD*%
%TO.N,GND*%
X46650000Y-25225000D03*
X45350000Y-25225000D03*
X45350000Y-24025000D03*
X47850000Y-24025000D03*
X47850000Y-25225000D03*
X46650000Y-24025000D03*
X44250000Y-24025000D03*
X44250000Y-25225000D03*
D16*
X46050000Y-24625000D03*
%TD*%
D10*
%TO.P,H2,1,1*%
%TO.N,GND*%
X18727944Y-56077944D03*
X18727944Y-59472056D03*
X22122056Y-59472056D03*
X20425000Y-55375000D03*
X22122056Y-56077944D03*
X18025000Y-57775000D03*
X22825000Y-57775000D03*
D11*
X20425000Y-57775000D03*
D10*
X20425000Y-60175000D03*
%TD*%
D17*
%TO.N,GND*%
X55887500Y-43600000D03*
X57350000Y-43600000D03*
X54425000Y-43600000D03*
X35975000Y-46725000D03*
X48250000Y-19750000D03*
X43300000Y-33875000D03*
X48350000Y-41650000D03*
X37550000Y-31775000D03*
X57325000Y-35650000D03*
X44700000Y-57825000D03*
X35975000Y-51250000D03*
X31050000Y-53650500D03*
X35974852Y-44801523D03*
X40650000Y-31775000D03*
D18*
X17299520Y-47925000D03*
X20725000Y-43825000D03*
D17*
X53825000Y-32600000D03*
X47575000Y-60025000D03*
X42950000Y-53425000D03*
X39600000Y-51225000D03*
X41350000Y-60025000D03*
X18125000Y-41225000D03*
X55862500Y-35650000D03*
D18*
X22425000Y-45350000D03*
D17*
X24450000Y-37475000D03*
X43250000Y-38075000D03*
X35975000Y-48800000D03*
X55887500Y-39675000D03*
X34450000Y-33875000D03*
X37550000Y-33875000D03*
X48350000Y-46725000D03*
X26575000Y-38725000D03*
X54400000Y-35650000D03*
X18125000Y-37450000D03*
X57350000Y-39675000D03*
X39600000Y-53425000D03*
X21250000Y-37450000D03*
X40650000Y-33875000D03*
X42950000Y-51225000D03*
D18*
X20864444Y-49350000D03*
D17*
X35975000Y-53450000D03*
X54425000Y-39675000D03*
X34450000Y-31800000D03*
X47575000Y-57825000D03*
X41350000Y-57825000D03*
X50750000Y-41450000D03*
%TO.N,+3V3*%
X57400000Y-30650000D03*
X24350000Y-42250000D03*
X24050000Y-53925000D03*
X25250000Y-42250000D03*
X23450000Y-40700000D03*
X33150000Y-52800000D03*
X34150000Y-42374500D03*
X24350000Y-40700000D03*
X49250001Y-34350001D03*
X57400000Y-31625000D03*
X57400000Y-29675000D03*
D18*
%TO.N,/NRST*%
X22725000Y-50750000D03*
X22725000Y-47450000D03*
%TO.N,/CANTX*%
X32850000Y-38075000D03*
X42350000Y-25525000D03*
%TO.N,/CANRX*%
X42325000Y-21700000D03*
X32250000Y-38675000D03*
%TO.N,/JTDI*%
X38812500Y-40825000D03*
X38812500Y-46725000D03*
%TD*%
D19*
%TO.N,+3V3*%
X34150000Y-40400000D02*
X38575000Y-35975000D01*
X38575000Y-35975000D02*
X47625002Y-35975000D01*
X34150000Y-42374500D02*
X34150000Y-40400000D01*
X47625002Y-35975000D02*
X49250001Y-34350001D01*
X57400000Y-32700000D02*
X57400000Y-29675000D01*
X49250001Y-34350001D02*
X55749999Y-34350001D01*
X55749999Y-34350001D02*
X57400000Y-32700000D01*
D20*
%TO.N,/NRST*%
X22725000Y-47450000D02*
X22725000Y-50750000D01*
D21*
%TO.N,/CANTX*%
X32850000Y-38075000D02*
X32850000Y-27000000D01*
X32850000Y-27000000D02*
X34325000Y-25525000D01*
X34325000Y-25525000D02*
X42350000Y-25525000D01*
%TO.N,/CANRX*%
X32250000Y-26964283D02*
X34138803Y-25075480D01*
X42325000Y-24050000D02*
X42325000Y-21700000D01*
X32250000Y-38675000D02*
X32250000Y-26964283D01*
X41299520Y-25075480D02*
X42325000Y-24050000D01*
X34138803Y-25075480D02*
X41299520Y-25075480D01*
%TO.N,/JTDI*%
X38812500Y-40825000D02*
X38812500Y-46725000D01*
%TD*%
%TA.AperFunction,Conductor*%
%TO.N,+3V3*%
G36*
X26402130Y-39306603D02*
G01*
X26402628Y-39304746D01*
X26410612Y-39306885D01*
X26418238Y-39310044D01*
X26426422Y-39311121D01*
X26426424Y-39311122D01*
X26566812Y-39329604D01*
X26575000Y-39330682D01*
X26583188Y-39329604D01*
X26723576Y-39311122D01*
X26723578Y-39311121D01*
X26731762Y-39310044D01*
X26739388Y-39306885D01*
X26747372Y-39304746D01*
X26747870Y-39306603D01*
X26781075Y-39300000D01*
X34899000Y-39300000D01*
X34967121Y-39320002D01*
X35013614Y-39373658D01*
X35025000Y-39426000D01*
X35025000Y-54449000D01*
X35004998Y-54517121D01*
X34951342Y-54563614D01*
X34899000Y-54575000D01*
X22075794Y-54575000D01*
X22007673Y-54554998D01*
X21961180Y-54501342D01*
X21949794Y-54449206D01*
X21949351Y-54178196D01*
X21948487Y-53650500D01*
X30444318Y-53650500D01*
X30464956Y-53807262D01*
X30525464Y-53953341D01*
X30621718Y-54078782D01*
X30747159Y-54175036D01*
X30893238Y-54235544D01*
X31050000Y-54256182D01*
X31058188Y-54255104D01*
X31198574Y-54236622D01*
X31206762Y-54235544D01*
X31352841Y-54175036D01*
X31478282Y-54078782D01*
X31574536Y-53953341D01*
X31635044Y-53807262D01*
X31655682Y-53650500D01*
X31635044Y-53493738D01*
X31574536Y-53347659D01*
X31478282Y-53222218D01*
X31352841Y-53125964D01*
X31206762Y-53065456D01*
X31050000Y-53044818D01*
X30893238Y-53065456D01*
X30747159Y-53125964D01*
X30621718Y-53222218D01*
X30525464Y-53347659D01*
X30464956Y-53493738D01*
X30444318Y-53650500D01*
X21948487Y-53650500D01*
X21943795Y-50783850D01*
X22274500Y-50783850D01*
X22289551Y-50883962D01*
X22326761Y-50961452D01*
X22337923Y-50984695D01*
X22348191Y-51006079D01*
X22354583Y-51012994D01*
X22433755Y-51098643D01*
X22433758Y-51098645D01*
X22440146Y-51105556D01*
X22557287Y-51173596D01*
X22623271Y-51188891D01*
X22680078Y-51202058D01*
X22680079Y-51202058D01*
X22689255Y-51204185D01*
X22698650Y-51203520D01*
X22698653Y-51203520D01*
X22775403Y-51198085D01*
X22824384Y-51194617D01*
X22833163Y-51191221D01*
X22833166Y-51191220D01*
X22941946Y-51149136D01*
X22941948Y-51149135D01*
X22950726Y-51145739D01*
X23057110Y-51061872D01*
X23079580Y-51029360D01*
X23134765Y-50984695D01*
X23183232Y-50975000D01*
X23775000Y-50975000D01*
X23775000Y-47150000D01*
X23116323Y-47150000D01*
X23048202Y-47129998D01*
X23023797Y-47109527D01*
X23016247Y-47101360D01*
X23009854Y-47094444D01*
X22892713Y-47026404D01*
X22799155Y-47004718D01*
X22769922Y-46997942D01*
X22769921Y-46997942D01*
X22760745Y-46995815D01*
X22751350Y-46996480D01*
X22751347Y-46996480D01*
X22674597Y-47001915D01*
X22625616Y-47005383D01*
X22616837Y-47008779D01*
X22616834Y-47008780D01*
X22508054Y-47050864D01*
X22508052Y-47050865D01*
X22499274Y-47054261D01*
X22392890Y-47138128D01*
X22387535Y-47145875D01*
X22387534Y-47145877D01*
X22383530Y-47151671D01*
X22315869Y-47249569D01*
X22275020Y-47378730D01*
X22274500Y-47385337D01*
X22274500Y-50783850D01*
X21943795Y-50783850D01*
X21938211Y-47371881D01*
X21935584Y-45766728D01*
X21955475Y-45698575D01*
X22009054Y-45651994D01*
X22079312Y-45641775D01*
X22143940Y-45671163D01*
X22150679Y-45677427D01*
X22171780Y-45698528D01*
X22291874Y-45759719D01*
X22301663Y-45761269D01*
X22301665Y-45761270D01*
X22415207Y-45779253D01*
X22425000Y-45780804D01*
X22434793Y-45779253D01*
X22548335Y-45761270D01*
X22548337Y-45761269D01*
X22558126Y-45759719D01*
X22678220Y-45698528D01*
X22773528Y-45603220D01*
X22834719Y-45483126D01*
X22855804Y-45350000D01*
X22834719Y-45216874D01*
X22773528Y-45096780D01*
X22678220Y-45001472D01*
X22558126Y-44940281D01*
X22548337Y-44938731D01*
X22548335Y-44938730D01*
X22434793Y-44920747D01*
X22425000Y-44919196D01*
X22415207Y-44920747D01*
X22301665Y-44938730D01*
X22301663Y-44938731D01*
X22291874Y-44940281D01*
X22171780Y-45001472D01*
X22149318Y-45023934D01*
X22087006Y-45057960D01*
X22016191Y-45052895D01*
X21959355Y-45010348D01*
X21934544Y-44943828D01*
X21934223Y-44935045D01*
X21925207Y-39426206D01*
X21945098Y-39358053D01*
X21998677Y-39311472D01*
X22051207Y-39300000D01*
X26368925Y-39300000D01*
X26402130Y-39306603D01*
G37*
%TD.AperFunction*%
%TD*%
%TA.AperFunction,Conductor*%
%TO.N,GND*%
G36*
X56720681Y-18001500D02*
G01*
X56734956Y-18003723D01*
X56734959Y-18003723D01*
X56743829Y-18005104D01*
X56758619Y-18003170D01*
X56783940Y-18002427D01*
X56926275Y-18012607D01*
X56954482Y-18014625D01*
X56972277Y-18017183D01*
X57163798Y-18058846D01*
X57181043Y-18063910D01*
X57364682Y-18132405D01*
X57381034Y-18139872D01*
X57553054Y-18233801D01*
X57568178Y-18243521D01*
X57725080Y-18360977D01*
X57738666Y-18372750D01*
X57877250Y-18511334D01*
X57889023Y-18524920D01*
X58006479Y-18681822D01*
X58016199Y-18696946D01*
X58110128Y-18868966D01*
X58117595Y-18885318D01*
X58186090Y-19068957D01*
X58191156Y-19086207D01*
X58232817Y-19277724D01*
X58235375Y-19295518D01*
X58247072Y-19459055D01*
X58246368Y-19475982D01*
X58246387Y-19475982D01*
X58246277Y-19484958D01*
X58244896Y-19493829D01*
X58246060Y-19502731D01*
X58246060Y-19502734D01*
X58248936Y-19524725D01*
X58250000Y-19541062D01*
X58250000Y-28824000D01*
X58229998Y-28892121D01*
X58176342Y-28938614D01*
X58124000Y-28950000D01*
X56700000Y-28950000D01*
X56700000Y-29621198D01*
X56699833Y-29626297D01*
X56699500Y-29628826D01*
X56699500Y-32357654D01*
X56679498Y-32425775D01*
X56662595Y-32446749D01*
X55496747Y-33612596D01*
X55434435Y-33646622D01*
X55407652Y-33649501D01*
X49278642Y-33649501D01*
X49270072Y-33649209D01*
X49268854Y-33649126D01*
X49213071Y-33645323D01*
X49205594Y-33646628D01*
X49205591Y-33646628D01*
X49150871Y-33656178D01*
X49144347Y-33657141D01*
X49089222Y-33663812D01*
X49089219Y-33663813D01*
X49081681Y-33664725D01*
X49074579Y-33667409D01*
X49071243Y-33668228D01*
X49056786Y-33672184D01*
X49053529Y-33673167D01*
X49046048Y-33674473D01*
X49039096Y-33677525D01*
X49039095Y-33677525D01*
X48988234Y-33699850D01*
X48982129Y-33702341D01*
X48930190Y-33721968D01*
X48930186Y-33721970D01*
X48923078Y-33724656D01*
X48916814Y-33728961D01*
X48913775Y-33730550D01*
X48900688Y-33737833D01*
X48897749Y-33739571D01*
X48890799Y-33742622D01*
X48884773Y-33747246D01*
X48884771Y-33747247D01*
X48840698Y-33781065D01*
X48835379Y-33784930D01*
X48783350Y-33820689D01*
X48778293Y-33826365D01*
X48742401Y-33866649D01*
X48737420Y-33871925D01*
X47371750Y-35237595D01*
X47309438Y-35271621D01*
X47282655Y-35274500D01*
X38603641Y-35274500D01*
X38595071Y-35274208D01*
X38545646Y-35270838D01*
X38545642Y-35270838D01*
X38538070Y-35270322D01*
X38530594Y-35271627D01*
X38530591Y-35271627D01*
X38475868Y-35281178D01*
X38469342Y-35282141D01*
X38428904Y-35287035D01*
X38406680Y-35289724D01*
X38399573Y-35292409D01*
X38396280Y-35293218D01*
X38381809Y-35297177D01*
X38378533Y-35298166D01*
X38371046Y-35299473D01*
X38364087Y-35302528D01*
X38364086Y-35302528D01*
X38313240Y-35324847D01*
X38307134Y-35327339D01*
X38255182Y-35346970D01*
X38255180Y-35346971D01*
X38248077Y-35349655D01*
X38241822Y-35353954D01*
X38238797Y-35355535D01*
X38225701Y-35362825D01*
X38222757Y-35364566D01*
X38215798Y-35367621D01*
X38209770Y-35372246D01*
X38209769Y-35372247D01*
X38165727Y-35406042D01*
X38160391Y-35409919D01*
X38114614Y-35441381D01*
X38114608Y-35441386D01*
X38108349Y-35445688D01*
X38103294Y-35451362D01*
X38067392Y-35491657D01*
X38062411Y-35496933D01*
X34496248Y-39063095D01*
X34433936Y-39097121D01*
X34407153Y-39100000D01*
X32716615Y-39100000D01*
X32648494Y-39079998D01*
X32602001Y-39026342D01*
X32591897Y-38956068D01*
X32604348Y-38916797D01*
X32655218Y-38816959D01*
X32659719Y-38808126D01*
X32680804Y-38675000D01*
X32679253Y-38665207D01*
X32679253Y-38665203D01*
X32676093Y-38645253D01*
X32685191Y-38574842D01*
X32730912Y-38520527D01*
X32798740Y-38499554D01*
X32820253Y-38501093D01*
X32840203Y-38504253D01*
X32840207Y-38504253D01*
X32850000Y-38505804D01*
X32859793Y-38504253D01*
X32973335Y-38486270D01*
X32973337Y-38486269D01*
X32983126Y-38484719D01*
X33103220Y-38423528D01*
X33198528Y-38328220D01*
X33259719Y-38208126D01*
X33280804Y-38075000D01*
X33259719Y-37941874D01*
X33198528Y-37821780D01*
X33197884Y-37821136D01*
X33175706Y-37758979D01*
X33175500Y-37751784D01*
X33175500Y-27187016D01*
X33195502Y-27118895D01*
X33212405Y-27097921D01*
X34422921Y-25887405D01*
X34485233Y-25853379D01*
X34512016Y-25850500D01*
X42026784Y-25850500D01*
X42093276Y-25870024D01*
X42096780Y-25873528D01*
X42105616Y-25878030D01*
X42105617Y-25878031D01*
X42124015Y-25887405D01*
X42216874Y-25934719D01*
X42226663Y-25936269D01*
X42226665Y-25936270D01*
X42340207Y-25954253D01*
X42350000Y-25955804D01*
X42359793Y-25954253D01*
X42473335Y-25936270D01*
X42473337Y-25936269D01*
X42483126Y-25934719D01*
X42603220Y-25873528D01*
X42698528Y-25778220D01*
X42759719Y-25658126D01*
X42761949Y-25644051D01*
X42779253Y-25534793D01*
X42780804Y-25525000D01*
X42776822Y-25499859D01*
X42761270Y-25401665D01*
X42761269Y-25401663D01*
X42759719Y-25391874D01*
X42698528Y-25271780D01*
X42603220Y-25176472D01*
X42483126Y-25115281D01*
X42473337Y-25113731D01*
X42473335Y-25113730D01*
X42359793Y-25095747D01*
X42350000Y-25094196D01*
X42340207Y-25095747D01*
X42226665Y-25113730D01*
X42226663Y-25113731D01*
X42216874Y-25115281D01*
X42196147Y-25125842D01*
X42105617Y-25171969D01*
X42105616Y-25171970D01*
X42096780Y-25176472D01*
X42096136Y-25177116D01*
X42033979Y-25199294D01*
X42026784Y-25199500D01*
X41940016Y-25199500D01*
X41871895Y-25179498D01*
X41825402Y-25125842D01*
X41815298Y-25055568D01*
X41844792Y-24990988D01*
X41850921Y-24984405D01*
X42541215Y-24294111D01*
X42549319Y-24286684D01*
X42569749Y-24269541D01*
X42578194Y-24262455D01*
X42583707Y-24252906D01*
X42597039Y-24229815D01*
X42602945Y-24220544D01*
X42614413Y-24204166D01*
X42624554Y-24189684D01*
X42627408Y-24179034D01*
X42628885Y-24175866D01*
X42630077Y-24172590D01*
X42635588Y-24163045D01*
X42642130Y-24125942D01*
X42644509Y-24115210D01*
X42654264Y-24078807D01*
X42650979Y-24041257D01*
X42650500Y-24030276D01*
X42650500Y-22023216D01*
X42657317Y-22000000D01*
X55909540Y-22000000D01*
X55910230Y-22006565D01*
X55922518Y-22123477D01*
X55929326Y-22188256D01*
X55987821Y-22368284D01*
X56082467Y-22532216D01*
X56086885Y-22537123D01*
X56086886Y-22537124D01*
X56163758Y-22622498D01*
X56209129Y-22672888D01*
X56362270Y-22784151D01*
X56535197Y-22861144D01*
X56633212Y-22881978D01*
X56713897Y-22899128D01*
X56713901Y-22899128D01*
X56720354Y-22900500D01*
X56909646Y-22900500D01*
X56916099Y-22899128D01*
X56916103Y-22899128D01*
X56996788Y-22881978D01*
X57094803Y-22861144D01*
X57267730Y-22784151D01*
X57420871Y-22672888D01*
X57466243Y-22622498D01*
X57543114Y-22537124D01*
X57543115Y-22537123D01*
X57547533Y-22532216D01*
X57642179Y-22368284D01*
X57700674Y-22188256D01*
X57707483Y-22123477D01*
X57719770Y-22006565D01*
X57720460Y-22000000D01*
X57700674Y-21811744D01*
X57642179Y-21631716D01*
X57547533Y-21467784D01*
X57438753Y-21346972D01*
X57425286Y-21332015D01*
X57425284Y-21332014D01*
X57420871Y-21327112D01*
X57370177Y-21290281D01*
X57273072Y-21219730D01*
X57273071Y-21219729D01*
X57267730Y-21215849D01*
X57094803Y-21138856D01*
X56996788Y-21118022D01*
X56916103Y-21100872D01*
X56916099Y-21100872D01*
X56909646Y-21099500D01*
X56720354Y-21099500D01*
X56713901Y-21100872D01*
X56713897Y-21100872D01*
X56633212Y-21118022D01*
X56535197Y-21138856D01*
X56362270Y-21215849D01*
X56356929Y-21219729D01*
X56356928Y-21219730D01*
X56259823Y-21290281D01*
X56209129Y-21327112D01*
X56204716Y-21332014D01*
X56204714Y-21332015D01*
X56191247Y-21346972D01*
X56082467Y-21467784D01*
X55987821Y-21631716D01*
X55929326Y-21811744D01*
X55909540Y-22000000D01*
X42657317Y-22000000D01*
X42670024Y-21956724D01*
X42673528Y-21953220D01*
X42734719Y-21833126D01*
X42755804Y-21700000D01*
X42754253Y-21690207D01*
X42736270Y-21576665D01*
X42736269Y-21576663D01*
X42734719Y-21566874D01*
X42673528Y-21446780D01*
X42578220Y-21351472D01*
X42458126Y-21290281D01*
X42448337Y-21288731D01*
X42448335Y-21288730D01*
X42334793Y-21270747D01*
X42325000Y-21269196D01*
X42315207Y-21270747D01*
X42201665Y-21288730D01*
X42201663Y-21288731D01*
X42191874Y-21290281D01*
X42071780Y-21351472D01*
X41976472Y-21446780D01*
X41915281Y-21566874D01*
X41913731Y-21576663D01*
X41913730Y-21576665D01*
X41895747Y-21690207D01*
X41894196Y-21700000D01*
X41915281Y-21833126D01*
X41976472Y-21953220D01*
X41977116Y-21953864D01*
X41999294Y-22016021D01*
X41999500Y-22023216D01*
X41999500Y-23862984D01*
X41979498Y-23931105D01*
X41962595Y-23952079D01*
X41201599Y-24713075D01*
X41139287Y-24747101D01*
X41112504Y-24749980D01*
X34158513Y-24749980D01*
X34147531Y-24749500D01*
X34120983Y-24747177D01*
X34120981Y-24747177D01*
X34109996Y-24746216D01*
X34073588Y-24755972D01*
X34062861Y-24758350D01*
X34059502Y-24758942D01*
X34025758Y-24764892D01*
X34016213Y-24770403D01*
X34012937Y-24771595D01*
X34009769Y-24773072D01*
X33999119Y-24775926D01*
X33990088Y-24782250D01*
X33968259Y-24797535D01*
X33958988Y-24803441D01*
X33935897Y-24816773D01*
X33926348Y-24822286D01*
X33919262Y-24830731D01*
X33902118Y-24851162D01*
X33894692Y-24859265D01*
X32033785Y-26720172D01*
X32025681Y-26727599D01*
X31996806Y-26751828D01*
X31991293Y-26761377D01*
X31977961Y-26784468D01*
X31972055Y-26793739D01*
X31950446Y-26824599D01*
X31947592Y-26835249D01*
X31946115Y-26838417D01*
X31944923Y-26841693D01*
X31939412Y-26851238D01*
X31933462Y-26884982D01*
X31932870Y-26888341D01*
X31930492Y-26899068D01*
X31920736Y-26935476D01*
X31921697Y-26946461D01*
X31921697Y-26946463D01*
X31924020Y-26973011D01*
X31924500Y-26983993D01*
X31924500Y-38351784D01*
X31904976Y-38418276D01*
X31901472Y-38421780D01*
X31840281Y-38541874D01*
X31819196Y-38675000D01*
X31840281Y-38808126D01*
X31844782Y-38816959D01*
X31895652Y-38916797D01*
X31908756Y-38986574D01*
X31882056Y-39052358D01*
X31824029Y-39093265D01*
X31783385Y-39100000D01*
X26781075Y-39100000D01*
X26778002Y-39100303D01*
X26777994Y-39100303D01*
X26745142Y-39103538D01*
X26745136Y-39103539D01*
X26742068Y-39103841D01*
X26713418Y-39109538D01*
X26707624Y-39110550D01*
X26702682Y-39111295D01*
X26695615Y-39111559D01*
X26688784Y-39113389D01*
X26683542Y-39114179D01*
X26676285Y-39115622D01*
X26654044Y-39118550D01*
X26591445Y-39126791D01*
X26558555Y-39126791D01*
X26495956Y-39118550D01*
X26473715Y-39115622D01*
X26461264Y-39113146D01*
X26461254Y-39113194D01*
X26457787Y-39112470D01*
X26454385Y-39111559D01*
X26450906Y-39111034D01*
X26450895Y-39111032D01*
X26425655Y-39107226D01*
X26419865Y-39106214D01*
X26410965Y-39104444D01*
X26410962Y-39104444D01*
X26407932Y-39103841D01*
X26404362Y-39103490D01*
X26372006Y-39100303D01*
X26371998Y-39100303D01*
X26368925Y-39100000D01*
X22051207Y-39100000D01*
X22047857Y-39100362D01*
X22047848Y-39100362D01*
X22027648Y-39102542D01*
X22008535Y-39104605D01*
X21981313Y-39110550D01*
X21956787Y-39115906D01*
X21956771Y-39115910D01*
X21956005Y-39116077D01*
X21955233Y-39116267D01*
X21955210Y-39116272D01*
X21953610Y-39116665D01*
X21953607Y-39116666D01*
X21945939Y-39118550D01*
X21938980Y-39122273D01*
X21938975Y-39122275D01*
X21885645Y-39150807D01*
X21867456Y-39160538D01*
X21813877Y-39207119D01*
X21812530Y-39208443D01*
X21812515Y-39208457D01*
X21802859Y-39217950D01*
X21796433Y-39224267D01*
X21753108Y-39302019D01*
X21733217Y-39370172D01*
X21725207Y-39426533D01*
X21725214Y-39431026D01*
X21725214Y-39431031D01*
X21734222Y-44934843D01*
X21734223Y-44935372D01*
X21734356Y-44942350D01*
X21734677Y-44951133D01*
X21747154Y-45013722D01*
X21771965Y-45080242D01*
X21781900Y-45102597D01*
X21839499Y-45170456D01*
X21868341Y-45192047D01*
X21881223Y-45201690D01*
X21896335Y-45213003D01*
X21916780Y-45226439D01*
X21926834Y-45229503D01*
X21928701Y-45230072D01*
X21931586Y-45231968D01*
X21933560Y-45232894D01*
X21933427Y-45233178D01*
X21988032Y-45269065D01*
X22016862Y-45333944D01*
X22006040Y-45404111D01*
X21959001Y-45457288D01*
X21951410Y-45461697D01*
X21942585Y-45466418D01*
X21884066Y-45497725D01*
X21884064Y-45497727D01*
X21877833Y-45501060D01*
X21872499Y-45505697D01*
X21872498Y-45505698D01*
X21839190Y-45534656D01*
X21824254Y-45547641D01*
X21822907Y-45548965D01*
X21822892Y-45548979D01*
X21813638Y-45558077D01*
X21806810Y-45564789D01*
X21763485Y-45642541D01*
X21743594Y-45710694D01*
X21735584Y-45767055D01*
X21735591Y-45771548D01*
X21735591Y-45771553D01*
X21737815Y-47130218D01*
X21738211Y-47372208D01*
X21743795Y-50784177D01*
X21748487Y-53650827D01*
X21749351Y-54178523D01*
X21749794Y-54449533D01*
X21754399Y-54491878D01*
X21765785Y-54544014D01*
X21768172Y-54553762D01*
X21810030Y-54632314D01*
X21856523Y-54685970D01*
X21873645Y-54703445D01*
X21951327Y-54746897D01*
X21984448Y-54756622D01*
X22015125Y-54765630D01*
X22015129Y-54765631D01*
X22019448Y-54766899D01*
X22023896Y-54767539D01*
X22023903Y-54767540D01*
X22071346Y-54774361D01*
X22071353Y-54774361D01*
X22075794Y-54775000D01*
X34899000Y-54775000D01*
X34902346Y-54774640D01*
X34902352Y-54774640D01*
X34916436Y-54773126D01*
X34941512Y-54770430D01*
X34993854Y-54759044D01*
X35003762Y-54756622D01*
X35082314Y-54714764D01*
X35135970Y-54668271D01*
X35153445Y-54651149D01*
X35196897Y-54573467D01*
X35216899Y-54505346D01*
X35218365Y-54495152D01*
X35224361Y-54453448D01*
X35224361Y-54453441D01*
X35225000Y-54449000D01*
X35225000Y-46725000D01*
X38381696Y-46725000D01*
X38402781Y-46858126D01*
X38463972Y-46978220D01*
X38559280Y-47073528D01*
X38679374Y-47134719D01*
X38689163Y-47136269D01*
X38689165Y-47136270D01*
X38802707Y-47154253D01*
X38812500Y-47155804D01*
X38822293Y-47154253D01*
X38935835Y-47136270D01*
X38935837Y-47136269D01*
X38945626Y-47134719D01*
X39065720Y-47073528D01*
X39161028Y-46978220D01*
X39222219Y-46858126D01*
X39243304Y-46725000D01*
X39222219Y-46591874D01*
X39161028Y-46471780D01*
X39160384Y-46471136D01*
X39138206Y-46408979D01*
X39138000Y-46401784D01*
X39138000Y-41148216D01*
X39157524Y-41081724D01*
X39161028Y-41078220D01*
X39222219Y-40958126D01*
X39243304Y-40825000D01*
X39222219Y-40691874D01*
X39161028Y-40571780D01*
X39065720Y-40476472D01*
X38945626Y-40415281D01*
X38935837Y-40413731D01*
X38935835Y-40413730D01*
X38822293Y-40395747D01*
X38812500Y-40394196D01*
X38802707Y-40395747D01*
X38689165Y-40413730D01*
X38689163Y-40413731D01*
X38679374Y-40415281D01*
X38559280Y-40476472D01*
X38463972Y-40571780D01*
X38402781Y-40691874D01*
X38381696Y-40825000D01*
X38402781Y-40958126D01*
X38463972Y-41078220D01*
X38464616Y-41078864D01*
X38486794Y-41141021D01*
X38487000Y-41148216D01*
X38487000Y-46401784D01*
X38467476Y-46468276D01*
X38463972Y-46471780D01*
X38402781Y-46591874D01*
X38381696Y-46725000D01*
X35225000Y-46725000D01*
X35225000Y-40367846D01*
X35245002Y-40299725D01*
X35261905Y-40278751D01*
X38828252Y-36712405D01*
X38890564Y-36678379D01*
X38917347Y-36675500D01*
X47596361Y-36675500D01*
X47604931Y-36675792D01*
X47654356Y-36679162D01*
X47654360Y-36679162D01*
X47661932Y-36679678D01*
X47669408Y-36678373D01*
X47669411Y-36678373D01*
X47724134Y-36668822D01*
X47730660Y-36667859D01*
X47771098Y-36662965D01*
X47793322Y-36660276D01*
X47800429Y-36657591D01*
X47803722Y-36656782D01*
X47818193Y-36652823D01*
X47821469Y-36651834D01*
X47828956Y-36650527D01*
X47835916Y-36647472D01*
X47886762Y-36625153D01*
X47892868Y-36622661D01*
X47944820Y-36603030D01*
X47944822Y-36603029D01*
X47951925Y-36600345D01*
X47958180Y-36596046D01*
X47961205Y-36594465D01*
X47974301Y-36587175D01*
X47977245Y-36585434D01*
X47984204Y-36582379D01*
X48034275Y-36543958D01*
X48039611Y-36540081D01*
X48085388Y-36508619D01*
X48085394Y-36508614D01*
X48091653Y-36504312D01*
X48132611Y-36458342D01*
X48137591Y-36453067D01*
X49503253Y-35087406D01*
X49565565Y-35053380D01*
X49592348Y-35050501D01*
X55721358Y-35050501D01*
X55729928Y-35050793D01*
X55779353Y-35054163D01*
X55779357Y-35054163D01*
X55786929Y-35054679D01*
X55794405Y-35053374D01*
X55794407Y-35053374D01*
X55811234Y-35050437D01*
X55843463Y-35049005D01*
X55850490Y-35049596D01*
X55850000Y-35050000D01*
X58124000Y-35050000D01*
X58192121Y-35070002D01*
X58238614Y-35123658D01*
X58250000Y-35176000D01*
X58250000Y-59787083D01*
X58248500Y-59806467D01*
X58247681Y-59811730D01*
X58244896Y-59829615D01*
X58246830Y-59844405D01*
X58247573Y-59869729D01*
X58235375Y-60040268D01*
X58232817Y-60058062D01*
X58191156Y-60249579D01*
X58186090Y-60266829D01*
X58117595Y-60450468D01*
X58110128Y-60466820D01*
X58016199Y-60638840D01*
X58006479Y-60653964D01*
X57889023Y-60810866D01*
X57877250Y-60824452D01*
X57738666Y-60963036D01*
X57725080Y-60974809D01*
X57568178Y-61092265D01*
X57553054Y-61101985D01*
X57381034Y-61195914D01*
X57364682Y-61203381D01*
X57181043Y-61271876D01*
X57163798Y-61276940D01*
X56993292Y-61314031D01*
X56972276Y-61318603D01*
X56954482Y-61321161D01*
X56937935Y-61322344D01*
X56790941Y-61332858D01*
X56774018Y-61332154D01*
X56774018Y-61332173D01*
X56765042Y-61332063D01*
X56756171Y-61330682D01*
X56747269Y-61331846D01*
X56747266Y-61331846D01*
X56725275Y-61334722D01*
X56708938Y-61335786D01*
X18462917Y-61335786D01*
X18443533Y-61334286D01*
X18429258Y-61332063D01*
X18429255Y-61332063D01*
X18420385Y-61330682D01*
X18405595Y-61332616D01*
X18380274Y-61333359D01*
X18237939Y-61323179D01*
X18209732Y-61321161D01*
X18191938Y-61318603D01*
X18170922Y-61314031D01*
X18000416Y-61276940D01*
X17983171Y-61271876D01*
X17799532Y-61203381D01*
X17783180Y-61195914D01*
X17611160Y-61101985D01*
X17596036Y-61092265D01*
X17439134Y-60974809D01*
X17425548Y-60963036D01*
X17286964Y-60824452D01*
X17275191Y-60810866D01*
X17157735Y-60653964D01*
X17148015Y-60638840D01*
X17054086Y-60466820D01*
X17046619Y-60450468D01*
X16978124Y-60266829D01*
X16973058Y-60249579D01*
X16931397Y-60058062D01*
X16928839Y-60040268D01*
X16917142Y-59876731D01*
X16917846Y-59859804D01*
X16917827Y-59859804D01*
X16917936Y-59850831D01*
X16919318Y-59841957D01*
X16915364Y-59811721D01*
X16914302Y-59795127D01*
X16974560Y-31462500D01*
X18957278Y-31462500D01*
X18957548Y-31466619D01*
X18974513Y-31725448D01*
X18976144Y-31750339D01*
X18976948Y-31754379D01*
X18976948Y-31754382D01*
X18997368Y-31857037D01*
X19032419Y-32033253D01*
X19125141Y-32306402D01*
X19126962Y-32310095D01*
X19126963Y-32310097D01*
X19150416Y-32357654D01*
X19252722Y-32565111D01*
X19412980Y-32804954D01*
X19415694Y-32808048D01*
X19415698Y-32808054D01*
X19600464Y-33018738D01*
X19603173Y-33021827D01*
X19606262Y-33024536D01*
X19816946Y-33209302D01*
X19816952Y-33209306D01*
X19820046Y-33212020D01*
X19823472Y-33214309D01*
X19823477Y-33214313D01*
X20003067Y-33334311D01*
X20059889Y-33372278D01*
X20063588Y-33374102D01*
X20063593Y-33374105D01*
X20314903Y-33498037D01*
X20318598Y-33499859D01*
X20322496Y-33501182D01*
X20322498Y-33501183D01*
X20587837Y-33591254D01*
X20587841Y-33591255D01*
X20591747Y-33592581D01*
X20595791Y-33593385D01*
X20595797Y-33593387D01*
X20870618Y-33648052D01*
X20870621Y-33648052D01*
X20874661Y-33648856D01*
X20878772Y-33649125D01*
X20878776Y-33649126D01*
X21158381Y-33667452D01*
X21162500Y-33667722D01*
X21166619Y-33667452D01*
X21446224Y-33649126D01*
X21446228Y-33649125D01*
X21450339Y-33648856D01*
X21454379Y-33648052D01*
X21454382Y-33648052D01*
X21729203Y-33593387D01*
X21729209Y-33593385D01*
X21733253Y-33592581D01*
X21737159Y-33591255D01*
X21737163Y-33591254D01*
X22002502Y-33501183D01*
X22002504Y-33501182D01*
X22006402Y-33499859D01*
X22010097Y-33498037D01*
X22261407Y-33374105D01*
X22261412Y-33374102D01*
X22265111Y-33372278D01*
X22321933Y-33334311D01*
X22501523Y-33214313D01*
X22501528Y-33214309D01*
X22504954Y-33212020D01*
X22508048Y-33209306D01*
X22508054Y-33209302D01*
X22718738Y-33024536D01*
X22721827Y-33021827D01*
X22724536Y-33018738D01*
X22909302Y-32808054D01*
X22909306Y-32808048D01*
X22912020Y-32804954D01*
X23072278Y-32565111D01*
X23174585Y-32357654D01*
X23198037Y-32310097D01*
X23198038Y-32310095D01*
X23199859Y-32306402D01*
X23292581Y-32033253D01*
X23327633Y-31857037D01*
X23348052Y-31754382D01*
X23348052Y-31754379D01*
X23348856Y-31750339D01*
X23350488Y-31725448D01*
X23367452Y-31466619D01*
X23367722Y-31462500D01*
X23365937Y-31435262D01*
X23349126Y-31178776D01*
X23349125Y-31178772D01*
X23348856Y-31174661D01*
X23348052Y-31170618D01*
X23293387Y-30895797D01*
X23293385Y-30895791D01*
X23292581Y-30891747D01*
X23266761Y-30815682D01*
X23236058Y-30725235D01*
X26182664Y-30725235D01*
X26195892Y-30927060D01*
X26245678Y-31123094D01*
X26330356Y-31306773D01*
X26447088Y-31471946D01*
X26591966Y-31613079D01*
X26760137Y-31725448D01*
X26765440Y-31727726D01*
X26765443Y-31727728D01*
X26853791Y-31765685D01*
X26945970Y-31805288D01*
X27143240Y-31849926D01*
X27149009Y-31850153D01*
X27149012Y-31850153D01*
X27225183Y-31853145D01*
X27345342Y-31857866D01*
X27431632Y-31845355D01*
X27539786Y-31829674D01*
X27539791Y-31829673D01*
X27545507Y-31828844D01*
X27550979Y-31826986D01*
X27550981Y-31826986D01*
X27731567Y-31765685D01*
X27731569Y-31765684D01*
X27737031Y-31763830D01*
X27913501Y-31665003D01*
X27975933Y-31613079D01*
X28064573Y-31539357D01*
X28069005Y-31535671D01*
X28198337Y-31380167D01*
X28297164Y-31203697D01*
X28307021Y-31174661D01*
X28360320Y-31017647D01*
X28360320Y-31017645D01*
X28362178Y-31012173D01*
X28363007Y-31006457D01*
X28363008Y-31006452D01*
X28390667Y-30815682D01*
X28391200Y-30812008D01*
X28392715Y-30754166D01*
X28374208Y-30552757D01*
X28319307Y-30358092D01*
X28229851Y-30176693D01*
X28211579Y-30152223D01*
X28112288Y-30019257D01*
X28112287Y-30019256D01*
X28108835Y-30014633D01*
X28085850Y-29993386D01*
X27964553Y-29881260D01*
X27964551Y-29881258D01*
X27960312Y-29877340D01*
X27932874Y-29860028D01*
X27794137Y-29772491D01*
X27789257Y-29769412D01*
X27601398Y-29694464D01*
X27403026Y-29655005D01*
X27397252Y-29654929D01*
X27397248Y-29654929D01*
X27294757Y-29653588D01*
X27200786Y-29652358D01*
X27195089Y-29653337D01*
X27195088Y-29653337D01*
X27007146Y-29685631D01*
X27007145Y-29685631D01*
X27001449Y-29686610D01*
X26811693Y-29756615D01*
X26637871Y-29860028D01*
X26485805Y-29993386D01*
X26360589Y-30152223D01*
X26266414Y-30331219D01*
X26206437Y-30524379D01*
X26182664Y-30725235D01*
X23236058Y-30725235D01*
X23201183Y-30622498D01*
X23201182Y-30622496D01*
X23199859Y-30618598D01*
X23156225Y-30530116D01*
X23074105Y-30363593D01*
X23074102Y-30363588D01*
X23072278Y-30359889D01*
X22953332Y-30181874D01*
X22914313Y-30123477D01*
X22914309Y-30123472D01*
X22912020Y-30120046D01*
X22909306Y-30116952D01*
X22909302Y-30116946D01*
X22724536Y-29906262D01*
X22721827Y-29903173D01*
X22669261Y-29857074D01*
X22508054Y-29715698D01*
X22508048Y-29715694D01*
X22504954Y-29712980D01*
X22501528Y-29710691D01*
X22501523Y-29710687D01*
X22268544Y-29555016D01*
X22265111Y-29552722D01*
X22261412Y-29550898D01*
X22261407Y-29550895D01*
X22010097Y-29426963D01*
X22010095Y-29426962D01*
X22006402Y-29425141D01*
X22002502Y-29423817D01*
X21737163Y-29333746D01*
X21737159Y-29333745D01*
X21733253Y-29332419D01*
X21729209Y-29331615D01*
X21729203Y-29331613D01*
X21454382Y-29276948D01*
X21454379Y-29276948D01*
X21450339Y-29276144D01*
X21446228Y-29275875D01*
X21446224Y-29275874D01*
X21166619Y-29257548D01*
X21162500Y-29257278D01*
X21158381Y-29257548D01*
X20878776Y-29275874D01*
X20878772Y-29275875D01*
X20874661Y-29276144D01*
X20870621Y-29276948D01*
X20870618Y-29276948D01*
X20595797Y-29331613D01*
X20595791Y-29331615D01*
X20591747Y-29332419D01*
X20587841Y-29333745D01*
X20587837Y-29333746D01*
X20322498Y-29423817D01*
X20318598Y-29425141D01*
X20314905Y-29426962D01*
X20314903Y-29426963D01*
X20063593Y-29550895D01*
X20063588Y-29550898D01*
X20059889Y-29552722D01*
X20056456Y-29555016D01*
X19823477Y-29710687D01*
X19823472Y-29710691D01*
X19820046Y-29712980D01*
X19816952Y-29715694D01*
X19816946Y-29715698D01*
X19655739Y-29857074D01*
X19603173Y-29903173D01*
X19600464Y-29906262D01*
X19415698Y-30116946D01*
X19415694Y-30116952D01*
X19412980Y-30120046D01*
X19410691Y-30123472D01*
X19410687Y-30123477D01*
X19371668Y-30181874D01*
X19252722Y-30359889D01*
X19250898Y-30363588D01*
X19250895Y-30363593D01*
X19168775Y-30530116D01*
X19125141Y-30618598D01*
X19123818Y-30622496D01*
X19123817Y-30622498D01*
X19058240Y-30815682D01*
X19032419Y-30891747D01*
X19031615Y-30895791D01*
X19031613Y-30895797D01*
X18976948Y-31170618D01*
X18976144Y-31174661D01*
X18975875Y-31178772D01*
X18975874Y-31178776D01*
X18959063Y-31435262D01*
X18957278Y-31462500D01*
X16974560Y-31462500D01*
X16985415Y-26358569D01*
X26182664Y-26358569D01*
X26195892Y-26560394D01*
X26245678Y-26756428D01*
X26330356Y-26940107D01*
X26447088Y-27105280D01*
X26591966Y-27246413D01*
X26760137Y-27358782D01*
X26765440Y-27361060D01*
X26765443Y-27361062D01*
X26853791Y-27399019D01*
X26945970Y-27438622D01*
X27143240Y-27483260D01*
X27149009Y-27483487D01*
X27149012Y-27483487D01*
X27225183Y-27486479D01*
X27345342Y-27491200D01*
X27431632Y-27478689D01*
X27539786Y-27463008D01*
X27539791Y-27463007D01*
X27545507Y-27462178D01*
X27550979Y-27460320D01*
X27550981Y-27460320D01*
X27731567Y-27399019D01*
X27731569Y-27399018D01*
X27737031Y-27397164D01*
X27913501Y-27298337D01*
X27975933Y-27246413D01*
X28064573Y-27172691D01*
X28069005Y-27169005D01*
X28198337Y-27013501D01*
X28297164Y-26837031D01*
X28334312Y-26727599D01*
X28360320Y-26650981D01*
X28360320Y-26650979D01*
X28362178Y-26645507D01*
X28363007Y-26639791D01*
X28363008Y-26639786D01*
X28390667Y-26449016D01*
X28391200Y-26445342D01*
X28392715Y-26387500D01*
X28374208Y-26186091D01*
X28319307Y-25991426D01*
X28229851Y-25810027D01*
X28211579Y-25785557D01*
X28112288Y-25652591D01*
X28112287Y-25652590D01*
X28108835Y-25647967D01*
X28085850Y-25626720D01*
X27964553Y-25514594D01*
X27964551Y-25514592D01*
X27960312Y-25510674D01*
X27789257Y-25402746D01*
X27789969Y-25401618D01*
X27743144Y-25357388D01*
X27726082Y-25288472D01*
X27748988Y-25221272D01*
X27790400Y-25183942D01*
X27796295Y-25180641D01*
X27855492Y-25147489D01*
X27908464Y-25117824D01*
X27908465Y-25117823D01*
X27913501Y-25115003D01*
X27975933Y-25063079D01*
X28064573Y-24989357D01*
X28069005Y-24985671D01*
X28198337Y-24830167D01*
X28297164Y-24653697D01*
X28328493Y-24561407D01*
X28360320Y-24467647D01*
X28360320Y-24467645D01*
X28362178Y-24462173D01*
X28363007Y-24456457D01*
X28363008Y-24456452D01*
X28380309Y-24337122D01*
X28391200Y-24262008D01*
X28392715Y-24204166D01*
X28374208Y-24002757D01*
X28319307Y-23808092D01*
X28229851Y-23626693D01*
X28211579Y-23602223D01*
X28112288Y-23469257D01*
X28112287Y-23469256D01*
X28108835Y-23464633D01*
X28085850Y-23443386D01*
X27964553Y-23331260D01*
X27964551Y-23331258D01*
X27960312Y-23327340D01*
X27932874Y-23310028D01*
X27794137Y-23222491D01*
X27789257Y-23219412D01*
X27601398Y-23144464D01*
X27403026Y-23105005D01*
X27397252Y-23104929D01*
X27397248Y-23104929D01*
X27294757Y-23103588D01*
X27200786Y-23102358D01*
X27195089Y-23103337D01*
X27195088Y-23103337D01*
X27007146Y-23135631D01*
X27007145Y-23135631D01*
X27001449Y-23136610D01*
X26811693Y-23206615D01*
X26637871Y-23310028D01*
X26485805Y-23443386D01*
X26360589Y-23602223D01*
X26266414Y-23781219D01*
X26206437Y-23974379D01*
X26182664Y-24175235D01*
X26195892Y-24377060D01*
X26197315Y-24382662D01*
X26243651Y-24565111D01*
X26245678Y-24573094D01*
X26330356Y-24756773D01*
X26447088Y-24921946D01*
X26591966Y-25063079D01*
X26760137Y-25175448D01*
X26765440Y-25177726D01*
X26765443Y-25177728D01*
X26772224Y-25180641D01*
X26826917Y-25225909D01*
X26848454Y-25293561D01*
X26829997Y-25362116D01*
X26786909Y-25404694D01*
X26637871Y-25493362D01*
X26485805Y-25626720D01*
X26360589Y-25785557D01*
X26266414Y-25964553D01*
X26206437Y-26157713D01*
X26182664Y-26358569D01*
X16985415Y-26358569D01*
X16991574Y-23462500D01*
X18957278Y-23462500D01*
X18957548Y-23466619D01*
X18967737Y-23622066D01*
X18976144Y-23750339D01*
X18976948Y-23754379D01*
X18976948Y-23754382D01*
X19019611Y-23968862D01*
X19032419Y-24033253D01*
X19033745Y-24037159D01*
X19033746Y-24037163D01*
X19119646Y-24290214D01*
X19125141Y-24306402D01*
X19126962Y-24310095D01*
X19126963Y-24310097D01*
X19201959Y-24462173D01*
X19252722Y-24565111D01*
X19255016Y-24568544D01*
X19410133Y-24800693D01*
X19412980Y-24804954D01*
X19415694Y-24808048D01*
X19415698Y-24808054D01*
X19576128Y-24990988D01*
X19603173Y-25021827D01*
X19606262Y-25024536D01*
X19816946Y-25209302D01*
X19816952Y-25209306D01*
X19820046Y-25212020D01*
X19823472Y-25214309D01*
X19823477Y-25214313D01*
X19943929Y-25294796D01*
X20059889Y-25372278D01*
X20063588Y-25374102D01*
X20063593Y-25374105D01*
X20125622Y-25404694D01*
X20318598Y-25499859D01*
X20322496Y-25501182D01*
X20322498Y-25501183D01*
X20587837Y-25591254D01*
X20587841Y-25591255D01*
X20591747Y-25592581D01*
X20595791Y-25593385D01*
X20595797Y-25593387D01*
X20870618Y-25648052D01*
X20870621Y-25648052D01*
X20874661Y-25648856D01*
X20878772Y-25649125D01*
X20878776Y-25649126D01*
X21158381Y-25667452D01*
X21162500Y-25667722D01*
X21166619Y-25667452D01*
X21446224Y-25649126D01*
X21446228Y-25649125D01*
X21450339Y-25648856D01*
X21454379Y-25648052D01*
X21454382Y-25648052D01*
X21729203Y-25593387D01*
X21729209Y-25593385D01*
X21733253Y-25592581D01*
X21737159Y-25591255D01*
X21737163Y-25591254D01*
X22002502Y-25501183D01*
X22002504Y-25501182D01*
X22006402Y-25499859D01*
X22199378Y-25404694D01*
X22261407Y-25374105D01*
X22261412Y-25374102D01*
X22265111Y-25372278D01*
X22381071Y-25294796D01*
X22501523Y-25214313D01*
X22501528Y-25214309D01*
X22504954Y-25212020D01*
X22508048Y-25209306D01*
X22508054Y-25209302D01*
X22718738Y-25024536D01*
X22721827Y-25021827D01*
X22748872Y-24990988D01*
X22909302Y-24808054D01*
X22909306Y-24808048D01*
X22912020Y-24804954D01*
X22914868Y-24800693D01*
X23069984Y-24568544D01*
X23072278Y-24565111D01*
X23123042Y-24462173D01*
X23198037Y-24310097D01*
X23198038Y-24310095D01*
X23199859Y-24306402D01*
X23205354Y-24290214D01*
X23291254Y-24037163D01*
X23291255Y-24037159D01*
X23292581Y-24033253D01*
X23305390Y-23968862D01*
X23348052Y-23754382D01*
X23348052Y-23754379D01*
X23348856Y-23750339D01*
X23357264Y-23622066D01*
X23367452Y-23466619D01*
X23367722Y-23462500D01*
X23357978Y-23313838D01*
X23349126Y-23178776D01*
X23349125Y-23178772D01*
X23348856Y-23174661D01*
X23343276Y-23146606D01*
X23293387Y-22895797D01*
X23293385Y-22895791D01*
X23292581Y-22891747D01*
X23254740Y-22780270D01*
X23201183Y-22622498D01*
X23201182Y-22622496D01*
X23199859Y-22618598D01*
X23154439Y-22526495D01*
X23074105Y-22363593D01*
X23074102Y-22363588D01*
X23072278Y-22359889D01*
X23034311Y-22303067D01*
X22914313Y-22123477D01*
X22914309Y-22123472D01*
X22912020Y-22120046D01*
X22909306Y-22116952D01*
X22909302Y-22116946D01*
X22724536Y-21906262D01*
X22721827Y-21903173D01*
X22641954Y-21833126D01*
X22508054Y-21715698D01*
X22508048Y-21715694D01*
X22504954Y-21712980D01*
X22501528Y-21710691D01*
X22501523Y-21710687D01*
X22268544Y-21555016D01*
X22265111Y-21552722D01*
X22261412Y-21550898D01*
X22261407Y-21550895D01*
X22010097Y-21426963D01*
X22010095Y-21426962D01*
X22006402Y-21425141D01*
X21810035Y-21358483D01*
X21737163Y-21333746D01*
X21737159Y-21333745D01*
X21733253Y-21332419D01*
X21729209Y-21331615D01*
X21729203Y-21331613D01*
X21454382Y-21276948D01*
X21454379Y-21276948D01*
X21450339Y-21276144D01*
X21446228Y-21275875D01*
X21446224Y-21275874D01*
X21166619Y-21257548D01*
X21162500Y-21257278D01*
X21158381Y-21257548D01*
X20878776Y-21275874D01*
X20878772Y-21275875D01*
X20874661Y-21276144D01*
X20870621Y-21276948D01*
X20870618Y-21276948D01*
X20595797Y-21331613D01*
X20595791Y-21331615D01*
X20591747Y-21332419D01*
X20587841Y-21333745D01*
X20587837Y-21333746D01*
X20514965Y-21358483D01*
X20318598Y-21425141D01*
X20314905Y-21426962D01*
X20314903Y-21426963D01*
X20063593Y-21550895D01*
X20063588Y-21550898D01*
X20059889Y-21552722D01*
X20056456Y-21555016D01*
X19823477Y-21710687D01*
X19823472Y-21710691D01*
X19820046Y-21712980D01*
X19816952Y-21715694D01*
X19816946Y-21715698D01*
X19683046Y-21833126D01*
X19603173Y-21903173D01*
X19600464Y-21906262D01*
X19415698Y-22116946D01*
X19415694Y-22116952D01*
X19412980Y-22120046D01*
X19410691Y-22123472D01*
X19410687Y-22123477D01*
X19290689Y-22303067D01*
X19252722Y-22359889D01*
X19250898Y-22363588D01*
X19250895Y-22363593D01*
X19170561Y-22526495D01*
X19125141Y-22618598D01*
X19123818Y-22622496D01*
X19123817Y-22622498D01*
X19070261Y-22780270D01*
X19032419Y-22891747D01*
X19031615Y-22895791D01*
X19031613Y-22895797D01*
X18981724Y-23146606D01*
X18976144Y-23174661D01*
X18975875Y-23178772D01*
X18975874Y-23178776D01*
X18967022Y-23313838D01*
X18957278Y-23462500D01*
X16991574Y-23462500D01*
X16999897Y-19549099D01*
X17001397Y-19529985D01*
X17003722Y-19515047D01*
X17005104Y-19506171D01*
X17003170Y-19491381D01*
X17002427Y-19466057D01*
X17014625Y-19295518D01*
X17017183Y-19277724D01*
X17058844Y-19086207D01*
X17063910Y-19068957D01*
X17132405Y-18885318D01*
X17139872Y-18868966D01*
X17233801Y-18696946D01*
X17243521Y-18681822D01*
X17360977Y-18524920D01*
X17372750Y-18511334D01*
X17511334Y-18372750D01*
X17524920Y-18360977D01*
X17681822Y-18243521D01*
X17696946Y-18233801D01*
X17868966Y-18139872D01*
X17885318Y-18132405D01*
X18068957Y-18063910D01*
X18086202Y-18058846D01*
X18277723Y-18017183D01*
X18295518Y-18014625D01*
X18312065Y-18013442D01*
X18459059Y-18002928D01*
X18475982Y-18003632D01*
X18475982Y-18003613D01*
X18484958Y-18003723D01*
X18493829Y-18005104D01*
X18502731Y-18003940D01*
X18502734Y-18003940D01*
X18524725Y-18001064D01*
X18541062Y-18000000D01*
X56701297Y-18000000D01*
X56720681Y-18001500D01*
G37*
%TD.AperFunction*%
%TA.AperFunction,Conductor*%
G36*
X31094184Y-53252361D02*
G01*
X31138103Y-53258143D01*
X31169874Y-53266656D01*
X31236652Y-53294316D01*
X31265139Y-53310763D01*
X31322480Y-53354763D01*
X31345737Y-53378020D01*
X31389737Y-53435361D01*
X31406184Y-53463848D01*
X31433844Y-53530626D01*
X31442357Y-53562397D01*
X31451791Y-53634053D01*
X31451791Y-53666947D01*
X31442357Y-53738603D01*
X31433844Y-53770374D01*
X31406184Y-53837152D01*
X31389737Y-53865639D01*
X31345737Y-53922980D01*
X31322480Y-53946237D01*
X31265139Y-53990237D01*
X31236652Y-54006684D01*
X31169874Y-54034344D01*
X31138103Y-54042857D01*
X31093565Y-54048721D01*
X31066444Y-54052291D01*
X31033554Y-54052291D01*
X30961896Y-54042857D01*
X30930125Y-54034344D01*
X30863347Y-54006683D01*
X30834861Y-53990237D01*
X30777520Y-53946237D01*
X30754263Y-53922980D01*
X30710263Y-53865639D01*
X30693816Y-53837152D01*
X30666156Y-53770374D01*
X30657643Y-53738603D01*
X30648209Y-53666947D01*
X30648209Y-53634053D01*
X30657643Y-53562397D01*
X30666156Y-53530626D01*
X30693816Y-53463848D01*
X30710263Y-53435361D01*
X30754263Y-53378020D01*
X30777520Y-53354763D01*
X30834861Y-53310763D01*
X30863348Y-53294316D01*
X30930126Y-53266656D01*
X30961897Y-53258143D01*
X31005816Y-53252361D01*
X31033555Y-53248709D01*
X31066445Y-53248709D01*
X31094184Y-53252361D01*
G37*
%TD.AperFunction*%
%TA.AperFunction,Conductor*%
G36*
X22475839Y-45129741D02*
G01*
X22513334Y-45141923D01*
X22541419Y-45156233D01*
X22573311Y-45179405D01*
X22595596Y-45201690D01*
X22618766Y-45233579D01*
X22633077Y-45261667D01*
X22645258Y-45299156D01*
X22650189Y-45330290D01*
X22650189Y-45369710D01*
X22645258Y-45400844D01*
X22633077Y-45438333D01*
X22618766Y-45466421D01*
X22595596Y-45498310D01*
X22573311Y-45520595D01*
X22541419Y-45543767D01*
X22513334Y-45558077D01*
X22475839Y-45570259D01*
X22444708Y-45575189D01*
X22405292Y-45575189D01*
X22374161Y-45570259D01*
X22336667Y-45558077D01*
X22305718Y-45542308D01*
X22284838Y-45528931D01*
X22283821Y-45528128D01*
X22280104Y-45524673D01*
X22226728Y-45489102D01*
X22174732Y-45465458D01*
X22121001Y-45419052D01*
X22100888Y-45350964D01*
X22120780Y-45282811D01*
X22178529Y-45234718D01*
X22182858Y-45233495D01*
X22204841Y-45221491D01*
X22241219Y-45201627D01*
X22241224Y-45201624D01*
X22245170Y-45199469D01*
X22282205Y-45171744D01*
X22300513Y-45160344D01*
X22336667Y-45141923D01*
X22374161Y-45129741D01*
X22405292Y-45124811D01*
X22444708Y-45124811D01*
X22475839Y-45129741D01*
G37*
%TD.AperFunction*%
%TD*%
M02*
